<svg width="418" height="402" viewBox="0 0 418 402" fill="none" xmlns="http://www.w3.org/2000/svg">
<rect width="418" height="402" fill="white"/>
<path d="M103 23L108 28L113 23H103Z" fill="#1A1A1A"/>
<path d="M26.248 19.016V29H24.904V19.016H21.352V17.832H29.8V19.016H26.248ZM30.7975 29V20.744H32.0775V22.264H32.1575C32.3068 21.8693 32.5735 21.5173 32.9575 21.208C33.3415 20.8987 33.8695 20.744 34.5415 20.744H35.0375V22.024H34.2855C33.5922 22.024 33.0482 22.1573 32.6535 22.424C32.2695 22.68 32.0775 23.0053 32.0775 23.4V29H30.7975ZM37.3125 18.808C37.0352 18.808 36.8325 18.744 36.7045 18.616C36.5872 18.4773 36.5285 18.3013 36.5285 18.088V17.88C36.5285 17.6667 36.5872 17.496 36.7045 17.368C36.8325 17.2293 37.0352 17.16 37.3125 17.16C37.5898 17.16 37.7872 17.2293 37.9045 17.368C38.0325 17.496 38.0965 17.6667 38.0965 17.88V18.088C38.0965 18.3013 38.0325 18.4773 37.9045 18.616C37.7872 18.744 37.5898 18.808 37.3125 18.808ZM36.6725 20.744H37.9525V29H36.6725V20.744ZM40.6725 29V20.744H41.9525V22.088H42.0165C42.2192 21.6187 42.5018 21.2453 42.8645 20.968C43.2378 20.6907 43.7338 20.552 44.3525 20.552C45.2058 20.552 45.8778 20.8293 46.3685 21.384C46.8698 21.928 47.1205 22.7013 47.1205 23.704V29H45.8405V23.928C45.8405 22.4453 45.2165 21.704 43.9685 21.704C43.7125 21.704 43.4618 21.736 43.2165 21.8C42.9818 21.864 42.7685 21.96 42.5765 22.088C42.3845 22.216 42.2298 22.3813 42.1125 22.584C42.0058 22.776 41.9525 23.0053 41.9525 23.272V29H40.6725ZM60.7155 29H53.3875V27.624L57.0355 24.264C57.5582 23.784 57.9955 23.2773 58.3475 22.744C58.6995 22.2 58.8755 21.656 58.8755 21.112V20.92C58.8755 20.3013 58.7048 19.8 58.3635 19.416C58.0222 19.032 57.5048 18.84 56.8115 18.84C56.4702 18.84 56.1715 18.888 55.9155 18.984C55.6595 19.08 55.4355 19.2133 55.2435 19.384C55.0622 19.5547 54.9075 19.7573 54.7795 19.992C54.6622 20.216 54.5662 20.4613 54.4915 20.728L53.2915 20.264C53.3982 19.9333 53.5422 19.6133 53.7235 19.304C53.9155 18.984 54.1502 18.7013 54.4275 18.456C54.7155 18.2107 55.0568 18.0133 55.4515 17.864C55.8568 17.7147 56.3315 17.64 56.8755 17.64C57.4195 17.64 57.9048 17.72 58.3315 17.88C58.7582 18.04 59.1155 18.264 59.4035 18.552C59.6915 18.84 59.9102 19.1813 60.0595 19.576C60.2195 19.9707 60.2995 20.408 60.2995 20.888C60.2995 21.3253 60.2355 21.7307 60.1075 22.104C59.9902 22.4773 59.8248 22.8347 59.6115 23.176C59.3982 23.5067 59.1368 23.832 58.8275 24.152C58.5288 24.472 58.2035 24.792 57.8515 25.112L54.8435 27.816H60.7155V29ZM72.9225 29C72.4425 29 72.0958 28.872 71.8825 28.616C71.6798 28.36 71.5518 28.04 71.4985 27.656H71.4185C71.2372 28.168 70.9385 28.552 70.5225 28.808C70.1065 29.064 69.6105 29.192 69.0345 29.192C68.1598 29.192 67.4772 28.968 66.9865 28.52C66.5065 28.072 66.2665 27.464 66.2665 26.696C66.2665 25.9173 66.5492 25.32 67.1145 24.904C67.6905 24.488 68.5812 24.28 69.7865 24.28H71.4185V23.464C71.4185 22.8773 71.2585 22.4293 70.9385 22.12C70.6185 21.8107 70.1278 21.656 69.4665 21.656C68.9652 21.656 68.5438 21.768 68.2025 21.992C67.8718 22.216 67.5945 22.5147 67.3705 22.888L66.6025 22.168C66.8265 21.72 67.1838 21.3413 67.6745 21.032C68.1652 20.712 68.7838 20.552 69.5305 20.552C70.5332 20.552 71.3118 20.7973 71.8665 21.288C72.4212 21.7787 72.6985 22.4613 72.6985 23.336V27.88H73.6425V29H72.9225ZM69.2425 28.104C69.5625 28.104 69.8558 28.0667 70.1225 27.992C70.3892 27.9173 70.6185 27.8107 70.8105 27.672C71.0025 27.5333 71.1518 27.3733 71.2585 27.192C71.3652 27.0107 71.4185 26.8133 71.4185 26.6V25.24H69.7225C68.9865 25.24 68.4478 25.3467 68.1065 25.56C67.7758 25.7733 67.6105 26.0827 67.6105 26.488V26.824C67.6105 27.2293 67.7545 27.544 68.0425 27.768C68.3412 27.992 68.7412 28.104 69.2425 28.104ZM75.9174 21.864H74.5734V20.744H75.9174V19.08C75.9174 18.504 76.0667 18.04 76.3654 17.688C76.664 17.336 77.1174 17.16 77.7254 17.16H78.9734V18.28H77.1974V20.744H78.9734V21.864H77.1974V29H75.9174V21.864ZM91.0461 19.016H86.1501L85.8301 23.272H85.9421C86.2088 22.8987 86.5075 22.6 86.8381 22.376C87.1795 22.152 87.6435 22.04 88.2301 22.04C88.7101 22.04 89.1528 22.12 89.5581 22.28C89.9635 22.44 90.3155 22.6693 90.6141 22.968C90.9128 23.256 91.1421 23.6133 91.3021 24.04C91.4728 24.4667 91.5581 24.952 91.5581 25.496C91.5581 26.04 91.4728 26.5413 91.3021 27C91.1315 27.448 90.8808 27.8373 90.5501 28.168C90.2301 28.488 89.8355 28.7387 89.3661 28.92C88.9075 29.1013 88.3848 29.192 87.7981 29.192C87.3288 29.192 86.9128 29.1387 86.5501 29.032C86.1981 28.9253 85.8835 28.7813 85.6061 28.6C85.3288 28.4187 85.0835 28.216 84.8701 27.992C84.6675 27.768 84.4808 27.5333 84.3101 27.288L85.3181 26.52C85.4568 26.744 85.6008 26.9467 85.7501 27.128C85.9101 27.3093 86.0808 27.464 86.2621 27.592C86.4541 27.72 86.6728 27.8213 86.9181 27.896C87.1635 27.96 87.4568 27.992 87.7981 27.992C88.5661 27.992 89.1475 27.7893 89.5421 27.384C89.9368 26.9787 90.1341 26.408 90.1341 25.672V25.512C90.1341 24.776 89.9368 24.2053 89.5421 23.8C89.1475 23.3947 88.5661 23.192 87.7981 23.192C87.2861 23.192 86.8808 23.288 86.5821 23.48C86.2941 23.6613 86.0328 23.88 85.7981 24.136L84.6621 23.976L85.0621 17.832H91.0461V19.016Z" fill="#1A1A1A"/>
<rect x="17" y="223" width="84" height="38.0001" rx="3" fill="#0059B3"/>
<rect x="18.5" y="258.5" width="81" height="1" stroke="#004993"/>
<path d="M36.932 241.052L35.546 238.388H35.492V248H33.548V235.436H35.816L39.92 242.384L41.306 245.048H41.36V235.436H43.304V248H41.036L36.932 241.052ZM49.6016 243.824C48.2456 243.848 47.5676 244.274 47.5676 245.102V245.426C47.5676 245.846 47.7056 246.17 47.9816 246.398C48.2696 246.614 48.6716 246.722 49.1876 246.722C49.7636 246.722 50.2496 246.59 50.6456 246.326C51.0536 246.05 51.2576 245.684 51.2576 245.228V243.824H49.6016ZM57.5756 242.528V242.348C57.5756 241.628 57.3896 241.052 57.0176 240.62C56.6456 240.176 56.1356 239.954 55.4876 239.954C55.1516 239.954 54.8396 240.014 54.5516 240.134C54.2756 240.254 54.0356 240.422 53.8316 240.638C53.6396 240.854 53.4896 241.112 53.3816 241.412C53.2736 241.712 53.2196 242.042 53.2196 242.402V242.528H57.5756ZM55.7216 246.596C56.2976 246.596 56.7836 246.47 57.1796 246.218C57.5876 245.966 57.9176 245.63 58.1696 245.21L59.3216 246.326C58.9736 246.902 58.4756 247.364 57.8276 247.712C57.1916 248.048 56.4596 248.216 55.6316 248.216C55.1636 248.216 54.7256 248.156 54.3176 248.036C53.9216 247.916 53.5676 247.76 53.2556 247.568C52.9556 247.376 52.7036 247.166 52.4996 246.938C52.3076 246.698 52.1696 246.464 52.0856 246.236H51.9776C51.9176 246.452 51.7976 246.68 51.6176 246.92C51.4496 247.148 51.2276 247.358 50.9516 247.55C50.6756 247.742 50.3396 247.898 49.9436 248.018C49.5476 248.15 49.0976 248.216 48.5936 248.216C47.6456 248.216 46.9016 247.958 46.3616 247.442C45.8336 246.926 45.5696 246.254 45.5696 245.426C45.5696 244.478 45.9176 243.758 46.6136 243.266C47.3096 242.774 48.2936 242.528 49.5656 242.528H51.2576V241.826C51.2576 241.25 51.1016 240.806 50.7896 240.494C50.4776 240.182 49.9976 240.026 49.3496 240.026C48.7736 240.026 48.3116 240.146 47.9636 240.386C47.6276 240.614 47.3396 240.914 47.0996 241.286L45.9296 240.242C46.2416 239.714 46.6796 239.282 47.2436 238.946C47.8076 238.598 48.5456 238.424 49.4576 238.424C49.8896 238.424 50.2616 238.478 50.5736 238.586C50.8856 238.694 51.1496 238.832 51.3656 239C51.5936 239.168 51.7736 239.36 51.9056 239.576C52.0496 239.78 52.1696 239.984 52.2656 240.188H52.3736C52.4696 239.972 52.6136 239.762 52.8056 239.558C52.9976 239.342 53.2256 239.15 53.4896 238.982C53.7656 238.814 54.0776 238.682 54.4256 238.586C54.7856 238.478 55.1756 238.424 55.5956 238.424C56.2676 238.424 56.8556 238.544 57.3596 238.784C57.8636 239.024 58.2836 239.36 58.6196 239.792C58.9676 240.212 59.2256 240.704 59.3936 241.268C59.5616 241.832 59.6456 242.438 59.6456 243.086V243.824H53.2196V244.13C53.2196 244.85 53.4356 245.444 53.8676 245.912C54.3116 246.368 54.9296 246.596 55.7216 246.596ZM64.7978 248.216C63.9098 248.216 63.1658 248.06 62.5658 247.748C61.9658 247.436 61.4438 247.004 60.9998 246.452L62.2598 245.3C62.6078 245.72 62.9918 246.05 63.4118 246.29C63.8438 246.518 64.3418 246.632 64.9058 246.632C65.4818 246.632 65.9078 246.524 66.1838 246.308C66.4718 246.08 66.6158 245.768 66.6158 245.372C66.6158 245.072 66.5138 244.82 66.3098 244.616C66.1178 244.4 65.7758 244.262 65.2838 244.202L64.4198 244.094C63.4598 243.974 62.7038 243.698 62.1518 243.266C61.6118 242.822 61.3418 242.168 61.3418 241.304C61.3418 240.848 61.4258 240.446 61.5938 240.098C61.7618 239.738 61.9958 239.438 62.2958 239.198C62.6078 238.946 62.9738 238.754 63.3938 238.622C63.8258 238.49 64.2998 238.424 64.8158 238.424C65.6558 238.424 66.3398 238.556 66.8678 238.82C67.4078 239.084 67.8878 239.45 68.3078 239.918L67.1018 241.07C66.8618 240.782 66.5438 240.536 66.1478 240.332C65.7638 240.116 65.3198 240.008 64.8158 240.008C64.2758 240.008 63.8738 240.116 63.6098 240.332C63.3578 240.548 63.2318 240.83 63.2318 241.178C63.2318 241.538 63.3458 241.808 63.5738 241.988C63.8018 242.168 64.1678 242.3 64.6718 242.384L65.5358 242.492C66.5678 242.648 67.3178 242.954 67.7858 243.41C68.2658 243.854 68.5058 244.454 68.5058 245.21C68.5058 245.666 68.4158 246.08 68.2358 246.452C68.0678 246.812 67.8218 247.124 67.4978 247.388C67.1738 247.652 66.7838 247.856 66.3278 248C65.8718 248.144 65.3618 248.216 64.7978 248.216ZM73.1913 248C72.5073 248 71.9913 247.826 71.6433 247.478C71.2953 247.118 71.1213 246.614 71.1213 245.966V240.242H69.6633V238.64H70.4553C70.7793 238.64 71.0013 238.568 71.1213 238.424C71.2533 238.28 71.3193 238.046 71.3193 237.722V236.084H73.0833V238.64H75.0453V240.242H73.0833V246.398H74.9013V248H73.1913ZM80.7752 248.216C80.1032 248.216 79.5032 248.102 78.9752 247.874C78.4472 247.646 77.9972 247.322 77.6252 246.902C77.2532 246.47 76.9652 245.954 76.7612 245.354C76.5692 244.742 76.4732 244.064 76.4732 243.32C76.4732 242.576 76.5692 241.904 76.7612 241.304C76.9652 240.692 77.2532 240.176 77.6252 239.756C77.9972 239.324 78.4472 238.994 78.9752 238.766C79.5032 238.538 80.1032 238.424 80.7752 238.424C81.4592 238.424 82.0592 238.544 82.5752 238.784C83.1032 239.024 83.5412 239.36 83.8892 239.792C84.2372 240.212 84.4952 240.704 84.6632 241.268C84.8432 241.832 84.9332 242.438 84.9332 243.086V243.824H78.5072V244.13C78.5072 244.85 78.7172 245.444 79.1372 245.912C79.5692 246.368 80.1812 246.596 80.9732 246.596C81.5492 246.596 82.0352 246.47 82.4312 246.218C82.8272 245.966 83.1632 245.624 83.4392 245.192L84.5912 246.326C84.2432 246.902 83.7392 247.364 83.0792 247.712C82.4192 248.048 81.6512 248.216 80.7752 248.216ZM80.7752 239.954C80.4392 239.954 80.1272 240.014 79.8392 240.134C79.5632 240.254 79.3232 240.422 79.1192 240.638C78.9272 240.854 78.7772 241.112 78.6692 241.412C78.5612 241.712 78.5072 242.042 78.5072 242.402V242.528H82.8632V242.348C82.8632 241.628 82.6772 241.052 82.3052 240.62C81.9332 240.176 81.4232 239.954 80.7752 239.954Z" fill="white"/>
<rect x="17" y="223" width="84" height="38.0001" rx="3" stroke="#004993" stroke-width="2"/>
<rect width="205" height="20" transform="translate(16 74)" fill="#DCDCDC"/>
<rect width="205" height="20" transform="translate(16 126)" fill="#DCDCDC"/>
<rect width="205" height="20" transform="translate(16 178)" fill="#DCDCDC"/>
<rect width="118" height="12" transform="translate(16 58)" fill="#DCDCDC"/>
<rect width="118" height="12" transform="translate(16 110)" fill="#DCDCDC"/>
<rect width="118" height="12" transform="translate(16 162)" fill="#DCDCDC"/>
</svg>
