<svg width="418" height="352" viewBox="0 0 418 352" fill="none" xmlns="http://www.w3.org/2000/svg">
<rect width="418" height="352" fill="white"/>
<path d="M16 176C16 171.582 19.5817 168 24 168H89C93.4183 168 97 171.582 97 176V200C97 204.418 93.4183 208 89 208H24C19.5817 208 16 204.418 16 200V176Z" fill="#44831E"/>
<path d="M36.512 188.272L35.36 185.952H35.312V194H33.312V182.832H35.632L38.992 188.56L40.144 190.88H40.192V182.832H42.192V194H39.872L36.512 188.272ZM47.772 190.336C47.26 190.347 46.8653 190.443 46.588 190.624C46.3107 190.795 46.172 191.051 46.172 191.392V191.648C46.172 191.989 46.2787 192.251 46.492 192.432C46.7053 192.613 47.0253 192.704 47.452 192.704C47.9 192.704 48.284 192.603 48.604 192.4C48.924 192.197 49.084 191.899 49.084 191.504V190.336H47.772ZM54.572 189.072V188.928C54.572 188.352 54.428 187.888 54.14 187.536C53.8627 187.173 53.4573 186.992 52.924 186.992C52.38 186.992 51.948 187.173 51.628 187.536C51.308 187.899 51.148 188.368 51.148 188.944V189.072H54.572ZM53.212 192.528C53.7133 192.528 54.1347 192.421 54.476 192.208C54.8173 191.995 55.1053 191.733 55.34 191.424L56.444 192.656C56.1027 193.136 55.6387 193.515 55.052 193.792C54.4653 194.059 53.7933 194.192 53.036 194.192C52.6307 194.192 52.252 194.144 51.9 194.048C51.548 193.952 51.2333 193.824 50.956 193.664C50.6893 193.504 50.46 193.323 50.268 193.12C50.076 192.917 49.932 192.704 49.836 192.48H49.74C49.6653 192.693 49.548 192.901 49.388 193.104C49.2387 193.307 49.0413 193.488 48.796 193.648C48.5507 193.808 48.2573 193.936 47.916 194.032C47.5853 194.139 47.196 194.192 46.748 194.192C45.9053 194.192 45.2493 193.963 44.78 193.504C44.3213 193.045 44.092 192.448 44.092 191.712C44.092 191.275 44.1773 190.891 44.348 190.56C44.5187 190.229 44.7587 189.957 45.068 189.744C45.3773 189.52 45.7507 189.355 46.188 189.248C46.6253 189.131 47.116 189.072 47.66 189.072H49.084V188.56C49.084 188.091 48.9613 187.728 48.716 187.472C48.4707 187.216 48.0813 187.088 47.548 187.088C47.0573 187.088 46.6627 187.189 46.364 187.392C46.076 187.595 45.8307 187.845 45.628 188.144L44.412 187.056C44.7213 186.576 45.132 186.192 45.644 185.904C46.156 185.605 46.8333 185.456 47.676 185.456C48.316 185.456 48.828 185.589 49.212 185.856C49.596 186.112 49.8947 186.437 50.108 186.832H50.204C50.4173 186.437 50.764 186.112 51.244 185.856C51.724 185.589 52.3 185.456 52.972 185.456C53.6227 185.456 54.1827 185.568 54.652 185.792C55.1213 186.016 55.5053 186.32 55.804 186.704C56.1133 187.088 56.3373 187.536 56.476 188.048C56.6253 188.549 56.7 189.088 56.7 189.664V190.336H51.132V190.544C51.132 191.141 51.3133 191.621 51.676 191.984C52.0387 192.347 52.5507 192.528 53.212 192.528ZM61.2481 194.192C60.4481 194.192 59.7761 194.059 59.2321 193.792C58.6881 193.515 58.2081 193.136 57.7921 192.656L59.0401 191.44C59.3495 191.792 59.6855 192.069 60.0481 192.272C60.4215 192.475 60.8481 192.576 61.3281 192.576C61.8188 192.576 62.1708 192.491 62.3841 192.32C62.6081 192.149 62.7201 191.915 62.7201 191.616C62.7201 191.371 62.6401 191.179 62.4801 191.04C62.3308 190.891 62.0695 190.789 61.6961 190.736L60.8641 190.624C59.9575 190.507 59.2641 190.251 58.7841 189.856C58.3148 189.451 58.0801 188.864 58.0801 188.096C58.0801 187.691 58.1548 187.328 58.3041 187.008C58.4535 186.677 58.6668 186.4 58.9441 186.176C59.2215 185.941 59.5521 185.765 59.9361 185.648C60.3308 185.52 60.7681 185.456 61.2481 185.456C61.6535 185.456 62.0108 185.488 62.3201 185.552C62.6401 185.605 62.9281 185.691 63.1841 185.808C63.4401 185.915 63.6748 186.053 63.8881 186.224C64.1015 186.384 64.3095 186.565 64.5121 186.768L63.3121 187.968C63.0668 187.712 62.7735 187.499 62.4321 187.328C62.0908 187.157 61.7175 187.072 61.3121 187.072C60.8641 187.072 60.5388 187.152 60.3361 187.312C60.1441 187.472 60.0481 187.68 60.0481 187.936C60.0481 188.213 60.1281 188.427 60.2881 188.576C60.4588 188.715 60.7415 188.816 61.1361 188.88L61.9841 188.992C63.7868 189.248 64.6881 190.069 64.6881 191.456C64.6881 191.861 64.6028 192.235 64.4321 192.576C64.2721 192.907 64.0428 193.195 63.7441 193.44C63.4455 193.675 63.0828 193.861 62.6561 194C62.2401 194.128 61.7708 194.192 61.2481 194.192ZM68.9795 194C68.2755 194 67.7368 193.819 67.3635 193.456C67.0008 193.083 66.8195 192.555 66.8195 191.872V187.28H65.5875V185.648H66.2275C66.5368 185.648 66.7448 185.579 66.8515 185.44C66.9688 185.291 67.0275 185.072 67.0275 184.784V183.36H68.8675V185.648H70.5795V187.28H68.8675V192.368H70.4515V194H68.9795ZM75.6694 194.192C75.0507 194.192 74.496 194.091 74.0054 193.888C73.5254 193.675 73.1147 193.381 72.7734 193.008C72.4427 192.624 72.1867 192.165 72.0054 191.632C71.824 191.088 71.7334 190.48 71.7334 189.808C71.7334 189.147 71.8187 188.549 71.9894 188.016C72.1707 187.483 72.4267 187.029 72.7574 186.656C73.088 186.272 73.4934 185.979 73.9734 185.776C74.4534 185.563 74.9974 185.456 75.6054 185.456C76.256 185.456 76.8214 185.568 77.3014 185.792C77.7814 186.016 78.176 186.32 78.4854 186.704C78.7947 187.088 79.024 187.536 79.1734 188.048C79.3334 188.549 79.4134 189.088 79.4134 189.664V190.336H73.8614V190.544C73.8614 191.152 74.032 191.643 74.3734 192.016C74.7147 192.379 75.2214 192.56 75.8934 192.56C76.4054 192.56 76.8214 192.453 77.1414 192.24C77.472 192.027 77.7654 191.755 78.0214 191.424L79.1254 192.656C78.784 193.136 78.3147 193.515 77.7174 193.792C77.1307 194.059 76.448 194.192 75.6694 194.192ZM75.6374 186.992C75.0934 186.992 74.6614 187.173 74.3414 187.536C74.0214 187.899 73.8614 188.368 73.8614 188.944V189.072H77.2854V188.928C77.2854 188.352 77.1414 187.888 76.8534 187.536C76.576 187.173 76.1707 186.992 75.6374 186.992Z" fill="white"/>
<path d="M16 76C16 73.7909 17.7909 72 20 72H217C219.209 72 221 73.7909 221 76V88C221 90.2091 219.209 92 217 92H20C17.7909 92 16 90.2091 16 88V76Z" fill="#DCDCDC"/>
<path d="M16 128C16 125.791 17.7909 124 20 124H217C219.209 124 221 125.791 221 128V140C221 142.209 219.209 144 217 144H20C17.7909 144 16 142.209 16 140V128Z" fill="#DCDCDC"/>
<path d="M16 60C16 57.7909 17.7909 56 20 56H130C132.209 56 134 57.7909 134 60V64C134 66.2091 132.209 68 130 68H20C17.7909 68 16 66.2091 16 64V60Z" fill="#DCDCDC"/>
<path d="M16 112C16 109.791 17.7909 108 20 108H130C132.209 108 134 109.791 134 112V116C134 118.209 132.209 120 130 120H20C17.7909 120 16 118.209 16 116V112Z" fill="#DCDCDC"/>
<path d="M20.592 20.264V29H19.416V20.264H16.308V19.228H23.7V20.264H20.592ZM25.5728 29V21.776H26.6928V23.106H26.7628C26.8935 22.7607 27.1268 22.4527 27.4628 22.182C27.7988 21.9113 28.2608 21.776 28.8488 21.776H29.2828V22.896H28.6248C28.0181 22.896 27.5421 23.0127 27.1968 23.246C26.8608 23.47 26.6928 23.7547 26.6928 24.1V29H25.5728ZM32.2734 20.082C32.0308 20.082 31.8534 20.026 31.7414 19.914C31.6388 19.7927 31.5874 19.6387 31.5874 19.452V19.27C31.5874 19.0833 31.6388 18.934 31.7414 18.822C31.8534 18.7007 32.0308 18.64 32.2734 18.64C32.5161 18.64 32.6888 18.7007 32.7914 18.822C32.9034 18.934 32.9594 19.0833 32.9594 19.27V19.452C32.9594 19.6387 32.9034 19.7927 32.7914 19.914C32.6888 20.026 32.5161 20.082 32.2734 20.082ZM31.7134 21.776H32.8334V29H31.7134V21.776ZM36.2134 29V21.776H37.3334V22.952H37.3894C37.5668 22.5413 37.8141 22.2147 38.1314 21.972C38.4581 21.7293 38.8921 21.608 39.4334 21.608C40.1801 21.608 40.7681 21.8507 41.1974 22.336C41.6361 22.812 41.8554 23.4887 41.8554 24.366V29H40.7354V24.562C40.7354 23.2647 40.1894 22.616 39.0974 22.616C38.8734 22.616 38.6541 22.644 38.4394 22.7C38.2341 22.756 38.0474 22.84 37.8794 22.952C37.7114 23.064 37.5761 23.2087 37.4734 23.386C37.3801 23.554 37.3334 23.7547 37.3334 23.988V29H36.2134ZM55.7511 29H49.3391V27.796L52.5311 24.856C52.9884 24.436 53.3711 23.9927 53.6791 23.526C53.9871 23.05 54.1411 22.574 54.1411 22.098V21.93C54.1411 21.3887 53.9917 20.95 53.6931 20.614C53.3944 20.278 52.9417 20.11 52.3351 20.11C52.0364 20.11 51.7751 20.152 51.5511 20.236C51.3271 20.32 51.1311 20.4367 50.9631 20.586C50.8044 20.7353 50.6691 20.9127 50.5571 21.118C50.4544 21.314 50.3704 21.5287 50.3051 21.762L49.2551 21.356C49.3484 21.0667 49.4744 20.7867 49.6331 20.516C49.8011 20.236 50.0064 19.9887 50.2491 19.774C50.5011 19.5593 50.7997 19.3867 51.1451 19.256C51.4997 19.1253 51.9151 19.06 52.3911 19.06C52.8671 19.06 53.2917 19.13 53.6651 19.27C54.0384 19.41 54.3511 19.606 54.6031 19.858C54.8551 20.11 55.0464 20.4087 55.1771 20.754C55.3171 21.0993 55.3871 21.482 55.3871 21.902C55.3871 22.2847 55.3311 22.6393 55.2191 22.966C55.1164 23.2927 54.9717 23.6053 54.7851 23.904C54.5984 24.1933 54.3697 24.478 54.0991 24.758C53.8377 25.038 53.5531 25.318 53.2451 25.598L50.6131 27.964H55.7511V29ZM68.4322 29C68.0122 29 67.7089 28.888 67.5222 28.664C67.3449 28.44 67.2329 28.16 67.1862 27.824H67.1162C66.9575 28.272 66.6962 28.608 66.3322 28.832C65.9682 29.056 65.5342 29.168 65.0302 29.168C64.2649 29.168 63.6675 28.972 63.2382 28.58C62.8182 28.188 62.6082 27.656 62.6082 26.984C62.6082 26.3027 62.8555 25.78 63.3502 25.416C63.8542 25.052 64.6335 24.87 65.6882 24.87H67.1162V24.156C67.1162 23.6427 66.9762 23.2507 66.6962 22.98C66.4162 22.7093 65.9869 22.574 65.4082 22.574C64.9695 22.574 64.6009 22.672 64.3022 22.868C64.0129 23.064 63.7702 23.3253 63.5742 23.652L62.9022 23.022C63.0982 22.63 63.4109 22.2987 63.8402 22.028C64.2695 21.748 64.8109 21.608 65.4642 21.608C66.3415 21.608 67.0229 21.8227 67.5082 22.252C67.9935 22.6813 68.2362 23.2787 68.2362 24.044V28.02H69.0622V29H68.4322ZM65.2122 28.216C65.4922 28.216 65.7489 28.1833 65.9822 28.118C66.2155 28.0527 66.4162 27.9593 66.5842 27.838C66.7522 27.7167 66.8829 27.5767 66.9762 27.418C67.0695 27.2593 67.1162 27.0867 67.1162 26.9V25.71H65.6322C64.9882 25.71 64.5169 25.8033 64.2182 25.99C63.9289 26.1767 63.7842 26.4473 63.7842 26.802V27.096C63.7842 27.4507 63.9102 27.726 64.1622 27.922C64.4235 28.118 64.7735 28.216 65.2122 28.216ZM72.0527 22.756H70.8767V21.776H72.0527V20.32C72.0527 19.816 72.1834 19.41 72.4447 19.102C72.706 18.794 73.1027 18.64 73.6347 18.64H74.7267V19.62H73.1727V21.776H74.7267V22.756H73.1727V29H72.0527V22.756ZM87.2904 20.264H83.0064L82.7264 23.988H82.8244C83.0577 23.6613 83.319 23.4 83.6084 23.204C83.907 23.008 84.313 22.91 84.8264 22.91C85.2464 22.91 85.6337 22.98 85.9884 23.12C86.343 23.26 86.651 23.4607 86.9124 23.722C87.1737 23.974 87.3744 24.2867 87.5144 24.66C87.6637 25.0333 87.7384 25.458 87.7384 25.934C87.7384 26.41 87.6637 26.8487 87.5144 27.25C87.365 27.642 87.1457 27.9827 86.8564 28.272C86.5764 28.552 86.231 28.7713 85.8204 28.93C85.419 29.0887 84.9617 29.168 84.4484 29.168C84.0377 29.168 83.6737 29.1213 83.3564 29.028C83.0484 28.9347 82.773 28.8087 82.5304 28.65C82.2877 28.4913 82.073 28.314 81.8864 28.118C81.709 27.922 81.5457 27.7167 81.3964 27.502L82.2784 26.83C82.3997 27.026 82.5257 27.2033 82.6564 27.362C82.7964 27.5207 82.9457 27.656 83.1044 27.768C83.2724 27.88 83.4637 27.9687 83.6784 28.034C83.893 28.09 84.1497 28.118 84.4484 28.118C85.1204 28.118 85.629 27.9407 85.9744 27.586C86.3197 27.2313 86.4924 26.732 86.4924 26.088V25.948C86.4924 25.304 86.3197 24.8047 85.9744 24.45C85.629 24.0953 85.1204 23.918 84.4484 23.918C84.0004 23.918 83.6457 24.002 83.3844 24.17C83.1324 24.3287 82.9037 24.52 82.6984 24.744L81.7044 24.604L82.0544 19.228H87.2904V20.264Z" fill="#707070"/>
</svg>
