<svg width="418" height="292" viewBox="0 0 418 292" fill="none" xmlns="http://www.w3.org/2000/svg">
<rect width="418" height="292" fill="white"/>
<path d="M17.968 24.248H24.064C25.152 24.248 26.136 24.424 27.016 24.776C27.912 25.128 28.672 25.656 29.296 26.36C29.936 27.048 30.424 27.92 30.76 28.976C31.112 30.016 31.288 31.232 31.288 32.624C31.288 34.016 31.112 35.24 30.76 36.296C30.424 37.336 29.936 38.208 29.296 38.912C28.672 39.6 27.912 40.12 27.016 40.472C26.136 40.824 25.152 41 24.064 41H17.968V24.248ZM24.064 38.192C25.248 38.192 26.184 37.848 26.872 37.16C27.576 36.456 27.928 35.384 27.928 33.944V31.304C27.928 29.864 27.576 28.8 26.872 28.112C26.184 27.408 25.248 27.056 24.064 27.056H21.136V38.192H24.064ZM35.8589 26.648C35.2189 26.648 34.7549 26.504 34.4669 26.216C34.1949 25.928 34.0589 25.56 34.0589 25.112V24.632C34.0589 24.184 34.1949 23.816 34.4669 23.528C34.7549 23.24 35.2189 23.096 35.8589 23.096C36.4829 23.096 36.9389 23.24 37.2269 23.528C37.5149 23.816 37.6589 24.184 37.6589 24.632V25.112C37.6589 25.56 37.5149 25.928 37.2269 26.216C36.9389 26.504 36.4829 26.648 35.8589 26.648ZM34.3229 28.472H37.3949V41H34.3229V28.472ZM52.2597 42.056C52.2597 42.712 52.1397 43.288 51.8997 43.784C51.6757 44.296 51.2997 44.72 50.7717 45.056C50.2437 45.392 49.5637 45.648 48.7317 45.824C47.8997 46 46.8837 46.088 45.6837 46.088C44.6277 46.088 43.7317 46.016 42.9957 45.872C42.2597 45.744 41.6517 45.552 41.1717 45.296C40.7077 45.056 40.3717 44.752 40.1637 44.384C39.9557 44.016 39.8517 43.6 39.8517 43.136C39.8517 42.432 40.0437 41.88 40.4277 41.48C40.8277 41.096 41.3797 40.848 42.0837 40.736V40.472C41.5717 40.344 41.1717 40.096 40.8837 39.728C40.6117 39.344 40.4757 38.896 40.4757 38.384C40.4757 38.064 40.5397 37.784 40.6677 37.544C40.7957 37.288 40.9637 37.072 41.1717 36.896C41.3957 36.72 41.6437 36.576 41.9157 36.464C42.1877 36.336 42.4757 36.24 42.7797 36.176V36.08C42.0117 35.728 41.4357 35.24 41.0517 34.616C40.6837 33.992 40.4997 33.264 40.4997 32.432C40.4997 31.152 40.9397 30.128 41.8197 29.36C42.6997 28.576 43.9877 28.184 45.6837 28.184C46.0677 28.184 46.4437 28.208 46.8117 28.256C47.1957 28.304 47.5477 28.384 47.8677 28.496V28.088C47.8677 26.872 48.4597 26.264 49.6437 26.264H51.5877V28.616H48.9237V28.952C49.5797 29.32 50.0677 29.8 50.3877 30.392C50.7077 30.984 50.8677 31.664 50.8677 32.432C50.8677 33.696 50.4277 34.712 49.5477 35.48C48.6837 36.248 47.3957 36.632 45.6837 36.632C44.9477 36.632 44.3077 36.56 43.7637 36.416C43.5237 36.528 43.3157 36.68 43.1397 36.872C42.9637 37.048 42.8757 37.272 42.8757 37.544C42.8757 38.168 43.4197 38.48 44.5077 38.48H47.8677C49.4037 38.48 50.5157 38.8 51.2037 39.44C51.9077 40.064 52.2597 40.936 52.2597 42.056ZM49.3797 42.416C49.3797 42.016 49.2197 41.704 48.8997 41.48C48.5797 41.256 48.0277 41.144 47.2437 41.144H42.9717C42.5397 41.464 42.3237 41.896 42.3237 42.44C42.3237 42.92 42.5237 43.296 42.9237 43.568C43.3237 43.84 44.0037 43.976 44.9637 43.976H46.4997C47.5077 43.976 48.2357 43.848 48.6837 43.592C49.1477 43.336 49.3797 42.944 49.3797 42.416ZM45.6837 34.544C47.1877 34.544 47.9397 33.904 47.9397 32.624V32.216C47.9397 30.936 47.1877 30.296 45.6837 30.296C44.1797 30.296 43.4277 30.936 43.4277 32.216V32.624C43.4277 33.904 44.1797 34.544 45.6837 34.544ZM55.5698 26.648C54.9298 26.648 54.4658 26.504 54.1778 26.216C53.9058 25.928 53.7698 25.56 53.7698 25.112V24.632C53.7698 24.184 53.9058 23.816 54.1778 23.528C54.4658 23.24 54.9298 23.096 55.5698 23.096C56.1938 23.096 56.6498 23.24 56.9378 23.528C57.2258 23.816 57.3698 24.184 57.3698 24.632V25.112C57.3698 25.56 57.2258 25.928 56.9378 26.216C56.6498 26.504 56.1938 26.648 55.5698 26.648ZM54.0338 28.472H57.1058V41H54.0338V28.472ZM64.5786 41C63.5226 41 62.7146 40.728 62.1546 40.184C61.6106 39.624 61.3386 38.832 61.3386 37.808V30.92H59.4906V28.472H60.4506C60.9146 28.472 61.2266 28.368 61.3866 28.16C61.5626 27.936 61.6506 27.608 61.6506 27.176V25.04H64.4106V28.472H66.9786V30.92H64.4106V38.552H66.7866V41H64.5786ZM78.8592 41C78.1872 41 77.6512 40.808 77.2512 40.424C76.8672 40.024 76.6272 39.496 76.5312 38.84H76.3872C76.1792 39.656 75.7552 40.272 75.1152 40.688C74.4752 41.088 73.6832 41.288 72.7392 41.288C71.4592 41.288 70.4752 40.952 69.7872 40.28C69.0992 39.608 68.7552 38.712 68.7552 37.592C68.7552 36.296 69.2192 35.336 70.1472 34.712C71.0752 34.072 72.3952 33.752 74.1072 33.752H76.2432V32.84C76.2432 32.136 76.0592 31.592 75.6912 31.208C75.3232 30.824 74.7312 30.632 73.9152 30.632C73.1952 30.632 72.6112 30.792 72.1632 31.112C71.7312 31.416 71.3632 31.784 71.0592 32.216L69.2352 30.584C69.6992 29.864 70.3152 29.288 71.0832 28.856C71.8512 28.408 72.8672 28.184 74.1312 28.184C75.8272 28.184 77.1152 28.568 77.9952 29.336C78.8752 30.104 79.3152 31.208 79.3152 32.648V38.552H80.5632V41H78.8592ZM73.7712 39.056C74.4592 39.056 75.0432 38.904 75.5232 38.6C76.0032 38.296 76.2432 37.848 76.2432 37.256V35.6H74.2752C72.6752 35.6 71.8752 36.112 71.8752 37.136V37.544C71.8752 38.056 72.0352 38.44 72.3552 38.696C72.6912 38.936 73.1632 39.056 73.7712 39.056ZM86.1214 41C85.0654 41 84.2894 40.736 83.7934 40.208C83.2974 39.68 83.0494 38.936 83.0494 37.976V23.24H86.1214V38.552H87.7774V41H86.1214ZM95.776 28.472H98.848V30.536H98.944C99.168 29.816 99.592 29.248 100.216 28.832C100.84 28.4 101.568 28.184 102.4 28.184C104 28.184 105.216 28.752 106.048 29.888C106.896 31.008 107.32 32.616 107.32 34.712C107.32 36.824 106.896 38.448 106.048 39.584C105.216 40.72 104 41.288 102.4 41.288C101.568 41.288 100.84 41.072 100.216 40.64C99.608 40.208 99.184 39.632 98.944 38.912H98.848V45.8H95.776V28.472ZM101.416 38.744C102.216 38.744 102.864 38.48 103.36 37.952C103.856 37.424 104.104 36.712 104.104 35.816V33.656C104.104 32.76 103.856 32.048 103.36 31.52C102.864 30.976 102.216 30.704 101.416 30.704C100.68 30.704 100.064 30.888 99.568 31.256C99.088 31.624 98.848 32.112 98.848 32.72V36.704C98.848 37.36 99.088 37.864 99.568 38.216C100.064 38.568 100.68 38.744 101.416 38.744ZM113.239 41C112.183 41 111.407 40.736 110.911 40.208C110.415 39.68 110.167 38.936 110.167 37.976V23.24H113.239V38.552H114.895V41H113.239ZM126.437 41C125.765 41 125.229 40.808 124.829 40.424C124.445 40.024 124.205 39.496 124.109 38.84H123.965C123.757 39.656 123.333 40.272 122.693 40.688C122.053 41.088 121.261 41.288 120.317 41.288C119.037 41.288 118.053 40.952 117.365 40.28C116.677 39.608 116.333 38.712 116.333 37.592C116.333 36.296 116.797 35.336 117.725 34.712C118.653 34.072 119.973 33.752 121.685 33.752H123.821V32.84C123.821 32.136 123.637 31.592 123.269 31.208C122.901 30.824 122.309 30.632 121.493 30.632C120.773 30.632 120.189 30.792 119.741 31.112C119.309 31.416 118.941 31.784 118.637 32.216L116.813 30.584C117.277 29.864 117.893 29.288 118.661 28.856C119.429 28.408 120.445 28.184 121.709 28.184C123.405 28.184 124.693 28.568 125.573 29.336C126.453 30.104 126.893 31.208 126.893 32.648V38.552H128.141V41H126.437ZM121.349 39.056C122.037 39.056 122.621 38.904 123.101 38.6C123.581 38.296 123.821 37.848 123.821 37.256V35.6H121.853C120.253 35.6 119.453 36.112 119.453 37.136V37.544C119.453 38.056 119.613 38.44 119.933 38.696C120.269 38.936 120.741 39.056 121.349 39.056ZM138.404 38.912H138.284C138.06 39.632 137.636 40.208 137.012 40.64C136.388 41.072 135.66 41.288 134.828 41.288C133.244 41.288 132.028 40.72 131.18 39.584C130.348 38.448 129.932 36.824 129.932 34.712C129.932 32.616 130.348 31.008 131.18 29.888C132.028 28.752 133.244 28.184 134.828 28.184C135.66 28.184 136.388 28.4 137.012 28.832C137.636 29.248 138.06 29.816 138.284 30.536H138.404V23.24H141.476V41H138.404V38.912ZM135.812 38.744C136.548 38.744 137.164 38.568 137.66 38.216C138.156 37.864 138.404 37.36 138.404 36.704V32.72C138.404 32.112 138.156 31.624 137.66 31.256C137.164 30.888 136.548 30.704 135.812 30.704C135.012 30.704 134.364 30.976 133.868 31.52C133.388 32.048 133.148 32.76 133.148 33.656V35.816C133.148 36.712 133.388 37.424 133.868 37.952C134.364 38.48 135.012 38.744 135.812 38.744ZM149.122 41.288C147.922 41.288 146.914 41.088 146.098 40.688C145.282 40.272 144.562 39.704 143.938 38.984L145.81 37.16C146.274 37.688 146.778 38.104 147.322 38.408C147.882 38.712 148.522 38.864 149.242 38.864C149.978 38.864 150.506 38.736 150.826 38.48C151.162 38.224 151.33 37.872 151.33 37.424C151.33 37.056 151.21 36.768 150.97 36.56C150.746 36.336 150.354 36.184 149.794 36.104L148.546 35.936C147.186 35.76 146.146 35.376 145.426 34.784C144.722 34.176 144.37 33.296 144.37 32.144C144.37 31.536 144.482 30.992 144.706 30.512C144.93 30.016 145.25 29.6 145.666 29.264C146.082 28.912 146.578 28.648 147.154 28.472C147.746 28.28 148.402 28.184 149.122 28.184C149.73 28.184 150.266 28.232 150.73 28.328C151.21 28.408 151.642 28.536 152.026 28.712C152.41 28.872 152.762 29.08 153.082 29.336C153.402 29.576 153.714 29.848 154.018 30.152L152.218 31.952C151.85 31.568 151.41 31.248 150.898 30.992C150.386 30.736 149.826 30.608 149.218 30.608C148.546 30.608 148.058 30.728 147.754 30.968C147.466 31.208 147.322 31.52 147.322 31.904C147.322 32.32 147.442 32.64 147.682 32.864C147.938 33.072 148.362 33.224 148.954 33.32L150.226 33.488C152.93 33.872 154.282 35.104 154.282 37.184C154.282 37.792 154.154 38.352 153.898 38.864C153.658 39.36 153.314 39.792 152.866 40.16C152.418 40.512 151.874 40.792 151.234 41C150.61 41.192 149.906 41.288 149.122 41.288ZM166.211 41C165.539 41 165.003 40.808 164.603 40.424C164.219 40.024 163.979 39.496 163.883 38.84H163.739C163.531 39.656 163.107 40.272 162.467 40.688C161.827 41.088 161.035 41.288 160.091 41.288C158.811 41.288 157.827 40.952 157.139 40.28C156.451 39.608 156.107 38.712 156.107 37.592C156.107 36.296 156.571 35.336 157.499 34.712C158.427 34.072 159.747 33.752 161.459 33.752H163.595V32.84C163.595 32.136 163.411 31.592 163.043 31.208C162.675 30.824 162.083 30.632 161.267 30.632C160.547 30.632 159.963 30.792 159.515 31.112C159.083 31.416 158.715 31.784 158.411 32.216L156.587 30.584C157.051 29.864 157.667 29.288 158.435 28.856C159.203 28.408 160.219 28.184 161.483 28.184C163.179 28.184 164.467 28.568 165.347 29.336C166.227 30.104 166.667 31.208 166.667 32.648V38.552H167.915V41H166.211ZM161.123 39.056C161.811 39.056 162.395 38.904 162.875 38.6C163.355 38.296 163.595 37.848 163.595 37.256V35.6H161.627C160.027 35.6 159.227 36.112 159.227 37.136V37.544C159.227 38.056 159.387 38.44 159.707 38.696C160.043 38.936 160.515 39.056 161.123 39.056ZM170.401 41V28.472H173.473V30.56H173.593C173.849 29.888 174.249 29.328 174.793 28.88C175.353 28.416 176.121 28.184 177.097 28.184C178.393 28.184 179.385 28.608 180.073 29.456C180.761 30.304 181.105 31.512 181.105 33.08V41H178.033V33.392C178.033 32.496 177.873 31.824 177.553 31.376C177.233 30.928 176.705 30.704 175.969 30.704C175.649 30.704 175.337 30.752 175.033 30.848C174.745 30.928 174.481 31.056 174.241 31.232C174.017 31.392 173.833 31.6 173.689 31.856C173.545 32.096 173.473 32.384 173.473 32.72V41H170.401ZM187.011 41L182.835 28.472H185.859L187.611 33.872L188.835 38.336H189.003L190.227 33.872L191.931 28.472H194.859L190.659 41H187.011ZM198.445 26.648C197.805 26.648 197.341 26.504 197.053 26.216C196.781 25.928 196.645 25.56 196.645 25.112V24.632C196.645 24.184 196.781 23.816 197.053 23.528C197.341 23.24 197.805 23.096 198.445 23.096C199.069 23.096 199.525 23.24 199.813 23.528C200.101 23.816 200.245 24.184 200.245 24.632V25.112C200.245 25.56 200.101 25.928 199.813 26.216C199.525 26.504 199.069 26.648 198.445 26.648ZM196.909 28.472H199.981V41H196.909V28.472ZM207.646 41.288C206.446 41.288 205.438 41.088 204.622 40.688C203.806 40.272 203.086 39.704 202.462 38.984L204.334 37.16C204.798 37.688 205.302 38.104 205.846 38.408C206.406 38.712 207.046 38.864 207.766 38.864C208.502 38.864 209.03 38.736 209.35 38.48C209.686 38.224 209.854 37.872 209.854 37.424C209.854 37.056 209.734 36.768 209.494 36.56C209.27 36.336 208.878 36.184 208.318 36.104L207.07 35.936C205.71 35.76 204.67 35.376 203.95 34.784C203.246 34.176 202.894 33.296 202.894 32.144C202.894 31.536 203.006 30.992 203.23 30.512C203.454 30.016 203.774 29.6 204.19 29.264C204.606 28.912 205.102 28.648 205.678 28.472C206.27 28.28 206.926 28.184 207.646 28.184C208.254 28.184 208.79 28.232 209.254 28.328C209.734 28.408 210.166 28.536 210.55 28.712C210.934 28.872 211.286 29.08 211.606 29.336C211.926 29.576 212.238 29.848 212.542 30.152L210.742 31.952C210.374 31.568 209.934 31.248 209.422 30.992C208.91 30.736 208.35 30.608 207.742 30.608C207.07 30.608 206.582 30.728 206.278 30.968C205.99 31.208 205.846 31.52 205.846 31.904C205.846 32.32 205.966 32.64 206.206 32.864C206.462 33.072 206.886 33.224 207.478 33.32L208.75 33.488C211.454 33.872 212.806 35.104 212.806 37.184C212.806 37.792 212.678 38.352 212.422 38.864C212.182 39.36 211.838 39.792 211.39 40.16C210.942 40.512 210.398 40.792 209.758 41C209.134 41.192 208.43 41.288 207.646 41.288ZM215.518 41V28.472H218.59V30.56H218.71C218.966 29.888 219.366 29.328 219.91 28.88C220.47 28.416 221.238 28.184 222.214 28.184C223.51 28.184 224.502 28.608 225.19 29.456C225.878 30.304 226.222 31.512 226.222 33.08V41H223.15V33.392C223.15 32.496 222.99 31.824 222.67 31.376C222.35 30.928 221.822 30.704 221.086 30.704C220.766 30.704 220.454 30.752 220.15 30.848C219.862 30.928 219.598 31.056 219.358 31.232C219.134 31.392 218.95 31.6 218.806 31.856C218.662 32.096 218.59 32.384 218.59 32.72V41H215.518ZM231.164 26.648C230.524 26.648 230.06 26.504 229.772 26.216C229.5 25.928 229.364 25.56 229.364 25.112V24.632C229.364 24.184 229.5 23.816 229.772 23.528C230.06 23.24 230.524 23.096 231.164 23.096C231.788 23.096 232.244 23.24 232.532 23.528C232.82 23.816 232.964 24.184 232.964 24.632V25.112C232.964 25.56 232.82 25.928 232.532 26.216C232.244 26.504 231.788 26.648 231.164 26.648ZM229.628 28.472H232.7V41H229.628V28.472ZM236.26 41V28.472H239.332V30.56H239.452C239.708 29.888 240.108 29.328 240.652 28.88C241.212 28.416 241.98 28.184 242.956 28.184C244.252 28.184 245.244 28.608 245.932 29.456C246.62 30.304 246.964 31.512 246.964 33.08V41H243.892V33.392C243.892 32.496 243.732 31.824 243.412 31.376C243.092 30.928 242.564 30.704 241.828 30.704C241.508 30.704 241.196 30.752 240.892 30.848C240.604 30.928 240.34 31.056 240.1 31.232C239.876 31.392 239.692 31.6 239.548 31.856C239.404 32.096 239.332 32.384 239.332 32.72V41H236.26ZM261.674 42.056C261.674 42.712 261.554 43.288 261.314 43.784C261.09 44.296 260.714 44.72 260.186 45.056C259.658 45.392 258.978 45.648 258.146 45.824C257.314 46 256.298 46.088 255.098 46.088C254.042 46.088 253.146 46.016 252.41 45.872C251.674 45.744 251.066 45.552 250.586 45.296C250.122 45.056 249.786 44.752 249.578 44.384C249.37 44.016 249.266 43.6 249.266 43.136C249.266 42.432 249.458 41.88 249.842 41.48C250.242 41.096 250.794 40.848 251.498 40.736V40.472C250.986 40.344 250.586 40.096 250.298 39.728C250.026 39.344 249.89 38.896 249.89 38.384C249.89 38.064 249.954 37.784 250.082 37.544C250.21 37.288 250.378 37.072 250.586 36.896C250.81 36.72 251.058 36.576 251.33 36.464C251.602 36.336 251.89 36.24 252.194 36.176V36.08C251.426 35.728 250.85 35.24 250.466 34.616C250.098 33.992 249.914 33.264 249.914 32.432C249.914 31.152 250.354 30.128 251.234 29.36C252.114 28.576 253.402 28.184 255.098 28.184C255.482 28.184 255.858 28.208 256.226 28.256C256.61 28.304 256.962 28.384 257.282 28.496V28.088C257.282 26.872 257.874 26.264 259.058 26.264H261.002V28.616H258.338V28.952C258.994 29.32 259.482 29.8 259.802 30.392C260.122 30.984 260.282 31.664 260.282 32.432C260.282 33.696 259.842 34.712 258.962 35.48C258.098 36.248 256.81 36.632 255.098 36.632C254.362 36.632 253.722 36.56 253.178 36.416C252.938 36.528 252.73 36.68 252.554 36.872C252.378 37.048 252.29 37.272 252.29 37.544C252.29 38.168 252.834 38.48 253.922 38.48H257.282C258.818 38.48 259.93 38.8 260.618 39.44C261.322 40.064 261.674 40.936 261.674 42.056ZM258.794 42.416C258.794 42.016 258.634 41.704 258.314 41.48C257.994 41.256 257.442 41.144 256.658 41.144H252.386C251.954 41.464 251.738 41.896 251.738 42.44C251.738 42.92 251.938 43.296 252.338 43.568C252.738 43.84 253.418 43.976 254.378 43.976H255.914C256.922 43.976 257.65 43.848 258.098 43.592C258.562 43.336 258.794 42.944 258.794 42.416ZM255.098 34.544C256.602 34.544 257.354 33.904 257.354 32.624V32.216C257.354 30.936 256.602 30.296 255.098 30.296C253.594 30.296 252.842 30.936 252.842 32.216V32.624C252.842 33.904 253.594 34.544 255.098 34.544Z" fill="#1A1A1A"/>
<path d="M16 244C16 239.582 19.5817 236 24 236H89C93.4183 236 97 239.582 97 244V268C97 272.418 93.4183 276 89 276H24C19.5817 276 16 272.418 16 268V244Z" fill="#0059B3"/>
<path d="M36.512 256.272L35.36 253.952H35.312V262H33.312V250.832H35.632L38.992 256.56L40.144 258.88H40.192V250.832H42.192V262H39.872L36.512 256.272ZM47.772 258.336C47.26 258.347 46.8653 258.443 46.588 258.624C46.3107 258.795 46.172 259.051 46.172 259.392V259.648C46.172 259.989 46.2787 260.251 46.492 260.432C46.7053 260.613 47.0253 260.704 47.452 260.704C47.9 260.704 48.284 260.603 48.604 260.4C48.924 260.197 49.084 259.899 49.084 259.504V258.336H47.772ZM54.572 257.072V256.928C54.572 256.352 54.428 255.888 54.14 255.536C53.8627 255.173 53.4573 254.992 52.924 254.992C52.38 254.992 51.948 255.173 51.628 255.536C51.308 255.899 51.148 256.368 51.148 256.944V257.072H54.572ZM53.212 260.528C53.7133 260.528 54.1347 260.421 54.476 260.208C54.8173 259.995 55.1053 259.733 55.34 259.424L56.444 260.656C56.1027 261.136 55.6387 261.515 55.052 261.792C54.4653 262.059 53.7933 262.192 53.036 262.192C52.6307 262.192 52.252 262.144 51.9 262.048C51.548 261.952 51.2333 261.824 50.956 261.664C50.6893 261.504 50.46 261.323 50.268 261.12C50.076 260.917 49.932 260.704 49.836 260.48H49.74C49.6653 260.693 49.548 260.901 49.388 261.104C49.2387 261.307 49.0413 261.488 48.796 261.648C48.5507 261.808 48.2573 261.936 47.916 262.032C47.5853 262.139 47.196 262.192 46.748 262.192C45.9053 262.192 45.2493 261.963 44.78 261.504C44.3213 261.045 44.092 260.448 44.092 259.712C44.092 259.275 44.1773 258.891 44.348 258.56C44.5187 258.229 44.7587 257.957 45.068 257.744C45.3773 257.52 45.7507 257.355 46.188 257.248C46.6253 257.131 47.116 257.072 47.66 257.072H49.084V256.56C49.084 256.091 48.9613 255.728 48.716 255.472C48.4707 255.216 48.0813 255.088 47.548 255.088C47.0573 255.088 46.6627 255.189 46.364 255.392C46.076 255.595 45.8307 255.845 45.628 256.144L44.412 255.056C44.7213 254.576 45.132 254.192 45.644 253.904C46.156 253.605 46.8333 253.456 47.676 253.456C48.316 253.456 48.828 253.589 49.212 253.856C49.596 254.112 49.8947 254.437 50.108 254.832H50.204C50.4173 254.437 50.764 254.112 51.244 253.856C51.724 253.589 52.3 253.456 52.972 253.456C53.6227 253.456 54.1827 253.568 54.652 253.792C55.1213 254.016 55.5053 254.32 55.804 254.704C56.1133 255.088 56.3373 255.536 56.476 256.048C56.6253 256.549 56.7 257.088 56.7 257.664V258.336H51.132V258.544C51.132 259.141 51.3133 259.621 51.676 259.984C52.0387 260.347 52.5507 260.528 53.212 260.528ZM61.2481 262.192C60.4481 262.192 59.7761 262.059 59.2321 261.792C58.6881 261.515 58.2081 261.136 57.7921 260.656L59.0401 259.44C59.3495 259.792 59.6855 260.069 60.0481 260.272C60.4215 260.475 60.8481 260.576 61.3281 260.576C61.8188 260.576 62.1708 260.491 62.3841 260.32C62.6081 260.149 62.7201 259.915 62.7201 259.616C62.7201 259.371 62.6401 259.179 62.4801 259.04C62.3308 258.891 62.0695 258.789 61.6961 258.736L60.8641 258.624C59.9575 258.507 59.2641 258.251 58.7841 257.856C58.3148 257.451 58.0801 256.864 58.0801 256.096C58.0801 255.691 58.1548 255.328 58.3041 255.008C58.4535 254.677 58.6668 254.4 58.9441 254.176C59.2215 253.941 59.5521 253.765 59.9361 253.648C60.3308 253.52 60.7681 253.456 61.2481 253.456C61.6535 253.456 62.0108 253.488 62.3201 253.552C62.6401 253.605 62.9281 253.691 63.1841 253.808C63.4401 253.915 63.6748 254.053 63.8881 254.224C64.1015 254.384 64.3095 254.565 64.5121 254.768L63.3121 255.968C63.0668 255.712 62.7735 255.499 62.4321 255.328C62.0908 255.157 61.7175 255.072 61.3121 255.072C60.8641 255.072 60.5388 255.152 60.3361 255.312C60.1441 255.472 60.0481 255.68 60.0481 255.936C60.0481 256.213 60.1281 256.427 60.2881 256.576C60.4588 256.715 60.7415 256.816 61.1361 256.88L61.9841 256.992C63.7868 257.248 64.6881 258.069 64.6881 259.456C64.6881 259.861 64.6028 260.235 64.4321 260.576C64.2721 260.907 64.0428 261.195 63.7441 261.44C63.4455 261.675 63.0828 261.861 62.6561 262C62.2401 262.128 61.7708 262.192 61.2481 262.192ZM68.9795 262C68.2755 262 67.7368 261.819 67.3635 261.456C67.0008 261.083 66.8195 260.555 66.8195 259.872V255.28H65.5875V253.648H66.2275C66.5368 253.648 66.7448 253.579 66.8515 253.44C66.9688 253.291 67.0275 253.072 67.0275 252.784V251.36H68.8675V253.648H70.5795V255.28H68.8675V260.368H70.4515V262H68.9795ZM75.6694 262.192C75.0507 262.192 74.496 262.091 74.0054 261.888C73.5254 261.675 73.1147 261.381 72.7734 261.008C72.4427 260.624 72.1867 260.165 72.0054 259.632C71.824 259.088 71.7334 258.48 71.7334 257.808C71.7334 257.147 71.8187 256.549 71.9894 256.016C72.1707 255.483 72.4267 255.029 72.7574 254.656C73.088 254.272 73.4934 253.979 73.9734 253.776C74.4534 253.563 74.9974 253.456 75.6054 253.456C76.256 253.456 76.8214 253.568 77.3014 253.792C77.7814 254.016 78.176 254.32 78.4854 254.704C78.7947 255.088 79.024 255.536 79.1734 256.048C79.3334 256.549 79.4134 257.088 79.4134 257.664V258.336H73.8614V258.544C73.8614 259.152 74.032 259.643 74.3734 260.016C74.7147 260.379 75.2214 260.56 75.8934 260.56C76.4054 260.56 76.8214 260.453 77.1414 260.24C77.472 260.027 77.7654 259.755 78.0214 259.424L79.1254 260.656C78.784 261.136 78.3147 261.515 77.7174 261.792C77.1307 262.059 76.448 262.192 75.6694 262.192ZM75.6374 254.992C75.0934 254.992 74.6614 255.173 74.3414 255.536C74.0214 255.899 73.8614 256.368 73.8614 256.944V257.072H77.2854V256.928C77.2854 256.352 77.1414 255.888 76.8534 255.536C76.576 255.173 76.1707 254.992 75.6374 254.992Z" fill="white"/>
<path d="M16 92C16 89.7909 17.7909 88 20 88H217C219.209 88 221 89.7909 221 92V104C221 106.209 219.209 108 217 108H20C17.7909 108 16 106.209 16 104V92Z" fill="#DCDCDC"/>
<path d="M16 144C16 141.791 17.7909 140 20 140H217C219.209 140 221 141.791 221 144V156C221 158.209 219.209 160 217 160H20C17.7909 160 16 158.209 16 156V144Z" fill="#DCDCDC"/>
<path d="M16 196C16 193.791 17.7909 192 20 192H217C219.209 192 221 193.791 221 196V208C221 210.209 219.209 212 217 212H20C17.7909 212 16 210.209 16 208V196Z" fill="#DCDCDC"/>
<path d="M16 76C16 73.7909 17.7909 72 20 72H130C132.209 72 134 73.7909 134 76V80C134 82.2091 132.209 84 130 84H20C17.7909 84 16 82.2091 16 80V76Z" fill="#DCDCDC"/>
<path d="M16 128C16 125.791 17.7909 124 20 124H130C132.209 124 134 125.791 134 128V132C134 134.209 132.209 136 130 136H20C17.7909 136 16 134.209 16 132V128Z" fill="#DCDCDC"/>
<path d="M16 180C16 177.791 17.7909 176 20 176H130C132.209 176 134 177.791 134 180V184C134 186.209 132.209 188 130 188H20C17.7909 188 16 186.209 16 184V180Z" fill="#DCDCDC"/>
</svg>
