<?xml version="1.0" encoding="UTF-8"?>
<svg width="268px" height="172px" viewBox="0 0 268 172" version="1.1" xmlns="http://www.w3.org/2000/svg" xmlns:xlink="http://www.w3.org/1999/xlink">
    <!-- Generator: Sketch 53.2 (72643) - https://sketchapp.com -->
    <title>Eksempler_Front</title>
    <desc>Created with Sketch.</desc>
    <g id="Illustrationer" stroke="none" stroke-width="1" fill="none" fill-rule="evenodd">
        <g id="Illustrationer_Front" transform="translate(-934.000000, -162.000000)">
            <g id="Eksempler" transform="translate(934.000000, 162.000000)">
                <g id="Group-2">
                    <g id="Group-10-Copy-6" transform="translate(144.000000, 0.000000)">
                        <rect id="Rectangle-Copy-54" fill="#F9F9F9" x="0" y="0" width="124" height="76"></rect>
                        <rect id="Rectangle-Copy-58" fill="#1A1A1A" x="0" y="0" width="124" height="10"></rect>
                        <rect id="Rectangle-Copy-88" fill="#B7EAEB" x="12" y="54" width="28" height="10"></rect>
                        <rect id="Rectangle-Copy-89" fill="#B7EAEB" x="48" y="54" width="28" height="10"></rect>
                        <rect id="Rectangle-Copy-90" fill="#B7EAEB" x="84" y="54" width="28" height="10"></rect>
                        <rect id="Rectangle-Copy-92" fill="#56D4D6" x="12" y="21" width="46" height="24"></rect>
                        <rect id="Rectangle-Copy-100" fill="#56D4D6" x="66" y="21" width="46" height="24"></rect>
                    </g>
                    <g id="Group-10-Copy-7" transform="translate(0.000000, 96.000000)">
                        <rect id="Rectangle-Copy-53" fill="#F9F9F9" x="0" y="0" width="124" height="76"></rect>
                        <rect id="Rectangle-Copy-57" fill="#1A1A1A" x="0" y="0" width="124" height="10"></rect>
                        <rect id="Rectangle-Copy-77" fill="#56D4D6" x="12" y="22" width="46" height="42"></rect>
                        <rect id="Rectangle-Copy-91" fill="#B7EAEB" x="66" y="22" width="46" height="10"></rect>
                        <rect id="Rectangle-Copy-99" fill="#B7EAEB" x="66" y="38" width="46" height="10"></rect>
                        <rect id="Rectangle-Copy-101" fill="#B7EAEB" x="66" y="54" width="46" height="10"></rect>
                    </g>
                    <g id="Group-10-Copy-8" transform="translate(144.000000, 96.000000)">
                        <rect id="Rectangle-Copy-53" fill="#F9F9F9" x="0" y="0" width="124" height="76"></rect>
                        <rect id="Rectangle-Copy-57" fill="#1A1A1A" x="0" y="0" width="124" height="10"></rect>
                        <rect id="Rectangle-Copy-77" fill="#56D4D6" x="12" y="22" width="46" height="26"></rect>
                        <rect id="Rectangle-Copy-91" fill="#B7EAEB" x="66" y="22" width="46" height="10"></rect>
                        <rect id="Rectangle-Copy-99" fill="#B7EAEB" x="66" y="38" width="46" height="10"></rect>
                        <rect id="Rectangle-Copy-101" fill="#B7EAEB" x="12" y="54" width="100" height="10"></rect>
                    </g>
                    <g id="Group">
                        <rect id="Rectangle-Copy-53" fill="#F9F9F9" x="0" y="0" width="124" height="76"></rect>
                        <rect id="Rectangle-Copy-57" fill="#1A1A1A" x="0" y="0" width="124" height="10"></rect>
                        <rect id="Rectangle-Copy-77" fill="#56D4D6" x="12" y="22" width="100" height="24"></rect>
                        <rect id="Rectangle-Copy-91" fill="#B7EAEB" x="12" y="54" width="46" height="10"></rect>
                        <rect id="Rectangle-Copy-99" fill="#B7EAEB" x="66" y="54" width="46" height="10"></rect>
                    </g>
                </g>
            </g>
        </g>
    </g>
</svg>