<svg xmlns="http://www.w3.org/2000/svg" xmlns:xlink="http://www.w3.org/1999/xlink" viewBox="0 0 543 1050"><defs><style>.cls-1,.cls-11,.cls-13,.cls-21,.cls-22,.cls-4{fill:none;}.cls-2{fill:#f5f5f5;}.cls-3{fill:#fff;}.cls-11,.cls-13,.cls-21,.cls-22,.cls-4{stroke:#131313;}.cls-11,.cls-4{stroke-linejoin:round;}.cls-11,.cls-21,.cls-22,.cls-4{stroke-width:4px;}.cls-5{clip-path:url(#clip-path);}.cls-6,.cls-7{fill:#131313;}.cls-7{font-size:20.68px;font-family:IBMPlexSans, IBM Plex Sans;}.cls-8{letter-spacing:0em;}.cls-9{letter-spacing:0em;}.cls-10{letter-spacing:0em;}.cls-11,.cls-13,.cls-22{stroke-linecap:round;}.cls-12{letter-spacing:-0.01em;}.cls-13,.cls-21,.cls-22{stroke-miterlimit:10;}.cls-13{stroke-width:3px;}.cls-14{letter-spacing:-0.02em;}.cls-15{letter-spacing:0.01em;}.cls-16{letter-spacing:-0.01em;}.cls-17{letter-spacing:-0.01em;}.cls-18{letter-spacing:-0.01em;}.cls-19{letter-spacing:0em;}.cls-20{font-size:31.02px;font-family:IBMPlexSans-Bold, IBM Plex Sans;font-weight:700;}.cls-23{letter-spacing:-0.06em;}.cls-24{clip-path:url(#clip-path-2);}.cls-25{fill:#bfbfbf;}</style><clipPath id="clip-path"><rect class="cls-1" x="89.51" y="60.31" width="84.16" height="107.15"/></clipPath><clipPath id="clip-path-2"><rect class="cls-1" x="148.65" y="669.81" width="25.52" height="38.7" transform="translate(322.81 1378.33) rotate(180)"/></clipPath></defs><title>Governancemodel-Ekstralille-543px_Ekstra lille 543</title><g id="Layer_2" data-name="Layer 2"><rect class="cls-2" y="526.24" width="543" height="525"/><rect class="cls-3" y="0.24" width="543" height="525"/></g><g id="Layer_1" data-name="Layer 1"><rect class="cls-4" x="89.51" y="60.31" width="84.16" height="107.15"/><g class="cls-5"><circle class="cls-6" cx="115.48" cy="123.37" r="32.74"/><path class="cls-3" d="M138.52,123.37a23,23,0,1,1-23-23A23,23,0,0,1,138.52,123.37Zm-23-13.77a13.77,13.77,0,1,0,13.76,13.77A13.77,13.77,0,0,0,115.48,109.6Z"/><circle class="cls-3" cx="115.48" cy="123.37" r="4.43"/><polygon class="cls-3" points="115.17 120.06 124.95 110.42 128.61 114.09 118.46 124.16 115.17 120.06"/><polygon class="cls-3" points="129.25 106.33 139.01 96.68 142.68 100.36 132.53 110.42 129.25 106.33"/><polygon class="cls-6" points="145.3 93.5 145.3 86.78 153.7 77.38 153.7 85.44 145.3 93.5"/><polygon class="cls-6" points="145.49 93.54 152.21 93.78 161.9 85.72 153.84 85.44 145.49 93.54"/><rect class="cls-6" x="133.66" y="76.86" width="1.73" height="55.59" rx="0.68" transform="translate(113.4 -64.47) rotate(45)"/></g><text class="cls-7" transform="translate(95.37 194.83)">St<tspan class="cls-8" x="19.27" y="0">r</tspan><tspan x="26.78" y="0">a</tspan><tspan class="cls-9" x="37.82" y="0">t</tspan><tspan x="44.99" y="0">egi</tspan></text><text class="cls-7" transform="translate(340.99 194.83)">Sty<tspan class="cls-10" x="29.59" y="0">r</tspan><tspan x="37.07" y="0">egruppe</tspan></text><ellipse class="cls-4" cx="398" cy="154.03" rx="59.75" ry="12.55"/><path class="cls-4" d="M381.46,122.54c3,0,4.39-2.59,5.07-3.78s1.28-3.8.7-7.69c-.71-4.75-5.77-4.52-5.77-4.52s-5-.23-5.76,4.52c-.58,3.89,0,6.5.7,7.69s2.08,3.79,5.06,3.78"/><path class="cls-11" d="M379.2,122s-.07,1.8,0,2.65-3.66,2.09-3.66,2.09a20.32,20.32,0,0,0-5.09,2.06c-2,1-1.87,8.39-1.87,8.39"/><path class="cls-11" d="M384.46,122s.07,1.8,0,2.65,3.66,2.09,3.66,2.09a20.32,20.32,0,0,1,5.09,2.06c2,1,1.87,6.55,1.87,6.55"/><path class="cls-4" d="M413.8,122.54c3,0,4.39-2.59,5.07-3.78s1.28-3.8.7-7.69c-.71-4.75-5.77-4.52-5.77-4.52s-5.05-.23-5.76,4.52c-.58,3.89,0,6.5.7,7.69s2.08,3.79,5.06,3.78"/><path class="cls-11" d="M411.54,122s-.07,1.8,0,2.65-3.66,2.09-3.66,2.09a20.32,20.32,0,0,0-5.09,2.06c-2,1-1.87,6.55-1.87,6.55"/><path class="cls-11" d="M416.8,122s.07,1.8,0,2.65,3.66,2.09,3.66,2.09a20.32,20.32,0,0,1,5.09,2.06c2,1,1.87,8.39,1.87,8.39"/><path class="cls-4" d="M446.15,122.54c3,0,4.38-2.59,5.06-3.78s1.28-3.8.7-7.69c-.7-4.75-5.76-4.52-5.76-4.52s-5.06-.23-5.77,4.52c-.57,3.89,0,6.5.7,7.69s2.08,3.79,5.07,3.78"/><path class="cls-11" d="M443.88,122s-.07,1.8,0,2.65-3.65,2.09-3.65,2.09a20.27,20.27,0,0,0-5.1,2.06c-2,1-1.87,9.16-1.87,9.16"/><path class="cls-11" d="M449.15,122s.06,1.8,0,2.65,3.65,2.09,3.65,2.09a20.44,20.44,0,0,1,5.1,2.06c2,1,1.86,18,1.86,18"/><path class="cls-4" d="M349.85,122.54c-3,0-4.38-2.59-5.06-3.78s-1.28-3.8-.7-7.69c.7-4.75,5.76-4.52,5.76-4.52s5.06-.23,5.77,4.52c.57,3.89,0,6.5-.7,7.69s-2.08,3.79-5.07,3.78"/><path class="cls-11" d="M352.12,122s.07,1.8,0,2.65,3.65,2.09,3.65,2.09a20.27,20.27,0,0,1,5.1,2.06c2,1,1.87,9.16,1.87,9.16"/><path class="cls-11" d="M346.85,122s-.06,1.8,0,2.65-3.65,2.09-3.65,2.09a20.44,20.44,0,0,0-5.1,2.06c-2,1-1.86,18.6-1.86,18.6"/><text class="cls-7" transform="translate(87.28 459.06)"><tspan class="cls-12">R</tspan><tspan x="12.92" y="0">oadmap</tspan></text><rect class="cls-4" x="89.28" y="325.29" width="84.16" height="107.15"/><path class="cls-11" d="M108.75,347.09h45a7.94,7.94,0,0,1,7.94,7.94h0a7.94,7.94,0,0,1-7.94,8H113"/><path class="cls-4" d="M150.61,378.87H109.85a8,8,0,0,1-7.95-7.95h0a8,8,0,0,1,7.95-7.94h40.76"/><path class="cls-11" d="M150.61,410.65H109.85a8,8,0,0,1-7.95-7.95h0a8,8,0,0,1,7.95-7.94h40.76"/><path class="cls-4" d="M113,378.87h40.76a7.94,7.94,0,0,1,7.94,7.94h0a7.94,7.94,0,0,1-7.94,7.95H113"/><circle class="cls-6" cx="120.53" cy="347.09" r="3.7"/><circle class="cls-6" cx="142.27" cy="362.98" r="3.7"/><circle class="cls-6" cx="120.53" cy="394.76" r="3.7"/><circle class="cls-6" cx="150.61" cy="410.65" r="3.7"/><line class="cls-13" x1="280.11" y1="136.19" x2="251.95" y2="136.19"/><polygon class="cls-6" points="254.13 128.71 241.18 136.19 254.13 143.66 254.13 128.71"/><line class="cls-13" x1="241.18" y1="645.33" x2="269.35" y2="645.33"/><polygon class="cls-6" points="267.16 652.81 280.11 645.33 267.16 637.85 267.16 652.81"/><text class="cls-7" transform="translate(48.03 958.79)"><tspan class="cls-14">F</tspan><tspan x="11.04" y="0">ej</tspan><tspan class="cls-15" x="27.56" y="0">l</tspan><tspan x="33.39" y="0">, ændrin</tspan><tspan class="cls-16" x="110" y="0">g</tspan><tspan x="120.8" y="0">er og </tspan><tspan class="cls-17" x="28.45" y="24.81">n</tspan><tspan x="40.03" y="24.81">y udvikling</tspan></text><rect class="cls-4" x="89.53" y="834.28" width="84.16" height="107.15" transform="translate(-756.25 1019.46) rotate(-90)"/><rect class="cls-6" x="117.81" y="895.12" width="37.78" height="2.8"/><circle class="cls-6" cx="110.09" cy="896.52" r="2.47"/><rect class="cls-6" x="117.81" y="904.94" width="37.78" height="2.8"/><circle class="cls-6" cx="110.09" cy="906.34" r="2.47"/><rect class="cls-6" x="117.81" y="914.76" width="37.78" height="2.8"/><circle class="cls-6" cx="110.09" cy="916.16" r="2.47"/><path class="cls-6" d="M113.2,868.7h-5.06a.24.24,0,0,0-.24.24v2.48a.23.23,0,0,0,.24.23h2v3.08a6,6,0,0,1-1.67.15c-1.45,0-3.47-.53-3.47-5s2.11-5,4.08-5a7.85,7.85,0,0,1,2.92.45.24.24,0,0,0,.29-.23l.56-2.4a.21.21,0,0,0-.09-.18c-.19-.14-1.35-.79-4.29-.79-3.38,0-6.85,1.44-6.85,8.36s4,7.95,7.32,7.95a8.25,8.25,0,0,0,4.45-1.18.21.21,0,0,0,.08-.18v-7.73A.24.24,0,0,0,113.2,868.7Z"/><path class="cls-6" d="M139.32,862.55a.23.23,0,0,0-.23-.24h-2.86a.23.23,0,0,0-.23.24v5.51h-4.45v-5.51a.24.24,0,0,0-.24-.24h-2.85a.24.24,0,0,0-.24.24v14.93a.24.24,0,0,0,.24.24h2.85a.24.24,0,0,0,.24-.24V871.1H136v6.38a.24.24,0,0,0,.24.24h2.86a.23.23,0,0,0,.23-.24Z"/><path class="cls-6" d="M118.59,864.51a1.84,1.84,0,1,0-1.84,1.86A1.85,1.85,0,0,0,118.59,864.51Z"/><path class="cls-6" d="M118.38,874.33v-6.89a.23.23,0,0,0-.23-.24H115.3a.27.27,0,0,0-.24.27v9.87c0,.29.18.38.41.38H118c.29,0,.35-.14.35-.38Z"/><path class="cls-6" d="M150.17,867.22h-2.83a.24.24,0,0,0-.24.24v7.32a3.19,3.19,0,0,1-1.74.53c-1,0-1.29-.46-1.29-1.46v-6.39a.24.24,0,0,0-.24-.24H141a.24.24,0,0,0-.24.24v6.87c0,3,1.66,3.7,3.93,3.7a6.67,6.67,0,0,0,3.38-1s.07.54.1.6a.24.24,0,0,0,.21.13h1.83a.23.23,0,0,0,.23-.24v-10A.23.23,0,0,0,150.17,867.22Z"/><path class="cls-6" d="M157.91,866.89a5.35,5.35,0,0,0-2.71.72v-5.06a.23.23,0,0,0-.23-.24h-2.86a.24.24,0,0,0-.24.24v14.93a.24.24,0,0,0,.24.24h2a.23.23,0,0,0,.21-.13,4.46,4.46,0,0,0,.12-.68,5.15,5.15,0,0,0,3.39,1.1c2.6,0,4.09-1.31,4.09-5.92S159.52,866.89,157.91,866.89Zm-1.12,8.41a3.45,3.45,0,0,1-1.65-.47V870.1a3.71,3.71,0,0,1,1.46-.48c1-.09,2,.22,2,2.65S158.16,875.34,156.79,875.3Z"/><path class="cls-6" d="M126.59,867.2h-2.14v-2.83c0-.1,0-.16-.18-.16h-2.91c-.12,0-.18,0-.18.16v2.92l-1.56.38a.24.24,0,0,0-.17.23v1.84a.24.24,0,0,0,.24.24h1.49v4.42c0,3.28,2.3,3.6,3.86,3.6a6.59,6.59,0,0,0,1.7-.28.23.23,0,0,0,.13-.22v-2a.23.23,0,0,0-.23-.23c-.13,0-.45,0-.78,0-1,0-1.4-.49-1.4-1.12s0-4.2,0-4.2h2.15a.23.23,0,0,0,.23-.24v-2.3A.23.23,0,0,0,126.59,867.2Z"/><text class="cls-7" transform="translate(312.27 434.46)">Samarbejd<tspan class="cls-10" x="100.24" y="0">s</tspan><tspan class="cls-9" x="110.21" y="0">f</tspan><tspan x="116.83" y="0">orum</tspan><tspan class="cls-17" x="21.87" y="24.81">m</tspan><tspan x="39.75" y="24.81">yndigheder</tspan></text><path class="cls-4" d="M350.07,385.71c-3.87,0-5.69-3.37-6.57-4.91s-1.65-4.93-.9-10c.91-6.16,7.47-5.87,7.47-5.87s6.56-.29,7.48,5.87c.75,5,0,8.43-.91,10s-2.7,4.92-6.57,4.91"/><path class="cls-11" d="M346.18,385s-.08,2.34,0,3.44-4.74,2.71-4.74,2.71a26.18,26.18,0,0,0-6.61,2.68c-2.6,1.34-2.42,14.06-2.42,14.06"/><path class="cls-11" d="M353.64,385s.09,2.34,0,3.44,4.74,2.71,4.74,2.71a26.18,26.18,0,0,1,6.61,2.68c2.6,1.34,2.42,14.06,2.42,14.06"/><path class="cls-4" d="M380.24,385.71c-3.87,0-5.69-3.37-6.57-4.91s-1.65-4.93-.9-10c.91-6.16,7.47-5.87,7.47-5.87s6.56-.29,7.48,5.87c.75,5,0,8.43-.91,10s-2.7,4.92-6.57,4.91"/><path class="cls-11" d="M376.35,385s-.08,2.34,0,3.44-4.74,2.71-4.74,2.71"/><path class="cls-11" d="M383.81,385s.09,2.34,0,3.44,4.74,2.71,4.74,2.71a26,26,0,0,1,6.61,2.68c2.6,1.34,2.42,14.06,2.42,14.06"/><path class="cls-4" d="M410.41,385.71c-3.86,0-5.68-3.37-6.56-4.91s-1.66-4.93-.91-10c.92-6.16,7.47-5.87,7.47-5.87s6.56-.29,7.48,5.87c.75,5,0,8.43-.91,10s-2.7,4.92-6.57,4.91"/><path class="cls-11" d="M406.53,385s-.09,2.34,0,3.44-4.74,2.71-4.74,2.71"/><path class="cls-11" d="M414,385s.08,2.34,0,3.44,4.74,2.71,4.74,2.71a26.18,26.18,0,0,1,6.61,2.68c2.59,1.34,2.42,14.06,2.42,14.06"/><path class="cls-4" d="M440.59,385.71c-3.87,0-5.69-3.37-6.57-4.91s-1.66-4.93-.91-10c.92-6.16,7.48-5.87,7.48-5.87s6.56-.29,7.47,5.87c.75,5,0,8.43-.9,10s-2.7,4.92-6.57,4.91"/><path class="cls-11" d="M436.7,385s-.09,2.34,0,3.44S432,391.1,432,391.1"/><path class="cls-11" d="M444.16,385s.08,2.34,0,3.44,4.74,2.71,4.74,2.71a26.18,26.18,0,0,1,6.61,2.68c2.6,1.34,2.42,14.06,2.42,14.06"/><path class="cls-4" d="M428.11,346.72a21.45,21.45,0,1,0-8.08,7,25,25,0,0,0,11.9,3.07A10.71,10.71,0,0,1,428.11,346.72Z"/><path class="cls-11" d="M388.16,320.3a19.65,19.65,0,0,0-26.25,28,9.83,9.83,0,0,1-3.5,9.23,22.84,22.84,0,0,0,10.9-2.82,19.64,19.64,0,0,0,21.28-2.45"/><line class="cls-13" x1="131.59" y1="238.96" x2="131.59" y2="267.13"/><polygon class="cls-6" points="124.11 264.94 131.59 277.89 139.07 264.94 124.11 264.94"/><line class="cls-13" x1="131.59" y1="505.99" x2="131.59" y2="534.15"/><polygon class="cls-6" points="124.11 531.97 131.59 544.92 139.07 531.97 124.11 531.97"/><line class="cls-13" x1="398" y1="544.92" x2="398" y2="516.75"/><polygon class="cls-6" points="405.48 518.94 398 505.99 390.52 518.94 405.48 518.94"/><line class="cls-13" x1="131.59" y1="814.45" x2="131.59" y2="786.29"/><polygon class="cls-6" points="139.07 788.47 131.59 775.52 124.11 788.47 139.07 788.47"/><line class="cls-13" x1="398" y1="277.89" x2="398" y2="249.73"/><polygon class="cls-6" points="405.48 251.92 398 238.96 390.52 251.92 405.48 251.92"/><rect class="cls-4" x="347.98" y="873.56" width="70.42" height="89.66" transform="translate(-535.2 1301.59) rotate(-90)"/><polyline class="cls-11" points="351.01 874.7 351.01 870.39 440.68 870.39 440.68 940.81 436.91 940.81"/><polyline class="cls-11" points="362.21 862.64 362.21 858.33 451.88 858.33 451.88 928.75 448.11 928.75"/><text class="cls-7" transform="translate(352.76 982.97)"><tspan class="cls-18">P</tspan><tspan class="cls-10" x="12.32" y="0">r</tspan><tspan class="cls-19" x="19.81" y="0">oje</tspan><tspan class="cls-18" x="47.91" y="0">k</tspan><tspan class="cls-8" x="58.6" y="0">t</tspan><tspan x="65.78" y="0">er</tspan></text><line class="cls-13" x1="280.11" y1="897.92" x2="251.95" y2="897.92"/><polygon class="cls-6" points="254.13 890.44 241.18 897.92 254.13 905.4 254.13 890.44"/><line class="cls-13" x1="398" y1="775.52" x2="398" y2="803.69"/><polygon class="cls-6" points="390.52 801.5 398 814.45 405.48 801.5 390.52 801.5"/><path class="cls-6" d="M350.66,693.91h4.84c3.59,0,5.91,2.4,5.91,7.22s-2.32,7.22-5.91,7.22h-4.84Zm4.84,12.91c2.37,0,4.05-1.66,4.05-4.51V700c0-2.85-1.68-4.51-4.05-4.51h-3.1v11.38Z"/><path class="cls-6" d="M363.58,703c0-3.39,1.9-5.58,4.8-5.58s4.61,2.19,4.61,5.21v.78h-7.67v.5a3,3,0,0,0,3.16,3.23,3.09,3.09,0,0,0,2.94-1.84l1.18.84a4.49,4.49,0,0,1-4.22,2.44C365.48,708.59,363.58,706.4,363.58,703Zm1.74-1v.14h5.89V702a2.85,2.85,0,0,0-2.83-3.15A3,3,0,0,0,365.32,702Z"/><path class="cls-6" d="M378.08,708.35a1.63,1.63,0,0,1-1.76-1.76v-7.47h-1.76v-1.44h1c.71,0,.93-.25.93-1v-2H378v3h2.34v1.44H378v7.78h2.17v1.45Z"/><path class="cls-6" d="M388,708.35V693.91h8.6v1.53h-6.86v4.84H396v1.53h-6.26v6.54Z"/><path class="cls-6" d="M412.15,705.33l1.18.82a4.33,4.33,0,0,1-4,2.44,4,4,0,0,1-3.95-2.39h-.12c-.19.91-1.58,2.39-4,2.39-2.15,0-3.54-1.24-3.54-3.18s1.53-3.23,4.55-3.23h2.11v-1a2.15,2.15,0,0,0-2.46-2.33,2.93,2.93,0,0,0-2.77,1.57l-1-.91a4.09,4.09,0,0,1,3.81-2.09,3.1,3.1,0,0,1,3.35,2.38h.12a4,4,0,0,1,3.85-2.38c2.71,0,4.42,2.19,4.42,5.21v.78h-7.67v.5a3,3,0,0,0,3.17,3.23A3.07,3.07,0,0,0,412.15,705.33Zm-9.94-1.91c-1.88.07-2.73.65-2.73,1.68v.43c0,1.06.8,1.66,2.13,1.66,1.59,0,2.79-.85,2.79-2v-1.82Zm9.73-1.24V702a2.84,2.84,0,0,0-2.83-3.15,3,3,0,0,0-3.06,3.23v.14Z"/><path class="cls-6" d="M418.21,708.35a1.62,1.62,0,0,1-1.76-1.72V693.05h1.66V706.9h1.57v1.45Z"/><path class="cls-6" d="M423.73,708.35a1.62,1.62,0,0,1-1.75-1.72V693.05h1.65V706.9h1.57v1.45Z"/><path class="cls-6" d="M426.81,703c0-3.39,1.91-5.58,4.8-5.58s4.61,2.19,4.61,5.21v.78h-7.67v.5a3,3,0,0,0,3.16,3.23,3.09,3.09,0,0,0,2.94-1.84l1.18.84a4.47,4.47,0,0,1-4.22,2.44C428.72,708.59,426.81,706.4,426.81,703Zm1.74-1v.14h5.89V702a2.84,2.84,0,0,0-2.83-3.15A3,3,0,0,0,428.55,702Z"/><path class="cls-6" d="M437.94,706.51l1.18-1a3.85,3.85,0,0,0,3.16,1.64c1.41,0,2.23-.64,2.23-1.74,0-.83-.45-1.47-1.86-1.67l-.85-.13c-2-.29-3.43-1.09-3.43-3.08s1.64-3.14,3.81-3.14a4.44,4.44,0,0,1,3.72,1.72l-1.1,1a3.28,3.28,0,0,0-2.75-1.31c-1.36,0-2.09.65-2.09,1.66s.73,1.45,2.05,1.65l.83.13c2.36.35,3.26,1.38,3.26,3,0,2.07-1.5,3.33-3.94,3.33A5,5,0,0,1,437.94,706.51Z"/><path class="cls-6" d="M335.14,718.73H340c3.6,0,5.91,2.4,5.91,7.21s-2.31,7.22-5.91,7.22h-4.84Zm4.84,12.9c2.38,0,4-1.65,4-4.51v-2.36c0-2.85-1.67-4.5-4-4.5h-3.1v11.37Z"/><path class="cls-6" d="M348.06,727.83c0-3.4,1.91-5.59,4.8-5.59s4.61,2.19,4.61,5.21v.79H349.8v.49A3,3,0,0,0,353,732a3.09,3.09,0,0,0,2.94-1.84l1.18.85a4.47,4.47,0,0,1-4.22,2.44C350,733.41,348.06,731.22,348.06,727.83Zm1.74-1V727h5.89v-.23a2.83,2.83,0,0,0-2.83-3.14A3,3,0,0,0,349.8,726.85Z"/><path class="cls-6" d="M359.19,731.32l1.18-1a3.87,3.87,0,0,0,3.16,1.63c1.41,0,2.23-.64,2.23-1.74,0-.82-.45-1.46-1.86-1.67l-.85-.12c-2-.29-3.43-1.1-3.43-3.09s1.64-3.14,3.81-3.14a4.44,4.44,0,0,1,3.72,1.72l-1.1,1a3.28,3.28,0,0,0-2.75-1.3c-1.36,0-2.09.64-2.09,1.65s.73,1.45,2.05,1.66l.83.12c2.35.35,3.26,1.39,3.26,3,0,2.07-1.5,3.33-3.94,3.33A5,5,0,0,1,359.19,731.32Z"/><path class="cls-6" d="M370.08,719.06v-.27c0-.56.32-.93,1-.93s1,.37,1,.93v.27c0,.56-.31.93-1,.93S370.08,719.62,370.08,719.06Zm.19,3.43h1.66v10.67h-1.66Z"/><path class="cls-6" d="M379.27,737.54c-3.33,0-4.7-.95-4.7-2.62a2,2,0,0,1,1.7-2.07v-.23a1.54,1.54,0,0,1-.95-1.49c0-1.07.76-1.59,1.84-1.86v-.08a3.48,3.48,0,0,1-2-3.27c0-2.17,1.59-3.68,4-3.68a4.78,4.78,0,0,1,2,.42v-.19c0-.83.35-1.43,1.24-1.43H384v1.45h-2v.68a3.54,3.54,0,0,1,1.22,2.75c0,2.17-1.59,3.68-4,3.68a5.62,5.62,0,0,1-1-.1c-.7.19-1.41.54-1.41,1.2s.66.8,1.64.8h2.27c2.65,0,3.78,1.08,3.78,2.84C384.43,736.53,382.7,737.54,379.27,737.54Zm1.4-4.48h-3.55a1.48,1.48,0,0,0-1,1.44c0,.93.64,1.7,2.32,1.7H380c1.84,0,2.91-.58,2.91-1.74C382.88,733.61,382.33,733.06,380.67,733.06Zm.81-6.85v-.58c0-1.4-.89-2.06-2.3-2.06s-2.29.66-2.29,2.06v.58c0,1.41.89,2.07,2.29,2.07S381.48,727.62,381.48,726.21Z"/><path class="cls-6" d="M386.36,733.16V722.49H388v1.74h.09a3,3,0,0,1,3-2c2.2,0,3.58,1.49,3.58,4.08v6.84H393v-6.55c0-1.91-.83-2.88-2.42-2.88-1.33,0-2.61.66-2.61,2v7.4Z"/><path class="cls-6" d="M397.09,731.32l1.18-1a3.88,3.88,0,0,0,3.16,1.63c1.41,0,2.24-.64,2.24-1.74,0-.82-.46-1.46-1.87-1.67l-.84-.12c-2-.29-3.44-1.1-3.44-3.09s1.64-3.14,3.81-3.14a4.44,4.44,0,0,1,3.72,1.72l-1.1,1a3.28,3.28,0,0,0-2.75-1.3c-1.36,0-2.08.64-2.08,1.65s.72,1.45,2,1.66l.83.12c2.36.35,3.27,1.39,3.27,3,0,2.07-1.51,3.33-3.95,3.33A5,5,0,0,1,397.09,731.32Z"/><path class="cls-6" d="M414.38,722.49H416l-4.78,13.15c-.47,1.28-.91,1.65-2.48,1.65h-.85v-1.44h1.68l.81-2.28-4-11.08h1.65l2.56,7.26.5,1.73h.1l.58-1.73Z"/><path class="cls-6" d="M417,731.32l1.18-1a3.89,3.89,0,0,0,3.17,1.63c1.4,0,2.23-.64,2.23-1.74,0-.82-.46-1.46-1.86-1.67l-.85-.12c-2-.29-3.43-1.1-3.43-3.09s1.63-3.14,3.8-3.14A4.41,4.41,0,0,1,425,724l-1.09,1a3.31,3.31,0,0,0-2.75-1.3c-1.37,0-2.09.64-2.09,1.65s.72,1.45,2.05,1.66l.82.12c2.36.35,3.27,1.39,3.27,3,0,2.07-1.51,3.33-3.95,3.33A5,5,0,0,1,417,731.32Z"/><path class="cls-6" d="M430.32,733.16a1.63,1.63,0,0,1-1.76-1.76v-7.46H426.8v-1.45h1c.7,0,.93-.25.93-1v-2h1.49v3h2.33v1.45h-2.33v7.77h2.17v1.45Z"/><path class="cls-6" d="M434.35,727.83c0-3.4,1.9-5.59,4.8-5.59s4.61,2.19,4.61,5.21v.79h-7.67v.49a3,3,0,0,0,3.16,3.23,3.09,3.09,0,0,0,2.94-1.84l1.18.85a4.49,4.49,0,0,1-4.22,2.44C436.25,733.41,434.35,731.22,434.35,727.83Zm1.74-1V727H442v-.23a2.84,2.84,0,0,0-2.83-3.14A3,3,0,0,0,436.09,726.85Z"/><path class="cls-6" d="M446.49,733.16V722.49h1.65v1.74h.09a2.86,2.86,0,0,1,2.87-2,3.28,3.28,0,0,1,3.27,2.17h0a3.21,3.21,0,0,1,3.24-2.17c2.18,0,3.48,1.49,3.48,4.08v6.84h-1.66v-6.55c0-1.89-.72-2.88-2.33-2.88-1.3,0-2.5.66-2.5,2v7.4H453v-6.55c0-1.91-.72-2.88-2.29-2.88-1.31,0-2.55.66-2.55,2v7.4Z"/><text class="cls-20" transform="translate(368.44 636.28)">FDS</text><path class="cls-21" d="M335.42,659.05V583.71A3.5,3.5,0,0,1,339,580.3H457a3.5,3.5,0,0,1,3.57,3.41v75.37"/><path class="cls-21" d="M466.15,659.24v11.62a8,8,0,0,1-8,8H337.82a8,8,0,0,1-8-8V659.6Z"/><line class="cls-22" x1="394.02" y1="669.03" x2="401.98" y2="669.03"/><circle class="cls-6" cx="398" cy="588.51" r="2.58"/><text class="cls-7" transform="translate(84.96 733.16)">FDS <tspan class="cls-23" x="42.33" y="0">T</tspan><tspan x="52.81" y="0">eam</tspan></text><path class="cls-4" d="M94.56,633.88c-3,0-4.38-2.6-5.06-3.79s-1.28-3.8-.7-7.69c.7-4.74,5.76-4.52,5.76-4.52s5.06-.22,5.77,4.52c.57,3.89,0,6.5-.7,7.69s-2.08,3.79-5.07,3.79"/><path class="cls-11" d="M98.22,633.29s.06,1.8,0,2.65,3.65,2.09,3.65,2.09a20.14,20.14,0,0,1,5.1,2.07c2,1,.75,17.21.44,19.42-.36,2.57-.51,4.84-3.88,6.87"/><line class="cls-11" x1="102.13" y1="647.93" x2="102.13" y2="704.13"/><path class="cls-11" d="M90.91,633.29s-.07,1.8,0,2.65S87.25,638,87.25,638a20.19,20.19,0,0,0-5.09,2.07c-2,1-.76,17.21-.45,19.42.36,2.57.52,4.84,3.89,6.87"/><line class="cls-11" x1="86.99" y1="647.93" x2="86.99" y2="704.13"/><line class="cls-11" x1="94.56" y1="674.96" x2="94.56" y2="704.13"/><path class="cls-4" d="M114.92,633.88c-3,0-4.39-2.6-5.06-3.79s-1.28-3.8-.7-7.69c.7-4.74,5.76-4.52,5.76-4.52s5.06-.22,5.76,4.52c.58,3.89,0,6.5-.69,7.69s-2.09,3.79-5.07,3.79"/><path class="cls-11" d="M118.58,633.29s.06,1.8,0,2.65,3.65,2.09,3.65,2.09a20.31,20.31,0,0,1,5.1,2.07c2,1,.75,17.21.44,19.42-.36,2.57-.51,4.84-3.88,6.87"/><line class="cls-11" x1="122.49" y1="647.93" x2="122.49" y2="704.13"/><path class="cls-4" d="M135.28,633.88c-3,0-4.39-2.6-5.06-3.79s-1.28-3.8-.7-7.69c.7-4.74,5.76-4.52,5.76-4.52s5.06-.22,5.76,4.52c.58,3.89,0,6.5-.7,7.69s-2.08,3.79-5.06,3.79"/><path class="cls-11" d="M138.94,633.29s.06,1.8,0,2.65,3.65,2.09,3.65,2.09a20.31,20.31,0,0,1,5.1,2.07c2,1,.75,17.21.44,19.42-.36,2.57-.52,4.84-3.88,6.87"/><line class="cls-11" x1="142.85" y1="647.93" x2="142.85" y2="704.13"/><g class="cls-24"><path class="cls-6" d="M137.41,687.71a.19.19,0,0,1,.17-.19l3.13-.52a1,1,0,0,0,.81-.74,11.58,11.58,0,0,1,1.3-3.13,1,1,0,0,0,0-1.09l-1.84-2.6a.2.2,0,0,1,0-.25l2.22-2.23a.22.22,0,0,1,.14-.06.21.21,0,0,1,.12,0l2.59,1.84a1,1,0,0,0,1.09.05,11.58,11.58,0,0,1,3.13-1.3,1,1,0,0,0,.74-.81l.53-3.13a.19.19,0,0,1,.19-.17h3.14a.2.2,0,0,1,.2.17l.52,3.13a1,1,0,0,0,.74.81,12.47,12.47,0,0,1,3.06,1.25,1,1,0,0,0,1.09,0l2.61-1.86a.25.25,0,0,1,.11,0,.2.2,0,0,1,.14.06l2.23,2.23a.21.21,0,0,1,0,.25L163.72,682a1,1,0,0,0,0,1.1,11.74,11.74,0,0,1,1.31,3.12,1,1,0,0,0,.81.74l3.15.53a.2.2,0,0,1,.17.2v3.14a.19.19,0,0,1-.17.19l-3.11.53a1,1,0,0,0-.81.74,11.92,11.92,0,0,1-1.28,3.14,1,1,0,0,0,.05,1.09l1.86,2.61a.2.2,0,0,1,0,.25l-2.22,2.22a.18.18,0,0,1-.15.06.2.2,0,0,1-.11,0l-2.57-1.84a1,1,0,0,0-1.11,0,11.81,11.81,0,0,1-3.11,1.31,1,1,0,0,0-.74.81l-.54,3.15a.2.2,0,0,1-.19.17h-3.15a.19.19,0,0,1-.19-.17l-.52-3.11a1,1,0,0,0-.75-.81,12.28,12.28,0,0,1-3.2-1.32,1,1,0,0,0-1.1,0l-2.57,1.85a.3.3,0,0,1-.11,0,.2.2,0,0,1-.14-.06l-2.23-2.23a.21.21,0,0,1,0-.25l1.84-2.59a1,1,0,0,0,.05-1.1,11.85,11.85,0,0,1-1.3-3.12,1,1,0,0,0-.81-.74l-3.13-.53a.19.19,0,0,1-.16-.2v-3.14Zm15.85,8a6.39,6.39,0,1,0-6.39-6.39A6.39,6.39,0,0,0,153.26,695.67Z"/></g><path class="cls-6" d="M155.44,664.65a.17.17,0,0,1,.14-.17l2.64-.44a.85.85,0,0,0,.68-.62,9.75,9.75,0,0,1,1.09-2.63.85.85,0,0,0,0-.93l-1.55-2.18a.17.17,0,0,1,0-.22l1.87-1.87a.17.17,0,0,1,.12-.05.12.12,0,0,1,.09,0l2.18,1.56a.87.87,0,0,0,.93,0,10.08,10.08,0,0,1,2.63-1.09.82.82,0,0,0,.62-.68l.45-2.64a.16.16,0,0,1,.16-.14h2.65a.16.16,0,0,1,.16.14l.44,2.64a.85.85,0,0,0,.62.68,10.17,10.17,0,0,1,2.58,1.06.92.92,0,0,0,.43.11.82.82,0,0,0,.49-.16l2.2-1.56.09,0a.15.15,0,0,1,.12,0l1.87,1.87a.17.17,0,0,1,0,.21l-1.55,2.17a.87.87,0,0,0,0,.93,10,10,0,0,1,1.1,2.63.86.86,0,0,0,.68.62l2.66.45a.16.16,0,0,1,.14.16v2.65a.16.16,0,0,1-.14.16l-2.62.44a.87.87,0,0,0-.69.63,10.1,10.1,0,0,1-1.07,2.64.85.85,0,0,0,0,.92l1.57,2.2a.17.17,0,0,1,0,.21l-1.87,1.87a.15.15,0,0,1-.12.05.17.17,0,0,1-.1,0L175,674.78a.85.85,0,0,0-.93,0,10.11,10.11,0,0,1-2.63,1.1.86.86,0,0,0-.62.68l-.46,2.66a.16.16,0,0,1-.16.14h-2.64a.17.17,0,0,1-.17-.14l-.44-2.62a.86.86,0,0,0-.63-.69,9.84,9.84,0,0,1-2.69-1.1.83.83,0,0,0-.92,0l-2.17,1.56-.1,0a.21.21,0,0,1-.12,0l-1.87-1.88a.17.17,0,0,1,0-.21l1.55-2.18a.83.83,0,0,0,0-.92,10.15,10.15,0,0,1-1.09-2.64.84.84,0,0,0-.68-.62l-2.64-.44a.18.18,0,0,1-.14-.17v-2.64Zm13.35,6.7A5.39,5.39,0,1,0,163.4,666,5.38,5.38,0,0,0,168.79,671.35Z"/></g><g id="Layer_3" data-name="Layer 3"><path class="cls-25" d="M542.5.74v1049H.5V.74h542m.5-.5H0v1050H543V.24Z"/></g></svg>