<svg width="418" height="541" viewBox="0 0 418 541" fill="none" xmlns="http://www.w3.org/2000/svg">
<rect width="418" height="541" fill="white"/>
<path d="M19.08 51V23.08H25.16V45.6H35.8V51H19.08ZM48.1003 51.48C46.5536 51.48 45.167 51.2267 43.9403 50.72C42.7403 50.2133 41.7136 49.48 40.8603 48.52C40.0336 47.56 39.3936 46.4 38.9403 45.04C38.487 43.68 38.2603 42.16 38.2603 40.48C38.2603 38.8 38.487 37.28 38.9403 35.92C39.3936 34.56 40.0336 33.4133 40.8603 32.48C41.7136 31.52 42.7403 30.7867 43.9403 30.28C45.167 29.7733 46.5536 29.52 48.1003 29.52C49.647 29.52 51.0203 29.7733 52.2203 30.28C53.447 30.7867 54.4736 31.52 55.3003 32.48C56.1536 33.4133 56.807 34.56 57.2603 35.92C57.7136 37.28 57.9403 38.8 57.9403 40.48C57.9403 42.16 57.7136 43.68 57.2603 45.04C56.807 46.4 56.1536 47.56 55.3003 48.52C54.4736 49.48 53.447 50.2133 52.2203 50.72C51.0203 51.2267 49.647 51.48 48.1003 51.48ZM48.1003 46.8C49.2736 46.8 50.1803 46.44 50.8203 45.72C51.4603 45 51.7803 43.9733 51.7803 42.64V38.36C51.7803 37.0267 51.4603 36 50.8203 35.28C50.1803 34.56 49.2736 34.2 48.1003 34.2C46.927 34.2 46.0203 34.56 45.3803 35.28C44.7403 36 44.4203 37.0267 44.4203 38.36V42.64C44.4203 43.9733 44.7403 45 45.3803 45.72C46.0203 46.44 46.927 46.8 48.1003 46.8ZM62.1584 51V30H68.0784V34.56H68.2784C68.3851 33.9733 68.5718 33.4133 68.8384 32.88C69.1051 32.32 69.4518 31.8267 69.8784 31.4C70.3318 30.9733 70.8651 30.64 71.4784 30.4C72.0918 30.1333 72.8118 30 73.6384 30H74.6784V35.52H73.1984C71.4651 35.52 70.1718 35.7467 69.3184 36.2C68.4918 36.6533 68.0784 37.4933 68.0784 38.72V51H62.1584ZM86.895 51.48C85.295 51.48 83.8683 51.2267 82.615 50.72C81.3617 50.1867 80.295 49.4533 79.415 48.52C78.5617 47.56 77.9083 46.4 77.455 45.04C77.0283 43.68 76.815 42.16 76.815 40.48C76.815 38.8267 77.0283 37.3333 77.455 36C77.8817 34.64 78.5083 33.48 79.335 32.52C80.1883 31.56 81.2283 30.8267 82.455 30.32C83.6817 29.7867 85.0817 29.52 86.655 29.52C88.3883 29.52 89.8683 29.8133 91.095 30.4C92.3483 30.9867 93.3617 31.7733 94.135 32.76C94.935 33.7467 95.5083 34.8933 95.855 36.2C96.2283 37.48 96.415 38.8267 96.415 40.24V42H82.935V42.32C82.935 43.7067 83.3083 44.8133 84.055 45.64C84.8017 46.44 85.975 46.84 87.575 46.84C88.8017 46.84 89.8017 46.6 90.575 46.12C91.3483 45.6133 92.0683 45.0133 92.735 44.32L95.695 48C94.7617 49.0933 93.535 49.9467 92.015 50.56C90.5217 51.1733 88.815 51.48 86.895 51.48ZM86.775 33.88C85.575 33.88 84.6283 34.28 83.935 35.08C83.2683 35.8533 82.935 36.8933 82.935 38.2V38.52H90.295V38.16C90.295 36.88 90.0017 35.8533 89.415 35.08C88.855 34.28 87.975 33.88 86.775 33.88ZM100.596 51V30H106.516V33.56H106.756C107.129 32.44 107.769 31.4933 108.676 30.72C109.583 29.92 110.823 29.52 112.396 29.52C113.836 29.52 115.063 29.88 116.076 30.6C117.089 31.32 117.823 32.3733 118.276 33.76H118.396C118.583 33.1733 118.863 32.6267 119.236 32.12C119.636 31.5867 120.116 31.1333 120.676 30.76C121.236 30.3867 121.863 30.0933 122.556 29.88C123.249 29.64 123.996 29.52 124.796 29.52C126.823 29.52 128.369 30.24 129.436 31.68C130.529 33.12 131.076 35.1733 131.076 37.84V51H125.156V38.32C125.156 35.6533 124.196 34.32 122.276 34.32C121.396 34.32 120.596 34.5733 119.876 35.08C119.156 35.5867 118.796 36.36 118.796 37.4V51H112.876V38.32C112.876 35.6533 111.916 34.32 109.996 34.32C109.569 34.32 109.143 34.3867 108.716 34.52C108.316 34.6267 107.943 34.8133 107.596 35.08C107.276 35.3467 107.009 35.68 106.796 36.08C106.609 36.4533 106.516 36.8933 106.516 37.4V51H100.596ZM148.751 27.76C147.551 27.76 146.671 27.4933 146.111 26.96C145.578 26.4 145.311 25.6933 145.311 24.84V23.96C145.311 23.1067 145.578 22.4133 146.111 21.88C146.671 21.32 147.551 21.04 148.751 21.04C149.951 21.04 150.818 21.32 151.351 21.88C151.911 22.4133 152.191 23.1067 152.191 23.96V24.84C152.191 25.6933 151.911 26.4 151.351 26.96C150.818 27.4933 149.951 27.76 148.751 27.76ZM145.791 30H151.711V51H145.791V30ZM157.237 30H163.157V33.52H163.357C163.65 32.3467 164.317 31.3867 165.357 30.64C166.423 29.8933 167.637 29.52 168.997 29.52C171.663 29.52 173.677 30.4533 175.037 32.32C176.397 34.1867 177.077 36.9067 177.077 40.48C177.077 44.0533 176.397 46.7867 175.037 48.68C173.677 50.5467 171.663 51.48 168.997 51.48C168.303 51.48 167.65 51.3733 167.037 51.16C166.423 50.9733 165.863 50.7067 165.357 50.36C164.877 49.9867 164.463 49.56 164.117 49.08C163.77 48.5733 163.517 48.04 163.357 47.48H163.157V59H157.237V30ZM167.037 46.68C168.157 46.68 169.077 46.2933 169.797 45.52C170.543 44.72 170.917 43.6533 170.917 42.32V38.68C170.917 37.3467 170.543 36.2933 169.797 35.52C169.077 34.72 168.157 34.32 167.037 34.32C165.917 34.32 164.983 34.6 164.237 35.16C163.517 35.6933 163.157 36.44 163.157 37.4V43.6C163.157 44.56 163.517 45.32 164.237 45.88C164.983 46.4133 165.917 46.68 167.037 46.68ZM188.693 51.48C186.666 51.48 184.959 51.16 183.573 50.52C182.186 49.8533 180.946 48.92 179.853 47.72L183.333 44.2C184.079 45.0267 184.906 45.68 185.813 46.16C186.719 46.64 187.746 46.88 188.893 46.88C190.066 46.88 190.879 46.7067 191.333 46.36C191.786 45.9867 192.013 45.4933 192.013 44.88C192.013 43.8933 191.306 43.3067 189.893 43.12L187.613 42.84C182.893 42.2533 180.533 40.0933 180.533 36.36C180.533 35.3467 180.719 34.4267 181.093 33.6C181.493 32.7467 182.039 32.0267 182.733 31.44C183.453 30.8267 184.306 30.36 185.293 30.04C186.306 29.6933 187.439 29.52 188.693 29.52C189.786 29.52 190.746 29.6 191.573 29.76C192.426 29.8933 193.173 30.1067 193.813 30.4C194.479 30.6667 195.079 31.0133 195.613 31.44C196.173 31.84 196.719 32.2933 197.253 32.8L193.853 36.28C193.186 35.6133 192.426 35.0933 191.573 34.72C190.746 34.32 189.893 34.12 189.013 34.12C187.999 34.12 187.279 34.28 186.853 34.6C186.426 34.92 186.213 35.3467 186.213 35.88C186.213 36.44 186.359 36.88 186.653 37.2C186.973 37.4933 187.559 37.7067 188.413 37.84L190.773 38.16C195.386 38.7733 197.693 40.88 197.693 44.48C197.693 45.4933 197.479 46.4267 197.053 47.28C196.626 48.1333 196.013 48.88 195.213 49.52C194.439 50.1333 193.493 50.6133 192.373 50.96C191.279 51.3067 190.053 51.48 188.693 51.48ZM214.129 47.48H213.929C213.742 48.0133 213.489 48.52 213.169 49C212.875 49.48 212.489 49.9067 212.009 50.28C211.529 50.6533 210.955 50.9467 210.289 51.16C209.649 51.3733 208.902 51.48 208.049 51.48C205.889 51.48 204.249 50.7733 203.129 49.36C202.035 47.92 201.489 45.8667 201.489 43.2V30H207.409V42.68C207.409 43.96 207.635 44.9467 208.089 45.64C208.542 46.3333 209.315 46.68 210.409 46.68C210.862 46.68 211.315 46.6133 211.769 46.48C212.222 46.3467 212.622 46.16 212.969 45.92C213.315 45.6533 213.595 45.3333 213.809 44.96C214.022 44.5867 214.129 44.1467 214.129 43.64V30H220.049V51H214.129V47.48ZM225.557 51V30H231.477V33.56H231.717C232.09 32.44 232.73 31.4933 233.637 30.72C234.544 29.92 235.784 29.52 237.357 29.52C238.797 29.52 240.024 29.88 241.037 30.6C242.05 31.32 242.784 32.3733 243.237 33.76H243.357C243.544 33.1733 243.824 32.6267 244.197 32.12C244.597 31.5867 245.077 31.1333 245.637 30.76C246.197 30.3867 246.824 30.0933 247.517 29.88C248.21 29.64 248.957 29.52 249.757 29.52C251.784 29.52 253.33 30.24 254.397 31.68C255.49 33.12 256.037 35.1733 256.037 37.84V51H250.117V38.32C250.117 35.6533 249.157 34.32 247.237 34.32C246.357 34.32 245.557 34.5733 244.837 35.08C244.117 35.5867 243.757 36.36 243.757 37.4V51H237.837V38.32C237.837 35.6533 236.877 34.32 234.957 34.32C234.53 34.32 234.104 34.3867 233.677 34.52C233.277 34.6267 232.904 34.8133 232.557 35.08C232.237 35.3467 231.97 35.68 231.757 36.08C231.57 36.4533 231.477 36.8933 231.477 37.4V51H225.557Z" fill="#1A1A1A"/>
<g filter="url(#filter0_d_5010_49590)">
<rect x="16" y="80" width="386" height="167" fill="white"/>
<path d="M41.968 121V104.248H45.136V118.192H51.736V121H41.968ZM59.0253 121.288C58.1293 121.288 57.3213 121.136 56.6013 120.832C55.8973 120.528 55.2893 120.088 54.7773 119.512C54.2813 118.936 53.8973 118.248 53.6253 117.448C53.3533 116.632 53.2173 115.72 53.2173 114.712C53.2173 113.704 53.3533 112.8 53.6253 112C53.8973 111.2 54.2813 110.52 54.7773 109.96C55.2893 109.384 55.8973 108.944 56.6013 108.64C57.3213 108.336 58.1293 108.184 59.0253 108.184C59.9213 108.184 60.7293 108.336 61.4493 108.64C62.1693 108.944 62.7773 109.384 63.2733 109.96C63.7853 110.52 64.1773 111.2 64.4493 112C64.7213 112.8 64.8573 113.704 64.8573 114.712C64.8573 115.72 64.7213 116.632 64.4493 117.448C64.1773 118.248 63.7853 118.936 63.2733 119.512C62.7773 120.088 62.1693 120.528 61.4493 120.832C60.7293 121.136 59.9213 121.288 59.0253 121.288ZM59.0253 118.816C59.8413 118.816 60.4813 118.568 60.9453 118.072C61.4093 117.576 61.6413 116.848 61.6413 115.888V113.56C61.6413 112.616 61.4093 111.896 60.9453 111.4C60.4813 110.904 59.8413 110.656 59.0253 110.656C58.2253 110.656 57.5933 110.904 57.1293 111.4C56.6653 111.896 56.4333 112.616 56.4333 113.56V115.888C56.4333 116.848 56.6653 117.576 57.1293 118.072C57.5933 118.568 58.2253 118.816 59.0253 118.816ZM67.5807 121V108.472H70.6527V111.064H70.7727C70.8527 110.728 70.9727 110.408 71.1327 110.104C71.3087 109.784 71.5327 109.504 71.8047 109.264C72.0767 109.024 72.3967 108.832 72.7647 108.688C73.1487 108.544 73.5887 108.472 74.0847 108.472H74.7567V111.376H73.7967C72.7567 111.376 71.9727 111.528 71.4447 111.832C70.9167 112.136 70.6527 112.632 70.6527 113.32V121H67.5807ZM81.9494 121.288C81.0214 121.288 80.1894 121.136 79.4534 120.832C78.7334 120.512 78.1174 120.072 77.6054 119.512C77.1094 118.936 76.7254 118.248 76.4534 117.448C76.1814 116.632 76.0454 115.72 76.0454 114.712C76.0454 113.72 76.1734 112.824 76.4294 112.024C76.7014 111.224 77.0854 110.544 77.5814 109.984C78.0774 109.408 78.6854 108.968 79.4054 108.664C80.1254 108.344 80.9414 108.184 81.8534 108.184C82.8294 108.184 83.6774 108.352 84.3974 108.688C85.1174 109.024 85.7094 109.48 86.1734 110.056C86.6374 110.632 86.9814 111.304 87.2054 112.072C87.4454 112.824 87.5654 113.632 87.5654 114.496V115.504H79.2374V115.816C79.2374 116.728 79.4934 117.464 80.0054 118.024C80.5174 118.568 81.2774 118.84 82.2854 118.84C83.0534 118.84 83.6774 118.68 84.1574 118.36C84.6534 118.04 85.0934 117.632 85.4774 117.136L87.1334 118.984C86.6214 119.704 85.9174 120.272 85.0214 120.688C84.1414 121.088 83.1174 121.288 81.9494 121.288ZM81.9014 110.488C81.0854 110.488 80.4374 110.76 79.9574 111.304C79.4774 111.848 79.2374 112.552 79.2374 113.416V113.608H84.3734V113.392C84.3734 112.528 84.1574 111.832 83.7254 111.304C83.3094 110.76 82.7014 110.488 81.9014 110.488ZM90.2682 121V108.472H93.3402V110.56H93.4602C93.7002 109.904 94.0842 109.344 94.6122 108.88C95.1402 108.416 95.8762 108.184 96.8202 108.184C97.6842 108.184 98.4282 108.392 99.0522 108.808C99.6762 109.224 100.14 109.856 100.444 110.704H100.492C100.716 110 101.156 109.408 101.812 108.928C102.484 108.432 103.324 108.184 104.332 108.184C105.564 108.184 106.508 108.608 107.164 109.456C107.836 110.304 108.172 111.512 108.172 113.08V121H105.1V113.392C105.1 111.6 104.428 110.704 103.084 110.704C102.78 110.704 102.484 110.752 102.196 110.848C101.924 110.928 101.676 111.056 101.452 111.232C101.244 111.392 101.076 111.6 100.948 111.856C100.82 112.096 100.756 112.384 100.756 112.72V121H97.6842V113.392C97.6842 111.6 97.0122 110.704 95.6682 110.704C95.3802 110.704 95.0922 110.752 94.8042 110.848C94.5322 110.928 94.2842 111.056 94.0602 111.232C93.8522 111.392 93.6762 111.6 93.5322 111.856C93.4042 112.096 93.3402 112.384 93.3402 112.72V121H90.2682ZM118.781 106.648C118.141 106.648 117.677 106.504 117.389 106.216C117.117 105.928 116.981 105.56 116.981 105.112V104.632C116.981 104.184 117.117 103.816 117.389 103.528C117.677 103.24 118.141 103.096 118.781 103.096C119.405 103.096 119.861 103.24 120.149 103.528C120.437 103.816 120.581 104.184 120.581 104.632V105.112C120.581 105.56 120.437 105.928 120.149 106.216C119.861 106.504 119.405 106.648 118.781 106.648ZM117.245 108.472H120.317V121H117.245V108.472ZM123.878 108.472H126.95V110.536H127.046C127.27 109.816 127.694 109.248 128.318 108.832C128.942 108.4 129.67 108.184 130.502 108.184C132.102 108.184 133.318 108.752 134.15 109.888C134.998 111.008 135.422 112.616 135.422 114.712C135.422 116.824 134.998 118.448 134.15 119.584C133.318 120.72 132.102 121.288 130.502 121.288C129.67 121.288 128.942 121.072 128.318 120.64C127.71 120.208 127.286 119.632 127.046 118.912H126.95V125.8H123.878V108.472ZM129.518 118.744C130.318 118.744 130.966 118.48 131.462 117.952C131.958 117.424 132.206 116.712 132.206 115.816V113.656C132.206 112.76 131.958 112.048 131.462 111.52C130.966 110.976 130.318 110.704 129.518 110.704C128.782 110.704 128.166 110.888 127.67 111.256C127.19 111.624 126.95 112.112 126.95 112.72V116.704C126.95 117.36 127.19 117.864 127.67 118.216C128.166 118.568 128.782 118.744 129.518 118.744ZM142.372 121.288C141.172 121.288 140.164 121.088 139.348 120.688C138.532 120.272 137.812 119.704 137.188 118.984L139.06 117.16C139.524 117.688 140.028 118.104 140.572 118.408C141.132 118.712 141.772 118.864 142.492 118.864C143.228 118.864 143.756 118.736 144.076 118.48C144.412 118.224 144.58 117.872 144.58 117.424C144.58 117.056 144.46 116.768 144.22 116.56C143.996 116.336 143.604 116.184 143.044 116.104L141.796 115.936C140.436 115.76 139.396 115.376 138.676 114.784C137.972 114.176 137.62 113.296 137.62 112.144C137.62 111.536 137.732 110.992 137.956 110.512C138.18 110.016 138.5 109.6 138.916 109.264C139.332 108.912 139.828 108.648 140.404 108.472C140.996 108.28 141.652 108.184 142.372 108.184C142.98 108.184 143.516 108.232 143.98 108.328C144.46 108.408 144.892 108.536 145.276 108.712C145.66 108.872 146.012 109.08 146.332 109.336C146.652 109.576 146.964 109.848 147.268 110.152L145.468 111.952C145.1 111.568 144.66 111.248 144.148 110.992C143.636 110.736 143.076 110.608 142.468 110.608C141.796 110.608 141.308 110.728 141.004 110.968C140.716 111.208 140.572 111.52 140.572 111.904C140.572 112.32 140.692 112.64 140.932 112.864C141.188 113.072 141.612 113.224 142.204 113.32L143.476 113.488C146.18 113.872 147.532 115.104 147.532 117.184C147.532 117.792 147.404 118.352 147.148 118.864C146.908 119.36 146.564 119.792 146.116 120.16C145.668 120.512 145.124 120.792 144.484 121C143.86 121.192 143.156 121.288 142.372 121.288ZM157.733 118.912H157.613C157.501 119.232 157.349 119.536 157.157 119.824C156.981 120.096 156.749 120.344 156.461 120.568C156.189 120.792 155.853 120.968 155.453 121.096C155.069 121.224 154.621 121.288 154.109 121.288C152.813 121.288 151.821 120.864 151.133 120.016C150.445 119.168 150.101 117.96 150.101 116.392V108.472H153.173V116.08C153.173 116.944 153.341 117.608 153.677 118.072C154.013 118.52 154.549 118.744 155.285 118.744C155.589 118.744 155.885 118.704 156.173 118.624C156.477 118.544 156.741 118.424 156.965 118.264C157.189 118.088 157.373 117.88 157.517 117.64C157.661 117.384 157.733 117.088 157.733 116.752V108.472H160.805V121H157.733V118.912ZM164.354 121V108.472H167.426V110.56H167.546C167.786 109.904 168.17 109.344 168.698 108.88C169.226 108.416 169.962 108.184 170.906 108.184C171.77 108.184 172.514 108.392 173.138 108.808C173.762 109.224 174.226 109.856 174.53 110.704H174.578C174.802 110 175.242 109.408 175.898 108.928C176.57 108.432 177.41 108.184 178.418 108.184C179.65 108.184 180.594 108.608 181.25 109.456C181.922 110.304 182.258 111.512 182.258 113.08V121H179.186V113.392C179.186 111.6 178.514 110.704 177.17 110.704C176.866 110.704 176.57 110.752 176.282 110.848C176.01 110.928 175.762 111.056 175.538 111.232C175.33 111.392 175.162 111.6 175.034 111.856C174.906 112.096 174.842 112.384 174.842 112.72V121H171.77V113.392C171.77 111.6 171.098 110.704 169.754 110.704C169.466 110.704 169.178 110.752 168.89 110.848C168.618 110.928 168.37 111.056 168.146 111.232C167.938 111.392 167.762 111.6 167.618 111.856C167.49 112.096 167.426 112.384 167.426 112.72V121H164.354ZM199.107 118.912H198.987C198.763 119.632 198.339 120.208 197.715 120.64C197.091 121.072 196.363 121.288 195.531 121.288C193.947 121.288 192.731 120.72 191.883 119.584C191.051 118.448 190.635 116.824 190.635 114.712C190.635 112.616 191.051 111.008 191.883 109.888C192.731 108.752 193.947 108.184 195.531 108.184C196.363 108.184 197.091 108.4 197.715 108.832C198.339 109.248 198.763 109.816 198.987 110.536H199.107V103.24H202.179V121H199.107V118.912ZM196.515 118.744C197.251 118.744 197.867 118.568 198.363 118.216C198.859 117.864 199.107 117.36 199.107 116.704V112.72C199.107 112.112 198.859 111.624 198.363 111.256C197.867 110.888 197.251 110.704 196.515 110.704C195.715 110.704 195.067 110.976 194.571 111.52C194.091 112.048 193.851 112.76 193.851 113.656V115.816C193.851 116.712 194.091 117.424 194.571 117.952C195.067 118.48 195.715 118.744 196.515 118.744ZM210.689 121.288C209.793 121.288 208.985 121.136 208.265 120.832C207.561 120.528 206.953 120.088 206.441 119.512C205.945 118.936 205.561 118.248 205.289 117.448C205.017 116.632 204.881 115.72 204.881 114.712C204.881 113.704 205.017 112.8 205.289 112C205.561 111.2 205.945 110.52 206.441 109.96C206.953 109.384 207.561 108.944 208.265 108.64C208.985 108.336 209.793 108.184 210.689 108.184C211.585 108.184 212.393 108.336 213.113 108.64C213.833 108.944 214.441 109.384 214.937 109.96C215.449 110.52 215.841 111.2 216.113 112C216.385 112.8 216.521 113.704 216.521 114.712C216.521 115.72 216.385 116.632 216.113 117.448C215.841 118.248 215.449 118.936 214.937 119.512C214.441 120.088 213.833 120.528 213.113 120.832C212.393 121.136 211.585 121.288 210.689 121.288ZM210.689 118.816C211.505 118.816 212.145 118.568 212.609 118.072C213.073 117.576 213.305 116.848 213.305 115.888V113.56C213.305 112.616 213.073 111.896 212.609 111.4C212.145 110.904 211.505 110.656 210.689 110.656C209.889 110.656 209.257 110.904 208.793 111.4C208.329 111.896 208.097 112.616 208.097 113.56V115.888C208.097 116.848 208.329 117.576 208.793 118.072C209.257 118.568 209.889 118.816 210.689 118.816ZM222.317 121C221.261 121 220.485 120.736 219.989 120.208C219.493 119.68 219.245 118.936 219.245 117.976V103.24H222.317V118.552H223.973V121H222.317ZM231.267 121.288C230.371 121.288 229.563 121.136 228.843 120.832C228.139 120.528 227.531 120.088 227.019 119.512C226.523 118.936 226.139 118.248 225.867 117.448C225.595 116.632 225.459 115.72 225.459 114.712C225.459 113.704 225.595 112.8 225.867 112C226.139 111.2 226.523 110.52 227.019 109.96C227.531 109.384 228.139 108.944 228.843 108.64C229.563 108.336 230.371 108.184 231.267 108.184C232.163 108.184 232.971 108.336 233.691 108.64C234.411 108.944 235.019 109.384 235.515 109.96C236.027 110.52 236.419 111.2 236.691 112C236.963 112.8 237.099 113.704 237.099 114.712C237.099 115.72 236.963 116.632 236.691 117.448C236.419 118.248 236.027 118.936 235.515 119.512C235.019 120.088 234.411 120.528 233.691 120.832C232.971 121.136 232.163 121.288 231.267 121.288ZM231.267 118.816C232.083 118.816 232.723 118.568 233.187 118.072C233.651 117.576 233.883 116.848 233.883 115.888V113.56C233.883 112.616 233.651 111.896 233.187 111.4C232.723 110.904 232.083 110.656 231.267 110.656C230.467 110.656 229.835 110.904 229.371 111.4C228.907 111.896 228.675 112.616 228.675 113.56V115.888C228.675 116.848 228.907 117.576 229.371 118.072C229.835 118.568 230.467 118.816 231.267 118.816ZM239.823 121V108.472H242.895V111.064H243.015C243.095 110.728 243.215 110.408 243.375 110.104C243.551 109.784 243.775 109.504 244.047 109.264C244.319 109.024 244.639 108.832 245.007 108.688C245.391 108.544 245.831 108.472 246.327 108.472H246.999V111.376H246.039C244.999 111.376 244.215 111.528 243.687 111.832C243.159 112.136 242.895 112.632 242.895 113.32V121H239.823ZM259.021 121.288C257.821 121.288 256.813 121.088 255.997 120.688C255.181 120.272 254.461 119.704 253.837 118.984L255.709 117.16C256.173 117.688 256.677 118.104 257.221 118.408C257.781 118.712 258.421 118.864 259.141 118.864C259.877 118.864 260.405 118.736 260.725 118.48C261.061 118.224 261.229 117.872 261.229 117.424C261.229 117.056 261.109 116.768 260.869 116.56C260.645 116.336 260.253 116.184 259.693 116.104L258.445 115.936C257.085 115.76 256.045 115.376 255.325 114.784C254.621 114.176 254.269 113.296 254.269 112.144C254.269 111.536 254.381 110.992 254.605 110.512C254.829 110.016 255.149 109.6 255.565 109.264C255.981 108.912 256.477 108.648 257.053 108.472C257.645 108.28 258.301 108.184 259.021 108.184C259.629 108.184 260.165 108.232 260.629 108.328C261.109 108.408 261.541 108.536 261.925 108.712C262.309 108.872 262.661 109.08 262.981 109.336C263.301 109.576 263.613 109.848 263.917 110.152L262.117 111.952C261.749 111.568 261.309 111.248 260.797 110.992C260.285 110.736 259.725 110.608 259.117 110.608C258.445 110.608 257.957 110.728 257.653 110.968C257.365 111.208 257.221 111.52 257.221 111.904C257.221 112.32 257.341 112.64 257.581 112.864C257.837 113.072 258.261 113.224 258.853 113.32L260.125 113.488C262.829 113.872 264.181 115.104 264.181 117.184C264.181 117.792 264.053 118.352 263.797 118.864C263.557 119.36 263.213 119.792 262.765 120.16C262.317 120.512 261.773 120.792 261.133 121C260.509 121.192 259.805 121.288 259.021 121.288ZM268.429 106.648C267.789 106.648 267.325 106.504 267.037 106.216C266.765 105.928 266.629 105.56 266.629 105.112V104.632C266.629 104.184 266.765 103.816 267.037 103.528C267.325 103.24 267.789 103.096 268.429 103.096C269.053 103.096 269.509 103.24 269.797 103.528C270.085 103.816 270.229 104.184 270.229 104.632V105.112C270.229 105.56 270.085 105.928 269.797 106.216C269.509 106.504 269.053 106.648 268.429 106.648ZM266.893 108.472H269.965V121H266.893V108.472ZM277.438 121C276.382 121 275.574 120.728 275.014 120.184C274.47 119.624 274.198 118.832 274.198 117.808V110.92H272.35V108.472H273.31C273.774 108.472 274.086 108.368 274.246 108.16C274.422 107.936 274.51 107.608 274.51 107.176V105.04H277.27V108.472H279.838V110.92H277.27V118.552H279.646V121H277.438Z" fill="#1A1A1A"/>
<rect x="16.5" y="80.5" width="385" height="166" stroke="#707070"/>
</g>
<g filter="url(#filter1_d_5010_49590)">
<rect x="16" y="263" width="386" height="262" fill="white"/>
<path d="M41.968 304V287.248H45.136V301.192H51.736V304H41.968ZM59.0253 304.288C58.1293 304.288 57.3213 304.136 56.6013 303.832C55.8973 303.528 55.2893 303.088 54.7773 302.512C54.2813 301.936 53.8973 301.248 53.6253 300.448C53.3533 299.632 53.2173 298.72 53.2173 297.712C53.2173 296.704 53.3533 295.8 53.6253 295C53.8973 294.2 54.2813 293.52 54.7773 292.96C55.2893 292.384 55.8973 291.944 56.6013 291.64C57.3213 291.336 58.1293 291.184 59.0253 291.184C59.9213 291.184 60.7293 291.336 61.4493 291.64C62.1693 291.944 62.7773 292.384 63.2733 292.96C63.7853 293.52 64.1773 294.2 64.4493 295C64.7213 295.8 64.8573 296.704 64.8573 297.712C64.8573 298.72 64.7213 299.632 64.4493 300.448C64.1773 301.248 63.7853 301.936 63.2733 302.512C62.7773 303.088 62.1693 303.528 61.4493 303.832C60.7293 304.136 59.9213 304.288 59.0253 304.288ZM59.0253 301.816C59.8413 301.816 60.4813 301.568 60.9453 301.072C61.4093 300.576 61.6413 299.848 61.6413 298.888V296.56C61.6413 295.616 61.4093 294.896 60.9453 294.4C60.4813 293.904 59.8413 293.656 59.0253 293.656C58.2253 293.656 57.5933 293.904 57.1293 294.4C56.6653 294.896 56.4333 295.616 56.4333 296.56V298.888C56.4333 299.848 56.6653 300.576 57.1293 301.072C57.5933 301.568 58.2253 301.816 59.0253 301.816ZM67.5807 304V291.472H70.6527V294.064H70.7727C70.8527 293.728 70.9727 293.408 71.1327 293.104C71.3087 292.784 71.5327 292.504 71.8047 292.264C72.0767 292.024 72.3967 291.832 72.7647 291.688C73.1487 291.544 73.5887 291.472 74.0847 291.472H74.7567V294.376H73.7967C72.7567 294.376 71.9727 294.528 71.4447 294.832C70.9167 295.136 70.6527 295.632 70.6527 296.32V304H67.5807ZM81.9494 304.288C81.0214 304.288 80.1894 304.136 79.4534 303.832C78.7334 303.512 78.1174 303.072 77.6054 302.512C77.1094 301.936 76.7254 301.248 76.4534 300.448C76.1814 299.632 76.0454 298.72 76.0454 297.712C76.0454 296.72 76.1734 295.824 76.4294 295.024C76.7014 294.224 77.0854 293.544 77.5814 292.984C78.0774 292.408 78.6854 291.968 79.4054 291.664C80.1254 291.344 80.9414 291.184 81.8534 291.184C82.8294 291.184 83.6774 291.352 84.3974 291.688C85.1174 292.024 85.7094 292.48 86.1734 293.056C86.6374 293.632 86.9814 294.304 87.2054 295.072C87.4454 295.824 87.5654 296.632 87.5654 297.496V298.504H79.2374V298.816C79.2374 299.728 79.4934 300.464 80.0054 301.024C80.5174 301.568 81.2774 301.84 82.2854 301.84C83.0534 301.84 83.6774 301.68 84.1574 301.36C84.6534 301.04 85.0934 300.632 85.4774 300.136L87.1334 301.984C86.6214 302.704 85.9174 303.272 85.0214 303.688C84.1414 304.088 83.1174 304.288 81.9494 304.288ZM81.9014 293.488C81.0854 293.488 80.4374 293.76 79.9574 294.304C79.4774 294.848 79.2374 295.552 79.2374 296.416V296.608H84.3734V296.392C84.3734 295.528 84.1574 294.832 83.7254 294.304C83.3094 293.76 82.7014 293.488 81.9014 293.488ZM90.2682 304V291.472H93.3402V293.56H93.4602C93.7002 292.904 94.0842 292.344 94.6122 291.88C95.1402 291.416 95.8762 291.184 96.8202 291.184C97.6842 291.184 98.4282 291.392 99.0522 291.808C99.6762 292.224 100.14 292.856 100.444 293.704H100.492C100.716 293 101.156 292.408 101.812 291.928C102.484 291.432 103.324 291.184 104.332 291.184C105.564 291.184 106.508 291.608 107.164 292.456C107.836 293.304 108.172 294.512 108.172 296.08V304H105.1V296.392C105.1 294.6 104.428 293.704 103.084 293.704C102.78 293.704 102.484 293.752 102.196 293.848C101.924 293.928 101.676 294.056 101.452 294.232C101.244 294.392 101.076 294.6 100.948 294.856C100.82 295.096 100.756 295.384 100.756 295.72V304H97.6842V296.392C97.6842 294.6 97.0122 293.704 95.6682 293.704C95.3802 293.704 95.0922 293.752 94.8042 293.848C94.5322 293.928 94.2842 294.056 94.0602 294.232C93.8522 294.392 93.6762 294.6 93.5322 294.856C93.4042 295.096 93.3402 295.384 93.3402 295.72V304H90.2682ZM118.781 289.648C118.141 289.648 117.677 289.504 117.389 289.216C117.117 288.928 116.981 288.56 116.981 288.112V287.632C116.981 287.184 117.117 286.816 117.389 286.528C117.677 286.24 118.141 286.096 118.781 286.096C119.405 286.096 119.861 286.24 120.149 286.528C120.437 286.816 120.581 287.184 120.581 287.632V288.112C120.581 288.56 120.437 288.928 120.149 289.216C119.861 289.504 119.405 289.648 118.781 289.648ZM117.245 291.472H120.317V304H117.245V291.472ZM123.878 291.472H126.95V293.536H127.046C127.27 292.816 127.694 292.248 128.318 291.832C128.942 291.4 129.67 291.184 130.502 291.184C132.102 291.184 133.318 291.752 134.15 292.888C134.998 294.008 135.422 295.616 135.422 297.712C135.422 299.824 134.998 301.448 134.15 302.584C133.318 303.72 132.102 304.288 130.502 304.288C129.67 304.288 128.942 304.072 128.318 303.64C127.71 303.208 127.286 302.632 127.046 301.912H126.95V308.8H123.878V291.472ZM129.518 301.744C130.318 301.744 130.966 301.48 131.462 300.952C131.958 300.424 132.206 299.712 132.206 298.816V296.656C132.206 295.76 131.958 295.048 131.462 294.52C130.966 293.976 130.318 293.704 129.518 293.704C128.782 293.704 128.166 293.888 127.67 294.256C127.19 294.624 126.95 295.112 126.95 295.72V299.704C126.95 300.36 127.19 300.864 127.67 301.216C128.166 301.568 128.782 301.744 129.518 301.744ZM142.372 304.288C141.172 304.288 140.164 304.088 139.348 303.688C138.532 303.272 137.812 302.704 137.188 301.984L139.06 300.16C139.524 300.688 140.028 301.104 140.572 301.408C141.132 301.712 141.772 301.864 142.492 301.864C143.228 301.864 143.756 301.736 144.076 301.48C144.412 301.224 144.58 300.872 144.58 300.424C144.58 300.056 144.46 299.768 144.22 299.56C143.996 299.336 143.604 299.184 143.044 299.104L141.796 298.936C140.436 298.76 139.396 298.376 138.676 297.784C137.972 297.176 137.62 296.296 137.62 295.144C137.62 294.536 137.732 293.992 137.956 293.512C138.18 293.016 138.5 292.6 138.916 292.264C139.332 291.912 139.828 291.648 140.404 291.472C140.996 291.28 141.652 291.184 142.372 291.184C142.98 291.184 143.516 291.232 143.98 291.328C144.46 291.408 144.892 291.536 145.276 291.712C145.66 291.872 146.012 292.08 146.332 292.336C146.652 292.576 146.964 292.848 147.268 293.152L145.468 294.952C145.1 294.568 144.66 294.248 144.148 293.992C143.636 293.736 143.076 293.608 142.468 293.608C141.796 293.608 141.308 293.728 141.004 293.968C140.716 294.208 140.572 294.52 140.572 294.904C140.572 295.32 140.692 295.64 140.932 295.864C141.188 296.072 141.612 296.224 142.204 296.32L143.476 296.488C146.18 296.872 147.532 298.104 147.532 300.184C147.532 300.792 147.404 301.352 147.148 301.864C146.908 302.36 146.564 302.792 146.116 303.16C145.668 303.512 145.124 303.792 144.484 304C143.86 304.192 143.156 304.288 142.372 304.288ZM157.733 301.912H157.613C157.501 302.232 157.349 302.536 157.157 302.824C156.981 303.096 156.749 303.344 156.461 303.568C156.189 303.792 155.853 303.968 155.453 304.096C155.069 304.224 154.621 304.288 154.109 304.288C152.813 304.288 151.821 303.864 151.133 303.016C150.445 302.168 150.101 300.96 150.101 299.392V291.472H153.173V299.08C153.173 299.944 153.341 300.608 153.677 301.072C154.013 301.52 154.549 301.744 155.285 301.744C155.589 301.744 155.885 301.704 156.173 301.624C156.477 301.544 156.741 301.424 156.965 301.264C157.189 301.088 157.373 300.88 157.517 300.64C157.661 300.384 157.733 300.088 157.733 299.752V291.472H160.805V304H157.733V301.912ZM164.354 304V291.472H167.426V293.56H167.546C167.786 292.904 168.17 292.344 168.698 291.88C169.226 291.416 169.962 291.184 170.906 291.184C171.77 291.184 172.514 291.392 173.138 291.808C173.762 292.224 174.226 292.856 174.53 293.704H174.578C174.802 293 175.242 292.408 175.898 291.928C176.57 291.432 177.41 291.184 178.418 291.184C179.65 291.184 180.594 291.608 181.25 292.456C181.922 293.304 182.258 294.512 182.258 296.08V304H179.186V296.392C179.186 294.6 178.514 293.704 177.17 293.704C176.866 293.704 176.57 293.752 176.282 293.848C176.01 293.928 175.762 294.056 175.538 294.232C175.33 294.392 175.162 294.6 175.034 294.856C174.906 295.096 174.842 295.384 174.842 295.72V304H171.77V296.392C171.77 294.6 171.098 293.704 169.754 293.704C169.466 293.704 169.178 293.752 168.89 293.848C168.618 293.928 168.37 294.056 168.146 294.232C167.938 294.392 167.762 294.6 167.618 294.856C167.49 295.096 167.426 295.384 167.426 295.72V304H164.354ZM199.107 301.912H198.987C198.763 302.632 198.339 303.208 197.715 303.64C197.091 304.072 196.363 304.288 195.531 304.288C193.947 304.288 192.731 303.72 191.883 302.584C191.051 301.448 190.635 299.824 190.635 297.712C190.635 295.616 191.051 294.008 191.883 292.888C192.731 291.752 193.947 291.184 195.531 291.184C196.363 291.184 197.091 291.4 197.715 291.832C198.339 292.248 198.763 292.816 198.987 293.536H199.107V286.24H202.179V304H199.107V301.912ZM196.515 301.744C197.251 301.744 197.867 301.568 198.363 301.216C198.859 300.864 199.107 300.36 199.107 299.704V295.72C199.107 295.112 198.859 294.624 198.363 294.256C197.867 293.888 197.251 293.704 196.515 293.704C195.715 293.704 195.067 293.976 194.571 294.52C194.091 295.048 193.851 295.76 193.851 296.656V298.816C193.851 299.712 194.091 300.424 194.571 300.952C195.067 301.48 195.715 301.744 196.515 301.744ZM210.689 304.288C209.793 304.288 208.985 304.136 208.265 303.832C207.561 303.528 206.953 303.088 206.441 302.512C205.945 301.936 205.561 301.248 205.289 300.448C205.017 299.632 204.881 298.72 204.881 297.712C204.881 296.704 205.017 295.8 205.289 295C205.561 294.2 205.945 293.52 206.441 292.96C206.953 292.384 207.561 291.944 208.265 291.64C208.985 291.336 209.793 291.184 210.689 291.184C211.585 291.184 212.393 291.336 213.113 291.64C213.833 291.944 214.441 292.384 214.937 292.96C215.449 293.52 215.841 294.2 216.113 295C216.385 295.8 216.521 296.704 216.521 297.712C216.521 298.72 216.385 299.632 216.113 300.448C215.841 301.248 215.449 301.936 214.937 302.512C214.441 303.088 213.833 303.528 213.113 303.832C212.393 304.136 211.585 304.288 210.689 304.288ZM210.689 301.816C211.505 301.816 212.145 301.568 212.609 301.072C213.073 300.576 213.305 299.848 213.305 298.888V296.56C213.305 295.616 213.073 294.896 212.609 294.4C212.145 293.904 211.505 293.656 210.689 293.656C209.889 293.656 209.257 293.904 208.793 294.4C208.329 294.896 208.097 295.616 208.097 296.56V298.888C208.097 299.848 208.329 300.576 208.793 301.072C209.257 301.568 209.889 301.816 210.689 301.816ZM222.317 304C221.261 304 220.485 303.736 219.989 303.208C219.493 302.68 219.245 301.936 219.245 300.976V286.24H222.317V301.552H223.973V304H222.317ZM231.267 304.288C230.371 304.288 229.563 304.136 228.843 303.832C228.139 303.528 227.531 303.088 227.019 302.512C226.523 301.936 226.139 301.248 225.867 300.448C225.595 299.632 225.459 298.72 225.459 297.712C225.459 296.704 225.595 295.8 225.867 295C226.139 294.2 226.523 293.52 227.019 292.96C227.531 292.384 228.139 291.944 228.843 291.64C229.563 291.336 230.371 291.184 231.267 291.184C232.163 291.184 232.971 291.336 233.691 291.64C234.411 291.944 235.019 292.384 235.515 292.96C236.027 293.52 236.419 294.2 236.691 295C236.963 295.8 237.099 296.704 237.099 297.712C237.099 298.72 236.963 299.632 236.691 300.448C236.419 301.248 236.027 301.936 235.515 302.512C235.019 303.088 234.411 303.528 233.691 303.832C232.971 304.136 232.163 304.288 231.267 304.288ZM231.267 301.816C232.083 301.816 232.723 301.568 233.187 301.072C233.651 300.576 233.883 299.848 233.883 298.888V296.56C233.883 295.616 233.651 294.896 233.187 294.4C232.723 293.904 232.083 293.656 231.267 293.656C230.467 293.656 229.835 293.904 229.371 294.4C228.907 294.896 228.675 295.616 228.675 296.56V298.888C228.675 299.848 228.907 300.576 229.371 301.072C229.835 301.568 230.467 301.816 231.267 301.816ZM239.823 304V291.472H242.895V294.064H243.015C243.095 293.728 243.215 293.408 243.375 293.104C243.551 292.784 243.775 292.504 244.047 292.264C244.319 292.024 244.639 291.832 245.007 291.688C245.391 291.544 245.831 291.472 246.327 291.472H246.999V294.376H246.039C244.999 294.376 244.215 294.528 243.687 294.832C243.159 295.136 242.895 295.632 242.895 296.32V304H239.823ZM259.021 304.288C257.821 304.288 256.813 304.088 255.997 303.688C255.181 303.272 254.461 302.704 253.837 301.984L255.709 300.16C256.173 300.688 256.677 301.104 257.221 301.408C257.781 301.712 258.421 301.864 259.141 301.864C259.877 301.864 260.405 301.736 260.725 301.48C261.061 301.224 261.229 300.872 261.229 300.424C261.229 300.056 261.109 299.768 260.869 299.56C260.645 299.336 260.253 299.184 259.693 299.104L258.445 298.936C257.085 298.76 256.045 298.376 255.325 297.784C254.621 297.176 254.269 296.296 254.269 295.144C254.269 294.536 254.381 293.992 254.605 293.512C254.829 293.016 255.149 292.6 255.565 292.264C255.981 291.912 256.477 291.648 257.053 291.472C257.645 291.28 258.301 291.184 259.021 291.184C259.629 291.184 260.165 291.232 260.629 291.328C261.109 291.408 261.541 291.536 261.925 291.712C262.309 291.872 262.661 292.08 262.981 292.336C263.301 292.576 263.613 292.848 263.917 293.152L262.117 294.952C261.749 294.568 261.309 294.248 260.797 293.992C260.285 293.736 259.725 293.608 259.117 293.608C258.445 293.608 257.957 293.728 257.653 293.968C257.365 294.208 257.221 294.52 257.221 294.904C257.221 295.32 257.341 295.64 257.581 295.864C257.837 296.072 258.261 296.224 258.853 296.32L260.125 296.488C262.829 296.872 264.181 298.104 264.181 300.184C264.181 300.792 264.053 301.352 263.797 301.864C263.557 302.36 263.213 302.792 262.765 303.16C262.317 303.512 261.773 303.792 261.133 304C260.509 304.192 259.805 304.288 259.021 304.288ZM268.429 289.648C267.789 289.648 267.325 289.504 267.037 289.216C266.765 288.928 266.629 288.56 266.629 288.112V287.632C266.629 287.184 266.765 286.816 267.037 286.528C267.325 286.24 267.789 286.096 268.429 286.096C269.053 286.096 269.509 286.24 269.797 286.528C270.085 286.816 270.229 287.184 270.229 287.632V288.112C270.229 288.56 270.085 288.928 269.797 289.216C269.509 289.504 269.053 289.648 268.429 289.648ZM266.893 291.472H269.965V304H266.893V291.472ZM277.438 304C276.382 304 275.574 303.728 275.014 303.184C274.47 302.624 274.198 301.832 274.198 300.808V293.92H272.35V291.472H273.31C273.774 291.472 274.086 291.368 274.246 291.16C274.422 290.936 274.51 290.608 274.51 290.176V288.04H277.27V291.472H279.838V293.92H277.27V301.552H279.646V304H277.438Z" fill="#1A1A1A"/>
<rect x="16.5" y="263.5" width="385" height="261" stroke="#707070"/>
</g>
<rect x="40.5" y="183.5" width="239" height="39" rx="3.5" stroke="#707070"/>
<path d="M48.224 170L47.328 167.152H43.36L42.48 170H40.336L44.08 158.832H46.704L50.416 170H48.224ZM45.376 160.752H45.296L43.872 165.344H46.816L45.376 160.752ZM51.934 170V161.648H53.982V163.04H54.062C54.222 162.603 54.478 162.229 54.83 161.92C55.182 161.611 55.6727 161.456 56.302 161.456C56.878 161.456 57.374 161.595 57.79 161.872C58.206 162.149 58.5153 162.571 58.718 163.136H58.75C58.8993 162.667 59.1927 162.272 59.63 161.952C60.078 161.621 60.638 161.456 61.31 161.456C62.1313 161.456 62.7607 161.739 63.198 162.304C63.646 162.869 63.87 163.675 63.87 164.72V170H61.822V164.928C61.822 163.733 61.374 163.136 60.478 163.136C60.2753 163.136 60.078 163.168 59.886 163.232C59.7047 163.285 59.5393 163.371 59.39 163.488C59.2513 163.595 59.1393 163.733 59.054 163.904C58.9687 164.064 58.926 164.256 58.926 164.48V170H56.878V164.928C56.878 163.733 56.43 163.136 55.534 163.136C55.342 163.136 55.15 163.168 54.958 163.232C54.7767 163.285 54.6113 163.371 54.462 163.488C54.3233 163.595 54.206 163.733 54.11 163.904C54.0247 164.064 53.982 164.256 53.982 164.48V170H51.934ZM69.5131 170.192C68.8945 170.192 68.3398 170.091 67.8491 169.888C67.3691 169.675 66.9585 169.381 66.6171 169.008C66.2865 168.624 66.0305 168.165 65.8491 167.632C65.6678 167.088 65.5771 166.48 65.5771 165.808C65.5771 165.147 65.6625 164.549 65.8331 164.016C66.0145 163.483 66.2705 163.029 66.6011 162.656C66.9318 162.272 67.3371 161.979 67.8171 161.776C68.2971 161.563 68.8411 161.456 69.4491 161.456C70.0998 161.456 70.6651 161.568 71.1451 161.792C71.6251 162.016 72.0198 162.32 72.3291 162.704C72.6385 163.088 72.8678 163.536 73.0171 164.048C73.1771 164.549 73.2571 165.088 73.2571 165.664V166.336H67.7051V166.544C67.7051 167.152 67.8758 167.643 68.2171 168.016C68.5585 168.379 69.0651 168.56 69.7371 168.56C70.2491 168.56 70.6651 168.453 70.9851 168.24C71.3158 168.027 71.6091 167.755 71.8651 167.424L72.9691 168.656C72.6278 169.136 72.1585 169.515 71.5611 169.792C70.9745 170.059 70.2918 170.192 69.5131 170.192ZM69.4811 162.992C68.9371 162.992 68.5051 163.173 68.1851 163.536C67.8651 163.899 67.7051 164.368 67.7051 164.944V165.072H71.1291V164.928C71.1291 164.352 70.9851 163.888 70.6971 163.536C70.4198 163.173 70.0145 162.992 69.4811 162.992ZM77.667 170C76.963 170 76.4243 169.819 76.051 169.456C75.6883 169.083 75.507 168.555 75.507 167.872V163.28H74.275V161.648H74.915C75.2243 161.648 75.4323 161.579 75.539 161.44C75.6563 161.291 75.715 161.072 75.715 160.784V159.36H77.555V161.648H79.267V163.28H77.555V168.368H79.139V170H77.667ZM88.1206 170.192C87.502 170.192 86.9526 170.091 86.4726 169.888C85.9926 169.685 85.5873 169.392 85.2566 169.008C84.9366 168.624 84.6913 168.165 84.5206 167.632C84.35 167.088 84.2646 166.48 84.2646 165.808C84.2646 165.136 84.35 164.533 84.5206 164C84.6913 163.467 84.9366 163.013 85.2566 162.64C85.5873 162.256 85.9926 161.963 86.4726 161.76C86.9526 161.557 87.502 161.456 88.1206 161.456C88.9633 161.456 89.6566 161.643 90.2006 162.016C90.7553 162.389 91.1553 162.907 91.4006 163.568L89.7206 164.32C89.6246 163.968 89.4433 163.68 89.1766 163.456C88.9206 163.221 88.5686 163.104 88.1206 163.104C87.5446 163.104 87.1126 163.285 86.8246 163.648C86.5473 164.011 86.4086 164.485 86.4086 165.072V166.592C86.4086 167.179 86.5473 167.653 86.8246 168.016C87.1126 168.368 87.5446 168.544 88.1206 168.544C88.6113 168.544 88.99 168.421 89.2566 168.176C89.5233 167.92 89.7313 167.605 89.8806 167.232L91.4486 167.984C91.1713 168.72 90.75 169.275 90.1846 169.648C89.6193 170.011 88.9313 170.192 88.1206 170.192ZM96.2616 170.192C95.6643 170.192 95.1256 170.091 94.6456 169.888C94.1763 169.685 93.771 169.392 93.4296 169.008C93.099 168.624 92.843 168.165 92.6616 167.632C92.4803 167.088 92.3896 166.48 92.3896 165.808C92.3896 165.136 92.4803 164.533 92.6616 164C92.843 163.467 93.099 163.013 93.4296 162.64C93.771 162.256 94.1763 161.963 94.6456 161.76C95.1256 161.557 95.6643 161.456 96.2616 161.456C96.859 161.456 97.3976 161.557 97.8776 161.76C98.3576 161.963 98.763 162.256 99.0936 162.64C99.435 163.013 99.6963 163.467 99.8776 164C100.059 164.533 100.15 165.136 100.15 165.808C100.15 166.48 100.059 167.088 99.8776 167.632C99.6963 168.165 99.435 168.624 99.0936 169.008C98.763 169.392 98.3576 169.685 97.8776 169.888C97.3976 170.091 96.859 170.192 96.2616 170.192ZM96.2616 168.544C96.8056 168.544 97.2323 168.379 97.5416 168.048C97.851 167.717 98.0056 167.232 98.0056 166.592V165.04C98.0056 164.411 97.851 163.931 97.5416 163.6C97.2323 163.269 96.8056 163.104 96.2616 163.104C95.7283 163.104 95.307 163.269 94.9976 163.6C94.6883 163.931 94.5336 164.411 94.5336 165.04V166.592C94.5336 167.232 94.6883 167.717 94.9976 168.048C95.307 168.379 95.7283 168.544 96.2616 168.544ZM101.965 170V161.648H104.013V163.04H104.093C104.264 162.592 104.531 162.219 104.893 161.92C105.267 161.611 105.779 161.456 106.429 161.456C107.293 161.456 107.955 161.739 108.413 162.304C108.872 162.869 109.101 163.675 109.101 164.72V170H107.053V164.928C107.053 164.331 106.947 163.883 106.733 163.584C106.52 163.285 106.168 163.136 105.677 163.136C105.464 163.136 105.256 163.168 105.053 163.232C104.861 163.285 104.685 163.371 104.525 163.488C104.376 163.595 104.253 163.733 104.157 163.904C104.061 164.064 104.013 164.256 104.013 164.48V170H101.965ZM114.108 170.192C113.308 170.192 112.636 170.059 112.092 169.792C111.548 169.515 111.068 169.136 110.652 168.656L111.9 167.44C112.209 167.792 112.545 168.069 112.908 168.272C113.281 168.475 113.708 168.576 114.188 168.576C114.678 168.576 115.03 168.491 115.244 168.32C115.468 168.149 115.58 167.915 115.58 167.616C115.58 167.371 115.5 167.179 115.34 167.04C115.19 166.891 114.929 166.789 114.556 166.736L113.724 166.624C112.817 166.507 112.124 166.251 111.644 165.856C111.174 165.451 110.94 164.864 110.94 164.096C110.94 163.691 111.014 163.328 111.164 163.008C111.313 162.677 111.526 162.4 111.804 162.176C112.081 161.941 112.412 161.765 112.796 161.648C113.19 161.52 113.628 161.456 114.108 161.456C114.513 161.456 114.87 161.488 115.18 161.552C115.5 161.605 115.788 161.691 116.044 161.808C116.3 161.915 116.534 162.053 116.748 162.224C116.961 162.384 117.169 162.565 117.372 162.768L116.172 163.968C115.926 163.712 115.633 163.499 115.292 163.328C114.95 163.157 114.577 163.072 114.172 163.072C113.724 163.072 113.398 163.152 113.196 163.312C113.004 163.472 112.908 163.68 112.908 163.936C112.908 164.213 112.988 164.427 113.148 164.576C113.318 164.715 113.601 164.816 113.996 164.88L114.844 164.992C116.646 165.248 117.548 166.069 117.548 167.456C117.548 167.861 117.462 168.235 117.292 168.576C117.132 168.907 116.902 169.195 116.604 169.44C116.305 169.675 115.942 169.861 115.516 170C115.1 170.128 114.63 170.192 114.108 170.192ZM122.732 170.192C122.113 170.192 121.559 170.091 121.068 169.888C120.588 169.675 120.177 169.381 119.836 169.008C119.505 168.624 119.249 168.165 119.068 167.632C118.887 167.088 118.796 166.48 118.796 165.808C118.796 165.147 118.881 164.549 119.052 164.016C119.233 163.483 119.489 163.029 119.82 162.656C120.151 162.272 120.556 161.979 121.036 161.776C121.516 161.563 122.06 161.456 122.668 161.456C123.319 161.456 123.884 161.568 124.364 161.792C124.844 162.016 125.239 162.32 125.548 162.704C125.857 163.088 126.087 163.536 126.236 164.048C126.396 164.549 126.476 165.088 126.476 165.664V166.336H120.924V166.544C120.924 167.152 121.095 167.643 121.436 168.016C121.777 168.379 122.284 168.56 122.956 168.56C123.468 168.56 123.884 168.453 124.204 168.24C124.535 168.027 124.828 167.755 125.084 167.424L126.188 168.656C125.847 169.136 125.377 169.515 124.78 169.792C124.193 170.059 123.511 170.192 122.732 170.192ZM122.7 162.992C122.156 162.992 121.724 163.173 121.404 163.536C121.084 163.899 120.924 164.368 120.924 164.944V165.072H124.348V164.928C124.348 164.352 124.204 163.888 123.916 163.536C123.639 163.173 123.233 162.992 122.7 162.992ZM131.574 170.192C130.955 170.192 130.406 170.091 129.926 169.888C129.446 169.685 129.04 169.392 128.71 169.008C128.39 168.624 128.144 168.165 127.974 167.632C127.803 167.088 127.718 166.48 127.718 165.808C127.718 165.136 127.803 164.533 127.974 164C128.144 163.467 128.39 163.013 128.71 162.64C129.04 162.256 129.446 161.963 129.926 161.76C130.406 161.557 130.955 161.456 131.574 161.456C132.416 161.456 133.11 161.643 133.654 162.016C134.208 162.389 134.608 162.907 134.854 163.568L133.174 164.32C133.078 163.968 132.896 163.68 132.63 163.456C132.374 163.221 132.022 163.104 131.574 163.104C130.998 163.104 130.566 163.285 130.278 163.648C130 164.011 129.862 164.485 129.862 165.072V166.592C129.862 167.179 130 167.653 130.278 168.016C130.566 168.368 130.998 168.544 131.574 168.544C132.064 168.544 132.443 168.421 132.71 168.176C132.976 167.92 133.184 167.605 133.334 167.232L134.902 167.984C134.624 168.72 134.203 169.275 133.638 169.648C133.072 170.011 132.384 170.192 131.574 170.192ZM139.089 170C138.385 170 137.846 169.819 137.473 169.456C137.11 169.083 136.929 168.555 136.929 167.872V163.28H135.697V161.648H136.337C136.646 161.648 136.854 161.579 136.961 161.44C137.078 161.291 137.137 161.072 137.137 160.784V159.36H138.977V161.648H140.689V163.28H138.977V168.368H140.561V170H139.089ZM145.779 170.192C145.16 170.192 144.605 170.091 144.115 169.888C143.635 169.675 143.224 169.381 142.883 169.008C142.552 168.624 142.296 168.165 142.115 167.632C141.933 167.088 141.843 166.48 141.843 165.808C141.843 165.147 141.928 164.549 142.099 164.016C142.28 163.483 142.536 163.029 142.867 162.656C143.197 162.272 143.603 161.979 144.083 161.776C144.563 161.563 145.107 161.456 145.715 161.456C146.365 161.456 146.931 161.568 147.411 161.792C147.891 162.016 148.285 162.32 148.595 162.704C148.904 163.088 149.133 163.536 149.283 164.048C149.443 164.549 149.523 165.088 149.523 165.664V166.336H143.971V166.544C143.971 167.152 144.141 167.643 144.483 168.016C144.824 168.379 145.331 168.56 146.003 168.56C146.515 168.56 146.931 168.453 147.251 168.24C147.581 168.027 147.875 167.755 148.131 167.424L149.235 168.656C148.893 169.136 148.424 169.515 147.827 169.792C147.24 170.059 146.557 170.192 145.779 170.192ZM145.747 162.992C145.203 162.992 144.771 163.173 144.451 163.536C144.131 163.899 143.971 164.368 143.971 164.944V165.072H147.395V164.928C147.395 164.352 147.251 163.888 146.963 163.536C146.685 163.173 146.28 162.992 145.747 162.992ZM153.933 170C153.229 170 152.69 169.819 152.317 169.456C151.954 169.083 151.773 168.555 151.773 167.872V163.28H150.541V161.648H151.181C151.49 161.648 151.698 161.579 151.805 161.44C151.922 161.291 151.981 161.072 151.981 160.784V159.36H153.821V161.648H155.533V163.28H153.821V168.368H155.405V170H153.933ZM162.301 168.608H162.221C162.146 168.821 162.045 169.024 161.917 169.216C161.8 169.397 161.645 169.563 161.453 169.712C161.272 169.861 161.048 169.979 160.781 170.064C160.525 170.149 160.226 170.192 159.885 170.192C159.021 170.192 158.36 169.909 157.901 169.344C157.442 168.779 157.213 167.973 157.213 166.928V161.648H159.261V166.72C159.261 167.296 159.373 167.739 159.597 168.048C159.821 168.347 160.178 168.496 160.669 168.496C160.872 168.496 161.069 168.469 161.261 168.416C161.464 168.363 161.64 168.283 161.789 168.176C161.938 168.059 162.061 167.92 162.157 167.76C162.253 167.589 162.301 167.392 162.301 167.168V161.648H164.349V170H162.301V168.608ZM166.715 170V161.648H168.763V163.376H168.843C168.897 163.152 168.977 162.939 169.083 162.736C169.201 162.523 169.35 162.336 169.531 162.176C169.713 162.016 169.926 161.888 170.171 161.792C170.427 161.696 170.721 161.648 171.051 161.648H171.499V163.584H170.859C170.166 163.584 169.643 163.685 169.291 163.888C168.939 164.091 168.763 164.421 168.763 164.88V170H166.715Z" fill="#1A1A1A"/>
<rect x="40.5" y="366.5" width="239" height="39" rx="3.5" stroke="#707070"/>
<path d="M48.224 353L47.328 350.152H43.36L42.48 353H40.336L44.08 341.832H46.704L50.416 353H48.224ZM45.376 343.752H45.296L43.872 348.344H46.816L45.376 343.752ZM51.934 353V344.648H53.982V346.04H54.062C54.222 345.603 54.478 345.229 54.83 344.92C55.182 344.611 55.6727 344.456 56.302 344.456C56.878 344.456 57.374 344.595 57.79 344.872C58.206 345.149 58.5153 345.571 58.718 346.136H58.75C58.8993 345.667 59.1927 345.272 59.63 344.952C60.078 344.621 60.638 344.456 61.31 344.456C62.1313 344.456 62.7607 344.739 63.198 345.304C63.646 345.869 63.87 346.675 63.87 347.72V353H61.822V347.928C61.822 346.733 61.374 346.136 60.478 346.136C60.2753 346.136 60.078 346.168 59.886 346.232C59.7047 346.285 59.5393 346.371 59.39 346.488C59.2513 346.595 59.1393 346.733 59.054 346.904C58.9687 347.064 58.926 347.256 58.926 347.48V353H56.878V347.928C56.878 346.733 56.43 346.136 55.534 346.136C55.342 346.136 55.15 346.168 54.958 346.232C54.7767 346.285 54.6113 346.371 54.462 346.488C54.3233 346.595 54.206 346.733 54.11 346.904C54.0247 347.064 53.982 347.256 53.982 347.48V353H51.934ZM69.5131 353.192C68.8945 353.192 68.3398 353.091 67.8491 352.888C67.3691 352.675 66.9585 352.381 66.6171 352.008C66.2865 351.624 66.0305 351.165 65.8491 350.632C65.6678 350.088 65.5771 349.48 65.5771 348.808C65.5771 348.147 65.6625 347.549 65.8331 347.016C66.0145 346.483 66.2705 346.029 66.6011 345.656C66.9318 345.272 67.3371 344.979 67.8171 344.776C68.2971 344.563 68.8411 344.456 69.4491 344.456C70.0998 344.456 70.6651 344.568 71.1451 344.792C71.6251 345.016 72.0198 345.32 72.3291 345.704C72.6385 346.088 72.8678 346.536 73.0171 347.048C73.1771 347.549 73.2571 348.088 73.2571 348.664V349.336H67.7051V349.544C67.7051 350.152 67.8758 350.643 68.2171 351.016C68.5585 351.379 69.0651 351.56 69.7371 351.56C70.2491 351.56 70.6651 351.453 70.9851 351.24C71.3158 351.027 71.6091 350.755 71.8651 350.424L72.9691 351.656C72.6278 352.136 72.1585 352.515 71.5611 352.792C70.9745 353.059 70.2918 353.192 69.5131 353.192ZM69.4811 345.992C68.9371 345.992 68.5051 346.173 68.1851 346.536C67.8651 346.899 67.7051 347.368 67.7051 347.944V348.072H71.1291V347.928C71.1291 347.352 70.9851 346.888 70.6971 346.536C70.4198 346.173 70.0145 345.992 69.4811 345.992ZM77.667 353C76.963 353 76.4243 352.819 76.051 352.456C75.6883 352.083 75.507 351.555 75.507 350.872V346.28H74.275V344.648H74.915C75.2243 344.648 75.4323 344.579 75.539 344.44C75.6563 344.291 75.715 344.072 75.715 343.784V342.36H77.555V344.648H79.267V346.28H77.555V351.368H79.139V353H77.667ZM88.1206 353.192C87.502 353.192 86.9526 353.091 86.4726 352.888C85.9926 352.685 85.5873 352.392 85.2566 352.008C84.9366 351.624 84.6913 351.165 84.5206 350.632C84.35 350.088 84.2646 349.48 84.2646 348.808C84.2646 348.136 84.35 347.533 84.5206 347C84.6913 346.467 84.9366 346.013 85.2566 345.64C85.5873 345.256 85.9926 344.963 86.4726 344.76C86.9526 344.557 87.502 344.456 88.1206 344.456C88.9633 344.456 89.6566 344.643 90.2006 345.016C90.7553 345.389 91.1553 345.907 91.4006 346.568L89.7206 347.32C89.6246 346.968 89.4433 346.68 89.1766 346.456C88.9206 346.221 88.5686 346.104 88.1206 346.104C87.5446 346.104 87.1126 346.285 86.8246 346.648C86.5473 347.011 86.4086 347.485 86.4086 348.072V349.592C86.4086 350.179 86.5473 350.653 86.8246 351.016C87.1126 351.368 87.5446 351.544 88.1206 351.544C88.6113 351.544 88.99 351.421 89.2566 351.176C89.5233 350.92 89.7313 350.605 89.8806 350.232L91.4486 350.984C91.1713 351.72 90.75 352.275 90.1846 352.648C89.6193 353.011 88.9313 353.192 88.1206 353.192ZM96.2616 353.192C95.6643 353.192 95.1256 353.091 94.6456 352.888C94.1763 352.685 93.771 352.392 93.4296 352.008C93.099 351.624 92.843 351.165 92.6616 350.632C92.4803 350.088 92.3896 349.48 92.3896 348.808C92.3896 348.136 92.4803 347.533 92.6616 347C92.843 346.467 93.099 346.013 93.4296 345.64C93.771 345.256 94.1763 344.963 94.6456 344.76C95.1256 344.557 95.6643 344.456 96.2616 344.456C96.859 344.456 97.3976 344.557 97.8776 344.76C98.3576 344.963 98.763 345.256 99.0936 345.64C99.435 346.013 99.6963 346.467 99.8776 347C100.059 347.533 100.15 348.136 100.15 348.808C100.15 349.48 100.059 350.088 99.8776 350.632C99.6963 351.165 99.435 351.624 99.0936 352.008C98.763 352.392 98.3576 352.685 97.8776 352.888C97.3976 353.091 96.859 353.192 96.2616 353.192ZM96.2616 351.544C96.8056 351.544 97.2323 351.379 97.5416 351.048C97.851 350.717 98.0056 350.232 98.0056 349.592V348.04C98.0056 347.411 97.851 346.931 97.5416 346.6C97.2323 346.269 96.8056 346.104 96.2616 346.104C95.7283 346.104 95.307 346.269 94.9976 346.6C94.6883 346.931 94.5336 347.411 94.5336 348.04V349.592C94.5336 350.232 94.6883 350.717 94.9976 351.048C95.307 351.379 95.7283 351.544 96.2616 351.544ZM101.965 353V344.648H104.013V346.04H104.093C104.264 345.592 104.531 345.219 104.893 344.92C105.267 344.611 105.779 344.456 106.429 344.456C107.293 344.456 107.955 344.739 108.413 345.304C108.872 345.869 109.101 346.675 109.101 347.72V353H107.053V347.928C107.053 347.331 106.947 346.883 106.733 346.584C106.52 346.285 106.168 346.136 105.677 346.136C105.464 346.136 105.256 346.168 105.053 346.232C104.861 346.285 104.685 346.371 104.525 346.488C104.376 346.595 104.253 346.733 104.157 346.904C104.061 347.064 104.013 347.256 104.013 347.48V353H101.965ZM114.108 353.192C113.308 353.192 112.636 353.059 112.092 352.792C111.548 352.515 111.068 352.136 110.652 351.656L111.9 350.44C112.209 350.792 112.545 351.069 112.908 351.272C113.281 351.475 113.708 351.576 114.188 351.576C114.678 351.576 115.03 351.491 115.244 351.32C115.468 351.149 115.58 350.915 115.58 350.616C115.58 350.371 115.5 350.179 115.34 350.04C115.19 349.891 114.929 349.789 114.556 349.736L113.724 349.624C112.817 349.507 112.124 349.251 111.644 348.856C111.174 348.451 110.94 347.864 110.94 347.096C110.94 346.691 111.014 346.328 111.164 346.008C111.313 345.677 111.526 345.4 111.804 345.176C112.081 344.941 112.412 344.765 112.796 344.648C113.19 344.52 113.628 344.456 114.108 344.456C114.513 344.456 114.87 344.488 115.18 344.552C115.5 344.605 115.788 344.691 116.044 344.808C116.3 344.915 116.534 345.053 116.748 345.224C116.961 345.384 117.169 345.565 117.372 345.768L116.172 346.968C115.926 346.712 115.633 346.499 115.292 346.328C114.95 346.157 114.577 346.072 114.172 346.072C113.724 346.072 113.398 346.152 113.196 346.312C113.004 346.472 112.908 346.68 112.908 346.936C112.908 347.213 112.988 347.427 113.148 347.576C113.318 347.715 113.601 347.816 113.996 347.88L114.844 347.992C116.646 348.248 117.548 349.069 117.548 350.456C117.548 350.861 117.462 351.235 117.292 351.576C117.132 351.907 116.902 352.195 116.604 352.44C116.305 352.675 115.942 352.861 115.516 353C115.1 353.128 114.63 353.192 114.108 353.192ZM122.732 353.192C122.113 353.192 121.559 353.091 121.068 352.888C120.588 352.675 120.177 352.381 119.836 352.008C119.505 351.624 119.249 351.165 119.068 350.632C118.887 350.088 118.796 349.48 118.796 348.808C118.796 348.147 118.881 347.549 119.052 347.016C119.233 346.483 119.489 346.029 119.82 345.656C120.151 345.272 120.556 344.979 121.036 344.776C121.516 344.563 122.06 344.456 122.668 344.456C123.319 344.456 123.884 344.568 124.364 344.792C124.844 345.016 125.239 345.32 125.548 345.704C125.857 346.088 126.087 346.536 126.236 347.048C126.396 347.549 126.476 348.088 126.476 348.664V349.336H120.924V349.544C120.924 350.152 121.095 350.643 121.436 351.016C121.777 351.379 122.284 351.56 122.956 351.56C123.468 351.56 123.884 351.453 124.204 351.24C124.535 351.027 124.828 350.755 125.084 350.424L126.188 351.656C125.847 352.136 125.377 352.515 124.78 352.792C124.193 353.059 123.511 353.192 122.732 353.192ZM122.7 345.992C122.156 345.992 121.724 346.173 121.404 346.536C121.084 346.899 120.924 347.368 120.924 347.944V348.072H124.348V347.928C124.348 347.352 124.204 346.888 123.916 346.536C123.639 346.173 123.233 345.992 122.7 345.992ZM131.574 353.192C130.955 353.192 130.406 353.091 129.926 352.888C129.446 352.685 129.04 352.392 128.71 352.008C128.39 351.624 128.144 351.165 127.974 350.632C127.803 350.088 127.718 349.48 127.718 348.808C127.718 348.136 127.803 347.533 127.974 347C128.144 346.467 128.39 346.013 128.71 345.64C129.04 345.256 129.446 344.963 129.926 344.76C130.406 344.557 130.955 344.456 131.574 344.456C132.416 344.456 133.11 344.643 133.654 345.016C134.208 345.389 134.608 345.907 134.854 346.568L133.174 347.32C133.078 346.968 132.896 346.68 132.63 346.456C132.374 346.221 132.022 346.104 131.574 346.104C130.998 346.104 130.566 346.285 130.278 346.648C130 347.011 129.862 347.485 129.862 348.072V349.592C129.862 350.179 130 350.653 130.278 351.016C130.566 351.368 130.998 351.544 131.574 351.544C132.064 351.544 132.443 351.421 132.71 351.176C132.976 350.92 133.184 350.605 133.334 350.232L134.902 350.984C134.624 351.72 134.203 352.275 133.638 352.648C133.072 353.011 132.384 353.192 131.574 353.192ZM139.089 353C138.385 353 137.846 352.819 137.473 352.456C137.11 352.083 136.929 351.555 136.929 350.872V346.28H135.697V344.648H136.337C136.646 344.648 136.854 344.579 136.961 344.44C137.078 344.291 137.137 344.072 137.137 343.784V342.36H138.977V344.648H140.689V346.28H138.977V351.368H140.561V353H139.089ZM145.779 353.192C145.16 353.192 144.605 353.091 144.115 352.888C143.635 352.675 143.224 352.381 142.883 352.008C142.552 351.624 142.296 351.165 142.115 350.632C141.933 350.088 141.843 349.48 141.843 348.808C141.843 348.147 141.928 347.549 142.099 347.016C142.28 346.483 142.536 346.029 142.867 345.656C143.197 345.272 143.603 344.979 144.083 344.776C144.563 344.563 145.107 344.456 145.715 344.456C146.365 344.456 146.931 344.568 147.411 344.792C147.891 345.016 148.285 345.32 148.595 345.704C148.904 346.088 149.133 346.536 149.283 347.048C149.443 347.549 149.523 348.088 149.523 348.664V349.336H143.971V349.544C143.971 350.152 144.141 350.643 144.483 351.016C144.824 351.379 145.331 351.56 146.003 351.56C146.515 351.56 146.931 351.453 147.251 351.24C147.581 351.027 147.875 350.755 148.131 350.424L149.235 351.656C148.893 352.136 148.424 352.515 147.827 352.792C147.24 353.059 146.557 353.192 145.779 353.192ZM145.747 345.992C145.203 345.992 144.771 346.173 144.451 346.536C144.131 346.899 143.971 347.368 143.971 347.944V348.072H147.395V347.928C147.395 347.352 147.251 346.888 146.963 346.536C146.685 346.173 146.28 345.992 145.747 345.992ZM153.933 353C153.229 353 152.69 352.819 152.317 352.456C151.954 352.083 151.773 351.555 151.773 350.872V346.28H150.541V344.648H151.181C151.49 344.648 151.698 344.579 151.805 344.44C151.922 344.291 151.981 344.072 151.981 343.784V342.36H153.821V344.648H155.533V346.28H153.821V351.368H155.405V353H153.933ZM162.301 351.608H162.221C162.146 351.821 162.045 352.024 161.917 352.216C161.8 352.397 161.645 352.563 161.453 352.712C161.272 352.861 161.048 352.979 160.781 353.064C160.525 353.149 160.226 353.192 159.885 353.192C159.021 353.192 158.36 352.909 157.901 352.344C157.442 351.779 157.213 350.973 157.213 349.928V344.648H159.261V349.72C159.261 350.296 159.373 350.739 159.597 351.048C159.821 351.347 160.178 351.496 160.669 351.496C160.872 351.496 161.069 351.469 161.261 351.416C161.464 351.363 161.64 351.283 161.789 351.176C161.938 351.059 162.061 350.92 162.157 350.76C162.253 350.589 162.301 350.392 162.301 350.168V344.648H164.349V353H162.301V351.608ZM166.715 353V344.648H168.763V346.376H168.843C168.897 346.152 168.977 345.939 169.083 345.736C169.201 345.523 169.35 345.336 169.531 345.176C169.713 345.016 169.926 344.888 170.171 344.792C170.427 344.696 170.721 344.648 171.051 344.648H171.499V346.584H170.859C170.166 346.584 169.643 346.685 169.291 346.888C168.939 347.091 168.763 347.421 168.763 347.88V353H166.715Z" fill="#1A1A1A"/>
<rect x="40.5" y="461.5" width="239" height="39" rx="3.5" stroke="#707070"/>
<path d="M48.224 448L47.328 445.152H43.36L42.48 448H40.336L44.08 436.832H46.704L50.416 448H48.224ZM45.376 438.752H45.296L43.872 443.344H46.816L45.376 438.752ZM57.118 446.608H57.038C56.8887 447.088 56.606 447.472 56.19 447.76C55.774 448.048 55.2887 448.192 54.734 448.192C53.678 448.192 52.8673 447.813 52.302 447.056C51.7473 446.299 51.47 445.216 51.47 443.808C51.47 442.411 51.7473 441.339 52.302 440.592C52.8673 439.835 53.678 439.456 54.734 439.456C55.2887 439.456 55.774 439.6 56.19 439.888C56.606 440.165 56.8887 440.544 57.038 441.024H57.118V436.16H59.166V448H57.118V446.608ZM55.39 446.496C55.8807 446.496 56.2913 446.379 56.622 446.144C56.9527 445.909 57.118 445.573 57.118 445.136V442.48C57.118 442.075 56.9527 441.749 56.622 441.504C56.2913 441.259 55.8807 441.136 55.39 441.136C54.8567 441.136 54.4247 441.317 54.094 441.68C53.774 442.032 53.614 442.507 53.614 443.104V444.544C53.614 445.141 53.774 445.616 54.094 445.968C54.4247 446.32 54.8567 446.496 55.39 446.496ZM62.5518 438.432C62.1251 438.432 61.8158 438.336 61.6238 438.144C61.4424 437.952 61.3518 437.707 61.3518 437.408V437.088C61.3518 436.789 61.4424 436.544 61.6238 436.352C61.8158 436.16 62.1251 436.064 62.5518 436.064C62.9678 436.064 63.2718 436.16 63.4638 436.352C63.6558 436.544 63.7518 436.789 63.7518 437.088V437.408C63.7518 437.707 63.6558 437.952 63.4638 438.144C63.2718 438.336 62.9678 438.432 62.5518 438.432ZM61.5278 439.648H63.5758V448H61.5278V439.648ZM65.9496 439.648H67.9976V441.024H68.0616C68.211 440.544 68.4936 440.165 68.9096 439.888C69.3256 439.6 69.811 439.456 70.3656 439.456C71.4323 439.456 72.243 439.835 72.7976 440.592C73.363 441.339 73.6456 442.411 73.6456 443.808C73.6456 445.216 73.363 446.299 72.7976 447.056C72.243 447.813 71.4323 448.192 70.3656 448.192C69.811 448.192 69.3256 448.048 68.9096 447.76C68.5043 447.472 68.2216 447.088 68.0616 446.608H67.9976V451.2H65.9496V439.648ZM69.7096 446.496C70.243 446.496 70.675 446.32 71.0056 445.968C71.3363 445.616 71.5016 445.141 71.5016 444.544V443.104C71.5016 442.507 71.3363 442.032 71.0056 441.68C70.675 441.317 70.243 441.136 69.7096 441.136C69.219 441.136 68.8083 441.259 68.4776 441.504C68.1576 441.749 67.9976 442.075 67.9976 442.48V445.136C67.9976 445.573 68.1576 445.909 68.4776 446.144C68.8083 446.379 69.219 446.496 69.7096 446.496ZM76.5674 438.432C76.1407 438.432 75.8314 438.336 75.6394 438.144C75.458 437.952 75.3674 437.707 75.3674 437.408V437.088C75.3674 436.789 75.458 436.544 75.6394 436.352C75.8314 436.16 76.1407 436.064 76.5674 436.064C76.9834 436.064 77.2874 436.16 77.4794 436.352C77.6714 436.544 77.7674 436.789 77.7674 437.088V437.408C77.7674 437.707 77.6714 437.952 77.4794 438.144C77.2874 438.336 76.9834 438.432 76.5674 438.432ZM75.5434 439.648H77.5914V448H75.5434V439.648ZM82.7013 448.192C81.9013 448.192 81.2293 448.059 80.6853 447.792C80.1413 447.515 79.6613 447.136 79.2453 446.656L80.4933 445.44C80.8026 445.792 81.1386 446.069 81.5013 446.272C81.8746 446.475 82.3013 446.576 82.7812 446.576C83.2719 446.576 83.6239 446.491 83.8373 446.32C84.0613 446.149 84.1733 445.915 84.1733 445.616C84.1733 445.371 84.0933 445.179 83.9333 445.04C83.7839 444.891 83.5226 444.789 83.1493 444.736L82.3173 444.624C81.4106 444.507 80.7173 444.251 80.2373 443.856C79.7679 443.451 79.5333 442.864 79.5333 442.096C79.5333 441.691 79.6079 441.328 79.7573 441.008C79.9066 440.677 80.1199 440.4 80.3973 440.176C80.6746 439.941 81.0053 439.765 81.3893 439.648C81.7839 439.52 82.2213 439.456 82.7013 439.456C83.1066 439.456 83.4639 439.488 83.7733 439.552C84.0933 439.605 84.3813 439.691 84.6373 439.808C84.8933 439.915 85.1279 440.053 85.3413 440.224C85.5546 440.384 85.7626 440.565 85.9653 440.768L84.7653 441.968C84.5199 441.712 84.2266 441.499 83.8853 441.328C83.5439 441.157 83.1706 441.072 82.7653 441.072C82.3173 441.072 81.9919 441.152 81.7893 441.312C81.5973 441.472 81.5013 441.68 81.5013 441.936C81.5013 442.213 81.5813 442.427 81.7413 442.576C81.9119 442.715 82.1946 442.816 82.5893 442.88L83.4373 442.992C85.2399 443.248 86.1413 444.069 86.1413 445.456C86.1413 445.861 86.0559 446.235 85.8853 446.576C85.7253 446.907 85.4959 447.195 85.1973 447.44C84.8986 447.675 84.5359 447.861 84.1093 448C83.6933 448.128 83.2239 448.192 82.7013 448.192ZM91.2456 448.192C90.627 448.192 90.0776 448.091 89.5976 447.888C89.1176 447.685 88.7123 447.392 88.3816 447.008C88.0616 446.624 87.8163 446.165 87.6456 445.632C87.475 445.088 87.3896 444.48 87.3896 443.808C87.3896 443.136 87.475 442.533 87.6456 442C87.8163 441.467 88.0616 441.013 88.3816 440.64C88.7123 440.256 89.1176 439.963 89.5976 439.76C90.0776 439.557 90.627 439.456 91.2456 439.456C92.0883 439.456 92.7816 439.643 93.3256 440.016C93.8803 440.389 94.2803 440.907 94.5256 441.568L92.8456 442.32C92.7496 441.968 92.5683 441.68 92.3016 441.456C92.0456 441.221 91.6936 441.104 91.2456 441.104C90.6696 441.104 90.2376 441.285 89.9496 441.648C89.6723 442.011 89.5336 442.485 89.5336 443.072V444.592C89.5336 445.179 89.6723 445.653 89.9496 446.016C90.2376 446.368 90.6696 446.544 91.2456 446.544C91.7363 446.544 92.115 446.421 92.3816 446.176C92.6483 445.92 92.8563 445.605 93.0056 445.232L94.5736 445.984C94.2963 446.72 93.875 447.275 93.3096 447.648C92.7443 448.011 92.0563 448.192 91.2456 448.192ZM97.1768 438.432C96.7501 438.432 96.4408 438.336 96.2488 438.144C96.0674 437.952 95.9768 437.707 95.9768 437.408V437.088C95.9768 436.789 96.0674 436.544 96.2488 436.352C96.4408 436.16 96.7501 436.064 97.1768 436.064C97.5928 436.064 97.8968 436.16 98.0888 436.352C98.2808 436.544 98.3768 436.789 98.3768 437.088V437.408C98.3768 437.707 98.2808 437.952 98.0888 438.144C97.8968 438.336 97.5928 438.432 97.1768 438.432ZM96.1528 439.648H98.2008V448H96.1528V439.648ZM100.575 448V439.648H102.623V441.04H102.703C102.873 440.592 103.14 440.219 103.503 439.92C103.876 439.611 104.388 439.456 105.039 439.456C105.903 439.456 106.564 439.739 107.023 440.304C107.481 440.869 107.711 441.675 107.711 442.72V448H105.663V442.928C105.663 442.331 105.556 441.883 105.343 441.584C105.129 441.285 104.777 441.136 104.287 441.136C104.073 441.136 103.865 441.168 103.663 441.232C103.471 441.285 103.295 441.371 103.135 441.488C102.985 441.595 102.863 441.733 102.767 441.904C102.671 442.064 102.623 442.256 102.623 442.48V448H100.575ZM117.517 448.704C117.517 449.141 117.437 449.525 117.277 449.856C117.128 450.197 116.877 450.48 116.525 450.704C116.173 450.928 115.72 451.099 115.165 451.216C114.61 451.333 113.933 451.392 113.133 451.392C112.429 451.392 111.832 451.344 111.341 451.248C110.85 451.163 110.445 451.035 110.125 450.864C109.816 450.704 109.592 450.501 109.453 450.256C109.314 450.011 109.245 449.733 109.245 449.424C109.245 448.955 109.373 448.587 109.629 448.32C109.896 448.064 110.264 447.899 110.733 447.824V447.648C110.392 447.563 110.125 447.397 109.933 447.152C109.752 446.896 109.661 446.597 109.661 446.256C109.661 446.043 109.704 445.856 109.789 445.696C109.874 445.525 109.986 445.381 110.125 445.264C110.274 445.147 110.44 445.051 110.621 444.976C110.802 444.891 110.994 444.827 111.197 444.784V444.72C110.685 444.485 110.301 444.16 110.045 443.744C109.8 443.328 109.677 442.843 109.677 442.288C109.677 441.435 109.97 440.752 110.557 440.24C111.144 439.717 112.002 439.456 113.133 439.456C113.389 439.456 113.64 439.472 113.885 439.504C114.141 439.536 114.376 439.589 114.589 439.664V439.392C114.589 438.581 114.984 438.176 115.773 438.176H117.069V439.744H115.293V439.968C115.73 440.213 116.056 440.533 116.269 440.928C116.482 441.323 116.589 441.776 116.589 442.288C116.589 443.131 116.296 443.808 115.709 444.32C115.133 444.832 114.274 445.088 113.133 445.088C112.642 445.088 112.216 445.04 111.853 444.944C111.693 445.019 111.554 445.12 111.437 445.248C111.32 445.365 111.261 445.515 111.261 445.696C111.261 446.112 111.624 446.32 112.349 446.32H114.589C115.613 446.32 116.354 446.533 116.813 446.96C117.282 447.376 117.517 447.957 117.517 448.704ZM115.597 448.944C115.597 448.677 115.49 448.469 115.277 448.32C115.064 448.171 114.696 448.096 114.173 448.096H111.325C111.037 448.309 110.893 448.597 110.893 448.96C110.893 449.28 111.026 449.531 111.293 449.712C111.56 449.893 112.013 449.984 112.653 449.984H113.677C114.349 449.984 114.834 449.899 115.133 449.728C115.442 449.557 115.597 449.296 115.597 448.944ZM113.133 443.696C114.136 443.696 114.637 443.269 114.637 442.416V442.144C114.637 441.291 114.136 440.864 113.133 440.864C112.13 440.864 111.629 441.291 111.629 442.144V442.416C111.629 443.269 112.13 443.696 113.133 443.696ZM125.857 448.192C125.238 448.192 124.684 448.091 124.193 447.888C123.713 447.675 123.302 447.381 122.961 447.008C122.63 446.624 122.374 446.165 122.193 445.632C122.012 445.088 121.921 444.48 121.921 443.808C121.921 443.147 122.006 442.549 122.177 442.016C122.358 441.483 122.614 441.029 122.945 440.656C123.276 440.272 123.681 439.979 124.161 439.776C124.641 439.563 125.185 439.456 125.793 439.456C126.444 439.456 127.009 439.568 127.489 439.792C127.969 440.016 128.364 440.32 128.673 440.704C128.982 441.088 129.212 441.536 129.361 442.048C129.521 442.549 129.601 443.088 129.601 443.664V444.336H124.049V444.544C124.049 445.152 124.22 445.643 124.561 446.016C124.902 446.379 125.409 446.56 126.081 446.56C126.593 446.56 127.009 446.453 127.329 446.24C127.66 446.027 127.953 445.755 128.209 445.424L129.313 446.656C128.972 447.136 128.502 447.515 127.905 447.792C127.318 448.059 126.636 448.192 125.857 448.192ZM125.825 440.992C125.281 440.992 124.849 441.173 124.529 441.536C124.209 441.899 124.049 442.368 124.049 442.944V443.072H127.473V442.928C127.473 442.352 127.329 441.888 127.041 441.536C126.764 441.173 126.358 440.992 125.825 440.992ZM133.451 448C132.747 448 132.229 447.824 131.899 447.472C131.568 447.12 131.403 446.624 131.403 445.984V436.16H133.451V446.368H134.555V448H133.451ZM137.13 438.432C136.703 438.432 136.394 438.336 136.202 438.144C136.021 437.952 135.93 437.707 135.93 437.408V437.088C135.93 436.789 136.021 436.544 136.202 436.352C136.394 436.16 136.703 436.064 137.13 436.064C137.546 436.064 137.85 436.16 138.042 436.352C138.234 436.544 138.33 436.789 138.33 437.088V437.408C138.33 437.707 138.234 437.952 138.042 438.144C137.85 438.336 137.546 438.432 137.13 438.432ZM136.106 439.648H138.154V448H136.106V439.648ZM143.136 448C142.432 448 141.893 447.819 141.52 447.456C141.157 447.083 140.976 446.555 140.976 445.872V441.28H139.744V439.648H140.384C140.693 439.648 140.901 439.579 141.008 439.44C141.125 439.291 141.184 439.072 141.184 438.784V437.36H143.024V439.648H144.736V441.28H143.024V446.368H144.608V448H143.136Z" fill="#1A1A1A"/>
<defs>
<filter id="filter0_d_5010_49590" x="12" y="78" width="394" height="175" filterUnits="userSpaceOnUse" color-interpolation-filters="sRGB">
<feFlood flood-opacity="0" result="BackgroundImageFix"/>
<feColorMatrix in="SourceAlpha" type="matrix" values="0 0 0 0 0 0 0 0 0 0 0 0 0 0 0 0 0 0 127 0" result="hardAlpha"/>
<feOffset dy="2"/>
<feGaussianBlur stdDeviation="2"/>
<feColorMatrix type="matrix" values="0 0 0 0 0 0 0 0 0 0 0 0 0 0 0 0 0 0 0.302 0"/>
<feBlend mode="normal" in2="BackgroundImageFix" result="effect1_dropShadow_5010_49590"/>
<feBlend mode="normal" in="SourceGraphic" in2="effect1_dropShadow_5010_49590" result="shape"/>
</filter>
<filter id="filter1_d_5010_49590" x="12" y="261" width="394" height="270" filterUnits="userSpaceOnUse" color-interpolation-filters="sRGB">
<feFlood flood-opacity="0" result="BackgroundImageFix"/>
<feColorMatrix in="SourceAlpha" type="matrix" values="0 0 0 0 0 0 0 0 0 0 0 0 0 0 0 0 0 0 127 0" result="hardAlpha"/>
<feOffset dy="2"/>
<feGaussianBlur stdDeviation="2"/>
<feColorMatrix type="matrix" values="0 0 0 0 0 0 0 0 0 0 0 0 0 0 0 0 0 0 0.302 0"/>
<feBlend mode="normal" in2="BackgroundImageFix" result="effect1_dropShadow_5010_49590"/>
<feBlend mode="normal" in="SourceGraphic" in2="effect1_dropShadow_5010_49590" result="shape"/>
</filter>
</defs>
</svg>
