<svg width="418" height="368" viewBox="0 0 418 368" fill="none" xmlns="http://www.w3.org/2000/svg">
<g clip-path="url(#clip0_5010_49578)">
<rect width="418" height="368" fill="white"/>
<path d="M204 53H203V51H201V53H193V51H191V53H190C188.89 53 188.01 53.9 188.01 55L188 69C188 70.1 188.89 71 190 71H204C205.1 71 206 70.1 206 69V55C206 53.9 205.1 53 204 53ZM204 69H190V59H204V69ZM204 57H190V55H204V57ZM202 62H197V67H202V62Z" fill="#1A1A1A"/>
<rect x="16.5" y="42.5" width="159" height="39" rx="3.5" stroke="#747474"/>
<path d="M36.8 67.192C35.4667 67.192 34.4907 66.6853 33.872 65.672C33.264 64.6587 32.96 63.24 32.96 61.416C32.96 59.592 33.264 58.1733 33.872 57.16C34.4907 56.1467 35.4667 55.64 36.8 55.64C38.1333 55.64 39.104 56.1467 39.712 57.16C40.3307 58.1733 40.64 59.592 40.64 61.416C40.64 63.24 40.3307 64.6587 39.712 65.672C39.104 66.6853 38.1333 67.192 36.8 67.192ZM36.8 66.024C37.2373 66.024 37.6107 65.9333 37.92 65.752C38.2293 65.5707 38.48 65.3147 38.672 64.984C38.864 64.6533 39.0027 64.264 39.088 63.816C39.184 63.368 39.232 62.872 39.232 62.328V60.504C39.232 59.96 39.184 59.464 39.088 59.016C39.0027 58.568 38.864 58.1787 38.672 57.848C38.48 57.5173 38.2293 57.2613 37.92 57.08C37.6107 56.8987 37.2373 56.808 36.8 56.808C36.3627 56.808 35.9893 56.8987 35.68 57.08C35.3707 57.2613 35.12 57.5173 34.928 57.848C34.736 58.1787 34.592 58.568 34.496 59.016C34.4107 59.464 34.368 59.96 34.368 60.504V62.328C34.368 62.872 34.4107 63.368 34.496 63.816C34.592 64.264 34.736 64.6533 34.928 64.984C35.12 65.3147 35.3707 65.5707 35.68 65.752C35.9893 65.9333 36.3627 66.024 36.8 66.024ZM46.4098 67.192C45.8338 67.192 45.3111 67.096 44.8418 66.904C44.3831 66.7013 43.9884 66.4187 43.6578 66.056C43.3378 65.6827 43.0924 65.2293 42.9218 64.696C42.7511 64.1627 42.6658 63.5653 42.6658 62.904C42.6658 62.072 42.7884 61.2933 43.0338 60.568C43.2791 59.832 43.5938 59.1653 43.9778 58.568C44.3724 57.96 44.8044 57.4267 45.2738 56.968C45.7431 56.4987 46.2018 56.12 46.6498 55.832H48.3778C47.7804 56.2693 47.2471 56.696 46.7778 57.112C46.3084 57.528 45.8978 57.9653 45.5458 58.424C45.1938 58.872 44.8951 59.3573 44.6498 59.88C44.4044 60.392 44.2071 60.9733 44.0578 61.624L44.1378 61.656C44.4044 61.1973 44.7458 60.8187 45.1618 60.52C45.5884 60.2107 46.1431 60.056 46.8258 60.056C47.3058 60.056 47.7484 60.136 48.1538 60.296C48.5591 60.456 48.9058 60.6853 49.1938 60.984C49.4818 61.2827 49.7058 61.6453 49.8658 62.072C50.0364 62.4987 50.1218 62.9733 50.1218 63.496C50.1218 64.04 50.0311 64.5413 49.8498 65C49.6791 65.448 49.4284 65.8373 49.0978 66.168C48.7778 66.488 48.3884 66.7387 47.9298 66.92C47.4711 67.1013 46.9644 67.192 46.4098 67.192ZM46.3938 66.024C47.1298 66.024 47.7004 65.8213 48.1058 65.416C48.5218 65.0107 48.7298 64.4293 48.7298 63.672V63.544C48.7298 62.7867 48.5218 62.2053 48.1058 61.8C47.7004 61.3947 47.1298 61.192 46.3938 61.192C45.6578 61.192 45.0818 61.3947 44.6658 61.8C44.2604 62.2053 44.0578 62.7867 44.0578 63.544V63.672C44.0578 64.4293 44.2604 65.0107 44.6658 65.416C45.0818 65.8213 45.6578 66.024 46.3938 66.024ZM51.3315 69.416L55.5075 55.16H56.6595L52.4835 69.416H51.3315ZM62.1125 67.192C60.7792 67.192 59.8032 66.6853 59.1845 65.672C58.5765 64.6587 58.2725 63.24 58.2725 61.416C58.2725 59.592 58.5765 58.1733 59.1845 57.16C59.8032 56.1467 60.7792 55.64 62.1125 55.64C63.4458 55.64 64.4165 56.1467 65.0245 57.16C65.6432 58.1733 65.9525 59.592 65.9525 61.416C65.9525 63.24 65.6432 64.6587 65.0245 65.672C64.4165 66.6853 63.4458 67.192 62.1125 67.192ZM62.1125 66.024C62.5498 66.024 62.9232 65.9333 63.2325 65.752C63.5418 65.5707 63.7925 65.3147 63.9845 64.984C64.1765 64.6533 64.3152 64.264 64.4005 63.816C64.4965 63.368 64.5445 62.872 64.5445 62.328V60.504C64.5445 59.96 64.4965 59.464 64.4005 59.016C64.3152 58.568 64.1765 58.1787 63.9845 57.848C63.7925 57.5173 63.5418 57.2613 63.2325 57.08C62.9232 56.8987 62.5498 56.808 62.1125 56.808C61.6752 56.808 61.3018 56.8987 60.9925 57.08C60.6832 57.2613 60.4325 57.5173 60.2405 57.848C60.0485 58.1787 59.9045 58.568 59.8085 59.016C59.7232 59.464 59.6805 59.96 59.6805 60.504V62.328C59.6805 62.872 59.7232 63.368 59.8085 63.816C59.9045 64.264 60.0485 64.6533 60.2405 64.984C60.4325 65.3147 60.6832 65.5707 60.9925 65.752C61.3018 65.9333 61.6752 66.024 62.1125 66.024ZM68.3143 67V65.816H71.4343V56.824H71.3223L68.5063 59.448L67.7223 58.6L70.6823 55.832H72.7783V65.816H75.6583V67H68.3143ZM76.644 69.416L80.82 55.16H81.972L77.796 69.416H76.644ZM91.153 67H83.825V65.624L87.473 62.264C87.9957 61.784 88.433 61.2773 88.785 60.744C89.137 60.2 89.313 59.656 89.313 59.112V58.92C89.313 58.3013 89.1423 57.8 88.801 57.416C88.4597 57.032 87.9423 56.84 87.249 56.84C86.9077 56.84 86.609 56.888 86.353 56.984C86.097 57.08 85.873 57.2133 85.681 57.384C85.4997 57.5547 85.345 57.7573 85.217 57.992C85.0997 58.216 85.0037 58.4613 84.929 58.728L83.729 58.264C83.8357 57.9333 83.9797 57.6133 84.161 57.304C84.353 56.984 84.5877 56.7013 84.865 56.456C85.153 56.2107 85.4943 56.0133 85.889 55.864C86.2943 55.7147 86.769 55.64 87.313 55.64C87.857 55.64 88.3423 55.72 88.769 55.88C89.1957 56.04 89.553 56.264 89.841 56.552C90.129 56.84 90.3477 57.1813 90.497 57.576C90.657 57.9707 90.737 58.408 90.737 58.888C90.737 59.3253 90.673 59.7307 90.545 60.104C90.4277 60.4773 90.2623 60.8347 90.049 61.176C89.8357 61.5067 89.5743 61.832 89.265 62.152C88.9663 62.472 88.641 62.792 88.289 63.112L85.281 65.816H91.153V67ZM97.0188 67.192C95.6854 67.192 94.7094 66.6853 94.0908 65.672C93.4828 64.6587 93.1788 63.24 93.1788 61.416C93.1788 59.592 93.4828 58.1733 94.0908 57.16C94.7094 56.1467 95.6854 55.64 97.0188 55.64C98.3521 55.64 99.3228 56.1467 99.9308 57.16C100.549 58.1733 100.859 59.592 100.859 61.416C100.859 63.24 100.549 64.6587 99.9308 65.672C99.3228 66.6853 98.3521 67.192 97.0188 67.192ZM97.0188 66.024C97.4561 66.024 97.8294 65.9333 98.1388 65.752C98.4481 65.5707 98.6988 65.3147 98.8908 64.984C99.0828 64.6533 99.2214 64.264 99.3068 63.816C99.4028 63.368 99.4508 62.872 99.4508 62.328V60.504C99.4508 59.96 99.4028 59.464 99.3068 59.016C99.2214 58.568 99.0828 58.1787 98.8908 57.848C98.6988 57.5173 98.4481 57.2613 98.1388 57.08C97.8294 56.8987 97.4561 56.808 97.0188 56.808C96.5814 56.808 96.2081 56.8987 95.8988 57.08C95.5894 57.2613 95.3388 57.5173 95.1468 57.848C94.9548 58.1787 94.8108 58.568 94.7148 59.016C94.6294 59.464 94.5868 59.96 94.5868 60.504V62.328C94.5868 62.872 94.6294 63.368 94.7148 63.816C94.8108 64.264 94.9548 64.6533 95.1468 64.984C95.3388 65.3147 95.5894 65.5707 95.8988 65.752C96.2081 65.9333 96.5814 66.024 97.0188 66.024ZM110.341 67H103.013V65.624L106.661 62.264C107.183 61.784 107.621 61.2773 107.973 60.744C108.325 60.2 108.501 59.656 108.501 59.112V58.92C108.501 58.3013 108.33 57.8 107.989 57.416C107.647 57.032 107.13 56.84 106.437 56.84C106.095 56.84 105.797 56.888 105.541 56.984C105.285 57.08 105.061 57.2133 104.869 57.384C104.687 57.5547 104.533 57.7573 104.405 57.992C104.287 58.216 104.191 58.4613 104.117 58.728L102.917 58.264C103.023 57.9333 103.167 57.6133 103.349 57.304C103.541 56.984 103.775 56.7013 104.053 56.456C104.341 56.2107 104.682 56.0133 105.077 55.864C105.482 55.7147 105.957 55.64 106.501 55.64C107.045 55.64 107.53 55.72 107.957 55.88C108.383 56.04 108.741 56.264 109.029 56.552C109.317 56.84 109.535 57.1813 109.685 57.576C109.845 57.9707 109.925 58.408 109.925 58.888C109.925 59.3253 109.861 59.7307 109.733 60.104C109.615 60.4773 109.45 60.8347 109.237 61.176C109.023 61.5067 108.762 61.832 108.453 62.152C108.154 62.472 107.829 62.792 107.477 63.112L104.469 65.816H110.341V67ZM119.934 67H112.606V65.624L116.254 62.264C116.777 61.784 117.214 61.2773 117.566 60.744C117.918 60.2 118.094 59.656 118.094 59.112V58.92C118.094 58.3013 117.924 57.8 117.582 57.416C117.241 57.032 116.724 56.84 116.03 56.84C115.689 56.84 115.39 56.888 115.134 56.984C114.878 57.08 114.654 57.2133 114.462 57.384C114.281 57.5547 114.126 57.7573 113.998 57.992C113.881 58.216 113.785 58.4613 113.71 58.728L112.51 58.264C112.617 57.9333 112.761 57.6133 112.942 57.304C113.134 56.984 113.369 56.7013 113.646 56.456C113.934 56.2107 114.276 56.0133 114.67 55.864C115.076 55.7147 115.55 55.64 116.094 55.64C116.638 55.64 117.124 55.72 117.55 55.88C117.977 56.04 118.334 56.264 118.622 56.552C118.91 56.84 119.129 57.1813 119.278 57.576C119.438 57.9707 119.518 58.408 119.518 58.888C119.518 59.3253 119.454 59.7307 119.326 60.104C119.209 60.4773 119.044 60.8347 118.83 61.176C118.617 61.5067 118.356 61.832 118.046 62.152C117.748 62.472 117.422 62.792 117.07 63.112L114.062 65.816H119.934V67Z" fill="#1A1A1A"/>
<path d="M17.312 17.832H21.376C22.1013 17.832 22.7573 17.9493 23.344 18.184C23.9413 18.4187 24.448 18.7707 24.864 19.24C25.2907 19.6987 25.616 20.28 25.84 20.984C26.0747 21.6773 26.192 22.488 26.192 23.416C26.192 24.344 26.0747 25.16 25.84 25.864C25.616 26.5573 25.2907 27.1387 24.864 27.608C24.448 28.0667 23.9413 28.4133 23.344 28.648C22.7573 28.8827 22.1013 29 21.376 29H17.312V17.832ZM21.376 27.128C22.1653 27.128 22.7893 26.8987 23.248 26.44C23.7173 25.9707 23.952 25.256 23.952 24.296V22.536C23.952 21.576 23.7173 20.8667 23.248 20.408C22.7893 19.9387 22.1653 19.704 21.376 19.704H19.424V27.128H21.376ZM34.3593 29C33.9113 29 33.5539 28.872 33.2873 28.616C33.0313 28.3493 32.8713 27.9973 32.8073 27.56H32.7113C32.5726 28.104 32.2899 28.5147 31.8633 28.792C31.4366 29.0587 30.9086 29.192 30.2793 29.192C29.4259 29.192 28.7699 28.968 28.3113 28.52C27.8526 28.072 27.6233 27.4747 27.6233 26.728C27.6233 25.864 27.9326 25.224 28.5513 24.808C29.1699 24.3813 30.0499 24.168 31.1913 24.168H32.6153V23.56C32.6153 23.0907 32.4926 22.728 32.2473 22.472C32.0019 22.216 31.6073 22.088 31.0633 22.088C30.5833 22.088 30.1939 22.1947 29.8953 22.408C29.6073 22.6107 29.3619 22.856 29.1593 23.144L27.9433 22.056C28.2526 21.576 28.6633 21.192 29.1753 20.904C29.6873 20.6053 30.3646 20.456 31.2073 20.456C32.3379 20.456 33.1966 20.712 33.7833 21.224C34.3699 21.736 34.6633 22.472 34.6633 23.432V27.368H35.4953V29H34.3593ZM30.9673 27.704C31.4259 27.704 31.8153 27.6027 32.1353 27.4C32.4553 27.1973 32.6153 26.8987 32.6153 26.504V25.4H31.3033C30.2366 25.4 29.7033 25.7413 29.7033 26.424V26.696C29.7033 27.0373 29.8099 27.2933 30.0233 27.464C30.2473 27.624 30.5619 27.704 30.9673 27.704ZM39.6983 29C38.9943 29 38.4556 28.8187 38.0823 28.456C37.7196 28.0827 37.5383 27.5547 37.5383 26.872V22.28H36.3063V20.648H36.9463C37.2556 20.648 37.4636 20.5787 37.5703 20.44C37.6876 20.2907 37.7463 20.072 37.7463 19.784V18.36H39.5863V20.648H41.2983V22.28H39.5863V27.368H41.1703V29H39.6983ZM46.3241 29.192C45.7268 29.192 45.1881 29.0907 44.7081 28.888C44.2388 28.6853 43.8335 28.392 43.4921 28.008C43.1615 27.624 42.9055 27.1653 42.7241 26.632C42.5428 26.088 42.4521 25.48 42.4521 24.808C42.4521 24.136 42.5428 23.5333 42.7241 23C42.9055 22.4667 43.1615 22.0133 43.4921 21.64C43.8335 21.256 44.2388 20.9627 44.7081 20.76C45.1881 20.5573 45.7268 20.456 46.3241 20.456C46.9215 20.456 47.4601 20.5573 47.9401 20.76C48.4201 20.9627 48.8255 21.256 49.1561 21.64C49.4975 22.0133 49.7588 22.4667 49.9401 23C50.1215 23.5333 50.2121 24.136 50.2121 24.808C50.2121 25.48 50.1215 26.088 49.9401 26.632C49.7588 27.1653 49.4975 27.624 49.1561 28.008C48.8255 28.392 48.4201 28.6853 47.9401 28.888C47.4601 29.0907 46.9215 29.192 46.3241 29.192ZM46.3241 27.544C46.8681 27.544 47.2948 27.3787 47.6041 27.048C47.9135 26.7173 48.0681 26.232 48.0681 25.592V24.04C48.0681 23.4107 47.9135 22.9307 47.6041 22.6C47.2948 22.2693 46.8681 22.104 46.3241 22.104C45.7908 22.104 45.3695 22.2693 45.0601 22.6C44.7508 22.9307 44.5961 23.4107 44.5961 24.04V25.592C44.5961 26.232 44.7508 26.7173 45.0601 27.048C45.3695 27.3787 45.7908 27.544 46.3241 27.544ZM56.225 22.264H54.993V20.648H56.225V19.448C56.225 18.712 56.417 18.1467 56.801 17.752C57.1957 17.3573 57.7717 17.16 58.529 17.16H59.985V18.792H58.273V20.648H59.985V22.264H58.273V29H56.225V22.264ZM64.6523 29.192C64.0549 29.192 63.5163 29.0907 63.0363 28.888C62.5669 28.6853 62.1616 28.392 61.8203 28.008C61.4896 27.624 61.2336 27.1653 61.0523 26.632C60.8709 26.088 60.7803 25.48 60.7803 24.808C60.7803 24.136 60.8709 23.5333 61.0523 23C61.2336 22.4667 61.4896 22.0133 61.8203 21.64C62.1616 21.256 62.5669 20.9627 63.0363 20.76C63.5163 20.5573 64.0549 20.456 64.6523 20.456C65.2496 20.456 65.7883 20.5573 66.2683 20.76C66.7483 20.9627 67.1536 21.256 67.4843 21.64C67.8256 22.0133 68.0869 22.4667 68.2683 23C68.4496 23.5333 68.5403 24.136 68.5403 24.808C68.5403 25.48 68.4496 26.088 68.2683 26.632C68.0869 27.1653 67.8256 27.624 67.4843 28.008C67.1536 28.392 66.7483 28.6853 66.2683 28.888C65.7883 29.0907 65.2496 29.192 64.6523 29.192ZM64.6523 27.544C65.1963 27.544 65.6229 27.3787 65.9323 27.048C66.2416 26.7173 66.3963 26.232 66.3963 25.592V24.04C66.3963 23.4107 66.2416 22.9307 65.9323 22.6C65.6229 22.2693 65.1963 22.104 64.6523 22.104C64.1189 22.104 63.6976 22.2693 63.3883 22.6C63.0789 22.9307 62.9243 23.4107 62.9243 24.04V25.592C62.9243 26.232 63.0789 26.7173 63.3883 27.048C63.6976 27.3787 64.1189 27.544 64.6523 27.544ZM70.3559 29V20.648H72.4039V22.376H72.4839C72.5372 22.152 72.6172 21.9387 72.7239 21.736C72.8412 21.5227 72.9905 21.336 73.1719 21.176C73.3532 21.016 73.5665 20.888 73.8119 20.792C74.0679 20.696 74.3612 20.648 74.6919 20.648H75.1399V22.584H74.4999C73.8065 22.584 73.2839 22.6853 72.9319 22.888C72.5799 23.0907 72.4039 23.4213 72.4039 23.88V29H70.3559ZM86.5624 29C86.1144 29 85.757 28.872 85.4904 28.616C85.2344 28.3493 85.0744 27.9973 85.0104 27.56H84.9144C84.7757 28.104 84.493 28.5147 84.0664 28.792C83.6397 29.0587 83.1117 29.192 82.4824 29.192C81.629 29.192 80.973 28.968 80.5144 28.52C80.0557 28.072 79.8264 27.4747 79.8264 26.728C79.8264 25.864 80.1357 25.224 80.7544 24.808C81.373 24.3813 82.253 24.168 83.3944 24.168H84.8184V23.56C84.8184 23.0907 84.6957 22.728 84.4504 22.472C84.205 22.216 83.8104 22.088 83.2664 22.088C82.7864 22.088 82.397 22.1947 82.0984 22.408C81.8104 22.6107 81.565 22.856 81.3624 23.144L80.1464 22.056C80.4557 21.576 80.8664 21.192 81.3784 20.904C81.8904 20.6053 82.5677 20.456 83.4104 20.456C84.541 20.456 85.3997 20.712 85.9864 21.224C86.573 21.736 86.8664 22.472 86.8664 23.432V27.368H87.6984V29H86.5624ZM83.1704 27.704C83.629 27.704 84.0184 27.6027 84.3384 27.4C84.6584 27.1973 84.8184 26.8987 84.8184 26.504V25.4H83.5064C82.4397 25.4 81.9064 25.7413 81.9064 26.424V26.696C81.9064 27.0373 82.013 27.2933 82.2264 27.464C82.4504 27.624 82.765 27.704 83.1704 27.704ZM89.7719 22.264H88.5399V20.648H89.7719V19.448C89.7719 18.712 89.9639 18.1467 90.3479 17.752C90.7425 17.3573 91.3185 17.16 92.0759 17.16H93.5319V18.792H91.8199V20.648H93.5319V22.264H91.8199V29H89.7719V22.264ZM97.5576 29C96.8536 29 96.315 28.8187 95.9416 28.456C95.579 28.0827 95.3976 27.5547 95.3976 26.872V22.28H94.1656V20.648H94.8056C95.115 20.648 95.323 20.5787 95.4296 20.44C95.547 20.2907 95.6056 20.072 95.6056 19.784V18.36H97.4456V20.648H99.1576V22.28H97.4456V27.368H99.0296V29H97.5576ZM107.078 29C106.63 29 106.273 28.872 106.006 28.616C105.75 28.3493 105.59 27.9973 105.526 27.56H105.43C105.291 28.104 105.009 28.5147 104.582 28.792C104.155 29.0587 103.627 29.192 102.998 29.192C102.145 29.192 101.489 28.968 101.03 28.52C100.571 28.072 100.342 27.4747 100.342 26.728C100.342 25.864 100.651 25.224 101.27 24.808C101.889 24.3813 102.769 24.168 103.91 24.168H105.334V23.56C105.334 23.0907 105.211 22.728 104.966 22.472C104.721 22.216 104.326 22.088 103.782 22.088C103.302 22.088 102.913 22.1947 102.614 22.408C102.326 22.6107 102.081 22.856 101.878 23.144L100.662 22.056C100.971 21.576 101.382 21.192 101.894 20.904C102.406 20.6053 103.083 20.456 103.926 20.456C105.057 20.456 105.915 20.712 106.502 21.224C107.089 21.736 107.382 22.472 107.382 23.432V27.368H108.214V29H107.078ZM103.686 27.704C104.145 27.704 104.534 27.6027 104.854 27.4C105.174 27.1973 105.334 26.8987 105.334 26.504V25.4H104.022C102.955 25.4 102.422 25.7413 102.422 26.424V26.696C102.422 27.0373 102.529 27.2933 102.742 27.464C102.966 27.624 103.281 27.704 103.686 27.704ZM111.92 29C111.216 29 110.698 28.824 110.368 28.472C110.037 28.12 109.872 27.624 109.872 26.984V17.16H111.92V27.368H113.024V29H111.92ZM117.951 29.192C117.332 29.192 116.777 29.0907 116.287 28.888C115.807 28.6747 115.396 28.3813 115.055 28.008C114.724 27.624 114.468 27.1653 114.287 26.632C114.105 26.088 114.015 25.48 114.015 24.808C114.015 24.1467 114.1 23.5493 114.271 23.016C114.452 22.4827 114.708 22.0293 115.039 21.656C115.369 21.272 115.775 20.9787 116.255 20.776C116.735 20.5627 117.279 20.456 117.887 20.456C118.537 20.456 119.103 20.568 119.583 20.792C120.063 21.016 120.457 21.32 120.767 21.704C121.076 22.088 121.305 22.536 121.455 23.048C121.615 23.5493 121.695 24.088 121.695 24.664V25.336H116.143V25.544C116.143 26.152 116.313 26.6427 116.655 27.016C116.996 27.3787 117.503 27.56 118.175 27.56C118.687 27.56 119.103 27.4533 119.423 27.24C119.753 27.0267 120.047 26.7547 120.303 26.424L121.407 27.656C121.065 28.136 120.596 28.5147 119.999 28.792C119.412 29.0587 118.729 29.192 117.951 29.192ZM117.919 21.992C117.375 21.992 116.943 22.1733 116.623 22.536C116.303 22.8987 116.143 23.368 116.143 23.944V24.072H119.567V23.928C119.567 23.352 119.423 22.888 119.135 22.536C118.857 22.1733 118.452 21.992 117.919 21.992ZM123.497 29V20.648H125.545V22.04H125.625C125.795 21.592 126.062 21.2187 126.424 20.92C126.798 20.6107 127.31 20.456 127.961 20.456C128.825 20.456 129.486 20.7387 129.945 21.304C130.403 21.8693 130.633 22.6747 130.633 23.72V29H128.585V23.928C128.585 23.3307 128.478 22.8827 128.265 22.584C128.051 22.2853 127.699 22.136 127.209 22.136C126.995 22.136 126.787 22.168 126.585 22.232C126.393 22.2853 126.217 22.3707 126.057 22.488C125.907 22.5947 125.785 22.7333 125.689 22.904C125.593 23.064 125.545 23.256 125.545 23.48V29H123.497Z" fill="#1A1A1A"/>
<g filter="url(#filter0_d_5010_49578)">
<rect x="16" y="86" width="1" height="266" fill="#747474"/>
<rect x="17" y="87" width="1" height="342" transform="rotate(-90 17 87)" fill="#747474"/>
<rect width="342" height="36" transform="translate(17 87)" fill="#F5F5F5"/>
<path d="M47.4099 109.59L45.9999 111L39.9999 105L45.9999 99L47.4099 100.41L42.8299 105L47.4099 109.59ZM41.4099 109.59L39.9999 111L33.9999 105L39.9999 99L41.4099 100.41L36.8299 105L41.4099 109.59Z" fill="black"/>
<path d="M76.4099 100.42L71.8299 105L76.4099 109.59L74.9999 111L68.9999 105L74.9999 99L76.4099 100.42Z" fill="black"/>
<path d="M155.51 103.484H155.446L154.582 105.26L152.294 109.484L150.006 105.26L149.142 103.484H149.078V111.5H147.078V100.332H149.462L152.326 105.788H152.39L155.222 100.332H157.51V111.5H155.51V103.484ZM166.156 111.5C165.708 111.5 165.351 111.372 165.084 111.116C164.828 110.849 164.668 110.497 164.604 110.06H164.508C164.369 110.604 164.087 111.015 163.66 111.292C163.233 111.559 162.705 111.692 162.076 111.692C161.223 111.692 160.567 111.468 160.108 111.02C159.649 110.572 159.42 109.975 159.42 109.228C159.42 108.364 159.729 107.724 160.348 107.308C160.967 106.881 161.847 106.668 162.988 106.668H164.412V106.06C164.412 105.591 164.289 105.228 164.044 104.972C163.799 104.716 163.404 104.588 162.86 104.588C162.38 104.588 161.991 104.695 161.692 104.908C161.404 105.111 161.159 105.356 160.956 105.644L159.74 104.556C160.049 104.076 160.46 103.692 160.972 103.404C161.484 103.105 162.161 102.956 163.004 102.956C164.135 102.956 164.993 103.212 165.58 103.724C166.167 104.236 166.46 104.972 166.46 105.932V109.868H167.292V111.5H166.156ZM162.764 110.204C163.223 110.204 163.612 110.103 163.932 109.9C164.252 109.697 164.412 109.399 164.412 109.004V107.9H163.1C162.033 107.9 161.5 108.241 161.5 108.924V109.196C161.5 109.537 161.607 109.793 161.82 109.964C162.044 110.124 162.359 110.204 162.764 110.204ZM168.95 111.5V103.148H170.998V104.876H171.078C171.131 104.652 171.211 104.439 171.318 104.236C171.435 104.023 171.584 103.836 171.766 103.676C171.947 103.516 172.16 103.388 172.406 103.292C172.662 103.196 172.955 103.148 173.286 103.148H173.734V105.084H173.094C172.4 105.084 171.878 105.185 171.526 105.388C171.174 105.591 170.998 105.921 170.998 106.38V111.5H168.95ZM177.901 111.5C177.197 111.5 176.659 111.319 176.285 110.956C175.923 110.583 175.741 110.055 175.741 109.372V104.78H174.509V103.148H175.149C175.459 103.148 175.667 103.079 175.773 102.94C175.891 102.791 175.949 102.572 175.949 102.284V100.86H177.789V103.148H179.501V104.78H177.789V109.868H179.373V111.5H177.901ZM184.014 111.692C183.214 111.692 182.542 111.559 181.998 111.292C181.454 111.015 180.974 110.636 180.558 110.156L181.806 108.94C182.115 109.292 182.451 109.569 182.814 109.772C183.187 109.975 183.614 110.076 184.094 110.076C184.584 110.076 184.936 109.991 185.15 109.82C185.374 109.649 185.486 109.415 185.486 109.116C185.486 108.871 185.406 108.679 185.246 108.54C185.096 108.391 184.835 108.289 184.462 108.236L183.63 108.124C182.723 108.007 182.03 107.751 181.55 107.356C181.08 106.951 180.846 106.364 180.846 105.596C180.846 105.191 180.92 104.828 181.07 104.508C181.219 104.177 181.432 103.9 181.71 103.676C181.987 103.441 182.318 103.265 182.702 103.148C183.096 103.02 183.534 102.956 184.014 102.956C184.419 102.956 184.776 102.988 185.086 103.052C185.406 103.105 185.694 103.191 185.95 103.308C186.206 103.415 186.44 103.553 186.654 103.724C186.867 103.884 187.075 104.065 187.278 104.268L186.078 105.468C185.832 105.212 185.539 104.999 185.198 104.828C184.856 104.657 184.483 104.572 184.078 104.572C183.63 104.572 183.304 104.652 183.102 104.812C182.91 104.972 182.814 105.18 182.814 105.436C182.814 105.713 182.894 105.927 183.054 106.076C183.224 106.215 183.507 106.316 183.902 106.38L184.75 106.492C186.552 106.748 187.454 107.569 187.454 108.956C187.454 109.361 187.368 109.735 187.198 110.076C187.038 110.407 186.808 110.695 186.51 110.94C186.211 111.175 185.848 111.361 185.422 111.5C185.006 111.628 184.536 111.692 184.014 111.692ZM200.595 111.5H192.851V109.548L196.355 106.476C196.953 105.953 197.39 105.484 197.667 105.068C197.945 104.641 198.083 104.183 198.083 103.692V103.484C198.083 102.993 197.923 102.62 197.603 102.364C197.283 102.097 196.894 101.964 196.435 101.964C195.859 101.964 195.422 102.129 195.123 102.46C194.825 102.78 194.611 103.169 194.483 103.628L192.659 102.924C192.777 102.551 192.942 102.199 193.155 101.868C193.369 101.527 193.635 101.228 193.955 100.972C194.286 100.716 194.67 100.513 195.107 100.364C195.545 100.215 196.046 100.14 196.611 100.14C197.198 100.14 197.721 100.225 198.179 100.396C198.638 100.556 199.022 100.785 199.331 101.084C199.651 101.383 199.891 101.735 200.051 102.14C200.222 102.545 200.307 102.988 200.307 103.468C200.307 103.937 200.233 104.364 200.083 104.748C199.934 105.132 199.731 105.5 199.475 105.852C199.219 106.193 198.921 106.524 198.579 106.844C198.238 107.153 197.875 107.468 197.491 107.788L195.139 109.724H200.595V111.5ZM206.253 111.692C205.538 111.692 204.92 111.564 204.397 111.308C203.874 111.041 203.442 110.663 203.101 110.172C202.76 109.681 202.504 109.079 202.333 108.364C202.173 107.649 202.093 106.833 202.093 105.916C202.093 105.009 202.173 104.199 202.333 103.484C202.504 102.759 202.76 102.151 203.101 101.66C203.442 101.169 203.874 100.796 204.397 100.54C204.92 100.273 205.538 100.14 206.253 100.14C207.672 100.14 208.717 100.647 209.389 101.66C210.072 102.673 210.413 104.092 210.413 105.916C210.413 107.74 210.072 109.159 209.389 110.172C208.717 111.185 207.672 111.692 206.253 111.692ZM206.253 109.916C206.968 109.916 207.464 109.649 207.741 109.116C208.029 108.572 208.173 107.841 208.173 106.924V104.908C208.173 103.991 208.029 103.265 207.741 102.732C207.464 102.188 206.968 101.916 206.253 101.916C205.538 101.916 205.037 102.188 204.749 102.732C204.472 103.265 204.333 103.991 204.333 104.908V106.924C204.333 107.841 204.472 108.572 204.749 109.116C205.037 109.649 205.538 109.916 206.253 109.916ZM219.783 111.5H212.039V109.548L215.543 106.476C216.14 105.953 216.578 105.484 216.855 105.068C217.132 104.641 217.271 104.183 217.271 103.692V103.484C217.271 102.993 217.111 102.62 216.791 102.364C216.471 102.097 216.082 101.964 215.623 101.964C215.047 101.964 214.61 102.129 214.311 102.46C214.012 102.78 213.799 103.169 213.671 103.628L211.847 102.924C211.964 102.551 212.13 102.199 212.343 101.868C212.556 101.527 212.823 101.228 213.143 100.972C213.474 100.716 213.858 100.513 214.295 100.364C214.732 100.215 215.234 100.14 215.799 100.14C216.386 100.14 216.908 100.225 217.367 100.396C217.826 100.556 218.21 100.785 218.519 101.084C218.839 101.383 219.079 101.735 219.239 102.14C219.41 102.545 219.495 102.988 219.495 103.468C219.495 103.937 219.42 104.364 219.271 104.748C219.122 105.132 218.919 105.5 218.663 105.852C218.407 106.193 218.108 106.524 217.767 106.844C217.426 107.153 217.063 107.468 216.679 107.788L214.327 109.724H219.783V111.5ZM229.377 111.5H221.633V109.548L225.137 106.476C225.734 105.953 226.171 105.484 226.449 105.068C226.726 104.641 226.865 104.183 226.865 103.692V103.484C226.865 102.993 226.705 102.62 226.385 102.364C226.065 102.097 225.675 101.964 225.217 101.964C224.641 101.964 224.203 102.129 223.905 102.46C223.606 102.78 223.393 103.169 223.265 103.628L221.441 102.924C221.558 102.551 221.723 102.199 221.937 101.868C222.15 101.527 222.417 101.228 222.737 100.972C223.067 100.716 223.451 100.513 223.889 100.364C224.326 100.215 224.827 100.14 225.393 100.14C225.979 100.14 226.502 100.225 226.961 100.396C227.419 100.556 227.803 100.785 228.113 101.084C228.433 101.383 228.673 101.735 228.833 102.14C229.003 102.545 229.089 102.988 229.089 103.468C229.089 103.937 229.014 104.364 228.865 104.748C228.715 105.132 228.513 105.5 228.257 105.852C228.001 106.193 227.702 106.524 227.361 106.844C227.019 107.153 226.657 107.468 226.273 107.788L223.921 109.724H229.377V111.5Z" fill="#1A1A1A"/>
<path d="M328.59 100.41L330 99L336 105L330 111L328.59 109.59L333.17 105L328.59 100.41ZM334.59 100.41L336 99L342 105L336 111L334.59 109.59L339.17 105L334.59 100.41Z" fill="black"/>
<path d="M299.59 109.58L304.17 105L299.59 100.41L301 99L307 105L301 111L299.59 109.58Z" fill="black"/>
<rect x="17" y="124" width="1" height="342" transform="rotate(-90 17 124)" fill="#BFBFBF"/>
<rect width="48" height="37" transform="translate(17 124)" fill="white"/>
<path d="M44.6998 139.592H44.6198L43.6758 141.464L41.0038 146.328L38.3318 141.464L37.3878 139.592H37.3078V149H35.9958V137.832H37.7878L40.9878 143.848H41.0678L44.2838 137.832H46.0118V149H44.6998V139.592Z" fill="#1A1A1A"/>
<rect x="65" y="124" width="1" height="37" fill="white"/>
<rect width="48" height="37" transform="translate(66 124)" fill="white"/>
<path d="M90.6699 139.016V149H89.3259V139.016H85.7739V137.832H94.2219V139.016H90.6699Z" fill="#1A1A1A"/>
<rect x="114" y="124" width="1" height="37" fill="white"/>
<rect width="48" height="37" transform="translate(115 124)" fill="white"/>
<path d="M139 149.192C138.275 149.192 137.619 149.069 137.032 148.824C136.456 148.568 135.96 148.2 135.544 147.72C135.139 147.229 134.824 146.627 134.6 145.912C134.376 145.187 134.264 144.355 134.264 143.416C134.264 142.477 134.376 141.651 134.6 140.936C134.824 140.221 135.139 139.619 135.544 139.128C135.96 138.637 136.456 138.269 137.032 138.024C137.619 137.768 138.275 137.64 139 137.64C139.715 137.64 140.365 137.768 140.952 138.024C141.539 138.269 142.035 138.637 142.44 139.128C142.856 139.619 143.176 140.221 143.4 140.936C143.624 141.651 143.736 142.477 143.736 143.416C143.736 144.355 143.624 145.187 143.4 145.912C143.176 146.627 142.856 147.229 142.44 147.72C142.035 148.2 141.539 148.568 140.952 148.824C140.365 149.069 139.715 149.192 139 149.192ZM139 147.992C139.48 147.992 139.923 147.907 140.328 147.736C140.733 147.565 141.08 147.32 141.368 147C141.667 146.68 141.896 146.296 142.056 145.848C142.216 145.4 142.296 144.899 142.296 144.344V142.488C142.296 141.933 142.216 141.432 142.056 140.984C141.896 140.536 141.667 140.152 141.368 139.832C141.08 139.512 140.733 139.267 140.328 139.096C139.923 138.925 139.48 138.84 139 138.84C138.52 138.84 138.077 138.925 137.672 139.096C137.267 139.267 136.915 139.512 136.616 139.832C136.328 140.152 136.104 140.536 135.944 140.984C135.784 141.432 135.704 141.933 135.704 142.488V144.344C135.704 144.899 135.784 145.4 135.944 145.848C136.104 146.296 136.328 146.68 136.616 147C136.915 147.32 137.267 147.565 137.672 147.736C138.077 147.907 138.52 147.992 139 147.992Z" fill="#1A1A1A"/>
<rect x="163" y="124" width="1" height="37" fill="white"/>
<rect width="48" height="37" transform="translate(164 124)" fill="white"/>
<path d="M188.67 139.016V149H187.326V139.016H183.774V137.832H192.222V139.016H188.67Z" fill="#1A1A1A"/>
<rect x="212" y="124" width="1" height="37" fill="white"/>
<rect width="48" height="37" transform="translate(213 124)" fill="white"/>
<path d="M234.019 149V137.832H240.675V139.016H235.363V142.76H240.211V143.944H235.363V149H234.019Z" fill="#1A1A1A"/>
<rect x="261" y="124" width="1" height="37" fill="white"/>
<rect width="48" height="37" transform="translate(262 124)" fill="white"/>
<path d="M283.48 149V137.832H284.824V147.816H289.576V149H283.48Z" fill="#1A1A1A"/>
<rect x="310" y="124" width="1" height="37" fill="white"/>
<rect width="48" height="37" transform="translate(311 124)" fill="white"/>
<path d="M334.976 149.192C334.069 149.192 333.296 149.021 332.656 148.68C332.016 148.328 331.472 147.848 331.024 147.24L332.016 146.408C332.41 146.931 332.848 147.331 333.328 147.608C333.808 147.875 334.373 148.008 335.024 148.008C335.824 148.008 336.432 147.816 336.848 147.432C337.274 147.048 337.488 146.536 337.488 145.896C337.488 145.363 337.328 144.952 337.008 144.664C336.688 144.376 336.16 144.147 335.424 143.976L334.512 143.768C333.488 143.533 332.704 143.181 332.16 142.712C331.626 142.232 331.36 141.56 331.36 140.696C331.36 140.205 331.45 139.768 331.632 139.384C331.813 139 332.064 138.68 332.384 138.424C332.714 138.168 333.104 137.976 333.552 137.848C334.01 137.709 334.512 137.64 335.056 137.64C335.898 137.64 336.618 137.795 337.216 138.104C337.824 138.413 338.336 138.867 338.752 139.464L337.744 140.2C337.434 139.773 337.061 139.437 336.624 139.192C336.186 138.947 335.642 138.824 334.992 138.824C334.277 138.824 333.712 138.979 333.296 139.288C332.89 139.587 332.688 140.04 332.688 140.648C332.688 141.181 332.858 141.587 333.2 141.864C333.552 142.131 334.08 142.344 334.784 142.504L335.696 142.712C336.794 142.957 337.589 143.331 338.08 143.832C338.57 144.333 338.816 145 338.816 145.832C338.816 146.344 338.725 146.808 338.544 147.224C338.373 147.64 338.122 147.992 337.792 148.28C337.461 148.568 337.056 148.792 336.576 148.952C336.106 149.112 335.573 149.192 334.976 149.192Z" fill="#1A1A1A"/>
<rect x="17" y="162" width="1" height="342" transform="rotate(-90 17 162)" fill="#BFBFBF"/>
<rect width="48" height="37" transform="translate(17 162)" fill="#F5F5F5"/>
<path d="M41.9343 187H34.6063V185.624L38.2543 182.264C38.7769 181.784 39.2143 181.277 39.5663 180.744C39.9183 180.2 40.0943 179.656 40.0943 179.112V178.92C40.0943 178.301 39.9236 177.8 39.5823 177.416C39.2409 177.032 38.7236 176.84 38.0303 176.84C37.6889 176.84 37.3903 176.888 37.1343 176.984C36.8783 177.08 36.6543 177.213 36.4623 177.384C36.2809 177.555 36.1263 177.757 35.9983 177.992C35.8809 178.216 35.7849 178.461 35.7103 178.728L34.5103 178.264C34.6169 177.933 34.7609 177.613 34.9423 177.304C35.1343 176.984 35.3689 176.701 35.6463 176.456C35.9343 176.211 36.2756 176.013 36.6703 175.864C37.0756 175.715 37.5503 175.64 38.0943 175.64C38.6383 175.64 39.1236 175.72 39.5503 175.88C39.9769 176.04 40.3343 176.264 40.6223 176.552C40.9103 176.84 41.1289 177.181 41.2783 177.576C41.4383 177.971 41.5183 178.408 41.5183 178.888C41.5183 179.325 41.4543 179.731 41.3263 180.104C41.2089 180.477 41.0436 180.835 40.8303 181.176C40.6169 181.507 40.3556 181.832 40.0463 182.152C39.7476 182.472 39.4223 182.792 39.0703 183.112L36.0623 185.816H41.9343V187ZM50.968 177.016H46.072L45.752 181.272H45.864C46.1307 180.899 46.4293 180.6 46.76 180.376C47.1013 180.152 47.5653 180.04 48.152 180.04C48.632 180.04 49.0747 180.12 49.48 180.28C49.8853 180.44 50.2373 180.669 50.536 180.968C50.8347 181.256 51.064 181.613 51.224 182.04C51.3947 182.467 51.48 182.952 51.48 183.496C51.48 184.04 51.3947 184.541 51.224 185C51.0533 185.448 50.8027 185.837 50.472 186.168C50.152 186.488 49.7573 186.739 49.288 186.92C48.8293 187.101 48.3067 187.192 47.72 187.192C47.2507 187.192 46.8347 187.139 46.472 187.032C46.12 186.925 45.8053 186.781 45.528 186.6C45.2507 186.419 45.0053 186.216 44.792 185.992C44.5893 185.768 44.4027 185.533 44.232 185.288L45.24 184.52C45.3787 184.744 45.5227 184.947 45.672 185.128C45.832 185.309 46.0027 185.464 46.184 185.592C46.376 185.72 46.5947 185.821 46.84 185.896C47.0853 185.96 47.3787 185.992 47.72 185.992C48.488 185.992 49.0693 185.789 49.464 185.384C49.8587 184.979 50.056 184.408 50.056 183.672V183.512C50.056 182.776 49.8587 182.205 49.464 181.8C49.0693 181.395 48.488 181.192 47.72 181.192C47.208 181.192 46.8027 181.288 46.504 181.48C46.216 181.661 45.9547 181.88 45.72 182.136L44.584 181.976L44.984 175.832H50.968V177.016Z" fill="#BFBFBF"/>
<rect x="65" y="162" width="1" height="37" fill="#BFBFBF"/>
<rect width="48" height="37" transform="translate(66 162)" fill="#F5F5F5"/>
<path d="M90.9343 187H83.6063V185.624L87.2543 182.264C87.7769 181.784 88.2143 181.277 88.5663 180.744C88.9183 180.2 89.0943 179.656 89.0943 179.112V178.92C89.0943 178.301 88.9236 177.8 88.5823 177.416C88.2409 177.032 87.7236 176.84 87.0303 176.84C86.6889 176.84 86.3903 176.888 86.1343 176.984C85.8783 177.08 85.6543 177.213 85.4623 177.384C85.2809 177.555 85.1263 177.757 84.9983 177.992C84.8809 178.216 84.7849 178.461 84.7103 178.728L83.5103 178.264C83.6169 177.933 83.7609 177.613 83.9423 177.304C84.1343 176.984 84.3689 176.701 84.6463 176.456C84.9343 176.211 85.2756 176.013 85.6703 175.864C86.0756 175.715 86.5503 175.64 87.0943 175.64C87.6383 175.64 88.1236 175.72 88.5503 175.88C88.9769 176.04 89.3343 176.264 89.6223 176.552C89.9103 176.84 90.1289 177.181 90.2783 177.576C90.4383 177.971 90.5183 178.408 90.5183 178.888C90.5183 179.325 90.4543 179.731 90.3263 180.104C90.2089 180.477 90.0436 180.835 89.8303 181.176C89.6169 181.507 89.3556 181.832 89.0463 182.152C88.7476 182.472 88.4223 182.792 88.0703 183.112L85.0623 185.816H90.9343V187ZM96.816 187.192C96.24 187.192 95.7173 187.096 95.248 186.904C94.7893 186.701 94.3947 186.419 94.064 186.056C93.744 185.683 93.4987 185.229 93.328 184.696C93.1573 184.163 93.072 183.565 93.072 182.904C93.072 182.072 93.1947 181.293 93.44 180.568C93.6853 179.832 94 179.165 94.384 178.568C94.7787 177.96 95.2107 177.427 95.68 176.968C96.1493 176.499 96.608 176.12 97.056 175.832H98.784C98.1867 176.269 97.6533 176.696 97.184 177.112C96.7147 177.528 96.304 177.965 95.952 178.424C95.6 178.872 95.3013 179.357 95.056 179.88C94.8107 180.392 94.6133 180.973 94.464 181.624L94.544 181.656C94.8107 181.197 95.152 180.819 95.568 180.52C95.9947 180.211 96.5493 180.056 97.232 180.056C97.712 180.056 98.1547 180.136 98.56 180.296C98.9653 180.456 99.312 180.685 99.6 180.984C99.888 181.283 100.112 181.645 100.272 182.072C100.443 182.499 100.528 182.973 100.528 183.496C100.528 184.04 100.437 184.541 100.256 185C100.085 185.448 99.8347 185.837 99.504 186.168C99.184 186.488 98.7947 186.739 98.336 186.92C97.8773 187.101 97.3707 187.192 96.816 187.192ZM96.8 186.024C97.536 186.024 98.1067 185.821 98.512 185.416C98.928 185.011 99.136 184.429 99.136 183.672V183.544C99.136 182.787 98.928 182.205 98.512 181.8C98.1067 181.395 97.536 181.192 96.8 181.192C96.064 181.192 95.488 181.395 95.072 181.8C94.6667 182.205 94.464 182.787 94.464 183.544V183.672C94.464 184.429 94.6667 185.011 95.072 185.416C95.488 185.821 96.064 186.024 96.8 186.024Z" fill="#BFBFBF"/>
<rect x="114" y="162" width="1" height="37" fill="#BFBFBF"/>
<rect width="48" height="37" transform="translate(115 162)" fill="#F5F5F5"/>
<path d="M139.934 187H132.606V185.624L136.254 182.264C136.777 181.784 137.214 181.277 137.566 180.744C137.918 180.2 138.094 179.656 138.094 179.112V178.92C138.094 178.301 137.924 177.8 137.582 177.416C137.241 177.032 136.724 176.84 136.03 176.84C135.689 176.84 135.39 176.888 135.134 176.984C134.878 177.08 134.654 177.213 134.462 177.384C134.281 177.555 134.126 177.757 133.998 177.992C133.881 178.216 133.785 178.461 133.71 178.728L132.51 178.264C132.617 177.933 132.761 177.613 132.942 177.304C133.134 176.984 133.369 176.701 133.646 176.456C133.934 176.211 134.276 176.013 134.67 175.864C135.076 175.715 135.55 175.64 136.094 175.64C136.638 175.64 137.124 175.72 137.55 175.88C137.977 176.04 138.334 176.264 138.622 176.552C138.91 176.84 139.129 177.181 139.278 177.576C139.438 177.971 139.518 178.408 139.518 178.888C139.518 179.325 139.454 179.731 139.326 180.104C139.209 180.477 139.044 180.835 138.83 181.176C138.617 181.507 138.356 181.832 138.046 182.152C137.748 182.472 137.422 182.792 137.07 183.112L134.062 185.816H139.934V187ZM143.8 187L148.072 176.984H143.304V179.064H142.104V175.832H149.432V177.016L145.24 187H143.8Z" fill="#BFBFBF"/>
<rect x="163" y="162" width="1" height="37" fill="#BFBFBF"/>
<rect width="48" height="37" transform="translate(164 162)" fill="#F5F5F5"/>
<path d="M188.934 187H181.606V185.624L185.254 182.264C185.777 181.784 186.214 181.277 186.566 180.744C186.918 180.2 187.094 179.656 187.094 179.112V178.92C187.094 178.301 186.924 177.8 186.582 177.416C186.241 177.032 185.724 176.84 185.03 176.84C184.689 176.84 184.39 176.888 184.134 176.984C183.878 177.08 183.654 177.213 183.462 177.384C183.281 177.555 183.126 177.757 182.998 177.992C182.881 178.216 182.785 178.461 182.71 178.728L181.51 178.264C181.617 177.933 181.761 177.613 181.942 177.304C182.134 176.984 182.369 176.701 182.646 176.456C182.934 176.211 183.276 176.013 183.67 175.864C184.076 175.715 184.55 175.64 185.094 175.64C185.638 175.64 186.124 175.72 186.55 175.88C186.977 176.04 187.334 176.264 187.622 176.552C187.91 176.84 188.129 177.181 188.278 177.576C188.438 177.971 188.518 178.408 188.518 178.888C188.518 179.325 188.454 179.731 188.326 180.104C188.209 180.477 188.044 180.835 187.83 181.176C187.617 181.507 187.356 181.832 187.046 182.152C186.748 182.472 186.422 182.792 186.07 183.112L183.062 185.816H188.934V187ZM194.8 187.192C194.16 187.192 193.6 187.112 193.12 186.952C192.64 186.781 192.235 186.552 191.904 186.264C191.584 185.976 191.339 185.635 191.168 185.24C191.008 184.845 190.928 184.419 190.928 183.96C190.928 183.192 191.136 182.584 191.552 182.136C191.968 181.688 192.512 181.373 193.184 181.192V181.064C192.597 180.861 192.128 180.536 191.776 180.088C191.435 179.629 191.264 179.08 191.264 178.44C191.264 177.587 191.573 176.909 192.192 176.408C192.811 175.896 193.68 175.64 194.8 175.64C195.92 175.64 196.789 175.896 197.408 176.408C198.027 176.909 198.336 177.587 198.336 178.44C198.336 179.08 198.16 179.629 197.808 180.088C197.467 180.536 197.003 180.861 196.416 181.064V181.192C197.088 181.373 197.632 181.688 198.048 182.136C198.464 182.584 198.672 183.192 198.672 183.96C198.672 184.419 198.587 184.845 198.416 185.24C198.256 185.635 198.011 185.976 197.68 186.264C197.36 186.552 196.96 186.781 196.48 186.952C196 187.112 195.44 187.192 194.8 187.192ZM194.8 186.024C195.579 186.024 196.181 185.853 196.608 185.512C197.035 185.16 197.248 184.664 197.248 184.024V183.688C197.248 183.048 197.035 182.557 196.608 182.216C196.181 181.864 195.579 181.688 194.8 181.688C194.021 181.688 193.419 181.864 192.992 182.216C192.565 182.557 192.352 183.048 192.352 183.688V184.024C192.352 184.664 192.565 185.16 192.992 185.512C193.419 185.853 194.021 186.024 194.8 186.024ZM194.8 180.568C195.504 180.568 196.037 180.419 196.4 180.12C196.763 179.821 196.944 179.384 196.944 178.808V178.568C196.944 177.992 196.763 177.555 196.4 177.256C196.037 176.957 195.504 176.808 194.8 176.808C194.096 176.808 193.563 176.957 193.2 177.256C192.837 177.555 192.656 177.992 192.656 178.568V178.808C192.656 179.384 192.837 179.821 193.2 180.12C193.563 180.419 194.096 180.568 194.8 180.568Z" fill="#BFBFBF"/>
<rect x="212" y="162" width="1" height="37" fill="#C4C4C4"/>
<rect width="48" height="37" transform="translate(213 162)" fill="white"/>
<path d="M240.611 187V185.816H243.731V176.824H243.619L240.803 179.448L240.019 178.6L242.979 175.832H245.075V185.816H247.955V187H240.611Z" fill="#BFBFBF"/>
<rect x="261" y="162" width="1" height="37" fill="#C4C4C4"/>
<rect width="48" height="37" transform="translate(262 162)" fill="white"/>
<path d="M296.731 187H289.403V185.624L293.051 182.264C293.574 181.784 294.011 181.277 294.363 180.744C294.715 180.2 294.891 179.656 294.891 179.112V178.92C294.891 178.301 294.72 177.8 294.379 177.416C294.038 177.032 293.52 176.84 292.827 176.84C292.486 176.84 292.187 176.888 291.931 176.984C291.675 177.08 291.451 177.213 291.259 177.384C291.078 177.555 290.923 177.757 290.795 177.992C290.678 178.216 290.582 178.461 290.507 178.728L289.307 178.264C289.414 177.933 289.558 177.613 289.739 177.304C289.931 176.984 290.166 176.701 290.443 176.456C290.731 176.211 291.072 176.013 291.467 175.864C291.872 175.715 292.347 175.64 292.891 175.64C293.435 175.64 293.92 175.72 294.347 175.88C294.774 176.04 295.131 176.264 295.419 176.552C295.707 176.84 295.926 177.181 296.075 177.576C296.235 177.971 296.315 178.408 296.315 178.888C296.315 179.325 296.251 179.731 296.123 180.104C296.006 180.477 295.84 180.835 295.627 181.176C295.414 181.507 295.152 181.832 294.843 182.152C294.544 182.472 294.219 182.792 293.867 183.112L290.859 185.816H296.731V187Z" fill="#BFBFBF"/>
<rect x="310" y="162" width="1" height="37" fill="#C4C4C4"/>
<rect width="48" height="37" transform="translate(311 162)" fill="white"/>
<path d="M341.379 180.568C342.136 180.568 342.702 180.397 343.075 180.056C343.459 179.704 343.651 179.256 343.651 178.712V178.6C343.651 178.013 343.464 177.576 343.091 177.288C342.728 176.989 342.248 176.84 341.651 176.84C341.075 176.84 340.606 176.968 340.243 177.224C339.88 177.469 339.582 177.805 339.347 178.232L338.355 177.464C338.494 177.24 338.659 177.021 338.851 176.808C339.054 176.584 339.288 176.387 339.555 176.216C339.822 176.045 340.131 175.907 340.483 175.8C340.835 175.693 341.235 175.64 341.683 175.64C342.152 175.64 342.595 175.704 343.011 175.832C343.427 175.949 343.784 176.131 344.083 176.376C344.392 176.611 344.632 176.904 344.803 177.256C344.984 177.608 345.075 178.008 345.075 178.456C345.075 178.819 345.016 179.144 344.899 179.432C344.792 179.72 344.643 179.971 344.451 180.184C344.259 180.397 344.03 180.579 343.763 180.728C343.507 180.877 343.23 180.989 342.931 181.064V181.128C343.23 181.192 343.518 181.299 343.795 181.448C344.083 181.587 344.334 181.773 344.547 182.008C344.771 182.232 344.947 182.509 345.075 182.84C345.214 183.16 345.283 183.528 345.283 183.944C345.283 184.424 345.192 184.867 345.011 185.272C344.83 185.667 344.574 186.008 344.243 186.296C343.912 186.573 343.512 186.792 343.043 186.952C342.574 187.112 342.056 187.192 341.491 187.192C341.011 187.192 340.584 187.139 340.211 187.032C339.838 186.925 339.507 186.781 339.219 186.6C338.931 186.419 338.675 186.216 338.451 185.992C338.238 185.768 338.046 185.533 337.875 185.288L338.883 184.52C339.022 184.744 339.171 184.947 339.331 185.128C339.502 185.309 339.688 185.464 339.891 185.592C340.094 185.72 340.323 185.821 340.579 185.896C340.835 185.96 341.134 185.992 341.475 185.992C342.264 185.992 342.862 185.816 343.267 185.464C343.672 185.101 343.875 184.589 343.875 183.928V183.8C343.875 183.139 343.672 182.632 343.267 182.28C342.862 181.917 342.264 181.736 341.475 181.736H340.163V180.568H341.379Z" fill="#BFBFBF"/>
<rect x="17" y="200" width="1" height="342" transform="rotate(-90 17 200)" fill="#BFBFBF"/>
<rect width="48" height="37" transform="translate(17 200)" fill="white"/>
<path d="M49.2031 225V222.808H43.8111V221.624L48.4831 213.832H50.4831V221.688H52.0991V222.808H50.4831V225H49.2031ZM45.0751 221.688H49.2031V214.872H49.1231L45.0751 221.688Z" fill="#BFBFBF"/>
<rect x="65" y="200" width="1" height="37" fill="#C4C4C4"/>
<rect width="48" height="37" transform="translate(66 200)" fill="white"/>
<path d="M100.171 215.016H95.2751L94.9551 219.272H95.0671C95.3338 218.899 95.6325 218.6 95.9631 218.376C96.3045 218.152 96.7685 218.04 97.3551 218.04C97.8351 218.04 98.2778 218.12 98.6831 218.28C99.0885 218.44 99.4405 218.669 99.7391 218.968C100.038 219.256 100.267 219.613 100.427 220.04C100.598 220.467 100.683 220.952 100.683 221.496C100.683 222.04 100.598 222.541 100.427 223C100.256 223.448 100.006 223.837 99.6751 224.168C99.3551 224.488 98.9605 224.739 98.4911 224.92C98.0325 225.101 97.5098 225.192 96.9231 225.192C96.4538 225.192 96.0378 225.139 95.6751 225.032C95.3231 224.925 95.0085 224.781 94.7311 224.6C94.4538 224.419 94.2085 224.216 93.9951 223.992C93.7925 223.768 93.6058 223.533 93.4351 223.288L94.4431 222.52C94.5818 222.744 94.7258 222.947 94.8751 223.128C95.0351 223.309 95.2058 223.464 95.3871 223.592C95.5791 223.72 95.7978 223.821 96.0431 223.896C96.2885 223.96 96.5818 223.992 96.9231 223.992C97.6911 223.992 98.2725 223.789 98.6671 223.384C99.0618 222.979 99.2591 222.408 99.2591 221.672V221.512C99.2591 220.776 99.0618 220.205 98.6671 219.8C98.2725 219.395 97.6911 219.192 96.9231 219.192C96.4111 219.192 96.0058 219.288 95.7071 219.48C95.4191 219.661 95.1578 219.88 94.9231 220.136L93.7871 219.976L94.1871 213.832H100.171V215.016Z" fill="#BFBFBF"/>
<rect x="114" y="200" width="1" height="37" fill="#C4C4C4"/>
<rect width="48" height="37" transform="translate(115 200)" fill="white"/>
<path d="M146.019 225.192C145.443 225.192 144.92 225.096 144.451 224.904C143.992 224.701 143.598 224.419 143.267 224.056C142.947 223.683 142.702 223.229 142.531 222.696C142.36 222.163 142.275 221.565 142.275 220.904C142.275 220.072 142.398 219.293 142.643 218.568C142.888 217.832 143.203 217.165 143.587 216.568C143.982 215.96 144.414 215.427 144.883 214.968C145.352 214.499 145.811 214.12 146.259 213.832H147.987C147.39 214.269 146.856 214.696 146.387 215.112C145.918 215.528 145.507 215.965 145.155 216.424C144.803 216.872 144.504 217.357 144.259 217.88C144.014 218.392 143.816 218.973 143.667 219.624L143.747 219.656C144.014 219.197 144.355 218.819 144.771 218.52C145.198 218.211 145.752 218.056 146.435 218.056C146.915 218.056 147.358 218.136 147.763 218.296C148.168 218.456 148.515 218.685 148.803 218.984C149.091 219.283 149.315 219.645 149.475 220.072C149.646 220.499 149.731 220.973 149.731 221.496C149.731 222.04 149.64 222.541 149.459 223C149.288 223.448 149.038 223.837 148.707 224.168C148.387 224.488 147.998 224.739 147.539 224.92C147.08 225.101 146.574 225.192 146.019 225.192ZM146.003 224.024C146.739 224.024 147.31 223.821 147.715 223.416C148.131 223.011 148.339 222.429 148.339 221.672V221.544C148.339 220.787 148.131 220.205 147.715 219.8C147.31 219.395 146.739 219.192 146.003 219.192C145.267 219.192 144.691 219.395 144.275 219.8C143.87 220.205 143.667 220.787 143.667 221.544V221.672C143.667 222.429 143.87 223.011 144.275 223.416C144.691 223.821 145.267 224.024 146.003 224.024Z" fill="#1A1A1A"/>
<rect x="163" y="200" width="1" height="37" fill="#C4C4C4"/>
<rect width="48" height="37" transform="translate(164 200)" fill="#454545"/>
<path d="M192.907 225L196.795 215.544H192.939V217.592H191.147V213.832H198.891V215.64L195.115 225H192.907Z" fill="white"/>
<rect x="212" y="200" width="1" height="37" fill="#C4C4C4"/>
<rect width="48" height="37" transform="translate(213 200)" fill="white"/>
<path d="M244.003 225.192C243.363 225.192 242.803 225.112 242.323 224.952C241.843 224.781 241.438 224.552 241.107 224.264C240.787 223.976 240.542 223.635 240.371 223.24C240.211 222.845 240.131 222.419 240.131 221.96C240.131 221.192 240.339 220.584 240.755 220.136C241.171 219.688 241.715 219.373 242.387 219.192V219.064C241.8 218.861 241.331 218.536 240.979 218.088C240.638 217.629 240.467 217.08 240.467 216.44C240.467 215.587 240.776 214.909 241.395 214.408C242.014 213.896 242.883 213.64 244.003 213.64C245.123 213.64 245.992 213.896 246.611 214.408C247.23 214.909 247.539 215.587 247.539 216.44C247.539 217.08 247.363 217.629 247.011 218.088C246.67 218.536 246.206 218.861 245.619 219.064V219.192C246.291 219.373 246.835 219.688 247.251 220.136C247.667 220.584 247.875 221.192 247.875 221.96C247.875 222.419 247.79 222.845 247.619 223.24C247.459 223.635 247.214 223.976 246.883 224.264C246.563 224.552 246.163 224.781 245.683 224.952C245.203 225.112 244.643 225.192 244.003 225.192ZM244.003 224.024C244.782 224.024 245.384 223.853 245.811 223.512C246.238 223.16 246.451 222.664 246.451 222.024V221.688C246.451 221.048 246.238 220.557 245.811 220.216C245.384 219.864 244.782 219.688 244.003 219.688C243.224 219.688 242.622 219.864 242.195 220.216C241.768 220.557 241.555 221.048 241.555 221.688V222.024C241.555 222.664 241.768 223.16 242.195 223.512C242.622 223.853 243.224 224.024 244.003 224.024ZM244.003 218.568C244.707 218.568 245.24 218.419 245.603 218.12C245.966 217.821 246.147 217.384 246.147 216.808V216.568C246.147 215.992 245.966 215.555 245.603 215.256C245.24 214.957 244.707 214.808 244.003 214.808C243.299 214.808 242.766 214.957 242.403 215.256C242.04 215.555 241.859 215.992 241.859 216.568V216.808C241.859 217.384 242.04 217.821 242.403 218.12C242.766 218.419 243.299 218.568 244.003 218.568Z" fill="#1A1A1A"/>
<rect x="261" y="200" width="1" height="37" fill="#C4C4C4"/>
<rect width="48" height="37" transform="translate(262 200)" fill="white"/>
<path d="M296.731 217.928C296.731 218.76 296.608 219.544 296.363 220.28C296.118 221.005 295.798 221.672 295.403 222.28C295.019 222.877 294.592 223.411 294.123 223.88C293.654 224.339 293.195 224.712 292.747 225H291.019C291.616 224.563 292.15 224.136 292.619 223.72C293.088 223.304 293.499 222.872 293.851 222.424C294.203 221.965 294.502 221.48 294.747 220.968C294.992 220.445 295.19 219.859 295.339 219.208L295.259 219.176C294.992 219.635 294.646 220.019 294.219 220.328C293.803 220.627 293.254 220.776 292.571 220.776C292.091 220.776 291.648 220.696 291.243 220.536C290.838 220.376 290.491 220.147 290.203 219.848C289.915 219.549 289.686 219.192 289.515 218.776C289.355 218.349 289.275 217.869 289.275 217.336C289.275 216.792 289.36 216.296 289.531 215.848C289.712 215.389 289.963 215 290.283 214.68C290.614 214.349 291.003 214.093 291.451 213.912C291.91 213.731 292.422 213.64 292.987 213.64C293.563 213.64 294.08 213.741 294.539 213.944C295.008 214.136 295.403 214.419 295.723 214.792C296.054 215.155 296.304 215.603 296.475 216.136C296.646 216.669 296.731 217.267 296.731 217.928ZM293.003 219.64C293.739 219.64 294.31 219.437 294.715 219.032C295.131 218.627 295.339 218.045 295.339 217.288V217.16C295.339 216.403 295.131 215.821 294.715 215.416C294.31 215.011 293.739 214.808 293.003 214.808C292.267 214.808 291.691 215.011 291.275 215.416C290.87 215.821 290.667 216.403 290.667 217.16V217.288C290.667 218.045 290.87 218.627 291.275 219.032C291.691 219.437 292.267 219.64 293.003 219.64Z" fill="#BFBFBF"/>
<rect x="310" y="200" width="1" height="37" fill="#C4C4C4"/>
<rect width="48" height="37" transform="translate(311 200)" fill="white"/>
<path d="M328.814 225V223.816H331.934V214.824H331.822L329.006 217.448L328.222 216.6L331.182 213.832H333.278V223.816H336.158V225H328.814ZM341.8 225.192C340.467 225.192 339.491 224.685 338.872 223.672C338.264 222.659 337.96 221.24 337.96 219.416C337.96 217.592 338.264 216.173 338.872 215.16C339.491 214.147 340.467 213.64 341.8 213.64C343.133 213.64 344.104 214.147 344.712 215.16C345.331 216.173 345.64 217.592 345.64 219.416C345.64 221.24 345.331 222.659 344.712 223.672C344.104 224.685 343.133 225.192 341.8 225.192ZM341.8 224.024C342.237 224.024 342.611 223.933 342.92 223.752C343.229 223.571 343.48 223.315 343.672 222.984C343.864 222.653 344.003 222.264 344.088 221.816C344.184 221.368 344.232 220.872 344.232 220.328V218.504C344.232 217.96 344.184 217.464 344.088 217.016C344.003 216.568 343.864 216.179 343.672 215.848C343.48 215.517 343.229 215.261 342.92 215.08C342.611 214.899 342.237 214.808 341.8 214.808C341.363 214.808 340.989 214.899 340.68 215.08C340.371 215.261 340.12 215.517 339.928 215.848C339.736 216.179 339.592 216.568 339.496 217.016C339.411 217.464 339.368 217.96 339.368 218.504V220.328C339.368 220.872 339.411 221.368 339.496 221.816C339.592 222.264 339.736 222.653 339.928 222.984C340.12 223.315 340.371 223.571 340.68 223.752C340.989 223.933 341.363 224.024 341.8 224.024Z" fill="#BFBFBF"/>
<rect x="17" y="238" width="1" height="342" transform="rotate(-90 17 238)" fill="#BFBFBF"/>
<rect width="48" height="37" transform="translate(17 238)" fill="white"/>
<path d="M34.8143 263V261.816H37.9343V252.824H37.8223L35.0063 255.448L34.2223 254.6L37.1823 251.832H39.2783V261.816H42.1583V263H34.8143ZM44.408 263V261.816H47.528V252.824H47.416L44.6 255.448L43.816 254.6L46.776 251.832H48.872V261.816H51.752V263H44.408Z" fill="#1A1A1A"/>
<rect x="65" y="238" width="1" height="37" fill="#C4C4C4"/>
<rect width="48" height="37" transform="translate(66 238)" fill="white"/>
<path d="M83.8143 263V261.816H86.9343V252.824H86.8223L84.0063 255.448L83.2223 254.6L86.1823 251.832H88.2783V261.816H91.1583V263H83.8143ZM100.528 263H93.2V261.624L96.848 258.264C97.3707 257.784 97.808 257.277 98.16 256.744C98.512 256.2 98.688 255.656 98.688 255.112V254.92C98.688 254.301 98.5173 253.8 98.176 253.416C97.8347 253.032 97.3173 252.84 96.624 252.84C96.2827 252.84 95.984 252.888 95.728 252.984C95.472 253.08 95.248 253.213 95.056 253.384C94.8747 253.555 94.72 253.757 94.592 253.992C94.4747 254.216 94.3787 254.461 94.304 254.728L93.104 254.264C93.2107 253.933 93.3547 253.613 93.536 253.304C93.728 252.984 93.9627 252.701 94.24 252.456C94.528 252.211 94.8693 252.013 95.264 251.864C95.6693 251.715 96.144 251.64 96.688 251.64C97.232 251.64 97.7173 251.72 98.144 251.88C98.5707 252.04 98.928 252.264 99.216 252.552C99.504 252.84 99.7227 253.181 99.872 253.576C100.032 253.971 100.112 254.408 100.112 254.888C100.112 255.325 100.048 255.731 99.92 256.104C99.8027 256.477 99.6373 256.835 99.424 257.176C99.2107 257.507 98.9493 257.832 98.64 258.152C98.3413 258.472 98.016 258.792 97.664 259.112L94.656 261.816H100.528V263Z" fill="#1A1A1A"/>
<rect x="114" y="238" width="1" height="37" fill="#C4C4C4"/>
<rect width="48" height="37" transform="translate(115 238)" fill="white"/>
<path d="M132.814 263V261.816H135.934V252.824H135.822L133.006 255.448L132.222 254.6L135.182 251.832H137.278V261.816H140.158V263H132.814ZM145.176 256.568C145.933 256.568 146.499 256.397 146.872 256.056C147.256 255.704 147.448 255.256 147.448 254.712V254.6C147.448 254.013 147.261 253.576 146.888 253.288C146.525 252.989 146.045 252.84 145.448 252.84C144.872 252.84 144.403 252.968 144.04 253.224C143.677 253.469 143.379 253.805 143.144 254.232L142.152 253.464C142.291 253.24 142.456 253.021 142.648 252.808C142.851 252.584 143.085 252.387 143.352 252.216C143.619 252.045 143.928 251.907 144.28 251.8C144.632 251.693 145.032 251.64 145.48 251.64C145.949 251.64 146.392 251.704 146.808 251.832C147.224 251.949 147.581 252.131 147.88 252.376C148.189 252.611 148.429 252.904 148.6 253.256C148.781 253.608 148.872 254.008 148.872 254.456C148.872 254.819 148.813 255.144 148.696 255.432C148.589 255.72 148.44 255.971 148.248 256.184C148.056 256.397 147.827 256.579 147.56 256.728C147.304 256.877 147.027 256.989 146.728 257.064V257.128C147.027 257.192 147.315 257.299 147.592 257.448C147.88 257.587 148.131 257.773 148.344 258.008C148.568 258.232 148.744 258.509 148.872 258.84C149.011 259.16 149.08 259.528 149.08 259.944C149.08 260.424 148.989 260.867 148.808 261.272C148.627 261.667 148.371 262.008 148.04 262.296C147.709 262.573 147.309 262.792 146.84 262.952C146.371 263.112 145.853 263.192 145.288 263.192C144.808 263.192 144.381 263.139 144.008 263.032C143.635 262.925 143.304 262.781 143.016 262.6C142.728 262.419 142.472 262.216 142.248 261.992C142.035 261.768 141.843 261.533 141.672 261.288L142.68 260.52C142.819 260.744 142.968 260.947 143.128 261.128C143.299 261.309 143.485 261.464 143.688 261.592C143.891 261.72 144.12 261.821 144.376 261.896C144.632 261.96 144.931 261.992 145.272 261.992C146.061 261.992 146.659 261.816 147.064 261.464C147.469 261.101 147.672 260.589 147.672 259.928V259.8C147.672 259.139 147.469 258.632 147.064 258.28C146.659 257.917 146.061 257.736 145.272 257.736H143.96V256.568H145.176Z" fill="#1A1A1A"/>
<rect x="163" y="238" width="1" height="37" fill="#C4C4C4"/>
<rect width="48" height="37" transform="translate(164 238)" fill="white"/>
<path d="M181.814 263V261.816H184.934V252.824H184.822L182.006 255.448L181.222 254.6L184.182 251.832H186.278V261.816H189.158V263H181.814ZM196 263V260.808H190.608V259.624L195.28 251.832H197.28V259.688H198.896V260.808H197.28V263H196ZM191.872 259.688H196V252.872H195.92L191.872 259.688Z" fill="#1A1A1A"/>
<rect x="212" y="238" width="1" height="37" fill="#C4C4C4"/>
<rect width="48" height="37" transform="translate(213 238)" fill="white"/>
<path d="M230.814 263V261.816H233.934V252.824H233.822L231.006 255.448L230.222 254.6L233.182 251.832H235.278V261.816H238.158V263H230.814ZM246.968 253.016H242.072L241.752 257.272H241.864C242.131 256.899 242.429 256.6 242.76 256.376C243.101 256.152 243.565 256.04 244.152 256.04C244.632 256.04 245.075 256.12 245.48 256.28C245.885 256.44 246.237 256.669 246.536 256.968C246.835 257.256 247.064 257.613 247.224 258.04C247.395 258.467 247.48 258.952 247.48 259.496C247.48 260.04 247.395 260.541 247.224 261C247.053 261.448 246.803 261.837 246.472 262.168C246.152 262.488 245.757 262.739 245.288 262.92C244.829 263.101 244.307 263.192 243.72 263.192C243.251 263.192 242.835 263.139 242.472 263.032C242.12 262.925 241.805 262.781 241.528 262.6C241.251 262.419 241.005 262.216 240.792 261.992C240.589 261.768 240.403 261.533 240.232 261.288L241.24 260.52C241.379 260.744 241.523 260.947 241.672 261.128C241.832 261.309 242.003 261.464 242.184 261.592C242.376 261.72 242.595 261.821 242.84 261.896C243.085 261.96 243.379 261.992 243.72 261.992C244.488 261.992 245.069 261.789 245.464 261.384C245.859 260.979 246.056 260.408 246.056 259.672V259.512C246.056 258.776 245.859 258.205 245.464 257.8C245.069 257.395 244.488 257.192 243.72 257.192C243.208 257.192 242.803 257.288 242.504 257.48C242.216 257.661 241.955 257.88 241.72 258.136L240.584 257.976L240.984 251.832H246.968V253.016Z" fill="#1A1A1A"/>
<rect x="261" y="238" width="1" height="37" fill="#C4C4C4"/>
<rect width="48" height="37" transform="translate(262 238)" fill="white"/>
<path d="M279.814 263V261.816H282.934V252.824H282.822L280.006 255.448L279.222 254.6L282.182 251.832H284.278V261.816H287.158V263H279.814ZM292.816 263.192C292.24 263.192 291.717 263.096 291.248 262.904C290.789 262.701 290.395 262.419 290.064 262.056C289.744 261.683 289.499 261.229 289.328 260.696C289.157 260.163 289.072 259.565 289.072 258.904C289.072 258.072 289.195 257.293 289.44 256.568C289.685 255.832 290 255.165 290.384 254.568C290.779 253.96 291.211 253.427 291.68 252.968C292.149 252.499 292.608 252.12 293.056 251.832H294.784C294.187 252.269 293.653 252.696 293.184 253.112C292.715 253.528 292.304 253.965 291.952 254.424C291.6 254.872 291.301 255.357 291.056 255.88C290.811 256.392 290.613 256.973 290.464 257.624L290.544 257.656C290.811 257.197 291.152 256.819 291.568 256.52C291.995 256.211 292.549 256.056 293.232 256.056C293.712 256.056 294.155 256.136 294.56 256.296C294.965 256.456 295.312 256.685 295.6 256.984C295.888 257.283 296.112 257.645 296.272 258.072C296.443 258.499 296.528 258.973 296.528 259.496C296.528 260.04 296.437 260.541 296.256 261C296.085 261.448 295.835 261.837 295.504 262.168C295.184 262.488 294.795 262.739 294.336 262.92C293.877 263.101 293.371 263.192 292.816 263.192ZM292.8 262.024C293.536 262.024 294.107 261.821 294.512 261.416C294.928 261.011 295.136 260.429 295.136 259.672V259.544C295.136 258.787 294.928 258.205 294.512 257.8C294.107 257.395 293.536 257.192 292.8 257.192C292.064 257.192 291.488 257.395 291.072 257.8C290.667 258.205 290.464 258.787 290.464 259.544V259.672C290.464 260.429 290.667 261.011 291.072 261.416C291.488 261.821 292.064 262.024 292.8 262.024Z" fill="#BFBFBF"/>
<rect x="310" y="238" width="1" height="37" fill="#C4C4C4"/>
<rect width="48" height="37" transform="translate(311 238)" fill="white"/>
<path d="M328.814 263V261.816H331.934V252.824H331.822L329.006 255.448L328.222 254.6L331.182 251.832H333.278V261.816H336.158V263H328.814ZM339.8 263L344.072 252.984H339.304V255.064H338.104V251.832H345.432V253.016L341.24 263H339.8Z" fill="#BFBFBF"/>
<rect x="17" y="276" width="1" height="342" transform="rotate(-90 17 276)" fill="#BFBFBF"/>
<rect width="48" height="37" transform="translate(17 276)" fill="white"/>
<path d="M34.8143 301V299.816H37.9343V290.824H37.8223L35.0063 293.448L34.2223 292.6L37.1823 289.832H39.2783V299.816H42.1583V301H34.8143ZM47.8 301.192C47.16 301.192 46.6 301.112 46.12 300.952C45.64 300.781 45.2347 300.552 44.904 300.264C44.584 299.976 44.3387 299.635 44.168 299.24C44.008 298.845 43.928 298.419 43.928 297.96C43.928 297.192 44.136 296.584 44.552 296.136C44.968 295.688 45.512 295.373 46.184 295.192V295.064C45.5973 294.861 45.128 294.536 44.776 294.088C44.4347 293.629 44.264 293.08 44.264 292.44C44.264 291.587 44.5733 290.909 45.192 290.408C45.8107 289.896 46.68 289.64 47.8 289.64C48.92 289.64 49.7893 289.896 50.408 290.408C51.0267 290.909 51.336 291.587 51.336 292.44C51.336 293.08 51.16 293.629 50.808 294.088C50.4667 294.536 50.0027 294.861 49.416 295.064V295.192C50.088 295.373 50.632 295.688 51.048 296.136C51.464 296.584 51.672 297.192 51.672 297.96C51.672 298.419 51.5867 298.845 51.416 299.24C51.256 299.635 51.0107 299.976 50.68 300.264C50.36 300.552 49.96 300.781 49.48 300.952C49 301.112 48.44 301.192 47.8 301.192ZM47.8 300.024C48.5787 300.024 49.1813 299.853 49.608 299.512C50.0347 299.16 50.248 298.664 50.248 298.024V297.688C50.248 297.048 50.0347 296.557 49.608 296.216C49.1813 295.864 48.5787 295.688 47.8 295.688C47.0213 295.688 46.4187 295.864 45.992 296.216C45.5653 296.557 45.352 297.048 45.352 297.688V298.024C45.352 298.664 45.5653 299.16 45.992 299.512C46.4187 299.853 47.0213 300.024 47.8 300.024ZM47.8 294.568C48.504 294.568 49.0373 294.419 49.4 294.12C49.7627 293.821 49.944 293.384 49.944 292.808V292.568C49.944 291.992 49.7627 291.555 49.4 291.256C49.0373 290.957 48.504 290.808 47.8 290.808C47.096 290.808 46.5627 290.957 46.2 291.256C45.8373 291.555 45.656 291.992 45.656 292.568V292.808C45.656 293.384 45.8373 293.821 46.2 294.12C46.5627 294.419 47.096 294.568 47.8 294.568Z" fill="#1A1A1A"/>
<rect x="65" y="276" width="1" height="37" fill="#C4C4C4"/>
<rect width="48" height="37" transform="translate(66 276)" fill="white"/>
<path d="M83.8143 301V299.816H86.9343V290.824H86.8223L84.0063 293.448L83.2223 292.6L86.1823 289.832H88.2783V299.816H91.1583V301H83.8143ZM100.528 293.928C100.528 294.76 100.405 295.544 100.16 296.28C99.9147 297.005 99.5947 297.672 99.2 298.28C98.816 298.877 98.3893 299.411 97.92 299.88C97.4507 300.339 96.992 300.712 96.544 301H94.816C95.4133 300.563 95.9467 300.136 96.416 299.72C96.8853 299.304 97.296 298.872 97.648 298.424C98 297.965 98.2987 297.48 98.544 296.968C98.7893 296.445 98.9867 295.859 99.136 295.208L99.056 295.176C98.7893 295.635 98.4427 296.019 98.016 296.328C97.6 296.627 97.0507 296.776 96.368 296.776C95.888 296.776 95.4453 296.696 95.04 296.536C94.6347 296.376 94.288 296.147 94 295.848C93.712 295.549 93.4827 295.192 93.312 294.776C93.152 294.349 93.072 293.869 93.072 293.336C93.072 292.792 93.1573 292.296 93.328 291.848C93.5093 291.389 93.76 291 94.08 290.68C94.4107 290.349 94.8 290.093 95.248 289.912C95.7067 289.731 96.2187 289.64 96.784 289.64C97.36 289.64 97.8773 289.741 98.336 289.944C98.8053 290.136 99.2 290.419 99.52 290.792C99.8507 291.155 100.101 291.603 100.272 292.136C100.443 292.669 100.528 293.267 100.528 293.928ZM96.8 295.64C97.536 295.64 98.1067 295.437 98.512 295.032C98.928 294.627 99.136 294.045 99.136 293.288V293.16C99.136 292.403 98.928 291.821 98.512 291.416C98.1067 291.011 97.536 290.808 96.8 290.808C96.064 290.808 95.488 291.011 95.072 291.416C94.6667 291.821 94.464 292.403 94.464 293.16V293.288C94.464 294.045 94.6667 294.627 95.072 295.032C95.488 295.437 96.064 295.64 96.8 295.64Z" fill="#1A1A1A"/>
<rect x="114" y="276" width="1" height="37" fill="#C4C4C4"/>
<rect width="48" height="37" transform="translate(115 276)" fill="white"/>
<path d="M139.934 301H132.606V299.624L136.254 296.264C136.777 295.784 137.214 295.277 137.566 294.744C137.918 294.2 138.094 293.656 138.094 293.112V292.92C138.094 292.301 137.924 291.8 137.582 291.416C137.241 291.032 136.724 290.84 136.03 290.84C135.689 290.84 135.39 290.888 135.134 290.984C134.878 291.08 134.654 291.213 134.462 291.384C134.281 291.555 134.126 291.757 133.998 291.992C133.881 292.216 133.785 292.461 133.71 292.728L132.51 292.264C132.617 291.933 132.761 291.613 132.942 291.304C133.134 290.984 133.369 290.701 133.646 290.456C133.934 290.211 134.276 290.013 134.67 289.864C135.076 289.715 135.55 289.64 136.094 289.64C136.638 289.64 137.124 289.72 137.55 289.88C137.977 290.04 138.334 290.264 138.622 290.552C138.91 290.84 139.129 291.181 139.278 291.576C139.438 291.971 139.518 292.408 139.518 292.888C139.518 293.325 139.454 293.731 139.326 294.104C139.209 294.477 139.044 294.835 138.83 295.176C138.617 295.507 138.356 295.832 138.046 296.152C137.748 296.472 137.422 296.792 137.07 297.112L134.062 299.816H139.934V301ZM145.8 301.192C144.467 301.192 143.491 300.685 142.872 299.672C142.264 298.659 141.96 297.24 141.96 295.416C141.96 293.592 142.264 292.173 142.872 291.16C143.491 290.147 144.467 289.64 145.8 289.64C147.133 289.64 148.104 290.147 148.712 291.16C149.331 292.173 149.64 293.592 149.64 295.416C149.64 297.24 149.331 298.659 148.712 299.672C148.104 300.685 147.133 301.192 145.8 301.192ZM145.8 300.024C146.237 300.024 146.611 299.933 146.92 299.752C147.229 299.571 147.48 299.315 147.672 298.984C147.864 298.653 148.003 298.264 148.088 297.816C148.184 297.368 148.232 296.872 148.232 296.328V294.504C148.232 293.96 148.184 293.464 148.088 293.016C148.003 292.568 147.864 292.179 147.672 291.848C147.48 291.517 147.229 291.261 146.92 291.08C146.611 290.899 146.237 290.808 145.8 290.808C145.363 290.808 144.989 290.899 144.68 291.08C144.371 291.261 144.12 291.517 143.928 291.848C143.736 292.179 143.592 292.568 143.496 293.016C143.411 293.464 143.368 293.96 143.368 294.504V296.328C143.368 296.872 143.411 297.368 143.496 297.816C143.592 298.264 143.736 298.653 143.928 298.984C144.12 299.315 144.371 299.571 144.68 299.752C144.989 299.933 145.363 300.024 145.8 300.024Z" fill="#1A1A1A"/>
<rect x="163" y="276" width="1" height="37" fill="#C4C4C4"/>
<rect width="48" height="37" transform="translate(164 276)" fill="white"/>
<path d="M188.934 301H181.606V299.624L185.254 296.264C185.777 295.784 186.214 295.277 186.566 294.744C186.918 294.2 187.094 293.656 187.094 293.112V292.92C187.094 292.301 186.924 291.8 186.582 291.416C186.241 291.032 185.724 290.84 185.03 290.84C184.689 290.84 184.39 290.888 184.134 290.984C183.878 291.08 183.654 291.213 183.462 291.384C183.281 291.555 183.126 291.757 182.998 291.992C182.881 292.216 182.785 292.461 182.71 292.728L181.51 292.264C181.617 291.933 181.761 291.613 181.942 291.304C182.134 290.984 182.369 290.701 182.646 290.456C182.934 290.211 183.276 290.013 183.67 289.864C184.076 289.715 184.55 289.64 185.094 289.64C185.638 289.64 186.124 289.72 186.55 289.88C186.977 290.04 187.334 290.264 187.622 290.552C187.91 290.84 188.129 291.181 188.278 291.576C188.438 291.971 188.518 292.408 188.518 292.888C188.518 293.325 188.454 293.731 188.326 294.104C188.209 294.477 188.044 294.835 187.83 295.176C187.617 295.507 187.356 295.832 187.046 296.152C186.748 296.472 186.422 296.792 186.07 297.112L183.062 299.816H188.934V301ZM191.408 301V299.816H194.528V290.824H194.416L191.6 293.448L190.816 292.6L193.776 289.832H195.872V299.816H198.752V301H191.408Z" fill="#1A1A1A"/>
<rect x="212" y="276" width="1" height="37" fill="#C4C4C4"/>
<rect width="48" height="37" transform="translate(213 276)" fill="white"/>
<path d="M237.934 301H230.606V299.624L234.254 296.264C234.777 295.784 235.214 295.277 235.566 294.744C235.918 294.2 236.094 293.656 236.094 293.112V292.92C236.094 292.301 235.924 291.8 235.582 291.416C235.241 291.032 234.724 290.84 234.03 290.84C233.689 290.84 233.39 290.888 233.134 290.984C232.878 291.08 232.654 291.213 232.462 291.384C232.281 291.555 232.126 291.757 231.998 291.992C231.881 292.216 231.785 292.461 231.71 292.728L230.51 292.264C230.617 291.933 230.761 291.613 230.942 291.304C231.134 290.984 231.369 290.701 231.646 290.456C231.934 290.211 232.276 290.013 232.67 289.864C233.076 289.715 233.55 289.64 234.094 289.64C234.638 289.64 235.124 289.72 235.55 289.88C235.977 290.04 236.334 290.264 236.622 290.552C236.91 290.84 237.129 291.181 237.278 291.576C237.438 291.971 237.518 292.408 237.518 292.888C237.518 293.325 237.454 293.731 237.326 294.104C237.209 294.477 237.044 294.835 236.83 295.176C236.617 295.507 236.356 295.832 236.046 296.152C235.748 296.472 235.422 296.792 235.07 297.112L232.062 299.816H237.934V301ZM247.528 301H240.2V299.624L243.848 296.264C244.371 295.784 244.808 295.277 245.16 294.744C245.512 294.2 245.688 293.656 245.688 293.112V292.92C245.688 292.301 245.517 291.8 245.176 291.416C244.835 291.032 244.317 290.84 243.624 290.84C243.283 290.84 242.984 290.888 242.728 290.984C242.472 291.08 242.248 291.213 242.056 291.384C241.875 291.555 241.72 291.757 241.592 291.992C241.475 292.216 241.379 292.461 241.304 292.728L240.104 292.264C240.211 291.933 240.355 291.613 240.536 291.304C240.728 290.984 240.963 290.701 241.24 290.456C241.528 290.211 241.869 290.013 242.264 289.864C242.669 289.715 243.144 289.64 243.688 289.64C244.232 289.64 244.717 289.72 245.144 289.88C245.571 290.04 245.928 290.264 246.216 290.552C246.504 290.84 246.723 291.181 246.872 291.576C247.032 291.971 247.112 292.408 247.112 292.888C247.112 293.325 247.048 293.731 246.92 294.104C246.803 294.477 246.637 294.835 246.424 295.176C246.211 295.507 245.949 295.832 245.64 296.152C245.341 296.472 245.016 296.792 244.664 297.112L241.656 299.816H247.528V301Z" fill="#1A1A1A"/>
<rect x="261" y="276" width="1" height="37" fill="#C4C4C4"/>
<rect width="48" height="37" transform="translate(262 276)" fill="white"/>
<path d="M286.934 301H279.606V299.624L283.254 296.264C283.777 295.784 284.214 295.277 284.566 294.744C284.918 294.2 285.094 293.656 285.094 293.112V292.92C285.094 292.301 284.924 291.8 284.582 291.416C284.241 291.032 283.724 290.84 283.03 290.84C282.689 290.84 282.39 290.888 282.134 290.984C281.878 291.08 281.654 291.213 281.462 291.384C281.281 291.555 281.126 291.757 280.998 291.992C280.881 292.216 280.785 292.461 280.71 292.728L279.51 292.264C279.617 291.933 279.761 291.613 279.942 291.304C280.134 290.984 280.369 290.701 280.646 290.456C280.934 290.211 281.276 290.013 281.67 289.864C282.076 289.715 282.55 289.64 283.094 289.64C283.638 289.64 284.124 289.72 284.55 289.88C284.977 290.04 285.334 290.264 285.622 290.552C285.91 290.84 286.129 291.181 286.278 291.576C286.438 291.971 286.518 292.408 286.518 292.888C286.518 293.325 286.454 293.731 286.326 294.104C286.209 294.477 286.044 294.835 285.83 295.176C285.617 295.507 285.356 295.832 285.046 296.152C284.748 296.472 284.422 296.792 284.07 297.112L281.062 299.816H286.934V301ZM292.176 294.568C292.933 294.568 293.499 294.397 293.872 294.056C294.256 293.704 294.448 293.256 294.448 292.712V292.6C294.448 292.013 294.261 291.576 293.888 291.288C293.525 290.989 293.045 290.84 292.448 290.84C291.872 290.84 291.403 290.968 291.04 291.224C290.677 291.469 290.379 291.805 290.144 292.232L289.152 291.464C289.291 291.24 289.456 291.021 289.648 290.808C289.851 290.584 290.085 290.387 290.352 290.216C290.619 290.045 290.928 289.907 291.28 289.8C291.632 289.693 292.032 289.64 292.48 289.64C292.949 289.64 293.392 289.704 293.808 289.832C294.224 289.949 294.581 290.131 294.88 290.376C295.189 290.611 295.429 290.904 295.6 291.256C295.781 291.608 295.872 292.008 295.872 292.456C295.872 292.819 295.813 293.144 295.696 293.432C295.589 293.72 295.44 293.971 295.248 294.184C295.056 294.397 294.827 294.579 294.56 294.728C294.304 294.877 294.027 294.989 293.728 295.064V295.128C294.027 295.192 294.315 295.299 294.592 295.448C294.88 295.587 295.131 295.773 295.344 296.008C295.568 296.232 295.744 296.509 295.872 296.84C296.011 297.16 296.08 297.528 296.08 297.944C296.08 298.424 295.989 298.867 295.808 299.272C295.627 299.667 295.371 300.008 295.04 300.296C294.709 300.573 294.309 300.792 293.84 300.952C293.371 301.112 292.853 301.192 292.288 301.192C291.808 301.192 291.381 301.139 291.008 301.032C290.635 300.925 290.304 300.781 290.016 300.6C289.728 300.419 289.472 300.216 289.248 299.992C289.035 299.768 288.843 299.533 288.672 299.288L289.68 298.52C289.819 298.744 289.968 298.947 290.128 299.128C290.299 299.309 290.485 299.464 290.688 299.592C290.891 299.72 291.12 299.821 291.376 299.896C291.632 299.96 291.931 299.992 292.272 299.992C293.061 299.992 293.659 299.816 294.064 299.464C294.469 299.101 294.672 298.589 294.672 297.928V297.8C294.672 297.139 294.469 296.632 294.064 296.28C293.659 295.917 293.061 295.736 292.272 295.736H290.96V294.568H292.176Z" fill="#BFBFBF"/>
<rect x="310" y="276" width="1" height="37" fill="#C4C4C4"/>
<rect width="48" height="37" transform="translate(311 276)" fill="white"/>
<path d="M335.934 301H328.606V299.624L332.254 296.264C332.777 295.784 333.214 295.277 333.566 294.744C333.918 294.2 334.094 293.656 334.094 293.112V292.92C334.094 292.301 333.924 291.8 333.582 291.416C333.241 291.032 332.724 290.84 332.03 290.84C331.689 290.84 331.39 290.888 331.134 290.984C330.878 291.08 330.654 291.213 330.462 291.384C330.281 291.555 330.126 291.757 329.998 291.992C329.881 292.216 329.785 292.461 329.71 292.728L328.51 292.264C328.617 291.933 328.761 291.613 328.942 291.304C329.134 290.984 329.369 290.701 329.646 290.456C329.934 290.211 330.276 290.013 330.67 289.864C331.076 289.715 331.55 289.64 332.094 289.64C332.638 289.64 333.124 289.72 333.55 289.88C333.977 290.04 334.334 290.264 334.622 290.552C334.91 290.84 335.129 291.181 335.278 291.576C335.438 291.971 335.518 292.408 335.518 292.888C335.518 293.325 335.454 293.731 335.326 294.104C335.209 294.477 335.044 294.835 334.83 295.176C334.617 295.507 334.356 295.832 334.046 296.152C333.748 296.472 333.422 296.792 333.07 297.112L330.062 299.816H335.934V301ZM343 301V298.808H337.608V297.624L342.28 289.832H344.28V297.688H345.896V298.808H344.28V301H343ZM338.872 297.688H343V290.872H342.92L338.872 297.688Z" fill="#BFBFBF"/>
<rect x="17" y="314" width="1" height="342" transform="rotate(-90 17 314)" fill="#BFBFBF"/>
<rect width="48" height="37" transform="translate(17 314)" fill="white"/>
<path d="M41.9343 339H34.6063V337.624L38.2543 334.264C38.7769 333.784 39.2143 333.277 39.5663 332.744C39.9183 332.2 40.0943 331.656 40.0943 331.112V330.92C40.0943 330.301 39.9236 329.8 39.5823 329.416C39.2409 329.032 38.7236 328.84 38.0303 328.84C37.6889 328.84 37.3903 328.888 37.1343 328.984C36.8783 329.08 36.6543 329.213 36.4623 329.384C36.2809 329.555 36.1263 329.757 35.9983 329.992C35.8809 330.216 35.7849 330.461 35.7103 330.728L34.5103 330.264C34.6169 329.933 34.7609 329.613 34.9423 329.304C35.1343 328.984 35.3689 328.701 35.6463 328.456C35.9343 328.211 36.2756 328.013 36.6703 327.864C37.0756 327.715 37.5503 327.64 38.0943 327.64C38.6383 327.64 39.1236 327.72 39.5503 327.88C39.9769 328.04 40.3343 328.264 40.6223 328.552C40.9103 328.84 41.1289 329.181 41.2783 329.576C41.4383 329.971 41.5183 330.408 41.5183 330.888C41.5183 331.325 41.4543 331.731 41.3263 332.104C41.2089 332.477 41.0436 332.835 40.8303 333.176C40.6169 333.507 40.3556 333.832 40.0463 334.152C39.7476 334.472 39.4223 334.792 39.0703 335.112L36.0623 337.816H41.9343V339ZM50.968 329.016H46.072L45.752 333.272H45.864C46.1307 332.899 46.4293 332.6 46.76 332.376C47.1013 332.152 47.5653 332.04 48.152 332.04C48.632 332.04 49.0747 332.12 49.48 332.28C49.8853 332.44 50.2373 332.669 50.536 332.968C50.8347 333.256 51.064 333.613 51.224 334.04C51.3947 334.467 51.48 334.952 51.48 335.496C51.48 336.04 51.3947 336.541 51.224 337C51.0533 337.448 50.8027 337.837 50.472 338.168C50.152 338.488 49.7573 338.739 49.288 338.92C48.8293 339.101 48.3067 339.192 47.72 339.192C47.2507 339.192 46.8347 339.139 46.472 339.032C46.12 338.925 45.8053 338.781 45.528 338.6C45.2507 338.419 45.0053 338.216 44.792 337.992C44.5893 337.768 44.4027 337.533 44.232 337.288L45.24 336.52C45.3787 336.744 45.5227 336.947 45.672 337.128C45.832 337.309 46.0027 337.464 46.184 337.592C46.376 337.72 46.5947 337.821 46.84 337.896C47.0853 337.96 47.3787 337.992 47.72 337.992C48.488 337.992 49.0693 337.789 49.464 337.384C49.8587 336.979 50.056 336.408 50.056 335.672V335.512C50.056 334.776 49.8587 334.205 49.464 333.8C49.0693 333.395 48.488 333.192 47.72 333.192C47.208 333.192 46.8027 333.288 46.504 333.48C46.216 333.661 45.9547 333.88 45.72 334.136L44.584 333.976L44.984 327.832H50.968V329.016Z" fill="#1A1A1A"/>
<rect x="65" y="314" width="1" height="37" fill="#C4C4C4"/>
<rect width="48" height="37" transform="translate(66 314)" fill="white"/>
<path d="M90.9343 339H83.6063V337.624L87.2543 334.264C87.7769 333.784 88.2143 333.277 88.5663 332.744C88.9183 332.2 89.0943 331.656 89.0943 331.112V330.92C89.0943 330.301 88.9236 329.8 88.5823 329.416C88.2409 329.032 87.7236 328.84 87.0303 328.84C86.6889 328.84 86.3903 328.888 86.1343 328.984C85.8783 329.08 85.6543 329.213 85.4623 329.384C85.2809 329.555 85.1263 329.757 84.9983 329.992C84.8809 330.216 84.7849 330.461 84.7103 330.728L83.5103 330.264C83.6169 329.933 83.7609 329.613 83.9423 329.304C84.1343 328.984 84.3689 328.701 84.6463 328.456C84.9343 328.211 85.2756 328.013 85.6703 327.864C86.0756 327.715 86.5503 327.64 87.0943 327.64C87.6383 327.64 88.1236 327.72 88.5503 327.88C88.9769 328.04 89.3343 328.264 89.6223 328.552C89.9103 328.84 90.1289 329.181 90.2783 329.576C90.4383 329.971 90.5183 330.408 90.5183 330.888C90.5183 331.325 90.4543 331.731 90.3263 332.104C90.2089 332.477 90.0436 332.835 89.8303 333.176C89.6169 333.507 89.3556 333.832 89.0463 334.152C88.7476 334.472 88.4223 334.792 88.0703 335.112L85.0623 337.816H90.9343V339ZM96.816 339.192C96.24 339.192 95.7173 339.096 95.248 338.904C94.7893 338.701 94.3947 338.419 94.064 338.056C93.744 337.683 93.4987 337.229 93.328 336.696C93.1573 336.163 93.072 335.565 93.072 334.904C93.072 334.072 93.1947 333.293 93.44 332.568C93.6853 331.832 94 331.165 94.384 330.568C94.7787 329.96 95.2107 329.427 95.68 328.968C96.1493 328.499 96.608 328.12 97.056 327.832H98.784C98.1867 328.269 97.6533 328.696 97.184 329.112C96.7147 329.528 96.304 329.965 95.952 330.424C95.6 330.872 95.3013 331.357 95.056 331.88C94.8107 332.392 94.6133 332.973 94.464 333.624L94.544 333.656C94.8107 333.197 95.152 332.819 95.568 332.52C95.9947 332.211 96.5493 332.056 97.232 332.056C97.712 332.056 98.1547 332.136 98.56 332.296C98.9653 332.456 99.312 332.685 99.6 332.984C99.888 333.283 100.112 333.645 100.272 334.072C100.443 334.499 100.528 334.973 100.528 335.496C100.528 336.04 100.437 336.541 100.256 337C100.085 337.448 99.8347 337.837 99.504 338.168C99.184 338.488 98.7947 338.739 98.336 338.92C97.8773 339.101 97.3707 339.192 96.816 339.192ZM96.8 338.024C97.536 338.024 98.1067 337.821 98.512 337.416C98.928 337.011 99.136 336.429 99.136 335.672V335.544C99.136 334.787 98.928 334.205 98.512 333.8C98.1067 333.395 97.536 333.192 96.8 333.192C96.064 333.192 95.488 333.395 95.072 333.8C94.6667 334.205 94.464 334.787 94.464 335.544V335.672C94.464 336.429 94.6667 337.011 95.072 337.416C95.488 337.821 96.064 338.024 96.8 338.024Z" fill="#1A1A1A"/>
<rect x="114" y="314" width="1" height="37" fill="#C4C4C4"/>
<rect width="48" height="37" transform="translate(115 314)" fill="white"/>
<path d="M139.934 339H132.606V337.624L136.254 334.264C136.777 333.784 137.214 333.277 137.566 332.744C137.918 332.2 138.094 331.656 138.094 331.112V330.92C138.094 330.301 137.924 329.8 137.582 329.416C137.241 329.032 136.724 328.84 136.03 328.84C135.689 328.84 135.39 328.888 135.134 328.984C134.878 329.08 134.654 329.213 134.462 329.384C134.281 329.555 134.126 329.757 133.998 329.992C133.881 330.216 133.785 330.461 133.71 330.728L132.51 330.264C132.617 329.933 132.761 329.613 132.942 329.304C133.134 328.984 133.369 328.701 133.646 328.456C133.934 328.211 134.276 328.013 134.67 327.864C135.076 327.715 135.55 327.64 136.094 327.64C136.638 327.64 137.124 327.72 137.55 327.88C137.977 328.04 138.334 328.264 138.622 328.552C138.91 328.84 139.129 329.181 139.278 329.576C139.438 329.971 139.518 330.408 139.518 330.888C139.518 331.325 139.454 331.731 139.326 332.104C139.209 332.477 139.044 332.835 138.83 333.176C138.617 333.507 138.356 333.832 138.046 334.152C137.748 334.472 137.422 334.792 137.07 335.112L134.062 337.816H139.934V339ZM143.8 339L148.072 328.984H143.304V331.064H142.104V327.832H149.432V329.016L145.24 339H143.8Z" fill="#1A1A1A"/>
<rect x="163" y="314" width="1" height="37" fill="#C4C4C4"/>
<rect width="48" height="37" transform="translate(164 314)" fill="white"/>
<path d="M188.934 339H181.606V337.624L185.254 334.264C185.777 333.784 186.214 333.277 186.566 332.744C186.918 332.2 187.094 331.656 187.094 331.112V330.92C187.094 330.301 186.924 329.8 186.582 329.416C186.241 329.032 185.724 328.84 185.03 328.84C184.689 328.84 184.39 328.888 184.134 328.984C183.878 329.08 183.654 329.213 183.462 329.384C183.281 329.555 183.126 329.757 182.998 329.992C182.881 330.216 182.785 330.461 182.71 330.728L181.51 330.264C181.617 329.933 181.761 329.613 181.942 329.304C182.134 328.984 182.369 328.701 182.646 328.456C182.934 328.211 183.276 328.013 183.67 327.864C184.076 327.715 184.55 327.64 185.094 327.64C185.638 327.64 186.124 327.72 186.55 327.88C186.977 328.04 187.334 328.264 187.622 328.552C187.91 328.84 188.129 329.181 188.278 329.576C188.438 329.971 188.518 330.408 188.518 330.888C188.518 331.325 188.454 331.731 188.326 332.104C188.209 332.477 188.044 332.835 187.83 333.176C187.617 333.507 187.356 333.832 187.046 334.152C186.748 334.472 186.422 334.792 186.07 335.112L183.062 337.816H188.934V339ZM194.8 339.192C194.16 339.192 193.6 339.112 193.12 338.952C192.64 338.781 192.235 338.552 191.904 338.264C191.584 337.976 191.339 337.635 191.168 337.24C191.008 336.845 190.928 336.419 190.928 335.96C190.928 335.192 191.136 334.584 191.552 334.136C191.968 333.688 192.512 333.373 193.184 333.192V333.064C192.597 332.861 192.128 332.536 191.776 332.088C191.435 331.629 191.264 331.08 191.264 330.44C191.264 329.587 191.573 328.909 192.192 328.408C192.811 327.896 193.68 327.64 194.8 327.64C195.92 327.64 196.789 327.896 197.408 328.408C198.027 328.909 198.336 329.587 198.336 330.44C198.336 331.08 198.16 331.629 197.808 332.088C197.467 332.536 197.003 332.861 196.416 333.064V333.192C197.088 333.373 197.632 333.688 198.048 334.136C198.464 334.584 198.672 335.192 198.672 335.96C198.672 336.419 198.587 336.845 198.416 337.24C198.256 337.635 198.011 337.976 197.68 338.264C197.36 338.552 196.96 338.781 196.48 338.952C196 339.112 195.44 339.192 194.8 339.192ZM194.8 338.024C195.579 338.024 196.181 337.853 196.608 337.512C197.035 337.16 197.248 336.664 197.248 336.024V335.688C197.248 335.048 197.035 334.557 196.608 334.216C196.181 333.864 195.579 333.688 194.8 333.688C194.021 333.688 193.419 333.864 192.992 334.216C192.565 334.557 192.352 335.048 192.352 335.688V336.024C192.352 336.664 192.565 337.16 192.992 337.512C193.419 337.853 194.021 338.024 194.8 338.024ZM194.8 332.568C195.504 332.568 196.037 332.419 196.4 332.12C196.763 331.821 196.944 331.384 196.944 330.808V330.568C196.944 329.992 196.763 329.555 196.4 329.256C196.037 328.957 195.504 328.808 194.8 328.808C194.096 328.808 193.563 328.957 193.2 329.256C192.837 329.555 192.656 329.992 192.656 330.568V330.808C192.656 331.384 192.837 331.821 193.2 332.12C193.563 332.419 194.096 332.568 194.8 332.568Z" fill="#1A1A1A"/>
<rect x="212" y="314" width="1" height="37" fill="#C4C4C4"/>
<rect width="48" height="37" transform="translate(213 314)" fill="white"/>
<path d="M237.934 339H230.606V337.624L234.254 334.264C234.777 333.784 235.214 333.277 235.566 332.744C235.918 332.2 236.094 331.656 236.094 331.112V330.92C236.094 330.301 235.924 329.8 235.582 329.416C235.241 329.032 234.724 328.84 234.03 328.84C233.689 328.84 233.39 328.888 233.134 328.984C232.878 329.08 232.654 329.213 232.462 329.384C232.281 329.555 232.126 329.757 231.998 329.992C231.881 330.216 231.785 330.461 231.71 330.728L230.51 330.264C230.617 329.933 230.761 329.613 230.942 329.304C231.134 328.984 231.369 328.701 231.646 328.456C231.934 328.211 232.276 328.013 232.67 327.864C233.076 327.715 233.55 327.64 234.094 327.64C234.638 327.64 235.124 327.72 235.55 327.88C235.977 328.04 236.334 328.264 236.622 328.552C236.91 328.84 237.129 329.181 237.278 329.576C237.438 329.971 237.518 330.408 237.518 330.888C237.518 331.325 237.454 331.731 237.326 332.104C237.209 332.477 237.044 332.835 236.83 333.176C236.617 333.507 236.356 333.832 236.046 334.152C235.748 334.472 235.422 334.792 235.07 335.112L232.062 337.816H237.934V339ZM247.528 331.928C247.528 332.76 247.405 333.544 247.16 334.28C246.915 335.005 246.595 335.672 246.2 336.28C245.816 336.877 245.389 337.411 244.92 337.88C244.451 338.339 243.992 338.712 243.544 339H241.816C242.413 338.563 242.947 338.136 243.416 337.72C243.885 337.304 244.296 336.872 244.648 336.424C245 335.965 245.299 335.48 245.544 334.968C245.789 334.445 245.987 333.859 246.136 333.208L246.056 333.176C245.789 333.635 245.443 334.019 245.016 334.328C244.6 334.627 244.051 334.776 243.368 334.776C242.888 334.776 242.445 334.696 242.04 334.536C241.635 334.376 241.288 334.147 241 333.848C240.712 333.549 240.483 333.192 240.312 332.776C240.152 332.349 240.072 331.869 240.072 331.336C240.072 330.792 240.157 330.296 240.328 329.848C240.509 329.389 240.76 329 241.08 328.68C241.411 328.349 241.8 328.093 242.248 327.912C242.707 327.731 243.219 327.64 243.784 327.64C244.36 327.64 244.877 327.741 245.336 327.944C245.805 328.136 246.2 328.419 246.52 328.792C246.851 329.155 247.101 329.603 247.272 330.136C247.443 330.669 247.528 331.267 247.528 331.928ZM243.8 333.64C244.536 333.64 245.107 333.437 245.512 333.032C245.928 332.627 246.136 332.045 246.136 331.288V331.16C246.136 330.403 245.928 329.821 245.512 329.416C245.107 329.011 244.536 328.808 243.8 328.808C243.064 328.808 242.488 329.011 242.072 329.416C241.667 329.821 241.464 330.403 241.464 331.16V331.288C241.464 332.045 241.667 332.627 242.072 333.032C242.488 333.437 243.064 333.64 243.8 333.64Z" fill="#1A1A1A"/>
<rect x="261" y="314" width="1" height="37" fill="#C4C4C4"/>
<rect width="48" height="37" transform="translate(262 314)" fill="white"/>
<path d="M282.582 332.568C283.34 332.568 283.905 332.397 284.278 332.056C284.662 331.704 284.854 331.256 284.854 330.712V330.6C284.854 330.013 284.668 329.576 284.294 329.288C283.932 328.989 283.452 328.84 282.854 328.84C282.278 328.84 281.809 328.968 281.446 329.224C281.084 329.469 280.785 329.805 280.55 330.232L279.558 329.464C279.697 329.24 279.862 329.021 280.054 328.808C280.257 328.584 280.492 328.387 280.758 328.216C281.025 328.045 281.334 327.907 281.686 327.8C282.038 327.693 282.438 327.64 282.886 327.64C283.356 327.64 283.798 327.704 284.214 327.832C284.63 327.949 284.988 328.131 285.286 328.376C285.596 328.611 285.836 328.904 286.006 329.256C286.188 329.608 286.278 330.008 286.278 330.456C286.278 330.819 286.22 331.144 286.102 331.432C285.996 331.72 285.846 331.971 285.654 332.184C285.462 332.397 285.233 332.579 284.966 332.728C284.71 332.877 284.433 332.989 284.134 333.064V333.128C284.433 333.192 284.721 333.299 284.998 333.448C285.286 333.587 285.537 333.773 285.75 334.008C285.974 334.232 286.15 334.509 286.278 334.84C286.417 335.16 286.486 335.528 286.486 335.944C286.486 336.424 286.396 336.867 286.214 337.272C286.033 337.667 285.777 338.008 285.446 338.296C285.116 338.573 284.716 338.792 284.246 338.952C283.777 339.112 283.26 339.192 282.694 339.192C282.214 339.192 281.788 339.139 281.414 339.032C281.041 338.925 280.71 338.781 280.422 338.6C280.134 338.419 279.878 338.216 279.654 337.992C279.441 337.768 279.249 337.533 279.078 337.288L280.086 336.52C280.225 336.744 280.374 336.947 280.534 337.128C280.705 337.309 280.892 337.464 281.094 337.592C281.297 337.72 281.526 337.821 281.782 337.896C282.038 337.96 282.337 337.992 282.678 337.992C283.468 337.992 284.065 337.816 284.47 337.464C284.876 337.101 285.078 336.589 285.078 335.928V335.8C285.078 335.139 284.876 334.632 284.47 334.28C284.065 333.917 283.468 333.736 282.678 333.736H281.366V332.568H282.582ZM292.8 339.192C291.467 339.192 290.491 338.685 289.872 337.672C289.264 336.659 288.96 335.24 288.96 333.416C288.96 331.592 289.264 330.173 289.872 329.16C290.491 328.147 291.467 327.64 292.8 327.64C294.133 327.64 295.104 328.147 295.712 329.16C296.331 330.173 296.64 331.592 296.64 333.416C296.64 335.24 296.331 336.659 295.712 337.672C295.104 338.685 294.133 339.192 292.8 339.192ZM292.8 338.024C293.237 338.024 293.611 337.933 293.92 337.752C294.229 337.571 294.48 337.315 294.672 336.984C294.864 336.653 295.003 336.264 295.088 335.816C295.184 335.368 295.232 334.872 295.232 334.328V332.504C295.232 331.96 295.184 331.464 295.088 331.016C295.003 330.568 294.864 330.179 294.672 329.848C294.48 329.517 294.229 329.261 293.92 329.08C293.611 328.899 293.237 328.808 292.8 328.808C292.363 328.808 291.989 328.899 291.68 329.08C291.371 329.261 291.12 329.517 290.928 329.848C290.736 330.179 290.592 330.568 290.496 331.016C290.411 331.464 290.368 331.96 290.368 332.504V334.328C290.368 334.872 290.411 335.368 290.496 335.816C290.592 336.264 290.736 336.653 290.928 336.984C291.12 337.315 291.371 337.571 291.68 337.752C291.989 337.933 292.363 338.024 292.8 338.024Z" fill="#BFBFBF"/>
<rect x="310" y="314" width="1" height="37" fill="#C4C4C4"/>
<rect width="48" height="37" transform="translate(311 314)" fill="white"/>
<path d="M331.582 332.568C332.34 332.568 332.905 332.397 333.278 332.056C333.662 331.704 333.854 331.256 333.854 330.712V330.6C333.854 330.013 333.668 329.576 333.294 329.288C332.932 328.989 332.452 328.84 331.854 328.84C331.278 328.84 330.809 328.968 330.446 329.224C330.084 329.469 329.785 329.805 329.55 330.232L328.558 329.464C328.697 329.24 328.862 329.021 329.054 328.808C329.257 328.584 329.492 328.387 329.758 328.216C330.025 328.045 330.334 327.907 330.686 327.8C331.038 327.693 331.438 327.64 331.886 327.64C332.356 327.64 332.798 327.704 333.214 327.832C333.63 327.949 333.988 328.131 334.286 328.376C334.596 328.611 334.836 328.904 335.006 329.256C335.188 329.608 335.278 330.008 335.278 330.456C335.278 330.819 335.22 331.144 335.102 331.432C334.996 331.72 334.846 331.971 334.654 332.184C334.462 332.397 334.233 332.579 333.966 332.728C333.71 332.877 333.433 332.989 333.134 333.064V333.128C333.433 333.192 333.721 333.299 333.998 333.448C334.286 333.587 334.537 333.773 334.75 334.008C334.974 334.232 335.15 334.509 335.278 334.84C335.417 335.16 335.486 335.528 335.486 335.944C335.486 336.424 335.396 336.867 335.214 337.272C335.033 337.667 334.777 338.008 334.446 338.296C334.116 338.573 333.716 338.792 333.246 338.952C332.777 339.112 332.26 339.192 331.694 339.192C331.214 339.192 330.788 339.139 330.414 339.032C330.041 338.925 329.71 338.781 329.422 338.6C329.134 338.419 328.878 338.216 328.654 337.992C328.441 337.768 328.249 337.533 328.078 337.288L329.086 336.52C329.225 336.744 329.374 336.947 329.534 337.128C329.705 337.309 329.892 337.464 330.094 337.592C330.297 337.72 330.526 337.821 330.782 337.896C331.038 337.96 331.337 337.992 331.678 337.992C332.468 337.992 333.065 337.816 333.47 337.464C333.876 337.101 334.078 336.589 334.078 335.928V335.8C334.078 335.139 333.876 334.632 333.47 334.28C333.065 333.917 332.468 333.736 331.678 333.736H330.366V332.568H331.582ZM338.408 339V337.816H341.528V328.824H341.416L338.6 331.448L337.816 330.6L340.776 327.832H342.872V337.816H345.752V339H338.408Z" fill="#BFBFBF"/>
<rect x="17" y="352" width="1" height="342" transform="rotate(-90 17 352)" fill="#747474"/>
<rect x="359" y="86" width="1" height="266" fill="#747474"/>
</g>
</g>
<defs>
<filter id="filter0_d_5010_49578" x="8" y="82" width="360" height="282" filterUnits="userSpaceOnUse" color-interpolation-filters="sRGB">
<feFlood flood-opacity="0" result="BackgroundImageFix"/>
<feColorMatrix in="SourceAlpha" type="matrix" values="0 0 0 0 0 0 0 0 0 0 0 0 0 0 0 0 0 0 127 0" result="hardAlpha"/>
<feOffset dy="4"/>
<feGaussianBlur stdDeviation="4"/>
<feColorMatrix type="matrix" values="0 0 0 0 0 0 0 0 0 0 0 0 0 0 0 0 0 0 0.302 0"/>
<feBlend mode="normal" in2="BackgroundImageFix" result="effect1_dropShadow_5010_49578"/>
<feBlend mode="normal" in="SourceGraphic" in2="effect1_dropShadow_5010_49578" result="shape"/>
</filter>
<clipPath id="clip0_5010_49578">
<rect width="418" height="368" fill="white"/>
</clipPath>
</defs>
</svg>
