<svg width="418" height="368" viewBox="0 0 418 368" fill="none" xmlns="http://www.w3.org/2000/svg">
<g clip-path="url(#clip0_5010_49575)">
<rect width="418" height="368" fill="white"/>
<path d="M204 53H203V51H201V53H193V51H191V53H190C188.89 53 188.01 53.9 188.01 55L188 69C188 70.1 188.89 71 190 71H204C205.1 71 206 70.1 206 69V55C206 53.9 205.1 53 204 53ZM204 69H190V59H204V69ZM204 57H190V55H204V57ZM202 62H197V67H202V62Z" fill="#1A1A1A"/>
<rect x="16.5" y="42.5" width="159" height="39" rx="3.5" stroke="#747474"/>
<path d="M36.8 67.192C35.4667 67.192 34.4907 66.6853 33.872 65.672C33.264 64.6587 32.96 63.24 32.96 61.416C32.96 59.592 33.264 58.1733 33.872 57.16C34.4907 56.1467 35.4667 55.64 36.8 55.64C38.1333 55.64 39.104 56.1467 39.712 57.16C40.3307 58.1733 40.64 59.592 40.64 61.416C40.64 63.24 40.3307 64.6587 39.712 65.672C39.104 66.6853 38.1333 67.192 36.8 67.192ZM36.8 66.024C37.2373 66.024 37.6107 65.9333 37.92 65.752C38.2293 65.5707 38.48 65.3147 38.672 64.984C38.864 64.6533 39.0027 64.264 39.088 63.816C39.184 63.368 39.232 62.872 39.232 62.328V60.504C39.232 59.96 39.184 59.464 39.088 59.016C39.0027 58.568 38.864 58.1787 38.672 57.848C38.48 57.5173 38.2293 57.2613 37.92 57.08C37.6107 56.8987 37.2373 56.808 36.8 56.808C36.3627 56.808 35.9893 56.8987 35.68 57.08C35.3707 57.2613 35.12 57.5173 34.928 57.848C34.736 58.1787 34.592 58.568 34.496 59.016C34.4107 59.464 34.368 59.96 34.368 60.504V62.328C34.368 62.872 34.4107 63.368 34.496 63.816C34.592 64.264 34.736 64.6533 34.928 64.984C35.12 65.3147 35.3707 65.5707 35.68 65.752C35.9893 65.9333 36.3627 66.024 36.8 66.024ZM46.4098 67.192C45.8338 67.192 45.3111 67.096 44.8418 66.904C44.3831 66.7013 43.9884 66.4187 43.6578 66.056C43.3378 65.6827 43.0924 65.2293 42.9218 64.696C42.7511 64.1627 42.6658 63.5653 42.6658 62.904C42.6658 62.072 42.7884 61.2933 43.0338 60.568C43.2791 59.832 43.5938 59.1653 43.9778 58.568C44.3724 57.96 44.8044 57.4267 45.2738 56.968C45.7431 56.4987 46.2018 56.12 46.6498 55.832H48.3778C47.7804 56.2693 47.2471 56.696 46.7778 57.112C46.3084 57.528 45.8978 57.9653 45.5458 58.424C45.1938 58.872 44.8951 59.3573 44.6498 59.88C44.4044 60.392 44.2071 60.9733 44.0578 61.624L44.1378 61.656C44.4044 61.1973 44.7458 60.8187 45.1618 60.52C45.5884 60.2107 46.1431 60.056 46.8258 60.056C47.3058 60.056 47.7484 60.136 48.1538 60.296C48.5591 60.456 48.9058 60.6853 49.1938 60.984C49.4818 61.2827 49.7058 61.6453 49.8658 62.072C50.0364 62.4987 50.1218 62.9733 50.1218 63.496C50.1218 64.04 50.0311 64.5413 49.8498 65C49.6791 65.448 49.4284 65.8373 49.0978 66.168C48.7778 66.488 48.3884 66.7387 47.9298 66.92C47.4711 67.1013 46.9644 67.192 46.4098 67.192ZM46.3938 66.024C47.1298 66.024 47.7004 65.8213 48.1058 65.416C48.5218 65.0107 48.7298 64.4293 48.7298 63.672V63.544C48.7298 62.7867 48.5218 62.2053 48.1058 61.8C47.7004 61.3947 47.1298 61.192 46.3938 61.192C45.6578 61.192 45.0818 61.3947 44.6658 61.8C44.2604 62.2053 44.0578 62.7867 44.0578 63.544V63.672C44.0578 64.4293 44.2604 65.0107 44.6658 65.416C45.0818 65.8213 45.6578 66.024 46.3938 66.024ZM51.3315 69.416L55.5075 55.16H56.6595L52.4835 69.416H51.3315ZM62.1125 67.192C60.7792 67.192 59.8032 66.6853 59.1845 65.672C58.5765 64.6587 58.2725 63.24 58.2725 61.416C58.2725 59.592 58.5765 58.1733 59.1845 57.16C59.8032 56.1467 60.7792 55.64 62.1125 55.64C63.4458 55.64 64.4165 56.1467 65.0245 57.16C65.6432 58.1733 65.9525 59.592 65.9525 61.416C65.9525 63.24 65.6432 64.6587 65.0245 65.672C64.4165 66.6853 63.4458 67.192 62.1125 67.192ZM62.1125 66.024C62.5498 66.024 62.9232 65.9333 63.2325 65.752C63.5418 65.5707 63.7925 65.3147 63.9845 64.984C64.1765 64.6533 64.3152 64.264 64.4005 63.816C64.4965 63.368 64.5445 62.872 64.5445 62.328V60.504C64.5445 59.96 64.4965 59.464 64.4005 59.016C64.3152 58.568 64.1765 58.1787 63.9845 57.848C63.7925 57.5173 63.5418 57.2613 63.2325 57.08C62.9232 56.8987 62.5498 56.808 62.1125 56.808C61.6752 56.808 61.3018 56.8987 60.9925 57.08C60.6832 57.2613 60.4325 57.5173 60.2405 57.848C60.0485 58.1787 59.9045 58.568 59.8085 59.016C59.7232 59.464 59.6805 59.96 59.6805 60.504V62.328C59.6805 62.872 59.7232 63.368 59.8085 63.816C59.9045 64.264 60.0485 64.6533 60.2405 64.984C60.4325 65.3147 60.6832 65.5707 60.9925 65.752C61.3018 65.9333 61.6752 66.024 62.1125 66.024ZM68.3143 67V65.816H71.4343V56.824H71.3223L68.5063 59.448L67.7223 58.6L70.6823 55.832H72.7783V65.816H75.6583V67H68.3143ZM76.644 69.416L80.82 55.16H81.972L77.796 69.416H76.644ZM84.033 67V65.816H87.153V56.824H87.041L84.225 59.448L83.441 58.6L86.401 55.832H88.497V65.816H91.377V67H84.033ZM100.747 59.928C100.747 60.76 100.624 61.544 100.379 62.28C100.133 63.0053 99.8134 63.672 99.4188 64.28C99.0348 64.8773 98.6081 65.4107 98.1388 65.88C97.6694 66.3387 97.2108 66.712 96.7628 67H95.0348C95.6321 66.5627 96.1654 66.136 96.6348 65.72C97.1041 65.304 97.5148 64.872 97.8668 64.424C98.2188 63.9653 98.5174 63.48 98.7628 62.968C99.0081 62.4453 99.2054 61.8587 99.3548 61.208L99.2748 61.176C99.0081 61.6347 98.6614 62.0187 98.2348 62.328C97.8188 62.6267 97.2694 62.776 96.5868 62.776C96.1068 62.776 95.6641 62.696 95.2588 62.536C94.8534 62.376 94.5068 62.1467 94.2188 61.848C93.9308 61.5493 93.7014 61.192 93.5308 60.776C93.3708 60.3493 93.2908 59.8693 93.2908 59.336C93.2908 58.792 93.3761 58.296 93.5468 57.848C93.7281 57.3893 93.9788 57 94.2988 56.68C94.6294 56.3493 95.0188 56.0933 95.4668 55.912C95.9254 55.7307 96.4374 55.64 97.0028 55.64C97.5788 55.64 98.0961 55.7413 98.5548 55.944C99.0241 56.136 99.4188 56.4187 99.7388 56.792C100.069 57.1547 100.32 57.6027 100.491 58.136C100.661 58.6693 100.747 59.2667 100.747 59.928ZM97.0188 61.64C97.7548 61.64 98.3254 61.4373 98.7308 61.032C99.1468 60.6267 99.3548 60.0453 99.3548 59.288V59.16C99.3548 58.4027 99.1468 57.8213 98.7308 57.416C98.3254 57.0107 97.7548 56.808 97.0188 56.808C96.2828 56.808 95.7068 57.0107 95.2908 57.416C94.8854 57.8213 94.6828 58.4027 94.6828 59.16V59.288C94.6828 60.0453 94.8854 60.6267 95.2908 61.032C95.7068 61.4373 96.2828 61.64 97.0188 61.64ZM104.613 67L108.885 56.984H104.117V59.064H102.917V55.832H110.245V57.016L106.053 67H104.613ZM112.814 67V65.816H115.934V56.824H115.822L113.006 59.448L112.222 58.6L115.182 55.832H117.278V65.816H120.158V67H112.814Z" fill="#1A1A1A"/>
<path d="M17.312 29V17.832H24.496V19.704H19.424V22.408H23.84V24.28H19.424V29H17.312ZM25.07 28.92L26.142 27.576C25.6727 26.8507 25.438 25.928 25.438 24.808C25.438 24.136 25.5287 23.5333 25.71 23C25.8913 22.4667 26.1473 22.0133 26.478 21.64C26.8193 21.256 27.2247 20.9627 27.694 20.76C28.174 20.5573 28.7127 20.456 29.31 20.456C30.1527 20.456 30.8727 20.6587 31.47 21.064L32.446 19.896L33.566 20.728L32.478 22.072C32.7127 22.4347 32.8887 22.8507 33.006 23.32C33.134 23.7787 33.198 24.28 33.198 24.824C33.198 25.496 33.1073 26.104 32.926 26.648C32.7447 27.1813 32.4833 27.64 32.142 28.024C31.8113 28.3973 31.406 28.6853 30.926 28.888C30.446 29.0907 29.9073 29.192 29.31 29.192C28.478 29.192 27.758 28.9947 27.15 28.6L26.19 29.752L25.07 28.92ZM29.31 27.64C29.8647 27.64 30.302 27.4587 30.622 27.096C30.942 26.7227 31.102 26.2053 31.102 25.544V23.624L28.126 27.224C28.4353 27.5013 28.83 27.64 29.31 27.64ZM27.55 25.976L30.494 22.424C30.1847 22.1467 29.79 22.008 29.31 22.008C28.766 22.008 28.334 22.1947 28.014 22.568C27.7047 22.9307 27.55 23.4427 27.55 24.104V25.976ZM40.2586 27.608H40.1786C40.0293 28.088 39.7466 28.472 39.3306 28.76C38.9146 29.048 38.4293 29.192 37.8746 29.192C36.8186 29.192 36.008 28.8133 35.4426 28.056C34.888 27.2987 34.6106 26.216 34.6106 24.808C34.6106 23.4107 34.888 22.3387 35.4426 21.592C36.008 20.8347 36.8186 20.456 37.8746 20.456C38.4293 20.456 38.9146 20.6 39.3306 20.888C39.7466 21.1653 40.0293 21.544 40.1786 22.024H40.2586V17.16H42.3066V29H40.2586V27.608ZM38.5306 27.496C39.0213 27.496 39.432 27.3787 39.7626 27.144C40.0933 26.9093 40.2586 26.5733 40.2586 26.136V23.48C40.2586 23.0747 40.0933 22.7493 39.7626 22.504C39.432 22.2587 39.0213 22.136 38.5306 22.136C37.9973 22.136 37.5653 22.3173 37.2346 22.68C36.9146 23.032 36.7546 23.5067 36.7546 24.104V25.544C36.7546 26.1413 36.9146 26.616 37.2346 26.968C37.5653 27.32 37.9973 27.496 38.5306 27.496ZM47.4044 29.192C46.6044 29.192 45.9324 29.0587 45.3884 28.792C44.8444 28.5147 44.3644 28.136 43.9484 27.656L45.1964 26.44C45.5057 26.792 45.8417 27.0693 46.2044 27.272C46.5777 27.4747 47.0044 27.576 47.4844 27.576C47.975 27.576 48.327 27.4907 48.5404 27.32C48.7644 27.1493 48.8764 26.9147 48.8764 26.616C48.8764 26.3707 48.7964 26.1787 48.6364 26.04C48.487 25.8907 48.2257 25.7893 47.8524 25.736L47.0204 25.624C46.1137 25.5067 45.4204 25.2507 44.9404 24.856C44.471 24.4507 44.2364 23.864 44.2364 23.096C44.2364 22.6907 44.311 22.328 44.4604 22.008C44.6097 21.6773 44.823 21.4 45.1004 21.176C45.3777 20.9413 45.7084 20.7653 46.0924 20.648C46.487 20.52 46.9244 20.456 47.4044 20.456C47.8097 20.456 48.167 20.488 48.4764 20.552C48.7964 20.6053 49.0844 20.6907 49.3404 20.808C49.5964 20.9147 49.831 21.0533 50.0444 21.224C50.2577 21.384 50.4657 21.5653 50.6684 21.768L49.4684 22.968C49.223 22.712 48.9297 22.4987 48.5884 22.328C48.247 22.1573 47.8737 22.072 47.4684 22.072C47.0204 22.072 46.695 22.152 46.4924 22.312C46.3004 22.472 46.2044 22.68 46.2044 22.936C46.2044 23.2133 46.2844 23.4267 46.4444 23.576C46.615 23.7147 46.8977 23.816 47.2924 23.88L48.1404 23.992C49.943 24.248 50.8444 25.0693 50.8444 26.456C50.8444 26.8613 50.759 27.2347 50.5884 27.576C50.4284 27.9067 50.199 28.1947 49.9004 28.44C49.6017 28.6747 49.239 28.8613 48.8124 29C48.3964 29.128 47.927 29.192 47.4044 29.192ZM56.0288 29.192C55.4101 29.192 54.8554 29.0907 54.3648 28.888C53.8848 28.6747 53.4741 28.3813 53.1328 28.008C52.8021 27.624 52.5461 27.1653 52.3648 26.632C52.1834 26.088 52.0928 25.48 52.0928 24.808C52.0928 24.1467 52.1781 23.5493 52.3488 23.016C52.5301 22.4827 52.7861 22.0293 53.1168 21.656C53.4474 21.272 53.8528 20.9787 54.3328 20.776C54.8128 20.5627 55.3568 20.456 55.9648 20.456C56.6154 20.456 57.1808 20.568 57.6608 20.792C58.1408 21.016 58.5354 21.32 58.8448 21.704C59.1541 22.088 59.3834 22.536 59.5328 23.048C59.6928 23.5493 59.7728 24.088 59.7728 24.664V25.336H54.2208V25.544C54.2208 26.152 54.3914 26.6427 54.7328 27.016C55.0741 27.3787 55.5808 27.56 56.2528 27.56C56.7648 27.56 57.1808 27.4533 57.5008 27.24C57.8314 27.0267 58.1248 26.7547 58.3808 26.424L59.4848 27.656C59.1434 28.136 58.6741 28.5147 58.0768 28.792C57.4901 29.0587 56.8074 29.192 56.0288 29.192ZM55.9968 21.992C55.4528 21.992 55.0208 22.1733 54.7008 22.536C54.3808 22.8987 54.2208 23.368 54.2208 23.944V24.072H57.6448V23.928C57.6448 23.352 57.5008 22.888 57.2128 22.536C56.9354 22.1733 56.5301 21.992 55.9968 21.992ZM63.6226 29C62.9186 29 62.4013 28.824 62.0706 28.472C61.74 28.12 61.5746 27.624 61.5746 26.984V17.16H63.6226V27.368H64.7266V29H63.6226ZM69.0138 29.192C68.2138 29.192 67.5418 29.0587 66.9978 28.792C66.4538 28.5147 65.9738 28.136 65.5578 27.656L66.8058 26.44C67.1151 26.792 67.4511 27.0693 67.8138 27.272C68.1871 27.4747 68.6138 27.576 69.0938 27.576C69.5844 27.576 69.9364 27.4907 70.1498 27.32C70.3738 27.1493 70.4858 26.9147 70.4858 26.616C70.4858 26.3707 70.4058 26.1787 70.2458 26.04C70.0964 25.8907 69.8351 25.7893 69.4618 25.736L68.6298 25.624C67.7231 25.5067 67.0298 25.2507 66.5498 24.856C66.0804 24.4507 65.8458 23.864 65.8458 23.096C65.8458 22.6907 65.9204 22.328 66.0698 22.008C66.2191 21.6773 66.4324 21.4 66.7098 21.176C66.9871 20.9413 67.3178 20.7653 67.7018 20.648C68.0964 20.52 68.5338 20.456 69.0138 20.456C69.4191 20.456 69.7764 20.488 70.0858 20.552C70.4058 20.6053 70.6938 20.6907 70.9498 20.808C71.2058 20.9147 71.4404 21.0533 71.6538 21.224C71.8671 21.384 72.0751 21.5653 72.2778 21.768L71.0778 22.968C70.8324 22.712 70.5391 22.4987 70.1978 22.328C69.8564 22.1573 69.4831 22.072 69.0778 22.072C68.6298 22.072 68.3044 22.152 68.1018 22.312C67.9098 22.472 67.8138 22.68 67.8138 22.936C67.8138 23.2133 67.8938 23.4267 68.0538 23.576C68.2244 23.7147 68.5071 23.816 68.9018 23.88L69.7498 23.992C71.5524 24.248 72.4538 25.0693 72.4538 26.456C72.4538 26.8613 72.3684 27.2347 72.1978 27.576C72.0378 27.9067 71.8084 28.1947 71.5098 28.44C71.2111 28.6747 70.8484 28.8613 70.4218 29C70.0058 29.128 69.5364 29.192 69.0138 29.192ZM79.4461 27.608H79.3661C79.2168 28.088 78.9341 28.472 78.5181 28.76C78.1021 29.048 77.6168 29.192 77.0621 29.192C76.0061 29.192 75.1955 28.8133 74.6301 28.056C74.0755 27.2987 73.7981 26.216 73.7981 24.808C73.7981 23.4107 74.0755 22.3387 74.6301 21.592C75.1955 20.8347 76.0061 20.456 77.0621 20.456C77.6168 20.456 78.1021 20.6 78.5181 20.888C78.9341 21.1653 79.2168 21.544 79.3661 22.024H79.4461V17.16H81.4941V29H79.4461V27.608ZM77.7181 27.496C78.2088 27.496 78.6195 27.3787 78.9501 27.144C79.2808 26.9093 79.4461 26.5733 79.4461 26.136V23.48C79.4461 23.0747 79.2808 22.7493 78.9501 22.504C78.6195 22.2587 78.2088 22.136 77.7181 22.136C77.1848 22.136 76.7528 22.3173 76.4221 22.68C76.1021 23.032 75.9421 23.5067 75.9421 24.104V25.544C75.9421 26.1413 76.1021 26.616 76.4221 26.968C76.7528 27.32 77.1848 27.496 77.7181 27.496ZM89.9999 29C89.5519 29 89.1945 28.872 88.9279 28.616C88.6719 28.3493 88.5119 27.9973 88.4479 27.56H88.3519C88.2132 28.104 87.9305 28.5147 87.5039 28.792C87.0772 29.0587 86.5492 29.192 85.9199 29.192C85.0665 29.192 84.4105 28.968 83.9519 28.52C83.4932 28.072 83.2639 27.4747 83.2639 26.728C83.2639 25.864 83.5732 25.224 84.1919 24.808C84.8105 24.3813 85.6905 24.168 86.8319 24.168H88.2559V23.56C88.2559 23.0907 88.1332 22.728 87.8879 22.472C87.6425 22.216 87.2479 22.088 86.7039 22.088C86.2239 22.088 85.8345 22.1947 85.5359 22.408C85.2479 22.6107 85.0025 22.856 84.7999 23.144L83.5839 22.056C83.8932 21.576 84.3039 21.192 84.8159 20.904C85.3279 20.6053 86.0052 20.456 86.8479 20.456C87.9785 20.456 88.8372 20.712 89.4239 21.224C90.0105 21.736 90.3039 22.472 90.3039 23.432V27.368H91.1359V29H89.9999ZM86.6079 27.704C87.0665 27.704 87.4559 27.6027 87.7759 27.4C88.0959 27.1973 88.2559 26.8987 88.2559 26.504V25.4H86.9439C85.8772 25.4 85.3439 25.7413 85.3439 26.424V26.696C85.3439 27.0373 85.4505 27.2933 85.6639 27.464C85.8879 27.624 86.2025 27.704 86.6079 27.704ZM95.3389 29C94.6349 29 94.0962 28.8187 93.7229 28.456C93.3602 28.0827 93.1789 27.5547 93.1789 26.872V22.28H91.9469V20.648H92.5869C92.8962 20.648 93.1042 20.5787 93.2109 20.44C93.3282 20.2907 93.3869 20.072 93.3869 19.784V18.36H95.2269V20.648H96.9389V22.28H95.2269V27.368H96.8109V29H95.3389ZM101.965 29.192C101.367 29.192 100.829 29.0907 100.349 28.888C99.8794 28.6853 99.4741 28.392 99.1328 28.008C98.8021 27.624 98.5461 27.1653 98.3648 26.632C98.1834 26.088 98.0928 25.48 98.0928 24.808C98.0928 24.136 98.1834 23.5333 98.3648 23C98.5461 22.4667 98.8021 22.0133 99.1328 21.64C99.4741 21.256 99.8794 20.9627 100.349 20.76C100.829 20.5573 101.367 20.456 101.965 20.456C102.562 20.456 103.101 20.5573 103.581 20.76C104.061 20.9627 104.466 21.256 104.797 21.64C105.138 22.0133 105.399 22.4667 105.581 23C105.762 23.5333 105.853 24.136 105.853 24.808C105.853 25.48 105.762 26.088 105.581 26.632C105.399 27.1653 105.138 27.624 104.797 28.008C104.466 28.392 104.061 28.6853 103.581 28.888C103.101 29.0907 102.562 29.192 101.965 29.192ZM101.965 27.544C102.509 27.544 102.935 27.3787 103.245 27.048C103.554 26.7173 103.709 26.232 103.709 25.592V24.04C103.709 23.4107 103.554 22.9307 103.245 22.6C102.935 22.2693 102.509 22.104 101.965 22.104C101.431 22.104 101.01 22.2693 100.701 22.6C100.391 22.9307 100.237 23.4107 100.237 24.04V25.592C100.237 26.232 100.391 26.7173 100.701 27.048C101.01 27.3787 101.431 27.544 101.965 27.544Z" fill="#1A1A1A"/>
<g filter="url(#filter0_d_5010_49575)">
<rect x="16" y="86" width="1" height="266" fill="#747474"/>
<rect x="17" y="87" width="1" height="342" transform="rotate(-90 17 87)" fill="#747474"/>
<rect width="342" height="36" transform="translate(17 87)" fill="#F5F5F5"/>
<path d="M47.4102 109.59L46.0002 111L40.0002 105L46.0002 99L47.4102 100.41L42.8302 105L47.4102 109.59ZM41.4102 109.59L40.0002 111L34.0002 105L40.0002 99L41.4102 100.41L36.8302 105L41.4102 109.59Z" fill="black"/>
<path d="M76.4102 100.42L71.8302 105L76.4102 109.59L75.0002 111L69.0002 105L75.0002 99L76.4102 100.42Z" fill="black"/>
<path d="M148.55 100.332V108.364C148.55 108.865 148.465 109.319 148.294 109.724C148.134 110.129 147.899 110.476 147.59 110.764C147.291 111.052 146.923 111.276 146.486 111.436C146.049 111.596 145.558 111.676 145.014 111.676C143.979 111.676 143.174 111.409 142.598 110.876C142.022 110.332 141.654 109.612 141.494 108.716L143.446 108.316C143.542 108.796 143.713 109.169 143.958 109.436C144.214 109.692 144.561 109.82 144.998 109.82C145.414 109.82 145.755 109.692 146.022 109.436C146.299 109.169 146.438 108.764 146.438 108.22V102.06H142.918V100.332H148.55ZM157.125 111.5C156.677 111.5 156.32 111.372 156.053 111.116C155.797 110.849 155.637 110.497 155.573 110.06H155.477C155.338 110.604 155.056 111.015 154.629 111.292C154.202 111.559 153.674 111.692 153.045 111.692C152.192 111.692 151.536 111.468 151.077 111.02C150.618 110.572 150.389 109.975 150.389 109.228C150.389 108.364 150.698 107.724 151.317 107.308C151.936 106.881 152.816 106.668 153.957 106.668H155.381V106.06C155.381 105.591 155.258 105.228 155.013 104.972C154.768 104.716 154.373 104.588 153.829 104.588C153.349 104.588 152.96 104.695 152.661 104.908C152.373 105.111 152.128 105.356 151.925 105.644L150.709 104.556C151.018 104.076 151.429 103.692 151.941 103.404C152.453 103.105 153.13 102.956 153.973 102.956C155.104 102.956 155.962 103.212 156.549 103.724C157.136 104.236 157.429 104.972 157.429 105.932V109.868H158.261V111.5H157.125ZM153.733 110.204C154.192 110.204 154.581 110.103 154.901 109.9C155.221 109.697 155.381 109.399 155.381 109.004V107.9H154.069C153.002 107.9 152.469 108.241 152.469 108.924V109.196C152.469 109.537 152.576 109.793 152.789 109.964C153.013 110.124 153.328 110.204 153.733 110.204ZM159.918 111.5V103.148H161.966V104.54H162.046C162.217 104.092 162.484 103.719 162.846 103.42C163.22 103.111 163.732 102.956 164.382 102.956C165.246 102.956 165.908 103.239 166.366 103.804C166.825 104.369 167.054 105.175 167.054 106.22V111.5H165.006V106.428C165.006 105.831 164.9 105.383 164.686 105.084C164.473 104.785 164.121 104.636 163.63 104.636C163.417 104.636 163.209 104.668 163.006 104.732C162.814 104.785 162.638 104.871 162.478 104.988C162.329 105.095 162.206 105.233 162.11 105.404C162.014 105.564 161.966 105.756 161.966 105.98V111.5H159.918ZM174.317 110.108H174.237C174.162 110.321 174.061 110.524 173.933 110.716C173.815 110.897 173.661 111.063 173.469 111.212C173.287 111.361 173.063 111.479 172.797 111.564C172.541 111.649 172.242 111.692 171.901 111.692C171.037 111.692 170.375 111.409 169.917 110.844C169.458 110.279 169.229 109.473 169.229 108.428V103.148H171.277V108.22C171.277 108.796 171.389 109.239 171.613 109.548C171.837 109.847 172.194 109.996 172.685 109.996C172.887 109.996 173.085 109.969 173.277 109.916C173.479 109.863 173.655 109.783 173.805 109.676C173.954 109.559 174.077 109.42 174.173 109.26C174.269 109.089 174.317 108.892 174.317 108.668V103.148H176.365V111.5H174.317V110.108ZM184.875 111.5C184.427 111.5 184.07 111.372 183.803 111.116C183.547 110.849 183.387 110.497 183.323 110.06H183.227C183.088 110.604 182.806 111.015 182.379 111.292C181.952 111.559 181.424 111.692 180.795 111.692C179.942 111.692 179.286 111.468 178.827 111.02C178.368 110.572 178.139 109.975 178.139 109.228C178.139 108.364 178.448 107.724 179.067 107.308C179.686 106.881 180.566 106.668 181.707 106.668H183.131V106.06C183.131 105.591 183.008 105.228 182.763 104.972C182.518 104.716 182.123 104.588 181.579 104.588C181.099 104.588 180.71 104.695 180.411 104.908C180.123 105.111 179.878 105.356 179.675 105.644L178.459 104.556C178.768 104.076 179.179 103.692 179.691 103.404C180.203 103.105 180.88 102.956 181.723 102.956C182.854 102.956 183.712 103.212 184.299 103.724C184.886 104.236 185.179 104.972 185.179 105.932V109.868H186.011V111.5H184.875ZM181.483 110.204C181.942 110.204 182.331 110.103 182.651 109.9C182.971 109.697 183.131 109.399 183.131 109.004V107.9H181.819C180.752 107.9 180.219 108.241 180.219 108.924V109.196C180.219 109.537 180.326 109.793 180.539 109.964C180.763 110.124 181.078 110.204 181.483 110.204ZM187.668 111.5V103.148H189.716V104.876H189.796C189.85 104.652 189.93 104.439 190.036 104.236C190.154 104.023 190.303 103.836 190.484 103.676C190.666 103.516 190.879 103.388 191.124 103.292C191.38 103.196 191.674 103.148 192.004 103.148H192.452V105.084H191.812C191.119 105.084 190.596 105.185 190.244 105.388C189.892 105.591 189.716 105.921 189.716 106.38V111.5H187.668ZM198.003 111.5V109.788H201.075V101.852H200.931L198.499 104.732L197.187 103.628L199.955 100.332H203.139V109.788H205.699V111.5H198.003ZM214.957 104.524C214.957 105.324 214.834 106.081 214.589 106.796C214.354 107.5 214.045 108.151 213.661 108.748C213.277 109.335 212.845 109.863 212.365 110.332C211.895 110.791 211.426 111.18 210.957 111.5H208.109C208.759 111.031 209.346 110.577 209.869 110.14C210.391 109.703 210.845 109.26 211.229 108.812C211.623 108.364 211.943 107.9 212.189 107.42C212.445 106.929 212.637 106.401 212.765 105.836L212.637 105.804C212.53 106.017 212.402 106.225 212.253 106.428C212.114 106.631 211.943 106.807 211.741 106.956C211.538 107.105 211.303 107.228 211.037 107.324C210.77 107.409 210.461 107.452 210.109 107.452C209.639 107.452 209.207 107.372 208.813 107.212C208.418 107.052 208.071 106.823 207.773 106.524C207.485 106.215 207.255 105.852 207.085 105.436C206.925 105.009 206.845 104.529 206.845 103.996C206.845 103.431 206.941 102.913 207.133 102.444C207.325 101.975 207.597 101.569 207.949 101.228C208.301 100.887 208.722 100.62 209.213 100.428C209.714 100.236 210.274 100.14 210.893 100.14C211.533 100.14 212.103 100.247 212.605 100.46C213.106 100.663 213.533 100.956 213.885 101.34C214.237 101.713 214.503 102.172 214.685 102.716C214.866 103.249 214.957 103.852 214.957 104.524ZM210.893 105.82C211.49 105.82 211.954 105.66 212.285 105.34C212.615 105.009 212.781 104.54 212.781 103.932V103.692C212.781 103.084 212.615 102.62 212.285 102.3C211.954 101.969 211.49 101.804 210.893 101.804C210.306 101.804 209.842 101.969 209.501 102.3C209.17 102.62 209.005 103.084 209.005 103.692V103.932C209.005 104.54 209.17 105.009 209.501 105.34C209.842 105.66 210.306 105.82 210.893 105.82ZM218.438 111.5L222.326 102.044H218.47V104.092H216.678V100.332H224.422V102.14L220.646 111.5H218.438ZM226.784 111.5V109.788H229.856V101.852H229.712L227.28 104.732L225.968 103.628L228.736 100.332H231.92V109.788H234.48V111.5H226.784Z" fill="#1A1A1A"/>
<path d="M328.59 100.41L330 99L336 105L330 111L328.59 109.59L333.17 105L328.59 100.41ZM334.59 100.41L336 99L342 105L336 111L334.59 109.59L339.17 105L334.59 100.41Z" fill="black"/>
<path d="M299.59 109.58L304.17 105L299.59 100.41L301 99L307 105L301 111L299.59 109.58Z" fill="black"/>
<rect x="17" y="124" width="1" height="342" transform="rotate(-90 17 124)" fill="#BFBFBF"/>
<rect width="48" height="37" transform="translate(17 124)" fill="white"/>
<path d="M44.6998 139.592H44.6198L43.6758 141.464L41.0038 146.328L38.3318 141.464L37.3878 139.592H37.3078V149H35.9958V137.832H37.7878L40.9878 143.848H41.0678L44.2838 137.832H46.0118V149H44.6998V139.592Z" fill="#1A1A1A"/>
<rect x="65" y="124" width="1" height="37" fill="white"/>
<rect width="48" height="37" transform="translate(66 124)" fill="white"/>
<path d="M90.6699 139.016V149H89.3259V139.016H85.7739V137.832H94.2219V139.016H90.6699Z" fill="#1A1A1A"/>
<rect x="114" y="124" width="1" height="37" fill="white"/>
<rect width="48" height="37" transform="translate(115 124)" fill="white"/>
<path d="M139 149.192C138.275 149.192 137.619 149.069 137.032 148.824C136.456 148.568 135.96 148.2 135.544 147.72C135.139 147.229 134.824 146.627 134.6 145.912C134.376 145.187 134.264 144.355 134.264 143.416C134.264 142.477 134.376 141.651 134.6 140.936C134.824 140.221 135.139 139.619 135.544 139.128C135.96 138.637 136.456 138.269 137.032 138.024C137.619 137.768 138.275 137.64 139 137.64C139.715 137.64 140.365 137.768 140.952 138.024C141.539 138.269 142.035 138.637 142.44 139.128C142.856 139.619 143.176 140.221 143.4 140.936C143.624 141.651 143.736 142.477 143.736 143.416C143.736 144.355 143.624 145.187 143.4 145.912C143.176 146.627 142.856 147.229 142.44 147.72C142.035 148.2 141.539 148.568 140.952 148.824C140.365 149.069 139.715 149.192 139 149.192ZM139 147.992C139.48 147.992 139.923 147.907 140.328 147.736C140.733 147.565 141.08 147.32 141.368 147C141.667 146.68 141.896 146.296 142.056 145.848C142.216 145.4 142.296 144.899 142.296 144.344V142.488C142.296 141.933 142.216 141.432 142.056 140.984C141.896 140.536 141.667 140.152 141.368 139.832C141.08 139.512 140.733 139.267 140.328 139.096C139.923 138.925 139.48 138.84 139 138.84C138.52 138.84 138.077 138.925 137.672 139.096C137.267 139.267 136.915 139.512 136.616 139.832C136.328 140.152 136.104 140.536 135.944 140.984C135.784 141.432 135.704 141.933 135.704 142.488V144.344C135.704 144.899 135.784 145.4 135.944 145.848C136.104 146.296 136.328 146.68 136.616 147C136.915 147.32 137.267 147.565 137.672 147.736C138.077 147.907 138.52 147.992 139 147.992Z" fill="#1A1A1A"/>
<rect x="163" y="124" width="1" height="37" fill="white"/>
<rect width="48" height="37" transform="translate(164 124)" fill="white"/>
<path d="M188.67 139.016V149H187.326V139.016H183.774V137.832H192.222V139.016H188.67Z" fill="#1A1A1A"/>
<rect x="212" y="124" width="1" height="37" fill="white"/>
<rect width="48" height="37" transform="translate(213 124)" fill="white"/>
<path d="M234.019 149V137.832H240.675V139.016H235.363V142.76H240.211V143.944H235.363V149H234.019Z" fill="#1A1A1A"/>
<rect x="261" y="124" width="1" height="37" fill="white"/>
<rect width="48" height="37" transform="translate(262 124)" fill="white"/>
<path d="M283.48 149V137.832H284.824V147.816H289.576V149H283.48Z" fill="#1A1A1A"/>
<rect x="310" y="124" width="1" height="37" fill="white"/>
<rect width="48" height="37" transform="translate(311 124)" fill="white"/>
<path d="M334.976 149.192C334.069 149.192 333.296 149.021 332.656 148.68C332.016 148.328 331.472 147.848 331.024 147.24L332.016 146.408C332.41 146.931 332.848 147.331 333.328 147.608C333.808 147.875 334.373 148.008 335.024 148.008C335.824 148.008 336.432 147.816 336.848 147.432C337.274 147.048 337.488 146.536 337.488 145.896C337.488 145.363 337.328 144.952 337.008 144.664C336.688 144.376 336.16 144.147 335.424 143.976L334.512 143.768C333.488 143.533 332.704 143.181 332.16 142.712C331.626 142.232 331.36 141.56 331.36 140.696C331.36 140.205 331.45 139.768 331.632 139.384C331.813 139 332.064 138.68 332.384 138.424C332.714 138.168 333.104 137.976 333.552 137.848C334.01 137.709 334.512 137.64 335.056 137.64C335.898 137.64 336.618 137.795 337.216 138.104C337.824 138.413 338.336 138.867 338.752 139.464L337.744 140.2C337.434 139.773 337.061 139.437 336.624 139.192C336.186 138.947 335.642 138.824 334.992 138.824C334.277 138.824 333.712 138.979 333.296 139.288C332.89 139.587 332.688 140.04 332.688 140.648C332.688 141.181 332.858 141.587 333.2 141.864C333.552 142.131 334.08 142.344 334.784 142.504L335.696 142.712C336.794 142.957 337.589 143.331 338.08 143.832C338.57 144.333 338.816 145 338.816 145.832C338.816 146.344 338.725 146.808 338.544 147.224C338.373 147.64 338.122 147.992 337.792 148.28C337.461 148.568 337.056 148.792 336.576 148.952C336.106 149.112 335.573 149.192 334.976 149.192Z" fill="#1A1A1A"/>
<rect x="17" y="162" width="1" height="342" transform="rotate(-90 17 162)" fill="#BFBFBF"/>
<rect width="48" height="37" transform="translate(17 162)" fill="#F5F5F5"/>
<path d="M37.5823 180.568C38.3396 180.568 38.9049 180.397 39.2783 180.056C39.6623 179.704 39.8543 179.256 39.8543 178.712V178.6C39.8543 178.013 39.6676 177.576 39.2943 177.288C38.9316 176.989 38.4516 176.84 37.8543 176.84C37.2783 176.84 36.8089 176.968 36.4463 177.224C36.0836 177.469 35.7849 177.805 35.5503 178.232L34.5583 177.464C34.6969 177.24 34.8623 177.021 35.0543 176.808C35.2569 176.584 35.4916 176.387 35.7582 176.216C36.0249 176.045 36.3343 175.907 36.6863 175.8C37.0383 175.693 37.4383 175.64 37.8863 175.64C38.3556 175.64 38.7983 175.704 39.2143 175.832C39.6303 175.949 39.9876 176.131 40.2863 176.376C40.5956 176.611 40.8356 176.904 41.0063 177.256C41.1876 177.608 41.2783 178.008 41.2783 178.456C41.2783 178.819 41.2196 179.144 41.1023 179.432C40.9956 179.72 40.8463 179.971 40.6543 180.184C40.4623 180.397 40.2329 180.579 39.9663 180.728C39.7103 180.877 39.4329 180.989 39.1343 181.064V181.128C39.4329 181.192 39.7209 181.299 39.9983 181.448C40.2863 181.587 40.5369 181.773 40.7503 182.008C40.9743 182.232 41.1503 182.509 41.2783 182.84C41.4169 183.16 41.4862 183.528 41.4862 183.944C41.4862 184.424 41.3956 184.867 41.2143 185.272C41.0329 185.667 40.7769 186.008 40.4463 186.296C40.1156 186.573 39.7156 186.792 39.2463 186.952C38.7769 187.112 38.2596 187.192 37.6943 187.192C37.2143 187.192 36.7876 187.139 36.4143 187.032C36.0409 186.925 35.7103 186.781 35.4223 186.6C35.1343 186.419 34.8783 186.216 34.6543 185.992C34.4409 185.768 34.2489 185.533 34.0783 185.288L35.0863 184.52C35.2249 184.744 35.3743 184.947 35.5343 185.128C35.7049 185.309 35.8916 185.464 36.0943 185.592C36.2969 185.72 36.5263 185.821 36.7823 185.896C37.0383 185.96 37.3369 185.992 37.6783 185.992C38.4676 185.992 39.0649 185.816 39.4703 185.464C39.8756 185.101 40.0783 184.589 40.0783 183.928V183.8C40.0783 183.139 39.8756 182.632 39.4703 182.28C39.0649 181.917 38.4676 181.736 37.6783 181.736H36.3663V180.568H37.5823ZM47.8 187.192C46.4667 187.192 45.4907 186.685 44.872 185.672C44.264 184.659 43.96 183.24 43.96 181.416C43.96 179.592 44.264 178.173 44.872 177.16C45.4907 176.147 46.4667 175.64 47.8 175.64C49.1333 175.64 50.104 176.147 50.712 177.16C51.3307 178.173 51.64 179.592 51.64 181.416C51.64 183.24 51.3307 184.659 50.712 185.672C50.104 186.685 49.1333 187.192 47.8 187.192ZM47.8 186.024C48.2373 186.024 48.6107 185.933 48.92 185.752C49.2293 185.571 49.48 185.315 49.672 184.984C49.864 184.653 50.0027 184.264 50.088 183.816C50.184 183.368 50.232 182.872 50.232 182.328V180.504C50.232 179.96 50.184 179.464 50.088 179.016C50.0027 178.568 49.864 178.179 49.672 177.848C49.48 177.517 49.2293 177.261 48.92 177.08C48.6107 176.899 48.2373 176.808 47.8 176.808C47.3627 176.808 46.9893 176.899 46.68 177.08C46.3707 177.261 46.12 177.517 45.928 177.848C45.736 178.179 45.592 178.568 45.496 179.016C45.4107 179.464 45.368 179.96 45.368 180.504V182.328C45.368 182.872 45.4107 183.368 45.496 183.816C45.592 184.264 45.736 184.653 45.928 184.984C46.12 185.315 46.3707 185.571 46.68 185.752C46.9893 185.933 47.3627 186.024 47.8 186.024Z" fill="#1A1A1A"/>
<rect x="65" y="162" width="1" height="37" fill="#BFBFBF"/>
<rect width="48" height="37" transform="translate(66 162)" fill="#F5F5F5"/>
<path d="M86.5823 180.568C87.3396 180.568 87.9049 180.397 88.2783 180.056C88.6623 179.704 88.8543 179.256 88.8543 178.712V178.6C88.8543 178.013 88.6676 177.576 88.2943 177.288C87.9316 176.989 87.4516 176.84 86.8543 176.84C86.2783 176.84 85.8089 176.968 85.4463 177.224C85.0836 177.469 84.7849 177.805 84.5503 178.232L83.5583 177.464C83.6969 177.24 83.8623 177.021 84.0543 176.808C84.2569 176.584 84.4916 176.387 84.7582 176.216C85.0249 176.045 85.3343 175.907 85.6863 175.8C86.0383 175.693 86.4383 175.64 86.8863 175.64C87.3556 175.64 87.7983 175.704 88.2143 175.832C88.6303 175.949 88.9876 176.131 89.2863 176.376C89.5956 176.611 89.8356 176.904 90.0063 177.256C90.1876 177.608 90.2783 178.008 90.2783 178.456C90.2783 178.819 90.2196 179.144 90.1023 179.432C89.9956 179.72 89.8463 179.971 89.6543 180.184C89.4623 180.397 89.2329 180.579 88.9663 180.728C88.7103 180.877 88.4329 180.989 88.1343 181.064V181.128C88.4329 181.192 88.7209 181.299 88.9983 181.448C89.2863 181.587 89.5369 181.773 89.7503 182.008C89.9743 182.232 90.1503 182.509 90.2783 182.84C90.4169 183.16 90.4862 183.528 90.4862 183.944C90.4862 184.424 90.3956 184.867 90.2143 185.272C90.0329 185.667 89.7769 186.008 89.4463 186.296C89.1156 186.573 88.7156 186.792 88.2463 186.952C87.7769 187.112 87.2596 187.192 86.6943 187.192C86.2143 187.192 85.7876 187.139 85.4143 187.032C85.0409 186.925 84.7103 186.781 84.4223 186.6C84.1343 186.419 83.8783 186.216 83.6543 185.992C83.4409 185.768 83.2489 185.533 83.0783 185.288L84.0863 184.52C84.2249 184.744 84.3743 184.947 84.5343 185.128C84.7049 185.309 84.8916 185.464 85.0943 185.592C85.2969 185.72 85.5263 185.821 85.7823 185.896C86.0383 185.96 86.3369 185.992 86.6783 185.992C87.4676 185.992 88.0649 185.816 88.4703 185.464C88.8756 185.101 89.0783 184.589 89.0783 183.928V183.8C89.0783 183.139 88.8756 182.632 88.4703 182.28C88.0649 181.917 87.4676 181.736 86.6783 181.736H85.3663V180.568H86.5823ZM96.8 187.192C95.4667 187.192 94.4907 186.685 93.872 185.672C93.264 184.659 92.96 183.24 92.96 181.416C92.96 179.592 93.264 178.173 93.872 177.16C94.4907 176.147 95.4667 175.64 96.8 175.64C98.1333 175.64 99.104 176.147 99.712 177.16C100.331 178.173 100.64 179.592 100.64 181.416C100.64 183.24 100.331 184.659 99.712 185.672C99.104 186.685 98.1333 187.192 96.8 187.192ZM96.8 186.024C97.2373 186.024 97.6107 185.933 97.92 185.752C98.2293 185.571 98.48 185.315 98.672 184.984C98.864 184.653 99.0027 184.264 99.088 183.816C99.184 183.368 99.232 182.872 99.232 182.328V180.504C99.232 179.96 99.184 179.464 99.088 179.016C99.0027 178.568 98.864 178.179 98.672 177.848C98.48 177.517 98.2293 177.261 97.92 177.08C97.6107 176.899 97.2373 176.808 96.8 176.808C96.3627 176.808 95.9893 176.899 95.68 177.08C95.3707 177.261 95.12 177.517 94.928 177.848C94.736 178.179 94.592 178.568 94.496 179.016C94.4107 179.464 94.368 179.96 94.368 180.504V182.328C94.368 182.872 94.4107 183.368 94.496 183.816C94.592 184.264 94.736 184.653 94.928 184.984C95.12 185.315 95.3707 185.571 95.68 185.752C95.9893 185.933 96.3627 186.024 96.8 186.024Z" fill="#1A1A1A"/>
<rect x="114" y="162" width="1" height="37" fill="#BFBFBF"/>
<rect width="48" height="37" transform="translate(115 162)" fill="#F5F5F5"/>
<path d="M135.582 180.568C136.34 180.568 136.905 180.397 137.278 180.056C137.662 179.704 137.854 179.256 137.854 178.712V178.6C137.854 178.013 137.668 177.576 137.294 177.288C136.932 176.989 136.452 176.84 135.854 176.84C135.278 176.84 134.809 176.968 134.446 177.224C134.084 177.469 133.785 177.805 133.55 178.232L132.558 177.464C132.697 177.24 132.862 177.021 133.054 176.808C133.257 176.584 133.492 176.387 133.758 176.216C134.025 176.045 134.334 175.907 134.686 175.8C135.038 175.693 135.438 175.64 135.886 175.64C136.356 175.64 136.798 175.704 137.214 175.832C137.63 175.949 137.988 176.131 138.286 176.376C138.596 176.611 138.836 176.904 139.006 177.256C139.188 177.608 139.278 178.008 139.278 178.456C139.278 178.819 139.22 179.144 139.102 179.432C138.996 179.72 138.846 179.971 138.654 180.184C138.462 180.397 138.233 180.579 137.966 180.728C137.71 180.877 137.433 180.989 137.134 181.064V181.128C137.433 181.192 137.721 181.299 137.998 181.448C138.286 181.587 138.537 181.773 138.75 182.008C138.974 182.232 139.15 182.509 139.278 182.84C139.417 183.16 139.486 183.528 139.486 183.944C139.486 184.424 139.396 184.867 139.214 185.272C139.033 185.667 138.777 186.008 138.446 186.296C138.116 186.573 137.716 186.792 137.246 186.952C136.777 187.112 136.26 187.192 135.694 187.192C135.214 187.192 134.788 187.139 134.414 187.032C134.041 186.925 133.71 186.781 133.422 186.6C133.134 186.419 132.878 186.216 132.654 185.992C132.441 185.768 132.249 185.533 132.078 185.288L133.086 184.52C133.225 184.744 133.374 184.947 133.534 185.128C133.705 185.309 133.892 185.464 134.094 185.592C134.297 185.72 134.526 185.821 134.782 185.896C135.038 185.96 135.337 185.992 135.678 185.992C136.468 185.992 137.065 185.816 137.47 185.464C137.876 185.101 138.078 184.589 138.078 183.928V183.8C138.078 183.139 137.876 182.632 137.47 182.28C137.065 181.917 136.468 181.736 135.678 181.736H134.366V180.568H135.582ZM145.8 187.192C144.467 187.192 143.491 186.685 142.872 185.672C142.264 184.659 141.96 183.24 141.96 181.416C141.96 179.592 142.264 178.173 142.872 177.16C143.491 176.147 144.467 175.64 145.8 175.64C147.133 175.64 148.104 176.147 148.712 177.16C149.331 178.173 149.64 179.592 149.64 181.416C149.64 183.24 149.331 184.659 148.712 185.672C148.104 186.685 147.133 187.192 145.8 187.192ZM145.8 186.024C146.237 186.024 146.611 185.933 146.92 185.752C147.229 185.571 147.48 185.315 147.672 184.984C147.864 184.653 148.003 184.264 148.088 183.816C148.184 183.368 148.232 182.872 148.232 182.328V180.504C148.232 179.96 148.184 179.464 148.088 179.016C148.003 178.568 147.864 178.179 147.672 177.848C147.48 177.517 147.229 177.261 146.92 177.08C146.611 176.899 146.237 176.808 145.8 176.808C145.363 176.808 144.989 176.899 144.68 177.08C144.371 177.261 144.12 177.517 143.928 177.848C143.736 178.179 143.592 178.568 143.496 179.016C143.411 179.464 143.368 179.96 143.368 180.504V182.328C143.368 182.872 143.411 183.368 143.496 183.816C143.592 184.264 143.736 184.653 143.928 184.984C144.12 185.315 144.371 185.571 144.68 185.752C144.989 185.933 145.363 186.024 145.8 186.024Z" fill="#1A1A1A"/>
<rect x="163" y="162" width="1" height="37" fill="#BFBFBF"/>
<rect width="48" height="37" transform="translate(164 162)" fill="#F5F5F5"/>
<path d="M184.582 180.568C185.34 180.568 185.905 180.397 186.278 180.056C186.662 179.704 186.854 179.256 186.854 178.712V178.6C186.854 178.013 186.668 177.576 186.294 177.288C185.932 176.989 185.452 176.84 184.854 176.84C184.278 176.84 183.809 176.968 183.446 177.224C183.084 177.469 182.785 177.805 182.55 178.232L181.558 177.464C181.697 177.24 181.862 177.021 182.054 176.808C182.257 176.584 182.492 176.387 182.758 176.216C183.025 176.045 183.334 175.907 183.686 175.8C184.038 175.693 184.438 175.64 184.886 175.64C185.356 175.64 185.798 175.704 186.214 175.832C186.63 175.949 186.988 176.131 187.286 176.376C187.596 176.611 187.836 176.904 188.006 177.256C188.188 177.608 188.278 178.008 188.278 178.456C188.278 178.819 188.22 179.144 188.102 179.432C187.996 179.72 187.846 179.971 187.654 180.184C187.462 180.397 187.233 180.579 186.966 180.728C186.71 180.877 186.433 180.989 186.134 181.064V181.128C186.433 181.192 186.721 181.299 186.998 181.448C187.286 181.587 187.537 181.773 187.75 182.008C187.974 182.232 188.15 182.509 188.278 182.84C188.417 183.16 188.486 183.528 188.486 183.944C188.486 184.424 188.396 184.867 188.214 185.272C188.033 185.667 187.777 186.008 187.446 186.296C187.116 186.573 186.716 186.792 186.246 186.952C185.777 187.112 185.26 187.192 184.694 187.192C184.214 187.192 183.788 187.139 183.414 187.032C183.041 186.925 182.71 186.781 182.422 186.6C182.134 186.419 181.878 186.216 181.654 185.992C181.441 185.768 181.249 185.533 181.078 185.288L182.086 184.52C182.225 184.744 182.374 184.947 182.534 185.128C182.705 185.309 182.892 185.464 183.094 185.592C183.297 185.72 183.526 185.821 183.782 185.896C184.038 185.96 184.337 185.992 184.678 185.992C185.468 185.992 186.065 185.816 186.47 185.464C186.876 185.101 187.078 184.589 187.078 183.928V183.8C187.078 183.139 186.876 182.632 186.47 182.28C186.065 181.917 185.468 181.736 184.678 181.736H183.366V180.568H184.582ZM191.408 187V185.816H194.528V176.824H194.416L191.6 179.448L190.816 178.6L193.776 175.832H195.872V185.816H198.752V187H191.408Z" fill="#1A1A1A"/>
<rect x="212" y="162" width="1" height="37" fill="#C4C4C4"/>
<rect width="48" height="37" transform="translate(213 162)" fill="white"/>
<path d="M240.611 187V185.816H243.731V176.824H243.619L240.803 179.448L240.019 178.6L242.979 175.832H245.075V185.816H247.955V187H240.611Z" fill="#1A1A1A"/>
<rect x="261" y="162" width="1" height="37" fill="#C4C4C4"/>
<rect width="48" height="37" transform="translate(262 162)" fill="white"/>
<path d="M296.731 187H289.403V185.624L293.051 182.264C293.574 181.784 294.011 181.277 294.363 180.744C294.715 180.2 294.891 179.656 294.891 179.112V178.92C294.891 178.301 294.72 177.8 294.379 177.416C294.038 177.032 293.52 176.84 292.827 176.84C292.486 176.84 292.187 176.888 291.931 176.984C291.675 177.08 291.451 177.213 291.259 177.384C291.078 177.555 290.923 177.757 290.795 177.992C290.678 178.216 290.582 178.461 290.507 178.728L289.307 178.264C289.414 177.933 289.558 177.613 289.739 177.304C289.931 176.984 290.166 176.701 290.443 176.456C290.731 176.211 291.072 176.013 291.467 175.864C291.872 175.715 292.347 175.64 292.891 175.64C293.435 175.64 293.92 175.72 294.347 175.88C294.774 176.04 295.131 176.264 295.419 176.552C295.707 176.84 295.926 177.181 296.075 177.576C296.235 177.971 296.315 178.408 296.315 178.888C296.315 179.325 296.251 179.731 296.123 180.104C296.006 180.477 295.84 180.835 295.627 181.176C295.414 181.507 295.152 181.832 294.843 182.152C294.544 182.472 294.219 182.792 293.867 183.112L290.859 185.816H296.731V187Z" fill="#1A1A1A"/>
<rect x="310" y="162" width="1" height="37" fill="#C4C4C4"/>
<rect width="48" height="37" transform="translate(311 162)" fill="white"/>
<path d="M341.379 180.568C342.136 180.568 342.702 180.397 343.075 180.056C343.459 179.704 343.651 179.256 343.651 178.712V178.6C343.651 178.013 343.464 177.576 343.091 177.288C342.728 176.989 342.248 176.84 341.651 176.84C341.075 176.84 340.606 176.968 340.243 177.224C339.88 177.469 339.582 177.805 339.347 178.232L338.355 177.464C338.494 177.24 338.659 177.021 338.851 176.808C339.054 176.584 339.288 176.387 339.555 176.216C339.822 176.045 340.131 175.907 340.483 175.8C340.835 175.693 341.235 175.64 341.683 175.64C342.152 175.64 342.595 175.704 343.011 175.832C343.427 175.949 343.784 176.131 344.083 176.376C344.392 176.611 344.632 176.904 344.803 177.256C344.984 177.608 345.075 178.008 345.075 178.456C345.075 178.819 345.016 179.144 344.899 179.432C344.792 179.72 344.643 179.971 344.451 180.184C344.259 180.397 344.03 180.579 343.763 180.728C343.507 180.877 343.23 180.989 342.931 181.064V181.128C343.23 181.192 343.518 181.299 343.795 181.448C344.083 181.587 344.334 181.773 344.547 182.008C344.771 182.232 344.947 182.509 345.075 182.84C345.214 183.16 345.283 183.528 345.283 183.944C345.283 184.424 345.192 184.867 345.011 185.272C344.83 185.667 344.574 186.008 344.243 186.296C343.912 186.573 343.512 186.792 343.043 186.952C342.574 187.112 342.056 187.192 341.491 187.192C341.011 187.192 340.584 187.139 340.211 187.032C339.838 186.925 339.507 186.781 339.219 186.6C338.931 186.419 338.675 186.216 338.451 185.992C338.238 185.768 338.046 185.533 337.875 185.288L338.883 184.52C339.022 184.744 339.171 184.947 339.331 185.128C339.502 185.309 339.688 185.464 339.891 185.592C340.094 185.72 340.323 185.821 340.579 185.896C340.835 185.96 341.134 185.992 341.475 185.992C342.264 185.992 342.862 185.816 343.267 185.464C343.672 185.101 343.875 184.589 343.875 183.928V183.8C343.875 183.139 343.672 182.632 343.267 182.28C342.862 181.917 342.264 181.736 341.475 181.736H340.163V180.568H341.379Z" fill="#1A1A1A"/>
<rect x="17" y="200" width="1" height="342" transform="rotate(-90 17 200)" fill="#BFBFBF"/>
<rect width="48" height="37" transform="translate(17 200)" fill="white"/>
<path d="M49.2031 225V222.808H43.8111V221.624L48.4831 213.832H50.4831V221.688H52.0991V222.808H50.4831V225H49.2031ZM45.0751 221.688H49.2031V214.872H49.1231L45.0751 221.688Z" fill="#1A1A1A"/>
<rect x="65" y="200" width="1" height="37" fill="#C4C4C4"/>
<rect width="48" height="37" transform="translate(66 200)" fill="white"/>
<path d="M100.171 215.016H95.2751L94.9551 219.272H95.0671C95.3338 218.899 95.6325 218.6 95.9631 218.376C96.3045 218.152 96.7685 218.04 97.3551 218.04C97.8351 218.04 98.2778 218.12 98.6831 218.28C99.0885 218.44 99.4405 218.669 99.7391 218.968C100.038 219.256 100.267 219.613 100.427 220.04C100.598 220.467 100.683 220.952 100.683 221.496C100.683 222.04 100.598 222.541 100.427 223C100.256 223.448 100.006 223.837 99.6751 224.168C99.3551 224.488 98.9605 224.739 98.4911 224.92C98.0325 225.101 97.5098 225.192 96.9231 225.192C96.4538 225.192 96.0378 225.139 95.6751 225.032C95.3231 224.925 95.0085 224.781 94.7311 224.6C94.4538 224.419 94.2085 224.216 93.9951 223.992C93.7925 223.768 93.6058 223.533 93.4351 223.288L94.4431 222.52C94.5818 222.744 94.7258 222.947 94.8751 223.128C95.0351 223.309 95.2058 223.464 95.3871 223.592C95.5791 223.72 95.7978 223.821 96.0431 223.896C96.2885 223.96 96.5818 223.992 96.9231 223.992C97.6911 223.992 98.2725 223.789 98.6671 223.384C99.0618 222.979 99.2591 222.408 99.2591 221.672V221.512C99.2591 220.776 99.0618 220.205 98.6671 219.8C98.2725 219.395 97.6911 219.192 96.9231 219.192C96.4111 219.192 96.0058 219.288 95.7071 219.48C95.4191 219.661 95.1578 219.88 94.9231 220.136L93.7871 219.976L94.1871 213.832H100.171V215.016Z" fill="#1A1A1A"/>
<rect x="114" y="200" width="1" height="37" fill="#C4C4C4"/>
<rect width="48" height="37" transform="translate(115 200)" fill="#454545"/>
<path d="M146.051 225.192C145.411 225.192 144.84 225.091 144.339 224.888C143.838 224.675 143.411 224.381 143.059 224.008C142.707 223.624 142.44 223.165 142.259 222.632C142.078 222.088 141.987 221.48 141.987 220.808C141.987 220.008 142.104 219.256 142.339 218.552C142.584 217.837 142.899 217.187 143.283 216.6C143.667 216.003 144.094 215.475 144.563 215.016C145.043 214.547 145.518 214.152 145.987 213.832H148.835C148.174 214.301 147.582 214.755 147.059 215.192C146.547 215.629 146.094 216.072 145.699 216.52C145.315 216.968 144.995 217.437 144.739 217.928C144.494 218.408 144.307 218.931 144.179 219.496L144.307 219.528C144.414 219.315 144.536 219.112 144.675 218.92C144.824 218.717 145 218.541 145.203 218.392C145.406 218.232 145.64 218.109 145.907 218.024C146.174 217.928 146.483 217.88 146.835 217.88C147.294 217.88 147.72 217.96 148.115 218.12C148.52 218.28 148.867 218.515 149.155 218.824C149.454 219.123 149.683 219.485 149.843 219.912C150.014 220.339 150.099 220.813 150.099 221.336C150.099 221.901 150.003 222.419 149.811 222.888C149.619 223.357 149.347 223.763 148.995 224.104C148.643 224.445 148.216 224.712 147.715 224.904C147.224 225.096 146.67 225.192 146.051 225.192ZM146.051 223.528C146.638 223.528 147.096 223.368 147.427 223.048C147.768 222.717 147.939 222.248 147.939 221.64V221.4C147.939 220.792 147.768 220.328 147.427 220.008C147.096 219.677 146.638 219.512 146.051 219.512C145.454 219.512 144.99 219.677 144.659 220.008C144.328 220.328 144.163 220.792 144.163 221.4V221.64C144.163 222.248 144.328 222.717 144.659 223.048C144.99 223.368 145.454 223.528 146.051 223.528Z" fill="white"/>
<rect x="163" y="200" width="1" height="37" fill="#C4C4C4"/>
<rect width="48" height="37" transform="translate(164 200)" fill="white"/>
<path d="M193.003 225L197.275 214.984H192.507V217.064H191.307V213.832H198.635V215.016L194.443 225H193.003Z" fill="#1A1A1A"/>
<rect x="212" y="200" width="1" height="37" fill="#C4C4C4"/>
<rect width="48" height="37" transform="translate(213 200)" fill="white"/>
<path d="M244.003 225.192C243.363 225.192 242.803 225.112 242.323 224.952C241.843 224.781 241.438 224.552 241.107 224.264C240.787 223.976 240.542 223.635 240.371 223.24C240.211 222.845 240.131 222.419 240.131 221.96C240.131 221.192 240.339 220.584 240.755 220.136C241.171 219.688 241.715 219.373 242.387 219.192V219.064C241.8 218.861 241.331 218.536 240.979 218.088C240.638 217.629 240.467 217.08 240.467 216.44C240.467 215.587 240.776 214.909 241.395 214.408C242.014 213.896 242.883 213.64 244.003 213.64C245.123 213.64 245.992 213.896 246.611 214.408C247.23 214.909 247.539 215.587 247.539 216.44C247.539 217.08 247.363 217.629 247.011 218.088C246.67 218.536 246.206 218.861 245.619 219.064V219.192C246.291 219.373 246.835 219.688 247.251 220.136C247.667 220.584 247.875 221.192 247.875 221.96C247.875 222.419 247.79 222.845 247.619 223.24C247.459 223.635 247.214 223.976 246.883 224.264C246.563 224.552 246.163 224.781 245.683 224.952C245.203 225.112 244.643 225.192 244.003 225.192ZM244.003 224.024C244.782 224.024 245.384 223.853 245.811 223.512C246.238 223.16 246.451 222.664 246.451 222.024V221.688C246.451 221.048 246.238 220.557 245.811 220.216C245.384 219.864 244.782 219.688 244.003 219.688C243.224 219.688 242.622 219.864 242.195 220.216C241.768 220.557 241.555 221.048 241.555 221.688V222.024C241.555 222.664 241.768 223.16 242.195 223.512C242.622 223.853 243.224 224.024 244.003 224.024ZM244.003 218.568C244.707 218.568 245.24 218.419 245.603 218.12C245.966 217.821 246.147 217.384 246.147 216.808V216.568C246.147 215.992 245.966 215.555 245.603 215.256C245.24 214.957 244.707 214.808 244.003 214.808C243.299 214.808 242.766 214.957 242.403 215.256C242.04 215.555 241.859 215.992 241.859 216.568V216.808C241.859 217.384 242.04 217.821 242.403 218.12C242.766 218.419 243.299 218.568 244.003 218.568Z" fill="#1A1A1A"/>
<rect x="261" y="200" width="1" height="37" fill="#C4C4C4"/>
<rect width="48" height="37" transform="translate(262 200)" fill="white"/>
<path d="M296.731 217.928C296.731 218.76 296.608 219.544 296.363 220.28C296.118 221.005 295.798 221.672 295.403 222.28C295.019 222.877 294.592 223.411 294.123 223.88C293.654 224.339 293.195 224.712 292.747 225H291.019C291.616 224.563 292.15 224.136 292.619 223.72C293.088 223.304 293.499 222.872 293.851 222.424C294.203 221.965 294.502 221.48 294.747 220.968C294.992 220.445 295.19 219.859 295.339 219.208L295.259 219.176C294.992 219.635 294.646 220.019 294.219 220.328C293.803 220.627 293.254 220.776 292.571 220.776C292.091 220.776 291.648 220.696 291.243 220.536C290.838 220.376 290.491 220.147 290.203 219.848C289.915 219.549 289.686 219.192 289.515 218.776C289.355 218.349 289.275 217.869 289.275 217.336C289.275 216.792 289.36 216.296 289.531 215.848C289.712 215.389 289.963 215 290.283 214.68C290.614 214.349 291.003 214.093 291.451 213.912C291.91 213.731 292.422 213.64 292.987 213.64C293.563 213.64 294.08 213.741 294.539 213.944C295.008 214.136 295.403 214.419 295.723 214.792C296.054 215.155 296.304 215.603 296.475 216.136C296.646 216.669 296.731 217.267 296.731 217.928ZM293.003 219.64C293.739 219.64 294.31 219.437 294.715 219.032C295.131 218.627 295.339 218.045 295.339 217.288V217.16C295.339 216.403 295.131 215.821 294.715 215.416C294.31 215.011 293.739 214.808 293.003 214.808C292.267 214.808 291.691 215.011 291.275 215.416C290.87 215.821 290.667 216.403 290.667 217.16V217.288C290.667 218.045 290.87 218.627 291.275 219.032C291.691 219.437 292.267 219.64 293.003 219.64Z" fill="#1A1A1A"/>
<rect x="310" y="200" width="1" height="37" fill="#C4C4C4"/>
<rect width="48" height="37" transform="translate(311 200)" fill="white"/>
<path d="M328.814 225V223.816H331.934V214.824H331.822L329.006 217.448L328.222 216.6L331.182 213.832H333.278V223.816H336.158V225H328.814ZM341.8 225.192C340.467 225.192 339.491 224.685 338.872 223.672C338.264 222.659 337.96 221.24 337.96 219.416C337.96 217.592 338.264 216.173 338.872 215.16C339.491 214.147 340.467 213.64 341.8 213.64C343.133 213.64 344.104 214.147 344.712 215.16C345.331 216.173 345.64 217.592 345.64 219.416C345.64 221.24 345.331 222.659 344.712 223.672C344.104 224.685 343.133 225.192 341.8 225.192ZM341.8 224.024C342.237 224.024 342.611 223.933 342.92 223.752C343.229 223.571 343.48 223.315 343.672 222.984C343.864 222.653 344.003 222.264 344.088 221.816C344.184 221.368 344.232 220.872 344.232 220.328V218.504C344.232 217.96 344.184 217.464 344.088 217.016C344.003 216.568 343.864 216.179 343.672 215.848C343.48 215.517 343.229 215.261 342.92 215.08C342.611 214.899 342.237 214.808 341.8 214.808C341.363 214.808 340.989 214.899 340.68 215.08C340.371 215.261 340.12 215.517 339.928 215.848C339.736 216.179 339.592 216.568 339.496 217.016C339.411 217.464 339.368 217.96 339.368 218.504V220.328C339.368 220.872 339.411 221.368 339.496 221.816C339.592 222.264 339.736 222.653 339.928 222.984C340.12 223.315 340.371 223.571 340.68 223.752C340.989 223.933 341.363 224.024 341.8 224.024Z" fill="#1A1A1A"/>
<rect x="17" y="238" width="1" height="342" transform="rotate(-90 17 238)" fill="#BFBFBF"/>
<rect width="48" height="37" transform="translate(17 238)" fill="white"/>
<path d="M34.8143 263V261.816H37.9343V252.824H37.8223L35.0063 255.448L34.2223 254.6L37.1823 251.832H39.2783V261.816H42.1583V263H34.8143ZM44.408 263V261.816H47.528V252.824H47.416L44.6 255.448L43.816 254.6L46.776 251.832H48.872V261.816H51.752V263H44.408Z" fill="#1A1A1A"/>
<rect x="65" y="238" width="1" height="37" fill="#C4C4C4"/>
<rect width="48" height="37" transform="translate(66 238)" fill="white"/>
<path d="M83.8143 263V261.816H86.9343V252.824H86.8223L84.0063 255.448L83.2223 254.6L86.1823 251.832H88.2783V261.816H91.1583V263H83.8143ZM100.528 263H93.2V261.624L96.848 258.264C97.3707 257.784 97.808 257.277 98.16 256.744C98.512 256.2 98.688 255.656 98.688 255.112V254.92C98.688 254.301 98.5173 253.8 98.176 253.416C97.8347 253.032 97.3173 252.84 96.624 252.84C96.2827 252.84 95.984 252.888 95.728 252.984C95.472 253.08 95.248 253.213 95.056 253.384C94.8747 253.555 94.72 253.757 94.592 253.992C94.4747 254.216 94.3787 254.461 94.304 254.728L93.104 254.264C93.2107 253.933 93.3547 253.613 93.536 253.304C93.728 252.984 93.9627 252.701 94.24 252.456C94.528 252.211 94.8693 252.013 95.264 251.864C95.6693 251.715 96.144 251.64 96.688 251.64C97.232 251.64 97.7173 251.72 98.144 251.88C98.5707 252.04 98.928 252.264 99.216 252.552C99.504 252.84 99.7227 253.181 99.872 253.576C100.032 253.971 100.112 254.408 100.112 254.888C100.112 255.325 100.048 255.731 99.92 256.104C99.8027 256.477 99.6373 256.835 99.424 257.176C99.2107 257.507 98.9493 257.832 98.64 258.152C98.3413 258.472 98.016 258.792 97.664 259.112L94.656 261.816H100.528V263Z" fill="#1A1A1A"/>
<rect x="114" y="238" width="1" height="37" fill="#C4C4C4"/>
<rect width="48" height="37" transform="translate(115 238)" fill="white"/>
<path d="M132.814 263V261.816H135.934V252.824H135.822L133.006 255.448L132.222 254.6L135.182 251.832H137.278V261.816H140.158V263H132.814ZM145.176 256.568C145.933 256.568 146.499 256.397 146.872 256.056C147.256 255.704 147.448 255.256 147.448 254.712V254.6C147.448 254.013 147.261 253.576 146.888 253.288C146.525 252.989 146.045 252.84 145.448 252.84C144.872 252.84 144.403 252.968 144.04 253.224C143.677 253.469 143.379 253.805 143.144 254.232L142.152 253.464C142.291 253.24 142.456 253.021 142.648 252.808C142.851 252.584 143.085 252.387 143.352 252.216C143.619 252.045 143.928 251.907 144.28 251.8C144.632 251.693 145.032 251.64 145.48 251.64C145.949 251.64 146.392 251.704 146.808 251.832C147.224 251.949 147.581 252.131 147.88 252.376C148.189 252.611 148.429 252.904 148.6 253.256C148.781 253.608 148.872 254.008 148.872 254.456C148.872 254.819 148.813 255.144 148.696 255.432C148.589 255.72 148.44 255.971 148.248 256.184C148.056 256.397 147.827 256.579 147.56 256.728C147.304 256.877 147.027 256.989 146.728 257.064V257.128C147.027 257.192 147.315 257.299 147.592 257.448C147.88 257.587 148.131 257.773 148.344 258.008C148.568 258.232 148.744 258.509 148.872 258.84C149.011 259.16 149.08 259.528 149.08 259.944C149.08 260.424 148.989 260.867 148.808 261.272C148.627 261.667 148.371 262.008 148.04 262.296C147.709 262.573 147.309 262.792 146.84 262.952C146.371 263.112 145.853 263.192 145.288 263.192C144.808 263.192 144.381 263.139 144.008 263.032C143.635 262.925 143.304 262.781 143.016 262.6C142.728 262.419 142.472 262.216 142.248 261.992C142.035 261.768 141.843 261.533 141.672 261.288L142.68 260.52C142.819 260.744 142.968 260.947 143.128 261.128C143.299 261.309 143.485 261.464 143.688 261.592C143.891 261.72 144.12 261.821 144.376 261.896C144.632 261.96 144.931 261.992 145.272 261.992C146.061 261.992 146.659 261.816 147.064 261.464C147.469 261.101 147.672 260.589 147.672 259.928V259.8C147.672 259.139 147.469 258.632 147.064 258.28C146.659 257.917 146.061 257.736 145.272 257.736H143.96V256.568H145.176Z" fill="#1A1A1A"/>
<rect x="163" y="238" width="1" height="37" fill="#C4C4C4"/>
<rect width="48" height="37" transform="translate(164 238)" fill="white"/>
<path d="M181.814 263V261.816H184.934V252.824H184.822L182.006 255.448L181.222 254.6L184.182 251.832H186.278V261.816H189.158V263H181.814ZM196 263V260.808H190.608V259.624L195.28 251.832H197.28V259.688H198.896V260.808H197.28V263H196ZM191.872 259.688H196V252.872H195.92L191.872 259.688Z" fill="#1A1A1A"/>
<rect x="212" y="238" width="1" height="37" fill="#C4C4C4"/>
<rect width="48" height="37" transform="translate(213 238)" fill="white"/>
<path d="M230.814 263V261.816H233.934V252.824H233.822L231.006 255.448L230.222 254.6L233.182 251.832H235.278V261.816H238.158V263H230.814ZM246.968 253.016H242.072L241.752 257.272H241.864C242.131 256.899 242.429 256.6 242.76 256.376C243.101 256.152 243.565 256.04 244.152 256.04C244.632 256.04 245.075 256.12 245.48 256.28C245.885 256.44 246.237 256.669 246.536 256.968C246.835 257.256 247.064 257.613 247.224 258.04C247.395 258.467 247.48 258.952 247.48 259.496C247.48 260.04 247.395 260.541 247.224 261C247.053 261.448 246.803 261.837 246.472 262.168C246.152 262.488 245.757 262.739 245.288 262.92C244.829 263.101 244.307 263.192 243.72 263.192C243.251 263.192 242.835 263.139 242.472 263.032C242.12 262.925 241.805 262.781 241.528 262.6C241.251 262.419 241.005 262.216 240.792 261.992C240.589 261.768 240.403 261.533 240.232 261.288L241.24 260.52C241.379 260.744 241.523 260.947 241.672 261.128C241.832 261.309 242.003 261.464 242.184 261.592C242.376 261.72 242.595 261.821 242.84 261.896C243.085 261.96 243.379 261.992 243.72 261.992C244.488 261.992 245.069 261.789 245.464 261.384C245.859 260.979 246.056 260.408 246.056 259.672V259.512C246.056 258.776 245.859 258.205 245.464 257.8C245.069 257.395 244.488 257.192 243.72 257.192C243.208 257.192 242.803 257.288 242.504 257.48C242.216 257.661 241.955 257.88 241.72 258.136L240.584 257.976L240.984 251.832H246.968V253.016Z" fill="#1A1A1A"/>
<rect x="261" y="238" width="1" height="37" fill="#C4C4C4"/>
<rect width="48" height="37" transform="translate(262 238)" fill="white"/>
<path d="M279.814 263V261.816H282.934V252.824H282.822L280.006 255.448L279.222 254.6L282.182 251.832H284.278V261.816H287.158V263H279.814ZM292.816 263.192C292.24 263.192 291.717 263.096 291.248 262.904C290.789 262.701 290.395 262.419 290.064 262.056C289.744 261.683 289.499 261.229 289.328 260.696C289.157 260.163 289.072 259.565 289.072 258.904C289.072 258.072 289.195 257.293 289.44 256.568C289.685 255.832 290 255.165 290.384 254.568C290.779 253.96 291.211 253.427 291.68 252.968C292.149 252.499 292.608 252.12 293.056 251.832H294.784C294.187 252.269 293.653 252.696 293.184 253.112C292.715 253.528 292.304 253.965 291.952 254.424C291.6 254.872 291.301 255.357 291.056 255.88C290.811 256.392 290.613 256.973 290.464 257.624L290.544 257.656C290.811 257.197 291.152 256.819 291.568 256.52C291.995 256.211 292.549 256.056 293.232 256.056C293.712 256.056 294.155 256.136 294.56 256.296C294.965 256.456 295.312 256.685 295.6 256.984C295.888 257.283 296.112 257.645 296.272 258.072C296.443 258.499 296.528 258.973 296.528 259.496C296.528 260.04 296.437 260.541 296.256 261C296.085 261.448 295.835 261.837 295.504 262.168C295.184 262.488 294.795 262.739 294.336 262.92C293.877 263.101 293.371 263.192 292.816 263.192ZM292.8 262.024C293.536 262.024 294.107 261.821 294.512 261.416C294.928 261.011 295.136 260.429 295.136 259.672V259.544C295.136 258.787 294.928 258.205 294.512 257.8C294.107 257.395 293.536 257.192 292.8 257.192C292.064 257.192 291.488 257.395 291.072 257.8C290.667 258.205 290.464 258.787 290.464 259.544V259.672C290.464 260.429 290.667 261.011 291.072 261.416C291.488 261.821 292.064 262.024 292.8 262.024Z" fill="#1A1A1A"/>
<rect x="310" y="238" width="1" height="37" fill="#C4C4C4"/>
<rect width="48" height="37" transform="translate(311 238)" fill="white"/>
<path d="M328.814 263V261.816H331.934V252.824H331.822L329.006 255.448L328.222 254.6L331.182 251.832H333.278V261.816H336.158V263H328.814ZM339.8 263L344.072 252.984H339.304V255.064H338.104V251.832H345.432V253.016L341.24 263H339.8Z" fill="#1A1A1A"/>
<rect x="17" y="276" width="1" height="342" transform="rotate(-90 17 276)" fill="#BFBFBF"/>
<rect width="48" height="37" transform="translate(17 276)" fill="white"/>
<path d="M34.8143 301V299.816H37.9343V290.824H37.8223L35.0063 293.448L34.2223 292.6L37.1823 289.832H39.2783V299.816H42.1583V301H34.8143ZM47.8 301.192C47.16 301.192 46.6 301.112 46.12 300.952C45.64 300.781 45.2347 300.552 44.904 300.264C44.584 299.976 44.3387 299.635 44.168 299.24C44.008 298.845 43.928 298.419 43.928 297.96C43.928 297.192 44.136 296.584 44.552 296.136C44.968 295.688 45.512 295.373 46.184 295.192V295.064C45.5973 294.861 45.128 294.536 44.776 294.088C44.4347 293.629 44.264 293.08 44.264 292.44C44.264 291.587 44.5733 290.909 45.192 290.408C45.8107 289.896 46.68 289.64 47.8 289.64C48.92 289.64 49.7893 289.896 50.408 290.408C51.0267 290.909 51.336 291.587 51.336 292.44C51.336 293.08 51.16 293.629 50.808 294.088C50.4667 294.536 50.0027 294.861 49.416 295.064V295.192C50.088 295.373 50.632 295.688 51.048 296.136C51.464 296.584 51.672 297.192 51.672 297.96C51.672 298.419 51.5867 298.845 51.416 299.24C51.256 299.635 51.0107 299.976 50.68 300.264C50.36 300.552 49.96 300.781 49.48 300.952C49 301.112 48.44 301.192 47.8 301.192ZM47.8 300.024C48.5787 300.024 49.1813 299.853 49.608 299.512C50.0347 299.16 50.248 298.664 50.248 298.024V297.688C50.248 297.048 50.0347 296.557 49.608 296.216C49.1813 295.864 48.5787 295.688 47.8 295.688C47.0213 295.688 46.4187 295.864 45.992 296.216C45.5653 296.557 45.352 297.048 45.352 297.688V298.024C45.352 298.664 45.5653 299.16 45.992 299.512C46.4187 299.853 47.0213 300.024 47.8 300.024ZM47.8 294.568C48.504 294.568 49.0373 294.419 49.4 294.12C49.7627 293.821 49.944 293.384 49.944 292.808V292.568C49.944 291.992 49.7627 291.555 49.4 291.256C49.0373 290.957 48.504 290.808 47.8 290.808C47.096 290.808 46.5627 290.957 46.2 291.256C45.8373 291.555 45.656 291.992 45.656 292.568V292.808C45.656 293.384 45.8373 293.821 46.2 294.12C46.5627 294.419 47.096 294.568 47.8 294.568Z" fill="#1A1A1A"/>
<rect x="65" y="276" width="1" height="37" fill="#C4C4C4"/>
<rect width="48" height="37" transform="translate(66 276)" fill="white"/>
<path d="M83.8143 301V299.816H86.9343V290.824H86.8223L84.0063 293.448L83.2223 292.6L86.1823 289.832H88.2783V299.816H91.1583V301H83.8143ZM100.528 293.928C100.528 294.76 100.405 295.544 100.16 296.28C99.9147 297.005 99.5947 297.672 99.2 298.28C98.816 298.877 98.3893 299.411 97.92 299.88C97.4507 300.339 96.992 300.712 96.544 301H94.816C95.4133 300.563 95.9467 300.136 96.416 299.72C96.8853 299.304 97.296 298.872 97.648 298.424C98 297.965 98.2987 297.48 98.544 296.968C98.7893 296.445 98.9867 295.859 99.136 295.208L99.056 295.176C98.7893 295.635 98.4427 296.019 98.016 296.328C97.6 296.627 97.0507 296.776 96.368 296.776C95.888 296.776 95.4453 296.696 95.04 296.536C94.6347 296.376 94.288 296.147 94 295.848C93.712 295.549 93.4827 295.192 93.312 294.776C93.152 294.349 93.072 293.869 93.072 293.336C93.072 292.792 93.1573 292.296 93.328 291.848C93.5093 291.389 93.76 291 94.08 290.68C94.4107 290.349 94.8 290.093 95.248 289.912C95.7067 289.731 96.2187 289.64 96.784 289.64C97.36 289.64 97.8773 289.741 98.336 289.944C98.8053 290.136 99.2 290.419 99.52 290.792C99.8507 291.155 100.101 291.603 100.272 292.136C100.443 292.669 100.528 293.267 100.528 293.928ZM96.8 295.64C97.536 295.64 98.1067 295.437 98.512 295.032C98.928 294.627 99.136 294.045 99.136 293.288V293.16C99.136 292.403 98.928 291.821 98.512 291.416C98.1067 291.011 97.536 290.808 96.8 290.808C96.064 290.808 95.488 291.011 95.072 291.416C94.6667 291.821 94.464 292.403 94.464 293.16V293.288C94.464 294.045 94.6667 294.627 95.072 295.032C95.488 295.437 96.064 295.64 96.8 295.64Z" fill="#1A1A1A"/>
<rect x="114" y="276" width="1" height="37" fill="#C4C4C4"/>
<rect width="48" height="37" transform="translate(115 276)" fill="white"/>
<path d="M139.934 301H132.606V299.624L136.254 296.264C136.777 295.784 137.214 295.277 137.566 294.744C137.918 294.2 138.094 293.656 138.094 293.112V292.92C138.094 292.301 137.924 291.8 137.582 291.416C137.241 291.032 136.724 290.84 136.03 290.84C135.689 290.84 135.39 290.888 135.134 290.984C134.878 291.08 134.654 291.213 134.462 291.384C134.281 291.555 134.126 291.757 133.998 291.992C133.881 292.216 133.785 292.461 133.71 292.728L132.51 292.264C132.617 291.933 132.761 291.613 132.942 291.304C133.134 290.984 133.369 290.701 133.646 290.456C133.934 290.211 134.276 290.013 134.67 289.864C135.076 289.715 135.55 289.64 136.094 289.64C136.638 289.64 137.124 289.72 137.55 289.88C137.977 290.04 138.334 290.264 138.622 290.552C138.91 290.84 139.129 291.181 139.278 291.576C139.438 291.971 139.518 292.408 139.518 292.888C139.518 293.325 139.454 293.731 139.326 294.104C139.209 294.477 139.044 294.835 138.83 295.176C138.617 295.507 138.356 295.832 138.046 296.152C137.748 296.472 137.422 296.792 137.07 297.112L134.062 299.816H139.934V301ZM145.8 301.192C144.467 301.192 143.491 300.685 142.872 299.672C142.264 298.659 141.96 297.24 141.96 295.416C141.96 293.592 142.264 292.173 142.872 291.16C143.491 290.147 144.467 289.64 145.8 289.64C147.133 289.64 148.104 290.147 148.712 291.16C149.331 292.173 149.64 293.592 149.64 295.416C149.64 297.24 149.331 298.659 148.712 299.672C148.104 300.685 147.133 301.192 145.8 301.192ZM145.8 300.024C146.237 300.024 146.611 299.933 146.92 299.752C147.229 299.571 147.48 299.315 147.672 298.984C147.864 298.653 148.003 298.264 148.088 297.816C148.184 297.368 148.232 296.872 148.232 296.328V294.504C148.232 293.96 148.184 293.464 148.088 293.016C148.003 292.568 147.864 292.179 147.672 291.848C147.48 291.517 147.229 291.261 146.92 291.08C146.611 290.899 146.237 290.808 145.8 290.808C145.363 290.808 144.989 290.899 144.68 291.08C144.371 291.261 144.12 291.517 143.928 291.848C143.736 292.179 143.592 292.568 143.496 293.016C143.411 293.464 143.368 293.96 143.368 294.504V296.328C143.368 296.872 143.411 297.368 143.496 297.816C143.592 298.264 143.736 298.653 143.928 298.984C144.12 299.315 144.371 299.571 144.68 299.752C144.989 299.933 145.363 300.024 145.8 300.024Z" fill="#1A1A1A"/>
<rect x="163" y="276" width="1" height="37" fill="#C4C4C4"/>
<rect width="48" height="37" transform="translate(164 276)" fill="white"/>
<path d="M188.934 301H181.606V299.624L185.254 296.264C185.777 295.784 186.214 295.277 186.566 294.744C186.918 294.2 187.094 293.656 187.094 293.112V292.92C187.094 292.301 186.924 291.8 186.582 291.416C186.241 291.032 185.724 290.84 185.03 290.84C184.689 290.84 184.39 290.888 184.134 290.984C183.878 291.08 183.654 291.213 183.462 291.384C183.281 291.555 183.126 291.757 182.998 291.992C182.881 292.216 182.785 292.461 182.71 292.728L181.51 292.264C181.617 291.933 181.761 291.613 181.942 291.304C182.134 290.984 182.369 290.701 182.646 290.456C182.934 290.211 183.276 290.013 183.67 289.864C184.076 289.715 184.55 289.64 185.094 289.64C185.638 289.64 186.124 289.72 186.55 289.88C186.977 290.04 187.334 290.264 187.622 290.552C187.91 290.84 188.129 291.181 188.278 291.576C188.438 291.971 188.518 292.408 188.518 292.888C188.518 293.325 188.454 293.731 188.326 294.104C188.209 294.477 188.044 294.835 187.83 295.176C187.617 295.507 187.356 295.832 187.046 296.152C186.748 296.472 186.422 296.792 186.07 297.112L183.062 299.816H188.934V301ZM191.408 301V299.816H194.528V290.824H194.416L191.6 293.448L190.816 292.6L193.776 289.832H195.872V299.816H198.752V301H191.408Z" fill="#1A1A1A"/>
<rect x="212" y="276" width="1" height="37" fill="#C4C4C4"/>
<rect width="48" height="37" transform="translate(213 276)" fill="white"/>
<path d="M237.934 301H230.606V299.624L234.254 296.264C234.777 295.784 235.214 295.277 235.566 294.744C235.918 294.2 236.094 293.656 236.094 293.112V292.92C236.094 292.301 235.924 291.8 235.582 291.416C235.241 291.032 234.724 290.84 234.03 290.84C233.689 290.84 233.39 290.888 233.134 290.984C232.878 291.08 232.654 291.213 232.462 291.384C232.281 291.555 232.126 291.757 231.998 291.992C231.881 292.216 231.785 292.461 231.71 292.728L230.51 292.264C230.617 291.933 230.761 291.613 230.942 291.304C231.134 290.984 231.369 290.701 231.646 290.456C231.934 290.211 232.276 290.013 232.67 289.864C233.076 289.715 233.55 289.64 234.094 289.64C234.638 289.64 235.124 289.72 235.55 289.88C235.977 290.04 236.334 290.264 236.622 290.552C236.91 290.84 237.129 291.181 237.278 291.576C237.438 291.971 237.518 292.408 237.518 292.888C237.518 293.325 237.454 293.731 237.326 294.104C237.209 294.477 237.044 294.835 236.83 295.176C236.617 295.507 236.356 295.832 236.046 296.152C235.748 296.472 235.422 296.792 235.07 297.112L232.062 299.816H237.934V301ZM247.528 301H240.2V299.624L243.848 296.264C244.371 295.784 244.808 295.277 245.16 294.744C245.512 294.2 245.688 293.656 245.688 293.112V292.92C245.688 292.301 245.517 291.8 245.176 291.416C244.835 291.032 244.317 290.84 243.624 290.84C243.283 290.84 242.984 290.888 242.728 290.984C242.472 291.08 242.248 291.213 242.056 291.384C241.875 291.555 241.72 291.757 241.592 291.992C241.475 292.216 241.379 292.461 241.304 292.728L240.104 292.264C240.211 291.933 240.355 291.613 240.536 291.304C240.728 290.984 240.963 290.701 241.24 290.456C241.528 290.211 241.869 290.013 242.264 289.864C242.669 289.715 243.144 289.64 243.688 289.64C244.232 289.64 244.717 289.72 245.144 289.88C245.571 290.04 245.928 290.264 246.216 290.552C246.504 290.84 246.723 291.181 246.872 291.576C247.032 291.971 247.112 292.408 247.112 292.888C247.112 293.325 247.048 293.731 246.92 294.104C246.803 294.477 246.637 294.835 246.424 295.176C246.211 295.507 245.949 295.832 245.64 296.152C245.341 296.472 245.016 296.792 244.664 297.112L241.656 299.816H247.528V301Z" fill="#1A1A1A"/>
<rect x="261" y="276" width="1" height="37" fill="#C4C4C4"/>
<rect width="48" height="37" transform="translate(262 276)" fill="white"/>
<path d="M286.934 301H279.606V299.624L283.254 296.264C283.777 295.784 284.214 295.277 284.566 294.744C284.918 294.2 285.094 293.656 285.094 293.112V292.92C285.094 292.301 284.924 291.8 284.582 291.416C284.241 291.032 283.724 290.84 283.03 290.84C282.689 290.84 282.39 290.888 282.134 290.984C281.878 291.08 281.654 291.213 281.462 291.384C281.281 291.555 281.126 291.757 280.998 291.992C280.881 292.216 280.785 292.461 280.71 292.728L279.51 292.264C279.617 291.933 279.761 291.613 279.942 291.304C280.134 290.984 280.369 290.701 280.646 290.456C280.934 290.211 281.276 290.013 281.67 289.864C282.076 289.715 282.55 289.64 283.094 289.64C283.638 289.64 284.124 289.72 284.55 289.88C284.977 290.04 285.334 290.264 285.622 290.552C285.91 290.84 286.129 291.181 286.278 291.576C286.438 291.971 286.518 292.408 286.518 292.888C286.518 293.325 286.454 293.731 286.326 294.104C286.209 294.477 286.044 294.835 285.83 295.176C285.617 295.507 285.356 295.832 285.046 296.152C284.748 296.472 284.422 296.792 284.07 297.112L281.062 299.816H286.934V301ZM292.176 294.568C292.933 294.568 293.499 294.397 293.872 294.056C294.256 293.704 294.448 293.256 294.448 292.712V292.6C294.448 292.013 294.261 291.576 293.888 291.288C293.525 290.989 293.045 290.84 292.448 290.84C291.872 290.84 291.403 290.968 291.04 291.224C290.677 291.469 290.379 291.805 290.144 292.232L289.152 291.464C289.291 291.24 289.456 291.021 289.648 290.808C289.851 290.584 290.085 290.387 290.352 290.216C290.619 290.045 290.928 289.907 291.28 289.8C291.632 289.693 292.032 289.64 292.48 289.64C292.949 289.64 293.392 289.704 293.808 289.832C294.224 289.949 294.581 290.131 294.88 290.376C295.189 290.611 295.429 290.904 295.6 291.256C295.781 291.608 295.872 292.008 295.872 292.456C295.872 292.819 295.813 293.144 295.696 293.432C295.589 293.72 295.44 293.971 295.248 294.184C295.056 294.397 294.827 294.579 294.56 294.728C294.304 294.877 294.027 294.989 293.728 295.064V295.128C294.027 295.192 294.315 295.299 294.592 295.448C294.88 295.587 295.131 295.773 295.344 296.008C295.568 296.232 295.744 296.509 295.872 296.84C296.011 297.16 296.08 297.528 296.08 297.944C296.08 298.424 295.989 298.867 295.808 299.272C295.627 299.667 295.371 300.008 295.04 300.296C294.709 300.573 294.309 300.792 293.84 300.952C293.371 301.112 292.853 301.192 292.288 301.192C291.808 301.192 291.381 301.139 291.008 301.032C290.635 300.925 290.304 300.781 290.016 300.6C289.728 300.419 289.472 300.216 289.248 299.992C289.035 299.768 288.843 299.533 288.672 299.288L289.68 298.52C289.819 298.744 289.968 298.947 290.128 299.128C290.299 299.309 290.485 299.464 290.688 299.592C290.891 299.72 291.12 299.821 291.376 299.896C291.632 299.96 291.931 299.992 292.272 299.992C293.061 299.992 293.659 299.816 294.064 299.464C294.469 299.101 294.672 298.589 294.672 297.928V297.8C294.672 297.139 294.469 296.632 294.064 296.28C293.659 295.917 293.061 295.736 292.272 295.736H290.96V294.568H292.176Z" fill="#1A1A1A"/>
<rect x="310" y="276" width="1" height="37" fill="#C4C4C4"/>
<rect width="48" height="37" transform="translate(311 276)" fill="white"/>
<path d="M335.934 301H328.606V299.624L332.254 296.264C332.777 295.784 333.214 295.277 333.566 294.744C333.918 294.2 334.094 293.656 334.094 293.112V292.92C334.094 292.301 333.924 291.8 333.582 291.416C333.241 291.032 332.724 290.84 332.03 290.84C331.689 290.84 331.39 290.888 331.134 290.984C330.878 291.08 330.654 291.213 330.462 291.384C330.281 291.555 330.126 291.757 329.998 291.992C329.881 292.216 329.785 292.461 329.71 292.728L328.51 292.264C328.617 291.933 328.761 291.613 328.942 291.304C329.134 290.984 329.369 290.701 329.646 290.456C329.934 290.211 330.276 290.013 330.67 289.864C331.076 289.715 331.55 289.64 332.094 289.64C332.638 289.64 333.124 289.72 333.55 289.88C333.977 290.04 334.334 290.264 334.622 290.552C334.91 290.84 335.129 291.181 335.278 291.576C335.438 291.971 335.518 292.408 335.518 292.888C335.518 293.325 335.454 293.731 335.326 294.104C335.209 294.477 335.044 294.835 334.83 295.176C334.617 295.507 334.356 295.832 334.046 296.152C333.748 296.472 333.422 296.792 333.07 297.112L330.062 299.816H335.934V301ZM343 301V298.808H337.608V297.624L342.28 289.832H344.28V297.688H345.896V298.808H344.28V301H343ZM338.872 297.688H343V290.872H342.92L338.872 297.688Z" fill="#1A1A1A"/>
<rect x="17" y="314" width="1" height="342" transform="rotate(-90 17 314)" fill="#BFBFBF"/>
<rect width="48" height="37" transform="translate(17 314)" fill="white"/>
<path d="M41.9343 339H34.6063V337.624L38.2543 334.264C38.7769 333.784 39.2143 333.277 39.5663 332.744C39.9183 332.2 40.0943 331.656 40.0943 331.112V330.92C40.0943 330.301 39.9236 329.8 39.5823 329.416C39.2409 329.032 38.7236 328.84 38.0303 328.84C37.6889 328.84 37.3903 328.888 37.1343 328.984C36.8783 329.08 36.6543 329.213 36.4623 329.384C36.2809 329.555 36.1263 329.757 35.9983 329.992C35.8809 330.216 35.7849 330.461 35.7103 330.728L34.5103 330.264C34.6169 329.933 34.7609 329.613 34.9423 329.304C35.1343 328.984 35.3689 328.701 35.6463 328.456C35.9343 328.211 36.2756 328.013 36.6703 327.864C37.0756 327.715 37.5503 327.64 38.0943 327.64C38.6383 327.64 39.1236 327.72 39.5503 327.88C39.9769 328.04 40.3343 328.264 40.6223 328.552C40.9103 328.84 41.1289 329.181 41.2783 329.576C41.4383 329.971 41.5183 330.408 41.5183 330.888C41.5183 331.325 41.4543 331.731 41.3263 332.104C41.2089 332.477 41.0436 332.835 40.8303 333.176C40.6169 333.507 40.3556 333.832 40.0463 334.152C39.7476 334.472 39.4223 334.792 39.0703 335.112L36.0623 337.816H41.9343V339ZM50.968 329.016H46.072L45.752 333.272H45.864C46.1307 332.899 46.4293 332.6 46.76 332.376C47.1013 332.152 47.5653 332.04 48.152 332.04C48.632 332.04 49.0747 332.12 49.48 332.28C49.8853 332.44 50.2373 332.669 50.536 332.968C50.8347 333.256 51.064 333.613 51.224 334.04C51.3947 334.467 51.48 334.952 51.48 335.496C51.48 336.04 51.3947 336.541 51.224 337C51.0533 337.448 50.8027 337.837 50.472 338.168C50.152 338.488 49.7573 338.739 49.288 338.92C48.8293 339.101 48.3067 339.192 47.72 339.192C47.2507 339.192 46.8347 339.139 46.472 339.032C46.12 338.925 45.8053 338.781 45.528 338.6C45.2507 338.419 45.0053 338.216 44.792 337.992C44.5893 337.768 44.4027 337.533 44.232 337.288L45.24 336.52C45.3787 336.744 45.5227 336.947 45.672 337.128C45.832 337.309 46.0027 337.464 46.184 337.592C46.376 337.72 46.5947 337.821 46.84 337.896C47.0853 337.96 47.3787 337.992 47.72 337.992C48.488 337.992 49.0693 337.789 49.464 337.384C49.8587 336.979 50.056 336.408 50.056 335.672V335.512C50.056 334.776 49.8587 334.205 49.464 333.8C49.0693 333.395 48.488 333.192 47.72 333.192C47.208 333.192 46.8027 333.288 46.504 333.48C46.216 333.661 45.9547 333.88 45.72 334.136L44.584 333.976L44.984 327.832H50.968V329.016Z" fill="#1A1A1A"/>
<rect x="65" y="314" width="1" height="37" fill="#C4C4C4"/>
<rect width="48" height="37" transform="translate(66 314)" fill="white"/>
<path d="M90.9343 339H83.6063V337.624L87.2543 334.264C87.7769 333.784 88.2143 333.277 88.5663 332.744C88.9183 332.2 89.0943 331.656 89.0943 331.112V330.92C89.0943 330.301 88.9236 329.8 88.5823 329.416C88.2409 329.032 87.7236 328.84 87.0303 328.84C86.6889 328.84 86.3903 328.888 86.1343 328.984C85.8783 329.08 85.6543 329.213 85.4623 329.384C85.2809 329.555 85.1263 329.757 84.9983 329.992C84.8809 330.216 84.7849 330.461 84.7103 330.728L83.5103 330.264C83.6169 329.933 83.7609 329.613 83.9423 329.304C84.1343 328.984 84.3689 328.701 84.6463 328.456C84.9343 328.211 85.2756 328.013 85.6703 327.864C86.0756 327.715 86.5503 327.64 87.0943 327.64C87.6383 327.64 88.1236 327.72 88.5503 327.88C88.9769 328.04 89.3343 328.264 89.6223 328.552C89.9103 328.84 90.1289 329.181 90.2783 329.576C90.4383 329.971 90.5183 330.408 90.5183 330.888C90.5183 331.325 90.4543 331.731 90.3263 332.104C90.2089 332.477 90.0436 332.835 89.8303 333.176C89.6169 333.507 89.3556 333.832 89.0463 334.152C88.7476 334.472 88.4223 334.792 88.0703 335.112L85.0623 337.816H90.9343V339ZM96.816 339.192C96.24 339.192 95.7173 339.096 95.248 338.904C94.7893 338.701 94.3947 338.419 94.064 338.056C93.744 337.683 93.4987 337.229 93.328 336.696C93.1573 336.163 93.072 335.565 93.072 334.904C93.072 334.072 93.1947 333.293 93.44 332.568C93.6853 331.832 94 331.165 94.384 330.568C94.7787 329.96 95.2107 329.427 95.68 328.968C96.1493 328.499 96.608 328.12 97.056 327.832H98.784C98.1867 328.269 97.6533 328.696 97.184 329.112C96.7147 329.528 96.304 329.965 95.952 330.424C95.6 330.872 95.3013 331.357 95.056 331.88C94.8107 332.392 94.6133 332.973 94.464 333.624L94.544 333.656C94.8107 333.197 95.152 332.819 95.568 332.52C95.9947 332.211 96.5493 332.056 97.232 332.056C97.712 332.056 98.1547 332.136 98.56 332.296C98.9653 332.456 99.312 332.685 99.6 332.984C99.888 333.283 100.112 333.645 100.272 334.072C100.443 334.499 100.528 334.973 100.528 335.496C100.528 336.04 100.437 336.541 100.256 337C100.085 337.448 99.8347 337.837 99.504 338.168C99.184 338.488 98.7947 338.739 98.336 338.92C97.8773 339.101 97.3707 339.192 96.816 339.192ZM96.8 338.024C97.536 338.024 98.1067 337.821 98.512 337.416C98.928 337.011 99.136 336.429 99.136 335.672V335.544C99.136 334.787 98.928 334.205 98.512 333.8C98.1067 333.395 97.536 333.192 96.8 333.192C96.064 333.192 95.488 333.395 95.072 333.8C94.6667 334.205 94.464 334.787 94.464 335.544V335.672C94.464 336.429 94.6667 337.011 95.072 337.416C95.488 337.821 96.064 338.024 96.8 338.024Z" fill="#1A1A1A"/>
<rect x="114" y="314" width="1" height="37" fill="#C4C4C4"/>
<rect width="48" height="37" transform="translate(115 314)" fill="white"/>
<path d="M139.934 339H132.606V337.624L136.254 334.264C136.777 333.784 137.214 333.277 137.566 332.744C137.918 332.2 138.094 331.656 138.094 331.112V330.92C138.094 330.301 137.924 329.8 137.582 329.416C137.241 329.032 136.724 328.84 136.03 328.84C135.689 328.84 135.39 328.888 135.134 328.984C134.878 329.08 134.654 329.213 134.462 329.384C134.281 329.555 134.126 329.757 133.998 329.992C133.881 330.216 133.785 330.461 133.71 330.728L132.51 330.264C132.617 329.933 132.761 329.613 132.942 329.304C133.134 328.984 133.369 328.701 133.646 328.456C133.934 328.211 134.276 328.013 134.67 327.864C135.076 327.715 135.55 327.64 136.094 327.64C136.638 327.64 137.124 327.72 137.55 327.88C137.977 328.04 138.334 328.264 138.622 328.552C138.91 328.84 139.129 329.181 139.278 329.576C139.438 329.971 139.518 330.408 139.518 330.888C139.518 331.325 139.454 331.731 139.326 332.104C139.209 332.477 139.044 332.835 138.83 333.176C138.617 333.507 138.356 333.832 138.046 334.152C137.748 334.472 137.422 334.792 137.07 335.112L134.062 337.816H139.934V339ZM143.8 339L148.072 328.984H143.304V331.064H142.104V327.832H149.432V329.016L145.24 339H143.8Z" fill="#1A1A1A"/>
<rect x="163" y="314" width="1" height="37" fill="#C4C4C4"/>
<rect width="48" height="37" transform="translate(164 314)" fill="white"/>
<path d="M188.934 339H181.606V337.624L185.254 334.264C185.777 333.784 186.214 333.277 186.566 332.744C186.918 332.2 187.094 331.656 187.094 331.112V330.92C187.094 330.301 186.924 329.8 186.582 329.416C186.241 329.032 185.724 328.84 185.03 328.84C184.689 328.84 184.39 328.888 184.134 328.984C183.878 329.08 183.654 329.213 183.462 329.384C183.281 329.555 183.126 329.757 182.998 329.992C182.881 330.216 182.785 330.461 182.71 330.728L181.51 330.264C181.617 329.933 181.761 329.613 181.942 329.304C182.134 328.984 182.369 328.701 182.646 328.456C182.934 328.211 183.276 328.013 183.67 327.864C184.076 327.715 184.55 327.64 185.094 327.64C185.638 327.64 186.124 327.72 186.55 327.88C186.977 328.04 187.334 328.264 187.622 328.552C187.91 328.84 188.129 329.181 188.278 329.576C188.438 329.971 188.518 330.408 188.518 330.888C188.518 331.325 188.454 331.731 188.326 332.104C188.209 332.477 188.044 332.835 187.83 333.176C187.617 333.507 187.356 333.832 187.046 334.152C186.748 334.472 186.422 334.792 186.07 335.112L183.062 337.816H188.934V339ZM194.8 339.192C194.16 339.192 193.6 339.112 193.12 338.952C192.64 338.781 192.235 338.552 191.904 338.264C191.584 337.976 191.339 337.635 191.168 337.24C191.008 336.845 190.928 336.419 190.928 335.96C190.928 335.192 191.136 334.584 191.552 334.136C191.968 333.688 192.512 333.373 193.184 333.192V333.064C192.597 332.861 192.128 332.536 191.776 332.088C191.435 331.629 191.264 331.08 191.264 330.44C191.264 329.587 191.573 328.909 192.192 328.408C192.811 327.896 193.68 327.64 194.8 327.64C195.92 327.64 196.789 327.896 197.408 328.408C198.027 328.909 198.336 329.587 198.336 330.44C198.336 331.08 198.16 331.629 197.808 332.088C197.467 332.536 197.003 332.861 196.416 333.064V333.192C197.088 333.373 197.632 333.688 198.048 334.136C198.464 334.584 198.672 335.192 198.672 335.96C198.672 336.419 198.587 336.845 198.416 337.24C198.256 337.635 198.011 337.976 197.68 338.264C197.36 338.552 196.96 338.781 196.48 338.952C196 339.112 195.44 339.192 194.8 339.192ZM194.8 338.024C195.579 338.024 196.181 337.853 196.608 337.512C197.035 337.16 197.248 336.664 197.248 336.024V335.688C197.248 335.048 197.035 334.557 196.608 334.216C196.181 333.864 195.579 333.688 194.8 333.688C194.021 333.688 193.419 333.864 192.992 334.216C192.565 334.557 192.352 335.048 192.352 335.688V336.024C192.352 336.664 192.565 337.16 192.992 337.512C193.419 337.853 194.021 338.024 194.8 338.024ZM194.8 332.568C195.504 332.568 196.037 332.419 196.4 332.12C196.763 331.821 196.944 331.384 196.944 330.808V330.568C196.944 329.992 196.763 329.555 196.4 329.256C196.037 328.957 195.504 328.808 194.8 328.808C194.096 328.808 193.563 328.957 193.2 329.256C192.837 329.555 192.656 329.992 192.656 330.568V330.808C192.656 331.384 192.837 331.821 193.2 332.12C193.563 332.419 194.096 332.568 194.8 332.568Z" fill="#1A1A1A"/>
<rect x="212" y="314" width="1" height="37" fill="#C4C4C4"/>
<rect width="48" height="37" transform="translate(213 314)" fill="white"/>
<path d="M237.934 339H230.606V337.624L234.254 334.264C234.777 333.784 235.214 333.277 235.566 332.744C235.918 332.2 236.094 331.656 236.094 331.112V330.92C236.094 330.301 235.924 329.8 235.582 329.416C235.241 329.032 234.724 328.84 234.03 328.84C233.689 328.84 233.39 328.888 233.134 328.984C232.878 329.08 232.654 329.213 232.462 329.384C232.281 329.555 232.126 329.757 231.998 329.992C231.881 330.216 231.785 330.461 231.71 330.728L230.51 330.264C230.617 329.933 230.761 329.613 230.942 329.304C231.134 328.984 231.369 328.701 231.646 328.456C231.934 328.211 232.276 328.013 232.67 327.864C233.076 327.715 233.55 327.64 234.094 327.64C234.638 327.64 235.124 327.72 235.55 327.88C235.977 328.04 236.334 328.264 236.622 328.552C236.91 328.84 237.129 329.181 237.278 329.576C237.438 329.971 237.518 330.408 237.518 330.888C237.518 331.325 237.454 331.731 237.326 332.104C237.209 332.477 237.044 332.835 236.83 333.176C236.617 333.507 236.356 333.832 236.046 334.152C235.748 334.472 235.422 334.792 235.07 335.112L232.062 337.816H237.934V339ZM247.528 331.928C247.528 332.76 247.405 333.544 247.16 334.28C246.915 335.005 246.595 335.672 246.2 336.28C245.816 336.877 245.389 337.411 244.92 337.88C244.451 338.339 243.992 338.712 243.544 339H241.816C242.413 338.563 242.947 338.136 243.416 337.72C243.885 337.304 244.296 336.872 244.648 336.424C245 335.965 245.299 335.48 245.544 334.968C245.789 334.445 245.987 333.859 246.136 333.208L246.056 333.176C245.789 333.635 245.443 334.019 245.016 334.328C244.6 334.627 244.051 334.776 243.368 334.776C242.888 334.776 242.445 334.696 242.04 334.536C241.635 334.376 241.288 334.147 241 333.848C240.712 333.549 240.483 333.192 240.312 332.776C240.152 332.349 240.072 331.869 240.072 331.336C240.072 330.792 240.157 330.296 240.328 329.848C240.509 329.389 240.76 329 241.08 328.68C241.411 328.349 241.8 328.093 242.248 327.912C242.707 327.731 243.219 327.64 243.784 327.64C244.36 327.64 244.877 327.741 245.336 327.944C245.805 328.136 246.2 328.419 246.52 328.792C246.851 329.155 247.101 329.603 247.272 330.136C247.443 330.669 247.528 331.267 247.528 331.928ZM243.8 333.64C244.536 333.64 245.107 333.437 245.512 333.032C245.928 332.627 246.136 332.045 246.136 331.288V331.16C246.136 330.403 245.928 329.821 245.512 329.416C245.107 329.011 244.536 328.808 243.8 328.808C243.064 328.808 242.488 329.011 242.072 329.416C241.667 329.821 241.464 330.403 241.464 331.16V331.288C241.464 332.045 241.667 332.627 242.072 333.032C242.488 333.437 243.064 333.64 243.8 333.64Z" fill="#1A1A1A"/>
<rect x="261" y="314" width="1" height="37" fill="#C4C4C4"/>
<rect width="48" height="37" transform="translate(262 314)" fill="white"/>
<path d="M282.582 332.568C283.34 332.568 283.905 332.397 284.278 332.056C284.662 331.704 284.854 331.256 284.854 330.712V330.6C284.854 330.013 284.668 329.576 284.294 329.288C283.932 328.989 283.452 328.84 282.854 328.84C282.278 328.84 281.809 328.968 281.446 329.224C281.084 329.469 280.785 329.805 280.55 330.232L279.558 329.464C279.697 329.24 279.862 329.021 280.054 328.808C280.257 328.584 280.492 328.387 280.758 328.216C281.025 328.045 281.334 327.907 281.686 327.8C282.038 327.693 282.438 327.64 282.886 327.64C283.356 327.64 283.798 327.704 284.214 327.832C284.63 327.949 284.988 328.131 285.286 328.376C285.596 328.611 285.836 328.904 286.006 329.256C286.188 329.608 286.278 330.008 286.278 330.456C286.278 330.819 286.22 331.144 286.102 331.432C285.996 331.72 285.846 331.971 285.654 332.184C285.462 332.397 285.233 332.579 284.966 332.728C284.71 332.877 284.433 332.989 284.134 333.064V333.128C284.433 333.192 284.721 333.299 284.998 333.448C285.286 333.587 285.537 333.773 285.75 334.008C285.974 334.232 286.15 334.509 286.278 334.84C286.417 335.16 286.486 335.528 286.486 335.944C286.486 336.424 286.396 336.867 286.214 337.272C286.033 337.667 285.777 338.008 285.446 338.296C285.116 338.573 284.716 338.792 284.246 338.952C283.777 339.112 283.26 339.192 282.694 339.192C282.214 339.192 281.788 339.139 281.414 339.032C281.041 338.925 280.71 338.781 280.422 338.6C280.134 338.419 279.878 338.216 279.654 337.992C279.441 337.768 279.249 337.533 279.078 337.288L280.086 336.52C280.225 336.744 280.374 336.947 280.534 337.128C280.705 337.309 280.892 337.464 281.094 337.592C281.297 337.72 281.526 337.821 281.782 337.896C282.038 337.96 282.337 337.992 282.678 337.992C283.468 337.992 284.065 337.816 284.47 337.464C284.876 337.101 285.078 336.589 285.078 335.928V335.8C285.078 335.139 284.876 334.632 284.47 334.28C284.065 333.917 283.468 333.736 282.678 333.736H281.366V332.568H282.582ZM292.8 339.192C291.467 339.192 290.491 338.685 289.872 337.672C289.264 336.659 288.96 335.24 288.96 333.416C288.96 331.592 289.264 330.173 289.872 329.16C290.491 328.147 291.467 327.64 292.8 327.64C294.133 327.64 295.104 328.147 295.712 329.16C296.331 330.173 296.64 331.592 296.64 333.416C296.64 335.24 296.331 336.659 295.712 337.672C295.104 338.685 294.133 339.192 292.8 339.192ZM292.8 338.024C293.237 338.024 293.611 337.933 293.92 337.752C294.229 337.571 294.48 337.315 294.672 336.984C294.864 336.653 295.003 336.264 295.088 335.816C295.184 335.368 295.232 334.872 295.232 334.328V332.504C295.232 331.96 295.184 331.464 295.088 331.016C295.003 330.568 294.864 330.179 294.672 329.848C294.48 329.517 294.229 329.261 293.92 329.08C293.611 328.899 293.237 328.808 292.8 328.808C292.363 328.808 291.989 328.899 291.68 329.08C291.371 329.261 291.12 329.517 290.928 329.848C290.736 330.179 290.592 330.568 290.496 331.016C290.411 331.464 290.368 331.96 290.368 332.504V334.328C290.368 334.872 290.411 335.368 290.496 335.816C290.592 336.264 290.736 336.653 290.928 336.984C291.12 337.315 291.371 337.571 291.68 337.752C291.989 337.933 292.363 338.024 292.8 338.024Z" fill="#1A1A1A"/>
<rect x="310" y="314" width="1" height="37" fill="#C4C4C4"/>
<rect width="48" height="37" transform="translate(311 314)" fill="white"/>
<path d="M331.582 332.568C332.34 332.568 332.905 332.397 333.278 332.056C333.662 331.704 333.854 331.256 333.854 330.712V330.6C333.854 330.013 333.668 329.576 333.294 329.288C332.932 328.989 332.452 328.84 331.854 328.84C331.278 328.84 330.809 328.968 330.446 329.224C330.084 329.469 329.785 329.805 329.55 330.232L328.558 329.464C328.697 329.24 328.862 329.021 329.054 328.808C329.257 328.584 329.492 328.387 329.758 328.216C330.025 328.045 330.334 327.907 330.686 327.8C331.038 327.693 331.438 327.64 331.886 327.64C332.356 327.64 332.798 327.704 333.214 327.832C333.63 327.949 333.988 328.131 334.286 328.376C334.596 328.611 334.836 328.904 335.006 329.256C335.188 329.608 335.278 330.008 335.278 330.456C335.278 330.819 335.22 331.144 335.102 331.432C334.996 331.72 334.846 331.971 334.654 332.184C334.462 332.397 334.233 332.579 333.966 332.728C333.71 332.877 333.433 332.989 333.134 333.064V333.128C333.433 333.192 333.721 333.299 333.998 333.448C334.286 333.587 334.537 333.773 334.75 334.008C334.974 334.232 335.15 334.509 335.278 334.84C335.417 335.16 335.486 335.528 335.486 335.944C335.486 336.424 335.396 336.867 335.214 337.272C335.033 337.667 334.777 338.008 334.446 338.296C334.116 338.573 333.716 338.792 333.246 338.952C332.777 339.112 332.26 339.192 331.694 339.192C331.214 339.192 330.788 339.139 330.414 339.032C330.041 338.925 329.71 338.781 329.422 338.6C329.134 338.419 328.878 338.216 328.654 337.992C328.441 337.768 328.249 337.533 328.078 337.288L329.086 336.52C329.225 336.744 329.374 336.947 329.534 337.128C329.705 337.309 329.892 337.464 330.094 337.592C330.297 337.72 330.526 337.821 330.782 337.896C331.038 337.96 331.337 337.992 331.678 337.992C332.468 337.992 333.065 337.816 333.47 337.464C333.876 337.101 334.078 336.589 334.078 335.928V335.8C334.078 335.139 333.876 334.632 333.47 334.28C333.065 333.917 332.468 333.736 331.678 333.736H330.366V332.568H331.582ZM338.408 339V337.816H341.528V328.824H341.416L338.6 331.448L337.816 330.6L340.776 327.832H342.872V337.816H345.752V339H338.408Z" fill="#1A1A1A"/>
<rect x="17" y="352" width="1" height="342" transform="rotate(-90 17 352)" fill="#747474"/>
<rect x="359" y="86" width="1" height="266" fill="#747474"/>
</g>
</g>
<defs>
<filter id="filter0_d_5010_49575" x="8" y="82" width="360" height="282" filterUnits="userSpaceOnUse" color-interpolation-filters="sRGB">
<feFlood flood-opacity="0" result="BackgroundImageFix"/>
<feColorMatrix in="SourceAlpha" type="matrix" values="0 0 0 0 0 0 0 0 0 0 0 0 0 0 0 0 0 0 127 0" result="hardAlpha"/>
<feOffset dy="4"/>
<feGaussianBlur stdDeviation="4"/>
<feColorMatrix type="matrix" values="0 0 0 0 0 0 0 0 0 0 0 0 0 0 0 0 0 0 0.302 0"/>
<feBlend mode="normal" in2="BackgroundImageFix" result="effect1_dropShadow_5010_49575"/>
<feBlend mode="normal" in="SourceGraphic" in2="effect1_dropShadow_5010_49575" result="shape"/>
</filter>
<clipPath id="clip0_5010_49575">
<rect width="418" height="368" fill="white"/>
</clipPath>
</defs>
</svg>
