<svg width="418" height="368" viewBox="0 0 418 368" fill="none" xmlns="http://www.w3.org/2000/svg">
<g clip-path="url(#clip0_6734_65278)">
<rect width="418" height="368" fill="white"/>
<g filter="url(#filter0_d_6734_65278)">
<rect x="16" y="85" width="1" height="266" fill="#747474"/>
<rect x="17" y="86" width="1" height="342" transform="rotate(-90 17 86)" fill="#747474"/>
<rect width="342" height="36" transform="translate(17 86)" fill="#F5F5F5"/>
<path d="M47.41 108.59L46 110L40 104L46 98L47.41 99.41L42.83 104L47.41 108.59ZM41.41 108.59L40 110L34 104L40 98L41.41 99.41L36.83 104L41.41 108.59Z" fill="#1A1A1A"/>
<path d="M76.41 99.42L71.83 104L76.41 108.59L75 110L69 104L75 98L76.41 99.42Z" fill="#1A1A1A"/>
<path d="M144.411 102.148H146.459V111.508C146.459 112.212 146.283 112.751 145.931 113.124C145.579 113.508 145.019 113.7 144.251 113.7H143.131V112.068H144.411V102.148ZM145.435 100.932C145.008 100.932 144.699 100.836 144.507 100.644C144.325 100.452 144.235 100.207 144.235 99.908V99.588C144.235 99.2893 144.325 99.044 144.507 98.852C144.699 98.66 145.008 98.564 145.435 98.564C145.851 98.564 146.155 98.66 146.347 98.852C146.539 99.044 146.635 99.2893 146.635 99.588V99.908C146.635 100.207 146.539 100.452 146.347 100.644C146.155 100.836 145.851 100.932 145.435 100.932ZM154.976 110.5C154.528 110.5 154.171 110.372 153.904 110.116C153.648 109.849 153.488 109.497 153.424 109.06H153.328C153.19 109.604 152.907 110.015 152.48 110.292C152.054 110.559 151.526 110.692 150.896 110.692C150.043 110.692 149.387 110.468 148.928 110.02C148.47 109.572 148.24 108.975 148.24 108.228C148.24 107.364 148.55 106.724 149.168 106.308C149.787 105.881 150.667 105.668 151.808 105.668H153.232V105.06C153.232 104.591 153.11 104.228 152.864 103.972C152.619 103.716 152.224 103.588 151.68 103.588C151.2 103.588 150.811 103.695 150.512 103.908C150.224 104.111 149.979 104.356 149.776 104.644L148.56 103.556C148.87 103.076 149.28 102.692 149.792 102.404C150.304 102.105 150.982 101.956 151.824 101.956C152.955 101.956 153.814 102.212 154.4 102.724C154.987 103.236 155.28 103.972 155.28 104.932V108.868H156.112V110.5H154.976ZM151.584 109.204C152.043 109.204 152.432 109.103 152.752 108.9C153.072 108.697 153.232 108.399 153.232 108.004V106.9H151.92C150.854 106.9 150.32 107.241 150.32 107.924V108.196C150.32 108.537 150.427 108.793 150.64 108.964C150.864 109.124 151.179 109.204 151.584 109.204ZM157.77 110.5V102.148H159.818V103.54H159.898C160.069 103.092 160.335 102.719 160.698 102.42C161.071 102.111 161.583 101.956 162.234 101.956C163.098 101.956 163.759 102.239 164.218 102.804C164.677 103.369 164.906 104.175 164.906 105.22V110.5H162.858V105.428C162.858 104.831 162.751 104.383 162.538 104.084C162.325 103.785 161.973 103.636 161.482 103.636C161.269 103.636 161.061 103.668 160.858 103.732C160.666 103.785 160.49 103.871 160.33 103.988C160.181 104.095 160.058 104.233 159.962 104.404C159.866 104.564 159.818 104.756 159.818 104.98V110.5H157.77ZM172.168 109.108H172.088C172.014 109.321 171.912 109.524 171.784 109.716C171.667 109.897 171.512 110.063 171.32 110.212C171.139 110.361 170.915 110.479 170.648 110.564C170.392 110.649 170.094 110.692 169.752 110.692C168.888 110.692 168.227 110.409 167.768 109.844C167.31 109.279 167.08 108.473 167.08 107.428V102.148H169.128V107.22C169.128 107.796 169.24 108.239 169.464 108.548C169.688 108.847 170.046 108.996 170.536 108.996C170.739 108.996 170.936 108.969 171.128 108.916C171.331 108.863 171.507 108.783 171.656 108.676C171.806 108.559 171.928 108.42 172.024 108.26C172.12 108.089 172.168 107.892 172.168 107.668V102.148H174.216V110.5H172.168V109.108ZM182.726 110.5C182.278 110.5 181.921 110.372 181.654 110.116C181.398 109.849 181.238 109.497 181.174 109.06H181.078C180.94 109.604 180.657 110.015 180.23 110.292C179.804 110.559 179.276 110.692 178.646 110.692C177.793 110.692 177.137 110.468 176.678 110.02C176.22 109.572 175.99 108.975 175.99 108.228C175.99 107.364 176.3 106.724 176.918 106.308C177.537 105.881 178.417 105.668 179.558 105.668H180.982V105.06C180.982 104.591 180.86 104.228 180.614 103.972C180.369 103.716 179.974 103.588 179.43 103.588C178.95 103.588 178.561 103.695 178.262 103.908C177.974 104.111 177.729 104.356 177.526 104.644L176.31 103.556C176.62 103.076 177.03 102.692 177.542 102.404C178.054 102.105 178.732 101.956 179.574 101.956C180.705 101.956 181.564 102.212 182.15 102.724C182.737 103.236 183.03 103.972 183.03 104.932V108.868H183.862V110.5H182.726ZM179.334 109.204C179.793 109.204 180.182 109.103 180.502 108.9C180.822 108.697 180.982 108.399 180.982 108.004V106.9H179.67C178.604 106.9 178.07 107.241 178.07 107.924V108.196C178.07 108.537 178.177 108.793 178.39 108.964C178.614 109.124 178.929 109.204 179.334 109.204ZM185.52 110.5V102.148H187.568V103.876H187.648C187.701 103.652 187.781 103.439 187.888 103.236C188.005 103.023 188.155 102.836 188.336 102.676C188.517 102.516 188.731 102.388 188.976 102.292C189.232 102.196 189.525 102.148 189.856 102.148H190.304V104.084H189.664C188.971 104.084 188.448 104.185 188.096 104.388C187.744 104.591 187.568 104.921 187.568 105.38V110.5H185.52ZM195.854 110.5V108.788H198.926V100.852H198.782L196.35 103.732L195.038 102.628L197.806 99.332H200.99V108.788H203.55V110.5H195.854ZM212.808 103.524C212.808 104.324 212.686 105.081 212.44 105.796C212.206 106.5 211.896 107.151 211.512 107.748C211.128 108.335 210.696 108.863 210.216 109.332C209.747 109.791 209.278 110.18 208.808 110.5H205.96C206.611 110.031 207.198 109.577 207.72 109.14C208.243 108.703 208.696 108.26 209.08 107.812C209.475 107.364 209.795 106.9 210.04 106.42C210.296 105.929 210.488 105.401 210.616 104.836L210.488 104.804C210.382 105.017 210.254 105.225 210.104 105.428C209.966 105.631 209.795 105.807 209.592 105.956C209.39 106.105 209.155 106.228 208.888 106.324C208.622 106.409 208.312 106.452 207.96 106.452C207.491 106.452 207.059 106.372 206.664 106.212C206.27 106.052 205.923 105.823 205.624 105.524C205.336 105.215 205.107 104.852 204.936 104.436C204.776 104.009 204.696 103.529 204.696 102.996C204.696 102.431 204.792 101.913 204.984 101.444C205.176 100.975 205.448 100.569 205.8 100.228C206.152 99.8867 206.574 99.62 207.064 99.428C207.566 99.236 208.126 99.14 208.744 99.14C209.384 99.14 209.955 99.2467 210.456 99.46C210.958 99.6627 211.384 99.956 211.736 100.34C212.088 100.713 212.355 101.172 212.536 101.716C212.718 102.249 212.808 102.852 212.808 103.524ZM208.744 104.82C209.342 104.82 209.806 104.66 210.136 104.34C210.467 104.009 210.632 103.54 210.632 102.932V102.692C210.632 102.084 210.467 101.62 210.136 101.3C209.806 100.969 209.342 100.804 208.744 100.804C208.158 100.804 207.694 100.969 207.352 101.3C207.022 101.62 206.856 102.084 206.856 102.692V102.932C206.856 103.54 207.022 104.009 207.352 104.34C207.694 104.66 208.158 104.82 208.744 104.82ZM216.29 110.5L220.178 101.044H216.322V103.092H214.53V99.332H222.274V101.14L218.498 110.5H216.29ZM224.636 110.5V108.788H227.708V100.852H227.564L225.132 103.732L223.82 102.628L226.588 99.332H229.772V108.788H232.332V110.5H224.636Z" fill="#1A1A1A"/>
<path d="M328.59 99.41L330 98L336 104L330 110L328.59 108.59L333.17 104L328.59 99.41ZM334.59 99.41L336 98L342 104L336 110L334.59 108.59L339.17 104L334.59 99.41Z" fill="black"/>
<path d="M299.59 108.58L304.17 104L299.59 99.41L301 98L307 104L301 110L299.59 108.58Z" fill="black"/>
<rect x="17" y="123" width="1" height="342" transform="rotate(-90 17 123)" fill="#BFBFBF"/>
<rect width="342" height="37" transform="translate(17 123)" fill="white"/>
<rect width="48" height="37" transform="translate(17 123)" fill="white"/>
<path d="M35.3756 148V139.744H36.6556V141.088H36.7196C36.8156 140.875 36.9223 140.677 37.0396 140.496C37.1676 140.304 37.317 140.139 37.4876 140C37.669 139.861 37.877 139.755 38.1116 139.68C38.3463 139.595 38.6236 139.552 38.9436 139.552C39.4876 139.552 39.989 139.685 40.4476 139.952C40.9063 140.208 41.2476 140.635 41.4716 141.232H41.5036C41.653 140.784 41.9303 140.395 42.3356 140.064C42.7516 139.723 43.3116 139.552 44.0156 139.552C44.8583 139.552 45.5143 139.829 45.9836 140.384C46.4636 140.928 46.7036 141.701 46.7036 142.704V148H45.4236V142.928C45.4236 142.192 45.2796 141.637 44.9916 141.264C44.7036 140.891 44.245 140.704 43.6156 140.704C43.3596 140.704 43.1143 140.736 42.8796 140.8C42.6556 140.864 42.453 140.96 42.2716 141.088C42.0903 141.216 41.9463 141.381 41.8396 141.584C41.733 141.776 41.6796 142.005 41.6796 142.272V148H40.3996V142.928C40.3996 142.192 40.2556 141.637 39.9676 141.264C39.6796 140.891 39.2316 140.704 38.6236 140.704C38.3676 140.704 38.1223 140.736 37.8876 140.8C37.653 140.864 37.445 140.96 37.2636 141.088C37.0823 141.216 36.933 141.381 36.8156 141.584C36.709 141.776 36.6556 142.005 36.6556 142.272V148H35.3756Z" fill="#1A1A1A"/>
<rect width="48" height="37" transform="translate(66 123)" fill="white"/>
<path d="M90.3793 148C89.9313 148 89.59 147.877 89.3553 147.632C89.1313 147.376 89.0193 147.045 89.0193 146.64V140.864H87.6593V139.744H88.4273C88.7046 139.744 88.8913 139.691 88.9873 139.584C89.094 139.467 89.1473 139.269 89.1473 138.992V137.456H90.2993V139.744H92.1073V140.864H90.2993V146.88H91.9793V148H90.3793Z" fill="#1A1A1A"/>
<rect width="48" height="37" transform="translate(115 123)" fill="white"/>
<path d="M139.003 148.192C138.449 148.192 137.942 148.091 137.483 147.888C137.025 147.685 136.63 147.397 136.299 147.024C135.979 146.64 135.729 146.187 135.547 145.664C135.366 145.131 135.275 144.533 135.275 143.872C135.275 143.221 135.366 142.629 135.547 142.096C135.729 141.563 135.979 141.109 136.299 140.736C136.63 140.352 137.025 140.059 137.483 139.856C137.942 139.653 138.449 139.552 139.003 139.552C139.558 139.552 140.059 139.653 140.507 139.856C140.966 140.059 141.361 140.352 141.691 140.736C142.022 141.109 142.278 141.563 142.459 142.096C142.641 142.629 142.731 143.221 142.731 143.872C142.731 144.533 142.641 145.131 142.459 145.664C142.278 146.187 142.022 146.64 141.691 147.024C141.361 147.397 140.966 147.685 140.507 147.888C140.059 148.091 139.558 148.192 139.003 148.192ZM139.003 147.056C139.697 147.056 140.262 146.843 140.699 146.416C141.137 145.989 141.355 145.339 141.355 144.464V143.28C141.355 142.405 141.137 141.755 140.699 141.328C140.262 140.901 139.697 140.688 139.003 140.688C138.31 140.688 137.745 140.901 137.307 141.328C136.87 141.755 136.651 142.405 136.651 143.28V144.464C136.651 145.339 136.87 145.989 137.307 146.416C137.745 146.843 138.31 147.056 139.003 147.056Z" fill="#1A1A1A"/>
<rect width="48" height="37" transform="translate(164 123)" fill="white"/>
<path d="M188.379 148C187.931 148 187.59 147.877 187.355 147.632C187.131 147.376 187.019 147.045 187.019 146.64V140.864H185.659V139.744H186.427C186.705 139.744 186.891 139.691 186.987 139.584C187.094 139.467 187.147 139.269 187.147 138.992V137.456H188.299V139.744H190.107V140.864H188.299V146.88H189.979V148H188.379Z" fill="#1A1A1A"/>
<rect width="48" height="37" transform="translate(213 123)" fill="white"/>
<path d="M236.214 140.864H234.87V139.744H236.214V138.08C236.214 137.504 236.364 137.04 236.662 136.688C236.961 136.336 237.414 136.16 238.022 136.16H239.27V137.28H237.494V139.744H239.27V140.864H237.494V148H236.214V140.864Z" fill="#1A1A1A"/>
<rect width="48" height="37" transform="translate(262 123)" fill="white"/>
<path d="M286.54 148C286.092 148 285.751 147.877 285.516 147.632C285.292 147.376 285.18 147.056 285.18 146.672V136.16H286.46V146.88H287.676V148H286.54Z" fill="#1A1A1A"/>
<rect width="48" height="37" transform="translate(311 123)" fill="white"/>
<path d="M334.942 148.192C334.174 148.192 333.528 148.048 333.006 147.76C332.494 147.461 332.051 147.067 331.678 146.576L332.59 145.84C332.91 146.245 333.267 146.56 333.662 146.784C334.056 146.997 334.515 147.104 335.038 147.104C335.582 147.104 336.003 146.987 336.302 146.752C336.611 146.517 336.766 146.187 336.766 145.76C336.766 145.44 336.659 145.168 336.446 144.944C336.243 144.709 335.87 144.549 335.326 144.464L334.67 144.368C334.286 144.315 333.934 144.235 333.614 144.128C333.294 144.011 333.011 143.861 332.766 143.68C332.531 143.488 332.344 143.253 332.206 142.976C332.078 142.699 332.014 142.368 332.014 141.984C332.014 141.579 332.088 141.227 332.238 140.928C332.387 140.619 332.59 140.363 332.846 140.16C333.112 139.957 333.427 139.808 333.79 139.712C334.152 139.605 334.542 139.552 334.958 139.552C335.63 139.552 336.19 139.669 336.638 139.904C337.096 140.139 337.496 140.464 337.838 140.88L336.99 141.648C336.808 141.392 336.542 141.163 336.19 140.96C335.838 140.747 335.395 140.64 334.862 140.64C334.328 140.64 333.923 140.757 333.646 140.992C333.379 141.216 333.246 141.525 333.246 141.92C333.246 142.325 333.379 142.619 333.646 142.8C333.923 142.981 334.318 143.115 334.83 143.2L335.47 143.296C336.387 143.435 337.038 143.701 337.422 144.096C337.806 144.48 337.998 144.987 337.998 145.616C337.998 146.416 337.726 147.045 337.182 147.504C336.638 147.963 335.891 148.192 334.942 148.192Z" fill="#1A1A1A"/>
<rect x="17" y="161" width="1" height="342" transform="rotate(-90 17 161)" fill="#BFBFBF"/>
<rect width="48" height="37" transform="translate(17 161)" fill="#F5F5F5"/>
<path d="M41.9343 186H34.6063V184.624L38.2543 181.264C38.7769 180.784 39.2143 180.277 39.5663 179.744C39.9183 179.2 40.0943 178.656 40.0943 178.112V177.92C40.0943 177.301 39.9236 176.8 39.5823 176.416C39.2409 176.032 38.7236 175.84 38.0303 175.84C37.6889 175.84 37.3903 175.888 37.1343 175.984C36.8783 176.08 36.6543 176.213 36.4623 176.384C36.2809 176.555 36.1263 176.757 35.9983 176.992C35.8809 177.216 35.7849 177.461 35.7103 177.728L34.5103 177.264C34.6169 176.933 34.7609 176.613 34.9423 176.304C35.1343 175.984 35.3689 175.701 35.6463 175.456C35.9343 175.211 36.2756 175.013 36.6703 174.864C37.0756 174.715 37.5503 174.64 38.0943 174.64C38.6383 174.64 39.1236 174.72 39.5503 174.88C39.9769 175.04 40.3343 175.264 40.6223 175.552C40.9103 175.84 41.1289 176.181 41.2783 176.576C41.4383 176.971 41.5183 177.408 41.5183 177.888C41.5183 178.325 41.4543 178.731 41.3263 179.104C41.2089 179.477 41.0436 179.835 40.8303 180.176C40.6169 180.507 40.3556 180.832 40.0463 181.152C39.7476 181.472 39.4223 181.792 39.0703 182.112L36.0623 184.816H41.9343V186ZM47.8 186.192C47.16 186.192 46.6 186.112 46.12 185.952C45.64 185.781 45.2347 185.552 44.904 185.264C44.584 184.976 44.3387 184.635 44.168 184.24C44.008 183.845 43.928 183.419 43.928 182.96C43.928 182.192 44.136 181.584 44.552 181.136C44.968 180.688 45.512 180.373 46.184 180.192V180.064C45.5973 179.861 45.128 179.536 44.776 179.088C44.4347 178.629 44.264 178.08 44.264 177.44C44.264 176.587 44.5733 175.909 45.192 175.408C45.8107 174.896 46.68 174.64 47.8 174.64C48.92 174.64 49.7893 174.896 50.408 175.408C51.0267 175.909 51.336 176.587 51.336 177.44C51.336 178.08 51.16 178.629 50.808 179.088C50.4667 179.536 50.0027 179.861 49.416 180.064V180.192C50.088 180.373 50.632 180.688 51.048 181.136C51.464 181.584 51.672 182.192 51.672 182.96C51.672 183.419 51.5867 183.845 51.416 184.24C51.256 184.635 51.0107 184.976 50.68 185.264C50.36 185.552 49.96 185.781 49.48 185.952C49 186.112 48.44 186.192 47.8 186.192ZM47.8 185.024C48.5787 185.024 49.1813 184.853 49.608 184.512C50.0347 184.16 50.248 183.664 50.248 183.024V182.688C50.248 182.048 50.0347 181.557 49.608 181.216C49.1813 180.864 48.5787 180.688 47.8 180.688C47.0213 180.688 46.4187 180.864 45.992 181.216C45.5653 181.557 45.352 182.048 45.352 182.688V183.024C45.352 183.664 45.5653 184.16 45.992 184.512C46.4187 184.853 47.0213 185.024 47.8 185.024ZM47.8 179.568C48.504 179.568 49.0373 179.419 49.4 179.12C49.7627 178.821 49.944 178.384 49.944 177.808V177.568C49.944 176.992 49.7627 176.555 49.4 176.256C49.0373 175.957 48.504 175.808 47.8 175.808C47.096 175.808 46.5627 175.957 46.2 176.256C45.8373 176.555 45.656 176.992 45.656 177.568V177.808C45.656 178.384 45.8373 178.821 46.2 179.12C46.5627 179.419 47.096 179.568 47.8 179.568Z" fill="#1A1A1A"/>
<rect x="65" y="161" width="1" height="37" fill="#BFBFBF"/>
<rect width="48" height="37" transform="translate(66 161)" fill="#F5F5F5"/>
<path d="M90.9343 186H83.6063V184.624L87.2543 181.264C87.7769 180.784 88.2143 180.277 88.5663 179.744C88.9183 179.2 89.0943 178.656 89.0943 178.112V177.92C89.0943 177.301 88.9236 176.8 88.5823 176.416C88.2409 176.032 87.7236 175.84 87.0303 175.84C86.6889 175.84 86.3903 175.888 86.1343 175.984C85.8783 176.08 85.6543 176.213 85.4623 176.384C85.2809 176.555 85.1263 176.757 84.9983 176.992C84.8809 177.216 84.7849 177.461 84.7103 177.728L83.5103 177.264C83.6169 176.933 83.7609 176.613 83.9423 176.304C84.1343 175.984 84.3689 175.701 84.6463 175.456C84.9343 175.211 85.2756 175.013 85.6703 174.864C86.0756 174.715 86.5503 174.64 87.0943 174.64C87.6383 174.64 88.1236 174.72 88.5503 174.88C88.9769 175.04 89.3343 175.264 89.6223 175.552C89.9103 175.84 90.1289 176.181 90.2783 176.576C90.4383 176.971 90.5183 177.408 90.5183 177.888C90.5183 178.325 90.4543 178.731 90.3263 179.104C90.2089 179.477 90.0436 179.835 89.8303 180.176C89.6169 180.507 89.3556 180.832 89.0463 181.152C88.7476 181.472 88.4223 181.792 88.0703 182.112L85.0623 184.816H90.9343V186ZM100.528 178.928C100.528 179.76 100.405 180.544 100.16 181.28C99.9147 182.005 99.5947 182.672 99.2 183.28C98.816 183.877 98.3893 184.411 97.92 184.88C97.4507 185.339 96.992 185.712 96.544 186H94.816C95.4133 185.563 95.9467 185.136 96.416 184.72C96.8853 184.304 97.296 183.872 97.648 183.424C98 182.965 98.2987 182.48 98.544 181.968C98.7893 181.445 98.9867 180.859 99.136 180.208L99.056 180.176C98.7893 180.635 98.4427 181.019 98.016 181.328C97.6 181.627 97.0507 181.776 96.368 181.776C95.888 181.776 95.4453 181.696 95.04 181.536C94.6347 181.376 94.288 181.147 94 180.848C93.712 180.549 93.4827 180.192 93.312 179.776C93.152 179.349 93.072 178.869 93.072 178.336C93.072 177.792 93.1573 177.296 93.328 176.848C93.5093 176.389 93.76 176 94.08 175.68C94.4107 175.349 94.8 175.093 95.248 174.912C95.7067 174.731 96.2187 174.64 96.784 174.64C97.36 174.64 97.8773 174.741 98.336 174.944C98.8053 175.136 99.2 175.419 99.52 175.792C99.8507 176.155 100.101 176.603 100.272 177.136C100.443 177.669 100.528 178.267 100.528 178.928ZM96.8 180.64C97.536 180.64 98.1067 180.437 98.512 180.032C98.928 179.627 99.136 179.045 99.136 178.288V178.16C99.136 177.403 98.928 176.821 98.512 176.416C98.1067 176.011 97.536 175.808 96.8 175.808C96.064 175.808 95.488 176.011 95.072 176.416C94.6667 176.821 94.464 177.403 94.464 178.16V178.288C94.464 179.045 94.6667 179.627 95.072 180.032C95.488 180.437 96.064 180.64 96.8 180.64Z" fill="#1A1A1A"/>
<rect x="114" y="161" width="1" height="37" fill="#BFBFBF"/>
<rect width="48" height="37" transform="translate(115 161)" fill="#F5F5F5"/>
<path d="M135.582 179.568C136.34 179.568 136.905 179.397 137.278 179.056C137.662 178.704 137.854 178.256 137.854 177.712V177.6C137.854 177.013 137.668 176.576 137.294 176.288C136.932 175.989 136.452 175.84 135.854 175.84C135.278 175.84 134.809 175.968 134.446 176.224C134.084 176.469 133.785 176.805 133.55 177.232L132.558 176.464C132.697 176.24 132.862 176.021 133.054 175.808C133.257 175.584 133.492 175.387 133.758 175.216C134.025 175.045 134.334 174.907 134.686 174.8C135.038 174.693 135.438 174.64 135.886 174.64C136.356 174.64 136.798 174.704 137.214 174.832C137.63 174.949 137.988 175.131 138.286 175.376C138.596 175.611 138.836 175.904 139.006 176.256C139.188 176.608 139.278 177.008 139.278 177.456C139.278 177.819 139.22 178.144 139.102 178.432C138.996 178.72 138.846 178.971 138.654 179.184C138.462 179.397 138.233 179.579 137.966 179.728C137.71 179.877 137.433 179.989 137.134 180.064V180.128C137.433 180.192 137.721 180.299 137.998 180.448C138.286 180.587 138.537 180.773 138.75 181.008C138.974 181.232 139.15 181.509 139.278 181.84C139.417 182.16 139.486 182.528 139.486 182.944C139.486 183.424 139.396 183.867 139.214 184.272C139.033 184.667 138.777 185.008 138.446 185.296C138.116 185.573 137.716 185.792 137.246 185.952C136.777 186.112 136.26 186.192 135.694 186.192C135.214 186.192 134.788 186.139 134.414 186.032C134.041 185.925 133.71 185.781 133.422 185.6C133.134 185.419 132.878 185.216 132.654 184.992C132.441 184.768 132.249 184.533 132.078 184.288L133.086 183.52C133.225 183.744 133.374 183.947 133.534 184.128C133.705 184.309 133.892 184.464 134.094 184.592C134.297 184.72 134.526 184.821 134.782 184.896C135.038 184.96 135.337 184.992 135.678 184.992C136.468 184.992 137.065 184.816 137.47 184.464C137.876 184.101 138.078 183.589 138.078 182.928V182.8C138.078 182.139 137.876 181.632 137.47 181.28C137.065 180.917 136.468 180.736 135.678 180.736H134.366V179.568H135.582ZM145.8 186.192C144.467 186.192 143.491 185.685 142.872 184.672C142.264 183.659 141.96 182.24 141.96 180.416C141.96 178.592 142.264 177.173 142.872 176.16C143.491 175.147 144.467 174.64 145.8 174.64C147.133 174.64 148.104 175.147 148.712 176.16C149.331 177.173 149.64 178.592 149.64 180.416C149.64 182.24 149.331 183.659 148.712 184.672C148.104 185.685 147.133 186.192 145.8 186.192ZM145.8 185.024C146.237 185.024 146.611 184.933 146.92 184.752C147.229 184.571 147.48 184.315 147.672 183.984C147.864 183.653 148.003 183.264 148.088 182.816C148.184 182.368 148.232 181.872 148.232 181.328V179.504C148.232 178.96 148.184 178.464 148.088 178.016C148.003 177.568 147.864 177.179 147.672 176.848C147.48 176.517 147.229 176.261 146.92 176.08C146.611 175.899 146.237 175.808 145.8 175.808C145.363 175.808 144.989 175.899 144.68 176.08C144.371 176.261 144.12 176.517 143.928 176.848C143.736 177.179 143.592 177.568 143.496 178.016C143.411 178.464 143.368 178.96 143.368 179.504V181.328C143.368 181.872 143.411 182.368 143.496 182.816C143.592 183.264 143.736 183.653 143.928 183.984C144.12 184.315 144.371 184.571 144.68 184.752C144.989 184.933 145.363 185.024 145.8 185.024Z" fill="#1A1A1A"/>
<rect x="163" y="161" width="1" height="37" fill="#BFBFBF"/>
<rect width="48" height="37" transform="translate(164 161)" fill="#F5F5F5"/>
<path d="M184.582 179.568C185.34 179.568 185.905 179.397 186.278 179.056C186.662 178.704 186.854 178.256 186.854 177.712V177.6C186.854 177.013 186.668 176.576 186.294 176.288C185.932 175.989 185.452 175.84 184.854 175.84C184.278 175.84 183.809 175.968 183.446 176.224C183.084 176.469 182.785 176.805 182.55 177.232L181.558 176.464C181.697 176.24 181.862 176.021 182.054 175.808C182.257 175.584 182.492 175.387 182.758 175.216C183.025 175.045 183.334 174.907 183.686 174.8C184.038 174.693 184.438 174.64 184.886 174.64C185.356 174.64 185.798 174.704 186.214 174.832C186.63 174.949 186.988 175.131 187.286 175.376C187.596 175.611 187.836 175.904 188.006 176.256C188.188 176.608 188.278 177.008 188.278 177.456C188.278 177.819 188.22 178.144 188.102 178.432C187.996 178.72 187.846 178.971 187.654 179.184C187.462 179.397 187.233 179.579 186.966 179.728C186.71 179.877 186.433 179.989 186.134 180.064V180.128C186.433 180.192 186.721 180.299 186.998 180.448C187.286 180.587 187.537 180.773 187.75 181.008C187.974 181.232 188.15 181.509 188.278 181.84C188.417 182.16 188.486 182.528 188.486 182.944C188.486 183.424 188.396 183.867 188.214 184.272C188.033 184.667 187.777 185.008 187.446 185.296C187.116 185.573 186.716 185.792 186.246 185.952C185.777 186.112 185.26 186.192 184.694 186.192C184.214 186.192 183.788 186.139 183.414 186.032C183.041 185.925 182.71 185.781 182.422 185.6C182.134 185.419 181.878 185.216 181.654 184.992C181.441 184.768 181.249 184.533 181.078 184.288L182.086 183.52C182.225 183.744 182.374 183.947 182.534 184.128C182.705 184.309 182.892 184.464 183.094 184.592C183.297 184.72 183.526 184.821 183.782 184.896C184.038 184.96 184.337 184.992 184.678 184.992C185.468 184.992 186.065 184.816 186.47 184.464C186.876 184.101 187.078 183.589 187.078 182.928V182.8C187.078 182.139 186.876 181.632 186.47 181.28C186.065 180.917 185.468 180.736 184.678 180.736H183.366V179.568H184.582ZM191.408 186V184.816H194.528V175.824H194.416L191.6 178.448L190.816 177.6L193.776 174.832H195.872V184.816H198.752V186H191.408Z" fill="#1A1A1A"/>
<rect x="212" y="161" width="1" height="37" fill="#C4C4C4"/>
<rect width="48" height="37" transform="translate(213 161)" fill="white"/>
<path d="M240.611 186V184.816H243.731V175.824H243.619L240.803 178.448L240.019 177.6L242.979 174.832H245.075V184.816H247.955V186H240.611Z" fill="#1A1A1A"/>
<rect x="261" y="161" width="1" height="37" fill="#C4C4C4"/>
<rect width="48" height="37" transform="translate(262 161)" fill="white"/>
<path d="M296.731 186H289.403V184.624L293.051 181.264C293.574 180.784 294.011 180.277 294.363 179.744C294.715 179.2 294.891 178.656 294.891 178.112V177.92C294.891 177.301 294.72 176.8 294.379 176.416C294.038 176.032 293.52 175.84 292.827 175.84C292.486 175.84 292.187 175.888 291.931 175.984C291.675 176.08 291.451 176.213 291.259 176.384C291.078 176.555 290.923 176.757 290.795 176.992C290.678 177.216 290.582 177.461 290.507 177.728L289.307 177.264C289.414 176.933 289.558 176.613 289.739 176.304C289.931 175.984 290.166 175.701 290.443 175.456C290.731 175.211 291.072 175.013 291.467 174.864C291.872 174.715 292.347 174.64 292.891 174.64C293.435 174.64 293.92 174.72 294.347 174.88C294.774 175.04 295.131 175.264 295.419 175.552C295.707 175.84 295.926 176.181 296.075 176.576C296.235 176.971 296.315 177.408 296.315 177.888C296.315 178.325 296.251 178.731 296.123 179.104C296.006 179.477 295.84 179.835 295.627 180.176C295.414 180.507 295.152 180.832 294.843 181.152C294.544 181.472 294.219 181.792 293.867 182.112L290.859 184.816H296.731V186Z" fill="#1A1A1A"/>
<rect x="310" y="161" width="1" height="37" fill="#C4C4C4"/>
<rect width="48" height="37" transform="translate(311 161)" fill="white"/>
<path d="M341.379 179.568C342.136 179.568 342.702 179.397 343.075 179.056C343.459 178.704 343.651 178.256 343.651 177.712V177.6C343.651 177.013 343.464 176.576 343.091 176.288C342.728 175.989 342.248 175.84 341.651 175.84C341.075 175.84 340.606 175.968 340.243 176.224C339.88 176.469 339.582 176.805 339.347 177.232L338.355 176.464C338.494 176.24 338.659 176.021 338.851 175.808C339.054 175.584 339.288 175.387 339.555 175.216C339.822 175.045 340.131 174.907 340.483 174.8C340.835 174.693 341.235 174.64 341.683 174.64C342.152 174.64 342.595 174.704 343.011 174.832C343.427 174.949 343.784 175.131 344.083 175.376C344.392 175.611 344.632 175.904 344.803 176.256C344.984 176.608 345.075 177.008 345.075 177.456C345.075 177.819 345.016 178.144 344.899 178.432C344.792 178.72 344.643 178.971 344.451 179.184C344.259 179.397 344.03 179.579 343.763 179.728C343.507 179.877 343.23 179.989 342.931 180.064V180.128C343.23 180.192 343.518 180.299 343.795 180.448C344.083 180.587 344.334 180.773 344.547 181.008C344.771 181.232 344.947 181.509 345.075 181.84C345.214 182.16 345.283 182.528 345.283 182.944C345.283 183.424 345.192 183.867 345.011 184.272C344.83 184.667 344.574 185.008 344.243 185.296C343.912 185.573 343.512 185.792 343.043 185.952C342.574 186.112 342.056 186.192 341.491 186.192C341.011 186.192 340.584 186.139 340.211 186.032C339.838 185.925 339.507 185.781 339.219 185.6C338.931 185.419 338.675 185.216 338.451 184.992C338.238 184.768 338.046 184.533 337.875 184.288L338.883 183.52C339.022 183.744 339.171 183.947 339.331 184.128C339.502 184.309 339.688 184.464 339.891 184.592C340.094 184.72 340.323 184.821 340.579 184.896C340.835 184.96 341.134 184.992 341.475 184.992C342.264 184.992 342.862 184.816 343.267 184.464C343.672 184.101 343.875 183.589 343.875 182.928V182.8C343.875 182.139 343.672 181.632 343.267 181.28C342.862 180.917 342.264 180.736 341.475 180.736H340.163V179.568H341.379Z" fill="#1A1A1A"/>
<rect x="17" y="199" width="1" height="342" transform="rotate(-90 17 199)" fill="#BFBFBF"/>
<rect width="48" height="37" transform="translate(17 199)" fill="white"/>
<path d="M49.2031 224V221.808H43.8111V220.624L48.4831 212.832H50.4831V220.688H52.0991V221.808H50.4831V224H49.2031ZM45.0751 220.688H49.2031V213.872H49.1231L45.0751 220.688Z" fill="#1A1A1A"/>
<rect x="65" y="199" width="1" height="37" fill="#C4C4C4"/>
<rect width="48" height="37" transform="translate(66 199)" fill="white"/>
<path d="M100.171 214.016H95.2751L94.9551 218.272H95.0671C95.3338 217.899 95.6325 217.6 95.9631 217.376C96.3045 217.152 96.7685 217.04 97.3551 217.04C97.8351 217.04 98.2778 217.12 98.6831 217.28C99.0885 217.44 99.4405 217.669 99.7391 217.968C100.038 218.256 100.267 218.613 100.427 219.04C100.598 219.467 100.683 219.952 100.683 220.496C100.683 221.04 100.598 221.541 100.427 222C100.256 222.448 100.006 222.837 99.6751 223.168C99.3551 223.488 98.9605 223.739 98.4911 223.92C98.0325 224.101 97.5098 224.192 96.9231 224.192C96.4538 224.192 96.0378 224.139 95.6751 224.032C95.3231 223.925 95.0085 223.781 94.7311 223.6C94.4538 223.419 94.2085 223.216 93.9951 222.992C93.7925 222.768 93.6058 222.533 93.4351 222.288L94.4431 221.52C94.5818 221.744 94.7258 221.947 94.8751 222.128C95.0351 222.309 95.2058 222.464 95.3871 222.592C95.5791 222.72 95.7978 222.821 96.0431 222.896C96.2885 222.96 96.5818 222.992 96.9231 222.992C97.6911 222.992 98.2725 222.789 98.6671 222.384C99.0618 221.979 99.2591 221.408 99.2591 220.672V220.512C99.2591 219.776 99.0618 219.205 98.6671 218.8C98.2725 218.395 97.6911 218.192 96.9231 218.192C96.4111 218.192 96.0058 218.288 95.7071 218.48C95.4191 218.661 95.1578 218.88 94.9231 219.136L93.7871 218.976L94.1871 212.832H100.171V214.016Z" fill="#1A1A1A"/>
<rect x="114" y="199" width="1" height="37" fill="#C4C4C4"/>
<rect width="48" height="37" transform="translate(115 199)" fill="white"/>
<path d="M146.019 224.192C145.443 224.192 144.92 224.096 144.451 223.904C143.992 223.701 143.598 223.419 143.267 223.056C142.947 222.683 142.702 222.229 142.531 221.696C142.36 221.163 142.275 220.565 142.275 219.904C142.275 219.072 142.398 218.293 142.643 217.568C142.888 216.832 143.203 216.165 143.587 215.568C143.982 214.96 144.414 214.427 144.883 213.968C145.352 213.499 145.811 213.12 146.259 212.832H147.987C147.39 213.269 146.856 213.696 146.387 214.112C145.918 214.528 145.507 214.965 145.155 215.424C144.803 215.872 144.504 216.357 144.259 216.88C144.014 217.392 143.816 217.973 143.667 218.624L143.747 218.656C144.014 218.197 144.355 217.819 144.771 217.52C145.198 217.211 145.752 217.056 146.435 217.056C146.915 217.056 147.358 217.136 147.763 217.296C148.168 217.456 148.515 217.685 148.803 217.984C149.091 218.283 149.315 218.645 149.475 219.072C149.646 219.499 149.731 219.973 149.731 220.496C149.731 221.04 149.64 221.541 149.459 222C149.288 222.448 149.038 222.837 148.707 223.168C148.387 223.488 147.998 223.739 147.539 223.92C147.08 224.101 146.574 224.192 146.019 224.192ZM146.003 223.024C146.739 223.024 147.31 222.821 147.715 222.416C148.131 222.011 148.339 221.429 148.339 220.672V220.544C148.339 219.787 148.131 219.205 147.715 218.8C147.31 218.395 146.739 218.192 146.003 218.192C145.267 218.192 144.691 218.395 144.275 218.8C143.87 219.205 143.667 219.787 143.667 220.544V220.672C143.667 221.429 143.87 222.011 144.275 222.416C144.691 222.821 145.267 223.024 146.003 223.024Z" fill="#1A1A1A"/>
<rect x="163" y="199" width="1" height="37" fill="#C4C4C4"/>
<rect width="48" height="37" transform="translate(164 199)" fill="#454545"/>
<path d="M192.907 224L196.795 214.544H192.939V216.592H191.147V212.832H198.891V214.64L195.115 224H192.907Z" fill="white"/>
<rect x="212" y="199" width="1" height="37" fill="#C4C4C4"/>
<rect width="48" height="37" transform="translate(213 199)" fill="white"/>
<path d="M244.003 224.192C243.363 224.192 242.803 224.112 242.323 223.952C241.843 223.781 241.438 223.552 241.107 223.264C240.787 222.976 240.542 222.635 240.371 222.24C240.211 221.845 240.131 221.419 240.131 220.96C240.131 220.192 240.339 219.584 240.755 219.136C241.171 218.688 241.715 218.373 242.387 218.192V218.064C241.8 217.861 241.331 217.536 240.979 217.088C240.638 216.629 240.467 216.08 240.467 215.44C240.467 214.587 240.776 213.909 241.395 213.408C242.014 212.896 242.883 212.64 244.003 212.64C245.123 212.64 245.992 212.896 246.611 213.408C247.23 213.909 247.539 214.587 247.539 215.44C247.539 216.08 247.363 216.629 247.011 217.088C246.67 217.536 246.206 217.861 245.619 218.064V218.192C246.291 218.373 246.835 218.688 247.251 219.136C247.667 219.584 247.875 220.192 247.875 220.96C247.875 221.419 247.79 221.845 247.619 222.24C247.459 222.635 247.214 222.976 246.883 223.264C246.563 223.552 246.163 223.781 245.683 223.952C245.203 224.112 244.643 224.192 244.003 224.192ZM244.003 223.024C244.782 223.024 245.384 222.853 245.811 222.512C246.238 222.16 246.451 221.664 246.451 221.024V220.688C246.451 220.048 246.238 219.557 245.811 219.216C245.384 218.864 244.782 218.688 244.003 218.688C243.224 218.688 242.622 218.864 242.195 219.216C241.768 219.557 241.555 220.048 241.555 220.688V221.024C241.555 221.664 241.768 222.16 242.195 222.512C242.622 222.853 243.224 223.024 244.003 223.024ZM244.003 217.568C244.707 217.568 245.24 217.419 245.603 217.12C245.966 216.821 246.147 216.384 246.147 215.808V215.568C246.147 214.992 245.966 214.555 245.603 214.256C245.24 213.957 244.707 213.808 244.003 213.808C243.299 213.808 242.766 213.957 242.403 214.256C242.04 214.555 241.859 214.992 241.859 215.568V215.808C241.859 216.384 242.04 216.821 242.403 217.12C242.766 217.419 243.299 217.568 244.003 217.568Z" fill="#1A1A1A"/>
<rect x="261" y="199" width="1" height="37" fill="#C4C4C4"/>
<rect width="48" height="37" transform="translate(262 199)" fill="white"/>
<path d="M296.731 216.928C296.731 217.76 296.608 218.544 296.363 219.28C296.118 220.005 295.798 220.672 295.403 221.28C295.019 221.877 294.592 222.411 294.123 222.88C293.654 223.339 293.195 223.712 292.747 224H291.019C291.616 223.563 292.15 223.136 292.619 222.72C293.088 222.304 293.499 221.872 293.851 221.424C294.203 220.965 294.502 220.48 294.747 219.968C294.992 219.445 295.19 218.859 295.339 218.208L295.259 218.176C294.992 218.635 294.646 219.019 294.219 219.328C293.803 219.627 293.254 219.776 292.571 219.776C292.091 219.776 291.648 219.696 291.243 219.536C290.838 219.376 290.491 219.147 290.203 218.848C289.915 218.549 289.686 218.192 289.515 217.776C289.355 217.349 289.275 216.869 289.275 216.336C289.275 215.792 289.36 215.296 289.531 214.848C289.712 214.389 289.963 214 290.283 213.68C290.614 213.349 291.003 213.093 291.451 212.912C291.91 212.731 292.422 212.64 292.987 212.64C293.563 212.64 294.08 212.741 294.539 212.944C295.008 213.136 295.403 213.419 295.723 213.792C296.054 214.155 296.304 214.603 296.475 215.136C296.646 215.669 296.731 216.267 296.731 216.928ZM293.003 218.64C293.739 218.64 294.31 218.437 294.715 218.032C295.131 217.627 295.339 217.045 295.339 216.288V216.16C295.339 215.403 295.131 214.821 294.715 214.416C294.31 214.011 293.739 213.808 293.003 213.808C292.267 213.808 291.691 214.011 291.275 214.416C290.87 214.821 290.667 215.403 290.667 216.16V216.288C290.667 217.045 290.87 217.627 291.275 218.032C291.691 218.437 292.267 218.64 293.003 218.64Z" fill="#1A1A1A"/>
<rect x="310" y="199" width="1" height="37" fill="#C4C4C4"/>
<rect width="48" height="37" transform="translate(311 199)" fill="white"/>
<path d="M328.814 224V222.816H331.934V213.824H331.822L329.006 216.448L328.222 215.6L331.182 212.832H333.278V222.816H336.158V224H328.814ZM341.8 224.192C340.467 224.192 339.491 223.685 338.872 222.672C338.264 221.659 337.96 220.24 337.96 218.416C337.96 216.592 338.264 215.173 338.872 214.16C339.491 213.147 340.467 212.64 341.8 212.64C343.133 212.64 344.104 213.147 344.712 214.16C345.331 215.173 345.64 216.592 345.64 218.416C345.64 220.24 345.331 221.659 344.712 222.672C344.104 223.685 343.133 224.192 341.8 224.192ZM341.8 223.024C342.237 223.024 342.611 222.933 342.92 222.752C343.229 222.571 343.48 222.315 343.672 221.984C343.864 221.653 344.003 221.264 344.088 220.816C344.184 220.368 344.232 219.872 344.232 219.328V217.504C344.232 216.96 344.184 216.464 344.088 216.016C344.003 215.568 343.864 215.179 343.672 214.848C343.48 214.517 343.229 214.261 342.92 214.08C342.611 213.899 342.237 213.808 341.8 213.808C341.363 213.808 340.989 213.899 340.68 214.08C340.371 214.261 340.12 214.517 339.928 214.848C339.736 215.179 339.592 215.568 339.496 216.016C339.411 216.464 339.368 216.96 339.368 217.504V219.328C339.368 219.872 339.411 220.368 339.496 220.816C339.592 221.264 339.736 221.653 339.928 221.984C340.12 222.315 340.371 222.571 340.68 222.752C340.989 222.933 341.363 223.024 341.8 223.024Z" fill="#1A1A1A"/>
<rect x="17" y="237" width="1" height="342" transform="rotate(-90 17 237)" fill="#BFBFBF"/>
<rect width="48" height="37" transform="translate(17 237)" fill="white"/>
<path d="M34.8143 262V260.816H37.9343V251.824H37.8223L35.0063 254.448L34.2223 253.6L37.1823 250.832H39.2783V260.816H42.1583V262H34.8143ZM44.408 262V260.816H47.528V251.824H47.416L44.6 254.448L43.816 253.6L46.776 250.832H48.872V260.816H51.752V262H44.408Z" fill="#1A1A1A"/>
<rect x="65" y="237" width="1" height="37" fill="#C4C4C4"/>
<rect width="48" height="37" transform="translate(66 237)" fill="white"/>
<path d="M83.8143 262V260.816H86.9343V251.824H86.8223L84.0063 254.448L83.2223 253.6L86.1823 250.832H88.2783V260.816H91.1583V262H83.8143ZM100.528 262H93.2V260.624L96.848 257.264C97.3707 256.784 97.808 256.277 98.16 255.744C98.512 255.2 98.688 254.656 98.688 254.112V253.92C98.688 253.301 98.5173 252.8 98.176 252.416C97.8347 252.032 97.3173 251.84 96.624 251.84C96.2827 251.84 95.984 251.888 95.728 251.984C95.472 252.08 95.248 252.213 95.056 252.384C94.8747 252.555 94.72 252.757 94.592 252.992C94.4747 253.216 94.3787 253.461 94.304 253.728L93.104 253.264C93.2107 252.933 93.3547 252.613 93.536 252.304C93.728 251.984 93.9627 251.701 94.24 251.456C94.528 251.211 94.8693 251.013 95.264 250.864C95.6693 250.715 96.144 250.64 96.688 250.64C97.232 250.64 97.7173 250.72 98.144 250.88C98.5707 251.04 98.928 251.264 99.216 251.552C99.504 251.84 99.7227 252.181 99.872 252.576C100.032 252.971 100.112 253.408 100.112 253.888C100.112 254.325 100.048 254.731 99.92 255.104C99.8027 255.477 99.6373 255.835 99.424 256.176C99.2107 256.507 98.9493 256.832 98.64 257.152C98.3413 257.472 98.016 257.792 97.664 258.112L94.656 260.816H100.528V262Z" fill="#1A1A1A"/>
<rect x="114" y="237" width="1" height="37" fill="#C4C4C4"/>
<rect width="48" height="37" transform="translate(115 237)" fill="white"/>
<path d="M132.814 262V260.816H135.934V251.824H135.822L133.006 254.448L132.222 253.6L135.182 250.832H137.278V260.816H140.158V262H132.814ZM145.176 255.568C145.933 255.568 146.499 255.397 146.872 255.056C147.256 254.704 147.448 254.256 147.448 253.712V253.6C147.448 253.013 147.261 252.576 146.888 252.288C146.525 251.989 146.045 251.84 145.448 251.84C144.872 251.84 144.403 251.968 144.04 252.224C143.677 252.469 143.379 252.805 143.144 253.232L142.152 252.464C142.291 252.24 142.456 252.021 142.648 251.808C142.851 251.584 143.085 251.387 143.352 251.216C143.619 251.045 143.928 250.907 144.28 250.8C144.632 250.693 145.032 250.64 145.48 250.64C145.949 250.64 146.392 250.704 146.808 250.832C147.224 250.949 147.581 251.131 147.88 251.376C148.189 251.611 148.429 251.904 148.6 252.256C148.781 252.608 148.872 253.008 148.872 253.456C148.872 253.819 148.813 254.144 148.696 254.432C148.589 254.72 148.44 254.971 148.248 255.184C148.056 255.397 147.827 255.579 147.56 255.728C147.304 255.877 147.027 255.989 146.728 256.064V256.128C147.027 256.192 147.315 256.299 147.592 256.448C147.88 256.587 148.131 256.773 148.344 257.008C148.568 257.232 148.744 257.509 148.872 257.84C149.011 258.16 149.08 258.528 149.08 258.944C149.08 259.424 148.989 259.867 148.808 260.272C148.627 260.667 148.371 261.008 148.04 261.296C147.709 261.573 147.309 261.792 146.84 261.952C146.371 262.112 145.853 262.192 145.288 262.192C144.808 262.192 144.381 262.139 144.008 262.032C143.635 261.925 143.304 261.781 143.016 261.6C142.728 261.419 142.472 261.216 142.248 260.992C142.035 260.768 141.843 260.533 141.672 260.288L142.68 259.52C142.819 259.744 142.968 259.947 143.128 260.128C143.299 260.309 143.485 260.464 143.688 260.592C143.891 260.72 144.12 260.821 144.376 260.896C144.632 260.96 144.931 260.992 145.272 260.992C146.061 260.992 146.659 260.816 147.064 260.464C147.469 260.101 147.672 259.589 147.672 258.928V258.8C147.672 258.139 147.469 257.632 147.064 257.28C146.659 256.917 146.061 256.736 145.272 256.736H143.96V255.568H145.176Z" fill="#1A1A1A"/>
<rect x="163" y="237" width="1" height="37" fill="#C4C4C4"/>
<rect width="48" height="37" transform="translate(164 237)" fill="white"/>
<path d="M181.814 262V260.816H184.934V251.824H184.822L182.006 254.448L181.222 253.6L184.182 250.832H186.278V260.816H189.158V262H181.814ZM196 262V259.808H190.608V258.624L195.28 250.832H197.28V258.688H198.896V259.808H197.28V262H196ZM191.872 258.688H196V251.872H195.92L191.872 258.688Z" fill="#1A1A1A"/>
<rect x="212" y="237" width="1" height="37" fill="#C4C4C4"/>
<rect width="48" height="37" transform="translate(213 237)" fill="white"/>
<path d="M230.814 262V260.816H233.934V251.824H233.822L231.006 254.448L230.222 253.6L233.182 250.832H235.278V260.816H238.158V262H230.814ZM246.968 252.016H242.072L241.752 256.272H241.864C242.131 255.899 242.429 255.6 242.76 255.376C243.101 255.152 243.565 255.04 244.152 255.04C244.632 255.04 245.075 255.12 245.48 255.28C245.885 255.44 246.237 255.669 246.536 255.968C246.835 256.256 247.064 256.613 247.224 257.04C247.395 257.467 247.48 257.952 247.48 258.496C247.48 259.04 247.395 259.541 247.224 260C247.053 260.448 246.803 260.837 246.472 261.168C246.152 261.488 245.757 261.739 245.288 261.92C244.829 262.101 244.307 262.192 243.72 262.192C243.251 262.192 242.835 262.139 242.472 262.032C242.12 261.925 241.805 261.781 241.528 261.6C241.251 261.419 241.005 261.216 240.792 260.992C240.589 260.768 240.403 260.533 240.232 260.288L241.24 259.52C241.379 259.744 241.523 259.947 241.672 260.128C241.832 260.309 242.003 260.464 242.184 260.592C242.376 260.72 242.595 260.821 242.84 260.896C243.085 260.96 243.379 260.992 243.72 260.992C244.488 260.992 245.069 260.789 245.464 260.384C245.859 259.979 246.056 259.408 246.056 258.672V258.512C246.056 257.776 245.859 257.205 245.464 256.8C245.069 256.395 244.488 256.192 243.72 256.192C243.208 256.192 242.803 256.288 242.504 256.48C242.216 256.661 241.955 256.88 241.72 257.136L240.584 256.976L240.984 250.832H246.968V252.016Z" fill="#1A1A1A"/>
<rect x="261" y="237" width="1" height="37" fill="#C4C4C4"/>
<rect width="48" height="37" transform="translate(262 237)" fill="white"/>
<path d="M279.814 262V260.816H282.934V251.824H282.822L280.006 254.448L279.222 253.6L282.182 250.832H284.278V260.816H287.158V262H279.814ZM292.816 262.192C292.24 262.192 291.717 262.096 291.248 261.904C290.789 261.701 290.395 261.419 290.064 261.056C289.744 260.683 289.499 260.229 289.328 259.696C289.157 259.163 289.072 258.565 289.072 257.904C289.072 257.072 289.195 256.293 289.44 255.568C289.685 254.832 290 254.165 290.384 253.568C290.779 252.96 291.211 252.427 291.68 251.968C292.149 251.499 292.608 251.12 293.056 250.832H294.784C294.187 251.269 293.653 251.696 293.184 252.112C292.715 252.528 292.304 252.965 291.952 253.424C291.6 253.872 291.301 254.357 291.056 254.88C290.811 255.392 290.613 255.973 290.464 256.624L290.544 256.656C290.811 256.197 291.152 255.819 291.568 255.52C291.995 255.211 292.549 255.056 293.232 255.056C293.712 255.056 294.155 255.136 294.56 255.296C294.965 255.456 295.312 255.685 295.6 255.984C295.888 256.283 296.112 256.645 296.272 257.072C296.443 257.499 296.528 257.973 296.528 258.496C296.528 259.04 296.437 259.541 296.256 260C296.085 260.448 295.835 260.837 295.504 261.168C295.184 261.488 294.795 261.739 294.336 261.92C293.877 262.101 293.371 262.192 292.816 262.192ZM292.8 261.024C293.536 261.024 294.107 260.821 294.512 260.416C294.928 260.011 295.136 259.429 295.136 258.672V258.544C295.136 257.787 294.928 257.205 294.512 256.8C294.107 256.395 293.536 256.192 292.8 256.192C292.064 256.192 291.488 256.395 291.072 256.8C290.667 257.205 290.464 257.787 290.464 258.544V258.672C290.464 259.429 290.667 260.011 291.072 260.416C291.488 260.821 292.064 261.024 292.8 261.024Z" fill="#1A1A1A"/>
<rect x="310" y="237" width="1" height="37" fill="#C4C4C4"/>
<rect width="48" height="37" transform="translate(311 237)" fill="white"/>
<path d="M328.814 262V260.816H331.934V251.824H331.822L329.006 254.448L328.222 253.6L331.182 250.832H333.278V260.816H336.158V262H328.814ZM339.8 262L344.072 251.984H339.304V254.064H338.104V250.832H345.432V252.016L341.24 262H339.8Z" fill="#1A1A1A"/>
<rect x="17" y="275" width="1" height="342" transform="rotate(-90 17 275)" fill="#BFBFBF"/>
<rect width="48" height="37" transform="translate(17 275)" fill="white"/>
<path d="M34.8143 300V298.816H37.9343V289.824H37.8223L35.0063 292.448L34.2223 291.6L37.1823 288.832H39.2783V298.816H42.1583V300H34.8143ZM47.8 300.192C47.16 300.192 46.6 300.112 46.12 299.952C45.64 299.781 45.2347 299.552 44.904 299.264C44.584 298.976 44.3387 298.635 44.168 298.24C44.008 297.845 43.928 297.419 43.928 296.96C43.928 296.192 44.136 295.584 44.552 295.136C44.968 294.688 45.512 294.373 46.184 294.192V294.064C45.5973 293.861 45.128 293.536 44.776 293.088C44.4347 292.629 44.264 292.08 44.264 291.44C44.264 290.587 44.5733 289.909 45.192 289.408C45.8107 288.896 46.68 288.64 47.8 288.64C48.92 288.64 49.7893 288.896 50.408 289.408C51.0267 289.909 51.336 290.587 51.336 291.44C51.336 292.08 51.16 292.629 50.808 293.088C50.4667 293.536 50.0027 293.861 49.416 294.064V294.192C50.088 294.373 50.632 294.688 51.048 295.136C51.464 295.584 51.672 296.192 51.672 296.96C51.672 297.419 51.5867 297.845 51.416 298.24C51.256 298.635 51.0107 298.976 50.68 299.264C50.36 299.552 49.96 299.781 49.48 299.952C49 300.112 48.44 300.192 47.8 300.192ZM47.8 299.024C48.5787 299.024 49.1813 298.853 49.608 298.512C50.0347 298.16 50.248 297.664 50.248 297.024V296.688C50.248 296.048 50.0347 295.557 49.608 295.216C49.1813 294.864 48.5787 294.688 47.8 294.688C47.0213 294.688 46.4187 294.864 45.992 295.216C45.5653 295.557 45.352 296.048 45.352 296.688V297.024C45.352 297.664 45.5653 298.16 45.992 298.512C46.4187 298.853 47.0213 299.024 47.8 299.024ZM47.8 293.568C48.504 293.568 49.0373 293.419 49.4 293.12C49.7627 292.821 49.944 292.384 49.944 291.808V291.568C49.944 290.992 49.7627 290.555 49.4 290.256C49.0373 289.957 48.504 289.808 47.8 289.808C47.096 289.808 46.5627 289.957 46.2 290.256C45.8373 290.555 45.656 290.992 45.656 291.568V291.808C45.656 292.384 45.8373 292.821 46.2 293.12C46.5627 293.419 47.096 293.568 47.8 293.568Z" fill="#1A1A1A"/>
<rect x="65" y="275" width="1" height="37" fill="#C4C4C4"/>
<rect width="48" height="37" transform="translate(66 275)" fill="white"/>
<path d="M83.8143 300V298.816H86.9343V289.824H86.8223L84.0063 292.448L83.2223 291.6L86.1823 288.832H88.2783V298.816H91.1583V300H83.8143ZM100.528 292.928C100.528 293.76 100.405 294.544 100.16 295.28C99.9147 296.005 99.5947 296.672 99.2 297.28C98.816 297.877 98.3893 298.411 97.92 298.88C97.4507 299.339 96.992 299.712 96.544 300H94.816C95.4133 299.563 95.9467 299.136 96.416 298.72C96.8853 298.304 97.296 297.872 97.648 297.424C98 296.965 98.2987 296.48 98.544 295.968C98.7893 295.445 98.9867 294.859 99.136 294.208L99.056 294.176C98.7893 294.635 98.4427 295.019 98.016 295.328C97.6 295.627 97.0507 295.776 96.368 295.776C95.888 295.776 95.4453 295.696 95.04 295.536C94.6347 295.376 94.288 295.147 94 294.848C93.712 294.549 93.4827 294.192 93.312 293.776C93.152 293.349 93.072 292.869 93.072 292.336C93.072 291.792 93.1573 291.296 93.328 290.848C93.5093 290.389 93.76 290 94.08 289.68C94.4107 289.349 94.8 289.093 95.248 288.912C95.7067 288.731 96.2187 288.64 96.784 288.64C97.36 288.64 97.8773 288.741 98.336 288.944C98.8053 289.136 99.2 289.419 99.52 289.792C99.8507 290.155 100.101 290.603 100.272 291.136C100.443 291.669 100.528 292.267 100.528 292.928ZM96.8 294.64C97.536 294.64 98.1067 294.437 98.512 294.032C98.928 293.627 99.136 293.045 99.136 292.288V292.16C99.136 291.403 98.928 290.821 98.512 290.416C98.1067 290.011 97.536 289.808 96.8 289.808C96.064 289.808 95.488 290.011 95.072 290.416C94.6667 290.821 94.464 291.403 94.464 292.16V292.288C94.464 293.045 94.6667 293.627 95.072 294.032C95.488 294.437 96.064 294.64 96.8 294.64Z" fill="#1A1A1A"/>
<rect x="114" y="275" width="1" height="37" fill="#C4C4C4"/>
<rect width="48" height="37" transform="translate(115 275)" fill="white"/>
<path d="M139.934 300H132.606V298.624L136.254 295.264C136.777 294.784 137.214 294.277 137.566 293.744C137.918 293.2 138.094 292.656 138.094 292.112V291.92C138.094 291.301 137.924 290.8 137.582 290.416C137.241 290.032 136.724 289.84 136.03 289.84C135.689 289.84 135.39 289.888 135.134 289.984C134.878 290.08 134.654 290.213 134.462 290.384C134.281 290.555 134.126 290.757 133.998 290.992C133.881 291.216 133.785 291.461 133.71 291.728L132.51 291.264C132.617 290.933 132.761 290.613 132.942 290.304C133.134 289.984 133.369 289.701 133.646 289.456C133.934 289.211 134.276 289.013 134.67 288.864C135.076 288.715 135.55 288.64 136.094 288.64C136.638 288.64 137.124 288.72 137.55 288.88C137.977 289.04 138.334 289.264 138.622 289.552C138.91 289.84 139.129 290.181 139.278 290.576C139.438 290.971 139.518 291.408 139.518 291.888C139.518 292.325 139.454 292.731 139.326 293.104C139.209 293.477 139.044 293.835 138.83 294.176C138.617 294.507 138.356 294.832 138.046 295.152C137.748 295.472 137.422 295.792 137.07 296.112L134.062 298.816H139.934V300ZM145.8 300.192C144.467 300.192 143.491 299.685 142.872 298.672C142.264 297.659 141.96 296.24 141.96 294.416C141.96 292.592 142.264 291.173 142.872 290.16C143.491 289.147 144.467 288.64 145.8 288.64C147.133 288.64 148.104 289.147 148.712 290.16C149.331 291.173 149.64 292.592 149.64 294.416C149.64 296.24 149.331 297.659 148.712 298.672C148.104 299.685 147.133 300.192 145.8 300.192ZM145.8 299.024C146.237 299.024 146.611 298.933 146.92 298.752C147.229 298.571 147.48 298.315 147.672 297.984C147.864 297.653 148.003 297.264 148.088 296.816C148.184 296.368 148.232 295.872 148.232 295.328V293.504C148.232 292.96 148.184 292.464 148.088 292.016C148.003 291.568 147.864 291.179 147.672 290.848C147.48 290.517 147.229 290.261 146.92 290.08C146.611 289.899 146.237 289.808 145.8 289.808C145.363 289.808 144.989 289.899 144.68 290.08C144.371 290.261 144.12 290.517 143.928 290.848C143.736 291.179 143.592 291.568 143.496 292.016C143.411 292.464 143.368 292.96 143.368 293.504V295.328C143.368 295.872 143.411 296.368 143.496 296.816C143.592 297.264 143.736 297.653 143.928 297.984C144.12 298.315 144.371 298.571 144.68 298.752C144.989 298.933 145.363 299.024 145.8 299.024Z" fill="#1A1A1A"/>
<rect x="163" y="275" width="1" height="37" fill="#C4C4C4"/>
<rect width="48" height="37" transform="translate(164 275)" fill="white"/>
<path d="M188.934 300H181.606V298.624L185.254 295.264C185.777 294.784 186.214 294.277 186.566 293.744C186.918 293.2 187.094 292.656 187.094 292.112V291.92C187.094 291.301 186.924 290.8 186.582 290.416C186.241 290.032 185.724 289.84 185.03 289.84C184.689 289.84 184.39 289.888 184.134 289.984C183.878 290.08 183.654 290.213 183.462 290.384C183.281 290.555 183.126 290.757 182.998 290.992C182.881 291.216 182.785 291.461 182.71 291.728L181.51 291.264C181.617 290.933 181.761 290.613 181.942 290.304C182.134 289.984 182.369 289.701 182.646 289.456C182.934 289.211 183.276 289.013 183.67 288.864C184.076 288.715 184.55 288.64 185.094 288.64C185.638 288.64 186.124 288.72 186.55 288.88C186.977 289.04 187.334 289.264 187.622 289.552C187.91 289.84 188.129 290.181 188.278 290.576C188.438 290.971 188.518 291.408 188.518 291.888C188.518 292.325 188.454 292.731 188.326 293.104C188.209 293.477 188.044 293.835 187.83 294.176C187.617 294.507 187.356 294.832 187.046 295.152C186.748 295.472 186.422 295.792 186.07 296.112L183.062 298.816H188.934V300ZM191.408 300V298.816H194.528V289.824H194.416L191.6 292.448L190.816 291.6L193.776 288.832H195.872V298.816H198.752V300H191.408Z" fill="#1A1A1A"/>
<rect x="212" y="275" width="1" height="37" fill="#C4C4C4"/>
<rect width="48" height="37" transform="translate(213 275)" fill="white"/>
<path d="M237.934 300H230.606V298.624L234.254 295.264C234.777 294.784 235.214 294.277 235.566 293.744C235.918 293.2 236.094 292.656 236.094 292.112V291.92C236.094 291.301 235.924 290.8 235.582 290.416C235.241 290.032 234.724 289.84 234.03 289.84C233.689 289.84 233.39 289.888 233.134 289.984C232.878 290.08 232.654 290.213 232.462 290.384C232.281 290.555 232.126 290.757 231.998 290.992C231.881 291.216 231.785 291.461 231.71 291.728L230.51 291.264C230.617 290.933 230.761 290.613 230.942 290.304C231.134 289.984 231.369 289.701 231.646 289.456C231.934 289.211 232.276 289.013 232.67 288.864C233.076 288.715 233.55 288.64 234.094 288.64C234.638 288.64 235.124 288.72 235.55 288.88C235.977 289.04 236.334 289.264 236.622 289.552C236.91 289.84 237.129 290.181 237.278 290.576C237.438 290.971 237.518 291.408 237.518 291.888C237.518 292.325 237.454 292.731 237.326 293.104C237.209 293.477 237.044 293.835 236.83 294.176C236.617 294.507 236.356 294.832 236.046 295.152C235.748 295.472 235.422 295.792 235.07 296.112L232.062 298.816H237.934V300ZM247.528 300H240.2V298.624L243.848 295.264C244.371 294.784 244.808 294.277 245.16 293.744C245.512 293.2 245.688 292.656 245.688 292.112V291.92C245.688 291.301 245.517 290.8 245.176 290.416C244.835 290.032 244.317 289.84 243.624 289.84C243.283 289.84 242.984 289.888 242.728 289.984C242.472 290.08 242.248 290.213 242.056 290.384C241.875 290.555 241.72 290.757 241.592 290.992C241.475 291.216 241.379 291.461 241.304 291.728L240.104 291.264C240.211 290.933 240.355 290.613 240.536 290.304C240.728 289.984 240.963 289.701 241.24 289.456C241.528 289.211 241.869 289.013 242.264 288.864C242.669 288.715 243.144 288.64 243.688 288.64C244.232 288.64 244.717 288.72 245.144 288.88C245.571 289.04 245.928 289.264 246.216 289.552C246.504 289.84 246.723 290.181 246.872 290.576C247.032 290.971 247.112 291.408 247.112 291.888C247.112 292.325 247.048 292.731 246.92 293.104C246.803 293.477 246.637 293.835 246.424 294.176C246.211 294.507 245.949 294.832 245.64 295.152C245.341 295.472 245.016 295.792 244.664 296.112L241.656 298.816H247.528V300Z" fill="#1A1A1A"/>
<rect x="261" y="275" width="1" height="37" fill="#C4C4C4"/>
<rect width="48" height="37" transform="translate(262 275)" fill="white"/>
<path d="M286.934 300H279.606V298.624L283.254 295.264C283.777 294.784 284.214 294.277 284.566 293.744C284.918 293.2 285.094 292.656 285.094 292.112V291.92C285.094 291.301 284.924 290.8 284.582 290.416C284.241 290.032 283.724 289.84 283.03 289.84C282.689 289.84 282.39 289.888 282.134 289.984C281.878 290.08 281.654 290.213 281.462 290.384C281.281 290.555 281.126 290.757 280.998 290.992C280.881 291.216 280.785 291.461 280.71 291.728L279.51 291.264C279.617 290.933 279.761 290.613 279.942 290.304C280.134 289.984 280.369 289.701 280.646 289.456C280.934 289.211 281.276 289.013 281.67 288.864C282.076 288.715 282.55 288.64 283.094 288.64C283.638 288.64 284.124 288.72 284.55 288.88C284.977 289.04 285.334 289.264 285.622 289.552C285.91 289.84 286.129 290.181 286.278 290.576C286.438 290.971 286.518 291.408 286.518 291.888C286.518 292.325 286.454 292.731 286.326 293.104C286.209 293.477 286.044 293.835 285.83 294.176C285.617 294.507 285.356 294.832 285.046 295.152C284.748 295.472 284.422 295.792 284.07 296.112L281.062 298.816H286.934V300ZM292.176 293.568C292.933 293.568 293.499 293.397 293.872 293.056C294.256 292.704 294.448 292.256 294.448 291.712V291.6C294.448 291.013 294.261 290.576 293.888 290.288C293.525 289.989 293.045 289.84 292.448 289.84C291.872 289.84 291.403 289.968 291.04 290.224C290.677 290.469 290.379 290.805 290.144 291.232L289.152 290.464C289.291 290.24 289.456 290.021 289.648 289.808C289.851 289.584 290.085 289.387 290.352 289.216C290.619 289.045 290.928 288.907 291.28 288.8C291.632 288.693 292.032 288.64 292.48 288.64C292.949 288.64 293.392 288.704 293.808 288.832C294.224 288.949 294.581 289.131 294.88 289.376C295.189 289.611 295.429 289.904 295.6 290.256C295.781 290.608 295.872 291.008 295.872 291.456C295.872 291.819 295.813 292.144 295.696 292.432C295.589 292.72 295.44 292.971 295.248 293.184C295.056 293.397 294.827 293.579 294.56 293.728C294.304 293.877 294.027 293.989 293.728 294.064V294.128C294.027 294.192 294.315 294.299 294.592 294.448C294.88 294.587 295.131 294.773 295.344 295.008C295.568 295.232 295.744 295.509 295.872 295.84C296.011 296.16 296.08 296.528 296.08 296.944C296.08 297.424 295.989 297.867 295.808 298.272C295.627 298.667 295.371 299.008 295.04 299.296C294.709 299.573 294.309 299.792 293.84 299.952C293.371 300.112 292.853 300.192 292.288 300.192C291.808 300.192 291.381 300.139 291.008 300.032C290.635 299.925 290.304 299.781 290.016 299.6C289.728 299.419 289.472 299.216 289.248 298.992C289.035 298.768 288.843 298.533 288.672 298.288L289.68 297.52C289.819 297.744 289.968 297.947 290.128 298.128C290.299 298.309 290.485 298.464 290.688 298.592C290.891 298.72 291.12 298.821 291.376 298.896C291.632 298.96 291.931 298.992 292.272 298.992C293.061 298.992 293.659 298.816 294.064 298.464C294.469 298.101 294.672 297.589 294.672 296.928V296.8C294.672 296.139 294.469 295.632 294.064 295.28C293.659 294.917 293.061 294.736 292.272 294.736H290.96V293.568H292.176Z" fill="#1A1A1A"/>
<rect x="310" y="275" width="1" height="37" fill="#C4C4C4"/>
<rect width="48" height="37" transform="translate(311 275)" fill="white"/>
<path d="M335.934 300H328.606V298.624L332.254 295.264C332.777 294.784 333.214 294.277 333.566 293.744C333.918 293.2 334.094 292.656 334.094 292.112V291.92C334.094 291.301 333.924 290.8 333.582 290.416C333.241 290.032 332.724 289.84 332.03 289.84C331.689 289.84 331.39 289.888 331.134 289.984C330.878 290.08 330.654 290.213 330.462 290.384C330.281 290.555 330.126 290.757 329.998 290.992C329.881 291.216 329.785 291.461 329.71 291.728L328.51 291.264C328.617 290.933 328.761 290.613 328.942 290.304C329.134 289.984 329.369 289.701 329.646 289.456C329.934 289.211 330.276 289.013 330.67 288.864C331.076 288.715 331.55 288.64 332.094 288.64C332.638 288.64 333.124 288.72 333.55 288.88C333.977 289.04 334.334 289.264 334.622 289.552C334.91 289.84 335.129 290.181 335.278 290.576C335.438 290.971 335.518 291.408 335.518 291.888C335.518 292.325 335.454 292.731 335.326 293.104C335.209 293.477 335.044 293.835 334.83 294.176C334.617 294.507 334.356 294.832 334.046 295.152C333.748 295.472 333.422 295.792 333.07 296.112L330.062 298.816H335.934V300ZM343 300V297.808H337.608V296.624L342.28 288.832H344.28V296.688H345.896V297.808H344.28V300H343ZM338.872 296.688H343V289.872H342.92L338.872 296.688Z" fill="#1A1A1A"/>
<rect x="17" y="313" width="1" height="342" transform="rotate(-90 17 313)" fill="#BFBFBF"/>
<rect width="48" height="37" transform="translate(17 313)" fill="white"/>
<path d="M41.9343 338H34.6063V336.624L38.2543 333.264C38.7769 332.784 39.2143 332.277 39.5663 331.744C39.9183 331.2 40.0943 330.656 40.0943 330.112V329.92C40.0943 329.301 39.9236 328.8 39.5823 328.416C39.2409 328.032 38.7236 327.84 38.0303 327.84C37.6889 327.84 37.3903 327.888 37.1343 327.984C36.8783 328.08 36.6543 328.213 36.4623 328.384C36.2809 328.555 36.1263 328.757 35.9983 328.992C35.8809 329.216 35.7849 329.461 35.7103 329.728L34.5103 329.264C34.6169 328.933 34.7609 328.613 34.9423 328.304C35.1343 327.984 35.3689 327.701 35.6463 327.456C35.9343 327.211 36.2756 327.013 36.6703 326.864C37.0756 326.715 37.5503 326.64 38.0943 326.64C38.6383 326.64 39.1236 326.72 39.5503 326.88C39.9769 327.04 40.3343 327.264 40.6223 327.552C40.9103 327.84 41.1289 328.181 41.2783 328.576C41.4383 328.971 41.5183 329.408 41.5183 329.888C41.5183 330.325 41.4543 330.731 41.3263 331.104C41.2089 331.477 41.0436 331.835 40.8303 332.176C40.6169 332.507 40.3556 332.832 40.0463 333.152C39.7476 333.472 39.4223 333.792 39.0703 334.112L36.0623 336.816H41.9343V338ZM50.968 328.016H46.072L45.752 332.272H45.864C46.1307 331.899 46.4293 331.6 46.76 331.376C47.1013 331.152 47.5653 331.04 48.152 331.04C48.632 331.04 49.0747 331.12 49.48 331.28C49.8853 331.44 50.2373 331.669 50.536 331.968C50.8347 332.256 51.064 332.613 51.224 333.04C51.3947 333.467 51.48 333.952 51.48 334.496C51.48 335.04 51.3947 335.541 51.224 336C51.0533 336.448 50.8027 336.837 50.472 337.168C50.152 337.488 49.7573 337.739 49.288 337.92C48.8293 338.101 48.3067 338.192 47.72 338.192C47.2507 338.192 46.8347 338.139 46.472 338.032C46.12 337.925 45.8053 337.781 45.528 337.6C45.2507 337.419 45.0053 337.216 44.792 336.992C44.5893 336.768 44.4027 336.533 44.232 336.288L45.24 335.52C45.3787 335.744 45.5227 335.947 45.672 336.128C45.832 336.309 46.0027 336.464 46.184 336.592C46.376 336.72 46.5947 336.821 46.84 336.896C47.0853 336.96 47.3787 336.992 47.72 336.992C48.488 336.992 49.0693 336.789 49.464 336.384C49.8587 335.979 50.056 335.408 50.056 334.672V334.512C50.056 333.776 49.8587 333.205 49.464 332.8C49.0693 332.395 48.488 332.192 47.72 332.192C47.208 332.192 46.8027 332.288 46.504 332.48C46.216 332.661 45.9547 332.88 45.72 333.136L44.584 332.976L44.984 326.832H50.968V328.016Z" fill="#1A1A1A"/>
<rect x="65" y="313" width="1" height="37" fill="#C4C4C4"/>
<rect width="48" height="37" transform="translate(66 313)" fill="white"/>
<path d="M90.9343 338H83.6063V336.624L87.2543 333.264C87.7769 332.784 88.2143 332.277 88.5663 331.744C88.9183 331.2 89.0943 330.656 89.0943 330.112V329.92C89.0943 329.301 88.9236 328.8 88.5823 328.416C88.2409 328.032 87.7236 327.84 87.0303 327.84C86.6889 327.84 86.3903 327.888 86.1343 327.984C85.8783 328.08 85.6543 328.213 85.4623 328.384C85.2809 328.555 85.1263 328.757 84.9983 328.992C84.8809 329.216 84.7849 329.461 84.7103 329.728L83.5103 329.264C83.6169 328.933 83.7609 328.613 83.9423 328.304C84.1343 327.984 84.3689 327.701 84.6463 327.456C84.9343 327.211 85.2756 327.013 85.6703 326.864C86.0756 326.715 86.5503 326.64 87.0943 326.64C87.6383 326.64 88.1236 326.72 88.5503 326.88C88.9769 327.04 89.3343 327.264 89.6223 327.552C89.9103 327.84 90.1289 328.181 90.2783 328.576C90.4383 328.971 90.5183 329.408 90.5183 329.888C90.5183 330.325 90.4543 330.731 90.3263 331.104C90.2089 331.477 90.0436 331.835 89.8303 332.176C89.6169 332.507 89.3556 332.832 89.0463 333.152C88.7476 333.472 88.4223 333.792 88.0703 334.112L85.0623 336.816H90.9343V338ZM96.816 338.192C96.24 338.192 95.7173 338.096 95.248 337.904C94.7893 337.701 94.3947 337.419 94.064 337.056C93.744 336.683 93.4987 336.229 93.328 335.696C93.1573 335.163 93.072 334.565 93.072 333.904C93.072 333.072 93.1947 332.293 93.44 331.568C93.6853 330.832 94 330.165 94.384 329.568C94.7787 328.96 95.2107 328.427 95.68 327.968C96.1493 327.499 96.608 327.12 97.056 326.832H98.784C98.1867 327.269 97.6533 327.696 97.184 328.112C96.7147 328.528 96.304 328.965 95.952 329.424C95.6 329.872 95.3013 330.357 95.056 330.88C94.8107 331.392 94.6133 331.973 94.464 332.624L94.544 332.656C94.8107 332.197 95.152 331.819 95.568 331.52C95.9947 331.211 96.5493 331.056 97.232 331.056C97.712 331.056 98.1547 331.136 98.56 331.296C98.9653 331.456 99.312 331.685 99.6 331.984C99.888 332.283 100.112 332.645 100.272 333.072C100.443 333.499 100.528 333.973 100.528 334.496C100.528 335.04 100.437 335.541 100.256 336C100.085 336.448 99.8347 336.837 99.504 337.168C99.184 337.488 98.7947 337.739 98.336 337.92C97.8773 338.101 97.3707 338.192 96.816 338.192ZM96.8 337.024C97.536 337.024 98.1067 336.821 98.512 336.416C98.928 336.011 99.136 335.429 99.136 334.672V334.544C99.136 333.787 98.928 333.205 98.512 332.8C98.1067 332.395 97.536 332.192 96.8 332.192C96.064 332.192 95.488 332.395 95.072 332.8C94.6667 333.205 94.464 333.787 94.464 334.544V334.672C94.464 335.429 94.6667 336.011 95.072 336.416C95.488 336.821 96.064 337.024 96.8 337.024Z" fill="#1A1A1A"/>
<rect x="114" y="313" width="1" height="37" fill="#C4C4C4"/>
<rect width="48" height="37" transform="translate(115 313)" fill="white"/>
<path d="M139.934 338H132.606V336.624L136.254 333.264C136.777 332.784 137.214 332.277 137.566 331.744C137.918 331.2 138.094 330.656 138.094 330.112V329.92C138.094 329.301 137.924 328.8 137.582 328.416C137.241 328.032 136.724 327.84 136.03 327.84C135.689 327.84 135.39 327.888 135.134 327.984C134.878 328.08 134.654 328.213 134.462 328.384C134.281 328.555 134.126 328.757 133.998 328.992C133.881 329.216 133.785 329.461 133.71 329.728L132.51 329.264C132.617 328.933 132.761 328.613 132.942 328.304C133.134 327.984 133.369 327.701 133.646 327.456C133.934 327.211 134.276 327.013 134.67 326.864C135.076 326.715 135.55 326.64 136.094 326.64C136.638 326.64 137.124 326.72 137.55 326.88C137.977 327.04 138.334 327.264 138.622 327.552C138.91 327.84 139.129 328.181 139.278 328.576C139.438 328.971 139.518 329.408 139.518 329.888C139.518 330.325 139.454 330.731 139.326 331.104C139.209 331.477 139.044 331.835 138.83 332.176C138.617 332.507 138.356 332.832 138.046 333.152C137.748 333.472 137.422 333.792 137.07 334.112L134.062 336.816H139.934V338ZM143.8 338L148.072 327.984H143.304V330.064H142.104V326.832H149.432V328.016L145.24 338H143.8Z" fill="#1A1A1A"/>
<rect x="163" y="313" width="1" height="37" fill="#C4C4C4"/>
<rect width="48" height="37" transform="translate(164 313)" fill="white"/>
<path d="M188.934 338H181.606V336.624L185.254 333.264C185.777 332.784 186.214 332.277 186.566 331.744C186.918 331.2 187.094 330.656 187.094 330.112V329.92C187.094 329.301 186.924 328.8 186.582 328.416C186.241 328.032 185.724 327.84 185.03 327.84C184.689 327.84 184.39 327.888 184.134 327.984C183.878 328.08 183.654 328.213 183.462 328.384C183.281 328.555 183.126 328.757 182.998 328.992C182.881 329.216 182.785 329.461 182.71 329.728L181.51 329.264C181.617 328.933 181.761 328.613 181.942 328.304C182.134 327.984 182.369 327.701 182.646 327.456C182.934 327.211 183.276 327.013 183.67 326.864C184.076 326.715 184.55 326.64 185.094 326.64C185.638 326.64 186.124 326.72 186.55 326.88C186.977 327.04 187.334 327.264 187.622 327.552C187.91 327.84 188.129 328.181 188.278 328.576C188.438 328.971 188.518 329.408 188.518 329.888C188.518 330.325 188.454 330.731 188.326 331.104C188.209 331.477 188.044 331.835 187.83 332.176C187.617 332.507 187.356 332.832 187.046 333.152C186.748 333.472 186.422 333.792 186.07 334.112L183.062 336.816H188.934V338ZM194.8 338.192C194.16 338.192 193.6 338.112 193.12 337.952C192.64 337.781 192.235 337.552 191.904 337.264C191.584 336.976 191.339 336.635 191.168 336.24C191.008 335.845 190.928 335.419 190.928 334.96C190.928 334.192 191.136 333.584 191.552 333.136C191.968 332.688 192.512 332.373 193.184 332.192V332.064C192.597 331.861 192.128 331.536 191.776 331.088C191.435 330.629 191.264 330.08 191.264 329.44C191.264 328.587 191.573 327.909 192.192 327.408C192.811 326.896 193.68 326.64 194.8 326.64C195.92 326.64 196.789 326.896 197.408 327.408C198.027 327.909 198.336 328.587 198.336 329.44C198.336 330.08 198.16 330.629 197.808 331.088C197.467 331.536 197.003 331.861 196.416 332.064V332.192C197.088 332.373 197.632 332.688 198.048 333.136C198.464 333.584 198.672 334.192 198.672 334.96C198.672 335.419 198.587 335.845 198.416 336.24C198.256 336.635 198.011 336.976 197.68 337.264C197.36 337.552 196.96 337.781 196.48 337.952C196 338.112 195.44 338.192 194.8 338.192ZM194.8 337.024C195.579 337.024 196.181 336.853 196.608 336.512C197.035 336.16 197.248 335.664 197.248 335.024V334.688C197.248 334.048 197.035 333.557 196.608 333.216C196.181 332.864 195.579 332.688 194.8 332.688C194.021 332.688 193.419 332.864 192.992 333.216C192.565 333.557 192.352 334.048 192.352 334.688V335.024C192.352 335.664 192.565 336.16 192.992 336.512C193.419 336.853 194.021 337.024 194.8 337.024ZM194.8 331.568C195.504 331.568 196.037 331.419 196.4 331.12C196.763 330.821 196.944 330.384 196.944 329.808V329.568C196.944 328.992 196.763 328.555 196.4 328.256C196.037 327.957 195.504 327.808 194.8 327.808C194.096 327.808 193.563 327.957 193.2 328.256C192.837 328.555 192.656 328.992 192.656 329.568V329.808C192.656 330.384 192.837 330.821 193.2 331.12C193.563 331.419 194.096 331.568 194.8 331.568Z" fill="#1A1A1A"/>
<rect x="212" y="313" width="1" height="37" fill="#C4C4C4"/>
<rect width="48" height="37" transform="translate(213 313)" fill="white"/>
<path d="M237.934 338H230.606V336.624L234.254 333.264C234.777 332.784 235.214 332.277 235.566 331.744C235.918 331.2 236.094 330.656 236.094 330.112V329.92C236.094 329.301 235.924 328.8 235.582 328.416C235.241 328.032 234.724 327.84 234.03 327.84C233.689 327.84 233.39 327.888 233.134 327.984C232.878 328.08 232.654 328.213 232.462 328.384C232.281 328.555 232.126 328.757 231.998 328.992C231.881 329.216 231.785 329.461 231.71 329.728L230.51 329.264C230.617 328.933 230.761 328.613 230.942 328.304C231.134 327.984 231.369 327.701 231.646 327.456C231.934 327.211 232.276 327.013 232.67 326.864C233.076 326.715 233.55 326.64 234.094 326.64C234.638 326.64 235.124 326.72 235.55 326.88C235.977 327.04 236.334 327.264 236.622 327.552C236.91 327.84 237.129 328.181 237.278 328.576C237.438 328.971 237.518 329.408 237.518 329.888C237.518 330.325 237.454 330.731 237.326 331.104C237.209 331.477 237.044 331.835 236.83 332.176C236.617 332.507 236.356 332.832 236.046 333.152C235.748 333.472 235.422 333.792 235.07 334.112L232.062 336.816H237.934V338ZM247.528 330.928C247.528 331.76 247.405 332.544 247.16 333.28C246.915 334.005 246.595 334.672 246.2 335.28C245.816 335.877 245.389 336.411 244.92 336.88C244.451 337.339 243.992 337.712 243.544 338H241.816C242.413 337.563 242.947 337.136 243.416 336.72C243.885 336.304 244.296 335.872 244.648 335.424C245 334.965 245.299 334.48 245.544 333.968C245.789 333.445 245.987 332.859 246.136 332.208L246.056 332.176C245.789 332.635 245.443 333.019 245.016 333.328C244.6 333.627 244.051 333.776 243.368 333.776C242.888 333.776 242.445 333.696 242.04 333.536C241.635 333.376 241.288 333.147 241 332.848C240.712 332.549 240.483 332.192 240.312 331.776C240.152 331.349 240.072 330.869 240.072 330.336C240.072 329.792 240.157 329.296 240.328 328.848C240.509 328.389 240.76 328 241.08 327.68C241.411 327.349 241.8 327.093 242.248 326.912C242.707 326.731 243.219 326.64 243.784 326.64C244.36 326.64 244.877 326.741 245.336 326.944C245.805 327.136 246.2 327.419 246.52 327.792C246.851 328.155 247.101 328.603 247.272 329.136C247.443 329.669 247.528 330.267 247.528 330.928ZM243.8 332.64C244.536 332.64 245.107 332.437 245.512 332.032C245.928 331.627 246.136 331.045 246.136 330.288V330.16C246.136 329.403 245.928 328.821 245.512 328.416C245.107 328.011 244.536 327.808 243.8 327.808C243.064 327.808 242.488 328.011 242.072 328.416C241.667 328.821 241.464 329.403 241.464 330.16V330.288C241.464 331.045 241.667 331.627 242.072 332.032C242.488 332.437 243.064 332.64 243.8 332.64Z" fill="#1A1A1A"/>
<rect x="261" y="313" width="1" height="37" fill="#C4C4C4"/>
<rect width="48" height="37" transform="translate(262 313)" fill="white"/>
<path d="M282.582 331.568C283.34 331.568 283.905 331.397 284.278 331.056C284.662 330.704 284.854 330.256 284.854 329.712V329.6C284.854 329.013 284.668 328.576 284.294 328.288C283.932 327.989 283.452 327.84 282.854 327.84C282.278 327.84 281.809 327.968 281.446 328.224C281.084 328.469 280.785 328.805 280.55 329.232L279.558 328.464C279.697 328.24 279.862 328.021 280.054 327.808C280.257 327.584 280.492 327.387 280.758 327.216C281.025 327.045 281.334 326.907 281.686 326.8C282.038 326.693 282.438 326.64 282.886 326.64C283.356 326.64 283.798 326.704 284.214 326.832C284.63 326.949 284.988 327.131 285.286 327.376C285.596 327.611 285.836 327.904 286.006 328.256C286.188 328.608 286.278 329.008 286.278 329.456C286.278 329.819 286.22 330.144 286.102 330.432C285.996 330.72 285.846 330.971 285.654 331.184C285.462 331.397 285.233 331.579 284.966 331.728C284.71 331.877 284.433 331.989 284.134 332.064V332.128C284.433 332.192 284.721 332.299 284.998 332.448C285.286 332.587 285.537 332.773 285.75 333.008C285.974 333.232 286.15 333.509 286.278 333.84C286.417 334.16 286.486 334.528 286.486 334.944C286.486 335.424 286.396 335.867 286.214 336.272C286.033 336.667 285.777 337.008 285.446 337.296C285.116 337.573 284.716 337.792 284.246 337.952C283.777 338.112 283.26 338.192 282.694 338.192C282.214 338.192 281.788 338.139 281.414 338.032C281.041 337.925 280.71 337.781 280.422 337.6C280.134 337.419 279.878 337.216 279.654 336.992C279.441 336.768 279.249 336.533 279.078 336.288L280.086 335.52C280.225 335.744 280.374 335.947 280.534 336.128C280.705 336.309 280.892 336.464 281.094 336.592C281.297 336.72 281.526 336.821 281.782 336.896C282.038 336.96 282.337 336.992 282.678 336.992C283.468 336.992 284.065 336.816 284.47 336.464C284.876 336.101 285.078 335.589 285.078 334.928V334.8C285.078 334.139 284.876 333.632 284.47 333.28C284.065 332.917 283.468 332.736 282.678 332.736H281.366V331.568H282.582ZM292.8 338.192C291.467 338.192 290.491 337.685 289.872 336.672C289.264 335.659 288.96 334.24 288.96 332.416C288.96 330.592 289.264 329.173 289.872 328.16C290.491 327.147 291.467 326.64 292.8 326.64C294.133 326.64 295.104 327.147 295.712 328.16C296.331 329.173 296.64 330.592 296.64 332.416C296.64 334.24 296.331 335.659 295.712 336.672C295.104 337.685 294.133 338.192 292.8 338.192ZM292.8 337.024C293.237 337.024 293.611 336.933 293.92 336.752C294.229 336.571 294.48 336.315 294.672 335.984C294.864 335.653 295.003 335.264 295.088 334.816C295.184 334.368 295.232 333.872 295.232 333.328V331.504C295.232 330.96 295.184 330.464 295.088 330.016C295.003 329.568 294.864 329.179 294.672 328.848C294.48 328.517 294.229 328.261 293.92 328.08C293.611 327.899 293.237 327.808 292.8 327.808C292.363 327.808 291.989 327.899 291.68 328.08C291.371 328.261 291.12 328.517 290.928 328.848C290.736 329.179 290.592 329.568 290.496 330.016C290.411 330.464 290.368 330.96 290.368 331.504V333.328C290.368 333.872 290.411 334.368 290.496 334.816C290.592 335.264 290.736 335.653 290.928 335.984C291.12 336.315 291.371 336.571 291.68 336.752C291.989 336.933 292.363 337.024 292.8 337.024Z" fill="#1A1A1A"/>
<rect x="310" y="313" width="1" height="37" fill="#C4C4C4"/>
<rect width="48" height="37" transform="translate(311 313)" fill="white"/>
<path d="M331.582 331.568C332.34 331.568 332.905 331.397 333.278 331.056C333.662 330.704 333.854 330.256 333.854 329.712V329.6C333.854 329.013 333.668 328.576 333.294 328.288C332.932 327.989 332.452 327.84 331.854 327.84C331.278 327.84 330.809 327.968 330.446 328.224C330.084 328.469 329.785 328.805 329.55 329.232L328.558 328.464C328.697 328.24 328.862 328.021 329.054 327.808C329.257 327.584 329.492 327.387 329.758 327.216C330.025 327.045 330.334 326.907 330.686 326.8C331.038 326.693 331.438 326.64 331.886 326.64C332.356 326.64 332.798 326.704 333.214 326.832C333.63 326.949 333.988 327.131 334.286 327.376C334.596 327.611 334.836 327.904 335.006 328.256C335.188 328.608 335.278 329.008 335.278 329.456C335.278 329.819 335.22 330.144 335.102 330.432C334.996 330.72 334.846 330.971 334.654 331.184C334.462 331.397 334.233 331.579 333.966 331.728C333.71 331.877 333.433 331.989 333.134 332.064V332.128C333.433 332.192 333.721 332.299 333.998 332.448C334.286 332.587 334.537 332.773 334.75 333.008C334.974 333.232 335.15 333.509 335.278 333.84C335.417 334.16 335.486 334.528 335.486 334.944C335.486 335.424 335.396 335.867 335.214 336.272C335.033 336.667 334.777 337.008 334.446 337.296C334.116 337.573 333.716 337.792 333.246 337.952C332.777 338.112 332.26 338.192 331.694 338.192C331.214 338.192 330.788 338.139 330.414 338.032C330.041 337.925 329.71 337.781 329.422 337.6C329.134 337.419 328.878 337.216 328.654 336.992C328.441 336.768 328.249 336.533 328.078 336.288L329.086 335.52C329.225 335.744 329.374 335.947 329.534 336.128C329.705 336.309 329.892 336.464 330.094 336.592C330.297 336.72 330.526 336.821 330.782 336.896C331.038 336.96 331.337 336.992 331.678 336.992C332.468 336.992 333.065 336.816 333.47 336.464C333.876 336.101 334.078 335.589 334.078 334.928V334.8C334.078 334.139 333.876 333.632 333.47 333.28C333.065 332.917 332.468 332.736 331.678 332.736H330.366V331.568H331.582ZM338.408 338V336.816H341.528V327.824H341.416L338.6 330.448L337.816 329.6L340.776 326.832H342.872V336.816H345.752V338H338.408Z" fill="#1A1A1A"/>
<rect x="17" y="351" width="1" height="342" transform="rotate(-90 17 351)" fill="#747474"/>
<rect x="359" y="85" width="1" height="266" fill="#747474"/>
</g>
<path d="M204 52H203V50H201V52H193V50H191V52H190C188.89 52 188.01 52.9 188.01 54L188 68C188 69.1 188.89 70 190 70H204C205.1 70 206 69.1 206 68V54C206 52.9 205.1 52 204 52ZM204 68H190V58H204V68ZM204 56H190V54H204V56ZM202 61H197V66H202V61Z" fill="#1A1A1A"/>
<rect x="16.5" y="41.5" width="159" height="39" rx="3.5" stroke="#747474"/>
<path d="M36.8 66.192C35.4667 66.192 34.4907 65.6853 33.872 64.672C33.264 63.6587 32.96 62.24 32.96 60.416C32.96 58.592 33.264 57.1733 33.872 56.16C34.4907 55.1467 35.4667 54.64 36.8 54.64C38.1333 54.64 39.104 55.1467 39.712 56.16C40.3307 57.1733 40.64 58.592 40.64 60.416C40.64 62.24 40.3307 63.6587 39.712 64.672C39.104 65.6853 38.1333 66.192 36.8 66.192ZM36.8 65.024C37.2373 65.024 37.6107 64.9333 37.92 64.752C38.2293 64.5707 38.48 64.3147 38.672 63.984C38.864 63.6533 39.0027 63.264 39.088 62.816C39.184 62.368 39.232 61.872 39.232 61.328V59.504C39.232 58.96 39.184 58.464 39.088 58.016C39.0027 57.568 38.864 57.1787 38.672 56.848C38.48 56.5173 38.2293 56.2613 37.92 56.08C37.6107 55.8987 37.2373 55.808 36.8 55.808C36.3627 55.808 35.9893 55.8987 35.68 56.08C35.3707 56.2613 35.12 56.5173 34.928 56.848C34.736 57.1787 34.592 57.568 34.496 58.016C34.4107 58.464 34.368 58.96 34.368 59.504V61.328C34.368 61.872 34.4107 62.368 34.496 62.816C34.592 63.264 34.736 63.6533 34.928 63.984C35.12 64.3147 35.3707 64.5707 35.68 64.752C35.9893 64.9333 36.3627 65.024 36.8 65.024ZM44.3938 66L48.6658 55.984H43.8978V58.064H42.6978V54.832H50.0258V56.016L45.8338 66H44.3938ZM51.3315 68.416L55.5075 54.16H56.6595L52.4835 68.416H51.3315ZM62.1125 66.192C60.7792 66.192 59.8032 65.6853 59.1845 64.672C58.5765 63.6587 58.2725 62.24 58.2725 60.416C58.2725 58.592 58.5765 57.1733 59.1845 56.16C59.8032 55.1467 60.7792 54.64 62.1125 54.64C63.4458 54.64 64.4165 55.1467 65.0245 56.16C65.6432 57.1733 65.9525 58.592 65.9525 60.416C65.9525 62.24 65.6432 63.6587 65.0245 64.672C64.4165 65.6853 63.4458 66.192 62.1125 66.192ZM62.1125 65.024C62.5498 65.024 62.9232 64.9333 63.2325 64.752C63.5418 64.5707 63.7925 64.3147 63.9845 63.984C64.1765 63.6533 64.3152 63.264 64.4005 62.816C64.4965 62.368 64.5445 61.872 64.5445 61.328V59.504C64.5445 58.96 64.4965 58.464 64.4005 58.016C64.3152 57.568 64.1765 57.1787 63.9845 56.848C63.7925 56.5173 63.5418 56.2613 63.2325 56.08C62.9232 55.8987 62.5498 55.808 62.1125 55.808C61.6752 55.808 61.3018 55.8987 60.9925 56.08C60.6832 56.2613 60.4325 56.5173 60.2405 56.848C60.0485 57.1787 59.9045 57.568 59.8085 58.016C59.7232 58.464 59.6805 58.96 59.6805 59.504V61.328C59.6805 61.872 59.7232 62.368 59.8085 62.816C59.9045 63.264 60.0485 63.6533 60.2405 63.984C60.4325 64.3147 60.6832 64.5707 60.9925 64.752C61.3018 64.9333 61.6752 65.024 62.1125 65.024ZM68.3143 66V64.816H71.4343V55.824H71.3223L68.5063 58.448L67.7223 57.6L70.6823 54.832H72.7783V64.816H75.6583V66H68.3143ZM76.644 68.416L80.82 54.16H81.972L77.796 68.416H76.644ZM84.033 66V64.816H87.153V55.824H87.041L84.225 58.448L83.441 57.6L86.401 54.832H88.497V64.816H91.377V66H84.033ZM100.747 58.928C100.747 59.76 100.624 60.544 100.379 61.28C100.133 62.0053 99.8134 62.672 99.4188 63.28C99.0348 63.8773 98.6081 64.4107 98.1388 64.88C97.6694 65.3387 97.2108 65.712 96.7628 66H95.0348C95.6321 65.5627 96.1654 65.136 96.6348 64.72C97.1041 64.304 97.5148 63.872 97.8668 63.424C98.2188 62.9653 98.5174 62.48 98.7628 61.968C99.0081 61.4453 99.2054 60.8587 99.3548 60.208L99.2748 60.176C99.0081 60.6347 98.6614 61.0187 98.2348 61.328C97.8188 61.6267 97.2694 61.776 96.5868 61.776C96.1068 61.776 95.6641 61.696 95.2588 61.536C94.8534 61.376 94.5068 61.1467 94.2188 60.848C93.9308 60.5493 93.7014 60.192 93.5308 59.776C93.3708 59.3493 93.2908 58.8693 93.2908 58.336C93.2908 57.792 93.3761 57.296 93.5468 56.848C93.7281 56.3893 93.9788 56 94.2988 55.68C94.6294 55.3493 95.0188 55.0933 95.4668 54.912C95.9254 54.7307 96.4374 54.64 97.0028 54.64C97.5788 54.64 98.0961 54.7413 98.5548 54.944C99.0241 55.136 99.4188 55.4187 99.7388 55.792C100.069 56.1547 100.32 56.6027 100.491 57.136C100.661 57.6693 100.747 58.2667 100.747 58.928ZM97.0188 60.64C97.7548 60.64 98.3254 60.4373 98.7308 60.032C99.1468 59.6267 99.3548 59.0453 99.3548 58.288V58.16C99.3548 57.4027 99.1468 56.8213 98.7308 56.416C98.3254 56.0107 97.7548 55.808 97.0188 55.808C96.2828 55.808 95.7068 56.0107 95.2908 56.416C94.8854 56.8213 94.6828 57.4027 94.6828 58.16V58.288C94.6828 59.0453 94.8854 59.6267 95.2908 60.032C95.7068 60.4373 96.2828 60.64 97.0188 60.64ZM104.613 66L108.885 55.984H104.117V58.064H102.917V54.832H110.245V56.016L106.053 66H104.613ZM112.814 66V64.816H115.934V55.824H115.822L113.006 58.448L112.222 57.6L115.182 54.832H117.278V64.816H120.158V66H112.814Z" fill="#1A1A1A"/>
<path d="M17.312 28V16.832H24.496V18.704H19.424V21.408H23.84V23.28H19.424V28H17.312ZM25.07 27.92L26.142 26.576C25.6727 25.8507 25.438 24.928 25.438 23.808C25.438 23.136 25.5287 22.5333 25.71 22C25.8913 21.4667 26.1473 21.0133 26.478 20.64C26.8193 20.256 27.2247 19.9627 27.694 19.76C28.174 19.5573 28.7127 19.456 29.31 19.456C30.1527 19.456 30.8727 19.6587 31.47 20.064L32.446 18.896L33.566 19.728L32.478 21.072C32.7127 21.4347 32.8887 21.8507 33.006 22.32C33.134 22.7787 33.198 23.28 33.198 23.824C33.198 24.496 33.1073 25.104 32.926 25.648C32.7447 26.1813 32.4833 26.64 32.142 27.024C31.8113 27.3973 31.406 27.6853 30.926 27.888C30.446 28.0907 29.9073 28.192 29.31 28.192C28.478 28.192 27.758 27.9947 27.15 27.6L26.19 28.752L25.07 27.92ZM29.31 26.64C29.8647 26.64 30.302 26.4587 30.622 26.096C30.942 25.7227 31.102 25.2053 31.102 24.544V22.624L28.126 26.224C28.4353 26.5013 28.83 26.64 29.31 26.64ZM27.55 24.976L30.494 21.424C30.1847 21.1467 29.79 21.008 29.31 21.008C28.766 21.008 28.334 21.1947 28.014 21.568C27.7047 21.9307 27.55 22.4427 27.55 23.104V24.976ZM40.2586 26.608H40.1786C40.0293 27.088 39.7466 27.472 39.3306 27.76C38.9146 28.048 38.4293 28.192 37.8746 28.192C36.8186 28.192 36.008 27.8133 35.4426 27.056C34.888 26.2987 34.6106 25.216 34.6106 23.808C34.6106 22.4107 34.888 21.3387 35.4426 20.592C36.008 19.8347 36.8186 19.456 37.8746 19.456C38.4293 19.456 38.9146 19.6 39.3306 19.888C39.7466 20.1653 40.0293 20.544 40.1786 21.024H40.2586V16.16H42.3066V28H40.2586V26.608ZM38.5306 26.496C39.0213 26.496 39.432 26.3787 39.7626 26.144C40.0933 25.9093 40.2586 25.5733 40.2586 25.136V22.48C40.2586 22.0747 40.0933 21.7493 39.7626 21.504C39.432 21.2587 39.0213 21.136 38.5306 21.136C37.9973 21.136 37.5653 21.3173 37.2346 21.68C36.9146 22.032 36.7546 22.5067 36.7546 23.104V24.544C36.7546 25.1413 36.9146 25.616 37.2346 25.968C37.5653 26.32 37.9973 26.496 38.5306 26.496ZM47.4044 28.192C46.6044 28.192 45.9324 28.0587 45.3884 27.792C44.8444 27.5147 44.3644 27.136 43.9484 26.656L45.1964 25.44C45.5057 25.792 45.8417 26.0693 46.2044 26.272C46.5777 26.4747 47.0044 26.576 47.4844 26.576C47.975 26.576 48.327 26.4907 48.5404 26.32C48.7644 26.1493 48.8764 25.9147 48.8764 25.616C48.8764 25.3707 48.7964 25.1787 48.6364 25.04C48.487 24.8907 48.2257 24.7893 47.8524 24.736L47.0204 24.624C46.1137 24.5067 45.4204 24.2507 44.9404 23.856C44.471 23.4507 44.2364 22.864 44.2364 22.096C44.2364 21.6907 44.311 21.328 44.4604 21.008C44.6097 20.6773 44.823 20.4 45.1004 20.176C45.3777 19.9413 45.7084 19.7653 46.0924 19.648C46.487 19.52 46.9244 19.456 47.4044 19.456C47.8097 19.456 48.167 19.488 48.4764 19.552C48.7964 19.6053 49.0844 19.6907 49.3404 19.808C49.5964 19.9147 49.831 20.0533 50.0444 20.224C50.2577 20.384 50.4657 20.5653 50.6684 20.768L49.4684 21.968C49.223 21.712 48.9297 21.4987 48.5884 21.328C48.247 21.1573 47.8737 21.072 47.4684 21.072C47.0204 21.072 46.695 21.152 46.4924 21.312C46.3004 21.472 46.2044 21.68 46.2044 21.936C46.2044 22.2133 46.2844 22.4267 46.4444 22.576C46.615 22.7147 46.8977 22.816 47.2924 22.88L48.1404 22.992C49.943 23.248 50.8444 24.0693 50.8444 25.456C50.8444 25.8613 50.759 26.2347 50.5884 26.576C50.4284 26.9067 50.199 27.1947 49.9004 27.44C49.6017 27.6747 49.239 27.8613 48.8124 28C48.3964 28.128 47.927 28.192 47.4044 28.192ZM56.0288 28.192C55.4101 28.192 54.8554 28.0907 54.3648 27.888C53.8848 27.6747 53.4741 27.3813 53.1328 27.008C52.8021 26.624 52.5461 26.1653 52.3648 25.632C52.1834 25.088 52.0928 24.48 52.0928 23.808C52.0928 23.1467 52.1781 22.5493 52.3488 22.016C52.5301 21.4827 52.7861 21.0293 53.1168 20.656C53.4474 20.272 53.8528 19.9787 54.3328 19.776C54.8128 19.5627 55.3568 19.456 55.9648 19.456C56.6154 19.456 57.1808 19.568 57.6608 19.792C58.1408 20.016 58.5354 20.32 58.8448 20.704C59.1541 21.088 59.3834 21.536 59.5328 22.048C59.6928 22.5493 59.7728 23.088 59.7728 23.664V24.336H54.2208V24.544C54.2208 25.152 54.3914 25.6427 54.7328 26.016C55.0741 26.3787 55.5808 26.56 56.2528 26.56C56.7648 26.56 57.1808 26.4533 57.5008 26.24C57.8314 26.0267 58.1248 25.7547 58.3808 25.424L59.4848 26.656C59.1434 27.136 58.6741 27.5147 58.0768 27.792C57.4901 28.0587 56.8074 28.192 56.0288 28.192ZM55.9968 20.992C55.4528 20.992 55.0208 21.1733 54.7008 21.536C54.3808 21.8987 54.2208 22.368 54.2208 22.944V23.072H57.6448V22.928C57.6448 22.352 57.5008 21.888 57.2128 21.536C56.9354 21.1733 56.5301 20.992 55.9968 20.992ZM63.6226 28C62.9186 28 62.4013 27.824 62.0706 27.472C61.74 27.12 61.5746 26.624 61.5746 25.984V16.16H63.6226V26.368H64.7266V28H63.6226ZM69.0138 28.192C68.2138 28.192 67.5418 28.0587 66.9978 27.792C66.4538 27.5147 65.9738 27.136 65.5578 26.656L66.8058 25.44C67.1151 25.792 67.4511 26.0693 67.8138 26.272C68.1871 26.4747 68.6138 26.576 69.0938 26.576C69.5844 26.576 69.9364 26.4907 70.1498 26.32C70.3738 26.1493 70.4858 25.9147 70.4858 25.616C70.4858 25.3707 70.4058 25.1787 70.2458 25.04C70.0964 24.8907 69.8351 24.7893 69.4618 24.736L68.6298 24.624C67.7231 24.5067 67.0298 24.2507 66.5498 23.856C66.0804 23.4507 65.8458 22.864 65.8458 22.096C65.8458 21.6907 65.9204 21.328 66.0698 21.008C66.2191 20.6773 66.4324 20.4 66.7098 20.176C66.9871 19.9413 67.3178 19.7653 67.7018 19.648C68.0964 19.52 68.5338 19.456 69.0138 19.456C69.4191 19.456 69.7764 19.488 70.0858 19.552C70.4058 19.6053 70.6938 19.6907 70.9498 19.808C71.2058 19.9147 71.4404 20.0533 71.6538 20.224C71.8671 20.384 72.0751 20.5653 72.2778 20.768L71.0778 21.968C70.8324 21.712 70.5391 21.4987 70.1978 21.328C69.8564 21.1573 69.4831 21.072 69.0778 21.072C68.6298 21.072 68.3044 21.152 68.1018 21.312C67.9098 21.472 67.8138 21.68 67.8138 21.936C67.8138 22.2133 67.8938 22.4267 68.0538 22.576C68.2244 22.7147 68.5071 22.816 68.9018 22.88L69.7498 22.992C71.5524 23.248 72.4538 24.0693 72.4538 25.456C72.4538 25.8613 72.3684 26.2347 72.1978 26.576C72.0378 26.9067 71.8084 27.1947 71.5098 27.44C71.2111 27.6747 70.8484 27.8613 70.4218 28C70.0058 28.128 69.5364 28.192 69.0138 28.192ZM79.4461 26.608H79.3661C79.2168 27.088 78.9341 27.472 78.5181 27.76C78.1021 28.048 77.6168 28.192 77.0621 28.192C76.0061 28.192 75.1955 27.8133 74.6301 27.056C74.0755 26.2987 73.7981 25.216 73.7981 23.808C73.7981 22.4107 74.0755 21.3387 74.6301 20.592C75.1955 19.8347 76.0061 19.456 77.0621 19.456C77.6168 19.456 78.1021 19.6 78.5181 19.888C78.9341 20.1653 79.2168 20.544 79.3661 21.024H79.4461V16.16H81.4941V28H79.4461V26.608ZM77.7181 26.496C78.2088 26.496 78.6195 26.3787 78.9501 26.144C79.2808 25.9093 79.4461 25.5733 79.4461 25.136V22.48C79.4461 22.0747 79.2808 21.7493 78.9501 21.504C78.6195 21.2587 78.2088 21.136 77.7181 21.136C77.1848 21.136 76.7528 21.3173 76.4221 21.68C76.1021 22.032 75.9421 22.5067 75.9421 23.104V24.544C75.9421 25.1413 76.1021 25.616 76.4221 25.968C76.7528 26.32 77.1848 26.496 77.7181 26.496ZM89.9999 28C89.5519 28 89.1945 27.872 88.9279 27.616C88.6719 27.3493 88.5119 26.9973 88.4479 26.56H88.3519C88.2132 27.104 87.9305 27.5147 87.5039 27.792C87.0772 28.0587 86.5492 28.192 85.9199 28.192C85.0665 28.192 84.4105 27.968 83.9519 27.52C83.4932 27.072 83.2639 26.4747 83.2639 25.728C83.2639 24.864 83.5732 24.224 84.1919 23.808C84.8105 23.3813 85.6905 23.168 86.8319 23.168H88.2559V22.56C88.2559 22.0907 88.1332 21.728 87.8879 21.472C87.6425 21.216 87.2479 21.088 86.7039 21.088C86.2239 21.088 85.8345 21.1947 85.5359 21.408C85.2479 21.6107 85.0025 21.856 84.7999 22.144L83.5839 21.056C83.8932 20.576 84.3039 20.192 84.8159 19.904C85.3279 19.6053 86.0052 19.456 86.8479 19.456C87.9785 19.456 88.8372 19.712 89.4239 20.224C90.0105 20.736 90.3039 21.472 90.3039 22.432V26.368H91.1359V28H89.9999ZM86.6079 26.704C87.0665 26.704 87.4559 26.6027 87.7759 26.4C88.0959 26.1973 88.2559 25.8987 88.2559 25.504V24.4H86.9439C85.8772 24.4 85.3439 24.7413 85.3439 25.424V25.696C85.3439 26.0373 85.4505 26.2933 85.6639 26.464C85.8879 26.624 86.2025 26.704 86.6079 26.704ZM95.3389 28C94.6349 28 94.0962 27.8187 93.7229 27.456C93.3602 27.0827 93.1789 26.5547 93.1789 25.872V21.28H91.9469V19.648H92.5869C92.8962 19.648 93.1042 19.5787 93.2109 19.44C93.3282 19.2907 93.3869 19.072 93.3869 18.784V17.36H95.2269V19.648H96.9389V21.28H95.2269V26.368H96.8109V28H95.3389ZM101.965 28.192C101.367 28.192 100.829 28.0907 100.349 27.888C99.8794 27.6853 99.4741 27.392 99.1328 27.008C98.8021 26.624 98.5461 26.1653 98.3648 25.632C98.1834 25.088 98.0928 24.48 98.0928 23.808C98.0928 23.136 98.1834 22.5333 98.3648 22C98.5461 21.4667 98.8021 21.0133 99.1328 20.64C99.4741 20.256 99.8794 19.9627 100.349 19.76C100.829 19.5573 101.367 19.456 101.965 19.456C102.562 19.456 103.101 19.5573 103.581 19.76C104.061 19.9627 104.466 20.256 104.797 20.64C105.138 21.0133 105.399 21.4667 105.581 22C105.762 22.5333 105.853 23.136 105.853 23.808C105.853 24.48 105.762 25.088 105.581 25.632C105.399 26.1653 105.138 26.624 104.797 27.008C104.466 27.392 104.061 27.6853 103.581 27.888C103.101 28.0907 102.562 28.192 101.965 28.192ZM101.965 26.544C102.509 26.544 102.935 26.3787 103.245 26.048C103.554 25.7173 103.709 25.232 103.709 24.592V23.04C103.709 22.4107 103.554 21.9307 103.245 21.6C102.935 21.2693 102.509 21.104 101.965 21.104C101.431 21.104 101.01 21.2693 100.701 21.6C100.391 21.9307 100.237 22.4107 100.237 23.04V24.592C100.237 25.232 100.391 25.7173 100.701 26.048C101.01 26.3787 101.431 26.544 101.965 26.544Z" fill="#1A1A1A"/>
</g>
<defs>
<filter id="filter0_d_6734_65278" x="8" y="81" width="360" height="282" filterUnits="userSpaceOnUse" color-interpolation-filters="sRGB">
<feFlood flood-opacity="0" result="BackgroundImageFix"/>
<feColorMatrix in="SourceAlpha" type="matrix" values="0 0 0 0 0 0 0 0 0 0 0 0 0 0 0 0 0 0 127 0" result="hardAlpha"/>
<feOffset dy="4"/>
<feGaussianBlur stdDeviation="4"/>
<feColorMatrix type="matrix" values="0 0 0 0 0 0 0 0 0 0 0 0 0 0 0 0 0 0 0.302 0"/>
<feBlend mode="normal" in2="BackgroundImageFix" result="effect1_dropShadow_6734_65278"/>
<feBlend mode="normal" in="SourceGraphic" in2="effect1_dropShadow_6734_65278" result="shape"/>
</filter>
<clipPath id="clip0_6734_65278">
<rect width="418" height="368" fill="white"/>
</clipPath>
</defs>
</svg>
