<svg width="418" height="434" viewBox="0 0 418 434" fill="none" xmlns="http://www.w3.org/2000/svg">
<rect width="418" height="434" fill="white"/>
<rect x="13" y="45" width="326" height="46" stroke="#747474" stroke-width="4"/>
<rect x="16.5" y="48.5" width="319" height="39" rx="3.5" fill="white" stroke="#747474"/>
<path d="M311.41 64.5801L316 69.1701L320.59 64.5801L322 66.0001L316 72.0001L310 66.0001L311.41 64.5801Z" fill="#1A1A1A"/>
<path d="M37.032 74L33.32 62.832H34.76L36.6 68.464L37.832 72.656H37.912L39.176 68.464L41.032 62.832H42.424L38.664 74H37.032ZM46.4256 70.192C45.6896 70.2133 45.151 70.336 44.8096 70.56C44.479 70.7733 44.3136 71.0827 44.3136 71.488V71.824C44.3136 72.2293 44.4576 72.544 44.7456 72.768C45.0443 72.992 45.4496 73.104 45.9616 73.104C46.271 73.104 46.5536 73.0667 46.8096 72.992C47.0763 72.9173 47.3056 72.8107 47.4976 72.672C47.6896 72.5333 47.839 72.3733 47.9456 72.192C48.063 72.0107 48.1216 71.8133 48.1216 71.6V70.192H46.4256ZM53.9616 69.232V69.056C53.9616 68.32 53.759 67.7333 53.3536 67.296C52.959 66.848 52.431 66.624 51.7696 66.624C51.4176 66.624 51.0976 66.688 50.8096 66.816C50.5216 66.9333 50.271 67.104 50.0576 67.328C49.855 67.552 49.695 67.8187 49.5776 68.128C49.4603 68.4267 49.4016 68.7573 49.4016 69.12V69.232H53.9616ZM51.8496 73.072C52.9056 73.072 53.663 72.6027 54.1216 71.664L55.0336 72.304C54.767 72.88 54.3563 73.3387 53.8016 73.68C53.2576 74.0213 52.6283 74.192 51.9136 74.192C51.4763 74.192 51.0763 74.128 50.7136 74C50.3616 73.8827 50.0523 73.7333 49.7856 73.552C49.5296 73.36 49.3216 73.1573 49.1616 72.944C49.0016 72.72 48.9003 72.5173 48.8576 72.336H48.7616C48.7296 72.5173 48.6336 72.7147 48.4736 72.928C48.3243 73.1413 48.1216 73.344 47.8656 73.536C47.6096 73.7173 47.3003 73.872 46.9376 74C46.575 74.128 46.1643 74.192 45.7056 74.192C44.8736 74.192 44.207 73.9733 43.7056 73.536C43.215 73.088 42.9696 72.4853 42.9696 71.728C42.9696 70.928 43.263 70.3147 43.8496 69.888C44.4363 69.4507 45.3163 69.232 46.4896 69.232H48.1216V68.464C48.1216 67.8773 47.9616 67.4293 47.6416 67.12C47.3216 66.8107 46.847 66.656 46.2176 66.656C45.6843 66.656 45.2523 66.7627 44.9216 66.976C44.591 67.1893 44.3083 67.488 44.0736 67.872L43.3056 67.168C43.519 66.7307 43.871 66.352 44.3616 66.032C44.863 65.712 45.4923 65.552 46.2496 65.552C46.719 65.552 47.1083 65.6213 47.4176 65.76C47.7376 65.888 47.9936 66.048 48.1856 66.24C48.3883 66.4213 48.5376 66.6187 48.6336 66.832C48.7296 67.0453 48.799 67.232 48.8416 67.392H48.9376C48.9803 67.2107 49.0816 67.0133 49.2416 66.8C49.4016 66.5867 49.6096 66.3893 49.8656 66.208C50.1216 66.016 50.4203 65.8613 50.7616 65.744C51.1136 65.616 51.4976 65.552 51.9136 65.552C52.4363 65.552 52.9056 65.6533 53.3216 65.856C53.7483 66.0587 54.111 66.3413 54.4096 66.704C54.7083 67.056 54.9376 67.4773 55.0976 67.968C55.2576 68.4587 55.3376 68.9973 55.3376 69.584V70.192H49.4016V70.576C49.4016 70.928 49.455 71.2587 49.5616 71.568C49.679 71.8667 49.839 72.128 50.0416 72.352C50.255 72.576 50.511 72.752 50.8096 72.88C51.119 73.008 51.4656 73.072 51.8496 73.072ZM58.8138 74C58.3658 74 58.0244 73.8773 57.7898 73.632C57.5658 73.376 57.4538 73.056 57.4538 72.672V62.16H58.7338V72.88H59.9498V74H58.8138ZM68.7731 74.912C68.7731 75.7653 68.4371 76.3893 67.7651 76.784C67.1038 77.1893 66.1065 77.392 64.7731 77.392C63.4825 77.392 62.5545 77.216 61.9891 76.864C61.4238 76.512 61.1411 76.0107 61.1411 75.36C61.1411 74.912 61.2585 74.56 61.4931 74.304C61.7278 74.0587 62.0478 73.8773 62.4531 73.76V73.584C61.9625 73.3493 61.7171 72.9653 61.7171 72.432C61.7171 72.016 61.8505 71.7013 62.1171 71.488C62.3838 71.264 62.7251 71.0987 63.1411 70.992V70.928C62.6505 70.6933 62.2665 70.3573 61.9891 69.92C61.7225 69.4827 61.5891 68.976 61.5891 68.4C61.5891 67.984 61.6638 67.6 61.8131 67.248C61.9625 66.896 62.1705 66.5973 62.4371 66.352C62.7145 66.096 63.0398 65.8987 63.4131 65.76C63.7971 65.6213 64.2238 65.552 64.6931 65.552C65.2798 65.552 65.8025 65.6587 66.2611 65.872V65.728C66.2611 65.408 66.3358 65.1467 66.4851 64.944C66.6345 64.7307 66.8798 64.624 67.2211 64.624H68.4531V65.744H66.8851V66.272C67.1838 66.528 67.4131 66.8373 67.5731 67.2C67.7438 67.552 67.8291 67.952 67.8291 68.4C67.8291 68.816 67.7545 69.2 67.6051 69.552C67.4558 69.904 67.2425 70.208 66.9651 70.464C66.6985 70.7093 66.3731 70.9013 65.9891 71.04C65.6051 71.1787 65.1785 71.248 64.7091 71.248C64.4425 71.248 64.1758 71.2213 63.9091 71.168C63.6318 71.2427 63.3811 71.3547 63.1571 71.504C62.9331 71.6427 62.8211 71.84 62.8211 72.096C62.8211 72.3413 62.9385 72.5067 63.1731 72.592C63.4078 72.6773 63.7118 72.72 64.0851 72.72H65.8451C66.8691 72.72 67.6105 72.9173 68.0691 73.312C68.5385 73.696 68.7731 74.2293 68.7731 74.912ZM67.5731 75.008C67.5731 74.6773 67.4451 74.4107 67.1891 74.208C66.9438 74.016 66.5011 73.92 65.8611 73.92H63.1091C62.5971 74.1547 62.3411 74.528 62.3411 75.04C62.3411 75.4027 62.4745 75.712 62.7411 75.968C63.0185 76.224 63.4825 76.352 64.1331 76.352H65.3171C66.0318 76.352 66.5865 76.24 66.9811 76.016C67.3758 75.792 67.5731 75.456 67.5731 75.008ZM64.7091 70.224C65.2531 70.224 65.6851 70.096 66.0051 69.84C66.3251 69.5733 66.4851 69.168 66.4851 68.624V68.176C66.4851 67.632 66.3251 67.232 66.0051 66.976C65.6851 66.7093 65.2531 66.576 64.7091 66.576C64.1651 66.576 63.7331 66.7093 63.4131 66.976C63.0931 67.232 62.9331 67.632 62.9331 68.176V68.624C62.9331 69.168 63.0931 69.5733 63.4131 69.84C63.7331 70.096 64.1651 70.224 64.7091 70.224Z" fill="#1A1A1A"/>
<path d="M17.312 34V22.832H19.424V32.128H23.824V34H17.312ZM28.6835 34.192C28.0862 34.192 27.5475 34.0907 27.0675 33.888C26.5982 33.6853 26.1928 33.392 25.8515 33.008C25.5208 32.624 25.2648 32.1653 25.0835 31.632C24.9022 31.088 24.8115 30.48 24.8115 29.808C24.8115 29.136 24.9022 28.5333 25.0835 28C25.2648 27.4667 25.5208 27.0133 25.8515 26.64C26.1928 26.256 26.5982 25.9627 27.0675 25.76C27.5475 25.5573 28.0862 25.456 28.6835 25.456C29.2808 25.456 29.8195 25.5573 30.2995 25.76C30.7795 25.9627 31.1848 26.256 31.5155 26.64C31.8568 27.0133 32.1182 27.4667 32.2995 28C32.4808 28.5333 32.5715 29.136 32.5715 29.808C32.5715 30.48 32.4808 31.088 32.2995 31.632C32.1182 32.1653 31.8568 32.624 31.5155 33.008C31.1848 33.392 30.7795 33.6853 30.2995 33.888C29.8195 34.0907 29.2808 34.192 28.6835 34.192ZM28.6835 32.544C29.2275 32.544 29.6542 32.3787 29.9635 32.048C30.2728 31.7173 30.4275 31.232 30.4275 30.592V29.04C30.4275 28.4107 30.2728 27.9307 29.9635 27.6C29.6542 27.2693 29.2275 27.104 28.6835 27.104C28.1502 27.104 27.7288 27.2693 27.4195 27.6C27.1102 27.9307 26.9555 28.4107 26.9555 29.04V30.592C26.9555 31.232 27.1102 31.7173 27.4195 32.048C27.7288 32.3787 28.1502 32.544 28.6835 32.544ZM34.3871 34V25.648H36.4351V27.376H36.5151C36.5685 27.152 36.6485 26.9387 36.7551 26.736C36.8725 26.5227 37.0218 26.336 37.2031 26.176C37.3845 26.016 37.5978 25.888 37.8431 25.792C38.0991 25.696 38.3925 25.648 38.7231 25.648H39.1711V27.584H38.5311C37.8378 27.584 37.3151 27.6853 36.9631 27.888C36.6111 28.0907 36.4351 28.4213 36.4351 28.88V34H34.3871ZM43.9663 34.192C43.3476 34.192 42.7929 34.0907 42.3023 33.888C41.8223 33.6747 41.4116 33.3813 41.0703 33.008C40.7396 32.624 40.4836 32.1653 40.3023 31.632C40.1209 31.088 40.0303 30.48 40.0303 29.808C40.0303 29.1467 40.1156 28.5493 40.2863 28.016C40.4676 27.4827 40.7236 27.0293 41.0543 26.656C41.3849 26.272 41.7903 25.9787 42.2703 25.776C42.7503 25.5627 43.2943 25.456 43.9023 25.456C44.5529 25.456 45.1183 25.568 45.5983 25.792C46.0783 26.016 46.4729 26.32 46.7823 26.704C47.0916 27.088 47.3209 27.536 47.4703 28.048C47.6303 28.5493 47.7103 29.088 47.7103 29.664V30.336H42.1583V30.544C42.1583 31.152 42.3289 31.6427 42.6703 32.016C43.0116 32.3787 43.5183 32.56 44.1903 32.56C44.7023 32.56 45.1183 32.4533 45.4383 32.24C45.7689 32.0267 46.0623 31.7547 46.3183 31.424L47.4223 32.656C47.0809 33.136 46.6116 33.5147 46.0143 33.792C45.4276 34.0587 44.7449 34.192 43.9663 34.192ZM43.9343 26.992C43.3903 26.992 42.9583 27.1733 42.6383 27.536C42.3183 27.8987 42.1583 28.368 42.1583 28.944V29.072H45.5823V28.928C45.5823 28.352 45.4383 27.888 45.1503 27.536C44.8729 27.1733 44.4676 26.992 43.9343 26.992ZM49.5121 34V25.648H51.5601V27.04H51.6401C51.8001 26.6027 52.0561 26.2293 52.4081 25.92C52.7601 25.6107 53.2508 25.456 53.8801 25.456C54.4561 25.456 54.9521 25.5947 55.3681 25.872C55.7841 26.1493 56.0935 26.5707 56.2961 27.136H56.3281C56.4775 26.6667 56.7708 26.272 57.2081 25.952C57.6561 25.6213 58.2161 25.456 58.8881 25.456C59.7095 25.456 60.3388 25.7387 60.7761 26.304C61.2241 26.8693 61.4481 27.6747 61.4481 28.72V34H59.4001V28.928C59.4001 27.7333 58.9521 27.136 58.0561 27.136C57.8535 27.136 57.6561 27.168 57.4641 27.232C57.2828 27.2853 57.1175 27.3707 56.9681 27.488C56.8295 27.5947 56.7175 27.7333 56.6321 27.904C56.5468 28.064 56.5041 28.256 56.5041 28.48V34H54.4561V28.928C54.4561 27.7333 54.0081 27.136 53.1121 27.136C52.9201 27.136 52.7281 27.168 52.5361 27.232C52.3548 27.2853 52.1895 27.3707 52.0401 27.488C51.9015 27.5947 51.7841 27.7333 51.6881 27.904C51.6028 28.064 51.5601 28.256 51.5601 28.48V34H49.5121ZM68.5205 24.432C68.0938 24.432 67.7845 24.336 67.5925 24.144C67.4112 23.952 67.3205 23.7067 67.3205 23.408V23.088C67.3205 22.7893 67.4112 22.544 67.5925 22.352C67.7845 22.16 68.0938 22.064 68.5205 22.064C68.9365 22.064 69.2405 22.16 69.4325 22.352C69.6245 22.544 69.7205 22.7893 69.7205 23.088V23.408C69.7205 23.7067 69.6245 23.952 69.4325 24.144C69.2405 24.336 68.9365 24.432 68.5205 24.432ZM67.4965 25.648H69.5445V34H67.4965V25.648ZM71.9184 25.648H73.9664V27.024H74.0304C74.1797 26.544 74.4624 26.1653 74.8784 25.888C75.2944 25.6 75.7797 25.456 76.3344 25.456C77.401 25.456 78.2117 25.8347 78.7664 26.592C79.3317 27.3387 79.6144 28.4107 79.6144 29.808C79.6144 31.216 79.3317 32.2987 78.7664 33.056C78.2117 33.8133 77.401 34.192 76.3344 34.192C75.7797 34.192 75.2944 34.048 74.8784 33.76C74.473 33.472 74.1904 33.088 74.0304 32.608H73.9664V37.2H71.9184V25.648ZM75.6784 32.496C76.2117 32.496 76.6437 32.32 76.9744 31.968C77.305 31.616 77.4704 31.1413 77.4704 30.544V29.104C77.4704 28.5067 77.305 28.032 76.9744 27.68C76.6437 27.3173 76.2117 27.136 75.6784 27.136C75.1877 27.136 74.777 27.2587 74.4464 27.504C74.1264 27.7493 73.9664 28.0747 73.9664 28.48V31.136C73.9664 31.5733 74.1264 31.9093 74.4464 32.144C74.777 32.3787 75.1877 32.496 75.6784 32.496ZM84.2481 34.192C83.4481 34.192 82.7761 34.0587 82.2321 33.792C81.6881 33.5147 81.2081 33.136 80.7921 32.656L82.0401 31.44C82.3495 31.792 82.6855 32.0693 83.0481 32.272C83.4215 32.4747 83.8481 32.576 84.3281 32.576C84.8188 32.576 85.1708 32.4907 85.3841 32.32C85.6081 32.1493 85.7201 31.9147 85.7201 31.616C85.7201 31.3707 85.6401 31.1787 85.4801 31.04C85.3308 30.8907 85.0695 30.7893 84.6961 30.736L83.8641 30.624C82.9575 30.5067 82.2641 30.2507 81.7841 29.856C81.3148 29.4507 81.0801 28.864 81.0801 28.096C81.0801 27.6907 81.1548 27.328 81.3041 27.008C81.4535 26.6773 81.6668 26.4 81.9441 26.176C82.2215 25.9413 82.5521 25.7653 82.9361 25.648C83.3308 25.52 83.7681 25.456 84.2481 25.456C84.6535 25.456 85.0108 25.488 85.3201 25.552C85.6401 25.6053 85.9281 25.6907 86.1841 25.808C86.4401 25.9147 86.6748 26.0533 86.8881 26.224C87.1015 26.384 87.3095 26.5653 87.5121 26.768L86.3121 27.968C86.0668 27.712 85.7735 27.4987 85.4321 27.328C85.0908 27.1573 84.7175 27.072 84.3121 27.072C83.8641 27.072 83.5388 27.152 83.3361 27.312C83.1441 27.472 83.0481 27.68 83.0481 27.936C83.0481 28.2133 83.1281 28.4267 83.2881 28.576C83.4588 28.7147 83.7415 28.816 84.1361 28.88L84.9841 28.992C86.7868 29.248 87.6881 30.0693 87.6881 31.456C87.6881 31.8613 87.6028 32.2347 87.4321 32.576C87.2721 32.9067 87.0428 33.1947 86.7441 33.44C86.4455 33.6747 86.0828 33.8613 85.6561 34C85.2401 34.128 84.7708 34.192 84.2481 34.192ZM94.4885 32.608H94.4085C94.3338 32.8213 94.2325 33.024 94.1045 33.216C93.9872 33.3973 93.8325 33.5627 93.6405 33.712C93.4592 33.8613 93.2352 33.9787 92.9685 34.064C92.7125 34.1493 92.4138 34.192 92.0725 34.192C91.2085 34.192 90.5472 33.9093 90.0885 33.344C89.6298 32.7787 89.4005 31.9733 89.4005 30.928V25.648H91.4485V30.72C91.4485 31.296 91.5605 31.7387 91.7845 32.048C92.0085 32.3467 92.3658 32.496 92.8565 32.496C93.0592 32.496 93.2565 32.4693 93.4485 32.416C93.6512 32.3627 93.8272 32.2827 93.9765 32.176C94.1258 32.0587 94.2485 31.92 94.3445 31.76C94.4405 31.5893 94.4885 31.392 94.4885 31.168V25.648H96.5365V34H94.4885V32.608ZM98.9028 34V25.648H100.951V27.04H101.031C101.191 26.6027 101.447 26.2293 101.799 25.92C102.151 25.6107 102.641 25.456 103.271 25.456C103.847 25.456 104.343 25.5947 104.759 25.872C105.175 26.1493 105.484 26.5707 105.687 27.136H105.719C105.868 26.6667 106.161 26.272 106.599 25.952C107.047 25.6213 107.607 25.456 108.279 25.456C109.1 25.456 109.729 25.7387 110.167 26.304C110.615 26.8693 110.839 27.6747 110.839 28.72V34H108.791V28.928C108.791 27.7333 108.343 27.136 107.447 27.136C107.244 27.136 107.047 27.168 106.855 27.232C106.673 27.2853 106.508 27.3707 106.359 27.488C106.22 27.5947 106.108 27.7333 106.023 27.904C105.937 28.064 105.895 28.256 105.895 28.48V34H103.847V28.928C103.847 27.7333 103.399 27.136 102.503 27.136C102.311 27.136 102.119 27.168 101.927 27.232C101.745 27.2853 101.58 27.3707 101.431 27.488C101.292 27.5947 101.175 27.7333 101.079 27.904C100.993 28.064 100.951 28.256 100.951 28.48V34H98.9028ZM122.071 32.608H121.991C121.842 33.088 121.559 33.472 121.143 33.76C120.727 34.048 120.242 34.192 119.687 34.192C118.631 34.192 117.82 33.8133 117.255 33.056C116.7 32.2987 116.423 31.216 116.423 29.808C116.423 28.4107 116.7 27.3387 117.255 26.592C117.82 25.8347 118.631 25.456 119.687 25.456C120.242 25.456 120.727 25.6 121.143 25.888C121.559 26.1653 121.842 26.544 121.991 27.024H122.071V22.16H124.119V34H122.071V32.608ZM120.343 32.496C120.834 32.496 121.244 32.3787 121.575 32.144C121.906 31.9093 122.071 31.5733 122.071 31.136V28.48C122.071 28.0747 121.906 27.7493 121.575 27.504C121.244 27.2587 120.834 27.136 120.343 27.136C119.81 27.136 119.378 27.3173 119.047 27.68C118.727 28.032 118.567 28.5067 118.567 29.104V30.544C118.567 31.1413 118.727 31.616 119.047 31.968C119.378 32.32 119.81 32.496 120.343 32.496ZM129.793 34.192C129.196 34.192 128.657 34.0907 128.177 33.888C127.708 33.6853 127.302 33.392 126.961 33.008C126.63 32.624 126.374 32.1653 126.193 31.632C126.012 31.088 125.921 30.48 125.921 29.808C125.921 29.136 126.012 28.5333 126.193 28C126.374 27.4667 126.63 27.0133 126.961 26.64C127.302 26.256 127.708 25.9627 128.177 25.76C128.657 25.5573 129.196 25.456 129.793 25.456C130.39 25.456 130.929 25.5573 131.409 25.76C131.889 25.9627 132.294 26.256 132.625 26.64C132.966 27.0133 133.228 27.4667 133.409 28C133.59 28.5333 133.681 29.136 133.681 29.808C133.681 30.48 133.59 31.088 133.409 31.632C133.228 32.1653 132.966 32.624 132.625 33.008C132.294 33.392 131.889 33.6853 131.409 33.888C130.929 34.0907 130.39 34.192 129.793 34.192ZM129.793 32.544C130.337 32.544 130.764 32.3787 131.073 32.048C131.382 31.7173 131.537 31.232 131.537 30.592V29.04C131.537 28.4107 131.382 27.9307 131.073 27.6C130.764 27.2693 130.337 27.104 129.793 27.104C129.26 27.104 128.838 27.2693 128.529 27.6C128.22 27.9307 128.065 28.4107 128.065 29.04V30.592C128.065 31.232 128.22 31.7173 128.529 32.048C128.838 32.3787 129.26 32.544 129.793 32.544ZM137.545 34C136.841 34 136.323 33.824 135.993 33.472C135.662 33.12 135.497 32.624 135.497 31.984V22.16H137.545V32.368H138.649V34H137.545ZM143.512 34.192C142.914 34.192 142.376 34.0907 141.896 33.888C141.426 33.6853 141.021 33.392 140.68 33.008C140.349 32.624 140.093 32.1653 139.912 31.632C139.73 31.088 139.64 30.48 139.64 29.808C139.64 29.136 139.73 28.5333 139.912 28C140.093 27.4667 140.349 27.0133 140.68 26.64C141.021 26.256 141.426 25.9627 141.896 25.76C142.376 25.5573 142.914 25.456 143.512 25.456C144.109 25.456 144.648 25.5573 145.128 25.76C145.608 25.9627 146.013 26.256 146.344 26.64C146.685 27.0133 146.946 27.4667 147.128 28C147.309 28.5333 147.4 29.136 147.4 29.808C147.4 30.48 147.309 31.088 147.128 31.632C146.946 32.1653 146.685 32.624 146.344 33.008C146.013 33.392 145.608 33.6853 145.128 33.888C144.648 34.0907 144.109 34.192 143.512 34.192ZM143.512 32.544C144.056 32.544 144.482 32.3787 144.792 32.048C145.101 31.7173 145.256 31.232 145.256 30.592V29.04C145.256 28.4107 145.101 27.9307 144.792 27.6C144.482 27.2693 144.056 27.104 143.512 27.104C142.978 27.104 142.557 27.2693 142.248 27.6C141.938 27.9307 141.784 28.4107 141.784 29.04V30.592C141.784 31.232 141.938 31.7173 142.248 32.048C142.557 32.3787 142.978 32.544 143.512 32.544ZM149.215 34V25.648H151.263V27.376H151.343C151.397 27.152 151.477 26.9387 151.583 26.736C151.701 26.5227 151.85 26.336 152.031 26.176C152.213 26.016 152.426 25.888 152.671 25.792C152.927 25.696 153.221 25.648 153.551 25.648H153.999V27.584H153.359C152.666 27.584 152.143 27.6853 151.791 27.888C151.439 28.0907 151.263 28.4213 151.263 28.88V34H149.215ZM162.014 34.192C161.214 34.192 160.542 34.0587 159.998 33.792C159.454 33.5147 158.974 33.136 158.558 32.656L159.806 31.44C160.115 31.792 160.451 32.0693 160.814 32.272C161.187 32.4747 161.614 32.576 162.094 32.576C162.584 32.576 162.936 32.4907 163.15 32.32C163.374 32.1493 163.486 31.9147 163.486 31.616C163.486 31.3707 163.406 31.1787 163.246 31.04C163.096 30.8907 162.835 30.7893 162.462 30.736L161.63 30.624C160.723 30.5067 160.03 30.2507 159.55 29.856C159.08 29.4507 158.846 28.864 158.846 28.096C158.846 27.6907 158.92 27.328 159.07 27.008C159.219 26.6773 159.432 26.4 159.71 26.176C159.987 25.9413 160.318 25.7653 160.702 25.648C161.096 25.52 161.534 25.456 162.014 25.456C162.419 25.456 162.776 25.488 163.086 25.552C163.406 25.6053 163.694 25.6907 163.95 25.808C164.206 25.9147 164.44 26.0533 164.654 26.224C164.867 26.384 165.075 26.5653 165.278 26.768L164.078 27.968C163.832 27.712 163.539 27.4987 163.198 27.328C162.856 27.1573 162.483 27.072 162.078 27.072C161.63 27.072 161.304 27.152 161.102 27.312C160.91 27.472 160.814 27.68 160.814 27.936C160.814 28.2133 160.894 28.4267 161.054 28.576C161.224 28.7147 161.507 28.816 161.902 28.88L162.75 28.992C164.552 29.248 165.454 30.0693 165.454 31.456C165.454 31.8613 165.368 32.2347 165.198 32.576C165.038 32.9067 164.808 33.1947 164.51 33.44C164.211 33.6747 163.848 33.8613 163.422 34C163.006 34.128 162.536 34.192 162.014 34.192ZM168.286 24.432C167.859 24.432 167.55 24.336 167.358 24.144C167.177 23.952 167.086 23.7067 167.086 23.408V23.088C167.086 22.7893 167.177 22.544 167.358 22.352C167.55 22.16 167.859 22.064 168.286 22.064C168.702 22.064 169.006 22.16 169.198 22.352C169.39 22.544 169.486 22.7893 169.486 23.088V23.408C169.486 23.7067 169.39 23.952 169.198 24.144C169.006 24.336 168.702 24.432 168.286 24.432ZM167.262 25.648H169.31V34H167.262V25.648ZM174.292 34C173.588 34 173.049 33.8187 172.676 33.456C172.313 33.0827 172.132 32.5547 172.132 31.872V27.28H170.9V25.648H171.54C171.849 25.648 172.057 25.5787 172.164 25.44C172.281 25.2907 172.34 25.072 172.34 24.784V23.36H174.18V25.648H175.892V27.28H174.18V32.368H175.764V34H174.292ZM187.594 34C187.146 34 186.788 33.872 186.522 33.616C186.266 33.3493 186.106 32.9973 186.042 32.56H185.946C185.807 33.104 185.524 33.5147 185.098 33.792C184.671 34.0587 184.143 34.192 183.514 34.192C182.66 34.192 182.004 33.968 181.546 33.52C181.087 33.072 180.858 32.4747 180.858 31.728C180.858 30.864 181.167 30.224 181.786 29.808C182.404 29.3813 183.284 29.168 184.426 29.168H185.85V28.56C185.85 28.0907 185.727 27.728 185.482 27.472C185.236 27.216 184.842 27.088 184.298 27.088C183.818 27.088 183.428 27.1947 183.13 27.408C182.842 27.6107 182.596 27.856 182.394 28.144L181.178 27.056C181.487 26.576 181.898 26.192 182.41 25.904C182.922 25.6053 183.599 25.456 184.442 25.456C185.572 25.456 186.431 25.712 187.018 26.224C187.604 26.736 187.898 27.472 187.898 28.432V32.368H188.73V34H187.594ZM184.202 32.704C184.66 32.704 185.05 32.6027 185.37 32.4C185.69 32.1973 185.85 31.8987 185.85 31.504V30.4H184.538C183.471 30.4 182.938 30.7413 182.938 31.424V31.696C182.938 32.0373 183.044 32.2933 183.258 32.464C183.482 32.624 183.796 32.704 184.202 32.704ZM190.387 34V25.648H192.435V27.04H192.515C192.675 26.6027 192.931 26.2293 193.283 25.92C193.635 25.6107 194.126 25.456 194.755 25.456C195.331 25.456 195.827 25.5947 196.243 25.872C196.659 26.1493 196.968 26.5707 197.171 27.136H197.203C197.352 26.6667 197.646 26.272 198.083 25.952C198.531 25.6213 199.091 25.456 199.763 25.456C200.584 25.456 201.214 25.7387 201.651 26.304C202.099 26.8693 202.323 27.6747 202.323 28.72V34H200.275V28.928C200.275 27.7333 199.827 27.136 198.931 27.136C198.728 27.136 198.531 27.168 198.339 27.232C198.158 27.2853 197.992 27.3707 197.843 27.488C197.704 27.5947 197.592 27.7333 197.507 27.904C197.422 28.064 197.379 28.256 197.379 28.48V34H195.331V28.928C195.331 27.7333 194.883 27.136 193.987 27.136C193.795 27.136 193.603 27.168 193.411 27.232C193.23 27.2853 193.064 27.3707 192.915 27.488C192.776 27.5947 192.659 27.7333 192.563 27.904C192.478 28.064 192.435 28.256 192.435 28.48V34H190.387ZM207.966 34.192C207.348 34.192 206.793 34.0907 206.302 33.888C205.822 33.6747 205.412 33.3813 205.07 33.008C204.74 32.624 204.484 32.1653 204.302 31.632C204.121 31.088 204.03 30.48 204.03 29.808C204.03 29.1467 204.116 28.5493 204.286 28.016C204.468 27.4827 204.724 27.0293 205.054 26.656C205.385 26.272 205.79 25.9787 206.27 25.776C206.75 25.5627 207.294 25.456 207.902 25.456C208.553 25.456 209.118 25.568 209.598 25.792C210.078 26.016 210.473 26.32 210.782 26.704C211.092 27.088 211.321 27.536 211.47 28.048C211.63 28.5493 211.71 29.088 211.71 29.664V30.336H206.158V30.544C206.158 31.152 206.329 31.6427 206.67 32.016C207.012 32.3787 207.518 32.56 208.19 32.56C208.702 32.56 209.118 32.4533 209.438 32.24C209.769 32.0267 210.062 31.7547 210.318 31.424L211.422 32.656C211.081 33.136 210.612 33.5147 210.014 33.792C209.428 34.0587 208.745 34.192 207.966 34.192ZM207.934 26.992C207.39 26.992 206.958 27.1733 206.638 27.536C206.318 27.8987 206.158 28.368 206.158 28.944V29.072H209.582V28.928C209.582 28.352 209.438 27.888 209.15 27.536C208.873 27.1733 208.468 26.992 207.934 26.992ZM216.12 34C215.416 34 214.877 33.8187 214.504 33.456C214.141 33.0827 213.96 32.5547 213.96 31.872V27.28H212.728V25.648H213.368C213.677 25.648 213.885 25.5787 213.992 25.44C214.109 25.2907 214.168 25.072 214.168 24.784V23.36H216.008V25.648H217.72V27.28H216.008V32.368H217.592V34H216.12Z" fill="#1A1A1A"/>
<rect x="16.5" y="88.5" width="319" height="124" fill="white"/>
<line x1="17" y1="129.5" x2="335" y2="129.5" stroke="#BFBFBF"/>
<path d="M37.032 116L33.32 104.832H34.76L36.6 110.464L37.832 114.656H37.912L39.176 110.464L41.032 104.832H42.424L38.664 116H37.032ZM46.4256 112.192C45.6896 112.213 45.151 112.336 44.8096 112.56C44.479 112.773 44.3136 113.083 44.3136 113.488V113.824C44.3136 114.229 44.4576 114.544 44.7456 114.768C45.0443 114.992 45.4496 115.104 45.9616 115.104C46.271 115.104 46.5536 115.067 46.8096 114.992C47.0763 114.917 47.3056 114.811 47.4976 114.672C47.6896 114.533 47.839 114.373 47.9456 114.192C48.063 114.011 48.1216 113.813 48.1216 113.6V112.192H46.4256ZM53.9616 111.232V111.056C53.9616 110.32 53.759 109.733 53.3536 109.296C52.959 108.848 52.431 108.624 51.7696 108.624C51.4176 108.624 51.0976 108.688 50.8096 108.816C50.5216 108.933 50.271 109.104 50.0576 109.328C49.855 109.552 49.695 109.819 49.5776 110.128C49.4603 110.427 49.4016 110.757 49.4016 111.12V111.232H53.9616ZM51.8496 115.072C52.9056 115.072 53.663 114.603 54.1216 113.664L55.0336 114.304C54.767 114.88 54.3563 115.339 53.8016 115.68C53.2576 116.021 52.6283 116.192 51.9136 116.192C51.4763 116.192 51.0763 116.128 50.7136 116C50.3616 115.883 50.0523 115.733 49.7856 115.552C49.5296 115.36 49.3216 115.157 49.1616 114.944C49.0016 114.72 48.9003 114.517 48.8576 114.336H48.7616C48.7296 114.517 48.6336 114.715 48.4736 114.928C48.3243 115.141 48.1216 115.344 47.8656 115.536C47.6096 115.717 47.3003 115.872 46.9376 116C46.575 116.128 46.1643 116.192 45.7056 116.192C44.8736 116.192 44.207 115.973 43.7056 115.536C43.215 115.088 42.9696 114.485 42.9696 113.728C42.9696 112.928 43.263 112.315 43.8496 111.888C44.4363 111.451 45.3163 111.232 46.4896 111.232H48.1216V110.464C48.1216 109.877 47.9616 109.429 47.6416 109.12C47.3216 108.811 46.847 108.656 46.2176 108.656C45.6843 108.656 45.2523 108.763 44.9216 108.976C44.591 109.189 44.3083 109.488 44.0736 109.872L43.3056 109.168C43.519 108.731 43.871 108.352 44.3616 108.032C44.863 107.712 45.4923 107.552 46.2496 107.552C46.719 107.552 47.1083 107.621 47.4176 107.76C47.7376 107.888 47.9936 108.048 48.1856 108.24C48.3883 108.421 48.5376 108.619 48.6336 108.832C48.7296 109.045 48.799 109.232 48.8416 109.392H48.9376C48.9803 109.211 49.0816 109.013 49.2416 108.8C49.4016 108.587 49.6096 108.389 49.8656 108.208C50.1216 108.016 50.4203 107.861 50.7616 107.744C51.1136 107.616 51.4976 107.552 51.9136 107.552C52.4363 107.552 52.9056 107.653 53.3216 107.856C53.7483 108.059 54.111 108.341 54.4096 108.704C54.7083 109.056 54.9376 109.477 55.0976 109.968C55.2576 110.459 55.3376 110.997 55.3376 111.584V112.192H49.4016V112.576C49.4016 112.928 49.455 113.259 49.5616 113.568C49.679 113.867 49.839 114.128 50.0416 114.352C50.255 114.576 50.511 114.752 50.8096 114.88C51.119 115.008 51.4656 115.072 51.8496 115.072ZM58.8138 116C58.3658 116 58.0244 115.877 57.7898 115.632C57.5658 115.376 57.4538 115.056 57.4538 114.672V104.16H58.7338V114.88H59.9498V116H58.8138ZM68.7731 116.912C68.7731 117.765 68.4371 118.389 67.7651 118.784C67.1038 119.189 66.1065 119.392 64.7731 119.392C63.4825 119.392 62.5545 119.216 61.9891 118.864C61.4238 118.512 61.1411 118.011 61.1411 117.36C61.1411 116.912 61.2585 116.56 61.4931 116.304C61.7278 116.059 62.0478 115.877 62.4531 115.76V115.584C61.9625 115.349 61.7171 114.965 61.7171 114.432C61.7171 114.016 61.8505 113.701 62.1171 113.488C62.3838 113.264 62.7251 113.099 63.1411 112.992V112.928C62.6505 112.693 62.2665 112.357 61.9891 111.92C61.7225 111.483 61.5891 110.976 61.5891 110.4C61.5891 109.984 61.6638 109.6 61.8131 109.248C61.9625 108.896 62.1705 108.597 62.4371 108.352C62.7145 108.096 63.0398 107.899 63.4131 107.76C63.7971 107.621 64.2238 107.552 64.6931 107.552C65.2798 107.552 65.8025 107.659 66.2611 107.872V107.728C66.2611 107.408 66.3358 107.147 66.4851 106.944C66.6345 106.731 66.8798 106.624 67.2211 106.624H68.4531V107.744H66.8851V108.272C67.1838 108.528 67.4131 108.837 67.5731 109.2C67.7438 109.552 67.8291 109.952 67.8291 110.4C67.8291 110.816 67.7545 111.2 67.6051 111.552C67.4558 111.904 67.2425 112.208 66.9651 112.464C66.6985 112.709 66.3731 112.901 65.9891 113.04C65.6051 113.179 65.1785 113.248 64.7091 113.248C64.4425 113.248 64.1758 113.221 63.9091 113.168C63.6318 113.243 63.3811 113.355 63.1571 113.504C62.9331 113.643 62.8211 113.84 62.8211 114.096C62.8211 114.341 62.9385 114.507 63.1731 114.592C63.4078 114.677 63.7118 114.72 64.0851 114.72H65.8451C66.8691 114.72 67.6105 114.917 68.0691 115.312C68.5385 115.696 68.7731 116.229 68.7731 116.912ZM67.5731 117.008C67.5731 116.677 67.4451 116.411 67.1891 116.208C66.9438 116.016 66.5011 115.92 65.8611 115.92H63.1091C62.5971 116.155 62.3411 116.528 62.3411 117.04C62.3411 117.403 62.4745 117.712 62.7411 117.968C63.0185 118.224 63.4825 118.352 64.1331 118.352H65.3171C66.0318 118.352 66.5865 118.24 66.9811 118.016C67.3758 117.792 67.5731 117.456 67.5731 117.008ZM64.7091 112.224C65.2531 112.224 65.6851 112.096 66.0051 111.84C66.3251 111.573 66.4851 111.168 66.4851 110.624V110.176C66.4851 109.632 66.3251 109.232 66.0051 108.976C65.6851 108.709 65.2531 108.576 64.7091 108.576C64.1651 108.576 63.7331 108.709 63.4131 108.976C63.0931 109.232 62.9331 109.632 62.9331 110.176V110.624C62.9331 111.168 63.0931 111.573 63.4131 111.84C63.7331 112.096 64.1651 112.224 64.7091 112.224Z" fill="#1A1A1A"/>
<line x1="17" y1="170.5" x2="335" y2="170.5" stroke="#BFBFBF"/>
<path d="M39.752 145.832V154.104C39.752 154.573 39.672 155 39.512 155.384C39.3627 155.768 39.144 156.093 38.856 156.36C38.5787 156.627 38.2427 156.835 37.848 156.984C37.4533 157.123 37.0213 157.192 36.552 157.192C35.688 157.192 34.9893 156.963 34.456 156.504C33.9333 156.035 33.5973 155.416 33.448 154.648L34.664 154.36C34.7707 154.84 34.9733 155.235 35.272 155.544C35.5707 155.843 36.008 155.992 36.584 155.992C37.16 155.992 37.608 155.816 37.928 155.464C38.248 155.112 38.408 154.579 38.408 153.864V147.016H34.568V145.832H39.752ZM48.5163 157C48.0363 157 47.6896 156.872 47.4763 156.616C47.2736 156.36 47.1456 156.04 47.0923 155.656H47.0123C46.8309 156.168 46.5323 156.552 46.1163 156.808C45.7003 157.064 45.2043 157.192 44.6283 157.192C43.7536 157.192 43.0709 156.968 42.5803 156.52C42.1003 156.072 41.8603 155.464 41.8603 154.696C41.8603 153.917 42.1429 153.32 42.7083 152.904C43.2843 152.488 44.1749 152.28 45.3802 152.28H47.0123V151.464C47.0123 150.877 46.8523 150.429 46.5323 150.12C46.2123 149.811 45.7216 149.656 45.0603 149.656C44.5589 149.656 44.1376 149.768 43.7963 149.992C43.4656 150.216 43.1883 150.515 42.9643 150.888L42.1963 150.168C42.4203 149.72 42.7776 149.341 43.2682 149.032C43.7589 148.712 44.3776 148.552 45.1243 148.552C46.1269 148.552 46.9056 148.797 47.4603 149.288C48.0149 149.779 48.2923 150.461 48.2923 151.336V155.88H49.2362V157H48.5163ZM44.8363 156.104C45.1563 156.104 45.4496 156.067 45.7163 155.992C45.9829 155.917 46.2123 155.811 46.4043 155.672C46.5963 155.533 46.7456 155.373 46.8523 155.192C46.9589 155.011 47.0123 154.813 47.0123 154.6V153.24H45.3163C44.5803 153.24 44.0416 153.347 43.7003 153.56C43.3696 153.773 43.2043 154.083 43.2043 154.488V154.824C43.2043 155.229 43.3483 155.544 43.6363 155.768C43.9349 155.992 44.3349 156.104 44.8363 156.104Z" fill="#1A1A1A"/>
<path d="M37.192 191.184L35.848 188.704H35.8V198H34.488V186.832H36.04L40.12 193.648L41.464 196.128H41.512V186.832H42.824V198H41.272L37.192 191.184ZM48.7765 198.192C48.2112 198.192 47.6992 198.091 47.2405 197.888C46.7925 197.685 46.4032 197.397 46.0725 197.024C45.7525 196.64 45.5018 196.187 45.3205 195.664C45.1498 195.131 45.0645 194.533 45.0645 193.872C45.0645 193.221 45.1498 192.629 45.3205 192.096C45.5018 191.563 45.7525 191.109 46.0725 190.736C46.4032 190.352 46.7925 190.059 47.2405 189.856C47.6992 189.653 48.2112 189.552 48.7765 189.552C49.3312 189.552 49.8272 189.653 50.2645 189.856C50.7018 190.059 51.0752 190.341 51.3845 190.704C51.6938 191.056 51.9285 191.477 52.0885 191.968C52.2592 192.459 52.3445 192.997 52.3445 193.584V194.192H46.4085V194.576C46.4085 194.928 46.4618 195.259 46.5685 195.568C46.6858 195.867 46.8458 196.128 47.0485 196.352C47.2618 196.576 47.5178 196.752 47.8165 196.88C48.1258 197.008 48.4725 197.072 48.8565 197.072C49.3792 197.072 49.8325 196.949 50.2165 196.704C50.6112 196.459 50.9152 196.107 51.1285 195.648L52.0405 196.304C51.7738 196.869 51.3578 197.328 50.7925 197.68C50.2272 198.021 49.5552 198.192 48.7765 198.192ZM48.7765 190.624C48.4245 190.624 48.1045 190.688 47.8165 190.816C47.5285 190.933 47.2778 191.104 47.0645 191.328C46.8618 191.552 46.7018 191.819 46.5845 192.128C46.4672 192.427 46.4085 192.757 46.4085 193.12V193.232H50.9685V193.056C50.9685 192.32 50.7658 191.733 50.3605 191.296C49.9658 190.848 49.4378 190.624 48.7765 190.624ZM54.4538 189.744H55.7338V199.28C55.7338 199.856 55.5898 200.32 55.3018 200.672C55.0138 201.024 54.5604 201.2 53.9418 201.2H53.1098V200.08H54.4538V189.744ZM55.0938 187.808C54.8164 187.808 54.6138 187.744 54.4858 187.616C54.3684 187.477 54.3098 187.301 54.3098 187.088V186.88C54.3098 186.667 54.3684 186.496 54.4858 186.368C54.6138 186.229 54.8164 186.16 55.0938 186.16C55.3711 186.16 55.5684 186.229 55.6858 186.368C55.8138 186.496 55.8778 186.667 55.8778 186.88V187.088C55.8778 187.301 55.8138 187.477 55.6858 187.616C55.5684 187.744 55.3711 187.808 55.0938 187.808Z" fill="#1A1A1A"/>
<rect x="16.5" y="88.5" width="319" height="124" stroke="#747474"/>
</svg>
