<svg width="418" height="361" viewBox="0 0 418 361" fill="none" xmlns="http://www.w3.org/2000/svg">
<rect width="418" height="361" fill="white"/>
<path d="M42.68 94.57V112H38.72V94.57H32.78V91.06H48.62V94.57H42.68ZM50.5747 112V96.34H54.4147V99.58H54.5647C54.6647 99.16 54.8147 98.76 55.0147 98.38C55.2347 97.98 55.5147 97.63 55.8547 97.33C56.1947 97.03 56.5947 96.79 57.0547 96.61C57.5347 96.43 58.0847 96.34 58.7047 96.34H59.5447V99.97H58.3447C57.0447 99.97 56.0647 100.16 55.4047 100.54C54.7447 100.92 54.4147 101.54 54.4147 102.4V112H50.5747ZM64.572 94.06C63.772 94.06 63.192 93.88 62.832 93.52C62.492 93.16 62.322 92.7 62.322 92.14V91.54C62.322 90.98 62.492 90.52 62.832 90.16C63.192 89.8 63.772 89.62 64.572 89.62C65.352 89.62 65.922 89.8 66.282 90.16C66.642 90.52 66.822 90.98 66.822 91.54V92.14C66.822 92.7 66.642 93.16 66.282 93.52C65.922 93.88 65.352 94.06 64.572 94.06ZM62.652 96.34H66.492V112H62.652V96.34ZM71.243 112V96.34H75.083V98.95H75.233C75.553 98.11 76.053 97.41 76.733 96.85C77.433 96.27 78.393 95.98 79.613 95.98C81.233 95.98 82.473 96.51 83.333 97.57C84.193 98.63 84.623 100.14 84.623 102.1V112H80.783V102.49C80.783 101.37 80.583 100.53 80.183 99.97C79.783 99.41 79.123 99.13 78.203 99.13C77.803 99.13 77.413 99.19 77.033 99.31C76.673 99.41 76.343 99.57 76.043 99.79C75.763 99.99 75.533 100.25 75.353 100.57C75.173 100.87 75.083 101.23 75.083 101.65V112H71.243ZM110.73 112H96.2096V108.34L102.78 102.58C103.9 101.6 104.72 100.72 105.24 99.94C105.76 99.14 106.02 98.28 106.02 97.36V96.97C106.02 96.05 105.72 95.35 105.12 94.87C104.52 94.37 103.79 94.12 102.93 94.12C101.85 94.12 101.03 94.43 100.47 95.05C99.9096 95.65 99.5096 96.38 99.2696 97.24L95.8496 95.92C96.0696 95.22 96.3796 94.56 96.7796 93.94C97.1796 93.3 97.6796 92.74 98.2796 92.26C98.8996 91.78 99.6196 91.4 100.44 91.12C101.26 90.84 102.2 90.7 103.26 90.7C104.36 90.7 105.34 90.86 106.2 91.18C107.06 91.48 107.78 91.91 108.36 92.47C108.96 93.03 109.41 93.69 109.71 94.45C110.03 95.21 110.19 96.04 110.19 96.94C110.19 97.82 110.05 98.62 109.77 99.34C109.49 100.06 109.11 100.75 108.63 101.41C108.15 102.05 107.59 102.67 106.95 103.27C106.31 103.85 105.63 104.44 104.91 105.04L100.5 108.67H110.73V112Z" fill="#1A1A1A"/>
<rect x="16.5" y="65.5" width="385" height="279" stroke="#747474"/>
<rect x="16" y="21" width="89" height="40" fill="#F5F5F5"/>
<path d="M45.248 35.016V45H43.904V35.016H40.352V33.832H48.8V35.016H45.248ZM49.7975 45V36.744H51.0775V38.264H51.1575C51.3068 37.8693 51.5735 37.5173 51.9575 37.208C52.3415 36.8987 52.8695 36.744 53.5415 36.744H54.0375V38.024H53.2855C52.5922 38.024 52.0482 38.1573 51.6535 38.424C51.2695 38.68 51.0775 39.0053 51.0775 39.4V45H49.7975ZM56.3125 34.808C56.0352 34.808 55.8325 34.744 55.7045 34.616C55.5872 34.4773 55.5285 34.3013 55.5285 34.088V33.88C55.5285 33.6667 55.5872 33.496 55.7045 33.368C55.8325 33.2293 56.0352 33.16 56.3125 33.16C56.5898 33.16 56.7872 33.2293 56.9045 33.368C57.0325 33.496 57.0965 33.6667 57.0965 33.88V34.088C57.0965 34.3013 57.0325 34.4773 56.9045 34.616C56.7872 34.744 56.5898 34.808 56.3125 34.808ZM55.6725 36.744H56.9525V45H55.6725V36.744ZM59.6725 45V36.744H60.9525V38.088H61.0165C61.2192 37.6187 61.5018 37.2453 61.8645 36.968C62.2378 36.6907 62.7338 36.552 63.3525 36.552C64.2058 36.552 64.8778 36.8293 65.3685 37.384C65.8698 37.928 66.1205 38.7013 66.1205 39.704V45H64.8405V39.928C64.8405 38.4453 64.2165 37.704 62.9685 37.704C62.7125 37.704 62.4618 37.736 62.2165 37.8C61.9818 37.864 61.7685 37.96 61.5765 38.088C61.3845 38.216 61.2298 38.3813 61.1125 38.584C61.0058 38.776 60.9525 39.0053 60.9525 39.272V45H59.6725ZM72.5955 45V43.816H75.7155V34.824H75.6035L72.7875 37.448L72.0035 36.6L74.9635 33.832H77.0595V43.816H79.9395V45H72.5955Z" fill="#1A1A1A"/>
<path d="M40 47H80.7875V47.96H40V47Z" fill="#1A1A1A"/>
<rect x="109.5" y="16.5" width="88" height="49" stroke="#747474"/>
<rect x="0.25" y="-0.25" width="86.5" height="0.5" transform="matrix(1 0 0 -1 110 65.5)" stroke="white" stroke-width="0.5"/>
<path d="M138.248 35.016V45H136.904V35.016H133.352V33.832H141.8V35.016H138.248ZM142.798 45V36.744H144.078V38.264H144.158C144.307 37.8693 144.574 37.5173 144.958 37.208C145.342 36.8987 145.87 36.744 146.542 36.744H147.038V38.024H146.286C145.592 38.024 145.048 38.1573 144.654 38.424C144.27 38.68 144.078 39.0053 144.078 39.4V45H142.798ZM149.312 34.808C149.035 34.808 148.833 34.744 148.705 34.616C148.587 34.4773 148.529 34.3013 148.529 34.088V33.88C148.529 33.6667 148.587 33.496 148.705 33.368C148.833 33.2293 149.035 33.16 149.312 33.16C149.59 33.16 149.787 33.2293 149.905 33.368C150.033 33.496 150.097 33.6667 150.097 33.88V34.088C150.097 34.3013 150.033 34.4773 149.905 34.616C149.787 34.744 149.59 34.808 149.312 34.808ZM148.673 36.744H149.953V45H148.673V36.744ZM152.673 45V36.744H153.953V38.088H154.017C154.219 37.6187 154.502 37.2453 154.865 36.968C155.238 36.6907 155.734 36.552 156.353 36.552C157.206 36.552 157.878 36.8293 158.369 37.384C158.87 37.928 159.121 38.7013 159.121 39.704V45H157.841V39.928C157.841 38.4453 157.217 37.704 155.969 37.704C155.713 37.704 155.462 37.736 155.217 37.8C154.982 37.864 154.769 37.96 154.577 38.088C154.385 38.216 154.23 38.3813 154.113 38.584C154.006 38.776 153.953 39.0053 153.953 39.272V45H152.673ZM172.716 45H165.388V43.624L169.036 40.264C169.558 39.784 169.996 39.2773 170.348 38.744C170.7 38.2 170.876 37.656 170.876 37.112V36.92C170.876 36.3013 170.705 35.8 170.364 35.416C170.022 35.032 169.505 34.84 168.812 34.84C168.47 34.84 168.172 34.888 167.916 34.984C167.66 35.08 167.436 35.2133 167.244 35.384C167.062 35.5547 166.908 35.7573 166.78 35.992C166.662 36.216 166.566 36.4613 166.492 36.728L165.292 36.264C165.398 35.9333 165.542 35.6133 165.724 35.304C165.916 34.984 166.15 34.7013 166.428 34.456C166.716 34.2107 167.057 34.0133 167.452 33.864C167.857 33.7147 168.332 33.64 168.876 33.64C169.42 33.64 169.905 33.72 170.332 33.88C170.758 34.04 171.116 34.264 171.404 34.552C171.692 34.84 171.91 35.1813 172.06 35.576C172.22 35.9707 172.3 36.408 172.3 36.888C172.3 37.3253 172.236 37.7307 172.108 38.104C171.99 38.4773 171.825 38.8347 171.612 39.176C171.398 39.5067 171.137 39.832 170.828 40.152C170.529 40.472 170.204 40.792 169.852 41.112L166.844 43.816H172.716V45Z" fill="#1A1A1A"/>
<rect x="202" y="21" width="89" height="40" fill="#F5F5F5"/>
<path d="M231.248 35.016V45H229.904V35.016H226.352V33.832H234.8V35.016H231.248ZM235.798 45V36.744H237.078V38.264H237.158C237.307 37.8693 237.574 37.5173 237.958 37.208C238.342 36.8987 238.87 36.744 239.542 36.744H240.038V38.024H239.286C238.592 38.024 238.048 38.1573 237.654 38.424C237.27 38.68 237.078 39.0053 237.078 39.4V45H235.798ZM242.312 34.808C242.035 34.808 241.833 34.744 241.705 34.616C241.587 34.4773 241.529 34.3013 241.529 34.088V33.88C241.529 33.6667 241.587 33.496 241.705 33.368C241.833 33.2293 242.035 33.16 242.312 33.16C242.59 33.16 242.787 33.2293 242.905 33.368C243.033 33.496 243.097 33.6667 243.097 33.88V34.088C243.097 34.3013 243.033 34.4773 242.905 34.616C242.787 34.744 242.59 34.808 242.312 34.808ZM241.673 36.744H242.953V45H241.673V36.744ZM245.673 45V36.744H246.953V38.088H247.017C247.219 37.6187 247.502 37.2453 247.865 36.968C248.238 36.6907 248.734 36.552 249.353 36.552C250.206 36.552 250.878 36.8293 251.369 37.384C251.87 37.928 252.121 38.7013 252.121 39.704V45H250.841V39.928C250.841 38.4453 250.217 37.704 248.969 37.704C248.713 37.704 248.462 37.736 248.217 37.8C247.982 37.864 247.769 37.96 247.577 38.088C247.385 38.216 247.23 38.3813 247.113 38.584C247.006 38.776 246.953 39.0053 246.953 39.272V45H245.673ZM261.364 38.568C262.121 38.568 262.686 38.3973 263.06 38.056C263.444 37.704 263.636 37.256 263.636 36.712V36.6C263.636 36.0133 263.449 35.576 263.076 35.288C262.713 34.9893 262.233 34.84 261.636 34.84C261.06 34.84 260.59 34.968 260.228 35.224C259.865 35.4693 259.566 35.8053 259.332 36.232L258.34 35.464C258.478 35.24 258.644 35.0213 258.836 34.808C259.038 34.584 259.273 34.3867 259.539 34.216C259.806 34.0453 260.116 33.9067 260.468 33.8C260.82 33.6933 261.22 33.64 261.668 33.64C262.137 33.64 262.58 33.704 262.996 33.832C263.412 33.9493 263.769 34.1307 264.068 34.376C264.377 34.6107 264.617 34.904 264.788 35.256C264.969 35.608 265.06 36.008 265.06 36.456C265.06 36.8187 265.001 37.144 264.884 37.432C264.777 37.72 264.628 37.9707 264.436 38.184C264.244 38.3973 264.014 38.5787 263.748 38.728C263.492 38.8773 263.214 38.9893 262.916 39.064V39.128C263.214 39.192 263.502 39.2987 263.78 39.448C264.068 39.5867 264.318 39.7733 264.532 40.008C264.756 40.232 264.932 40.5093 265.06 40.84C265.198 41.16 265.267 41.528 265.267 41.944C265.267 42.424 265.177 42.8667 264.996 43.272C264.814 43.6667 264.558 44.008 264.228 44.296C263.897 44.5733 263.497 44.792 263.028 44.952C262.558 45.112 262.041 45.192 261.476 45.192C260.996 45.192 260.569 45.1387 260.196 45.032C259.822 44.9253 259.492 44.7813 259.204 44.6C258.916 44.4187 258.66 44.216 258.436 43.992C258.222 43.768 258.03 43.5333 257.86 43.288L258.868 42.52C259.006 42.744 259.156 42.9467 259.316 43.128C259.486 43.3093 259.673 43.464 259.876 43.592C260.078 43.72 260.308 43.8213 260.564 43.896C260.82 43.96 261.118 43.992 261.46 43.992C262.249 43.992 262.846 43.816 263.252 43.464C263.657 43.1013 263.86 42.5893 263.86 41.928V41.8C263.86 41.1387 263.657 40.632 263.252 40.28C262.846 39.9173 262.249 39.736 261.46 39.736H260.148V38.568H261.364Z" fill="#1A1A1A"/>
<path d="M226 47H266.787V47.96H226V47Z" fill="#1A1A1A"/>
<rect x="295" y="21" width="89" height="40" fill="#F5F5F5"/>
<path d="M324.248 35.016V45H322.904V35.016H319.352V33.832H327.8V35.016H324.248ZM328.798 45V36.744H330.078V38.264H330.158C330.307 37.8693 330.574 37.5173 330.958 37.208C331.342 36.8987 331.87 36.744 332.542 36.744H333.038V38.024H332.286C331.592 38.024 331.048 38.1573 330.654 38.424C330.27 38.68 330.078 39.0053 330.078 39.4V45H328.798ZM335.312 34.808C335.035 34.808 334.833 34.744 334.705 34.616C334.587 34.4773 334.529 34.3013 334.529 34.088V33.88C334.529 33.6667 334.587 33.496 334.705 33.368C334.833 33.2293 335.035 33.16 335.312 33.16C335.59 33.16 335.787 33.2293 335.905 33.368C336.033 33.496 336.097 33.6667 336.097 33.88V34.088C336.097 34.3013 336.033 34.4773 335.905 34.616C335.787 34.744 335.59 34.808 335.312 34.808ZM334.673 36.744H335.953V45H334.673V36.744ZM338.673 45V36.744H339.953V38.088H340.017C340.219 37.6187 340.502 37.2453 340.865 36.968C341.238 36.6907 341.734 36.552 342.353 36.552C343.206 36.552 343.878 36.8293 344.369 37.384C344.87 37.928 345.121 38.7013 345.121 39.704V45H343.841V39.928C343.841 38.4453 343.217 37.704 341.969 37.704C341.713 37.704 341.462 37.736 341.217 37.8C340.982 37.864 340.769 37.96 340.577 38.088C340.385 38.216 340.23 38.3813 340.113 38.584C340.006 38.776 339.953 39.0053 339.953 39.272V45H338.673ZM356.188 45V42.808H350.796V41.624L355.468 33.832H357.468V41.688H359.084V42.808H357.468V45H356.188ZM352.06 41.688H356.188V34.872H356.108L352.06 41.688Z" fill="#1A1A1A"/>
<path d="M319 47H359.787V47.96H319V47Z" fill="#1A1A1A"/>
<rect x="32.5" y="176.5" width="319" height="39" rx="3.5" stroke="#747474"/>
<path d="M33.312 163V151.832H35.424V161.128H39.824V163H33.312ZM44.6835 163.192C44.0862 163.192 43.5475 163.091 43.0675 162.888C42.5982 162.685 42.1928 162.392 41.8515 162.008C41.5208 161.624 41.2648 161.165 41.0835 160.632C40.9022 160.088 40.8115 159.48 40.8115 158.808C40.8115 158.136 40.9022 157.533 41.0835 157C41.2648 156.467 41.5208 156.013 41.8515 155.64C42.1928 155.256 42.5982 154.963 43.0675 154.76C43.5475 154.557 44.0862 154.456 44.6835 154.456C45.2808 154.456 45.8195 154.557 46.2995 154.76C46.7795 154.963 47.1848 155.256 47.5155 155.64C47.8568 156.013 48.1182 156.467 48.2995 157C48.4808 157.533 48.5715 158.136 48.5715 158.808C48.5715 159.48 48.4808 160.088 48.2995 160.632C48.1182 161.165 47.8568 161.624 47.5155 162.008C47.1848 162.392 46.7795 162.685 46.2995 162.888C45.8195 163.091 45.2808 163.192 44.6835 163.192ZM44.6835 161.544C45.2275 161.544 45.6542 161.379 45.9635 161.048C46.2728 160.717 46.4275 160.232 46.4275 159.592V158.04C46.4275 157.411 46.2728 156.931 45.9635 156.6C45.6542 156.269 45.2275 156.104 44.6835 156.104C44.1502 156.104 43.7288 156.269 43.4195 156.6C43.1102 156.931 42.9555 157.411 42.9555 158.04V159.592C42.9555 160.232 43.1102 160.717 43.4195 161.048C43.7288 161.379 44.1502 161.544 44.6835 161.544ZM50.3871 163V154.648H52.4351V156.376H52.5151C52.5685 156.152 52.6485 155.939 52.7551 155.736C52.8725 155.523 53.0218 155.336 53.2031 155.176C53.3845 155.016 53.5978 154.888 53.8431 154.792C54.0991 154.696 54.3925 154.648 54.7231 154.648H55.1711V156.584H54.5311C53.8378 156.584 53.3151 156.685 52.9631 156.888C52.6111 157.091 52.4351 157.421 52.4351 157.88V163H50.3871ZM59.9663 163.192C59.3476 163.192 58.7929 163.091 58.3023 162.888C57.8223 162.675 57.4116 162.381 57.0703 162.008C56.7396 161.624 56.4836 161.165 56.3023 160.632C56.1209 160.088 56.0303 159.48 56.0303 158.808C56.0303 158.147 56.1156 157.549 56.2863 157.016C56.4676 156.483 56.7236 156.029 57.0543 155.656C57.3849 155.272 57.7903 154.979 58.2703 154.776C58.7503 154.563 59.2943 154.456 59.9023 154.456C60.5529 154.456 61.1183 154.568 61.5983 154.792C62.0783 155.016 62.4729 155.32 62.7823 155.704C63.0916 156.088 63.3209 156.536 63.4703 157.048C63.6303 157.549 63.7103 158.088 63.7103 158.664V159.336H58.1583V159.544C58.1583 160.152 58.3289 160.643 58.6703 161.016C59.0116 161.379 59.5183 161.56 60.1903 161.56C60.7023 161.56 61.1183 161.453 61.4383 161.24C61.7689 161.027 62.0623 160.755 62.3183 160.424L63.4223 161.656C63.0809 162.136 62.6116 162.515 62.0143 162.792C61.4276 163.059 60.7449 163.192 59.9663 163.192ZM59.9343 155.992C59.3903 155.992 58.9583 156.173 58.6383 156.536C58.3183 156.899 58.1583 157.368 58.1583 157.944V158.072H61.5823V157.928C61.5823 157.352 61.4383 156.888 61.1503 156.536C60.8729 156.173 60.4676 155.992 59.9343 155.992ZM65.5121 163V154.648H67.5601V156.04H67.6401C67.8001 155.603 68.0561 155.229 68.4081 154.92C68.7601 154.611 69.2508 154.456 69.8801 154.456C70.4561 154.456 70.9521 154.595 71.3681 154.872C71.7841 155.149 72.0935 155.571 72.2961 156.136H72.3281C72.4775 155.667 72.7708 155.272 73.2081 154.952C73.6561 154.621 74.2161 154.456 74.8881 154.456C75.7095 154.456 76.3388 154.739 76.7761 155.304C77.2241 155.869 77.4481 156.675 77.4481 157.72V163H75.4001V157.928C75.4001 156.733 74.9521 156.136 74.0561 156.136C73.8535 156.136 73.6561 156.168 73.4641 156.232C73.2828 156.285 73.1175 156.371 72.9681 156.488C72.8295 156.595 72.7175 156.733 72.6321 156.904C72.5468 157.064 72.5041 157.256 72.5041 157.48V163H70.4561V157.928C70.4561 156.733 70.0081 156.136 69.1121 156.136C68.9201 156.136 68.7281 156.168 68.5361 156.232C68.3548 156.285 68.1895 156.371 68.0401 156.488C67.9015 156.595 67.7841 156.733 67.6881 156.904C67.6028 157.064 67.5601 157.256 67.5601 157.48V163H65.5121ZM84.5205 153.432C84.0938 153.432 83.7845 153.336 83.5925 153.144C83.4112 152.952 83.3205 152.707 83.3205 152.408V152.088C83.3205 151.789 83.4112 151.544 83.5925 151.352C83.7845 151.16 84.0938 151.064 84.5205 151.064C84.9365 151.064 85.2405 151.16 85.4325 151.352C85.6245 151.544 85.7205 151.789 85.7205 152.088V152.408C85.7205 152.707 85.6245 152.952 85.4325 153.144C85.2405 153.336 84.9365 153.432 84.5205 153.432ZM83.4965 154.648H85.5445V163H83.4965V154.648ZM87.9184 154.648H89.9664V156.024H90.0304C90.1797 155.544 90.4624 155.165 90.8784 154.888C91.2944 154.6 91.7797 154.456 92.3344 154.456C93.401 154.456 94.2117 154.835 94.7664 155.592C95.3317 156.339 95.6144 157.411 95.6144 158.808C95.6144 160.216 95.3317 161.299 94.7664 162.056C94.2117 162.813 93.401 163.192 92.3344 163.192C91.7797 163.192 91.2944 163.048 90.8784 162.76C90.473 162.472 90.1904 162.088 90.0304 161.608H89.9664V166.2H87.9184V154.648ZM91.6784 161.496C92.2117 161.496 92.6437 161.32 92.9744 160.968C93.305 160.616 93.4704 160.141 93.4704 159.544V158.104C93.4704 157.507 93.305 157.032 92.9744 156.68C92.6437 156.317 92.2117 156.136 91.6784 156.136C91.1877 156.136 90.777 156.259 90.4464 156.504C90.1264 156.749 89.9664 157.075 89.9664 157.48V160.136C89.9664 160.573 90.1264 160.909 90.4464 161.144C90.777 161.379 91.1877 161.496 91.6784 161.496ZM100.248 163.192C99.4481 163.192 98.7761 163.059 98.2321 162.792C97.6881 162.515 97.2081 162.136 96.7921 161.656L98.0401 160.44C98.3495 160.792 98.6855 161.069 99.0481 161.272C99.4215 161.475 99.8481 161.576 100.328 161.576C100.819 161.576 101.171 161.491 101.384 161.32C101.608 161.149 101.72 160.915 101.72 160.616C101.72 160.371 101.64 160.179 101.48 160.04C101.331 159.891 101.069 159.789 100.696 159.736L99.8641 159.624C98.9575 159.507 98.2641 159.251 97.7841 158.856C97.3148 158.451 97.0801 157.864 97.0801 157.096C97.0801 156.691 97.1548 156.328 97.3041 156.008C97.4535 155.677 97.6668 155.4 97.9441 155.176C98.2215 154.941 98.5521 154.765 98.9361 154.648C99.3308 154.52 99.7681 154.456 100.248 154.456C100.653 154.456 101.011 154.488 101.32 154.552C101.64 154.605 101.928 154.691 102.184 154.808C102.44 154.915 102.675 155.053 102.888 155.224C103.101 155.384 103.309 155.565 103.512 155.768L102.312 156.968C102.067 156.712 101.773 156.499 101.432 156.328C101.091 156.157 100.717 156.072 100.312 156.072C99.8641 156.072 99.5388 156.152 99.3361 156.312C99.1441 156.472 99.0481 156.68 99.0481 156.936C99.0481 157.213 99.1281 157.427 99.2881 157.576C99.4588 157.715 99.7415 157.816 100.136 157.88L100.984 157.992C102.787 158.248 103.688 159.069 103.688 160.456C103.688 160.861 103.603 161.235 103.432 161.576C103.272 161.907 103.043 162.195 102.744 162.44C102.445 162.675 102.083 162.861 101.656 163C101.24 163.128 100.771 163.192 100.248 163.192ZM110.489 161.608H110.409C110.334 161.821 110.233 162.024 110.105 162.216C109.987 162.397 109.833 162.563 109.641 162.712C109.459 162.861 109.235 162.979 108.969 163.064C108.713 163.149 108.414 163.192 108.073 163.192C107.209 163.192 106.547 162.909 106.089 162.344C105.63 161.779 105.401 160.973 105.401 159.928V154.648H107.449V159.72C107.449 160.296 107.561 160.739 107.785 161.048C108.009 161.347 108.366 161.496 108.857 161.496C109.059 161.496 109.257 161.469 109.449 161.416C109.651 161.363 109.827 161.283 109.977 161.176C110.126 161.059 110.249 160.92 110.345 160.76C110.441 160.589 110.489 160.392 110.489 160.168V154.648H112.536V163H110.489V161.608ZM114.903 163V154.648H116.951V156.04H117.031C117.191 155.603 117.447 155.229 117.799 154.92C118.151 154.611 118.641 154.456 119.271 154.456C119.847 154.456 120.343 154.595 120.759 154.872C121.175 155.149 121.484 155.571 121.687 156.136H121.719C121.868 155.667 122.161 155.272 122.599 154.952C123.047 154.621 123.607 154.456 124.279 154.456C125.1 154.456 125.729 154.739 126.167 155.304C126.615 155.869 126.839 156.675 126.839 157.72V163H124.791V157.928C124.791 156.733 124.343 156.136 123.447 156.136C123.244 156.136 123.047 156.168 122.855 156.232C122.673 156.285 122.508 156.371 122.359 156.488C122.22 156.595 122.108 156.733 122.023 156.904C121.937 157.064 121.895 157.256 121.895 157.48V163H119.847V157.928C119.847 156.733 119.399 156.136 118.503 156.136C118.311 156.136 118.119 156.168 117.927 156.232C117.745 156.285 117.58 156.371 117.431 156.488C117.292 156.595 117.175 156.733 117.079 156.904C116.993 157.064 116.951 157.256 116.951 157.48V163H114.903Z" fill="#1A1A1A"/>
<rect x="32.5" y="271.5" width="319" height="39" rx="3.5" stroke="#747474"/>
<path d="M33.312 246.832H37.376C38.1013 246.832 38.7573 246.949 39.344 247.184C39.9413 247.419 40.448 247.771 40.864 248.24C41.2907 248.699 41.616 249.28 41.84 249.984C42.0747 250.677 42.192 251.488 42.192 252.416C42.192 253.344 42.0747 254.16 41.84 254.864C41.616 255.557 41.2907 256.139 40.864 256.608C40.448 257.067 39.9413 257.413 39.344 257.648C38.7573 257.883 38.1013 258 37.376 258H33.312V246.832ZM37.376 256.128C38.1653 256.128 38.7893 255.899 39.248 255.44C39.7173 254.971 39.952 254.256 39.952 253.296V251.536C39.952 250.576 39.7173 249.867 39.248 249.408C38.7893 248.939 38.1653 248.704 37.376 248.704H35.424V256.128H37.376ZM47.5273 258.192C46.9299 258.192 46.3913 258.091 45.9113 257.888C45.4419 257.685 45.0366 257.392 44.6953 257.008C44.3646 256.624 44.1086 256.165 43.9273 255.632C43.7459 255.088 43.6553 254.48 43.6553 253.808C43.6553 253.136 43.7459 252.533 43.9273 252C44.1086 251.467 44.3646 251.013 44.6953 250.64C45.0366 250.256 45.4419 249.963 45.9113 249.76C46.3913 249.557 46.9299 249.456 47.5273 249.456C48.1246 249.456 48.6633 249.557 49.1433 249.76C49.6233 249.963 50.0286 250.256 50.3593 250.64C50.7006 251.013 50.9619 251.467 51.1433 252C51.3246 252.533 51.4153 253.136 51.4153 253.808C51.4153 254.48 51.3246 255.088 51.1433 255.632C50.9619 256.165 50.7006 256.624 50.3593 257.008C50.0286 257.392 49.6233 257.685 49.1433 257.888C48.6633 258.091 48.1246 258.192 47.5273 258.192ZM47.5273 256.544C48.0713 256.544 48.4979 256.379 48.8073 256.048C49.1166 255.717 49.2713 255.232 49.2713 254.592V253.04C49.2713 252.411 49.1166 251.931 48.8073 251.6C48.4979 251.269 48.0713 251.104 47.5273 251.104C46.9939 251.104 46.5726 251.269 46.2633 251.6C45.9539 251.931 45.7993 252.411 45.7993 253.04V254.592C45.7993 255.232 45.9539 255.717 46.2633 256.048C46.5726 256.379 46.9939 256.544 47.5273 256.544ZM55.2789 258C54.5749 258 54.0575 257.824 53.7269 257.472C53.3962 257.12 53.2309 256.624 53.2309 255.984V246.16H55.2789V256.368H56.3829V258H55.2789ZM61.246 258.192C60.6487 258.192 60.11 258.091 59.63 257.888C59.1607 257.685 58.7553 257.392 58.414 257.008C58.0833 256.624 57.8273 256.165 57.646 255.632C57.4647 255.088 57.374 254.48 57.374 253.808C57.374 253.136 57.4647 252.533 57.646 252C57.8273 251.467 58.0833 251.013 58.414 250.64C58.7553 250.256 59.1607 249.963 59.63 249.76C60.11 249.557 60.6487 249.456 61.246 249.456C61.8433 249.456 62.382 249.557 62.862 249.76C63.342 249.963 63.7473 250.256 64.078 250.64C64.4193 251.013 64.6807 251.467 64.862 252C65.0433 252.533 65.134 253.136 65.134 253.808C65.134 254.48 65.0433 255.088 64.862 255.632C64.6807 256.165 64.4193 256.624 64.078 257.008C63.7473 257.392 63.342 257.685 62.862 257.888C62.382 258.091 61.8433 258.192 61.246 258.192ZM61.246 256.544C61.79 256.544 62.2167 256.379 62.526 256.048C62.8353 255.717 62.99 255.232 62.99 254.592V253.04C62.99 252.411 62.8353 251.931 62.526 251.6C62.2167 251.269 61.79 251.104 61.246 251.104C60.7127 251.104 60.2913 251.269 59.982 251.6C59.6727 251.931 59.518 252.411 59.518 253.04V254.592C59.518 255.232 59.6727 255.717 59.982 256.048C60.2913 256.379 60.7127 256.544 61.246 256.544ZM66.9496 258V249.648H68.9976V251.376H69.0776C69.131 251.152 69.211 250.939 69.3176 250.736C69.435 250.523 69.5843 250.336 69.7656 250.176C69.947 250.016 70.1603 249.888 70.4056 249.792C70.6616 249.696 70.955 249.648 71.2856 249.648H71.7336V251.584H71.0936C70.4003 251.584 69.8776 251.685 69.5256 251.888C69.1736 252.091 68.9976 252.421 68.9976 252.88V258H66.9496ZM79.7481 258.192C78.9481 258.192 78.2761 258.059 77.7321 257.792C77.1881 257.515 76.7081 257.136 76.2921 256.656L77.5401 255.44C77.8495 255.792 78.1855 256.069 78.5481 256.272C78.9215 256.475 79.3481 256.576 79.8281 256.576C80.3188 256.576 80.6708 256.491 80.8841 256.32C81.1081 256.149 81.2201 255.915 81.2201 255.616C81.2201 255.371 81.1401 255.179 80.9801 255.04C80.8308 254.891 80.5695 254.789 80.1961 254.736L79.3641 254.624C78.4575 254.507 77.7641 254.251 77.2841 253.856C76.8148 253.451 76.5801 252.864 76.5801 252.096C76.5801 251.691 76.6548 251.328 76.8041 251.008C76.9535 250.677 77.1668 250.4 77.4441 250.176C77.7215 249.941 78.0521 249.765 78.4361 249.648C78.8308 249.52 79.2681 249.456 79.7481 249.456C80.1535 249.456 80.5108 249.488 80.8201 249.552C81.1401 249.605 81.4281 249.691 81.6841 249.808C81.9401 249.915 82.1748 250.053 82.3881 250.224C82.6015 250.384 82.8095 250.565 83.0121 250.768L81.8121 251.968C81.5668 251.712 81.2735 251.499 80.9321 251.328C80.5908 251.157 80.2175 251.072 79.8121 251.072C79.3641 251.072 79.0388 251.152 78.8361 251.312C78.6441 251.472 78.5481 251.68 78.5481 251.936C78.5481 252.213 78.6281 252.427 78.7881 252.576C78.9588 252.715 79.2415 252.816 79.6361 252.88L80.4841 252.992C82.2868 253.248 83.1881 254.069 83.1881 255.456C83.1881 255.861 83.1028 256.235 82.9321 256.576C82.7721 256.907 82.5428 257.195 82.2441 257.44C81.9455 257.675 81.5828 257.861 81.1561 258C80.7401 258.128 80.2708 258.192 79.7481 258.192ZM86.0205 248.432C85.5938 248.432 85.2845 248.336 85.0925 248.144C84.9112 247.952 84.8205 247.707 84.8205 247.408V247.088C84.8205 246.789 84.9112 246.544 85.0925 246.352C85.2845 246.16 85.5938 246.064 86.0205 246.064C86.4365 246.064 86.7405 246.16 86.9325 246.352C87.1245 246.544 87.2205 246.789 87.2205 247.088V247.408C87.2205 247.707 87.1245 247.952 86.9325 248.144C86.7405 248.336 86.4365 248.432 86.0205 248.432ZM84.9965 249.648H87.0445V258H84.9965V249.648ZM92.0264 258C91.3224 258 90.7837 257.819 90.4104 257.456C90.0477 257.083 89.8664 256.555 89.8664 255.872V251.28H88.6344V249.648H89.2744C89.5837 249.648 89.7917 249.579 89.8984 249.44C90.0157 249.291 90.0744 249.072 90.0744 248.784V247.36H91.9144V249.648H93.6264V251.28H91.9144V256.368H93.4984V258H92.0264ZM105.328 258C104.88 258 104.523 257.872 104.256 257.616C104 257.349 103.84 256.997 103.776 256.56H103.68C103.541 257.104 103.259 257.515 102.832 257.792C102.405 258.059 101.877 258.192 101.248 258.192C100.395 258.192 99.7387 257.968 99.28 257.52C98.8213 257.072 98.592 256.475 98.592 255.728C98.592 254.864 98.9013 254.224 99.52 253.808C100.139 253.381 101.019 253.168 102.16 253.168H103.584V252.56C103.584 252.091 103.461 251.728 103.216 251.472C102.971 251.216 102.576 251.088 102.032 251.088C101.552 251.088 101.163 251.195 100.864 251.408C100.576 251.611 100.331 251.856 100.128 252.144L98.912 251.056C99.2213 250.576 99.632 250.192 100.144 249.904C100.656 249.605 101.333 249.456 102.176 249.456C103.307 249.456 104.165 249.712 104.752 250.224C105.339 250.736 105.632 251.472 105.632 252.432V256.368H106.464V258H105.328ZM101.936 256.704C102.395 256.704 102.784 256.603 103.104 256.4C103.424 256.197 103.584 255.899 103.584 255.504V254.4H102.272C101.205 254.4 100.672 254.741 100.672 255.424V255.696C100.672 256.037 100.779 256.293 100.992 256.464C101.216 256.624 101.531 256.704 101.936 256.704ZM108.122 258V249.648H110.17V251.04H110.25C110.41 250.603 110.666 250.229 111.018 249.92C111.37 249.611 111.86 249.456 112.49 249.456C113.066 249.456 113.562 249.595 113.978 249.872C114.394 250.149 114.703 250.571 114.906 251.136H114.938C115.087 250.667 115.38 250.272 115.818 249.952C116.266 249.621 116.826 249.456 117.498 249.456C118.319 249.456 118.948 249.739 119.386 250.304C119.834 250.869 120.058 251.675 120.058 252.72V258H118.01V252.928C118.01 251.733 117.562 251.136 116.666 251.136C116.463 251.136 116.266 251.168 116.074 251.232C115.892 251.285 115.727 251.371 115.578 251.488C115.439 251.595 115.327 251.733 115.242 251.904C115.156 252.064 115.114 252.256 115.114 252.48V258H113.066V252.928C113.066 251.733 112.618 251.136 111.722 251.136C111.53 251.136 111.338 251.168 111.146 251.232C110.964 251.285 110.799 251.371 110.65 251.488C110.511 251.595 110.394 251.733 110.298 251.904C110.212 252.064 110.17 252.256 110.17 252.48V258H108.122ZM125.701 258.192C125.082 258.192 124.527 258.091 124.037 257.888C123.557 257.675 123.146 257.381 122.805 257.008C122.474 256.624 122.218 256.165 122.037 255.632C121.855 255.088 121.765 254.48 121.765 253.808C121.765 253.147 121.85 252.549 122.021 252.016C122.202 251.483 122.458 251.029 122.789 250.656C123.119 250.272 123.525 249.979 124.005 249.776C124.485 249.563 125.029 249.456 125.637 249.456C126.287 249.456 126.853 249.568 127.333 249.792C127.813 250.016 128.207 250.32 128.517 250.704C128.826 251.088 129.055 251.536 129.205 252.048C129.365 252.549 129.445 253.088 129.445 253.664V254.336H123.893V254.544C123.893 255.152 124.063 255.643 124.405 256.016C124.746 256.379 125.253 256.56 125.925 256.56C126.437 256.56 126.853 256.453 127.173 256.24C127.503 256.027 127.797 255.755 128.053 255.424L129.157 256.656C128.815 257.136 128.346 257.515 127.749 257.792C127.162 258.059 126.479 258.192 125.701 258.192ZM125.669 250.992C125.125 250.992 124.693 251.173 124.373 251.536C124.053 251.899 123.893 252.368 123.893 252.944V253.072H127.317V252.928C127.317 252.352 127.173 251.888 126.885 251.536C126.607 251.173 126.202 250.992 125.669 250.992ZM133.855 258C133.151 258 132.612 257.819 132.239 257.456C131.876 257.083 131.695 256.555 131.695 255.872V251.28H130.463V249.648H131.103C131.412 249.648 131.62 249.579 131.727 249.44C131.844 249.291 131.903 249.072 131.903 248.784V247.36H133.743V249.648H135.455V251.28H133.743V256.368H135.327V258H133.855ZM144.308 258.192C143.689 258.192 143.14 258.091 142.66 257.888C142.18 257.685 141.775 257.392 141.444 257.008C141.124 256.624 140.879 256.165 140.708 255.632C140.537 255.088 140.452 254.48 140.452 253.808C140.452 253.136 140.537 252.533 140.708 252C140.879 251.467 141.124 251.013 141.444 250.64C141.775 250.256 142.18 249.963 142.66 249.76C143.14 249.557 143.689 249.456 144.308 249.456C145.151 249.456 145.844 249.643 146.388 250.016C146.943 250.389 147.343 250.907 147.588 251.568L145.908 252.32C145.812 251.968 145.631 251.68 145.364 251.456C145.108 251.221 144.756 251.104 144.308 251.104C143.732 251.104 143.3 251.285 143.012 251.648C142.735 252.011 142.596 252.485 142.596 253.072V254.592C142.596 255.179 142.735 255.653 143.012 256.016C143.3 256.368 143.732 256.544 144.308 256.544C144.799 256.544 145.177 256.421 145.444 256.176C145.711 255.92 145.919 255.605 146.068 255.232L147.636 255.984C147.359 256.72 146.937 257.275 146.372 257.648C145.807 258.011 145.119 258.192 144.308 258.192ZM152.449 258.192C151.852 258.192 151.313 258.091 150.833 257.888C150.364 257.685 149.958 257.392 149.617 257.008C149.286 256.624 149.03 256.165 148.849 255.632C148.668 255.088 148.577 254.48 148.577 253.808C148.577 253.136 148.668 252.533 148.849 252C149.03 251.467 149.286 251.013 149.617 250.64C149.958 250.256 150.364 249.963 150.833 249.76C151.313 249.557 151.852 249.456 152.449 249.456C153.046 249.456 153.585 249.557 154.065 249.76C154.545 249.963 154.95 250.256 155.281 250.64C155.622 251.013 155.884 251.467 156.065 252C156.246 252.533 156.337 253.136 156.337 253.808C156.337 254.48 156.246 255.088 156.065 255.632C155.884 256.165 155.622 256.624 155.281 257.008C154.95 257.392 154.545 257.685 154.065 257.888C153.585 258.091 153.046 258.192 152.449 258.192ZM152.449 256.544C152.993 256.544 153.42 256.379 153.729 256.048C154.038 255.717 154.193 255.232 154.193 254.592V253.04C154.193 252.411 154.038 251.931 153.729 251.6C153.42 251.269 152.993 251.104 152.449 251.104C151.916 251.104 151.494 251.269 151.185 251.6C150.876 251.931 150.721 252.411 150.721 253.04V254.592C150.721 255.232 150.876 255.717 151.185 256.048C151.494 256.379 151.916 256.544 152.449 256.544ZM158.153 258V249.648H160.201V251.04H160.281C160.451 250.592 160.718 250.219 161.081 249.92C161.454 249.611 161.966 249.456 162.617 249.456C163.481 249.456 164.142 249.739 164.601 250.304C165.059 250.869 165.289 251.675 165.289 252.72V258H163.241V252.928C163.241 252.331 163.134 251.883 162.921 251.584C162.707 251.285 162.355 251.136 161.865 251.136C161.651 251.136 161.443 251.168 161.241 251.232C161.049 251.285 160.873 251.371 160.713 251.488C160.563 251.595 160.441 251.733 160.345 251.904C160.249 252.064 160.201 252.256 160.201 252.48V258H158.153ZM170.295 258.192C169.495 258.192 168.823 258.059 168.279 257.792C167.735 257.515 167.255 257.136 166.839 256.656L168.087 255.44C168.396 255.792 168.732 256.069 169.095 256.272C169.468 256.475 169.895 256.576 170.375 256.576C170.866 256.576 171.218 256.491 171.431 256.32C171.655 256.149 171.767 255.915 171.767 255.616C171.767 255.371 171.687 255.179 171.527 255.04C171.378 254.891 171.116 254.789 170.743 254.736L169.911 254.624C169.004 254.507 168.311 254.251 167.831 253.856C167.362 253.451 167.127 252.864 167.127 252.096C167.127 251.691 167.202 251.328 167.351 251.008C167.5 250.677 167.714 250.4 167.991 250.176C168.268 249.941 168.599 249.765 168.983 249.648C169.378 249.52 169.815 249.456 170.295 249.456C170.7 249.456 171.058 249.488 171.367 249.552C171.687 249.605 171.975 249.691 172.231 249.808C172.487 249.915 172.722 250.053 172.935 250.224C173.148 250.384 173.356 250.565 173.559 250.768L172.359 251.968C172.114 251.712 171.82 251.499 171.479 251.328C171.138 251.157 170.764 251.072 170.359 251.072C169.911 251.072 169.586 251.152 169.383 251.312C169.191 251.472 169.095 251.68 169.095 251.936C169.095 252.213 169.175 252.427 169.335 252.576C169.506 252.715 169.788 252.816 170.183 252.88L171.031 252.992C172.834 253.248 173.735 254.069 173.735 255.456C173.735 255.861 173.65 256.235 173.479 256.576C173.319 256.907 173.09 257.195 172.791 257.44C172.492 257.675 172.13 257.861 171.703 258C171.287 258.128 170.818 258.192 170.295 258.192ZM178.919 258.192C178.301 258.192 177.746 258.091 177.255 257.888C176.775 257.675 176.365 257.381 176.023 257.008C175.693 256.624 175.437 256.165 175.255 255.632C175.074 255.088 174.983 254.48 174.983 253.808C174.983 253.147 175.069 252.549 175.239 252.016C175.421 251.483 175.677 251.029 176.007 250.656C176.338 250.272 176.743 249.979 177.223 249.776C177.703 249.563 178.247 249.456 178.855 249.456C179.506 249.456 180.071 249.568 180.551 249.792C181.031 250.016 181.426 250.32 181.735 250.704C182.045 251.088 182.274 251.536 182.423 252.048C182.583 252.549 182.663 253.088 182.663 253.664V254.336H177.111V254.544C177.111 255.152 177.282 255.643 177.623 256.016C177.965 256.379 178.471 256.56 179.143 256.56C179.655 256.56 180.071 256.453 180.391 256.24C180.722 256.027 181.015 255.755 181.271 255.424L182.375 256.656C182.034 257.136 181.565 257.515 180.967 257.792C180.381 258.059 179.698 258.192 178.919 258.192ZM178.887 250.992C178.343 250.992 177.911 251.173 177.591 251.536C177.271 251.899 177.111 252.368 177.111 252.944V253.072H180.535V252.928C180.535 252.352 180.391 251.888 180.103 251.536C179.826 251.173 179.421 250.992 178.887 250.992ZM187.761 258.192C187.143 258.192 186.593 258.091 186.113 257.888C185.633 257.685 185.228 257.392 184.897 257.008C184.577 256.624 184.332 256.165 184.161 255.632C183.991 255.088 183.905 254.48 183.905 253.808C183.905 253.136 183.991 252.533 184.161 252C184.332 251.467 184.577 251.013 184.897 250.64C185.228 250.256 185.633 249.963 186.113 249.76C186.593 249.557 187.143 249.456 187.761 249.456C188.604 249.456 189.297 249.643 189.841 250.016C190.396 250.389 190.796 250.907 191.041 251.568L189.361 252.32C189.265 251.968 189.084 251.68 188.817 251.456C188.561 251.221 188.209 251.104 187.761 251.104C187.185 251.104 186.753 251.285 186.465 251.648C186.188 252.011 186.049 252.485 186.049 253.072V254.592C186.049 255.179 186.188 255.653 186.465 256.016C186.753 256.368 187.185 256.544 187.761 256.544C188.252 256.544 188.631 256.421 188.897 256.176C189.164 255.92 189.372 255.605 189.521 255.232L191.089 255.984C190.812 256.72 190.391 257.275 189.825 257.648C189.26 258.011 188.572 258.192 187.761 258.192ZM195.276 258C194.572 258 194.034 257.819 193.66 257.456C193.298 257.083 193.116 256.555 193.116 255.872V251.28H191.884V249.648H192.524C192.834 249.648 193.042 249.579 193.148 249.44C193.266 249.291 193.324 249.072 193.324 248.784V247.36H195.164V249.648H196.876V251.28H195.164V256.368H196.748V258H195.276ZM201.966 258.192C201.348 258.192 200.793 258.091 200.302 257.888C199.822 257.675 199.412 257.381 199.07 257.008C198.74 256.624 198.484 256.165 198.302 255.632C198.121 255.088 198.03 254.48 198.03 253.808C198.03 253.147 198.116 252.549 198.286 252.016C198.468 251.483 198.724 251.029 199.054 250.656C199.385 250.272 199.79 249.979 200.27 249.776C200.75 249.563 201.294 249.456 201.902 249.456C202.553 249.456 203.118 249.568 203.598 249.792C204.078 250.016 204.473 250.32 204.782 250.704C205.092 251.088 205.321 251.536 205.47 252.048C205.63 252.549 205.71 253.088 205.71 253.664V254.336H200.158V254.544C200.158 255.152 200.329 255.643 200.67 256.016C201.012 256.379 201.518 256.56 202.19 256.56C202.702 256.56 203.118 256.453 203.438 256.24C203.769 256.027 204.062 255.755 204.318 255.424L205.422 256.656C205.081 257.136 204.612 257.515 204.014 257.792C203.428 258.059 202.745 258.192 201.966 258.192ZM201.934 250.992C201.39 250.992 200.958 251.173 200.638 251.536C200.318 251.899 200.158 252.368 200.158 252.944V253.072H203.582V252.928C203.582 252.352 203.438 251.888 203.15 251.536C202.873 251.173 202.468 250.992 201.934 250.992ZM210.12 258C209.416 258 208.877 257.819 208.504 257.456C208.141 257.083 207.96 256.555 207.96 255.872V251.28H206.728V249.648H207.368C207.677 249.648 207.885 249.579 207.992 249.44C208.109 249.291 208.168 249.072 208.168 248.784V247.36H210.008V249.648H211.72V251.28H210.008V256.368H211.592V258H210.12ZM218.489 256.608H218.409C218.334 256.821 218.233 257.024 218.105 257.216C217.987 257.397 217.833 257.563 217.641 257.712C217.459 257.861 217.235 257.979 216.969 258.064C216.713 258.149 216.414 258.192 216.073 258.192C215.209 258.192 214.547 257.909 214.089 257.344C213.63 256.779 213.401 255.973 213.401 254.928V249.648H215.449V254.72C215.449 255.296 215.561 255.739 215.785 256.048C216.009 256.347 216.366 256.496 216.857 256.496C217.059 256.496 217.257 256.469 217.449 256.416C217.651 256.363 217.827 256.283 217.977 256.176C218.126 256.059 218.249 255.92 218.345 255.76C218.441 255.589 218.489 255.392 218.489 255.168V249.648H220.536V258H218.489V256.608ZM222.903 258V249.648H224.951V251.376H225.031C225.084 251.152 225.164 250.939 225.271 250.736C225.388 250.523 225.537 250.336 225.719 250.176C225.9 250.016 226.113 249.888 226.359 249.792C226.615 249.696 226.908 249.648 227.239 249.648H227.687V251.584H227.047C226.353 251.584 225.831 251.685 225.479 251.888C225.127 252.091 224.951 252.421 224.951 252.88V258H222.903Z" fill="#1A1A1A"/>
<rect x="110" y="57" width="87" height="19" fill="white"/>
</svg>
