<svg width="418" height="387" viewBox="0 0 418 387" fill="none" xmlns="http://www.w3.org/2000/svg">
<g clip-path="url(#clip0_5010_48999)">
<rect width="418" height="387" fill="white"/>
<path d="M18.46 148V127.06H22.42V144.49H30.67V148H18.46ZM39.7816 148.36C38.6616 148.36 37.6516 148.17 36.7516 147.79C35.8716 147.41 35.1116 146.86 34.4716 146.14C33.8516 145.42 33.3716 144.56 33.0316 143.56C32.6916 142.54 32.5216 141.4 32.5216 140.14C32.5216 138.88 32.6916 137.75 33.0316 136.75C33.3716 135.75 33.8516 134.9 34.4716 134.2C35.1116 133.48 35.8716 132.93 36.7516 132.55C37.6516 132.17 38.6616 131.98 39.7816 131.98C40.9016 131.98 41.9116 132.17 42.8116 132.55C43.7116 132.93 44.4716 133.48 45.0916 134.2C45.7316 134.9 46.2216 135.75 46.5616 136.75C46.9016 137.75 47.0716 138.88 47.0716 140.14C47.0716 141.4 46.9016 142.54 46.5616 143.56C46.2216 144.56 45.7316 145.42 45.0916 146.14C44.4716 146.86 43.7116 147.41 42.8116 147.79C41.9116 148.17 40.9016 148.36 39.7816 148.36ZM39.7816 145.27C40.8016 145.27 41.6016 144.96 42.1816 144.34C42.7616 143.72 43.0516 142.81 43.0516 141.61V138.7C43.0516 137.52 42.7616 136.62 42.1816 136C41.6016 135.38 40.8016 135.07 39.7816 135.07C38.7816 135.07 37.9916 135.38 37.4116 136C36.8316 136.62 36.5416 137.52 36.5416 138.7V141.61C36.5416 142.81 36.8316 143.72 37.4116 144.34C37.9916 144.96 38.7816 145.27 39.7816 145.27ZM50.4759 148V132.34H54.3159V135.58H54.4659C54.5659 135.16 54.7159 134.76 54.9159 134.38C55.1359 133.98 55.4159 133.63 55.7559 133.33C56.0959 133.03 56.4959 132.79 56.9559 132.61C57.4359 132.43 57.9859 132.34 58.6059 132.34H59.4459V135.97H58.2459C56.9459 135.97 55.9659 136.16 55.3059 136.54C54.6459 136.92 54.3159 137.54 54.3159 138.4V148H50.4759ZM68.4367 148.36C67.2767 148.36 66.2367 148.17 65.3167 147.79C64.4167 147.39 63.6467 146.84 63.0067 146.14C62.3867 145.42 61.9067 144.56 61.5667 143.56C61.2267 142.54 61.0567 141.4 61.0567 140.14C61.0567 138.9 61.2167 137.78 61.5367 136.78C61.8767 135.78 62.3567 134.93 62.9767 134.23C63.5967 133.51 64.3567 132.96 65.2567 132.58C66.1567 132.18 67.1767 131.98 68.3167 131.98C69.5367 131.98 70.5967 132.19 71.4967 132.61C72.3967 133.03 73.1367 133.6 73.7167 134.32C74.2967 135.04 74.7267 135.88 75.0067 136.84C75.3067 137.78 75.4567 138.79 75.4567 139.87V141.13H65.0467V141.52C65.0467 142.66 65.3667 143.58 66.0067 144.28C66.6467 144.96 67.5967 145.3 68.8567 145.3C69.8167 145.3 70.5967 145.1 71.1967 144.7C71.8167 144.3 72.3667 143.79 72.8467 143.17L74.9167 145.48C74.2767 146.38 73.3967 147.09 72.2767 147.61C71.1767 148.11 69.8967 148.36 68.4367 148.36ZM68.3767 134.86C67.3567 134.86 66.5467 135.2 65.9467 135.88C65.3467 136.56 65.0467 137.44 65.0467 138.52V138.76H71.4667V138.49C71.4667 137.41 71.1967 136.54 70.6567 135.88C70.1367 135.2 69.3767 134.86 68.3767 134.86ZM78.8352 148V132.34H82.6752V134.95H82.8252C83.1252 134.13 83.6052 133.43 84.2652 132.85C84.9252 132.27 85.8452 131.98 87.0252 131.98C88.1052 131.98 89.0352 132.24 89.8152 132.76C90.5952 133.28 91.1752 134.07 91.5552 135.13H91.6152C91.8952 134.25 92.4452 133.51 93.2652 132.91C94.1052 132.29 95.1552 131.98 96.4152 131.98C97.9552 131.98 99.1352 132.51 99.9552 133.57C100.795 134.63 101.215 136.14 101.215 138.1V148H97.3752V138.49C97.3752 136.25 96.5352 135.13 94.8552 135.13C94.4752 135.13 94.1052 135.19 93.7452 135.31C93.4052 135.41 93.0952 135.57 92.8152 135.79C92.5552 135.99 92.3452 136.25 92.1852 136.57C92.0252 136.87 91.9452 137.23 91.9452 137.65V148H88.1052V138.49C88.1052 136.25 87.2652 135.13 85.5852 135.13C85.2252 135.13 84.8652 135.19 84.5052 135.31C84.1652 135.41 83.8552 135.57 83.5752 135.79C83.3152 135.99 83.0952 136.25 82.9152 136.57C82.7552 136.87 82.6752 137.23 82.6752 137.65V148H78.8352ZM114.476 130.06C113.676 130.06 113.096 129.88 112.736 129.52C112.396 129.16 112.226 128.7 112.226 128.14V127.54C112.226 126.98 112.396 126.52 112.736 126.16C113.096 125.8 113.676 125.62 114.476 125.62C115.256 125.62 115.826 125.8 116.186 126.16C116.546 126.52 116.726 126.98 116.726 127.54V128.14C116.726 128.7 116.546 129.16 116.186 129.52C115.826 129.88 115.256 130.06 114.476 130.06ZM112.556 132.34H116.396V148H112.556V132.34ZM120.847 132.34H124.687V134.92H124.807C125.087 134.02 125.617 133.31 126.397 132.79C127.177 132.25 128.087 131.98 129.127 131.98C131.127 131.98 132.647 132.69 133.687 134.11C134.747 135.51 135.277 137.52 135.277 140.14C135.277 142.78 134.747 144.81 133.687 146.23C132.647 147.65 131.127 148.36 129.127 148.36C128.087 148.36 127.177 148.09 126.397 147.55C125.637 147.01 125.107 146.29 124.807 145.39H124.687V154H120.847V132.34ZM127.897 145.18C128.897 145.18 129.707 144.85 130.327 144.19C130.947 143.53 131.257 142.64 131.257 141.52V138.82C131.257 137.7 130.947 136.81 130.327 136.15C129.707 135.47 128.897 135.13 127.897 135.13C126.977 135.13 126.207 135.36 125.587 135.82C124.987 136.28 124.687 136.89 124.687 137.65V142.63C124.687 143.45 124.987 144.08 125.587 144.52C126.207 144.96 126.977 145.18 127.897 145.18ZM143.965 148.36C142.465 148.36 141.205 148.11 140.185 147.61C139.165 147.09 138.265 146.38 137.485 145.48L139.825 143.2C140.405 143.86 141.035 144.38 141.715 144.76C142.415 145.14 143.215 145.33 144.115 145.33C145.035 145.33 145.695 145.17 146.095 144.85C146.515 144.53 146.725 144.09 146.725 143.53C146.725 143.07 146.575 142.71 146.275 142.45C145.995 142.17 145.505 141.98 144.805 141.88L143.245 141.67C141.545 141.45 140.245 140.97 139.345 140.23C138.465 139.47 138.025 138.37 138.025 136.93C138.025 136.17 138.165 135.49 138.445 134.89C138.725 134.27 139.125 133.75 139.645 133.33C140.165 132.89 140.785 132.56 141.505 132.34C142.245 132.1 143.065 131.98 143.965 131.98C144.725 131.98 145.395 132.04 145.975 132.16C146.575 132.26 147.115 132.42 147.595 132.64C148.075 132.84 148.515 133.1 148.915 133.42C149.315 133.72 149.705 134.06 150.085 134.44L147.835 136.69C147.375 136.21 146.825 135.81 146.185 135.49C145.545 135.17 144.845 135.01 144.085 135.01C143.245 135.01 142.635 135.16 142.255 135.46C141.895 135.76 141.715 136.15 141.715 136.63C141.715 137.15 141.865 137.55 142.165 137.83C142.485 138.09 143.015 138.28 143.755 138.4L145.345 138.61C148.725 139.09 150.415 140.63 150.415 143.23C150.415 143.99 150.255 144.69 149.935 145.33C149.635 145.95 149.205 146.49 148.645 146.95C148.085 147.39 147.405 147.74 146.605 148C145.825 148.24 144.945 148.36 143.965 148.36ZM163.166 145.39H163.016C162.876 145.79 162.686 146.17 162.446 146.53C162.226 146.87 161.936 147.18 161.576 147.46C161.236 147.74 160.816 147.96 160.316 148.12C159.836 148.28 159.276 148.36 158.636 148.36C157.016 148.36 155.776 147.83 154.916 146.77C154.056 145.71 153.626 144.2 153.626 142.24V132.34H157.466V141.85C157.466 142.93 157.676 143.76 158.096 144.34C158.516 144.9 159.186 145.18 160.106 145.18C160.486 145.18 160.856 145.13 161.216 145.03C161.596 144.93 161.926 144.78 162.206 144.58C162.486 144.36 162.716 144.1 162.896 143.8C163.076 143.48 163.166 143.11 163.166 142.69V132.34H167.006V148H163.166V145.39ZM171.443 148V132.34H175.283V134.95H175.433C175.733 134.13 176.213 133.43 176.873 132.85C177.533 132.27 178.453 131.98 179.633 131.98C180.713 131.98 181.643 132.24 182.423 132.76C183.203 133.28 183.783 134.07 184.163 135.13H184.223C184.503 134.25 185.053 133.51 185.873 132.91C186.713 132.29 187.763 131.98 189.023 131.98C190.563 131.98 191.743 132.51 192.563 133.57C193.403 134.63 193.823 136.14 193.823 138.1V148H189.983V138.49C189.983 136.25 189.143 135.13 187.463 135.13C187.083 135.13 186.713 135.19 186.353 135.31C186.013 135.41 185.703 135.57 185.423 135.79C185.163 135.99 184.953 136.25 184.793 136.57C184.633 136.87 184.553 137.23 184.553 137.65V148H180.713V138.49C180.713 136.25 179.873 135.13 178.193 135.13C177.833 135.13 177.473 135.19 177.113 135.31C176.773 135.41 176.463 135.57 176.183 135.79C175.923 135.99 175.703 136.25 175.523 136.57C175.363 136.87 175.283 137.23 175.283 137.65V148H171.443Z" fill="#1A1A1A"/>
<rect x="16.5" y="215.5" width="319" height="39" rx="3.5" stroke="#747474"/>
<path d="M36.416 234.512L34.832 236.272V240H33.488V228.832H34.832V234.768H34.88L36.48 232.832L39.856 228.832H41.504L37.344 233.616L41.792 240H40.128L36.416 234.512ZM44.1406 229.808C43.8633 229.808 43.6606 229.744 43.5326 229.616C43.4153 229.477 43.3566 229.301 43.3566 229.088V228.88C43.3566 228.667 43.4153 228.496 43.5326 228.368C43.6606 228.229 43.8633 228.16 44.1406 228.16C44.418 228.16 44.6153 228.229 44.7326 228.368C44.8606 228.496 44.9246 228.667 44.9246 228.88V229.088C44.9246 229.301 44.8606 229.477 44.7326 229.616C44.6153 229.744 44.418 229.808 44.1406 229.808ZM43.5006 231.744H44.7806V240H43.5006V231.744ZM47.5006 240V231.744H48.7806V233.264H48.8606C49.01 232.869 49.2766 232.517 49.6606 232.208C50.0446 231.899 50.5726 231.744 51.2446 231.744H51.7406V233.024H50.9886C50.2953 233.024 49.7513 233.157 49.3566 233.424C48.9726 233.68 48.7806 234.005 48.7806 234.4V240H47.5006ZM55.8556 240.192C55.0876 240.192 54.4423 240.048 53.9196 239.76C53.4076 239.461 52.965 239.067 52.5916 238.576L53.5036 237.84C53.8236 238.245 54.181 238.56 54.5756 238.784C54.9703 238.997 55.429 239.104 55.9516 239.104C56.4956 239.104 56.917 238.987 57.2156 238.752C57.525 238.517 57.6796 238.187 57.6796 237.76C57.6796 237.44 57.573 237.168 57.3596 236.944C57.157 236.709 56.7836 236.549 56.2396 236.464L55.5836 236.368C55.1996 236.315 54.8476 236.235 54.5276 236.128C54.2076 236.011 53.925 235.861 53.6796 235.68C53.445 235.488 53.2583 235.253 53.1196 234.976C52.9916 234.699 52.9276 234.368 52.9276 233.984C52.9276 233.579 53.0023 233.227 53.1516 232.928C53.301 232.619 53.5036 232.363 53.7596 232.16C54.0263 231.957 54.341 231.808 54.7036 231.712C55.0663 231.605 55.4556 231.552 55.8716 231.552C56.5436 231.552 57.1036 231.669 57.5516 231.904C58.0103 232.139 58.4103 232.464 58.7516 232.88L57.9036 233.648C57.7223 233.392 57.4556 233.163 57.1036 232.96C56.7516 232.747 56.309 232.64 55.7756 232.64C55.2423 232.64 54.837 232.757 54.5596 232.992C54.293 233.216 54.1596 233.525 54.1596 233.92C54.1596 234.325 54.293 234.619 54.5596 234.8C54.837 234.981 55.2316 235.115 55.7436 235.2L56.3836 235.296C57.301 235.435 57.9516 235.701 58.3356 236.096C58.7196 236.48 58.9116 236.987 58.9116 237.616C58.9116 238.416 58.6396 239.045 58.0956 239.504C57.5516 239.963 56.805 240.192 55.8556 240.192ZM62.8871 240C62.4391 240 62.0978 239.877 61.8631 239.632C61.6391 239.376 61.5271 239.045 61.5271 238.64V232.864H60.1671V231.744H60.9351C61.2125 231.744 61.3991 231.691 61.4951 231.584C61.6018 231.467 61.6551 231.269 61.6551 230.992V229.456H62.8071V231.744H64.6151V232.864H62.8071V238.88H64.4871V240H62.8871ZM69.714 240.192C69.1487 240.192 68.6367 240.091 68.178 239.888C67.73 239.685 67.3407 239.397 67.01 239.024C66.69 238.64 66.4393 238.187 66.258 237.664C66.0873 237.131 66.002 236.533 66.002 235.872C66.002 235.221 66.0873 234.629 66.258 234.096C66.4393 233.563 66.69 233.109 67.01 232.736C67.3407 232.352 67.73 232.059 68.178 231.856C68.6367 231.653 69.1487 231.552 69.714 231.552C70.2687 231.552 70.7647 231.653 71.202 231.856C71.6393 232.059 72.0127 232.341 72.322 232.704C72.6313 233.056 72.866 233.477 73.026 233.968C73.1967 234.459 73.282 234.997 73.282 235.584V236.192H67.346V236.576C67.346 236.928 67.3993 237.259 67.506 237.568C67.6233 237.867 67.7833 238.128 67.986 238.352C68.1993 238.576 68.4553 238.752 68.754 238.88C69.0633 239.008 69.41 239.072 69.794 239.072C70.3167 239.072 70.77 238.949 71.154 238.704C71.5487 238.459 71.8527 238.107 72.066 237.648L72.978 238.304C72.7113 238.869 72.2953 239.328 71.73 239.68C71.1647 240.021 70.4927 240.192 69.714 240.192ZM69.714 232.624C69.362 232.624 69.042 232.688 68.754 232.816C68.466 232.933 68.2153 233.104 68.002 233.328C67.7993 233.552 67.6393 233.819 67.522 234.128C67.4047 234.427 67.346 234.757 67.346 235.12V235.232H71.906V235.056C71.906 234.32 71.7033 233.733 71.298 233.296C70.9033 232.848 70.3753 232.624 69.714 232.624ZM75.3913 240V231.744H76.6713V233.088H76.7353C76.9379 232.619 77.2206 232.245 77.5833 231.968C77.9566 231.691 78.4526 231.552 79.0713 231.552C79.9246 231.552 80.5966 231.829 81.0873 232.384C81.5886 232.928 81.8393 233.701 81.8393 234.704V240H80.5593V234.928C80.5593 233.445 79.9353 232.704 78.6873 232.704C78.4313 232.704 78.1806 232.736 77.9353 232.8C77.7006 232.864 77.4873 232.96 77.2953 233.088C77.1033 233.216 76.9486 233.381 76.8313 233.584C76.7246 233.776 76.6713 234.005 76.6713 234.272V240H75.3913ZM97.0983 230.592H97.0183L96.0743 232.464L93.4023 237.328L90.7303 232.464L89.7863 230.592H89.7063V240H88.3943V228.832H90.1863L93.3863 234.848H93.4663L96.6823 228.832H98.4103V240H97.0983V230.592ZM100.451 240.096L101.523 238.752C100.979 237.995 100.707 237.035 100.707 235.872C100.707 235.221 100.797 234.629 100.979 234.096C101.16 233.563 101.411 233.109 101.731 232.736C102.061 232.352 102.456 232.059 102.915 231.856C103.373 231.653 103.88 231.552 104.435 231.552C104.883 231.552 105.293 231.621 105.667 231.76C106.051 231.899 106.397 232.091 106.707 232.336L107.699 231.104L108.419 231.648L107.347 233.008C107.603 233.371 107.8 233.797 107.939 234.288C108.088 234.768 108.163 235.296 108.163 235.872C108.163 236.533 108.072 237.131 107.891 237.664C107.709 238.187 107.453 238.64 107.123 239.024C106.792 239.397 106.397 239.685 105.939 239.888C105.491 240.091 104.989 240.192 104.435 240.192C103.549 240.192 102.792 239.936 102.163 239.424L101.171 240.64L100.451 240.096ZM104.435 239.056C105.128 239.056 105.693 238.843 106.131 238.416C106.568 237.989 106.787 237.339 106.787 236.464V235.28C106.787 235.024 106.765 234.789 106.723 234.576C106.68 234.363 106.621 234.165 106.547 233.984L102.867 238.528C103.261 238.88 103.784 239.056 104.435 239.056ZM102.083 236.464C102.083 236.976 102.163 237.413 102.323 237.776L106.003 233.216C105.587 232.864 105.064 232.688 104.435 232.688C103.741 232.688 103.176 232.901 102.739 233.328C102.301 233.755 102.083 234.405 102.083 235.28V236.464ZM110.344 240V231.744H111.624V233.088H111.688C111.891 232.619 112.174 232.245 112.536 231.968C112.91 231.691 113.406 231.552 114.024 231.552C114.878 231.552 115.55 231.829 116.04 232.384C116.542 232.928 116.792 233.701 116.792 234.704V240H115.512V234.928C115.512 233.445 114.888 232.704 113.64 232.704C113.384 232.704 113.134 232.736 112.888 232.8C112.654 232.864 112.44 232.96 112.248 233.088C112.056 233.216 111.902 233.381 111.784 233.584C111.678 233.776 111.624 234.005 111.624 234.272V240H110.344ZM121.918 240.192C121.15 240.192 120.505 240.048 119.982 239.76C119.47 239.461 119.027 239.067 118.654 238.576L119.566 237.84C119.886 238.245 120.243 238.56 120.638 238.784C121.033 238.997 121.491 239.104 122.014 239.104C122.558 239.104 122.979 238.987 123.278 238.752C123.587 238.517 123.742 238.187 123.742 237.76C123.742 237.44 123.635 237.168 123.422 236.944C123.219 236.709 122.846 236.549 122.302 236.464L121.646 236.368C121.262 236.315 120.91 236.235 120.59 236.128C120.27 236.011 119.987 235.861 119.742 235.68C119.507 235.488 119.321 235.253 119.182 234.976C119.054 234.699 118.99 234.368 118.99 233.984C118.99 233.579 119.065 233.227 119.214 232.928C119.363 232.619 119.566 232.363 119.822 232.16C120.089 231.957 120.403 231.808 120.766 231.712C121.129 231.605 121.518 231.552 121.934 231.552C122.606 231.552 123.166 231.669 123.614 231.904C124.073 232.139 124.473 232.464 124.814 232.88L123.966 233.648C123.785 233.392 123.518 233.163 123.166 232.96C122.814 232.747 122.371 232.64 121.838 232.64C121.305 232.64 120.899 232.757 120.622 232.992C120.355 233.216 120.222 233.525 120.222 233.92C120.222 234.325 120.355 234.619 120.622 234.8C120.899 234.981 121.294 235.115 121.806 235.2L122.446 235.296C123.363 235.435 124.014 235.701 124.398 236.096C124.782 236.48 124.974 236.987 124.974 237.616C124.974 238.416 124.702 239.045 124.158 239.504C123.614 239.963 122.867 240.192 121.918 240.192ZM128.95 240C128.502 240 128.16 239.877 127.926 239.632C127.702 239.376 127.59 239.045 127.59 238.64V232.864H126.23V231.744H126.998C127.275 231.744 127.462 231.691 127.558 231.584C127.664 231.467 127.718 231.269 127.718 230.992V229.456H128.87V231.744H130.678V232.864H128.87V238.88H130.55V240H128.95ZM135.777 240.192C135.211 240.192 134.699 240.091 134.241 239.888C133.793 239.685 133.403 239.397 133.073 239.024C132.753 238.64 132.502 238.187 132.321 237.664C132.15 237.131 132.065 236.533 132.065 235.872C132.065 235.221 132.15 234.629 132.321 234.096C132.502 233.563 132.753 233.109 133.073 232.736C133.403 232.352 133.793 232.059 134.241 231.856C134.699 231.653 135.211 231.552 135.777 231.552C136.331 231.552 136.827 231.653 137.265 231.856C137.702 232.059 138.075 232.341 138.385 232.704C138.694 233.056 138.929 233.477 139.089 233.968C139.259 234.459 139.345 234.997 139.345 235.584V236.192H133.409V236.576C133.409 236.928 133.462 237.259 133.569 237.568C133.686 237.867 133.846 238.128 134.049 238.352C134.262 238.576 134.518 238.752 134.817 238.88C135.126 239.008 135.473 239.072 135.857 239.072C136.379 239.072 136.833 238.949 137.217 238.704C137.611 238.459 137.915 238.107 138.129 237.648L139.041 238.304C138.774 238.869 138.358 239.328 137.793 239.68C137.227 240.021 136.555 240.192 135.777 240.192ZM135.777 232.624C135.425 232.624 135.105 232.688 134.817 232.816C134.529 232.933 134.278 233.104 134.065 233.328C133.862 233.552 133.702 233.819 133.585 234.128C133.467 234.427 133.409 234.757 133.409 235.12V235.232H137.969V235.056C137.969 234.32 137.766 233.733 137.361 233.296C136.966 232.848 136.438 232.624 135.777 232.624ZM141.454 240V231.744H142.734V233.264H142.814C142.963 232.869 143.23 232.517 143.614 232.208C143.998 231.899 144.526 231.744 145.198 231.744H145.694V233.024H144.942C144.248 233.024 143.704 233.157 143.31 233.424C142.926 233.68 142.734 234.005 142.734 234.4V240H141.454ZM156.502 228.832V237.104C156.502 237.573 156.422 238 156.262 238.384C156.113 238.768 155.894 239.093 155.606 239.36C155.329 239.627 154.993 239.835 154.598 239.984C154.203 240.123 153.771 240.192 153.302 240.192C152.438 240.192 151.739 239.963 151.206 239.504C150.683 239.035 150.347 238.416 150.198 237.648L151.414 237.36C151.521 237.84 151.723 238.235 152.022 238.544C152.321 238.843 152.758 238.992 153.334 238.992C153.91 238.992 154.358 238.816 154.678 238.464C154.998 238.112 155.158 237.579 155.158 236.864V230.016H151.318V228.832H156.502ZM162.37 240.192C161.805 240.192 161.293 240.091 160.834 239.888C160.386 239.685 159.997 239.397 159.666 239.024C159.346 238.64 159.096 238.187 158.914 237.664C158.744 237.131 158.658 236.533 158.658 235.872C158.658 235.221 158.744 234.629 158.914 234.096C159.096 233.563 159.346 233.109 159.666 232.736C159.997 232.352 160.386 232.059 160.834 231.856C161.293 231.653 161.805 231.552 162.37 231.552C162.925 231.552 163.421 231.653 163.858 231.856C164.296 232.059 164.669 232.341 164.978 232.704C165.288 233.056 165.522 233.477 165.682 233.968C165.853 234.459 165.938 234.997 165.938 235.584V236.192H160.002V236.576C160.002 236.928 160.056 237.259 160.162 237.568C160.28 237.867 160.44 238.128 160.642 238.352C160.856 238.576 161.112 238.752 161.41 238.88C161.72 239.008 162.066 239.072 162.45 239.072C162.973 239.072 163.426 238.949 163.81 238.704C164.205 238.459 164.509 238.107 164.722 237.648L165.634 238.304C165.368 238.869 164.952 239.328 164.386 239.68C163.821 240.021 163.149 240.192 162.37 240.192ZM162.37 232.624C162.018 232.624 161.698 232.688 161.41 232.816C161.122 232.933 160.872 233.104 160.658 233.328C160.456 233.552 160.296 233.819 160.178 234.128C160.061 234.427 160.002 234.757 160.002 235.12V235.232H164.562V235.056C164.562 234.32 164.36 233.733 163.954 233.296C163.56 232.848 163.032 232.624 162.37 232.624ZM168.048 240V231.744H169.328V233.088H169.392C169.594 232.619 169.877 232.245 170.24 231.968C170.613 231.691 171.109 231.552 171.728 231.552C172.581 231.552 173.253 231.829 173.744 232.384C174.245 232.928 174.496 233.701 174.496 234.704V240H173.216V234.928C173.216 233.445 172.592 232.704 171.344 232.704C171.088 232.704 170.837 232.736 170.592 232.8C170.357 232.864 170.144 232.96 169.952 233.088C169.76 233.216 169.605 233.381 169.488 233.584C169.381 233.776 169.328 234.005 169.328 234.272V240H168.048ZM179.621 240.192C178.853 240.192 178.208 240.048 177.685 239.76C177.173 239.461 176.731 239.067 176.357 238.576L177.269 237.84C177.589 238.245 177.947 238.56 178.341 238.784C178.736 238.997 179.195 239.104 179.717 239.104C180.261 239.104 180.683 238.987 180.981 238.752C181.291 238.517 181.445 238.187 181.445 237.76C181.445 237.44 181.339 237.168 181.125 236.944C180.923 236.709 180.549 236.549 180.005 236.464L179.349 236.368C178.965 236.315 178.613 236.235 178.293 236.128C177.973 236.011 177.691 235.861 177.445 235.68C177.211 235.488 177.024 235.253 176.885 234.976C176.757 234.699 176.693 234.368 176.693 233.984C176.693 233.579 176.768 233.227 176.917 232.928C177.067 232.619 177.269 232.363 177.525 232.16C177.792 231.957 178.107 231.808 178.469 231.712C178.832 231.605 179.221 231.552 179.637 231.552C180.309 231.552 180.869 231.669 181.317 231.904C181.776 232.139 182.176 232.464 182.517 232.88L181.669 233.648C181.488 233.392 181.221 233.163 180.869 232.96C180.517 232.747 180.075 232.64 179.541 232.64C179.008 232.64 178.603 232.757 178.325 232.992C178.059 233.216 177.925 233.525 177.925 233.92C177.925 234.325 178.059 234.619 178.325 234.8C178.603 234.981 178.997 235.115 179.509 235.2L180.149 235.296C181.067 235.435 181.717 235.701 182.101 236.096C182.485 236.48 182.677 236.987 182.677 237.616C182.677 238.416 182.405 239.045 181.861 239.504C181.317 239.963 180.571 240.192 179.621 240.192ZM188.042 240.192C187.477 240.192 186.965 240.091 186.506 239.888C186.058 239.685 185.669 239.397 185.338 239.024C185.018 238.64 184.767 238.187 184.586 237.664C184.415 237.131 184.33 236.533 184.33 235.872C184.33 235.221 184.415 234.629 184.586 234.096C184.767 233.563 185.018 233.109 185.338 232.736C185.669 232.352 186.058 232.059 186.506 231.856C186.965 231.653 187.477 231.552 188.042 231.552C188.597 231.552 189.093 231.653 189.53 231.856C189.967 232.059 190.341 232.341 190.65 232.704C190.959 233.056 191.194 233.477 191.354 233.968C191.525 234.459 191.61 234.997 191.61 235.584V236.192H185.674V236.576C185.674 236.928 185.727 237.259 185.834 237.568C185.951 237.867 186.111 238.128 186.314 238.352C186.527 238.576 186.783 238.752 187.082 238.88C187.391 239.008 187.738 239.072 188.122 239.072C188.645 239.072 189.098 238.949 189.482 238.704C189.877 238.459 190.181 238.107 190.394 237.648L191.306 238.304C191.039 238.869 190.623 239.328 190.058 239.68C189.493 240.021 188.821 240.192 188.042 240.192ZM188.042 232.624C187.69 232.624 187.37 232.688 187.082 232.816C186.794 232.933 186.543 233.104 186.33 233.328C186.127 233.552 185.967 233.819 185.85 234.128C185.733 234.427 185.674 234.757 185.674 235.12V235.232H190.234V235.056C190.234 234.32 190.031 233.733 189.626 233.296C189.231 232.848 188.703 232.624 188.042 232.624ZM193.719 240V231.744H194.999V233.088H195.063C195.266 232.619 195.549 232.245 195.911 231.968C196.285 231.691 196.781 231.552 197.399 231.552C198.253 231.552 198.925 231.829 199.415 232.384C199.917 232.928 200.167 233.701 200.167 234.704V240H198.887V234.928C198.887 233.445 198.263 232.704 197.015 232.704C196.759 232.704 196.509 232.736 196.263 232.8C196.029 232.864 195.815 232.96 195.623 233.088C195.431 233.216 195.277 233.381 195.159 233.584C195.053 233.776 194.999 234.005 194.999 234.272V240H193.719Z" fill="#1A1A1A"/>
<path d="M20.512 196.272L19.36 193.952H19.312V202H17.312V190.832H19.632L22.992 196.56L24.144 198.88H24.192V190.832H26.192V202H23.872L20.512 196.272ZM34.828 202C34.38 202 34.0227 201.872 33.756 201.616C33.5 201.349 33.34 200.997 33.276 200.56H33.18C33.0413 201.104 32.7587 201.515 32.332 201.792C31.9053 202.059 31.3773 202.192 30.748 202.192C29.8947 202.192 29.2387 201.968 28.78 201.52C28.3213 201.072 28.092 200.475 28.092 199.728C28.092 198.864 28.4013 198.224 29.02 197.808C29.6387 197.381 30.5187 197.168 31.66 197.168H33.084V196.56C33.084 196.091 32.9613 195.728 32.716 195.472C32.4707 195.216 32.076 195.088 31.532 195.088C31.052 195.088 30.6627 195.195 30.364 195.408C30.076 195.611 29.8307 195.856 29.628 196.144L28.412 195.056C28.7213 194.576 29.132 194.192 29.644 193.904C30.156 193.605 30.8333 193.456 31.676 193.456C32.8067 193.456 33.6653 193.712 34.252 194.224C34.8387 194.736 35.132 195.472 35.132 196.432V200.368H35.964V202H34.828ZM31.436 200.704C31.8947 200.704 32.284 200.603 32.604 200.4C32.924 200.197 33.084 199.899 33.084 199.504V198.4H31.772C30.7053 198.4 30.172 198.741 30.172 199.424V199.696C30.172 200.037 30.2787 200.293 30.492 200.464C30.716 200.624 31.0307 200.704 31.436 200.704ZM39.2729 202L36.4889 193.648H38.5049L39.6729 197.248L40.4889 200.224H40.6009L41.4169 197.248L42.5529 193.648H44.5049L41.7049 202H39.2729ZM45.8715 202V193.648H47.9195V195.04H47.9995C48.1702 194.592 48.4368 194.219 48.7995 193.92C49.1728 193.611 49.6848 193.456 50.3355 193.456C51.1995 193.456 51.8608 193.739 52.3195 194.304C52.7782 194.869 53.0075 195.675 53.0075 196.72V202H50.9595V196.928C50.9595 196.331 50.8528 195.883 50.6395 195.584C50.4262 195.285 50.0742 195.136 49.5835 195.136C49.3702 195.136 49.1622 195.168 48.9595 195.232C48.7675 195.285 48.5915 195.371 48.4315 195.488C48.2822 195.595 48.1595 195.733 48.0635 195.904C47.9675 196.064 47.9195 196.256 47.9195 196.48V202H45.8715Z" fill="#1A1A1A"/>
<rect x="16.5" y="310.5" width="319" height="39" rx="3.5" stroke="#747474"/>
<path d="M17.312 297V285.832H24.672V287.704H19.424V290.408H24.064V292.28H19.424V295.128H24.672V297H17.312ZM26.5218 293.144V291.112H31.0978V293.144H26.5218ZM33.2153 297V288.648H35.2633V290.04H35.3433C35.5033 289.603 35.7593 289.229 36.1113 288.92C36.4633 288.611 36.9539 288.456 37.5833 288.456C38.1593 288.456 38.6553 288.595 39.0713 288.872C39.4873 289.149 39.7966 289.571 39.9993 290.136H40.0312C40.1806 289.667 40.4739 289.272 40.9113 288.952C41.3593 288.621 41.9193 288.456 42.5913 288.456C43.4126 288.456 44.0419 288.739 44.4793 289.304C44.9273 289.869 45.1513 290.675 45.1513 291.72V297H43.1033V291.928C43.1033 290.733 42.6553 290.136 41.7593 290.136C41.5566 290.136 41.3593 290.168 41.1673 290.232C40.9859 290.285 40.8206 290.371 40.6713 290.488C40.5326 290.595 40.4206 290.733 40.3353 290.904C40.2499 291.064 40.2073 291.256 40.2073 291.48V297H38.1593V291.928C38.1593 290.733 37.7113 290.136 36.8153 290.136C36.6233 290.136 36.4313 290.168 36.2393 290.232C36.0579 290.285 35.8926 290.371 35.7433 290.488C35.6046 290.595 35.4873 290.733 35.3913 290.904C35.3059 291.064 35.2633 291.256 35.2633 291.48V297H33.2153ZM53.5624 297C53.1144 297 52.757 296.872 52.4904 296.616C52.2344 296.349 52.0744 295.997 52.0104 295.56H51.9144C51.7757 296.104 51.493 296.515 51.0664 296.792C50.6397 297.059 50.1117 297.192 49.4824 297.192C48.629 297.192 47.973 296.968 47.5144 296.52C47.0557 296.072 46.8264 295.475 46.8264 294.728C46.8264 293.864 47.1357 293.224 47.7544 292.808C48.373 292.381 49.253 292.168 50.3944 292.168H51.8184V291.56C51.8184 291.091 51.6957 290.728 51.4504 290.472C51.205 290.216 50.8104 290.088 50.2664 290.088C49.7864 290.088 49.397 290.195 49.0984 290.408C48.8104 290.611 48.565 290.856 48.3624 291.144L47.1464 290.056C47.4557 289.576 47.8664 289.192 48.3784 288.904C48.8904 288.605 49.5677 288.456 50.4104 288.456C51.541 288.456 52.3997 288.712 52.9864 289.224C53.573 289.736 53.8664 290.472 53.8664 291.432V295.368H54.6984V297H53.5624ZM50.1704 295.704C50.629 295.704 51.0184 295.603 51.3384 295.4C51.6584 295.197 51.8184 294.899 51.8184 294.504V293.4H50.5064C49.4397 293.4 48.9064 293.741 48.9064 294.424V294.696C48.9064 295.037 49.013 295.293 49.2264 295.464C49.4504 295.624 49.765 295.704 50.1704 295.704ZM57.3799 287.432C56.9532 287.432 56.6439 287.336 56.4519 287.144C56.2705 286.952 56.1799 286.707 56.1799 286.408V286.088C56.1799 285.789 56.2705 285.544 56.4519 285.352C56.6439 285.16 56.9532 285.064 57.3799 285.064C57.7959 285.064 58.0999 285.16 58.2919 285.352C58.4839 285.544 58.5799 285.789 58.5799 286.088V286.408C58.5799 286.707 58.4839 286.952 58.2919 287.144C58.0999 287.336 57.7959 287.432 57.3799 287.432ZM56.3559 288.648H58.4039V297H56.3559V288.648ZM62.8258 297C62.1218 297 61.6044 296.824 61.2738 296.472C60.9431 296.12 60.7778 295.624 60.7778 294.984V285.16H62.8258V295.368H63.9298V297H62.8258Z" fill="#1A1A1A"/>
<rect width="378" height="88" transform="translate(16 16)" fill="#FFE0E0"/>
<path d="M24 16H16V104H24V16Z" fill="#CC0000"/>
<path d="M41.312 38.832H45.376C46.1013 38.832 46.7573 38.9493 47.344 39.184C47.9413 39.4187 48.448 39.7707 48.864 40.24C49.2907 40.6987 49.616 41.28 49.84 41.984C50.0747 42.6773 50.192 43.488 50.192 44.416C50.192 45.344 50.0747 46.16 49.84 46.864C49.616 47.5573 49.2907 48.1387 48.864 48.608C48.448 49.0667 47.9413 49.4133 47.344 49.648C46.7573 49.8827 46.1013 50 45.376 50H41.312V38.832ZM45.376 48.128C46.1653 48.128 46.7893 47.8987 47.248 47.44C47.7173 46.9707 47.952 46.256 47.952 45.296V43.536C47.952 42.576 47.7173 41.8667 47.248 41.408C46.7893 40.9387 46.1653 40.704 45.376 40.704H43.424V48.128H45.376ZM55.5913 50.192C54.9726 50.192 54.4179 50.0907 53.9273 49.888C53.4473 49.6747 53.0366 49.3813 52.6953 49.008C52.3646 48.624 52.1086 48.1653 51.9273 47.632C51.7459 47.088 51.6553 46.48 51.6553 45.808C51.6553 45.1467 51.7406 44.5493 51.9113 44.016C52.0926 43.4827 52.3486 43.0293 52.6793 42.656C53.0099 42.272 53.4153 41.9787 53.8953 41.776C54.3753 41.5627 54.9193 41.456 55.5273 41.456C56.1779 41.456 56.7433 41.568 57.2233 41.792C57.7033 42.016 58.0979 42.32 58.4073 42.704C58.7166 43.088 58.9459 43.536 59.0953 44.048C59.2553 44.5493 59.3353 45.088 59.3353 45.664V46.336H53.7833V46.544C53.7833 47.152 53.9539 47.6427 54.2953 48.016C54.6366 48.3787 55.1433 48.56 55.8153 48.56C56.3273 48.56 56.7433 48.4533 57.0633 48.24C57.3939 48.0267 57.6873 47.7547 57.9433 47.424L59.0473 48.656C58.7059 49.136 58.2366 49.5147 57.6393 49.792C57.0526 50.0587 56.3699 50.192 55.5913 50.192ZM55.5593 42.992C55.0153 42.992 54.5833 43.1733 54.2633 43.536C53.9433 43.8987 53.7833 44.368 53.7833 44.944V45.072H57.2073V44.928C57.2073 44.352 57.0633 43.888 56.7753 43.536C56.4979 43.1733 56.0926 42.992 55.5593 42.992ZM61.1371 50V41.648H63.1851V43.376H63.2651C63.3185 43.152 63.3985 42.9387 63.5051 42.736C63.6225 42.5227 63.7718 42.336 63.9531 42.176C64.1345 42.016 64.3478 41.888 64.5931 41.792C64.8491 41.696 65.1425 41.648 65.4731 41.648H65.9211V43.584H65.2811C64.5878 43.584 64.0651 43.6853 63.7131 43.888C63.3611 44.0907 63.1851 44.4213 63.1851 44.88V50H61.1371ZM74.5756 50.192C73.957 50.192 73.4023 50.0907 72.9116 49.888C72.4316 49.6747 72.021 49.3813 71.6796 49.008C71.349 48.624 71.093 48.1653 70.9116 47.632C70.7303 47.088 70.6396 46.48 70.6396 45.808C70.6396 45.1467 70.725 44.5493 70.8956 44.016C71.077 43.4827 71.333 43.0293 71.6636 42.656C71.9943 42.272 72.3996 41.9787 72.8796 41.776C73.3596 41.5627 73.9036 41.456 74.5116 41.456C75.1623 41.456 75.7276 41.568 76.2076 41.792C76.6876 42.016 77.0823 42.32 77.3916 42.704C77.701 43.088 77.9303 43.536 78.0796 44.048C78.2396 44.5493 78.3196 45.088 78.3196 45.664V46.336H72.7676V46.544C72.7676 47.152 72.9383 47.6427 73.2796 48.016C73.621 48.3787 74.1276 48.56 74.7996 48.56C75.3116 48.56 75.7276 48.4533 76.0476 48.24C76.3783 48.0267 76.6716 47.7547 76.9276 47.424L78.0316 48.656C77.6903 49.136 77.221 49.5147 76.6236 49.792C76.037 50.0587 75.3543 50.192 74.5756 50.192ZM74.5436 42.992C73.9996 42.992 73.5676 43.1733 73.2476 43.536C72.9276 43.8987 72.7676 44.368 72.7676 44.944V45.072H76.1916V44.928C76.1916 44.352 76.0476 43.888 75.7596 43.536C75.4823 43.1733 75.077 42.992 74.5436 42.992ZM80.1215 50V41.648H82.1695V43.376H82.2495C82.3028 43.152 82.3828 42.9387 82.4895 42.736C82.6068 42.5227 82.7562 42.336 82.9375 42.176C83.1188 42.016 83.3322 41.888 83.5775 41.792C83.8335 41.696 84.1268 41.648 84.4575 41.648H84.9055V43.584H84.2655C83.5722 43.584 83.0495 43.6853 82.6975 43.888C82.3455 44.0907 82.1695 44.4213 82.1695 44.88V50H80.1215ZM90.184 41.648H92.232V43.024H92.296C92.4453 42.544 92.728 42.1653 93.144 41.888C93.56 41.6 94.0453 41.456 94.6 41.456C95.6667 41.456 96.4773 41.8347 97.032 42.592C97.5973 43.3387 97.88 44.4107 97.88 45.808C97.88 47.216 97.5973 48.2987 97.032 49.056C96.4773 49.8133 95.6667 50.192 94.6 50.192C94.0453 50.192 93.56 50.048 93.144 49.76C92.7387 49.472 92.456 49.088 92.296 48.608H92.232V53.2H90.184V41.648ZM93.944 48.496C94.4773 48.496 94.9093 48.32 95.24 47.968C95.5707 47.616 95.736 47.1413 95.736 46.544V45.104C95.736 44.5067 95.5707 44.032 95.24 43.68C94.9093 43.3173 94.4773 43.136 93.944 43.136C93.4533 43.136 93.0427 43.2587 92.712 43.504C92.392 43.7493 92.232 44.0747 92.232 44.48V47.136C92.232 47.5733 92.392 47.9093 92.712 48.144C93.0427 48.3787 93.4533 48.496 93.944 48.496ZM99.7778 50V41.648H101.826V43.376H101.906C101.959 43.152 102.039 42.9387 102.146 42.736C102.263 42.5227 102.412 42.336 102.594 42.176C102.775 42.016 102.988 41.888 103.234 41.792C103.49 41.696 103.783 41.648 104.114 41.648H104.562V43.584H103.922C103.228 43.584 102.706 43.6853 102.354 43.888C102.002 44.0907 101.826 44.4213 101.826 44.88V50H99.7778ZM109.293 50.192C108.696 50.192 108.157 50.0907 107.677 49.888C107.208 49.6853 106.802 49.392 106.461 49.008C106.13 48.624 105.874 48.1653 105.693 47.632C105.512 47.088 105.421 46.48 105.421 45.808C105.421 45.136 105.512 44.5333 105.693 44C105.874 43.4667 106.13 43.0133 106.461 42.64C106.802 42.256 107.208 41.9627 107.677 41.76C108.157 41.5573 108.696 41.456 109.293 41.456C109.89 41.456 110.429 41.5573 110.909 41.76C111.389 41.9627 111.794 42.256 112.125 42.64C112.466 43.0133 112.728 43.4667 112.909 44C113.09 44.5333 113.181 45.136 113.181 45.808C113.181 46.48 113.09 47.088 112.909 47.632C112.728 48.1653 112.466 48.624 112.125 49.008C111.794 49.392 111.389 49.6853 110.909 49.888C110.429 50.0907 109.89 50.192 109.293 50.192ZM109.293 48.544C109.837 48.544 110.264 48.3787 110.573 48.048C110.882 47.7173 111.037 47.232 111.037 46.592V45.04C111.037 44.4107 110.882 43.9307 110.573 43.6C110.264 43.2693 109.837 43.104 109.293 43.104C108.76 43.104 108.338 43.2693 108.029 43.6C107.72 43.9307 107.565 44.4107 107.565 45.04V46.592C107.565 47.232 107.72 47.7173 108.029 48.048C108.338 48.3787 108.76 48.544 109.293 48.544ZM114.997 38.16H117.045V43.024H117.109C117.258 42.544 117.541 42.1653 117.957 41.888C118.373 41.6 118.858 41.456 119.413 41.456C120.479 41.456 121.29 41.8347 121.845 42.592C122.41 43.3387 122.693 44.4107 122.693 45.808C122.693 47.216 122.41 48.2987 121.845 49.056C121.29 49.8133 120.479 50.192 119.413 50.192C118.858 50.192 118.373 50.048 117.957 49.76C117.551 49.472 117.269 49.088 117.109 48.608H117.045V50H114.997V38.16ZM118.757 48.496C119.29 48.496 119.722 48.32 120.053 47.968C120.383 47.616 120.549 47.1413 120.549 46.544V45.104C120.549 44.5067 120.383 44.032 120.053 43.68C119.722 43.3173 119.29 43.136 118.757 43.136C118.266 43.136 117.855 43.2587 117.525 43.504C117.205 43.7493 117.045 44.0747 117.045 44.48V47.136C117.045 47.5733 117.205 47.9093 117.525 48.144C117.855 48.3787 118.266 48.496 118.757 48.496ZM126.638 50C125.934 50 125.417 49.824 125.086 49.472C124.756 49.12 124.59 48.624 124.59 47.984V38.16H126.638V48.368H127.742V50H126.638ZM132.669 50.192C132.051 50.192 131.496 50.0907 131.005 49.888C130.525 49.6747 130.115 49.3813 129.773 49.008C129.443 48.624 129.187 48.1653 129.005 47.632C128.824 47.088 128.733 46.48 128.733 45.808C128.733 45.1467 128.819 44.5493 128.989 44.016C129.171 43.4827 129.427 43.0293 129.757 42.656C130.088 42.272 130.493 41.9787 130.973 41.776C131.453 41.5627 131.997 41.456 132.605 41.456C133.256 41.456 133.821 41.568 134.301 41.792C134.781 42.016 135.176 42.32 135.485 42.704C135.795 43.088 136.024 43.536 136.173 44.048C136.333 44.5493 136.413 45.088 136.413 45.664V46.336H130.861V46.544C130.861 47.152 131.032 47.6427 131.373 48.016C131.715 48.3787 132.221 48.56 132.893 48.56C133.405 48.56 133.821 48.4533 134.141 48.24C134.472 48.0267 134.765 47.7547 135.021 47.424L136.125 48.656C135.784 49.136 135.315 49.5147 134.717 49.792C134.131 50.0587 133.448 50.192 132.669 50.192ZM132.637 42.992C132.093 42.992 131.661 43.1733 131.341 43.536C131.021 43.8987 130.861 44.368 130.861 44.944V45.072H134.285V44.928C134.285 44.352 134.141 43.888 133.853 43.536C133.576 43.1733 133.171 42.992 132.637 42.992ZM138.215 50V41.648H140.263V43.04H140.343C140.503 42.6027 140.759 42.2293 141.111 41.92C141.463 41.6107 141.954 41.456 142.583 41.456C143.159 41.456 143.655 41.5947 144.071 41.872C144.487 42.1493 144.797 42.5707 144.999 43.136H145.031C145.181 42.6667 145.474 42.272 145.911 41.952C146.359 41.6213 146.919 41.456 147.591 41.456C148.413 41.456 149.042 41.7387 149.479 42.304C149.927 42.8693 150.151 43.6747 150.151 44.72V50H148.103V44.928C148.103 43.7333 147.655 43.136 146.759 43.136C146.557 43.136 146.359 43.168 146.167 43.232C145.986 43.2853 145.821 43.3707 145.671 43.488C145.533 43.5947 145.421 43.7333 145.335 43.904C145.25 44.064 145.207 44.256 145.207 44.48V50H143.159V44.928C143.159 43.7333 142.711 43.136 141.815 43.136C141.623 43.136 141.431 43.168 141.239 43.232C141.058 43.2853 140.893 43.3707 140.743 43.488C140.605 43.5947 140.487 43.7333 140.391 43.904C140.306 44.064 140.263 44.256 140.263 44.48V50H138.215ZM155.794 50.192C155.176 50.192 154.621 50.0907 154.13 49.888C153.65 49.6747 153.24 49.3813 152.898 49.008C152.568 48.624 152.312 48.1653 152.13 47.632C151.949 47.088 151.858 46.48 151.858 45.808C151.858 45.1467 151.944 44.5493 152.114 44.016C152.296 43.4827 152.552 43.0293 152.882 42.656C153.213 42.272 153.618 41.9787 154.098 41.776C154.578 41.5627 155.122 41.456 155.73 41.456C156.381 41.456 156.946 41.568 157.426 41.792C157.906 42.016 158.301 42.32 158.61 42.704C158.92 43.088 159.149 43.536 159.298 44.048C159.458 44.5493 159.538 45.088 159.538 45.664V46.336H153.986V46.544C153.986 47.152 154.157 47.6427 154.498 48.016C154.84 48.3787 155.346 48.56 156.018 48.56C156.53 48.56 156.946 48.4533 157.266 48.24C157.597 48.0267 157.89 47.7547 158.146 47.424L159.25 48.656C158.909 49.136 158.44 49.5147 157.842 49.792C157.256 50.0587 156.573 50.192 155.794 50.192ZM155.762 42.992C155.218 42.992 154.786 43.1733 154.466 43.536C154.146 43.8987 153.986 44.368 153.986 44.944V45.072H157.41V44.928C157.41 44.352 157.266 43.888 156.978 43.536C156.701 43.1733 156.296 42.992 155.762 42.992ZM161.34 50V41.648H163.388V43.376H163.468C163.522 43.152 163.602 42.9387 163.708 42.736C163.826 42.5227 163.975 42.336 164.156 42.176C164.338 42.016 164.551 41.888 164.796 41.792C165.052 41.696 165.346 41.648 165.676 41.648H166.124V43.584H165.484C164.791 43.584 164.268 43.6853 163.916 43.888C163.564 44.0907 163.388 44.4213 163.388 44.88V50H161.34Z" fill="#1A1A1A"/>
<path d="M44.624 82.192C43.7173 82.192 42.944 82.0213 42.304 81.68C41.664 81.328 41.12 80.848 40.672 80.24L41.664 79.408C42.0587 79.9307 42.496 80.3307 42.976 80.608C43.456 80.8747 44.0213 81.008 44.672 81.008C45.472 81.008 46.08 80.816 46.496 80.432C46.9227 80.048 47.136 79.536 47.136 78.896C47.136 78.3627 46.976 77.952 46.656 77.664C46.336 77.376 45.808 77.1467 45.072 76.976L44.16 76.768C43.136 76.5333 42.352 76.1813 41.808 75.712C41.2747 75.232 41.008 74.56 41.008 73.696C41.008 73.2053 41.0987 72.768 41.28 72.384C41.4613 72 41.712 71.68 42.032 71.424C42.3627 71.168 42.752 70.976 43.2 70.848C43.6587 70.7093 44.16 70.64 44.704 70.64C45.5467 70.64 46.2667 70.7947 46.864 71.104C47.472 71.4133 47.984 71.8667 48.4 72.464L47.392 73.2C47.0827 72.7733 46.7093 72.4373 46.272 72.192C45.8347 71.9467 45.2907 71.824 44.64 71.824C43.9253 71.824 43.36 71.9787 42.944 72.288C42.5387 72.5867 42.336 73.04 42.336 73.648C42.336 74.1813 42.5067 74.5867 42.848 74.864C43.2 75.1307 43.728 75.344 44.432 75.504L45.344 75.712C46.4427 75.9573 47.2373 76.3307 47.728 76.832C48.2187 77.3333 48.464 78 48.464 78.832C48.464 79.344 48.3733 79.808 48.192 80.224C48.0213 80.64 47.7707 80.992 47.44 81.28C47.1093 81.568 46.704 81.792 46.224 81.952C45.7547 82.112 45.2213 82.192 44.624 82.192ZM50.6569 70.16H51.9369V77.664H52.0009L53.2649 76.256L55.6009 73.744H57.1529L54.0969 77.008L57.4569 82H55.9049L53.1689 77.792L51.9369 79.056V82H50.6569V70.16ZM59.0944 82V73.744H60.3744V75.264H60.4544C60.6037 74.8693 60.8704 74.5173 61.2544 74.208C61.6384 73.8987 62.1664 73.744 62.8384 73.744H63.3344V75.024H62.5824C61.889 75.024 61.345 75.1573 60.9504 75.424C60.5664 75.68 60.3744 76.0053 60.3744 76.4V82H59.0944ZM65.6094 71.808C65.332 71.808 65.1294 71.744 65.0014 71.616C64.884 71.4773 64.8254 71.3013 64.8254 71.088V70.88C64.8254 70.6667 64.884 70.496 65.0014 70.368C65.1294 70.2293 65.332 70.16 65.6094 70.16C65.8867 70.16 66.084 70.2293 66.2014 70.368C66.3294 70.496 66.3934 70.6667 66.3934 70.88V71.088C66.3934 71.3013 66.3294 71.4773 66.2014 71.616C66.084 71.744 65.8867 71.808 65.6094 71.808ZM64.9694 73.744H66.2494V82H64.9694V73.744ZM70.7934 82L67.8974 73.744H69.1774L70.6174 77.84L71.5134 80.656H71.5934L72.4894 77.84L73.9614 73.744H75.1934L72.2814 82H70.7934ZM85.9056 80.656H85.8416C85.3403 81.68 84.535 82.192 83.4256 82.192C82.9136 82.192 82.4496 82.0907 82.0336 81.888C81.6176 81.6853 81.2603 81.3973 80.9616 81.024C80.6736 80.6507 80.4496 80.1973 80.2896 79.664C80.1403 79.1307 80.0656 78.5333 80.0656 77.872C80.0656 77.2107 80.1403 76.6133 80.2896 76.08C80.4496 75.5467 80.6736 75.0933 80.9616 74.72C81.2603 74.3467 81.6176 74.0587 82.0336 73.856C82.4496 73.6533 82.9136 73.552 83.4256 73.552C84.0016 73.552 84.4923 73.68 84.8976 73.936C85.3136 74.1813 85.6283 74.5653 85.8416 75.088H85.9056V70.16H87.1856V82H85.9056V80.656ZM83.7776 81.04C84.0656 81.04 84.3376 81.0027 84.5936 80.928C84.8603 80.8533 85.0896 80.7467 85.2816 80.608C85.4736 80.4587 85.623 80.2827 85.7296 80.08C85.847 79.8667 85.9056 79.6267 85.9056 79.36V76.288C85.9056 76.064 85.847 75.856 85.7296 75.664C85.623 75.4613 85.4736 75.2907 85.2816 75.152C85.0896 75.0133 84.8603 74.9067 84.5936 74.832C84.3376 74.7467 84.0656 74.704 83.7776 74.704C83.0523 74.704 82.4816 74.9333 82.0656 75.392C81.6496 75.84 81.4416 76.432 81.4416 77.168V78.576C81.4416 79.312 81.6496 79.9093 82.0656 80.368C82.4816 80.816 83.0523 81.04 83.7776 81.04ZM90.5469 71.808C90.2695 71.808 90.0669 71.744 89.9389 71.616C89.8215 71.4773 89.7629 71.3013 89.7629 71.088V70.88C89.7629 70.6667 89.8215 70.496 89.9389 70.368C90.0669 70.2293 90.2695 70.16 90.5469 70.16C90.8242 70.16 91.0215 70.2293 91.1389 70.368C91.2669 70.496 91.3309 70.6667 91.3309 70.88V71.088C91.3309 71.3013 91.2669 71.4773 91.1389 71.616C91.0215 71.744 90.8242 71.808 90.5469 71.808ZM89.9069 73.744H91.1869V82H89.9069V73.744ZM93.9069 82V73.744H95.1869V75.088H95.2509C95.4535 74.6187 95.7362 74.2453 96.0989 73.968C96.4722 73.6907 96.9682 73.552 97.5869 73.552C98.4402 73.552 99.1122 73.8293 99.6029 74.384C100.104 74.928 100.355 75.7013 100.355 76.704V82H99.0749V76.928C99.0749 75.4453 98.4509 74.704 97.2029 74.704C96.9469 74.704 96.6962 74.736 96.4509 74.8C96.2162 74.864 96.0029 74.96 95.8109 75.088C95.6189 75.216 95.4642 75.3813 95.3469 75.584C95.2402 75.776 95.1869 76.0053 95.1869 76.272V82H93.9069ZM109.886 82.192C109.321 82.192 108.809 82.0907 108.35 81.888C107.902 81.6853 107.513 81.3973 107.182 81.024C106.862 80.64 106.611 80.1867 106.43 79.664C106.259 79.1307 106.174 78.5333 106.174 77.872C106.174 77.2213 106.259 76.6293 106.43 76.096C106.611 75.5627 106.862 75.1093 107.182 74.736C107.513 74.352 107.902 74.0587 108.35 73.856C108.809 73.6533 109.321 73.552 109.886 73.552C110.441 73.552 110.937 73.6533 111.374 73.856C111.811 74.0587 112.185 74.3413 112.494 74.704C112.803 75.056 113.038 75.4773 113.198 75.968C113.369 76.4587 113.454 76.9973 113.454 77.584V78.192H107.518V78.576C107.518 78.928 107.571 79.2587 107.678 79.568C107.795 79.8667 107.955 80.128 108.158 80.352C108.371 80.576 108.627 80.752 108.926 80.88C109.235 81.008 109.582 81.072 109.966 81.072C110.489 81.072 110.942 80.9493 111.326 80.704C111.721 80.4587 112.025 80.1067 112.238 79.648L113.15 80.304C112.883 80.8693 112.467 81.328 111.902 81.68C111.337 82.0213 110.665 82.192 109.886 82.192ZM109.886 74.624C109.534 74.624 109.214 74.688 108.926 74.816C108.638 74.9333 108.387 75.104 108.174 75.328C107.971 75.552 107.811 75.8187 107.694 76.128C107.577 76.4267 107.518 76.7573 107.518 77.12V77.232H112.078V77.056C112.078 76.32 111.875 75.7333 111.47 75.296C111.075 74.848 110.547 74.624 109.886 74.624ZM115.463 77.824V76.448H119.639V77.824H115.463ZM122.11 82V73.744H123.39V75.088H123.454C123.55 74.8747 123.657 74.6773 123.774 74.496C123.902 74.304 124.051 74.1387 124.222 74C124.403 73.8613 124.611 73.7547 124.846 73.68C125.081 73.5947 125.358 73.552 125.678 73.552C126.222 73.552 126.723 73.6853 127.182 73.952C127.641 74.208 127.982 74.6347 128.206 75.232H128.238C128.387 74.784 128.665 74.3947 129.07 74.064C129.486 73.7227 130.046 73.552 130.75 73.552C131.593 73.552 132.249 73.8293 132.718 74.384C133.198 74.928 133.438 75.7013 133.438 76.704V82H132.158V76.928C132.158 76.192 132.014 75.6373 131.726 75.264C131.438 74.8907 130.979 74.704 130.35 74.704C130.094 74.704 129.849 74.736 129.614 74.8C129.39 74.864 129.187 74.96 129.006 75.088C128.825 75.216 128.681 75.3813 128.574 75.584C128.467 75.776 128.414 76.0053 128.414 76.272V82H127.134V76.928C127.134 76.192 126.99 75.6373 126.702 75.264C126.414 74.8907 125.966 74.704 125.358 74.704C125.102 74.704 124.857 74.736 124.622 74.8C124.387 74.864 124.179 74.96 123.998 75.088C123.817 75.216 123.667 75.3813 123.55 75.584C123.443 75.776 123.39 76.0053 123.39 76.272V82H122.11ZM142.079 82C141.599 82 141.252 81.872 141.039 81.616C140.836 81.36 140.708 81.04 140.655 80.656H140.575C140.393 81.168 140.095 81.552 139.679 81.808C139.263 82.064 138.767 82.192 138.191 82.192C137.316 82.192 136.633 81.968 136.143 81.52C135.663 81.072 135.423 80.464 135.423 79.696C135.423 78.9173 135.705 78.32 136.271 77.904C136.847 77.488 137.737 77.28 138.943 77.28H140.575V76.464C140.575 75.8773 140.415 75.4293 140.095 75.12C139.775 74.8107 139.284 74.656 138.623 74.656C138.121 74.656 137.7 74.768 137.359 74.992C137.028 75.216 136.751 75.5147 136.527 75.888L135.759 75.168C135.983 74.72 136.34 74.3413 136.831 74.032C137.321 73.712 137.94 73.552 138.687 73.552C139.689 73.552 140.468 73.7973 141.023 74.288C141.577 74.7787 141.855 75.4613 141.855 76.336V80.88H142.799V82H142.079ZM138.399 81.104C138.719 81.104 139.012 81.0667 139.279 80.992C139.545 80.9173 139.775 80.8107 139.967 80.672C140.159 80.5333 140.308 80.3733 140.415 80.192C140.521 80.0107 140.575 79.8133 140.575 79.6V78.24H138.879C138.143 78.24 137.604 78.3467 137.263 78.56C136.932 78.7733 136.767 79.0827 136.767 79.488V79.824C136.767 80.2293 136.911 80.544 137.199 80.768C137.497 80.992 137.897 81.104 138.399 81.104ZM145.266 71.808C144.988 71.808 144.786 71.744 144.658 71.616C144.54 71.4773 144.482 71.3013 144.482 71.088V70.88C144.482 70.6667 144.54 70.496 144.658 70.368C144.786 70.2293 144.988 70.16 145.266 70.16C145.543 70.16 145.74 70.2293 145.858 70.368C145.986 70.496 146.05 70.6667 146.05 70.88V71.088C146.05 71.3013 145.986 71.4773 145.858 71.616C145.74 71.744 145.543 71.808 145.266 71.808ZM144.626 73.744H145.906V82H144.626V73.744ZM149.986 82C149.538 82 149.196 81.8773 148.962 81.632C148.738 81.376 148.626 81.056 148.626 80.672V70.16H149.906V80.88H151.122V82H149.986Z" fill="#1A1A1A"/>
<path d="M40 84H151.618V84.96H40V84Z" fill="#1A1A1A"/>
<path d="M21.696 382.704V392H19.584V382.704H16.416V380.832H24.864V382.704H21.696ZM28.7944 392.192C28.1757 392.192 27.621 392.091 27.1304 391.888C26.6504 391.675 26.2397 391.381 25.8984 391.008C25.5677 390.624 25.3117 390.165 25.1304 389.632C24.949 389.088 24.8584 388.48 24.8584 387.808C24.8584 387.147 24.9437 386.549 25.1144 386.016C25.2957 385.483 25.5517 385.029 25.8824 384.656C26.213 384.272 26.6184 383.979 27.0984 383.776C27.5784 383.563 28.1224 383.456 28.7304 383.456C29.381 383.456 29.9464 383.568 30.4264 383.792C30.9064 384.016 31.301 384.32 31.6104 384.704C31.9197 385.088 32.149 385.536 32.2984 386.048C32.4584 386.549 32.5384 387.088 32.5384 387.664V388.336H26.9864V388.544C26.9864 389.152 27.157 389.643 27.4984 390.016C27.8397 390.379 28.3464 390.56 29.0184 390.56C29.5304 390.56 29.9464 390.453 30.2664 390.24C30.597 390.027 30.8904 389.755 31.1464 389.424L32.2504 390.656C31.909 391.136 31.4397 391.515 30.8424 391.792C30.2557 392.059 29.573 392.192 28.7944 392.192ZM28.7624 384.992C28.2184 384.992 27.7864 385.173 27.4664 385.536C27.1464 385.899 26.9864 386.368 26.9864 386.944V387.072H30.4104V386.928C30.4104 386.352 30.2664 385.888 29.9784 385.536C29.701 385.173 29.2957 384.992 28.7624 384.992ZM36.3883 392C35.6843 392 35.1669 391.824 34.8363 391.472C34.5056 391.12 34.3403 390.624 34.3403 389.984V380.16H36.3883V390.368H37.4923V392H36.3883ZM42.4194 392.192C41.8007 392.192 41.246 392.091 40.7554 391.888C40.2754 391.675 39.8647 391.381 39.5234 391.008C39.1927 390.624 38.9367 390.165 38.7554 389.632C38.574 389.088 38.4834 388.48 38.4834 387.808C38.4834 387.147 38.5687 386.549 38.7394 386.016C38.9207 385.483 39.1767 385.029 39.5074 384.656C39.838 384.272 40.2434 383.979 40.7234 383.776C41.2034 383.563 41.7474 383.456 42.3554 383.456C43.006 383.456 43.5714 383.568 44.0514 383.792C44.5314 384.016 44.926 384.32 45.2354 384.704C45.5447 385.088 45.774 385.536 45.9234 386.048C46.0834 386.549 46.1634 387.088 46.1634 387.664V388.336H40.6114V388.544C40.6114 389.152 40.782 389.643 41.1234 390.016C41.4647 390.379 41.9714 390.56 42.6434 390.56C43.1554 390.56 43.5714 390.453 43.8914 390.24C44.222 390.027 44.5154 389.755 44.7714 389.424L45.8754 390.656C45.534 391.136 45.0647 391.515 44.4674 391.792C43.8807 392.059 43.198 392.192 42.4194 392.192ZM42.3874 384.992C41.8434 384.992 41.4114 385.173 41.0914 385.536C40.7714 385.899 40.6114 386.368 40.6114 386.944V387.072H44.0354V386.928C44.0354 386.352 43.8914 385.888 43.6034 385.536C43.326 385.173 42.9207 384.992 42.3874 384.992ZM48.3813 385.264H47.1493V383.648H48.3813V382.448C48.3813 381.712 48.5733 381.147 48.9573 380.752C49.3519 380.357 49.9279 380.16 50.6853 380.16H52.1413V381.792H50.4293V383.648H52.1413V385.264H50.4293V392H48.3813V385.264ZM56.8085 392.192C56.2112 392.192 55.6725 392.091 55.1925 391.888C54.7232 391.685 54.3178 391.392 53.9765 391.008C53.6458 390.624 53.3898 390.165 53.2085 389.632C53.0272 389.088 52.9365 388.48 52.9365 387.808C52.9365 387.136 53.0272 386.533 53.2085 386C53.3898 385.467 53.6458 385.013 53.9765 384.64C54.3178 384.256 54.7232 383.963 55.1925 383.76C55.6725 383.557 56.2112 383.456 56.8085 383.456C57.4058 383.456 57.9445 383.557 58.4245 383.76C58.9045 383.963 59.3098 384.256 59.6405 384.64C59.9818 385.013 60.2432 385.467 60.4245 386C60.6058 386.533 60.6965 387.136 60.6965 387.808C60.6965 388.48 60.6058 389.088 60.4245 389.632C60.2432 390.165 59.9818 390.624 59.6405 391.008C59.3098 391.392 58.9045 391.685 58.4245 391.888C57.9445 392.091 57.4058 392.192 56.8085 392.192ZM56.8085 390.544C57.3525 390.544 57.7792 390.379 58.0885 390.048C58.3978 389.717 58.5525 389.232 58.5525 388.592V387.04C58.5525 386.411 58.3978 385.931 58.0885 385.6C57.7792 385.269 57.3525 385.104 56.8085 385.104C56.2752 385.104 55.8538 385.269 55.5445 385.6C55.2352 385.931 55.0805 386.411 55.0805 387.04V388.592C55.0805 389.232 55.2352 389.717 55.5445 390.048C55.8538 390.379 56.2752 390.544 56.8085 390.544ZM62.5121 392V383.648H64.5601V385.04H64.6401C64.8108 384.592 65.0775 384.219 65.4401 383.92C65.8135 383.611 66.3255 383.456 66.9761 383.456C67.8401 383.456 68.5015 383.739 68.9601 384.304C69.4188 384.869 69.6481 385.675 69.6481 386.72V392H67.6001V386.928C67.6001 386.331 67.4935 385.883 67.2801 385.584C67.0668 385.285 66.7148 385.136 66.2241 385.136C66.0108 385.136 65.8028 385.168 65.6001 385.232C65.4081 385.285 65.2321 385.371 65.0721 385.488C64.9228 385.595 64.8001 385.733 64.7041 385.904C64.6081 386.064 64.5601 386.256 64.5601 386.48V392H62.5121ZM71.9184 392V383.648H73.9664V385.04H74.0464C74.217 384.592 74.4837 384.219 74.8464 383.92C75.2197 383.611 75.7317 383.456 76.3824 383.456C77.2464 383.456 77.9077 383.739 78.3664 384.304C78.825 384.869 79.0544 385.675 79.0544 386.72V392H77.0064V386.928C77.0064 386.331 76.8997 385.883 76.6864 385.584C76.473 385.285 76.121 385.136 75.6304 385.136C75.417 385.136 75.209 385.168 75.0064 385.232C74.8144 385.285 74.6384 385.371 74.4784 385.488C74.329 385.595 74.2064 385.733 74.1104 385.904C74.0144 386.064 73.9664 386.256 73.9664 386.48V392H71.9184ZM86.3166 390.608H86.2366C86.162 390.821 86.0606 391.024 85.9326 391.216C85.8153 391.397 85.6606 391.563 85.4686 391.712C85.2873 391.861 85.0633 391.979 84.7966 392.064C84.5406 392.149 84.242 392.192 83.9006 392.192C83.0366 392.192 82.3753 391.909 81.9166 391.344C81.458 390.779 81.2286 389.973 81.2286 388.928V383.648H83.2766V388.72C83.2766 389.296 83.3886 389.739 83.6126 390.048C83.8366 390.347 84.194 390.496 84.6846 390.496C84.8873 390.496 85.0846 390.469 85.2766 390.416C85.4793 390.363 85.6553 390.283 85.8046 390.176C85.954 390.059 86.0766 389.92 86.1726 389.76C86.2686 389.589 86.3166 389.392 86.3166 389.168V383.648H88.3646V392H86.3166V390.608ZM90.7309 392V383.648H92.7789V385.04H92.8589C93.0189 384.603 93.2749 384.229 93.6269 383.92C93.9789 383.611 94.4695 383.456 95.0989 383.456C95.6749 383.456 96.1709 383.595 96.5869 383.872C97.0029 384.149 97.3122 384.571 97.5149 385.136H97.5469C97.6962 384.667 97.9895 384.272 98.4269 383.952C98.8749 383.621 99.4349 383.456 100.107 383.456C100.928 383.456 101.558 383.739 101.995 384.304C102.443 384.869 102.667 385.675 102.667 386.72V392H100.619V386.928C100.619 385.733 100.171 385.136 99.2749 385.136C99.0722 385.136 98.8749 385.168 98.6829 385.232C98.5015 385.285 98.3362 385.371 98.1869 385.488C98.0482 385.595 97.9362 385.733 97.8509 385.904C97.7655 386.064 97.7229 386.256 97.7229 386.48V392H95.6749V386.928C95.6749 385.733 95.2269 385.136 94.3309 385.136C94.1389 385.136 93.9469 385.168 93.7549 385.232C93.5735 385.285 93.4082 385.371 93.2589 385.488C93.1202 385.595 93.0029 385.733 92.9069 385.904C92.8215 386.064 92.7789 386.256 92.7789 386.48V392H90.7309ZM104.934 392V383.648H106.982V385.04H107.062C107.222 384.603 107.478 384.229 107.83 383.92C108.182 383.611 108.673 383.456 109.302 383.456C109.878 383.456 110.374 383.595 110.79 383.872C111.206 384.149 111.515 384.571 111.718 385.136H111.75C111.899 384.667 112.193 384.272 112.63 383.952C113.078 383.621 113.638 383.456 114.31 383.456C115.131 383.456 115.761 383.739 116.198 384.304C116.646 384.869 116.87 385.675 116.87 386.72V392H114.822V386.928C114.822 385.733 114.374 385.136 113.478 385.136C113.275 385.136 113.078 385.168 112.886 385.232C112.705 385.285 112.539 385.371 112.39 385.488C112.251 385.595 112.139 385.733 112.054 385.904C111.969 386.064 111.926 386.256 111.926 386.48V392H109.878V386.928C109.878 385.733 109.43 385.136 108.534 385.136C108.342 385.136 108.15 385.168 107.958 385.232C107.777 385.285 107.611 385.371 107.462 385.488C107.323 385.595 107.206 385.733 107.11 385.904C107.025 386.064 106.982 386.256 106.982 386.48V392H104.934ZM122.513 392.192C121.894 392.192 121.34 392.091 120.849 391.888C120.369 391.675 119.958 391.381 119.617 391.008C119.286 390.624 119.03 390.165 118.849 389.632C118.668 389.088 118.577 388.48 118.577 387.808C118.577 387.147 118.662 386.549 118.833 386.016C119.014 385.483 119.27 385.029 119.601 384.656C119.932 384.272 120.337 383.979 120.817 383.776C121.297 383.563 121.841 383.456 122.449 383.456C123.1 383.456 123.665 383.568 124.145 383.792C124.625 384.016 125.02 384.32 125.329 384.704C125.638 385.088 125.868 385.536 126.017 386.048C126.177 386.549 126.257 387.088 126.257 387.664V388.336H120.705V388.544C120.705 389.152 120.876 389.643 121.217 390.016C121.558 390.379 122.065 390.56 122.737 390.56C123.249 390.56 123.665 390.453 123.985 390.24C124.316 390.027 124.609 389.755 124.865 389.424L125.969 390.656C125.628 391.136 125.158 391.515 124.561 391.792C123.974 392.059 123.292 392.192 122.513 392.192ZM122.481 384.992C121.937 384.992 121.505 385.173 121.185 385.536C120.865 385.899 120.705 386.368 120.705 386.944V387.072H124.129V386.928C124.129 386.352 123.985 385.888 123.697 385.536C123.42 385.173 123.014 384.992 122.481 384.992ZM128.059 392V383.648H130.107V385.376H130.187C130.24 385.152 130.32 384.939 130.427 384.736C130.544 384.523 130.694 384.336 130.875 384.176C131.056 384.016 131.27 383.888 131.515 383.792C131.771 383.696 132.064 383.648 132.395 383.648H132.843V385.584H132.203C131.51 385.584 130.987 385.685 130.635 385.888C130.283 386.091 130.107 386.421 130.107 386.88V392H128.059Z" fill="#1A1A1A"/>
</g>
<defs>
<clipPath id="clip0_5010_48999">
<rect width="418" height="387" fill="white"/>
</clipPath>
</defs>
</svg>
