<svg width="418" height="367" viewBox="0 0 418 367" fill="none" xmlns="http://www.w3.org/2000/svg">
<rect width="418" height="367" fill="white"/>
<line y1="246.5" x2="418" y2="246.5" stroke="#747474"/>
<path d="M19.562 280.982L18.561 279.058H18.522V286H17.118V276.926H18.756L21.72 281.944L22.721 283.868H22.76V276.926H24.164V286H22.526L19.562 280.982ZM30.4413 279.24H31.8063L28.9593 287.339C28.8813 287.564 28.7903 287.755 28.6863 287.911C28.5909 288.076 28.4739 288.206 28.3353 288.301C28.2053 288.405 28.0449 288.479 27.8543 288.522C27.6636 288.574 27.4383 288.6 27.1783 288.6H26.3593V287.443H27.5033L27.8933 286.299L25.4363 279.24H26.8533L28.2053 283.218L28.5953 284.687H28.6603L29.0893 283.218L30.4413 279.24ZM32.972 276.38H34.389V280.358H34.454C34.6013 279.994 34.8223 279.691 35.117 279.448C35.4203 279.205 35.832 279.084 36.352 279.084C37.0453 279.084 37.5827 279.314 37.964 279.773C38.354 280.224 38.549 280.869 38.549 281.71V286H37.132V281.879C37.132 280.83 36.7073 280.306 35.858 280.306C35.676 280.306 35.494 280.332 35.312 280.384C35.1387 280.427 34.9827 280.497 34.844 280.592C34.7053 280.687 34.5927 280.809 34.506 280.956C34.428 281.103 34.389 281.272 34.389 281.463V286H32.972V276.38ZM43.165 286.156C42.6797 286.156 42.2464 286.074 41.865 285.909C41.4837 285.744 41.1587 285.51 40.89 285.207C40.6214 284.895 40.4134 284.522 40.266 284.089C40.1274 283.647 40.058 283.157 40.058 282.62C40.058 282.083 40.1274 281.597 40.266 281.164C40.4134 280.722 40.6214 280.349 40.89 280.046C41.1587 279.734 41.4837 279.496 41.865 279.331C42.2464 279.166 42.6797 279.084 43.165 279.084C43.659 279.084 44.0924 279.171 44.465 279.344C44.8464 279.517 45.1627 279.76 45.414 280.072C45.6654 280.375 45.8517 280.731 45.973 281.138C46.103 281.545 46.168 281.983 46.168 282.451V282.984H41.527V283.205C41.527 283.725 41.6787 284.154 41.982 284.492C42.294 284.821 42.736 284.986 43.308 284.986C43.724 284.986 44.075 284.895 44.361 284.713C44.647 284.531 44.8897 284.284 45.089 283.972L45.921 284.791C45.6697 285.207 45.3057 285.541 44.829 285.792C44.3524 286.035 43.7977 286.156 43.165 286.156ZM43.165 280.189C42.9224 280.189 42.697 280.232 42.489 280.319C42.2897 280.406 42.1164 280.527 41.969 280.683C41.8304 280.839 41.722 281.025 41.644 281.242C41.566 281.459 41.527 281.697 41.527 281.957V282.048H44.673V281.918C44.673 281.398 44.5387 280.982 44.27 280.67C44.0014 280.349 43.633 280.189 43.165 280.189ZM51.9877 284.882H51.9227C51.7753 285.281 51.5327 285.593 51.1947 285.818C50.8653 286.043 50.4753 286.156 50.0247 286.156C49.1667 286.156 48.5037 285.848 48.0357 285.233C47.5677 284.609 47.3337 283.738 47.3337 282.62C47.3337 281.502 47.5677 280.635 48.0357 280.02C48.5037 279.396 49.1667 279.084 50.0247 279.084C50.4753 279.084 50.8653 279.197 51.1947 279.422C51.5327 279.639 51.7753 279.951 51.9227 280.358H51.9877V276.38H53.4047V286H51.9877V284.882ZM50.4537 284.934C50.887 284.934 51.251 284.83 51.5457 284.622C51.8403 284.405 51.9877 284.124 51.9877 283.777V281.463C51.9877 281.116 51.8403 280.839 51.5457 280.631C51.251 280.414 50.887 280.306 50.4537 280.306C49.9597 280.306 49.5653 280.466 49.2707 280.787C48.976 281.099 48.8287 281.515 48.8287 282.035V283.205C48.8287 283.725 48.976 284.145 49.2707 284.466C49.5653 284.778 49.9597 284.934 50.4537 284.934ZM58.082 286.156C57.5967 286.156 57.1633 286.074 56.782 285.909C56.4007 285.744 56.0757 285.51 55.807 285.207C55.5383 284.895 55.3303 284.522 55.183 284.089C55.0443 283.647 54.975 283.157 54.975 282.62C54.975 282.083 55.0443 281.597 55.183 281.164C55.3303 280.722 55.5383 280.349 55.807 280.046C56.0757 279.734 56.4007 279.496 56.782 279.331C57.1633 279.166 57.5967 279.084 58.082 279.084C58.576 279.084 59.0093 279.171 59.382 279.344C59.7633 279.517 60.0797 279.76 60.331 280.072C60.5823 280.375 60.7687 280.731 60.89 281.138C61.02 281.545 61.085 281.983 61.085 282.451V282.984H56.444V283.205C56.444 283.725 56.5957 284.154 56.899 284.492C57.211 284.821 57.653 284.986 58.225 284.986C58.641 284.986 58.992 284.895 59.278 284.713C59.564 284.531 59.8067 284.284 60.006 283.972L60.838 284.791C60.5867 285.207 60.2227 285.541 59.746 285.792C59.2693 286.035 58.7147 286.156 58.082 286.156ZM58.082 280.189C57.8393 280.189 57.614 280.232 57.406 280.319C57.2067 280.406 57.0333 280.527 56.886 280.683C56.7473 280.839 56.639 281.025 56.561 281.242C56.483 281.459 56.444 281.697 56.444 281.957V282.048H59.59V281.918C59.59 281.398 59.4557 280.982 59.187 280.67C58.9183 280.349 58.55 280.189 58.082 280.189ZM62.6536 286V279.24H64.0706V280.54H64.1356C64.231 280.193 64.4303 279.89 64.7336 279.63C65.037 279.37 65.4573 279.24 65.9946 279.24H66.3716V280.605H65.8126C65.2493 280.605 64.816 280.696 64.5126 280.878C64.218 281.06 64.0706 281.329 64.0706 281.684V286H62.6536Z" fill="black"/>
<path d="M151.118 286V276.926H152.587V284.7H156.279V286H151.118ZM158.394 278.031C158.099 278.031 157.883 277.962 157.744 277.823C157.614 277.684 157.549 277.507 157.549 277.29V277.069C157.549 276.852 157.614 276.675 157.744 276.536C157.883 276.397 158.099 276.328 158.394 276.328C158.689 276.328 158.901 276.397 159.031 276.536C159.161 276.675 159.226 276.852 159.226 277.069V277.29C159.226 277.507 159.161 277.684 159.031 277.823C158.901 277.962 158.689 278.031 158.394 278.031ZM157.679 279.24H159.096V286H157.679V279.24ZM161.119 286V279.24H162.536V280.358H162.601C162.749 279.994 162.97 279.691 163.264 279.448C163.568 279.205 163.979 279.084 164.499 279.084C165.193 279.084 165.73 279.314 166.111 279.773C166.501 280.224 166.696 280.869 166.696 281.71V286H165.279V281.892C165.279 280.835 164.855 280.306 164.005 280.306C163.823 280.306 163.641 280.332 163.459 280.384C163.286 280.427 163.13 280.497 162.991 280.592C162.853 280.687 162.74 280.809 162.653 280.956C162.575 281.103 162.536 281.277 162.536 281.476V286H161.119ZM168.66 276.38H170.077V282.282H170.142L171.078 281.073L172.703 279.24H174.354L171.988 281.853L174.64 286H172.95L171.013 282.776L170.077 283.79V286H168.66V276.38ZM177.788 286.156C177.147 286.156 176.609 286.043 176.176 285.818C175.743 285.593 175.366 285.281 175.045 284.882L175.955 284.05C176.206 284.353 176.484 284.592 176.787 284.765C177.099 284.93 177.459 285.012 177.866 285.012C178.282 285.012 178.59 284.934 178.789 284.778C178.997 284.613 179.101 284.388 179.101 284.102C179.101 283.885 179.027 283.703 178.88 283.556C178.741 283.4 178.494 283.3 178.139 283.257L177.515 283.179C176.822 283.092 176.276 282.893 175.877 282.581C175.487 282.26 175.292 281.788 175.292 281.164C175.292 280.835 175.353 280.544 175.474 280.293C175.595 280.033 175.764 279.816 175.981 279.643C176.206 279.461 176.471 279.322 176.774 279.227C177.086 279.132 177.428 279.084 177.801 279.084C178.408 279.084 178.902 279.179 179.283 279.37C179.673 279.561 180.02 279.825 180.323 280.163L179.452 280.995C179.279 280.787 179.049 280.609 178.763 280.462C178.486 280.306 178.165 280.228 177.801 280.228C177.411 280.228 177.121 280.306 176.93 280.462C176.748 280.618 176.657 280.822 176.657 281.073C176.657 281.333 176.739 281.528 176.904 281.658C177.069 281.788 177.333 281.883 177.697 281.944L178.321 282.022C179.066 282.135 179.608 282.356 179.946 282.685C180.293 283.006 180.466 283.439 180.466 283.985C180.466 284.314 180.401 284.613 180.271 284.882C180.15 285.142 179.972 285.367 179.738 285.558C179.504 285.749 179.222 285.896 178.893 286C178.564 286.104 178.195 286.156 177.788 286.156Z" fill="black"/>
<path d="M287.835 286.156C287.072 286.156 286.422 286.017 285.885 285.74C285.356 285.463 284.901 285.09 284.52 284.622L285.534 283.673C285.855 284.063 286.206 284.358 286.587 284.557C286.977 284.756 287.419 284.856 287.913 284.856C288.494 284.856 288.931 284.726 289.226 284.466C289.521 284.206 289.668 283.855 289.668 283.413C289.668 283.058 289.564 282.776 289.356 282.568C289.148 282.36 288.78 282.204 288.251 282.1L287.445 281.957C286.561 281.792 285.898 281.502 285.456 281.086C285.014 280.67 284.793 280.098 284.793 279.37C284.793 278.971 284.867 278.612 285.014 278.291C285.17 277.962 285.382 277.689 285.651 277.472C285.928 277.247 286.262 277.073 286.652 276.952C287.042 276.831 287.48 276.77 287.965 276.77C288.65 276.77 289.243 276.891 289.746 277.134C290.249 277.368 290.678 277.71 291.033 278.161L290.006 279.071C289.772 278.768 289.486 278.525 289.148 278.343C288.81 278.161 288.39 278.07 287.887 278.07C287.367 278.07 286.964 278.174 286.678 278.382C286.392 278.59 286.249 278.893 286.249 279.292C286.249 279.673 286.366 279.959 286.6 280.15C286.834 280.332 287.198 280.471 287.692 280.566L288.498 280.735C289.408 280.908 290.071 281.203 290.487 281.619C290.912 282.035 291.124 282.607 291.124 283.335C291.124 283.76 291.05 284.145 290.903 284.492C290.756 284.839 290.539 285.138 290.253 285.389C289.976 285.632 289.633 285.822 289.226 285.961C288.819 286.091 288.355 286.156 287.835 286.156ZM295.436 286.156C294.95 286.156 294.517 286.074 294.136 285.909C293.754 285.744 293.429 285.51 293.161 285.207C292.892 284.895 292.684 284.522 292.537 284.089C292.398 283.647 292.329 283.157 292.329 282.62C292.329 282.083 292.398 281.597 292.537 281.164C292.684 280.722 292.892 280.349 293.161 280.046C293.429 279.734 293.754 279.496 294.136 279.331C294.517 279.166 294.95 279.084 295.436 279.084C295.93 279.084 296.363 279.171 296.736 279.344C297.117 279.517 297.433 279.76 297.685 280.072C297.936 280.375 298.122 280.731 298.244 281.138C298.374 281.545 298.439 281.983 298.439 282.451V282.984H293.798V283.205C293.798 283.725 293.949 284.154 294.253 284.492C294.565 284.821 295.007 284.986 295.579 284.986C295.995 284.986 296.346 284.895 296.632 284.713C296.918 284.531 297.16 284.284 297.36 283.972L298.192 284.791C297.94 285.207 297.576 285.541 297.1 285.792C296.623 286.035 296.068 286.156 295.436 286.156ZM295.436 280.189C295.193 280.189 294.968 280.232 294.76 280.319C294.56 280.406 294.387 280.527 294.24 280.683C294.101 280.839 293.993 281.025 293.915 281.242C293.837 281.459 293.798 281.697 293.798 281.957V282.048H296.944V281.918C296.944 281.398 296.809 280.982 296.541 280.67C296.272 280.349 295.904 280.189 295.436 280.189ZM301.45 286C300.965 286 300.601 285.879 300.358 285.636C300.124 285.385 300.007 285.038 300.007 284.596V276.38H301.424V284.843H302.36V286H301.45ZM305.082 286L302.781 279.24H304.185L305.212 282.321L305.901 284.687H305.979L306.668 282.321L307.721 279.24H309.073L306.746 286H305.082ZM310.265 276.38H311.682V280.358H311.747C311.894 279.951 312.133 279.639 312.462 279.422C312.8 279.197 313.194 279.084 313.645 279.084C314.503 279.084 315.166 279.396 315.634 280.02C316.102 280.635 316.336 281.502 316.336 282.62C316.336 283.738 316.102 284.609 315.634 285.233C315.166 285.848 314.503 286.156 313.645 286.156C313.194 286.156 312.8 286.043 312.462 285.818C312.133 285.593 311.894 285.281 311.747 284.882H311.682V286H310.265V276.38ZM313.216 284.934C313.71 284.934 314.104 284.778 314.399 284.466C314.694 284.145 314.841 283.725 314.841 283.205V282.035C314.841 281.515 314.694 281.099 314.399 280.787C314.104 280.466 313.71 280.306 313.216 280.306C312.783 280.306 312.419 280.414 312.124 280.631C311.829 280.839 311.682 281.116 311.682 281.463V283.777C311.682 284.124 311.829 284.405 312.124 284.622C312.419 284.83 312.783 284.934 313.216 284.934ZM320.61 286.156C320.125 286.156 319.692 286.074 319.31 285.909C318.929 285.744 318.604 285.51 318.335 285.207C318.067 284.895 317.859 284.522 317.711 284.089C317.573 283.647 317.503 283.157 317.503 282.62C317.503 282.083 317.573 281.597 317.711 281.164C317.859 280.722 318.067 280.349 318.335 280.046C318.604 279.734 318.929 279.496 319.31 279.331C319.692 279.166 320.125 279.084 320.61 279.084C321.104 279.084 321.538 279.171 321.91 279.344C322.292 279.517 322.608 279.76 322.859 280.072C323.111 280.375 323.297 280.731 323.418 281.138C323.548 281.545 323.613 281.983 323.613 282.451V282.984H318.972V283.205C318.972 283.725 319.124 284.154 319.427 284.492C319.739 284.821 320.181 284.986 320.753 284.986C321.169 284.986 321.52 284.895 321.806 284.713C322.092 284.531 322.335 284.284 322.534 283.972L323.366 284.791C323.115 285.207 322.751 285.541 322.274 285.792C321.798 286.035 321.243 286.156 320.61 286.156ZM320.61 280.189C320.368 280.189 320.142 280.232 319.934 280.319C319.735 280.406 319.562 280.527 319.414 280.683C319.276 280.839 319.167 281.025 319.089 281.242C319.011 281.459 318.972 281.697 318.972 281.957V282.048H322.118V281.918C322.118 281.398 321.984 280.982 321.715 280.67C321.447 280.349 321.078 280.189 320.61 280.189ZM327.054 286C326.56 286 326.187 285.874 325.936 285.623C325.685 285.363 325.559 284.999 325.559 284.531V280.397H324.506V279.24H325.078C325.312 279.24 325.472 279.188 325.559 279.084C325.654 278.98 325.702 278.811 325.702 278.577V277.394H326.976V279.24H328.393V280.397H326.976V284.843H328.289V286H327.054ZM329.93 279.24H331.347V286.91C331.347 287.43 331.213 287.842 330.944 288.145C330.684 288.448 330.268 288.6 329.696 288.6H328.877V287.443H329.93V279.24ZM330.645 278.031C330.35 278.031 330.134 277.962 329.995 277.823C329.865 277.684 329.8 277.507 329.8 277.29V277.069C329.8 276.852 329.865 276.675 329.995 276.536C330.134 276.397 330.35 276.328 330.645 276.328C330.94 276.328 331.152 276.397 331.282 276.536C331.412 276.675 331.477 276.852 331.477 277.069V277.29C331.477 277.507 331.412 277.684 331.282 277.823C331.152 277.962 330.94 278.031 330.645 278.031ZM336.022 286.156C335.537 286.156 335.104 286.074 334.722 285.909C334.341 285.744 334.016 285.51 333.747 285.207C333.479 284.895 333.271 284.522 333.123 284.089C332.985 283.647 332.915 283.157 332.915 282.62C332.915 282.083 332.985 281.597 333.123 281.164C333.271 280.722 333.479 280.349 333.747 280.046C334.016 279.734 334.341 279.496 334.722 279.331C335.104 279.166 335.537 279.084 336.022 279.084C336.516 279.084 336.95 279.171 337.322 279.344C337.704 279.517 338.02 279.76 338.271 280.072C338.523 280.375 338.709 280.731 338.83 281.138C338.96 281.545 339.025 281.983 339.025 282.451V282.984H334.384V283.205C334.384 283.725 334.536 284.154 334.839 284.492C335.151 284.821 335.593 284.986 336.165 284.986C336.581 284.986 336.932 284.895 337.218 284.713C337.504 284.531 337.747 284.284 337.946 283.972L338.778 284.791C338.527 285.207 338.163 285.541 337.686 285.792C337.21 286.035 336.655 286.156 336.022 286.156ZM336.022 280.189C335.78 280.189 335.554 280.232 335.346 280.319C335.147 280.406 334.974 280.527 334.826 280.683C334.688 280.839 334.579 281.025 334.501 281.242C334.423 281.459 334.384 281.697 334.384 281.957V282.048H337.53V281.918C337.53 281.398 337.396 280.982 337.127 280.67C336.859 280.349 336.49 280.189 336.022 280.189ZM340.594 286V279.24H342.011V280.358H342.076C342.223 279.994 342.444 279.691 342.739 279.448C343.042 279.205 343.454 279.084 343.974 279.084C344.667 279.084 345.205 279.314 345.586 279.773C345.976 280.224 346.171 280.869 346.171 281.71V286H344.754V281.892C344.754 280.835 344.329 280.306 343.48 280.306C343.298 280.306 343.116 280.332 342.934 280.384C342.761 280.427 342.605 280.497 342.466 280.592C342.327 280.687 342.215 280.809 342.128 280.956C342.05 281.103 342.011 281.277 342.011 281.476V286H340.594ZM348.85 278.031C348.555 278.031 348.339 277.962 348.2 277.823C348.07 277.684 348.005 277.507 348.005 277.29V277.069C348.005 276.852 348.07 276.675 348.2 276.536C348.339 276.397 348.555 276.328 348.85 276.328C349.145 276.328 349.357 276.397 349.487 276.536C349.617 276.675 349.682 276.852 349.682 277.069V277.29C349.682 277.507 349.617 277.684 349.487 277.823C349.357 277.962 349.145 278.031 348.85 278.031ZM348.135 279.24H349.552V286H348.135V279.24ZM351.576 286V279.24H352.993V280.358H353.058C353.205 279.994 353.426 279.691 353.721 279.448C354.024 279.205 354.436 279.084 354.956 279.084C355.649 279.084 356.186 279.314 356.568 279.773C356.958 280.224 357.153 280.869 357.153 281.71V286H355.736V281.892C355.736 280.835 355.311 280.306 354.462 280.306C354.28 280.306 354.098 280.332 353.916 280.384C353.742 280.427 353.586 280.497 353.448 280.592C353.309 280.687 353.196 280.809 353.11 280.956C353.032 281.103 352.993 281.277 352.993 281.476V286H351.576ZM365.045 286.637C365.045 287.339 364.776 287.868 364.239 288.223C363.701 288.578 362.826 288.756 361.613 288.756C361.058 288.756 360.586 288.717 360.196 288.639C359.814 288.57 359.498 288.466 359.247 288.327C359.004 288.188 358.826 288.019 358.714 287.82C358.601 287.621 358.545 287.391 358.545 287.131C358.545 286.758 358.644 286.468 358.844 286.26C359.052 286.052 359.338 285.909 359.702 285.831V285.688C359.19 285.523 358.935 285.177 358.935 284.648C358.935 284.301 359.052 284.037 359.286 283.855C359.52 283.664 359.801 283.53 360.131 283.452V283.4C359.732 283.209 359.424 282.945 359.208 282.607C359 282.26 358.896 281.857 358.896 281.398C358.896 280.705 359.125 280.146 359.585 279.721C360.053 279.296 360.72 279.084 361.587 279.084C362.063 279.084 362.471 279.153 362.809 279.292V279.11C362.809 278.807 362.878 278.573 363.017 278.408C363.164 278.235 363.389 278.148 363.693 278.148H364.733V279.292H363.355V279.565C363.658 279.764 363.892 280.024 364.057 280.345C364.221 280.657 364.304 281.008 364.304 281.398C364.304 282.083 364.07 282.637 363.602 283.062C363.134 283.478 362.466 283.686 361.6 283.686C361.27 283.686 360.976 283.651 360.716 283.582C360.542 283.643 360.391 283.729 360.261 283.842C360.131 283.946 360.066 284.085 360.066 284.258C360.066 284.44 360.148 284.57 360.313 284.648C360.477 284.726 360.711 284.765 361.015 284.765H362.679C363.511 284.765 364.113 284.934 364.486 285.272C364.858 285.601 365.045 286.056 365.045 286.637ZM363.719 286.793C363.719 286.559 363.628 286.373 363.446 286.234C363.272 286.095 362.952 286.026 362.484 286.026H360.196C359.884 286.208 359.728 286.468 359.728 286.806C359.728 287.083 359.836 287.304 360.053 287.469C360.278 287.642 360.655 287.729 361.184 287.729H362.068C363.168 287.729 363.719 287.417 363.719 286.793ZM361.6 282.659C362.016 282.659 362.336 282.568 362.562 282.386C362.796 282.195 362.913 281.905 362.913 281.515V281.255C362.913 280.865 362.796 280.579 362.562 280.397C362.336 280.206 362.016 280.111 361.6 280.111C361.184 280.111 360.859 280.206 360.625 280.397C360.399 280.579 360.287 280.865 360.287 281.255V281.515C360.287 281.905 360.399 282.195 360.625 282.386C360.859 282.568 361.184 282.659 361.6 282.659Z" fill="black"/>
<rect width="386" height="119" transform="translate(16 16)" fill="#DCDCDC"/>
<rect width="185" height="80" transform="translate(16 151)" fill="#DCDCDC"/>
<rect width="185" height="80" transform="translate(16 151)" fill="#DCDCDC"/>
<rect width="118" height="12" transform="translate(16 299)" fill="#DCDCDC"/>
<rect width="118" height="12" transform="translate(150 299)" fill="#DCDCDC"/>
<rect width="118" height="12" transform="translate(284 299)" fill="#DCDCDC"/>
<rect width="118" height="12" transform="translate(16 319)" fill="#DCDCDC"/>
<rect width="118" height="12" transform="translate(150 319)" fill="#DCDCDC"/>
<rect width="118" height="12" transform="translate(284 319)" fill="#DCDCDC"/>
<rect width="118" height="12" transform="translate(16 339)" fill="#DCDCDC"/>
<rect width="118" height="12" transform="translate(150 339)" fill="#DCDCDC"/>
<rect width="118" height="12" transform="translate(284 339)" fill="#DCDCDC"/>
<rect width="185" height="80" transform="translate(217 151)" fill="#DCDCDC"/>
</svg>
