<svg width="418" height="162" viewBox="0 0 418 162" fill="none" xmlns="http://www.w3.org/2000/svg">
<g clip-path="url(#clip0_5010_48946)">
<rect width="418" height="162" fill="white"/>
<rect x="16.5" y="42.5" width="239" height="39" rx="3.5" stroke="#747474"/>
<path d="M17.312 29V17.832H24.672V19.704H19.424V22.408H24.064V24.28H19.424V27.128H24.672V29H17.312ZM27.1938 22.264H25.9618V20.648H27.1938V19.448C27.1938 18.712 27.3858 18.1467 27.7698 17.752C28.1644 17.3573 28.7404 17.16 29.4978 17.16H30.9538V18.792H29.2418V20.648H30.9538V22.264H29.2418V29H27.1938V22.264ZM34.9795 29C34.2755 29 33.7368 28.8187 33.3635 28.456C33.0008 28.0827 32.8195 27.5547 32.8195 26.872V22.28H31.5875V20.648H32.2275C32.5368 20.648 32.7448 20.5787 32.8515 20.44C32.9688 20.2907 33.0275 20.072 33.0275 19.784V18.36H34.8675V20.648H36.5795V22.28H34.8675V27.368H36.4515V29H34.9795ZM41.6694 29.192C41.0507 29.192 40.496 29.0907 40.0054 28.888C39.5254 28.6747 39.1147 28.3813 38.7734 28.008C38.4427 27.624 38.1867 27.1653 38.0054 26.632C37.824 26.088 37.7334 25.48 37.7334 24.808C37.7334 24.1467 37.8187 23.5493 37.9894 23.016C38.1707 22.4827 38.4267 22.0293 38.7574 21.656C39.088 21.272 39.4934 20.9787 39.9734 20.776C40.4534 20.5627 40.9974 20.456 41.6054 20.456C42.256 20.456 42.8214 20.568 43.3014 20.792C43.7814 21.016 44.176 21.32 44.4854 21.704C44.7947 22.088 45.024 22.536 45.1734 23.048C45.3334 23.5493 45.4134 24.088 45.4134 24.664V25.336H39.8614V25.544C39.8614 26.152 40.032 26.6427 40.3734 27.016C40.7147 27.3787 41.2214 27.56 41.8934 27.56C42.4054 27.56 42.8214 27.4533 43.1414 27.24C43.472 27.0267 43.7654 26.7547 44.0214 26.424L45.1254 27.656C44.784 28.136 44.3147 28.5147 43.7174 28.792C43.1307 29.0587 42.448 29.192 41.6694 29.192ZM41.6374 21.992C41.0934 21.992 40.6614 22.1733 40.3414 22.536C40.0214 22.8987 39.8614 23.368 39.8614 23.944V24.072H43.2854V23.928C43.2854 23.352 43.1414 22.888 42.8534 22.536C42.576 22.1733 42.1707 21.992 41.6374 21.992ZM47.2153 29V20.648H49.2633V22.376H49.3433C49.3966 22.152 49.4766 21.9387 49.5833 21.736C49.7006 21.5227 49.8499 21.336 50.0312 21.176C50.2126 21.016 50.4259 20.888 50.6713 20.792C50.9273 20.696 51.2206 20.648 51.5513 20.648H51.9993V22.584H51.3593C50.6659 22.584 50.1433 22.6853 49.7913 22.888C49.4393 23.0907 49.2633 23.4213 49.2633 23.88V29H47.2153ZM53.4965 29V20.648H55.5445V22.04H55.6245C55.7952 21.592 56.0618 21.2187 56.4245 20.92C56.7978 20.6107 57.3098 20.456 57.9605 20.456C58.8245 20.456 59.4858 20.7387 59.9445 21.304C60.4032 21.8693 60.6325 22.6747 60.6325 23.72V29H58.5845V23.928C58.5845 23.3307 58.4778 22.8827 58.2645 22.584C58.0512 22.2853 57.6992 22.136 57.2085 22.136C56.9952 22.136 56.7872 22.168 56.5845 22.232C56.3925 22.2853 56.2165 22.3707 56.0565 22.488C55.9072 22.5947 55.7845 22.7333 55.6885 22.904C55.5925 23.064 55.5445 23.256 55.5445 23.48V29H53.4965ZM69.0468 29C68.5988 29 68.2414 28.872 67.9748 28.616C67.7188 28.3493 67.5588 27.9973 67.4948 27.56H67.3988C67.2601 28.104 66.9774 28.5147 66.5508 28.792C66.1241 29.0587 65.5961 29.192 64.9668 29.192C64.1134 29.192 63.4574 28.968 62.9988 28.52C62.5401 28.072 62.3108 27.4747 62.3108 26.728C62.3108 25.864 62.6201 25.224 63.2388 24.808C63.8574 24.3813 64.7374 24.168 65.8788 24.168H67.3028V23.56C67.3028 23.0907 67.1801 22.728 66.9348 22.472C66.6894 22.216 66.2948 22.088 65.7508 22.088C65.2708 22.088 64.8814 22.1947 64.5828 22.408C64.2948 22.6107 64.0494 22.856 63.8468 23.144L62.6308 22.056C62.9401 21.576 63.3508 21.192 63.8628 20.904C64.3748 20.6053 65.0521 20.456 65.8948 20.456C67.0254 20.456 67.8841 20.712 68.4708 21.224C69.0574 21.736 69.3508 22.472 69.3508 23.432V27.368H70.1828V29H69.0468ZM65.6548 27.704C66.1134 27.704 66.5028 27.6027 66.8228 27.4C67.1428 27.1973 67.3028 26.8987 67.3028 26.504V25.4H65.9908C64.9241 25.4 64.3908 25.7413 64.3908 26.424V26.696C64.3908 27.0373 64.4974 27.2933 64.7108 27.464C64.9348 27.624 65.2494 27.704 65.6548 27.704ZM73.4916 29L70.7076 20.648H72.7236L73.8916 24.248L74.7076 27.224H74.8196L75.6356 24.248L76.7716 20.648H78.7236L75.9236 29H73.4916ZM80.0903 29V20.648H82.1383V22.04H82.2183C82.3889 21.592 82.6556 21.2187 83.0182 20.92C83.3916 20.6107 83.9036 20.456 84.5543 20.456C85.4183 20.456 86.0796 20.7387 86.5383 21.304C86.9969 21.8693 87.2263 22.6747 87.2263 23.72V29H85.1783V23.928C85.1783 23.3307 85.0716 22.8827 84.8583 22.584C84.6449 22.2853 84.2929 22.136 83.8023 22.136C83.5889 22.136 83.3809 22.168 83.1783 22.232C82.9863 22.2853 82.8103 22.3707 82.6503 22.488C82.5009 22.5947 82.3783 22.7333 82.2823 22.904C82.1863 23.064 82.1383 23.256 82.1383 23.48V29H80.0903Z" fill="#1A1A1A"/>
<rect x="17" y="107" width="72" height="38.0001" rx="3" fill="#0059B3"/>
<rect x="18.5" y="142.5" width="69" height="1" stroke="#004993"/>
<path d="M37.31 132.216C36.254 132.216 35.354 132.024 34.61 131.64C33.878 131.256 33.248 130.74 32.72 130.092L34.124 128.778C34.568 129.318 35.054 129.726 35.582 130.002C36.122 130.278 36.734 130.416 37.418 130.416C38.222 130.416 38.828 130.236 39.236 129.876C39.644 129.516 39.848 129.03 39.848 128.418C39.848 127.926 39.704 127.536 39.416 127.248C39.128 126.96 38.618 126.744 37.886 126.6L36.77 126.402C35.546 126.174 34.628 125.772 34.016 125.196C33.404 124.62 33.098 123.828 33.098 122.82C33.098 122.268 33.2 121.77 33.404 121.326C33.62 120.87 33.914 120.492 34.286 120.192C34.67 119.88 35.132 119.64 35.672 119.472C36.212 119.304 36.818 119.22 37.49 119.22C38.438 119.22 39.26 119.388 39.956 119.724C40.652 120.048 41.246 120.522 41.738 121.146L40.316 122.406C39.992 121.986 39.596 121.65 39.128 121.398C38.66 121.146 38.078 121.02 37.382 121.02C36.662 121.02 36.104 121.164 35.708 121.452C35.312 121.74 35.114 122.16 35.114 122.712C35.114 123.24 35.276 123.636 35.6 123.9C35.924 124.152 36.428 124.344 37.112 124.476L38.228 124.71C39.488 124.95 40.406 125.358 40.982 125.934C41.57 126.51 41.864 127.302 41.864 128.31C41.864 128.898 41.762 129.432 41.558 129.912C41.354 130.392 41.054 130.806 40.658 131.154C40.274 131.49 39.8 131.754 39.236 131.946C38.672 132.126 38.03 132.216 37.31 132.216ZM47.8338 132.216C47.1618 132.216 46.5618 132.102 46.0338 131.874C45.5058 131.646 45.0558 131.322 44.6838 130.902C44.3118 130.47 44.0238 129.954 43.8198 129.354C43.6278 128.742 43.5318 128.064 43.5318 127.32C43.5318 126.576 43.6278 125.904 43.8198 125.304C44.0238 124.692 44.3118 124.176 44.6838 123.756C45.0558 123.324 45.5058 122.994 46.0338 122.766C46.5618 122.538 47.1618 122.424 47.8338 122.424C48.5178 122.424 49.1178 122.544 49.6338 122.784C50.1618 123.024 50.5998 123.36 50.9478 123.792C51.2958 124.212 51.5538 124.704 51.7218 125.268C51.9018 125.832 51.9918 126.438 51.9918 127.086V127.824H45.5658V128.13C45.5658 128.85 45.7758 129.444 46.1958 129.912C46.6278 130.368 47.2398 130.596 48.0318 130.596C48.6078 130.596 49.0938 130.47 49.4898 130.218C49.8858 129.966 50.2218 129.624 50.4978 129.192L51.6498 130.326C51.3018 130.902 50.7978 131.364 50.1378 131.712C49.4778 132.048 48.7098 132.216 47.8338 132.216ZM47.8338 123.954C47.4978 123.954 47.1858 124.014 46.8978 124.134C46.6218 124.254 46.3818 124.422 46.1778 124.638C45.9858 124.854 45.8358 125.112 45.7278 125.412C45.6198 125.712 45.5658 126.042 45.5658 126.402V126.528H49.9218V126.348C49.9218 125.628 49.7358 125.052 49.3638 124.62C48.9918 124.176 48.4818 123.954 47.8338 123.954ZM54.1638 132V122.64H56.1258V124.188H56.2158C56.4198 123.684 56.7258 123.264 57.1338 122.928C57.5538 122.592 58.1238 122.424 58.8438 122.424C59.8038 122.424 60.5478 122.742 61.0758 123.378C61.6158 124.002 61.8858 124.896 61.8858 126.06V132H59.9238V126.312C59.9238 124.848 59.3358 124.116 58.1598 124.116C57.9078 124.116 57.6558 124.152 57.4038 124.224C57.1638 124.284 56.9478 124.38 56.7558 124.512C56.5638 124.644 56.4078 124.812 56.2878 125.016C56.1798 125.22 56.1258 125.46 56.1258 125.736V132H54.1638ZM70.4912 130.452H70.4012C70.1972 131.004 69.8612 131.436 69.3932 131.748C68.9372 132.06 68.3972 132.216 67.7732 132.216C66.5852 132.216 65.6672 131.79 65.0192 130.938C64.3712 130.074 64.0472 128.868 64.0472 127.32C64.0472 125.772 64.3712 124.572 65.0192 123.72C65.6672 122.856 66.5852 122.424 67.7732 122.424C68.3972 122.424 68.9372 122.58 69.3932 122.892C69.8612 123.192 70.1972 123.624 70.4012 124.188H70.4912V118.68H72.4532V132H70.4912V130.452ZM68.3672 130.524C68.9672 130.524 69.4712 130.38 69.8792 130.092C70.2872 129.792 70.4912 129.402 70.4912 128.922V125.718C70.4912 125.238 70.2872 124.854 69.8792 124.566C69.4712 124.266 68.9672 124.116 68.3672 124.116C67.6832 124.116 67.1372 124.338 66.7292 124.782C66.3212 125.214 66.1172 125.79 66.1172 126.51V128.13C66.1172 128.85 66.3212 129.432 66.7292 129.876C67.1372 130.308 67.6832 130.524 68.3672 130.524Z" fill="white"/>
<rect x="17" y="107" width="72" height="38.0001" rx="3" stroke="#004993" stroke-width="2"/>
</g>
<defs>
<clipPath id="clip0_5010_48946">
<rect width="418" height="162" fill="white"/>
</clipPath>
</defs>
</svg>
