<svg width="418" height="226" viewBox="0 0 418 226" fill="none" xmlns="http://www.w3.org/2000/svg">
<g clip-path="url(#clip0_5010_48932)">
<rect width="418" height="226" fill="white"/>
<path d="M17.312 29V17.832H24.496V19.704H19.424V22.408H23.84V24.28H19.424V29H17.312ZM29.246 29.192C28.6487 29.192 28.11 29.0907 27.63 28.888C27.1607 28.6853 26.7553 28.392 26.414 28.008C26.0833 27.624 25.8273 27.1653 25.646 26.632C25.4647 26.088 25.374 25.48 25.374 24.808C25.374 24.136 25.4647 23.5333 25.646 23C25.8273 22.4667 26.0833 22.0133 26.414 21.64C26.7553 21.256 27.1607 20.9627 27.63 20.76C28.11 20.5573 28.6487 20.456 29.246 20.456C29.8433 20.456 30.382 20.5573 30.862 20.76C31.342 20.9627 31.7473 21.256 32.078 21.64C32.4193 22.0133 32.6807 22.4667 32.862 23C33.0433 23.5333 33.134 24.136 33.134 24.808C33.134 25.48 33.0433 26.088 32.862 26.632C32.6807 27.1653 32.4193 27.624 32.078 28.008C31.7473 28.392 31.342 28.6853 30.862 28.888C30.382 29.0907 29.8433 29.192 29.246 29.192ZM29.246 27.544C29.79 27.544 30.2167 27.3787 30.526 27.048C30.8353 26.7173 30.99 26.232 30.99 25.592V24.04C30.99 23.4107 30.8353 22.9307 30.526 22.6C30.2167 22.2693 29.79 22.104 29.246 22.104C28.7127 22.104 28.2913 22.2693 27.982 22.6C27.6727 22.9307 27.518 23.4107 27.518 24.04V25.592C27.518 26.232 27.6727 26.7173 27.982 27.048C28.2913 27.3787 28.7127 27.544 29.246 27.544ZM34.9496 29V20.648H36.9976V22.376H37.0776C37.131 22.152 37.211 21.9387 37.3176 21.736C37.435 21.5227 37.5843 21.336 37.7656 21.176C37.947 21.016 38.1603 20.888 38.4056 20.792C38.6616 20.696 38.955 20.648 39.2856 20.648H39.7336V22.584H39.0936C38.4003 22.584 37.8776 22.6853 37.5256 22.888C37.1736 23.0907 36.9976 23.4213 36.9976 23.88V29H34.9496ZM41.2309 29V20.648H43.2789V22.04H43.3589C43.5295 21.592 43.7962 21.2187 44.1589 20.92C44.5322 20.6107 45.0442 20.456 45.6949 20.456C46.5589 20.456 47.2202 20.7387 47.6789 21.304C48.1375 21.8693 48.3669 22.6747 48.3669 23.72V29H46.3189V23.928C46.3189 23.3307 46.2122 22.8827 45.9989 22.584C45.7855 22.2853 45.4335 22.136 44.9429 22.136C44.7295 22.136 44.5215 22.168 44.3189 22.232C44.1269 22.2853 43.9509 22.3707 43.7909 22.488C43.6415 22.5947 43.5189 22.7333 43.4229 22.904C43.3269 23.064 43.2789 23.256 43.2789 23.48V29H41.2309ZM56.7811 29C56.3331 29 55.9758 28.872 55.7091 28.616C55.4531 28.3493 55.2931 27.9973 55.2291 27.56H55.1331C54.9945 28.104 54.7118 28.5147 54.2851 28.792C53.8585 29.0587 53.3305 29.192 52.7011 29.192C51.8478 29.192 51.1918 28.968 50.7331 28.52C50.2745 28.072 50.0451 27.4747 50.0451 26.728C50.0451 25.864 50.3545 25.224 50.9731 24.808C51.5918 24.3813 52.4718 24.168 53.6131 24.168H55.0371V23.56C55.0371 23.0907 54.9145 22.728 54.6691 22.472C54.4238 22.216 54.0291 22.088 53.4851 22.088C53.0051 22.088 52.6158 22.1947 52.3171 22.408C52.0291 22.6107 51.7838 22.856 51.5811 23.144L50.3651 22.056C50.6745 21.576 51.0851 21.192 51.5971 20.904C52.1091 20.6053 52.7865 20.456 53.6291 20.456C54.7598 20.456 55.6185 20.712 56.2051 21.224C56.7918 21.736 57.0851 22.472 57.0851 23.432V27.368H57.9171V29H56.7811ZM53.3891 27.704C53.8478 27.704 54.2371 27.6027 54.5571 27.4C54.8771 27.1973 55.0371 26.8987 55.0371 26.504V25.4H53.7251C52.6585 25.4 52.1251 25.7413 52.1251 26.424V26.696C52.1251 27.0373 52.2318 27.2933 52.4451 27.464C52.6691 27.624 52.9838 27.704 53.3891 27.704ZM61.226 29L58.442 20.648H60.458L61.626 24.248L62.442 27.224H62.554L63.37 24.248L64.506 20.648H66.458L63.658 29H61.226ZM67.8246 29V20.648H69.8726V22.04H69.9526C70.1233 21.592 70.39 21.2187 70.7526 20.92C71.126 20.6107 71.638 20.456 72.2886 20.456C73.1526 20.456 73.814 20.7387 74.2726 21.304C74.7313 21.8693 74.9606 22.6747 74.9606 23.72V29H72.9126V23.928C72.9126 23.3307 72.806 22.8827 72.5926 22.584C72.3793 22.2853 72.0273 22.136 71.5366 22.136C71.3233 22.136 71.1153 22.168 70.9126 22.232C70.7206 22.2853 70.5446 22.3707 70.3846 22.488C70.2353 22.5947 70.1126 22.7333 70.0166 22.904C69.9206 23.064 69.8726 23.256 69.8726 23.48V29H67.8246Z" fill="#1A1A1A"/>
<rect x="16.5" y="43.5" width="239" height="39" rx="3.5" stroke="#747474"/>
<path d="M20.624 109.192C19.7173 109.192 18.944 109.021 18.304 108.68C17.664 108.328 17.12 107.848 16.672 107.24L17.664 106.408C18.0587 106.931 18.496 107.331 18.976 107.608C19.456 107.875 20.0213 108.008 20.672 108.008C21.472 108.008 22.08 107.816 22.496 107.432C22.9227 107.048 23.136 106.536 23.136 105.896C23.136 105.363 22.976 104.952 22.656 104.664C22.336 104.376 21.808 104.147 21.072 103.976L20.16 103.768C19.136 103.533 18.352 103.181 17.808 102.712C17.2747 102.232 17.008 101.56 17.008 100.696C17.008 100.205 17.0987 99.768 17.28 99.384C17.4613 99 17.712 98.68 18.032 98.424C18.3627 98.168 18.752 97.976 19.2 97.848C19.6587 97.7093 20.16 97.64 20.704 97.64C21.5467 97.64 22.2667 97.7947 22.864 98.104C23.472 98.4133 23.984 98.8667 24.4 99.464L23.392 100.2C23.0827 99.7733 22.7093 99.4373 22.272 99.192C21.8347 98.9467 21.2907 98.824 20.64 98.824C19.9253 98.824 19.36 98.9787 18.944 99.288C18.5387 99.5867 18.336 100.04 18.336 100.648C18.336 101.181 18.5067 101.587 18.848 101.864C19.2 102.131 19.728 102.344 20.432 102.504L21.344 102.712C22.4427 102.957 23.2373 103.331 23.728 103.832C24.2187 104.333 24.464 105 24.464 105.832C24.464 106.344 24.3733 106.808 24.192 107.224C24.0213 107.64 23.7707 107.992 23.44 108.28C23.1093 108.568 22.704 108.792 22.224 108.952C21.7547 109.112 21.2213 109.192 20.624 109.192ZM26.6569 97.16H27.9369V104.664H28.0009L29.2649 103.256L31.6009 100.744H33.1529L30.0969 104.008L33.4569 109H31.9049L29.1689 104.792L27.9369 106.056V109H26.6569V97.16ZM35.0944 109V100.744H36.3744V102.264H36.4544C36.6037 101.869 36.8704 101.517 37.2544 101.208C37.6384 100.899 38.1664 100.744 38.8384 100.744H39.3344V102.024H38.5824C37.889 102.024 37.345 102.157 36.9504 102.424C36.5664 102.68 36.3744 103.005 36.3744 103.4V109H35.0944ZM41.6094 98.808C41.332 98.808 41.1294 98.744 41.0014 98.616C40.884 98.4773 40.8254 98.3013 40.8254 98.088V97.88C40.8254 97.6667 40.884 97.496 41.0014 97.368C41.1294 97.2293 41.332 97.16 41.6094 97.16C41.8867 97.16 42.084 97.2293 42.2014 97.368C42.3294 97.496 42.3934 97.6667 42.3934 97.88V98.088C42.3934 98.3013 42.3294 98.4773 42.2014 98.616C42.084 98.744 41.8867 98.808 41.6094 98.808ZM40.9694 100.744H42.2494V109H40.9694V100.744ZM46.7934 109L43.8974 100.744H45.1774L46.6174 104.84L47.5134 107.656H47.5934L48.4894 104.84L49.9614 100.744H51.1934L48.2814 109H46.7934ZM57.0736 101.864H55.7296V100.744H57.0736V99.08C57.0736 98.504 57.223 98.04 57.5216 97.688C57.8203 97.336 58.2736 97.16 58.8816 97.16H60.1296V98.28H58.3536V100.744H60.1296V101.864H58.3536V109H57.0736V101.864ZM64.8706 109.192C64.316 109.192 63.8093 109.091 63.3506 108.888C62.892 108.685 62.4973 108.397 62.1666 108.024C61.8466 107.64 61.596 107.187 61.4146 106.664C61.2333 106.131 61.1426 105.533 61.1426 104.872C61.1426 104.221 61.2333 103.629 61.4146 103.096C61.596 102.563 61.8466 102.109 62.1666 101.736C62.4973 101.352 62.892 101.059 63.3506 100.856C63.8093 100.653 64.316 100.552 64.8706 100.552C65.4253 100.552 65.9266 100.653 66.3746 100.856C66.8333 101.059 67.228 101.352 67.5586 101.736C67.8893 102.109 68.1453 102.563 68.3266 103.096C68.508 103.629 68.5986 104.221 68.5986 104.872C68.5986 105.533 68.508 106.131 68.3266 106.664C68.1453 107.187 67.8893 107.64 67.5586 108.024C67.228 108.397 66.8333 108.685 66.3746 108.888C65.9266 109.091 65.4253 109.192 64.8706 109.192ZM64.8706 108.056C65.564 108.056 66.1293 107.843 66.5666 107.416C67.004 106.989 67.2226 106.339 67.2226 105.464V104.28C67.2226 103.405 67.004 102.755 66.5666 102.328C66.1293 101.901 65.564 101.688 64.8706 101.688C64.1773 101.688 63.612 101.901 63.1746 102.328C62.7373 102.755 62.5186 103.405 62.5186 104.28V105.464C62.5186 106.339 62.7373 106.989 63.1746 107.416C63.612 107.843 64.1773 108.056 64.8706 108.056ZM70.7038 109V100.744H71.9838V102.264H72.0638C72.2131 101.869 72.4798 101.517 72.8638 101.208C73.2478 100.899 73.7758 100.744 74.4478 100.744H74.9438V102.024H74.1918C73.4984 102.024 72.9544 102.157 72.5598 102.424C72.1758 102.68 71.9838 103.005 71.9838 103.4V109H70.7038ZM76.5788 109V100.744H77.8588V102.088H77.9228C78.1254 101.619 78.4081 101.245 78.7708 100.968C79.1441 100.691 79.6401 100.552 80.2588 100.552C81.1121 100.552 81.7841 100.829 82.2748 101.384C82.7761 101.928 83.0268 102.701 83.0268 103.704V109H81.7468V103.928C81.7468 102.445 81.1228 101.704 79.8748 101.704C79.6188 101.704 79.3681 101.736 79.1228 101.8C78.8881 101.864 78.6748 101.96 78.4828 102.088C78.2908 102.216 78.1361 102.381 78.0188 102.584C77.9121 102.776 77.8588 103.005 77.8588 103.272V109H76.5788ZM91.6725 109C91.1925 109 90.8458 108.872 90.6325 108.616C90.4298 108.36 90.3018 108.04 90.2485 107.656H90.1685C89.9872 108.168 89.6885 108.552 89.2725 108.808C88.8565 109.064 88.3605 109.192 87.7845 109.192C86.9098 109.192 86.2272 108.968 85.7365 108.52C85.2565 108.072 85.0165 107.464 85.0165 106.696C85.0165 105.917 85.2992 105.32 85.8645 104.904C86.4405 104.488 87.3312 104.28 88.5365 104.28H90.1685V103.464C90.1685 102.877 90.0085 102.429 89.6885 102.12C89.3685 101.811 88.8778 101.656 88.2165 101.656C87.7152 101.656 87.2938 101.768 86.9525 101.992C86.6218 102.216 86.3445 102.515 86.1205 102.888L85.3525 102.168C85.5765 101.72 85.9338 101.341 86.4245 101.032C86.9152 100.712 87.5338 100.552 88.2805 100.552C89.2832 100.552 90.0618 100.797 90.6165 101.288C91.1712 101.779 91.4485 102.461 91.4485 103.336V107.88H92.3925V109H91.6725ZM87.9925 108.104C88.3125 108.104 88.6058 108.067 88.8725 107.992C89.1392 107.917 89.3685 107.811 89.5605 107.672C89.7525 107.533 89.9018 107.373 90.0085 107.192C90.1152 107.011 90.1685 106.813 90.1685 106.6V105.24H88.4725C87.7365 105.24 87.1978 105.347 86.8565 105.56C86.5258 105.773 86.3605 106.083 86.3605 106.488V106.824C86.3605 107.229 86.5045 107.544 86.7925 107.768C87.0912 107.992 87.4912 108.104 87.9925 108.104ZM95.9184 109L93.0224 100.744H94.3024L95.7424 104.84L96.6384 107.656H96.7184L97.6144 104.84L99.0864 100.744H100.318L97.4064 109H95.9184ZM101.969 109V100.744H103.249V102.088H103.313C103.516 101.619 103.799 101.245 104.161 100.968C104.535 100.691 105.031 100.552 105.649 100.552C106.503 100.552 107.175 100.829 107.665 101.384C108.167 101.928 108.417 102.701 108.417 103.704V109H107.137V103.928C107.137 102.445 106.513 101.704 105.265 101.704C105.009 101.704 104.759 101.736 104.513 101.8C104.279 101.864 104.065 101.96 103.873 102.088C103.681 102.216 103.527 102.381 103.409 102.584C103.303 102.776 103.249 103.005 103.249 103.272V109H101.969ZM117.964 109.192C117.41 109.192 116.903 109.091 116.444 108.888C115.986 108.685 115.591 108.397 115.26 108.024C114.94 107.64 114.69 107.187 114.508 106.664C114.327 106.131 114.236 105.533 114.236 104.872C114.236 104.221 114.327 103.629 114.508 103.096C114.69 102.563 114.94 102.109 115.26 101.736C115.591 101.352 115.986 101.059 116.444 100.856C116.903 100.653 117.41 100.552 117.964 100.552C118.519 100.552 119.02 100.653 119.468 100.856C119.927 101.059 120.322 101.352 120.652 101.736C120.983 102.109 121.239 102.563 121.42 103.096C121.602 103.629 121.692 104.221 121.692 104.872C121.692 105.533 121.602 106.131 121.42 106.664C121.239 107.187 120.983 107.64 120.652 108.024C120.322 108.397 119.927 108.685 119.468 108.888C119.02 109.091 118.519 109.192 117.964 109.192ZM117.964 108.056C118.658 108.056 119.223 107.843 119.66 107.416C120.098 106.989 120.316 106.339 120.316 105.464V104.28C120.316 103.405 120.098 102.755 119.66 102.328C119.223 101.901 118.658 101.688 117.964 101.688C117.271 101.688 116.706 101.901 116.268 102.328C115.831 102.755 115.612 103.405 115.612 104.28V105.464C115.612 106.339 115.831 106.989 116.268 107.416C116.706 107.843 117.271 108.056 117.964 108.056ZM130.758 109.912C130.758 110.765 130.422 111.389 129.75 111.784C129.088 112.189 128.091 112.392 126.758 112.392C125.467 112.392 124.539 112.216 123.974 111.864C123.408 111.512 123.126 111.011 123.126 110.36C123.126 109.912 123.243 109.56 123.478 109.304C123.712 109.059 124.032 108.877 124.438 108.76V108.584C123.947 108.349 123.702 107.965 123.702 107.432C123.702 107.016 123.835 106.701 124.102 106.488C124.368 106.264 124.71 106.099 125.126 105.992V105.928C124.635 105.693 124.251 105.357 123.974 104.92C123.707 104.483 123.574 103.976 123.574 103.4C123.574 102.984 123.648 102.6 123.798 102.248C123.947 101.896 124.155 101.597 124.422 101.352C124.699 101.096 125.024 100.899 125.398 100.76C125.782 100.621 126.208 100.552 126.678 100.552C127.264 100.552 127.787 100.659 128.246 100.872V100.728C128.246 100.408 128.32 100.147 128.47 99.944C128.619 99.7307 128.864 99.624 129.206 99.624H130.438V100.744H128.87V101.272C129.168 101.528 129.398 101.837 129.558 102.2C129.728 102.552 129.814 102.952 129.814 103.4C129.814 103.816 129.739 104.2 129.59 104.552C129.44 104.904 129.227 105.208 128.95 105.464C128.683 105.709 128.358 105.901 127.974 106.04C127.59 106.179 127.163 106.248 126.694 106.248C126.427 106.248 126.16 106.221 125.894 106.168C125.616 106.243 125.366 106.355 125.142 106.504C124.918 106.643 124.806 106.84 124.806 107.096C124.806 107.341 124.923 107.507 125.158 107.592C125.392 107.677 125.696 107.72 126.07 107.72H127.83C128.854 107.72 129.595 107.917 130.054 108.312C130.523 108.696 130.758 109.229 130.758 109.912ZM129.558 110.008C129.558 109.677 129.43 109.411 129.174 109.208C128.928 109.016 128.486 108.92 127.846 108.92H125.094C124.582 109.155 124.326 109.528 124.326 110.04C124.326 110.403 124.459 110.712 124.726 110.968C125.003 111.224 125.467 111.352 126.118 111.352H127.302C128.016 111.352 128.571 111.24 128.966 111.016C129.36 110.792 129.558 110.456 129.558 110.008ZM126.694 105.224C127.238 105.224 127.67 105.096 127.99 104.84C128.31 104.573 128.47 104.168 128.47 103.624V103.176C128.47 102.632 128.31 102.232 127.99 101.976C127.67 101.709 127.238 101.576 126.694 101.576C126.15 101.576 125.718 101.709 125.398 101.976C125.078 102.232 124.918 102.632 124.918 103.176V103.624C124.918 104.168 125.078 104.573 125.398 104.84C125.718 105.096 126.15 105.224 126.694 105.224ZM139.136 109.192C138.571 109.192 138.059 109.091 137.6 108.888C137.152 108.685 136.763 108.397 136.432 108.024C136.112 107.64 135.861 107.187 135.68 106.664C135.509 106.131 135.424 105.533 135.424 104.872C135.424 104.221 135.509 103.629 135.68 103.096C135.861 102.563 136.112 102.109 136.432 101.736C136.763 101.352 137.152 101.059 137.6 100.856C138.059 100.653 138.571 100.552 139.136 100.552C139.691 100.552 140.187 100.653 140.624 100.856C141.061 101.059 141.435 101.341 141.744 101.704C142.053 102.056 142.288 102.477 142.448 102.968C142.619 103.459 142.704 103.997 142.704 104.584V105.192H136.768V105.576C136.768 105.928 136.821 106.259 136.928 106.568C137.045 106.867 137.205 107.128 137.408 107.352C137.621 107.576 137.877 107.752 138.176 107.88C138.485 108.008 138.832 108.072 139.216 108.072C139.739 108.072 140.192 107.949 140.576 107.704C140.971 107.459 141.275 107.107 141.488 106.648L142.4 107.304C142.133 107.869 141.717 108.328 141.152 108.68C140.587 109.021 139.915 109.192 139.136 109.192ZM139.136 101.624C138.784 101.624 138.464 101.688 138.176 101.816C137.888 101.933 137.637 102.104 137.424 102.328C137.221 102.552 137.061 102.819 136.944 103.128C136.827 103.427 136.768 103.757 136.768 104.12V104.232H141.328V104.056C141.328 103.32 141.125 102.733 140.72 102.296C140.325 101.848 139.797 101.624 139.136 101.624ZM146.512 109L143.616 100.744H144.896L146.336 104.84L147.232 107.656H147.312L148.208 104.84L149.68 100.744H150.912L148 109H146.512ZM154.434 109C153.986 109 153.645 108.877 153.41 108.632C153.186 108.376 153.074 108.045 153.074 107.64V101.864H151.714V100.744H152.482C152.759 100.744 152.946 100.691 153.042 100.584C153.149 100.467 153.202 100.269 153.202 99.992V98.456H154.354V100.744H156.162V101.864H154.354V107.88H156.034V109H154.434ZM159.035 109.192C158.694 109.192 158.443 109.107 158.283 108.936C158.134 108.765 158.059 108.541 158.059 108.264V108.056C158.059 107.779 158.134 107.555 158.283 107.384C158.443 107.213 158.694 107.128 159.035 107.128C159.377 107.128 159.622 107.213 159.771 107.384C159.931 107.555 160.011 107.779 160.011 108.056V108.264C160.011 108.541 159.931 108.765 159.771 108.936C159.622 109.107 159.377 109.192 159.035 109.192ZM166.36 109V100.744H167.64V102.088H167.704C167.8 101.875 167.907 101.677 168.024 101.496C168.152 101.304 168.301 101.139 168.472 101C168.653 100.861 168.861 100.755 169.096 100.68C169.331 100.595 169.608 100.552 169.928 100.552C170.472 100.552 170.973 100.685 171.432 100.952C171.891 101.208 172.232 101.635 172.456 102.232H172.488C172.637 101.784 172.915 101.395 173.32 101.064C173.736 100.723 174.296 100.552 175 100.552C175.843 100.552 176.499 100.829 176.968 101.384C177.448 101.928 177.688 102.701 177.688 103.704V109H176.408V103.928C176.408 103.192 176.264 102.637 175.976 102.264C175.688 101.891 175.229 101.704 174.6 101.704C174.344 101.704 174.099 101.736 173.864 101.8C173.64 101.864 173.437 101.96 173.256 102.088C173.075 102.216 172.931 102.381 172.824 102.584C172.717 102.776 172.664 103.005 172.664 103.272V109H171.384V103.928C171.384 103.192 171.24 102.637 170.952 102.264C170.664 101.891 170.216 101.704 169.608 101.704C169.352 101.704 169.107 101.736 168.872 101.8C168.637 101.864 168.429 101.96 168.248 102.088C168.067 102.216 167.917 102.381 167.8 102.584C167.693 102.776 167.64 103.005 167.64 103.272V109H166.36ZM183.433 109.192C182.867 109.192 182.355 109.091 181.897 108.888C181.449 108.685 181.059 108.397 180.729 108.024C180.409 107.64 180.158 107.187 179.977 106.664C179.806 106.131 179.721 105.533 179.721 104.872C179.721 104.221 179.806 103.629 179.977 103.096C180.158 102.563 180.409 102.109 180.729 101.736C181.059 101.352 181.449 101.059 181.897 100.856C182.355 100.653 182.867 100.552 183.433 100.552C183.987 100.552 184.483 100.653 184.921 100.856C185.358 101.059 185.731 101.341 186.041 101.704C186.35 102.056 186.585 102.477 186.745 102.968C186.915 103.459 187.001 103.997 187.001 104.584V105.192H181.065V105.576C181.065 105.928 181.118 106.259 181.225 106.568C181.342 106.867 181.502 107.128 181.705 107.352C181.918 107.576 182.174 107.752 182.473 107.88C182.782 108.008 183.129 108.072 183.513 108.072C184.035 108.072 184.489 107.949 184.873 107.704C185.267 107.459 185.571 107.107 185.785 106.648L186.697 107.304C186.43 107.869 186.014 108.328 185.449 108.68C184.883 109.021 184.211 109.192 183.433 109.192ZM183.433 101.624C183.081 101.624 182.761 101.688 182.473 101.816C182.185 101.933 181.934 102.104 181.721 102.328C181.518 102.552 181.358 102.819 181.241 103.128C181.123 103.427 181.065 103.757 181.065 104.12V104.232H185.625V104.056C185.625 103.32 185.422 102.733 185.017 102.296C184.622 101.848 184.094 101.624 183.433 101.624ZM190.47 109C190.022 109 189.681 108.877 189.446 108.632C189.222 108.376 189.11 108.056 189.11 107.672V97.16H190.39V107.88H191.606V109H190.47ZM194.751 109C194.303 109 193.962 108.877 193.727 108.632C193.503 108.376 193.391 108.056 193.391 107.672V97.16H194.671V107.88H195.887V109H194.751ZM200.855 109.192C200.289 109.192 199.777 109.091 199.319 108.888C198.871 108.685 198.481 108.397 198.151 108.024C197.831 107.64 197.58 107.187 197.399 106.664C197.228 106.131 197.143 105.533 197.143 104.872C197.143 104.221 197.228 103.629 197.399 103.096C197.58 102.563 197.831 102.109 198.151 101.736C198.481 101.352 198.871 101.059 199.319 100.856C199.777 100.653 200.289 100.552 200.855 100.552C201.409 100.552 201.905 100.653 202.343 100.856C202.78 101.059 203.153 101.341 203.463 101.704C203.772 102.056 204.007 102.477 204.167 102.968C204.337 103.459 204.423 103.997 204.423 104.584V105.192H198.487V105.576C198.487 105.928 198.54 106.259 198.647 106.568C198.764 106.867 198.924 107.128 199.127 107.352C199.34 107.576 199.596 107.752 199.895 107.88C200.204 108.008 200.551 108.072 200.935 108.072C201.457 108.072 201.911 107.949 202.295 107.704C202.689 107.459 202.993 107.107 203.207 106.648L204.119 107.304C203.852 107.869 203.436 108.328 202.871 108.68C202.305 109.021 201.633 109.192 200.855 109.192ZM200.855 101.624C200.503 101.624 200.183 101.688 199.895 101.816C199.607 101.933 199.356 102.104 199.143 102.328C198.94 102.552 198.78 102.819 198.663 103.128C198.545 103.427 198.487 103.757 198.487 104.12V104.232H203.047V104.056C203.047 103.32 202.844 102.733 202.439 102.296C202.044 101.848 201.516 101.624 200.855 101.624ZM206.532 109V100.744H207.812V102.088H207.876C207.972 101.875 208.079 101.677 208.196 101.496C208.324 101.304 208.473 101.139 208.644 101C208.825 100.861 209.033 100.755 209.268 100.68C209.503 100.595 209.78 100.552 210.1 100.552C210.644 100.552 211.145 100.685 211.604 100.952C212.063 101.208 212.404 101.635 212.628 102.232H212.66C212.809 101.784 213.087 101.395 213.492 101.064C213.908 100.723 214.468 100.552 215.172 100.552C216.015 100.552 216.671 100.829 217.14 101.384C217.62 101.928 217.86 102.701 217.86 103.704V109H216.58V103.928C216.58 103.192 216.436 102.637 216.148 102.264C215.86 101.891 215.401 101.704 214.772 101.704C214.516 101.704 214.271 101.736 214.036 101.8C213.812 101.864 213.609 101.96 213.428 102.088C213.247 102.216 213.103 102.381 212.996 102.584C212.889 102.776 212.836 103.005 212.836 103.272V109H211.556V103.928C211.556 103.192 211.412 102.637 211.124 102.264C210.836 101.891 210.388 101.704 209.78 101.704C209.524 101.704 209.279 101.736 209.044 101.8C208.809 101.864 208.601 101.96 208.42 102.088C208.239 102.216 208.089 102.381 207.972 102.584C207.865 102.776 207.812 103.005 207.812 103.272V109H206.532ZM220.501 109V100.744H221.781V102.088H221.845C222.047 101.619 222.33 101.245 222.693 100.968C223.066 100.691 223.562 100.552 224.181 100.552C225.034 100.552 225.706 100.829 226.197 101.384C226.698 101.928 226.949 102.701 226.949 103.704V109H225.669V103.928C225.669 102.445 225.045 101.704 223.797 101.704C223.541 101.704 223.29 101.736 223.045 101.8C222.81 101.864 222.597 101.96 222.405 102.088C222.213 102.216 222.058 102.381 221.941 102.584C221.834 102.776 221.781 103.005 221.781 103.272V109H220.501ZM235.594 109C235.114 109 234.768 108.872 234.554 108.616C234.352 108.36 234.224 108.04 234.17 107.656H234.09C233.909 108.168 233.61 108.552 233.194 108.808C232.778 109.064 232.282 109.192 231.706 109.192C230.832 109.192 230.149 108.968 229.658 108.52C229.178 108.072 228.938 107.464 228.938 106.696C228.938 105.917 229.221 105.32 229.786 104.904C230.362 104.488 231.253 104.28 232.458 104.28H234.09V103.464C234.09 102.877 233.93 102.429 233.61 102.12C233.29 101.811 232.8 101.656 232.138 101.656C231.637 101.656 231.216 101.768 230.874 101.992C230.544 102.216 230.266 102.515 230.042 102.888L229.274 102.168C229.498 101.72 229.856 101.341 230.346 101.032C230.837 100.712 231.456 100.552 232.202 100.552C233.205 100.552 233.984 100.797 234.538 101.288C235.093 101.779 235.37 102.461 235.37 103.336V107.88H236.314V109H235.594ZM231.914 108.104C232.234 108.104 232.528 108.067 232.794 107.992C233.061 107.917 233.29 107.811 233.482 107.672C233.674 107.533 233.824 107.373 233.93 107.192C234.037 107.011 234.09 106.813 234.09 106.6V105.24H232.394C231.658 105.24 231.12 105.347 230.778 105.56C230.448 105.773 230.282 106.083 230.282 106.488V106.824C230.282 107.229 230.426 107.544 230.714 107.768C231.013 107.992 231.413 108.104 231.914 108.104ZM239.84 109L236.944 100.744H238.224L239.664 104.84L240.56 107.656H240.64L241.536 104.84L243.008 100.744H244.24L241.328 109H239.84ZM245.891 109V100.744H247.171V102.088H247.235C247.438 101.619 247.721 101.245 248.083 100.968C248.457 100.691 248.953 100.552 249.571 100.552C250.425 100.552 251.097 100.829 251.587 101.384C252.089 101.928 252.339 102.701 252.339 103.704V109H251.059V103.928C251.059 102.445 250.435 101.704 249.187 101.704C248.931 101.704 248.681 101.736 248.435 101.8C248.201 101.864 247.987 101.96 247.795 102.088C247.603 102.216 247.449 102.381 247.331 102.584C247.225 102.776 247.171 103.005 247.171 103.272V109H245.891ZM254.953 104.008C254.953 103.24 255.028 102.499 255.177 101.784C255.326 101.069 255.529 100.408 255.785 99.8C256.052 99.1813 256.361 98.6213 256.713 98.12C257.065 97.6187 257.444 97.192 257.849 96.84H259.065C258.617 97.2453 258.212 97.704 257.849 98.216C257.497 98.728 257.193 99.272 256.937 99.848C256.692 100.424 256.5 101.011 256.361 101.608C256.222 102.205 256.153 102.781 256.153 103.336V104.712C256.153 105.277 256.222 105.859 256.361 106.456C256.5 107.053 256.697 107.64 256.953 108.216C257.209 108.792 257.513 109.336 257.865 109.848C258.228 110.36 258.628 110.808 259.065 111.192H257.849C257.454 110.861 257.081 110.445 256.729 109.944C256.377 109.443 256.068 108.883 255.801 108.264C255.545 107.645 255.337 106.979 255.177 106.264C255.028 105.539 254.953 104.787 254.953 104.008ZM263.448 109.192C262.883 109.192 262.371 109.091 261.912 108.888C261.464 108.685 261.075 108.397 260.744 108.024C260.424 107.64 260.174 107.187 259.992 106.664C259.822 106.131 259.736 105.533 259.736 104.872C259.736 104.221 259.822 103.629 259.992 103.096C260.174 102.563 260.424 102.109 260.744 101.736C261.075 101.352 261.464 101.059 261.912 100.856C262.371 100.653 262.883 100.552 263.448 100.552C264.003 100.552 264.499 100.653 264.936 100.856C265.374 101.059 265.747 101.341 266.056 101.704C266.366 102.056 266.6 102.477 266.76 102.968C266.931 103.459 267.016 103.997 267.016 104.584V105.192H261.08V105.576C261.08 105.928 261.134 106.259 261.24 106.568C261.358 106.867 261.518 107.128 261.72 107.352C261.934 107.576 262.19 107.752 262.488 107.88C262.798 108.008 263.144 108.072 263.528 108.072C264.051 108.072 264.504 107.949 264.888 107.704C265.283 107.459 265.587 107.107 265.8 106.648L266.712 107.304C266.446 107.869 266.03 108.328 265.464 108.68C264.899 109.021 264.227 109.192 263.448 109.192ZM263.448 101.624C263.096 101.624 262.776 101.688 262.488 101.816C262.2 101.933 261.95 102.104 261.736 102.328C261.534 102.552 261.374 102.819 261.256 103.128C261.139 103.427 261.08 103.757 261.08 104.12V104.232H265.64V104.056C265.64 103.32 265.438 102.733 265.032 102.296C264.638 101.848 264.11 101.624 263.448 101.624ZM271.798 104.008C271.798 104.787 271.718 105.539 271.558 106.264C271.408 106.979 271.2 107.645 270.934 108.264C270.678 108.883 270.374 109.443 270.022 109.944C269.67 110.445 269.296 110.861 268.902 111.192H267.686C268.123 110.808 268.518 110.36 268.87 109.848C269.232 109.336 269.542 108.792 269.798 108.216C270.054 107.64 270.251 107.053 270.39 106.456C270.528 105.859 270.598 105.277 270.598 104.712V103.336C270.598 102.781 270.528 102.205 270.39 101.608C270.251 101.011 270.054 100.424 269.798 99.848C269.552 99.272 269.248 98.728 268.886 98.216C268.534 97.704 268.134 97.2453 267.686 96.84H268.902C269.307 97.192 269.686 97.6187 270.038 98.12C270.39 98.6213 270.694 99.1813 270.95 99.8C271.216 100.408 271.424 101.069 271.574 101.784C271.723 102.499 271.798 103.24 271.798 104.008ZM280.746 109.192C279.978 109.192 279.333 109.048 278.81 108.76C278.298 108.461 277.856 108.067 277.482 107.576L278.394 106.84C278.714 107.245 279.072 107.56 279.466 107.784C279.861 107.997 280.32 108.104 280.842 108.104C281.386 108.104 281.808 107.987 282.106 107.752C282.416 107.517 282.57 107.187 282.57 106.76C282.57 106.44 282.464 106.168 282.25 105.944C282.048 105.709 281.674 105.549 281.13 105.464L280.474 105.368C280.09 105.315 279.738 105.235 279.418 105.128C279.098 105.011 278.816 104.861 278.57 104.68C278.336 104.488 278.149 104.253 278.01 103.976C277.882 103.699 277.818 103.368 277.818 102.984C277.818 102.579 277.893 102.227 278.042 101.928C278.192 101.619 278.394 101.363 278.65 101.16C278.917 100.957 279.232 100.808 279.594 100.712C279.957 100.605 280.346 100.552 280.762 100.552C281.434 100.552 281.994 100.669 282.442 100.904C282.901 101.139 283.301 101.464 283.642 101.88L282.794 102.648C282.613 102.392 282.346 102.163 281.994 101.96C281.642 101.747 281.2 101.64 280.666 101.64C280.133 101.64 279.728 101.757 279.45 101.992C279.184 102.216 279.05 102.525 279.05 102.92C279.05 103.325 279.184 103.619 279.45 103.8C279.728 103.981 280.122 104.115 280.634 104.2L281.274 104.296C282.192 104.435 282.842 104.701 283.226 105.096C283.61 105.48 283.802 105.987 283.802 106.616C283.802 107.416 283.53 108.045 282.986 108.504C282.442 108.963 281.696 109.192 280.746 109.192ZM289.183 109.192C288.628 109.192 288.122 109.091 287.663 108.888C287.204 108.685 286.81 108.397 286.479 108.024C286.159 107.64 285.908 107.187 285.727 106.664C285.546 106.131 285.455 105.533 285.455 104.872C285.455 104.221 285.546 103.629 285.727 103.096C285.908 102.563 286.159 102.109 286.479 101.736C286.81 101.352 287.204 101.059 287.663 100.856C288.122 100.653 288.628 100.552 289.183 100.552C289.738 100.552 290.239 100.653 290.687 100.856C291.146 101.059 291.54 101.352 291.871 101.736C292.202 102.109 292.458 102.563 292.639 103.096C292.82 103.629 292.911 104.221 292.911 104.872C292.911 105.533 292.82 106.131 292.639 106.664C292.458 107.187 292.202 107.64 291.871 108.024C291.54 108.397 291.146 108.685 290.687 108.888C290.239 109.091 289.738 109.192 289.183 109.192ZM289.183 108.056C289.876 108.056 290.442 107.843 290.879 107.416C291.316 106.989 291.535 106.339 291.535 105.464V104.28C291.535 103.405 291.316 102.755 290.879 102.328C290.442 101.901 289.876 101.688 289.183 101.688C288.49 101.688 287.924 101.901 287.487 102.328C287.05 102.755 286.831 103.405 286.831 104.28V105.464C286.831 106.339 287.05 106.989 287.487 107.416C287.924 107.843 288.49 108.056 289.183 108.056ZM295.016 109V100.744H296.296V102.088H296.36C296.456 101.875 296.563 101.677 296.68 101.496C296.808 101.304 296.958 101.139 297.128 101C297.31 100.861 297.518 100.755 297.752 100.68C297.987 100.595 298.264 100.552 298.584 100.552C299.128 100.552 299.63 100.685 300.088 100.952C300.547 101.208 300.888 101.635 301.112 102.232H301.144C301.294 101.784 301.571 101.395 301.976 101.064C302.392 100.723 302.952 100.552 303.656 100.552C304.499 100.552 305.155 100.829 305.624 101.384C306.104 101.928 306.344 102.701 306.344 103.704V109H305.064V103.928C305.064 103.192 304.92 102.637 304.632 102.264C304.344 101.891 303.886 101.704 303.256 101.704C303 101.704 302.755 101.736 302.52 101.8C302.296 101.864 302.094 101.96 301.912 102.088C301.731 102.216 301.587 102.381 301.48 102.584C301.374 102.776 301.32 103.005 301.32 103.272V109H300.04V103.928C300.04 103.192 299.896 102.637 299.608 102.264C299.32 101.891 298.872 101.704 298.264 101.704C298.008 101.704 297.763 101.736 297.528 101.8C297.294 101.864 297.086 101.96 296.904 102.088C296.723 102.216 296.574 102.381 296.456 102.584C296.35 102.776 296.296 103.005 296.296 103.272V109H295.016ZM313.406 98.808C313.129 98.808 312.926 98.744 312.798 98.616C312.681 98.4773 312.622 98.3013 312.622 98.088V97.88C312.622 97.6667 312.681 97.496 312.798 97.368C312.926 97.2293 313.129 97.16 313.406 97.16C313.684 97.16 313.881 97.2293 313.998 97.368C314.126 97.496 314.19 97.6667 314.19 97.88V98.088C314.19 98.3013 314.126 98.4773 313.998 98.616C313.881 98.744 313.684 98.808 313.406 98.808ZM312.766 100.744H314.046V109H312.766V100.744ZM325.828 107.656H325.764C325.262 108.68 324.457 109.192 323.348 109.192C322.836 109.192 322.372 109.091 321.956 108.888C321.54 108.685 321.182 108.397 320.884 108.024C320.596 107.651 320.372 107.197 320.212 106.664C320.062 106.131 319.988 105.533 319.988 104.872C319.988 104.211 320.062 103.613 320.212 103.08C320.372 102.547 320.596 102.093 320.884 101.72C321.182 101.347 321.54 101.059 321.956 100.856C322.372 100.653 322.836 100.552 323.348 100.552C323.924 100.552 324.414 100.68 324.82 100.936C325.236 101.181 325.55 101.565 325.764 102.088H325.828V97.16H327.108V109H325.828V107.656ZM323.7 108.04C323.988 108.04 324.26 108.003 324.516 107.928C324.782 107.853 325.012 107.747 325.204 107.608C325.396 107.459 325.545 107.283 325.652 107.08C325.769 106.867 325.828 106.627 325.828 106.36V103.288C325.828 103.064 325.769 102.856 325.652 102.664C325.545 102.461 325.396 102.291 325.204 102.152C325.012 102.013 324.782 101.907 324.516 101.832C324.26 101.747 323.988 101.704 323.7 101.704C322.974 101.704 322.404 101.933 321.988 102.392C321.572 102.84 321.364 103.432 321.364 104.168V105.576C321.364 106.312 321.572 106.909 321.988 107.368C322.404 107.816 322.974 108.04 323.7 108.04ZM330.469 98.808C330.191 98.808 329.989 98.744 329.861 98.616C329.743 98.4773 329.685 98.3013 329.685 98.088V97.88C329.685 97.6667 329.743 97.496 329.861 97.368C329.989 97.2293 330.191 97.16 330.469 97.16C330.746 97.16 330.943 97.2293 331.061 97.368C331.189 97.496 331.253 97.6667 331.253 97.88V98.088C331.253 98.3013 331.189 98.4773 331.061 98.616C330.943 98.744 330.746 98.808 330.469 98.808ZM329.829 100.744H331.109V109H329.829V100.744ZM335.653 109C335.205 109 334.863 108.877 334.629 108.632C334.405 108.376 334.293 108.045 334.293 107.64V101.864H332.933V100.744H333.701C333.978 100.744 334.165 100.691 334.261 100.584C334.367 100.467 334.421 100.269 334.421 99.992V98.456H335.573V100.744H337.381V101.864H335.573V107.88H337.253V109H335.653ZM343.219 100.744H344.499V102.088H344.563C344.777 101.565 345.086 101.181 345.491 100.936C345.907 100.68 346.403 100.552 346.979 100.552C347.491 100.552 347.955 100.653 348.371 100.856C348.787 101.059 349.139 101.347 349.427 101.72C349.726 102.093 349.95 102.547 350.099 103.08C350.259 103.613 350.339 104.211 350.339 104.872C350.339 105.533 350.259 106.131 350.099 106.664C349.95 107.197 349.726 107.651 349.427 108.024C349.139 108.397 348.787 108.685 348.371 108.888C347.955 109.091 347.491 109.192 346.979 109.192C345.859 109.192 345.054 108.68 344.563 107.656H344.499V112.2H343.219V100.744ZM346.627 108.04C347.353 108.04 347.923 107.816 348.339 107.368C348.755 106.909 348.963 106.312 348.963 105.576V104.168C348.963 103.432 348.755 102.84 348.339 102.392C347.923 101.933 347.353 101.704 346.627 101.704C346.339 101.704 346.062 101.747 345.795 101.832C345.539 101.907 345.315 102.013 345.123 102.152C344.931 102.291 344.777 102.461 344.659 102.664C344.553 102.856 344.499 103.064 344.499 103.288V106.36C344.499 106.627 344.553 106.867 344.659 107.08C344.777 107.283 344.931 107.459 345.123 107.608C345.315 107.747 345.539 107.853 345.795 107.928C346.062 108.003 346.339 108.04 346.627 108.04ZM358.501 109C358.021 109 357.674 108.872 357.461 108.616C357.258 108.36 357.13 108.04 357.077 107.656H356.997C356.815 108.168 356.517 108.552 356.101 108.808C355.685 109.064 355.189 109.192 354.613 109.192C353.738 109.192 353.055 108.968 352.565 108.52C352.085 108.072 351.845 107.464 351.845 106.696C351.845 105.917 352.127 105.32 352.693 104.904C353.269 104.488 354.159 104.28 355.365 104.28H356.997V103.464C356.997 102.877 356.837 102.429 356.517 102.12C356.197 101.811 355.706 101.656 355.045 101.656C354.543 101.656 354.122 101.768 353.781 101.992C353.45 102.216 353.173 102.515 352.949 102.888L352.181 102.168C352.405 101.72 352.762 101.341 353.253 101.032C353.743 100.712 354.362 100.552 355.109 100.552C356.111 100.552 356.89 100.797 357.445 101.288C357.999 101.779 358.277 102.461 358.277 103.336V107.88H359.221V109H358.501ZM354.821 108.104C355.141 108.104 355.434 108.067 355.701 107.992C355.967 107.917 356.197 107.811 356.389 107.672C356.581 107.533 356.73 107.373 356.837 107.192C356.943 107.011 356.997 106.813 356.997 106.6V105.24H355.301C354.565 105.24 354.026 105.347 353.685 105.56C353.354 105.773 353.189 106.083 353.189 106.488V106.824C353.189 107.229 353.333 107.544 353.621 107.768C353.919 107.992 354.319 108.104 354.821 108.104ZM363.528 109.192C362.76 109.192 362.114 109.048 361.592 108.76C361.08 108.461 360.637 108.067 360.264 107.576L361.176 106.84C361.496 107.245 361.853 107.56 362.248 107.784C362.642 107.997 363.101 108.104 363.624 108.104C364.168 108.104 364.589 107.987 364.888 107.752C365.197 107.517 365.352 107.187 365.352 106.76C365.352 106.44 365.245 106.168 365.032 105.944C364.829 105.709 364.456 105.549 363.911 105.464L363.256 105.368C362.872 105.315 362.52 105.235 362.2 105.128C361.88 105.011 361.597 104.861 361.352 104.68C361.117 104.488 360.93 104.253 360.792 103.976C360.664 103.699 360.6 103.368 360.6 102.984C360.6 102.579 360.674 102.227 360.824 101.928C360.973 101.619 361.176 101.363 361.432 101.16C361.698 100.957 362.013 100.808 362.376 100.712C362.738 100.605 363.128 100.552 363.544 100.552C364.216 100.552 364.776 100.669 365.224 100.904C365.682 101.139 366.082 101.464 366.424 101.88L365.576 102.648C365.394 102.392 365.128 102.163 364.776 101.96C364.424 101.747 363.981 101.64 363.448 101.64C362.914 101.64 362.509 101.757 362.232 101.992C361.965 102.216 361.832 102.525 361.832 102.92C361.832 103.325 361.965 103.619 362.232 103.8C362.509 103.981 362.904 104.115 363.416 104.2L364.056 104.296C364.973 104.435 365.624 104.701 366.008 105.096C366.392 105.48 366.584 105.987 366.584 106.616C366.584 107.416 366.312 108.045 365.768 108.504C365.224 108.963 364.477 109.192 363.528 109.192Z" fill="#747474"/>
<rect x="16.5" y="170.5" width="239" height="39" rx="3.5" stroke="#747474"/>
<path d="M17.312 157V145.832H24.672V147.704H19.424V150.408H24.064V152.28H19.424V155.128H24.672V157H17.312ZM27.1938 150.264H25.9618V148.648H27.1938V147.448C27.1938 146.712 27.3858 146.147 27.7698 145.752C28.1644 145.357 28.7404 145.16 29.4978 145.16H30.9538V146.792H29.2418V148.648H30.9538V150.264H29.2418V157H27.1938V150.264ZM34.9795 157C34.2755 157 33.7368 156.819 33.3635 156.456C33.0008 156.083 32.8195 155.555 32.8195 154.872V150.28H31.5875V148.648H32.2275C32.5368 148.648 32.7448 148.579 32.8515 148.44C32.9688 148.291 33.0275 148.072 33.0275 147.784V146.36H34.8675V148.648H36.5795V150.28H34.8675V155.368H36.4515V157H34.9795ZM41.6694 157.192C41.0507 157.192 40.496 157.091 40.0054 156.888C39.5254 156.675 39.1147 156.381 38.7734 156.008C38.4427 155.624 38.1867 155.165 38.0054 154.632C37.824 154.088 37.7334 153.48 37.7334 152.808C37.7334 152.147 37.8187 151.549 37.9894 151.016C38.1707 150.483 38.4267 150.029 38.7574 149.656C39.088 149.272 39.4934 148.979 39.9734 148.776C40.4534 148.563 40.9974 148.456 41.6054 148.456C42.256 148.456 42.8214 148.568 43.3014 148.792C43.7814 149.016 44.176 149.32 44.4854 149.704C44.7947 150.088 45.024 150.536 45.1734 151.048C45.3334 151.549 45.4134 152.088 45.4134 152.664V153.336H39.8614V153.544C39.8614 154.152 40.032 154.643 40.3734 155.016C40.7147 155.379 41.2214 155.56 41.8934 155.56C42.4054 155.56 42.8214 155.453 43.1414 155.24C43.472 155.027 43.7654 154.755 44.0214 154.424L45.1254 155.656C44.784 156.136 44.3147 156.515 43.7174 156.792C43.1307 157.059 42.448 157.192 41.6694 157.192ZM41.6374 149.992C41.0934 149.992 40.6614 150.173 40.3414 150.536C40.0214 150.899 39.8614 151.368 39.8614 151.944V152.072H43.2854V151.928C43.2854 151.352 43.1414 150.888 42.8534 150.536C42.576 150.173 42.1707 149.992 41.6374 149.992ZM47.2153 157V148.648H49.2633V150.376H49.3433C49.3966 150.152 49.4766 149.939 49.5833 149.736C49.7006 149.523 49.8499 149.336 50.0312 149.176C50.2126 149.016 50.4259 148.888 50.6713 148.792C50.9273 148.696 51.2206 148.648 51.5513 148.648H51.9993V150.584H51.3593C50.6659 150.584 50.1433 150.685 49.7913 150.888C49.4393 151.091 49.2633 151.421 49.2633 151.88V157H47.2153ZM53.4965 157V148.648H55.5445V150.04H55.6245C55.7952 149.592 56.0618 149.219 56.4245 148.92C56.7978 148.611 57.3098 148.456 57.9605 148.456C58.8245 148.456 59.4858 148.739 59.9445 149.304C60.4032 149.869 60.6325 150.675 60.6325 151.72V157H58.5845V151.928C58.5845 151.331 58.4778 150.883 58.2645 150.584C58.0512 150.285 57.6992 150.136 57.2085 150.136C56.9952 150.136 56.7872 150.168 56.5845 150.232C56.3925 150.285 56.2165 150.371 56.0565 150.488C55.9072 150.595 55.7845 150.733 55.6885 150.904C55.5925 151.064 55.5445 151.256 55.5445 151.48V157H53.4965ZM69.0468 157C68.5988 157 68.2414 156.872 67.9748 156.616C67.7188 156.349 67.5588 155.997 67.4948 155.56H67.3988C67.2601 156.104 66.9774 156.515 66.5508 156.792C66.1241 157.059 65.5961 157.192 64.9668 157.192C64.1134 157.192 63.4574 156.968 62.9988 156.52C62.5401 156.072 62.3108 155.475 62.3108 154.728C62.3108 153.864 62.6201 153.224 63.2388 152.808C63.8574 152.381 64.7374 152.168 65.8788 152.168H67.3028V151.56C67.3028 151.091 67.1801 150.728 66.9348 150.472C66.6894 150.216 66.2948 150.088 65.7508 150.088C65.2708 150.088 64.8814 150.195 64.5828 150.408C64.2948 150.611 64.0494 150.856 63.8468 151.144L62.6308 150.056C62.9401 149.576 63.3508 149.192 63.8628 148.904C64.3748 148.605 65.0521 148.456 65.8948 148.456C67.0254 148.456 67.8841 148.712 68.4708 149.224C69.0574 149.736 69.3508 150.472 69.3508 151.432V155.368H70.1828V157H69.0468ZM65.6548 155.704C66.1134 155.704 66.5028 155.603 66.8228 155.4C67.1428 155.197 67.3028 154.899 67.3028 154.504V153.4H65.9908C64.9241 153.4 64.3908 153.741 64.3908 154.424V154.696C64.3908 155.037 64.4974 155.293 64.7108 155.464C64.9348 155.624 65.2494 155.704 65.6548 155.704ZM73.4916 157L70.7076 148.648H72.7236L73.8916 152.248L74.7076 155.224H74.8196L75.6356 152.248L76.7716 148.648H78.7236L75.9236 157H73.4916ZM80.0903 157V148.648H82.1383V150.04H82.2183C82.3889 149.592 82.6556 149.219 83.0182 148.92C83.3916 148.611 83.9036 148.456 84.5543 148.456C85.4183 148.456 86.0796 148.739 86.5383 149.304C86.9969 149.869 87.2263 150.675 87.2263 151.72V157H85.1783V151.928C85.1783 151.331 85.0716 150.883 84.8583 150.584C84.6449 150.285 84.2929 150.136 83.8023 150.136C83.5889 150.136 83.3809 150.168 83.1783 150.232C82.9863 150.285 82.8103 150.371 82.6503 150.488C82.5009 150.595 82.3783 150.733 82.2823 150.904C82.1863 151.064 82.1383 151.256 82.1383 151.48V157H80.0903Z" fill="#1A1A1A"/>
</g>
<defs>
<clipPath id="clip0_5010_48932">
<rect width="418" height="226" fill="white"/>
</clipPath>
</defs>
</svg>
