<svg width="418" height="288" viewBox="0 0 418 288" fill="none" xmlns="http://www.w3.org/2000/svg">
<g clip-path="url(#clip0_5010_48925)">
<rect width="418" height="288" fill="white"/>
<rect x="16.5" y="42.5" width="239" height="39" rx="3.5" stroke="#747474"/>
<path d="M17.312 29V17.832H24.496V19.704H19.424V22.408H23.84V24.28H19.424V29H17.312ZM29.246 29.192C28.6487 29.192 28.11 29.0907 27.63 28.888C27.1607 28.6853 26.7553 28.392 26.414 28.008C26.0833 27.624 25.8273 27.1653 25.646 26.632C25.4647 26.088 25.374 25.48 25.374 24.808C25.374 24.136 25.4647 23.5333 25.646 23C25.8273 22.4667 26.0833 22.0133 26.414 21.64C26.7553 21.256 27.1607 20.9627 27.63 20.76C28.11 20.5573 28.6487 20.456 29.246 20.456C29.8433 20.456 30.382 20.5573 30.862 20.76C31.342 20.9627 31.7473 21.256 32.078 21.64C32.4193 22.0133 32.6807 22.4667 32.862 23C33.0433 23.5333 33.134 24.136 33.134 24.808C33.134 25.48 33.0433 26.088 32.862 26.632C32.6807 27.1653 32.4193 27.624 32.078 28.008C31.7473 28.392 31.342 28.6853 30.862 28.888C30.382 29.0907 29.8433 29.192 29.246 29.192ZM29.246 27.544C29.79 27.544 30.2167 27.3787 30.526 27.048C30.8353 26.7173 30.99 26.232 30.99 25.592V24.04C30.99 23.4107 30.8353 22.9307 30.526 22.6C30.2167 22.2693 29.79 22.104 29.246 22.104C28.7127 22.104 28.2913 22.2693 27.982 22.6C27.6727 22.9307 27.518 23.4107 27.518 24.04V25.592C27.518 26.232 27.6727 26.7173 27.982 27.048C28.2913 27.3787 28.7127 27.544 29.246 27.544ZM34.9496 29V20.648H36.9976V22.376H37.0776C37.131 22.152 37.211 21.9387 37.3176 21.736C37.435 21.5227 37.5843 21.336 37.7656 21.176C37.947 21.016 38.1603 20.888 38.4056 20.792C38.6616 20.696 38.955 20.648 39.2856 20.648H39.7336V22.584H39.0936C38.4003 22.584 37.8776 22.6853 37.5256 22.888C37.1736 23.0907 36.9976 23.4213 36.9976 23.88V29H34.9496ZM41.2309 29V20.648H43.2789V22.04H43.3589C43.5295 21.592 43.7962 21.2187 44.1589 20.92C44.5322 20.6107 45.0442 20.456 45.6949 20.456C46.5589 20.456 47.2202 20.7387 47.6789 21.304C48.1375 21.8693 48.3669 22.6747 48.3669 23.72V29H46.3189V23.928C46.3189 23.3307 46.2122 22.8827 45.9989 22.584C45.7855 22.2853 45.4335 22.136 44.9429 22.136C44.7295 22.136 44.5215 22.168 44.3189 22.232C44.1269 22.2853 43.9509 22.3707 43.7909 22.488C43.6415 22.5947 43.5189 22.7333 43.4229 22.904C43.3269 23.064 43.2789 23.256 43.2789 23.48V29H41.2309ZM56.7811 29C56.3331 29 55.9758 28.872 55.7091 28.616C55.4531 28.3493 55.2931 27.9973 55.2291 27.56H55.1331C54.9945 28.104 54.7118 28.5147 54.2851 28.792C53.8585 29.0587 53.3305 29.192 52.7011 29.192C51.8478 29.192 51.1918 28.968 50.7331 28.52C50.2745 28.072 50.0451 27.4747 50.0451 26.728C50.0451 25.864 50.3545 25.224 50.9731 24.808C51.5918 24.3813 52.4718 24.168 53.6131 24.168H55.0371V23.56C55.0371 23.0907 54.9145 22.728 54.6691 22.472C54.4238 22.216 54.0291 22.088 53.4851 22.088C53.0051 22.088 52.6158 22.1947 52.3171 22.408C52.0291 22.6107 51.7838 22.856 51.5811 23.144L50.3651 22.056C50.6745 21.576 51.0851 21.192 51.5971 20.904C52.1091 20.6053 52.7865 20.456 53.6291 20.456C54.7598 20.456 55.6185 20.712 56.2051 21.224C56.7918 21.736 57.0851 22.472 57.0851 23.432V27.368H57.9171V29H56.7811ZM53.3891 27.704C53.8478 27.704 54.2371 27.6027 54.5571 27.4C54.8771 27.1973 55.0371 26.8987 55.0371 26.504V25.4H53.7251C52.6585 25.4 52.1251 25.7413 52.1251 26.424V26.696C52.1251 27.0373 52.2318 27.2933 52.4451 27.464C52.6691 27.624 52.9838 27.704 53.3891 27.704ZM61.226 29L58.442 20.648H60.458L61.626 24.248L62.442 27.224H62.554L63.37 24.248L64.506 20.648H66.458L63.658 29H61.226ZM67.8246 29V20.648H69.8726V22.04H69.9526C70.1233 21.592 70.39 21.2187 70.7526 20.92C71.126 20.6107 71.638 20.456 72.2886 20.456C73.1526 20.456 73.814 20.7387 74.2726 21.304C74.7313 21.8693 74.9606 22.6747 74.9606 23.72V29H72.9126V23.928C72.9126 23.3307 72.806 22.8827 72.5926 22.584C72.3793 22.2853 72.0273 22.136 71.5366 22.136C71.3233 22.136 71.1153 22.168 70.9126 22.232C70.7206 22.2853 70.5446 22.3707 70.3846 22.488C70.2353 22.5947 70.1126 22.7333 70.0166 22.904C69.9206 23.064 69.8726 23.256 69.8726 23.48V29H67.8246Z" fill="#1A1A1A"/>
<rect x="16.5" y="137.5" width="239" height="39" rx="3.5" stroke="#747474"/>
<path d="M17.312 124V112.832H24.672V114.704H19.424V117.408H24.064V119.28H19.424V122.128H24.672V124H17.312ZM27.1938 117.264H25.9618V115.648H27.1938V114.448C27.1938 113.712 27.3858 113.147 27.7698 112.752C28.1644 112.357 28.7404 112.16 29.4978 112.16H30.9538V113.792H29.2418V115.648H30.9538V117.264H29.2418V124H27.1938V117.264ZM34.9795 124C34.2755 124 33.7368 123.819 33.3635 123.456C33.0008 123.083 32.8195 122.555 32.8195 121.872V117.28H31.5875V115.648H32.2275C32.5368 115.648 32.7448 115.579 32.8515 115.44C32.9688 115.291 33.0275 115.072 33.0275 114.784V113.36H34.8675V115.648H36.5795V117.28H34.8675V122.368H36.4515V124H34.9795ZM41.6694 124.192C41.0507 124.192 40.496 124.091 40.0054 123.888C39.5254 123.675 39.1147 123.381 38.7734 123.008C38.4427 122.624 38.1867 122.165 38.0054 121.632C37.824 121.088 37.7334 120.48 37.7334 119.808C37.7334 119.147 37.8187 118.549 37.9894 118.016C38.1707 117.483 38.4267 117.029 38.7574 116.656C39.088 116.272 39.4934 115.979 39.9734 115.776C40.4534 115.563 40.9974 115.456 41.6054 115.456C42.256 115.456 42.8214 115.568 43.3014 115.792C43.7814 116.016 44.176 116.32 44.4854 116.704C44.7947 117.088 45.024 117.536 45.1734 118.048C45.3334 118.549 45.4134 119.088 45.4134 119.664V120.336H39.8614V120.544C39.8614 121.152 40.032 121.643 40.3734 122.016C40.7147 122.379 41.2214 122.56 41.8934 122.56C42.4054 122.56 42.8214 122.453 43.1414 122.24C43.472 122.027 43.7654 121.755 44.0214 121.424L45.1254 122.656C44.784 123.136 44.3147 123.515 43.7174 123.792C43.1307 124.059 42.448 124.192 41.6694 124.192ZM41.6374 116.992C41.0934 116.992 40.6614 117.173 40.3414 117.536C40.0214 117.899 39.8614 118.368 39.8614 118.944V119.072H43.2854V118.928C43.2854 118.352 43.1414 117.888 42.8534 117.536C42.576 117.173 42.1707 116.992 41.6374 116.992ZM47.2153 124V115.648H49.2633V117.376H49.3433C49.3966 117.152 49.4766 116.939 49.5833 116.736C49.7006 116.523 49.8499 116.336 50.0312 116.176C50.2126 116.016 50.4259 115.888 50.6713 115.792C50.9273 115.696 51.2206 115.648 51.5513 115.648H51.9993V117.584H51.3593C50.6659 117.584 50.1433 117.685 49.7913 117.888C49.4393 118.091 49.2633 118.421 49.2633 118.88V124H47.2153ZM53.4965 124V115.648H55.5445V117.04H55.6245C55.7952 116.592 56.0618 116.219 56.4245 115.92C56.7978 115.611 57.3098 115.456 57.9605 115.456C58.8245 115.456 59.4858 115.739 59.9445 116.304C60.4032 116.869 60.6325 117.675 60.6325 118.72V124H58.5845V118.928C58.5845 118.331 58.4778 117.883 58.2645 117.584C58.0512 117.285 57.6992 117.136 57.2085 117.136C56.9952 117.136 56.7872 117.168 56.5845 117.232C56.3925 117.285 56.2165 117.371 56.0565 117.488C55.9072 117.595 55.7845 117.733 55.6885 117.904C55.5925 118.064 55.5445 118.256 55.5445 118.48V124H53.4965ZM69.0468 124C68.5988 124 68.2414 123.872 67.9748 123.616C67.7188 123.349 67.5588 122.997 67.4948 122.56H67.3988C67.2601 123.104 66.9774 123.515 66.5508 123.792C66.1241 124.059 65.5961 124.192 64.9668 124.192C64.1134 124.192 63.4574 123.968 62.9988 123.52C62.5401 123.072 62.3108 122.475 62.3108 121.728C62.3108 120.864 62.6201 120.224 63.2388 119.808C63.8574 119.381 64.7374 119.168 65.8788 119.168H67.3028V118.56C67.3028 118.091 67.1801 117.728 66.9348 117.472C66.6894 117.216 66.2948 117.088 65.7508 117.088C65.2708 117.088 64.8814 117.195 64.5828 117.408C64.2948 117.611 64.0494 117.856 63.8468 118.144L62.6308 117.056C62.9401 116.576 63.3508 116.192 63.8628 115.904C64.3748 115.605 65.0521 115.456 65.8948 115.456C67.0254 115.456 67.8841 115.712 68.4708 116.224C69.0574 116.736 69.3508 117.472 69.3508 118.432V122.368H70.1828V124H69.0468ZM65.6548 122.704C66.1134 122.704 66.5028 122.603 66.8228 122.4C67.1428 122.197 67.3028 121.899 67.3028 121.504V120.4H65.9908C64.9241 120.4 64.3908 120.741 64.3908 121.424V121.696C64.3908 122.037 64.4974 122.293 64.7108 122.464C64.9348 122.624 65.2494 122.704 65.6548 122.704ZM73.4916 124L70.7076 115.648H72.7236L73.8916 119.248L74.7076 122.224H74.8196L75.6356 119.248L76.7716 115.648H78.7236L75.9236 124H73.4916ZM80.0903 124V115.648H82.1383V117.04H82.2183C82.3889 116.592 82.6556 116.219 83.0182 115.92C83.3916 115.611 83.9036 115.456 84.5543 115.456C85.4183 115.456 86.0796 115.739 86.5383 116.304C86.9969 116.869 87.2263 117.675 87.2263 118.72V124H85.1783V118.928C85.1783 118.331 85.0716 117.883 84.8583 117.584C84.6449 117.285 84.2929 117.136 83.8023 117.136C83.5889 117.136 83.3809 117.168 83.1783 117.232C82.9863 117.285 82.8103 117.371 82.6503 117.488C82.5009 117.595 82.3783 117.733 82.2823 117.904C82.1863 118.064 82.1383 118.256 82.1383 118.48V124H80.0903Z" fill="#1A1A1A"/>
<rect x="16.5" y="232.5" width="319" height="39" rx="3.5" stroke="#747474"/>
<path d="M17.312 219V207.832H24.672V209.704H19.424V212.408H24.064V214.28H19.424V217.128H24.672V219H17.312ZM26.5218 215.144V213.112H31.0978V215.144H26.5218ZM33.2153 219V210.648H35.2633V212.04H35.3433C35.5033 211.603 35.7593 211.229 36.1113 210.92C36.4633 210.611 36.9539 210.456 37.5833 210.456C38.1593 210.456 38.6553 210.595 39.0713 210.872C39.4873 211.149 39.7966 211.571 39.9993 212.136H40.0312C40.1806 211.667 40.4739 211.272 40.9113 210.952C41.3593 210.621 41.9193 210.456 42.5913 210.456C43.4126 210.456 44.0419 210.739 44.4793 211.304C44.9273 211.869 45.1513 212.675 45.1513 213.72V219H43.1033V213.928C43.1033 212.733 42.6553 212.136 41.7593 212.136C41.5566 212.136 41.3593 212.168 41.1673 212.232C40.9859 212.285 40.8206 212.371 40.6713 212.488C40.5326 212.595 40.4206 212.733 40.3353 212.904C40.2499 213.064 40.2073 213.256 40.2073 213.48V219H38.1593V213.928C38.1593 212.733 37.7113 212.136 36.8153 212.136C36.6233 212.136 36.4313 212.168 36.2393 212.232C36.0579 212.285 35.8926 212.371 35.7433 212.488C35.6046 212.595 35.4873 212.733 35.3913 212.904C35.3059 213.064 35.2633 213.256 35.2633 213.48V219H33.2153ZM53.5624 219C53.1144 219 52.757 218.872 52.4904 218.616C52.2344 218.349 52.0744 217.997 52.0104 217.56H51.9144C51.7757 218.104 51.493 218.515 51.0664 218.792C50.6397 219.059 50.1117 219.192 49.4824 219.192C48.629 219.192 47.973 218.968 47.5144 218.52C47.0557 218.072 46.8264 217.475 46.8264 216.728C46.8264 215.864 47.1357 215.224 47.7544 214.808C48.373 214.381 49.253 214.168 50.3944 214.168H51.8184V213.56C51.8184 213.091 51.6957 212.728 51.4504 212.472C51.205 212.216 50.8104 212.088 50.2664 212.088C49.7864 212.088 49.397 212.195 49.0984 212.408C48.8104 212.611 48.565 212.856 48.3624 213.144L47.1464 212.056C47.4557 211.576 47.8664 211.192 48.3784 210.904C48.8904 210.605 49.5677 210.456 50.4104 210.456C51.541 210.456 52.3997 210.712 52.9864 211.224C53.573 211.736 53.8664 212.472 53.8664 213.432V217.368H54.6984V219H53.5624ZM50.1704 217.704C50.629 217.704 51.0184 217.603 51.3384 217.4C51.6584 217.197 51.8184 216.899 51.8184 216.504V215.4H50.5064C49.4397 215.4 48.9064 215.741 48.9064 216.424V216.696C48.9064 217.037 49.013 217.293 49.2264 217.464C49.4504 217.624 49.765 217.704 50.1704 217.704ZM57.3799 209.432C56.9532 209.432 56.6439 209.336 56.4519 209.144C56.2705 208.952 56.1799 208.707 56.1799 208.408V208.088C56.1799 207.789 56.2705 207.544 56.4519 207.352C56.6439 207.16 56.9532 207.064 57.3799 207.064C57.7959 207.064 58.0999 207.16 58.2919 207.352C58.4839 207.544 58.5799 207.789 58.5799 208.088V208.408C58.5799 208.707 58.4839 208.952 58.2919 209.144C58.0999 209.336 57.7959 209.432 57.3799 209.432ZM56.3559 210.648H58.4039V219H56.3559V210.648ZM62.8258 219C62.1218 219 61.6044 218.824 61.2738 218.472C60.9431 218.12 60.7778 217.624 60.7778 216.984V207.16H62.8258V217.368H63.9298V219H62.8258Z" fill="#1A1A1A"/>
</g>
<defs>
<clipPath id="clip0_5010_48925">
<rect width="418" height="288" fill="white"/>
</clipPath>
</defs>
</svg>
