<svg width="418" height="236" viewBox="0 0 418 236" fill="none" xmlns="http://www.w3.org/2000/svg">
<rect width="418" height="236" fill="white"/>
<rect width="260" height="20" transform="translate(16 84)" fill="#DCDCDC"/>
<rect width="260" height="20" transform="translate(16 32)" fill="#DCDCDC"/>
<rect width="260" height="20" transform="translate(16 136)" fill="#DCDCDC"/>
<rect width="118" height="12" transform="translate(16 68)" fill="#DCDCDC"/>
<rect width="118" height="12" transform="translate(16 16)" fill="#DCDCDC"/>
<rect width="118" height="12" transform="translate(16 120)" fill="#DCDCDC"/>
<rect x="191" y="181" width="84" height="38.0001" rx="3" fill="#0059B3"/>
<rect x="192.5" y="216.5" width="81" height="1" stroke="#004993"/>
<path d="M210.932 199.052L209.546 196.388H209.492V206H207.548V193.436H209.816L213.92 200.384L215.306 203.048H215.36V193.436H217.304V206H215.036L210.932 199.052ZM223.602 201.824C222.246 201.848 221.568 202.274 221.568 203.102V203.426C221.568 203.846 221.706 204.17 221.982 204.398C222.27 204.614 222.672 204.722 223.188 204.722C223.764 204.722 224.25 204.59 224.646 204.326C225.054 204.05 225.258 203.684 225.258 203.228V201.824H223.602ZM231.576 200.528V200.348C231.576 199.628 231.39 199.052 231.018 198.62C230.646 198.176 230.136 197.954 229.488 197.954C229.152 197.954 228.84 198.014 228.552 198.134C228.276 198.254 228.036 198.422 227.832 198.638C227.64 198.854 227.49 199.112 227.382 199.412C227.274 199.712 227.22 200.042 227.22 200.402V200.528H231.576ZM229.722 204.596C230.298 204.596 230.784 204.47 231.18 204.218C231.588 203.966 231.918 203.63 232.17 203.21L233.322 204.326C232.974 204.902 232.476 205.364 231.828 205.712C231.192 206.048 230.46 206.216 229.632 206.216C229.164 206.216 228.726 206.156 228.318 206.036C227.922 205.916 227.568 205.76 227.256 205.568C226.956 205.376 226.704 205.166 226.5 204.938C226.308 204.698 226.17 204.464 226.086 204.236H225.978C225.918 204.452 225.798 204.68 225.618 204.92C225.45 205.148 225.228 205.358 224.952 205.55C224.676 205.742 224.34 205.898 223.944 206.018C223.548 206.15 223.098 206.216 222.594 206.216C221.646 206.216 220.902 205.958 220.362 205.442C219.834 204.926 219.57 204.254 219.57 203.426C219.57 202.478 219.918 201.758 220.614 201.266C221.31 200.774 222.294 200.528 223.566 200.528H225.258V199.826C225.258 199.25 225.102 198.806 224.79 198.494C224.478 198.182 223.998 198.026 223.35 198.026C222.774 198.026 222.312 198.146 221.964 198.386C221.628 198.614 221.34 198.914 221.1 199.286L219.93 198.242C220.242 197.714 220.68 197.282 221.244 196.946C221.808 196.598 222.546 196.424 223.458 196.424C223.89 196.424 224.262 196.478 224.574 196.586C224.886 196.694 225.15 196.832 225.366 197C225.594 197.168 225.774 197.36 225.906 197.576C226.05 197.78 226.17 197.984 226.266 198.188H226.374C226.47 197.972 226.614 197.762 226.806 197.558C226.998 197.342 227.226 197.15 227.49 196.982C227.766 196.814 228.078 196.682 228.426 196.586C228.786 196.478 229.176 196.424 229.596 196.424C230.268 196.424 230.856 196.544 231.36 196.784C231.864 197.024 232.284 197.36 232.62 197.792C232.968 198.212 233.226 198.704 233.394 199.268C233.562 199.832 233.646 200.438 233.646 201.086V201.824H227.22V202.13C227.22 202.85 227.436 203.444 227.868 203.912C228.312 204.368 228.93 204.596 229.722 204.596ZM238.798 206.216C237.91 206.216 237.166 206.06 236.566 205.748C235.966 205.436 235.444 205.004 235 204.452L236.26 203.3C236.608 203.72 236.992 204.05 237.412 204.29C237.844 204.518 238.342 204.632 238.906 204.632C239.482 204.632 239.908 204.524 240.184 204.308C240.472 204.08 240.616 203.768 240.616 203.372C240.616 203.072 240.514 202.82 240.31 202.616C240.118 202.4 239.776 202.262 239.284 202.202L238.42 202.094C237.46 201.974 236.704 201.698 236.152 201.266C235.612 200.822 235.342 200.168 235.342 199.304C235.342 198.848 235.426 198.446 235.594 198.098C235.762 197.738 235.996 197.438 236.296 197.198C236.608 196.946 236.974 196.754 237.394 196.622C237.826 196.49 238.3 196.424 238.816 196.424C239.656 196.424 240.34 196.556 240.868 196.82C241.408 197.084 241.888 197.45 242.308 197.918L241.102 199.07C240.862 198.782 240.544 198.536 240.148 198.332C239.764 198.116 239.32 198.008 238.816 198.008C238.276 198.008 237.874 198.116 237.61 198.332C237.358 198.548 237.232 198.83 237.232 199.178C237.232 199.538 237.346 199.808 237.574 199.988C237.802 200.168 238.168 200.3 238.672 200.384L239.536 200.492C240.568 200.648 241.318 200.954 241.786 201.41C242.266 201.854 242.506 202.454 242.506 203.21C242.506 203.666 242.416 204.08 242.236 204.452C242.068 204.812 241.822 205.124 241.498 205.388C241.174 205.652 240.784 205.856 240.328 206C239.872 206.144 239.362 206.216 238.798 206.216ZM247.191 206C246.507 206 245.991 205.826 245.643 205.478C245.295 205.118 245.121 204.614 245.121 203.966V198.242H243.663V196.64H244.455C244.779 196.64 245.001 196.568 245.121 196.424C245.253 196.28 245.319 196.046 245.319 195.722V194.084H247.083V196.64H249.045V198.242H247.083V204.398H248.901V206H247.191ZM254.775 206.216C254.103 206.216 253.503 206.102 252.975 205.874C252.447 205.646 251.997 205.322 251.625 204.902C251.253 204.47 250.965 203.954 250.761 203.354C250.569 202.742 250.473 202.064 250.473 201.32C250.473 200.576 250.569 199.904 250.761 199.304C250.965 198.692 251.253 198.176 251.625 197.756C251.997 197.324 252.447 196.994 252.975 196.766C253.503 196.538 254.103 196.424 254.775 196.424C255.459 196.424 256.059 196.544 256.575 196.784C257.103 197.024 257.541 197.36 257.889 197.792C258.237 198.212 258.495 198.704 258.663 199.268C258.843 199.832 258.933 200.438 258.933 201.086V201.824H252.507V202.13C252.507 202.85 252.717 203.444 253.137 203.912C253.569 204.368 254.181 204.596 254.973 204.596C255.549 204.596 256.035 204.47 256.431 204.218C256.827 203.966 257.163 203.624 257.439 203.192L258.591 204.326C258.243 204.902 257.739 205.364 257.079 205.712C256.419 206.048 255.651 206.216 254.775 206.216ZM254.775 197.954C254.439 197.954 254.127 198.014 253.839 198.134C253.563 198.254 253.323 198.422 253.119 198.638C252.927 198.854 252.777 199.112 252.669 199.412C252.561 199.712 252.507 200.042 252.507 200.402V200.528H256.863V200.348C256.863 199.628 256.677 199.052 256.305 198.62C255.933 198.176 255.423 197.954 254.775 197.954Z" fill="white"/>
<rect x="191" y="181" width="84" height="38.0001" rx="3" stroke="#004993" stroke-width="2"/>
<rect x="17" y="181" width="91" height="38.0001" rx="3" fill="#F5F5F5"/>
<rect x="18.5" y="216.5" width="88" height="1" stroke="#707070"/>
<path d="M38.21 195.236V206H36.176V195.236H32.432V193.436H41.954V195.236H38.21ZM44.7827 194.966C44.3747 194.966 44.0747 194.87 43.8827 194.678C43.7027 194.486 43.6127 194.24 43.6127 193.94V193.634C43.6127 193.334 43.7027 193.088 43.8827 192.896C44.0747 192.704 44.3747 192.608 44.7827 192.608C45.1907 192.608 45.4847 192.704 45.6647 192.896C45.8447 193.088 45.9347 193.334 45.9347 193.634V193.94C45.9347 194.24 45.8447 194.486 45.6647 194.678C45.4847 194.87 45.1907 194.966 44.7827 194.966ZM43.7927 196.64H45.7547V206H43.7927V196.64ZM50.5543 206C49.8823 206 49.3783 205.832 49.0423 205.496C48.7183 205.148 48.5563 204.668 48.5563 204.056V192.68H50.5183V204.398H51.8143V206H50.5543ZM53.6892 192.68H55.6512V198.188H55.7412C55.9452 197.624 56.2752 197.192 56.7312 196.892C57.1992 196.58 57.7452 196.424 58.3692 196.424C59.5572 196.424 60.4752 196.856 61.1232 197.72C61.7712 198.572 62.0952 199.772 62.0952 201.32C62.0952 202.868 61.7712 204.074 61.1232 204.938C60.4752 205.79 59.5572 206.216 58.3692 206.216C57.7452 206.216 57.1992 206.06 56.7312 205.748C56.2752 205.436 55.9452 205.004 55.7412 204.452H55.6512V206H53.6892V192.68ZM57.7752 204.524C58.4592 204.524 59.0052 204.308 59.4132 203.876C59.8212 203.432 60.0252 202.85 60.0252 202.13V200.51C60.0252 199.79 59.8212 199.214 59.4132 198.782C59.0052 198.338 58.4592 198.116 57.7752 198.116C57.1752 198.116 56.6712 198.266 56.2632 198.566C55.8552 198.854 55.6512 199.238 55.6512 199.718V202.922C55.6512 203.402 55.8552 203.792 56.2632 204.092C56.6712 204.38 57.1752 204.524 57.7752 204.524ZM71.1995 206C70.6835 206 70.2875 205.856 70.0115 205.568C69.7355 205.268 69.5675 204.89 69.5075 204.434H69.4175C69.2375 205.022 68.9075 205.466 68.4275 205.766C67.9475 206.066 67.3655 206.216 66.6815 206.216C65.7095 206.216 64.9595 205.964 64.4315 205.46C63.9155 204.956 63.6575 204.278 63.6575 203.426C63.6575 202.49 63.9935 201.788 64.6655 201.32C65.3495 200.852 66.3455 200.618 67.6535 200.618H69.3455V199.826C69.3455 199.25 69.1895 198.806 68.8775 198.494C68.5655 198.182 68.0795 198.026 67.4195 198.026C66.8675 198.026 66.4175 198.146 66.0695 198.386C65.7215 198.626 65.4275 198.932 65.1875 199.304L64.0175 198.242C64.3295 197.714 64.7675 197.282 65.3315 196.946C65.8955 196.598 66.6335 196.424 67.5455 196.424C68.7575 196.424 69.6875 196.706 70.3355 197.27C70.9835 197.834 71.3075 198.644 71.3075 199.7V204.398H72.2975V206H71.1995ZM67.2395 204.722C67.8515 204.722 68.3555 204.59 68.7515 204.326C69.1475 204.05 69.3455 203.684 69.3455 203.228V201.878H67.6895C66.3335 201.878 65.6555 202.298 65.6555 203.138V203.462C65.6555 203.882 65.7935 204.2 66.0695 204.416C66.3575 204.62 66.7475 204.722 67.2395 204.722ZM82.4284 206.882C82.4284 207.854 82.0564 208.586 81.3124 209.078C80.5684 209.57 79.3564 209.816 77.6764 209.816C76.9084 209.816 76.2544 209.762 75.7144 209.654C75.1864 209.558 74.7484 209.414 74.4004 209.222C74.0644 209.03 73.8184 208.796 73.6624 208.52C73.5064 208.244 73.4284 207.926 73.4284 207.566C73.4284 207.05 73.5664 206.648 73.8424 206.36C74.1304 206.072 74.5264 205.874 75.0304 205.766V205.568C74.3224 205.34 73.9684 204.86 73.9684 204.128C73.9684 203.648 74.1304 203.282 74.4544 203.03C74.7784 202.766 75.1684 202.58 75.6244 202.472V202.4C75.0724 202.136 74.6464 201.77 74.3464 201.302C74.0584 200.822 73.9144 200.264 73.9144 199.628C73.9144 198.668 74.2324 197.894 74.8684 197.306C75.5164 196.718 76.4404 196.424 77.6404 196.424C78.3004 196.424 78.8644 196.52 79.3324 196.712V196.46C79.3324 196.04 79.4284 195.716 79.6204 195.488C79.8244 195.248 80.1364 195.128 80.5564 195.128H81.9964V196.712H80.0884V197.09C80.5084 197.366 80.8324 197.726 81.0604 198.17C81.2884 198.602 81.4024 199.088 81.4024 199.628C81.4024 200.576 81.0784 201.344 80.4304 201.932C79.7824 202.508 78.8584 202.796 77.6584 202.796C77.2024 202.796 76.7944 202.748 76.4344 202.652C76.1944 202.736 75.9844 202.856 75.8044 203.012C75.6244 203.156 75.5344 203.348 75.5344 203.588C75.5344 203.84 75.6484 204.02 75.8764 204.128C76.1044 204.236 76.4284 204.29 76.8484 204.29H79.1524C80.3044 204.29 81.1384 204.524 81.6544 204.992C82.1704 205.448 82.4284 206.078 82.4284 206.882ZM80.5924 207.098C80.5924 206.774 80.4664 206.516 80.2144 206.324C79.9744 206.132 79.5304 206.036 78.8824 206.036H75.7144C75.2824 206.288 75.0664 206.648 75.0664 207.116C75.0664 207.5 75.2164 207.806 75.5164 208.034C75.8284 208.274 76.3504 208.394 77.0824 208.394H78.3064C79.8304 208.394 80.5924 207.962 80.5924 207.098ZM77.6584 201.374C78.2344 201.374 78.6784 201.248 78.9904 200.996C79.3144 200.732 79.4764 200.33 79.4764 199.79V199.43C79.4764 198.89 79.3144 198.494 78.9904 198.242C78.6784 197.978 78.2344 197.846 77.6584 197.846C77.0824 197.846 76.6324 197.978 76.3084 198.242C75.9964 198.494 75.8404 198.89 75.8404 199.43V199.79C75.8404 200.33 75.9964 200.732 76.3084 200.996C76.6324 201.248 77.0824 201.374 77.6584 201.374ZM87.4549 206.216C86.7829 206.216 86.1829 206.102 85.6549 205.874C85.1269 205.646 84.6769 205.322 84.3049 204.902C83.9329 204.47 83.6449 203.954 83.4409 203.354C83.2489 202.742 83.1529 202.064 83.1529 201.32C83.1529 200.576 83.2489 199.904 83.4409 199.304C83.6449 198.692 83.9329 198.176 84.3049 197.756C84.6769 197.324 85.1269 196.994 85.6549 196.766C86.1829 196.538 86.7829 196.424 87.4549 196.424C88.1389 196.424 88.7389 196.544 89.2549 196.784C89.7829 197.024 90.2209 197.36 90.5689 197.792C90.9169 198.212 91.1749 198.704 91.3429 199.268C91.5229 199.832 91.6129 200.438 91.6129 201.086V201.824H85.1869V202.13C85.1869 202.85 85.3969 203.444 85.8169 203.912C86.2489 204.368 86.8609 204.596 87.6529 204.596C88.2289 204.596 88.7149 204.47 89.1109 204.218C89.5069 203.966 89.8429 203.624 90.1189 203.192L91.2709 204.326C90.9229 204.902 90.4189 205.364 89.7589 205.712C89.0989 206.048 88.3309 206.216 87.4549 206.216ZM87.4549 197.954C87.1189 197.954 86.8069 198.014 86.5189 198.134C86.2429 198.254 86.0029 198.422 85.7989 198.638C85.6069 198.854 85.4569 199.112 85.3489 199.412C85.2409 199.712 85.1869 200.042 85.1869 200.402V200.528H89.5429V200.348C89.5429 199.628 89.3569 199.052 88.9849 198.62C88.6129 198.176 88.1029 197.954 87.4549 197.954Z" fill="#1A1A1A"/>
<rect x="17" y="181" width="91" height="38.0001" rx="3" stroke="#707070" stroke-width="2"/>
</svg>
