<svg width="418" height="236" viewBox="0 0 418 236" fill="none" xmlns="http://www.w3.org/2000/svg">
<rect width="418" height="236" fill="white"/>
<rect width="260" height="20" transform="translate(16 84)" fill="#DCDCDC"/>
<rect width="260" height="20" transform="translate(16 32)" fill="#DCDCDC"/>
<rect width="260" height="20" transform="translate(16 136)" fill="#DCDCDC"/>
<rect width="118" height="12" transform="translate(16 68)" fill="#DCDCDC"/>
<rect width="118" height="12" transform="translate(16 16)" fill="#DCDCDC"/>
<rect width="118" height="12" transform="translate(16 120)" fill="#DCDCDC"/>
<rect x="17" y="181" width="72" height="38.0001" rx="3" fill="#44831E"/>
<rect x="18.5" y="216.5" width="69" height="1" stroke="#3C5C22"/>
<path d="M37.31 206.216C36.254 206.216 35.354 206.024 34.61 205.64C33.878 205.256 33.248 204.74 32.72 204.092L34.124 202.778C34.568 203.318 35.054 203.726 35.582 204.002C36.122 204.278 36.734 204.416 37.418 204.416C38.222 204.416 38.828 204.236 39.236 203.876C39.644 203.516 39.848 203.03 39.848 202.418C39.848 201.926 39.704 201.536 39.416 201.248C39.128 200.96 38.618 200.744 37.886 200.6L36.77 200.402C35.546 200.174 34.628 199.772 34.016 199.196C33.404 198.62 33.098 197.828 33.098 196.82C33.098 196.268 33.2 195.77 33.404 195.326C33.62 194.87 33.914 194.492 34.286 194.192C34.67 193.88 35.132 193.64 35.672 193.472C36.212 193.304 36.818 193.22 37.49 193.22C38.438 193.22 39.26 193.388 39.956 193.724C40.652 194.048 41.246 194.522 41.738 195.146L40.316 196.406C39.992 195.986 39.596 195.65 39.128 195.398C38.66 195.146 38.078 195.02 37.382 195.02C36.662 195.02 36.104 195.164 35.708 195.452C35.312 195.74 35.114 196.16 35.114 196.712C35.114 197.24 35.276 197.636 35.6 197.9C35.924 198.152 36.428 198.344 37.112 198.476L38.228 198.71C39.488 198.95 40.406 199.358 40.982 199.934C41.57 200.51 41.864 201.302 41.864 202.31C41.864 202.898 41.762 203.432 41.558 203.912C41.354 204.392 41.054 204.806 40.658 205.154C40.274 205.49 39.8 205.754 39.236 205.946C38.672 206.126 38.03 206.216 37.31 206.216ZM47.8338 206.216C47.1618 206.216 46.5618 206.102 46.0338 205.874C45.5058 205.646 45.0558 205.322 44.6838 204.902C44.3118 204.47 44.0238 203.954 43.8198 203.354C43.6278 202.742 43.5318 202.064 43.5318 201.32C43.5318 200.576 43.6278 199.904 43.8198 199.304C44.0238 198.692 44.3118 198.176 44.6838 197.756C45.0558 197.324 45.5058 196.994 46.0338 196.766C46.5618 196.538 47.1618 196.424 47.8338 196.424C48.5178 196.424 49.1178 196.544 49.6338 196.784C50.1618 197.024 50.5998 197.36 50.9478 197.792C51.2958 198.212 51.5538 198.704 51.7218 199.268C51.9018 199.832 51.9918 200.438 51.9918 201.086V201.824H45.5658V202.13C45.5658 202.85 45.7758 203.444 46.1958 203.912C46.6278 204.368 47.2398 204.596 48.0318 204.596C48.6078 204.596 49.0938 204.47 49.4898 204.218C49.8858 203.966 50.2218 203.624 50.4978 203.192L51.6498 204.326C51.3018 204.902 50.7978 205.364 50.1378 205.712C49.4778 206.048 48.7098 206.216 47.8338 206.216ZM47.8338 197.954C47.4978 197.954 47.1858 198.014 46.8978 198.134C46.6218 198.254 46.3818 198.422 46.1778 198.638C45.9858 198.854 45.8358 199.112 45.7278 199.412C45.6198 199.712 45.5658 200.042 45.5658 200.402V200.528H49.9218V200.348C49.9218 199.628 49.7358 199.052 49.3638 198.62C48.9918 198.176 48.4818 197.954 47.8338 197.954ZM54.1638 206V196.64H56.1258V198.188H56.2158C56.4198 197.684 56.7258 197.264 57.1338 196.928C57.5538 196.592 58.1238 196.424 58.8438 196.424C59.8038 196.424 60.5478 196.742 61.0758 197.378C61.6158 198.002 61.8858 198.896 61.8858 200.06V206H59.9238V200.312C59.9238 198.848 59.3358 198.116 58.1598 198.116C57.9078 198.116 57.6558 198.152 57.4038 198.224C57.1638 198.284 56.9478 198.38 56.7558 198.512C56.5638 198.644 56.4078 198.812 56.2878 199.016C56.1798 199.22 56.1258 199.46 56.1258 199.736V206H54.1638ZM70.4912 204.452H70.4012C70.1972 205.004 69.8612 205.436 69.3932 205.748C68.9372 206.06 68.3972 206.216 67.7732 206.216C66.5852 206.216 65.6672 205.79 65.0192 204.938C64.3712 204.074 64.0472 202.868 64.0472 201.32C64.0472 199.772 64.3712 198.572 65.0192 197.72C65.6672 196.856 66.5852 196.424 67.7732 196.424C68.3972 196.424 68.9372 196.58 69.3932 196.892C69.8612 197.192 70.1972 197.624 70.4012 198.188H70.4912V192.68H72.4532V206H70.4912V204.452ZM68.3672 204.524C68.9672 204.524 69.4712 204.38 69.8792 204.092C70.2872 203.792 70.4912 203.402 70.4912 202.922V199.718C70.4912 199.238 70.2872 198.854 69.8792 198.566C69.4712 198.266 68.9672 198.116 68.3672 198.116C67.6832 198.116 67.1372 198.338 66.7292 198.782C66.3212 199.214 66.1172 199.79 66.1172 200.51V202.13C66.1172 202.85 66.3212 203.432 66.7292 203.876C67.1372 204.308 67.6832 204.524 68.3672 204.524Z" fill="white"/>
<rect x="17" y="181" width="72" height="38.0001" rx="3" stroke="#3C5C22" stroke-width="2"/>
</svg>
