<svg width="418" height="237" viewBox="0 0 418 237" fill="none" xmlns="http://www.w3.org/2000/svg">
<g clip-path="url(#clip0_5010_49420)">
<rect width="418" height="237" fill="white"/>
<rect width="402" height="20" transform="translate(0 105)" fill="#DCDCDC"/>
<rect width="402" height="20" transform="translate(0 213)" fill="#DCDCDC"/>
<rect width="402" height="20" transform="translate(0 129)" fill="#DCDCDC"/>
<rect width="300" height="20" transform="translate(0 153)" fill="#DCDCDC"/>
<rect width="123" height="12" transform="translate(0 89)" fill="#DCDCDC"/>
<rect width="123" height="12" transform="translate(0 197)" fill="#DCDCDC"/>
<rect width="1366" height="85" transform="translate(-902)" fill="white"/>
<path d="M-902 54.5H464" stroke="#747474"/>
<path d="M311.848 26.592H311.768L310.824 28.464L308.152 33.328L305.48 28.464L304.536 26.592H304.456V36H303.144V24.832H304.936L308.136 30.848H308.216L311.432 24.832H313.16V36H311.848V26.592ZM319.105 36.192C318.539 36.192 318.027 36.0907 317.569 35.888C317.121 35.6853 316.731 35.3973 316.401 35.024C316.081 34.64 315.83 34.1867 315.649 33.664C315.478 33.1307 315.393 32.5333 315.393 31.872C315.393 31.2213 315.478 30.6293 315.649 30.096C315.83 29.5627 316.081 29.1093 316.401 28.736C316.731 28.352 317.121 28.0587 317.569 27.856C318.027 27.6533 318.539 27.552 319.105 27.552C319.659 27.552 320.155 27.6533 320.593 27.856C321.03 28.0587 321.403 28.3413 321.713 28.704C322.022 29.056 322.257 29.4773 322.417 29.968C322.587 30.4587 322.673 30.9973 322.673 31.584V32.192H316.737V32.576C316.737 32.928 316.79 33.2587 316.897 33.568C317.014 33.8667 317.174 34.128 317.377 34.352C317.59 34.576 317.846 34.752 318.145 34.88C318.454 35.008 318.801 35.072 319.185 35.072C319.707 35.072 320.161 34.9493 320.545 34.704C320.939 34.4587 321.243 34.1067 321.457 33.648L322.369 34.304C322.102 34.8693 321.686 35.328 321.121 35.68C320.555 36.0213 319.883 36.192 319.105 36.192ZM319.105 28.624C318.753 28.624 318.433 28.688 318.145 28.816C317.857 28.9333 317.606 29.104 317.393 29.328C317.19 29.552 317.03 29.8187 316.913 30.128C316.795 30.4267 316.737 30.7573 316.737 31.12V31.232H321.297V31.056C321.297 30.32 321.094 29.7333 320.689 29.296C320.294 28.848 319.766 28.624 319.105 28.624ZM324.782 36V27.744H326.062V29.264H326.142C326.291 28.8693 326.558 28.5173 326.942 28.208C327.326 27.8987 327.854 27.744 328.526 27.744H329.022V29.024H328.27C327.577 29.024 327.033 29.1573 326.638 29.424C326.254 29.68 326.062 30.0053 326.062 30.4V36H324.782ZM333.683 36.192C333.117 36.192 332.605 36.0907 332.147 35.888C331.699 35.6853 331.309 35.3973 330.979 35.024C330.659 34.64 330.408 34.1867 330.227 33.664C330.056 33.1307 329.971 32.5333 329.971 31.872C329.971 31.2213 330.056 30.6293 330.227 30.096C330.408 29.5627 330.659 29.1093 330.979 28.736C331.309 28.352 331.699 28.0587 332.147 27.856C332.605 27.6533 333.117 27.552 333.683 27.552C334.237 27.552 334.733 27.6533 335.171 27.856C335.608 28.0587 335.981 28.3413 336.291 28.704C336.6 29.056 336.835 29.4773 336.995 29.968C337.165 30.4587 337.251 30.9973 337.251 31.584V32.192H331.315V32.576C331.315 32.928 331.368 33.2587 331.475 33.568C331.592 33.8667 331.752 34.128 331.955 34.352C332.168 34.576 332.424 34.752 332.723 34.88C333.032 35.008 333.379 35.072 333.763 35.072C334.285 35.072 334.739 34.9493 335.123 34.704C335.517 34.4587 335.821 34.1067 336.035 33.648L336.947 34.304C336.68 34.8693 336.264 35.328 335.699 35.68C335.133 36.0213 334.461 36.192 333.683 36.192ZM333.683 28.624C333.331 28.624 333.011 28.688 332.723 28.816C332.435 28.9333 332.184 29.104 331.971 29.328C331.768 29.552 331.608 29.8187 331.491 30.128C331.373 30.4267 331.315 30.7573 331.315 31.12V31.232H335.875V31.056C335.875 30.32 335.672 29.7333 335.267 29.296C334.872 28.848 334.344 28.624 333.683 28.624Z" fill="#1A1A1A"/>
<path d="M349 28L354 33L359 28H349Z" fill="#1A1A1A"/>
<path d="M-16.808 24.592H-16.888L-17.832 26.464L-20.504 31.328L-23.176 26.464L-24.12 24.592H-24.2V34H-25.512V22.832H-23.72L-20.52 28.848H-20.44L-17.224 22.832H-15.496V34H-16.808V24.592ZM-9.55162 34.192C-10.117 34.192 -10.629 34.0907 -11.0876 33.888C-11.5356 33.6853 -11.925 33.3973 -12.2556 33.024C-12.5756 32.64 -12.8263 32.1867 -13.0076 31.664C-13.1783 31.1307 -13.2636 30.5333 -13.2636 29.872C-13.2636 29.2213 -13.1783 28.6293 -13.0076 28.096C-12.8263 27.5627 -12.5756 27.1093 -12.2556 26.736C-11.925 26.352 -11.5356 26.0587 -11.0876 25.856C-10.629 25.6533 -10.117 25.552 -9.55162 25.552C-8.99696 25.552 -8.50096 25.6533 -8.06362 25.856C-7.62629 26.0587 -7.25296 26.3413 -6.94362 26.704C-6.63429 27.056 -6.39962 27.4773 -6.23962 27.968C-6.06896 28.4587 -5.98362 28.9973 -5.98362 29.584V30.192H-11.9196V30.576C-11.9196 30.928 -11.8663 31.2587 -11.7596 31.568C-11.6423 31.8667 -11.4823 32.128 -11.2796 32.352C-11.0663 32.576 -10.8103 32.752 -10.5116 32.88C-10.2023 33.008 -9.85562 33.072 -9.47162 33.072C-8.94896 33.072 -8.49562 32.9493 -8.11162 32.704C-7.71696 32.4587 -7.41296 32.1067 -7.19962 31.648L-6.28762 32.304C-6.55429 32.8693 -6.97029 33.328 -7.53562 33.68C-8.10096 34.0213 -8.77296 34.192 -9.55162 34.192ZM-9.55162 26.624C-9.90362 26.624 -10.2236 26.688 -10.5116 26.816C-10.7996 26.9333 -11.0503 27.104 -11.2636 27.328C-11.4663 27.552 -11.6263 27.8187 -11.7436 28.128C-11.861 28.4267 -11.9196 28.7573 -11.9196 29.12V29.232H-7.35962V29.056C-7.35962 28.32 -7.56229 27.7333 -7.96762 27.296C-8.36229 26.848 -8.89029 26.624 -9.55162 26.624ZM-3.87437 34V25.744H-2.59437V27.088H-2.53037C-2.32771 26.6187 -2.04504 26.2453 -1.68237 25.968C-1.30904 25.6907 -0.813042 25.552 -0.194375 25.552C0.658959 25.552 1.33096 25.8293 1.82163 26.384C2.32296 26.928 2.57363 27.7013 2.57363 28.704V34H1.29363V28.928C1.29363 27.4453 0.669625 26.704 -0.578375 26.704C-0.834375 26.704 -1.08504 26.736 -1.33037 26.8C-1.56504 26.864 -1.77837 26.96 -1.97037 27.088C-2.16237 27.216 -2.31704 27.3813 -2.43437 27.584C-2.54104 27.776 -2.59437 28.0053 -2.59437 28.272V34H-3.87437ZM10.3074 32.656H10.2434C10.158 32.848 10.0514 33.04 9.92338 33.232C9.80604 33.4133 9.65671 33.5787 9.47538 33.728C9.29404 33.8667 9.07538 33.9787 8.81938 34.064C8.56338 34.1493 8.26471 34.192 7.92338 34.192C7.07004 34.192 6.39271 33.92 5.89138 33.376C5.39004 32.8213 5.13938 32.0427 5.13938 31.04V25.744H6.41938V30.816C6.41938 32.2987 7.04871 33.04 8.30738 33.04C8.56338 33.04 8.80871 33.008 9.04338 32.944C9.28871 32.88 9.50204 32.784 9.68338 32.656C9.87538 32.528 10.0247 32.368 10.1314 32.176C10.2487 31.9733 10.3074 31.7333 10.3074 31.456V25.744H11.5874V34H10.3074V32.656ZM14.3131 25.744H15.5931V27.088H15.6571C15.8705 26.5653 16.1798 26.1813 16.5851 25.936C17.0011 25.68 17.4971 25.552 18.0731 25.552C18.5851 25.552 19.0491 25.6533 19.4651 25.856C19.8811 26.0587 20.2331 26.3467 20.5211 26.72C20.8198 27.0933 21.0438 27.5467 21.1931 28.08C21.3531 28.6133 21.4331 29.2107 21.4331 29.872C21.4331 30.5333 21.3531 31.1307 21.1931 31.664C21.0438 32.1973 20.8198 32.6507 20.5211 33.024C20.2331 33.3973 19.8811 33.6853 19.4651 33.888C19.0491 34.0907 18.5851 34.192 18.0731 34.192C16.9531 34.192 16.1478 33.68 15.6571 32.656H15.5931V37.2H14.3131V25.744ZM17.7211 33.04C18.4465 33.04 19.0171 32.816 19.4331 32.368C19.8491 31.9093 20.0571 31.312 20.0571 30.576V29.168C20.0571 28.432 19.8491 27.84 19.4331 27.392C19.0171 26.9333 18.4465 26.704 17.7211 26.704C17.4331 26.704 17.1558 26.7467 16.8891 26.832C16.6331 26.9067 16.4091 27.0133 16.2171 27.152C16.0251 27.2907 15.8705 27.4613 15.7531 27.664C15.6465 27.856 15.5931 28.064 15.5931 28.288V31.36C15.5931 31.6267 15.6465 31.8667 15.7531 32.08C15.8705 32.2827 16.0251 32.4587 16.2171 32.608C16.4091 32.7467 16.6331 32.8533 16.8891 32.928C17.1558 33.0027 17.4331 33.04 17.7211 33.04ZM28.6824 32.656H28.6184C28.533 32.848 28.4264 33.04 28.2984 33.232C28.181 33.4133 28.0317 33.5787 27.8504 33.728C27.669 33.8667 27.4504 33.9787 27.1944 34.064C26.9384 34.1493 26.6397 34.192 26.2984 34.192C25.445 34.192 24.7677 33.92 24.2664 33.376C23.765 32.8213 23.5144 32.0427 23.5144 31.04V25.744H24.7944V30.816C24.7944 32.2987 25.4237 33.04 26.6824 33.04C26.9384 33.04 27.1837 33.008 27.4184 32.944C27.6637 32.88 27.877 32.784 28.0584 32.656C28.2504 32.528 28.3997 32.368 28.5064 32.176C28.6237 31.9733 28.6824 31.7333 28.6824 31.456V25.744H29.9624V34H28.6824V32.656ZM32.6881 34V25.744H33.9681V27.088H34.0321C34.2348 26.6187 34.5175 26.2453 34.8801 25.968C35.2535 25.6907 35.7495 25.552 36.3681 25.552C37.2215 25.552 37.8935 25.8293 38.3841 26.384C38.8855 26.928 39.1361 27.7013 39.1361 28.704V34H37.8561V28.928C37.8561 27.4453 37.2321 26.704 35.9841 26.704C35.7281 26.704 35.4775 26.736 35.2321 26.8C34.9975 26.864 34.7841 26.96 34.5921 27.088C34.4001 27.216 34.2455 27.3813 34.1281 27.584C34.0215 27.776 33.9681 28.0053 33.9681 28.272V34H32.6881ZM41.7819 22.16H43.0619V29.664H43.1259L44.3899 28.256L46.7259 25.744H48.2779L45.2219 29.008L48.5819 34H47.0299L44.2939 29.792L43.0619 31.056V34H41.7819V22.16ZM51.8871 34C51.4391 34 51.0978 33.8773 50.8631 33.632C50.6391 33.376 50.5271 33.0453 50.5271 32.64V26.864H49.1671V25.744H49.9351C50.2125 25.744 50.3991 25.6907 50.4951 25.584C50.6018 25.4667 50.6551 25.2693 50.6551 24.992V23.456H51.8071V25.744H53.6151V26.864H51.8071V32.88H53.4871V34H51.8871Z" fill="#1A1A1A"/>
<path d="M89.192 24.592H89.112L88.168 26.464L85.496 31.328L82.824 26.464L81.88 24.592H81.8V34H80.488V22.832H82.28L85.48 28.848H85.56L88.776 22.832H90.504V34H89.192V24.592ZM96.4484 34.192C95.883 34.192 95.371 34.0907 94.9124 33.888C94.4644 33.6853 94.075 33.3973 93.7444 33.024C93.4244 32.64 93.1737 32.1867 92.9924 31.664C92.8217 31.1307 92.7364 30.5333 92.7364 29.872C92.7364 29.2213 92.8217 28.6293 92.9924 28.096C93.1737 27.5627 93.4244 27.1093 93.7444 26.736C94.075 26.352 94.4644 26.0587 94.9124 25.856C95.371 25.6533 95.883 25.552 96.4484 25.552C97.003 25.552 97.499 25.6533 97.9364 25.856C98.3737 26.0587 98.747 26.3413 99.0564 26.704C99.3657 27.056 99.6004 27.4773 99.7604 27.968C99.931 28.4587 100.016 28.9973 100.016 29.584V30.192H94.0804V30.576C94.0804 30.928 94.1337 31.2587 94.2404 31.568C94.3577 31.8667 94.5177 32.128 94.7204 32.352C94.9337 32.576 95.1897 32.752 95.4884 32.88C95.7977 33.008 96.1444 33.072 96.5284 33.072C97.051 33.072 97.5044 32.9493 97.8884 32.704C98.283 32.4587 98.587 32.1067 98.8004 31.648L99.7124 32.304C99.4457 32.8693 99.0297 33.328 98.4644 33.68C97.899 34.0213 97.227 34.192 96.4484 34.192ZM96.4484 26.624C96.0964 26.624 95.7764 26.688 95.4884 26.816C95.2004 26.9333 94.9497 27.104 94.7364 27.328C94.5337 27.552 94.3737 27.8187 94.2564 28.128C94.139 28.4267 94.0804 28.7573 94.0804 29.12V29.232H98.6404V29.056C98.6404 28.32 98.4377 27.7333 98.0324 27.296C97.6377 26.848 97.1097 26.624 96.4484 26.624ZM102.126 34V25.744H103.406V27.088H103.47C103.672 26.6187 103.955 26.2453 104.318 25.968C104.691 25.6907 105.187 25.552 105.806 25.552C106.659 25.552 107.331 25.8293 107.822 26.384C108.323 26.928 108.574 27.7013 108.574 28.704V34H107.294V28.928C107.294 27.4453 106.67 26.704 105.422 26.704C105.166 26.704 104.915 26.736 104.67 26.8C104.435 26.864 104.222 26.96 104.03 27.088C103.838 27.216 103.683 27.3813 103.566 27.584C103.459 27.776 103.406 28.0053 103.406 28.272V34H102.126ZM116.307 32.656H116.243C116.158 32.848 116.051 33.04 115.923 33.232C115.806 33.4133 115.657 33.5787 115.475 33.728C115.294 33.8667 115.075 33.9787 114.819 34.064C114.563 34.1493 114.265 34.192 113.923 34.192C113.07 34.192 112.393 33.92 111.891 33.376C111.39 32.8213 111.139 32.0427 111.139 31.04V25.744H112.419V30.816C112.419 32.2987 113.049 33.04 114.307 33.04C114.563 33.04 114.809 33.008 115.043 32.944C115.289 32.88 115.502 32.784 115.683 32.656C115.875 32.528 116.025 32.368 116.131 32.176C116.249 31.9733 116.307 31.7333 116.307 31.456V25.744H117.587V34H116.307V32.656ZM120.313 25.744H121.593V27.088H121.657C121.87 26.5653 122.18 26.1813 122.585 25.936C123.001 25.68 123.497 25.552 124.073 25.552C124.585 25.552 125.049 25.6533 125.465 25.856C125.881 26.0587 126.233 26.3467 126.521 26.72C126.82 27.0933 127.044 27.5467 127.193 28.08C127.353 28.6133 127.433 29.2107 127.433 29.872C127.433 30.5333 127.353 31.1307 127.193 31.664C127.044 32.1973 126.82 32.6507 126.521 33.024C126.233 33.3973 125.881 33.6853 125.465 33.888C125.049 34.0907 124.585 34.192 124.073 34.192C122.953 34.192 122.148 33.68 121.657 32.656H121.593V37.2H120.313V25.744ZM123.721 33.04C124.446 33.04 125.017 32.816 125.433 32.368C125.849 31.9093 126.057 31.312 126.057 30.576V29.168C126.057 28.432 125.849 27.84 125.433 27.392C125.017 26.9333 124.446 26.704 123.721 26.704C123.433 26.704 123.156 26.7467 122.889 26.832C122.633 26.9067 122.409 27.0133 122.217 27.152C122.025 27.2907 121.87 27.4613 121.753 27.664C121.646 27.856 121.593 28.064 121.593 28.288V31.36C121.593 31.6267 121.646 31.8667 121.753 32.08C121.87 32.2827 122.025 32.4587 122.217 32.608C122.409 32.7467 122.633 32.8533 122.889 32.928C123.156 33.0027 123.433 33.04 123.721 33.04ZM134.682 32.656H134.618C134.533 32.848 134.426 33.04 134.298 33.232C134.181 33.4133 134.032 33.5787 133.85 33.728C133.669 33.8667 133.45 33.9787 133.194 34.064C132.938 34.1493 132.64 34.192 132.298 34.192C131.445 34.192 130.768 33.92 130.266 33.376C129.765 32.8213 129.514 32.0427 129.514 31.04V25.744H130.794V30.816C130.794 32.2987 131.424 33.04 132.682 33.04C132.938 33.04 133.184 33.008 133.418 32.944C133.664 32.88 133.877 32.784 134.058 32.656C134.25 32.528 134.4 32.368 134.506 32.176C134.624 31.9733 134.682 31.7333 134.682 31.456V25.744H135.962V34H134.682V32.656ZM138.688 34V25.744H139.968V27.088H140.032C140.235 26.6187 140.517 26.2453 140.88 25.968C141.253 25.6907 141.749 25.552 142.368 25.552C143.221 25.552 143.893 25.8293 144.384 26.384C144.885 26.928 145.136 27.7013 145.136 28.704V34H143.856V28.928C143.856 27.4453 143.232 26.704 141.984 26.704C141.728 26.704 141.477 26.736 141.232 26.8C140.997 26.864 140.784 26.96 140.592 27.088C140.4 27.216 140.245 27.3813 140.128 27.584C140.021 27.776 139.968 28.0053 139.968 28.272V34H138.688ZM147.782 22.16H149.062V29.664H149.126L150.39 28.256L152.726 25.744H154.278L151.222 29.008L154.582 34H153.03L150.294 29.792L149.062 31.056V34H147.782V22.16ZM157.887 34C157.439 34 157.098 33.8773 156.863 33.632C156.639 33.376 156.527 33.0453 156.527 32.64V26.864H155.167V25.744H155.935C156.212 25.744 156.399 25.6907 156.495 25.584C156.602 25.4667 156.655 25.2693 156.655 24.992V23.456H157.807V25.744H159.615V26.864H157.807V32.88H159.487V34H157.887Z" fill="#1A1A1A"/>
<rect width="24" height="24" transform="translate(339 19)" fill="white"/>
<path d="M349 37C349 36.6044 349.117 36.2178 349.337 35.8889C349.557 35.56 349.869 35.3036 350.235 35.1522C350.6 35.0009 351.002 34.9613 351.39 35.0384C351.778 35.1156 352.135 35.3061 352.414 35.5858C352.694 35.8655 352.884 36.2219 352.962 36.6098C353.039 36.9978 352.999 37.3999 352.848 37.7654C352.696 38.1308 352.44 38.4432 352.111 38.6629C351.782 38.8827 351.396 39 351 39C350.47 39 349.961 38.7893 349.586 38.4142C349.211 38.0391 349 37.5304 349 37ZM349 31C349 30.6044 349.117 30.2178 349.337 29.8889C349.557 29.56 349.869 29.3036 350.235 29.1522C350.6 29.0009 351.002 28.9613 351.39 29.0384C351.778 29.1156 352.135 29.3061 352.414 29.5858C352.694 29.8655 352.884 30.2219 352.962 30.6098C353.039 30.9978 352.999 31.3999 352.848 31.7654C352.696 32.1308 352.44 32.4432 352.111 32.6629C351.782 32.8827 351.396 33 351 33C350.47 33 349.961 32.7893 349.586 32.4142C349.211 32.0391 349 31.5304 349 31ZM349 25C349 24.6044 349.117 24.2178 349.337 23.8889C349.557 23.56 349.869 23.3036 350.235 23.1522C350.6 23.0009 351.002 22.9613 351.39 23.0384C351.778 23.1156 352.135 23.3061 352.414 23.5858C352.694 23.8655 352.884 24.2219 352.962 24.6098C353.039 24.9978 352.999 25.3999 352.848 25.7654C352.696 26.1308 352.44 26.4432 352.111 26.6629C351.782 26.8827 351.396 27 351 27C350.47 27 349.961 26.7893 349.586 26.4142C349.211 26.0391 349 25.5304 349 25Z" fill="#1A1A1A"/>
<g filter="url(#filter0_d_5010_49420)">
<mask id="path-7-inside-1_5010_49420" fill="white">
<path fill-rule="evenodd" clip-rule="evenodd" d="M356.805 49.6816L352 45L347.195 49.6816L225 49.6816L225 219L410 219L410 49.6816L356.805 49.6816Z"/>
</mask>
<path fill-rule="evenodd" clip-rule="evenodd" d="M356.805 49.6816L352 45L347.195 49.6816L225 49.6816L225 219L410 219L410 49.6816L356.805 49.6816Z" fill="white"/>
<path d="M352 45L352.698 44.2837L352 43.6039L351.302 44.2837L352 45ZM356.805 49.6816L356.107 50.3979L356.399 50.6816H356.805V49.6816ZM347.195 49.6816V50.6816H347.601L347.893 50.3979L347.195 49.6816ZM225 49.6816L225 48.6816H224L224 49.6816H225ZM225 219H224L224 220H225L225 219ZM410 219V220H411V219H410ZM410 49.6816H411V48.6816H410V49.6816ZM351.302 45.7163L356.107 50.3979L357.503 48.9654L352.698 44.2837L351.302 45.7163ZM347.893 50.3979L352.698 45.7163L351.302 44.2837L346.497 48.9654L347.893 50.3979ZM225 50.6816L347.195 50.6816V48.6816L225 48.6816L225 50.6816ZM226 219L226 49.6816H224L224 219H226ZM410 218L225 218L225 220L410 220V218ZM409 49.6816L409 219H411L411 49.6816H409ZM356.805 50.6816L410 50.6816V48.6816L356.805 48.6816V50.6816Z" fill="#747474" mask="url(#path-7-inside-1_5010_49420)"/>
</g>
<path d="M244.488 205V193.832H251.304V195.016H245.832V198.76H250.984V199.944H245.832V203.816H251.304V205H244.488ZM253.688 193.16H254.968V200.664H255.032L256.296 199.256L258.632 196.744H260.184L257.128 200.008L260.488 205H258.936L256.2 200.792L254.968 202.056V205H253.688V193.16ZM264.449 205.192C263.681 205.192 263.036 205.048 262.513 204.76C262.001 204.461 261.559 204.067 261.185 203.576L262.097 202.84C262.417 203.245 262.775 203.56 263.169 203.784C263.564 203.997 264.023 204.104 264.545 204.104C265.089 204.104 265.511 203.987 265.809 203.752C266.119 203.517 266.273 203.187 266.273 202.76C266.273 202.44 266.167 202.168 265.953 201.944C265.751 201.709 265.377 201.549 264.833 201.464L264.177 201.368C263.793 201.315 263.441 201.235 263.121 201.128C262.801 201.011 262.519 200.861 262.273 200.68C262.039 200.488 261.852 200.253 261.713 199.976C261.585 199.699 261.521 199.368 261.521 198.984C261.521 198.579 261.596 198.227 261.745 197.928C261.895 197.619 262.097 197.363 262.353 197.16C262.62 196.957 262.935 196.808 263.297 196.712C263.66 196.605 264.049 196.552 264.465 196.552C265.137 196.552 265.697 196.669 266.145 196.904C266.604 197.139 267.004 197.464 267.345 197.88L266.497 198.648C266.316 198.392 266.049 198.163 265.697 197.96C265.345 197.747 264.903 197.64 264.369 197.64C263.836 197.64 263.431 197.757 263.153 197.992C262.887 198.216 262.753 198.525 262.753 198.92C262.753 199.325 262.887 199.619 263.153 199.8C263.431 199.981 263.825 200.115 264.337 200.2L264.977 200.296C265.895 200.435 266.545 200.701 266.929 201.096C267.313 201.48 267.505 201.987 267.505 202.616C267.505 203.416 267.233 204.045 266.689 204.504C266.145 204.963 265.399 205.192 264.449 205.192ZM271.481 205C271.033 205 270.692 204.877 270.457 204.632C270.233 204.376 270.121 204.045 270.121 203.64V197.864H268.761V196.744H269.529C269.806 196.744 269.993 196.691 270.089 196.584C270.196 196.467 270.249 196.269 270.249 195.992V194.456H271.401V196.744H273.209V197.864H271.401V203.88H273.081V205H271.481ZM275.266 205V196.744H276.546V198.264H276.626C276.776 197.869 277.042 197.517 277.426 197.208C277.81 196.899 278.338 196.744 279.01 196.744H279.506V198.024H278.754C278.061 198.024 277.517 198.157 277.122 198.424C276.738 198.68 276.546 199.005 276.546 199.4V205H275.266ZM287.079 205C286.599 205 286.252 204.872 286.039 204.616C285.836 204.36 285.708 204.04 285.655 203.656H285.575C285.393 204.168 285.095 204.552 284.679 204.808C284.263 205.064 283.767 205.192 283.191 205.192C282.316 205.192 281.633 204.968 281.143 204.52C280.663 204.072 280.423 203.464 280.423 202.696C280.423 201.917 280.705 201.32 281.271 200.904C281.847 200.488 282.737 200.28 283.943 200.28H285.575V199.464C285.575 198.877 285.415 198.429 285.095 198.12C284.775 197.811 284.284 197.656 283.623 197.656C283.121 197.656 282.7 197.768 282.359 197.992C282.028 198.216 281.751 198.515 281.527 198.888L280.759 198.168C280.983 197.72 281.34 197.341 281.831 197.032C282.321 196.712 282.94 196.552 283.687 196.552C284.689 196.552 285.468 196.797 286.023 197.288C286.577 197.779 286.855 198.461 286.855 199.336V203.88H287.799V205H287.079ZM283.399 204.104C283.719 204.104 284.012 204.067 284.279 203.992C284.545 203.917 284.775 203.811 284.967 203.672C285.159 203.533 285.308 203.373 285.415 203.192C285.521 203.011 285.575 202.813 285.575 202.6V201.24H283.879C283.143 201.24 282.604 201.347 282.263 201.56C281.932 201.773 281.767 202.083 281.767 202.488V202.824C281.767 203.229 281.911 203.544 282.199 203.768C282.497 203.992 282.897 204.104 283.399 204.104ZM293.407 205V196.744H294.687V198.088H294.751C294.847 197.875 294.954 197.677 295.071 197.496C295.199 197.304 295.348 197.139 295.519 197C295.7 196.861 295.908 196.755 296.143 196.68C296.378 196.595 296.655 196.552 296.975 196.552C297.519 196.552 298.02 196.685 298.479 196.952C298.938 197.208 299.279 197.635 299.503 198.232H299.535C299.684 197.784 299.962 197.395 300.367 197.064C300.783 196.723 301.343 196.552 302.047 196.552C302.89 196.552 303.546 196.829 304.015 197.384C304.495 197.928 304.735 198.701 304.735 199.704V205H303.455V199.928C303.455 199.192 303.311 198.637 303.023 198.264C302.735 197.891 302.276 197.704 301.647 197.704C301.391 197.704 301.146 197.736 300.911 197.8C300.687 197.864 300.484 197.96 300.303 198.088C300.122 198.216 299.978 198.381 299.871 198.584C299.764 198.776 299.711 199.005 299.711 199.272V205H298.431V199.928C298.431 199.192 298.287 198.637 297.999 198.264C297.711 197.891 297.263 197.704 296.655 197.704C296.399 197.704 296.154 197.736 295.919 197.8C295.684 197.864 295.476 197.96 295.295 198.088C295.114 198.216 294.964 198.381 294.847 198.584C294.74 198.776 294.687 199.005 294.687 199.272V205H293.407ZM310.48 205.192C309.914 205.192 309.402 205.091 308.944 204.888C308.496 204.685 308.106 204.397 307.776 204.024C307.456 203.64 307.205 203.187 307.024 202.664C306.853 202.131 306.768 201.533 306.768 200.872C306.768 200.221 306.853 199.629 307.024 199.096C307.205 198.563 307.456 198.109 307.776 197.736C308.106 197.352 308.496 197.059 308.944 196.856C309.402 196.653 309.914 196.552 310.48 196.552C311.034 196.552 311.53 196.653 311.968 196.856C312.405 197.059 312.778 197.341 313.088 197.704C313.397 198.056 313.632 198.477 313.792 198.968C313.962 199.459 314.048 199.997 314.048 200.584V201.192H308.112V201.576C308.112 201.928 308.165 202.259 308.272 202.568C308.389 202.867 308.549 203.128 308.752 203.352C308.965 203.576 309.221 203.752 309.52 203.88C309.829 204.008 310.176 204.072 310.56 204.072C311.082 204.072 311.536 203.949 311.92 203.704C312.314 203.459 312.618 203.107 312.832 202.648L313.744 203.304C313.477 203.869 313.061 204.328 312.496 204.68C311.93 205.021 311.258 205.192 310.48 205.192ZM310.48 197.624C310.128 197.624 309.808 197.688 309.52 197.816C309.232 197.933 308.981 198.104 308.768 198.328C308.565 198.552 308.405 198.819 308.288 199.128C308.17 199.427 308.112 199.757 308.112 200.12V200.232H312.672V200.056C312.672 199.32 312.469 198.733 312.064 198.296C311.669 197.848 311.141 197.624 310.48 197.624ZM316.157 205V196.744H317.437V198.088H317.501C317.704 197.619 317.986 197.245 318.349 196.968C318.722 196.691 319.218 196.552 319.837 196.552C320.69 196.552 321.362 196.829 321.853 197.384C322.354 197.928 322.605 198.701 322.605 199.704V205H321.325V199.928C321.325 198.445 320.701 197.704 319.453 197.704C319.197 197.704 318.946 197.736 318.701 197.8C318.466 197.864 318.253 197.96 318.061 198.088C317.869 198.216 317.714 198.381 317.597 198.584C317.49 198.776 317.437 199.005 317.437 199.272V205H316.157ZM330.339 203.656H330.275C330.189 203.848 330.083 204.04 329.955 204.232C329.837 204.413 329.688 204.579 329.507 204.728C329.325 204.867 329.107 204.979 328.851 205.064C328.595 205.149 328.296 205.192 327.955 205.192C327.101 205.192 326.424 204.92 325.923 204.376C325.421 203.821 325.171 203.043 325.171 202.04V196.744H326.451V201.816C326.451 203.299 327.08 204.04 328.339 204.04C328.595 204.04 328.84 204.008 329.075 203.944C329.32 203.88 329.533 203.784 329.715 203.656C329.907 203.528 330.056 203.368 330.163 203.176C330.28 202.973 330.339 202.733 330.339 202.456V196.744H331.619V205H330.339V203.656ZM334.344 196.744H335.624V198.088H335.688C335.902 197.565 336.211 197.181 336.616 196.936C337.032 196.68 337.528 196.552 338.104 196.552C338.616 196.552 339.08 196.653 339.496 196.856C339.912 197.059 340.264 197.347 340.552 197.72C340.851 198.093 341.075 198.547 341.224 199.08C341.384 199.613 341.464 200.211 341.464 200.872C341.464 201.533 341.384 202.131 341.224 202.664C341.075 203.197 340.851 203.651 340.552 204.024C340.264 204.397 339.912 204.685 339.496 204.888C339.08 205.091 338.616 205.192 338.104 205.192C336.984 205.192 336.179 204.68 335.688 203.656H335.624V208.2H334.344V196.744ZM337.752 204.04C338.478 204.04 339.048 203.816 339.464 203.368C339.88 202.909 340.088 202.312 340.088 201.576V200.168C340.088 199.432 339.88 198.84 339.464 198.392C339.048 197.933 338.478 197.704 337.752 197.704C337.464 197.704 337.187 197.747 336.92 197.832C336.664 197.907 336.44 198.013 336.248 198.152C336.056 198.291 335.902 198.461 335.784 198.664C335.678 198.856 335.624 199.064 335.624 199.288V202.36C335.624 202.627 335.678 202.867 335.784 203.08C335.902 203.283 336.056 203.459 336.248 203.608C336.44 203.747 336.664 203.853 336.92 203.928C337.187 204.003 337.464 204.04 337.752 204.04ZM348.714 203.656H348.65C348.564 203.848 348.458 204.04 348.33 204.232C348.212 204.413 348.063 204.579 347.882 204.728C347.7 204.867 347.482 204.979 347.226 205.064C346.97 205.149 346.671 205.192 346.33 205.192C345.476 205.192 344.799 204.92 344.298 204.376C343.796 203.821 343.546 203.043 343.546 202.04V196.744H344.826V201.816C344.826 203.299 345.455 204.04 346.714 204.04C346.97 204.04 347.215 204.008 347.45 203.944C347.695 203.88 347.908 203.784 348.09 203.656C348.282 203.528 348.431 203.368 348.538 203.176C348.655 202.973 348.714 202.733 348.714 202.456V196.744H349.994V205H348.714V203.656ZM352.719 205V196.744H353.999V198.088H354.063C354.266 197.619 354.549 197.245 354.911 196.968C355.285 196.691 355.781 196.552 356.399 196.552C357.253 196.552 357.925 196.829 358.415 197.384C358.917 197.928 359.167 198.701 359.167 199.704V205H357.887V199.928C357.887 198.445 357.263 197.704 356.015 197.704C355.759 197.704 355.509 197.736 355.263 197.8C355.029 197.864 354.815 197.96 354.623 198.088C354.431 198.216 354.277 198.381 354.159 198.584C354.053 198.776 353.999 199.005 353.999 199.272V205H352.719ZM361.813 193.16H363.093V200.664H363.157L364.421 199.256L366.757 196.744H368.309L365.253 200.008L368.613 205H367.061L364.325 200.792L363.093 202.056V205H361.813V193.16ZM371.918 205C371.47 205 371.129 204.877 370.894 204.632C370.67 204.376 370.558 204.045 370.558 203.64V197.864H369.198V196.744H369.966C370.244 196.744 370.43 196.691 370.526 196.584C370.633 196.467 370.686 196.269 370.686 195.992V194.456H371.838V196.744H373.646V197.864H371.838V203.88H373.518V205H371.918ZM384.125 205V202.808H378.733V201.624L383.405 193.832H385.405V201.688H387.021V202.808H385.405V205H384.125ZM379.997 201.688H384.125V194.872H384.045L379.997 201.688Z" fill="#1A1A1A"/>
<rect width="183" height="1" transform="matrix(1 0 0 -1 226 180)" fill="#BFBFBF"/>
<path d="M244.488 165V153.832H251.304V155.016H245.832V158.76H250.984V159.944H245.832V163.816H251.304V165H244.488ZM253.688 153.16H254.968V160.664H255.032L256.296 159.256L258.632 156.744H260.184L257.128 160.008L260.488 165H258.936L256.2 160.792L254.968 162.056V165H253.688V153.16ZM264.449 165.192C263.681 165.192 263.036 165.048 262.513 164.76C262.001 164.461 261.559 164.067 261.185 163.576L262.097 162.84C262.417 163.245 262.775 163.56 263.169 163.784C263.564 163.997 264.023 164.104 264.545 164.104C265.089 164.104 265.511 163.987 265.809 163.752C266.119 163.517 266.273 163.187 266.273 162.76C266.273 162.44 266.167 162.168 265.953 161.944C265.751 161.709 265.377 161.549 264.833 161.464L264.177 161.368C263.793 161.315 263.441 161.235 263.121 161.128C262.801 161.011 262.519 160.861 262.273 160.68C262.039 160.488 261.852 160.253 261.713 159.976C261.585 159.699 261.521 159.368 261.521 158.984C261.521 158.579 261.596 158.227 261.745 157.928C261.895 157.619 262.097 157.363 262.353 157.16C262.62 156.957 262.935 156.808 263.297 156.712C263.66 156.605 264.049 156.552 264.465 156.552C265.137 156.552 265.697 156.669 266.145 156.904C266.604 157.139 267.004 157.464 267.345 157.88L266.497 158.648C266.316 158.392 266.049 158.163 265.697 157.96C265.345 157.747 264.903 157.64 264.369 157.64C263.836 157.64 263.431 157.757 263.153 157.992C262.887 158.216 262.753 158.525 262.753 158.92C262.753 159.325 262.887 159.619 263.153 159.8C263.431 159.981 263.825 160.115 264.337 160.2L264.977 160.296C265.895 160.435 266.545 160.701 266.929 161.096C267.313 161.48 267.505 161.987 267.505 162.616C267.505 163.416 267.233 164.045 266.689 164.504C266.145 164.963 265.399 165.192 264.449 165.192ZM271.481 165C271.033 165 270.692 164.877 270.457 164.632C270.233 164.376 270.121 164.045 270.121 163.64V157.864H268.761V156.744H269.529C269.806 156.744 269.993 156.691 270.089 156.584C270.196 156.467 270.249 156.269 270.249 155.992V154.456H271.401V156.744H273.209V157.864H271.401V163.88H273.081V165H271.481ZM275.266 165V156.744H276.546V158.264H276.626C276.776 157.869 277.042 157.517 277.426 157.208C277.81 156.899 278.338 156.744 279.01 156.744H279.506V158.024H278.754C278.061 158.024 277.517 158.157 277.122 158.424C276.738 158.68 276.546 159.005 276.546 159.4V165H275.266ZM287.079 165C286.599 165 286.252 164.872 286.039 164.616C285.836 164.36 285.708 164.04 285.655 163.656H285.575C285.393 164.168 285.095 164.552 284.679 164.808C284.263 165.064 283.767 165.192 283.191 165.192C282.316 165.192 281.633 164.968 281.143 164.52C280.663 164.072 280.423 163.464 280.423 162.696C280.423 161.917 280.705 161.32 281.271 160.904C281.847 160.488 282.737 160.28 283.943 160.28H285.575V159.464C285.575 158.877 285.415 158.429 285.095 158.12C284.775 157.811 284.284 157.656 283.623 157.656C283.121 157.656 282.7 157.768 282.359 157.992C282.028 158.216 281.751 158.515 281.527 158.888L280.759 158.168C280.983 157.72 281.34 157.341 281.831 157.032C282.321 156.712 282.94 156.552 283.687 156.552C284.689 156.552 285.468 156.797 286.023 157.288C286.577 157.779 286.855 158.461 286.855 159.336V163.88H287.799V165H287.079ZM283.399 164.104C283.719 164.104 284.012 164.067 284.279 163.992C284.545 163.917 284.775 163.811 284.967 163.672C285.159 163.533 285.308 163.373 285.415 163.192C285.521 163.011 285.575 162.813 285.575 162.6V161.24H283.879C283.143 161.24 282.604 161.347 282.263 161.56C281.932 161.773 281.767 162.083 281.767 162.488V162.824C281.767 163.229 281.911 163.544 282.199 163.768C282.497 163.992 282.897 164.104 283.399 164.104ZM293.407 165V156.744H294.687V158.088H294.751C294.847 157.875 294.954 157.677 295.071 157.496C295.199 157.304 295.348 157.139 295.519 157C295.7 156.861 295.908 156.755 296.143 156.68C296.378 156.595 296.655 156.552 296.975 156.552C297.519 156.552 298.02 156.685 298.479 156.952C298.938 157.208 299.279 157.635 299.503 158.232H299.535C299.684 157.784 299.962 157.395 300.367 157.064C300.783 156.723 301.343 156.552 302.047 156.552C302.89 156.552 303.546 156.829 304.015 157.384C304.495 157.928 304.735 158.701 304.735 159.704V165H303.455V159.928C303.455 159.192 303.311 158.637 303.023 158.264C302.735 157.891 302.276 157.704 301.647 157.704C301.391 157.704 301.146 157.736 300.911 157.8C300.687 157.864 300.484 157.96 300.303 158.088C300.122 158.216 299.978 158.381 299.871 158.584C299.764 158.776 299.711 159.005 299.711 159.272V165H298.431V159.928C298.431 159.192 298.287 158.637 297.999 158.264C297.711 157.891 297.263 157.704 296.655 157.704C296.399 157.704 296.154 157.736 295.919 157.8C295.684 157.864 295.476 157.96 295.295 158.088C295.114 158.216 294.964 158.381 294.847 158.584C294.74 158.776 294.687 159.005 294.687 159.272V165H293.407ZM310.48 165.192C309.914 165.192 309.402 165.091 308.944 164.888C308.496 164.685 308.106 164.397 307.776 164.024C307.456 163.64 307.205 163.187 307.024 162.664C306.853 162.131 306.768 161.533 306.768 160.872C306.768 160.221 306.853 159.629 307.024 159.096C307.205 158.563 307.456 158.109 307.776 157.736C308.106 157.352 308.496 157.059 308.944 156.856C309.402 156.653 309.914 156.552 310.48 156.552C311.034 156.552 311.53 156.653 311.968 156.856C312.405 157.059 312.778 157.341 313.088 157.704C313.397 158.056 313.632 158.477 313.792 158.968C313.962 159.459 314.048 159.997 314.048 160.584V161.192H308.112V161.576C308.112 161.928 308.165 162.259 308.272 162.568C308.389 162.867 308.549 163.128 308.752 163.352C308.965 163.576 309.221 163.752 309.52 163.88C309.829 164.008 310.176 164.072 310.56 164.072C311.082 164.072 311.536 163.949 311.92 163.704C312.314 163.459 312.618 163.107 312.832 162.648L313.744 163.304C313.477 163.869 313.061 164.328 312.496 164.68C311.93 165.021 311.258 165.192 310.48 165.192ZM310.48 157.624C310.128 157.624 309.808 157.688 309.52 157.816C309.232 157.933 308.981 158.104 308.768 158.328C308.565 158.552 308.405 158.819 308.288 159.128C308.17 159.427 308.112 159.757 308.112 160.12V160.232H312.672V160.056C312.672 159.32 312.469 158.733 312.064 158.296C311.669 157.848 311.141 157.624 310.48 157.624ZM316.157 165V156.744H317.437V158.088H317.501C317.704 157.619 317.986 157.245 318.349 156.968C318.722 156.691 319.218 156.552 319.837 156.552C320.69 156.552 321.362 156.829 321.853 157.384C322.354 157.928 322.605 158.701 322.605 159.704V165H321.325V159.928C321.325 158.445 320.701 157.704 319.453 157.704C319.197 157.704 318.946 157.736 318.701 157.8C318.466 157.864 318.253 157.96 318.061 158.088C317.869 158.216 317.714 158.381 317.597 158.584C317.49 158.776 317.437 159.005 317.437 159.272V165H316.157ZM330.339 163.656H330.275C330.189 163.848 330.083 164.04 329.955 164.232C329.837 164.413 329.688 164.579 329.507 164.728C329.325 164.867 329.107 164.979 328.851 165.064C328.595 165.149 328.296 165.192 327.955 165.192C327.101 165.192 326.424 164.92 325.923 164.376C325.421 163.821 325.171 163.043 325.171 162.04V156.744H326.451V161.816C326.451 163.299 327.08 164.04 328.339 164.04C328.595 164.04 328.84 164.008 329.075 163.944C329.32 163.88 329.533 163.784 329.715 163.656C329.907 163.528 330.056 163.368 330.163 163.176C330.28 162.973 330.339 162.733 330.339 162.456V156.744H331.619V165H330.339V163.656ZM334.344 156.744H335.624V158.088H335.688C335.902 157.565 336.211 157.181 336.616 156.936C337.032 156.68 337.528 156.552 338.104 156.552C338.616 156.552 339.08 156.653 339.496 156.856C339.912 157.059 340.264 157.347 340.552 157.72C340.851 158.093 341.075 158.547 341.224 159.08C341.384 159.613 341.464 160.211 341.464 160.872C341.464 161.533 341.384 162.131 341.224 162.664C341.075 163.197 340.851 163.651 340.552 164.024C340.264 164.397 339.912 164.685 339.496 164.888C339.08 165.091 338.616 165.192 338.104 165.192C336.984 165.192 336.179 164.68 335.688 163.656H335.624V168.2H334.344V156.744ZM337.752 164.04C338.478 164.04 339.048 163.816 339.464 163.368C339.88 162.909 340.088 162.312 340.088 161.576V160.168C340.088 159.432 339.88 158.84 339.464 158.392C339.048 157.933 338.478 157.704 337.752 157.704C337.464 157.704 337.187 157.747 336.92 157.832C336.664 157.907 336.44 158.013 336.248 158.152C336.056 158.291 335.902 158.461 335.784 158.664C335.678 158.856 335.624 159.064 335.624 159.288V162.36C335.624 162.627 335.678 162.867 335.784 163.08C335.902 163.283 336.056 163.459 336.248 163.608C336.44 163.747 336.664 163.853 336.92 163.928C337.187 164.003 337.464 164.04 337.752 164.04ZM348.714 163.656H348.65C348.564 163.848 348.458 164.04 348.33 164.232C348.212 164.413 348.063 164.579 347.882 164.728C347.7 164.867 347.482 164.979 347.226 165.064C346.97 165.149 346.671 165.192 346.33 165.192C345.476 165.192 344.799 164.92 344.298 164.376C343.796 163.821 343.546 163.043 343.546 162.04V156.744H344.826V161.816C344.826 163.299 345.455 164.04 346.714 164.04C346.97 164.04 347.215 164.008 347.45 163.944C347.695 163.88 347.908 163.784 348.09 163.656C348.282 163.528 348.431 163.368 348.538 163.176C348.655 162.973 348.714 162.733 348.714 162.456V156.744H349.994V165H348.714V163.656ZM352.719 165V156.744H353.999V158.088H354.063C354.266 157.619 354.549 157.245 354.911 156.968C355.285 156.691 355.781 156.552 356.399 156.552C357.253 156.552 357.925 156.829 358.415 157.384C358.917 157.928 359.167 158.701 359.167 159.704V165H357.887V159.928C357.887 158.445 357.263 157.704 356.015 157.704C355.759 157.704 355.509 157.736 355.263 157.8C355.029 157.864 354.815 157.96 354.623 158.088C354.431 158.216 354.277 158.381 354.159 158.584C354.053 158.776 353.999 159.005 353.999 159.272V165H352.719ZM361.813 153.16H363.093V160.664H363.157L364.421 159.256L366.757 156.744H368.309L365.253 160.008L368.613 165H367.061L364.325 160.792L363.093 162.056V165H361.813V153.16ZM371.918 165C371.47 165 371.129 164.877 370.894 164.632C370.67 164.376 370.558 164.045 370.558 163.64V157.864H369.198V156.744H369.966C370.244 156.744 370.43 156.691 370.526 156.584C370.633 156.467 370.686 156.269 370.686 155.992V154.456H371.838V156.744H373.646V157.864H371.838V163.88H373.518V165H371.918ZM382.301 158.568C383.058 158.568 383.624 158.397 383.997 158.056C384.381 157.704 384.573 157.256 384.573 156.712V156.6C384.573 156.013 384.386 155.576 384.013 155.288C383.65 154.989 383.17 154.84 382.573 154.84C381.997 154.84 381.528 154.968 381.165 155.224C380.802 155.469 380.504 155.805 380.269 156.232L379.277 155.464C379.416 155.24 379.581 155.021 379.773 154.808C379.976 154.584 380.21 154.387 380.477 154.216C380.744 154.045 381.053 153.907 381.405 153.8C381.757 153.693 382.157 153.64 382.605 153.64C383.074 153.64 383.517 153.704 383.933 153.832C384.349 153.949 384.706 154.131 385.005 154.376C385.314 154.611 385.554 154.904 385.725 155.256C385.906 155.608 385.997 156.008 385.997 156.456C385.997 156.819 385.938 157.144 385.821 157.432C385.714 157.72 385.565 157.971 385.373 158.184C385.181 158.397 384.952 158.579 384.685 158.728C384.429 158.877 384.152 158.989 383.853 159.064V159.128C384.152 159.192 384.44 159.299 384.717 159.448C385.005 159.587 385.256 159.773 385.469 160.008C385.693 160.232 385.869 160.509 385.997 160.84C386.136 161.16 386.205 161.528 386.205 161.944C386.205 162.424 386.114 162.867 385.933 163.272C385.752 163.667 385.496 164.008 385.165 164.296C384.834 164.573 384.434 164.792 383.965 164.952C383.496 165.112 382.978 165.192 382.413 165.192C381.933 165.192 381.506 165.139 381.133 165.032C380.76 164.925 380.429 164.781 380.141 164.6C379.853 164.419 379.597 164.216 379.373 163.992C379.16 163.768 378.968 163.533 378.797 163.288L379.805 162.52C379.944 162.744 380.093 162.947 380.253 163.128C380.424 163.309 380.61 163.464 380.813 163.592C381.016 163.72 381.245 163.821 381.501 163.896C381.757 163.96 382.056 163.992 382.397 163.992C383.186 163.992 383.784 163.816 384.189 163.464C384.594 163.101 384.797 162.589 384.797 161.928V161.8C384.797 161.139 384.594 160.632 384.189 160.28C383.784 159.917 383.186 159.736 382.397 159.736H381.085V158.568H382.301Z" fill="#1A1A1A"/>
<rect width="183" height="1" transform="matrix(1 0 0 -1 226 140)" fill="#BFBFBF"/>
<path d="M244.488 125V113.832H251.304V115.016H245.832V118.76H250.984V119.944H245.832V123.816H251.304V125H244.488ZM253.688 113.16H254.968V120.664H255.032L256.296 119.256L258.632 116.744H260.184L257.128 120.008L260.488 125H258.936L256.2 120.792L254.968 122.056V125H253.688V113.16ZM264.449 125.192C263.681 125.192 263.036 125.048 262.513 124.76C262.001 124.461 261.559 124.067 261.185 123.576L262.097 122.84C262.417 123.245 262.775 123.56 263.169 123.784C263.564 123.997 264.023 124.104 264.545 124.104C265.089 124.104 265.511 123.987 265.809 123.752C266.119 123.517 266.273 123.187 266.273 122.76C266.273 122.44 266.167 122.168 265.953 121.944C265.751 121.709 265.377 121.549 264.833 121.464L264.177 121.368C263.793 121.315 263.441 121.235 263.121 121.128C262.801 121.011 262.519 120.861 262.273 120.68C262.039 120.488 261.852 120.253 261.713 119.976C261.585 119.699 261.521 119.368 261.521 118.984C261.521 118.579 261.596 118.227 261.745 117.928C261.895 117.619 262.097 117.363 262.353 117.16C262.62 116.957 262.935 116.808 263.297 116.712C263.66 116.605 264.049 116.552 264.465 116.552C265.137 116.552 265.697 116.669 266.145 116.904C266.604 117.139 267.004 117.464 267.345 117.88L266.497 118.648C266.316 118.392 266.049 118.163 265.697 117.96C265.345 117.747 264.903 117.64 264.369 117.64C263.836 117.64 263.431 117.757 263.153 117.992C262.887 118.216 262.753 118.525 262.753 118.92C262.753 119.325 262.887 119.619 263.153 119.8C263.431 119.981 263.825 120.115 264.337 120.2L264.977 120.296C265.895 120.435 266.545 120.701 266.929 121.096C267.313 121.48 267.505 121.987 267.505 122.616C267.505 123.416 267.233 124.045 266.689 124.504C266.145 124.963 265.399 125.192 264.449 125.192ZM271.481 125C271.033 125 270.692 124.877 270.457 124.632C270.233 124.376 270.121 124.045 270.121 123.64V117.864H268.761V116.744H269.529C269.806 116.744 269.993 116.691 270.089 116.584C270.196 116.467 270.249 116.269 270.249 115.992V114.456H271.401V116.744H273.209V117.864H271.401V123.88H273.081V125H271.481ZM275.266 125V116.744H276.546V118.264H276.626C276.776 117.869 277.042 117.517 277.426 117.208C277.81 116.899 278.338 116.744 279.01 116.744H279.506V118.024H278.754C278.061 118.024 277.517 118.157 277.122 118.424C276.738 118.68 276.546 119.005 276.546 119.4V125H275.266ZM287.079 125C286.599 125 286.252 124.872 286.039 124.616C285.836 124.36 285.708 124.04 285.655 123.656H285.575C285.393 124.168 285.095 124.552 284.679 124.808C284.263 125.064 283.767 125.192 283.191 125.192C282.316 125.192 281.633 124.968 281.143 124.52C280.663 124.072 280.423 123.464 280.423 122.696C280.423 121.917 280.705 121.32 281.271 120.904C281.847 120.488 282.737 120.28 283.943 120.28H285.575V119.464C285.575 118.877 285.415 118.429 285.095 118.12C284.775 117.811 284.284 117.656 283.623 117.656C283.121 117.656 282.7 117.768 282.359 117.992C282.028 118.216 281.751 118.515 281.527 118.888L280.759 118.168C280.983 117.72 281.34 117.341 281.831 117.032C282.321 116.712 282.94 116.552 283.687 116.552C284.689 116.552 285.468 116.797 286.023 117.288C286.577 117.779 286.855 118.461 286.855 119.336V123.88H287.799V125H287.079ZM283.399 124.104C283.719 124.104 284.012 124.067 284.279 123.992C284.545 123.917 284.775 123.811 284.967 123.672C285.159 123.533 285.308 123.373 285.415 123.192C285.521 123.011 285.575 122.813 285.575 122.6V121.24H283.879C283.143 121.24 282.604 121.347 282.263 121.56C281.932 121.773 281.767 122.083 281.767 122.488V122.824C281.767 123.229 281.911 123.544 282.199 123.768C282.497 123.992 282.897 124.104 283.399 124.104ZM293.407 125V116.744H294.687V118.088H294.751C294.847 117.875 294.954 117.677 295.071 117.496C295.199 117.304 295.348 117.139 295.519 117C295.7 116.861 295.908 116.755 296.143 116.68C296.378 116.595 296.655 116.552 296.975 116.552C297.519 116.552 298.02 116.685 298.479 116.952C298.938 117.208 299.279 117.635 299.503 118.232H299.535C299.684 117.784 299.962 117.395 300.367 117.064C300.783 116.723 301.343 116.552 302.047 116.552C302.89 116.552 303.546 116.829 304.015 117.384C304.495 117.928 304.735 118.701 304.735 119.704V125H303.455V119.928C303.455 119.192 303.311 118.637 303.023 118.264C302.735 117.891 302.276 117.704 301.647 117.704C301.391 117.704 301.146 117.736 300.911 117.8C300.687 117.864 300.484 117.96 300.303 118.088C300.122 118.216 299.978 118.381 299.871 118.584C299.764 118.776 299.711 119.005 299.711 119.272V125H298.431V119.928C298.431 119.192 298.287 118.637 297.999 118.264C297.711 117.891 297.263 117.704 296.655 117.704C296.399 117.704 296.154 117.736 295.919 117.8C295.684 117.864 295.476 117.96 295.295 118.088C295.114 118.216 294.964 118.381 294.847 118.584C294.74 118.776 294.687 119.005 294.687 119.272V125H293.407ZM310.48 125.192C309.914 125.192 309.402 125.091 308.944 124.888C308.496 124.685 308.106 124.397 307.776 124.024C307.456 123.64 307.205 123.187 307.024 122.664C306.853 122.131 306.768 121.533 306.768 120.872C306.768 120.221 306.853 119.629 307.024 119.096C307.205 118.563 307.456 118.109 307.776 117.736C308.106 117.352 308.496 117.059 308.944 116.856C309.402 116.653 309.914 116.552 310.48 116.552C311.034 116.552 311.53 116.653 311.968 116.856C312.405 117.059 312.778 117.341 313.088 117.704C313.397 118.056 313.632 118.477 313.792 118.968C313.962 119.459 314.048 119.997 314.048 120.584V121.192H308.112V121.576C308.112 121.928 308.165 122.259 308.272 122.568C308.389 122.867 308.549 123.128 308.752 123.352C308.965 123.576 309.221 123.752 309.52 123.88C309.829 124.008 310.176 124.072 310.56 124.072C311.082 124.072 311.536 123.949 311.92 123.704C312.314 123.459 312.618 123.107 312.832 122.648L313.744 123.304C313.477 123.869 313.061 124.328 312.496 124.68C311.93 125.021 311.258 125.192 310.48 125.192ZM310.48 117.624C310.128 117.624 309.808 117.688 309.52 117.816C309.232 117.933 308.981 118.104 308.768 118.328C308.565 118.552 308.405 118.819 308.288 119.128C308.17 119.427 308.112 119.757 308.112 120.12V120.232H312.672V120.056C312.672 119.32 312.469 118.733 312.064 118.296C311.669 117.848 311.141 117.624 310.48 117.624ZM316.157 125V116.744H317.437V118.088H317.501C317.704 117.619 317.986 117.245 318.349 116.968C318.722 116.691 319.218 116.552 319.837 116.552C320.69 116.552 321.362 116.829 321.853 117.384C322.354 117.928 322.605 118.701 322.605 119.704V125H321.325V119.928C321.325 118.445 320.701 117.704 319.453 117.704C319.197 117.704 318.946 117.736 318.701 117.8C318.466 117.864 318.253 117.96 318.061 118.088C317.869 118.216 317.714 118.381 317.597 118.584C317.49 118.776 317.437 119.005 317.437 119.272V125H316.157ZM330.339 123.656H330.275C330.189 123.848 330.083 124.04 329.955 124.232C329.837 124.413 329.688 124.579 329.507 124.728C329.325 124.867 329.107 124.979 328.851 125.064C328.595 125.149 328.296 125.192 327.955 125.192C327.101 125.192 326.424 124.92 325.923 124.376C325.421 123.821 325.171 123.043 325.171 122.04V116.744H326.451V121.816C326.451 123.299 327.08 124.04 328.339 124.04C328.595 124.04 328.84 124.008 329.075 123.944C329.32 123.88 329.533 123.784 329.715 123.656C329.907 123.528 330.056 123.368 330.163 123.176C330.28 122.973 330.339 122.733 330.339 122.456V116.744H331.619V125H330.339V123.656ZM334.344 116.744H335.624V118.088H335.688C335.902 117.565 336.211 117.181 336.616 116.936C337.032 116.68 337.528 116.552 338.104 116.552C338.616 116.552 339.08 116.653 339.496 116.856C339.912 117.059 340.264 117.347 340.552 117.72C340.851 118.093 341.075 118.547 341.224 119.08C341.384 119.613 341.464 120.211 341.464 120.872C341.464 121.533 341.384 122.131 341.224 122.664C341.075 123.197 340.851 123.651 340.552 124.024C340.264 124.397 339.912 124.685 339.496 124.888C339.08 125.091 338.616 125.192 338.104 125.192C336.984 125.192 336.179 124.68 335.688 123.656H335.624V128.2H334.344V116.744ZM337.752 124.04C338.478 124.04 339.048 123.816 339.464 123.368C339.88 122.909 340.088 122.312 340.088 121.576V120.168C340.088 119.432 339.88 118.84 339.464 118.392C339.048 117.933 338.478 117.704 337.752 117.704C337.464 117.704 337.187 117.747 336.92 117.832C336.664 117.907 336.44 118.013 336.248 118.152C336.056 118.291 335.902 118.461 335.784 118.664C335.678 118.856 335.624 119.064 335.624 119.288V122.36C335.624 122.627 335.678 122.867 335.784 123.08C335.902 123.283 336.056 123.459 336.248 123.608C336.44 123.747 336.664 123.853 336.92 123.928C337.187 124.003 337.464 124.04 337.752 124.04ZM348.714 123.656H348.65C348.564 123.848 348.458 124.04 348.33 124.232C348.212 124.413 348.063 124.579 347.882 124.728C347.7 124.867 347.482 124.979 347.226 125.064C346.97 125.149 346.671 125.192 346.33 125.192C345.476 125.192 344.799 124.92 344.298 124.376C343.796 123.821 343.546 123.043 343.546 122.04V116.744H344.826V121.816C344.826 123.299 345.455 124.04 346.714 124.04C346.97 124.04 347.215 124.008 347.45 123.944C347.695 123.88 347.908 123.784 348.09 123.656C348.282 123.528 348.431 123.368 348.538 123.176C348.655 122.973 348.714 122.733 348.714 122.456V116.744H349.994V125H348.714V123.656ZM352.719 125V116.744H353.999V118.088H354.063C354.266 117.619 354.549 117.245 354.911 116.968C355.285 116.691 355.781 116.552 356.399 116.552C357.253 116.552 357.925 116.829 358.415 117.384C358.917 117.928 359.167 118.701 359.167 119.704V125H357.887V119.928C357.887 118.445 357.263 117.704 356.015 117.704C355.759 117.704 355.509 117.736 355.263 117.8C355.029 117.864 354.815 117.96 354.623 118.088C354.431 118.216 354.277 118.381 354.159 118.584C354.053 118.776 353.999 119.005 353.999 119.272V125H352.719ZM361.813 113.16H363.093V120.664H363.157L364.421 119.256L366.757 116.744H368.309L365.253 120.008L368.613 125H367.061L364.325 120.792L363.093 122.056V125H361.813V113.16ZM371.918 125C371.47 125 371.129 124.877 370.894 124.632C370.67 124.376 370.558 124.045 370.558 123.64V117.864H369.198V116.744H369.966C370.244 116.744 370.43 116.691 370.526 116.584C370.633 116.467 370.686 116.269 370.686 115.992V114.456H371.838V116.744H373.646V117.864H371.838V123.88H373.518V125H371.918ZM386.653 125H379.325V123.624L382.973 120.264C383.496 119.784 383.933 119.277 384.285 118.744C384.637 118.2 384.813 117.656 384.813 117.112V116.92C384.813 116.301 384.642 115.8 384.301 115.416C383.96 115.032 383.442 114.84 382.749 114.84C382.408 114.84 382.109 114.888 381.853 114.984C381.597 115.08 381.373 115.213 381.181 115.384C381 115.555 380.845 115.757 380.717 115.992C380.6 116.216 380.504 116.461 380.429 116.728L379.229 116.264C379.336 115.933 379.48 115.613 379.661 115.304C379.853 114.984 380.088 114.701 380.365 114.456C380.653 114.211 380.994 114.013 381.389 113.864C381.794 113.715 382.269 113.64 382.813 113.64C383.357 113.64 383.842 113.72 384.269 113.88C384.696 114.04 385.053 114.264 385.341 114.552C385.629 114.84 385.848 115.181 385.997 115.576C386.157 115.971 386.237 116.408 386.237 116.888C386.237 117.325 386.173 117.731 386.045 118.104C385.928 118.477 385.762 118.835 385.549 119.176C385.336 119.507 385.074 119.832 384.765 120.152C384.466 120.472 384.141 120.792 383.789 121.112L380.781 123.816H386.653V125Z" fill="#1A1A1A"/>
<rect width="183" height="1" transform="matrix(1 0 0 -1 226 100)" fill="#BFBFBF"/>
<path d="M244.488 85V73.832H251.304V75.016H245.832V78.76H250.984V79.944H245.832V83.816H251.304V85H244.488ZM253.688 73.16H254.968V80.664H255.032L256.296 79.256L258.632 76.744H260.184L257.128 80.008L260.488 85H258.936L256.2 80.792L254.968 82.056V85H253.688V73.16ZM264.449 85.192C263.681 85.192 263.036 85.048 262.513 84.76C262.001 84.4613 261.559 84.0667 261.185 83.576L262.097 82.84C262.417 83.2453 262.775 83.56 263.169 83.784C263.564 83.9973 264.023 84.104 264.545 84.104C265.089 84.104 265.511 83.9867 265.809 83.752C266.119 83.5173 266.273 83.1867 266.273 82.76C266.273 82.44 266.167 82.168 265.953 81.944C265.751 81.7093 265.377 81.5493 264.833 81.464L264.177 81.368C263.793 81.3147 263.441 81.2347 263.121 81.128C262.801 81.0107 262.519 80.8613 262.273 80.68C262.039 80.488 261.852 80.2533 261.713 79.976C261.585 79.6987 261.521 79.368 261.521 78.984C261.521 78.5787 261.596 78.2267 261.745 77.928C261.895 77.6187 262.097 77.3627 262.353 77.16C262.62 76.9573 262.935 76.808 263.297 76.712C263.66 76.6053 264.049 76.552 264.465 76.552C265.137 76.552 265.697 76.6693 266.145 76.904C266.604 77.1387 267.004 77.464 267.345 77.88L266.497 78.648C266.316 78.392 266.049 78.1627 265.697 77.96C265.345 77.7467 264.903 77.64 264.369 77.64C263.836 77.64 263.431 77.7573 263.153 77.992C262.887 78.216 262.753 78.5253 262.753 78.92C262.753 79.3253 262.887 79.6187 263.153 79.8C263.431 79.9813 263.825 80.1147 264.337 80.2L264.977 80.296C265.895 80.4347 266.545 80.7013 266.929 81.096C267.313 81.48 267.505 81.9867 267.505 82.616C267.505 83.416 267.233 84.0453 266.689 84.504C266.145 84.9627 265.399 85.192 264.449 85.192ZM271.481 85C271.033 85 270.692 84.8773 270.457 84.632C270.233 84.376 270.121 84.0453 270.121 83.64V77.864H268.761V76.744H269.529C269.806 76.744 269.993 76.6907 270.089 76.584C270.196 76.4667 270.249 76.2693 270.249 75.992V74.456H271.401V76.744H273.209V77.864H271.401V83.88H273.081V85H271.481ZM275.266 85V76.744H276.546V78.264H276.626C276.776 77.8693 277.042 77.5173 277.426 77.208C277.81 76.8987 278.338 76.744 279.01 76.744H279.506V78.024H278.754C278.061 78.024 277.517 78.1573 277.122 78.424C276.738 78.68 276.546 79.0053 276.546 79.4V85H275.266ZM287.079 85C286.599 85 286.252 84.872 286.039 84.616C285.836 84.36 285.708 84.04 285.655 83.656H285.575C285.393 84.168 285.095 84.552 284.679 84.808C284.263 85.064 283.767 85.192 283.191 85.192C282.316 85.192 281.633 84.968 281.143 84.52C280.663 84.072 280.423 83.464 280.423 82.696C280.423 81.9173 280.705 81.32 281.271 80.904C281.847 80.488 282.737 80.28 283.943 80.28H285.575V79.464C285.575 78.8773 285.415 78.4293 285.095 78.12C284.775 77.8107 284.284 77.656 283.623 77.656C283.121 77.656 282.7 77.768 282.359 77.992C282.028 78.216 281.751 78.5147 281.527 78.888L280.759 78.168C280.983 77.72 281.34 77.3413 281.831 77.032C282.321 76.712 282.94 76.552 283.687 76.552C284.689 76.552 285.468 76.7973 286.023 77.288C286.577 77.7787 286.855 78.4613 286.855 79.336V83.88H287.799V85H287.079ZM283.399 84.104C283.719 84.104 284.012 84.0667 284.279 83.992C284.545 83.9173 284.775 83.8107 284.967 83.672C285.159 83.5333 285.308 83.3733 285.415 83.192C285.521 83.0107 285.575 82.8133 285.575 82.6V81.24H283.879C283.143 81.24 282.604 81.3467 282.263 81.56C281.932 81.7733 281.767 82.0827 281.767 82.488V82.824C281.767 83.2293 281.911 83.544 282.199 83.768C282.497 83.992 282.897 84.104 283.399 84.104ZM293.407 85V76.744H294.687V78.088H294.751C294.847 77.8747 294.954 77.6773 295.071 77.496C295.199 77.304 295.348 77.1387 295.519 77C295.7 76.8613 295.908 76.7547 296.143 76.68C296.378 76.5947 296.655 76.552 296.975 76.552C297.519 76.552 298.02 76.6853 298.479 76.952C298.938 77.208 299.279 77.6347 299.503 78.232H299.535C299.684 77.784 299.962 77.3947 300.367 77.064C300.783 76.7227 301.343 76.552 302.047 76.552C302.89 76.552 303.546 76.8293 304.015 77.384C304.495 77.928 304.735 78.7013 304.735 79.704V85H303.455V79.928C303.455 79.192 303.311 78.6373 303.023 78.264C302.735 77.8907 302.276 77.704 301.647 77.704C301.391 77.704 301.146 77.736 300.911 77.8C300.687 77.864 300.484 77.96 300.303 78.088C300.122 78.216 299.978 78.3813 299.871 78.584C299.764 78.776 299.711 79.0053 299.711 79.272V85H298.431V79.928C298.431 79.192 298.287 78.6373 297.999 78.264C297.711 77.8907 297.263 77.704 296.655 77.704C296.399 77.704 296.154 77.736 295.919 77.8C295.684 77.864 295.476 77.96 295.295 78.088C295.114 78.216 294.964 78.3813 294.847 78.584C294.74 78.776 294.687 79.0053 294.687 79.272V85H293.407ZM310.48 85.192C309.914 85.192 309.402 85.0907 308.944 84.888C308.496 84.6853 308.106 84.3973 307.776 84.024C307.456 83.64 307.205 83.1867 307.024 82.664C306.853 82.1307 306.768 81.5333 306.768 80.872C306.768 80.2213 306.853 79.6293 307.024 79.096C307.205 78.5627 307.456 78.1093 307.776 77.736C308.106 77.352 308.496 77.0587 308.944 76.856C309.402 76.6533 309.914 76.552 310.48 76.552C311.034 76.552 311.53 76.6533 311.968 76.856C312.405 77.0587 312.778 77.3413 313.088 77.704C313.397 78.056 313.632 78.4773 313.792 78.968C313.962 79.4587 314.048 79.9973 314.048 80.584V81.192H308.112V81.576C308.112 81.928 308.165 82.2587 308.272 82.568C308.389 82.8667 308.549 83.128 308.752 83.352C308.965 83.576 309.221 83.752 309.52 83.88C309.829 84.008 310.176 84.072 310.56 84.072C311.082 84.072 311.536 83.9493 311.92 83.704C312.314 83.4587 312.618 83.1067 312.832 82.648L313.744 83.304C313.477 83.8693 313.061 84.328 312.496 84.68C311.93 85.0213 311.258 85.192 310.48 85.192ZM310.48 77.624C310.128 77.624 309.808 77.688 309.52 77.816C309.232 77.9333 308.981 78.104 308.768 78.328C308.565 78.552 308.405 78.8187 308.288 79.128C308.17 79.4267 308.112 79.7573 308.112 80.12V80.232H312.672V80.056C312.672 79.32 312.469 78.7333 312.064 78.296C311.669 77.848 311.141 77.624 310.48 77.624ZM316.157 85V76.744H317.437V78.088H317.501C317.704 77.6187 317.986 77.2453 318.349 76.968C318.722 76.6907 319.218 76.552 319.837 76.552C320.69 76.552 321.362 76.8293 321.853 77.384C322.354 77.928 322.605 78.7013 322.605 79.704V85H321.325V79.928C321.325 78.4453 320.701 77.704 319.453 77.704C319.197 77.704 318.946 77.736 318.701 77.8C318.466 77.864 318.253 77.96 318.061 78.088C317.869 78.216 317.714 78.3813 317.597 78.584C317.49 78.776 317.437 79.0053 317.437 79.272V85H316.157ZM330.339 83.656H330.275C330.189 83.848 330.083 84.04 329.955 84.232C329.837 84.4133 329.688 84.5787 329.507 84.728C329.325 84.8667 329.107 84.9787 328.851 85.064C328.595 85.1493 328.296 85.192 327.955 85.192C327.101 85.192 326.424 84.92 325.923 84.376C325.421 83.8213 325.171 83.0427 325.171 82.04V76.744H326.451V81.816C326.451 83.2987 327.08 84.04 328.339 84.04C328.595 84.04 328.84 84.008 329.075 83.944C329.32 83.88 329.533 83.784 329.715 83.656C329.907 83.528 330.056 83.368 330.163 83.176C330.28 82.9733 330.339 82.7333 330.339 82.456V76.744H331.619V85H330.339V83.656ZM334.344 76.744H335.624V78.088H335.688C335.902 77.5653 336.211 77.1813 336.616 76.936C337.032 76.68 337.528 76.552 338.104 76.552C338.616 76.552 339.08 76.6533 339.496 76.856C339.912 77.0587 340.264 77.3467 340.552 77.72C340.851 78.0933 341.075 78.5467 341.224 79.08C341.384 79.6133 341.464 80.2107 341.464 80.872C341.464 81.5333 341.384 82.1307 341.224 82.664C341.075 83.1973 340.851 83.6507 340.552 84.024C340.264 84.3973 339.912 84.6853 339.496 84.888C339.08 85.0907 338.616 85.192 338.104 85.192C336.984 85.192 336.179 84.68 335.688 83.656H335.624V88.2H334.344V76.744ZM337.752 84.04C338.478 84.04 339.048 83.816 339.464 83.368C339.88 82.9093 340.088 82.312 340.088 81.576V80.168C340.088 79.432 339.88 78.84 339.464 78.392C339.048 77.9333 338.478 77.704 337.752 77.704C337.464 77.704 337.187 77.7467 336.92 77.832C336.664 77.9067 336.44 78.0133 336.248 78.152C336.056 78.2907 335.902 78.4613 335.784 78.664C335.678 78.856 335.624 79.064 335.624 79.288V82.36C335.624 82.6267 335.678 82.8667 335.784 83.08C335.902 83.2827 336.056 83.4587 336.248 83.608C336.44 83.7467 336.664 83.8533 336.92 83.928C337.187 84.0027 337.464 84.04 337.752 84.04ZM348.714 83.656H348.65C348.564 83.848 348.458 84.04 348.33 84.232C348.212 84.4133 348.063 84.5787 347.882 84.728C347.7 84.8667 347.482 84.9787 347.226 85.064C346.97 85.1493 346.671 85.192 346.33 85.192C345.476 85.192 344.799 84.92 344.298 84.376C343.796 83.8213 343.546 83.0427 343.546 82.04V76.744H344.826V81.816C344.826 83.2987 345.455 84.04 346.714 84.04C346.97 84.04 347.215 84.008 347.45 83.944C347.695 83.88 347.908 83.784 348.09 83.656C348.282 83.528 348.431 83.368 348.538 83.176C348.655 82.9733 348.714 82.7333 348.714 82.456V76.744H349.994V85H348.714V83.656ZM352.719 85V76.744H353.999V78.088H354.063C354.266 77.6187 354.549 77.2453 354.911 76.968C355.285 76.6907 355.781 76.552 356.399 76.552C357.253 76.552 357.925 76.8293 358.415 77.384C358.917 77.928 359.167 78.7013 359.167 79.704V85H357.887V79.928C357.887 78.4453 357.263 77.704 356.015 77.704C355.759 77.704 355.509 77.736 355.263 77.8C355.029 77.864 354.815 77.96 354.623 78.088C354.431 78.216 354.277 78.3813 354.159 78.584C354.053 78.776 353.999 79.0053 353.999 79.272V85H352.719ZM361.813 73.16H363.093V80.664H363.157L364.421 79.256L366.757 76.744H368.309L365.253 80.008L368.613 85H367.061L364.325 80.792L363.093 82.056V85H361.813V73.16ZM371.918 85C371.47 85 371.129 84.8773 370.894 84.632C370.67 84.376 370.558 84.0453 370.558 83.64V77.864H369.198V76.744H369.966C370.244 76.744 370.43 76.6907 370.526 76.584C370.633 76.4667 370.686 76.2693 370.686 75.992V74.456H371.838V76.744H373.646V77.864H371.838V83.88H373.518V85H371.918ZM379.533 85V83.816H382.653V74.824H382.541L379.725 77.448L378.941 76.6L381.901 73.832H383.997V83.816H386.877V85H379.533Z" fill="#1A1A1A"/>
</g>
<defs>
<filter id="filter0_d_5010_49420" x="217" y="41" width="201" height="190" filterUnits="userSpaceOnUse" color-interpolation-filters="sRGB">
<feFlood flood-opacity="0" result="BackgroundImageFix"/>
<feColorMatrix in="SourceAlpha" type="matrix" values="0 0 0 0 0 0 0 0 0 0 0 0 0 0 0 0 0 0 127 0" result="hardAlpha"/>
<feOffset dy="4"/>
<feGaussianBlur stdDeviation="4"/>
<feColorMatrix type="matrix" values="0 0 0 0 0 0 0 0 0 0 0 0 0 0 0 0 0 0 0.302 0"/>
<feBlend mode="normal" in2="BackgroundImageFix" result="effect1_dropShadow_5010_49420"/>
<feBlend mode="normal" in="SourceGraphic" in2="effect1_dropShadow_5010_49420" result="shape"/>
</filter>
<clipPath id="clip0_5010_49420">
<rect width="418" height="237" fill="white"/>
</clipPath>
</defs>
</svg>
