<svg width="418" height="266" viewBox="0 0 418 266" fill="none" xmlns="http://www.w3.org/2000/svg">
<rect width="418" height="266" fill="white"/>
<path d="M17.312 34V22.832H19.424V32.128H23.824V34H17.312ZM28.6835 34.192C28.0862 34.192 27.5475 34.0907 27.0675 33.888C26.5982 33.6853 26.1928 33.392 25.8515 33.008C25.5208 32.624 25.2648 32.1653 25.0835 31.632C24.9022 31.088 24.8115 30.48 24.8115 29.808C24.8115 29.136 24.9022 28.5333 25.0835 28C25.2648 27.4667 25.5208 27.0133 25.8515 26.64C26.1928 26.256 26.5982 25.9627 27.0675 25.76C27.5475 25.5573 28.0862 25.456 28.6835 25.456C29.2808 25.456 29.8195 25.5573 30.2995 25.76C30.7795 25.9627 31.1848 26.256 31.5155 26.64C31.8568 27.0133 32.1182 27.4667 32.2995 28C32.4808 28.5333 32.5715 29.136 32.5715 29.808C32.5715 30.48 32.4808 31.088 32.2995 31.632C32.1182 32.1653 31.8568 32.624 31.5155 33.008C31.1848 33.392 30.7795 33.6853 30.2995 33.888C29.8195 34.0907 29.2808 34.192 28.6835 34.192ZM28.6835 32.544C29.2275 32.544 29.6542 32.3787 29.9635 32.048C30.2728 31.7173 30.4275 31.232 30.4275 30.592V29.04C30.4275 28.4107 30.2728 27.9307 29.9635 27.6C29.6542 27.2693 29.2275 27.104 28.6835 27.104C28.1502 27.104 27.7288 27.2693 27.4195 27.6C27.1102 27.9307 26.9555 28.4107 26.9555 29.04V30.592C26.9555 31.232 27.1102 31.7173 27.4195 32.048C27.7288 32.3787 28.1502 32.544 28.6835 32.544ZM34.3871 34V25.648H36.4351V27.376H36.5151C36.5685 27.152 36.6485 26.9387 36.7551 26.736C36.8725 26.5227 37.0218 26.336 37.2031 26.176C37.3845 26.016 37.5978 25.888 37.8431 25.792C38.0991 25.696 38.3925 25.648 38.7231 25.648H39.1711V27.584H38.5311C37.8378 27.584 37.3151 27.6853 36.9631 27.888C36.6111 28.0907 36.4351 28.4213 36.4351 28.88V34H34.3871ZM43.9663 34.192C43.3476 34.192 42.7929 34.0907 42.3023 33.888C41.8223 33.6747 41.4116 33.3813 41.0703 33.008C40.7396 32.624 40.4836 32.1653 40.3023 31.632C40.1209 31.088 40.0303 30.48 40.0303 29.808C40.0303 29.1467 40.1156 28.5493 40.2863 28.016C40.4676 27.4827 40.7236 27.0293 41.0543 26.656C41.3849 26.272 41.7903 25.9787 42.2703 25.776C42.7503 25.5627 43.2943 25.456 43.9023 25.456C44.5529 25.456 45.1183 25.568 45.5983 25.792C46.0783 26.016 46.4729 26.32 46.7823 26.704C47.0916 27.088 47.3209 27.536 47.4703 28.048C47.6303 28.5493 47.7103 29.088 47.7103 29.664V30.336H42.1583V30.544C42.1583 31.152 42.3289 31.6427 42.6703 32.016C43.0116 32.3787 43.5183 32.56 44.1903 32.56C44.7023 32.56 45.1183 32.4533 45.4383 32.24C45.7689 32.0267 46.0623 31.7547 46.3183 31.424L47.4223 32.656C47.0809 33.136 46.6116 33.5147 46.0143 33.792C45.4276 34.0587 44.7449 34.192 43.9663 34.192ZM43.9343 26.992C43.3903 26.992 42.9583 27.1733 42.6383 27.536C42.3183 27.8987 42.1583 28.368 42.1583 28.944V29.072H45.5823V28.928C45.5823 28.352 45.4383 27.888 45.1503 27.536C44.8729 27.1733 44.4676 26.992 43.9343 26.992ZM49.5121 34V25.648H51.5601V27.04H51.6401C51.8001 26.6027 52.0561 26.2293 52.4081 25.92C52.7601 25.6107 53.2508 25.456 53.8801 25.456C54.4561 25.456 54.9521 25.5947 55.3681 25.872C55.7841 26.1493 56.0935 26.5707 56.2961 27.136H56.3281C56.4775 26.6667 56.7708 26.272 57.2081 25.952C57.6561 25.6213 58.2161 25.456 58.8881 25.456C59.7095 25.456 60.3388 25.7387 60.7761 26.304C61.2241 26.8693 61.4481 27.6747 61.4481 28.72V34H59.4001V28.928C59.4001 27.7333 58.9521 27.136 58.0561 27.136C57.8535 27.136 57.6561 27.168 57.4641 27.232C57.2828 27.2853 57.1175 27.3707 56.9681 27.488C56.8295 27.5947 56.7175 27.7333 56.6321 27.904C56.5468 28.064 56.5041 28.256 56.5041 28.48V34H54.4561V28.928C54.4561 27.7333 54.0081 27.136 53.1121 27.136C52.9201 27.136 52.7281 27.168 52.5361 27.232C52.3548 27.2853 52.1895 27.3707 52.0401 27.488C51.9015 27.5947 51.7841 27.7333 51.6881 27.904C51.6028 28.064 51.5601 28.256 51.5601 28.48V34H49.5121ZM68.5205 24.432C68.0938 24.432 67.7845 24.336 67.5925 24.144C67.4112 23.952 67.3205 23.7067 67.3205 23.408V23.088C67.3205 22.7893 67.4112 22.544 67.5925 22.352C67.7845 22.16 68.0938 22.064 68.5205 22.064C68.9365 22.064 69.2405 22.16 69.4325 22.352C69.6245 22.544 69.7205 22.7893 69.7205 23.088V23.408C69.7205 23.7067 69.6245 23.952 69.4325 24.144C69.2405 24.336 68.9365 24.432 68.5205 24.432ZM67.4965 25.648H69.5445V34H67.4965V25.648ZM71.9184 25.648H73.9664V27.024H74.0304C74.1797 26.544 74.4624 26.1653 74.8784 25.888C75.2944 25.6 75.7797 25.456 76.3344 25.456C77.401 25.456 78.2117 25.8347 78.7664 26.592C79.3317 27.3387 79.6144 28.4107 79.6144 29.808C79.6144 31.216 79.3317 32.2987 78.7664 33.056C78.2117 33.8133 77.401 34.192 76.3344 34.192C75.7797 34.192 75.2944 34.048 74.8784 33.76C74.473 33.472 74.1904 33.088 74.0304 32.608H73.9664V37.2H71.9184V25.648ZM75.6784 32.496C76.2117 32.496 76.6437 32.32 76.9744 31.968C77.305 31.616 77.4704 31.1413 77.4704 30.544V29.104C77.4704 28.5067 77.305 28.032 76.9744 27.68C76.6437 27.3173 76.2117 27.136 75.6784 27.136C75.1877 27.136 74.777 27.2587 74.4464 27.504C74.1264 27.7493 73.9664 28.0747 73.9664 28.48V31.136C73.9664 31.5733 74.1264 31.9093 74.4464 32.144C74.777 32.3787 75.1877 32.496 75.6784 32.496ZM84.2481 34.192C83.4481 34.192 82.7761 34.0587 82.2321 33.792C81.6881 33.5147 81.2081 33.136 80.7921 32.656L82.0401 31.44C82.3495 31.792 82.6855 32.0693 83.0481 32.272C83.4215 32.4747 83.8481 32.576 84.3281 32.576C84.8188 32.576 85.1708 32.4907 85.3841 32.32C85.6081 32.1493 85.7201 31.9147 85.7201 31.616C85.7201 31.3707 85.6401 31.1787 85.4801 31.04C85.3308 30.8907 85.0695 30.7893 84.6961 30.736L83.8641 30.624C82.9575 30.5067 82.2641 30.2507 81.7841 29.856C81.3148 29.4507 81.0801 28.864 81.0801 28.096C81.0801 27.6907 81.1548 27.328 81.3041 27.008C81.4535 26.6773 81.6668 26.4 81.9441 26.176C82.2215 25.9413 82.5521 25.7653 82.9361 25.648C83.3308 25.52 83.7681 25.456 84.2481 25.456C84.6535 25.456 85.0108 25.488 85.3201 25.552C85.6401 25.6053 85.9281 25.6907 86.1841 25.808C86.4401 25.9147 86.6748 26.0533 86.8881 26.224C87.1015 26.384 87.3095 26.5653 87.5121 26.768L86.3121 27.968C86.0668 27.712 85.7735 27.4987 85.4321 27.328C85.0908 27.1573 84.7175 27.072 84.3121 27.072C83.8641 27.072 83.5388 27.152 83.3361 27.312C83.1441 27.472 83.0481 27.68 83.0481 27.936C83.0481 28.2133 83.1281 28.4267 83.2881 28.576C83.4588 28.7147 83.7415 28.816 84.1361 28.88L84.9841 28.992C86.7868 29.248 87.6881 30.0693 87.6881 31.456C87.6881 31.8613 87.6028 32.2347 87.4321 32.576C87.2721 32.9067 87.0428 33.1947 86.7441 33.44C86.4455 33.6747 86.0828 33.8613 85.6561 34C85.2401 34.128 84.7708 34.192 84.2481 34.192ZM94.4885 32.608H94.4085C94.3338 32.8213 94.2325 33.024 94.1045 33.216C93.9872 33.3973 93.8325 33.5627 93.6405 33.712C93.4592 33.8613 93.2352 33.9787 92.9685 34.064C92.7125 34.1493 92.4138 34.192 92.0725 34.192C91.2085 34.192 90.5472 33.9093 90.0885 33.344C89.6298 32.7787 89.4005 31.9733 89.4005 30.928V25.648H91.4485V30.72C91.4485 31.296 91.5605 31.7387 91.7845 32.048C92.0085 32.3467 92.3658 32.496 92.8565 32.496C93.0592 32.496 93.2565 32.4693 93.4485 32.416C93.6512 32.3627 93.8272 32.2827 93.9765 32.176C94.1258 32.0587 94.2485 31.92 94.3445 31.76C94.4405 31.5893 94.4885 31.392 94.4885 31.168V25.648H96.5365V34H94.4885V32.608ZM98.9028 34V25.648H100.951V27.04H101.031C101.191 26.6027 101.447 26.2293 101.799 25.92C102.151 25.6107 102.641 25.456 103.271 25.456C103.847 25.456 104.343 25.5947 104.759 25.872C105.175 26.1493 105.484 26.5707 105.687 27.136H105.719C105.868 26.6667 106.161 26.272 106.599 25.952C107.047 25.6213 107.607 25.456 108.279 25.456C109.1 25.456 109.729 25.7387 110.167 26.304C110.615 26.8693 110.839 27.6747 110.839 28.72V34H108.791V28.928C108.791 27.7333 108.343 27.136 107.447 27.136C107.244 27.136 107.047 27.168 106.855 27.232C106.673 27.2853 106.508 27.3707 106.359 27.488C106.22 27.5947 106.108 27.7333 106.023 27.904C105.937 28.064 105.895 28.256 105.895 28.48V34H103.847V28.928C103.847 27.7333 103.399 27.136 102.503 27.136C102.311 27.136 102.119 27.168 101.927 27.232C101.745 27.2853 101.58 27.3707 101.431 27.488C101.292 27.5947 101.175 27.7333 101.079 27.904C100.993 28.064 100.951 28.256 100.951 28.48V34H98.9028ZM122.071 32.608H121.991C121.842 33.088 121.559 33.472 121.143 33.76C120.727 34.048 120.242 34.192 119.687 34.192C118.631 34.192 117.82 33.8133 117.255 33.056C116.7 32.2987 116.423 31.216 116.423 29.808C116.423 28.4107 116.7 27.3387 117.255 26.592C117.82 25.8347 118.631 25.456 119.687 25.456C120.242 25.456 120.727 25.6 121.143 25.888C121.559 26.1653 121.842 26.544 121.991 27.024H122.071V22.16H124.119V34H122.071V32.608ZM120.343 32.496C120.834 32.496 121.244 32.3787 121.575 32.144C121.906 31.9093 122.071 31.5733 122.071 31.136V28.48C122.071 28.0747 121.906 27.7493 121.575 27.504C121.244 27.2587 120.834 27.136 120.343 27.136C119.81 27.136 119.378 27.3173 119.047 27.68C118.727 28.032 118.567 28.5067 118.567 29.104V30.544C118.567 31.1413 118.727 31.616 119.047 31.968C119.378 32.32 119.81 32.496 120.343 32.496ZM129.793 34.192C129.196 34.192 128.657 34.0907 128.177 33.888C127.708 33.6853 127.302 33.392 126.961 33.008C126.63 32.624 126.374 32.1653 126.193 31.632C126.012 31.088 125.921 30.48 125.921 29.808C125.921 29.136 126.012 28.5333 126.193 28C126.374 27.4667 126.63 27.0133 126.961 26.64C127.302 26.256 127.708 25.9627 128.177 25.76C128.657 25.5573 129.196 25.456 129.793 25.456C130.39 25.456 130.929 25.5573 131.409 25.76C131.889 25.9627 132.294 26.256 132.625 26.64C132.966 27.0133 133.228 27.4667 133.409 28C133.59 28.5333 133.681 29.136 133.681 29.808C133.681 30.48 133.59 31.088 133.409 31.632C133.228 32.1653 132.966 32.624 132.625 33.008C132.294 33.392 131.889 33.6853 131.409 33.888C130.929 34.0907 130.39 34.192 129.793 34.192ZM129.793 32.544C130.337 32.544 130.764 32.3787 131.073 32.048C131.382 31.7173 131.537 31.232 131.537 30.592V29.04C131.537 28.4107 131.382 27.9307 131.073 27.6C130.764 27.2693 130.337 27.104 129.793 27.104C129.26 27.104 128.838 27.2693 128.529 27.6C128.22 27.9307 128.065 28.4107 128.065 29.04V30.592C128.065 31.232 128.22 31.7173 128.529 32.048C128.838 32.3787 129.26 32.544 129.793 32.544ZM137.545 34C136.841 34 136.323 33.824 135.993 33.472C135.662 33.12 135.497 32.624 135.497 31.984V22.16H137.545V32.368H138.649V34H137.545ZM143.512 34.192C142.914 34.192 142.376 34.0907 141.896 33.888C141.426 33.6853 141.021 33.392 140.68 33.008C140.349 32.624 140.093 32.1653 139.912 31.632C139.73 31.088 139.64 30.48 139.64 29.808C139.64 29.136 139.73 28.5333 139.912 28C140.093 27.4667 140.349 27.0133 140.68 26.64C141.021 26.256 141.426 25.9627 141.896 25.76C142.376 25.5573 142.914 25.456 143.512 25.456C144.109 25.456 144.648 25.5573 145.128 25.76C145.608 25.9627 146.013 26.256 146.344 26.64C146.685 27.0133 146.946 27.4667 147.128 28C147.309 28.5333 147.4 29.136 147.4 29.808C147.4 30.48 147.309 31.088 147.128 31.632C146.946 32.1653 146.685 32.624 146.344 33.008C146.013 33.392 145.608 33.6853 145.128 33.888C144.648 34.0907 144.109 34.192 143.512 34.192ZM143.512 32.544C144.056 32.544 144.482 32.3787 144.792 32.048C145.101 31.7173 145.256 31.232 145.256 30.592V29.04C145.256 28.4107 145.101 27.9307 144.792 27.6C144.482 27.2693 144.056 27.104 143.512 27.104C142.978 27.104 142.557 27.2693 142.248 27.6C141.938 27.9307 141.784 28.4107 141.784 29.04V30.592C141.784 31.232 141.938 31.7173 142.248 32.048C142.557 32.3787 142.978 32.544 143.512 32.544ZM149.215 34V25.648H151.263V27.376H151.343C151.397 27.152 151.477 26.9387 151.583 26.736C151.701 26.5227 151.85 26.336 152.031 26.176C152.213 26.016 152.426 25.888 152.671 25.792C152.927 25.696 153.221 25.648 153.551 25.648H153.999V27.584H153.359C152.666 27.584 152.143 27.6853 151.791 27.888C151.439 28.0907 151.263 28.4213 151.263 28.88V34H149.215ZM162.014 34.192C161.214 34.192 160.542 34.0587 159.998 33.792C159.454 33.5147 158.974 33.136 158.558 32.656L159.806 31.44C160.115 31.792 160.451 32.0693 160.814 32.272C161.187 32.4747 161.614 32.576 162.094 32.576C162.584 32.576 162.936 32.4907 163.15 32.32C163.374 32.1493 163.486 31.9147 163.486 31.616C163.486 31.3707 163.406 31.1787 163.246 31.04C163.096 30.8907 162.835 30.7893 162.462 30.736L161.63 30.624C160.723 30.5067 160.03 30.2507 159.55 29.856C159.08 29.4507 158.846 28.864 158.846 28.096C158.846 27.6907 158.92 27.328 159.07 27.008C159.219 26.6773 159.432 26.4 159.71 26.176C159.987 25.9413 160.318 25.7653 160.702 25.648C161.096 25.52 161.534 25.456 162.014 25.456C162.419 25.456 162.776 25.488 163.086 25.552C163.406 25.6053 163.694 25.6907 163.95 25.808C164.206 25.9147 164.44 26.0533 164.654 26.224C164.867 26.384 165.075 26.5653 165.278 26.768L164.078 27.968C163.832 27.712 163.539 27.4987 163.198 27.328C162.856 27.1573 162.483 27.072 162.078 27.072C161.63 27.072 161.304 27.152 161.102 27.312C160.91 27.472 160.814 27.68 160.814 27.936C160.814 28.2133 160.894 28.4267 161.054 28.576C161.224 28.7147 161.507 28.816 161.902 28.88L162.75 28.992C164.552 29.248 165.454 30.0693 165.454 31.456C165.454 31.8613 165.368 32.2347 165.198 32.576C165.038 32.9067 164.808 33.1947 164.51 33.44C164.211 33.6747 163.848 33.8613 163.422 34C163.006 34.128 162.536 34.192 162.014 34.192ZM168.286 24.432C167.859 24.432 167.55 24.336 167.358 24.144C167.177 23.952 167.086 23.7067 167.086 23.408V23.088C167.086 22.7893 167.177 22.544 167.358 22.352C167.55 22.16 167.859 22.064 168.286 22.064C168.702 22.064 169.006 22.16 169.198 22.352C169.39 22.544 169.486 22.7893 169.486 23.088V23.408C169.486 23.7067 169.39 23.952 169.198 24.144C169.006 24.336 168.702 24.432 168.286 24.432ZM167.262 25.648H169.31V34H167.262V25.648ZM174.292 34C173.588 34 173.049 33.8187 172.676 33.456C172.313 33.0827 172.132 32.5547 172.132 31.872V27.28H170.9V25.648H171.54C171.849 25.648 172.057 25.5787 172.164 25.44C172.281 25.2907 172.34 25.072 172.34 24.784V23.36H174.18V25.648H175.892V27.28H174.18V32.368H175.764V34H174.292ZM187.594 34C187.146 34 186.788 33.872 186.522 33.616C186.266 33.3493 186.106 32.9973 186.042 32.56H185.946C185.807 33.104 185.524 33.5147 185.098 33.792C184.671 34.0587 184.143 34.192 183.514 34.192C182.66 34.192 182.004 33.968 181.546 33.52C181.087 33.072 180.858 32.4747 180.858 31.728C180.858 30.864 181.167 30.224 181.786 29.808C182.404 29.3813 183.284 29.168 184.426 29.168H185.85V28.56C185.85 28.0907 185.727 27.728 185.482 27.472C185.236 27.216 184.842 27.088 184.298 27.088C183.818 27.088 183.428 27.1947 183.13 27.408C182.842 27.6107 182.596 27.856 182.394 28.144L181.178 27.056C181.487 26.576 181.898 26.192 182.41 25.904C182.922 25.6053 183.599 25.456 184.442 25.456C185.572 25.456 186.431 25.712 187.018 26.224C187.604 26.736 187.898 27.472 187.898 28.432V32.368H188.73V34H187.594ZM184.202 32.704C184.66 32.704 185.05 32.6027 185.37 32.4C185.69 32.1973 185.85 31.8987 185.85 31.504V30.4H184.538C183.471 30.4 182.938 30.7413 182.938 31.424V31.696C182.938 32.0373 183.044 32.2933 183.258 32.464C183.482 32.624 183.796 32.704 184.202 32.704ZM190.387 34V25.648H192.435V27.04H192.515C192.675 26.6027 192.931 26.2293 193.283 25.92C193.635 25.6107 194.126 25.456 194.755 25.456C195.331 25.456 195.827 25.5947 196.243 25.872C196.659 26.1493 196.968 26.5707 197.171 27.136H197.203C197.352 26.6667 197.646 26.272 198.083 25.952C198.531 25.6213 199.091 25.456 199.763 25.456C200.584 25.456 201.214 25.7387 201.651 26.304C202.099 26.8693 202.323 27.6747 202.323 28.72V34H200.275V28.928C200.275 27.7333 199.827 27.136 198.931 27.136C198.728 27.136 198.531 27.168 198.339 27.232C198.158 27.2853 197.992 27.3707 197.843 27.488C197.704 27.5947 197.592 27.7333 197.507 27.904C197.422 28.064 197.379 28.256 197.379 28.48V34H195.331V28.928C195.331 27.7333 194.883 27.136 193.987 27.136C193.795 27.136 193.603 27.168 193.411 27.232C193.23 27.2853 193.064 27.3707 192.915 27.488C192.776 27.5947 192.659 27.7333 192.563 27.904C192.478 28.064 192.435 28.256 192.435 28.48V34H190.387ZM207.966 34.192C207.348 34.192 206.793 34.0907 206.302 33.888C205.822 33.6747 205.412 33.3813 205.07 33.008C204.74 32.624 204.484 32.1653 204.302 31.632C204.121 31.088 204.03 30.48 204.03 29.808C204.03 29.1467 204.116 28.5493 204.286 28.016C204.468 27.4827 204.724 27.0293 205.054 26.656C205.385 26.272 205.79 25.9787 206.27 25.776C206.75 25.5627 207.294 25.456 207.902 25.456C208.553 25.456 209.118 25.568 209.598 25.792C210.078 26.016 210.473 26.32 210.782 26.704C211.092 27.088 211.321 27.536 211.47 28.048C211.63 28.5493 211.71 29.088 211.71 29.664V30.336H206.158V30.544C206.158 31.152 206.329 31.6427 206.67 32.016C207.012 32.3787 207.518 32.56 208.19 32.56C208.702 32.56 209.118 32.4533 209.438 32.24C209.769 32.0267 210.062 31.7547 210.318 31.424L211.422 32.656C211.081 33.136 210.612 33.5147 210.014 33.792C209.428 34.0587 208.745 34.192 207.966 34.192ZM207.934 26.992C207.39 26.992 206.958 27.1733 206.638 27.536C206.318 27.8987 206.158 28.368 206.158 28.944V29.072H209.582V28.928C209.582 28.352 209.438 27.888 209.15 27.536C208.873 27.1733 208.468 26.992 207.934 26.992ZM216.12 34C215.416 34 214.877 33.8187 214.504 33.456C214.141 33.0827 213.96 32.5547 213.96 31.872V27.28H212.728V25.648H213.368C213.677 25.648 213.885 25.5787 213.992 25.44C214.109 25.2907 214.168 25.072 214.168 24.784V23.36H216.008V25.648H217.72V27.28H216.008V32.368H217.592V34H216.12Z" fill="black"/>
<circle cx="33" cy="65" r="16" fill="white" stroke="#1A1A1A" stroke-width="2"/>
<path d="M62.032 69L58.32 57.832H59.76L61.6 63.464L62.832 67.656H62.912L64.176 63.464L66.032 57.832H67.424L63.664 69H62.032ZM74.6256 69C74.1456 69 73.799 68.872 73.5856 68.616C73.383 68.36 73.255 68.04 73.2016 67.656H73.1216C72.9403 68.168 72.6416 68.552 72.2256 68.808C71.8096 69.064 71.3136 69.192 70.7376 69.192C69.863 69.192 69.1803 68.968 68.6896 68.52C68.2096 68.072 67.9696 67.464 67.9696 66.696C67.9696 65.9173 68.2523 65.32 68.8176 64.904C69.3936 64.488 70.2843 64.28 71.4896 64.28H73.1216V63.464C73.1216 62.8773 72.9616 62.4293 72.6416 62.12C72.3216 61.8107 71.831 61.656 71.1696 61.656C70.6683 61.656 70.247 61.768 69.9056 61.992C69.575 62.216 69.2976 62.5147 69.0736 62.888L68.3056 62.168C68.5296 61.72 68.887 61.3413 69.3776 61.032C69.8683 60.712 70.487 60.552 71.2336 60.552C72.2363 60.552 73.015 60.7973 73.5696 61.288C74.1243 61.7787 74.4016 62.4613 74.4016 63.336V67.88H75.3456V69H74.6256ZM70.9456 68.104C71.2656 68.104 71.559 68.0667 71.8256 67.992C72.0923 67.9173 72.3216 67.8107 72.5136 67.672C72.7056 67.5333 72.855 67.3733 72.9616 67.192C73.0683 67.0107 73.1216 66.8133 73.1216 66.6V65.24H71.4256C70.6896 65.24 70.151 65.3467 69.8096 65.56C69.479 65.7733 69.3136 66.0827 69.3136 66.488V66.824C69.3136 67.2293 69.4576 67.544 69.7456 67.768C70.0443 67.992 70.4443 68.104 70.9456 68.104ZM78.5325 69C78.0845 69 77.7432 68.8773 77.5085 68.632C77.2845 68.376 77.1725 68.056 77.1725 67.672V57.16H78.4525V67.88H79.6685V69H78.5325ZM88.4919 69.912C88.4919 70.7653 88.1559 71.3893 87.4839 71.784C86.8225 72.1893 85.8252 72.392 84.4919 72.392C83.2012 72.392 82.2732 72.216 81.7079 71.864C81.1425 71.512 80.8599 71.0107 80.8599 70.36C80.8599 69.912 80.9772 69.56 81.2119 69.304C81.4465 69.0587 81.7665 68.8773 82.1719 68.76V68.584C81.6812 68.3493 81.4359 67.9653 81.4359 67.432C81.4359 67.016 81.5692 66.7013 81.8359 66.488C82.1025 66.264 82.4439 66.0987 82.8599 65.992V65.928C82.3692 65.6933 81.9852 65.3573 81.7079 64.92C81.4412 64.4827 81.3079 63.976 81.3079 63.4C81.3079 62.984 81.3825 62.6 81.5319 62.248C81.6812 61.896 81.8892 61.5973 82.1559 61.352C82.4332 61.096 82.7585 60.8987 83.1319 60.76C83.5159 60.6213 83.9425 60.552 84.4119 60.552C84.9985 60.552 85.5212 60.6587 85.9799 60.872V60.728C85.9799 60.408 86.0545 60.1467 86.2039 59.944C86.3532 59.7307 86.5985 59.624 86.9399 59.624H88.1719V60.744H86.6039V61.272C86.9025 61.528 87.1319 61.8373 87.2919 62.2C87.4625 62.552 87.5479 62.952 87.5479 63.4C87.5479 63.816 87.4732 64.2 87.3239 64.552C87.1745 64.904 86.9612 65.208 86.6839 65.464C86.4172 65.7093 86.0919 65.9013 85.7079 66.04C85.3239 66.1787 84.8972 66.248 84.4279 66.248C84.1612 66.248 83.8945 66.2213 83.6279 66.168C83.3505 66.2427 83.0999 66.3547 82.8759 66.504C82.6519 66.6427 82.5399 66.84 82.5399 67.096C82.5399 67.3413 82.6572 67.5067 82.8919 67.592C83.1265 67.6773 83.4305 67.72 83.8039 67.72H85.5639C86.5879 67.72 87.3292 67.9173 87.7879 68.312C88.2572 68.696 88.4919 69.2293 88.4919 69.912ZM87.2919 70.008C87.2919 69.6773 87.1639 69.4107 86.9079 69.208C86.6625 69.016 86.2199 68.92 85.5799 68.92H82.8279C82.3159 69.1547 82.0599 69.528 82.0599 70.04C82.0599 70.4027 82.1932 70.712 82.4599 70.968C82.7372 71.224 83.2012 71.352 83.8519 71.352H85.0359C85.7505 71.352 86.3052 71.24 86.6999 71.016C87.0945 70.792 87.2919 70.456 87.2919 70.008ZM84.4279 65.224C84.9719 65.224 85.4039 65.096 85.7239 64.84C86.0439 64.5733 86.2039 64.168 86.2039 63.624V63.176C86.2039 62.632 86.0439 62.232 85.7239 61.976C85.4039 61.7093 84.9719 61.576 84.4279 61.576C83.8839 61.576 83.4519 61.7093 83.1319 61.976C82.8119 62.232 82.6519 62.632 82.6519 63.176V63.624C82.6519 64.168 82.8119 64.5733 83.1319 64.84C83.4519 65.096 83.8839 65.224 84.4279 65.224ZM89.985 69V60.744H91.265V62.088H91.329C91.425 61.8747 91.5317 61.6773 91.649 61.496C91.777 61.304 91.9263 61.1387 92.097 61C92.2783 60.8613 92.4863 60.7547 92.721 60.68C92.9557 60.5947 93.233 60.552 93.553 60.552C94.097 60.552 94.5983 60.6853 95.057 60.952C95.5157 61.208 95.857 61.6347 96.081 62.232H96.113C96.2623 61.784 96.5397 61.3947 96.945 61.064C97.361 60.7227 97.921 60.552 98.625 60.552C99.4677 60.552 100.124 60.8293 100.593 61.384C101.073 61.928 101.313 62.7013 101.313 63.704V69H100.033V63.928C100.033 63.192 99.889 62.6373 99.601 62.264C99.313 61.8907 98.8543 61.704 98.225 61.704C97.969 61.704 97.7237 61.736 97.489 61.8C97.265 61.864 97.0623 61.96 96.881 62.088C96.6997 62.216 96.5557 62.3813 96.449 62.584C96.3423 62.776 96.289 63.0053 96.289 63.272V69H95.009V63.928C95.009 63.192 94.865 62.6373 94.577 62.264C94.289 61.8907 93.841 61.704 93.233 61.704C92.977 61.704 92.7317 61.736 92.497 61.8C92.2623 61.864 92.0543 61.96 91.873 62.088C91.6917 62.216 91.5423 62.3813 91.425 62.584C91.3183 62.776 91.265 63.0053 91.265 63.272V69H89.985ZM109.042 67.656H108.978C108.892 67.848 108.786 68.04 108.658 68.232C108.54 68.4133 108.391 68.5787 108.21 68.728C108.028 68.8667 107.81 68.9787 107.554 69.064C107.298 69.1493 106.999 69.192 106.658 69.192C105.804 69.192 105.127 68.92 104.626 68.376C104.124 67.8213 103.874 67.0427 103.874 66.04V60.744H105.154V65.816C105.154 67.2987 105.783 68.04 107.042 68.04C107.298 68.04 107.543 68.008 107.778 67.944C108.023 67.88 108.236 67.784 108.418 67.656C108.61 67.528 108.759 67.368 108.866 67.176C108.983 66.9733 109.042 66.7333 109.042 66.456V60.744H110.322V69H109.042V67.656ZM114.408 69C113.96 69 113.618 68.8773 113.384 68.632C113.16 68.376 113.048 68.056 113.048 67.672V57.16H114.328V67.88H115.544V69H114.408ZM118.047 58.808C117.77 58.808 117.567 58.744 117.439 58.616C117.322 58.4773 117.263 58.3013 117.263 58.088V57.88C117.263 57.6667 117.322 57.496 117.439 57.368C117.567 57.2293 117.77 57.16 118.047 57.16C118.324 57.16 118.522 57.2293 118.639 57.368C118.767 57.496 118.831 57.6667 118.831 57.88V58.088C118.831 58.3013 118.767 58.4773 118.639 58.616C118.522 58.744 118.324 58.808 118.047 58.808ZM117.407 60.744H118.687V69H117.407V60.744ZM128.367 69.912C128.367 70.7653 128.031 71.3893 127.359 71.784C126.698 72.1893 125.7 72.392 124.367 72.392C123.076 72.392 122.148 72.216 121.583 71.864C121.018 71.512 120.735 71.0107 120.735 70.36C120.735 69.912 120.852 69.56 121.087 69.304C121.322 69.0587 121.642 68.8773 122.047 68.76V68.584C121.556 68.3493 121.311 67.9653 121.311 67.432C121.311 67.016 121.444 66.7013 121.711 66.488C121.978 66.264 122.319 66.0987 122.735 65.992V65.928C122.244 65.6933 121.86 65.3573 121.583 64.92C121.316 64.4827 121.183 63.976 121.183 63.4C121.183 62.984 121.258 62.6 121.407 62.248C121.556 61.896 121.764 61.5973 122.031 61.352C122.308 61.096 122.634 60.8987 123.007 60.76C123.391 60.6213 123.818 60.552 124.287 60.552C124.874 60.552 125.396 60.6587 125.855 60.872V60.728C125.855 60.408 125.93 60.1467 126.079 59.944C126.228 59.7307 126.474 59.624 126.815 59.624H128.047V60.744H126.479V61.272C126.778 61.528 127.007 61.8373 127.167 62.2C127.338 62.552 127.423 62.952 127.423 63.4C127.423 63.816 127.348 64.2 127.199 64.552C127.05 64.904 126.836 65.208 126.559 65.464C126.292 65.7093 125.967 65.9013 125.583 66.04C125.199 66.1787 124.772 66.248 124.303 66.248C124.036 66.248 123.77 66.2213 123.503 66.168C123.226 66.2427 122.975 66.3547 122.751 66.504C122.527 66.6427 122.415 66.84 122.415 67.096C122.415 67.3413 122.532 67.5067 122.767 67.592C123.002 67.6773 123.306 67.72 123.679 67.72H125.439C126.463 67.72 127.204 67.9173 127.663 68.312C128.132 68.696 128.367 69.2293 128.367 69.912ZM127.167 70.008C127.167 69.6773 127.039 69.4107 126.783 69.208C126.538 69.016 126.095 68.92 125.455 68.92H122.703C122.191 69.1547 121.935 69.528 121.935 70.04C121.935 70.4027 122.068 70.712 122.335 70.968C122.612 71.224 123.076 71.352 123.727 71.352H124.911C125.626 71.352 126.18 71.24 126.575 71.016C126.97 70.792 127.167 70.456 127.167 70.008ZM124.303 65.224C124.847 65.224 125.279 65.096 125.599 64.84C125.919 64.5733 126.079 64.168 126.079 63.624V63.176C126.079 62.632 125.919 62.232 125.599 61.976C125.279 61.7093 124.847 61.576 124.303 61.576C123.759 61.576 123.327 61.7093 123.007 61.976C122.687 62.232 122.527 62.632 122.527 63.176V63.624C122.527 64.168 122.687 64.5733 123.007 64.84C123.327 65.096 123.759 65.224 124.303 65.224ZM129.86 57.16H131.14V62.088H131.204C131.407 61.6187 131.689 61.2453 132.052 60.968C132.425 60.6907 132.921 60.552 133.54 60.552C134.393 60.552 135.065 60.8293 135.556 61.384C136.057 61.928 136.308 62.7013 136.308 63.704V69H135.028V63.928C135.028 62.4453 134.404 61.704 133.156 61.704C132.9 61.704 132.649 61.736 132.404 61.8C132.169 61.864 131.956 61.96 131.764 62.088C131.572 62.216 131.417 62.3813 131.3 62.584C131.193 62.776 131.14 63.0053 131.14 63.272V69H129.86V57.16ZM142.058 69.192C141.492 69.192 140.98 69.0907 140.522 68.888C140.074 68.6853 139.684 68.3973 139.354 68.024C139.034 67.64 138.783 67.1867 138.602 66.664C138.431 66.1307 138.346 65.5333 138.346 64.872C138.346 64.2213 138.431 63.6293 138.602 63.096C138.783 62.5627 139.034 62.1093 139.354 61.736C139.684 61.352 140.074 61.0587 140.522 60.856C140.98 60.6533 141.492 60.552 142.058 60.552C142.612 60.552 143.108 60.6533 143.546 60.856C143.983 61.0587 144.356 61.3413 144.666 61.704C144.975 62.056 145.21 62.4773 145.37 62.968C145.54 63.4587 145.626 63.9973 145.626 64.584V65.192H139.69V65.576C139.69 65.928 139.743 66.2587 139.85 66.568C139.967 66.8667 140.127 67.128 140.33 67.352C140.543 67.576 140.799 67.752 141.098 67.88C141.407 68.008 141.754 68.072 142.138 68.072C142.66 68.072 143.114 67.9493 143.498 67.704C143.892 67.4587 144.196 67.1067 144.41 66.648L145.322 67.304C145.055 67.8693 144.639 68.328 144.074 68.68C143.508 69.0213 142.836 69.192 142.058 69.192ZM142.058 61.624C141.706 61.624 141.386 61.688 141.098 61.816C140.81 61.9333 140.559 62.104 140.346 62.328C140.143 62.552 139.983 62.8187 139.866 63.128C139.748 63.4267 139.69 63.7573 139.69 64.12V64.232H144.25V64.056C144.25 63.32 144.047 62.7333 143.642 62.296C143.247 61.848 142.719 61.624 142.058 61.624ZM153.015 67.656H152.951C152.45 68.68 151.644 69.192 150.535 69.192C150.023 69.192 149.559 69.0907 149.143 68.888C148.727 68.6853 148.37 68.3973 148.071 68.024C147.783 67.6507 147.559 67.1973 147.399 66.664C147.25 66.1307 147.175 65.5333 147.175 64.872C147.175 64.2107 147.25 63.6133 147.399 63.08C147.559 62.5467 147.783 62.0933 148.071 61.72C148.37 61.3467 148.727 61.0587 149.143 60.856C149.559 60.6533 150.023 60.552 150.535 60.552C151.111 60.552 151.602 60.68 152.007 60.936C152.423 61.1813 152.738 61.5653 152.951 62.088H153.015V57.16H154.295V69H153.015V67.656ZM150.887 68.04C151.175 68.04 151.447 68.0027 151.703 67.928C151.97 67.8533 152.199 67.7467 152.391 67.608C152.583 67.4587 152.732 67.2827 152.839 67.08C152.956 66.8667 153.015 66.6267 153.015 66.36V63.288C153.015 63.064 152.956 62.856 152.839 62.664C152.732 62.4613 152.583 62.2907 152.391 62.152C152.199 62.0133 151.97 61.9067 151.703 61.832C151.447 61.7467 151.175 61.704 150.887 61.704C150.162 61.704 149.591 61.9333 149.175 62.392C148.759 62.84 148.551 63.432 148.551 64.168V65.576C148.551 66.312 148.759 66.9093 149.175 67.368C149.591 67.816 150.162 68.04 150.887 68.04ZM160.846 69V67.816H163.966V58.824H163.854L161.038 61.448L160.254 60.6L163.214 57.832H165.31V67.816H168.19V69H160.846Z" fill="#1A1A1A"/>
<circle cx="33" cy="149" r="16" fill="white" stroke="#1A1A1A" stroke-width="2"/>
<path d="M62.032 153L58.32 141.832H59.76L61.6 147.464L62.832 151.656H62.912L64.176 147.464L66.032 141.832H67.424L63.664 153H62.032ZM74.6256 153C74.1456 153 73.799 152.872 73.5856 152.616C73.383 152.36 73.255 152.04 73.2016 151.656H73.1216C72.9403 152.168 72.6416 152.552 72.2256 152.808C71.8096 153.064 71.3136 153.192 70.7376 153.192C69.863 153.192 69.1803 152.968 68.6896 152.52C68.2096 152.072 67.9696 151.464 67.9696 150.696C67.9696 149.917 68.2523 149.32 68.8176 148.904C69.3936 148.488 70.2843 148.28 71.4896 148.28H73.1216V147.464C73.1216 146.877 72.9616 146.429 72.6416 146.12C72.3216 145.811 71.831 145.656 71.1696 145.656C70.6683 145.656 70.247 145.768 69.9056 145.992C69.575 146.216 69.2976 146.515 69.0736 146.888L68.3056 146.168C68.5296 145.72 68.887 145.341 69.3776 145.032C69.8683 144.712 70.487 144.552 71.2336 144.552C72.2363 144.552 73.015 144.797 73.5696 145.288C74.1243 145.779 74.4016 146.461 74.4016 147.336V151.88H75.3456V153H74.6256ZM70.9456 152.104C71.2656 152.104 71.559 152.067 71.8256 151.992C72.0923 151.917 72.3216 151.811 72.5136 151.672C72.7056 151.533 72.855 151.373 72.9616 151.192C73.0683 151.011 73.1216 150.813 73.1216 150.6V149.24H71.4256C70.6896 149.24 70.151 149.347 69.8096 149.56C69.479 149.773 69.3136 150.083 69.3136 150.488V150.824C69.3136 151.229 69.4576 151.544 69.7456 151.768C70.0443 151.992 70.4443 152.104 70.9456 152.104ZM78.5325 153C78.0845 153 77.7432 152.877 77.5085 152.632C77.2845 152.376 77.1725 152.056 77.1725 151.672V141.16H78.4525V151.88H79.6685V153H78.5325ZM88.4919 153.912C88.4919 154.765 88.1559 155.389 87.4839 155.784C86.8225 156.189 85.8252 156.392 84.4919 156.392C83.2012 156.392 82.2732 156.216 81.7079 155.864C81.1425 155.512 80.8599 155.011 80.8599 154.36C80.8599 153.912 80.9772 153.56 81.2119 153.304C81.4465 153.059 81.7665 152.877 82.1719 152.76V152.584C81.6812 152.349 81.4359 151.965 81.4359 151.432C81.4359 151.016 81.5692 150.701 81.8359 150.488C82.1025 150.264 82.4439 150.099 82.8599 149.992V149.928C82.3692 149.693 81.9852 149.357 81.7079 148.92C81.4412 148.483 81.3079 147.976 81.3079 147.4C81.3079 146.984 81.3825 146.6 81.5319 146.248C81.6812 145.896 81.8892 145.597 82.1559 145.352C82.4332 145.096 82.7585 144.899 83.1319 144.76C83.5159 144.621 83.9425 144.552 84.4119 144.552C84.9985 144.552 85.5212 144.659 85.9799 144.872V144.728C85.9799 144.408 86.0545 144.147 86.2039 143.944C86.3532 143.731 86.5985 143.624 86.9399 143.624H88.1719V144.744H86.6039V145.272C86.9025 145.528 87.1319 145.837 87.2919 146.2C87.4625 146.552 87.5479 146.952 87.5479 147.4C87.5479 147.816 87.4732 148.2 87.3239 148.552C87.1745 148.904 86.9612 149.208 86.6839 149.464C86.4172 149.709 86.0919 149.901 85.7079 150.04C85.3239 150.179 84.8972 150.248 84.4279 150.248C84.1612 150.248 83.8945 150.221 83.6279 150.168C83.3505 150.243 83.0999 150.355 82.8759 150.504C82.6519 150.643 82.5399 150.84 82.5399 151.096C82.5399 151.341 82.6572 151.507 82.8919 151.592C83.1265 151.677 83.4305 151.72 83.8039 151.72H85.5639C86.5879 151.72 87.3292 151.917 87.7879 152.312C88.2572 152.696 88.4919 153.229 88.4919 153.912ZM87.2919 154.008C87.2919 153.677 87.1639 153.411 86.9079 153.208C86.6625 153.016 86.2199 152.92 85.5799 152.92H82.8279C82.3159 153.155 82.0599 153.528 82.0599 154.04C82.0599 154.403 82.1932 154.712 82.4599 154.968C82.7372 155.224 83.2012 155.352 83.8519 155.352H85.0359C85.7505 155.352 86.3052 155.24 86.6999 155.016C87.0945 154.792 87.2919 154.456 87.2919 154.008ZM84.4279 149.224C84.9719 149.224 85.4039 149.096 85.7239 148.84C86.0439 148.573 86.2039 148.168 86.2039 147.624V147.176C86.2039 146.632 86.0439 146.232 85.7239 145.976C85.4039 145.709 84.9719 145.576 84.4279 145.576C83.8839 145.576 83.4519 145.709 83.1319 145.976C82.8119 146.232 82.6519 146.632 82.6519 147.176V147.624C82.6519 148.168 82.8119 148.573 83.1319 148.84C83.4519 149.096 83.8839 149.224 84.4279 149.224ZM89.985 153V144.744H91.265V146.088H91.329C91.425 145.875 91.5317 145.677 91.649 145.496C91.777 145.304 91.9263 145.139 92.097 145C92.2783 144.861 92.4863 144.755 92.721 144.68C92.9557 144.595 93.233 144.552 93.553 144.552C94.097 144.552 94.5983 144.685 95.057 144.952C95.5157 145.208 95.857 145.635 96.081 146.232H96.113C96.2623 145.784 96.5397 145.395 96.945 145.064C97.361 144.723 97.921 144.552 98.625 144.552C99.4677 144.552 100.124 144.829 100.593 145.384C101.073 145.928 101.313 146.701 101.313 147.704V153H100.033V147.928C100.033 147.192 99.889 146.637 99.601 146.264C99.313 145.891 98.8543 145.704 98.225 145.704C97.969 145.704 97.7237 145.736 97.489 145.8C97.265 145.864 97.0623 145.96 96.881 146.088C96.6997 146.216 96.5557 146.381 96.449 146.584C96.3423 146.776 96.289 147.005 96.289 147.272V153H95.009V147.928C95.009 147.192 94.865 146.637 94.577 146.264C94.289 145.891 93.841 145.704 93.233 145.704C92.977 145.704 92.7317 145.736 92.497 145.8C92.2623 145.864 92.0543 145.96 91.873 146.088C91.6917 146.216 91.5423 146.381 91.425 146.584C91.3183 146.776 91.265 147.005 91.265 147.272V153H89.985ZM109.042 151.656H108.978C108.892 151.848 108.786 152.04 108.658 152.232C108.54 152.413 108.391 152.579 108.21 152.728C108.028 152.867 107.81 152.979 107.554 153.064C107.298 153.149 106.999 153.192 106.658 153.192C105.804 153.192 105.127 152.92 104.626 152.376C104.124 151.821 103.874 151.043 103.874 150.04V144.744H105.154V149.816C105.154 151.299 105.783 152.04 107.042 152.04C107.298 152.04 107.543 152.008 107.778 151.944C108.023 151.88 108.236 151.784 108.418 151.656C108.61 151.528 108.759 151.368 108.866 151.176C108.983 150.973 109.042 150.733 109.042 150.456V144.744H110.322V153H109.042V151.656ZM114.408 153C113.96 153 113.618 152.877 113.384 152.632C113.16 152.376 113.048 152.056 113.048 151.672V141.16H114.328V151.88H115.544V153H114.408ZM118.047 142.808C117.77 142.808 117.567 142.744 117.439 142.616C117.322 142.477 117.263 142.301 117.263 142.088V141.88C117.263 141.667 117.322 141.496 117.439 141.368C117.567 141.229 117.77 141.16 118.047 141.16C118.324 141.16 118.522 141.229 118.639 141.368C118.767 141.496 118.831 141.667 118.831 141.88V142.088C118.831 142.301 118.767 142.477 118.639 142.616C118.522 142.744 118.324 142.808 118.047 142.808ZM117.407 144.744H118.687V153H117.407V144.744ZM128.367 153.912C128.367 154.765 128.031 155.389 127.359 155.784C126.698 156.189 125.7 156.392 124.367 156.392C123.076 156.392 122.148 156.216 121.583 155.864C121.018 155.512 120.735 155.011 120.735 154.36C120.735 153.912 120.852 153.56 121.087 153.304C121.322 153.059 121.642 152.877 122.047 152.76V152.584C121.556 152.349 121.311 151.965 121.311 151.432C121.311 151.016 121.444 150.701 121.711 150.488C121.978 150.264 122.319 150.099 122.735 149.992V149.928C122.244 149.693 121.86 149.357 121.583 148.92C121.316 148.483 121.183 147.976 121.183 147.4C121.183 146.984 121.258 146.6 121.407 146.248C121.556 145.896 121.764 145.597 122.031 145.352C122.308 145.096 122.634 144.899 123.007 144.76C123.391 144.621 123.818 144.552 124.287 144.552C124.874 144.552 125.396 144.659 125.855 144.872V144.728C125.855 144.408 125.93 144.147 126.079 143.944C126.228 143.731 126.474 143.624 126.815 143.624H128.047V144.744H126.479V145.272C126.778 145.528 127.007 145.837 127.167 146.2C127.338 146.552 127.423 146.952 127.423 147.4C127.423 147.816 127.348 148.2 127.199 148.552C127.05 148.904 126.836 149.208 126.559 149.464C126.292 149.709 125.967 149.901 125.583 150.04C125.199 150.179 124.772 150.248 124.303 150.248C124.036 150.248 123.77 150.221 123.503 150.168C123.226 150.243 122.975 150.355 122.751 150.504C122.527 150.643 122.415 150.84 122.415 151.096C122.415 151.341 122.532 151.507 122.767 151.592C123.002 151.677 123.306 151.72 123.679 151.72H125.439C126.463 151.72 127.204 151.917 127.663 152.312C128.132 152.696 128.367 153.229 128.367 153.912ZM127.167 154.008C127.167 153.677 127.039 153.411 126.783 153.208C126.538 153.016 126.095 152.92 125.455 152.92H122.703C122.191 153.155 121.935 153.528 121.935 154.04C121.935 154.403 122.068 154.712 122.335 154.968C122.612 155.224 123.076 155.352 123.727 155.352H124.911C125.626 155.352 126.18 155.24 126.575 155.016C126.97 154.792 127.167 154.456 127.167 154.008ZM124.303 149.224C124.847 149.224 125.279 149.096 125.599 148.84C125.919 148.573 126.079 148.168 126.079 147.624V147.176C126.079 146.632 125.919 146.232 125.599 145.976C125.279 145.709 124.847 145.576 124.303 145.576C123.759 145.576 123.327 145.709 123.007 145.976C122.687 146.232 122.527 146.632 122.527 147.176V147.624C122.527 148.168 122.687 148.573 123.007 148.84C123.327 149.096 123.759 149.224 124.303 149.224ZM129.86 141.16H131.14V146.088H131.204C131.407 145.619 131.689 145.245 132.052 144.968C132.425 144.691 132.921 144.552 133.54 144.552C134.393 144.552 135.065 144.829 135.556 145.384C136.057 145.928 136.308 146.701 136.308 147.704V153H135.028V147.928C135.028 146.445 134.404 145.704 133.156 145.704C132.9 145.704 132.649 145.736 132.404 145.8C132.169 145.864 131.956 145.96 131.764 146.088C131.572 146.216 131.417 146.381 131.3 146.584C131.193 146.776 131.14 147.005 131.14 147.272V153H129.86V141.16ZM142.058 153.192C141.492 153.192 140.98 153.091 140.522 152.888C140.074 152.685 139.684 152.397 139.354 152.024C139.034 151.64 138.783 151.187 138.602 150.664C138.431 150.131 138.346 149.533 138.346 148.872C138.346 148.221 138.431 147.629 138.602 147.096C138.783 146.563 139.034 146.109 139.354 145.736C139.684 145.352 140.074 145.059 140.522 144.856C140.98 144.653 141.492 144.552 142.058 144.552C142.612 144.552 143.108 144.653 143.546 144.856C143.983 145.059 144.356 145.341 144.666 145.704C144.975 146.056 145.21 146.477 145.37 146.968C145.54 147.459 145.626 147.997 145.626 148.584V149.192H139.69V149.576C139.69 149.928 139.743 150.259 139.85 150.568C139.967 150.867 140.127 151.128 140.33 151.352C140.543 151.576 140.799 151.752 141.098 151.88C141.407 152.008 141.754 152.072 142.138 152.072C142.66 152.072 143.114 151.949 143.498 151.704C143.892 151.459 144.196 151.107 144.41 150.648L145.322 151.304C145.055 151.869 144.639 152.328 144.074 152.68C143.508 153.021 142.836 153.192 142.058 153.192ZM142.058 145.624C141.706 145.624 141.386 145.688 141.098 145.816C140.81 145.933 140.559 146.104 140.346 146.328C140.143 146.552 139.983 146.819 139.866 147.128C139.748 147.427 139.69 147.757 139.69 148.12V148.232H144.25V148.056C144.25 147.32 144.047 146.733 143.642 146.296C143.247 145.848 142.719 145.624 142.058 145.624ZM153.015 151.656H152.951C152.45 152.68 151.644 153.192 150.535 153.192C150.023 153.192 149.559 153.091 149.143 152.888C148.727 152.685 148.37 152.397 148.071 152.024C147.783 151.651 147.559 151.197 147.399 150.664C147.25 150.131 147.175 149.533 147.175 148.872C147.175 148.211 147.25 147.613 147.399 147.08C147.559 146.547 147.783 146.093 148.071 145.72C148.37 145.347 148.727 145.059 149.143 144.856C149.559 144.653 150.023 144.552 150.535 144.552C151.111 144.552 151.602 144.68 152.007 144.936C152.423 145.181 152.738 145.565 152.951 146.088H153.015V141.16H154.295V153H153.015V151.656ZM150.887 152.04C151.175 152.04 151.447 152.003 151.703 151.928C151.97 151.853 152.199 151.747 152.391 151.608C152.583 151.459 152.732 151.283 152.839 151.08C152.956 150.867 153.015 150.627 153.015 150.36V147.288C153.015 147.064 152.956 146.856 152.839 146.664C152.732 146.461 152.583 146.291 152.391 146.152C152.199 146.013 151.97 145.907 151.703 145.832C151.447 145.747 151.175 145.704 150.887 145.704C150.162 145.704 149.591 145.933 149.175 146.392C148.759 146.84 148.551 147.432 148.551 148.168V149.576C148.551 150.312 148.759 150.909 149.175 151.368C149.591 151.816 150.162 152.04 150.887 152.04ZM163.614 146.568C164.371 146.568 164.936 146.397 165.31 146.056C165.694 145.704 165.886 145.256 165.886 144.712V144.6C165.886 144.013 165.699 143.576 165.326 143.288C164.963 142.989 164.483 142.84 163.886 142.84C163.31 142.84 162.84 142.968 162.478 143.224C162.115 143.469 161.816 143.805 161.582 144.232L160.59 143.464C160.728 143.24 160.894 143.021 161.086 142.808C161.288 142.584 161.523 142.387 161.789 142.216C162.056 142.045 162.366 141.907 162.718 141.8C163.07 141.693 163.47 141.64 163.918 141.64C164.387 141.64 164.83 141.704 165.246 141.832C165.662 141.949 166.019 142.131 166.318 142.376C166.627 142.611 166.867 142.904 167.038 143.256C167.219 143.608 167.31 144.008 167.31 144.456C167.31 144.819 167.251 145.144 167.134 145.432C167.027 145.72 166.878 145.971 166.686 146.184C166.494 146.397 166.264 146.579 165.998 146.728C165.742 146.877 165.464 146.989 165.166 147.064V147.128C165.464 147.192 165.752 147.299 166.03 147.448C166.318 147.587 166.568 147.773 166.782 148.008C167.006 148.232 167.182 148.509 167.31 148.84C167.448 149.16 167.517 149.528 167.517 149.944C167.517 150.424 167.427 150.867 167.246 151.272C167.064 151.667 166.808 152.008 166.478 152.296C166.147 152.573 165.747 152.792 165.278 152.952C164.808 153.112 164.291 153.192 163.726 153.192C163.246 153.192 162.819 153.139 162.446 153.032C162.072 152.925 161.742 152.781 161.454 152.6C161.166 152.419 160.91 152.216 160.686 151.992C160.472 151.768 160.28 151.533 160.11 151.288L161.118 150.52C161.256 150.744 161.406 150.947 161.566 151.128C161.736 151.309 161.923 151.464 162.126 151.592C162.328 151.72 162.558 151.821 162.814 151.896C163.07 151.96 163.368 151.992 163.71 151.992C164.499 151.992 165.096 151.816 165.502 151.464C165.907 151.101 166.11 150.589 166.11 149.928V149.8C166.11 149.139 165.907 148.632 165.502 148.28C165.096 147.917 164.499 147.736 163.71 147.736H162.398V146.568H163.614Z" fill="#1A1A1A"/>
<circle cx="33" cy="191" r="16" fill="white" stroke="#1A1A1A" stroke-width="2"/>
<path d="M62.032 195L58.32 183.832H59.76L61.6 189.464L62.832 193.656H62.912L64.176 189.464L66.032 183.832H67.424L63.664 195H62.032ZM74.6256 195C74.1456 195 73.799 194.872 73.5856 194.616C73.383 194.36 73.255 194.04 73.2016 193.656H73.1216C72.9403 194.168 72.6416 194.552 72.2256 194.808C71.8096 195.064 71.3136 195.192 70.7376 195.192C69.863 195.192 69.1803 194.968 68.6896 194.52C68.2096 194.072 67.9696 193.464 67.9696 192.696C67.9696 191.917 68.2523 191.32 68.8176 190.904C69.3936 190.488 70.2843 190.28 71.4896 190.28H73.1216V189.464C73.1216 188.877 72.9616 188.429 72.6416 188.12C72.3216 187.811 71.831 187.656 71.1696 187.656C70.6683 187.656 70.247 187.768 69.9056 187.992C69.575 188.216 69.2976 188.515 69.0736 188.888L68.3056 188.168C68.5296 187.72 68.887 187.341 69.3776 187.032C69.8683 186.712 70.487 186.552 71.2336 186.552C72.2363 186.552 73.015 186.797 73.5696 187.288C74.1243 187.779 74.4016 188.461 74.4016 189.336V193.88H75.3456V195H74.6256ZM70.9456 194.104C71.2656 194.104 71.559 194.067 71.8256 193.992C72.0923 193.917 72.3216 193.811 72.5136 193.672C72.7056 193.533 72.855 193.373 72.9616 193.192C73.0683 193.011 73.1216 192.813 73.1216 192.6V191.24H71.4256C70.6896 191.24 70.151 191.347 69.8096 191.56C69.479 191.773 69.3136 192.083 69.3136 192.488V192.824C69.3136 193.229 69.4576 193.544 69.7456 193.768C70.0443 193.992 70.4443 194.104 70.9456 194.104ZM78.5325 195C78.0845 195 77.7432 194.877 77.5085 194.632C77.2845 194.376 77.1725 194.056 77.1725 193.672V183.16H78.4525V193.88H79.6685V195H78.5325ZM88.4919 195.912C88.4919 196.765 88.1559 197.389 87.4839 197.784C86.8225 198.189 85.8252 198.392 84.4919 198.392C83.2012 198.392 82.2732 198.216 81.7079 197.864C81.1425 197.512 80.8599 197.011 80.8599 196.36C80.8599 195.912 80.9772 195.56 81.2119 195.304C81.4465 195.059 81.7665 194.877 82.1719 194.76V194.584C81.6812 194.349 81.4359 193.965 81.4359 193.432C81.4359 193.016 81.5692 192.701 81.8359 192.488C82.1025 192.264 82.4439 192.099 82.8599 191.992V191.928C82.3692 191.693 81.9852 191.357 81.7079 190.92C81.4412 190.483 81.3079 189.976 81.3079 189.4C81.3079 188.984 81.3825 188.6 81.5319 188.248C81.6812 187.896 81.8892 187.597 82.1559 187.352C82.4332 187.096 82.7585 186.899 83.1319 186.76C83.5159 186.621 83.9425 186.552 84.4119 186.552C84.9985 186.552 85.5212 186.659 85.9799 186.872V186.728C85.9799 186.408 86.0545 186.147 86.2039 185.944C86.3532 185.731 86.5985 185.624 86.9399 185.624H88.1719V186.744H86.6039V187.272C86.9025 187.528 87.1319 187.837 87.2919 188.2C87.4625 188.552 87.5479 188.952 87.5479 189.4C87.5479 189.816 87.4732 190.2 87.3239 190.552C87.1745 190.904 86.9612 191.208 86.6839 191.464C86.4172 191.709 86.0919 191.901 85.7079 192.04C85.3239 192.179 84.8972 192.248 84.4279 192.248C84.1612 192.248 83.8945 192.221 83.6279 192.168C83.3505 192.243 83.0999 192.355 82.8759 192.504C82.6519 192.643 82.5399 192.84 82.5399 193.096C82.5399 193.341 82.6572 193.507 82.8919 193.592C83.1265 193.677 83.4305 193.72 83.8039 193.72H85.5639C86.5879 193.72 87.3292 193.917 87.7879 194.312C88.2572 194.696 88.4919 195.229 88.4919 195.912ZM87.2919 196.008C87.2919 195.677 87.1639 195.411 86.9079 195.208C86.6625 195.016 86.2199 194.92 85.5799 194.92H82.8279C82.3159 195.155 82.0599 195.528 82.0599 196.04C82.0599 196.403 82.1932 196.712 82.4599 196.968C82.7372 197.224 83.2012 197.352 83.8519 197.352H85.0359C85.7505 197.352 86.3052 197.24 86.6999 197.016C87.0945 196.792 87.2919 196.456 87.2919 196.008ZM84.4279 191.224C84.9719 191.224 85.4039 191.096 85.7239 190.84C86.0439 190.573 86.2039 190.168 86.2039 189.624V189.176C86.2039 188.632 86.0439 188.232 85.7239 187.976C85.4039 187.709 84.9719 187.576 84.4279 187.576C83.8839 187.576 83.4519 187.709 83.1319 187.976C82.8119 188.232 82.6519 188.632 82.6519 189.176V189.624C82.6519 190.168 82.8119 190.573 83.1319 190.84C83.4519 191.096 83.8839 191.224 84.4279 191.224ZM89.985 195V186.744H91.265V188.088H91.329C91.425 187.875 91.5317 187.677 91.649 187.496C91.777 187.304 91.9263 187.139 92.097 187C92.2783 186.861 92.4863 186.755 92.721 186.68C92.9557 186.595 93.233 186.552 93.553 186.552C94.097 186.552 94.5983 186.685 95.057 186.952C95.5157 187.208 95.857 187.635 96.081 188.232H96.113C96.2623 187.784 96.5397 187.395 96.945 187.064C97.361 186.723 97.921 186.552 98.625 186.552C99.4677 186.552 100.124 186.829 100.593 187.384C101.073 187.928 101.313 188.701 101.313 189.704V195H100.033V189.928C100.033 189.192 99.889 188.637 99.601 188.264C99.313 187.891 98.8543 187.704 98.225 187.704C97.969 187.704 97.7237 187.736 97.489 187.8C97.265 187.864 97.0623 187.96 96.881 188.088C96.6997 188.216 96.5557 188.381 96.449 188.584C96.3423 188.776 96.289 189.005 96.289 189.272V195H95.009V189.928C95.009 189.192 94.865 188.637 94.577 188.264C94.289 187.891 93.841 187.704 93.233 187.704C92.977 187.704 92.7317 187.736 92.497 187.8C92.2623 187.864 92.0543 187.96 91.873 188.088C91.6917 188.216 91.5423 188.381 91.425 188.584C91.3183 188.776 91.265 189.005 91.265 189.272V195H89.985ZM109.042 193.656H108.978C108.892 193.848 108.786 194.04 108.658 194.232C108.54 194.413 108.391 194.579 108.21 194.728C108.028 194.867 107.81 194.979 107.554 195.064C107.298 195.149 106.999 195.192 106.658 195.192C105.804 195.192 105.127 194.92 104.626 194.376C104.124 193.821 103.874 193.043 103.874 192.04V186.744H105.154V191.816C105.154 193.299 105.783 194.04 107.042 194.04C107.298 194.04 107.543 194.008 107.778 193.944C108.023 193.88 108.236 193.784 108.418 193.656C108.61 193.528 108.759 193.368 108.866 193.176C108.983 192.973 109.042 192.733 109.042 192.456V186.744H110.322V195H109.042V193.656ZM114.408 195C113.96 195 113.618 194.877 113.384 194.632C113.16 194.376 113.048 194.056 113.048 193.672V183.16H114.328V193.88H115.544V195H114.408ZM118.047 184.808C117.77 184.808 117.567 184.744 117.439 184.616C117.322 184.477 117.263 184.301 117.263 184.088V183.88C117.263 183.667 117.322 183.496 117.439 183.368C117.567 183.229 117.77 183.16 118.047 183.16C118.324 183.16 118.522 183.229 118.639 183.368C118.767 183.496 118.831 183.667 118.831 183.88V184.088C118.831 184.301 118.767 184.477 118.639 184.616C118.522 184.744 118.324 184.808 118.047 184.808ZM117.407 186.744H118.687V195H117.407V186.744ZM128.367 195.912C128.367 196.765 128.031 197.389 127.359 197.784C126.698 198.189 125.7 198.392 124.367 198.392C123.076 198.392 122.148 198.216 121.583 197.864C121.018 197.512 120.735 197.011 120.735 196.36C120.735 195.912 120.852 195.56 121.087 195.304C121.322 195.059 121.642 194.877 122.047 194.76V194.584C121.556 194.349 121.311 193.965 121.311 193.432C121.311 193.016 121.444 192.701 121.711 192.488C121.978 192.264 122.319 192.099 122.735 191.992V191.928C122.244 191.693 121.86 191.357 121.583 190.92C121.316 190.483 121.183 189.976 121.183 189.4C121.183 188.984 121.258 188.6 121.407 188.248C121.556 187.896 121.764 187.597 122.031 187.352C122.308 187.096 122.634 186.899 123.007 186.76C123.391 186.621 123.818 186.552 124.287 186.552C124.874 186.552 125.396 186.659 125.855 186.872V186.728C125.855 186.408 125.93 186.147 126.079 185.944C126.228 185.731 126.474 185.624 126.815 185.624H128.047V186.744H126.479V187.272C126.778 187.528 127.007 187.837 127.167 188.2C127.338 188.552 127.423 188.952 127.423 189.4C127.423 189.816 127.348 190.2 127.199 190.552C127.05 190.904 126.836 191.208 126.559 191.464C126.292 191.709 125.967 191.901 125.583 192.04C125.199 192.179 124.772 192.248 124.303 192.248C124.036 192.248 123.77 192.221 123.503 192.168C123.226 192.243 122.975 192.355 122.751 192.504C122.527 192.643 122.415 192.84 122.415 193.096C122.415 193.341 122.532 193.507 122.767 193.592C123.002 193.677 123.306 193.72 123.679 193.72H125.439C126.463 193.72 127.204 193.917 127.663 194.312C128.132 194.696 128.367 195.229 128.367 195.912ZM127.167 196.008C127.167 195.677 127.039 195.411 126.783 195.208C126.538 195.016 126.095 194.92 125.455 194.92H122.703C122.191 195.155 121.935 195.528 121.935 196.04C121.935 196.403 122.068 196.712 122.335 196.968C122.612 197.224 123.076 197.352 123.727 197.352H124.911C125.626 197.352 126.18 197.24 126.575 197.016C126.97 196.792 127.167 196.456 127.167 196.008ZM124.303 191.224C124.847 191.224 125.279 191.096 125.599 190.84C125.919 190.573 126.079 190.168 126.079 189.624V189.176C126.079 188.632 125.919 188.232 125.599 187.976C125.279 187.709 124.847 187.576 124.303 187.576C123.759 187.576 123.327 187.709 123.007 187.976C122.687 188.232 122.527 188.632 122.527 189.176V189.624C122.527 190.168 122.687 190.573 123.007 190.84C123.327 191.096 123.759 191.224 124.303 191.224ZM129.86 183.16H131.14V188.088H131.204C131.407 187.619 131.689 187.245 132.052 186.968C132.425 186.691 132.921 186.552 133.54 186.552C134.393 186.552 135.065 186.829 135.556 187.384C136.057 187.928 136.308 188.701 136.308 189.704V195H135.028V189.928C135.028 188.445 134.404 187.704 133.156 187.704C132.9 187.704 132.649 187.736 132.404 187.8C132.169 187.864 131.956 187.96 131.764 188.088C131.572 188.216 131.417 188.381 131.3 188.584C131.193 188.776 131.14 189.005 131.14 189.272V195H129.86V183.16ZM142.058 195.192C141.492 195.192 140.98 195.091 140.522 194.888C140.074 194.685 139.684 194.397 139.354 194.024C139.034 193.64 138.783 193.187 138.602 192.664C138.431 192.131 138.346 191.533 138.346 190.872C138.346 190.221 138.431 189.629 138.602 189.096C138.783 188.563 139.034 188.109 139.354 187.736C139.684 187.352 140.074 187.059 140.522 186.856C140.98 186.653 141.492 186.552 142.058 186.552C142.612 186.552 143.108 186.653 143.546 186.856C143.983 187.059 144.356 187.341 144.666 187.704C144.975 188.056 145.21 188.477 145.37 188.968C145.54 189.459 145.626 189.997 145.626 190.584V191.192H139.69V191.576C139.69 191.928 139.743 192.259 139.85 192.568C139.967 192.867 140.127 193.128 140.33 193.352C140.543 193.576 140.799 193.752 141.098 193.88C141.407 194.008 141.754 194.072 142.138 194.072C142.66 194.072 143.114 193.949 143.498 193.704C143.892 193.459 144.196 193.107 144.41 192.648L145.322 193.304C145.055 193.869 144.639 194.328 144.074 194.68C143.508 195.021 142.836 195.192 142.058 195.192ZM142.058 187.624C141.706 187.624 141.386 187.688 141.098 187.816C140.81 187.933 140.559 188.104 140.346 188.328C140.143 188.552 139.983 188.819 139.866 189.128C139.748 189.427 139.69 189.757 139.69 190.12V190.232H144.25V190.056C144.25 189.32 144.047 188.733 143.642 188.296C143.247 187.848 142.719 187.624 142.058 187.624ZM153.015 193.656H152.951C152.45 194.68 151.644 195.192 150.535 195.192C150.023 195.192 149.559 195.091 149.143 194.888C148.727 194.685 148.37 194.397 148.071 194.024C147.783 193.651 147.559 193.197 147.399 192.664C147.25 192.131 147.175 191.533 147.175 190.872C147.175 190.211 147.25 189.613 147.399 189.08C147.559 188.547 147.783 188.093 148.071 187.72C148.37 187.347 148.727 187.059 149.143 186.856C149.559 186.653 150.023 186.552 150.535 186.552C151.111 186.552 151.602 186.68 152.007 186.936C152.423 187.181 152.738 187.565 152.951 188.088H153.015V183.16H154.295V195H153.015V193.656ZM150.887 194.04C151.175 194.04 151.447 194.003 151.703 193.928C151.97 193.853 152.199 193.747 152.391 193.608C152.583 193.459 152.732 193.283 152.839 193.08C152.956 192.867 153.015 192.627 153.015 192.36V189.288C153.015 189.064 152.956 188.856 152.839 188.664C152.732 188.461 152.583 188.291 152.391 188.152C152.199 188.013 151.97 187.907 151.703 187.832C151.447 187.747 151.175 187.704 150.887 187.704C150.162 187.704 149.591 187.933 149.175 188.392C148.759 188.84 148.551 189.432 148.551 190.168V191.576C148.551 192.312 148.759 192.909 149.175 193.368C149.591 193.816 150.162 194.04 150.887 194.04ZM165.438 195V192.808H160.046V191.624L164.718 183.832H166.718V191.688H168.334V192.808H166.718V195H165.438ZM161.31 191.688H165.438V184.872H165.358L161.31 191.688Z" fill="#1A1A1A"/>
<circle cx="33" cy="233" r="16" fill="white" stroke="#1A1A1A" stroke-width="2"/>
<path d="M62.032 237L58.32 225.832H59.76L61.6 231.464L62.832 235.656H62.912L64.176 231.464L66.032 225.832H67.424L63.664 237H62.032ZM74.6256 237C74.1456 237 73.799 236.872 73.5856 236.616C73.383 236.36 73.255 236.04 73.2016 235.656H73.1216C72.9403 236.168 72.6416 236.552 72.2256 236.808C71.8096 237.064 71.3136 237.192 70.7376 237.192C69.863 237.192 69.1803 236.968 68.6896 236.52C68.2096 236.072 67.9696 235.464 67.9696 234.696C67.9696 233.917 68.2523 233.32 68.8176 232.904C69.3936 232.488 70.2843 232.28 71.4896 232.28H73.1216V231.464C73.1216 230.877 72.9616 230.429 72.6416 230.12C72.3216 229.811 71.831 229.656 71.1696 229.656C70.6683 229.656 70.247 229.768 69.9056 229.992C69.575 230.216 69.2976 230.515 69.0736 230.888L68.3056 230.168C68.5296 229.72 68.887 229.341 69.3776 229.032C69.8683 228.712 70.487 228.552 71.2336 228.552C72.2363 228.552 73.015 228.797 73.5696 229.288C74.1243 229.779 74.4016 230.461 74.4016 231.336V235.88H75.3456V237H74.6256ZM70.9456 236.104C71.2656 236.104 71.559 236.067 71.8256 235.992C72.0923 235.917 72.3216 235.811 72.5136 235.672C72.7056 235.533 72.855 235.373 72.9616 235.192C73.0683 235.011 73.1216 234.813 73.1216 234.6V233.24H71.4256C70.6896 233.24 70.151 233.347 69.8096 233.56C69.479 233.773 69.3136 234.083 69.3136 234.488V234.824C69.3136 235.229 69.4576 235.544 69.7456 235.768C70.0443 235.992 70.4443 236.104 70.9456 236.104ZM78.5325 237C78.0845 237 77.7432 236.877 77.5085 236.632C77.2845 236.376 77.1725 236.056 77.1725 235.672V225.16H78.4525V235.88H79.6685V237H78.5325ZM88.4919 237.912C88.4919 238.765 88.1559 239.389 87.4839 239.784C86.8225 240.189 85.8252 240.392 84.4919 240.392C83.2012 240.392 82.2732 240.216 81.7079 239.864C81.1425 239.512 80.8599 239.011 80.8599 238.36C80.8599 237.912 80.9772 237.56 81.2119 237.304C81.4465 237.059 81.7665 236.877 82.1719 236.76V236.584C81.6812 236.349 81.4359 235.965 81.4359 235.432C81.4359 235.016 81.5692 234.701 81.8359 234.488C82.1025 234.264 82.4439 234.099 82.8599 233.992V233.928C82.3692 233.693 81.9852 233.357 81.7079 232.92C81.4412 232.483 81.3079 231.976 81.3079 231.4C81.3079 230.984 81.3825 230.6 81.5319 230.248C81.6812 229.896 81.8892 229.597 82.1559 229.352C82.4332 229.096 82.7585 228.899 83.1319 228.76C83.5159 228.621 83.9425 228.552 84.4119 228.552C84.9985 228.552 85.5212 228.659 85.9799 228.872V228.728C85.9799 228.408 86.0545 228.147 86.2039 227.944C86.3532 227.731 86.5985 227.624 86.9399 227.624H88.1719V228.744H86.6039V229.272C86.9025 229.528 87.1319 229.837 87.2919 230.2C87.4625 230.552 87.5479 230.952 87.5479 231.4C87.5479 231.816 87.4732 232.2 87.3239 232.552C87.1745 232.904 86.9612 233.208 86.6839 233.464C86.4172 233.709 86.0919 233.901 85.7079 234.04C85.3239 234.179 84.8972 234.248 84.4279 234.248C84.1612 234.248 83.8945 234.221 83.6279 234.168C83.3505 234.243 83.0999 234.355 82.8759 234.504C82.6519 234.643 82.5399 234.84 82.5399 235.096C82.5399 235.341 82.6572 235.507 82.8919 235.592C83.1265 235.677 83.4305 235.72 83.8039 235.72H85.5639C86.5879 235.72 87.3292 235.917 87.7879 236.312C88.2572 236.696 88.4919 237.229 88.4919 237.912ZM87.2919 238.008C87.2919 237.677 87.1639 237.411 86.9079 237.208C86.6625 237.016 86.2199 236.92 85.5799 236.92H82.8279C82.3159 237.155 82.0599 237.528 82.0599 238.04C82.0599 238.403 82.1932 238.712 82.4599 238.968C82.7372 239.224 83.2012 239.352 83.8519 239.352H85.0359C85.7505 239.352 86.3052 239.24 86.6999 239.016C87.0945 238.792 87.2919 238.456 87.2919 238.008ZM84.4279 233.224C84.9719 233.224 85.4039 233.096 85.7239 232.84C86.0439 232.573 86.2039 232.168 86.2039 231.624V231.176C86.2039 230.632 86.0439 230.232 85.7239 229.976C85.4039 229.709 84.9719 229.576 84.4279 229.576C83.8839 229.576 83.4519 229.709 83.1319 229.976C82.8119 230.232 82.6519 230.632 82.6519 231.176V231.624C82.6519 232.168 82.8119 232.573 83.1319 232.84C83.4519 233.096 83.8839 233.224 84.4279 233.224ZM89.985 237V228.744H91.265V230.088H91.329C91.425 229.875 91.5317 229.677 91.649 229.496C91.777 229.304 91.9263 229.139 92.097 229C92.2783 228.861 92.4863 228.755 92.721 228.68C92.9557 228.595 93.233 228.552 93.553 228.552C94.097 228.552 94.5983 228.685 95.057 228.952C95.5157 229.208 95.857 229.635 96.081 230.232H96.113C96.2623 229.784 96.5397 229.395 96.945 229.064C97.361 228.723 97.921 228.552 98.625 228.552C99.4677 228.552 100.124 228.829 100.593 229.384C101.073 229.928 101.313 230.701 101.313 231.704V237H100.033V231.928C100.033 231.192 99.889 230.637 99.601 230.264C99.313 229.891 98.8543 229.704 98.225 229.704C97.969 229.704 97.7237 229.736 97.489 229.8C97.265 229.864 97.0623 229.96 96.881 230.088C96.6997 230.216 96.5557 230.381 96.449 230.584C96.3423 230.776 96.289 231.005 96.289 231.272V237H95.009V231.928C95.009 231.192 94.865 230.637 94.577 230.264C94.289 229.891 93.841 229.704 93.233 229.704C92.977 229.704 92.7317 229.736 92.497 229.8C92.2623 229.864 92.0543 229.96 91.873 230.088C91.6917 230.216 91.5423 230.381 91.425 230.584C91.3183 230.776 91.265 231.005 91.265 231.272V237H89.985ZM109.042 235.656H108.978C108.892 235.848 108.786 236.04 108.658 236.232C108.54 236.413 108.391 236.579 108.21 236.728C108.028 236.867 107.81 236.979 107.554 237.064C107.298 237.149 106.999 237.192 106.658 237.192C105.804 237.192 105.127 236.92 104.626 236.376C104.124 235.821 103.874 235.043 103.874 234.04V228.744H105.154V233.816C105.154 235.299 105.783 236.04 107.042 236.04C107.298 236.04 107.543 236.008 107.778 235.944C108.023 235.88 108.236 235.784 108.418 235.656C108.61 235.528 108.759 235.368 108.866 235.176C108.983 234.973 109.042 234.733 109.042 234.456V228.744H110.322V237H109.042V235.656ZM114.408 237C113.96 237 113.618 236.877 113.384 236.632C113.16 236.376 113.048 236.056 113.048 235.672V225.16H114.328V235.88H115.544V237H114.408ZM118.047 226.808C117.77 226.808 117.567 226.744 117.439 226.616C117.322 226.477 117.263 226.301 117.263 226.088V225.88C117.263 225.667 117.322 225.496 117.439 225.368C117.567 225.229 117.77 225.16 118.047 225.16C118.324 225.16 118.522 225.229 118.639 225.368C118.767 225.496 118.831 225.667 118.831 225.88V226.088C118.831 226.301 118.767 226.477 118.639 226.616C118.522 226.744 118.324 226.808 118.047 226.808ZM117.407 228.744H118.687V237H117.407V228.744ZM128.367 237.912C128.367 238.765 128.031 239.389 127.359 239.784C126.698 240.189 125.7 240.392 124.367 240.392C123.076 240.392 122.148 240.216 121.583 239.864C121.018 239.512 120.735 239.011 120.735 238.36C120.735 237.912 120.852 237.56 121.087 237.304C121.322 237.059 121.642 236.877 122.047 236.76V236.584C121.556 236.349 121.311 235.965 121.311 235.432C121.311 235.016 121.444 234.701 121.711 234.488C121.978 234.264 122.319 234.099 122.735 233.992V233.928C122.244 233.693 121.86 233.357 121.583 232.92C121.316 232.483 121.183 231.976 121.183 231.4C121.183 230.984 121.258 230.6 121.407 230.248C121.556 229.896 121.764 229.597 122.031 229.352C122.308 229.096 122.634 228.899 123.007 228.76C123.391 228.621 123.818 228.552 124.287 228.552C124.874 228.552 125.396 228.659 125.855 228.872V228.728C125.855 228.408 125.93 228.147 126.079 227.944C126.228 227.731 126.474 227.624 126.815 227.624H128.047V228.744H126.479V229.272C126.778 229.528 127.007 229.837 127.167 230.2C127.338 230.552 127.423 230.952 127.423 231.4C127.423 231.816 127.348 232.2 127.199 232.552C127.05 232.904 126.836 233.208 126.559 233.464C126.292 233.709 125.967 233.901 125.583 234.04C125.199 234.179 124.772 234.248 124.303 234.248C124.036 234.248 123.77 234.221 123.503 234.168C123.226 234.243 122.975 234.355 122.751 234.504C122.527 234.643 122.415 234.84 122.415 235.096C122.415 235.341 122.532 235.507 122.767 235.592C123.002 235.677 123.306 235.72 123.679 235.72H125.439C126.463 235.72 127.204 235.917 127.663 236.312C128.132 236.696 128.367 237.229 128.367 237.912ZM127.167 238.008C127.167 237.677 127.039 237.411 126.783 237.208C126.538 237.016 126.095 236.92 125.455 236.92H122.703C122.191 237.155 121.935 237.528 121.935 238.04C121.935 238.403 122.068 238.712 122.335 238.968C122.612 239.224 123.076 239.352 123.727 239.352H124.911C125.626 239.352 126.18 239.24 126.575 239.016C126.97 238.792 127.167 238.456 127.167 238.008ZM124.303 233.224C124.847 233.224 125.279 233.096 125.599 232.84C125.919 232.573 126.079 232.168 126.079 231.624V231.176C126.079 230.632 125.919 230.232 125.599 229.976C125.279 229.709 124.847 229.576 124.303 229.576C123.759 229.576 123.327 229.709 123.007 229.976C122.687 230.232 122.527 230.632 122.527 231.176V231.624C122.527 232.168 122.687 232.573 123.007 232.84C123.327 233.096 123.759 233.224 124.303 233.224ZM129.86 225.16H131.14V230.088H131.204C131.407 229.619 131.689 229.245 132.052 228.968C132.425 228.691 132.921 228.552 133.54 228.552C134.393 228.552 135.065 228.829 135.556 229.384C136.057 229.928 136.308 230.701 136.308 231.704V237H135.028V231.928C135.028 230.445 134.404 229.704 133.156 229.704C132.9 229.704 132.649 229.736 132.404 229.8C132.169 229.864 131.956 229.96 131.764 230.088C131.572 230.216 131.417 230.381 131.3 230.584C131.193 230.776 131.14 231.005 131.14 231.272V237H129.86V225.16ZM142.058 237.192C141.492 237.192 140.98 237.091 140.522 236.888C140.074 236.685 139.684 236.397 139.354 236.024C139.034 235.64 138.783 235.187 138.602 234.664C138.431 234.131 138.346 233.533 138.346 232.872C138.346 232.221 138.431 231.629 138.602 231.096C138.783 230.563 139.034 230.109 139.354 229.736C139.684 229.352 140.074 229.059 140.522 228.856C140.98 228.653 141.492 228.552 142.058 228.552C142.612 228.552 143.108 228.653 143.546 228.856C143.983 229.059 144.356 229.341 144.666 229.704C144.975 230.056 145.21 230.477 145.37 230.968C145.54 231.459 145.626 231.997 145.626 232.584V233.192H139.69V233.576C139.69 233.928 139.743 234.259 139.85 234.568C139.967 234.867 140.127 235.128 140.33 235.352C140.543 235.576 140.799 235.752 141.098 235.88C141.407 236.008 141.754 236.072 142.138 236.072C142.66 236.072 143.114 235.949 143.498 235.704C143.892 235.459 144.196 235.107 144.41 234.648L145.322 235.304C145.055 235.869 144.639 236.328 144.074 236.68C143.508 237.021 142.836 237.192 142.058 237.192ZM142.058 229.624C141.706 229.624 141.386 229.688 141.098 229.816C140.81 229.933 140.559 230.104 140.346 230.328C140.143 230.552 139.983 230.819 139.866 231.128C139.748 231.427 139.69 231.757 139.69 232.12V232.232H144.25V232.056C144.25 231.32 144.047 230.733 143.642 230.296C143.247 229.848 142.719 229.624 142.058 229.624ZM153.015 235.656H152.951C152.45 236.68 151.644 237.192 150.535 237.192C150.023 237.192 149.559 237.091 149.143 236.888C148.727 236.685 148.37 236.397 148.071 236.024C147.783 235.651 147.559 235.197 147.399 234.664C147.25 234.131 147.175 233.533 147.175 232.872C147.175 232.211 147.25 231.613 147.399 231.08C147.559 230.547 147.783 230.093 148.071 229.72C148.37 229.347 148.727 229.059 149.143 228.856C149.559 228.653 150.023 228.552 150.535 228.552C151.111 228.552 151.602 228.68 152.007 228.936C152.423 229.181 152.738 229.565 152.951 230.088H153.015V225.16H154.295V237H153.015V235.656ZM150.887 236.04C151.175 236.04 151.447 236.003 151.703 235.928C151.97 235.853 152.199 235.747 152.391 235.608C152.583 235.459 152.732 235.283 152.839 235.08C152.956 234.867 153.015 234.627 153.015 234.36V231.288C153.015 231.064 152.956 230.856 152.839 230.664C152.732 230.461 152.583 230.291 152.391 230.152C152.199 230.013 151.97 229.907 151.703 229.832C151.447 229.747 151.175 229.704 150.887 229.704C150.162 229.704 149.591 229.933 149.175 230.392C148.759 230.84 148.551 231.432 148.551 232.168V233.576C148.551 234.312 148.759 234.909 149.175 235.368C149.591 235.816 150.162 236.04 150.887 236.04ZM167.406 227.016H162.51L162.19 231.272H162.302C162.568 230.899 162.867 230.6 163.198 230.376C163.539 230.152 164.003 230.04 164.59 230.04C165.07 230.04 165.512 230.12 165.918 230.28C166.323 230.44 166.675 230.669 166.974 230.968C167.272 231.256 167.502 231.613 167.661 232.04C167.832 232.467 167.918 232.952 167.918 233.496C167.918 234.04 167.832 234.541 167.661 235C167.491 235.448 167.24 235.837 166.91 236.168C166.59 236.488 166.195 236.739 165.726 236.92C165.267 237.101 164.744 237.192 164.158 237.192C163.688 237.192 163.272 237.139 162.91 237.032C162.558 236.925 162.243 236.781 161.966 236.6C161.688 236.419 161.443 236.216 161.23 235.992C161.027 235.768 160.84 235.533 160.67 235.288L161.678 234.52C161.816 234.744 161.96 234.947 162.11 235.128C162.27 235.309 162.44 235.464 162.622 235.592C162.814 235.72 163.032 235.821 163.278 235.896C163.523 235.96 163.816 235.992 164.158 235.992C164.926 235.992 165.507 235.789 165.902 235.384C166.296 234.979 166.494 234.408 166.494 233.672V233.512C166.494 232.776 166.296 232.205 165.902 231.8C165.507 231.395 164.926 231.192 164.158 231.192C163.646 231.192 163.24 231.288 162.942 231.48C162.654 231.661 162.392 231.88 162.158 232.136L161.022 231.976L161.422 225.832H167.406V227.016Z" fill="#1A1A1A"/>
<circle cx="33" cy="107" r="16" fill="white" stroke="#1A1A1A" stroke-width="2"/>
<circle cx="33" cy="107" r="9" fill="#1A1A1A"/>
<path d="M62.032 111L58.32 99.832H59.76L61.6 105.464L62.832 109.656H62.912L64.176 105.464L66.032 99.832H67.424L63.664 111H62.032ZM74.6256 111C74.1456 111 73.799 110.872 73.5856 110.616C73.383 110.36 73.255 110.04 73.2016 109.656H73.1216C72.9403 110.168 72.6416 110.552 72.2256 110.808C71.8096 111.064 71.3136 111.192 70.7376 111.192C69.863 111.192 69.1803 110.968 68.6896 110.52C68.2096 110.072 67.9696 109.464 67.9696 108.696C67.9696 107.917 68.2523 107.32 68.8176 106.904C69.3936 106.488 70.2843 106.28 71.4896 106.28H73.1216V105.464C73.1216 104.877 72.9616 104.429 72.6416 104.12C72.3216 103.811 71.831 103.656 71.1696 103.656C70.6683 103.656 70.247 103.768 69.9056 103.992C69.575 104.216 69.2976 104.515 69.0736 104.888L68.3056 104.168C68.5296 103.72 68.887 103.341 69.3776 103.032C69.8683 102.712 70.487 102.552 71.2336 102.552C72.2363 102.552 73.015 102.797 73.5696 103.288C74.1243 103.779 74.4016 104.461 74.4016 105.336V109.88H75.3456V111H74.6256ZM70.9456 110.104C71.2656 110.104 71.559 110.067 71.8256 109.992C72.0923 109.917 72.3216 109.811 72.5136 109.672C72.7056 109.533 72.855 109.373 72.9616 109.192C73.0683 109.011 73.1216 108.813 73.1216 108.6V107.24H71.4256C70.6896 107.24 70.151 107.347 69.8096 107.56C69.479 107.773 69.3136 108.083 69.3136 108.488V108.824C69.3136 109.229 69.4576 109.544 69.7456 109.768C70.0443 109.992 70.4443 110.104 70.9456 110.104ZM78.5325 111C78.0845 111 77.7432 110.877 77.5085 110.632C77.2845 110.376 77.1725 110.056 77.1725 109.672V99.16H78.4525V109.88H79.6685V111H78.5325ZM88.4919 111.912C88.4919 112.765 88.1559 113.389 87.4839 113.784C86.8225 114.189 85.8252 114.392 84.4919 114.392C83.2012 114.392 82.2732 114.216 81.7079 113.864C81.1425 113.512 80.8599 113.011 80.8599 112.36C80.8599 111.912 80.9772 111.56 81.2119 111.304C81.4465 111.059 81.7665 110.877 82.1719 110.76V110.584C81.6812 110.349 81.4359 109.965 81.4359 109.432C81.4359 109.016 81.5692 108.701 81.8359 108.488C82.1025 108.264 82.4439 108.099 82.8599 107.992V107.928C82.3692 107.693 81.9852 107.357 81.7079 106.92C81.4412 106.483 81.3079 105.976 81.3079 105.4C81.3079 104.984 81.3825 104.6 81.5319 104.248C81.6812 103.896 81.8892 103.597 82.1559 103.352C82.4332 103.096 82.7585 102.899 83.1319 102.76C83.5159 102.621 83.9425 102.552 84.4119 102.552C84.9985 102.552 85.5212 102.659 85.9799 102.872V102.728C85.9799 102.408 86.0545 102.147 86.2039 101.944C86.3532 101.731 86.5985 101.624 86.9399 101.624H88.1719V102.744H86.6039V103.272C86.9025 103.528 87.1319 103.837 87.2919 104.2C87.4625 104.552 87.5479 104.952 87.5479 105.4C87.5479 105.816 87.4732 106.2 87.3239 106.552C87.1745 106.904 86.9612 107.208 86.6839 107.464C86.4172 107.709 86.0919 107.901 85.7079 108.04C85.3239 108.179 84.8972 108.248 84.4279 108.248C84.1612 108.248 83.8945 108.221 83.6279 108.168C83.3505 108.243 83.0999 108.355 82.8759 108.504C82.6519 108.643 82.5399 108.84 82.5399 109.096C82.5399 109.341 82.6572 109.507 82.8919 109.592C83.1265 109.677 83.4305 109.72 83.8039 109.72H85.5639C86.5879 109.72 87.3292 109.917 87.7879 110.312C88.2572 110.696 88.4919 111.229 88.4919 111.912ZM87.2919 112.008C87.2919 111.677 87.1639 111.411 86.9079 111.208C86.6625 111.016 86.2199 110.92 85.5799 110.92H82.8279C82.3159 111.155 82.0599 111.528 82.0599 112.04C82.0599 112.403 82.1932 112.712 82.4599 112.968C82.7372 113.224 83.2012 113.352 83.8519 113.352H85.0359C85.7505 113.352 86.3052 113.24 86.6999 113.016C87.0945 112.792 87.2919 112.456 87.2919 112.008ZM84.4279 107.224C84.9719 107.224 85.4039 107.096 85.7239 106.84C86.0439 106.573 86.2039 106.168 86.2039 105.624V105.176C86.2039 104.632 86.0439 104.232 85.7239 103.976C85.4039 103.709 84.9719 103.576 84.4279 103.576C83.8839 103.576 83.4519 103.709 83.1319 103.976C82.8119 104.232 82.6519 104.632 82.6519 105.176V105.624C82.6519 106.168 82.8119 106.573 83.1319 106.84C83.4519 107.096 83.8839 107.224 84.4279 107.224ZM89.985 111V102.744H91.265V104.088H91.329C91.425 103.875 91.5317 103.677 91.649 103.496C91.777 103.304 91.9263 103.139 92.097 103C92.2783 102.861 92.4863 102.755 92.721 102.68C92.9557 102.595 93.233 102.552 93.553 102.552C94.097 102.552 94.5983 102.685 95.057 102.952C95.5157 103.208 95.857 103.635 96.081 104.232H96.113C96.2623 103.784 96.5397 103.395 96.945 103.064C97.361 102.723 97.921 102.552 98.625 102.552C99.4677 102.552 100.124 102.829 100.593 103.384C101.073 103.928 101.313 104.701 101.313 105.704V111H100.033V105.928C100.033 105.192 99.889 104.637 99.601 104.264C99.313 103.891 98.8543 103.704 98.225 103.704C97.969 103.704 97.7237 103.736 97.489 103.8C97.265 103.864 97.0623 103.96 96.881 104.088C96.6997 104.216 96.5557 104.381 96.449 104.584C96.3423 104.776 96.289 105.005 96.289 105.272V111H95.009V105.928C95.009 105.192 94.865 104.637 94.577 104.264C94.289 103.891 93.841 103.704 93.233 103.704C92.977 103.704 92.7317 103.736 92.497 103.8C92.2623 103.864 92.0543 103.96 91.873 104.088C91.6917 104.216 91.5423 104.381 91.425 104.584C91.3183 104.776 91.265 105.005 91.265 105.272V111H89.985ZM109.042 109.656H108.978C108.892 109.848 108.786 110.04 108.658 110.232C108.54 110.413 108.391 110.579 108.21 110.728C108.028 110.867 107.81 110.979 107.554 111.064C107.298 111.149 106.999 111.192 106.658 111.192C105.804 111.192 105.127 110.92 104.626 110.376C104.124 109.821 103.874 109.043 103.874 108.04V102.744H105.154V107.816C105.154 109.299 105.783 110.04 107.042 110.04C107.298 110.04 107.543 110.008 107.778 109.944C108.023 109.88 108.236 109.784 108.418 109.656C108.61 109.528 108.759 109.368 108.866 109.176C108.983 108.973 109.042 108.733 109.042 108.456V102.744H110.322V111H109.042V109.656ZM114.408 111C113.96 111 113.618 110.877 113.384 110.632C113.16 110.376 113.048 110.056 113.048 109.672V99.16H114.328V109.88H115.544V111H114.408ZM118.047 100.808C117.77 100.808 117.567 100.744 117.439 100.616C117.322 100.477 117.263 100.301 117.263 100.088V99.88C117.263 99.6667 117.322 99.496 117.439 99.368C117.567 99.2293 117.77 99.16 118.047 99.16C118.324 99.16 118.522 99.2293 118.639 99.368C118.767 99.496 118.831 99.6667 118.831 99.88V100.088C118.831 100.301 118.767 100.477 118.639 100.616C118.522 100.744 118.324 100.808 118.047 100.808ZM117.407 102.744H118.687V111H117.407V102.744ZM128.367 111.912C128.367 112.765 128.031 113.389 127.359 113.784C126.698 114.189 125.7 114.392 124.367 114.392C123.076 114.392 122.148 114.216 121.583 113.864C121.018 113.512 120.735 113.011 120.735 112.36C120.735 111.912 120.852 111.56 121.087 111.304C121.322 111.059 121.642 110.877 122.047 110.76V110.584C121.556 110.349 121.311 109.965 121.311 109.432C121.311 109.016 121.444 108.701 121.711 108.488C121.978 108.264 122.319 108.099 122.735 107.992V107.928C122.244 107.693 121.86 107.357 121.583 106.92C121.316 106.483 121.183 105.976 121.183 105.4C121.183 104.984 121.258 104.6 121.407 104.248C121.556 103.896 121.764 103.597 122.031 103.352C122.308 103.096 122.634 102.899 123.007 102.76C123.391 102.621 123.818 102.552 124.287 102.552C124.874 102.552 125.396 102.659 125.855 102.872V102.728C125.855 102.408 125.93 102.147 126.079 101.944C126.228 101.731 126.474 101.624 126.815 101.624H128.047V102.744H126.479V103.272C126.778 103.528 127.007 103.837 127.167 104.2C127.338 104.552 127.423 104.952 127.423 105.4C127.423 105.816 127.348 106.2 127.199 106.552C127.05 106.904 126.836 107.208 126.559 107.464C126.292 107.709 125.967 107.901 125.583 108.04C125.199 108.179 124.772 108.248 124.303 108.248C124.036 108.248 123.77 108.221 123.503 108.168C123.226 108.243 122.975 108.355 122.751 108.504C122.527 108.643 122.415 108.84 122.415 109.096C122.415 109.341 122.532 109.507 122.767 109.592C123.002 109.677 123.306 109.72 123.679 109.72H125.439C126.463 109.72 127.204 109.917 127.663 110.312C128.132 110.696 128.367 111.229 128.367 111.912ZM127.167 112.008C127.167 111.677 127.039 111.411 126.783 111.208C126.538 111.016 126.095 110.92 125.455 110.92H122.703C122.191 111.155 121.935 111.528 121.935 112.04C121.935 112.403 122.068 112.712 122.335 112.968C122.612 113.224 123.076 113.352 123.727 113.352H124.911C125.626 113.352 126.18 113.24 126.575 113.016C126.97 112.792 127.167 112.456 127.167 112.008ZM124.303 107.224C124.847 107.224 125.279 107.096 125.599 106.84C125.919 106.573 126.079 106.168 126.079 105.624V105.176C126.079 104.632 125.919 104.232 125.599 103.976C125.279 103.709 124.847 103.576 124.303 103.576C123.759 103.576 123.327 103.709 123.007 103.976C122.687 104.232 122.527 104.632 122.527 105.176V105.624C122.527 106.168 122.687 106.573 123.007 106.84C123.327 107.096 123.759 107.224 124.303 107.224ZM129.86 99.16H131.14V104.088H131.204C131.407 103.619 131.689 103.245 132.052 102.968C132.425 102.691 132.921 102.552 133.54 102.552C134.393 102.552 135.065 102.829 135.556 103.384C136.057 103.928 136.308 104.701 136.308 105.704V111H135.028V105.928C135.028 104.445 134.404 103.704 133.156 103.704C132.9 103.704 132.649 103.736 132.404 103.8C132.169 103.864 131.956 103.96 131.764 104.088C131.572 104.216 131.417 104.381 131.3 104.584C131.193 104.776 131.14 105.005 131.14 105.272V111H129.86V99.16ZM142.058 111.192C141.492 111.192 140.98 111.091 140.522 110.888C140.074 110.685 139.684 110.397 139.354 110.024C139.034 109.64 138.783 109.187 138.602 108.664C138.431 108.131 138.346 107.533 138.346 106.872C138.346 106.221 138.431 105.629 138.602 105.096C138.783 104.563 139.034 104.109 139.354 103.736C139.684 103.352 140.074 103.059 140.522 102.856C140.98 102.653 141.492 102.552 142.058 102.552C142.612 102.552 143.108 102.653 143.546 102.856C143.983 103.059 144.356 103.341 144.666 103.704C144.975 104.056 145.21 104.477 145.37 104.968C145.54 105.459 145.626 105.997 145.626 106.584V107.192H139.69V107.576C139.69 107.928 139.743 108.259 139.85 108.568C139.967 108.867 140.127 109.128 140.33 109.352C140.543 109.576 140.799 109.752 141.098 109.88C141.407 110.008 141.754 110.072 142.138 110.072C142.66 110.072 143.114 109.949 143.498 109.704C143.892 109.459 144.196 109.107 144.41 108.648L145.322 109.304C145.055 109.869 144.639 110.328 144.074 110.68C143.508 111.021 142.836 111.192 142.058 111.192ZM142.058 103.624C141.706 103.624 141.386 103.688 141.098 103.816C140.81 103.933 140.559 104.104 140.346 104.328C140.143 104.552 139.983 104.819 139.866 105.128C139.748 105.427 139.69 105.757 139.69 106.12V106.232H144.25V106.056C144.25 105.32 144.047 104.733 143.642 104.296C143.247 103.848 142.719 103.624 142.058 103.624ZM153.015 109.656H152.951C152.45 110.68 151.644 111.192 150.535 111.192C150.023 111.192 149.559 111.091 149.143 110.888C148.727 110.685 148.37 110.397 148.071 110.024C147.783 109.651 147.559 109.197 147.399 108.664C147.25 108.131 147.175 107.533 147.175 106.872C147.175 106.211 147.25 105.613 147.399 105.08C147.559 104.547 147.783 104.093 148.071 103.72C148.37 103.347 148.727 103.059 149.143 102.856C149.559 102.653 150.023 102.552 150.535 102.552C151.111 102.552 151.602 102.68 152.007 102.936C152.423 103.181 152.738 103.565 152.951 104.088H153.015V99.16H154.295V111H153.015V109.656ZM150.887 110.04C151.175 110.04 151.447 110.003 151.703 109.928C151.97 109.853 152.199 109.747 152.391 109.608C152.583 109.459 152.732 109.283 152.839 109.08C152.956 108.867 153.015 108.627 153.015 108.36V105.288C153.015 105.064 152.956 104.856 152.839 104.664C152.732 104.461 152.583 104.291 152.391 104.152C152.199 104.013 151.97 103.907 151.703 103.832C151.447 103.747 151.175 103.704 150.887 103.704C150.162 103.704 149.591 103.933 149.175 104.392C148.759 104.84 148.551 105.432 148.551 106.168V107.576C148.551 108.312 148.759 108.909 149.175 109.368C149.591 109.816 150.162 110.04 150.887 110.04ZM167.966 111H160.638V109.624L164.286 106.264C164.808 105.784 165.246 105.277 165.598 104.744C165.95 104.2 166.126 103.656 166.126 103.112V102.92C166.126 102.301 165.955 101.8 165.614 101.416C165.272 101.032 164.755 100.84 164.062 100.84C163.72 100.84 163.422 100.888 163.166 100.984C162.91 101.08 162.686 101.213 162.494 101.384C162.312 101.555 162.158 101.757 162.03 101.992C161.912 102.216 161.816 102.461 161.742 102.728L160.542 102.264C160.648 101.933 160.792 101.613 160.974 101.304C161.166 100.984 161.4 100.701 161.678 100.456C161.966 100.211 162.307 100.013 162.702 99.864C163.107 99.7147 163.582 99.64 164.126 99.64C164.67 99.64 165.155 99.72 165.582 99.88C166.008 100.04 166.366 100.264 166.654 100.552C166.942 100.84 167.16 101.181 167.31 101.576C167.47 101.971 167.55 102.408 167.55 102.888C167.55 103.325 167.486 103.731 167.358 104.104C167.24 104.477 167.075 104.835 166.862 105.176C166.648 105.507 166.387 105.832 166.078 106.152C165.779 106.472 165.454 106.792 165.102 107.112L162.094 109.816H167.966V111Z" fill="#1A1A1A"/>
</svg>
