<svg width="418" height="395" viewBox="0 0 418 395" fill="none" xmlns="http://www.w3.org/2000/svg">
<rect width="418" height="395" fill="white"/>
<line y1="310.5" x2="418" y2="310.5" stroke="#BFBFBF"/>
<line y1="55.5" x2="418" y2="55.5" stroke="#BFBFBF"/>
<rect width="386" height="119" transform="translate(16 72)" fill="#DCDCDC"/>
<rect width="185" height="80" transform="translate(16 207)" fill="#DCDCDC"/>
<rect width="185" height="80" transform="translate(16 207)" fill="#DCDCDC"/>
<rect width="118" height="12" transform="translate(16 347)" fill="#DCDCDC"/>
<rect width="118" height="12" transform="translate(150 347)" fill="#DCDCDC"/>
<rect width="118" height="12" transform="translate(284 347)" fill="#DCDCDC"/>
<rect width="118" height="12" transform="translate(16 367)" fill="#DCDCDC"/>
<rect width="118" height="12" transform="translate(150 367)" fill="#DCDCDC"/>
<rect width="118" height="12" transform="translate(284 367)" fill="#DCDCDC"/>
<rect width="185" height="80" transform="translate(217 207)" fill="#DCDCDC"/>
<rect width="64" height="12" transform="translate(16 327)" fill="#DCDCDC"/>
<rect width="64" height="12" transform="translate(16 24)" fill="#DCDCDC"/>
<rect width="64" height="12" transform="translate(88 24)" fill="#DCDCDC"/>
<rect width="64" height="12" transform="translate(150 327)" fill="#DCDCDC"/>
<rect width="64" height="12" transform="translate(284 327)" fill="#DCDCDC"/>
<path d="M369.809 16.5H398C399.933 16.5 401.5 18.067 401.5 20V36C401.5 37.933 399.933 39.5 398 39.5H369.809V16.5Z" fill="white"/>
<path d="M389.893 33.0938L386.866 30.0998V29.6258L386.702 29.4578C385.929 30.1156 384.929 30.4509 383.911 30.3933C382.894 30.3357 381.938 29.8896 381.245 29.1487C380.553 28.4079 380.177 27.4298 380.196 26.42C380.215 25.4101 380.629 24.4469 381.349 23.7327C382.07 23.0185 383.042 22.6088 384.061 22.5896C385.08 22.5704 386.067 22.9431 386.814 23.6297C387.562 24.3162 388.012 25.263 388.07 26.2714C388.128 27.2798 387.79 28.2714 387.126 29.0378L387.296 29.1998H387.774L390.795 32.1998L389.893 33.0932V33.0938ZM384.141 23.7998C383.603 23.7998 383.076 23.9582 382.628 24.2548C382.18 24.5515 381.831 24.9732 381.625 25.4666C381.418 25.9599 381.364 26.5028 381.47 27.0266C381.575 27.5503 381.834 28.0314 382.215 28.409C382.596 28.7866 383.082 29.0437 383.61 29.1479C384.138 29.2521 384.686 29.1986 385.184 28.9943C385.682 28.7899 386.107 28.4439 386.407 27.9998C386.706 27.5558 386.866 27.0338 386.866 26.4998C386.865 25.784 386.578 25.0977 386.067 24.5915C385.556 24.0853 384.864 23.8006 384.141 23.7998Z" fill="#1A1A1A"/>
<path d="M369.809 16.5H398C399.933 16.5 401.5 18.067 401.5 20V36C401.5 37.933 399.933 39.5 398 39.5H369.809V16.5Z" stroke="#747474"/>
<path d="M290.5 20C290.5 18.067 292.067 16.5 294 16.5H369.414V39.5H294C292.067 39.5 290.5 37.933 290.5 36V20Z" stroke="#747474"/>
</svg>
