<svg width="418" height="252" viewBox="0 0 418 252" fill="none" xmlns="http://www.w3.org/2000/svg">
<rect width="418" height="252" fill="white"/>
<rect x="17" y="16" width="128" height="54" fill="#F5F5F5"/>
<path d="M37.696 37.704V47H35.584V37.704H32.416V35.832H40.864V37.704H37.696ZM43.4893 37.432C43.0626 37.432 42.7533 37.336 42.5613 37.144C42.3799 36.952 42.2893 36.7067 42.2893 36.408V36.088C42.2893 35.7893 42.3799 35.544 42.5613 35.352C42.7533 35.16 43.0626 35.064 43.4893 35.064C43.9053 35.064 44.2093 35.16 44.4013 35.352C44.5933 35.544 44.6893 35.7893 44.6893 36.088V36.408C44.6893 36.7067 44.5933 36.952 44.4013 37.144C44.2093 37.336 43.9053 37.432 43.4893 37.432ZM42.4653 38.648H44.5133V47H42.4653V38.648ZM49.4951 47C48.7911 47 48.2525 46.8187 47.8791 46.456C47.5165 46.0827 47.3351 45.5547 47.3351 44.872V40.28H46.1031V38.648H46.7431C47.0525 38.648 47.2605 38.5787 47.3671 38.44C47.4845 38.2907 47.5431 38.072 47.5431 37.784V36.36H49.3831V38.648H51.0951V40.28H49.3831V45.368H50.9671V47H49.4951ZM56.185 47.192C55.5663 47.192 55.0117 47.0907 54.521 46.888C54.041 46.6747 53.6303 46.3813 53.289 46.008C52.9583 45.624 52.7023 45.1653 52.521 44.632C52.3397 44.088 52.249 43.48 52.249 42.808C52.249 42.1467 52.3343 41.5493 52.505 41.016C52.6863 40.4827 52.9423 40.0293 53.273 39.656C53.6037 39.272 54.009 38.9787 54.489 38.776C54.969 38.5627 55.513 38.456 56.121 38.456C56.7717 38.456 57.337 38.568 57.817 38.792C58.297 39.016 58.6917 39.32 59.001 39.704C59.3103 40.088 59.5397 40.536 59.689 41.048C59.849 41.5493 59.929 42.088 59.929 42.664V43.336H54.377V43.544C54.377 44.152 54.5477 44.6427 54.889 45.016C55.2303 45.3787 55.737 45.56 56.409 45.56C56.921 45.56 57.337 45.4533 57.657 45.24C57.9877 45.0267 58.281 44.7547 58.537 44.424L59.641 45.656C59.2997 46.136 58.8303 46.5147 58.233 46.792C57.6463 47.0587 56.9637 47.192 56.185 47.192ZM56.153 39.992C55.609 39.992 55.177 40.1733 54.857 40.536C54.537 40.8987 54.377 41.368 54.377 41.944V42.072H57.801V41.928C57.801 41.352 57.657 40.888 57.369 40.536C57.0917 40.1733 56.6863 39.992 56.153 39.992ZM63.7789 47C63.0749 47 62.5575 46.824 62.2269 46.472C61.8962 46.12 61.7309 45.624 61.7309 44.984V35.16H63.7789V45.368H64.8829V47H63.7789ZM70.4873 47V45.288H73.5593V37.352H73.4153L70.9833 40.232L69.6713 39.128L72.4393 35.832H75.6233V45.288H78.1833V47H70.4873Z" fill="#1A1A1A"/>
<rect x="17" y="70" width="128" height="1" fill="#BFBFBF"/>
<rect x="145" y="16" width="55" height="1" transform="rotate(90 145 16)" fill="#BFBFBF"/>
<rect x="145" y="16" width="128" height="54" fill="#F5F5F5"/>
<path d="M165.696 37.704V47H163.584V37.704H160.416V35.832H168.864V37.704H165.696ZM171.489 37.432C171.063 37.432 170.753 37.336 170.561 37.144C170.38 36.952 170.289 36.7067 170.289 36.408V36.088C170.289 35.7893 170.38 35.544 170.561 35.352C170.753 35.16 171.063 35.064 171.489 35.064C171.905 35.064 172.209 35.16 172.401 35.352C172.593 35.544 172.689 35.7893 172.689 36.088V36.408C172.689 36.7067 172.593 36.952 172.401 37.144C172.209 37.336 171.905 37.432 171.489 37.432ZM170.465 38.648H172.513V47H170.465V38.648ZM177.495 47C176.791 47 176.252 46.8187 175.879 46.456C175.516 46.0827 175.335 45.5547 175.335 44.872V40.28H174.103V38.648H174.743C175.052 38.648 175.26 38.5787 175.367 38.44C175.484 38.2907 175.543 38.072 175.543 37.784V36.36H177.383V38.648H179.095V40.28H177.383V45.368H178.967V47H177.495ZM184.185 47.192C183.566 47.192 183.012 47.0907 182.521 46.888C182.041 46.6747 181.63 46.3813 181.289 46.008C180.958 45.624 180.702 45.1653 180.521 44.632C180.34 44.088 180.249 43.48 180.249 42.808C180.249 42.1467 180.334 41.5493 180.505 41.016C180.686 40.4827 180.942 40.0293 181.273 39.656C181.604 39.272 182.009 38.9787 182.489 38.776C182.969 38.5627 183.513 38.456 184.121 38.456C184.772 38.456 185.337 38.568 185.817 38.792C186.297 39.016 186.692 39.32 187.001 39.704C187.31 40.088 187.54 40.536 187.689 41.048C187.849 41.5493 187.929 42.088 187.929 42.664V43.336H182.377V43.544C182.377 44.152 182.548 44.6427 182.889 45.016C183.23 45.3787 183.737 45.56 184.409 45.56C184.921 45.56 185.337 45.4533 185.657 45.24C185.988 45.0267 186.281 44.7547 186.537 44.424L187.641 45.656C187.3 46.136 186.83 46.5147 186.233 46.792C185.646 47.0587 184.964 47.192 184.185 47.192ZM184.153 39.992C183.609 39.992 183.177 40.1733 182.857 40.536C182.537 40.8987 182.377 41.368 182.377 41.944V42.072H185.801V41.928C185.801 41.352 185.657 40.888 185.369 40.536C185.092 40.1733 184.686 39.992 184.153 39.992ZM191.779 47C191.075 47 190.558 46.824 190.227 46.472C189.896 46.12 189.731 45.624 189.731 44.984V35.16H191.779V45.368H192.883V47H191.779ZM205.767 47H198.023V45.048L201.527 41.976C202.125 41.4533 202.562 40.984 202.839 40.568C203.117 40.1413 203.255 39.6827 203.255 39.192V38.984C203.255 38.4933 203.095 38.12 202.775 37.864C202.455 37.5973 202.066 37.464 201.607 37.464C201.031 37.464 200.594 37.6293 200.295 37.96C199.997 38.28 199.783 38.6693 199.655 39.128L197.831 38.424C197.949 38.0507 198.114 37.6987 198.327 37.368C198.541 37.0267 198.807 36.728 199.127 36.472C199.458 36.216 199.842 36.0133 200.279 35.864C200.717 35.7147 201.218 35.64 201.783 35.64C202.37 35.64 202.893 35.7253 203.351 35.896C203.81 36.056 204.194 36.2853 204.503 36.584C204.823 36.8827 205.063 37.2347 205.223 37.64C205.394 38.0453 205.479 38.488 205.479 38.968C205.479 39.4373 205.405 39.864 205.255 40.248C205.106 40.632 204.903 41 204.647 41.352C204.391 41.6933 204.093 42.024 203.751 42.344C203.41 42.6533 203.047 42.968 202.663 43.288L200.311 45.224H205.767V47Z" fill="#1A1A1A"/>
<rect x="145" y="70" width="128" height="1" fill="#BFBFBF"/>
<rect x="273" y="16" width="55" height="1" transform="rotate(90 273 16)" fill="#BFBFBF"/>
<rect x="273" y="16" width="129" height="54" fill="#F5F5F5"/>
<path d="M293.696 37.704V47H291.584V37.704H288.416V35.832H296.864V37.704H293.696ZM299.489 37.432C299.063 37.432 298.753 37.336 298.561 37.144C298.38 36.952 298.289 36.7067 298.289 36.408V36.088C298.289 35.7893 298.38 35.544 298.561 35.352C298.753 35.16 299.063 35.064 299.489 35.064C299.905 35.064 300.209 35.16 300.401 35.352C300.593 35.544 300.689 35.7893 300.689 36.088V36.408C300.689 36.7067 300.593 36.952 300.401 37.144C300.209 37.336 299.905 37.432 299.489 37.432ZM298.465 38.648H300.513V47H298.465V38.648ZM305.495 47C304.791 47 304.252 46.8187 303.879 46.456C303.516 46.0827 303.335 45.5547 303.335 44.872V40.28H302.103V38.648H302.743C303.052 38.648 303.26 38.5787 303.367 38.44C303.484 38.2907 303.543 38.072 303.543 37.784V36.36H305.383V38.648H307.095V40.28H305.383V45.368H306.967V47H305.495ZM312.185 47.192C311.566 47.192 311.012 47.0907 310.521 46.888C310.041 46.6747 309.63 46.3813 309.289 46.008C308.958 45.624 308.702 45.1653 308.521 44.632C308.34 44.088 308.249 43.48 308.249 42.808C308.249 42.1467 308.334 41.5493 308.505 41.016C308.686 40.4827 308.942 40.0293 309.273 39.656C309.604 39.272 310.009 38.9787 310.489 38.776C310.969 38.5627 311.513 38.456 312.121 38.456C312.772 38.456 313.337 38.568 313.817 38.792C314.297 39.016 314.692 39.32 315.001 39.704C315.31 40.088 315.54 40.536 315.689 41.048C315.849 41.5493 315.929 42.088 315.929 42.664V43.336H310.377V43.544C310.377 44.152 310.548 44.6427 310.889 45.016C311.23 45.3787 311.737 45.56 312.409 45.56C312.921 45.56 313.337 45.4533 313.657 45.24C313.988 45.0267 314.281 44.7547 314.537 44.424L315.641 45.656C315.3 46.136 314.83 46.5147 314.233 46.792C313.646 47.0587 312.964 47.192 312.185 47.192ZM312.153 39.992C311.609 39.992 311.177 40.1733 310.857 40.536C310.537 40.8987 310.377 41.368 310.377 41.944V42.072H313.801V41.928C313.801 41.352 313.657 40.888 313.369 40.536C313.092 40.1733 312.686 39.992 312.153 39.992ZM319.779 47C319.075 47 318.558 46.824 318.227 46.472C317.896 46.12 317.731 45.624 317.731 44.984V35.16H319.779V45.368H320.883V47H319.779ZM329.223 40.344C329.863 40.344 330.333 40.216 330.631 39.96C330.941 39.6933 331.095 39.3573 331.095 38.952V38.84C331.095 38.3813 330.946 38.024 330.647 37.768C330.359 37.5013 329.959 37.368 329.447 37.368C328.957 37.368 328.519 37.4853 328.135 37.72C327.762 37.9547 327.437 38.2853 327.159 38.712L325.815 37.496C326.007 37.24 326.215 37 326.439 36.776C326.674 36.5413 326.941 36.344 327.239 36.184C327.538 36.0133 327.874 35.88 328.247 35.784C328.621 35.688 329.042 35.64 329.511 35.64C330.077 35.64 330.589 35.7093 331.047 35.848C331.517 35.976 331.917 36.168 332.247 36.424C332.589 36.68 332.85 36.9893 333.031 37.352C333.213 37.704 333.303 38.104 333.303 38.552C333.303 38.9147 333.245 39.24 333.127 39.528C333.021 39.816 332.866 40.0667 332.663 40.28C332.471 40.4933 332.242 40.6693 331.975 40.808C331.719 40.936 331.447 41.032 331.159 41.096V41.192C331.479 41.256 331.783 41.3573 332.071 41.496C332.359 41.6347 332.605 41.8213 332.807 42.056C333.021 42.28 333.186 42.5467 333.303 42.856C333.431 43.1653 333.495 43.5173 333.495 43.912C333.495 44.4027 333.394 44.8507 333.191 45.256C332.999 45.6613 332.722 46.008 332.359 46.296C331.997 46.584 331.565 46.808 331.063 46.968C330.562 47.1173 330.002 47.192 329.383 47.192C328.839 47.192 328.359 47.1333 327.943 47.016C327.527 46.9093 327.159 46.76 326.839 46.568C326.53 46.376 326.258 46.1573 326.023 45.912C325.789 45.656 325.586 45.3893 325.415 45.112L326.967 43.928C327.095 44.152 327.234 44.36 327.383 44.552C327.533 44.7333 327.703 44.8933 327.895 45.032C328.087 45.1707 328.306 45.2773 328.551 45.352C328.797 45.4267 329.074 45.464 329.383 45.464C330.002 45.464 330.477 45.3147 330.807 45.016C331.138 44.7173 331.303 44.3067 331.303 43.784V43.672C331.303 43.16 331.122 42.7707 330.759 42.504C330.407 42.2373 329.895 42.104 329.223 42.104H328.119V40.344H329.223Z" fill="#1A1A1A"/>
<rect x="273" y="70" width="129" height="1" fill="#BFBFBF"/>
<rect x="402" y="16" width="55" height="1" transform="rotate(90 402 16)" fill="#BFBFBF"/>
<rect x="17" y="125" width="128" height="1" fill="#BFBFBF"/>
<rect x="145" y="71" width="55" height="1" transform="rotate(90 145 71)" fill="#BFBFBF"/>
<rect x="145" y="125" width="128" height="1" fill="#BFBFBF"/>
<rect x="273" y="71" width="55" height="1" transform="rotate(90 273 71)" fill="#BFBFBF"/>
<rect x="273" y="125" width="129" height="1" fill="#BFBFBF"/>
<rect x="402" y="71" width="55" height="1" transform="rotate(90 402 71)" fill="#BFBFBF"/>
<rect x="17" y="180" width="128" height="1" fill="#BFBFBF"/>
<rect x="145" y="126" width="55" height="1" transform="rotate(90 145 126)" fill="#BFBFBF"/>
<rect x="145" y="180" width="128" height="1" fill="#BFBFBF"/>
<rect x="273" y="126" width="55" height="1" transform="rotate(90 273 126)" fill="#BFBFBF"/>
<rect x="273" y="180" width="129" height="1" fill="#BFBFBF"/>
<rect x="402" y="126" width="55" height="1" transform="rotate(90 402 126)" fill="#BFBFBF"/>
<rect x="17" y="235" width="128" height="1" fill="#BFBFBF"/>
<rect x="145" y="181" width="55" height="1" transform="rotate(90 145 181)" fill="#BFBFBF"/>
<rect x="145" y="235" width="128" height="1" fill="#BFBFBF"/>
<rect x="273" y="181" width="55" height="1" transform="rotate(90 273 181)" fill="#BFBFBF"/>
<rect x="273" y="235" width="129" height="1" fill="#BFBFBF"/>
<rect x="402" y="181" width="55" height="1" transform="rotate(90 402 181)" fill="#BFBFBF"/>
<rect x="16.5" y="16.5" width="385" height="219" stroke="#747474"/>
<rect width="96" height="20" transform="translate(32 88)" fill="#DCDCDC"/>
<rect width="96" height="20" transform="translate(160 88)" fill="#DCDCDC"/>
<rect width="96" height="20" transform="translate(289 88)" fill="#DCDCDC"/>
<rect width="96" height="20" transform="translate(32 143)" fill="#DCDCDC"/>
<rect width="96" height="20" transform="translate(160 143)" fill="#DCDCDC"/>
<rect width="96" height="20" transform="translate(289 143)" fill="#DCDCDC"/>
<rect width="96" height="20" transform="translate(32 198)" fill="#DCDCDC"/>
<rect width="96" height="20" transform="translate(160 198)" fill="#DCDCDC"/>
<rect width="96" height="20" transform="translate(289 198)" fill="#DCDCDC"/>
</svg>
