<svg width="418" height="252" viewBox="0 0 418 252" fill="none" xmlns="http://www.w3.org/2000/svg">
<rect width="418" height="252" fill="white"/>
<rect x="17" y="16" width="385" height="54" fill="#F5F5F5"/>
<path d="M37.696 37.704V47H35.584V37.704H32.416V35.832H40.864V37.704H37.696ZM43.4893 37.432C43.0626 37.432 42.7533 37.336 42.5613 37.144C42.3799 36.952 42.2893 36.7067 42.2893 36.408V36.088C42.2893 35.7893 42.3799 35.544 42.5613 35.352C42.7533 35.16 43.0626 35.064 43.4893 35.064C43.9053 35.064 44.2093 35.16 44.4013 35.352C44.5933 35.544 44.6893 35.7893 44.6893 36.088V36.408C44.6893 36.7067 44.5933 36.952 44.4013 37.144C44.2093 37.336 43.9053 37.432 43.4893 37.432ZM42.4653 38.648H44.5133V47H42.4653V38.648ZM49.4951 47C48.7911 47 48.2525 46.8187 47.8791 46.456C47.5165 46.0827 47.3351 45.5547 47.3351 44.872V40.28H46.1031V38.648H46.7431C47.0525 38.648 47.2605 38.5787 47.3671 38.44C47.4845 38.2907 47.5431 38.072 47.5431 37.784V36.36H49.3831V38.648H51.0951V40.28H49.3831V45.368H50.9671V47H49.4951ZM56.185 47.192C55.5663 47.192 55.0117 47.0907 54.521 46.888C54.041 46.6747 53.6303 46.3813 53.289 46.008C52.9583 45.624 52.7023 45.1653 52.521 44.632C52.3397 44.088 52.249 43.48 52.249 42.808C52.249 42.1467 52.3343 41.5493 52.505 41.016C52.6863 40.4827 52.9423 40.0293 53.273 39.656C53.6037 39.272 54.009 38.9787 54.489 38.776C54.969 38.5627 55.513 38.456 56.121 38.456C56.7717 38.456 57.337 38.568 57.817 38.792C58.297 39.016 58.6917 39.32 59.001 39.704C59.3103 40.088 59.5397 40.536 59.689 41.048C59.849 41.5493 59.929 42.088 59.929 42.664V43.336H54.377V43.544C54.377 44.152 54.5477 44.6427 54.889 45.016C55.2303 45.3787 55.737 45.56 56.409 45.56C56.921 45.56 57.337 45.4533 57.657 45.24C57.9877 45.0267 58.281 44.7547 58.537 44.424L59.641 45.656C59.2997 46.136 58.8303 46.5147 58.233 46.792C57.6463 47.0587 56.9637 47.192 56.185 47.192ZM56.153 39.992C55.609 39.992 55.177 40.1733 54.857 40.536C54.537 40.8987 54.377 41.368 54.377 41.944V42.072H57.801V41.928C57.801 41.352 57.657 40.888 57.369 40.536C57.0917 40.1733 56.6863 39.992 56.153 39.992ZM63.7789 47C63.0749 47 62.5575 46.824 62.2269 46.472C61.8962 46.12 61.7309 45.624 61.7309 44.984V35.16H63.7789V45.368H64.8829V47H63.7789Z" fill="#1A1A1A"/>
<rect x="17" y="70" width="385" height="1" fill="#BFBFBF"/>
<rect x="402" y="16" width="55" height="1" transform="rotate(90 402 16)" fill="#BFBFBF"/>
<rect x="17" y="125" width="385" height="1" fill="#BFBFBF"/>
<rect x="402" y="71" width="55" height="1" transform="rotate(90 402 71)" fill="#BFBFBF"/>
<rect x="17" y="180" width="385" height="1" fill="#BFBFBF"/>
<rect x="402" y="126" width="55" height="1" transform="rotate(90 402 126)" fill="#BFBFBF"/>
<rect x="17" y="235" width="385" height="1" fill="#BFBFBF"/>
<rect x="402" y="181" width="55" height="1" transform="rotate(90 402 181)" fill="#BFBFBF"/>
<rect x="16.5" y="16.5" width="385" height="219" stroke="#747474"/>
<rect width="353" height="20" transform="translate(32 88)" fill="#DCDCDC"/>
<rect width="353" height="20" transform="translate(32 143)" fill="#DCDCDC"/>
<rect width="353" height="20" transform="translate(32 198)" fill="#DCDCDC"/>
</svg>
