<svg width="418" height="280" viewBox="0 0 418 280" fill="none" xmlns="http://www.w3.org/2000/svg">
<g clip-path="url(#clip0_5010_49112)">
<rect width="418" height="280" fill="white"/>
<path d="M17.312 34V22.832H19.424V32.128H23.824V34H17.312ZM28.6835 34.192C28.0862 34.192 27.5475 34.0907 27.0675 33.888C26.5982 33.6853 26.1928 33.392 25.8515 33.008C25.5208 32.624 25.2648 32.1653 25.0835 31.632C24.9022 31.088 24.8115 30.48 24.8115 29.808C24.8115 29.136 24.9022 28.5333 25.0835 28C25.2648 27.4667 25.5208 27.0133 25.8515 26.64C26.1928 26.256 26.5982 25.9627 27.0675 25.76C27.5475 25.5573 28.0862 25.456 28.6835 25.456C29.2808 25.456 29.8195 25.5573 30.2995 25.76C30.7795 25.9627 31.1848 26.256 31.5155 26.64C31.8568 27.0133 32.1182 27.4667 32.2995 28C32.4808 28.5333 32.5715 29.136 32.5715 29.808C32.5715 30.48 32.4808 31.088 32.2995 31.632C32.1182 32.1653 31.8568 32.624 31.5155 33.008C31.1848 33.392 30.7795 33.6853 30.2995 33.888C29.8195 34.0907 29.2808 34.192 28.6835 34.192ZM28.6835 32.544C29.2275 32.544 29.6542 32.3787 29.9635 32.048C30.2728 31.7173 30.4275 31.232 30.4275 30.592V29.04C30.4275 28.4107 30.2728 27.9307 29.9635 27.6C29.6542 27.2693 29.2275 27.104 28.6835 27.104C28.1502 27.104 27.7288 27.2693 27.4195 27.6C27.1102 27.9307 26.9555 28.4107 26.9555 29.04V30.592C26.9555 31.232 27.1102 31.7173 27.4195 32.048C27.7288 32.3787 28.1502 32.544 28.6835 32.544ZM34.3871 34V25.648H36.4351V27.376H36.5151C36.5685 27.152 36.6485 26.9387 36.7551 26.736C36.8725 26.5227 37.0218 26.336 37.2031 26.176C37.3845 26.016 37.5978 25.888 37.8431 25.792C38.0991 25.696 38.3925 25.648 38.7231 25.648H39.1711V27.584H38.5311C37.8378 27.584 37.3151 27.6853 36.9631 27.888C36.6111 28.0907 36.4351 28.4213 36.4351 28.88V34H34.3871ZM43.9663 34.192C43.3476 34.192 42.7929 34.0907 42.3023 33.888C41.8223 33.6747 41.4116 33.3813 41.0703 33.008C40.7396 32.624 40.4836 32.1653 40.3023 31.632C40.1209 31.088 40.0303 30.48 40.0303 29.808C40.0303 29.1467 40.1156 28.5493 40.2863 28.016C40.4676 27.4827 40.7236 27.0293 41.0543 26.656C41.3849 26.272 41.7903 25.9787 42.2703 25.776C42.7503 25.5627 43.2943 25.456 43.9023 25.456C44.5529 25.456 45.1183 25.568 45.5983 25.792C46.0783 26.016 46.4729 26.32 46.7823 26.704C47.0916 27.088 47.3209 27.536 47.4703 28.048C47.6303 28.5493 47.7103 29.088 47.7103 29.664V30.336H42.1583V30.544C42.1583 31.152 42.3289 31.6427 42.6703 32.016C43.0116 32.3787 43.5183 32.56 44.1903 32.56C44.7023 32.56 45.1183 32.4533 45.4383 32.24C45.7689 32.0267 46.0623 31.7547 46.3183 31.424L47.4223 32.656C47.0809 33.136 46.6116 33.5147 46.0143 33.792C45.4276 34.0587 44.7449 34.192 43.9663 34.192ZM43.9343 26.992C43.3903 26.992 42.9583 27.1733 42.6383 27.536C42.3183 27.8987 42.1583 28.368 42.1583 28.944V29.072H45.5823V28.928C45.5823 28.352 45.4383 27.888 45.1503 27.536C44.8729 27.1733 44.4676 26.992 43.9343 26.992ZM49.5121 34V25.648H51.5601V27.04H51.6401C51.8001 26.6027 52.0561 26.2293 52.4081 25.92C52.7601 25.6107 53.2508 25.456 53.8801 25.456C54.4561 25.456 54.9521 25.5947 55.3681 25.872C55.7841 26.1493 56.0935 26.5707 56.2961 27.136H56.3281C56.4775 26.6667 56.7708 26.272 57.2081 25.952C57.6561 25.6213 58.2161 25.456 58.8881 25.456C59.7095 25.456 60.3388 25.7387 60.7761 26.304C61.2241 26.8693 61.4481 27.6747 61.4481 28.72V34H59.4001V28.928C59.4001 27.7333 58.9521 27.136 58.0561 27.136C57.8535 27.136 57.6561 27.168 57.4641 27.232C57.2828 27.2853 57.1175 27.3707 56.9681 27.488C56.8295 27.5947 56.7175 27.7333 56.6321 27.904C56.5468 28.064 56.5041 28.256 56.5041 28.48V34H54.4561V28.928C54.4561 27.7333 54.0081 27.136 53.1121 27.136C52.9201 27.136 52.7281 27.168 52.5361 27.232C52.3548 27.2853 52.1895 27.3707 52.0401 27.488C51.9015 27.5947 51.7841 27.7333 51.6881 27.904C51.6028 28.064 51.5601 28.256 51.5601 28.48V34H49.5121ZM68.5205 24.432C68.0938 24.432 67.7845 24.336 67.5925 24.144C67.4112 23.952 67.3205 23.7067 67.3205 23.408V23.088C67.3205 22.7893 67.4112 22.544 67.5925 22.352C67.7845 22.16 68.0938 22.064 68.5205 22.064C68.9365 22.064 69.2405 22.16 69.4325 22.352C69.6245 22.544 69.7205 22.7893 69.7205 23.088V23.408C69.7205 23.7067 69.6245 23.952 69.4325 24.144C69.2405 24.336 68.9365 24.432 68.5205 24.432ZM67.4965 25.648H69.5445V34H67.4965V25.648ZM71.9184 25.648H73.9664V27.024H74.0304C74.1797 26.544 74.4624 26.1653 74.8784 25.888C75.2944 25.6 75.7797 25.456 76.3344 25.456C77.401 25.456 78.2117 25.8347 78.7664 26.592C79.3317 27.3387 79.6144 28.4107 79.6144 29.808C79.6144 31.216 79.3317 32.2987 78.7664 33.056C78.2117 33.8133 77.401 34.192 76.3344 34.192C75.7797 34.192 75.2944 34.048 74.8784 33.76C74.473 33.472 74.1904 33.088 74.0304 32.608H73.9664V37.2H71.9184V25.648ZM75.6784 32.496C76.2117 32.496 76.6437 32.32 76.9744 31.968C77.305 31.616 77.4704 31.1413 77.4704 30.544V29.104C77.4704 28.5067 77.305 28.032 76.9744 27.68C76.6437 27.3173 76.2117 27.136 75.6784 27.136C75.1877 27.136 74.777 27.2587 74.4464 27.504C74.1264 27.7493 73.9664 28.0747 73.9664 28.48V31.136C73.9664 31.5733 74.1264 31.9093 74.4464 32.144C74.777 32.3787 75.1877 32.496 75.6784 32.496ZM84.2481 34.192C83.4481 34.192 82.7761 34.0587 82.2321 33.792C81.6881 33.5147 81.2081 33.136 80.7921 32.656L82.0401 31.44C82.3495 31.792 82.6855 32.0693 83.0481 32.272C83.4215 32.4747 83.8481 32.576 84.3281 32.576C84.8188 32.576 85.1708 32.4907 85.3841 32.32C85.6081 32.1493 85.7201 31.9147 85.7201 31.616C85.7201 31.3707 85.6401 31.1787 85.4801 31.04C85.3308 30.8907 85.0695 30.7893 84.6961 30.736L83.8641 30.624C82.9575 30.5067 82.2641 30.2507 81.7841 29.856C81.3148 29.4507 81.0801 28.864 81.0801 28.096C81.0801 27.6907 81.1548 27.328 81.3041 27.008C81.4535 26.6773 81.6668 26.4 81.9441 26.176C82.2215 25.9413 82.5521 25.7653 82.9361 25.648C83.3308 25.52 83.7681 25.456 84.2481 25.456C84.6535 25.456 85.0108 25.488 85.3201 25.552C85.6401 25.6053 85.9281 25.6907 86.1841 25.808C86.4401 25.9147 86.6748 26.0533 86.8881 26.224C87.1015 26.384 87.3095 26.5653 87.5121 26.768L86.3121 27.968C86.0668 27.712 85.7735 27.4987 85.4321 27.328C85.0908 27.1573 84.7175 27.072 84.3121 27.072C83.8641 27.072 83.5388 27.152 83.3361 27.312C83.1441 27.472 83.0481 27.68 83.0481 27.936C83.0481 28.2133 83.1281 28.4267 83.2881 28.576C83.4588 28.7147 83.7415 28.816 84.1361 28.88L84.9841 28.992C86.7868 29.248 87.6881 30.0693 87.6881 31.456C87.6881 31.8613 87.6028 32.2347 87.4321 32.576C87.2721 32.9067 87.0428 33.1947 86.7441 33.44C86.4455 33.6747 86.0828 33.8613 85.6561 34C85.2401 34.128 84.7708 34.192 84.2481 34.192ZM94.4885 32.608H94.4085C94.3338 32.8213 94.2325 33.024 94.1045 33.216C93.9872 33.3973 93.8325 33.5627 93.6405 33.712C93.4592 33.8613 93.2352 33.9787 92.9685 34.064C92.7125 34.1493 92.4138 34.192 92.0725 34.192C91.2085 34.192 90.5472 33.9093 90.0885 33.344C89.6298 32.7787 89.4005 31.9733 89.4005 30.928V25.648H91.4485V30.72C91.4485 31.296 91.5605 31.7387 91.7845 32.048C92.0085 32.3467 92.3658 32.496 92.8565 32.496C93.0592 32.496 93.2565 32.4693 93.4485 32.416C93.6512 32.3627 93.8272 32.2827 93.9765 32.176C94.1258 32.0587 94.2485 31.92 94.3445 31.76C94.4405 31.5893 94.4885 31.392 94.4885 31.168V25.648H96.5365V34H94.4885V32.608ZM98.9028 34V25.648H100.951V27.04H101.031C101.191 26.6027 101.447 26.2293 101.799 25.92C102.151 25.6107 102.641 25.456 103.271 25.456C103.847 25.456 104.343 25.5947 104.759 25.872C105.175 26.1493 105.484 26.5707 105.687 27.136H105.719C105.868 26.6667 106.161 26.272 106.599 25.952C107.047 25.6213 107.607 25.456 108.279 25.456C109.1 25.456 109.729 25.7387 110.167 26.304C110.615 26.8693 110.839 27.6747 110.839 28.72V34H108.791V28.928C108.791 27.7333 108.343 27.136 107.447 27.136C107.244 27.136 107.047 27.168 106.855 27.232C106.673 27.2853 106.508 27.3707 106.359 27.488C106.22 27.5947 106.108 27.7333 106.023 27.904C105.937 28.064 105.895 28.256 105.895 28.48V34H103.847V28.928C103.847 27.7333 103.399 27.136 102.503 27.136C102.311 27.136 102.119 27.168 101.927 27.232C101.745 27.2853 101.58 27.3707 101.431 27.488C101.292 27.5947 101.175 27.7333 101.079 27.904C100.993 28.064 100.951 28.256 100.951 28.48V34H98.9028ZM122.071 32.608H121.991C121.842 33.088 121.559 33.472 121.143 33.76C120.727 34.048 120.242 34.192 119.687 34.192C118.631 34.192 117.82 33.8133 117.255 33.056C116.7 32.2987 116.423 31.216 116.423 29.808C116.423 28.4107 116.7 27.3387 117.255 26.592C117.82 25.8347 118.631 25.456 119.687 25.456C120.242 25.456 120.727 25.6 121.143 25.888C121.559 26.1653 121.842 26.544 121.991 27.024H122.071V22.16H124.119V34H122.071V32.608ZM120.343 32.496C120.834 32.496 121.244 32.3787 121.575 32.144C121.906 31.9093 122.071 31.5733 122.071 31.136V28.48C122.071 28.0747 121.906 27.7493 121.575 27.504C121.244 27.2587 120.834 27.136 120.343 27.136C119.81 27.136 119.378 27.3173 119.047 27.68C118.727 28.032 118.567 28.5067 118.567 29.104V30.544C118.567 31.1413 118.727 31.616 119.047 31.968C119.378 32.32 119.81 32.496 120.343 32.496ZM129.793 34.192C129.196 34.192 128.657 34.0907 128.177 33.888C127.708 33.6853 127.302 33.392 126.961 33.008C126.63 32.624 126.374 32.1653 126.193 31.632C126.012 31.088 125.921 30.48 125.921 29.808C125.921 29.136 126.012 28.5333 126.193 28C126.374 27.4667 126.63 27.0133 126.961 26.64C127.302 26.256 127.708 25.9627 128.177 25.76C128.657 25.5573 129.196 25.456 129.793 25.456C130.39 25.456 130.929 25.5573 131.409 25.76C131.889 25.9627 132.294 26.256 132.625 26.64C132.966 27.0133 133.228 27.4667 133.409 28C133.59 28.5333 133.681 29.136 133.681 29.808C133.681 30.48 133.59 31.088 133.409 31.632C133.228 32.1653 132.966 32.624 132.625 33.008C132.294 33.392 131.889 33.6853 131.409 33.888C130.929 34.0907 130.39 34.192 129.793 34.192ZM129.793 32.544C130.337 32.544 130.764 32.3787 131.073 32.048C131.382 31.7173 131.537 31.232 131.537 30.592V29.04C131.537 28.4107 131.382 27.9307 131.073 27.6C130.764 27.2693 130.337 27.104 129.793 27.104C129.26 27.104 128.838 27.2693 128.529 27.6C128.22 27.9307 128.065 28.4107 128.065 29.04V30.592C128.065 31.232 128.22 31.7173 128.529 32.048C128.838 32.3787 129.26 32.544 129.793 32.544ZM137.545 34C136.841 34 136.323 33.824 135.993 33.472C135.662 33.12 135.497 32.624 135.497 31.984V22.16H137.545V32.368H138.649V34H137.545ZM143.512 34.192C142.914 34.192 142.376 34.0907 141.896 33.888C141.426 33.6853 141.021 33.392 140.68 33.008C140.349 32.624 140.093 32.1653 139.912 31.632C139.73 31.088 139.64 30.48 139.64 29.808C139.64 29.136 139.73 28.5333 139.912 28C140.093 27.4667 140.349 27.0133 140.68 26.64C141.021 26.256 141.426 25.9627 141.896 25.76C142.376 25.5573 142.914 25.456 143.512 25.456C144.109 25.456 144.648 25.5573 145.128 25.76C145.608 25.9627 146.013 26.256 146.344 26.64C146.685 27.0133 146.946 27.4667 147.128 28C147.309 28.5333 147.4 29.136 147.4 29.808C147.4 30.48 147.309 31.088 147.128 31.632C146.946 32.1653 146.685 32.624 146.344 33.008C146.013 33.392 145.608 33.6853 145.128 33.888C144.648 34.0907 144.109 34.192 143.512 34.192ZM143.512 32.544C144.056 32.544 144.482 32.3787 144.792 32.048C145.101 31.7173 145.256 31.232 145.256 30.592V29.04C145.256 28.4107 145.101 27.9307 144.792 27.6C144.482 27.2693 144.056 27.104 143.512 27.104C142.978 27.104 142.557 27.2693 142.248 27.6C141.938 27.9307 141.784 28.4107 141.784 29.04V30.592C141.784 31.232 141.938 31.7173 142.248 32.048C142.557 32.3787 142.978 32.544 143.512 32.544ZM149.215 34V25.648H151.263V27.376H151.343C151.397 27.152 151.477 26.9387 151.583 26.736C151.701 26.5227 151.85 26.336 152.031 26.176C152.213 26.016 152.426 25.888 152.671 25.792C152.927 25.696 153.221 25.648 153.551 25.648H153.999V27.584H153.359C152.666 27.584 152.143 27.6853 151.791 27.888C151.439 28.0907 151.263 28.4213 151.263 28.88V34H149.215ZM162.014 34.192C161.214 34.192 160.542 34.0587 159.998 33.792C159.454 33.5147 158.974 33.136 158.558 32.656L159.806 31.44C160.115 31.792 160.451 32.0693 160.814 32.272C161.187 32.4747 161.614 32.576 162.094 32.576C162.584 32.576 162.936 32.4907 163.15 32.32C163.374 32.1493 163.486 31.9147 163.486 31.616C163.486 31.3707 163.406 31.1787 163.246 31.04C163.096 30.8907 162.835 30.7893 162.462 30.736L161.63 30.624C160.723 30.5067 160.03 30.2507 159.55 29.856C159.08 29.4507 158.846 28.864 158.846 28.096C158.846 27.6907 158.92 27.328 159.07 27.008C159.219 26.6773 159.432 26.4 159.71 26.176C159.987 25.9413 160.318 25.7653 160.702 25.648C161.096 25.52 161.534 25.456 162.014 25.456C162.419 25.456 162.776 25.488 163.086 25.552C163.406 25.6053 163.694 25.6907 163.95 25.808C164.206 25.9147 164.44 26.0533 164.654 26.224C164.867 26.384 165.075 26.5653 165.278 26.768L164.078 27.968C163.832 27.712 163.539 27.4987 163.198 27.328C162.856 27.1573 162.483 27.072 162.078 27.072C161.63 27.072 161.304 27.152 161.102 27.312C160.91 27.472 160.814 27.68 160.814 27.936C160.814 28.2133 160.894 28.4267 161.054 28.576C161.224 28.7147 161.507 28.816 161.902 28.88L162.75 28.992C164.552 29.248 165.454 30.0693 165.454 31.456C165.454 31.8613 165.368 32.2347 165.198 32.576C165.038 32.9067 164.808 33.1947 164.51 33.44C164.211 33.6747 163.848 33.8613 163.422 34C163.006 34.128 162.536 34.192 162.014 34.192ZM168.286 24.432C167.859 24.432 167.55 24.336 167.358 24.144C167.177 23.952 167.086 23.7067 167.086 23.408V23.088C167.086 22.7893 167.177 22.544 167.358 22.352C167.55 22.16 167.859 22.064 168.286 22.064C168.702 22.064 169.006 22.16 169.198 22.352C169.39 22.544 169.486 22.7893 169.486 23.088V23.408C169.486 23.7067 169.39 23.952 169.198 24.144C169.006 24.336 168.702 24.432 168.286 24.432ZM167.262 25.648H169.31V34H167.262V25.648ZM174.292 34C173.588 34 173.049 33.8187 172.676 33.456C172.313 33.0827 172.132 32.5547 172.132 31.872V27.28H170.9V25.648H171.54C171.849 25.648 172.057 25.5787 172.164 25.44C172.281 25.2907 172.34 25.072 172.34 24.784V23.36H174.18V25.648H175.892V27.28H174.18V32.368H175.764V34H174.292ZM187.594 34C187.146 34 186.788 33.872 186.522 33.616C186.266 33.3493 186.106 32.9973 186.042 32.56H185.946C185.807 33.104 185.524 33.5147 185.098 33.792C184.671 34.0587 184.143 34.192 183.514 34.192C182.66 34.192 182.004 33.968 181.546 33.52C181.087 33.072 180.858 32.4747 180.858 31.728C180.858 30.864 181.167 30.224 181.786 29.808C182.404 29.3813 183.284 29.168 184.426 29.168H185.85V28.56C185.85 28.0907 185.727 27.728 185.482 27.472C185.236 27.216 184.842 27.088 184.298 27.088C183.818 27.088 183.428 27.1947 183.13 27.408C182.842 27.6107 182.596 27.856 182.394 28.144L181.178 27.056C181.487 26.576 181.898 26.192 182.41 25.904C182.922 25.6053 183.599 25.456 184.442 25.456C185.572 25.456 186.431 25.712 187.018 26.224C187.604 26.736 187.898 27.472 187.898 28.432V32.368H188.73V34H187.594ZM184.202 32.704C184.66 32.704 185.05 32.6027 185.37 32.4C185.69 32.1973 185.85 31.8987 185.85 31.504V30.4H184.538C183.471 30.4 182.938 30.7413 182.938 31.424V31.696C182.938 32.0373 183.044 32.2933 183.258 32.464C183.482 32.624 183.796 32.704 184.202 32.704ZM190.387 34V25.648H192.435V27.04H192.515C192.675 26.6027 192.931 26.2293 193.283 25.92C193.635 25.6107 194.126 25.456 194.755 25.456C195.331 25.456 195.827 25.5947 196.243 25.872C196.659 26.1493 196.968 26.5707 197.171 27.136H197.203C197.352 26.6667 197.646 26.272 198.083 25.952C198.531 25.6213 199.091 25.456 199.763 25.456C200.584 25.456 201.214 25.7387 201.651 26.304C202.099 26.8693 202.323 27.6747 202.323 28.72V34H200.275V28.928C200.275 27.7333 199.827 27.136 198.931 27.136C198.728 27.136 198.531 27.168 198.339 27.232C198.158 27.2853 197.992 27.3707 197.843 27.488C197.704 27.5947 197.592 27.7333 197.507 27.904C197.422 28.064 197.379 28.256 197.379 28.48V34H195.331V28.928C195.331 27.7333 194.883 27.136 193.987 27.136C193.795 27.136 193.603 27.168 193.411 27.232C193.23 27.2853 193.064 27.3707 192.915 27.488C192.776 27.5947 192.659 27.7333 192.563 27.904C192.478 28.064 192.435 28.256 192.435 28.48V34H190.387ZM207.966 34.192C207.348 34.192 206.793 34.0907 206.302 33.888C205.822 33.6747 205.412 33.3813 205.07 33.008C204.74 32.624 204.484 32.1653 204.302 31.632C204.121 31.088 204.03 30.48 204.03 29.808C204.03 29.1467 204.116 28.5493 204.286 28.016C204.468 27.4827 204.724 27.0293 205.054 26.656C205.385 26.272 205.79 25.9787 206.27 25.776C206.75 25.5627 207.294 25.456 207.902 25.456C208.553 25.456 209.118 25.568 209.598 25.792C210.078 26.016 210.473 26.32 210.782 26.704C211.092 27.088 211.321 27.536 211.47 28.048C211.63 28.5493 211.71 29.088 211.71 29.664V30.336H206.158V30.544C206.158 31.152 206.329 31.6427 206.67 32.016C207.012 32.3787 207.518 32.56 208.19 32.56C208.702 32.56 209.118 32.4533 209.438 32.24C209.769 32.0267 210.062 31.7547 210.318 31.424L211.422 32.656C211.081 33.136 210.612 33.5147 210.014 33.792C209.428 34.0587 208.745 34.192 207.966 34.192ZM207.934 26.992C207.39 26.992 206.958 27.1733 206.638 27.536C206.318 27.8987 206.158 28.368 206.158 28.944V29.072H209.582V28.928C209.582 28.352 209.438 27.888 209.15 27.536C208.873 27.1733 208.468 26.992 207.934 26.992ZM216.12 34C215.416 34 214.877 33.8187 214.504 33.456C214.141 33.0827 213.96 32.5547 213.96 31.872V27.28H212.728V25.648H213.368C213.677 25.648 213.885 25.5787 213.992 25.44C214.109 25.2907 214.168 25.072 214.168 24.784V23.36H216.008V25.648H217.72V27.28H216.008V32.368H217.592V34H216.12Z" fill="black"/>
<path d="M59.488 72V60.832H63.936C64.9387 60.832 65.7067 61.12 66.24 61.696C66.784 62.2613 67.056 63.04 67.056 64.032C67.056 65.024 66.784 65.808 66.24 66.384C65.7067 66.9493 64.9387 67.232 63.936 67.232H60.832V72H59.488ZM60.832 66.048H63.936C64.4693 66.048 64.88 65.9093 65.168 65.632C65.4667 65.3547 65.616 64.96 65.616 64.448V63.616C65.616 63.104 65.4667 62.7093 65.168 62.432C64.88 62.1547 64.4693 62.016 63.936 62.016H60.832V66.048ZM68.9069 72V63.744H70.1869V65.264H70.2669C70.4162 64.8693 70.6829 64.5173 71.0669 64.208C71.4509 63.8987 71.9789 63.744 72.6509 63.744H73.1469V65.024H72.3949C71.7015 65.024 71.1575 65.1573 70.7629 65.424C70.3789 65.68 70.1869 66.0053 70.1869 66.4V72H68.9069ZM75.4219 61.808C75.1445 61.808 74.9419 61.744 74.8139 61.616C74.6965 61.4773 74.6379 61.3013 74.6379 61.088V60.88C74.6379 60.6667 74.6965 60.496 74.8139 60.368C74.9419 60.2293 75.1445 60.16 75.4219 60.16C75.6992 60.16 75.8965 60.2293 76.0139 60.368C76.1419 60.496 76.2059 60.6667 76.2059 60.88V61.088C76.2059 61.3013 76.1419 61.4773 76.0139 61.616C75.8965 61.744 75.6992 61.808 75.4219 61.808ZM74.7819 63.744H76.0619V72H74.7819V63.744ZM80.6059 72L77.7099 63.744H78.9899L80.4299 67.84L81.3259 70.656H81.4059L82.3019 67.84L83.7739 63.744H85.0059L82.0939 72H80.6059ZM92.5163 72C92.0363 72 91.6896 71.872 91.4763 71.616C91.2736 71.36 91.1456 71.04 91.0923 70.656H91.0123C90.8309 71.168 90.5323 71.552 90.1163 71.808C89.7003 72.064 89.2043 72.192 88.6283 72.192C87.7536 72.192 87.0709 71.968 86.5803 71.52C86.1003 71.072 85.8603 70.464 85.8603 69.696C85.8603 68.9173 86.1429 68.32 86.7083 67.904C87.2843 67.488 88.1749 67.28 89.3802 67.28H91.0123V66.464C91.0123 65.8773 90.8523 65.4293 90.5323 65.12C90.2123 64.8107 89.7216 64.656 89.0603 64.656C88.5589 64.656 88.1376 64.768 87.7963 64.992C87.4656 65.216 87.1883 65.5147 86.9643 65.888L86.1963 65.168C86.4203 64.72 86.7776 64.3413 87.2682 64.032C87.7589 63.712 88.3776 63.552 89.1243 63.552C90.1269 63.552 90.9056 63.7973 91.4603 64.288C92.0149 64.7787 92.2923 65.4613 92.2923 66.336V70.88H93.2362V72H92.5163ZM88.8363 71.104C89.1563 71.104 89.4496 71.0667 89.7163 70.992C89.9829 70.9173 90.2123 70.8107 90.4043 70.672C90.5963 70.5333 90.7456 70.3733 90.8523 70.192C90.9589 70.0107 91.0123 69.8133 91.0123 69.6V68.24H89.3163C88.5803 68.24 88.0416 68.3467 87.7003 68.56C87.3696 68.7733 87.2043 69.0827 87.2043 69.488V69.824C87.2043 70.2293 87.3483 70.544 87.6363 70.768C87.9349 70.992 88.3349 71.104 88.8363 71.104ZM96.8871 72C96.4391 72 96.0978 71.8773 95.8631 71.632C95.6391 71.376 95.5271 71.0453 95.5271 70.64V64.864H94.1671V63.744H94.9351C95.2125 63.744 95.3991 63.6907 95.4951 63.584C95.6018 63.4667 95.6551 63.2693 95.6551 62.992V61.456H96.8071V63.744H98.6151V64.864H96.8071V70.88H98.4871V72H96.8871ZM100.673 63.744H101.953V65.088H102.017C102.23 64.5653 102.539 64.1813 102.945 63.936C103.361 63.68 103.857 63.552 104.433 63.552C104.945 63.552 105.409 63.6533 105.825 63.856C106.241 64.0587 106.593 64.3467 106.881 64.72C107.179 65.0933 107.403 65.5467 107.553 66.08C107.713 66.6133 107.793 67.2107 107.793 67.872C107.793 68.5333 107.713 69.1307 107.553 69.664C107.403 70.1973 107.179 70.6507 106.881 71.024C106.593 71.3973 106.241 71.6853 105.825 71.888C105.409 72.0907 104.945 72.192 104.433 72.192C103.313 72.192 102.507 71.68 102.017 70.656H101.953V75.2H100.673V63.744ZM104.081 71.04C104.806 71.04 105.377 70.816 105.793 70.368C106.209 69.9093 106.417 69.312 106.417 68.576V67.168C106.417 66.432 106.209 65.84 105.793 65.392C105.377 64.9333 104.806 64.704 104.081 64.704C103.793 64.704 103.515 64.7467 103.249 64.832C102.993 64.9067 102.769 65.0133 102.577 65.152C102.385 65.2907 102.23 65.4613 102.113 65.664C102.006 65.856 101.953 66.064 101.953 66.288V69.36C101.953 69.6267 102.006 69.8667 102.113 70.08C102.23 70.2827 102.385 70.4587 102.577 70.608C102.769 70.7467 102.993 70.8533 103.249 70.928C103.515 71.0027 103.793 71.04 104.081 71.04ZM113.058 72.192C112.492 72.192 111.98 72.0907 111.522 71.888C111.074 71.6853 110.684 71.3973 110.354 71.024C110.034 70.64 109.783 70.1867 109.602 69.664C109.431 69.1307 109.346 68.5333 109.346 67.872C109.346 67.2213 109.431 66.6293 109.602 66.096C109.783 65.5627 110.034 65.1093 110.354 64.736C110.684 64.352 111.074 64.0587 111.522 63.856C111.98 63.6533 112.492 63.552 113.058 63.552C113.612 63.552 114.108 63.6533 114.546 63.856C114.983 64.0587 115.356 64.3413 115.666 64.704C115.975 65.056 116.21 65.4773 116.37 65.968C116.54 66.4587 116.626 66.9973 116.626 67.584V68.192H110.69V68.576C110.69 68.928 110.743 69.2587 110.85 69.568C110.967 69.8667 111.127 70.128 111.33 70.352C111.543 70.576 111.799 70.752 112.098 70.88C112.407 71.008 112.754 71.072 113.138 71.072C113.66 71.072 114.114 70.9493 114.498 70.704C114.892 70.4587 115.196 70.1067 115.41 69.648L116.322 70.304C116.055 70.8693 115.639 71.328 115.074 71.68C114.508 72.0213 113.836 72.192 113.058 72.192ZM113.058 64.624C112.706 64.624 112.386 64.688 112.098 64.816C111.81 64.9333 111.559 65.104 111.346 65.328C111.143 65.552 110.983 65.8187 110.866 66.128C110.748 66.4267 110.69 66.7573 110.69 67.12V67.232H115.25V67.056C115.25 66.32 115.047 65.7333 114.642 65.296C114.247 64.848 113.719 64.624 113.058 64.624ZM118.735 72V63.744H120.015V65.264H120.095C120.244 64.8693 120.511 64.5173 120.895 64.208C121.279 63.8987 121.807 63.744 122.479 63.744H122.975V65.024H122.223C121.53 65.024 120.986 65.1573 120.591 65.424C120.207 65.68 120.015 66.0053 120.015 66.4V72H118.735ZM127.09 72.192C126.322 72.192 125.677 72.048 125.154 71.76C124.642 71.4613 124.199 71.0667 123.826 70.576L124.738 69.84C125.058 70.2453 125.415 70.56 125.81 70.784C126.205 70.9973 126.663 71.104 127.186 71.104C127.73 71.104 128.151 70.9867 128.45 70.752C128.759 70.5173 128.914 70.1867 128.914 69.76C128.914 69.44 128.807 69.168 128.594 68.944C128.391 68.7093 128.018 68.5493 127.474 68.464L126.818 68.368C126.434 68.3147 126.082 68.2347 125.762 68.128C125.442 68.0107 125.159 67.8613 124.914 67.68C124.679 67.488 124.493 67.2533 124.354 66.976C124.226 66.6987 124.162 66.368 124.162 65.984C124.162 65.5787 124.237 65.2267 124.386 64.928C124.535 64.6187 124.738 64.3627 124.994 64.16C125.261 63.9573 125.575 63.808 125.938 63.712C126.301 63.6053 126.69 63.552 127.106 63.552C127.778 63.552 128.338 63.6693 128.786 63.904C129.245 64.1387 129.645 64.464 129.986 64.88L129.138 65.648C128.957 65.392 128.69 65.1627 128.338 64.96C127.986 64.7467 127.543 64.64 127.01 64.64C126.477 64.64 126.071 64.7573 125.794 64.992C125.527 65.216 125.394 65.5253 125.394 65.92C125.394 66.3253 125.527 66.6187 125.794 66.8C126.071 66.9813 126.466 67.1147 126.978 67.2L127.618 67.296C128.535 67.4347 129.186 67.7013 129.57 68.096C129.954 68.48 130.146 68.9867 130.146 69.616C130.146 70.416 129.874 71.0453 129.33 71.504C128.786 71.9627 128.039 72.192 127.09 72.192ZM135.527 72.192C134.972 72.192 134.466 72.0907 134.007 71.888C133.548 71.6853 133.154 71.3973 132.823 71.024C132.503 70.64 132.252 70.1867 132.071 69.664C131.89 69.1307 131.799 68.5333 131.799 67.872C131.799 67.2213 131.89 66.6293 132.071 66.096C132.252 65.5627 132.503 65.1093 132.823 64.736C133.154 64.352 133.548 64.0587 134.007 63.856C134.466 63.6533 134.972 63.552 135.527 63.552C136.082 63.552 136.583 63.6533 137.031 63.856C137.49 64.0587 137.884 64.352 138.215 64.736C138.546 65.1093 138.802 65.5627 138.983 66.096C139.164 66.6293 139.255 67.2213 139.255 67.872C139.255 68.5333 139.164 69.1307 138.983 69.664C138.802 70.1867 138.546 70.64 138.215 71.024C137.884 71.3973 137.49 71.6853 137.031 71.888C136.583 72.0907 136.082 72.192 135.527 72.192ZM135.527 71.056C136.22 71.056 136.786 70.8427 137.223 70.416C137.66 69.9893 137.879 69.3387 137.879 68.464V67.28C137.879 66.4053 137.66 65.7547 137.223 65.328C136.786 64.9013 136.22 64.688 135.527 64.688C134.834 64.688 134.268 64.9013 133.831 65.328C133.394 65.7547 133.175 66.4053 133.175 67.28V68.464C133.175 69.3387 133.394 69.9893 133.831 70.416C134.268 70.8427 134.834 71.056 135.527 71.056ZM141.36 72V63.744H142.64V65.088H142.704C142.907 64.6187 143.189 64.2453 143.552 63.968C143.925 63.6907 144.421 63.552 145.04 63.552C145.893 63.552 146.565 63.8293 147.056 64.384C147.557 64.928 147.808 65.7013 147.808 66.704V72H146.528V66.928C146.528 65.4453 145.904 64.704 144.656 64.704C144.4 64.704 144.149 64.736 143.904 64.8C143.669 64.864 143.456 64.96 143.264 65.088C143.072 65.216 142.917 65.3813 142.8 65.584C142.693 65.776 142.64 66.0053 142.64 66.272V72H141.36Z" fill="#1A1A1A"/>
<rect x="17" y="52" width="32" height="32" rx="1" fill="white" stroke="#1A1A1A" stroke-width="2"/>
<path d="M62.032 116L58.32 104.832H59.76L61.6 110.464L62.832 114.656H62.912L64.176 110.464L66.032 104.832H67.424L63.664 116H62.032ZM69.75 105.808C69.4727 105.808 69.27 105.744 69.142 105.616C69.0247 105.477 68.966 105.301 68.966 105.088V104.88C68.966 104.667 69.0247 104.496 69.142 104.368C69.27 104.229 69.4727 104.16 69.75 104.16C70.0273 104.16 70.2247 104.229 70.342 104.368C70.47 104.496 70.534 104.667 70.534 104.88V105.088C70.534 105.301 70.47 105.477 70.342 105.616C70.2247 105.744 70.0273 105.808 69.75 105.808ZM69.11 107.744H70.39V116H69.11V107.744ZM73.11 116V107.744H74.39V109.264H74.47C74.6193 108.869 74.886 108.517 75.27 108.208C75.654 107.899 76.182 107.744 76.854 107.744H77.35V109.024H76.598C75.9047 109.024 75.3607 109.157 74.966 109.424C74.582 109.68 74.39 110.005 74.39 110.4V116H73.11ZM78.985 104.16H80.265V111.664H80.329L81.593 110.256L83.929 107.744H85.481L82.425 111.008L85.785 116H84.233L81.497 111.792L80.265 113.056V116H78.985V104.16ZM89.7463 116.192C88.9783 116.192 88.3329 116.048 87.8103 115.76C87.2983 115.461 86.8556 115.067 86.4823 114.576L87.3943 113.84C87.7143 114.245 88.0716 114.56 88.4663 114.784C88.8609 114.997 89.3196 115.104 89.8423 115.104C90.3863 115.104 90.8076 114.987 91.1063 114.752C91.4156 114.517 91.5703 114.187 91.5703 113.76C91.5703 113.44 91.4636 113.168 91.2503 112.944C91.0476 112.709 90.6743 112.549 90.1302 112.464L89.4743 112.368C89.0903 112.315 88.7383 112.235 88.4183 112.128C88.0983 112.011 87.8156 111.861 87.5703 111.68C87.3356 111.488 87.1489 111.253 87.0103 110.976C86.8823 110.699 86.8183 110.368 86.8183 109.984C86.8183 109.579 86.8929 109.227 87.0423 108.928C87.1916 108.619 87.3943 108.363 87.6503 108.16C87.9169 107.957 88.2316 107.808 88.5943 107.712C88.9569 107.605 89.3463 107.552 89.7623 107.552C90.4343 107.552 90.9943 107.669 91.4423 107.904C91.9009 108.139 92.3009 108.464 92.6423 108.88L91.7943 109.648C91.6129 109.392 91.3463 109.163 90.9943 108.96C90.6423 108.747 90.1996 108.64 89.6663 108.64C89.1329 108.64 88.7276 108.757 88.4503 108.992C88.1836 109.216 88.0503 109.525 88.0503 109.92C88.0503 110.325 88.1836 110.619 88.4503 110.8C88.7276 110.981 89.1223 111.115 89.6343 111.2L90.2743 111.296C91.1916 111.435 91.8423 111.701 92.2263 112.096C92.6103 112.48 92.8023 112.987 92.8023 113.616C92.8023 114.416 92.5303 115.045 91.9863 115.504C91.4423 115.963 90.6956 116.192 89.7463 116.192ZM98.1831 116.192C97.6285 116.192 97.1218 116.091 96.6631 115.888C96.2045 115.685 95.8098 115.397 95.4791 115.024C95.1591 114.64 94.9085 114.187 94.7271 113.664C94.5458 113.131 94.4551 112.533 94.4551 111.872C94.4551 111.221 94.5458 110.629 94.7271 110.096C94.9085 109.563 95.1591 109.109 95.4791 108.736C95.8098 108.352 96.2045 108.059 96.6631 107.856C97.1218 107.653 97.6285 107.552 98.1831 107.552C98.7378 107.552 99.2391 107.653 99.6871 107.856C100.146 108.059 100.54 108.352 100.871 108.736C101.202 109.109 101.458 109.563 101.639 110.096C101.82 110.629 101.911 111.221 101.911 111.872C101.911 112.533 101.82 113.131 101.639 113.664C101.458 114.187 101.202 114.64 100.871 115.024C100.54 115.397 100.146 115.685 99.6871 115.888C99.2391 116.091 98.7378 116.192 98.1831 116.192ZM98.1831 115.056C98.8765 115.056 99.4418 114.843 99.8791 114.416C100.316 113.989 100.535 113.339 100.535 112.464V111.28C100.535 110.405 100.316 109.755 99.8791 109.328C99.4418 108.901 98.8765 108.688 98.1831 108.688C97.4898 108.688 96.9245 108.901 96.4871 109.328C96.0498 109.755 95.8311 110.405 95.8311 111.28V112.464C95.8311 113.339 96.0498 113.989 96.4871 114.416C96.9245 114.843 97.4898 115.056 98.1831 115.056ZM104.016 116V107.744H105.296V109.088H105.36C105.456 108.875 105.563 108.677 105.68 108.496C105.808 108.304 105.958 108.139 106.128 108C106.31 107.861 106.518 107.755 106.752 107.68C106.987 107.595 107.264 107.552 107.584 107.552C108.128 107.552 108.63 107.685 109.088 107.952C109.547 108.208 109.888 108.635 110.112 109.232H110.144C110.294 108.784 110.571 108.395 110.976 108.064C111.392 107.723 111.952 107.552 112.656 107.552C113.499 107.552 114.155 107.829 114.624 108.384C115.104 108.928 115.344 109.701 115.344 110.704V116H114.064V110.928C114.064 110.192 113.92 109.637 113.632 109.264C113.344 108.891 112.886 108.704 112.256 108.704C112 108.704 111.755 108.736 111.52 108.8C111.296 108.864 111.094 108.96 110.912 109.088C110.731 109.216 110.587 109.381 110.48 109.584C110.374 109.776 110.32 110.005 110.32 110.272V116H109.04V110.928C109.04 110.192 108.896 109.637 108.608 109.264C108.32 108.891 107.872 108.704 107.264 108.704C107.008 108.704 106.763 108.736 106.528 108.8C106.294 108.864 106.086 108.96 105.904 109.088C105.723 109.216 105.574 109.381 105.456 109.584C105.35 109.776 105.296 110.005 105.296 110.272V116H104.016ZM117.985 104.16H119.265V109.088H119.329C119.532 108.619 119.814 108.245 120.177 107.968C120.55 107.691 121.046 107.552 121.665 107.552C122.518 107.552 123.19 107.829 123.681 108.384C124.182 108.928 124.433 109.701 124.433 110.704V116H123.153V110.928C123.153 109.445 122.529 108.704 121.281 108.704C121.025 108.704 120.774 108.736 120.529 108.8C120.294 108.864 120.081 108.96 119.889 109.088C119.697 109.216 119.542 109.381 119.425 109.584C119.318 109.776 119.265 110.005 119.265 110.272V116H117.985V104.16ZM130.183 116.192C129.617 116.192 129.105 116.091 128.647 115.888C128.199 115.685 127.809 115.397 127.479 115.024C127.159 114.64 126.908 114.187 126.727 113.664C126.556 113.131 126.471 112.533 126.471 111.872C126.471 111.221 126.556 110.629 126.727 110.096C126.908 109.563 127.159 109.109 127.479 108.736C127.809 108.352 128.199 108.059 128.647 107.856C129.105 107.653 129.617 107.552 130.183 107.552C130.737 107.552 131.233 107.653 131.671 107.856C132.108 108.059 132.481 108.341 132.791 108.704C133.1 109.056 133.335 109.477 133.495 109.968C133.665 110.459 133.751 110.997 133.751 111.584V112.192H127.815V112.576C127.815 112.928 127.868 113.259 127.975 113.568C128.092 113.867 128.252 114.128 128.455 114.352C128.668 114.576 128.924 114.752 129.223 114.88C129.532 115.008 129.879 115.072 130.263 115.072C130.785 115.072 131.239 114.949 131.623 114.704C132.017 114.459 132.321 114.107 132.535 113.648L133.447 114.304C133.18 114.869 132.764 115.328 132.199 115.68C131.633 116.021 130.961 116.192 130.183 116.192ZM130.183 108.624C129.831 108.624 129.511 108.688 129.223 108.816C128.935 108.933 128.684 109.104 128.471 109.328C128.268 109.552 128.108 109.819 127.991 110.128C127.873 110.427 127.815 110.757 127.815 111.12V111.232H132.375V111.056C132.375 110.32 132.172 109.733 131.767 109.296C131.372 108.848 130.844 108.624 130.183 108.624ZM141.14 114.656H141.076C140.575 115.68 139.769 116.192 138.66 116.192C138.148 116.192 137.684 116.091 137.268 115.888C136.852 115.685 136.495 115.397 136.196 115.024C135.908 114.651 135.684 114.197 135.524 113.664C135.375 113.131 135.3 112.533 135.3 111.872C135.3 111.211 135.375 110.613 135.524 110.08C135.684 109.547 135.908 109.093 136.196 108.72C136.495 108.347 136.852 108.059 137.268 107.856C137.684 107.653 138.148 107.552 138.66 107.552C139.236 107.552 139.727 107.68 140.132 107.936C140.548 108.181 140.863 108.565 141.076 109.088H141.14V104.16H142.42V116H141.14V114.656ZM139.012 115.04C139.3 115.04 139.572 115.003 139.828 114.928C140.095 114.853 140.324 114.747 140.516 114.608C140.708 114.459 140.857 114.283 140.964 114.08C141.081 113.867 141.14 113.627 141.14 113.36V110.288C141.14 110.064 141.081 109.856 140.964 109.664C140.857 109.461 140.708 109.291 140.516 109.152C140.324 109.013 140.095 108.907 139.828 108.832C139.572 108.747 139.3 108.704 139.012 108.704C138.287 108.704 137.716 108.933 137.3 109.392C136.884 109.84 136.676 110.432 136.676 111.168V112.576C136.676 113.312 136.884 113.909 137.3 114.368C137.716 114.816 138.287 115.04 139.012 115.04Z" fill="#1A1A1A"/>
<path d="M48 129H18C17.4696 129 16.9609 128.789 16.5858 128.414C16.2107 128.039 16 127.53 16 127V97C16 96.4696 16.2107 95.9609 16.5858 95.5858C16.9609 95.2107 17.4696 95 18 95H48C48.5304 95 49.0391 95.2107 49.4142 95.5858C49.7893 95.9609 50 96.4696 50 97V127C50 127.53 49.7893 128.039 49.4142 128.414C49.0391 128.789 48.5304 129 48 129ZM23 109.26L20.331 111.932L29.924 121.525L45.669 105.78L43 103.109L29.924 116.182L23 109.26Z" fill="#1A1A1A"/>
</g>
<defs>
<clipPath id="clip0_5010_49112">
<rect width="418" height="280" fill="white"/>
</clipPath>
</defs>
</svg>
