<svg width="418" height="290" viewBox="0 0 418 290" fill="none" xmlns="http://www.w3.org/2000/svg">
<rect width="418" height="290" fill="white"/>
<path d="M20.512 119.272L19.36 116.952H19.312V125H17.312V113.832H19.632L22.992 119.56L24.144 121.88H24.192V113.832H26.192V125H23.872L20.512 119.272ZM32.06 125.192C31.4413 125.192 30.8867 125.091 30.396 124.888C29.916 124.675 29.5053 124.381 29.164 124.008C28.8333 123.624 28.5773 123.165 28.396 122.632C28.2147 122.088 28.124 121.48 28.124 120.808C28.124 120.147 28.2093 119.549 28.38 119.016C28.5613 118.483 28.8173 118.029 29.148 117.656C29.4787 117.272 29.884 116.979 30.364 116.776C30.844 116.563 31.388 116.456 31.996 116.456C32.6467 116.456 33.212 116.568 33.692 116.792C34.172 117.016 34.5667 117.32 34.876 117.704C35.1853 118.088 35.4147 118.536 35.564 119.048C35.724 119.549 35.804 120.088 35.804 120.664V121.336H30.252V121.544C30.252 122.152 30.4227 122.643 30.764 123.016C31.1053 123.379 31.612 123.56 32.284 123.56C32.796 123.56 33.212 123.453 33.532 123.24C33.8627 123.027 34.156 122.755 34.412 122.424L35.516 123.656C35.1747 124.136 34.7053 124.515 34.108 124.792C33.5213 125.059 32.8387 125.192 32.06 125.192ZM32.028 117.992C31.484 117.992 31.052 118.173 30.732 118.536C30.412 118.899 30.252 119.368 30.252 119.944V120.072H33.676V119.928C33.676 119.352 33.532 118.888 33.244 118.536C32.9667 118.173 32.5613 117.992 32.028 117.992ZM40.2139 125C39.5099 125 38.9712 124.819 38.5979 124.456C38.2352 124.083 38.0539 123.555 38.0539 122.872V118.28H36.8219V116.648H37.4619C37.7712 116.648 37.9792 116.579 38.0859 116.44C38.2032 116.291 38.2619 116.072 38.2619 115.784V114.36H40.1019V116.648H41.8139V118.28H40.1019V123.368H41.6859V125H40.2139ZM46.1045 125C45.4005 125 44.8618 124.819 44.4885 124.456C44.1258 124.083 43.9445 123.555 43.9445 122.872V118.28H42.7125V116.648H43.3525C43.6618 116.648 43.8698 116.579 43.9765 116.44C44.0938 116.291 44.1525 116.072 44.1525 115.784V114.36H45.9925V116.648H47.7045V118.28H45.9925V123.368H47.5765V125H46.1045ZM52.7304 125.192C52.133 125.192 51.5944 125.091 51.1144 124.888C50.645 124.685 50.2397 124.392 49.8984 124.008C49.5677 123.624 49.3117 123.165 49.1304 122.632C48.949 122.088 48.8584 121.48 48.8584 120.808C48.8584 120.136 48.949 119.533 49.1304 119C49.3117 118.467 49.5677 118.013 49.8984 117.64C50.2397 117.256 50.645 116.963 51.1144 116.76C51.5944 116.557 52.133 116.456 52.7304 116.456C53.3277 116.456 53.8664 116.557 54.3464 116.76C54.8264 116.963 55.2317 117.256 55.5624 117.64C55.9037 118.013 56.165 118.467 56.3464 119C56.5277 119.533 56.6184 120.136 56.6184 120.808C56.6184 121.48 56.5277 122.088 56.3464 122.632C56.165 123.165 55.9037 123.624 55.5624 124.008C55.2317 124.392 54.8264 124.685 54.3464 124.888C53.8664 125.091 53.3277 125.192 52.7304 125.192ZM52.7304 123.544C53.2744 123.544 53.701 123.379 54.0104 123.048C54.3197 122.717 54.4744 122.232 54.4744 121.592V120.04C54.4744 119.411 54.3197 118.931 54.0104 118.6C53.701 118.269 53.2744 118.104 52.7304 118.104C52.197 118.104 51.7757 118.269 51.4664 118.6C51.157 118.931 51.0024 119.411 51.0024 120.04V121.592C51.0024 122.232 51.157 122.717 51.4664 123.048C51.7757 123.379 52.197 123.544 52.7304 123.544ZM58.434 113.16H60.482V118.024H60.546C60.6953 117.544 60.978 117.165 61.394 116.888C61.81 116.6 62.2953 116.456 62.85 116.456C63.9167 116.456 64.7273 116.835 65.282 117.592C65.8473 118.339 66.13 119.411 66.13 120.808C66.13 122.216 65.8473 123.299 65.282 124.056C64.7273 124.813 63.9167 125.192 62.85 125.192C62.2953 125.192 61.81 125.048 61.394 124.76C60.9887 124.472 60.706 124.088 60.546 123.608H60.482V125H58.434V113.16ZM62.194 123.496C62.7273 123.496 63.1593 123.32 63.49 122.968C63.8207 122.616 63.986 122.141 63.986 121.544V120.104C63.986 119.507 63.8207 119.032 63.49 118.68C63.1593 118.317 62.7273 118.136 62.194 118.136C61.7033 118.136 61.2927 118.259 60.962 118.504C60.642 118.749 60.482 119.075 60.482 119.48V122.136C60.482 122.573 60.642 122.909 60.962 123.144C61.2927 123.379 61.7033 123.496 62.194 123.496ZM71.4038 125.192C70.7851 125.192 70.2304 125.091 69.7398 124.888C69.2598 124.675 68.8491 124.381 68.5078 124.008C68.1771 123.624 67.9211 123.165 67.7398 122.632C67.5584 122.088 67.4678 121.48 67.4678 120.808C67.4678 120.147 67.5531 119.549 67.7238 119.016C67.9051 118.483 68.1611 118.029 68.4918 117.656C68.8224 117.272 69.2278 116.979 69.7078 116.776C70.1878 116.563 70.7318 116.456 71.3398 116.456C71.9904 116.456 72.5558 116.568 73.0358 116.792C73.5158 117.016 73.9104 117.32 74.2198 117.704C74.5291 118.088 74.7584 118.536 74.9078 119.048C75.0678 119.549 75.1478 120.088 75.1478 120.664V121.336H69.5958V121.544C69.5958 122.152 69.7664 122.643 70.1078 123.016C70.4491 123.379 70.9558 123.56 71.6278 123.56C72.1398 123.56 72.5558 123.453 72.8758 123.24C73.2064 123.027 73.4998 122.755 73.7558 122.424L74.8598 123.656C74.5184 124.136 74.0491 124.515 73.4518 124.792C72.8651 125.059 72.1824 125.192 71.4038 125.192ZM71.3718 117.992C70.8278 117.992 70.3958 118.173 70.0758 118.536C69.7558 118.899 69.5958 119.368 69.5958 119.944V120.072H73.0198V119.928C73.0198 119.352 72.8758 118.888 72.5878 118.536C72.3104 118.173 71.9051 117.992 71.3718 117.992ZM78.9976 125C78.2936 125 77.7763 124.824 77.4456 124.472C77.115 124.12 76.9496 123.624 76.9496 122.984V113.16H78.9976V123.368H80.1016V125H78.9976ZM80.7888 124.92L81.8608 123.576C81.3914 122.851 81.1568 121.928 81.1568 120.808C81.1568 120.136 81.2474 119.533 81.4288 119C81.6101 118.467 81.8661 118.013 82.1968 117.64C82.5381 117.256 82.9434 116.963 83.4128 116.76C83.8928 116.557 84.4314 116.456 85.0288 116.456C85.8714 116.456 86.5914 116.659 87.1888 117.064L88.1648 115.896L89.2847 116.728L88.1968 118.072C88.4314 118.435 88.6074 118.851 88.7248 119.32C88.8528 119.779 88.9167 120.28 88.9167 120.824C88.9167 121.496 88.8261 122.104 88.6448 122.648C88.4634 123.181 88.2021 123.64 87.8608 124.024C87.5301 124.397 87.1248 124.685 86.6448 124.888C86.1648 125.091 85.6261 125.192 85.0288 125.192C84.1968 125.192 83.4768 124.995 82.8688 124.6L81.9088 125.752L80.7888 124.92ZM85.0288 123.64C85.5834 123.64 86.0208 123.459 86.3408 123.096C86.6608 122.723 86.8208 122.205 86.8208 121.544V119.624L83.8448 123.224C84.1541 123.501 84.5488 123.64 85.0288 123.64ZM83.2688 121.976L86.2128 118.424C85.9034 118.147 85.5088 118.008 85.0288 118.008C84.4848 118.008 84.0528 118.195 83.7328 118.568C83.4234 118.931 83.2688 119.443 83.2688 120.104V121.976ZM90.7934 113.16H92.8414V118.024H92.9054C93.0547 117.544 93.3374 117.165 93.7534 116.888C94.1694 116.6 94.6547 116.456 95.2094 116.456C96.276 116.456 97.0867 116.835 97.6414 117.592C98.2067 118.339 98.4894 119.411 98.4894 120.808C98.4894 122.216 98.2067 123.299 97.6414 124.056C97.0867 124.813 96.276 125.192 95.2094 125.192C94.6547 125.192 94.1694 125.048 93.7534 124.76C93.348 124.472 93.0654 124.088 92.9054 123.608H92.8414V125H90.7934V113.16ZM94.5534 123.496C95.0867 123.496 95.5187 123.32 95.8494 122.968C96.18 122.616 96.3454 122.141 96.3454 121.544V120.104C96.3454 119.507 96.18 119.032 95.8494 118.68C95.5187 118.317 95.0867 118.136 94.5534 118.136C94.0627 118.136 93.652 118.259 93.3214 118.504C93.0014 118.749 92.8414 119.075 92.8414 119.48V122.136C92.8414 122.573 93.0014 122.909 93.3214 123.144C93.652 123.379 94.0627 123.496 94.5534 123.496Z" fill="black"/>
<g filter="url(#filter0_d_10111_18818)">
<rect x="19" y="16" width="194" height="80" rx="4" fill="#454545"/>
<path d="M34.668 31.036L33.492 28.866H33.45V37H32.302V27.228H33.66L37.23 33.192L38.406 35.362H38.448V27.228H39.596V37H38.238L34.668 31.036ZM44.8044 37.168C44.3098 37.168 43.8618 37.0793 43.4604 36.902C43.0684 36.7247 42.7278 36.4727 42.4384 36.146C42.1584 35.81 41.9391 35.4133 41.7804 34.956C41.6311 34.4893 41.5564 33.9667 41.5564 33.388C41.5564 32.8187 41.6311 32.3007 41.7804 31.834C41.9391 31.3673 42.1584 30.9707 42.4384 30.644C42.7278 30.308 43.0684 30.0513 43.4604 29.874C43.8618 29.6967 44.3098 29.608 44.8044 29.608C45.2898 29.608 45.7238 29.6967 46.1064 29.874C46.4891 30.0513 46.8158 30.2987 47.0864 30.616C47.3571 30.924 47.5624 31.2927 47.7024 31.722C47.8518 32.1513 47.9264 32.6227 47.9264 33.136V33.668H42.7324V34.004C42.7324 34.312 42.7791 34.6013 42.8724 34.872C42.9751 35.1333 43.1151 35.362 43.2924 35.558C43.4791 35.754 43.7031 35.908 43.9644 36.02C44.2351 36.132 44.5384 36.188 44.8744 36.188C45.3318 36.188 45.7284 36.0807 46.0644 35.866C46.4098 35.6513 46.6758 35.3433 46.8624 34.942L47.6604 35.516C47.4271 36.0107 47.0631 36.412 46.5684 36.72C46.0738 37.0187 45.4858 37.168 44.8044 37.168ZM44.8044 30.546C44.4964 30.546 44.2164 30.602 43.9644 30.714C43.7124 30.8167 43.4931 30.966 43.3064 31.162C43.1291 31.358 42.9891 31.5913 42.8864 31.862C42.7838 32.1233 42.7324 32.4127 42.7324 32.73V32.828H46.7224V32.674C46.7224 32.03 46.5451 31.5167 46.1904 31.134C45.8451 30.742 45.3831 30.546 44.8044 30.546ZM51.368 37C50.976 37 50.6774 36.8927 50.472 36.678C50.276 36.454 50.178 36.1647 50.178 35.81V30.756H48.988V29.776H49.66C49.9027 29.776 50.066 29.7293 50.15 29.636C50.2434 29.5333 50.29 29.3607 50.29 29.118V27.774H51.298V29.776H52.88V30.756H51.298V36.02H52.768V37H51.368ZM56.1532 37C55.7612 37 55.4625 36.8927 55.2572 36.678C55.0612 36.454 54.9632 36.1647 54.9632 35.81V30.756H53.7732V29.776H54.4452C54.6879 29.776 54.8512 29.7293 54.9352 29.636C55.0285 29.5333 55.0752 29.3607 55.0752 29.118V27.774H56.0832V29.776H57.6652V30.756H56.0832V36.02H57.5532V37H56.1532ZM62.1407 37.168C61.6554 37.168 61.212 37.0793 60.8107 36.902C60.4094 36.7247 60.064 36.4727 59.7747 36.146C59.4947 35.81 59.2754 35.4133 59.1167 34.956C58.958 34.4893 58.8787 33.9667 58.8787 33.388C58.8787 32.8187 58.958 32.3007 59.1167 31.834C59.2754 31.3673 59.4947 30.9707 59.7747 30.644C60.064 30.308 60.4094 30.0513 60.8107 29.874C61.212 29.6967 61.6554 29.608 62.1407 29.608C62.626 29.608 63.0647 29.6967 63.4567 29.874C63.858 30.0513 64.2034 30.308 64.4927 30.644C64.782 30.9707 65.006 31.3673 65.1647 31.834C65.3234 32.3007 65.4027 32.8187 65.4027 33.388C65.4027 33.9667 65.3234 34.4893 65.1647 34.956C65.006 35.4133 64.782 35.81 64.4927 36.146C64.2034 36.4727 63.858 36.7247 63.4567 36.902C63.0647 37.0793 62.626 37.168 62.1407 37.168ZM62.1407 36.174C62.7474 36.174 63.242 35.9873 63.6247 35.614C64.0074 35.2407 64.1987 34.6713 64.1987 33.906V32.87C64.1987 32.1047 64.0074 31.5353 63.6247 31.162C63.242 30.7887 62.7474 30.602 62.1407 30.602C61.534 30.602 61.0394 30.7887 60.6567 31.162C60.274 31.5353 60.0827 32.1047 60.0827 32.87V33.906C60.0827 34.6713 60.274 35.2407 60.6567 35.614C61.0394 35.9873 61.534 36.174 62.1407 36.174ZM67.2447 26.64H68.3647V30.952H68.4207C68.6074 30.4947 68.878 30.1587 69.2327 29.944C69.5967 29.72 70.0307 29.608 70.5347 29.608C70.9827 29.608 71.3887 29.6967 71.7527 29.874C72.1167 30.0513 72.4247 30.3033 72.6767 30.63C72.938 30.9567 73.134 31.3533 73.2647 31.82C73.4047 32.2867 73.4747 32.8093 73.4747 33.388C73.4747 33.9667 73.4047 34.4893 73.2647 34.956C73.134 35.4227 72.938 35.8193 72.6767 36.146C72.4247 36.4727 72.1167 36.7247 71.7527 36.902C71.3887 37.0793 70.9827 37.168 70.5347 37.168C69.5547 37.168 68.85 36.72 68.4207 35.824H68.3647V37H67.2447V26.64ZM70.2267 36.16C70.8614 36.16 71.3607 35.964 71.7247 35.572C72.0887 35.1707 72.2707 34.648 72.2707 34.004V32.772C72.2707 32.128 72.0887 31.61 71.7247 31.218C71.3607 30.8167 70.8614 30.616 70.2267 30.616C69.9747 30.616 69.732 30.6533 69.4987 30.728C69.2747 30.7933 69.0787 30.8867 68.9107 31.008C68.7427 31.1293 68.6074 31.2787 68.5047 31.456C68.4114 31.624 68.3647 31.806 68.3647 32.002V34.69C68.3647 34.9233 68.4114 35.1333 68.5047 35.32C68.6074 35.4973 68.7427 35.6513 68.9107 35.782C69.0787 35.9033 69.2747 35.9967 69.4987 36.062C69.732 36.1273 69.9747 36.16 70.2267 36.16ZM78.0818 37.168C77.5871 37.168 77.1391 37.0793 76.7378 36.902C76.3458 36.7247 76.0051 36.4727 75.7158 36.146C75.4358 35.81 75.2164 35.4133 75.0578 34.956C74.9084 34.4893 74.8338 33.9667 74.8338 33.388C74.8338 32.8187 74.9084 32.3007 75.0578 31.834C75.2164 31.3673 75.4358 30.9707 75.7158 30.644C76.0051 30.308 76.3458 30.0513 76.7378 29.874C77.1391 29.6967 77.5871 29.608 78.0818 29.608C78.5671 29.608 79.0011 29.6967 79.3838 29.874C79.7664 30.0513 80.0931 30.2987 80.3638 30.616C80.6344 30.924 80.8398 31.2927 80.9798 31.722C81.1291 32.1513 81.2038 32.6227 81.2038 33.136V33.668H76.0098V34.004C76.0098 34.312 76.0564 34.6013 76.1498 34.872C76.2524 35.1333 76.3924 35.362 76.5698 35.558C76.7564 35.754 76.9804 35.908 77.2418 36.02C77.5124 36.132 77.8158 36.188 78.1518 36.188C78.6091 36.188 79.0058 36.0807 79.3418 35.866C79.6871 35.6513 79.9531 35.3433 80.1398 34.942L80.9378 35.516C80.7044 36.0107 80.3404 36.412 79.8458 36.72C79.3511 37.0187 78.7631 37.168 78.0818 37.168ZM78.0818 30.546C77.7738 30.546 77.4938 30.602 77.2418 30.714C76.9898 30.8167 76.7704 30.966 76.5838 31.162C76.4064 31.358 76.2664 31.5913 76.1638 31.862C76.0611 32.1233 76.0098 32.4127 76.0098 32.73V32.828H79.9998V32.674C79.9998 32.03 79.8224 31.5167 79.4678 31.134C79.1224 30.742 78.6604 30.546 78.0818 30.546ZM84.2394 37C83.8474 37 83.5487 36.8927 83.3434 36.678C83.1474 36.454 83.0494 36.174 83.0494 35.838V26.64H84.1694V36.02H85.2334V37H84.2394ZM86.1638 37.084L87.1018 35.908C86.6258 35.2453 86.3878 34.4053 86.3878 33.388C86.3878 32.8187 86.4672 32.3007 86.6258 31.834C86.7845 31.3673 87.0038 30.9707 87.2838 30.644C87.5732 30.308 87.9185 30.0513 88.3198 29.874C88.7212 29.6967 89.1645 29.608 89.6498 29.608C90.0418 29.608 90.4012 29.6687 90.7278 29.79C91.0638 29.9113 91.3672 30.0793 91.6378 30.294L92.5058 29.216L93.1358 29.692L92.1978 30.882C92.4218 31.1993 92.5945 31.5727 92.7158 32.002C92.8465 32.422 92.9118 32.884 92.9118 33.388C92.9118 33.9667 92.8325 34.4893 92.6738 34.956C92.5152 35.4133 92.2912 35.81 92.0018 36.146C91.7125 36.4727 91.3672 36.7247 90.9658 36.902C90.5738 37.0793 90.1352 37.168 89.6498 37.168C88.8752 37.168 88.2125 36.944 87.6618 36.496L86.7938 37.56L86.1638 37.084ZM89.6498 36.174C90.2565 36.174 90.7512 35.9873 91.1338 35.614C91.5165 35.2407 91.7078 34.6713 91.7078 33.906V32.87C91.7078 32.646 91.6892 32.4407 91.6518 32.254C91.6145 32.0673 91.5632 31.8947 91.4978 31.736L88.2778 35.712C88.6232 36.02 89.0805 36.174 89.6498 36.174ZM87.5918 33.906C87.5918 34.354 87.6618 34.7367 87.8018 35.054L91.0218 31.064C90.6578 30.756 90.2005 30.602 89.6498 30.602C89.0432 30.602 88.5485 30.7887 88.1658 31.162C87.7832 31.5353 87.5918 32.1047 87.5918 32.87V33.906ZM94.8209 26.64H95.9409V30.952H95.9969C96.1835 30.4947 96.4542 30.1587 96.8089 29.944C97.1729 29.72 97.6069 29.608 98.1109 29.608C98.5589 29.608 98.9649 29.6967 99.3289 29.874C99.6929 30.0513 100.001 30.3033 100.253 30.63C100.514 30.9567 100.71 31.3533 100.841 31.82C100.981 32.2867 101.051 32.8093 101.051 33.388C101.051 33.9667 100.981 34.4893 100.841 34.956C100.71 35.4227 100.514 35.8193 100.253 36.146C100.001 36.4727 99.6929 36.7247 99.3289 36.902C98.9649 37.0793 98.5589 37.168 98.1109 37.168C97.1309 37.168 96.4262 36.72 95.9969 35.824H95.9409V37H94.8209V26.64ZM97.8029 36.16C98.4375 36.16 98.9369 35.964 99.3009 35.572C99.6649 35.1707 99.8469 34.648 99.8469 34.004V32.772C99.8469 32.128 99.6649 31.61 99.3009 31.218C98.9369 30.8167 98.4375 30.616 97.8029 30.616C97.5509 30.616 97.3082 30.6533 97.0749 30.728C96.8509 30.7933 96.6549 30.8867 96.4869 31.008C96.3189 31.1293 96.1835 31.2787 96.0809 31.456C95.9875 31.624 95.9409 31.806 95.9409 32.002V34.69C95.9409 34.9233 95.9875 35.1333 96.0809 35.32C96.1835 35.4973 96.3189 35.6513 96.4869 35.782C96.6549 35.9033 96.8509 35.9967 97.0749 36.062C97.3082 36.1273 97.5509 36.16 97.8029 36.16ZM105.658 37.168C105.163 37.168 104.715 37.0793 104.314 36.902C103.922 36.7247 103.581 36.4727 103.292 36.146C103.012 35.81 102.793 35.4133 102.634 34.956C102.485 34.4893 102.41 33.9667 102.41 33.388C102.41 32.8187 102.485 32.3007 102.634 31.834C102.793 31.3673 103.012 30.9707 103.292 30.644C103.581 30.308 103.922 30.0513 104.314 29.874C104.715 29.6967 105.163 29.608 105.658 29.608C106.143 29.608 106.577 29.6967 106.96 29.874C107.343 30.0513 107.669 30.2987 107.94 30.616C108.211 30.924 108.416 31.2927 108.556 31.722C108.705 32.1513 108.78 32.6227 108.78 33.136V33.668H103.586V34.004C103.586 34.312 103.633 34.6013 103.726 34.872C103.829 35.1333 103.969 35.362 104.146 35.558C104.333 35.754 104.557 35.908 104.818 36.02C105.089 36.132 105.392 36.188 105.728 36.188C106.185 36.188 106.582 36.0807 106.918 35.866C107.263 35.6513 107.529 35.3433 107.716 34.942L108.514 35.516C108.281 36.0107 107.917 36.412 107.422 36.72C106.927 37.0187 106.339 37.168 105.658 37.168ZM105.658 30.546C105.35 30.546 105.07 30.602 104.818 30.714C104.566 30.8167 104.347 30.966 104.16 31.162C103.983 31.358 103.843 31.5913 103.74 31.862C103.637 32.1233 103.586 32.4127 103.586 32.73V32.828H107.576V32.674C107.576 32.03 107.399 31.5167 107.044 31.134C106.699 30.742 106.237 30.546 105.658 30.546ZM112.222 37C111.83 37 111.531 36.8927 111.326 36.678C111.13 36.454 111.032 36.1647 111.032 35.81V30.756H109.842V29.776H110.514C110.756 29.776 110.92 29.7293 111.004 29.636C111.097 29.5333 111.144 29.3607 111.144 29.118V27.774H112.152V29.776H113.734V30.756H112.152V36.02H113.622V37H112.222ZM121.558 37.168C121.064 37.168 120.616 37.0793 120.214 36.902C119.822 36.7247 119.482 36.4727 119.192 36.146C118.912 35.81 118.693 35.4133 118.534 34.956C118.385 34.4893 118.31 33.9667 118.31 33.388C118.31 32.8187 118.385 32.3007 118.534 31.834C118.693 31.3673 118.912 30.9707 119.192 30.644C119.482 30.308 119.822 30.0513 120.214 29.874C120.616 29.6967 121.064 29.608 121.558 29.608C122.044 29.608 122.478 29.6967 122.86 29.874C123.243 30.0513 123.57 30.2987 123.84 30.616C124.111 30.924 124.316 31.2927 124.456 31.722C124.606 32.1513 124.68 32.6227 124.68 33.136V33.668H119.486V34.004C119.486 34.312 119.533 34.6013 119.626 34.872C119.729 35.1333 119.869 35.362 120.046 35.558C120.233 35.754 120.457 35.908 120.718 36.02C120.989 36.132 121.292 36.188 121.628 36.188C122.086 36.188 122.482 36.0807 122.818 35.866C123.164 35.6513 123.43 35.3433 123.616 34.942L124.414 35.516C124.181 36.0107 123.817 36.412 123.322 36.72C122.828 37.0187 122.24 37.168 121.558 37.168ZM121.558 30.546C121.25 30.546 120.97 30.602 120.718 30.714C120.466 30.8167 120.247 30.966 120.06 31.162C119.883 31.358 119.743 31.5913 119.64 31.862C119.538 32.1233 119.486 32.4127 119.486 32.73V32.828H123.476V32.674C123.476 32.03 123.299 31.5167 122.944 31.134C122.599 30.742 122.137 30.546 121.558 30.546ZM126.526 37V29.776H127.646V31.106H127.716C127.847 30.7607 128.08 30.4527 128.416 30.182C128.752 29.9113 129.214 29.776 129.802 29.776H130.236V30.896H129.578C128.971 30.896 128.495 31.0127 128.15 31.246C127.814 31.47 127.646 31.7547 127.646 32.1V37H126.526ZM139.595 35.824H139.539C139.1 36.72 138.396 37.168 137.425 37.168C136.977 37.168 136.571 37.0793 136.207 36.902C135.843 36.7247 135.53 36.4727 135.269 36.146C135.017 35.8193 134.821 35.4227 134.681 34.956C134.55 34.4893 134.485 33.9667 134.485 33.388C134.485 32.8093 134.55 32.2867 134.681 31.82C134.821 31.3533 135.017 30.9567 135.269 30.63C135.53 30.3033 135.843 30.0513 136.207 29.874C136.571 29.6967 136.977 29.608 137.425 29.608C137.929 29.608 138.358 29.72 138.713 29.944C139.077 30.1587 139.352 30.4947 139.539 30.952H139.595V26.64H140.715V37H139.595V35.824ZM137.733 36.16C137.985 36.16 138.223 36.1273 138.447 36.062C138.68 35.9967 138.881 35.9033 139.049 35.782C139.217 35.6513 139.348 35.4973 139.441 35.32C139.544 35.1333 139.595 34.9233 139.595 34.69V32.002C139.595 31.806 139.544 31.624 139.441 31.456C139.348 31.2787 139.217 31.1293 139.049 31.008C138.881 30.8867 138.68 30.7933 138.447 30.728C138.223 30.6533 137.985 30.616 137.733 30.616C137.098 30.616 136.599 30.8167 136.235 31.218C135.871 31.61 135.689 32.128 135.689 32.772V34.004C135.689 34.648 135.871 35.1707 136.235 35.572C136.599 35.964 137.098 36.16 137.733 36.16ZM145.812 37.168C145.318 37.168 144.87 37.0793 144.468 36.902C144.076 36.7247 143.736 36.4727 143.446 36.146C143.166 35.81 142.947 35.4133 142.788 34.956C142.639 34.4893 142.564 33.9667 142.564 33.388C142.564 32.8187 142.639 32.3007 142.788 31.834C142.947 31.3673 143.166 30.9707 143.446 30.644C143.736 30.308 144.076 30.0513 144.468 29.874C144.87 29.6967 145.318 29.608 145.812 29.608C146.298 29.608 146.732 29.6967 147.114 29.874C147.497 30.0513 147.824 30.2987 148.094 30.616C148.365 30.924 148.57 31.2927 148.71 31.722C148.86 32.1513 148.934 32.6227 148.934 33.136V33.668H143.74V34.004C143.74 34.312 143.787 34.6013 143.88 34.872C143.983 35.1333 144.123 35.362 144.3 35.558C144.487 35.754 144.711 35.908 144.972 36.02C145.243 36.132 145.546 36.188 145.882 36.188C146.34 36.188 146.736 36.0807 147.072 35.866C147.418 35.6513 147.684 35.3433 147.87 34.942L148.668 35.516C148.435 36.0107 148.071 36.412 147.576 36.72C147.082 37.0187 146.494 37.168 145.812 37.168ZM145.812 30.546C145.504 30.546 145.224 30.602 144.972 30.714C144.72 30.8167 144.501 30.966 144.314 31.162C144.137 31.358 143.997 31.5913 143.894 31.862C143.792 32.1233 143.74 32.4127 143.74 32.73V32.828H147.73V32.674C147.73 32.03 147.553 31.5167 147.198 31.134C146.853 30.742 146.391 30.546 145.812 30.546ZM152.376 37C151.984 37 151.685 36.8927 151.48 36.678C151.284 36.454 151.186 36.1647 151.186 35.81V30.756H149.996V29.776H150.668C150.911 29.776 151.074 29.7293 151.158 29.636C151.251 29.5333 151.298 29.3607 151.298 29.118V27.774H152.306V29.776H153.888V30.756H152.306V36.02H153.776V37H152.376ZM158.997 26.64H160.117V30.952H160.173C160.359 30.4947 160.63 30.1587 160.985 29.944C161.349 29.72 161.783 29.608 162.287 29.608C162.735 29.608 163.141 29.6967 163.505 29.874C163.869 30.0513 164.177 30.3033 164.429 30.63C164.69 30.9567 164.886 31.3533 165.017 31.82C165.157 32.2867 165.227 32.8093 165.227 33.388C165.227 33.9667 165.157 34.4893 165.017 34.956C164.886 35.4227 164.69 35.8193 164.429 36.146C164.177 36.4727 163.869 36.7247 163.505 36.902C163.141 37.0793 162.735 37.168 162.287 37.168C161.307 37.168 160.602 36.72 160.173 35.824H160.117V37H158.997V26.64ZM161.979 36.16C162.613 36.16 163.113 35.964 163.477 35.572C163.841 35.1707 164.023 34.648 164.023 34.004V32.772C164.023 32.128 163.841 31.61 163.477 31.218C163.113 30.8167 162.613 30.616 161.979 30.616C161.727 30.616 161.484 30.6533 161.251 30.728C161.027 30.7933 160.831 30.8867 160.663 31.008C160.495 31.1293 160.359 31.2787 160.257 31.456C160.163 31.624 160.117 31.806 160.117 32.002V34.69C160.117 34.9233 160.163 35.1333 160.257 35.32C160.359 35.4973 160.495 35.6513 160.663 35.782C160.831 35.9033 161.027 35.9967 161.251 36.062C161.484 36.1273 161.727 36.16 161.979 36.16ZM169.834 37.168C169.339 37.168 168.891 37.0793 168.49 36.902C168.098 36.7247 167.757 36.4727 167.468 36.146C167.188 35.81 166.968 35.4133 166.81 34.956C166.66 34.4893 166.586 33.9667 166.586 33.388C166.586 32.8187 166.66 32.3007 166.81 31.834C166.968 31.3673 167.188 30.9707 167.468 30.644C167.757 30.308 168.098 30.0513 168.49 29.874C168.891 29.6967 169.339 29.608 169.834 29.608C170.319 29.608 170.753 29.6967 171.136 29.874C171.518 30.0513 171.845 30.2987 172.116 30.616C172.386 30.924 172.592 31.2927 172.732 31.722C172.881 32.1513 172.956 32.6227 172.956 33.136V33.668H167.762V34.004C167.762 34.312 167.808 34.6013 167.902 34.872C168.004 35.1333 168.144 35.362 168.322 35.558C168.508 35.754 168.732 35.908 168.994 36.02C169.264 36.132 169.568 36.188 169.904 36.188C170.361 36.188 170.758 36.0807 171.094 35.866C171.439 35.6513 171.705 35.3433 171.892 34.942L172.69 35.516C172.456 36.0107 172.092 36.412 171.598 36.72C171.103 37.0187 170.515 37.168 169.834 37.168ZM169.834 30.546C169.526 30.546 169.246 30.602 168.994 30.714C168.742 30.8167 168.522 30.966 168.336 31.162C168.158 31.358 168.018 31.5913 167.916 31.862C167.813 32.1233 167.762 32.4127 167.762 32.73V32.828H171.752V32.674C171.752 32.03 171.574 31.5167 171.22 31.134C170.874 30.742 170.412 30.546 169.834 30.546ZM175.991 37C175.599 37 175.301 36.8927 175.095 36.678C174.899 36.454 174.801 36.174 174.801 35.838V26.64H175.921V36.02H176.985V37H175.991ZM177.916 37.084L178.854 35.908C178.378 35.2453 178.14 34.4053 178.14 33.388C178.14 32.8187 178.219 32.3007 178.378 31.834C178.536 31.3673 178.756 30.9707 179.036 30.644C179.325 30.308 179.67 30.0513 180.072 29.874C180.473 29.6967 180.916 29.608 181.402 29.608C181.794 29.608 182.153 29.6687 182.48 29.79C182.816 29.9113 183.119 30.0793 183.39 30.294L184.258 29.216L184.888 29.692L183.95 30.882C184.174 31.1993 184.346 31.5727 184.468 32.002C184.598 32.422 184.664 32.884 184.664 33.388C184.664 33.9667 184.584 34.4893 184.426 34.956C184.267 35.4133 184.043 35.81 183.754 36.146C183.464 36.4727 183.119 36.7247 182.718 36.902C182.326 37.0793 181.887 37.168 181.402 37.168C180.627 37.168 179.964 36.944 179.414 36.496L178.546 37.56L177.916 37.084ZM181.402 36.174C182.008 36.174 182.503 35.9873 182.886 35.614C183.268 35.2407 183.46 34.6713 183.46 33.906V32.87C183.46 32.646 183.441 32.4407 183.404 32.254C183.366 32.0673 183.315 31.8947 183.25 31.736L180.03 35.712C180.375 36.02 180.832 36.174 181.402 36.174ZM179.344 33.906C179.344 34.354 179.414 34.7367 179.554 35.054L182.774 31.064C182.41 30.756 181.952 30.602 181.402 30.602C180.795 30.602 180.3 30.7887 179.918 31.162C179.535 31.5353 179.344 32.1047 179.344 32.87V33.906ZM186.573 26.64H187.693V30.952H187.749C187.935 30.4947 188.206 30.1587 188.561 29.944C188.925 29.72 189.359 29.608 189.863 29.608C190.311 29.608 190.717 29.6967 191.081 29.874C191.445 30.0513 191.753 30.3033 192.005 30.63C192.266 30.9567 192.462 31.3533 192.593 31.82C192.733 32.2867 192.803 32.8093 192.803 33.388C192.803 33.9667 192.733 34.4893 192.593 34.956C192.462 35.4227 192.266 35.8193 192.005 36.146C191.753 36.4727 191.445 36.7247 191.081 36.902C190.717 37.0793 190.311 37.168 189.863 37.168C188.883 37.168 188.178 36.72 187.749 35.824H187.693V37H186.573V26.64ZM189.555 36.16C190.189 36.16 190.689 35.964 191.053 35.572C191.417 35.1707 191.599 34.648 191.599 34.004V32.772C191.599 32.128 191.417 31.61 191.053 31.218C190.689 30.8167 190.189 30.616 189.555 30.616C189.303 30.616 189.06 30.6533 188.827 30.728C188.603 30.7933 188.407 30.8867 188.239 31.008C188.071 31.1293 187.935 31.2787 187.833 31.456C187.739 31.624 187.693 31.806 187.693 32.002V34.69C187.693 34.9233 187.739 35.1333 187.833 35.32C187.935 35.4973 188.071 35.6513 188.239 35.782C188.407 35.9033 188.603 35.9967 188.827 36.062C189.06 36.1273 189.303 36.16 189.555 36.16ZM195.134 35.362C195.433 35.362 195.648 35.4413 195.778 35.6C195.918 35.7493 195.988 35.9453 195.988 36.188V36.384C195.988 36.7667 195.876 37.1867 195.652 37.644C195.428 38.1107 195.116 38.5167 194.714 38.862H193.776C194.056 38.5633 194.28 38.2787 194.448 38.008C194.626 37.7467 194.752 37.4527 194.826 37.126C194.64 37.0793 194.5 36.9907 194.406 36.86C194.322 36.7293 194.28 36.5707 194.28 36.384V36.188C194.28 35.9453 194.346 35.7493 194.476 35.6C194.616 35.4413 194.836 35.362 195.134 35.362ZM36.81 59.824H36.754C36.3153 60.72 35.6107 61.168 34.64 61.168C34.192 61.168 33.786 61.0793 33.422 60.902C33.058 60.7247 32.7453 60.4727 32.484 60.146C32.232 59.8193 32.036 59.4227 31.896 58.956C31.7653 58.4893 31.7 57.9667 31.7 57.388C31.7 56.8093 31.7653 56.2867 31.896 55.82C32.036 55.3533 32.232 54.9567 32.484 54.63C32.7453 54.3033 33.058 54.0513 33.422 53.874C33.786 53.6967 34.192 53.608 34.64 53.608C35.144 53.608 35.5733 53.72 35.928 53.944C36.292 54.1587 36.5673 54.4947 36.754 54.952H36.81V50.64H37.93V61H36.81V59.824ZM34.948 60.16C35.2 60.16 35.438 60.1273 35.662 60.062C35.8953 59.9967 36.096 59.9033 36.264 59.782C36.432 59.6513 36.5627 59.4973 36.656 59.32C36.7587 59.1333 36.81 58.9233 36.81 58.69V56.002C36.81 55.806 36.7587 55.624 36.656 55.456C36.5627 55.2787 36.432 55.1293 36.264 55.008C36.096 54.8867 35.8953 54.7933 35.662 54.728C35.438 54.6533 35.2 54.616 34.948 54.616C34.3133 54.616 33.814 54.8167 33.45 55.218C33.086 55.61 32.904 56.128 32.904 56.772V58.004C32.904 58.648 33.086 59.1707 33.45 59.572C33.814 59.964 34.3133 60.16 34.948 60.16ZM44.7631 59.824H44.7071C44.6324 59.992 44.5391 60.16 44.4271 60.328C44.3244 60.4867 44.1938 60.6313 44.0351 60.762C43.8764 60.8833 43.6851 60.9813 43.4611 61.056C43.2371 61.1307 42.9758 61.168 42.6771 61.168C41.9304 61.168 41.3378 60.93 40.8991 60.454C40.4604 59.9687 40.2411 59.2873 40.2411 58.41V53.776H41.3611V58.214C41.3611 59.5113 41.9118 60.16 43.0131 60.16C43.2371 60.16 43.4518 60.132 43.6571 60.076C43.8718 60.02 44.0584 59.936 44.2171 59.824C44.3851 59.712 44.5158 59.572 44.6091 59.404C44.7118 59.2267 44.7631 59.0167 44.7631 58.774V53.776H45.8831V61H44.7631V59.824ZM51.9687 54.756H50.7927V53.776H51.9687V52.32C51.9687 51.816 52.0994 51.41 52.3607 51.102C52.6221 50.794 53.0187 50.64 53.5507 50.64H54.6427V51.62H53.0887V53.776H54.6427V54.756H53.0887V61H51.9687V54.756ZM61.3658 61C60.9458 61 60.6424 60.888 60.4558 60.664C60.2784 60.44 60.1664 60.16 60.1198 59.824H60.0498C59.8911 60.272 59.6298 60.608 59.2658 60.832C58.9018 61.056 58.4678 61.168 57.9638 61.168C57.1984 61.168 56.6011 60.972 56.1718 60.58C55.7518 60.188 55.5418 59.656 55.5418 58.984C55.5418 58.3027 55.7891 57.78 56.2838 57.416C56.7878 57.052 57.5671 56.87 58.6218 56.87H60.0498V56.156C60.0498 55.6427 59.9098 55.2507 59.6298 54.98C59.3498 54.7093 58.9204 54.574 58.3418 54.574C57.9031 54.574 57.5344 54.672 57.2358 54.868C56.9464 55.064 56.7038 55.3253 56.5078 55.652L55.8358 55.022C56.0318 54.63 56.3444 54.2987 56.7738 54.028C57.2031 53.748 57.7444 53.608 58.3978 53.608C59.2751 53.608 59.9564 53.8227 60.4418 54.252C60.9271 54.6813 61.1698 55.2787 61.1698 56.044V60.02H61.9958V61H61.3658ZM58.1458 60.216C58.4258 60.216 58.6824 60.1833 58.9158 60.118C59.1491 60.0527 59.3498 59.9593 59.5178 59.838C59.6858 59.7167 59.8164 59.5767 59.9098 59.418C60.0031 59.2593 60.0498 59.0867 60.0498 58.9V57.71H58.5658C57.9218 57.71 57.4504 57.8033 57.1518 57.99C56.8624 58.1767 56.7178 58.4473 56.7178 58.802V59.096C56.7178 59.4507 56.8438 59.726 57.0958 59.922C57.3571 60.118 57.7071 60.216 58.1458 60.216ZM58.4678 52.936C58.2438 52.936 58.0291 52.8987 57.8238 52.824C57.6278 52.74 57.4551 52.628 57.3058 52.488C57.1658 52.3387 57.0538 52.166 56.9698 51.97C56.8858 51.774 56.8438 51.5593 56.8438 51.326C56.8438 51.0927 56.8858 50.878 56.9698 50.682C57.0538 50.486 57.1658 50.318 57.3058 50.178C57.4551 50.0287 57.6278 49.9167 57.8238 49.842C58.0291 49.758 58.2438 49.716 58.4678 49.716C58.6918 49.716 58.9018 49.758 59.0978 49.842C59.3031 49.9167 59.4758 50.0287 59.6158 50.178C59.7651 50.318 59.8818 50.486 59.9658 50.682C60.0498 50.878 60.0918 51.0927 60.0918 51.326C60.0918 51.5593 60.0498 51.774 59.9658 51.97C59.8818 52.166 59.7651 52.3387 59.6158 52.488C59.4758 52.628 59.3031 52.74 59.0978 52.824C58.9018 52.8987 58.6918 52.936 58.4678 52.936ZM58.4678 52.25C58.7198 52.25 58.9158 52.1847 59.0558 52.054C59.2051 51.914 59.2798 51.7227 59.2798 51.48V51.172C59.2798 50.9293 59.2051 50.7427 59.0558 50.612C58.9158 50.472 58.7198 50.402 58.4678 50.402C58.2158 50.402 58.0151 50.472 57.8658 50.612C57.7258 50.7427 57.6558 50.9293 57.6558 51.172V51.48C57.6558 51.7227 57.7258 51.914 57.8658 52.054C58.0151 52.1847 58.2158 52.25 58.4678 52.25ZM63.5943 61V53.776H64.7143V55.106H64.7843C64.915 54.7607 65.1483 54.4527 65.4843 54.182C65.8203 53.9113 66.2823 53.776 66.8703 53.776H67.3043V54.896H66.6463C66.0396 54.896 65.5636 55.0127 65.2183 55.246C64.8823 55.47 64.7143 55.7547 64.7143 56.1V61H63.5943ZM76.4955 59.824H76.4395C76.3648 59.992 76.2715 60.16 76.1595 60.328C76.0568 60.4867 75.9262 60.6313 75.7675 60.762C75.6088 60.8833 75.4175 60.9813 75.1935 61.056C74.9695 61.1307 74.7082 61.168 74.4095 61.168C73.6628 61.168 73.0702 60.93 72.6315 60.454C72.1928 59.9687 71.9735 59.2873 71.9735 58.41V53.776H73.0935V58.214C73.0935 59.5113 73.6442 60.16 74.7455 60.16C74.9695 60.16 75.1842 60.132 75.3895 60.076C75.6042 60.02 75.7908 59.936 75.9495 59.824C76.1175 59.712 76.2482 59.572 76.3415 59.404C76.4442 59.2267 76.4955 59.0167 76.4955 58.774V53.776H77.6155V61H76.4955V59.824ZM84.6205 59.824H84.5645C84.1259 60.72 83.4212 61.168 82.4505 61.168C82.0025 61.168 81.5965 61.0793 81.2325 60.902C80.8685 60.7247 80.5559 60.4727 80.2945 60.146C80.0425 59.8193 79.8465 59.4227 79.7065 58.956C79.5759 58.4893 79.5105 57.9667 79.5105 57.388C79.5105 56.8093 79.5759 56.2867 79.7065 55.82C79.8465 55.3533 80.0425 54.9567 80.2945 54.63C80.5559 54.3033 80.8685 54.0513 81.2325 53.874C81.5965 53.6967 82.0025 53.608 82.4505 53.608C82.9545 53.608 83.3839 53.72 83.7385 53.944C84.1025 54.1587 84.3779 54.4947 84.5645 54.952H84.6205V50.64H85.7405V61H84.6205V59.824ZM82.7585 60.16C83.0105 60.16 83.2485 60.1273 83.4725 60.062C83.7059 59.9967 83.9065 59.9033 84.0745 59.782C84.2425 59.6513 84.3732 59.4973 84.4665 59.32C84.5692 59.1333 84.6205 58.9233 84.6205 58.69V56.002C84.6205 55.806 84.5692 55.624 84.4665 55.456C84.3732 55.2787 84.2425 55.1293 84.0745 55.008C83.9065 54.8867 83.7059 54.7933 83.4725 54.728C83.2485 54.6533 83.0105 54.616 82.7585 54.616C82.1239 54.616 81.6245 54.8167 81.2605 55.218C80.8965 55.61 80.7145 56.128 80.7145 56.772V58.004C80.7145 58.648 80.8965 59.1707 81.2605 59.572C81.6245 59.964 82.1239 60.16 82.7585 60.16ZM88.1216 50.64H89.2416V54.952H89.2976C89.4843 54.4947 89.755 54.1587 90.1096 53.944C90.4736 53.72 90.9076 53.608 91.4116 53.608C91.8596 53.608 92.2656 53.6967 92.6296 53.874C92.9936 54.0513 93.3016 54.3033 93.5536 54.63C93.815 54.9567 94.011 55.3533 94.1416 55.82C94.2816 56.2867 94.3516 56.8093 94.3516 57.388C94.3516 57.9667 94.2816 58.4893 94.1416 58.956C94.011 59.4227 93.815 59.8193 93.5536 60.146C93.3016 60.4727 92.9936 60.7247 92.6296 60.902C92.2656 61.0793 91.8596 61.168 91.4116 61.168C90.4316 61.168 89.727 60.72 89.2976 59.824H89.2416V61H88.1216V50.64ZM91.1036 60.16C91.7383 60.16 92.2376 59.964 92.6016 59.572C92.9656 59.1707 93.1476 58.648 93.1476 58.004V56.772C93.1476 56.128 92.9656 55.61 92.6016 55.218C92.2376 54.8167 91.7383 54.616 91.1036 54.616C90.8516 54.616 90.609 54.6533 90.3756 54.728C90.1516 54.7933 89.9556 54.8867 89.7876 55.008C89.6196 55.1293 89.4843 55.2787 89.3816 55.456C89.2883 55.624 89.2416 55.806 89.2416 56.002V58.69C89.2416 58.9233 89.2883 59.1333 89.3816 59.32C89.4843 59.4973 89.6196 59.6513 89.7876 59.782C89.9556 59.9033 90.1516 59.9967 90.3756 60.062C90.609 60.1273 90.8516 60.16 91.1036 60.16ZM98.9587 61.168C98.4641 61.168 98.0161 61.0793 97.6147 60.902C97.2227 60.7247 96.8821 60.4727 96.5927 60.146C96.3127 59.81 96.0934 59.4133 95.9347 58.956C95.7854 58.4893 95.7107 57.9667 95.7107 57.388C95.7107 56.8187 95.7854 56.3007 95.9347 55.834C96.0934 55.3673 96.3127 54.9707 96.5927 54.644C96.8821 54.308 97.2227 54.0513 97.6147 53.874C98.0161 53.6967 98.4641 53.608 98.9587 53.608C99.4441 53.608 99.8781 53.6967 100.261 53.874C100.643 54.0513 100.97 54.2987 101.241 54.616C101.511 54.924 101.717 55.2927 101.857 55.722C102.006 56.1513 102.081 56.6227 102.081 57.136V57.668H96.8867V58.004C96.8867 58.312 96.9334 58.6013 97.0267 58.872C97.1294 59.1333 97.2694 59.362 97.4467 59.558C97.6334 59.754 97.8574 59.908 98.1187 60.02C98.3894 60.132 98.6927 60.188 99.0287 60.188C99.4861 60.188 99.8827 60.0807 100.219 59.866C100.564 59.6513 100.83 59.3433 101.017 58.942L101.815 59.516C101.581 60.0107 101.217 60.412 100.723 60.72C100.228 61.0187 99.6401 61.168 98.9587 61.168ZM98.9587 54.546C98.6507 54.546 98.3707 54.602 98.1187 54.714C97.8667 54.8167 97.6474 54.966 97.4607 55.162C97.2834 55.358 97.1434 55.5913 97.0407 55.862C96.9381 56.1233 96.8867 56.4127 96.8867 56.73V56.828H100.877V56.674C100.877 56.03 100.699 55.5167 100.345 55.134C99.9994 54.742 99.5374 54.546 98.9587 54.546ZM105.522 61C105.13 61 104.832 60.8927 104.626 60.678C104.43 60.454 104.332 60.1647 104.332 59.81V54.756H103.142V53.776H103.814C104.057 53.776 104.22 53.7293 104.304 53.636C104.398 53.5333 104.444 53.3607 104.444 53.118V51.774H105.452V53.776H107.034V54.756H105.452V60.02H106.922V61H105.522ZM114.085 61C113.665 61 113.361 60.888 113.175 60.664C112.997 60.44 112.885 60.16 112.839 59.824H112.769C112.61 60.272 112.349 60.608 111.985 60.832C111.621 61.056 111.187 61.168 110.683 61.168C109.917 61.168 109.32 60.972 108.891 60.58C108.471 60.188 108.261 59.656 108.261 58.984C108.261 58.3027 108.508 57.78 109.003 57.416C109.507 57.052 110.286 56.87 111.341 56.87H112.769V56.156C112.769 55.6427 112.629 55.2507 112.349 54.98C112.069 54.7093 111.639 54.574 111.061 54.574C110.622 54.574 110.253 54.672 109.955 54.868C109.665 55.064 109.423 55.3253 109.227 55.652L108.555 55.022C108.751 54.63 109.063 54.2987 109.493 54.028C109.922 53.748 110.463 53.608 111.117 53.608C111.994 53.608 112.675 53.8227 113.161 54.252C113.646 54.6813 113.889 55.2787 113.889 56.044V60.02H114.715V61H114.085ZM110.865 60.216C111.145 60.216 111.401 60.1833 111.635 60.118C111.868 60.0527 112.069 59.9593 112.237 59.838C112.405 59.7167 112.535 59.5767 112.629 59.418C112.722 59.2593 112.769 59.0867 112.769 58.9V57.71H111.285C110.641 57.71 110.169 57.8033 109.871 57.99C109.581 58.1767 109.437 58.4473 109.437 58.802V59.096C109.437 59.4507 109.563 59.726 109.815 59.922C110.076 60.118 110.426 60.216 110.865 60.216ZM117.503 61C117.111 61 116.812 60.8927 116.607 60.678C116.411 60.454 116.313 60.174 116.313 59.838V50.64H117.433V60.02H118.497V61H117.503ZM121.655 61C121.263 61 120.964 60.8927 120.759 60.678C120.563 60.454 120.465 60.1647 120.465 59.81V54.756H119.275V53.776H119.947C120.19 53.776 120.353 53.7293 120.437 53.636C120.53 53.5333 120.577 53.3607 120.577 53.118V51.774H121.585V53.776H123.167V54.756H121.585V60.02H123.055V61H121.655ZM130.992 61.168C130.497 61.168 130.049 61.0793 129.648 60.902C129.256 60.7247 128.915 60.4727 128.626 60.146C128.346 59.81 128.127 59.4133 127.968 58.956C127.819 58.4893 127.744 57.9667 127.744 57.388C127.744 56.8187 127.819 56.3007 127.968 55.834C128.127 55.3673 128.346 54.9707 128.626 54.644C128.915 54.308 129.256 54.0513 129.648 53.874C130.049 53.6967 130.497 53.608 130.992 53.608C131.477 53.608 131.911 53.6967 132.294 53.874C132.677 54.0513 133.003 54.2987 133.274 54.616C133.545 54.924 133.75 55.2927 133.89 55.722C134.039 56.1513 134.114 56.6227 134.114 57.136V57.668H128.92V58.004C128.92 58.312 128.967 58.6013 129.06 58.872C129.163 59.1333 129.303 59.362 129.48 59.558C129.667 59.754 129.891 59.908 130.152 60.02C130.423 60.132 130.726 60.188 131.062 60.188C131.519 60.188 131.916 60.0807 132.252 59.866C132.597 59.6513 132.863 59.3433 133.05 58.942L133.848 59.516C133.615 60.0107 133.251 60.412 132.756 60.72C132.261 61.0187 131.673 61.168 130.992 61.168ZM130.992 54.546C130.684 54.546 130.404 54.602 130.152 54.714C129.9 54.8167 129.681 54.966 129.494 55.162C129.317 55.358 129.177 55.5913 129.074 55.862C128.971 56.1233 128.92 56.4127 128.92 56.73V56.828H132.91V56.674C132.91 56.03 132.733 55.5167 132.378 55.134C132.033 54.742 131.571 54.546 130.992 54.546ZM136.352 54.756H135.176V53.776H136.352V52.32C136.352 51.816 136.482 51.41 136.744 51.102C137.005 50.794 137.402 50.64 137.934 50.64H139.026V51.62H137.472V53.776H139.026V54.756H137.472V61H136.352V54.756ZM142.095 61C141.703 61 141.404 60.8927 141.199 60.678C141.003 60.454 140.905 60.1647 140.905 59.81V54.756H139.715V53.776H140.387C140.629 53.776 140.793 53.7293 140.877 53.636C140.97 53.5333 141.017 53.3607 141.017 53.118V51.774H142.025V53.776H143.607V54.756H142.025V60.02H143.495V61H142.095ZM148.068 61.168C147.573 61.168 147.125 61.0793 146.724 60.902C146.332 60.7247 145.991 60.4727 145.702 60.146C145.422 59.81 145.203 59.4133 145.044 58.956C144.895 58.4893 144.82 57.9667 144.82 57.388C144.82 56.8187 144.895 56.3007 145.044 55.834C145.203 55.3673 145.422 54.9707 145.702 54.644C145.991 54.308 146.332 54.0513 146.724 53.874C147.125 53.6967 147.573 53.608 148.068 53.608C148.553 53.608 148.987 53.6967 149.37 53.874C149.753 54.0513 150.079 54.2987 150.35 54.616C150.621 54.924 150.826 55.2927 150.966 55.722C151.115 56.1513 151.19 56.6227 151.19 57.136V57.668H145.996V58.004C145.996 58.312 146.043 58.6013 146.136 58.872C146.239 59.1333 146.379 59.362 146.556 59.558C146.743 59.754 146.967 59.908 147.228 60.02C147.499 60.132 147.802 60.188 148.138 60.188C148.595 60.188 148.992 60.0807 149.328 59.866C149.673 59.6513 149.939 59.3433 150.126 58.942L150.924 59.516C150.691 60.0107 150.327 60.412 149.832 60.72C149.337 61.0187 148.749 61.168 148.068 61.168ZM148.068 54.546C147.76 54.546 147.48 54.602 147.228 54.714C146.976 54.8167 146.757 54.966 146.57 55.162C146.393 55.358 146.253 55.5913 146.15 55.862C146.047 56.1233 145.996 56.4127 145.996 56.73V56.828H149.986V56.674C149.986 56.03 149.809 55.5167 149.454 55.134C149.109 54.742 148.647 54.546 148.068 54.546ZM153.036 61V53.776H154.156V55.106H154.226C154.356 54.7607 154.59 54.4527 154.926 54.182C155.262 53.9113 155.724 53.776 156.312 53.776H156.746V54.896H156.088C155.481 54.896 155.005 55.0127 154.66 55.246C154.324 55.47 154.156 55.7547 154.156 56.1V61H153.036ZM163.655 61.168C162.983 61.168 162.418 61.042 161.961 60.79C161.513 60.5287 161.126 60.1833 160.799 59.754L161.597 59.11C161.877 59.4647 162.19 59.74 162.535 59.936C162.88 60.1227 163.282 60.216 163.739 60.216C164.215 60.216 164.584 60.1133 164.845 59.908C165.116 59.7027 165.251 59.4133 165.251 59.04C165.251 58.76 165.158 58.522 164.971 58.326C164.794 58.1207 164.467 57.9807 163.991 57.906L163.417 57.822C163.081 57.7753 162.773 57.7053 162.493 57.612C162.213 57.5093 161.966 57.3787 161.751 57.22C161.546 57.052 161.382 56.8467 161.261 56.604C161.149 56.3613 161.093 56.072 161.093 55.736C161.093 55.3813 161.158 55.0733 161.289 54.812C161.42 54.5413 161.597 54.3173 161.821 54.14C162.054 53.9627 162.33 53.832 162.647 53.748C162.964 53.6547 163.305 53.608 163.669 53.608C164.257 53.608 164.747 53.7107 165.139 53.916C165.54 54.1213 165.89 54.406 166.189 54.77L165.447 55.442C165.288 55.218 165.055 55.0173 164.747 54.84C164.439 54.6533 164.052 54.56 163.585 54.56C163.118 54.56 162.764 54.6627 162.521 54.868C162.288 55.064 162.171 55.3347 162.171 55.68C162.171 56.0347 162.288 56.2913 162.521 56.45C162.764 56.6087 163.109 56.7253 163.557 56.8L164.117 56.884C164.92 57.0053 165.489 57.2387 165.825 57.584C166.161 57.92 166.329 58.3633 166.329 58.914C166.329 59.614 166.091 60.1647 165.615 60.566C165.139 60.9673 164.486 61.168 163.655 61.168ZM168.307 50.64H169.427V57.206H169.483L170.589 55.974L172.633 53.776H173.991L171.317 56.632L174.257 61H172.899L170.505 57.318L169.427 58.424V61H168.307V50.64ZM180.872 61C180.452 61 180.148 60.888 179.962 60.664C179.784 60.44 179.672 60.16 179.626 59.824H179.556C179.397 60.272 179.136 60.608 178.772 60.832C178.408 61.056 177.974 61.168 177.47 61.168C176.704 61.168 176.107 60.972 175.678 60.58C175.258 60.188 175.048 59.656 175.048 58.984C175.048 58.3027 175.295 57.78 175.79 57.416C176.294 57.052 177.073 56.87 178.128 56.87H179.556V56.156C179.556 55.6427 179.416 55.2507 179.136 54.98C178.856 54.7093 178.426 54.574 177.848 54.574C177.409 54.574 177.04 54.672 176.742 54.868C176.452 55.064 176.21 55.3253 176.014 55.652L175.342 55.022C175.538 54.63 175.85 54.2987 176.28 54.028C176.709 53.748 177.25 53.608 177.904 53.608C178.781 53.608 179.462 53.8227 179.948 54.252C180.433 54.6813 180.676 55.2787 180.676 56.044V60.02H181.502V61H180.872ZM177.652 60.216C177.932 60.216 178.188 60.1833 178.422 60.118C178.655 60.0527 178.856 59.9593 179.024 59.838C179.192 59.7167 179.322 59.5767 179.416 59.418C179.509 59.2593 179.556 59.0867 179.556 58.9V57.71H178.072C177.428 57.71 176.956 57.8033 176.658 57.99C176.368 58.1767 176.224 58.4473 176.224 58.802V59.096C176.224 59.4507 176.35 59.726 176.602 59.922C176.863 60.118 177.213 60.216 177.652 60.216ZM184.696 61C184.304 61 184.005 60.8927 183.8 60.678C183.604 60.454 183.506 60.1647 183.506 59.81V54.756H182.316V53.776H182.988C183.231 53.776 183.394 53.7293 183.478 53.636C183.571 53.5333 183.618 53.3607 183.618 53.118V51.774H184.626V53.776H186.208V54.756H184.626V60.02H186.096V61H184.696ZM188.722 59.362C189.021 59.362 189.236 59.4413 189.366 59.6C189.506 59.7493 189.576 59.9453 189.576 60.188V60.384C189.576 60.7667 189.464 61.1867 189.24 61.644C189.016 62.1107 188.704 62.5167 188.302 62.862H187.364C187.644 62.5633 187.868 62.2787 188.036 62.008C188.214 61.7467 188.34 61.4527 188.414 61.126C188.228 61.0793 188.088 60.9907 187.994 60.86C187.91 60.7293 187.868 60.5707 187.868 60.384V60.188C187.868 59.9453 187.934 59.7493 188.064 59.6C188.204 59.4413 188.424 59.362 188.722 59.362ZM38.42 85L37.44 82.116H33.492L32.512 85H31.322L34.738 75.228H36.236L39.652 85H38.42ZM35.494 76.32H35.424L33.772 81.08H37.146L35.494 76.32ZM48.8868 76.768H48.8168L47.9908 78.406L45.6528 82.662L43.3148 78.406L42.4888 76.768H42.4188V85H41.2708V75.228H42.8388L45.6388 80.492H45.7088L48.5228 75.228H50.0348V85H48.8868V76.768ZM52.2961 81.346V80.142H55.9501V81.346H52.2961ZM58.1119 74.64H59.2319V78.952H59.2879C59.4745 78.4947 59.7452 78.1587 60.0999 77.944C60.4639 77.72 60.8979 77.608 61.4019 77.608C61.8499 77.608 62.2559 77.6967 62.6199 77.874C62.9839 78.0513 63.2919 78.3033 63.5439 78.63C63.8052 78.9567 64.0012 79.3533 64.1319 79.82C64.2719 80.2867 64.3419 80.8093 64.3419 81.388C64.3419 81.9667 64.2719 82.4893 64.1319 82.956C64.0012 83.4227 63.8052 83.8193 63.5439 84.146C63.2919 84.4727 62.9839 84.7247 62.6199 84.902C62.2559 85.0793 61.8499 85.168 61.4019 85.168C60.4219 85.168 59.7172 84.72 59.2879 83.824H59.2319V85H58.1119V74.64ZM61.0939 84.16C61.7285 84.16 62.2279 83.964 62.5919 83.572C62.9559 83.1707 63.1379 82.648 63.1379 82.004V80.772C63.1379 80.128 62.9559 79.61 62.5919 79.218C62.2279 78.8167 61.7285 78.616 61.0939 78.616C60.8419 78.616 60.5992 78.6533 60.3659 78.728C60.1419 78.7933 59.9459 78.8867 59.7779 79.008C59.6099 79.1293 59.4745 79.2787 59.3719 79.456C59.2785 79.624 59.2319 79.806 59.2319 80.002V82.69C59.2319 82.9233 59.2785 83.1333 59.3719 83.32C59.4745 83.4973 59.6099 83.6513 59.7779 83.782C59.9459 83.9033 60.1419 83.9967 60.3659 84.062C60.5992 84.1273 60.8419 84.16 61.0939 84.16ZM66.793 76.082C66.5503 76.082 66.373 76.026 66.261 75.914C66.1583 75.7927 66.107 75.6387 66.107 75.452V75.27C66.107 75.0833 66.1583 74.934 66.261 74.822C66.373 74.7007 66.5503 74.64 66.793 74.64C67.0356 74.64 67.2083 74.7007 67.311 74.822C67.423 74.934 67.479 75.0833 67.479 75.27V75.452C67.479 75.6387 67.423 75.7927 67.311 75.914C67.2083 76.026 67.0356 76.082 66.793 76.082ZM66.233 77.776H67.353V85H66.233V77.776ZM74.353 83.824H74.297C73.8583 84.72 73.1536 85.168 72.183 85.168C71.735 85.168 71.329 85.0793 70.965 84.902C70.601 84.7247 70.2883 84.4727 70.027 84.146C69.775 83.8193 69.579 83.4227 69.439 82.956C69.3083 82.4893 69.243 81.9667 69.243 81.388C69.243 80.8093 69.3083 80.2867 69.439 79.82C69.579 79.3533 69.775 78.9567 70.027 78.63C70.2883 78.3033 70.601 78.0513 70.965 77.874C71.329 77.6967 71.735 77.608 72.183 77.608C72.687 77.608 73.1163 77.72 73.471 77.944C73.835 78.1587 74.1103 78.4947 74.297 78.952H74.353V74.64H75.473V85H74.353V83.824ZM72.491 84.16C72.743 84.16 72.981 84.1273 73.205 84.062C73.4383 83.9967 73.639 83.9033 73.807 83.782C73.975 83.6513 74.1056 83.4973 74.199 83.32C74.3016 83.1333 74.353 82.9233 74.353 82.69V80.002C74.353 79.806 74.3016 79.624 74.199 79.456C74.1056 79.2787 73.975 79.1293 73.807 79.008C73.639 78.8867 73.4383 78.7933 73.205 78.728C72.981 78.6533 72.743 78.616 72.491 78.616C71.8563 78.616 71.357 78.8167 70.993 79.218C70.629 79.61 70.447 80.128 70.447 80.772V82.004C70.447 82.648 70.629 83.1707 70.993 83.572C71.357 83.964 71.8563 84.16 72.491 84.16ZM77.8541 85V77.776H78.9741V79.106H79.0441C79.1747 78.7607 79.4081 78.4527 79.7441 78.182C80.0801 77.9113 80.5421 77.776 81.1301 77.776H81.5641V78.896H80.9061C80.2994 78.896 79.8234 79.0127 79.4781 79.246C79.1421 79.47 78.9741 79.7547 78.9741 80.1V85H77.8541ZM88.19 85C87.77 85 87.4667 84.888 87.28 84.664C87.1027 84.44 86.9907 84.16 86.944 83.824H86.874C86.7153 84.272 86.454 84.608 86.09 84.832C85.726 85.056 85.292 85.168 84.788 85.168C84.0227 85.168 83.4253 84.972 82.996 84.58C82.576 84.188 82.366 83.656 82.366 82.984C82.366 82.3027 82.6133 81.78 83.108 81.416C83.612 81.052 84.3913 80.87 85.446 80.87H86.874V80.156C86.874 79.6427 86.734 79.2507 86.454 78.98C86.174 78.7093 85.7447 78.574 85.166 78.574C84.7273 78.574 84.3587 78.672 84.06 78.868C83.7707 79.064 83.528 79.3253 83.332 79.652L82.66 79.022C82.856 78.63 83.1687 78.2987 83.598 78.028C84.0273 77.748 84.5687 77.608 85.222 77.608C86.0993 77.608 86.7807 77.8227 87.266 78.252C87.7513 78.6813 87.994 79.2787 87.994 80.044V84.02H88.82V85H88.19ZM84.97 84.216C85.25 84.216 85.5067 84.1833 85.74 84.118C85.9733 84.0527 86.174 83.9593 86.342 83.838C86.51 83.7167 86.6407 83.5767 86.734 83.418C86.8273 83.2593 86.874 83.0867 86.874 82.9V81.71H85.39C84.746 81.71 84.2747 81.8033 83.976 81.99C83.6867 82.1767 83.542 82.4473 83.542 82.802V83.096C83.542 83.4507 83.668 83.726 83.92 83.922C84.1813 84.118 84.5313 84.216 84.97 84.216ZM96.5085 85.798C96.5085 86.5447 96.2145 87.0907 95.6265 87.436C95.0478 87.7907 94.1752 87.968 93.0085 87.968C91.8792 87.968 91.0672 87.814 90.5725 87.506C90.0778 87.198 89.8305 86.7593 89.8305 86.19C89.8305 85.798 89.9332 85.49 90.1385 85.266C90.3438 85.0513 90.6238 84.8927 90.9785 84.79V84.636C90.5492 84.4307 90.3345 84.0947 90.3345 83.628C90.3345 83.264 90.4512 82.9887 90.6845 82.802C90.9178 82.606 91.2165 82.4613 91.5805 82.368V82.312C91.1512 82.1067 90.8152 81.8127 90.5725 81.43C90.3392 81.0473 90.2225 80.604 90.2225 80.1C90.2225 79.736 90.2878 79.4 90.4185 79.092C90.5492 78.784 90.7312 78.5227 90.9645 78.308C91.2072 78.084 91.4918 77.9113 91.8185 77.79C92.1545 77.6687 92.5278 77.608 92.9385 77.608C93.4518 77.608 93.9092 77.7013 94.3105 77.888V77.762C94.3105 77.482 94.3758 77.2533 94.5065 77.076C94.6372 76.8893 94.8518 76.796 95.1505 76.796H96.2285V77.776H94.8565V78.238C95.1178 78.462 95.3185 78.7327 95.4585 79.05C95.6078 79.358 95.6825 79.708 95.6825 80.1C95.6825 80.464 95.6172 80.8 95.4865 81.108C95.3558 81.416 95.1692 81.682 94.9265 81.906C94.6932 82.1207 94.4085 82.2887 94.0725 82.41C93.7365 82.5313 93.3632 82.592 92.9525 82.592C92.7192 82.592 92.4858 82.5687 92.2525 82.522C92.0098 82.5873 91.7905 82.6853 91.5945 82.816C91.3985 82.9373 91.3005 83.11 91.3005 83.334C91.3005 83.5487 91.4032 83.6933 91.6085 83.768C91.8138 83.8427 92.0798 83.88 92.4065 83.88H93.9465C94.8425 83.88 95.4912 84.0527 95.8925 84.398C96.3032 84.734 96.5085 85.2007 96.5085 85.798ZM95.4585 85.882C95.4585 85.5927 95.3465 85.3593 95.1225 85.182C94.9078 85.014 94.5205 84.93 93.9605 84.93H91.5525C91.1045 85.1353 90.8805 85.462 90.8805 85.91C90.8805 86.2273 90.9972 86.498 91.2305 86.722C91.4732 86.946 91.8792 87.058 92.4485 87.058H93.4845C94.1098 87.058 94.5952 86.96 94.9405 86.764C95.2858 86.568 95.4585 86.274 95.4585 85.882ZM92.9525 81.696C93.4285 81.696 93.8065 81.584 94.0865 81.36C94.3665 81.1267 94.5065 80.772 94.5065 80.296V79.904C94.5065 79.428 94.3665 79.078 94.0865 78.854C93.8065 78.6207 93.4285 78.504 92.9525 78.504C92.4765 78.504 92.0985 78.6207 91.8185 78.854C91.5385 79.078 91.3985 79.428 91.3985 79.904V80.296C91.3985 80.772 91.5385 81.1267 91.8185 81.36C92.0985 81.584 92.4765 81.696 92.9525 81.696ZM101.124 85V77.776H102.244V78.952H102.3C102.384 78.7653 102.477 78.5927 102.58 78.434C102.692 78.266 102.822 78.1213 102.972 78C103.13 77.8787 103.312 77.7853 103.518 77.72C103.723 77.6453 103.966 77.608 104.246 77.608C104.722 77.608 105.16 77.7247 105.562 77.958C105.963 78.182 106.262 78.5553 106.458 79.078H106.486C106.616 78.686 106.859 78.3453 107.214 78.056C107.578 77.7573 108.068 77.608 108.684 77.608C109.421 77.608 109.995 77.8507 110.406 78.336C110.826 78.812 111.036 79.4887 111.036 80.366V85H109.916V80.562C109.916 79.918 109.79 79.4327 109.538 79.106C109.286 78.7793 108.884 78.616 108.334 78.616C108.11 78.616 107.895 78.644 107.69 78.7C107.494 78.756 107.316 78.84 107.158 78.952C106.999 79.064 106.873 79.2087 106.78 79.386C106.686 79.554 106.64 79.7547 106.64 79.988V85H105.52V80.562C105.52 79.918 105.394 79.4327 105.142 79.106C104.89 78.7793 104.498 78.616 103.966 78.616C103.742 78.616 103.527 78.644 103.322 78.7C103.116 78.756 102.934 78.84 102.776 78.952C102.617 79.064 102.486 79.2087 102.384 79.386C102.29 79.554 102.244 79.7547 102.244 79.988V85H101.124ZM114.06 85.168C113.762 85.168 113.542 85.0933 113.402 84.944C113.272 84.7947 113.206 84.5987 113.206 84.356V84.174C113.206 83.9313 113.272 83.7353 113.402 83.586C113.542 83.4367 113.762 83.362 114.06 83.362C114.359 83.362 114.574 83.4367 114.704 83.586C114.844 83.7353 114.914 83.9313 114.914 84.174V84.356C114.914 84.5987 114.844 84.7947 114.704 84.944C114.574 85.0933 114.359 85.168 114.06 85.168ZM117.161 85V77.776H118.281V78.952H118.337C118.421 78.7653 118.514 78.5927 118.617 78.434C118.729 78.266 118.859 78.1213 119.009 78C119.167 77.8787 119.349 77.7853 119.555 77.72C119.76 77.6453 120.003 77.608 120.283 77.608C120.759 77.608 121.197 77.7247 121.599 77.958C122 78.182 122.299 78.5553 122.495 79.078H122.523C122.653 78.686 122.896 78.3453 123.251 78.056C123.615 77.7573 124.105 77.608 124.721 77.608C125.458 77.608 126.032 77.8507 126.443 78.336C126.863 78.812 127.073 79.4887 127.073 80.366V85H125.953V80.562C125.953 79.918 125.827 79.4327 125.575 79.106C125.323 78.7793 124.921 78.616 124.371 78.616C124.147 78.616 123.932 78.644 123.727 78.7C123.531 78.756 123.353 78.84 123.195 78.952C123.036 79.064 122.91 79.2087 122.817 79.386C122.723 79.554 122.677 79.7547 122.677 79.988V85H121.557V80.562C121.557 79.918 121.431 79.4327 121.179 79.106C120.927 78.7793 120.535 78.616 120.003 78.616C119.779 78.616 119.564 78.644 119.359 78.7C119.153 78.756 118.971 78.84 118.813 78.952C118.654 79.064 118.523 79.2087 118.421 79.386C118.327 79.554 118.281 79.7547 118.281 79.988V85H117.161ZM130.097 85.168C129.799 85.168 129.579 85.0933 129.439 84.944C129.309 84.7947 129.243 84.5987 129.243 84.356V84.174C129.243 83.9313 129.309 83.7353 129.439 83.586C129.579 83.4367 129.799 83.362 130.097 83.362C130.396 83.362 130.611 83.4367 130.741 83.586C130.881 83.7353 130.951 83.9313 130.951 84.174V84.356C130.951 84.5987 130.881 84.7947 130.741 84.944C130.611 85.0933 130.396 85.168 130.097 85.168Z" fill="white"/>
<path d="M117.414 102.586C116.633 103.367 115.367 103.367 114.586 102.586L108 96L124 96L117.414 102.586Z" fill="#454545"/>
</g>
<path d="M116 128C114.022 128 112.089 127.414 110.444 126.315C108.8 125.216 107.518 123.654 106.761 121.827C106.004 120 105.806 117.989 106.192 116.049C106.578 114.109 107.53 112.327 108.929 110.929C110.327 109.53 112.109 108.578 114.049 108.192C115.989 107.806 118 108.004 119.827 108.761C121.654 109.518 123.216 110.8 124.315 112.444C125.414 114.089 126 116.022 126 118C125.997 120.651 124.943 123.193 123.068 125.068C121.193 126.943 118.651 127.997 116 128V128ZM116 110C114.418 110 112.871 110.469 111.555 111.348C110.24 112.227 109.214 113.477 108.609 114.939C108.003 116.4 107.845 118.009 108.154 119.561C108.462 121.113 109.224 122.538 110.343 123.657C111.462 124.776 112.887 125.538 114.439 125.846C115.991 126.155 117.6 125.997 119.061 125.391C120.523 124.786 121.773 123.76 122.652 122.445C123.531 121.129 124 119.582 124 118C123.998 115.879 123.154 113.846 121.654 112.346C120.154 110.846 118.121 110.002 116 110V110ZM117 124H115V122H117V124ZM117 121H115C114.984 120.361 115.14 119.729 115.452 119.17C115.763 118.611 116.218 118.145 116.77 117.822C117.43 117.316 118 116.879 118 116C118 115.47 117.789 114.961 117.414 114.586C117.039 114.211 116.53 114 116 114C115.47 114 114.961 114.211 114.586 114.586C114.211 114.961 114 115.47 114 116H112C112 114.939 112.421 113.922 113.172 113.172C113.922 112.421 114.939 112 116 112C117.061 112 118.078 112.421 118.828 113.172C119.579 113.922 120 114.939 120 116C119.965 116.532 119.805 117.049 119.534 117.508C119.263 117.967 118.889 118.357 118.44 118.645C118.034 118.9 117.693 119.245 117.443 119.653C117.194 120.062 117.042 120.523 117 121V121Z" fill="#1A1A1A"/>
<defs>
<filter id="filter0_d_10111_18818" x="11" y="12" width="210" height="103.172" filterUnits="userSpaceOnUse" color-interpolation-filters="sRGB">
<feFlood flood-opacity="0" result="BackgroundImageFix"/>
<feColorMatrix in="SourceAlpha" type="matrix" values="0 0 0 0 0 0 0 0 0 0 0 0 0 0 0 0 0 0 127 0" result="hardAlpha"/>
<feOffset dy="4"/>
<feGaussianBlur stdDeviation="4"/>
<feColorMatrix type="matrix" values="0 0 0 0 0 0 0 0 0 0 0 0 0 0 0 0 0 0 0.302 0"/>
<feBlend mode="normal" in2="BackgroundImageFix" result="effect1_dropShadow_10111_18818"/>
<feBlend mode="normal" in="SourceGraphic" in2="effect1_dropShadow_10111_18818" result="shape"/>
</filter>
</defs>
</svg>
