<svg width="418" height="217" viewBox="0 0 418 217" fill="none" xmlns="http://www.w3.org/2000/svg">
<rect width="418" height="217" fill="white"/>
<rect x="16.5" y="113.5" width="139" height="39" rx="3.5" fill="white" stroke="#747474"/>
<path d="M21.648 100.192C20.912 100.192 20.2453 100.075 19.648 99.84C19.0613 99.5947 18.5547 99.232 18.128 98.752C17.712 98.272 17.392 97.68 17.168 96.976C16.944 96.2613 16.832 95.4347 16.832 94.496C16.832 93.5573 16.944 92.7253 17.168 92C17.392 91.264 17.712 90.6507 18.128 90.16C18.5547 89.6587 19.0613 89.28 19.648 89.024C20.2453 88.768 20.912 88.64 21.648 88.64C22.6507 88.64 23.4827 88.8533 24.144 89.28C24.8053 89.7067 25.3333 90.352 25.728 91.216L23.92 92.176C23.76 91.6747 23.4987 91.2747 23.136 90.976C22.7733 90.6667 22.2773 90.512 21.648 90.512C20.8587 90.512 20.2293 90.7787 19.76 91.312C19.3013 91.8453 19.072 92.592 19.072 93.552V95.312C19.072 96.2827 19.3013 97.0293 19.76 97.552C20.2293 98.064 20.8587 98.32 21.648 98.32C22.2773 98.32 22.7893 98.1493 23.184 97.808C23.5893 97.4667 23.8827 97.0453 24.064 96.544L25.776 97.552C25.3707 98.384 24.832 99.0347 24.16 99.504C23.488 99.9627 22.6507 100.192 21.648 100.192ZM27.5776 100V88.832H32.6016C33.1136 88.832 33.5723 88.9173 33.9776 89.088C34.3936 89.248 34.7456 89.4827 35.0336 89.792C35.3216 90.0907 35.5403 90.4533 35.6896 90.88C35.839 91.3067 35.9136 91.776 35.9136 92.288C35.9136 92.8107 35.839 93.2853 35.6896 93.712C35.5403 94.128 35.3216 94.4907 35.0336 94.8C34.7456 95.0987 34.3936 95.3333 33.9776 95.504C33.5723 95.664 33.1136 95.744 32.6016 95.744H29.6896V100H27.5776ZM29.6896 93.92H32.4096C32.815 93.92 33.135 93.8133 33.3696 93.6C33.6043 93.376 33.7216 93.0613 33.7216 92.656V91.92C33.7216 91.5147 33.6043 91.2053 33.3696 90.992C33.135 90.7787 32.815 90.672 32.4096 90.672H29.6896V93.92ZM39.9396 100H37.8276V88.832H42.8676C43.3796 88.832 43.8383 88.912 44.2436 89.072C44.649 89.232 44.9903 89.4667 45.2676 89.776C45.5556 90.0747 45.7743 90.4373 45.9236 90.864C46.0836 91.2907 46.1636 91.7653 46.1636 92.288C46.1636 93.056 45.9876 93.7173 45.6356 94.272C45.2943 94.8267 44.777 95.2213 44.0836 95.456L46.3716 100H44.0196L41.9396 95.696H39.9396V100ZM42.6596 93.92C43.065 93.92 43.385 93.8133 43.6196 93.6C43.8543 93.376 43.9716 93.0613 43.9716 92.656V91.92C43.9716 91.5147 43.8543 91.2053 43.6196 90.992C43.385 90.7787 43.065 90.672 42.6596 90.672H39.9396V93.92H42.6596ZM47.8343 96.144V94.112H52.4103V96.144H47.8343ZM54.5278 100V91.648H56.5758V93.04H56.6558C56.8264 92.592 57.0931 92.2187 57.4557 91.92C57.8291 91.6107 58.3411 91.456 58.9918 91.456C59.8558 91.456 60.5171 91.7387 60.9758 92.304C61.4344 92.8693 61.6638 93.6747 61.6638 94.72V100H59.6158V94.928C59.6158 94.3307 59.5091 93.8827 59.2958 93.584C59.0824 93.2853 58.7304 93.136 58.2398 93.136C58.0264 93.136 57.8184 93.168 57.6158 93.232C57.4238 93.2853 57.2478 93.3707 57.0878 93.488C56.9384 93.5947 56.8158 93.7333 56.7198 93.904C56.6238 94.064 56.5758 94.256 56.5758 94.48V100H54.5278ZM68.926 98.608H68.846C68.7713 98.8213 68.67 99.024 68.542 99.216C68.4247 99.3973 68.27 99.5627 68.078 99.712C67.8967 99.8613 67.6727 99.9787 67.406 100.064C67.15 100.149 66.8513 100.192 66.51 100.192C65.646 100.192 64.9847 99.9093 64.526 99.344C64.0673 98.7787 63.838 97.9733 63.838 96.928V91.648H65.886V96.72C65.886 97.296 65.998 97.7387 66.222 98.048C66.446 98.3467 66.8033 98.496 67.294 98.496C67.4967 98.496 67.694 98.4693 67.886 98.416C68.0887 98.3627 68.2647 98.2827 68.414 98.176C68.5633 98.0587 68.686 97.92 68.782 97.76C68.878 97.5893 68.926 97.392 68.926 97.168V91.648H70.974V100H68.926V98.608ZM73.3403 100V91.648H75.3883V93.04H75.4683C75.6283 92.6027 75.8843 92.2293 76.2363 91.92C76.5883 91.6107 77.0789 91.456 77.7083 91.456C78.2843 91.456 78.7803 91.5947 79.1963 91.872C79.6123 92.1493 79.9216 92.5707 80.1243 93.136H80.1562C80.3056 92.6667 80.5989 92.272 81.0363 91.952C81.4843 91.6213 82.0443 91.456 82.7163 91.456C83.5376 91.456 84.1669 91.7387 84.6043 92.304C85.0523 92.8693 85.2763 93.6747 85.2763 94.72V100H83.2283V94.928C83.2283 93.7333 82.7803 93.136 81.8843 93.136C81.6816 93.136 81.4843 93.168 81.2923 93.232C81.1109 93.2853 80.9456 93.3707 80.7963 93.488C80.6576 93.5947 80.5456 93.7333 80.4603 93.904C80.3749 94.064 80.3323 94.256 80.3323 94.48V100H78.2843V94.928C78.2843 93.7333 77.8363 93.136 76.9403 93.136C76.7483 93.136 76.5563 93.168 76.3643 93.232C76.1829 93.2853 76.0176 93.3707 75.8683 93.488C75.7296 93.5947 75.6123 93.7333 75.5163 93.904C75.4309 94.064 75.3883 94.256 75.3883 94.48V100H73.3403ZM87.5434 100V91.648H89.5914V93.04H89.6714C89.8314 92.6027 90.0874 92.2293 90.4394 91.92C90.7914 91.6107 91.282 91.456 91.9114 91.456C92.4874 91.456 92.9834 91.5947 93.3994 91.872C93.8154 92.1493 94.1247 92.5707 94.3274 93.136H94.3594C94.5087 92.6667 94.802 92.272 95.2394 91.952C95.6874 91.6213 96.2474 91.456 96.9194 91.456C97.7407 91.456 98.37 91.7387 98.8074 92.304C99.2554 92.8693 99.4794 93.6747 99.4794 94.72V100H97.4314V94.928C97.4314 93.7333 96.9834 93.136 96.0874 93.136C95.8847 93.136 95.6874 93.168 95.4954 93.232C95.314 93.2853 95.1487 93.3707 94.9994 93.488C94.8607 93.5947 94.7487 93.7333 94.6634 93.904C94.578 94.064 94.5354 94.256 94.5354 94.48V100H92.4874V94.928C92.4874 93.7333 92.0394 93.136 91.1434 93.136C90.9514 93.136 90.7594 93.168 90.5674 93.232C90.386 93.2853 90.2207 93.3707 90.0714 93.488C89.9327 93.5947 89.8154 93.7333 89.7194 93.904C89.634 94.064 89.5914 94.256 89.5914 94.48V100H87.5434ZM105.123 100.192C104.504 100.192 103.949 100.091 103.459 99.888C102.979 99.6747 102.568 99.3813 102.227 99.008C101.896 98.624 101.64 98.1653 101.459 97.632C101.277 97.088 101.187 96.48 101.187 95.808C101.187 95.1467 101.272 94.5493 101.443 94.016C101.624 93.4827 101.88 93.0293 102.211 92.656C102.541 92.272 102.947 91.9787 103.427 91.776C103.907 91.5627 104.451 91.456 105.059 91.456C105.709 91.456 106.275 91.568 106.755 91.792C107.235 92.016 107.629 92.32 107.939 92.704C108.248 93.088 108.477 93.536 108.627 94.048C108.787 94.5493 108.867 95.088 108.867 95.664V96.336H103.315V96.544C103.315 97.152 103.485 97.6427 103.827 98.016C104.168 98.3787 104.675 98.56 105.347 98.56C105.859 98.56 106.275 98.4533 106.595 98.24C106.925 98.0267 107.219 97.7547 107.475 97.424L108.579 98.656C108.237 99.136 107.768 99.5147 107.171 99.792C106.584 100.059 105.901 100.192 105.123 100.192ZM105.091 92.992C104.547 92.992 104.115 93.1733 103.795 93.536C103.475 93.8987 103.315 94.368 103.315 94.944V95.072H106.739V94.928C106.739 94.352 106.595 93.888 106.307 93.536C106.029 93.1733 105.624 92.992 105.091 92.992ZM110.668 100V91.648H112.716V93.376H112.796C112.85 93.152 112.93 92.9387 113.036 92.736C113.154 92.5227 113.303 92.336 113.484 92.176C113.666 92.016 113.879 91.888 114.124 91.792C114.38 91.696 114.674 91.648 115.004 91.648H115.452V93.584H114.812C114.119 93.584 113.596 93.6853 113.244 93.888C112.892 94.0907 112.716 94.4213 112.716 94.88V100H110.668Z" fill="#1A1A1A"/>
<g filter="url(#filter0_d_10119_18946)">
<rect x="47" y="16" width="170" height="56" rx="4" fill="#454545"/>
<path d="M60.302 27.228H63.578C64.1847 27.228 64.7353 27.3307 65.23 27.536C65.7247 27.7413 66.1447 28.0493 66.49 28.46C66.8447 28.8613 67.1153 29.37 67.302 29.986C67.4887 30.5927 67.582 31.302 67.582 32.114C67.582 32.926 67.4887 33.64 67.302 34.256C67.1153 34.8627 66.8447 35.3713 66.49 35.782C66.1447 36.1833 65.7247 36.4867 65.23 36.692C64.7353 36.8973 64.1847 37 63.578 37H60.302V27.228ZM63.578 35.964C63.9793 35.964 64.348 35.8987 64.684 35.768C65.02 35.628 65.3093 35.4273 65.552 35.166C65.7947 34.9047 65.9813 34.5873 66.112 34.214C66.252 33.8313 66.322 33.3973 66.322 32.912V31.316C66.322 30.8307 66.252 30.4013 66.112 30.028C65.9813 29.6453 65.7947 29.3233 65.552 29.062C65.3093 28.8007 65.02 28.6047 64.684 28.474C64.348 28.334 63.9793 28.264 63.578 28.264H61.478V35.964H63.578ZM70.1426 28.082C69.8999 28.082 69.7226 28.026 69.6106 27.914C69.5079 27.7927 69.4566 27.6387 69.4566 27.452V27.27C69.4566 27.0833 69.5079 26.934 69.6106 26.822C69.7226 26.7007 69.8999 26.64 70.1426 26.64C70.3852 26.64 70.5579 26.7007 70.6606 26.822C70.7726 26.934 70.8286 27.0833 70.8286 27.27V27.452C70.8286 27.6387 70.7726 27.7927 70.6606 27.914C70.5579 28.026 70.3852 28.082 70.1426 28.082ZM69.5826 29.776H70.7026V37H69.5826V29.776ZM74.6786 37C74.2866 37 73.9879 36.8927 73.7826 36.678C73.5866 36.454 73.4886 36.1647 73.4886 35.81V30.756H72.2986V29.776H72.9706C73.2132 29.776 73.3766 29.7293 73.4606 29.636C73.5539 29.5333 73.6006 29.3607 73.6006 29.118V27.774H74.6086V29.776H76.1906V30.756H74.6086V36.02H76.0786V37H74.6786ZM84.8554 37.168C83.614 37.168 82.648 36.748 81.9574 35.908C81.2667 35.0587 80.9214 33.8127 80.9214 32.17C80.9214 30.5273 81.2667 29.2673 81.9574 28.39C82.648 27.5033 83.614 27.06 84.8554 27.06C85.6767 27.06 86.3627 27.2467 86.9134 27.62C87.4734 27.9933 87.9074 28.5207 88.2154 29.202L87.2634 29.776C87.0674 29.272 86.7687 28.8707 86.3674 28.572C85.966 28.264 85.462 28.11 84.8554 28.11C84.4354 28.11 84.0574 28.1893 83.7214 28.348C83.3947 28.5067 83.1147 28.7353 82.8814 29.034C82.6574 29.3233 82.4847 29.6733 82.3634 30.084C82.242 30.4853 82.1814 30.938 82.1814 31.442V32.898C82.1814 33.906 82.4147 34.6947 82.8814 35.264C83.348 35.8333 84.006 36.118 84.8554 36.118C85.4807 36.118 86.0034 35.9593 86.4234 35.642C86.8434 35.3153 87.1514 34.886 87.3474 34.354L88.2854 34.942C87.9774 35.6327 87.534 36.1787 86.9554 36.58C86.3767 36.972 85.6767 37.168 84.8554 37.168ZM90.1067 37V27.228H93.9987C94.876 27.228 95.548 27.48 96.0147 27.984C96.4907 28.4787 96.7287 29.16 96.7287 30.028C96.7287 30.896 96.4907 31.582 96.0147 32.086C95.548 32.5807 94.876 32.828 93.9987 32.828H91.2827V37H90.1067ZM91.2827 31.792H93.9987C94.4654 31.792 94.8247 31.6707 95.0767 31.428C95.338 31.1853 95.4687 30.84 95.4687 30.392V29.664C95.4687 29.216 95.338 28.8707 95.0767 28.628C94.8247 28.3853 94.4654 28.264 93.9987 28.264H91.2827V31.792ZM99.7729 37H98.5969V27.228H102.489C103.348 27.228 104.015 27.466 104.491 27.942C104.976 28.418 105.219 29.104 105.219 30C105.219 30.7187 105.051 31.3113 104.715 31.778C104.388 32.2353 103.903 32.5387 103.259 32.688L105.499 37H104.169L102.055 32.8H99.7729V37ZM102.489 31.792C102.956 31.792 103.315 31.6707 103.567 31.428C103.828 31.1853 103.959 30.84 103.959 30.392V29.664C103.959 29.216 103.828 28.8707 103.567 28.628C103.315 28.3853 102.956 28.264 102.489 28.264H99.7729V31.792H102.489ZM107.011 33.346V32.142H110.665V33.346H107.011ZM112.827 37V29.776H113.947V30.952H114.003C114.18 30.5413 114.427 30.2147 114.745 29.972C115.071 29.7293 115.505 29.608 116.047 29.608C116.793 29.608 117.381 29.8507 117.811 30.336C118.249 30.812 118.469 31.4887 118.469 32.366V37H117.349V32.562C117.349 31.2647 116.803 30.616 115.711 30.616C115.487 30.616 115.267 30.644 115.053 30.7C114.847 30.756 114.661 30.84 114.493 30.952C114.325 31.064 114.189 31.2087 114.087 31.386C113.993 31.554 113.947 31.7547 113.947 31.988V37H112.827ZM125.236 35.824H125.18C125.105 35.992 125.012 36.16 124.9 36.328C124.797 36.4867 124.666 36.6313 124.508 36.762C124.349 36.8833 124.158 36.9813 123.934 37.056C123.71 37.1307 123.448 37.168 123.15 37.168C122.403 37.168 121.81 36.93 121.372 36.454C120.933 35.9687 120.714 35.2873 120.714 34.41V29.776H121.834V34.214C121.834 35.5113 122.384 36.16 123.486 36.16C123.71 36.16 123.924 36.132 124.13 36.076C124.344 36.02 124.531 35.936 124.69 35.824C124.858 35.712 124.988 35.572 125.082 35.404C125.184 35.2267 125.236 35.0167 125.236 34.774V29.776H126.356V37H125.236V35.824ZM128.741 37V29.776H129.861V30.952H129.917C130.001 30.7653 130.094 30.5927 130.197 30.434C130.309 30.266 130.439 30.1213 130.589 30C130.747 29.8787 130.929 29.7853 131.135 29.72C131.34 29.6453 131.583 29.608 131.863 29.608C132.339 29.608 132.777 29.7247 133.179 29.958C133.58 30.182 133.879 30.5553 134.075 31.078H134.103C134.233 30.686 134.476 30.3453 134.831 30.056C135.195 29.7573 135.685 29.608 136.301 29.608C137.038 29.608 137.612 29.8507 138.023 30.336C138.443 30.812 138.653 31.4887 138.653 32.366V37H137.533V32.562C137.533 31.918 137.407 31.4327 137.155 31.106C136.903 30.7793 136.501 30.616 135.951 30.616C135.727 30.616 135.512 30.644 135.307 30.7C135.111 30.756 134.933 30.84 134.775 30.952C134.616 31.064 134.49 31.2087 134.397 31.386C134.303 31.554 134.257 31.7547 134.257 31.988V37H133.137V32.562C133.137 31.918 133.011 31.4327 132.759 31.106C132.507 30.7793 132.115 30.616 131.583 30.616C131.359 30.616 131.144 30.644 130.939 30.7C130.733 30.756 130.551 30.84 130.393 30.952C130.234 31.064 130.103 31.2087 130.001 31.386C129.907 31.554 129.861 31.7547 129.861 31.988V37H128.741ZM140.963 37V29.776H142.083V30.952H142.139C142.223 30.7653 142.317 30.5927 142.419 30.434C142.531 30.266 142.662 30.1213 142.811 30C142.97 29.8787 143.152 29.7853 143.357 29.72C143.563 29.6453 143.805 29.608 144.085 29.608C144.561 29.608 145 29.7247 145.401 29.958C145.803 30.182 146.101 30.5553 146.297 31.078H146.325C146.456 30.686 146.699 30.3453 147.053 30.056C147.417 29.7573 147.907 29.608 148.523 29.608C149.261 29.608 149.835 29.8507 150.245 30.336C150.665 30.812 150.875 31.4887 150.875 32.366V37H149.755V32.562C149.755 31.918 149.629 31.4327 149.377 31.106C149.125 30.7793 148.724 30.616 148.173 30.616C147.949 30.616 147.735 30.644 147.529 30.7C147.333 30.756 147.156 30.84 146.997 30.952C146.839 31.064 146.713 31.2087 146.619 31.386C146.526 31.554 146.479 31.7547 146.479 31.988V37H145.359V32.562C145.359 31.918 145.233 31.4327 144.981 31.106C144.729 30.7793 144.337 30.616 143.805 30.616C143.581 30.616 143.367 30.644 143.161 30.7C142.956 30.756 142.774 30.84 142.615 30.952C142.457 31.064 142.326 31.2087 142.223 31.386C142.13 31.554 142.083 31.7547 142.083 31.988V37H140.963ZM155.902 37.168C155.407 37.168 154.959 37.0793 154.558 36.902C154.166 36.7247 153.825 36.4727 153.536 36.146C153.256 35.81 153.037 35.4133 152.878 34.956C152.729 34.4893 152.654 33.9667 152.654 33.388C152.654 32.8187 152.729 32.3007 152.878 31.834C153.037 31.3673 153.256 30.9707 153.536 30.644C153.825 30.308 154.166 30.0513 154.558 29.874C154.959 29.6967 155.407 29.608 155.902 29.608C156.387 29.608 156.821 29.6967 157.204 29.874C157.587 30.0513 157.913 30.2987 158.184 30.616C158.455 30.924 158.66 31.2927 158.8 31.722C158.949 32.1513 159.024 32.6227 159.024 33.136V33.668H153.83V34.004C153.83 34.312 153.877 34.6013 153.97 34.872C154.073 35.1333 154.213 35.362 154.39 35.558C154.577 35.754 154.801 35.908 155.062 36.02C155.333 36.132 155.636 36.188 155.972 36.188C156.429 36.188 156.826 36.0807 157.162 35.866C157.507 35.6513 157.773 35.3433 157.96 34.942L158.758 35.516C158.525 36.0107 158.161 36.412 157.666 36.72C157.171 37.0187 156.583 37.168 155.902 37.168ZM155.902 30.546C155.594 30.546 155.314 30.602 155.062 30.714C154.81 30.8167 154.591 30.966 154.404 31.162C154.227 31.358 154.087 31.5913 153.984 31.862C153.881 32.1233 153.83 32.4127 153.83 32.73V32.828H157.82V32.674C157.82 32.03 157.643 31.5167 157.288 31.134C156.943 30.742 156.481 30.546 155.902 30.546ZM160.87 37V29.776H161.99V31.106H162.06C162.19 30.7607 162.424 30.4527 162.76 30.182C163.096 29.9113 163.558 29.776 164.146 29.776H164.58V30.896H163.922C163.315 30.896 162.839 31.0127 162.494 31.246C162.158 31.47 161.99 31.7547 161.99 32.1V37H160.87ZM171.489 37.168C170.817 37.168 170.252 37.042 169.795 36.79C169.347 36.5287 168.96 36.1833 168.633 35.754L169.431 35.11C169.711 35.4647 170.024 35.74 170.369 35.936C170.714 36.1227 171.116 36.216 171.573 36.216C172.049 36.216 172.418 36.1133 172.679 35.908C172.95 35.7027 173.085 35.4133 173.085 35.04C173.085 34.76 172.992 34.522 172.805 34.326C172.628 34.1207 172.301 33.9807 171.825 33.906L171.251 33.822C170.915 33.7753 170.607 33.7053 170.327 33.612C170.047 33.5093 169.8 33.3787 169.585 33.22C169.38 33.052 169.216 32.8467 169.095 32.604C168.983 32.3613 168.927 32.072 168.927 31.736C168.927 31.3813 168.992 31.0733 169.123 30.812C169.254 30.5413 169.431 30.3173 169.655 30.14C169.888 29.9627 170.164 29.832 170.481 29.748C170.798 29.6547 171.139 29.608 171.503 29.608C172.091 29.608 172.581 29.7107 172.973 29.916C173.374 30.1213 173.724 30.406 174.023 30.77L173.281 31.442C173.122 31.218 172.889 31.0173 172.581 30.84C172.273 30.6533 171.886 30.56 171.419 30.56C170.952 30.56 170.598 30.6627 170.355 30.868C170.122 31.064 170.005 31.3347 170.005 31.68C170.005 32.0347 170.122 32.2913 170.355 32.45C170.598 32.6087 170.943 32.7253 171.391 32.8L171.951 32.884C172.754 33.0053 173.323 33.2387 173.659 33.584C173.995 33.92 174.163 34.3633 174.163 34.914C174.163 35.614 173.925 36.1647 173.449 36.566C172.973 36.9673 172.32 37.168 171.489 37.168ZM176.141 26.64H177.261V33.206H177.317L178.423 31.974L180.467 29.776H181.825L179.151 32.632L182.091 37H180.733L178.339 33.318L177.261 34.424V37H176.141V26.64ZM188.706 37C188.286 37 187.982 36.888 187.796 36.664C187.618 36.44 187.506 36.16 187.46 35.824H187.39C187.231 36.272 186.97 36.608 186.606 36.832C186.242 37.056 185.808 37.168 185.304 37.168C184.538 37.168 183.941 36.972 183.512 36.58C183.092 36.188 182.882 35.656 182.882 34.984C182.882 34.3027 183.129 33.78 183.624 33.416C184.128 33.052 184.907 32.87 185.962 32.87H187.39V32.156C187.39 31.6427 187.25 31.2507 186.97 30.98C186.69 30.7093 186.26 30.574 185.682 30.574C185.243 30.574 184.874 30.672 184.576 30.868C184.286 31.064 184.044 31.3253 183.848 31.652L183.176 31.022C183.372 30.63 183.684 30.2987 184.114 30.028C184.543 29.748 185.084 29.608 185.738 29.608C186.615 29.608 187.296 29.8227 187.782 30.252C188.267 30.6813 188.51 31.2787 188.51 32.044V36.02H189.336V37H188.706ZM185.486 36.216C185.766 36.216 186.022 36.1833 186.256 36.118C186.489 36.0527 186.69 35.9593 186.858 35.838C187.026 35.7167 187.156 35.5767 187.25 35.418C187.343 35.2593 187.39 35.0867 187.39 34.9V33.71H185.906C185.262 33.71 184.79 33.8033 184.492 33.99C184.202 34.1767 184.058 34.4473 184.058 34.802V35.096C184.058 35.4507 184.184 35.726 184.436 35.922C184.697 36.118 185.047 36.216 185.486 36.216ZM192.124 37C191.732 37 191.433 36.8927 191.228 36.678C191.032 36.454 190.934 36.174 190.934 35.838V26.64H192.054V36.02H193.118V37H192.124ZM62.36 61.168C61.688 61.168 61.1233 61.042 60.666 60.79C60.218 60.5287 59.8307 60.1833 59.504 59.754L60.302 59.11C60.582 59.4647 60.8947 59.74 61.24 59.936C61.5853 60.1227 61.9867 60.216 62.444 60.216C62.92 60.216 63.2887 60.1133 63.55 59.908C63.8207 59.7027 63.956 59.4133 63.956 59.04C63.956 58.76 63.8627 58.522 63.676 58.326C63.4987 58.1207 63.172 57.9807 62.696 57.906L62.122 57.822C61.786 57.7753 61.478 57.7053 61.198 57.612C60.918 57.5093 60.6707 57.3787 60.456 57.22C60.2507 57.052 60.0873 56.8467 59.966 56.604C59.854 56.3613 59.798 56.072 59.798 55.736C59.798 55.3813 59.8633 55.0733 59.994 54.812C60.1247 54.5413 60.302 54.3173 60.526 54.14C60.7593 53.9627 61.0347 53.832 61.352 53.748C61.6693 53.6547 62.01 53.608 62.374 53.608C62.962 53.608 63.452 53.7107 63.844 53.916C64.2453 54.1213 64.5953 54.406 64.894 54.77L64.152 55.442C63.9933 55.218 63.76 55.0173 63.452 54.84C63.144 54.6533 62.7567 54.56 62.29 54.56C61.8233 54.56 61.4687 54.6627 61.226 54.868C60.9927 55.064 60.876 55.3347 60.876 55.68C60.876 56.0347 60.9927 56.2913 61.226 56.45C61.4687 56.6087 61.814 56.7253 62.262 56.8L62.822 56.884C63.6247 57.0053 64.194 57.2387 64.53 57.584C64.866 57.92 65.034 58.3633 65.034 58.914C65.034 59.614 64.796 60.1647 64.32 60.566C63.844 60.9673 63.1907 61.168 62.36 61.168ZM67.0123 50.64H68.1323V57.206H68.1883L69.2943 55.974L71.3383 53.776H72.6963L70.0223 56.632L72.9623 61H71.6043L69.2103 57.318L68.1323 58.424V61H67.0123V50.64ZM74.3951 61V53.776H75.5151V55.106H75.5851C75.7157 54.7607 75.9491 54.4527 76.2851 54.182C76.6211 53.9113 77.0831 53.776 77.6711 53.776H78.1051V54.896H77.4471C76.8404 54.896 76.3644 55.0127 76.0191 55.246C75.6831 55.47 75.5151 55.7547 75.5151 56.1V61H74.3951ZM80.0957 52.082C79.853 52.082 79.6757 52.026 79.5637 51.914C79.461 51.7927 79.4097 51.6387 79.4097 51.452V51.27C79.4097 51.0833 79.461 50.934 79.5637 50.822C79.6757 50.7007 79.853 50.64 80.0957 50.64C80.3384 50.64 80.511 50.7007 80.6137 50.822C80.7257 50.934 80.7817 51.0833 80.7817 51.27V51.452C80.7817 51.6387 80.7257 51.7927 80.6137 51.914C80.511 52.026 80.3384 52.082 80.0957 52.082ZM79.5357 53.776H80.6557V61H79.5357V53.776ZM84.6317 61L82.0977 53.776H83.2177L84.4777 57.36L85.2617 59.824H85.3317L86.1157 57.36L87.4037 53.776H88.4817L85.9337 61H84.6317ZM92.533 61.168C92.0383 61.168 91.5903 61.0793 91.189 60.902C90.797 60.7247 90.4563 60.4727 90.167 60.146C89.887 59.81 89.6676 59.4133 89.509 58.956C89.3596 58.4893 89.285 57.9667 89.285 57.388C89.285 56.8187 89.3596 56.3007 89.509 55.834C89.6676 55.3673 89.887 54.9707 90.167 54.644C90.4563 54.308 90.797 54.0513 91.189 53.874C91.5903 53.6967 92.0383 53.608 92.533 53.608C93.0183 53.608 93.4523 53.6967 93.835 53.874C94.2176 54.0513 94.5443 54.2987 94.815 54.616C95.0856 54.924 95.291 55.2927 95.431 55.722C95.5803 56.1513 95.655 56.6227 95.655 57.136V57.668H90.461V58.004C90.461 58.312 90.5076 58.6013 90.601 58.872C90.7036 59.1333 90.8436 59.362 91.021 59.558C91.2076 59.754 91.4316 59.908 91.693 60.02C91.9636 60.132 92.267 60.188 92.603 60.188C93.0603 60.188 93.457 60.0807 93.793 59.866C94.1383 59.6513 94.4043 59.3433 94.591 58.942L95.389 59.516C95.1556 60.0107 94.7916 60.412 94.297 60.72C93.8023 61.0187 93.2143 61.168 92.533 61.168ZM92.533 54.546C92.225 54.546 91.945 54.602 91.693 54.714C91.441 54.8167 91.2216 54.966 91.035 55.162C90.8576 55.358 90.7176 55.5913 90.615 55.862C90.5123 56.1233 90.461 56.4127 90.461 56.73V56.828H94.451V56.674C94.451 56.03 94.2736 55.5167 93.919 55.134C93.5736 54.742 93.1116 54.546 92.533 54.546ZM99.6705 61.168C98.9985 61.168 98.4339 61.042 97.9765 60.79C97.5285 60.5287 97.1412 60.1833 96.8145 59.754L97.6125 59.11C97.8925 59.4647 98.2052 59.74 98.5505 59.936C98.8959 60.1227 99.2972 60.216 99.7545 60.216C100.231 60.216 100.599 60.1133 100.861 59.908C101.131 59.7027 101.267 59.4133 101.267 59.04C101.267 58.76 101.173 58.522 100.987 58.326C100.809 58.1207 100.483 57.9807 100.007 57.906L99.4325 57.822C99.0965 57.7753 98.7885 57.7053 98.5085 57.612C98.2285 57.5093 97.9812 57.3787 97.7665 57.22C97.5612 57.052 97.3979 56.8467 97.2765 56.604C97.1645 56.3613 97.1085 56.072 97.1085 55.736C97.1085 55.3813 97.1739 55.0733 97.3045 54.812C97.4352 54.5413 97.6125 54.3173 97.8365 54.14C98.0699 53.9627 98.3452 53.832 98.6625 53.748C98.9799 53.6547 99.3205 53.608 99.6845 53.608C100.273 53.608 100.763 53.7107 101.155 53.916C101.556 54.1213 101.906 54.406 102.205 54.77L101.463 55.442C101.304 55.218 101.071 55.0173 100.763 54.84C100.455 54.6533 100.067 54.56 99.6005 54.56C99.1339 54.56 98.7792 54.6627 98.5365 54.868C98.3032 55.064 98.1865 55.3347 98.1865 55.68C98.1865 56.0347 98.3032 56.2913 98.5365 56.45C98.7792 56.6087 99.1245 56.7253 99.5725 56.8L100.133 56.884C100.935 57.0053 101.505 57.2387 101.841 57.584C102.177 57.92 102.345 58.3633 102.345 58.914C102.345 59.614 102.107 60.1647 101.631 60.566C101.155 60.9673 100.501 61.168 99.6705 61.168ZM107.631 61V53.776H108.751V54.952H108.807C108.891 54.7653 108.985 54.5927 109.087 54.434C109.199 54.266 109.33 54.1213 109.479 54C109.638 53.8787 109.82 53.7853 110.025 53.72C110.231 53.6453 110.473 53.608 110.753 53.608C111.229 53.608 111.668 53.7247 112.069 53.958C112.471 54.182 112.769 54.5553 112.965 55.078H112.993C113.124 54.686 113.367 54.3453 113.721 54.056C114.085 53.7573 114.575 53.608 115.191 53.608C115.929 53.608 116.503 53.8507 116.913 54.336C117.333 54.812 117.543 55.4887 117.543 56.366V61H116.423V56.562C116.423 55.918 116.297 55.4327 116.045 55.106C115.793 54.7793 115.392 54.616 114.841 54.616C114.617 54.616 114.403 54.644 114.197 54.7C114.001 54.756 113.824 54.84 113.665 54.952C113.507 55.064 113.381 55.2087 113.287 55.386C113.194 55.554 113.147 55.7547 113.147 55.988V61H112.027V56.562C112.027 55.918 111.901 55.4327 111.649 55.106C111.397 54.7793 111.005 54.616 110.473 54.616C110.249 54.616 110.035 54.644 109.829 54.7C109.624 54.756 109.442 54.84 109.283 54.952C109.125 55.064 108.994 55.2087 108.891 55.386C108.798 55.554 108.751 55.7547 108.751 55.988V61H107.631ZM122.57 61.168C122.075 61.168 121.627 61.0793 121.226 60.902C120.834 60.7247 120.493 60.4727 120.204 60.146C119.924 59.81 119.705 59.4133 119.546 58.956C119.397 58.4893 119.322 57.9667 119.322 57.388C119.322 56.8187 119.397 56.3007 119.546 55.834C119.705 55.3673 119.924 54.9707 120.204 54.644C120.493 54.308 120.834 54.0513 121.226 53.874C121.627 53.6967 122.075 53.608 122.57 53.608C123.055 53.608 123.489 53.6967 123.872 53.874C124.255 54.0513 124.581 54.2987 124.852 54.616C125.123 54.924 125.328 55.2927 125.468 55.722C125.617 56.1513 125.692 56.6227 125.692 57.136V57.668H120.498V58.004C120.498 58.312 120.545 58.6013 120.638 58.872C120.741 59.1333 120.881 59.362 121.058 59.558C121.245 59.754 121.469 59.908 121.73 60.02C122.001 60.132 122.304 60.188 122.64 60.188C123.097 60.188 123.494 60.0807 123.83 59.866C124.175 59.6513 124.441 59.3433 124.628 58.942L125.426 59.516C125.193 60.0107 124.829 60.412 124.334 60.72C123.839 61.0187 123.251 61.168 122.57 61.168ZM122.57 54.546C122.262 54.546 121.982 54.602 121.73 54.714C121.478 54.8167 121.259 54.966 121.072 55.162C120.895 55.358 120.755 55.5913 120.652 55.862C120.549 56.1233 120.498 56.4127 120.498 56.73V56.828H124.488V56.674C124.488 56.03 124.311 55.5167 123.956 55.134C123.611 54.742 123.149 54.546 122.57 54.546ZM132.158 59.824H132.102C131.663 60.72 130.958 61.168 129.988 61.168C129.54 61.168 129.134 61.0793 128.77 60.902C128.406 60.7247 128.093 60.4727 127.832 60.146C127.58 59.8193 127.384 59.4227 127.244 58.956C127.113 58.4893 127.048 57.9667 127.048 57.388C127.048 56.8093 127.113 56.2867 127.244 55.82C127.384 55.3533 127.58 54.9567 127.832 54.63C128.093 54.3033 128.406 54.0513 128.77 53.874C129.134 53.6967 129.54 53.608 129.988 53.608C130.492 53.608 130.921 53.72 131.276 53.944C131.64 54.1587 131.915 54.4947 132.102 54.952H132.158V50.64H133.278V61H132.158V59.824ZM130.296 60.16C130.548 60.16 130.786 60.1273 131.01 60.062C131.243 59.9967 131.444 59.9033 131.612 59.782C131.78 59.6513 131.91 59.4973 132.004 59.32C132.106 59.1333 132.158 58.9233 132.158 58.69V56.002C132.158 55.806 132.106 55.624 132.004 55.456C131.91 55.2787 131.78 55.1293 131.612 55.008C131.444 54.8867 131.243 54.7933 131.01 54.728C130.786 54.6533 130.548 54.616 130.296 54.616C129.661 54.616 129.162 54.8167 128.798 55.218C128.434 55.61 128.252 56.128 128.252 56.772V58.004C128.252 58.648 128.434 59.1707 128.798 59.572C129.162 59.964 129.661 60.16 130.296 60.16ZM138.967 50.64H140.087V54.952H140.143C140.33 54.4947 140.601 54.1587 140.955 53.944C141.319 53.72 141.753 53.608 142.257 53.608C142.705 53.608 143.111 53.6967 143.475 53.874C143.839 54.0513 144.147 54.3033 144.399 54.63C144.661 54.9567 144.857 55.3533 144.987 55.82C145.127 56.2867 145.197 56.8093 145.197 57.388C145.197 57.9667 145.127 58.4893 144.987 58.956C144.857 59.4227 144.661 59.8193 144.399 60.146C144.147 60.4727 143.839 60.7247 143.475 60.902C143.111 61.0793 142.705 61.168 142.257 61.168C141.277 61.168 140.573 60.72 140.143 59.824H140.087V61H138.967V50.64ZM141.949 60.16C142.584 60.16 143.083 59.964 143.447 59.572C143.811 59.1707 143.993 58.648 143.993 58.004V56.772C143.993 56.128 143.811 55.61 143.447 55.218C143.083 54.8167 142.584 54.616 141.949 54.616C141.697 54.616 141.455 54.6533 141.221 54.728C140.997 54.7933 140.801 54.8867 140.633 55.008C140.465 55.1293 140.33 55.2787 140.227 55.456C140.134 55.624 140.087 55.806 140.087 56.002V58.69C140.087 58.9233 140.134 59.1333 140.227 59.32C140.33 59.4973 140.465 59.6513 140.633 59.782C140.801 59.9033 140.997 59.9967 141.221 60.062C141.455 60.1273 141.697 60.16 141.949 60.16ZM147.648 52.082C147.406 52.082 147.228 52.026 147.116 51.914C147.014 51.7927 146.962 51.6387 146.962 51.452V51.27C146.962 51.0833 147.014 50.934 147.116 50.822C147.228 50.7007 147.406 50.64 147.648 50.64C147.891 50.64 148.064 50.7007 148.166 50.822C148.278 50.934 148.334 51.0833 148.334 51.27V51.452C148.334 51.6387 148.278 51.7927 148.166 51.914C148.064 52.026 147.891 52.082 147.648 52.082ZM147.088 53.776H148.208V61H147.088V53.776ZM150.588 61V53.776H151.708V54.952H151.764C151.942 54.5413 152.189 54.2147 152.506 53.972C152.833 53.7293 153.267 53.608 153.808 53.608C154.555 53.608 155.143 53.8507 155.572 54.336C156.011 54.812 156.23 55.4887 156.23 56.366V61H155.11V56.562C155.11 55.2647 154.564 54.616 153.472 54.616C153.248 54.616 153.029 54.644 152.814 54.7C152.609 54.756 152.422 54.84 152.254 54.952C152.086 55.064 151.951 55.2087 151.848 55.386C151.755 55.554 151.708 55.7547 151.708 55.988V61H150.588ZM163.165 59.824H163.109C162.671 60.72 161.966 61.168 160.995 61.168C160.547 61.168 160.141 61.0793 159.777 60.902C159.413 60.7247 159.101 60.4727 158.839 60.146C158.587 59.8193 158.391 59.4227 158.251 58.956C158.121 58.4893 158.055 57.9667 158.055 57.388C158.055 56.8093 158.121 56.2867 158.251 55.82C158.391 55.3533 158.587 54.9567 158.839 54.63C159.101 54.3033 159.413 54.0513 159.777 53.874C160.141 53.6967 160.547 53.608 160.995 53.608C161.499 53.608 161.929 53.72 162.283 53.944C162.647 54.1587 162.923 54.4947 163.109 54.952H163.165V50.64H164.285V61H163.165V59.824ZM161.303 60.16C161.555 60.16 161.793 60.1273 162.017 60.062C162.251 59.9967 162.451 59.9033 162.619 59.782C162.787 59.6513 162.918 59.4973 163.011 59.32C163.114 59.1333 163.165 58.9233 163.165 58.69V56.002C163.165 55.806 163.114 55.624 163.011 55.456C162.918 55.2787 162.787 55.1293 162.619 55.008C162.451 54.8867 162.251 54.7933 162.017 54.728C161.793 54.6533 161.555 54.616 161.303 54.616C160.669 54.616 160.169 54.8167 159.805 55.218C159.441 55.61 159.259 56.128 159.259 56.772V58.004C159.259 58.648 159.441 59.1707 159.805 59.572C160.169 59.964 160.669 60.16 161.303 60.16ZM169.383 61.168C168.888 61.168 168.44 61.0793 168.039 60.902C167.647 60.7247 167.306 60.4727 167.017 60.146C166.737 59.81 166.517 59.4133 166.359 58.956C166.209 58.4893 166.135 57.9667 166.135 57.388C166.135 56.8187 166.209 56.3007 166.359 55.834C166.517 55.3673 166.737 54.9707 167.017 54.644C167.306 54.308 167.647 54.0513 168.039 53.874C168.44 53.6967 168.888 53.608 169.383 53.608C169.868 53.608 170.302 53.6967 170.685 53.874C171.067 54.0513 171.394 54.2987 171.665 54.616C171.935 54.924 172.141 55.2927 172.281 55.722C172.43 56.1513 172.505 56.6227 172.505 57.136V57.668H167.311V58.004C167.311 58.312 167.357 58.6013 167.451 58.872C167.553 59.1333 167.693 59.362 167.871 59.558C168.057 59.754 168.281 59.908 168.543 60.02C168.813 60.132 169.117 60.188 169.453 60.188C169.91 60.188 170.307 60.0807 170.643 59.866C170.988 59.6513 171.254 59.3433 171.441 58.942L172.239 59.516C172.005 60.0107 171.641 60.412 171.147 60.72C170.652 61.0187 170.064 61.168 169.383 61.168ZM169.383 54.546C169.075 54.546 168.795 54.602 168.543 54.714C168.291 54.8167 168.071 54.966 167.885 55.162C167.707 55.358 167.567 55.5913 167.465 55.862C167.362 56.1233 167.311 56.4127 167.311 56.73V56.828H171.301V56.674C171.301 56.03 171.123 55.5167 170.769 55.134C170.423 54.742 169.961 54.546 169.383 54.546ZM176.52 61.168C175.848 61.168 175.283 61.042 174.826 60.79C174.378 60.5287 173.991 60.1833 173.664 59.754L174.462 59.11C174.742 59.4647 175.055 59.74 175.4 59.936C175.745 60.1227 176.147 60.216 176.604 60.216C177.08 60.216 177.449 60.1133 177.71 59.908C177.981 59.7027 178.116 59.4133 178.116 59.04C178.116 58.76 178.023 58.522 177.836 58.326C177.659 58.1207 177.332 57.9807 176.856 57.906L176.282 57.822C175.946 57.7753 175.638 57.7053 175.358 57.612C175.078 57.5093 174.831 57.3787 174.616 57.22C174.411 57.052 174.247 56.8467 174.126 56.604C174.014 56.3613 173.958 56.072 173.958 55.736C173.958 55.3813 174.023 55.0733 174.154 54.812C174.285 54.5413 174.462 54.3173 174.686 54.14C174.919 53.9627 175.195 53.832 175.512 53.748C175.829 53.6547 176.17 53.608 176.534 53.608C177.122 53.608 177.612 53.7107 178.004 53.916C178.405 54.1213 178.755 54.406 179.054 54.77L178.312 55.442C178.153 55.218 177.92 55.0173 177.612 54.84C177.304 54.6533 176.917 54.56 176.45 54.56C175.983 54.56 175.629 54.6627 175.386 54.868C175.153 55.064 175.036 55.3347 175.036 55.68C175.036 56.0347 175.153 56.2913 175.386 56.45C175.629 56.6087 175.974 56.7253 176.422 56.8L176.982 56.884C177.785 57.0053 178.354 57.2387 178.69 57.584C179.026 57.92 179.194 58.3633 179.194 58.914C179.194 59.614 178.956 60.1647 178.48 60.566C178.004 60.9673 177.351 61.168 176.52 61.168ZM182.673 61C182.281 61 181.982 60.8927 181.777 60.678C181.581 60.454 181.483 60.1647 181.483 59.81V54.756H180.293V53.776H180.965C181.207 53.776 181.371 53.7293 181.455 53.636C181.548 53.5333 181.595 53.3607 181.595 53.118V51.774H182.603V53.776H184.185V54.756H182.603V60.02H184.073V61H182.673ZM185.985 61V53.776H187.105V55.106H187.175C187.306 54.7607 187.539 54.4527 187.875 54.182C188.211 53.9113 188.673 53.776 189.261 53.776H189.695V54.896H189.037C188.43 54.896 187.954 55.0127 187.609 55.246C187.273 55.47 187.105 55.7547 187.105 56.1V61H185.985ZM193.773 61.168C193.279 61.168 192.831 61.0793 192.429 60.902C192.037 60.7247 191.697 60.4727 191.407 60.146C191.127 59.81 190.908 59.4133 190.749 58.956C190.6 58.4893 190.525 57.9667 190.525 57.388C190.525 56.8187 190.6 56.3007 190.749 55.834C190.908 55.3673 191.127 54.9707 191.407 54.644C191.697 54.308 192.037 54.0513 192.429 53.874C192.831 53.6967 193.279 53.608 193.773 53.608C194.259 53.608 194.693 53.6967 195.075 53.874C195.458 54.0513 195.785 54.2987 196.055 54.616C196.326 54.924 196.531 55.2927 196.671 55.722C196.821 56.1513 196.895 56.6227 196.895 57.136V57.668H191.701V58.004C191.701 58.312 191.748 58.6013 191.841 58.872C191.944 59.1333 192.084 59.362 192.261 59.558C192.448 59.754 192.672 59.908 192.933 60.02C193.204 60.132 193.507 60.188 193.843 60.188C194.301 60.188 194.697 60.0807 195.033 59.866C195.379 59.6513 195.645 59.3433 195.831 58.942L196.629 59.516C196.396 60.0107 196.032 60.412 195.537 60.72C195.043 61.0187 194.455 61.168 193.773 61.168ZM193.773 54.546C193.465 54.546 193.185 54.602 192.933 54.714C192.681 54.8167 192.462 54.966 192.275 55.162C192.098 55.358 191.958 55.5913 191.855 55.862C191.753 56.1233 191.701 56.4127 191.701 56.73V56.828H195.691V56.674C195.691 56.03 195.514 55.5167 195.159 55.134C194.814 54.742 194.352 54.546 193.773 54.546ZM204.831 61.798C204.831 62.5447 204.537 63.0907 203.949 63.436C203.37 63.7907 202.497 63.968 201.331 63.968C200.201 63.968 199.389 63.814 198.895 63.506C198.4 63.198 198.153 62.7593 198.153 62.19C198.153 61.798 198.255 61.49 198.461 61.266C198.666 61.0513 198.946 60.8927 199.301 60.79V60.636C198.871 60.4307 198.657 60.0947 198.657 59.628C198.657 59.264 198.773 58.9887 199.007 58.802C199.24 58.606 199.539 58.4613 199.903 58.368V58.312C199.473 58.1067 199.137 57.8127 198.895 57.43C198.661 57.0473 198.545 56.604 198.545 56.1C198.545 55.736 198.61 55.4 198.741 55.092C198.871 54.784 199.053 54.5227 199.287 54.308C199.529 54.084 199.814 53.9113 200.141 53.79C200.477 53.6687 200.85 53.608 201.261 53.608C201.774 53.608 202.231 53.7013 202.633 53.888V53.762C202.633 53.482 202.698 53.2533 202.829 53.076C202.959 52.8893 203.174 52.796 203.473 52.796H204.551V53.776H203.179V54.238C203.44 54.462 203.641 54.7327 203.781 55.05C203.93 55.358 204.005 55.708 204.005 56.1C204.005 56.464 203.939 56.8 203.809 57.108C203.678 57.416 203.491 57.682 203.249 57.906C203.015 58.1207 202.731 58.2887 202.395 58.41C202.059 58.5313 201.685 58.592 201.275 58.592C201.041 58.592 200.808 58.5687 200.575 58.522C200.332 58.5873 200.113 58.6853 199.917 58.816C199.721 58.9373 199.623 59.11 199.623 59.334C199.623 59.5487 199.725 59.6933 199.931 59.768C200.136 59.8427 200.402 59.88 200.729 59.88H202.269C203.165 59.88 203.813 60.0527 204.215 60.398C204.625 60.734 204.831 61.2007 204.831 61.798ZM203.781 61.882C203.781 61.5927 203.669 61.3593 203.445 61.182C203.23 61.014 202.843 60.93 202.283 60.93H199.875C199.427 61.1353 199.203 61.462 199.203 61.91C199.203 62.2273 199.319 62.498 199.553 62.722C199.795 62.946 200.201 63.058 200.771 63.058H201.807C202.432 63.058 202.917 62.96 203.263 62.764C203.608 62.568 203.781 62.274 203.781 61.882ZM201.275 57.696C201.751 57.696 202.129 57.584 202.409 57.36C202.689 57.1267 202.829 56.772 202.829 56.296V55.904C202.829 55.428 202.689 55.078 202.409 54.854C202.129 54.6207 201.751 54.504 201.275 54.504C200.799 54.504 200.421 54.6207 200.141 54.854C199.861 55.078 199.721 55.428 199.721 55.904V56.296C199.721 56.772 199.861 57.1267 200.141 57.36C200.421 57.584 200.799 57.696 201.275 57.696Z" fill="white"/>
<path d="M133.414 78.5858C132.633 79.3668 131.367 79.3668 130.586 78.5858L124 72L140 72L133.414 78.5858Z" fill="#454545"/>
</g>
<path d="M132 104C130.022 104 128.089 103.414 126.444 102.315C124.8 101.216 123.518 99.6541 122.761 97.8268C122.004 95.9996 121.806 93.9889 122.192 92.0491C122.578 90.1093 123.53 88.3275 124.929 86.9289C126.327 85.5304 128.109 84.578 130.049 84.1922C131.989 83.8063 134 84.0043 135.827 84.7612C137.654 85.5181 139.216 86.7998 140.315 88.4443C141.414 90.0888 142 92.0222 142 94C141.997 96.6513 140.943 99.1931 139.068 101.068C137.193 102.943 134.651 103.997 132 104V104ZM132 86C130.418 86 128.871 86.4692 127.555 87.3482C126.24 88.2273 125.214 89.4767 124.609 90.9385C124.003 92.4003 123.845 94.0089 124.154 95.5607C124.462 97.1126 125.224 98.538 126.343 99.6569C127.462 100.776 128.887 101.538 130.439 101.846C131.991 102.155 133.6 101.997 135.061 101.391C136.523 100.786 137.773 99.7602 138.652 98.4446C139.531 97.129 140 95.5823 140 94C139.998 91.879 139.154 89.8456 137.654 88.3458C136.154 86.846 134.121 86.0024 132 86V86ZM133 100H131V98H133V100ZM133 97H131C130.984 96.3605 131.14 95.7285 131.452 95.1697C131.763 94.6108 132.218 94.1455 132.77 93.822C133.43 93.316 134 92.879 134 92C134 91.4696 133.789 90.9609 133.414 90.5858C133.039 90.2107 132.53 90 132 90C131.47 90 130.961 90.2107 130.586 90.5858C130.211 90.9609 130 91.4696 130 92H128C128 90.9391 128.421 89.9217 129.172 89.1716C129.922 88.4214 130.939 88 132 88C133.061 88 134.078 88.4214 134.828 89.1716C135.579 89.9217 136 90.9391 136 92C135.965 92.5321 135.805 93.0485 135.534 93.5079C135.263 93.9672 134.889 94.3567 134.44 94.645C134.034 94.8996 133.693 95.2448 133.443 95.6534C133.194 96.062 133.042 96.5229 133 97V97Z" fill="#1A1A1A"/>
<defs>
<filter id="filter0_d_10119_18946" x="39" y="12" width="186" height="79.1719" filterUnits="userSpaceOnUse" color-interpolation-filters="sRGB">
<feFlood flood-opacity="0" result="BackgroundImageFix"/>
<feColorMatrix in="SourceAlpha" type="matrix" values="0 0 0 0 0 0 0 0 0 0 0 0 0 0 0 0 0 0 127 0" result="hardAlpha"/>
<feOffset dy="4"/>
<feGaussianBlur stdDeviation="4"/>
<feColorMatrix type="matrix" values="0 0 0 0 0 0 0 0 0 0 0 0 0 0 0 0 0 0 0.302 0"/>
<feBlend mode="normal" in2="BackgroundImageFix" result="effect1_dropShadow_10119_18946"/>
<feBlend mode="normal" in="SourceGraphic" in2="effect1_dropShadow_10119_18946" result="shape"/>
</filter>
</defs>
</svg>
