<svg width="418" height="286" viewBox="0 0 418 286" fill="none" xmlns="http://www.w3.org/2000/svg">
<rect width="418" height="286" fill="white"/>
<g filter="url(#filter0_d_5010_49458)">
<mask id="path-1-inside-1_5010_49458" fill="white">
<path fill-rule="evenodd" clip-rule="evenodd" d="M77.1584 53L71 47L64.8416 53L52 53L52 270L332 270L332 53L77.1584 53Z"/>
</mask>
<path fill-rule="evenodd" clip-rule="evenodd" d="M77.1584 53L71 47L64.8416 53L52 53L52 270L332 270L332 53L77.1584 53Z" fill="white"/>
<path d="M71 47L71.6979 46.2837L71 45.6039L70.3022 46.2837L71 47ZM77.1584 53L76.4606 53.7163L76.7518 54H77.1584V53ZM64.8416 53V54H65.2482L65.5395 53.7163L64.8416 53ZM52 53L52 52H51L51 53H52ZM52 270H51L51 271H52L52 270ZM332 270V271H333V270H332ZM332 53H333V52H332V53ZM70.3022 47.7163L76.4606 53.7163L77.8563 52.2838L71.6979 46.2837L70.3022 47.7163ZM65.5395 53.7163L71.6979 47.7163L70.3022 46.2837L64.1438 52.2837L65.5395 53.7163ZM52 54L64.8416 54V52L52 52L52 54ZM53 270L53 53H51L51 270H53ZM332 269L52 269L52 271L332 271V269ZM331 53L331 270H333L333 53H331ZM77.1584 54L332 54V52L77.1584 52V54Z" fill="#747474" mask="url(#path-1-inside-1_5010_49458)"/>
</g>
<path d="M76 207V204.808H70.608V203.624L75.28 195.832H77.28V203.688H78.896V204.808H77.28V207H76ZM71.872 203.688H76V196.872H75.92L71.872 203.688ZM81.7698 207.192C81.4284 207.192 81.1778 207.107 81.0178 206.936C80.8684 206.765 80.7938 206.541 80.7938 206.264V206.056C80.7938 205.779 80.8684 205.555 81.0178 205.384C81.1778 205.213 81.4284 205.128 81.7698 205.128C82.1111 205.128 82.3564 205.213 82.5058 205.384C82.6658 205.555 82.7458 205.779 82.7458 206.056V206.264C82.7458 206.541 82.6658 206.765 82.5058 206.936C82.3564 207.107 82.1111 207.192 81.7698 207.192ZM92.9824 197.016V207H91.6384V197.016H88.0864V195.832H96.5344V197.016H92.9824ZM97.5319 207V198.744H98.8119V200.264H98.8919C99.0412 199.869 99.3079 199.517 99.6919 199.208C100.076 198.899 100.604 198.744 101.276 198.744H101.772V200.024H101.02C100.327 200.024 99.7825 200.157 99.3879 200.424C99.0039 200.68 98.8119 201.005 98.8119 201.4V207H97.5319ZM104.047 196.808C103.77 196.808 103.567 196.744 103.439 196.616C103.322 196.477 103.263 196.301 103.263 196.088V195.88C103.263 195.667 103.322 195.496 103.439 195.368C103.567 195.229 103.77 195.16 104.047 195.16C104.324 195.16 104.522 195.229 104.639 195.368C104.767 195.496 104.831 195.667 104.831 195.88V196.088C104.831 196.301 104.767 196.477 104.639 196.616C104.522 196.744 104.324 196.808 104.047 196.808ZM103.407 198.744H104.687V207H103.407V198.744ZM107.407 207V198.744H108.687V200.088H108.751C108.954 199.619 109.236 199.245 109.599 198.968C109.972 198.691 110.468 198.552 111.087 198.552C111.94 198.552 112.612 198.829 113.103 199.384C113.604 199.928 113.855 200.701 113.855 201.704V207H112.575V201.928C112.575 200.445 111.951 199.704 110.703 199.704C110.447 199.704 110.196 199.736 109.951 199.8C109.716 199.864 109.503 199.96 109.311 200.088C109.119 200.216 108.964 200.381 108.847 200.584C108.74 200.776 108.687 201.005 108.687 201.272V207H107.407ZM124.922 207V204.808H119.53V203.624L124.202 195.832H126.202V203.688H127.818V204.808H126.202V207H124.922ZM120.794 203.688H124.922V196.872H124.842L120.794 203.688Z" fill="#1A1A1A"/>
<rect width="278" height="1" transform="matrix(1 0 0 -1 53 182)" fill="#BFBFBF"/>
<path d="M77.968 236.016H73.072L72.752 240.272H72.864C73.1307 239.899 73.4293 239.6 73.76 239.376C74.1013 239.152 74.5653 239.04 75.152 239.04C75.632 239.04 76.0747 239.12 76.48 239.28C76.8853 239.44 77.2373 239.669 77.536 239.968C77.8347 240.256 78.064 240.613 78.224 241.04C78.3947 241.467 78.48 241.952 78.48 242.496C78.48 243.04 78.3947 243.541 78.224 244C78.0533 244.448 77.8027 244.837 77.472 245.168C77.152 245.488 76.7573 245.739 76.288 245.92C75.8293 246.101 75.3067 246.192 74.72 246.192C74.2507 246.192 73.8347 246.139 73.472 246.032C73.12 245.925 72.8053 245.781 72.528 245.6C72.2507 245.419 72.0053 245.216 71.792 244.992C71.5893 244.768 71.4027 244.533 71.232 244.288L72.24 243.52C72.3787 243.744 72.5227 243.947 72.672 244.128C72.832 244.309 73.0027 244.464 73.184 244.592C73.376 244.72 73.5947 244.821 73.84 244.896C74.0853 244.96 74.3787 244.992 74.72 244.992C75.488 244.992 76.0693 244.789 76.464 244.384C76.8587 243.979 77.056 243.408 77.056 242.672V242.512C77.056 241.776 76.8587 241.205 76.464 240.8C76.0693 240.395 75.488 240.192 74.72 240.192C74.208 240.192 73.8027 240.288 73.504 240.48C73.216 240.661 72.9547 240.88 72.72 241.136L71.584 240.976L71.984 234.832H77.968V236.016ZM81.7698 246.192C81.4284 246.192 81.1778 246.107 81.0178 245.936C80.8684 245.765 80.7938 245.541 80.7938 245.264V245.056C80.7938 244.779 80.8684 244.555 81.0178 244.384C81.1778 244.213 81.4284 244.128 81.7698 244.128C82.1111 244.128 82.3564 244.213 82.5058 244.384C82.6658 244.555 82.7458 244.779 82.7458 245.056V245.264C82.7458 245.541 82.6658 245.765 82.5058 245.936C82.3564 246.107 82.1111 246.192 81.7698 246.192ZM92.9824 236.016V246H91.6384V236.016H88.0864V234.832H96.5344V236.016H92.9824ZM97.5319 246V237.744H98.8119V239.264H98.8919C99.0412 238.869 99.3079 238.517 99.6919 238.208C100.076 237.899 100.604 237.744 101.276 237.744H101.772V239.024H101.02C100.327 239.024 99.7825 239.157 99.3879 239.424C99.0039 239.68 98.8119 240.005 98.8119 240.4V246H97.5319ZM104.047 235.808C103.77 235.808 103.567 235.744 103.439 235.616C103.322 235.477 103.263 235.301 103.263 235.088V234.88C103.263 234.667 103.322 234.496 103.439 234.368C103.567 234.229 103.77 234.16 104.047 234.16C104.324 234.16 104.522 234.229 104.639 234.368C104.767 234.496 104.831 234.667 104.831 234.88V235.088C104.831 235.301 104.767 235.477 104.639 235.616C104.522 235.744 104.324 235.808 104.047 235.808ZM103.407 237.744H104.687V246H103.407V237.744ZM107.407 246V237.744H108.687V239.088H108.751C108.954 238.619 109.236 238.245 109.599 237.968C109.972 237.691 110.468 237.552 111.087 237.552C111.94 237.552 112.612 237.829 113.103 238.384C113.604 238.928 113.855 239.701 113.855 240.704V246H112.575V240.928C112.575 239.445 111.951 238.704 110.703 238.704C110.447 238.704 110.196 238.736 109.951 238.8C109.716 238.864 109.503 238.96 109.311 239.088C109.119 239.216 108.964 239.381 108.847 239.584C108.74 239.776 108.687 240.005 108.687 240.272V246H107.407ZM126.89 236.016H121.994L121.674 240.272H121.786C122.053 239.899 122.351 239.6 122.682 239.376C123.023 239.152 123.487 239.04 124.074 239.04C124.554 239.04 124.997 239.12 125.402 239.28C125.807 239.44 126.159 239.669 126.458 239.968C126.757 240.256 126.986 240.613 127.146 241.04C127.317 241.467 127.402 241.952 127.402 242.496C127.402 243.04 127.317 243.541 127.146 244C126.975 244.448 126.725 244.837 126.394 245.168C126.074 245.488 125.679 245.739 125.21 245.92C124.751 246.101 124.229 246.192 123.642 246.192C123.173 246.192 122.757 246.139 122.394 246.032C122.042 245.925 121.727 245.781 121.45 245.6C121.173 245.419 120.927 245.216 120.714 244.992C120.511 244.768 120.325 244.533 120.154 244.288L121.162 243.52C121.301 243.744 121.445 243.947 121.594 244.128C121.754 244.309 121.925 244.464 122.106 244.592C122.298 244.72 122.517 244.821 122.762 244.896C123.007 244.96 123.301 244.992 123.642 244.992C124.41 244.992 124.991 244.789 125.386 244.384C125.781 243.979 125.978 243.408 125.978 242.672V242.512C125.978 241.776 125.781 241.205 125.386 240.8C124.991 240.395 124.41 240.192 123.642 240.192C123.13 240.192 122.725 240.288 122.426 240.48C122.138 240.661 121.877 240.88 121.642 241.136L120.506 240.976L120.906 234.832H126.89V236.016Z" fill="#1A1A1A"/>
<rect width="278" height="1" transform="matrix(1 0 0 -1 53 221)" fill="#BFBFBF"/>
<path d="M74.192 160.344C74.832 160.344 75.3013 160.216 75.6 159.96C75.9093 159.693 76.064 159.357 76.064 158.952V158.84C76.064 158.381 75.9147 158.024 75.616 157.768C75.328 157.501 74.928 157.368 74.416 157.368C73.9253 157.368 73.488 157.485 73.104 157.72C72.7307 157.955 72.4053 158.285 72.128 158.712L70.784 157.496C70.976 157.24 71.184 157 71.408 156.776C71.6427 156.541 71.9093 156.344 72.208 156.184C72.5067 156.013 72.8427 155.88 73.216 155.784C73.5893 155.688 74.0107 155.64 74.48 155.64C75.0453 155.64 75.5573 155.709 76.016 155.848C76.4853 155.976 76.8853 156.168 77.216 156.424C77.5573 156.68 77.8187 156.989 78 157.352C78.1813 157.704 78.272 158.104 78.272 158.552C78.272 158.915 78.2133 159.24 78.096 159.528C77.9893 159.816 77.8347 160.067 77.632 160.28C77.44 160.493 77.2107 160.669 76.944 160.808C76.688 160.936 76.416 161.032 76.128 161.096V161.192C76.448 161.256 76.752 161.357 77.04 161.496C77.328 161.635 77.5733 161.821 77.776 162.056C77.9893 162.28 78.1547 162.547 78.272 162.856C78.4 163.165 78.464 163.517 78.464 163.912C78.464 164.403 78.3627 164.851 78.16 165.256C77.968 165.661 77.6907 166.008 77.328 166.296C76.9653 166.584 76.5333 166.808 76.032 166.968C75.5307 167.117 74.9707 167.192 74.352 167.192C73.808 167.192 73.328 167.133 72.912 167.016C72.496 166.909 72.128 166.76 71.808 166.568C71.4987 166.376 71.2267 166.157 70.992 165.912C70.7573 165.656 70.5547 165.389 70.384 165.112L71.936 163.928C72.064 164.152 72.2027 164.36 72.352 164.552C72.5013 164.733 72.672 164.893 72.864 165.032C73.056 165.171 73.2747 165.277 73.52 165.352C73.7653 165.427 74.0427 165.464 74.352 165.464C74.9707 165.464 75.4453 165.315 75.776 165.016C76.1067 164.717 76.272 164.307 76.272 163.784V163.672C76.272 163.16 76.0907 162.771 75.728 162.504C75.376 162.237 74.864 162.104 74.192 162.104H73.088V160.344H74.192ZM81.9778 167.176C81.5404 167.176 81.2151 167.069 81.0018 166.856C80.7991 166.632 80.6978 166.349 80.6978 166.008V165.72C80.6978 165.379 80.7991 165.096 81.0018 164.872C81.2151 164.648 81.5404 164.536 81.9778 164.536C82.4258 164.536 82.7511 164.648 82.9538 164.872C83.1564 165.096 83.2578 165.379 83.2578 165.72V166.008C83.2578 166.349 83.1564 166.632 82.9538 166.856C82.7511 167.069 82.4258 167.176 81.9778 167.176ZM93.8366 157.704V167H91.7246V157.704H88.5566V155.832H97.0046V157.704H93.8366ZM97.8871 167V158.648H99.9351V160.376H100.015C100.068 160.152 100.148 159.939 100.255 159.736C100.372 159.523 100.522 159.336 100.703 159.176C100.884 159.016 101.098 158.888 101.343 158.792C101.599 158.696 101.892 158.648 102.223 158.648H102.671V160.584H102.031C101.338 160.584 100.815 160.685 100.463 160.888C100.111 161.091 99.9351 161.421 99.9351 161.88V167H97.8871ZM105.192 157.432C104.766 157.432 104.456 157.336 104.264 157.144C104.083 156.952 103.992 156.707 103.992 156.408V156.088C103.992 155.789 104.083 155.544 104.264 155.352C104.456 155.16 104.766 155.064 105.192 155.064C105.608 155.064 105.912 155.16 106.104 155.352C106.296 155.544 106.392 155.789 106.392 156.088V156.408C106.392 156.707 106.296 156.952 106.104 157.144C105.912 157.336 105.608 157.432 105.192 157.432ZM104.168 158.648H106.216V167H104.168V158.648ZM108.59 167V158.648H110.638V160.04H110.718C110.889 159.592 111.156 159.219 111.518 158.92C111.892 158.611 112.404 158.456 113.054 158.456C113.918 158.456 114.58 158.739 115.038 159.304C115.497 159.869 115.726 160.675 115.726 161.72V167H113.678V161.928C113.678 161.331 113.572 160.883 113.358 160.584C113.145 160.285 112.793 160.136 112.302 160.136C112.089 160.136 111.881 160.168 111.678 160.232C111.486 160.285 111.31 160.371 111.15 160.488C111.001 160.595 110.878 160.733 110.782 160.904C110.686 161.064 110.638 161.256 110.638 161.48V167H108.59ZM124.786 160.344C125.426 160.344 125.895 160.216 126.194 159.96C126.503 159.693 126.658 159.357 126.658 158.952V158.84C126.658 158.381 126.508 158.024 126.21 157.768C125.922 157.501 125.522 157.368 125.01 157.368C124.519 157.368 124.082 157.485 123.698 157.72C123.324 157.955 122.999 158.285 122.722 158.712L121.378 157.496C121.57 157.24 121.778 157 122.002 156.776C122.236 156.541 122.503 156.344 122.802 156.184C123.1 156.013 123.436 155.88 123.81 155.784C124.183 155.688 124.604 155.64 125.074 155.64C125.639 155.64 126.151 155.709 126.61 155.848C127.079 155.976 127.479 156.168 127.81 156.424C128.151 156.68 128.412 156.989 128.594 157.352C128.775 157.704 128.866 158.104 128.866 158.552C128.866 158.915 128.807 159.24 128.69 159.528C128.583 159.816 128.428 160.067 128.226 160.28C128.034 160.493 127.804 160.669 127.538 160.808C127.282 160.936 127.01 161.032 126.722 161.096V161.192C127.042 161.256 127.346 161.357 127.634 161.496C127.922 161.635 128.167 161.821 128.37 162.056C128.583 162.28 128.748 162.547 128.866 162.856C128.994 163.165 129.058 163.517 129.058 163.912C129.058 164.403 128.956 164.851 128.754 165.256C128.562 165.661 128.284 166.008 127.922 166.296C127.559 166.584 127.127 166.808 126.626 166.968C126.124 167.117 125.564 167.192 124.946 167.192C124.402 167.192 123.922 167.133 123.506 167.016C123.09 166.909 122.722 166.76 122.402 166.568C122.092 166.376 121.82 166.157 121.586 165.912C121.351 165.656 121.148 165.389 120.978 165.112L122.53 163.928C122.658 164.152 122.796 164.36 122.946 164.552C123.095 164.733 123.266 164.893 123.458 165.032C123.65 165.171 123.868 165.277 124.114 165.352C124.359 165.427 124.636 165.464 124.946 165.464C125.564 165.464 126.039 165.315 126.37 165.016C126.7 164.717 126.866 164.307 126.866 163.784V163.672C126.866 163.16 126.684 162.771 126.322 162.504C125.97 162.237 125.458 162.104 124.786 162.104H123.682V160.344H124.786Z" fill="#1A1A1A"/>
<rect x="53" y="142" width="4" height="39" fill="#0059B3"/>
<rect width="278" height="1" transform="matrix(1 0 0 -1 53 142)" fill="#BFBFBF"/>
<path d="M78.528 127H71.2V125.624L74.848 122.264C75.3707 121.784 75.808 121.277 76.16 120.744C76.512 120.2 76.688 119.656 76.688 119.112V118.92C76.688 118.301 76.5173 117.8 76.176 117.416C75.8347 117.032 75.3173 116.84 74.624 116.84C74.2827 116.84 73.984 116.888 73.728 116.984C73.472 117.08 73.248 117.213 73.056 117.384C72.8747 117.555 72.72 117.757 72.592 117.992C72.4747 118.216 72.3787 118.461 72.304 118.728L71.104 118.264C71.2107 117.933 71.3547 117.613 71.536 117.304C71.728 116.984 71.9627 116.701 72.24 116.456C72.528 116.211 72.8693 116.013 73.264 115.864C73.6693 115.715 74.144 115.64 74.688 115.64C75.232 115.64 75.7173 115.72 76.144 115.88C76.5707 116.04 76.928 116.264 77.216 116.552C77.504 116.84 77.7227 117.181 77.872 117.576C78.032 117.971 78.112 118.408 78.112 118.888C78.112 119.325 78.048 119.731 77.92 120.104C77.8027 120.477 77.6373 120.835 77.424 121.176C77.2107 121.507 76.9493 121.832 76.64 122.152C76.3413 122.472 76.016 122.792 75.664 123.112L72.656 125.816H78.528V127ZM81.7698 127.192C81.4284 127.192 81.1778 127.107 81.0178 126.936C80.8684 126.765 80.7938 126.541 80.7938 126.264V126.056C80.7938 125.779 80.8684 125.555 81.0178 125.384C81.1778 125.213 81.4284 125.128 81.7698 125.128C82.1111 125.128 82.3564 125.213 82.5058 125.384C82.6658 125.555 82.7458 125.779 82.7458 126.056V126.264C82.7458 126.541 82.6658 126.765 82.5058 126.936C82.3564 127.107 82.1111 127.192 81.7698 127.192ZM92.9824 117.016V127H91.6384V117.016H88.0864V115.832H96.5344V117.016H92.9824ZM97.5319 127V118.744H98.8119V120.264H98.8919C99.0412 119.869 99.3079 119.517 99.6919 119.208C100.076 118.899 100.604 118.744 101.276 118.744H101.772V120.024H101.02C100.327 120.024 99.7825 120.157 99.3879 120.424C99.0039 120.68 98.8119 121.005 98.8119 121.4V127H97.5319ZM104.047 116.808C103.77 116.808 103.567 116.744 103.439 116.616C103.322 116.477 103.263 116.301 103.263 116.088V115.88C103.263 115.667 103.322 115.496 103.439 115.368C103.567 115.229 103.77 115.16 104.047 115.16C104.324 115.16 104.522 115.229 104.639 115.368C104.767 115.496 104.831 115.667 104.831 115.88V116.088C104.831 116.301 104.767 116.477 104.639 116.616C104.522 116.744 104.324 116.808 104.047 116.808ZM103.407 118.744H104.687V127H103.407V118.744ZM107.407 127V118.744H108.687V120.088H108.751C108.954 119.619 109.236 119.245 109.599 118.968C109.972 118.691 110.468 118.552 111.087 118.552C111.94 118.552 112.612 118.829 113.103 119.384C113.604 119.928 113.855 120.701 113.855 121.704V127H112.575V121.928C112.575 120.445 111.951 119.704 110.703 119.704C110.447 119.704 110.196 119.736 109.951 119.8C109.716 119.864 109.503 119.96 109.311 120.088C109.119 120.216 108.964 120.381 108.847 120.584C108.74 120.776 108.687 121.005 108.687 121.272V127H107.407ZM127.45 127H120.122V125.624L123.77 122.264C124.293 121.784 124.73 121.277 125.082 120.744C125.434 120.2 125.61 119.656 125.61 119.112V118.92C125.61 118.301 125.439 117.8 125.098 117.416C124.757 117.032 124.239 116.84 123.546 116.84C123.205 116.84 122.906 116.888 122.65 116.984C122.394 117.08 122.17 117.213 121.978 117.384C121.797 117.555 121.642 117.757 121.514 117.992C121.397 118.216 121.301 118.461 121.226 118.728L120.026 118.264C120.133 117.933 120.277 117.613 120.458 117.304C120.65 116.984 120.885 116.701 121.162 116.456C121.45 116.211 121.791 116.013 122.186 115.864C122.591 115.715 123.066 115.64 123.61 115.64C124.154 115.64 124.639 115.72 125.066 115.88C125.493 116.04 125.85 116.264 126.138 116.552C126.426 116.84 126.645 117.181 126.794 117.576C126.954 117.971 127.034 118.408 127.034 118.888C127.034 119.325 126.97 119.731 126.842 120.104C126.725 120.477 126.559 120.835 126.346 121.176C126.133 121.507 125.871 121.832 125.562 122.152C125.263 122.472 124.938 122.792 124.586 123.112L121.578 125.816H127.45V127Z" fill="#1A1A1A"/>
<path d="M301 127.2L296.8 123L295.4 124.4L301 130L313 118L311.6 116.6L301 127.2Z" fill="#1A1A1A"/>
<rect width="278" height="1" transform="matrix(1 0 0 -1 53 102)" fill="#BFBFBF"/>
<path d="M71.408 87V85.816H74.528V76.824H74.416L71.6 79.448L70.816 78.6L73.776 75.832H75.872V85.816H78.752V87H71.408ZM81.7698 87.192C81.4284 87.192 81.1778 87.1067 81.0178 86.936C80.8684 86.7653 80.7938 86.5413 80.7938 86.264V86.056C80.7938 85.7787 80.8684 85.5547 81.0178 85.384C81.1778 85.2133 81.4284 85.128 81.7698 85.128C82.1111 85.128 82.3564 85.2133 82.5058 85.384C82.6658 85.5547 82.7458 85.7787 82.7458 86.056V86.264C82.7458 86.5413 82.6658 86.7653 82.5058 86.936C82.3564 87.1067 82.1111 87.192 81.7698 87.192ZM92.9824 77.016V87H91.6384V77.016H88.0864V75.832H96.5344V77.016H92.9824ZM97.5319 87V78.744H98.8119V80.264H98.8919C99.0412 79.8693 99.3079 79.5173 99.6919 79.208C100.076 78.8987 100.604 78.744 101.276 78.744H101.772V80.024H101.02C100.327 80.024 99.7825 80.1573 99.3879 80.424C99.0039 80.68 98.8119 81.0053 98.8119 81.4V87H97.5319ZM104.047 76.808C103.77 76.808 103.567 76.744 103.439 76.616C103.322 76.4773 103.263 76.3013 103.263 76.088V75.88C103.263 75.6667 103.322 75.496 103.439 75.368C103.567 75.2293 103.77 75.16 104.047 75.16C104.324 75.16 104.522 75.2293 104.639 75.368C104.767 75.496 104.831 75.6667 104.831 75.88V76.088C104.831 76.3013 104.767 76.4773 104.639 76.616C104.522 76.744 104.324 76.808 104.047 76.808ZM103.407 78.744H104.687V87H103.407V78.744ZM107.407 87V78.744H108.687V80.088H108.751C108.954 79.6187 109.236 79.2453 109.599 78.968C109.972 78.6907 110.468 78.552 111.087 78.552C111.94 78.552 112.612 78.8293 113.103 79.384C113.604 79.928 113.855 80.7013 113.855 81.704V87H112.575V81.928C112.575 80.4453 111.951 79.704 110.703 79.704C110.447 79.704 110.196 79.736 109.951 79.8C109.716 79.864 109.503 79.96 109.311 80.088C109.119 80.216 108.964 80.3813 108.847 80.584C108.74 80.776 108.687 81.0053 108.687 81.272V87H107.407ZM120.33 87V85.816H123.45V76.824H123.338L120.522 79.448L119.738 78.6L122.698 75.832H124.794V85.816H127.674V87H120.33Z" fill="#1A1A1A"/>
<path d="M301 87.1996L296.8 82.9996L295.4 84.3996L301 89.9996L313 77.9996L311.6 76.5996L301 87.1996Z" fill="#1A1A1A"/>
<path d="M103 23L108 28L113 23H103Z" fill="#1A1A1A"/>
<path d="M26.248 19.016V29H24.904V19.016H21.352V17.832H29.8V19.016H26.248ZM30.7975 29V20.744H32.0775V22.264H32.1575C32.3068 21.8693 32.5735 21.5173 32.9575 21.208C33.3415 20.8987 33.8695 20.744 34.5415 20.744H35.0375V22.024H34.2855C33.5922 22.024 33.0482 22.1573 32.6535 22.424C32.2695 22.68 32.0775 23.0053 32.0775 23.4V29H30.7975ZM37.3125 18.808C37.0352 18.808 36.8325 18.744 36.7045 18.616C36.5872 18.4773 36.5285 18.3013 36.5285 18.088V17.88C36.5285 17.6667 36.5872 17.496 36.7045 17.368C36.8325 17.2293 37.0352 17.16 37.3125 17.16C37.5898 17.16 37.7872 17.2293 37.9045 17.368C38.0325 17.496 38.0965 17.6667 38.0965 17.88V18.088C38.0965 18.3013 38.0325 18.4773 37.9045 18.616C37.7872 18.744 37.5898 18.808 37.3125 18.808ZM36.6725 20.744H37.9525V29H36.6725V20.744ZM40.6725 29V20.744H41.9525V22.088H42.0165C42.2192 21.6187 42.5018 21.2453 42.8645 20.968C43.2378 20.6907 43.7338 20.552 44.3525 20.552C45.2058 20.552 45.8778 20.8293 46.3685 21.384C46.8698 21.928 47.1205 22.7013 47.1205 23.704V29H45.8405V23.928C45.8405 22.4453 45.2165 21.704 43.9685 21.704C43.7125 21.704 43.4618 21.736 43.2165 21.8C42.9818 21.864 42.7685 21.96 42.5765 22.088C42.3845 22.216 42.2298 22.3813 42.1125 22.584C42.0058 22.776 41.9525 23.0053 41.9525 23.272V29H40.6725ZM56.3635 22.568C57.1208 22.568 57.6862 22.3973 58.0595 22.056C58.4435 21.704 58.6355 21.256 58.6355 20.712V20.6C58.6355 20.0133 58.4488 19.576 58.0755 19.288C57.7128 18.9893 57.2328 18.84 56.6355 18.84C56.0595 18.84 55.5902 18.968 55.2275 19.224C54.8648 19.4693 54.5662 19.8053 54.3315 20.232L53.3395 19.464C53.4782 19.24 53.6435 19.0213 53.8355 18.808C54.0382 18.584 54.2728 18.3867 54.5395 18.216C54.8062 18.0453 55.1155 17.9067 55.4675 17.8C55.8195 17.6933 56.2195 17.64 56.6675 17.64C57.1368 17.64 57.5795 17.704 57.9955 17.832C58.4115 17.9493 58.7688 18.1307 59.0675 18.376C59.3768 18.6107 59.6168 18.904 59.7875 19.256C59.9688 19.608 60.0595 20.008 60.0595 20.456C60.0595 20.8187 60.0008 21.144 59.8835 21.432C59.7768 21.72 59.6275 21.9707 59.4355 22.184C59.2435 22.3973 59.0142 22.5787 58.7475 22.728C58.4915 22.8773 58.2142 22.9893 57.9155 23.064V23.128C58.2142 23.192 58.5022 23.2987 58.7795 23.448C59.0675 23.5867 59.3182 23.7733 59.5315 24.008C59.7555 24.232 59.9315 24.5093 60.0595 24.84C60.1982 25.16 60.2675 25.528 60.2675 25.944C60.2675 26.424 60.1768 26.8667 59.9955 27.272C59.8142 27.6667 59.5582 28.008 59.2275 28.296C58.8968 28.5733 58.4968 28.792 58.0275 28.952C57.5582 29.112 57.0408 29.192 56.4755 29.192C55.9955 29.192 55.5688 29.1387 55.1955 29.032C54.8222 28.9253 54.4915 28.7813 54.2035 28.6C53.9155 28.4187 53.6595 28.216 53.4355 27.992C53.2222 27.768 53.0302 27.5333 52.8595 27.288L53.8675 26.52C54.0062 26.744 54.1555 26.9467 54.3155 27.128C54.4862 27.3093 54.6728 27.464 54.8755 27.592C55.0782 27.72 55.3075 27.8213 55.5635 27.896C55.8195 27.96 56.1182 27.992 56.4595 27.992C57.2488 27.992 57.8462 27.816 58.2515 27.464C58.6568 27.1013 58.8595 26.5893 58.8595 25.928V25.8C58.8595 25.1387 58.6568 24.632 58.2515 24.28C57.8462 23.9173 57.2488 23.736 56.4595 23.736H55.1475V22.568H56.3635ZM72.9225 29C72.4425 29 72.0958 28.872 71.8825 28.616C71.6798 28.36 71.5518 28.04 71.4985 27.656H71.4185C71.2372 28.168 70.9385 28.552 70.5225 28.808C70.1065 29.064 69.6105 29.192 69.0345 29.192C68.1598 29.192 67.4772 28.968 66.9865 28.52C66.5065 28.072 66.2665 27.464 66.2665 26.696C66.2665 25.9173 66.5492 25.32 67.1145 24.904C67.6905 24.488 68.5812 24.28 69.7865 24.28H71.4185V23.464C71.4185 22.8773 71.2585 22.4293 70.9385 22.12C70.6185 21.8107 70.1278 21.656 69.4665 21.656C68.9652 21.656 68.5438 21.768 68.2025 21.992C67.8718 22.216 67.5945 22.5147 67.3705 22.888L66.6025 22.168C66.8265 21.72 67.1838 21.3413 67.6745 21.032C68.1652 20.712 68.7838 20.552 69.5305 20.552C70.5332 20.552 71.3118 20.7973 71.8665 21.288C72.4212 21.7787 72.6985 22.4613 72.6985 23.336V27.88H73.6425V29H72.9225ZM69.2425 28.104C69.5625 28.104 69.8558 28.0667 70.1225 27.992C70.3892 27.9173 70.6185 27.8107 70.8105 27.672C71.0025 27.5333 71.1518 27.3733 71.2585 27.192C71.3652 27.0107 71.4185 26.8133 71.4185 26.6V25.24H69.7225C68.9865 25.24 68.4478 25.3467 68.1065 25.56C67.7758 25.7733 67.6105 26.0827 67.6105 26.488V26.824C67.6105 27.2293 67.7545 27.544 68.0425 27.768C68.3412 27.992 68.7412 28.104 69.2425 28.104ZM75.9174 21.864H74.5734V20.744H75.9174V19.08C75.9174 18.504 76.0667 18.04 76.3654 17.688C76.664 17.336 77.1174 17.16 77.7254 17.16H78.9734V18.28H77.1974V20.744H78.9734V21.864H77.1974V29H75.9174V21.864ZM91.0461 19.016H86.1501L85.8301 23.272H85.9421C86.2088 22.8987 86.5075 22.6 86.8381 22.376C87.1795 22.152 87.6435 22.04 88.2301 22.04C88.7101 22.04 89.1528 22.12 89.5581 22.28C89.9635 22.44 90.3155 22.6693 90.6141 22.968C90.9128 23.256 91.1421 23.6133 91.3021 24.04C91.4728 24.4667 91.5581 24.952 91.5581 25.496C91.5581 26.04 91.4728 26.5413 91.3021 27C91.1315 27.448 90.8808 27.8373 90.5501 28.168C90.2301 28.488 89.8355 28.7387 89.3661 28.92C88.9075 29.1013 88.3848 29.192 87.7981 29.192C87.3288 29.192 86.9128 29.1387 86.5501 29.032C86.1981 28.9253 85.8835 28.7813 85.6061 28.6C85.3288 28.4187 85.0835 28.216 84.8701 27.992C84.6675 27.768 84.4808 27.5333 84.3101 27.288L85.3181 26.52C85.4568 26.744 85.6008 26.9467 85.7501 27.128C85.9101 27.3093 86.0808 27.464 86.2621 27.592C86.4541 27.72 86.6728 27.8213 86.9181 27.896C87.1635 27.96 87.4568 27.992 87.7981 27.992C88.5661 27.992 89.1475 27.7893 89.5421 27.384C89.9368 26.9787 90.1341 26.408 90.1341 25.672V25.512C90.1341 24.776 89.9368 24.2053 89.5421 23.8C89.1475 23.3947 88.5661 23.192 87.7981 23.192C87.2861 23.192 86.8808 23.288 86.5821 23.48C86.2941 23.6613 86.0328 23.88 85.7981 24.136L84.6621 23.976L85.0621 17.832H91.0461V19.016Z" fill="#1A1A1A"/>
<defs>
<filter id="filter0_d_5010_49458" x="44" y="43" width="296" height="239" filterUnits="userSpaceOnUse" color-interpolation-filters="sRGB">
<feFlood flood-opacity="0" result="BackgroundImageFix"/>
<feColorMatrix in="SourceAlpha" type="matrix" values="0 0 0 0 0 0 0 0 0 0 0 0 0 0 0 0 0 0 127 0" result="hardAlpha"/>
<feOffset dy="4"/>
<feGaussianBlur stdDeviation="4"/>
<feColorMatrix type="matrix" values="0 0 0 0 0 0 0 0 0 0 0 0 0 0 0 0 0 0 0.302 0"/>
<feBlend mode="normal" in2="BackgroundImageFix" result="effect1_dropShadow_5010_49458"/>
<feBlend mode="normal" in="SourceGraphic" in2="effect1_dropShadow_5010_49458" result="shape"/>
</filter>
</defs>
</svg>
