<svg width="418" height="284" viewBox="0 0 418 284" fill="none" xmlns="http://www.w3.org/2000/svg">
<rect width="418" height="284" fill="white"/>
<path d="M30 70L24 64L30 58L31.4 59.4L26.8 64L31.4 68.6L30 70Z" fill="#1A1A1A"/>
<path d="M45.248 60.016V70H43.904V60.016H40.352V58.832H48.8V60.016H45.248ZM51.1562 59.808C50.8789 59.808 50.6763 59.744 50.5483 59.616C50.4309 59.4773 50.3723 59.3013 50.3723 59.088V58.88C50.3723 58.6667 50.4309 58.496 50.5483 58.368C50.6763 58.2293 50.8789 58.16 51.1562 58.16C51.4336 58.16 51.6309 58.2293 51.7483 58.368C51.8763 58.496 51.9403 58.6667 51.9403 58.88V59.088C51.9403 59.3013 51.8763 59.4773 51.7483 59.616C51.6309 59.744 51.4336 59.808 51.1562 59.808ZM50.5163 61.744H51.7963V70H50.5163V61.744ZM55.8763 70C55.4283 70 55.0869 69.8773 54.8523 69.632C54.6283 69.376 54.5163 69.056 54.5163 68.672V58.16H55.7963V68.88H57.0123V70H55.8763ZM58.8756 58.16H60.1556V63.088H60.2196C60.433 62.5653 60.7423 62.1813 61.1476 61.936C61.5636 61.68 62.0596 61.552 62.6356 61.552C63.1476 61.552 63.6116 61.6533 64.0276 61.856C64.4436 62.0587 64.7956 62.3467 65.0836 62.72C65.3823 63.0933 65.6063 63.5467 65.7556 64.08C65.9156 64.6133 65.9956 65.2107 65.9956 65.872C65.9956 66.5333 65.9156 67.1307 65.7556 67.664C65.6063 68.1973 65.3823 68.6507 65.0836 69.024C64.7956 69.3973 64.4436 69.6853 64.0276 69.888C63.6116 70.0907 63.1476 70.192 62.6356 70.192C61.5156 70.192 60.7103 69.68 60.2196 68.656H60.1556V70H58.8756V58.16ZM62.2836 69.04C63.009 69.04 63.5796 68.816 63.9956 68.368C64.4116 67.9093 64.6196 67.312 64.6196 66.576V65.168C64.6196 64.432 64.4116 63.84 63.9956 63.392C63.5796 62.9333 63.009 62.704 62.2836 62.704C61.9956 62.704 61.7183 62.7467 61.4516 62.832C61.1956 62.9067 60.9716 63.0133 60.7796 63.152C60.5876 63.2907 60.433 63.4613 60.3156 63.664C60.209 63.856 60.1556 64.064 60.1556 64.288V67.36C60.1556 67.6267 60.209 67.8667 60.3156 68.08C60.433 68.2827 60.5876 68.4587 60.7796 68.608C60.9716 68.7467 61.1956 68.8533 61.4516 68.928C61.7183 69.0027 61.9956 69.04 62.2836 69.04ZM74.1569 70C73.6769 70 73.3302 69.872 73.1169 69.616C72.9142 69.36 72.7862 69.04 72.7329 68.656H72.6529C72.4715 69.168 72.1729 69.552 71.7569 69.808C71.3409 70.064 70.8449 70.192 70.2689 70.192C69.3942 70.192 68.7115 69.968 68.2209 69.52C67.7409 69.072 67.5009 68.464 67.5009 67.696C67.5009 66.9173 67.7835 66.32 68.3489 65.904C68.9249 65.488 69.8155 65.28 71.0209 65.28H72.6529V64.464C72.6529 63.8773 72.4929 63.4293 72.1729 63.12C71.8529 62.8107 71.3622 62.656 70.7009 62.656C70.1995 62.656 69.7782 62.768 69.4369 62.992C69.1062 63.216 68.8289 63.5147 68.6049 63.888L67.8369 63.168C68.0609 62.72 68.4182 62.3413 68.9089 62.032C69.3995 61.712 70.0182 61.552 70.7649 61.552C71.7675 61.552 72.5462 61.7973 73.1009 62.288C73.6555 62.7787 73.9329 63.4613 73.9329 64.336V68.88H74.8769V70H74.1569ZM70.4769 69.104C70.7969 69.104 71.0902 69.0667 71.3569 68.992C71.6235 68.9173 71.8529 68.8107 72.0449 68.672C72.2369 68.5333 72.3862 68.3733 72.4929 68.192C72.5995 68.0107 72.6529 67.8133 72.6529 67.6V66.24H70.9569C70.2209 66.24 69.6822 66.3467 69.3409 66.56C69.0102 66.7733 68.8449 67.0827 68.8449 67.488V67.824C68.8449 68.2293 68.9889 68.544 69.2769 68.768C69.5755 68.992 69.9755 69.104 70.4769 69.104ZM83.6638 70.912C83.6638 71.7653 83.3278 72.3893 82.6558 72.784C81.9944 73.1893 80.9971 73.392 79.6638 73.392C78.3731 73.392 77.4451 73.216 76.8798 72.864C76.3144 72.512 76.0318 72.0107 76.0318 71.36C76.0318 70.912 76.1491 70.56 76.3838 70.304C76.6184 70.0587 76.9384 69.8773 77.3438 69.76V69.584C76.8531 69.3493 76.6078 68.9653 76.6078 68.432C76.6078 68.016 76.7411 67.7013 77.0078 67.488C77.2744 67.264 77.6158 67.0987 78.0318 66.992V66.928C77.5411 66.6933 77.1571 66.3573 76.8798 65.92C76.6131 65.4827 76.4798 64.976 76.4798 64.4C76.4798 63.984 76.5544 63.6 76.7038 63.248C76.8531 62.896 77.0611 62.5973 77.3278 62.352C77.6051 62.096 77.9304 61.8987 78.3038 61.76C78.6878 61.6213 79.1144 61.552 79.5838 61.552C80.1704 61.552 80.6931 61.6587 81.1518 61.872V61.728C81.1518 61.408 81.2264 61.1467 81.3758 60.944C81.5251 60.7307 81.7704 60.624 82.1118 60.624H83.3438V61.744H81.7758V62.272C82.0744 62.528 82.3038 62.8373 82.4638 63.2C82.6344 63.552 82.7198 63.952 82.7198 64.4C82.7198 64.816 82.6451 65.2 82.4958 65.552C82.3464 65.904 82.1331 66.208 81.8558 66.464C81.5891 66.7093 81.2638 66.9013 80.8798 67.04C80.4958 67.1787 80.0691 67.248 79.5998 67.248C79.3331 67.248 79.0664 67.2213 78.7998 67.168C78.5224 67.2427 78.2718 67.3547 78.0478 67.504C77.8238 67.6427 77.7118 67.84 77.7118 68.096C77.7118 68.3413 77.8291 68.5067 78.0638 68.592C78.2984 68.6773 78.6024 68.72 78.9758 68.72H80.7358C81.7598 68.72 82.5011 68.9173 82.9598 69.312C83.4291 69.696 83.6638 70.2293 83.6638 70.912ZM82.4638 71.008C82.4638 70.6773 82.3358 70.4107 82.0798 70.208C81.8344 70.016 81.3918 69.92 80.7518 69.92H77.9998C77.4878 70.1547 77.2318 70.528 77.2318 71.04C77.2318 71.4027 77.3651 71.712 77.6318 71.968C77.9091 72.224 78.3731 72.352 79.0238 72.352H80.2078C80.9224 72.352 81.4771 72.24 81.8718 72.016C82.2664 71.792 82.4638 71.456 82.4638 71.008ZM79.5998 66.224C80.1438 66.224 80.5758 66.096 80.8958 65.84C81.2158 65.5733 81.3758 65.168 81.3758 64.624V64.176C81.3758 63.632 81.2158 63.232 80.8958 62.976C80.5758 62.7093 80.1438 62.576 79.5998 62.576C79.0558 62.576 78.6238 62.7093 78.3038 62.976C77.9838 63.232 77.8238 63.632 77.8238 64.176V64.624C77.8238 65.168 77.9838 65.5733 78.3038 65.84C78.6238 66.096 79.0558 66.224 79.5998 66.224ZM88.1671 70.192C87.6018 70.192 87.0898 70.0907 86.6311 69.888C86.1831 69.6853 85.7938 69.3973 85.4631 69.024C85.1431 68.64 84.8925 68.1867 84.7111 67.664C84.5405 67.1307 84.4551 66.5333 84.4551 65.872C84.4551 65.2213 84.5405 64.6293 84.7111 64.096C84.8925 63.5627 85.1431 63.1093 85.4631 62.736C85.7938 62.352 86.1831 62.0587 86.6311 61.856C87.0898 61.6533 87.6018 61.552 88.1671 61.552C88.7218 61.552 89.2178 61.6533 89.6551 61.856C90.0925 62.0587 90.4658 62.3413 90.7751 62.704C91.0845 63.056 91.3191 63.4773 91.4791 63.968C91.6498 64.4587 91.7351 64.9973 91.7351 65.584V66.192H85.7991V66.576C85.7991 66.928 85.8525 67.2587 85.9591 67.568C86.0765 67.8667 86.2365 68.128 86.4391 68.352C86.6525 68.576 86.9085 68.752 87.2071 68.88C87.5165 69.008 87.8631 69.072 88.2471 69.072C88.7698 69.072 89.2231 68.9493 89.6071 68.704C90.0018 68.4587 90.3058 68.1067 90.5191 67.648L91.4311 68.304C91.1645 68.8693 90.7485 69.328 90.1831 69.68C89.6178 70.0213 88.9458 70.192 88.1671 70.192ZM88.1671 62.624C87.8151 62.624 87.4951 62.688 87.2071 62.816C86.9191 62.9333 86.6685 63.104 86.4551 63.328C86.2525 63.552 86.0925 63.8187 85.9751 64.128C85.8578 64.4267 85.7991 64.7573 85.7991 65.12V65.232H90.3591V65.056C90.3591 64.32 90.1565 63.7333 89.7511 63.296C89.3565 62.848 88.8285 62.624 88.1671 62.624Z" fill="#1A1A1A"/>
<path d="M40 72H92.4871V72.96H40V72Z" fill="#1A1A1A"/>
<path d="M16 228C16 225.791 17.7909 224 20 224H397C399.209 224 401 225.791 401 228V240C401 242.209 399.209 244 397 244H20C17.7909 244 16 242.209 16 240V228Z" fill="#DCDCDC"/>
<path d="M16 252C16 249.791 17.7909 248 20 248H397C399.209 248 401 249.791 401 252V264C401 266.209 399.209 268 397 268H20C17.7909 268 16 266.209 16 264V252Z" fill="#DCDCDC"/>
<path d="M16 120C16 117.791 17.7909 116 20 116H398C400.209 116 402 117.791 402 120V132C402 134.209 400.209 136 398 136H20C17.7909 136 16 134.209 16 132V120Z" fill="#DCDCDC"/>
<path d="M16 144C16 141.791 17.7909 140 20 140H398C400.209 140 402 141.791 402 144V156C402 158.209 400.209 160 398 160H20C17.7909 160 16 158.209 16 156V144Z" fill="#DCDCDC"/>
<path d="M16 168C16 165.791 17.7909 164 20 164H300C302.209 164 304 165.791 304 168V180C304 182.209 302.209 184 300 184H20C17.7909 184 16 182.209 16 180V168Z" fill="#DCDCDC"/>
<path d="M16 212C16 209.791 17.7909 208 20 208H130C132.209 208 134 209.791 134 212V216C134 218.209 132.209 220 130 220H20C17.7909 220 16 218.209 16 216V212Z" fill="#DCDCDC"/>
<path d="M16 104C16 101.791 17.7909 100 20 100H130C132.209 100 134 101.791 134 104V108C134 110.209 132.209 112 130 112H20C17.7909 112 16 110.209 16 108V104Z" fill="#DCDCDC"/>
<g clip-path="url(#clip0_14279_21037)">
<path d="M17.302 25V15.228H23.126V16.264H18.478V19.54H22.72V20.576H18.478V25H17.302ZM27.3848 25.168C26.8995 25.168 26.4562 25.0793 26.0548 24.902C25.6535 24.7247 25.3082 24.4727 25.0188 24.146C24.7388 23.81 24.5195 23.4133 24.3608 22.956C24.2022 22.4893 24.1228 21.9667 24.1228 21.388C24.1228 20.8187 24.2022 20.3007 24.3608 19.834C24.5195 19.3673 24.7388 18.9707 25.0188 18.644C25.3082 18.308 25.6535 18.0513 26.0548 17.874C26.4562 17.6967 26.8995 17.608 27.3848 17.608C27.8702 17.608 28.3088 17.6967 28.7008 17.874C29.1022 18.0513 29.4475 18.308 29.7368 18.644C30.0262 18.9707 30.2502 19.3673 30.4088 19.834C30.5675 20.3007 30.6468 20.8187 30.6468 21.388C30.6468 21.9667 30.5675 22.4893 30.4088 22.956C30.2502 23.4133 30.0262 23.81 29.7368 24.146C29.4475 24.4727 29.1022 24.7247 28.7008 24.902C28.3088 25.0793 27.8702 25.168 27.3848 25.168ZM27.3848 24.174C27.9915 24.174 28.4862 23.9873 28.8688 23.614C29.2515 23.2407 29.4428 22.6713 29.4428 21.906V20.87C29.4428 20.1047 29.2515 19.5353 28.8688 19.162C28.4862 18.7887 27.9915 18.602 27.3848 18.602C26.7782 18.602 26.2835 18.7887 25.9008 19.162C25.5182 19.5353 25.3268 20.1047 25.3268 20.87V21.906C25.3268 22.6713 25.5182 23.2407 25.9008 23.614C26.2835 23.9873 26.7782 24.174 27.3848 24.174ZM32.4888 25V17.776H33.6088V19.106H33.6788C33.8095 18.7607 34.0428 18.4527 34.3788 18.182C34.7148 17.9113 35.1768 17.776 35.7648 17.776H36.1988V18.896H35.5408C34.9342 18.896 34.4582 19.0127 34.1128 19.246C33.7768 19.47 33.6088 19.7547 33.6088 20.1V25H32.4888ZM39.7995 25.168C39.1275 25.168 38.5628 25.042 38.1055 24.79C37.6575 24.5287 37.2701 24.1833 36.9435 23.754L37.7415 23.11C38.0215 23.4647 38.3341 23.74 38.6795 23.936C39.0248 24.1227 39.4261 24.216 39.8835 24.216C40.3595 24.216 40.7281 24.1133 40.9895 23.908C41.2601 23.7027 41.3955 23.4133 41.3955 23.04C41.3955 22.76 41.3021 22.522 41.1155 22.326C40.9381 22.1207 40.6115 21.9807 40.1355 21.906L39.5615 21.822C39.2255 21.7753 38.9175 21.7053 38.6375 21.612C38.3575 21.5093 38.1101 21.3787 37.8955 21.22C37.6901 21.052 37.5268 20.8467 37.4055 20.604C37.2935 20.3613 37.2375 20.072 37.2375 19.736C37.2375 19.3813 37.3028 19.0733 37.4335 18.812C37.5641 18.5413 37.7415 18.3173 37.9655 18.14C38.1988 17.9627 38.4741 17.832 38.7915 17.748C39.1088 17.6547 39.4495 17.608 39.8135 17.608C40.4015 17.608 40.8915 17.7107 41.2835 17.916C41.6848 18.1213 42.0348 18.406 42.3335 18.77L41.5915 19.442C41.4328 19.218 41.1995 19.0173 40.8915 18.84C40.5835 18.6533 40.1961 18.56 39.7295 18.56C39.2628 18.56 38.9081 18.6627 38.6655 18.868C38.4321 19.064 38.3155 19.3347 38.3155 19.68C38.3155 20.0347 38.4321 20.2913 38.6655 20.45C38.9081 20.6087 39.2535 20.7253 39.7015 20.8L40.2615 20.884C41.0641 21.0053 41.6335 21.2387 41.9695 21.584C42.3055 21.92 42.4735 22.3633 42.4735 22.914C42.4735 23.614 42.2355 24.1647 41.7595 24.566C41.2835 24.9673 40.6301 25.168 39.7995 25.168ZM45.0117 16.082C44.7691 16.082 44.5917 16.026 44.4797 15.914C44.3771 15.7927 44.3257 15.6387 44.3257 15.452V15.27C44.3257 15.0833 44.3771 14.934 44.4797 14.822C44.5917 14.7007 44.7691 14.64 45.0117 14.64C45.2544 14.64 45.4271 14.7007 45.5297 14.822C45.6417 14.934 45.6977 15.0833 45.6977 15.27V15.452C45.6977 15.6387 45.6417 15.7927 45.5297 15.914C45.4271 16.026 45.2544 16.082 45.0117 16.082ZM44.4517 17.776H45.5717V25H44.4517V17.776ZM52.5717 23.824H52.5157C52.0771 24.72 51.3724 25.168 50.4017 25.168C49.9537 25.168 49.5477 25.0793 49.1837 24.902C48.8197 24.7247 48.5071 24.4727 48.2457 24.146C47.9937 23.8193 47.7977 23.4227 47.6577 22.956C47.5271 22.4893 47.4617 21.9667 47.4617 21.388C47.4617 20.8093 47.5271 20.2867 47.6577 19.82C47.7977 19.3533 47.9937 18.9567 48.2457 18.63C48.5071 18.3033 48.8197 18.0513 49.1837 17.874C49.5477 17.6967 49.9537 17.608 50.4017 17.608C50.9057 17.608 51.3351 17.72 51.6897 17.944C52.0537 18.1587 52.3291 18.4947 52.5157 18.952H52.5717V14.64H53.6917V25H52.5717V23.824ZM50.7097 24.16C50.9617 24.16 51.1997 24.1273 51.4237 24.062C51.6571 23.9967 51.8577 23.9033 52.0257 23.782C52.1937 23.6513 52.3244 23.4973 52.4177 23.32C52.5204 23.1333 52.5717 22.9233 52.5717 22.69V20.002C52.5717 19.806 52.5204 19.624 52.4177 19.456C52.3244 19.2787 52.1937 19.1293 52.0257 19.008C51.8577 18.8867 51.6571 18.7933 51.4237 18.728C51.1997 18.6533 50.9617 18.616 50.7097 18.616C50.0751 18.616 49.5757 18.8167 49.2117 19.218C48.8477 19.61 48.6657 20.128 48.6657 20.772V22.004C48.6657 22.648 48.8477 23.1707 49.2117 23.572C49.5757 23.964 50.0751 24.16 50.7097 24.16ZM58.7888 25.168C58.2941 25.168 57.8461 25.0793 57.4448 24.902C57.0528 24.7247 56.7121 24.4727 56.4228 24.146C56.1428 23.81 55.9235 23.4133 55.7648 22.956C55.6155 22.4893 55.5408 21.9667 55.5408 21.388C55.5408 20.8187 55.6155 20.3007 55.7648 19.834C55.9235 19.3673 56.1428 18.9707 56.4228 18.644C56.7121 18.308 57.0528 18.0513 57.4448 17.874C57.8461 17.6967 58.2941 17.608 58.7888 17.608C59.2741 17.608 59.7081 17.6967 60.0908 17.874C60.4735 18.0513 60.8001 18.2987 61.0708 18.616C61.3415 18.924 61.5468 19.2927 61.6868 19.722C61.8361 20.1513 61.9108 20.6227 61.9108 21.136V21.668H56.7168V22.004C56.7168 22.312 56.7635 22.6013 56.8568 22.872C56.9595 23.1333 57.0995 23.362 57.2768 23.558C57.4635 23.754 57.6875 23.908 57.9488 24.02C58.2195 24.132 58.5228 24.188 58.8588 24.188C59.3161 24.188 59.7128 24.0807 60.0488 23.866C60.3941 23.6513 60.6601 23.3433 60.8468 22.942L61.6448 23.516C61.4115 24.0107 61.0475 24.412 60.5528 24.72C60.0581 25.0187 59.4701 25.168 58.7888 25.168ZM58.7888 18.546C58.4808 18.546 58.2008 18.602 57.9488 18.714C57.6968 18.8167 57.4775 18.966 57.2908 19.162C57.1135 19.358 56.9735 19.5913 56.8708 19.862C56.7681 20.1233 56.7168 20.4127 56.7168 20.73V20.828H60.7068V20.674C60.7068 20.03 60.5295 19.5167 60.1748 19.134C59.8295 18.742 59.3675 18.546 58.7888 18.546Z" fill="#1A1A1A"/>
<path d="M16 26.75H62.5688V27.59H16V26.75Z" fill="#1A1A1A"/>
<path d="M77.4993 20L73.666 16.1667L74.8327 15L79.8327 20L74.8327 25L73.666 23.8333L77.4993 20Z" fill="#8E8E8E"/>
<path d="M95.046 25.168C94.2527 25.168 93.576 25.0187 93.016 24.72C92.456 24.412 91.98 23.992 91.588 23.46L92.456 22.732C92.8013 23.1893 93.184 23.5393 93.604 23.782C94.024 24.0153 94.5187 24.132 95.088 24.132C95.788 24.132 96.32 23.964 96.684 23.628C97.0573 23.292 97.244 22.844 97.244 22.284C97.244 21.8173 97.104 21.458 96.824 21.206C96.544 20.954 96.082 20.7533 95.438 20.604L94.64 20.422C93.744 20.2167 93.058 19.9087 92.582 19.498C92.1153 19.078 91.882 18.49 91.882 17.734C91.882 17.3047 91.9613 16.922 92.12 16.586C92.2787 16.25 92.498 15.97 92.778 15.746C93.0673 15.522 93.408 15.354 93.8 15.242C94.2013 15.1207 94.64 15.06 95.116 15.06C95.8533 15.06 96.4833 15.1953 97.006 15.466C97.538 15.7367 97.986 16.1333 98.35 16.656L97.468 17.3C97.1973 16.9267 96.8707 16.6327 96.488 16.418C96.1053 16.2033 95.6293 16.096 95.06 16.096C94.4347 16.096 93.94 16.2313 93.576 16.502C93.2213 16.7633 93.044 17.16 93.044 17.692C93.044 18.1587 93.1933 18.5133 93.492 18.756C93.8 18.9893 94.262 19.176 94.878 19.316L95.676 19.498C96.6373 19.7127 97.3327 20.0393 97.762 20.478C98.1913 20.9167 98.406 21.5 98.406 22.228C98.406 22.676 98.3267 23.082 98.168 23.446C98.0187 23.81 97.7993 24.118 97.51 24.37C97.2207 24.622 96.866 24.818 96.446 24.958C96.0353 25.098 95.5687 25.168 95.046 25.168ZM100.885 16.082C100.642 16.082 100.465 16.026 100.353 15.914C100.25 15.7927 100.199 15.6387 100.199 15.452V15.27C100.199 15.0833 100.25 14.934 100.353 14.822C100.465 14.7007 100.642 14.64 100.885 14.64C101.127 14.64 101.3 14.7007 101.403 14.822C101.515 14.934 101.571 15.0833 101.571 15.27V15.452C101.571 15.6387 101.515 15.7927 101.403 15.914C101.3 16.026 101.127 16.082 100.885 16.082ZM100.325 17.776H101.445V25H100.325V17.776ZM108.445 23.824H108.389C107.95 24.72 107.245 25.168 106.275 25.168C105.827 25.168 105.421 25.0793 105.057 24.902C104.693 24.7247 104.38 24.4727 104.119 24.146C103.867 23.8193 103.671 23.4227 103.531 22.956C103.4 22.4893 103.335 21.9667 103.335 21.388C103.335 20.8093 103.4 20.2867 103.531 19.82C103.671 19.3533 103.867 18.9567 104.119 18.63C104.38 18.3033 104.693 18.0513 105.057 17.874C105.421 17.6967 105.827 17.608 106.275 17.608C106.779 17.608 107.208 17.72 107.563 17.944C107.927 18.1587 108.202 18.4947 108.389 18.952H108.445V14.64H109.565V25H108.445V23.824ZM106.583 24.16C106.835 24.16 107.073 24.1273 107.297 24.062C107.53 23.9967 107.731 23.9033 107.899 23.782C108.067 23.6513 108.197 23.4973 108.291 23.32C108.393 23.1333 108.445 22.9233 108.445 22.69V20.002C108.445 19.806 108.393 19.624 108.291 19.456C108.197 19.2787 108.067 19.1293 107.899 19.008C107.731 18.8867 107.53 18.7933 107.297 18.728C107.073 18.6533 106.835 18.616 106.583 18.616C105.948 18.616 105.449 18.8167 105.085 19.218C104.721 19.61 104.539 20.128 104.539 20.772V22.004C104.539 22.648 104.721 23.1707 105.085 23.572C105.449 23.964 105.948 24.16 106.583 24.16ZM114.662 25.168C114.167 25.168 113.719 25.0793 113.318 24.902C112.926 24.7247 112.585 24.4727 112.296 24.146C112.016 23.81 111.797 23.4133 111.638 22.956C111.489 22.4893 111.414 21.9667 111.414 21.388C111.414 20.8187 111.489 20.3007 111.638 19.834C111.797 19.3673 112.016 18.9707 112.296 18.644C112.585 18.308 112.926 18.0513 113.318 17.874C113.719 17.6967 114.167 17.608 114.662 17.608C115.147 17.608 115.581 17.6967 115.964 17.874C116.347 18.0513 116.673 18.2987 116.944 18.616C117.215 18.924 117.42 19.2927 117.56 19.722C117.709 20.1513 117.784 20.6227 117.784 21.136V21.668H112.59V22.004C112.59 22.312 112.637 22.6013 112.73 22.872C112.833 23.1333 112.973 23.362 113.15 23.558C113.337 23.754 113.561 23.908 113.822 24.02C114.093 24.132 114.396 24.188 114.732 24.188C115.189 24.188 115.586 24.0807 115.922 23.866C116.267 23.6513 116.533 23.3433 116.72 22.942L117.518 23.516C117.285 24.0107 116.921 24.412 116.426 24.72C115.931 25.0187 115.343 25.168 114.662 25.168ZM114.662 18.546C114.354 18.546 114.074 18.602 113.822 18.714C113.57 18.8167 113.351 18.966 113.164 19.162C112.987 19.358 112.847 19.5913 112.744 19.862C112.641 20.1233 112.59 20.4127 112.59 20.73V20.828H116.58V20.674C116.58 20.03 116.403 19.5167 116.048 19.134C115.703 18.742 115.241 18.546 114.662 18.546ZM129.168 25L128.188 22.116H124.24L123.26 25H122.07L125.486 15.228H126.984L130.4 25H129.168ZM126.242 16.32H126.172L124.52 21.08H127.894L126.242 16.32Z" fill="#1A1A1A"/>
<path d="M91 26.75H130.722V27.59H91V26.75Z" fill="#1A1A1A"/>
<path d="M145.499 20L141.666 16.1667L142.833 15L147.833 20L142.833 25L141.666 23.8333L145.499 20Z" fill="#8E8E8E"/>
<path d="M163.046 25.168C162.253 25.168 161.576 25.0187 161.016 24.72C160.456 24.412 159.98 23.992 159.588 23.46L160.456 22.732C160.801 23.1893 161.184 23.5393 161.604 23.782C162.024 24.0153 162.519 24.132 163.088 24.132C163.788 24.132 164.32 23.964 164.684 23.628C165.057 23.292 165.244 22.844 165.244 22.284C165.244 21.8173 165.104 21.458 164.824 21.206C164.544 20.954 164.082 20.7533 163.438 20.604L162.64 20.422C161.744 20.2167 161.058 19.9087 160.582 19.498C160.115 19.078 159.882 18.49 159.882 17.734C159.882 17.3047 159.961 16.922 160.12 16.586C160.279 16.25 160.498 15.97 160.778 15.746C161.067 15.522 161.408 15.354 161.8 15.242C162.201 15.1207 162.64 15.06 163.116 15.06C163.853 15.06 164.483 15.1953 165.006 15.466C165.538 15.7367 165.986 16.1333 166.35 16.656L165.468 17.3C165.197 16.9267 164.871 16.6327 164.488 16.418C164.105 16.2033 163.629 16.096 163.06 16.096C162.435 16.096 161.94 16.2313 161.576 16.502C161.221 16.7633 161.044 17.16 161.044 17.692C161.044 18.1587 161.193 18.5133 161.492 18.756C161.8 18.9893 162.262 19.176 162.878 19.316L163.676 19.498C164.637 19.7127 165.333 20.0393 165.762 20.478C166.191 20.9167 166.406 21.5 166.406 22.228C166.406 22.676 166.327 23.082 166.168 23.446C166.019 23.81 165.799 24.118 165.51 24.37C165.221 24.622 164.866 24.818 164.446 24.958C164.035 25.098 163.569 25.168 163.046 25.168ZM168.885 16.082C168.642 16.082 168.465 16.026 168.353 15.914C168.25 15.7927 168.199 15.6387 168.199 15.452V15.27C168.199 15.0833 168.25 14.934 168.353 14.822C168.465 14.7007 168.642 14.64 168.885 14.64C169.127 14.64 169.3 14.7007 169.403 14.822C169.515 14.934 169.571 15.0833 169.571 15.27V15.452C169.571 15.6387 169.515 15.7927 169.403 15.914C169.3 16.026 169.127 16.082 168.885 16.082ZM168.325 17.776H169.445V25H168.325V17.776ZM176.445 23.824H176.389C175.95 24.72 175.245 25.168 174.275 25.168C173.827 25.168 173.421 25.0793 173.057 24.902C172.693 24.7247 172.38 24.4727 172.119 24.146C171.867 23.8193 171.671 23.4227 171.531 22.956C171.4 22.4893 171.335 21.9667 171.335 21.388C171.335 20.8093 171.4 20.2867 171.531 19.82C171.671 19.3533 171.867 18.9567 172.119 18.63C172.38 18.3033 172.693 18.0513 173.057 17.874C173.421 17.6967 173.827 17.608 174.275 17.608C174.779 17.608 175.208 17.72 175.563 17.944C175.927 18.1587 176.202 18.4947 176.389 18.952H176.445V14.64H177.565V25H176.445V23.824ZM174.583 24.16C174.835 24.16 175.073 24.1273 175.297 24.062C175.53 23.9967 175.731 23.9033 175.899 23.782C176.067 23.6513 176.197 23.4973 176.291 23.32C176.393 23.1333 176.445 22.9233 176.445 22.69V20.002C176.445 19.806 176.393 19.624 176.291 19.456C176.197 19.2787 176.067 19.1293 175.899 19.008C175.731 18.8867 175.53 18.7933 175.297 18.728C175.073 18.6533 174.835 18.616 174.583 18.616C173.948 18.616 173.449 18.8167 173.085 19.218C172.721 19.61 172.539 20.128 172.539 20.772V22.004C172.539 22.648 172.721 23.1707 173.085 23.572C173.449 23.964 173.948 24.16 174.583 24.16ZM182.662 25.168C182.167 25.168 181.719 25.0793 181.318 24.902C180.926 24.7247 180.585 24.4727 180.296 24.146C180.016 23.81 179.797 23.4133 179.638 22.956C179.489 22.4893 179.414 21.9667 179.414 21.388C179.414 20.8187 179.489 20.3007 179.638 19.834C179.797 19.3673 180.016 18.9707 180.296 18.644C180.585 18.308 180.926 18.0513 181.318 17.874C181.719 17.6967 182.167 17.608 182.662 17.608C183.147 17.608 183.581 17.6967 183.964 17.874C184.347 18.0513 184.673 18.2987 184.944 18.616C185.215 18.924 185.42 19.2927 185.56 19.722C185.709 20.1513 185.784 20.6227 185.784 21.136V21.668H180.59V22.004C180.59 22.312 180.637 22.6013 180.73 22.872C180.833 23.1333 180.973 23.362 181.15 23.558C181.337 23.754 181.561 23.908 181.822 24.02C182.093 24.132 182.396 24.188 182.732 24.188C183.189 24.188 183.586 24.0807 183.922 23.866C184.267 23.6513 184.533 23.3433 184.72 22.942L185.518 23.516C185.285 24.0107 184.921 24.412 184.426 24.72C183.931 25.0187 183.343 25.168 182.662 25.168ZM182.662 18.546C182.354 18.546 182.074 18.602 181.822 18.714C181.57 18.8167 181.351 18.966 181.164 19.162C180.987 19.358 180.847 19.5913 180.744 19.862C180.641 20.1233 180.59 20.4127 180.59 20.73V20.828H184.58V20.674C184.58 20.03 184.403 19.5167 184.048 19.134C183.703 18.742 183.241 18.546 182.662 18.546ZM191.05 15.228H195.068C195.88 15.228 196.515 15.4567 196.972 15.914C197.439 16.3713 197.672 16.9827 197.672 17.748C197.672 18.112 197.621 18.42 197.518 18.672C197.415 18.924 197.285 19.134 197.126 19.302C196.967 19.4607 196.795 19.582 196.608 19.666C196.421 19.7407 196.249 19.792 196.09 19.82V19.904C196.267 19.9133 196.463 19.96 196.678 20.044C196.902 20.128 197.112 20.2633 197.308 20.45C197.504 20.6273 197.667 20.8607 197.798 21.15C197.938 21.43 198.008 21.7707 198.008 22.172C198.008 22.5733 197.943 22.9467 197.812 23.292C197.691 23.6373 197.518 23.936 197.294 24.188C197.07 24.44 196.804 24.6407 196.496 24.79C196.188 24.93 195.852 25 195.488 25H191.05V15.228ZM192.226 23.964H195.124C195.628 23.964 196.025 23.838 196.314 23.586C196.603 23.3247 196.748 22.9467 196.748 22.452V21.976C196.748 21.4813 196.603 21.108 196.314 20.856C196.025 20.5947 195.628 20.464 195.124 20.464H192.226V23.964ZM192.226 19.456H194.928C195.395 19.456 195.759 19.3393 196.02 19.106C196.281 18.8727 196.412 18.5367 196.412 18.098V17.622C196.412 17.1833 196.281 16.8473 196.02 16.614C195.759 16.3807 195.395 16.264 194.928 16.264H192.226V19.456Z" fill="#1A1A1A"/>
<path d="M159 26.75H198.89V27.59H159V26.75Z" fill="#1A1A1A"/>
<path d="M213.499 20L209.666 16.1667L210.833 15L215.833 20L210.833 25L209.666 23.8333L213.499 20Z" fill="#8E8E8E"/>
<path d="M231.046 25.168C230.253 25.168 229.576 25.0187 229.016 24.72C228.456 24.412 227.98 23.992 227.588 23.46L228.456 22.732C228.801 23.1893 229.184 23.5393 229.604 23.782C230.024 24.0153 230.519 24.132 231.088 24.132C231.788 24.132 232.32 23.964 232.684 23.628C233.057 23.292 233.244 22.844 233.244 22.284C233.244 21.8173 233.104 21.458 232.824 21.206C232.544 20.954 232.082 20.7533 231.438 20.604L230.64 20.422C229.744 20.2167 229.058 19.9087 228.582 19.498C228.115 19.078 227.882 18.49 227.882 17.734C227.882 17.3047 227.961 16.922 228.12 16.586C228.279 16.25 228.498 15.97 228.778 15.746C229.067 15.522 229.408 15.354 229.8 15.242C230.201 15.1207 230.64 15.06 231.116 15.06C231.853 15.06 232.483 15.1953 233.006 15.466C233.538 15.7367 233.986 16.1333 234.35 16.656L233.468 17.3C233.197 16.9267 232.871 16.6327 232.488 16.418C232.105 16.2033 231.629 16.096 231.06 16.096C230.435 16.096 229.94 16.2313 229.576 16.502C229.221 16.7633 229.044 17.16 229.044 17.692C229.044 18.1587 229.193 18.5133 229.492 18.756C229.8 18.9893 230.262 19.176 230.878 19.316L231.676 19.498C232.637 19.7127 233.333 20.0393 233.762 20.478C234.191 20.9167 234.406 21.5 234.406 22.228C234.406 22.676 234.327 23.082 234.168 23.446C234.019 23.81 233.799 24.118 233.51 24.37C233.221 24.622 232.866 24.818 232.446 24.958C232.035 25.098 231.569 25.168 231.046 25.168ZM236.885 16.082C236.642 16.082 236.465 16.026 236.353 15.914C236.25 15.7927 236.199 15.6387 236.199 15.452V15.27C236.199 15.0833 236.25 14.934 236.353 14.822C236.465 14.7007 236.642 14.64 236.885 14.64C237.127 14.64 237.3 14.7007 237.403 14.822C237.515 14.934 237.571 15.0833 237.571 15.27V15.452C237.571 15.6387 237.515 15.7927 237.403 15.914C237.3 16.026 237.127 16.082 236.885 16.082ZM236.325 17.776H237.445V25H236.325V17.776ZM244.445 23.824H244.389C243.95 24.72 243.245 25.168 242.275 25.168C241.827 25.168 241.421 25.0793 241.057 24.902C240.693 24.7247 240.38 24.4727 240.119 24.146C239.867 23.8193 239.671 23.4227 239.531 22.956C239.4 22.4893 239.335 21.9667 239.335 21.388C239.335 20.8093 239.4 20.2867 239.531 19.82C239.671 19.3533 239.867 18.9567 240.119 18.63C240.38 18.3033 240.693 18.0513 241.057 17.874C241.421 17.6967 241.827 17.608 242.275 17.608C242.779 17.608 243.208 17.72 243.563 17.944C243.927 18.1587 244.202 18.4947 244.389 18.952H244.445V14.64H245.565V25H244.445V23.824ZM242.583 24.16C242.835 24.16 243.073 24.1273 243.297 24.062C243.53 23.9967 243.731 23.9033 243.899 23.782C244.067 23.6513 244.197 23.4973 244.291 23.32C244.393 23.1333 244.445 22.9233 244.445 22.69V20.002C244.445 19.806 244.393 19.624 244.291 19.456C244.197 19.2787 244.067 19.1293 243.899 19.008C243.731 18.8867 243.53 18.7933 243.297 18.728C243.073 18.6533 242.835 18.616 242.583 18.616C241.948 18.616 241.449 18.8167 241.085 19.218C240.721 19.61 240.539 20.128 240.539 20.772V22.004C240.539 22.648 240.721 23.1707 241.085 23.572C241.449 23.964 241.948 24.16 242.583 24.16ZM250.662 25.168C250.167 25.168 249.719 25.0793 249.318 24.902C248.926 24.7247 248.585 24.4727 248.296 24.146C248.016 23.81 247.797 23.4133 247.638 22.956C247.489 22.4893 247.414 21.9667 247.414 21.388C247.414 20.8187 247.489 20.3007 247.638 19.834C247.797 19.3673 248.016 18.9707 248.296 18.644C248.585 18.308 248.926 18.0513 249.318 17.874C249.719 17.6967 250.167 17.608 250.662 17.608C251.147 17.608 251.581 17.6967 251.964 17.874C252.347 18.0513 252.673 18.2987 252.944 18.616C253.215 18.924 253.42 19.2927 253.56 19.722C253.709 20.1513 253.784 20.6227 253.784 21.136V21.668H248.59V22.004C248.59 22.312 248.637 22.6013 248.73 22.872C248.833 23.1333 248.973 23.362 249.15 23.558C249.337 23.754 249.561 23.908 249.822 24.02C250.093 24.132 250.396 24.188 250.732 24.188C251.189 24.188 251.586 24.0807 251.922 23.866C252.267 23.6513 252.533 23.3433 252.72 22.942L253.518 23.516C253.285 24.0107 252.921 24.412 252.426 24.72C251.931 25.0187 251.343 25.168 250.662 25.168ZM250.662 18.546C250.354 18.546 250.074 18.602 249.822 18.714C249.57 18.8167 249.351 18.966 249.164 19.162C248.987 19.358 248.847 19.5913 248.744 19.862C248.641 20.1233 248.59 20.4127 248.59 20.73V20.828H252.58V20.674C252.58 20.03 252.403 19.5167 252.048 19.134C251.703 18.742 251.241 18.546 250.662 18.546ZM262.494 25.168C261.253 25.168 260.287 24.748 259.596 23.908C258.905 23.0587 258.56 21.8127 258.56 20.17C258.56 18.5273 258.905 17.2673 259.596 16.39C260.287 15.5033 261.253 15.06 262.494 15.06C263.315 15.06 264.001 15.2467 264.552 15.62C265.112 15.9933 265.546 16.5207 265.854 17.202L264.902 17.776C264.706 17.272 264.407 16.8707 264.006 16.572C263.605 16.264 263.101 16.11 262.494 16.11C262.074 16.11 261.696 16.1893 261.36 16.348C261.033 16.5067 260.753 16.7353 260.52 17.034C260.296 17.3233 260.123 17.6733 260.002 18.084C259.881 18.4853 259.82 18.938 259.82 19.442V20.898C259.82 21.906 260.053 22.6947 260.52 23.264C260.987 23.8333 261.645 24.118 262.494 24.118C263.119 24.118 263.642 23.9593 264.062 23.642C264.482 23.3153 264.79 22.886 264.986 22.354L265.924 22.942C265.616 23.6327 265.173 24.1787 264.594 24.58C264.015 24.972 263.315 25.168 262.494 25.168Z" fill="#1A1A1A"/>
</g>
<defs>
<clipPath id="clip0_14279_21037">
<rect width="251" height="24" fill="white" transform="translate(16 8)"/>
</clipPath>
</defs>
</svg>
