<svg width="418" height="284" viewBox="0 0 418 284" fill="none" xmlns="http://www.w3.org/2000/svg">
<rect width="418" height="284" fill="white"/>
<path d="M16 236C16 231.582 19.5817 228 24 228H89C93.4183 228 97 231.582 97 236V260C97 264.418 93.4183 268 89 268H24C19.5817 268 16 264.418 16 260V236Z" fill="#44831E"/>
<path d="M36.512 248.272L35.36 245.952H35.312V254H33.312V242.832H35.632L38.992 248.56L40.144 250.88H40.192V242.832H42.192V254H39.872L36.512 248.272ZM47.772 250.336C47.26 250.347 46.8653 250.443 46.588 250.624C46.3107 250.795 46.172 251.051 46.172 251.392V251.648C46.172 251.989 46.2787 252.251 46.492 252.432C46.7053 252.613 47.0253 252.704 47.452 252.704C47.9 252.704 48.284 252.603 48.604 252.4C48.924 252.197 49.084 251.899 49.084 251.504V250.336H47.772ZM54.572 249.072V248.928C54.572 248.352 54.428 247.888 54.14 247.536C53.8627 247.173 53.4573 246.992 52.924 246.992C52.38 246.992 51.948 247.173 51.628 247.536C51.308 247.899 51.148 248.368 51.148 248.944V249.072H54.572ZM53.212 252.528C53.7133 252.528 54.1347 252.421 54.476 252.208C54.8173 251.995 55.1053 251.733 55.34 251.424L56.444 252.656C56.1027 253.136 55.6387 253.515 55.052 253.792C54.4653 254.059 53.7933 254.192 53.036 254.192C52.6307 254.192 52.252 254.144 51.9 254.048C51.548 253.952 51.2333 253.824 50.956 253.664C50.6893 253.504 50.46 253.323 50.268 253.12C50.076 252.917 49.932 252.704 49.836 252.48H49.74C49.6653 252.693 49.548 252.901 49.388 253.104C49.2387 253.307 49.0413 253.488 48.796 253.648C48.5507 253.808 48.2573 253.936 47.916 254.032C47.5853 254.139 47.196 254.192 46.748 254.192C45.9053 254.192 45.2493 253.963 44.78 253.504C44.3213 253.045 44.092 252.448 44.092 251.712C44.092 251.275 44.1773 250.891 44.348 250.56C44.5187 250.229 44.7587 249.957 45.068 249.744C45.3773 249.52 45.7507 249.355 46.188 249.248C46.6253 249.131 47.116 249.072 47.66 249.072H49.084V248.56C49.084 248.091 48.9613 247.728 48.716 247.472C48.4707 247.216 48.0813 247.088 47.548 247.088C47.0573 247.088 46.6627 247.189 46.364 247.392C46.076 247.595 45.8307 247.845 45.628 248.144L44.412 247.056C44.7213 246.576 45.132 246.192 45.644 245.904C46.156 245.605 46.8333 245.456 47.676 245.456C48.316 245.456 48.828 245.589 49.212 245.856C49.596 246.112 49.8947 246.437 50.108 246.832H50.204C50.4173 246.437 50.764 246.112 51.244 245.856C51.724 245.589 52.3 245.456 52.972 245.456C53.6227 245.456 54.1827 245.568 54.652 245.792C55.1213 246.016 55.5053 246.32 55.804 246.704C56.1133 247.088 56.3373 247.536 56.476 248.048C56.6253 248.549 56.7 249.088 56.7 249.664V250.336H51.132V250.544C51.132 251.141 51.3133 251.621 51.676 251.984C52.0387 252.347 52.5507 252.528 53.212 252.528ZM61.2481 254.192C60.4481 254.192 59.7761 254.059 59.2321 253.792C58.6881 253.515 58.2081 253.136 57.7921 252.656L59.0401 251.44C59.3495 251.792 59.6855 252.069 60.0481 252.272C60.4215 252.475 60.8481 252.576 61.3281 252.576C61.8188 252.576 62.1708 252.491 62.3841 252.32C62.6081 252.149 62.7201 251.915 62.7201 251.616C62.7201 251.371 62.6401 251.179 62.4801 251.04C62.3308 250.891 62.0695 250.789 61.6961 250.736L60.8641 250.624C59.9575 250.507 59.2641 250.251 58.7841 249.856C58.3148 249.451 58.0801 248.864 58.0801 248.096C58.0801 247.691 58.1548 247.328 58.3041 247.008C58.4535 246.677 58.6668 246.4 58.9441 246.176C59.2215 245.941 59.5521 245.765 59.9361 245.648C60.3308 245.52 60.7681 245.456 61.2481 245.456C61.6535 245.456 62.0108 245.488 62.3201 245.552C62.6401 245.605 62.9281 245.691 63.1841 245.808C63.4401 245.915 63.6748 246.053 63.8881 246.224C64.1015 246.384 64.3095 246.565 64.5121 246.768L63.3121 247.968C63.0668 247.712 62.7735 247.499 62.4321 247.328C62.0908 247.157 61.7175 247.072 61.3121 247.072C60.8641 247.072 60.5388 247.152 60.3361 247.312C60.1441 247.472 60.0481 247.68 60.0481 247.936C60.0481 248.213 60.1281 248.427 60.2881 248.576C60.4588 248.715 60.7415 248.816 61.1361 248.88L61.9841 248.992C63.7868 249.248 64.6881 250.069 64.6881 251.456C64.6881 251.861 64.6028 252.235 64.4321 252.576C64.2721 252.907 64.0428 253.195 63.7441 253.44C63.4455 253.675 63.0828 253.861 62.6561 254C62.2401 254.128 61.7708 254.192 61.2481 254.192ZM68.9795 254C68.2755 254 67.7368 253.819 67.3635 253.456C67.0008 253.083 66.8195 252.555 66.8195 251.872V247.28H65.5875V245.648H66.2275C66.5368 245.648 66.7448 245.579 66.8515 245.44C66.9688 245.291 67.0275 245.072 67.0275 244.784V243.36H68.8675V245.648H70.5795V247.28H68.8675V252.368H70.4515V254H68.9795ZM75.6694 254.192C75.0507 254.192 74.496 254.091 74.0054 253.888C73.5254 253.675 73.1147 253.381 72.7734 253.008C72.4427 252.624 72.1867 252.165 72.0054 251.632C71.824 251.088 71.7334 250.48 71.7334 249.808C71.7334 249.147 71.8187 248.549 71.9894 248.016C72.1707 247.483 72.4267 247.029 72.7574 246.656C73.088 246.272 73.4934 245.979 73.9734 245.776C74.4534 245.563 74.9974 245.456 75.6054 245.456C76.256 245.456 76.8214 245.568 77.3014 245.792C77.7814 246.016 78.176 246.32 78.4854 246.704C78.7947 247.088 79.024 247.536 79.1734 248.048C79.3334 248.549 79.4134 249.088 79.4134 249.664V250.336H73.8614V250.544C73.8614 251.152 74.032 251.643 74.3734 252.016C74.7147 252.379 75.2214 252.56 75.8934 252.56C76.4054 252.56 76.8214 252.453 77.1414 252.24C77.472 252.027 77.7654 251.755 78.0214 251.424L79.1254 252.656C78.784 253.136 78.3147 253.515 77.7174 253.792C77.1307 254.059 76.448 254.192 75.6694 254.192ZM75.6374 246.992C75.0934 246.992 74.6614 247.173 74.3414 247.536C74.0214 247.899 73.8614 248.368 73.8614 248.944V249.072H77.2854V248.928C77.2854 248.352 77.1414 247.888 76.8534 247.536C76.576 247.173 76.1707 246.992 75.6374 246.992Z" fill="white"/>
<path d="M16 84C16 81.7909 17.7909 80 20 80H217C219.209 80 221 81.7909 221 84V96C221 98.2091 219.209 100 217 100H20C17.7909 100 16 98.2091 16 96V84Z" fill="#DCDCDC"/>
<path d="M16 136C16 133.791 17.7909 132 20 132H217C219.209 132 221 133.791 221 136V148C221 150.209 219.209 152 217 152H20C17.7909 152 16 150.209 16 148V136Z" fill="#DCDCDC"/>
<path d="M16 188C16 185.791 17.7909 184 20 184H217C219.209 184 221 185.791 221 188V200C221 202.209 219.209 204 217 204H20C17.7909 204 16 202.209 16 200V188Z" fill="#DCDCDC"/>
<path d="M16 68C16 65.7909 17.7909 64 20 64H130C132.209 64 134 65.7909 134 68V72C134 74.2091 132.209 76 130 76H20C17.7909 76 16 74.2091 16 72V68Z" fill="#DCDCDC"/>
<path d="M16 120C16 117.791 17.7909 116 20 116H130C132.209 116 134 117.791 134 120V124C134 126.209 132.209 128 130 128H20C17.7909 128 16 126.209 16 124V120Z" fill="#DCDCDC"/>
<path d="M16 172C16 169.791 17.7909 168 20 168H130C132.209 168 134 169.791 134 172V176C134 178.209 132.209 180 130 180H20C17.7909 180 16 178.209 16 176V172Z" fill="#DCDCDC"/>
<path d="M30 34L24 28L30 22L31.4 23.4L26.8 28L31.4 32.6L30 34Z" fill="#1A1A1A"/>
<path d="M45.248 24.016V34H43.904V24.016H40.352V22.832H48.8V24.016H45.248ZM51.1562 23.808C50.8789 23.808 50.6763 23.744 50.5483 23.616C50.4309 23.4773 50.3723 23.3013 50.3723 23.088V22.88C50.3723 22.6667 50.4309 22.496 50.5483 22.368C50.6763 22.2293 50.8789 22.16 51.1562 22.16C51.4336 22.16 51.6309 22.2293 51.7483 22.368C51.8763 22.496 51.9403 22.6667 51.9403 22.88V23.088C51.9403 23.3013 51.8763 23.4773 51.7483 23.616C51.6309 23.744 51.4336 23.808 51.1562 23.808ZM50.5163 25.744H51.7963V34H50.5163V25.744ZM55.8763 34C55.4283 34 55.0869 33.8773 54.8523 33.632C54.6283 33.376 54.5163 33.056 54.5163 32.672V22.16H55.7963V32.88H57.0123V34H55.8763ZM58.8756 22.16H60.1556V27.088H60.2196C60.433 26.5653 60.7423 26.1813 61.1476 25.936C61.5636 25.68 62.0596 25.552 62.6356 25.552C63.1476 25.552 63.6116 25.6533 64.0276 25.856C64.4436 26.0587 64.7956 26.3467 65.0836 26.72C65.3823 27.0933 65.6063 27.5467 65.7556 28.08C65.9156 28.6133 65.9956 29.2107 65.9956 29.872C65.9956 30.5333 65.9156 31.1307 65.7556 31.664C65.6063 32.1973 65.3823 32.6507 65.0836 33.024C64.7956 33.3973 64.4436 33.6853 64.0276 33.888C63.6116 34.0907 63.1476 34.192 62.6356 34.192C61.5156 34.192 60.7103 33.68 60.2196 32.656H60.1556V34H58.8756V22.16ZM62.2836 33.04C63.009 33.04 63.5796 32.816 63.9956 32.368C64.4116 31.9093 64.6196 31.312 64.6196 30.576V29.168C64.6196 28.432 64.4116 27.84 63.9956 27.392C63.5796 26.9333 63.009 26.704 62.2836 26.704C61.9956 26.704 61.7183 26.7467 61.4516 26.832C61.1956 26.9067 60.9716 27.0133 60.7796 27.152C60.5876 27.2907 60.433 27.4613 60.3156 27.664C60.209 27.856 60.1556 28.064 60.1556 28.288V31.36C60.1556 31.6267 60.209 31.8667 60.3156 32.08C60.433 32.2827 60.5876 32.4587 60.7796 32.608C60.9716 32.7467 61.1956 32.8533 61.4516 32.928C61.7183 33.0027 61.9956 33.04 62.2836 33.04ZM74.1569 34C73.6769 34 73.3302 33.872 73.1169 33.616C72.9142 33.36 72.7862 33.04 72.7329 32.656H72.6529C72.4715 33.168 72.1729 33.552 71.7569 33.808C71.3409 34.064 70.8449 34.192 70.2689 34.192C69.3942 34.192 68.7115 33.968 68.2209 33.52C67.7409 33.072 67.5009 32.464 67.5009 31.696C67.5009 30.9173 67.7835 30.32 68.3489 29.904C68.9249 29.488 69.8155 29.28 71.0209 29.28H72.6529V28.464C72.6529 27.8773 72.4929 27.4293 72.1729 27.12C71.8529 26.8107 71.3622 26.656 70.7009 26.656C70.1995 26.656 69.7782 26.768 69.4369 26.992C69.1062 27.216 68.8289 27.5147 68.6049 27.888L67.8369 27.168C68.0609 26.72 68.4182 26.3413 68.9089 26.032C69.3995 25.712 70.0182 25.552 70.7649 25.552C71.7675 25.552 72.5462 25.7973 73.1009 26.288C73.6555 26.7787 73.9329 27.4613 73.9329 28.336V32.88H74.8769V34H74.1569ZM70.4769 33.104C70.7969 33.104 71.0902 33.0667 71.3569 32.992C71.6235 32.9173 71.8529 32.8107 72.0449 32.672C72.2369 32.5333 72.3862 32.3733 72.4929 32.192C72.5995 32.0107 72.6529 31.8133 72.6529 31.6V30.24H70.9569C70.2209 30.24 69.6822 30.3467 69.3409 30.56C69.0102 30.7733 68.8449 31.0827 68.8449 31.488V31.824C68.8449 32.2293 68.9889 32.544 69.2769 32.768C69.5755 32.992 69.9755 33.104 70.4769 33.104ZM83.6638 34.912C83.6638 35.7653 83.3278 36.3893 82.6558 36.784C81.9944 37.1893 80.9971 37.392 79.6638 37.392C78.3731 37.392 77.4451 37.216 76.8798 36.864C76.3144 36.512 76.0318 36.0107 76.0318 35.36C76.0318 34.912 76.1491 34.56 76.3838 34.304C76.6184 34.0587 76.9384 33.8773 77.3438 33.76V33.584C76.8531 33.3493 76.6078 32.9653 76.6078 32.432C76.6078 32.016 76.7411 31.7013 77.0078 31.488C77.2744 31.264 77.6158 31.0987 78.0318 30.992V30.928C77.5411 30.6933 77.1571 30.3573 76.8798 29.92C76.6131 29.4827 76.4798 28.976 76.4798 28.4C76.4798 27.984 76.5544 27.6 76.7038 27.248C76.8531 26.896 77.0611 26.5973 77.3278 26.352C77.6051 26.096 77.9304 25.8987 78.3038 25.76C78.6878 25.6213 79.1144 25.552 79.5838 25.552C80.1704 25.552 80.6931 25.6587 81.1518 25.872V25.728C81.1518 25.408 81.2264 25.1467 81.3758 24.944C81.5251 24.7307 81.7704 24.624 82.1118 24.624H83.3438V25.744H81.7758V26.272C82.0744 26.528 82.3038 26.8373 82.4638 27.2C82.6344 27.552 82.7198 27.952 82.7198 28.4C82.7198 28.816 82.6451 29.2 82.4958 29.552C82.3464 29.904 82.1331 30.208 81.8558 30.464C81.5891 30.7093 81.2638 30.9013 80.8798 31.04C80.4958 31.1787 80.0691 31.248 79.5998 31.248C79.3331 31.248 79.0664 31.2213 78.7998 31.168C78.5224 31.2427 78.2718 31.3547 78.0478 31.504C77.8238 31.6427 77.7118 31.84 77.7118 32.096C77.7118 32.3413 77.8291 32.5067 78.0638 32.592C78.2984 32.6773 78.6024 32.72 78.9758 32.72H80.7358C81.7598 32.72 82.5011 32.9173 82.9598 33.312C83.4291 33.696 83.6638 34.2293 83.6638 34.912ZM82.4638 35.008C82.4638 34.6773 82.3358 34.4107 82.0798 34.208C81.8344 34.016 81.3918 33.92 80.7518 33.92H77.9998C77.4878 34.1547 77.2318 34.528 77.2318 35.04C77.2318 35.4027 77.3651 35.712 77.6318 35.968C77.9091 36.224 78.3731 36.352 79.0238 36.352H80.2078C80.9224 36.352 81.4771 36.24 81.8718 36.016C82.2664 35.792 82.4638 35.456 82.4638 35.008ZM79.5998 30.224C80.1438 30.224 80.5758 30.096 80.8958 29.84C81.2158 29.5733 81.3758 29.168 81.3758 28.624V28.176C81.3758 27.632 81.2158 27.232 80.8958 26.976C80.5758 26.7093 80.1438 26.576 79.5998 26.576C79.0558 26.576 78.6238 26.7093 78.3038 26.976C77.9838 27.232 77.8238 27.632 77.8238 28.176V28.624C77.8238 29.168 77.9838 29.5733 78.3038 29.84C78.6238 30.096 79.0558 30.224 79.5998 30.224ZM88.1671 34.192C87.6018 34.192 87.0898 34.0907 86.6311 33.888C86.1831 33.6853 85.7938 33.3973 85.4631 33.024C85.1431 32.64 84.8925 32.1867 84.7111 31.664C84.5405 31.1307 84.4551 30.5333 84.4551 29.872C84.4551 29.2213 84.5405 28.6293 84.7111 28.096C84.8925 27.5627 85.1431 27.1093 85.4631 26.736C85.7938 26.352 86.1831 26.0587 86.6311 25.856C87.0898 25.6533 87.6018 25.552 88.1671 25.552C88.7218 25.552 89.2178 25.6533 89.6551 25.856C90.0925 26.0587 90.4658 26.3413 90.7751 26.704C91.0845 27.056 91.3191 27.4773 91.4791 27.968C91.6498 28.4587 91.7351 28.9973 91.7351 29.584V30.192H85.7991V30.576C85.7991 30.928 85.8525 31.2587 85.9591 31.568C86.0765 31.8667 86.2365 32.128 86.4391 32.352C86.6525 32.576 86.9085 32.752 87.2071 32.88C87.5165 33.008 87.8631 33.072 88.2471 33.072C88.7698 33.072 89.2231 32.9493 89.6071 32.704C90.0018 32.4587 90.3058 32.1067 90.5191 31.648L91.4311 32.304C91.1645 32.8693 90.7485 33.328 90.1831 33.68C89.6178 34.0213 88.9458 34.192 88.1671 34.192ZM88.1671 26.624C87.8151 26.624 87.4951 26.688 87.2071 26.816C86.9191 26.9333 86.6685 27.104 86.4551 27.328C86.2525 27.552 86.0925 27.8187 85.9751 28.128C85.8578 28.4267 85.7991 28.7573 85.7991 29.12V29.232H90.3591V29.056C90.3591 28.32 90.1565 27.7333 89.7511 27.296C89.3565 26.848 88.8285 26.624 88.1671 26.624Z" fill="#1A1A1A"/>
<path d="M40 36H92.4871V36.96H40V36Z" fill="#1A1A1A"/>
</svg>
