<svg width="427" height="440" viewBox="0 0 427 440" fill="none" xmlns="http://www.w3.org/2000/svg">
<rect width="427" height="440" fill="white"/>
<g clip-path="url(#clip0_14279_21471)">
<rect x="16" y="16" width="395" height="408" rx="8" fill="white"/>
<path d="M52.12 57.92H45.136V65H41.968V48.248H45.136V55.112H52.12V48.248H55.288V65H52.12V57.92ZM66.514 62.912H66.394C66.282 63.232 66.13 63.536 65.938 63.824C65.762 64.096 65.53 64.344 65.242 64.568C64.97 64.792 64.634 64.968 64.234 65.096C63.85 65.224 63.402 65.288 62.89 65.288C61.594 65.288 60.602 64.864 59.914 64.016C59.226 63.168 58.882 61.96 58.882 60.392V52.472H61.954V60.08C61.954 60.944 62.122 61.608 62.458 62.072C62.794 62.52 63.33 62.744 64.066 62.744C64.37 62.744 64.666 62.704 64.954 62.624C65.258 62.544 65.522 62.424 65.746 62.264C65.97 62.088 66.154 61.88 66.298 61.64C66.442 61.384 66.514 61.088 66.514 60.752V52.472H69.586V65H66.514V62.912ZM73.1354 65V52.472H76.2074V54.56H76.3274C76.5834 53.888 76.9834 53.328 77.5274 52.88C78.0874 52.416 78.8554 52.184 79.8314 52.184C81.1274 52.184 82.1194 52.608 82.8074 53.456C83.4954 54.304 83.8394 55.512 83.8394 57.08V65H80.7674V57.392C80.7674 56.496 80.6074 55.824 80.2874 55.376C79.9674 54.928 79.4394 54.704 78.7034 54.704C78.3834 54.704 78.0714 54.752 77.7674 54.848C77.4794 54.928 77.2154 55.056 76.9754 55.232C76.7514 55.392 76.5674 55.6 76.4234 55.856C76.2794 56.096 76.2074 56.384 76.2074 56.72V65H73.1354ZM95.0208 62.912H94.9008C94.6768 63.632 94.2528 64.208 93.6288 64.64C93.0048 65.072 92.2768 65.288 91.4448 65.288C89.8608 65.288 88.6448 64.72 87.7968 63.584C86.9648 62.448 86.5488 60.824 86.5488 58.712C86.5488 56.616 86.9648 55.008 87.7968 53.888C88.6448 52.752 89.8608 52.184 91.4448 52.184C92.2768 52.184 93.0048 52.4 93.6288 52.832C94.2528 53.248 94.6768 53.816 94.9008 54.536H95.0208V47.24H98.0928V65H95.0208V62.912ZM92.4288 62.744C93.1648 62.744 93.7808 62.568 94.2768 62.216C94.7728 61.864 95.0208 61.36 95.0208 60.704V56.72C95.0208 56.112 94.7728 55.624 94.2768 55.256C93.7808 54.888 93.1648 54.704 92.4288 54.704C91.6288 54.704 90.9808 54.976 90.4848 55.52C90.0048 56.048 89.7648 56.76 89.7648 57.656V59.816C89.7648 60.712 90.0048 61.424 90.4848 61.952C90.9808 62.48 91.6288 62.744 92.4288 62.744ZM106.699 65.288C105.771 65.288 104.939 65.136 104.203 64.832C103.483 64.512 102.867 64.072 102.355 63.512C101.859 62.936 101.475 62.248 101.203 61.448C100.931 60.632 100.795 59.72 100.795 58.712C100.795 57.72 100.923 56.824 101.179 56.024C101.451 55.224 101.835 54.544 102.331 53.984C102.827 53.408 103.435 52.968 104.155 52.664C104.875 52.344 105.691 52.184 106.603 52.184C107.579 52.184 108.427 52.352 109.147 52.688C109.867 53.024 110.459 53.48 110.923 54.056C111.387 54.632 111.731 55.304 111.955 56.072C112.195 56.824 112.315 57.632 112.315 58.496V59.504H103.987V59.816C103.987 60.728 104.243 61.464 104.755 62.024C105.267 62.568 106.027 62.84 107.035 62.84C107.803 62.84 108.427 62.68 108.907 62.36C109.403 62.04 109.843 61.632 110.227 61.136L111.883 62.984C111.371 63.704 110.667 64.272 109.771 64.688C108.891 65.088 107.867 65.288 106.699 65.288ZM106.651 54.488C105.835 54.488 105.187 54.76 104.707 55.304C104.227 55.848 103.987 56.552 103.987 57.416V57.608H109.123V57.392C109.123 56.528 108.907 55.832 108.475 55.304C108.059 54.76 107.451 54.488 106.651 54.488Z" fill="black"/>
<path d="M48.48 92.944H42.832V98H41.488V86.832H42.832V91.76H48.48V86.832H49.824V98H48.48V92.944ZM55.7765 98.192C55.2112 98.192 54.6992 98.0907 54.2405 97.888C53.7925 97.6853 53.4032 97.3973 53.0725 97.024C52.7525 96.64 52.5018 96.1867 52.3205 95.664C52.1498 95.1307 52.0645 94.5333 52.0645 93.872C52.0645 93.2213 52.1498 92.6293 52.3205 92.096C52.5018 91.5627 52.7525 91.1093 53.0725 90.736C53.4032 90.352 53.7925 90.0587 54.2405 89.856C54.6992 89.6533 55.2112 89.552 55.7765 89.552C56.3312 89.552 56.8272 89.6533 57.2645 89.856C57.7018 90.0587 58.0752 90.3413 58.3845 90.704C58.6938 91.056 58.9285 91.4773 59.0885 91.968C59.2592 92.4587 59.3445 92.9973 59.3445 93.584V94.192H53.4085V94.576C53.4085 94.928 53.4618 95.2587 53.5685 95.568C53.6858 95.8667 53.8458 96.128 54.0485 96.352C54.2618 96.576 54.5178 96.752 54.8165 96.88C55.1258 97.008 55.4725 97.072 55.8565 97.072C56.3792 97.072 56.8325 96.9493 57.2165 96.704C57.6112 96.4587 57.9152 96.1067 58.1285 95.648L59.0405 96.304C58.7738 96.8693 58.3578 97.328 57.7925 97.68C57.2272 98.0213 56.5552 98.192 55.7765 98.192ZM55.7765 90.624C55.4245 90.624 55.1045 90.688 54.8165 90.816C54.5285 90.9333 54.2778 91.104 54.0645 91.328C53.8618 91.552 53.7018 91.8187 53.5845 92.128C53.4672 92.4267 53.4085 92.7573 53.4085 93.12V93.232H57.9685V93.056C57.9685 92.32 57.7658 91.7333 57.3605 91.296C56.9658 90.848 56.4378 90.624 55.7765 90.624ZM61.4538 98V89.744H62.7338V91.264H62.8138C62.9631 90.8693 63.2298 90.5173 63.6138 90.208C63.9978 89.8987 64.5258 89.744 65.1978 89.744H65.6938V91.024H64.9418C64.2484 91.024 63.7044 91.1573 63.3098 91.424C62.9258 91.68 62.7338 92.0053 62.7338 92.4V98H61.4538ZM73.59 98.192C72.822 98.192 72.1767 98.048 71.654 97.76C71.142 97.4613 70.6993 97.0667 70.326 96.576L71.238 95.84C71.558 96.2453 71.9153 96.56 72.31 96.784C72.7047 96.9973 73.1633 97.104 73.686 97.104C74.23 97.104 74.6513 96.9867 74.95 96.752C75.2593 96.5173 75.414 96.1867 75.414 95.76C75.414 95.44 75.3073 95.168 75.094 94.944C74.8913 94.7093 74.518 94.5493 73.974 94.464L73.318 94.368C72.934 94.3147 72.582 94.2347 72.262 94.128C71.942 94.0107 71.6593 93.8613 71.414 93.68C71.1793 93.488 70.9927 93.2533 70.854 92.976C70.726 92.6987 70.662 92.368 70.662 91.984C70.662 91.5787 70.7367 91.2267 70.886 90.928C71.0353 90.6187 71.238 90.3627 71.494 90.16C71.7607 89.9573 72.0753 89.808 72.438 89.712C72.8007 89.6053 73.19 89.552 73.606 89.552C74.278 89.552 74.838 89.6693 75.286 89.904C75.7447 90.1387 76.1447 90.464 76.486 90.88L75.638 91.648C75.4567 91.392 75.19 91.1627 74.838 90.96C74.486 90.7467 74.0433 90.64 73.51 90.64C72.9767 90.64 72.5713 90.7573 72.294 90.992C72.0273 91.216 71.894 91.5253 71.894 91.92C71.894 92.3253 72.0273 92.6187 72.294 92.8C72.5713 92.9813 72.966 93.1147 73.478 93.2L74.118 93.296C75.0353 93.4347 75.686 93.7013 76.07 94.096C76.454 94.48 76.646 94.9867 76.646 95.616C76.646 96.416 76.374 97.0453 75.83 97.504C75.286 97.9627 74.5393 98.192 73.59 98.192ZM80.6215 98C80.1735 98 79.8322 97.8773 79.5975 97.632C79.3735 97.376 79.2615 97.0453 79.2615 96.64V90.864H77.9015V89.744H78.6695C78.9468 89.744 79.1335 89.6907 79.2295 89.584C79.3362 89.4667 79.3895 89.2693 79.3895 88.992V87.456H80.5415V89.744H82.3495V90.864H80.5415V96.88H82.2215V98H80.6215ZM90.4069 98C89.9269 98 89.5802 97.872 89.3669 97.616C89.1642 97.36 89.0362 97.04 88.9829 96.656H88.9029C88.7215 97.168 88.4229 97.552 88.0069 97.808C87.5909 98.064 87.0949 98.192 86.5189 98.192C85.6442 98.192 84.9615 97.968 84.4709 97.52C83.9909 97.072 83.7509 96.464 83.7509 95.696C83.7509 94.9173 84.0335 94.32 84.5989 93.904C85.1749 93.488 86.0655 93.28 87.2709 93.28H88.9029V92.464C88.9029 91.8773 88.7429 91.4293 88.4229 91.12C88.1029 90.8107 87.6122 90.656 86.9509 90.656C86.4495 90.656 86.0282 90.768 85.6869 90.992C85.3562 91.216 85.0789 91.5147 84.8549 91.888L84.0869 91.168C84.3109 90.72 84.6682 90.3413 85.1589 90.032C85.6495 89.712 86.2682 89.552 87.0149 89.552C88.0175 89.552 88.7962 89.7973 89.3509 90.288C89.9055 90.7787 90.1829 91.4613 90.1829 92.336V96.88H91.1269V98H90.4069ZM86.7269 97.104C87.0469 97.104 87.3402 97.0667 87.6069 96.992C87.8735 96.9173 88.1029 96.8107 88.2949 96.672C88.4869 96.5333 88.6362 96.3733 88.7429 96.192C88.8495 96.0107 88.9029 95.8133 88.9029 95.6V94.24H87.2069C86.4709 94.24 85.9322 94.3467 85.5909 94.56C85.2602 94.7733 85.0949 95.0827 85.0949 95.488V95.824C85.0949 96.2293 85.2389 96.544 85.5269 96.768C85.8255 96.992 86.2255 97.104 86.7269 97.104ZM87.0949 88.784C86.8389 88.784 86.5935 88.7413 86.3589 88.656C86.1349 88.56 85.9375 88.432 85.7669 88.272C85.6069 88.1013 85.4789 87.904 85.3829 87.68C85.2869 87.456 85.2389 87.2107 85.2389 86.944C85.2389 86.6773 85.2869 86.432 85.3829 86.208C85.4789 85.984 85.6069 85.792 85.7669 85.632C85.9375 85.4613 86.1349 85.3333 86.3589 85.248C86.5935 85.152 86.8389 85.104 87.0949 85.104C87.3509 85.104 87.5909 85.152 87.8149 85.248C88.0495 85.3333 88.2469 85.4613 88.4069 85.632C88.5775 85.792 88.7109 85.984 88.8069 86.208C88.9029 86.432 88.9509 86.6773 88.9509 86.944C88.9509 87.2107 88.9029 87.456 88.8069 87.68C88.7109 87.904 88.5775 88.1013 88.4069 88.272C88.2469 88.432 88.0495 88.56 87.8149 88.656C87.5909 88.7413 87.3509 88.784 87.0949 88.784ZM87.0949 88C87.3829 88 87.6069 87.9253 87.7669 87.776C87.9375 87.616 88.0229 87.3973 88.0229 87.12V86.768C88.0229 86.4907 87.9375 86.2773 87.7669 86.128C87.6069 85.968 87.3829 85.888 87.0949 85.888C86.8069 85.888 86.5775 85.968 86.4069 86.128C86.2469 86.2773 86.1669 86.4907 86.1669 86.768V87.12C86.1669 87.3973 86.2469 87.616 86.4069 87.776C86.5775 87.9253 86.8069 88 87.0949 88ZM92.9538 98V89.744H94.2338V91.264H94.3138C94.4631 90.8693 94.7298 90.5173 95.1138 90.208C95.4978 89.8987 96.0258 89.744 96.6978 89.744H97.1938V91.024H96.4418C95.7484 91.024 95.2044 91.1573 94.8098 91.424C94.4258 91.68 94.2338 92.0053 94.2338 92.4V98H92.9538ZM105.714 98.192C105.149 98.192 104.637 98.0907 104.178 97.888C103.73 97.6853 103.341 97.3973 103.01 97.024C102.69 96.64 102.439 96.1867 102.258 95.664C102.087 95.1307 102.002 94.5333 102.002 93.872C102.002 93.2213 102.087 92.6293 102.258 92.096C102.439 91.5627 102.69 91.1093 103.01 90.736C103.341 90.352 103.73 90.0587 104.178 89.856C104.637 89.6533 105.149 89.552 105.714 89.552C106.269 89.552 106.765 89.6533 107.202 89.856C107.639 90.0587 108.013 90.3413 108.322 90.704C108.631 91.056 108.866 91.4773 109.026 91.968C109.197 92.4587 109.282 92.9973 109.282 93.584V94.192H103.346V94.576C103.346 94.928 103.399 95.2587 103.506 95.568C103.623 95.8667 103.783 96.128 103.986 96.352C104.199 96.576 104.455 96.752 104.754 96.88C105.063 97.008 105.41 97.072 105.794 97.072C106.317 97.072 106.77 96.9493 107.154 96.704C107.549 96.4587 107.853 96.1067 108.066 95.648L108.978 96.304C108.711 96.8693 108.295 97.328 107.73 97.68C107.165 98.0213 106.493 98.192 105.714 98.192ZM105.714 90.624C105.362 90.624 105.042 90.688 104.754 90.816C104.466 90.9333 104.215 91.104 104.002 91.328C103.799 91.552 103.639 91.8187 103.522 92.128C103.405 92.4267 103.346 92.7573 103.346 93.12V93.232H107.906V93.056C107.906 92.32 107.703 91.7333 107.298 91.296C106.903 90.848 106.375 90.624 105.714 90.624ZM111.391 98V89.744H112.671V91.088H112.735C112.938 90.6187 113.221 90.2453 113.583 89.968C113.957 89.6907 114.453 89.552 115.071 89.552C115.925 89.552 116.597 89.8293 117.087 90.384C117.589 90.928 117.839 91.7013 117.839 92.704V98H116.559V92.928C116.559 91.4453 115.935 90.704 114.687 90.704C114.431 90.704 114.181 90.736 113.935 90.8C113.701 90.864 113.487 90.96 113.295 91.088C113.103 91.216 112.949 91.3813 112.831 91.584C112.725 91.776 112.671 92.0053 112.671 92.272V98H111.391ZM124.266 86.16H125.546V93.664H125.61L126.874 92.256L129.21 89.744H130.762L127.706 93.008L131.066 98H129.514L126.778 93.792L125.546 95.056V98H124.266V86.16ZM135.558 98.192C135.003 98.192 134.497 98.0907 134.038 97.888C133.579 97.6853 133.185 97.3973 132.854 97.024C132.534 96.64 132.283 96.1867 132.102 95.664C131.921 95.1307 131.83 94.5333 131.83 93.872C131.83 93.2213 131.921 92.6293 132.102 92.096C132.283 91.5627 132.534 91.1093 132.854 90.736C133.185 90.352 133.579 90.0587 134.038 89.856C134.497 89.6533 135.003 89.552 135.558 89.552C136.113 89.552 136.614 89.6533 137.062 89.856C137.521 90.0587 137.915 90.352 138.246 90.736C138.577 91.1093 138.833 91.5627 139.014 92.096C139.195 92.6293 139.286 93.2213 139.286 93.872C139.286 94.5333 139.195 95.1307 139.014 95.664C138.833 96.1867 138.577 96.64 138.246 97.024C137.915 97.3973 137.521 97.6853 137.062 97.888C136.614 98.0907 136.113 98.192 135.558 98.192ZM135.558 97.056C136.251 97.056 136.817 96.8427 137.254 96.416C137.691 95.9893 137.91 95.3387 137.91 94.464V93.28C137.91 92.4053 137.691 91.7547 137.254 91.328C136.817 90.9013 136.251 90.688 135.558 90.688C134.865 90.688 134.299 90.9013 133.862 91.328C133.425 91.7547 133.206 92.4053 133.206 93.28V94.464C133.206 95.3387 133.425 95.9893 133.862 96.416C134.299 96.8427 134.865 97.056 135.558 97.056ZM141.391 98V89.744H142.671V91.264H142.751C142.901 90.8693 143.167 90.5173 143.551 90.208C143.935 89.8987 144.463 89.744 145.135 89.744H145.631V91.024H144.879C144.186 91.024 143.642 91.1573 143.247 91.424C142.863 91.68 142.671 92.0053 142.671 92.4V98H141.391ZM149.153 98C148.705 98 148.363 97.8773 148.129 97.632C147.905 97.376 147.793 97.0453 147.793 96.64V90.864H146.433V89.744H147.201C147.478 89.744 147.665 89.6907 147.761 89.584C147.867 89.4667 147.921 89.2693 147.921 88.992V87.456H149.073V89.744H150.881V90.864H149.073V96.88H150.753V98H149.153ZM158.543 98C158.095 98 157.754 97.8773 157.519 97.632C157.295 97.376 157.183 97.0453 157.183 96.64V90.864H155.823V89.744H156.591C156.869 89.744 157.055 89.6907 157.151 89.584C157.258 89.4667 157.311 89.2693 157.311 88.992V87.456H158.463V89.744H160.271V90.864H158.463V96.88H160.143V98H158.543ZM165.37 98.192C164.805 98.192 164.293 98.0907 163.834 97.888C163.386 97.6853 162.997 97.3973 162.666 97.024C162.346 96.64 162.096 96.1867 161.914 95.664C161.744 95.1307 161.658 94.5333 161.658 93.872C161.658 93.2213 161.744 92.6293 161.914 92.096C162.096 91.5627 162.346 91.1093 162.666 90.736C162.997 90.352 163.386 90.0587 163.834 89.856C164.293 89.6533 164.805 89.552 165.37 89.552C165.925 89.552 166.421 89.6533 166.858 89.856C167.296 90.0587 167.669 90.3413 167.978 90.704C168.288 91.056 168.522 91.4773 168.682 91.968C168.853 92.4587 168.938 92.9973 168.938 93.584V94.192H163.002V94.576C163.002 94.928 163.056 95.2587 163.162 95.568C163.28 95.8667 163.44 96.128 163.642 96.352C163.856 96.576 164.112 96.752 164.41 96.88C164.72 97.008 165.066 97.072 165.45 97.072C165.973 97.072 166.426 96.9493 166.81 96.704C167.205 96.4587 167.509 96.1067 167.722 95.648L168.634 96.304C168.368 96.8693 167.952 97.328 167.386 97.68C166.821 98.0213 166.149 98.192 165.37 98.192ZM165.37 90.624C165.018 90.624 164.698 90.688 164.41 90.816C164.122 90.9333 163.872 91.104 163.658 91.328C163.456 91.552 163.296 91.8187 163.178 92.128C163.061 92.4267 163.002 92.7573 163.002 93.12V93.232H167.562V93.056C167.562 92.32 167.36 91.7333 166.954 91.296C166.56 90.848 166.032 90.624 165.37 90.624ZM171.048 86.16H172.328V93.664H172.392L173.656 92.256L175.992 89.744H177.544L174.488 93.008L177.848 98H176.296L173.56 93.792L172.328 95.056V98H171.048V86.16ZM181.809 98.192C181.041 98.192 180.395 98.048 179.873 97.76C179.361 97.4613 178.918 97.0667 178.545 96.576L179.457 95.84C179.777 96.2453 180.134 96.56 180.529 96.784C180.923 96.9973 181.382 97.104 181.905 97.104C182.449 97.104 182.87 96.9867 183.169 96.752C183.478 96.5173 183.633 96.1867 183.633 95.76C183.633 95.44 183.526 95.168 183.313 94.944C183.11 94.7093 182.737 94.5493 182.193 94.464L181.537 94.368C181.153 94.3147 180.801 94.2347 180.481 94.128C180.161 94.0107 179.878 93.8613 179.633 93.68C179.398 93.488 179.211 93.2533 179.073 92.976C178.945 92.6987 178.881 92.368 178.881 91.984C178.881 91.5787 178.955 91.2267 179.105 90.928C179.254 90.6187 179.457 90.3627 179.713 90.16C179.979 89.9573 180.294 89.808 180.657 89.712C181.019 89.6053 181.409 89.552 181.825 89.552C182.497 89.552 183.057 89.6693 183.505 89.904C183.963 90.1387 184.363 90.464 184.705 90.88L183.857 91.648C183.675 91.392 183.409 91.1627 183.057 90.96C182.705 90.7467 182.262 90.64 181.729 90.64C181.195 90.64 180.79 90.7573 180.513 90.992C180.246 91.216 180.113 91.5253 180.113 91.92C180.113 92.3253 180.246 92.6187 180.513 92.8C180.79 92.9813 181.185 93.1147 181.697 93.2L182.337 93.296C183.254 93.4347 183.905 93.7013 184.289 94.096C184.673 94.48 184.865 94.9867 184.865 95.616C184.865 96.416 184.593 97.0453 184.049 97.504C183.505 97.9627 182.758 98.192 181.809 98.192ZM188.84 98C188.392 98 188.051 97.8773 187.816 97.632C187.592 97.376 187.48 97.0453 187.48 96.64V90.864H186.12V89.744H186.888C187.166 89.744 187.352 89.6907 187.448 89.584C187.555 89.4667 187.608 89.2693 187.608 88.992V87.456H188.76V89.744H190.568V90.864H188.76V96.88H190.44V98H188.84ZM199.527 98.192C198.972 98.192 198.466 98.0907 198.007 97.888C197.548 97.6853 197.154 97.3973 196.823 97.024C196.503 96.64 196.252 96.1867 196.071 95.664C195.89 95.1307 195.799 94.5333 195.799 93.872C195.799 93.2213 195.89 92.6293 196.071 92.096C196.252 91.5627 196.503 91.1093 196.823 90.736C197.154 90.352 197.548 90.0587 198.007 89.856C198.466 89.6533 198.972 89.552 199.527 89.552C200.082 89.552 200.583 89.6533 201.031 89.856C201.49 90.0587 201.884 90.352 202.215 90.736C202.546 91.1093 202.802 91.5627 202.983 92.096C203.164 92.6293 203.255 93.2213 203.255 93.872C203.255 94.5333 203.164 95.1307 202.983 95.664C202.802 96.1867 202.546 96.64 202.215 97.024C201.884 97.3973 201.49 97.6853 201.031 97.888C200.583 98.0907 200.082 98.192 199.527 98.192ZM199.527 97.056C200.22 97.056 200.786 96.8427 201.223 96.416C201.66 95.9893 201.879 95.3387 201.879 94.464V93.28C201.879 92.4053 201.66 91.7547 201.223 91.328C200.786 90.9013 200.22 90.688 199.527 90.688C198.834 90.688 198.268 90.9013 197.831 91.328C197.394 91.7547 197.175 92.4053 197.175 93.28V94.464C197.175 95.3387 197.394 95.9893 197.831 96.416C198.268 96.8427 198.834 97.056 199.527 97.056ZM205.36 98V89.744H206.64V91.088H206.704C206.8 90.8747 206.907 90.6773 207.024 90.496C207.152 90.304 207.301 90.1387 207.472 90C207.653 89.8613 207.861 89.7547 208.096 89.68C208.331 89.5947 208.608 89.552 208.928 89.552C209.472 89.552 209.973 89.6853 210.432 89.952C210.891 90.208 211.232 90.6347 211.456 91.232H211.488C211.637 90.784 211.915 90.3947 212.32 90.064C212.736 89.7227 213.296 89.552 214 89.552C214.843 89.552 215.499 89.8293 215.968 90.384C216.448 90.928 216.688 91.7013 216.688 92.704V98H215.408V92.928C215.408 92.192 215.264 91.6373 214.976 91.264C214.688 90.8907 214.229 90.704 213.6 90.704C213.344 90.704 213.099 90.736 212.864 90.8C212.64 90.864 212.437 90.96 212.256 91.088C212.075 91.216 211.931 91.3813 211.824 91.584C211.717 91.776 211.664 92.0053 211.664 92.272V98H210.384V92.928C210.384 92.192 210.24 91.6373 209.952 91.264C209.664 90.8907 209.216 90.704 208.608 90.704C208.352 90.704 208.107 90.736 207.872 90.8C207.637 90.864 207.429 90.96 207.248 91.088C207.067 91.216 206.917 91.3813 206.8 91.584C206.693 91.776 206.64 92.0053 206.64 92.272V98H205.36ZM223.11 86.16H224.39V91.088H224.454C224.657 90.6187 224.939 90.2453 225.302 89.968C225.675 89.6907 226.171 89.552 226.79 89.552C227.643 89.552 228.315 89.8293 228.806 90.384C229.307 90.928 229.558 91.7013 229.558 92.704V98H228.278V92.928C228.278 91.4453 227.654 90.704 226.406 90.704C226.15 90.704 225.899 90.736 225.654 90.8C225.419 90.864 225.206 90.96 225.014 91.088C224.822 91.216 224.667 91.3813 224.55 91.584C224.443 91.776 224.39 92.0053 224.39 92.272V98H223.11V86.16ZM237.292 96.656H237.228C237.142 96.848 237.036 97.04 236.908 97.232C236.79 97.4133 236.641 97.5787 236.46 97.728C236.278 97.8667 236.06 97.9787 235.804 98.064C235.548 98.1493 235.249 98.192 234.908 98.192C234.054 98.192 233.377 97.92 232.876 97.376C232.374 96.8213 232.124 96.0427 232.124 95.04V89.744H233.404V94.816C233.404 96.2987 234.033 97.04 235.292 97.04C235.548 97.04 235.793 97.008 236.028 96.944C236.273 96.88 236.486 96.784 236.668 96.656C236.86 96.528 237.009 96.368 237.116 96.176C237.233 95.9733 237.292 95.7333 237.292 95.456V89.744H238.572V98H237.292V96.656ZM241.298 98V89.744H242.578V91.088H242.642C242.844 90.6187 243.127 90.2453 243.49 89.968C243.863 89.6907 244.359 89.552 244.978 89.552C245.831 89.552 246.503 89.8293 246.994 90.384C247.495 90.928 247.746 91.7013 247.746 92.704V98H246.466V92.928C246.466 91.4453 245.842 90.704 244.594 90.704C244.338 90.704 244.087 90.736 243.842 90.8C243.607 90.864 243.394 90.96 243.202 91.088C243.01 91.216 242.855 91.3813 242.738 91.584C242.631 91.776 242.578 92.0053 242.578 92.272V98H241.298ZM255.671 96.656H255.607C255.106 97.68 254.301 98.192 253.191 98.192C252.679 98.192 252.215 98.0907 251.799 97.888C251.383 97.6853 251.026 97.3973 250.727 97.024C250.439 96.6507 250.215 96.1973 250.055 95.664C249.906 95.1307 249.831 94.5333 249.831 93.872C249.831 93.2107 249.906 92.6133 250.055 92.08C250.215 91.5467 250.439 91.0933 250.727 90.72C251.026 90.3467 251.383 90.0587 251.799 89.856C252.215 89.6533 252.679 89.552 253.191 89.552C253.767 89.552 254.258 89.68 254.663 89.936C255.079 90.1813 255.394 90.5653 255.607 91.088H255.671V86.16H256.951V98H255.671V96.656ZM253.543 97.04C253.831 97.04 254.103 97.0027 254.359 96.928C254.626 96.8533 254.855 96.7467 255.047 96.608C255.239 96.4587 255.389 96.2827 255.495 96.08C255.613 95.8667 255.671 95.6267 255.671 95.36V92.288C255.671 92.064 255.613 91.856 255.495 91.664C255.389 91.4613 255.239 91.2907 255.047 91.152C254.855 91.0133 254.626 90.9067 254.359 90.832C254.103 90.7467 253.831 90.704 253.543 90.704C252.818 90.704 252.247 90.9333 251.831 91.392C251.415 91.84 251.207 92.432 251.207 93.168V94.576C251.207 95.312 251.415 95.9093 251.831 96.368C252.247 96.816 252.818 97.04 253.543 97.04ZM262.777 98.192C262.211 98.192 261.699 98.0907 261.241 97.888C260.793 97.6853 260.403 97.3973 260.073 97.024C259.753 96.64 259.502 96.1867 259.321 95.664C259.15 95.1307 259.065 94.5333 259.065 93.872C259.065 93.2213 259.15 92.6293 259.321 92.096C259.502 91.5627 259.753 91.1093 260.073 90.736C260.403 90.352 260.793 90.0587 261.241 89.856C261.699 89.6533 262.211 89.552 262.777 89.552C263.331 89.552 263.827 89.6533 264.265 89.856C264.702 90.0587 265.075 90.3413 265.385 90.704C265.694 91.056 265.929 91.4773 266.089 91.968C266.259 92.4587 266.345 92.9973 266.345 93.584V94.192H260.409V94.576C260.409 94.928 260.462 95.2587 260.569 95.568C260.686 95.8667 260.846 96.128 261.049 96.352C261.262 96.576 261.518 96.752 261.817 96.88C262.126 97.008 262.473 97.072 262.857 97.072C263.379 97.072 263.833 96.9493 264.217 96.704C264.611 96.4587 264.915 96.1067 265.129 95.648L266.041 96.304C265.774 96.8693 265.358 97.328 264.793 97.68C264.227 98.0213 263.555 98.192 262.777 98.192ZM262.777 90.624C262.425 90.624 262.105 90.688 261.817 90.816C261.529 90.9333 261.278 91.104 261.065 91.328C260.862 91.552 260.702 91.8187 260.585 92.128C260.467 92.4267 260.409 92.7573 260.409 93.12V93.232H264.969V93.056C264.969 92.32 264.766 91.7333 264.361 91.296C263.966 90.848 263.438 90.624 262.777 90.624ZM268.957 98.192C268.616 98.192 268.365 98.1067 268.205 97.936C268.056 97.7653 267.981 97.5413 267.981 97.264V97.056C267.981 96.7787 268.056 96.5547 268.205 96.384C268.365 96.2133 268.616 96.128 268.957 96.128C269.299 96.128 269.544 96.2133 269.693 96.384C269.853 96.5547 269.933 96.7787 269.933 97.056V97.264C269.933 97.5413 269.853 97.7653 269.693 97.936C269.544 98.1067 269.299 98.192 268.957 98.192Z" fill="black"/>
<path d="M46.752 134.832V143.104C46.752 143.573 46.672 144 46.512 144.384C46.3627 144.768 46.144 145.093 45.856 145.36C45.5787 145.627 45.2427 145.835 44.848 145.984C44.4533 146.123 44.0213 146.192 43.552 146.192C42.688 146.192 41.9893 145.963 41.456 145.504C40.9333 145.035 40.5973 144.416 40.448 143.648L41.664 143.36C41.7707 143.84 41.9733 144.235 42.272 144.544C42.5707 144.843 43.008 144.992 43.584 144.992C44.16 144.992 44.608 144.816 44.928 144.464C45.248 144.112 45.408 143.579 45.408 142.864V136.016H41.568V134.832H46.752ZM55.5163 146C55.0363 146 54.6896 145.872 54.4763 145.616C54.2736 145.36 54.1456 145.04 54.0923 144.656H54.0123C53.8309 145.168 53.5323 145.552 53.1163 145.808C52.7003 146.064 52.2043 146.192 51.6283 146.192C50.7536 146.192 50.0709 145.968 49.5803 145.52C49.1003 145.072 48.8603 144.464 48.8603 143.696C48.8603 142.917 49.1429 142.32 49.7083 141.904C50.2843 141.488 51.1749 141.28 52.3802 141.28H54.0123V140.464C54.0123 139.877 53.8523 139.429 53.5323 139.12C53.2123 138.811 52.7216 138.656 52.0603 138.656C51.5589 138.656 51.1376 138.768 50.7963 138.992C50.4656 139.216 50.1883 139.515 49.9643 139.888L49.1963 139.168C49.4203 138.72 49.7776 138.341 50.2682 138.032C50.7589 137.712 51.3776 137.552 52.1243 137.552C53.1269 137.552 53.9056 137.797 54.4603 138.288C55.0149 138.779 55.2923 139.461 55.2923 140.336V144.88H56.2362V146H55.5163ZM51.8363 145.104C52.1563 145.104 52.4496 145.067 52.7163 144.992C52.9829 144.917 53.2123 144.811 53.4043 144.672C53.5963 144.533 53.7456 144.373 53.8523 144.192C53.9589 144.011 54.0123 143.813 54.0123 143.6V142.24H52.3163C51.5803 142.24 51.0416 142.347 50.7003 142.56C50.3696 142.773 50.2043 143.083 50.2043 143.488V143.824C50.2043 144.229 50.3483 144.544 50.6363 144.768C50.9349 144.992 51.3349 145.104 51.8363 145.104ZM65.0231 146.912C65.0231 147.765 64.6871 148.389 64.0151 148.784C63.3538 149.189 62.3565 149.392 61.0231 149.392C59.7325 149.392 58.8045 149.216 58.2391 148.864C57.6738 148.512 57.3911 148.011 57.3911 147.36C57.3911 146.912 57.5085 146.56 57.7431 146.304C57.9778 146.059 58.2978 145.877 58.7031 145.76V145.584C58.2125 145.349 57.9671 144.965 57.9671 144.432C57.9671 144.016 58.1005 143.701 58.3671 143.488C58.6338 143.264 58.9751 143.099 59.3911 142.992V142.928C58.9005 142.693 58.5165 142.357 58.2391 141.92C57.9725 141.483 57.8391 140.976 57.8391 140.4C57.8391 139.984 57.9138 139.6 58.0631 139.248C58.2125 138.896 58.4205 138.597 58.6871 138.352C58.9645 138.096 59.2898 137.899 59.6631 137.76C60.0471 137.621 60.4738 137.552 60.9431 137.552C61.5298 137.552 62.0525 137.659 62.5111 137.872V137.728C62.5111 137.408 62.5858 137.147 62.7351 136.944C62.8845 136.731 63.1298 136.624 63.4711 136.624H64.7031V137.744H63.1351V138.272C63.4338 138.528 63.6631 138.837 63.8231 139.2C63.9938 139.552 64.0791 139.952 64.0791 140.4C64.0791 140.816 64.0045 141.2 63.8551 141.552C63.7058 141.904 63.4925 142.208 63.2151 142.464C62.9485 142.709 62.6231 142.901 62.2391 143.04C61.8551 143.179 61.4285 143.248 60.9591 143.248C60.6925 143.248 60.4258 143.221 60.1591 143.168C59.8818 143.243 59.6311 143.355 59.4071 143.504C59.1831 143.643 59.0711 143.84 59.0711 144.096C59.0711 144.341 59.1885 144.507 59.4231 144.592C59.6578 144.677 59.9618 144.72 60.3351 144.72H62.0951C63.1191 144.72 63.8605 144.917 64.3191 145.312C64.7885 145.696 65.0231 146.229 65.0231 146.912ZM63.8231 147.008C63.8231 146.677 63.6951 146.411 63.4391 146.208C63.1938 146.016 62.7511 145.92 62.1111 145.92H59.3591C58.8471 146.155 58.5911 146.528 58.5911 147.04C58.5911 147.403 58.7245 147.712 58.9911 147.968C59.2685 148.224 59.7325 148.352 60.3831 148.352H61.5671C62.2818 148.352 62.8365 148.24 63.2311 148.016C63.6258 147.792 63.8231 147.456 63.8231 147.008ZM60.9591 142.224C61.5031 142.224 61.9351 142.096 62.2551 141.84C62.5751 141.573 62.7351 141.168 62.7351 140.624V140.176C62.7351 139.632 62.5751 139.232 62.2551 138.976C61.9351 138.709 61.5031 138.576 60.9591 138.576C60.4151 138.576 59.9831 138.709 59.6631 138.976C59.3431 139.232 59.1831 139.632 59.1831 140.176V140.624C59.1831 141.168 59.3431 141.573 59.6631 141.84C59.9831 142.096 60.4151 142.224 60.9591 142.224ZM68.3403 146C67.8923 146 67.5509 145.877 67.3163 145.632C67.0923 145.376 66.9803 145.045 66.9803 144.64V138.864H65.6203V137.744H66.3883C66.6656 137.744 66.8523 137.691 66.9483 137.584C67.0549 137.467 67.1083 137.269 67.1083 136.992V135.456H68.2603V137.744H70.0683V138.864H68.2603V144.88H69.9403V146H68.3403ZM72.1256 134.16H73.4056V139.088H73.4696C73.6723 138.619 73.955 138.245 74.3176 137.968C74.691 137.691 75.187 137.552 75.8056 137.552C76.659 137.552 77.331 137.829 77.8216 138.384C78.323 138.928 78.5736 139.701 78.5736 140.704V146H77.2936V140.928C77.2936 139.445 76.6696 138.704 75.4216 138.704C75.1656 138.704 74.915 138.736 74.6696 138.8C74.435 138.864 74.2216 138.96 74.0296 139.088C73.8376 139.216 73.683 139.381 73.5656 139.584C73.459 139.776 73.4056 140.005 73.4056 140.272V146H72.1256V134.16ZM86.3074 144.656H86.2434C86.158 144.848 86.0514 145.04 85.9234 145.232C85.806 145.413 85.6567 145.579 85.4754 145.728C85.294 145.867 85.0754 145.979 84.8194 146.064C84.5634 146.149 84.2647 146.192 83.9234 146.192C83.07 146.192 82.3927 145.92 81.8914 145.376C81.39 144.821 81.1394 144.043 81.1394 143.04V137.744H82.4194V142.816C82.4194 144.299 83.0487 145.04 84.3074 145.04C84.5634 145.04 84.8087 145.008 85.0434 144.944C85.2887 144.88 85.502 144.784 85.6834 144.656C85.8754 144.528 86.0247 144.368 86.1314 144.176C86.2487 143.973 86.3074 143.733 86.3074 143.456V137.744H87.5874V146H86.3074V144.656ZM90.3131 146V137.744H91.5931V139.088H91.6571C91.8598 138.619 92.1425 138.245 92.5051 137.968C92.8785 137.691 93.3745 137.552 93.9931 137.552C94.8465 137.552 95.5185 137.829 96.0091 138.384C96.5105 138.928 96.7611 139.701 96.7611 140.704V146H95.4811V140.928C95.4811 139.445 94.8571 138.704 93.6091 138.704C93.3531 138.704 93.1025 138.736 92.8571 138.8C92.6225 138.864 92.4091 138.96 92.2171 139.088C92.0251 139.216 91.8705 139.381 91.7531 139.584C91.6465 139.776 91.5931 140.005 91.5931 140.272V146H90.3131ZM104.687 144.656H104.623C104.122 145.68 103.316 146.192 102.207 146.192C101.695 146.192 101.231 146.091 100.815 145.888C100.399 145.685 100.042 145.397 99.7429 145.024C99.4549 144.651 99.2309 144.197 99.0709 143.664C98.9215 143.131 98.8469 142.533 98.8469 141.872C98.8469 141.211 98.9215 140.613 99.0709 140.08C99.2309 139.547 99.4549 139.093 99.7429 138.72C100.042 138.347 100.399 138.059 100.815 137.856C101.231 137.653 101.695 137.552 102.207 137.552C102.783 137.552 103.274 137.68 103.679 137.936C104.095 138.181 104.41 138.565 104.623 139.088H104.687V134.16H105.967V146H104.687V144.656ZM102.559 145.04C102.847 145.04 103.119 145.003 103.375 144.928C103.642 144.853 103.871 144.747 104.063 144.608C104.255 144.459 104.404 144.283 104.511 144.08C104.628 143.867 104.687 143.627 104.687 143.36V140.288C104.687 140.064 104.628 139.856 104.511 139.664C104.404 139.461 104.255 139.291 104.063 139.152C103.871 139.013 103.642 138.907 103.375 138.832C103.119 138.747 102.847 138.704 102.559 138.704C101.834 138.704 101.263 138.933 100.847 139.392C100.431 139.84 100.223 140.432 100.223 141.168V142.576C100.223 143.312 100.431 143.909 100.847 144.368C101.263 144.816 101.834 145.04 102.559 145.04ZM111.792 146.192C111.227 146.192 110.715 146.091 110.256 145.888C109.808 145.685 109.419 145.397 109.088 145.024C108.768 144.64 108.517 144.187 108.336 143.664C108.165 143.131 108.08 142.533 108.08 141.872C108.08 141.221 108.165 140.629 108.336 140.096C108.517 139.563 108.768 139.109 109.088 138.736C109.419 138.352 109.808 138.059 110.256 137.856C110.715 137.653 111.227 137.552 111.792 137.552C112.347 137.552 112.843 137.653 113.28 137.856C113.717 138.059 114.091 138.341 114.4 138.704C114.709 139.056 114.944 139.477 115.104 139.968C115.275 140.459 115.36 140.997 115.36 141.584V142.192H109.424V142.576C109.424 142.928 109.477 143.259 109.584 143.568C109.701 143.867 109.861 144.128 110.064 144.352C110.277 144.576 110.533 144.752 110.832 144.88C111.141 145.008 111.488 145.072 111.872 145.072C112.395 145.072 112.848 144.949 113.232 144.704C113.627 144.459 113.931 144.107 114.144 143.648L115.056 144.304C114.789 144.869 114.373 145.328 113.808 145.68C113.243 146.021 112.571 146.192 111.792 146.192ZM111.792 138.624C111.44 138.624 111.12 138.688 110.832 138.816C110.544 138.933 110.293 139.104 110.08 139.328C109.877 139.552 109.717 139.819 109.6 140.128C109.483 140.427 109.424 140.757 109.424 141.12V141.232H113.984V141.056C113.984 140.32 113.781 139.733 113.376 139.296C112.981 138.848 112.453 138.624 111.792 138.624Z" fill="#004D99"/>
<path d="M40 148H116.112V148.96H40V148Z" fill="#004D99"/>
<path d="M45.248 168.016V178H43.904V168.016H40.352V166.832H48.8V168.016H45.248ZM52.5734 178.192C52.008 178.192 51.496 178.091 51.0374 177.888C50.5894 177.685 50.2 177.397 49.8694 177.024C49.5494 176.64 49.2987 176.187 49.1174 175.664C48.9467 175.131 48.8614 174.533 48.8614 173.872C48.8614 173.221 48.9467 172.629 49.1174 172.096C49.2987 171.563 49.5494 171.109 49.8694 170.736C50.2 170.352 50.5894 170.059 51.0374 169.856C51.496 169.653 52.008 169.552 52.5734 169.552C53.128 169.552 53.624 169.653 54.0614 169.856C54.4987 170.059 54.872 170.341 55.1814 170.704C55.4907 171.056 55.7254 171.477 55.8854 171.968C56.056 172.459 56.1414 172.997 56.1414 173.584V174.192H50.2054V174.576C50.2054 174.928 50.2587 175.259 50.3654 175.568C50.4827 175.867 50.6427 176.128 50.8454 176.352C51.0587 176.576 51.3147 176.752 51.6134 176.88C51.9227 177.008 52.2694 177.072 52.6534 177.072C53.176 177.072 53.6294 176.949 54.0134 176.704C54.408 176.459 54.712 176.107 54.9254 175.648L55.8374 176.304C55.5707 176.869 55.1547 177.328 54.5894 177.68C54.024 178.021 53.352 178.192 52.5734 178.192ZM52.5734 170.624C52.2214 170.624 51.9014 170.688 51.6134 170.816C51.3254 170.933 51.0747 171.104 50.8614 171.328C50.6587 171.552 50.4987 171.819 50.3814 172.128C50.264 172.427 50.2054 172.757 50.2054 173.12V173.232H54.7654V173.056C54.7654 172.32 54.5627 171.733 54.1574 171.296C53.7627 170.848 53.2347 170.624 52.5734 170.624ZM58.2506 178V169.744H59.5306V171.264H59.6106C59.76 170.869 60.0266 170.517 60.4106 170.208C60.7946 169.899 61.3226 169.744 61.9946 169.744H62.4906V171.024H61.7386C61.0453 171.024 60.5013 171.157 60.1066 171.424C59.7226 171.68 59.5306 172.005 59.5306 172.4V178H58.2506ZM64.1256 178V169.744H65.4056V171.264H65.4856C65.635 170.869 65.9016 170.517 66.2856 170.208C66.6696 169.899 67.1976 169.744 67.8696 169.744H68.3656V171.024H67.6136C66.9203 171.024 66.3763 171.157 65.9816 171.424C65.5976 171.68 65.4056 172.005 65.4056 172.4V178H64.1256ZM70.6406 167.808C70.3633 167.808 70.1606 167.744 70.0326 167.616C69.9153 167.477 69.8566 167.301 69.8566 167.088V166.88C69.8566 166.667 69.9153 166.496 70.0326 166.368C70.1606 166.229 70.3633 166.16 70.6406 166.16C70.918 166.16 71.1153 166.229 71.2326 166.368C71.3606 166.496 71.4246 166.667 71.4246 166.88V167.088C71.4246 167.301 71.3606 167.477 71.2326 167.616C71.1153 167.744 70.918 167.808 70.6406 167.808ZM70.0006 169.744H71.2806V178H70.0006V169.744ZM77.1046 178.192C76.5393 178.192 76.0273 178.091 75.5686 177.888C75.1206 177.685 74.7313 177.397 74.4006 177.024C74.0806 176.64 73.83 176.187 73.6486 175.664C73.478 175.131 73.3926 174.533 73.3926 173.872C73.3926 173.221 73.478 172.629 73.6486 172.096C73.83 171.563 74.0806 171.109 74.4006 170.736C74.7313 170.352 75.1206 170.059 75.5686 169.856C76.0273 169.653 76.5393 169.552 77.1046 169.552C77.6593 169.552 78.1553 169.653 78.5926 169.856C79.03 170.059 79.4033 170.341 79.7126 170.704C80.022 171.056 80.2566 171.477 80.4166 171.968C80.5873 172.459 80.6726 172.997 80.6726 173.584V174.192H74.7366V174.576C74.7366 174.928 74.79 175.259 74.8966 175.568C75.014 175.867 75.174 176.128 75.3766 176.352C75.59 176.576 75.846 176.752 76.1446 176.88C76.454 177.008 76.8006 177.072 77.1846 177.072C77.7073 177.072 78.1606 176.949 78.5446 176.704C78.9393 176.459 79.2433 176.107 79.4566 175.648L80.3686 176.304C80.102 176.869 79.686 177.328 79.1206 177.68C78.5553 178.021 77.8833 178.192 77.1046 178.192ZM77.1046 170.624C76.7526 170.624 76.4326 170.688 76.1446 170.816C75.8566 170.933 75.606 171.104 75.3926 171.328C75.19 171.552 75.03 171.819 74.9126 172.128C74.7953 172.427 74.7366 172.757 74.7366 173.12V173.232H79.2966V173.056C79.2966 172.32 79.094 171.733 78.6886 171.296C78.294 170.848 77.766 170.624 77.1046 170.624ZM82.7819 178V169.744H84.0619V171.264H84.1419C84.2912 170.869 84.5579 170.517 84.9419 170.208C85.3259 169.899 85.8539 169.744 86.5259 169.744H87.0219V171.024H86.2699C85.5765 171.024 85.0325 171.157 84.6379 171.424C84.2539 171.68 84.0619 172.005 84.0619 172.4V178H82.7819ZM91.6828 178.192C91.1174 178.192 90.6054 178.091 90.1468 177.888C89.6988 177.685 89.3094 177.397 88.9788 177.024C88.6588 176.64 88.4081 176.187 88.2268 175.664C88.0561 175.131 87.9708 174.533 87.9708 173.872C87.9708 173.221 88.0561 172.629 88.2268 172.096C88.4081 171.563 88.6588 171.109 88.9788 170.736C89.3094 170.352 89.6988 170.059 90.1468 169.856C90.6054 169.653 91.1174 169.552 91.6828 169.552C92.2374 169.552 92.7334 169.653 93.1708 169.856C93.6081 170.059 93.9814 170.341 94.2908 170.704C94.6001 171.056 94.8348 171.477 94.9948 171.968C95.1654 172.459 95.2508 172.997 95.2508 173.584V174.192H89.3148V174.576C89.3148 174.928 89.3681 175.259 89.4748 175.568C89.5921 175.867 89.7521 176.128 89.9548 176.352C90.1681 176.576 90.4241 176.752 90.7228 176.88C91.0321 177.008 91.3788 177.072 91.7628 177.072C92.2854 177.072 92.7388 176.949 93.1228 176.704C93.5174 176.459 93.8214 176.107 94.0348 175.648L94.9468 176.304C94.6801 176.869 94.2641 177.328 93.6988 177.68C93.1334 178.021 92.4614 178.192 91.6828 178.192ZM91.6828 170.624C91.3308 170.624 91.0108 170.688 90.7228 170.816C90.4348 170.933 90.1841 171.104 89.9708 171.328C89.7681 171.552 89.6081 171.819 89.4908 172.128C89.3734 172.427 89.3148 172.757 89.3148 173.12V173.232H93.8748V173.056C93.8748 172.32 93.6721 171.733 93.2668 171.296C92.8721 170.848 92.3441 170.624 91.6828 170.624Z" fill="#004D99"/>
<path d="M40 180H96.0028V180.96H40V180Z" fill="#004D99"/>
<path d="M48.48 204.944H42.832V210H41.488V198.832H42.832V203.76H48.48V198.832H49.824V210H48.48V204.944ZM57.7605 201.744H59.0245L55.3285 211.92C55.2325 212.165 55.1365 212.368 55.0405 212.528C54.9445 212.699 54.8272 212.832 54.6885 212.928C54.5498 213.024 54.3738 213.093 54.1605 213.136C53.9578 213.179 53.7072 213.2 53.4085 213.2H52.7525V212.08H54.0485L54.6725 210.32L51.5845 201.744H52.8645L54.8485 207.36L55.2325 208.704H55.3125L55.7605 207.36L57.7605 201.744ZM60.6569 210V201.744H61.9369V203.264H62.0169C62.1662 202.869 62.4329 202.517 62.8169 202.208C63.2009 201.899 63.7289 201.744 64.4009 201.744H64.8969V203.024H64.1449C63.4515 203.024 62.9075 203.157 62.5129 203.424C62.1289 203.68 61.9369 204.005 61.9369 204.4V210H60.6569ZM71.7181 208.656H71.6541C71.1528 209.68 70.3475 210.192 69.2381 210.192C68.7261 210.192 68.2621 210.091 67.8461 209.888C67.4301 209.685 67.0728 209.397 66.7741 209.024C66.4861 208.651 66.2621 208.197 66.1021 207.664C65.9528 207.131 65.8781 206.533 65.8781 205.872C65.8781 205.211 65.9528 204.613 66.1021 204.08C66.2621 203.547 66.4861 203.093 66.7741 202.72C67.0728 202.347 67.4301 202.059 67.8461 201.856C68.2621 201.653 68.7261 201.552 69.2381 201.552C69.8141 201.552 70.3048 201.68 70.7101 201.936C71.1261 202.181 71.4408 202.565 71.6541 203.088H71.7181V198.16H72.9981V210H71.7181V208.656ZM69.5901 209.04C69.8781 209.04 70.1501 209.003 70.4061 208.928C70.6728 208.853 70.9021 208.747 71.0941 208.608C71.2861 208.459 71.4355 208.283 71.5421 208.08C71.6595 207.867 71.7181 207.627 71.7181 207.36V204.288C71.7181 204.064 71.6595 203.856 71.5421 203.664C71.4355 203.461 71.2861 203.291 71.0941 203.152C70.9021 203.013 70.6728 202.907 70.4061 202.832C70.1501 202.747 69.8781 202.704 69.5901 202.704C68.8648 202.704 68.2941 202.933 67.8781 203.392C67.4621 203.84 67.2541 204.432 67.2541 205.168V206.576C67.2541 207.312 67.4621 207.909 67.8781 208.368C68.2941 208.816 68.8648 209.04 69.5901 209.04ZM78.8234 210.192C78.258 210.192 77.746 210.091 77.2874 209.888C76.8394 209.685 76.45 209.397 76.1194 209.024C75.7994 208.64 75.5487 208.187 75.3674 207.664C75.1967 207.131 75.1114 206.533 75.1114 205.872C75.1114 205.221 75.1967 204.629 75.3674 204.096C75.5487 203.563 75.7994 203.109 76.1194 202.736C76.45 202.352 76.8394 202.059 77.2874 201.856C77.746 201.653 78.258 201.552 78.8234 201.552C79.378 201.552 79.874 201.653 80.3114 201.856C80.7487 202.059 81.122 202.341 81.4314 202.704C81.7407 203.056 81.9754 203.477 82.1354 203.968C82.306 204.459 82.3914 204.997 82.3914 205.584V206.192H76.4554V206.576C76.4554 206.928 76.5087 207.259 76.6154 207.568C76.7327 207.867 76.8927 208.128 77.0954 208.352C77.3087 208.576 77.5647 208.752 77.8634 208.88C78.1727 209.008 78.5194 209.072 78.9034 209.072C79.426 209.072 79.8794 208.949 80.2634 208.704C80.658 208.459 80.962 208.107 81.1754 207.648L82.0874 208.304C81.8207 208.869 81.4047 209.328 80.8394 209.68C80.274 210.021 79.602 210.192 78.8234 210.192ZM78.8234 202.624C78.4714 202.624 78.1514 202.688 77.8634 202.816C77.5754 202.933 77.3247 203.104 77.1114 203.328C76.9087 203.552 76.7487 203.819 76.6314 204.128C76.514 204.427 76.4554 204.757 76.4554 205.12V205.232H81.0154V205.056C81.0154 204.32 80.8127 203.733 80.4074 203.296C80.0127 202.848 79.4847 202.624 78.8234 202.624ZM84.5006 198.16H85.7806V203.088H85.8446C86.0473 202.619 86.33 202.245 86.6926 201.968C87.066 201.691 87.562 201.552 88.1806 201.552C89.034 201.552 89.706 201.829 90.1966 202.384C90.698 202.928 90.9486 203.701 90.9486 204.704V210H89.6686V204.928C89.6686 203.445 89.0446 202.704 87.7966 202.704C87.5406 202.704 87.29 202.736 87.0446 202.8C86.81 202.864 86.5966 202.96 86.4046 203.088C86.2126 203.216 86.058 203.381 85.9406 203.584C85.834 203.776 85.7806 204.005 85.7806 204.272V210H84.5006V198.16ZM98.6824 208.656H98.6184C98.533 208.848 98.4264 209.04 98.2984 209.232C98.181 209.413 98.0317 209.579 97.8504 209.728C97.669 209.867 97.4504 209.979 97.1944 210.064C96.9384 210.149 96.6397 210.192 96.2984 210.192C95.445 210.192 94.7677 209.92 94.2664 209.376C93.765 208.821 93.5144 208.043 93.5144 207.04V201.744H94.7944V206.816C94.7944 208.299 95.4237 209.04 96.6824 209.04C96.9384 209.04 97.1837 209.008 97.4184 208.944C97.6637 208.88 97.877 208.784 98.0584 208.656C98.2504 208.528 98.3997 208.368 98.5064 208.176C98.6237 207.973 98.6824 207.733 98.6824 207.456V201.744H99.9624V210H98.6824V208.656ZM102.688 210V201.744H103.968V203.088H104.032C104.235 202.619 104.517 202.245 104.88 201.968C105.253 201.691 105.749 201.552 106.368 201.552C107.221 201.552 107.893 201.829 108.384 202.384C108.885 202.928 109.136 203.701 109.136 204.704V210H107.856V204.928C107.856 203.445 107.232 202.704 105.984 202.704C105.728 202.704 105.477 202.736 105.232 202.8C104.997 202.864 104.784 202.96 104.592 203.088C104.4 203.216 104.245 203.381 104.128 203.584C104.021 203.776 103.968 204.005 103.968 204.272V210H102.688ZM117.062 208.656H116.998C116.497 209.68 115.691 210.192 114.582 210.192C114.07 210.192 113.606 210.091 113.19 209.888C112.774 209.685 112.417 209.397 112.118 209.024C111.83 208.651 111.606 208.197 111.446 207.664C111.297 207.131 111.222 206.533 111.222 205.872C111.222 205.211 111.297 204.613 111.446 204.08C111.606 203.547 111.83 203.093 112.118 202.72C112.417 202.347 112.774 202.059 113.19 201.856C113.606 201.653 114.07 201.552 114.582 201.552C115.158 201.552 115.649 201.68 116.054 201.936C116.47 202.181 116.785 202.565 116.998 203.088H117.062V198.16H118.342V210H117.062V208.656ZM114.934 209.04C115.222 209.04 115.494 209.003 115.75 208.928C116.017 208.853 116.246 208.747 116.438 208.608C116.63 208.459 116.779 208.283 116.886 208.08C117.003 207.867 117.062 207.627 117.062 207.36V204.288C117.062 204.064 117.003 203.856 116.886 203.664C116.779 203.461 116.63 203.291 116.438 203.152C116.246 203.013 116.017 202.907 115.75 202.832C115.494 202.747 115.222 202.704 114.934 202.704C114.209 202.704 113.638 202.933 113.222 203.392C112.806 203.84 112.598 204.432 112.598 205.168V206.576C112.598 207.312 112.806 207.909 113.222 208.368C113.638 208.816 114.209 209.04 114.934 209.04ZM124.167 210.192C123.602 210.192 123.09 210.091 122.631 209.888C122.183 209.685 121.794 209.397 121.463 209.024C121.143 208.64 120.892 208.187 120.711 207.664C120.54 207.131 120.455 206.533 120.455 205.872C120.455 205.221 120.54 204.629 120.711 204.096C120.892 203.563 121.143 203.109 121.463 202.736C121.794 202.352 122.183 202.059 122.631 201.856C123.09 201.653 123.602 201.552 124.167 201.552C124.722 201.552 125.218 201.653 125.655 201.856C126.092 202.059 126.466 202.341 126.775 202.704C127.084 203.056 127.319 203.477 127.479 203.968C127.65 204.459 127.735 204.997 127.735 205.584V206.192H121.799V206.576C121.799 206.928 121.852 207.259 121.959 207.568C122.076 207.867 122.236 208.128 122.439 208.352C122.652 208.576 122.908 208.752 123.207 208.88C123.516 209.008 123.863 209.072 124.247 209.072C124.77 209.072 125.223 208.949 125.607 208.704C126.002 208.459 126.306 208.107 126.519 207.648L127.431 208.304C127.164 208.869 126.748 209.328 126.183 209.68C125.618 210.021 124.946 210.192 124.167 210.192ZM124.167 202.624C123.815 202.624 123.495 202.688 123.207 202.816C122.919 202.933 122.668 203.104 122.455 203.328C122.252 203.552 122.092 203.819 121.975 204.128C121.858 204.427 121.799 204.757 121.799 205.12V205.232H126.359V205.056C126.359 204.32 126.156 203.733 125.751 203.296C125.356 202.848 124.828 202.624 124.167 202.624Z" fill="#004D99"/>
<path d="M40 212H128.487V212.96H40V212Z" fill="#004D99"/>
<path d="M47.368 273.416L45.136 276.056V281H41.968V264.248H45.136V272.504H45.256L47.632 269.36L51.784 264.248H55.432L49.6 271.232L55.912 281H52.144L47.368 273.416ZM66.9998 281C66.3278 281 65.7918 280.808 65.3918 280.424C65.0078 280.024 64.7678 279.496 64.6718 278.84H64.5278C64.3198 279.656 63.8958 280.272 63.2558 280.688C62.6158 281.088 61.8238 281.288 60.8798 281.288C59.5998 281.288 58.6158 280.952 57.9278 280.28C57.2398 279.608 56.8958 278.712 56.8958 277.592C56.8958 276.296 57.3598 275.336 58.2878 274.712C59.2158 274.072 60.5358 273.752 62.2478 273.752H64.3838V272.84C64.3838 272.136 64.1998 271.592 63.8318 271.208C63.4638 270.824 62.8718 270.632 62.0558 270.632C61.3358 270.632 60.7518 270.792 60.3038 271.112C59.8718 271.416 59.5038 271.784 59.1998 272.216L57.3758 270.584C57.8398 269.864 58.4558 269.288 59.2238 268.856C59.9918 268.408 61.0078 268.184 62.2718 268.184C63.9678 268.184 65.2558 268.568 66.1358 269.336C67.0158 270.104 67.4558 271.208 67.4558 272.648V278.552H68.7038V281H66.9998ZM61.9118 279.056C62.5998 279.056 63.1838 278.904 63.6638 278.6C64.1438 278.296 64.3838 277.848 64.3838 277.256V275.6H62.4158C60.8158 275.6 60.0158 276.112 60.0158 277.136V277.544C60.0158 278.056 60.1758 278.44 60.4958 278.696C60.8318 278.936 61.3038 279.056 61.9118 279.056ZM75.0083 281C73.9523 281 73.1443 280.728 72.5843 280.184C72.0403 279.624 71.7683 278.832 71.7683 277.808V270.92H69.9203V268.472H70.8803C71.3443 268.472 71.6563 268.368 71.8163 268.16C71.9923 267.936 72.0803 267.608 72.0803 267.176V265.04H74.8403V268.472H77.4083V270.92H74.8403V278.552H77.2163V281H75.0083ZM83.8443 281C82.7883 281 81.9803 280.728 81.4203 280.184C80.8763 279.624 80.6043 278.832 80.6043 277.808V270.92H78.7563V268.472H79.7163C80.1803 268.472 80.4923 268.368 80.6523 268.16C80.8283 267.936 80.9163 267.608 80.9163 267.176V265.04H83.6763V268.472H86.2443V270.92H83.6763V278.552H86.0523V281H83.8443ZM93.8791 281.288C92.9511 281.288 92.1191 281.136 91.3831 280.832C90.6631 280.512 90.0471 280.072 89.5351 279.512C89.0391 278.936 88.6551 278.248 88.3831 277.448C88.1111 276.632 87.9751 275.72 87.9751 274.712C87.9751 273.72 88.1031 272.824 88.3591 272.024C88.6311 271.224 89.0151 270.544 89.5111 269.984C90.0071 269.408 90.6151 268.968 91.3351 268.664C92.0551 268.344 92.8711 268.184 93.7831 268.184C94.7591 268.184 95.6071 268.352 96.3271 268.688C97.0471 269.024 97.6391 269.48 98.1031 270.056C98.5671 270.632 98.9111 271.304 99.1351 272.072C99.3751 272.824 99.4951 273.632 99.4951 274.496V275.504H91.1671V275.816C91.1671 276.728 91.4231 277.464 91.9351 278.024C92.4471 278.568 93.2071 278.84 94.2151 278.84C94.9831 278.84 95.6071 278.68 96.0871 278.36C96.5831 278.04 97.0231 277.632 97.4071 277.136L99.0631 278.984C98.5511 279.704 97.8471 280.272 96.9511 280.688C96.0711 281.088 95.0471 281.288 93.8791 281.288ZM93.8311 270.488C93.0151 270.488 92.3671 270.76 91.8871 271.304C91.4071 271.848 91.1671 272.552 91.1671 273.416V273.608H96.3031V273.392C96.3031 272.528 96.0871 271.832 95.6551 271.304C95.2391 270.76 94.6311 270.488 93.8311 270.488Z" fill="black"/>
<path d="M48.48 308.944H42.832V314H41.488V302.832H42.832V307.76H48.48V302.832H49.824V314H48.48V308.944ZM55.7765 314.192C55.2112 314.192 54.6992 314.091 54.2405 313.888C53.7925 313.685 53.4032 313.397 53.0725 313.024C52.7525 312.64 52.5018 312.187 52.3205 311.664C52.1498 311.131 52.0645 310.533 52.0645 309.872C52.0645 309.221 52.1498 308.629 52.3205 308.096C52.5018 307.563 52.7525 307.109 53.0725 306.736C53.4032 306.352 53.7925 306.059 54.2405 305.856C54.6992 305.653 55.2112 305.552 55.7765 305.552C56.3312 305.552 56.8272 305.653 57.2645 305.856C57.7018 306.059 58.0752 306.341 58.3845 306.704C58.6938 307.056 58.9285 307.477 59.0885 307.968C59.2592 308.459 59.3445 308.997 59.3445 309.584V310.192H53.4085V310.576C53.4085 310.928 53.4618 311.259 53.5685 311.568C53.6858 311.867 53.8458 312.128 54.0485 312.352C54.2618 312.576 54.5178 312.752 54.8165 312.88C55.1258 313.008 55.4725 313.072 55.8565 313.072C56.3792 313.072 56.8325 312.949 57.2165 312.704C57.6112 312.459 57.9152 312.107 58.1285 311.648L59.0405 312.304C58.7738 312.869 58.3578 313.328 57.7925 313.68C57.2272 314.021 56.5552 314.192 55.7765 314.192ZM55.7765 306.624C55.4245 306.624 55.1045 306.688 54.8165 306.816C54.5285 306.933 54.2778 307.104 54.0645 307.328C53.8618 307.552 53.7018 307.819 53.5845 308.128C53.4672 308.427 53.4085 308.757 53.4085 309.12V309.232H57.9685V309.056C57.9685 308.32 57.7658 307.733 57.3605 307.296C56.9658 306.848 56.4378 306.624 55.7765 306.624ZM61.4538 314V305.744H62.7338V307.264H62.8138C62.9631 306.869 63.2298 306.517 63.6138 306.208C63.9978 305.899 64.5258 305.744 65.1978 305.744H65.6938V307.024H64.9418C64.2484 307.024 63.7044 307.157 63.3098 307.424C62.9258 307.68 62.7338 308.005 62.7338 308.4V314H61.4538ZM73.59 314.192C72.822 314.192 72.1767 314.048 71.654 313.76C71.142 313.461 70.6993 313.067 70.326 312.576L71.238 311.84C71.558 312.245 71.9153 312.56 72.31 312.784C72.7047 312.997 73.1633 313.104 73.686 313.104C74.23 313.104 74.6513 312.987 74.95 312.752C75.2593 312.517 75.414 312.187 75.414 311.76C75.414 311.44 75.3073 311.168 75.094 310.944C74.8913 310.709 74.518 310.549 73.974 310.464L73.318 310.368C72.934 310.315 72.582 310.235 72.262 310.128C71.942 310.011 71.6593 309.861 71.414 309.68C71.1793 309.488 70.9927 309.253 70.854 308.976C70.726 308.699 70.662 308.368 70.662 307.984C70.662 307.579 70.7367 307.227 70.886 306.928C71.0353 306.619 71.238 306.363 71.494 306.16C71.7607 305.957 72.0753 305.808 72.438 305.712C72.8007 305.605 73.19 305.552 73.606 305.552C74.278 305.552 74.838 305.669 75.286 305.904C75.7447 306.139 76.1447 306.464 76.486 306.88L75.638 307.648C75.4567 307.392 75.19 307.163 74.838 306.96C74.486 306.747 74.0433 306.64 73.51 306.64C72.9767 306.64 72.5713 306.757 72.294 306.992C72.0273 307.216 71.894 307.525 71.894 307.92C71.894 308.325 72.0273 308.619 72.294 308.8C72.5713 308.981 72.966 309.115 73.478 309.2L74.118 309.296C75.0353 309.435 75.686 309.701 76.07 310.096C76.454 310.48 76.646 310.987 76.646 311.616C76.646 312.416 76.374 313.045 75.83 313.504C75.286 313.963 74.5393 314.192 73.59 314.192ZM80.6215 314C80.1735 314 79.8322 313.877 79.5975 313.632C79.3735 313.376 79.2615 313.045 79.2615 312.64V306.864H77.9015V305.744H78.6695C78.9468 305.744 79.1335 305.691 79.2295 305.584C79.3362 305.467 79.3895 305.269 79.3895 304.992V303.456H80.5415V305.744H82.3495V306.864H80.5415V312.88H82.2215V314H80.6215ZM90.4069 314C89.9269 314 89.5802 313.872 89.3669 313.616C89.1642 313.36 89.0362 313.04 88.9829 312.656H88.9029C88.7215 313.168 88.4229 313.552 88.0069 313.808C87.5909 314.064 87.0949 314.192 86.5189 314.192C85.6442 314.192 84.9615 313.968 84.4709 313.52C83.9909 313.072 83.7509 312.464 83.7509 311.696C83.7509 310.917 84.0335 310.32 84.5989 309.904C85.1749 309.488 86.0655 309.28 87.2709 309.28H88.9029V308.464C88.9029 307.877 88.7429 307.429 88.4229 307.12C88.1029 306.811 87.6122 306.656 86.9509 306.656C86.4495 306.656 86.0282 306.768 85.6869 306.992C85.3562 307.216 85.0789 307.515 84.8549 307.888L84.0869 307.168C84.3109 306.72 84.6682 306.341 85.1589 306.032C85.6495 305.712 86.2682 305.552 87.0149 305.552C88.0175 305.552 88.7962 305.797 89.3509 306.288C89.9055 306.779 90.1829 307.461 90.1829 308.336V312.88H91.1269V314H90.4069ZM86.7269 313.104C87.0469 313.104 87.3402 313.067 87.6069 312.992C87.8735 312.917 88.1029 312.811 88.2949 312.672C88.4869 312.533 88.6362 312.373 88.7429 312.192C88.8495 312.011 88.9029 311.813 88.9029 311.6V310.24H87.2069C86.4709 310.24 85.9322 310.347 85.5909 310.56C85.2602 310.773 85.0949 311.083 85.0949 311.488V311.824C85.0949 312.229 85.2389 312.544 85.5269 312.768C85.8255 312.992 86.2255 313.104 86.7269 313.104ZM87.0949 304.784C86.8389 304.784 86.5935 304.741 86.3589 304.656C86.1349 304.56 85.9375 304.432 85.7669 304.272C85.6069 304.101 85.4789 303.904 85.3829 303.68C85.2869 303.456 85.2389 303.211 85.2389 302.944C85.2389 302.677 85.2869 302.432 85.3829 302.208C85.4789 301.984 85.6069 301.792 85.7669 301.632C85.9375 301.461 86.1349 301.333 86.3589 301.248C86.5935 301.152 86.8389 301.104 87.0949 301.104C87.3509 301.104 87.5909 301.152 87.8149 301.248C88.0495 301.333 88.2469 301.461 88.4069 301.632C88.5775 301.792 88.7109 301.984 88.8069 302.208C88.9029 302.432 88.9509 302.677 88.9509 302.944C88.9509 303.211 88.9029 303.456 88.8069 303.68C88.7109 303.904 88.5775 304.101 88.4069 304.272C88.2469 304.432 88.0495 304.56 87.8149 304.656C87.5909 304.741 87.3509 304.784 87.0949 304.784ZM87.0949 304C87.3829 304 87.6069 303.925 87.7669 303.776C87.9375 303.616 88.0229 303.397 88.0229 303.12V302.768C88.0229 302.491 87.9375 302.277 87.7669 302.128C87.6069 301.968 87.3829 301.888 87.0949 301.888C86.8069 301.888 86.5775 301.968 86.4069 302.128C86.2469 302.277 86.1669 302.491 86.1669 302.768V303.12C86.1669 303.397 86.2469 303.616 86.4069 303.776C86.5775 303.925 86.8069 304 87.0949 304ZM92.9538 314V305.744H94.2338V307.264H94.3138C94.4631 306.869 94.7298 306.517 95.1138 306.208C95.4978 305.899 96.0258 305.744 96.6978 305.744H97.1938V307.024H96.4418C95.7484 307.024 95.2044 307.157 94.8098 307.424C94.4258 307.68 94.2338 308.005 94.2338 308.4V314H92.9538ZM105.714 314.192C105.149 314.192 104.637 314.091 104.178 313.888C103.73 313.685 103.341 313.397 103.01 313.024C102.69 312.64 102.439 312.187 102.258 311.664C102.087 311.131 102.002 310.533 102.002 309.872C102.002 309.221 102.087 308.629 102.258 308.096C102.439 307.563 102.69 307.109 103.01 306.736C103.341 306.352 103.73 306.059 104.178 305.856C104.637 305.653 105.149 305.552 105.714 305.552C106.269 305.552 106.765 305.653 107.202 305.856C107.639 306.059 108.013 306.341 108.322 306.704C108.631 307.056 108.866 307.477 109.026 307.968C109.197 308.459 109.282 308.997 109.282 309.584V310.192H103.346V310.576C103.346 310.928 103.399 311.259 103.506 311.568C103.623 311.867 103.783 312.128 103.986 312.352C104.199 312.576 104.455 312.752 104.754 312.88C105.063 313.008 105.41 313.072 105.794 313.072C106.317 313.072 106.77 312.949 107.154 312.704C107.549 312.459 107.853 312.107 108.066 311.648L108.978 312.304C108.711 312.869 108.295 313.328 107.73 313.68C107.165 314.021 106.493 314.192 105.714 314.192ZM105.714 306.624C105.362 306.624 105.042 306.688 104.754 306.816C104.466 306.933 104.215 307.104 104.002 307.328C103.799 307.552 103.639 307.819 103.522 308.128C103.405 308.427 103.346 308.757 103.346 309.12V309.232H107.906V309.056C107.906 308.32 107.703 307.733 107.298 307.296C106.903 306.848 106.375 306.624 105.714 306.624ZM111.391 314V305.744H112.671V307.088H112.735C112.938 306.619 113.221 306.245 113.583 305.968C113.957 305.691 114.453 305.552 115.071 305.552C115.925 305.552 116.597 305.829 117.087 306.384C117.589 306.928 117.839 307.701 117.839 308.704V314H116.559V308.928C116.559 307.445 115.935 306.704 114.687 306.704C114.431 306.704 114.181 306.736 113.935 306.8C113.701 306.864 113.487 306.96 113.295 307.088C113.103 307.216 112.949 307.381 112.831 307.584C112.725 307.776 112.671 308.005 112.671 308.272V314H111.391ZM124.266 302.16H125.546V309.664H125.61L126.874 308.256L129.21 305.744H130.762L127.706 309.008L131.066 314H129.514L126.778 309.792L125.546 311.056V314H124.266V302.16ZM135.558 314.192C135.003 314.192 134.497 314.091 134.038 313.888C133.579 313.685 133.185 313.397 132.854 313.024C132.534 312.64 132.283 312.187 132.102 311.664C131.921 311.131 131.83 310.533 131.83 309.872C131.83 309.221 131.921 308.629 132.102 308.096C132.283 307.563 132.534 307.109 132.854 306.736C133.185 306.352 133.579 306.059 134.038 305.856C134.497 305.653 135.003 305.552 135.558 305.552C136.113 305.552 136.614 305.653 137.062 305.856C137.521 306.059 137.915 306.352 138.246 306.736C138.577 307.109 138.833 307.563 139.014 308.096C139.195 308.629 139.286 309.221 139.286 309.872C139.286 310.533 139.195 311.131 139.014 311.664C138.833 312.187 138.577 312.64 138.246 313.024C137.915 313.397 137.521 313.685 137.062 313.888C136.614 314.091 136.113 314.192 135.558 314.192ZM135.558 313.056C136.251 313.056 136.817 312.843 137.254 312.416C137.691 311.989 137.91 311.339 137.91 310.464V309.28C137.91 308.405 137.691 307.755 137.254 307.328C136.817 306.901 136.251 306.688 135.558 306.688C134.865 306.688 134.299 306.901 133.862 307.328C133.425 307.755 133.206 308.405 133.206 309.28V310.464C133.206 311.339 133.425 311.989 133.862 312.416C134.299 312.843 134.865 313.056 135.558 313.056ZM141.391 314V305.744H142.671V307.264H142.751C142.901 306.869 143.167 306.517 143.551 306.208C143.935 305.899 144.463 305.744 145.135 305.744H145.631V307.024H144.879C144.186 307.024 143.642 307.157 143.247 307.424C142.863 307.68 142.671 308.005 142.671 308.4V314H141.391ZM149.153 314C148.705 314 148.363 313.877 148.129 313.632C147.905 313.376 147.793 313.045 147.793 312.64V306.864H146.433V305.744H147.201C147.478 305.744 147.665 305.691 147.761 305.584C147.867 305.467 147.921 305.269 147.921 304.992V303.456H149.073V305.744H150.881V306.864H149.073V312.88H150.753V314H149.153ZM158.543 314C158.095 314 157.754 313.877 157.519 313.632C157.295 313.376 157.183 313.045 157.183 312.64V306.864H155.823V305.744H156.591C156.869 305.744 157.055 305.691 157.151 305.584C157.258 305.467 157.311 305.269 157.311 304.992V303.456H158.463V305.744H160.271V306.864H158.463V312.88H160.143V314H158.543ZM165.37 314.192C164.805 314.192 164.293 314.091 163.834 313.888C163.386 313.685 162.997 313.397 162.666 313.024C162.346 312.64 162.096 312.187 161.914 311.664C161.744 311.131 161.658 310.533 161.658 309.872C161.658 309.221 161.744 308.629 161.914 308.096C162.096 307.563 162.346 307.109 162.666 306.736C162.997 306.352 163.386 306.059 163.834 305.856C164.293 305.653 164.805 305.552 165.37 305.552C165.925 305.552 166.421 305.653 166.858 305.856C167.296 306.059 167.669 306.341 167.978 306.704C168.288 307.056 168.522 307.477 168.682 307.968C168.853 308.459 168.938 308.997 168.938 309.584V310.192H163.002V310.576C163.002 310.928 163.056 311.259 163.162 311.568C163.28 311.867 163.44 312.128 163.642 312.352C163.856 312.576 164.112 312.752 164.41 312.88C164.72 313.008 165.066 313.072 165.45 313.072C165.973 313.072 166.426 312.949 166.81 312.704C167.205 312.459 167.509 312.107 167.722 311.648L168.634 312.304C168.368 312.869 167.952 313.328 167.386 313.68C166.821 314.021 166.149 314.192 165.37 314.192ZM165.37 306.624C165.018 306.624 164.698 306.688 164.41 306.816C164.122 306.933 163.872 307.104 163.658 307.328C163.456 307.552 163.296 307.819 163.178 308.128C163.061 308.427 163.002 308.757 163.002 309.12V309.232H167.562V309.056C167.562 308.32 167.36 307.733 166.954 307.296C166.56 306.848 166.032 306.624 165.37 306.624ZM171.048 302.16H172.328V309.664H172.392L173.656 308.256L175.992 305.744H177.544L174.488 309.008L177.848 314H176.296L173.56 309.792L172.328 311.056V314H171.048V302.16ZM181.809 314.192C181.041 314.192 180.395 314.048 179.873 313.76C179.361 313.461 178.918 313.067 178.545 312.576L179.457 311.84C179.777 312.245 180.134 312.56 180.529 312.784C180.923 312.997 181.382 313.104 181.905 313.104C182.449 313.104 182.87 312.987 183.169 312.752C183.478 312.517 183.633 312.187 183.633 311.76C183.633 311.44 183.526 311.168 183.313 310.944C183.11 310.709 182.737 310.549 182.193 310.464L181.537 310.368C181.153 310.315 180.801 310.235 180.481 310.128C180.161 310.011 179.878 309.861 179.633 309.68C179.398 309.488 179.211 309.253 179.073 308.976C178.945 308.699 178.881 308.368 178.881 307.984C178.881 307.579 178.955 307.227 179.105 306.928C179.254 306.619 179.457 306.363 179.713 306.16C179.979 305.957 180.294 305.808 180.657 305.712C181.019 305.605 181.409 305.552 181.825 305.552C182.497 305.552 183.057 305.669 183.505 305.904C183.963 306.139 184.363 306.464 184.705 306.88L183.857 307.648C183.675 307.392 183.409 307.163 183.057 306.96C182.705 306.747 182.262 306.64 181.729 306.64C181.195 306.64 180.79 306.757 180.513 306.992C180.246 307.216 180.113 307.525 180.113 307.92C180.113 308.325 180.246 308.619 180.513 308.8C180.79 308.981 181.185 309.115 181.697 309.2L182.337 309.296C183.254 309.435 183.905 309.701 184.289 310.096C184.673 310.48 184.865 310.987 184.865 311.616C184.865 312.416 184.593 313.045 184.049 313.504C183.505 313.963 182.758 314.192 181.809 314.192ZM188.84 314C188.392 314 188.051 313.877 187.816 313.632C187.592 313.376 187.48 313.045 187.48 312.64V306.864H186.12V305.744H186.888C187.166 305.744 187.352 305.691 187.448 305.584C187.555 305.467 187.608 305.269 187.608 304.992V303.456H188.76V305.744H190.568V306.864H188.76V312.88H190.44V314H188.84ZM199.527 314.192C198.972 314.192 198.466 314.091 198.007 313.888C197.548 313.685 197.154 313.397 196.823 313.024C196.503 312.64 196.252 312.187 196.071 311.664C195.89 311.131 195.799 310.533 195.799 309.872C195.799 309.221 195.89 308.629 196.071 308.096C196.252 307.563 196.503 307.109 196.823 306.736C197.154 306.352 197.548 306.059 198.007 305.856C198.466 305.653 198.972 305.552 199.527 305.552C200.082 305.552 200.583 305.653 201.031 305.856C201.49 306.059 201.884 306.352 202.215 306.736C202.546 307.109 202.802 307.563 202.983 308.096C203.164 308.629 203.255 309.221 203.255 309.872C203.255 310.533 203.164 311.131 202.983 311.664C202.802 312.187 202.546 312.64 202.215 313.024C201.884 313.397 201.49 313.685 201.031 313.888C200.583 314.091 200.082 314.192 199.527 314.192ZM199.527 313.056C200.22 313.056 200.786 312.843 201.223 312.416C201.66 311.989 201.879 311.339 201.879 310.464V309.28C201.879 308.405 201.66 307.755 201.223 307.328C200.786 306.901 200.22 306.688 199.527 306.688C198.834 306.688 198.268 306.901 197.831 307.328C197.394 307.755 197.175 308.405 197.175 309.28V310.464C197.175 311.339 197.394 311.989 197.831 312.416C198.268 312.843 198.834 313.056 199.527 313.056ZM205.36 314V305.744H206.64V307.088H206.704C206.8 306.875 206.907 306.677 207.024 306.496C207.152 306.304 207.301 306.139 207.472 306C207.653 305.861 207.861 305.755 208.096 305.68C208.331 305.595 208.608 305.552 208.928 305.552C209.472 305.552 209.973 305.685 210.432 305.952C210.891 306.208 211.232 306.635 211.456 307.232H211.488C211.637 306.784 211.915 306.395 212.32 306.064C212.736 305.723 213.296 305.552 214 305.552C214.843 305.552 215.499 305.829 215.968 306.384C216.448 306.928 216.688 307.701 216.688 308.704V314H215.408V308.928C215.408 308.192 215.264 307.637 214.976 307.264C214.688 306.891 214.229 306.704 213.6 306.704C213.344 306.704 213.099 306.736 212.864 306.8C212.64 306.864 212.437 306.96 212.256 307.088C212.075 307.216 211.931 307.381 211.824 307.584C211.717 307.776 211.664 308.005 211.664 308.272V314H210.384V308.928C210.384 308.192 210.24 307.637 209.952 307.264C209.664 306.891 209.216 306.704 208.608 306.704C208.352 306.704 208.107 306.736 207.872 306.8C207.637 306.864 207.429 306.96 207.248 307.088C207.067 307.216 206.917 307.381 206.8 307.584C206.693 307.776 206.64 308.005 206.64 308.272V314H205.36ZM223.11 302.16H224.39V309.664H224.454L225.718 308.256L228.054 305.744H229.606L226.55 309.008L229.91 314H228.358L225.622 309.792L224.39 311.056V314H223.11V302.16ZM237.469 314C236.989 314 236.643 313.872 236.429 313.616C236.227 313.36 236.099 313.04 236.045 312.656H235.965C235.784 313.168 235.485 313.552 235.069 313.808C234.653 314.064 234.157 314.192 233.581 314.192C232.707 314.192 232.024 313.968 231.533 313.52C231.053 313.072 230.813 312.464 230.813 311.696C230.813 310.917 231.096 310.32 231.661 309.904C232.237 309.488 233.128 309.28 234.333 309.28H235.965V308.464C235.965 307.877 235.805 307.429 235.485 307.12C235.165 306.811 234.675 306.656 234.013 306.656C233.512 306.656 233.091 306.768 232.749 306.992C232.419 307.216 232.141 307.515 231.917 307.888L231.149 307.168C231.373 306.72 231.731 306.341 232.221 306.032C232.712 305.712 233.331 305.552 234.077 305.552C235.08 305.552 235.859 305.797 236.413 306.288C236.968 306.779 237.245 307.461 237.245 308.336V312.88H238.189V314H237.469ZM233.789 313.104C234.109 313.104 234.403 313.067 234.669 312.992C234.936 312.917 235.165 312.811 235.357 312.672C235.549 312.533 235.699 312.373 235.805 312.192C235.912 312.011 235.965 311.813 235.965 311.6V310.24H234.269C233.533 310.24 232.995 310.347 232.653 310.56C232.323 310.773 232.157 311.083 232.157 311.488V311.824C232.157 312.229 232.301 312.544 232.589 312.768C232.888 312.992 233.288 313.104 233.789 313.104ZM241.84 314C241.392 314 241.051 313.877 240.816 313.632C240.592 313.376 240.48 313.045 240.48 312.64V306.864H239.12V305.744H239.888C240.166 305.744 240.352 305.691 240.448 305.584C240.555 305.467 240.608 305.269 240.608 304.992V303.456H241.76V305.744H243.568V306.864H241.76V312.88H243.44V314H241.84ZM247.309 314C246.861 314 246.52 313.877 246.285 313.632C246.061 313.376 245.949 313.045 245.949 312.64V306.864H244.589V305.744H245.357C245.634 305.744 245.821 305.691 245.917 305.584C246.024 305.467 246.077 305.269 246.077 304.992V303.456H247.229V305.744H249.037V306.864H247.229V312.88H248.909V314H247.309ZM254.136 314.192C253.571 314.192 253.059 314.091 252.6 313.888C252.152 313.685 251.763 313.397 251.432 313.024C251.112 312.64 250.861 312.187 250.68 311.664C250.509 311.131 250.424 310.533 250.424 309.872C250.424 309.221 250.509 308.629 250.68 308.096C250.861 307.563 251.112 307.109 251.432 306.736C251.763 306.352 252.152 306.059 252.6 305.856C253.059 305.653 253.571 305.552 254.136 305.552C254.691 305.552 255.187 305.653 255.624 305.856C256.061 306.059 256.435 306.341 256.744 306.704C257.053 307.056 257.288 307.477 257.448 307.968C257.619 308.459 257.704 308.997 257.704 309.584V310.192H251.768V310.576C251.768 310.928 251.821 311.259 251.928 311.568C252.045 311.867 252.205 312.128 252.408 312.352C252.621 312.576 252.877 312.752 253.176 312.88C253.485 313.008 253.832 313.072 254.216 313.072C254.739 313.072 255.192 312.949 255.576 312.704C255.971 312.459 256.275 312.107 256.488 311.648L257.4 312.304C257.133 312.869 256.717 313.328 256.152 313.68C255.587 314.021 254.915 314.192 254.136 314.192ZM254.136 306.624C253.784 306.624 253.464 306.688 253.176 306.816C252.888 306.933 252.637 307.104 252.424 307.328C252.221 307.552 252.061 307.819 251.944 308.128C251.827 308.427 251.768 308.757 251.768 309.12V309.232H256.328V309.056C256.328 308.32 256.125 307.733 255.72 307.296C255.325 306.848 254.797 306.624 254.136 306.624ZM260.317 314.192C259.975 314.192 259.725 314.107 259.565 313.936C259.415 313.765 259.341 313.541 259.341 313.264V313.056C259.341 312.779 259.415 312.555 259.565 312.384C259.725 312.213 259.975 312.128 260.317 312.128C260.658 312.128 260.903 312.213 261.053 312.384C261.213 312.555 261.293 312.779 261.293 313.056V313.264C261.293 313.541 261.213 313.765 261.053 313.936C260.903 314.107 260.658 314.192 260.317 314.192Z" fill="black"/>
<path d="M41.488 350.832H45.232C45.9253 350.832 46.5547 350.949 47.12 351.184C47.6853 351.419 48.1653 351.771 48.56 352.24C48.9653 352.699 49.2747 353.28 49.488 353.984C49.7013 354.677 49.808 355.488 49.808 356.416C49.808 357.344 49.7013 358.16 49.488 358.864C49.2747 359.557 48.9653 360.139 48.56 360.608C48.1653 361.067 47.6853 361.413 47.12 361.648C46.5547 361.883 45.9253 362 45.232 362H41.488V350.832ZM45.232 360.816C45.6907 360.816 46.112 360.741 46.496 360.592C46.88 360.432 47.2107 360.203 47.488 359.904C47.7653 359.605 47.9787 359.243 48.128 358.816C48.288 358.379 48.368 357.883 48.368 357.328V355.504C48.368 354.949 48.288 354.459 48.128 354.032C47.9787 353.595 47.7653 353.227 47.488 352.928C47.2107 352.629 46.88 352.405 46.496 352.256C46.112 352.096 45.6907 352.016 45.232 352.016H42.832V360.816H45.232ZM55.1984 362.192C54.633 362.192 54.121 362.091 53.6624 361.888C53.2144 361.685 52.825 361.397 52.4944 361.024C52.1744 360.64 51.9237 360.187 51.7424 359.664C51.5717 359.131 51.4864 358.533 51.4864 357.872C51.4864 357.221 51.5717 356.629 51.7424 356.096C51.9237 355.563 52.1744 355.109 52.4944 354.736C52.825 354.352 53.2144 354.059 53.6624 353.856C54.121 353.653 54.633 353.552 55.1984 353.552C55.753 353.552 56.249 353.653 56.6864 353.856C57.1237 354.059 57.497 354.341 57.8064 354.704C58.1157 355.056 58.3504 355.477 58.5104 355.968C58.681 356.459 58.7664 356.997 58.7664 357.584V358.192H52.8304V358.576C52.8304 358.928 52.8837 359.259 52.9904 359.568C53.1077 359.867 53.2677 360.128 53.4704 360.352C53.6837 360.576 53.9397 360.752 54.2384 360.88C54.5477 361.008 54.8944 361.072 55.2784 361.072C55.801 361.072 56.2544 360.949 56.6384 360.704C57.033 360.459 57.337 360.107 57.5504 359.648L58.4624 360.304C58.1957 360.869 57.7797 361.328 57.2144 361.68C56.649 362.021 55.977 362.192 55.1984 362.192ZM55.1984 354.624C54.8464 354.624 54.5264 354.688 54.2384 354.816C53.9504 354.933 53.6997 355.104 53.4864 355.328C53.2837 355.552 53.1237 355.819 53.0064 356.128C52.889 356.427 52.8304 356.757 52.8304 357.12V357.232H57.3904V357.056C57.3904 356.32 57.1877 355.733 56.7824 355.296C56.3877 354.848 55.8597 354.624 55.1984 354.624ZM62.6996 362C62.2516 362 61.9103 361.877 61.6756 361.632C61.4516 361.376 61.3396 361.045 61.3396 360.64V354.864H59.9796V353.744H60.7476C61.025 353.744 61.2116 353.691 61.3076 353.584C61.4143 353.467 61.4676 353.269 61.4676 352.992V351.456H62.6196V353.744H64.4276V354.864H62.6196V360.88H64.2996V362H62.6996ZM72.7463 362.192C71.9783 362.192 71.3329 362.048 70.8103 361.76C70.2983 361.461 69.8556 361.067 69.4823 360.576L70.3943 359.84C70.7143 360.245 71.0716 360.56 71.4663 360.784C71.8609 360.997 72.3196 361.104 72.8423 361.104C73.3863 361.104 73.8076 360.987 74.1063 360.752C74.4156 360.517 74.5703 360.187 74.5703 359.76C74.5703 359.44 74.4636 359.168 74.2503 358.944C74.0476 358.709 73.6743 358.549 73.1302 358.464L72.4743 358.368C72.0903 358.315 71.7383 358.235 71.4183 358.128C71.0983 358.011 70.8156 357.861 70.5703 357.68C70.3356 357.488 70.1489 357.253 70.0103 356.976C69.8823 356.699 69.8183 356.368 69.8183 355.984C69.8183 355.579 69.8929 355.227 70.0423 354.928C70.1916 354.619 70.3943 354.363 70.6503 354.16C70.9169 353.957 71.2316 353.808 71.5943 353.712C71.9569 353.605 72.3463 353.552 72.7623 353.552C73.4343 353.552 73.9943 353.669 74.4423 353.904C74.9009 354.139 75.3009 354.464 75.6423 354.88L74.7943 355.648C74.6129 355.392 74.3463 355.163 73.9943 354.96C73.6423 354.747 73.1996 354.64 72.6663 354.64C72.1329 354.64 71.7276 354.757 71.4503 354.992C71.1836 355.216 71.0503 355.525 71.0503 355.92C71.0503 356.325 71.1836 356.619 71.4503 356.8C71.7276 356.981 72.1223 357.115 72.6343 357.2L73.2743 357.296C74.1916 357.435 74.8423 357.701 75.2263 358.096C75.6103 358.48 75.8023 358.987 75.8023 359.616C75.8023 360.416 75.5303 361.045 74.9863 361.504C74.4423 361.963 73.6956 362.192 72.7463 362.192ZM78.0631 353.744H79.3431V355.088H79.4071C79.6205 354.565 79.9298 354.181 80.3351 353.936C80.7511 353.68 81.2471 353.552 81.8231 353.552C82.3351 353.552 82.7991 353.653 83.2151 353.856C83.6311 354.059 83.9831 354.347 84.2711 354.72C84.5698 355.093 84.7938 355.547 84.9431 356.08C85.1031 356.613 85.1831 357.211 85.1831 357.872C85.1831 358.533 85.1031 359.131 84.9431 359.664C84.7938 360.197 84.5698 360.651 84.2711 361.024C83.9831 361.397 83.6311 361.685 83.2151 361.888C82.7991 362.091 82.3351 362.192 81.8231 362.192C80.7031 362.192 79.8978 361.68 79.4071 360.656H79.3431V365.2H78.0631V353.744ZM81.4711 361.04C82.1965 361.04 82.7671 360.816 83.1831 360.368C83.5991 359.909 83.8071 359.312 83.8071 358.576V357.168C83.8071 356.432 83.5991 355.84 83.1831 355.392C82.7671 354.933 82.1965 354.704 81.4711 354.704C81.1831 354.704 80.9058 354.747 80.6391 354.832C80.3831 354.907 80.1591 355.013 79.9671 355.152C79.7751 355.291 79.6205 355.461 79.5031 355.664C79.3965 355.856 79.3431 356.064 79.3431 356.288V359.36C79.3431 359.627 79.3965 359.867 79.5031 360.08C79.6205 360.283 79.7751 360.459 79.9671 360.608C80.1591 360.747 80.3831 360.853 80.6391 360.928C80.9058 361.003 81.1831 361.04 81.4711 361.04ZM87.9844 351.808C87.707 351.808 87.5044 351.744 87.3764 351.616C87.259 351.477 87.2004 351.301 87.2004 351.088V350.88C87.2004 350.667 87.259 350.496 87.3764 350.368C87.5044 350.229 87.707 350.16 87.9844 350.16C88.2617 350.16 88.459 350.229 88.5764 350.368C88.7044 350.496 88.7684 350.667 88.7684 350.88V351.088C88.7684 351.301 88.7044 351.477 88.5764 351.616C88.459 351.744 88.2617 351.808 87.9844 351.808ZM87.3444 353.744H88.6244V362H87.3444V353.744ZM93.8244 362.192C93.0564 362.192 92.411 362.048 91.8884 361.76C91.3764 361.461 90.9337 361.067 90.5604 360.576L91.4724 359.84C91.7924 360.245 92.1497 360.56 92.5444 360.784C92.939 360.997 93.3977 361.104 93.9204 361.104C94.4644 361.104 94.8857 360.987 95.1844 360.752C95.4937 360.517 95.6484 360.187 95.6484 359.76C95.6484 359.44 95.5417 359.168 95.3284 358.944C95.1257 358.709 94.7524 358.549 94.2084 358.464L93.5524 358.368C93.1684 358.315 92.8164 358.235 92.4964 358.128C92.1764 358.011 91.8937 357.861 91.6484 357.68C91.4137 357.488 91.227 357.253 91.0884 356.976C90.9604 356.699 90.8964 356.368 90.8964 355.984C90.8964 355.579 90.971 355.227 91.1204 354.928C91.2697 354.619 91.4724 354.363 91.7284 354.16C91.995 353.957 92.3097 353.808 92.6724 353.712C93.035 353.605 93.4244 353.552 93.8404 353.552C94.5124 353.552 95.0724 353.669 95.5204 353.904C95.979 354.139 96.379 354.464 96.7204 354.88L95.8724 355.648C95.691 355.392 95.4244 355.163 95.0724 354.96C94.7204 354.747 94.2777 354.64 93.7444 354.64C93.211 354.64 92.8057 354.757 92.5284 354.992C92.2617 355.216 92.1284 355.525 92.1284 355.92C92.1284 356.325 92.2617 356.619 92.5284 356.8C92.8057 356.981 93.2004 357.115 93.7124 357.2L94.3524 357.296C95.2697 357.435 95.9204 357.701 96.3044 358.096C96.6884 358.48 96.8804 358.987 96.8804 359.616C96.8804 360.416 96.6084 361.045 96.0644 361.504C95.5204 361.963 94.7737 362.192 93.8244 362.192ZM102.245 362.192C101.68 362.192 101.168 362.091 100.709 361.888C100.261 361.685 99.8719 361.397 99.5413 361.024C99.2213 360.64 98.9706 360.187 98.7893 359.664C98.6186 359.131 98.5333 358.533 98.5333 357.872C98.5333 357.221 98.6186 356.629 98.7893 356.096C98.9706 355.563 99.2213 355.109 99.5413 354.736C99.8719 354.352 100.261 354.059 100.709 353.856C101.168 353.653 101.68 353.552 102.245 353.552C102.8 353.552 103.296 353.653 103.733 353.856C104.171 354.059 104.544 354.341 104.853 354.704C105.163 355.056 105.397 355.477 105.557 355.968C105.728 356.459 105.813 356.997 105.813 357.584V358.192H99.8773V358.576C99.8773 358.928 99.9306 359.259 100.037 359.568C100.155 359.867 100.315 360.128 100.517 360.352C100.731 360.576 100.987 360.752 101.285 360.88C101.595 361.008 101.941 361.072 102.325 361.072C102.848 361.072 103.301 360.949 103.685 360.704C104.08 360.459 104.384 360.107 104.597 359.648L105.509 360.304C105.243 360.869 104.827 361.328 104.261 361.68C103.696 362.021 103.024 362.192 102.245 362.192ZM102.245 354.624C101.893 354.624 101.573 354.688 101.285 354.816C100.997 354.933 100.747 355.104 100.533 355.328C100.331 355.552 100.171 355.819 100.053 356.128C99.9359 356.427 99.8773 356.757 99.8773 357.12V357.232H104.437V357.056C104.437 356.32 104.235 355.733 103.829 355.296C103.435 354.848 102.907 354.624 102.245 354.624ZM107.923 362V353.744H109.203V355.264H109.283C109.432 354.869 109.699 354.517 110.083 354.208C110.467 353.899 110.995 353.744 111.667 353.744H112.163V355.024H111.411C110.717 355.024 110.173 355.157 109.779 355.424C109.395 355.68 109.203 356.005 109.203 356.4V362H107.923ZM117.579 350.16H118.859V357.664H118.923L120.187 356.256L122.523 353.744H124.075L121.019 357.008L124.379 362H122.827L120.091 357.792L118.859 359.056V362H117.579V350.16ZM131.938 362C131.458 362 131.111 361.872 130.898 361.616C130.695 361.36 130.567 361.04 130.514 360.656H130.434C130.253 361.168 129.954 361.552 129.538 361.808C129.122 362.064 128.626 362.192 128.05 362.192C127.175 362.192 126.493 361.968 126.002 361.52C125.522 361.072 125.282 360.464 125.282 359.696C125.282 358.917 125.565 358.32 126.13 357.904C126.706 357.488 127.597 357.28 128.802 357.28H130.434V356.464C130.434 355.877 130.274 355.429 129.954 355.12C129.634 354.811 129.143 354.656 128.482 354.656C127.981 354.656 127.559 354.768 127.218 354.992C126.887 355.216 126.61 355.515 126.386 355.888L125.618 355.168C125.842 354.72 126.199 354.341 126.69 354.032C127.181 353.712 127.799 353.552 128.546 353.552C129.549 353.552 130.327 353.797 130.882 354.288C131.437 354.779 131.714 355.461 131.714 356.336V360.88H132.658V362H131.938ZM128.258 361.104C128.578 361.104 128.871 361.067 129.138 360.992C129.405 360.917 129.634 360.811 129.826 360.672C130.018 360.533 130.167 360.373 130.274 360.192C130.381 360.011 130.434 359.813 130.434 359.6V358.24H128.738C128.002 358.24 127.463 358.347 127.122 358.56C126.791 358.773 126.626 359.083 126.626 359.488V359.824C126.626 360.229 126.77 360.544 127.058 360.768C127.357 360.992 127.757 361.104 128.258 361.104ZM136.309 362C135.861 362 135.52 361.877 135.285 361.632C135.061 361.376 134.949 361.045 134.949 360.64V354.864H133.589V353.744H134.357C134.634 353.744 134.821 353.691 134.917 353.584C135.024 353.467 135.077 353.269 135.077 352.992V351.456H136.229V353.744H138.037V354.864H136.229V360.88H137.909V362H136.309ZM141.778 362C141.33 362 140.988 361.877 140.754 361.632C140.53 361.376 140.418 361.045 140.418 360.64V354.864H139.058V353.744H139.826C140.103 353.744 140.29 353.691 140.386 353.584C140.492 353.467 140.546 353.269 140.546 352.992V351.456H141.698V353.744H143.506V354.864H141.698V360.88H143.378V362H141.778ZM148.605 362.192C148.039 362.192 147.527 362.091 147.069 361.888C146.621 361.685 146.231 361.397 145.901 361.024C145.581 360.64 145.33 360.187 145.149 359.664C144.978 359.131 144.893 358.533 144.893 357.872C144.893 357.221 144.978 356.629 145.149 356.096C145.33 355.563 145.581 355.109 145.901 354.736C146.231 354.352 146.621 354.059 147.069 353.856C147.527 353.653 148.039 353.552 148.605 353.552C149.159 353.552 149.655 353.653 150.093 353.856C150.53 354.059 150.903 354.341 151.213 354.704C151.522 355.056 151.757 355.477 151.917 355.968C152.087 356.459 152.173 356.997 152.173 357.584V358.192H146.237V358.576C146.237 358.928 146.29 359.259 146.397 359.568C146.514 359.867 146.674 360.128 146.877 360.352C147.09 360.576 147.346 360.752 147.645 360.88C147.954 361.008 148.301 361.072 148.685 361.072C149.207 361.072 149.661 360.949 150.045 360.704C150.439 360.459 150.743 360.107 150.957 359.648L151.869 360.304C151.602 360.869 151.186 361.328 150.621 361.68C150.055 362.021 149.383 362.192 148.605 362.192ZM148.605 354.624C148.253 354.624 147.933 354.688 147.645 354.816C147.357 354.933 147.106 355.104 146.893 355.328C146.69 355.552 146.53 355.819 146.413 356.128C146.295 356.427 146.237 356.757 146.237 357.12V357.232H150.797V357.056C150.797 356.32 150.594 355.733 150.189 355.296C149.794 354.848 149.266 354.624 148.605 354.624Z" fill="#004D99"/>
<path d="M40 364H152.925V364.96H40V364Z" fill="#004D99"/>
<path d="M44.624 394.192C43.7173 394.192 42.944 394.021 42.304 393.68C41.664 393.328 41.12 392.848 40.672 392.24L41.664 391.408C42.0587 391.931 42.496 392.331 42.976 392.608C43.456 392.875 44.0213 393.008 44.672 393.008C45.472 393.008 46.08 392.816 46.496 392.432C46.9227 392.048 47.136 391.536 47.136 390.896C47.136 390.363 46.976 389.952 46.656 389.664C46.336 389.376 45.808 389.147 45.072 388.976L44.16 388.768C43.136 388.533 42.352 388.181 41.808 387.712C41.2747 387.232 41.008 386.56 41.008 385.696C41.008 385.205 41.0987 384.768 41.28 384.384C41.4613 384 41.712 383.68 42.032 383.424C42.3627 383.168 42.752 382.976 43.2 382.848C43.6587 382.709 44.16 382.64 44.704 382.64C45.5467 382.64 46.2667 382.795 46.864 383.104C47.472 383.413 47.984 383.867 48.4 384.464L47.392 385.2C47.0827 384.773 46.7093 384.437 46.272 384.192C45.8347 383.947 45.2907 383.824 44.64 383.824C43.9253 383.824 43.36 383.979 42.944 384.288C42.5387 384.587 42.336 385.04 42.336 385.648C42.336 386.181 42.5067 386.587 42.848 386.864C43.2 387.131 43.728 387.344 44.432 387.504L45.344 387.712C46.4427 387.957 47.2373 388.331 47.728 388.832C48.2187 389.333 48.464 390 48.464 390.832C48.464 391.344 48.3733 391.808 48.192 392.224C48.0213 392.64 47.7707 392.992 47.44 393.28C47.1093 393.568 46.704 393.792 46.224 393.952C45.7547 394.112 45.2213 394.192 44.624 394.192ZM56.6569 394C56.1769 394 55.8302 393.872 55.6169 393.616C55.4142 393.36 55.2862 393.04 55.2329 392.656H55.1529C54.9715 393.168 54.6729 393.552 54.2569 393.808C53.8409 394.064 53.3449 394.192 52.7689 394.192C51.8942 394.192 51.2115 393.968 50.7209 393.52C50.2409 393.072 50.0009 392.464 50.0009 391.696C50.0009 390.917 50.2835 390.32 50.8489 389.904C51.4249 389.488 52.3155 389.28 53.5209 389.28H55.1529V388.464C55.1529 387.877 54.9929 387.429 54.6729 387.12C54.3529 386.811 53.8622 386.656 53.2009 386.656C52.6995 386.656 52.2782 386.768 51.9369 386.992C51.6062 387.216 51.3289 387.515 51.1049 387.888L50.3369 387.168C50.5609 386.72 50.9182 386.341 51.4089 386.032C51.8995 385.712 52.5182 385.552 53.2649 385.552C54.2675 385.552 55.0462 385.797 55.6009 386.288C56.1555 386.779 56.4329 387.461 56.4329 388.336V392.88H57.3769V394H56.6569ZM52.9769 393.104C53.2969 393.104 53.5902 393.067 53.8569 392.992C54.1235 392.917 54.3529 392.811 54.5449 392.672C54.7369 392.533 54.8862 392.373 54.9929 392.192C55.0995 392.011 55.1529 391.813 55.1529 391.6V390.24H53.4569C52.7209 390.24 52.1822 390.347 51.8409 390.56C51.5102 390.773 51.3449 391.083 51.3449 391.488V391.824C51.3449 392.229 51.4889 392.544 51.7769 392.768C52.0755 392.992 52.4755 393.104 52.9769 393.104ZM53.3449 384.784C53.0889 384.784 52.8435 384.741 52.6089 384.656C52.3849 384.56 52.1875 384.432 52.0169 384.272C51.8569 384.101 51.7289 383.904 51.6329 383.68C51.5369 383.456 51.4889 383.211 51.4889 382.944C51.4889 382.677 51.5369 382.432 51.6329 382.208C51.7289 381.984 51.8569 381.792 52.0169 381.632C52.1875 381.461 52.3849 381.333 52.6089 381.248C52.8435 381.152 53.0889 381.104 53.3449 381.104C53.6009 381.104 53.8409 381.152 54.0649 381.248C54.2995 381.333 54.4969 381.461 54.6569 381.632C54.8275 381.792 54.9609 381.984 55.0569 382.208C55.1529 382.432 55.2009 382.677 55.2009 382.944C55.2009 383.211 55.1529 383.456 55.0569 383.68C54.9609 383.904 54.8275 384.101 54.6569 384.272C54.4969 384.432 54.2995 384.56 54.0649 384.656C53.8409 384.741 53.6009 384.784 53.3449 384.784ZM53.3449 384C53.6329 384 53.8569 383.925 54.0169 383.776C54.1875 383.616 54.2729 383.397 54.2729 383.12V382.768C54.2729 382.491 54.1875 382.277 54.0169 382.128C53.8569 381.968 53.6329 381.888 53.3449 381.888C53.0569 381.888 52.8275 381.968 52.6569 382.128C52.4969 382.277 52.4169 382.491 52.4169 382.768V383.12C52.4169 383.397 52.4969 383.616 52.6569 383.776C52.8275 383.925 53.0569 384 53.3449 384ZM62.985 394V385.744H64.265V387.088H64.329C64.425 386.875 64.5317 386.677 64.649 386.496C64.777 386.304 64.9263 386.139 65.097 386C65.2783 385.861 65.4863 385.755 65.721 385.68C65.9557 385.595 66.233 385.552 66.553 385.552C67.097 385.552 67.5983 385.685 68.057 385.952C68.5157 386.208 68.857 386.635 69.081 387.232H69.113C69.2623 386.784 69.5397 386.395 69.945 386.064C70.361 385.723 70.921 385.552 71.625 385.552C72.4677 385.552 73.1237 385.829 73.593 386.384C74.073 386.928 74.313 387.701 74.313 388.704V394H73.033V388.928C73.033 388.192 72.889 387.637 72.601 387.264C72.313 386.891 71.8543 386.704 71.225 386.704C70.969 386.704 70.7237 386.736 70.489 386.8C70.265 386.864 70.0623 386.96 69.881 387.088C69.6997 387.216 69.5557 387.381 69.449 387.584C69.3423 387.776 69.289 388.005 69.289 388.272V394H68.009V388.928C68.009 388.192 67.865 387.637 67.577 387.264C67.289 386.891 66.841 386.704 66.233 386.704C65.977 386.704 65.7317 386.736 65.497 386.8C65.2623 386.864 65.0543 386.96 64.873 387.088C64.6917 387.216 64.5423 387.381 64.425 387.584C64.3183 387.776 64.265 388.005 64.265 388.272V394H62.985ZM80.0578 394.192C79.4924 394.192 78.9804 394.091 78.5218 393.888C78.0738 393.685 77.6844 393.397 77.3538 393.024C77.0338 392.64 76.7831 392.187 76.6018 391.664C76.4311 391.131 76.3458 390.533 76.3458 389.872C76.3458 389.221 76.4311 388.629 76.6018 388.096C76.7831 387.563 77.0338 387.109 77.3538 386.736C77.6844 386.352 78.0738 386.059 78.5218 385.856C78.9804 385.653 79.4924 385.552 80.0578 385.552C80.6124 385.552 81.1084 385.653 81.5458 385.856C81.9831 386.059 82.3564 386.341 82.6658 386.704C82.9751 387.056 83.2098 387.477 83.3698 387.968C83.5404 388.459 83.6258 388.997 83.6258 389.584V390.192H77.6898V390.576C77.6898 390.928 77.7431 391.259 77.8498 391.568C77.9671 391.867 78.1271 392.128 78.3298 392.352C78.5431 392.576 78.7991 392.752 79.0978 392.88C79.4071 393.008 79.7538 393.072 80.1378 393.072C80.6604 393.072 81.1138 392.949 81.4978 392.704C81.8924 392.459 82.1964 392.107 82.4098 391.648L83.3218 392.304C83.0551 392.869 82.6391 393.328 82.0738 393.68C81.5084 394.021 80.8364 394.192 80.0578 394.192ZM80.0578 386.624C79.7058 386.624 79.3858 386.688 79.0978 386.816C78.8098 386.933 78.5591 387.104 78.3458 387.328C78.1431 387.552 77.9831 387.819 77.8658 388.128C77.7484 388.427 77.6898 388.757 77.6898 389.12V389.232H82.2498V389.056C82.2498 388.32 82.0471 387.733 81.6418 387.296C81.2471 386.848 80.7191 386.624 80.0578 386.624ZM92.695 394.912C92.695 395.765 92.359 396.389 91.687 396.784C91.0257 397.189 90.0283 397.392 88.695 397.392C87.4043 397.392 86.4763 397.216 85.911 396.864C85.3457 396.512 85.063 396.011 85.063 395.36C85.063 394.912 85.1803 394.56 85.415 394.304C85.6497 394.059 85.9697 393.877 86.375 393.76V393.584C85.8843 393.349 85.639 392.965 85.639 392.432C85.639 392.016 85.7723 391.701 86.039 391.488C86.3057 391.264 86.647 391.099 87.063 390.992V390.928C86.5723 390.693 86.1883 390.357 85.911 389.92C85.6443 389.483 85.511 388.976 85.511 388.4C85.511 387.984 85.5857 387.6 85.735 387.248C85.8843 386.896 86.0923 386.597 86.359 386.352C86.6363 386.096 86.9617 385.899 87.335 385.76C87.719 385.621 88.1457 385.552 88.615 385.552C89.2017 385.552 89.7243 385.659 90.183 385.872V385.728C90.183 385.408 90.2577 385.147 90.407 384.944C90.5563 384.731 90.8017 384.624 91.143 384.624H92.375V385.744H90.807V386.272C91.1057 386.528 91.335 386.837 91.495 387.2C91.6657 387.552 91.751 387.952 91.751 388.4C91.751 388.816 91.6763 389.2 91.527 389.552C91.3777 389.904 91.1643 390.208 90.887 390.464C90.6203 390.709 90.295 390.901 89.911 391.04C89.527 391.179 89.1003 391.248 88.631 391.248C88.3643 391.248 88.0977 391.221 87.831 391.168C87.5537 391.243 87.303 391.355 87.079 391.504C86.855 391.643 86.743 391.84 86.743 392.096C86.743 392.341 86.8603 392.507 87.095 392.592C87.3297 392.677 87.6337 392.72 88.007 392.72H89.767C90.791 392.72 91.5323 392.917 91.991 393.312C92.4603 393.696 92.695 394.229 92.695 394.912ZM91.495 395.008C91.495 394.677 91.367 394.411 91.111 394.208C90.8657 394.016 90.423 393.92 89.783 393.92H87.031C86.519 394.155 86.263 394.528 86.263 395.04C86.263 395.403 86.3963 395.712 86.663 395.968C86.9403 396.224 87.4043 396.352 88.055 396.352H89.239C89.9537 396.352 90.5083 396.24 90.903 396.016C91.2977 395.792 91.495 395.456 91.495 395.008ZM88.631 390.224C89.175 390.224 89.607 390.096 89.927 389.84C90.247 389.573 90.407 389.168 90.407 388.624V388.176C90.407 387.632 90.247 387.232 89.927 386.976C89.607 386.709 89.175 386.576 88.631 386.576C88.087 386.576 87.655 386.709 87.335 386.976C87.015 387.232 86.855 387.632 86.855 388.176V388.624C86.855 389.168 87.015 389.573 87.335 389.84C87.655 390.096 88.087 390.224 88.631 390.224ZM97.1984 394.192C96.633 394.192 96.121 394.091 95.6624 393.888C95.2144 393.685 94.825 393.397 94.4944 393.024C94.1744 392.64 93.9237 392.187 93.7424 391.664C93.5717 391.131 93.4864 390.533 93.4864 389.872C93.4864 389.221 93.5717 388.629 93.7424 388.096C93.9237 387.563 94.1744 387.109 94.4944 386.736C94.825 386.352 95.2144 386.059 95.6624 385.856C96.121 385.653 96.633 385.552 97.1984 385.552C97.753 385.552 98.249 385.653 98.6864 385.856C99.1237 386.059 99.497 386.341 99.8064 386.704C100.116 387.056 100.35 387.477 100.51 387.968C100.681 388.459 100.766 388.997 100.766 389.584V390.192H94.8304V390.576C94.8304 390.928 94.8837 391.259 94.9904 391.568C95.1077 391.867 95.2677 392.128 95.4704 392.352C95.6837 392.576 95.9397 392.752 96.2384 392.88C96.5477 393.008 96.8944 393.072 97.2784 393.072C97.801 393.072 98.2544 392.949 98.6384 392.704C99.033 392.459 99.337 392.107 99.5504 391.648L100.462 392.304C100.196 392.869 99.7797 393.328 99.2144 393.68C98.649 394.021 97.977 394.192 97.1984 394.192ZM97.1984 386.624C96.8464 386.624 96.5264 386.688 96.2384 386.816C95.9504 386.933 95.6997 387.104 95.4864 387.328C95.2837 387.552 95.1237 387.819 95.0064 388.128C94.889 388.427 94.8304 388.757 94.8304 389.12V389.232H99.3904V389.056C99.3904 388.32 99.1877 387.733 98.7824 387.296C98.3877 386.848 97.8597 386.624 97.1984 386.624ZM104.7 394C104.252 394 103.91 393.877 103.676 393.632C103.452 393.376 103.34 393.045 103.34 392.64V386.864H101.98V385.744H102.748C103.025 385.744 103.212 385.691 103.308 385.584C103.414 385.467 103.468 385.269 103.468 384.992V383.456H104.62V385.744H106.428V386.864H104.62V392.88H106.3V394H104.7ZM114.746 394.192C113.978 394.192 113.333 394.048 112.81 393.76C112.298 393.461 111.856 393.067 111.482 392.576L112.394 391.84C112.714 392.245 113.072 392.56 113.466 392.784C113.861 392.997 114.32 393.104 114.842 393.104C115.386 393.104 115.808 392.987 116.106 392.752C116.416 392.517 116.57 392.187 116.57 391.76C116.57 391.44 116.464 391.168 116.25 390.944C116.048 390.709 115.674 390.549 115.13 390.464L114.474 390.368C114.09 390.315 113.738 390.235 113.418 390.128C113.098 390.011 112.816 389.861 112.57 389.68C112.336 389.488 112.149 389.253 112.01 388.976C111.882 388.699 111.818 388.368 111.818 387.984C111.818 387.579 111.893 387.227 112.042 386.928C112.192 386.619 112.394 386.363 112.65 386.16C112.917 385.957 113.232 385.808 113.594 385.712C113.957 385.605 114.346 385.552 114.762 385.552C115.434 385.552 115.994 385.669 116.442 385.904C116.901 386.139 117.301 386.464 117.642 386.88L116.794 387.648C116.613 387.392 116.346 387.163 115.994 386.96C115.642 386.747 115.2 386.64 114.666 386.64C114.133 386.64 113.728 386.757 113.45 386.992C113.184 387.216 113.05 387.525 113.05 387.92C113.05 388.325 113.184 388.619 113.45 388.8C113.728 388.981 114.122 389.115 114.634 389.2L115.274 389.296C116.192 389.435 116.842 389.701 117.226 390.096C117.61 390.48 117.802 390.987 117.802 391.616C117.802 392.416 117.53 393.045 116.986 393.504C116.442 393.963 115.696 394.192 114.746 394.192ZM123.183 394.192C122.628 394.192 122.122 394.091 121.663 393.888C121.204 393.685 120.81 393.397 120.479 393.024C120.159 392.64 119.908 392.187 119.727 391.664C119.546 391.131 119.455 390.533 119.455 389.872C119.455 389.221 119.546 388.629 119.727 388.096C119.908 387.563 120.159 387.109 120.479 386.736C120.81 386.352 121.204 386.059 121.663 385.856C122.122 385.653 122.628 385.552 123.183 385.552C123.738 385.552 124.239 385.653 124.687 385.856C125.146 386.059 125.54 386.352 125.871 386.736C126.202 387.109 126.458 387.563 126.639 388.096C126.82 388.629 126.911 389.221 126.911 389.872C126.911 390.533 126.82 391.131 126.639 391.664C126.458 392.187 126.202 392.64 125.871 393.024C125.54 393.397 125.146 393.685 124.687 393.888C124.239 394.091 123.738 394.192 123.183 394.192ZM123.183 393.056C123.876 393.056 124.442 392.843 124.879 392.416C125.316 391.989 125.535 391.339 125.535 390.464V389.28C125.535 388.405 125.316 387.755 124.879 387.328C124.442 386.901 123.876 386.688 123.183 386.688C122.49 386.688 121.924 386.901 121.487 387.328C121.05 387.755 120.831 388.405 120.831 389.28V390.464C120.831 391.339 121.05 391.989 121.487 392.416C121.924 392.843 122.49 393.056 123.183 393.056ZM130.715 394L127.819 385.744H129.099L130.539 389.84L131.435 392.656H131.515L132.411 389.84L133.883 385.744H135.115L132.203 394H130.715ZM139.745 394.192C139.18 394.192 138.668 394.091 138.209 393.888C137.761 393.685 137.372 393.397 137.041 393.024C136.721 392.64 136.471 392.187 136.289 391.664C136.119 391.131 136.033 390.533 136.033 389.872C136.033 389.221 136.119 388.629 136.289 388.096C136.471 387.563 136.721 387.109 137.041 386.736C137.372 386.352 137.761 386.059 138.209 385.856C138.668 385.653 139.18 385.552 139.745 385.552C140.3 385.552 140.796 385.653 141.233 385.856C141.671 386.059 142.044 386.341 142.353 386.704C142.663 387.056 142.897 387.477 143.057 387.968C143.228 388.459 143.313 388.997 143.313 389.584V390.192H137.377V390.576C137.377 390.928 137.431 391.259 137.537 391.568C137.655 391.867 137.815 392.128 138.017 392.352C138.231 392.576 138.487 392.752 138.785 392.88C139.095 393.008 139.441 393.072 139.825 393.072C140.348 393.072 140.801 392.949 141.185 392.704C141.58 392.459 141.884 392.107 142.097 391.648L143.009 392.304C142.743 392.869 142.327 393.328 141.761 393.68C141.196 394.021 140.524 394.192 139.745 394.192ZM139.745 386.624C139.393 386.624 139.073 386.688 138.785 386.816C138.497 386.933 138.247 387.104 138.033 387.328C137.831 387.552 137.671 387.819 137.553 388.128C137.436 388.427 137.377 388.757 137.377 389.12V389.232H141.937V389.056C141.937 388.32 141.735 387.733 141.329 387.296C140.935 386.848 140.407 386.624 139.745 386.624ZM145.423 394V385.744H146.703V387.264H146.783C146.932 386.869 147.199 386.517 147.583 386.208C147.967 385.899 148.495 385.744 149.167 385.744H149.663V387.024H148.911C148.217 387.024 147.673 387.157 147.279 387.424C146.895 387.68 146.703 388.005 146.703 388.4V394H145.423ZM155.079 382.16H156.359V389.664H156.423L157.687 388.256L160.023 385.744H161.575L158.519 389.008L161.879 394H160.327L157.591 389.792L156.359 391.056V394H155.079V382.16ZM169.438 394C168.958 394 168.611 393.872 168.398 393.616C168.195 393.36 168.067 393.04 168.014 392.656H167.934C167.753 393.168 167.454 393.552 167.038 393.808C166.622 394.064 166.126 394.192 165.55 394.192C164.675 394.192 163.993 393.968 163.502 393.52C163.022 393.072 162.782 392.464 162.782 391.696C162.782 390.917 163.065 390.32 163.63 389.904C164.206 389.488 165.097 389.28 166.302 389.28H167.934V388.464C167.934 387.877 167.774 387.429 167.454 387.12C167.134 386.811 166.643 386.656 165.982 386.656C165.481 386.656 165.059 386.768 164.718 386.992C164.387 387.216 164.11 387.515 163.886 387.888L163.118 387.168C163.342 386.72 163.699 386.341 164.19 386.032C164.681 385.712 165.299 385.552 166.046 385.552C167.049 385.552 167.827 385.797 168.382 386.288C168.937 386.779 169.214 387.461 169.214 388.336V392.88H170.158V394H169.438ZM165.758 393.104C166.078 393.104 166.371 393.067 166.638 392.992C166.905 392.917 167.134 392.811 167.326 392.672C167.518 392.533 167.667 392.373 167.774 392.192C167.881 392.011 167.934 391.813 167.934 391.6V390.24H166.238C165.502 390.24 164.963 390.347 164.622 390.56C164.291 390.773 164.126 391.083 164.126 391.488V391.824C164.126 392.229 164.27 392.544 164.558 392.768C164.857 392.992 165.257 393.104 165.758 393.104ZM173.809 394C173.361 394 173.02 393.877 172.785 393.632C172.561 393.376 172.449 393.045 172.449 392.64V386.864H171.089V385.744H171.857C172.134 385.744 172.321 385.691 172.417 385.584C172.524 385.467 172.577 385.269 172.577 384.992V383.456H173.729V385.744H175.537V386.864H173.729V392.88H175.409V394H173.809ZM179.278 394C178.83 394 178.488 393.877 178.254 393.632C178.03 393.376 177.918 393.045 177.918 392.64V386.864H176.558V385.744H177.326C177.603 385.744 177.79 385.691 177.886 385.584C177.992 385.467 178.046 385.269 178.046 384.992V383.456H179.198V385.744H181.006V386.864H179.198V392.88H180.878V394H179.278ZM186.105 394.192C185.539 394.192 185.027 394.091 184.569 393.888C184.121 393.685 183.731 393.397 183.401 393.024C183.081 392.64 182.83 392.187 182.649 391.664C182.478 391.131 182.393 390.533 182.393 389.872C182.393 389.221 182.478 388.629 182.649 388.096C182.83 387.563 183.081 387.109 183.401 386.736C183.731 386.352 184.121 386.059 184.569 385.856C185.027 385.653 185.539 385.552 186.105 385.552C186.659 385.552 187.155 385.653 187.593 385.856C188.03 386.059 188.403 386.341 188.713 386.704C189.022 387.056 189.257 387.477 189.417 387.968C189.587 388.459 189.673 388.997 189.673 389.584V390.192H183.737V390.576C183.737 390.928 183.79 391.259 183.897 391.568C184.014 391.867 184.174 392.128 184.377 392.352C184.59 392.576 184.846 392.752 185.145 392.88C185.454 393.008 185.801 393.072 186.185 393.072C186.707 393.072 187.161 392.949 187.545 392.704C187.939 392.459 188.243 392.107 188.457 391.648L189.369 392.304C189.102 392.869 188.686 393.328 188.121 393.68C187.555 394.021 186.883 394.192 186.105 394.192ZM186.105 386.624C185.753 386.624 185.433 386.688 185.145 386.816C184.857 386.933 184.606 387.104 184.393 387.328C184.19 387.552 184.03 387.819 183.913 388.128C183.795 388.427 183.737 388.757 183.737 389.12V389.232H188.297V389.056C188.297 388.32 188.094 387.733 187.689 387.296C187.294 386.848 186.766 386.624 186.105 386.624Z" fill="#004D99"/>
<path d="M40 396H190.425V396.96H40V396Z" fill="#004D99"/>
</g>
<rect x="16.5" y="16.5" width="394" height="407" rx="7.5" stroke="#DCDCDC"/>
<defs>
<clipPath id="clip0_14279_21471">
<rect x="16" y="16" width="395" height="408" rx="8" fill="white"/>
</clipPath>
</defs>
</svg>
