<svg width="267" height="150" viewBox="0 0 267 150" fill="none" xmlns="http://www.w3.org/2000/svg">
<mask id="path-1-inside-1_10643_18228" fill="white">
<path d="M0 0H267V150H0V0Z"/>
</mask>
<path d="M0 0H267V150H0V0Z" fill="#F5F5F5"/>
<path d="M267 149H0V151H267V149Z" fill="#F5F5F5" mask="url(#path-1-inside-1_10643_18228)"/>
<rect x="16" y="16" width="80" height="4" rx="2" fill="#44831E" fill-opacity="0.4"/>
<rect x="16" y="28" width="131" height="4" rx="2" fill="#44831E" fill-opacity="0.4"/>
<rect x="16" y="40" width="131" height="4" rx="2" fill="#44831E" fill-opacity="0.4"/>
<mask id="path-6-inside-2_10643_18228" fill="white">
<path d="M0 94H267V150H0V94Z"/>
</mask>
<path d="M0 94H267V150H0V94Z" fill="white"/>
<path d="M0 95H267V93H0V95Z" fill="#44831E" mask="url(#path-6-inside-2_10643_18228)"/>
<rect x="16" y="110" width="67.6667" height="8" rx="4" fill="#44831E"/>
<rect x="16" y="126" width="67.6667" height="8" rx="4" fill="#44831E"/>
<rect x="99.6665" y="110" width="67.6667" height="8" rx="4" fill="#44831E"/>
<rect x="99.6665" y="126" width="67.6667" height="8" rx="4" fill="#44831E"/>
<rect x="183.333" y="110" width="67.6667" height="8" rx="4" fill="#44831E"/>
<rect x="183.333" y="126" width="67.6667" height="8" rx="4" fill="#44831E"/>
</svg>
