<svg width="267" height="150" viewBox="0 0 267 150" fill="none" xmlns="http://www.w3.org/2000/svg">
<rect width="267" height="150" fill="#F5F5F5"/>
<rect x="39" y="18" width="80" height="8" rx="4" fill="#0059B3"/>
<rect x="39" y="42" width="80" height="8" rx="4" fill="#0059B3"/>
<rect x="39" y="66" width="80" height="8" rx="4" fill="#0059B3"/>
<rect x="39" y="90" width="80" height="8" rx="4" fill="#0059B3"/>
<rect x="143.5" y="106.5" width="107" height="27" rx="7.5" fill="white"/>
<rect x="143.5" y="106.5" width="107" height="27" rx="7.5" stroke="#0059B3"/>
<rect x="155" y="116" width="64" height="8" rx="4" fill="#0059B3"/>
<path d="M227 120C227 119.448 227.448 119 228 119H239.17L234.29 114.12C233.898 113.728 233.9 113.093 234.293 112.703C234.683 112.314 235.315 112.315 235.705 112.705L242.293 119.293C242.683 119.683 242.683 120.317 242.293 120.707L235.705 127.295C235.316 127.684 234.684 127.684 234.295 127.295C233.905 126.905 233.905 126.274 234.294 125.885L239.17 121H228C227.448 121 227 120.552 227 120Z" fill="#0059B3"/>
<path d="M27.8177 100.177C27.3377 100.177 26.9803 100.06 26.7457 99.8249C26.5217 99.5795 26.4097 99.2702 26.4097 98.8969V98.5769C26.4097 98.2035 26.5217 97.8995 26.7457 97.6649C26.9803 97.4195 27.3377 97.2969 27.8177 97.2969C28.2977 97.2969 28.6497 97.4195 28.8737 97.6649C29.1083 97.8995 29.2257 98.2035 29.2257 98.5769V98.8969C29.2257 99.2702 29.1083 99.5795 28.8737 99.8249C28.6497 100.06 28.2977 100.177 27.8177 100.177Z" fill="#0059B3"/>
<path d="M22.1361 100C21.5838 100 21.1361 99.5523 21.1361 99V98.156C21.1361 97.9903 21.0018 97.856 20.8361 97.856H17.2241C16.6718 97.856 16.2241 97.4083 16.2241 96.856V96.0944C16.2241 95.9072 16.2766 95.7239 16.3757 95.5651L20.2825 89.3027C20.4651 89.01 20.7858 88.832 21.1309 88.832H22.4241C22.9764 88.832 23.4241 89.2797 23.4241 89.832V95.7C23.4241 95.8657 23.5584 96 23.7241 96H23.9041C24.4166 96 24.8321 96.4155 24.8321 96.928C24.8321 97.4406 24.4166 97.856 23.9041 97.856H23.7241C23.5584 97.856 23.4241 97.9903 23.4241 98.156V99C23.4241 99.5523 22.9764 100 22.4241 100H22.1361ZM18.4191 95.5449C18.2983 95.7448 18.4422 96 18.6758 96H20.8361C21.0018 96 21.1361 95.8657 21.1361 95.7V91.4143C21.1361 91.3578 21.0903 91.312 21.0338 91.312C20.998 91.312 20.9648 91.3308 20.9463 91.3614L18.4191 95.5449Z" fill="#0059B3"/>
<path d="M27.8177 76.1769C27.3377 76.1769 26.9803 76.0595 26.7457 75.8249C26.5217 75.5795 26.4097 75.2702 26.4097 74.8969V74.5769C26.4097 74.2035 26.5217 73.8995 26.7457 73.6649C26.9803 73.4195 27.3377 73.2969 27.8177 73.2969C28.2977 73.2969 28.6497 73.4195 28.8737 73.6649C29.1083 73.8995 29.2257 74.2035 29.2257 74.5769V74.8969C29.2257 75.2702 29.1083 75.5795 28.8737 75.8249C28.6497 76.0595 28.2977 76.1769 27.8177 76.1769Z" fill="#0059B3"/>
<path d="M19.936 69.2486C20.5333 69.2486 20.9653 69.1366 21.232 68.9126C21.5093 68.678 21.648 68.39 21.648 68.0486V67.9366C21.648 67.5313 21.5147 67.206 21.248 66.9606C20.992 66.7153 20.624 66.5926 20.144 66.5926C19.696 66.5926 19.2747 66.71 18.88 66.9446C18.8086 66.9851 18.7392 67.029 18.6716 67.0761C18.1712 67.4254 17.4631 67.5378 17.0177 67.1208C16.6491 66.7758 16.596 66.199 16.9606 65.8498C16.9921 65.8196 17.0239 65.7899 17.056 65.7606C17.3013 65.526 17.5787 65.3286 17.888 65.1686C18.1973 64.998 18.544 64.87 18.928 64.7846C19.312 64.6886 19.744 64.6406 20.224 64.6406C20.8213 64.6406 21.36 64.71 21.84 64.8486C22.3307 64.9873 22.7467 65.19 23.088 65.4566C23.44 65.7126 23.7067 66.022 23.888 66.3846C24.08 66.7473 24.176 67.1526 24.176 67.6006C24.176 67.9526 24.1173 68.2726 24 68.5606C23.8933 68.8486 23.7387 69.0993 23.536 69.3126C23.344 69.526 23.12 69.702 22.864 69.8406C22.6221 69.9616 22.3658 70.0492 22.0953 70.1035C22.0679 70.109 22.048 70.1329 22.048 70.1608C22.048 70.1886 22.0677 70.2124 22.0949 70.218C22.4075 70.2828 22.6958 70.3864 22.96 70.5286C23.248 70.6673 23.4933 70.8486 23.696 71.0726C23.9093 71.2966 24.0747 71.5633 24.192 71.8726C24.3093 72.1713 24.368 72.5126 24.368 72.8966C24.368 73.398 24.2667 73.8513 24.064 74.2566C23.8613 74.662 23.5733 75.0086 23.2 75.2966C22.8267 75.5846 22.3787 75.8086 21.856 75.9686C21.3333 76.118 20.7573 76.1926 20.128 76.1926C19.5627 76.1926 19.0613 76.134 18.624 76.0166C18.1867 75.8993 17.8027 75.7446 17.472 75.5526C17.152 75.35 16.8693 75.1206 16.624 74.8646C16.5966 74.8347 16.5695 74.8046 16.5429 74.7743C16.203 74.3878 16.3103 73.8082 16.7171 73.493L16.8401 73.3977C17.3295 73.0185 18.0335 73.1879 18.4722 73.6248C18.5368 73.6891 18.6034 73.7504 18.672 73.8086C19.0347 74.0966 19.52 74.2406 20.128 74.2406C20.672 74.2406 21.0933 74.1073 21.392 73.8406C21.7013 73.5633 21.856 73.19 21.856 72.7206V72.6246C21.856 72.166 21.68 71.8246 21.328 71.6006C20.9867 71.366 20.512 71.2486 19.904 71.2486C19.3517 71.2486 18.896 70.8009 18.896 70.2486C18.896 69.6963 19.3437 69.2486 19.896 69.2486H19.936Z" fill="#0059B3"/>
<path d="M27.8177 52.1769C27.3377 52.1769 26.9803 52.0595 26.7457 51.8249C26.5217 51.5795 26.4097 51.2702 26.4097 50.8969V50.5769C26.4097 50.2035 26.5217 49.8995 26.7457 49.6649C26.9803 49.4195 27.3377 49.2969 27.8177 49.2969C28.2977 49.2969 28.6497 49.4195 28.8737 49.6649C29.1083 49.8995 29.2257 50.2035 29.2257 50.5769V50.8969C29.2257 51.2702 29.1083 51.5795 28.8737 51.8249C28.6497 52.0595 28.2977 52.1769 27.8177 52.1769Z" fill="#0059B3"/>
<path d="M24.56 50.9926C24.56 51.5449 24.1123 52.0006 23.56 52.0006H17.656C17.1037 52.0006 16.656 51.5529 16.656 51.0006V50.269C16.656 49.9768 16.7838 49.6993 17.0058 49.5093L20.096 46.8646C20.4053 46.598 20.6667 46.358 20.88 46.1446C21.0933 45.9206 21.264 45.7073 21.392 45.5046C21.5307 45.2913 21.6267 45.0833 21.68 44.8806C21.744 44.678 21.776 44.4593 21.776 44.2246V44.0006C21.776 43.7873 21.7333 43.6006 21.648 43.4406C21.5627 43.2806 21.4507 43.1473 21.312 43.0406C21.1733 42.934 21.0133 42.854 20.832 42.8006C20.6613 42.7473 20.4853 42.7206 20.304 42.7206C20.0373 42.7206 19.8027 42.7633 19.6 42.8486C19.408 42.934 19.2373 43.0513 19.088 43.2006C18.9493 43.3393 18.832 43.5046 18.736 43.6966C18.5781 43.9949 18.2345 44.1827 17.9192 44.0624L17.3111 43.8302C16.8107 43.6393 16.5405 43.0801 16.81 42.6172C16.8526 42.5441 16.8972 42.4719 16.944 42.4006C17.168 42.0486 17.4453 41.7446 17.776 41.4886C18.1173 41.222 18.5173 41.014 18.976 40.8646C19.4347 40.7153 19.952 40.6406 20.528 40.6406C21.136 40.6406 21.6747 40.726 22.144 40.8966C22.6133 41.0673 23.008 41.302 23.328 41.6006C23.6587 41.8993 23.9093 42.2566 24.08 42.6726C24.2507 43.078 24.336 43.5206 24.336 44.0006C24.336 44.4806 24.256 44.918 24.096 45.3126C23.936 45.7073 23.7173 46.0806 23.44 46.4326C23.1733 46.774 22.8587 47.0993 22.496 47.4086C22.1333 47.718 21.7547 48.0326 21.36 48.3526L19.28 49.9846H23.56C24.1123 49.9846 24.56 50.4403 24.56 50.9926Z" fill="#0059B3"/>
<path d="M27.8177 28.1769C27.3377 28.1769 26.9803 28.0595 26.7457 27.8249C26.5217 27.5795 26.4097 27.2702 26.4097 26.8969V26.5769C26.4097 26.2035 26.5217 25.8995 26.7457 25.6649C26.9803 25.4195 27.3377 25.2969 27.8177 25.2969C28.2977 25.2969 28.6497 25.4195 28.8737 25.6649C29.1083 25.8995 29.2257 26.2035 29.2257 26.5769V26.8969C29.2257 27.2702 29.1083 27.5795 28.8737 27.8249C28.6497 28.0595 28.2977 28.1769 27.8177 28.1769Z" fill="#0059B3"/>
<path d="M18.2162 28C17.6816 28 17.2482 27.5666 17.2482 27.032C17.2482 26.4974 17.6816 26.064 18.2162 26.064H20.2562V18.6724C20.2562 18.6192 20.2131 18.576 20.1599 18.576C20.1298 18.576 20.1015 18.59 20.0833 18.6139L18.439 20.7677C18.1094 21.1994 17.4906 21.2789 17.0626 20.9445C16.642 20.616 16.5634 20.0106 16.8861 19.5855L18.6761 17.2274C18.8652 16.9783 19.1599 16.832 19.4726 16.832H21.6562C22.2085 16.832 22.6562 17.2797 22.6562 17.832V26.064H24.0562C24.5908 26.064 25.0242 26.4974 25.0242 27.032C25.0242 27.5666 24.5908 28 24.0562 28H18.2162Z" fill="#0059B3"/>
</svg>
