<svg width="267" height="150" viewBox="0 0 267 150" fill="none" xmlns="http://www.w3.org/2000/svg">
<rect width="267" height="150" fill="#F5F5F5"/>
<rect x="68" y="37" width="58" height="16" rx="4" fill="#0059B3"/>
<rect x="68" y="61" width="131" height="8" rx="4" fill="#0059B3"/>
<rect x="68" y="80" width="131" height="8" rx="4" fill="#0059B3"/>
<rect x="68" y="99" width="131" height="8" rx="4" fill="#0059B3"/>
<rect x="68" y="71" width="131" height="1" rx="0.5" fill="#0059B3"/>
<rect x="68" y="90" width="131" height="1" rx="0.5" fill="#0059B3"/>
<rect x="68" y="109" width="131" height="1" rx="0.5" fill="#0059B3"/>
<path d="M224 61C224 60.4477 223.552 60 223 60C222.448 60 222 60.4477 222 61H224ZM222.293 125.707C222.683 126.098 223.317 126.098 223.707 125.707L230.071 119.343C230.462 118.953 230.462 118.319 230.071 117.929C229.681 117.538 229.047 117.538 228.657 117.929L223 123.586L217.343 117.929C216.953 117.538 216.319 117.538 215.929 117.929C215.538 118.319 215.538 118.953 215.929 119.343L222.293 125.707ZM222 61V125H224V61H222Z" fill="#0059B3"/>
</svg>
