<svg width="267" height="150" viewBox="0 0 267 150" fill="none" xmlns="http://www.w3.org/2000/svg">
<rect width="267" height="150" fill="#F5F5F5"/>
<path d="M47.7074 108.703C48.1003 109.093 48.1018 109.728 47.7103 110.12L43.8299 114L47.7103 117.88C48.1018 118.272 48.1003 118.907 47.7074 119.297C47.3165 119.686 46.6849 119.685 46.2953 119.295L41.707 114.707C41.3165 114.317 41.3165 113.683 41.707 113.293L46.2953 108.705C46.6849 108.315 47.3165 108.314 47.7074 108.703Z" fill="#0059B3"/>
<rect x="65.5" y="94.5" width="39" height="39" rx="19.5" fill="white"/>
<rect x="65.5" y="94.5" width="39" height="39" rx="19.5" stroke="#0059B3"/>
<rect x="77" y="110" width="16" height="8" rx="4" fill="#0059B3"/>
<rect x="113" y="94" width="40" height="40" rx="20" fill="#0059B3"/>
<rect x="125" y="110" width="16" height="8" rx="4" fill="white"/>
<rect x="161.5" y="94.5" width="39" height="39" rx="19.5" fill="white"/>
<rect x="161.5" y="94.5" width="39" height="39" rx="19.5" stroke="#0059B3"/>
<rect x="173" y="110" width="16" height="8" rx="4" fill="#0059B3"/>
<path d="M218.293 119.297C217.9 118.907 217.898 118.272 218.29 117.88L222.17 114L218.29 110.12C217.898 109.728 217.9 109.093 218.293 108.703C218.684 108.314 219.315 108.315 219.705 108.705L224.293 113.293C224.683 113.683 224.683 114.317 224.293 114.707L219.705 119.295C219.315 119.685 218.684 119.686 218.293 119.297Z" fill="#0059B3"/>
</svg>
