<svg width="267" height="150" viewBox="0 0 267 150" fill="none" xmlns="http://www.w3.org/2000/svg">
<rect width="267" height="150" fill="#F5F5F5"/>
<rect x="59.5" y="47.5" width="148" height="55" rx="7.5" fill="white"/>
<rect x="59.5" y="47.5" width="148" height="55" rx="7.5" stroke="#0059B3" stroke-dasharray="4 4"/>
<path d="M133.5 83C132.948 83 132.5 82.5523 132.5 82L132.5 70.83L127.62 75.7104C127.228 76.1019 126.593 76.1004 126.203 75.7075C125.814 75.3166 125.815 74.6849 126.205 74.2954L132.793 67.7071C133.183 67.3166 133.817 67.3166 134.207 67.7071L140.795 74.2947C141.184 74.6842 141.184 75.3158 140.795 75.7053C140.405 76.0946 139.774 76.0949 139.385 75.7059L134.5 70.83L134.5 82C134.5 82.5523 134.052 83 133.5 83Z" fill="#0059B3"/>
</svg>
