<svg width="1034" height="766" viewBox="0 0 1034 766" fill="none" xmlns="http://www.w3.org/2000/svg">
<rect x="78" y="19" width="945" height="1" fill="#454545"/>
<rect x="78" y="110" width="945" height="1" fill="#454545"/>
<rect x="78" y="201" width="945" height="1" fill="#454545"/>
<rect x="78" y="383" width="945" height="1" fill="#454545"/>
<rect x="78" y="474" width="945" height="1" fill="#454545"/>
<rect x="78" y="565" width="945" height="1" fill="#454545"/>
<rect x="78" y="292" width="945" height="1" fill="#454545"/>
<path d="M103 566L201 384L301 473L504 108L699 292L803 201H1008" stroke="#747474" stroke-width="5" stroke-linecap="round"/>
<path d="M105 545L109.715 559.511H124.972L112.629 568.479L117.343 582.989L105 574.021L92.6565 582.989L97.3713 568.479L85.0278 559.511H100.285L105 545Z" fill="#747474"/>
<path d="M202 361L206.715 375.511H221.972L209.629 384.479L214.343 398.989L202 390.021L189.657 398.989L194.371 384.479L182.028 375.511H197.285L202 361Z" fill="#747474"/>
<path d="M505 85L509.715 99.5106H524.972L512.629 108.479L517.343 122.989L505 114.021L492.657 122.989L497.371 108.479L485.028 99.5106H500.285L505 85Z" fill="#747474"/>
<path d="M800 179L804.715 193.511H819.972L807.629 202.479L812.343 216.989L800 208.021L787.657 216.989L792.371 202.479L780.028 193.511H795.285L800 179Z" fill="#747474"/>
<path d="M1006 179L1010.71 193.511H1025.97L1013.63 202.479L1018.34 216.989L1006 208.021L993.657 216.989L998.371 202.479L986.028 193.511H1001.29L1006 179Z" fill="#747474"/>
<path d="M701 278L705.715 292.511H720.972L708.629 301.479L713.343 315.989L701 307.021L688.657 315.989L693.371 301.479L681.028 292.511H696.285L701 278Z" fill="#747474"/>
<path d="M301 451L305.715 465.511H320.972L308.629 474.479L313.343 488.989L301 480.021L288.657 488.989L293.371 474.479L281.028 465.511H296.285L301 451Z" fill="#747474"/>
<path d="M105 294H199L301 385L406 561L506 294L605 20L698 294H807L908 116L1005 377" stroke="#747474" stroke-width="5" stroke-dasharray="8 8"/>
<rect x="621.426" y="22.2131" width="25" height="25" transform="rotate(135 621.426 22.2131)" fill="#747474"/>
<rect x="719.355" y="281.678" width="25" height="25" transform="rotate(135 719.355 281.678)" fill="#747474"/>
<rect x="823.355" y="289.678" width="25" height="25" transform="rotate(135 823.355 289.678)" fill="#747474"/>
<rect x="1023.36" y="376.678" width="25" height="25" transform="rotate(135 1023.36 376.678)" fill="#747474"/>
<rect x="927.355" y="112.678" width="25" height="25" transform="rotate(135 927.355 112.678)" fill="#747474"/>
<rect x="420.355" y="560.678" width="25" height="25" transform="rotate(135 420.355 560.678)" fill="#747474"/>
<rect x="319.355" y="384.678" width="25" height="25" transform="rotate(135 319.355 384.678)" fill="#747474"/>
<rect x="219.355" y="292.678" width="25" height="25" transform="rotate(135 219.355 292.678)" fill="#747474"/>
<rect x="123.355" y="292.678" width="25" height="25" transform="rotate(135 123.355 292.678)" fill="#747474"/>
<rect x="185.357" y="745.678" width="25" height="25" transform="rotate(135 185.357 745.678)" fill="#747474"/>
<line x1="78" y1="745.5" x2="259.003" y2="745.5" stroke="#747474" stroke-width="5" stroke-dasharray="8 8"/>
<path d="M577 724L581.715 738.511H596.972L584.629 747.479L589.343 761.989L577 753.021L564.657 761.989L569.371 747.479L557.028 738.511H572.285L577 724Z" fill="#747474"/>
<line x1="486" y1="745.5" x2="667.003" y2="745.5" stroke="#747474" stroke-width="5"/>
<path d="M285.98 752.24C289.32 752.24 291.22 750.44 291.22 747.8C291.22 745.5 289.9 744.24 287.08 743.74L285.78 743.5C284.44 743.26 283.84 742.82 283.84 741.76C283.84 740.72 284.62 740.12 286.12 740.12C287.6 740.12 288.56 740.7 289.24 741.56L291.04 739.86C289.92 738.52 288.36 737.8 286.26 737.8C283.14 737.8 281.2 739.42 281.2 741.92C281.2 744.2 282.56 745.54 285.38 745.98L286.7 746.18C288.16 746.44 288.6 747.02 288.6 747.96C288.6 749.14 287.76 749.92 286.14 749.92C284.7 749.92 283.52 749.32 282.56 748.2L280.78 749.92C281.96 751.3 283.6 752.24 285.98 752.24ZM297.927 752.24C299.867 752.24 301.387 751.5 302.247 750.32L300.867 748.78C300.227 749.6 299.467 750.2 298.207 750.2C296.527 750.2 295.667 749.18 295.667 747.68V747.42H302.607V746.58C302.607 743.72 301.107 741.32 297.847 741.32C294.787 741.32 293.007 743.46 293.007 746.76C293.007 750.1 294.847 752.24 297.927 752.24ZM297.887 743.24C299.207 743.24 299.947 744.22 299.947 745.66V745.84H295.667V745.68C295.667 744.24 296.547 743.24 297.887 743.24ZM314.279 752.88C314.279 751 313.179 749.9 310.619 749.9H307.819C306.899 749.9 306.459 749.64 306.459 749.12C306.459 748.66 306.799 748.36 307.199 748.18C307.659 748.3 308.199 748.36 308.799 748.36C311.639 748.36 313.119 746.96 313.119 744.86C313.119 743.58 312.579 742.56 311.499 741.96V741.68H313.719V739.72H312.099C311.139 739.72 310.619 740.22 310.619 741.24V741.58C310.099 741.4 309.439 741.32 308.799 741.32C305.979 741.32 304.479 742.74 304.479 744.86C304.479 746.24 305.119 747.32 306.379 747.9V747.98C305.379 748.2 304.459 748.74 304.459 749.82C304.459 750.66 304.939 751.34 305.799 751.56V751.78C304.639 751.96 303.939 752.62 303.939 753.78C303.939 755.32 305.279 756.24 308.799 756.24C312.799 756.24 314.279 755.06 314.279 752.88ZM311.879 753.18C311.879 754.06 311.139 754.48 309.479 754.48H308.199C306.599 754.48 305.999 754 305.999 753.2C305.999 752.78 306.159 752.4 306.539 752.12H310.099C311.399 752.12 311.879 752.52 311.879 753.18ZM308.799 746.62C307.579 746.62 306.919 746.06 306.919 745.02V744.68C306.919 743.62 307.579 743.08 308.799 743.08C310.019 743.08 310.679 743.62 310.679 744.68V745.02C310.679 746.06 310.019 746.62 308.799 746.62ZM318.317 752V745.1C318.317 743.98 319.277 743.42 320.257 743.42C321.397 743.42 321.937 744.16 321.937 745.66V752H324.497V745.1C324.497 743.98 325.437 743.42 326.437 743.42C327.577 743.42 328.117 744.16 328.117 745.66V752H330.677V745.4C330.677 742.8 329.517 741.32 327.477 741.32C325.817 741.32 324.657 742.26 324.277 743.42H324.237C323.737 742.02 322.637 741.32 321.217 741.32C319.657 741.32 318.817 742.2 318.417 743.3H318.317V741.56H315.757V752H318.317ZM337.731 752.24C339.671 752.24 341.191 751.5 342.051 750.32L340.671 748.78C340.031 749.6 339.271 750.2 338.011 750.2C336.331 750.2 335.471 749.18 335.471 747.68V747.42H342.411V746.58C342.411 743.72 340.911 741.32 337.651 741.32C334.591 741.32 332.811 743.46 332.811 746.76C332.811 750.1 334.651 752.24 337.731 752.24ZM337.691 743.24C339.011 743.24 339.751 744.22 339.751 745.66V745.84H335.471V745.68C335.471 744.24 336.351 743.24 337.691 743.24ZM347.224 752V745.1C347.224 743.98 348.244 743.42 349.304 743.42C350.524 743.42 351.024 744.18 351.024 745.66V752H353.584V745.4C353.584 742.8 352.384 741.32 350.244 741.32C348.624 741.32 347.744 742.18 347.324 743.3H347.224V741.56H344.664V752H347.224ZM359.681 752H361.521V749.96H359.541V743.6H361.681V741.56H359.541V738.7H357.241V740.48C357.241 741.2 357.001 741.56 356.241 741.56H355.441V743.6H356.981V749.34C356.981 751.04 357.921 752 359.681 752ZM378.588 752V749.86H375.388V738.04H371.408L367.948 742.16L369.588 743.54L372.628 739.94H372.808V749.86H368.968V752H378.588Z" fill="black"/>
<path d="M693.98 752.24C697.32 752.24 699.22 750.44 699.22 747.8C699.22 745.5 697.9 744.24 695.08 743.74L693.78 743.5C692.44 743.26 691.84 742.82 691.84 741.76C691.84 740.72 692.62 740.12 694.12 740.12C695.6 740.12 696.56 740.7 697.24 741.56L699.04 739.86C697.92 738.52 696.36 737.8 694.26 737.8C691.14 737.8 689.2 739.42 689.2 741.92C689.2 744.2 690.56 745.54 693.38 745.98L694.7 746.18C696.16 746.44 696.6 747.02 696.6 747.96C696.6 749.14 695.76 749.92 694.14 749.92C692.7 749.92 691.52 749.32 690.56 748.2L688.78 749.92C689.96 751.3 691.6 752.24 693.98 752.24ZM705.927 752.24C707.867 752.24 709.387 751.5 710.247 750.32L708.867 748.78C708.227 749.6 707.467 750.2 706.207 750.2C704.527 750.2 703.667 749.18 703.667 747.68V747.42H710.607V746.58C710.607 743.72 709.107 741.32 705.847 741.32C702.787 741.32 701.007 743.46 701.007 746.76C701.007 750.1 702.847 752.24 705.927 752.24ZM705.887 743.24C707.207 743.24 707.947 744.22 707.947 745.66V745.84H703.667V745.68C703.667 744.24 704.547 743.24 705.887 743.24ZM722.279 752.88C722.279 751 721.179 749.9 718.619 749.9H715.819C714.899 749.9 714.459 749.64 714.459 749.12C714.459 748.66 714.799 748.36 715.199 748.18C715.659 748.3 716.199 748.36 716.799 748.36C719.639 748.36 721.119 746.96 721.119 744.86C721.119 743.58 720.579 742.56 719.499 741.96V741.68H721.719V739.72H720.099C719.139 739.72 718.619 740.22 718.619 741.24V741.58C718.099 741.4 717.439 741.32 716.799 741.32C713.979 741.32 712.479 742.74 712.479 744.86C712.479 746.24 713.119 747.32 714.379 747.9V747.98C713.379 748.2 712.459 748.74 712.459 749.82C712.459 750.66 712.939 751.34 713.799 751.56V751.78C712.639 751.96 711.939 752.62 711.939 753.78C711.939 755.32 713.279 756.24 716.799 756.24C720.799 756.24 722.279 755.06 722.279 752.88ZM719.879 753.18C719.879 754.06 719.139 754.48 717.479 754.48H716.199C714.599 754.48 713.999 754 713.999 753.2C713.999 752.78 714.159 752.4 714.539 752.12H718.099C719.399 752.12 719.879 752.52 719.879 753.18ZM716.799 746.62C715.579 746.62 714.919 746.06 714.919 745.02V744.68C714.919 743.62 715.579 743.08 716.799 743.08C718.019 743.08 718.679 743.62 718.679 744.68V745.02C718.679 746.06 718.019 746.62 716.799 746.62ZM726.317 752V745.1C726.317 743.98 727.277 743.42 728.257 743.42C729.397 743.42 729.937 744.16 729.937 745.66V752H732.497V745.1C732.497 743.98 733.437 743.42 734.437 743.42C735.577 743.42 736.117 744.16 736.117 745.66V752H738.677V745.4C738.677 742.8 737.517 741.32 735.477 741.32C733.817 741.32 732.657 742.26 732.277 743.42H732.237C731.737 742.02 730.637 741.32 729.217 741.32C727.657 741.32 726.817 742.2 726.417 743.3H726.317V741.56H723.757V752H726.317ZM745.731 752.24C747.671 752.24 749.191 751.5 750.051 750.32L748.671 748.78C748.031 749.6 747.271 750.2 746.011 750.2C744.331 750.2 743.471 749.18 743.471 747.68V747.42H750.411V746.58C750.411 743.72 748.911 741.32 745.651 741.32C742.591 741.32 740.811 743.46 740.811 746.76C740.811 750.1 742.651 752.24 745.731 752.24ZM745.691 743.24C747.011 743.24 747.751 744.22 747.751 745.66V745.84H743.471V745.68C743.471 744.24 744.351 743.24 745.691 743.24ZM755.224 752V745.1C755.224 743.98 756.244 743.42 757.304 743.42C758.524 743.42 759.024 744.18 759.024 745.66V752H761.584V745.4C761.584 742.8 760.384 741.32 758.244 741.32C756.624 741.32 755.744 742.18 755.324 743.3H755.224V741.56H752.664V752H755.224ZM767.681 752H769.521V749.96H767.541V743.6H769.681V741.56H767.541V738.7H765.241V740.48C765.241 741.2 765.001 741.56 764.241 741.56H763.441V743.6H764.981V749.34C764.981 751.04 765.921 752 767.681 752ZM786.068 749.78H779.248L782.188 747.36C784.128 745.76 785.708 744.28 785.708 741.96C785.708 739.56 784.028 737.8 781.088 737.8C778.248 737.8 776.748 739.42 776.148 741.28L778.428 742.16C778.748 741.02 779.428 740.08 780.868 740.08C782.008 740.08 782.928 740.76 782.928 741.98V742.24C782.928 743.46 782.248 744.42 780.768 745.72L776.388 749.56V752H786.068V749.78Z" fill="black"/>
<path d="M785.176 617.52H777.836L781.596 614.14C783.376 612.54 784.656 611.02 784.656 608.86C784.656 606.48 783.096 604.8 780.376 604.8C777.676 604.8 776.436 606.44 775.896 608.08L777.396 608.66C777.776 607.34 778.576 606.3 780.296 606.3C782.016 606.3 782.876 607.36 782.876 608.9V609.14C782.876 610.48 781.876 611.88 780.576 613.08L776.016 617.28V619H785.176V617.52ZM792.508 619.24C795.848 619.24 797.308 616.58 797.308 612.02C797.308 607.46 795.848 604.8 792.508 604.8C789.168 604.8 787.708 607.46 787.708 612.02C787.708 616.58 789.168 619.24 792.508 619.24ZM792.508 617.78C790.328 617.78 789.468 615.86 789.468 613.16V610.88C789.468 608.18 790.328 606.26 792.508 606.26C794.688 606.26 795.548 608.18 795.548 610.88V613.16C795.548 615.86 794.688 617.78 792.508 617.78ZM809.44 619V617.52H805.84V605.04H803.22L799.52 608.5L800.5 609.56L804.02 606.28H804.16V617.52H800.26V619H809.44ZM815.792 619L821.032 606.52V605.04H811.872V609.08H813.372V606.48H819.332L813.992 619H815.792Z" fill="black"/>
<path d="M983.176 617.52H975.836L979.596 614.14C981.376 612.54 982.656 611.02 982.656 608.86C982.656 606.48 981.096 604.8 978.376 604.8C975.676 604.8 974.436 606.44 973.896 608.08L975.396 608.66C975.776 607.34 976.576 606.3 978.296 606.3C980.016 606.3 980.876 607.36 980.876 608.9V609.14C980.876 610.48 979.876 611.88 978.576 613.08L974.016 617.28V619H983.176V617.52ZM990.508 619.24C993.848 619.24 995.308 616.58 995.308 612.02C995.308 607.46 993.848 604.8 990.508 604.8C987.168 604.8 985.708 607.46 985.708 612.02C985.708 616.58 987.168 619.24 990.508 619.24ZM990.508 617.78C988.328 617.78 987.468 615.86 987.468 613.16V610.88C987.468 608.18 988.328 606.26 990.508 606.26C992.688 606.26 993.548 608.18 993.548 610.88V613.16C993.548 615.86 992.688 617.78 990.508 617.78ZM1007.44 619V617.52H1003.84V605.04H1001.22L997.52 608.5L998.5 609.56L1002.02 606.28H1002.16V617.52H998.26V619H1007.44ZM1019.15 610.16C1019.15 606.84 1017.37 604.8 1014.47 604.8C1011.67 604.8 1009.83 606.68 1009.83 609.42C1009.83 612.06 1011.55 613.72 1013.95 613.72C1015.65 613.72 1016.65 612.86 1017.31 611.72L1017.41 611.76C1016.65 615 1014.99 616.82 1012.01 619H1014.17C1016.41 617.54 1019.15 614.3 1019.15 610.16ZM1014.49 612.3C1012.65 612.3 1011.57 611.24 1011.57 609.36V609.2C1011.57 607.32 1012.65 606.26 1014.49 606.26C1016.33 606.26 1017.41 607.32 1017.41 609.2V609.36C1017.41 611.24 1016.33 612.3 1014.49 612.3Z" fill="black"/>
<path d="M884.176 617.52H876.836L880.596 614.14C882.376 612.54 883.656 611.02 883.656 608.86C883.656 606.48 882.096 604.8 879.376 604.8C876.676 604.8 875.436 606.44 874.896 608.08L876.396 608.66C876.776 607.34 877.576 606.3 879.296 606.3C881.016 606.3 881.876 607.36 881.876 608.9V609.14C881.876 610.48 880.876 611.88 879.576 613.08L875.016 617.28V619H884.176V617.52ZM891.508 619.24C894.848 619.24 896.308 616.58 896.308 612.02C896.308 607.46 894.848 604.8 891.508 604.8C888.168 604.8 886.708 607.46 886.708 612.02C886.708 616.58 888.168 619.24 891.508 619.24ZM891.508 617.78C889.328 617.78 888.468 615.86 888.468 613.16V610.88C888.468 608.18 889.328 606.26 891.508 606.26C893.688 606.26 894.548 608.18 894.548 610.88V613.16C894.548 615.86 893.688 617.78 891.508 617.78ZM908.44 619V617.52H904.84V605.04H902.22L898.52 608.5L899.5 609.56L903.02 606.28H903.16V617.52H899.26V619H908.44ZM915.492 619.24C918.672 619.24 920.332 617.5 920.332 615.2C920.332 613.3 919.192 612.2 917.512 611.74V611.58C918.972 611.08 919.912 609.9 919.912 608.3C919.912 606.18 918.272 604.8 915.492 604.8C912.712 604.8 911.072 606.18 911.072 608.3C911.072 609.9 912.012 611.08 913.472 611.58V611.74C911.792 612.2 910.652 613.3 910.652 615.2C910.652 617.5 912.312 619.24 915.492 619.24ZM915.492 617.78C913.552 617.78 912.432 616.86 912.432 615.28V614.86C912.432 613.28 913.552 612.36 915.492 612.36C917.432 612.36 918.552 613.28 918.552 614.86V615.28C918.552 616.86 917.432 617.78 915.492 617.78ZM915.492 610.96C913.752 610.96 912.812 610.18 912.812 608.76V608.46C912.812 607.04 913.752 606.26 915.492 606.26C917.232 606.26 918.172 607.04 918.172 608.46V608.76C918.172 610.18 917.232 610.96 915.492 610.96Z" fill="black"/>
<path d="M191.176 617.52H183.836L187.596 614.14C189.376 612.54 190.656 611.02 190.656 608.86C190.656 606.48 189.096 604.8 186.376 604.8C183.676 604.8 182.436 606.44 181.896 608.08L183.396 608.66C183.776 607.34 184.576 606.3 186.296 606.3C188.016 606.3 188.876 607.36 188.876 608.9V609.14C188.876 610.48 187.876 611.88 186.576 613.08L182.016 617.28V619H191.176V617.52ZM198.508 619.24C201.848 619.24 203.308 616.58 203.308 612.02C203.308 607.46 201.848 604.8 198.508 604.8C195.168 604.8 193.708 607.46 193.708 612.02C193.708 616.58 195.168 619.24 198.508 619.24ZM198.508 617.78C196.328 617.78 195.468 615.86 195.468 613.16V610.88C195.468 608.18 196.328 606.26 198.508 606.26C200.688 606.26 201.548 608.18 201.548 610.88V613.16C201.548 615.86 200.688 617.78 198.508 617.78ZM215.44 619V617.52H211.84V605.04H209.22L205.52 608.5L206.5 609.56L210.02 606.28H210.16V617.52H206.26V619H215.44ZM227.432 619V617.52H223.832V605.04H221.212L217.512 608.5L218.492 609.56L222.012 606.28H222.152V617.52H218.252V619H227.432Z" fill="black"/>
<path d="M389.176 617.52H381.836L385.596 614.14C387.376 612.54 388.656 611.02 388.656 608.86C388.656 606.48 387.096 604.8 384.376 604.8C381.676 604.8 380.436 606.44 379.896 608.08L381.396 608.66C381.776 607.34 382.576 606.3 384.296 606.3C386.016 606.3 386.876 607.36 386.876 608.9V609.14C386.876 610.48 385.876 611.88 384.576 613.08L380.016 617.28V619H389.176V617.52ZM396.508 619.24C399.848 619.24 401.308 616.58 401.308 612.02C401.308 607.46 399.848 604.8 396.508 604.8C393.168 604.8 391.708 607.46 391.708 612.02C391.708 616.58 393.168 619.24 396.508 619.24ZM396.508 617.78C394.328 617.78 393.468 615.86 393.468 613.16V610.88C393.468 608.18 394.328 606.26 396.508 606.26C398.688 606.26 399.548 608.18 399.548 610.88V613.16C399.548 615.86 398.688 617.78 396.508 617.78ZM413.44 619V617.52H409.84V605.04H407.22L403.52 608.5L404.5 609.56L408.02 606.28H408.16V617.52H404.26V619H413.44ZM418.192 610.96V612.42H419.832C421.792 612.42 422.832 613.36 422.832 615V615.16C422.832 616.8 421.792 617.74 419.832 617.74C418.132 617.74 417.312 617 416.592 615.9L415.332 616.86C416.192 618.06 417.432 619.24 419.852 619.24C422.692 619.24 424.592 617.58 424.592 615.18C424.592 613.08 423.152 611.96 421.652 611.66V611.58C423.132 611.2 424.332 610.12 424.332 608.32C424.332 606.06 422.452 604.8 420.092 604.8C417.852 604.8 416.632 605.96 415.932 607.08L417.172 608.04C417.752 606.98 418.612 606.3 420.052 606.3C421.532 606.3 422.552 607.04 422.552 608.5V608.64C422.552 609.98 421.592 610.96 419.712 610.96H418.192Z" fill="black"/>
<path d="M290.176 617.52H282.836L286.596 614.14C288.376 612.54 289.656 611.02 289.656 608.86C289.656 606.48 288.096 604.8 285.376 604.8C282.676 604.8 281.436 606.44 280.896 608.08L282.396 608.66C282.776 607.34 283.576 606.3 285.296 606.3C287.016 606.3 287.876 607.36 287.876 608.9V609.14C287.876 610.48 286.876 611.88 285.576 613.08L281.016 617.28V619H290.176V617.52ZM297.508 619.24C300.848 619.24 302.308 616.58 302.308 612.02C302.308 607.46 300.848 604.8 297.508 604.8C294.168 604.8 292.708 607.46 292.708 612.02C292.708 616.58 294.168 619.24 297.508 619.24ZM297.508 617.78C295.328 617.78 294.468 615.86 294.468 613.16V610.88C294.468 608.18 295.328 606.26 297.508 606.26C299.688 606.26 300.548 608.18 300.548 610.88V613.16C300.548 615.86 299.688 617.78 297.508 617.78ZM314.44 619V617.52H310.84V605.04H308.22L304.52 608.5L305.5 609.56L309.02 606.28H309.16V617.52H305.26V619H314.44ZM326.152 617.52H318.812L322.572 614.14C324.352 612.54 325.632 611.02 325.632 608.86C325.632 606.48 324.072 604.8 321.352 604.8C318.652 604.8 317.412 606.44 316.872 608.08L318.372 608.66C318.752 607.34 319.552 606.3 321.272 606.3C322.992 606.3 323.852 607.36 323.852 608.9V609.14C323.852 610.48 322.852 611.88 321.552 613.08L316.992 617.28V619H326.152V617.52Z" fill="black"/>
<path d="M92.1756 617.52H84.8356L88.5956 614.14C90.3756 612.54 91.6556 611.02 91.6556 608.86C91.6556 606.48 90.0956 604.8 87.3756 604.8C84.6756 604.8 83.4356 606.44 82.8956 608.08L84.3956 608.66C84.7756 607.34 85.5756 606.3 87.2956 606.3C89.0156 606.3 89.8756 607.36 89.8756 608.9V609.14C89.8756 610.48 88.8756 611.88 87.5756 613.08L83.0156 617.28V619H92.1756V617.52ZM99.5078 619.24C102.848 619.24 104.308 616.58 104.308 612.02C104.308 607.46 102.848 604.8 99.5078 604.8C96.1678 604.8 94.7078 607.46 94.7078 612.02C94.7078 616.58 96.1678 619.24 99.5078 619.24ZM99.5078 617.78C97.3278 617.78 96.4678 615.86 96.4678 613.16V610.88C96.4678 608.18 97.3278 606.26 99.5078 606.26C101.688 606.26 102.548 608.18 102.548 610.88V613.16C102.548 615.86 101.688 617.78 99.5078 617.78ZM116.44 619V617.52H112.84V605.04H110.22L106.52 608.5L107.5 609.56L111.02 606.28H111.16V617.52H107.26V619H116.44ZM123.492 619.24C126.832 619.24 128.292 616.58 128.292 612.02C128.292 607.46 126.832 604.8 123.492 604.8C120.152 604.8 118.692 607.46 118.692 612.02C118.692 616.58 120.152 619.24 123.492 619.24ZM123.492 617.78C121.312 617.78 120.452 615.86 120.452 613.16V610.88C120.452 608.18 121.312 606.26 123.492 606.26C125.672 606.26 126.532 608.18 126.532 610.88V613.16C126.532 615.86 125.672 617.78 123.492 617.78Z" fill="black"/>
<path d="M488.176 617.52H480.836L484.596 614.14C486.376 612.54 487.656 611.02 487.656 608.86C487.656 606.48 486.096 604.8 483.376 604.8C480.676 604.8 479.436 606.44 478.896 608.08L480.396 608.66C480.776 607.34 481.576 606.3 483.296 606.3C485.016 606.3 485.876 607.36 485.876 608.9V609.14C485.876 610.48 484.876 611.88 483.576 613.08L479.016 617.28V619H488.176V617.52ZM495.508 619.24C498.848 619.24 500.308 616.58 500.308 612.02C500.308 607.46 498.848 604.8 495.508 604.8C492.168 604.8 490.708 607.46 490.708 612.02C490.708 616.58 492.168 619.24 495.508 619.24ZM495.508 617.78C493.328 617.78 492.468 615.86 492.468 613.16V610.88C492.468 608.18 493.328 606.26 495.508 606.26C497.688 606.26 498.548 608.18 498.548 610.88V613.16C498.548 615.86 497.688 617.78 495.508 617.78ZM512.44 619V617.52H508.84V605.04H506.22L502.52 608.5L503.5 609.56L507.02 606.28H507.16V617.52H503.26V619H512.44ZM522.592 619V616.26H524.612V614.86H522.592V605.04H520.092L514.252 614.78V616.26H520.992V619H522.592ZM520.892 606.34H520.992V614.86H515.832L520.892 606.34Z" fill="black"/>
<path d="M686.176 617.52H678.836L682.596 614.14C684.376 612.54 685.656 611.02 685.656 608.86C685.656 606.48 684.096 604.8 681.376 604.8C678.676 604.8 677.436 606.44 676.896 608.08L678.396 608.66C678.776 607.34 679.576 606.3 681.296 606.3C683.016 606.3 683.876 607.36 683.876 608.9V609.14C683.876 610.48 682.876 611.88 681.576 613.08L677.016 617.28V619H686.176V617.52ZM693.508 619.24C696.848 619.24 698.308 616.58 698.308 612.02C698.308 607.46 696.848 604.8 693.508 604.8C690.168 604.8 688.708 607.46 688.708 612.02C688.708 616.58 690.168 619.24 693.508 619.24ZM693.508 617.78C691.328 617.78 690.468 615.86 690.468 613.16V610.88C690.468 608.18 691.328 606.26 693.508 606.26C695.688 606.26 696.548 608.18 696.548 610.88V613.16C696.548 615.86 695.688 617.78 693.508 617.78ZM710.44 619V617.52H706.84V605.04H704.22L700.52 608.5L701.5 609.56L705.02 606.28H705.16V617.52H701.26V619H710.44ZM717.512 619.24C720.312 619.24 722.152 617.36 722.152 614.62C722.152 611.98 720.432 610.32 718.032 610.32C716.332 610.32 715.332 611.18 714.672 612.32L714.572 612.28C715.332 609.04 716.992 607.22 719.972 605.04H717.812C715.572 606.5 712.832 609.74 712.832 613.88C712.832 617.2 714.612 619.24 717.512 619.24ZM717.492 617.78C715.652 617.78 714.572 616.72 714.572 614.84V614.68C714.572 612.8 715.652 611.74 717.492 611.74C719.332 611.74 720.412 612.8 720.412 614.68V614.84C720.412 616.72 719.332 617.78 717.492 617.78Z" fill="black"/>
<path d="M587.176 617.52H579.836L583.596 614.14C585.376 612.54 586.656 611.02 586.656 608.86C586.656 606.48 585.096 604.8 582.376 604.8C579.676 604.8 578.436 606.44 577.896 608.08L579.396 608.66C579.776 607.34 580.576 606.3 582.296 606.3C584.016 606.3 584.876 607.36 584.876 608.9V609.14C584.876 610.48 583.876 611.88 582.576 613.08L578.016 617.28V619H587.176V617.52ZM594.508 619.24C597.848 619.24 599.308 616.58 599.308 612.02C599.308 607.46 597.848 604.8 594.508 604.8C591.168 604.8 589.708 607.46 589.708 612.02C589.708 616.58 591.168 619.24 594.508 619.24ZM594.508 617.78C592.328 617.78 591.468 615.86 591.468 613.16V610.88C591.468 608.18 592.328 606.26 594.508 606.26C596.688 606.26 597.548 608.18 597.548 610.88V613.16C597.548 615.86 596.688 617.78 594.508 617.78ZM611.44 619V617.52H607.84V605.04H605.22L601.52 608.5L602.5 609.56L606.02 606.28H606.16V617.52H602.26V619H611.44ZM622.452 605.04H614.972L614.472 612.72L615.892 612.92C616.472 612.28 617.112 611.74 618.392 611.74C620.292 611.74 621.312 612.8 621.312 614.64V614.84C621.312 616.68 620.292 617.74 618.392 617.74C616.712 617.74 616.012 617 615.292 615.9L614.032 616.86C614.872 618.06 616.072 619.24 618.392 619.24C621.332 619.24 623.092 617.34 623.092 614.62C623.092 611.92 621.332 610.3 618.932 610.3C617.472 610.3 616.732 610.9 616.072 611.84H615.932L616.332 606.52H622.452V605.04Z" fill="black"/>
<path d="M52.0078 571.24C55.3478 571.24 56.8078 568.58 56.8078 564.02C56.8078 559.46 55.3478 556.8 52.0078 556.8C48.6678 556.8 47.2078 559.46 47.2078 564.02C47.2078 568.58 48.6678 571.24 52.0078 571.24ZM52.0078 569.78C49.8278 569.78 48.9678 567.86 48.9678 565.16V562.88C48.9678 560.18 49.8278 558.26 52.0078 558.26C54.1878 558.26 55.0478 560.18 55.0478 562.88V565.16C55.0478 567.86 54.1878 569.78 52.0078 569.78Z" fill="black"/>
<path d="M44.6756 479.52H37.3356L41.0956 476.14C42.8756 474.54 44.1556 473.02 44.1556 470.86C44.1556 468.48 42.5956 466.8 39.8756 466.8C37.1756 466.8 35.9356 468.44 35.3956 470.08L36.8956 470.66C37.2756 469.34 38.0756 468.3 39.7956 468.3C41.5156 468.3 42.3756 469.36 42.3756 470.9V471.14C42.3756 472.48 41.3756 473.88 40.0756 475.08L35.5156 479.28V481H44.6756V479.52ZM52.0078 481.24C55.3478 481.24 56.8078 478.58 56.8078 474.02C56.8078 469.46 55.3478 466.8 52.0078 466.8C48.6678 466.8 47.2078 469.46 47.2078 474.02C47.2078 478.58 48.6678 481.24 52.0078 481.24ZM52.0078 479.78C49.8278 479.78 48.9678 477.86 48.9678 475.16V472.88C48.9678 470.18 49.8278 468.26 52.0078 468.26C54.1878 468.26 55.0478 470.18 55.0478 472.88V475.16C55.0478 477.86 54.1878 479.78 52.0078 479.78Z" fill="black"/>
<path d="M43.1156 391V388.26H45.1356V386.86H43.1156V377.04H40.6156L34.7756 386.78V388.26H41.5156V391H43.1156ZM41.4156 378.34H41.5156V386.86H36.3556L41.4156 378.34ZM52.0078 391.24C55.3478 391.24 56.8078 388.58 56.8078 384.02C56.8078 379.46 55.3478 376.8 52.0078 376.8C48.6678 376.8 47.2078 379.46 47.2078 384.02C47.2078 388.58 48.6678 391.24 52.0078 391.24ZM52.0078 389.78C49.8278 389.78 48.9678 387.86 48.9678 385.16V382.88C48.9678 380.18 49.8278 378.26 52.0078 378.26C54.1878 378.26 55.0478 380.18 55.0478 382.88V385.16C55.0478 387.86 54.1878 389.78 52.0078 389.78Z" fill="black"/>
<path d="M40.0356 298.24C42.8356 298.24 44.6756 296.36 44.6756 293.62C44.6756 290.98 42.9556 289.32 40.5556 289.32C38.8556 289.32 37.8556 290.18 37.1956 291.32L37.0956 291.28C37.8556 288.04 39.5156 286.22 42.4956 284.04H40.3356C38.0956 285.5 35.3556 288.74 35.3556 292.88C35.3556 296.2 37.1356 298.24 40.0356 298.24ZM40.0156 296.78C38.1756 296.78 37.0956 295.72 37.0956 293.84V293.68C37.0956 291.8 38.1756 290.74 40.0156 290.74C41.8556 290.74 42.9356 291.8 42.9356 293.68V293.84C42.9356 295.72 41.8556 296.78 40.0156 296.78ZM52.0078 298.24C55.3478 298.24 56.8078 295.58 56.8078 291.02C56.8078 286.46 55.3478 283.8 52.0078 283.8C48.6678 283.8 47.2078 286.46 47.2078 291.02C47.2078 295.58 48.6678 298.24 52.0078 298.24ZM52.0078 296.78C49.8278 296.78 48.9678 294.86 48.9678 292.16V289.88C48.9678 287.18 49.8278 285.26 52.0078 285.26C54.1878 285.26 55.0478 287.18 55.0478 289.88V292.16C55.0478 294.86 54.1878 296.78 52.0078 296.78Z" fill="black"/>
<path d="M40.0156 207.24C43.1956 207.24 44.8556 205.5 44.8556 203.2C44.8556 201.3 43.7156 200.2 42.0356 199.74V199.58C43.4956 199.08 44.4356 197.9 44.4356 196.3C44.4356 194.18 42.7956 192.8 40.0156 192.8C37.2356 192.8 35.5956 194.18 35.5956 196.3C35.5956 197.9 36.5356 199.08 37.9956 199.58V199.74C36.3156 200.2 35.1756 201.3 35.1756 203.2C35.1756 205.5 36.8356 207.24 40.0156 207.24ZM40.0156 205.78C38.0756 205.78 36.9556 204.86 36.9556 203.28V202.86C36.9556 201.28 38.0756 200.36 40.0156 200.36C41.9556 200.36 43.0756 201.28 43.0756 202.86V203.28C43.0756 204.86 41.9556 205.78 40.0156 205.78ZM40.0156 198.96C38.2756 198.96 37.3356 198.18 37.3356 196.76V196.46C37.3356 195.04 38.2756 194.26 40.0156 194.26C41.7556 194.26 42.6956 195.04 42.6956 196.46V196.76C42.6956 198.18 41.7556 198.96 40.0156 198.96ZM52.0078 207.24C55.3478 207.24 56.8078 204.58 56.8078 200.02C56.8078 195.46 55.3478 192.8 52.0078 192.8C48.6678 192.8 47.2078 195.46 47.2078 200.02C47.2078 204.58 48.6678 207.24 52.0078 207.24ZM52.0078 205.78C49.8278 205.78 48.9678 203.86 48.9678 201.16V198.88C48.9678 196.18 49.8278 194.26 52.0078 194.26C54.1878 194.26 55.0478 196.18 55.0478 198.88V201.16C55.0478 203.86 54.1878 205.78 52.0078 205.78Z" fill="black"/>
<path d="M32.9634 115V113.52H29.3634V101.04H26.7434L23.0434 104.5L24.0234 105.56L27.5434 102.28H27.6834V113.52H23.7834V115H32.9634ZM40.0156 115.24C43.3556 115.24 44.8156 112.58 44.8156 108.02C44.8156 103.46 43.3556 100.8 40.0156 100.8C36.6756 100.8 35.2156 103.46 35.2156 108.02C35.2156 112.58 36.6756 115.24 40.0156 115.24ZM40.0156 113.78C37.8356 113.78 36.9756 111.86 36.9756 109.16V106.88C36.9756 104.18 37.8356 102.26 40.0156 102.26C42.1956 102.26 43.0556 104.18 43.0556 106.88V109.16C43.0556 111.86 42.1956 113.78 40.0156 113.78ZM52.0078 115.24C55.3478 115.24 56.8078 112.58 56.8078 108.02C56.8078 103.46 55.3478 100.8 52.0078 100.8C48.6678 100.8 47.2078 103.46 47.2078 108.02C47.2078 112.58 48.6678 115.24 52.0078 115.24ZM52.0078 113.78C49.8278 113.78 48.9678 111.86 48.9678 109.16V106.88C48.9678 104.18 49.8278 102.26 52.0078 102.26C54.1878 102.26 55.0478 104.18 55.0478 106.88V109.16C55.0478 111.86 54.1878 113.78 52.0078 113.78Z" fill="black"/>
<path d="M32.9634 24V22.52H29.3634V10.04H26.7434L23.0434 13.5L24.0234 14.56L27.5434 11.28H27.6834V22.52H23.7834V24H32.9634ZM44.6756 22.52H37.3356L41.0956 19.14C42.8756 17.54 44.1556 16.02 44.1556 13.86C44.1556 11.48 42.5956 9.8 39.8756 9.8C37.1756 9.8 35.9356 11.44 35.3956 13.08L36.8956 13.66C37.2756 12.34 38.0756 11.3 39.7956 11.3C41.5156 11.3 42.3756 12.36 42.3756 13.9V14.14C42.3756 15.48 41.3756 16.88 40.0756 18.08L35.5156 22.28V24H44.6756V22.52ZM52.0078 24.24C55.3478 24.24 56.8078 21.58 56.8078 17.02C56.8078 12.46 55.3478 9.8 52.0078 9.8C48.6678 9.8 47.2078 12.46 47.2078 17.02C47.2078 21.58 48.6678 24.24 52.0078 24.24ZM52.0078 22.78C49.8278 22.78 48.9678 20.86 48.9678 18.16V15.88C48.9678 13.18 49.8278 11.26 52.0078 11.26C54.1878 11.26 55.0478 13.18 55.0478 15.88V18.16C55.0478 20.86 54.1878 22.78 52.0078 22.78Z" fill="black"/>
</svg>
