<?xml version="1.0" encoding="utf-8"?>
<!-- Generator: Adobe Illustrator 25.2.0, SVG Export Plug-In . SVG Version: 6.00 Build 0)  -->
<svg version="1.1" id="Layer_1" xmlns="http://www.w3.org/2000/svg" xmlns:xlink="http://www.w3.org/1999/xlink" x="0px" y="0px"
	 viewBox="0 0 581.7 410.5" style="enable-background:new 0 0 581.7 410.5;" xml:space="preserve">
<style type="text/css">
	.st0{fill:#2171B5;}
	.st1{fill:#D94801;}
	.st2{fill:#FFFFFF;filter:url(#Adobe_OpacityMaskFilter);}
	.st3{mask:url(#path-4-inside-4_326:7385_1_);fill:#54278F;stroke:#FFFFFF;stroke-width:2;}
	.st4{fill:#AE017E;}
	.st5{fill:#238B45;}
	.st6{fill:none;}
	.st7{fill:#C7E9C0;}
	.st8{fill:#C6DBEF;}
	.st9{fill:#54278F;}
	.st10{fill:#9E9AC8;}
	.st11{fill:#FA9FB5;}
	.st12{fill:none;stroke:#000000;}
</style>
<path class="st0" d="M225.8,68.1c-24.7,9.2-47.4,24-65.7,43c-18.5,19.2-32.6,42.8-40.7,68.2c-8.2,25.4-10.4,52.8-6.6,79.2
	c3.9,26.4,13.9,52,29,74c15.1,22,35.3,40.6,58.6,53.7c23.2,13.1,49.6,20.9,76.2,22.5c26.6,1.6,53.7-3,78.4-13.3
	c24.3-10.2,46.4-26,63.8-45.7L286.1,233.7L225.8,68.1z"/>
<path class="st1" d="M236.4,64.6c-2.9,0.9-5.8,1.8-8.6,2.8L277,202.9L236.4,64.6z"/>
<defs>
	<filter id="Adobe_OpacityMaskFilter" filterUnits="userSpaceOnUse" x="285.3" y="141.1" width="179.7" height="210">
		<feColorMatrix  type="matrix" values="1 0 0 0 0  0 1 0 0 0  0 0 1 0 0  0 0 0 1 0"/>
	</filter>
</defs>
<mask maskUnits="userSpaceOnUse" x="285.3" y="141.1" width="179.7" height="210" id="path-4-inside-4_326:7385_1_">
	<path class="st2" d="M439,142.5c19.1,32.1,27.6,69.4,24.3,106.7c-3.4,37.2-18.5,72.4-43.1,100.6L287,233.2L439,142.5z"/>
</mask>
<path class="st3" d="M439,142.5c19.1,32.1,27.6,69.4,24.3,106.7c-3.4,37.2-18.5,72.4-43.1,100.6L287,233.2L439,142.5z"/>
<path class="st4" d="M238.1,64.1l48.4,163.8l15.3-170.1C280.2,56,258.8,58.1,238.1,64.1z"/>
<path class="st5" d="M380.6,84.1c-23.1-14.5-49.7-23.6-76.9-26.2l-15.6,173.3L437.6,142C423.4,118.7,403.7,98.7,380.6,84.1z"/>
<g>
	<polygon class="st6" points="290.8,201.4 290.9,200.5 290.5,201 	"/>
	<path class="st6" d="M334.6,63.8c0.1,0,0.2,0.1,0.3,0.1l-0.2-0.2L334.6,63.8z"/>
	<polygon class="st6" points="302.4,73.3 302.4,72.7 302.1,73 	"/>
	<polygon class="st5" points="392,169.2 393.1,168.6 392.9,168.3 	"/>
	<polygon class="st7" points="360.3,80.2 358,82.4 355.8,80.2 353.5,82.4 355.8,84.7 353.5,86.9 355.8,89.2 358,86.9 360.3,89.2 
		362.5,86.9 360.3,84.7 362.5,82.4 	"/>
	<path class="st7" d="M337,65.9l1.1-1.1c-1.1-0.3-2.1-0.6-3.2-0.9L337,65.9z"/>
	<path class="st7" d="M332.5,65.9l2.1-2.1c-1.2-0.3-2.4-0.6-3.5-1l-0.8,0.8L332.5,65.9z"/>
	<polygon class="st7" points="325.4,91.8 323.1,94.1 320.9,91.8 318.6,94.1 320.9,96.3 318.6,98.5 320.9,100.8 323.1,98.5 
		325.4,100.8 327.6,98.5 325.4,96.3 327.6,94.1 	"/>
	<polygon class="st7" points="304.4,70.8 302.7,69.2 302.4,72.7 	"/>
	<polygon class="st7" points="304.4,75.3 302.4,73.3 302,77.4 302.1,77.5 	"/>
	<polygon class="st7" points="402.3,135.7 404.5,133.4 406.8,135.7 409,133.4 406.8,131.2 409,128.9 406.8,126.7 404.5,128.9 
		402.3,126.7 400,128.9 402.3,131.2 400,133.4 	"/>
	<polygon class="st7" points="383.5,103.4 381.3,105.7 379,103.4 376.8,105.7 379,107.9 376.8,110.2 379,112.4 381.3,110.2 
		383.5,112.4 385.8,110.2 383.5,107.9 385.8,105.7 	"/>
	<polygon class="st7" points="371.9,138.3 369.7,140.6 367.4,138.3 365.2,140.6 367.4,142.8 365.2,145.1 367.4,147.3 369.7,145.1 
		371.9,147.3 374.1,145.1 371.9,142.8 374.1,140.6 	"/>
	<polygon class="st7" points="348.6,115.1 346.4,117.3 344.1,115.1 341.9,117.3 344.1,119.6 341.9,121.8 344.1,124.1 346.4,121.8 
		348.6,124.1 350.9,121.8 348.6,119.6 350.9,117.3 	"/>
	<polygon class="st7" points="390.7,170.6 392,169.2 390.3,170.2 	"/>
	<polygon class="st7" points="395.2,166.1 397.4,163.8 395.2,161.6 392.9,163.8 390.7,161.6 388.4,163.8 390.7,166.1 388.4,168.3 
		390.3,170.2 392,169.2 392.9,168.3 393.1,168.6 396,166.9 	"/>
	<polygon class="st7" points="313.7,126.7 311.5,128.9 309.2,126.7 307,128.9 309.2,131.2 307,133.4 309.2,135.7 311.5,133.4 
		313.7,135.7 316,133.4 313.7,131.2 316,128.9 	"/>
	<polygon class="st7" points="360.3,173.2 358,175.5 355.8,173.2 353.5,175.5 355.8,177.7 353.5,180 355.8,182.2 358,180 
		360.3,182.2 362.5,180 360.3,177.7 362.5,175.5 	"/>
	<polygon class="st7" points="337,150 334.8,152.2 332.5,150 330.3,152.2 332.5,154.5 330.3,156.7 332.5,159 334.8,156.7 337,159 
		339.3,156.7 337,154.5 339.3,152.2 	"/>
	<polygon class="st7" points="325.4,184.9 323.1,187.1 320.9,184.9 318.6,187.1 320.9,189.4 318.6,191.6 320.9,193.9 323.1,191.6 
		325.4,193.9 327.6,191.6 325.4,189.4 327.6,187.1 	"/>
	<polygon class="st7" points="302.1,161.6 299.9,163.8 297.6,161.6 295.4,163.8 297.6,166.1 295.4,168.3 297.6,170.6 299.9,168.3 
		302.1,170.6 304.4,168.3 302.1,166.1 304.4,163.8 	"/>
	<polygon class="st7" points="292.7,203.2 290.8,201.4 290.5,205.5 290.5,205.5 	"/>
	<polygon class="st7" points="292.7,198.7 291.2,197.2 290.9,200.5 	"/>
</g>
<g>
	<path class="st8" d="M144.3,130.1l-30.8,73.3c-0.4,2.6-0.8,5.3-1.2,7.9l36.8-87.6C147.5,125.8,145.9,128,144.3,130.1z"/>
	<path class="st8" d="M163.4,107.9L111,232.6c0,1.7,0,3.4,0.1,5l56-133.3C165.8,105.5,164.6,106.7,163.4,107.9z"/>
	<path class="st8" d="M178.8,94.4l-66.7,158.7c0.2,1.3,0.3,2.6,0.5,4L182,92C180.9,92.7,179.8,93.6,178.8,94.4z"/>
	<path class="st8" d="M192.6,84.7l-77.7,185.1c0.2,1.1,0.5,2.3,0.7,3.4l79.9-190.3C194.5,83.4,193.6,84,192.6,84.7z"/>
	<path class="st8" d="M205.4,77.2l-86.9,206.9c0.3,1,0.6,2,0.9,3l88.7-211.3C207.3,76.3,206.4,76.7,205.4,77.2z"/>
	<path class="st8" d="M217.6,71.4l-94.7,225.4c0.3,0.9,0.7,1.8,1.1,2.6l96.2-229.2C219.4,70.7,218.5,71.1,217.6,71.4z"/>
	<path class="st8" d="M227.2,71.8l-99.3,236.4c0.4,0.8,0.8,1.6,1.2,2.4l99.2-236.1L227.2,71.8z"/>
	<path class="st8" d="M236.2,96.6l-97.3,231.6c0.4,0.7,0.9,1.3,1.3,2l97-230.9L236.2,96.6z"/>
	<path class="st8" d="M245.2,121.5l-94,223.7c0.5,0.6,1,1.1,1.4,1.7l93.5-222.7L245.2,121.5z"/>
	<path class="st8" d="M254.3,146.3l-89.6,213.4c0.5,0.5,1,1,1.6,1.5L255.3,149L254.3,146.3z"/>
	<path class="st8" d="M263.3,171.1l-84.4,201c0.5,0.4,1.1,0.8,1.6,1.3l83.8-199.5L263.3,171.1z"/>
	<path class="st8" d="M272.3,195.9l-78.4,186.7c0.6,0.4,1.1,0.7,1.7,1.1l77.7-185L272.3,195.9z"/>
	<path class="st8" d="M281.4,220.7l-71.6,170.6c0.6,0.3,1.2,0.6,1.8,0.9l70.8-168.7L281.4,220.7z"/>
	<path class="st8" d="M292.9,239.6l-66.6,158.7c0.6,0.2,1.3,0.5,1.9,0.7l66.3-158L292.9,239.6z"/>
	<path class="st8" d="M307.1,252.1l-63.6,151.6c0.7,0.2,1.3,0.3,2,0.5l63.3-150.7L307.1,252.1z"/>
	<path class="st8" d="M321.3,264.5l-59.9,142.7c0.7,0.1,1.4,0.2,2.1,0.3l59.5-141.6L321.3,264.5z"/>
	<path class="st8" d="M231.7,84.2l-98.5,234.5c0.4,0.7,0.8,1.5,1.2,2.2L232.7,87L231.7,84.2z"/>
	<path class="st8" d="M240.7,109l-95.8,228c0.5,0.6,0.9,1.2,1.4,1.9l95.4-227.1L240.7,109z"/>
	<path class="st8" d="M249.7,133.9l-91.9,218.8c0.5,0.5,1,1.1,1.5,1.6l91.4-217.7L249.7,133.9z"/>
	<path class="st8" d="M258.8,158.7l-87.1,207.4c0.5,0.5,1.1,0.9,1.6,1.4l86.5-206L258.8,158.7z"/>
	<path class="st8" d="M267.8,183.5l-81.5,194c0.6,0.4,1.1,0.8,1.7,1.2l80.8-192.4L267.8,183.5z"/>
	<path class="st8" d="M276.9,208.3l-75.1,178.8c0.6,0.3,1.2,0.6,1.8,1l74.3-177L276.9,208.3z"/>
	<path class="st8" d="M286.1,233.7l-0.2-0.7l-68,161.9c0.6,0.3,1.2,0.5,1.8,0.8l67.6-161L286.1,233.7z"/>
	<path class="st8" d="M300,245.9l-65.2,155.3c0.6,0.2,1.3,0.4,1.9,0.6l64.9-154.5L300,245.9z"/>
	<path class="st8" d="M314.2,258.3l-61.9,147.4c0.7,0.1,1.3,0.3,2,0.4l61.5-146.4L314.2,258.3z"/>
	<path class="st8" d="M328.4,270.8l-57.8,137.6c0.7,0.1,1.4,0.1,2.1,0.2L330,272.1L328.4,270.8z"/>
	<path class="st8" d="M335.8,277.2L280.4,409c0.7,0,1.4,0.1,2.1,0.1l54.8-130.5L335.8,277.2z"/>
	<path class="st8" d="M342.9,283.4l-52.8,125.7c0.7,0,1.5,0,2.2,0l52.2-124.3L342.9,283.4z"/>
	<path class="st8" d="M350,289.6l-50,119c0.7-0.1,1.5-0.1,2.2-0.2L351.6,291L350,289.6z"/>
	<path class="st8" d="M357.1,295.8l-46.9,111.8c0.8-0.1,1.5-0.2,2.3-0.3l46.2-110.1L357.1,295.8z"/>
	<path class="st8" d="M364.2,302.1l-43.6,103.8c0.8-0.2,1.6-0.3,2.4-0.5l42.8-102L364.2,302.1z"/>
	<path class="st8" d="M371.3,308.3l-40,95.2c0.8-0.2,1.6-0.4,2.5-0.7l39.1-93.1L371.3,308.3z"/>
	<path class="st8" d="M378.4,314.5l-36,85.7c0.8-0.3,1.7-0.6,2.5-0.8l35-83.4L378.4,314.5z"/>
	<path class="st8" d="M385.5,320.7L354,395.9c0.3-0.1,0.7-0.3,1-0.4c0.6-0.2,1.1-0.5,1.7-0.7l30.5-72.7L385.5,320.7z"/>
	<path class="st8" d="M392.7,326.9L366,390.4c0.9-0.5,1.8-0.9,2.8-1.4l25.5-60.6L392.7,326.9z"/>
	<path class="st8" d="M399.8,333.2l-21.1,50.2c1-0.6,2-1.2,2.9-1.8l19.7-46.9L399.8,333.2z"/>
	<path class="st8" d="M406.9,339.4l-14.6,34.7c1.1-0.8,2.1-1.6,3.2-2.4l13-30.9L406.9,339.4z"/>
	<path class="st8" d="M415.6,347l-1.6-1.4l-6.7,16c1.2-1.1,2.4-2.3,3.6-3.5L415.6,347z"/>
</g>
<path class="st9" d="M288.7,233.3l131.4,115c24.2-28,38.8-62.3,42.2-99.2c3.4-36.9-4.8-73.3-23.6-105.2L288.7,233.3z"/>
<g>
	<path class="st10" d="M458.4,192.9c-0.2-0.8-0.4-1.5-0.6-2.3c-0.1,0.3-0.2,0.5-0.2,0.9C457.6,192,457.9,192.6,458.4,192.9z"/>
	<path class="st10" d="M459.3,205.4c-1,0-1.7,0.8-1.7,1.7s0.8,1.7,1.7,1.7c1,0,1.7-0.8,1.7-1.7S460.3,205.4,459.3,205.4z"/>
	<path class="st10" d="M459.3,221.1c-1,0-1.7,0.8-1.7,1.7c0,1,0.8,1.7,1.7,1.7c1,0,1.7-0.8,1.7-1.7
		C461.1,221.9,460.3,221.1,459.3,221.1z"/>
	<path class="st10" d="M459.3,236.8c-1,0-1.7,0.8-1.7,1.7c0,1,0.8,1.7,1.7,1.7c1,0,1.7-0.8,1.7-1.7
		C461.1,237.5,460.3,236.8,459.3,236.8z"/>
	<path class="st10" d="M462.8,230.7c0,0.3,0.1,0.5,0.2,0.8c0-0.5,0-1,0-1.5C462.9,230.2,462.8,230.4,462.8,230.7z"/>
	<path class="st10" d="M459.3,252.5c-1,0-1.7,0.8-1.7,1.7c0,1,0.8,1.7,1.7,1.7c1,0,1.7-0.8,1.7-1.7
		C461.1,253.2,460.3,252.5,459.3,252.5z"/>
	<path class="st10" d="M457.6,269.9c0,0.8,0.5,1.4,1.2,1.6c0.2-1.1,0.5-2.2,0.7-3.4c-0.1,0-0.1,0-0.2,0
		C458.4,268.2,457.6,268.9,457.6,269.9z"/>
	<path class="st10" d="M447.7,161.3c-0.2-0.4-0.4-0.8-0.5-1.2C447.1,160.6,447.3,161,447.7,161.3z"/>
	<path class="st10" d="M448.9,174c-1,0-1.7,0.8-1.7,1.7s0.8,1.7,1.7,1.7c1,0,1.7-0.8,1.7-1.7S449.8,174,448.9,174z"/>
	<path class="st10" d="M448.9,189.7c-1,0-1.7,0.8-1.7,1.7s0.8,1.7,1.7,1.7c1,0,1.7-0.8,1.7-1.7S449.8,189.7,448.9,189.7z"/>
	<path class="st10" d="M454.1,181.9c-1,0-1.7,0.8-1.7,1.7c0,1,0.8,1.7,1.7,1.7s1.7-0.8,1.7-1.7C455.8,182.7,455,181.9,454.1,181.9z"
		/>
	<path class="st10" d="M448.9,205.4c-1,0-1.7,0.8-1.7,1.7s0.8,1.7,1.7,1.7c1,0,1.7-0.8,1.7-1.7S449.8,205.4,448.9,205.4z"/>
	<path class="st10" d="M454.1,197.6c-1,0-1.7,0.8-1.7,1.7c0,1,0.8,1.7,1.7,1.7s1.7-0.8,1.7-1.7C455.8,198.3,455,197.6,454.1,197.6z"
		/>
	<path class="st10" d="M448.9,221.1c-1,0-1.7,0.8-1.7,1.7c0,1,0.8,1.7,1.7,1.7c1,0,1.7-0.8,1.7-1.7
		C450.6,221.9,449.8,221.1,448.9,221.1z"/>
	<path class="st10" d="M454.1,213.3c-1,0-1.7,0.8-1.7,1.7s0.8,1.7,1.7,1.7s1.7-0.8,1.7-1.7S455,213.3,454.1,213.3z"/>
	<path class="st10" d="M448.9,236.8c-1,0-1.7,0.8-1.7,1.7c0,1,0.8,1.7,1.7,1.7c1,0,1.7-0.8,1.7-1.7
		C450.6,237.5,449.8,236.8,448.9,236.8z"/>
	<path class="st10" d="M454.1,229c-1,0-1.7,0.8-1.7,1.7s0.8,1.7,1.7,1.7s1.7-0.8,1.7-1.7S455,229,454.1,229z"/>
	<path class="st10" d="M448.9,252.5c-1,0-1.7,0.8-1.7,1.7c0,1,0.8,1.7,1.7,1.7c1,0,1.7-0.8,1.7-1.7
		C450.6,253.2,449.8,252.5,448.9,252.5z"/>
	<path class="st10" d="M454.1,244.7c-1,0-1.7,0.8-1.7,1.7s0.8,1.7,1.7,1.7s1.7-0.8,1.7-1.7S455,244.7,454.1,244.7z"/>
	<path class="st10" d="M448.9,268.2c-1,0-1.7,0.8-1.7,1.7s0.8,1.7,1.7,1.7c1,0,1.7-0.8,1.7-1.7S449.8,268.2,448.9,268.2z"/>
	<path class="st10" d="M454.1,260.3c-1,0-1.7,0.8-1.7,1.7c0,1,0.8,1.7,1.7,1.7s1.7-0.8,1.7-1.7C455.8,261.1,455,260.3,454.1,260.3z"
		/>
	<path class="st10" d="M448.9,283.9c-1,0-1.7,0.8-1.7,1.7c0,1,0.8,1.7,1.7,1.7c1,0,1.7-0.8,1.7-1.7
		C450.6,284.6,449.8,283.9,448.9,283.9z"/>
	<path class="st10" d="M454.1,276c-1,0-1.7,0.8-1.7,1.7c0,1,0.8,1.7,1.7,1.7s1.7-0.8,1.7-1.7C455.8,276.8,455,276,454.1,276z"/>
	<path class="st10" d="M447.1,301.3c0,0.9,0.6,1.6,1.5,1.7c0.4-1,0.9-2.1,1.3-3.1c-0.3-0.2-0.6-0.3-1-0.3
		C447.9,299.5,447.1,300.3,447.1,301.3z"/>
	<path class="st10" d="M452.3,293.5c0.1-0.4,0.3-0.8,0.4-1.2C452.5,292.6,452.3,293,452.3,293.5
		C452.3,293.5,452.3,293.5,452.3,293.5z"/>
	<path class="st10" d="M438.4,146.1c0.5,0,0.9-0.2,1.2-0.5c-0.3-0.6-0.6-1.1-1-1.7l-1.9,1.1C437,145.6,437.7,146.1,438.4,146.1z"/>
	<path class="st10" d="M438.4,158.3c-1,0-1.7,0.8-1.7,1.7c0,1,0.8,1.7,1.7,1.7s1.7-0.8,1.7-1.7C440.1,159.1,439.4,158.3,438.4,158.3
		z"/>
	<path class="st10" d="M441.9,152.2c0,1,0.8,1.7,1.7,1.7c0.2,0,0.3,0,0.5-0.1c-0.5-1-1-2-1.6-3C442.1,151.2,441.9,151.7,441.9,152.2
		z"/>
	<path class="st10" d="M438.4,174c-1,0-1.7,0.8-1.7,1.7s0.8,1.7,1.7,1.7s1.7-0.8,1.7-1.7S439.4,174,438.4,174z"/>
	<path class="st10" d="M443.6,166.2c-1,0-1.7,0.8-1.7,1.7s0.8,1.7,1.7,1.7c1,0,1.7-0.8,1.7-1.7S444.6,166.2,443.6,166.2z"/>
	<circle class="st10" cx="438.4" cy="191.4" r="1.7"/>
	<path class="st10" d="M443.6,181.9c-1,0-1.7,0.8-1.7,1.7c0,1,0.8,1.7,1.7,1.7c1,0,1.7-0.8,1.7-1.7
		C445.4,182.7,444.6,181.9,443.6,181.9z"/>
	<circle class="st10" cx="438.4" cy="207.1" r="1.7"/>
	<path class="st10" d="M443.6,197.6c-1,0-1.7,0.8-1.7,1.7c0,1,0.8,1.7,1.7,1.7c1,0,1.7-0.8,1.7-1.7
		C445.4,198.3,444.6,197.6,443.6,197.6z"/>
	<circle class="st10" cx="438.4" cy="222.8" r="1.7"/>
	<path class="st10" d="M443.6,213.3c-1,0-1.7,0.8-1.7,1.7s0.8,1.7,1.7,1.7c1,0,1.7-0.8,1.7-1.7S444.6,213.3,443.6,213.3z"/>
	<path class="st10" d="M438.4,236.8c-1,0-1.7,0.8-1.7,1.7c0,1,0.8,1.7,1.7,1.7s1.7-0.8,1.7-1.7C440.1,237.5,439.4,236.8,438.4,236.8
		z"/>
	<path class="st10" d="M443.6,229c-1,0-1.7,0.8-1.7,1.7s0.8,1.7,1.7,1.7c1,0,1.7-0.8,1.7-1.7S444.6,229,443.6,229z"/>
	<circle class="st10" cx="438.4" cy="254.2" r="1.7"/>
	<path class="st10" d="M443.6,244.7c-1,0-1.7,0.8-1.7,1.7s0.8,1.7,1.7,1.7c1,0,1.7-0.8,1.7-1.7S444.6,244.7,443.6,244.7z"/>
	<circle class="st10" cx="438.4" cy="269.9" r="1.7"/>
	<path class="st10" d="M443.6,260.3c-1,0-1.7,0.8-1.7,1.7c0,1,0.8,1.7,1.7,1.7c1,0,1.7-0.8,1.7-1.7
		C445.4,261.1,444.6,260.3,443.6,260.3z"/>
	<path class="st10" d="M438.4,283.9c-1,0-1.7,0.8-1.7,1.7c0,1,0.8,1.7,1.7,1.7s1.7-0.8,1.7-1.7C440.1,284.6,439.4,283.9,438.4,283.9
		z"/>
	<path class="st10" d="M443.6,276c-1,0-1.7,0.8-1.7,1.7c0,1,0.8,1.7,1.7,1.7c1,0,1.7-0.8,1.7-1.7C445.4,276.8,444.6,276,443.6,276z"
		/>
	<path class="st10" d="M438.4,299.5c-1,0-1.7,0.8-1.7,1.7c0,1,0.8,1.7,1.7,1.7s1.7-0.8,1.7-1.7C440.1,300.3,439.4,299.5,438.4,299.5
		z"/>
	<path class="st10" d="M443.6,291.7c-1,0-1.7,0.8-1.7,1.7c0,1,0.8,1.7,1.7,1.7c1,0,1.7-0.8,1.7-1.7
		C445.4,292.5,444.6,291.7,443.6,291.7z"/>
	<path class="st10" d="M438.4,315.2c-1,0-1.7,0.8-1.7,1.7c0,1,0.8,1.7,1.7,1.7s1.7-0.8,1.7-1.7C440.1,316,439.4,315.2,438.4,315.2z"
		/>
	<path class="st10" d="M443.6,307.4c-1,0-1.7,0.8-1.7,1.7c0,1,0.8,1.7,1.7,1.7c1,0,1.7-0.8,1.7-1.7
		C445.4,308.2,444.6,307.4,443.6,307.4z"/>
	<path class="st10" d="M427.9,158.3c-1,0-1.7,0.8-1.7,1.7c0,1,0.8,1.7,1.7,1.7s1.7-0.8,1.7-1.7C429.7,159.1,428.9,158.3,427.9,158.3
		z"/>
	<path class="st10" d="M433.2,150.5c-1,0-1.7,0.8-1.7,1.7s0.8,1.7,1.7,1.7s1.7-0.8,1.7-1.7S434.1,150.5,433.2,150.5z"/>
	<path class="st10" d="M427.9,174c-1,0-1.7,0.8-1.7,1.7s0.8,1.7,1.7,1.7s1.7-0.8,1.7-1.7S428.9,174,427.9,174z"/>
	<circle class="st10" cx="433.2" cy="167.9" r="1.7"/>
	<path class="st10" d="M427.9,189.7c-1,0-1.7,0.8-1.7,1.7s0.8,1.7,1.7,1.7s1.7-0.8,1.7-1.7S428.9,189.7,427.9,189.7z"/>
	<path class="st10" d="M433.2,181.9c-1,0-1.7,0.8-1.7,1.7c0,1,0.8,1.7,1.7,1.7s1.7-0.8,1.7-1.7C434.9,182.7,434.1,181.9,433.2,181.9
		z"/>
	<path class="st10" d="M427.9,205.4c-1,0-1.7,0.8-1.7,1.7s0.8,1.7,1.7,1.7s1.7-0.8,1.7-1.7S428.9,205.4,427.9,205.4z"/>
	<path class="st10" d="M433.2,197.6c-1,0-1.7,0.8-1.7,1.7c0,1,0.8,1.7,1.7,1.7s1.7-0.8,1.7-1.7C434.9,198.3,434.1,197.6,433.2,197.6
		z"/>
	<path class="st10" d="M427.9,221.1c-1,0-1.7,0.8-1.7,1.7c0,1,0.8,1.7,1.7,1.7s1.7-0.8,1.7-1.7C429.7,221.9,428.9,221.1,427.9,221.1
		z"/>
	<circle class="st10" cx="433.2" cy="215" r="1.7"/>
	<path class="st10" d="M427.9,236.8c-1,0-1.7,0.8-1.7,1.7c0,1,0.8,1.7,1.7,1.7s1.7-0.8,1.7-1.7C429.7,237.5,428.9,236.8,427.9,236.8
		z"/>
	<circle class="st10" cx="433.2" cy="230.7" r="1.7"/>
	<path class="st10" d="M427.9,252.5c-1,0-1.7,0.8-1.7,1.7c0,1,0.8,1.7,1.7,1.7s1.7-0.8,1.7-1.7C429.7,253.2,428.9,252.5,427.9,252.5
		z"/>
	<path class="st10" d="M433.2,244.7c-1,0-1.7,0.8-1.7,1.7s0.8,1.7,1.7,1.7s1.7-0.8,1.7-1.7S434.1,244.7,433.2,244.7z"/>
	<path class="st10" d="M427.9,268.2c-1,0-1.7,0.8-1.7,1.7s0.8,1.7,1.7,1.7s1.7-0.8,1.7-1.7S428.9,268.2,427.9,268.2z"/>
	<path class="st10" d="M433.2,260.3c-1,0-1.7,0.8-1.7,1.7c0,1,0.8,1.7,1.7,1.7s1.7-0.8,1.7-1.7C434.9,261.1,434.1,260.3,433.2,260.3
		z"/>
	<path class="st10" d="M427.9,283.9c-1,0-1.7,0.8-1.7,1.7c0,1,0.8,1.7,1.7,1.7s1.7-0.8,1.7-1.7C429.7,284.6,428.9,283.9,427.9,283.9
		z"/>
	<path class="st10" d="M433.2,276c-1,0-1.7,0.8-1.7,1.7c0,1,0.8,1.7,1.7,1.7s1.7-0.8,1.7-1.7C434.9,276.8,434.1,276,433.2,276z"/>
	<path class="st10" d="M427.9,299.5c-1,0-1.7,0.8-1.7,1.7c0,1,0.8,1.7,1.7,1.7s1.7-0.8,1.7-1.7C429.7,300.3,428.9,299.5,427.9,299.5
		z"/>
	<path class="st10" d="M433.2,291.7c-1,0-1.7,0.8-1.7,1.7c0,1,0.8,1.7,1.7,1.7s1.7-0.8,1.7-1.7C434.9,292.5,434.1,291.7,433.2,291.7
		z"/>
	<path class="st10" d="M427.9,315.2c-1,0-1.7,0.8-1.7,1.7c0,1,0.8,1.7,1.7,1.7s1.7-0.8,1.7-1.7C429.7,316,428.9,315.2,427.9,315.2z"
		/>
	<path class="st10" d="M433.2,307.4c-1,0-1.7,0.8-1.7,1.7c0,1,0.8,1.7,1.7,1.7s1.7-0.8,1.7-1.7C434.9,308.2,434.1,307.4,433.2,307.4
		z"/>
	<path class="st10" d="M427.9,330.9c-1,0-1.7,0.8-1.7,1.7c0,1,0.8,1.7,1.7,1.7s1.7-0.8,1.7-1.7C429.7,331.7,428.9,330.9,427.9,330.9
		z"/>
	<path class="st10" d="M433.2,323.1c-1,0-1.7,0.8-1.7,1.7c0,1,0.8,1.7,1.7,1.7s1.7-0.8,1.7-1.7C434.9,323.9,434.1,323.1,433.2,323.1
		z"/>
	<path class="st10" d="M417.5,158.3c-1,0-1.7,0.8-1.7,1.7c0,1,0.8,1.7,1.7,1.7s1.7-0.8,1.7-1.7C419.2,159.1,418.4,158.3,417.5,158.3
		z"/>
	<path class="st10" d="M424.4,152.3l-2.5,1.5c0.2,0.1,0.5,0.2,0.7,0.2C423.6,154,424.4,153.3,424.4,152.3z"/>
	<path class="st10" d="M417.5,174c-1,0-1.7,0.8-1.7,1.7s0.8,1.7,1.7,1.7s1.7-0.8,1.7-1.7S418.4,174,417.5,174z"/>
	<circle class="st10" cx="422.7" cy="167.9" r="1.7"/>
	<circle class="st10" cx="417.5" cy="191.4" r="1.7"/>
	<path class="st10" d="M422.7,181.9c-1,0-1.7,0.8-1.7,1.7c0,1,0.8,1.7,1.7,1.7c1,0,1.7-0.8,1.7-1.7
		C424.4,182.7,423.7,181.9,422.7,181.9z"/>
	<circle class="st10" cx="417.5" cy="207.1" r="1.7"/>
	<path class="st10" d="M422.7,197.6c-1,0-1.7,0.8-1.7,1.7c0,1,0.8,1.7,1.7,1.7c1,0,1.7-0.8,1.7-1.7
		C424.4,198.3,423.7,197.6,422.7,197.6z"/>
	<circle class="st10" cx="417.5" cy="222.8" r="1.7"/>
	<circle class="st10" cx="422.7" cy="215" r="1.7"/>
	<path class="st10" d="M417.5,236.8c-1,0-1.7,0.8-1.7,1.7c0,1,0.8,1.7,1.7,1.7s1.7-0.8,1.7-1.7C419.2,237.5,418.4,236.8,417.5,236.8
		z"/>
	<circle class="st10" cx="422.7" cy="230.7" r="1.7"/>
	<circle class="st10" cx="417.5" cy="254.2" r="1.7"/>
	<path class="st10" d="M422.7,244.7c-1,0-1.7,0.8-1.7,1.7s0.8,1.7,1.7,1.7c1,0,1.7-0.8,1.7-1.7S423.7,244.7,422.7,244.7z"/>
	<circle class="st10" cx="417.5" cy="269.9" r="1.7"/>
	<path class="st10" d="M422.7,260.3c-1,0-1.7,0.8-1.7,1.7c0,1,0.8,1.7,1.7,1.7c1,0,1.7-0.8,1.7-1.7
		C424.4,261.1,423.7,260.3,422.7,260.3z"/>
	<path class="st10" d="M417.5,283.9c-1,0-1.7,0.8-1.7,1.7c0,1,0.8,1.7,1.7,1.7s1.7-0.8,1.7-1.7C419.2,284.6,418.4,283.9,417.5,283.9
		z"/>
	<path class="st10" d="M422.7,276c-1,0-1.7,0.8-1.7,1.7c0,1,0.8,1.7,1.7,1.7c1,0,1.7-0.8,1.7-1.7C424.4,276.8,423.7,276,422.7,276z"
		/>
	<path class="st10" d="M417.5,299.5c-1,0-1.7,0.8-1.7,1.7c0,1,0.8,1.7,1.7,1.7s1.7-0.8,1.7-1.7C419.2,300.3,418.4,299.5,417.5,299.5
		z"/>
	<path class="st10" d="M422.7,291.7c-1,0-1.7,0.8-1.7,1.7c0,1,0.8,1.7,1.7,1.7c1,0,1.7-0.8,1.7-1.7
		C424.4,292.5,423.7,291.7,422.7,291.7z"/>
	<path class="st10" d="M417.5,315.2c-1,0-1.7,0.8-1.7,1.7c0,1,0.8,1.7,1.7,1.7s1.7-0.8,1.7-1.7C419.2,316,418.4,315.2,417.5,315.2z"
		/>
	<path class="st10" d="M422.7,307.4c-1,0-1.7,0.8-1.7,1.7c0,1,0.8,1.7,1.7,1.7c1,0,1.7-0.8,1.7-1.7
		C424.4,308.2,423.7,307.4,422.7,307.4z"/>
	<path class="st10" d="M417.5,330.9c-1,0-1.7,0.8-1.7,1.7c0,1,0.8,1.7,1.7,1.7s1.7-0.8,1.7-1.7C419.2,331.7,418.4,330.9,417.5,330.9
		z"/>
	<path class="st10" d="M422.7,323.1c-1,0-1.7,0.8-1.7,1.7c0,1,0.8,1.7,1.7,1.7c1,0,1.7-0.8,1.7-1.7
		C424.4,323.9,423.7,323.1,422.7,323.1z"/>
	<path class="st10" d="M422.7,338.8c-1,0-1.7,0.8-1.7,1.7c0,1,0.8,1.7,1.7,1.7c1,0,1.7-0.8,1.7-1.7
		C424.4,339.6,423.7,338.8,422.7,338.8z"/>
	<path class="st10" d="M407,174c-1,0-1.7,0.8-1.7,1.7s0.8,1.7,1.7,1.7c1,0,1.7-0.8,1.7-1.7S408,174,407,174z"/>
	<circle class="st10" cx="412.2" cy="167.9" r="1.7"/>
	<path class="st10" d="M407,189.7c-1,0-1.7,0.8-1.7,1.7s0.8,1.7,1.7,1.7c1,0,1.7-0.8,1.7-1.7S408,189.7,407,189.7z"/>
	<path class="st10" d="M412.2,181.9c-1,0-1.7,0.8-1.7,1.7c0,1,0.8,1.7,1.7,1.7s1.7-0.8,1.7-1.7C414,182.7,413.2,181.9,412.2,181.9z"
		/>
	<path class="st10" d="M407,205.4c-1,0-1.7,0.8-1.7,1.7s0.8,1.7,1.7,1.7c1,0,1.7-0.8,1.7-1.7S408,205.4,407,205.4z"/>
	<path class="st10" d="M412.2,197.6c-1,0-1.7,0.8-1.7,1.7c0,1,0.8,1.7,1.7,1.7s1.7-0.8,1.7-1.7C414,198.3,413.2,197.6,412.2,197.6z"
		/>
	<path class="st10" d="M407,221.1c-1,0-1.7,0.8-1.7,1.7c0,1,0.8,1.7,1.7,1.7c1,0,1.7-0.8,1.7-1.7C408.7,221.9,408,221.1,407,221.1z"
		/>
	<circle class="st10" cx="412.2" cy="215" r="1.7"/>
	<path class="st10" d="M407,236.8c-1,0-1.7,0.8-1.7,1.7c0,1,0.8,1.7,1.7,1.7c1,0,1.7-0.8,1.7-1.7C408.7,237.5,408,236.8,407,236.8z"
		/>
	<circle class="st10" cx="412.2" cy="230.7" r="1.7"/>
	<path class="st10" d="M407,252.5c-1,0-1.7,0.8-1.7,1.7c0,1,0.8,1.7,1.7,1.7c1,0,1.7-0.8,1.7-1.7C408.7,253.2,408,252.5,407,252.5z"
		/>
	<path class="st10" d="M412.2,244.7c-1,0-1.7,0.8-1.7,1.7s0.8,1.7,1.7,1.7s1.7-0.8,1.7-1.7S413.2,244.7,412.2,244.7z"/>
	<path class="st10" d="M407,268.2c-1,0-1.7,0.8-1.7,1.7s0.8,1.7,1.7,1.7c1,0,1.7-0.8,1.7-1.7S408,268.2,407,268.2z"/>
	<path class="st10" d="M412.2,260.3c-1,0-1.7,0.8-1.7,1.7c0,1,0.8,1.7,1.7,1.7s1.7-0.8,1.7-1.7C414,261.1,413.2,260.3,412.2,260.3z"
		/>
	<path class="st10" d="M407,283.9c-1,0-1.7,0.8-1.7,1.7c0,1,0.8,1.7,1.7,1.7c1,0,1.7-0.8,1.7-1.7C408.7,284.6,408,283.9,407,283.9z"
		/>
	<path class="st10" d="M412.2,276c-1,0-1.7,0.8-1.7,1.7c0,1,0.8,1.7,1.7,1.7s1.7-0.8,1.7-1.7C414,276.8,413.2,276,412.2,276z"/>
	<path class="st10" d="M407,299.5c-1,0-1.7,0.8-1.7,1.7c0,1,0.8,1.7,1.7,1.7c1,0,1.7-0.8,1.7-1.7C408.7,300.3,408,299.5,407,299.5z"
		/>
	<path class="st10" d="M412.2,291.7c-1,0-1.7,0.8-1.7,1.7c0,1,0.8,1.7,1.7,1.7s1.7-0.8,1.7-1.7C414,292.5,413.2,291.7,412.2,291.7z"
		/>
	<path class="st10" d="M407,315.2c-1,0-1.7,0.8-1.7,1.7c0,1,0.8,1.7,1.7,1.7c1,0,1.7-0.8,1.7-1.7C408.7,316,408,315.2,407,315.2z"/>
	<path class="st10" d="M412.2,307.4c-1,0-1.7,0.8-1.7,1.7c0,1,0.8,1.7,1.7,1.7s1.7-0.8,1.7-1.7C414,308.2,413.2,307.4,412.2,307.4z"
		/>
	<path class="st10" d="M407,330.9c-1,0-1.7,0.8-1.7,1.7c0,1,0.8,1.7,1.7,1.7c1,0,1.7-0.8,1.7-1.7C408.7,331.7,408,330.9,407,330.9z"
		/>
	<path class="st10" d="M412.2,323.1c-1,0-1.7,0.8-1.7,1.7c0,1,0.8,1.7,1.7,1.7s1.7-0.8,1.7-1.7C414,323.9,413.2,323.1,412.2,323.1z"
		/>
	<path class="st10" d="M414,340.6c0-1-0.8-1.7-1.7-1.7c-0.8,0-1.4,0.5-1.6,1.2l2.4,2.1C413.6,341.8,414,341.2,414,340.6z"/>
	<path class="st10" d="M396.5,174c-1,0-1.7,0.8-1.7,1.7s0.8,1.7,1.7,1.7s1.7-0.8,1.7-1.7S397.5,174,396.5,174z"/>
	<circle class="st10" cx="401.8" cy="167.9" r="1.7"/>
	<circle class="st10" cx="396.5" cy="191.4" r="1.7"/>
	<path class="st10" d="M401.8,181.9c-1,0-1.7,0.8-1.7,1.7c0,1,0.8,1.7,1.7,1.7s1.7-0.8,1.7-1.7C403.5,182.7,402.7,181.9,401.8,181.9
		z"/>
	<circle class="st10" cx="396.5" cy="207.1" r="1.7"/>
	<path class="st10" d="M401.8,197.6c-1,0-1.7,0.8-1.7,1.7c0,1,0.8,1.7,1.7,1.7s1.7-0.8,1.7-1.7C403.5,198.3,402.7,197.6,401.8,197.6
		z"/>
	<circle class="st10" cx="396.5" cy="222.8" r="1.7"/>
	<circle class="st10" cx="401.8" cy="215" r="1.7"/>
	<path class="st10" d="M396.5,236.8c-1,0-1.7,0.8-1.7,1.7c0,1,0.8,1.7,1.7,1.7s1.7-0.8,1.7-1.7C398.3,237.5,397.5,236.8,396.5,236.8
		z"/>
	<circle class="st10" cx="401.8" cy="230.7" r="1.7"/>
	<circle class="st10" cx="396.5" cy="254.2" r="1.7"/>
	<path class="st10" d="M401.8,244.7c-1,0-1.7,0.8-1.7,1.7s0.8,1.7,1.7,1.7s1.7-0.8,1.7-1.7S402.7,244.7,401.8,244.7z"/>
	<circle class="st10" cx="396.5" cy="269.9" r="1.7"/>
	<path class="st10" d="M401.8,260.3c-1,0-1.7,0.8-1.7,1.7c0,1,0.8,1.7,1.7,1.7s1.7-0.8,1.7-1.7C403.5,261.1,402.7,260.3,401.8,260.3
		z"/>
	<path class="st10" d="M396.5,283.9c-1,0-1.7,0.8-1.7,1.7c0,1,0.8,1.7,1.7,1.7s1.7-0.8,1.7-1.7C398.3,284.6,397.5,283.9,396.5,283.9
		z"/>
	<path class="st10" d="M401.8,276c-1,0-1.7,0.8-1.7,1.7c0,1,0.8,1.7,1.7,1.7s1.7-0.8,1.7-1.7C403.5,276.8,402.7,276,401.8,276z"/>
	<path class="st10" d="M396.5,299.5c-1,0-1.7,0.8-1.7,1.7c0,1,0.8,1.7,1.7,1.7s1.7-0.8,1.7-1.7C398.3,300.3,397.5,299.5,396.5,299.5
		z"/>
	<path class="st10" d="M401.8,291.7c-1,0-1.7,0.8-1.7,1.7c0,1,0.8,1.7,1.7,1.7s1.7-0.8,1.7-1.7C403.5,292.5,402.7,291.7,401.8,291.7
		z"/>
	<path class="st10" d="M396.5,315.2c-1,0-1.7,0.8-1.7,1.7c0,1,0.8,1.7,1.7,1.7s1.7-0.8,1.7-1.7C398.3,316,397.5,315.2,396.5,315.2z"
		/>
	<path class="st10" d="M401.8,307.4c-1,0-1.7,0.8-1.7,1.7c0,1,0.8,1.7,1.7,1.7s1.7-0.8,1.7-1.7C403.5,308.2,402.7,307.4,401.8,307.4
		z"/>
	<path class="st10" d="M401.8,323.1c-1,0-1.7,0.8-1.7,1.7c0,1,0.8,1.7,1.7,1.7s1.7-0.8,1.7-1.7C403.5,323.9,402.7,323.1,401.8,323.1
		z"/>
	<path class="st10" d="M386.1,177.5c1,0,1.7-0.8,1.7-1.7c0-0.5-0.2-0.9-0.5-1.2l-2.9,1.7C384.6,176.9,385.3,177.5,386.1,177.5z"/>
	<circle class="st10" cx="386.1" cy="191.4" r="1.7"/>
	<path class="st10" d="M391.3,181.9c-1,0-1.7,0.8-1.7,1.7c0,1,0.8,1.7,1.7,1.7s1.7-0.8,1.7-1.7C393,182.7,392.3,181.9,391.3,181.9z"
		/>
	<circle class="st10" cx="386.1" cy="207.1" r="1.7"/>
	<path class="st10" d="M391.3,197.6c-1,0-1.7,0.8-1.7,1.7c0,1,0.8,1.7,1.7,1.7s1.7-0.8,1.7-1.7C393,198.3,392.3,197.6,391.3,197.6z"
		/>
	<circle class="st10" cx="386.1" cy="222.8" r="1.7"/>
	<circle class="st10" cx="391.3" cy="215" r="1.7"/>
	<path class="st10" d="M386.1,236.8c-1,0-1.7,0.8-1.7,1.7c0,1,0.8,1.7,1.7,1.7s1.7-0.8,1.7-1.7C387.8,237.5,387,236.8,386.1,236.8z"
		/>
	<circle class="st10" cx="391.3" cy="230.7" r="1.7"/>
	<circle class="st10" cx="386.1" cy="254.2" r="1.7"/>
	<path class="st10" d="M391.3,244.7c-1,0-1.7,0.8-1.7,1.7s0.8,1.7,1.7,1.7s1.7-0.8,1.7-1.7S392.3,244.7,391.3,244.7z"/>
	<circle class="st10" cx="386.1" cy="269.9" r="1.7"/>
	<path class="st10" d="M391.3,260.3c-1,0-1.7,0.8-1.7,1.7c0,1,0.8,1.7,1.7,1.7s1.7-0.8,1.7-1.7C393,261.1,392.3,260.3,391.3,260.3z"
		/>
	<path class="st10" d="M386.1,283.9c-1,0-1.7,0.8-1.7,1.7c0,1,0.8,1.7,1.7,1.7s1.7-0.8,1.7-1.7C387.8,284.6,387,283.9,386.1,283.9z"
		/>
	<path class="st10" d="M391.3,276c-1,0-1.7,0.8-1.7,1.7c0,1,0.8,1.7,1.7,1.7s1.7-0.8,1.7-1.7C393,276.8,392.3,276,391.3,276z"/>
	<path class="st10" d="M386.1,299.5c-1,0-1.7,0.8-1.7,1.7c0,1,0.8,1.7,1.7,1.7s1.7-0.8,1.7-1.7C387.8,300.3,387,299.5,386.1,299.5z"
		/>
	<path class="st10" d="M391.3,291.7c-1,0-1.7,0.8-1.7,1.7c0,1,0.8,1.7,1.7,1.7s1.7-0.8,1.7-1.7C393,292.5,392.3,291.7,391.3,291.7z"
		/>
	<path class="st10" d="M387.8,317c0-1-0.8-1.7-1.7-1.7s-1.7,0.8-1.7,1.7c0,0,0,0,0,0l1.9,1.7C387.1,318.6,387.8,317.9,387.8,317z"/>
	<path class="st10" d="M391.3,307.4c-1,0-1.7,0.8-1.7,1.7c0,1,0.8,1.7,1.7,1.7s1.7-0.8,1.7-1.7C393,308.2,392.3,307.4,391.3,307.4z"
		/>
	<path class="st10" d="M391.3,323.1l1.7,1.5C392.9,323.8,392.2,323.1,391.3,323.1z"/>
	<circle class="st10" cx="375.6" cy="191.4" r="1.7"/>
	<path class="st10" d="M380.8,181.9c-1,0-1.7,0.8-1.7,1.7c0,1,0.8,1.7,1.7,1.7s1.7-0.8,1.7-1.7C382.6,182.7,381.8,181.9,380.8,181.9
		z"/>
	<circle class="st10" cx="375.6" cy="207.1" r="1.7"/>
	<path class="st10" d="M380.8,197.6c-1,0-1.7,0.8-1.7,1.7c0,1,0.8,1.7,1.7,1.7s1.7-0.8,1.7-1.7C382.6,198.3,381.8,197.6,380.8,197.6
		z"/>
	<circle class="st10" cx="375.6" cy="222.8" r="1.7"/>
	<circle class="st10" cx="380.8" cy="215" r="1.7"/>
	<path class="st10" d="M375.6,236.8c-1,0-1.7,0.8-1.7,1.7c0,1,0.8,1.7,1.7,1.7s1.7-0.8,1.7-1.7C377.4,237.5,376.6,236.8,375.6,236.8
		z"/>
	<circle class="st10" cx="380.8" cy="230.7" r="1.7"/>
	<circle class="st10" cx="375.6" cy="254.2" r="1.7"/>
	<path class="st10" d="M380.8,244.7c-1,0-1.7,0.8-1.7,1.7s0.8,1.7,1.7,1.7s1.7-0.8,1.7-1.7S381.8,244.7,380.8,244.7z"/>
	<circle class="st10" cx="375.6" cy="269.9" r="1.7"/>
	<path class="st10" d="M380.8,260.3c-1,0-1.7,0.8-1.7,1.7c0,1,0.8,1.7,1.7,1.7s1.7-0.8,1.7-1.7C382.6,261.1,381.8,260.3,380.8,260.3
		z"/>
	<path class="st10" d="M375.6,283.9c-1,0-1.7,0.8-1.7,1.7c0,1,0.8,1.7,1.7,1.7s1.7-0.8,1.7-1.7C377.4,284.6,376.6,283.9,375.6,283.9
		z"/>
	<path class="st10" d="M380.8,276c-1,0-1.7,0.8-1.7,1.7c0,1,0.8,1.7,1.7,1.7s1.7-0.8,1.7-1.7C382.6,276.8,381.8,276,380.8,276z"/>
	<path class="st10" d="M375.6,299.5c-1,0-1.7,0.8-1.7,1.7c0,1,0.8,1.7,1.7,1.7s1.7-0.8,1.7-1.7C377.4,300.3,376.6,299.5,375.6,299.5
		z"/>
	<path class="st10" d="M380.8,291.7c-1,0-1.7,0.8-1.7,1.7c0,1,0.8,1.7,1.7,1.7s1.7-0.8,1.7-1.7C382.6,292.5,381.8,291.7,380.8,291.7
		z"/>
	<path class="st10" d="M380.8,307.4c-1,0-1.7,0.8-1.7,1.7c0,1,0.8,1.7,1.7,1.7s1.7-0.8,1.7-1.7C382.6,308.2,381.8,307.4,380.8,307.4
		z"/>
	<path class="st10" d="M365.1,189.7c-1,0-1.7,0.8-1.7,1.7s0.8,1.7,1.7,1.7s1.7-0.8,1.7-1.7S366.1,189.7,365.1,189.7z"/>
	<path class="st10" d="M372.1,183.6C372.1,183.6,372.1,183.6,372.1,183.6l-2.6,1.5c0.3,0.2,0.6,0.2,0.9,0.2
		C371.3,185.4,372.1,184.6,372.1,183.6z"/>
	<path class="st10" d="M365.1,205.4c-1,0-1.7,0.8-1.7,1.7s0.8,1.7,1.7,1.7s1.7-0.8,1.7-1.7S366.1,205.4,365.1,205.4z"/>
	<path class="st10" d="M370.4,197.6c-1,0-1.7,0.8-1.7,1.7c0,1,0.8,1.7,1.7,1.7c1,0,1.7-0.8,1.7-1.7
		C372.1,198.3,371.3,197.6,370.4,197.6z"/>
	<path class="st10" d="M365.1,221.1c-1,0-1.7,0.8-1.7,1.7c0,1,0.8,1.7,1.7,1.7s1.7-0.8,1.7-1.7C366.9,221.9,366.1,221.1,365.1,221.1
		z"/>
	<path class="st10" d="M370.4,213.3c-1,0-1.7,0.8-1.7,1.7s0.8,1.7,1.7,1.7c1,0,1.7-0.8,1.7-1.7S371.3,213.3,370.4,213.3z"/>
	<path class="st10" d="M365.1,236.8c-1,0-1.7,0.8-1.7,1.7c0,1,0.8,1.7,1.7,1.7s1.7-0.8,1.7-1.7C366.9,237.5,366.1,236.8,365.1,236.8
		z"/>
	<path class="st10" d="M370.4,229c-1,0-1.7,0.8-1.7,1.7s0.8,1.7,1.7,1.7c1,0,1.7-0.8,1.7-1.7S371.3,229,370.4,229z"/>
	<path class="st10" d="M365.1,252.5c-1,0-1.7,0.8-1.7,1.7c0,1,0.8,1.7,1.7,1.7s1.7-0.8,1.7-1.7C366.9,253.2,366.1,252.5,365.1,252.5
		z"/>
	<path class="st10" d="M370.4,244.7c-1,0-1.7,0.8-1.7,1.7s0.8,1.7,1.7,1.7c1,0,1.7-0.8,1.7-1.7S371.3,244.7,370.4,244.7z"/>
	<path class="st10" d="M365.1,268.2c-1,0-1.7,0.8-1.7,1.7s0.8,1.7,1.7,1.7s1.7-0.8,1.7-1.7S366.1,268.2,365.1,268.2z"/>
	<path class="st10" d="M370.4,260.3c-1,0-1.7,0.8-1.7,1.7c0,1,0.8,1.7,1.7,1.7c1,0,1.7-0.8,1.7-1.7
		C372.1,261.1,371.3,260.3,370.4,260.3z"/>
	<path class="st10" d="M365.1,283.9c-1,0-1.7,0.8-1.7,1.7c0,1,0.8,1.7,1.7,1.7s1.7-0.8,1.7-1.7C366.9,284.6,366.1,283.9,365.1,283.9
		z"/>
	<path class="st10" d="M370.4,276c-1,0-1.7,0.8-1.7,1.7c0,1,0.8,1.7,1.7,1.7c1,0,1.7-0.8,1.7-1.7C372.1,276.8,371.3,276,370.4,276z"
		/>
	<path class="st10" d="M365.1,299.5c-0.2,0-0.4,0-0.6,0.1l2.3,2c0-0.1,0.1-0.3,0.1-0.4C366.9,300.3,366.1,299.5,365.1,299.5z"/>
	<path class="st10" d="M370.4,291.7c-1,0-1.7,0.8-1.7,1.7c0,1,0.8,1.7,1.7,1.7c1,0,1.7-0.8,1.7-1.7
		C372.1,292.5,371.3,291.7,370.4,291.7z"/>
	<circle class="st10" cx="354.7" cy="207.1" r="1.7"/>
	<path class="st10" d="M359.9,197.6c-1,0-1.7,0.8-1.7,1.7c0,1,0.8,1.7,1.7,1.7s1.7-0.8,1.7-1.7C361.7,198.3,360.9,197.6,359.9,197.6
		z"/>
	<circle class="st10" cx="354.7" cy="222.8" r="1.7"/>
	<circle class="st10" cx="359.9" cy="215" r="1.7"/>
	<path class="st10" d="M354.7,236.8c-1,0-1.7,0.8-1.7,1.7c0,1,0.8,1.7,1.7,1.7c1,0,1.7-0.8,1.7-1.7
		C356.4,237.5,355.6,236.8,354.7,236.8z"/>
	<circle class="st10" cx="359.9" cy="230.7" r="1.7"/>
	<circle class="st10" cx="354.7" cy="254.2" r="1.7"/>
	<path class="st10" d="M359.9,244.7c-1,0-1.7,0.8-1.7,1.7s0.8,1.7,1.7,1.7s1.7-0.8,1.7-1.7S360.9,244.7,359.9,244.7z"/>
	<circle class="st10" cx="354.7" cy="269.9" r="1.7"/>
	<path class="st10" d="M359.9,260.3c-1,0-1.7,0.8-1.7,1.7c0,1,0.8,1.7,1.7,1.7s1.7-0.8,1.7-1.7C361.7,261.1,360.9,260.3,359.9,260.3
		z"/>
	<path class="st10" d="M354.7,283.9c-1,0-1.7,0.8-1.7,1.7c0,1,0.8,1.7,1.7,1.7c1,0,1.7-0.8,1.7-1.7
		C356.4,284.6,355.6,283.9,354.7,283.9z"/>
	<path class="st10" d="M359.9,276c-1,0-1.7,0.8-1.7,1.7c0,1,0.8,1.7,1.7,1.7s1.7-0.8,1.7-1.7C361.7,276.8,360.9,276,359.9,276z"/>
	<path class="st10" d="M361.7,293.5c0-1-0.8-1.7-1.7-1.7s-1.7,0.8-1.7,1.7c0,0.3,0.1,0.6,0.2,0.8l0.9,0.8c0.2,0.1,0.4,0.1,0.6,0.1
		C360.9,295.2,361.7,294.4,361.7,293.5z"/>
	<path class="st10" d="M344.2,205.4c-1,0-1.7,0.8-1.7,1.7s0.8,1.7,1.7,1.7s1.7-0.8,1.7-1.7S345.2,205.4,344.2,205.4z"/>
	<path class="st10" d="M349.5,197.6c-1,0-1.7,0.8-1.7,1.7c0,1,0.8,1.7,1.7,1.7c1,0,1.7-0.8,1.7-1.7
		C351.2,198.3,350.4,197.6,349.5,197.6z"/>
	<path class="st10" d="M344.2,221.1c-1,0-1.7,0.8-1.7,1.7c0,1,0.8,1.7,1.7,1.7s1.7-0.8,1.7-1.7C346,221.9,345.2,221.1,344.2,221.1z"
		/>
	<path class="st10" d="M349.5,213.3c-1,0-1.7,0.8-1.7,1.7s0.8,1.7,1.7,1.7c1,0,1.7-0.8,1.7-1.7S350.4,213.3,349.5,213.3z"/>
	<path class="st10" d="M344.2,236.8c-1,0-1.7,0.8-1.7,1.7c0,1,0.8,1.7,1.7,1.7s1.7-0.8,1.7-1.7C346,237.5,345.2,236.8,344.2,236.8z"
		/>
	<path class="st10" d="M349.5,229c-1,0-1.7,0.8-1.7,1.7s0.8,1.7,1.7,1.7c1,0,1.7-0.8,1.7-1.7S350.4,229,349.5,229z"/>
	<path class="st10" d="M344.2,252.5c-1,0-1.7,0.8-1.7,1.7c0,1,0.8,1.7,1.7,1.7s1.7-0.8,1.7-1.7C346,253.2,345.2,252.5,344.2,252.5z"
		/>
	<path class="st10" d="M349.5,244.7c-1,0-1.7,0.8-1.7,1.7s0.8,1.7,1.7,1.7c1,0,1.7-0.8,1.7-1.7S350.4,244.7,349.5,244.7z"/>
	<path class="st10" d="M344.2,268.2c-1,0-1.7,0.8-1.7,1.7s0.8,1.7,1.7,1.7s1.7-0.8,1.7-1.7S345.2,268.2,344.2,268.2z"/>
	<path class="st10" d="M349.5,260.3c-1,0-1.7,0.8-1.7,1.7c0,1,0.8,1.7,1.7,1.7c1,0,1.7-0.8,1.7-1.7
		C351.2,261.1,350.4,260.3,349.5,260.3z"/>
	<path class="st10" d="M349.5,276c-1,0-1.7,0.8-1.7,1.7c0,1,0.8,1.7,1.7,1.7c1,0,1.7-0.8,1.7-1.7C351.2,276.8,350.4,276,349.5,276z"
		/>
	<path class="st10" d="M333.8,208.9c1,0,1.7-0.8,1.7-1.7c0-0.5-0.3-1-0.7-1.4l-2.8,1.7C332.2,208.3,332.9,208.9,333.8,208.9z"/>
	<path class="st10" d="M333.8,221.1c-1,0-1.7,0.8-1.7,1.7c0,1,0.8,1.7,1.7,1.7c1,0,1.7-0.8,1.7-1.7
		C335.5,221.9,334.7,221.1,333.8,221.1z"/>
	<circle class="st10" cx="339" cy="215" r="1.7"/>
	<path class="st10" d="M333.8,236.8c-1,0-1.7,0.8-1.7,1.7c0,1,0.8,1.7,1.7,1.7c1,0,1.7-0.8,1.7-1.7
		C335.5,237.5,334.7,236.8,333.8,236.8z"/>
	<circle class="st10" cx="339" cy="230.7" r="1.7"/>
	<path class="st10" d="M333.8,252.5c-1,0-1.7,0.8-1.7,1.7c0,1,0.8,1.7,1.7,1.7c1,0,1.7-0.8,1.7-1.7
		C335.5,253.2,334.7,252.5,333.8,252.5z"/>
	<path class="st10" d="M339,244.7c-1,0-1.7,0.8-1.7,1.7s0.8,1.7,1.7,1.7s1.7-0.8,1.7-1.7S340,244.7,339,244.7z"/>
	<path class="st10" d="M333.8,268.2c-1,0-1.7,0.8-1.7,1.7s0.8,1.7,1.7,1.7c1,0,1.7-0.8,1.7-1.7S334.7,268.2,333.8,268.2z"/>
	<path class="st10" d="M339,260.3c-1,0-1.7,0.8-1.7,1.7c0,1,0.8,1.7,1.7,1.7s1.7-0.8,1.7-1.7C340.7,261.1,340,260.3,339,260.3z"/>
	<path class="st10" d="M339,276c-0.4,0-0.8,0.1-1.1,0.4l2.6,2.2c0.1-0.3,0.2-0.5,0.2-0.9C340.7,276.8,340,276,339,276z"/>
	<path class="st10" d="M323.3,221.1c-1,0-1.7,0.8-1.7,1.7c0,1,0.8,1.7,1.7,1.7s1.7-0.8,1.7-1.7C325,221.9,324.3,221.1,323.3,221.1z"
		/>
	<path class="st10" d="M328.5,213.3c-1,0-1.7,0.8-1.7,1.7s0.8,1.7,1.7,1.7c1,0,1.7-0.8,1.7-1.7S329.5,213.3,328.5,213.3z"/>
	<path class="st10" d="M323.3,236.8c-1,0-1.7,0.8-1.7,1.7c0,1,0.8,1.7,1.7,1.7s1.7-0.8,1.7-1.7C325,237.5,324.3,236.8,323.3,236.8z"
		/>
	<path class="st10" d="M328.5,229c-1,0-1.7,0.8-1.7,1.7s0.8,1.7,1.7,1.7c1,0,1.7-0.8,1.7-1.7S329.5,229,328.5,229z"/>
	<path class="st10" d="M323.3,252.5c-1,0-1.7,0.8-1.7,1.7c0,1,0.8,1.7,1.7,1.7s1.7-0.8,1.7-1.7C325,253.2,324.3,252.5,323.3,252.5z"
		/>
	<path class="st10" d="M328.5,244.7c-1,0-1.7,0.8-1.7,1.7s0.8,1.7,1.7,1.7c1,0,1.7-0.8,1.7-1.7S329.5,244.7,328.5,244.7z"/>
	<path class="st10" d="M328.5,260.3c-1,0-1.7,0.8-1.7,1.7c0,1,0.8,1.7,1.7,1.7c1,0,1.7-0.8,1.7-1.7
		C330.3,261.1,329.5,260.3,328.5,260.3z"/>
	<path class="st10" d="M312.8,221.1c-1,0-1.7,0.8-1.7,1.7c0,1,0.8,1.7,1.7,1.7c1,0,1.7-0.8,1.7-1.7
		C314.6,221.9,313.8,221.1,312.8,221.1z"/>
	<path class="st10" d="M319.8,215c0-0.1,0-0.2,0-0.2l-2.8,1.6c0.3,0.2,0.6,0.3,1,0.3C319,216.7,319.8,216,319.8,215z"/>
	<path class="st10" d="M312.8,236.8c-1,0-1.7,0.8-1.7,1.7c0,1,0.8,1.7,1.7,1.7c1,0,1.7-0.8,1.7-1.7
		C314.6,237.5,313.8,236.8,312.8,236.8z"/>
	<path class="st10" d="M318.1,229c-1,0-1.7,0.8-1.7,1.7s0.8,1.7,1.7,1.7c1,0,1.7-0.8,1.7-1.7S319,229,318.1,229z"/>
	<path class="st10" d="M314.6,254.2c0-1-0.8-1.7-1.7-1.7c-0.6,0-1.1,0.3-1.4,0.7l2.6,2.3C314.4,255.2,314.6,254.7,314.6,254.2z"/>
	<path class="st10" d="M318.1,244.7c-1,0-1.7,0.8-1.7,1.7s0.8,1.7,1.7,1.7c1,0,1.7-0.8,1.7-1.7S319,244.7,318.1,244.7z"/>
	<path class="st10" d="M302.4,236.8c-1,0-1.7,0.8-1.7,1.7c0,1,0.8,1.7,1.7,1.7c1,0,1.7-0.8,1.7-1.7
		C304.1,237.5,303.3,236.8,302.4,236.8z"/>
	<path class="st10" d="M307.6,229c-1,0-1.7,0.8-1.7,1.7s0.8,1.7,1.7,1.7c1,0,1.7-0.8,1.7-1.7S308.6,229,307.6,229z"/>
	<path class="st10" d="M307.6,244.7c-1,0-1.7,0.8-1.7,1.7s0.8,1.7,1.7,1.7c1,0,1.7-0.8,1.7-1.7S308.6,244.7,307.6,244.7z"/>
	<path class="st10" d="M297.1,229c-1,0-1.7,0.8-1.7,1.7s0.8,1.7,1.7,1.7c1,0,1.7-0.8,1.7-1.7S298.1,229,297.1,229z"/>
</g>
<g>
	<polygon class="st6" points="278.2,199.9 277.7,198.3 277.7,199.9 	"/>
	<polygon class="st6" points="294.3,140.4 294.7,140.4 294.7,136 	"/>
	<path class="st11" d="M243.7,62.6c-1.7,0.4-3.3,0.9-4.9,1.3h4.9V62.6z"/>
	<path class="st11" d="M260.7,63.9v-4.8c-2.8,0.4-5.7,0.9-8.5,1.5v3.3H260.7z"/>
	<path class="st11" d="M277.7,63.9v-6.5c-2.8,0.1-5.7,0.4-8.5,0.7v5.9H277.7z"/>
	<path class="st11" d="M294.7,63.9v-6.6c-2.8-0.1-5.7-0.2-8.5-0.2v6.7H294.7z"/>
	<rect x="243.7" y="63.9" class="st11" width="8.5" height="8.5"/>
	<rect x="260.7" y="63.9" class="st11" width="8.5" height="8.5"/>
	<rect x="277.7" y="63.9" class="st11" width="8.5" height="8.5"/>
	<polygon class="st11" points="294.7,72.4 300.4,72.4 301.2,63.9 294.7,63.9 	"/>
	<polygon class="st11" points="243.7,72.4 240.5,72.4 243,80.9 243.7,80.9 	"/>
	<rect x="252.2" y="72.4" class="st11" width="8.5" height="8.5"/>
	<rect x="269.2" y="72.4" class="st11" width="8.5" height="8.5"/>
	<rect x="286.2" y="72.4" class="st11" width="8.5" height="8.5"/>
	<polygon class="st11" points="252.2,89.4 252.2,80.9 243.7,80.9 243.7,83.2 245.6,89.4 	"/>
	<rect x="260.7" y="80.9" class="st11" width="8.5" height="8.5"/>
	<rect x="277.7" y="80.9" class="st11" width="8.5" height="8.5"/>
	<polygon class="st11" points="294.7,89.4 298.9,89.4 299.7,80.9 294.7,80.9 	"/>
	<rect x="252.2" y="89.4" class="st11" width="8.5" height="8.5"/>
	<rect x="269.2" y="89.4" class="st11" width="8.5" height="8.5"/>
	<rect x="286.2" y="89.4" class="st11" width="8.5" height="8.5"/>
	<polygon class="st11" points="252.2,97.9 248.1,97.9 250.6,106.4 252.2,106.4 	"/>
	<rect x="260.7" y="97.9" class="st11" width="8.5" height="8.5"/>
	<rect x="277.7" y="97.9" class="st11" width="8.5" height="8.5"/>
	<polygon class="st11" points="294.7,106.4 297.4,106.4 298.1,97.9 294.7,97.9 	"/>
	<polygon class="st11" points="260.7,114.9 260.7,106.4 252.2,106.4 252.2,112 253.1,114.9 	"/>
	<rect x="269.2" y="106.4" class="st11" width="8.5" height="8.5"/>
	<rect x="286.2" y="106.4" class="st11" width="8.5" height="8.5"/>
	<rect x="260.7" y="114.9" class="st11" width="8.5" height="8.5"/>
	<rect x="277.7" y="114.9" class="st11" width="8.5" height="8.5"/>
	<polygon class="st11" points="294.7,123.4 295.9,123.4 296.6,114.9 294.7,114.9 	"/>
	<polygon class="st11" points="260.7,123.4 255.6,123.4 258.1,131.9 260.7,131.9 	"/>
	<rect x="269.2" y="123.4" class="st11" width="8.5" height="8.5"/>
	<rect x="286.2" y="123.4" class="st11" width="8.5" height="8.5"/>
	<rect x="260.7" y="131.9" class="st11" width="8.5" height="8.5"/>
	<rect x="277.7" y="131.9" class="st11" width="8.5" height="8.5"/>
	<polygon class="st11" points="294.7,136 295.1,131.9 294.7,131.9 	"/>
	<polygon class="st11" points="260.6,140.4 260.7,140.7 260.7,140.4 	"/>
	<rect x="269.2" y="140.4" class="st11" width="8.5" height="8.5"/>
	<polygon class="st11" points="286.2,148.9 293.6,148.9 294.3,140.4 286.2,140.4 	"/>
	<polygon class="st11" points="269.2,148.9 263.1,148.9 265.6,157.4 269.2,157.4 	"/>
	<rect x="277.7" y="148.9" class="st11" width="8.5" height="8.5"/>
	<rect x="269.2" y="157.4" class="st11" width="8.5" height="8.5"/>
	<polygon class="st11" points="286.2,165.9 292,165.9 292.8,157.4 286.2,157.4 	"/>
	<polygon class="st11" points="268.2,165.9 269.2,169.5 269.2,165.9 	"/>
	<rect x="277.7" y="165.9" class="st11" width="8.5" height="8.5"/>
	<polygon class="st11" points="273.2,182.9 277.7,182.9 277.7,174.4 270.7,174.4 	"/>
	<polygon class="st11" points="286.2,182.9 290.5,182.9 291.3,174.4 286.2,174.4 	"/>
	<rect x="277.7" y="182.9" class="st11" width="8.5" height="8.5"/>
	<polygon class="st11" points="277.7,198.3 277.7,191.4 275.7,191.4 	"/>
	<polygon class="st11" points="286.2,199.9 289,199.9 289.7,191.4 286.2,191.4 	"/>
	<polygon class="st11" points="280.7,208.4 286.2,208.4 286.2,199.9 278.2,199.9 	"/>
	<polygon class="st11" points="286.2,216.9 287.4,216.9 288.2,208.4 286.2,208.4 	"/>
	<polygon class="st11" points="286.2,216.9 283.2,216.9 285.7,225.4 286.2,225.4 	"/>
	<polygon class="st11" points="286.7,225.4 286.2,225.4 286.2,227.1 286.5,227.8 	"/>
</g>
<path class="st12" d="M270.2,53.9l-3-43.5h84"/>
<path d="M362.7,10.3l-1.5,1.8v3.3h-2.1V4.2h2.1v5.5h0.1l1.6-2.1l2.8-3.4h2.4l-3.9,4.7l4.2,6.5h-2.5L362.7,10.3z M372.7,15.6
	c-0.6,0-1.1-0.1-1.6-0.3c-0.5-0.2-0.9-0.5-1.2-0.9c-0.3-0.4-0.6-0.8-0.8-1.4c-0.2-0.5-0.3-1.2-0.3-1.8c0-0.7,0.1-1.3,0.3-1.8
	c0.2-0.5,0.4-1,0.8-1.4c0.3-0.4,0.7-0.7,1.2-0.9c0.5-0.2,1-0.3,1.6-0.3c0.6,0,1.1,0.1,1.6,0.3c0.5,0.2,0.9,0.5,1.2,0.9
	c0.3,0.4,0.6,0.8,0.8,1.4c0.2,0.5,0.3,1.1,0.3,1.8c0,0.7-0.1,1.3-0.3,1.8c-0.2,0.5-0.4,1-0.8,1.4c-0.3,0.4-0.7,0.7-1.2,0.9
	C373.9,15.5,373.3,15.6,372.7,15.6z M372.7,13.9c0.5,0,1-0.2,1.3-0.5c0.3-0.3,0.5-0.8,0.5-1.5v-1.6c0-0.6-0.2-1.1-0.5-1.4
	c-0.3-0.3-0.7-0.5-1.3-0.5c-0.5,0-1,0.2-1.3,0.5c-0.3,0.3-0.5,0.8-0.5,1.4V12c0,0.6,0.2,1.1,0.5,1.5
	C371.8,13.8,372.2,13.9,372.7,13.9z M380.5,15.4c-0.7,0-1.2-0.2-1.6-0.5c-0.3-0.4-0.5-0.8-0.5-1.5V3.6h2v10.2h1.1v1.6H380.5z
	 M385.1,15.4c-0.7,0-1.2-0.2-1.6-0.5c-0.3-0.4-0.5-0.8-0.5-1.5V3.6h2v10.2h1.1v1.6H385.1z M391.1,15.6c-0.6,0-1.2-0.1-1.7-0.3
	c-0.5-0.2-0.9-0.5-1.2-0.9c-0.3-0.4-0.6-0.8-0.8-1.4c-0.2-0.5-0.3-1.2-0.3-1.8c0-0.7,0.1-1.3,0.3-1.8c0.2-0.5,0.4-1,0.8-1.4
	c0.3-0.4,0.7-0.7,1.2-0.9c0.5-0.2,1-0.3,1.6-0.3c0.6,0,1.2,0.1,1.7,0.3c0.5,0.2,0.9,0.5,1.2,0.9c0.3,0.4,0.5,0.8,0.7,1.3
	c0.2,0.5,0.2,1,0.2,1.6v0.7h-5.6v0.2c0,0.6,0.2,1.1,0.5,1.5c0.3,0.4,0.8,0.5,1.5,0.5c0.5,0,0.9-0.1,1.2-0.3c0.3-0.2,0.6-0.5,0.9-0.8
	l1.1,1.2c-0.3,0.5-0.8,0.9-1.4,1.1C392.6,15.5,391.9,15.6,391.1,15.6z M391.1,8.4c-0.5,0-1,0.2-1.3,0.5c-0.3,0.4-0.5,0.8-0.5,1.4
	v0.1h3.4v-0.1c0-0.6-0.1-1-0.4-1.4C392,8.6,391.6,8.4,391.1,8.4z M396.7,3.6h2v7.1h0.1l1.1-1.5l1.9-2.1h2.3l-2.9,3.2l3.2,5.1H402
	l-2.1-3.7l-1.1,1.2v2.5h-2V3.6z M408.1,15.4c-0.7,0-1.2-0.2-1.6-0.5c-0.4-0.4-0.5-0.9-0.5-1.6V8.7h-1.2V7h0.6c0.3,0,0.5-0.1,0.6-0.2
	c0.1-0.1,0.2-0.4,0.2-0.7V4.8h1.8V7h1.7v1.6H408v5.1h1.6v1.6H408.1z M412.5,5.8c-0.4,0-0.7-0.1-0.9-0.3c-0.2-0.2-0.3-0.4-0.3-0.7
	V4.5c0-0.3,0.1-0.5,0.3-0.7c0.2-0.2,0.5-0.3,0.9-0.3c0.4,0,0.7,0.1,0.9,0.3c0.2,0.2,0.3,0.4,0.3,0.7v0.3c0,0.3-0.1,0.5-0.3,0.7
	C413.2,5.7,412.9,5.8,412.5,5.8z M411.5,7h2v8.4h-2V7z M417.7,15.4L414.9,7h2l1.2,3.6l0.8,3h0.1l0.8-3L421,7h2l-2.8,8.4H417.7z
	 M430.7,15.4c-0.7,0-1.2-0.2-1.6-0.5c-0.4-0.4-0.5-0.9-0.5-1.6V8.7h-1.2V7h0.6c0.3,0,0.5-0.1,0.6-0.2c0.1-0.1,0.2-0.4,0.2-0.7V4.8
	h1.8V7h1.7v1.6h-1.7v5.1h1.6v1.6H430.7z M434.1,15.4V7h2v1.7h0.1c0.1-0.2,0.1-0.4,0.2-0.6c0.1-0.2,0.3-0.4,0.4-0.6
	c0.2-0.2,0.4-0.3,0.6-0.4c0.3-0.1,0.6-0.1,0.9-0.1h0.4V9h-0.6c-0.7,0-1.2,0.1-1.6,0.3c-0.4,0.2-0.5,0.5-0.5,1v5.1H434.1z
	 M446.3,15.4c-0.4,0-0.8-0.1-1.1-0.4c-0.3-0.3-0.4-0.6-0.5-1.1h-0.1c-0.1,0.5-0.4,1-0.8,1.2c-0.4,0.3-1,0.4-1.6,0.4
	c-0.9,0-1.5-0.2-2-0.7c-0.5-0.4-0.7-1-0.7-1.8c0-0.9,0.3-1.5,0.9-1.9c0.6-0.4,1.5-0.6,2.6-0.6h1.4V10c0-0.5-0.1-0.8-0.4-1.1
	c-0.2-0.3-0.6-0.4-1.2-0.4c-0.5,0-0.9,0.1-1.2,0.3c-0.3,0.2-0.5,0.4-0.7,0.7l-1.2-1.1c0.3-0.5,0.7-0.9,1.2-1.2
	c0.5-0.3,1.2-0.4,2-0.4c1.1,0,2,0.3,2.6,0.8c0.6,0.5,0.9,1.2,0.9,2.2v3.9h0.8v1.6H446.3z M442.9,14.1c0.5,0,0.8-0.1,1.2-0.3
	s0.5-0.5,0.5-0.9v-1.1h-1.3c-1.1,0-1.6,0.3-1.6,1v0.3c0,0.3,0.1,0.6,0.3,0.8C442.2,14,442.5,14.1,442.9,14.1z M449.5,8.7h-1.2V7h1.2
	V5.8c0-0.7,0.2-1.3,0.6-1.7c0.4-0.4,1-0.6,1.7-0.6h1.5v1.6h-1.7V7h5.2v8.4h-2V8.7h-3.1v6.7h-2V8.7z M455.7,5.8
	c-0.4,0-0.7-0.1-0.9-0.3c-0.2-0.2-0.3-0.4-0.3-0.7V4.5c0-0.3,0.1-0.5,0.3-0.7c0.2-0.2,0.5-0.3,0.9-0.3c0.4,0,0.7,0.1,0.9,0.3
	c0.2,0.2,0.3,0.4,0.3,0.7v0.3c0,0.3-0.1,0.5-0.3,0.7C456.4,5.7,456.1,5.8,455.7,5.8z M459.1,3.6h2v7.1h0.1l1.1-1.5l1.9-2.1h2.3
	l-2.9,3.2l3.2,5.1h-2.4l-2.1-3.7l-1.1,1.2v2.5h-2V3.6z M475.5,15.6c-0.6,0-1.2-0.1-1.7-0.3c-0.5-0.2-0.9-0.5-1.3-0.9
	c-0.4-0.4-0.6-0.8-0.8-1.4c-0.2-0.5-0.3-1.2-0.3-1.8c0-0.8,0.1-1.6,0.4-2.3c0.2-0.7,0.6-1.4,0.9-2c0.4-0.6,0.8-1.1,1.3-1.6
	c0.5-0.5,1-0.9,1.4-1.2h2.8c-0.7,0.5-1.3,0.9-1.8,1.4c-0.5,0.4-1,0.9-1.4,1.3c-0.4,0.4-0.7,0.9-1,1.4c-0.2,0.5-0.4,1-0.6,1.6l0.1,0
	c0.1-0.2,0.2-0.4,0.4-0.6c0.1-0.2,0.3-0.4,0.5-0.5c0.2-0.2,0.4-0.3,0.7-0.4c0.3-0.1,0.6-0.1,0.9-0.1c0.5,0,0.9,0.1,1.3,0.2
	c0.4,0.2,0.8,0.4,1,0.7c0.3,0.3,0.5,0.7,0.7,1.1c0.2,0.4,0.3,0.9,0.3,1.4c0,0.6-0.1,1.1-0.3,1.6c-0.2,0.5-0.5,0.9-0.8,1.2
	c-0.4,0.3-0.8,0.6-1.3,0.8C476.7,15.5,476.1,15.6,475.5,15.6z M475.5,13.9c0.6,0,1-0.2,1.4-0.5c0.3-0.3,0.5-0.8,0.5-1.4v-0.2
	c0-0.6-0.2-1.1-0.5-1.4c-0.3-0.3-0.8-0.5-1.4-0.5c-0.6,0-1.1,0.2-1.4,0.5c-0.3,0.3-0.5,0.8-0.5,1.4V12c0,0.6,0.2,1.1,0.5,1.4
	C474.5,13.8,474.9,13.9,475.5,13.9z M483.1,15.4l7.7-11.2h1.9L485,15.4H483.1z M483.9,10.4c-0.9,0-1.6-0.3-2.1-0.8
	c-0.5-0.5-0.7-1.3-0.7-2.4c0-1,0.2-1.8,0.7-2.4c0.5-0.5,1.2-0.8,2.1-0.8s1.6,0.3,2.1,0.8c0.5,0.5,0.7,1.3,0.7,2.4
	c0,1-0.2,1.8-0.7,2.4C485.5,10.1,484.8,10.4,483.9,10.4z M483.9,9.2c0.7,0,1-0.5,1-1.5V6.8c0-1-0.3-1.5-1-1.5s-1,0.5-1,1.5v0.9
	C482.9,8.6,483.3,9.2,483.9,9.2z M492,15.6c-0.9,0-1.6-0.3-2.1-0.8c-0.5-0.5-0.7-1.3-0.7-2.4s0.2-1.8,0.7-2.4
	c0.5-0.5,1.2-0.8,2.1-0.8c0.9,0,1.6,0.3,2.1,0.8c0.5,0.5,0.7,1.3,0.7,2.4s-0.2,1.8-0.7,2.4C493.6,15.3,492.9,15.6,492,15.6z
	 M492,14.4c0.7,0,1-0.5,1-1.5V12c0-1-0.3-1.5-1-1.5c-0.7,0-1,0.5-1,1.5v0.9C491,13.9,491.3,14.4,492,14.4z"/>
<path class="st12" d="M468,251.9l32.4,2.8"/>
<path d="M514.3,258.7L514.3,258.7c-0.2,0.5-0.5,1-1,1.4c-0.5,0.4-1.2,0.5-2,0.5c-0.7,0-1.3-0.1-1.8-0.4c-0.6-0.2-1-0.6-1.5-1.1
	c-0.4-0.5-0.7-1.1-1-1.8c-0.2-0.7-0.4-1.5-0.4-2.5s0.1-1.8,0.4-2.5c0.2-0.7,0.6-1.3,1-1.8c0.4-0.5,1-0.9,1.6-1.1
	c0.6-0.3,1.3-0.4,2-0.4c1,0,1.9,0.2,2.6,0.7c0.7,0.4,1.3,1.1,1.7,1.9l-1.7,1c-0.2-0.5-0.5-0.9-0.9-1.2c-0.4-0.3-0.9-0.5-1.6-0.5
	c-0.8,0-1.5,0.3-2,0.8c-0.5,0.5-0.7,1.2-0.7,2.2v1.8c0,1,0.3,1.7,0.8,2.2c0.5,0.5,1.2,0.8,2,0.8c0.3,0,0.6,0,0.9-0.1
	c0.3-0.1,0.5-0.2,0.8-0.4c0.2-0.2,0.4-0.4,0.5-0.6c0.1-0.2,0.2-0.5,0.2-0.8v-0.7h-2.2v-1.8h4.2v6.1h-1.8V258.7z M524.5,260.4
	c-0.4,0-0.8-0.1-1.1-0.4c-0.3-0.3-0.4-0.6-0.5-1.1h-0.1c-0.1,0.5-0.4,1-0.8,1.2c-0.4,0.3-1,0.4-1.6,0.4c-0.9,0-1.5-0.2-2-0.7
	c-0.5-0.4-0.7-1-0.7-1.8c0-0.9,0.3-1.5,0.9-1.9c0.6-0.4,1.5-0.6,2.6-0.6h1.4V255c0-0.5-0.1-0.8-0.4-1.1c-0.2-0.3-0.6-0.4-1.2-0.4
	c-0.5,0-0.9,0.1-1.2,0.3c-0.3,0.2-0.5,0.4-0.7,0.7l-1.2-1.1c0.3-0.5,0.7-0.9,1.2-1.2c0.5-0.3,1.2-0.4,2-0.4c1.1,0,2,0.3,2.6,0.8
	c0.6,0.5,0.9,1.2,0.9,2.2v3.9h0.8v1.6H524.5z M521.2,259.1c0.5,0,0.8-0.1,1.2-0.3s0.5-0.5,0.5-0.9v-1.1h-1.3c-1.1,0-1.6,0.3-1.6,1
	v0.3c0,0.3,0.1,0.6,0.3,0.8C520.4,259,520.8,259.1,521.2,259.1z M527.3,260.4V252h2v1.4h0.1c0.2-0.4,0.4-0.8,0.8-1.1
	c0.4-0.3,0.9-0.5,1.5-0.5c0.9,0,1.5,0.3,2,0.8c0.5,0.6,0.7,1.4,0.7,2.4v5.3h-2v-5.1c0-0.6-0.1-1-0.3-1.3c-0.2-0.3-0.6-0.4-1.1-0.4
	c-0.2,0-0.4,0-0.6,0.1c-0.2,0.1-0.4,0.1-0.5,0.3c-0.2,0.1-0.3,0.2-0.4,0.4c-0.1,0.2-0.1,0.4-0.1,0.6v5.5H527.3z M544.3,261.1
	c0,0.4-0.1,0.8-0.2,1.2c-0.1,0.3-0.4,0.6-0.8,0.8c-0.4,0.2-0.8,0.4-1.4,0.5c-0.6,0.1-1.2,0.2-2,0.2c-0.7,0-1.3,0-1.8-0.1
	c-0.5-0.1-0.9-0.2-1.2-0.4c-0.3-0.2-0.5-0.4-0.7-0.6c-0.1-0.2-0.2-0.5-0.2-0.8c0-0.5,0.1-0.8,0.4-1.1c0.3-0.3,0.6-0.4,1.1-0.5V260
	c-0.3-0.1-0.6-0.3-0.8-0.5c-0.2-0.3-0.3-0.6-0.3-0.9c0-0.2,0-0.4,0.1-0.6c0.1-0.2,0.2-0.3,0.3-0.4c0.1-0.1,0.3-0.2,0.5-0.3
	c0.2-0.1,0.4-0.1,0.6-0.2v-0.1c-0.5-0.2-0.9-0.6-1.2-1c-0.2-0.4-0.4-0.9-0.4-1.5c0-0.9,0.3-1.5,0.9-2c0.6-0.5,1.4-0.8,2.6-0.8
	c0.3,0,0.5,0,0.8,0c0.3,0,0.5,0.1,0.7,0.2v-0.3c0-0.8,0.4-1.2,1.2-1.2h1.3v1.6h-1.8v0.2c0.4,0.2,0.8,0.6,1,1
	c0.2,0.4,0.3,0.8,0.3,1.4c0,0.8-0.3,1.5-0.9,2c-0.6,0.5-1.4,0.8-2.6,0.8c-0.5,0-0.9,0-1.3-0.1c-0.2,0.1-0.3,0.2-0.4,0.3
	c-0.1,0.1-0.2,0.3-0.2,0.4c0,0.4,0.4,0.6,1.1,0.6h2.2c1,0,1.8,0.2,2.2,0.6C544,259.8,544.3,260.4,544.3,261.1z M542.4,261.3
	c0-0.3-0.1-0.5-0.3-0.6c-0.2-0.1-0.6-0.2-1.1-0.2h-2.8c-0.3,0.2-0.4,0.5-0.4,0.9c0,0.3,0.1,0.6,0.4,0.8c0.3,0.2,0.7,0.3,1.4,0.3h1
	c0.7,0,1.2-0.1,1.5-0.3C542.2,262,542.4,261.7,542.4,261.3z M539.9,256.1c1,0,1.5-0.4,1.5-1.3v-0.3c0-0.9-0.5-1.3-1.5-1.3
	c-1,0-1.5,0.4-1.5,1.3v0.3C538.4,255.7,538.9,256.1,539.9,256.1z M556.8,260.4h-7.7v-2l3.5-3.1c0.6-0.5,1-1,1.3-1.4
	c0.3-0.4,0.4-0.9,0.4-1.4v-0.2c0-0.5-0.2-0.9-0.5-1.1c-0.3-0.3-0.7-0.4-1.2-0.4c-0.6,0-1,0.2-1.3,0.5c-0.3,0.3-0.5,0.7-0.6,1.2
	l-1.8-0.7c0.1-0.4,0.3-0.7,0.5-1.1c0.2-0.3,0.5-0.6,0.8-0.9c0.3-0.3,0.7-0.5,1.2-0.6c0.4-0.1,0.9-0.2,1.5-0.2c0.6,0,1.1,0.1,1.6,0.3
	c0.5,0.2,0.8,0.4,1.2,0.7c0.3,0.3,0.6,0.7,0.7,1.1c0.2,0.4,0.3,0.8,0.3,1.3c0,0.5-0.1,0.9-0.2,1.3c-0.1,0.4-0.4,0.8-0.6,1.1
	c-0.3,0.3-0.6,0.7-0.9,1c-0.3,0.3-0.7,0.6-1.1,0.9l-2.4,1.9h5.5V260.4z M562.5,260.6c-0.7,0-1.3-0.1-1.9-0.4c-0.5-0.3-1-0.6-1.3-1.1
	c-0.3-0.5-0.6-1.1-0.8-1.8c-0.2-0.7-0.2-1.5-0.2-2.4c0-0.9,0.1-1.7,0.2-2.4c0.2-0.7,0.4-1.3,0.8-1.8c0.3-0.5,0.8-0.9,1.3-1.1
	c0.5-0.3,1.1-0.4,1.9-0.4c1.4,0,2.5,0.5,3.1,1.5c0.7,1,1,2.4,1,4.3c0,1.8-0.3,3.2-1,4.3C564.9,260.1,563.9,260.6,562.5,260.6z
	 M562.5,258.8c0.7,0,1.2-0.3,1.5-0.8c0.3-0.5,0.4-1.3,0.4-2.2v-2c0-0.9-0.1-1.6-0.4-2.2c-0.3-0.5-0.8-0.8-1.5-0.8
	c-0.7,0-1.2,0.3-1.5,0.8c-0.3,0.5-0.4,1.3-0.4,2.2v2c0,0.9,0.1,1.6,0.4,2.2C561.2,258.5,561.7,258.8,562.5,258.8z M570.1,260.4
	l7.7-11.2h1.9l-7.7,11.2H570.1z M570.9,255.4c-0.9,0-1.6-0.3-2.1-0.8c-0.5-0.5-0.7-1.3-0.7-2.4c0-1,0.2-1.8,0.7-2.4
	c0.5-0.5,1.2-0.8,2.1-0.8c0.9,0,1.6,0.3,2.1,0.8c0.5,0.5,0.7,1.3,0.7,2.4c0,1-0.2,1.8-0.7,2.4C572.5,255.1,571.8,255.4,570.9,255.4z
	 M570.9,254.2c0.7,0,1-0.5,1-1.5v-0.9c0-1-0.3-1.5-1-1.5c-0.7,0-1,0.5-1,1.5v0.9C569.9,253.6,570.2,254.2,570.9,254.2z M579,260.6
	c-0.9,0-1.6-0.3-2.1-0.8c-0.5-0.5-0.7-1.3-0.7-2.4c0-1,0.2-1.8,0.7-2.4c0.5-0.5,1.2-0.8,2.1-0.8c0.9,0,1.6,0.3,2.1,0.8
	c0.5,0.5,0.7,1.3,0.7,2.4c0,1-0.2,1.8-0.7,2.4C580.6,260.3,579.9,260.6,579,260.6z M579,259.4c0.7,0,1-0.5,1-1.5V257
	c0-1-0.3-1.5-1-1.5c-0.7,0-1,0.5-1,1.5v0.9C578,258.9,578.3,259.4,579,259.4z"/>
<path class="st12" d="M167,19.4h49.3l13.5,40.5"/>
<path d="M96.4,25.4l-0.9-2.8h-4l-0.9,2.8h-2.1l3.7-11.2h2.6l3.7,11.2H96.4z M93.6,16.1L93.6,16.1l-1.5,4.6H95L93.6,16.1z
	 M100.2,25.4V17h2v1.4h0.1c0.2-0.4,0.4-0.8,0.8-1.1c0.4-0.3,0.9-0.5,1.5-0.5c0.9,0,1.5,0.3,2,0.8s0.7,1.4,0.7,2.4v5.3h-2v-5.1
	c0-0.6-0.1-1-0.3-1.3c-0.2-0.3-0.6-0.4-1.1-0.4c-0.2,0-0.4,0-0.6,0.1c-0.2,0.1-0.4,0.1-0.5,0.3c-0.1,0.1-0.3,0.2-0.4,0.4
	c-0.1,0.2-0.1,0.4-0.1,0.6v5.5H100.2z M114.7,24L114.7,24c-0.2,0.5-0.5,0.9-0.9,1.2c-0.4,0.3-0.9,0.4-1.5,0.4
	c-1.1,0-1.9-0.4-2.4-1.1c-0.6-0.8-0.8-1.8-0.8-3.2c0-1.4,0.3-2.5,0.8-3.2c0.6-0.8,1.4-1.1,2.4-1.1c0.6,0,1,0.1,1.5,0.4
	c0.4,0.3,0.7,0.7,0.8,1.1h0.1v-4.9h2v11.8h-2V24z M113,23.9c0.5,0,0.9-0.1,1.2-0.4c0.3-0.2,0.5-0.6,0.5-1v-2.7c0-0.4-0.2-0.7-0.5-1
	c-0.3-0.2-0.7-0.4-1.2-0.4c-0.5,0-1,0.2-1.3,0.5c-0.3,0.4-0.5,0.8-0.5,1.4v1.4c0,0.6,0.2,1.1,0.5,1.4
	C112.1,23.7,112.5,23.9,113,23.9z M122.5,25.6c-0.6,0-1.2-0.1-1.7-0.3c-0.5-0.2-0.9-0.5-1.2-0.9c-0.3-0.4-0.6-0.8-0.8-1.4
	c-0.2-0.5-0.3-1.2-0.3-1.8c0-0.7,0.1-1.3,0.3-1.8c0.2-0.5,0.4-1,0.8-1.4c0.3-0.4,0.7-0.7,1.2-0.9c0.5-0.2,1-0.3,1.6-0.3
	c0.7,0,1.2,0.1,1.7,0.3s0.9,0.5,1.2,0.9c0.3,0.4,0.5,0.8,0.7,1.3c0.2,0.5,0.2,1,0.2,1.6v0.7h-5.6v0.2c0,0.6,0.2,1.1,0.5,1.5
	c0.3,0.4,0.8,0.5,1.5,0.5c0.5,0,0.9-0.1,1.2-0.3c0.3-0.2,0.6-0.5,0.9-0.8l1.1,1.2c-0.3,0.5-0.8,0.9-1.4,1.1
	C124,25.5,123.3,25.6,122.5,25.6z M122.5,18.4c-0.5,0-1,0.2-1.3,0.5c-0.3,0.4-0.5,0.8-0.5,1.4v0.1h3.4v-0.1c0-0.6-0.1-1-0.4-1.4
	C123.4,18.6,123,18.4,122.5,18.4z M130.7,25.4c-0.7,0-1.2-0.2-1.6-0.5c-0.4-0.4-0.5-0.9-0.5-1.6v-4.6h-1.2V17h0.6
	c0.3,0,0.5-0.1,0.6-0.2c0.1-0.1,0.2-0.4,0.2-0.7v-1.4h1.8V17h1.7v1.6h-1.7v5.1h1.6v1.6H130.7z M138.1,25.4v-1.7h3.1v-7.9H141
	l-2.4,2.9l-1.3-1.1l2.8-3.3h3.2v9.5h2.6v1.7H138.1z M149.1,25.4l7.7-11.2h1.9L151,25.4H149.1z M149.9,20.4c-0.9,0-1.6-0.3-2.1-0.8
	c-0.5-0.5-0.7-1.3-0.7-2.4c0-1,0.2-1.8,0.7-2.4c0.5-0.5,1.2-0.8,2.1-0.8c0.9,0,1.6,0.3,2.1,0.8c0.5,0.5,0.7,1.3,0.7,2.4
	c0,1-0.2,1.8-0.7,2.4C151.5,20.1,150.8,20.4,149.9,20.4z M149.9,19.2c0.7,0,1-0.5,1-1.5v-0.9c0-1-0.3-1.5-1-1.5c-0.7,0-1,0.5-1,1.5
	v0.9C148.9,18.6,149.2,19.2,149.9,19.2z M158,25.6c-0.9,0-1.6-0.3-2.1-0.8c-0.5-0.5-0.7-1.3-0.7-2.4c0-1,0.2-1.8,0.7-2.4
	c0.5-0.5,1.2-0.8,2.1-0.8c0.9,0,1.6,0.3,2.1,0.8c0.5,0.5,0.7,1.3,0.7,2.4c0,1-0.2,1.8-0.7,2.4C159.6,25.3,158.9,25.6,158,25.6z
	 M158,24.4c0.7,0,1-0.5,1-1.5V22c0-1-0.3-1.5-1-1.5c-0.7,0-1,0.5-1,1.5v0.9C157,23.9,157.3,24.4,158,24.4z"/>
<path class="st12" d="M62.2,345.9h47l26-12"/>
<path d="M0,340.2h5.2c0.5,0,0.9,0.1,1.2,0.2c0.4,0.1,0.7,0.3,0.9,0.6c0.3,0.2,0.4,0.5,0.6,0.9c0.1,0.4,0.2,0.7,0.2,1.2
	c0,0.4-0.1,0.8-0.2,1.1c-0.1,0.3-0.3,0.5-0.4,0.7c-0.2,0.2-0.4,0.3-0.6,0.4c-0.2,0.1-0.5,0.1-0.7,0.2v0.1c0.2,0,0.5,0,0.8,0.1
	c0.3,0.1,0.5,0.3,0.8,0.5c0.2,0.2,0.4,0.5,0.6,0.8c0.2,0.3,0.2,0.7,0.2,1.2c0,0.4-0.1,0.9-0.2,1.3c-0.1,0.4-0.3,0.7-0.6,1
	c-0.3,0.3-0.6,0.5-0.9,0.7c-0.4,0.2-0.7,0.2-1.2,0.2H0V340.2z M2.1,349.6h2.9c0.4,0,0.7-0.1,0.9-0.3c0.2-0.2,0.3-0.5,0.3-0.9v-0.5
	c0-0.4-0.1-0.7-0.3-0.9c-0.2-0.2-0.5-0.3-0.9-0.3H2.1V349.6z M2.1,344.9h2.6c0.4,0,0.7-0.1,0.9-0.3c0.2-0.2,0.3-0.5,0.3-0.9v-0.5
	c0-0.4-0.1-0.7-0.3-0.9c-0.2-0.2-0.5-0.3-0.9-0.3H2.1V344.9z M11.5,341.8c-0.4,0-0.7-0.1-0.9-0.3c-0.2-0.2-0.3-0.4-0.3-0.7v-0.3
	c0-0.3,0.1-0.5,0.3-0.7c0.2-0.2,0.5-0.3,0.9-0.3c0.4,0,0.7,0.1,0.9,0.3c0.2,0.2,0.3,0.4,0.3,0.7v0.3c0,0.3-0.1,0.5-0.3,0.7
	C12.2,341.7,11.9,341.8,11.5,341.8z M10.5,343h2v8.4h-2V343z M17,351.4c-0.7,0-1.2-0.2-1.6-0.5c-0.3-0.4-0.5-0.8-0.5-1.5v-9.8h2
	v10.2h1.1v1.6H17z M30.4,342.1h-5l-0.3,3.7h0.1c0.1-0.2,0.2-0.5,0.4-0.7c0.1-0.2,0.3-0.4,0.5-0.5c0.2-0.1,0.4-0.2,0.6-0.3
	c0.2-0.1,0.5-0.1,0.9-0.1c0.5,0,0.9,0.1,1.3,0.2c0.4,0.2,0.8,0.4,1.1,0.7c0.3,0.3,0.5,0.7,0.7,1.1c0.2,0.4,0.3,0.9,0.3,1.5
	c0,0.6-0.1,1.1-0.3,1.6c-0.2,0.5-0.4,0.9-0.8,1.2c-0.4,0.3-0.8,0.6-1.3,0.8c-0.5,0.2-1.1,0.3-1.8,0.3c-0.5,0-1-0.1-1.4-0.2
	c-0.4-0.1-0.8-0.3-1.1-0.4c-0.3-0.2-0.6-0.4-0.8-0.7c-0.2-0.3-0.4-0.5-0.6-0.8l1.5-1.2c0.1,0.2,0.3,0.4,0.4,0.6
	c0.1,0.2,0.3,0.3,0.5,0.5c0.2,0.1,0.4,0.3,0.6,0.3c0.2,0.1,0.5,0.1,0.8,0.1c0.6,0,1.1-0.2,1.4-0.5c0.3-0.4,0.5-0.8,0.5-1.4v-0.1
	c0-0.6-0.2-1-0.5-1.4c-0.3-0.3-0.8-0.5-1.4-0.5c-0.5,0-0.8,0.1-1.1,0.3c-0.3,0.2-0.5,0.4-0.7,0.6l-1.7-0.2l0.4-6.3h6.6V342.1z
	 M36.6,351.6c-0.7,0-1.2-0.1-1.7-0.2c-0.5-0.2-0.9-0.4-1.3-0.7c-0.3-0.3-0.6-0.6-0.8-1c-0.2-0.4-0.3-0.8-0.3-1.3
	c0-0.7,0.2-1.3,0.6-1.8c0.4-0.5,0.9-0.8,1.6-1v-0.1c-0.6-0.2-1-0.5-1.4-0.9c-0.3-0.4-0.5-1-0.5-1.6c0-0.4,0.1-0.8,0.2-1.2
	c0.2-0.4,0.4-0.7,0.7-0.9c0.3-0.3,0.7-0.5,1.2-0.6c0.5-0.1,1-0.2,1.6-0.2c0.6,0,1.1,0.1,1.6,0.2c0.5,0.1,0.9,0.3,1.2,0.6
	c0.3,0.3,0.6,0.6,0.7,0.9c0.2,0.4,0.3,0.7,0.3,1.2c0,0.7-0.2,1.2-0.5,1.6c-0.3,0.4-0.8,0.7-1.3,0.9v0.1c0.7,0.2,1.2,0.5,1.6,1
	c0.4,0.4,0.6,1,0.6,1.8c0,0.5-0.1,0.9-0.3,1.3c-0.2,0.4-0.4,0.7-0.8,1c-0.3,0.3-0.8,0.5-1.3,0.7C37.8,351.5,37.2,351.6,36.6,351.6z
	 M36.6,349.9c0.6,0,1.1-0.1,1.4-0.4c0.3-0.3,0.5-0.7,0.5-1.2V348c0-0.5-0.2-0.9-0.5-1.2c-0.3-0.3-0.8-0.4-1.4-0.4
	c-0.6,0-1.1,0.1-1.4,0.4c-0.3,0.3-0.5,0.7-0.5,1.2v0.3c0,0.5,0.2,0.9,0.5,1.2C35.5,349.8,36,349.9,36.6,349.9z M36.6,344.9
	c0.6,0,1-0.1,1.3-0.4c0.3-0.3,0.4-0.6,0.4-1.1v-0.3c0-0.5-0.1-0.8-0.4-1.1c-0.3-0.3-0.7-0.4-1.3-0.4c-0.6,0-1,0.1-1.3,0.4
	c-0.3,0.3-0.4,0.6-0.4,1.1v0.3c0,0.5,0.1,0.8,0.4,1.1C35.6,344.7,36,344.9,36.6,344.9z M44.3,351.4l7.7-11.2h1.9l-7.7,11.2H44.3z
	 M45,346.4c-0.9,0-1.6-0.3-2.1-0.8c-0.5-0.5-0.7-1.3-0.7-2.4c0-1,0.2-1.8,0.7-2.4c0.5-0.5,1.2-0.8,2.1-0.8c0.9,0,1.6,0.3,2.1,0.8
	c0.5,0.5,0.7,1.3,0.7,2.4c0,1-0.2,1.8-0.7,2.4C46.6,346.1,45.9,346.4,45,346.4z M45,345.2c0.7,0,1-0.5,1-1.5v-0.9c0-1-0.3-1.5-1-1.5
	c-0.7,0-1,0.5-1,1.5v0.9C44,344.6,44.4,345.2,45,345.2z M53.1,351.6c-0.9,0-1.6-0.3-2.1-0.8c-0.5-0.5-0.7-1.3-0.7-2.4
	c0-1,0.2-1.8,0.7-2.4c0.5-0.5,1.2-0.8,2.1-0.8c0.9,0,1.6,0.3,2.1,0.8c0.5,0.5,0.7,1.3,0.7,2.4c0,1-0.2,1.8-0.7,2.4
	C54.7,351.3,54,351.6,53.1,351.6z M53.1,350.4c0.7,0,1-0.5,1-1.5V348c0-1-0.3-1.5-1-1.5c-0.7,0-1,0.5-1,1.5v0.9
	C52.1,349.9,52.4,350.4,53.1,350.4z"/>
<path d="M451.3,53.6c-0.7,0-1.4-0.1-2-0.4c-0.6-0.2-1.1-0.6-1.5-1.1c-0.4-0.5-0.7-1.1-1-1.8c-0.2-0.7-0.3-1.5-0.3-2.5
	c0-0.9,0.1-1.8,0.3-2.5c0.2-0.7,0.5-1.3,1-1.8c0.4-0.5,0.9-0.9,1.5-1.1c0.6-0.3,1.3-0.4,2-0.4c1,0,1.8,0.2,2.5,0.6
	c0.7,0.4,1.2,1.1,1.6,1.9l-1.8,1c-0.2-0.5-0.4-0.9-0.8-1.2c-0.4-0.3-0.9-0.5-1.5-0.5c-0.8,0-1.4,0.3-1.9,0.8
	c-0.5,0.5-0.7,1.3-0.7,2.2v1.8c0,1,0.2,1.7,0.7,2.2c0.5,0.5,1.1,0.8,1.9,0.8c0.6,0,1.1-0.2,1.5-0.5c0.4-0.3,0.7-0.8,0.9-1.3l1.7,1
	c-0.4,0.8-0.9,1.5-1.6,2C453.1,53.4,452.3,53.6,451.3,53.6z M462.2,45h1.9l-3.4,9.8c-0.1,0.3-0.2,0.6-0.4,0.8
	c-0.1,0.2-0.3,0.4-0.5,0.5c-0.2,0.1-0.4,0.2-0.7,0.3c-0.3,0.1-0.6,0.1-0.9,0.1h-1.2V55h1.5l0.4-1.2l-3-8.8h2l1.5,4.4l0.5,2.1h0.1
	l0.6-2.1L462.2,45z M465.5,41.6h2v7.1h0.1l1.1-1.5l1.9-2.1h2.3l-2.9,3.2l3.2,5.1h-2.4l-2.1-3.7l-1.1,1.2v2.5h-2V41.6z M477.4,53.6
	c-0.6,0-1.2-0.1-1.7-0.3c-0.5-0.2-0.9-0.5-1.2-0.9c-0.3-0.4-0.6-0.8-0.8-1.4c-0.2-0.5-0.3-1.2-0.3-1.8c0-0.7,0.1-1.3,0.3-1.8
	c0.2-0.5,0.4-1,0.8-1.4c0.3-0.4,0.7-0.7,1.2-0.9c0.5-0.2,1-0.3,1.6-0.3c0.7,0,1.2,0.1,1.7,0.3s0.9,0.5,1.2,0.9
	c0.3,0.4,0.5,0.8,0.7,1.3c0.2,0.5,0.2,1,0.2,1.6v0.7h-5.6v0.2c0,0.6,0.2,1.1,0.5,1.5c0.3,0.4,0.8,0.5,1.5,0.5c0.5,0,0.9-0.1,1.2-0.3
	c0.3-0.2,0.6-0.5,0.9-0.8l1.1,1.2c-0.3,0.5-0.8,0.9-1.4,1.1C478.9,53.5,478.2,53.6,477.4,53.6z M477.4,46.4c-0.5,0-1,0.2-1.3,0.5
	c-0.3,0.4-0.5,0.8-0.5,1.4v0.1h3.4v-0.1c0-0.6-0.1-1-0.4-1.4C478.3,46.6,477.9,46.4,477.4,46.4z M485,53.4c-0.7,0-1.2-0.2-1.6-0.5
	c-0.3-0.4-0.5-0.8-0.5-1.5v-9.8h2v10.2h1.1v1.6H485z M491.7,53.4v-1.7h3.1v-7.9h-0.1l-2.4,2.9l-1.3-1.1l2.8-3.3h3.2v9.5h2.6v1.7
	H491.7z M508.1,44.1h-5l-0.3,3.7h0.1c0.1-0.2,0.2-0.5,0.4-0.7c0.1-0.2,0.3-0.4,0.5-0.5c0.2-0.1,0.4-0.2,0.6-0.3
	c0.2-0.1,0.5-0.1,0.9-0.1c0.5,0,0.9,0.1,1.3,0.2s0.8,0.4,1.1,0.7c0.3,0.3,0.5,0.7,0.7,1.1c0.2,0.4,0.3,0.9,0.3,1.5
	c0,0.6-0.1,1.1-0.3,1.6c-0.2,0.5-0.4,0.9-0.8,1.2c-0.4,0.3-0.8,0.6-1.3,0.8c-0.5,0.2-1.1,0.3-1.8,0.3c-0.5,0-1-0.1-1.4-0.2
	c-0.4-0.1-0.8-0.3-1.1-0.4c-0.3-0.2-0.6-0.4-0.8-0.7c-0.2-0.3-0.4-0.5-0.6-0.8l1.5-1.2c0.1,0.2,0.3,0.4,0.4,0.6
	c0.1,0.2,0.3,0.3,0.5,0.5c0.2,0.1,0.4,0.3,0.6,0.3c0.2,0.1,0.5,0.1,0.8,0.1c0.6,0,1.1-0.2,1.4-0.5c0.3-0.4,0.5-0.8,0.5-1.4v-0.1
	c0-0.6-0.2-1-0.5-1.4c-0.3-0.3-0.8-0.5-1.4-0.5c-0.5,0-0.8,0.1-1.1,0.3c-0.3,0.2-0.5,0.4-0.7,0.6l-1.7-0.2l0.4-6.3h6.6V44.1z
	 M512.3,53.4l7.7-11.2h1.9l-7.7,11.2H512.3z M513.1,48.4c-0.9,0-1.6-0.3-2.1-0.8c-0.5-0.5-0.7-1.3-0.7-2.4c0-1,0.2-1.8,0.7-2.4
	c0.5-0.5,1.2-0.8,2.1-0.8c0.9,0,1.6,0.3,2.1,0.8c0.5,0.5,0.7,1.3,0.7,2.4c0,1-0.2,1.8-0.7,2.4C514.7,48.1,514,48.4,513.1,48.4z
	 M513.1,47.2c0.7,0,1-0.5,1-1.5v-0.9c0-1-0.3-1.5-1-1.5c-0.7,0-1,0.5-1,1.5v0.9C512.1,46.6,512.4,47.2,513.1,47.2z M521.2,53.6
	c-0.9,0-1.6-0.3-2.1-0.8c-0.5-0.5-0.7-1.3-0.7-2.4s0.2-1.8,0.7-2.4c0.5-0.5,1.2-0.8,2.1-0.8c0.9,0,1.6,0.3,2.1,0.8
	c0.5,0.5,0.7,1.3,0.7,2.4s-0.2,1.8-0.7,2.4C522.8,53.3,522.1,53.6,521.2,53.6z M521.2,52.4c0.7,0,1-0.5,1-1.5V50c0-1-0.3-1.5-1-1.5
	c-0.7,0-1,0.5-1,1.5v0.9C520.2,51.9,520.5,52.4,521.2,52.4z"/>
<path class="st12" d="M382.2,77.3l26.4-28.2h32"/>
</svg>
