<?xml version="1.0" encoding="UTF-8"?>
<svg width="280px" height="324px" viewBox="0 0 280 324" version="1.1" xmlns="http://www.w3.org/2000/svg" xmlns:xlink="http://www.w3.org/1999/xlink">
    <!-- Generator: Sketch 52.6 (67491) - http://www.bohemiancoding.com/sketch -->
    <title>Guide_Grid</title>
    <desc>Created with Sketch.</desc>
    <g id="Illustrationer" stroke="none" stroke-width="1" fill="none" fill-rule="evenodd">
        <g id="Komponentside-2" transform="translate(-754.000000, -3882.000000)">
            <g id="Guide_Grid" transform="translate(754.000000, 3882.000000)">
                <rect id="White_BG" fill="#FFFFFF" x="0" y="0" width="280" height="324"></rect>
                <g id="Input-2" transform="translate(24.000000, 144.000000)" fill-rule="nonzero">
                    <rect id="Rectangle-15-Copy" fill="#747474" x="0" y="0" width="114" height="10"></rect>
                    <rect id="Rectangle-15" fill="#BFBFBF" x="0" y="20" width="74" height="80"></rect>
                    <rect id="Rectangle-15-Copy-14" fill="#747474" x="0" y="130" width="234" height="30"></rect>
                    <rect id="Rectangle-15" fill="#BFBFBF" x="80" y="20" width="74" height="80"></rect>
                    <rect id="Rectangle-15" fill="#BFBFBF" x="160" y="20" width="74" height="80"></rect>
                </g>
                <g id="Input_1" transform="translate(24.000000, 24.000000)" fill-rule="nonzero">
                    <rect id="Rectangle-15-Copy-6" fill="#747474" x="0" y="20" width="54" height="5"></rect>
                    <rect id="Rectangle-15-Copy" fill="#747474" x="0" y="0" width="114" height="10"></rect>
                    <rect id="Rectangle-15-Copy-7" fill="#747474" x="0" y="60" width="54" height="5"></rect>
                    <rect id="Rectangle-15" stroke="#1A1A1A" stroke-width="2" fill="#FFFFFF" x="1" y="31" width="232" height="18" rx="2"></rect>
                    <rect id="Rectangle-15-Copy-8" stroke="#1A1A1A" stroke-width="2" fill="#FFFFFF" x="1" y="71" width="112" height="18" rx="2"></rect>
                </g>
                <g id="Stacked-Group" transform="translate(24.000000, 0.000000)" fill="#D71784" opacity="0.400000006">
                    <rect id="Rectangle-Copy-42" x="20" y="0" width="14" height="324"></rect>
                    <rect id="Rectangle-Copy-45" x="100" y="0" width="14" height="324"></rect>
                    <rect id="Rectangle-Copy-49" x="180" y="0" width="14" height="324"></rect>
                    <rect id="Rectangle" x="0" y="0" width="14" height="324"></rect>
                    <rect id="Rectangle-Copy-46" x="80" y="0" width="14" height="324"></rect>
                    <rect id="Rectangle-Copy-50" x="160" y="0" width="14" height="324"></rect>
                    <rect id="Rectangle-Copy-43" x="40" y="0" width="14" height="324"></rect>
                    <rect id="Rectangle-Copy-47" x="120" y="0" width="14" height="324"></rect>
                    <rect id="Rectangle-Copy-51" x="200" y="0" width="14" height="324"></rect>
                    <rect id="Rectangle-Copy-44" x="60" y="0" width="14" height="324"></rect>
                    <rect id="Rectangle-Copy-48" x="140" y="0" width="14" height="324"></rect>
                    <rect id="Rectangle-Copy-52" x="220" y="0" width="14" height="324"></rect>
                </g>
            </g>
        </g>
    </g>
</svg>