<?xml version="1.0" encoding="UTF-8"?>
<svg width="277px" height="206px" viewBox="0 0 277 206" version="1.1" xmlns="http://www.w3.org/2000/svg" xmlns:xlink="http://www.w3.org/1999/xlink">
    <!-- Generator: Sketch 53.2 (72643) - https://sketchapp.com -->
    <title>Brugervenlighed_Illustration</title>
    <desc>Created with Sketch.</desc>
    <g id="Illustrationer" stroke="none" stroke-width="1" fill="none" fill-rule="evenodd">
        <g id="Forside" transform="translate(-778.000000, -1121.000000)">
            <g id="Brugervenlighed_Illustration" transform="translate(778.000000, 1121.000000)">
                <g id="Browser">
                    <rect id="White_BG" fill="#F5F5F5" x="0" y="20" width="254" height="154"></rect>
                    <rect id="Rectangle" fill="#1A1A1A" x="0" y="0" width="254" height="20"></rect>
                    <circle id="Oval" fill="#FFFFFF" cx="23.5" cy="10.5" r="3.5"></circle>
                    <circle id="Oval" fill="#FFFFFF" cx="36.5" cy="10.5" r="3.5"></circle>
                    <circle id="Oval" fill="#FFFFFF" cx="50.5" cy="10.5" r="3.5"></circle>
                    <rect id="Rectangle-15" fill="#DCDCDC" fill-rule="nonzero" x="20" y="54" width="212" height="3"></rect>
                    <rect id="Rectangle-15-Copy-4" fill="#DCDCDC" fill-rule="nonzero" x="20" y="60" width="164" height="3"></rect>
                    <rect id="Rectangle-15-Copy-6" fill="#DCDCDC" fill-rule="nonzero" x="20" y="77" width="17" height="3"></rect>
                    <rect id="Rectangle-15-Copy-7" fill="#DCDCDC" fill-rule="nonzero" x="20" y="104" width="17" height="3"></rect>
                    <rect id="Rectangle-15-Copy" fill="#1A1A1A" fill-rule="nonzero" x="20" y="40" width="23" height="7"></rect>
                    <rect id="Rectangle-15-Copy-2" fill="#1A1A1A" fill-rule="nonzero" x="47" y="40" width="11" height="7"></rect>
                    <rect id="Rectangle-15-Copy-3" fill="#1A1A1A" fill-rule="nonzero" x="61" y="40" width="46" height="7"></rect>
                    <rect id="Rectangle-15" stroke="#1A1A1A" stroke-width="2" fill="#FFFFFF" fill-rule="nonzero" x="21" y="85" width="134" height="11" rx="2"></rect>
                    <rect id="Rectangle-15-Copy-8" stroke="#1A1A1A" stroke-width="2" fill="#FFFFFF" fill-rule="nonzero" x="21" y="112" width="103" height="11" rx="2"></rect>
                    <rect id="Rectangle-15-Copy-13" stroke="#1A1A1A" stroke-width="2" fill="#747474" fill-rule="nonzero" x="21" y="138" width="49" height="15" rx="2"></rect>
                    <rect id="Rectangle-15-Copy-11" fill="#DCDCDC" fill-rule="nonzero" x="30" y="144" width="32" height="3"></rect>
                </g>
                <g id="Check" transform="translate(167.000000, 84.000000)">
                    <rect id="Rectangle" fill="#14B094" x="0" y="0" width="110" height="122"></rect>
                    <rect id="Rectangle-15-Copy-6" fill="#FFFFFF" fill-rule="nonzero" x="47.0229008" y="19.2191781" width="47.8625954" height="3.34246575"></rect>
                    <rect id="Rectangle-15-Copy-6" fill="#FFFFFF" fill-rule="nonzero" x="47.0229008" y="25.9041096" width="31.0687023" height="3.34246575"></rect>
                    <rect id="Rectangle-15-Copy-6" fill="#FFFFFF" fill-rule="nonzero" x="47.0229008" y="55.9863014" width="47.8625954" height="3.34246575"></rect>
                    <rect id="Rectangle-15-Copy-6" fill="#FFFFFF" fill-rule="nonzero" x="47.0229008" y="62.6712329" width="31.0687023" height="3.34246575"></rect>
                    <rect id="Rectangle-15-Copy-6" fill="#FFFFFF" fill-rule="nonzero" x="47.0229008" y="92.7534247" width="47.8625954" height="3.34246575"></rect>
                    <rect id="Rectangle-15-Copy-6" fill="#FFFFFF" fill-rule="nonzero" x="47.0229008" y="99.4383562" width="31.0687023" height="3.34246575"></rect>
                    <g id="Check-mark" transform="translate(18.473282, 15.876712)" fill="#FFFFFF">
                        <g transform="translate(6.500000, 6.500000) rotate(-315.000000) translate(-6.500000, -6.500000) translate(3.466667, 0.812500)" id="Rectangle-15">
                            <rect x="0" y="9.75" width="6.06666667" height="1.625"></rect>
                            <polygon transform="translate(5.200000, 5.687500) rotate(-270.000000) translate(-5.200000, -5.687500) " points="-0.4875 4.82083333 10.8875 4.82083333 10.8875 6.55416667 -0.4875 6.55416667"></polygon>
                        </g>
                    </g>
                    <ellipse id="Oval" stroke="#FFFFFF" stroke-width="2" cx="24.351145" cy="24.2328767" rx="12.5954198" ry="12.5342466"></ellipse>
                    <g id="Check-mark" transform="translate(18.473282, 52.643836)" fill="#FFFFFF">
                        <g transform="translate(6.500000, 6.500000) rotate(-315.000000) translate(-6.500000, -6.500000) translate(3.466667, 0.812500)" id="Rectangle-15">
                            <rect x="0" y="9.75" width="6.06666667" height="1.625"></rect>
                            <polygon transform="translate(5.200000, 5.687500) rotate(-270.000000) translate(-5.200000, -5.687500) " points="-0.4875 4.82083333 10.8875 4.82083333 10.8875 6.55416667 -0.4875 6.55416667"></polygon>
                        </g>
                    </g>
                    <ellipse id="Oval" stroke="#FFFFFF" stroke-width="2" cx="24.351145" cy="61" rx="12.5954198" ry="12.5342466"></ellipse>
                    <g id="Check-mark" transform="translate(18.473282, 89.410959)" fill="#FFFFFF">
                        <g transform="translate(6.500000, 6.500000) rotate(-315.000000) translate(-6.500000, -6.500000) translate(3.466667, 0.812500)" id="Rectangle-15">
                            <rect x="0" y="9.75" width="6.06666667" height="1.625"></rect>
                            <polygon transform="translate(5.200000, 5.687500) rotate(-270.000000) translate(-5.200000, -5.687500) " points="-0.4875 4.82083333 10.8875 4.82083333 10.8875 6.55416667 -0.4875 6.55416667"></polygon>
                        </g>
                    </g>
                    <ellipse id="Oval" stroke="#FFFFFF" stroke-width="2" cx="24.351145" cy="97.7671233" rx="12.5954198" ry="12.5342466"></ellipse>
                </g>
            </g>
        </g>
    </g>
</svg>