<svg xmlns="http://www.w3.org/2000/svg" xmlns:xlink="http://www.w3.org/1999/xlink" viewBox="0 0 1168 569"><defs><style>.cls-1,.cls-10,.cls-12,.cls-19,.cls-20,.cls-4{fill:none;}.cls-2{fill:#fff;}.cls-3{fill:#f5f5f5;}.cls-10,.cls-12,.cls-19,.cls-20,.cls-4{stroke:#131313;}.cls-10,.cls-4{stroke-linejoin:round;}.cls-10,.cls-19,.cls-20,.cls-4{stroke-width:4px;}.cls-5{clip-path:url(#clip-path);}.cls-6,.cls-7{fill:#131313;}.cls-7{font-size:23.73px;font-family:IBMPlexSans, IBM Plex Sans;}.cls-8{letter-spacing:0em;}.cls-9{letter-spacing:0em;}.cls-10,.cls-12,.cls-20{stroke-linecap:round;}.cls-11{letter-spacing:-0.02em;}.cls-12,.cls-19,.cls-20{stroke-miterlimit:10;}.cls-12{stroke-width:3px;}.cls-13{letter-spacing:-0.01em;}.cls-14{letter-spacing:-0.02em;}.cls-15{letter-spacing:0.01em;}.cls-16{letter-spacing:-0.01em;}.cls-17{letter-spacing:-0.01em;}.cls-18{font-size:35.6px;font-family:IBMPlexSans-Bold, IBM Plex Sans;font-weight:700;}.cls-21{letter-spacing:-0.06em;}.cls-22{clip-path:url(#clip-path-2);}.cls-23{fill:#bfbfbf;}</style><clipPath id="clip-path"><rect class="cls-1" x="72.92" y="49.59" width="96.59" height="122.98"/></clipPath><clipPath id="clip-path-2"><rect class="cls-1" x="749.88" y="130.2" width="29.29" height="44.42" transform="translate(1529.04 304.82) rotate(180)"/></clipPath></defs><title>Governancemodel-Stor-og-Ekstrastor-1168px_Stor og Ekstra stor 1168</title><g id="Layer_2" data-name="Layer 2"><rect class="cls-2" x="0.5" y="0.24" width="1168" height="569"/><rect class="cls-3" x="584.5" y="0.24" width="584" height="569"/></g><g id="Layer_1" data-name="Layer 1"><rect class="cls-4" x="72.92" y="49.59" width="96.59" height="122.98"/><g class="cls-5"><circle class="cls-6" cx="102.73" cy="121.97" r="37.58"/><path class="cls-2" d="M129.17,122a26.44,26.44,0,1,1-26.44-26.45A26.44,26.44,0,0,1,129.17,122Zm-26.44-15.8a15.8,15.8,0,1,0,15.8,15.8A15.8,15.8,0,0,0,102.73,106.17Z"/><circle class="cls-2" cx="102.73" cy="121.97" r="5.08"/><polygon class="cls-2" points="102.38 118.17 113.59 107.11 117.8 111.32 106.15 122.88 102.38 118.17"/><polygon class="cls-2" points="118.53 102.41 129.74 91.34 133.94 95.55 122.3 107.11 118.53 102.41"/><polygon class="cls-6" points="136.96 87.69 136.96 79.97 146.59 69.18 146.59 78.43 136.96 87.69"/><polygon class="cls-6" points="137.17 87.73 144.89 88.01 156.01 78.76 146.76 78.43 137.17 87.73"/><rect class="cls-6" x="123.6" y="68.58" width="1.98" height="63.8" rx="0.63" transform="translate(107.54 -58.67) rotate(45)"/></g><text class="cls-7" transform="translate(79.65 203.98)">St<tspan class="cls-8" x="22.12" y="0">r</tspan><tspan x="30.73" y="0">a</tspan><tspan class="cls-8" x="43.41" y="0">t</tspan><tspan x="51.64" y="0">egi</tspan></text><text class="cls-7" transform="translate(55.45 479.36)">Sty<tspan class="cls-9" x="33.96" y="0">r</tspan><tspan x="42.55" y="0">egruppe</tspan></text><ellipse class="cls-4" cx="120.88" cy="432.54" rx="68.58" ry="14.4"/><path class="cls-4" d="M101.9,396.4c3.42,0,5-3,5.81-4.34s1.47-4.36.8-8.83c-.81-5.45-6.61-5.19-6.61-5.19s-5.8-.26-6.61,5.19c-.67,4.47,0,7.46.8,8.83s2.39,4.35,5.81,4.34"/><path class="cls-10" d="M99.3,395.73s-.08,2.07,0,3-4.2,2.4-4.2,2.4a23.34,23.34,0,0,0-5.85,2.37c-2.29,1.19-2.14,9.63-2.14,9.63"/><path class="cls-10" d="M105.34,395.73s.08,2.07,0,3,4.2,2.4,4.2,2.4a23.22,23.22,0,0,1,5.84,2.37c2.3,1.19,2.14,7.51,2.14,7.51"/><path class="cls-4" d="M139,396.4c3.42,0,5-3,5.81-4.34s1.47-4.36.8-8.83C144.82,377.78,139,378,139,378s-5.81-.26-6.62,5.19c-.66,4.47,0,7.46.81,8.83s2.39,4.35,5.81,4.34"/><path class="cls-10" d="M136.42,395.73s-.08,2.07,0,3-4.2,2.4-4.2,2.4a23.34,23.34,0,0,0-5.85,2.37c-2.3,1.19-2.14,7.51-2.14,7.51"/><path class="cls-10" d="M142.46,395.73s.08,2.07,0,3,4.19,2.4,4.19,2.4a23.17,23.17,0,0,1,5.85,2.37c2.3,1.19,2.15,9.63,2.15,9.63"/><path class="cls-4" d="M176.14,396.4c3.42,0,5-3,5.81-4.34s1.47-4.36.8-8.83c-.81-5.45-6.61-5.19-6.61-5.19s-5.8-.26-6.61,5.19c-.67,4.47,0,7.46.8,8.83s2.39,4.35,5.81,4.34"/><path class="cls-10" d="M173.54,395.73s-.08,2.07,0,3-4.2,2.4-4.2,2.4a23.34,23.34,0,0,0-5.85,2.37c-2.3,1.19-2.14,10.51-2.14,10.51"/><path class="cls-10" d="M179.58,395.73s.08,2.07,0,3,4.2,2.4,4.2,2.4a23.22,23.22,0,0,1,5.84,2.37c2.3,1.19,2.15,20.59,2.15,20.59"/><path class="cls-4" d="M65.62,396.4c-3.43,0-5-3-5.81-4.34s-1.47-4.36-.81-8.83c.81-5.45,6.62-5.19,6.62-5.19s5.8-.26,6.61,5.19c.67,4.47,0,7.46-.8,8.83s-2.39,4.35-5.81,4.34"/><path class="cls-10" d="M68.22,395.73s.08,2.07,0,3,4.19,2.4,4.19,2.4a23.17,23.17,0,0,1,5.85,2.37c2.3,1.19,2.14,10.51,2.14,10.51"/><path class="cls-10" d="M62.18,395.73s-.08,2.07,0,3-4.2,2.4-4.2,2.4a23.34,23.34,0,0,0-5.85,2.37c-2.3,1.19-2.14,21.34-2.14,21.34"/><text class="cls-7" transform="translate(364.04 203.12)"><tspan class="cls-11">R</tspan><tspan x="14.83" y="0">oadmap</tspan></text><rect class="cls-4" x="366.34" y="49.59" width="96.59" height="122.98"/><path class="cls-10" d="M388.68,74.61h51.63a9.11,9.11,0,0,1,9.11,9.12h0a9.12,9.12,0,0,1-9.11,9.12H393.52"/><path class="cls-4" d="M436.72,111.08H389.94a9.12,9.12,0,0,1-9.12-9.12h0a9.11,9.11,0,0,1,9.12-9.11h46.78"/><path class="cls-10" d="M436.72,147.56H389.94a9.12,9.12,0,0,1-9.12-9.12h0a9.12,9.12,0,0,1,9.12-9.12h46.78"/><path class="cls-4" d="M393.52,111.08h46.79a9.12,9.12,0,0,1,9.11,9.12h0a9.11,9.11,0,0,1-9.11,9.12H393.52"/><circle class="cls-6" cx="402.2" cy="74.61" r="4.25"/><circle class="cls-6" cx="427.15" cy="92.85" r="4.25"/><circle class="cls-6" cx="402.2" cy="129.32" r="4.25"/><circle class="cls-6" cx="436.72" cy="147.56" r="4.25"/><line class="cls-12" x1="246.36" y1="122.05" x2="280.28" y2="122.05"/><polygon class="cls-6" points="278.09 129.53 291.04 122.05 278.09 114.58 278.09 129.53"/><line class="cls-12" x1="561.66" y1="122.05" x2="595.58" y2="122.05"/><polygon class="cls-6" points="593.39 129.53 606.34 122.05 593.39 114.58 593.39 129.53"/><line class="cls-12" x1="606.34" y1="414.84" x2="572.42" y2="414.84"/><polygon class="cls-6" points="574.61 407.36 561.66 414.84 574.61 422.32 574.61 407.36"/><text class="cls-7" transform="translate(327.96 479.02)">Samarbejd<tspan class="cls-9" x="115.06" y="0">s</tspan><tspan class="cls-8" x="126.5" y="0">f</tspan><tspan x="134.09" y="0">orum</tspan><tspan class="cls-13" x="25.1" y="28.48">m</tspan><tspan x="45.63" y="28.48">yndigheder</tspan></text><path class="cls-4" d="M371.34,423.07c-4.44,0-6.53-3.87-7.54-5.64s-1.9-5.65-1-11.44c1.05-7.07,8.58-6.74,8.58-6.74s7.53-.33,8.58,6.74c.86,5.79,0,9.68-1,11.44s-3.1,5.65-7.54,5.64"/><path class="cls-10" d="M366.87,422.2s-.09,2.68,0,3.94-5.44,3.11-5.44,3.11-2.46.42-7.58,3.08c-3,1.54-2.78,16.13-2.78,16.13"/><path class="cls-10" d="M375.44,422.2s.09,2.68,0,3.94,5.44,3.11,5.44,3.11,2.46.42,7.58,3.08c3,1.54,2.78,16.13,2.78,16.13"/><path class="cls-4" d="M406,423.07c-4.44,0-6.53-3.87-7.54-5.64s-1.9-5.65-1-11.44c1.05-7.07,8.58-6.74,8.58-6.74s7.53-.33,8.58,6.74c.86,5.79,0,9.68-1,11.44s-3.1,5.65-7.54,5.64"/><path class="cls-10" d="M401.5,422.2s-.09,2.68,0,3.94-5.44,3.11-5.44,3.11"/><path class="cls-10" d="M410.07,422.2s.09,2.68,0,3.94,5.44,3.11,5.44,3.11,2.46.42,7.58,3.08c3,1.54,2.78,16.13,2.78,16.13"/><path class="cls-4" d="M440.6,423.07c-4.44,0-6.53-3.87-7.54-5.64s-1.9-5.65-1-11.44c1.05-7.07,8.58-6.74,8.58-6.74s7.53-.33,8.58,6.74c.86,5.79,0,9.68-1,11.44s-3.1,5.65-7.54,5.64"/><path class="cls-10" d="M436.13,422.2s-.09,2.68,0,3.94-5.44,3.11-5.44,3.11"/><path class="cls-10" d="M444.7,422.2s.09,2.68,0,3.94,5.44,3.11,5.44,3.11,2.46.42,7.58,3.08c3,1.54,2.78,16.13,2.78,16.13"/><path class="cls-4" d="M475.23,423.07c-4.44,0-6.53-3.87-7.54-5.64s-1.9-5.65-1-11.44c1.05-7.07,8.58-6.74,8.58-6.74s7.53-.33,8.58,6.74c.86,5.79,0,9.68-1,11.44s-3.1,5.65-7.54,5.64"/><path class="cls-10" d="M470.76,422.2s-.09,2.68,0,3.94-5.44,3.11-5.44,3.11"/><path class="cls-10" d="M479.33,422.2s.09,2.68,0,3.94,5.44,3.11,5.44,3.11,2.46.42,7.58,3.08c3,1.54,2.78,16.13,2.78,16.13"/><path class="cls-4" d="M460.91,378.32a24.61,24.61,0,1,0-9.27,8,28.53,28.53,0,0,0,13.65,3.53A12.3,12.3,0,0,1,460.91,378.32Z"/><path class="cls-10" d="M415.06,348a22.56,22.56,0,0,0-30.14,32.19,11.26,11.26,0,0,1-4,10.59,26.05,26.05,0,0,0,12.51-3.24,22.53,22.53,0,0,0,24.42-2.8"/><line class="cls-12" x1="121.36" y1="299.32" x2="121.36" y2="265.4"/><polygon class="cls-6" points="128.84 267.59 121.36 254.64 113.88 267.59 128.84 267.59"/><line class="cls-12" x1="291.04" y1="414.84" x2="257.13" y2="414.84"/><polygon class="cls-6" points="259.31 407.36 246.36 414.84 259.31 422.32 259.31 407.36"/><line class="cls-12" x1="912.44" y1="122.05" x2="878.52" y2="122.05"/><polygon class="cls-6" points="880.71 114.58 867.76 122.05 880.71 129.53 880.71 114.58"/><text class="cls-7" transform="translate(956.57 202.76)"><tspan class="cls-14">F</tspan><tspan x="12.67" y="0">ej</tspan><tspan class="cls-15" x="31.64" y="0">l</tspan><tspan x="38.33" y="0">, ændrin</tspan><tspan class="cls-16" x="126.26" y="0">g</tspan><tspan x="138.65" y="0">er </tspan><tspan x="1.23" y="28.48">og </tspan><tspan class="cls-13" x="32.66" y="28.48">n</tspan><tspan x="45.95" y="28.48">y udvikling</tspan></text><rect class="cls-4" x="988.49" y="59.86" width="96.59" height="122.98" transform="translate(915.43 1158.14) rotate(-90)"/><rect class="cls-6" x="1020.95" y="129.69" width="43.36" height="3.22"/><circle class="cls-6" cx="1012.09" cy="131.3" r="2.83"/><rect class="cls-6" x="1020.95" y="140.96" width="43.36" height="3.22"/><circle class="cls-6" cx="1012.09" cy="142.57" r="2.83"/><rect class="cls-6" x="1020.95" y="152.23" width="43.36" height="3.22"/><circle class="cls-6" cx="1012.09" cy="153.84" r="2.83"/><path class="cls-6" d="M1015.66,99.37h-5.81a.28.28,0,0,0-.28.27v2.84a.28.28,0,0,0,.28.27h2.27v3.54a7,7,0,0,1-1.92.17c-1.66,0-4-.61-4-5.71s2.42-5.78,4.69-5.78a9.37,9.37,0,0,1,3.35.51.27.27,0,0,0,.33-.26l.65-2.75a.25.25,0,0,0-.11-.21c-.22-.16-1.55-.91-4.92-.91-3.89,0-7.87,1.66-7.87,9.6s4.56,9.12,8.4,9.12a9.47,9.47,0,0,0,5.12-1.36c.08,0,.08-.15.08-.2V99.64A.27.27,0,0,0,1015.66,99.37Z"/><path class="cls-6" d="M1045.64,92.31a.27.27,0,0,0-.27-.28h-3.27a.28.28,0,0,0-.28.28v6.33h-5.1V92.31a.27.27,0,0,0-.27-.28h-3.28a.28.28,0,0,0-.27.28v17.13a.28.28,0,0,0,.27.28h3.28a.27.27,0,0,0,.27-.28v-7.33h5.1v7.33a.27.27,0,0,0,.27.28h3.28a.27.27,0,0,0,.27-.28Z"/><path class="cls-6" d="M1021.84,94.55a2.11,2.11,0,1,0-2.11,2.14A2.12,2.12,0,0,0,1021.84,94.55Z"/><path class="cls-6" d="M1021.61,105.83V97.92a.28.28,0,0,0-.27-.28h-3.27a.31.31,0,0,0-.28.31v11.33c0,.34.21.44.48.44h2.94c.32,0,.4-.16.4-.44Z"/><path class="cls-6" d="M1058.09,97.67h-3.25a.27.27,0,0,0-.27.27v8.41a3.71,3.71,0,0,1-2,.6c-1.17,0-1.48-.53-1.48-1.68V97.94a.27.27,0,0,0-.27-.27h-3.3a.27.27,0,0,0-.27.27v7.89c0,3.41,1.9,4.24,4.51,4.24a7.64,7.64,0,0,0,3.87-1.18,5.93,5.93,0,0,0,.12.69.29.29,0,0,0,.24.15h2.1a.27.27,0,0,0,.27-.27V97.94A.27.27,0,0,0,1058.09,97.67Z"/><path class="cls-6" d="M1067,97.29a6.1,6.1,0,0,0-3.1.82v-5.8a.27.27,0,0,0-.27-.28h-3.29a.28.28,0,0,0-.27.28v17.13a.28.28,0,0,0,.28.28h2.27a.26.26,0,0,0,.24-.15,4.91,4.91,0,0,0,.14-.79,5.85,5.85,0,0,0,3.89,1.28c3,0,4.69-1.52,4.69-6.8S1068.82,97.29,1067,97.29Zm-1.28,9.65a3.85,3.85,0,0,1-1.89-.54V101a4.4,4.4,0,0,1,1.68-.55c1.17-.1,2.29.25,2.29,3C1067.77,106.41,1067.27,107,1065.69,106.94Z"/><path class="cls-6" d="M1031,97.64h-2.45V94.4c0-.13-.06-.19-.2-.19H1025c-.13,0-.2.06-.2.19v3.35s-1.68.4-1.79.44a.26.26,0,0,0-.2.26v2.11a.27.27,0,0,0,.27.27h1.72v5.07c0,3.77,2.64,4.14,4.42,4.14a7.41,7.41,0,0,0,2-.32.26.26,0,0,0,.16-.25v-2.32a.28.28,0,0,0-.27-.27c-.15,0-.51.06-.89.06-1.21,0-1.61-.56-1.61-1.29v-4.82H1031a.27.27,0,0,0,.27-.27V97.92A.28.28,0,0,0,1031,97.64Z"/><line class="cls-12" x1="730.3" y1="250.07" x2="730.3" y2="283.99"/><polygon class="cls-6" points="722.82 281.8 730.3 294.75 737.78 281.8 722.82 281.8"/><rect class="cls-4" x="979.34" y="353.26" width="80.83" height="102.91" transform="translate(615.04 1424.47) rotate(-90)"/><polyline class="cls-10" points="982.82 354.57 982.82 349.62 1085.73 349.62 1085.73 430.45 1081.41 430.45"/><polyline class="cls-10" points="995.67 340.72 995.67 335.77 1098.59 335.77 1098.59 416.6 1094.27 416.6"/><text class="cls-7" transform="translate(984.83 478.83)"><tspan class="cls-17">P</tspan><tspan class="cls-9" x="14.14" y="0">r</tspan><tspan x="22.74" y="0">oje</tspan><tspan class="cls-17" x="54.99" y="0">k</tspan><tspan class="cls-8" x="67.26" y="0">t</tspan><tspan x="75.49" y="0">er</tspan></text><line class="cls-12" x1="867.76" y1="414.84" x2="901.68" y2="414.84"/><polygon class="cls-6" points="899.49 422.32 912.44 414.84 899.49 407.36 899.49 422.32"/><line class="cls-12" x1="1036.75" y1="294.75" x2="1036.75" y2="260.84"/><polygon class="cls-6" points="1044.23 263.02 1036.75 250.07 1029.27 263.02 1044.23 263.02"/><path class="cls-6" d="M676,462.58h5.56c4.12,0,6.78,2.75,6.78,8.28s-2.66,8.28-6.78,8.28H676Zm5.56,14.8c2.72,0,4.65-1.9,4.65-5.17V469.5c0-3.27-1.93-5.17-4.65-5.17H678v13.05Z"/><path class="cls-6" d="M690.8,473c0-3.89,2.18-6.4,5.5-6.4s5.29,2.51,5.29,6v.9h-8.8v.57a3.47,3.47,0,0,0,3.63,3.7,3.55,3.55,0,0,0,3.37-2.11l1.35,1a5.14,5.14,0,0,1-4.84,2.8C693,479.42,690.8,476.91,690.8,473Zm2-1.11v.17h6.76v-.27c0-2.15-1.3-3.6-3.25-3.6A3.48,3.48,0,0,0,692.79,471.9Z"/><path class="cls-6" d="M707.43,479.14a1.87,1.87,0,0,1-2-2v-8.57h-2v-1.66h1.14c.8,0,1.07-.28,1.07-1.11V463.5h1.7v3.39H710v1.66h-2.69v8.93h2.5v1.66Z"/><path class="cls-6" d="M718.85,479.14V462.58h9.87v1.75h-7.88v5.55H728v1.76h-7.19v7.5Z"/><path class="cls-6" d="M746.54,475.67l1.35.95a5,5,0,0,1-4.62,2.8c-2.59,0-4.27-1.66-4.54-2.75h-.14c-.21,1-1.8,2.75-4.53,2.75-2.47,0-4.06-1.42-4.06-3.65s1.76-3.7,5.22-3.7h2.42v-1.14c0-1.73-1-2.68-2.82-2.68a3.38,3.38,0,0,0-3.18,1.8L730.5,469a4.69,4.69,0,0,1,4.37-2.39,3.55,3.55,0,0,1,3.84,2.73h.14a4.58,4.58,0,0,1,4.42-2.73c3.11,0,5.07,2.51,5.07,6v.9h-8.8v.57a3.47,3.47,0,0,0,3.63,3.7A3.51,3.51,0,0,0,746.54,475.67Zm-11.41-2.18c-2.16.07-3.13.74-3.13,1.92v.5c0,1.21.92,1.9,2.44,1.9,1.83,0,3.2-1,3.2-2.23v-2.09Zm11.17-1.42v-.27c0-2.15-1.3-3.6-3.25-3.6a3.48,3.48,0,0,0-3.51,3.7v.17Z"/><path class="cls-6" d="M753.5,479.14a1.86,1.86,0,0,1-2-2V461.58h1.9v15.9h1.8v1.66Z"/><path class="cls-6" d="M759.83,479.14a1.85,1.85,0,0,1-2-2V461.58h1.9v15.9h1.8v1.66Z"/><path class="cls-6" d="M763.37,473c0-3.89,2.18-6.4,5.51-6.4s5.29,2.51,5.29,6v.9h-8.81v.57a3.47,3.47,0,0,0,3.63,3.7,3.54,3.54,0,0,0,3.37-2.11l1.36,1a5.15,5.15,0,0,1-4.84,2.8C765.55,479.42,763.37,476.91,763.37,473Zm2-1.11v.17h6.77v-.27c0-2.15-1.31-3.6-3.25-3.6A3.48,3.48,0,0,0,765.36,471.9Z"/><path class="cls-6" d="M776.14,477l1.35-1.1a4.44,4.44,0,0,0,3.63,1.88c1.62,0,2.56-.74,2.56-2,0-.94-.52-1.68-2.13-1.92l-1-.14c-2.26-.33-3.94-1.26-3.94-3.54s1.87-3.6,4.36-3.6a5.07,5.07,0,0,1,4.27,2L784,469.72a3.79,3.79,0,0,0-3.16-1.5c-1.57,0-2.4.74-2.4,1.9s.83,1.66,2.35,1.9l1,.14c2.71.4,3.75,1.59,3.75,3.44,0,2.37-1.73,3.82-4.53,3.82A5.71,5.71,0,0,1,776.14,477Z"/><path class="cls-6" d="M658.15,491.05h5.55c4.13,0,6.79,2.76,6.79,8.28s-2.66,8.29-6.79,8.29h-5.55Zm5.55,14.81c2.73,0,4.65-1.9,4.65-5.17V498c0-3.27-1.92-5.17-4.65-5.17h-3.55v13.05Z"/><path class="cls-6" d="M673,501.49c0-3.89,2.18-6.4,5.5-6.4s5.29,2.51,5.29,6v.9H675v.57a3.47,3.47,0,0,0,3.63,3.7,3.55,3.55,0,0,0,3.37-2.11l1.35,1a5.14,5.14,0,0,1-4.84,2.8C675.17,507.9,673,505.39,673,501.49Zm2-1.11v.17h6.76v-.27c0-2.16-1.3-3.6-3.25-3.6A3.48,3.48,0,0,0,675,500.38Z"/><path class="cls-6" d="M685.75,505.5l1.36-1.09a4.42,4.42,0,0,0,3.63,1.88c1.61,0,2.56-.74,2.56-2,0-.94-.52-1.68-2.14-1.92l-1-.14c-2.25-.33-3.94-1.26-3.94-3.54s1.88-3.6,4.37-3.6a5.08,5.08,0,0,1,4.27,2l-1.26,1.14a3.78,3.78,0,0,0-3.15-1.5c-1.57,0-2.4.74-2.4,1.9s.83,1.66,2.35,1.9l1,.14c2.7.4,3.75,1.59,3.75,3.44,0,2.37-1.74,3.82-4.54,3.82A5.69,5.69,0,0,1,685.75,505.5Z"/><path class="cls-6" d="M698.26,491.43v-.3c0-.64.36-1.07,1.16-1.07s1.17.43,1.17,1.07v.3c0,.65-.36,1.07-1.17,1.07S698.26,492.08,698.26,491.43Zm.21,3.94h1.9v12.25h-1.9Z"/><path class="cls-6" d="M708.8,512.65c-3.82,0-5.39-1.1-5.39-3a2.29,2.29,0,0,1,2-2.37V507a1.78,1.78,0,0,1-1.1-1.71c0-1.23.88-1.83,2.12-2.13v-.1a4,4,0,0,1-2.3-3.75c0-2.49,1.82-4.22,4.6-4.22a5.43,5.43,0,0,1,2.32.47v-.21c0-1,.41-1.64,1.43-1.64h1.82v1.66h-2.32v.79a4.06,4.06,0,0,1,1.4,3.15c0,2.49-1.83,4.23-4.63,4.23a6.29,6.29,0,0,1-1.18-.12c-.81.21-1.62.61-1.62,1.37s.76.93,1.88.93h2.61c3,0,4.34,1.23,4.34,3.25C714.73,511.48,712.74,512.65,708.8,512.65Zm1.61-5.15h-4.08a1.71,1.71,0,0,0-1.14,1.66c0,1.07.74,1.94,2.66,1.94h1.75c2.12,0,3.35-.66,3.35-2C713,508.14,712.31,507.5,710.41,507.5Zm.93-7.86V499c0-1.61-1-2.37-2.64-2.37s-2.63.76-2.63,2.37v.66c0,1.62,1,2.38,2.63,2.38S711.34,501.26,711.34,499.64Z"/><path class="cls-6" d="M716.94,507.62V495.37h1.9v2h.09a3.48,3.48,0,0,1,3.47-2.28c2.51,0,4.1,1.71,4.1,4.67v7.86h-1.9v-7.53c0-2.18-1-3.29-2.77-3.29-1.52,0-3,.76-3,2.32v8.5Z"/><path class="cls-6" d="M729.26,505.5l1.35-1.09a4.44,4.44,0,0,0,3.63,1.88c1.61,0,2.56-.74,2.56-2,0-.94-.52-1.68-2.13-1.92l-1-.14c-2.25-.33-3.94-1.26-3.94-3.54s1.88-3.6,4.37-3.6a5.07,5.07,0,0,1,4.27,2l-1.26,1.14a3.77,3.77,0,0,0-3.15-1.5c-1.57,0-2.4.74-2.4,1.9s.83,1.66,2.35,1.9l1,.14c2.7.4,3.75,1.59,3.75,3.44,0,2.37-1.73,3.82-4.53,3.82A5.68,5.68,0,0,1,729.26,505.5Z"/><path class="cls-6" d="M749.1,495.37H751l-5.48,15.09c-.55,1.47-1,1.9-2.85,1.9h-1V510.7h1.92l.93-2.61-4.58-12.72h1.89l2.95,8.33.57,2h.11l.67-2Z"/><path class="cls-6" d="M752.14,505.5l1.35-1.09a4.44,4.44,0,0,0,3.63,1.88c1.61,0,2.56-.74,2.56-2,0-.94-.52-1.68-2.14-1.92l-1-.14c-2.25-.33-3.94-1.26-3.94-3.54s1.88-3.6,4.37-3.6a5.08,5.08,0,0,1,4.27,2L760,498.2a3.77,3.77,0,0,0-3.15-1.5c-1.57,0-2.4.74-2.4,1.9s.83,1.66,2.35,1.9l1,.14c2.7.4,3.75,1.59,3.75,3.44,0,2.37-1.73,3.82-4.53,3.82A5.68,5.68,0,0,1,752.14,505.5Z"/><path class="cls-6" d="M767.39,507.62a1.87,1.87,0,0,1-2-2V497h-2v-1.66h1.14c.81,0,1.07-.28,1.07-1.11V492h1.71v3.39H770V497h-2.68V506h2.49v1.66Z"/><path class="cls-6" d="M772,501.49c0-3.89,2.19-6.4,5.51-6.4s5.29,2.51,5.29,6v.9H774v.57a3.47,3.47,0,0,0,3.63,3.7,3.55,3.55,0,0,0,3.37-2.11l1.35,1a5.14,5.14,0,0,1-4.84,2.8C774.21,507.9,772,505.39,772,501.49Zm2-1.11v.17h6.76v-.27c0-2.16-1.31-3.6-3.25-3.6A3.47,3.47,0,0,0,774,500.38Z"/><path class="cls-6" d="M786,507.62V495.37h1.9v2h.1a3.29,3.29,0,0,1,3.3-2.28,3.75,3.75,0,0,1,3.74,2.49h0a3.67,3.67,0,0,1,3.73-2.49c2.49,0,4,1.71,4,4.67v7.86h-1.89v-7.53c0-2.15-.84-3.29-2.69-3.29-1.49,0-2.87.76-2.87,2.32v8.5h-1.9v-7.53c0-2.18-.83-3.29-2.63-3.29-1.49,0-2.92.76-2.92,2.32v8.5Z"/><text class="cls-18" transform="translate(696.38 396.42)">FDS</text><path class="cls-19" d="M658.48,422.56V336.09a4,4,0,0,1,4.09-3.92H798a4,4,0,0,1,4.09,3.92v86.5"/><path class="cls-19" d="M808.52,422.77v13.34a9.17,9.17,0,0,1-9.15,9.14H661.23a9.16,9.16,0,0,1-9.14-9.14V423.19Z"/><line class="cls-20" x1="725.73" y1="434.01" x2="734.87" y2="434.01"/><circle class="cls-6" cx="730.3" cy="341.59" r="2.97"/><text class="cls-7" transform="translate(676.78 202.9)">FDS <tspan class="cls-21" x="48.58" y="0">T</tspan><tspan x="60.61" y="0">eam</tspan></text><path class="cls-4" d="M687.8,89c-3.42,0-5-3-5.81-4.34s-1.47-4.36-.8-8.82c.81-5.45,6.61-5.2,6.61-5.2s5.81-.25,6.62,5.2c.66,4.46,0,7.46-.81,8.82S691.23,89,687.8,89"/><path class="cls-10" d="M692,88.28s.07,2.07,0,3,4.19,2.39,4.19,2.39A23.17,23.17,0,0,1,702,96.09c2.3,1.19.87,19.76.51,22.29-.41,3-.59,5.56-4.46,7.89"/><line class="cls-10" x1="696.49" y1="105.09" x2="696.49" y2="169.59"/><path class="cls-10" d="M683.6,88.28s-.07,2.07,0,3-4.19,2.39-4.19,2.39a23.17,23.17,0,0,0-5.85,2.37c-2.3,1.19-.86,19.76-.51,22.29.41,3,.6,5.56,4.46,7.89"/><line class="cls-10" x1="679.11" y1="105.09" x2="679.11" y2="169.59"/><line class="cls-10" x1="687.8" y1="136.11" x2="687.8" y2="169.59"/><path class="cls-4" d="M711.17,89c-3.42,0-5-3-5.81-4.34s-1.47-4.36-.81-8.82c.81-5.45,6.62-5.2,6.62-5.2s5.8-.25,6.61,5.2c.67,4.46,0,7.46-.8,8.82S714.59,89,711.17,89"/><path class="cls-10" d="M715.37,88.28s.07,2.07,0,3,4.19,2.39,4.19,2.39a23.17,23.17,0,0,1,5.85,2.37c2.3,1.19.86,19.76.51,22.29-.41,3-.59,5.56-4.46,7.89"/><line class="cls-10" x1="719.86" y1="105.09" x2="719.86" y2="169.59"/><path class="cls-4" d="M734.54,89c-3.43,0-5-3-5.82-4.34s-1.46-4.36-.8-8.82c.81-5.45,6.62-5.2,6.62-5.2s5.8-.25,6.61,5.2c.66,4.46,0,7.46-.8,8.82S738,89,734.54,89"/><path class="cls-10" d="M738.73,88.28s.08,2.07,0,3,4.2,2.39,4.2,2.39a23.34,23.34,0,0,1,5.85,2.37c2.29,1.19.86,19.76.51,22.29-.42,3-.6,5.56-4.46,7.89"/><line class="cls-10" x1="743.23" y1="105.09" x2="743.23" y2="169.59"/><g class="cls-22"><path class="cls-6" d="M737,150.75a.23.23,0,0,1,.19-.23l3.6-.6a1.14,1.14,0,0,0,.92-.84,14.12,14.12,0,0,1,1.49-3.59,1.13,1.13,0,0,0,0-1.26l-2.11-3a.24.24,0,0,1,0-.29l2.56-2.56a.19.19,0,0,1,.16-.06.2.2,0,0,1,.13,0l3,2.11a1.15,1.15,0,0,0,1.26.06,13.43,13.43,0,0,1,3.59-1.49,1.15,1.15,0,0,0,.84-.93l.61-3.6a.22.22,0,0,1,.22-.18H757a.22.22,0,0,1,.22.18l.6,3.6a1.18,1.18,0,0,0,.85.93,14.08,14.08,0,0,1,3.51,1.43,1.13,1.13,0,0,0,1.25-.06l3-2.13a.28.28,0,0,1,.13,0,.23.23,0,0,1,.16.07l2.55,2.55a.23.23,0,0,1,0,.29l-2.11,3a1.15,1.15,0,0,0,0,1.26,13.76,13.76,0,0,1,1.51,3.58,1.18,1.18,0,0,0,.92.85l3.62.62a.22.22,0,0,1,.19.22v3.61a.22.22,0,0,1-.19.22l-3.57.6a1.15,1.15,0,0,0-.93.85,13.78,13.78,0,0,1-1.47,3.6,1.16,1.16,0,0,0,.06,1.25l2.14,3a.23.23,0,0,1,0,.29l-2.55,2.55a.22.22,0,0,1-.16.07.22.22,0,0,1-.13,0l-3-2.11a1.17,1.17,0,0,0-1.26-.05,13.9,13.9,0,0,1-3.58,1.51,1.18,1.18,0,0,0-.85.92l-.62,3.62a.22.22,0,0,1-.22.19h-3.61a.22.22,0,0,1-.22-.19l-.6-3.57a1.16,1.16,0,0,0-.85-.93,13.92,13.92,0,0,1-3.68-1.51,1.17,1.17,0,0,0-1.26.05l-3,2.13a.38.38,0,0,1-.13,0,.22.22,0,0,1-.16-.07L741,164.14a.24.24,0,0,1,0-.29l2.11-3a1.15,1.15,0,0,0,.06-1.26,13.43,13.43,0,0,1-1.49-3.59,1.15,1.15,0,0,0-.93-.85l-3.6-.61a.21.21,0,0,1-.18-.22v-3.6Zm18.19,9.13a7.34,7.34,0,1,0-7.33-7.34A7.34,7.34,0,0,0,755.17,159.88Z"/></g><path class="cls-6" d="M757.67,124.27a.2.2,0,0,1,.16-.19l3-.5a1,1,0,0,0,.78-.72,11.54,11.54,0,0,1,1.25-3,1,1,0,0,0,0-1.06l-1.78-2.51a.2.2,0,0,1,0-.24l2.15-2.15a.19.19,0,0,1,.14-.06.15.15,0,0,1,.11,0l2.5,1.78a1,1,0,0,0,1.06,0,11.41,11.41,0,0,1,3-1.25,1,1,0,0,0,.71-.78l.52-3a.18.18,0,0,1,.18-.16h3a.19.19,0,0,1,.19.16l.5,3a1,1,0,0,0,.72.78,11.47,11.47,0,0,1,3,1.21,1.09,1.09,0,0,0,.49.13,1,1,0,0,0,.57-.18l2.52-1.8a.23.23,0,0,1,.11,0,.18.18,0,0,1,.14,0l2.14,2.15a.2.2,0,0,1,0,.25l-1.78,2.49a1,1,0,0,0,0,1.06,11.8,11.8,0,0,1,1.27,3,1,1,0,0,0,.78.71l3,.52a.19.19,0,0,1,.16.19v3a.19.19,0,0,1-.16.19l-3,.51a1,1,0,0,0-.79.72,11.22,11.22,0,0,1-1.23,3,1,1,0,0,0,0,1l1.8,2.52a.21.21,0,0,1,0,.25l-2.15,2.15a.19.19,0,0,1-.14.06.21.21,0,0,1-.11,0l-2.49-1.77a1,1,0,0,0-1.06-.05,11.46,11.46,0,0,1-3,1.27,1,1,0,0,0-.71.78l-.52,3a.2.2,0,0,1-.19.16h-3a.18.18,0,0,1-.18-.16l-.51-3a1,1,0,0,0-.72-.78,11.77,11.77,0,0,1-3.09-1.27,1,1,0,0,0-1.06,0l-2.49,1.79a.25.25,0,0,1-.11,0,.2.2,0,0,1-.14-.06l-2.15-2.15a.21.21,0,0,1,0-.25l1.78-2.5a1,1,0,0,0,0-1.06,11.77,11.77,0,0,1-1.26-3,.93.93,0,0,0-.78-.71l-3-.52a.17.17,0,0,1-.15-.18v-3ZM773,132a6.18,6.18,0,1,0-6.18-6.18A6.18,6.18,0,0,0,773,132Z"/></g><g id="Layer_3" data-name="Layer 3"><path class="cls-23" d="M1167,1V568H1V1H1167m1-1H0V569H1168V0Z"/></g></svg>