<?xml version="1.0" encoding="UTF-8"?>
<svg width="189px" height="159px" viewBox="0 0 189 159" version="1.1" xmlns="http://www.w3.org/2000/svg" xmlns:xlink="http://www.w3.org/1999/xlink">
    <!-- Generator: Sketch 53.2 (72643) - https://sketchapp.com -->
    <title>Komponenter_Front</title>
    <desc>Created with Sketch.</desc>
    <g id="Illustrationer" stroke="none" stroke-width="1" fill="none" fill-rule="evenodd">
        <g id="Illustrationer_Front" transform="translate(-576.000000, -169.000000)">
            <g id="Komponenter" transform="translate(576.000000, 169.000000)">
                <g id="Group-9">
                    <path d="M0,36.9565217 L0,11.0869565 L25.8695652,11.0869565 C25.8695652,4.96379951 30.8333647,0 36.9565217,0 C43.0796787,0 48.0434783,4.96379951 48.0434783,11.0869565 L73.9130435,11.0869565 L73.9130435,36.9565217 C80.0362005,36.9565217 85,41.9203213 85,48.0434783 C85,54.1666353 80.0362005,59.1304348 73.9130435,59.1304348 L73.9130435,85 L48.0434783,85 C48.0434783,78.876843 43.0796787,73.9130435 36.9565217,73.9130435 C30.8333647,73.9130435 25.8695652,78.876843 25.8695652,85 L0,85 L0,59.1304348 C6.12315701,59.1304348 11.0869565,54.1666353 11.0869565,48.0434783 C11.0869565,41.9203213 6.12315701,36.9565217 0,36.9565217 Z" id="Combined-Shape" fill="#1A1A1A"></path>
                    <path d="M0,110.956522 L0,85.0869565 L25.8695652,85.0869565 C25.8695652,78.9637995 30.8333647,74 36.9565217,74 C43.0796787,74 48.0434783,78.9637995 48.0434783,85.0869565 L73.9130435,85.0869565 L73.9130435,110.956522 C80.0362005,110.956522 85,115.920321 85,122.043478 C85,128.166635 80.0362005,133.130435 73.9130435,133.130435 L73.9130435,159 L48.0434783,159 C48.0434783,152.876843 43.0796787,147.913043 36.9565217,147.913043 C30.8333647,147.913043 25.8695652,152.876843 25.8695652,159 L0,159 L0,133.130435 C6.12315701,133.130435 11.0869565,128.166635 11.0869565,122.043478 C11.0869565,115.920321 6.12315701,110.956522 0,110.956522 Z" id="Combined-Shape-Copy-2" fill="#FFFFFF"></path>
                    <path d="M104,73.9565217 L104,48.0869565 L129.869565,48.0869565 C129.869565,41.9637995 134.833365,37 140.956522,37 C147.079679,37 152.043478,41.9637995 152.043478,48.0869565 L177.913043,48.0869565 L177.913043,73.9565217 C184.0362,73.9565217 189,78.9203213 189,85.0434783 C189,91.1666353 184.0362,96.1304348 177.913043,96.1304348 L177.913043,122 L152.043478,122 C152.043478,115.876843 147.079679,110.913043 140.956522,110.913043 C134.833365,110.913043 129.869565,115.876843 129.869565,122 L104,122 L104,96.1304348 C110.123157,96.1304348 115.086957,91.1666353 115.086957,85.0434783 C115.086957,78.9203213 110.123157,73.9565217 104,73.9565217 Z" id="Combined-Shape-Copy" fill="#FFFFFF"></path>
                </g>
            </g>
        </g>
    </g>
</svg>