<?xml version="1.0" encoding="UTF-8"?>
<svg width="280px" height="190px" viewBox="0 0 280 190" version="1.1" xmlns="http://www.w3.org/2000/svg" xmlns:xlink="http://www.w3.org/1999/xlink">
    <!-- Generator: Sketch 52.6 (67491) - http://www.bohemiancoding.com/sketch -->
    <title>Guide_Whitespace</title>
    <desc>Created with Sketch.</desc>
    <defs>
        <rect id="path-1" x="0" y="0" width="33" height="80"></rect>
        <rect id="path-3" x="0" y="0" width="33" height="77"></rect>
    </defs>
    <g id="Illustrationer" stroke="none" stroke-width="1" fill="none" fill-rule="evenodd">
        <g id="Komponentside-2" transform="translate(-754.000000, -2525.000000)">
            <g id="Box-Copy" transform="translate(354.000000, 2480.000000)">
                <g id="Whitespace" transform="translate(320.000000, 0.000000)">
                    <g id="Guide_Whitespace" transform="translate(80.000000, 45.000000)">
                        <rect id="White-BG" fill="#FFFFFF" x="0" y="0" width="280" height="190"></rect>
                        <g id="Input" transform="translate(33.000000, 77.000000)" fill-rule="nonzero">
                            <rect id="Rectangle-15-Copy-6" fill="#DCDCDC" x="0" y="0" width="44" height="5.5"></rect>
                            <rect id="Rectangle-15" stroke="#1A1A1A" stroke-width="2" fill="#FFFFFF" x="1" y="12" width="212" height="20" rx="2"></rect>
                        </g>
                        <g id="Measure" transform="translate(33.000000, 110.000000)">
                            <mask id="mask-2" fill="white">
                                <use xlink:href="#path-1"></use>
                            </mask>
                            <g id="Mask"></g>
                            <g id="Divider_Italic_2" mask="url(#mask-2)" fill="#F3BAD9">
                                <g transform="translate(-0.000000, 0.000000)" id="Combined-Shape">
                                    <path d="M0.000546666667,4.97379915e-14 L2.73388,4.97379915e-14 L0.000546666667,2.75 L0.000546666667,4.97379915e-14 Z M5.46666667,4.97379915e-14 L8.20136667,4.97379915e-14 L5.46666667,2.75 L2.73333333,5.501375 L4.05009359e-13,8.25 L4.05009359e-13,5.501375 L2.73333333,2.75 L5.46666667,4.97379915e-14 Z M10.9340167,4.97379915e-14 L13.66735,4.97379915e-14 L10.9340167,2.75 L8.20068333,5.501375 L5.46598333,8.25 L2.73401667,11 L0.000683333334,13.75 L0.000683333334,11 L2.73401667,8.25 L5.46598333,5.501375 L8.20068333,2.75 L10.9340167,4.97379915e-14 Z M16.4001367,4.97379915e-14 L19.1348367,4.97379915e-14 L16.4001367,2.75 L13.6668033,5.501375 L10.93347,8.25 L8.20150333,11 L5.46680333,13.75 L2.73347,16.5 L0.000136666667,19.25 L0.000136666667,16.5 L2.73347,13.75 L5.46680333,11 L8.20150333,8.25 L10.93347,5.501375 L13.6668033,2.75 L16.4001367,4.97379915e-14 Z M21.8674867,4.97379915e-14 L24.60082,4.97379915e-14 L21.8674867,2.75 L19.1341533,5.501375 L16.3994533,8.25 L13.6674867,11 L10.9341533,13.75 L8.20082,16.5 L5.46612,19.25 L2.73415333,22 L0.00082,24.75 L0.00082,22 L2.73415333,19.25 L5.46612,16.5 L8.20082,13.75 L10.9341533,11 L13.6674867,8.25 L16.3994533,5.501375 L19.1341533,2.75 L21.8674867,4.97379915e-14 Z M27.3336067,1.49213975e-13 L30.06694,1.49213975e-13 L27.3336067,2.75 L24.6002733,5.501375 L21.86694,8.25 L19.1349733,11 L16.4002733,13.75 L13.66694,16.5 L10.9336067,19.25 L8.20164,22 L5.46694,24.75 L2.73360667,27.5 L0.000273333334,30.251375 L0.000273333334,27.5 L2.73360667,24.75 L5.46694,22 L8.20164,19.25 L10.9336067,16.5 L13.66694,13.75 L16.4002733,11 L19.1349733,8.25 L21.86694,5.501375 L24.6002733,2.75 L27.3336067,1.49213975e-13 Z M32.8009567,4.97379915e-14 L35.53429,4.97379915e-14 L32.8009567,2.75 L30.0662567,5.501375 L27.3329233,8.25 L24.6009567,11 L21.8676233,13.75 L19.13429,16.5 L16.39959,19.25 L13.6676233,22 L10.93429,24.75 L8.20095667,27.5 L5.46625667,30.251375 L2.73292333,33 L0.000956666667,35.75 L0.000956666667,33 L2.73292333,30.251375 L5.46625667,27.5 L8.20095667,24.75 L10.93429,22 L13.6676233,19.25 L16.39959,16.5 L19.13429,13.75 L21.8676233,11 L24.6009567,8.25 L27.3329233,5.501375 L30.0662567,2.75 L32.8009567,4.97379915e-14 Z M38.2670767,33.0004125 L41.00041,30.2504125 L41.00041,33.0004125 L38.2670767,35.7504125 L35.5337433,38.5004125 L32.80041,41.2490375 L30.0670767,44.0004125 L27.3337433,46.7504125 L24.60041,49.5004125 L21.8670767,52.2490375 L19.13511,55.0004125 L16.40041,57.7504125 L13.6670767,60.5004125 L10.9337433,63.2504125 L8.20041,65.9990375 L5.46707667,68.7504125 L2.73374333,71.5004125 L0.00041,74.2504125 L0.00041,71.5004125 L2.73374333,68.7504125 L5.46707667,65.9990375 L8.20041,63.2504125 L10.9337433,60.5004125 L13.6670767,57.7504125 L16.40041,55.0004125 L19.13511,52.2490375 L21.8670767,49.5004125 L24.60041,46.7504125 L27.3337433,44.0004125 L30.0670767,41.2490375 L32.80041,38.5004125 L35.5337433,35.7504125 L38.2670767,33.0004125 Z M38.2670767,27.499725 L41.00041,24.749725 L41.00041,27.499725 L38.2670767,30.2511 L35.5337433,33.0011 L32.80041,35.749725 L30.0670767,38.499725 L27.3337433,41.249725 L24.60041,44.0011 L21.8670767,46.749725 L19.13511,49.499725 L16.40041,52.249725 L13.6670767,55.0011 L10.9337433,57.7511 L8.20041,60.499725 L5.46707667,63.249725 L2.73374333,65.999725 L0.00041,68.7511 L0.00041,65.999725 L2.73374333,63.249725 L5.46707667,60.499725 L8.20041,57.7511 L10.9337433,55.0011 L13.6670767,52.249725 L16.40041,49.499725 L19.13511,46.749725 L21.8670767,44.0011 L24.60041,41.249725 L27.3337433,38.499725 L30.0670767,35.749725 L32.80041,33.0011 L35.5337433,30.2511 L38.2670767,27.499725 Z M38.2670767,22.000275 L41.00041,19.250275 L41.00041,22.000275 L38.2670767,24.750275 L35.5337433,27.500275 L32.80041,30.250275 L30.0670767,33.000275 L27.3337433,35.750275 L24.60041,38.500275 L21.8670767,41.250275 L19.13511,44.000275 L16.40041,46.750275 L13.6670767,49.500275 L10.9337433,52.250275 L8.20041,55.000275 L5.46707667,57.750275 L2.73374333,60.500275 L0.00041,63.250275 L0.00041,60.500275 L2.73374333,57.750275 L5.46707667,55.000275 L8.20041,52.250275 L10.9337433,49.500275 L13.6670767,46.750275 L16.40041,44.000275 L19.13511,41.250275 L21.8670767,38.500275 L24.60041,35.750275 L27.3337433,33.000275 L30.0670767,30.250275 L32.80041,27.500275 L35.5337433,24.750275 L38.2670767,22.000275 Z M38.2670767,16.4995875 L41.00041,13.7495875 L41.00041,16.4995875 L38.2670767,19.2509625 L35.5337433,21.9995875 L32.80041,24.7495875 L30.0670767,27.4995875 L27.3337433,30.2509625 L24.60041,33.0009625 L21.8670767,35.7495875 L19.13511,38.4995875 L16.40041,41.2495875 L13.6670767,44.0009625 L10.9337433,46.7495875 L8.20041,49.4995875 L5.46707667,52.2495875 L2.73374333,55.0009625 L0.00041,57.7509625 L0.00041,55.0009625 L2.73374333,52.2495875 L5.46707667,49.4995875 L8.20041,46.7495875 L10.9337433,44.0009625 L13.6670767,41.2495875 L16.40041,38.4995875 L19.13511,35.7495875 L21.8670767,33.0009625 L24.60041,30.2509625 L27.3337433,27.4995875 L30.0670767,24.7495875 L32.80041,21.9995875 L35.5337433,19.2509625 L38.2670767,16.4995875 Z M38.2670767,11.0001375 L41.00041,8.2501375 L41.00041,11.0001375 L38.2670767,13.7501375 L35.5337433,16.5001375 L32.80041,19.2501375 L30.0670767,22.0001375 L27.3337433,24.7501375 L24.60041,27.5001375 L21.8670767,30.2501375 L19.13511,33.0001375 L16.40041,35.7501375 L13.6670767,38.5001375 L10.9337433,41.2501375 L8.20041,44.0001375 L5.46707667,46.7501375 L2.73374333,49.5001375 L0.00041,52.2501375 L0.00041,49.5001375 L2.73374333,46.7501375 L5.46707667,44.0001375 L8.20041,41.2501375 L10.9337433,38.5001375 L13.6670767,35.7501375 L16.40041,33.0001375 L19.13511,30.2501375 L21.8670767,27.5001375 L24.60041,24.7501375 L27.3337433,22.0001375 L30.0670767,19.2501375 L32.80041,16.5001375 L35.5337433,13.7501375 L38.2670767,11.0001375 Z M38.2670767,5.5006875 L41.00041,2.7493125 L41.00041,5.5006875 L38.2670767,8.2506875 L35.5337433,11.0006875 L32.80041,13.7493125 L30.0670767,16.4993125 L27.3337433,19.2506875 L24.60041,22.0006875 L21.8670767,24.7493125 L19.13511,27.4993125 L16.40041,30.2506875 L13.6670767,33.0006875 L10.9337433,35.7506875 L8.20041,38.4993125 L5.46707667,41.2493125 L2.73374333,44.0006875 L0.00041,46.7506875 L0.00041,44.0006875 L2.73374333,41.2493125 L5.46707667,38.4993125 L8.20041,35.7506875 L10.9337433,33.0006875 L13.6670767,30.2506875 L16.40041,27.4993125 L19.13511,24.7493125 L21.8670767,22.0006875 L24.60041,19.2506875 L27.3337433,16.4993125 L30.0670767,13.7493125 L32.80041,11.0006875 L35.5337433,8.2506875 L38.2670767,5.5006875 Z M38.2670767,4.97379915e-14 L41.00041,4.97379915e-14 L38.2670767,2.75 L35.5337433,5.501375 L32.80041,8.25 L30.0670767,11 L27.3337433,13.75 L24.60041,16.5 L21.8670767,19.25 L19.13511,22 L16.40041,24.75 L13.6670767,27.5 L10.9337433,30.251375 L8.20041,33 L5.46707667,35.75 L2.73374333,38.5 L0.00041,41.25 L0.00041,38.5 L2.73374333,35.75 L5.46707667,33 L8.20041,30.251375 L10.9337433,27.5 L13.6670767,24.75 L16.40041,22 L19.13511,19.25 L21.8670767,16.5 L24.60041,13.75 L27.3337433,11 L30.0670767,8.25 L32.80041,5.501375 L35.5337433,2.75 L38.2670767,4.97379915e-14 Z M38.2670767,71.500275 L41.00041,68.750275 L41.00041,71.500275 L38.2670767,74.250275 L35.5337433,77.000275 L32.80041,79.750275 L30.0670767,82.500275 L27.3337433,85.250275 L24.60041,88.000275 L21.8670767,90.7489 L19.13511,93.500275 L16.40041,96.250275 L13.6670767,99.000275 L10.9337433,101.750275 L8.20041,104.500275 L5.46707667,107.250275 L2.73374333,110.000275 L0.00041,110.000275 L2.73374333,107.250275 L5.46707667,104.500275 L8.20041,101.750275 L10.9337433,99.000275 L13.6670767,96.250275 L16.40041,93.500275 L19.13511,90.7489 L21.8670767,88.000275 L24.60041,85.250275 L27.3337433,82.500275 L30.0670767,79.750275 L32.80041,77.000275 L35.5337433,74.250275 L38.2670767,71.500275 Z M38.2670767,65.9995875 L41.00041,63.2495875 L41.00041,65.9995875 L38.2670767,68.7509625 L35.5337433,71.5009625 L32.80041,74.2495875 L30.0670767,76.9995875 L27.3337433,79.7509625 L24.60041,82.5009625 L21.8670767,85.2495875 L19.13511,87.9995875 L16.40041,90.7495875 L13.6670767,93.5009625 L10.9337433,96.2509625 L8.20041,98.9995875 L5.46707667,101.749588 L2.73374333,104.500963 L0.00041,107.250963 L0.00041,104.500963 L2.73374333,101.749588 L5.46707667,98.9995875 L8.20041,96.2509625 L10.9337433,93.5009625 L13.6670767,90.7495875 L16.40041,87.9995875 L19.13511,85.2495875 L21.8670767,82.5009625 L24.60041,79.7509625 L27.3337433,76.9995875 L30.0670767,74.2495875 L32.80041,71.5009625 L35.5337433,68.7509625 L38.2670767,65.9995875 Z M38.2670767,60.5001375 L41.00041,57.7501375 L41.00041,60.5001375 L38.2670767,63.2501375 L35.5337433,66.0001375 L32.80041,68.7501375 L30.0670767,71.5001375 L27.3337433,74.2501375 L24.60041,77.0001375 L21.8670767,79.7501375 L19.13511,82.5001375 L16.40041,85.2501375 L13.6670767,88.0001375 L10.9337433,90.7501375 L8.20041,93.5001375 L5.46707667,96.2501375 L2.73374333,99.0001375 L0.00041,101.750138 L0.00041,99.0001375 L2.73374333,96.2501375 L5.46707667,93.5001375 L8.20041,90.7501375 L10.9337433,88.0001375 L13.6670767,85.2501375 L16.40041,82.5001375 L19.13511,79.7501375 L21.8670767,77.0001375 L24.60041,74.2501375 L27.3337433,71.5001375 L30.0670767,68.7501375 L32.80041,66.0001375 L35.5337433,63.2501375 L38.2670767,60.5001375 Z M38.2670767,55.0006875 L41.00041,52.2493125 L41.00041,55.0006875 L38.2670767,57.7506875 L35.5337433,60.5006875 L32.80041,63.2493125 L30.0670767,65.9993125 L27.3337433,68.7506875 L24.60041,71.5006875 L21.8670767,74.2493125 L19.13511,76.9993125 L16.40041,79.7506875 L13.6670767,82.5006875 L10.9337433,85.2506875 L8.20041,87.9993125 L5.46707667,90.7493125 L2.73374333,93.5006875 L0.00041,96.2506875 L0.00041,93.5006875 L2.73374333,90.7493125 L5.46707667,87.9993125 L8.20041,85.2506875 L10.9337433,82.5006875 L13.6670767,79.7506875 L16.40041,76.9993125 L19.13511,74.2493125 L21.8670767,71.5006875 L24.60041,68.7506875 L27.3337433,65.9993125 L30.0670767,63.2493125 L32.80041,60.5006875 L35.5337433,57.7506875 L38.2670767,55.0006875 Z M38.2670767,49.5 L41.00041,46.75 L41.00041,49.5 L38.2670767,52.25 L35.5337433,55.001375 L32.80041,57.75 L30.0670767,60.5 L27.3337433,63.25 L24.60041,66 L21.8670767,68.75 L19.13511,71.5 L16.40041,74.25 L13.6670767,77 L10.9337433,79.751375 L8.20041,82.5 L5.46707667,85.25 L2.73374333,88 L0.00041,90.75 L0.00041,88 L2.73374333,85.25 L5.46707667,82.5 L8.20041,79.751375 L10.9337433,77 L13.6670767,74.25 L16.40041,71.5 L19.13511,68.75 L21.8670767,66 L24.60041,63.25 L27.3337433,60.5 L30.0670767,57.75 L32.80041,55.001375 L35.5337433,52.25 L38.2670767,49.5 Z M38.2670767,44.00055 L41.00041,41.249175 L41.00041,44.00055 L38.2670767,46.75055 L35.5337433,49.50055 L32.80041,52.249175 L30.0670767,55.00055 L27.3337433,57.75055 L24.60041,60.50055 L21.8670767,63.249175 L19.13511,65.999175 L16.40041,68.75055 L13.6670767,71.50055 L10.9337433,74.25055 L8.20041,76.999175 L5.46707667,79.75055 L2.73374333,82.50055 L0.00041,85.25055 L0.00041,82.50055 L2.73374333,79.75055 L5.46707667,76.999175 L8.20041,74.25055 L10.9337433,71.50055 L13.6670767,68.75055 L16.40041,65.999175 L19.13511,63.249175 L21.8670767,60.50055 L24.60041,57.75055 L27.3337433,55.00055 L30.0670767,52.249175 L32.80041,49.50055 L35.5337433,46.75055 L38.2670767,44.00055 Z M38.2670767,38.4998625 L41.00041,35.7498625 L41.00041,38.4998625 L38.2670767,41.2498625 L35.5337433,44.0012375 L32.80041,46.7498625 L30.0670767,49.4998625 L27.3337433,52.2498625 L24.60041,55.0012375 L21.8670767,57.7498625 L19.13511,60.4998625 L16.40041,63.2498625 L13.6670767,65.9998625 L10.9337433,68.7512375 L8.20041,71.4998625 L5.46707667,74.2498625 L2.73374333,76.9998625 L0.00041,79.7512375 L0.00041,76.9998625 L2.73374333,74.2498625 L5.46707667,71.4998625 L8.20041,68.7512375 L10.9337433,65.9998625 L13.6670767,63.2498625 L16.40041,60.4998625 L19.13511,57.7498625 L21.8670767,55.0012375 L24.60041,52.2498625 L27.3337433,49.4998625 L30.0670767,46.7498625 L32.80041,44.0012375 L35.5337433,41.2498625 L38.2670767,38.4998625 Z M38.2670767,104.500688 L41.00041,101.749313 L41.00041,104.500688 L38.2670767,107.250688 L35.5337433,110.000688 L32.80041,110.000688 L35.5337433,107.250688 L38.2670767,104.500688 Z M38.2670767,99 L41.00041,96.25 L41.00041,99 L38.2670767,101.75 L35.5337433,104.501375 L32.80041,107.25 L30.0670767,110 L27.3337433,110 L30.0670767,107.25 L32.80041,104.501375 L35.5337433,101.75 L38.2670767,99 Z M38.2670767,93.50055 L41.00041,90.749175 L41.00041,93.50055 L38.2670767,96.25055 L35.5337433,99.00055 L32.80041,101.749175 L30.0670767,104.50055 L27.3337433,107.25055 L24.60041,110.00055 L21.8670767,110.00055 L24.60041,107.25055 L27.3337433,104.50055 L30.0670767,101.749175 L32.80041,99.00055 L35.5337433,96.25055 L38.2670767,93.50055 Z M38.2670767,87.9998625 L41.00041,85.2498625 L41.00041,87.9998625 L38.2670767,90.7498625 L35.5337433,93.5012375 L32.80041,96.2498625 L30.0670767,98.9998625 L27.3337433,101.749863 L24.60041,104.501238 L21.8670767,107.249863 L19.13511,109.999863 L16.40041,109.999863 L19.13511,107.249863 L21.8670767,104.501238 L24.60041,101.749863 L27.3337433,98.9998625 L30.0670767,96.2498625 L32.80041,93.5012375 L35.5337433,90.7498625 L38.2670767,87.9998625 Z M38.2670767,82.5004125 L41.00041,79.7504125 L41.00041,82.5004125 L38.2670767,85.2504125 L35.5337433,88.0004125 L32.80041,90.7490375 L30.0670767,93.5004125 L27.3337433,96.2504125 L24.60041,99.0004125 L21.8670767,101.749038 L19.13511,104.500413 L16.40041,107.250413 L13.6670767,110.000413 L10.9337433,110.000413 L13.6670767,107.250413 L16.40041,104.500413 L19.13511,101.749038 L21.8670767,99.0004125 L24.60041,96.2504125 L27.3337433,93.5004125 L30.0670767,90.7490375 L32.80041,88.0004125 L35.5337433,85.2504125 L38.2670767,82.5004125 Z M38.2670767,76.999725 L41.00041,74.249725 L41.00041,76.999725 L38.2670767,79.7511 L35.5337433,82.5011 L32.80041,85.249725 L30.0670767,87.999725 L27.3337433,90.749725 L24.60041,93.5011 L21.8670767,96.249725 L19.13511,98.999725 L16.40041,101.749725 L13.6670767,104.5011 L10.9337433,107.2511 L8.20041,109.999725 L5.46707667,109.999725 L8.20041,107.2511 L10.9337433,104.5011 L13.6670767,101.749725 L16.40041,98.999725 L19.13511,96.249725 L21.8670767,93.5011 L24.60041,90.749725 L27.3337433,87.999725 L30.0670767,85.249725 L32.80041,82.5011 L35.5337433,79.7511 L38.2670767,76.999725 Z M38.2670767,110.000138 L41.00041,107.250138 L41.00041,110.000138 L38.2670767,110.000138 Z"></path>
                                </g>
                            </g>
                        </g>
                        <g id="Measure-Copy" transform="translate(33.000000, 0.000000)">
                            <mask id="mask-4" fill="white">
                                <use xlink:href="#path-3"></use>
                            </mask>
                            <g id="Mask"></g>
                            <g id="Divider_Italic_2" mask="url(#mask-4)" fill="#F3BAD9">
                                <g transform="translate(-0.000000, 0.000000)" id="Combined-Shape">
                                    <path d="M0.000546666667,4.97379915e-14 L2.73388,4.97379915e-14 L0.000546666667,2.75 L0.000546666667,4.97379915e-14 Z M5.46666667,4.97379915e-14 L8.20136667,4.97379915e-14 L5.46666667,2.75 L2.73333333,5.501375 L4.05009359e-13,8.25 L4.05009359e-13,5.501375 L2.73333333,2.75 L5.46666667,4.97379915e-14 Z M10.9340167,4.97379915e-14 L13.66735,4.97379915e-14 L10.9340167,2.75 L8.20068333,5.501375 L5.46598333,8.25 L2.73401667,11 L0.000683333334,13.75 L0.000683333334,11 L2.73401667,8.25 L5.46598333,5.501375 L8.20068333,2.75 L10.9340167,4.97379915e-14 Z M16.4001367,4.97379915e-14 L19.1348367,4.97379915e-14 L16.4001367,2.75 L13.6668033,5.501375 L10.93347,8.25 L8.20150333,11 L5.46680333,13.75 L2.73347,16.5 L0.000136666667,19.25 L0.000136666667,16.5 L2.73347,13.75 L5.46680333,11 L8.20150333,8.25 L10.93347,5.501375 L13.6668033,2.75 L16.4001367,4.97379915e-14 Z M21.8674867,4.97379915e-14 L24.60082,4.97379915e-14 L21.8674867,2.75 L19.1341533,5.501375 L16.3994533,8.25 L13.6674867,11 L10.9341533,13.75 L8.20082,16.5 L5.46612,19.25 L2.73415333,22 L0.00082,24.75 L0.00082,22 L2.73415333,19.25 L5.46612,16.5 L8.20082,13.75 L10.9341533,11 L13.6674867,8.25 L16.3994533,5.501375 L19.1341533,2.75 L21.8674867,4.97379915e-14 Z M27.3336067,1.49213975e-13 L30.06694,1.49213975e-13 L27.3336067,2.75 L24.6002733,5.501375 L21.86694,8.25 L19.1349733,11 L16.4002733,13.75 L13.66694,16.5 L10.9336067,19.25 L8.20164,22 L5.46694,24.75 L2.73360667,27.5 L0.000273333334,30.251375 L0.000273333334,27.5 L2.73360667,24.75 L5.46694,22 L8.20164,19.25 L10.9336067,16.5 L13.66694,13.75 L16.4002733,11 L19.1349733,8.25 L21.86694,5.501375 L24.6002733,2.75 L27.3336067,1.49213975e-13 Z M32.8009567,4.97379915e-14 L35.53429,4.97379915e-14 L32.8009567,2.75 L30.0662567,5.501375 L27.3329233,8.25 L24.6009567,11 L21.8676233,13.75 L19.13429,16.5 L16.39959,19.25 L13.6676233,22 L10.93429,24.75 L8.20095667,27.5 L5.46625667,30.251375 L2.73292333,33 L0.000956666667,35.75 L0.000956666667,33 L2.73292333,30.251375 L5.46625667,27.5 L8.20095667,24.75 L10.93429,22 L13.6676233,19.25 L16.39959,16.5 L19.13429,13.75 L21.8676233,11 L24.6009567,8.25 L27.3329233,5.501375 L30.0662567,2.75 L32.8009567,4.97379915e-14 Z M38.2670767,33.0004125 L41.00041,30.2504125 L41.00041,33.0004125 L38.2670767,35.7504125 L35.5337433,38.5004125 L32.80041,41.2490375 L30.0670767,44.0004125 L27.3337433,46.7504125 L24.60041,49.5004125 L21.8670767,52.2490375 L19.13511,55.0004125 L16.40041,57.7504125 L13.6670767,60.5004125 L10.9337433,63.2504125 L8.20041,65.9990375 L5.46707667,68.7504125 L2.73374333,71.5004125 L0.00041,74.2504125 L0.00041,71.5004125 L2.73374333,68.7504125 L5.46707667,65.9990375 L8.20041,63.2504125 L10.9337433,60.5004125 L13.6670767,57.7504125 L16.40041,55.0004125 L19.13511,52.2490375 L21.8670767,49.5004125 L24.60041,46.7504125 L27.3337433,44.0004125 L30.0670767,41.2490375 L32.80041,38.5004125 L35.5337433,35.7504125 L38.2670767,33.0004125 Z M38.2670767,27.499725 L41.00041,24.749725 L41.00041,27.499725 L38.2670767,30.2511 L35.5337433,33.0011 L32.80041,35.749725 L30.0670767,38.499725 L27.3337433,41.249725 L24.60041,44.0011 L21.8670767,46.749725 L19.13511,49.499725 L16.40041,52.249725 L13.6670767,55.0011 L10.9337433,57.7511 L8.20041,60.499725 L5.46707667,63.249725 L2.73374333,65.999725 L0.00041,68.7511 L0.00041,65.999725 L2.73374333,63.249725 L5.46707667,60.499725 L8.20041,57.7511 L10.9337433,55.0011 L13.6670767,52.249725 L16.40041,49.499725 L19.13511,46.749725 L21.8670767,44.0011 L24.60041,41.249725 L27.3337433,38.499725 L30.0670767,35.749725 L32.80041,33.0011 L35.5337433,30.2511 L38.2670767,27.499725 Z M38.2670767,22.000275 L41.00041,19.250275 L41.00041,22.000275 L38.2670767,24.750275 L35.5337433,27.500275 L32.80041,30.250275 L30.0670767,33.000275 L27.3337433,35.750275 L24.60041,38.500275 L21.8670767,41.250275 L19.13511,44.000275 L16.40041,46.750275 L13.6670767,49.500275 L10.9337433,52.250275 L8.20041,55.000275 L5.46707667,57.750275 L2.73374333,60.500275 L0.00041,63.250275 L0.00041,60.500275 L2.73374333,57.750275 L5.46707667,55.000275 L8.20041,52.250275 L10.9337433,49.500275 L13.6670767,46.750275 L16.40041,44.000275 L19.13511,41.250275 L21.8670767,38.500275 L24.60041,35.750275 L27.3337433,33.000275 L30.0670767,30.250275 L32.80041,27.500275 L35.5337433,24.750275 L38.2670767,22.000275 Z M38.2670767,16.4995875 L41.00041,13.7495875 L41.00041,16.4995875 L38.2670767,19.2509625 L35.5337433,21.9995875 L32.80041,24.7495875 L30.0670767,27.4995875 L27.3337433,30.2509625 L24.60041,33.0009625 L21.8670767,35.7495875 L19.13511,38.4995875 L16.40041,41.2495875 L13.6670767,44.0009625 L10.9337433,46.7495875 L8.20041,49.4995875 L5.46707667,52.2495875 L2.73374333,55.0009625 L0.00041,57.7509625 L0.00041,55.0009625 L2.73374333,52.2495875 L5.46707667,49.4995875 L8.20041,46.7495875 L10.9337433,44.0009625 L13.6670767,41.2495875 L16.40041,38.4995875 L19.13511,35.7495875 L21.8670767,33.0009625 L24.60041,30.2509625 L27.3337433,27.4995875 L30.0670767,24.7495875 L32.80041,21.9995875 L35.5337433,19.2509625 L38.2670767,16.4995875 Z M38.2670767,11.0001375 L41.00041,8.2501375 L41.00041,11.0001375 L38.2670767,13.7501375 L35.5337433,16.5001375 L32.80041,19.2501375 L30.0670767,22.0001375 L27.3337433,24.7501375 L24.60041,27.5001375 L21.8670767,30.2501375 L19.13511,33.0001375 L16.40041,35.7501375 L13.6670767,38.5001375 L10.9337433,41.2501375 L8.20041,44.0001375 L5.46707667,46.7501375 L2.73374333,49.5001375 L0.00041,52.2501375 L0.00041,49.5001375 L2.73374333,46.7501375 L5.46707667,44.0001375 L8.20041,41.2501375 L10.9337433,38.5001375 L13.6670767,35.7501375 L16.40041,33.0001375 L19.13511,30.2501375 L21.8670767,27.5001375 L24.60041,24.7501375 L27.3337433,22.0001375 L30.0670767,19.2501375 L32.80041,16.5001375 L35.5337433,13.7501375 L38.2670767,11.0001375 Z M38.2670767,5.5006875 L41.00041,2.7493125 L41.00041,5.5006875 L38.2670767,8.2506875 L35.5337433,11.0006875 L32.80041,13.7493125 L30.0670767,16.4993125 L27.3337433,19.2506875 L24.60041,22.0006875 L21.8670767,24.7493125 L19.13511,27.4993125 L16.40041,30.2506875 L13.6670767,33.0006875 L10.9337433,35.7506875 L8.20041,38.4993125 L5.46707667,41.2493125 L2.73374333,44.0006875 L0.00041,46.7506875 L0.00041,44.0006875 L2.73374333,41.2493125 L5.46707667,38.4993125 L8.20041,35.7506875 L10.9337433,33.0006875 L13.6670767,30.2506875 L16.40041,27.4993125 L19.13511,24.7493125 L21.8670767,22.0006875 L24.60041,19.2506875 L27.3337433,16.4993125 L30.0670767,13.7493125 L32.80041,11.0006875 L35.5337433,8.2506875 L38.2670767,5.5006875 Z M38.2670767,4.97379915e-14 L41.00041,4.97379915e-14 L38.2670767,2.75 L35.5337433,5.501375 L32.80041,8.25 L30.0670767,11 L27.3337433,13.75 L24.60041,16.5 L21.8670767,19.25 L19.13511,22 L16.40041,24.75 L13.6670767,27.5 L10.9337433,30.251375 L8.20041,33 L5.46707667,35.75 L2.73374333,38.5 L0.00041,41.25 L0.00041,38.5 L2.73374333,35.75 L5.46707667,33 L8.20041,30.251375 L10.9337433,27.5 L13.6670767,24.75 L16.40041,22 L19.13511,19.25 L21.8670767,16.5 L24.60041,13.75 L27.3337433,11 L30.0670767,8.25 L32.80041,5.501375 L35.5337433,2.75 L38.2670767,4.97379915e-14 Z M38.2670767,71.500275 L41.00041,68.750275 L41.00041,71.500275 L38.2670767,74.250275 L35.5337433,77.000275 L32.80041,79.750275 L30.0670767,82.500275 L27.3337433,85.250275 L24.60041,88.000275 L21.8670767,90.7489 L19.13511,93.500275 L16.40041,96.250275 L13.6670767,99.000275 L10.9337433,101.750275 L8.20041,104.500275 L5.46707667,107.250275 L2.73374333,110.000275 L0.00041,110.000275 L2.73374333,107.250275 L5.46707667,104.500275 L8.20041,101.750275 L10.9337433,99.000275 L13.6670767,96.250275 L16.40041,93.500275 L19.13511,90.7489 L21.8670767,88.000275 L24.60041,85.250275 L27.3337433,82.500275 L30.0670767,79.750275 L32.80041,77.000275 L35.5337433,74.250275 L38.2670767,71.500275 Z M38.2670767,65.9995875 L41.00041,63.2495875 L41.00041,65.9995875 L38.2670767,68.7509625 L35.5337433,71.5009625 L32.80041,74.2495875 L30.0670767,76.9995875 L27.3337433,79.7509625 L24.60041,82.5009625 L21.8670767,85.2495875 L19.13511,87.9995875 L16.40041,90.7495875 L13.6670767,93.5009625 L10.9337433,96.2509625 L8.20041,98.9995875 L5.46707667,101.749588 L2.73374333,104.500963 L0.00041,107.250963 L0.00041,104.500963 L2.73374333,101.749588 L5.46707667,98.9995875 L8.20041,96.2509625 L10.9337433,93.5009625 L13.6670767,90.7495875 L16.40041,87.9995875 L19.13511,85.2495875 L21.8670767,82.5009625 L24.60041,79.7509625 L27.3337433,76.9995875 L30.0670767,74.2495875 L32.80041,71.5009625 L35.5337433,68.7509625 L38.2670767,65.9995875 Z M38.2670767,60.5001375 L41.00041,57.7501375 L41.00041,60.5001375 L38.2670767,63.2501375 L35.5337433,66.0001375 L32.80041,68.7501375 L30.0670767,71.5001375 L27.3337433,74.2501375 L24.60041,77.0001375 L21.8670767,79.7501375 L19.13511,82.5001375 L16.40041,85.2501375 L13.6670767,88.0001375 L10.9337433,90.7501375 L8.20041,93.5001375 L5.46707667,96.2501375 L2.73374333,99.0001375 L0.00041,101.750138 L0.00041,99.0001375 L2.73374333,96.2501375 L5.46707667,93.5001375 L8.20041,90.7501375 L10.9337433,88.0001375 L13.6670767,85.2501375 L16.40041,82.5001375 L19.13511,79.7501375 L21.8670767,77.0001375 L24.60041,74.2501375 L27.3337433,71.5001375 L30.0670767,68.7501375 L32.80041,66.0001375 L35.5337433,63.2501375 L38.2670767,60.5001375 Z M38.2670767,55.0006875 L41.00041,52.2493125 L41.00041,55.0006875 L38.2670767,57.7506875 L35.5337433,60.5006875 L32.80041,63.2493125 L30.0670767,65.9993125 L27.3337433,68.7506875 L24.60041,71.5006875 L21.8670767,74.2493125 L19.13511,76.9993125 L16.40041,79.7506875 L13.6670767,82.5006875 L10.9337433,85.2506875 L8.20041,87.9993125 L5.46707667,90.7493125 L2.73374333,93.5006875 L0.00041,96.2506875 L0.00041,93.5006875 L2.73374333,90.7493125 L5.46707667,87.9993125 L8.20041,85.2506875 L10.9337433,82.5006875 L13.6670767,79.7506875 L16.40041,76.9993125 L19.13511,74.2493125 L21.8670767,71.5006875 L24.60041,68.7506875 L27.3337433,65.9993125 L30.0670767,63.2493125 L32.80041,60.5006875 L35.5337433,57.7506875 L38.2670767,55.0006875 Z M38.2670767,49.5 L41.00041,46.75 L41.00041,49.5 L38.2670767,52.25 L35.5337433,55.001375 L32.80041,57.75 L30.0670767,60.5 L27.3337433,63.25 L24.60041,66 L21.8670767,68.75 L19.13511,71.5 L16.40041,74.25 L13.6670767,77 L10.9337433,79.751375 L8.20041,82.5 L5.46707667,85.25 L2.73374333,88 L0.00041,90.75 L0.00041,88 L2.73374333,85.25 L5.46707667,82.5 L8.20041,79.751375 L10.9337433,77 L13.6670767,74.25 L16.40041,71.5 L19.13511,68.75 L21.8670767,66 L24.60041,63.25 L27.3337433,60.5 L30.0670767,57.75 L32.80041,55.001375 L35.5337433,52.25 L38.2670767,49.5 Z M38.2670767,44.00055 L41.00041,41.249175 L41.00041,44.00055 L38.2670767,46.75055 L35.5337433,49.50055 L32.80041,52.249175 L30.0670767,55.00055 L27.3337433,57.75055 L24.60041,60.50055 L21.8670767,63.249175 L19.13511,65.999175 L16.40041,68.75055 L13.6670767,71.50055 L10.9337433,74.25055 L8.20041,76.999175 L5.46707667,79.75055 L2.73374333,82.50055 L0.00041,85.25055 L0.00041,82.50055 L2.73374333,79.75055 L5.46707667,76.999175 L8.20041,74.25055 L10.9337433,71.50055 L13.6670767,68.75055 L16.40041,65.999175 L19.13511,63.249175 L21.8670767,60.50055 L24.60041,57.75055 L27.3337433,55.00055 L30.0670767,52.249175 L32.80041,49.50055 L35.5337433,46.75055 L38.2670767,44.00055 Z M38.2670767,38.4998625 L41.00041,35.7498625 L41.00041,38.4998625 L38.2670767,41.2498625 L35.5337433,44.0012375 L32.80041,46.7498625 L30.0670767,49.4998625 L27.3337433,52.2498625 L24.60041,55.0012375 L21.8670767,57.7498625 L19.13511,60.4998625 L16.40041,63.2498625 L13.6670767,65.9998625 L10.9337433,68.7512375 L8.20041,71.4998625 L5.46707667,74.2498625 L2.73374333,76.9998625 L0.00041,79.7512375 L0.00041,76.9998625 L2.73374333,74.2498625 L5.46707667,71.4998625 L8.20041,68.7512375 L10.9337433,65.9998625 L13.6670767,63.2498625 L16.40041,60.4998625 L19.13511,57.7498625 L21.8670767,55.0012375 L24.60041,52.2498625 L27.3337433,49.4998625 L30.0670767,46.7498625 L32.80041,44.0012375 L35.5337433,41.2498625 L38.2670767,38.4998625 Z M38.2670767,104.500688 L41.00041,101.749313 L41.00041,104.500688 L38.2670767,107.250688 L35.5337433,110.000688 L32.80041,110.000688 L35.5337433,107.250688 L38.2670767,104.500688 Z M38.2670767,99 L41.00041,96.25 L41.00041,99 L38.2670767,101.75 L35.5337433,104.501375 L32.80041,107.25 L30.0670767,110 L27.3337433,110 L30.0670767,107.25 L32.80041,104.501375 L35.5337433,101.75 L38.2670767,99 Z M38.2670767,93.50055 L41.00041,90.749175 L41.00041,93.50055 L38.2670767,96.25055 L35.5337433,99.00055 L32.80041,101.749175 L30.0670767,104.50055 L27.3337433,107.25055 L24.60041,110.00055 L21.8670767,110.00055 L24.60041,107.25055 L27.3337433,104.50055 L30.0670767,101.749175 L32.80041,99.00055 L35.5337433,96.25055 L38.2670767,93.50055 Z M38.2670767,87.9998625 L41.00041,85.2498625 L41.00041,87.9998625 L38.2670767,90.7498625 L35.5337433,93.5012375 L32.80041,96.2498625 L30.0670767,98.9998625 L27.3337433,101.749863 L24.60041,104.501238 L21.8670767,107.249863 L19.13511,109.999863 L16.40041,109.999863 L19.13511,107.249863 L21.8670767,104.501238 L24.60041,101.749863 L27.3337433,98.9998625 L30.0670767,96.2498625 L32.80041,93.5012375 L35.5337433,90.7498625 L38.2670767,87.9998625 Z M38.2670767,82.5004125 L41.00041,79.7504125 L41.00041,82.5004125 L38.2670767,85.2504125 L35.5337433,88.0004125 L32.80041,90.7490375 L30.0670767,93.5004125 L27.3337433,96.2504125 L24.60041,99.0004125 L21.8670767,101.749038 L19.13511,104.500413 L16.40041,107.250413 L13.6670767,110.000413 L10.9337433,110.000413 L13.6670767,107.250413 L16.40041,104.500413 L19.13511,101.749038 L21.8670767,99.0004125 L24.60041,96.2504125 L27.3337433,93.5004125 L30.0670767,90.7490375 L32.80041,88.0004125 L35.5337433,85.2504125 L38.2670767,82.5004125 Z M38.2670767,76.999725 L41.00041,74.249725 L41.00041,76.999725 L38.2670767,79.7511 L35.5337433,82.5011 L32.80041,85.249725 L30.0670767,87.999725 L27.3337433,90.749725 L24.60041,93.5011 L21.8670767,96.249725 L19.13511,98.999725 L16.40041,101.749725 L13.6670767,104.5011 L10.9337433,107.2511 L8.20041,109.999725 L5.46707667,109.999725 L8.20041,107.2511 L10.9337433,104.5011 L13.6670767,101.749725 L16.40041,98.999725 L19.13511,96.249725 L21.8670767,93.5011 L24.60041,90.749725 L27.3337433,87.999725 L30.0670767,85.249725 L32.80041,82.5011 L35.5337433,79.7511 L38.2670767,76.999725 Z M38.2670767,110.000138 L41.00041,107.250138 L41.00041,110.000138 L38.2670767,110.000138 Z"></path>
                                </g>
                            </g>
                        </g>
                    </g>
                </g>
            </g>
        </g>
    </g>
</svg>