<?xml version="1.0" encoding="UTF-8"?>
<svg width="288px" height="170px" viewBox="0 0 288 170" version="1.1" xmlns="http://www.w3.org/2000/svg" xmlns:xlink="http://www.w3.org/1999/xlink">
    <!-- Generator: Sketch 53.2 (72643) - https://sketchapp.com -->
    <title>Om designsystemet_Front</title>
    <desc>Created with Sketch.</desc>
    <g id="Illustrationer" stroke="none" stroke-width="1" fill="none" fill-rule="evenodd">
        <g id="Illustrationer_Front" transform="translate(-128.000000, -571.000000)">
            <g id="Om-designsystemet" transform="translate(128.000000, 571.000000)">
                <g id="Dashed-Box" transform="translate(26.000000, 15.000000)" fill="#C8CADF">
                    <path d="M0,137 L8,137 L8,140 L0,140 L0,137 Z M72,137 L80,137 L80,140 L72,140 L72,137 Z M144,137 L152,137 L152,140 L144,140 L144,137 Z M12,137 L20,137 L20,140 L12,140 L12,137 Z M84,137 L92,137 L92,140 L84,140 L84,137 Z M156,137 L164,137 L164,140 L156,140 L156,137 Z M24,137 L32,137 L32,140 L24,140 L24,137 Z M96,137 L104,137 L104,140 L96,140 L96,137 Z M168,137 L176,137 L176,140 L168,140 L168,137 Z M36,137 L44,137 L44,140 L36,140 L36,137 Z M108,137 L116,137 L116,140 L108,140 L108,137 Z M180,137 L188,137 L188,140 L180,140 L180,137 Z M48,137 L56,137 L56,140 L48,140 L48,137 Z M120,137 L128,137 L128,140 L120,140 L120,137 Z M192,137 L200,137 L200,140 L192,140 L192,137 Z M216,137 L224,137 L224,140 L216,140 L216,137 Z M60,137 L68,137 L68,140 L60,140 L60,137 Z M132,137 L140,137 L140,140 L132,140 L132,137 Z M204,137 L212,137 L212,140 L204,140 L204,137 Z M228,137 L236,137 L236,140 L228,140 L228,137 Z" id="Combined-Shape"></path>
                    <path d="M0,0 L8,0 L8,3 L0,3 L0,0 Z M72,0 L80,0 L80,3 L72,3 L72,0 Z M144,0 L152,0 L152,3 L144,3 L144,0 Z M12,0 L20,0 L20,3 L12,3 L12,0 Z M84,0 L92,0 L92,3 L84,3 L84,0 Z M156,0 L164,0 L164,3 L156,3 L156,0 Z M24,0 L32,0 L32,3 L24,3 L24,0 Z M96,0 L104,0 L104,3 L96,3 L96,0 Z M168,0 L176,0 L176,3 L168,3 L168,0 Z M36,0 L44,0 L44,3 L36,3 L36,0 Z M108,0 L116,0 L116,3 L108,3 L108,0 Z M180,0 L188,0 L188,3 L180,3 L180,0 Z M48,0 L56,0 L56,3 L48,3 L48,0 Z M120,0 L128,0 L128,3 L120,3 L120,0 Z M192,0 L200,0 L200,3 L192,3 L192,0 Z M216,0 L224,0 L224,3 L216,3 L216,0 Z M60,0 L68,0 L68,3 L60,3 L60,0 Z M132,0 L140,0 L140,3 L132,3 L132,0 Z M204,0 L212,0 L212,3 L204,3 L204,0 Z M228,0 L236,0 L236,3 L228,3 L228,0 Z" id="Combined-Shape"></path>
                    <path d="M233,0 L236,0 L236,8 L233,8 L233,0 Z M233,36 L236,36 L236,44 L233,44 L233,36 Z M233,72 L236,72 L236,80 L233,80 L233,72 Z M233,108 L236,108 L236,116 L233,116 L233,108 Z M233,12 L236,12 L236,20 L233,20 L233,12 Z M233,48 L236,48 L236,56 L233,56 L233,48 Z M233,84 L236,84 L236,92 L233,92 L233,84 Z M233,120 L236,120 L236,128 L233,128 L233,120 Z M233,24 L236,24 L236,32 L233,32 L233,24 Z M233,60 L236,60 L236,68 L233,68 L233,60 Z M233,96 L236,96 L236,104 L233,104 L233,96 Z M233,132 L236,132 L236,140 L233,140 L233,132 Z" id="Combined-Shape"></path>
                    <path d="M0,0 L3,0 L3,8 L0,8 L0,0 Z M0,36 L3,36 L3,44 L0,44 L0,36 Z M0,72 L3,72 L3,80 L0,80 L0,72 Z M0,108 L3,108 L3,116 L0,116 L0,108 Z M0,12 L3,12 L3,20 L0,20 L0,12 Z M0,48 L3,48 L3,56 L0,56 L0,48 Z M0,84 L3,84 L3,92 L0,92 L0,84 Z M0,120 L3,120 L3,128 L0,128 L0,120 Z M0,24 L3,24 L3,32 L0,32 L0,24 Z M0,60 L3,60 L3,68 L0,68 L0,60 Z M0,96 L3,96 L3,104 L0,104 L0,96 Z M0,132 L3,132 L3,140 L0,140 L0,132 Z" id="Combined-Shape-Copy-3"></path>
                </g>
                <g id="Screen_03" transform="translate(72.000000, 125.000000)">
                    <rect id="Rectangle-Copy-61" fill="#F9F9F9" x="0" y="6" width="73" height="39"></rect>
                    <rect id="Rectangle-Copy-62" fill="#1A1A1A" x="0" y="0" width="73" height="6"></rect>
                    <polygon id="Path-2" fill="#474E95" transform="translate(37.000000, 24.000000) rotate(-90.000000) translate(-37.000000, -24.000000) " points="29 12 29 36 45 23.5926938"></polygon>
                </g>
                <g id="Screen_02" transform="translate(174.000000, 50.000000)">
                    <rect id="Rectangle-Copy-61" fill="#F9F9F9" x="0" y="10" width="114" height="60"></rect>
                    <circle id="Oval" fill="#474E95" cx="57" cy="40" r="15"></circle>
                    <rect id="Rectangle-Copy-62" fill="#1A1A1A" x="0" y="0" width="114" height="10"></rect>
                </g>
                <g id="Screen_01">
                    <rect id="Rectangle-Copy-61" fill="#F9F9F9" x="0" y="10" width="134" height="80"></rect>
                    <rect id="Rectangle-Copy-62" fill="#1A1A1A" x="0" y="0" width="134" height="10"></rect>
                    <rect id="Rectangle" fill="#474E95" transform="translate(67.000000, 50.000000) rotate(-315.000000) translate(-67.000000, -50.000000) " x="47" y="30" width="40" height="40"></rect>
                </g>
            </g>
        </g>
    </g>
</svg>