<?xml version="1.0" encoding="UTF-8"?>
<svg width="280px" height="347px" viewBox="0 0 280 347" version="1.1" xmlns="http://www.w3.org/2000/svg" xmlns:xlink="http://www.w3.org/1999/xlink">
    <!-- Generator: Sketch 52.6 (67491) - http://www.bohemiancoding.com/sketch -->
    <title>Guide_Sammenhæng</title>
    <desc>Created with Sketch.</desc>
    <defs>
        <rect id="path-1" x="0" y="0" width="33.6" height="78.4"></rect>
    </defs>
    <g id="Illustrationer" stroke="none" stroke-width="1" fill="none" fill-rule="evenodd">
        <g id="Komponentside-2" transform="translate(-754.000000, -2845.000000)">
            <g id="Box-Copy-2" transform="translate(354.000000, 2800.000000)">
                <g id="Guide_Sammenhæng" transform="translate(400.000000, 45.000000)">
                    <rect id="White_BG" fill="#FFFFFF" x="0" y="0" width="280" height="347"></rect>
                    <g id="Input-2" transform="translate(33.600000, 212.800000)" fill-rule="nonzero">
                        <rect id="Rectangle-15-Copy-6" fill="#DCDCDC" x="0" y="22.4" width="42" height="5.6"></rect>
                        <rect id="Rectangle-15-Copy" fill="#DCDCDC" x="0" y="0" width="123.2" height="11.2"></rect>
                        <rect id="Rectangle-15-Copy-7" fill="#DCDCDC" x="0" y="67.2" width="42" height="5.6"></rect>
                        <rect id="Rectangle-15" stroke="#1A1A1A" stroke-width="2" fill="#FFFFFF" x="1" y="34.6" width="210.8" height="20.4" rx="2"></rect>
                        <rect id="Rectangle-15-Copy-8" stroke="#1A1A1A" stroke-width="2" fill="#FFFFFF" x="1" y="79.4" width="160.4" height="20.4" rx="2"></rect>
                    </g>
                    <g id="Input_1" transform="translate(33.600000, 33.600000)" fill-rule="nonzero">
                        <rect id="Rectangle-15-Copy-6" fill="#DCDCDC" x="0" y="22.4" width="42" height="5.6"></rect>
                        <rect id="Rectangle-15-Copy" fill="#DCDCDC" x="0" y="0" width="123.2" height="11.2"></rect>
                        <rect id="Rectangle-15-Copy-7" fill="#DCDCDC" x="0" y="67.2" width="42" height="5.6"></rect>
                        <rect id="Rectangle-15" stroke="#1A1A1A" stroke-width="2" fill="#FFFFFF" x="1" y="34.6" width="210.8" height="20.4" rx="2"></rect>
                        <rect id="Rectangle-15-Copy-8" stroke="#1A1A1A" stroke-width="2" fill="#FFFFFF" x="1" y="79.4" width="160.4" height="20.4" rx="2"></rect>
                    </g>
                    <g id="Measure-Copy" transform="translate(33.600000, 134.400000)">
                        <mask id="mask-2" fill="white">
                            <use xlink:href="#path-1"></use>
                        </mask>
                        <g id="Mask"></g>
                        <g id="Divider_Italic_2" mask="url(#mask-2)" fill="#F3BAD9">
                            <g transform="translate(-0.000000, 0.000000)" id="Combined-Shape">
                                <path d="M0.00056,4.97379915e-14 L2.80056,4.97379915e-14 L0.00056,2.8 L0.00056,4.97379915e-14 Z M5.6,4.97379915e-14 L8.4014,4.97379915e-14 L5.6,2.8 L2.8,5.6014 L4.05009359e-13,8.4 L4.05009359e-13,5.6014 L2.8,2.8 L5.6,4.97379915e-14 Z M11.2007,4.97379915e-14 L14.0007,4.97379915e-14 L11.2007,2.8 L8.4007,5.6014 L5.5993,8.4 L2.8007,11.2 L0.0007,14 L0.0007,11.2 L2.8007,8.4 L5.5993,5.6014 L8.4007,2.8 L11.2007,4.97379915e-14 Z M16.80014,4.97379915e-14 L19.60154,4.97379915e-14 L16.80014,2.8 L14.00014,5.6014 L11.20014,8.4 L8.40154,11.2 L5.60014,14 L2.80014,16.8 L0.00014,19.6 L0.00014,16.8 L2.80014,14 L5.60014,11.2 L8.40154,8.4 L11.20014,5.6014 L14.00014,2.8 L16.80014,4.97379915e-14 Z M22.40084,4.97379915e-14 L25.20084,4.97379915e-14 L22.40084,2.8 L19.60084,5.6014 L16.79944,8.4 L14.00084,11.2 L11.20084,14 L8.40084,16.8 L5.59944,19.6 L2.80084,22.4 L0.00084,25.2 L0.00084,22.4 L2.80084,19.6 L5.59944,16.8 L8.40084,14 L11.20084,11.2 L14.00084,8.4 L16.79944,5.6014 L19.60084,2.8 L22.40084,4.97379915e-14 Z M28.00028,1.49213975e-13 L30.80028,1.49213975e-13 L28.00028,2.8 L25.20028,5.6014 L22.40028,8.4 L19.60168,11.2 L16.80028,14 L14.00028,16.8 L11.20028,19.6 L8.40168,22.4 L5.60028,25.2 L2.80028,28 L0.00028,30.8014 L0.00028,28 L2.80028,25.2 L5.60028,22.4 L8.40168,19.6 L11.20028,16.8 L14.00028,14 L16.80028,11.2 L19.60168,8.4 L22.40028,5.6014 L25.20028,2.8 L28.00028,1.49213975e-13 Z M33.60098,4.97379915e-14 L36.40098,4.97379915e-14 L33.60098,2.8 L30.79958,5.6014 L27.99958,8.4 L25.20098,11.2 L22.40098,14 L19.60098,16.8 L16.79958,19.6 L14.00098,22.4 L11.20098,25.2 L8.40098,28 L5.59958,30.8014 L2.79958,33.6 L0.00098,36.4 L0.00098,33.6 L2.79958,30.8014 L5.59958,28 L8.40098,25.2 L11.20098,22.4 L14.00098,19.6 L16.79958,16.8 L19.60098,14 L22.40098,11.2 L25.20098,8.4 L27.99958,5.6014 L30.79958,2.8 L33.60098,4.97379915e-14 Z M39.20042,33.60042 L42.00042,30.80042 L42.00042,33.60042 L39.20042,36.40042 L36.40042,39.20042 L33.60042,41.99902 L30.80042,44.80042 L28.00042,47.60042 L25.20042,50.40042 L22.40042,53.19902 L19.60182,56.00042 L16.80042,58.80042 L14.00042,61.60042 L11.20042,64.40042 L8.40042,67.19902 L5.60042,70.00042 L2.80042,72.80042 L0.00042,75.60042 L0.00042,72.80042 L2.80042,70.00042 L5.60042,67.19902 L8.40042,64.40042 L11.20042,61.60042 L14.00042,58.80042 L16.80042,56.00042 L19.60182,53.19902 L22.40042,50.40042 L25.20042,47.60042 L28.00042,44.80042 L30.80042,41.99902 L33.60042,39.20042 L36.40042,36.40042 L39.20042,33.60042 Z M39.20042,27.99972 L42.00042,25.19972 L42.00042,27.99972 L39.20042,30.80112 L36.40042,33.60112 L33.60042,36.39972 L30.80042,39.19972 L28.00042,41.99972 L25.20042,44.80112 L22.40042,47.59972 L19.60182,50.39972 L16.80042,53.19972 L14.00042,56.00112 L11.20042,58.80112 L8.40042,61.59972 L5.60042,64.39972 L2.80042,67.19972 L0.00042,70.00112 L0.00042,67.19972 L2.80042,64.39972 L5.60042,61.59972 L8.40042,58.80112 L11.20042,56.00112 L14.00042,53.19972 L16.80042,50.39972 L19.60182,47.59972 L22.40042,44.80112 L25.20042,41.99972 L28.00042,39.19972 L30.80042,36.39972 L33.60042,33.60112 L36.40042,30.80112 L39.20042,27.99972 Z M39.20042,22.40028 L42.00042,19.60028 L42.00042,22.40028 L39.20042,25.20028 L36.40042,28.00028 L33.60042,30.80028 L30.80042,33.60028 L28.00042,36.40028 L25.20042,39.20028 L22.40042,42.00028 L19.60182,44.80028 L16.80042,47.60028 L14.00042,50.40028 L11.20042,53.20028 L8.40042,56.00028 L5.60042,58.80028 L2.80042,61.60028 L0.00042,64.40028 L0.00042,61.60028 L2.80042,58.80028 L5.60042,56.00028 L8.40042,53.20028 L11.20042,50.40028 L14.00042,47.60028 L16.80042,44.80028 L19.60182,42.00028 L22.40042,39.20028 L25.20042,36.40028 L28.00042,33.60028 L30.80042,30.80028 L33.60042,28.00028 L36.40042,25.20028 L39.20042,22.40028 Z M39.20042,16.79958 L42.00042,13.99958 L42.00042,16.79958 L39.20042,19.60098 L36.40042,22.39958 L33.60042,25.19958 L30.80042,27.99958 L28.00042,30.80098 L25.20042,33.60098 L22.40042,36.39958 L19.60182,39.19958 L16.80042,41.99958 L14.00042,44.80098 L11.20042,47.59958 L8.40042,50.39958 L5.60042,53.19958 L2.80042,56.00098 L0.00042,58.80098 L0.00042,56.00098 L2.80042,53.19958 L5.60042,50.39958 L8.40042,47.59958 L11.20042,44.80098 L14.00042,41.99958 L16.80042,39.19958 L19.60182,36.39958 L22.40042,33.60098 L25.20042,30.80098 L28.00042,27.99958 L30.80042,25.19958 L33.60042,22.39958 L36.40042,19.60098 L39.20042,16.79958 Z M39.20042,11.20014 L42.00042,8.40014 L42.00042,11.20014 L39.20042,14.00014 L36.40042,16.80014 L33.60042,19.60014 L30.80042,22.40014 L28.00042,25.20014 L25.20042,28.00014 L22.40042,30.80014 L19.60182,33.60014 L16.80042,36.40014 L14.00042,39.20014 L11.20042,42.00014 L8.40042,44.80014 L5.60042,47.60014 L2.80042,50.40014 L0.00042,53.20014 L0.00042,50.40014 L2.80042,47.60014 L5.60042,44.80014 L8.40042,42.00014 L11.20042,39.20014 L14.00042,36.40014 L16.80042,33.60014 L19.60182,30.80014 L22.40042,28.00014 L25.20042,25.20014 L28.00042,22.40014 L30.80042,19.60014 L33.60042,16.80014 L36.40042,14.00014 L39.20042,11.20014 Z M39.20042,5.6007 L42.00042,2.7993 L42.00042,5.6007 L39.20042,8.4007 L36.40042,11.2007 L33.60042,13.9993 L30.80042,16.7993 L28.00042,19.6007 L25.20042,22.4007 L22.40042,25.1993 L19.60182,27.9993 L16.80042,30.8007 L14.00042,33.6007 L11.20042,36.4007 L8.40042,39.1993 L5.60042,41.9993 L2.80042,44.8007 L0.00042,47.6007 L0.00042,44.8007 L2.80042,41.9993 L5.60042,39.1993 L8.40042,36.4007 L11.20042,33.6007 L14.00042,30.8007 L16.80042,27.9993 L19.60182,25.1993 L22.40042,22.4007 L25.20042,19.6007 L28.00042,16.7993 L30.80042,13.9993 L33.60042,11.2007 L36.40042,8.4007 L39.20042,5.6007 Z M39.20042,4.97379915e-14 L42.00042,4.97379915e-14 L39.20042,2.8 L36.40042,5.6014 L33.60042,8.4 L30.80042,11.2 L28.00042,14 L25.20042,16.8 L22.40042,19.6 L19.60182,22.4 L16.80042,25.2 L14.00042,28 L11.20042,30.8014 L8.40042,33.6 L5.60042,36.4 L2.80042,39.2 L0.00042,42 L0.00042,39.2 L2.80042,36.4 L5.60042,33.6 L8.40042,30.8014 L11.20042,28 L14.00042,25.2 L16.80042,22.4 L19.60182,19.6 L22.40042,16.8 L25.20042,14 L28.00042,11.2 L30.80042,8.4 L33.60042,5.6014 L36.40042,2.8 L39.20042,4.97379915e-14 Z M39.20042,72.80028 L42.00042,70.00028 L42.00042,72.80028 L39.20042,75.60028 L36.40042,78.40028 L33.60042,81.20028 L30.80042,84.00028 L28.00042,86.80028 L25.20042,89.60028 L22.40042,92.39888 L19.60182,95.20028 L16.80042,98.00028 L14.00042,100.80028 L11.20042,103.60028 L8.40042,106.40028 L5.60042,109.20028 L2.80042,112.00028 L0.00042,112.00028 L2.80042,109.20028 L5.60042,106.40028 L8.40042,103.60028 L11.20042,100.80028 L14.00042,98.00028 L16.80042,95.20028 L19.60182,92.39888 L22.40042,89.60028 L25.20042,86.80028 L28.00042,84.00028 L30.80042,81.20028 L33.60042,78.40028 L36.40042,75.60028 L39.20042,72.80028 Z M39.20042,67.19958 L42.00042,64.39958 L42.00042,67.19958 L39.20042,70.00098 L36.40042,72.80098 L33.60042,75.59958 L30.80042,78.39958 L28.00042,81.20098 L25.20042,84.00098 L22.40042,86.79958 L19.60182,89.59958 L16.80042,92.39958 L14.00042,95.20098 L11.20042,98.00098 L8.40042,100.79958 L5.60042,103.59958 L2.80042,106.40098 L0.00042,109.20098 L0.00042,106.40098 L2.80042,103.59958 L5.60042,100.79958 L8.40042,98.00098 L11.20042,95.20098 L14.00042,92.39958 L16.80042,89.59958 L19.60182,86.79958 L22.40042,84.00098 L25.20042,81.20098 L28.00042,78.39958 L30.80042,75.59958 L33.60042,72.80098 L36.40042,70.00098 L39.20042,67.19958 Z M39.20042,61.60014 L42.00042,58.80014 L42.00042,61.60014 L39.20042,64.40014 L36.40042,67.20014 L33.60042,70.00014 L30.80042,72.80014 L28.00042,75.60014 L25.20042,78.40014 L22.40042,81.20014 L19.60182,84.00014 L16.80042,86.80014 L14.00042,89.60014 L11.20042,92.40014 L8.40042,95.20014 L5.60042,98.00014 L2.80042,100.80014 L0.00042,103.60014 L0.00042,100.80014 L2.80042,98.00014 L5.60042,95.20014 L8.40042,92.40014 L11.20042,89.60014 L14.00042,86.80014 L16.80042,84.00014 L19.60182,81.20014 L22.40042,78.40014 L25.20042,75.60014 L28.00042,72.80014 L30.80042,70.00014 L33.60042,67.20014 L36.40042,64.40014 L39.20042,61.60014 Z M39.20042,56.0007 L42.00042,53.1993 L42.00042,56.0007 L39.20042,58.8007 L36.40042,61.6007 L33.60042,64.3993 L30.80042,67.1993 L28.00042,70.0007 L25.20042,72.8007 L22.40042,75.5993 L19.60182,78.3993 L16.80042,81.2007 L14.00042,84.0007 L11.20042,86.8007 L8.40042,89.5993 L5.60042,92.3993 L2.80042,95.2007 L0.00042,98.0007 L0.00042,95.2007 L2.80042,92.3993 L5.60042,89.5993 L8.40042,86.8007 L11.20042,84.0007 L14.00042,81.2007 L16.80042,78.3993 L19.60182,75.5993 L22.40042,72.8007 L25.20042,70.0007 L28.00042,67.1993 L30.80042,64.3993 L33.60042,61.6007 L36.40042,58.8007 L39.20042,56.0007 Z M39.20042,50.4 L42.00042,47.6 L42.00042,50.4 L39.20042,53.2 L36.40042,56.0014 L33.60042,58.8 L30.80042,61.6 L28.00042,64.4 L25.20042,67.2 L22.40042,70 L19.60182,72.8 L16.80042,75.6 L14.00042,78.4 L11.20042,81.2014 L8.40042,84 L5.60042,86.8 L2.80042,89.6 L0.00042,92.4 L0.00042,89.6 L2.80042,86.8 L5.60042,84 L8.40042,81.2014 L11.20042,78.4 L14.00042,75.6 L16.80042,72.8 L19.60182,70 L22.40042,67.2 L25.20042,64.4 L28.00042,61.6 L30.80042,58.8 L33.60042,56.0014 L36.40042,53.2 L39.20042,50.4 Z M39.20042,44.80056 L42.00042,41.99916 L42.00042,44.80056 L39.20042,47.60056 L36.40042,50.40056 L33.60042,53.19916 L30.80042,56.00056 L28.00042,58.80056 L25.20042,61.60056 L22.40042,64.39916 L19.60182,67.19916 L16.80042,70.00056 L14.00042,72.80056 L11.20042,75.60056 L8.40042,78.39916 L5.60042,81.20056 L2.80042,84.00056 L0.00042,86.80056 L0.00042,84.00056 L2.80042,81.20056 L5.60042,78.39916 L8.40042,75.60056 L11.20042,72.80056 L14.00042,70.00056 L16.80042,67.19916 L19.60182,64.39916 L22.40042,61.60056 L25.20042,58.80056 L28.00042,56.00056 L30.80042,53.19916 L33.60042,50.40056 L36.40042,47.60056 L39.20042,44.80056 Z M39.20042,39.19986 L42.00042,36.39986 L42.00042,39.19986 L39.20042,41.99986 L36.40042,44.80126 L33.60042,47.59986 L30.80042,50.39986 L28.00042,53.19986 L25.20042,56.00126 L22.40042,58.79986 L19.60182,61.59986 L16.80042,64.39986 L14.00042,67.19986 L11.20042,70.00126 L8.40042,72.79986 L5.60042,75.59986 L2.80042,78.39986 L0.00042,81.20126 L0.00042,78.39986 L2.80042,75.59986 L5.60042,72.79986 L8.40042,70.00126 L11.20042,67.19986 L14.00042,64.39986 L16.80042,61.59986 L19.60182,58.79986 L22.40042,56.00126 L25.20042,53.19986 L28.00042,50.39986 L30.80042,47.59986 L33.60042,44.80126 L36.40042,41.99986 L39.20042,39.19986 Z M39.20042,106.4007 L42.00042,103.5993 L42.00042,106.4007 L39.20042,109.2007 L36.40042,112.0007 L33.60042,112.0007 L36.40042,109.2007 L39.20042,106.4007 Z M39.20042,100.8 L42.00042,98 L42.00042,100.8 L39.20042,103.6 L36.40042,106.4014 L33.60042,109.2 L30.80042,112 L28.00042,112 L30.80042,109.2 L33.60042,106.4014 L36.40042,103.6 L39.20042,100.8 Z M39.20042,95.20056 L42.00042,92.39916 L42.00042,95.20056 L39.20042,98.00056 L36.40042,100.80056 L33.60042,103.59916 L30.80042,106.40056 L28.00042,109.20056 L25.20042,112.00056 L22.40042,112.00056 L25.20042,109.20056 L28.00042,106.40056 L30.80042,103.59916 L33.60042,100.80056 L36.40042,98.00056 L39.20042,95.20056 Z M39.20042,89.59986 L42.00042,86.79986 L42.00042,89.59986 L39.20042,92.39986 L36.40042,95.20126 L33.60042,97.99986 L30.80042,100.79986 L28.00042,103.59986 L25.20042,106.40126 L22.40042,109.19986 L19.60182,111.99986 L16.80042,111.99986 L19.60182,109.19986 L22.40042,106.40126 L25.20042,103.59986 L28.00042,100.79986 L30.80042,97.99986 L33.60042,95.20126 L36.40042,92.39986 L39.20042,89.59986 Z M39.20042,84.00042 L42.00042,81.20042 L42.00042,84.00042 L39.20042,86.80042 L36.40042,89.60042 L33.60042,92.39902 L30.80042,95.20042 L28.00042,98.00042 L25.20042,100.80042 L22.40042,103.59902 L19.60182,106.40042 L16.80042,109.20042 L14.00042,112.00042 L11.20042,112.00042 L14.00042,109.20042 L16.80042,106.40042 L19.60182,103.59902 L22.40042,100.80042 L25.20042,98.00042 L28.00042,95.20042 L30.80042,92.39902 L33.60042,89.60042 L36.40042,86.80042 L39.20042,84.00042 Z M39.20042,78.39972 L42.00042,75.59972 L42.00042,78.39972 L39.20042,81.20112 L36.40042,84.00112 L33.60042,86.79972 L30.80042,89.59972 L28.00042,92.39972 L25.20042,95.20112 L22.40042,97.99972 L19.60182,100.79972 L16.80042,103.59972 L14.00042,106.40112 L11.20042,109.20112 L8.40042,111.99972 L5.60042,111.99972 L8.40042,109.20112 L11.20042,106.40112 L14.00042,103.59972 L16.80042,100.79972 L19.60182,97.99972 L22.40042,95.20112 L25.20042,92.39972 L28.00042,89.59972 L30.80042,86.79972 L33.60042,84.00112 L36.40042,81.20112 L39.20042,78.39972 Z M39.20042,112.00014 L42.00042,109.20014 L42.00042,112.00014 L39.20042,112.00014 Z"></path>
                            </g>
                        </g>
                    </g>
                </g>
            </g>
        </g>
    </g>
</svg>