<svg width="418" height="236" viewBox="0 0 418 236" fill="none" xmlns="http://www.w3.org/2000/svg">
<rect width="418" height="236" fill="white"/>
<path d="M16 88C16 85.7909 17.7909 84 20 84H272C274.209 84 276 85.7909 276 88V100C276 102.209 274.209 104 272 104H20C17.7909 104 16 102.209 16 100V88Z" fill="#DCDCDC"/>
<path d="M16 36C16 33.7909 17.7909 32 20 32H272C274.209 32 276 33.7909 276 36V48C276 50.2091 274.209 52 272 52H20C17.7909 52 16 50.2091 16 48V36Z" fill="#DCDCDC"/>
<path d="M16 140C16 137.791 17.7909 136 20 136H272C274.209 136 276 137.791 276 140V152C276 154.209 274.209 156 272 156H20C17.7909 156 16 154.209 16 152V140Z" fill="#DCDCDC"/>
<path d="M16 72C16 69.7909 17.7909 68 20 68H130C132.209 68 134 69.7909 134 72V76C134 78.2091 132.209 80 130 80H20C17.7909 80 16 78.2091 16 76V72Z" fill="#DCDCDC"/>
<path d="M16 20C16 17.7909 17.7909 16 20 16H130C132.209 16 134 17.7909 134 20V24C134 26.2091 132.209 28 130 28H20C17.7909 28 16 26.2091 16 24V20Z" fill="#DCDCDC"/>
<path d="M16 124C16 121.791 17.7909 120 20 120H130C132.209 120 134 121.791 134 124V128C134 130.209 132.209 132 130 132H20C17.7909 132 16 130.209 16 128V124Z" fill="#DCDCDC"/>
<path d="M16 188C16 183.582 19.5817 180 24 180H78C82.4183 180 86 183.582 86 188V212C86 216.418 82.4183 220 78 220H24C19.5817 220 16 216.418 16 212V188Z" fill="#44831E"/>
<path d="M36.784 206.192C35.824 206.192 35.008 206.021 34.336 205.68C33.6747 205.339 33.104 204.891 32.624 204.336L34.048 202.96C34.432 203.408 34.8587 203.749 35.328 203.984C35.808 204.219 36.336 204.336 36.912 204.336C37.5627 204.336 38.0533 204.197 38.384 203.92C38.7147 203.632 38.88 203.248 38.88 202.768C38.88 202.395 38.7733 202.091 38.56 201.856C38.3467 201.621 37.9467 201.451 37.36 201.344L36.304 201.184C34.0747 200.832 32.96 199.749 32.96 197.936C32.96 197.435 33.0507 196.981 33.232 196.576C33.424 196.171 33.696 195.824 34.048 195.536C34.4 195.248 34.8213 195.029 35.312 194.88C35.8133 194.72 36.3787 194.64 37.008 194.64C37.8507 194.64 38.5867 194.779 39.216 195.056C39.8453 195.333 40.384 195.744 40.832 196.288L39.392 197.648C39.1147 197.307 38.7787 197.029 38.384 196.816C37.9893 196.603 37.4933 196.496 36.896 196.496C36.288 196.496 35.8293 196.613 35.52 196.848C35.2213 197.072 35.072 197.392 35.072 197.808C35.072 198.235 35.1947 198.549 35.44 198.752C35.6853 198.955 36.08 199.104 36.624 199.2L37.664 199.392C38.7947 199.595 39.6267 199.957 40.16 200.48C40.704 200.992 40.976 201.712 40.976 202.64C40.976 203.173 40.88 203.659 40.688 204.096C40.5067 204.523 40.2347 204.896 39.872 205.216C39.52 205.525 39.0827 205.765 38.56 205.936C38.048 206.107 37.456 206.192 36.784 206.192ZM46.3413 206.192C45.7226 206.192 45.1679 206.091 44.6773 205.888C44.1973 205.675 43.7866 205.381 43.4453 205.008C43.1146 204.624 42.8586 204.165 42.6773 203.632C42.4959 203.088 42.4053 202.48 42.4053 201.808C42.4053 201.147 42.4906 200.549 42.6613 200.016C42.8426 199.483 43.0986 199.029 43.4293 198.656C43.7599 198.272 44.1653 197.979 44.6453 197.776C45.1253 197.563 45.6693 197.456 46.2773 197.456C46.9279 197.456 47.4933 197.568 47.9733 197.792C48.4533 198.016 48.8479 198.32 49.1573 198.704C49.4666 199.088 49.6959 199.536 49.8453 200.048C50.0053 200.549 50.0853 201.088 50.0853 201.664V202.336H44.5333V202.544C44.5333 203.152 44.7039 203.643 45.0453 204.016C45.3866 204.379 45.8933 204.56 46.5653 204.56C47.0773 204.56 47.4933 204.453 47.8133 204.24C48.1439 204.027 48.4373 203.755 48.6933 203.424L49.7973 204.656C49.4559 205.136 48.9866 205.515 48.3893 205.792C47.8026 206.059 47.1199 206.192 46.3413 206.192ZM46.3093 198.992C45.7653 198.992 45.3333 199.173 45.0133 199.536C44.6933 199.899 44.5333 200.368 44.5333 200.944V201.072H47.9573V200.928C47.9573 200.352 47.8133 199.888 47.5253 199.536C47.2479 199.173 46.8426 198.992 46.3093 198.992ZM51.8871 206V197.648H53.9351V199.04H54.0151C54.1858 198.592 54.4525 198.219 54.8151 197.92C55.1885 197.611 55.7005 197.456 56.3511 197.456C57.2151 197.456 57.8765 197.739 58.3351 198.304C58.7938 198.869 59.0231 199.675 59.0231 200.72V206H56.9751V200.928C56.9751 200.331 56.8685 199.883 56.6551 199.584C56.4418 199.285 56.0898 199.136 55.5991 199.136C55.3858 199.136 55.1778 199.168 54.9751 199.232C54.7831 199.285 54.6071 199.371 54.4471 199.488C54.2978 199.595 54.1751 199.733 54.0791 199.904C53.9831 200.064 53.9351 200.256 53.9351 200.48V206H51.8871ZM66.4774 204.608H66.3974C66.248 205.088 65.9654 205.472 65.5494 205.76C65.1334 206.048 64.648 206.192 64.0934 206.192C63.0374 206.192 62.2267 205.813 61.6614 205.056C61.1067 204.299 60.8294 203.216 60.8294 201.808C60.8294 200.411 61.1067 199.339 61.6614 198.592C62.2267 197.835 63.0374 197.456 64.0934 197.456C64.648 197.456 65.1334 197.6 65.5494 197.888C65.9654 198.165 66.248 198.544 66.3974 199.024H66.4774V194.16H68.5254V206H66.4774V204.608ZM64.7494 204.496C65.24 204.496 65.6507 204.379 65.9814 204.144C66.312 203.909 66.4774 203.573 66.4774 203.136V200.48C66.4774 200.075 66.312 199.749 65.9814 199.504C65.6507 199.259 65.24 199.136 64.7494 199.136C64.216 199.136 63.784 199.317 63.4534 199.68C63.1334 200.032 62.9734 200.507 62.9734 201.104V202.544C62.9734 203.141 63.1334 203.616 63.4534 203.968C63.784 204.32 64.216 204.496 64.7494 204.496Z" fill="white"/>
<path d="M102 188C102 183.582 105.582 180 110 180H181C185.418 180 189 183.582 189 188V212C189 216.418 185.418 220 181 220H110C105.582 220 102 216.418 102 212V188Z" fill="#44831E"/>
<path d="M119.312 206V194.832H126.496V196.704H121.424V199.408H125.84V201.28H121.424V206H119.312ZM131.246 206.192C130.649 206.192 130.11 206.091 129.63 205.888C129.161 205.685 128.755 205.392 128.414 205.008C128.083 204.624 127.827 204.165 127.646 203.632C127.465 203.088 127.374 202.48 127.374 201.808C127.374 201.136 127.465 200.533 127.646 200C127.827 199.467 128.083 199.013 128.414 198.64C128.755 198.256 129.161 197.963 129.63 197.76C130.11 197.557 130.649 197.456 131.246 197.456C131.843 197.456 132.382 197.557 132.862 197.76C133.342 197.963 133.747 198.256 134.078 198.64C134.419 199.013 134.681 199.467 134.862 200C135.043 200.533 135.134 201.136 135.134 201.808C135.134 202.48 135.043 203.088 134.862 203.632C134.681 204.165 134.419 204.624 134.078 205.008C133.747 205.392 133.342 205.685 132.862 205.888C132.382 206.091 131.843 206.192 131.246 206.192ZM131.246 204.544C131.79 204.544 132.217 204.379 132.526 204.048C132.835 203.717 132.99 203.232 132.99 202.592V201.04C132.99 200.411 132.835 199.931 132.526 199.6C132.217 199.269 131.79 199.104 131.246 199.104C130.713 199.104 130.291 199.269 129.982 199.6C129.673 199.931 129.518 200.411 129.518 201.04V202.592C129.518 203.232 129.673 203.717 129.982 204.048C130.291 204.379 130.713 204.544 131.246 204.544ZM136.95 206V197.648H138.998V199.376H139.078C139.131 199.152 139.211 198.939 139.318 198.736C139.435 198.523 139.584 198.336 139.766 198.176C139.947 198.016 140.16 197.888 140.406 197.792C140.662 197.696 140.955 197.648 141.286 197.648H141.734V199.584H141.094C140.4 199.584 139.878 199.685 139.526 199.888C139.174 200.091 138.998 200.421 138.998 200.88V206H136.95ZM145.901 206C145.197 206 144.659 205.819 144.285 205.456C143.923 205.083 143.741 204.555 143.741 203.872V199.28H142.509V197.648H143.149C143.459 197.648 143.667 197.579 143.773 197.44C143.891 197.291 143.949 197.072 143.949 196.784V195.36H145.789V197.648H147.501V199.28H145.789V204.368H147.373V206H145.901ZM149.278 206V197.648H151.326V199.376H151.406C151.459 199.152 151.539 198.939 151.646 198.736C151.763 198.523 151.912 198.336 152.094 198.176C152.275 198.016 152.488 197.888 152.734 197.792C152.99 197.696 153.283 197.648 153.614 197.648H154.062V199.584H153.422C152.728 199.584 152.206 199.685 151.854 199.888C151.502 200.091 151.326 200.421 151.326 200.88V206H149.278ZM160.804 197.648H162.724L159.364 207.488C159.257 207.787 159.135 208.043 158.996 208.256C158.868 208.48 158.713 208.661 158.532 208.8C158.351 208.939 158.132 209.04 157.876 209.104C157.62 209.168 157.321 209.2 156.98 209.2H155.748V207.568H157.252L157.636 206.4L154.644 197.648H156.676L158.132 202.064L158.676 204.176H158.772L159.348 202.064L160.804 197.648ZM169.149 204.608H169.069C168.92 205.088 168.637 205.472 168.221 205.76C167.805 206.048 167.32 206.192 166.765 206.192C165.709 206.192 164.899 205.813 164.333 205.056C163.779 204.299 163.501 203.216 163.501 201.808C163.501 200.411 163.779 199.339 164.333 198.592C164.899 197.835 165.709 197.456 166.765 197.456C167.32 197.456 167.805 197.6 168.221 197.888C168.637 198.165 168.92 198.544 169.069 199.024H169.149V194.16H171.197V206H169.149V204.608ZM167.421 204.496C167.912 204.496 168.323 204.379 168.653 204.144C168.984 203.909 169.149 203.573 169.149 203.136V200.48C169.149 200.075 168.984 199.749 168.653 199.504C168.323 199.259 167.912 199.136 167.421 199.136C166.888 199.136 166.456 199.317 166.125 199.68C165.805 200.032 165.645 200.507 165.645 201.104V202.544C165.645 203.141 165.805 203.616 166.125 203.968C166.456 204.32 166.888 204.496 167.421 204.496Z" fill="white"/>
</svg>
