<svg width="418" height="288" viewBox="0 0 418 288" fill="none" xmlns="http://www.w3.org/2000/svg">
<g clip-path="url(#clip0_5010_49005)">
<rect width="418" height="288" fill="white"/>
<rect x="16.5" y="42.5" width="159" height="39" rx="3.5" stroke="#707070"/>
<path d="M20.912 23.944L19.424 25.704V29H17.312V17.832H19.424V23.336H19.504L21.088 21.24L23.856 17.832H26.288L22.4 22.488L26.608 29H24.096L20.912 23.944ZM26.7575 28.92L27.8295 27.576C27.3602 26.8507 27.1255 25.928 27.1255 24.808C27.1255 24.136 27.2162 23.5333 27.3975 23C27.5788 22.4667 27.8348 22.0133 28.1655 21.64C28.5068 21.256 28.9122 20.9627 29.3815 20.76C29.8615 20.5573 30.4002 20.456 30.9975 20.456C31.8402 20.456 32.5602 20.6587 33.1575 21.064L34.1335 19.896L35.2535 20.728L34.1655 22.072C34.4002 22.4347 34.5762 22.8507 34.6935 23.32C34.8215 23.7787 34.8855 24.28 34.8855 24.824C34.8855 25.496 34.7948 26.104 34.6135 26.648C34.4322 27.1813 34.1708 27.64 33.8295 28.024C33.4988 28.3973 33.0935 28.6853 32.6135 28.888C32.1335 29.0907 31.5948 29.192 30.9975 29.192C30.1655 29.192 29.4455 28.9947 28.8375 28.6L27.8775 29.752L26.7575 28.92ZM30.9975 27.64C31.5522 27.64 31.9895 27.4587 32.3095 27.096C32.6295 26.7227 32.7895 26.2053 32.7895 25.544V23.624L29.8135 27.224C30.1228 27.5013 30.5175 27.64 30.9975 27.64ZM29.2375 25.976L32.1815 22.424C31.8722 22.1467 31.4775 22.008 30.9975 22.008C30.4535 22.008 30.0215 22.1947 29.7015 22.568C29.3922 22.9307 29.2375 23.4427 29.2375 24.104V25.976ZM36.7621 29V20.648H38.8101V22.04H38.8901C39.0608 21.592 39.3275 21.2187 39.6901 20.92C40.0635 20.6107 40.5755 20.456 41.2261 20.456C42.0901 20.456 42.7515 20.7387 43.2101 21.304C43.6688 21.8693 43.8981 22.6747 43.8981 23.72V29H41.8501V23.928C41.8501 23.3307 41.7435 22.8827 41.5301 22.584C41.3168 22.2853 40.9648 22.136 40.4741 22.136C40.2608 22.136 40.0528 22.168 39.8501 22.232C39.6581 22.2853 39.4821 22.3707 39.3221 22.488C39.1728 22.5947 39.0501 22.7333 38.9541 22.904C38.8581 23.064 38.8101 23.256 38.8101 23.48V29H36.7621Z" fill="#1A1A1A"/>
<rect x="16.5" y="137.5" width="319" height="39" rx="3.5" stroke="#707070"/>
<path d="M19.424 124H17.312V112.832H22.352C22.864 112.832 23.3227 112.912 23.728 113.072C24.1333 113.232 24.4747 113.467 24.752 113.776C25.04 114.075 25.2587 114.437 25.408 114.864C25.568 115.291 25.648 115.765 25.648 116.288C25.648 117.056 25.472 117.717 25.12 118.272C24.7787 118.827 24.2613 119.221 23.568 119.456L25.856 124H23.504L21.424 119.696H19.424V124ZM22.144 117.92C22.5493 117.92 22.8693 117.813 23.104 117.6C23.3387 117.376 23.456 117.061 23.456 116.656V115.92C23.456 115.515 23.3387 115.205 23.104 114.992C22.8693 114.779 22.5493 114.672 22.144 114.672H19.424V117.92H22.144ZM30.9506 124.192C30.332 124.192 29.7773 124.091 29.2866 123.888C28.8066 123.675 28.396 123.381 28.0546 123.008C27.724 122.624 27.468 122.165 27.2866 121.632C27.1053 121.088 27.0146 120.48 27.0146 119.808C27.0146 119.147 27.1 118.549 27.2706 118.016C27.452 117.483 27.708 117.029 28.0386 116.656C28.3693 116.272 28.7746 115.979 29.2546 115.776C29.7346 115.563 30.2786 115.456 30.8866 115.456C31.5373 115.456 32.1026 115.568 32.5826 115.792C33.0626 116.016 33.4573 116.32 33.7666 116.704C34.076 117.088 34.3053 117.536 34.4546 118.048C34.6146 118.549 34.6946 119.088 34.6946 119.664V120.336H29.1426V120.544C29.1426 121.152 29.3133 121.643 29.6546 122.016C29.996 122.379 30.5026 122.56 31.1746 122.56C31.6866 122.56 32.1026 122.453 32.4226 122.24C32.7533 122.027 33.0466 121.755 33.3026 121.424L34.4066 122.656C34.0653 123.136 33.596 123.515 32.9986 123.792C32.412 124.059 31.7293 124.192 30.9506 124.192ZM30.9186 116.992C30.3746 116.992 29.9426 117.173 29.6226 117.536C29.3026 117.899 29.1426 118.368 29.1426 118.944V119.072H32.5666V118.928C32.5666 118.352 32.4226 117.888 32.1346 117.536C31.8573 117.173 31.452 116.992 30.9186 116.992ZM38.5445 124C37.8405 124 37.3232 123.824 36.9925 123.472C36.6618 123.12 36.4965 122.624 36.4965 121.984V112.16H38.5445V122.368H39.6485V124H38.5445ZM42.2236 114.432C41.797 114.432 41.4876 114.336 41.2956 114.144C41.1143 113.952 41.0236 113.707 41.0236 113.408V113.088C41.0236 112.789 41.1143 112.544 41.2956 112.352C41.4876 112.16 41.797 112.064 42.2236 112.064C42.6396 112.064 42.9436 112.16 43.1356 112.352C43.3276 112.544 43.4236 112.789 43.4236 113.088V113.408C43.4236 113.707 43.3276 113.952 43.1356 114.144C42.9436 114.336 42.6396 114.432 42.2236 114.432ZM41.1996 115.648H43.2476V124H41.1996V115.648ZM53.1575 124.704C53.1575 125.141 53.0775 125.525 52.9175 125.856C52.7682 126.197 52.5175 126.48 52.1655 126.704C51.8135 126.928 51.3602 127.099 50.8055 127.216C50.2508 127.333 49.5735 127.392 48.7735 127.392C48.0695 127.392 47.4722 127.344 46.9815 127.248C46.4908 127.163 46.0855 127.035 45.7655 126.864C45.4562 126.704 45.2322 126.501 45.0935 126.256C44.9548 126.011 44.8855 125.733 44.8855 125.424C44.8855 124.955 45.0135 124.587 45.2695 124.32C45.5362 124.064 45.9042 123.899 46.3735 123.824V123.648C46.0322 123.563 45.7655 123.397 45.5735 123.152C45.3922 122.896 45.3015 122.597 45.3015 122.256C45.3015 122.043 45.3442 121.856 45.4295 121.696C45.5148 121.525 45.6268 121.381 45.7655 121.264C45.9148 121.147 46.0802 121.051 46.2615 120.976C46.4428 120.891 46.6348 120.827 46.8375 120.784V120.72C46.3255 120.485 45.9415 120.16 45.6855 119.744C45.4402 119.328 45.3175 118.843 45.3175 118.288C45.3175 117.435 45.6108 116.752 46.1975 116.24C46.7842 115.717 47.6428 115.456 48.7735 115.456C49.0295 115.456 49.2802 115.472 49.5255 115.504C49.7815 115.536 50.0162 115.589 50.2295 115.664V115.392C50.2295 114.581 50.6242 114.176 51.4135 114.176H52.7095V115.744H50.9335V115.968C51.3708 116.213 51.6962 116.533 51.9095 116.928C52.1228 117.323 52.2295 117.776 52.2295 118.288C52.2295 119.131 51.9362 119.808 51.3495 120.32C50.7735 120.832 49.9148 121.088 48.7735 121.088C48.2828 121.088 47.8562 121.04 47.4935 120.944C47.3335 121.019 47.1948 121.12 47.0775 121.248C46.9602 121.365 46.9015 121.515 46.9015 121.696C46.9015 122.112 47.2642 122.32 47.9895 122.32H50.2295C51.2535 122.32 51.9948 122.533 52.4535 122.96C52.9228 123.376 53.1575 123.957 53.1575 124.704ZM51.2375 124.944C51.2375 124.677 51.1308 124.469 50.9175 124.32C50.7042 124.171 50.3362 124.096 49.8135 124.096H46.9655C46.6775 124.309 46.5335 124.597 46.5335 124.96C46.5335 125.28 46.6668 125.531 46.9335 125.712C47.2002 125.893 47.6535 125.984 48.2935 125.984H49.3175C49.9895 125.984 50.4748 125.899 50.7735 125.728C51.0828 125.557 51.2375 125.296 51.2375 124.944ZM48.7735 119.696C49.7762 119.696 50.2775 119.269 50.2775 118.416V118.144C50.2775 117.291 49.7762 116.864 48.7735 116.864C47.7708 116.864 47.2695 117.291 47.2695 118.144V118.416C47.2695 119.269 47.7708 119.696 48.7735 119.696ZM55.3643 114.432C54.9376 114.432 54.6283 114.336 54.4363 114.144C54.2549 113.952 54.1643 113.707 54.1643 113.408V113.088C54.1643 112.789 54.2549 112.544 54.4363 112.352C54.6283 112.16 54.9376 112.064 55.3643 112.064C55.7803 112.064 56.0843 112.16 56.2763 112.352C56.4683 112.544 56.5643 112.789 56.5643 113.088V113.408C56.5643 113.707 56.4683 113.952 56.2763 114.144C56.0843 114.336 55.7803 114.432 55.3643 114.432ZM54.3403 115.648H56.3883V124H54.3403V115.648ZM62.0741 124.192C61.4768 124.192 60.9381 124.091 60.4581 123.888C59.9888 123.685 59.5835 123.392 59.2421 123.008C58.9115 122.624 58.6555 122.165 58.4741 121.632C58.2928 121.088 58.2021 120.48 58.2021 119.808C58.2021 119.136 58.2928 118.533 58.4741 118C58.6555 117.467 58.9115 117.013 59.2421 116.64C59.5835 116.256 59.9888 115.963 60.4581 115.76C60.9381 115.557 61.4768 115.456 62.0741 115.456C62.6715 115.456 63.2101 115.557 63.6901 115.76C64.1701 115.963 64.5755 116.256 64.9061 116.64C65.2475 117.013 65.5088 117.467 65.6901 118C65.8715 118.533 65.9621 119.136 65.9621 119.808C65.9621 120.48 65.8715 121.088 65.6901 121.632C65.5088 122.165 65.2475 122.624 64.9061 123.008C64.5755 123.392 64.1701 123.685 63.6901 123.888C63.2101 124.091 62.6715 124.192 62.0741 124.192ZM62.0741 122.544C62.6181 122.544 63.0448 122.379 63.3541 122.048C63.6635 121.717 63.8181 121.232 63.8181 120.592V119.04C63.8181 118.411 63.6635 117.931 63.3541 117.6C63.0448 117.269 62.6181 117.104 62.0741 117.104C61.5408 117.104 61.1195 117.269 60.8101 117.6C60.5008 117.931 60.3461 118.411 60.3461 119.04V120.592C60.3461 121.232 60.5008 121.717 60.8101 122.048C61.1195 122.379 61.5408 122.544 62.0741 122.544ZM67.7778 124V115.648H69.8258V117.04H69.9058C70.0764 116.592 70.3431 116.219 70.7057 115.92C71.0791 115.611 71.5911 115.456 72.2418 115.456C73.1058 115.456 73.7671 115.739 74.2258 116.304C74.6844 116.869 74.9138 117.675 74.9138 118.72V124H72.8658V118.928C72.8658 118.331 72.7591 117.883 72.5458 117.584C72.3324 117.285 71.9804 117.136 71.4898 117.136C71.2764 117.136 71.0684 117.168 70.8658 117.232C70.6738 117.285 70.4978 117.371 70.3378 117.488C70.1884 117.595 70.0658 117.733 69.9698 117.904C69.8738 118.064 69.8258 118.256 69.8258 118.48V124H67.7778Z" fill="#1A1A1A"/>
<rect x="16.5" y="232.5" width="319" height="39" rx="3.5" stroke="#707070"/>
<path d="M19.312 207.832V214.696C19.312 215.571 19.4773 216.227 19.808 216.664C20.1493 217.101 20.72 217.32 21.52 217.32C22.32 217.32 22.8853 217.101 23.216 216.664C23.5573 216.227 23.728 215.571 23.728 214.696V207.832H25.808V214.424C25.808 215.245 25.728 215.955 25.568 216.552C25.4187 217.149 25.1733 217.645 24.832 218.04C24.4907 218.435 24.0427 218.728 23.488 218.92C22.944 219.101 22.2827 219.192 21.504 219.192C20.7147 219.192 20.048 219.101 19.504 218.92C18.9707 218.728 18.5333 218.435 18.192 218.04C17.8507 217.645 17.6053 217.149 17.456 216.552C17.3067 215.955 17.232 215.245 17.232 214.424V207.832H19.312ZM33.4149 217.608H33.3349C33.1855 218.088 32.9029 218.472 32.4869 218.76C32.0709 219.048 31.5855 219.192 31.0309 219.192C29.9749 219.192 29.1642 218.813 28.5989 218.056C28.0442 217.299 27.7669 216.216 27.7669 214.808C27.7669 213.411 28.0442 212.339 28.5989 211.592C29.1642 210.835 29.9749 210.456 31.0309 210.456C31.5855 210.456 32.0709 210.6 32.4869 210.888C32.9029 211.165 33.1855 211.544 33.3349 212.024H33.4149V207.16H35.4629V219H33.4149V217.608ZM31.6869 217.496C32.1775 217.496 32.5882 217.379 32.9189 217.144C33.2495 216.909 33.4149 216.573 33.4149 216.136V213.48C33.4149 213.075 33.2495 212.749 32.9189 212.504C32.5882 212.259 32.1775 212.136 31.6869 212.136C31.1535 212.136 30.7215 212.317 30.3909 212.68C30.0709 213.032 29.9109 213.507 29.9109 214.104V215.544C29.9109 216.141 30.0709 216.616 30.3909 216.968C30.7215 217.32 31.1535 217.496 31.6869 217.496ZM43.0086 217.608H42.9286C42.7793 218.088 42.4966 218.472 42.0806 218.76C41.6646 219.048 41.1793 219.192 40.6246 219.192C39.5686 219.192 38.758 218.813 38.1926 218.056C37.638 217.299 37.3606 216.216 37.3606 214.808C37.3606 213.411 37.638 212.339 38.1926 211.592C38.758 210.835 39.5686 210.456 40.6246 210.456C41.1793 210.456 41.6646 210.6 42.0806 210.888C42.4966 211.165 42.7793 211.544 42.9286 212.024H43.0086V207.16H45.0566V219H43.0086V217.608ZM41.2806 217.496C41.7713 217.496 42.182 217.379 42.5126 217.144C42.8433 216.909 43.0086 216.573 43.0086 216.136V213.48C43.0086 213.075 42.8433 212.749 42.5126 212.504C42.182 212.259 41.7713 212.136 41.2806 212.136C40.7473 212.136 40.3153 212.317 39.9846 212.68C39.6646 213.032 39.5046 213.507 39.5046 214.104V215.544C39.5046 216.141 39.6646 216.616 39.9846 216.968C40.3153 217.32 40.7473 217.496 41.2806 217.496ZM53.5624 219C53.1144 219 52.757 218.872 52.4904 218.616C52.2344 218.349 52.0744 217.997 52.0104 217.56H51.9144C51.7757 218.104 51.493 218.515 51.0664 218.792C50.6397 219.059 50.1117 219.192 49.4824 219.192C48.629 219.192 47.973 218.968 47.5144 218.52C47.0557 218.072 46.8264 217.475 46.8264 216.728C46.8264 215.864 47.1357 215.224 47.7544 214.808C48.373 214.381 49.253 214.168 50.3944 214.168H51.8184V213.56C51.8184 213.091 51.6957 212.728 51.4504 212.472C51.205 212.216 50.8104 212.088 50.2664 212.088C49.7864 212.088 49.397 212.195 49.0984 212.408C48.8104 212.611 48.565 212.856 48.3624 213.144L47.1464 212.056C47.4557 211.576 47.8664 211.192 48.3784 210.904C48.8904 210.605 49.5677 210.456 50.4104 210.456C51.541 210.456 52.3997 210.712 52.9864 211.224C53.573 211.736 53.8664 212.472 53.8664 213.432V217.368H54.6984V219H53.5624ZM50.1704 217.704C50.629 217.704 51.0184 217.603 51.3384 217.4C51.6584 217.197 51.8184 216.899 51.8184 216.504V215.4H50.5064C49.4397 215.4 48.9064 215.741 48.9064 216.424V216.696C48.9064 217.037 49.013 217.293 49.2264 217.464C49.4504 217.624 49.765 217.704 50.1704 217.704ZM56.3559 219V210.648H58.4039V212.04H58.4839C58.6545 211.592 58.9212 211.219 59.2839 210.92C59.6572 210.611 60.1692 210.456 60.8199 210.456C61.6839 210.456 62.3452 210.739 62.8039 211.304C63.2625 211.869 63.4919 212.675 63.4919 213.72V219H61.4439V213.928C61.4439 213.331 61.3372 212.883 61.1239 212.584C60.9105 212.285 60.5585 212.136 60.0679 212.136C59.8545 212.136 59.6465 212.168 59.4439 212.232C59.2519 212.285 59.0759 212.371 58.9159 212.488C58.7665 212.595 58.6439 212.733 58.5479 212.904C58.4519 213.064 58.4039 213.256 58.4039 213.48V219H56.3559ZM65.7621 219V210.648H67.8101V212.04H67.8901C68.0608 211.592 68.3275 211.219 68.6901 210.92C69.0635 210.611 69.5755 210.456 70.2261 210.456C71.0901 210.456 71.7515 210.739 72.2101 211.304C72.6688 211.869 72.8981 212.675 72.8981 213.72V219H70.8501V213.928C70.8501 213.331 70.7435 212.883 70.5301 212.584C70.3168 212.285 69.9648 212.136 69.4741 212.136C69.2608 212.136 69.0528 212.168 68.8501 212.232C68.6581 212.285 68.4821 212.371 68.3221 212.488C68.1728 212.595 68.0501 212.733 67.9541 212.904C67.8581 213.064 67.8101 213.256 67.8101 213.48V219H65.7621ZM78.5444 219.192C77.9257 219.192 77.371 219.091 76.8804 218.888C76.4004 218.675 75.9897 218.381 75.6484 218.008C75.3177 217.624 75.0617 217.165 74.8804 216.632C74.699 216.088 74.6084 215.48 74.6084 214.808C74.6084 214.147 74.6937 213.549 74.8644 213.016C75.0457 212.483 75.3017 212.029 75.6324 211.656C75.963 211.272 76.3684 210.979 76.8484 210.776C77.3284 210.563 77.8724 210.456 78.4804 210.456C79.131 210.456 79.6964 210.568 80.1764 210.792C80.6564 211.016 81.051 211.32 81.3604 211.704C81.6697 212.088 81.899 212.536 82.0484 213.048C82.2084 213.549 82.2884 214.088 82.2884 214.664V215.336H76.7364V215.544C76.7364 216.152 76.907 216.643 77.2484 217.016C77.5897 217.379 78.0964 217.56 78.7684 217.56C79.2804 217.56 79.6964 217.453 80.0164 217.24C80.347 217.027 80.6404 216.755 80.8964 216.424L82.0004 217.656C81.659 218.136 81.1897 218.515 80.5924 218.792C80.0057 219.059 79.323 219.192 78.5444 219.192ZM78.5124 211.992C77.9684 211.992 77.5364 212.173 77.2164 212.536C76.8964 212.899 76.7364 213.368 76.7364 213.944V214.072H80.1604V213.928C80.1604 213.352 80.0164 212.888 79.7284 212.536C79.451 212.173 79.0457 211.992 78.5124 211.992ZM86.1383 219C85.4343 219 84.9169 218.824 84.5863 218.472C84.2556 218.12 84.0903 217.624 84.0903 216.984V207.16H86.1383V217.368H87.2423V219H86.1383ZM91.5294 219.192C90.7294 219.192 90.0574 219.059 89.5134 218.792C88.9694 218.515 88.4894 218.136 88.0734 217.656L89.3214 216.44C89.6307 216.792 89.9667 217.069 90.3294 217.272C90.7027 217.475 91.1294 217.576 91.6094 217.576C92.1 217.576 92.452 217.491 92.6654 217.32C92.8894 217.149 93.0014 216.915 93.0014 216.616C93.0014 216.371 92.9214 216.179 92.7614 216.04C92.612 215.891 92.3507 215.789 91.9774 215.736L91.1454 215.624C90.2387 215.507 89.5454 215.251 89.0654 214.856C88.596 214.451 88.3614 213.864 88.3614 213.096C88.3614 212.691 88.436 212.328 88.5854 212.008C88.7347 211.677 88.948 211.4 89.2254 211.176C89.5027 210.941 89.8334 210.765 90.2174 210.648C90.612 210.52 91.0494 210.456 91.5294 210.456C91.9347 210.456 92.292 210.488 92.6014 210.552C92.9214 210.605 93.2094 210.691 93.4654 210.808C93.7214 210.915 93.956 211.053 94.1694 211.224C94.3827 211.384 94.5907 211.565 94.7934 211.768L93.5934 212.968C93.348 212.712 93.0547 212.499 92.7134 212.328C92.372 212.157 91.9987 212.072 91.5934 212.072C91.1454 212.072 90.82 212.152 90.6174 212.312C90.4254 212.472 90.3294 212.68 90.3294 212.936C90.3294 213.213 90.4094 213.427 90.5694 213.576C90.74 213.715 91.0227 213.816 91.4174 213.88L92.2654 213.992C94.068 214.248 94.9694 215.069 94.9694 216.456C94.9694 216.861 94.884 217.235 94.7134 217.576C94.5534 217.907 94.324 218.195 94.0254 218.44C93.7267 218.675 93.364 218.861 92.9374 219C92.5214 219.128 92.052 219.192 91.5294 219.192ZM100.154 219.192C99.5351 219.192 98.9804 219.091 98.4898 218.888C98.0098 218.675 97.5991 218.381 97.2578 218.008C96.9271 217.624 96.6711 217.165 96.4898 216.632C96.3084 216.088 96.2178 215.48 96.2178 214.808C96.2178 214.147 96.3031 213.549 96.4738 213.016C96.6551 212.483 96.9111 212.029 97.2418 211.656C97.5724 211.272 97.9778 210.979 98.4578 210.776C98.9378 210.563 99.4818 210.456 100.09 210.456C100.74 210.456 101.306 210.568 101.786 210.792C102.266 211.016 102.66 211.32 102.97 211.704C103.279 212.088 103.508 212.536 103.658 213.048C103.818 213.549 103.898 214.088 103.898 214.664V215.336H98.3458V215.544C98.3458 216.152 98.5164 216.643 98.8578 217.016C99.1991 217.379 99.7058 217.56 100.378 217.56C100.89 217.56 101.306 217.453 101.626 217.24C101.956 217.027 102.25 216.755 102.506 216.424L103.61 217.656C103.268 218.136 102.799 218.515 102.202 218.792C101.615 219.059 100.932 219.192 100.154 219.192ZM100.122 211.992C99.5778 211.992 99.1458 212.173 98.8258 212.536C98.5058 212.899 98.3458 213.368 98.3458 213.944V214.072H101.77V213.928C101.77 213.352 101.626 212.888 101.338 212.536C101.06 212.173 100.655 211.992 100.122 211.992ZM108.436 219.192C107.636 219.192 106.964 219.059 106.42 218.792C105.876 218.515 105.396 218.136 104.98 217.656L106.228 216.44C106.537 216.792 106.873 217.069 107.236 217.272C107.609 217.475 108.036 217.576 108.516 217.576C109.006 217.576 109.358 217.491 109.572 217.32C109.796 217.149 109.908 216.915 109.908 216.616C109.908 216.371 109.828 216.179 109.668 216.04C109.518 215.891 109.257 215.789 108.884 215.736L108.052 215.624C107.145 215.507 106.452 215.251 105.972 214.856C105.502 214.451 105.268 213.864 105.268 213.096C105.268 212.691 105.342 212.328 105.492 212.008C105.641 211.677 105.854 211.4 106.132 211.176C106.409 210.941 106.74 210.765 107.124 210.648C107.518 210.52 107.956 210.456 108.436 210.456C108.841 210.456 109.198 210.488 109.508 210.552C109.828 210.605 110.116 210.691 110.372 210.808C110.628 210.915 110.862 211.053 111.076 211.224C111.289 211.384 111.497 211.565 111.7 211.768L110.5 212.968C110.254 212.712 109.961 212.499 109.62 212.328C109.278 212.157 108.905 212.072 108.5 212.072C108.052 212.072 107.726 212.152 107.524 212.312C107.332 212.472 107.236 212.68 107.236 212.936C107.236 213.213 107.316 213.427 107.476 213.576C107.646 213.715 107.929 213.816 108.324 213.88L109.172 213.992C110.974 214.248 111.876 215.069 111.876 216.456C111.876 216.861 111.79 217.235 111.62 217.576C111.46 217.907 111.23 218.195 110.932 218.44C110.633 218.675 110.27 218.861 109.844 219C109.428 219.128 108.958 219.192 108.436 219.192ZM113.684 219V210.648H115.732V212.04H115.812C115.983 211.592 116.249 211.219 116.612 210.92C116.985 210.611 117.497 210.456 118.148 210.456C119.012 210.456 119.673 210.739 120.132 211.304C120.591 211.869 120.82 212.675 120.82 213.72V219H118.772V213.928C118.772 213.331 118.665 212.883 118.452 212.584C118.239 212.285 117.887 212.136 117.396 212.136C117.183 212.136 116.975 212.168 116.772 212.232C116.58 212.285 116.404 212.371 116.244 212.488C116.095 212.595 115.972 212.733 115.876 212.904C115.78 213.064 115.732 213.256 115.732 213.48V219H113.684ZM124.114 209.432C123.688 209.432 123.378 209.336 123.186 209.144C123.005 208.952 122.914 208.707 122.914 208.408V208.088C122.914 207.789 123.005 207.544 123.186 207.352C123.378 207.16 123.688 207.064 124.114 207.064C124.53 207.064 124.834 207.16 125.026 207.352C125.218 207.544 125.314 207.789 125.314 208.088V208.408C125.314 208.707 125.218 208.952 125.026 209.144C124.834 209.336 124.53 209.432 124.114 209.432ZM123.09 210.648H125.138V219H123.09V210.648ZM129.304 219L126.52 210.648H128.536L129.704 214.248L130.52 217.224H130.632L131.448 214.248L132.584 210.648H134.536L131.736 219H129.304ZM139.154 219.192C138.535 219.192 137.98 219.091 137.49 218.888C137.01 218.675 136.599 218.381 136.258 218.008C135.927 217.624 135.671 217.165 135.49 216.632C135.308 216.088 135.218 215.48 135.218 214.808C135.218 214.147 135.303 213.549 135.474 213.016C135.655 212.483 135.911 212.029 136.242 211.656C136.572 211.272 136.978 210.979 137.458 210.776C137.938 210.563 138.482 210.456 139.09 210.456C139.74 210.456 140.306 210.568 140.786 210.792C141.266 211.016 141.66 211.32 141.97 211.704C142.279 212.088 142.508 212.536 142.658 213.048C142.818 213.549 142.898 214.088 142.898 214.664V215.336H137.346V215.544C137.346 216.152 137.516 216.643 137.858 217.016C138.199 217.379 138.706 217.56 139.378 217.56C139.89 217.56 140.306 217.453 140.626 217.24C140.956 217.027 141.25 216.755 141.506 216.424L142.61 217.656C142.268 218.136 141.799 218.515 141.202 218.792C140.615 219.059 139.932 219.192 139.154 219.192ZM139.122 211.992C138.578 211.992 138.146 212.173 137.826 212.536C137.506 212.899 137.346 213.368 137.346 213.944V214.072H140.77V213.928C140.77 213.352 140.626 212.888 140.338 212.536C140.06 212.173 139.655 211.992 139.122 211.992ZM150.844 219C150.396 219 150.038 218.872 149.772 218.616C149.516 218.349 149.356 217.997 149.292 217.56H149.196C149.057 218.104 148.774 218.515 148.348 218.792C147.921 219.059 147.393 219.192 146.764 219.192C145.91 219.192 145.254 218.968 144.796 218.52C144.337 218.072 144.108 217.475 144.108 216.728C144.108 215.864 144.417 215.224 145.036 214.808C145.654 214.381 146.534 214.168 147.676 214.168H149.1V213.56C149.1 213.091 148.977 212.728 148.732 212.472C148.486 212.216 148.092 212.088 147.548 212.088C147.068 212.088 146.678 212.195 146.38 212.408C146.092 212.611 145.846 212.856 145.644 213.144L144.428 212.056C144.737 211.576 145.148 211.192 145.66 210.904C146.172 210.605 146.849 210.456 147.692 210.456C148.822 210.456 149.681 210.712 150.268 211.224C150.854 211.736 151.148 212.472 151.148 213.432V217.368H151.98V219H150.844ZM147.452 217.704C147.91 217.704 148.3 217.603 148.62 217.4C148.94 217.197 149.1 216.899 149.1 216.504V215.4H147.788C146.721 215.4 146.188 215.741 146.188 216.424V216.696C146.188 217.037 146.294 217.293 146.508 217.464C146.732 217.624 147.046 217.704 147.452 217.704ZM158.629 217.608H158.549C158.474 217.821 158.373 218.024 158.245 218.216C158.128 218.397 157.973 218.563 157.781 218.712C157.6 218.861 157.376 218.979 157.109 219.064C156.853 219.149 156.554 219.192 156.213 219.192C155.349 219.192 154.688 218.909 154.229 218.344C153.77 217.779 153.541 216.973 153.541 215.928V210.648H155.589V215.72C155.589 216.296 155.701 216.739 155.925 217.048C156.149 217.347 156.506 217.496 156.997 217.496C157.2 217.496 157.397 217.469 157.589 217.416C157.792 217.363 157.968 217.283 158.117 217.176C158.266 217.059 158.389 216.92 158.485 216.76C158.581 216.589 158.629 216.392 158.629 216.168V210.648H160.677V219H158.629V217.608Z" fill="#1A1A1A"/>
</g>
<defs>
<clipPath id="clip0_5010_49005">
<rect width="418" height="288" fill="white"/>
</clipPath>
</defs>
</svg>
