<svg width="418" height="296" viewBox="0 0 418 296" fill="none" xmlns="http://www.w3.org/2000/svg">
<rect width="418" height="296" fill="white"/>
<path d="M24.224 34L23.328 31.152H19.36L18.48 34H16.336L20.08 22.832H22.704L26.416 34H24.224ZM21.376 24.752H21.296L19.872 29.344H22.816L21.376 24.752ZM33.118 32.608H33.038C32.8887 33.088 32.606 33.472 32.19 33.76C31.774 34.048 31.2887 34.192 30.734 34.192C29.678 34.192 28.8673 33.8133 28.302 33.056C27.7473 32.2987 27.47 31.216 27.47 29.808C27.47 28.4107 27.7473 27.3387 28.302 26.592C28.8673 25.8347 29.678 25.456 30.734 25.456C31.2887 25.456 31.774 25.6 32.19 25.888C32.606 26.1653 32.8887 26.544 33.038 27.024H33.118V22.16H35.166V34H33.118V32.608ZM31.39 32.496C31.8807 32.496 32.2913 32.3787 32.622 32.144C32.9527 31.9093 33.118 31.5733 33.118 31.136V28.48C33.118 28.0747 32.9527 27.7493 32.622 27.504C32.2913 27.2587 31.8807 27.136 31.39 27.136C30.8567 27.136 30.4247 27.3173 30.094 27.68C29.774 28.032 29.614 28.5067 29.614 29.104V30.544C29.614 31.1413 29.774 31.616 30.094 31.968C30.4247 32.32 30.8567 32.496 31.39 32.496ZM37.5278 34V25.648H39.5758V27.376H39.6558C39.7091 27.152 39.7891 26.9387 39.8958 26.736C40.0131 26.5227 40.1624 26.336 40.3438 26.176C40.5251 26.016 40.7384 25.888 40.9838 25.792C41.2398 25.696 41.5331 25.648 41.8638 25.648H42.3118V27.584H41.6718C40.9784 27.584 40.4558 27.6853 40.1038 27.888C39.7518 28.0907 39.5758 28.4213 39.5758 28.88V34H37.5278ZM47.1069 34.192C46.4882 34.192 45.9335 34.0907 45.4429 33.888C44.9629 33.6747 44.5522 33.3813 44.2109 33.008C43.8802 32.624 43.6242 32.1653 43.4429 31.632C43.2615 31.088 43.1709 30.48 43.1709 29.808C43.1709 29.1467 43.2562 28.5493 43.4269 28.016C43.6082 27.4827 43.8642 27.0293 44.1949 26.656C44.5255 26.272 44.9309 25.9787 45.4109 25.776C45.8909 25.5627 46.4349 25.456 47.0429 25.456C47.6935 25.456 48.2589 25.568 48.7389 25.792C49.2189 26.016 49.6135 26.32 49.9229 26.704C50.2322 27.088 50.4615 27.536 50.6109 28.048C50.7709 28.5493 50.8509 29.088 50.8509 29.664V30.336H45.2989V30.544C45.2989 31.152 45.4695 31.6427 45.8109 32.016C46.1522 32.3787 46.6589 32.56 47.3309 32.56C47.8429 32.56 48.2589 32.4533 48.5789 32.24C48.9095 32.0267 49.2029 31.7547 49.4589 31.424L50.5629 32.656C50.2215 33.136 49.7522 33.5147 49.1549 33.792C48.5682 34.0587 47.8855 34.192 47.1069 34.192ZM47.0749 26.992C46.5309 26.992 46.0989 27.1733 45.7789 27.536C45.4589 27.8987 45.2989 28.368 45.2989 28.944V29.072H48.7229V28.928C48.7229 28.352 48.5789 27.888 48.2909 27.536C48.0135 27.1733 47.6082 26.992 47.0749 26.992ZM55.3888 34.192C54.5888 34.192 53.9168 34.0587 53.3728 33.792C52.8288 33.5147 52.3488 33.136 51.9328 32.656L53.1808 31.44C53.4901 31.792 53.8261 32.0693 54.1888 32.272C54.5621 32.4747 54.9888 32.576 55.4688 32.576C55.9594 32.576 56.3114 32.4907 56.5248 32.32C56.7488 32.1493 56.8608 31.9147 56.8608 31.616C56.8608 31.3707 56.7808 31.1787 56.6208 31.04C56.4714 30.8907 56.2101 30.7893 55.8368 30.736L55.0048 30.624C54.0981 30.5067 53.4048 30.2507 52.9248 29.856C52.4554 29.4507 52.2208 28.864 52.2208 28.096C52.2208 27.6907 52.2954 27.328 52.4448 27.008C52.5941 26.6773 52.8074 26.4 53.0848 26.176C53.3621 25.9413 53.6928 25.7653 54.0768 25.648C54.4714 25.52 54.9088 25.456 55.3888 25.456C55.7941 25.456 56.1514 25.488 56.4608 25.552C56.7808 25.6053 57.0688 25.6907 57.3248 25.808C57.5808 25.9147 57.8154 26.0533 58.0288 26.224C58.2421 26.384 58.4501 26.5653 58.6528 26.768L57.4528 27.968C57.2074 27.712 56.9141 27.4987 56.5728 27.328C56.2314 27.1573 55.8581 27.072 55.4528 27.072C55.0048 27.072 54.6794 27.152 54.4768 27.312C54.2848 27.472 54.1888 27.68 54.1888 27.936C54.1888 28.2133 54.2688 28.4267 54.4288 28.576C54.5994 28.7147 54.8821 28.816 55.2768 28.88L56.1248 28.992C57.9274 29.248 58.8288 30.0693 58.8288 31.456C58.8288 31.8613 58.7434 32.2347 58.5728 32.576C58.4128 32.9067 58.1834 33.1947 57.8848 33.44C57.5861 33.6747 57.2234 33.8613 56.7968 34C56.3808 34.128 55.9114 34.192 55.3888 34.192ZM63.2638 34.192C62.4638 34.192 61.7918 34.0587 61.2478 33.792C60.7038 33.5147 60.2238 33.136 59.8078 32.656L61.0558 31.44C61.3651 31.792 61.7011 32.0693 62.0638 32.272C62.4371 32.4747 62.8638 32.576 63.3438 32.576C63.8344 32.576 64.1864 32.4907 64.3998 32.32C64.6238 32.1493 64.7358 31.9147 64.7358 31.616C64.7358 31.3707 64.6558 31.1787 64.4958 31.04C64.3464 30.8907 64.0851 30.7893 63.7118 30.736L62.8798 30.624C61.9731 30.5067 61.2798 30.2507 60.7998 29.856C60.3304 29.4507 60.0958 28.864 60.0958 28.096C60.0958 27.6907 60.1704 27.328 60.3198 27.008C60.4691 26.6773 60.6824 26.4 60.9598 26.176C61.2371 25.9413 61.5678 25.7653 61.9518 25.648C62.3464 25.52 62.7838 25.456 63.2638 25.456C63.6691 25.456 64.0264 25.488 64.3358 25.552C64.6558 25.6053 64.9438 25.6907 65.1998 25.808C65.4558 25.9147 65.6904 26.0533 65.9038 26.224C66.1171 26.384 66.3251 26.5653 66.5278 26.768L65.3278 27.968C65.0824 27.712 64.7891 27.4987 64.4478 27.328C64.1064 27.1573 63.7331 27.072 63.3278 27.072C62.8798 27.072 62.5544 27.152 62.3518 27.312C62.1598 27.472 62.0638 27.68 62.0638 27.936C62.0638 28.2133 62.1438 28.4267 62.3038 28.576C62.4744 28.7147 62.7571 28.816 63.1518 28.88L63.9998 28.992C65.8024 29.248 66.7038 30.0693 66.7038 31.456C66.7038 31.8613 66.6184 32.2347 66.4478 32.576C66.2878 32.9067 66.0584 33.1947 65.7598 33.44C65.4611 33.6747 65.0984 33.8613 64.6718 34C64.2558 34.128 63.7864 34.192 63.2638 34.192ZM71.8881 34.192C71.2695 34.192 70.7148 34.0907 70.2241 33.888C69.7441 33.6747 69.3335 33.3813 68.9921 33.008C68.6615 32.624 68.4055 32.1653 68.2241 31.632C68.0428 31.088 67.9521 30.48 67.9521 29.808C67.9521 29.1467 68.0375 28.5493 68.2081 28.016C68.3895 27.4827 68.6455 27.0293 68.9761 26.656C69.3068 26.272 69.7121 25.9787 70.1921 25.776C70.6721 25.5627 71.2161 25.456 71.8241 25.456C72.4748 25.456 73.0401 25.568 73.5201 25.792C74.0001 26.016 74.3948 26.32 74.7041 26.704C75.0135 27.088 75.2428 27.536 75.3921 28.048C75.5521 28.5493 75.6321 29.088 75.6321 29.664V30.336H70.0801V30.544C70.0801 31.152 70.2508 31.6427 70.5921 32.016C70.9335 32.3787 71.4401 32.56 72.1121 32.56C72.6241 32.56 73.0401 32.4533 73.3601 32.24C73.6908 32.0267 73.9841 31.7547 74.2401 31.424L75.3441 32.656C75.0028 33.136 74.5335 33.5147 73.9361 33.792C73.3495 34.0587 72.6668 34.192 71.8881 34.192ZM71.8561 26.992C71.3121 26.992 70.8801 27.1733 70.5601 27.536C70.2401 27.8987 70.0801 28.368 70.0801 28.944V29.072H73.5041V28.928C73.5041 28.352 73.3601 27.888 73.0721 27.536C72.7948 27.1733 72.3895 26.992 71.8561 26.992Z" fill="#1A1A1A"/>
<path d="M16.5 56C16.5 51.8579 19.8579 48.5 24 48.5H328C332.142 48.5 335.5 51.8579 335.5 56V80C335.5 84.1421 332.142 87.5 328 87.5H24C19.8579 87.5 16.5 84.1421 16.5 80V56Z" fill="white"/>
<path d="M16.5 56C16.5 51.8579 19.8579 48.5 24 48.5H328C332.142 48.5 335.5 51.8579 335.5 56V80C335.5 84.1421 332.142 87.5 328 87.5H24C19.8579 87.5 16.5 84.1421 16.5 80V56Z" stroke="#8E8E8E"/>
<path d="M17.312 130V118.832H22.336C22.848 118.832 23.3067 118.917 23.712 119.088C24.128 119.248 24.48 119.483 24.768 119.792C25.056 120.091 25.2747 120.453 25.424 120.88C25.5733 121.307 25.648 121.776 25.648 122.288C25.648 122.811 25.5733 123.285 25.424 123.712C25.2747 124.128 25.056 124.491 24.768 124.8C24.48 125.099 24.128 125.333 23.712 125.504C23.3067 125.664 22.848 125.744 22.336 125.744H19.424V130H17.312ZM19.424 123.92H22.144C22.5493 123.92 22.8693 123.813 23.104 123.6C23.3387 123.376 23.456 123.061 23.456 122.656V121.92C23.456 121.515 23.3387 121.205 23.104 120.992C22.8693 120.779 22.5493 120.672 22.144 120.672H19.424V123.92ZM30.4335 130.192C29.8362 130.192 29.2975 130.091 28.8175 129.888C28.3482 129.685 27.9428 129.392 27.6015 129.008C27.2708 128.624 27.0148 128.165 26.8335 127.632C26.6522 127.088 26.5615 126.48 26.5615 125.808C26.5615 125.136 26.6522 124.533 26.8335 124C27.0148 123.467 27.2708 123.013 27.6015 122.64C27.9428 122.256 28.3482 121.963 28.8175 121.76C29.2975 121.557 29.8362 121.456 30.4335 121.456C31.0308 121.456 31.5695 121.557 32.0495 121.76C32.5295 121.963 32.9348 122.256 33.2655 122.64C33.6068 123.013 33.8682 123.467 34.0495 124C34.2308 124.533 34.3215 125.136 34.3215 125.808C34.3215 126.48 34.2308 127.088 34.0495 127.632C33.8682 128.165 33.6068 128.624 33.2655 129.008C32.9348 129.392 32.5295 129.685 32.0495 129.888C31.5695 130.091 31.0308 130.192 30.4335 130.192ZM30.4335 128.544C30.9775 128.544 31.4042 128.379 31.7135 128.048C32.0228 127.717 32.1775 127.232 32.1775 126.592V125.04C32.1775 124.411 32.0228 123.931 31.7135 123.6C31.4042 123.269 30.9775 123.104 30.4335 123.104C29.9002 123.104 29.4788 123.269 29.1695 123.6C28.8602 123.931 28.7055 124.411 28.7055 125.04V126.592C28.7055 127.232 28.8602 127.717 29.1695 128.048C29.4788 128.379 29.9002 128.544 30.4335 128.544ZM38.8731 130.192C38.0731 130.192 37.4011 130.059 36.8571 129.792C36.3131 129.515 35.8331 129.136 35.4171 128.656L36.6651 127.44C36.9745 127.792 37.3105 128.069 37.6731 128.272C38.0465 128.475 38.4731 128.576 38.9531 128.576C39.4438 128.576 39.7958 128.491 40.0091 128.32C40.2331 128.149 40.3451 127.915 40.3451 127.616C40.3451 127.371 40.2651 127.179 40.1051 127.04C39.9558 126.891 39.6945 126.789 39.3211 126.736L38.4891 126.624C37.5825 126.507 36.8891 126.251 36.4091 125.856C35.9398 125.451 35.7051 124.864 35.7051 124.096C35.7051 123.691 35.7798 123.328 35.9291 123.008C36.0785 122.677 36.2918 122.4 36.5691 122.176C36.8465 121.941 37.1771 121.765 37.5611 121.648C37.9558 121.52 38.3931 121.456 38.8731 121.456C39.2785 121.456 39.6358 121.488 39.9451 121.552C40.2651 121.605 40.5531 121.691 40.8091 121.808C41.0651 121.915 41.2998 122.053 41.5131 122.224C41.7265 122.384 41.9345 122.565 42.1371 122.768L40.9371 123.968C40.6918 123.712 40.3985 123.499 40.0571 123.328C39.7158 123.157 39.3425 123.072 38.9371 123.072C38.4891 123.072 38.1638 123.152 37.9611 123.312C37.7691 123.472 37.6731 123.68 37.6731 123.936C37.6731 124.213 37.7531 124.427 37.9131 124.576C38.0838 124.715 38.3665 124.816 38.7611 124.88L39.6091 124.992C41.4118 125.248 42.3131 126.069 42.3131 127.456C42.3131 127.861 42.2278 128.235 42.0571 128.576C41.8971 128.907 41.6678 129.195 41.3691 129.44C41.0705 129.675 40.7078 129.861 40.2811 130C39.8651 130.128 39.3958 130.192 38.8731 130.192ZM46.6045 130C45.9005 130 45.3618 129.819 44.9885 129.456C44.6258 129.083 44.4445 128.555 44.4445 127.872V123.28H43.2125V121.648H43.8525C44.1618 121.648 44.3698 121.579 44.4765 121.44C44.5938 121.291 44.6525 121.072 44.6525 120.784V119.36H46.4925V121.648H48.2045V123.28H46.4925V128.368H48.0765V130H46.6045ZM49.9809 130V121.648H52.0289V123.04H52.1089C52.2795 122.592 52.5462 122.219 52.9089 121.92C53.2822 121.611 53.7942 121.456 54.4449 121.456C55.3089 121.456 55.9702 121.739 56.4289 122.304C56.8875 122.869 57.1169 123.675 57.1169 124.72V130H55.0689V124.928C55.0689 124.331 54.9622 123.883 54.7489 123.584C54.5355 123.285 54.1835 123.136 53.6929 123.136C53.4795 123.136 53.2715 123.168 53.0689 123.232C52.8769 123.285 52.7009 123.371 52.5409 123.488C52.3915 123.595 52.2689 123.733 52.1729 123.904C52.0769 124.064 52.0289 124.256 52.0289 124.48V130H49.9809ZM64.3791 128.608H64.2991C64.2245 128.821 64.1231 129.024 63.9951 129.216C63.8778 129.397 63.7231 129.563 63.5311 129.712C63.3498 129.861 63.1258 129.979 62.8591 130.064C62.6031 130.149 62.3045 130.192 61.9631 130.192C61.0991 130.192 60.4378 129.909 59.9791 129.344C59.5205 128.779 59.2911 127.973 59.2911 126.928V121.648H61.3391V126.72C61.3391 127.296 61.4511 127.739 61.6751 128.048C61.8991 128.347 62.2565 128.496 62.7471 128.496C62.9498 128.496 63.1471 128.469 63.3391 128.416C63.5418 128.363 63.7178 128.283 63.8671 128.176C64.0165 128.059 64.1391 127.92 64.2351 127.76C64.3311 127.589 64.3791 127.392 64.3791 127.168V121.648H66.4271V130H64.3791V128.608ZM68.7934 130V121.648H70.8414V123.04H70.9214C71.0814 122.603 71.3374 122.229 71.6894 121.92C72.0414 121.611 72.532 121.456 73.1614 121.456C73.7374 121.456 74.2334 121.595 74.6494 121.872C75.0654 122.149 75.3747 122.571 75.5774 123.136H75.6094C75.7587 122.667 76.052 122.272 76.4894 121.952C76.9374 121.621 77.4974 121.456 78.1694 121.456C78.9907 121.456 79.62 121.739 80.0574 122.304C80.5054 122.869 80.7294 123.675 80.7294 124.72V130H78.6814V124.928C78.6814 123.733 78.2334 123.136 77.3374 123.136C77.1347 123.136 76.9374 123.168 76.7454 123.232C76.564 123.285 76.3987 123.371 76.2494 123.488C76.1107 123.595 75.9987 123.733 75.9134 123.904C75.828 124.064 75.7854 124.256 75.7854 124.48V130H73.7374V124.928C73.7374 123.733 73.2894 123.136 72.3934 123.136C72.2014 123.136 72.0094 123.168 71.8174 123.232C71.636 123.285 71.4707 123.371 71.3214 123.488C71.1827 123.595 71.0654 123.733 70.9694 123.904C70.884 124.064 70.8414 124.256 70.8414 124.48V130H68.7934ZM82.9965 130V121.648H85.0445V123.04H85.1245C85.2845 122.603 85.5405 122.229 85.8925 121.92C86.2445 121.611 86.7352 121.456 87.3645 121.456C87.9405 121.456 88.4365 121.595 88.8525 121.872C89.2685 122.149 89.5778 122.571 89.7805 123.136H89.8125C89.9618 122.667 90.2552 122.272 90.6925 121.952C91.1405 121.621 91.7005 121.456 92.3725 121.456C93.1938 121.456 93.8232 121.739 94.2605 122.304C94.7085 122.869 94.9325 123.675 94.9325 124.72V130H92.8845V124.928C92.8845 123.733 92.4365 123.136 91.5405 123.136C91.3378 123.136 91.1405 123.168 90.9485 123.232C90.7672 123.285 90.6018 123.371 90.4525 123.488C90.3138 123.595 90.2018 123.733 90.1165 123.904C90.0312 124.064 89.9885 124.256 89.9885 124.48V130H87.9405V124.928C87.9405 123.733 87.4925 123.136 86.5965 123.136C86.4045 123.136 86.2125 123.168 86.0205 123.232C85.8392 123.285 85.6738 123.371 85.5245 123.488C85.3858 123.595 85.2685 123.733 85.1725 123.904C85.0872 124.064 85.0445 124.256 85.0445 124.48V130H82.9965ZM100.576 130.192C99.957 130.192 99.4023 130.091 98.9116 129.888C98.4316 129.675 98.021 129.381 97.6796 129.008C97.349 128.624 97.093 128.165 96.9116 127.632C96.7303 127.088 96.6396 126.48 96.6396 125.808C96.6396 125.147 96.725 124.549 96.8956 124.016C97.077 123.483 97.333 123.029 97.6636 122.656C97.9943 122.272 98.3996 121.979 98.8796 121.776C99.3596 121.563 99.9036 121.456 100.512 121.456C101.162 121.456 101.728 121.568 102.208 121.792C102.688 122.016 103.082 122.32 103.392 122.704C103.701 123.088 103.93 123.536 104.08 124.048C104.24 124.549 104.32 125.088 104.32 125.664V126.336H98.7676V126.544C98.7676 127.152 98.9383 127.643 99.2796 128.016C99.621 128.379 100.128 128.56 100.8 128.56C101.312 128.56 101.728 128.453 102.048 128.24C102.378 128.027 102.672 127.755 102.928 127.424L104.032 128.656C103.69 129.136 103.221 129.515 102.624 129.792C102.037 130.059 101.354 130.192 100.576 130.192ZM100.544 122.992C99.9996 122.992 99.5676 123.173 99.2476 123.536C98.9276 123.899 98.7676 124.368 98.7676 124.944V125.072H102.192V124.928C102.192 124.352 102.048 123.888 101.76 123.536C101.482 123.173 101.077 122.992 100.544 122.992ZM106.122 130V121.648H108.17V123.376H108.25C108.303 123.152 108.383 122.939 108.49 122.736C108.607 122.523 108.756 122.336 108.938 122.176C109.119 122.016 109.332 121.888 109.578 121.792C109.834 121.696 110.127 121.648 110.458 121.648H110.906V123.584H110.266C109.572 123.584 109.05 123.685 108.698 123.888C108.346 124.091 108.17 124.421 108.17 124.88V130H106.122Z" fill="#1A1A1A"/>
<path d="M16.5 152C16.5 147.858 19.8579 144.5 24 144.5H80C84.1421 144.5 87.5 147.858 87.5 152V176C87.5 180.142 84.1421 183.5 80 183.5H24C19.8579 183.5 16.5 180.142 16.5 176V152Z" fill="white"/>
<path d="M16.5 152C16.5 147.858 19.8579 144.5 24 144.5H80C84.1421 144.5 87.5 147.858 87.5 152V176C87.5 180.142 84.1421 183.5 80 183.5H24C19.8579 183.5 16.5 180.142 16.5 176V152Z" stroke="#8E8E8E"/>
<path d="M17.312 214.832H22.48C22.9387 214.832 23.3493 214.901 23.712 215.04C24.0853 215.179 24.4 215.371 24.656 215.616C24.912 215.861 25.104 216.165 25.232 216.528C25.3707 216.88 25.44 217.269 25.44 217.696C25.44 218.123 25.3813 218.485 25.264 218.784C25.1573 219.072 25.008 219.312 24.816 219.504C24.6347 219.696 24.4213 219.84 24.176 219.936C23.9413 220.032 23.696 220.085 23.44 220.096V220.192C23.6853 220.192 23.9467 220.24 24.224 220.336C24.512 220.432 24.7733 220.587 25.008 220.8C25.2533 221.003 25.456 221.269 25.616 221.6C25.776 221.92 25.856 222.32 25.856 222.8C25.856 223.248 25.7813 223.669 25.632 224.064C25.4933 224.448 25.296 224.784 25.04 225.072C24.784 225.36 24.48 225.589 24.128 225.76C23.776 225.92 23.392 226 22.976 226H17.312V214.832ZM19.424 224.208H22.368C22.7733 224.208 23.088 224.107 23.312 223.904C23.536 223.691 23.648 223.387 23.648 222.992V222.448C23.648 222.053 23.536 221.749 23.312 221.536C23.088 221.323 22.7733 221.216 22.368 221.216H19.424V224.208ZM19.424 219.488H22.032C22.416 219.488 22.7147 219.387 22.928 219.184C23.1413 218.971 23.248 218.677 23.248 218.304V217.808C23.248 217.435 23.1413 217.147 22.928 216.944C22.7147 216.731 22.416 216.624 22.032 216.624H19.424V219.488ZM32.7728 217.648H34.6927L31.3328 227.488C31.2261 227.787 31.1034 228.043 30.9648 228.256C30.8368 228.48 30.6821 228.661 30.5008 228.8C30.3194 228.939 30.1008 229.04 29.8448 229.104C29.5888 229.168 29.2901 229.2 28.9488 229.2H27.7168V227.568H29.2208L29.6048 226.4L26.6128 217.648H28.6448L30.1008 222.064L30.6448 224.176H30.7408L31.3168 222.064L32.7728 217.648Z" fill="#1A1A1A"/>
<path d="M16.5 248C16.5 243.858 19.8579 240.5 24 240.5H328C332.142 240.5 335.5 243.858 335.5 248V272C335.5 276.142 332.142 279.5 328 279.5H24C19.8579 279.5 16.5 276.142 16.5 272V248Z" fill="white"/>
<path d="M16.5 248C16.5 243.858 19.8579 240.5 24 240.5H328C332.142 240.5 335.5 243.858 335.5 248V272C335.5 276.142 332.142 279.5 328 279.5H24C19.8579 279.5 16.5 276.142 16.5 272V248Z" stroke="#8E8E8E"/>
</svg>
