<svg width="418" height="196" viewBox="0 0 418 196" fill="none" xmlns="http://www.w3.org/2000/svg">
<rect width="418" height="196" fill="white"/>
<path d="M16 116C16 113.791 17.7909 112 20 112H398C400.209 112 402 113.791 402 116V128C402 130.209 400.209 132 398 132H20C17.7909 132 16 130.209 16 128V116Z" fill="#DCDCDC"/>
<path d="M16 140C16 137.791 17.7909 136 20 136H398C400.209 136 402 137.791 402 140V152C402 154.209 400.209 156 398 156H20C17.7909 156 16 154.209 16 152V140Z" fill="#DCDCDC"/>
<path d="M16 164C16 161.791 17.7909 160 20 160H300C302.209 160 304 161.791 304 164V176C304 178.209 302.209 180 300 180H20C17.7909 180 16 178.209 16 176V164Z" fill="#DCDCDC"/>
<path d="M16 100C16 97.7909 17.7909 96 20 96H130C132.209 96 134 97.7909 134 100V104C134 106.209 132.209 108 130 108H20C17.7909 108 16 106.209 16 104V100Z" fill="#DCDCDC"/>
<path d="M16 24C16 19.5817 19.5817 16 24 16H394C398.418 16 402 19.5817 402 24V64C402 68.4183 398.418 72 394 72H24C19.5817 72 16 68.4183 16 64V24Z" fill="#DDF7CE"/>
<g clip-path="url(#clip0_14279_20824)">
<rect x="16" y="16" width="4" height="280" fill="#358000"/>
</g>
<path d="M50.6 48.6L57.65 41.55L56.25 40.15L50.6 45.8L47.75 42.95L46.35 44.35L50.6 48.6ZM52 54C50.6167 54 49.3167 53.7375 48.1 53.2125C46.8833 52.6875 45.825 51.975 44.925 51.075C44.025 50.175 43.3125 49.1167 42.7875 47.9C42.2625 46.6833 42 45.3833 42 44C42 42.6167 42.2625 41.3167 42.7875 40.1C43.3125 38.8833 44.025 37.825 44.925 36.925C45.825 36.025 46.8833 35.3125 48.1 34.7875C49.3167 34.2625 50.6167 34 52 34C53.3833 34 54.6833 34.2625 55.9 34.7875C57.1167 35.3125 58.175 36.025 59.075 36.925C59.975 37.825 60.6875 38.8833 61.2125 40.1C61.7375 41.3167 62 42.6167 62 44C62 45.3833 61.7375 46.6833 61.2125 47.9C60.6875 49.1167 59.975 50.175 59.075 51.075C58.175 51.975 57.1167 52.6875 55.9 53.2125C54.6833 53.7375 53.3833 54 52 54ZM52 52C54.2333 52 56.125 51.225 57.675 49.675C59.225 48.125 60 46.2333 60 44C60 41.7667 59.225 39.875 57.675 38.325C56.125 36.775 54.2333 36 52 36C49.7667 36 47.875 36.775 46.325 38.325C44.775 39.875 44 41.7667 44 44C44 46.2333 44.775 48.125 46.325 49.675C47.875 51.225 49.7667 52 52 52Z" fill="#1A1A1A"/>
<path d="M77.696 40.704V50H75.584V40.704H72.416V38.832H80.864V40.704H77.696ZM87.4843 50C87.0363 50 86.6789 49.872 86.4123 49.616C86.1563 49.3493 85.9963 48.9973 85.9323 48.56H85.8363C85.6976 49.104 85.4149 49.5147 84.9883 49.792C84.5616 50.0587 84.0336 50.192 83.4043 50.192C82.5509 50.192 81.8949 49.968 81.4363 49.52C80.9776 49.072 80.7483 48.4747 80.7483 47.728C80.7483 46.864 81.0576 46.224 81.6763 45.808C82.2949 45.3813 83.1749 45.168 84.3163 45.168H85.7403V44.56C85.7403 44.0907 85.6176 43.728 85.3723 43.472C85.1269 43.216 84.7323 43.088 84.1883 43.088C83.7083 43.088 83.3189 43.1947 83.0203 43.408C82.7323 43.6107 82.4869 43.856 82.2843 44.144L81.0683 43.056C81.3776 42.576 81.7883 42.192 82.3003 41.904C82.8123 41.6053 83.4896 41.456 84.3323 41.456C85.4629 41.456 86.3216 41.712 86.9083 42.224C87.4949 42.736 87.7883 43.472 87.7883 44.432V48.368H88.6203V50H87.4843ZM84.0923 48.704C84.5509 48.704 84.9403 48.6027 85.2603 48.4C85.5803 48.1973 85.7403 47.8987 85.7403 47.504V46.4H84.4283C83.3616 46.4 82.8283 46.7413 82.8283 47.424V47.696C82.8283 48.0373 82.9349 48.2933 83.1483 48.464C83.3723 48.624 83.6869 48.704 84.0923 48.704ZM90.2778 38.16H92.3258V45.296H92.4058L93.5098 43.792L95.3818 41.648H97.7018L94.8218 44.88L98.0058 50H95.5738L93.4298 46.256L92.3258 47.456V50H90.2778V38.16Z" fill="#1A1A1A"/>
<defs>
<clipPath id="clip0_14279_20824">
<path d="M16 24C16 19.5817 19.5817 16 24 16H40V72H24C19.5817 72 16 68.4183 16 64V24Z" fill="white"/>
</clipPath>
</defs>
</svg>
