<svg width="267" height="150" viewBox="0 0 267 150" fill="none" xmlns="http://www.w3.org/2000/svg">
<rect width="267" height="150" fill="#F5F5F5"/>
<rect x="16" y="16" width="80" height="4" rx="2" fill="#0059B3" fill-opacity="0.3"/>
<rect x="16" y="28" width="131" height="4" rx="2" fill="#0059B3" fill-opacity="0.3"/>
<rect x="16" y="40" width="131" height="4" rx="2" fill="#0059B3" fill-opacity="0.3"/>
<mask id="path-4-inside-1_13144_11141" fill="white">
<path d="M0 94H267V150H0V94Z"/>
</mask>
<path d="M0 94H267V150H0V94Z" fill="white"/>
<path d="M0 95H267V93H0V95Z" fill="#0059B3" mask="url(#path-4-inside-1_13144_11141)"/>
<rect x="16" y="110" width="67.6667" height="8" rx="4" fill="#0059B3"/>
<rect x="16" y="126" width="67.6667" height="8" rx="4" fill="#0059B3"/>
<rect x="99.6667" y="110" width="67.6667" height="8" rx="4" fill="#0059B3"/>
<rect x="99.6667" y="126" width="67.6667" height="8" rx="4" fill="#0059B3"/>
<rect x="183.333" y="110" width="67.6667" height="8" rx="4" fill="#0059B3"/>
<rect x="183.333" y="126" width="67.6667" height="8" rx="4" fill="#0059B3"/>
</svg>
