<svg width="267" height="150" viewBox="0 0 267 150" fill="none" xmlns="http://www.w3.org/2000/svg">
<mask id="path-1-inside-1_10643_18235" fill="white">
<path d="M0 0H267V150H0V0Z"/>
</mask>
<path d="M0 0H267V150H0V0Z" fill="#F5F5F5"/>
<path d="M267 149H0V151H267V149Z" fill="#F5F5F5" mask="url(#path-1-inside-1_10643_18235)"/>
<path d="M134 53C134 51.8954 133.101 50.9913 132.001 51.0821C119.681 52.0981 110 62.4185 110 75C110 88.2548 120.745 99 134 99C146.582 99 156.902 89.3187 157.918 76.9994C158.009 75.8986 157.105 75 156 75H154C152.895 75 152.012 75.8989 151.89 76.9968C150.897 85.9982 143.266 93 134 93C124.059 93 116 84.9411 116 75C116 65.7338 123.002 58.1029 132.003 57.1095C133.101 56.9883 134 56.1046 134 55V53Z" fill="#44831E"/>
</svg>
