<svg width="267" height="150" viewBox="0 0 267 150" fill="none" xmlns="http://www.w3.org/2000/svg">
<mask id="path-1-inside-1_10643_18239" fill="white">
<path d="M0 0H267V150H0V0Z"/>
</mask>
<path d="M0 0H267V150H0V0Z" fill="#F5F5F5"/>
<path d="M267 149H0V151H267V149Z" fill="#F5F5F5" mask="url(#path-1-inside-1_10643_18239)"/>
<rect x="61" y="28" width="22" height="22" rx="11" fill="white"/>
<rect x="61" y="28" width="22" height="22" rx="11" stroke="#44831E" stroke-width="2"/>
<circle cx="72" cy="39" r="6" fill="#44831E"/>
<rect x="61" y="64" width="22" height="22" rx="11" fill="white"/>
<rect x="61" y="64" width="22" height="22" rx="11" stroke="#44831E" stroke-width="2"/>
<rect x="61" y="100" width="22" height="22" rx="11" fill="white"/>
<rect x="61" y="100" width="22" height="22" rx="11" stroke="#44831E" stroke-width="2"/>
<rect x="92" y="35" width="115" height="8" rx="4" fill="#44831E"/>
<rect x="92" y="71" width="115" height="8" rx="4" fill="#44831E"/>
<rect x="92" y="107" width="115" height="8" rx="4" fill="#44831E"/>
</svg>
