<svg width="267" height="150" viewBox="0 0 267 150" fill="none" xmlns="http://www.w3.org/2000/svg">
<mask id="path-1-inside-1_13144_11120" fill="white">
<path d="M0 0H267V150H0V0Z"/>
</mask>
<path d="M0 0H267V150H0V0Z" fill="#F5F5F5"/>
<path d="M267 149H0V151H267V149Z" fill="#F5F5F5" mask="url(#path-1-inside-1_13144_11120)"/>
<g clip-path="url(#clip0_13144_11120)">
<mask id="path-3-inside-2_13144_11120" fill="white">
<path d="M16 24C16 19.5817 19.5817 16 24 16H243C247.418 16 251 19.5817 251 24V62C251 66.4183 247.418 70 243 70H24C19.5817 70 16 66.4183 16 62V24Z"/>
</mask>
<path d="M16 24C16 19.5817 19.5817 16 24 16H243C247.418 16 251 19.5817 251 24V62C251 66.4183 247.418 70 243 70H24C19.5817 70 16 66.4183 16 62V24Z" fill="white"/>
<rect x="32" y="35" width="16" height="16" rx="8" stroke="#0059B3" stroke-width="2"/>
<rect x="39" y="41.5" width="2" height="6" rx="1" fill="#0059B3"/>
<rect x="39" y="38.5" width="2" height="2" rx="1" fill="#0059B3"/>
<rect x="64" y="39" width="171" height="8" rx="4" fill="#0059B3"/>
<rect x="13" y="13" width="7" height="60" fill="#0059B3"/>
</g>
<path d="M24 17H243V15H24V17ZM250 24V62H252V24H250ZM243 69H24V71H243V69ZM17 62V24H15V62H17ZM24 69C20.134 69 17 65.866 17 62H15C15 66.9706 19.0294 71 24 71V69ZM250 62C250 65.866 246.866 69 243 69V71C247.971 71 252 66.9706 252 62H250ZM243 17C246.866 17 250 20.134 250 24H252C252 19.0294 247.971 15 243 15V17ZM24 15C19.0294 15 15 19.0294 15 24H17C17 20.134 20.134 17 24 17V15Z" fill="#0059B3" mask="url(#path-3-inside-2_13144_11120)"/>
<rect x="16" y="84" width="80" height="4" rx="2" fill="#0059B3" fill-opacity="0.3"/>
<rect x="16" y="96" width="131" height="4" rx="2" fill="#0059B3" fill-opacity="0.3"/>
<rect x="16" y="108" width="131" height="4" rx="2" fill="#0059B3" fill-opacity="0.3"/>
<defs>
<clipPath id="clip0_13144_11120">
<path d="M16 24C16 19.5817 19.5817 16 24 16H243C247.418 16 251 19.5817 251 24V62C251 66.4183 247.418 70 243 70H24C19.5817 70 16 66.4183 16 62V24Z" fill="white"/>
</clipPath>
</defs>
</svg>
