<svg width="267" height="150" viewBox="0 0 267 150" fill="none" xmlns="http://www.w3.org/2000/svg">
<mask id="path-1-inside-1_13144_11143" fill="white">
<path d="M0 0H267V150H0V0Z"/>
</mask>
<path d="M0 0H267V150H0V0Z" fill="#F5F5F5"/>
<path d="M267 149H0V151H267V149Z" fill="#F5F5F5" mask="url(#path-1-inside-1_13144_11143)"/>
<rect x="16" y="16" width="115" height="8" rx="4" fill="#0059B3"/>
<rect x="16" y="26" width="115" height="1" fill="#0059B3"/>
<mask id="path-5-inside-2_13144_11143" fill="white">
<path fill-rule="evenodd" clip-rule="evenodd" d="M77.3957 33.3595C76.6191 32.6028 75.381 32.6028 74.6043 33.3595L69.8413 38L65 38C60.5817 38 57 41.5817 57 46L57 98C57 102.418 60.5817 106 65 106L196 106C200.418 106 204 102.418 204 98V46C204 41.5817 200.418 38 196 38L82.1587 38L77.3957 33.3595Z"/>
</mask>
<path fill-rule="evenodd" clip-rule="evenodd" d="M77.3957 33.3595C76.6191 32.6028 75.381 32.6028 74.6043 33.3595L69.8413 38L65 38C60.5817 38 57 41.5817 57 46L57 98C57 102.418 60.5817 106 65 106L196 106C200.418 106 204 102.418 204 98V46C204 41.5817 200.418 38 196 38L82.1587 38L77.3957 33.3595Z" fill="white"/>
<path d="M74.6043 33.3595L75.3022 34.0757L75.3022 34.0757L74.6043 33.3595ZM77.3957 33.3595L76.6978 34.0757L76.6979 34.0757L77.3957 33.3595ZM69.8413 38L69.8413 39L70.2479 39L70.5391 38.7163L69.8413 38ZM65 38L65 39L65 38ZM57 46L58 46L57 46ZM57 98L56 98L57 98ZM65 106L65 105H65V106ZM196 106L196 107H196V106ZM196 38L196 39H196V38ZM82.1587 38L81.4609 38.7163L81.7521 39L82.1587 39L82.1587 38ZM75.3022 34.0757C75.6905 33.6974 76.3095 33.6974 76.6978 34.0757L78.0935 32.6432C76.9286 31.5082 75.0714 31.5083 73.9065 32.6432L75.3022 34.0757ZM70.5391 38.7163L75.3022 34.0757L73.9065 32.6432L69.1435 37.2837L70.5391 38.7163ZM65 39L69.8413 39L69.8413 37L65 37L65 39ZM58 46C58 42.134 61.134 39 65 39L65 37C60.0294 37 56 41.0294 56 46L58 46ZM58 98L58 46L56 46L56 98L58 98ZM65 105C61.134 105 58 101.866 58 98L56 98C56 102.971 60.0294 107 65 107V105ZM196 105L65 105L65 107L196 107L196 105ZM203 98C203 101.866 199.866 105 196 105V107C200.971 107 205 102.971 205 98H203ZM203 46V98H205V46H203ZM196 39C199.866 39 203 42.134 203 46H205C205 41.0295 200.971 37 196 37V39ZM82.1587 39L196 39L196 37L82.1587 37L82.1587 39ZM76.6979 34.0757L81.4609 38.7163L82.8566 37.2837L78.0935 32.6432L76.6979 34.0757Z" fill="#0059B3" mask="url(#path-5-inside-2_13144_11143)"/>
<rect x="73" y="54" width="115" height="4" rx="2" fill="#0059B3"/>
<rect x="73" y="70" width="115" height="4" rx="2" fill="#0059B3"/>
<rect x="73" y="86" width="115" height="4" rx="2" fill="#0059B3"/>
</svg>
