<svg width="418" height="236" viewBox="0 0 418 236" fill="none" xmlns="http://www.w3.org/2000/svg">
<g clip-path="url(#clip0_5010_49188)">
<rect width="418" height="236" fill="white"/>
<rect width="1366" height="85" transform="translate(-627)" fill="white"/>
<path d="M-627 54.5H739" stroke="#707070"/>
<path d="M-86.752 24.016V34H-88.096V24.016H-91.648V22.832H-83.2V24.016H-86.752ZM-82.2025 34V25.744H-80.9225V27.264H-80.8425C-80.6932 26.8693 -80.4265 26.5173 -80.0425 26.208C-79.6585 25.8987 -79.1305 25.744 -78.4585 25.744H-77.9625V27.024H-78.7145C-79.4078 27.024 -79.9518 27.1573 -80.3465 27.424C-80.7305 27.68 -80.9225 28.0053 -80.9225 28.4V34H-82.2025ZM-73.3016 34.192C-73.867 34.192 -74.379 34.0907 -74.8376 33.888C-75.2856 33.6853 -75.675 33.3973 -76.0056 33.024C-76.3256 32.64 -76.5763 32.1867 -76.7576 31.664C-76.9283 31.1307 -77.0136 30.5333 -77.0136 29.872C-77.0136 29.2213 -76.9283 28.6293 -76.7576 28.096C-76.5763 27.5627 -76.3256 27.1093 -76.0056 26.736C-75.675 26.352 -75.2856 26.0587 -74.8376 25.856C-74.379 25.6533 -73.867 25.552 -73.3016 25.552C-72.747 25.552 -72.251 25.6533 -71.8136 25.856C-71.3763 26.0587 -71.003 26.3413 -70.6936 26.704C-70.3843 27.056 -70.1496 27.4773 -69.9896 27.968C-69.819 28.4587 -69.7336 28.9973 -69.7336 29.584V30.192H-75.6696V30.576C-75.6696 30.928 -75.6163 31.2587 -75.5096 31.568C-75.3923 31.8667 -75.2323 32.128 -75.0296 32.352C-74.8163 32.576 -74.5603 32.752 -74.2616 32.88C-73.9523 33.008 -73.6056 33.072 -73.2216 33.072C-72.699 33.072 -72.2456 32.9493 -71.8616 32.704C-71.467 32.4587 -71.163 32.1067 -70.9496 31.648L-70.0376 32.304C-70.3043 32.8693 -70.7203 33.328 -71.2856 33.68C-71.851 34.0213 -72.523 34.192 -73.3016 34.192ZM-73.3016 26.624C-73.6536 26.624 -73.9736 26.688 -74.2616 26.816C-74.5496 26.9333 -74.8003 27.104 -75.0136 27.328C-75.2163 27.552 -75.3763 27.8187 -75.4936 28.128C-75.611 28.4267 -75.6696 28.7573 -75.6696 29.12V29.232H-71.1096V29.056C-71.1096 28.32 -71.3123 27.7333 -71.7176 27.296C-72.1123 26.848 -72.6403 26.624 -73.3016 26.624ZM-62.3444 32.656H-62.4084C-62.9097 33.68 -63.715 34.192 -64.8244 34.192C-65.3364 34.192 -65.8004 34.0907 -66.2164 33.888C-66.6324 33.6853 -66.9897 33.3973 -67.2884 33.024C-67.5764 32.6507 -67.8004 32.1973 -67.9604 31.664C-68.1097 31.1307 -68.1844 30.5333 -68.1844 29.872C-68.1844 29.2107 -68.1097 28.6133 -67.9604 28.08C-67.8004 27.5467 -67.5764 27.0933 -67.2884 26.72C-66.9897 26.3467 -66.6324 26.0587 -66.2164 25.856C-65.8004 25.6533 -65.3364 25.552 -64.8244 25.552C-64.2484 25.552 -63.7577 25.68 -63.3524 25.936C-62.9364 26.1813 -62.6217 26.5653 -62.4084 27.088H-62.3444V22.16H-61.0644V34H-62.3444V32.656ZM-64.4724 33.04C-64.1844 33.04 -63.9124 33.0027 -63.6564 32.928C-63.3897 32.8533 -63.1604 32.7467 -62.9684 32.608C-62.7764 32.4587 -62.627 32.2827 -62.5204 32.08C-62.403 31.8667 -62.3444 31.6267 -62.3444 31.36V28.288C-62.3444 28.064 -62.403 27.856 -62.5204 27.664C-62.627 27.4613 -62.7764 27.2907 -62.9684 27.152C-63.1604 27.0133 -63.3897 26.9067 -63.6564 26.832C-63.9124 26.7467 -64.1844 26.704 -64.4724 26.704C-65.1977 26.704 -65.7684 26.9333 -66.1844 27.392C-66.6004 27.84 -66.8084 28.432 -66.8084 29.168V30.576C-66.8084 31.312 -66.6004 31.9093 -66.1844 32.368C-65.7684 32.816 -65.1977 33.04 -64.4724 33.04ZM-58.3431 25.744H-57.0631V35.28C-57.0631 35.856 -57.2071 36.32 -57.4951 36.672C-57.7831 37.024 -58.2365 37.2 -58.8551 37.2H-59.6871V36.08H-58.3431V25.744ZM-57.7031 23.808C-57.9805 23.808 -58.1831 23.744 -58.3111 23.616C-58.4285 23.4773 -58.4871 23.3013 -58.4871 23.088V22.88C-58.4871 22.6667 -58.4285 22.496 -58.3111 22.368C-58.1831 22.2293 -57.9805 22.16 -57.7031 22.16C-57.4258 22.16 -57.2285 22.2293 -57.1111 22.368C-56.9831 22.496 -56.9191 22.6667 -56.9191 22.88V23.088C-56.9191 23.3013 -56.9831 23.4773 -57.1111 23.616C-57.2285 23.744 -57.4258 23.808 -57.7031 23.808ZM-51.2391 34.192C-51.8045 34.192 -52.3165 34.0907 -52.7751 33.888C-53.2231 33.6853 -53.6125 33.3973 -53.9431 33.024C-54.2631 32.64 -54.5138 32.1867 -54.6951 31.664C-54.8658 31.1307 -54.9511 30.5333 -54.9511 29.872C-54.9511 29.2213 -54.8658 28.6293 -54.6951 28.096C-54.5138 27.5627 -54.2631 27.1093 -53.9431 26.736C-53.6125 26.352 -53.2231 26.0587 -52.7751 25.856C-52.3165 25.6533 -51.8045 25.552 -51.2391 25.552C-50.6845 25.552 -50.1885 25.6533 -49.7511 25.856C-49.3138 26.0587 -48.9405 26.3413 -48.6311 26.704C-48.3218 27.056 -48.0871 27.4773 -47.9271 27.968C-47.7565 28.4587 -47.6711 28.9973 -47.6711 29.584V30.192H-53.6071V30.576C-53.6071 30.928 -53.5538 31.2587 -53.4471 31.568C-53.3298 31.8667 -53.1698 32.128 -52.9671 32.352C-52.7538 32.576 -52.4978 32.752 -52.1991 32.88C-51.8898 33.008 -51.5431 33.072 -51.1591 33.072C-50.6365 33.072 -50.1831 32.9493 -49.7991 32.704C-49.4045 32.4587 -49.1005 32.1067 -48.8871 31.648L-47.9751 32.304C-48.2418 32.8693 -48.6578 33.328 -49.2231 33.68C-49.7885 34.0213 -50.4605 34.192 -51.2391 34.192ZM-51.2391 26.624C-51.5911 26.624 -51.9111 26.688 -52.1991 26.816C-52.4871 26.9333 -52.7378 27.104 -52.9511 27.328C-53.1538 27.552 -53.3138 27.8187 -53.4311 28.128C-53.5485 28.4267 -53.6071 28.7573 -53.6071 29.12V29.232H-49.0471V29.056C-49.0471 28.32 -49.2498 27.7333 -49.6551 27.296C-50.0498 26.848 -50.5778 26.624 -51.2391 26.624ZM-41.7806 34V25.744H-40.5006V27.088H-40.4366C-40.3406 26.8747 -40.234 26.6773 -40.1166 26.496C-39.9886 26.304 -39.8393 26.1387 -39.6686 26C-39.4873 25.8613 -39.2793 25.7547 -39.0446 25.68C-38.81 25.5947 -38.5326 25.552 -38.2126 25.552C-37.6686 25.552 -37.1673 25.6853 -36.7086 25.952C-36.25 26.208 -35.9086 26.6347 -35.6846 27.232H-35.6526C-35.5033 26.784 -35.226 26.3947 -34.8206 26.064C-34.4046 25.7227 -33.8446 25.552 -33.1406 25.552C-32.298 25.552 -31.642 25.8293 -31.1726 26.384C-30.6926 26.928 -30.4526 27.7013 -30.4526 28.704V34H-31.7326V28.928C-31.7326 28.192 -31.8766 27.6373 -32.1646 27.264C-32.4526 26.8907 -32.9113 26.704 -33.5406 26.704C-33.7966 26.704 -34.042 26.736 -34.2766 26.8C-34.5006 26.864 -34.7033 26.96 -34.8846 27.088C-35.066 27.216 -35.21 27.3813 -35.3166 27.584C-35.4233 27.776 -35.4766 28.0053 -35.4766 28.272V34H-36.7566V28.928C-36.7566 28.192 -36.9006 27.6373 -37.1886 27.264C-37.4766 26.8907 -37.9246 26.704 -38.5326 26.704C-38.7886 26.704 -39.034 26.736 -39.2686 26.8C-39.5033 26.864 -39.7113 26.96 -39.8926 27.088C-40.074 27.216 -40.2233 27.3813 -40.3406 27.584C-40.4473 27.776 -40.5006 28.0053 -40.5006 28.272V34H-41.7806ZM-24.7079 34.192C-25.2732 34.192 -25.7852 34.0907 -26.2439 33.888C-26.6919 33.6853 -27.0812 33.3973 -27.4119 33.024C-27.7319 32.64 -27.9825 32.1867 -28.1639 31.664C-28.3345 31.1307 -28.4199 30.5333 -28.4199 29.872C-28.4199 29.2213 -28.3345 28.6293 -28.1639 28.096C-27.9825 27.5627 -27.7319 27.1093 -27.4119 26.736C-27.0812 26.352 -26.6919 26.0587 -26.2439 25.856C-25.7852 25.6533 -25.2732 25.552 -24.7079 25.552C-24.1532 25.552 -23.6572 25.6533 -23.2199 25.856C-22.7825 26.0587 -22.4092 26.3413 -22.0999 26.704C-21.7905 27.056 -21.5559 27.4773 -21.3959 27.968C-21.2252 28.4587 -21.1399 28.9973 -21.1399 29.584V30.192H-27.0759V30.576C-27.0759 30.928 -27.0225 31.2587 -26.9159 31.568C-26.7985 31.8667 -26.6385 32.128 -26.4359 32.352C-26.2225 32.576 -25.9665 32.752 -25.6679 32.88C-25.3585 33.008 -25.0119 33.072 -24.6279 33.072C-24.1052 33.072 -23.6519 32.9493 -23.2679 32.704C-22.8732 32.4587 -22.5692 32.1067 -22.3559 31.648L-21.4439 32.304C-21.7105 32.8693 -22.1265 33.328 -22.6919 33.68C-23.2572 34.0213 -23.9292 34.192 -24.7079 34.192ZM-24.7079 26.624C-25.0599 26.624 -25.3799 26.688 -25.6679 26.816C-25.9559 26.9333 -26.2065 27.104 -26.4199 27.328C-26.6225 27.552 -26.7825 27.8187 -26.8999 28.128C-27.0172 28.4267 -27.0759 28.7573 -27.0759 29.12V29.232H-22.5159V29.056C-22.5159 28.32 -22.7185 27.7333 -23.1239 27.296C-23.5185 26.848 -24.0465 26.624 -24.7079 26.624ZM-19.0306 34V25.744H-17.7506V27.088H-17.6866C-17.484 26.6187 -17.2013 26.2453 -16.8386 25.968C-16.4653 25.6907 -15.9693 25.552 -15.3506 25.552C-14.4973 25.552 -13.8253 25.8293 -13.3346 26.384C-12.8333 26.928 -12.5826 27.7013 -12.5826 28.704V34H-13.8626V28.928C-13.8626 27.4453 -14.4866 26.704 -15.7346 26.704C-15.9906 26.704 -16.2413 26.736 -16.4866 26.8C-16.7213 26.864 -16.9346 26.96 -17.1266 27.088C-17.3186 27.216 -17.4733 27.3813 -17.5906 27.584C-17.6973 27.776 -17.7506 28.0053 -17.7506 28.272V34H-19.0306ZM-4.84887 32.656H-4.91287C-4.99821 32.848 -5.10487 33.04 -5.23287 33.232C-5.35021 33.4133 -5.49954 33.5787 -5.68087 33.728C-5.86221 33.8667 -6.08087 33.9787 -6.33687 34.064C-6.59287 34.1493 -6.89154 34.192 -7.23287 34.192C-8.08621 34.192 -8.76354 33.92 -9.26487 33.376C-9.76621 32.8213 -10.0169 32.0427 -10.0169 31.04V25.744H-8.73687V30.816C-8.73687 32.2987 -8.10754 33.04 -6.84887 33.04C-6.59287 33.04 -6.34754 33.008 -6.11287 32.944C-5.86754 32.88 -5.65421 32.784 -5.47287 32.656C-5.28087 32.528 -5.13154 32.368 -5.02487 32.176C-4.90754 31.9733 -4.84887 31.7333 -4.84887 31.456V25.744H-3.56887V34H-4.84887V32.656ZM-0.843125 25.744H0.436875V27.088H0.500875C0.714209 26.5653 1.02354 26.1813 1.42888 25.936C1.84488 25.68 2.34088 25.552 2.91688 25.552C3.42888 25.552 3.89288 25.6533 4.30888 25.856C4.72488 26.0587 5.07688 26.3467 5.36488 26.72C5.66354 27.0933 5.88754 27.5467 6.03688 28.08C6.19688 28.6133 6.27688 29.2107 6.27688 29.872C6.27688 30.5333 6.19688 31.1307 6.03688 31.664C5.88754 32.1973 5.66354 32.6507 5.36488 33.024C5.07688 33.3973 4.72488 33.6853 4.30888 33.888C3.89288 34.0907 3.42888 34.192 2.91688 34.192C1.79688 34.192 0.991542 33.68 0.500875 32.656H0.436875V37.2H-0.843125V25.744ZM2.56488 33.04C3.29021 33.04 3.86088 32.816 4.27688 32.368C4.69288 31.9093 4.90088 31.312 4.90088 30.576V29.168C4.90088 28.432 4.69288 27.84 4.27688 27.392C3.86088 26.9333 3.29021 26.704 2.56488 26.704C2.27688 26.704 1.99954 26.7467 1.73288 26.832C1.47688 26.9067 1.25288 27.0133 1.06088 27.152C0.868875 27.2907 0.714208 27.4613 0.596875 27.664C0.490208 27.856 0.436875 28.064 0.436875 28.288V31.36C0.436875 31.6267 0.490208 31.8667 0.596875 32.08C0.714208 32.2827 0.868875 32.4587 1.06088 32.608C1.25288 32.7467 1.47688 32.8533 1.73288 32.928C1.99954 33.0027 2.27688 33.04 2.56488 33.04ZM13.5261 32.656H13.4621C13.3768 32.848 13.2701 33.04 13.1421 33.232C13.0248 33.4133 12.8755 33.5787 12.6941 33.728C12.5128 33.8667 12.2941 33.9787 12.0381 34.064C11.7821 34.1493 11.4835 34.192 11.1421 34.192C10.2888 34.192 9.61146 33.92 9.11013 33.376C8.60879 32.8213 8.35813 32.0427 8.35813 31.04V25.744H9.63813V30.816C9.63813 32.2987 10.2675 33.04 11.5261 33.04C11.7821 33.04 12.0275 33.008 12.2621 32.944C12.5075 32.88 12.7208 32.784 12.9021 32.656C13.0941 32.528 13.2435 32.368 13.3501 32.176C13.4675 31.9733 13.5261 31.7333 13.5261 31.456V25.744H14.8061V34H13.5261V32.656ZM17.5319 34V25.744H18.8119V27.088H18.8759C19.0785 26.6187 19.3612 26.2453 19.7239 25.968C20.0972 25.6907 20.5932 25.552 21.2119 25.552C22.0652 25.552 22.7372 25.8293 23.2279 26.384C23.7292 26.928 23.9799 27.7013 23.9799 28.704V34H22.6999V28.928C22.6999 27.4453 22.0759 26.704 20.8279 26.704C20.5719 26.704 20.3212 26.736 20.0759 26.8C19.8412 26.864 19.6279 26.96 19.4359 27.088C19.2439 27.216 19.0892 27.3813 18.9719 27.584C18.8652 27.776 18.8119 28.0053 18.8119 28.272V34H17.5319ZM26.6256 22.16H27.9056V29.664H27.9696L29.2336 28.256L31.5696 25.744H33.1216L30.0656 29.008L33.4256 34H31.8736L29.1376 29.792L27.9056 31.056V34H26.6256V22.16ZM36.7309 34C36.2829 34 35.9415 33.8773 35.7069 33.632C35.4829 33.376 35.3709 33.0453 35.3709 32.64V26.864H34.0109V25.744H34.7789C35.0562 25.744 35.2429 25.6907 35.3389 25.584C35.4455 25.4667 35.4989 25.2693 35.4989 24.992V23.456H36.6509V25.744H38.4589V26.864H36.6509V32.88H38.3309V34H36.7309Z" fill="#1A1A1A"/>
<path d="M74.192 24.592H74.112L73.168 26.464L70.496 31.328L67.824 26.464L66.88 24.592H66.8V34H65.488V22.832H67.28L70.48 28.848H70.56L73.776 22.832H75.504V34H74.192V24.592ZM81.4484 34.192C80.883 34.192 80.371 34.0907 79.9124 33.888C79.4644 33.6853 79.075 33.3973 78.7444 33.024C78.4244 32.64 78.1737 32.1867 77.9924 31.664C77.8217 31.1307 77.7364 30.5333 77.7364 29.872C77.7364 29.2213 77.8217 28.6293 77.9924 28.096C78.1737 27.5627 78.4244 27.1093 78.7444 26.736C79.075 26.352 79.4644 26.0587 79.9124 25.856C80.371 25.6533 80.883 25.552 81.4484 25.552C82.003 25.552 82.499 25.6533 82.9364 25.856C83.3737 26.0587 83.747 26.3413 84.0564 26.704C84.3657 27.056 84.6004 27.4773 84.7604 27.968C84.931 28.4587 85.0164 28.9973 85.0164 29.584V30.192H79.0804V30.576C79.0804 30.928 79.1337 31.2587 79.2404 31.568C79.3577 31.8667 79.5177 32.128 79.7204 32.352C79.9337 32.576 80.1897 32.752 80.4884 32.88C80.7977 33.008 81.1444 33.072 81.5284 33.072C82.051 33.072 82.5044 32.9493 82.8884 32.704C83.283 32.4587 83.587 32.1067 83.8004 31.648L84.7124 32.304C84.4457 32.8693 84.0297 33.328 83.4644 33.68C82.899 34.0213 82.227 34.192 81.4484 34.192ZM81.4484 26.624C81.0964 26.624 80.7764 26.688 80.4884 26.816C80.2004 26.9333 79.9497 27.104 79.7364 27.328C79.5337 27.552 79.3737 27.8187 79.2564 28.128C79.139 28.4267 79.0804 28.7573 79.0804 29.12V29.232H83.6404V29.056C83.6404 28.32 83.4377 27.7333 83.0324 27.296C82.6377 26.848 82.1097 26.624 81.4484 26.624ZM87.1256 34V25.744H88.4056V27.088H88.4696C88.6723 26.6187 88.955 26.2453 89.3176 25.968C89.691 25.6907 90.187 25.552 90.8056 25.552C91.659 25.552 92.331 25.8293 92.8216 26.384C93.323 26.928 93.5736 27.7013 93.5736 28.704V34H92.2936V28.928C92.2936 27.4453 91.6696 26.704 90.4216 26.704C90.1656 26.704 89.915 26.736 89.6696 26.8C89.435 26.864 89.2216 26.96 89.0296 27.088C88.8376 27.216 88.683 27.3813 88.5656 27.584C88.459 27.776 88.4056 28.0053 88.4056 28.272V34H87.1256ZM101.307 32.656H101.243C101.158 32.848 101.051 33.04 100.923 33.232C100.806 33.4133 100.657 33.5787 100.475 33.728C100.294 33.8667 100.075 33.9787 99.8194 34.064C99.5634 34.1493 99.2647 34.192 98.9234 34.192C98.07 34.192 97.3927 33.92 96.8914 33.376C96.39 32.8213 96.1394 32.0427 96.1394 31.04V25.744H97.4194V30.816C97.4194 32.2987 98.0487 33.04 99.3074 33.04C99.5634 33.04 99.8087 33.008 100.043 32.944C100.289 32.88 100.502 32.784 100.683 32.656C100.875 32.528 101.025 32.368 101.131 32.176C101.249 31.9733 101.307 31.7333 101.307 31.456V25.744H102.587V34H101.307V32.656ZM105.313 25.744H106.593V27.088H106.657C106.87 26.5653 107.18 26.1813 107.585 25.936C108.001 25.68 108.497 25.552 109.073 25.552C109.585 25.552 110.049 25.6533 110.465 25.856C110.881 26.0587 111.233 26.3467 111.521 26.72C111.82 27.0933 112.044 27.5467 112.193 28.08C112.353 28.6133 112.433 29.2107 112.433 29.872C112.433 30.5333 112.353 31.1307 112.193 31.664C112.044 32.1973 111.82 32.6507 111.521 33.024C111.233 33.3973 110.881 33.6853 110.465 33.888C110.049 34.0907 109.585 34.192 109.073 34.192C107.953 34.192 107.148 33.68 106.657 32.656H106.593V37.2H105.313V25.744ZM108.721 33.04C109.446 33.04 110.017 32.816 110.433 32.368C110.849 31.9093 111.057 31.312 111.057 30.576V29.168C111.057 28.432 110.849 27.84 110.433 27.392C110.017 26.9333 109.446 26.704 108.721 26.704C108.433 26.704 108.156 26.7467 107.889 26.832C107.633 26.9067 107.409 27.0133 107.217 27.152C107.025 27.2907 106.87 27.4613 106.753 27.664C106.646 27.856 106.593 28.064 106.593 28.288V31.36C106.593 31.6267 106.646 31.8667 106.753 32.08C106.87 32.2827 107.025 32.4587 107.217 32.608C107.409 32.7467 107.633 32.8533 107.889 32.928C108.156 33.0027 108.433 33.04 108.721 33.04ZM119.682 32.656H119.618C119.533 32.848 119.426 33.04 119.298 33.232C119.181 33.4133 119.032 33.5787 118.85 33.728C118.669 33.8667 118.45 33.9787 118.194 34.064C117.938 34.1493 117.64 34.192 117.298 34.192C116.445 34.192 115.768 33.92 115.266 33.376C114.765 32.8213 114.514 32.0427 114.514 31.04V25.744H115.794V30.816C115.794 32.2987 116.424 33.04 117.682 33.04C117.938 33.04 118.184 33.008 118.418 32.944C118.664 32.88 118.877 32.784 119.058 32.656C119.25 32.528 119.4 32.368 119.506 32.176C119.624 31.9733 119.682 31.7333 119.682 31.456V25.744H120.962V34H119.682V32.656ZM123.688 34V25.744H124.968V27.088H125.032C125.235 26.6187 125.517 26.2453 125.88 25.968C126.253 25.6907 126.749 25.552 127.368 25.552C128.221 25.552 128.893 25.8293 129.384 26.384C129.885 26.928 130.136 27.7013 130.136 28.704V34H128.856V28.928C128.856 27.4453 128.232 26.704 126.984 26.704C126.728 26.704 126.477 26.736 126.232 26.8C125.997 26.864 125.784 26.96 125.592 27.088C125.4 27.216 125.245 27.3813 125.128 27.584C125.021 27.776 124.968 28.0053 124.968 28.272V34H123.688ZM132.782 22.16H134.062V29.664H134.126L135.39 28.256L137.726 25.744H139.278L136.222 29.008L139.582 34H138.03L135.294 29.792L134.062 31.056V34H132.782V22.16ZM142.887 34C142.439 34 142.098 33.8773 141.863 33.632C141.639 33.376 141.527 33.0453 141.527 32.64V26.864H140.167V25.744H140.935C141.212 25.744 141.399 25.6907 141.495 25.584C141.602 25.4667 141.655 25.2693 141.655 24.992V23.456H142.807V25.744H144.615V26.864H142.807V32.88H144.487V34H142.887Z" fill="#1A1A1A"/>
<path d="M180.192 24.592H180.112L179.168 26.464L176.496 31.328L173.824 26.464L172.88 24.592H172.8V34H171.488V22.832H173.28L176.48 28.848H176.56L179.776 22.832H181.504V34H180.192V24.592ZM187.448 34.192C186.883 34.192 186.371 34.0907 185.912 33.888C185.464 33.6853 185.075 33.3973 184.744 33.024C184.424 32.64 184.174 32.1867 183.992 31.664C183.822 31.1307 183.736 30.5333 183.736 29.872C183.736 29.2213 183.822 28.6293 183.992 28.096C184.174 27.5627 184.424 27.1093 184.744 26.736C185.075 26.352 185.464 26.0587 185.912 25.856C186.371 25.6533 186.883 25.552 187.448 25.552C188.003 25.552 188.499 25.6533 188.936 25.856C189.374 26.0587 189.747 26.3413 190.056 26.704C190.366 27.056 190.6 27.4773 190.76 27.968C190.931 28.4587 191.016 28.9973 191.016 29.584V30.192H185.08V30.576C185.08 30.928 185.134 31.2587 185.24 31.568C185.358 31.8667 185.518 32.128 185.72 32.352C185.934 32.576 186.19 32.752 186.488 32.88C186.798 33.008 187.144 33.072 187.528 33.072C188.051 33.072 188.504 32.9493 188.888 32.704C189.283 32.4587 189.587 32.1067 189.8 31.648L190.712 32.304C190.446 32.8693 190.03 33.328 189.464 33.68C188.899 34.0213 188.227 34.192 187.448 34.192ZM187.448 26.624C187.096 26.624 186.776 26.688 186.488 26.816C186.2 26.9333 185.95 27.104 185.736 27.328C185.534 27.552 185.374 27.8187 185.256 28.128C185.139 28.4267 185.08 28.7573 185.08 29.12V29.232H189.64V29.056C189.64 28.32 189.438 27.7333 189.032 27.296C188.638 26.848 188.11 26.624 187.448 26.624ZM193.126 34V25.744H194.406V27.088H194.47C194.672 26.6187 194.955 26.2453 195.318 25.968C195.691 25.6907 196.187 25.552 196.806 25.552C197.659 25.552 198.331 25.8293 198.822 26.384C199.323 26.928 199.574 27.7013 199.574 28.704V34H198.294V28.928C198.294 27.4453 197.67 26.704 196.422 26.704C196.166 26.704 195.915 26.736 195.67 26.8C195.435 26.864 195.222 26.96 195.03 27.088C194.838 27.216 194.683 27.3813 194.566 27.584C194.459 27.776 194.406 28.0053 194.406 28.272V34H193.126ZM207.307 32.656H207.243C207.158 32.848 207.051 33.04 206.923 33.232C206.806 33.4133 206.657 33.5787 206.475 33.728C206.294 33.8667 206.075 33.9787 205.819 34.064C205.563 34.1493 205.265 34.192 204.923 34.192C204.07 34.192 203.393 33.92 202.891 33.376C202.39 32.8213 202.139 32.0427 202.139 31.04V25.744H203.419V30.816C203.419 32.2987 204.049 33.04 205.307 33.04C205.563 33.04 205.809 33.008 206.043 32.944C206.289 32.88 206.502 32.784 206.683 32.656C206.875 32.528 207.025 32.368 207.131 32.176C207.249 31.9733 207.307 31.7333 207.307 31.456V25.744H208.587V34H207.307V32.656ZM211.313 25.744H212.593V27.088H212.657C212.87 26.5653 213.18 26.1813 213.585 25.936C214.001 25.68 214.497 25.552 215.073 25.552C215.585 25.552 216.049 25.6533 216.465 25.856C216.881 26.0587 217.233 26.3467 217.521 26.72C217.82 27.0933 218.044 27.5467 218.193 28.08C218.353 28.6133 218.433 29.2107 218.433 29.872C218.433 30.5333 218.353 31.1307 218.193 31.664C218.044 32.1973 217.82 32.6507 217.521 33.024C217.233 33.3973 216.881 33.6853 216.465 33.888C216.049 34.0907 215.585 34.192 215.073 34.192C213.953 34.192 213.148 33.68 212.657 32.656H212.593V37.2H211.313V25.744ZM214.721 33.04C215.446 33.04 216.017 32.816 216.433 32.368C216.849 31.9093 217.057 31.312 217.057 30.576V29.168C217.057 28.432 216.849 27.84 216.433 27.392C216.017 26.9333 215.446 26.704 214.721 26.704C214.433 26.704 214.156 26.7467 213.889 26.832C213.633 26.9067 213.409 27.0133 213.217 27.152C213.025 27.2907 212.87 27.4613 212.753 27.664C212.646 27.856 212.593 28.064 212.593 28.288V31.36C212.593 31.6267 212.646 31.8667 212.753 32.08C212.87 32.2827 213.025 32.4587 213.217 32.608C213.409 32.7467 213.633 32.8533 213.889 32.928C214.156 33.0027 214.433 33.04 214.721 33.04ZM225.682 32.656H225.618C225.533 32.848 225.426 33.04 225.298 33.232C225.181 33.4133 225.032 33.5787 224.85 33.728C224.669 33.8667 224.45 33.9787 224.194 34.064C223.938 34.1493 223.64 34.192 223.298 34.192C222.445 34.192 221.768 33.92 221.266 33.376C220.765 32.8213 220.514 32.0427 220.514 31.04V25.744H221.794V30.816C221.794 32.2987 222.424 33.04 223.682 33.04C223.938 33.04 224.184 33.008 224.418 32.944C224.664 32.88 224.877 32.784 225.058 32.656C225.25 32.528 225.4 32.368 225.506 32.176C225.624 31.9733 225.682 31.7333 225.682 31.456V25.744H226.962V34H225.682V32.656ZM229.688 34V25.744H230.968V27.088H231.032C231.235 26.6187 231.517 26.2453 231.88 25.968C232.253 25.6907 232.749 25.552 233.368 25.552C234.221 25.552 234.893 25.8293 235.384 26.384C235.885 26.928 236.136 27.7013 236.136 28.704V34H234.856V28.928C234.856 27.4453 234.232 26.704 232.984 26.704C232.728 26.704 232.477 26.736 232.232 26.8C231.997 26.864 231.784 26.96 231.592 27.088C231.4 27.216 231.245 27.3813 231.128 27.584C231.021 27.776 230.968 28.0053 230.968 28.272V34H229.688ZM238.782 22.16H240.062V29.664H240.126L241.39 28.256L243.726 25.744H245.278L242.222 29.008L245.582 34H244.03L241.294 29.792L240.062 31.056V34H238.782V22.16ZM248.887 34C248.439 34 248.098 33.8773 247.863 33.632C247.639 33.376 247.527 33.0453 247.527 32.64V26.864H246.167V25.744H246.935C247.212 25.744 247.399 25.6907 247.495 25.584C247.602 25.4667 247.655 25.2693 247.655 24.992V23.456H248.807V25.744H250.615V26.864H248.807V32.88H250.487V34H248.887Z" fill="#1A1A1A"/>
<path d="M286.192 24.592H286.112L285.168 26.464L282.496 31.328L279.824 26.464L278.88 24.592H278.8V34H277.488V22.832H279.28L282.48 28.848H282.56L285.776 22.832H287.504V34H286.192V24.592ZM293.448 34.192C292.883 34.192 292.371 34.0907 291.912 33.888C291.464 33.6853 291.075 33.3973 290.744 33.024C290.424 32.64 290.174 32.1867 289.992 31.664C289.822 31.1307 289.736 30.5333 289.736 29.872C289.736 29.2213 289.822 28.6293 289.992 28.096C290.174 27.5627 290.424 27.1093 290.744 26.736C291.075 26.352 291.464 26.0587 291.912 25.856C292.371 25.6533 292.883 25.552 293.448 25.552C294.003 25.552 294.499 25.6533 294.936 25.856C295.374 26.0587 295.747 26.3413 296.056 26.704C296.366 27.056 296.6 27.4773 296.76 27.968C296.931 28.4587 297.016 28.9973 297.016 29.584V30.192H291.08V30.576C291.08 30.928 291.134 31.2587 291.24 31.568C291.358 31.8667 291.518 32.128 291.72 32.352C291.934 32.576 292.19 32.752 292.488 32.88C292.798 33.008 293.144 33.072 293.528 33.072C294.051 33.072 294.504 32.9493 294.888 32.704C295.283 32.4587 295.587 32.1067 295.8 31.648L296.712 32.304C296.446 32.8693 296.03 33.328 295.464 33.68C294.899 34.0213 294.227 34.192 293.448 34.192ZM293.448 26.624C293.096 26.624 292.776 26.688 292.488 26.816C292.2 26.9333 291.95 27.104 291.736 27.328C291.534 27.552 291.374 27.8187 291.256 28.128C291.139 28.4267 291.08 28.7573 291.08 29.12V29.232H295.64V29.056C295.64 28.32 295.438 27.7333 295.032 27.296C294.638 26.848 294.11 26.624 293.448 26.624ZM299.126 34V25.744H300.406V27.088H300.47C300.672 26.6187 300.955 26.2453 301.318 25.968C301.691 25.6907 302.187 25.552 302.806 25.552C303.659 25.552 304.331 25.8293 304.822 26.384C305.323 26.928 305.574 27.7013 305.574 28.704V34H304.294V28.928C304.294 27.4453 303.67 26.704 302.422 26.704C302.166 26.704 301.915 26.736 301.67 26.8C301.435 26.864 301.222 26.96 301.03 27.088C300.838 27.216 300.683 27.3813 300.566 27.584C300.459 27.776 300.406 28.0053 300.406 28.272V34H299.126ZM313.307 32.656H313.243C313.158 32.848 313.051 33.04 312.923 33.232C312.806 33.4133 312.657 33.5787 312.475 33.728C312.294 33.8667 312.075 33.9787 311.819 34.064C311.563 34.1493 311.265 34.192 310.923 34.192C310.07 34.192 309.393 33.92 308.891 33.376C308.39 32.8213 308.139 32.0427 308.139 31.04V25.744H309.419V30.816C309.419 32.2987 310.049 33.04 311.307 33.04C311.563 33.04 311.809 33.008 312.043 32.944C312.289 32.88 312.502 32.784 312.683 32.656C312.875 32.528 313.025 32.368 313.131 32.176C313.249 31.9733 313.307 31.7333 313.307 31.456V25.744H314.587V34H313.307V32.656ZM317.313 25.744H318.593V27.088H318.657C318.87 26.5653 319.18 26.1813 319.585 25.936C320.001 25.68 320.497 25.552 321.073 25.552C321.585 25.552 322.049 25.6533 322.465 25.856C322.881 26.0587 323.233 26.3467 323.521 26.72C323.82 27.0933 324.044 27.5467 324.193 28.08C324.353 28.6133 324.433 29.2107 324.433 29.872C324.433 30.5333 324.353 31.1307 324.193 31.664C324.044 32.1973 323.82 32.6507 323.521 33.024C323.233 33.3973 322.881 33.6853 322.465 33.888C322.049 34.0907 321.585 34.192 321.073 34.192C319.953 34.192 319.148 33.68 318.657 32.656H318.593V37.2H317.313V25.744ZM320.721 33.04C321.446 33.04 322.017 32.816 322.433 32.368C322.849 31.9093 323.057 31.312 323.057 30.576V29.168C323.057 28.432 322.849 27.84 322.433 27.392C322.017 26.9333 321.446 26.704 320.721 26.704C320.433 26.704 320.156 26.7467 319.889 26.832C319.633 26.9067 319.409 27.0133 319.217 27.152C319.025 27.2907 318.87 27.4613 318.753 27.664C318.646 27.856 318.593 28.064 318.593 28.288V31.36C318.593 31.6267 318.646 31.8667 318.753 32.08C318.87 32.2827 319.025 32.4587 319.217 32.608C319.409 32.7467 319.633 32.8533 319.889 32.928C320.156 33.0027 320.433 33.04 320.721 33.04ZM331.682 32.656H331.618C331.533 32.848 331.426 33.04 331.298 33.232C331.181 33.4133 331.032 33.5787 330.85 33.728C330.669 33.8667 330.45 33.9787 330.194 34.064C329.938 34.1493 329.64 34.192 329.298 34.192C328.445 34.192 327.768 33.92 327.266 33.376C326.765 32.8213 326.514 32.0427 326.514 31.04V25.744H327.794V30.816C327.794 32.2987 328.424 33.04 329.682 33.04C329.938 33.04 330.184 33.008 330.418 32.944C330.664 32.88 330.877 32.784 331.058 32.656C331.25 32.528 331.4 32.368 331.506 32.176C331.624 31.9733 331.682 31.7333 331.682 31.456V25.744H332.962V34H331.682V32.656ZM335.688 34V25.744H336.968V27.088H337.032C337.235 26.6187 337.517 26.2453 337.88 25.968C338.253 25.6907 338.749 25.552 339.368 25.552C340.221 25.552 340.893 25.8293 341.384 26.384C341.885 26.928 342.136 27.7013 342.136 28.704V34H340.856V28.928C340.856 27.4453 340.232 26.704 338.984 26.704C338.728 26.704 338.477 26.736 338.232 26.8C337.997 26.864 337.784 26.96 337.592 27.088C337.4 27.216 337.245 27.3813 337.128 27.584C337.021 27.776 336.968 28.0053 336.968 28.272V34H335.688ZM344.782 22.16H346.062V29.664H346.126L347.39 28.256L349.726 25.744H351.278L348.222 29.008L351.582 34H350.03L347.294 29.792L346.062 31.056V34H344.782V22.16ZM354.887 34C354.439 34 354.098 33.8773 353.863 33.632C353.639 33.376 353.527 33.0453 353.527 32.64V26.864H352.167V25.744H352.935C353.212 25.744 353.399 25.6907 353.495 25.584C353.602 25.4667 353.655 25.2693 353.655 24.992V23.456H354.807V25.744H356.615V26.864H354.807V32.88H356.487V34H354.887Z" fill="#1A1A1A"/>
<path d="M352 92C352 91.6044 352.117 91.2178 352.337 90.8889C352.557 90.56 352.869 90.3036 353.235 90.1522C353.6 90.0009 354.002 89.9613 354.39 90.0384C354.778 90.1156 355.135 90.3061 355.414 90.5858C355.694 90.8655 355.884 91.2219 355.962 91.6098C356.039 91.9978 355.999 92.3999 355.848 92.7654C355.696 93.1308 355.44 93.4432 355.111 93.6629C354.782 93.8827 354.396 94 354 94C353.47 94 352.961 93.7893 352.586 93.4142C352.211 93.0391 352 92.5304 352 92ZM352 86C352 85.6044 352.117 85.2178 352.337 84.8889C352.557 84.56 352.869 84.3036 353.235 84.1522C353.6 84.0009 354.002 83.9613 354.39 84.0384C354.778 84.1156 355.135 84.3061 355.414 84.5858C355.694 84.8655 355.884 85.2219 355.962 85.6098C356.039 85.9978 355.999 86.3999 355.848 86.7654C355.696 87.1308 355.44 87.4432 355.111 87.6629C354.782 87.8827 354.396 88 354 88C353.47 88 352.961 87.7893 352.586 87.4142C352.211 87.0391 352 86.5304 352 86ZM352 80C352 79.6044 352.117 79.2178 352.337 78.8889C352.557 78.56 352.869 78.3036 353.235 78.1522C353.6 78.0009 354.002 77.9613 354.39 78.0384C354.778 78.1156 355.135 78.3061 355.414 78.5858C355.694 78.8655 355.884 79.2219 355.962 79.6098C356.039 79.9978 355.999 80.3999 355.848 80.7654C355.696 81.1308 355.44 81.4432 355.111 81.6629C354.782 81.8827 354.396 82 354 82C353.47 82 352.961 81.7893 352.586 81.4142C352.211 81.0391 352 80.5304 352 80Z" fill="#1A1A1A"/>
<rect width="402" height="20" transform="translate(0 129)" fill="#DCDCDC"/>
<rect width="402" height="20" transform="translate(0 153)" fill="#DCDCDC"/>
<rect width="300" height="20" transform="translate(0 177)" fill="#DCDCDC"/>
<rect width="123" height="12" transform="translate(0 113)" fill="#DCDCDC"/>
<rect width="123" height="12" transform="translate(0 221)" fill="#DCDCDC"/>
</g>
<defs>
<clipPath id="clip0_5010_49188">
<rect width="418" height="236" fill="white"/>
</clipPath>
</defs>
</svg>
