<svg width="418" height="56" viewBox="0 0 418 56" fill="none" xmlns="http://www.w3.org/2000/svg">
<rect width="418" height="56" fill="white"/>
<path d="M16 20C16 17.7909 17.7909 16 20 16H95C97.2091 16 99 17.7909 99 20V36C99 38.2091 97.2091 40 95 40H20C17.7909 40 16 38.2091 16 36V20Z" fill="#454545"/>
<path d="M28.72 34.192C27.7813 34.192 26.9813 34.0213 26.32 33.68C25.6693 33.3387 25.1093 32.88 24.64 32.304L25.888 31.136C26.2827 31.616 26.7147 31.9787 27.184 32.224C27.664 32.4693 28.208 32.592 28.816 32.592C29.5307 32.592 30.0693 32.432 30.432 32.112C30.7947 31.792 30.976 31.36 30.976 30.816C30.976 30.3787 30.848 30.032 30.592 29.776C30.336 29.52 29.8827 29.328 29.232 29.2L28.24 29.024C27.152 28.8213 26.336 28.464 25.792 27.952C25.248 27.44 24.976 26.736 24.976 25.84C24.976 25.3493 25.0667 24.9067 25.248 24.512C25.44 24.1067 25.7013 23.7707 26.032 23.504C26.3733 23.2267 26.784 23.0133 27.264 22.864C27.744 22.7147 28.2827 22.64 28.88 22.64C29.7227 22.64 30.4533 22.7893 31.072 23.088C31.6907 23.376 32.2187 23.7973 32.656 24.352L31.392 25.472C31.104 25.0987 30.752 24.8 30.336 24.576C29.92 24.352 29.4027 24.24 28.784 24.24C28.144 24.24 27.648 24.368 27.296 24.624C26.944 24.88 26.768 25.2533 26.768 25.744C26.768 26.2133 26.912 26.5653 27.2 26.8C27.488 27.024 27.936 27.1947 28.544 27.312L29.536 27.52C30.656 27.7333 31.472 28.096 31.984 28.608C32.5067 29.12 32.768 29.824 32.768 30.72C32.768 31.2427 32.6773 31.7173 32.496 32.144C32.3147 32.5707 32.048 32.9387 31.696 33.248C31.3547 33.5467 30.9333 33.7813 30.432 33.952C29.9307 34.112 29.36 34.192 28.72 34.192ZM37.0833 34C36.4753 34 36.0166 33.8453 35.7073 33.536C35.3979 33.216 35.2433 32.768 35.2433 32.192V27.104H33.9473V25.68H34.6513C34.9393 25.68 35.1366 25.616 35.2433 25.488C35.3606 25.36 35.4193 25.152 35.4193 24.864V23.408H36.9873V25.68H38.7313V27.104H36.9873V32.576H38.6033V34H37.0833ZM46.719 34C46.2603 34 45.9083 33.872 45.663 33.616C45.4177 33.3493 45.2683 33.0133 45.215 32.608H45.135C44.975 33.1307 44.6817 33.5253 44.255 33.792C43.8283 34.0587 43.311 34.192 42.703 34.192C41.839 34.192 41.1723 33.968 40.703 33.52C40.2443 33.072 40.015 32.4693 40.015 31.712C40.015 30.88 40.3137 30.256 40.911 29.84C41.519 29.424 42.4043 29.216 43.567 29.216H45.071V28.512C45.071 28 44.9323 27.6053 44.655 27.328C44.3777 27.0507 43.9457 26.912 43.359 26.912C42.8683 26.912 42.4683 27.0187 42.159 27.232C41.8497 27.4453 41.5883 27.7173 41.375 28.048L40.335 27.104C40.6123 26.6347 41.0017 26.2507 41.503 25.952C42.0043 25.6427 42.6603 25.488 43.471 25.488C44.5483 25.488 45.375 25.7387 45.951 26.24C46.527 26.7413 46.815 27.4613 46.815 28.4V32.576H47.695V34H46.719ZM43.199 32.864C43.743 32.864 44.191 32.7467 44.543 32.512C44.895 32.2667 45.071 31.9413 45.071 31.536V30.336H43.599C42.3937 30.336 41.791 30.7093 41.791 31.456V31.744C41.791 32.1173 41.9137 32.4 42.159 32.592C42.415 32.7733 42.7617 32.864 43.199 32.864ZM49.4043 34V25.68H51.1483V27.28H51.2283C51.3456 26.8533 51.5909 26.48 51.9643 26.16C52.3376 25.84 52.8549 25.68 53.5163 25.68H53.9803V27.36H53.2923C52.5989 27.36 52.0656 27.472 51.6923 27.696C51.3296 27.92 51.1483 28.2507 51.1483 28.688V34H49.4043ZM57.8958 34C57.2878 34 56.8291 33.8453 56.5198 33.536C56.2104 33.216 56.0558 32.768 56.0558 32.192V27.104H54.7598V25.68H55.4638C55.7518 25.68 55.9491 25.616 56.0558 25.488C56.1731 25.36 56.2318 25.152 56.2318 24.864V23.408H57.7998V25.68H59.5438V27.104H57.7998V32.576H59.4158V34H57.8958ZM64.0755 34.192C63.2862 34.192 62.6248 34.0533 62.0915 33.776C61.5582 33.4987 61.0942 33.1147 60.6995 32.624L61.8195 31.6C62.1288 31.9733 62.4702 32.2667 62.8435 32.48C63.2275 32.6827 63.6702 32.784 64.1715 32.784C64.6835 32.784 65.0622 32.688 65.3075 32.496C65.5635 32.2933 65.6915 32.016 65.6915 31.664C65.6915 31.3973 65.6008 31.1733 65.4195 30.992C65.2488 30.8 64.9448 30.6773 64.5075 30.624L63.7395 30.528C62.8862 30.4213 62.2142 30.176 61.7235 29.792C61.2435 29.3973 61.0035 28.816 61.0035 28.048C61.0035 27.6427 61.0782 27.2853 61.2275 26.976C61.3768 26.656 61.5848 26.3893 61.8515 26.176C62.1288 25.952 62.4542 25.7813 62.8275 25.664C63.2115 25.5467 63.6328 25.488 64.0915 25.488C64.8382 25.488 65.4462 25.6053 65.9155 25.84C66.3955 26.0747 66.8222 26.4 67.1955 26.816L66.1235 27.84C65.9102 27.584 65.6275 27.3653 65.2755 27.184C64.9342 26.992 64.5395 26.896 64.0915 26.896C63.6115 26.896 63.2542 26.992 63.0195 27.184C62.7955 27.376 62.6835 27.6267 62.6835 27.936C62.6835 28.256 62.7848 28.496 62.9875 28.656C63.1902 28.816 63.5155 28.9333 63.9635 29.008L64.7315 29.104C65.6488 29.2427 66.3155 29.5147 66.7315 29.92C67.1582 30.3147 67.3715 30.848 67.3715 31.52C67.3715 31.9253 67.2915 32.2933 67.1315 32.624C66.9822 32.944 66.7635 33.2213 66.4755 33.456C66.1875 33.6907 65.8408 33.872 65.4355 34C65.0302 34.128 64.5768 34.192 64.0755 34.192ZM70.2218 24.192C69.8591 24.192 69.5924 24.1067 69.4218 23.936C69.2618 23.7653 69.1818 23.5467 69.1818 23.28V23.008C69.1818 22.7413 69.2618 22.5227 69.4218 22.352C69.5924 22.1813 69.8591 22.096 70.2218 22.096C70.5844 22.096 70.8458 22.1813 71.0058 22.352C71.1658 22.5227 71.2458 22.7413 71.2458 23.008V23.28C71.2458 23.5467 71.1658 23.7653 71.0058 23.936C70.8458 24.1067 70.5844 24.192 70.2218 24.192ZM69.3418 25.68H71.0858V34H69.3418V25.68ZM78.8081 32.624H78.7281C78.5468 33.1147 78.2481 33.4987 77.8321 33.776C77.4268 34.0533 76.9468 34.192 76.3921 34.192C75.3361 34.192 74.5201 33.8133 73.9441 33.056C73.3681 32.288 73.0801 31.216 73.0801 29.84C73.0801 28.464 73.3681 27.3973 73.9441 26.64C74.5201 25.872 75.3361 25.488 76.3921 25.488C76.9468 25.488 77.4268 25.6267 77.8321 25.904C78.2481 26.1707 78.5468 26.5547 78.7281 27.056H78.8081V22.16H80.5521V34H78.8081V32.624ZM76.9201 32.688C77.4535 32.688 77.9015 32.56 78.2641 32.304C78.6268 32.0373 78.8081 31.6907 78.8081 31.264V28.416C78.8081 27.9893 78.6268 27.648 78.2641 27.392C77.9015 27.1253 77.4535 26.992 76.9201 26.992C76.3121 26.992 75.8268 27.1893 75.4641 27.584C75.1015 27.968 74.9201 28.48 74.9201 29.12V30.56C74.9201 31.2 75.1015 31.7173 75.4641 32.112C75.8268 32.496 76.3121 32.688 76.9201 32.688ZM86.3089 34.192C85.7115 34.192 85.1782 34.0907 84.7089 33.888C84.2395 33.6853 83.8395 33.3973 83.5089 33.024C83.1782 32.64 82.9222 32.1813 82.7409 31.648C82.5702 31.104 82.4849 30.5013 82.4849 29.84C82.4849 29.1787 82.5702 28.5813 82.7409 28.048C82.9222 27.504 83.1782 27.0453 83.5089 26.672C83.8395 26.288 84.2395 25.9947 84.7089 25.792C85.1782 25.5893 85.7115 25.488 86.3089 25.488C86.9169 25.488 87.4502 25.5947 87.9089 25.808C88.3782 26.0213 88.7675 26.32 89.0769 26.704C89.3862 27.0773 89.6155 27.5147 89.7649 28.016C89.9249 28.5173 90.0049 29.056 90.0049 29.632V30.288H84.2929V30.56C84.2929 31.2 84.4795 31.728 84.8529 32.144C85.2369 32.5493 85.7809 32.752 86.4849 32.752C86.9969 32.752 87.4289 32.64 87.7809 32.416C88.1329 32.192 88.4315 31.888 88.6769 31.504L89.7009 32.512C89.3915 33.024 88.9435 33.4347 88.3569 33.744C87.7702 34.0427 87.0875 34.192 86.3089 34.192ZM86.3089 26.848C86.0102 26.848 85.7329 26.9013 85.4769 27.008C85.2315 27.1147 85.0182 27.264 84.8369 27.456C84.6662 27.648 84.5329 27.8773 84.4369 28.144C84.3409 28.4107 84.2929 28.704 84.2929 29.024V29.136H88.1649V28.976C88.1649 28.336 87.9995 27.824 87.6689 27.44C87.3382 27.0453 86.8849 26.848 86.3089 26.848Z" fill="white"/>
<path d="M107 20C107 17.7909 108.791 16 111 16H163C165.209 16 167 17.7909 167 20V36C167 38.2091 165.209 40 163 40H111C108.791 40 107 38.2091 107 36V20Z" fill="#454545"/>
<path d="M121.816 30.992H118.328L116.856 34H115.032L120.632 22.832H128.968V24.432H123.624V27.536H128.472V29.136H123.624V32.4H128.968V34H121.816V30.992ZM121.544 24.432L119.064 29.424H121.816V24.432H121.544ZM132.946 34C132.349 34 131.901 33.8507 131.602 33.552C131.314 33.2427 131.17 32.816 131.17 32.272V22.16H132.914V32.576H134.066V34H132.946ZM140.964 32.624H140.884C140.703 33.1147 140.404 33.4987 139.988 33.776C139.583 34.0533 139.103 34.192 138.548 34.192C137.492 34.192 136.676 33.8133 136.1 33.056C135.524 32.288 135.236 31.216 135.236 29.84C135.236 28.464 135.524 27.3973 136.1 26.64C136.676 25.872 137.492 25.488 138.548 25.488C139.103 25.488 139.583 25.6267 139.988 25.904C140.404 26.1707 140.703 26.5547 140.884 27.056H140.964V22.16H142.708V34H140.964V32.624ZM139.076 32.688C139.61 32.688 140.058 32.56 140.42 32.304C140.783 32.0373 140.964 31.6907 140.964 31.264V28.416C140.964 27.9893 140.783 27.648 140.42 27.392C140.058 27.1253 139.61 26.992 139.076 26.992C138.468 26.992 137.983 27.1893 137.62 27.584C137.258 27.968 137.076 28.48 137.076 29.12V30.56C137.076 31.2 137.258 31.7173 137.62 32.112C137.983 32.496 138.468 32.688 139.076 32.688ZM145.201 34V25.68H146.945V27.28H147.025C147.142 26.8533 147.388 26.48 147.761 26.16C148.134 25.84 148.652 25.68 149.313 25.68H149.777V27.36H149.089C148.396 27.36 147.862 27.472 147.489 27.696C147.126 27.92 146.945 28.2507 146.945 28.688V34H145.201ZM154.512 34.192C153.915 34.192 153.381 34.0907 152.912 33.888C152.443 33.6853 152.043 33.3973 151.712 33.024C151.381 32.64 151.125 32.1813 150.944 31.648C150.773 31.104 150.688 30.5013 150.688 29.84C150.688 29.1787 150.773 28.5813 150.944 28.048C151.125 27.504 151.381 27.0453 151.712 26.672C152.043 26.288 152.443 25.9947 152.912 25.792C153.381 25.5893 153.915 25.488 154.512 25.488C155.12 25.488 155.653 25.5947 156.112 25.808C156.581 26.0213 156.971 26.32 157.28 26.704C157.589 27.0773 157.819 27.5147 157.968 28.016C158.128 28.5173 158.208 29.056 158.208 29.632V30.288H152.496V30.56C152.496 31.2 152.683 31.728 153.056 32.144C153.44 32.5493 153.984 32.752 154.688 32.752C155.2 32.752 155.632 32.64 155.984 32.416C156.336 32.192 156.635 31.888 156.88 31.504L157.904 32.512C157.595 33.024 157.147 33.4347 156.56 33.744C155.973 34.0427 155.291 34.192 154.512 34.192ZM154.512 26.848C154.213 26.848 153.936 26.9013 153.68 27.008C153.435 27.1147 153.221 27.264 153.04 27.456C152.869 27.648 152.736 27.8773 152.64 28.144C152.544 28.4107 152.496 28.704 152.496 29.024V29.136H156.368V28.976C156.368 28.336 156.203 27.824 155.872 27.44C155.541 27.0453 155.088 26.848 154.512 26.848Z" fill="white"/>
<path d="M175 20C175 17.7909 176.791 16 179 16H236C238.209 16 240 17.7909 240 20V36C240 38.2091 238.209 40 236 40H179C176.791 40 175 38.2091 175 36V20Z" fill="#454545"/>
<path d="M184.376 22.832H189.32C190.248 22.832 190.973 23.0933 191.496 23.616C192.029 24.1387 192.296 24.8373 192.296 25.712C192.296 26.128 192.237 26.4853 192.12 26.784C192.003 27.072 191.853 27.312 191.672 27.504C191.491 27.6853 191.283 27.824 191.048 27.92C190.813 28.0053 190.584 28.0587 190.36 28.08V28.176C190.584 28.1867 190.829 28.24 191.096 28.336C191.373 28.432 191.629 28.5867 191.864 28.8C192.099 29.0027 192.296 29.2693 192.456 29.6C192.616 29.92 192.696 30.3147 192.696 30.784C192.696 31.232 192.621 31.6533 192.472 32.048C192.333 32.4427 192.136 32.784 191.88 33.072C191.624 33.36 191.32 33.5893 190.968 33.76C190.616 33.92 190.232 34 189.816 34H184.376V22.832ZM186.184 32.448H189.288C189.757 32.448 190.125 32.3253 190.392 32.08C190.659 31.8347 190.792 31.4827 190.792 31.024V30.48C190.792 30.0213 190.659 29.6693 190.392 29.424C190.125 29.1787 189.757 29.056 189.288 29.056H186.184V32.448ZM186.184 27.552H188.984C189.432 27.552 189.779 27.44 190.024 27.216C190.269 26.9813 190.392 26.6507 190.392 26.224V25.712C190.392 25.2853 190.269 24.96 190.024 24.736C189.779 24.5013 189.432 24.384 188.984 24.384H186.184V27.552ZM198.059 34.192C197.483 34.192 196.955 34.0907 196.475 33.888C196.006 33.6853 195.606 33.3973 195.275 33.024C194.944 32.64 194.688 32.1813 194.507 31.648C194.326 31.104 194.235 30.5013 194.235 29.84C194.235 29.1787 194.326 28.5813 194.507 28.048C194.688 27.504 194.944 27.0453 195.275 26.672C195.606 26.288 196.006 25.9947 196.475 25.792C196.955 25.5893 197.483 25.488 198.059 25.488C198.635 25.488 199.158 25.5893 199.627 25.792C200.107 25.9947 200.512 26.288 200.843 26.672C201.174 27.0453 201.43 27.504 201.611 28.048C201.792 28.5813 201.883 29.1787 201.883 29.84C201.883 30.5013 201.792 31.104 201.611 31.648C201.43 32.1813 201.174 32.64 200.843 33.024C200.512 33.3973 200.107 33.6853 199.627 33.888C199.158 34.0907 198.635 34.192 198.059 34.192ZM198.059 32.752C198.656 32.752 199.136 32.5707 199.499 32.208C199.862 31.8347 200.043 31.28 200.043 30.544V29.136C200.043 28.4 199.862 27.8507 199.499 27.488C199.136 27.1147 198.656 26.928 198.059 26.928C197.462 26.928 196.982 27.1147 196.619 27.488C196.256 27.8507 196.075 28.4 196.075 29.136V30.544C196.075 31.28 196.256 31.8347 196.619 32.208C196.982 32.5707 197.462 32.752 198.059 32.752ZM203.826 34V25.68H205.57V27.28H205.65C205.767 26.8533 206.013 26.48 206.386 26.16C206.759 25.84 207.277 25.68 207.938 25.68H208.402V27.36H207.714C207.021 27.36 206.487 27.472 206.114 27.696C205.751 27.92 205.57 28.2507 205.57 28.688V34H203.826ZM216.95 34.784C216.95 35.648 216.62 36.2987 215.958 36.736C215.297 37.1733 214.22 37.392 212.726 37.392C212.044 37.392 211.462 37.344 210.982 37.248C210.513 37.1627 210.124 37.0347 209.814 36.864C209.516 36.6933 209.297 36.4853 209.158 36.24C209.02 35.9947 208.95 35.712 208.95 35.392C208.95 34.9333 209.073 34.576 209.318 34.32C209.574 34.064 209.926 33.888 210.374 33.792V33.616C209.745 33.4133 209.43 32.9867 209.43 32.336C209.43 31.9093 209.574 31.584 209.862 31.36C210.15 31.1253 210.497 30.96 210.902 30.864V30.8C210.412 30.5653 210.033 30.24 209.766 29.824C209.51 29.3973 209.382 28.9013 209.382 28.336C209.382 27.4827 209.665 26.7947 210.23 26.272C210.806 25.7493 211.628 25.488 212.694 25.488C213.281 25.488 213.782 25.5733 214.198 25.744V25.52C214.198 25.1467 214.284 24.8587 214.454 24.656C214.636 24.4427 214.913 24.336 215.286 24.336H216.566V25.744H214.87V26.08C215.244 26.3253 215.532 26.6453 215.734 27.04C215.937 27.424 216.038 27.856 216.038 28.336C216.038 29.1787 215.75 29.8613 215.174 30.384C214.598 30.896 213.777 31.152 212.71 31.152C212.305 31.152 211.942 31.1093 211.622 31.024C211.409 31.0987 211.222 31.2053 211.062 31.344C210.902 31.472 210.822 31.6427 210.822 31.856C210.822 32.08 210.924 32.24 211.126 32.336C211.329 32.432 211.617 32.48 211.99 32.48H214.038C215.062 32.48 215.804 32.688 216.262 33.104C216.721 33.5093 216.95 34.0693 216.95 34.784ZM215.318 34.976C215.318 34.688 215.206 34.4587 214.982 34.288C214.769 34.1173 214.374 34.032 213.798 34.032H210.982C210.598 34.256 210.406 34.576 210.406 34.992C210.406 35.3333 210.54 35.6053 210.806 35.808C211.084 36.0213 211.548 36.128 212.198 36.128H213.286C214.641 36.128 215.318 35.744 215.318 34.976ZM212.71 29.888C213.222 29.888 213.617 29.776 213.894 29.552C214.182 29.3173 214.326 28.96 214.326 28.48V28.16C214.326 27.68 214.182 27.328 213.894 27.104C213.617 26.8693 213.222 26.752 212.71 26.752C212.198 26.752 211.798 26.8693 211.51 27.104C211.233 27.328 211.094 27.68 211.094 28.16V28.48C211.094 28.96 211.233 29.3173 211.51 29.552C211.798 29.776 212.198 29.888 212.71 29.888ZM221.418 34.192C220.821 34.192 220.288 34.0907 219.818 33.888C219.349 33.6853 218.949 33.3973 218.618 33.024C218.288 32.64 218.032 32.1813 217.85 31.648C217.68 31.104 217.594 30.5013 217.594 29.84C217.594 29.1787 217.68 28.5813 217.85 28.048C218.032 27.504 218.288 27.0453 218.618 26.672C218.949 26.288 219.349 25.9947 219.818 25.792C220.288 25.5893 220.821 25.488 221.418 25.488C222.026 25.488 222.56 25.5947 223.018 25.808C223.488 26.0213 223.877 26.32 224.186 26.704C224.496 27.0773 224.725 27.5147 224.874 28.016C225.034 28.5173 225.114 29.056 225.114 29.632V30.288H219.402V30.56C219.402 31.2 219.589 31.728 219.962 32.144C220.346 32.5493 220.89 32.752 221.594 32.752C222.106 32.752 222.538 32.64 222.89 32.416C223.242 32.192 223.541 31.888 223.786 31.504L224.81 32.512C224.501 33.024 224.053 33.4347 223.466 33.744C222.88 34.0427 222.197 34.192 221.418 34.192ZM221.418 26.848C221.12 26.848 220.842 26.9013 220.586 27.008C220.341 27.1147 220.128 27.264 219.946 27.456C219.776 27.648 219.642 27.8773 219.546 28.144C219.45 28.4107 219.402 28.704 219.402 29.024V29.136H223.274V28.976C223.274 28.336 223.109 27.824 222.778 27.44C222.448 27.0453 221.994 26.848 221.418 26.848ZM227.045 34V25.68H228.789V27.28H228.869C228.986 26.8533 229.232 26.48 229.605 26.16C229.978 25.84 230.496 25.68 231.157 25.68H231.621V27.36H230.933C230.24 27.36 229.706 27.472 229.333 27.696C228.97 27.92 228.789 28.2507 228.789 28.688V34H227.045Z" fill="white"/>
<path d="M248 20C248 17.7909 249.791 16 252 16H360C362.209 16 364 17.7909 364 20V36C364 38.2091 362.209 40 360 40H252C249.791 40 248 38.2091 248 36V20Z" fill="#454545"/>
<path d="M260.72 34.192C259.781 34.192 258.981 34.0213 258.32 33.68C257.669 33.3387 257.109 32.88 256.64 32.304L257.888 31.136C258.283 31.616 258.715 31.9787 259.184 32.224C259.664 32.4693 260.208 32.592 260.816 32.592C261.531 32.592 262.069 32.432 262.432 32.112C262.795 31.792 262.976 31.36 262.976 30.816C262.976 30.3787 262.848 30.032 262.592 29.776C262.336 29.52 261.883 29.328 261.232 29.2L260.24 29.024C259.152 28.8213 258.336 28.464 257.792 27.952C257.248 27.44 256.976 26.736 256.976 25.84C256.976 25.3493 257.067 24.9067 257.248 24.512C257.44 24.1067 257.701 23.7707 258.032 23.504C258.373 23.2267 258.784 23.0133 259.264 22.864C259.744 22.7147 260.283 22.64 260.88 22.64C261.723 22.64 262.453 22.7893 263.072 23.088C263.691 23.376 264.219 23.7973 264.656 24.352L263.392 25.472C263.104 25.0987 262.752 24.8 262.336 24.576C261.92 24.352 261.403 24.24 260.784 24.24C260.144 24.24 259.648 24.368 259.296 24.624C258.944 24.88 258.768 25.2533 258.768 25.744C258.768 26.2133 258.912 26.5653 259.2 26.8C259.488 27.024 259.936 27.1947 260.544 27.312L261.536 27.52C262.656 27.7333 263.472 28.096 263.984 28.608C264.507 29.12 264.768 29.824 264.768 30.72C264.768 31.2427 264.677 31.7173 264.496 32.144C264.315 32.5707 264.048 32.9387 263.696 33.248C263.355 33.5467 262.933 33.7813 262.432 33.952C261.931 34.112 261.36 34.192 260.72 34.192ZM270.075 34.192C269.477 34.192 268.944 34.0907 268.475 33.888C268.005 33.6853 267.605 33.3973 267.275 33.024C266.944 32.64 266.688 32.1813 266.507 31.648C266.336 31.104 266.251 30.5013 266.251 29.84C266.251 29.1787 266.336 28.5813 266.507 28.048C266.688 27.504 266.944 27.0453 267.275 26.672C267.605 26.288 268.005 25.9947 268.475 25.792C268.944 25.5893 269.477 25.488 270.075 25.488C270.683 25.488 271.216 25.5947 271.675 25.808C272.144 26.0213 272.533 26.32 272.843 26.704C273.152 27.0773 273.381 27.5147 273.531 28.016C273.691 28.5173 273.771 29.056 273.771 29.632V30.288H268.059V30.56C268.059 31.2 268.245 31.728 268.619 32.144C269.003 32.5493 269.547 32.752 270.251 32.752C270.763 32.752 271.195 32.64 271.547 32.416C271.899 32.192 272.197 31.888 272.443 31.504L273.467 32.512C273.157 33.024 272.709 33.4347 272.123 33.744C271.536 34.0427 270.853 34.192 270.075 34.192ZM270.075 26.848C269.776 26.848 269.499 26.9013 269.243 27.008C268.997 27.1147 268.784 27.264 268.603 27.456C268.432 27.648 268.299 27.8773 268.203 28.144C268.107 28.4107 268.059 28.704 268.059 29.024V29.136H271.931V28.976C271.931 28.336 271.765 27.824 271.435 27.44C271.104 27.0453 270.651 26.848 270.075 26.848ZM277.477 34C276.88 34 276.432 33.8507 276.133 33.552C275.845 33.2427 275.701 32.816 275.701 32.272V22.16H277.445V32.576H278.597V34H277.477ZM281.947 34L279.115 25.68H280.843L282.107 29.472L282.955 32.384H283.051L283.899 29.472L285.195 25.68H286.859L283.995 34H281.947ZM288.326 22.16H290.07V27.056H290.15C290.331 26.5547 290.625 26.1707 291.03 25.904C291.446 25.6267 291.931 25.488 292.486 25.488C293.542 25.488 294.358 25.872 294.934 26.64C295.51 27.3973 295.798 28.464 295.798 29.84C295.798 31.216 295.51 32.288 294.934 33.056C294.358 33.8133 293.542 34.192 292.486 34.192C291.931 34.192 291.446 34.0533 291.03 33.776C290.625 33.4987 290.331 33.1147 290.15 32.624H290.07V34H288.326V22.16ZM291.958 32.688C292.566 32.688 293.051 32.496 293.414 32.112C293.777 31.7173 293.958 31.2 293.958 30.56V29.12C293.958 28.48 293.777 27.968 293.414 27.584C293.051 27.1893 292.566 26.992 291.958 26.992C291.425 26.992 290.977 27.1253 290.614 27.392C290.251 27.648 290.07 27.9893 290.07 28.416V31.264C290.07 31.6907 290.251 32.0373 290.614 32.304C290.977 32.56 291.425 32.688 291.958 32.688ZM301.059 34.192C300.462 34.192 299.928 34.0907 299.459 33.888C298.99 33.6853 298.59 33.3973 298.259 33.024C297.928 32.64 297.672 32.1813 297.491 31.648C297.32 31.104 297.235 30.5013 297.235 29.84C297.235 29.1787 297.32 28.5813 297.491 28.048C297.672 27.504 297.928 27.0453 298.259 26.672C298.59 26.288 298.99 25.9947 299.459 25.792C299.928 25.5893 300.462 25.488 301.059 25.488C301.667 25.488 302.2 25.5947 302.659 25.808C303.128 26.0213 303.518 26.32 303.827 26.704C304.136 27.0773 304.366 27.5147 304.515 28.016C304.675 28.5173 304.755 29.056 304.755 29.632V30.288H299.043V30.56C299.043 31.2 299.23 31.728 299.603 32.144C299.987 32.5493 300.531 32.752 301.235 32.752C301.747 32.752 302.179 32.64 302.531 32.416C302.883 32.192 303.182 31.888 303.427 31.504L304.451 32.512C304.142 33.024 303.694 33.4347 303.107 33.744C302.52 34.0427 301.838 34.192 301.059 34.192ZM301.059 26.848C300.76 26.848 300.483 26.9013 300.227 27.008C299.982 27.1147 299.768 27.264 299.587 27.456C299.416 27.648 299.283 27.8773 299.187 28.144C299.091 28.4107 299.043 28.704 299.043 29.024V29.136H302.915V28.976C302.915 28.336 302.75 27.824 302.419 27.44C302.088 27.0453 301.635 26.848 301.059 26.848ZM308.99 34C308.382 34 307.923 33.8453 307.614 33.536C307.304 33.216 307.15 32.768 307.15 32.192V27.104H305.854V25.68H306.558C306.846 25.68 307.043 25.616 307.15 25.488C307.267 25.36 307.326 25.152 307.326 24.864V23.408H308.894V25.68H310.638V27.104H308.894V32.576H310.51V34H308.99ZM312.529 25.68H314.273V35.12C314.273 35.76 314.108 36.2667 313.777 36.64C313.457 37.0133 312.945 37.2 312.241 37.2H311.233V35.776H312.529V25.68ZM313.409 24.192C313.047 24.192 312.78 24.1067 312.609 23.936C312.449 23.7653 312.369 23.5467 312.369 23.28V23.008C312.369 22.7413 312.449 22.5227 312.609 22.352C312.78 22.1813 313.047 22.096 313.409 22.096C313.772 22.096 314.033 22.1813 314.193 22.352C314.353 22.5227 314.433 22.7413 314.433 23.008V23.28C314.433 23.5467 314.353 23.7653 314.193 23.936C314.033 24.1067 313.772 24.192 313.409 24.192ZM320.028 34.192C319.43 34.192 318.897 34.0907 318.428 33.888C317.958 33.6853 317.558 33.3973 317.228 33.024C316.897 32.64 316.641 32.1813 316.46 31.648C316.289 31.104 316.204 30.5013 316.204 29.84C316.204 29.1787 316.289 28.5813 316.46 28.048C316.641 27.504 316.897 27.0453 317.228 26.672C317.558 26.288 317.958 25.9947 318.428 25.792C318.897 25.5893 319.43 25.488 320.028 25.488C320.636 25.488 321.169 25.5947 321.628 25.808C322.097 26.0213 322.486 26.32 322.796 26.704C323.105 27.0773 323.334 27.5147 323.484 28.016C323.644 28.5173 323.724 29.056 323.724 29.632V30.288H318.012V30.56C318.012 31.2 318.198 31.728 318.572 32.144C318.956 32.5493 319.5 32.752 320.204 32.752C320.716 32.752 321.148 32.64 321.5 32.416C321.852 32.192 322.15 31.888 322.396 31.504L323.42 32.512C323.11 33.024 322.662 33.4347 322.076 33.744C321.489 34.0427 320.806 34.192 320.028 34.192ZM320.028 26.848C319.729 26.848 319.452 26.9013 319.196 27.008C318.95 27.1147 318.737 27.264 318.556 27.456C318.385 27.648 318.252 27.8773 318.156 28.144C318.06 28.4107 318.012 28.704 318.012 29.024V29.136H321.884V28.976C321.884 28.336 321.718 27.824 321.388 27.44C321.057 27.0453 320.604 26.848 320.028 26.848ZM325.654 34V25.68H327.398V27.056H327.478C327.66 26.608 327.932 26.2347 328.294 25.936C328.668 25.6373 329.174 25.488 329.814 25.488C330.668 25.488 331.329 25.7707 331.798 26.336C332.278 26.8907 332.518 27.6853 332.518 28.72V34H330.774V28.944C330.774 27.6427 330.252 26.992 329.206 26.992C328.982 26.992 328.758 27.024 328.534 27.088C328.321 27.1413 328.129 27.2267 327.958 27.344C327.788 27.4613 327.649 27.6107 327.542 27.792C327.446 27.9733 327.398 28.1867 327.398 28.432V34H325.654ZM335.816 24.192C335.453 24.192 335.186 24.1067 335.016 23.936C334.856 23.7653 334.776 23.5467 334.776 23.28V23.008C334.776 22.7413 334.856 22.5227 335.016 22.352C335.186 22.1813 335.453 22.096 335.816 22.096C336.178 22.096 336.44 22.1813 336.6 22.352C336.76 22.5227 336.84 22.7413 336.84 23.008V23.28C336.84 23.5467 336.76 23.7653 336.6 23.936C336.44 24.1067 336.178 24.192 335.816 24.192ZM334.936 25.68H336.68V34H334.936V25.68ZM339.17 34V25.68H340.914V27.056H340.994C341.175 26.608 341.447 26.2347 341.81 25.936C342.183 25.6373 342.69 25.488 343.33 25.488C344.183 25.488 344.845 25.7707 345.314 26.336C345.794 26.8907 346.034 27.6853 346.034 28.72V34H344.29V28.944C344.29 27.6427 343.767 26.992 342.722 26.992C342.498 26.992 342.274 27.024 342.05 27.088C341.837 27.1413 341.645 27.2267 341.474 27.344C341.303 27.4613 341.165 27.6107 341.058 27.792C340.962 27.9733 340.914 28.1867 340.914 28.432V34H339.17ZM355.747 34.784C355.747 35.648 355.416 36.2987 354.755 36.736C354.094 37.1733 353.016 37.392 351.523 37.392C350.84 37.392 350.259 37.344 349.779 37.248C349.31 37.1627 348.92 37.0347 348.611 36.864C348.312 36.6933 348.094 36.4853 347.955 36.24C347.816 35.9947 347.747 35.712 347.747 35.392C347.747 34.9333 347.87 34.576 348.115 34.32C348.371 34.064 348.723 33.888 349.171 33.792V33.616C348.542 33.4133 348.227 32.9867 348.227 32.336C348.227 31.9093 348.371 31.584 348.659 31.36C348.947 31.1253 349.294 30.96 349.699 30.864V30.8C349.208 30.5653 348.83 30.24 348.563 29.824C348.307 29.3973 348.179 28.9013 348.179 28.336C348.179 27.4827 348.462 26.7947 349.027 26.272C349.603 25.7493 350.424 25.488 351.491 25.488C352.078 25.488 352.579 25.5733 352.995 25.744V25.52C352.995 25.1467 353.08 24.8587 353.251 24.656C353.432 24.4427 353.71 24.336 354.083 24.336H355.363V25.744H353.667V26.08C354.04 26.3253 354.328 26.6453 354.531 27.04C354.734 27.424 354.835 27.856 354.835 28.336C354.835 29.1787 354.547 29.8613 353.971 30.384C353.395 30.896 352.574 31.152 351.507 31.152C351.102 31.152 350.739 31.1093 350.419 31.024C350.206 31.0987 350.019 31.2053 349.859 31.344C349.699 31.472 349.619 31.6427 349.619 31.856C349.619 32.08 349.72 32.24 349.923 32.336C350.126 32.432 350.414 32.48 350.787 32.48H352.835C353.859 32.48 354.6 32.688 355.059 33.104C355.518 33.5093 355.747 34.0693 355.747 34.784ZM354.115 34.976C354.115 34.688 354.003 34.4587 353.779 34.288C353.566 34.1173 353.171 34.032 352.595 34.032H349.779C349.395 34.256 349.203 34.576 349.203 34.992C349.203 35.3333 349.336 35.6053 349.603 35.808C349.88 36.0213 350.344 36.128 350.995 36.128H352.083C353.438 36.128 354.115 35.744 354.115 34.976ZM351.507 29.888C352.019 29.888 352.414 29.776 352.691 29.552C352.979 29.3173 353.123 28.96 353.123 28.48V28.16C353.123 27.68 352.979 27.328 352.691 27.104C352.414 26.8693 352.019 26.752 351.507 26.752C350.995 26.752 350.595 26.8693 350.307 27.104C350.03 27.328 349.891 27.68 349.891 28.16V28.48C349.891 28.96 350.03 29.3173 350.307 29.552C350.595 29.776 350.995 29.888 351.507 29.888Z" fill="white"/>
</svg>
