<svg width="418" height="398" viewBox="0 0 418 398" fill="none" xmlns="http://www.w3.org/2000/svg">
<rect width="418" height="398" fill="white"/>
<path d="M18.46 44V23.06H22.42V40.49H30.67V44H18.46ZM39.7816 44.36C38.6616 44.36 37.6516 44.17 36.7516 43.79C35.8716 43.41 35.1116 42.86 34.4716 42.14C33.8516 41.42 33.3716 40.56 33.0316 39.56C32.6916 38.54 32.5216 37.4 32.5216 36.14C32.5216 34.88 32.6916 33.75 33.0316 32.75C33.3716 31.75 33.8516 30.9 34.4716 30.2C35.1116 29.48 35.8716 28.93 36.7516 28.55C37.6516 28.17 38.6616 27.98 39.7816 27.98C40.9016 27.98 41.9116 28.17 42.8116 28.55C43.7116 28.93 44.4716 29.48 45.0916 30.2C45.7316 30.9 46.2216 31.75 46.5616 32.75C46.9016 33.75 47.0716 34.88 47.0716 36.14C47.0716 37.4 46.9016 38.54 46.5616 39.56C46.2216 40.56 45.7316 41.42 45.0916 42.14C44.4716 42.86 43.7116 43.41 42.8116 43.79C41.9116 44.17 40.9016 44.36 39.7816 44.36ZM39.7816 41.27C40.8016 41.27 41.6016 40.96 42.1816 40.34C42.7616 39.72 43.0516 38.81 43.0516 37.61V34.7C43.0516 33.52 42.7616 32.62 42.1816 32C41.6016 31.38 40.8016 31.07 39.7816 31.07C38.7816 31.07 37.9916 31.38 37.4116 32C36.8316 32.62 36.5416 33.52 36.5416 34.7V37.61C36.5416 38.81 36.8316 39.72 37.4116 40.34C37.9916 40.96 38.7816 41.27 39.7816 41.27ZM50.4759 44V28.34H54.3159V31.58H54.4659C54.5659 31.16 54.7159 30.76 54.9159 30.38C55.1359 29.98 55.4159 29.63 55.7559 29.33C56.0959 29.03 56.4959 28.79 56.9559 28.61C57.4359 28.43 57.9859 28.34 58.6059 28.34H59.4459V31.97H58.2459C56.9459 31.97 55.9659 32.16 55.3059 32.54C54.6459 32.92 54.3159 33.54 54.3159 34.4V44H50.4759ZM68.4367 44.36C67.2767 44.36 66.2367 44.17 65.3167 43.79C64.4167 43.39 63.6467 42.84 63.0067 42.14C62.3867 41.42 61.9067 40.56 61.5667 39.56C61.2267 38.54 61.0567 37.4 61.0567 36.14C61.0567 34.9 61.2167 33.78 61.5367 32.78C61.8767 31.78 62.3567 30.93 62.9767 30.23C63.5967 29.51 64.3567 28.96 65.2567 28.58C66.1567 28.18 67.1767 27.98 68.3167 27.98C69.5367 27.98 70.5967 28.19 71.4967 28.61C72.3967 29.03 73.1367 29.6 73.7167 30.32C74.2967 31.04 74.7267 31.88 75.0067 32.84C75.3067 33.78 75.4567 34.79 75.4567 35.87V37.13H65.0467V37.52C65.0467 38.66 65.3667 39.58 66.0067 40.28C66.6467 40.96 67.5967 41.3 68.8567 41.3C69.8167 41.3 70.5967 41.1 71.1967 40.7C71.8167 40.3 72.3667 39.79 72.8467 39.17L74.9167 41.48C74.2767 42.38 73.3967 43.09 72.2767 43.61C71.1767 44.11 69.8967 44.36 68.4367 44.36ZM68.3767 30.86C67.3567 30.86 66.5467 31.2 65.9467 31.88C65.3467 32.56 65.0467 33.44 65.0467 34.52V34.76H71.4667V34.49C71.4667 33.41 71.1967 32.54 70.6567 31.88C70.1367 31.2 69.3767 30.86 68.3767 30.86ZM78.8352 44V28.34H82.6752V30.95H82.8252C83.1252 30.13 83.6052 29.43 84.2652 28.85C84.9252 28.27 85.8452 27.98 87.0252 27.98C88.1052 27.98 89.0352 28.24 89.8152 28.76C90.5952 29.28 91.1752 30.07 91.5552 31.13H91.6152C91.8952 30.25 92.4452 29.51 93.2652 28.91C94.1052 28.29 95.1552 27.98 96.4152 27.98C97.9552 27.98 99.1352 28.51 99.9552 29.57C100.795 30.63 101.215 32.14 101.215 34.1V44H97.3752V34.49C97.3752 32.25 96.5352 31.13 94.8552 31.13C94.4752 31.13 94.1052 31.19 93.7452 31.31C93.4052 31.41 93.0952 31.57 92.8152 31.79C92.5552 31.99 92.3452 32.25 92.1852 32.57C92.0252 32.87 91.9452 33.23 91.9452 33.65V44H88.1052V34.49C88.1052 32.25 87.2652 31.13 85.5852 31.13C85.2252 31.13 84.8652 31.19 84.5052 31.31C84.1652 31.41 83.8552 31.57 83.5752 31.79C83.3152 31.99 83.0952 32.25 82.9152 32.57C82.7552 32.87 82.6752 33.23 82.6752 33.65V44H78.8352ZM114.476 26.06C113.676 26.06 113.096 25.88 112.736 25.52C112.396 25.16 112.226 24.7 112.226 24.14V23.54C112.226 22.98 112.396 22.52 112.736 22.16C113.096 21.8 113.676 21.62 114.476 21.62C115.256 21.62 115.826 21.8 116.186 22.16C116.546 22.52 116.726 22.98 116.726 23.54V24.14C116.726 24.7 116.546 25.16 116.186 25.52C115.826 25.88 115.256 26.06 114.476 26.06ZM112.556 28.34H116.396V44H112.556V28.34ZM120.847 28.34H124.687V30.92H124.807C125.087 30.02 125.617 29.31 126.397 28.79C127.177 28.25 128.087 27.98 129.127 27.98C131.127 27.98 132.647 28.69 133.687 30.11C134.747 31.51 135.277 33.52 135.277 36.14C135.277 38.78 134.747 40.81 133.687 42.23C132.647 43.65 131.127 44.36 129.127 44.36C128.087 44.36 127.177 44.09 126.397 43.55C125.637 43.01 125.107 42.29 124.807 41.39H124.687V50H120.847V28.34ZM127.897 41.18C128.897 41.18 129.707 40.85 130.327 40.19C130.947 39.53 131.257 38.64 131.257 37.52V34.82C131.257 33.7 130.947 32.81 130.327 32.15C129.707 31.47 128.897 31.13 127.897 31.13C126.977 31.13 126.207 31.36 125.587 31.82C124.987 32.28 124.687 32.89 124.687 33.65V38.63C124.687 39.45 124.987 40.08 125.587 40.52C126.207 40.96 126.977 41.18 127.897 41.18ZM143.965 44.36C142.465 44.36 141.205 44.11 140.185 43.61C139.165 43.09 138.265 42.38 137.485 41.48L139.825 39.2C140.405 39.86 141.035 40.38 141.715 40.76C142.415 41.14 143.215 41.33 144.115 41.33C145.035 41.33 145.695 41.17 146.095 40.85C146.515 40.53 146.725 40.09 146.725 39.53C146.725 39.07 146.575 38.71 146.275 38.45C145.995 38.17 145.505 37.98 144.805 37.88L143.245 37.67C141.545 37.45 140.245 36.97 139.345 36.23C138.465 35.47 138.025 34.37 138.025 32.93C138.025 32.17 138.165 31.49 138.445 30.89C138.725 30.27 139.125 29.75 139.645 29.33C140.165 28.89 140.785 28.56 141.505 28.34C142.245 28.1 143.065 27.98 143.965 27.98C144.725 27.98 145.395 28.04 145.975 28.16C146.575 28.26 147.115 28.42 147.595 28.64C148.075 28.84 148.515 29.1 148.915 29.42C149.315 29.72 149.705 30.06 150.085 30.44L147.835 32.69C147.375 32.21 146.825 31.81 146.185 31.49C145.545 31.17 144.845 31.01 144.085 31.01C143.245 31.01 142.635 31.16 142.255 31.46C141.895 31.76 141.715 32.15 141.715 32.63C141.715 33.15 141.865 33.55 142.165 33.83C142.485 34.09 143.015 34.28 143.755 34.4L145.345 34.61C148.725 35.09 150.415 36.63 150.415 39.23C150.415 39.99 150.255 40.69 149.935 41.33C149.635 41.95 149.205 42.49 148.645 42.95C148.085 43.39 147.405 43.74 146.605 44C145.825 44.24 144.945 44.36 143.965 44.36ZM163.166 41.39H163.016C162.876 41.79 162.686 42.17 162.446 42.53C162.226 42.87 161.936 43.18 161.576 43.46C161.236 43.74 160.816 43.96 160.316 44.12C159.836 44.28 159.276 44.36 158.636 44.36C157.016 44.36 155.776 43.83 154.916 42.77C154.056 41.71 153.626 40.2 153.626 38.24V28.34H157.466V37.85C157.466 38.93 157.676 39.76 158.096 40.34C158.516 40.9 159.186 41.18 160.106 41.18C160.486 41.18 160.856 41.13 161.216 41.03C161.596 40.93 161.926 40.78 162.206 40.58C162.486 40.36 162.716 40.1 162.896 39.8C163.076 39.48 163.166 39.11 163.166 38.69V28.34H167.006V44H163.166V41.39ZM171.443 44V28.34H175.283V30.95H175.433C175.733 30.13 176.213 29.43 176.873 28.85C177.533 28.27 178.453 27.98 179.633 27.98C180.713 27.98 181.643 28.24 182.423 28.76C183.203 29.28 183.783 30.07 184.163 31.13H184.223C184.503 30.25 185.053 29.51 185.873 28.91C186.713 28.29 187.763 27.98 189.023 27.98C190.563 27.98 191.743 28.51 192.563 29.57C193.403 30.63 193.823 32.14 193.823 34.1V44H189.983V34.49C189.983 32.25 189.143 31.13 187.463 31.13C187.083 31.13 186.713 31.19 186.353 31.31C186.013 31.41 185.703 31.57 185.423 31.79C185.163 31.99 184.953 32.25 184.793 32.57C184.633 32.87 184.553 33.23 184.553 33.65V44H180.713V34.49C180.713 32.25 179.873 31.13 178.193 31.13C177.833 31.13 177.473 31.19 177.113 31.31C176.773 31.41 176.463 31.57 176.183 31.79C175.923 31.99 175.703 32.25 175.523 32.57C175.363 32.87 175.283 33.23 175.283 33.65V44H171.443Z" fill="#1A1A1A"/>
<path d="M17.312 86.832H21.376C22.1013 86.832 22.7573 86.9493 23.344 87.184C23.9413 87.4187 24.448 87.7707 24.864 88.24C25.2907 88.6987 25.616 89.28 25.84 89.984C26.0747 90.6773 26.192 91.488 26.192 92.416C26.192 93.344 26.0747 94.16 25.84 94.864C25.616 95.5573 25.2907 96.1387 24.864 96.608C24.448 97.0667 23.9413 97.4133 23.344 97.648C22.7573 97.8827 22.1013 98 21.376 98H17.312V86.832ZM21.376 96.128C22.1653 96.128 22.7893 95.8987 23.248 95.44C23.7173 94.9707 23.952 94.256 23.952 93.296V91.536C23.952 90.576 23.7173 89.8667 23.248 89.408C22.7893 88.9387 22.1653 88.704 21.376 88.704H19.424V96.128H21.376ZM31.5273 98.192C30.9299 98.192 30.3913 98.0907 29.9113 97.888C29.4419 97.6853 29.0366 97.392 28.6953 97.008C28.3646 96.624 28.1086 96.1653 27.9273 95.632C27.7459 95.088 27.6553 94.48 27.6553 93.808C27.6553 93.136 27.7459 92.5333 27.9273 92C28.1086 91.4667 28.3646 91.0133 28.6953 90.64C29.0366 90.256 29.4419 89.9627 29.9113 89.76C30.3913 89.5573 30.9299 89.456 31.5273 89.456C32.1246 89.456 32.6633 89.5573 33.1433 89.76C33.6233 89.9627 34.0286 90.256 34.3593 90.64C34.7006 91.0133 34.9619 91.4667 35.1433 92C35.3246 92.5333 35.4153 93.136 35.4153 93.808C35.4153 94.48 35.3246 95.088 35.1433 95.632C34.9619 96.1653 34.7006 96.624 34.3593 97.008C34.0286 97.392 33.6233 97.6853 33.1433 97.888C32.6633 98.0907 32.1246 98.192 31.5273 98.192ZM31.5273 96.544C32.0713 96.544 32.4979 96.3787 32.8073 96.048C33.1166 95.7173 33.2713 95.232 33.2713 94.592V93.04C33.2713 92.4107 33.1166 91.9307 32.8073 91.6C32.4979 91.2693 32.0713 91.104 31.5273 91.104C30.9939 91.104 30.5726 91.2693 30.2633 91.6C29.9539 91.9307 29.7993 92.4107 29.7993 93.04V94.592C29.7993 95.232 29.9539 95.7173 30.2633 96.048C30.5726 96.3787 30.9939 96.544 31.5273 96.544ZM39.2789 98C38.5749 98 38.0575 97.824 37.7269 97.472C37.3962 97.12 37.2309 96.624 37.2309 95.984V86.16H39.2789V96.368H40.3829V98H39.2789ZM45.246 98.192C44.6487 98.192 44.11 98.0907 43.63 97.888C43.1607 97.6853 42.7553 97.392 42.414 97.008C42.0833 96.624 41.8273 96.1653 41.646 95.632C41.4647 95.088 41.374 94.48 41.374 93.808C41.374 93.136 41.4647 92.5333 41.646 92C41.8273 91.4667 42.0833 91.0133 42.414 90.64C42.7553 90.256 43.1607 89.9627 43.63 89.76C44.11 89.5573 44.6487 89.456 45.246 89.456C45.8433 89.456 46.382 89.5573 46.862 89.76C47.342 89.9627 47.7473 90.256 48.078 90.64C48.4193 91.0133 48.6807 91.4667 48.862 92C49.0433 92.5333 49.134 93.136 49.134 93.808C49.134 94.48 49.0433 95.088 48.862 95.632C48.6807 96.1653 48.4193 96.624 48.078 97.008C47.7473 97.392 47.342 97.6853 46.862 97.888C46.382 98.0907 45.8433 98.192 45.246 98.192ZM45.246 96.544C45.79 96.544 46.2167 96.3787 46.526 96.048C46.8353 95.7173 46.99 95.232 46.99 94.592V93.04C46.99 92.4107 46.8353 91.9307 46.526 91.6C46.2167 91.2693 45.79 91.104 45.246 91.104C44.7127 91.104 44.2913 91.2693 43.982 91.6C43.6727 91.9307 43.518 92.4107 43.518 93.04V94.592C43.518 95.232 43.6727 95.7173 43.982 96.048C44.2913 96.3787 44.7127 96.544 45.246 96.544ZM50.9496 98V89.648H52.9976V91.376H53.0776C53.131 91.152 53.211 90.9387 53.3176 90.736C53.435 90.5227 53.5843 90.336 53.7656 90.176C53.947 90.016 54.1603 89.888 54.4056 89.792C54.6616 89.696 54.955 89.648 55.2856 89.648H55.7336V91.584H55.0936C54.4003 91.584 53.8776 91.6853 53.5256 91.888C53.1736 92.0907 52.9976 92.4213 52.9976 92.88V98H50.9496ZM63.7481 98.192C62.9481 98.192 62.2761 98.0587 61.7321 97.792C61.1881 97.5147 60.7081 97.136 60.2921 96.656L61.5401 95.44C61.8495 95.792 62.1855 96.0693 62.5481 96.272C62.9215 96.4747 63.3481 96.576 63.8281 96.576C64.3188 96.576 64.6708 96.4907 64.8841 96.32C65.1081 96.1493 65.2201 95.9147 65.2201 95.616C65.2201 95.3707 65.1401 95.1787 64.9801 95.04C64.8308 94.8907 64.5695 94.7893 64.1961 94.736L63.3641 94.624C62.4575 94.5067 61.7641 94.2507 61.2841 93.856C60.8148 93.4507 60.5801 92.864 60.5801 92.096C60.5801 91.6907 60.6548 91.328 60.8041 91.008C60.9535 90.6773 61.1668 90.4 61.4441 90.176C61.7215 89.9413 62.0521 89.7653 62.4361 89.648C62.8308 89.52 63.2681 89.456 63.7481 89.456C64.1535 89.456 64.5108 89.488 64.8201 89.552C65.1401 89.6053 65.4281 89.6907 65.6841 89.808C65.9401 89.9147 66.1748 90.0533 66.3881 90.224C66.6015 90.384 66.8095 90.5653 67.0121 90.768L65.8121 91.968C65.5668 91.712 65.2735 91.4987 64.9321 91.328C64.5908 91.1573 64.2175 91.072 63.8121 91.072C63.3641 91.072 63.0388 91.152 62.8361 91.312C62.6441 91.472 62.5481 91.68 62.5481 91.936C62.5481 92.2133 62.6281 92.4267 62.7881 92.576C62.9588 92.7147 63.2415 92.816 63.6361 92.88L64.4841 92.992C66.2868 93.248 67.1881 94.0693 67.1881 95.456C67.1881 95.8613 67.1028 96.2347 66.9321 96.576C66.7721 96.9067 66.5428 97.1947 66.2441 97.44C65.9455 97.6747 65.5828 97.8613 65.1561 98C64.7401 98.128 64.2708 98.192 63.7481 98.192ZM70.0205 88.432C69.5938 88.432 69.2845 88.336 69.0925 88.144C68.9112 87.952 68.8205 87.7067 68.8205 87.408V87.088C68.8205 86.7893 68.9112 86.544 69.0925 86.352C69.2845 86.16 69.5938 86.064 70.0205 86.064C70.4365 86.064 70.7405 86.16 70.9325 86.352C71.1245 86.544 71.2205 86.7893 71.2205 87.088V87.408C71.2205 87.7067 71.1245 87.952 70.9325 88.144C70.7405 88.336 70.4365 88.432 70.0205 88.432ZM68.9965 89.648H71.0445V98H68.9965V89.648ZM76.0264 98C75.3224 98 74.7837 97.8187 74.4104 97.456C74.0477 97.0827 73.8664 96.5547 73.8664 95.872V91.28H72.6344V89.648H73.2744C73.5837 89.648 73.7917 89.5787 73.8984 89.44C74.0157 89.2907 74.0744 89.072 74.0744 88.784V87.36H75.9144V89.648H77.6264V91.28H75.9144V96.368H77.4984V98H76.0264Z" fill="#1A1A1A"/>
<path d="M24.224 258L23.328 255.152H19.36L18.48 258H16.336L20.08 246.832H22.704L26.416 258H24.224ZM21.376 248.752H21.296L19.872 253.344H22.816L21.376 248.752ZM27.934 258V249.648H29.982V251.04H30.062C30.222 250.603 30.478 250.229 30.83 249.92C31.182 249.611 31.6727 249.456 32.302 249.456C32.878 249.456 33.374 249.595 33.79 249.872C34.206 250.149 34.5153 250.571 34.718 251.136H34.75C34.8993 250.667 35.1927 250.272 35.63 249.952C36.078 249.621 36.638 249.456 37.31 249.456C38.1313 249.456 38.7607 249.739 39.198 250.304C39.646 250.869 39.87 251.675 39.87 252.72V258H37.822V252.928C37.822 251.733 37.374 251.136 36.478 251.136C36.2753 251.136 36.078 251.168 35.886 251.232C35.7047 251.285 35.5393 251.371 35.39 251.488C35.2513 251.595 35.1393 251.733 35.054 251.904C34.9687 252.064 34.926 252.256 34.926 252.48V258H32.878V252.928C32.878 251.733 32.43 251.136 31.534 251.136C31.342 251.136 31.15 251.168 30.958 251.232C30.7767 251.285 30.6113 251.371 30.462 251.488C30.3233 251.595 30.206 251.733 30.11 251.904C30.0247 252.064 29.982 252.256 29.982 252.48V258H27.934ZM45.5131 258.192C44.8945 258.192 44.3398 258.091 43.8491 257.888C43.3691 257.675 42.9585 257.381 42.6171 257.008C42.2865 256.624 42.0305 256.165 41.8491 255.632C41.6678 255.088 41.5771 254.48 41.5771 253.808C41.5771 253.147 41.6625 252.549 41.8331 252.016C42.0145 251.483 42.2705 251.029 42.6011 250.656C42.9318 250.272 43.3371 249.979 43.8171 249.776C44.2971 249.563 44.8411 249.456 45.4491 249.456C46.0998 249.456 46.6651 249.568 47.1451 249.792C47.6251 250.016 48.0198 250.32 48.3291 250.704C48.6385 251.088 48.8678 251.536 49.0171 252.048C49.1771 252.549 49.2571 253.088 49.2571 253.664V254.336H43.7051V254.544C43.7051 255.152 43.8758 255.643 44.2171 256.016C44.5585 256.379 45.0651 256.56 45.7371 256.56C46.2491 256.56 46.6651 256.453 46.9851 256.24C47.3158 256.027 47.6091 255.755 47.8651 255.424L48.9691 256.656C48.6278 257.136 48.1585 257.515 47.5611 257.792C46.9745 258.059 46.2918 258.192 45.5131 258.192ZM45.4811 250.992C44.9371 250.992 44.5051 251.173 44.1851 251.536C43.8651 251.899 43.7051 252.368 43.7051 252.944V253.072H47.1291V252.928C47.1291 252.352 46.9851 251.888 46.6971 251.536C46.4198 251.173 46.0145 250.992 45.4811 250.992ZM53.667 258C52.963 258 52.4243 257.819 52.051 257.456C51.6883 257.083 51.507 256.555 51.507 255.872V251.28H50.275V249.648H50.915C51.2243 249.648 51.4323 249.579 51.539 249.44C51.6563 249.291 51.715 249.072 51.715 248.784V247.36H53.555V249.648H55.267V251.28H53.555V256.368H55.139V258H53.667Z" fill="#1A1A1A"/>
<rect x="16.5" y="176.5" width="159" height="39" rx="3.5" stroke="#747474"/>
<rect x="16.5" y="336.5" width="159" height="39" rx="3.5" stroke="#747474"/>
<rect width="386" height="56" transform="translate(16 112)" fill="#FFE0E0"/>
<path d="M24 112H16V168H24V112Z" fill="#CC0000"/>
<path d="M52 150C50.0213 150.001 48.0868 149.416 46.4412 148.317C44.7957 147.218 43.513 145.656 42.7557 143.828C41.9983 142 41.8003 139.988 42.1866 138.048C42.573 136.107 43.5263 134.325 44.926 132.926C46.8022 131.05 49.3467 129.996 52 129.996C54.6533 129.996 57.1979 131.05 59.074 132.926C60.9502 134.802 62.0042 137.347 62.0042 140C62.0042 142.654 60.9502 145.198 59.074 147.074C58.1468 148.005 57.0442 148.743 55.83 149.246C54.6158 149.748 53.314 150.004 52 150V150ZM52 132C50.4178 132 48.871 132.469 47.5555 133.348C46.2399 134.228 45.2145 135.477 44.609 136.939C44.0035 138.401 43.845 140.009 44.1537 141.561C44.4624 143.113 45.2243 144.538 46.3432 145.657C47.462 146.776 48.8874 147.538 50.4393 147.847C51.9911 148.155 53.5997 147.997 55.0615 147.391C56.5233 146.786 57.7727 145.76 58.6518 144.445C59.5308 143.129 60 141.582 60 140C59.9976 137.879 59.154 135.846 57.6542 134.346C56.1545 132.846 54.121 132.003 52 132V132ZM49.409 144L48 142.59L50.59 140L48 137.41L49.41 136L52 138.59L54.59 136L56 137.41L53.41 140L56 142.59L54.591 144L52 141.411L49.41 144H49.409Z" fill="#1A1A1A"/>
<path d="M73.312 146V134.832H75.424V144.128H79.824V146H73.312ZM84.6835 146.192C84.0862 146.192 83.5475 146.091 83.0675 145.888C82.5982 145.685 82.1928 145.392 81.8515 145.008C81.5208 144.624 81.2648 144.165 81.0835 143.632C80.9022 143.088 80.8115 142.48 80.8115 141.808C80.8115 141.136 80.9022 140.533 81.0835 140C81.2648 139.467 81.5208 139.013 81.8515 138.64C82.1928 138.256 82.5982 137.963 83.0675 137.76C83.5475 137.557 84.0862 137.456 84.6835 137.456C85.2808 137.456 85.8195 137.557 86.2995 137.76C86.7795 137.963 87.1848 138.256 87.5155 138.64C87.8568 139.013 88.1182 139.467 88.2995 140C88.4808 140.533 88.5715 141.136 88.5715 141.808C88.5715 142.48 88.4808 143.088 88.2995 143.632C88.1182 144.165 87.8568 144.624 87.5155 145.008C87.1848 145.392 86.7795 145.685 86.2995 145.888C85.8195 146.091 85.2808 146.192 84.6835 146.192ZM84.6835 144.544C85.2275 144.544 85.6542 144.379 85.9635 144.048C86.2728 143.717 86.4275 143.232 86.4275 142.592V141.04C86.4275 140.411 86.2728 139.931 85.9635 139.6C85.6542 139.269 85.2275 139.104 84.6835 139.104C84.1502 139.104 83.7288 139.269 83.4195 139.6C83.1102 139.931 82.9555 140.411 82.9555 141.04V142.592C82.9555 143.232 83.1102 143.717 83.4195 144.048C83.7288 144.379 84.1502 144.544 84.6835 144.544ZM90.3871 146V137.648H92.4351V139.376H92.5151C92.5685 139.152 92.6485 138.939 92.7551 138.736C92.8725 138.523 93.0218 138.336 93.2031 138.176C93.3845 138.016 93.5978 137.888 93.8431 137.792C94.0991 137.696 94.3925 137.648 94.7231 137.648H95.1711V139.584H94.5311C93.8378 139.584 93.3151 139.685 92.9631 139.888C92.6111 140.091 92.4351 140.421 92.4351 140.88V146H90.3871ZM99.9663 146.192C99.3476 146.192 98.7929 146.091 98.3023 145.888C97.8223 145.675 97.4116 145.381 97.0703 145.008C96.7396 144.624 96.4836 144.165 96.3023 143.632C96.1209 143.088 96.0303 142.48 96.0303 141.808C96.0303 141.147 96.1156 140.549 96.2863 140.016C96.4676 139.483 96.7236 139.029 97.0543 138.656C97.3849 138.272 97.7903 137.979 98.2703 137.776C98.7503 137.563 99.2943 137.456 99.9023 137.456C100.553 137.456 101.118 137.568 101.598 137.792C102.078 138.016 102.473 138.32 102.782 138.704C103.092 139.088 103.321 139.536 103.47 140.048C103.63 140.549 103.71 141.088 103.71 141.664V142.336H98.1583V142.544C98.1583 143.152 98.3289 143.643 98.6703 144.016C99.0116 144.379 99.5183 144.56 100.19 144.56C100.702 144.56 101.118 144.453 101.438 144.24C101.769 144.027 102.062 143.755 102.318 143.424L103.422 144.656C103.081 145.136 102.612 145.515 102.014 145.792C101.428 146.059 100.745 146.192 99.9663 146.192ZM99.9343 138.992C99.3903 138.992 98.9583 139.173 98.6383 139.536C98.3183 139.899 98.1583 140.368 98.1583 140.944V141.072H101.582V140.928C101.582 140.352 101.438 139.888 101.15 139.536C100.873 139.173 100.468 138.992 99.9343 138.992ZM105.512 146V137.648H107.56V139.04H107.64C107.8 138.603 108.056 138.229 108.408 137.92C108.76 137.611 109.251 137.456 109.88 137.456C110.456 137.456 110.952 137.595 111.368 137.872C111.784 138.149 112.093 138.571 112.296 139.136H112.328C112.477 138.667 112.771 138.272 113.208 137.952C113.656 137.621 114.216 137.456 114.888 137.456C115.709 137.456 116.339 137.739 116.776 138.304C117.224 138.869 117.448 139.675 117.448 140.72V146H115.4V140.928C115.4 139.733 114.952 139.136 114.056 139.136C113.853 139.136 113.656 139.168 113.464 139.232C113.283 139.285 113.117 139.371 112.968 139.488C112.829 139.595 112.717 139.733 112.632 139.904C112.547 140.064 112.504 140.256 112.504 140.48V146H110.456V140.928C110.456 139.733 110.008 139.136 109.112 139.136C108.92 139.136 108.728 139.168 108.536 139.232C108.355 139.285 108.189 139.371 108.04 139.488C107.901 139.595 107.784 139.733 107.688 139.904C107.603 140.064 107.56 140.256 107.56 140.48V146H105.512ZM124.521 136.432C124.094 136.432 123.785 136.336 123.593 136.144C123.411 135.952 123.321 135.707 123.321 135.408V135.088C123.321 134.789 123.411 134.544 123.593 134.352C123.785 134.16 124.094 134.064 124.521 134.064C124.937 134.064 125.241 134.16 125.433 134.352C125.625 134.544 125.721 134.789 125.721 135.088V135.408C125.721 135.707 125.625 135.952 125.433 136.144C125.241 136.336 124.937 136.432 124.521 136.432ZM123.497 137.648H125.545V146H123.497V137.648ZM127.918 137.648H129.966V139.024H130.03C130.18 138.544 130.462 138.165 130.878 137.888C131.294 137.6 131.78 137.456 132.334 137.456C133.401 137.456 134.212 137.835 134.766 138.592C135.332 139.339 135.614 140.411 135.614 141.808C135.614 143.216 135.332 144.299 134.766 145.056C134.212 145.813 133.401 146.192 132.334 146.192C131.78 146.192 131.294 146.048 130.878 145.76C130.473 145.472 130.19 145.088 130.03 144.608H129.966V149.2H127.918V137.648ZM131.678 144.496C132.212 144.496 132.644 144.32 132.974 143.968C133.305 143.616 133.47 143.141 133.47 142.544V141.104C133.47 140.507 133.305 140.032 132.974 139.68C132.644 139.317 132.212 139.136 131.678 139.136C131.188 139.136 130.777 139.259 130.446 139.504C130.126 139.749 129.966 140.075 129.966 140.48V143.136C129.966 143.573 130.126 143.909 130.446 144.144C130.777 144.379 131.188 144.496 131.678 144.496ZM140.248 146.192C139.448 146.192 138.776 146.059 138.232 145.792C137.688 145.515 137.208 145.136 136.792 144.656L138.04 143.44C138.349 143.792 138.685 144.069 139.048 144.272C139.421 144.475 139.848 144.576 140.328 144.576C140.819 144.576 141.171 144.491 141.384 144.32C141.608 144.149 141.72 143.915 141.72 143.616C141.72 143.371 141.64 143.179 141.48 143.04C141.331 142.891 141.069 142.789 140.696 142.736L139.864 142.624C138.957 142.507 138.264 142.251 137.784 141.856C137.315 141.451 137.08 140.864 137.08 140.096C137.08 139.691 137.155 139.328 137.304 139.008C137.453 138.677 137.667 138.4 137.944 138.176C138.221 137.941 138.552 137.765 138.936 137.648C139.331 137.52 139.768 137.456 140.248 137.456C140.653 137.456 141.011 137.488 141.32 137.552C141.64 137.605 141.928 137.691 142.184 137.808C142.44 137.915 142.675 138.053 142.888 138.224C143.101 138.384 143.309 138.565 143.512 138.768L142.312 139.968C142.067 139.712 141.773 139.499 141.432 139.328C141.091 139.157 140.717 139.072 140.312 139.072C139.864 139.072 139.539 139.152 139.336 139.312C139.144 139.472 139.048 139.68 139.048 139.936C139.048 140.213 139.128 140.427 139.288 140.576C139.459 140.715 139.741 140.816 140.136 140.88L140.984 140.992C142.787 141.248 143.688 142.069 143.688 143.456C143.688 143.861 143.603 144.235 143.432 144.576C143.272 144.907 143.043 145.195 142.744 145.44C142.445 145.675 142.083 145.861 141.656 146C141.24 146.128 140.771 146.192 140.248 146.192ZM150.489 144.608H150.409C150.334 144.821 150.233 145.024 150.105 145.216C149.987 145.397 149.833 145.563 149.641 145.712C149.459 145.861 149.235 145.979 148.969 146.064C148.713 146.149 148.414 146.192 148.073 146.192C147.209 146.192 146.547 145.909 146.089 145.344C145.63 144.779 145.401 143.973 145.401 142.928V137.648H147.449V142.72C147.449 143.296 147.561 143.739 147.785 144.048C148.009 144.347 148.366 144.496 148.857 144.496C149.059 144.496 149.257 144.469 149.449 144.416C149.651 144.363 149.827 144.283 149.977 144.176C150.126 144.059 150.249 143.92 150.345 143.76C150.441 143.589 150.489 143.392 150.489 143.168V137.648H152.536V146H150.489V144.608ZM154.903 146V137.648H156.951V139.04H157.031C157.191 138.603 157.447 138.229 157.799 137.92C158.151 137.611 158.641 137.456 159.271 137.456C159.847 137.456 160.343 137.595 160.759 137.872C161.175 138.149 161.484 138.571 161.687 139.136H161.719C161.868 138.667 162.161 138.272 162.599 137.952C163.047 137.621 163.607 137.456 164.279 137.456C165.1 137.456 165.729 137.739 166.167 138.304C166.615 138.869 166.839 139.675 166.839 140.72V146H164.791V140.928C164.791 139.733 164.343 139.136 163.447 139.136C163.244 139.136 163.047 139.168 162.855 139.232C162.673 139.285 162.508 139.371 162.359 139.488C162.22 139.595 162.108 139.733 162.023 139.904C161.937 140.064 161.895 140.256 161.895 140.48V146H159.847V140.928C159.847 139.733 159.399 139.136 158.503 139.136C158.311 139.136 158.119 139.168 157.927 139.232C157.745 139.285 157.58 139.371 157.431 139.488C157.292 139.595 157.175 139.733 157.079 139.904C156.993 140.064 156.951 140.256 156.951 140.48V146H154.903ZM178.071 144.608H177.991C177.842 145.088 177.559 145.472 177.143 145.76C176.727 146.048 176.242 146.192 175.687 146.192C174.631 146.192 173.82 145.813 173.255 145.056C172.7 144.299 172.423 143.216 172.423 141.808C172.423 140.411 172.7 139.339 173.255 138.592C173.82 137.835 174.631 137.456 175.687 137.456C176.242 137.456 176.727 137.6 177.143 137.888C177.559 138.165 177.842 138.544 177.991 139.024H178.071V134.16H180.119V146H178.071V144.608ZM176.343 144.496C176.834 144.496 177.244 144.379 177.575 144.144C177.906 143.909 178.071 143.573 178.071 143.136V140.48C178.071 140.075 177.906 139.749 177.575 139.504C177.244 139.259 176.834 139.136 176.343 139.136C175.81 139.136 175.378 139.317 175.047 139.68C174.727 140.032 174.567 140.507 174.567 141.104V142.544C174.567 143.141 174.727 143.616 175.047 143.968C175.378 144.32 175.81 144.496 176.343 144.496ZM185.793 146.192C185.196 146.192 184.657 146.091 184.177 145.888C183.708 145.685 183.302 145.392 182.961 145.008C182.63 144.624 182.374 144.165 182.193 143.632C182.012 143.088 181.921 142.48 181.921 141.808C181.921 141.136 182.012 140.533 182.193 140C182.374 139.467 182.63 139.013 182.961 138.64C183.302 138.256 183.708 137.963 184.177 137.76C184.657 137.557 185.196 137.456 185.793 137.456C186.39 137.456 186.929 137.557 187.409 137.76C187.889 137.963 188.294 138.256 188.625 138.64C188.966 139.013 189.228 139.467 189.409 140C189.59 140.533 189.681 141.136 189.681 141.808C189.681 142.48 189.59 143.088 189.409 143.632C189.228 144.165 188.966 144.624 188.625 145.008C188.294 145.392 187.889 145.685 187.409 145.888C186.929 146.091 186.39 146.192 185.793 146.192ZM185.793 144.544C186.337 144.544 186.764 144.379 187.073 144.048C187.382 143.717 187.537 143.232 187.537 142.592V141.04C187.537 140.411 187.382 139.931 187.073 139.6C186.764 139.269 186.337 139.104 185.793 139.104C185.26 139.104 184.838 139.269 184.529 139.6C184.22 139.931 184.065 140.411 184.065 141.04V142.592C184.065 143.232 184.22 143.717 184.529 144.048C184.838 144.379 185.26 144.544 185.793 144.544ZM193.545 146C192.841 146 192.323 145.824 191.993 145.472C191.662 145.12 191.497 144.624 191.497 143.984V134.16H193.545V144.368H194.649V146H193.545ZM199.512 146.192C198.914 146.192 198.376 146.091 197.896 145.888C197.426 145.685 197.021 145.392 196.68 145.008C196.349 144.624 196.093 144.165 195.912 143.632C195.73 143.088 195.64 142.48 195.64 141.808C195.64 141.136 195.73 140.533 195.912 140C196.093 139.467 196.349 139.013 196.68 138.64C197.021 138.256 197.426 137.963 197.896 137.76C198.376 137.557 198.914 137.456 199.512 137.456C200.109 137.456 200.648 137.557 201.128 137.76C201.608 137.963 202.013 138.256 202.344 138.64C202.685 139.013 202.946 139.467 203.128 140C203.309 140.533 203.4 141.136 203.4 141.808C203.4 142.48 203.309 143.088 203.128 143.632C202.946 144.165 202.685 144.624 202.344 145.008C202.013 145.392 201.608 145.685 201.128 145.888C200.648 146.091 200.109 146.192 199.512 146.192ZM199.512 144.544C200.056 144.544 200.482 144.379 200.792 144.048C201.101 143.717 201.256 143.232 201.256 142.592V141.04C201.256 140.411 201.101 139.931 200.792 139.6C200.482 139.269 200.056 139.104 199.512 139.104C198.978 139.104 198.557 139.269 198.248 139.6C197.938 139.931 197.784 140.411 197.784 141.04V142.592C197.784 143.232 197.938 143.717 198.248 144.048C198.557 144.379 198.978 144.544 199.512 144.544ZM205.215 146V137.648H207.263V139.376H207.343C207.397 139.152 207.477 138.939 207.583 138.736C207.701 138.523 207.85 138.336 208.031 138.176C208.213 138.016 208.426 137.888 208.671 137.792C208.927 137.696 209.221 137.648 209.551 137.648H209.999V139.584H209.359C208.666 139.584 208.143 139.685 207.791 139.888C207.439 140.091 207.263 140.421 207.263 140.88V146H205.215ZM218.014 146.192C217.214 146.192 216.542 146.059 215.998 145.792C215.454 145.515 214.974 145.136 214.558 144.656L215.806 143.44C216.115 143.792 216.451 144.069 216.814 144.272C217.187 144.475 217.614 144.576 218.094 144.576C218.584 144.576 218.936 144.491 219.15 144.32C219.374 144.149 219.486 143.915 219.486 143.616C219.486 143.371 219.406 143.179 219.246 143.04C219.096 142.891 218.835 142.789 218.462 142.736L217.63 142.624C216.723 142.507 216.03 142.251 215.55 141.856C215.08 141.451 214.846 140.864 214.846 140.096C214.846 139.691 214.92 139.328 215.07 139.008C215.219 138.677 215.432 138.4 215.71 138.176C215.987 137.941 216.318 137.765 216.702 137.648C217.096 137.52 217.534 137.456 218.014 137.456C218.419 137.456 218.776 137.488 219.086 137.552C219.406 137.605 219.694 137.691 219.95 137.808C220.206 137.915 220.44 138.053 220.654 138.224C220.867 138.384 221.075 138.565 221.278 138.768L220.078 139.968C219.832 139.712 219.539 139.499 219.198 139.328C218.856 139.157 218.483 139.072 218.078 139.072C217.63 139.072 217.304 139.152 217.102 139.312C216.91 139.472 216.814 139.68 216.814 139.936C216.814 140.213 216.894 140.427 217.054 140.576C217.224 140.715 217.507 140.816 217.902 140.88L218.75 140.992C220.552 141.248 221.454 142.069 221.454 143.456C221.454 143.861 221.368 144.235 221.198 144.576C221.038 144.907 220.808 145.195 220.51 145.44C220.211 145.675 219.848 145.861 219.422 146C219.006 146.128 218.536 146.192 218.014 146.192ZM224.286 136.432C223.859 136.432 223.55 136.336 223.358 136.144C223.177 135.952 223.086 135.707 223.086 135.408V135.088C223.086 134.789 223.177 134.544 223.358 134.352C223.55 134.16 223.859 134.064 224.286 134.064C224.702 134.064 225.006 134.16 225.198 134.352C225.39 134.544 225.486 134.789 225.486 135.088V135.408C225.486 135.707 225.39 135.952 225.198 136.144C225.006 136.336 224.702 136.432 224.286 136.432ZM223.262 137.648H225.31V146H223.262V137.648ZM230.292 146C229.588 146 229.049 145.819 228.676 145.456C228.313 145.083 228.132 144.555 228.132 143.872V139.28H226.9V137.648H227.54C227.849 137.648 228.057 137.579 228.164 137.44C228.281 137.291 228.34 137.072 228.34 136.784V135.36H230.18V137.648H231.892V139.28H230.18V144.368H231.764V146H230.292ZM243.594 146C243.146 146 242.788 145.872 242.522 145.616C242.266 145.349 242.106 144.997 242.042 144.56H241.946C241.807 145.104 241.524 145.515 241.098 145.792C240.671 146.059 240.143 146.192 239.514 146.192C238.66 146.192 238.004 145.968 237.546 145.52C237.087 145.072 236.858 144.475 236.858 143.728C236.858 142.864 237.167 142.224 237.786 141.808C238.404 141.381 239.284 141.168 240.426 141.168H241.85V140.56C241.85 140.091 241.727 139.728 241.482 139.472C241.236 139.216 240.842 139.088 240.298 139.088C239.818 139.088 239.428 139.195 239.13 139.408C238.842 139.611 238.596 139.856 238.394 140.144L237.178 139.056C237.487 138.576 237.898 138.192 238.41 137.904C238.922 137.605 239.599 137.456 240.442 137.456C241.572 137.456 242.431 137.712 243.018 138.224C243.604 138.736 243.898 139.472 243.898 140.432V144.368H244.73V146H243.594ZM240.202 144.704C240.66 144.704 241.05 144.603 241.37 144.4C241.69 144.197 241.85 143.899 241.85 143.504V142.4H240.538C239.471 142.4 238.938 142.741 238.938 143.424V143.696C238.938 144.037 239.044 144.293 239.258 144.464C239.482 144.624 239.796 144.704 240.202 144.704ZM246.387 146V137.648H248.435V139.04H248.515C248.675 138.603 248.931 138.229 249.283 137.92C249.635 137.611 250.126 137.456 250.755 137.456C251.331 137.456 251.827 137.595 252.243 137.872C252.659 138.149 252.968 138.571 253.171 139.136H253.203C253.352 138.667 253.646 138.272 254.083 137.952C254.531 137.621 255.091 137.456 255.763 137.456C256.584 137.456 257.214 137.739 257.651 138.304C258.099 138.869 258.323 139.675 258.323 140.72V146H256.275V140.928C256.275 139.733 255.827 139.136 254.931 139.136C254.728 139.136 254.531 139.168 254.339 139.232C254.158 139.285 253.992 139.371 253.843 139.488C253.704 139.595 253.592 139.733 253.507 139.904C253.422 140.064 253.379 140.256 253.379 140.48V146H251.331V140.928C251.331 139.733 250.883 139.136 249.987 139.136C249.795 139.136 249.603 139.168 249.411 139.232C249.23 139.285 249.064 139.371 248.915 139.488C248.776 139.595 248.659 139.733 248.563 139.904C248.478 140.064 248.435 140.256 248.435 140.48V146H246.387ZM263.966 146.192C263.348 146.192 262.793 146.091 262.302 145.888C261.822 145.675 261.412 145.381 261.07 145.008C260.74 144.624 260.484 144.165 260.302 143.632C260.121 143.088 260.03 142.48 260.03 141.808C260.03 141.147 260.116 140.549 260.286 140.016C260.468 139.483 260.724 139.029 261.054 138.656C261.385 138.272 261.79 137.979 262.27 137.776C262.75 137.563 263.294 137.456 263.902 137.456C264.553 137.456 265.118 137.568 265.598 137.792C266.078 138.016 266.473 138.32 266.782 138.704C267.092 139.088 267.321 139.536 267.47 140.048C267.63 140.549 267.71 141.088 267.71 141.664V142.336H262.158V142.544C262.158 143.152 262.329 143.643 262.67 144.016C263.012 144.379 263.518 144.56 264.19 144.56C264.702 144.56 265.118 144.453 265.438 144.24C265.769 144.027 266.062 143.755 266.318 143.424L267.422 144.656C267.081 145.136 266.612 145.515 266.014 145.792C265.428 146.059 264.745 146.192 263.966 146.192ZM263.934 138.992C263.39 138.992 262.958 139.173 262.638 139.536C262.318 139.899 262.158 140.368 262.158 140.944V141.072H265.582V140.928C265.582 140.352 265.438 139.888 265.15 139.536C264.873 139.173 264.468 138.992 263.934 138.992ZM272.12 146C271.416 146 270.877 145.819 270.504 145.456C270.141 145.083 269.96 144.555 269.96 143.872V139.28H268.728V137.648H269.368C269.677 137.648 269.885 137.579 269.992 137.44C270.109 137.291 270.168 137.072 270.168 136.784V135.36H272.008V137.648H273.72V139.28H272.008V144.368H273.592V146H272.12Z" fill="#1A1A1A"/>
<rect width="386" height="56" transform="translate(16 272)" fill="#E2F2FB"/>
<path d="M24 272H16V328H24V272Z" fill="#1B86C3"/>
<path d="M52 310C50.0222 310 48.0888 309.414 46.4443 308.315C44.7998 307.216 43.5181 305.654 42.7612 303.827C42.0043 302 41.8063 299.989 42.1922 298.049C42.578 296.109 43.5304 294.327 44.9289 292.929C46.3275 291.53 48.1093 290.578 50.0491 290.192C51.9889 289.806 53.9996 290.004 55.8268 290.761C57.6541 291.518 59.2159 292.8 60.3147 294.444C61.4135 296.089 62 298.022 62 300C61.9971 302.651 60.9426 305.193 59.0679 307.068C57.1931 308.943 54.6513 309.997 52 310V310ZM52 292C50.4178 292 48.871 292.469 47.5554 293.348C46.2398 294.227 45.2145 295.477 44.609 296.939C44.0035 298.4 43.845 300.009 44.1537 301.561C44.4624 303.113 45.2243 304.538 46.3432 305.657C47.462 306.776 48.8874 307.538 50.4393 307.846C51.9911 308.155 53.5997 307.997 55.0615 307.391C56.5233 306.786 57.7727 305.76 58.6518 304.445C59.5308 303.129 60 301.582 60 300C59.9976 297.879 59.154 295.846 57.6542 294.346C56.1545 292.846 54.121 292.002 52 292V292ZM53 305H51V299H53V305ZM53 297H51V295H53V297Z" fill="#1A1A1A"/>
<path d="M73.312 306V294.832H75.424V304.128H79.824V306H73.312ZM84.6835 306.192C84.0862 306.192 83.5475 306.091 83.0675 305.888C82.5982 305.685 82.1928 305.392 81.8515 305.008C81.5208 304.624 81.2648 304.165 81.0835 303.632C80.9022 303.088 80.8115 302.48 80.8115 301.808C80.8115 301.136 80.9022 300.533 81.0835 300C81.2648 299.467 81.5208 299.013 81.8515 298.64C82.1928 298.256 82.5982 297.963 83.0675 297.76C83.5475 297.557 84.0862 297.456 84.6835 297.456C85.2808 297.456 85.8195 297.557 86.2995 297.76C86.7795 297.963 87.1848 298.256 87.5155 298.64C87.8568 299.013 88.1182 299.467 88.2995 300C88.4808 300.533 88.5715 301.136 88.5715 301.808C88.5715 302.48 88.4808 303.088 88.2995 303.632C88.1182 304.165 87.8568 304.624 87.5155 305.008C87.1848 305.392 86.7795 305.685 86.2995 305.888C85.8195 306.091 85.2808 306.192 84.6835 306.192ZM84.6835 304.544C85.2275 304.544 85.6542 304.379 85.9635 304.048C86.2728 303.717 86.4275 303.232 86.4275 302.592V301.04C86.4275 300.411 86.2728 299.931 85.9635 299.6C85.6542 299.269 85.2275 299.104 84.6835 299.104C84.1502 299.104 83.7288 299.269 83.4195 299.6C83.1102 299.931 82.9555 300.411 82.9555 301.04V302.592C82.9555 303.232 83.1102 303.717 83.4195 304.048C83.7288 304.379 84.1502 304.544 84.6835 304.544ZM90.3871 306V297.648H92.4351V299.376H92.5151C92.5685 299.152 92.6485 298.939 92.7551 298.736C92.8725 298.523 93.0218 298.336 93.2031 298.176C93.3845 298.016 93.5978 297.888 93.8431 297.792C94.0991 297.696 94.3925 297.648 94.7231 297.648H95.1711V299.584H94.5311C93.8378 299.584 93.3151 299.685 92.9631 299.888C92.6111 300.091 92.4351 300.421 92.4351 300.88V306H90.3871ZM99.9663 306.192C99.3476 306.192 98.7929 306.091 98.3023 305.888C97.8223 305.675 97.4116 305.381 97.0703 305.008C96.7396 304.624 96.4836 304.165 96.3023 303.632C96.1209 303.088 96.0303 302.48 96.0303 301.808C96.0303 301.147 96.1156 300.549 96.2863 300.016C96.4676 299.483 96.7236 299.029 97.0543 298.656C97.3849 298.272 97.7903 297.979 98.2703 297.776C98.7503 297.563 99.2943 297.456 99.9023 297.456C100.553 297.456 101.118 297.568 101.598 297.792C102.078 298.016 102.473 298.32 102.782 298.704C103.092 299.088 103.321 299.536 103.47 300.048C103.63 300.549 103.71 301.088 103.71 301.664V302.336H98.1583V302.544C98.1583 303.152 98.3289 303.643 98.6703 304.016C99.0116 304.379 99.5183 304.56 100.19 304.56C100.702 304.56 101.118 304.453 101.438 304.24C101.769 304.027 102.062 303.755 102.318 303.424L103.422 304.656C103.081 305.136 102.612 305.515 102.014 305.792C101.428 306.059 100.745 306.192 99.9663 306.192ZM99.9343 298.992C99.3903 298.992 98.9583 299.173 98.6383 299.536C98.3183 299.899 98.1583 300.368 98.1583 300.944V301.072H101.582V300.928C101.582 300.352 101.438 299.888 101.15 299.536C100.873 299.173 100.468 298.992 99.9343 298.992ZM105.512 306V297.648H107.56V299.04H107.64C107.8 298.603 108.056 298.229 108.408 297.92C108.76 297.611 109.251 297.456 109.88 297.456C110.456 297.456 110.952 297.595 111.368 297.872C111.784 298.149 112.093 298.571 112.296 299.136H112.328C112.477 298.667 112.771 298.272 113.208 297.952C113.656 297.621 114.216 297.456 114.888 297.456C115.709 297.456 116.339 297.739 116.776 298.304C117.224 298.869 117.448 299.675 117.448 300.72V306H115.4V300.928C115.4 299.733 114.952 299.136 114.056 299.136C113.853 299.136 113.656 299.168 113.464 299.232C113.283 299.285 113.117 299.371 112.968 299.488C112.829 299.595 112.717 299.733 112.632 299.904C112.547 300.064 112.504 300.256 112.504 300.48V306H110.456V300.928C110.456 299.733 110.008 299.136 109.112 299.136C108.92 299.136 108.728 299.168 108.536 299.232C108.355 299.285 108.189 299.371 108.04 299.488C107.901 299.595 107.784 299.733 107.688 299.904C107.603 300.064 107.56 300.256 107.56 300.48V306H105.512ZM124.521 296.432C124.094 296.432 123.785 296.336 123.593 296.144C123.411 295.952 123.321 295.707 123.321 295.408V295.088C123.321 294.789 123.411 294.544 123.593 294.352C123.785 294.16 124.094 294.064 124.521 294.064C124.937 294.064 125.241 294.16 125.433 294.352C125.625 294.544 125.721 294.789 125.721 295.088V295.408C125.721 295.707 125.625 295.952 125.433 296.144C125.241 296.336 124.937 296.432 124.521 296.432ZM123.497 297.648H125.545V306H123.497V297.648ZM127.918 297.648H129.966V299.024H130.03C130.18 298.544 130.462 298.165 130.878 297.888C131.294 297.6 131.78 297.456 132.334 297.456C133.401 297.456 134.212 297.835 134.766 298.592C135.332 299.339 135.614 300.411 135.614 301.808C135.614 303.216 135.332 304.299 134.766 305.056C134.212 305.813 133.401 306.192 132.334 306.192C131.78 306.192 131.294 306.048 130.878 305.76C130.473 305.472 130.19 305.088 130.03 304.608H129.966V309.2H127.918V297.648ZM131.678 304.496C132.212 304.496 132.644 304.32 132.974 303.968C133.305 303.616 133.47 303.141 133.47 302.544V301.104C133.47 300.507 133.305 300.032 132.974 299.68C132.644 299.317 132.212 299.136 131.678 299.136C131.188 299.136 130.777 299.259 130.446 299.504C130.126 299.749 129.966 300.075 129.966 300.48V303.136C129.966 303.573 130.126 303.909 130.446 304.144C130.777 304.379 131.188 304.496 131.678 304.496ZM140.248 306.192C139.448 306.192 138.776 306.059 138.232 305.792C137.688 305.515 137.208 305.136 136.792 304.656L138.04 303.44C138.349 303.792 138.685 304.069 139.048 304.272C139.421 304.475 139.848 304.576 140.328 304.576C140.819 304.576 141.171 304.491 141.384 304.32C141.608 304.149 141.72 303.915 141.72 303.616C141.72 303.371 141.64 303.179 141.48 303.04C141.331 302.891 141.069 302.789 140.696 302.736L139.864 302.624C138.957 302.507 138.264 302.251 137.784 301.856C137.315 301.451 137.08 300.864 137.08 300.096C137.08 299.691 137.155 299.328 137.304 299.008C137.453 298.677 137.667 298.4 137.944 298.176C138.221 297.941 138.552 297.765 138.936 297.648C139.331 297.52 139.768 297.456 140.248 297.456C140.653 297.456 141.011 297.488 141.32 297.552C141.64 297.605 141.928 297.691 142.184 297.808C142.44 297.915 142.675 298.053 142.888 298.224C143.101 298.384 143.309 298.565 143.512 298.768L142.312 299.968C142.067 299.712 141.773 299.499 141.432 299.328C141.091 299.157 140.717 299.072 140.312 299.072C139.864 299.072 139.539 299.152 139.336 299.312C139.144 299.472 139.048 299.68 139.048 299.936C139.048 300.213 139.128 300.427 139.288 300.576C139.459 300.715 139.741 300.816 140.136 300.88L140.984 300.992C142.787 301.248 143.688 302.069 143.688 303.456C143.688 303.861 143.603 304.235 143.432 304.576C143.272 304.907 143.043 305.195 142.744 305.44C142.445 305.675 142.083 305.861 141.656 306C141.24 306.128 140.771 306.192 140.248 306.192ZM150.489 304.608H150.409C150.334 304.821 150.233 305.024 150.105 305.216C149.987 305.397 149.833 305.563 149.641 305.712C149.459 305.861 149.235 305.979 148.969 306.064C148.713 306.149 148.414 306.192 148.073 306.192C147.209 306.192 146.547 305.909 146.089 305.344C145.63 304.779 145.401 303.973 145.401 302.928V297.648H147.449V302.72C147.449 303.296 147.561 303.739 147.785 304.048C148.009 304.347 148.366 304.496 148.857 304.496C149.059 304.496 149.257 304.469 149.449 304.416C149.651 304.363 149.827 304.283 149.977 304.176C150.126 304.059 150.249 303.92 150.345 303.76C150.441 303.589 150.489 303.392 150.489 303.168V297.648H152.536V306H150.489V304.608ZM154.903 306V297.648H156.951V299.04H157.031C157.191 298.603 157.447 298.229 157.799 297.92C158.151 297.611 158.641 297.456 159.271 297.456C159.847 297.456 160.343 297.595 160.759 297.872C161.175 298.149 161.484 298.571 161.687 299.136H161.719C161.868 298.667 162.161 298.272 162.599 297.952C163.047 297.621 163.607 297.456 164.279 297.456C165.1 297.456 165.729 297.739 166.167 298.304C166.615 298.869 166.839 299.675 166.839 300.72V306H164.791V300.928C164.791 299.733 164.343 299.136 163.447 299.136C163.244 299.136 163.047 299.168 162.855 299.232C162.673 299.285 162.508 299.371 162.359 299.488C162.22 299.595 162.108 299.733 162.023 299.904C161.937 300.064 161.895 300.256 161.895 300.48V306H159.847V300.928C159.847 299.733 159.399 299.136 158.503 299.136C158.311 299.136 158.119 299.168 157.927 299.232C157.745 299.285 157.58 299.371 157.431 299.488C157.292 299.595 157.175 299.733 157.079 299.904C156.993 300.064 156.951 300.256 156.951 300.48V306H154.903ZM178.071 304.608H177.991C177.842 305.088 177.559 305.472 177.143 305.76C176.727 306.048 176.242 306.192 175.687 306.192C174.631 306.192 173.82 305.813 173.255 305.056C172.7 304.299 172.423 303.216 172.423 301.808C172.423 300.411 172.7 299.339 173.255 298.592C173.82 297.835 174.631 297.456 175.687 297.456C176.242 297.456 176.727 297.6 177.143 297.888C177.559 298.165 177.842 298.544 177.991 299.024H178.071V294.16H180.119V306H178.071V304.608ZM176.343 304.496C176.834 304.496 177.244 304.379 177.575 304.144C177.906 303.909 178.071 303.573 178.071 303.136V300.48C178.071 300.075 177.906 299.749 177.575 299.504C177.244 299.259 176.834 299.136 176.343 299.136C175.81 299.136 175.378 299.317 175.047 299.68C174.727 300.032 174.567 300.507 174.567 301.104V302.544C174.567 303.141 174.727 303.616 175.047 303.968C175.378 304.32 175.81 304.496 176.343 304.496ZM185.793 306.192C185.196 306.192 184.657 306.091 184.177 305.888C183.708 305.685 183.302 305.392 182.961 305.008C182.63 304.624 182.374 304.165 182.193 303.632C182.012 303.088 181.921 302.48 181.921 301.808C181.921 301.136 182.012 300.533 182.193 300C182.374 299.467 182.63 299.013 182.961 298.64C183.302 298.256 183.708 297.963 184.177 297.76C184.657 297.557 185.196 297.456 185.793 297.456C186.39 297.456 186.929 297.557 187.409 297.76C187.889 297.963 188.294 298.256 188.625 298.64C188.966 299.013 189.228 299.467 189.409 300C189.59 300.533 189.681 301.136 189.681 301.808C189.681 302.48 189.59 303.088 189.409 303.632C189.228 304.165 188.966 304.624 188.625 305.008C188.294 305.392 187.889 305.685 187.409 305.888C186.929 306.091 186.39 306.192 185.793 306.192ZM185.793 304.544C186.337 304.544 186.764 304.379 187.073 304.048C187.382 303.717 187.537 303.232 187.537 302.592V301.04C187.537 300.411 187.382 299.931 187.073 299.6C186.764 299.269 186.337 299.104 185.793 299.104C185.26 299.104 184.838 299.269 184.529 299.6C184.22 299.931 184.065 300.411 184.065 301.04V302.592C184.065 303.232 184.22 303.717 184.529 304.048C184.838 304.379 185.26 304.544 185.793 304.544ZM193.545 306C192.841 306 192.323 305.824 191.993 305.472C191.662 305.12 191.497 304.624 191.497 303.984V294.16H193.545V304.368H194.649V306H193.545ZM199.512 306.192C198.914 306.192 198.376 306.091 197.896 305.888C197.426 305.685 197.021 305.392 196.68 305.008C196.349 304.624 196.093 304.165 195.912 303.632C195.73 303.088 195.64 302.48 195.64 301.808C195.64 301.136 195.73 300.533 195.912 300C196.093 299.467 196.349 299.013 196.68 298.64C197.021 298.256 197.426 297.963 197.896 297.76C198.376 297.557 198.914 297.456 199.512 297.456C200.109 297.456 200.648 297.557 201.128 297.76C201.608 297.963 202.013 298.256 202.344 298.64C202.685 299.013 202.946 299.467 203.128 300C203.309 300.533 203.4 301.136 203.4 301.808C203.4 302.48 203.309 303.088 203.128 303.632C202.946 304.165 202.685 304.624 202.344 305.008C202.013 305.392 201.608 305.685 201.128 305.888C200.648 306.091 200.109 306.192 199.512 306.192ZM199.512 304.544C200.056 304.544 200.482 304.379 200.792 304.048C201.101 303.717 201.256 303.232 201.256 302.592V301.04C201.256 300.411 201.101 299.931 200.792 299.6C200.482 299.269 200.056 299.104 199.512 299.104C198.978 299.104 198.557 299.269 198.248 299.6C197.938 299.931 197.784 300.411 197.784 301.04V302.592C197.784 303.232 197.938 303.717 198.248 304.048C198.557 304.379 198.978 304.544 199.512 304.544ZM205.215 306V297.648H207.263V299.376H207.343C207.397 299.152 207.477 298.939 207.583 298.736C207.701 298.523 207.85 298.336 208.031 298.176C208.213 298.016 208.426 297.888 208.671 297.792C208.927 297.696 209.221 297.648 209.551 297.648H209.999V299.584H209.359C208.666 299.584 208.143 299.685 207.791 299.888C207.439 300.091 207.263 300.421 207.263 300.88V306H205.215ZM218.014 306.192C217.214 306.192 216.542 306.059 215.998 305.792C215.454 305.515 214.974 305.136 214.558 304.656L215.806 303.44C216.115 303.792 216.451 304.069 216.814 304.272C217.187 304.475 217.614 304.576 218.094 304.576C218.584 304.576 218.936 304.491 219.15 304.32C219.374 304.149 219.486 303.915 219.486 303.616C219.486 303.371 219.406 303.179 219.246 303.04C219.096 302.891 218.835 302.789 218.462 302.736L217.63 302.624C216.723 302.507 216.03 302.251 215.55 301.856C215.08 301.451 214.846 300.864 214.846 300.096C214.846 299.691 214.92 299.328 215.07 299.008C215.219 298.677 215.432 298.4 215.71 298.176C215.987 297.941 216.318 297.765 216.702 297.648C217.096 297.52 217.534 297.456 218.014 297.456C218.419 297.456 218.776 297.488 219.086 297.552C219.406 297.605 219.694 297.691 219.95 297.808C220.206 297.915 220.44 298.053 220.654 298.224C220.867 298.384 221.075 298.565 221.278 298.768L220.078 299.968C219.832 299.712 219.539 299.499 219.198 299.328C218.856 299.157 218.483 299.072 218.078 299.072C217.63 299.072 217.304 299.152 217.102 299.312C216.91 299.472 216.814 299.68 216.814 299.936C216.814 300.213 216.894 300.427 217.054 300.576C217.224 300.715 217.507 300.816 217.902 300.88L218.75 300.992C220.552 301.248 221.454 302.069 221.454 303.456C221.454 303.861 221.368 304.235 221.198 304.576C221.038 304.907 220.808 305.195 220.51 305.44C220.211 305.675 219.848 305.861 219.422 306C219.006 306.128 218.536 306.192 218.014 306.192ZM224.286 296.432C223.859 296.432 223.55 296.336 223.358 296.144C223.177 295.952 223.086 295.707 223.086 295.408V295.088C223.086 294.789 223.177 294.544 223.358 294.352C223.55 294.16 223.859 294.064 224.286 294.064C224.702 294.064 225.006 294.16 225.198 294.352C225.39 294.544 225.486 294.789 225.486 295.088V295.408C225.486 295.707 225.39 295.952 225.198 296.144C225.006 296.336 224.702 296.432 224.286 296.432ZM223.262 297.648H225.31V306H223.262V297.648ZM230.292 306C229.588 306 229.049 305.819 228.676 305.456C228.313 305.083 228.132 304.555 228.132 303.872V299.28H226.9V297.648H227.54C227.849 297.648 228.057 297.579 228.164 297.44C228.281 297.291 228.34 297.072 228.34 296.784V295.36H230.18V297.648H231.892V299.28H230.18V304.368H231.764V306H230.292ZM243.594 306C243.146 306 242.788 305.872 242.522 305.616C242.266 305.349 242.106 304.997 242.042 304.56H241.946C241.807 305.104 241.524 305.515 241.098 305.792C240.671 306.059 240.143 306.192 239.514 306.192C238.66 306.192 238.004 305.968 237.546 305.52C237.087 305.072 236.858 304.475 236.858 303.728C236.858 302.864 237.167 302.224 237.786 301.808C238.404 301.381 239.284 301.168 240.426 301.168H241.85V300.56C241.85 300.091 241.727 299.728 241.482 299.472C241.236 299.216 240.842 299.088 240.298 299.088C239.818 299.088 239.428 299.195 239.13 299.408C238.842 299.611 238.596 299.856 238.394 300.144L237.178 299.056C237.487 298.576 237.898 298.192 238.41 297.904C238.922 297.605 239.599 297.456 240.442 297.456C241.572 297.456 242.431 297.712 243.018 298.224C243.604 298.736 243.898 299.472 243.898 300.432V304.368H244.73V306H243.594ZM240.202 304.704C240.66 304.704 241.05 304.603 241.37 304.4C241.69 304.197 241.85 303.899 241.85 303.504V302.4H240.538C239.471 302.4 238.938 302.741 238.938 303.424V303.696C238.938 304.037 239.044 304.293 239.258 304.464C239.482 304.624 239.796 304.704 240.202 304.704ZM246.387 306V297.648H248.435V299.04H248.515C248.675 298.603 248.931 298.229 249.283 297.92C249.635 297.611 250.126 297.456 250.755 297.456C251.331 297.456 251.827 297.595 252.243 297.872C252.659 298.149 252.968 298.571 253.171 299.136H253.203C253.352 298.667 253.646 298.272 254.083 297.952C254.531 297.621 255.091 297.456 255.763 297.456C256.584 297.456 257.214 297.739 257.651 298.304C258.099 298.869 258.323 299.675 258.323 300.72V306H256.275V300.928C256.275 299.733 255.827 299.136 254.931 299.136C254.728 299.136 254.531 299.168 254.339 299.232C254.158 299.285 253.992 299.371 253.843 299.488C253.704 299.595 253.592 299.733 253.507 299.904C253.422 300.064 253.379 300.256 253.379 300.48V306H251.331V300.928C251.331 299.733 250.883 299.136 249.987 299.136C249.795 299.136 249.603 299.168 249.411 299.232C249.23 299.285 249.064 299.371 248.915 299.488C248.776 299.595 248.659 299.733 248.563 299.904C248.478 300.064 248.435 300.256 248.435 300.48V306H246.387ZM263.966 306.192C263.348 306.192 262.793 306.091 262.302 305.888C261.822 305.675 261.412 305.381 261.07 305.008C260.74 304.624 260.484 304.165 260.302 303.632C260.121 303.088 260.03 302.48 260.03 301.808C260.03 301.147 260.116 300.549 260.286 300.016C260.468 299.483 260.724 299.029 261.054 298.656C261.385 298.272 261.79 297.979 262.27 297.776C262.75 297.563 263.294 297.456 263.902 297.456C264.553 297.456 265.118 297.568 265.598 297.792C266.078 298.016 266.473 298.32 266.782 298.704C267.092 299.088 267.321 299.536 267.47 300.048C267.63 300.549 267.71 301.088 267.71 301.664V302.336H262.158V302.544C262.158 303.152 262.329 303.643 262.67 304.016C263.012 304.379 263.518 304.56 264.19 304.56C264.702 304.56 265.118 304.453 265.438 304.24C265.769 304.027 266.062 303.755 266.318 303.424L267.422 304.656C267.081 305.136 266.612 305.515 266.014 305.792C265.428 306.059 264.745 306.192 263.966 306.192ZM263.934 298.992C263.39 298.992 262.958 299.173 262.638 299.536C262.318 299.899 262.158 300.368 262.158 300.944V301.072H265.582V300.928C265.582 300.352 265.438 299.888 265.15 299.536C264.873 299.173 264.468 298.992 263.934 298.992ZM272.12 306C271.416 306 270.877 305.819 270.504 305.456C270.141 305.083 269.96 304.555 269.96 303.872V299.28H268.728V297.648H269.368C269.677 297.648 269.885 297.579 269.992 297.44C270.109 297.291 270.168 297.072 270.168 296.784V295.36H272.008V297.648H273.72V299.28H272.008V304.368H273.592V306H272.12Z" fill="#1A1A1A"/>
</svg>
