<svg width="418" height="277" viewBox="0 0 418 277" fill="none" xmlns="http://www.w3.org/2000/svg">
<rect width="418" height="277" fill="white"/>
<rect x="16.5" y="78.5" width="52" height="39" rx="3.5" stroke="#747474"/>
<path d="M36.8 103.192C35.4667 103.192 34.4907 102.685 33.872 101.672C33.264 100.659 32.96 99.24 32.96 97.416C32.96 95.592 33.264 94.1733 33.872 93.16C34.4907 92.1467 35.4667 91.64 36.8 91.64C38.1333 91.64 39.104 92.1467 39.712 93.16C40.3307 94.1733 40.64 95.592 40.64 97.416C40.64 99.24 40.3307 100.659 39.712 101.672C39.104 102.685 38.1333 103.192 36.8 103.192ZM36.8 102.024C37.2373 102.024 37.6107 101.933 37.92 101.752C38.2293 101.571 38.48 101.315 38.672 100.984C38.864 100.653 39.0027 100.264 39.088 99.816C39.184 99.368 39.232 98.872 39.232 98.328V96.504C39.232 95.96 39.184 95.464 39.088 95.016C39.0027 94.568 38.864 94.1787 38.672 93.848C38.48 93.5173 38.2293 93.2613 37.92 93.08C37.6107 92.8987 37.2373 92.808 36.8 92.808C36.3627 92.808 35.9893 92.8987 35.68 93.08C35.3707 93.2613 35.12 93.5173 34.928 93.848C34.736 94.1787 34.592 94.568 34.496 95.016C34.4107 95.464 34.368 95.96 34.368 96.504V98.328C34.368 98.872 34.4107 99.368 34.496 99.816C34.592 100.264 34.736 100.653 34.928 100.984C35.12 101.315 35.3707 101.571 35.68 101.752C35.9893 101.933 36.3627 102.024 36.8 102.024ZM50.1218 95.928C50.1218 96.76 49.9991 97.544 49.7538 98.28C49.5084 99.0053 49.1884 99.672 48.7938 100.28C48.4098 100.877 47.9831 101.411 47.5138 101.88C47.0444 102.339 46.5858 102.712 46.1378 103H44.4098C45.0071 102.563 45.5404 102.136 46.0098 101.72C46.4791 101.304 46.8898 100.872 47.2418 100.424C47.5938 99.9653 47.8924 99.48 48.1378 98.968C48.3831 98.4453 48.5804 97.8587 48.7298 97.208L48.6498 97.176C48.3831 97.6347 48.0364 98.0187 47.6098 98.328C47.1938 98.6267 46.6444 98.776 45.9618 98.776C45.4818 98.776 45.0391 98.696 44.6338 98.536C44.2284 98.376 43.8818 98.1467 43.5938 97.848C43.3058 97.5493 43.0764 97.192 42.9058 96.776C42.7458 96.3493 42.6658 95.8693 42.6658 95.336C42.6658 94.792 42.7511 94.296 42.9218 93.848C43.1031 93.3893 43.3538 93 43.6738 92.68C44.0044 92.3493 44.3938 92.0933 44.8418 91.912C45.3004 91.7307 45.8124 91.64 46.3778 91.64C46.9538 91.64 47.4711 91.7413 47.9298 91.944C48.3991 92.136 48.7938 92.4187 49.1138 92.792C49.4444 93.1547 49.6951 93.6027 49.8658 94.136C50.0364 94.6693 50.1218 95.2667 50.1218 95.928ZM46.3938 97.64C47.1298 97.64 47.7004 97.4373 48.1058 97.032C48.5218 96.6267 48.7298 96.0453 48.7298 95.288V95.16C48.7298 94.4027 48.5218 93.8213 48.1058 93.416C47.7004 93.0107 47.1298 92.808 46.3938 92.808C45.6578 92.808 45.0818 93.0107 44.6658 93.416C44.2604 93.8213 44.0578 94.4027 44.0578 95.16V95.288C44.0578 96.0453 44.2604 96.6267 44.6658 97.032C45.0818 97.4373 45.6578 97.64 46.3938 97.64Z" fill="#1A1A1A"/>
<path d="M17.488 52.832H21.232C21.9253 52.832 22.5547 52.9493 23.12 53.184C23.6853 53.4187 24.1653 53.7707 24.56 54.24C24.9653 54.6987 25.2747 55.28 25.488 55.984C25.7013 56.6773 25.808 57.488 25.808 58.416C25.808 59.344 25.7013 60.16 25.488 60.864C25.2747 61.5573 24.9653 62.1387 24.56 62.608C24.1653 63.0667 23.6853 63.4133 23.12 63.648C22.5547 63.8827 21.9253 64 21.232 64H17.488V52.832ZM21.232 62.816C21.6907 62.816 22.112 62.7413 22.496 62.592C22.88 62.432 23.2107 62.2027 23.488 61.904C23.7653 61.6053 23.9787 61.2427 24.128 60.816C24.288 60.3787 24.368 59.8827 24.368 59.328V57.504C24.368 56.9493 24.288 56.4587 24.128 56.032C23.9787 55.5947 23.7653 55.2267 23.488 54.928C23.2107 54.6293 22.88 54.4053 22.496 54.256C22.112 54.096 21.6907 54.016 21.232 54.016H18.832V62.816H21.232ZM34.0944 64C33.6144 64 33.2677 63.872 33.0544 63.616C32.8517 63.36 32.7237 63.04 32.6704 62.656H32.5904C32.409 63.168 32.1104 63.552 31.6944 63.808C31.2784 64.064 30.7824 64.192 30.2064 64.192C29.3317 64.192 28.649 63.968 28.1584 63.52C27.6784 63.072 27.4384 62.464 27.4384 61.696C27.4384 60.9173 27.721 60.32 28.2864 59.904C28.8624 59.488 29.753 59.28 30.9584 59.28H32.5904V58.464C32.5904 57.8773 32.4304 57.4293 32.1104 57.12C31.7904 56.8107 31.2997 56.656 30.6384 56.656C30.137 56.656 29.7157 56.768 29.3744 56.992C29.0437 57.216 28.7664 57.5147 28.5424 57.888L27.7744 57.168C27.9984 56.72 28.3557 56.3413 28.8464 56.032C29.337 55.712 29.9557 55.552 30.7024 55.552C31.705 55.552 32.4837 55.7973 33.0384 56.288C33.593 56.7787 33.8704 57.4613 33.8704 58.336V62.88H34.8144V64H34.0944ZM30.4144 63.104C30.7344 63.104 31.0277 63.0667 31.2944 62.992C31.561 62.9173 31.7904 62.8107 31.9824 62.672C32.1744 62.5333 32.3237 62.3733 32.4304 62.192C32.537 62.0107 32.5904 61.8133 32.5904 61.6V60.24H30.8944C30.1584 60.24 29.6197 60.3467 29.2784 60.56C28.9477 60.7733 28.7824 61.0827 28.7824 61.488V61.824C28.7824 62.2293 28.9264 62.544 29.2144 62.768C29.513 62.992 29.913 63.104 30.4144 63.104ZM43.6013 64.912C43.6013 65.7653 43.2653 66.3893 42.5933 66.784C41.9319 67.1893 40.9346 67.392 39.6013 67.392C38.3106 67.392 37.3826 67.216 36.8173 66.864C36.2519 66.512 35.9693 66.0107 35.9693 65.36C35.9693 64.912 36.0866 64.56 36.3213 64.304C36.5559 64.0587 36.8759 63.8773 37.2812 63.76V63.584C36.7906 63.3493 36.5453 62.9653 36.5453 62.432C36.5453 62.016 36.6786 61.7013 36.9453 61.488C37.2119 61.264 37.5533 61.0987 37.9693 60.992V60.928C37.4786 60.6933 37.0946 60.3573 36.8173 59.92C36.5506 59.4827 36.4173 58.976 36.4173 58.4C36.4173 57.984 36.4919 57.6 36.6413 57.248C36.7906 56.896 36.9986 56.5973 37.2653 56.352C37.5426 56.096 37.8679 55.8987 38.2413 55.76C38.6253 55.6213 39.0519 55.552 39.5213 55.552C40.1079 55.552 40.6306 55.6587 41.0893 55.872V55.728C41.0893 55.408 41.1639 55.1467 41.3133 54.944C41.4626 54.7307 41.7079 54.624 42.0493 54.624H43.2812V55.744H41.7133V56.272C42.0119 56.528 42.2413 56.8373 42.4013 57.2C42.5719 57.552 42.6573 57.952 42.6573 58.4C42.6573 58.816 42.5826 59.2 42.4333 59.552C42.2839 59.904 42.0706 60.208 41.7933 60.464C41.5266 60.7093 41.2013 60.9013 40.8173 61.04C40.4333 61.1787 40.0066 61.248 39.5373 61.248C39.2706 61.248 39.0039 61.2213 38.7373 61.168C38.4599 61.2427 38.2093 61.3547 37.9853 61.504C37.7613 61.6427 37.6493 61.84 37.6493 62.096C37.6493 62.3413 37.7666 62.5067 38.0013 62.592C38.2359 62.6773 38.5399 62.72 38.9133 62.72H40.6733C41.6973 62.72 42.4386 62.9173 42.8973 63.312C43.3666 63.696 43.6013 64.2293 43.6013 64.912ZM42.4013 65.008C42.4013 64.6773 42.2733 64.4107 42.0173 64.208C41.7719 64.016 41.3293 63.92 40.6893 63.92H37.9373C37.4253 64.1547 37.1693 64.528 37.1693 65.04C37.1693 65.4027 37.3026 65.712 37.5693 65.968C37.8466 66.224 38.3106 66.352 38.9613 66.352H40.1453C40.8599 66.352 41.4146 66.24 41.8093 66.016C42.2039 65.792 42.4013 65.456 42.4013 65.008ZM39.5373 60.224C40.0813 60.224 40.5133 60.096 40.8333 59.84C41.1533 59.5733 41.3133 59.168 41.3133 58.624V58.176C41.3133 57.632 41.1533 57.232 40.8333 56.976C40.5133 56.7093 40.0813 56.576 39.5373 56.576C38.9933 56.576 38.5613 56.7093 38.2413 56.976C37.9213 57.232 37.7613 57.632 37.7613 58.176V58.624C37.7613 59.168 37.9213 59.5733 38.2413 59.84C38.5613 60.096 38.9933 60.224 39.5373 60.224Z" fill="#1A1A1A"/>
<rect x="85.5" y="78.5" width="52" height="39" rx="3.5" stroke="#747474"/>
<path d="M105.8 103.192C104.467 103.192 103.491 102.685 102.872 101.672C102.264 100.659 101.96 99.24 101.96 97.416C101.96 95.592 102.264 94.1733 102.872 93.16C103.491 92.1467 104.467 91.64 105.8 91.64C107.133 91.64 108.104 92.1467 108.712 93.16C109.331 94.1733 109.64 95.592 109.64 97.416C109.64 99.24 109.331 100.659 108.712 101.672C108.104 102.685 107.133 103.192 105.8 103.192ZM105.8 102.024C106.237 102.024 106.611 101.933 106.92 101.752C107.229 101.571 107.48 101.315 107.672 100.984C107.864 100.653 108.003 100.264 108.088 99.816C108.184 99.368 108.232 98.872 108.232 98.328V96.504C108.232 95.96 108.184 95.464 108.088 95.016C108.003 94.568 107.864 94.1787 107.672 93.848C107.48 93.5173 107.229 93.2613 106.92 93.08C106.611 92.8987 106.237 92.808 105.8 92.808C105.363 92.808 104.989 92.8987 104.68 93.08C104.371 93.2613 104.12 93.5173 103.928 93.848C103.736 94.1787 103.592 94.568 103.496 95.016C103.411 95.464 103.368 95.96 103.368 96.504V98.328C103.368 98.872 103.411 99.368 103.496 99.816C103.592 100.264 103.736 100.653 103.928 100.984C104.12 101.315 104.371 101.571 104.68 101.752C104.989 101.933 105.363 102.024 105.8 102.024ZM119.122 103H111.794V101.624L115.442 98.264C115.964 97.784 116.402 97.2773 116.754 96.744C117.106 96.2 117.282 95.656 117.282 95.112V94.92C117.282 94.3013 117.111 93.8 116.77 93.416C116.428 93.032 115.911 92.84 115.218 92.84C114.876 92.84 114.578 92.888 114.322 92.984C114.066 93.08 113.842 93.2133 113.65 93.384C113.468 93.5547 113.314 93.7573 113.186 93.992C113.068 94.216 112.972 94.4613 112.898 94.728L111.698 94.264C111.804 93.9333 111.948 93.6133 112.13 93.304C112.322 92.984 112.556 92.7013 112.834 92.456C113.122 92.2107 113.463 92.0133 113.858 91.864C114.263 91.7147 114.738 91.64 115.282 91.64C115.826 91.64 116.311 91.72 116.738 91.88C117.164 92.04 117.522 92.264 117.81 92.552C118.098 92.84 118.316 93.1813 118.466 93.576C118.626 93.9707 118.706 94.408 118.706 94.888C118.706 95.3253 118.642 95.7307 118.514 96.104C118.396 96.4773 118.231 96.8347 118.018 97.176C117.804 97.5067 117.543 97.832 117.234 98.152C116.935 98.472 116.61 98.792 116.258 99.112L113.25 101.816H119.122V103Z" fill="#1A1A1A"/>
<path d="M95.192 54.592H95.112L94.168 56.464L91.496 61.328L88.824 56.464L87.88 54.592H87.8V64H86.488V52.832H88.28L91.48 58.848H91.56L94.776 52.832H96.504V64H95.192V54.592ZM105.344 64C104.864 64 104.518 63.872 104.304 63.616C104.102 63.36 103.974 63.04 103.92 62.656H103.84C103.659 63.168 103.36 63.552 102.944 63.808C102.528 64.064 102.032 64.192 101.456 64.192C100.582 64.192 99.899 63.968 99.4084 63.52C98.9284 63.072 98.6884 62.464 98.6884 61.696C98.6884 60.9173 98.971 60.32 99.5364 59.904C100.112 59.488 101.003 59.28 102.208 59.28H103.84V58.464C103.84 57.8773 103.68 57.4293 103.36 57.12C103.04 56.8107 102.55 56.656 101.888 56.656C101.387 56.656 100.966 56.768 100.624 56.992C100.294 57.216 100.016 57.5147 99.7924 57.888L99.0244 57.168C99.2484 56.72 99.6057 56.3413 100.096 56.032C100.587 55.712 101.206 55.552 101.952 55.552C102.955 55.552 103.734 55.7973 104.288 56.288C104.843 56.7787 105.12 57.4613 105.12 58.336V62.88H106.064V64H105.344ZM101.664 63.104C101.984 63.104 102.278 63.0667 102.544 62.992C102.811 62.9173 103.04 62.8107 103.232 62.672C103.424 62.5333 103.574 62.3733 103.68 62.192C103.787 62.0107 103.84 61.8133 103.84 61.6V60.24H102.144C101.408 60.24 100.87 60.3467 100.528 60.56C100.198 60.7733 100.032 61.0827 100.032 61.488V61.824C100.032 62.2293 100.176 62.544 100.464 62.768C100.763 62.992 101.163 63.104 101.664 63.104ZM102.032 54.784C101.776 54.784 101.531 54.7413 101.296 54.656C101.072 54.56 100.875 54.432 100.704 54.272C100.544 54.1013 100.416 53.904 100.32 53.68C100.224 53.456 100.176 53.2107 100.176 52.944C100.176 52.6773 100.224 52.432 100.32 52.208C100.416 51.984 100.544 51.792 100.704 51.632C100.875 51.4613 101.072 51.3333 101.296 51.248C101.531 51.152 101.776 51.104 102.032 51.104C102.288 51.104 102.528 51.152 102.752 51.248C102.987 51.3333 103.184 51.4613 103.344 51.632C103.515 51.792 103.648 51.984 103.744 52.208C103.84 52.432 103.888 52.6773 103.888 52.944C103.888 53.2107 103.84 53.456 103.744 53.68C103.648 53.904 103.515 54.1013 103.344 54.272C103.184 54.432 102.987 54.56 102.752 54.656C102.528 54.7413 102.288 54.784 102.032 54.784ZM102.032 54C102.32 54 102.544 53.9253 102.704 53.776C102.875 53.616 102.96 53.3973 102.96 53.12V52.768C102.96 52.4907 102.875 52.2773 102.704 52.128C102.544 51.968 102.32 51.888 102.032 51.888C101.744 51.888 101.515 51.968 101.344 52.128C101.184 52.2773 101.104 52.4907 101.104 52.768V53.12C101.104 53.3973 101.184 53.616 101.344 53.776C101.515 53.9253 101.744 54 102.032 54ZM107.891 64V55.744H109.171V57.088H109.235C109.438 56.6187 109.721 56.2453 110.083 55.968C110.457 55.6907 110.953 55.552 111.571 55.552C112.425 55.552 113.097 55.8293 113.587 56.384C114.089 56.928 114.339 57.7013 114.339 58.704V64H113.059V58.928C113.059 57.4453 112.435 56.704 111.187 56.704C110.931 56.704 110.681 56.736 110.435 56.8C110.201 56.864 109.987 56.96 109.795 57.088C109.603 57.216 109.449 57.3813 109.331 57.584C109.225 57.776 109.171 58.0053 109.171 58.272V64H107.891ZM120.089 64.192C119.524 64.192 119.012 64.0907 118.553 63.888C118.105 63.6853 117.716 63.3973 117.385 63.024C117.065 62.64 116.814 62.1867 116.633 61.664C116.462 61.1307 116.377 60.5333 116.377 59.872C116.377 59.2213 116.462 58.6293 116.633 58.096C116.814 57.5627 117.065 57.1093 117.385 56.736C117.716 56.352 118.105 56.0587 118.553 55.856C119.012 55.6533 119.524 55.552 120.089 55.552C120.644 55.552 121.14 55.6533 121.577 55.856C122.014 56.0587 122.388 56.3413 122.697 56.704C123.006 57.056 123.241 57.4773 123.401 57.968C123.572 58.4587 123.657 58.9973 123.657 59.584V60.192H117.721V60.576C117.721 60.928 117.774 61.2587 117.881 61.568C117.998 61.8667 118.158 62.128 118.361 62.352C118.574 62.576 118.83 62.752 119.129 62.88C119.438 63.008 119.785 63.072 120.169 63.072C120.692 63.072 121.145 62.9493 121.529 62.704C121.924 62.4587 122.228 62.1067 122.441 61.648L123.353 62.304C123.086 62.8693 122.67 63.328 122.105 63.68C121.54 64.0213 120.868 64.192 120.089 64.192ZM120.089 56.624C119.737 56.624 119.417 56.688 119.129 56.816C118.841 56.9333 118.59 57.104 118.377 57.328C118.174 57.552 118.014 57.8187 117.897 58.128C117.78 58.4267 117.721 58.7573 117.721 59.12V59.232H122.281V59.056C122.281 58.32 122.078 57.7333 121.673 57.296C121.278 56.848 120.75 56.624 120.089 56.624ZM131.046 62.656H130.982C130.481 63.68 129.676 64.192 128.566 64.192C128.054 64.192 127.59 64.0907 127.174 63.888C126.758 63.6853 126.401 63.3973 126.102 63.024C125.814 62.6507 125.59 62.1973 125.43 61.664C125.281 61.1307 125.206 60.5333 125.206 59.872C125.206 59.2107 125.281 58.6133 125.43 58.08C125.59 57.5467 125.814 57.0933 126.102 56.72C126.401 56.3467 126.758 56.0587 127.174 55.856C127.59 55.6533 128.054 55.552 128.566 55.552C129.142 55.552 129.633 55.68 130.038 55.936C130.454 56.1813 130.769 56.5653 130.982 57.088H131.046V52.16H132.326V64H131.046V62.656ZM128.918 63.04C129.206 63.04 129.478 63.0027 129.734 62.928C130.001 62.8533 130.23 62.7467 130.422 62.608C130.614 62.4587 130.764 62.2827 130.87 62.08C130.988 61.8667 131.046 61.6267 131.046 61.36V58.288C131.046 58.064 130.988 57.856 130.87 57.664C130.764 57.4613 130.614 57.2907 130.422 57.152C130.23 57.0133 130.001 56.9067 129.734 56.832C129.478 56.7467 129.206 56.704 128.918 56.704C128.193 56.704 127.622 56.9333 127.206 57.392C126.79 57.84 126.582 58.432 126.582 59.168V60.576C126.582 61.312 126.79 61.9093 127.206 62.368C127.622 62.816 128.193 63.04 128.918 63.04Z" fill="#1A1A1A"/>
<rect x="154.5" y="78.5" width="72" height="39" rx="3.5" stroke="#747474"/>
<path d="M179.841 103H172.513V101.624L176.161 98.264C176.683 97.784 177.121 97.2773 177.473 96.744C177.825 96.2 178.001 95.656 178.001 95.112V94.92C178.001 94.3013 177.83 93.8 177.489 93.416C177.147 93.032 176.63 92.84 175.937 92.84C175.595 92.84 175.297 92.888 175.041 92.984C174.785 93.08 174.561 93.2133 174.369 93.384C174.187 93.5547 174.033 93.7573 173.905 93.992C173.787 94.216 173.691 94.4613 173.617 94.728L172.417 94.264C172.523 93.9333 172.667 93.6133 172.849 93.304C173.041 92.984 173.275 92.7013 173.553 92.456C173.841 92.2107 174.182 92.0133 174.577 91.864C174.982 91.7147 175.457 91.64 176.001 91.64C176.545 91.64 177.03 91.72 177.457 91.88C177.883 92.04 178.241 92.264 178.529 92.552C178.817 92.84 179.035 93.1813 179.185 93.576C179.345 93.9707 179.425 94.408 179.425 94.888C179.425 95.3253 179.361 95.7307 179.233 96.104C179.115 96.4773 178.95 96.8347 178.737 97.176C178.523 97.5067 178.262 97.832 177.953 98.152C177.654 98.472 177.329 98.792 176.977 99.112L173.969 101.816H179.841V103ZM185.706 103.192C184.373 103.192 183.397 102.685 182.778 101.672C182.17 100.659 181.866 99.24 181.866 97.416C181.866 95.592 182.17 94.1733 182.778 93.16C183.397 92.1467 184.373 91.64 185.706 91.64C187.04 91.64 188.01 92.1467 188.618 93.16C189.237 94.1733 189.546 95.592 189.546 97.416C189.546 99.24 189.237 100.659 188.618 101.672C188.01 102.685 187.04 103.192 185.706 103.192ZM185.706 102.024C186.144 102.024 186.517 101.933 186.826 101.752C187.136 101.571 187.386 101.315 187.578 100.984C187.77 100.653 187.909 100.264 187.994 99.816C188.09 99.368 188.138 98.872 188.138 98.328V96.504C188.138 95.96 188.09 95.464 187.994 95.016C187.909 94.568 187.77 94.1787 187.578 93.848C187.386 93.5173 187.136 93.2613 186.826 93.08C186.517 92.8987 186.144 92.808 185.706 92.808C185.269 92.808 184.896 92.8987 184.586 93.08C184.277 93.2613 184.026 93.5173 183.834 93.848C183.642 94.1787 183.498 94.568 183.402 95.016C183.317 95.464 183.274 95.96 183.274 96.504V98.328C183.274 98.872 183.317 99.368 183.402 99.816C183.498 100.264 183.642 100.653 183.834 100.984C184.026 101.315 184.277 101.571 184.586 101.752C184.896 101.933 185.269 102.024 185.706 102.024ZM199.028 103H191.7V101.624L195.348 98.264C195.871 97.784 196.308 97.2773 196.66 96.744C197.012 96.2 197.188 95.656 197.188 95.112V94.92C197.188 94.3013 197.017 93.8 196.676 93.416C196.335 93.032 195.817 92.84 195.124 92.84C194.783 92.84 194.484 92.888 194.228 92.984C193.972 93.08 193.748 93.2133 193.556 93.384C193.375 93.5547 193.22 93.7573 193.092 93.992C192.975 94.216 192.879 94.4613 192.804 94.728L191.604 94.264C191.711 93.9333 191.855 93.6133 192.036 93.304C192.228 92.984 192.463 92.7013 192.74 92.456C193.028 92.2107 193.369 92.0133 193.764 91.864C194.169 91.7147 194.644 91.64 195.188 91.64C195.732 91.64 196.217 91.72 196.644 91.88C197.071 92.04 197.428 92.264 197.716 92.552C198.004 92.84 198.223 93.1813 198.372 93.576C198.532 93.9707 198.612 94.408 198.612 94.888C198.612 95.3253 198.548 95.7307 198.42 96.104C198.303 96.4773 198.137 96.8347 197.924 97.176C197.711 97.5067 197.449 97.832 197.14 98.152C196.841 98.472 196.516 98.792 196.164 99.112L193.156 101.816H199.028V103ZM204.27 96.568C205.027 96.568 205.592 96.3973 205.966 96.056C206.35 95.704 206.542 95.256 206.542 94.712V94.6C206.542 94.0133 206.355 93.576 205.982 93.288C205.619 92.9893 205.139 92.84 204.542 92.84C203.966 92.84 203.496 92.968 203.134 93.224C202.771 93.4693 202.472 93.8053 202.238 94.232L201.246 93.464C201.384 93.24 201.55 93.0213 201.742 92.808C201.944 92.584 202.179 92.3867 202.446 92.216C202.712 92.0453 203.022 91.9067 203.374 91.8C203.726 91.6933 204.126 91.64 204.574 91.64C205.043 91.64 205.486 91.704 205.902 91.832C206.318 91.9493 206.675 92.1307 206.974 92.376C207.283 92.6107 207.523 92.904 207.694 93.256C207.875 93.608 207.966 94.008 207.966 94.456C207.966 94.8187 207.907 95.144 207.79 95.432C207.683 95.72 207.534 95.9707 207.342 96.184C207.15 96.3973 206.92 96.5787 206.654 96.728C206.398 96.8773 206.12 96.9893 205.822 97.064V97.128C206.12 97.192 206.408 97.2987 206.686 97.448C206.974 97.5867 207.224 97.7733 207.438 98.008C207.662 98.232 207.838 98.5093 207.966 98.84C208.104 99.16 208.174 99.528 208.174 99.944C208.174 100.424 208.083 100.867 207.902 101.272C207.72 101.667 207.464 102.008 207.134 102.296C206.803 102.573 206.403 102.792 205.934 102.952C205.464 103.112 204.947 103.192 204.382 103.192C203.902 103.192 203.475 103.139 203.102 103.032C202.728 102.925 202.398 102.781 202.11 102.6C201.822 102.419 201.566 102.216 201.342 101.992C201.128 101.768 200.936 101.533 200.766 101.288L201.774 100.52C201.912 100.744 202.062 100.947 202.222 101.128C202.392 101.309 202.579 101.464 202.782 101.592C202.984 101.72 203.214 101.821 203.47 101.896C203.726 101.96 204.024 101.992 204.366 101.992C205.155 101.992 205.752 101.816 206.158 101.464C206.563 101.101 206.766 100.589 206.766 99.928V99.8C206.766 99.1387 206.563 98.632 206.158 98.28C205.752 97.9173 205.155 97.736 204.366 97.736H203.054V96.568H204.27Z" fill="#1A1A1A"/>
<path d="M162.48 64L161.36 60.704H156.848L155.728 64H154.368L158.272 52.832H159.984L163.888 64H162.48ZM159.136 54.08H159.056L157.168 59.52H161.024L159.136 54.08ZM159.152 52.064C158.896 52.064 158.651 52.0213 158.416 51.936C158.192 51.84 157.995 51.712 157.824 51.552C157.664 51.3813 157.536 51.184 157.44 50.96C157.344 50.736 157.296 50.4907 157.296 50.224C157.296 49.9573 157.344 49.712 157.44 49.488C157.536 49.264 157.664 49.072 157.824 48.912C157.995 48.7413 158.192 48.6133 158.416 48.528C158.651 48.432 158.896 48.384 159.152 48.384C159.408 48.384 159.648 48.432 159.872 48.528C160.107 48.6133 160.304 48.7413 160.464 48.912C160.635 49.072 160.768 49.264 160.864 49.488C160.96 49.712 161.008 49.9573 161.008 50.224C161.008 50.4907 160.96 50.736 160.864 50.96C160.768 51.184 160.635 51.3813 160.464 51.552C160.304 51.712 160.107 51.84 159.872 51.936C159.648 52.0213 159.408 52.064 159.152 52.064ZM159.152 51.28C159.44 51.28 159.664 51.2053 159.824 51.056C159.995 50.896 160.08 50.6773 160.08 50.4V50.048C160.08 49.7707 159.995 49.5573 159.824 49.408C159.664 49.248 159.44 49.168 159.152 49.168C158.864 49.168 158.635 49.248 158.464 49.408C158.304 49.5573 158.224 49.7707 158.224 50.048V50.4C158.224 50.6773 158.304 50.896 158.464 51.056C158.635 51.2053 158.864 51.28 159.152 51.28ZM165.61 64V55.744H166.89V57.264H166.97C167.119 56.8693 167.386 56.5173 167.77 56.208C168.154 55.8987 168.682 55.744 169.354 55.744H169.85V57.024H169.098C168.405 57.024 167.861 57.1573 167.466 57.424C167.082 57.68 166.89 58.0053 166.89 58.4V64H165.61Z" fill="#1A1A1A"/>
<path d="M24.08 27.28H19.424V32H17.312V20.832H19.424V25.408H24.08V20.832H26.192V32H24.08V27.28ZM30.476 32L27.692 23.648H29.708L30.876 27.248L31.692 30.224H31.804L32.62 27.248L33.756 23.648H35.708L32.908 32H30.476ZM40.2616 32.192C39.6643 32.192 39.1256 32.0907 38.6456 31.888C38.1763 31.6853 37.771 31.392 37.4296 31.008C37.099 30.624 36.843 30.1653 36.6616 29.632C36.4803 29.088 36.3896 28.48 36.3896 27.808C36.3896 27.136 36.4803 26.5333 36.6616 26C36.843 25.4667 37.099 25.0133 37.4296 24.64C37.771 24.256 38.1763 23.9627 38.6456 23.76C39.1256 23.5573 39.6643 23.456 40.2616 23.456C40.859 23.456 41.3976 23.5573 41.8776 23.76C42.3576 23.9627 42.763 24.256 43.0936 24.64C43.435 25.0133 43.6963 25.4667 43.8776 26C44.059 26.5333 44.1496 27.136 44.1496 27.808C44.1496 28.48 44.059 29.088 43.8776 29.632C43.6963 30.1653 43.435 30.624 43.0936 31.008C42.763 31.392 42.3576 31.6853 41.8776 31.888C41.3976 32.0907 40.859 32.192 40.2616 32.192ZM40.2616 30.544C40.8056 30.544 41.2323 30.3787 41.5416 30.048C41.851 29.7173 42.0056 29.232 42.0056 28.592V27.04C42.0056 26.4107 41.851 25.9307 41.5416 25.6C41.2323 25.2693 40.8056 25.104 40.2616 25.104C39.7283 25.104 39.307 25.2693 38.9976 25.6C38.6883 25.9307 38.5336 26.4107 38.5336 27.04V28.592C38.5336 29.232 38.6883 29.7173 38.9976 30.048C39.307 30.3787 39.7283 30.544 40.2616 30.544ZM45.9653 32V23.648H48.0133V25.376H48.0933C48.1466 25.152 48.2266 24.9387 48.3333 24.736C48.4506 24.5227 48.5999 24.336 48.7812 24.176C48.9626 24.016 49.1759 23.888 49.4213 23.792C49.6773 23.696 49.9706 23.648 50.3013 23.648H50.7493V25.584H50.1093C49.4159 25.584 48.8933 25.6853 48.5413 25.888C48.1893 26.0907 48.0133 26.4213 48.0133 26.88V32H45.9653ZM52.2465 32V23.648H54.2945V25.04H54.3745C54.5452 24.592 54.8118 24.2187 55.1745 23.92C55.5478 23.6107 56.0598 23.456 56.7105 23.456C57.5745 23.456 58.2358 23.7387 58.6945 24.304C59.1532 24.8693 59.3825 25.6747 59.3825 26.72V32H57.3345V26.928C57.3345 26.3307 57.2278 25.8827 57.0145 25.584C56.8012 25.2853 56.4492 25.136 55.9585 25.136C55.7452 25.136 55.5372 25.168 55.3345 25.232C55.1425 25.2853 54.9665 25.3707 54.8065 25.488C54.6572 25.5947 54.5345 25.7333 54.4385 25.904C54.3425 26.064 54.2945 26.256 54.2945 26.48V32H52.2465ZM67.7968 32C67.3488 32 66.9914 31.872 66.7248 31.616C66.4688 31.3493 66.3088 30.9973 66.2448 30.56H66.1488C66.0101 31.104 65.7274 31.5147 65.3008 31.792C64.8741 32.0587 64.3461 32.192 63.7168 32.192C62.8634 32.192 62.2074 31.968 61.7488 31.52C61.2901 31.072 61.0608 30.4747 61.0608 29.728C61.0608 28.864 61.3701 28.224 61.9888 27.808C62.6074 27.3813 63.4874 27.168 64.6288 27.168H66.0528V26.56C66.0528 26.0907 65.9301 25.728 65.6848 25.472C65.4394 25.216 65.0448 25.088 64.5008 25.088C64.0208 25.088 63.6314 25.1947 63.3328 25.408C63.0448 25.6107 62.7994 25.856 62.5968 26.144L61.3808 25.056C61.6901 24.576 62.1008 24.192 62.6128 23.904C63.1248 23.6053 63.8021 23.456 64.6448 23.456C65.7754 23.456 66.6341 23.712 67.2208 24.224C67.8074 24.736 68.1008 25.472 68.1008 26.432V30.368H68.9328V32H67.7968ZM64.4048 30.704C64.8634 30.704 65.2528 30.6027 65.5728 30.4C65.8928 30.1973 66.0528 29.8987 66.0528 29.504V28.4H64.7408C63.6741 28.4 63.1408 28.7413 63.1408 29.424V29.696C63.1408 30.0373 63.2474 30.2933 63.4608 30.464C63.6848 30.624 63.9994 30.704 64.4048 30.704ZM64.6927 22.992C64.3834 22.992 64.0901 22.9387 63.8128 22.832C63.5461 22.7253 63.3114 22.576 63.1088 22.384C62.9061 22.192 62.7461 21.9627 62.6288 21.696C62.5221 21.4293 62.4688 21.1413 62.4688 20.832C62.4688 20.5227 62.5221 20.2347 62.6288 19.968C62.7461 19.7013 62.9061 19.472 63.1088 19.28C63.3114 19.088 63.5461 18.9387 63.8128 18.832C64.0901 18.7253 64.3834 18.672 64.6927 18.672C65.0021 18.672 65.2901 18.7253 65.5568 18.832C65.8341 18.9387 66.0688 19.088 66.2608 19.28C66.4634 19.472 66.6234 19.7013 66.7408 19.968C66.8581 20.2347 66.9168 20.5227 66.9168 20.832C66.9168 21.1413 66.8581 21.4293 66.7408 21.696C66.6234 21.9627 66.4634 22.192 66.2608 22.384C66.0688 22.576 65.8341 22.7253 65.5568 22.832C65.2901 22.9387 65.0021 22.992 64.6927 22.992ZM64.6927 21.904C65.2581 21.904 65.5408 21.6267 65.5408 21.072V20.592C65.5408 20.0373 65.2581 19.76 64.6927 19.76C64.1274 19.76 63.8448 20.0373 63.8448 20.592V21.072C63.8448 21.6267 64.1274 21.904 64.6927 21.904ZM70.5903 32V23.648H72.6383V25.376H72.7183C72.7716 25.152 72.8516 24.9387 72.9583 24.736C73.0756 24.5227 73.2249 24.336 73.4062 24.176C73.5876 24.016 73.8009 23.888 74.0463 23.792C74.3023 23.696 74.5956 23.648 74.9263 23.648H75.3743V25.584H74.7343C74.0409 25.584 73.5183 25.6853 73.1663 25.888C72.8143 26.0907 72.6383 26.4213 72.6383 26.88V32H70.5903ZM80.6528 20.16H82.7008V25.024H82.7648C82.9141 24.544 83.1968 24.1653 83.6128 23.888C84.0288 23.6 84.5141 23.456 85.0688 23.456C86.1354 23.456 86.9461 23.8347 87.5008 24.592C88.0661 25.3387 88.3488 26.4107 88.3488 27.808C88.3488 29.216 88.0661 30.2987 87.5008 31.056C86.9461 31.8133 86.1354 32.192 85.0688 32.192C84.5141 32.192 84.0288 32.048 83.6128 31.76C83.2074 31.472 82.9248 31.088 82.7648 30.608H82.7008V32H80.6528V20.16ZM84.4128 30.496C84.9461 30.496 85.3781 30.32 85.7088 29.968C86.0394 29.616 86.2048 29.1413 86.2048 28.544V27.104C86.2048 26.5067 86.0394 26.032 85.7088 25.68C85.3781 25.3173 84.9461 25.136 84.4128 25.136C83.9221 25.136 83.5114 25.2587 83.1808 25.504C82.8608 25.7493 82.7008 26.0747 82.7008 26.48V29.136C82.7008 29.5733 82.8608 29.9093 83.1808 30.144C83.5114 30.3787 83.9221 30.496 84.4128 30.496ZM92.2945 32C91.5905 32 91.0732 31.824 90.7425 31.472C90.4118 31.12 90.2465 30.624 90.2465 29.984V20.16H92.2945V30.368H93.3985V32H92.2945ZM98.3256 32.192C97.707 32.192 97.1523 32.0907 96.6616 31.888C96.1816 31.6747 95.771 31.3813 95.4296 31.008C95.099 30.624 94.843 30.1653 94.6616 29.632C94.4803 29.088 94.3896 28.48 94.3896 27.808C94.3896 27.1467 94.475 26.5493 94.6456 26.016C94.827 25.4827 95.083 25.0293 95.4136 24.656C95.7443 24.272 96.1496 23.9787 96.6296 23.776C97.1096 23.5627 97.6536 23.456 98.2616 23.456C98.9123 23.456 99.4776 23.568 99.9576 23.792C100.438 24.016 100.832 24.32 101.142 24.704C101.451 25.088 101.68 25.536 101.83 26.048C101.99 26.5493 102.07 27.088 102.07 27.664V28.336H96.5176V28.544C96.5176 29.152 96.6883 29.6427 97.0296 30.016C97.371 30.3787 97.8776 30.56 98.5496 30.56C99.0616 30.56 99.4776 30.4533 99.7976 30.24C100.128 30.0267 100.422 29.7547 100.678 29.424L101.782 30.656C101.44 31.136 100.971 31.5147 100.374 31.792C99.787 32.0587 99.1043 32.192 98.3256 32.192ZM98.2936 24.992C97.7496 24.992 97.3176 25.1733 96.9976 25.536C96.6776 25.8987 96.5176 26.368 96.5176 26.944V27.072H99.9416V26.928C99.9416 26.352 99.7976 25.888 99.5096 25.536C99.2323 25.1733 98.827 24.992 98.2936 24.992ZM105.523 32L102.739 23.648H104.755L105.923 27.248L106.739 30.224H106.851L107.667 27.248L108.803 23.648H110.755L107.955 32H105.523ZM121.087 30.608H121.007C120.857 31.088 120.575 31.472 120.159 31.76C119.743 32.048 119.257 32.192 118.703 32.192C117.647 32.192 116.836 31.8133 116.271 31.056C115.716 30.2987 115.439 29.216 115.439 27.808C115.439 26.4107 115.716 25.3387 116.271 24.592C116.836 23.8347 117.647 23.456 118.703 23.456C119.257 23.456 119.743 23.6 120.159 23.888C120.575 24.1653 120.857 24.544 121.007 25.024H121.087V20.16H123.135V32H121.087V30.608ZM119.359 30.496C119.849 30.496 120.26 30.3787 120.591 30.144C120.921 29.9093 121.087 29.5733 121.087 29.136V26.48C121.087 26.0747 120.921 25.7493 120.591 25.504C120.26 25.2587 119.849 25.136 119.359 25.136C118.825 25.136 118.393 25.3173 118.063 25.68C117.743 26.032 117.583 26.5067 117.583 27.104V28.544C117.583 29.1413 117.743 29.616 118.063 29.968C118.393 30.32 118.825 30.496 119.359 30.496ZM130.489 30.608H130.409C130.334 30.8213 130.233 31.024 130.105 31.216C129.987 31.3973 129.833 31.5627 129.641 31.712C129.459 31.8613 129.235 31.9787 128.969 32.064C128.713 32.1493 128.414 32.192 128.073 32.192C127.209 32.192 126.547 31.9093 126.089 31.344C125.63 30.7787 125.401 29.9733 125.401 28.928V23.648H127.449V28.72C127.449 29.296 127.561 29.7387 127.785 30.048C128.009 30.3467 128.366 30.496 128.857 30.496C129.059 30.496 129.257 30.4693 129.449 30.416C129.651 30.3627 129.827 30.2827 129.977 30.176C130.126 30.0587 130.249 29.92 130.345 29.76C130.441 29.5893 130.489 29.392 130.489 29.168V23.648H132.536V32H130.489V30.608ZM142.06 32.192C141.441 32.192 140.887 32.0907 140.396 31.888C139.916 31.6747 139.505 31.3813 139.164 31.008C138.833 30.624 138.577 30.1653 138.396 29.632C138.215 29.088 138.124 28.48 138.124 27.808C138.124 27.1467 138.209 26.5493 138.38 26.016C138.561 25.4827 138.817 25.0293 139.148 24.656C139.479 24.272 139.884 23.9787 140.364 23.776C140.844 23.5627 141.388 23.456 141.996 23.456C142.647 23.456 143.212 23.568 143.692 23.792C144.172 24.016 144.567 24.32 144.876 24.704C145.185 25.088 145.415 25.536 145.564 26.048C145.724 26.5493 145.804 27.088 145.804 27.664V28.336H140.252V28.544C140.252 29.152 140.423 29.6427 140.764 30.016C141.105 30.3787 141.612 30.56 142.284 30.56C142.796 30.56 143.212 30.4533 143.532 30.24C143.863 30.0267 144.156 29.7547 144.412 29.424L145.516 30.656C145.175 31.136 144.705 31.5147 144.108 31.792C143.521 32.0587 142.839 32.192 142.06 32.192ZM142.028 24.992C141.484 24.992 141.052 25.1733 140.732 25.536C140.412 25.8987 140.252 26.368 140.252 26.944V27.072H143.676V26.928C143.676 26.352 143.532 25.888 143.244 25.536C142.967 25.1733 142.561 24.992 142.028 24.992ZM147.606 32V23.648H149.654V25.04H149.734C149.905 24.592 150.171 24.2187 150.534 23.92C150.907 23.6107 151.419 23.456 152.07 23.456C152.934 23.456 153.595 23.7387 154.054 24.304C154.513 24.8693 154.742 25.6747 154.742 26.72V32H152.694V26.928C152.694 26.3307 152.587 25.8827 152.374 25.584C152.161 25.2853 151.809 25.136 151.318 25.136C151.105 25.136 150.897 25.168 150.694 25.232C150.502 25.2853 150.326 25.3707 150.166 25.488C150.017 25.5947 149.894 25.7333 149.798 25.904C149.702 26.064 149.654 26.256 149.654 26.48V32H147.606ZM159.06 32C158.356 32 157.839 31.824 157.508 31.472C157.177 31.12 157.012 30.624 157.012 29.984V20.16H159.06V30.368H160.164V32H159.06ZM162.739 22.432C162.313 22.432 162.003 22.336 161.811 22.144C161.63 21.952 161.539 21.7067 161.539 21.408V21.088C161.539 20.7893 161.63 20.544 161.811 20.352C162.003 20.16 162.313 20.064 162.739 20.064C163.155 20.064 163.459 20.16 163.651 20.352C163.843 20.544 163.939 20.7893 163.939 21.088V21.408C163.939 21.7067 163.843 21.952 163.651 22.144C163.459 22.336 163.155 22.432 162.739 22.432ZM161.715 23.648H163.763V32H161.715V23.648ZM173.673 32.704C173.673 33.1413 173.593 33.5253 173.433 33.856C173.284 34.1973 173.033 34.48 172.681 34.704C172.329 34.928 171.876 35.0987 171.321 35.216C170.766 35.3333 170.089 35.392 169.289 35.392C168.585 35.392 167.988 35.344 167.497 35.248C167.006 35.1627 166.601 35.0347 166.281 34.864C165.972 34.704 165.748 34.5013 165.609 34.256C165.47 34.0107 165.401 33.7333 165.401 33.424C165.401 32.9547 165.529 32.5867 165.785 32.32C166.052 32.064 166.42 31.8987 166.889 31.824V31.648C166.548 31.5627 166.281 31.3973 166.089 31.152C165.908 30.896 165.817 30.5973 165.817 30.256C165.817 30.0427 165.86 29.856 165.945 29.696C166.03 29.5253 166.142 29.3813 166.281 29.264C166.43 29.1467 166.596 29.0507 166.777 28.976C166.958 28.8907 167.15 28.8267 167.353 28.784V28.72C166.841 28.4853 166.457 28.16 166.201 27.744C165.956 27.328 165.833 26.8427 165.833 26.288C165.833 25.4347 166.126 24.752 166.713 24.24C167.3 23.7173 168.158 23.456 169.289 23.456C169.545 23.456 169.796 23.472 170.041 23.504C170.297 23.536 170.532 23.5893 170.745 23.664V23.392C170.745 22.5813 171.14 22.176 171.929 22.176H173.225V23.744H171.449V23.968C171.886 24.2133 172.212 24.5333 172.425 24.928C172.638 25.3227 172.745 25.776 172.745 26.288C172.745 27.1307 172.452 27.808 171.865 28.32C171.289 28.832 170.43 29.088 169.289 29.088C168.798 29.088 168.372 29.04 168.009 28.944C167.849 29.0187 167.71 29.12 167.593 29.248C167.476 29.3653 167.417 29.5147 167.417 29.696C167.417 30.112 167.78 30.32 168.505 30.32H170.745C171.769 30.32 172.51 30.5333 172.969 30.96C173.438 31.376 173.673 31.9573 173.673 32.704ZM171.753 32.944C171.753 32.6773 171.646 32.4693 171.433 32.32C171.22 32.1707 170.852 32.096 170.329 32.096H167.481C167.193 32.3093 167.049 32.5973 167.049 32.96C167.049 33.28 167.182 33.5307 167.449 33.712C167.716 33.8933 168.169 33.984 168.809 33.984H169.833C170.505 33.984 170.99 33.8987 171.289 33.728C171.598 33.5573 171.753 33.296 171.753 32.944ZM169.289 27.696C170.292 27.696 170.793 27.2693 170.793 26.416V26.144C170.793 25.2907 170.292 24.864 169.289 24.864C168.286 24.864 167.785 25.2907 167.785 26.144V26.416C167.785 27.2693 168.286 27.696 169.289 27.696ZM176.296 28.384V25.888C177.149 25.856 177.795 25.696 178.232 25.408C178.68 25.1093 178.904 24.6507 178.904 24.032V23.808C178.904 23.36 178.771 23.0133 178.504 22.768C178.237 22.5227 177.88 22.4 177.432 22.4C176.952 22.4 176.563 22.544 176.264 22.832C175.976 23.1093 175.773 23.472 175.656 23.92L173.944 23.216C174.04 22.8853 174.179 22.5653 174.36 22.256C174.541 21.9467 174.776 21.6747 175.064 21.44C175.352 21.1947 175.699 21.0027 176.104 20.864C176.509 20.7147 176.979 20.64 177.512 20.64C178.056 20.64 178.547 20.72 178.984 20.88C179.421 21.0293 179.795 21.248 180.104 21.536C180.413 21.8133 180.653 22.1493 180.824 22.544C180.995 22.9387 181.08 23.376 181.08 23.856C181.08 24.3253 181 24.7467 180.84 25.12C180.691 25.4827 180.483 25.8027 180.216 26.08C179.949 26.3467 179.645 26.5653 179.304 26.736C178.963 26.896 178.611 27.008 178.248 27.072V28.384H176.296ZM177.288 32.192C176.84 32.192 176.515 32.0853 176.312 31.872C176.109 31.6587 176.008 31.3867 176.008 31.056V30.736C176.008 30.4053 176.109 30.1333 176.312 29.92C176.515 29.7067 176.84 29.6 177.288 29.6C177.747 29.6 178.077 29.7067 178.28 29.92C178.483 30.1333 178.584 30.4053 178.584 30.736V31.056C178.584 31.3867 178.483 31.6587 178.28 31.872C178.077 32.0853 177.747 32.192 177.288 32.192Z" fill="#1A1A1A"/>
<rect width="280" height="20" transform="translate(16 158)" fill="#DCDCDC"/>
<rect width="280" height="20" transform="translate(16 218)" fill="#DCDCDC"/>
<rect width="118" height="12" transform="translate(16 142)" fill="#DCDCDC"/>
<rect width="118" height="12" transform="translate(16 202)" fill="#DCDCDC"/>
</svg>
