<svg width="419" height="257" viewBox="0 0 419 257" fill="none" xmlns="http://www.w3.org/2000/svg">
<rect width="418" height="257" fill="white"/>
<rect x="16" y="24" width="133" height="48" rx="24" fill="#454545"/>
<g clip-path="url(#clip0_8777_34250)">
<path d="M60 40V52H48V40H60ZM60 38H48C46.9 38 46 38.9 46 40V52C46 53.1 46.9 54 48 54H60C61.1 54 62 53.1 62 52V40C62 38.9 61.1 38 60 38ZM51.5 47.67L53.19 49.93L55.67 46.83L59 51H49L51.5 47.67ZM42 42V56C42 57.1 42.9 58 44 58H58V56H44V42H42Z" fill="white"/>
</g>
<path d="M73.232 42.832H78.656C79.584 42.832 80.304 43.0933 80.816 43.616C81.3387 44.1387 81.6 44.832 81.6 45.696C81.6 46.1227 81.5413 46.4853 81.424 46.784C81.3173 47.0827 81.168 47.328 80.976 47.52C80.7947 47.712 80.576 47.856 80.32 47.952C80.0747 48.0373 79.808 48.0853 79.52 48.096V48.192C79.7867 48.192 80.064 48.24 80.352 48.336C80.6507 48.432 80.9227 48.5867 81.168 48.8C81.4133 49.0027 81.616 49.2693 81.776 49.6C81.9467 49.9307 82.032 50.336 82.032 50.816C82.032 51.2533 81.9573 51.6693 81.808 52.064C81.6693 52.448 81.472 52.784 81.216 53.072C80.96 53.36 80.656 53.5893 80.304 53.76C79.952 53.92 79.568 54 79.152 54H73.232V42.832ZM75.664 51.952H78.464C78.784 51.952 79.0347 51.8667 79.216 51.696C79.408 51.5147 79.504 51.264 79.504 50.944V50.4C79.504 50.08 79.408 49.8347 79.216 49.664C79.0347 49.4827 78.784 49.392 78.464 49.392H75.664V51.952ZM75.664 47.408H78.08C78.4 47.408 78.6507 47.3173 78.832 47.136C79.0133 46.9547 79.104 46.704 79.104 46.384V45.904C79.104 45.584 79.0133 45.3333 78.832 45.152C78.6507 44.9707 78.4 44.88 78.08 44.88H75.664V47.408ZM84.9599 44.704C84.4799 44.704 84.1279 44.5973 83.9039 44.384C83.6905 44.16 83.5839 43.8773 83.5839 43.536V43.184C83.5839 42.8427 83.6905 42.5653 83.9039 42.352C84.1279 42.128 84.4799 42.016 84.9599 42.016C85.4399 42.016 85.7865 42.128 85.9999 42.352C86.2239 42.5653 86.3359 42.8427 86.3359 43.184V43.536C86.3359 43.8773 86.2239 44.16 85.9999 44.384C85.7865 44.5973 85.4399 44.704 84.9599 44.704ZM83.7759 45.6H86.1439V54H83.7759V45.6ZM90.706 54C89.8953 54 89.298 53.8027 88.914 53.408C88.5407 53.0133 88.354 52.4427 88.354 51.696V42.16H90.722V52.16H91.778V54H90.706ZM95.4248 54C94.6141 54 94.0168 53.8027 93.6328 53.408C93.2594 53.0133 93.0728 52.4427 93.0728 51.696V42.16H95.4408V52.16H96.4968V54H95.4248ZM101.421 54.192C100.781 54.192 100.21 54.0907 99.7085 53.888C99.2072 53.6747 98.7805 53.3813 98.4285 53.008C98.0872 52.624 97.8258 52.16 97.6445 51.616C97.4738 51.072 97.3885 50.464 97.3885 49.792C97.3885 49.1307 97.4738 48.5333 97.6445 48C97.8152 47.456 98.0658 46.992 98.3965 46.608C98.7378 46.224 99.1538 45.9307 99.6445 45.728C100.135 45.5147 100.695 45.408 101.325 45.408C102.018 45.408 102.61 45.5253 103.101 45.76C103.602 45.9947 104.007 46.3093 104.317 46.704C104.637 47.0987 104.866 47.5573 105.005 48.08C105.154 48.592 105.229 49.1307 105.229 49.696V50.4H99.8365V50.528C99.8365 51.0827 99.9858 51.5253 100.285 51.856C100.583 52.176 101.053 52.336 101.693 52.336C102.183 52.336 102.583 52.24 102.893 52.048C103.202 51.8453 103.49 51.6053 103.757 51.328L104.941 52.8C104.567 53.2373 104.077 53.5787 103.469 53.824C102.871 54.0693 102.189 54.192 101.421 54.192ZM101.373 47.152C100.893 47.152 100.514 47.312 100.237 47.632C99.9698 47.9413 99.8365 48.3573 99.8365 48.88V49.008H102.781V48.864C102.781 48.352 102.663 47.9413 102.429 47.632C102.205 47.312 101.853 47.152 101.373 47.152ZM112.053 52.592H111.973C111.909 52.816 111.808 53.0293 111.669 53.232C111.53 53.424 111.36 53.5947 111.157 53.744C110.965 53.8827 110.741 53.9893 110.485 54.064C110.24 54.1493 109.984 54.192 109.717 54.192C108.65 54.192 107.845 53.8187 107.301 53.072C106.757 52.3147 106.485 51.2213 106.485 49.792C106.485 48.3627 106.757 47.2747 107.301 46.528C107.845 45.7813 108.65 45.408 109.717 45.408C110.261 45.408 110.741 45.5573 111.157 45.856C111.584 46.1547 111.856 46.5387 111.973 47.008H112.053V42.16H114.421V54H112.053V52.592ZM110.501 52.272C110.949 52.272 111.317 52.1653 111.605 51.952C111.904 51.728 112.053 51.424 112.053 51.04V48.56C112.053 48.176 111.904 47.8773 111.605 47.664C111.317 47.44 110.949 47.328 110.501 47.328C110.053 47.328 109.68 47.488 109.381 47.808C109.093 48.1173 108.949 48.5387 108.949 49.072V50.528C108.949 51.0613 109.093 51.488 109.381 51.808C109.68 52.1173 110.053 52.272 110.501 52.272ZM120.139 54.192C119.499 54.192 118.929 54.0907 118.427 53.888C117.926 53.6747 117.499 53.3813 117.147 53.008C116.806 52.624 116.545 52.16 116.363 51.616C116.193 51.072 116.107 50.464 116.107 49.792C116.107 49.1307 116.193 48.5333 116.363 48C116.534 47.456 116.785 46.992 117.115 46.608C117.457 46.224 117.873 45.9307 118.363 45.728C118.854 45.5147 119.414 45.408 120.043 45.408C120.737 45.408 121.329 45.5253 121.819 45.76C122.321 45.9947 122.726 46.3093 123.035 46.704C123.355 47.0987 123.585 47.5573 123.723 48.08C123.873 48.592 123.947 49.1307 123.947 49.696V50.4H118.555V50.528C118.555 51.0827 118.705 51.5253 119.003 51.856C119.302 52.176 119.771 52.336 120.411 52.336C120.902 52.336 121.302 52.24 121.611 52.048C121.921 51.8453 122.209 51.6053 122.475 51.328L123.659 52.8C123.286 53.2373 122.795 53.5787 122.187 53.824C121.59 54.0693 120.907 54.192 120.139 54.192ZM120.091 47.152C119.611 47.152 119.233 47.312 118.955 47.632C118.689 47.9413 118.555 48.3573 118.555 48.88V49.008H121.499V48.864C121.499 48.352 121.382 47.9413 121.147 47.632C120.923 47.312 120.571 47.152 120.091 47.152Z" fill="white"/>
<rect x="165" y="24" width="98" height="48" rx="24" fill="#F5F5F5"/>
<g clip-path="url(#clip1_8777_34250)">
<path d="M205 37H193C191.9 37 191 37.9 191 39V53H193V39H205V37ZM204 41H197C195.9 41 195.01 41.9 195.01 43L195 57C195 58.1 195.89 59 196.99 59H208C209.1 59 210 58.1 210 57V47L204 41ZM197 57V43H203V48H208V57H197Z" fill="black"/>
</g>
<path d="M222.488 54V42.832H229.144V44.016H223.832V47.76H228.68V48.944H223.832V54H222.488ZM231.938 43.808C231.66 43.808 231.458 43.744 231.33 43.616C231.212 43.4773 231.154 43.3013 231.154 43.088V42.88C231.154 42.6667 231.212 42.496 231.33 42.368C231.458 42.2293 231.66 42.16 231.938 42.16C232.215 42.16 232.412 42.2293 232.53 42.368C232.658 42.496 232.722 42.6667 232.722 42.88V43.088C232.722 43.3013 232.658 43.4773 232.53 43.616C232.412 43.744 232.215 43.808 231.938 43.808ZM231.298 45.744H232.578V54H231.298V45.744ZM236.658 54C236.21 54 235.868 53.8773 235.634 53.632C235.41 53.376 235.298 53.056 235.298 52.672V42.16H236.578V52.88H237.794V54H236.658Z" fill="#1A1A1A"/>
<path d="M221 56H238.29V56.96H221V56Z" fill="#1A1A1A"/>
<mask id="path-8-outside-1_8777_34250" maskUnits="userSpaceOnUse" x="15" y="87" width="388" height="146" fill="black">
<rect fill="white" x="15" y="87" width="388" height="146"/>
<path d="M16 88H402V232H16V88Z"/>
</mask>
<path d="M16 88H402V232H16V88Z" fill="white"/>
<path d="M16 88V87H15V88H16ZM402 88H403V87H402V88ZM402 232V233H403V232H402ZM16 232H15V233H16V232ZM16 89H402V87H16V89ZM401 88V232H403V88H401ZM402 231H16V233H402V231ZM17 232V88H15V232H17Z" fill="#747474" mask="url(#path-8-outside-1_8777_34250)"/>
<path d="M31.4019 104H386.599V216H31.4019V104Z" fill="#DCDCDC"/>
<defs>
<clipPath id="clip0_8777_34250">
<rect width="24" height="24" fill="white" transform="translate(40 36)"/>
</clipPath>
<clipPath id="clip1_8777_34250">
<rect width="24" height="24" fill="white" transform="translate(189 36)"/>
</clipPath>
</defs>
</svg>
