<svg width="419" height="257" viewBox="0 0 419 257" fill="none" xmlns="http://www.w3.org/2000/svg">
<rect width="418" height="257" fill="white"/>
<rect x="16" y="24" width="101" height="48" rx="24" fill="#454545"/>
<path d="M41.232 42.832H46.656C47.584 42.832 48.304 43.0933 48.816 43.616C49.3387 44.1387 49.6 44.832 49.6 45.696C49.6 46.1227 49.5413 46.4853 49.424 46.784C49.3173 47.0827 49.168 47.328 48.976 47.52C48.7947 47.712 48.576 47.856 48.32 47.952C48.0747 48.0373 47.808 48.0853 47.52 48.096V48.192C47.7867 48.192 48.064 48.24 48.352 48.336C48.6507 48.432 48.9227 48.5867 49.168 48.8C49.4133 49.0027 49.616 49.2693 49.776 49.6C49.9467 49.9307 50.032 50.336 50.032 50.816C50.032 51.2533 49.9573 51.6693 49.808 52.064C49.6693 52.448 49.472 52.784 49.216 53.072C48.96 53.36 48.656 53.5893 48.304 53.76C47.952 53.92 47.568 54 47.152 54H41.232V42.832ZM43.664 51.952H46.464C46.784 51.952 47.0347 51.8667 47.216 51.696C47.408 51.5147 47.504 51.264 47.504 50.944V50.4C47.504 50.08 47.408 49.8347 47.216 49.664C47.0347 49.4827 46.784 49.392 46.464 49.392H43.664V51.952ZM43.664 47.408H46.08C46.4 47.408 46.6507 47.3173 46.832 47.136C47.0133 46.9547 47.104 46.704 47.104 46.384V45.904C47.104 45.584 47.0133 45.3333 46.832 45.152C46.6507 44.9707 46.4 44.88 46.08 44.88H43.664V47.408ZM52.9599 44.704C52.4799 44.704 52.1279 44.5973 51.9039 44.384C51.6905 44.16 51.5839 43.8773 51.5839 43.536V43.184C51.5839 42.8427 51.6905 42.5653 51.9039 42.352C52.1279 42.128 52.4799 42.016 52.9599 42.016C53.4399 42.016 53.7865 42.128 53.9999 42.352C54.2239 42.5653 54.3359 42.8427 54.3359 43.184V43.536C54.3359 43.8773 54.2239 44.16 53.9999 44.384C53.7865 44.5973 53.4399 44.704 52.9599 44.704ZM51.7759 45.6H54.1439V54H51.7759V45.6ZM58.706 54C57.8953 54 57.298 53.8027 56.914 53.408C56.5407 53.0133 56.354 52.4427 56.354 51.696V42.16H58.722V52.16H59.778V54H58.706ZM63.4248 54C62.6141 54 62.0168 53.8027 61.6328 53.408C61.2594 53.0133 61.0728 52.4427 61.0728 51.696V42.16H63.4408V52.16H64.4968V54H63.4248ZM69.4205 54.192C68.7805 54.192 68.2098 54.0907 67.7085 53.888C67.2072 53.6747 66.7805 53.3813 66.4285 53.008C66.0872 52.624 65.8258 52.16 65.6445 51.616C65.4738 51.072 65.3885 50.464 65.3885 49.792C65.3885 49.1307 65.4738 48.5333 65.6445 48C65.8152 47.456 66.0658 46.992 66.3965 46.608C66.7378 46.224 67.1538 45.9307 67.6445 45.728C68.1352 45.5147 68.6952 45.408 69.3245 45.408C70.0178 45.408 70.6098 45.5253 71.1005 45.76C71.6018 45.9947 72.0072 46.3093 72.3165 46.704C72.6365 47.0987 72.8658 47.5573 73.0045 48.08C73.1538 48.592 73.2285 49.1307 73.2285 49.696V50.4H67.8365V50.528C67.8365 51.0827 67.9858 51.5253 68.2845 51.856C68.5832 52.176 69.0525 52.336 69.6925 52.336C70.1832 52.336 70.5832 52.24 70.8925 52.048C71.2018 51.8453 71.4898 51.6053 71.7565 51.328L72.9405 52.8C72.5672 53.2373 72.0765 53.5787 71.4685 53.824C70.8712 54.0693 70.1885 54.192 69.4205 54.192ZM69.3725 47.152C68.8925 47.152 68.5138 47.312 68.2365 47.632C67.9698 47.9413 67.8365 48.3573 67.8365 48.88V49.008H70.7805V48.864C70.7805 48.352 70.6632 47.9413 70.4285 47.632C70.2045 47.312 69.8525 47.152 69.3725 47.152ZM80.0529 52.592H79.9729C79.9089 52.816 79.8075 53.0293 79.6689 53.232C79.5302 53.424 79.3595 53.5947 79.1569 53.744C78.9649 53.8827 78.7409 53.9893 78.4849 54.064C78.2395 54.1493 77.9835 54.192 77.7169 54.192C76.6502 54.192 75.8449 53.8187 75.3009 53.072C74.7569 52.3147 74.4849 51.2213 74.4849 49.792C74.4849 48.3627 74.7569 47.2747 75.3009 46.528C75.8449 45.7813 76.6502 45.408 77.7169 45.408C78.2609 45.408 78.7409 45.5573 79.1569 45.856C79.5835 46.1547 79.8555 46.5387 79.9729 47.008H80.0529V42.16H82.4209V54H80.0529V52.592ZM78.5009 52.272C78.9489 52.272 79.3169 52.1653 79.6049 51.952C79.9035 51.728 80.0529 51.424 80.0529 51.04V48.56C80.0529 48.176 79.9035 47.8773 79.6049 47.664C79.3169 47.44 78.9489 47.328 78.5009 47.328C78.0529 47.328 77.6795 47.488 77.3809 47.808C77.0929 48.1173 76.9489 48.5387 76.9489 49.072V50.528C76.9489 51.0613 77.0929 51.488 77.3809 51.808C77.6795 52.1173 78.0529 52.272 78.5009 52.272ZM88.1393 54.192C87.4993 54.192 86.9286 54.0907 86.4273 53.888C85.9259 53.6747 85.4993 53.3813 85.1473 53.008C84.8059 52.624 84.5446 52.16 84.3633 51.616C84.1926 51.072 84.1073 50.464 84.1073 49.792C84.1073 49.1307 84.1926 48.5333 84.3633 48C84.5339 47.456 84.7846 46.992 85.1153 46.608C85.4566 46.224 85.8726 45.9307 86.3633 45.728C86.8539 45.5147 87.4139 45.408 88.0433 45.408C88.7366 45.408 89.3286 45.5253 89.8193 45.76C90.3206 45.9947 90.7259 46.3093 91.0353 46.704C91.3553 47.0987 91.5846 47.5573 91.7233 48.08C91.8726 48.592 91.9473 49.1307 91.9473 49.696V50.4H86.5553V50.528C86.5553 51.0827 86.7046 51.5253 87.0033 51.856C87.3019 52.176 87.7713 52.336 88.4113 52.336C88.9019 52.336 89.3019 52.24 89.6113 52.048C89.9206 51.8453 90.2086 51.6053 90.4753 51.328L91.6593 52.8C91.2859 53.2373 90.7953 53.5787 90.1873 53.824C89.5899 54.0693 88.9073 54.192 88.1393 54.192ZM88.0913 47.152C87.6113 47.152 87.2326 47.312 86.9553 47.632C86.6886 47.9413 86.5553 48.3573 86.5553 48.88V49.008H89.4993V48.864C89.4993 48.352 89.3819 47.9413 89.1473 47.632C88.9233 47.312 88.5713 47.152 88.0913 47.152Z" fill="white"/>
<rect x="133" y="24" width="155" height="48" rx="24" fill="#F5F5F5"/>
<path d="M171 38H163C162.47 38 161.961 38.2107 161.586 38.5858C161.211 38.9609 161 39.4696 161 40V56C161 56.5304 161.211 57.0391 161.586 57.4142C161.961 57.7893 162.47 58 163 58H175C175.53 58 176.039 57.7893 176.414 57.4142C176.789 57.0391 177 56.5304 177 56V44L171 38ZM175 56H163V40H170V45H175V56Z" fill="#1A1A1A"/>
<path d="M190.488 42.832H194.232C194.925 42.832 195.555 42.9493 196.12 43.184C196.685 43.4187 197.165 43.7707 197.56 44.24C197.965 44.6987 198.275 45.28 198.488 45.984C198.701 46.6773 198.808 47.488 198.808 48.416C198.808 49.344 198.701 50.16 198.488 50.864C198.275 51.5573 197.965 52.1387 197.56 52.608C197.165 53.0667 196.685 53.4133 196.12 53.648C195.555 53.8827 194.925 54 194.232 54H190.488V42.832ZM194.232 52.816C194.691 52.816 195.112 52.7413 195.496 52.592C195.88 52.432 196.211 52.2027 196.488 51.904C196.765 51.6053 196.979 51.2427 197.128 50.816C197.288 50.3787 197.368 49.8827 197.368 49.328V47.504C197.368 46.9493 197.288 46.4587 197.128 46.032C196.979 45.5947 196.765 45.2267 196.488 44.928C196.211 44.6293 195.88 44.4053 195.496 44.256C195.112 44.096 194.691 44.016 194.232 44.016H191.832V52.816H194.232ZM204.214 54.192C203.66 54.192 203.153 54.0907 202.694 53.888C202.236 53.6853 201.841 53.3973 201.51 53.024C201.19 52.64 200.94 52.1867 200.758 51.664C200.577 51.1307 200.486 50.5333 200.486 49.872C200.486 49.2213 200.577 48.6293 200.758 48.096C200.94 47.5627 201.19 47.1093 201.51 46.736C201.841 46.352 202.236 46.0587 202.694 45.856C203.153 45.6533 203.66 45.552 204.214 45.552C204.769 45.552 205.27 45.6533 205.718 45.856C206.177 46.0587 206.572 46.352 206.902 46.736C207.233 47.1093 207.489 47.5627 207.67 48.096C207.852 48.6293 207.942 49.2213 207.942 49.872C207.942 50.5333 207.852 51.1307 207.67 51.664C207.489 52.1867 207.233 52.64 206.902 53.024C206.572 53.3973 206.177 53.6853 205.718 53.888C205.27 54.0907 204.769 54.192 204.214 54.192ZM204.214 53.056C204.908 53.056 205.473 52.8427 205.91 52.416C206.348 51.9893 206.566 51.3387 206.566 50.464V49.28C206.566 48.4053 206.348 47.7547 205.91 47.328C205.473 46.9013 204.908 46.688 204.214 46.688C203.521 46.688 202.956 46.9013 202.518 47.328C202.081 47.7547 201.862 48.4053 201.862 49.28V50.464C201.862 51.3387 202.081 51.9893 202.518 52.416C202.956 52.8427 203.521 53.056 204.214 53.056ZM210.048 42.16H211.328V49.664H211.392L212.656 48.256L214.992 45.744H216.544L213.488 49.008L216.848 54H215.296L212.56 49.792L211.328 51.056V54H210.048V42.16ZM223.417 52.656H223.353C223.267 52.848 223.161 53.04 223.033 53.232C222.915 53.4133 222.766 53.5787 222.585 53.728C222.403 53.8667 222.185 53.9787 221.929 54.064C221.673 54.1493 221.374 54.192 221.033 54.192C220.179 54.192 219.502 53.92 219.001 53.376C218.499 52.8213 218.249 52.0427 218.249 51.04V45.744H219.529V50.816C219.529 52.2987 220.158 53.04 221.417 53.04C221.673 53.04 221.918 53.008 222.153 52.944C222.398 52.88 222.611 52.784 222.793 52.656C222.985 52.528 223.134 52.368 223.241 52.176C223.358 51.9733 223.417 51.7333 223.417 51.456V45.744H224.697V54H223.417V52.656ZM227.423 54V45.744H228.703V47.088H228.767C228.863 46.8747 228.969 46.6773 229.087 46.496C229.215 46.304 229.364 46.1387 229.535 46C229.716 45.8613 229.924 45.7547 230.159 45.68C230.393 45.5947 230.671 45.552 230.991 45.552C231.535 45.552 232.036 45.6853 232.495 45.952C232.953 46.208 233.295 46.6347 233.519 47.232H233.551C233.7 46.784 233.977 46.3947 234.383 46.064C234.799 45.7227 235.359 45.552 236.062 45.552C236.905 45.552 237.561 45.8293 238.031 46.384C238.511 46.928 238.751 47.7013 238.751 48.704V54H237.471V48.928C237.471 48.192 237.327 47.6373 237.039 47.264C236.751 46.8907 236.292 46.704 235.663 46.704C235.407 46.704 235.161 46.736 234.927 46.8C234.703 46.864 234.5 46.96 234.319 47.088C234.137 47.216 233.993 47.3813 233.887 47.584C233.78 47.776 233.727 48.0053 233.727 48.272V54H232.447V48.928C232.447 48.192 232.303 47.6373 232.015 47.264C231.727 46.8907 231.279 46.704 230.671 46.704C230.415 46.704 230.169 46.736 229.935 46.8C229.7 46.864 229.492 46.96 229.311 47.088C229.129 47.216 228.98 47.3813 228.863 47.584C228.756 47.776 228.703 48.0053 228.703 48.272V54H227.423ZM244.495 54.192C243.93 54.192 243.418 54.0907 242.959 53.888C242.511 53.6853 242.122 53.3973 241.791 53.024C241.471 52.64 241.221 52.1867 241.039 51.664C240.869 51.1307 240.783 50.5333 240.783 49.872C240.783 49.2213 240.869 48.6293 241.039 48.096C241.221 47.5627 241.471 47.1093 241.791 46.736C242.122 46.352 242.511 46.0587 242.959 45.856C243.418 45.6533 243.93 45.552 244.495 45.552C245.05 45.552 245.546 45.6533 245.983 45.856C246.421 46.0587 246.794 46.3413 247.103 46.704C247.413 47.056 247.647 47.4773 247.807 47.968C247.978 48.4587 248.063 48.9973 248.063 49.584V50.192H242.127V50.576C242.127 50.928 242.181 51.2587 242.287 51.568C242.405 51.8667 242.565 52.128 242.767 52.352C242.981 52.576 243.237 52.752 243.535 52.88C243.845 53.008 244.191 53.072 244.575 53.072C245.098 53.072 245.551 52.9493 245.935 52.704C246.33 52.4587 246.634 52.1067 246.847 51.648L247.759 52.304C247.493 52.8693 247.077 53.328 246.511 53.68C245.946 54.0213 245.274 54.192 244.495 54.192ZM244.495 46.624C244.143 46.624 243.823 46.688 243.535 46.816C243.247 46.9333 242.997 47.104 242.783 47.328C242.581 47.552 242.421 47.8187 242.303 48.128C242.186 48.4267 242.127 48.7573 242.127 49.12V49.232H246.687V49.056C246.687 48.32 246.485 47.7333 246.079 47.296C245.685 46.848 245.157 46.624 244.495 46.624ZM250.173 54V45.744H251.453V47.088H251.517C251.719 46.6187 252.002 46.2453 252.365 45.968C252.738 45.6907 253.234 45.552 253.853 45.552C254.706 45.552 255.378 45.8293 255.869 46.384C256.37 46.928 256.621 47.7013 256.621 48.704V54H255.341V48.928C255.341 47.4453 254.717 46.704 253.469 46.704C253.213 46.704 252.962 46.736 252.717 46.8C252.482 46.864 252.269 46.96 252.077 47.088C251.885 47.216 251.73 47.3813 251.613 47.584C251.506 47.776 251.453 48.0053 251.453 48.272V54H250.173ZM261.09 54C260.642 54 260.301 53.8773 260.066 53.632C259.842 53.376 259.73 53.0453 259.73 52.64V46.864H258.37V45.744H259.138C259.416 45.744 259.602 45.6907 259.698 45.584C259.805 45.4667 259.858 45.2693 259.858 44.992V43.456H261.01V45.744H262.818V46.864H261.01V52.88H262.69V54H261.09Z" fill="#1A1A1A"/>
<path d="M189 56H263.522V56.96H189V56Z" fill="#1A1A1A"/>
<mask id="path-7-outside-1_8777_34232" maskUnits="userSpaceOnUse" x="15" y="87" width="388" height="146" fill="black">
<rect fill="white" x="15" y="87" width="388" height="146"/>
<path d="M16 88H402V232H16V88Z"/>
</mask>
<path d="M16 88H402V232H16V88Z" fill="white"/>
<path d="M16 88V87H15V88H16ZM402 88H403V87H402V88ZM402 232V233H403V232H402ZM16 232H15V233H16V232ZM16 89H402V87H16V89ZM401 88V232H403V88H401ZM402 231H16V233H402V231ZM17 232V88H15V232H17Z" fill="#747474" mask="url(#path-7-outside-1_8777_34232)"/>
<path d="M31.4019 104H386.599V216H31.4019V104Z" fill="#DCDCDC"/>
</svg>
