<svg width="419" height="257" viewBox="0 0 419 257" fill="none" xmlns="http://www.w3.org/2000/svg">
<rect width="418" height="257" fill="white"/>
<rect x="16" y="24" width="72" height="48" rx="24" fill="#454545"/>
<path d="M54 38L60 44V56C60 56.5304 59.7893 57.0391 59.4142 57.4142C59.0391 57.7893 58.5304 58 58 58H46C45.4696 58 44.9609 57.7893 44.5858 57.4142C44.2107 57.0391 44 56.5304 44 56V40C44 39.4696 44.2107 38.9609 44.5858 38.5858C44.9609 38.2107 45.4696 38 46 38H54ZM58 56V45H53V40H46V56H58ZM57 49V55H47L52 50L54 52L57 49ZM50 46.5C50 46.8978 49.842 47.2794 49.5607 47.5607C49.2794 47.842 48.8978 48 48.5 48C48.1022 48 47.7206 47.842 47.4393 47.5607C47.158 47.2794 47 46.8978 47 46.5C47 46.1022 47.158 45.7206 47.4393 45.4393C47.7206 45.158 48.1022 45 48.5 45C48.8978 45 49.2794 45.158 49.5607 45.4393C49.842 45.7206 50 46.1022 50 46.5Z" fill="white"/>
<rect x="104" y="24" width="72" height="48" rx="24" fill="#F5F5F5"/>
<path d="M142 38H134C133.47 38 132.961 38.2107 132.586 38.5858C132.211 38.9609 132 39.4696 132 40V56C132 56.5304 132.211 57.0391 132.586 57.4142C132.961 57.7893 133.47 58 134 58H146C146.53 58 147.039 57.7893 147.414 57.4142C147.789 57.0391 148 56.5304 148 56V44L142 38ZM146 56H134V40H141V45H146V56Z" fill="#1A1A1A"/>
<mask id="path-6-outside-1_8777_34267" maskUnits="userSpaceOnUse" x="15" y="87" width="388" height="146" fill="black">
<rect fill="white" x="15" y="87" width="388" height="146"/>
<path d="M16 88H402V232H16V88Z"/>
</mask>
<path d="M16 88H402V232H16V88Z" fill="white"/>
<path d="M16 88V87H15V88H16ZM402 88H403V87H402V88ZM402 232V233H403V232H402ZM16 232H15V233H16V232ZM16 89H402V87H16V89ZM401 88V232H403V88H401ZM402 231H16V233H402V231ZM17 232V88H15V232H17Z" fill="#747474" mask="url(#path-6-outside-1_8777_34267)"/>
<path d="M31.4019 104H386.599V216H31.4019V104Z" fill="#DCDCDC"/>
</svg>
