<svg width="419" height="257" viewBox="0 0 419 257" fill="none" xmlns="http://www.w3.org/2000/svg">
<rect width="418" height="257" fill="white"/>
<rect x="16" y="24" width="133" height="48" rx="24" fill="#454545"/>
<path d="M54 38L60 44V56C60 56.5304 59.7893 57.0391 59.4142 57.4142C59.0391 57.7893 58.5304 58 58 58H46C45.4696 58 44.9609 57.7893 44.5858 57.4142C44.2107 57.0391 44 56.5304 44 56V40C44 39.4696 44.2107 38.9609 44.5858 38.5858C44.9609 38.2107 45.4696 38 46 38H54ZM58 56V45H53V40H46V56H58ZM57 49V55H47L52 50L54 52L57 49ZM50 46.5C50 46.8978 49.842 47.2794 49.5607 47.5607C49.2794 47.842 48.8978 48 48.5 48C48.1022 48 47.7206 47.842 47.4393 47.5607C47.158 47.2794 47 46.8978 47 46.5C47 46.1022 47.158 45.7206 47.4393 45.4393C47.7206 45.158 48.1022 45 48.5 45C48.8978 45 49.2794 45.158 49.5607 45.4393C49.842 45.7206 50 46.1022 50 46.5Z" fill="white"/>
<path d="M73.232 42.832H78.656C79.584 42.832 80.304 43.0933 80.816 43.616C81.3387 44.1387 81.6 44.832 81.6 45.696C81.6 46.1227 81.5413 46.4853 81.424 46.784C81.3173 47.0827 81.168 47.328 80.976 47.52C80.7947 47.712 80.576 47.856 80.32 47.952C80.0747 48.0373 79.808 48.0853 79.52 48.096V48.192C79.7867 48.192 80.064 48.24 80.352 48.336C80.6507 48.432 80.9227 48.5867 81.168 48.8C81.4133 49.0027 81.616 49.2693 81.776 49.6C81.9467 49.9307 82.032 50.336 82.032 50.816C82.032 51.2533 81.9573 51.6693 81.808 52.064C81.6693 52.448 81.472 52.784 81.216 53.072C80.96 53.36 80.656 53.5893 80.304 53.76C79.952 53.92 79.568 54 79.152 54H73.232V42.832ZM75.664 51.952H78.464C78.784 51.952 79.0347 51.8667 79.216 51.696C79.408 51.5147 79.504 51.264 79.504 50.944V50.4C79.504 50.08 79.408 49.8347 79.216 49.664C79.0347 49.4827 78.784 49.392 78.464 49.392H75.664V51.952ZM75.664 47.408H78.08C78.4 47.408 78.6507 47.3173 78.832 47.136C79.0133 46.9547 79.104 46.704 79.104 46.384V45.904C79.104 45.584 79.0133 45.3333 78.832 45.152C78.6507 44.9707 78.4 44.88 78.08 44.88H75.664V47.408ZM84.9599 44.704C84.4799 44.704 84.1279 44.5973 83.9039 44.384C83.6905 44.16 83.5839 43.8773 83.5839 43.536V43.184C83.5839 42.8427 83.6905 42.5653 83.9039 42.352C84.1279 42.128 84.4799 42.016 84.9599 42.016C85.4399 42.016 85.7865 42.128 85.9999 42.352C86.2239 42.5653 86.3359 42.8427 86.3359 43.184V43.536C86.3359 43.8773 86.2239 44.16 85.9999 44.384C85.7865 44.5973 85.4399 44.704 84.9599 44.704ZM83.7759 45.6H86.1439V54H83.7759V45.6ZM90.706 54C89.8953 54 89.298 53.8027 88.914 53.408C88.5407 53.0133 88.354 52.4427 88.354 51.696V42.16H90.722V52.16H91.778V54H90.706ZM95.4248 54C94.6141 54 94.0168 53.8027 93.6328 53.408C93.2594 53.0133 93.0728 52.4427 93.0728 51.696V42.16H95.4408V52.16H96.4968V54H95.4248ZM101.421 54.192C100.781 54.192 100.21 54.0907 99.7085 53.888C99.2072 53.6747 98.7805 53.3813 98.4285 53.008C98.0872 52.624 97.8258 52.16 97.6445 51.616C97.4738 51.072 97.3885 50.464 97.3885 49.792C97.3885 49.1307 97.4738 48.5333 97.6445 48C97.8152 47.456 98.0658 46.992 98.3965 46.608C98.7378 46.224 99.1538 45.9307 99.6445 45.728C100.135 45.5147 100.695 45.408 101.325 45.408C102.018 45.408 102.61 45.5253 103.101 45.76C103.602 45.9947 104.007 46.3093 104.317 46.704C104.637 47.0987 104.866 47.5573 105.005 48.08C105.154 48.592 105.229 49.1307 105.229 49.696V50.4H99.8365V50.528C99.8365 51.0827 99.9858 51.5253 100.285 51.856C100.583 52.176 101.053 52.336 101.693 52.336C102.183 52.336 102.583 52.24 102.893 52.048C103.202 51.8453 103.49 51.6053 103.757 51.328L104.941 52.8C104.567 53.2373 104.077 53.5787 103.469 53.824C102.871 54.0693 102.189 54.192 101.421 54.192ZM101.373 47.152C100.893 47.152 100.514 47.312 100.237 47.632C99.9698 47.9413 99.8365 48.3573 99.8365 48.88V49.008H102.781V48.864C102.781 48.352 102.663 47.9413 102.429 47.632C102.205 47.312 101.853 47.152 101.373 47.152ZM112.053 52.592H111.973C111.909 52.816 111.808 53.0293 111.669 53.232C111.53 53.424 111.36 53.5947 111.157 53.744C110.965 53.8827 110.741 53.9893 110.485 54.064C110.24 54.1493 109.984 54.192 109.717 54.192C108.65 54.192 107.845 53.8187 107.301 53.072C106.757 52.3147 106.485 51.2213 106.485 49.792C106.485 48.3627 106.757 47.2747 107.301 46.528C107.845 45.7813 108.65 45.408 109.717 45.408C110.261 45.408 110.741 45.5573 111.157 45.856C111.584 46.1547 111.856 46.5387 111.973 47.008H112.053V42.16H114.421V54H112.053V52.592ZM110.501 52.272C110.949 52.272 111.317 52.1653 111.605 51.952C111.904 51.728 112.053 51.424 112.053 51.04V48.56C112.053 48.176 111.904 47.8773 111.605 47.664C111.317 47.44 110.949 47.328 110.501 47.328C110.053 47.328 109.68 47.488 109.381 47.808C109.093 48.1173 108.949 48.5387 108.949 49.072V50.528C108.949 51.0613 109.093 51.488 109.381 51.808C109.68 52.1173 110.053 52.272 110.501 52.272ZM120.139 54.192C119.499 54.192 118.929 54.0907 118.427 53.888C117.926 53.6747 117.499 53.3813 117.147 53.008C116.806 52.624 116.545 52.16 116.363 51.616C116.193 51.072 116.107 50.464 116.107 49.792C116.107 49.1307 116.193 48.5333 116.363 48C116.534 47.456 116.785 46.992 117.115 46.608C117.457 46.224 117.873 45.9307 118.363 45.728C118.854 45.5147 119.414 45.408 120.043 45.408C120.737 45.408 121.329 45.5253 121.819 45.76C122.321 45.9947 122.726 46.3093 123.035 46.704C123.355 47.0987 123.585 47.5573 123.723 48.08C123.873 48.592 123.947 49.1307 123.947 49.696V50.4H118.555V50.528C118.555 51.0827 118.705 51.5253 119.003 51.856C119.302 52.176 119.771 52.336 120.411 52.336C120.902 52.336 121.302 52.24 121.611 52.048C121.921 51.8453 122.209 51.6053 122.475 51.328L123.659 52.8C123.286 53.2373 122.795 53.5787 122.187 53.824C121.59 54.0693 120.907 54.192 120.139 54.192ZM120.091 47.152C119.611 47.152 119.233 47.312 118.955 47.632C118.689 47.9413 118.555 48.3573 118.555 48.88V49.008H121.499V48.864C121.499 48.352 121.382 47.9413 121.147 47.632C120.923 47.312 120.571 47.152 120.091 47.152Z" fill="white"/>
<rect x="165" y="24" width="155" height="48" rx="24" fill="#F5F5F5"/>
<path d="M203 38H195C194.47 38 193.961 38.2107 193.586 38.5858C193.211 38.9609 193 39.4696 193 40V56C193 56.5304 193.211 57.0391 193.586 57.4142C193.961 57.7893 194.47 58 195 58H207C207.53 58 208.039 57.7893 208.414 57.4142C208.789 57.0391 209 56.5304 209 56V44L203 38ZM207 56H195V40H202V45H207V56Z" fill="#1A1A1A"/>
<path d="M222.488 42.832H226.232C226.925 42.832 227.555 42.9493 228.12 43.184C228.685 43.4187 229.165 43.7707 229.56 44.24C229.965 44.6987 230.275 45.28 230.488 45.984C230.701 46.6773 230.808 47.488 230.808 48.416C230.808 49.344 230.701 50.16 230.488 50.864C230.275 51.5573 229.965 52.1387 229.56 52.608C229.165 53.0667 228.685 53.4133 228.12 53.648C227.555 53.8827 226.925 54 226.232 54H222.488V42.832ZM226.232 52.816C226.691 52.816 227.112 52.7413 227.496 52.592C227.88 52.432 228.211 52.2027 228.488 51.904C228.765 51.6053 228.979 51.2427 229.128 50.816C229.288 50.3787 229.368 49.8827 229.368 49.328V47.504C229.368 46.9493 229.288 46.4587 229.128 46.032C228.979 45.5947 228.765 45.2267 228.488 44.928C228.211 44.6293 227.88 44.4053 227.496 44.256C227.112 44.096 226.691 44.016 226.232 44.016H223.832V52.816H226.232ZM236.214 54.192C235.66 54.192 235.153 54.0907 234.694 53.888C234.236 53.6853 233.841 53.3973 233.51 53.024C233.19 52.64 232.94 52.1867 232.758 51.664C232.577 51.1307 232.486 50.5333 232.486 49.872C232.486 49.2213 232.577 48.6293 232.758 48.096C232.94 47.5627 233.19 47.1093 233.51 46.736C233.841 46.352 234.236 46.0587 234.694 45.856C235.153 45.6533 235.66 45.552 236.214 45.552C236.769 45.552 237.27 45.6533 237.718 45.856C238.177 46.0587 238.572 46.352 238.902 46.736C239.233 47.1093 239.489 47.5627 239.67 48.096C239.852 48.6293 239.942 49.2213 239.942 49.872C239.942 50.5333 239.852 51.1307 239.67 51.664C239.489 52.1867 239.233 52.64 238.902 53.024C238.572 53.3973 238.177 53.6853 237.718 53.888C237.27 54.0907 236.769 54.192 236.214 54.192ZM236.214 53.056C236.908 53.056 237.473 52.8427 237.91 52.416C238.348 51.9893 238.566 51.3387 238.566 50.464V49.28C238.566 48.4053 238.348 47.7547 237.91 47.328C237.473 46.9013 236.908 46.688 236.214 46.688C235.521 46.688 234.956 46.9013 234.518 47.328C234.081 47.7547 233.862 48.4053 233.862 49.28V50.464C233.862 51.3387 234.081 51.9893 234.518 52.416C234.956 52.8427 235.521 53.056 236.214 53.056ZM242.048 42.16H243.328V49.664H243.392L244.656 48.256L246.992 45.744H248.544L245.488 49.008L248.848 54H247.296L244.56 49.792L243.328 51.056V54H242.048V42.16ZM255.417 52.656H255.353C255.267 52.848 255.161 53.04 255.033 53.232C254.915 53.4133 254.766 53.5787 254.585 53.728C254.403 53.8667 254.185 53.9787 253.929 54.064C253.673 54.1493 253.374 54.192 253.033 54.192C252.179 54.192 251.502 53.92 251.001 53.376C250.499 52.8213 250.249 52.0427 250.249 51.04V45.744H251.529V50.816C251.529 52.2987 252.158 53.04 253.417 53.04C253.673 53.04 253.918 53.008 254.153 52.944C254.398 52.88 254.611 52.784 254.793 52.656C254.985 52.528 255.134 52.368 255.241 52.176C255.358 51.9733 255.417 51.7333 255.417 51.456V45.744H256.697V54H255.417V52.656ZM259.423 54V45.744H260.703V47.088H260.767C260.863 46.8747 260.969 46.6773 261.087 46.496C261.215 46.304 261.364 46.1387 261.535 46C261.716 45.8613 261.924 45.7547 262.159 45.68C262.393 45.5947 262.671 45.552 262.991 45.552C263.535 45.552 264.036 45.6853 264.495 45.952C264.953 46.208 265.295 46.6347 265.519 47.232H265.551C265.7 46.784 265.977 46.3947 266.383 46.064C266.799 45.7227 267.359 45.552 268.062 45.552C268.905 45.552 269.561 45.8293 270.031 46.384C270.511 46.928 270.751 47.7013 270.751 48.704V54H269.471V48.928C269.471 48.192 269.327 47.6373 269.039 47.264C268.751 46.8907 268.292 46.704 267.663 46.704C267.407 46.704 267.161 46.736 266.927 46.8C266.703 46.864 266.5 46.96 266.319 47.088C266.137 47.216 265.993 47.3813 265.887 47.584C265.78 47.776 265.727 48.0053 265.727 48.272V54H264.447V48.928C264.447 48.192 264.303 47.6373 264.015 47.264C263.727 46.8907 263.279 46.704 262.671 46.704C262.415 46.704 262.169 46.736 261.935 46.8C261.7 46.864 261.492 46.96 261.311 47.088C261.129 47.216 260.98 47.3813 260.863 47.584C260.756 47.776 260.703 48.0053 260.703 48.272V54H259.423ZM276.495 54.192C275.93 54.192 275.418 54.0907 274.959 53.888C274.511 53.6853 274.122 53.3973 273.791 53.024C273.471 52.64 273.221 52.1867 273.039 51.664C272.869 51.1307 272.783 50.5333 272.783 49.872C272.783 49.2213 272.869 48.6293 273.039 48.096C273.221 47.5627 273.471 47.1093 273.791 46.736C274.122 46.352 274.511 46.0587 274.959 45.856C275.418 45.6533 275.93 45.552 276.495 45.552C277.05 45.552 277.546 45.6533 277.983 45.856C278.421 46.0587 278.794 46.3413 279.103 46.704C279.413 47.056 279.647 47.4773 279.807 47.968C279.978 48.4587 280.063 48.9973 280.063 49.584V50.192H274.127V50.576C274.127 50.928 274.181 51.2587 274.287 51.568C274.405 51.8667 274.565 52.128 274.767 52.352C274.981 52.576 275.237 52.752 275.535 52.88C275.845 53.008 276.191 53.072 276.575 53.072C277.098 53.072 277.551 52.9493 277.935 52.704C278.33 52.4587 278.634 52.1067 278.847 51.648L279.759 52.304C279.493 52.8693 279.077 53.328 278.511 53.68C277.946 54.0213 277.274 54.192 276.495 54.192ZM276.495 46.624C276.143 46.624 275.823 46.688 275.535 46.816C275.247 46.9333 274.997 47.104 274.783 47.328C274.581 47.552 274.421 47.8187 274.303 48.128C274.186 48.4267 274.127 48.7573 274.127 49.12V49.232H278.687V49.056C278.687 48.32 278.485 47.7333 278.079 47.296C277.685 46.848 277.157 46.624 276.495 46.624ZM282.173 54V45.744H283.453V47.088H283.517C283.719 46.6187 284.002 46.2453 284.365 45.968C284.738 45.6907 285.234 45.552 285.853 45.552C286.706 45.552 287.378 45.8293 287.869 46.384C288.37 46.928 288.621 47.7013 288.621 48.704V54H287.341V48.928C287.341 47.4453 286.717 46.704 285.469 46.704C285.213 46.704 284.962 46.736 284.717 46.8C284.482 46.864 284.269 46.96 284.077 47.088C283.885 47.216 283.73 47.3813 283.613 47.584C283.506 47.776 283.453 48.0053 283.453 48.272V54H282.173ZM293.09 54C292.642 54 292.301 53.8773 292.066 53.632C291.842 53.376 291.73 53.0453 291.73 52.64V46.864H290.37V45.744H291.138C291.416 45.744 291.602 45.6907 291.698 45.584C291.805 45.4667 291.858 45.2693 291.858 44.992V43.456H293.01V45.744H294.818V46.864H293.01V52.88H294.69V54H293.09Z" fill="#1A1A1A"/>
<path d="M221 56H295.522V56.96H221V56Z" fill="#1A1A1A"/>
<mask id="path-8-outside-1_8777_34250" maskUnits="userSpaceOnUse" x="15" y="87" width="388" height="146" fill="black">
<rect fill="white" x="15" y="87" width="388" height="146"/>
<path d="M16 88H402V232H16V88Z"/>
</mask>
<path d="M16 88H402V232H16V88Z" fill="white"/>
<path d="M16 88V87H15V88H16ZM402 88H403V87H402V88ZM402 232V233H403V232H402ZM16 232H15V233H16V232ZM16 89H402V87H16V89ZM401 88V232H403V88H401ZM402 231H16V233H402V231ZM17 232V88H15V232H17Z" fill="#747474" mask="url(#path-8-outside-1_8777_34250)"/>
<path d="M31.4019 104H386.599V216H31.4019V104Z" fill="#DCDCDC"/>
</svg>
