<svg width="418" height="292" viewBox="0 0 418 292" fill="none" xmlns="http://www.w3.org/2000/svg">
<rect width="418" height="292" fill="white"/>
<path d="M23.176 41.288C21.736 41.288 20.512 41.032 19.504 40.52C18.512 40.008 17.656 39.336 16.936 38.504L19.072 36.44C19.648 37.112 20.288 37.624 20.992 37.976C21.712 38.328 22.504 38.504 23.368 38.504C24.344 38.504 25.08 38.296 25.576 37.88C26.072 37.448 26.32 36.872 26.32 36.152C26.32 35.592 26.16 35.136 25.84 34.784C25.52 34.432 24.92 34.176 24.04 34.016L22.456 33.776C19.112 33.248 17.44 31.624 17.44 28.904C17.44 28.152 17.576 27.472 17.848 26.864C18.136 26.256 18.544 25.736 19.072 25.304C19.6 24.872 20.232 24.544 20.968 24.32C21.72 24.08 22.568 23.96 23.512 23.96C24.776 23.96 25.88 24.168 26.824 24.584C27.768 25 28.576 25.616 29.248 26.432L27.088 28.472C26.672 27.96 26.168 27.544 25.576 27.224C24.984 26.904 24.24 26.744 23.344 26.744C22.432 26.744 21.744 26.92 21.28 27.272C20.832 27.608 20.608 28.088 20.608 28.712C20.608 29.352 20.792 29.824 21.16 30.128C21.528 30.432 22.12 30.656 22.936 30.8L24.496 31.088C26.192 31.392 27.44 31.936 28.24 32.72C29.056 33.488 29.464 34.568 29.464 35.96C29.464 36.76 29.32 37.488 29.032 38.144C28.76 38.784 28.352 39.344 27.808 39.824C27.28 40.288 26.624 40.648 25.84 40.904C25.072 41.16 24.184 41.288 23.176 41.288ZM32.4479 23.24H35.5199V33.944H35.6399L37.2959 31.688L40.1039 28.472H43.5839L39.2639 33.32L44.0399 41H40.3919L37.1759 35.384L35.5199 37.184V41H32.4479V23.24ZM45.9244 41V28.472H48.9964V31.064H49.1164C49.1964 30.728 49.3164 30.408 49.4764 30.104C49.6524 29.784 49.8764 29.504 50.1484 29.264C50.4204 29.024 50.7404 28.832 51.1084 28.688C51.4924 28.544 51.9324 28.472 52.4284 28.472H53.1004V31.376H52.1404C51.1004 31.376 50.3164 31.528 49.7884 31.832C49.2604 32.136 48.9964 32.632 48.9964 33.32V41H45.9244ZM56.8823 26.648C56.2423 26.648 55.7783 26.504 55.4903 26.216C55.2183 25.928 55.0823 25.56 55.0823 25.112V24.632C55.0823 24.184 55.2183 23.816 55.4903 23.528C55.7783 23.24 56.2423 23.096 56.8823 23.096C57.5063 23.096 57.9623 23.24 58.2503 23.528C58.5383 23.816 58.6823 24.184 58.6823 24.632V25.112C58.6823 25.56 58.5383 25.928 58.2503 26.216C57.9623 26.504 57.5063 26.648 56.8823 26.648ZM55.3463 28.472H58.4183V41H55.3463V28.472ZM64.6671 41L60.4911 28.472H63.5151L65.2671 33.872L66.4911 38.336H66.6591L67.8831 33.872L69.5871 28.472H72.5151L68.3151 41H64.6671ZM88.0129 38.912H87.8929C87.6689 39.632 87.2449 40.208 86.6209 40.64C85.9969 41.072 85.2689 41.288 84.4369 41.288C82.8529 41.288 81.6369 40.72 80.7889 39.584C79.9569 38.448 79.5409 36.824 79.5409 34.712C79.5409 32.616 79.9569 31.008 80.7889 29.888C81.6369 28.752 82.8529 28.184 84.4369 28.184C85.2689 28.184 85.9969 28.4 86.6209 28.832C87.2449 29.248 87.6689 29.816 87.8929 30.536H88.0129V23.24H91.0849V41H88.0129V38.912ZM85.4209 38.744C86.1569 38.744 86.7729 38.568 87.2689 38.216C87.7649 37.864 88.0129 37.36 88.0129 36.704V32.72C88.0129 32.112 87.7649 31.624 87.2689 31.256C86.7729 30.888 86.1569 30.704 85.4209 30.704C84.6209 30.704 83.9729 30.976 83.4769 31.52C82.9969 32.048 82.7569 32.76 82.7569 33.656V35.816C82.7569 36.712 82.9969 37.424 83.4769 37.952C83.9729 38.48 84.6209 38.744 85.4209 38.744ZM96.1636 26.648C95.5236 26.648 95.0596 26.504 94.7716 26.216C94.4996 25.928 94.3636 25.56 94.3636 25.112V24.632C94.3636 24.184 94.4996 23.816 94.7716 23.528C95.0596 23.24 95.5236 23.096 96.1636 23.096C96.7876 23.096 97.2436 23.24 97.5316 23.528C97.8196 23.816 97.9636 24.184 97.9636 24.632V25.112C97.9636 25.56 97.8196 25.928 97.5316 26.216C97.2436 26.504 96.7876 26.648 96.1636 26.648ZM94.6276 28.472H97.6996V41H94.6276V28.472ZM105.172 41C104.116 41 103.308 40.728 102.748 40.184C102.204 39.624 101.932 38.832 101.932 37.808V30.92H100.084V28.472H101.044C101.508 28.472 101.82 28.368 101.98 28.16C102.156 27.936 102.244 27.608 102.244 27.176V25.04H105.004V28.472H107.572V30.92H105.004V38.552H107.38V41H105.172ZM115.909 23.24H118.981V30.536H119.077C119.301 29.816 119.725 29.248 120.349 28.832C120.973 28.4 121.701 28.184 122.533 28.184C124.133 28.184 125.349 28.752 126.181 29.888C127.029 31.008 127.453 32.616 127.453 34.712C127.453 36.824 127.029 38.448 126.181 39.584C125.349 40.72 124.133 41.288 122.533 41.288C121.701 41.288 120.973 41.072 120.349 40.64C119.741 40.208 119.317 39.632 119.077 38.912H118.981V41H115.909V23.24ZM121.549 38.744C122.349 38.744 122.997 38.48 123.493 37.952C123.989 37.424 124.237 36.712 124.237 35.816V33.656C124.237 32.76 123.989 32.048 123.493 31.52C122.997 30.976 122.349 30.704 121.549 30.704C120.813 30.704 120.197 30.888 119.701 31.256C119.221 31.624 118.981 32.112 118.981 32.72V36.704C118.981 37.36 119.221 37.864 119.701 38.216C120.197 38.568 120.813 38.744 121.549 38.744ZM139.515 41C138.843 41 138.307 40.808 137.907 40.424C137.523 40.024 137.283 39.496 137.187 38.84H137.043C136.835 39.656 136.411 40.272 135.771 40.688C135.131 41.088 134.339 41.288 133.395 41.288C132.115 41.288 131.131 40.952 130.443 40.28C129.755 39.608 129.411 38.712 129.411 37.592C129.411 36.296 129.875 35.336 130.803 34.712C131.731 34.072 133.051 33.752 134.763 33.752H136.899V32.84C136.899 32.136 136.715 31.592 136.347 31.208C135.979 30.824 135.387 30.632 134.571 30.632C133.851 30.632 133.267 30.792 132.819 31.112C132.387 31.416 132.019 31.784 131.715 32.216L129.891 30.584C130.355 29.864 130.971 29.288 131.739 28.856C132.507 28.408 133.523 28.184 134.787 28.184C136.483 28.184 137.771 28.568 138.651 29.336C139.531 30.104 139.971 31.208 139.971 32.648V38.552H141.219V41H139.515ZM134.427 39.056C135.115 39.056 135.699 38.904 136.179 38.6C136.659 38.296 136.899 37.848 136.899 37.256V35.6H134.931C133.331 35.6 132.531 36.112 132.531 37.136V37.544C132.531 38.056 132.691 38.44 133.011 38.696C133.347 38.936 133.819 39.056 134.427 39.056ZM143.706 41V28.472H146.778V31.064H146.898C146.978 30.728 147.098 30.408 147.258 30.104C147.434 29.784 147.658 29.504 147.93 29.264C148.202 29.024 148.522 28.832 148.89 28.688C149.274 28.544 149.714 28.472 150.21 28.472H150.882V31.376H149.922C148.882 31.376 148.098 31.528 147.57 31.832C147.042 32.136 146.778 32.632 146.778 33.32V41H143.706ZM153.128 41V28.472H156.2V30.56H156.32C156.576 29.888 156.976 29.328 157.52 28.88C158.08 28.416 158.848 28.184 159.824 28.184C161.12 28.184 162.112 28.608 162.8 29.456C163.488 30.304 163.832 31.512 163.832 33.08V41H160.76V33.392C160.76 32.496 160.6 31.824 160.28 31.376C159.96 30.928 159.432 30.704 158.696 30.704C158.376 30.704 158.064 30.752 157.76 30.848C157.472 30.928 157.208 31.056 156.968 31.232C156.744 31.392 156.56 31.6 156.416 31.856C156.272 32.096 156.2 32.384 156.2 32.72V41H153.128ZM177.877 41.288C176.981 41.288 176.173 41.136 175.453 40.832C174.749 40.528 174.141 40.088 173.629 39.512C173.133 38.936 172.749 38.248 172.477 37.448C172.205 36.632 172.069 35.72 172.069 34.712C172.069 33.704 172.205 32.8 172.477 32C172.749 31.2 173.133 30.52 173.629 29.96C174.141 29.384 174.749 28.944 175.453 28.64C176.173 28.336 176.981 28.184 177.877 28.184C178.773 28.184 179.581 28.336 180.301 28.64C181.021 28.944 181.629 29.384 182.125 29.96C182.637 30.52 183.029 31.2 183.301 32C183.573 32.8 183.709 33.704 183.709 34.712C183.709 35.72 183.573 36.632 183.301 37.448C183.029 38.248 182.637 38.936 182.125 39.512C181.629 40.088 181.021 40.528 180.301 40.832C179.581 41.136 178.773 41.288 177.877 41.288ZM177.877 38.816C178.693 38.816 179.333 38.568 179.797 38.072C180.261 37.576 180.493 36.848 180.493 35.888V33.56C180.493 32.616 180.261 31.896 179.797 31.4C179.333 30.904 178.693 30.656 177.877 30.656C177.077 30.656 176.445 30.904 175.981 31.4C175.517 31.896 175.285 32.616 175.285 33.56V35.888C175.285 36.848 175.517 37.576 175.981 38.072C176.445 38.568 177.077 38.816 177.877 38.816ZM186.432 28.472H189.504V30.536H189.6C189.824 29.816 190.248 29.248 190.872 28.832C191.496 28.4 192.224 28.184 193.056 28.184C194.656 28.184 195.872 28.752 196.704 29.888C197.552 31.008 197.976 32.616 197.976 34.712C197.976 36.824 197.552 38.448 196.704 39.584C195.872 40.72 194.656 41.288 193.056 41.288C192.224 41.288 191.496 41.072 190.872 40.64C190.264 40.208 189.84 39.632 189.6 38.912H189.504V45.8H186.432V28.472ZM192.072 38.744C192.872 38.744 193.52 38.48 194.016 37.952C194.512 37.424 194.76 36.712 194.76 35.816V33.656C194.76 32.76 194.512 32.048 194.016 31.52C193.52 30.976 192.872 30.704 192.072 30.704C191.336 30.704 190.72 30.888 190.224 31.256C189.744 31.624 189.504 32.112 189.504 32.72V36.704C189.504 37.36 189.744 37.864 190.224 38.216C190.72 38.568 191.336 38.744 192.072 38.744ZM210.407 41C209.351 41 208.543 40.728 207.983 40.184C207.439 39.624 207.167 38.832 207.167 37.808V30.92H205.319V28.472H206.279C206.743 28.472 207.055 28.368 207.215 28.16C207.391 27.936 207.479 27.608 207.479 27.176V25.04H210.239V28.472H212.807V30.92H210.239V38.552H212.615V41H210.407ZM217.007 26.648C216.367 26.648 215.903 26.504 215.615 26.216C215.343 25.928 215.207 25.56 215.207 25.112V24.632C215.207 24.184 215.343 23.816 215.615 23.528C215.903 23.24 216.367 23.096 217.007 23.096C217.631 23.096 218.087 23.24 218.375 23.528C218.663 23.816 218.807 24.184 218.807 24.632V25.112C218.807 25.56 218.663 25.928 218.375 26.216C218.087 26.504 217.631 26.648 217.007 26.648ZM215.471 28.472H218.543V41H215.471V28.472ZM225.176 41C224.12 41 223.344 40.736 222.848 40.208C222.352 39.68 222.104 38.936 222.104 37.976V23.24H225.176V38.552H226.832V41H225.176ZM234.831 28.472H237.903V30.536H237.999C238.223 29.816 238.647 29.248 239.271 28.832C239.895 28.4 240.623 28.184 241.455 28.184C243.055 28.184 244.271 28.752 245.103 29.888C245.951 31.008 246.375 32.616 246.375 34.712C246.375 36.824 245.951 38.448 245.103 39.584C244.271 40.72 243.055 41.288 241.455 41.288C240.623 41.288 239.895 41.072 239.271 40.64C238.663 40.208 238.239 39.632 237.999 38.912H237.903V45.8H234.831V28.472ZM240.471 38.744C241.271 38.744 241.919 38.48 242.415 37.952C242.911 37.424 243.159 36.712 243.159 35.816V33.656C243.159 32.76 242.911 32.048 242.415 31.52C241.919 30.976 241.271 30.704 240.471 30.704C239.735 30.704 239.119 30.888 238.623 31.256C238.143 31.624 237.903 32.112 237.903 32.72V36.704C237.903 37.36 238.143 37.864 238.623 38.216C239.119 38.568 239.735 38.744 240.471 38.744ZM258.437 41C257.765 41 257.229 40.808 256.829 40.424C256.445 40.024 256.205 39.496 256.109 38.84H255.965C255.757 39.656 255.333 40.272 254.693 40.688C254.053 41.088 253.261 41.288 252.317 41.288C251.037 41.288 250.053 40.952 249.365 40.28C248.677 39.608 248.333 38.712 248.333 37.592C248.333 36.296 248.797 35.336 249.725 34.712C250.653 34.072 251.973 33.752 253.685 33.752H255.821V32.84C255.821 32.136 255.637 31.592 255.269 31.208C254.901 30.824 254.309 30.632 253.493 30.632C252.773 30.632 252.189 30.792 251.741 31.112C251.309 31.416 250.941 31.784 250.637 32.216L248.813 30.584C249.277 29.864 249.893 29.288 250.661 28.856C251.429 28.408 252.445 28.184 253.709 28.184C255.405 28.184 256.693 28.568 257.573 29.336C258.453 30.104 258.893 31.208 258.893 32.648V38.552H260.141V41H258.437ZM253.349 39.056C254.037 39.056 254.621 38.904 255.101 38.6C255.581 38.296 255.821 37.848 255.821 37.256V35.6H253.853C252.253 35.6 251.453 36.112 251.453 37.136V37.544C251.453 38.056 251.613 38.44 251.933 38.696C252.269 38.936 252.741 39.056 253.349 39.056ZM266.732 41.288C265.532 41.288 264.524 41.088 263.708 40.688C262.892 40.272 262.172 39.704 261.548 38.984L263.42 37.16C263.884 37.688 264.388 38.104 264.932 38.408C265.492 38.712 266.132 38.864 266.852 38.864C267.588 38.864 268.116 38.736 268.436 38.48C268.772 38.224 268.94 37.872 268.94 37.424C268.94 37.056 268.82 36.768 268.58 36.56C268.356 36.336 267.964 36.184 267.404 36.104L266.156 35.936C264.796 35.76 263.756 35.376 263.036 34.784C262.332 34.176 261.98 33.296 261.98 32.144C261.98 31.536 262.092 30.992 262.316 30.512C262.54 30.016 262.86 29.6 263.276 29.264C263.692 28.912 264.188 28.648 264.764 28.472C265.356 28.28 266.012 28.184 266.732 28.184C267.34 28.184 267.876 28.232 268.34 28.328C268.82 28.408 269.252 28.536 269.636 28.712C270.02 28.872 270.372 29.08 270.692 29.336C271.012 29.576 271.324 29.848 271.628 30.152L269.828 31.952C269.46 31.568 269.02 31.248 268.508 30.992C267.996 30.736 267.436 30.608 266.828 30.608C266.156 30.608 265.668 30.728 265.364 30.968C265.076 31.208 264.932 31.52 264.932 31.904C264.932 32.32 265.052 32.64 265.292 32.864C265.548 33.072 265.972 33.224 266.564 33.32L267.836 33.488C270.54 33.872 271.892 35.104 271.892 37.184C271.892 37.792 271.764 38.352 271.508 38.864C271.268 39.36 270.924 39.792 270.476 40.16C270.028 40.512 269.484 40.792 268.844 41C268.22 41.192 267.516 41.288 266.732 41.288ZM274.604 41V28.472H277.676V30.56H277.796C278.052 29.888 278.452 29.328 278.996 28.88C279.556 28.416 280.324 28.184 281.3 28.184C282.596 28.184 283.588 28.608 284.276 29.456C284.964 30.304 285.308 31.512 285.308 33.08V41H282.236V33.392C282.236 32.496 282.076 31.824 281.756 31.376C281.436 30.928 280.908 30.704 280.172 30.704C279.852 30.704 279.54 30.752 279.236 30.848C278.948 30.928 278.684 31.056 278.444 31.232C278.22 31.392 278.036 31.6 277.892 31.856C277.748 32.096 277.676 32.384 277.676 32.72V41H274.604ZM290.25 26.648C289.61 26.648 289.146 26.504 288.858 26.216C288.586 25.928 288.45 25.56 288.45 25.112V24.632C288.45 24.184 288.586 23.816 288.858 23.528C289.146 23.24 289.61 23.096 290.25 23.096C290.874 23.096 291.33 23.24 291.618 23.528C291.906 23.816 292.05 24.184 292.05 24.632V25.112C292.05 25.56 291.906 25.928 291.618 26.216C291.33 26.504 290.874 26.648 290.25 26.648ZM288.714 28.472H291.786V41H288.714V28.472ZM295.346 41V28.472H298.418V30.56H298.538C298.794 29.888 299.194 29.328 299.738 28.88C300.298 28.416 301.066 28.184 302.042 28.184C303.338 28.184 304.33 28.608 305.018 29.456C305.706 30.304 306.05 31.512 306.05 33.08V41H302.978V33.392C302.978 32.496 302.818 31.824 302.498 31.376C302.178 30.928 301.65 30.704 300.914 30.704C300.594 30.704 300.282 30.752 299.978 30.848C299.69 30.928 299.426 31.056 299.186 31.232C298.962 31.392 298.778 31.6 298.634 31.856C298.49 32.096 298.418 32.384 298.418 32.72V41H295.346ZM320.76 42.056C320.76 42.712 320.64 43.288 320.4 43.784C320.176 44.296 319.8 44.72 319.272 45.056C318.744 45.392 318.064 45.648 317.232 45.824C316.4 46 315.384 46.088 314.184 46.088C313.128 46.088 312.232 46.016 311.496 45.872C310.76 45.744 310.152 45.552 309.672 45.296C309.208 45.056 308.872 44.752 308.664 44.384C308.456 44.016 308.352 43.6 308.352 43.136C308.352 42.432 308.544 41.88 308.928 41.48C309.328 41.096 309.88 40.848 310.584 40.736V40.472C310.072 40.344 309.672 40.096 309.384 39.728C309.112 39.344 308.976 38.896 308.976 38.384C308.976 38.064 309.04 37.784 309.168 37.544C309.296 37.288 309.464 37.072 309.672 36.896C309.896 36.72 310.144 36.576 310.416 36.464C310.688 36.336 310.976 36.24 311.28 36.176V36.08C310.512 35.728 309.936 35.24 309.552 34.616C309.184 33.992 309 33.264 309 32.432C309 31.152 309.44 30.128 310.32 29.36C311.2 28.576 312.488 28.184 314.184 28.184C314.568 28.184 314.944 28.208 315.312 28.256C315.696 28.304 316.048 28.384 316.368 28.496V28.088C316.368 26.872 316.96 26.264 318.144 26.264H320.088V28.616H317.424V28.952C318.08 29.32 318.568 29.8 318.888 30.392C319.208 30.984 319.368 31.664 319.368 32.432C319.368 33.696 318.928 34.712 318.048 35.48C317.184 36.248 315.896 36.632 314.184 36.632C313.448 36.632 312.808 36.56 312.264 36.416C312.024 36.528 311.816 36.68 311.64 36.872C311.464 37.048 311.376 37.272 311.376 37.544C311.376 38.168 311.92 38.48 313.008 38.48H316.368C317.904 38.48 319.016 38.8 319.704 39.44C320.408 40.064 320.76 40.936 320.76 42.056ZM317.88 42.416C317.88 42.016 317.72 41.704 317.4 41.48C317.08 41.256 316.528 41.144 315.744 41.144H311.472C311.04 41.464 310.824 41.896 310.824 42.44C310.824 42.92 311.024 43.296 311.424 43.568C311.824 43.84 312.504 43.976 313.464 43.976H315C316.008 43.976 316.736 43.848 317.184 43.592C317.648 43.336 317.88 42.944 317.88 42.416ZM314.184 34.544C315.688 34.544 316.44 33.904 316.44 32.624V32.216C316.44 30.936 315.688 30.296 314.184 30.296C312.68 30.296 311.928 30.936 311.928 32.216V32.624C311.928 33.904 312.68 34.544 314.184 34.544Z" fill="black"/>
<rect x="17" y="237" width="84" height="38.0001" rx="3" fill="#0059B3"/>
<rect x="18.5" y="272.5" width="81" height="1" stroke="#004993"/>
<path d="M36.932 255.052L35.546 252.388H35.492V262H33.548V249.436H35.816L39.92 256.384L41.306 259.048H41.36V249.436H43.304V262H41.036L36.932 255.052ZM49.6016 257.824C48.2456 257.848 47.5676 258.274 47.5676 259.102V259.426C47.5676 259.846 47.7056 260.17 47.9816 260.398C48.2696 260.614 48.6716 260.722 49.1876 260.722C49.7636 260.722 50.2496 260.59 50.6456 260.326C51.0536 260.05 51.2576 259.684 51.2576 259.228V257.824H49.6016ZM57.5756 256.528V256.348C57.5756 255.628 57.3896 255.052 57.0176 254.62C56.6456 254.176 56.1356 253.954 55.4876 253.954C55.1516 253.954 54.8396 254.014 54.5516 254.134C54.2756 254.254 54.0356 254.422 53.8316 254.638C53.6396 254.854 53.4896 255.112 53.3816 255.412C53.2736 255.712 53.2196 256.042 53.2196 256.402V256.528H57.5756ZM55.7216 260.596C56.2976 260.596 56.7836 260.47 57.1796 260.218C57.5876 259.966 57.9176 259.63 58.1696 259.21L59.3216 260.326C58.9736 260.902 58.4756 261.364 57.8276 261.712C57.1916 262.048 56.4596 262.216 55.6316 262.216C55.1636 262.216 54.7256 262.156 54.3176 262.036C53.9216 261.916 53.5676 261.76 53.2556 261.568C52.9556 261.376 52.7036 261.166 52.4996 260.938C52.3076 260.698 52.1696 260.464 52.0856 260.236H51.9776C51.9176 260.452 51.7976 260.68 51.6176 260.92C51.4496 261.148 51.2276 261.358 50.9516 261.55C50.6756 261.742 50.3396 261.898 49.9436 262.018C49.5476 262.15 49.0976 262.216 48.5936 262.216C47.6456 262.216 46.9016 261.958 46.3616 261.442C45.8336 260.926 45.5696 260.254 45.5696 259.426C45.5696 258.478 45.9176 257.758 46.6136 257.266C47.3096 256.774 48.2936 256.528 49.5656 256.528H51.2576V255.826C51.2576 255.25 51.1016 254.806 50.7896 254.494C50.4776 254.182 49.9976 254.026 49.3496 254.026C48.7736 254.026 48.3116 254.146 47.9636 254.386C47.6276 254.614 47.3396 254.914 47.0996 255.286L45.9296 254.242C46.2416 253.714 46.6796 253.282 47.2436 252.946C47.8076 252.598 48.5456 252.424 49.4576 252.424C49.8896 252.424 50.2616 252.478 50.5736 252.586C50.8856 252.694 51.1496 252.832 51.3656 253C51.5936 253.168 51.7736 253.36 51.9056 253.576C52.0496 253.78 52.1696 253.984 52.2656 254.188H52.3736C52.4696 253.972 52.6136 253.762 52.8056 253.558C52.9976 253.342 53.2256 253.15 53.4896 252.982C53.7656 252.814 54.0776 252.682 54.4256 252.586C54.7856 252.478 55.1756 252.424 55.5956 252.424C56.2676 252.424 56.8556 252.544 57.3596 252.784C57.8636 253.024 58.2836 253.36 58.6196 253.792C58.9676 254.212 59.2256 254.704 59.3936 255.268C59.5616 255.832 59.6456 256.438 59.6456 257.086V257.824H53.2196V258.13C53.2196 258.85 53.4356 259.444 53.8676 259.912C54.3116 260.368 54.9296 260.596 55.7216 260.596ZM64.7978 262.216C63.9098 262.216 63.1658 262.06 62.5658 261.748C61.9658 261.436 61.4438 261.004 60.9998 260.452L62.2598 259.3C62.6078 259.72 62.9918 260.05 63.4118 260.29C63.8438 260.518 64.3418 260.632 64.9058 260.632C65.4818 260.632 65.9078 260.524 66.1838 260.308C66.4718 260.08 66.6158 259.768 66.6158 259.372C66.6158 259.072 66.5138 258.82 66.3098 258.616C66.1178 258.4 65.7758 258.262 65.2838 258.202L64.4198 258.094C63.4598 257.974 62.7038 257.698 62.1518 257.266C61.6118 256.822 61.3418 256.168 61.3418 255.304C61.3418 254.848 61.4258 254.446 61.5938 254.098C61.7618 253.738 61.9958 253.438 62.2958 253.198C62.6078 252.946 62.9738 252.754 63.3938 252.622C63.8258 252.49 64.2998 252.424 64.8158 252.424C65.6558 252.424 66.3398 252.556 66.8678 252.82C67.4078 253.084 67.8878 253.45 68.3078 253.918L67.1018 255.07C66.8618 254.782 66.5438 254.536 66.1478 254.332C65.7638 254.116 65.3198 254.008 64.8158 254.008C64.2758 254.008 63.8738 254.116 63.6098 254.332C63.3578 254.548 63.2318 254.83 63.2318 255.178C63.2318 255.538 63.3458 255.808 63.5738 255.988C63.8018 256.168 64.1678 256.3 64.6718 256.384L65.5358 256.492C66.5678 256.648 67.3178 256.954 67.7858 257.41C68.2658 257.854 68.5058 258.454 68.5058 259.21C68.5058 259.666 68.4158 260.08 68.2358 260.452C68.0678 260.812 67.8218 261.124 67.4978 261.388C67.1738 261.652 66.7838 261.856 66.3278 262C65.8718 262.144 65.3618 262.216 64.7978 262.216ZM73.1913 262C72.5073 262 71.9913 261.826 71.6433 261.478C71.2953 261.118 71.1213 260.614 71.1213 259.966V254.242H69.6633V252.64H70.4553C70.7793 252.64 71.0013 252.568 71.1213 252.424C71.2533 252.28 71.3193 252.046 71.3193 251.722V250.084H73.0833V252.64H75.0453V254.242H73.0833V260.398H74.9013V262H73.1913ZM80.7752 262.216C80.1032 262.216 79.5032 262.102 78.9752 261.874C78.4472 261.646 77.9972 261.322 77.6252 260.902C77.2532 260.47 76.9652 259.954 76.7612 259.354C76.5692 258.742 76.4732 258.064 76.4732 257.32C76.4732 256.576 76.5692 255.904 76.7612 255.304C76.9652 254.692 77.2532 254.176 77.6252 253.756C77.9972 253.324 78.4472 252.994 78.9752 252.766C79.5032 252.538 80.1032 252.424 80.7752 252.424C81.4592 252.424 82.0592 252.544 82.5752 252.784C83.1032 253.024 83.5412 253.36 83.8892 253.792C84.2372 254.212 84.4952 254.704 84.6632 255.268C84.8432 255.832 84.9332 256.438 84.9332 257.086V257.824H78.5072V258.13C78.5072 258.85 78.7172 259.444 79.1372 259.912C79.5692 260.368 80.1812 260.596 80.9732 260.596C81.5492 260.596 82.0352 260.47 82.4312 260.218C82.8272 259.966 83.1632 259.624 83.4392 259.192L84.5912 260.326C84.2432 260.902 83.7392 261.364 83.0792 261.712C82.4192 262.048 81.6512 262.216 80.7752 262.216ZM80.7752 253.954C80.4392 253.954 80.1272 254.014 79.8392 254.134C79.5632 254.254 79.3232 254.422 79.1192 254.638C78.9272 254.854 78.7772 255.112 78.6692 255.412C78.5612 255.712 78.5072 256.042 78.5072 256.402V256.528H82.8632V256.348C82.8632 255.628 82.6772 255.052 82.3052 254.62C81.9332 254.176 81.4232 253.954 80.7752 253.954Z" fill="white"/>
<rect x="17" y="237" width="84" height="38.0001" rx="3" stroke="#004993" stroke-width="2"/>
<rect width="205" height="20" transform="translate(16 88)" fill="#DCDCDC"/>
<rect width="205" height="20" transform="translate(16 140)" fill="#DCDCDC"/>
<rect width="205" height="20" transform="translate(16 192)" fill="#DCDCDC"/>
<rect width="118" height="12" transform="translate(16 72)" fill="#DCDCDC"/>
<rect width="118" height="12" transform="translate(16 124)" fill="#DCDCDC"/>
<rect width="118" height="12" transform="translate(16 176)" fill="#DCDCDC"/>
</svg>
