<svg width="418" height="226" viewBox="0 0 418 226" fill="none" xmlns="http://www.w3.org/2000/svg">
<g clip-path="url(#clip0_5010_48929)">
<rect width="418" height="226" fill="white"/>
<path d="M17.312 29V17.832H24.496V19.704H19.424V22.408H23.84V24.28H19.424V29H17.312ZM29.246 29.192C28.6487 29.192 28.11 29.0907 27.63 28.888C27.1607 28.6853 26.7553 28.392 26.414 28.008C26.0833 27.624 25.8273 27.1653 25.646 26.632C25.4647 26.088 25.374 25.48 25.374 24.808C25.374 24.136 25.4647 23.5333 25.646 23C25.8273 22.4667 26.0833 22.0133 26.414 21.64C26.7553 21.256 27.1607 20.9627 27.63 20.76C28.11 20.5573 28.6487 20.456 29.246 20.456C29.8433 20.456 30.382 20.5573 30.862 20.76C31.342 20.9627 31.7473 21.256 32.078 21.64C32.4193 22.0133 32.6807 22.4667 32.862 23C33.0433 23.5333 33.134 24.136 33.134 24.808C33.134 25.48 33.0433 26.088 32.862 26.632C32.6807 27.1653 32.4193 27.624 32.078 28.008C31.7473 28.392 31.342 28.6853 30.862 28.888C30.382 29.0907 29.8433 29.192 29.246 29.192ZM29.246 27.544C29.79 27.544 30.2167 27.3787 30.526 27.048C30.8353 26.7173 30.99 26.232 30.99 25.592V24.04C30.99 23.4107 30.8353 22.9307 30.526 22.6C30.2167 22.2693 29.79 22.104 29.246 22.104C28.7127 22.104 28.2913 22.2693 27.982 22.6C27.6727 22.9307 27.518 23.4107 27.518 24.04V25.592C27.518 26.232 27.6727 26.7173 27.982 27.048C28.2913 27.3787 28.7127 27.544 29.246 27.544ZM34.9496 29V20.648H36.9976V22.376H37.0776C37.131 22.152 37.211 21.9387 37.3176 21.736C37.435 21.5227 37.5843 21.336 37.7656 21.176C37.947 21.016 38.1603 20.888 38.4056 20.792C38.6616 20.696 38.955 20.648 39.2856 20.648H39.7336V22.584H39.0936C38.4003 22.584 37.8776 22.6853 37.5256 22.888C37.1736 23.0907 36.9976 23.4213 36.9976 23.88V29H34.9496ZM41.2309 29V20.648H43.2789V22.04H43.3589C43.5295 21.592 43.7962 21.2187 44.1589 20.92C44.5322 20.6107 45.0442 20.456 45.6949 20.456C46.5589 20.456 47.2202 20.7387 47.6789 21.304C48.1375 21.8693 48.3669 22.6747 48.3669 23.72V29H46.3189V23.928C46.3189 23.3307 46.2122 22.8827 45.9989 22.584C45.7855 22.2853 45.4335 22.136 44.9429 22.136C44.7295 22.136 44.5215 22.168 44.3189 22.232C44.1269 22.2853 43.9509 22.3707 43.7909 22.488C43.6415 22.5947 43.5189 22.7333 43.4229 22.904C43.3269 23.064 43.2789 23.256 43.2789 23.48V29H41.2309ZM56.7811 29C56.3331 29 55.9758 28.872 55.7091 28.616C55.4531 28.3493 55.2931 27.9973 55.2291 27.56H55.1331C54.9945 28.104 54.7118 28.5147 54.2851 28.792C53.8585 29.0587 53.3305 29.192 52.7011 29.192C51.8478 29.192 51.1918 28.968 50.7331 28.52C50.2745 28.072 50.0451 27.4747 50.0451 26.728C50.0451 25.864 50.3545 25.224 50.9731 24.808C51.5918 24.3813 52.4718 24.168 53.6131 24.168H55.0371V23.56C55.0371 23.0907 54.9145 22.728 54.6691 22.472C54.4238 22.216 54.0291 22.088 53.4851 22.088C53.0051 22.088 52.6158 22.1947 52.3171 22.408C52.0291 22.6107 51.7838 22.856 51.5811 23.144L50.3651 22.056C50.6745 21.576 51.0851 21.192 51.5971 20.904C52.1091 20.6053 52.7865 20.456 53.6291 20.456C54.7598 20.456 55.6185 20.712 56.2051 21.224C56.7918 21.736 57.0851 22.472 57.0851 23.432V27.368H57.9171V29H56.7811ZM53.3891 27.704C53.8478 27.704 54.2371 27.6027 54.5571 27.4C54.8771 27.1973 55.0371 26.8987 55.0371 26.504V25.4H53.7251C52.6585 25.4 52.1251 25.7413 52.1251 26.424V26.696C52.1251 27.0373 52.2318 27.2933 52.4451 27.464C52.6691 27.624 52.9838 27.704 53.3891 27.704ZM61.226 29L58.442 20.648H60.458L61.626 24.248L62.442 27.224H62.554L63.37 24.248L64.506 20.648H66.458L63.658 29H61.226ZM67.8246 29V20.648H69.8726V22.04H69.9526C70.1233 21.592 70.39 21.2187 70.7526 20.92C71.126 20.6107 71.638 20.456 72.2886 20.456C73.1526 20.456 73.814 20.7387 74.2726 21.304C74.7313 21.8693 74.9606 22.6747 74.9606 23.72V29H72.9126V23.928C72.9126 23.3307 72.806 22.8827 72.5926 22.584C72.3793 22.2853 72.0273 22.136 71.5366 22.136C71.3233 22.136 71.1153 22.168 70.9126 22.232C70.7206 22.2853 70.5446 22.3707 70.3846 22.488C70.2353 22.5947 70.1126 22.7333 70.0166 22.904C69.9206 23.064 69.8726 23.256 69.8726 23.48V29H67.8246Z" fill="#1A1A1A"/>
<path d="M20.624 53.192C19.7173 53.192 18.944 53.0213 18.304 52.68C17.664 52.328 17.12 51.848 16.672 51.24L17.664 50.408C18.0587 50.9307 18.496 51.3307 18.976 51.608C19.456 51.8747 20.0213 52.008 20.672 52.008C21.472 52.008 22.08 51.816 22.496 51.432C22.9227 51.048 23.136 50.536 23.136 49.896C23.136 49.3627 22.976 48.952 22.656 48.664C22.336 48.376 21.808 48.1467 21.072 47.976L20.16 47.768C19.136 47.5333 18.352 47.1813 17.808 46.712C17.2747 46.232 17.008 45.56 17.008 44.696C17.008 44.2053 17.0987 43.768 17.28 43.384C17.4613 43 17.712 42.68 18.032 42.424C18.3627 42.168 18.752 41.976 19.2 41.848C19.6587 41.7093 20.16 41.64 20.704 41.64C21.5467 41.64 22.2667 41.7947 22.864 42.104C23.472 42.4133 23.984 42.8667 24.4 43.464L23.392 44.2C23.0827 43.7733 22.7093 43.4373 22.272 43.192C21.8347 42.9467 21.2907 42.824 20.64 42.824C19.9253 42.824 19.36 42.9787 18.944 43.288C18.5387 43.5867 18.336 44.04 18.336 44.648C18.336 45.1813 18.5067 45.5867 18.848 45.864C19.2 46.1307 19.728 46.344 20.432 46.504L21.344 46.712C22.4427 46.9573 23.2373 47.3307 23.728 47.832C24.2187 48.3333 24.464 49 24.464 49.832C24.464 50.344 24.3733 50.808 24.192 51.224C24.0213 51.64 23.7707 51.992 23.44 52.28C23.1093 52.568 22.704 52.792 22.224 52.952C21.7547 53.112 21.2213 53.192 20.624 53.192ZM26.6569 41.16H27.9369V48.664H28.0009L29.2649 47.256L31.6009 44.744H33.1529L30.0969 48.008L33.4569 53H31.9049L29.1689 48.792L27.9369 50.056V53H26.6569V41.16ZM35.0944 53V44.744H36.3744V46.264H36.4544C36.6037 45.8693 36.8704 45.5173 37.2544 45.208C37.6384 44.8987 38.1664 44.744 38.8384 44.744H39.3344V46.024H38.5824C37.889 46.024 37.345 46.1573 36.9504 46.424C36.5664 46.68 36.3744 47.0053 36.3744 47.4V53H35.0944ZM41.6094 42.808C41.332 42.808 41.1294 42.744 41.0014 42.616C40.884 42.4773 40.8254 42.3013 40.8254 42.088V41.88C40.8254 41.6667 40.884 41.496 41.0014 41.368C41.1294 41.2293 41.332 41.16 41.6094 41.16C41.8867 41.16 42.084 41.2293 42.2014 41.368C42.3294 41.496 42.3934 41.6667 42.3934 41.88V42.088C42.3934 42.3013 42.3294 42.4773 42.2014 42.616C42.084 42.744 41.8867 42.808 41.6094 42.808ZM40.9694 44.744H42.2494V53H40.9694V44.744ZM46.7934 53L43.8974 44.744H45.1774L46.6174 48.84L47.5134 51.656H47.5934L48.4894 48.84L49.9614 44.744H51.1934L48.2814 53H46.7934ZM57.0736 45.864H55.7296V44.744H57.0736V43.08C57.0736 42.504 57.223 42.04 57.5216 41.688C57.8203 41.336 58.2736 41.16 58.8816 41.16H60.1296V42.28H58.3536V44.744H60.1296V45.864H58.3536V53H57.0736V45.864ZM64.8706 53.192C64.316 53.192 63.8093 53.0907 63.3506 52.888C62.892 52.6853 62.4973 52.3973 62.1666 52.024C61.8466 51.64 61.596 51.1867 61.4146 50.664C61.2333 50.1307 61.1426 49.5333 61.1426 48.872C61.1426 48.2213 61.2333 47.6293 61.4146 47.096C61.596 46.5627 61.8466 46.1093 62.1666 45.736C62.4973 45.352 62.892 45.0587 63.3506 44.856C63.8093 44.6533 64.316 44.552 64.8706 44.552C65.4253 44.552 65.9266 44.6533 66.3746 44.856C66.8333 45.0587 67.228 45.352 67.5586 45.736C67.8893 46.1093 68.1453 46.5627 68.3266 47.096C68.508 47.6293 68.5986 48.2213 68.5986 48.872C68.5986 49.5333 68.508 50.1307 68.3266 50.664C68.1453 51.1867 67.8893 51.64 67.5586 52.024C67.228 52.3973 66.8333 52.6853 66.3746 52.888C65.9266 53.0907 65.4253 53.192 64.8706 53.192ZM64.8706 52.056C65.564 52.056 66.1293 51.8427 66.5666 51.416C67.004 50.9893 67.2226 50.3387 67.2226 49.464V48.28C67.2226 47.4053 67.004 46.7547 66.5666 46.328C66.1293 45.9013 65.564 45.688 64.8706 45.688C64.1773 45.688 63.612 45.9013 63.1746 46.328C62.7373 46.7547 62.5186 47.4053 62.5186 48.28V49.464C62.5186 50.3387 62.7373 50.9893 63.1746 51.416C63.612 51.8427 64.1773 52.056 64.8706 52.056ZM70.7038 53V44.744H71.9838V46.264H72.0638C72.2131 45.8693 72.4798 45.5173 72.8638 45.208C73.2478 44.8987 73.7758 44.744 74.4478 44.744H74.9438V46.024H74.1918C73.4984 46.024 72.9544 46.1573 72.5598 46.424C72.1758 46.68 71.9838 47.0053 71.9838 47.4V53H70.7038ZM76.5788 53V44.744H77.8588V46.088H77.9228C78.1254 45.6187 78.4081 45.2453 78.7708 44.968C79.1441 44.6907 79.6401 44.552 80.2588 44.552C81.1121 44.552 81.7841 44.8293 82.2748 45.384C82.7761 45.928 83.0268 46.7013 83.0268 47.704V53H81.7468V47.928C81.7468 46.4453 81.1228 45.704 79.8748 45.704C79.6188 45.704 79.3681 45.736 79.1228 45.8C78.8881 45.864 78.6748 45.96 78.4828 46.088C78.2908 46.216 78.1361 46.3813 78.0188 46.584C77.9121 46.776 77.8588 47.0053 77.8588 47.272V53H76.5788ZM91.6725 53C91.1925 53 90.8458 52.872 90.6325 52.616C90.4298 52.36 90.3018 52.04 90.2485 51.656H90.1685C89.9872 52.168 89.6885 52.552 89.2725 52.808C88.8565 53.064 88.3605 53.192 87.7845 53.192C86.9098 53.192 86.2272 52.968 85.7365 52.52C85.2565 52.072 85.0165 51.464 85.0165 50.696C85.0165 49.9173 85.2992 49.32 85.8645 48.904C86.4405 48.488 87.3312 48.28 88.5365 48.28H90.1685V47.464C90.1685 46.8773 90.0085 46.4293 89.6885 46.12C89.3685 45.8107 88.8778 45.656 88.2165 45.656C87.7152 45.656 87.2938 45.768 86.9525 45.992C86.6218 46.216 86.3445 46.5147 86.1205 46.888L85.3525 46.168C85.5765 45.72 85.9338 45.3413 86.4245 45.032C86.9152 44.712 87.5338 44.552 88.2805 44.552C89.2832 44.552 90.0618 44.7973 90.6165 45.288C91.1712 45.7787 91.4485 46.4613 91.4485 47.336V51.88H92.3925V53H91.6725ZM87.9925 52.104C88.3125 52.104 88.6058 52.0667 88.8725 51.992C89.1392 51.9173 89.3685 51.8107 89.5605 51.672C89.7525 51.5333 89.9018 51.3733 90.0085 51.192C90.1152 51.0107 90.1685 50.8133 90.1685 50.6V49.24H88.4725C87.7365 49.24 87.1978 49.3467 86.8565 49.56C86.5258 49.7733 86.3605 50.0827 86.3605 50.488V50.824C86.3605 51.2293 86.5045 51.544 86.7925 51.768C87.0912 51.992 87.4912 52.104 87.9925 52.104ZM95.9184 53L93.0224 44.744H94.3024L95.7424 48.84L96.6384 51.656H96.7184L97.6144 48.84L99.0864 44.744H100.318L97.4064 53H95.9184ZM101.969 53V44.744H103.249V46.088H103.313C103.516 45.6187 103.799 45.2453 104.161 44.968C104.535 44.6907 105.031 44.552 105.649 44.552C106.503 44.552 107.175 44.8293 107.665 45.384C108.167 45.928 108.417 46.7013 108.417 47.704V53H107.137V47.928C107.137 46.4453 106.513 45.704 105.265 45.704C105.009 45.704 104.759 45.736 104.513 45.8C104.279 45.864 104.065 45.96 103.873 46.088C103.681 46.216 103.527 46.3813 103.409 46.584C103.303 46.776 103.249 47.0053 103.249 47.272V53H101.969ZM117.964 53.192C117.41 53.192 116.903 53.0907 116.444 52.888C115.986 52.6853 115.591 52.3973 115.26 52.024C114.94 51.64 114.69 51.1867 114.508 50.664C114.327 50.1307 114.236 49.5333 114.236 48.872C114.236 48.2213 114.327 47.6293 114.508 47.096C114.69 46.5627 114.94 46.1093 115.26 45.736C115.591 45.352 115.986 45.0587 116.444 44.856C116.903 44.6533 117.41 44.552 117.964 44.552C118.519 44.552 119.02 44.6533 119.468 44.856C119.927 45.0587 120.322 45.352 120.652 45.736C120.983 46.1093 121.239 46.5627 121.42 47.096C121.602 47.6293 121.692 48.2213 121.692 48.872C121.692 49.5333 121.602 50.1307 121.42 50.664C121.239 51.1867 120.983 51.64 120.652 52.024C120.322 52.3973 119.927 52.6853 119.468 52.888C119.02 53.0907 118.519 53.192 117.964 53.192ZM117.964 52.056C118.658 52.056 119.223 51.8427 119.66 51.416C120.098 50.9893 120.316 50.3387 120.316 49.464V48.28C120.316 47.4053 120.098 46.7547 119.66 46.328C119.223 45.9013 118.658 45.688 117.964 45.688C117.271 45.688 116.706 45.9013 116.268 46.328C115.831 46.7547 115.612 47.4053 115.612 48.28V49.464C115.612 50.3387 115.831 50.9893 116.268 51.416C116.706 51.8427 117.271 52.056 117.964 52.056ZM130.758 53.912C130.758 54.7653 130.422 55.3893 129.75 55.784C129.088 56.1893 128.091 56.392 126.758 56.392C125.467 56.392 124.539 56.216 123.974 55.864C123.408 55.512 123.126 55.0107 123.126 54.36C123.126 53.912 123.243 53.56 123.478 53.304C123.712 53.0587 124.032 52.8773 124.438 52.76V52.584C123.947 52.3493 123.702 51.9653 123.702 51.432C123.702 51.016 123.835 50.7013 124.102 50.488C124.368 50.264 124.71 50.0987 125.126 49.992V49.928C124.635 49.6933 124.251 49.3573 123.974 48.92C123.707 48.4827 123.574 47.976 123.574 47.4C123.574 46.984 123.648 46.6 123.798 46.248C123.947 45.896 124.155 45.5973 124.422 45.352C124.699 45.096 125.024 44.8987 125.398 44.76C125.782 44.6213 126.208 44.552 126.678 44.552C127.264 44.552 127.787 44.6587 128.246 44.872V44.728C128.246 44.408 128.32 44.1467 128.47 43.944C128.619 43.7307 128.864 43.624 129.206 43.624H130.438V44.744H128.87V45.272C129.168 45.528 129.398 45.8373 129.558 46.2C129.728 46.552 129.814 46.952 129.814 47.4C129.814 47.816 129.739 48.2 129.59 48.552C129.44 48.904 129.227 49.208 128.95 49.464C128.683 49.7093 128.358 49.9013 127.974 50.04C127.59 50.1787 127.163 50.248 126.694 50.248C126.427 50.248 126.16 50.2213 125.894 50.168C125.616 50.2427 125.366 50.3547 125.142 50.504C124.918 50.6427 124.806 50.84 124.806 51.096C124.806 51.3413 124.923 51.5067 125.158 51.592C125.392 51.6773 125.696 51.72 126.07 51.72H127.83C128.854 51.72 129.595 51.9173 130.054 52.312C130.523 52.696 130.758 53.2293 130.758 53.912ZM129.558 54.008C129.558 53.6773 129.43 53.4107 129.174 53.208C128.928 53.016 128.486 52.92 127.846 52.92H125.094C124.582 53.1547 124.326 53.528 124.326 54.04C124.326 54.4027 124.459 54.712 124.726 54.968C125.003 55.224 125.467 55.352 126.118 55.352H127.302C128.016 55.352 128.571 55.24 128.966 55.016C129.36 54.792 129.558 54.456 129.558 54.008ZM126.694 49.224C127.238 49.224 127.67 49.096 127.99 48.84C128.31 48.5733 128.47 48.168 128.47 47.624V47.176C128.47 46.632 128.31 46.232 127.99 45.976C127.67 45.7093 127.238 45.576 126.694 45.576C126.15 45.576 125.718 45.7093 125.398 45.976C125.078 46.232 124.918 46.632 124.918 47.176V47.624C124.918 48.168 125.078 48.5733 125.398 48.84C125.718 49.096 126.15 49.224 126.694 49.224ZM139.136 53.192C138.571 53.192 138.059 53.0907 137.6 52.888C137.152 52.6853 136.763 52.3973 136.432 52.024C136.112 51.64 135.861 51.1867 135.68 50.664C135.509 50.1307 135.424 49.5333 135.424 48.872C135.424 48.2213 135.509 47.6293 135.68 47.096C135.861 46.5627 136.112 46.1093 136.432 45.736C136.763 45.352 137.152 45.0587 137.6 44.856C138.059 44.6533 138.571 44.552 139.136 44.552C139.691 44.552 140.187 44.6533 140.624 44.856C141.061 45.0587 141.435 45.3413 141.744 45.704C142.053 46.056 142.288 46.4773 142.448 46.968C142.619 47.4587 142.704 47.9973 142.704 48.584V49.192H136.768V49.576C136.768 49.928 136.821 50.2587 136.928 50.568C137.045 50.8667 137.205 51.128 137.408 51.352C137.621 51.576 137.877 51.752 138.176 51.88C138.485 52.008 138.832 52.072 139.216 52.072C139.739 52.072 140.192 51.9493 140.576 51.704C140.971 51.4587 141.275 51.1067 141.488 50.648L142.4 51.304C142.133 51.8693 141.717 52.328 141.152 52.68C140.587 53.0213 139.915 53.192 139.136 53.192ZM139.136 45.624C138.784 45.624 138.464 45.688 138.176 45.816C137.888 45.9333 137.637 46.104 137.424 46.328C137.221 46.552 137.061 46.8187 136.944 47.128C136.827 47.4267 136.768 47.7573 136.768 48.12V48.232H141.328V48.056C141.328 47.32 141.125 46.7333 140.72 46.296C140.325 45.848 139.797 45.624 139.136 45.624ZM146.512 53L143.616 44.744H144.896L146.336 48.84L147.232 51.656H147.312L148.208 48.84L149.68 44.744H150.912L148 53H146.512ZM154.434 53C153.986 53 153.645 52.8773 153.41 52.632C153.186 52.376 153.074 52.0453 153.074 51.64V45.864H151.714V44.744H152.482C152.759 44.744 152.946 44.6907 153.042 44.584C153.149 44.4667 153.202 44.2693 153.202 43.992V42.456H154.354V44.744H156.162V45.864H154.354V51.88H156.034V53H154.434ZM159.035 53.192C158.694 53.192 158.443 53.1067 158.283 52.936C158.134 52.7653 158.059 52.5413 158.059 52.264V52.056C158.059 51.7787 158.134 51.5547 158.283 51.384C158.443 51.2133 158.694 51.128 159.035 51.128C159.377 51.128 159.622 51.2133 159.771 51.384C159.931 51.5547 160.011 51.7787 160.011 52.056V52.264C160.011 52.5413 159.931 52.7653 159.771 52.936C159.622 53.1067 159.377 53.192 159.035 53.192ZM166.36 53V44.744H167.64V46.088H167.704C167.8 45.8747 167.907 45.6773 168.024 45.496C168.152 45.304 168.301 45.1387 168.472 45C168.653 44.8613 168.861 44.7547 169.096 44.68C169.331 44.5947 169.608 44.552 169.928 44.552C170.472 44.552 170.973 44.6853 171.432 44.952C171.891 45.208 172.232 45.6347 172.456 46.232H172.488C172.637 45.784 172.915 45.3947 173.32 45.064C173.736 44.7227 174.296 44.552 175 44.552C175.843 44.552 176.499 44.8293 176.968 45.384C177.448 45.928 177.688 46.7013 177.688 47.704V53H176.408V47.928C176.408 47.192 176.264 46.6373 175.976 46.264C175.688 45.8907 175.229 45.704 174.6 45.704C174.344 45.704 174.099 45.736 173.864 45.8C173.64 45.864 173.437 45.96 173.256 46.088C173.075 46.216 172.931 46.3813 172.824 46.584C172.717 46.776 172.664 47.0053 172.664 47.272V53H171.384V47.928C171.384 47.192 171.24 46.6373 170.952 46.264C170.664 45.8907 170.216 45.704 169.608 45.704C169.352 45.704 169.107 45.736 168.872 45.8C168.637 45.864 168.429 45.96 168.248 46.088C168.067 46.216 167.917 46.3813 167.8 46.584C167.693 46.776 167.64 47.0053 167.64 47.272V53H166.36ZM183.433 53.192C182.867 53.192 182.355 53.0907 181.897 52.888C181.449 52.6853 181.059 52.3973 180.729 52.024C180.409 51.64 180.158 51.1867 179.977 50.664C179.806 50.1307 179.721 49.5333 179.721 48.872C179.721 48.2213 179.806 47.6293 179.977 47.096C180.158 46.5627 180.409 46.1093 180.729 45.736C181.059 45.352 181.449 45.0587 181.897 44.856C182.355 44.6533 182.867 44.552 183.433 44.552C183.987 44.552 184.483 44.6533 184.921 44.856C185.358 45.0587 185.731 45.3413 186.041 45.704C186.35 46.056 186.585 46.4773 186.745 46.968C186.915 47.4587 187.001 47.9973 187.001 48.584V49.192H181.065V49.576C181.065 49.928 181.118 50.2587 181.225 50.568C181.342 50.8667 181.502 51.128 181.705 51.352C181.918 51.576 182.174 51.752 182.473 51.88C182.782 52.008 183.129 52.072 183.513 52.072C184.035 52.072 184.489 51.9493 184.873 51.704C185.267 51.4587 185.571 51.1067 185.785 50.648L186.697 51.304C186.43 51.8693 186.014 52.328 185.449 52.68C184.883 53.0213 184.211 53.192 183.433 53.192ZM183.433 45.624C183.081 45.624 182.761 45.688 182.473 45.816C182.185 45.9333 181.934 46.104 181.721 46.328C181.518 46.552 181.358 46.8187 181.241 47.128C181.123 47.4267 181.065 47.7573 181.065 48.12V48.232H185.625V48.056C185.625 47.32 185.422 46.7333 185.017 46.296C184.622 45.848 184.094 45.624 183.433 45.624ZM190.47 53C190.022 53 189.681 52.8773 189.446 52.632C189.222 52.376 189.11 52.056 189.11 51.672V41.16H190.39V51.88H191.606V53H190.47ZM194.751 53C194.303 53 193.962 52.8773 193.727 52.632C193.503 52.376 193.391 52.056 193.391 51.672V41.16H194.671V51.88H195.887V53H194.751ZM200.855 53.192C200.289 53.192 199.777 53.0907 199.319 52.888C198.871 52.6853 198.481 52.3973 198.151 52.024C197.831 51.64 197.58 51.1867 197.399 50.664C197.228 50.1307 197.143 49.5333 197.143 48.872C197.143 48.2213 197.228 47.6293 197.399 47.096C197.58 46.5627 197.831 46.1093 198.151 45.736C198.481 45.352 198.871 45.0587 199.319 44.856C199.777 44.6533 200.289 44.552 200.855 44.552C201.409 44.552 201.905 44.6533 202.343 44.856C202.78 45.0587 203.153 45.3413 203.463 45.704C203.772 46.056 204.007 46.4773 204.167 46.968C204.337 47.4587 204.423 47.9973 204.423 48.584V49.192H198.487V49.576C198.487 49.928 198.54 50.2587 198.647 50.568C198.764 50.8667 198.924 51.128 199.127 51.352C199.34 51.576 199.596 51.752 199.895 51.88C200.204 52.008 200.551 52.072 200.935 52.072C201.457 52.072 201.911 51.9493 202.295 51.704C202.689 51.4587 202.993 51.1067 203.207 50.648L204.119 51.304C203.852 51.8693 203.436 52.328 202.871 52.68C202.305 53.0213 201.633 53.192 200.855 53.192ZM200.855 45.624C200.503 45.624 200.183 45.688 199.895 45.816C199.607 45.9333 199.356 46.104 199.143 46.328C198.94 46.552 198.78 46.8187 198.663 47.128C198.545 47.4267 198.487 47.7573 198.487 48.12V48.232H203.047V48.056C203.047 47.32 202.844 46.7333 202.439 46.296C202.044 45.848 201.516 45.624 200.855 45.624ZM206.532 53V44.744H207.812V46.088H207.876C207.972 45.8747 208.079 45.6773 208.196 45.496C208.324 45.304 208.473 45.1387 208.644 45C208.825 44.8613 209.033 44.7547 209.268 44.68C209.503 44.5947 209.78 44.552 210.1 44.552C210.644 44.552 211.145 44.6853 211.604 44.952C212.063 45.208 212.404 45.6347 212.628 46.232H212.66C212.809 45.784 213.087 45.3947 213.492 45.064C213.908 44.7227 214.468 44.552 215.172 44.552C216.015 44.552 216.671 44.8293 217.14 45.384C217.62 45.928 217.86 46.7013 217.86 47.704V53H216.58V47.928C216.58 47.192 216.436 46.6373 216.148 46.264C215.86 45.8907 215.401 45.704 214.772 45.704C214.516 45.704 214.271 45.736 214.036 45.8C213.812 45.864 213.609 45.96 213.428 46.088C213.247 46.216 213.103 46.3813 212.996 46.584C212.889 46.776 212.836 47.0053 212.836 47.272V53H211.556V47.928C211.556 47.192 211.412 46.6373 211.124 46.264C210.836 45.8907 210.388 45.704 209.78 45.704C209.524 45.704 209.279 45.736 209.044 45.8C208.809 45.864 208.601 45.96 208.42 46.088C208.239 46.216 208.089 46.3813 207.972 46.584C207.865 46.776 207.812 47.0053 207.812 47.272V53H206.532ZM220.501 53V44.744H221.781V46.088H221.845C222.047 45.6187 222.33 45.2453 222.693 44.968C223.066 44.6907 223.562 44.552 224.181 44.552C225.034 44.552 225.706 44.8293 226.197 45.384C226.698 45.928 226.949 46.7013 226.949 47.704V53H225.669V47.928C225.669 46.4453 225.045 45.704 223.797 45.704C223.541 45.704 223.29 45.736 223.045 45.8C222.81 45.864 222.597 45.96 222.405 46.088C222.213 46.216 222.058 46.3813 221.941 46.584C221.834 46.776 221.781 47.0053 221.781 47.272V53H220.501ZM235.594 53C235.114 53 234.768 52.872 234.554 52.616C234.352 52.36 234.224 52.04 234.17 51.656H234.09C233.909 52.168 233.61 52.552 233.194 52.808C232.778 53.064 232.282 53.192 231.706 53.192C230.832 53.192 230.149 52.968 229.658 52.52C229.178 52.072 228.938 51.464 228.938 50.696C228.938 49.9173 229.221 49.32 229.786 48.904C230.362 48.488 231.253 48.28 232.458 48.28H234.09V47.464C234.09 46.8773 233.93 46.4293 233.61 46.12C233.29 45.8107 232.8 45.656 232.138 45.656C231.637 45.656 231.216 45.768 230.874 45.992C230.544 46.216 230.266 46.5147 230.042 46.888L229.274 46.168C229.498 45.72 229.856 45.3413 230.346 45.032C230.837 44.712 231.456 44.552 232.202 44.552C233.205 44.552 233.984 44.7973 234.538 45.288C235.093 45.7787 235.37 46.4613 235.37 47.336V51.88H236.314V53H235.594ZM231.914 52.104C232.234 52.104 232.528 52.0667 232.794 51.992C233.061 51.9173 233.29 51.8107 233.482 51.672C233.674 51.5333 233.824 51.3733 233.93 51.192C234.037 51.0107 234.09 50.8133 234.09 50.6V49.24H232.394C231.658 49.24 231.12 49.3467 230.778 49.56C230.448 49.7733 230.282 50.0827 230.282 50.488V50.824C230.282 51.2293 230.426 51.544 230.714 51.768C231.013 51.992 231.413 52.104 231.914 52.104ZM239.84 53L236.944 44.744H238.224L239.664 48.84L240.56 51.656H240.64L241.536 48.84L243.008 44.744H244.24L241.328 53H239.84ZM245.891 53V44.744H247.171V46.088H247.235C247.438 45.6187 247.721 45.2453 248.083 44.968C248.457 44.6907 248.953 44.552 249.571 44.552C250.425 44.552 251.097 44.8293 251.587 45.384C252.089 45.928 252.339 46.7013 252.339 47.704V53H251.059V47.928C251.059 46.4453 250.435 45.704 249.187 45.704C248.931 45.704 248.681 45.736 248.435 45.8C248.201 45.864 247.987 45.96 247.795 46.088C247.603 46.216 247.449 46.3813 247.331 46.584C247.225 46.776 247.171 47.0053 247.171 47.272V53H245.891ZM254.953 48.008C254.953 47.24 255.028 46.4987 255.177 45.784C255.326 45.0693 255.529 44.408 255.785 43.8C256.052 43.1813 256.361 42.6213 256.713 42.12C257.065 41.6187 257.444 41.192 257.849 40.84H259.065C258.617 41.2453 258.212 41.704 257.849 42.216C257.497 42.728 257.193 43.272 256.937 43.848C256.692 44.424 256.5 45.0107 256.361 45.608C256.222 46.2053 256.153 46.7813 256.153 47.336V48.712C256.153 49.2773 256.222 49.8587 256.361 50.456C256.5 51.0533 256.697 51.64 256.953 52.216C257.209 52.792 257.513 53.336 257.865 53.848C258.228 54.36 258.628 54.808 259.065 55.192H257.849C257.454 54.8613 257.081 54.4453 256.729 53.944C256.377 53.4427 256.068 52.8827 255.801 52.264C255.545 51.6453 255.337 50.9787 255.177 50.264C255.028 49.5387 254.953 48.7867 254.953 48.008ZM263.448 53.192C262.883 53.192 262.371 53.0907 261.912 52.888C261.464 52.6853 261.075 52.3973 260.744 52.024C260.424 51.64 260.174 51.1867 259.992 50.664C259.822 50.1307 259.736 49.5333 259.736 48.872C259.736 48.2213 259.822 47.6293 259.992 47.096C260.174 46.5627 260.424 46.1093 260.744 45.736C261.075 45.352 261.464 45.0587 261.912 44.856C262.371 44.6533 262.883 44.552 263.448 44.552C264.003 44.552 264.499 44.6533 264.936 44.856C265.374 45.0587 265.747 45.3413 266.056 45.704C266.366 46.056 266.6 46.4773 266.76 46.968C266.931 47.4587 267.016 47.9973 267.016 48.584V49.192H261.08V49.576C261.08 49.928 261.134 50.2587 261.24 50.568C261.358 50.8667 261.518 51.128 261.72 51.352C261.934 51.576 262.19 51.752 262.488 51.88C262.798 52.008 263.144 52.072 263.528 52.072C264.051 52.072 264.504 51.9493 264.888 51.704C265.283 51.4587 265.587 51.1067 265.8 50.648L266.712 51.304C266.446 51.8693 266.03 52.328 265.464 52.68C264.899 53.0213 264.227 53.192 263.448 53.192ZM263.448 45.624C263.096 45.624 262.776 45.688 262.488 45.816C262.2 45.9333 261.95 46.104 261.736 46.328C261.534 46.552 261.374 46.8187 261.256 47.128C261.139 47.4267 261.08 47.7573 261.08 48.12V48.232H265.64V48.056C265.64 47.32 265.438 46.7333 265.032 46.296C264.638 45.848 264.11 45.624 263.448 45.624ZM271.798 48.008C271.798 48.7867 271.718 49.5387 271.558 50.264C271.408 50.9787 271.2 51.6453 270.934 52.264C270.678 52.8827 270.374 53.4427 270.022 53.944C269.67 54.4453 269.296 54.8613 268.902 55.192H267.686C268.123 54.808 268.518 54.36 268.87 53.848C269.232 53.336 269.542 52.792 269.798 52.216C270.054 51.64 270.251 51.0533 270.39 50.456C270.528 49.8587 270.598 49.2773 270.598 48.712V47.336C270.598 46.7813 270.528 46.2053 270.39 45.608C270.251 45.0107 270.054 44.424 269.798 43.848C269.552 43.272 269.248 42.728 268.886 42.216C268.534 41.704 268.134 41.2453 267.686 40.84H268.902C269.307 41.192 269.686 41.6187 270.038 42.12C270.39 42.6213 270.694 43.1813 270.95 43.8C271.216 44.408 271.424 45.0693 271.574 45.784C271.723 46.4987 271.798 47.24 271.798 48.008ZM280.746 53.192C279.978 53.192 279.333 53.048 278.81 52.76C278.298 52.4613 277.856 52.0667 277.482 51.576L278.394 50.84C278.714 51.2453 279.072 51.56 279.466 51.784C279.861 51.9973 280.32 52.104 280.842 52.104C281.386 52.104 281.808 51.9867 282.106 51.752C282.416 51.5173 282.57 51.1867 282.57 50.76C282.57 50.44 282.464 50.168 282.25 49.944C282.048 49.7093 281.674 49.5493 281.13 49.464L280.474 49.368C280.09 49.3147 279.738 49.2347 279.418 49.128C279.098 49.0107 278.816 48.8613 278.57 48.68C278.336 48.488 278.149 48.2533 278.01 47.976C277.882 47.6987 277.818 47.368 277.818 46.984C277.818 46.5787 277.893 46.2267 278.042 45.928C278.192 45.6187 278.394 45.3627 278.65 45.16C278.917 44.9573 279.232 44.808 279.594 44.712C279.957 44.6053 280.346 44.552 280.762 44.552C281.434 44.552 281.994 44.6693 282.442 44.904C282.901 45.1387 283.301 45.464 283.642 45.88L282.794 46.648C282.613 46.392 282.346 46.1627 281.994 45.96C281.642 45.7467 281.2 45.64 280.666 45.64C280.133 45.64 279.728 45.7573 279.45 45.992C279.184 46.216 279.05 46.5253 279.05 46.92C279.05 47.3253 279.184 47.6187 279.45 47.8C279.728 47.9813 280.122 48.1147 280.634 48.2L281.274 48.296C282.192 48.4347 282.842 48.7013 283.226 49.096C283.61 49.48 283.802 49.9867 283.802 50.616C283.802 51.416 283.53 52.0453 282.986 52.504C282.442 52.9627 281.696 53.192 280.746 53.192ZM289.183 53.192C288.628 53.192 288.122 53.0907 287.663 52.888C287.204 52.6853 286.81 52.3973 286.479 52.024C286.159 51.64 285.908 51.1867 285.727 50.664C285.546 50.1307 285.455 49.5333 285.455 48.872C285.455 48.2213 285.546 47.6293 285.727 47.096C285.908 46.5627 286.159 46.1093 286.479 45.736C286.81 45.352 287.204 45.0587 287.663 44.856C288.122 44.6533 288.628 44.552 289.183 44.552C289.738 44.552 290.239 44.6533 290.687 44.856C291.146 45.0587 291.54 45.352 291.871 45.736C292.202 46.1093 292.458 46.5627 292.639 47.096C292.82 47.6293 292.911 48.2213 292.911 48.872C292.911 49.5333 292.82 50.1307 292.639 50.664C292.458 51.1867 292.202 51.64 291.871 52.024C291.54 52.3973 291.146 52.6853 290.687 52.888C290.239 53.0907 289.738 53.192 289.183 53.192ZM289.183 52.056C289.876 52.056 290.442 51.8427 290.879 51.416C291.316 50.9893 291.535 50.3387 291.535 49.464V48.28C291.535 47.4053 291.316 46.7547 290.879 46.328C290.442 45.9013 289.876 45.688 289.183 45.688C288.49 45.688 287.924 45.9013 287.487 46.328C287.05 46.7547 286.831 47.4053 286.831 48.28V49.464C286.831 50.3387 287.05 50.9893 287.487 51.416C287.924 51.8427 288.49 52.056 289.183 52.056ZM295.016 53V44.744H296.296V46.088H296.36C296.456 45.8747 296.563 45.6773 296.68 45.496C296.808 45.304 296.958 45.1387 297.128 45C297.31 44.8613 297.518 44.7547 297.752 44.68C297.987 44.5947 298.264 44.552 298.584 44.552C299.128 44.552 299.63 44.6853 300.088 44.952C300.547 45.208 300.888 45.6347 301.112 46.232H301.144C301.294 45.784 301.571 45.3947 301.976 45.064C302.392 44.7227 302.952 44.552 303.656 44.552C304.499 44.552 305.155 44.8293 305.624 45.384C306.104 45.928 306.344 46.7013 306.344 47.704V53H305.064V47.928C305.064 47.192 304.92 46.6373 304.632 46.264C304.344 45.8907 303.886 45.704 303.256 45.704C303 45.704 302.755 45.736 302.52 45.8C302.296 45.864 302.094 45.96 301.912 46.088C301.731 46.216 301.587 46.3813 301.48 46.584C301.374 46.776 301.32 47.0053 301.32 47.272V53H300.04V47.928C300.04 47.192 299.896 46.6373 299.608 46.264C299.32 45.8907 298.872 45.704 298.264 45.704C298.008 45.704 297.763 45.736 297.528 45.8C297.294 45.864 297.086 45.96 296.904 46.088C296.723 46.216 296.574 46.3813 296.456 46.584C296.35 46.776 296.296 47.0053 296.296 47.272V53H295.016ZM313.406 42.808C313.129 42.808 312.926 42.744 312.798 42.616C312.681 42.4773 312.622 42.3013 312.622 42.088V41.88C312.622 41.6667 312.681 41.496 312.798 41.368C312.926 41.2293 313.129 41.16 313.406 41.16C313.684 41.16 313.881 41.2293 313.998 41.368C314.126 41.496 314.19 41.6667 314.19 41.88V42.088C314.19 42.3013 314.126 42.4773 313.998 42.616C313.881 42.744 313.684 42.808 313.406 42.808ZM312.766 44.744H314.046V53H312.766V44.744ZM325.828 51.656H325.764C325.262 52.68 324.457 53.192 323.348 53.192C322.836 53.192 322.372 53.0907 321.956 52.888C321.54 52.6853 321.182 52.3973 320.884 52.024C320.596 51.6507 320.372 51.1973 320.212 50.664C320.062 50.1307 319.988 49.5333 319.988 48.872C319.988 48.2107 320.062 47.6133 320.212 47.08C320.372 46.5467 320.596 46.0933 320.884 45.72C321.182 45.3467 321.54 45.0587 321.956 44.856C322.372 44.6533 322.836 44.552 323.348 44.552C323.924 44.552 324.414 44.68 324.82 44.936C325.236 45.1813 325.55 45.5653 325.764 46.088H325.828V41.16H327.108V53H325.828V51.656ZM323.7 52.04C323.988 52.04 324.26 52.0027 324.516 51.928C324.782 51.8533 325.012 51.7467 325.204 51.608C325.396 51.4587 325.545 51.2827 325.652 51.08C325.769 50.8667 325.828 50.6267 325.828 50.36V47.288C325.828 47.064 325.769 46.856 325.652 46.664C325.545 46.4613 325.396 46.2907 325.204 46.152C325.012 46.0133 324.782 45.9067 324.516 45.832C324.26 45.7467 323.988 45.704 323.7 45.704C322.974 45.704 322.404 45.9333 321.988 46.392C321.572 46.84 321.364 47.432 321.364 48.168V49.576C321.364 50.312 321.572 50.9093 321.988 51.368C322.404 51.816 322.974 52.04 323.7 52.04ZM330.469 42.808C330.191 42.808 329.989 42.744 329.861 42.616C329.743 42.4773 329.685 42.3013 329.685 42.088V41.88C329.685 41.6667 329.743 41.496 329.861 41.368C329.989 41.2293 330.191 41.16 330.469 41.16C330.746 41.16 330.943 41.2293 331.061 41.368C331.189 41.496 331.253 41.6667 331.253 41.88V42.088C331.253 42.3013 331.189 42.4773 331.061 42.616C330.943 42.744 330.746 42.808 330.469 42.808ZM329.829 44.744H331.109V53H329.829V44.744ZM335.653 53C335.205 53 334.863 52.8773 334.629 52.632C334.405 52.376 334.293 52.0453 334.293 51.64V45.864H332.933V44.744H333.701C333.978 44.744 334.165 44.6907 334.261 44.584C334.367 44.4667 334.421 44.2693 334.421 43.992V42.456H335.573V44.744H337.381V45.864H335.573V51.88H337.253V53H335.653ZM343.219 44.744H344.499V46.088H344.563C344.777 45.5653 345.086 45.1813 345.491 44.936C345.907 44.68 346.403 44.552 346.979 44.552C347.491 44.552 347.955 44.6533 348.371 44.856C348.787 45.0587 349.139 45.3467 349.427 45.72C349.726 46.0933 349.95 46.5467 350.099 47.08C350.259 47.6133 350.339 48.2107 350.339 48.872C350.339 49.5333 350.259 50.1307 350.099 50.664C349.95 51.1973 349.726 51.6507 349.427 52.024C349.139 52.3973 348.787 52.6853 348.371 52.888C347.955 53.0907 347.491 53.192 346.979 53.192C345.859 53.192 345.054 52.68 344.563 51.656H344.499V56.2H343.219V44.744ZM346.627 52.04C347.353 52.04 347.923 51.816 348.339 51.368C348.755 50.9093 348.963 50.312 348.963 49.576V48.168C348.963 47.432 348.755 46.84 348.339 46.392C347.923 45.9333 347.353 45.704 346.627 45.704C346.339 45.704 346.062 45.7467 345.795 45.832C345.539 45.9067 345.315 46.0133 345.123 46.152C344.931 46.2907 344.777 46.4613 344.659 46.664C344.553 46.856 344.499 47.064 344.499 47.288V50.36C344.499 50.6267 344.553 50.8667 344.659 51.08C344.777 51.2827 344.931 51.4587 345.123 51.608C345.315 51.7467 345.539 51.8533 345.795 51.928C346.062 52.0027 346.339 52.04 346.627 52.04ZM358.501 53C358.021 53 357.674 52.872 357.461 52.616C357.258 52.36 357.13 52.04 357.077 51.656H356.997C356.815 52.168 356.517 52.552 356.101 52.808C355.685 53.064 355.189 53.192 354.613 53.192C353.738 53.192 353.055 52.968 352.565 52.52C352.085 52.072 351.845 51.464 351.845 50.696C351.845 49.9173 352.127 49.32 352.693 48.904C353.269 48.488 354.159 48.28 355.365 48.28H356.997V47.464C356.997 46.8773 356.837 46.4293 356.517 46.12C356.197 45.8107 355.706 45.656 355.045 45.656C354.543 45.656 354.122 45.768 353.781 45.992C353.45 46.216 353.173 46.5147 352.949 46.888L352.181 46.168C352.405 45.72 352.762 45.3413 353.253 45.032C353.743 44.712 354.362 44.552 355.109 44.552C356.111 44.552 356.89 44.7973 357.445 45.288C357.999 45.7787 358.277 46.4613 358.277 47.336V51.88H359.221V53H358.501ZM354.821 52.104C355.141 52.104 355.434 52.0667 355.701 51.992C355.967 51.9173 356.197 51.8107 356.389 51.672C356.581 51.5333 356.73 51.3733 356.837 51.192C356.943 51.0107 356.997 50.8133 356.997 50.6V49.24H355.301C354.565 49.24 354.026 49.3467 353.685 49.56C353.354 49.7733 353.189 50.0827 353.189 50.488V50.824C353.189 51.2293 353.333 51.544 353.621 51.768C353.919 51.992 354.319 52.104 354.821 52.104ZM363.528 53.192C362.76 53.192 362.114 53.048 361.592 52.76C361.08 52.4613 360.637 52.0667 360.264 51.576L361.176 50.84C361.496 51.2453 361.853 51.56 362.248 51.784C362.642 51.9973 363.101 52.104 363.624 52.104C364.168 52.104 364.589 51.9867 364.888 51.752C365.197 51.5173 365.352 51.1867 365.352 50.76C365.352 50.44 365.245 50.168 365.032 49.944C364.829 49.7093 364.456 49.5493 363.911 49.464L363.256 49.368C362.872 49.3147 362.52 49.2347 362.2 49.128C361.88 49.0107 361.597 48.8613 361.352 48.68C361.117 48.488 360.93 48.2533 360.792 47.976C360.664 47.6987 360.6 47.368 360.6 46.984C360.6 46.5787 360.674 46.2267 360.824 45.928C360.973 45.6187 361.176 45.3627 361.432 45.16C361.698 44.9573 362.013 44.808 362.376 44.712C362.738 44.6053 363.128 44.552 363.544 44.552C364.216 44.552 364.776 44.6693 365.224 44.904C365.682 45.1387 366.082 45.464 366.424 45.88L365.576 46.648C365.394 46.392 365.128 46.1627 364.776 45.96C364.424 45.7467 363.981 45.64 363.448 45.64C362.914 45.64 362.509 45.7573 362.232 45.992C361.965 46.216 361.832 46.5253 361.832 46.92C361.832 47.3253 361.965 47.6187 362.232 47.8C362.509 47.9813 362.904 48.1147 363.416 48.2L364.056 48.296C364.973 48.4347 365.624 48.7013 366.008 49.096C366.392 49.48 366.584 49.9867 366.584 50.616C366.584 51.416 366.312 52.0453 365.768 52.504C365.224 52.9627 364.477 53.192 363.528 53.192Z" fill="#707070"/>
<rect x="16.5" y="67.5" width="239" height="39" rx="3.5" stroke="#707070"/>
<rect x="16.5" y="162.5" width="239" height="39" rx="3.5" stroke="#707070"/>
<path d="M17.312 149V137.832H24.672V139.704H19.424V142.408H24.064V144.28H19.424V147.128H24.672V149H17.312ZM27.1938 142.264H25.9618V140.648H27.1938V139.448C27.1938 138.712 27.3858 138.147 27.7698 137.752C28.1644 137.357 28.7404 137.16 29.4978 137.16H30.9538V138.792H29.2418V140.648H30.9538V142.264H29.2418V149H27.1938V142.264ZM34.9795 149C34.2755 149 33.7368 148.819 33.3635 148.456C33.0008 148.083 32.8195 147.555 32.8195 146.872V142.28H31.5875V140.648H32.2275C32.5368 140.648 32.7448 140.579 32.8515 140.44C32.9688 140.291 33.0275 140.072 33.0275 139.784V138.36H34.8675V140.648H36.5795V142.28H34.8675V147.368H36.4515V149H34.9795ZM41.6694 149.192C41.0507 149.192 40.496 149.091 40.0054 148.888C39.5254 148.675 39.1147 148.381 38.7734 148.008C38.4427 147.624 38.1867 147.165 38.0054 146.632C37.824 146.088 37.7334 145.48 37.7334 144.808C37.7334 144.147 37.8187 143.549 37.9894 143.016C38.1707 142.483 38.4267 142.029 38.7574 141.656C39.088 141.272 39.4934 140.979 39.9734 140.776C40.4534 140.563 40.9974 140.456 41.6054 140.456C42.256 140.456 42.8214 140.568 43.3014 140.792C43.7814 141.016 44.176 141.32 44.4854 141.704C44.7947 142.088 45.024 142.536 45.1734 143.048C45.3334 143.549 45.4134 144.088 45.4134 144.664V145.336H39.8614V145.544C39.8614 146.152 40.032 146.643 40.3734 147.016C40.7147 147.379 41.2214 147.56 41.8934 147.56C42.4054 147.56 42.8214 147.453 43.1414 147.24C43.472 147.027 43.7654 146.755 44.0214 146.424L45.1254 147.656C44.784 148.136 44.3147 148.515 43.7174 148.792C43.1307 149.059 42.448 149.192 41.6694 149.192ZM41.6374 141.992C41.0934 141.992 40.6614 142.173 40.3414 142.536C40.0214 142.899 39.8614 143.368 39.8614 143.944V144.072H43.2854V143.928C43.2854 143.352 43.1414 142.888 42.8534 142.536C42.576 142.173 42.1707 141.992 41.6374 141.992ZM47.2153 149V140.648H49.2633V142.376H49.3433C49.3966 142.152 49.4766 141.939 49.5833 141.736C49.7006 141.523 49.8499 141.336 50.0312 141.176C50.2126 141.016 50.4259 140.888 50.6713 140.792C50.9273 140.696 51.2206 140.648 51.5513 140.648H51.9993V142.584H51.3593C50.6659 142.584 50.1433 142.685 49.7913 142.888C49.4393 143.091 49.2633 143.421 49.2633 143.88V149H47.2153ZM53.4965 149V140.648H55.5445V142.04H55.6245C55.7952 141.592 56.0618 141.219 56.4245 140.92C56.7978 140.611 57.3098 140.456 57.9605 140.456C58.8245 140.456 59.4858 140.739 59.9445 141.304C60.4032 141.869 60.6325 142.675 60.6325 143.72V149H58.5845V143.928C58.5845 143.331 58.4778 142.883 58.2645 142.584C58.0512 142.285 57.6992 142.136 57.2085 142.136C56.9952 142.136 56.7872 142.168 56.5845 142.232C56.3925 142.285 56.2165 142.371 56.0565 142.488C55.9072 142.595 55.7845 142.733 55.6885 142.904C55.5925 143.064 55.5445 143.256 55.5445 143.48V149H53.4965ZM69.0468 149C68.5988 149 68.2414 148.872 67.9748 148.616C67.7188 148.349 67.5588 147.997 67.4948 147.56H67.3988C67.2601 148.104 66.9774 148.515 66.5508 148.792C66.1241 149.059 65.5961 149.192 64.9668 149.192C64.1134 149.192 63.4574 148.968 62.9988 148.52C62.5401 148.072 62.3108 147.475 62.3108 146.728C62.3108 145.864 62.6201 145.224 63.2388 144.808C63.8574 144.381 64.7374 144.168 65.8788 144.168H67.3028V143.56C67.3028 143.091 67.1801 142.728 66.9348 142.472C66.6894 142.216 66.2948 142.088 65.7508 142.088C65.2708 142.088 64.8814 142.195 64.5828 142.408C64.2948 142.611 64.0494 142.856 63.8468 143.144L62.6308 142.056C62.9401 141.576 63.3508 141.192 63.8628 140.904C64.3748 140.605 65.0521 140.456 65.8948 140.456C67.0254 140.456 67.8841 140.712 68.4708 141.224C69.0574 141.736 69.3508 142.472 69.3508 143.432V147.368H70.1828V149H69.0468ZM65.6548 147.704C66.1134 147.704 66.5028 147.603 66.8228 147.4C67.1428 147.197 67.3028 146.899 67.3028 146.504V145.4H65.9908C64.9241 145.4 64.3908 145.741 64.3908 146.424V146.696C64.3908 147.037 64.4974 147.293 64.7108 147.464C64.9348 147.624 65.2494 147.704 65.6548 147.704ZM73.4916 149L70.7076 140.648H72.7236L73.8916 144.248L74.7076 147.224H74.8196L75.6356 144.248L76.7716 140.648H78.7236L75.9236 149H73.4916ZM80.0903 149V140.648H82.1383V142.04H82.2183C82.3889 141.592 82.6556 141.219 83.0182 140.92C83.3916 140.611 83.9036 140.456 84.5543 140.456C85.4183 140.456 86.0796 140.739 86.5383 141.304C86.9969 141.869 87.2263 142.675 87.2263 143.72V149H85.1783V143.928C85.1783 143.331 85.0716 142.883 84.8583 142.584C84.6449 142.285 84.2929 142.136 83.8023 142.136C83.5889 142.136 83.3809 142.168 83.1783 142.232C82.9863 142.285 82.8103 142.371 82.6503 142.488C82.5009 142.595 82.3783 142.733 82.2823 142.904C82.1863 143.064 82.1383 143.256 82.1383 143.48V149H80.0903Z" fill="#1A1A1A"/>
</g>
<defs>
<clipPath id="clip0_5010_48929">
<rect width="418" height="226" fill="white"/>
</clipPath>
</defs>
</svg>
