<svg width="418" height="162" viewBox="0 0 418 162" fill="none" xmlns="http://www.w3.org/2000/svg">
<rect width="418" height="162" fill="white"/>
<rect x="16.5" y="16.5" width="239" height="39" rx="3.5" stroke="#747474"/>
<path d="M33.488 41V29.832H40.304V31.016H34.832V34.76H39.984V35.944H34.832V39.816H40.304V41H33.488ZM43.1361 33.864H41.7921V32.744H43.1361V31.08C43.1361 30.504 43.2855 30.04 43.5841 29.688C43.8828 29.336 44.3361 29.16 44.9441 29.16H46.1921V30.28H44.4161V32.744H46.1921V33.864H44.4161V41H43.1361V33.864ZM49.6996 41C49.2516 41 48.9103 40.8773 48.6756 40.632C48.4516 40.376 48.3396 40.0453 48.3396 39.64V33.864H46.9796V32.744H47.7476C48.025 32.744 48.2116 32.6907 48.3076 32.584C48.4143 32.4667 48.4676 32.2693 48.4676 31.992V30.456H49.6196V32.744H51.4276V33.864H49.6196V39.88H51.2996V41H49.6996ZM56.5265 41.192C55.9612 41.192 55.4492 41.0907 54.9905 40.888C54.5425 40.6853 54.1532 40.3973 53.8225 40.024C53.5025 39.64 53.2518 39.1867 53.0705 38.664C52.8998 38.1307 52.8145 37.5333 52.8145 36.872C52.8145 36.2213 52.8998 35.6293 53.0705 35.096C53.2518 34.5627 53.5025 34.1093 53.8225 33.736C54.1532 33.352 54.5425 33.0587 54.9905 32.856C55.4492 32.6533 55.9612 32.552 56.5265 32.552C57.0812 32.552 57.5772 32.6533 58.0145 32.856C58.4518 33.0587 58.8252 33.3413 59.1345 33.704C59.4438 34.056 59.6785 34.4773 59.8385 34.968C60.0092 35.4587 60.0945 35.9973 60.0945 36.584V37.192H54.1585V37.576C54.1585 37.928 54.2118 38.2587 54.3185 38.568C54.4358 38.8667 54.5958 39.128 54.7985 39.352C55.0118 39.576 55.2678 39.752 55.5665 39.88C55.8758 40.008 56.2225 40.072 56.6065 40.072C57.1292 40.072 57.5825 39.9493 57.9665 39.704C58.3612 39.4587 58.6652 39.1067 58.8785 38.648L59.7905 39.304C59.5238 39.8693 59.1078 40.328 58.5425 40.68C57.9772 41.0213 57.3052 41.192 56.5265 41.192ZM56.5265 33.624C56.1745 33.624 55.8545 33.688 55.5665 33.816C55.2785 33.9333 55.0278 34.104 54.8145 34.328C54.6118 34.552 54.4518 34.8187 54.3345 35.128C54.2172 35.4267 54.1585 35.7573 54.1585 36.12V36.232H58.7185V36.056C58.7185 35.32 58.5158 34.7333 58.1105 34.296C57.7158 33.848 57.1878 33.624 56.5265 33.624ZM62.2038 41V32.744H63.4838V34.264H63.5638C63.7131 33.8693 63.9798 33.5173 64.3638 33.208C64.7478 32.8987 65.2758 32.744 65.9478 32.744H66.4438V34.024H65.6918C64.9984 34.024 64.4544 34.1573 64.0598 34.424C63.6758 34.68 63.4838 35.0053 63.4838 35.4V41H62.2038ZM68.0788 41V32.744H69.3588V34.088H69.4228C69.6254 33.6187 69.9081 33.2453 70.2708 32.968C70.6441 32.6907 71.1401 32.552 71.7588 32.552C72.6121 32.552 73.2841 32.8293 73.7748 33.384C74.2761 33.928 74.5268 34.7013 74.5268 35.704V41H73.2468V35.928C73.2468 34.4453 72.6228 33.704 71.3748 33.704C71.1188 33.704 70.8681 33.736 70.6228 33.8C70.3881 33.864 70.1748 33.96 69.9828 34.088C69.7908 34.216 69.6361 34.3813 69.5188 34.584C69.4121 34.776 69.3588 35.0053 69.3588 35.272V41H68.0788ZM83.1725 41C82.6925 41 82.3458 40.872 82.1325 40.616C81.9298 40.36 81.8018 40.04 81.7485 39.656H81.6685C81.4872 40.168 81.1885 40.552 80.7725 40.808C80.3565 41.064 79.8605 41.192 79.2845 41.192C78.4098 41.192 77.7272 40.968 77.2365 40.52C76.7565 40.072 76.5165 39.464 76.5165 38.696C76.5165 37.9173 76.7992 37.32 77.3645 36.904C77.9405 36.488 78.8312 36.28 80.0365 36.28H81.6685V35.464C81.6685 34.8773 81.5085 34.4293 81.1885 34.12C80.8685 33.8107 80.3778 33.656 79.7165 33.656C79.2152 33.656 78.7938 33.768 78.4525 33.992C78.1218 34.216 77.8445 34.5147 77.6205 34.888L76.8525 34.168C77.0765 33.72 77.4338 33.3413 77.9245 33.032C78.4152 32.712 79.0338 32.552 79.7805 32.552C80.7832 32.552 81.5618 32.7973 82.1165 33.288C82.6712 33.7787 82.9485 34.4613 82.9485 35.336V39.88H83.8925V41H83.1725ZM79.4925 40.104C79.8125 40.104 80.1058 40.0667 80.3725 39.992C80.6392 39.9173 80.8685 39.8107 81.0605 39.672C81.2525 39.5333 81.4018 39.3733 81.5085 39.192C81.6152 39.0107 81.6685 38.8133 81.6685 38.6V37.24H79.9725C79.2365 37.24 78.6978 37.3467 78.3565 37.56C78.0258 37.7733 77.8605 38.0827 77.8605 38.488V38.824C77.8605 39.2293 78.0045 39.544 78.2925 39.768C78.5912 39.992 78.9912 40.104 79.4925 40.104ZM87.4184 41L84.5224 32.744H85.8024L87.2424 36.84L88.1384 39.656H88.2184L89.1144 36.84L90.5864 32.744H91.8184L88.9064 41H87.4184ZM93.4694 41V32.744H94.7494V34.088H94.8134C95.016 33.6187 95.2987 33.2453 95.6614 32.968C96.0347 32.6907 96.5307 32.552 97.1494 32.552C98.0027 32.552 98.6747 32.8293 99.1654 33.384C99.6667 33.928 99.9174 34.7013 99.9174 35.704V41H98.6374V35.928C98.6374 34.4453 98.0134 33.704 96.7654 33.704C96.5094 33.704 96.2587 33.736 96.0134 33.8C95.7787 33.864 95.5654 33.96 95.3734 34.088C95.1814 34.216 95.0267 34.3813 94.9094 34.584C94.8027 34.776 94.7494 35.0053 94.7494 35.272V41H93.4694Z" fill="#747474"/>
<rect x="17" y="81" width="72" height="38.0001" rx="3" fill="#44831E"/>
<rect x="18.5" y="116.5" width="69" height="1" stroke="#3C5C22"/>
<path d="M37.31 106.216C36.254 106.216 35.354 106.024 34.61 105.64C33.878 105.256 33.248 104.74 32.72 104.092L34.124 102.778C34.568 103.318 35.054 103.726 35.582 104.002C36.122 104.278 36.734 104.416 37.418 104.416C38.222 104.416 38.828 104.236 39.236 103.876C39.644 103.516 39.848 103.03 39.848 102.418C39.848 101.926 39.704 101.536 39.416 101.248C39.128 100.96 38.618 100.744 37.886 100.6L36.77 100.402C35.546 100.174 34.628 99.772 34.016 99.196C33.404 98.62 33.098 97.828 33.098 96.82C33.098 96.268 33.2 95.77 33.404 95.326C33.62 94.87 33.914 94.492 34.286 94.192C34.67 93.88 35.132 93.64 35.672 93.472C36.212 93.304 36.818 93.22 37.49 93.22C38.438 93.22 39.26 93.388 39.956 93.724C40.652 94.048 41.246 94.522 41.738 95.146L40.316 96.406C39.992 95.986 39.596 95.65 39.128 95.398C38.66 95.146 38.078 95.02 37.382 95.02C36.662 95.02 36.104 95.164 35.708 95.452C35.312 95.74 35.114 96.16 35.114 96.712C35.114 97.24 35.276 97.636 35.6 97.9C35.924 98.152 36.428 98.344 37.112 98.476L38.228 98.71C39.488 98.95 40.406 99.358 40.982 99.934C41.57 100.51 41.864 101.302 41.864 102.31C41.864 102.898 41.762 103.432 41.558 103.912C41.354 104.392 41.054 104.806 40.658 105.154C40.274 105.49 39.8 105.754 39.236 105.946C38.672 106.126 38.03 106.216 37.31 106.216ZM47.8338 106.216C47.1618 106.216 46.5618 106.102 46.0338 105.874C45.5058 105.646 45.0558 105.322 44.6838 104.902C44.3118 104.47 44.0238 103.954 43.8198 103.354C43.6278 102.742 43.5318 102.064 43.5318 101.32C43.5318 100.576 43.6278 99.904 43.8198 99.304C44.0238 98.692 44.3118 98.176 44.6838 97.756C45.0558 97.324 45.5058 96.994 46.0338 96.766C46.5618 96.538 47.1618 96.424 47.8338 96.424C48.5178 96.424 49.1178 96.544 49.6338 96.784C50.1618 97.024 50.5998 97.36 50.9478 97.792C51.2958 98.212 51.5538 98.704 51.7218 99.268C51.9018 99.832 51.9918 100.438 51.9918 101.086V101.824H45.5658V102.13C45.5658 102.85 45.7758 103.444 46.1958 103.912C46.6278 104.368 47.2398 104.596 48.0318 104.596C48.6078 104.596 49.0938 104.47 49.4898 104.218C49.8858 103.966 50.2218 103.624 50.4978 103.192L51.6498 104.326C51.3018 104.902 50.7978 105.364 50.1378 105.712C49.4778 106.048 48.7098 106.216 47.8338 106.216ZM47.8338 97.954C47.4978 97.954 47.1858 98.014 46.8978 98.134C46.6218 98.254 46.3818 98.422 46.1778 98.638C45.9858 98.854 45.8358 99.112 45.7278 99.412C45.6198 99.712 45.5658 100.042 45.5658 100.402V100.528H49.9218V100.348C49.9218 99.628 49.7358 99.052 49.3638 98.62C48.9918 98.176 48.4818 97.954 47.8338 97.954ZM54.1638 106V96.64H56.1258V98.188H56.2158C56.4198 97.684 56.7258 97.264 57.1338 96.928C57.5538 96.592 58.1238 96.424 58.8438 96.424C59.8038 96.424 60.5478 96.742 61.0758 97.378C61.6158 98.002 61.8858 98.896 61.8858 100.06V106H59.9238V100.312C59.9238 98.848 59.3358 98.116 58.1598 98.116C57.9078 98.116 57.6558 98.152 57.4038 98.224C57.1638 98.284 56.9478 98.38 56.7558 98.512C56.5638 98.644 56.4078 98.812 56.2878 99.016C56.1798 99.22 56.1258 99.46 56.1258 99.736V106H54.1638ZM70.4912 104.452H70.4012C70.1972 105.004 69.8612 105.436 69.3932 105.748C68.9372 106.06 68.3972 106.216 67.7732 106.216C66.5852 106.216 65.6672 105.79 65.0192 104.938C64.3712 104.074 64.0472 102.868 64.0472 101.32C64.0472 99.772 64.3712 98.572 65.0192 97.72C65.6672 96.856 66.5852 96.424 67.7732 96.424C68.3972 96.424 68.9372 96.58 69.3932 96.892C69.8612 97.192 70.1972 97.624 70.4012 98.188H70.4912V92.68H72.4532V106H70.4912V104.452ZM68.3672 104.524C68.9672 104.524 69.4712 104.38 69.8792 104.092C70.2872 103.792 70.4912 103.402 70.4912 102.922V99.718C70.4912 99.238 70.2872 98.854 69.8792 98.566C69.4712 98.266 68.9672 98.116 68.3672 98.116C67.6832 98.116 67.1372 98.338 66.7292 98.782C66.3212 99.214 66.1172 99.79 66.1172 100.51V102.13C66.1172 102.85 66.3212 103.432 66.7292 103.876C67.1372 104.308 67.6832 104.524 68.3672 104.524Z" fill="white"/>
<rect x="17" y="81" width="72" height="38.0001" rx="3" stroke="#3C5C22" stroke-width="2"/>
</svg>
