<svg width="418" height="288" viewBox="0 0 418 288" fill="none" xmlns="http://www.w3.org/2000/svg">
<g clip-path="url(#clip0_5010_48939)">
<rect width="418" height="288" fill="white"/>
<rect x="16.5" y="137.5" width="70" height="39" rx="3.5" fill="white" stroke="#707070"/>
<path d="M17.312 124V112.832H22.336C22.848 112.832 23.3067 112.917 23.712 113.088C24.128 113.248 24.48 113.483 24.768 113.792C25.056 114.091 25.2747 114.453 25.424 114.88C25.5733 115.307 25.648 115.776 25.648 116.288C25.648 116.811 25.5733 117.285 25.424 117.712C25.2747 118.128 25.056 118.491 24.768 118.8C24.48 119.099 24.128 119.333 23.712 119.504C23.3067 119.664 22.848 119.744 22.336 119.744H19.424V124H17.312ZM19.424 117.92H22.144C22.5493 117.92 22.8693 117.813 23.104 117.6C23.3387 117.376 23.456 117.061 23.456 116.656V115.92C23.456 115.515 23.3387 115.205 23.104 114.992C22.8693 114.779 22.5493 114.672 22.144 114.672H19.424V117.92ZM30.4335 124.192C29.8362 124.192 29.2975 124.091 28.8175 123.888C28.3482 123.685 27.9428 123.392 27.6015 123.008C27.2708 122.624 27.0148 122.165 26.8335 121.632C26.6522 121.088 26.5615 120.48 26.5615 119.808C26.5615 119.136 26.6522 118.533 26.8335 118C27.0148 117.467 27.2708 117.013 27.6015 116.64C27.9428 116.256 28.3482 115.963 28.8175 115.76C29.2975 115.557 29.8362 115.456 30.4335 115.456C31.0308 115.456 31.5695 115.557 32.0495 115.76C32.5295 115.963 32.9348 116.256 33.2655 116.64C33.6068 117.013 33.8682 117.467 34.0495 118C34.2308 118.533 34.3215 119.136 34.3215 119.808C34.3215 120.48 34.2308 121.088 34.0495 121.632C33.8682 122.165 33.6068 122.624 33.2655 123.008C32.9348 123.392 32.5295 123.685 32.0495 123.888C31.5695 124.091 31.0308 124.192 30.4335 124.192ZM30.4335 122.544C30.9775 122.544 31.4042 122.379 31.7135 122.048C32.0228 121.717 32.1775 121.232 32.1775 120.592V119.04C32.1775 118.411 32.0228 117.931 31.7135 117.6C31.4042 117.269 30.9775 117.104 30.4335 117.104C29.9002 117.104 29.4788 117.269 29.1695 117.6C28.8602 117.931 28.7055 118.411 28.7055 119.04V120.592C28.7055 121.232 28.8602 121.717 29.1695 122.048C29.4788 122.379 29.9002 122.544 30.4335 122.544ZM38.8731 124.192C38.0731 124.192 37.4011 124.059 36.8571 123.792C36.3131 123.515 35.8331 123.136 35.4171 122.656L36.6651 121.44C36.9745 121.792 37.3105 122.069 37.6731 122.272C38.0465 122.475 38.4731 122.576 38.9531 122.576C39.4438 122.576 39.7958 122.491 40.0091 122.32C40.2331 122.149 40.3451 121.915 40.3451 121.616C40.3451 121.371 40.2651 121.179 40.1051 121.04C39.9558 120.891 39.6945 120.789 39.3211 120.736L38.4891 120.624C37.5825 120.507 36.8891 120.251 36.4091 119.856C35.9398 119.451 35.7051 118.864 35.7051 118.096C35.7051 117.691 35.7798 117.328 35.9291 117.008C36.0785 116.677 36.2918 116.4 36.5691 116.176C36.8465 115.941 37.1771 115.765 37.5611 115.648C37.9558 115.52 38.3931 115.456 38.8731 115.456C39.2785 115.456 39.6358 115.488 39.9451 115.552C40.2651 115.605 40.5531 115.691 40.8091 115.808C41.0651 115.915 41.2998 116.053 41.5131 116.224C41.7265 116.384 41.9345 116.565 42.1371 116.768L40.9371 117.968C40.6918 117.712 40.3985 117.499 40.0571 117.328C39.7158 117.157 39.3425 117.072 38.9371 117.072C38.4891 117.072 38.1638 117.152 37.9611 117.312C37.7691 117.472 37.6731 117.68 37.6731 117.936C37.6731 118.213 37.7531 118.427 37.9131 118.576C38.0838 118.715 38.3665 118.816 38.7611 118.88L39.6091 118.992C41.4118 119.248 42.3131 120.069 42.3131 121.456C42.3131 121.861 42.2278 122.235 42.0571 122.576C41.8971 122.907 41.6678 123.195 41.3691 123.44C41.0705 123.675 40.7078 123.861 40.2811 124C39.8651 124.128 39.3958 124.192 38.8731 124.192ZM46.6045 124C45.9005 124 45.3618 123.819 44.9885 123.456C44.6258 123.083 44.4445 122.555 44.4445 121.872V117.28H43.2125V115.648H43.8525C44.1618 115.648 44.3698 115.579 44.4765 115.44C44.5938 115.291 44.6525 115.072 44.6525 114.784V113.36H46.4925V115.648H48.2045V117.28H46.4925V122.368H48.0765V124H46.6045ZM49.9809 124V115.648H52.0289V117.04H52.1089C52.2795 116.592 52.5462 116.219 52.9089 115.92C53.2822 115.611 53.7942 115.456 54.4449 115.456C55.3089 115.456 55.9702 115.739 56.4289 116.304C56.8875 116.869 57.1169 117.675 57.1169 118.72V124H55.0689V118.928C55.0689 118.331 54.9622 117.883 54.7489 117.584C54.5355 117.285 54.1835 117.136 53.6929 117.136C53.4795 117.136 53.2715 117.168 53.0689 117.232C52.8769 117.285 52.7009 117.371 52.5409 117.488C52.3915 117.595 52.2689 117.733 52.1729 117.904C52.0769 118.064 52.0289 118.256 52.0289 118.48V124H49.9809ZM64.3791 122.608H64.2991C64.2245 122.821 64.1231 123.024 63.9951 123.216C63.8778 123.397 63.7231 123.563 63.5311 123.712C63.3498 123.861 63.1258 123.979 62.8591 124.064C62.6031 124.149 62.3045 124.192 61.9631 124.192C61.0991 124.192 60.4378 123.909 59.9791 123.344C59.5205 122.779 59.2911 121.973 59.2911 120.928V115.648H61.3391V120.72C61.3391 121.296 61.4511 121.739 61.6751 122.048C61.8991 122.347 62.2565 122.496 62.7471 122.496C62.9498 122.496 63.1471 122.469 63.3391 122.416C63.5418 122.363 63.7178 122.283 63.8671 122.176C64.0165 122.059 64.1391 121.92 64.2351 121.76C64.3311 121.589 64.3791 121.392 64.3791 121.168V115.648H66.4271V124H64.3791V122.608ZM68.7934 124V115.648H70.8414V117.04H70.9214C71.0814 116.603 71.3374 116.229 71.6894 115.92C72.0414 115.611 72.532 115.456 73.1614 115.456C73.7374 115.456 74.2334 115.595 74.6494 115.872C75.0654 116.149 75.3747 116.571 75.5774 117.136H75.6094C75.7587 116.667 76.052 116.272 76.4894 115.952C76.9374 115.621 77.4974 115.456 78.1694 115.456C78.9907 115.456 79.62 115.739 80.0574 116.304C80.5054 116.869 80.7294 117.675 80.7294 118.72V124H78.6814V118.928C78.6814 117.733 78.2334 117.136 77.3374 117.136C77.1347 117.136 76.9374 117.168 76.7454 117.232C76.564 117.285 76.3987 117.371 76.2494 117.488C76.1107 117.595 75.9987 117.733 75.9134 117.904C75.828 118.064 75.7854 118.256 75.7854 118.48V124H73.7374V118.928C73.7374 117.733 73.2894 117.136 72.3934 117.136C72.2014 117.136 72.0094 117.168 71.8174 117.232C71.636 117.285 71.4707 117.371 71.3214 117.488C71.1827 117.595 71.0654 117.733 70.9694 117.904C70.884 118.064 70.8414 118.256 70.8414 118.48V124H68.7934ZM82.9965 124V115.648H85.0445V117.04H85.1245C85.2845 116.603 85.5405 116.229 85.8925 115.92C86.2445 115.611 86.7352 115.456 87.3645 115.456C87.9405 115.456 88.4365 115.595 88.8525 115.872C89.2685 116.149 89.5778 116.571 89.7805 117.136H89.8125C89.9618 116.667 90.2552 116.272 90.6925 115.952C91.1405 115.621 91.7005 115.456 92.3725 115.456C93.1938 115.456 93.8232 115.739 94.2605 116.304C94.7085 116.869 94.9325 117.675 94.9325 118.72V124H92.8845V118.928C92.8845 117.733 92.4365 117.136 91.5405 117.136C91.3378 117.136 91.1405 117.168 90.9485 117.232C90.7672 117.285 90.6018 117.371 90.4525 117.488C90.3138 117.595 90.2018 117.733 90.1165 117.904C90.0312 118.064 89.9885 118.256 89.9885 118.48V124H87.9405V118.928C87.9405 117.733 87.4925 117.136 86.5965 117.136C86.4045 117.136 86.2125 117.168 86.0205 117.232C85.8392 117.285 85.6738 117.371 85.5245 117.488C85.3858 117.595 85.2685 117.733 85.1725 117.904C85.0872 118.064 85.0445 118.256 85.0445 118.48V124H82.9965ZM100.576 124.192C99.957 124.192 99.4023 124.091 98.9116 123.888C98.4316 123.675 98.021 123.381 97.6796 123.008C97.349 122.624 97.093 122.165 96.9116 121.632C96.7303 121.088 96.6396 120.48 96.6396 119.808C96.6396 119.147 96.725 118.549 96.8956 118.016C97.077 117.483 97.333 117.029 97.6636 116.656C97.9943 116.272 98.3996 115.979 98.8796 115.776C99.3596 115.563 99.9036 115.456 100.512 115.456C101.162 115.456 101.728 115.568 102.208 115.792C102.688 116.016 103.082 116.32 103.392 116.704C103.701 117.088 103.93 117.536 104.08 118.048C104.24 118.549 104.32 119.088 104.32 119.664V120.336H98.7676V120.544C98.7676 121.152 98.9383 121.643 99.2796 122.016C99.621 122.379 100.128 122.56 100.8 122.56C101.312 122.56 101.728 122.453 102.048 122.24C102.378 122.027 102.672 121.755 102.928 121.424L104.032 122.656C103.69 123.136 103.221 123.515 102.624 123.792C102.037 124.059 101.354 124.192 100.576 124.192ZM100.544 116.992C99.9996 116.992 99.5676 117.173 99.2476 117.536C98.9276 117.899 98.7676 118.368 98.7676 118.944V119.072H102.192V118.928C102.192 118.352 102.048 117.888 101.76 117.536C101.482 117.173 101.077 116.992 100.544 116.992ZM106.122 124V115.648H108.17V117.376H108.25C108.303 117.152 108.383 116.939 108.49 116.736C108.607 116.523 108.756 116.336 108.938 116.176C109.119 116.016 109.332 115.888 109.578 115.792C109.834 115.696 110.127 115.648 110.458 115.648H110.906V117.584H110.266C109.572 117.584 109.05 117.685 108.698 117.888C108.346 118.091 108.17 118.421 108.17 118.88V124H106.122Z" fill="#1A1A1A"/>
<rect x="16.5" y="42.5" width="239" height="39" rx="3.5" stroke="#707070"/>
<path d="M24.224 29L23.328 26.152H19.36L18.48 29H16.336L20.08 17.832H22.704L26.416 29H24.224ZM21.376 19.752H21.296L19.872 24.344H22.816L21.376 19.752ZM33.118 27.608H33.038C32.8887 28.088 32.606 28.472 32.19 28.76C31.774 29.048 31.2887 29.192 30.734 29.192C29.678 29.192 28.8673 28.8133 28.302 28.056C27.7473 27.2987 27.47 26.216 27.47 24.808C27.47 23.4107 27.7473 22.3387 28.302 21.592C28.8673 20.8347 29.678 20.456 30.734 20.456C31.2887 20.456 31.774 20.6 32.19 20.888C32.606 21.1653 32.8887 21.544 33.038 22.024H33.118V17.16H35.166V29H33.118V27.608ZM31.39 27.496C31.8807 27.496 32.2913 27.3787 32.622 27.144C32.9527 26.9093 33.118 26.5733 33.118 26.136V23.48C33.118 23.0747 32.9527 22.7493 32.622 22.504C32.2913 22.2587 31.8807 22.136 31.39 22.136C30.8567 22.136 30.4247 22.3173 30.094 22.68C29.774 23.032 29.614 23.5067 29.614 24.104V25.544C29.614 26.1413 29.774 26.616 30.094 26.968C30.4247 27.32 30.8567 27.496 31.39 27.496ZM37.5278 29V20.648H39.5758V22.376H39.6558C39.7091 22.152 39.7891 21.9387 39.8958 21.736C40.0131 21.5227 40.1624 21.336 40.3438 21.176C40.5251 21.016 40.7384 20.888 40.9838 20.792C41.2398 20.696 41.5331 20.648 41.8638 20.648H42.3118V22.584H41.6718C40.9784 22.584 40.4558 22.6853 40.1038 22.888C39.7518 23.0907 39.5758 23.4213 39.5758 23.88V29H37.5278ZM47.1069 29.192C46.4882 29.192 45.9335 29.0907 45.4429 28.888C44.9629 28.6747 44.5522 28.3813 44.2109 28.008C43.8802 27.624 43.6242 27.1653 43.4429 26.632C43.2615 26.088 43.1709 25.48 43.1709 24.808C43.1709 24.1467 43.2562 23.5493 43.4269 23.016C43.6082 22.4827 43.8642 22.0293 44.1949 21.656C44.5255 21.272 44.9309 20.9787 45.4109 20.776C45.8909 20.5627 46.4349 20.456 47.0429 20.456C47.6935 20.456 48.2589 20.568 48.7389 20.792C49.2189 21.016 49.6135 21.32 49.9229 21.704C50.2322 22.088 50.4615 22.536 50.6109 23.048C50.7709 23.5493 50.8509 24.088 50.8509 24.664V25.336H45.2989V25.544C45.2989 26.152 45.4695 26.6427 45.8109 27.016C46.1522 27.3787 46.6589 27.56 47.3309 27.56C47.8429 27.56 48.2589 27.4533 48.5789 27.24C48.9095 27.0267 49.2029 26.7547 49.4589 26.424L50.5629 27.656C50.2215 28.136 49.7522 28.5147 49.1549 28.792C48.5682 29.0587 47.8855 29.192 47.1069 29.192ZM47.0749 21.992C46.5309 21.992 46.0989 22.1733 45.7789 22.536C45.4589 22.8987 45.2989 23.368 45.2989 23.944V24.072H48.7229V23.928C48.7229 23.352 48.5789 22.888 48.2909 22.536C48.0135 22.1733 47.6082 21.992 47.0749 21.992ZM55.3888 29.192C54.5888 29.192 53.9168 29.0587 53.3728 28.792C52.8288 28.5147 52.3488 28.136 51.9328 27.656L53.1808 26.44C53.4901 26.792 53.8261 27.0693 54.1888 27.272C54.5621 27.4747 54.9888 27.576 55.4688 27.576C55.9594 27.576 56.3114 27.4907 56.5248 27.32C56.7488 27.1493 56.8608 26.9147 56.8608 26.616C56.8608 26.3707 56.7808 26.1787 56.6208 26.04C56.4714 25.8907 56.2101 25.7893 55.8368 25.736L55.0048 25.624C54.0981 25.5067 53.4048 25.2507 52.9248 24.856C52.4554 24.4507 52.2208 23.864 52.2208 23.096C52.2208 22.6907 52.2954 22.328 52.4448 22.008C52.5941 21.6773 52.8074 21.4 53.0848 21.176C53.3621 20.9413 53.6928 20.7653 54.0768 20.648C54.4714 20.52 54.9088 20.456 55.3888 20.456C55.7941 20.456 56.1514 20.488 56.4608 20.552C56.7808 20.6053 57.0688 20.6907 57.3248 20.808C57.5808 20.9147 57.8154 21.0533 58.0288 21.224C58.2421 21.384 58.4501 21.5653 58.6528 21.768L57.4528 22.968C57.2074 22.712 56.9141 22.4987 56.5728 22.328C56.2314 22.1573 55.8581 22.072 55.4528 22.072C55.0048 22.072 54.6794 22.152 54.4768 22.312C54.2848 22.472 54.1888 22.68 54.1888 22.936C54.1888 23.2133 54.2688 23.4267 54.4288 23.576C54.5994 23.7147 54.8821 23.816 55.2768 23.88L56.1248 23.992C57.9274 24.248 58.8288 25.0693 58.8288 26.456C58.8288 26.8613 58.7434 27.2347 58.5728 27.576C58.4128 27.9067 58.1834 28.1947 57.8848 28.44C57.5861 28.6747 57.2234 28.8613 56.7968 29C56.3808 29.128 55.9114 29.192 55.3888 29.192ZM63.2638 29.192C62.4638 29.192 61.7918 29.0587 61.2478 28.792C60.7038 28.5147 60.2238 28.136 59.8078 27.656L61.0558 26.44C61.3651 26.792 61.7011 27.0693 62.0638 27.272C62.4371 27.4747 62.8638 27.576 63.3438 27.576C63.8344 27.576 64.1864 27.4907 64.3998 27.32C64.6238 27.1493 64.7358 26.9147 64.7358 26.616C64.7358 26.3707 64.6558 26.1787 64.4958 26.04C64.3464 25.8907 64.0851 25.7893 63.7118 25.736L62.8798 25.624C61.9731 25.5067 61.2798 25.2507 60.7998 24.856C60.3304 24.4507 60.0958 23.864 60.0958 23.096C60.0958 22.6907 60.1704 22.328 60.3198 22.008C60.4691 21.6773 60.6824 21.4 60.9598 21.176C61.2371 20.9413 61.5678 20.7653 61.9518 20.648C62.3464 20.52 62.7838 20.456 63.2638 20.456C63.6691 20.456 64.0264 20.488 64.3358 20.552C64.6558 20.6053 64.9438 20.6907 65.1998 20.808C65.4558 20.9147 65.6904 21.0533 65.9038 21.224C66.1171 21.384 66.3251 21.5653 66.5278 21.768L65.3278 22.968C65.0824 22.712 64.7891 22.4987 64.4478 22.328C64.1064 22.1573 63.7331 22.072 63.3278 22.072C62.8798 22.072 62.5544 22.152 62.3518 22.312C62.1598 22.472 62.0638 22.68 62.0638 22.936C62.0638 23.2133 62.1438 23.4267 62.3038 23.576C62.4744 23.7147 62.7571 23.816 63.1518 23.88L63.9998 23.992C65.8024 24.248 66.7038 25.0693 66.7038 26.456C66.7038 26.8613 66.6184 27.2347 66.4478 27.576C66.2878 27.9067 66.0584 28.1947 65.7598 28.44C65.4611 28.6747 65.0984 28.8613 64.6718 29C64.2558 29.128 63.7864 29.192 63.2638 29.192ZM71.8881 29.192C71.2695 29.192 70.7148 29.0907 70.2241 28.888C69.7441 28.6747 69.3335 28.3813 68.9921 28.008C68.6615 27.624 68.4055 27.1653 68.2241 26.632C68.0428 26.088 67.9521 25.48 67.9521 24.808C67.9521 24.1467 68.0375 23.5493 68.2081 23.016C68.3895 22.4827 68.6455 22.0293 68.9761 21.656C69.3068 21.272 69.7121 20.9787 70.1921 20.776C70.6721 20.5627 71.2161 20.456 71.8241 20.456C72.4748 20.456 73.0401 20.568 73.5201 20.792C74.0001 21.016 74.3948 21.32 74.7041 21.704C75.0135 22.088 75.2428 22.536 75.3921 23.048C75.5521 23.5493 75.6321 24.088 75.6321 24.664V25.336H70.0801V25.544C70.0801 26.152 70.2508 26.6427 70.5921 27.016C70.9335 27.3787 71.4401 27.56 72.1121 27.56C72.6241 27.56 73.0401 27.4533 73.3601 27.24C73.6908 27.0267 73.9841 26.7547 74.2401 26.424L75.3441 27.656C75.0028 28.136 74.5335 28.5147 73.9361 28.792C73.3495 29.0587 72.6668 29.192 71.8881 29.192ZM71.8561 21.992C71.3121 21.992 70.8801 22.1733 70.5601 22.536C70.2401 22.8987 70.0801 23.368 70.0801 23.944V24.072H73.5041V23.928C73.5041 23.352 73.3601 22.888 73.0721 22.536C72.7948 22.1733 72.3895 21.992 71.8561 21.992Z" fill="#1A1A1A"/>
<rect x="16.5" y="232.5" width="239" height="39" rx="3.5" stroke="#707070"/>
<path d="M17.312 207.832H22.48C22.9387 207.832 23.3493 207.901 23.712 208.04C24.0853 208.179 24.4 208.371 24.656 208.616C24.912 208.861 25.104 209.165 25.232 209.528C25.3707 209.88 25.44 210.269 25.44 210.696C25.44 211.123 25.3813 211.485 25.264 211.784C25.1573 212.072 25.008 212.312 24.816 212.504C24.6347 212.696 24.4213 212.84 24.176 212.936C23.9413 213.032 23.696 213.085 23.44 213.096V213.192C23.6853 213.192 23.9467 213.24 24.224 213.336C24.512 213.432 24.7733 213.587 25.008 213.8C25.2533 214.003 25.456 214.269 25.616 214.6C25.776 214.92 25.856 215.32 25.856 215.8C25.856 216.248 25.7813 216.669 25.632 217.064C25.4933 217.448 25.296 217.784 25.04 218.072C24.784 218.36 24.48 218.589 24.128 218.76C23.776 218.92 23.392 219 22.976 219H17.312V207.832ZM19.424 217.208H22.368C22.7733 217.208 23.088 217.107 23.312 216.904C23.536 216.691 23.648 216.387 23.648 215.992V215.448C23.648 215.053 23.536 214.749 23.312 214.536C23.088 214.323 22.7733 214.216 22.368 214.216H19.424V217.208ZM19.424 212.488H22.032C22.416 212.488 22.7147 212.387 22.928 212.184C23.1413 211.971 23.248 211.677 23.248 211.304V210.808C23.248 210.435 23.1413 210.147 22.928 209.944C22.7147 209.731 22.416 209.624 22.032 209.624H19.424V212.488ZM32.7728 210.648H34.6927L31.3328 220.488C31.2261 220.787 31.1034 221.043 30.9648 221.256C30.8368 221.48 30.6821 221.661 30.5008 221.8C30.3194 221.939 30.1008 222.04 29.8448 222.104C29.5888 222.168 29.2901 222.2 28.9488 222.2H27.7168V220.568H29.2208L29.6048 219.4L26.6128 210.648H28.6448L30.1008 215.064L30.6448 217.176H30.7408L31.3168 215.064L32.7728 210.648Z" fill="#1A1A1A"/>
</g>
<defs>
<clipPath id="clip0_5010_48939">
<rect width="418" height="288" fill="white"/>
</clipPath>
</defs>
</svg>
