<svg width="418" height="432" viewBox="0 0 418 432" fill="none" xmlns="http://www.w3.org/2000/svg">
<rect width="418" height="432" fill="white"/>
<path d="M23.472 22.832V30.864C23.472 31.3653 23.3867 31.8187 23.216 32.224C23.056 32.6293 22.8213 32.976 22.512 33.264C22.2133 33.552 21.8453 33.776 21.408 33.936C20.9707 34.096 20.48 34.176 19.936 34.176C18.9013 34.176 18.096 33.9093 17.52 33.376C16.944 32.832 16.576 32.112 16.416 31.216L18.368 30.816C18.464 31.296 18.6347 31.6693 18.88 31.936C19.136 32.192 19.4827 32.32 19.92 32.32C20.336 32.32 20.6773 32.192 20.944 31.936C21.2213 31.6693 21.36 31.264 21.36 30.72V24.56H17.84V22.832H23.472ZM29.2788 34.192C28.6601 34.192 28.1054 34.0907 27.6148 33.888C27.1348 33.6747 26.7241 33.3813 26.3828 33.008C26.0521 32.624 25.7961 32.1653 25.6148 31.632C25.4334 31.088 25.3428 30.48 25.3428 29.808C25.3428 29.1467 25.4281 28.5493 25.5988 28.016C25.7801 27.4827 26.0361 27.0293 26.3668 26.656C26.6974 26.272 27.1028 25.9787 27.5828 25.776C28.0628 25.5627 28.6068 25.456 29.2148 25.456C29.8654 25.456 30.4308 25.568 30.9108 25.792C31.3908 26.016 31.7854 26.32 32.0948 26.704C32.4041 27.088 32.6334 27.536 32.7828 28.048C32.9428 28.5493 33.0228 29.088 33.0228 29.664V30.336H27.4708V30.544C27.4708 31.152 27.6414 31.6427 27.9828 32.016C28.3241 32.3787 28.8308 32.56 29.5028 32.56C30.0148 32.56 30.4308 32.4533 30.7508 32.24C31.0814 32.0267 31.3748 31.7547 31.6308 31.424L32.7348 32.656C32.3934 33.136 31.9241 33.5147 31.3268 33.792C30.7401 34.0587 30.0574 34.192 29.2788 34.192ZM29.2468 26.992C28.7028 26.992 28.2708 27.1733 27.9508 27.536C27.6308 27.8987 27.4708 28.368 27.4708 28.944V29.072H30.8948V28.928C30.8948 28.352 30.7508 27.888 30.4628 27.536C30.1854 27.1733 29.7801 26.992 29.2468 26.992ZM42.3606 34.704C42.3606 35.1413 42.2806 35.5253 42.1206 35.856C41.9713 36.1973 41.7206 36.48 41.3686 36.704C41.0166 36.928 40.5633 37.0987 40.0086 37.216C39.454 37.3333 38.7766 37.392 37.9766 37.392C37.2726 37.392 36.6753 37.344 36.1846 37.248C35.694 37.1627 35.2886 37.0347 34.9686 36.864C34.6593 36.704 34.4353 36.5013 34.2966 36.256C34.158 36.0107 34.0886 35.7333 34.0886 35.424C34.0886 34.9547 34.2166 34.5867 34.4726 34.32C34.7393 34.064 35.1073 33.8987 35.5766 33.824V33.648C35.2353 33.5627 34.9686 33.3973 34.7766 33.152C34.5953 32.896 34.5046 32.5973 34.5046 32.256C34.5046 32.0427 34.5473 31.856 34.6326 31.696C34.718 31.5253 34.83 31.3813 34.9686 31.264C35.118 31.1467 35.2833 31.0507 35.4646 30.976C35.646 30.8907 35.838 30.8267 36.0406 30.784V30.72C35.5286 30.4853 35.1446 30.16 34.8886 29.744C34.6433 29.328 34.5206 28.8427 34.5206 28.288C34.5206 27.4347 34.814 26.752 35.4006 26.24C35.9873 25.7173 36.846 25.456 37.9766 25.456C38.2326 25.456 38.4833 25.472 38.7286 25.504C38.9846 25.536 39.2193 25.5893 39.4326 25.664V25.392C39.4326 24.5813 39.8273 24.176 40.6166 24.176H41.9126V25.744H40.1366V25.968C40.574 26.2133 40.8993 26.5333 41.1126 26.928C41.326 27.3227 41.4326 27.776 41.4326 28.288C41.4326 29.1307 41.1393 29.808 40.5526 30.32C39.9766 30.832 39.118 31.088 37.9766 31.088C37.486 31.088 37.0593 31.04 36.6966 30.944C36.5366 31.0187 36.398 31.12 36.2806 31.248C36.1633 31.3653 36.1046 31.5147 36.1046 31.696C36.1046 32.112 36.4673 32.32 37.1926 32.32H39.4326C40.4566 32.32 41.198 32.5333 41.6566 32.96C42.126 33.376 42.3606 33.9573 42.3606 34.704ZM40.4406 34.944C40.4406 34.6773 40.334 34.4693 40.1206 34.32C39.9073 34.1707 39.5393 34.096 39.0166 34.096H36.1686C35.8806 34.3093 35.7366 34.5973 35.7366 34.96C35.7366 35.28 35.87 35.5307 36.1366 35.712C36.4033 35.8933 36.8566 35.984 37.4966 35.984H38.5206C39.1926 35.984 39.678 35.8987 39.9766 35.728C40.286 35.5573 40.4406 35.296 40.4406 34.944ZM37.9766 29.696C38.9793 29.696 39.4806 29.2693 39.4806 28.416V28.144C39.4806 27.2907 38.9793 26.864 37.9766 26.864C36.974 26.864 36.4726 27.2907 36.4726 28.144V28.416C36.4726 29.2693 36.974 29.696 37.9766 29.696ZM49.1166 34L46.3326 25.648H48.3486L49.5166 29.248L50.3326 32.224H50.4446L51.2606 29.248L52.3966 25.648H54.3486L51.5486 34H49.1166ZM56.7393 24.432C56.3126 24.432 56.0033 24.336 55.8113 24.144C55.6299 23.952 55.5393 23.7067 55.5393 23.408V23.088C55.5393 22.7893 55.6299 22.544 55.8113 22.352C56.0033 22.16 56.3126 22.064 56.7393 22.064C57.1553 22.064 57.4593 22.16 57.6513 22.352C57.8433 22.544 57.9393 22.7893 57.9393 23.088V23.408C57.9393 23.7067 57.8433 23.952 57.6513 24.144C57.4593 24.336 57.1553 24.432 56.7393 24.432ZM55.7153 25.648H57.7633V34H55.7153V25.648ZM62.1851 34C61.4811 34 60.9638 33.824 60.6331 33.472C60.3025 33.12 60.1371 32.624 60.1371 31.984V22.16H62.1851V32.368H63.2891V34H62.1851ZM76.1575 34.704C76.1575 35.1413 76.0775 35.5253 75.9175 35.856C75.7682 36.1973 75.5175 36.48 75.1655 36.704C74.8135 36.928 74.3602 37.0987 73.8055 37.216C73.2508 37.3333 72.5735 37.392 71.7735 37.392C71.0695 37.392 70.4722 37.344 69.9815 37.248C69.4908 37.1627 69.0855 37.0347 68.7655 36.864C68.4562 36.704 68.2322 36.5013 68.0935 36.256C67.9548 36.0107 67.8855 35.7333 67.8855 35.424C67.8855 34.9547 68.0135 34.5867 68.2695 34.32C68.5362 34.064 68.9042 33.8987 69.3735 33.824V33.648C69.0322 33.5627 68.7655 33.3973 68.5735 33.152C68.3922 32.896 68.3015 32.5973 68.3015 32.256C68.3015 32.0427 68.3442 31.856 68.4295 31.696C68.5148 31.5253 68.6268 31.3813 68.7655 31.264C68.9148 31.1467 69.0802 31.0507 69.2615 30.976C69.4428 30.8907 69.6348 30.8267 69.8375 30.784V30.72C69.3255 30.4853 68.9415 30.16 68.6855 29.744C68.4402 29.328 68.3175 28.8427 68.3175 28.288C68.3175 27.4347 68.6108 26.752 69.1975 26.24C69.7842 25.7173 70.6428 25.456 71.7735 25.456C72.0295 25.456 72.2802 25.472 72.5255 25.504C72.7815 25.536 73.0162 25.5893 73.2295 25.664V25.392C73.2295 24.5813 73.6242 24.176 74.4135 24.176H75.7095V25.744H73.9335V25.968C74.3708 26.2133 74.6962 26.5333 74.9095 26.928C75.1228 27.3227 75.2295 27.776 75.2295 28.288C75.2295 29.1307 74.9362 29.808 74.3495 30.32C73.7735 30.832 72.9148 31.088 71.7735 31.088C71.2828 31.088 70.8562 31.04 70.4935 30.944C70.3335 31.0187 70.1948 31.12 70.0775 31.248C69.9602 31.3653 69.9015 31.5147 69.9015 31.696C69.9015 32.112 70.2642 32.32 70.9895 32.32H73.2295C74.2535 32.32 74.9948 32.5333 75.4535 32.96C75.9228 33.376 76.1575 33.9573 76.1575 34.704ZM74.2375 34.944C74.2375 34.6773 74.1308 34.4693 73.9175 34.32C73.7042 34.1707 73.3362 34.096 72.8135 34.096H69.9655C69.6775 34.3093 69.5335 34.5973 69.5335 34.96C69.5335 35.28 69.6668 35.5307 69.9335 35.712C70.2002 35.8933 70.6535 35.984 71.2935 35.984H72.3175C72.9895 35.984 73.4748 35.8987 73.7735 35.728C74.0828 35.5573 74.2375 35.296 74.2375 34.944ZM71.7735 29.696C72.7762 29.696 73.2775 29.2693 73.2775 28.416V28.144C73.2775 27.2907 72.7762 26.864 71.7735 26.864C70.7708 26.864 70.2695 27.2907 70.2695 28.144V28.416C70.2695 29.2693 70.7708 29.696 71.7735 29.696ZM80.6225 34.192C80.0038 34.192 79.4492 34.0907 78.9585 33.888C78.4785 33.6747 78.0678 33.3813 77.7265 33.008C77.3958 32.624 77.1398 32.1653 76.9585 31.632C76.7772 31.088 76.6865 30.48 76.6865 29.808C76.6865 29.1467 76.7718 28.5493 76.9425 28.016C77.1238 27.4827 77.3798 27.0293 77.7105 26.656C78.0412 26.272 78.4465 25.9787 78.9265 25.776C79.4065 25.5627 79.9505 25.456 80.5585 25.456C81.2092 25.456 81.7745 25.568 82.2545 25.792C82.7345 26.016 83.1292 26.32 83.4385 26.704C83.7478 27.088 83.9772 27.536 84.1265 28.048C84.2865 28.5493 84.3665 29.088 84.3665 29.664V30.336H78.8145V30.544C78.8145 31.152 78.9852 31.6427 79.3265 32.016C79.6678 32.3787 80.1745 32.56 80.8465 32.56C81.3585 32.56 81.7745 32.4533 82.0945 32.24C82.4252 32.0267 82.7185 31.7547 82.9745 31.424L84.0785 32.656C83.7372 33.136 83.2678 33.5147 82.6705 33.792C82.0838 34.0587 81.4012 34.192 80.6225 34.192ZM80.5905 26.992C80.0465 26.992 79.6145 27.1733 79.2945 27.536C78.9745 27.8987 78.8145 28.368 78.8145 28.944V29.072H82.2385V28.928C82.2385 28.352 82.0945 27.888 81.8065 27.536C81.5292 27.1733 81.1238 26.992 80.5905 26.992ZM86.1684 34V25.648H88.2164V27.376H88.2964C88.3497 27.152 88.4297 26.9387 88.5364 26.736C88.6537 26.5227 88.803 26.336 88.9844 26.176C89.1657 26.016 89.379 25.888 89.6244 25.792C89.8804 25.696 90.1737 25.648 90.5044 25.648H90.9524V27.584H90.3124C89.619 27.584 89.0964 27.6853 88.7444 27.888C88.3924 28.0907 88.2164 28.4213 88.2164 28.88V34H86.1684ZM92.4496 34V25.648H94.4976V27.04H94.5776C94.7483 26.592 95.015 26.2187 95.3776 25.92C95.751 25.6107 96.263 25.456 96.9136 25.456C97.7776 25.456 98.439 25.7387 98.8976 26.304C99.3563 26.8693 99.5856 27.6747 99.5856 28.72V34H97.5376V28.928C97.5376 28.3307 97.431 27.8827 97.2176 27.584C97.0043 27.2853 96.6523 27.136 96.1616 27.136C95.9483 27.136 95.7403 27.168 95.5376 27.232C95.3456 27.2853 95.1696 27.3707 95.0096 27.488C94.8603 27.5947 94.7376 27.7333 94.6416 27.904C94.5456 28.064 94.4976 28.256 94.4976 28.48V34H92.4496ZM105.232 34.192C104.613 34.192 104.059 34.0907 103.568 33.888C103.088 33.6747 102.677 33.3813 102.336 33.008C102.005 32.624 101.749 32.1653 101.568 31.632C101.387 31.088 101.296 30.48 101.296 29.808C101.296 29.1467 101.381 28.5493 101.552 28.016C101.733 27.4827 101.989 27.0293 102.32 26.656C102.651 26.272 103.056 25.9787 103.536 25.776C104.016 25.5627 104.56 25.456 105.168 25.456C105.819 25.456 106.384 25.568 106.864 25.792C107.344 26.016 107.739 26.32 108.048 26.704C108.357 27.088 108.587 27.536 108.736 28.048C108.896 28.5493 108.976 29.088 108.976 29.664V30.336H103.424V30.544C103.424 31.152 103.595 31.6427 103.936 32.016C104.277 32.3787 104.784 32.56 105.456 32.56C105.968 32.56 106.384 32.4533 106.704 32.24C107.035 32.0267 107.328 31.7547 107.584 31.424L108.688 32.656C108.347 33.136 107.877 33.5147 107.28 33.792C106.693 34.0587 106.011 34.192 105.232 34.192ZM105.2 26.992C104.656 26.992 104.224 27.1733 103.904 27.536C103.584 27.8987 103.424 28.368 103.424 28.944V29.072H106.848V28.928C106.848 28.352 106.704 27.888 106.416 27.536C106.139 27.1733 105.733 26.992 105.2 26.992ZM114.559 22.16H116.607V29.296H116.687L117.791 27.792L119.663 25.648H121.983L119.103 28.88L122.287 34H119.855L117.711 30.256L116.607 31.456V34H114.559V22.16ZM126.465 34.192C125.867 34.192 125.329 34.0907 124.849 33.888C124.379 33.6853 123.974 33.392 123.633 33.008C123.302 32.624 123.046 32.1653 122.865 31.632C122.683 31.088 122.593 30.48 122.593 29.808C122.593 29.136 122.683 28.5333 122.865 28C123.046 27.4667 123.302 27.0133 123.633 26.64C123.974 26.256 124.379 25.9627 124.849 25.76C125.329 25.5573 125.867 25.456 126.465 25.456C127.062 25.456 127.601 25.5573 128.081 25.76C128.561 25.9627 128.966 26.256 129.297 26.64C129.638 27.0133 129.899 27.4667 130.081 28C130.262 28.5333 130.353 29.136 130.353 29.808C130.353 30.48 130.262 31.088 130.081 31.632C129.899 32.1653 129.638 32.624 129.297 33.008C128.966 33.392 128.561 33.6853 128.081 33.888C127.601 34.0907 127.062 34.192 126.465 34.192ZM126.465 32.544C127.009 32.544 127.435 32.3787 127.745 32.048C128.054 31.7173 128.209 31.232 128.209 30.592V29.04C128.209 28.4107 128.054 27.9307 127.745 27.6C127.435 27.2693 127.009 27.104 126.465 27.104C125.931 27.104 125.51 27.2693 125.201 27.6C124.891 27.9307 124.737 28.4107 124.737 29.04V30.592C124.737 31.232 124.891 31.7173 125.201 32.048C125.51 32.3787 125.931 32.544 126.465 32.544ZM132.168 34V25.648H134.216V27.04H134.296C134.467 26.592 134.734 26.2187 135.096 25.92C135.47 25.6107 135.982 25.456 136.632 25.456C137.496 25.456 138.158 25.7387 138.616 26.304C139.075 26.8693 139.304 27.6747 139.304 28.72V34H137.256V28.928C137.256 28.3307 137.15 27.8827 136.936 27.584C136.723 27.2853 136.371 27.136 135.88 27.136C135.667 27.136 135.459 27.168 135.256 27.232C135.064 27.2853 134.888 27.3707 134.728 27.488C134.579 27.5947 134.456 27.7333 134.36 27.904C134.264 28.064 134.216 28.256 134.216 28.48V34H132.168ZM144.183 34C143.479 34 142.94 33.8187 142.567 33.456C142.204 33.0827 142.023 32.5547 142.023 31.872V27.28H140.791V25.648H141.431C141.74 25.648 141.948 25.5787 142.055 25.44C142.172 25.2907 142.231 25.072 142.231 24.784V23.36H144.071V25.648H145.783V27.28H144.071V32.368H145.655V34H144.183ZM153.703 34C153.255 34 152.898 33.872 152.631 33.616C152.375 33.3493 152.215 32.9973 152.151 32.56H152.055C151.916 33.104 151.634 33.5147 151.207 33.792C150.78 34.0587 150.252 34.192 149.623 34.192C148.77 34.192 148.114 33.968 147.655 33.52C147.196 33.072 146.967 32.4747 146.967 31.728C146.967 30.864 147.276 30.224 147.895 29.808C148.514 29.3813 149.394 29.168 150.535 29.168H151.959V28.56C151.959 28.0907 151.836 27.728 151.591 27.472C151.346 27.216 150.951 27.088 150.407 27.088C149.927 27.088 149.538 27.1947 149.239 27.408C148.951 27.6107 148.706 27.856 148.503 28.144L147.287 27.056C147.596 26.576 148.007 26.192 148.519 25.904C149.031 25.6053 149.708 25.456 150.551 25.456C151.682 25.456 152.54 25.712 153.127 26.224C153.714 26.736 154.007 27.472 154.007 28.432V32.368H154.839V34H153.703ZM150.311 32.704C150.77 32.704 151.159 32.6027 151.479 32.4C151.799 32.1973 151.959 31.8987 151.959 31.504V30.4H150.647C149.58 30.4 149.047 30.7413 149.047 31.424V31.696C149.047 32.0373 149.154 32.2933 149.367 32.464C149.591 32.624 149.906 32.704 150.311 32.704ZM156.497 22.16H158.545V29.296H158.625L159.729 27.792L161.601 25.648H163.921L161.041 28.88L164.225 34H161.793L159.649 30.256L158.545 31.456V34H156.497V22.16ZM167.933 34C167.229 34 166.69 33.8187 166.317 33.456C165.954 33.0827 165.773 32.5547 165.773 31.872V27.28H164.541V25.648H165.181C165.49 25.648 165.698 25.5787 165.805 25.44C165.922 25.2907 165.981 25.072 165.981 24.784V23.36H167.821V25.648H169.533V27.28H167.821V32.368H169.405V34H167.933ZM174.623 34.192C174.004 34.192 173.449 34.0907 172.959 33.888C172.479 33.6747 172.068 33.3813 171.727 33.008C171.396 32.624 171.14 32.1653 170.959 31.632C170.777 31.088 170.687 30.48 170.687 29.808C170.687 29.1467 170.772 28.5493 170.943 28.016C171.124 27.4827 171.38 27.0293 171.711 26.656C172.041 26.272 172.447 25.9787 172.927 25.776C173.407 25.5627 173.951 25.456 174.559 25.456C175.209 25.456 175.775 25.568 176.255 25.792C176.735 26.016 177.129 26.32 177.439 26.704C177.748 27.088 177.977 27.536 178.127 28.048C178.287 28.5493 178.367 29.088 178.367 29.664V30.336H172.815V30.544C172.815 31.152 172.985 31.6427 173.327 32.016C173.668 32.3787 174.175 32.56 174.847 32.56C175.359 32.56 175.775 32.4533 176.095 32.24C176.425 32.0267 176.719 31.7547 176.975 31.424L178.079 32.656C177.737 33.136 177.268 33.5147 176.671 33.792C176.084 34.0587 175.401 34.192 174.623 34.192ZM174.591 26.992C174.047 26.992 173.615 27.1733 173.295 27.536C172.975 27.8987 172.815 28.368 172.815 28.944V29.072H176.239V28.928C176.239 28.352 176.095 27.888 175.807 27.536C175.529 27.1733 175.124 26.992 174.591 26.992ZM182.904 34.192C182.104 34.192 181.432 34.0587 180.888 33.792C180.344 33.5147 179.864 33.136 179.448 32.656L180.696 31.44C181.006 31.792 181.342 32.0693 181.704 32.272C182.078 32.4747 182.504 32.576 182.984 32.576C183.475 32.576 183.827 32.4907 184.04 32.32C184.264 32.1493 184.376 31.9147 184.376 31.616C184.376 31.3707 184.296 31.1787 184.136 31.04C183.987 30.8907 183.726 30.7893 183.352 30.736L182.52 30.624C181.614 30.5067 180.92 30.2507 180.44 29.856C179.971 29.4507 179.736 28.864 179.736 28.096C179.736 27.6907 179.811 27.328 179.96 27.008C180.11 26.6773 180.323 26.4 180.6 26.176C180.878 25.9413 181.208 25.7653 181.592 25.648C181.987 25.52 182.424 25.456 182.904 25.456C183.31 25.456 183.667 25.488 183.976 25.552C184.296 25.6053 184.584 25.6907 184.84 25.808C185.096 25.9147 185.331 26.0533 185.544 26.224C185.758 26.384 185.966 26.5653 186.168 26.768L184.968 27.968C184.723 27.712 184.43 27.4987 184.088 27.328C183.747 27.1573 183.374 27.072 182.968 27.072C182.52 27.072 182.195 27.152 181.992 27.312C181.8 27.472 181.704 27.68 181.704 27.936C181.704 28.2133 181.784 28.4267 181.944 28.576C182.115 28.7147 182.398 28.816 182.792 28.88L183.64 28.992C185.443 29.248 186.344 30.0693 186.344 31.456C186.344 31.8613 186.259 32.2347 186.088 32.576C185.928 32.9067 185.699 33.1947 185.4 33.44C185.102 33.6747 184.739 33.8613 184.312 34C183.896 34.128 183.427 34.192 182.904 34.192ZM191.934 25.648H193.982V27.024H194.046C194.195 26.544 194.478 26.1653 194.894 25.888C195.31 25.6 195.795 25.456 196.35 25.456C197.417 25.456 198.227 25.8347 198.782 26.592C199.347 27.3387 199.63 28.4107 199.63 29.808C199.63 31.216 199.347 32.2987 198.782 33.056C198.227 33.8133 197.417 34.192 196.35 34.192C195.795 34.192 195.31 34.048 194.894 33.76C194.489 33.472 194.206 33.088 194.046 32.608H193.982V37.2H191.934V25.648ZM195.694 32.496C196.227 32.496 196.659 32.32 196.99 31.968C197.321 31.616 197.486 31.1413 197.486 30.544V29.104C197.486 28.5067 197.321 28.032 196.99 27.68C196.659 27.3173 196.227 27.136 195.694 27.136C195.203 27.136 194.793 27.2587 194.462 27.504C194.142 27.7493 193.982 28.0747 193.982 28.48V31.136C193.982 31.5733 194.142 31.9093 194.462 32.144C194.793 32.3787 195.203 32.496 195.694 32.496ZM204.904 34.192C204.285 34.192 203.73 34.0907 203.24 33.888C202.76 33.6747 202.349 33.3813 202.008 33.008C201.677 32.624 201.421 32.1653 201.24 31.632C201.058 31.088 200.968 30.48 200.968 29.808C200.968 29.1467 201.053 28.5493 201.224 28.016C201.405 27.4827 201.661 27.0293 201.992 26.656C202.322 26.272 202.728 25.9787 203.208 25.776C203.688 25.5627 204.232 25.456 204.84 25.456C205.49 25.456 206.056 25.568 206.536 25.792C207.016 26.016 207.41 26.32 207.72 26.704C208.029 27.088 208.258 27.536 208.408 28.048C208.568 28.5493 208.648 29.088 208.648 29.664V30.336H203.096V30.544C203.096 31.152 203.266 31.6427 203.608 32.016C203.949 32.3787 204.456 32.56 205.128 32.56C205.64 32.56 206.056 32.4533 206.376 32.24C206.706 32.0267 207 31.7547 207.256 31.424L208.36 32.656C208.018 33.136 207.549 33.5147 206.952 33.792C206.365 34.0587 205.682 34.192 204.904 34.192ZM204.872 26.992C204.328 26.992 203.896 27.1733 203.576 27.536C203.256 27.8987 203.096 28.368 203.096 28.944V29.072H206.52V28.928C206.52 28.352 206.376 27.888 206.088 27.536C205.81 27.1733 205.405 26.992 204.872 26.992ZM210.45 34V25.648H212.498V27.376H212.578C212.631 27.152 212.711 26.9387 212.818 26.736C212.935 26.5227 213.084 26.336 213.266 26.176C213.447 26.016 213.66 25.888 213.906 25.792C214.162 25.696 214.455 25.648 214.786 25.648H215.234V27.584H214.594C213.9 27.584 213.378 27.6853 213.026 27.888C212.674 28.0907 212.498 28.4213 212.498 28.88V34H210.45Z" fill="black"/>
<circle cx="33" cy="65" r="16" fill="white" stroke="#1A1A1A" stroke-width="2"/>
<circle cx="33" cy="65" r="9" fill="#1A1A1A"/>
<path d="M59.488 69V57.832H66.304V59.016H60.832V62.76H65.984V63.944H60.832V67.816H66.304V69H59.488ZM68.4321 64.824V63.448H72.6081V64.824H68.4321ZM75.0788 69V60.744H76.3588V62.088H76.4228C76.5188 61.8747 76.6254 61.6773 76.7428 61.496C76.8708 61.304 77.0201 61.1387 77.1908 61C77.3721 60.8613 77.5801 60.7547 77.8148 60.68C78.0494 60.5947 78.3268 60.552 78.6468 60.552C79.1908 60.552 79.6921 60.6853 80.1508 60.952C80.6094 61.208 80.9508 61.6347 81.1748 62.232H81.2068C81.3561 61.784 81.6334 61.3947 82.0388 61.064C82.4548 60.7227 83.0148 60.552 83.7188 60.552C84.5614 60.552 85.2174 60.8293 85.6868 61.384C86.1668 61.928 86.4068 62.7013 86.4068 63.704V69H85.1268V63.928C85.1268 63.192 84.9828 62.6373 84.6948 62.264C84.4068 61.8907 83.9481 61.704 83.3188 61.704C83.0628 61.704 82.8174 61.736 82.5828 61.8C82.3588 61.864 82.1561 61.96 81.9748 62.088C81.7934 62.216 81.6494 62.3813 81.5428 62.584C81.4361 62.776 81.3828 63.0053 81.3828 63.272V69H80.1028V63.928C80.1028 63.192 79.9588 62.6373 79.6708 62.264C79.3828 61.8907 78.9348 61.704 78.3268 61.704C78.0708 61.704 77.8254 61.736 77.5908 61.8C77.3561 61.864 77.1481 61.96 76.9668 62.088C76.7854 62.216 76.6361 62.3813 76.5188 62.584C76.4121 62.776 76.3588 63.0053 76.3588 63.272V69H75.0788ZM95.0475 69C94.5675 69 94.2208 68.872 94.0075 68.616C93.8048 68.36 93.6768 68.04 93.6235 67.656H93.5435C93.3622 68.168 93.0635 68.552 92.6475 68.808C92.2315 69.064 91.7355 69.192 91.1595 69.192C90.2848 69.192 89.6022 68.968 89.1115 68.52C88.6315 68.072 88.3915 67.464 88.3915 66.696C88.3915 65.9173 88.6742 65.32 89.2395 64.904C89.8155 64.488 90.7062 64.28 91.9115 64.28H93.5435V63.464C93.5435 62.8773 93.3835 62.4293 93.0635 62.12C92.7435 61.8107 92.2528 61.656 91.5915 61.656C91.0902 61.656 90.6688 61.768 90.3275 61.992C89.9968 62.216 89.7195 62.5147 89.4955 62.888L88.7275 62.168C88.9515 61.72 89.3088 61.3413 89.7995 61.032C90.2902 60.712 90.9088 60.552 91.6555 60.552C92.6582 60.552 93.4368 60.7973 93.9915 61.288C94.5462 61.7787 94.8235 62.4613 94.8235 63.336V67.88H95.7675V69H95.0475ZM91.3675 68.104C91.6875 68.104 91.9808 68.0667 92.2475 67.992C92.5142 67.9173 92.7435 67.8107 92.9355 67.672C93.1275 67.5333 93.2768 67.3733 93.3835 67.192C93.4902 67.0107 93.5435 66.8133 93.5435 66.6V65.24H91.8475C91.1115 65.24 90.5728 65.3467 90.2315 65.56C89.9008 65.7733 89.7355 66.0827 89.7355 66.488V66.824C89.7355 67.2293 89.8795 67.544 90.1675 67.768C90.4662 67.992 90.8662 68.104 91.3675 68.104ZM98.2344 58.808C97.957 58.808 97.7544 58.744 97.6264 58.616C97.509 58.4773 97.4504 58.3013 97.4504 58.088V57.88C97.4504 57.6667 97.509 57.496 97.6264 57.368C97.7544 57.2293 97.957 57.16 98.2344 57.16C98.5117 57.16 98.709 57.2293 98.8264 57.368C98.9544 57.496 99.0184 57.6667 99.0184 57.88V58.088C99.0184 58.3013 98.9544 58.4773 98.8264 58.616C98.709 58.744 98.5117 58.808 98.2344 58.808ZM97.5944 60.744H98.8744V69H97.5944V60.744ZM102.954 69C102.506 69 102.165 68.8773 101.93 68.632C101.706 68.376 101.594 68.056 101.594 67.672V57.16H102.874V67.88H104.09V69H102.954Z" fill="#1A1A1A"/>
<rect x="31" y="90" width="4" height="104" fill="#C4C4C4"/>
<path d="M60.312 124V112.832H67.672V114.704H62.424V117.408H67.064V119.28H62.424V122.128H67.672V124H60.312ZM69.5218 120.144V118.112H74.0978V120.144H69.5218ZM76.2153 124V115.648H78.2633V117.04H78.3433C78.5033 116.603 78.7593 116.229 79.1113 115.92C79.4633 115.611 79.9539 115.456 80.5833 115.456C81.1593 115.456 81.6553 115.595 82.0713 115.872C82.4873 116.149 82.7966 116.571 82.9993 117.136H83.0312C83.1806 116.667 83.4739 116.272 83.9113 115.952C84.3593 115.621 84.9193 115.456 85.5913 115.456C86.4126 115.456 87.0419 115.739 87.4793 116.304C87.9273 116.869 88.1513 117.675 88.1513 118.72V124H86.1033V118.928C86.1033 117.733 85.6553 117.136 84.7593 117.136C84.5566 117.136 84.3593 117.168 84.1673 117.232C83.9859 117.285 83.8206 117.371 83.6713 117.488C83.5326 117.595 83.4206 117.733 83.3353 117.904C83.2499 118.064 83.2073 118.256 83.2073 118.48V124H81.1593V118.928C81.1593 117.733 80.7113 117.136 79.8153 117.136C79.6233 117.136 79.4313 117.168 79.2393 117.232C79.0579 117.285 78.8926 117.371 78.7433 117.488C78.6046 117.595 78.4873 117.733 78.3913 117.904C78.3059 118.064 78.2633 118.256 78.2633 118.48V124H76.2153ZM96.5624 124C96.1144 124 95.757 123.872 95.4904 123.616C95.2344 123.349 95.0744 122.997 95.0104 122.56H94.9144C94.7757 123.104 94.493 123.515 94.0664 123.792C93.6397 124.059 93.1117 124.192 92.4824 124.192C91.629 124.192 90.973 123.968 90.5144 123.52C90.0557 123.072 89.8264 122.475 89.8264 121.728C89.8264 120.864 90.1357 120.224 90.7544 119.808C91.373 119.381 92.253 119.168 93.3944 119.168H94.8184V118.56C94.8184 118.091 94.6957 117.728 94.4504 117.472C94.205 117.216 93.8104 117.088 93.2664 117.088C92.7864 117.088 92.397 117.195 92.0984 117.408C91.8104 117.611 91.565 117.856 91.3624 118.144L90.1464 117.056C90.4557 116.576 90.8664 116.192 91.3784 115.904C91.8904 115.605 92.5677 115.456 93.4104 115.456C94.541 115.456 95.3997 115.712 95.9864 116.224C96.573 116.736 96.8664 117.472 96.8664 118.432V122.368H97.6984V124H96.5624ZM93.1704 122.704C93.629 122.704 94.0184 122.603 94.3384 122.4C94.6584 122.197 94.8184 121.899 94.8184 121.504V120.4H93.5064C92.4397 120.4 91.9064 120.741 91.9064 121.424V121.696C91.9064 122.037 92.013 122.293 92.2264 122.464C92.4504 122.624 92.765 122.704 93.1704 122.704ZM100.38 114.432C99.9532 114.432 99.6439 114.336 99.4519 114.144C99.2705 113.952 99.1799 113.707 99.1799 113.408V113.088C99.1799 112.789 99.2705 112.544 99.4519 112.352C99.6439 112.16 99.9532 112.064 100.38 112.064C100.796 112.064 101.1 112.16 101.292 112.352C101.484 112.544 101.58 112.789 101.58 113.088V113.408C101.58 113.707 101.484 113.952 101.292 114.144C101.1 114.336 100.796 114.432 100.38 114.432ZM99.3559 115.648H101.404V124H99.3559V115.648ZM105.826 124C105.122 124 104.604 123.824 104.274 123.472C103.943 123.12 103.778 122.624 103.778 121.984V112.16H105.826V122.368H106.93V124H105.826ZM114.625 124C114.177 124 113.82 123.872 113.553 123.616C113.297 123.349 113.137 122.997 113.073 122.56H112.977C112.838 123.104 112.556 123.515 112.129 123.792C111.702 124.059 111.174 124.192 110.545 124.192C109.692 124.192 109.036 123.968 108.577 123.52C108.118 123.072 107.889 122.475 107.889 121.728C107.889 120.864 108.198 120.224 108.817 119.808C109.436 119.381 110.316 119.168 111.457 119.168H112.881V118.56C112.881 118.091 112.758 117.728 112.513 117.472C112.268 117.216 111.873 117.088 111.329 117.088C110.849 117.088 110.46 117.195 110.161 117.408C109.873 117.611 109.628 117.856 109.425 118.144L108.209 117.056C108.518 116.576 108.929 116.192 109.441 115.904C109.953 115.605 110.63 115.456 111.473 115.456C112.604 115.456 113.462 115.712 114.049 116.224C114.636 116.736 114.929 117.472 114.929 118.432V122.368H115.761V124H114.625ZM111.233 122.704C111.692 122.704 112.081 122.603 112.401 122.4C112.721 122.197 112.881 121.899 112.881 121.504V120.4H111.569C110.502 120.4 109.969 120.741 109.969 121.424V121.696C109.969 122.037 110.076 122.293 110.289 122.464C110.513 122.624 110.828 122.704 111.233 122.704ZM122.602 122.608H122.522C122.373 123.088 122.09 123.472 121.674 123.76C121.258 124.048 120.773 124.192 120.218 124.192C119.162 124.192 118.352 123.813 117.786 123.056C117.232 122.299 116.954 121.216 116.954 119.808C116.954 118.411 117.232 117.339 117.786 116.592C118.352 115.835 119.162 115.456 120.218 115.456C120.773 115.456 121.258 115.6 121.674 115.888C122.09 116.165 122.373 116.544 122.522 117.024H122.602V112.16H124.65V124H122.602V122.608ZM120.874 122.496C121.365 122.496 121.776 122.379 122.106 122.144C122.437 121.909 122.602 121.573 122.602 121.136V118.48C122.602 118.075 122.437 117.749 122.106 117.504C121.776 117.259 121.365 117.136 120.874 117.136C120.341 117.136 119.909 117.317 119.578 117.68C119.258 118.032 119.098 118.507 119.098 119.104V120.544C119.098 121.141 119.258 121.616 119.578 121.968C119.909 122.32 120.341 122.496 120.874 122.496ZM127.012 124V115.648H129.06V117.376H129.14C129.193 117.152 129.273 116.939 129.38 116.736C129.497 116.523 129.647 116.336 129.828 116.176C130.009 116.016 130.223 115.888 130.468 115.792C130.724 115.696 131.017 115.648 131.348 115.648H131.796V117.584H131.156C130.463 117.584 129.94 117.685 129.588 117.888C129.236 118.091 129.06 118.421 129.06 118.88V124H127.012ZM136.591 124.192C135.973 124.192 135.418 124.091 134.927 123.888C134.447 123.675 134.037 123.381 133.695 123.008C133.365 122.624 133.109 122.165 132.927 121.632C132.746 121.088 132.655 120.48 132.655 119.808C132.655 119.147 132.741 118.549 132.911 118.016C133.093 117.483 133.349 117.029 133.679 116.656C134.01 116.272 134.415 115.979 134.895 115.776C135.375 115.563 135.919 115.456 136.527 115.456C137.178 115.456 137.743 115.568 138.223 115.792C138.703 116.016 139.098 116.32 139.407 116.704C139.717 117.088 139.946 117.536 140.095 118.048C140.255 118.549 140.335 119.088 140.335 119.664V120.336H134.783V120.544C134.783 121.152 134.954 121.643 135.295 122.016C135.637 122.379 136.143 122.56 136.815 122.56C137.327 122.56 137.743 122.453 138.063 122.24C138.394 122.027 138.687 121.755 138.943 121.424L140.047 122.656C139.706 123.136 139.237 123.515 138.639 123.792C138.053 124.059 137.37 124.192 136.591 124.192ZM136.559 116.992C136.015 116.992 135.583 117.173 135.263 117.536C134.943 117.899 134.783 118.368 134.783 118.944V119.072H138.207V118.928C138.207 118.352 138.063 117.888 137.775 117.536C137.498 117.173 137.093 116.992 136.559 116.992ZM144.873 124.192C144.073 124.192 143.401 124.059 142.857 123.792C142.313 123.515 141.833 123.136 141.417 122.656L142.665 121.44C142.974 121.792 143.31 122.069 143.673 122.272C144.046 122.475 144.473 122.576 144.953 122.576C145.444 122.576 145.796 122.491 146.009 122.32C146.233 122.149 146.345 121.915 146.345 121.616C146.345 121.371 146.265 121.179 146.105 121.04C145.956 120.891 145.694 120.789 145.321 120.736L144.489 120.624C143.582 120.507 142.889 120.251 142.409 119.856C141.94 119.451 141.705 118.864 141.705 118.096C141.705 117.691 141.78 117.328 141.929 117.008C142.078 116.677 142.292 116.4 142.569 116.176C142.846 115.941 143.177 115.765 143.561 115.648C143.956 115.52 144.393 115.456 144.873 115.456C145.278 115.456 145.636 115.488 145.945 115.552C146.265 115.605 146.553 115.691 146.809 115.808C147.065 115.915 147.3 116.053 147.513 116.224C147.726 116.384 147.934 116.565 148.137 116.768L146.937 117.968C146.692 117.712 146.398 117.499 146.057 117.328C145.716 117.157 145.342 117.072 144.937 117.072C144.489 117.072 144.164 117.152 143.961 117.312C143.769 117.472 143.673 117.68 143.673 117.936C143.673 118.213 143.753 118.427 143.913 118.576C144.084 118.715 144.366 118.816 144.761 118.88L145.609 118.992C147.412 119.248 148.313 120.069 148.313 121.456C148.313 121.861 148.228 122.235 148.057 122.576C147.897 122.907 147.668 123.195 147.369 123.44C147.07 123.675 146.708 123.861 146.281 124C145.865 124.128 145.396 124.192 144.873 124.192ZM152.748 124.192C151.948 124.192 151.276 124.059 150.732 123.792C150.188 123.515 149.708 123.136 149.292 122.656L150.54 121.44C150.849 121.792 151.185 122.069 151.548 122.272C151.921 122.475 152.348 122.576 152.828 122.576C153.319 122.576 153.671 122.491 153.884 122.32C154.108 122.149 154.22 121.915 154.22 121.616C154.22 121.371 154.14 121.179 153.98 121.04C153.831 120.891 153.569 120.789 153.196 120.736L152.364 120.624C151.457 120.507 150.764 120.251 150.284 119.856C149.815 119.451 149.58 118.864 149.58 118.096C149.58 117.691 149.655 117.328 149.804 117.008C149.953 116.677 150.167 116.4 150.444 116.176C150.721 115.941 151.052 115.765 151.436 115.648C151.831 115.52 152.268 115.456 152.748 115.456C153.153 115.456 153.511 115.488 153.82 115.552C154.14 115.605 154.428 115.691 154.684 115.808C154.94 115.915 155.175 116.053 155.388 116.224C155.601 116.384 155.809 116.565 156.012 116.768L154.812 117.968C154.567 117.712 154.273 117.499 153.932 117.328C153.591 117.157 153.217 117.072 152.812 117.072C152.364 117.072 152.039 117.152 151.836 117.312C151.644 117.472 151.548 117.68 151.548 117.936C151.548 118.213 151.628 118.427 151.788 118.576C151.959 118.715 152.241 118.816 152.636 118.88L153.484 118.992C155.287 119.248 156.188 120.069 156.188 121.456C156.188 121.861 156.103 122.235 155.932 122.576C155.772 122.907 155.543 123.195 155.244 123.44C154.945 123.675 154.583 123.861 154.156 124C153.74 124.128 153.271 124.192 152.748 124.192ZM161.373 124.192C160.754 124.192 160.199 124.091 159.709 123.888C159.229 123.675 158.818 123.381 158.477 123.008C158.146 122.624 157.89 122.165 157.709 121.632C157.527 121.088 157.437 120.48 157.437 119.808C157.437 119.147 157.522 118.549 157.693 118.016C157.874 117.483 158.13 117.029 158.461 116.656C158.791 116.272 159.197 115.979 159.677 115.776C160.157 115.563 160.701 115.456 161.309 115.456C161.959 115.456 162.525 115.568 163.005 115.792C163.485 116.016 163.879 116.32 164.189 116.704C164.498 117.088 164.727 117.536 164.877 118.048C165.037 118.549 165.117 119.088 165.117 119.664V120.336H159.565V120.544C159.565 121.152 159.735 121.643 160.077 122.016C160.418 122.379 160.925 122.56 161.597 122.56C162.109 122.56 162.525 122.453 162.845 122.24C163.175 122.027 163.469 121.755 163.725 121.424L164.829 122.656C164.487 123.136 164.018 123.515 163.421 123.792C162.834 124.059 162.151 124.192 161.373 124.192ZM161.341 116.992C160.797 116.992 160.365 117.173 160.045 117.536C159.725 117.899 159.565 118.368 159.565 118.944V119.072H162.989V118.928C162.989 118.352 162.845 117.888 162.557 117.536C162.279 117.173 161.874 116.992 161.341 116.992Z" fill="#1A1A1A"/>
<rect x="59.5" y="138.5" width="319" height="39" rx="3.5" stroke="#747474"/>
<circle cx="33" cy="235" r="16" fill="white" stroke="#1A1A1A" stroke-width="2"/>
<path d="M63.248 229.016V239H61.904V229.016H58.352V227.832H66.8V229.016H63.248ZM70.5734 239.192C70.008 239.192 69.496 239.091 69.0374 238.888C68.5894 238.685 68.2 238.397 67.8694 238.024C67.5494 237.64 67.2987 237.187 67.1174 236.664C66.9467 236.131 66.8614 235.533 66.8614 234.872C66.8614 234.221 66.9467 233.629 67.1174 233.096C67.2987 232.563 67.5494 232.109 67.8694 231.736C68.2 231.352 68.5894 231.059 69.0374 230.856C69.496 230.653 70.008 230.552 70.5734 230.552C71.128 230.552 71.624 230.653 72.0614 230.856C72.4987 231.059 72.872 231.341 73.1814 231.704C73.4907 232.056 73.7254 232.477 73.8854 232.968C74.056 233.459 74.1414 233.997 74.1414 234.584V235.192H68.2054V235.576C68.2054 235.928 68.2587 236.259 68.3654 236.568C68.4827 236.867 68.6427 237.128 68.8454 237.352C69.0587 237.576 69.3147 237.752 69.6134 237.88C69.9227 238.008 70.2694 238.072 70.6534 238.072C71.176 238.072 71.6294 237.949 72.0134 237.704C72.408 237.459 72.712 237.107 72.9254 236.648L73.8374 237.304C73.5707 237.869 73.1547 238.328 72.5894 238.68C72.024 239.021 71.352 239.192 70.5734 239.192ZM70.5734 231.624C70.2214 231.624 69.9014 231.688 69.6134 231.816C69.3254 231.933 69.0747 232.104 68.8614 232.328C68.6587 232.552 68.4987 232.819 68.3814 233.128C68.264 233.427 68.2054 233.757 68.2054 234.12V234.232H72.7654V234.056C72.7654 233.32 72.5627 232.733 72.1574 232.296C71.7627 231.848 71.2347 231.624 70.5734 231.624ZM77.6106 239C77.1626 239 76.8213 238.877 76.5866 238.632C76.3626 238.376 76.2506 238.056 76.2506 237.672V227.16H77.5306V237.88H78.7466V239H77.6106ZM83.714 239.192C83.1487 239.192 82.6367 239.091 82.178 238.888C81.73 238.685 81.3407 238.397 81.01 238.024C80.69 237.64 80.4393 237.187 80.258 236.664C80.0873 236.131 80.002 235.533 80.002 234.872C80.002 234.221 80.0873 233.629 80.258 233.096C80.4393 232.563 80.69 232.109 81.01 231.736C81.3407 231.352 81.73 231.059 82.178 230.856C82.6367 230.653 83.1487 230.552 83.714 230.552C84.2687 230.552 84.7647 230.653 85.202 230.856C85.6393 231.059 86.0127 231.341 86.322 231.704C86.6313 232.056 86.866 232.477 87.026 232.968C87.1967 233.459 87.282 233.997 87.282 234.584V235.192H81.346V235.576C81.346 235.928 81.3993 236.259 81.506 236.568C81.6233 236.867 81.7833 237.128 81.986 237.352C82.1993 237.576 82.4553 237.752 82.754 237.88C83.0633 238.008 83.41 238.072 83.794 238.072C84.3167 238.072 84.77 237.949 85.154 237.704C85.5487 237.459 85.8527 237.107 86.066 236.648L86.978 237.304C86.7113 237.869 86.2953 238.328 85.73 238.68C85.1647 239.021 84.4927 239.192 83.714 239.192ZM83.714 231.624C83.362 231.624 83.042 231.688 82.754 231.816C82.466 231.933 82.2153 232.104 82.002 232.328C81.7993 232.552 81.6393 232.819 81.522 233.128C81.4047 233.427 81.346 233.757 81.346 234.12V234.232H85.906V234.056C85.906 233.32 85.7033 232.733 85.298 232.296C84.9033 231.848 84.3753 231.624 83.714 231.624ZM89.8393 231.864H88.4953V230.744H89.8393V229.08C89.8393 228.504 89.9886 228.04 90.2873 227.688C90.5859 227.336 91.0393 227.16 91.6473 227.16H92.8953V228.28H91.1193V230.744H92.8953V231.864H91.1193V239H89.8393V231.864ZM97.6363 239.192C97.0816 239.192 96.5749 239.091 96.1163 238.888C95.6576 238.685 95.2629 238.397 94.9323 238.024C94.6123 237.64 94.3616 237.187 94.1803 236.664C93.9989 236.131 93.9083 235.533 93.9083 234.872C93.9083 234.221 93.9989 233.629 94.1803 233.096C94.3616 232.563 94.6123 232.109 94.9323 231.736C95.2629 231.352 95.6576 231.059 96.1163 230.856C96.5749 230.653 97.0816 230.552 97.6363 230.552C98.1909 230.552 98.6923 230.653 99.1403 230.856C99.5989 231.059 99.9936 231.352 100.324 231.736C100.655 232.109 100.911 232.563 101.092 233.096C101.274 233.629 101.364 234.221 101.364 234.872C101.364 235.533 101.274 236.131 101.092 236.664C100.911 237.187 100.655 237.64 100.324 238.024C99.9936 238.397 99.5989 238.685 99.1403 238.888C98.6923 239.091 98.1909 239.192 97.6363 239.192ZM97.6363 238.056C98.3296 238.056 98.8949 237.843 99.3323 237.416C99.7696 236.989 99.9883 236.339 99.9883 235.464V234.28C99.9883 233.405 99.7696 232.755 99.3323 232.328C98.8949 231.901 98.3296 231.688 97.6363 231.688C96.9429 231.688 96.3776 231.901 95.9403 232.328C95.5029 232.755 95.2843 233.405 95.2843 234.28V235.464C95.2843 236.339 95.5029 236.989 95.9403 237.416C96.3776 237.843 96.9429 238.056 97.6363 238.056ZM103.469 239V230.744H104.749V232.088H104.813C105.016 231.619 105.299 231.245 105.661 230.968C106.035 230.691 106.531 230.552 107.149 230.552C108.003 230.552 108.675 230.829 109.165 231.384C109.667 231.928 109.917 232.701 109.917 233.704V239H108.637V233.928C108.637 232.445 108.013 231.704 106.765 231.704C106.509 231.704 106.259 231.736 106.013 231.8C105.779 231.864 105.565 231.96 105.373 232.088C105.181 232.216 105.027 232.381 104.909 232.584C104.803 232.776 104.749 233.005 104.749 233.272V239H103.469Z" fill="#1A1A1A"/>
<circle cx="33" cy="277" r="16" fill="white" stroke="#1A1A1A" stroke-width="2"/>
<path d="M59.488 269.832H64.08C65.008 269.832 65.7333 270.093 66.256 270.616C66.7893 271.139 67.056 271.837 67.056 272.712C67.056 273.128 66.9973 273.48 66.88 273.768C66.7627 274.056 66.6133 274.296 66.432 274.488C66.2507 274.669 66.0533 274.808 65.84 274.904C65.6267 274.989 65.4293 275.048 65.248 275.08V275.176C65.4507 275.187 65.6747 275.24 65.92 275.336C66.176 275.432 66.416 275.587 66.64 275.8C66.864 276.003 67.0507 276.269 67.2 276.6C67.36 276.92 67.44 277.309 67.44 277.768C67.44 278.227 67.3653 278.653 67.216 279.048C67.0773 279.443 66.88 279.784 66.624 280.072C66.368 280.36 66.064 280.589 65.712 280.76C65.36 280.92 64.976 281 64.56 281H59.488V269.832ZM60.832 279.816H64.144C64.72 279.816 65.1733 279.672 65.504 279.384C65.8347 279.085 66 278.653 66 278.088V277.544C66 276.979 65.8347 276.552 65.504 276.264C65.1733 275.965 64.72 275.816 64.144 275.816H60.832V279.816ZM60.832 274.664H63.92C64.4533 274.664 64.8693 274.531 65.168 274.264C65.4667 273.997 65.616 273.613 65.616 273.112V272.568C65.616 272.067 65.4667 271.683 65.168 271.416C64.8693 271.149 64.4533 271.016 63.92 271.016H60.832V274.664ZM69.8131 281V272.744H71.0931V274.264H71.1731C71.3225 273.869 71.5891 273.517 71.9731 273.208C72.3571 272.899 72.8851 272.744 73.5571 272.744H74.0531V274.024H73.3011C72.6078 274.024 72.0638 274.157 71.6691 274.424C71.2851 274.68 71.0931 275.005 71.0931 275.4V281H69.8131ZM78.714 281.192C78.1487 281.192 77.6367 281.091 77.178 280.888C76.73 280.685 76.3407 280.397 76.01 280.024C75.69 279.64 75.4393 279.187 75.258 278.664C75.0873 278.131 75.002 277.533 75.002 276.872C75.002 276.221 75.0873 275.629 75.258 275.096C75.4393 274.563 75.69 274.109 76.01 273.736C76.3407 273.352 76.73 273.059 77.178 272.856C77.6367 272.653 78.1487 272.552 78.714 272.552C79.2687 272.552 79.7647 272.653 80.202 272.856C80.6393 273.059 81.0127 273.341 81.322 273.704C81.6313 274.056 81.866 274.477 82.026 274.968C82.1967 275.459 82.282 275.997 82.282 276.584V277.192H76.346V277.576C76.346 277.928 76.3993 278.259 76.506 278.568C76.6233 278.867 76.7833 279.128 76.986 279.352C77.1993 279.576 77.4553 279.752 77.754 279.88C78.0633 280.008 78.41 280.072 78.794 280.072C79.3167 280.072 79.77 279.949 80.154 279.704C80.5487 279.459 80.8527 279.107 81.066 278.648L81.978 279.304C81.7113 279.869 81.2953 280.328 80.73 280.68C80.1647 281.021 79.4927 281.192 78.714 281.192ZM78.714 273.624C78.362 273.624 78.042 273.688 77.754 273.816C77.466 273.933 77.2153 274.104 77.002 274.328C76.7993 274.552 76.6393 274.819 76.522 275.128C76.4047 275.427 76.346 275.757 76.346 276.12V276.232H80.906V276.056C80.906 275.32 80.7033 274.733 80.298 274.296C79.9033 273.848 79.3753 273.624 78.714 273.624ZM86.0903 281L83.1943 272.744H84.4743L85.9143 276.84L86.8103 279.656H86.8903L87.7863 276.84L89.2583 272.744H90.4903L87.5783 281H86.0903Z" fill="#1A1A1A"/>
</svg>
