<svg width="418" height="274" viewBox="0 0 418 274" fill="none" xmlns="http://www.w3.org/2000/svg">
<g clip-path="url(#clip0_5010_49171)">
<rect width="418" height="274" fill="white"/>
<path d="M248.5 20C248.5 18.067 250.067 16.5 252 16.5H366.5V55.5H252C250.067 55.5 248.5 53.933 248.5 52V20Z" stroke="#747474"/>
<path d="M343.5 16.5H398C399.933 16.5 401.5 18.067 401.5 20V52C401.5 53.933 399.933 55.5 398 55.5H343.5V16.5Z" fill="white"/>
<path d="M363.624 42.192C362.717 42.192 361.944 42.0213 361.304 41.68C360.664 41.328 360.12 40.848 359.672 40.24L360.664 39.408C361.059 39.9307 361.496 40.3307 361.976 40.608C362.456 40.8747 363.021 41.008 363.672 41.008C364.472 41.008 365.08 40.816 365.496 40.432C365.923 40.048 366.136 39.536 366.136 38.896C366.136 38.3627 365.976 37.952 365.656 37.664C365.336 37.376 364.808 37.1467 364.072 36.976L363.16 36.768C362.136 36.5333 361.352 36.1813 360.808 35.712C360.275 35.232 360.008 34.56 360.008 33.696C360.008 33.2053 360.099 32.768 360.28 32.384C360.461 32 360.712 31.68 361.032 31.424C361.363 31.168 361.752 30.976 362.2 30.848C362.659 30.7093 363.16 30.64 363.704 30.64C364.547 30.64 365.267 30.7947 365.864 31.104C366.472 31.4133 366.984 31.8667 367.4 32.464L366.392 33.2C366.083 32.7733 365.709 32.4373 365.272 32.192C364.835 31.9467 364.291 31.824 363.64 31.824C362.925 31.824 362.36 31.9787 361.944 32.288C361.539 32.5867 361.336 33.04 361.336 33.648C361.336 34.1813 361.507 34.5867 361.848 34.864C362.2 35.1307 362.728 35.344 363.432 35.504L364.344 35.712C365.443 35.9573 366.237 36.3307 366.728 36.832C367.219 37.3333 367.464 38 367.464 38.832C367.464 39.344 367.373 39.808 367.192 40.224C367.021 40.64 366.771 40.992 366.44 41.28C366.109 41.568 365.704 41.792 365.224 41.952C364.755 42.112 364.221 42.192 363.624 42.192ZM368.857 42.096L369.929 40.752C369.385 39.9947 369.113 39.0347 369.113 37.872C369.113 37.2213 369.204 36.6293 369.385 36.096C369.566 35.5627 369.817 35.1093 370.137 34.736C370.468 34.352 370.862 34.0587 371.321 33.856C371.78 33.6533 372.286 33.552 372.841 33.552C373.289 33.552 373.7 33.6213 374.073 33.76C374.457 33.8987 374.804 34.0907 375.113 34.336L376.105 33.104L376.825 33.648L375.753 35.008C376.009 35.3707 376.206 35.7973 376.345 36.288C376.494 36.768 376.569 37.296 376.569 37.872C376.569 38.5333 376.478 39.1307 376.297 39.664C376.116 40.1867 375.86 40.64 375.529 41.024C375.198 41.3973 374.804 41.6853 374.345 41.888C373.897 42.0907 373.396 42.192 372.841 42.192C371.956 42.192 371.198 41.936 370.569 41.424L369.577 42.64L368.857 42.096ZM372.841 41.056C373.534 41.056 374.1 40.8427 374.537 40.416C374.974 39.9893 375.193 39.3387 375.193 38.464V37.28C375.193 37.024 375.172 36.7893 375.129 36.576C375.086 36.3627 375.028 36.1653 374.953 35.984L371.273 40.528C371.668 40.88 372.19 41.056 372.841 41.056ZM370.489 38.464C370.489 38.976 370.569 39.4133 370.729 39.776L374.409 35.216C373.993 34.864 373.47 34.688 372.841 34.688C372.148 34.688 371.582 34.9013 371.145 35.328C370.708 35.7547 370.489 36.4053 370.489 37.28V38.464ZM385.711 42.912C385.711 43.7653 385.375 44.3893 384.703 44.784C384.041 45.1893 383.044 45.392 381.711 45.392C380.42 45.392 379.492 45.216 378.927 44.864C378.361 44.512 378.079 44.0107 378.079 43.36C378.079 42.912 378.196 42.56 378.431 42.304C378.665 42.0587 378.985 41.8773 379.391 41.76V41.584C378.9 41.3493 378.655 40.9653 378.655 40.432C378.655 40.016 378.788 39.7013 379.055 39.488C379.321 39.264 379.663 39.0987 380.079 38.992V38.928C379.588 38.6933 379.204 38.3573 378.927 37.92C378.66 37.4827 378.527 36.976 378.527 36.4C378.527 35.984 378.601 35.6 378.751 35.248C378.9 34.896 379.108 34.5973 379.375 34.352C379.652 34.096 379.977 33.8987 380.351 33.76C380.735 33.6213 381.161 33.552 381.631 33.552C382.217 33.552 382.74 33.6587 383.199 33.872V33.728C383.199 33.408 383.273 33.1467 383.423 32.944C383.572 32.7307 383.817 32.624 384.159 32.624H385.391V33.744H383.823V34.272C384.121 34.528 384.351 34.8373 384.511 35.2C384.681 35.552 384.767 35.952 384.767 36.4C384.767 36.816 384.692 37.2 384.543 37.552C384.393 37.904 384.18 38.208 383.903 38.464C383.636 38.7093 383.311 38.9013 382.927 39.04C382.543 39.1787 382.116 39.248 381.647 39.248C381.38 39.248 381.113 39.2213 380.847 39.168C380.569 39.2427 380.319 39.3547 380.095 39.504C379.871 39.6427 379.759 39.84 379.759 40.096C379.759 40.3413 379.876 40.5067 380.111 40.592C380.345 40.6773 380.649 40.72 381.023 40.72H382.783C383.807 40.72 384.548 40.9173 385.007 41.312C385.476 41.696 385.711 42.2293 385.711 42.912ZM384.511 43.008C384.511 42.6773 384.383 42.4107 384.127 42.208C383.881 42.016 383.439 41.92 382.799 41.92H380.047C379.535 42.1547 379.279 42.528 379.279 43.04C379.279 43.4027 379.412 43.712 379.679 43.968C379.956 44.224 380.42 44.352 381.071 44.352H382.255C382.969 44.352 383.524 44.24 383.919 44.016C384.313 43.792 384.511 43.456 384.511 43.008ZM381.647 38.224C382.191 38.224 382.623 38.096 382.943 37.84C383.263 37.5733 383.423 37.168 383.423 36.624V36.176C383.423 35.632 383.263 35.232 382.943 34.976C382.623 34.7093 382.191 34.576 381.647 34.576C381.103 34.576 380.671 34.7093 380.351 34.976C380.031 35.232 379.871 35.632 379.871 36.176V36.624C379.871 37.168 380.031 37.5733 380.351 37.84C380.671 38.096 381.103 38.224 381.647 38.224Z" fill="#1A1A1A"/>
<path d="M343.5 16.5H398C399.933 16.5 401.5 18.067 401.5 20V52C401.5 53.933 399.933 55.5 398 55.5H343.5V16.5Z" stroke="#747474"/>
<rect width="185" height="80" transform="translate(-68 88)" fill="#DCDCDC"/>
<rect width="269" height="80" transform="translate(133 88)" fill="#DCDCDC"/>
<rect width="462" height="20" transform="translate(-60 202)" fill="#DCDCDC"/>
<rect width="462" height="20" transform="translate(-60 226)" fill="#DCDCDC"/>
<rect width="345" height="20" transform="translate(-60 250)" fill="#DCDCDC"/>
<rect width="141" height="12" transform="translate(-60 186)" fill="#DCDCDC"/>
</g>
<defs>
<clipPath id="clip0_5010_49171">
<rect width="418" height="274" fill="white"/>
</clipPath>
</defs>
</svg>
