<svg width="418" height="395" viewBox="0 0 418 395" fill="none" xmlns="http://www.w3.org/2000/svg">
<g clip-path="url(#clip0_5010_49179)">
<rect width="418" height="395" fill="white"/>
<rect width="185" height="183" transform="translate(-68 88)" fill="#DCDCDC"/>
<rect width="269" height="183" transform="translate(133 88)" fill="#DCDCDC"/>
<rect width="462" height="20" transform="translate(-60 311)" fill="#DCDCDC"/>
<rect width="462" height="20" transform="translate(-60 335)" fill="#DCDCDC"/>
<rect width="345" height="20" transform="translate(-60 359)" fill="#DCDCDC"/>
<rect width="141" height="12" transform="translate(-60 295)" fill="#DCDCDC"/>
<path d="M345.5 16.5H395C396.933 16.5 398.5 18.067 398.5 20V52C398.5 53.933 396.933 55.5 395 55.5H345.5V16.5Z" fill="white"/>
<path d="M379.001 44.4897L374.001 39.4997V38.7097L373.731 38.4297C372.453 39.5261 370.801 40.0849 369.12 39.9888C367.439 39.8928 365.861 39.1493 364.717 37.9145C363.573 36.6798 362.952 35.0497 362.984 33.3666C363.016 31.6835 363.699 30.0782 364.889 28.8879C366.079 27.6975 367.684 27.0147 369.368 26.9826C371.051 26.9506 372.681 27.5719 373.916 28.7161C375.15 29.8603 375.894 31.4384 375.99 33.1191C376.086 34.7997 375.527 36.4523 374.431 37.7297L374.711 37.9997H375.501L380.491 42.9997L379.001 44.4887V44.4897ZM369.501 28.9997C368.611 28.9997 367.741 29.2636 367.001 29.7581C366.261 30.2525 365.684 30.9553 365.343 31.7776C365.003 32.5999 364.913 33.5047 365.087 34.3776C365.261 35.2505 365.689 36.0523 366.319 36.6817C366.948 37.311 367.75 37.7396 368.623 37.9132C369.496 38.0868 370.4 37.9977 371.223 37.6571C372.045 37.3165 372.748 36.7398 373.242 35.9997C373.737 35.2597 374.001 34.3897 374.001 33.4997C373.999 32.3066 373.525 31.1628 372.681 30.3192C371.838 29.4755 370.694 29.001 369.501 28.9997Z" fill="#1A1A1A"/>
<path d="M345.5 16.5H395C396.933 16.5 398.5 18.067 398.5 20V52C398.5 53.933 396.933 55.5 395 55.5H345.5V16.5Z" stroke="#747474"/>
<path d="M73.624 42.192C72.7173 42.192 71.944 42.0213 71.304 41.68C70.664 41.328 70.12 40.848 69.672 40.24L70.664 39.408C71.0587 39.9307 71.496 40.3307 71.976 40.608C72.456 40.8747 73.0213 41.008 73.672 41.008C74.472 41.008 75.08 40.816 75.496 40.432C75.9227 40.048 76.136 39.536 76.136 38.896C76.136 38.3627 75.976 37.952 75.656 37.664C75.336 37.376 74.808 37.1467 74.072 36.976L73.16 36.768C72.136 36.5333 71.352 36.1813 70.808 35.712C70.2747 35.232 70.008 34.56 70.008 33.696C70.008 33.2053 70.0987 32.768 70.28 32.384C70.4613 32 70.712 31.68 71.032 31.424C71.3627 31.168 71.752 30.976 72.2 30.848C72.6587 30.7093 73.16 30.64 73.704 30.64C74.5467 30.64 75.2667 30.7947 75.864 31.104C76.472 31.4133 76.984 31.8667 77.4 32.464L76.392 33.2C76.0827 32.7733 75.7093 32.4373 75.272 32.192C74.8347 31.9467 74.2907 31.824 73.64 31.824C72.9253 31.824 72.36 31.9787 71.944 32.288C71.5387 32.5867 71.336 33.04 71.336 33.648C71.336 34.1813 71.5067 34.5867 71.848 34.864C72.2 35.1307 72.728 35.344 73.432 35.504L74.344 35.712C75.4427 35.9573 76.2373 36.3307 76.728 36.832C77.2187 37.3333 77.464 38 77.464 38.832C77.464 39.344 77.3733 39.808 77.192 40.224C77.0213 40.64 76.7707 40.992 76.44 41.28C76.1093 41.568 75.704 41.792 75.224 41.952C74.7547 42.112 74.2213 42.192 73.624 42.192ZM78.8569 42.096L79.9289 40.752C79.3849 39.9947 79.1129 39.0347 79.1129 37.872C79.1129 37.2213 79.2035 36.6293 79.3849 36.096C79.5662 35.5627 79.8169 35.1093 80.1369 34.736C80.4675 34.352 80.8622 34.0587 81.3209 33.856C81.7795 33.6533 82.2862 33.552 82.8409 33.552C83.2889 33.552 83.6995 33.6213 84.0729 33.76C84.4569 33.8987 84.8035 34.0907 85.1129 34.336L86.1049 33.104L86.8249 33.648L85.7529 35.008C86.0089 35.3707 86.2062 35.7973 86.3449 36.288C86.4942 36.768 86.5689 37.296 86.5689 37.872C86.5689 38.5333 86.4782 39.1307 86.2969 39.664C86.1155 40.1867 85.8595 40.64 85.5289 41.024C85.1982 41.3973 84.8035 41.6853 84.3449 41.888C83.8969 42.0907 83.3955 42.192 82.8409 42.192C81.9555 42.192 81.1982 41.936 80.5689 41.424L79.5769 42.64L78.8569 42.096ZM82.8409 41.056C83.5342 41.056 84.0995 40.8427 84.5369 40.416C84.9742 39.9893 85.1929 39.3387 85.1929 38.464V37.28C85.1929 37.024 85.1715 36.7893 85.1289 36.576C85.0862 36.3627 85.0275 36.1653 84.9529 35.984L81.2729 40.528C81.6675 40.88 82.1902 41.056 82.8409 41.056ZM80.4889 38.464C80.4889 38.976 80.5689 39.4133 80.7289 39.776L84.4089 35.216C83.9929 34.864 83.4702 34.688 82.8409 34.688C82.1475 34.688 81.5822 34.9013 81.1449 35.328C80.7075 35.7547 80.4889 36.4053 80.4889 37.28V38.464ZM95.7106 42.912C95.7106 43.7653 95.3746 44.3893 94.7026 44.784C94.0413 45.1893 93.044 45.392 91.7106 45.392C90.42 45.392 89.492 45.216 88.9266 44.864C88.3613 44.512 88.0786 44.0107 88.0786 43.36C88.0786 42.912 88.196 42.56 88.4306 42.304C88.6653 42.0587 88.9853 41.8773 89.3906 41.76V41.584C88.9 41.3493 88.6546 40.9653 88.6546 40.432C88.6546 40.016 88.788 39.7013 89.0546 39.488C89.3213 39.264 89.6626 39.0987 90.0786 38.992V38.928C89.588 38.6933 89.204 38.3573 88.9266 37.92C88.66 37.4827 88.5266 36.976 88.5266 36.4C88.5266 35.984 88.6013 35.6 88.7506 35.248C88.9 34.896 89.108 34.5973 89.3746 34.352C89.652 34.096 89.9773 33.8987 90.3506 33.76C90.7346 33.6213 91.1613 33.552 91.6306 33.552C92.2173 33.552 92.74 33.6587 93.1986 33.872V33.728C93.1986 33.408 93.2733 33.1467 93.4226 32.944C93.572 32.7307 93.8173 32.624 94.1586 32.624H95.3906V33.744H93.8226V34.272C94.1213 34.528 94.3506 34.8373 94.5106 35.2C94.6813 35.552 94.7666 35.952 94.7666 36.4C94.7666 36.816 94.692 37.2 94.5426 37.552C94.3933 37.904 94.18 38.208 93.9026 38.464C93.636 38.7093 93.3106 38.9013 92.9266 39.04C92.5426 39.1787 92.116 39.248 91.6466 39.248C91.38 39.248 91.1133 39.2213 90.8466 39.168C90.5693 39.2427 90.3186 39.3547 90.0946 39.504C89.8706 39.6427 89.7586 39.84 89.7586 40.096C89.7586 40.3413 89.876 40.5067 90.1106 40.592C90.3453 40.6773 90.6493 40.72 91.0226 40.72H92.7826C93.8066 40.72 94.548 40.9173 95.0066 41.312C95.476 41.696 95.7106 42.2293 95.7106 42.912ZM94.5106 43.008C94.5106 42.6773 94.3826 42.4107 94.1266 42.208C93.8813 42.016 93.4386 41.92 92.7986 41.92H90.0466C89.5346 42.1547 89.2786 42.528 89.2786 43.04C89.2786 43.4027 89.412 43.712 89.6786 43.968C89.956 44.224 90.42 44.352 91.0706 44.352H92.2546C92.9693 44.352 93.524 44.24 93.9186 44.016C94.3133 43.792 94.5106 43.456 94.5106 43.008ZM91.6466 38.224C92.1906 38.224 92.6226 38.096 92.9426 37.84C93.2626 37.5733 93.4226 37.168 93.4226 36.624V36.176C93.4226 35.632 93.2626 35.232 92.9426 34.976C92.6226 34.7093 92.1906 34.576 91.6466 34.576C91.1026 34.576 90.6706 34.7093 90.3506 34.976C90.0306 35.232 89.8706 35.632 89.8706 36.176V36.624C89.8706 37.168 90.0306 37.5733 90.3506 37.84C90.6706 38.096 91.1026 38.224 91.6466 38.224ZM100.985 33.744H102.265V35.088H102.329C102.542 34.5653 102.852 34.1813 103.257 33.936C103.673 33.68 104.169 33.552 104.745 33.552C105.257 33.552 105.721 33.6533 106.137 33.856C106.553 34.0587 106.905 34.3467 107.193 34.72C107.492 35.0933 107.716 35.5467 107.865 36.08C108.025 36.6133 108.105 37.2107 108.105 37.872C108.105 38.5333 108.025 39.1307 107.865 39.664C107.716 40.1973 107.492 40.6507 107.193 41.024C106.905 41.3973 106.553 41.6853 106.137 41.888C105.721 42.0907 105.257 42.192 104.745 42.192C103.625 42.192 102.82 41.68 102.329 40.656H102.265V45.2H100.985V33.744ZM104.393 41.04C105.118 41.04 105.689 40.816 106.105 40.368C106.521 39.9093 106.729 39.312 106.729 38.576V37.168C106.729 36.432 106.521 35.84 106.105 35.392C105.689 34.9333 105.118 34.704 104.393 34.704C104.105 34.704 103.828 34.7467 103.561 34.832C103.305 34.9067 103.081 35.0133 102.889 35.152C102.697 35.2907 102.542 35.4613 102.425 35.664C102.318 35.856 102.265 36.064 102.265 36.288V39.36C102.265 39.6267 102.318 39.8667 102.425 40.08C102.542 40.2827 102.697 40.4587 102.889 40.608C103.081 40.7467 103.305 40.8533 103.561 40.928C103.828 41.0027 104.105 41.04 104.393 41.04ZM116.266 42C115.786 42 115.44 41.872 115.226 41.616C115.024 41.36 114.896 41.04 114.842 40.656H114.762C114.581 41.168 114.282 41.552 113.866 41.808C113.45 42.064 112.954 42.192 112.378 42.192C111.504 42.192 110.821 41.968 110.33 41.52C109.85 41.072 109.61 40.464 109.61 39.696C109.61 38.9173 109.893 38.32 110.458 37.904C111.034 37.488 111.925 37.28 113.13 37.28H114.762V36.464C114.762 35.8773 114.602 35.4293 114.282 35.12C113.962 34.8107 113.472 34.656 112.81 34.656C112.309 34.656 111.888 34.768 111.546 34.992C111.216 35.216 110.938 35.5147 110.714 35.888L109.946 35.168C110.17 34.72 110.528 34.3413 111.018 34.032C111.509 33.712 112.128 33.552 112.874 33.552C113.877 33.552 114.656 33.7973 115.21 34.288C115.765 34.7787 116.042 35.4613 116.042 36.336V40.88H116.986V42H116.266ZM112.586 41.104C112.906 41.104 113.2 41.0667 113.466 40.992C113.733 40.9173 113.962 40.8107 114.154 40.672C114.346 40.5333 114.496 40.3733 114.602 40.192C114.709 40.0107 114.762 39.8133 114.762 39.6V38.24H113.066C112.33 38.24 111.792 38.3467 111.45 38.56C111.12 38.7733 110.954 39.0827 110.954 39.488V39.824C110.954 40.2293 111.098 40.544 111.386 40.768C111.685 40.992 112.085 41.104 112.586 41.104ZM112.954 32.784C112.698 32.784 112.453 32.7413 112.218 32.656C111.994 32.56 111.797 32.432 111.626 32.272C111.466 32.1013 111.338 31.904 111.242 31.68C111.146 31.456 111.098 31.2107 111.098 30.944C111.098 30.6773 111.146 30.432 111.242 30.208C111.338 29.984 111.466 29.792 111.626 29.632C111.797 29.4613 111.994 29.3333 112.218 29.248C112.453 29.152 112.698 29.104 112.954 29.104C113.21 29.104 113.45 29.152 113.674 29.248C113.909 29.3333 114.106 29.4613 114.266 29.632C114.437 29.792 114.57 29.984 114.666 30.208C114.762 30.432 114.81 30.6773 114.81 30.944C114.81 31.2107 114.762 31.456 114.666 31.68C114.57 31.904 114.437 32.1013 114.266 32.272C114.106 32.432 113.909 32.56 113.674 32.656C113.45 32.7413 113.21 32.784 112.954 32.784ZM112.954 32C113.242 32 113.466 31.9253 113.626 31.776C113.797 31.616 113.882 31.3973 113.882 31.12V30.768C113.882 30.4907 113.797 30.2773 113.626 30.128C113.466 29.968 113.242 29.888 112.954 29.888C112.666 29.888 112.437 29.968 112.266 30.128C112.106 30.2773 112.026 30.4907 112.026 30.768V31.12C112.026 31.3973 112.106 31.616 112.266 31.776C112.437 31.9253 112.666 32 112.954 32ZM121.73 33.744H122.978L123.858 37.312L124.738 40.928H124.77L125.778 37.312L126.818 33.744H127.954L129.026 37.312L130.05 40.928H130.082L130.93 37.312L131.826 33.744H133.026L130.834 42H129.25L128.098 38.032L127.378 35.52H127.346L126.642 38.032L125.49 42H123.938L121.73 33.744ZM137.902 42.192C137.336 42.192 136.824 42.0907 136.366 41.888C135.918 41.6853 135.528 41.3973 135.198 41.024C134.878 40.64 134.627 40.1867 134.446 39.664C134.275 39.1307 134.19 38.5333 134.19 37.872C134.19 37.2213 134.275 36.6293 134.446 36.096C134.627 35.5627 134.878 35.1093 135.198 34.736C135.528 34.352 135.918 34.0587 136.366 33.856C136.824 33.6533 137.336 33.552 137.902 33.552C138.456 33.552 138.952 33.6533 139.39 33.856C139.827 34.0587 140.2 34.3413 140.51 34.704C140.819 35.056 141.054 35.4773 141.214 35.968C141.384 36.4587 141.47 36.9973 141.47 37.584V38.192H135.534V38.576C135.534 38.928 135.587 39.2587 135.694 39.568C135.811 39.8667 135.971 40.128 136.174 40.352C136.387 40.576 136.643 40.752 136.942 40.88C137.251 41.008 137.598 41.072 137.982 41.072C138.504 41.072 138.958 40.9493 139.342 40.704C139.736 40.4587 140.04 40.1067 140.254 39.648L141.166 40.304C140.899 40.8693 140.483 41.328 139.918 41.68C139.352 42.0213 138.68 42.192 137.902 42.192ZM137.902 34.624C137.55 34.624 137.23 34.688 136.942 34.816C136.654 34.9333 136.403 35.104 136.19 35.328C135.987 35.552 135.827 35.8187 135.71 36.128C135.592 36.4267 135.534 36.7573 135.534 37.12V37.232H140.094V37.056C140.094 36.32 139.891 35.7333 139.486 35.296C139.091 34.848 138.563 34.624 137.902 34.624ZM143.579 30.16H144.859V35.088H144.923C145.136 34.5653 145.445 34.1813 145.851 33.936C146.267 33.68 146.763 33.552 147.339 33.552C147.851 33.552 148.315 33.6533 148.731 33.856C149.147 34.0587 149.499 34.3467 149.787 34.72C150.085 35.0933 150.309 35.5467 150.459 36.08C150.619 36.6133 150.699 37.2107 150.699 37.872C150.699 38.5333 150.619 39.1307 150.459 39.664C150.309 40.1973 150.085 40.6507 149.787 41.024C149.499 41.3973 149.147 41.6853 148.731 41.888C148.315 42.0907 147.851 42.192 147.339 42.192C146.219 42.192 145.413 41.68 144.923 40.656H144.859V42H143.579V30.16ZM146.987 41.04C147.712 41.04 148.283 40.816 148.699 40.368C149.115 39.9093 149.323 39.312 149.323 38.576V37.168C149.323 36.432 149.115 35.84 148.699 35.392C148.283 34.9333 147.712 34.704 146.987 34.704C146.699 34.704 146.421 34.7467 146.155 34.832C145.899 34.9067 145.675 35.0133 145.483 35.152C145.291 35.2907 145.136 35.4613 145.019 35.664C144.912 35.856 144.859 36.064 144.859 36.288V39.36C144.859 39.6267 144.912 39.8667 145.019 40.08C145.136 40.2827 145.291 40.4587 145.483 40.608C145.675 40.7467 145.899 40.8533 146.155 40.928C146.421 41.0027 146.699 41.04 146.987 41.04ZM155.34 42.192C154.572 42.192 153.927 42.048 153.404 41.76C152.892 41.4613 152.449 41.0667 152.076 40.576L152.988 39.84C153.308 40.2453 153.665 40.56 154.06 40.784C154.455 40.9973 154.913 41.104 155.436 41.104C155.98 41.104 156.401 40.9867 156.7 40.752C157.009 40.5173 157.164 40.1867 157.164 39.76C157.164 39.44 157.057 39.168 156.844 38.944C156.641 38.7093 156.268 38.5493 155.724 38.464L155.068 38.368C154.684 38.3147 154.332 38.2347 154.012 38.128C153.692 38.0107 153.409 37.8613 153.164 37.68C152.929 37.488 152.743 37.2533 152.604 36.976C152.476 36.6987 152.412 36.368 152.412 35.984C152.412 35.5787 152.487 35.2267 152.636 34.928C152.785 34.6187 152.988 34.3627 153.244 34.16C153.511 33.9573 153.825 33.808 154.188 33.712C154.551 33.6053 154.94 33.552 155.356 33.552C156.028 33.552 156.588 33.6693 157.036 33.904C157.495 34.1387 157.895 34.464 158.236 34.88L157.388 35.648C157.207 35.392 156.94 35.1627 156.588 34.96C156.236 34.7467 155.793 34.64 155.26 34.64C154.727 34.64 154.321 34.7573 154.044 34.992C153.777 35.216 153.644 35.5253 153.644 35.92C153.644 36.3253 153.777 36.6187 154.044 36.8C154.321 36.9813 154.716 37.1147 155.228 37.2L155.868 37.296C156.785 37.4347 157.436 37.7013 157.82 38.096C158.204 38.48 158.396 38.9867 158.396 39.616C158.396 40.416 158.124 41.0453 157.58 41.504C157.036 41.9627 156.289 42.192 155.34 42.192ZM161.297 31.808C161.02 31.808 160.817 31.744 160.689 31.616C160.572 31.4773 160.513 31.3013 160.513 31.088V30.88C160.513 30.6667 160.572 30.496 160.689 30.368C160.817 30.2293 161.02 30.16 161.297 30.16C161.574 30.16 161.772 30.2293 161.889 30.368C162.017 30.496 162.081 30.6667 162.081 30.88V31.088C162.081 31.3013 162.017 31.4773 161.889 31.616C161.772 31.744 161.574 31.808 161.297 31.808ZM160.657 33.744H161.937V42H160.657V33.744ZM166.481 42C166.033 42 165.692 41.8773 165.457 41.632C165.233 41.376 165.121 41.0453 165.121 40.64V34.864H163.761V33.744H164.529C164.806 33.744 164.993 33.6907 165.089 33.584C165.196 33.4667 165.249 33.2693 165.249 32.992V31.456H166.401V33.744H168.209V34.864H166.401V40.88H168.081V42H166.481ZM173.308 42.192C172.742 42.192 172.23 42.0907 171.772 41.888C171.324 41.6853 170.934 41.3973 170.604 41.024C170.284 40.64 170.033 40.1867 169.852 39.664C169.681 39.1307 169.596 38.5333 169.596 37.872C169.596 37.2213 169.681 36.6293 169.852 36.096C170.033 35.5627 170.284 35.1093 170.604 34.736C170.934 34.352 171.324 34.0587 171.772 33.856C172.23 33.6533 172.742 33.552 173.308 33.552C173.862 33.552 174.358 33.6533 174.796 33.856C175.233 34.0587 175.606 34.3413 175.916 34.704C176.225 35.056 176.46 35.4773 176.62 35.968C176.79 36.4587 176.876 36.9973 176.876 37.584V38.192H170.94V38.576C170.94 38.928 170.993 39.2587 171.1 39.568C171.217 39.8667 171.377 40.128 171.58 40.352C171.793 40.576 172.049 40.752 172.348 40.88C172.657 41.008 173.004 41.072 173.388 41.072C173.91 41.072 174.364 40.9493 174.748 40.704C175.142 40.4587 175.446 40.1067 175.66 39.648L176.572 40.304C176.305 40.8693 175.889 41.328 175.324 41.68C174.758 42.0213 174.086 42.192 173.308 42.192ZM173.308 34.624C172.956 34.624 172.636 34.688 172.348 34.816C172.06 34.9333 171.809 35.104 171.596 35.328C171.393 35.552 171.233 35.8187 171.116 36.128C170.998 36.4267 170.94 36.7573 170.94 37.12V37.232H175.5V37.056C175.5 36.32 175.297 35.7333 174.892 35.296C174.497 34.848 173.969 34.624 173.308 34.624ZM180.809 42C180.361 42 180.02 41.8773 179.785 41.632C179.561 41.376 179.449 41.0453 179.449 40.64V34.864H178.089V33.744H178.857C179.134 33.744 179.321 33.6907 179.417 33.584C179.524 33.4667 179.577 33.2693 179.577 32.992V31.456H180.729V33.744H182.537V34.864H180.729V40.88H182.409V42H180.809Z" fill="#747474"/>
<path d="M53.5 20C53.5 18.067 55.067 16.5 57 16.5H345.5V55.5H57C55.067 55.5 53.5 53.933 53.5 52V20Z" stroke="#747474"/>
<line y1="71.5" x2="418" y2="71.5" stroke="#BFBFBF"/>
</g>
<defs>
<clipPath id="clip0_5010_49179">
<rect width="418" height="395" fill="white"/>
</clipPath>
</defs>
</svg>
