<svg width="418" height="256" viewBox="0 0 418 256" fill="none" xmlns="http://www.w3.org/2000/svg">
<rect width="418" height="256" fill="white"/>
<path d="M17.312 34V22.832H19.424V32.128H23.824V34H17.312ZM28.6835 34.192C28.0862 34.192 27.5475 34.0907 27.0675 33.888C26.5982 33.6853 26.1928 33.392 25.8515 33.008C25.5208 32.624 25.2648 32.1653 25.0835 31.632C24.9022 31.088 24.8115 30.48 24.8115 29.808C24.8115 29.136 24.9022 28.5333 25.0835 28C25.2648 27.4667 25.5208 27.0133 25.8515 26.64C26.1928 26.256 26.5982 25.9627 27.0675 25.76C27.5475 25.5573 28.0862 25.456 28.6835 25.456C29.2808 25.456 29.8195 25.5573 30.2995 25.76C30.7795 25.9627 31.1848 26.256 31.5155 26.64C31.8568 27.0133 32.1182 27.4667 32.2995 28C32.4808 28.5333 32.5715 29.136 32.5715 29.808C32.5715 30.48 32.4808 31.088 32.2995 31.632C32.1182 32.1653 31.8568 32.624 31.5155 33.008C31.1848 33.392 30.7795 33.6853 30.2995 33.888C29.8195 34.0907 29.2808 34.192 28.6835 34.192ZM28.6835 32.544C29.2275 32.544 29.6542 32.3787 29.9635 32.048C30.2728 31.7173 30.4275 31.232 30.4275 30.592V29.04C30.4275 28.4107 30.2728 27.9307 29.9635 27.6C29.6542 27.2693 29.2275 27.104 28.6835 27.104C28.1502 27.104 27.7288 27.2693 27.4195 27.6C27.1102 27.9307 26.9555 28.4107 26.9555 29.04V30.592C26.9555 31.232 27.1102 31.7173 27.4195 32.048C27.7288 32.3787 28.1502 32.544 28.6835 32.544ZM34.3871 34V25.648H36.4351V27.376H36.5151C36.5685 27.152 36.6485 26.9387 36.7551 26.736C36.8725 26.5227 37.0218 26.336 37.2031 26.176C37.3845 26.016 37.5978 25.888 37.8431 25.792C38.0991 25.696 38.3925 25.648 38.7231 25.648H39.1711V27.584H38.5311C37.8378 27.584 37.3151 27.6853 36.9631 27.888C36.6111 28.0907 36.4351 28.4213 36.4351 28.88V34H34.3871ZM43.9663 34.192C43.3476 34.192 42.7929 34.0907 42.3023 33.888C41.8223 33.6747 41.4116 33.3813 41.0703 33.008C40.7396 32.624 40.4836 32.1653 40.3023 31.632C40.1209 31.088 40.0303 30.48 40.0303 29.808C40.0303 29.1467 40.1156 28.5493 40.2863 28.016C40.4676 27.4827 40.7236 27.0293 41.0543 26.656C41.3849 26.272 41.7903 25.9787 42.2703 25.776C42.7503 25.5627 43.2943 25.456 43.9023 25.456C44.5529 25.456 45.1183 25.568 45.5983 25.792C46.0783 26.016 46.4729 26.32 46.7823 26.704C47.0916 27.088 47.3209 27.536 47.4703 28.048C47.6303 28.5493 47.7103 29.088 47.7103 29.664V30.336H42.1583V30.544C42.1583 31.152 42.3289 31.6427 42.6703 32.016C43.0116 32.3787 43.5183 32.56 44.1903 32.56C44.7023 32.56 45.1183 32.4533 45.4383 32.24C45.7689 32.0267 46.0623 31.7547 46.3183 31.424L47.4223 32.656C47.0809 33.136 46.6116 33.5147 46.0143 33.792C45.4276 34.0587 44.7449 34.192 43.9663 34.192ZM43.9343 26.992C43.3903 26.992 42.9583 27.1733 42.6383 27.536C42.3183 27.8987 42.1583 28.368 42.1583 28.944V29.072H45.5823V28.928C45.5823 28.352 45.4383 27.888 45.1503 27.536C44.8729 27.1733 44.4676 26.992 43.9343 26.992ZM49.5121 34V25.648H51.5601V27.04H51.6401C51.8001 26.6027 52.0561 26.2293 52.4081 25.92C52.7601 25.6107 53.2508 25.456 53.8801 25.456C54.4561 25.456 54.9521 25.5947 55.3681 25.872C55.7841 26.1493 56.0935 26.5707 56.2961 27.136H56.3281C56.4775 26.6667 56.7708 26.272 57.2081 25.952C57.6561 25.6213 58.2161 25.456 58.8881 25.456C59.7095 25.456 60.3388 25.7387 60.7761 26.304C61.2241 26.8693 61.4481 27.6747 61.4481 28.72V34H59.4001V28.928C59.4001 27.7333 58.9521 27.136 58.0561 27.136C57.8535 27.136 57.6561 27.168 57.4641 27.232C57.2828 27.2853 57.1175 27.3707 56.9681 27.488C56.8295 27.5947 56.7175 27.7333 56.6321 27.904C56.5468 28.064 56.5041 28.256 56.5041 28.48V34H54.4561V28.928C54.4561 27.7333 54.0081 27.136 53.1121 27.136C52.9201 27.136 52.7281 27.168 52.5361 27.232C52.3548 27.2853 52.1895 27.3707 52.0401 27.488C51.9015 27.5947 51.7841 27.7333 51.6881 27.904C51.6028 28.064 51.5601 28.256 51.5601 28.48V34H49.5121ZM68.5205 24.432C68.0938 24.432 67.7845 24.336 67.5925 24.144C67.4112 23.952 67.3205 23.7067 67.3205 23.408V23.088C67.3205 22.7893 67.4112 22.544 67.5925 22.352C67.7845 22.16 68.0938 22.064 68.5205 22.064C68.9365 22.064 69.2405 22.16 69.4325 22.352C69.6245 22.544 69.7205 22.7893 69.7205 23.088V23.408C69.7205 23.7067 69.6245 23.952 69.4325 24.144C69.2405 24.336 68.9365 24.432 68.5205 24.432ZM67.4965 25.648H69.5445V34H67.4965V25.648ZM71.9184 25.648H73.9664V27.024H74.0304C74.1797 26.544 74.4624 26.1653 74.8784 25.888C75.2944 25.6 75.7797 25.456 76.3344 25.456C77.401 25.456 78.2117 25.8347 78.7664 26.592C79.3317 27.3387 79.6144 28.4107 79.6144 29.808C79.6144 31.216 79.3317 32.2987 78.7664 33.056C78.2117 33.8133 77.401 34.192 76.3344 34.192C75.7797 34.192 75.2944 34.048 74.8784 33.76C74.473 33.472 74.1904 33.088 74.0304 32.608H73.9664V37.2H71.9184V25.648ZM75.6784 32.496C76.2117 32.496 76.6437 32.32 76.9744 31.968C77.305 31.616 77.4704 31.1413 77.4704 30.544V29.104C77.4704 28.5067 77.305 28.032 76.9744 27.68C76.6437 27.3173 76.2117 27.136 75.6784 27.136C75.1877 27.136 74.777 27.2587 74.4464 27.504C74.1264 27.7493 73.9664 28.0747 73.9664 28.48V31.136C73.9664 31.5733 74.1264 31.9093 74.4464 32.144C74.777 32.3787 75.1877 32.496 75.6784 32.496ZM84.2481 34.192C83.4481 34.192 82.7761 34.0587 82.2321 33.792C81.6881 33.5147 81.2081 33.136 80.7921 32.656L82.0401 31.44C82.3495 31.792 82.6855 32.0693 83.0481 32.272C83.4215 32.4747 83.8481 32.576 84.3281 32.576C84.8188 32.576 85.1708 32.4907 85.3841 32.32C85.6081 32.1493 85.7201 31.9147 85.7201 31.616C85.7201 31.3707 85.6401 31.1787 85.4801 31.04C85.3308 30.8907 85.0695 30.7893 84.6961 30.736L83.8641 30.624C82.9575 30.5067 82.2641 30.2507 81.7841 29.856C81.3148 29.4507 81.0801 28.864 81.0801 28.096C81.0801 27.6907 81.1548 27.328 81.3041 27.008C81.4535 26.6773 81.6668 26.4 81.9441 26.176C82.2215 25.9413 82.5521 25.7653 82.9361 25.648C83.3308 25.52 83.7681 25.456 84.2481 25.456C84.6535 25.456 85.0108 25.488 85.3201 25.552C85.6401 25.6053 85.9281 25.6907 86.1841 25.808C86.4401 25.9147 86.6748 26.0533 86.8881 26.224C87.1015 26.384 87.3095 26.5653 87.5121 26.768L86.3121 27.968C86.0668 27.712 85.7735 27.4987 85.4321 27.328C85.0908 27.1573 84.7175 27.072 84.3121 27.072C83.8641 27.072 83.5388 27.152 83.3361 27.312C83.1441 27.472 83.0481 27.68 83.0481 27.936C83.0481 28.2133 83.1281 28.4267 83.2881 28.576C83.4588 28.7147 83.7415 28.816 84.1361 28.88L84.9841 28.992C86.7868 29.248 87.6881 30.0693 87.6881 31.456C87.6881 31.8613 87.6028 32.2347 87.4321 32.576C87.2721 32.9067 87.0428 33.1947 86.7441 33.44C86.4455 33.6747 86.0828 33.8613 85.6561 34C85.2401 34.128 84.7708 34.192 84.2481 34.192ZM94.4885 32.608H94.4085C94.3338 32.8213 94.2325 33.024 94.1045 33.216C93.9872 33.3973 93.8325 33.5627 93.6405 33.712C93.4592 33.8613 93.2352 33.9787 92.9685 34.064C92.7125 34.1493 92.4138 34.192 92.0725 34.192C91.2085 34.192 90.5472 33.9093 90.0885 33.344C89.6298 32.7787 89.4005 31.9733 89.4005 30.928V25.648H91.4485V30.72C91.4485 31.296 91.5605 31.7387 91.7845 32.048C92.0085 32.3467 92.3658 32.496 92.8565 32.496C93.0592 32.496 93.2565 32.4693 93.4485 32.416C93.6512 32.3627 93.8272 32.2827 93.9765 32.176C94.1258 32.0587 94.2485 31.92 94.3445 31.76C94.4405 31.5893 94.4885 31.392 94.4885 31.168V25.648H96.5365V34H94.4885V32.608ZM98.9028 34V25.648H100.951V27.04H101.031C101.191 26.6027 101.447 26.2293 101.799 25.92C102.151 25.6107 102.641 25.456 103.271 25.456C103.847 25.456 104.343 25.5947 104.759 25.872C105.175 26.1493 105.484 26.5707 105.687 27.136H105.719C105.868 26.6667 106.161 26.272 106.599 25.952C107.047 25.6213 107.607 25.456 108.279 25.456C109.1 25.456 109.729 25.7387 110.167 26.304C110.615 26.8693 110.839 27.6747 110.839 28.72V34H108.791V28.928C108.791 27.7333 108.343 27.136 107.447 27.136C107.244 27.136 107.047 27.168 106.855 27.232C106.673 27.2853 106.508 27.3707 106.359 27.488C106.22 27.5947 106.108 27.7333 106.023 27.904C105.937 28.064 105.895 28.256 105.895 28.48V34H103.847V28.928C103.847 27.7333 103.399 27.136 102.503 27.136C102.311 27.136 102.119 27.168 101.927 27.232C101.745 27.2853 101.58 27.3707 101.431 27.488C101.292 27.5947 101.175 27.7333 101.079 27.904C100.993 28.064 100.951 28.256 100.951 28.48V34H98.9028ZM122.071 32.608H121.991C121.842 33.088 121.559 33.472 121.143 33.76C120.727 34.048 120.242 34.192 119.687 34.192C118.631 34.192 117.82 33.8133 117.255 33.056C116.7 32.2987 116.423 31.216 116.423 29.808C116.423 28.4107 116.7 27.3387 117.255 26.592C117.82 25.8347 118.631 25.456 119.687 25.456C120.242 25.456 120.727 25.6 121.143 25.888C121.559 26.1653 121.842 26.544 121.991 27.024H122.071V22.16H124.119V34H122.071V32.608ZM120.343 32.496C120.834 32.496 121.244 32.3787 121.575 32.144C121.906 31.9093 122.071 31.5733 122.071 31.136V28.48C122.071 28.0747 121.906 27.7493 121.575 27.504C121.244 27.2587 120.834 27.136 120.343 27.136C119.81 27.136 119.378 27.3173 119.047 27.68C118.727 28.032 118.567 28.5067 118.567 29.104V30.544C118.567 31.1413 118.727 31.616 119.047 31.968C119.378 32.32 119.81 32.496 120.343 32.496ZM129.793 34.192C129.196 34.192 128.657 34.0907 128.177 33.888C127.708 33.6853 127.302 33.392 126.961 33.008C126.63 32.624 126.374 32.1653 126.193 31.632C126.012 31.088 125.921 30.48 125.921 29.808C125.921 29.136 126.012 28.5333 126.193 28C126.374 27.4667 126.63 27.0133 126.961 26.64C127.302 26.256 127.708 25.9627 128.177 25.76C128.657 25.5573 129.196 25.456 129.793 25.456C130.39 25.456 130.929 25.5573 131.409 25.76C131.889 25.9627 132.294 26.256 132.625 26.64C132.966 27.0133 133.228 27.4667 133.409 28C133.59 28.5333 133.681 29.136 133.681 29.808C133.681 30.48 133.59 31.088 133.409 31.632C133.228 32.1653 132.966 32.624 132.625 33.008C132.294 33.392 131.889 33.6853 131.409 33.888C130.929 34.0907 130.39 34.192 129.793 34.192ZM129.793 32.544C130.337 32.544 130.764 32.3787 131.073 32.048C131.382 31.7173 131.537 31.232 131.537 30.592V29.04C131.537 28.4107 131.382 27.9307 131.073 27.6C130.764 27.2693 130.337 27.104 129.793 27.104C129.26 27.104 128.838 27.2693 128.529 27.6C128.22 27.9307 128.065 28.4107 128.065 29.04V30.592C128.065 31.232 128.22 31.7173 128.529 32.048C128.838 32.3787 129.26 32.544 129.793 32.544ZM137.545 34C136.841 34 136.323 33.824 135.993 33.472C135.662 33.12 135.497 32.624 135.497 31.984V22.16H137.545V32.368H138.649V34H137.545ZM143.512 34.192C142.914 34.192 142.376 34.0907 141.896 33.888C141.426 33.6853 141.021 33.392 140.68 33.008C140.349 32.624 140.093 32.1653 139.912 31.632C139.73 31.088 139.64 30.48 139.64 29.808C139.64 29.136 139.73 28.5333 139.912 28C140.093 27.4667 140.349 27.0133 140.68 26.64C141.021 26.256 141.426 25.9627 141.896 25.76C142.376 25.5573 142.914 25.456 143.512 25.456C144.109 25.456 144.648 25.5573 145.128 25.76C145.608 25.9627 146.013 26.256 146.344 26.64C146.685 27.0133 146.946 27.4667 147.128 28C147.309 28.5333 147.4 29.136 147.4 29.808C147.4 30.48 147.309 31.088 147.128 31.632C146.946 32.1653 146.685 32.624 146.344 33.008C146.013 33.392 145.608 33.6853 145.128 33.888C144.648 34.0907 144.109 34.192 143.512 34.192ZM143.512 32.544C144.056 32.544 144.482 32.3787 144.792 32.048C145.101 31.7173 145.256 31.232 145.256 30.592V29.04C145.256 28.4107 145.101 27.9307 144.792 27.6C144.482 27.2693 144.056 27.104 143.512 27.104C142.978 27.104 142.557 27.2693 142.248 27.6C141.938 27.9307 141.784 28.4107 141.784 29.04V30.592C141.784 31.232 141.938 31.7173 142.248 32.048C142.557 32.3787 142.978 32.544 143.512 32.544ZM149.215 34V25.648H151.263V27.376H151.343C151.397 27.152 151.477 26.9387 151.583 26.736C151.701 26.5227 151.85 26.336 152.031 26.176C152.213 26.016 152.426 25.888 152.671 25.792C152.927 25.696 153.221 25.648 153.551 25.648H153.999V27.584H153.359C152.666 27.584 152.143 27.6853 151.791 27.888C151.439 28.0907 151.263 28.4213 151.263 28.88V34H149.215ZM162.014 34.192C161.214 34.192 160.542 34.0587 159.998 33.792C159.454 33.5147 158.974 33.136 158.558 32.656L159.806 31.44C160.115 31.792 160.451 32.0693 160.814 32.272C161.187 32.4747 161.614 32.576 162.094 32.576C162.584 32.576 162.936 32.4907 163.15 32.32C163.374 32.1493 163.486 31.9147 163.486 31.616C163.486 31.3707 163.406 31.1787 163.246 31.04C163.096 30.8907 162.835 30.7893 162.462 30.736L161.63 30.624C160.723 30.5067 160.03 30.2507 159.55 29.856C159.08 29.4507 158.846 28.864 158.846 28.096C158.846 27.6907 158.92 27.328 159.07 27.008C159.219 26.6773 159.432 26.4 159.71 26.176C159.987 25.9413 160.318 25.7653 160.702 25.648C161.096 25.52 161.534 25.456 162.014 25.456C162.419 25.456 162.776 25.488 163.086 25.552C163.406 25.6053 163.694 25.6907 163.95 25.808C164.206 25.9147 164.44 26.0533 164.654 26.224C164.867 26.384 165.075 26.5653 165.278 26.768L164.078 27.968C163.832 27.712 163.539 27.4987 163.198 27.328C162.856 27.1573 162.483 27.072 162.078 27.072C161.63 27.072 161.304 27.152 161.102 27.312C160.91 27.472 160.814 27.68 160.814 27.936C160.814 28.2133 160.894 28.4267 161.054 28.576C161.224 28.7147 161.507 28.816 161.902 28.88L162.75 28.992C164.552 29.248 165.454 30.0693 165.454 31.456C165.454 31.8613 165.368 32.2347 165.198 32.576C165.038 32.9067 164.808 33.1947 164.51 33.44C164.211 33.6747 163.848 33.8613 163.422 34C163.006 34.128 162.536 34.192 162.014 34.192ZM168.286 24.432C167.859 24.432 167.55 24.336 167.358 24.144C167.177 23.952 167.086 23.7067 167.086 23.408V23.088C167.086 22.7893 167.177 22.544 167.358 22.352C167.55 22.16 167.859 22.064 168.286 22.064C168.702 22.064 169.006 22.16 169.198 22.352C169.39 22.544 169.486 22.7893 169.486 23.088V23.408C169.486 23.7067 169.39 23.952 169.198 24.144C169.006 24.336 168.702 24.432 168.286 24.432ZM167.262 25.648H169.31V34H167.262V25.648ZM174.292 34C173.588 34 173.049 33.8187 172.676 33.456C172.313 33.0827 172.132 32.5547 172.132 31.872V27.28H170.9V25.648H171.54C171.849 25.648 172.057 25.5787 172.164 25.44C172.281 25.2907 172.34 25.072 172.34 24.784V23.36H174.18V25.648H175.892V27.28H174.18V32.368H175.764V34H174.292ZM187.594 34C187.146 34 186.788 33.872 186.522 33.616C186.266 33.3493 186.106 32.9973 186.042 32.56H185.946C185.807 33.104 185.524 33.5147 185.098 33.792C184.671 34.0587 184.143 34.192 183.514 34.192C182.66 34.192 182.004 33.968 181.546 33.52C181.087 33.072 180.858 32.4747 180.858 31.728C180.858 30.864 181.167 30.224 181.786 29.808C182.404 29.3813 183.284 29.168 184.426 29.168H185.85V28.56C185.85 28.0907 185.727 27.728 185.482 27.472C185.236 27.216 184.842 27.088 184.298 27.088C183.818 27.088 183.428 27.1947 183.13 27.408C182.842 27.6107 182.596 27.856 182.394 28.144L181.178 27.056C181.487 26.576 181.898 26.192 182.41 25.904C182.922 25.6053 183.599 25.456 184.442 25.456C185.572 25.456 186.431 25.712 187.018 26.224C187.604 26.736 187.898 27.472 187.898 28.432V32.368H188.73V34H187.594ZM184.202 32.704C184.66 32.704 185.05 32.6027 185.37 32.4C185.69 32.1973 185.85 31.8987 185.85 31.504V30.4H184.538C183.471 30.4 182.938 30.7413 182.938 31.424V31.696C182.938 32.0373 183.044 32.2933 183.258 32.464C183.482 32.624 183.796 32.704 184.202 32.704ZM190.387 34V25.648H192.435V27.04H192.515C192.675 26.6027 192.931 26.2293 193.283 25.92C193.635 25.6107 194.126 25.456 194.755 25.456C195.331 25.456 195.827 25.5947 196.243 25.872C196.659 26.1493 196.968 26.5707 197.171 27.136H197.203C197.352 26.6667 197.646 26.272 198.083 25.952C198.531 25.6213 199.091 25.456 199.763 25.456C200.584 25.456 201.214 25.7387 201.651 26.304C202.099 26.8693 202.323 27.6747 202.323 28.72V34H200.275V28.928C200.275 27.7333 199.827 27.136 198.931 27.136C198.728 27.136 198.531 27.168 198.339 27.232C198.158 27.2853 197.992 27.3707 197.843 27.488C197.704 27.5947 197.592 27.7333 197.507 27.904C197.422 28.064 197.379 28.256 197.379 28.48V34H195.331V28.928C195.331 27.7333 194.883 27.136 193.987 27.136C193.795 27.136 193.603 27.168 193.411 27.232C193.23 27.2853 193.064 27.3707 192.915 27.488C192.776 27.5947 192.659 27.7333 192.563 27.904C192.478 28.064 192.435 28.256 192.435 28.48V34H190.387ZM207.966 34.192C207.348 34.192 206.793 34.0907 206.302 33.888C205.822 33.6747 205.412 33.3813 205.07 33.008C204.74 32.624 204.484 32.1653 204.302 31.632C204.121 31.088 204.03 30.48 204.03 29.808C204.03 29.1467 204.116 28.5493 204.286 28.016C204.468 27.4827 204.724 27.0293 205.054 26.656C205.385 26.272 205.79 25.9787 206.27 25.776C206.75 25.5627 207.294 25.456 207.902 25.456C208.553 25.456 209.118 25.568 209.598 25.792C210.078 26.016 210.473 26.32 210.782 26.704C211.092 27.088 211.321 27.536 211.47 28.048C211.63 28.5493 211.71 29.088 211.71 29.664V30.336H206.158V30.544C206.158 31.152 206.329 31.6427 206.67 32.016C207.012 32.3787 207.518 32.56 208.19 32.56C208.702 32.56 209.118 32.4533 209.438 32.24C209.769 32.0267 210.062 31.7547 210.318 31.424L211.422 32.656C211.081 33.136 210.612 33.5147 210.014 33.792C209.428 34.0587 208.745 34.192 207.966 34.192ZM207.934 26.992C207.39 26.992 206.958 27.1733 206.638 27.536C206.318 27.8987 206.158 28.368 206.158 28.944V29.072H209.582V28.928C209.582 28.352 209.438 27.888 209.15 27.536C208.873 27.1733 208.468 26.992 207.934 26.992ZM216.12 34C215.416 34 214.877 33.8187 214.504 33.456C214.141 33.0827 213.96 32.5547 213.96 31.872V27.28H212.728V25.648H213.368C213.677 25.648 213.885 25.5787 213.992 25.44C214.109 25.2907 214.168 25.072 214.168 24.784V23.36H216.008V25.648H217.72V27.28H216.008V32.368H217.592V34H216.12Z" fill="black"/>
<rect x="17" y="57" width="22" height="22" rx="1" fill="white"/>
<rect x="17" y="57" width="22" height="22" rx="1" stroke="#1A1A1A" stroke-width="2"/>
<path d="M49.488 74V62.832H53.936C54.9387 62.832 55.7067 63.12 56.24 63.696C56.784 64.2613 57.056 65.04 57.056 66.032C57.056 67.024 56.784 67.808 56.24 68.384C55.7067 68.9493 54.9387 69.232 53.936 69.232H50.832V74H49.488ZM50.832 68.048H53.936C54.4693 68.048 54.88 67.9093 55.168 67.632C55.4667 67.3547 55.616 66.96 55.616 66.448V65.616C55.616 65.104 55.4667 64.7093 55.168 64.432C54.88 64.1547 54.4693 64.016 53.936 64.016H50.832V68.048ZM58.9069 74V65.744H60.1869V67.264H60.2669C60.4162 66.8693 60.6829 66.5173 61.0669 66.208C61.4509 65.8987 61.9789 65.744 62.6509 65.744H63.1469V67.024H62.3949C61.7015 67.024 61.1575 67.1573 60.7629 67.424C60.3789 67.68 60.1869 68.0053 60.1869 68.4V74H58.9069ZM65.4219 63.808C65.1445 63.808 64.9419 63.744 64.8139 63.616C64.6965 63.4773 64.6379 63.3013 64.6379 63.088V62.88C64.6379 62.6667 64.6965 62.496 64.8139 62.368C64.9419 62.2293 65.1445 62.16 65.4219 62.16C65.6992 62.16 65.8965 62.2293 66.0139 62.368C66.1419 62.496 66.2059 62.6667 66.2059 62.88V63.088C66.2059 63.3013 66.1419 63.4773 66.0139 63.616C65.8965 63.744 65.6992 63.808 65.4219 63.808ZM64.7819 65.744H66.0619V74H64.7819V65.744ZM70.6059 74L67.7099 65.744H68.9899L70.4299 69.84L71.3259 72.656H71.4059L72.3019 69.84L73.7739 65.744H75.0059L72.0939 74H70.6059ZM82.5163 74C82.0363 74 81.6896 73.872 81.4763 73.616C81.2736 73.36 81.1456 73.04 81.0923 72.656H81.0123C80.8309 73.168 80.5323 73.552 80.1163 73.808C79.7003 74.064 79.2043 74.192 78.6283 74.192C77.7536 74.192 77.0709 73.968 76.5803 73.52C76.1003 73.072 75.8603 72.464 75.8603 71.696C75.8603 70.9173 76.1429 70.32 76.7083 69.904C77.2843 69.488 78.1749 69.28 79.3802 69.28H81.0123V68.464C81.0123 67.8773 80.8523 67.4293 80.5323 67.12C80.2123 66.8107 79.7216 66.656 79.0603 66.656C78.5589 66.656 78.1376 66.768 77.7963 66.992C77.4656 67.216 77.1883 67.5147 76.9643 67.888L76.1963 67.168C76.4203 66.72 76.7776 66.3413 77.2682 66.032C77.7589 65.712 78.3776 65.552 79.1243 65.552C80.1269 65.552 80.9056 65.7973 81.4603 66.288C82.0149 66.7787 82.2923 67.4613 82.2923 68.336V72.88H83.2362V74H82.5163ZM78.8363 73.104C79.1563 73.104 79.4496 73.0667 79.7163 72.992C79.9829 72.9173 80.2123 72.8107 80.4043 72.672C80.5963 72.5333 80.7456 72.3733 80.8523 72.192C80.9589 72.0107 81.0123 71.8133 81.0123 71.6V70.24H79.3163C78.5803 70.24 78.0416 70.3467 77.7003 70.56C77.3696 70.7733 77.2043 71.0827 77.2043 71.488V71.824C77.2043 72.2293 77.3483 72.544 77.6363 72.768C77.9349 72.992 78.3349 73.104 78.8363 73.104ZM86.8871 74C86.4391 74 86.0978 73.8773 85.8631 73.632C85.6391 73.376 85.5271 73.0453 85.5271 72.64V66.864H84.1671V65.744H84.9351C85.2125 65.744 85.3991 65.6907 85.4951 65.584C85.6018 65.4667 85.6551 65.2693 85.6551 64.992V63.456H86.8071V65.744H88.6151V66.864H86.8071V72.88H88.4871V74H86.8871ZM90.6725 65.744H91.9525V67.088H92.0165C92.2298 66.5653 92.5392 66.1813 92.9445 65.936C93.3605 65.68 93.8565 65.552 94.4325 65.552C94.9445 65.552 95.4085 65.6533 95.8245 65.856C96.2405 66.0587 96.5925 66.3467 96.8805 66.72C97.1792 67.0933 97.4032 67.5467 97.5525 68.08C97.7125 68.6133 97.7925 69.2107 97.7925 69.872C97.7925 70.5333 97.7125 71.1307 97.5525 71.664C97.4032 72.1973 97.1792 72.6507 96.8805 73.024C96.5925 73.3973 96.2405 73.6853 95.8245 73.888C95.4085 74.0907 94.9445 74.192 94.4325 74.192C93.3125 74.192 92.5072 73.68 92.0165 72.656H91.9525V77.2H90.6725V65.744ZM94.0805 73.04C94.8058 73.04 95.3765 72.816 95.7925 72.368C96.2085 71.9093 96.4165 71.312 96.4165 70.576V69.168C96.4165 68.432 96.2085 67.84 95.7925 67.392C95.3765 66.9333 94.8058 66.704 94.0805 66.704C93.7925 66.704 93.5152 66.7467 93.2485 66.832C92.9925 66.9067 92.7685 67.0133 92.5765 67.152C92.3845 67.2907 92.2298 67.4613 92.1125 67.664C92.0058 67.856 91.9525 68.064 91.9525 68.288V71.36C91.9525 71.6267 92.0058 71.8667 92.1125 72.08C92.2298 72.2827 92.3845 72.4587 92.5765 72.608C92.7685 72.7467 92.9925 72.8533 93.2485 72.928C93.5152 73.0027 93.7925 73.04 94.0805 73.04ZM103.058 74.192C102.492 74.192 101.98 74.0907 101.522 73.888C101.074 73.6853 100.684 73.3973 100.354 73.024C100.034 72.64 99.7831 72.1867 99.6018 71.664C99.4311 71.1307 99.3458 70.5333 99.3458 69.872C99.3458 69.2213 99.4311 68.6293 99.6018 68.096C99.7831 67.5627 100.034 67.1093 100.354 66.736C100.684 66.352 101.074 66.0587 101.522 65.856C101.98 65.6533 102.492 65.552 103.058 65.552C103.612 65.552 104.108 65.6533 104.546 65.856C104.983 66.0587 105.356 66.3413 105.666 66.704C105.975 67.056 106.21 67.4773 106.37 67.968C106.54 68.4587 106.626 68.9973 106.626 69.584V70.192H100.69V70.576C100.69 70.928 100.743 71.2587 100.85 71.568C100.967 71.8667 101.127 72.128 101.33 72.352C101.543 72.576 101.799 72.752 102.098 72.88C102.407 73.008 102.754 73.072 103.138 73.072C103.66 73.072 104.114 72.9493 104.498 72.704C104.892 72.4587 105.196 72.1067 105.41 71.648L106.322 72.304C106.055 72.8693 105.639 73.328 105.074 73.68C104.508 74.0213 103.836 74.192 103.058 74.192ZM103.058 66.624C102.706 66.624 102.386 66.688 102.098 66.816C101.81 66.9333 101.559 67.104 101.346 67.328C101.143 67.552 100.983 67.8187 100.866 68.128C100.748 68.4267 100.69 68.7573 100.69 69.12V69.232H105.25V69.056C105.25 68.32 105.047 67.7333 104.642 67.296C104.247 66.848 103.719 66.624 103.058 66.624ZM108.735 74V65.744H110.015V67.264H110.095C110.244 66.8693 110.511 66.5173 110.895 66.208C111.279 65.8987 111.807 65.744 112.479 65.744H112.975V67.024H112.223C111.53 67.024 110.986 67.1573 110.591 67.424C110.207 67.68 110.015 68.0053 110.015 68.4V74H108.735ZM117.09 74.192C116.322 74.192 115.677 74.048 115.154 73.76C114.642 73.4613 114.199 73.0667 113.826 72.576L114.738 71.84C115.058 72.2453 115.415 72.56 115.81 72.784C116.205 72.9973 116.663 73.104 117.186 73.104C117.73 73.104 118.151 72.9867 118.45 72.752C118.759 72.5173 118.914 72.1867 118.914 71.76C118.914 71.44 118.807 71.168 118.594 70.944C118.391 70.7093 118.018 70.5493 117.474 70.464L116.818 70.368C116.434 70.3147 116.082 70.2347 115.762 70.128C115.442 70.0107 115.159 69.8613 114.914 69.68C114.679 69.488 114.493 69.2533 114.354 68.976C114.226 68.6987 114.162 68.368 114.162 67.984C114.162 67.5787 114.237 67.2267 114.386 66.928C114.535 66.6187 114.738 66.3627 114.994 66.16C115.261 65.9573 115.575 65.808 115.938 65.712C116.301 65.6053 116.69 65.552 117.106 65.552C117.778 65.552 118.338 65.6693 118.786 65.904C119.245 66.1387 119.645 66.464 119.986 66.88L119.138 67.648C118.957 67.392 118.69 67.1627 118.338 66.96C117.986 66.7467 117.543 66.64 117.01 66.64C116.477 66.64 116.071 66.7573 115.794 66.992C115.527 67.216 115.394 67.5253 115.394 67.92C115.394 68.3253 115.527 68.6187 115.794 68.8C116.071 68.9813 116.466 69.1147 116.978 69.2L117.618 69.296C118.535 69.4347 119.186 69.7013 119.57 70.096C119.954 70.48 120.146 70.9867 120.146 71.616C120.146 72.416 119.874 73.0453 119.33 73.504C118.786 73.9627 118.039 74.192 117.09 74.192ZM125.527 74.192C124.972 74.192 124.466 74.0907 124.007 73.888C123.548 73.6853 123.154 73.3973 122.823 73.024C122.503 72.64 122.252 72.1867 122.071 71.664C121.89 71.1307 121.799 70.5333 121.799 69.872C121.799 69.2213 121.89 68.6293 122.071 68.096C122.252 67.5627 122.503 67.1093 122.823 66.736C123.154 66.352 123.548 66.0587 124.007 65.856C124.466 65.6533 124.972 65.552 125.527 65.552C126.082 65.552 126.583 65.6533 127.031 65.856C127.49 66.0587 127.884 66.352 128.215 66.736C128.546 67.1093 128.802 67.5627 128.983 68.096C129.164 68.6293 129.255 69.2213 129.255 69.872C129.255 70.5333 129.164 71.1307 128.983 71.664C128.802 72.1867 128.546 72.64 128.215 73.024C127.884 73.3973 127.49 73.6853 127.031 73.888C126.583 74.0907 126.082 74.192 125.527 74.192ZM125.527 73.056C126.22 73.056 126.786 72.8427 127.223 72.416C127.66 71.9893 127.879 71.3387 127.879 70.464V69.28C127.879 68.4053 127.66 67.7547 127.223 67.328C126.786 66.9013 126.22 66.688 125.527 66.688C124.834 66.688 124.268 66.9013 123.831 67.328C123.394 67.7547 123.175 68.4053 123.175 69.28V70.464C123.175 71.3387 123.394 71.9893 123.831 72.416C124.268 72.8427 124.834 73.056 125.527 73.056ZM131.36 74V65.744H132.64V67.088H132.704C132.907 66.6187 133.189 66.2453 133.552 65.968C133.925 65.6907 134.421 65.552 135.04 65.552C135.893 65.552 136.565 65.8293 137.056 66.384C137.557 66.928 137.808 67.7013 137.808 68.704V74H136.528V68.928C136.528 67.4453 135.904 66.704 134.656 66.704C134.4 66.704 134.149 66.736 133.904 66.8C133.669 66.864 133.456 66.96 133.264 67.088C133.072 67.216 132.917 67.3813 132.8 67.584C132.693 67.776 132.64 68.0053 132.64 68.272V74H131.36Z" fill="#1A1A1A"/>
<rect x="16" y="96" width="24" height="24" rx="2" fill="#1A1A1A"/>
<path d="M25.0004 112.2L20.8004 108L19.4004 109.4L25.0004 115L37.0004 103L35.6004 101.6L25.0004 112.2Z" fill="white"/>
<path d="M52.032 114L48.32 102.832H49.76L51.6 108.464L52.832 112.656H52.912L54.176 108.464L56.032 102.832H57.424L53.664 114H52.032ZM59.75 103.808C59.4727 103.808 59.27 103.744 59.142 103.616C59.0247 103.477 58.966 103.301 58.966 103.088V102.88C58.966 102.667 59.0247 102.496 59.142 102.368C59.27 102.229 59.4727 102.16 59.75 102.16C60.0273 102.16 60.2247 102.229 60.342 102.368C60.47 102.496 60.534 102.667 60.534 102.88V103.088C60.534 103.301 60.47 103.477 60.342 103.616C60.2247 103.744 60.0273 103.808 59.75 103.808ZM59.11 105.744H60.39V114H59.11V105.744ZM63.11 114V105.744H64.39V107.264H64.47C64.6193 106.869 64.886 106.517 65.27 106.208C65.654 105.899 66.182 105.744 66.854 105.744H67.35V107.024H66.598C65.9047 107.024 65.3607 107.157 64.966 107.424C64.582 107.68 64.39 108.005 64.39 108.4V114H63.11ZM68.985 102.16H70.265V109.664H70.329L71.593 108.256L73.929 105.744H75.481L72.425 109.008L75.785 114H74.233L71.497 109.792L70.265 111.056V114H68.985V102.16ZM79.7463 114.192C78.9783 114.192 78.3329 114.048 77.8103 113.76C77.2983 113.461 76.8556 113.067 76.4823 112.576L77.3943 111.84C77.7143 112.245 78.0716 112.56 78.4663 112.784C78.8609 112.997 79.3196 113.104 79.8423 113.104C80.3863 113.104 80.8076 112.987 81.1063 112.752C81.4156 112.517 81.5703 112.187 81.5703 111.76C81.5703 111.44 81.4636 111.168 81.2503 110.944C81.0476 110.709 80.6743 110.549 80.1302 110.464L79.4743 110.368C79.0903 110.315 78.7383 110.235 78.4183 110.128C78.0983 110.011 77.8156 109.861 77.5703 109.68C77.3356 109.488 77.1489 109.253 77.0103 108.976C76.8823 108.699 76.8183 108.368 76.8183 107.984C76.8183 107.579 76.8929 107.227 77.0423 106.928C77.1916 106.619 77.3943 106.363 77.6503 106.16C77.9169 105.957 78.2316 105.808 78.5943 105.712C78.9569 105.605 79.3463 105.552 79.7623 105.552C80.4343 105.552 80.9943 105.669 81.4423 105.904C81.9009 106.139 82.3009 106.464 82.6423 106.88L81.7943 107.648C81.6129 107.392 81.3463 107.163 80.9943 106.96C80.6423 106.747 80.1996 106.64 79.6663 106.64C79.1329 106.64 78.7276 106.757 78.4503 106.992C78.1836 107.216 78.0503 107.525 78.0503 107.92C78.0503 108.325 78.1836 108.619 78.4503 108.8C78.7276 108.981 79.1223 109.115 79.6343 109.2L80.2743 109.296C81.1916 109.435 81.8423 109.701 82.2263 110.096C82.6103 110.48 82.8023 110.987 82.8023 111.616C82.8023 112.416 82.5303 113.045 81.9863 113.504C81.4423 113.963 80.6956 114.192 79.7463 114.192ZM88.1831 114.192C87.6285 114.192 87.1218 114.091 86.6631 113.888C86.2045 113.685 85.8098 113.397 85.4791 113.024C85.1591 112.64 84.9085 112.187 84.7271 111.664C84.5458 111.131 84.4551 110.533 84.4551 109.872C84.4551 109.221 84.5458 108.629 84.7271 108.096C84.9085 107.563 85.1591 107.109 85.4791 106.736C85.8098 106.352 86.2045 106.059 86.6631 105.856C87.1218 105.653 87.6285 105.552 88.1831 105.552C88.7378 105.552 89.2391 105.653 89.6871 105.856C90.1458 106.059 90.5405 106.352 90.8711 106.736C91.2018 107.109 91.4578 107.563 91.6391 108.096C91.8205 108.629 91.9111 109.221 91.9111 109.872C91.9111 110.533 91.8205 111.131 91.6391 111.664C91.4578 112.187 91.2018 112.64 90.8711 113.024C90.5405 113.397 90.1458 113.685 89.6871 113.888C89.2391 114.091 88.7378 114.192 88.1831 114.192ZM88.1831 113.056C88.8765 113.056 89.4418 112.843 89.8791 112.416C90.3165 111.989 90.5351 111.339 90.5351 110.464V109.28C90.5351 108.405 90.3165 107.755 89.8791 107.328C89.4418 106.901 88.8765 106.688 88.1831 106.688C87.4898 106.688 86.9245 106.901 86.4871 107.328C86.0498 107.755 85.8311 108.405 85.8311 109.28V110.464C85.8311 111.339 86.0498 111.989 86.4871 112.416C86.9245 112.843 87.4898 113.056 88.1831 113.056ZM94.0163 114V105.744H95.2963V107.088H95.3603C95.4563 106.875 95.5629 106.677 95.6803 106.496C95.8083 106.304 95.9576 106.139 96.1283 106C96.3096 105.861 96.5176 105.755 96.7523 105.68C96.9869 105.595 97.2643 105.552 97.5843 105.552C98.1283 105.552 98.6296 105.685 99.0883 105.952C99.5469 106.208 99.8883 106.635 100.112 107.232H100.144C100.294 106.784 100.571 106.395 100.976 106.064C101.392 105.723 101.952 105.552 102.656 105.552C103.499 105.552 104.155 105.829 104.624 106.384C105.104 106.928 105.344 107.701 105.344 108.704V114H104.064V108.928C104.064 108.192 103.92 107.637 103.632 107.264C103.344 106.891 102.886 106.704 102.256 106.704C102 106.704 101.755 106.736 101.52 106.8C101.296 106.864 101.094 106.96 100.912 107.088C100.731 107.216 100.587 107.381 100.48 107.584C100.374 107.776 100.32 108.005 100.32 108.272V114H99.0403V108.928C99.0403 108.192 98.8963 107.637 98.6083 107.264C98.3203 106.891 97.8723 106.704 97.2643 106.704C97.0083 106.704 96.7629 106.736 96.5283 106.8C96.2936 106.864 96.0856 106.96 95.9043 107.088C95.7229 107.216 95.5736 107.381 95.4563 107.584C95.3496 107.776 95.2963 108.005 95.2963 108.272V114H94.0163ZM107.985 102.16H109.265V107.088H109.329C109.532 106.619 109.814 106.245 110.177 105.968C110.55 105.691 111.046 105.552 111.665 105.552C112.518 105.552 113.19 105.829 113.681 106.384C114.182 106.928 114.433 107.701 114.433 108.704V114H113.153V108.928C113.153 107.445 112.529 106.704 111.281 106.704C111.025 106.704 110.774 106.736 110.529 106.8C110.294 106.864 110.081 106.96 109.889 107.088C109.697 107.216 109.542 107.381 109.425 107.584C109.318 107.776 109.265 108.005 109.265 108.272V114H107.985V102.16ZM120.183 114.192C119.617 114.192 119.105 114.091 118.647 113.888C118.199 113.685 117.809 113.397 117.479 113.024C117.159 112.64 116.908 112.187 116.727 111.664C116.556 111.131 116.471 110.533 116.471 109.872C116.471 109.221 116.556 108.629 116.727 108.096C116.908 107.563 117.159 107.109 117.479 106.736C117.809 106.352 118.199 106.059 118.647 105.856C119.105 105.653 119.617 105.552 120.183 105.552C120.737 105.552 121.233 105.653 121.671 105.856C122.108 106.059 122.481 106.341 122.791 106.704C123.1 107.056 123.335 107.477 123.495 107.968C123.665 108.459 123.751 108.997 123.751 109.584V110.192H117.815V110.576C117.815 110.928 117.868 111.259 117.975 111.568C118.092 111.867 118.252 112.128 118.455 112.352C118.668 112.576 118.924 112.752 119.223 112.88C119.532 113.008 119.879 113.072 120.263 113.072C120.785 113.072 121.239 112.949 121.623 112.704C122.017 112.459 122.321 112.107 122.535 111.648L123.447 112.304C123.18 112.869 122.764 113.328 122.199 113.68C121.633 114.021 120.961 114.192 120.183 114.192ZM120.183 106.624C119.831 106.624 119.511 106.688 119.223 106.816C118.935 106.933 118.684 107.104 118.471 107.328C118.268 107.552 118.108 107.819 117.991 108.128C117.873 108.427 117.815 108.757 117.815 109.12V109.232H122.375V109.056C122.375 108.32 122.172 107.733 121.767 107.296C121.372 106.848 120.844 106.624 120.183 106.624ZM131.14 112.656H131.076C130.575 113.68 129.769 114.192 128.66 114.192C128.148 114.192 127.684 114.091 127.268 113.888C126.852 113.685 126.495 113.397 126.196 113.024C125.908 112.651 125.684 112.197 125.524 111.664C125.375 111.131 125.3 110.533 125.3 109.872C125.3 109.211 125.375 108.613 125.524 108.08C125.684 107.547 125.908 107.093 126.196 106.72C126.495 106.347 126.852 106.059 127.268 105.856C127.684 105.653 128.148 105.552 128.66 105.552C129.236 105.552 129.727 105.68 130.132 105.936C130.548 106.181 130.863 106.565 131.076 107.088H131.14V102.16H132.42V114H131.14V112.656ZM129.012 113.04C129.3 113.04 129.572 113.003 129.828 112.928C130.095 112.853 130.324 112.747 130.516 112.608C130.708 112.459 130.857 112.283 130.964 112.08C131.081 111.867 131.14 111.627 131.14 111.36V108.288C131.14 108.064 131.081 107.856 130.964 107.664C130.857 107.461 130.708 107.291 130.516 107.152C130.324 107.013 130.095 106.907 129.828 106.832C129.572 106.747 129.3 106.704 129.012 106.704C128.287 106.704 127.716 106.933 127.3 107.392C126.884 107.84 126.676 108.432 126.676 109.168V110.576C126.676 111.312 126.884 111.909 127.3 112.368C127.716 112.816 128.287 113.04 129.012 113.04Z" fill="#1A1A1A"/>
</svg>
