<svg width="418" height="286" viewBox="0 0 418 286" fill="none" xmlns="http://www.w3.org/2000/svg">
<rect width="418" height="286" fill="white"/>
<line x1="379" y1="52.5" x2="40" y2="52.5" stroke="#747474"/>
<circle cx="36" cy="52" r="19.5" fill="#F5F5F5" stroke="#747474"/>
<circle cx="123" cy="52" r="19.5" fill="#F5F5F5" stroke="#747474"/>
<circle cx="209" cy="52" r="18" fill="#F5F5F5" stroke="#747474" stroke-width="4"/>
<circle cx="295" cy="52" r="19.5" fill="#F5F5F5" stroke="#747474"/>
<circle cx="382" cy="52" r="19.5" fill="#F5F5F5" stroke="#747474"/>
<path d="M21.3574 88.016V98H20.0134V88.016H16.4614V86.832H24.9094V88.016H21.3574ZM25.9069 98V89.744H27.1869V91.264H27.2669C27.4162 90.8693 27.6829 90.5173 28.0669 90.208C28.4509 89.8987 28.9789 89.744 29.6509 89.744H30.1469V91.024H29.3949C28.7015 91.024 28.1575 91.1573 27.7629 91.424C27.3789 91.68 27.1869 92.0053 27.1869 92.4V98H25.9069ZM32.4219 87.808C32.1445 87.808 31.9419 87.744 31.8139 87.616C31.6965 87.4773 31.6379 87.3013 31.6379 87.088V86.88C31.6379 86.6667 31.6965 86.496 31.8139 86.368C31.9419 86.2293 32.1445 86.16 32.4219 86.16C32.6992 86.16 32.8965 86.2293 33.0139 86.368C33.1419 86.496 33.2059 86.6667 33.2059 86.88V87.088C33.2059 87.3013 33.1419 87.4773 33.0139 87.616C32.8965 87.744 32.6992 87.808 32.4219 87.808ZM31.7819 89.744H33.0619V98H31.7819V89.744ZM35.7819 98V89.744H37.0619V91.088H37.1259C37.3285 90.6187 37.6112 90.2453 37.9739 89.968C38.3472 89.6907 38.8432 89.552 39.4619 89.552C40.3152 89.552 40.9872 89.8293 41.4779 90.384C41.9792 90.928 42.2299 91.7013 42.2299 92.704V98H40.9499V92.928C40.9499 91.4453 40.3259 90.704 39.0779 90.704C38.8219 90.704 38.5712 90.736 38.3259 90.8C38.0912 90.864 37.8779 90.96 37.6859 91.088C37.4939 91.216 37.3392 91.3813 37.2219 91.584C37.1152 91.776 37.0619 92.0053 37.0619 92.272V98H35.7819ZM48.7049 98V96.816H51.8249V87.824H51.7129L48.8969 90.448L48.1129 89.6L51.0729 86.832H53.1689V96.816H56.0489V98H48.7049Z" fill="black"/>
<path d="M32.6591 58V56.288H35.7311V48.352H35.5871L33.1551 51.232L31.8431 50.128L34.6111 46.832H37.7951V56.288H40.3551V58H32.6591Z" fill="black"/>
<path d="M108.357 88.016V98H107.013V88.016H103.461V86.832H111.909V88.016H108.357ZM112.907 98V89.744H114.187V91.264H114.267C114.416 90.8693 114.683 90.5173 115.067 90.208C115.451 89.8987 115.979 89.744 116.651 89.744H117.147V91.024H116.395C115.702 91.024 115.158 91.1573 114.763 91.424C114.379 91.68 114.187 92.0053 114.187 92.4V98H112.907ZM119.422 87.808C119.145 87.808 118.942 87.744 118.814 87.616C118.697 87.4773 118.638 87.3013 118.638 87.088V86.88C118.638 86.6667 118.697 86.496 118.814 86.368C118.942 86.2293 119.145 86.16 119.422 86.16C119.699 86.16 119.897 86.2293 120.014 86.368C120.142 86.496 120.206 86.6667 120.206 86.88V87.088C120.206 87.3013 120.142 87.4773 120.014 87.616C119.897 87.744 119.699 87.808 119.422 87.808ZM118.782 89.744H120.062V98H118.782V89.744ZM122.782 98V89.744H124.062V91.088H124.126C124.329 90.6187 124.611 90.2453 124.974 89.968C125.347 89.6907 125.843 89.552 126.462 89.552C127.315 89.552 127.987 89.8293 128.478 90.384C128.979 90.928 129.23 91.7013 129.23 92.704V98H127.95V92.928C127.95 91.4453 127.326 90.704 126.078 90.704C125.822 90.704 125.571 90.736 125.326 90.8C125.091 90.864 124.878 90.96 124.686 91.088C124.494 91.216 124.339 91.3813 124.222 91.584C124.115 91.776 124.062 92.0053 124.062 92.272V98H122.782ZM142.825 98H135.497V96.624L139.145 93.264C139.668 92.784 140.105 92.2773 140.457 91.744C140.809 91.2 140.985 90.656 140.985 90.112V89.92C140.985 89.3013 140.814 88.8 140.473 88.416C140.132 88.032 139.614 87.84 138.921 87.84C138.58 87.84 138.281 87.888 138.025 87.984C137.769 88.08 137.545 88.2133 137.353 88.384C137.172 88.5547 137.017 88.7573 136.889 88.992C136.772 89.216 136.676 89.4613 136.601 89.728L135.401 89.264C135.508 88.9333 135.652 88.6133 135.833 88.304C136.025 87.984 136.26 87.7013 136.537 87.456C136.825 87.2107 137.166 87.0133 137.561 86.864C137.966 86.7147 138.441 86.64 138.985 86.64C139.529 86.64 140.014 86.72 140.441 86.88C140.868 87.04 141.225 87.264 141.513 87.552C141.801 87.84 142.02 88.1813 142.169 88.576C142.329 88.9707 142.409 89.408 142.409 89.888C142.409 90.3253 142.345 90.7307 142.217 91.104C142.1 91.4773 141.934 91.8347 141.721 92.176C141.508 92.5067 141.246 92.832 140.937 93.152C140.638 93.472 140.313 93.792 139.961 94.112L136.953 96.816H142.825V98Z" fill="black"/>
<path d="M126.939 58H119.195V56.048L122.699 52.976C123.296 52.4533 123.734 51.984 124.011 51.568C124.288 51.1413 124.427 50.6827 124.427 50.192V49.984C124.427 49.4933 124.267 49.12 123.947 48.864C123.627 48.5973 123.238 48.464 122.779 48.464C122.203 48.464 121.766 48.6293 121.467 48.96C121.168 49.28 120.955 49.6693 120.827 50.128L119.003 49.424C119.12 49.0507 119.286 48.6987 119.499 48.368C119.712 48.0267 119.979 47.728 120.299 47.472C120.63 47.216 121.014 47.0133 121.451 46.864C121.888 46.7147 122.39 46.64 122.955 46.64C123.542 46.64 124.064 46.7253 124.523 46.896C124.982 47.056 125.366 47.2853 125.675 47.584C125.995 47.8827 126.235 48.2347 126.395 48.64C126.566 49.0453 126.651 49.488 126.651 49.968C126.651 50.4373 126.576 50.864 126.427 51.248C126.278 51.632 126.075 52 125.819 52.352C125.563 52.6933 125.264 53.024 124.923 53.344C124.582 53.6533 124.219 53.968 123.835 54.288L121.483 56.224H126.939V58Z" fill="black"/>
<path d="M193.099 88.992V98H190.667V88.992H187.643V86.832H196.123V88.992H193.099ZM196.94 98V89.6H199.308V91.424H199.388C199.431 91.1893 199.505 90.9653 199.612 90.752C199.719 90.528 199.857 90.3307 200.028 90.16C200.209 89.9893 200.423 89.856 200.668 89.76C200.913 89.6533 201.201 89.6 201.532 89.6H201.948V91.808H201.356C200.663 91.808 200.145 91.8987 199.804 92.08C199.473 92.2613 199.308 92.5973 199.308 93.088V98H196.94ZM204.593 88.704C204.113 88.704 203.761 88.5973 203.537 88.384C203.323 88.16 203.217 87.8773 203.217 87.536V87.184C203.217 86.8427 203.323 86.5653 203.537 86.352C203.761 86.128 204.113 86.016 204.593 86.016C205.073 86.016 205.419 86.128 205.633 86.352C205.857 86.5653 205.969 86.8427 205.969 87.184V87.536C205.969 87.8773 205.857 88.16 205.633 88.384C205.419 88.5973 205.073 88.704 204.593 88.704ZM203.409 89.6H205.777V98H203.409V89.6ZM207.987 98V89.6H210.355V91.024H210.451C210.6 90.5867 210.861 90.208 211.235 89.888C211.608 89.568 212.125 89.408 212.787 89.408C213.651 89.408 214.301 89.696 214.739 90.272C215.187 90.848 215.411 91.6693 215.411 92.736V98H213.043V92.928C213.043 92.384 212.957 91.984 212.787 91.728C212.616 91.4613 212.312 91.328 211.875 91.328C211.683 91.328 211.496 91.3547 211.315 91.408C211.133 91.4507 210.968 91.5253 210.819 91.632C210.68 91.7387 210.568 91.872 210.483 92.032C210.397 92.1813 210.355 92.3573 210.355 92.56V98H207.987ZM224.387 91.248C224.985 91.248 225.417 91.136 225.683 90.912C225.961 90.6773 226.099 90.3893 226.099 90.048V89.936C226.099 89.5307 225.966 89.2053 225.699 88.96C225.443 88.7147 225.075 88.592 224.595 88.592C224.147 88.592 223.726 88.7093 223.331 88.944C222.937 89.168 222.601 89.4933 222.323 89.92L220.819 88.512C221.033 88.2347 221.262 87.984 221.507 87.76C221.753 87.5253 222.03 87.328 222.339 87.168C222.649 86.9973 222.995 86.8693 223.379 86.784C223.763 86.688 224.195 86.64 224.675 86.64C225.273 86.64 225.811 86.7093 226.291 86.848C226.782 86.9867 227.198 87.1893 227.539 87.456C227.891 87.712 228.158 88.0213 228.339 88.384C228.531 88.7467 228.627 89.152 228.627 89.6C228.627 89.952 228.569 90.272 228.451 90.56C228.345 90.848 228.19 91.0987 227.987 91.312C227.795 91.5253 227.571 91.7013 227.315 91.84C227.059 91.968 226.787 92.0587 226.499 92.112V92.208C226.83 92.272 227.134 92.3787 227.411 92.528C227.699 92.6667 227.945 92.848 228.147 93.072C228.361 93.296 228.526 93.5627 228.643 93.872C228.761 94.1707 228.819 94.512 228.819 94.896C228.819 95.3973 228.718 95.8507 228.515 96.256C228.313 96.6613 228.025 97.008 227.651 97.296C227.278 97.584 226.83 97.808 226.307 97.968C225.785 98.1173 225.209 98.192 224.579 98.192C224.014 98.192 223.513 98.1333 223.075 98.016C222.638 97.8987 222.254 97.744 221.923 97.552C221.603 97.3493 221.321 97.12 221.075 96.864C220.841 96.608 220.633 96.336 220.451 96.048L222.227 94.672C222.473 95.1307 222.771 95.5093 223.123 95.808C223.486 96.096 223.971 96.24 224.579 96.24C225.123 96.24 225.545 96.1067 225.843 95.84C226.153 95.5627 226.307 95.1893 226.307 94.72V94.624C226.307 94.1653 226.131 93.824 225.779 93.6C225.438 93.3653 224.963 93.248 224.355 93.248H223.347V91.248H224.387Z" fill="black"/>
<path d="M208.395 51.344C209.035 51.344 209.504 51.216 209.803 50.96C210.112 50.6933 210.267 50.3573 210.267 49.952V49.84C210.267 49.3813 210.118 49.024 209.819 48.768C209.531 48.5013 209.131 48.368 208.619 48.368C208.128 48.368 207.691 48.4853 207.307 48.72C206.934 48.9547 206.608 49.2853 206.331 49.712L204.987 48.496C205.179 48.24 205.387 48 205.611 47.776C205.846 47.5413 206.112 47.344 206.411 47.184C206.71 47.0133 207.046 46.88 207.419 46.784C207.792 46.688 208.214 46.64 208.683 46.64C209.248 46.64 209.76 46.7093 210.219 46.848C210.688 46.976 211.088 47.168 211.419 47.424C211.76 47.68 212.022 47.9893 212.203 48.352C212.384 48.704 212.475 49.104 212.475 49.552C212.475 49.9147 212.416 50.24 212.299 50.528C212.192 50.816 212.038 51.0667 211.835 51.28C211.643 51.4933 211.414 51.6693 211.147 51.808C210.891 51.936 210.619 52.032 210.331 52.096V52.192C210.651 52.256 210.955 52.3573 211.243 52.496C211.531 52.6347 211.776 52.8213 211.979 53.056C212.192 53.28 212.358 53.5467 212.475 53.856C212.603 54.1653 212.667 54.5173 212.667 54.912C212.667 55.4027 212.566 55.8507 212.363 56.256C212.171 56.6613 211.894 57.008 211.531 57.296C211.168 57.584 210.736 57.808 210.235 57.968C209.734 58.1173 209.174 58.192 208.555 58.192C208.011 58.192 207.531 58.1333 207.115 58.016C206.699 57.9093 206.331 57.76 206.011 57.568C205.702 57.376 205.43 57.1573 205.195 56.912C204.96 56.656 204.758 56.3893 204.587 56.112L206.139 54.928C206.267 55.152 206.406 55.36 206.555 55.552C206.704 55.7333 206.875 55.8933 207.067 56.032C207.259 56.1707 207.478 56.2773 207.723 56.352C207.968 56.4267 208.246 56.464 208.555 56.464C209.174 56.464 209.648 56.3147 209.979 56.016C210.31 55.7173 210.475 55.3067 210.475 54.784V54.672C210.475 54.16 210.294 53.7707 209.931 53.504C209.579 53.2373 209.067 53.104 208.395 53.104H207.291V51.344H208.395Z" fill="black"/>
<path d="M279.357 88.016V98H278.013V88.016H274.461V86.832H282.909V88.016H279.357ZM283.907 98V89.744H285.187V91.264H285.267C285.416 90.8693 285.683 90.5173 286.067 90.208C286.451 89.8987 286.979 89.744 287.651 89.744H288.147V91.024H287.395C286.702 91.024 286.158 91.1573 285.763 91.424C285.379 91.68 285.187 92.0053 285.187 92.4V98H283.907ZM290.422 87.808C290.145 87.808 289.942 87.744 289.814 87.616C289.697 87.4773 289.638 87.3013 289.638 87.088V86.88C289.638 86.6667 289.697 86.496 289.814 86.368C289.942 86.2293 290.145 86.16 290.422 86.16C290.699 86.16 290.897 86.2293 291.014 86.368C291.142 86.496 291.206 86.6667 291.206 86.88V87.088C291.206 87.3013 291.142 87.4773 291.014 87.616C290.897 87.744 290.699 87.808 290.422 87.808ZM289.782 89.744H291.062V98H289.782V89.744ZM293.782 98V89.744H295.062V91.088H295.126C295.329 90.6187 295.611 90.2453 295.974 89.968C296.347 89.6907 296.843 89.552 297.462 89.552C298.315 89.552 298.987 89.8293 299.478 90.384C299.979 90.928 300.23 91.7013 300.23 92.704V98H298.95V92.928C298.95 91.4453 298.326 90.704 297.078 90.704C296.822 90.704 296.571 90.736 296.326 90.8C296.091 90.864 295.878 90.96 295.686 91.088C295.494 91.216 295.339 91.3813 295.222 91.584C295.115 91.776 295.062 92.0053 295.062 92.272V98H293.782ZM311.297 98V95.808H305.905V94.624L310.577 86.832H312.577V94.688H314.193V95.808H312.577V98H311.297ZM307.169 94.688H311.297V87.872H311.217L307.169 94.688Z" fill="black"/>
<path d="M295.771 58V55.84H290.715V54.048L295.163 46.832H297.771V54.208H299.227V55.84H297.771V58H295.771ZM292.443 54.208H295.771V48.88H295.643L292.443 54.208Z" fill="black"/>
<path d="M367.357 88.016V98H366.013V88.016H362.461V86.832H370.909V88.016H367.357ZM371.907 98V89.744H373.187V91.264H373.267C373.416 90.8693 373.683 90.5173 374.067 90.208C374.451 89.8987 374.979 89.744 375.651 89.744H376.147V91.024H375.395C374.702 91.024 374.158 91.1573 373.763 91.424C373.379 91.68 373.187 92.0053 373.187 92.4V98H371.907ZM378.422 87.808C378.145 87.808 377.942 87.744 377.814 87.616C377.697 87.4773 377.638 87.3013 377.638 87.088V86.88C377.638 86.6667 377.697 86.496 377.814 86.368C377.942 86.2293 378.145 86.16 378.422 86.16C378.699 86.16 378.897 86.2293 379.014 86.368C379.142 86.496 379.206 86.6667 379.206 86.88V87.088C379.206 87.3013 379.142 87.4773 379.014 87.616C378.897 87.744 378.699 87.808 378.422 87.808ZM377.782 89.744H379.062V98H377.782V89.744ZM381.782 98V89.744H383.062V91.088H383.126C383.329 90.6187 383.611 90.2453 383.974 89.968C384.347 89.6907 384.843 89.552 385.462 89.552C386.315 89.552 386.987 89.8293 387.478 90.384C387.979 90.928 388.23 91.7013 388.23 92.704V98H386.95V92.928C386.95 91.4453 386.326 90.704 385.078 90.704C384.822 90.704 384.571 90.736 384.326 90.8C384.091 90.864 383.878 90.96 383.686 91.088C383.494 91.216 383.339 91.3813 383.222 91.584C383.115 91.776 383.062 92.0053 383.062 92.272V98H381.782ZM401.265 88.016H396.369L396.049 92.272H396.161C396.428 91.8987 396.726 91.6 397.057 91.376C397.398 91.152 397.862 91.04 398.449 91.04C398.929 91.04 399.372 91.12 399.777 91.28C400.182 91.44 400.534 91.6693 400.833 91.968C401.132 92.256 401.361 92.6133 401.521 93.04C401.692 93.4667 401.777 93.952 401.777 94.496C401.777 95.04 401.692 95.5413 401.521 96C401.35 96.448 401.1 96.8373 400.769 97.168C400.449 97.488 400.054 97.7387 399.585 97.92C399.126 98.1013 398.604 98.192 398.017 98.192C397.548 98.192 397.132 98.1387 396.769 98.032C396.417 97.9253 396.102 97.7813 395.825 97.6C395.548 97.4187 395.302 97.216 395.089 96.992C394.886 96.768 394.7 96.5333 394.529 96.288L395.537 95.52C395.676 95.744 395.82 95.9467 395.969 96.128C396.129 96.3093 396.3 96.464 396.481 96.592C396.673 96.72 396.892 96.8213 397.137 96.896C397.382 96.96 397.676 96.992 398.017 96.992C398.785 96.992 399.366 96.7893 399.761 96.384C400.156 95.9787 400.353 95.408 400.353 94.672V94.512C400.353 93.776 400.156 93.2053 399.761 92.8C399.366 92.3947 398.785 92.192 398.017 92.192C397.505 92.192 397.1 92.288 396.801 92.48C396.513 92.6613 396.252 92.88 396.017 93.136L394.881 92.976L395.281 86.832H401.265V88.016Z" fill="black"/>
<path d="M385.443 48.656H380.419L380.163 52.4H380.275C380.392 52.1653 380.52 51.9467 380.659 51.744C380.798 51.5413 380.958 51.3707 381.139 51.232C381.32 51.0933 381.528 50.9867 381.763 50.912C382.008 50.8267 382.302 50.784 382.643 50.784C383.123 50.784 383.571 50.864 383.987 51.024C384.403 51.184 384.76 51.4187 385.059 51.728C385.368 52.0267 385.608 52.3947 385.779 52.832C385.96 53.2693 386.051 53.7653 386.051 54.32C386.051 54.8853 385.96 55.4027 385.779 55.872C385.598 56.3413 385.331 56.752 384.979 57.104C384.627 57.4453 384.195 57.712 383.683 57.904C383.171 58.096 382.584 58.192 381.923 58.192C381.411 58.192 380.952 58.1333 380.547 58.016C380.142 57.9093 379.784 57.76 379.475 57.568C379.166 57.376 378.899 57.1573 378.675 56.912C378.451 56.656 378.254 56.3893 378.083 56.112L379.619 54.928C379.747 55.1413 379.88 55.344 380.019 55.536C380.158 55.7173 380.318 55.8773 380.499 56.016C380.691 56.1547 380.899 56.2667 381.123 56.352C381.358 56.4267 381.63 56.464 381.939 56.464C382.568 56.464 383.043 56.288 383.363 55.936C383.694 55.584 383.859 55.104 383.859 54.496V54.368C383.859 53.792 383.694 53.3387 383.363 53.008C383.032 52.6773 382.574 52.512 381.987 52.512C381.528 52.512 381.155 52.6027 380.867 52.784C380.579 52.9547 380.35 53.1413 380.179 53.344L378.451 53.104L378.867 46.832H385.443V48.656Z" fill="black"/>
</svg>
