<svg width="418" height="358" viewBox="0 0 418 358" fill="none" xmlns="http://www.w3.org/2000/svg">
<g clip-path="url(#clip0_5010_49155)">
<rect width="418" height="358" fill="white"/>
<rect width="268" height="40" transform="translate(16 16)" fill="white"/>
<rect width="268" height="1" transform="matrix(1 0 0 -1 16 17)" fill="#747474"/>
<path d="M42.192 32.592H42.112L41.168 34.464L38.496 39.328L35.824 34.464L34.88 32.592H34.8V42H33.488V30.832H35.28L38.48 36.848H38.56L41.776 30.832H43.504V42H42.192V32.592ZM49.4484 42.192C48.883 42.192 48.371 42.0907 47.9124 41.888C47.4644 41.6853 47.075 41.3973 46.7444 41.024C46.4244 40.64 46.1737 40.1867 45.9924 39.664C45.8217 39.1307 45.7364 38.5333 45.7364 37.872C45.7364 37.2213 45.8217 36.6293 45.9924 36.096C46.1737 35.5627 46.4244 35.1093 46.7444 34.736C47.075 34.352 47.4644 34.0587 47.9124 33.856C48.371 33.6533 48.883 33.552 49.4484 33.552C50.003 33.552 50.499 33.6533 50.9364 33.856C51.3737 34.0587 51.747 34.3413 52.0564 34.704C52.3657 35.056 52.6004 35.4773 52.7604 35.968C52.931 36.4587 53.0164 36.9973 53.0164 37.584V38.192H47.0804V38.576C47.0804 38.928 47.1337 39.2587 47.2404 39.568C47.3577 39.8667 47.5177 40.128 47.7204 40.352C47.9337 40.576 48.1897 40.752 48.4884 40.88C48.7977 41.008 49.1444 41.072 49.5284 41.072C50.051 41.072 50.5044 40.9493 50.8884 40.704C51.283 40.4587 51.587 40.1067 51.8004 39.648L52.7124 40.304C52.4457 40.8693 52.0297 41.328 51.4644 41.68C50.899 42.0213 50.227 42.192 49.4484 42.192ZM49.4484 34.624C49.0964 34.624 48.7764 34.688 48.4884 34.816C48.2004 34.9333 47.9497 35.104 47.7364 35.328C47.5337 35.552 47.3737 35.8187 47.2564 36.128C47.139 36.4267 47.0804 36.7573 47.0804 37.12V37.232H51.6404V37.056C51.6404 36.32 51.4377 35.7333 51.0324 35.296C50.6377 34.848 50.1097 34.624 49.4484 34.624ZM55.1256 42V33.744H56.4056V35.088H56.4696C56.6723 34.6187 56.955 34.2453 57.3176 33.968C57.691 33.6907 58.187 33.552 58.8056 33.552C59.659 33.552 60.331 33.8293 60.8216 34.384C61.323 34.928 61.5736 35.7013 61.5736 36.704V42H60.2936V36.928C60.2936 35.4453 59.6696 34.704 58.4216 34.704C58.1656 34.704 57.915 34.736 57.6696 34.8C57.435 34.864 57.2216 34.96 57.0296 35.088C56.8376 35.216 56.683 35.3813 56.5656 35.584C56.459 35.776 56.4056 36.0053 56.4056 36.272V42H55.1256ZM69.3074 40.656H69.2434C69.158 40.848 69.0514 41.04 68.9234 41.232C68.806 41.4133 68.6567 41.5787 68.4754 41.728C68.294 41.8667 68.0754 41.9787 67.8194 42.064C67.5634 42.1493 67.2647 42.192 66.9234 42.192C66.07 42.192 65.3927 41.92 64.8914 41.376C64.39 40.8213 64.1394 40.0427 64.1394 39.04V33.744H65.4194V38.816C65.4194 40.2987 66.0487 41.04 67.3074 41.04C67.5634 41.04 67.8087 41.008 68.0434 40.944C68.2887 40.88 68.502 40.784 68.6834 40.656C68.8754 40.528 69.0247 40.368 69.1314 40.176C69.2487 39.9733 69.3074 39.7333 69.3074 39.456V33.744H70.5874V42H69.3074V40.656ZM73.3131 33.744H74.5931V35.088H74.6571C74.8705 34.5653 75.1798 34.1813 75.5851 33.936C76.0011 33.68 76.4971 33.552 77.0731 33.552C77.5851 33.552 78.0491 33.6533 78.4651 33.856C78.8811 34.0587 79.2331 34.3467 79.5211 34.72C79.8198 35.0933 80.0438 35.5467 80.1931 36.08C80.3531 36.6133 80.4331 37.2107 80.4331 37.872C80.4331 38.5333 80.3531 39.1307 80.1931 39.664C80.0438 40.1973 79.8198 40.6507 79.5211 41.024C79.2331 41.3973 78.8811 41.6853 78.4651 41.888C78.0491 42.0907 77.5851 42.192 77.0731 42.192C75.9531 42.192 75.1478 41.68 74.6571 40.656H74.5931V45.2H73.3131V33.744ZM76.7211 41.04C77.4465 41.04 78.0171 40.816 78.4331 40.368C78.8491 39.9093 79.0571 39.312 79.0571 38.576V37.168C79.0571 36.432 78.8491 35.84 78.4331 35.392C78.0171 34.9333 77.4465 34.704 76.7211 34.704C76.4331 34.704 76.1558 34.7467 75.8891 34.832C75.6331 34.9067 75.4091 35.0133 75.2171 35.152C75.0251 35.2907 74.8705 35.4613 74.7531 35.664C74.6465 35.856 74.5931 36.064 74.5931 36.288V39.36C74.5931 39.6267 74.6465 39.8667 74.7531 40.08C74.8705 40.2827 75.0251 40.4587 75.2171 40.608C75.4091 40.7467 75.6331 40.8533 75.8891 40.928C76.1558 41.0027 76.4331 41.04 76.7211 41.04ZM87.6824 40.656H87.6184C87.533 40.848 87.4264 41.04 87.2984 41.232C87.181 41.4133 87.0317 41.5787 86.8504 41.728C86.669 41.8667 86.4504 41.9787 86.1944 42.064C85.9384 42.1493 85.6397 42.192 85.2984 42.192C84.445 42.192 83.7677 41.92 83.2664 41.376C82.765 40.8213 82.5144 40.0427 82.5144 39.04V33.744H83.7944V38.816C83.7944 40.2987 84.4237 41.04 85.6824 41.04C85.9384 41.04 86.1837 41.008 86.4184 40.944C86.6637 40.88 86.877 40.784 87.0584 40.656C87.2504 40.528 87.3997 40.368 87.5064 40.176C87.6237 39.9733 87.6824 39.7333 87.6824 39.456V33.744H88.9624V42H87.6824V40.656ZM91.6881 42V33.744H92.9681V35.088H93.0321C93.2348 34.6187 93.5175 34.2453 93.8801 33.968C94.2535 33.6907 94.7495 33.552 95.3681 33.552C96.2215 33.552 96.8935 33.8293 97.3841 34.384C97.8855 34.928 98.1361 35.7013 98.1361 36.704V42H96.8561V36.928C96.8561 35.4453 96.2321 34.704 94.9841 34.704C94.7281 34.704 94.4775 34.736 94.2321 34.8C93.9975 34.864 93.7841 34.96 93.5921 35.088C93.4001 35.216 93.2455 35.3813 93.1281 35.584C93.0215 35.776 92.9681 36.0053 92.9681 36.272V42H91.6881ZM100.782 30.16H102.062V37.664H102.126L103.39 36.256L105.726 33.744H107.278L104.222 37.008L107.582 42H106.03L103.294 37.792L102.062 39.056V42H100.782V30.16ZM110.887 42C110.439 42 110.098 41.8773 109.863 41.632C109.639 41.376 109.527 41.0453 109.527 40.64V34.864H108.167V33.744H108.935C109.212 33.744 109.399 33.6907 109.495 33.584C109.602 33.4667 109.655 33.2693 109.655 32.992V31.456H110.807V33.744H112.615V34.864H110.807V40.88H112.487V42H110.887Z" fill="#1A1A1A"/>
<rect width="268" height="1" transform="matrix(1 0 0 -1 16 56)" fill="#BFBFBF"/>
<rect width="268" height="40" transform="translate(16 56)" fill="white"/>
<rect width="268" height="1" transform="matrix(1 0 0 -1 16 57)" fill="white"/>
<path d="M42.192 72.592H42.112L41.168 74.464L38.496 79.328L35.824 74.464L34.88 72.592H34.8V82H33.488V70.832H35.28L38.48 76.848H38.56L41.776 70.832H43.504V82H42.192V72.592ZM49.4484 82.192C48.883 82.192 48.371 82.0907 47.9124 81.888C47.4644 81.6853 47.075 81.3973 46.7444 81.024C46.4244 80.64 46.1737 80.1867 45.9924 79.664C45.8217 79.1307 45.7364 78.5333 45.7364 77.872C45.7364 77.2213 45.8217 76.6293 45.9924 76.096C46.1737 75.5627 46.4244 75.1093 46.7444 74.736C47.075 74.352 47.4644 74.0587 47.9124 73.856C48.371 73.6533 48.883 73.552 49.4484 73.552C50.003 73.552 50.499 73.6533 50.9364 73.856C51.3737 74.0587 51.747 74.3413 52.0564 74.704C52.3657 75.056 52.6004 75.4773 52.7604 75.968C52.931 76.4587 53.0164 76.9973 53.0164 77.584V78.192H47.0804V78.576C47.0804 78.928 47.1337 79.2587 47.2404 79.568C47.3577 79.8667 47.5177 80.128 47.7204 80.352C47.9337 80.576 48.1897 80.752 48.4884 80.88C48.7977 81.008 49.1444 81.072 49.5284 81.072C50.051 81.072 50.5044 80.9493 50.8884 80.704C51.283 80.4587 51.587 80.1067 51.8004 79.648L52.7124 80.304C52.4457 80.8693 52.0297 81.328 51.4644 81.68C50.899 82.0213 50.227 82.192 49.4484 82.192ZM49.4484 74.624C49.0964 74.624 48.7764 74.688 48.4884 74.816C48.2004 74.9333 47.9497 75.104 47.7364 75.328C47.5337 75.552 47.3737 75.8187 47.2564 76.128C47.139 76.4267 47.0804 76.7573 47.0804 77.12V77.232H51.6404V77.056C51.6404 76.32 51.4377 75.7333 51.0324 75.296C50.6377 74.848 50.1097 74.624 49.4484 74.624ZM55.1256 82V73.744H56.4056V75.088H56.4696C56.6723 74.6187 56.955 74.2453 57.3176 73.968C57.691 73.6907 58.187 73.552 58.8056 73.552C59.659 73.552 60.331 73.8293 60.8216 74.384C61.323 74.928 61.5736 75.7013 61.5736 76.704V82H60.2936V76.928C60.2936 75.4453 59.6696 74.704 58.4216 74.704C58.1656 74.704 57.915 74.736 57.6696 74.8C57.435 74.864 57.2216 74.96 57.0296 75.088C56.8376 75.216 56.683 75.3813 56.5656 75.584C56.459 75.776 56.4056 76.0053 56.4056 76.272V82H55.1256ZM69.3074 80.656H69.2434C69.158 80.848 69.0514 81.04 68.9234 81.232C68.806 81.4133 68.6567 81.5787 68.4754 81.728C68.294 81.8667 68.0754 81.9787 67.8194 82.064C67.5634 82.1493 67.2647 82.192 66.9234 82.192C66.07 82.192 65.3927 81.92 64.8914 81.376C64.39 80.8213 64.1394 80.0427 64.1394 79.04V73.744H65.4194V78.816C65.4194 80.2987 66.0487 81.04 67.3074 81.04C67.5634 81.04 67.8087 81.008 68.0434 80.944C68.2887 80.88 68.502 80.784 68.6834 80.656C68.8754 80.528 69.0247 80.368 69.1314 80.176C69.2487 79.9733 69.3074 79.7333 69.3074 79.456V73.744H70.5874V82H69.3074V80.656ZM73.3131 73.744H74.5931V75.088H74.6571C74.8705 74.5653 75.1798 74.1813 75.5851 73.936C76.0011 73.68 76.4971 73.552 77.0731 73.552C77.5851 73.552 78.0491 73.6533 78.4651 73.856C78.8811 74.0587 79.2331 74.3467 79.5211 74.72C79.8198 75.0933 80.0438 75.5467 80.1931 76.08C80.3531 76.6133 80.4331 77.2107 80.4331 77.872C80.4331 78.5333 80.3531 79.1307 80.1931 79.664C80.0438 80.1973 79.8198 80.6507 79.5211 81.024C79.2331 81.3973 78.8811 81.6853 78.4651 81.888C78.0491 82.0907 77.5851 82.192 77.0731 82.192C75.9531 82.192 75.1478 81.68 74.6571 80.656H74.5931V85.2H73.3131V73.744ZM76.7211 81.04C77.4465 81.04 78.0171 80.816 78.4331 80.368C78.8491 79.9093 79.0571 79.312 79.0571 78.576V77.168C79.0571 76.432 78.8491 75.84 78.4331 75.392C78.0171 74.9333 77.4465 74.704 76.7211 74.704C76.4331 74.704 76.1558 74.7467 75.8891 74.832C75.6331 74.9067 75.4091 75.0133 75.2171 75.152C75.0251 75.2907 74.8705 75.4613 74.7531 75.664C74.6465 75.856 74.5931 76.064 74.5931 76.288V79.36C74.5931 79.6267 74.6465 79.8667 74.7531 80.08C74.8705 80.2827 75.0251 80.4587 75.2171 80.608C75.4091 80.7467 75.6331 80.8533 75.8891 80.928C76.1558 81.0027 76.4331 81.04 76.7211 81.04ZM87.6824 80.656H87.6184C87.533 80.848 87.4264 81.04 87.2984 81.232C87.181 81.4133 87.0317 81.5787 86.8504 81.728C86.669 81.8667 86.4504 81.9787 86.1944 82.064C85.9384 82.1493 85.6397 82.192 85.2984 82.192C84.445 82.192 83.7677 81.92 83.2664 81.376C82.765 80.8213 82.5144 80.0427 82.5144 79.04V73.744H83.7944V78.816C83.7944 80.2987 84.4237 81.04 85.6824 81.04C85.9384 81.04 86.1837 81.008 86.4184 80.944C86.6637 80.88 86.877 80.784 87.0584 80.656C87.2504 80.528 87.3997 80.368 87.5064 80.176C87.6237 79.9733 87.6824 79.7333 87.6824 79.456V73.744H88.9624V82H87.6824V80.656ZM91.6881 82V73.744H92.9681V75.088H93.0321C93.2348 74.6187 93.5175 74.2453 93.8801 73.968C94.2535 73.6907 94.7495 73.552 95.3681 73.552C96.2215 73.552 96.8935 73.8293 97.3841 74.384C97.8855 74.928 98.1361 75.7013 98.1361 76.704V82H96.8561V76.928C96.8561 75.4453 96.2321 74.704 94.9841 74.704C94.7281 74.704 94.4775 74.736 94.2321 74.8C93.9975 74.864 93.7841 74.96 93.5921 75.088C93.4001 75.216 93.2455 75.3813 93.1281 75.584C93.0215 75.776 92.9681 76.0053 92.9681 76.272V82H91.6881ZM100.782 70.16H102.062V77.664H102.126L103.39 76.256L105.726 73.744H107.278L104.222 77.008L107.582 82H106.03L103.294 77.792L102.062 79.056V82H100.782V70.16ZM110.887 82C110.439 82 110.098 81.8773 109.863 81.632C109.639 81.376 109.527 81.0453 109.527 80.64V74.864H108.167V73.744H108.935C109.212 73.744 109.399 73.6907 109.495 73.584C109.602 73.4667 109.655 73.2693 109.655 72.992V71.456H110.807V73.744H112.615V74.864H110.807V80.88H112.487V82H110.887Z" fill="#1A1A1A"/>
<rect width="268" height="1" transform="matrix(1 0 0 -1 16 96)" fill="#BFBFBF"/>
<g clip-path="url(#clip1_5010_49155)">
<rect width="268" height="40" transform="translate(16 96)" fill="white"/>
<rect width="268" height="1" transform="matrix(1 0 0 -1 16 97)" fill="white"/>
<path d="M40.918 112.768H40.848L40.022 114.406L37.684 118.662L35.346 114.406L34.52 112.768H34.45V121H33.302V111.228H34.87L37.67 116.492H37.74L40.554 111.228H42.066V121H40.918V112.768ZM47.2673 121.168C46.7727 121.168 46.3247 121.079 45.9233 120.902C45.5313 120.725 45.1907 120.473 44.9013 120.146C44.6213 119.81 44.402 119.413 44.2433 118.956C44.094 118.489 44.0193 117.967 44.0193 117.388C44.0193 116.819 44.094 116.301 44.2433 115.834C44.402 115.367 44.6213 114.971 44.9013 114.644C45.1907 114.308 45.5313 114.051 45.9233 113.874C46.3247 113.697 46.7727 113.608 47.2673 113.608C47.7527 113.608 48.1867 113.697 48.5693 113.874C48.952 114.051 49.2787 114.299 49.5493 114.616C49.82 114.924 50.0253 115.293 50.1653 115.722C50.3147 116.151 50.3893 116.623 50.3893 117.136V117.668H45.1953V118.004C45.1953 118.312 45.242 118.601 45.3353 118.872C45.438 119.133 45.578 119.362 45.7553 119.558C45.942 119.754 46.166 119.908 46.4273 120.02C46.698 120.132 47.0013 120.188 47.3373 120.188C47.7947 120.188 48.1913 120.081 48.5273 119.866C48.8727 119.651 49.1387 119.343 49.3253 118.942L50.1233 119.516C49.89 120.011 49.526 120.412 49.0313 120.72C48.5367 121.019 47.9487 121.168 47.2673 121.168ZM47.2673 114.546C46.9593 114.546 46.6793 114.602 46.4273 114.714C46.1753 114.817 45.956 114.966 45.7693 115.162C45.592 115.358 45.452 115.591 45.3493 115.862C45.2467 116.123 45.1953 116.413 45.1953 116.73V116.828H49.1853V116.674C49.1853 116.03 49.008 115.517 48.6533 115.134C48.308 114.742 47.846 114.546 47.2673 114.546ZM52.2349 121V113.776H53.3549V114.952H53.4109C53.5883 114.541 53.8356 114.215 54.1529 113.972C54.4796 113.729 54.9136 113.608 55.4549 113.608C56.2016 113.608 56.7896 113.851 57.2189 114.336C57.6576 114.812 57.8769 115.489 57.8769 116.366V121H56.7569V116.562C56.7569 115.265 56.2109 114.616 55.1189 114.616C54.8949 114.616 54.6756 114.644 54.4609 114.7C54.2556 114.756 54.0689 114.84 53.9009 114.952C53.7329 115.064 53.5976 115.209 53.4949 115.386C53.4016 115.554 53.3549 115.755 53.3549 115.988V121H52.2349ZM64.644 119.824H64.588C64.5133 119.992 64.42 120.16 64.308 120.328C64.2053 120.487 64.0746 120.631 63.916 120.762C63.7573 120.883 63.566 120.981 63.342 121.056C63.118 121.131 62.8566 121.168 62.558 121.168C61.8113 121.168 61.2186 120.93 60.78 120.454C60.3413 119.969 60.122 119.287 60.122 118.41V113.776H61.242V118.214C61.242 119.511 61.7926 120.16 62.894 120.16C63.118 120.16 63.3326 120.132 63.538 120.076C63.7526 120.02 63.9393 119.936 64.098 119.824C64.266 119.712 64.3966 119.572 64.49 119.404C64.5926 119.227 64.644 119.017 64.644 118.774V113.776H65.764V121H64.644V119.824ZM68.149 113.776H69.269V114.952H69.325C69.5117 114.495 69.7823 114.159 70.137 113.944C70.501 113.72 70.935 113.608 71.439 113.608C71.887 113.608 72.293 113.697 72.657 113.874C73.021 114.051 73.329 114.303 73.581 114.63C73.8423 114.957 74.0383 115.353 74.169 115.82C74.309 116.287 74.379 116.809 74.379 117.388C74.379 117.967 74.309 118.489 74.169 118.956C74.0383 119.423 73.8423 119.819 73.581 120.146C73.329 120.473 73.021 120.725 72.657 120.902C72.293 121.079 71.887 121.168 71.439 121.168C70.459 121.168 69.7543 120.72 69.325 119.824H69.269V123.8H68.149V113.776ZM71.131 120.16C71.7657 120.16 72.265 119.964 72.629 119.572C72.993 119.171 73.175 118.648 73.175 118.004V116.772C73.175 116.128 72.993 115.61 72.629 115.218C72.265 114.817 71.7657 114.616 71.131 114.616C70.879 114.616 70.6363 114.653 70.403 114.728C70.179 114.793 69.983 114.887 69.815 115.008C69.647 115.129 69.5117 115.279 69.409 115.456C69.3157 115.624 69.269 115.806 69.269 116.002V118.69C69.269 118.923 69.3157 119.133 69.409 119.32C69.5117 119.497 69.647 119.651 69.815 119.782C69.983 119.903 70.179 119.997 70.403 120.062C70.6363 120.127 70.879 120.16 71.131 120.16ZM80.7221 119.824H80.6661C80.5914 119.992 80.4981 120.16 80.3861 120.328C80.2834 120.487 80.1527 120.631 79.9941 120.762C79.8354 120.883 79.6441 120.981 79.4201 121.056C79.1961 121.131 78.9347 121.168 78.6361 121.168C77.8894 121.168 77.2967 120.93 76.8581 120.454C76.4194 119.969 76.2001 119.287 76.2001 118.41V113.776H77.3201V118.214C77.3201 119.511 77.8707 120.16 78.9721 120.16C79.1961 120.16 79.4107 120.132 79.6161 120.076C79.8307 120.02 80.0174 119.936 80.1761 119.824C80.3441 119.712 80.4747 119.572 80.5681 119.404C80.6707 119.227 80.7221 119.017 80.7221 118.774V113.776H81.8421V121H80.7221V119.824ZM84.2271 121V113.776H85.3471V114.952H85.4031C85.5804 114.541 85.8278 114.215 86.1451 113.972C86.4718 113.729 86.9058 113.608 87.4471 113.608C88.1938 113.608 88.7818 113.851 89.2111 114.336C89.6498 114.812 89.8691 115.489 89.8691 116.366V121H88.7491V116.562C88.7491 115.265 88.2031 114.616 87.1111 114.616C86.8871 114.616 86.6678 114.644 86.4531 114.7C86.2478 114.756 86.0611 114.84 85.8931 114.952C85.7251 115.064 85.5898 115.209 85.4871 115.386C85.3938 115.554 85.3471 115.755 85.3471 115.988V121H84.2271ZM92.1841 110.64H93.3041V117.206H93.3601L94.4661 115.974L96.5101 113.776H97.8681L95.1941 116.632L98.1341 121H96.7761L94.3821 117.318L93.3041 118.424V121H92.1841V110.64ZM101.026 121C100.634 121 100.336 120.893 100.13 120.678C99.9342 120.454 99.8362 120.165 99.8362 119.81V114.756H98.6462V113.776H99.3182C99.5609 113.776 99.7242 113.729 99.8082 113.636C99.9016 113.533 99.9482 113.361 99.9482 113.118V111.774H100.956V113.776H102.538V114.756H100.956V120.02H102.426V121H101.026Z" fill="#1A1A1A"/>
<rect width="268" height="1" transform="matrix(1 0 0 -1 16 136)" fill="#DCDCDC"/>
<rect x="16" y="72" width="4" height="143" fill="white"/>
</g>
<g clip-path="url(#clip2_5010_49155)">
<rect width="268" height="40" transform="translate(16 136)" fill="white"/>
<rect width="268" height="1" transform="matrix(1 0 0 -1 16 137)" fill="white"/>
<path d="M40.68 153.524H40.61L39.84 155.106L37.698 159.012L35.556 155.106L34.786 153.524H34.716V161H33.204V151.228H35.08L37.698 156.198H37.782L40.4 151.228H42.192V161H40.68V153.524ZM47.3503 161.168C46.8277 161.168 46.361 161.079 45.9503 160.902C45.5397 160.725 45.1897 160.473 44.9003 160.146C44.611 159.81 44.387 159.409 44.2283 158.942C44.079 158.466 44.0043 157.939 44.0043 157.36C44.0043 156.781 44.079 156.259 44.2283 155.792C44.387 155.316 44.611 154.915 44.9003 154.588C45.1897 154.252 45.5397 153.995 45.9503 153.818C46.361 153.641 46.8277 153.552 47.3503 153.552C47.8823 153.552 48.349 153.645 48.7503 153.832C49.161 154.019 49.5017 154.28 49.7723 154.616C50.043 154.943 50.2437 155.325 50.3743 155.764C50.5143 156.203 50.5843 156.674 50.5843 157.178V157.752H45.5863V157.99C45.5863 158.55 45.7497 159.012 46.0763 159.376C46.4123 159.731 46.8883 159.908 47.5043 159.908C47.9523 159.908 48.3303 159.81 48.6383 159.614C48.9463 159.418 49.2077 159.152 49.4223 158.816L50.3183 159.698C50.0477 160.146 49.6557 160.505 49.1423 160.776C48.629 161.037 48.0317 161.168 47.3503 161.168ZM47.3503 154.742C47.089 154.742 46.8463 154.789 46.6223 154.882C46.4077 154.975 46.221 155.106 46.0623 155.274C45.913 155.442 45.7963 155.643 45.7123 155.876C45.6283 156.109 45.5863 156.366 45.5863 156.646V156.744H48.9743V156.604C48.9743 156.044 48.8297 155.596 48.5403 155.26C48.251 154.915 47.8543 154.742 47.3503 154.742ZM52.2736 161V153.72H53.7996V154.924H53.8696C54.0283 154.532 54.2663 154.205 54.5836 153.944C54.9103 153.683 55.3536 153.552 55.9136 153.552C56.6603 153.552 57.239 153.799 57.6496 154.294C58.0696 154.779 58.2796 155.475 58.2796 156.38V161H56.7536V156.576C56.7536 155.437 56.2963 154.868 55.3816 154.868C55.1856 154.868 54.9896 154.896 54.7936 154.952C54.607 154.999 54.439 155.073 54.2896 155.176C54.1403 155.279 54.019 155.409 53.9256 155.568C53.8416 155.727 53.7996 155.913 53.7996 156.128V161H52.2736ZM64.8047 159.796H64.7487C64.6834 159.973 64.5947 160.146 64.4827 160.314C64.3801 160.482 64.2447 160.631 64.0767 160.762C63.9181 160.883 63.7221 160.981 63.4887 161.056C63.2647 161.131 63.0034 161.168 62.7047 161.168C61.9487 161.168 61.3607 160.925 60.9407 160.44C60.5301 159.955 60.3247 159.259 60.3247 158.354V153.72H61.8507V158.158C61.8507 159.287 62.3174 159.852 63.2507 159.852C63.4467 159.852 63.6381 159.829 63.8247 159.782C64.0114 159.726 64.1747 159.647 64.3147 159.544C64.4641 159.441 64.5807 159.311 64.6647 159.152C64.7581 158.993 64.8047 158.807 64.8047 158.592V153.72H66.3307V161H64.8047V159.796ZM68.5158 153.72H70.0418V154.924H70.1118C70.2705 154.485 70.5272 154.149 70.8818 153.916C71.2458 153.673 71.6705 153.552 72.1558 153.552C73.0798 153.552 73.7938 153.888 74.2978 154.56C74.8018 155.223 75.0538 156.156 75.0538 157.36C75.0538 158.564 74.8018 159.502 74.2978 160.174C73.7938 160.837 73.0798 161.168 72.1558 161.168C71.6705 161.168 71.2458 161.047 70.8818 160.804C70.5272 160.561 70.2705 160.225 70.1118 159.796H70.0418V163.8H68.5158V153.72ZM71.6938 159.852C72.2258 159.852 72.6505 159.684 72.9678 159.348C73.2852 159.003 73.4438 158.55 73.4438 157.99V156.73C73.4438 156.17 73.2852 155.722 72.9678 155.386C72.6505 155.041 72.2258 154.868 71.6938 154.868C71.2272 154.868 70.8352 154.985 70.5178 155.218C70.2005 155.442 70.0418 155.741 70.0418 156.114V158.606C70.0418 158.979 70.2005 159.283 70.5178 159.516C70.8352 159.74 71.2272 159.852 71.6938 159.852ZM81.211 159.796H81.155C81.0897 159.973 81.001 160.146 80.889 160.314C80.7863 160.482 80.651 160.631 80.483 160.762C80.3243 160.883 80.1283 160.981 79.895 161.056C79.671 161.131 79.4097 161.168 79.111 161.168C78.355 161.168 77.767 160.925 77.347 160.44C76.9363 159.955 76.731 159.259 76.731 158.354V153.72H78.257V158.158C78.257 159.287 78.7237 159.852 79.657 159.852C79.853 159.852 80.0443 159.829 80.231 159.782C80.4177 159.726 80.581 159.647 80.721 159.544C80.8703 159.441 80.987 159.311 81.071 159.152C81.1643 158.993 81.211 158.807 81.211 158.592V153.72H82.737V161H81.211V159.796ZM84.9221 161V153.72H86.4481V154.924H86.5181C86.6767 154.532 86.9147 154.205 87.2321 153.944C87.5587 153.683 88.0021 153.552 88.5621 153.552C89.3087 153.552 89.8874 153.799 90.2981 154.294C90.7181 154.779 90.9281 155.475 90.9281 156.38V161H89.4021V156.576C89.4021 155.437 88.9447 154.868 88.0301 154.868C87.8341 154.868 87.6381 154.896 87.4421 154.952C87.2554 154.999 87.0874 155.073 86.9381 155.176C86.7887 155.279 86.6674 155.409 86.5741 155.568C86.4901 155.727 86.4481 155.913 86.4481 156.128V161H84.9221ZM93.0432 150.64H94.5692V156.996H94.6392L95.6472 155.694L97.3972 153.72H99.1752L96.6272 156.534L99.4832 161H97.6632L95.5772 157.528L94.5692 158.62V161H93.0432V150.64ZM102.579 161C102.047 161 101.645 160.865 101.375 160.594C101.104 160.314 100.969 159.922 100.969 159.418V154.966H99.8347V153.72H100.451C100.703 153.72 100.875 153.664 100.969 153.552C101.071 153.44 101.123 153.258 101.123 153.006V151.732H102.495V153.72H104.021V154.966H102.495V159.754H103.909V161H102.579Z" fill="#1A1A1A"/>
<rect width="268" height="1" transform="matrix(1 0 0 -1 16 176)" fill="#DCDCDC"/>
<rect x="16" y="112" width="4" height="143" fill="white"/>
</g>
<g clip-path="url(#clip3_5010_49155)">
<rect width="268" height="40" transform="translate(16 176)" fill="white"/>
<rect width="268" height="1" transform="matrix(1 0 0 -1 16 177)" fill="white"/>
<path d="M40.918 192.768H40.848L40.022 194.406L37.684 198.662L35.346 194.406L34.52 192.768H34.45V201H33.302V191.228H34.87L37.67 196.492H37.74L40.554 191.228H42.066V201H40.918V192.768ZM47.2673 201.168C46.7727 201.168 46.3247 201.079 45.9233 200.902C45.5313 200.725 45.1907 200.473 44.9013 200.146C44.6213 199.81 44.402 199.413 44.2433 198.956C44.094 198.489 44.0193 197.967 44.0193 197.388C44.0193 196.819 44.094 196.301 44.2433 195.834C44.402 195.367 44.6213 194.971 44.9013 194.644C45.1907 194.308 45.5313 194.051 45.9233 193.874C46.3247 193.697 46.7727 193.608 47.2673 193.608C47.7527 193.608 48.1867 193.697 48.5693 193.874C48.952 194.051 49.2787 194.299 49.5493 194.616C49.82 194.924 50.0253 195.293 50.1653 195.722C50.3147 196.151 50.3893 196.623 50.3893 197.136V197.668H45.1953V198.004C45.1953 198.312 45.242 198.601 45.3353 198.872C45.438 199.133 45.578 199.362 45.7553 199.558C45.942 199.754 46.166 199.908 46.4273 200.02C46.698 200.132 47.0013 200.188 47.3373 200.188C47.7947 200.188 48.1913 200.081 48.5273 199.866C48.8727 199.651 49.1387 199.343 49.3253 198.942L50.1233 199.516C49.89 200.011 49.526 200.412 49.0313 200.72C48.5367 201.019 47.9487 201.168 47.2673 201.168ZM47.2673 194.546C46.9593 194.546 46.6793 194.602 46.4273 194.714C46.1753 194.817 45.956 194.966 45.7693 195.162C45.592 195.358 45.452 195.591 45.3493 195.862C45.2467 196.123 45.1953 196.413 45.1953 196.73V196.828H49.1853V196.674C49.1853 196.03 49.008 195.517 48.6533 195.134C48.308 194.742 47.846 194.546 47.2673 194.546ZM52.2349 201V193.776H53.3549V194.952H53.4109C53.5883 194.541 53.8356 194.215 54.1529 193.972C54.4796 193.729 54.9136 193.608 55.4549 193.608C56.2016 193.608 56.7896 193.851 57.2189 194.336C57.6576 194.812 57.8769 195.489 57.8769 196.366V201H56.7569V196.562C56.7569 195.265 56.2109 194.616 55.1189 194.616C54.8949 194.616 54.6756 194.644 54.4609 194.7C54.2556 194.756 54.0689 194.84 53.9009 194.952C53.7329 195.064 53.5976 195.209 53.4949 195.386C53.4016 195.554 53.3549 195.755 53.3549 195.988V201H52.2349ZM64.644 199.824H64.588C64.5133 199.992 64.42 200.16 64.308 200.328C64.2053 200.487 64.0746 200.631 63.916 200.762C63.7573 200.883 63.566 200.981 63.342 201.056C63.118 201.131 62.8566 201.168 62.558 201.168C61.8113 201.168 61.2186 200.93 60.78 200.454C60.3413 199.969 60.122 199.287 60.122 198.41V193.776H61.242V198.214C61.242 199.511 61.7926 200.16 62.894 200.16C63.118 200.16 63.3326 200.132 63.538 200.076C63.7526 200.02 63.9393 199.936 64.098 199.824C64.266 199.712 64.3966 199.572 64.49 199.404C64.5926 199.227 64.644 199.017 64.644 198.774V193.776H65.764V201H64.644V199.824ZM68.149 193.776H69.269V194.952H69.325C69.5117 194.495 69.7823 194.159 70.137 193.944C70.501 193.72 70.935 193.608 71.439 193.608C71.887 193.608 72.293 193.697 72.657 193.874C73.021 194.051 73.329 194.303 73.581 194.63C73.8423 194.957 74.0383 195.353 74.169 195.82C74.309 196.287 74.379 196.809 74.379 197.388C74.379 197.967 74.309 198.489 74.169 198.956C74.0383 199.423 73.8423 199.819 73.581 200.146C73.329 200.473 73.021 200.725 72.657 200.902C72.293 201.079 71.887 201.168 71.439 201.168C70.459 201.168 69.7543 200.72 69.325 199.824H69.269V203.8H68.149V193.776ZM71.131 200.16C71.7657 200.16 72.265 199.964 72.629 199.572C72.993 199.171 73.175 198.648 73.175 198.004V196.772C73.175 196.128 72.993 195.61 72.629 195.218C72.265 194.817 71.7657 194.616 71.131 194.616C70.879 194.616 70.6363 194.653 70.403 194.728C70.179 194.793 69.983 194.887 69.815 195.008C69.647 195.129 69.5117 195.279 69.409 195.456C69.3157 195.624 69.269 195.806 69.269 196.002V198.69C69.269 198.923 69.3157 199.133 69.409 199.32C69.5117 199.497 69.647 199.651 69.815 199.782C69.983 199.903 70.179 199.997 70.403 200.062C70.6363 200.127 70.879 200.16 71.131 200.16ZM80.7221 199.824H80.6661C80.5914 199.992 80.4981 200.16 80.3861 200.328C80.2834 200.487 80.1527 200.631 79.9941 200.762C79.8354 200.883 79.6441 200.981 79.4201 201.056C79.1961 201.131 78.9347 201.168 78.6361 201.168C77.8894 201.168 77.2967 200.93 76.8581 200.454C76.4194 199.969 76.2001 199.287 76.2001 198.41V193.776H77.3201V198.214C77.3201 199.511 77.8707 200.16 78.9721 200.16C79.1961 200.16 79.4107 200.132 79.6161 200.076C79.8307 200.02 80.0174 199.936 80.1761 199.824C80.3441 199.712 80.4747 199.572 80.5681 199.404C80.6707 199.227 80.7221 199.017 80.7221 198.774V193.776H81.8421V201H80.7221V199.824ZM84.2271 201V193.776H85.3471V194.952H85.4031C85.5804 194.541 85.8278 194.215 86.1451 193.972C86.4718 193.729 86.9058 193.608 87.4471 193.608C88.1938 193.608 88.7818 193.851 89.2111 194.336C89.6498 194.812 89.8691 195.489 89.8691 196.366V201H88.7491V196.562C88.7491 195.265 88.2031 194.616 87.1111 194.616C86.8871 194.616 86.6678 194.644 86.4531 194.7C86.2478 194.756 86.0611 194.84 85.8931 194.952C85.7251 195.064 85.5898 195.209 85.4871 195.386C85.3938 195.554 85.3471 195.755 85.3471 195.988V201H84.2271ZM92.1841 190.64H93.3041V197.206H93.3601L94.4661 195.974L96.5101 193.776H97.8681L95.1941 196.632L98.1341 201H96.7761L94.3821 197.318L93.3041 198.424V201H92.1841V190.64ZM101.026 201C100.634 201 100.336 200.893 100.13 200.678C99.9342 200.454 99.8362 200.165 99.8362 199.81V194.756H98.6462V193.776H99.3182C99.5609 193.776 99.7242 193.729 99.8082 193.636C99.9016 193.533 99.9482 193.361 99.9482 193.118V191.774H100.956V193.776H102.538V194.756H100.956V200.02H102.426V201H101.026Z" fill="#1A1A1A"/>
<rect width="268" height="1" transform="matrix(1 0 0 -1 16 216)" fill="#DCDCDC"/>
<rect x="16" y="152" width="4" height="143" fill="white"/>
</g>
<g clip-path="url(#clip4_5010_49155)">
<rect width="268" height="40" transform="translate(16 216)" fill="white"/>
<rect width="268" height="1" transform="matrix(1 0 0 -1 16 217)" fill="white"/>
<path d="M40.918 232.768H40.848L40.022 234.406L37.684 238.662L35.346 234.406L34.52 232.768H34.45V241H33.302V231.228H34.87L37.67 236.492H37.74L40.554 231.228H42.066V241H40.918V232.768ZM47.2673 241.168C46.7727 241.168 46.3247 241.079 45.9233 240.902C45.5313 240.725 45.1907 240.473 44.9013 240.146C44.6213 239.81 44.402 239.413 44.2433 238.956C44.094 238.489 44.0193 237.967 44.0193 237.388C44.0193 236.819 44.094 236.301 44.2433 235.834C44.402 235.367 44.6213 234.971 44.9013 234.644C45.1907 234.308 45.5313 234.051 45.9233 233.874C46.3247 233.697 46.7727 233.608 47.2673 233.608C47.7527 233.608 48.1867 233.697 48.5693 233.874C48.952 234.051 49.2787 234.299 49.5493 234.616C49.82 234.924 50.0253 235.293 50.1653 235.722C50.3147 236.151 50.3893 236.623 50.3893 237.136V237.668H45.1953V238.004C45.1953 238.312 45.242 238.601 45.3353 238.872C45.438 239.133 45.578 239.362 45.7553 239.558C45.942 239.754 46.166 239.908 46.4273 240.02C46.698 240.132 47.0013 240.188 47.3373 240.188C47.7947 240.188 48.1913 240.081 48.5273 239.866C48.8727 239.651 49.1387 239.343 49.3253 238.942L50.1233 239.516C49.89 240.011 49.526 240.412 49.0313 240.72C48.5367 241.019 47.9487 241.168 47.2673 241.168ZM47.2673 234.546C46.9593 234.546 46.6793 234.602 46.4273 234.714C46.1753 234.817 45.956 234.966 45.7693 235.162C45.592 235.358 45.452 235.591 45.3493 235.862C45.2467 236.123 45.1953 236.413 45.1953 236.73V236.828H49.1853V236.674C49.1853 236.03 49.008 235.517 48.6533 235.134C48.308 234.742 47.846 234.546 47.2673 234.546ZM52.2349 241V233.776H53.3549V234.952H53.4109C53.5883 234.541 53.8356 234.215 54.1529 233.972C54.4796 233.729 54.9136 233.608 55.4549 233.608C56.2016 233.608 56.7896 233.851 57.2189 234.336C57.6576 234.812 57.8769 235.489 57.8769 236.366V241H56.7569V236.562C56.7569 235.265 56.2109 234.616 55.1189 234.616C54.8949 234.616 54.6756 234.644 54.4609 234.7C54.2556 234.756 54.0689 234.84 53.9009 234.952C53.7329 235.064 53.5976 235.209 53.4949 235.386C53.4016 235.554 53.3549 235.755 53.3549 235.988V241H52.2349ZM64.644 239.824H64.588C64.5133 239.992 64.42 240.16 64.308 240.328C64.2053 240.487 64.0746 240.631 63.916 240.762C63.7573 240.883 63.566 240.981 63.342 241.056C63.118 241.131 62.8566 241.168 62.558 241.168C61.8113 241.168 61.2186 240.93 60.78 240.454C60.3413 239.969 60.122 239.287 60.122 238.41V233.776H61.242V238.214C61.242 239.511 61.7926 240.16 62.894 240.16C63.118 240.16 63.3326 240.132 63.538 240.076C63.7526 240.02 63.9393 239.936 64.098 239.824C64.266 239.712 64.3966 239.572 64.49 239.404C64.5926 239.227 64.644 239.017 64.644 238.774V233.776H65.764V241H64.644V239.824ZM68.149 233.776H69.269V234.952H69.325C69.5117 234.495 69.7823 234.159 70.137 233.944C70.501 233.72 70.935 233.608 71.439 233.608C71.887 233.608 72.293 233.697 72.657 233.874C73.021 234.051 73.329 234.303 73.581 234.63C73.8423 234.957 74.0383 235.353 74.169 235.82C74.309 236.287 74.379 236.809 74.379 237.388C74.379 237.967 74.309 238.489 74.169 238.956C74.0383 239.423 73.8423 239.819 73.581 240.146C73.329 240.473 73.021 240.725 72.657 240.902C72.293 241.079 71.887 241.168 71.439 241.168C70.459 241.168 69.7543 240.72 69.325 239.824H69.269V243.8H68.149V233.776ZM71.131 240.16C71.7657 240.16 72.265 239.964 72.629 239.572C72.993 239.171 73.175 238.648 73.175 238.004V236.772C73.175 236.128 72.993 235.61 72.629 235.218C72.265 234.817 71.7657 234.616 71.131 234.616C70.879 234.616 70.6363 234.653 70.403 234.728C70.179 234.793 69.983 234.887 69.815 235.008C69.647 235.129 69.5117 235.279 69.409 235.456C69.3157 235.624 69.269 235.806 69.269 236.002V238.69C69.269 238.923 69.3157 239.133 69.409 239.32C69.5117 239.497 69.647 239.651 69.815 239.782C69.983 239.903 70.179 239.997 70.403 240.062C70.6363 240.127 70.879 240.16 71.131 240.16ZM80.7221 239.824H80.6661C80.5914 239.992 80.4981 240.16 80.3861 240.328C80.2834 240.487 80.1527 240.631 79.9941 240.762C79.8354 240.883 79.6441 240.981 79.4201 241.056C79.1961 241.131 78.9347 241.168 78.6361 241.168C77.8894 241.168 77.2967 240.93 76.8581 240.454C76.4194 239.969 76.2001 239.287 76.2001 238.41V233.776H77.3201V238.214C77.3201 239.511 77.8707 240.16 78.9721 240.16C79.1961 240.16 79.4107 240.132 79.6161 240.076C79.8307 240.02 80.0174 239.936 80.1761 239.824C80.3441 239.712 80.4747 239.572 80.5681 239.404C80.6707 239.227 80.7221 239.017 80.7221 238.774V233.776H81.8421V241H80.7221V239.824ZM84.2271 241V233.776H85.3471V234.952H85.4031C85.5804 234.541 85.8278 234.215 86.1451 233.972C86.4718 233.729 86.9058 233.608 87.4471 233.608C88.1938 233.608 88.7818 233.851 89.2111 234.336C89.6498 234.812 89.8691 235.489 89.8691 236.366V241H88.7491V236.562C88.7491 235.265 88.2031 234.616 87.1111 234.616C86.8871 234.616 86.6678 234.644 86.4531 234.7C86.2478 234.756 86.0611 234.84 85.8931 234.952C85.7251 235.064 85.5898 235.209 85.4871 235.386C85.3938 235.554 85.3471 235.755 85.3471 235.988V241H84.2271ZM92.1841 230.64H93.3041V237.206H93.3601L94.4661 235.974L96.5101 233.776H97.8681L95.1941 236.632L98.1341 241H96.7761L94.3821 237.318L93.3041 238.424V241H92.1841V230.64ZM101.026 241C100.634 241 100.336 240.893 100.13 240.678C99.9342 240.454 99.8362 240.165 99.8362 239.81V234.756H98.6462V233.776H99.3182C99.5609 233.776 99.7242 233.729 99.8082 233.636C99.9016 233.533 99.9482 233.361 99.9482 233.118V231.774H100.956V233.776H102.538V234.756H100.956V240.02H102.426V241H101.026Z" fill="#1A1A1A"/>
<rect width="268" height="1" transform="matrix(1 0 0 -1 16 256)" fill="#DCDCDC"/>
<rect x="16" y="192" width="4" height="143" fill="white"/>
</g>
<g clip-path="url(#clip5_5010_49155)">
<rect width="268" height="40" transform="translate(16 256)" fill="white"/>
<rect width="268" height="1" transform="matrix(1 0 0 -1 16 257)" fill="white"/>
<path d="M40.918 272.768H40.848L40.022 274.406L37.684 278.662L35.346 274.406L34.52 272.768H34.45V281H33.302V271.228H34.87L37.67 276.492H37.74L40.554 271.228H42.066V281H40.918V272.768ZM47.2673 281.168C46.7727 281.168 46.3247 281.079 45.9233 280.902C45.5313 280.725 45.1907 280.473 44.9013 280.146C44.6213 279.81 44.402 279.413 44.2433 278.956C44.094 278.489 44.0193 277.967 44.0193 277.388C44.0193 276.819 44.094 276.301 44.2433 275.834C44.402 275.367 44.6213 274.971 44.9013 274.644C45.1907 274.308 45.5313 274.051 45.9233 273.874C46.3247 273.697 46.7727 273.608 47.2673 273.608C47.7527 273.608 48.1867 273.697 48.5693 273.874C48.952 274.051 49.2787 274.299 49.5493 274.616C49.82 274.924 50.0253 275.293 50.1653 275.722C50.3147 276.151 50.3893 276.623 50.3893 277.136V277.668H45.1953V278.004C45.1953 278.312 45.242 278.601 45.3353 278.872C45.438 279.133 45.578 279.362 45.7553 279.558C45.942 279.754 46.166 279.908 46.4273 280.02C46.698 280.132 47.0013 280.188 47.3373 280.188C47.7947 280.188 48.1913 280.081 48.5273 279.866C48.8727 279.651 49.1387 279.343 49.3253 278.942L50.1233 279.516C49.89 280.011 49.526 280.412 49.0313 280.72C48.5367 281.019 47.9487 281.168 47.2673 281.168ZM47.2673 274.546C46.9593 274.546 46.6793 274.602 46.4273 274.714C46.1753 274.817 45.956 274.966 45.7693 275.162C45.592 275.358 45.452 275.591 45.3493 275.862C45.2467 276.123 45.1953 276.413 45.1953 276.73V276.828H49.1853V276.674C49.1853 276.03 49.008 275.517 48.6533 275.134C48.308 274.742 47.846 274.546 47.2673 274.546ZM52.2349 281V273.776H53.3549V274.952H53.4109C53.5883 274.541 53.8356 274.215 54.1529 273.972C54.4796 273.729 54.9136 273.608 55.4549 273.608C56.2016 273.608 56.7896 273.851 57.2189 274.336C57.6576 274.812 57.8769 275.489 57.8769 276.366V281H56.7569V276.562C56.7569 275.265 56.2109 274.616 55.1189 274.616C54.8949 274.616 54.6756 274.644 54.4609 274.7C54.2556 274.756 54.0689 274.84 53.9009 274.952C53.7329 275.064 53.5976 275.209 53.4949 275.386C53.4016 275.554 53.3549 275.755 53.3549 275.988V281H52.2349ZM64.644 279.824H64.588C64.5133 279.992 64.42 280.16 64.308 280.328C64.2053 280.487 64.0746 280.631 63.916 280.762C63.7573 280.883 63.566 280.981 63.342 281.056C63.118 281.131 62.8566 281.168 62.558 281.168C61.8113 281.168 61.2186 280.93 60.78 280.454C60.3413 279.969 60.122 279.287 60.122 278.41V273.776H61.242V278.214C61.242 279.511 61.7926 280.16 62.894 280.16C63.118 280.16 63.3326 280.132 63.538 280.076C63.7526 280.02 63.9393 279.936 64.098 279.824C64.266 279.712 64.3966 279.572 64.49 279.404C64.5926 279.227 64.644 279.017 64.644 278.774V273.776H65.764V281H64.644V279.824ZM68.149 273.776H69.269V274.952H69.325C69.5117 274.495 69.7823 274.159 70.137 273.944C70.501 273.72 70.935 273.608 71.439 273.608C71.887 273.608 72.293 273.697 72.657 273.874C73.021 274.051 73.329 274.303 73.581 274.63C73.8423 274.957 74.0383 275.353 74.169 275.82C74.309 276.287 74.379 276.809 74.379 277.388C74.379 277.967 74.309 278.489 74.169 278.956C74.0383 279.423 73.8423 279.819 73.581 280.146C73.329 280.473 73.021 280.725 72.657 280.902C72.293 281.079 71.887 281.168 71.439 281.168C70.459 281.168 69.7543 280.72 69.325 279.824H69.269V283.8H68.149V273.776ZM71.131 280.16C71.7657 280.16 72.265 279.964 72.629 279.572C72.993 279.171 73.175 278.648 73.175 278.004V276.772C73.175 276.128 72.993 275.61 72.629 275.218C72.265 274.817 71.7657 274.616 71.131 274.616C70.879 274.616 70.6363 274.653 70.403 274.728C70.179 274.793 69.983 274.887 69.815 275.008C69.647 275.129 69.5117 275.279 69.409 275.456C69.3157 275.624 69.269 275.806 69.269 276.002V278.69C69.269 278.923 69.3157 279.133 69.409 279.32C69.5117 279.497 69.647 279.651 69.815 279.782C69.983 279.903 70.179 279.997 70.403 280.062C70.6363 280.127 70.879 280.16 71.131 280.16ZM80.7221 279.824H80.6661C80.5914 279.992 80.4981 280.16 80.3861 280.328C80.2834 280.487 80.1527 280.631 79.9941 280.762C79.8354 280.883 79.6441 280.981 79.4201 281.056C79.1961 281.131 78.9347 281.168 78.6361 281.168C77.8894 281.168 77.2967 280.93 76.8581 280.454C76.4194 279.969 76.2001 279.287 76.2001 278.41V273.776H77.3201V278.214C77.3201 279.511 77.8707 280.16 78.9721 280.16C79.1961 280.16 79.4107 280.132 79.6161 280.076C79.8307 280.02 80.0174 279.936 80.1761 279.824C80.3441 279.712 80.4747 279.572 80.5681 279.404C80.6707 279.227 80.7221 279.017 80.7221 278.774V273.776H81.8421V281H80.7221V279.824ZM84.2271 281V273.776H85.3471V274.952H85.4031C85.5804 274.541 85.8278 274.215 86.1451 273.972C86.4718 273.729 86.9058 273.608 87.4471 273.608C88.1938 273.608 88.7818 273.851 89.2111 274.336C89.6498 274.812 89.8691 275.489 89.8691 276.366V281H88.7491V276.562C88.7491 275.265 88.2031 274.616 87.1111 274.616C86.8871 274.616 86.6678 274.644 86.4531 274.7C86.2478 274.756 86.0611 274.84 85.8931 274.952C85.7251 275.064 85.5898 275.209 85.4871 275.386C85.3938 275.554 85.3471 275.755 85.3471 275.988V281H84.2271ZM92.1841 270.64H93.3041V277.206H93.3601L94.4661 275.974L96.5101 273.776H97.8681L95.1941 276.632L98.1341 281H96.7761L94.3821 277.318L93.3041 278.424V281H92.1841V270.64ZM101.026 281C100.634 281 100.336 280.893 100.13 280.678C99.9342 280.454 99.8362 280.165 99.8362 279.81V274.756H98.6462V273.776H99.3182C99.5609 273.776 99.7242 273.729 99.8082 273.636C99.9016 273.533 99.9482 273.361 99.9482 273.118V271.774H100.956V273.776H102.538V274.756H100.956V280.02H102.426V281H101.026Z" fill="#1A1A1A"/>
<rect width="268" height="1" transform="matrix(1 0 0 -1 16 296)" fill="#BFBFBF"/>
<rect x="16" y="232" width="4" height="143" fill="white"/>
</g>
<rect width="268" height="40" transform="translate(16 296)" fill="white"/>
<rect width="268" height="1" transform="matrix(1 0 0 -1 16 297)" fill="white"/>
<path d="M42.192 312.592H42.112L41.168 314.464L38.496 319.328L35.824 314.464L34.88 312.592H34.8V322H33.488V310.832H35.28L38.48 316.848H38.56L41.776 310.832H43.504V322H42.192V312.592ZM49.4484 322.192C48.883 322.192 48.371 322.091 47.9124 321.888C47.4644 321.685 47.075 321.397 46.7444 321.024C46.4244 320.64 46.1737 320.187 45.9924 319.664C45.8217 319.131 45.7364 318.533 45.7364 317.872C45.7364 317.221 45.8217 316.629 45.9924 316.096C46.1737 315.563 46.4244 315.109 46.7444 314.736C47.075 314.352 47.4644 314.059 47.9124 313.856C48.371 313.653 48.883 313.552 49.4484 313.552C50.003 313.552 50.499 313.653 50.9364 313.856C51.3737 314.059 51.747 314.341 52.0564 314.704C52.3657 315.056 52.6004 315.477 52.7604 315.968C52.931 316.459 53.0164 316.997 53.0164 317.584V318.192H47.0804V318.576C47.0804 318.928 47.1337 319.259 47.2404 319.568C47.3577 319.867 47.5177 320.128 47.7204 320.352C47.9337 320.576 48.1897 320.752 48.4884 320.88C48.7977 321.008 49.1444 321.072 49.5284 321.072C50.051 321.072 50.5044 320.949 50.8884 320.704C51.283 320.459 51.587 320.107 51.8004 319.648L52.7124 320.304C52.4457 320.869 52.0297 321.328 51.4644 321.68C50.899 322.021 50.227 322.192 49.4484 322.192ZM49.4484 314.624C49.0964 314.624 48.7764 314.688 48.4884 314.816C48.2004 314.933 47.9497 315.104 47.7364 315.328C47.5337 315.552 47.3737 315.819 47.2564 316.128C47.139 316.427 47.0804 316.757 47.0804 317.12V317.232H51.6404V317.056C51.6404 316.32 51.4377 315.733 51.0324 315.296C50.6377 314.848 50.1097 314.624 49.4484 314.624ZM55.1256 322V313.744H56.4056V315.088H56.4696C56.6723 314.619 56.955 314.245 57.3176 313.968C57.691 313.691 58.187 313.552 58.8056 313.552C59.659 313.552 60.331 313.829 60.8216 314.384C61.323 314.928 61.5736 315.701 61.5736 316.704V322H60.2936V316.928C60.2936 315.445 59.6696 314.704 58.4216 314.704C58.1656 314.704 57.915 314.736 57.6696 314.8C57.435 314.864 57.2216 314.96 57.0296 315.088C56.8376 315.216 56.683 315.381 56.5656 315.584C56.459 315.776 56.4056 316.005 56.4056 316.272V322H55.1256ZM69.3074 320.656H69.2434C69.158 320.848 69.0514 321.04 68.9234 321.232C68.806 321.413 68.6567 321.579 68.4754 321.728C68.294 321.867 68.0754 321.979 67.8194 322.064C67.5634 322.149 67.2647 322.192 66.9234 322.192C66.07 322.192 65.3927 321.92 64.8914 321.376C64.39 320.821 64.1394 320.043 64.1394 319.04V313.744H65.4194V318.816C65.4194 320.299 66.0487 321.04 67.3074 321.04C67.5634 321.04 67.8087 321.008 68.0434 320.944C68.2887 320.88 68.502 320.784 68.6834 320.656C68.8754 320.528 69.0247 320.368 69.1314 320.176C69.2487 319.973 69.3074 319.733 69.3074 319.456V313.744H70.5874V322H69.3074V320.656ZM73.3131 313.744H74.5931V315.088H74.6571C74.8705 314.565 75.1798 314.181 75.5851 313.936C76.0011 313.68 76.4971 313.552 77.0731 313.552C77.5851 313.552 78.0491 313.653 78.4651 313.856C78.8811 314.059 79.2331 314.347 79.5211 314.72C79.8198 315.093 80.0438 315.547 80.1931 316.08C80.3531 316.613 80.4331 317.211 80.4331 317.872C80.4331 318.533 80.3531 319.131 80.1931 319.664C80.0438 320.197 79.8198 320.651 79.5211 321.024C79.2331 321.397 78.8811 321.685 78.4651 321.888C78.0491 322.091 77.5851 322.192 77.0731 322.192C75.9531 322.192 75.1478 321.68 74.6571 320.656H74.5931V325.2H73.3131V313.744ZM76.7211 321.04C77.4465 321.04 78.0171 320.816 78.4331 320.368C78.8491 319.909 79.0571 319.312 79.0571 318.576V317.168C79.0571 316.432 78.8491 315.84 78.4331 315.392C78.0171 314.933 77.4465 314.704 76.7211 314.704C76.4331 314.704 76.1558 314.747 75.8891 314.832C75.6331 314.907 75.4091 315.013 75.2171 315.152C75.0251 315.291 74.8705 315.461 74.7531 315.664C74.6465 315.856 74.5931 316.064 74.5931 316.288V319.36C74.5931 319.627 74.6465 319.867 74.7531 320.08C74.8705 320.283 75.0251 320.459 75.2171 320.608C75.4091 320.747 75.6331 320.853 75.8891 320.928C76.1558 321.003 76.4331 321.04 76.7211 321.04ZM87.6824 320.656H87.6184C87.533 320.848 87.4264 321.04 87.2984 321.232C87.181 321.413 87.0317 321.579 86.8504 321.728C86.669 321.867 86.4504 321.979 86.1944 322.064C85.9384 322.149 85.6397 322.192 85.2984 322.192C84.445 322.192 83.7677 321.92 83.2664 321.376C82.765 320.821 82.5144 320.043 82.5144 319.04V313.744H83.7944V318.816C83.7944 320.299 84.4237 321.04 85.6824 321.04C85.9384 321.04 86.1837 321.008 86.4184 320.944C86.6637 320.88 86.877 320.784 87.0584 320.656C87.2504 320.528 87.3997 320.368 87.5064 320.176C87.6237 319.973 87.6824 319.733 87.6824 319.456V313.744H88.9624V322H87.6824V320.656ZM91.6881 322V313.744H92.9681V315.088H93.0321C93.2348 314.619 93.5175 314.245 93.8801 313.968C94.2535 313.691 94.7495 313.552 95.3681 313.552C96.2215 313.552 96.8935 313.829 97.3841 314.384C97.8855 314.928 98.1361 315.701 98.1361 316.704V322H96.8561V316.928C96.8561 315.445 96.2321 314.704 94.9841 314.704C94.7281 314.704 94.4775 314.736 94.2321 314.8C93.9975 314.864 93.7841 314.96 93.5921 315.088C93.4001 315.216 93.2455 315.381 93.1281 315.584C93.0215 315.776 92.9681 316.005 92.9681 316.272V322H91.6881ZM100.782 310.16H102.062V317.664H102.126L103.39 316.256L105.726 313.744H107.278L104.222 317.008L107.582 322H106.03L103.294 317.792L102.062 319.056V322H100.782V310.16ZM110.887 322C110.439 322 110.098 321.877 109.863 321.632C109.639 321.376 109.527 321.045 109.527 320.64V314.864H108.167V313.744H108.935C109.212 313.744 109.399 313.691 109.495 313.584C109.602 313.467 109.655 313.269 109.655 312.992V311.456H110.807V313.744H112.615V314.864H110.807V320.88H112.487V322H110.887Z" fill="#1A1A1A"/>
<rect width="268" height="1" transform="matrix(1 0 0 -1 16 336)" fill="#BFBFBF"/>
<rect width="268" height="40" transform="translate(16 336)" fill="white"/>
<rect width="268" height="1" transform="matrix(1 0 0 -1 16 337)" fill="white"/>
<path d="M42.192 352.592H42.112L41.168 354.464L38.496 359.328L35.824 354.464L34.88 352.592H34.8V362H33.488V350.832H35.28L38.48 356.848H38.56L41.776 350.832H43.504V362H42.192V352.592ZM49.4484 362.192C48.883 362.192 48.371 362.091 47.9124 361.888C47.4644 361.685 47.075 361.397 46.7444 361.024C46.4244 360.64 46.1737 360.187 45.9924 359.664C45.8217 359.131 45.7364 358.533 45.7364 357.872C45.7364 357.221 45.8217 356.629 45.9924 356.096C46.1737 355.563 46.4244 355.109 46.7444 354.736C47.075 354.352 47.4644 354.059 47.9124 353.856C48.371 353.653 48.883 353.552 49.4484 353.552C50.003 353.552 50.499 353.653 50.9364 353.856C51.3737 354.059 51.747 354.341 52.0564 354.704C52.3657 355.056 52.6004 355.477 52.7604 355.968C52.931 356.459 53.0164 356.997 53.0164 357.584V358.192H47.0804V358.576C47.0804 358.928 47.1337 359.259 47.2404 359.568C47.3577 359.867 47.5177 360.128 47.7204 360.352C47.9337 360.576 48.1897 360.752 48.4884 360.88C48.7977 361.008 49.1444 361.072 49.5284 361.072C50.051 361.072 50.5044 360.949 50.8884 360.704C51.283 360.459 51.587 360.107 51.8004 359.648L52.7124 360.304C52.4457 360.869 52.0297 361.328 51.4644 361.68C50.899 362.021 50.227 362.192 49.4484 362.192ZM49.4484 354.624C49.0964 354.624 48.7764 354.688 48.4884 354.816C48.2004 354.933 47.9497 355.104 47.7364 355.328C47.5337 355.552 47.3737 355.819 47.2564 356.128C47.139 356.427 47.0804 356.757 47.0804 357.12V357.232H51.6404V357.056C51.6404 356.32 51.4377 355.733 51.0324 355.296C50.6377 354.848 50.1097 354.624 49.4484 354.624ZM55.1256 362V353.744H56.4056V355.088H56.4696C56.6723 354.619 56.955 354.245 57.3176 353.968C57.691 353.691 58.187 353.552 58.8056 353.552C59.659 353.552 60.331 353.829 60.8216 354.384C61.323 354.928 61.5736 355.701 61.5736 356.704V362H60.2936V356.928C60.2936 355.445 59.6696 354.704 58.4216 354.704C58.1656 354.704 57.915 354.736 57.6696 354.8C57.435 354.864 57.2216 354.96 57.0296 355.088C56.8376 355.216 56.683 355.381 56.5656 355.584C56.459 355.776 56.4056 356.005 56.4056 356.272V362H55.1256ZM69.3074 360.656H69.2434C69.158 360.848 69.0514 361.04 68.9234 361.232C68.806 361.413 68.6567 361.579 68.4754 361.728C68.294 361.867 68.0754 361.979 67.8194 362.064C67.5634 362.149 67.2647 362.192 66.9234 362.192C66.07 362.192 65.3927 361.92 64.8914 361.376C64.39 360.821 64.1394 360.043 64.1394 359.04V353.744H65.4194V358.816C65.4194 360.299 66.0487 361.04 67.3074 361.04C67.5634 361.04 67.8087 361.008 68.0434 360.944C68.2887 360.88 68.502 360.784 68.6834 360.656C68.8754 360.528 69.0247 360.368 69.1314 360.176C69.2487 359.973 69.3074 359.733 69.3074 359.456V353.744H70.5874V362H69.3074V360.656ZM73.3131 353.744H74.5931V355.088H74.6571C74.8705 354.565 75.1798 354.181 75.5851 353.936C76.0011 353.68 76.4971 353.552 77.0731 353.552C77.5851 353.552 78.0491 353.653 78.4651 353.856C78.8811 354.059 79.2331 354.347 79.5211 354.72C79.8198 355.093 80.0438 355.547 80.1931 356.08C80.3531 356.613 80.4331 357.211 80.4331 357.872C80.4331 358.533 80.3531 359.131 80.1931 359.664C80.0438 360.197 79.8198 360.651 79.5211 361.024C79.2331 361.397 78.8811 361.685 78.4651 361.888C78.0491 362.091 77.5851 362.192 77.0731 362.192C75.9531 362.192 75.1478 361.68 74.6571 360.656H74.5931V365.2H73.3131V353.744ZM76.7211 361.04C77.4465 361.04 78.0171 360.816 78.4331 360.368C78.8491 359.909 79.0571 359.312 79.0571 358.576V357.168C79.0571 356.432 78.8491 355.84 78.4331 355.392C78.0171 354.933 77.4465 354.704 76.7211 354.704C76.4331 354.704 76.1558 354.747 75.8891 354.832C75.6331 354.907 75.4091 355.013 75.2171 355.152C75.0251 355.291 74.8705 355.461 74.7531 355.664C74.6465 355.856 74.5931 356.064 74.5931 356.288V359.36C74.5931 359.627 74.6465 359.867 74.7531 360.08C74.8705 360.283 75.0251 360.459 75.2171 360.608C75.4091 360.747 75.6331 360.853 75.8891 360.928C76.1558 361.003 76.4331 361.04 76.7211 361.04ZM87.6824 360.656H87.6184C87.533 360.848 87.4264 361.04 87.2984 361.232C87.181 361.413 87.0317 361.579 86.8504 361.728C86.669 361.867 86.4504 361.979 86.1944 362.064C85.9384 362.149 85.6397 362.192 85.2984 362.192C84.445 362.192 83.7677 361.92 83.2664 361.376C82.765 360.821 82.5144 360.043 82.5144 359.04V353.744H83.7944V358.816C83.7944 360.299 84.4237 361.04 85.6824 361.04C85.9384 361.04 86.1837 361.008 86.4184 360.944C86.6637 360.88 86.877 360.784 87.0584 360.656C87.2504 360.528 87.3997 360.368 87.5064 360.176C87.6237 359.973 87.6824 359.733 87.6824 359.456V353.744H88.9624V362H87.6824V360.656ZM91.6881 362V353.744H92.9681V355.088H93.0321C93.2348 354.619 93.5175 354.245 93.8801 353.968C94.2535 353.691 94.7495 353.552 95.3681 353.552C96.2215 353.552 96.8935 353.829 97.3841 354.384C97.8855 354.928 98.1361 355.701 98.1361 356.704V362H96.8561V356.928C96.8561 355.445 96.2321 354.704 94.9841 354.704C94.7281 354.704 94.4775 354.736 94.2321 354.8C93.9975 354.864 93.7841 354.96 93.5921 355.088C93.4001 355.216 93.2455 355.381 93.1281 355.584C93.0215 355.776 92.9681 356.005 92.9681 356.272V362H91.6881ZM100.782 350.16H102.062V357.664H102.126L103.39 356.256L105.726 353.744H107.278L104.222 357.008L107.582 362H106.03L103.294 357.792L102.062 359.056V362H100.782V350.16ZM110.887 362C110.439 362 110.098 361.877 109.863 361.632C109.639 361.376 109.527 361.045 109.527 360.64V354.864H108.167V353.744H108.935C109.212 353.744 109.399 353.691 109.495 353.584C109.602 353.467 109.655 353.269 109.655 352.992V351.456H110.807V353.744H112.615V354.864H110.807V360.88H112.487V362H110.887Z" fill="#1A1A1A"/>
</g>
<defs>
<clipPath id="clip0_5010_49155">
<rect width="418" height="358" fill="white"/>
</clipPath>
<clipPath id="clip1_5010_49155">
<rect width="268" height="40" fill="white" transform="translate(16 96)"/>
</clipPath>
<clipPath id="clip2_5010_49155">
<rect width="268" height="40" fill="white" transform="translate(16 136)"/>
</clipPath>
<clipPath id="clip3_5010_49155">
<rect width="268" height="40" fill="white" transform="translate(16 176)"/>
</clipPath>
<clipPath id="clip4_5010_49155">
<rect width="268" height="40" fill="white" transform="translate(16 216)"/>
</clipPath>
<clipPath id="clip5_5010_49155">
<rect width="268" height="40" fill="white" transform="translate(16 256)"/>
</clipPath>
</defs>
</svg>
