<?xml version="1.0" encoding="utf-8"?>
<!-- Generator: Adobe Illustrator 25.2.0, SVG Export Plug-In . SVG Version: 6.00 Build 0)  -->
<svg version="1.1" id="Layer_1" xmlns="http://www.w3.org/2000/svg" xmlns:xlink="http://www.w3.org/1999/xlink" x="0px" y="0px"
	 viewBox="0 0 703 388.6" style="enable-background:new 0 0 703 388.6;" xml:space="preserve">
<style type="text/css">
	.st0{fill:none;stroke:#000000;}
	.st1{fill:#2171B5;}
	.st2{fill:#D94801;}
	.st3{fill:#AE017E;}
	.st4{fill:#54278F;}
	.st5{fill:#238B45;}
	.st6{fill:#C7E9C0;}
	.st7{fill:#C6DBEF;}
	.st8{fill:#9E9AC8;}
	.st9{fill:#FA9FB5;}
</style>
<path class="st0" d="M304,42.3L294,6.8h-73"/>
<path d="M148.2,10.1L148.2,10.1c-0.2,0.5-0.5,1-1,1.4c-0.5,0.4-1.2,0.5-2,0.5c-0.7,0-1.3-0.1-1.8-0.4c-0.6-0.2-1-0.6-1.5-1.1
	c-0.4-0.5-0.7-1.1-1-1.8c-0.2-0.7-0.4-1.5-0.4-2.5c0-0.9,0.1-1.8,0.4-2.5c0.2-0.7,0.6-1.3,1-1.8c0.4-0.5,1-0.9,1.6-1.1
	c0.6-0.3,1.3-0.4,2-0.4c1,0,1.9,0.2,2.6,0.7c0.7,0.4,1.3,1.1,1.7,1.9L148,4c-0.2-0.5-0.5-0.9-0.9-1.2c-0.4-0.3-0.9-0.5-1.6-0.5
	c-0.8,0-1.5,0.3-2,0.8c-0.5,0.5-0.7,1.2-0.7,2.2v1.8c0,1,0.3,1.7,0.8,2.2c0.5,0.5,1.2,0.8,2,0.8c0.3,0,0.6,0,0.9-0.1
	c0.3-0.1,0.5-0.2,0.8-0.4c0.2-0.2,0.4-0.4,0.5-0.6c0.1-0.2,0.2-0.5,0.2-0.8V7.5h-2.2V5.8h4.2v6.1h-1.8V10.1z M155.6,12
	c-0.6,0-1.1-0.1-1.6-0.3c-0.5-0.2-0.9-0.5-1.2-0.9c-0.3-0.4-0.6-0.8-0.8-1.4c-0.2-0.5-0.3-1.2-0.3-1.8c0-0.7,0.1-1.3,0.3-1.8
	c0.2-0.5,0.4-1,0.8-1.4c0.3-0.4,0.7-0.7,1.2-0.9c0.5-0.2,1-0.3,1.6-0.3c0.6,0,1.1,0.1,1.6,0.3c0.5,0.2,0.9,0.5,1.2,0.9
	c0.3,0.4,0.6,0.8,0.8,1.4c0.2,0.5,0.3,1.1,0.3,1.8c0,0.7-0.1,1.3-0.3,1.8c-0.2,0.5-0.4,1-0.8,1.4c-0.3,0.4-0.7,0.7-1.2,0.9
	C156.7,11.9,156.2,12,155.6,12z M155.6,10.4c0.5,0,1-0.2,1.3-0.5c0.3-0.3,0.5-0.8,0.5-1.5V6.9c0-0.6-0.2-1.1-0.5-1.4
	c-0.3-0.3-0.7-0.5-1.3-0.5c-0.5,0-1,0.2-1.3,0.5c-0.3,0.3-0.5,0.8-0.5,1.4v1.6c0,0.6,0.2,1.1,0.5,1.5
	C154.7,10.2,155.1,10.4,155.6,10.4z M166.5,10.4L166.5,10.4c-0.2,0.5-0.5,0.9-0.9,1.2c-0.4,0.3-0.9,0.4-1.5,0.4
	c-1.1,0-1.9-0.4-2.4-1.1c-0.6-0.8-0.8-1.8-0.8-3.2c0-1.4,0.3-2.5,0.8-3.2c0.6-0.8,1.4-1.1,2.4-1.1c0.6,0,1,0.1,1.5,0.4
	c0.4,0.3,0.7,0.7,0.8,1.1h0.1V0h2v11.8h-2V10.4z M164.8,10.3c0.5,0,0.9-0.1,1.2-0.4c0.3-0.2,0.5-0.6,0.5-1V6.3c0-0.4-0.2-0.7-0.5-1
	c-0.3-0.2-0.7-0.4-1.2-0.4c-0.5,0-1,0.2-1.3,0.5c-0.3,0.4-0.5,0.8-0.5,1.4v1.4c0,0.6,0.2,1.1,0.5,1.4
	C163.8,10.2,164.2,10.3,164.8,10.3z M175,11.8v-1.7h3.1V2.2h-0.1l-2.4,2.9L174.1,4l2.8-3.3h3.2v9.5h2.6v1.7H175z M187.9,12
	c-0.7,0-1.2-0.1-1.7-0.2c-0.5-0.2-0.9-0.4-1.3-0.7c-0.3-0.3-0.6-0.6-0.8-1c-0.2-0.4-0.3-0.8-0.3-1.3c0-0.7,0.2-1.3,0.6-1.8
	c0.4-0.5,0.9-0.8,1.6-1V5.9c-0.6-0.2-1-0.5-1.4-0.9c-0.3-0.4-0.5-1-0.5-1.6c0-0.4,0.1-0.8,0.2-1.2c0.2-0.4,0.4-0.7,0.7-0.9
	c0.3-0.3,0.7-0.5,1.2-0.6c0.5-0.1,1-0.2,1.6-0.2c0.6,0,1.1,0.1,1.6,0.2c0.5,0.1,0.9,0.3,1.2,0.6c0.3,0.3,0.6,0.6,0.7,0.9
	c0.2,0.4,0.3,0.7,0.3,1.2c0,0.7-0.2,1.2-0.5,1.6c-0.3,0.4-0.8,0.7-1.3,0.9v0.1c0.7,0.2,1.2,0.5,1.6,1c0.4,0.4,0.6,1,0.6,1.8
	c0,0.5-0.1,0.9-0.3,1.3c-0.2,0.4-0.4,0.7-0.8,1c-0.3,0.3-0.8,0.5-1.3,0.7C189.1,12,188.6,12,187.9,12z M187.9,10.4
	c0.6,0,1.1-0.1,1.4-0.4c0.3-0.3,0.5-0.7,0.5-1.2V8.5c0-0.5-0.2-0.9-0.5-1.2c-0.3-0.3-0.8-0.4-1.4-0.4c-0.6,0-1.1,0.1-1.4,0.4
	C186.2,7.6,186,8,186,8.5v0.3c0,0.5,0.2,0.9,0.5,1.2C186.8,10.2,187.3,10.4,187.9,10.4z M187.9,5.3c0.6,0,1-0.1,1.3-0.4
	c0.3-0.3,0.4-0.6,0.4-1.1V3.6c0-0.5-0.1-0.8-0.4-1.1c-0.3-0.3-0.7-0.4-1.3-0.4c-0.6,0-1,0.1-1.3,0.4c-0.3,0.3-0.4,0.6-0.4,1.1v0.3
	c0,0.5,0.1,0.8,0.4,1.1C186.9,5.2,187.3,5.3,187.9,5.3z M195.6,11.8l7.7-11.2h1.9l-7.7,11.2H195.6z M196.3,6.8
	c-0.9,0-1.6-0.3-2.1-0.8c-0.5-0.5-0.7-1.3-0.7-2.4c0-1,0.2-1.8,0.7-2.4c0.5-0.5,1.2-0.8,2.1-0.8c0.9,0,1.6,0.3,2.1,0.8
	c0.5,0.5,0.7,1.3,0.7,2.4c0,1-0.2,1.8-0.7,2.4C197.9,6.5,197.3,6.8,196.3,6.8z M196.3,5.6c0.7,0,1-0.5,1-1.5V3.2c0-1-0.3-1.5-1-1.5
	c-0.7,0-1,0.5-1,1.5v0.9C195.4,5.1,195.7,5.6,196.3,5.6z M204.4,12c-0.9,0-1.6-0.3-2.1-0.8c-0.5-0.5-0.7-1.3-0.7-2.4
	c0-1,0.2-1.8,0.7-2.4c0.5-0.5,1.2-0.8,2.1-0.8c0.9,0,1.6,0.3,2.1,0.8c0.5,0.5,0.7,1.3,0.7,2.4c0,1-0.2,1.8-0.7,2.4
	C206,11.8,205.3,12,204.4,12z M204.4,10.8c0.7,0,1-0.5,1-1.5V8.4c0-1-0.3-1.5-1-1.5c-0.7,0-1,0.5-1,1.5v0.9
	C203.4,10.3,203.7,10.8,204.4,10.8z"/>
<path class="st0" d="M516.6,247.5l38.6,5.8"/>
<path d="M579.1,253.8L579.1,253.8l-0.9,1.8l-2.3,4.2l-2.3-4.2l-0.9-1.8h-0.1v8h-2v-11.2h2.4l2.9,5.5h0.1l2.8-5.5h2.3v11.2h-2V253.8z
	 M587,262c-0.6,0-1.2-0.1-1.7-0.3c-0.5-0.2-0.9-0.5-1.2-0.9c-0.3-0.4-0.6-0.8-0.8-1.4c-0.2-0.5-0.3-1.2-0.3-1.8
	c0-0.7,0.1-1.3,0.3-1.8c0.2-0.5,0.4-1,0.8-1.4c0.3-0.4,0.7-0.7,1.2-0.9c0.5-0.2,1-0.3,1.6-0.3c0.7,0,1.2,0.1,1.7,0.3
	c0.5,0.2,0.9,0.5,1.2,0.9c0.3,0.4,0.5,0.8,0.7,1.3c0.2,0.5,0.2,1,0.2,1.6v0.7h-5.6v0.2c0,0.6,0.2,1.1,0.5,1.5
	c0.3,0.4,0.8,0.5,1.5,0.5c0.5,0,0.9-0.1,1.2-0.3c0.3-0.2,0.6-0.5,0.9-0.8l1.1,1.2c-0.3,0.5-0.8,0.9-1.4,1.1
	C588.4,261.9,587.8,262,587,262z M587,254.8c-0.5,0-1,0.2-1.3,0.5c-0.3,0.4-0.5,0.8-0.5,1.4v0.1h3.4v-0.1c0-0.6-0.1-1-0.4-1.4
	C587.9,255,587.5,254.8,587,254.8z M600.1,262.5c0,0.4-0.1,0.8-0.2,1.2c-0.1,0.3-0.4,0.6-0.8,0.8c-0.4,0.2-0.8,0.4-1.4,0.5
	c-0.6,0.1-1.2,0.2-2,0.2c-0.7,0-1.3,0-1.8-0.1c-0.5-0.1-0.9-0.2-1.2-0.4c-0.3-0.2-0.5-0.4-0.7-0.6c-0.1-0.2-0.2-0.5-0.2-0.8
	c0-0.5,0.1-0.8,0.4-1.1c0.3-0.3,0.6-0.4,1.1-0.5v-0.2c-0.3-0.1-0.6-0.3-0.8-0.5c-0.2-0.3-0.3-0.6-0.3-0.9c0-0.2,0-0.4,0.1-0.6
	c0.1-0.2,0.2-0.3,0.3-0.4c0.1-0.1,0.3-0.2,0.5-0.3c0.2-0.1,0.4-0.1,0.6-0.2v-0.1c-0.5-0.2-0.9-0.6-1.2-1c-0.2-0.4-0.4-0.9-0.4-1.5
	c0-0.9,0.3-1.5,0.9-2c0.6-0.5,1.4-0.8,2.6-0.8c0.3,0,0.5,0,0.8,0c0.3,0,0.5,0.1,0.7,0.2v-0.3c0-0.8,0.4-1.2,1.2-1.2h1.3v1.6h-1.8
	v0.2c0.4,0.2,0.8,0.6,1,1c0.2,0.4,0.3,0.8,0.3,1.4c0,0.8-0.3,1.5-0.9,2c-0.6,0.5-1.4,0.8-2.6,0.8c-0.5,0-0.9,0-1.3-0.1
	c-0.2,0.1-0.3,0.2-0.4,0.3c-0.1,0.1-0.2,0.3-0.2,0.4c0,0.4,0.4,0.6,1.1,0.6h2.2c1,0,1.8,0.2,2.2,0.6
	C599.8,261.2,600.1,261.8,600.1,262.5z M598.1,262.8c0-0.3-0.1-0.5-0.3-0.6c-0.2-0.1-0.6-0.2-1.1-0.2h-2.8c-0.3,0.2-0.4,0.5-0.4,0.9
	c0,0.3,0.1,0.6,0.4,0.8c0.3,0.2,0.7,0.3,1.4,0.3h1c0.7,0,1.2-0.1,1.5-0.3C598,263.4,598.1,263.1,598.1,262.8z M595.7,257.5
	c1,0,1.5-0.4,1.5-1.3V256c0-0.9-0.5-1.3-1.5-1.3c-1,0-1.5,0.4-1.5,1.3v0.3C594.2,257.1,594.7,257.5,595.7,257.5z M604.5,262
	c-0.6,0-1.2-0.1-1.7-0.3c-0.5-0.2-0.9-0.5-1.2-0.9c-0.3-0.4-0.6-0.8-0.8-1.4c-0.2-0.5-0.3-1.2-0.3-1.8c0-0.7,0.1-1.3,0.3-1.8
	c0.2-0.5,0.4-1,0.8-1.4c0.3-0.4,0.7-0.7,1.2-0.9c0.5-0.2,1-0.3,1.6-0.3c0.6,0,1.2,0.1,1.7,0.3s0.9,0.5,1.2,0.9
	c0.3,0.4,0.5,0.8,0.7,1.3c0.2,0.5,0.2,1,0.2,1.6v0.7h-5.6v0.2c0,0.6,0.2,1.1,0.5,1.5c0.3,0.4,0.8,0.5,1.5,0.5c0.5,0,0.9-0.1,1.2-0.3
	c0.3-0.2,0.6-0.5,0.9-0.8l1.1,1.2c-0.3,0.5-0.8,0.9-1.4,1.1C606,261.9,605.3,262,604.5,262z M604.5,254.8c-0.5,0-1,0.2-1.3,0.5
	c-0.3,0.4-0.5,0.8-0.5,1.4v0.1h3.4v-0.1c0-0.6-0.1-1-0.4-1.4C605.4,255,605,254.8,604.5,254.8z M612.7,261.8c-0.7,0-1.2-0.2-1.6-0.5
	c-0.4-0.4-0.5-0.9-0.5-1.6v-4.6h-1.2v-1.6h0.6c0.3,0,0.5-0.1,0.6-0.2c0.1-0.1,0.2-0.4,0.2-0.7v-1.4h1.8v2.3h1.7v1.6h-1.7v5.1h1.6
	v1.6H612.7z M625,260.4L625,260.4c-0.2,0.5-0.5,0.9-0.9,1.2c-0.4,0.3-0.9,0.4-1.5,0.4c-1.1,0-1.9-0.4-2.4-1.1
	c-0.6-0.8-0.8-1.8-0.8-3.2c0-1.4,0.3-2.5,0.8-3.2c0.6-0.8,1.4-1.1,2.4-1.1c0.6,0,1,0.1,1.5,0.4c0.4,0.3,0.7,0.7,0.8,1.1h0.1V250h2
	v11.8h-2V260.4z M623.3,260.3c0.5,0,0.9-0.1,1.2-0.4c0.3-0.2,0.5-0.6,0.5-1v-2.7c0-0.4-0.2-0.7-0.5-1c-0.3-0.2-0.7-0.4-1.2-0.4
	c-0.5,0-1,0.2-1.3,0.5c-0.3,0.4-0.5,0.8-0.5,1.4v1.4c0,0.6,0.2,1.1,0.5,1.4C622.3,260.2,622.8,260.3,623.3,260.3z M635.6,261.8
	c-0.4,0-0.8-0.1-1.1-0.4c-0.3-0.3-0.4-0.6-0.5-1.1h-0.1c-0.1,0.5-0.4,1-0.8,1.2c-0.4,0.3-1,0.4-1.6,0.4c-0.9,0-1.5-0.2-2-0.7
	c-0.5-0.4-0.7-1-0.7-1.8c0-0.9,0.3-1.5,0.9-1.9c0.6-0.4,1.5-0.6,2.6-0.6h1.4v-0.6c0-0.5-0.1-0.8-0.4-1.1c-0.2-0.3-0.6-0.4-1.2-0.4
	c-0.5,0-0.9,0.1-1.2,0.3c-0.3,0.2-0.5,0.4-0.7,0.7l-1.2-1.1c0.3-0.5,0.7-0.9,1.2-1.2c0.5-0.3,1.2-0.4,2-0.4c1.1,0,2,0.3,2.6,0.8
	c0.6,0.5,0.9,1.2,0.9,2.2v3.9h0.8v1.6H635.6z M632.2,260.5c0.5,0,0.8-0.1,1.2-0.3s0.5-0.5,0.5-0.9v-1.1h-1.3c-1.1,0-1.6,0.3-1.6,1
	v0.3c0,0.3,0.1,0.6,0.3,0.8C631.5,260.5,631.8,260.5,632.2,260.5z M632.5,252.8c-0.3,0-0.6-0.1-0.9-0.2c-0.3-0.1-0.5-0.3-0.7-0.4
	c-0.2-0.2-0.4-0.4-0.5-0.7c-0.1-0.3-0.2-0.6-0.2-0.9s0.1-0.6,0.2-0.9c0.1-0.3,0.3-0.5,0.5-0.7s0.4-0.3,0.7-0.4
	c0.3-0.1,0.6-0.2,0.9-0.2s0.6,0.1,0.9,0.2c0.3,0.1,0.5,0.3,0.7,0.4c0.2,0.2,0.4,0.4,0.5,0.7c0.1,0.3,0.2,0.6,0.2,0.9
	s-0.1,0.6-0.2,0.9c-0.1,0.3-0.3,0.5-0.5,0.7c-0.2,0.2-0.4,0.3-0.7,0.4C633.1,252.8,632.8,252.8,632.5,252.8z M632.5,251.7
	c0.6,0,0.8-0.3,0.8-0.8v-0.5c0-0.6-0.3-0.8-0.8-0.8s-0.8,0.3-0.8,0.8v0.5C631.6,251.5,631.9,251.7,632.5,251.7z M638.4,261.8v-8.4h2
	v1.7h0.1c0.1-0.2,0.1-0.4,0.2-0.6c0.1-0.2,0.3-0.4,0.4-0.6c0.2-0.2,0.4-0.3,0.6-0.4c0.3-0.1,0.5-0.1,0.9-0.1h0.4v1.9h-0.6
	c-0.7,0-1.2,0.1-1.6,0.3s-0.5,0.5-0.5,1v5.1H638.4z M646.7,261.8c-0.7,0-1.2-0.2-1.6-0.5c-0.3-0.4-0.5-0.8-0.5-1.5V250h2v10.2h1.1
	v1.6H646.7z M650.4,252.3c-0.4,0-0.7-0.1-0.9-0.3c-0.2-0.2-0.3-0.4-0.3-0.7v-0.3c0-0.3,0.1-0.5,0.3-0.7c0.2-0.2,0.5-0.3,0.9-0.3
	c0.4,0,0.7,0.1,0.9,0.3c0.2,0.2,0.3,0.4,0.3,0.7v0.3c0,0.3-0.1,0.5-0.3,0.7C651.1,252.2,650.8,252.3,650.4,252.3z M649.4,253.5h2
	v8.4h-2V253.5z M661.3,262.5c0,0.4-0.1,0.8-0.2,1.2c-0.1,0.3-0.4,0.6-0.8,0.8c-0.4,0.2-0.8,0.4-1.4,0.5c-0.6,0.1-1.2,0.2-2,0.2
	c-0.7,0-1.3,0-1.8-0.1c-0.5-0.1-0.9-0.2-1.2-0.4c-0.3-0.2-0.5-0.4-0.7-0.6c-0.1-0.2-0.2-0.5-0.2-0.8c0-0.5,0.1-0.8,0.4-1.1
	c0.3-0.3,0.6-0.4,1.1-0.5v-0.2c-0.3-0.1-0.6-0.3-0.8-0.5c-0.2-0.3-0.3-0.6-0.3-0.9c0-0.2,0-0.4,0.1-0.6c0.1-0.2,0.2-0.3,0.3-0.4
	c0.1-0.1,0.3-0.2,0.5-0.3c0.2-0.1,0.4-0.1,0.6-0.2v-0.1c-0.5-0.2-0.9-0.6-1.2-1c-0.2-0.4-0.4-0.9-0.4-1.5c0-0.9,0.3-1.5,0.9-2
	c0.6-0.5,1.4-0.8,2.6-0.8c0.3,0,0.5,0,0.8,0c0.3,0,0.5,0.1,0.7,0.2v-0.3c0-0.8,0.4-1.2,1.2-1.2h1.3v1.6h-1.8v0.2
	c0.4,0.2,0.8,0.6,1,1c0.2,0.4,0.3,0.8,0.3,1.4c0,0.8-0.3,1.5-0.9,2c-0.6,0.5-1.4,0.8-2.6,0.8c-0.5,0-0.9,0-1.3-0.1
	c-0.2,0.1-0.3,0.2-0.4,0.3c-0.1,0.1-0.2,0.3-0.2,0.4c0,0.4,0.4,0.6,1.1,0.6h2.2c1,0,1.8,0.2,2.2,0.6
	C661.1,261.2,661.3,261.8,661.3,262.5z M659.4,262.8c0-0.3-0.1-0.5-0.3-0.6c-0.2-0.1-0.6-0.2-1.1-0.2h-2.8c-0.3,0.2-0.4,0.5-0.4,0.9
	c0,0.3,0.1,0.6,0.4,0.8c0.3,0.2,0.7,0.3,1.4,0.3h1c0.7,0,1.2-0.1,1.5-0.3C659.2,263.4,659.4,263.1,659.4,262.8z M656.9,257.5
	c1,0,1.5-0.4,1.5-1.3V256c0-0.9-0.5-1.3-1.5-1.3c-1,0-1.5,0.4-1.5,1.3v0.3C655.4,257.1,655.9,257.5,656.9,257.5z M666.5,261.8v-1.7
	h3.1v-7.9h-0.1l-2.4,2.9l-1.3-1.1l2.8-3.3h3.2v9.5h2.6v1.7H666.5z M677.4,261.8l3.9-9.5h-3.9v2h-1.8v-3.8h7.7v1.8l-3.8,9.4H677.4z
	 M687.2,261.8l7.7-11.2h1.9l-7.7,11.2H687.2z M687.9,256.8c-0.9,0-1.6-0.3-2.1-0.8c-0.5-0.5-0.7-1.3-0.7-2.4c0-1,0.2-1.8,0.7-2.4
	c0.5-0.5,1.2-0.8,2.1-0.8c0.9,0,1.6,0.3,2.1,0.8c0.5,0.5,0.7,1.3,0.7,2.4c0,1-0.2,1.8-0.7,2.4C689.5,256.5,688.8,256.8,687.9,256.8z
	 M687.9,255.6c0.7,0,1-0.5,1-1.5v-0.9c0-1-0.3-1.5-1-1.5c-0.7,0-1,0.5-1,1.5v0.9C686.9,255.1,687.3,255.6,687.9,255.6z M696,262
	c-0.9,0-1.6-0.3-2.1-0.8c-0.5-0.5-0.7-1.3-0.7-2.4c0-1,0.2-1.8,0.7-2.4c0.5-0.5,1.2-0.8,2.1-0.8c0.9,0,1.6,0.3,2.1,0.8
	c0.5,0.5,0.7,1.3,0.7,2.4c0,1-0.2,1.8-0.7,2.4C697.6,261.8,696.9,262,696,262z M696,260.8c0.7,0,1-0.5,1-1.5v-0.9c0-1-0.3-1.5-1-1.5
	c-0.7,0-1,0.5-1,1.5v0.9C695,260.3,695.3,260.8,696,260.8z"/>
<path class="st0" d="M138.8,73.8H158l43.5,40.5"/>
<path d="M29.6,78.8L26,67.7h2.2l1.7,5.4l1,3.7h0l1-3.7l1.7-5.4h2.1L32,78.8H29.6z M39.9,79c-0.6,0-1.2-0.1-1.7-0.3
	c-0.5-0.2-0.9-0.5-1.2-0.9c-0.3-0.4-0.6-0.8-0.8-1.4c-0.2-0.5-0.3-1.2-0.3-1.8c0-0.7,0.1-1.3,0.3-1.8c0.2-0.5,0.4-1,0.8-1.4
	c0.3-0.4,0.7-0.7,1.2-0.9c0.5-0.2,1-0.3,1.6-0.3c0.7,0,1.2,0.1,1.7,0.3c0.5,0.2,0.9,0.5,1.2,0.9c0.3,0.4,0.5,0.8,0.7,1.3
	c0.2,0.5,0.2,1,0.2,1.6v0.7h-5.6v0.2c0,0.6,0.2,1.1,0.5,1.5c0.3,0.4,0.8,0.5,1.5,0.5c0.5,0,0.9-0.1,1.2-0.3c0.3-0.2,0.6-0.5,0.9-0.8
	l1.1,1.2C43,78,42.6,78.4,42,78.6C41.4,78.9,40.7,79,39.9,79z M39.9,71.8c-0.5,0-1,0.2-1.3,0.5c-0.3,0.4-0.5,0.8-0.5,1.4v0.1h3.4
	v-0.1c0-0.6-0.1-1-0.4-1.4C40.8,72,40.4,71.8,39.9,71.8z M50.6,77.4L50.6,77.4c-0.2,0.5-0.5,0.9-0.9,1.2c-0.4,0.3-0.9,0.4-1.5,0.4
	c-1.1,0-1.9-0.4-2.4-1.1c-0.6-0.8-0.8-1.8-0.8-3.2c0-1.4,0.3-2.5,0.8-3.2c0.6-0.8,1.4-1.1,2.4-1.1c0.6,0,1,0.1,1.5,0.4
	c0.4,0.3,0.7,0.7,0.8,1.1h0.1V67h2v11.8h-2V77.4z M48.9,77.3c0.5,0,0.9-0.1,1.2-0.4c0.3-0.2,0.5-0.6,0.5-1v-2.7c0-0.4-0.2-0.7-0.5-1
	c-0.3-0.2-0.7-0.4-1.2-0.4c-0.5,0-1,0.2-1.3,0.5c-0.3,0.4-0.5,0.8-0.5,1.4v1.4c0,0.6,0.2,1.1,0.5,1.4C47.9,77.2,48.4,77.3,48.9,77.3
	z M59.9,69.3c-0.4,0-0.7-0.1-0.9-0.3c-0.2-0.2-0.3-0.4-0.3-0.7v-0.3c0-0.3,0.1-0.5,0.3-0.7c0.2-0.2,0.5-0.3,0.9-0.3
	c0.4,0,0.7,0.1,0.9,0.3c0.2,0.2,0.3,0.4,0.3,0.7v0.3c0,0.3-0.1,0.5-0.3,0.7C60.6,69.2,60.3,69.3,59.9,69.3z M58.8,70.5h2v8.4h-2
	V70.5z M63.3,67h2v7.1h0.1l1.1-1.5l1.9-2.1h2.3l-2.9,3.2l3.2,5.1h-2.4l-2.1-3.7l-1.1,1.2v2.5h-2V67z M72.2,67h2v7.1h0.1l1.1-1.5
	l1.9-2.1h2.3l-2.9,3.2l3.2,5.1h-2.4l-2.1-3.7l-1.1,1.2v2.5h-2V67z M84.2,79c-0.6,0-1.2-0.1-1.7-0.3c-0.5-0.2-0.9-0.5-1.2-0.9
	c-0.3-0.4-0.6-0.8-0.8-1.4c-0.2-0.5-0.3-1.2-0.3-1.8c0-0.7,0.1-1.3,0.3-1.8c0.2-0.5,0.4-1,0.8-1.4c0.3-0.4,0.7-0.7,1.2-0.9
	c0.5-0.2,1-0.3,1.6-0.3c0.7,0,1.2,0.1,1.7,0.3c0.5,0.2,0.9,0.5,1.2,0.9c0.3,0.4,0.5,0.8,0.7,1.3c0.2,0.5,0.2,1,0.2,1.6v0.7h-5.6v0.2
	c0,0.6,0.2,1.1,0.5,1.5c0.3,0.4,0.8,0.5,1.5,0.5c0.5,0,0.9-0.1,1.2-0.3c0.3-0.2,0.6-0.5,0.9-0.8l1.1,1.2c-0.3,0.5-0.8,0.9-1.4,1.1
	C85.7,78.9,85,79,84.2,79z M84.2,71.8c-0.5,0-1,0.2-1.3,0.5c-0.3,0.4-0.5,0.8-0.5,1.4v0.1h3.4v-0.1c0-0.6-0.1-1-0.4-1.4
	C85.1,72,84.7,71.8,84.2,71.8z M97.9,78.8v-2.2h-5.1v-1.8l4.4-7.2h2.6V75h1.5v1.6h-1.5v2.2H97.9z M94.6,75h3.3v-5.3h-0.1L94.6,75z
	 M104.8,78.8l7.7-11.2h1.9l-7.7,11.2H104.8z M105.6,73.8c-0.9,0-1.6-0.3-2.1-0.8c-0.5-0.5-0.7-1.3-0.7-2.4c0-1,0.2-1.8,0.7-2.4
	c0.5-0.5,1.2-0.8,2.1-0.8c0.9,0,1.6,0.3,2.1,0.8c0.5,0.5,0.7,1.3,0.7,2.4c0,1-0.2,1.8-0.7,2.4C107.2,73.5,106.5,73.8,105.6,73.8z
	 M105.6,72.6c0.7,0,1-0.5,1-1.5v-0.9c0-1-0.3-1.5-1-1.5c-0.7,0-1,0.5-1,1.5v0.9C104.6,72.1,104.9,72.6,105.6,72.6z M113.7,79
	c-0.9,0-1.6-0.3-2.1-0.8c-0.5-0.5-0.7-1.3-0.7-2.4s0.2-1.8,0.7-2.4c0.5-0.5,1.2-0.8,2.1-0.8c0.9,0,1.6,0.3,2.1,0.8
	c0.5,0.5,0.7,1.3,0.7,2.4s-0.2,1.8-0.7,2.4C115.3,78.8,114.6,79,113.7,79z M113.7,77.8c0.7,0,1-0.5,1-1.5v-0.9c0-1-0.3-1.5-1-1.5
	c-0.7,0-1,0.5-1,1.5v0.9C112.7,77.3,113,77.8,113.7,77.8z"/>
<path class="st0" d="M128,337.3h59l26-12"/>
<path d="M11.8,334.8L11.8,334.8l-0.9,1.8l-2.3,4.2l-2.3-4.2l-0.9-1.8H5.4v8h-2v-11.2h2.4l2.9,5.5h0.1l2.8-5.5h2.3v11.2h-2V334.8z
	 M19.7,343c-0.6,0-1.2-0.1-1.7-0.3c-0.5-0.2-0.9-0.5-1.2-0.9c-0.3-0.4-0.6-0.8-0.8-1.4c-0.2-0.5-0.3-1.2-0.3-1.8
	c0-0.7,0.1-1.3,0.3-1.8c0.2-0.5,0.4-1,0.8-1.4c0.3-0.4,0.7-0.7,1.2-0.9c0.5-0.2,1-0.3,1.6-0.3c0.7,0,1.2,0.1,1.7,0.3
	s0.9,0.5,1.2,0.9c0.3,0.4,0.5,0.8,0.7,1.3c0.2,0.5,0.2,1,0.2,1.6v0.7h-5.6v0.2c0,0.6,0.2,1.1,0.5,1.5c0.3,0.4,0.8,0.5,1.5,0.5
	c0.5,0,0.9-0.1,1.2-0.3c0.3-0.2,0.6-0.5,0.9-0.8l1.1,1.2c-0.3,0.5-0.8,0.9-1.4,1.1C21.2,342.9,20.5,343,19.7,343z M19.7,335.8
	c-0.5,0-1,0.2-1.3,0.5c-0.3,0.4-0.5,0.8-0.5,1.4v0.1h3.4v-0.1c0-0.6-0.1-1-0.4-1.4C20.6,336,20.2,335.8,19.7,335.8z M32.8,343.5
	c0,0.4-0.1,0.8-0.2,1.2c-0.1,0.3-0.4,0.6-0.8,0.8c-0.4,0.2-0.8,0.4-1.4,0.5c-0.6,0.1-1.2,0.2-2,0.2c-0.7,0-1.3,0-1.8-0.1
	c-0.5-0.1-0.9-0.2-1.2-0.4c-0.3-0.2-0.5-0.4-0.7-0.6c-0.1-0.2-0.2-0.5-0.2-0.8c0-0.5,0.1-0.8,0.4-1.1c0.3-0.3,0.6-0.4,1.1-0.5v-0.2
	c-0.3-0.1-0.6-0.3-0.8-0.5c-0.2-0.3-0.3-0.6-0.3-0.9c0-0.2,0-0.4,0.1-0.6c0.1-0.2,0.2-0.3,0.3-0.4c0.1-0.1,0.3-0.2,0.5-0.3
	c0.2-0.1,0.4-0.1,0.6-0.2v-0.1c-0.5-0.2-0.9-0.6-1.2-1c-0.2-0.4-0.4-0.9-0.4-1.5c0-0.9,0.3-1.5,0.9-2c0.6-0.5,1.4-0.8,2.6-0.8
	c0.3,0,0.5,0,0.8,0c0.3,0,0.5,0.1,0.7,0.2v-0.3c0-0.8,0.4-1.2,1.2-1.2h1.3v1.6h-1.8v0.2c0.4,0.2,0.8,0.6,1,1
	c0.2,0.4,0.3,0.8,0.3,1.4c0,0.8-0.3,1.5-0.9,2c-0.6,0.5-1.4,0.8-2.6,0.8c-0.5,0-0.9,0-1.3-0.1c-0.2,0.1-0.3,0.2-0.4,0.3
	c-0.1,0.1-0.2,0.3-0.2,0.4c0,0.4,0.4,0.6,1.1,0.6h2.2c1,0,1.8,0.2,2.2,0.6C32.5,342.2,32.8,342.8,32.8,343.5z M30.9,343.8
	c0-0.3-0.1-0.5-0.3-0.6c-0.2-0.1-0.6-0.2-1.1-0.2h-2.8c-0.3,0.2-0.4,0.5-0.4,0.9c0,0.3,0.1,0.6,0.4,0.8c0.3,0.2,0.7,0.3,1.4,0.3h1
	c0.7,0,1.2-0.1,1.5-0.3C30.7,344.4,30.9,344.1,30.9,343.8z M28.4,338.5c1,0,1.5-0.4,1.5-1.3V337c0-0.9-0.5-1.3-1.5-1.3
	c-1,0-1.5,0.4-1.5,1.3v0.3C26.9,338.1,27.4,338.5,28.4,338.5z M37.2,343c-0.6,0-1.2-0.1-1.7-0.3c-0.5-0.2-0.9-0.5-1.2-0.9
	c-0.3-0.4-0.6-0.8-0.8-1.4c-0.2-0.5-0.3-1.2-0.3-1.8c0-0.7,0.1-1.3,0.3-1.8c0.2-0.5,0.4-1,0.8-1.4c0.3-0.4,0.7-0.7,1.2-0.9
	c0.5-0.2,1-0.3,1.6-0.3c0.7,0,1.2,0.1,1.7,0.3s0.9,0.5,1.2,0.9c0.3,0.4,0.5,0.8,0.7,1.3c0.2,0.5,0.2,1,0.2,1.6v0.7h-5.6v0.2
	c0,0.6,0.2,1.1,0.5,1.5c0.3,0.4,0.8,0.5,1.5,0.5c0.5,0,0.9-0.1,1.2-0.3c0.3-0.2,0.6-0.5,0.9-0.8l1.1,1.2c-0.3,0.5-0.8,0.9-1.4,1.1
	C38.7,342.9,38,343,37.2,343z M37.2,335.8c-0.5,0-1,0.2-1.3,0.5c-0.3,0.4-0.5,0.8-0.5,1.4v0.1h3.4v-0.1c0-0.6-0.1-1-0.4-1.4
	C38.1,336,37.7,335.8,37.2,335.8z M45.4,342.8c-0.7,0-1.2-0.2-1.6-0.5c-0.4-0.4-0.5-0.9-0.5-1.6v-4.6H42v-1.6h0.6
	c0.3,0,0.5-0.1,0.6-0.2c0.1-0.1,0.2-0.4,0.2-0.7v-1.4h1.8v2.3H47v1.6h-1.7v5.1h1.6v1.6H45.4z M60.1,343.5c0,0.4-0.1,0.8-0.2,1.2
	c-0.1,0.3-0.4,0.6-0.8,0.8s-0.8,0.4-1.4,0.5c-0.6,0.1-1.2,0.2-2,0.2c-0.7,0-1.3,0-1.8-0.1c-0.5-0.1-0.9-0.2-1.2-0.4
	c-0.3-0.2-0.5-0.4-0.7-0.6c-0.1-0.2-0.2-0.5-0.2-0.8c0-0.5,0.1-0.8,0.4-1.1c0.3-0.3,0.6-0.4,1.1-0.5v-0.2c-0.3-0.1-0.6-0.3-0.8-0.5
	c-0.2-0.3-0.3-0.6-0.3-0.9c0-0.2,0-0.4,0.1-0.6c0.1-0.2,0.2-0.3,0.3-0.4c0.1-0.1,0.3-0.2,0.5-0.3c0.2-0.1,0.4-0.1,0.6-0.2v-0.1
	c-0.5-0.2-0.9-0.6-1.2-1c-0.2-0.4-0.4-0.9-0.4-1.5c0-0.9,0.3-1.5,0.9-2c0.6-0.5,1.4-0.8,2.6-0.8c0.3,0,0.5,0,0.8,0
	c0.3,0,0.5,0.1,0.7,0.2v-0.3c0-0.8,0.4-1.2,1.2-1.2h1.3v1.6h-1.8v0.2c0.4,0.2,0.8,0.6,1,1c0.2,0.4,0.3,0.8,0.3,1.4
	c0,0.8-0.3,1.5-0.9,2c-0.6,0.5-1.4,0.8-2.6,0.8c-0.5,0-0.9,0-1.3-0.1c-0.2,0.1-0.3,0.2-0.4,0.3c-0.1,0.1-0.2,0.3-0.2,0.4
	c0,0.4,0.4,0.6,1.1,0.6h2.2c1,0,1.8,0.2,2.2,0.6C59.9,342.2,60.1,342.8,60.1,343.5z M58.2,343.8c0-0.3-0.1-0.5-0.3-0.6
	c-0.2-0.1-0.6-0.2-1.1-0.2h-2.8c-0.3,0.2-0.4,0.5-0.4,0.9c0,0.3,0.1,0.6,0.4,0.8s0.7,0.3,1.4,0.3h1c0.7,0,1.2-0.1,1.5-0.3
	C58,344.4,58.2,344.1,58.2,343.8z M55.7,338.5c1,0,1.5-0.4,1.5-1.3V337c0-0.9-0.5-1.3-1.5-1.3c-1,0-1.5,0.4-1.5,1.3v0.3
	C54.2,338.1,54.7,338.5,55.7,338.5z M64.5,343c-0.6,0-1.1-0.1-1.6-0.3c-0.5-0.2-0.9-0.5-1.2-0.9c-0.3-0.4-0.6-0.8-0.8-1.4
	c-0.2-0.5-0.3-1.2-0.3-1.8c0-0.7,0.1-1.3,0.3-1.8c0.2-0.5,0.4-1,0.8-1.4c0.3-0.4,0.7-0.7,1.2-0.9c0.5-0.2,1-0.3,1.6-0.3
	c0.6,0,1.1,0.1,1.6,0.3c0.5,0.2,0.9,0.5,1.2,0.9c0.3,0.4,0.6,0.8,0.8,1.4c0.2,0.5,0.3,1.1,0.3,1.8c0,0.7-0.1,1.3-0.3,1.8
	c-0.2,0.5-0.4,1-0.8,1.4c-0.3,0.4-0.7,0.7-1.2,0.9C65.6,342.9,65.1,343,64.5,343z M64.5,341.4c0.5,0,1-0.2,1.3-0.5
	c0.3-0.3,0.5-0.8,0.5-1.5v-1.6c0-0.6-0.2-1.1-0.5-1.4c-0.3-0.3-0.7-0.5-1.3-0.5c-0.5,0-1,0.2-1.3,0.5s-0.5,0.8-0.5,1.4v1.6
	c0,0.6,0.2,1.1,0.5,1.5S64,341.4,64.5,341.4z M75.4,341.4L75.4,341.4c-0.2,0.5-0.5,0.9-0.9,1.2c-0.4,0.3-0.9,0.4-1.5,0.4
	c-1.1,0-1.9-0.4-2.4-1.1c-0.6-0.8-0.8-1.8-0.8-3.2c0-1.4,0.3-2.5,0.8-3.2c0.6-0.8,1.4-1.1,2.4-1.1c0.6,0,1,0.1,1.5,0.4
	c0.4,0.3,0.7,0.7,0.8,1.1h0.1V331h2v11.8h-2V341.4z M73.6,341.3c0.5,0,0.9-0.1,1.2-0.4c0.3-0.2,0.5-0.6,0.5-1v-2.7
	c0-0.4-0.2-0.7-0.5-1c-0.3-0.2-0.7-0.4-1.2-0.4c-0.5,0-1,0.2-1.3,0.5c-0.3,0.4-0.5,0.8-0.5,1.4v1.4c0,0.6,0.2,1.1,0.5,1.4
	C72.7,341.2,73.1,341.3,73.6,341.3z M88,342.8v-2.2h-5.1v-1.8l4.4-7.2H90v7.4h1.5v1.6H90v2.2H88z M84.6,339H88v-5.3h-0.1L84.6,339z
	 M96.8,343c-0.6,0-1.2-0.1-1.7-0.3c-0.5-0.2-0.9-0.5-1.3-0.9c-0.4-0.4-0.6-0.8-0.8-1.4c-0.2-0.5-0.3-1.2-0.3-1.8
	c0-0.8,0.1-1.6,0.4-2.3c0.2-0.7,0.6-1.4,0.9-2c0.4-0.6,0.8-1.1,1.3-1.6c0.5-0.5,1-0.9,1.4-1.2h2.8c-0.7,0.5-1.3,0.9-1.8,1.4
	c-0.5,0.4-1,0.9-1.4,1.3c-0.4,0.4-0.7,0.9-1,1.4c-0.2,0.5-0.4,1-0.6,1.6l0.1,0c0.1-0.2,0.2-0.4,0.4-0.6c0.1-0.2,0.3-0.4,0.5-0.5
	c0.2-0.2,0.4-0.3,0.7-0.4c0.3-0.1,0.6-0.1,0.9-0.1c0.5,0,0.9,0.1,1.3,0.2c0.4,0.2,0.8,0.4,1,0.7c0.3,0.3,0.5,0.7,0.7,1.1
	c0.2,0.4,0.3,0.9,0.3,1.4c0,0.6-0.1,1.1-0.3,1.6s-0.5,0.9-0.8,1.2c-0.4,0.3-0.8,0.6-1.3,0.8C98,342.9,97.4,343,96.8,343z
	 M96.8,341.4c0.6,0,1-0.2,1.4-0.5c0.3-0.3,0.5-0.8,0.5-1.4v-0.2c0-0.6-0.2-1.1-0.5-1.4c-0.3-0.3-0.8-0.5-1.4-0.5
	c-0.6,0-1.1,0.2-1.4,0.5c-0.3,0.3-0.5,0.8-0.5,1.4v0.2c0,0.6,0.2,1.1,0.5,1.4C95.8,341.2,96.2,341.4,96.8,341.4z M104.4,342.8
	l7.7-11.2h1.9l-7.7,11.2H104.4z M105.2,337.8c-0.9,0-1.6-0.3-2.1-0.8c-0.5-0.5-0.7-1.3-0.7-2.4c0-1,0.2-1.8,0.7-2.4
	c0.5-0.5,1.2-0.8,2.1-0.8c0.9,0,1.6,0.3,2.1,0.8c0.5,0.5,0.7,1.3,0.7,2.4c0,1-0.2,1.8-0.7,2.4C106.8,337.5,106.1,337.8,105.2,337.8z
	 M105.2,336.6c0.7,0,1-0.5,1-1.5v-0.9c0-1-0.3-1.5-1-1.5c-0.7,0-1,0.5-1,1.5v0.9C104.2,336.1,104.6,336.6,105.2,336.6z M113.3,343
	c-0.9,0-1.6-0.3-2.1-0.8c-0.5-0.5-0.7-1.3-0.7-2.4c0-1,0.2-1.8,0.7-2.4c0.5-0.5,1.2-0.8,2.1-0.8c0.9,0,1.6,0.3,2.1,0.8
	c0.5,0.5,0.7,1.3,0.7,2.4c0,1-0.2,1.8-0.7,2.4C114.9,342.8,114.2,343,113.3,343z M113.3,341.8c0.7,0,1-0.5,1-1.5v-0.9
	c0-1-0.3-1.5-1-1.5c-0.7,0-1,0.5-1,1.5v0.9C112.3,341.3,112.6,341.8,113.3,341.8z"/>
<path d="M537.1,39.7h4.1c0.7,0,1.4,0.1,2,0.4c0.6,0.2,1.1,0.6,1.5,1.1c0.4,0.5,0.8,1,1,1.7c0.2,0.7,0.4,1.5,0.4,2.4
	s-0.1,1.7-0.4,2.4c-0.2,0.7-0.5,1.3-1,1.7c-0.4,0.5-0.9,0.8-1.5,1c-0.6,0.2-1.2,0.4-2,0.4h-4.1V39.7z M541.2,49
	c0.8,0,1.4-0.2,1.9-0.7c0.5-0.5,0.7-1.2,0.7-2.1v-1.8c0-1-0.2-1.7-0.7-2.1c-0.5-0.5-1.1-0.7-1.9-0.7h-2V49H541.2z M554.1,50.8
	c-0.4,0-0.8-0.1-1.1-0.4c-0.3-0.3-0.4-0.6-0.5-1.1h-0.1c-0.1,0.5-0.4,1-0.8,1.2c-0.4,0.3-1,0.4-1.6,0.4c-0.9,0-1.5-0.2-2-0.7
	c-0.5-0.4-0.7-1-0.7-1.8c0-0.9,0.3-1.5,0.9-1.9c0.6-0.4,1.5-0.6,2.6-0.6h1.4v-0.6c0-0.5-0.1-0.8-0.4-1.1c-0.2-0.3-0.6-0.4-1.2-0.4
	c-0.5,0-0.9,0.1-1.2,0.3c-0.3,0.2-0.5,0.4-0.7,0.7l-1.2-1.1c0.3-0.5,0.7-0.9,1.2-1.2c0.5-0.3,1.2-0.4,2-0.4c1.1,0,2,0.3,2.6,0.8
	c0.6,0.5,0.9,1.2,0.9,2.2v3.9h0.8v1.6H554.1z M550.8,49.5c0.5,0,0.8-0.1,1.2-0.3s0.5-0.5,0.5-0.9v-1.1h-1.3c-1.1,0-1.6,0.3-1.6,1
	v0.3c0,0.3,0.1,0.6,0.3,0.8C550,49.5,550.4,49.5,550.8,49.5z M551,41.8c-0.3,0-0.6-0.1-0.9-0.2c-0.3-0.1-0.5-0.3-0.7-0.4
	c-0.2-0.2-0.4-0.4-0.5-0.7c-0.1-0.3-0.2-0.6-0.2-0.9c0-0.3,0.1-0.6,0.2-0.9c0.1-0.3,0.3-0.5,0.5-0.7c0.2-0.2,0.4-0.3,0.7-0.4
	c0.3-0.1,0.6-0.2,0.9-0.2c0.3,0,0.6,0.1,0.9,0.2c0.3,0.1,0.5,0.3,0.7,0.4c0.2,0.2,0.4,0.4,0.5,0.7c0.1,0.3,0.2,0.6,0.2,0.9
	c0,0.3-0.1,0.6-0.2,0.9c-0.1,0.3-0.3,0.5-0.5,0.7c-0.2,0.2-0.4,0.3-0.7,0.4C551.6,41.8,551.4,41.8,551,41.8z M551,40.7
	c0.6,0,0.8-0.3,0.8-0.8v-0.5c0-0.6-0.3-0.8-0.8-0.8c-0.6,0-0.8,0.3-0.8,0.8v0.5C550.2,40.5,550.5,40.7,551,40.7z M556.9,50.8v-8.4h2
	v1.7h0.1c0.1-0.2,0.1-0.4,0.2-0.6c0.1-0.2,0.3-0.4,0.4-0.6c0.2-0.2,0.4-0.3,0.6-0.4c0.3-0.1,0.5-0.1,0.9-0.1h0.4v1.9h-0.6
	c-0.7,0-1.2,0.1-1.6,0.3s-0.5,0.5-0.5,1v5.1H556.9z M565.3,50.8c-0.7,0-1.2-0.2-1.6-0.5s-0.5-0.8-0.5-1.5V39h2v10.2h1.1v1.6H565.3z
	 M569,41.3c-0.4,0-0.7-0.1-0.9-0.3c-0.2-0.2-0.3-0.4-0.3-0.7v-0.3c0-0.3,0.1-0.5,0.3-0.7c0.2-0.2,0.5-0.3,0.9-0.3
	c0.4,0,0.7,0.1,0.9,0.3c0.2,0.2,0.3,0.4,0.3,0.7v0.3c0,0.3-0.1,0.5-0.3,0.7C569.7,41.2,569.4,41.3,569,41.3z M567.9,42.5h2v8.4h-2
	V42.5z M579.9,51.5c0,0.4-0.1,0.8-0.2,1.2c-0.1,0.3-0.4,0.6-0.8,0.8c-0.4,0.2-0.8,0.4-1.4,0.5c-0.6,0.1-1.2,0.2-2,0.2
	c-0.7,0-1.3,0-1.8-0.1c-0.5-0.1-0.9-0.2-1.2-0.4c-0.3-0.2-0.5-0.4-0.7-0.6s-0.2-0.5-0.2-0.8c0-0.5,0.1-0.8,0.4-1.1
	c0.3-0.3,0.6-0.4,1.1-0.5v-0.2c-0.3-0.1-0.6-0.3-0.8-0.5c-0.2-0.3-0.3-0.6-0.3-0.9c0-0.2,0-0.4,0.1-0.6c0.1-0.2,0.2-0.3,0.3-0.4
	c0.1-0.1,0.3-0.2,0.5-0.3c0.2-0.1,0.4-0.1,0.6-0.2v-0.1c-0.5-0.2-0.9-0.6-1.2-1c-0.2-0.4-0.4-0.9-0.4-1.5c0-0.9,0.3-1.5,0.9-2
	c0.6-0.5,1.4-0.8,2.6-0.8c0.3,0,0.5,0,0.8,0c0.3,0,0.5,0.1,0.7,0.2v-0.3c0-0.8,0.4-1.2,1.2-1.2h1.3v1.6h-1.8v0.2
	c0.4,0.2,0.8,0.6,1,1s0.3,0.8,0.3,1.4c0,0.8-0.3,1.5-0.9,2c-0.6,0.5-1.4,0.8-2.6,0.8c-0.5,0-0.9,0-1.3-0.1c-0.2,0.1-0.3,0.2-0.4,0.3
	c-0.1,0.1-0.2,0.3-0.2,0.4c0,0.4,0.4,0.6,1.1,0.6h2.2c1,0,1.8,0.2,2.2,0.6C579.6,50.2,579.9,50.8,579.9,51.5z M578,51.8
	c0-0.3-0.1-0.5-0.3-0.6c-0.2-0.1-0.6-0.2-1.1-0.2h-2.8c-0.3,0.2-0.4,0.5-0.4,0.9c0,0.3,0.1,0.6,0.4,0.8c0.3,0.2,0.7,0.3,1.4,0.3h1
	c0.7,0,1.2-0.1,1.5-0.3C577.8,52.4,578,52.1,578,51.8z M575.5,46.5c1,0,1.5-0.4,1.5-1.3V45c0-0.9-0.5-1.3-1.5-1.3S574,44.1,574,45
	v0.3C574,46.1,574.5,46.5,575.5,46.5z M585.1,50.8v-1.7h3.1v-7.9H588l-2.4,2.9l-1.3-1.1l2.8-3.3h3.2v9.5h2.6v1.7H585.1z M601.5,41.5
	h-5l-0.3,3.7h0.1c0.1-0.2,0.2-0.5,0.4-0.7c0.1-0.2,0.3-0.4,0.5-0.5c0.2-0.1,0.4-0.2,0.6-0.3c0.2-0.1,0.5-0.1,0.9-0.1
	c0.5,0,0.9,0.1,1.3,0.2c0.4,0.2,0.8,0.4,1.1,0.7c0.3,0.3,0.5,0.7,0.7,1.1c0.2,0.4,0.3,0.9,0.3,1.5c0,0.6-0.1,1.1-0.3,1.6
	c-0.2,0.5-0.4,0.9-0.8,1.2c-0.4,0.3-0.8,0.6-1.3,0.8c-0.5,0.2-1.1,0.3-1.8,0.3c-0.5,0-1-0.1-1.4-0.2c-0.4-0.1-0.8-0.3-1.1-0.4
	c-0.3-0.2-0.6-0.4-0.8-0.7c-0.2-0.3-0.4-0.5-0.6-0.8l1.5-1.2c0.1,0.2,0.3,0.4,0.4,0.6c0.1,0.2,0.3,0.3,0.5,0.5
	c0.2,0.1,0.4,0.3,0.6,0.3c0.2,0.1,0.5,0.1,0.8,0.1c0.6,0,1.1-0.2,1.4-0.5c0.3-0.4,0.5-0.8,0.5-1.4v-0.1c0-0.6-0.2-1-0.5-1.4
	c-0.3-0.3-0.8-0.5-1.4-0.5c-0.5,0-0.8,0.1-1.1,0.3c-0.3,0.2-0.5,0.4-0.7,0.6l-1.7-0.2l0.4-6.3h6.6V41.5z M605.7,50.8l7.7-11.2h1.9
	l-7.7,11.2H605.7z M606.5,45.8c-0.9,0-1.6-0.3-2.1-0.8c-0.5-0.5-0.7-1.3-0.7-2.4s0.2-1.8,0.7-2.4c0.5-0.5,1.2-0.8,2.1-0.8
	c0.9,0,1.6,0.3,2.1,0.8c0.5,0.5,0.7,1.3,0.7,2.4s-0.2,1.8-0.7,2.4C608.1,45.5,607.4,45.8,606.5,45.8z M606.5,44.6c0.7,0,1-0.5,1-1.5
	v-0.9c0-1-0.3-1.5-1-1.5c-0.7,0-1,0.5-1,1.5v0.9C605.5,44.1,605.8,44.6,606.5,44.6z M614.6,51c-0.9,0-1.6-0.3-2.1-0.8
	c-0.5-0.5-0.7-1.3-0.7-2.4s0.2-1.8,0.7-2.4c0.5-0.5,1.2-0.8,2.1-0.8c0.9,0,1.6,0.3,2.1,0.8c0.5,0.5,0.7,1.3,0.7,2.4
	s-0.2,1.8-0.7,2.4C616.2,50.8,615.5,51,614.6,51z M614.6,49.8c0.7,0,1-0.5,1-1.5v-0.9c0-1-0.3-1.5-1-1.5c-0.7,0-1,0.5-1,1.5v0.9
	C613.6,49.3,613.9,49.8,614.6,49.8z"/>
<path class="st0" d="M457.3,82.9l28.8-35.5H521"/>
<path class="st1" d="M189.4,135.8c-18.5,38.1-22.6,81.6-11.6,122.5c11.1,41.2,36.8,77,72.3,100.7c35.5,23.7,78.4,33.6,120.8,28
	c42-5.6,80.6-26.1,108.6-57.8L347.2,213.4L189.4,135.8z"/>
<path class="st2" d="M215,97c-9.7,11.2-18,23.5-24.7,36.8l151.1,74.6L215,97z"/>
<path class="st3" d="M467.6,83.7c-20-18.6-44.4-32.5-70.6-40.1L349.3,211l163.5-59.7C503.2,125.7,487.6,102.4,467.6,83.7z"/>
<path class="st4" d="M513.4,153.2L349.7,213L481,327.6c20.4-23.6,34.1-52.2,39.8-82.8C526.5,214.1,523.9,182.5,513.4,153.2z"/>
<path class="st5" d="M298,43.8C266.3,53.1,237.9,71.2,216,96l131.3,114.9l48-167.7C363.4,34.2,329.8,34.4,298,43.8z"/>
<g>
	<path class="st6" d="M391.9,42.2l-0.8,0.8l2.2,2.2l1.9-1.9l0.1-0.3C394.1,42.8,393,42.5,391.9,42.2z"/>
	<polygon class="st6" points="383.9,73.5 381.7,71.2 379.4,73.5 381.7,75.7 379.4,78 381.7,80.2 383.9,78 385,79.1 387,72.1 
		386.2,71.2 	"/>
	<polygon class="st6" points="365.1,50.2 362.9,48 360.6,50.2 358.4,48 356.1,50.2 358.4,52.5 356.1,54.7 358.4,57 360.6,54.7 
		362.9,57 365.1,54.7 362.9,52.5 	"/>
	<polygon class="st6" points="328,59.6 325.7,61.9 323.5,59.6 321.3,61.9 323.5,64.1 321.3,66.4 323.5,68.6 325.7,66.4 328,68.6 
		330.2,66.4 328,64.1 330.2,61.9 	"/>
	<path class="st6" d="M302.5,43.1l2.2,2.2l2.2-2.2l-1.4-1.4c-2.4,0.6-4.7,1.2-7.1,1.9l1.7,1.7L302.5,43.1z"/>
	<polygon class="st6" points="293.1,71.2 290.9,73.5 288.6,71.2 286.4,73.5 288.6,75.7 286.4,78 288.6,80.2 290.9,78 293.1,80.2 
		295.4,78 293.1,75.7 295.4,73.5 	"/>
	<path class="st6" d="M272.1,54.7l-0.7-0.7c-1,0.5-2,1-3,1.5l1.5,1.5L272.1,54.7z"/>
	<polygon class="st6" points="376.8,108.4 376.6,108.2 376.5,108.7 	"/>
	<polygon class="st6" points="372.3,108.4 370,106.1 367.8,108.4 370,110.6 367.8,112.9 370,115.1 372.3,112.9 374.5,115.1 
		374.7,115 375.6,111.7 374.5,110.6 376.5,108.7 376.6,108.2 374.5,106.1 	"/>
	<polygon class="st6" points="351.3,82.9 349,85.1 346.8,82.9 344.5,85.1 346.8,87.4 344.5,89.6 346.8,91.9 349,89.6 351.3,91.9 
		353.5,89.6 351.3,87.4 353.5,85.1 	"/>
	<polygon class="st6" points="339.6,117.8 337.4,120 335.1,117.8 332.9,120 335.1,122.3 332.9,124.5 335.1,126.8 337.4,124.5 
		339.6,126.8 341.9,124.5 339.6,122.3 341.9,120 	"/>
	<polygon class="st6" points="316.4,94.5 314.1,96.8 311.9,94.5 309.6,96.8 311.9,99 309.6,101.3 311.9,103.5 314.1,101.3 
		316.4,103.5 318.6,101.3 316.4,99 318.6,96.8 	"/>
	<polygon class="st6" points="362.9,141 360.6,143.3 358.4,141 356.1,143.3 358.4,145.5 356.1,147.8 358.4,150 360.6,147.8 
		362.9,150 365.1,147.8 362.9,145.5 365.1,143.3 	"/>
	<polygon class="st6" points="281.5,106.1 279.2,108.4 277,106.1 274.7,108.4 277,110.6 274.7,112.9 277,115.1 279.2,112.9 
		281.5,115.1 283.7,112.9 281.5,110.6 283.7,108.4 	"/>
	<polygon class="st6" points="258.2,82.9 256,85.1 253.7,82.9 251.5,85.1 253.7,87.4 251.5,89.6 253.7,91.9 256,89.6 258.2,91.9 
		260.5,89.6 258.2,87.4 260.5,85.1 	"/>
	<polygon class="st6" points="246.6,122.3 248.8,120 246.6,117.8 244.3,120 242.1,117.8 241.5,118.3 248.7,124.6 248.8,124.5 	"/>
	<polygon class="st6" points="223.3,99 225.6,96.8 223.3,94.5 221.1,96.8 218.8,94.5 216.7,96.6 223.9,102.9 225.6,101.3 	"/>
	<polygon class="st6" points="328,152.7 325.7,154.9 323.5,152.7 321.3,154.9 323.5,157.2 321.3,159.4 323.5,161.7 325.7,159.4 
		328,161.7 330.2,159.4 328,157.2 330.2,154.9 	"/>
	<polygon class="st6" points="304.7,129.4 302.5,131.7 300.2,129.4 298,131.7 300.2,133.9 298,136.2 300.2,138.4 302.5,136.2 
		304.7,138.4 307,136.2 304.7,133.9 307,131.7 	"/>
	<polygon class="st6" points="269.8,141 268.7,142.1 271.1,144.2 272.1,143.3 	"/>
	<polygon class="st6" points="351.3,175.9 349,178.2 346.8,175.9 344.5,178.2 346.8,180.4 344.5,182.7 346.8,184.9 349,182.7 
		351.3,184.9 353.5,182.7 351.3,180.4 353.5,178.2 	"/>
</g>
<g>
	<path class="st7" d="M189.4,135.8c-7.1,14.7-12.1,30.1-14.9,45.9L189.4,135.8L189.4,135.8z"/>
	<path class="st7" d="M195.3,138.8l-23.5,72.1c0,2.1,0,4.2,0.1,6.3l25.3-77.5L195.3,138.8z"/>
	<path class="st7" d="M203,142.5l-29.9,91.6c0.2,1.5,0.4,3,0.6,4.6l31.1-95.2L203,142.5z"/>
	<path class="st7" d="M210.6,146.3l-34.5,105.5c0.3,1.2,0.6,2.5,0.9,3.7l35.4-108.3L210.6,146.3z"/>
	<path class="st7" d="M218.3,150.1l-38.1,116.5c0.3,1.1,0.7,2.1,1.1,3.2L220.1,151L218.3,150.1z"/>
	<path class="st7" d="M226,153.8l-41,125.6c0.4,0.9,0.8,1.9,1.2,2.8l41.7-127.5L226,153.8z"/>
	<path class="st7" d="M233.6,157.6l-43.5,133.3c0.4,0.8,0.8,1.7,1.3,2.5l44.1-134.9L233.6,157.6z"/>
	<path class="st7" d="M241.3,161.4l-45.6,139.8c0.4,0.8,0.9,1.5,1.4,2.3l46.1-141.2L241.3,161.4z"/>
	<path class="st7" d="M249,165.1l-47.5,145.4c0.5,0.7,0.9,1.4,1.4,2.1L250.8,166L249,165.1z"/>
	<path class="st7" d="M256.6,168.9l-49,150.1c0.5,0.6,1,1.3,1.5,1.9l49.4-151.2L256.6,168.9z"/>
	<path class="st7" d="M264.3,172.7l-50.4,154.2c0.5,0.6,1,1.2,1.5,1.8l50.7-155.1L264.3,172.7z"/>
	<path class="st7" d="M272,176.4l-51.5,157.7c0.5,0.5,1,1.1,1.6,1.6l51.7-158.4L272,176.4z"/>
	<path class="st7" d="M279.6,180.2l-52.4,160.6c0.5,0.5,1.1,1,1.6,1.5l52.6-161.2L279.6,180.2z"/>
	<path class="st7" d="M287.3,184l-53.2,163c0.5,0.5,1.1,0.9,1.7,1.4l53.4-163.5L287.3,184z"/>
	<path class="st7" d="M295,187.8l-53.8,164.9c0.6,0.4,1.1,0.8,1.7,1.3l54-165.2L295,187.8z"/>
	<path class="st7" d="M302.6,191.5l-54.3,166.3c0.6,0.4,1.1,0.8,1.7,1.2l54.4-166.6L302.6,191.5z"/>
	<path class="st7" d="M310.3,195.3l-54.6,167.3c0.6,0.4,1.2,0.7,1.8,1.1l54.7-167.5L310.3,195.3z"/>
	<path class="st7" d="M318,199.1l-54.8,167.9c0.6,0.3,1.2,0.6,1.8,1l54.8-167.9L318,199.1z"/>
	<path class="st7" d="M325.6,202.8l-54.9,168c0.6,0.3,1.2,0.6,1.8,0.9l54.9-168L325.6,202.8z"/>
	<path class="st7" d="M333.3,206.6l-54.8,167.8c0.6,0.3,1.2,0.5,1.9,0.8l54.8-167.7L333.3,206.6z"/>
	<path class="st7" d="M340.9,210.4l-54.6,167.2c0.6,0.2,1.3,0.5,1.9,0.7l54.5-167L340.9,210.4z"/>
	<path class="st7" d="M348.5,214.6l-54.1,165.7c0.6,0.2,1.3,0.4,1.9,0.6L350.1,216L348.5,214.6z"/>
	<path class="st7" d="M362.3,226.7l-51.6,158c0.7,0.1,1.3,0.3,2,0.4l51.3-157L362.3,226.7z"/>
	<path class="st7" d="M376.1,238.8l-48.6,148.7c0.7,0.1,1.4,0.1,2,0.2l48.2-147.5L376.1,238.8z"/>
	<path class="st7" d="M390,250.9l-45,137.7c0.7,0,1.4,0,2.1,0l44.5-136.3L390,250.9z"/>
	<path class="st7" d="M403.8,263l-40.8,125c0.7-0.1,1.4-0.1,2.2-0.2l40.3-123.3L403.8,263z"/>
	<path class="st7" d="M417.7,275.1l-36,110.2c0.8-0.1,1.5-0.3,2.3-0.5l35.4-108.3L417.7,275.1z"/>
	<path class="st7" d="M431.5,287.2l-30.4,93.1c0.8-0.3,1.6-0.5,2.4-0.8l29.7-90.9L431.5,287.2z"/>
	<path class="st7" d="M445.3,299.3l-23.9,73.1c0.8-0.4,1.7-0.8,2.5-1.2l23-70.5L445.3,299.3z"/>
	<path class="st7" d="M459.2,311.4l-16,49.1c0.9-0.6,1.8-1.2,2.7-1.8l15-45.9L459.2,311.4z"/>
	<path class="st7" d="M474.6,325l-1.6-1.4l-6.1,18.6c1-0.9,2-1.9,3-2.9L474.6,325z"/>
	<path class="st7" d="M355.4,220.6l-52.9,162.1c0.6,0.2,1.3,0.3,1.9,0.5L357,222L355.4,220.6z"/>
	<path class="st7" d="M369.2,232.7l-50.1,153.5c0.7,0.1,1.3,0.2,2,0.3l49.8-152.4L369.2,232.7z"/>
	<path class="st7" d="M383.1,244.8l-46.8,143.4c0.7,0,1.4,0.1,2.1,0.1l46.4-142.1L383.1,244.8z"/>
	<path class="st7" d="M396.9,256.9l-43,131.6c0.7,0,1.4-0.1,2.1-0.1l42.5-130L396.9,256.9z"/>
	<path class="st7" d="M410.7,269l-38.5,117.8c0.7-0.1,1.5-0.2,2.2-0.3l37.9-116.1L410.7,269z"/>
	<path class="st7" d="M424.6,281.1l-33.3,102c0.8-0.2,1.5-0.4,2.3-0.6l32.6-100L424.6,281.1z"/>
	<path class="st7" d="M438.4,293.3l-27.3,83.5c0.8-0.3,1.6-0.6,2.4-0.9l26.5-81.2L438.4,293.3z"/>
	<path class="st7" d="M452.3,305.4l-20.2,61.7c0.9-0.5,1.7-0.9,2.6-1.4l19.2-58.9L452.3,305.4z"/>
	<path class="st7" d="M466.1,317.5l-11.4,34.9c0.9-0.7,1.9-1.5,2.8-2.2l10.2-31.3L466.1,317.5z"/>
</g>
<g>
	<path class="st8" d="M519,172.3c-0.2-0.7-0.3-1.4-0.5-2.2c-0.1,0.2-0.2,0.5-0.2,0.8C518.4,171.4,518.6,171.9,519,172.3z"/>
	<path class="st8" d="M520.1,184.8c-1,0-1.7,0.8-1.7,1.7s0.8,1.7,1.7,1.7c0.9,0,1.7-0.7,1.7-1.6c0-0.3-0.1-0.5-0.1-0.8
		C521.4,185.3,520.8,184.8,520.1,184.8z"/>
	<path class="st8" d="M520.1,200.5c-1,0-1.7,0.8-1.7,1.7c0,1,0.8,1.7,1.7,1.7c1,0,1.7-0.8,1.7-1.7
		C521.8,201.3,521.1,200.5,520.1,200.5z"/>
	<path class="st8" d="M520.1,216.2c-1,0-1.7,0.8-1.7,1.7c0,1,0.8,1.7,1.7,1.7c1,0,1.7-0.8,1.7-1.7
		C521.8,217,521.1,216.2,520.1,216.2z"/>
	<path class="st8" d="M523.7,209.5c-0.1,0.2-0.1,0.4-0.1,0.7c0,0.3,0.1,0.5,0.2,0.7C523.7,210.4,523.7,209.9,523.7,209.5z"/>
	<path class="st8" d="M520.1,231.9c-1,0-1.7,0.8-1.7,1.7c0,1,0.8,1.7,1.7,1.7c1,0,1.7-0.8,1.7-1.7
		C521.8,232.7,521.1,231.9,520.1,231.9z"/>
	<path class="st8" d="M518.4,249.3c0,0.8,0.5,1.4,1.2,1.6c0.3-1.1,0.5-2.2,0.7-3.4c0,0-0.1,0-0.1,0
		C519.1,247.6,518.4,248.4,518.4,249.3z"/>
	<path class="st8" d="M509.6,156.9c1,0,1.7-0.8,1.7-1.7c0-0.4-0.2-0.8-0.4-1.1l-3.1,1.1C507.9,156.1,508.7,156.9,509.6,156.9z"/>
	<path class="st8" d="M509.6,169.1c-1,0-1.7,0.8-1.7,1.7s0.8,1.7,1.7,1.7c1,0,1.7-0.8,1.7-1.7S510.6,169.1,509.6,169.1z"/>
	<path class="st8" d="M516.4,162.2c0.1,0.3,0.2,0.5,0.2,0.8C516.6,162.7,516.5,162.4,516.4,162.2z"/>
	<path class="st8" d="M514.9,161.3c-1,0-1.7,0.8-1.7,1.7c0,1,0.8,1.7,1.7,1.7c1,0,1.7-0.8,1.7-1.7c0,0,0-0.1,0-0.1
		c-0.1-0.3-0.2-0.5-0.2-0.8C516,161.7,515.5,161.3,514.9,161.3z"/>
	<path class="st8" d="M509.6,184.8c-1,0-1.7,0.8-1.7,1.7s0.8,1.7,1.7,1.7c1,0,1.7-0.8,1.7-1.7S510.6,184.8,509.6,184.8z"/>
	<path class="st8" d="M514.9,177c-1,0-1.7,0.8-1.7,1.7c0,1,0.8,1.7,1.7,1.7c1,0,1.7-0.8,1.7-1.7C516.6,177.8,515.8,177,514.9,177z"
		/>
	<path class="st8" d="M509.6,200.5c-1,0-1.7,0.8-1.7,1.7c0,1,0.8,1.7,1.7,1.7c1,0,1.7-0.8,1.7-1.7
		C511.4,201.3,510.6,200.5,509.6,200.5z"/>
	<path class="st8" d="M514.9,192.7c-1,0-1.7,0.8-1.7,1.7s0.8,1.7,1.7,1.7c1,0,1.7-0.8,1.7-1.7S515.8,192.7,514.9,192.7z"/>
	<path class="st8" d="M509.6,216.2c-1,0-1.7,0.8-1.7,1.7c0,1,0.8,1.7,1.7,1.7c1,0,1.7-0.8,1.7-1.7
		C511.4,217,510.6,216.2,509.6,216.2z"/>
	<path class="st8" d="M514.9,208.4c-1,0-1.7,0.8-1.7,1.7s0.8,1.7,1.7,1.7c1,0,1.7-0.8,1.7-1.7S515.8,208.4,514.9,208.4z"/>
	<path class="st8" d="M509.6,231.9c-1,0-1.7,0.8-1.7,1.7c0,1,0.8,1.7,1.7,1.7c1,0,1.7-0.8,1.7-1.7
		C511.4,232.7,510.6,231.9,509.6,231.9z"/>
	<path class="st8" d="M514.9,224.1c-1,0-1.7,0.8-1.7,1.7s0.8,1.7,1.7,1.7c1,0,1.7-0.8,1.7-1.7S515.8,224.1,514.9,224.1z"/>
	<path class="st8" d="M509.6,247.6c-1,0-1.7,0.8-1.7,1.7s0.8,1.7,1.7,1.7c1,0,1.7-0.8,1.7-1.7S510.6,247.6,509.6,247.6z"/>
	<path class="st8" d="M514.9,239.8c-1,0-1.7,0.8-1.7,1.7c0,1,0.8,1.7,1.7,1.7c1,0,1.7-0.8,1.7-1.7
		C516.6,240.6,515.8,239.8,514.9,239.8z"/>
	<path class="st8" d="M509.6,263.3c-1,0-1.7,0.8-1.7,1.7c0,1,0.8,1.7,1.7,1.7c1,0,1.7-0.8,1.7-1.7
		C511.4,264.1,510.6,263.3,509.6,263.3z"/>
	<path class="st8" d="M514.9,255.5c-1,0-1.7,0.8-1.7,1.7c0,1,0.8,1.7,1.7,1.7c1,0,1.7-0.8,1.7-1.7
		C516.6,256.3,515.8,255.5,514.9,255.5z"/>
	<path class="st8" d="M507.9,280.7c0,0.8,0.6,1.5,1.4,1.7c0.5-1,0.9-2.1,1.3-3.2c-0.3-0.2-0.6-0.3-1-0.3
		C508.7,279,507.9,279.8,507.9,280.7z"/>
	<path class="st8" d="M513.4,271.9c-0.2,0.3-0.3,0.6-0.3,0.9C513.2,272.5,513.3,272.2,513.4,271.9z"/>
	<circle class="st8" cx="499.2" cy="170.9" r="1.7"/>
	<path class="st8" d="M504.4,161.3c-1,0-1.7,0.8-1.7,1.7c0,1,0.8,1.7,1.7,1.7c1,0,1.7-0.8,1.7-1.7
		C506.1,162.1,505.4,161.3,504.4,161.3z"/>
	<circle class="st8" cx="499.2" cy="186.6" r="1.7"/>
	<path class="st8" d="M504.4,177c-1,0-1.7,0.8-1.7,1.7c0,1,0.8,1.7,1.7,1.7c1,0,1.7-0.8,1.7-1.7C506.1,177.8,505.4,177,504.4,177z"
		/>
	<circle class="st8" cx="499.2" cy="202.3" r="1.7"/>
	<path class="st8" d="M504.4,192.7c-1,0-1.7,0.8-1.7,1.7s0.8,1.7,1.7,1.7c1,0,1.7-0.8,1.7-1.7S505.4,192.7,504.4,192.7z"/>
	<path class="st8" d="M499.2,216.2c-1,0-1.7,0.8-1.7,1.7c0,1,0.8,1.7,1.7,1.7s1.7-0.8,1.7-1.7C500.9,217,500.1,216.2,499.2,216.2z"
		/>
	<path class="st8" d="M504.4,208.4c-1,0-1.7,0.8-1.7,1.7s0.8,1.7,1.7,1.7c1,0,1.7-0.8,1.7-1.7S505.4,208.4,504.4,208.4z"/>
	<circle class="st8" cx="499.2" cy="233.7" r="1.7"/>
	<path class="st8" d="M504.4,224.1c-1,0-1.7,0.8-1.7,1.7s0.8,1.7,1.7,1.7c1,0,1.7-0.8,1.7-1.7S505.4,224.1,504.4,224.1z"/>
	<circle class="st8" cx="499.2" cy="249.3" r="1.7"/>
	<path class="st8" d="M504.4,239.8c-1,0-1.7,0.8-1.7,1.7c0,1,0.8,1.7,1.7,1.7c1,0,1.7-0.8,1.7-1.7
		C506.1,240.6,505.4,239.8,504.4,239.8z"/>
	<path class="st8" d="M499.2,263.3c-1,0-1.7,0.8-1.7,1.7c0,1,0.8,1.7,1.7,1.7s1.7-0.8,1.7-1.7C500.9,264.1,500.1,263.3,499.2,263.3z
		"/>
	<path class="st8" d="M504.4,255.5c-1,0-1.7,0.8-1.7,1.7c0,1,0.8,1.7,1.7,1.7c1,0,1.7-0.8,1.7-1.7
		C506.1,256.3,505.4,255.5,504.4,255.5z"/>
	<path class="st8" d="M499.2,279c-1,0-1.7,0.8-1.7,1.7c0,1,0.8,1.7,1.7,1.7s1.7-0.8,1.7-1.7C500.9,279.8,500.1,279,499.2,279z"/>
	<path class="st8" d="M504.4,271.2c-1,0-1.7,0.8-1.7,1.7c0,1,0.8,1.7,1.7,1.7c1,0,1.7-0.8,1.7-1.7
		C506.1,272,505.4,271.2,504.4,271.2z"/>
	<path class="st8" d="M499.2,294.7c-1,0-1.7,0.8-1.7,1.7c0,1,0.8,1.7,1.7,1.7s1.7-0.8,1.7-1.7C500.9,295.5,500.1,294.7,499.2,294.7z
		"/>
	<path class="st8" d="M504.4,286.9c-1,0-1.7,0.8-1.7,1.7c0,1,0.8,1.7,1.7,1.7c1,0,1.7-0.8,1.7-1.7
		C506.1,287.7,505.4,286.9,504.4,286.9z"/>
	<path class="st8" d="M488.7,169.1c-1,0-1.7,0.8-1.7,1.7s0.8,1.7,1.7,1.7s1.7-0.8,1.7-1.7S489.7,169.1,488.7,169.1z"/>
	<path class="st8" d="M493.9,161.3c-1,0-1.7,0.8-1.7,1.7c0,1,0.8,1.7,1.7,1.7s1.7-0.8,1.7-1.7C495.7,162.1,494.9,161.3,493.9,161.3z
		"/>
	<path class="st8" d="M488.7,184.8c-1,0-1.7,0.8-1.7,1.7s0.8,1.7,1.7,1.7s1.7-0.8,1.7-1.7S489.7,184.8,488.7,184.8z"/>
	<path class="st8" d="M493.9,177c-1,0-1.7,0.8-1.7,1.7c0,1,0.8,1.7,1.7,1.7s1.7-0.8,1.7-1.7C495.7,177.8,494.9,177,493.9,177z"/>
	<path class="st8" d="M488.7,200.5c-1,0-1.7,0.8-1.7,1.7c0,1,0.8,1.7,1.7,1.7s1.7-0.8,1.7-1.7C490.5,201.3,489.7,200.5,488.7,200.5z
		"/>
	<circle class="st8" cx="493.9" cy="194.4" r="1.7"/>
	<path class="st8" d="M488.7,216.2c-1,0-1.7,0.8-1.7,1.7c0,1,0.8,1.7,1.7,1.7s1.7-0.8,1.7-1.7C490.5,217,489.7,216.2,488.7,216.2z"
		/>
	<circle class="st8" cx="493.9" cy="210.1" r="1.7"/>
	<path class="st8" d="M488.7,231.9c-1,0-1.7,0.8-1.7,1.7c0,1,0.8,1.7,1.7,1.7s1.7-0.8,1.7-1.7C490.5,232.7,489.7,231.9,488.7,231.9z
		"/>
	<path class="st8" d="M493.9,224.1c-1,0-1.7,0.8-1.7,1.7s0.8,1.7,1.7,1.7s1.7-0.8,1.7-1.7S494.9,224.1,493.9,224.1z"/>
	<path class="st8" d="M488.7,247.6c-1,0-1.7,0.8-1.7,1.7s0.8,1.7,1.7,1.7s1.7-0.8,1.7-1.7S489.7,247.6,488.7,247.6z"/>
	<path class="st8" d="M493.9,239.8c-1,0-1.7,0.8-1.7,1.7c0,1,0.8,1.7,1.7,1.7s1.7-0.8,1.7-1.7C495.7,240.6,494.9,239.8,493.9,239.8z
		"/>
	<path class="st8" d="M488.7,263.3c-1,0-1.7,0.8-1.7,1.7c0,1,0.8,1.7,1.7,1.7s1.7-0.8,1.7-1.7C490.5,264.1,489.7,263.3,488.7,263.3z
		"/>
	<path class="st8" d="M493.9,255.5c-1,0-1.7,0.8-1.7,1.7c0,1,0.8,1.7,1.7,1.7s1.7-0.8,1.7-1.7C495.7,256.3,494.9,255.5,493.9,255.5z
		"/>
	<path class="st8" d="M488.7,279c-1,0-1.7,0.8-1.7,1.7c0,1,0.8,1.7,1.7,1.7s1.7-0.8,1.7-1.7C490.5,279.8,489.7,279,488.7,279z"/>
	<path class="st8" d="M493.9,271.2c-1,0-1.7,0.8-1.7,1.7c0,1,0.8,1.7,1.7,1.7s1.7-0.8,1.7-1.7C495.7,272,494.9,271.2,493.9,271.2z"
		/>
	<path class="st8" d="M488.7,294.7c-1,0-1.7,0.8-1.7,1.7c0,1,0.8,1.7,1.7,1.7s1.7-0.8,1.7-1.7C490.5,295.5,489.7,294.7,488.7,294.7z
		"/>
	<path class="st8" d="M493.9,286.9c-1,0-1.7,0.8-1.7,1.7c0,1,0.8,1.7,1.7,1.7s1.7-0.8,1.7-1.7C495.7,287.7,494.9,286.9,493.9,286.9z
		"/>
	<path class="st8" d="M488.7,310.4c-1,0-1.7,0.8-1.7,1.7c0,1,0.8,1.7,1.7,1.7s1.7-0.8,1.7-1.7C490.5,311.2,489.7,310.4,488.7,310.4z
		"/>
	<path class="st8" d="M493.9,302.6c-1,0-1.7,0.8-1.7,1.7c0,1,0.8,1.7,1.7,1.7s1.7-0.8,1.7-1.7C495.7,303.4,494.9,302.6,493.9,302.6z
		"/>
	<circle class="st8" cx="478.2" cy="170.9" r="1.7"/>
	<path class="st8" d="M485.2,163.5l-2.7,1c0.3,0.2,0.6,0.3,1,0.3C484.3,164.8,485,164.2,485.2,163.5z"/>
	<circle class="st8" cx="478.2" cy="186.6" r="1.7"/>
	<path class="st8" d="M483.5,177c-1,0-1.7,0.8-1.7,1.7c0,1,0.8,1.7,1.7,1.7c1,0,1.7-0.8,1.7-1.7C485.2,177.8,484.4,177,483.5,177z"
		/>
	<circle class="st8" cx="478.2" cy="202.3" r="1.7"/>
	<circle class="st8" cx="483.5" cy="194.4" r="1.7"/>
	<path class="st8" d="M478.2,216.2c-1,0-1.7,0.8-1.7,1.7c0,1,0.8,1.7,1.7,1.7s1.7-0.8,1.7-1.7C480,217,479.2,216.2,478.2,216.2z"/>
	<circle class="st8" cx="483.5" cy="210.1" r="1.7"/>
	<circle class="st8" cx="478.2" cy="233.7" r="1.7"/>
	<path class="st8" d="M483.5,224.1c-1,0-1.7,0.8-1.7,1.7s0.8,1.7,1.7,1.7c1,0,1.7-0.8,1.7-1.7S484.4,224.1,483.5,224.1z"/>
	<circle class="st8" cx="478.2" cy="249.3" r="1.7"/>
	<path class="st8" d="M483.5,239.8c-1,0-1.7,0.8-1.7,1.7c0,1,0.8,1.7,1.7,1.7c1,0,1.7-0.8,1.7-1.7
		C485.2,240.6,484.4,239.8,483.5,239.8z"/>
	<path class="st8" d="M478.2,263.3c-1,0-1.7,0.8-1.7,1.7c0,1,0.8,1.7,1.7,1.7s1.7-0.8,1.7-1.7C480,264.1,479.2,263.3,478.2,263.3z"
		/>
	<path class="st8" d="M483.5,255.5c-1,0-1.7,0.8-1.7,1.7c0,1,0.8,1.7,1.7,1.7c1,0,1.7-0.8,1.7-1.7
		C485.2,256.3,484.4,255.5,483.5,255.5z"/>
	<path class="st8" d="M478.2,279c-1,0-1.7,0.8-1.7,1.7c0,1,0.8,1.7,1.7,1.7s1.7-0.8,1.7-1.7C480,279.8,479.2,279,478.2,279z"/>
	<path class="st8" d="M483.5,271.2c-1,0-1.7,0.8-1.7,1.7c0,1,0.8,1.7,1.7,1.7c1,0,1.7-0.8,1.7-1.7
		C485.2,272,484.4,271.2,483.5,271.2z"/>
	<path class="st8" d="M478.2,294.7c-1,0-1.7,0.8-1.7,1.7c0,1,0.8,1.7,1.7,1.7s1.7-0.8,1.7-1.7C480,295.5,479.2,294.7,478.2,294.7z"
		/>
	<path class="st8" d="M483.5,286.9c-1,0-1.7,0.8-1.7,1.7c0,1,0.8,1.7,1.7,1.7c1,0,1.7-0.8,1.7-1.7
		C485.2,287.7,484.4,286.9,483.5,286.9z"/>
	<path class="st8" d="M478.2,310.4c-1,0-1.7,0.8-1.7,1.7c0,1,0.8,1.7,1.7,1.7s1.7-0.8,1.7-1.7C480,311.2,479.2,310.4,478.2,310.4z"
		/>
	<path class="st8" d="M483.5,302.6c-1,0-1.7,0.8-1.7,1.7c0,1,0.8,1.7,1.7,1.7c1,0,1.7-0.8,1.7-1.7
		C485.2,303.4,484.4,302.6,483.5,302.6z"/>
	<path class="st8" d="M483.5,318.3c-1,0-1.7,0.8-1.7,1.7c0,1,0.8,1.7,1.7,1.7c1,0,1.7-0.8,1.7-1.7
		C485.2,319,484.4,318.3,483.5,318.3z"/>
	<path class="st8" d="M467.8,172.6c1,0,1.7-0.8,1.7-1.7c0-0.6-0.3-1.1-0.7-1.4l-2.7,1c0,0.1-0.1,0.3-0.1,0.4
		C466,171.8,466.8,172.6,467.8,172.6z"/>
	<path class="st8" d="M467.8,184.8c-1,0-1.7,0.8-1.7,1.7s0.8,1.7,1.7,1.7c1,0,1.7-0.8,1.7-1.7S468.7,184.8,467.8,184.8z"/>
	<path class="st8" d="M473,177c-1,0-1.7,0.8-1.7,1.7c0,1,0.8,1.7,1.7,1.7s1.7-0.8,1.7-1.7C474.8,177.8,474,177,473,177z"/>
	<path class="st8" d="M467.8,200.5c-1,0-1.7,0.8-1.7,1.7c0,1,0.8,1.7,1.7,1.7c1,0,1.7-0.8,1.7-1.7
		C469.5,201.3,468.7,200.5,467.8,200.5z"/>
	<circle class="st8" cx="473" cy="194.4" r="1.7"/>
	<path class="st8" d="M467.8,216.2c-1,0-1.7,0.8-1.7,1.7c0,1,0.8,1.7,1.7,1.7c1,0,1.7-0.8,1.7-1.7
		C469.5,217,468.7,216.2,467.8,216.2z"/>
	<circle class="st8" cx="473" cy="210.1" r="1.7"/>
	<path class="st8" d="M467.8,231.9c-1,0-1.7,0.8-1.7,1.7c0,1,0.8,1.7,1.7,1.7c1,0,1.7-0.8,1.7-1.7
		C469.5,232.7,468.7,231.9,467.8,231.9z"/>
	<path class="st8" d="M473,224.1c-1,0-1.7,0.8-1.7,1.7s0.8,1.7,1.7,1.7s1.7-0.8,1.7-1.7S474,224.1,473,224.1z"/>
	<path class="st8" d="M467.8,247.6c-1,0-1.7,0.8-1.7,1.7s0.8,1.7,1.7,1.7c1,0,1.7-0.8,1.7-1.7S468.7,247.6,467.8,247.6z"/>
	<path class="st8" d="M473,239.8c-1,0-1.7,0.8-1.7,1.7c0,1,0.8,1.7,1.7,1.7s1.7-0.8,1.7-1.7C474.8,240.6,474,239.8,473,239.8z"/>
	<path class="st8" d="M467.8,263.3c-1,0-1.7,0.8-1.7,1.7c0,1,0.8,1.7,1.7,1.7c1,0,1.7-0.8,1.7-1.7
		C469.5,264.1,468.7,263.3,467.8,263.3z"/>
	<path class="st8" d="M473,255.5c-1,0-1.7,0.8-1.7,1.7c0,1,0.8,1.7,1.7,1.7s1.7-0.8,1.7-1.7C474.8,256.3,474,255.5,473,255.5z"/>
	<path class="st8" d="M467.8,279c-1,0-1.7,0.8-1.7,1.7c0,1,0.8,1.7,1.7,1.7c1,0,1.7-0.8,1.7-1.7C469.5,279.8,468.7,279,467.8,279z"
		/>
	<path class="st8" d="M473,271.2c-1,0-1.7,0.8-1.7,1.7c0,1,0.8,1.7,1.7,1.7s1.7-0.8,1.7-1.7C474.8,272,474,271.2,473,271.2z"/>
	<path class="st8" d="M467.8,294.7c-1,0-1.7,0.8-1.7,1.7c0,1,0.8,1.7,1.7,1.7c1,0,1.7-0.8,1.7-1.7
		C469.5,295.5,468.7,294.7,467.8,294.7z"/>
	<path class="st8" d="M473,286.9c-1,0-1.7,0.8-1.7,1.7c0,1,0.8,1.7,1.7,1.7s1.7-0.8,1.7-1.7C474.8,287.7,474,286.9,473,286.9z"/>
	<path class="st8" d="M467.8,310.4c-1,0-1.7,0.8-1.7,1.7c0,1,0.8,1.7,1.7,1.7c1,0,1.7-0.8,1.7-1.7
		C469.5,311.2,468.7,310.4,467.8,310.4z"/>
	<path class="st8" d="M473,302.6c-1,0-1.7,0.8-1.7,1.7c0,1,0.8,1.7,1.7,1.7s1.7-0.8,1.7-1.7C474.8,303.4,474,302.6,473,302.6z"/>
	<path class="st8" d="M474.8,320c0-1-0.8-1.7-1.7-1.7c-0.7,0-1.3,0.4-1.6,1l2.5,2.2C474.4,321.2,474.8,320.6,474.8,320z"/>
	<circle class="st8" cx="457.3" cy="186.6" r="1.7"/>
	<path class="st8" d="M462.5,177c-1,0-1.7,0.8-1.7,1.7c0,1,0.8,1.7,1.7,1.7s1.7-0.8,1.7-1.7C464.3,177.8,463.5,177,462.5,177z"/>
	<circle class="st8" cx="457.3" cy="202.3" r="1.7"/>
	<circle class="st8" cx="462.5" cy="194.4" r="1.7"/>
	<path class="st8" d="M457.3,216.2c-1,0-1.7,0.8-1.7,1.7c0,1,0.8,1.7,1.7,1.7s1.7-0.8,1.7-1.7C459.1,217,458.3,216.2,457.3,216.2z"
		/>
	<circle class="st8" cx="462.5" cy="210.1" r="1.7"/>
	<circle class="st8" cx="457.3" cy="233.7" r="1.7"/>
	<path class="st8" d="M462.5,224.1c-1,0-1.7,0.8-1.7,1.7s0.8,1.7,1.7,1.7s1.7-0.8,1.7-1.7S463.5,224.1,462.5,224.1z"/>
	<circle class="st8" cx="457.3" cy="249.3" r="1.7"/>
	<path class="st8" d="M462.5,239.8c-1,0-1.7,0.8-1.7,1.7c0,1,0.8,1.7,1.7,1.7s1.7-0.8,1.7-1.7C464.3,240.6,463.5,239.8,462.5,239.8z
		"/>
	<path class="st8" d="M457.3,263.3c-1,0-1.7,0.8-1.7,1.7c0,1,0.8,1.7,1.7,1.7s1.7-0.8,1.7-1.7C459.1,264.1,458.3,263.3,457.3,263.3z
		"/>
	<path class="st8" d="M462.5,255.5c-1,0-1.7,0.8-1.7,1.7c0,1,0.8,1.7,1.7,1.7s1.7-0.8,1.7-1.7C464.3,256.3,463.5,255.5,462.5,255.5z
		"/>
	<path class="st8" d="M457.3,279c-1,0-1.7,0.8-1.7,1.7c0,1,0.8,1.7,1.7,1.7s1.7-0.8,1.7-1.7C459.1,279.8,458.3,279,457.3,279z"/>
	<path class="st8" d="M462.5,271.2c-1,0-1.7,0.8-1.7,1.7c0,1,0.8,1.7,1.7,1.7s1.7-0.8,1.7-1.7C464.3,272,463.5,271.2,462.5,271.2z"
		/>
	<path class="st8" d="M457.3,294.7c-1,0-1.7,0.8-1.7,1.7c0,1,0.8,1.7,1.7,1.7s1.7-0.8,1.7-1.7C459.1,295.5,458.3,294.7,457.3,294.7z
		"/>
	<path class="st8" d="M462.5,286.9c-1,0-1.7,0.8-1.7,1.7c0,1,0.8,1.7,1.7,1.7s1.7-0.8,1.7-1.7C464.3,287.7,463.5,286.9,462.5,286.9z
		"/>
	<path class="st8" d="M462.5,302.6c-1,0-1.7,0.8-1.7,1.7c0,1,0.8,1.7,1.7,1.7s1.7-0.8,1.7-1.7C464.3,303.4,463.5,302.6,462.5,302.6z
		"/>
	<circle class="st8" cx="446.9" cy="186.6" r="1.7"/>
	<path class="st8" d="M452.1,177c-1,0-1.7,0.8-1.7,1.7c0,1,0.8,1.7,1.7,1.7s1.7-0.8,1.7-1.7C453.8,177.8,453,177,452.1,177z"/>
	<circle class="st8" cx="446.9" cy="202.3" r="1.7"/>
	<circle class="st8" cx="452.1" cy="194.4" r="1.7"/>
	<path class="st8" d="M446.9,216.2c-1,0-1.7,0.8-1.7,1.7c0,1,0.8,1.7,1.7,1.7s1.7-0.8,1.7-1.7C448.6,217,447.8,216.2,446.9,216.2z"
		/>
	<circle class="st8" cx="452.1" cy="210.1" r="1.7"/>
	<circle class="st8" cx="446.9" cy="233.7" r="1.7"/>
	<path class="st8" d="M452.1,224.1c-1,0-1.7,0.8-1.7,1.7s0.8,1.7,1.7,1.7s1.7-0.8,1.7-1.7S453,224.1,452.1,224.1z"/>
	<circle class="st8" cx="446.9" cy="249.3" r="1.7"/>
	<path class="st8" d="M452.1,239.8c-1,0-1.7,0.8-1.7,1.7c0,1,0.8,1.7,1.7,1.7s1.7-0.8,1.7-1.7C453.8,240.6,453,239.8,452.1,239.8z"
		/>
	<path class="st8" d="M446.9,263.3c-1,0-1.7,0.8-1.7,1.7c0,1,0.8,1.7,1.7,1.7s1.7-0.8,1.7-1.7C448.6,264.1,447.8,263.3,446.9,263.3z
		"/>
	<path class="st8" d="M452.1,255.5c-1,0-1.7,0.8-1.7,1.7c0,1,0.8,1.7,1.7,1.7s1.7-0.8,1.7-1.7C453.8,256.3,453,255.5,452.1,255.5z"
		/>
	<path class="st8" d="M446.9,279c-1,0-1.7,0.8-1.7,1.7c0,1,0.8,1.7,1.7,1.7s1.7-0.8,1.7-1.7C448.6,279.8,447.8,279,446.9,279z"/>
	<path class="st8" d="M452.1,271.2c-1,0-1.7,0.8-1.7,1.7c0,1,0.8,1.7,1.7,1.7s1.7-0.8,1.7-1.7C453.8,272,453,271.2,452.1,271.2z"/>
	<path class="st8" d="M448.6,296.4c0-1-0.8-1.7-1.7-1.7c-0.9,0-1.7,0.7-1.7,1.6l2.1,1.8C448,298,448.6,297.3,448.6,296.4z"/>
	<path class="st8" d="M452.1,286.9c-1,0-1.7,0.8-1.7,1.7c0,1,0.8,1.7,1.7,1.7s1.7-0.8,1.7-1.7C453.8,287.7,453,286.9,452.1,286.9z"
		/>
	<path class="st8" d="M452.3,302.6l1.4,1.3C453.6,303.2,453,302.7,452.3,302.6z"/>
	<circle class="st8" cx="436.4" cy="186.6" r="1.7"/>
	<path class="st8" d="M441.6,180.5c1,0,1.7-0.8,1.7-1.7c0,0,0,0,0,0l-3.1,1.1C440.6,180.3,441.1,180.5,441.6,180.5z"/>
	<circle class="st8" cx="436.4" cy="202.3" r="1.7"/>
	<circle class="st8" cx="441.6" cy="194.4" r="1.7"/>
	<path class="st8" d="M436.4,216.2c-1,0-1.7,0.8-1.7,1.7c0,1,0.8,1.7,1.7,1.7s1.7-0.8,1.7-1.7C438.1,217,437.4,216.2,436.4,216.2z"
		/>
	<circle class="st8" cx="441.6" cy="210.1" r="1.7"/>
	<circle class="st8" cx="436.4" cy="233.7" r="1.7"/>
	<path class="st8" d="M441.6,224.1c-1,0-1.7,0.8-1.7,1.7s0.8,1.7,1.7,1.7s1.7-0.8,1.7-1.7S442.6,224.1,441.6,224.1z"/>
	<circle class="st8" cx="436.4" cy="249.3" r="1.7"/>
	<path class="st8" d="M441.6,239.8c-1,0-1.7,0.8-1.7,1.7c0,1,0.8,1.7,1.7,1.7s1.7-0.8,1.7-1.7C443.4,240.6,442.6,239.8,441.6,239.8z
		"/>
	<path class="st8" d="M436.4,263.3c-1,0-1.7,0.8-1.7,1.7c0,1,0.8,1.7,1.7,1.7s1.7-0.8,1.7-1.7C438.1,264.1,437.4,263.3,436.4,263.3z
		"/>
	<path class="st8" d="M441.6,255.5c-1,0-1.7,0.8-1.7,1.7c0,1,0.8,1.7,1.7,1.7s1.7-0.8,1.7-1.7C443.4,256.3,442.6,255.5,441.6,255.5z
		"/>
	<path class="st8" d="M436.4,279c-1,0-1.7,0.8-1.7,1.7c0,1,0.8,1.7,1.7,1.7s1.7-0.8,1.7-1.7C438.1,279.8,437.4,279,436.4,279z"/>
	<path class="st8" d="M441.6,271.2c-1,0-1.7,0.8-1.7,1.7c0,1,0.8,1.7,1.7,1.7s1.7-0.8,1.7-1.7C443.4,272,442.6,271.2,441.6,271.2z"
		/>
	<path class="st8" d="M441.6,286.9c-1,0-1.7,0.8-1.7,1.7c0,1,0.8,1.7,1.7,1.7s1.7-0.8,1.7-1.7C443.4,287.7,442.6,286.9,441.6,286.9z
		"/>
	<path class="st8" d="M425.9,188.3c1,0,1.7-0.8,1.7-1.7c0-0.8-0.5-1.4-1.2-1.6l-2,0.7c-0.2,0.3-0.3,0.6-0.3,0.9
		C424.2,187.5,425,188.3,425.9,188.3z"/>
	<path class="st8" d="M425.9,200.5c-1,0-1.7,0.8-1.7,1.7c0,1,0.8,1.7,1.7,1.7s1.7-0.8,1.7-1.7C427.7,201.3,426.9,200.5,425.9,200.5z
		"/>
	<path class="st8" d="M431.2,192.7c-1,0-1.7,0.8-1.7,1.7s0.8,1.7,1.7,1.7c1,0,1.7-0.8,1.7-1.7S432.1,192.7,431.2,192.7z"/>
	<path class="st8" d="M425.9,216.2c-1,0-1.7,0.8-1.7,1.7c0,1,0.8,1.7,1.7,1.7s1.7-0.8,1.7-1.7C427.7,217,426.9,216.2,425.9,216.2z"
		/>
	<path class="st8" d="M431.2,208.4c-1,0-1.7,0.8-1.7,1.7s0.8,1.7,1.7,1.7c1,0,1.7-0.8,1.7-1.7S432.1,208.4,431.2,208.4z"/>
	<path class="st8" d="M425.9,231.9c-1,0-1.7,0.8-1.7,1.7c0,1,0.8,1.7,1.7,1.7s1.7-0.8,1.7-1.7C427.7,232.7,426.9,231.9,425.9,231.9z
		"/>
	<path class="st8" d="M431.2,224.1c-1,0-1.7,0.8-1.7,1.7s0.8,1.7,1.7,1.7c1,0,1.7-0.8,1.7-1.7S432.1,224.1,431.2,224.1z"/>
	<path class="st8" d="M425.9,247.6c-1,0-1.7,0.8-1.7,1.7s0.8,1.7,1.7,1.7s1.7-0.8,1.7-1.7S426.9,247.6,425.9,247.6z"/>
	<path class="st8" d="M431.2,239.8c-1,0-1.7,0.8-1.7,1.7c0,1,0.8,1.7,1.7,1.7c1,0,1.7-0.8,1.7-1.7
		C432.9,240.6,432.1,239.8,431.2,239.8z"/>
	<path class="st8" d="M425.9,263.3c-1,0-1.7,0.8-1.7,1.7c0,1,0.8,1.7,1.7,1.7s1.7-0.8,1.7-1.7C427.7,264.1,426.9,263.3,425.9,263.3z
		"/>
	<path class="st8" d="M431.2,255.5c-1,0-1.7,0.8-1.7,1.7c0,1,0.8,1.7,1.7,1.7c1,0,1.7-0.8,1.7-1.7
		C432.9,256.3,432.1,255.5,431.2,255.5z"/>
	<path class="st8" d="M425.9,279c-0.2,0-0.4,0-0.5,0.1l2.2,2c0-0.1,0-0.2,0-0.3C427.7,279.8,426.9,279,425.9,279z"/>
	<path class="st8" d="M431.2,271.2c-1,0-1.7,0.8-1.7,1.7c0,1,0.8,1.7,1.7,1.7c1,0,1.7-0.8,1.7-1.7
		C432.9,272,432.1,271.2,431.2,271.2z"/>
	<circle class="st8" cx="415.5" cy="202.3" r="1.7"/>
	<circle class="st8" cx="420.7" cy="194.4" r="1.7"/>
	<path class="st8" d="M415.5,216.2c-1,0-1.7,0.8-1.7,1.7c0,1,0.8,1.7,1.7,1.7c1,0,1.7-0.8,1.7-1.7
		C417.2,217,416.4,216.2,415.5,216.2z"/>
	<circle class="st8" cx="420.7" cy="210.1" r="1.7"/>
	<circle class="st8" cx="415.5" cy="233.7" r="1.7"/>
	<path class="st8" d="M420.7,224.1c-1,0-1.7,0.8-1.7,1.7s0.8,1.7,1.7,1.7s1.7-0.8,1.7-1.7S421.7,224.1,420.7,224.1z"/>
	<circle class="st8" cx="415.5" cy="249.3" r="1.7"/>
	<path class="st8" d="M420.7,239.8c-1,0-1.7,0.8-1.7,1.7c0,1,0.8,1.7,1.7,1.7s1.7-0.8,1.7-1.7C422.4,240.6,421.7,239.8,420.7,239.8z
		"/>
	<path class="st8" d="M415.5,263.3c-1,0-1.7,0.8-1.7,1.7c0,1,0.8,1.7,1.7,1.7c1,0,1.7-0.8,1.7-1.7
		C417.2,264.1,416.4,263.3,415.5,263.3z"/>
	<path class="st8" d="M420.7,255.5c-1,0-1.7,0.8-1.7,1.7c0,1,0.8,1.7,1.7,1.7s1.7-0.8,1.7-1.7C422.4,256.3,421.7,255.5,420.7,255.5z
		"/>
	<path class="st8" d="M422.4,272.9c0-1-0.8-1.7-1.7-1.7s-1.7,0.8-1.7,1.7c0,0.2,0,0.4,0.1,0.6l1.2,1c0.1,0,0.3,0.1,0.4,0.1
		C421.7,274.7,422.4,273.9,422.4,272.9z"/>
	<path class="st8" d="M405,200.5c-1,0-1.7,0.8-1.7,1.7c0,1,0.8,1.7,1.7,1.7s1.7-0.8,1.7-1.7C406.7,201.3,406,200.5,405,200.5z"/>
	<path class="st8" d="M410.2,192.7c-1,0-1.7,0.8-1.7,1.7s0.8,1.7,1.7,1.7c1,0,1.7-0.8,1.7-1.7S411.2,192.7,410.2,192.7z"/>
	<path class="st8" d="M405,216.2c-1,0-1.7,0.8-1.7,1.7c0,1,0.8,1.7,1.7,1.7s1.7-0.8,1.7-1.7C406.7,217,406,216.2,405,216.2z"/>
	<path class="st8" d="M410.2,208.4c-1,0-1.7,0.8-1.7,1.7s0.8,1.7,1.7,1.7c1,0,1.7-0.8,1.7-1.7S411.2,208.4,410.2,208.4z"/>
	<path class="st8" d="M405,231.9c-1,0-1.7,0.8-1.7,1.7c0,1,0.8,1.7,1.7,1.7s1.7-0.8,1.7-1.7C406.7,232.7,406,231.9,405,231.9z"/>
	<path class="st8" d="M410.2,224.1c-1,0-1.7,0.8-1.7,1.7s0.8,1.7,1.7,1.7c1,0,1.7-0.8,1.7-1.7S411.2,224.1,410.2,224.1z"/>
	<path class="st8" d="M405,247.6c-1,0-1.7,0.8-1.7,1.7s0.8,1.7,1.7,1.7s1.7-0.8,1.7-1.7S406,247.6,405,247.6z"/>
	<path class="st8" d="M410.2,239.8c-1,0-1.7,0.8-1.7,1.7c0,1,0.8,1.7,1.7,1.7c1,0,1.7-0.8,1.7-1.7
		C412,240.6,411.2,239.8,410.2,239.8z"/>
	<path class="st8" d="M410.2,255.5c-1,0-1.7,0.8-1.7,1.7c0,1,0.8,1.7,1.7,1.7c1,0,1.7-0.8,1.7-1.7
		C412,256.3,411.2,255.5,410.2,255.5z"/>
	<path class="st8" d="M394.5,200.5c-1,0-1.7,0.8-1.7,1.7c0,1,0.8,1.7,1.7,1.7c1,0,1.7-0.8,1.7-1.7
		C396.3,201.3,395.5,200.5,394.5,200.5z"/>
	<path class="st8" d="M399.8,196.2c1,0,1.7-0.8,1.7-1.7c0-0.1,0-0.3,0-0.4l-3.2,1.2C398.5,195.8,399.1,196.2,399.8,196.2z"/>
	<path class="st8" d="M394.5,216.2c-1,0-1.7,0.8-1.7,1.7c0,1,0.8,1.7,1.7,1.7c1,0,1.7-0.8,1.7-1.7
		C396.3,217,395.5,216.2,394.5,216.2z"/>
	<circle class="st8" cx="399.8" cy="210.1" r="1.7"/>
	<path class="st8" d="M394.5,231.9c-1,0-1.7,0.8-1.7,1.7c0,1,0.8,1.7,1.7,1.7c1,0,1.7-0.8,1.7-1.7
		C396.3,232.7,395.5,231.9,394.5,231.9z"/>
	<path class="st8" d="M399.8,224.1c-1,0-1.7,0.8-1.7,1.7s0.8,1.7,1.7,1.7s1.7-0.8,1.7-1.7S400.7,224.1,399.8,224.1z"/>
	<path class="st8" d="M394.5,247.6c-1,0-1.7,0.8-1.7,1.7s0.8,1.7,1.7,1.7c1,0,1.7-0.8,1.7-1.7S395.5,247.6,394.5,247.6z"/>
	<path class="st8" d="M399.8,239.8c-1,0-1.7,0.8-1.7,1.7c0,1,0.8,1.7,1.7,1.7s1.7-0.8,1.7-1.7C401.5,240.6,400.7,239.8,399.8,239.8z
		"/>
	<path class="st8" d="M399.8,255.5c-0.4,0-0.7,0.1-1,0.3l2.5,2.2c0.1-0.2,0.2-0.5,0.2-0.8C401.5,256.3,400.7,255.5,399.8,255.5z"/>
	<path class="st8" d="M384.1,200.5c-1,0-1.7,0.8-1.7,1.7c0,1,0.8,1.7,1.7,1.7s1.7-0.8,1.7-1.7C385.8,201.3,385,200.5,384.1,200.5z"
		/>
	<path class="st8" d="M384.1,216.2c-1,0-1.7,0.8-1.7,1.7c0,1,0.8,1.7,1.7,1.7s1.7-0.8,1.7-1.7C385.8,217,385,216.2,384.1,216.2z"/>
	<path class="st8" d="M389.3,208.4c-1,0-1.7,0.8-1.7,1.7s0.8,1.7,1.7,1.7c1,0,1.7-0.8,1.7-1.7S390.3,208.4,389.3,208.4z"/>
	<path class="st8" d="M384.1,231.9c-1,0-1.7,0.8-1.7,1.7c0,1,0.8,1.7,1.7,1.7s1.7-0.8,1.7-1.7C385.8,232.7,385,231.9,384.1,231.9z"
		/>
	<path class="st8" d="M389.3,224.1c-1,0-1.7,0.8-1.7,1.7s0.8,1.7,1.7,1.7c1,0,1.7-0.8,1.7-1.7S390.3,224.1,389.3,224.1z"/>
	<path class="st8" d="M389.3,239.8c-1,0-1.7,0.8-1.7,1.7c0,1,0.8,1.7,1.7,1.7c1,0,1.7-0.8,1.7-1.7
		C391,240.6,390.3,239.8,389.3,239.8z"/>
	<path class="st8" d="M373.6,216.2c-1,0-1.7,0.8-1.7,1.7c0,1,0.8,1.7,1.7,1.7c1,0,1.7-0.8,1.7-1.7
		C375.4,217,374.6,216.2,373.6,216.2z"/>
	<path class="st8" d="M378.8,208.4c-1,0-1.7,0.8-1.7,1.7s0.8,1.7,1.7,1.7c1,0,1.7-0.8,1.7-1.7S379.8,208.4,378.8,208.4z"/>
	<path class="st8" d="M375.4,233.7c0-1-0.8-1.7-1.7-1.7c-0.6,0-1.1,0.3-1.4,0.7l2.6,2.3C375.1,234.6,375.4,234.1,375.4,233.7z"/>
	<path class="st8" d="M378.8,224.1c-1,0-1.7,0.8-1.7,1.7s0.8,1.7,1.7,1.7c1,0,1.7-0.8,1.7-1.7S379.8,224.1,378.8,224.1z"/>
	<path class="st8" d="M363.1,216.2c-1,0-1.7,0.8-1.7,1.7c0,1,0.8,1.7,1.7,1.7c1,0,1.7-0.8,1.7-1.7
		C364.9,217,364.1,216.2,363.1,216.2z"/>
	<path class="st8" d="M368.4,208.4c-1,0-1.7,0.8-1.7,1.7s0.8,1.7,1.7,1.7c1,0,1.7-0.8,1.7-1.7S369.3,208.4,368.4,208.4z"/>
	<path class="st8" d="M368.4,224.1c-1,0-1.7,0.8-1.7,1.7s0.8,1.7,1.7,1.7c1,0,1.7-0.8,1.7-1.7S369.3,224.1,368.4,224.1z"/>
	<path class="st8" d="M357.9,211.9c1,0,1.7-0.8,1.7-1.7c0-0.3-0.1-0.5-0.2-0.8l-3.2,1.2C356.4,211.3,357.1,211.9,357.9,211.9z"/>
</g>
<g>
	<polygon class="st3" points="505.5,153.9 505.7,153.8 505.5,153.8 	"/>
	<polygon class="st9" points="395,50.8 394.7,51.8 395,51.8 	"/>
	<path class="st9" d="M412,51.8v-3.1c-2.8-1.1-5.6-2.1-8.5-3.1v6.2H412z"/>
	<rect x="395" y="51.8" class="st9" width="8.5" height="8.5"/>
	<path class="st9" d="M412,60.3h8.5v-8c-0.4-0.2-0.8-0.3-1.2-0.5H412V60.3z"/>
	<polygon class="st9" points="395,68.8 395,60.3 392.3,60.3 389.9,68.8 	"/>
	<rect x="403.5" y="60.3" class="st9" width="8.5" height="8.5"/>
	<rect x="420.5" y="60.3" class="st9" width="8.5" height="8.5"/>
	<rect x="395" y="68.8" class="st9" width="8.5" height="8.5"/>
	<rect x="412" y="68.8" class="st9" width="8.5" height="8.5"/>
	<polygon class="st9" points="395,85.8 395,77.3 387.4,77.3 386.5,80.6 386.5,85.8 	"/>
	<rect x="403.5" y="77.3" class="st9" width="8.5" height="8.5"/>
	<rect x="420.5" y="77.3" class="st9" width="8.5" height="8.5"/>
	<polygon class="st9" points="386.5,85.8 385,85.8 382.6,94.3 386.5,94.3 	"/>
	<rect x="395" y="85.8" class="st9" width="8.5" height="8.5"/>
	<rect x="412" y="85.8" class="st9" width="8.5" height="8.5"/>
	<rect x="386.5" y="94.3" class="st9" width="8.5" height="8.5"/>
	<rect x="403.5" y="94.3" class="st9" width="8.5" height="8.5"/>
	<rect x="420.5" y="94.3" class="st9" width="8.5" height="8.5"/>
	<path class="st9" d="M436,60.3c-2.3-1.3-4.6-2.6-7-3.8v3.8H436z"/>
	<path class="st9" d="M446,66.6c-2.8-1.9-5.6-3.7-8.5-5.4v7.6h8.5V66.6z"/>
	<rect x="429" y="68.8" class="st9" width="8.5" height="8.5"/>
	<path class="st9" d="M446,77.3h8.5v-4.6c-1.7-1.3-3.5-2.6-5.3-3.9H446V77.3z"/>
	<rect x="437.5" y="77.3" class="st9" width="8.5" height="8.5"/>
	<path class="st9" d="M463,85.8v-6.2c-0.9-0.8-1.8-1.5-2.6-2.3h-5.9v8.5H463z"/>
	<rect x="429" y="85.8" class="st9" width="8.5" height="8.5"/>
	<rect x="446" y="85.8" class="st9" width="8.5" height="8.5"/>
	<path class="st9" d="M469.8,85.8H463v8.5h8.5v-6.9C471,86.9,470.4,86.4,469.8,85.8z"/>
	<rect x="437.5" y="94.3" class="st9" width="8.5" height="8.5"/>
	<rect x="454.5" y="94.3" class="st9" width="8.5" height="8.5"/>
	<path class="st9" d="M471.5,94.3v8.5h8.5v-6.3c-0.6-0.7-1.3-1.5-1.9-2.2H471.5z"/>
	<polygon class="st9" points="386.5,111.3 386.5,102.8 380.1,102.8 378,110.3 378,111.3 	"/>
	<rect x="395" y="102.8" class="st9" width="8.5" height="8.5"/>
	<rect x="412" y="102.8" class="st9" width="8.5" height="8.5"/>
	<polygon class="st9" points="378,111.3 377.7,111.3 375.3,119.8 378,119.8 	"/>
	<rect x="386.5" y="111.3" class="st9" width="8.5" height="8.5"/>
	<rect x="403.5" y="111.3" class="st9" width="8.5" height="8.5"/>
	<rect x="420.5" y="111.3" class="st9" width="8.5" height="8.5"/>
	<rect x="378" y="119.8" class="st9" width="8.5" height="8.5"/>
	<rect x="395" y="119.8" class="st9" width="8.5" height="8.5"/>
	<rect x="412" y="119.8" class="st9" width="8.5" height="8.5"/>
	<polygon class="st9" points="372.9,128.3 370.4,136.8 378,136.8 378,128.3 	"/>
	<rect x="386.5" y="128.3" class="st9" width="8.5" height="8.5"/>
	<rect x="403.5" y="128.3" class="st9" width="8.5" height="8.5"/>
	<rect x="420.5" y="128.3" class="st9" width="8.5" height="8.5"/>
	<polygon class="st9" points="369.5,140.1 368,145.3 369.5,145.3 	"/>
	<rect x="378" y="136.8" class="st9" width="8.5" height="8.5"/>
	<rect x="395" y="136.8" class="st9" width="8.5" height="8.5"/>
	<rect x="412" y="136.8" class="st9" width="8.5" height="8.5"/>
	<rect x="369.5" y="145.3" class="st9" width="8.5" height="8.5"/>
	<rect x="386.5" y="145.3" class="st9" width="8.5" height="8.5"/>
	<rect x="403.5" y="145.3" class="st9" width="8.5" height="8.5"/>
	<rect x="420.5" y="145.3" class="st9" width="8.5" height="8.5"/>
	<polygon class="st9" points="365.6,153.8 363.2,162.3 369.5,162.3 369.5,153.8 	"/>
	<rect x="378" y="153.8" class="st9" width="8.5" height="8.5"/>
	<rect x="395" y="153.8" class="st9" width="8.5" height="8.5"/>
	<rect x="412" y="153.8" class="st9" width="8.5" height="8.5"/>
	<polygon class="st9" points="361,169.9 360.7,170.8 361,170.8 	"/>
	<rect x="369.5" y="162.3" class="st9" width="8.5" height="8.5"/>
	<rect x="386.5" y="162.3" class="st9" width="8.5" height="8.5"/>
	<rect x="403.5" y="162.3" class="st9" width="8.5" height="8.5"/>
	<rect x="420.5" y="162.3" class="st9" width="8.5" height="8.5"/>
	<rect x="429" y="102.8" class="st9" width="8.5" height="8.5"/>
	<rect x="446" y="102.8" class="st9" width="8.5" height="8.5"/>
	<rect x="463" y="102.8" class="st9" width="8.5" height="8.5"/>
	<path class="st9" d="M480,102.8v8.5h8.5V107c-1-1.4-2.1-2.8-3.2-4.1H480z"/>
	<rect x="437.5" y="111.3" class="st9" width="8.5" height="8.5"/>
	<rect x="454.5" y="111.3" class="st9" width="8.5" height="8.5"/>
	<rect x="471.5" y="111.3" class="st9" width="8.5" height="8.5"/>
	<path class="st9" d="M488.5,111.3v8.5h8.5v-0.5c-1.7-2.7-3.5-5.4-5.3-8H488.5z"/>
	<rect x="429" y="119.8" class="st9" width="8.5" height="8.5"/>
	<rect x="446" y="119.8" class="st9" width="8.5" height="8.5"/>
	<rect x="463" y="119.8" class="st9" width="8.5" height="8.5"/>
	<rect x="480" y="119.8" class="st9" width="8.5" height="8.5"/>
	<path class="st9" d="M497,128.3h5.3c-1.6-2.9-3.2-5.7-5-8.5H497V128.3z"/>
	<rect x="437.5" y="128.3" class="st9" width="8.5" height="8.5"/>
	<rect x="454.5" y="128.3" class="st9" width="8.5" height="8.5"/>
	<rect x="471.5" y="128.3" class="st9" width="8.5" height="8.5"/>
	<rect x="488.5" y="128.3" class="st9" width="8.5" height="8.5"/>
	<path class="st9" d="M506.6,136.8c-0.4-0.8-0.7-1.5-1.1-2.2v2.2H506.6z"/>
	<rect x="429" y="136.8" class="st9" width="8.5" height="8.5"/>
	<rect x="446" y="136.8" class="st9" width="8.5" height="8.5"/>
	<rect x="463" y="136.8" class="st9" width="8.5" height="8.5"/>
	<rect x="480" y="136.8" class="st9" width="8.5" height="8.5"/>
	<rect x="497" y="136.8" class="st9" width="8.5" height="8.5"/>
	<rect x="437.5" y="145.3" class="st9" width="8.5" height="8.5"/>
	<rect x="454.5" y="145.3" class="st9" width="8.5" height="8.5"/>
	<rect x="471.5" y="145.3" class="st9" width="8.5" height="8.5"/>
	<rect x="488.5" y="145.3" class="st9" width="8.5" height="8.5"/>
	<path class="st9" d="M505.5,153.8h0.2l7-2.6c-0.7-2-1.5-4-2.4-5.9h-4.9V153.8z"/>
	<rect x="429" y="153.8" class="st9" width="8.5" height="8.5"/>
	<rect x="446" y="153.8" class="st9" width="8.5" height="8.5"/>
	<rect x="463" y="153.8" class="st9" width="8.5" height="8.5"/>
	<polygon class="st9" points="480,162.3 482.5,162.3 488.5,160.1 488.5,153.8 480,153.8 	"/>
	<polygon class="st9" points="497,153.8 497,157 505.5,153.9 505.5,153.8 	"/>
	<rect x="437.5" y="162.3" class="st9" width="8.5" height="8.5"/>
	<polygon class="st9" points="463,162.3 454.5,162.3 454.5,170.8 459.2,170.8 463,169.4 	"/>
	<polygon class="st9" points="471.5,166.3 480,163.2 480,162.3 471.5,162.3 	"/>
	<rect x="361" y="170.8" class="st9" width="8.5" height="8.5"/>
	<rect x="378" y="170.8" class="st9" width="8.5" height="8.5"/>
	<rect x="395" y="170.8" class="st9" width="8.5" height="8.5"/>
	<rect x="412" y="170.8" class="st9" width="8.5" height="8.5"/>
	<polygon class="st9" points="361,179.3 358.3,179.3 355.9,187.8 361,187.8 	"/>
	<rect x="369.5" y="179.3" class="st9" width="8.5" height="8.5"/>
	<rect x="386.5" y="179.3" class="st9" width="8.5" height="8.5"/>
	<rect x="403.5" y="179.3" class="st9" width="8.5" height="8.5"/>
	<polygon class="st9" points="420.5,179.3 420.5,185 429,181.9 429,179.3 	"/>
	<rect x="361" y="187.8" class="st9" width="8.5" height="8.5"/>
	<rect x="378" y="187.8" class="st9" width="8.5" height="8.5"/>
	<polygon class="st9" points="395,187.8 395,194.3 403.5,191.2 403.5,187.8 	"/>
	<polygon class="st9" points="412,188.1 412.6,187.8 412,187.8 	"/>
	<polygon class="st9" points="361,204.8 361,196.3 353.4,196.3 352.5,199.6 352.5,204.8 	"/>
	<polygon class="st9" points="369.5,196.3 369.5,203.6 378,200.5 378,196.3 	"/>
	<polygon class="st9" points="386.5,197.4 389.4,196.3 386.5,196.3 	"/>
	<polygon class="st9" points="351,204.8 349.3,211 352.5,209.8 352.5,204.8 	"/>
	<polygon class="st9" points="361,204.8 361,206.7 366.1,204.8 	"/>
	<polygon class="st9" points="437.5,170.8 429,170.8 429,179.3 435.9,179.3 437.5,178.8 	"/>
	<polygon class="st9" points="446,170.8 446,175.7 454.5,172.6 454.5,170.8 	"/>
</g>
</svg>
