<svg width="418" height="257" viewBox="0 0 418 257" fill="none" xmlns="http://www.w3.org/2000/svg">
<rect width="418" height="257" fill="white"/>
<mask id="path-2-outside-1_8777_34139" maskUnits="userSpaceOnUse" x="15" y="87" width="388" height="146" fill="black">
<rect fill="white" x="15" y="87" width="388" height="146"/>
<path d="M16 88H402V232H16V88Z"/>
</mask>
<path d="M16 88H402V232H16V88Z" fill="white"/>
<path d="M16 88V87H15V88H16ZM402 88H403V87H402V88ZM402 232V233H403V232H402ZM16 232H15V233H16V232ZM16 89H402V87H16V89ZM401 88V232H403V88H401ZM402 231H16V233H402V231ZM17 232V88H15V232H17Z" fill="#707070" mask="url(#path-2-outside-1_8777_34139)"/>
<path d="M31.4019 104H386.599V216H31.4019V104Z" fill="#DCDCDC"/>
<rect x="16" y="24" width="101" height="48" rx="24" fill="#454545"/>
<path d="M41.232 42.832H46.656C47.584 42.832 48.304 43.0933 48.816 43.616C49.3387 44.1387 49.6 44.832 49.6 45.696C49.6 46.1227 49.5413 46.4853 49.424 46.784C49.3173 47.0827 49.168 47.328 48.976 47.52C48.7947 47.712 48.576 47.856 48.32 47.952C48.0747 48.0373 47.808 48.0853 47.52 48.096V48.192C47.7867 48.192 48.064 48.24 48.352 48.336C48.6507 48.432 48.9227 48.5867 49.168 48.8C49.4133 49.0027 49.616 49.2693 49.776 49.6C49.9467 49.9307 50.032 50.336 50.032 50.816C50.032 51.2533 49.9573 51.6693 49.808 52.064C49.6693 52.448 49.472 52.784 49.216 53.072C48.96 53.36 48.656 53.5893 48.304 53.76C47.952 53.92 47.568 54 47.152 54H41.232V42.832ZM43.664 51.952H46.464C46.784 51.952 47.0347 51.8667 47.216 51.696C47.408 51.5147 47.504 51.264 47.504 50.944V50.4C47.504 50.08 47.408 49.8347 47.216 49.664C47.0347 49.4827 46.784 49.392 46.464 49.392H43.664V51.952ZM43.664 47.408H46.08C46.4 47.408 46.6507 47.3173 46.832 47.136C47.0133 46.9547 47.104 46.704 47.104 46.384V45.904C47.104 45.584 47.0133 45.3333 46.832 45.152C46.6507 44.9707 46.4 44.88 46.08 44.88H43.664V47.408ZM52.9599 44.704C52.4799 44.704 52.1279 44.5973 51.9039 44.384C51.6905 44.16 51.5839 43.8773 51.5839 43.536V43.184C51.5839 42.8427 51.6905 42.5653 51.9039 42.352C52.1279 42.128 52.4799 42.016 52.9599 42.016C53.4399 42.016 53.7865 42.128 53.9999 42.352C54.2239 42.5653 54.3359 42.8427 54.3359 43.184V43.536C54.3359 43.8773 54.2239 44.16 53.9999 44.384C53.7865 44.5973 53.4399 44.704 52.9599 44.704ZM51.7759 45.6H54.1439V54H51.7759V45.6ZM58.706 54C57.8953 54 57.298 53.8027 56.914 53.408C56.5407 53.0133 56.354 52.4427 56.354 51.696V42.16H58.722V52.16H59.778V54H58.706ZM63.4248 54C62.6141 54 62.0168 53.8027 61.6328 53.408C61.2594 53.0133 61.0728 52.4427 61.0728 51.696V42.16H63.4408V52.16H64.4968V54H63.4248ZM69.4205 54.192C68.7805 54.192 68.2098 54.0907 67.7085 53.888C67.2072 53.6747 66.7805 53.3813 66.4285 53.008C66.0872 52.624 65.8258 52.16 65.6445 51.616C65.4738 51.072 65.3885 50.464 65.3885 49.792C65.3885 49.1307 65.4738 48.5333 65.6445 48C65.8152 47.456 66.0658 46.992 66.3965 46.608C66.7378 46.224 67.1538 45.9307 67.6445 45.728C68.1352 45.5147 68.6952 45.408 69.3245 45.408C70.0178 45.408 70.6098 45.5253 71.1005 45.76C71.6018 45.9947 72.0072 46.3093 72.3165 46.704C72.6365 47.0987 72.8658 47.5573 73.0045 48.08C73.1538 48.592 73.2285 49.1307 73.2285 49.696V50.4H67.8365V50.528C67.8365 51.0827 67.9858 51.5253 68.2845 51.856C68.5832 52.176 69.0525 52.336 69.6925 52.336C70.1832 52.336 70.5832 52.24 70.8925 52.048C71.2018 51.8453 71.4898 51.6053 71.7565 51.328L72.9405 52.8C72.5672 53.2373 72.0765 53.5787 71.4685 53.824C70.8712 54.0693 70.1885 54.192 69.4205 54.192ZM69.3725 47.152C68.8925 47.152 68.5138 47.312 68.2365 47.632C67.9698 47.9413 67.8365 48.3573 67.8365 48.88V49.008H70.7805V48.864C70.7805 48.352 70.6632 47.9413 70.4285 47.632C70.2045 47.312 69.8525 47.152 69.3725 47.152ZM80.0529 52.592H79.9729C79.9089 52.816 79.8075 53.0293 79.6689 53.232C79.5302 53.424 79.3595 53.5947 79.1569 53.744C78.9649 53.8827 78.7409 53.9893 78.4849 54.064C78.2395 54.1493 77.9835 54.192 77.7169 54.192C76.6502 54.192 75.8449 53.8187 75.3009 53.072C74.7569 52.3147 74.4849 51.2213 74.4849 49.792C74.4849 48.3627 74.7569 47.2747 75.3009 46.528C75.8449 45.7813 76.6502 45.408 77.7169 45.408C78.2609 45.408 78.7409 45.5573 79.1569 45.856C79.5835 46.1547 79.8555 46.5387 79.9729 47.008H80.0529V42.16H82.4209V54H80.0529V52.592ZM78.5009 52.272C78.9489 52.272 79.3169 52.1653 79.6049 51.952C79.9035 51.728 80.0529 51.424 80.0529 51.04V48.56C80.0529 48.176 79.9035 47.8773 79.6049 47.664C79.3169 47.44 78.9489 47.328 78.5009 47.328C78.0529 47.328 77.6795 47.488 77.3809 47.808C77.0929 48.1173 76.9489 48.5387 76.9489 49.072V50.528C76.9489 51.0613 77.0929 51.488 77.3809 51.808C77.6795 52.1173 78.0529 52.272 78.5009 52.272ZM88.1393 54.192C87.4993 54.192 86.9286 54.0907 86.4273 53.888C85.9259 53.6747 85.4993 53.3813 85.1473 53.008C84.8059 52.624 84.5446 52.16 84.3633 51.616C84.1926 51.072 84.1073 50.464 84.1073 49.792C84.1073 49.1307 84.1926 48.5333 84.3633 48C84.5339 47.456 84.7846 46.992 85.1153 46.608C85.4566 46.224 85.8726 45.9307 86.3633 45.728C86.8539 45.5147 87.4139 45.408 88.0433 45.408C88.7366 45.408 89.3286 45.5253 89.8193 45.76C90.3206 45.9947 90.7259 46.3093 91.0353 46.704C91.3553 47.0987 91.5846 47.5573 91.7233 48.08C91.8726 48.592 91.9473 49.1307 91.9473 49.696V50.4H86.5553V50.528C86.5553 51.0827 86.7046 51.5253 87.0033 51.856C87.3019 52.176 87.7713 52.336 88.4113 52.336C88.9019 52.336 89.3019 52.24 89.6113 52.048C89.9206 51.8453 90.2086 51.6053 90.4753 51.328L91.6593 52.8C91.2859 53.2373 90.7953 53.5787 90.1873 53.824C89.5899 54.0693 88.9073 54.192 88.1393 54.192ZM88.0913 47.152C87.6113 47.152 87.2326 47.312 86.9553 47.632C86.6886 47.9413 86.5553 48.3573 86.5553 48.88V49.008H89.4993V48.864C89.4993 48.352 89.3819 47.9413 89.1473 47.632C88.9233 47.312 88.5713 47.152 88.0913 47.152Z" fill="white"/>
<rect x="133" y="24" width="66" height="48" rx="24" fill="#F5F5F5"/>
<path d="M158.488 54V42.832H165.144V44.016H159.832V47.76H164.68V48.944H159.832V54H158.488ZM167.938 43.808C167.66 43.808 167.458 43.744 167.33 43.616C167.212 43.4773 167.154 43.3013 167.154 43.088V42.88C167.154 42.6667 167.212 42.496 167.33 42.368C167.458 42.2293 167.66 42.16 167.938 42.16C168.215 42.16 168.412 42.2293 168.53 42.368C168.658 42.496 168.722 42.6667 168.722 42.88V43.088C168.722 43.3013 168.658 43.4773 168.53 43.616C168.412 43.744 168.215 43.808 167.938 43.808ZM167.298 45.744H168.578V54H167.298V45.744ZM172.658 54C172.21 54 171.868 53.8773 171.634 53.632C171.41 53.376 171.298 53.056 171.298 52.672V42.16H172.578V52.88H173.794V54H172.658Z" fill="#1A1A1A"/>
<path d="M157 56H174.29V56.96H157V56Z" fill="#1A1A1A"/>
</svg>
