<svg width="419" height="263" viewBox="0 0 419 263" fill="none" xmlns="http://www.w3.org/2000/svg">
<rect width="419" height="263" fill="white"/>
<rect x="16" y="16" width="91" height="48" rx="24" fill="#454545"/>
<path d="M45.888 36.992V46H43.456V36.992H40.432V34.832H48.912V36.992H45.888ZM49.729 46V37.6H52.097V39.424H52.177C52.2197 39.1893 52.2943 38.9653 52.401 38.752C52.5077 38.528 52.6463 38.3307 52.817 38.16C52.9983 37.9893 53.2117 37.856 53.457 37.76C53.7023 37.6533 53.9903 37.6 54.321 37.6H54.737V39.808H54.145C53.4517 39.808 52.9343 39.8987 52.593 40.08C52.2623 40.2613 52.097 40.5973 52.097 41.088V46H49.729ZM57.3818 36.704C56.9018 36.704 56.5498 36.5973 56.3258 36.384C56.1124 36.16 56.0058 35.8773 56.0058 35.536V35.184C56.0058 34.8427 56.1124 34.5653 56.3258 34.352C56.5498 34.128 56.9018 34.016 57.3818 34.016C57.8618 34.016 58.2084 34.128 58.4218 34.352C58.6458 34.5653 58.7578 34.8427 58.7578 35.184V35.536C58.7578 35.8773 58.6458 36.16 58.4218 36.384C58.2084 36.5973 57.8618 36.704 57.3818 36.704ZM56.1978 37.6H58.5658V46H56.1978V37.6ZM60.7759 46V37.6H63.1439V39.024H63.2399C63.3892 38.5867 63.6505 38.208 64.0239 37.888C64.3972 37.568 64.9145 37.408 65.5759 37.408C66.4399 37.408 67.0905 37.696 67.5279 38.272C67.9759 38.848 68.1999 39.6693 68.1999 40.736V46H65.8319V40.928C65.8319 40.384 65.7465 39.984 65.5759 39.728C65.4052 39.4613 65.1012 39.328 64.6639 39.328C64.4719 39.328 64.2852 39.3547 64.1039 39.408C63.9225 39.4507 63.7572 39.5253 63.6079 39.632C63.4692 39.7387 63.3572 39.872 63.2719 40.032C63.1865 40.1813 63.1439 40.3573 63.1439 40.56V46H60.7759ZM74.4884 46V44.064H77.4964V36.576H77.3524L75.0804 39.552L73.5444 38.352L76.2164 34.832H79.8964V44.064H82.2644V46H74.4884Z" fill="white"/>
<rect x="123" y="16" width="89" height="48" rx="24" fill="#F5F5F5"/>
<path d="M152.248 36.016V46H150.904V36.016H147.352V34.832H155.8V36.016H152.248ZM156.798 46V37.744H158.078V39.264H158.158C158.307 38.8693 158.574 38.5173 158.958 38.208C159.342 37.8987 159.87 37.744 160.542 37.744H161.038V39.024H160.286C159.592 39.024 159.048 39.1573 158.654 39.424C158.27 39.68 158.078 40.0053 158.078 40.4V46H156.798ZM163.312 35.808C163.035 35.808 162.833 35.744 162.705 35.616C162.587 35.4773 162.529 35.3013 162.529 35.088V34.88C162.529 34.6667 162.587 34.496 162.705 34.368C162.833 34.2293 163.035 34.16 163.312 34.16C163.59 34.16 163.787 34.2293 163.905 34.368C164.033 34.496 164.097 34.6667 164.097 34.88V35.088C164.097 35.3013 164.033 35.4773 163.905 35.616C163.787 35.744 163.59 35.808 163.312 35.808ZM162.673 37.744H163.953V46H162.673V37.744ZM166.673 46V37.744H167.953V39.088H168.017C168.219 38.6187 168.502 38.2453 168.865 37.968C169.238 37.6907 169.734 37.552 170.353 37.552C171.206 37.552 171.878 37.8293 172.369 38.384C172.87 38.928 173.121 39.7013 173.121 40.704V46H171.841V40.928C171.841 39.4453 171.217 38.704 169.969 38.704C169.713 38.704 169.462 38.736 169.217 38.8C168.982 38.864 168.769 38.96 168.577 39.088C168.385 39.216 168.23 39.3813 168.113 39.584C168.006 39.776 167.953 40.0053 167.953 40.272V46H166.673ZM186.716 46H179.388V44.624L183.036 41.264C183.558 40.784 183.996 40.2773 184.348 39.744C184.7 39.2 184.876 38.656 184.876 38.112V37.92C184.876 37.3013 184.705 36.8 184.364 36.416C184.022 36.032 183.505 35.84 182.812 35.84C182.47 35.84 182.172 35.888 181.916 35.984C181.66 36.08 181.436 36.2133 181.244 36.384C181.062 36.5547 180.908 36.7573 180.78 36.992C180.662 37.216 180.566 37.4613 180.492 37.728L179.292 37.264C179.398 36.9333 179.542 36.6133 179.724 36.304C179.916 35.984 180.15 35.7013 180.428 35.456C180.716 35.2107 181.057 35.0133 181.452 34.864C181.857 34.7147 182.332 34.64 182.876 34.64C183.42 34.64 183.905 34.72 184.332 34.88C184.758 35.04 185.116 35.264 185.404 35.552C185.692 35.84 185.91 36.1813 186.06 36.576C186.22 36.9707 186.3 37.408 186.3 37.888C186.3 38.3253 186.236 38.7307 186.108 39.104C185.99 39.4773 185.825 39.8347 185.612 40.176C185.398 40.5067 185.137 40.832 184.828 41.152C184.529 41.472 184.204 41.792 183.852 42.112L180.844 44.816H186.716V46Z" fill="#1A1A1A"/>
<path d="M147 48H187.787V48.96H147V48Z" fill="#1A1A1A"/>
<rect x="228" y="16" width="89" height="48" rx="24" fill="#F5F5F5"/>
<path d="M257.248 36.016V46H255.904V36.016H252.352V34.832H260.8V36.016H257.248ZM261.798 46V37.744H263.078V39.264H263.158C263.307 38.8693 263.574 38.5173 263.958 38.208C264.342 37.8987 264.87 37.744 265.542 37.744H266.038V39.024H265.286C264.592 39.024 264.048 39.1573 263.654 39.424C263.27 39.68 263.078 40.0053 263.078 40.4V46H261.798ZM268.312 35.808C268.035 35.808 267.833 35.744 267.705 35.616C267.587 35.4773 267.529 35.3013 267.529 35.088V34.88C267.529 34.6667 267.587 34.496 267.705 34.368C267.833 34.2293 268.035 34.16 268.312 34.16C268.59 34.16 268.787 34.2293 268.905 34.368C269.033 34.496 269.097 34.6667 269.097 34.88V35.088C269.097 35.3013 269.033 35.4773 268.905 35.616C268.787 35.744 268.59 35.808 268.312 35.808ZM267.673 37.744H268.953V46H267.673V37.744ZM271.673 46V37.744H272.953V39.088H273.017C273.219 38.6187 273.502 38.2453 273.865 37.968C274.238 37.6907 274.734 37.552 275.353 37.552C276.206 37.552 276.878 37.8293 277.369 38.384C277.87 38.928 278.121 39.7013 278.121 40.704V46H276.841V40.928C276.841 39.4453 276.217 38.704 274.969 38.704C274.713 38.704 274.462 38.736 274.217 38.8C273.982 38.864 273.769 38.96 273.577 39.088C273.385 39.216 273.23 39.3813 273.113 39.584C273.006 39.776 272.953 40.0053 272.953 40.272V46H271.673ZM287.364 39.568C288.121 39.568 288.686 39.3973 289.06 39.056C289.444 38.704 289.636 38.256 289.636 37.712V37.6C289.636 37.0133 289.449 36.576 289.076 36.288C288.713 35.9893 288.233 35.84 287.636 35.84C287.06 35.84 286.59 35.968 286.228 36.224C285.865 36.4693 285.566 36.8053 285.332 37.232L284.34 36.464C284.478 36.24 284.644 36.0213 284.836 35.808C285.038 35.584 285.273 35.3867 285.539 35.216C285.806 35.0453 286.116 34.9067 286.468 34.8C286.82 34.6933 287.22 34.64 287.668 34.64C288.137 34.64 288.58 34.704 288.996 34.832C289.412 34.9493 289.769 35.1307 290.068 35.376C290.377 35.6107 290.617 35.904 290.788 36.256C290.969 36.608 291.06 37.008 291.06 37.456C291.06 37.8187 291.001 38.144 290.884 38.432C290.777 38.72 290.628 38.9707 290.436 39.184C290.244 39.3973 290.014 39.5787 289.748 39.728C289.492 39.8773 289.214 39.9893 288.916 40.064V40.128C289.214 40.192 289.502 40.2987 289.78 40.448C290.068 40.5867 290.318 40.7733 290.532 41.008C290.756 41.232 290.932 41.5093 291.06 41.84C291.198 42.16 291.267 42.528 291.267 42.944C291.267 43.424 291.177 43.8667 290.996 44.272C290.814 44.6667 290.558 45.008 290.228 45.296C289.897 45.5733 289.497 45.792 289.028 45.952C288.558 46.112 288.041 46.192 287.476 46.192C286.996 46.192 286.569 46.1387 286.196 46.032C285.822 45.9253 285.492 45.7813 285.204 45.6C284.916 45.4187 284.66 45.216 284.436 44.992C284.222 44.768 284.03 44.5333 283.86 44.288L284.868 43.52C285.006 43.744 285.156 43.9467 285.316 44.128C285.486 44.3093 285.673 44.464 285.876 44.592C286.078 44.72 286.308 44.8213 286.564 44.896C286.82 44.96 287.118 44.992 287.46 44.992C288.249 44.992 288.846 44.816 289.252 44.464C289.657 44.1013 289.86 43.5893 289.86 42.928V42.8C289.86 42.1387 289.657 41.632 289.252 41.28C288.846 40.9173 288.249 40.736 287.46 40.736H286.148V39.568H287.364Z" fill="#1A1A1A"/>
<path d="M252 48H292.787V48.96H252V48Z" fill="#1A1A1A"/>
<rect x="16.5" y="80.5" width="385" height="166" stroke="#8E8E8E"/>
<path d="M40 108C40 105.791 41.7909 104 44 104H374C376.209 104 378 105.791 378 108V219C378 221.209 376.209 223 374 223H44C41.7909 223 40 221.209 40 219V108Z" fill="#DCDCDC"/>
</svg>
