<svg width="419" height="263" viewBox="0 0 419 263" fill="none" xmlns="http://www.w3.org/2000/svg">
<rect width="419" height="263" fill="white"/>
<rect x="16" y="16" width="133" height="48" rx="24" fill="#454545"/>
<path d="M54 30L60 36V48C60 48.5304 59.7893 49.0391 59.4142 49.4142C59.0391 49.7893 58.5304 50 58 50H46C45.4696 50 44.9609 49.7893 44.5858 49.4142C44.2107 49.0391 44 48.5304 44 48V32C44 31.4696 44.2107 30.9609 44.5858 30.5858C44.9609 30.2107 45.4696 30 46 30H54ZM58 48V37H53V32H46V48H58ZM57 41V47H47L52 42L54 44L57 41ZM50 38.5C50 38.8978 49.842 39.2794 49.5607 39.5607C49.2794 39.842 48.8978 40 48.5 40C48.1022 40 47.7206 39.842 47.4393 39.5607C47.158 39.2794 47 38.8978 47 38.5C47 38.1022 47.158 37.7206 47.4393 37.4393C47.7206 37.158 48.1022 37 48.5 37C48.8978 37 49.2794 37.158 49.5607 37.4393C49.842 37.7206 50 38.1022 50 38.5Z" fill="white"/>
<path d="M73.232 34.832H78.656C79.584 34.832 80.304 35.0933 80.816 35.616C81.3387 36.1387 81.6 36.832 81.6 37.696C81.6 38.1227 81.5413 38.4853 81.424 38.784C81.3173 39.0827 81.168 39.328 80.976 39.52C80.7947 39.712 80.576 39.856 80.32 39.952C80.0747 40.0373 79.808 40.0853 79.52 40.096V40.192C79.7867 40.192 80.064 40.24 80.352 40.336C80.6507 40.432 80.9227 40.5867 81.168 40.8C81.4133 41.0027 81.616 41.2693 81.776 41.6C81.9467 41.9307 82.032 42.336 82.032 42.816C82.032 43.2533 81.9573 43.6693 81.808 44.064C81.6693 44.448 81.472 44.784 81.216 45.072C80.96 45.36 80.656 45.5893 80.304 45.76C79.952 45.92 79.568 46 79.152 46H73.232V34.832ZM75.664 43.952H78.464C78.784 43.952 79.0347 43.8667 79.216 43.696C79.408 43.5147 79.504 43.264 79.504 42.944V42.4C79.504 42.08 79.408 41.8347 79.216 41.664C79.0347 41.4827 78.784 41.392 78.464 41.392H75.664V43.952ZM75.664 39.408H78.08C78.4 39.408 78.6507 39.3173 78.832 39.136C79.0133 38.9547 79.104 38.704 79.104 38.384V37.904C79.104 37.584 79.0133 37.3333 78.832 37.152C78.6507 36.9707 78.4 36.88 78.08 36.88H75.664V39.408ZM84.9599 36.704C84.4799 36.704 84.1279 36.5973 83.9039 36.384C83.6905 36.16 83.5839 35.8773 83.5839 35.536V35.184C83.5839 34.8427 83.6905 34.5653 83.9039 34.352C84.1279 34.128 84.4799 34.016 84.9599 34.016C85.4399 34.016 85.7865 34.128 85.9999 34.352C86.2239 34.5653 86.3359 34.8427 86.3359 35.184V35.536C86.3359 35.8773 86.2239 36.16 85.9999 36.384C85.7865 36.5973 85.4399 36.704 84.9599 36.704ZM83.7759 37.6H86.1439V46H83.7759V37.6ZM90.706 46C89.8953 46 89.298 45.8027 88.914 45.408C88.5407 45.0133 88.354 44.4427 88.354 43.696V34.16H90.722V44.16H91.778V46H90.706ZM95.4248 46C94.6141 46 94.0168 45.8027 93.6328 45.408C93.2594 45.0133 93.0728 44.4427 93.0728 43.696V34.16H95.4408V44.16H96.4968V46H95.4248ZM101.421 46.192C100.781 46.192 100.21 46.0907 99.7085 45.888C99.2072 45.6747 98.7805 45.3813 98.4285 45.008C98.0872 44.624 97.8258 44.16 97.6445 43.616C97.4738 43.072 97.3885 42.464 97.3885 41.792C97.3885 41.1307 97.4738 40.5333 97.6445 40C97.8152 39.456 98.0658 38.992 98.3965 38.608C98.7378 38.224 99.1538 37.9307 99.6445 37.728C100.135 37.5147 100.695 37.408 101.325 37.408C102.018 37.408 102.61 37.5253 103.101 37.76C103.602 37.9947 104.007 38.3093 104.317 38.704C104.637 39.0987 104.866 39.5573 105.005 40.08C105.154 40.592 105.229 41.1307 105.229 41.696V42.4H99.8365V42.528C99.8365 43.0827 99.9858 43.5253 100.285 43.856C100.583 44.176 101.053 44.336 101.693 44.336C102.183 44.336 102.583 44.24 102.893 44.048C103.202 43.8453 103.49 43.6053 103.757 43.328L104.941 44.8C104.567 45.2373 104.077 45.5787 103.469 45.824C102.871 46.0693 102.189 46.192 101.421 46.192ZM101.373 39.152C100.893 39.152 100.514 39.312 100.237 39.632C99.9698 39.9413 99.8365 40.3573 99.8365 40.88V41.008H102.781V40.864C102.781 40.352 102.663 39.9413 102.429 39.632C102.205 39.312 101.853 39.152 101.373 39.152ZM112.053 44.592H111.973C111.909 44.816 111.808 45.0293 111.669 45.232C111.53 45.424 111.36 45.5947 111.157 45.744C110.965 45.8827 110.741 45.9893 110.485 46.064C110.24 46.1493 109.984 46.192 109.717 46.192C108.65 46.192 107.845 45.8187 107.301 45.072C106.757 44.3147 106.485 43.2213 106.485 41.792C106.485 40.3627 106.757 39.2747 107.301 38.528C107.845 37.7813 108.65 37.408 109.717 37.408C110.261 37.408 110.741 37.5573 111.157 37.856C111.584 38.1547 111.856 38.5387 111.973 39.008H112.053V34.16H114.421V46H112.053V44.592ZM110.501 44.272C110.949 44.272 111.317 44.1653 111.605 43.952C111.904 43.728 112.053 43.424 112.053 43.04V40.56C112.053 40.176 111.904 39.8773 111.605 39.664C111.317 39.44 110.949 39.328 110.501 39.328C110.053 39.328 109.68 39.488 109.381 39.808C109.093 40.1173 108.949 40.5387 108.949 41.072V42.528C108.949 43.0613 109.093 43.488 109.381 43.808C109.68 44.1173 110.053 44.272 110.501 44.272ZM120.139 46.192C119.499 46.192 118.929 46.0907 118.427 45.888C117.926 45.6747 117.499 45.3813 117.147 45.008C116.806 44.624 116.545 44.16 116.363 43.616C116.193 43.072 116.107 42.464 116.107 41.792C116.107 41.1307 116.193 40.5333 116.363 40C116.534 39.456 116.785 38.992 117.115 38.608C117.457 38.224 117.873 37.9307 118.363 37.728C118.854 37.5147 119.414 37.408 120.043 37.408C120.737 37.408 121.329 37.5253 121.819 37.76C122.321 37.9947 122.726 38.3093 123.035 38.704C123.355 39.0987 123.585 39.5573 123.723 40.08C123.873 40.592 123.947 41.1307 123.947 41.696V42.4H118.555V42.528C118.555 43.0827 118.705 43.5253 119.003 43.856C119.302 44.176 119.771 44.336 120.411 44.336C120.902 44.336 121.302 44.24 121.611 44.048C121.921 43.8453 122.209 43.6053 122.475 43.328L123.659 44.8C123.286 45.2373 122.795 45.5787 122.187 45.824C121.59 46.0693 120.907 46.192 120.139 46.192ZM120.091 39.152C119.611 39.152 119.233 39.312 118.955 39.632C118.689 39.9413 118.555 40.3573 118.555 40.88V41.008H121.499V40.864C121.499 40.352 121.382 39.9413 121.147 39.632C120.923 39.312 120.571 39.152 120.091 39.152Z" fill="white"/>
<rect x="165" y="16" width="98" height="48" rx="24" fill="#F5F5F5"/>
<path d="M195 50C194.45 50 193.979 49.8042 193.588 49.4125C193.196 49.0208 193 48.55 193 48V32C193 31.45 193.196 30.9792 193.588 30.5875C193.979 30.1958 194.45 30 195 30H203L209 36V48C209 48.55 208.804 49.0208 208.413 49.4125C208.021 49.8042 207.55 50 207 50H195ZM202 37V32H195V48H207V37H202Z" fill="#1A1A1A"/>
<path d="M222.488 46V34.832H229.144V36.016H223.832V39.76H228.68V40.944H223.832V46H222.488ZM231.938 35.808C231.66 35.808 231.458 35.744 231.33 35.616C231.212 35.4773 231.154 35.3013 231.154 35.088V34.88C231.154 34.6667 231.212 34.496 231.33 34.368C231.458 34.2293 231.66 34.16 231.938 34.16C232.215 34.16 232.412 34.2293 232.53 34.368C232.658 34.496 232.722 34.6667 232.722 34.88V35.088C232.722 35.3013 232.658 35.4773 232.53 35.616C232.412 35.744 232.215 35.808 231.938 35.808ZM231.298 37.744H232.578V46H231.298V37.744ZM236.658 46C236.21 46 235.868 45.8773 235.634 45.632C235.41 45.376 235.298 45.056 235.298 44.672V34.16H236.578V44.88H237.794V46H236.658Z" fill="#1A1A1A"/>
<path d="M221 48H238.29V48.96H221V48Z" fill="#1A1A1A"/>
<rect x="16.5" y="80.5" width="385" height="166" stroke="#8E8E8E"/>
<path d="M40 108C40 105.791 41.7909 104 44 104H374C376.209 104 378 105.791 378 108V219C378 221.209 376.209 223 374 223H44C41.7909 223 40 221.209 40 219V108Z" fill="#DCDCDC"/>
</svg>
