<?xml version="1.0" encoding="UTF-8"?>
<svg width="208px" height="96px" viewBox="0 0 208 96" version="1.1" xmlns="http://www.w3.org/2000/svg" xmlns:xlink="http://www.w3.org/1999/xlink">
    <!-- Generator: Sketch 53.2 (72643) - https://sketchapp.com -->
    <title>Accordion Copy 2-with-dropshadow</title>
    <desc>Created with Sketch.</desc>
    <g id="Illustrationer" stroke="none" stroke-width="1" fill="none" fill-rule="evenodd">
        <g id="Overview_illustrationer_Ver02" transform="translate(-145.000000, -1158.000000)">
            <g id="Accordion-Copy-2" transform="translate(145.000000, 1158.000000)">
                <rect id="Rectangle-5" fill="#1A1A1A" fill-rule="nonzero" x="0" y="0" width="208" height="24"></rect>
                <rect id="Rectangle-5" fill="#1A1A1A" fill-rule="nonzero" x="0" y="24" width="208" height="24"></rect>
                <rect id="Rectangle-2" fill="#FFFFFF" fill-rule="nonzero" x="16" y="8" width="96" height="8"></rect>
                <rect id="Rectangle-2" fill="#FFFFFF" fill-rule="nonzero" x="16" y="32" width="96" height="8"></rect>
                <rect id="Rectangle-5" fill="#FFFFFF" fill-rule="nonzero" x="0" y="48" width="208" height="48"></rect>
                <rect id="Rectangle-2" fill="#DCDCDC" fill-rule="nonzero" x="16" y="60" width="160" height="8"></rect>
                <rect id="Rectangle-2" fill="#DCDCDC" fill-rule="nonzero" x="16" y="76" width="160" height="8"></rect>
                <g id="ic_expand" transform="translate(180.000000, 2.000000)">
                    <g id="Shape">
                        <polygon fill="#FFFFFF" points="15.8333333 10.8333333 10.8333333 10.8333333 10.8333333 15.8333333 9.16666667 15.8333333 9.16666667 10.8333333 4.16666667 10.8333333 4.16666667 9.16666667 9.16666667 9.16666667 9.16666667 4.16666667 10.8333333 4.16666667 10.8333333 9.16666667 15.8333333 9.16666667"></polygon>
                        <polygon points="0 0 20 0 20 20 0 20"></polygon>
                    </g>
                </g>
                <g id="ic_retract" transform="translate(180.000000, 26.000000)">
                    <g id="Shape">
                        <polygon points="0 0 20 0 20 20 0 20"></polygon>
                        <polygon fill="#FFFFFF" points="15.8333333 10.8333333 4.16666667 10.8333333 4.16666667 9.16666667 15.8333333 9.16666667"></polygon>
                    </g>
                </g>
                <rect id="Rectangle-7" fill="#FFFFFF" fill-rule="nonzero" x="0" y="23" width="208" height="2"></rect>
            </g>
        </g>
    </g>
</svg>