<?xml version="1.0" encoding="UTF-8"?>
<svg width="146px" height="129px" viewBox="0 0 146 129" version="1.1" xmlns="http://www.w3.org/2000/svg" xmlns:xlink="http://www.w3.org/1999/xlink">
    <!-- Generator: Sketch 52.6 (67491) - http://www.bohemiancoding.com/sketch -->
    <title>Datepicker_With_BG</title>
    <desc>Created with Sketch.</desc>
    <g id="Illustrationer" stroke="none" stroke-width="1" fill="none" fill-rule="evenodd">
        <g id="Overview_illustrationer_Ver02" transform="translate(-883.000000, -3321.000000)" fill-rule="nonzero">
            <g id="Datepicker" transform="translate(883.000000, 3321.000000)">
                <path d="M14.5,9 L23.5,-6.21724894e-15 L32.5,9 L146,9 L146,129 L0,129 L0,9 L14.5,9 Z" id="Rectangle-16" fill="#FFFFFF"></path>
                <rect id="Rectangle-15-Copy-5" fill="#DCDCDC" x="38" y="47" width="18" height="18"></rect>
                <rect id="Rectangle-15-Copy-6" fill="#DCDCDC" x="64" y="47" width="18" height="18"></rect>
                <rect id="Rectangle-15-Copy-7" fill="#DCDCDC" x="90" y="47" width="18" height="18"></rect>
                <rect id="Rectangle-15-Copy-8" fill="#DCDCDC" x="116" y="47" width="18" height="18"></rect>
                <rect id="Rectangle-15" fill="#DCDCDC" x="12" y="73" width="18" height="18"></rect>
                <rect id="Rectangle-15-Copy-5" fill="#DCDCDC" x="38" y="73" width="18" height="18"></rect>
                <rect id="Rectangle-15-Copy-6" fill="#1A1A1A" x="64" y="73" width="18" height="18"></rect>
                <rect id="Rectangle-15" fill="#DCDCDC" x="12" y="99" width="18" height="18"></rect>
                <rect id="Rectangle-15-Copy-5" fill="#DCDCDC" x="38" y="99" width="18" height="18"></rect>
                <rect id="Rectangle-15-Copy-6" fill="#DCDCDC" x="64" y="99" width="18" height="18"></rect>
                <rect id="Rectangle-15-Copy-7" fill="#DCDCDC" x="90" y="73" width="18" height="18"></rect>
                <rect id="Rectangle-15-Copy-9" fill="#DCDCDC" x="90" y="99" width="18" height="18"></rect>
                <rect id="Rectangle-15-Copy-8" fill="#DCDCDC" x="116" y="73" width="18" height="18"></rect>
                <rect id="Rectangle-15-Copy-4" fill="#DCDCDC" x="48" y="22" width="50" height="8"></rect>
                <g id="Group-4" transform="translate(11.000000, 17.000000)" fill="#1A1A1A">
                    <g id="Small-arrow" transform="translate(9.000000, 9.000000) rotate(-225.000000) translate(-9.000000, -9.000000) translate(3.000000, 3.000000)">
                        <rect id="Rectangle-15" x="2" y="10" width="10" height="2"></rect>
                        <rect id="Rectangle-15" transform="translate(11.000000, 7.000000) rotate(-270.000000) translate(-11.000000, -7.000000) " x="6" y="6" width="10" height="2"></rect>
                    </g>
                    <g id="Small-arrow" transform="translate(115.000000, 9.000000) rotate(-45.000000) translate(-115.000000, -9.000000) translate(109.000000, 3.000000)">
                        <rect id="Rectangle-15" x="2" y="10" width="10" height="2"></rect>
                        <rect id="Rectangle-15" transform="translate(11.000000, 7.000000) rotate(-270.000000) translate(-11.000000, -7.000000) " x="6" y="6" width="10" height="2"></rect>
                    </g>
                </g>
            </g>
        </g>
    </g>
</svg>