<?xml version="1.0" encoding="UTF-8"?>
<svg width="180px" height="120px" viewBox="0 0 180 120" version="1.1" xmlns="http://www.w3.org/2000/svg" xmlns:xlink="http://www.w3.org/1999/xlink">
    <!-- Generator: Sketch 53.2 (72643) - https://sketchapp.com -->
    <title>Roadmap</title>
    <desc>Created with Sketch.</desc>
    <g id="Illustrationer" stroke="none" stroke-width="1" fill="none" fill-rule="evenodd">
        <g id="Overview_illustrationer_Ver02" transform="translate(-511.000000, -4381.000000)">
            <g id="Roadmap" transform="translate(511.000000, 4381.000000)">
                <g id="01">
                    <rect id="Rectangle" fill="#FFFFFF" x="0" y="0" width="70" height="40"></rect>
                    <g id="Group-10" transform="translate(18.000000, 14.000000)" fill="#454545">
                        <rect id="Rectangle-Copy-6" x="0" y="0" width="25" height="4"></rect>
                        <rect id="Rectangle-Copy-9" x="10" y="8" width="24" height="4"></rect>
                        <rect id="Rectangle-Copy-8" x="27" y="0" width="7" height="4"></rect>
                        <rect id="Rectangle-Copy-11" x="0" y="8" width="8" height="4"></rect>
                    </g>
                </g>
                <g id="01-copy-2" transform="translate(0.000000, 80.000000)">
                    <rect id="Rectangle" fill="#FFFFFF" x="0" y="0" width="70" height="40"></rect>
                    <g id="Group-10" transform="translate(18.000000, 14.000000)" fill="#454545">
                        <rect id="Rectangle-Copy-6" x="0" y="0" width="34" height="4"></rect>
                        <rect id="Rectangle-Copy-9" x="26" y="8" width="8" height="4"></rect>
                        <rect id="Rectangle-Copy-11" x="0" y="8" width="24" height="4"></rect>
                    </g>
                </g>
                <g id="01-copy" transform="translate(110.000000, 0.000000)">
                    <rect id="Rectangle" fill="#FFFFFF" x="0" y="0" width="70" height="40"></rect>
                    <g id="Group-10" transform="translate(18.000000, 14.000000)" fill="#454545">
                        <rect id="Rectangle-Copy-6" x="0" y="0" width="17" height="4"></rect>
                        <rect id="Rectangle-Copy-9" x="26" y="8" width="8" height="4"></rect>
                        <rect id="Rectangle-Copy-8" x="19" y="0" width="15" height="4"></rect>
                        <rect id="Rectangle-Copy-11" x="0" y="8" width="24" height="4"></rect>
                    </g>
                </g>
                <g id="01-copy-3" transform="translate(110.000000, 80.000000)">
                    <rect id="Rectangle" fill="#FFFFFF" x="0" y="0" width="70" height="40"></rect>
                    <g id="Group-10" transform="translate(18.000000, 14.000000)" fill="#454545">
                        <rect id="Rectangle-Copy-6" x="0" y="0" width="8" height="4"></rect>
                        <rect id="Rectangle-Copy-9" x="18" y="8" width="16" height="4"></rect>
                        <rect id="Rectangle-Copy-8" x="10" y="0" width="24" height="4"></rect>
                        <rect id="Rectangle-Copy-11" x="0" y="8" width="16" height="4"></rect>
                    </g>
                </g>
                <g id="Arrow" transform="translate(76.000000, 11.000000)" stroke="#1A1A1A" stroke-width="2">
                    <path d="M0,9 L28,9" id="Path"></path>
                    <polyline id="Path" points="19 0 28 9 19 18"></polyline>
                </g>
                <g id="Arrow" transform="translate(90.000000, 100.000000) rotate(-180.000000) translate(-90.000000, -100.000000) translate(76.000000, 91.000000)" stroke="#1A1A1A" stroke-width="2">
                    <path d="M0,9 L28,9" id="Path"></path>
                    <polyline id="Path" points="19 0 28 9 19 18"></polyline>
                </g>
                <g id="Arrow" transform="translate(145.000000, 60.000000) rotate(-270.000000) translate(-145.000000, -60.000000) translate(131.000000, 51.000000)" stroke="#1A1A1A" stroke-width="2">
                    <path d="M0,9 L28,9" id="Path"></path>
                    <polyline id="Path" points="19 0 28 9 19 18"></polyline>
                </g>
            </g>
        </g>
    </g>
</svg>