<?xml version="1.0" encoding="UTF-8"?>
<svg width="232px" height="104px" viewBox="0 0 232 104" version="1.1" xmlns="http://www.w3.org/2000/svg" xmlns:xlink="http://www.w3.org/1999/xlink">
    <!-- Generator: Sketch 53.2 (72643) - https://sketchapp.com -->
    <title>Grid-with-dropshadow</title>
    <desc>Created with Sketch.</desc>
    <g id="Illustrationer" stroke="none" stroke-width="1" fill="none" fill-rule="evenodd">
        <g id="Overview_illustrationer_Ver02" transform="translate(-836.000000, -184.000000)" fill-rule="nonzero">
            <g id="Grid" transform="translate(836.000000, 184.000000)">
                <polygon id="Rectangle-3" fill="#FFFFFF" points="0 0 232 0 232 104 0 104"></polygon>
                <polygon id="Rectangle-3" fill="#BFBFBF" points="0 0 20 0 20 104 0 104"></polygon>
                <polygon id="Rectangle-3" fill="#BFBFBF" points="30 0 50 0 50 104 30 104"></polygon>
                <polygon id="Rectangle-3" fill="#BFBFBF" points="61 0 81 0 81 104 61 104"></polygon>
                <polygon id="Rectangle-3" fill="#BFBFBF" points="91 0 111 0 111 104 91 104"></polygon>
                <polygon id="Rectangle-3" fill="#BFBFBF" points="121 0 141 0 141 104 121 104"></polygon>
                <polygon id="Rectangle-3" fill="#BFBFBF" points="151 0 171 0 171 104 151 104"></polygon>
                <polygon id="Rectangle-3" fill="#BFBFBF" points="182 0 202 0 202 104 182 104"></polygon>
                <polygon id="Rectangle-3" fill="#BFBFBF" points="212 0 232 0 232 104 212 104"></polygon>
            </g>
        </g>
    </g>
</svg>