<?xml version="1.0" encoding="UTF-8"?>
<svg width="224px" height="60px" viewBox="0 0 224 60" version="1.1" xmlns="http://www.w3.org/2000/svg" xmlns:xlink="http://www.w3.org/1999/xlink">
    <!-- Generator: Sketch 53.2 (72643) - https://sketchapp.com -->
    <title>Ikoner-with-dropshadow</title>
    <desc>Created with Sketch.</desc>
    <g id="Illustrationer" stroke="none" stroke-width="1" fill="none" fill-rule="evenodd">
        <g id="Overview_illustrationer_Ver02" transform="translate(-488.000000, -502.000000)">
            <g id="Ikoner" transform="translate(488.000000, 502.000000)">
                <g id="ic_outline_error" transform="translate(164.000000, 0.000000)">
                    <g>
                        <circle id="Oval" fill="#FFFFFF" fill-rule="nonzero" cx="30" cy="30" r="30"></circle>
                        <path d="M27,39 L33,39 L33,45 L27,45 L27,39 Z M27,15 L33,15 L33,33 L27,33 L27,15 Z" id="Shape" fill="#1A1A1A"></path>
                    </g>
                </g>
                <g id="ic_outline_success" transform="translate(82.000000, 0.000000)">
                    <g>
                        <circle id="Oval" fill="#FFFFFF" fill-rule="nonzero" cx="30" cy="30" r="30"></circle>
                        <polygon id="Shape" fill="#1A1A1A" points="16.297705 28.3845263 12.0785733 32.586225 25.044337 45.5529691 46.9354651 23.6639272 42.7324164 19.4733296 25.044337 37.1529691"></polygon>
                    </g>
                </g>
                <g id="ic_outline_help">
                    <g>
                        <circle id="Oval" fill="#FFFFFF" fill-rule="nonzero" cx="30" cy="30" r="30"></circle>
                        <path d="M27,48 L33,48 L33,42 L27,42 L27,48 L27,48 Z M30,12 C23.37,12 18,17.37 18,24 L24,24 C24,20.7 26.7,18 30,18 C33.3,18 36,20.7 36,24 C36,30 27,29.25 27,39 L33,39 C33,32.25 42,31.5 42,24 C42,17.37 36.63,12 30,12 L30,12 Z" id="Shape" fill="#1A1A1A"></path>
                    </g>
                </g>
            </g>
        </g>
    </g>
</svg>