<?xml version="1.0" encoding="UTF-8"?>
<svg width="160px" height="80px" viewBox="0 0 160 80" version="1.1" xmlns="http://www.w3.org/2000/svg" xmlns:xlink="http://www.w3.org/1999/xlink">
    <!-- Generator: Sketch 53.2 (72643) - https://sketchapp.com -->
    <title>Principper</title>
    <desc>Created with Sketch.</desc>
    <g id="Illustrationer" stroke="none" stroke-width="1" fill="none" fill-rule="evenodd">
        <g id="Overview_illustrationer_Ver02" transform="translate(-873.000000, -4702.000000)">
            <g id="Principper" transform="translate(873.000000, 4702.000000)">
                <g id="01">
                    <rect id="Rectangle" fill="#FFFFFF" x="0" y="0" width="160" height="80"></rect>
                    <g id="Check-mark" transform="translate(8.000000, 7.000000)" fill="#1A1A1A">
                        <g transform="translate(7.500000, 8.000000) rotate(-315.000000) translate(-7.500000, -8.000000) translate(4.000000, 1.000000)" id="Rectangle-15">
                            <rect fill-rule="nonzero" x="0" y="12" width="7" height="2"></rect>
                            <rect fill-rule="nonzero" transform="translate(6.000000, 7.000000) rotate(-270.000000) translate(-6.000000, -7.000000) " x="-1" y="6" width="14" height="2"></rect>
                        </g>
                    </g>
                    <g id="Check-mark" transform="translate(8.000000, 29.000000)" fill="#1A1A1A">
                        <g transform="translate(7.500000, 8.000000) rotate(-315.000000) translate(-7.500000, -8.000000) translate(4.000000, 1.000000)" id="Rectangle-15">
                            <rect fill-rule="nonzero" x="0" y="12" width="7" height="2"></rect>
                            <rect fill-rule="nonzero" transform="translate(6.000000, 7.000000) rotate(-270.000000) translate(-6.000000, -7.000000) " x="-1" y="6" width="14" height="2"></rect>
                        </g>
                    </g>
                    <g id="Check-mark" transform="translate(8.000000, 50.000000)" fill="#1A1A1A">
                        <g transform="translate(7.500000, 8.000000) rotate(-315.000000) translate(-7.500000, -8.000000) translate(4.000000, 1.000000)" id="Rectangle-15">
                            <rect fill-rule="nonzero" x="0" y="12" width="7" height="2"></rect>
                            <rect fill-rule="nonzero" transform="translate(6.000000, 7.000000) rotate(-270.000000) translate(-6.000000, -7.000000) " x="-1" y="6" width="14" height="2"></rect>
                        </g>
                    </g>
                    <rect id="Rectangle-15-Copy-11" fill="#DCDCDC" fill-rule="nonzero" x="31" y="16" width="36" height="4"></rect>
                    <rect id="Rectangle-15-Copy-17" fill="#DCDCDC" fill-rule="nonzero" x="111" y="16" width="36" height="4"></rect>
                    <rect id="Rectangle-15-Copy-15" fill="#DCDCDC" fill-rule="nonzero" x="31" y="38" width="36" height="4"></rect>
                    <rect id="Rectangle-15-Copy-18" fill="#DCDCDC" fill-rule="nonzero" x="111" y="38" width="36" height="4"></rect>
                    <g id="X" transform="translate(91.000000, 12.000000)" fill="#1A1A1A" fill-rule="nonzero">
                        <rect id="Rectangle-15" transform="translate(6.000000, 6.000000) rotate(-225.000000) translate(-6.000000, -6.000000) " x="-1" y="5" width="14" height="2"></rect>
                        <rect id="Rectangle-15" transform="translate(6.000000, 6.000000) rotate(-135.000000) translate(-6.000000, -6.000000) " x="-1" y="5" width="14" height="2"></rect>
                    </g>
                    <g id="X" transform="translate(91.000000, 34.000000)" fill="#1A1A1A" fill-rule="nonzero">
                        <rect id="Rectangle-15" transform="translate(6.000000, 6.000000) rotate(-225.000000) translate(-6.000000, -6.000000) " x="-1" y="5" width="14" height="2"></rect>
                        <rect id="Rectangle-15" transform="translate(6.000000, 6.000000) rotate(-135.000000) translate(-6.000000, -6.000000) " x="-1" y="5" width="14" height="2"></rect>
                    </g>
                    <g id="X" transform="translate(91.000000, 56.000000)" fill="#1A1A1A" fill-rule="nonzero">
                        <rect id="Rectangle-15" transform="translate(6.000000, 6.000000) rotate(-225.000000) translate(-6.000000, -6.000000) " x="-1" y="5" width="14" height="2"></rect>
                        <rect id="Rectangle-15" transform="translate(6.000000, 6.000000) rotate(-135.000000) translate(-6.000000, -6.000000) " x="-1" y="5" width="14" height="2"></rect>
                    </g>
                    <rect id="Rectangle-15-Copy-16" fill="#DCDCDC" fill-rule="nonzero" x="31" y="60" width="36" height="4"></rect>
                    <rect id="Rectangle-15-Copy-19" fill="#DCDCDC" fill-rule="nonzero" x="111" y="60" width="36" height="4"></rect>
                    <rect id="Rectangle-15-Copy-11" fill="#F5F5F5" fill-rule="nonzero" x="80" y="0" width="1" height="80"></rect>
                </g>
            </g>
        </g>
    </g>
</svg>