<?xml version="1.0" encoding="UTF-8"?>
<svg width="128px" height="148px" viewBox="0 0 128 148" version="1.1" xmlns="http://www.w3.org/2000/svg" xmlns:xlink="http://www.w3.org/1999/xlink">
    <!-- Generator: Sketch 53.2 (72643) - https://sketchapp.com -->
    <title>Kvittering</title>
    <desc>Created with Sketch.</desc>
    <g id="Illustrationer" stroke="none" stroke-width="1" fill="none" fill-rule="evenodd">
        <g id="Overview_illustrationer_Ver02" transform="translate(-889.000000, -3691.000000)">
            <g id="Kvittering" transform="translate(889.000000, 3691.000000)">
                <rect id="Rectangle-10" fill="#FFFFFF" fill-rule="nonzero" x="0" y="0" width="128" height="148"></rect>
                <rect id="Rectangle-17" fill="#F5F5F5" fill-rule="nonzero" x="0" y="86" width="128" height="2"></rect>
                <rect id="Rectangle-17" fill="#F5F5F5" fill-rule="nonzero" x="0" y="116" width="128" height="2"></rect>
                <g id="Group-7" transform="translate(49.000000, 28.000000)">
                    <g id="Check-mark" transform="translate(8.000000, 5.000000)" fill="#1A1A1A">
                        <g transform="translate(7.500000, 8.000000) rotate(-315.000000) translate(-7.500000, -8.000000) translate(4.000000, 1.000000)" id="Rectangle-15">
                            <rect fill-rule="nonzero" x="0" y="12" width="7" height="2"></rect>
                            <rect fill-rule="nonzero" transform="translate(6.000000, 7.000000) rotate(-270.000000) translate(-6.000000, -7.000000) " x="-1" y="6" width="14" height="2"></rect>
                        </g>
                    </g>
                    <circle id="Oval" stroke="#1A1A1A" stroke-width="2" cx="15" cy="15" r="15"></circle>
                </g>
                <g id="Group-6" transform="translate(36.000000, 70.000000)" fill="#DCDCDC" fill-rule="nonzero">
                    <rect id="Rectangle-15" x="0" y="0" width="80" height="4"></rect>
                </g>
                <g id="Group-6" transform="translate(12.000000, 70.000000)" fill="#DCDCDC" fill-rule="nonzero">
                    <rect id="Rectangle-15" x="24" y="30" width="80" height="4"></rect>
                    <rect id="Rectangle-15" x="24" y="60" width="80" height="4"></rect>
                    <rect id="Rectangle-15" x="0" y="0" width="12" height="4"></rect>
                    <rect id="Rectangle-15" x="0" y="30" width="12" height="4"></rect>
                    <rect id="Rectangle-15" x="0" y="60" width="12" height="4"></rect>
                </g>
                <rect id="Rectangle-10" fill="#1A1A1A" fill-rule="nonzero" x="0" y="0" width="128" height="16"></rect>
            </g>
        </g>
    </g>
</svg>