<?xml version="1.0" encoding="UTF-8"?>
<svg width="204px" height="62px" viewBox="0 0 204 62" version="1.1" xmlns="http://www.w3.org/2000/svg" xmlns:xlink="http://www.w3.org/1999/xlink">
    <!-- Generator: Sketch 52.6 (67491) - http://www.bohemiancoding.com/sketch -->
    <title>Logo-with-dropshadow</title>
    <desc>Created with Sketch.</desc>
    <g id="Illustrationer" stroke="none" stroke-width="1" fill="none" fill-rule="evenodd">
        <g id="Illustrationer_Front" transform="translate(-144.000000, -1009.000000)">
            <g id="Logo-2" transform="translate(146.000000, 1011.000000)">
                <g id="Logo">
                    <ellipse id="Oval" fill="#FFFFFF" cx="28.358209" cy="28.8557214" rx="28.358209" ry="28.8557214"></ellipse>
                    <ellipse id="Oval-Copy-5" fill="#FFFFFF" cx="76.119403" cy="28.8557214" rx="28.358209" ry="28.8557214"></ellipse>
                    <ellipse id="Oval-Copy-6" fill="#FFFFFF" cx="123.880597" cy="28.8557214" rx="28.358209" ry="28.8557214"></ellipse>
                    <ellipse id="Oval-Copy-7" fill="#FFFFFF" cx="171.641791" cy="28.8557214" rx="28.358209" ry="28.8557214"></ellipse>
                    <path d="M147.619045,12.8994965 C152.737719,5.12434172 161.490614,0 171.428571,0 C187.208136,0 200,12.9191465 200,28.8557214 C200,44.7922963 187.208136,57.7114428 171.428571,57.7114428 C161.490614,57.7114428 152.737719,52.5871011 147.619045,44.8119463 C142.500374,52.5871027 133.74748,57.7114428 123.809524,57.7114428 C113.871566,57.7114428 105.118671,52.5871011 99.9999976,44.8119463 C94.881326,52.5871027 86.1284321,57.7114428 76.1904762,57.7114428 C66.2525187,57.7114428 57.4996236,52.5871011 52.3809499,44.8119463 C47.2622784,52.5871027 38.5093845,57.7114428 28.5714286,57.7114428 C12.7918643,57.7114428 0,44.7922963 0,28.8557214 C0,12.9191465 12.7918643,0 28.5714286,0 C38.5093845,0 47.2622784,5.12434009 52.3809524,12.8994928 C57.4996236,5.12434172 66.2525187,0 76.1904762,0 C86.1284321,0 94.881326,5.12434009 100,12.8994928 C105.118671,5.12434172 113.871566,0 123.809524,0 C133.74748,0 142.500374,5.12434009 147.619048,12.8994928 Z" id="Combined-Shape" stroke="#1A1A1A" stroke-width="4"></path>
                    <polygon id="L" fill="#1A1A1A" points="37.8109453 43.7810945 21.8905473 43.7810945 21.8905473 16.9154229 27.6797829 16.9154229 27.6797829 38.5850119 37.8109453 38.5850119"></polygon>
                    <path d="M76.6169154,43.7810945 C69.4216215,43.7810945 64.6766169,38.996155 64.6766169,29.8507463 C64.6766169,20.7053376 69.4216215,15.920398 76.6169154,15.920398 C83.8122093,15.920398 88.5572139,20.7053376 88.5572139,29.8507463 C88.5572139,38.996155 83.8122093,43.7810945 76.6169154,43.7810945 Z M76.6169154,38.5716845 C80.1562221,38.5716845 82.2953636,36.1406265 82.2953636,31.8573338 L82.2953636,27.8441587 C82.2953636,23.560866 80.1562221,21.129808 76.6169154,21.129808 C73.0776087,21.129808 70.9384673,23.560866 70.9384673,27.8441587 L70.9384673,31.8573338 C70.9384673,36.1406265 73.0776087,38.5716845 76.6169154,38.5716845 Z" id="O" fill="#1A1A1A"></path>
                    <path d="M130.424799,43.3180359 L130.424799,39.0347432 L130.233448,39.0347432 C129.850746,41.7359187 127.401454,43.7810945 123.383085,43.7810945 C117.259855,43.7810945 112.437811,38.996155 112.437811,29.9665109 C112.437811,20.8982787 117.298125,15.920398 124.53119,15.920398 C129.276693,15.920398 132.835821,18.0427502 134.825871,22.17169 L130.080367,24.9114538 C129.276693,22.8276898 127.631075,21.129808 124.53119,21.129808 C120.933793,21.129808 118.599311,23.213572 118.599311,27.6898058 L118.599311,32.0116867 C118.599311,36.4879205 120.933793,38.5716845 124.53119,38.5716845 C127.439724,38.5716845 129.774206,37.1825085 129.774206,34.5585094 L129.774206,33.2079216 L124.799082,33.2079216 L124.799082,28.3072174 L135.323383,28.3072174 L135.323383,43.3180359 L130.424799,43.3180359 Z" id="G" fill="#1A1A1A"></path>
                    <path d="M171.144279,43.7810945 C163.948985,43.7810945 159.20398,38.996155 159.20398,29.8507463 C159.20398,20.7053376 163.948985,15.920398 171.144279,15.920398 C178.339572,15.920398 183.084577,20.7053376 183.084577,29.8507463 C183.084577,38.996155 178.339572,43.7810945 171.144279,43.7810945 Z M171.144279,38.5716845 C174.683585,38.5716845 176.822727,36.1406265 176.822727,31.8573338 L176.822727,27.8441587 C176.822727,23.560866 174.683585,21.129808 171.144279,21.129808 C167.604972,21.129808 165.46583,23.560866 165.46583,27.8441587 L165.46583,31.8573338 C165.46583,36.1406265 167.604972,38.5716845 171.144279,38.5716845 Z" id="O" fill="#1A1A1A"></path>
                </g>
            </g>
        </g>
    </g>
</svg>