<?xml version="1.0" encoding="UTF-8"?>
<svg width="150px" height="130px" viewBox="0 0 150 130" version="1.1" xmlns="http://www.w3.org/2000/svg" xmlns:xlink="http://www.w3.org/1999/xlink">
    <!-- Generator: Sketch 53.2 (72643) - https://sketchapp.com -->
    <title>Release note</title>
    <desc>Created with Sketch.</desc>
    <g id="Illustrationer" stroke="none" stroke-width="1" fill="none" fill-rule="evenodd">
        <g id="Overview_illustrationer_Ver02" transform="translate(-174.000000, -4376.000000)">
            <g id="Release-note" transform="translate(174.000000, 4376.000000)">
                <g id="02" transform="translate(40.000000, 0.000000)">
                    <g id="Group-7">
                        <polygon id="Fill-1" fill="#F5F5F5" points="20.001 3.69482223e-13 1.77635684e-14 20 1.77635684e-14 130.001 110 130.001 110 3.69482223e-13"></polygon>
                        <polygon id="Fill-4" fill="#DCDCDC" points="20 20 -5.68434189e-14 20 20 5.68434189e-14"></polygon>
                    </g>
                    <g id="Group-9" transform="translate(12.000000, 33.000000)">
                        <rect id="Rectangle-15" fill="#DCDCDC" fill-rule="nonzero" x="14" y="1" width="72" height="4"></rect>
                        <circle id="Oval" fill="#747474" cx="3" cy="3" r="3"></circle>
                        <rect id="Rectangle-15" fill="#DCDCDC" fill-rule="nonzero" x="14" y="21" width="72" height="4"></rect>
                        <circle id="Oval" fill="#747474" cx="3" cy="23" r="3"></circle>
                        <rect id="Rectangle-15" fill="#DCDCDC" fill-rule="nonzero" x="14" y="41" width="72" height="4"></rect>
                        <circle id="Oval" fill="#747474" cx="3" cy="43" r="3"></circle>
                        <rect id="Rectangle-15" fill="#DCDCDC" fill-rule="nonzero" x="14" y="61" width="72" height="4"></rect>
                        <circle id="Oval" fill="#747474" cx="3" cy="63" r="3"></circle>
                    </g>
                </g>
                <g id="01">
                    <g id="Group-7">
                        <polygon id="Fill-1" fill="#FFFFFE" points="20.001 3.69482223e-13 1.77635684e-14 20 1.77635684e-14 130.001 110 130.001 110 3.69482223e-13"></polygon>
                        <polygon id="Fill-4" fill="#DCDCDC" points="20 20 -5.68434189e-14 20 20 5.68434189e-14"></polygon>
                    </g>
                    <g id="Group-9" transform="translate(12.000000, 33.000000)">
                        <rect id="Rectangle-15" fill="#DCDCDC" fill-rule="nonzero" x="14" y="1" width="72" height="4"></rect>
                        <circle id="Oval" fill="#1A1A1A" cx="3" cy="3" r="3"></circle>
                        <rect id="Rectangle-15" fill="#DCDCDC" fill-rule="nonzero" x="14" y="21" width="72" height="4"></rect>
                        <circle id="Oval" fill="#1A1A1A" cx="3" cy="23" r="3"></circle>
                        <rect id="Rectangle-15" fill="#DCDCDC" fill-rule="nonzero" x="14" y="41" width="72" height="4"></rect>
                        <circle id="Oval" fill="#1A1A1A" cx="3" cy="43" r="3"></circle>
                        <rect id="Rectangle-15" fill="#DCDCDC" fill-rule="nonzero" x="14" y="61" width="72" height="4"></rect>
                        <circle id="Oval" fill="#1A1A1A" cx="3" cy="63" r="3"></circle>
                    </g>
                </g>
                <path d="M79.09,20.1 L74.15,20.1 L74.15,18.73 L76.3,16.89 C76.4933343,16.7233325 76.656666,16.5716674 76.79,16.435 C76.923334,16.2983326 77.0316663,16.1650007 77.115,16.035 C77.1983337,15.9049994 77.2583331,15.7766673 77.295,15.65 C77.3316669,15.5233327 77.35,15.3866674 77.35,15.24 L77.35,15.1 C77.35,14.966666 77.3233336,14.8500005 77.27,14.75 C77.2166664,14.6499995 77.1466671,14.566667 77.06,14.5 C76.9733329,14.433333 76.8750005,14.3833335 76.765,14.35 C76.6549994,14.3166665 76.5433339,14.3 76.43,14.3 C76.2633325,14.3 76.1183339,14.3266664 75.995,14.38 C75.8716661,14.4333336 75.7650005,14.5049996 75.675,14.595 C75.5849995,14.6850005 75.5100003,14.7883328 75.45,14.905 C75.3899997,15.0216673 75.3433335,15.146666 75.31,15.28 L74,14.78 C74.0800004,14.5399988 74.1899993,14.3116678 74.33,14.095 C74.4700007,13.8783323 74.644999,13.6883342 74.855,13.525 C75.0650011,13.3616659 75.3133319,13.2333338 75.6,13.14 C75.8866681,13.0466662 76.2099982,13 76.57,13 C76.9500019,13 77.2866652,13.0533328 77.58,13.16 C77.8733348,13.2666672 78.1216656,13.4133324 78.325,13.6 C78.5283343,13.7866676 78.6833328,14.0083321 78.79,14.265 C78.8966672,14.521668 78.95,14.7999985 78.95,15.1 C78.95,15.4000015 78.9000005,15.6733321 78.8,15.92 C78.6999995,16.1666679 78.5650009,16.3983323 78.395,16.615 C78.2249992,16.8316678 78.0266678,17.0366657 77.8,17.23 C77.5733322,17.4233343 77.3366679,17.619999 77.09,17.82 L75.79,18.84 L79.09,18.84 L79.09,20.1 Z M81.13,20.21 C80.8299985,20.21 80.608334,20.1350008 80.465,19.985 C80.3216659,19.8349993 80.25,19.6433345 80.25,19.41 L80.25,19.21 C80.25,18.9766655 80.3216659,18.7850008 80.465,18.635 C80.608334,18.4849993 80.8299985,18.41 81.13,18.41 C81.4300015,18.41 81.6516659,18.4849993 81.795,18.635 C81.938334,18.7850008 82.01,18.9766655 82.01,19.21 L82.01,19.41 C82.01,19.6433345 81.938334,19.8349993 81.795,19.985 C81.6516659,20.1350008 81.4300015,20.21 81.13,20.21 Z M85.68,20.22 C84.7666621,20.22 84.0900022,19.9033365 83.65,19.27 C83.2099978,18.6366635 82.99,17.7500057 82.99,16.61 C82.99,15.4699943 83.2099978,14.5833365 83.65,13.95 C84.0900022,13.3166635 84.7666621,13 85.68,13 C86.5933379,13 87.2699978,13.3166635 87.71,13.95 C88.1500022,14.5833365 88.37,15.4699943 88.37,16.61 C88.37,17.7500057 88.1500022,18.6366635 87.71,19.27 C87.2699978,19.9033365 86.5933379,20.22 85.68,20.22 Z M85.68,18.95 C86.080002,18.95 86.3566659,18.8033348 86.51,18.51 C86.6633341,18.2166652 86.74,17.803336 86.74,17.27 L86.74,15.95 C86.74,15.416664 86.6633341,15.0033348 86.51,14.71 C86.3566659,14.4166652 86.080002,14.27 85.68,14.27 C85.279998,14.27 85.0033341,14.4166652 84.85,14.71 C84.6966659,15.0033348 84.62,15.416664 84.62,15.95 L84.62,17.27 C84.62,17.803336 84.6966659,18.2166652 84.85,18.51 C85.0033341,18.8033348 85.279998,18.95 85.68,18.95 Z M90.23,20.21 C89.9299985,20.21 89.7083341,20.1350008 89.565,19.985 C89.4216659,19.8349993 89.35,19.6433345 89.35,19.41 L89.35,19.21 C89.35,18.9766655 89.4216659,18.7850008 89.565,18.635 C89.7083341,18.4849993 89.9299985,18.41 90.23,18.41 C90.5300015,18.41 90.751666,18.4849993 90.895,18.635 C91.038334,18.7850008 91.11,18.9766655 91.11,19.21 L91.11,19.41 C91.11,19.6433345 91.038334,19.8349993 90.895,19.985 C90.751666,20.1350008 90.5300015,20.21 90.23,20.21 Z M92.72,20.1 L92.72,18.89 L94.6,18.89 L94.6,14.21 L94.51,14.21 L93.09,16.07 L92.13,15.32 L93.8,13.12 L96.1,13.12 L96.1,18.89 L97.58,18.89 L97.58,20.1 L92.72,20.1 Z" id="2.0.1" fill="#1A1A1A" fill-rule="nonzero"></path>
                <path d="M120.09,20.1 L115.15,20.1 L115.15,18.73 L117.3,16.89 C117.493334,16.7233325 117.656666,16.5716674 117.79,16.435 C117.923334,16.2983326 118.031666,16.1650007 118.115,16.035 C118.198334,15.9049994 118.258333,15.7766673 118.295,15.65 C118.331667,15.5233327 118.35,15.3866674 118.35,15.24 L118.35,15.1 C118.35,14.966666 118.323334,14.8500005 118.27,14.75 C118.216666,14.6499995 118.146667,14.566667 118.06,14.5 C117.973333,14.433333 117.875001,14.3833335 117.765,14.35 C117.654999,14.3166665 117.543334,14.3 117.43,14.3 C117.263333,14.3 117.118334,14.3266664 116.995,14.38 C116.871666,14.4333336 116.765,14.5049996 116.675,14.595 C116.585,14.6850005 116.51,14.7883328 116.45,14.905 C116.39,15.0216673 116.343333,15.146666 116.31,15.28 L115,14.78 C115.08,14.5399988 115.189999,14.3116678 115.33,14.095 C115.470001,13.8783323 115.644999,13.6883342 115.855,13.525 C116.065001,13.3616659 116.313332,13.2333338 116.6,13.14 C116.886668,13.0466662 117.209998,13 117.57,13 C117.950002,13 118.286665,13.0533328 118.58,13.16 C118.873335,13.2666672 119.121666,13.4133324 119.325,13.6 C119.528334,13.7866676 119.683333,14.0083321 119.79,14.265 C119.896667,14.521668 119.95,14.7999985 119.95,15.1 C119.95,15.4000015 119.900001,15.6733321 119.8,15.92 C119.7,16.1666679 119.565001,16.3983323 119.395,16.615 C119.224999,16.8316678 119.026668,17.0366657 118.8,17.23 C118.573332,17.4233343 118.336668,17.619999 118.09,17.82 L116.79,18.84 L120.09,18.84 L120.09,20.1 Z M122.13,20.21 C121.829999,20.21 121.608334,20.1350008 121.465,19.985 C121.321666,19.8349993 121.25,19.6433345 121.25,19.41 L121.25,19.21 C121.25,18.9766655 121.321666,18.7850008 121.465,18.635 C121.608334,18.4849993 121.829999,18.41 122.13,18.41 C122.430002,18.41 122.651666,18.4849993 122.795,18.635 C122.938334,18.7850008 123.01,18.9766655 123.01,19.21 L123.01,19.41 C123.01,19.6433345 122.938334,19.8349993 122.795,19.985 C122.651666,20.1350008 122.430002,20.21 122.13,20.21 Z M126.68,20.22 C125.766662,20.22 125.090002,19.9033365 124.65,19.27 C124.209998,18.6366635 123.99,17.7500057 123.99,16.61 C123.99,15.4699943 124.209998,14.5833365 124.65,13.95 C125.090002,13.3166635 125.766662,13 126.68,13 C127.593338,13 128.269998,13.3166635 128.71,13.95 C129.150002,14.5833365 129.37,15.4699943 129.37,16.61 C129.37,17.7500057 129.150002,18.6366635 128.71,19.27 C128.269998,19.9033365 127.593338,20.22 126.68,20.22 Z M126.68,18.95 C127.080002,18.95 127.356666,18.8033348 127.51,18.51 C127.663334,18.2166652 127.74,17.803336 127.74,17.27 L127.74,15.95 C127.74,15.416664 127.663334,15.0033348 127.51,14.71 C127.356666,14.4166652 127.080002,14.27 126.68,14.27 C126.279998,14.27 126.003334,14.4166652 125.85,14.71 C125.696666,15.0033348 125.62,15.416664 125.62,15.95 L125.62,17.27 C125.62,17.803336 125.696666,18.2166652 125.85,18.51 C126.003334,18.8033348 126.279998,18.95 126.68,18.95 Z M131.23,20.21 C130.929999,20.21 130.708334,20.1350008 130.565,19.985 C130.421666,19.8349993 130.35,19.6433345 130.35,19.41 L130.35,19.21 C130.35,18.9766655 130.421666,18.7850008 130.565,18.635 C130.708334,18.4849993 130.929999,18.41 131.23,18.41 C131.530001,18.41 131.751666,18.4849993 131.895,18.635 C132.038334,18.7850008 132.11,18.9766655 132.11,19.21 L132.11,19.41 C132.11,19.6433345 132.038334,19.8349993 131.895,19.985 C131.751666,20.1350008 131.530001,20.21 131.23,20.21 Z M135.78,20.22 C134.866662,20.22 134.190002,19.9033365 133.75,19.27 C133.309998,18.6366635 133.09,17.7500057 133.09,16.61 C133.09,15.4699943 133.309998,14.5833365 133.75,13.95 C134.190002,13.3166635 134.866662,13 135.78,13 C136.693338,13 137.369998,13.3166635 137.81,13.95 C138.250002,14.5833365 138.47,15.4699943 138.47,16.61 C138.47,17.7500057 138.250002,18.6366635 137.81,19.27 C137.369998,19.9033365 136.693338,20.22 135.78,20.22 Z M135.78,18.95 C136.180002,18.95 136.456666,18.8033348 136.61,18.51 C136.763334,18.2166652 136.84,17.803336 136.84,17.27 L136.84,15.95 C136.84,15.416664 136.763334,15.0033348 136.61,14.71 C136.456666,14.4166652 136.180002,14.27 135.78,14.27 C135.379998,14.27 135.103334,14.4166652 134.95,14.71 C134.796666,15.0033348 134.72,15.416664 134.72,15.95 L134.72,17.27 C134.72,17.803336 134.796666,18.2166652 134.95,18.51 C135.103334,18.8033348 135.379998,18.95 135.78,18.95 Z" id="2.0.0" fill="#747474" fill-rule="nonzero"></path>
            </g>
        </g>
    </g>
</svg>