<?xml version="1.0" encoding="UTF-8"?>
<svg width="128px" height="166px" viewBox="0 0 128 166" version="1.1" xmlns="http://www.w3.org/2000/svg" xmlns:xlink="http://www.w3.org/1999/xlink">
    <!-- Generator: Sketch 53.2 (72643) - https://sketchapp.com -->
    <title>Selvbetjening_With_BG</title>
    <desc>Created with Sketch.</desc>
    <g id="Illustrationer" stroke="none" stroke-width="1" fill="none" fill-rule="evenodd">
        <g id="Overview_illustrationer_Ver02" transform="translate(-185.000000, -3691.000000)">
            <g id="Selvbetjening" transform="translate(185.000000, 3691.000000)">
                <rect id="Rectangle-10" fill="#FFFFFF" fill-rule="nonzero" x="0" y="0" width="128" height="148"></rect>
                <rect id="Button---Virk" fill="#BFBFBF" x="37" y="116" width="54" height="20" rx="4"></rect>
                <g id="scroll-vertical" transform="translate(57.000000, 122.000000)" fill-rule="nonzero">
                    <path d="M3.07,7.22 C2.6099977,7.22 2.1900019,7.1433341 1.81,6.99 C1.4299981,6.8366659 1.106668,6.60833485 0.84,6.305 C0.573332,6.00166515 0.3666674,5.62500225 0.22,5.175 C0.0733326,4.72499775 0,4.2033363 0,3.61 C0,3.0166637 0.0733326,2.49500225 0.22,2.045 C0.3666674,1.59499775 0.573332,1.21833485 0.84,0.915 C1.106668,0.61166515 1.4299981,0.3833341 1.81,0.23 C2.1900019,0.0766659 2.6099977,0 3.07,0 C3.5300023,0 3.9499981,0.0766659 4.33,0.23 C4.7100019,0.3833341 5.033332,0.61166515 5.3,0.915 C5.566668,1.21833485 5.7733326,1.59499775 5.92,2.045 C6.0666674,2.49500225 6.14,3.0166637 6.14,3.61 C6.14,4.2033363 6.0666674,4.72499775 5.92,5.175 C5.7733326,5.62500225 5.566668,6.00166515 5.3,6.305 C5.033332,6.60833485 4.7100019,6.8366659 4.33,6.99 C3.9499981,7.1433341 3.5300023,7.22 3.07,7.22 Z M3.07,5.87 C3.5300023,5.87 3.88833205,5.7200015 4.145,5.42 C4.40166795,5.1199985 4.53,4.6900028 4.53,4.13 L4.53,3.09 C4.53,2.5299972 4.40166795,2.1000015 4.145,1.8 C3.88833205,1.4999985 3.5300023,1.35 3.07,1.35 C2.6099977,1.35 2.25166795,1.4999985 1.995,1.8 C1.73833205,2.1000015 1.61,2.5299972 1.61,3.09 L1.61,4.13 C1.61,4.6900028 1.73833205,5.1199985 1.995,5.42 C2.25166795,5.7200015 2.6099977,5.87 3.07,5.87 Z M9.84,4.06 L8.93,5.16 L8.93,7.1 L7.41,7.1 L7.41,0.12 L8.93,0.12 L8.93,3.44 L8.99,3.44 L9.98,2.09 L11.55,0.12 L13.27,0.12 L10.92,2.99 L13.48,7.1 L11.69,7.1 L9.84,4.06 Z" id="OK" fill="#FFFFFF"></path>
                    <path d="M42.6268218,20.2007872 L28.200147,17.6 L28.200147,3.52 C28.200147,1.575992 26.6107068,0 24.6501102,0 C22.6895137,0 21.1000735,1.575992 21.1000735,3.52 L21.1000735,28.16 L19.3250551,28.16 L19.3250551,22.88 L17.5500367,22.88 C15.5894402,22.88 14,24.4558864 14,26.4 L14,31.4957632 C14,33.89364 14.8230405,36.220184 16.3338297,38.092648 L21.1000735,44 L44.1753123,44 L46.9374007,26.19848 C47.3759545,23.3716736 45.4648632,20.7124368 42.6268218,20.2007872 Z" id="Path" fill="#1A1A1A"></path>
                </g>
                <g id="Form-Copy-2" transform="translate(12.000000, 28.000000)" fill-rule="nonzero">
                    <g id="Group-6" transform="translate(0.000000, 26.000000)">
                        <rect id="Rectangle-15" fill="#DCDCDC" x="24" y="4" width="79" height="4"></rect>
                        <path d="M2.05882353,1.54411765 C1.77455932,1.54411765 1.54411765,1.77455932 1.54411765,2.05882353 L1.54411765,9.94117647 C1.54411765,10.2254407 1.77455932,10.4558824 2.05882353,10.4558824 L9.94117647,10.4558824 C10.2254407,10.4558824 10.4558824,10.2254407 10.4558824,9.94117647 L10.4558824,2.05882353 C10.4558824,1.77455932 10.2254407,1.54411765 9.94117647,1.54411765 L2.05882353,1.54411765 Z M2.05882353,4.57150657e-16 L9.94117647,4.57150657e-16 C11.0782333,1.25818605e-15 12,0.921766692 12,2.05882353 L12,9.94117647 C12,11.0782333 11.0782333,12 9.94117647,12 L2.05882353,12 C0.921766692,12 1.14915865e-15,11.0782333 0,9.94117647 L4.57150657e-16,2.05882353 C3.17901356e-16,0.921766692 0.921766692,2.08873953e-16 2.05882353,4.57150657e-16 Z" id="Box" fill="#1A1A1A"></path>
                    </g>
                    <g id="Group-6" transform="translate(0.000000, 47.000000)">
                        <rect id="Rectangle-15" fill="#DCDCDC" x="24" y="4" width="79" height="4"></rect>
                        <path d="M2.05882353,1.54411765 C1.77455932,1.54411765 1.54411765,1.77455932 1.54411765,2.05882353 L1.54411765,9.94117647 C1.54411765,10.2254407 1.77455932,10.4558824 2.05882353,10.4558824 L9.94117647,10.4558824 C10.2254407,10.4558824 10.4558824,10.2254407 10.4558824,9.94117647 L10.4558824,2.05882353 C10.4558824,1.77455932 10.2254407,1.54411765 9.94117647,1.54411765 L2.05882353,1.54411765 Z M2.05882353,4.57150657e-16 L9.94117647,4.57150657e-16 C11.0782333,1.25818605e-15 12,0.921766692 12,2.05882353 L12,9.94117647 C12,11.0782333 11.0782333,12 9.94117647,12 L2.05882353,12 C0.921766692,12 1.14915865e-15,11.0782333 0,9.94117647 L4.57150657e-16,2.05882353 C3.17901356e-16,0.921766692 0.921766692,2.08873953e-16 2.05882353,4.57150657e-16 Z" id="Box" fill="#1A1A1A"></path>
                    </g>
                    <g id="Group-6" transform="translate(0.000000, 68.000000)">
                        <rect id="Rectangle-15" fill="#DCDCDC" x="24" y="4" width="79" height="4"></rect>
                        <path d="M2.05882353,1.54411765 C1.77455932,1.54411765 1.54411765,1.77455932 1.54411765,2.05882353 L1.54411765,9.94117647 C1.54411765,10.2254407 1.77455932,10.4558824 2.05882353,10.4558824 L9.94117647,10.4558824 C10.2254407,10.4558824 10.4558824,10.2254407 10.4558824,9.94117647 L10.4558824,2.05882353 C10.4558824,1.77455932 10.2254407,1.54411765 9.94117647,1.54411765 L2.05882353,1.54411765 Z M2.05882353,4.57150657e-16 L9.94117647,4.57150657e-16 C11.0782333,1.25818605e-15 12,0.921766692 12,2.05882353 L12,9.94117647 C12,11.0782333 11.0782333,12 9.94117647,12 L2.05882353,12 C0.921766692,12 1.14915865e-15,11.0782333 0,9.94117647 L4.57150657e-16,2.05882353 C3.17901356e-16,0.921766692 0.921766692,2.08873953e-16 2.05882353,4.57150657e-16 Z" id="Box" fill="#1A1A1A"></path>
                    </g>
                    <rect id="Rectangle-15" stroke="#1A1A1A" stroke-width="2" fill="#FFFFFF" x="1" y="1" width="102" height="14" rx="2"></rect>
                </g>
                <rect id="Rectangle-10" fill="#1A1A1A" fill-rule="nonzero" x="0" y="0" width="128" height="16"></rect>
            </g>
        </g>
    </g>
</svg>