<?xml version="1.0" encoding="UTF-8"?>
<svg width="194px" height="128px" viewBox="0 0 194 128" version="1.1" xmlns="http://www.w3.org/2000/svg" xmlns:xlink="http://www.w3.org/1999/xlink">
    <!-- Generator: Sketch 53.2 (72643) - https://sketchapp.com -->
    <title>Tabeller-with-dropshadow</title>
    <desc>Created with Sketch.</desc>
    <g id="Illustrationer" stroke="none" stroke-width="1" fill="none" fill-rule="evenodd">
        <g id="Overview_illustrationer_Ver02" transform="translate(-151.000000, -2647.000000)" fill-rule="nonzero">
            <g id="Tabeller" transform="translate(151.000000, 2647.000000)">
                <rect id="Rectangle-10" fill="#FFFFFF" x="0" y="0" width="194" height="128"></rect>
                <rect id="Rectangle-10" fill="#1A1A1A" x="0" y="0" width="194" height="16"></rect>
                <g id="Group-5" transform="translate(12.000000, 28.000000)" fill="#DCDCDC">
                    <polygon id="Rectangle-10" points="0 0 170 0 170 8 0 8"></polygon>
                    <polygon id="Rectangle-10" points="0 16 170 16 170 24 0 24"></polygon>
                    <polygon id="Rectangle-10" points="0 32 170 32 170 40 0 40"></polygon>
                    <polygon id="Rectangle-10" points="0 48 170 48 170 56 0 56"></polygon>
                    <polygon id="Rectangle-10" points="0 64 170 64 170 72 0 72"></polygon>
                    <polygon id="Rectangle-10" points="0 80 170 80 170 88 0 88"></polygon>
                </g>
            </g>
        </g>
    </g>
</svg>