<?xml version="1.0" encoding="UTF-8"?>
<svg width="157px" height="133px" viewBox="0 0 157 133" version="1.1" xmlns="http://www.w3.org/2000/svg" xmlns:xlink="http://www.w3.org/1999/xlink">
    <!-- Generator: Sketch 53.2 (72643) - https://sketchapp.com -->
    <title>Visual Design</title>
    <desc>Created with Sketch.</desc>
    <g id="Illustrationer" stroke="none" stroke-width="1" fill="none" fill-rule="evenodd">
        <g id="Overview_illustrationer_Ver02" transform="translate(-170.000000, -762.000000)" fill-rule="nonzero">
            <g id="Visual-Design" transform="translate(170.000000, 762.000000)">
                <circle id="Oval" fill="#FFFFFF" cx="110.5" cy="38.5" r="32.5"></circle>
                <rect id="Rectangle" fill="#FFFFFF" x="23" y="75" width="59" height="58" rx="1"></rect>
                <path d="M64.5778424,53.3563998 C65.1554721,52.3392257 65.1393283,51.0906272 64.5355917,50.0886503 L35.2851569,1.46142571 C34.6545865,0.546567976 33.6128975,0 32.4998655,0 C31.3868334,0 30.3451444,0.546567976 29.7145741,1.46142571 L0.464139206,50.0886503 C-0.138994212,51.0899907 -0.155385132,52.3375637 0.421233962,53.3543255 C0.997853056,54.3710873 2.07829783,54.9997779 3.24943061,55 L61.7503003,55 C62.9207654,54.9999658 64.0008031,54.3721589 64.5778424,53.3563998 L64.5778424,53.3563998 Z" id="Path" fill="#FFFFFF"></path>
                <g id="brush" transform="translate(102.000000, 65.000000)" fill="#1A1A1A">
                    <path d="M10.7102942,35 C8.22912274,35 5.8966966,35.96625 4.14175217,37.72125 C0.77060892,41.0925 0.0706310857,52.33125 0.00188326267,53.60125 C-0.018116104,53.9775 0.121879463,54.345 0.388121032,54.61125 C0.638113116,54.86125 0.975602429,55 1.32684131,55 C1.35184051,55 1.37558976,55 1.39933901,54.9975 C2.6692988,54.92875 13.9076929,54.22875 17.2788362,50.8575 C19.0337806,49.10375 20,46.77125 20,44.29 C20,41.80875 19.0337806,39.47625 17.2788362,37.72125 C15.5251417,35.96625 13.1927156,35 10.7102942,35 Z" id="Path"></path>
                    <path d="M53.8984626,1.10160477 C52.429746,-0.367201589 50.049974,-0.367201589 48.5812575,1.10160477 L15.4799951,30.6594529 C14.7769661,31.3625248 14.2995079,32.1984411 14,33.0807275 C15.8521869,33.634663 17.5502338,34.6410209 18.9550387,36.0459117 C20.3598435,37.4508024 21.3661399,39.1489531 21.9200416,41 C22.802274,40.7004738 23.636886,40.2242396 24.3411682,39.5199144 L53.8984626,6.41788171 C55.3671791,4.9503286 55.3671791,2.56915788 53.8984626,1.10160477 Z" id="Path"></path>
                </g>
            </g>
        </g>
    </g>
</svg>