<svg width="418" height="284" viewBox="0 0 418 284" fill="none" xmlns="http://www.w3.org/2000/svg">
<rect width="418" height="284" fill="white"/>
<rect x="17" y="229" width="84" height="38.0001" rx="3" fill="#44831E"/>
<rect x="18.5" y="264.5" width="81" height="1" stroke="#3C5C22"/>
<path d="M36.932 247.052L35.546 244.388H35.492V254H33.548V241.436H35.816L39.92 248.384L41.306 251.048H41.36V241.436H43.304V254H41.036L36.932 247.052ZM49.6016 249.824C48.2456 249.848 47.5676 250.274 47.5676 251.102V251.426C47.5676 251.846 47.7056 252.17 47.9816 252.398C48.2696 252.614 48.6716 252.722 49.1876 252.722C49.7636 252.722 50.2496 252.59 50.6456 252.326C51.0536 252.05 51.2576 251.684 51.2576 251.228V249.824H49.6016ZM57.5756 248.528V248.348C57.5756 247.628 57.3896 247.052 57.0176 246.62C56.6456 246.176 56.1356 245.954 55.4876 245.954C55.1516 245.954 54.8396 246.014 54.5516 246.134C54.2756 246.254 54.0356 246.422 53.8316 246.638C53.6396 246.854 53.4896 247.112 53.3816 247.412C53.2736 247.712 53.2196 248.042 53.2196 248.402V248.528H57.5756ZM55.7216 252.596C56.2976 252.596 56.7836 252.47 57.1796 252.218C57.5876 251.966 57.9176 251.63 58.1696 251.21L59.3216 252.326C58.9736 252.902 58.4756 253.364 57.8276 253.712C57.1916 254.048 56.4596 254.216 55.6316 254.216C55.1636 254.216 54.7256 254.156 54.3176 254.036C53.9216 253.916 53.5676 253.76 53.2556 253.568C52.9556 253.376 52.7036 253.166 52.4996 252.938C52.3076 252.698 52.1696 252.464 52.0856 252.236H51.9776C51.9176 252.452 51.7976 252.68 51.6176 252.92C51.4496 253.148 51.2276 253.358 50.9516 253.55C50.6756 253.742 50.3396 253.898 49.9436 254.018C49.5476 254.15 49.0976 254.216 48.5936 254.216C47.6456 254.216 46.9016 253.958 46.3616 253.442C45.8336 252.926 45.5696 252.254 45.5696 251.426C45.5696 250.478 45.9176 249.758 46.6136 249.266C47.3096 248.774 48.2936 248.528 49.5656 248.528H51.2576V247.826C51.2576 247.25 51.1016 246.806 50.7896 246.494C50.4776 246.182 49.9976 246.026 49.3496 246.026C48.7736 246.026 48.3116 246.146 47.9636 246.386C47.6276 246.614 47.3396 246.914 47.0996 247.286L45.9296 246.242C46.2416 245.714 46.6796 245.282 47.2436 244.946C47.8076 244.598 48.5456 244.424 49.4576 244.424C49.8896 244.424 50.2616 244.478 50.5736 244.586C50.8856 244.694 51.1496 244.832 51.3656 245C51.5936 245.168 51.7736 245.36 51.9056 245.576C52.0496 245.78 52.1696 245.984 52.2656 246.188H52.3736C52.4696 245.972 52.6136 245.762 52.8056 245.558C52.9976 245.342 53.2256 245.15 53.4896 244.982C53.7656 244.814 54.0776 244.682 54.4256 244.586C54.7856 244.478 55.1756 244.424 55.5956 244.424C56.2676 244.424 56.8556 244.544 57.3596 244.784C57.8636 245.024 58.2836 245.36 58.6196 245.792C58.9676 246.212 59.2256 246.704 59.3936 247.268C59.5616 247.832 59.6456 248.438 59.6456 249.086V249.824H53.2196V250.13C53.2196 250.85 53.4356 251.444 53.8676 251.912C54.3116 252.368 54.9296 252.596 55.7216 252.596ZM64.7978 254.216C63.9098 254.216 63.1658 254.06 62.5658 253.748C61.9658 253.436 61.4438 253.004 60.9998 252.452L62.2598 251.3C62.6078 251.72 62.9918 252.05 63.4118 252.29C63.8438 252.518 64.3418 252.632 64.9058 252.632C65.4818 252.632 65.9078 252.524 66.1838 252.308C66.4718 252.08 66.6158 251.768 66.6158 251.372C66.6158 251.072 66.5138 250.82 66.3098 250.616C66.1178 250.4 65.7758 250.262 65.2838 250.202L64.4198 250.094C63.4598 249.974 62.7038 249.698 62.1518 249.266C61.6118 248.822 61.3418 248.168 61.3418 247.304C61.3418 246.848 61.4258 246.446 61.5938 246.098C61.7618 245.738 61.9958 245.438 62.2958 245.198C62.6078 244.946 62.9738 244.754 63.3938 244.622C63.8258 244.49 64.2998 244.424 64.8158 244.424C65.6558 244.424 66.3398 244.556 66.8678 244.82C67.4078 245.084 67.8878 245.45 68.3078 245.918L67.1018 247.07C66.8618 246.782 66.5438 246.536 66.1478 246.332C65.7638 246.116 65.3198 246.008 64.8158 246.008C64.2758 246.008 63.8738 246.116 63.6098 246.332C63.3578 246.548 63.2318 246.83 63.2318 247.178C63.2318 247.538 63.3458 247.808 63.5738 247.988C63.8018 248.168 64.1678 248.3 64.6718 248.384L65.5358 248.492C66.5678 248.648 67.3178 248.954 67.7858 249.41C68.2658 249.854 68.5058 250.454 68.5058 251.21C68.5058 251.666 68.4158 252.08 68.2358 252.452C68.0678 252.812 67.8218 253.124 67.4978 253.388C67.1738 253.652 66.7838 253.856 66.3278 254C65.8718 254.144 65.3618 254.216 64.7978 254.216ZM73.1913 254C72.5073 254 71.9913 253.826 71.6433 253.478C71.2953 253.118 71.1213 252.614 71.1213 251.966V246.242H69.6633V244.64H70.4553C70.7793 244.64 71.0013 244.568 71.1213 244.424C71.2533 244.28 71.3193 244.046 71.3193 243.722V242.084H73.0833V244.64H75.0453V246.242H73.0833V252.398H74.9013V254H73.1913ZM80.7752 254.216C80.1032 254.216 79.5032 254.102 78.9752 253.874C78.4472 253.646 77.9972 253.322 77.6252 252.902C77.2532 252.47 76.9652 251.954 76.7612 251.354C76.5692 250.742 76.4732 250.064 76.4732 249.32C76.4732 248.576 76.5692 247.904 76.7612 247.304C76.9652 246.692 77.2532 246.176 77.6252 245.756C77.9972 245.324 78.4472 244.994 78.9752 244.766C79.5032 244.538 80.1032 244.424 80.7752 244.424C81.4592 244.424 82.0592 244.544 82.5752 244.784C83.1032 245.024 83.5412 245.36 83.8892 245.792C84.2372 246.212 84.4952 246.704 84.6632 247.268C84.8432 247.832 84.9332 248.438 84.9332 249.086V249.824H78.5072V250.13C78.5072 250.85 78.7172 251.444 79.1372 251.912C79.5692 252.368 80.1812 252.596 80.9732 252.596C81.5492 252.596 82.0352 252.47 82.4312 252.218C82.8272 251.966 83.1632 251.624 83.4392 251.192L84.5912 252.326C84.2432 252.902 83.7392 253.364 83.0792 253.712C82.4192 254.048 81.6512 254.216 80.7752 254.216ZM80.7752 245.954C80.4392 245.954 80.1272 246.014 79.8392 246.134C79.5632 246.254 79.3232 246.422 79.1192 246.638C78.9272 246.854 78.7772 247.112 78.6692 247.412C78.5612 247.712 78.5072 248.042 78.5072 248.402V248.528H82.8632V248.348C82.8632 247.628 82.6772 247.052 82.3052 246.62C81.9332 246.176 81.4232 245.954 80.7752 245.954Z" fill="white"/>
<rect x="17" y="229" width="84" height="38.0001" rx="3" stroke="#3C5C22" stroke-width="2"/>
<rect width="205" height="20" transform="translate(16 80)" fill="#DCDCDC"/>
<rect width="205" height="20" transform="translate(16 132)" fill="#DCDCDC"/>
<rect width="205" height="20" transform="translate(16 184)" fill="#DCDCDC"/>
<rect width="118" height="12" transform="translate(16 64)" fill="#DCDCDC"/>
<rect width="118" height="12" transform="translate(16 116)" fill="#DCDCDC"/>
<rect width="118" height="12" transform="translate(16 168)" fill="#DCDCDC"/>
<path d="M49.248 25.016V35H47.904V25.016H44.352V23.832H52.8V25.016H49.248ZM55.1562 24.808C54.8789 24.808 54.6763 24.744 54.5483 24.616C54.4309 24.4773 54.3723 24.3013 54.3723 24.088V23.88C54.3723 23.6667 54.4309 23.496 54.5483 23.368C54.6763 23.2293 54.8789 23.16 55.1562 23.16C55.4336 23.16 55.6309 23.2293 55.7483 23.368C55.8763 23.496 55.9403 23.6667 55.9403 23.88V24.088C55.9403 24.3013 55.8763 24.4773 55.7483 24.616C55.6309 24.744 55.4336 24.808 55.1562 24.808ZM54.5163 26.744H55.7963V35H54.5163V26.744ZM59.8763 35C59.4283 35 59.0869 34.8773 58.8523 34.632C58.6283 34.376 58.5163 34.056 58.5163 33.672V23.16H59.7963V33.88H61.0123V35H59.8763ZM62.8756 23.16H64.1556V28.088H64.2196C64.433 27.5653 64.7423 27.1813 65.1476 26.936C65.5636 26.68 66.0596 26.552 66.6356 26.552C67.1476 26.552 67.6116 26.6533 68.0276 26.856C68.4436 27.0587 68.7956 27.3467 69.0836 27.72C69.3823 28.0933 69.6063 28.5467 69.7556 29.08C69.9156 29.6133 69.9956 30.2107 69.9956 30.872C69.9956 31.5333 69.9156 32.1307 69.7556 32.664C69.6063 33.1973 69.3823 33.6507 69.0836 34.024C68.7956 34.3973 68.4436 34.6853 68.0276 34.888C67.6116 35.0907 67.1476 35.192 66.6356 35.192C65.5156 35.192 64.7103 34.68 64.2196 33.656H64.1556V35H62.8756V23.16ZM66.2836 34.04C67.009 34.04 67.5796 33.816 67.9956 33.368C68.4116 32.9093 68.6196 32.312 68.6196 31.576V30.168C68.6196 29.432 68.4116 28.84 67.9956 28.392C67.5796 27.9333 67.009 27.704 66.2836 27.704C65.9956 27.704 65.7183 27.7467 65.4516 27.832C65.1956 27.9067 64.9716 28.0133 64.7796 28.152C64.5876 28.2907 64.433 28.4613 64.3156 28.664C64.209 28.856 64.1556 29.064 64.1556 29.288V32.36C64.1556 32.6267 64.209 32.8667 64.3156 33.08C64.433 33.2827 64.5876 33.4587 64.7796 33.608C64.9716 33.7467 65.1956 33.8533 65.4516 33.928C65.7183 34.0027 65.9956 34.04 66.2836 34.04ZM78.1569 35C77.6769 35 77.3302 34.872 77.1169 34.616C76.9142 34.36 76.7862 34.04 76.7329 33.656H76.6529C76.4715 34.168 76.1729 34.552 75.7569 34.808C75.3409 35.064 74.8449 35.192 74.2689 35.192C73.3942 35.192 72.7115 34.968 72.2209 34.52C71.7409 34.072 71.5009 33.464 71.5009 32.696C71.5009 31.9173 71.7835 31.32 72.3489 30.904C72.9249 30.488 73.8155 30.28 75.0209 30.28H76.6529V29.464C76.6529 28.8773 76.4929 28.4293 76.1729 28.12C75.8529 27.8107 75.3622 27.656 74.7009 27.656C74.1995 27.656 73.7782 27.768 73.4369 27.992C73.1062 28.216 72.8289 28.5147 72.6049 28.888L71.8369 28.168C72.0609 27.72 72.4182 27.3413 72.9089 27.032C73.3995 26.712 74.0182 26.552 74.7649 26.552C75.7675 26.552 76.5462 26.7973 77.1009 27.288C77.6555 27.7787 77.9329 28.4613 77.9329 29.336V33.88H78.8769V35H78.1569ZM74.4769 34.104C74.7969 34.104 75.0902 34.0667 75.3569 33.992C75.6235 33.9173 75.8529 33.8107 76.0449 33.672C76.2369 33.5333 76.3862 33.3733 76.4929 33.192C76.5995 33.0107 76.6529 32.8133 76.6529 32.6V31.24H74.9569C74.2209 31.24 73.6822 31.3467 73.3409 31.56C73.0102 31.7733 72.8449 32.0827 72.8449 32.488V32.824C72.8449 33.2293 72.9889 33.544 73.2769 33.768C73.5755 33.992 73.9755 34.104 74.4769 34.104ZM87.6638 35.912C87.6638 36.7653 87.3278 37.3893 86.6558 37.784C85.9944 38.1893 84.9971 38.392 83.6638 38.392C82.3731 38.392 81.4451 38.216 80.8798 37.864C80.3144 37.512 80.0318 37.0107 80.0318 36.36C80.0318 35.912 80.1491 35.56 80.3838 35.304C80.6184 35.0587 80.9384 34.8773 81.3438 34.76V34.584C80.8531 34.3493 80.6078 33.9653 80.6078 33.432C80.6078 33.016 80.7411 32.7013 81.0078 32.488C81.2744 32.264 81.6158 32.0987 82.0318 31.992V31.928C81.5411 31.6933 81.1571 31.3573 80.8798 30.92C80.6131 30.4827 80.4798 29.976 80.4798 29.4C80.4798 28.984 80.5544 28.6 80.7038 28.248C80.8531 27.896 81.0611 27.5973 81.3278 27.352C81.6051 27.096 81.9304 26.8987 82.3038 26.76C82.6878 26.6213 83.1144 26.552 83.5838 26.552C84.1704 26.552 84.6931 26.6587 85.1518 26.872V26.728C85.1518 26.408 85.2264 26.1467 85.3758 25.944C85.5251 25.7307 85.7704 25.624 86.1118 25.624H87.3438V26.744H85.7758V27.272C86.0744 27.528 86.3038 27.8373 86.4638 28.2C86.6344 28.552 86.7198 28.952 86.7198 29.4C86.7198 29.816 86.6451 30.2 86.4958 30.552C86.3464 30.904 86.1331 31.208 85.8558 31.464C85.5891 31.7093 85.2638 31.9013 84.8798 32.04C84.4958 32.1787 84.0691 32.248 83.5998 32.248C83.3331 32.248 83.0664 32.2213 82.7998 32.168C82.5224 32.2427 82.2718 32.3547 82.0478 32.504C81.8238 32.6427 81.7118 32.84 81.7118 33.096C81.7118 33.3413 81.8291 33.5067 82.0638 33.592C82.2984 33.6773 82.6024 33.72 82.9758 33.72H84.7358C85.7598 33.72 86.5011 33.9173 86.9598 34.312C87.4291 34.696 87.6638 35.2293 87.6638 35.912ZM86.4638 36.008C86.4638 35.6773 86.3358 35.4107 86.0798 35.208C85.8344 35.016 85.3918 34.92 84.7518 34.92H81.9998C81.4878 35.1547 81.2318 35.528 81.2318 36.04C81.2318 36.4027 81.3651 36.712 81.6318 36.968C81.9091 37.224 82.3731 37.352 83.0238 37.352H84.2078C84.9224 37.352 85.4771 37.24 85.8718 37.016C86.2664 36.792 86.4638 36.456 86.4638 36.008ZM83.5998 31.224C84.1438 31.224 84.5758 31.096 84.8958 30.84C85.2158 30.5733 85.3758 30.168 85.3758 29.624V29.176C85.3758 28.632 85.2158 28.232 84.8958 27.976C84.5758 27.7093 84.1438 27.576 83.5998 27.576C83.0558 27.576 82.6238 27.7093 82.3038 27.976C81.9838 28.232 81.8238 28.632 81.8238 29.176V29.624C81.8238 30.168 81.9838 30.5733 82.3038 30.84C82.6238 31.096 83.0558 31.224 83.5998 31.224ZM92.1671 35.192C91.6018 35.192 91.0898 35.0907 90.6311 34.888C90.1831 34.6853 89.7938 34.3973 89.4631 34.024C89.1431 33.64 88.8925 33.1867 88.7111 32.664C88.5405 32.1307 88.4551 31.5333 88.4551 30.872C88.4551 30.2213 88.5405 29.6293 88.7111 29.096C88.8925 28.5627 89.1431 28.1093 89.4631 27.736C89.7938 27.352 90.1831 27.0587 90.6311 26.856C91.0898 26.6533 91.6018 26.552 92.1671 26.552C92.7218 26.552 93.2178 26.6533 93.6551 26.856C94.0925 27.0587 94.4658 27.3413 94.7751 27.704C95.0845 28.056 95.3191 28.4773 95.4791 28.968C95.6498 29.4587 95.7351 29.9973 95.7351 30.584V31.192H89.7991V31.576C89.7991 31.928 89.8525 32.2587 89.9591 32.568C90.0765 32.8667 90.2365 33.128 90.4391 33.352C90.6525 33.576 90.9085 33.752 91.2071 33.88C91.5165 34.008 91.8631 34.072 92.2471 34.072C92.7698 34.072 93.2231 33.9493 93.6071 33.704C94.0018 33.4587 94.3058 33.1067 94.5191 32.648L95.4311 33.304C95.1645 33.8693 94.7485 34.328 94.1831 34.68C93.6178 35.0213 92.9458 35.192 92.1671 35.192ZM92.1671 27.624C91.8151 27.624 91.4951 27.688 91.2071 27.816C90.9191 27.9333 90.6685 28.104 90.4551 28.328C90.2525 28.552 90.0925 28.8187 89.9751 29.128C89.8578 29.4267 89.7991 29.7573 89.7991 30.12V30.232H94.3591V30.056C94.3591 29.32 94.1565 28.7333 93.7511 28.296C93.3565 27.848 92.8285 27.624 92.1671 27.624Z" fill="#1A1A1A"/>
<path d="M44 37H96.4871V37.96H44V37Z" fill="#1A1A1A"/>
<path d="M30 27L25 32L30 37V27Z" fill="#1A1A1A"/>
</svg>
