<svg width="418" height="395" viewBox="0 0 418 395" fill="none" xmlns="http://www.w3.org/2000/svg">
<rect width="418" height="395" fill="white"/>
<line y1="310.5" x2="418" y2="310.5" stroke="#BFBFBF"/>
<line y1="55.5" x2="418" y2="55.5" stroke="#BFBFBF"/>
<path d="M16 76C16 73.7909 17.7909 72 20 72H398C400.209 72 402 73.7909 402 76V187C402 189.209 400.209 191 398 191H20C17.7909 191 16 189.209 16 187V76Z" fill="#DCDCDC"/>
<path d="M16 211C16 208.791 17.7909 207 20 207H197C199.209 207 201 208.791 201 211V283C201 285.209 199.209 287 197 287H20C17.7909 287 16 285.209 16 283V211Z" fill="#DCDCDC"/>
<path d="M16 211C16 208.791 17.7909 207 20 207H197C199.209 207 201 208.791 201 211V283C201 285.209 199.209 287 197 287H20C17.7909 287 16 285.209 16 283V211Z" fill="#DCDCDC"/>
<path d="M16 351C16 348.791 17.7909 347 20 347H130C132.209 347 134 348.791 134 351V355C134 357.209 132.209 359 130 359H20C17.7909 359 16 357.209 16 355V351Z" fill="#DCDCDC"/>
<path d="M150 351C150 348.791 151.791 347 154 347H264C266.209 347 268 348.791 268 351V355C268 357.209 266.209 359 264 359H154C151.791 359 150 357.209 150 355V351Z" fill="#DCDCDC"/>
<path d="M284 351C284 348.791 285.791 347 288 347H398C400.209 347 402 348.791 402 351V355C402 357.209 400.209 359 398 359H288C285.791 359 284 357.209 284 355V351Z" fill="#DCDCDC"/>
<path d="M16 371C16 368.791 17.7909 367 20 367H130C132.209 367 134 368.791 134 371V375C134 377.209 132.209 379 130 379H20C17.7909 379 16 377.209 16 375V371Z" fill="#DCDCDC"/>
<path d="M150 371C150 368.791 151.791 367 154 367H264C266.209 367 268 368.791 268 371V375C268 377.209 266.209 379 264 379H154C151.791 379 150 377.209 150 375V371Z" fill="#DCDCDC"/>
<path d="M284 371C284 368.791 285.791 367 288 367H398C400.209 367 402 368.791 402 371V375C402 377.209 400.209 379 398 379H288C285.791 379 284 377.209 284 375V371Z" fill="#DCDCDC"/>
<path d="M217 211C217 208.791 218.791 207 221 207H398C400.209 207 402 208.791 402 211V283C402 285.209 400.209 287 398 287H221C218.791 287 217 285.209 217 283V211Z" fill="#DCDCDC"/>
<path d="M16 331C16 328.791 17.7909 327 20 327H76C78.2091 327 80 328.791 80 331V335C80 337.209 78.2091 339 76 339H20C17.7909 339 16 337.209 16 335V331Z" fill="#DCDCDC"/>
<path d="M16 26C16 23.7909 17.7909 22 20 22H76C78.2091 22 80 23.7909 80 26V30C80 32.2091 78.2091 34 76 34H20C17.7909 34 16 32.2091 16 30V26Z" fill="#DCDCDC"/>
<path d="M88 26C88 23.7909 89.7909 22 92 22H148C150.209 22 152 23.7909 152 26V30C152 32.2091 150.209 34 148 34H92C89.7909 34 88 32.2091 88 30V26Z" fill="#DCDCDC"/>
<path d="M150 331C150 328.791 151.791 327 154 327H210C212.209 327 214 328.791 214 331V335C214 337.209 212.209 339 210 339H154C151.791 339 150 337.209 150 335V331Z" fill="#DCDCDC"/>
<path d="M284 331C284 328.791 285.791 327 288 327H344C346.209 327 348 328.791 348 331V335C348 337.209 346.209 339 344 339H288C285.791 339 284 337.209 284 335V331Z" fill="#DCDCDC"/>
<mask id="path-18-inside-1_14279_21209" fill="white">
<path d="M273 20C273 17.7909 274.791 16 277 16H370V40H277C274.791 40 273 38.2091 273 36V20Z"/>
</mask>
<path d="M273 20C273 17.7909 274.791 16 277 16H370V40H277C274.791 40 273 38.2091 273 36V20Z" fill="white"/>
<path d="M272 20C272 17.2386 274.239 15 277 15H370V17H277C275.343 17 274 18.3431 274 20H272ZM370 41H277C274.239 41 272 38.7614 272 36H274C274 37.6569 275.343 39 277 39H370V41ZM277 41C274.239 41 272 38.7614 272 36V20C272 17.2386 274.239 15 277 15V17C275.343 17 274 18.3431 274 20V36C274 37.6569 275.343 39 277 39V41ZM370 16V40V16Z" fill="#8E8E8E" mask="url(#path-18-inside-1_14279_21209)"/>
<path d="M370.5 16.5H398C399.933 16.5 401.5 18.067 401.5 20V36C401.5 37.933 399.933 39.5 398 39.5H370.5V16.5Z" fill="white"/>
<path d="M370.5 16.5H398C399.933 16.5 401.5 18.067 401.5 20V36C401.5 37.933 399.933 39.5 398 39.5H370.5V16.5Z" stroke="#8E8E8E"/>
<path d="M391.067 34L386.867 29.8C386.533 30.0667 386.15 30.2778 385.717 30.4333C385.283 30.5889 384.822 30.6667 384.333 30.6667C383.122 30.6667 382.097 30.2472 381.258 29.4083C380.419 28.5694 380 27.5444 380 26.3333C380 25.1222 380.419 24.0972 381.258 23.2583C382.097 22.4194 383.122 22 384.333 22C385.544 22 386.569 22.4194 387.408 23.2583C388.247 24.0972 388.667 25.1222 388.667 26.3333C388.667 26.8222 388.589 27.2833 388.433 27.7167C388.278 28.15 388.067 28.5333 387.8 28.8667L392 33.0667L391.067 34ZM384.333 29.3333C385.167 29.3333 385.875 29.0417 386.458 28.4583C387.042 27.875 387.333 27.1667 387.333 26.3333C387.333 25.5 387.042 24.7917 386.458 24.2083C385.875 23.625 385.167 23.3333 384.333 23.3333C383.5 23.3333 382.792 23.625 382.208 24.2083C381.625 24.7917 381.333 25.5 381.333 26.3333C381.333 27.1667 381.625 27.875 382.208 28.4583C382.792 29.0417 383.5 29.3333 384.333 29.3333Z" fill="#1A1A1A"/>
</svg>
