<svg width="418" height="274" viewBox="0 0 418 274" fill="none" xmlns="http://www.w3.org/2000/svg">
<g clip-path="url(#clip0_14279_21192)">
<rect width="418" height="274" fill="white"/>
<path d="M-68 92C-68 89.7909 -66.2091 88 -64 88H113C115.209 88 117 89.7909 117 92V164C117 166.209 115.209 168 113 168H-64C-66.2091 168 -68 166.209 -68 164V92Z" fill="#DCDCDC"/>
<path d="M133 92C133 89.7909 134.791 88 137 88H398C400.209 88 402 89.7909 402 92V164C402 166.209 400.209 168 398 168H137C134.791 168 133 166.209 133 164V92Z" fill="#DCDCDC"/>
<path d="M-60 206C-60 203.791 -58.2091 202 -56 202H398C400.209 202 402 203.791 402 206V218C402 220.209 400.209 222 398 222H-56C-58.2091 222 -60 220.209 -60 218V206Z" fill="#DCDCDC"/>
<path d="M-60 230C-60 227.791 -58.2091 226 -56 226H398C400.209 226 402 227.791 402 230V242C402 244.209 400.209 246 398 246H-56C-58.2091 246 -60 244.209 -60 242V230Z" fill="#DCDCDC"/>
<path d="M-60 254C-60 251.791 -58.2091 250 -56 250H281C283.209 250 285 251.791 285 254V266C285 268.209 283.209 270 281 270H-56C-58.2091 270 -60 268.209 -60 266V254Z" fill="#DCDCDC"/>
<path d="M-60 190C-60 187.791 -58.2091 186 -56 186H77C79.2091 186 81 187.791 81 190V194C81 196.209 79.2091 198 77 198H-56C-58.2091 198 -60 196.209 -60 194V190Z" fill="#DCDCDC"/>
<mask id="path-7-inside-1_14279_21192" fill="white">
<path d="M102 24C102 19.5817 105.582 16 110 16H342V56H110C105.582 56 102 52.4183 102 48V24Z"/>
</mask>
<path d="M102 24C102 19.5817 105.582 16 110 16H342V56H110C105.582 56 102 52.4183 102 48V24Z" fill="white"/>
<path d="M101 24C101 19.0294 105.029 15 110 15H342V17H110C106.134 17 103 20.134 103 24H101ZM342 57H110C105.029 57 101 52.9706 101 48H103C103 51.866 106.134 55 110 55H342V57ZM110 57C105.029 57 101 52.9706 101 48V24C101 19.0294 105.029 15 110 15V17C106.134 17 103 20.134 103 24V48C103 51.866 106.134 55 110 55V57ZM342 16V56V16Z" fill="#8E8E8E" mask="url(#path-7-inside-1_14279_21192)"/>
<path d="M342.5 16.5H394C398.142 16.5 401.5 19.8579 401.5 24V48C401.5 52.1421 398.142 55.5 394 55.5H342.5V16.5Z" fill="white"/>
<path d="M342.5 16.5H394C398.142 16.5 401.5 19.8579 401.5 24V48C401.5 52.1421 398.142 55.5 394 55.5H342.5V16.5Z" stroke="#8E8E8E"/>
<path d="M362.784 42.192C361.824 42.192 361.008 42.0213 360.336 41.68C359.675 41.3387 359.104 40.8907 358.624 40.336L360.048 38.96C360.432 39.408 360.859 39.7493 361.328 39.984C361.808 40.2187 362.336 40.336 362.912 40.336C363.563 40.336 364.053 40.1973 364.384 39.92C364.715 39.632 364.88 39.248 364.88 38.768C364.88 38.3947 364.773 38.0907 364.56 37.856C364.347 37.6213 363.947 37.4507 363.36 37.344L362.304 37.184C360.075 36.832 358.96 35.7493 358.96 33.936C358.96 33.4347 359.051 32.9813 359.232 32.576C359.424 32.1707 359.696 31.824 360.048 31.536C360.4 31.248 360.821 31.0293 361.312 30.88C361.813 30.72 362.379 30.64 363.008 30.64C363.851 30.64 364.587 30.7787 365.216 31.056C365.845 31.3333 366.384 31.744 366.832 32.288L365.392 33.648C365.115 33.3067 364.779 33.0293 364.384 32.816C363.989 32.6027 363.493 32.496 362.896 32.496C362.288 32.496 361.829 32.6133 361.52 32.848C361.221 33.072 361.072 33.392 361.072 33.808C361.072 34.2347 361.195 34.5493 361.44 34.752C361.685 34.9547 362.08 35.104 362.624 35.2L363.664 35.392C364.795 35.5947 365.627 35.9573 366.16 36.48C366.704 36.992 366.976 37.712 366.976 38.64C366.976 39.1733 366.88 39.6587 366.688 40.096C366.507 40.5227 366.235 40.896 365.872 41.216C365.52 41.5253 365.083 41.7653 364.56 41.936C364.048 42.1067 363.456 42.192 362.784 42.192ZM368.101 41.92L369.173 40.576C368.704 39.8507 368.469 38.928 368.469 37.808C368.469 37.136 368.56 36.5333 368.741 36C368.923 35.4667 369.179 35.0133 369.509 34.64C369.851 34.256 370.256 33.9627 370.725 33.76C371.205 33.5573 371.744 33.456 372.341 33.456C373.184 33.456 373.904 33.6587 374.501 34.064L375.477 32.896L376.597 33.728L375.509 35.072C375.744 35.4347 375.92 35.8507 376.037 36.32C376.165 36.7787 376.229 37.28 376.229 37.824C376.229 38.496 376.139 39.104 375.957 39.648C375.776 40.1813 375.515 40.64 375.173 41.024C374.843 41.3973 374.437 41.6853 373.957 41.888C373.477 42.0907 372.939 42.192 372.341 42.192C371.509 42.192 370.789 41.9947 370.181 41.6L369.221 42.752L368.101 41.92ZM372.341 40.64C372.896 40.64 373.333 40.4587 373.653 40.096C373.973 39.7227 374.133 39.2053 374.133 38.544V36.624L371.157 40.224C371.467 40.5013 371.861 40.64 372.341 40.64ZM370.581 38.976L373.525 35.424C373.216 35.1467 372.821 35.008 372.341 35.008C371.797 35.008 371.365 35.1947 371.045 35.568C370.736 35.9307 370.581 36.4427 370.581 37.104V38.976ZM385.642 42.704C385.642 43.1413 385.562 43.5253 385.402 43.856C385.253 44.1973 385.002 44.48 384.65 44.704C384.298 44.928 383.845 45.0987 383.29 45.216C382.735 45.3333 382.058 45.392 381.258 45.392C380.554 45.392 379.957 45.344 379.466 45.248C378.975 45.1627 378.57 45.0347 378.25 44.864C377.941 44.704 377.717 44.5013 377.578 44.256C377.439 44.0107 377.37 43.7333 377.37 43.424C377.37 42.9547 377.498 42.5867 377.754 42.32C378.021 42.064 378.389 41.8987 378.858 41.824V41.648C378.517 41.5627 378.25 41.3973 378.058 41.152C377.877 40.896 377.786 40.5973 377.786 40.256C377.786 40.0427 377.829 39.856 377.914 39.696C377.999 39.5253 378.111 39.3813 378.25 39.264C378.399 39.1467 378.565 39.0507 378.746 38.976C378.927 38.8907 379.119 38.8267 379.322 38.784V38.72C378.81 38.4853 378.426 38.16 378.17 37.744C377.925 37.328 377.802 36.8427 377.802 36.288C377.802 35.4347 378.095 34.752 378.682 34.24C379.269 33.7173 380.127 33.456 381.258 33.456C381.514 33.456 381.765 33.472 382.01 33.504C382.266 33.536 382.501 33.5893 382.714 33.664V33.392C382.714 32.5813 383.109 32.176 383.898 32.176H385.194V33.744H383.418V33.968C383.855 34.2133 384.181 34.5333 384.394 34.928C384.607 35.3227 384.714 35.776 384.714 36.288C384.714 37.1307 384.421 37.808 383.834 38.32C383.258 38.832 382.399 39.088 381.258 39.088C380.767 39.088 380.341 39.04 379.978 38.944C379.818 39.0187 379.679 39.12 379.562 39.248C379.445 39.3653 379.386 39.5147 379.386 39.696C379.386 40.112 379.749 40.32 380.474 40.32H382.714C383.738 40.32 384.479 40.5333 384.938 40.96C385.407 41.376 385.642 41.9573 385.642 42.704ZM383.722 42.944C383.722 42.6773 383.615 42.4693 383.402 42.32C383.189 42.1707 382.821 42.096 382.298 42.096H379.45C379.162 42.3093 379.018 42.5973 379.018 42.96C379.018 43.28 379.151 43.5307 379.418 43.712C379.685 43.8933 380.138 43.984 380.778 43.984H381.802C382.474 43.984 382.959 43.8987 383.258 43.728C383.567 43.5573 383.722 43.296 383.722 42.944ZM381.258 37.696C382.261 37.696 382.762 37.2693 382.762 36.416V36.144C382.762 35.2907 382.261 34.864 381.258 34.864C380.255 34.864 379.754 35.2907 379.754 36.144V36.416C379.754 37.2693 380.255 37.696 381.258 37.696Z" fill="#1A1A1A"/>
</g>
<defs>
<clipPath id="clip0_14279_21192">
<rect width="418" height="274" fill="white"/>
</clipPath>
</defs>
</svg>
