<svg width="418" height="395" viewBox="0 0 418 395" fill="none" xmlns="http://www.w3.org/2000/svg">
<g clip-path="url(#clip0_14279_20944)">
<rect width="418" height="395" fill="white"/>
<path d="M-68 92C-68 89.7909 -66.2091 88 -64 88H113C115.209 88 117 89.7909 117 92V267C117 269.209 115.209 271 113 271H-64C-66.2091 271 -68 269.209 -68 267V92Z" fill="#DCDCDC"/>
<path d="M133 92C133 89.7909 134.791 88 137 88H398C400.209 88 402 89.7909 402 92V267C402 269.209 400.209 271 398 271H137C134.791 271 133 269.209 133 267V92Z" fill="#DCDCDC"/>
<path d="M-60 315C-60 312.791 -58.2091 311 -56 311H398C400.209 311 402 312.791 402 315V327C402 329.209 400.209 331 398 331H-56C-58.2091 331 -60 329.209 -60 327V315Z" fill="#DCDCDC"/>
<path d="M-60 339C-60 336.791 -58.2091 335 -56 335H398C400.209 335 402 336.791 402 339V351C402 353.209 400.209 355 398 355H-56C-58.2091 355 -60 353.209 -60 351V339Z" fill="#DCDCDC"/>
<path d="M-60 363C-60 360.791 -58.2091 359 -56 359H281C283.209 359 285 360.791 285 363V375C285 377.209 283.209 379 281 379H-56C-58.2091 379 -60 377.209 -60 375V363Z" fill="#DCDCDC"/>
<path d="M-60 299C-60 296.791 -58.2091 295 -56 295H77C79.2091 295 81 296.791 81 299V303C81 305.209 79.2091 307 77 307H-56C-58.2091 307 -60 305.209 -60 303V299Z" fill="#DCDCDC"/>
<line y1="71.5" x2="418" y2="71.5" stroke="#BFBFBF"/>
<mask id="path-8-inside-1_14279_20944" fill="white">
<path d="M102 24C102 19.5817 105.582 16 110 16H346V56H110C105.582 56 102 52.4183 102 48V24Z"/>
</mask>
<path d="M102 24C102 19.5817 105.582 16 110 16H346V56H110C105.582 56 102 52.4183 102 48V24Z" fill="white"/>
<path d="M101 24C101 19.0294 105.029 15 110 15H346V17H110C106.134 17 103 20.134 103 24H101ZM346 57H110C105.029 57 101 52.9706 101 48H103C103 51.866 106.134 55 110 55H346V57ZM110 57C105.029 57 101 52.9706 101 48V24C101 19.0294 105.029 15 110 15V17C106.134 17 103 20.134 103 24V48C103 51.866 106.134 55 110 55V57ZM346 16V56V16Z" fill="#8E8E8E" mask="url(#path-8-inside-1_14279_20944)"/>
<path d="M122.624 42.192C121.717 42.192 120.944 42.0213 120.304 41.68C119.664 41.328 119.12 40.848 118.672 40.24L119.664 39.408C120.059 39.9307 120.496 40.3307 120.976 40.608C121.456 40.8747 122.021 41.008 122.672 41.008C123.472 41.008 124.08 40.816 124.496 40.432C124.923 40.048 125.136 39.536 125.136 38.896C125.136 38.3627 124.976 37.952 124.656 37.664C124.336 37.376 123.808 37.1467 123.072 36.976L122.16 36.768C121.136 36.5333 120.352 36.1813 119.808 35.712C119.275 35.232 119.008 34.56 119.008 33.696C119.008 33.2053 119.099 32.768 119.28 32.384C119.461 32 119.712 31.68 120.032 31.424C120.363 31.168 120.752 30.976 121.2 30.848C121.659 30.7093 122.16 30.64 122.704 30.64C123.547 30.64 124.267 30.7947 124.864 31.104C125.472 31.4133 125.984 31.8667 126.4 32.464L125.392 33.2C125.083 32.7733 124.709 32.4373 124.272 32.192C123.835 31.9467 123.291 31.824 122.64 31.824C121.925 31.824 121.36 31.9787 120.944 32.288C120.539 32.5867 120.336 33.04 120.336 33.648C120.336 34.1813 120.507 34.5867 120.848 34.864C121.2 35.1307 121.728 35.344 122.432 35.504L123.344 35.712C124.443 35.9573 125.237 36.3307 125.728 36.832C126.219 37.3333 126.464 38 126.464 38.832C126.464 39.344 126.373 39.808 126.192 40.224C126.021 40.64 125.771 40.992 125.44 41.28C125.109 41.568 124.704 41.792 124.224 41.952C123.755 42.112 123.221 42.192 122.624 42.192ZM127.857 42.096L128.929 40.752C128.385 39.9947 128.113 39.0347 128.113 37.872C128.113 37.2213 128.204 36.6293 128.385 36.096C128.566 35.5627 128.817 35.1093 129.137 34.736C129.468 34.352 129.862 34.0587 130.321 33.856C130.78 33.6533 131.286 33.552 131.841 33.552C132.289 33.552 132.7 33.6213 133.073 33.76C133.457 33.8987 133.804 34.0907 134.113 34.336L135.105 33.104L135.825 33.648L134.753 35.008C135.009 35.3707 135.206 35.7973 135.345 36.288C135.494 36.768 135.569 37.296 135.569 37.872C135.569 38.5333 135.478 39.1307 135.297 39.664C135.116 40.1867 134.86 40.64 134.529 41.024C134.198 41.3973 133.804 41.6853 133.345 41.888C132.897 42.0907 132.396 42.192 131.841 42.192C130.956 42.192 130.198 41.936 129.569 41.424L128.577 42.64L127.857 42.096ZM131.841 41.056C132.534 41.056 133.1 40.8427 133.537 40.416C133.974 39.9893 134.193 39.3387 134.193 38.464V37.28C134.193 37.024 134.172 36.7893 134.129 36.576C134.086 36.3627 134.028 36.1653 133.953 35.984L130.273 40.528C130.668 40.88 131.19 41.056 131.841 41.056ZM129.489 38.464C129.489 38.976 129.569 39.4133 129.729 39.776L133.409 35.216C132.993 34.864 132.47 34.688 131.841 34.688C131.148 34.688 130.582 34.9013 130.145 35.328C129.708 35.7547 129.489 36.4053 129.489 37.28V38.464ZM144.711 42.912C144.711 43.7653 144.375 44.3893 143.703 44.784C143.041 45.1893 142.044 45.392 140.711 45.392C139.42 45.392 138.492 45.216 137.927 44.864C137.361 44.512 137.079 44.0107 137.079 43.36C137.079 42.912 137.196 42.56 137.431 42.304C137.665 42.0587 137.985 41.8773 138.391 41.76V41.584C137.9 41.3493 137.655 40.9653 137.655 40.432C137.655 40.016 137.788 39.7013 138.055 39.488C138.321 39.264 138.663 39.0987 139.079 38.992V38.928C138.588 38.6933 138.204 38.3573 137.927 37.92C137.66 37.4827 137.527 36.976 137.527 36.4C137.527 35.984 137.601 35.6 137.751 35.248C137.9 34.896 138.108 34.5973 138.375 34.352C138.652 34.096 138.977 33.8987 139.351 33.76C139.735 33.6213 140.161 33.552 140.631 33.552C141.217 33.552 141.74 33.6587 142.199 33.872V33.728C142.199 33.408 142.273 33.1467 142.423 32.944C142.572 32.7307 142.817 32.624 143.159 32.624H144.391V33.744H142.823V34.272C143.121 34.528 143.351 34.8373 143.511 35.2C143.681 35.552 143.767 35.952 143.767 36.4C143.767 36.816 143.692 37.2 143.543 37.552C143.393 37.904 143.18 38.208 142.903 38.464C142.636 38.7093 142.311 38.9013 141.927 39.04C141.543 39.1787 141.116 39.248 140.647 39.248C140.38 39.248 140.113 39.2213 139.847 39.168C139.569 39.2427 139.319 39.3547 139.095 39.504C138.871 39.6427 138.759 39.84 138.759 40.096C138.759 40.3413 138.876 40.5067 139.111 40.592C139.345 40.6773 139.649 40.72 140.023 40.72H141.783C142.807 40.72 143.548 40.9173 144.007 41.312C144.476 41.696 144.711 42.2293 144.711 42.912ZM143.511 43.008C143.511 42.6773 143.383 42.4107 143.127 42.208C142.881 42.016 142.439 41.92 141.799 41.92H139.047C138.535 42.1547 138.279 42.528 138.279 43.04C138.279 43.4027 138.412 43.712 138.679 43.968C138.956 44.224 139.42 44.352 140.071 44.352H141.255C141.969 44.352 142.524 44.24 142.919 44.016C143.313 43.792 143.511 43.456 143.511 43.008ZM140.647 38.224C141.191 38.224 141.623 38.096 141.943 37.84C142.263 37.5733 142.423 37.168 142.423 36.624V36.176C142.423 35.632 142.263 35.232 141.943 34.976C141.623 34.7093 141.191 34.576 140.647 34.576C140.103 34.576 139.671 34.7093 139.351 34.976C139.031 35.232 138.871 35.632 138.871 36.176V36.624C138.871 37.168 139.031 37.5733 139.351 37.84C139.671 38.096 140.103 38.224 140.647 38.224ZM149.985 33.744H151.265V35.088H151.329C151.542 34.5653 151.852 34.1813 152.257 33.936C152.673 33.68 153.169 33.552 153.745 33.552C154.257 33.552 154.721 33.6533 155.137 33.856C155.553 34.0587 155.905 34.3467 156.193 34.72C156.492 35.0933 156.716 35.5467 156.865 36.08C157.025 36.6133 157.105 37.2107 157.105 37.872C157.105 38.5333 157.025 39.1307 156.865 39.664C156.716 40.1973 156.492 40.6507 156.193 41.024C155.905 41.3973 155.553 41.6853 155.137 41.888C154.721 42.0907 154.257 42.192 153.745 42.192C152.625 42.192 151.82 41.68 151.329 40.656H151.265V45.2H149.985V33.744ZM153.393 41.04C154.118 41.04 154.689 40.816 155.105 40.368C155.521 39.9093 155.729 39.312 155.729 38.576V37.168C155.729 36.432 155.521 35.84 155.105 35.392C154.689 34.9333 154.118 34.704 153.393 34.704C153.105 34.704 152.828 34.7467 152.561 34.832C152.305 34.9067 152.081 35.0133 151.889 35.152C151.697 35.2907 151.542 35.4613 151.425 35.664C151.318 35.856 151.265 36.064 151.265 36.288V39.36C151.265 39.6267 151.318 39.8667 151.425 40.08C151.542 40.2827 151.697 40.4587 151.889 40.608C152.081 40.7467 152.305 40.8533 152.561 40.928C152.828 41.0027 153.105 41.04 153.393 41.04ZM165.266 42C164.786 42 164.44 41.872 164.226 41.616C164.024 41.36 163.896 41.04 163.842 40.656H163.762C163.581 41.168 163.282 41.552 162.866 41.808C162.45 42.064 161.954 42.192 161.378 42.192C160.504 42.192 159.821 41.968 159.33 41.52C158.85 41.072 158.61 40.464 158.61 39.696C158.61 38.9173 158.893 38.32 159.458 37.904C160.034 37.488 160.925 37.28 162.13 37.28H163.762V36.464C163.762 35.8773 163.602 35.4293 163.282 35.12C162.962 34.8107 162.472 34.656 161.81 34.656C161.309 34.656 160.888 34.768 160.546 34.992C160.216 35.216 159.938 35.5147 159.714 35.888L158.946 35.168C159.17 34.72 159.528 34.3413 160.018 34.032C160.509 33.712 161.128 33.552 161.874 33.552C162.877 33.552 163.656 33.7973 164.21 34.288C164.765 34.7787 165.042 35.4613 165.042 36.336V40.88H165.986V42H165.266ZM161.586 41.104C161.906 41.104 162.2 41.0667 162.466 40.992C162.733 40.9173 162.962 40.8107 163.154 40.672C163.346 40.5333 163.496 40.3733 163.602 40.192C163.709 40.0107 163.762 39.8133 163.762 39.6V38.24H162.066C161.33 38.24 160.792 38.3467 160.45 38.56C160.12 38.7733 159.954 39.0827 159.954 39.488V39.824C159.954 40.2293 160.098 40.544 160.386 40.768C160.685 40.992 161.085 41.104 161.586 41.104ZM161.954 32.784C161.698 32.784 161.453 32.7413 161.218 32.656C160.994 32.56 160.797 32.432 160.626 32.272C160.466 32.1013 160.338 31.904 160.242 31.68C160.146 31.456 160.098 31.2107 160.098 30.944C160.098 30.6773 160.146 30.432 160.242 30.208C160.338 29.984 160.466 29.792 160.626 29.632C160.797 29.4613 160.994 29.3333 161.218 29.248C161.453 29.152 161.698 29.104 161.954 29.104C162.21 29.104 162.45 29.152 162.674 29.248C162.909 29.3333 163.106 29.4613 163.266 29.632C163.437 29.792 163.57 29.984 163.666 30.208C163.762 30.432 163.81 30.6773 163.81 30.944C163.81 31.2107 163.762 31.456 163.666 31.68C163.57 31.904 163.437 32.1013 163.266 32.272C163.106 32.432 162.909 32.56 162.674 32.656C162.45 32.7413 162.21 32.784 161.954 32.784ZM161.954 32C162.242 32 162.466 31.9253 162.626 31.776C162.797 31.616 162.882 31.3973 162.882 31.12V30.768C162.882 30.4907 162.797 30.2773 162.626 30.128C162.466 29.968 162.242 29.888 161.954 29.888C161.666 29.888 161.437 29.968 161.266 30.128C161.106 30.2773 161.026 30.4907 161.026 30.768V31.12C161.026 31.3973 161.106 31.616 161.266 31.776C161.437 31.9253 161.666 32 161.954 32ZM170.73 33.744H171.978L172.858 37.312L173.738 40.928H173.77L174.778 37.312L175.818 33.744H176.954L178.026 37.312L179.05 40.928H179.082L179.93 37.312L180.826 33.744H182.026L179.834 42H178.25L177.098 38.032L176.378 35.52H176.346L175.642 38.032L174.49 42H172.938L170.73 33.744ZM186.902 42.192C186.336 42.192 185.824 42.0907 185.366 41.888C184.918 41.6853 184.528 41.3973 184.198 41.024C183.878 40.64 183.627 40.1867 183.446 39.664C183.275 39.1307 183.19 38.5333 183.19 37.872C183.19 37.2213 183.275 36.6293 183.446 36.096C183.627 35.5627 183.878 35.1093 184.198 34.736C184.528 34.352 184.918 34.0587 185.366 33.856C185.824 33.6533 186.336 33.552 186.902 33.552C187.456 33.552 187.952 33.6533 188.39 33.856C188.827 34.0587 189.2 34.3413 189.51 34.704C189.819 35.056 190.054 35.4773 190.214 35.968C190.384 36.4587 190.47 36.9973 190.47 37.584V38.192H184.534V38.576C184.534 38.928 184.587 39.2587 184.694 39.568C184.811 39.8667 184.971 40.128 185.174 40.352C185.387 40.576 185.643 40.752 185.942 40.88C186.251 41.008 186.598 41.072 186.982 41.072C187.504 41.072 187.958 40.9493 188.342 40.704C188.736 40.4587 189.04 40.1067 189.254 39.648L190.166 40.304C189.899 40.8693 189.483 41.328 188.918 41.68C188.352 42.0213 187.68 42.192 186.902 42.192ZM186.902 34.624C186.55 34.624 186.23 34.688 185.942 34.816C185.654 34.9333 185.403 35.104 185.19 35.328C184.987 35.552 184.827 35.8187 184.71 36.128C184.592 36.4267 184.534 36.7573 184.534 37.12V37.232H189.094V37.056C189.094 36.32 188.891 35.7333 188.486 35.296C188.091 34.848 187.563 34.624 186.902 34.624ZM192.579 30.16H193.859V35.088H193.923C194.136 34.5653 194.445 34.1813 194.851 33.936C195.267 33.68 195.763 33.552 196.339 33.552C196.851 33.552 197.315 33.6533 197.731 33.856C198.147 34.0587 198.499 34.3467 198.787 34.72C199.085 35.0933 199.309 35.5467 199.459 36.08C199.619 36.6133 199.699 37.2107 199.699 37.872C199.699 38.5333 199.619 39.1307 199.459 39.664C199.309 40.1973 199.085 40.6507 198.787 41.024C198.499 41.3973 198.147 41.6853 197.731 41.888C197.315 42.0907 196.851 42.192 196.339 42.192C195.219 42.192 194.413 41.68 193.923 40.656H193.859V42H192.579V30.16ZM195.987 41.04C196.712 41.04 197.283 40.816 197.699 40.368C198.115 39.9093 198.323 39.312 198.323 38.576V37.168C198.323 36.432 198.115 35.84 197.699 35.392C197.283 34.9333 196.712 34.704 195.987 34.704C195.699 34.704 195.421 34.7467 195.155 34.832C194.899 34.9067 194.675 35.0133 194.483 35.152C194.291 35.2907 194.136 35.4613 194.019 35.664C193.912 35.856 193.859 36.064 193.859 36.288V39.36C193.859 39.6267 193.912 39.8667 194.019 40.08C194.136 40.2827 194.291 40.4587 194.483 40.608C194.675 40.7467 194.899 40.8533 195.155 40.928C195.421 41.0027 195.699 41.04 195.987 41.04ZM204.34 42.192C203.572 42.192 202.927 42.048 202.404 41.76C201.892 41.4613 201.449 41.0667 201.076 40.576L201.988 39.84C202.308 40.2453 202.665 40.56 203.06 40.784C203.455 40.9973 203.913 41.104 204.436 41.104C204.98 41.104 205.401 40.9867 205.7 40.752C206.009 40.5173 206.164 40.1867 206.164 39.76C206.164 39.44 206.057 39.168 205.844 38.944C205.641 38.7093 205.268 38.5493 204.724 38.464L204.068 38.368C203.684 38.3147 203.332 38.2347 203.012 38.128C202.692 38.0107 202.409 37.8613 202.164 37.68C201.929 37.488 201.743 37.2533 201.604 36.976C201.476 36.6987 201.412 36.368 201.412 35.984C201.412 35.5787 201.487 35.2267 201.636 34.928C201.785 34.6187 201.988 34.3627 202.244 34.16C202.511 33.9573 202.825 33.808 203.188 33.712C203.551 33.6053 203.94 33.552 204.356 33.552C205.028 33.552 205.588 33.6693 206.036 33.904C206.495 34.1387 206.895 34.464 207.236 34.88L206.388 35.648C206.207 35.392 205.94 35.1627 205.588 34.96C205.236 34.7467 204.793 34.64 204.26 34.64C203.727 34.64 203.321 34.7573 203.044 34.992C202.777 35.216 202.644 35.5253 202.644 35.92C202.644 36.3253 202.777 36.6187 203.044 36.8C203.321 36.9813 203.716 37.1147 204.228 37.2L204.868 37.296C205.785 37.4347 206.436 37.7013 206.82 38.096C207.204 38.48 207.396 38.9867 207.396 39.616C207.396 40.416 207.124 41.0453 206.58 41.504C206.036 41.9627 205.289 42.192 204.34 42.192ZM210.297 31.808C210.02 31.808 209.817 31.744 209.689 31.616C209.572 31.4773 209.513 31.3013 209.513 31.088V30.88C209.513 30.6667 209.572 30.496 209.689 30.368C209.817 30.2293 210.02 30.16 210.297 30.16C210.574 30.16 210.772 30.2293 210.889 30.368C211.017 30.496 211.081 30.6667 211.081 30.88V31.088C211.081 31.3013 211.017 31.4773 210.889 31.616C210.772 31.744 210.574 31.808 210.297 31.808ZM209.657 33.744H210.937V42H209.657V33.744ZM215.481 42C215.033 42 214.692 41.8773 214.457 41.632C214.233 41.376 214.121 41.0453 214.121 40.64V34.864H212.761V33.744H213.529C213.806 33.744 213.993 33.6907 214.089 33.584C214.196 33.4667 214.249 33.2693 214.249 32.992V31.456H215.401V33.744H217.209V34.864H215.401V40.88H217.081V42H215.481ZM222.308 42.192C221.742 42.192 221.23 42.0907 220.772 41.888C220.324 41.6853 219.934 41.3973 219.604 41.024C219.284 40.64 219.033 40.1867 218.852 39.664C218.681 39.1307 218.596 38.5333 218.596 37.872C218.596 37.2213 218.681 36.6293 218.852 36.096C219.033 35.5627 219.284 35.1093 219.604 34.736C219.934 34.352 220.324 34.0587 220.772 33.856C221.23 33.6533 221.742 33.552 222.308 33.552C222.862 33.552 223.358 33.6533 223.796 33.856C224.233 34.0587 224.606 34.3413 224.916 34.704C225.225 35.056 225.46 35.4773 225.62 35.968C225.79 36.4587 225.876 36.9973 225.876 37.584V38.192H219.94V38.576C219.94 38.928 219.993 39.2587 220.1 39.568C220.217 39.8667 220.377 40.128 220.58 40.352C220.793 40.576 221.049 40.752 221.348 40.88C221.657 41.008 222.004 41.072 222.388 41.072C222.91 41.072 223.364 40.9493 223.748 40.704C224.142 40.4587 224.446 40.1067 224.66 39.648L225.572 40.304C225.305 40.8693 224.889 41.328 224.324 41.68C223.758 42.0213 223.086 42.192 222.308 42.192ZM222.308 34.624C221.956 34.624 221.636 34.688 221.348 34.816C221.06 34.9333 220.809 35.104 220.596 35.328C220.393 35.552 220.233 35.8187 220.116 36.128C219.998 36.4267 219.94 36.7573 219.94 37.12V37.232H224.5V37.056C224.5 36.32 224.297 35.7333 223.892 35.296C223.497 34.848 222.969 34.624 222.308 34.624ZM229.809 42C229.361 42 229.02 41.8773 228.785 41.632C228.561 41.376 228.449 41.0453 228.449 40.64V34.864H227.089V33.744H227.857C228.134 33.744 228.321 33.6907 228.417 33.584C228.524 33.4667 228.577 33.2693 228.577 32.992V31.456H229.729V33.744H231.537V34.864H229.729V40.88H231.409V42H229.809Z" fill="#707070"/>
<path d="M346.5 16.5H394C398.142 16.5 401.5 19.8579 401.5 24V48C401.5 52.1421 398.142 55.5 394 55.5H346.5V16.5Z" fill="white"/>
<path d="M346.5 16.5H394C398.142 16.5 401.5 19.8579 401.5 24V48C401.5 52.1421 398.142 55.5 394 55.5H346.5V16.5Z" stroke="#8E8E8E"/>
<path d="M381.6 45L375.3 38.7C374.8 39.1 374.225 39.4167 373.575 39.65C372.925 39.8833 372.233 40 371.5 40C369.683 40 368.146 39.3708 366.888 38.1125C365.629 36.8542 365 35.3167 365 33.5C365 31.6833 365.629 30.1458 366.888 28.8875C368.146 27.6292 369.683 27 371.5 27C373.317 27 374.854 27.6292 376.113 28.8875C377.371 30.1458 378 31.6833 378 33.5C378 34.2333 377.883 34.925 377.65 35.575C377.417 36.225 377.1 36.8 376.7 37.3L383 43.6L381.6 45ZM371.5 38C372.75 38 373.812 37.5625 374.688 36.6875C375.562 35.8125 376 34.75 376 33.5C376 32.25 375.562 31.1875 374.688 30.3125C373.812 29.4375 372.75 29 371.5 29C370.25 29 369.188 29.4375 368.312 30.3125C367.438 31.1875 367 32.25 367 33.5C367 34.75 367.438 35.8125 368.312 36.6875C369.188 37.5625 370.25 38 371.5 38Z" fill="#1A1A1A"/>
</g>
<defs>
<clipPath id="clip0_14279_20944">
<rect width="418" height="395" fill="white"/>
</clipPath>
</defs>
</svg>
