<svg width="418" height="292" viewBox="0 0 418 292" fill="none" xmlns="http://www.w3.org/2000/svg">
<rect width="418" height="292" fill="white"/>
<path d="M23.176 41.288C21.736 41.288 20.512 41.032 19.504 40.52C18.512 40.008 17.656 39.336 16.936 38.504L19.072 36.44C19.648 37.112 20.288 37.624 20.992 37.976C21.712 38.328 22.504 38.504 23.368 38.504C24.344 38.504 25.08 38.296 25.576 37.88C26.072 37.448 26.32 36.872 26.32 36.152C26.32 35.592 26.16 35.136 25.84 34.784C25.52 34.432 24.92 34.176 24.04 34.016L22.456 33.776C19.112 33.248 17.44 31.624 17.44 28.904C17.44 28.152 17.576 27.472 17.848 26.864C18.136 26.256 18.544 25.736 19.072 25.304C19.6 24.872 20.232 24.544 20.968 24.32C21.72 24.08 22.568 23.96 23.512 23.96C24.776 23.96 25.88 24.168 26.824 24.584C27.768 25 28.576 25.616 29.248 26.432L27.088 28.472C26.672 27.96 26.168 27.544 25.576 27.224C24.984 26.904 24.24 26.744 23.344 26.744C22.432 26.744 21.744 26.92 21.28 27.272C20.832 27.608 20.608 28.088 20.608 28.712C20.608 29.352 20.792 29.824 21.16 30.128C21.528 30.432 22.12 30.656 22.936 30.8L24.496 31.088C26.192 31.392 27.44 31.936 28.24 32.72C29.056 33.488 29.464 34.568 29.464 35.96C29.464 36.76 29.32 37.488 29.032 38.144C28.76 38.784 28.352 39.344 27.808 39.824C27.28 40.288 26.624 40.648 25.84 40.904C25.072 41.16 24.184 41.288 23.176 41.288ZM32.4479 23.24H35.5199V33.944H35.6399L37.2959 31.688L40.1039 28.472H43.5839L39.2639 33.32L44.0399 41H40.3919L37.1759 35.384L35.5199 37.184V41H32.4479V23.24ZM45.9244 41V28.472H48.9964V31.064H49.1164C49.1964 30.728 49.3164 30.408 49.4764 30.104C49.6524 29.784 49.8764 29.504 50.1484 29.264C50.4204 29.024 50.7404 28.832 51.1084 28.688C51.4924 28.544 51.9324 28.472 52.4284 28.472H53.1004V31.376H52.1404C51.1004 31.376 50.3164 31.528 49.7884 31.832C49.2604 32.136 48.9964 32.632 48.9964 33.32V41H45.9244ZM56.8823 26.648C56.2423 26.648 55.7783 26.504 55.4903 26.216C55.2183 25.928 55.0823 25.56 55.0823 25.112V24.632C55.0823 24.184 55.2183 23.816 55.4903 23.528C55.7783 23.24 56.2423 23.096 56.8823 23.096C57.5063 23.096 57.9623 23.24 58.2503 23.528C58.5383 23.816 58.6823 24.184 58.6823 24.632V25.112C58.6823 25.56 58.5383 25.928 58.2503 26.216C57.9623 26.504 57.5063 26.648 56.8823 26.648ZM55.3463 28.472H58.4183V41H55.3463V28.472ZM64.6671 41L60.4911 28.472H63.5151L65.2671 33.872L66.4911 38.336H66.6591L67.8831 33.872L69.5871 28.472H72.5151L68.3151 41H64.6671ZM88.0129 38.912H87.8929C87.6689 39.632 87.2449 40.208 86.6209 40.64C85.9969 41.072 85.2689 41.288 84.4369 41.288C82.8529 41.288 81.6369 40.72 80.7889 39.584C79.9569 38.448 79.5409 36.824 79.5409 34.712C79.5409 32.616 79.9569 31.008 80.7889 29.888C81.6369 28.752 82.8529 28.184 84.4369 28.184C85.2689 28.184 85.9969 28.4 86.6209 28.832C87.2449 29.248 87.6689 29.816 87.8929 30.536H88.0129V23.24H91.0849V41H88.0129V38.912ZM85.4209 38.744C86.1569 38.744 86.7729 38.568 87.2689 38.216C87.7649 37.864 88.0129 37.36 88.0129 36.704V32.72C88.0129 32.112 87.7649 31.624 87.2689 31.256C86.7729 30.888 86.1569 30.704 85.4209 30.704C84.6209 30.704 83.9729 30.976 83.4769 31.52C82.9969 32.048 82.7569 32.76 82.7569 33.656V35.816C82.7569 36.712 82.9969 37.424 83.4769 37.952C83.9729 38.48 84.6209 38.744 85.4209 38.744ZM96.1636 26.648C95.5236 26.648 95.0596 26.504 94.7716 26.216C94.4996 25.928 94.3636 25.56 94.3636 25.112V24.632C94.3636 24.184 94.4996 23.816 94.7716 23.528C95.0596 23.24 95.5236 23.096 96.1636 23.096C96.7876 23.096 97.2436 23.24 97.5316 23.528C97.8196 23.816 97.9636 24.184 97.9636 24.632V25.112C97.9636 25.56 97.8196 25.928 97.5316 26.216C97.2436 26.504 96.7876 26.648 96.1636 26.648ZM94.6276 28.472H97.6996V41H94.6276V28.472ZM105.172 41C104.116 41 103.308 40.728 102.748 40.184C102.204 39.624 101.932 38.832 101.932 37.808V30.92H100.084V28.472H101.044C101.508 28.472 101.82 28.368 101.98 28.16C102.156 27.936 102.244 27.608 102.244 27.176V25.04H105.004V28.472H107.572V30.92H105.004V38.552H107.38V41H105.172ZM115.909 23.24H118.981V30.536H119.077C119.301 29.816 119.725 29.248 120.349 28.832C120.973 28.4 121.701 28.184 122.533 28.184C124.133 28.184 125.349 28.752 126.181 29.888C127.029 31.008 127.453 32.616 127.453 34.712C127.453 36.824 127.029 38.448 126.181 39.584C125.349 40.72 124.133 41.288 122.533 41.288C121.701 41.288 120.973 41.072 120.349 40.64C119.741 40.208 119.317 39.632 119.077 38.912H118.981V41H115.909V23.24ZM121.549 38.744C122.349 38.744 122.997 38.48 123.493 37.952C123.989 37.424 124.237 36.712 124.237 35.816V33.656C124.237 32.76 123.989 32.048 123.493 31.52C122.997 30.976 122.349 30.704 121.549 30.704C120.813 30.704 120.197 30.888 119.701 31.256C119.221 31.624 118.981 32.112 118.981 32.72V36.704C118.981 37.36 119.221 37.864 119.701 38.216C120.197 38.568 120.813 38.744 121.549 38.744ZM139.515 41C138.843 41 138.307 40.808 137.907 40.424C137.523 40.024 137.283 39.496 137.187 38.84H137.043C136.835 39.656 136.411 40.272 135.771 40.688C135.131 41.088 134.339 41.288 133.395 41.288C132.115 41.288 131.131 40.952 130.443 40.28C129.755 39.608 129.411 38.712 129.411 37.592C129.411 36.296 129.875 35.336 130.803 34.712C131.731 34.072 133.051 33.752 134.763 33.752H136.899V32.84C136.899 32.136 136.715 31.592 136.347 31.208C135.979 30.824 135.387 30.632 134.571 30.632C133.851 30.632 133.267 30.792 132.819 31.112C132.387 31.416 132.019 31.784 131.715 32.216L129.891 30.584C130.355 29.864 130.971 29.288 131.739 28.856C132.507 28.408 133.523 28.184 134.787 28.184C136.483 28.184 137.771 28.568 138.651 29.336C139.531 30.104 139.971 31.208 139.971 32.648V38.552H141.219V41H139.515ZM134.427 39.056C135.115 39.056 135.699 38.904 136.179 38.6C136.659 38.296 136.899 37.848 136.899 37.256V35.6H134.931C133.331 35.6 132.531 36.112 132.531 37.136V37.544C132.531 38.056 132.691 38.44 133.011 38.696C133.347 38.936 133.819 39.056 134.427 39.056ZM143.706 41V28.472H146.778V31.064H146.898C146.978 30.728 147.098 30.408 147.258 30.104C147.434 29.784 147.658 29.504 147.93 29.264C148.202 29.024 148.522 28.832 148.89 28.688C149.274 28.544 149.714 28.472 150.21 28.472H150.882V31.376H149.922C148.882 31.376 148.098 31.528 147.57 31.832C147.042 32.136 146.778 32.632 146.778 33.32V41H143.706ZM153.128 41V28.472H156.2V30.56H156.32C156.576 29.888 156.976 29.328 157.52 28.88C158.08 28.416 158.848 28.184 159.824 28.184C161.12 28.184 162.112 28.608 162.8 29.456C163.488 30.304 163.832 31.512 163.832 33.08V41H160.76V33.392C160.76 32.496 160.6 31.824 160.28 31.376C159.96 30.928 159.432 30.704 158.696 30.704C158.376 30.704 158.064 30.752 157.76 30.848C157.472 30.928 157.208 31.056 156.968 31.232C156.744 31.392 156.56 31.6 156.416 31.856C156.272 32.096 156.2 32.384 156.2 32.72V41H153.128ZM177.877 41.288C176.981 41.288 176.173 41.136 175.453 40.832C174.749 40.528 174.141 40.088 173.629 39.512C173.133 38.936 172.749 38.248 172.477 37.448C172.205 36.632 172.069 35.72 172.069 34.712C172.069 33.704 172.205 32.8 172.477 32C172.749 31.2 173.133 30.52 173.629 29.96C174.141 29.384 174.749 28.944 175.453 28.64C176.173 28.336 176.981 28.184 177.877 28.184C178.773 28.184 179.581 28.336 180.301 28.64C181.021 28.944 181.629 29.384 182.125 29.96C182.637 30.52 183.029 31.2 183.301 32C183.573 32.8 183.709 33.704 183.709 34.712C183.709 35.72 183.573 36.632 183.301 37.448C183.029 38.248 182.637 38.936 182.125 39.512C181.629 40.088 181.021 40.528 180.301 40.832C179.581 41.136 178.773 41.288 177.877 41.288ZM177.877 38.816C178.693 38.816 179.333 38.568 179.797 38.072C180.261 37.576 180.493 36.848 180.493 35.888V33.56C180.493 32.616 180.261 31.896 179.797 31.4C179.333 30.904 178.693 30.656 177.877 30.656C177.077 30.656 176.445 30.904 175.981 31.4C175.517 31.896 175.285 32.616 175.285 33.56V35.888C175.285 36.848 175.517 37.576 175.981 38.072C176.445 38.568 177.077 38.816 177.877 38.816ZM186.432 28.472H189.504V30.536H189.6C189.824 29.816 190.248 29.248 190.872 28.832C191.496 28.4 192.224 28.184 193.056 28.184C194.656 28.184 195.872 28.752 196.704 29.888C197.552 31.008 197.976 32.616 197.976 34.712C197.976 36.824 197.552 38.448 196.704 39.584C195.872 40.72 194.656 41.288 193.056 41.288C192.224 41.288 191.496 41.072 190.872 40.64C190.264 40.208 189.84 39.632 189.6 38.912H189.504V45.8H186.432V28.472ZM192.072 38.744C192.872 38.744 193.52 38.48 194.016 37.952C194.512 37.424 194.76 36.712 194.76 35.816V33.656C194.76 32.76 194.512 32.048 194.016 31.52C193.52 30.976 192.872 30.704 192.072 30.704C191.336 30.704 190.72 30.888 190.224 31.256C189.744 31.624 189.504 32.112 189.504 32.72V36.704C189.504 37.36 189.744 37.864 190.224 38.216C190.72 38.568 191.336 38.744 192.072 38.744ZM210.407 41C209.351 41 208.543 40.728 207.983 40.184C207.439 39.624 207.167 38.832 207.167 37.808V30.92H205.319V28.472H206.279C206.743 28.472 207.055 28.368 207.215 28.16C207.391 27.936 207.479 27.608 207.479 27.176V25.04H210.239V28.472H212.807V30.92H210.239V38.552H212.615V41H210.407ZM217.007 26.648C216.367 26.648 215.903 26.504 215.615 26.216C215.343 25.928 215.207 25.56 215.207 25.112V24.632C215.207 24.184 215.343 23.816 215.615 23.528C215.903 23.24 216.367 23.096 217.007 23.096C217.631 23.096 218.087 23.24 218.375 23.528C218.663 23.816 218.807 24.184 218.807 24.632V25.112C218.807 25.56 218.663 25.928 218.375 26.216C218.087 26.504 217.631 26.648 217.007 26.648ZM215.471 28.472H218.543V41H215.471V28.472ZM225.176 41C224.12 41 223.344 40.736 222.848 40.208C222.352 39.68 222.104 38.936 222.104 37.976V23.24H225.176V38.552H226.832V41H225.176ZM234.831 28.472H237.903V30.536H237.999C238.223 29.816 238.647 29.248 239.271 28.832C239.895 28.4 240.623 28.184 241.455 28.184C243.055 28.184 244.271 28.752 245.103 29.888C245.951 31.008 246.375 32.616 246.375 34.712C246.375 36.824 245.951 38.448 245.103 39.584C244.271 40.72 243.055 41.288 241.455 41.288C240.623 41.288 239.895 41.072 239.271 40.64C238.663 40.208 238.239 39.632 237.999 38.912H237.903V45.8H234.831V28.472ZM240.471 38.744C241.271 38.744 241.919 38.48 242.415 37.952C242.911 37.424 243.159 36.712 243.159 35.816V33.656C243.159 32.76 242.911 32.048 242.415 31.52C241.919 30.976 241.271 30.704 240.471 30.704C239.735 30.704 239.119 30.888 238.623 31.256C238.143 31.624 237.903 32.112 237.903 32.72V36.704C237.903 37.36 238.143 37.864 238.623 38.216C239.119 38.568 239.735 38.744 240.471 38.744ZM258.437 41C257.765 41 257.229 40.808 256.829 40.424C256.445 40.024 256.205 39.496 256.109 38.84H255.965C255.757 39.656 255.333 40.272 254.693 40.688C254.053 41.088 253.261 41.288 252.317 41.288C251.037 41.288 250.053 40.952 249.365 40.28C248.677 39.608 248.333 38.712 248.333 37.592C248.333 36.296 248.797 35.336 249.725 34.712C250.653 34.072 251.973 33.752 253.685 33.752H255.821V32.84C255.821 32.136 255.637 31.592 255.269 31.208C254.901 30.824 254.309 30.632 253.493 30.632C252.773 30.632 252.189 30.792 251.741 31.112C251.309 31.416 250.941 31.784 250.637 32.216L248.813 30.584C249.277 29.864 249.893 29.288 250.661 28.856C251.429 28.408 252.445 28.184 253.709 28.184C255.405 28.184 256.693 28.568 257.573 29.336C258.453 30.104 258.893 31.208 258.893 32.648V38.552H260.141V41H258.437ZM253.349 39.056C254.037 39.056 254.621 38.904 255.101 38.6C255.581 38.296 255.821 37.848 255.821 37.256V35.6H253.853C252.253 35.6 251.453 36.112 251.453 37.136V37.544C251.453 38.056 251.613 38.44 251.933 38.696C252.269 38.936 252.741 39.056 253.349 39.056ZM266.732 41.288C265.532 41.288 264.524 41.088 263.708 40.688C262.892 40.272 262.172 39.704 261.548 38.984L263.42 37.16C263.884 37.688 264.388 38.104 264.932 38.408C265.492 38.712 266.132 38.864 266.852 38.864C267.588 38.864 268.116 38.736 268.436 38.48C268.772 38.224 268.94 37.872 268.94 37.424C268.94 37.056 268.82 36.768 268.58 36.56C268.356 36.336 267.964 36.184 267.404 36.104L266.156 35.936C264.796 35.76 263.756 35.376 263.036 34.784C262.332 34.176 261.98 33.296 261.98 32.144C261.98 31.536 262.092 30.992 262.316 30.512C262.54 30.016 262.86 29.6 263.276 29.264C263.692 28.912 264.188 28.648 264.764 28.472C265.356 28.28 266.012 28.184 266.732 28.184C267.34 28.184 267.876 28.232 268.34 28.328C268.82 28.408 269.252 28.536 269.636 28.712C270.02 28.872 270.372 29.08 270.692 29.336C271.012 29.576 271.324 29.848 271.628 30.152L269.828 31.952C269.46 31.568 269.02 31.248 268.508 30.992C267.996 30.736 267.436 30.608 266.828 30.608C266.156 30.608 265.668 30.728 265.364 30.968C265.076 31.208 264.932 31.52 264.932 31.904C264.932 32.32 265.052 32.64 265.292 32.864C265.548 33.072 265.972 33.224 266.564 33.32L267.836 33.488C270.54 33.872 271.892 35.104 271.892 37.184C271.892 37.792 271.764 38.352 271.508 38.864C271.268 39.36 270.924 39.792 270.476 40.16C270.028 40.512 269.484 40.792 268.844 41C268.22 41.192 267.516 41.288 266.732 41.288ZM274.604 41V28.472H277.676V30.56H277.796C278.052 29.888 278.452 29.328 278.996 28.88C279.556 28.416 280.324 28.184 281.3 28.184C282.596 28.184 283.588 28.608 284.276 29.456C284.964 30.304 285.308 31.512 285.308 33.08V41H282.236V33.392C282.236 32.496 282.076 31.824 281.756 31.376C281.436 30.928 280.908 30.704 280.172 30.704C279.852 30.704 279.54 30.752 279.236 30.848C278.948 30.928 278.684 31.056 278.444 31.232C278.22 31.392 278.036 31.6 277.892 31.856C277.748 32.096 277.676 32.384 277.676 32.72V41H274.604ZM290.25 26.648C289.61 26.648 289.146 26.504 288.858 26.216C288.586 25.928 288.45 25.56 288.45 25.112V24.632C288.45 24.184 288.586 23.816 288.858 23.528C289.146 23.24 289.61 23.096 290.25 23.096C290.874 23.096 291.33 23.24 291.618 23.528C291.906 23.816 292.05 24.184 292.05 24.632V25.112C292.05 25.56 291.906 25.928 291.618 26.216C291.33 26.504 290.874 26.648 290.25 26.648ZM288.714 28.472H291.786V41H288.714V28.472ZM295.346 41V28.472H298.418V30.56H298.538C298.794 29.888 299.194 29.328 299.738 28.88C300.298 28.416 301.066 28.184 302.042 28.184C303.338 28.184 304.33 28.608 305.018 29.456C305.706 30.304 306.05 31.512 306.05 33.08V41H302.978V33.392C302.978 32.496 302.818 31.824 302.498 31.376C302.178 30.928 301.65 30.704 300.914 30.704C300.594 30.704 300.282 30.752 299.978 30.848C299.69 30.928 299.426 31.056 299.186 31.232C298.962 31.392 298.778 31.6 298.634 31.856C298.49 32.096 298.418 32.384 298.418 32.72V41H295.346ZM320.76 42.056C320.76 42.712 320.64 43.288 320.4 43.784C320.176 44.296 319.8 44.72 319.272 45.056C318.744 45.392 318.064 45.648 317.232 45.824C316.4 46 315.384 46.088 314.184 46.088C313.128 46.088 312.232 46.016 311.496 45.872C310.76 45.744 310.152 45.552 309.672 45.296C309.208 45.056 308.872 44.752 308.664 44.384C308.456 44.016 308.352 43.6 308.352 43.136C308.352 42.432 308.544 41.88 308.928 41.48C309.328 41.096 309.88 40.848 310.584 40.736V40.472C310.072 40.344 309.672 40.096 309.384 39.728C309.112 39.344 308.976 38.896 308.976 38.384C308.976 38.064 309.04 37.784 309.168 37.544C309.296 37.288 309.464 37.072 309.672 36.896C309.896 36.72 310.144 36.576 310.416 36.464C310.688 36.336 310.976 36.24 311.28 36.176V36.08C310.512 35.728 309.936 35.24 309.552 34.616C309.184 33.992 309 33.264 309 32.432C309 31.152 309.44 30.128 310.32 29.36C311.2 28.576 312.488 28.184 314.184 28.184C314.568 28.184 314.944 28.208 315.312 28.256C315.696 28.304 316.048 28.384 316.368 28.496V28.088C316.368 26.872 316.96 26.264 318.144 26.264H320.088V28.616H317.424V28.952C318.08 29.32 318.568 29.8 318.888 30.392C319.208 30.984 319.368 31.664 319.368 32.432C319.368 33.696 318.928 34.712 318.048 35.48C317.184 36.248 315.896 36.632 314.184 36.632C313.448 36.632 312.808 36.56 312.264 36.416C312.024 36.528 311.816 36.68 311.64 36.872C311.464 37.048 311.376 37.272 311.376 37.544C311.376 38.168 311.92 38.48 313.008 38.48H316.368C317.904 38.48 319.016 38.8 319.704 39.44C320.408 40.064 320.76 40.936 320.76 42.056ZM317.88 42.416C317.88 42.016 317.72 41.704 317.4 41.48C317.08 41.256 316.528 41.144 315.744 41.144H311.472C311.04 41.464 310.824 41.896 310.824 42.44C310.824 42.92 311.024 43.296 311.424 43.568C311.824 43.84 312.504 43.976 313.464 43.976H315C316.008 43.976 316.736 43.848 317.184 43.592C317.648 43.336 317.88 42.944 317.88 42.416ZM314.184 34.544C315.688 34.544 316.44 33.904 316.44 32.624V32.216C316.44 30.936 315.688 30.296 314.184 30.296C312.68 30.296 311.928 30.936 311.928 32.216V32.624C311.928 33.904 312.68 34.544 314.184 34.544Z" fill="#1A1A1A"/>
<path d="M16 244C16 239.582 19.5817 236 24 236H89C93.4183 236 97 239.582 97 244V268C97 272.418 93.4183 276 89 276H24C19.5817 276 16 272.418 16 268V244Z" fill="#0059B3"/>
<path d="M36.512 256.272L35.36 253.952H35.312V262H33.312V250.832H35.632L38.992 256.56L40.144 258.88H40.192V250.832H42.192V262H39.872L36.512 256.272ZM47.772 258.336C47.26 258.347 46.8653 258.443 46.588 258.624C46.3107 258.795 46.172 259.051 46.172 259.392V259.648C46.172 259.989 46.2787 260.251 46.492 260.432C46.7053 260.613 47.0253 260.704 47.452 260.704C47.9 260.704 48.284 260.603 48.604 260.4C48.924 260.197 49.084 259.899 49.084 259.504V258.336H47.772ZM54.572 257.072V256.928C54.572 256.352 54.428 255.888 54.14 255.536C53.8627 255.173 53.4573 254.992 52.924 254.992C52.38 254.992 51.948 255.173 51.628 255.536C51.308 255.899 51.148 256.368 51.148 256.944V257.072H54.572ZM53.212 260.528C53.7133 260.528 54.1347 260.421 54.476 260.208C54.8173 259.995 55.1053 259.733 55.34 259.424L56.444 260.656C56.1027 261.136 55.6387 261.515 55.052 261.792C54.4653 262.059 53.7933 262.192 53.036 262.192C52.6307 262.192 52.252 262.144 51.9 262.048C51.548 261.952 51.2333 261.824 50.956 261.664C50.6893 261.504 50.46 261.323 50.268 261.12C50.076 260.917 49.932 260.704 49.836 260.48H49.74C49.6653 260.693 49.548 260.901 49.388 261.104C49.2387 261.307 49.0413 261.488 48.796 261.648C48.5507 261.808 48.2573 261.936 47.916 262.032C47.5853 262.139 47.196 262.192 46.748 262.192C45.9053 262.192 45.2493 261.963 44.78 261.504C44.3213 261.045 44.092 260.448 44.092 259.712C44.092 259.275 44.1773 258.891 44.348 258.56C44.5187 258.229 44.7587 257.957 45.068 257.744C45.3773 257.52 45.7507 257.355 46.188 257.248C46.6253 257.131 47.116 257.072 47.66 257.072H49.084V256.56C49.084 256.091 48.9613 255.728 48.716 255.472C48.4707 255.216 48.0813 255.088 47.548 255.088C47.0573 255.088 46.6627 255.189 46.364 255.392C46.076 255.595 45.8307 255.845 45.628 256.144L44.412 255.056C44.7213 254.576 45.132 254.192 45.644 253.904C46.156 253.605 46.8333 253.456 47.676 253.456C48.316 253.456 48.828 253.589 49.212 253.856C49.596 254.112 49.8947 254.437 50.108 254.832H50.204C50.4173 254.437 50.764 254.112 51.244 253.856C51.724 253.589 52.3 253.456 52.972 253.456C53.6227 253.456 54.1827 253.568 54.652 253.792C55.1213 254.016 55.5053 254.32 55.804 254.704C56.1133 255.088 56.3373 255.536 56.476 256.048C56.6253 256.549 56.7 257.088 56.7 257.664V258.336H51.132V258.544C51.132 259.141 51.3133 259.621 51.676 259.984C52.0387 260.347 52.5507 260.528 53.212 260.528ZM61.2481 262.192C60.4481 262.192 59.7761 262.059 59.2321 261.792C58.6881 261.515 58.2081 261.136 57.7921 260.656L59.0401 259.44C59.3495 259.792 59.6855 260.069 60.0481 260.272C60.4215 260.475 60.8481 260.576 61.3281 260.576C61.8188 260.576 62.1708 260.491 62.3841 260.32C62.6081 260.149 62.7201 259.915 62.7201 259.616C62.7201 259.371 62.6401 259.179 62.4801 259.04C62.3308 258.891 62.0695 258.789 61.6961 258.736L60.8641 258.624C59.9575 258.507 59.2641 258.251 58.7841 257.856C58.3148 257.451 58.0801 256.864 58.0801 256.096C58.0801 255.691 58.1548 255.328 58.3041 255.008C58.4535 254.677 58.6668 254.4 58.9441 254.176C59.2215 253.941 59.5521 253.765 59.9361 253.648C60.3308 253.52 60.7681 253.456 61.2481 253.456C61.6535 253.456 62.0108 253.488 62.3201 253.552C62.6401 253.605 62.9281 253.691 63.1841 253.808C63.4401 253.915 63.6748 254.053 63.8881 254.224C64.1015 254.384 64.3095 254.565 64.5121 254.768L63.3121 255.968C63.0668 255.712 62.7735 255.499 62.4321 255.328C62.0908 255.157 61.7175 255.072 61.3121 255.072C60.8641 255.072 60.5388 255.152 60.3361 255.312C60.1441 255.472 60.0481 255.68 60.0481 255.936C60.0481 256.213 60.1281 256.427 60.2881 256.576C60.4588 256.715 60.7415 256.816 61.1361 256.88L61.9841 256.992C63.7868 257.248 64.6881 258.069 64.6881 259.456C64.6881 259.861 64.6028 260.235 64.4321 260.576C64.2721 260.907 64.0428 261.195 63.7441 261.44C63.4455 261.675 63.0828 261.861 62.6561 262C62.2401 262.128 61.7708 262.192 61.2481 262.192ZM68.9795 262C68.2755 262 67.7368 261.819 67.3635 261.456C67.0008 261.083 66.8195 260.555 66.8195 259.872V255.28H65.5875V253.648H66.2275C66.5368 253.648 66.7448 253.579 66.8515 253.44C66.9688 253.291 67.0275 253.072 67.0275 252.784V251.36H68.8675V253.648H70.5795V255.28H68.8675V260.368H70.4515V262H68.9795ZM75.6694 262.192C75.0507 262.192 74.496 262.091 74.0054 261.888C73.5254 261.675 73.1147 261.381 72.7734 261.008C72.4427 260.624 72.1867 260.165 72.0054 259.632C71.824 259.088 71.7334 258.48 71.7334 257.808C71.7334 257.147 71.8187 256.549 71.9894 256.016C72.1707 255.483 72.4267 255.029 72.7574 254.656C73.088 254.272 73.4934 253.979 73.9734 253.776C74.4534 253.563 74.9974 253.456 75.6054 253.456C76.256 253.456 76.8214 253.568 77.3014 253.792C77.7814 254.016 78.176 254.32 78.4854 254.704C78.7947 255.088 79.024 255.536 79.1734 256.048C79.3334 256.549 79.4134 257.088 79.4134 257.664V258.336H73.8614V258.544C73.8614 259.152 74.032 259.643 74.3734 260.016C74.7147 260.379 75.2214 260.56 75.8934 260.56C76.4054 260.56 76.8214 260.453 77.1414 260.24C77.472 260.027 77.7654 259.755 78.0214 259.424L79.1254 260.656C78.784 261.136 78.3147 261.515 77.7174 261.792C77.1307 262.059 76.448 262.192 75.6694 262.192ZM75.6374 254.992C75.0934 254.992 74.6614 255.173 74.3414 255.536C74.0214 255.899 73.8614 256.368 73.8614 256.944V257.072H77.2854V256.928C77.2854 256.352 77.1414 255.888 76.8534 255.536C76.576 255.173 76.1707 254.992 75.6374 254.992Z" fill="white"/>
<path d="M16 92C16 89.7909 17.7909 88 20 88H217C219.209 88 221 89.7909 221 92V104C221 106.209 219.209 108 217 108H20C17.7909 108 16 106.209 16 104V92Z" fill="#DCDCDC"/>
<path d="M16 144C16 141.791 17.7909 140 20 140H217C219.209 140 221 141.791 221 144V156C221 158.209 219.209 160 217 160H20C17.7909 160 16 158.209 16 156V144Z" fill="#DCDCDC"/>
<path d="M16 196C16 193.791 17.7909 192 20 192H217C219.209 192 221 193.791 221 196V208C221 210.209 219.209 212 217 212H20C17.7909 212 16 210.209 16 208V196Z" fill="#DCDCDC"/>
<path d="M16 76C16 73.7909 17.7909 72 20 72H130C132.209 72 134 73.7909 134 76V80C134 82.2091 132.209 84 130 84H20C17.7909 84 16 82.2091 16 80V76Z" fill="#DCDCDC"/>
<path d="M16 128C16 125.791 17.7909 124 20 124H130C132.209 124 134 125.791 134 128V132C134 134.209 132.209 136 130 136H20C17.7909 136 16 134.209 16 132V128Z" fill="#DCDCDC"/>
<path d="M16 180C16 177.791 17.7909 176 20 176H130C132.209 176 134 177.791 134 180V184C134 186.209 132.209 188 130 188H20C17.7909 188 16 186.209 16 184V180Z" fill="#DCDCDC"/>
</svg>
