<svg width="267" height="150" viewBox="0 0 267 150" fill="none" xmlns="http://www.w3.org/2000/svg">
<rect width="267" height="150" fill="#F5F5F5"/>
<rect x="16" y="30" width="68" height="8" rx="4" fill="#0059B3"/>
<rect x="16" y="62" width="68" height="4" rx="2" fill="#0059B3" fill-opacity="0.3"/>
<rect x="16" y="90" width="68" height="4" rx="2" fill="#0059B3" fill-opacity="0.3"/>
<rect x="16" y="118" width="68" height="4" rx="2" fill="#0059B3" fill-opacity="0.3"/>
<rect x="100" y="30" width="68" height="8" rx="4" fill="#0059B3"/>
<rect x="100" y="62" width="68" height="4" rx="2" fill="#0059B3" fill-opacity="0.3"/>
<rect x="100" y="90" width="68" height="4" rx="2" fill="#0059B3" fill-opacity="0.3"/>
<rect x="100" y="118" width="68" height="4" rx="2" fill="#0059B3" fill-opacity="0.3"/>
<rect x="184" y="30" width="67" height="8" rx="4" fill="#0059B3"/>
<rect x="184" y="62" width="67" height="4" rx="2" fill="#0059B3" fill-opacity="0.3"/>
<rect x="184" y="90" width="67" height="4" rx="2" fill="#0059B3" fill-opacity="0.3"/>
<rect x="184" y="118" width="67" height="4" rx="2" fill="#0059B3" fill-opacity="0.3"/>
<line x1="16.5" y1="49.5" x2="250.5" y2="49.5" stroke="#0059B3" stroke-linecap="round"/>
<line x1="16.5" y1="77.5" x2="250.5" y2="77.5" stroke="#0059B3" stroke-linecap="round"/>
<line x1="16.5" y1="105.5" x2="250.5" y2="105.5" stroke="#0059B3" stroke-linecap="round"/>
<line x1="16.5" y1="133.5" x2="250.5" y2="133.5" stroke="#0059B3" stroke-linecap="round"/>
</svg>
