<svg width="267" height="150" viewBox="0 0 267 150" fill="none" xmlns="http://www.w3.org/2000/svg">
<mask id="path-1-inside-1_10643_18229" fill="white">
<path d="M0 0H267V150H0V0Z"/>
</mask>
<path d="M0 0H267V150H0V0Z" fill="#F5F5F5"/>
<path d="M267 149H0V151H267V149Z" fill="#F5F5F5" mask="url(#path-1-inside-1_10643_18229)"/>
<rect x="129" y="18" width="2" height="12" rx="1" fill="#44831E"/>
<rect x="136" y="23" width="2" height="12" rx="1" transform="rotate(90 136 23)" fill="#44831E"/>
<rect x="146" y="20" width="105" height="8" rx="4" fill="#44831E"/>
<rect x="146" y="30" width="105" height="1" fill="#44831E"/>
<path d="M133.45 49.7218L136.278 52.5503L127.907 60.9212L124.607 61.3926L125.079 58.0927L133.45 49.7218Z" stroke="#44831E" stroke-width="2"/>
<rect x="146" y="52" width="105" height="8" rx="4" fill="#44831E"/>
<rect x="146" y="62" width="105" height="1" fill="#44831E"/>
</svg>
