<svg width="267" height="150" viewBox="0 0 267 150" fill="none" xmlns="http://www.w3.org/2000/svg">
<mask id="path-1-inside-1_10610_8372" fill="white">
<path d="M0 0H267V150H0V0Z"/>
</mask>
<path d="M0 0H267V150H0V0Z" fill="#F5F5F5"/>
<path d="M267 149H0V151H267V149Z" fill="#F5F5F5" mask="url(#path-1-inside-1_10610_8372)"/>
<rect x="16" y="26" width="50" height="8" rx="4" fill="#44831E" fill-opacity="0.4"/>
<path d="M75.2926 35.2975C74.8997 34.9074 74.8982 34.2719 75.2897 33.8804L79.1701 30L75.2897 26.1196C74.8982 25.7281 74.8997 25.0926 75.2926 24.7025C75.6835 24.3143 76.3151 24.3151 76.7047 24.7046L81.293 29.2929C81.6835 29.6834 81.6835 30.3166 81.293 30.7071L76.7047 35.2954C76.3151 35.6849 75.6835 35.6857 75.2926 35.2975Z" fill="#44831E"/>
<rect x="90" y="26" width="50" height="8" rx="4" fill="#44831E" fill-opacity="0.4"/>
<path d="M149.293 35.2975C148.9 34.9074 148.898 34.2719 149.29 33.8804L153.17 30L149.29 26.1196C148.898 25.7281 148.9 25.0926 149.293 24.7025C149.684 24.3143 150.315 24.3151 150.705 24.7046L155.293 29.2929C155.683 29.6834 155.683 30.3166 155.293 30.7071L150.705 35.2954C150.315 35.6849 149.684 35.6857 149.293 35.2975Z" fill="#44831E"/>
<rect x="164" y="26" width="50" height="8" rx="4" fill="#44831E"/>
</svg>
