<svg width="267" height="150" viewBox="0 0 267 150" fill="none" xmlns="http://www.w3.org/2000/svg">
<mask id="path-1-inside-1_13144_11132" fill="white">
<path d="M0 0H267V150H0V0Z"/>
</mask>
<path d="M0 0H267V150H0V0Z" fill="#F5F5F5"/>
<path d="M267 149H0V151H267V149Z" fill="#F5F5F5" mask="url(#path-1-inside-1_13144_11132)"/>
<rect x="24" y="16" width="80" height="4" rx="2" fill="#0059B3" fill-opacity="0.3"/>
<rect x="24" y="24" width="131" height="4" rx="2" fill="#0059B3" fill-opacity="0.3"/>
<rect x="24" y="32" width="131" height="4" rx="2" fill="#0059B3" fill-opacity="0.3"/>
<mask id="path-6-inside-2_13144_11132" fill="white">
<path d="M16 54C16 49.5817 19.5817 46 24 46H243C247.418 46 251 49.5817 251 54V126C251 130.418 247.418 134 243 134H24C19.5817 134 16 130.418 16 126V54Z"/>
</mask>
<path d="M16 54C16 49.5817 19.5817 46 24 46H243C247.418 46 251 49.5817 251 54V126C251 130.418 247.418 134 243 134H24C19.5817 134 16 130.418 16 126V54Z" fill="white"/>
<path d="M24 47H243V45H24V47ZM250 54V126H252V54H250ZM243 133H24V135H243V133ZM17 126V54H15V126H17ZM24 133C20.134 133 17 129.866 17 126H15C15 130.971 19.0294 135 24 135V133ZM250 126C250 129.866 246.866 133 243 133V135C247.971 135 252 130.971 252 126H250ZM243 47C246.866 47 250 50.134 250 54H252C252 49.0294 247.971 45 243 45V47ZM24 45C19.0294 45 15 49.0294 15 54H17C17 50.134 20.134 47 24 47V45Z" fill="#0059B3" mask="url(#path-6-inside-2_13144_11132)"/>
<rect x="32" y="62" width="74" height="8" rx="4" fill="#0059B3"/>
<rect x="32" y="78" width="203" height="8" rx="4" fill="#0059B3"/>
<rect x="32" y="102" width="56" height="16" rx="4" fill="#0059B3"/>
<rect x="96" y="102" width="56" height="16" rx="4" fill="#0059B3"/>
</svg>
