<svg width="267" height="150" viewBox="0 0 267 150" fill="none" xmlns="http://www.w3.org/2000/svg">
<mask id="path-1-inside-1_10643_18251" fill="white">
<path d="M0 0H267V150H0V0Z"/>
</mask>
<path d="M0 0H267V150H0V0Z" fill="#F5F5F5"/>
<path d="M267 149H0V151H267V149Z" fill="#F5F5F5" mask="url(#path-1-inside-1_10643_18251)"/>
<rect x="39" y="18" width="80" height="8" rx="4" fill="#44831E"/>
<rect x="39" y="42" width="80" height="8" rx="4" fill="#44831E"/>
<rect x="39" y="66" width="80" height="8" rx="4" fill="#44831E"/>
<rect x="39" y="90" width="80" height="8" rx="4" fill="#44831E"/>
<rect x="143.5" y="106.5" width="107" height="27" rx="7.5" fill="white"/>
<rect x="143.5" y="106.5" width="107" height="27" rx="7.5" stroke="#44831E"/>
<rect x="155" y="116" width="64" height="8" rx="4" fill="#44831E"/>
<path d="M227 120C227 119.448 227.448 119 228 119H239.17L234.29 114.12C233.898 113.728 233.9 113.093 234.293 112.703C234.683 112.314 235.315 112.315 235.705 112.705L242.293 119.293C242.683 119.683 242.683 120.317 242.293 120.707L235.705 127.295C235.316 127.684 234.684 127.684 234.295 127.295C233.905 126.905 233.905 126.274 234.294 125.885L239.17 121H228C227.448 121 227 120.552 227 120Z" fill="#44831E"/>
<path d="M27.8177 100.176C27.3377 100.176 26.9803 100.059 26.7457 99.8239C26.5217 99.5786 26.4097 99.2692 26.4097 98.8959V98.5759C26.4097 98.2026 26.5217 97.8986 26.7457 97.6639C26.9803 97.4186 27.3377 97.2959 27.8177 97.2959C28.2977 97.2959 28.6497 97.4186 28.8737 97.6639C29.1083 97.8986 29.2257 98.2026 29.2257 98.5759V98.8959C29.2257 99.2692 29.1083 99.5786 28.8737 99.8239C28.6497 100.059 28.2977 100.176 27.8177 100.176Z" fill="#44831E"/>
<path d="M22.1361 100C21.5838 100 21.1361 99.5523 21.1361 99V98.156C21.1361 97.9903 21.0018 97.856 20.8361 97.856H17.2241C16.6718 97.856 16.2241 97.4083 16.2241 96.856V96.0944C16.2241 95.9072 16.2766 95.7239 16.3757 95.5651L20.2825 89.3027C20.4651 89.01 20.7858 88.832 21.1309 88.832H22.4241C22.9764 88.832 23.4241 89.2797 23.4241 89.832V95.7C23.4241 95.8657 23.5584 96 23.7241 96H23.9041C24.4166 96 24.8321 96.4155 24.8321 96.928C24.8321 97.4406 24.4166 97.856 23.9041 97.856H23.7241C23.5584 97.856 23.4241 97.9903 23.4241 98.156V99C23.4241 99.5523 22.9764 100 22.4241 100H22.1361ZM18.4191 95.5449C18.2983 95.7448 18.4422 96 18.6758 96H20.8361C21.0018 96 21.1361 95.8657 21.1361 95.7V91.4143C21.1361 91.3578 21.0903 91.312 21.0338 91.312C20.998 91.312 20.9648 91.3308 20.9463 91.3614L18.4191 95.5449Z" fill="#44831E"/>
<path d="M27.8177 76.1759C27.3377 76.1759 26.9803 76.0586 26.7457 75.8239C26.5217 75.5786 26.4097 75.2692 26.4097 74.8959V74.5759C26.4097 74.2026 26.5217 73.8986 26.7457 73.6639C26.9803 73.4186 27.3377 73.2959 27.8177 73.2959C28.2977 73.2959 28.6497 73.4186 28.8737 73.6639C29.1083 73.8986 29.2257 74.2026 29.2257 74.5759V74.8959C29.2257 75.2692 29.1083 75.5786 28.8737 75.8239C28.6497 76.0586 28.2977 76.1759 27.8177 76.1759Z" fill="#44831E"/>
<path d="M19.936 69.2477C20.5333 69.2477 20.9653 69.1356 21.232 68.9116C21.5093 68.677 21.648 68.389 21.648 68.0476V67.9356C21.648 67.5303 21.5147 67.205 21.248 66.9596C20.992 66.7143 20.624 66.5916 20.144 66.5916C19.696 66.5916 19.2747 66.709 18.88 66.9436C18.8086 66.9842 18.7392 67.028 18.6716 67.0751C18.1712 67.4244 17.4631 67.5369 17.0177 67.1198C16.6491 66.7748 16.596 66.1981 16.9606 65.8489C16.9921 65.8187 17.0239 65.7889 17.056 65.7596C17.3013 65.525 17.5787 65.3276 17.888 65.1676C18.1973 64.997 18.544 64.869 18.928 64.7836C19.312 64.6876 19.744 64.6396 20.224 64.6396C20.8213 64.6396 21.36 64.709 21.84 64.8476C22.3307 64.9863 22.7467 65.189 23.088 65.4557C23.44 65.7117 23.7067 66.021 23.888 66.3836C24.08 66.7463 24.176 67.1516 24.176 67.5996C24.176 67.9516 24.1173 68.2716 24 68.5596C23.8933 68.8476 23.7387 69.0983 23.536 69.3116C23.344 69.525 23.12 69.701 22.864 69.8396C22.6221 69.9606 22.3658 70.0482 22.0953 70.1025C22.0679 70.108 22.048 70.1319 22.048 70.1598C22.048 70.1876 22.0677 70.2114 22.0949 70.217C22.4075 70.2819 22.6958 70.3854 22.96 70.5276C23.248 70.6663 23.4933 70.8476 23.696 71.0716C23.9093 71.2956 24.0747 71.5623 24.192 71.8717C24.3093 72.1703 24.368 72.5116 24.368 72.8956C24.368 73.397 24.2667 73.8503 24.064 74.2556C23.8613 74.661 23.5733 75.0076 23.2 75.2956C22.8267 75.5836 22.3787 75.8077 21.856 75.9677C21.3333 76.117 20.7573 76.1917 20.128 76.1917C19.5627 76.1917 19.0613 76.133 18.624 76.0156C18.1867 75.8983 17.8027 75.7437 17.472 75.5517C17.152 75.349 16.8693 75.1196 16.624 74.8636C16.5966 74.8337 16.5695 74.8036 16.5429 74.7733C16.203 74.3868 16.3103 73.8072 16.7171 73.492L16.8401 73.3967C17.3295 73.0176 18.0335 73.187 18.4722 73.6238C18.5368 73.6881 18.6034 73.7494 18.672 73.8076C19.0347 74.0956 19.52 74.2396 20.128 74.2396C20.672 74.2396 21.0933 74.1063 21.392 73.8396C21.7013 73.5623 21.856 73.189 21.856 72.7197V72.6236C21.856 72.165 21.68 71.8236 21.328 71.5996C20.9867 71.365 20.512 71.2477 19.904 71.2477C19.3517 71.2477 18.896 70.7999 18.896 70.2477C18.896 69.6954 19.3437 69.2477 19.896 69.2477H19.936Z" fill="#44831E"/>
<path d="M27.8177 52.1759C27.3377 52.1759 26.9803 52.0586 26.7457 51.8239C26.5217 51.5786 26.4097 51.2692 26.4097 50.8959V50.5759C26.4097 50.2026 26.5217 49.8986 26.7457 49.6639C26.9803 49.4186 27.3377 49.2959 27.8177 49.2959C28.2977 49.2959 28.6497 49.4186 28.8737 49.6639C29.1083 49.8986 29.2257 50.2026 29.2257 50.5759V50.8959C29.2257 51.2692 29.1083 51.5786 28.8737 51.8239C28.6497 52.0586 28.2977 52.1759 27.8177 52.1759Z" fill="#44831E"/>
<path d="M24.56 50.9916C24.56 51.5439 24.1123 51.9996 23.56 51.9996H17.656C17.1037 51.9996 16.656 51.5519 16.656 50.9996V50.268C16.656 49.9759 16.7838 49.6983 17.0058 49.5083L20.096 46.8636C20.4053 46.597 20.6667 46.357 20.88 46.1437C21.0933 45.9197 21.264 45.7063 21.392 45.5036C21.5307 45.2903 21.6267 45.0823 21.68 44.8797C21.744 44.677 21.776 44.4583 21.776 44.2236V43.9996C21.776 43.7863 21.7333 43.5996 21.648 43.4396C21.5627 43.2796 21.4507 43.1463 21.312 43.0396C21.1733 42.933 21.0133 42.853 20.832 42.7996C20.6613 42.7463 20.4853 42.7197 20.304 42.7197C20.0373 42.7197 19.8027 42.7623 19.6 42.8476C19.408 42.933 19.2373 43.0503 19.088 43.1996C18.9493 43.3383 18.832 43.5036 18.736 43.6956C18.5781 43.9939 18.2345 44.1817 17.9192 44.0614L17.3111 43.8293C16.8107 43.6383 16.5405 43.0791 16.81 42.6162C16.8526 42.5431 16.8972 42.4709 16.944 42.3997C17.168 42.0477 17.4453 41.7436 17.776 41.4876C18.1173 41.221 18.5173 41.013 18.976 40.8636C19.4347 40.7143 19.952 40.6396 20.528 40.6396C21.136 40.6396 21.6747 40.725 22.144 40.8956C22.6133 41.0663 23.008 41.301 23.328 41.5996C23.6587 41.8983 23.9093 42.2556 24.08 42.6716C24.2507 43.077 24.336 43.5196 24.336 43.9996C24.336 44.4796 24.256 44.917 24.096 45.3116C23.936 45.7063 23.7173 46.0796 23.44 46.4316C23.1733 46.773 22.8587 47.0983 22.496 47.4076C22.1333 47.717 21.7547 48.0317 21.36 48.3517L19.28 49.9837H23.56C24.1123 49.9837 24.56 50.4394 24.56 50.9916Z" fill="#44831E"/>
<path d="M27.8177 28.1759C27.3377 28.1759 26.9803 28.0586 26.7457 27.8239C26.5217 27.5786 26.4097 27.2692 26.4097 26.8959V26.5759C26.4097 26.2026 26.5217 25.8986 26.7457 25.6639C26.9803 25.4186 27.3377 25.2959 27.8177 25.2959C28.2977 25.2959 28.6497 25.4186 28.8737 25.6639C29.1083 25.8986 29.2257 26.2026 29.2257 26.5759V26.8959C29.2257 27.2692 29.1083 27.5786 28.8737 27.8239C28.6497 28.0586 28.2977 28.1759 27.8177 28.1759Z" fill="#44831E"/>
<path d="M18.2162 28C17.6816 28 17.2482 27.5666 17.2482 27.032C17.2482 26.4974 17.6816 26.064 18.2162 26.064H20.2562V18.6724C20.2562 18.6192 20.2131 18.576 20.1599 18.576C20.1298 18.576 20.1015 18.59 20.0833 18.6139L18.439 20.7677C18.1094 21.1994 17.4906 21.2789 17.0626 20.9445C16.642 20.616 16.5634 20.0106 16.8861 19.5855L18.6761 17.2274C18.8652 16.9783 19.1599 16.832 19.4726 16.832H21.6562C22.2085 16.832 22.6562 17.2797 22.6562 17.832V26.064H24.0562C24.5908 26.064 25.0242 26.4974 25.0242 27.032C25.0242 27.5666 24.5908 28 24.0562 28H18.2162Z" fill="#44831E"/>
</svg>
