<svg width="267" height="150" viewBox="0 0 267 150" fill="none" xmlns="http://www.w3.org/2000/svg">
<g clip-path="url(#clip0_13144_11100)">
<mask id="path-1-inside-1_13144_11100" fill="white">
<path d="M0 0H267V150H0V0Z"/>
</mask>
<path d="M0 0H267V150H0V0Z" fill="#F5F5F5"/>
<rect x="80.5" y="58.5" width="452" height="55" rx="7.5" fill="white"/>
<rect x="80.5" y="58.5" width="452" height="55" rx="7.5" stroke="#0059B3"/>
<path d="M115 86C115 86.5523 114.552 87 114 87H109V92C109 92.5523 108.552 93 108 93V93C107.448 93 107 92.5523 107 92V87H102C101.448 87 101 86.5523 101 86V86C101 85.4477 101.448 85 102 85H107V80C107 79.4477 107.448 79 108 79V79C108.552 79 109 79.4477 109 80V85H114C114.552 85 115 85.4477 115 86V86Z" fill="#0059B3"/>
<rect x="136" y="82" width="381" height="8" rx="4" fill="#0059B3"/>
</g>
<path d="M267 149H0V151H267V149Z" fill="#F5F5F5" mask="url(#path-1-inside-1_13144_11100)"/>
<defs>
<clipPath id="clip0_13144_11100">
<path d="M0 0H267V150H0V0Z" fill="white"/>
</clipPath>
</defs>
</svg>
