<svg width="267" height="150" viewBox="0 0 267 150" fill="none" xmlns="http://www.w3.org/2000/svg">
<rect width="267" height="150" fill="#F5F5F5"/>
<rect x="16" y="16" width="115" height="8" rx="4" fill="#0059B3"/>
<rect x="16" y="26" width="115" height="1" rx="0.5" fill="#0059B3"/>
<mask id="path-3-inside-1_13144_11143" fill="white">
<path fill-rule="evenodd" clip-rule="evenodd" d="M77.3957 33.3595C76.6191 32.6028 75.381 32.6028 74.6043 33.3595L69.8413 38L65 38C60.5817 38 57 41.5817 57 46L57 98C57 102.418 60.5817 106 65 106L196 106C200.418 106 204 102.418 204 98V46C204 41.5817 200.418 38 196 38L82.1587 38L77.3957 33.3595Z"/>
</mask>
<path fill-rule="evenodd" clip-rule="evenodd" d="M77.3957 33.3595C76.6191 32.6028 75.381 32.6028 74.6043 33.3595L69.8413 38L65 38C60.5817 38 57 41.5817 57 46L57 98C57 102.418 60.5817 106 65 106L196 106C200.418 106 204 102.418 204 98V46C204 41.5817 200.418 38 196 38L82.1587 38L77.3957 33.3595Z" fill="white"/>
<path d="M74.6043 33.3595L75.3022 34.0757L75.3022 34.0757L74.6043 33.3595ZM77.3957 33.3595L76.6978 34.0757V34.0757L77.3957 33.3595ZM69.8413 38V39H70.2479L70.5391 38.7163L69.8413 38ZM65 38V39V38ZM57 46H58H57ZM57 98H56H57ZM65 106V105V106ZM196 106V107V106ZM196 38V39V38ZM82.1587 38L81.4609 38.7163L81.7521 39H82.1587V38ZM75.3022 34.0757C75.6905 33.6974 76.3095 33.6974 76.6978 34.0757L78.0935 32.6432C76.9286 31.5082 75.0714 31.5083 73.9065 32.6432L75.3022 34.0757ZM70.5391 38.7163L75.3022 34.0757L73.9065 32.6432L69.1435 37.2837L70.5391 38.7163ZM65 39L69.8413 39V37L65 37V39ZM58 46C58 42.134 61.134 39 65 39V37C60.0294 37 56 41.0294 56 46H58ZM58 98L58 46H56L56 98H58ZM65 105C61.134 105 58 101.866 58 98H56C56 102.971 60.0294 107 65 107V105ZM196 105L65 105V107L196 107V105ZM203 98C203 101.866 199.866 105 196 105V107C200.971 107 205 102.971 205 98H203ZM203 46V98H205V46H203ZM196 39C199.866 39 203 42.134 203 46H205C205 41.0295 200.971 37 196 37V39ZM82.1587 39L196 39V37L82.1587 37V39ZM76.6978 34.0757L81.4609 38.7163L82.8566 37.2837L78.0935 32.6432L76.6978 34.0757Z" fill="#0059B3" mask="url(#path-3-inside-1_13144_11143)"/>
<rect x="73" y="54" width="115" height="4" rx="2" fill="#0059B3"/>
<rect x="73" y="70" width="115" height="4" rx="2" fill="#0059B3"/>
<rect x="73" y="86" width="115" height="4" rx="2" fill="#0059B3"/>
</svg>
