<svg id="Layer_1"  xmlns="http://www.w3.org/2000/svg" width="208px" height="96px" viewBox="0 0 208 96"><title>Accordion</title><g id="Illustrationer"><g id="Overview_illustrationer_Ver02" data-name="Overview illustrationer Ver02"><g id="Accordion-Copy-2"><rect id="Rectangle-5" width="208" height="24" style="fill:#1a1a1a"/><rect y="24" width="208" height="24" style="fill:#1a1a1a"/><rect id="Rectangle-2" x="43.4" y="8" width="96" height="8" style="fill:#fff"/><rect x="43.4" y="32" width="96" height="8" style="fill:#fff"/><rect y="48" width="208" height="48" style="fill:#fff"/><rect x="16" y="60" width="160" height="8" style="fill:#dcdcdc"/><rect x="16" y="76" width="160" height="8" style="fill:#dcdcdc"/><g id="ic_expand" data-name="ic expand"><g id="Shape"><polygon points="27.7 12.8 22.7 12.8 22.7 17.8 21 17.8 21 12.8 16 12.8 16 11.2 21 11.2 21 6.2 22.7 6.2 22.7 11.2 27.7 11.2 27.7 12.8" style="fill:#fff;fill-rule:evenodd"/><polygon points="11.8 2 31.8 2 31.8 22 11.8 22 11.8 2" style="fill:none"/></g></g><g id="ic_retract" data-name="ic retract"><polygon points="11.8 26 31.8 26 31.8 46 11.8 46 11.8 26" style="fill:none"/><polygon points="27.7 36.8 16 36.8 16 35.2 27.7 35.2 27.7 36.8" style="fill:#fff;fill-rule:evenodd"/></g><rect id="Rectangle-7" y="23" width="208" height="2" style="fill:#fff"/></g></g></g></svg>
