<svg id="Layer_1" data-name="Layer 1" xmlns="http://www.w3.org/2000/svg" viewBox="0 0 208 95.96"><title>Cookie</title><g id="Accordion-Copy-2"><rect id="Rectangle-19" width="208" height="95.96" style="fill:#fff"/><rect id="Rectangle-20" x="12" y="66.62" width="45.26" height="16.93" style="fill:#999"/><rect id="Rectangle-20-2" data-name="Rectangle-20" x="75" y="66.62" width="45.26" height="16.93" style="fill:#bfbfbf"/><polygon points="62 46 54 46 12 46 12 54 54 54 62 54 104 54 104 46 62 46" style="fill:#dcdcdc"/><polygon points="112 30 96 30 12 30 12 38 96 38 112 38 196 38 196 30 112 30" style="fill:#dcdcdc"/><polygon points="139.64 14 134 14 12 14 12 22 134 22 139.64 22 196 22 196 14 139.64 14" style="fill:#dcdcdc"/></g></svg>