<?xml version="1.0" encoding="UTF-8"?>
<svg width="120px" height="60px" viewBox="0 0 120 60" version="1.1" xmlns="http://www.w3.org/2000/svg" xmlns:xlink="http://www.w3.org/1999/xlink">
    <!-- Generator: Sketch 53.2 (72643) - https://sketchapp.com -->
    <title>Tilgængelighed</title>
    <desc>Created with Sketch.</desc>
    <defs>
        <path d="M10,0 L60,0 L60,60 L10,60 C4.4771525,60 6.76353751e-16,55.5228475 0,50 L0,10 C-6.76353751e-16,4.4771525 4.4771525,-2.53818305e-15 10,-3.55271368e-15 Z" id="path-1"></path>
    </defs>
    <g id="Illustrationer" stroke="none" stroke-width="1" fill="none" fill-rule="evenodd">
        <g id="Overview_illustrationer_Ver02" transform="translate(-189.000000, -4712.000000)">
            <g id="Tilgængelighed" transform="translate(189.000000, 4712.000000)">
                <g id="Combined-Shape">
                    <mask id="mask-2" fill="white">
                        <use xlink:href="#path-1"></use>
                    </mask>
                    <use id="Mask" fill="#1A1A1A" xlink:href="#path-1"></use>
                    <path d="M0,0 L4,0 L4,4 L0,4 L0,0 Z M8,0 L12,0 L12,4 L8,4 L8,0 Z M4,4 L8,4 L8,8 L4,8 L4,4 Z M16,0 L20,0 L20,4 L16,4 L16,0 Z M12,4 L16,4 L16,8 L12,8 L12,4 Z M24,0 L28,0 L28,4 L24,4 L24,0 Z M20,4 L24,4 L24,8 L20,8 L20,4 Z M32,0 L36,0 L36,4 L32,4 L32,0 Z M28,4 L32,4 L32,8 L28,8 L28,4 Z M40,0 L44,0 L44,4 L40,4 L40,0 Z M36,4 L40,4 L40,8 L36,8 L36,4 Z M48,0 L52,0 L52,4 L48,4 L48,0 Z M44,4 L48,4 L48,8 L44,8 L44,4 Z M56,0 L60,0 L60,4 L56,4 L56,0 Z M52,4 L56,4 L56,8 L52,8 L52,4 Z M0,8 L4,8 L4,12 L0,12 L0,8 Z M8,8 L12,8 L12,12 L8,12 L8,8 Z M4,12 L8,12 L8,16 L4,16 L4,12 Z M16,8 L20,8 L20,12 L16,12 L16,8 Z M12,12 L16,12 L16,16 L12,16 L12,12 Z M24,8 L28,8 L28,12 L24,12 L24,8 Z M20,12 L24,12 L24,16 L20,16 L20,12 Z M32,8 L36,8 L36,12 L32,12 L32,8 Z M28,12 L32,12 L32,16 L28,16 L28,12 Z M40,8 L44,8 L44,12 L40,12 L40,8 Z M36,12 L40,12 L40,16 L36,16 L36,12 Z M48,8 L52,8 L52,12 L48,12 L48,8 Z M44,12 L48,12 L48,16 L44,16 L44,12 Z M56,8 L60,8 L60,12 L56,12 L56,8 Z M52,12 L56,12 L56,16 L52,16 L52,12 Z M0,16 L4,16 L4,20 L0,20 L0,16 Z M8,16 L12,16 L12,20 L8,20 L8,16 Z M4,20 L8,20 L8,24 L4,24 L4,20 Z M16,16 L20,16 L20,20 L16,20 L16,16 Z M12,20 L16,20 L16,24 L12,24 L12,20 Z M24,16 L28,16 L28,20 L24,20 L24,16 Z M20,20 L24,20 L24,24 L20,24 L20,20 Z M32,16 L36,16 L36,20 L32,20 L32,16 Z M28,20 L32,20 L32,24 L28,24 L28,20 Z M40,16 L44,16 L44,20 L40,20 L40,16 Z M36,20 L40,20 L40,24 L36,24 L36,20 Z M48,16 L52,16 L52,20 L48,20 L48,16 Z M44,20 L48,20 L48,24 L44,24 L44,20 Z M56,16 L60,16 L60,20 L56,20 L56,16 Z M52,20 L56,20 L56,24 L52,24 L52,20 Z M0,40 L4,40 L4,44 L0,44 L0,40 Z M8,40 L12,40 L12,44 L8,44 L8,40 Z M4,44 L8,44 L8,48 L4,48 L4,44 Z M16,40 L20,40 L20,44 L16,44 L16,40 Z M12,44 L16,44 L16,48 L12,48 L12,44 Z M24,40 L28,40 L28,44 L24,44 L24,40 Z M20,44 L24,44 L24,48 L20,48 L20,44 Z M32,40 L36,40 L36,44 L32,44 L32,40 Z M28,44 L32,44 L32,48 L28,48 L28,44 Z M40,40 L44,40 L44,44 L40,44 L40,40 Z M36,44 L40,44 L40,48 L36,48 L36,44 Z M48,40 L52,40 L52,44 L48,44 L48,40 Z M44,44 L48,44 L48,48 L44,48 L44,44 Z M56,40 L60,40 L60,44 L56,44 L56,40 Z M52,44 L56,44 L56,48 L52,48 L52,44 Z M0,48 L4,48 L4,52 L0,52 L0,48 Z M8,48 L12,48 L12,52 L8,52 L8,48 Z M4,52 L8,52 L8,56 L4,56 L4,52 Z M16,48 L20,48 L20,52 L16,52 L16,48 Z M12,52 L16,52 L16,56 L12,56 L12,52 Z M24,48 L28,48 L28,52 L24,52 L24,48 Z M20,52 L24,52 L24,56 L20,56 L20,52 Z M32,48 L36,48 L36,52 L32,52 L32,48 Z M28,52 L32,52 L32,56 L28,56 L28,52 Z M40,48 L44,48 L44,52 L40,52 L40,48 Z M36,52 L40,52 L40,56 L36,56 L36,52 Z M48,48 L52,48 L52,52 L48,52 L48,48 Z M44,52 L48,52 L48,56 L44,56 L44,52 Z M56,48 L60,48 L60,52 L56,52 L56,48 Z M52,52 L56,52 L56,56 L52,56 L52,52 Z M0,56 L4,56 L4,60 L0,60 L0,56 Z M8,56 L12,56 L12,60 L8,60 L8,56 Z M16,56 L20,56 L20,60 L16,60 L16,56 Z M24,56 L28,56 L28,60 L24,60 L24,56 Z M32,56 L36,56 L36,60 L32,60 L32,56 Z M40,56 L44,56 L44,60 L40,60 L40,56 Z M48,56 L52,56 L52,60 L48,60 L48,56 Z M56,56 L60,56 L60,60 L56,60 L56,56 Z M0,32 L4,32 L4,36 L0,36 L0,32 Z M8,32 L12,32 L12,36 L8,36 L8,32 Z M4,36 L8,36 L8,40 L4,40 L4,36 Z M16,32 L20,32 L20,36 L16,36 L16,32 Z M12,36 L16,36 L16,40 L12,40 L12,36 Z M24,32 L28,32 L28,36 L24,36 L24,32 Z M20,36 L24,36 L24,40 L20,40 L20,36 Z M32,32 L36,32 L36,36 L32,36 L32,32 Z M28,36 L32,36 L32,40 L28,40 L28,36 Z M40,32 L44,32 L44,36 L40,36 L40,32 Z M36,36 L40,36 L40,40 L36,40 L36,36 Z M48,32 L52,32 L52,36 L48,36 L48,32 Z M44,36 L48,36 L48,40 L44,40 L44,36 Z M56,32 L60,32 L60,36 L56,36 L56,32 Z M52,36 L56,36 L56,40 L52,40 L52,36 Z M0,24 L4,24 L4,28 L0,28 L0,24 Z M8,24 L12,24 L12,28 L8,28 L8,24 Z M4,28 L8,28 L8,32 L4,32 L4,28 Z M16,24 L20,24 L20,28 L16,28 L16,24 Z M12,28 L16,28 L16,32 L12,32 L12,28 Z M24,24 L28,24 L28,28 L24,28 L24,24 Z M20,28 L24,28 L24,32 L20,32 L20,28 Z M32,24 L36,24 L36,28 L32,28 L32,24 Z M28,28 L32,28 L32,32 L28,32 L28,28 Z M40,24 L44,24 L44,28 L40,28 L40,24 Z M36,28 L40,28 L40,32 L36,32 L36,28 Z M48,24 L52,24 L52,28 L48,28 L48,24 Z M44,28 L48,28 L48,32 L44,32 L44,28 Z M56,24 L60,24 L60,28 L56,28 L56,24 Z M52,28 L56,28 L56,32 L52,32 L52,28 Z" fill="#454545" mask="url(#mask-2)"></path>
                </g>
                <g id="Group-16-Copy-7" transform="translate(0.000000, 56.000000)"></g>
                <g id="Group-13" transform="translate(20.000000, 20.000000)" fill="#FFFFFF">
                    <rect id="Rectangle" x="9" y="0" width="2" height="20"></rect>
                    <rect id="Rectangle" transform="translate(10.000000, 10.000000) rotate(-270.000000) translate(-10.000000, -10.000000) " x="9" y="0" width="2" height="20"></rect>
                </g>
                <path d="M60,0 L110,0 C115.522847,-1.01453063e-15 120,4.4771525 120,10 L120,50 C120,55.5228475 115.522847,60 110,60 L60,60 L60,0 Z" id="Rectangle" fill="#FFFFFF"></path>
                <rect id="Rectangle" fill="#1A1A1A" transform="translate(89.000000, 30.000000) rotate(-270.000000) translate(-89.000000, -30.000000) " x="88" y="20" width="2" height="20"></rect>
            </g>
        </g>
    </g>
</svg>