<svg width="418" height="332" viewBox="0 0 418 332" fill="none" xmlns="http://www.w3.org/2000/svg">
<rect width="418" height="332" fill="white"/>
<rect width="385" height="20" transform="translate(16 140)" fill="#DCDCDC"/>
<rect width="385" height="20" transform="translate(16 164)" fill="#DCDCDC"/>
<rect width="386" height="20" transform="translate(16 32)" fill="#DCDCDC"/>
<rect width="386" height="20" transform="translate(16 56)" fill="#DCDCDC"/>
<rect width="288" height="20" transform="translate(16 80)" fill="#DCDCDC"/>
<rect width="118" height="12" transform="translate(16 124)" fill="#DCDCDC"/>
<rect width="118" height="12" transform="translate(16 16)" fill="#DCDCDC"/>
<path d="M358 300H357V295H345V300H344C342.34 300 341 301.34 341 303V309H345V313H357V309H361V303C361 301.34 359.66 300 358 300ZM347 297H355V300H347V297ZM355 309V311H347V307H355V309ZM357 307V305H345V307H343V303C343 302.45 343.45 302 344 302H358C358.55 302 359 302.45 359 303V307H357Z" fill="#1A1A1A"/>
<path d="M357 304.5C357.552 304.5 358 304.052 358 303.5C358 302.948 357.552 302.5 357 302.5C356.448 302.5 356 302.948 356 303.5C356 304.052 356.448 304.5 357 304.5Z" fill="#1A1A1A"/>
<path d="M368.488 310.5V299.332H372.936C373.939 299.332 374.707 299.62 375.24 300.196C375.784 300.761 376.056 301.54 376.056 302.532C376.056 303.524 375.784 304.308 375.24 304.884C374.707 305.449 373.939 305.732 372.936 305.732H369.832V310.5H368.488ZM369.832 304.548H372.936C373.469 304.548 373.88 304.409 374.168 304.132C374.467 303.855 374.616 303.46 374.616 302.948V302.116C374.616 301.604 374.467 301.209 374.168 300.932C373.88 300.655 373.469 300.516 372.936 300.516H369.832V304.548ZM377.907 310.5V302.244H379.187V303.764H379.267C379.416 303.369 379.683 303.017 380.067 302.708C380.451 302.399 380.979 302.244 381.651 302.244H382.147V303.524H381.395C380.702 303.524 380.158 303.657 379.763 303.924C379.379 304.18 379.187 304.505 379.187 304.9V310.5H377.907ZM384.422 300.308C384.145 300.308 383.942 300.244 383.814 300.116C383.697 299.977 383.638 299.801 383.638 299.588V299.38C383.638 299.167 383.697 298.996 383.814 298.868C383.942 298.729 384.145 298.66 384.422 298.66C384.699 298.66 384.897 298.729 385.014 298.868C385.142 298.996 385.206 299.167 385.206 299.38V299.588C385.206 299.801 385.142 299.977 385.014 300.116C384.897 300.244 384.699 300.308 384.422 300.308ZM383.782 302.244H385.062V310.5H383.782V302.244ZM387.782 310.5V302.244H389.062V303.588H389.126C389.329 303.119 389.611 302.745 389.974 302.468C390.347 302.191 390.843 302.052 391.462 302.052C392.315 302.052 392.987 302.329 393.478 302.884C393.979 303.428 394.23 304.201 394.23 305.204V310.5H392.95V305.428C392.95 303.945 392.326 303.204 391.078 303.204C390.822 303.204 390.571 303.236 390.326 303.3C390.091 303.364 389.878 303.46 389.686 303.588C389.494 303.716 389.339 303.881 389.222 304.084C389.115 304.276 389.062 304.505 389.062 304.772V310.5H387.782ZM398.7 310.5C398.252 310.5 397.91 310.377 397.676 310.132C397.452 309.876 397.34 309.545 397.34 309.14V303.364H395.98V302.244H396.748C397.025 302.244 397.212 302.191 397.308 302.084C397.414 301.967 397.468 301.769 397.468 301.492V299.956H398.62V302.244H400.428V303.364H398.62V309.38H400.3V310.5H398.7Z" fill="#1A1A1A"/>
<path d="M367 312.5H401.132V313.46H367V312.5Z" fill="#1A1A1A"/>
<rect width="385" height="20" transform="translate(16 224)" fill="#DCDCDC"/>
<rect width="288" height="20" transform="translate(16 248)" fill="#DCDCDC"/>
<rect width="118" height="12" transform="translate(16 208)" fill="#DCDCDC"/>
</svg>
