<svg width="267" height="150" viewBox="0 0 267 150" fill="none" xmlns="http://www.w3.org/2000/svg">
<mask id="path-1-inside-1_12428_15298" fill="white">
<path d="M0 0H267V150H0V0Z"/>
</mask>
<path d="M0 0H267V150H0V0Z" fill="#F5F5F5"/>
<path d="M267 149H0V151H267V149Z" fill="#DCDCDC" mask="url(#path-1-inside-1_12428_15298)"/>
<circle cx="134" cy="75" r="40" fill="#44831E"/>
<mask id="mask0_12428_15298" style="mask-type:alpha" maskUnits="userSpaceOnUse" x="94" y="35" width="80" height="80">
<circle cx="134" cy="75" r="40" fill="white"/>
</mask>
<g mask="url(#mask0_12428_15298)">
<path d="M134 74.5511V32.823C134 32.1943 134.573 31.7216 135.19 31.8413L178.583 40.2608C179.067 40.3547 179.41 40.7872 179.392 41.2798L176.791 110.848C176.759 111.693 175.759 112.119 175.127 111.558L134.336 75.2985C134.122 75.1088 134 74.8368 134 74.5511Z" fill="#233614" stroke="#F5F5F5"/>
<path d="M134.774 75.6872L172.178 108.9C172.718 109.379 173.571 109.146 173.794 108.46L189.062 61.3555C189.18 60.9926 189.081 60.5943 188.807 60.3289L168.284 40.4475C167.885 40.0609 167.247 40.0738 166.864 40.4763L134.714 74.25C134.324 74.6598 134.351 75.3115 134.774 75.6872Z" fill="#3C5C22" stroke="#F5F5F5"/>
</g>
</svg>
