<svg width="267" height="150" viewBox="0 0 267 150" fill="none" xmlns="http://www.w3.org/2000/svg">
<mask id="path-1-inside-1_13144_11102" fill="white">
<path d="M0 0H267V150H0V0Z"/>
</mask>
<path d="M0 0H267V150H0V0Z" fill="#F5F5F5"/>
<path d="M267 149H0V151H267V149Z" fill="#DCDCDC" mask="url(#path-1-inside-1_13144_11102)"/>
<path d="M101.448 100L98.248 89.376H83.336L80.136 100H70.28L85 55.328H97.032L111.56 100H101.448ZM90.888 64.16H90.568L85.64 81.12H95.88L90.888 64.16ZM117.741 55.328H139.437C143.149 55.328 146.029 56.3733 148.076 58.464C150.167 60.5547 151.213 63.328 151.213 66.784C151.213 68.4907 150.978 69.9413 150.509 71.136C150.082 72.3307 149.485 73.312 148.717 74.08C147.991 74.848 147.117 75.424 146.093 75.808C145.111 76.1493 144.045 76.3413 142.893 76.384V76.768C143.959 76.768 145.069 76.96 146.221 77.344C147.415 77.728 148.503 78.3467 149.485 79.2C150.466 80.0107 151.277 81.0773 151.917 82.4C152.599 83.7227 152.941 85.344 152.941 87.264C152.941 89.0133 152.642 90.6773 152.045 92.256C151.49 93.792 150.701 95.136 149.677 96.288C148.653 97.44 147.437 98.3573 146.029 99.04C144.621 99.68 143.085 100 141.421 100H117.741V55.328ZM127.469 91.808H138.669C139.949 91.808 140.951 91.4667 141.677 90.784C142.445 90.0587 142.829 89.056 142.829 87.776V85.6C142.829 84.32 142.445 83.3387 141.677 82.656C140.951 81.9307 139.949 81.568 138.669 81.568H127.469V91.808ZM127.469 73.632H137.133C138.413 73.632 139.415 73.2693 140.141 72.544C140.866 71.8187 141.229 70.816 141.229 69.536V67.616C141.229 66.336 140.866 65.3333 140.141 64.608C139.415 63.8827 138.413 63.52 137.133 63.52H127.469V73.632ZM178.476 100.768C175.447 100.768 172.716 100.299 170.284 99.36C167.852 98.3787 165.783 96.9493 164.076 95.072C162.369 93.152 161.047 90.784 160.108 87.968C159.169 85.1093 158.7 81.7813 158.7 77.984C158.7 74.2293 159.169 70.9013 160.108 68C161.047 65.056 162.369 62.6027 164.076 60.64C165.783 58.6347 167.852 57.12 170.284 56.096C172.716 55.072 175.447 54.56 178.476 54.56C182.615 54.56 186.028 55.4133 188.716 57.12C191.404 58.784 193.559 61.4293 195.18 65.056L186.796 69.408C186.199 67.5307 185.26 66.0373 183.98 64.928C182.743 63.776 180.908 63.2 178.476 63.2C175.617 63.2 173.313 64.1387 171.564 66.016C169.857 67.8507 169.004 70.5387 169.004 74.08V81.248C169.004 84.7893 169.857 87.4987 171.564 89.376C173.313 91.2107 175.617 92.128 178.476 92.128C180.865 92.128 182.764 91.488 184.172 90.208C185.623 88.8853 186.689 87.3067 187.372 85.472L195.308 90.08C193.644 93.4933 191.447 96.1387 188.716 98.016C186.028 99.8507 182.615 100.768 178.476 100.768Z" fill="#0059B3"/>
</svg>
