<svg width="418" height="168" viewBox="0 0 418 168" fill="none" xmlns="http://www.w3.org/2000/svg">
<rect width="418" height="168" fill="white"/>
<path d="M16 120C16 115.582 19.5817 112 24 112H78C82.4183 112 86 115.582 86 120V144C86 148.418 82.4183 152 78 152H24C19.5817 152 16 148.418 16 144V120Z" fill="#44831E"/>
<path d="M36.784 138.192C35.824 138.192 35.008 138.021 34.336 137.68C33.6747 137.339 33.104 136.891 32.624 136.336L34.048 134.96C34.432 135.408 34.8587 135.749 35.328 135.984C35.808 136.219 36.336 136.336 36.912 136.336C37.5627 136.336 38.0533 136.197 38.384 135.92C38.7147 135.632 38.88 135.248 38.88 134.768C38.88 134.395 38.7733 134.091 38.56 133.856C38.3467 133.621 37.9467 133.451 37.36 133.344L36.304 133.184C34.0747 132.832 32.96 131.749 32.96 129.936C32.96 129.435 33.0507 128.981 33.232 128.576C33.424 128.171 33.696 127.824 34.048 127.536C34.4 127.248 34.8213 127.029 35.312 126.88C35.8133 126.72 36.3787 126.64 37.008 126.64C37.8507 126.64 38.5867 126.779 39.216 127.056C39.8453 127.333 40.384 127.744 40.832 128.288L39.392 129.648C39.1147 129.307 38.7787 129.029 38.384 128.816C37.9893 128.603 37.4933 128.496 36.896 128.496C36.288 128.496 35.8293 128.613 35.52 128.848C35.2213 129.072 35.072 129.392 35.072 129.808C35.072 130.235 35.1947 130.549 35.44 130.752C35.6853 130.955 36.08 131.104 36.624 131.2L37.664 131.392C38.7947 131.595 39.6267 131.957 40.16 132.48C40.704 132.992 40.976 133.712 40.976 134.64C40.976 135.173 40.88 135.659 40.688 136.096C40.5067 136.523 40.2347 136.896 39.872 137.216C39.52 137.525 39.0827 137.765 38.56 137.936C38.048 138.107 37.456 138.192 36.784 138.192ZM46.3413 138.192C45.7226 138.192 45.1679 138.091 44.6773 137.888C44.1973 137.675 43.7866 137.381 43.4453 137.008C43.1146 136.624 42.8586 136.165 42.6773 135.632C42.4959 135.088 42.4053 134.48 42.4053 133.808C42.4053 133.147 42.4906 132.549 42.6613 132.016C42.8426 131.483 43.0986 131.029 43.4293 130.656C43.7599 130.272 44.1653 129.979 44.6453 129.776C45.1253 129.563 45.6693 129.456 46.2773 129.456C46.9279 129.456 47.4933 129.568 47.9733 129.792C48.4533 130.016 48.8479 130.32 49.1573 130.704C49.4666 131.088 49.6959 131.536 49.8453 132.048C50.0053 132.549 50.0853 133.088 50.0853 133.664V134.336H44.5333V134.544C44.5333 135.152 44.7039 135.643 45.0453 136.016C45.3866 136.379 45.8933 136.56 46.5653 136.56C47.0773 136.56 47.4933 136.453 47.8133 136.24C48.1439 136.027 48.4373 135.755 48.6933 135.424L49.7973 136.656C49.4559 137.136 48.9866 137.515 48.3893 137.792C47.8026 138.059 47.1199 138.192 46.3413 138.192ZM46.3093 130.992C45.7653 130.992 45.3333 131.173 45.0133 131.536C44.6933 131.899 44.5333 132.368 44.5333 132.944V133.072H47.9573V132.928C47.9573 132.352 47.8133 131.888 47.5253 131.536C47.2479 131.173 46.8426 130.992 46.3093 130.992ZM51.8871 138V129.648H53.9351V131.04H54.0151C54.1858 130.592 54.4525 130.219 54.8151 129.92C55.1885 129.611 55.7005 129.456 56.3511 129.456C57.2151 129.456 57.8765 129.739 58.3351 130.304C58.7938 130.869 59.0231 131.675 59.0231 132.72V138H56.9751V132.928C56.9751 132.331 56.8685 131.883 56.6551 131.584C56.4418 131.285 56.0898 131.136 55.5991 131.136C55.3858 131.136 55.1778 131.168 54.9751 131.232C54.7831 131.285 54.6071 131.371 54.4471 131.488C54.2978 131.595 54.1751 131.733 54.0791 131.904C53.9831 132.064 53.9351 132.256 53.9351 132.48V138H51.8871ZM66.4774 136.608H66.3974C66.248 137.088 65.9654 137.472 65.5494 137.76C65.1334 138.048 64.648 138.192 64.0934 138.192C63.0374 138.192 62.2267 137.813 61.6614 137.056C61.1067 136.299 60.8294 135.216 60.8294 133.808C60.8294 132.411 61.1067 131.339 61.6614 130.592C62.2267 129.835 63.0374 129.456 64.0934 129.456C64.648 129.456 65.1334 129.6 65.5494 129.888C65.9654 130.165 66.248 130.544 66.3974 131.024H66.4774V126.16H68.5254V138H66.4774V136.608ZM64.7494 136.496C65.24 136.496 65.6507 136.379 65.9814 136.144C66.312 135.909 66.4774 135.573 66.4774 135.136V132.48C66.4774 132.075 66.312 131.749 65.9814 131.504C65.6507 131.259 65.24 131.136 64.7494 131.136C64.216 131.136 63.784 131.317 63.4534 131.68C63.1334 132.032 62.9734 132.507 62.9734 133.104V134.544C62.9734 135.141 63.1334 135.616 63.4534 135.968C63.784 136.32 64.216 136.496 64.7494 136.496Z" fill="white"/>
<path d="M17.312 34V22.832H24.672V24.704H19.424V27.408H24.064V29.28H19.424V32.128H24.672V34H17.312ZM27.1938 27.264H25.9618V25.648H27.1938V24.448C27.1938 23.712 27.3858 23.1467 27.7698 22.752C28.1644 22.3573 28.7404 22.16 29.4978 22.16H30.9538V23.792H29.2418V25.648H30.9538V27.264H29.2418V34H27.1938V27.264ZM34.9795 34C34.2755 34 33.7368 33.8187 33.3635 33.456C33.0008 33.0827 32.8195 32.5547 32.8195 31.872V27.28H31.5875V25.648H32.2275C32.5368 25.648 32.7448 25.5787 32.8515 25.44C32.9688 25.2907 33.0275 25.072 33.0275 24.784V23.36H34.8675V25.648H36.5795V27.28H34.8675V32.368H36.4515V34H34.9795ZM41.6694 34.192C41.0507 34.192 40.496 34.0907 40.0054 33.888C39.5254 33.6747 39.1147 33.3813 38.7734 33.008C38.4427 32.624 38.1867 32.1653 38.0054 31.632C37.824 31.088 37.7334 30.48 37.7334 29.808C37.7334 29.1467 37.8187 28.5493 37.9894 28.016C38.1707 27.4827 38.4267 27.0293 38.7574 26.656C39.088 26.272 39.4934 25.9787 39.9734 25.776C40.4534 25.5627 40.9974 25.456 41.6054 25.456C42.256 25.456 42.8214 25.568 43.3014 25.792C43.7814 26.016 44.176 26.32 44.4854 26.704C44.7947 27.088 45.024 27.536 45.1734 28.048C45.3334 28.5493 45.4134 29.088 45.4134 29.664V30.336H39.8614V30.544C39.8614 31.152 40.032 31.6427 40.3734 32.016C40.7147 32.3787 41.2214 32.56 41.8934 32.56C42.4054 32.56 42.8214 32.4533 43.1414 32.24C43.472 32.0267 43.7654 31.7547 44.0214 31.424L45.1254 32.656C44.784 33.136 44.3147 33.5147 43.7174 33.792C43.1307 34.0587 42.448 34.192 41.6694 34.192ZM41.6374 26.992C41.0934 26.992 40.6614 27.1733 40.3414 27.536C40.0214 27.8987 39.8614 28.368 39.8614 28.944V29.072H43.2854V28.928C43.2854 28.352 43.1414 27.888 42.8534 27.536C42.576 27.1733 42.1707 26.992 41.6374 26.992ZM47.2153 34V25.648H49.2633V27.376H49.3433C49.3966 27.152 49.4766 26.9387 49.5833 26.736C49.7006 26.5227 49.8499 26.336 50.0312 26.176C50.2126 26.016 50.4259 25.888 50.6713 25.792C50.9273 25.696 51.2206 25.648 51.5513 25.648H51.9993V27.584H51.3593C50.6659 27.584 50.1433 27.6853 49.7913 27.888C49.4393 28.0907 49.2633 28.4213 49.2633 28.88V34H47.2153ZM53.4965 34V25.648H55.5445V27.04H55.6245C55.7952 26.592 56.0618 26.2187 56.4245 25.92C56.7978 25.6107 57.3098 25.456 57.9605 25.456C58.8245 25.456 59.4858 25.7387 59.9445 26.304C60.4032 26.8693 60.6325 27.6747 60.6325 28.72V34H58.5845V28.928C58.5845 28.3307 58.4778 27.8827 58.2645 27.584C58.0512 27.2853 57.6992 27.136 57.2085 27.136C56.9952 27.136 56.7872 27.168 56.5845 27.232C56.3925 27.2853 56.2165 27.3707 56.0565 27.488C55.9072 27.5947 55.7845 27.7333 55.6885 27.904C55.5925 28.064 55.5445 28.256 55.5445 28.48V34H53.4965ZM69.0468 34C68.5988 34 68.2414 33.872 67.9748 33.616C67.7188 33.3493 67.5588 32.9973 67.4948 32.56H67.3988C67.2601 33.104 66.9774 33.5147 66.5508 33.792C66.1241 34.0587 65.5961 34.192 64.9668 34.192C64.1134 34.192 63.4574 33.968 62.9988 33.52C62.5401 33.072 62.3108 32.4747 62.3108 31.728C62.3108 30.864 62.6201 30.224 63.2388 29.808C63.8574 29.3813 64.7374 29.168 65.8788 29.168H67.3028V28.56C67.3028 28.0907 67.1801 27.728 66.9348 27.472C66.6894 27.216 66.2948 27.088 65.7508 27.088C65.2708 27.088 64.8814 27.1947 64.5828 27.408C64.2948 27.6107 64.0494 27.856 63.8468 28.144L62.6308 27.056C62.9401 26.576 63.3508 26.192 63.8628 25.904C64.3748 25.6053 65.0521 25.456 65.8948 25.456C67.0254 25.456 67.8841 25.712 68.4708 26.224C69.0574 26.736 69.3508 27.472 69.3508 28.432V32.368H70.1828V34H69.0468ZM65.6548 32.704C66.1134 32.704 66.5028 32.6027 66.8228 32.4C67.1428 32.1973 67.3028 31.8987 67.3028 31.504V30.4H65.9908C64.9241 30.4 64.3908 30.7413 64.3908 31.424V31.696C64.3908 32.0373 64.4974 32.2933 64.7108 32.464C64.9348 32.624 65.2494 32.704 65.6548 32.704ZM73.4916 34L70.7076 25.648H72.7236L73.8916 29.248L74.7076 32.224H74.8196L75.6356 29.248L76.7716 25.648H78.7236L75.9236 34H73.4916ZM80.0903 34V25.648H82.1383V27.04H82.2183C82.3889 26.592 82.6556 26.2187 83.0182 25.92C83.3916 25.6107 83.9036 25.456 84.5543 25.456C85.4183 25.456 86.0796 25.7387 86.5383 26.304C86.9969 26.8693 87.2263 27.6747 87.2263 28.72V34H85.1783V28.928C85.1783 28.3307 85.0716 27.8827 84.8583 27.584C84.6449 27.2853 84.2929 27.136 83.8023 27.136C83.5889 27.136 83.3809 27.168 83.1783 27.232C82.9863 27.2853 82.8103 27.3707 82.6503 27.488C82.5009 27.5947 82.3783 27.7333 82.2823 27.904C82.1863 28.064 82.1383 28.256 82.1383 28.48V34H80.0903Z" fill="#1A1A1A"/>
<path d="M16.5 56C16.5 51.8579 19.8579 48.5 24 48.5H328C332.142 48.5 335.5 51.8579 335.5 56V80C335.5 84.1421 332.142 87.5 328 87.5H24C19.8579 87.5 16.5 84.1421 16.5 80V56Z" fill="white"/>
<path d="M16.5 56C16.5 51.8579 19.8579 48.5 24 48.5H328C332.142 48.5 335.5 51.8579 335.5 56V80C335.5 84.1421 332.142 87.5 328 87.5H24C19.8579 87.5 16.5 84.1421 16.5 80V56Z" stroke="#8E8E8E"/>
</svg>
