<svg width="418" height="236" viewBox="0 0 418 236" fill="none" xmlns="http://www.w3.org/2000/svg">
<rect width="418" height="236" fill="white"/>
<path d="M16 88C16 85.7909 17.7909 84 20 84H272C274.209 84 276 85.7909 276 88V100C276 102.209 274.209 104 272 104H20C17.7909 104 16 102.209 16 100V88Z" fill="#DCDCDC"/>
<path d="M16 36C16 33.7909 17.7909 32 20 32H272C274.209 32 276 33.7909 276 36V48C276 50.2091 274.209 52 272 52H20C17.7909 52 16 50.2091 16 48V36Z" fill="#DCDCDC"/>
<path d="M16 140C16 137.791 17.7909 136 20 136H272C274.209 136 276 137.791 276 140V152C276 154.209 274.209 156 272 156H20C17.7909 156 16 154.209 16 152V140Z" fill="#DCDCDC"/>
<path d="M16 72C16 69.7909 17.7909 68 20 68H130C132.209 68 134 69.7909 134 72V76C134 78.2091 132.209 80 130 80H20C17.7909 80 16 78.2091 16 76V72Z" fill="#DCDCDC"/>
<path d="M16 20C16 17.7909 17.7909 16 20 16H130C132.209 16 134 17.7909 134 20V24C134 26.2091 132.209 28 130 28H20C17.7909 28 16 26.2091 16 24V20Z" fill="#DCDCDC"/>
<path d="M16 124C16 121.791 17.7909 120 20 120H130C132.209 120 134 121.791 134 124V128C134 130.209 132.209 132 130 132H20C17.7909 132 16 130.209 16 128V124Z" fill="#DCDCDC"/>
<path d="M17 188C17 184.134 20.134 181 24 181H75C78.866 181 82 184.134 82 188V212C82 215.866 78.866 219 75 219H24C20.134 219 17 215.866 17 212V188Z" fill="white"/>
<path d="M17 188C17 184.134 20.134 181 24 181H75C78.866 181 82 184.134 82 188V212C82 215.866 78.866 219 75 219H24C20.134 219 17 215.866 17 212V188Z" stroke="#0059B3" stroke-width="2"/>
<path d="M40.432 204.272H40.368C40.272 204.816 39.968 205.275 39.456 205.648C38.9547 206.011 38.2827 206.192 37.44 206.192C36.7787 206.192 36.1653 206.069 35.6 205.824C35.0453 205.579 34.56 205.216 34.144 204.736C33.7387 204.245 33.4187 203.643 33.184 202.928C32.9493 202.213 32.832 201.387 32.832 200.448C32.832 199.509 32.9493 198.683 33.184 197.968C33.4293 197.243 33.7707 196.635 34.208 196.144C34.6453 195.653 35.168 195.28 35.776 195.024C36.384 194.768 37.0613 194.64 37.808 194.64C38.8107 194.64 39.664 194.859 40.368 195.296C41.072 195.733 41.6267 196.363 42.032 197.184L40.32 198.192C40.1173 197.712 39.8133 197.312 39.408 196.992C39.0133 196.672 38.48 196.512 37.808 196.512C36.976 196.512 36.3093 196.768 35.808 197.28C35.3173 197.781 35.072 198.528 35.072 199.52V201.312C35.072 202.293 35.3227 203.04 35.824 203.552C36.3253 204.064 36.9973 204.32 37.84 204.32C38.1707 204.32 38.48 204.283 38.768 204.208C39.056 204.123 39.3067 204 39.52 203.84C39.7333 203.68 39.904 203.483 40.032 203.248C40.16 203.013 40.224 202.736 40.224 202.416V201.696H38.032V199.92H42.256V206H40.432V204.272ZM47.9506 206.192C47.332 206.192 46.7773 206.091 46.2866 205.888C45.8066 205.675 45.396 205.381 45.0546 205.008C44.724 204.624 44.468 204.165 44.2866 203.632C44.1053 203.088 44.0146 202.48 44.0146 201.808C44.0146 201.147 44.1 200.549 44.2706 200.016C44.452 199.483 44.708 199.029 45.0386 198.656C45.3693 198.272 45.7746 197.979 46.2546 197.776C46.7346 197.563 47.2786 197.456 47.8866 197.456C48.5373 197.456 49.1026 197.568 49.5826 197.792C50.0626 198.016 50.4573 198.32 50.7666 198.704C51.076 199.088 51.3053 199.536 51.4546 200.048C51.6146 200.549 51.6946 201.088 51.6946 201.664V202.336H46.1426V202.544C46.1426 203.152 46.3133 203.643 46.6546 204.016C46.996 204.379 47.5026 204.56 48.1746 204.56C48.6866 204.56 49.1026 204.453 49.4226 204.24C49.7533 204.027 50.0466 203.755 50.3026 203.424L51.4066 204.656C51.0653 205.136 50.596 205.515 49.9986 205.792C49.412 206.059 48.7293 206.192 47.9506 206.192ZM47.9186 198.992C47.3746 198.992 46.9426 199.173 46.6226 199.536C46.3026 199.899 46.1426 200.368 46.1426 200.944V201.072H49.5666V200.928C49.5666 200.352 49.4226 199.888 49.1346 199.536C48.8573 199.173 48.452 198.992 47.9186 198.992ZM53.4965 206V197.648H55.5445V199.04H55.6245C55.7845 198.603 56.0405 198.229 56.3925 197.92C56.7445 197.611 57.2352 197.456 57.8645 197.456C58.4405 197.456 58.9365 197.595 59.3525 197.872C59.7685 198.149 60.0778 198.571 60.2805 199.136H60.3125C60.4618 198.667 60.7552 198.272 61.1925 197.952C61.6405 197.621 62.2005 197.456 62.8725 197.456C63.6938 197.456 64.3232 197.739 64.7605 198.304C65.2085 198.869 65.4325 199.675 65.4325 200.72V206H63.3845V200.928C63.3845 199.733 62.9365 199.136 62.0405 199.136C61.8378 199.136 61.6405 199.168 61.4485 199.232C61.2672 199.285 61.1018 199.371 60.9525 199.488C60.8138 199.595 60.7018 199.733 60.6165 199.904C60.5312 200.064 60.4885 200.256 60.4885 200.48V206H58.4405V200.928C58.4405 199.733 57.9925 199.136 57.0965 199.136C56.9045 199.136 56.7125 199.168 56.5205 199.232C56.3392 199.285 56.1738 199.371 56.0245 199.488C55.8858 199.595 55.7685 199.733 55.6725 199.904C55.5872 200.064 55.5445 200.256 55.5445 200.48V206H53.4965Z" fill="#1A1A1A"/>
<path d="M100 188C100 184.134 103.134 181 107 181H180C183.866 181 187 184.134 187 188V212C187 215.866 183.866 219 180 219H107C103.134 219 100 215.866 100 212V188Z" fill="white"/>
<path d="M100 188C100 184.134 103.134 181 107 181H180C183.866 181 187 184.134 187 188V212C187 215.866 183.866 219 180 219H107C103.134 219 100 215.866 100 212V188Z" stroke="#0059B3" stroke-width="2"/>
<path d="M118.312 194.832V201.696C118.312 202.571 118.477 203.227 118.808 203.664C119.149 204.101 119.72 204.32 120.52 204.32C121.32 204.32 121.885 204.101 122.216 203.664C122.557 203.227 122.728 202.571 122.728 201.696V194.832H124.808V201.424C124.808 202.245 124.728 202.955 124.568 203.552C124.419 204.149 124.173 204.645 123.832 205.04C123.491 205.435 123.043 205.728 122.488 205.92C121.944 206.101 121.283 206.192 120.504 206.192C119.715 206.192 119.048 206.101 118.504 205.92C117.971 205.728 117.533 205.435 117.192 205.04C116.851 204.645 116.605 204.149 116.456 203.552C116.307 202.955 116.232 202.245 116.232 201.424V194.832H118.312ZM132.415 204.608H132.335C132.186 205.088 131.903 205.472 131.487 205.76C131.071 206.048 130.586 206.192 130.031 206.192C128.975 206.192 128.164 205.813 127.599 205.056C127.044 204.299 126.767 203.216 126.767 201.808C126.767 200.411 127.044 199.339 127.599 198.592C128.164 197.835 128.975 197.456 130.031 197.456C130.586 197.456 131.071 197.6 131.487 197.888C131.903 198.165 132.186 198.544 132.335 199.024H132.415V194.16H134.463V206H132.415V204.608ZM130.687 204.496C131.178 204.496 131.588 204.379 131.919 204.144C132.25 203.909 132.415 203.573 132.415 203.136V200.48C132.415 200.075 132.25 199.749 131.919 199.504C131.588 199.259 131.178 199.136 130.687 199.136C130.154 199.136 129.722 199.317 129.391 199.68C129.071 200.032 128.911 200.507 128.911 201.104V202.544C128.911 203.141 129.071 203.616 129.391 203.968C129.722 204.32 130.154 204.496 130.687 204.496ZM139.561 206.192C138.761 206.192 138.089 206.059 137.545 205.792C137.001 205.515 136.521 205.136 136.105 204.656L137.353 203.44C137.662 203.792 137.998 204.069 138.361 204.272C138.734 204.475 139.161 204.576 139.641 204.576C140.131 204.576 140.483 204.491 140.697 204.32C140.921 204.149 141.033 203.915 141.033 203.616C141.033 203.371 140.953 203.179 140.793 203.04C140.643 202.891 140.382 202.789 140.009 202.736L139.177 202.624C138.27 202.507 137.577 202.251 137.097 201.856C136.627 201.451 136.393 200.864 136.393 200.096C136.393 199.691 136.467 199.328 136.617 199.008C136.766 198.677 136.979 198.4 137.257 198.176C137.534 197.941 137.865 197.765 138.249 197.648C138.643 197.52 139.081 197.456 139.561 197.456C139.966 197.456 140.323 197.488 140.633 197.552C140.953 197.605 141.241 197.691 141.497 197.808C141.753 197.915 141.987 198.053 142.201 198.224C142.414 198.384 142.622 198.565 142.825 198.768L141.625 199.968C141.379 199.712 141.086 199.499 140.745 199.328C140.403 199.157 140.03 199.072 139.625 199.072C139.177 199.072 138.851 199.152 138.649 199.312C138.457 199.472 138.361 199.68 138.361 199.936C138.361 200.213 138.441 200.427 138.601 200.576C138.771 200.715 139.054 200.816 139.449 200.88L140.297 200.992C142.099 201.248 143.001 202.069 143.001 203.456C143.001 203.861 142.915 204.235 142.745 204.576C142.585 204.907 142.355 205.195 142.057 205.44C141.758 205.675 141.395 205.861 140.969 206C140.553 206.128 140.083 206.192 139.561 206.192ZM144.809 194.16H146.857V201.296H146.937L148.041 199.792L149.913 197.648H152.233L149.353 200.88L152.537 206H150.105L147.961 202.256L146.857 203.456V206H144.809V194.16ZM153.793 206V197.648H155.841V199.376H155.921C155.975 199.152 156.055 198.939 156.161 198.736C156.279 198.523 156.428 198.336 156.609 198.176C156.791 198.016 157.004 197.888 157.249 197.792C157.505 197.696 157.799 197.648 158.129 197.648H158.577V199.584H157.937C157.244 199.584 156.721 199.685 156.369 199.888C156.017 200.091 155.841 200.421 155.841 200.88V206H153.793ZM161.099 196.432C160.672 196.432 160.363 196.336 160.171 196.144C159.989 195.952 159.899 195.707 159.899 195.408V195.088C159.899 194.789 159.989 194.544 160.171 194.352C160.363 194.16 160.672 194.064 161.099 194.064C161.515 194.064 161.819 194.16 162.011 194.352C162.203 194.544 162.299 194.789 162.299 195.088V195.408C162.299 195.707 162.203 195.952 162.011 196.144C161.819 196.336 161.515 196.432 161.099 196.432ZM160.075 197.648H162.123V206H160.075V197.648ZM166.289 206L163.505 197.648H165.521L166.689 201.248L167.505 204.224H167.617L168.433 201.248L169.569 197.648H171.521L168.721 206H166.289Z" fill="#1A1A1A"/>
</svg>
