<svg width="418" height="256" viewBox="0 0 418 256" fill="none" xmlns="http://www.w3.org/2000/svg">
<rect width="418" height="256" fill="white"/>
<g clip-path="url(#clip0_14279_21047)">
<mask id="path-3-inside-1_14279_21047" fill="white">
<path d="M16 16H402V72H16V16Z"/>
</mask>
<path d="M16 16H402V72H16V16Z" fill="#F5F5F5"/>
<path d="M402 72V73H403V72H402ZM401 16V72H403V16H401ZM402 71H16V73H402V71Z" fill="#BFBFBF" mask="url(#path-3-inside-1_14279_21047)"/>
<path d="M37.696 40.704V50H35.584V40.704H32.416V38.832H40.864V40.704H37.696ZM43.4893 40.432C43.0626 40.432 42.7533 40.336 42.5613 40.144C42.3799 39.952 42.2893 39.7067 42.2893 39.408V39.088C42.2893 38.7893 42.3799 38.544 42.5613 38.352C42.7533 38.16 43.0626 38.064 43.4893 38.064C43.9053 38.064 44.2093 38.16 44.4013 38.352C44.5933 38.544 44.6893 38.7893 44.6893 39.088V39.408C44.6893 39.7067 44.5933 39.952 44.4013 40.144C44.2093 40.336 43.9053 40.432 43.4893 40.432ZM42.4653 41.648H44.5133V50H42.4653V41.648ZM49.4951 50C48.7911 50 48.2525 49.8187 47.8791 49.456C47.5165 49.0827 47.3351 48.5547 47.3351 47.872V43.28H46.1031V41.648H46.7431C47.0525 41.648 47.2605 41.5787 47.3671 41.44C47.4845 41.2907 47.5431 41.072 47.5431 40.784V39.36H49.3831V41.648H51.0951V43.28H49.3831V48.368H50.9671V50H49.4951ZM56.185 50.192C55.5663 50.192 55.0117 50.0907 54.521 49.888C54.041 49.6747 53.6303 49.3813 53.289 49.008C52.9583 48.624 52.7023 48.1653 52.521 47.632C52.3397 47.088 52.249 46.48 52.249 45.808C52.249 45.1467 52.3343 44.5493 52.505 44.016C52.6863 43.4827 52.9423 43.0293 53.273 42.656C53.6037 42.272 54.009 41.9787 54.489 41.776C54.969 41.5627 55.513 41.456 56.121 41.456C56.7717 41.456 57.337 41.568 57.817 41.792C58.297 42.016 58.6917 42.32 59.001 42.704C59.3103 43.088 59.5397 43.536 59.689 44.048C59.849 44.5493 59.929 45.088 59.929 45.664V46.336H54.377V46.544C54.377 47.152 54.5477 47.6427 54.889 48.016C55.2303 48.3787 55.737 48.56 56.409 48.56C56.921 48.56 57.337 48.4533 57.657 48.24C57.9877 48.0267 58.281 47.7547 58.537 47.424L59.641 48.656C59.2997 49.136 58.8303 49.5147 58.233 49.792C57.6463 50.0587 56.9637 50.192 56.185 50.192ZM56.153 42.992C55.609 42.992 55.177 43.1733 54.857 43.536C54.537 43.8987 54.377 44.368 54.377 44.944V45.072H57.801V44.928C57.801 44.352 57.657 43.888 57.369 43.536C57.0917 43.1733 56.6863 42.992 56.153 42.992ZM63.7789 50C63.0749 50 62.5575 49.824 62.2269 49.472C61.8962 49.12 61.7309 48.624 61.7309 47.984V38.16H63.7789V48.368H64.8829V50H63.7789ZM70.4873 50V48.288H73.5593V40.352H73.4153L70.9833 43.232L69.6713 42.128L72.4393 38.832H75.6233V48.288H78.1833V50H70.4873Z" fill="#1A1A1A"/>
<mask id="path-6-inside-2_14279_21047" fill="white">
<path d="M16 72H402V128H16V72Z"/>
</mask>
<path d="M16 72H402V128H16V72Z" fill="white"/>
<path d="M402 128V129H403V128H402ZM401 72V128H403V72H401ZM402 127H16V129H402V127Z" fill="#BFBFBF" mask="url(#path-6-inside-2_14279_21047)"/>
<mask id="path-8-inside-3_14279_21047" fill="white">
<path d="M16 128H402V184H16V128Z"/>
</mask>
<path d="M16 128H402V184H16V128Z" fill="white"/>
<path d="M402 184V185H403V184H402ZM401 128V184H403V128H401ZM402 183H16V185H402V183Z" fill="#BFBFBF" mask="url(#path-8-inside-3_14279_21047)"/>
<mask id="path-10-inside-4_14279_21047" fill="white">
<path d="M16 184H402V240H16V184Z"/>
</mask>
<path d="M16 184H402V240H16V184Z" fill="white"/>
<path d="M402 240V241H403V240H402ZM401 184V240H403V184H401ZM402 239H16V241H402V239Z" fill="#BFBFBF" mask="url(#path-10-inside-4_14279_21047)"/>
</g>
<rect x="16.5" y="16.5" width="385" height="223" stroke="#8E8E8E"/>
<path d="M32 206C32 203.791 33.7909 202 36 202H382C384.209 202 386 203.791 386 206V218C386 220.209 384.209 222 382 222H36C33.7909 222 32 220.209 32 218V206Z" fill="#DCDCDC"/>
<path d="M32 150C32 147.791 33.7909 146 36 146H382C384.209 146 386 147.791 386 150V162C386 164.209 384.209 166 382 166H36C33.7909 166 32 164.209 32 162V150Z" fill="#DCDCDC"/>
<path d="M32 94C32 91.7909 33.7909 90 36 90H382C384.209 90 386 91.7909 386 94V106C386 108.209 384.209 110 382 110H36C33.7909 110 32 108.209 32 106V94Z" fill="#DCDCDC"/>
<defs>
<clipPath id="clip0_14279_21047">
<rect x="16" y="16" width="386" height="224" fill="white"/>
</clipPath>
</defs>
</svg>
