<svg width="418" height="236" viewBox="0 0 418 236" fill="none" xmlns="http://www.w3.org/2000/svg">
<rect width="418" height="236" fill="white"/>
<line y1="60.5" x2="418" y2="60.5" stroke="#DCDCDC"/>
<path d="M6 50.5C6 48.567 7.567 47 9.5 47H95.5C97.433 47 99 48.567 99 50.5V50.5C99 52.433 97.433 54 95.5 54H9.5C7.56701 54 6 52.433 6 50.5V50.5Z" fill="#DCDCDC"/>
<path d="M107 50.5C107 48.567 108.567 47 110.5 47H127.5C129.433 47 131 48.567 131 50.5V50.5C131 52.433 129.433 54 127.5 54H110.5C108.567 54 107 52.433 107 50.5V50.5Z" fill="#DCDCDC"/>
<path d="M139 50.5C139 48.567 140.567 47 142.5 47H159.5C161.433 47 163 48.567 163 50.5V50.5C163 52.433 161.433 54 159.5 54H142.5C140.567 54 139 52.433 139 50.5V50.5Z" fill="#DCDCDC"/>
<path d="M171 50.5C171 48.567 172.567 47 174.5 47H191.5C193.433 47 195 48.567 195 50.5V50.5C195 52.433 193.433 54 191.5 54H174.5C172.567 54 171 52.433 171 50.5V50.5Z" fill="#DCDCDC"/>
<path d="M203 50.5C203 48.567 204.567 47 206.5 47H223.5C225.433 47 227 48.567 227 50.5V50.5C227 52.433 225.433 54 223.5 54H206.5C204.567 54 203 52.433 203 50.5V50.5Z" fill="#DCDCDC"/>
<path d="M99 81.5C99 79.567 100.567 78 102.5 78H216.5C218.433 78 220 79.567 220 81.5V81.5C220 83.433 218.433 85 216.5 85H102.5C100.567 85 99 83.433 99 81.5V81.5Z" fill="#DCDCDC"/>
<path d="M99 95.5C99 93.567 100.567 92 102.5 92H164.5C166.433 92 168 93.567 168 95.5V95.5C168 97.433 166.433 99 164.5 99H102.5C100.567 99 99 97.433 99 95.5V95.5Z" fill="#DCDCDC"/>
<path d="M6 82.5C6 80.567 7.567 79 9.5 79H66.5C68.433 79 70 80.567 70 82.5V82.5C70 84.433 68.433 86 66.5 86H9.5C7.567 86 6 84.433 6 82.5V82.5Z" fill="#DCDCDC"/>
<path d="M6 93.5C6 91.567 7.567 90 9.5 90H66.5C68.433 90 70 91.567 70 93.5V93.5C70 95.433 68.433 97 66.5 97H9.5C7.567 97 6 95.433 6 93.5V93.5Z" fill="#DCDCDC"/>
<path d="M6 104.5C6 102.567 7.567 101 9.5 101H66.5C68.433 101 70 102.567 70 104.5V104.5C70 106.433 68.433 108 66.5 108H9.5C7.567 108 6 106.433 6 104.5V104.5Z" fill="#DCDCDC"/>
<path d="M6 115.5C6 113.567 7.567 112 9.5 112H66.5C68.433 112 70 113.567 70 115.5V115.5C70 117.433 68.433 119 66.5 119H9.5C7.567 119 6 117.433 6 115.5V115.5Z" fill="#DCDCDC"/>
<path d="M6 126.5C6 124.567 7.567 123 9.5 123H66.5C68.433 123 70 124.567 70 126.5V126.5C70 128.433 68.433 130 66.5 130H9.5C7.567 130 6 128.433 6 126.5V126.5Z" fill="#DCDCDC"/>
<path d="M235 50.5C235 48.567 236.567 47 238.5 47H255.5C257.433 47 259 48.567 259 50.5V50.5C259 52.433 257.433 54 255.5 54H238.5C236.567 54 235 52.433 235 50.5V50.5Z" fill="#DCDCDC"/>
<rect x="101" y="123" width="188" height="88" stroke="#DCDCDC" stroke-width="2"/>
<rect width="418" height="22" fill="#DCDCDC"/>
<path d="M6 30.5C6 28.567 7.567 27 9.5 27H95.5C97.433 27 99 28.567 99 30.5V30.5C99 32.433 97.433 34 95.5 34H9.5C7.56701 34 6 32.433 6 30.5V30.5Z" fill="#DCDCDC"/>
<line y1="39.5" x2="418" y2="39.5" stroke="#DCDCDC" stroke-width="3"/>
<circle cx="195" cy="146" r="7.2381" stroke="#DCDCDC" stroke-width="2"/>
<path d="M200.833 141.714C199.516 139.924 197.393 138.762 195 138.762C191.002 138.762 187.762 142.002 187.762 146C187.762 149.997 191.002 153.238 195 153.238C197.393 153.238 199.516 152.076 200.833 150.286" stroke="#0059B3" stroke-width="2"/>
</svg>
