<svg width="418" height="256" viewBox="0 0 418 256" fill="none" xmlns="http://www.w3.org/2000/svg">
<rect width="418" height="256" fill="white"/>
<g clip-path="url(#clip0_14279_20987)">
<mask id="path-3-inside-1_14279_20987" fill="white">
<path d="M16 16H144.667V72H16V16Z"/>
</mask>
<path d="M16 16H144.667V72H16V16Z" fill="#F5F5F5"/>
<path d="M144.667 72V73H145.667V72H144.667ZM143.667 16V72H145.667V16H143.667ZM144.667 71H16V73H144.667V71Z" fill="#BFBFBF" mask="url(#path-3-inside-1_14279_20987)"/>
<path d="M37.696 40.704V50H35.584V40.704H32.416V38.832H40.864V40.704H37.696ZM43.4893 40.432C43.0626 40.432 42.7533 40.336 42.5613 40.144C42.3799 39.952 42.2893 39.7067 42.2893 39.408V39.088C42.2893 38.7893 42.3799 38.544 42.5613 38.352C42.7533 38.16 43.0626 38.064 43.4893 38.064C43.9053 38.064 44.2093 38.16 44.4013 38.352C44.5933 38.544 44.6893 38.7893 44.6893 39.088V39.408C44.6893 39.7067 44.5933 39.952 44.4013 40.144C44.2093 40.336 43.9053 40.432 43.4893 40.432ZM42.4653 41.648H44.5133V50H42.4653V41.648ZM49.4951 50C48.7911 50 48.2525 49.8187 47.8791 49.456C47.5165 49.0827 47.3351 48.5547 47.3351 47.872V43.28H46.1031V41.648H46.7431C47.0525 41.648 47.2605 41.5787 47.3671 41.44C47.4845 41.2907 47.5431 41.072 47.5431 40.784V39.36H49.3831V41.648H51.0951V43.28H49.3831V48.368H50.9671V50H49.4951ZM56.185 50.192C55.5663 50.192 55.0117 50.0907 54.521 49.888C54.041 49.6747 53.6303 49.3813 53.289 49.008C52.9583 48.624 52.7023 48.1653 52.521 47.632C52.3397 47.088 52.249 46.48 52.249 45.808C52.249 45.1467 52.3343 44.5493 52.505 44.016C52.6863 43.4827 52.9423 43.0293 53.273 42.656C53.6037 42.272 54.009 41.9787 54.489 41.776C54.969 41.5627 55.513 41.456 56.121 41.456C56.7717 41.456 57.337 41.568 57.817 41.792C58.297 42.016 58.6917 42.32 59.001 42.704C59.3103 43.088 59.5397 43.536 59.689 44.048C59.849 44.5493 59.929 45.088 59.929 45.664V46.336H54.377V46.544C54.377 47.152 54.5477 47.6427 54.889 48.016C55.2303 48.3787 55.737 48.56 56.409 48.56C56.921 48.56 57.337 48.4533 57.657 48.24C57.9877 48.0267 58.281 47.7547 58.537 47.424L59.641 48.656C59.2997 49.136 58.8303 49.5147 58.233 49.792C57.6463 50.0587 56.9637 50.192 56.185 50.192ZM56.153 42.992C55.609 42.992 55.177 43.1733 54.857 43.536C54.537 43.8987 54.377 44.368 54.377 44.944V45.072H57.801V44.928C57.801 44.352 57.657 43.888 57.369 43.536C57.0917 43.1733 56.6863 42.992 56.153 42.992ZM63.7789 50C63.0749 50 62.5575 49.824 62.2269 49.472C61.8962 49.12 61.7309 48.624 61.7309 47.984V38.16H63.7789V48.368H64.8829V50H63.7789ZM70.4873 50V48.288H73.5593V40.352H73.4153L70.9833 43.232L69.6713 42.128L72.4393 38.832H75.6233V48.288H78.1833V50H70.4873Z" fill="#1A1A1A"/>
<mask id="path-6-inside-2_14279_20987" fill="white">
<path d="M16 72H144.667V128H16V72Z"/>
</mask>
<path d="M16 72H144.667V128H16V72Z" fill="white"/>
<path d="M144.667 128V129H145.667V128H144.667ZM143.667 72V128H145.667V72H143.667ZM144.667 127H16V129H144.667V127Z" fill="#BFBFBF" mask="url(#path-6-inside-2_14279_20987)"/>
<mask id="path-8-inside-3_14279_20987" fill="white">
<path d="M16 128H144.667V184H16V128Z"/>
</mask>
<path d="M16 128H144.667V184H16V128Z" fill="white"/>
<path d="M144.667 184V185H145.667V184H144.667ZM143.667 128V184H145.667V128H143.667ZM144.667 183H16V185H144.667V183Z" fill="#BFBFBF" mask="url(#path-8-inside-3_14279_20987)"/>
<mask id="path-10-inside-4_14279_20987" fill="white">
<path d="M16 184H144.667V240H16V184Z"/>
</mask>
<path d="M16 184H144.667V240H16V184Z" fill="white"/>
<path d="M144.667 240V241H145.667V240H144.667ZM143.667 184V240H145.667V184H143.667ZM144.667 239H16V241H144.667V239Z" fill="#BFBFBF" mask="url(#path-10-inside-4_14279_20987)"/>
<mask id="path-12-inside-5_14279_20987" fill="white">
<path d="M144.666 16H273.333V72H144.666V16Z"/>
</mask>
<path d="M144.666 16H273.333V72H144.666V16Z" fill="#F5F5F5"/>
<path d="M273.333 72V73H274.333V72H273.333ZM272.333 16V72H274.333V16H272.333ZM273.333 71H144.666V73H273.333V71Z" fill="#BFBFBF" mask="url(#path-12-inside-5_14279_20987)"/>
<path d="M166.362 40.704V50H164.25V40.704H161.082V38.832H169.53V40.704H166.362ZM172.155 40.432C171.729 40.432 171.419 40.336 171.227 40.144C171.046 39.952 170.955 39.7067 170.955 39.408V39.088C170.955 38.7893 171.046 38.544 171.227 38.352C171.419 38.16 171.729 38.064 172.155 38.064C172.571 38.064 172.875 38.16 173.067 38.352C173.259 38.544 173.355 38.7893 173.355 39.088V39.408C173.355 39.7067 173.259 39.952 173.067 40.144C172.875 40.336 172.571 40.432 172.155 40.432ZM171.131 41.648H173.179V50H171.131V41.648ZM178.161 50C177.457 50 176.918 49.8187 176.545 49.456C176.182 49.0827 176.001 48.5547 176.001 47.872V43.28H174.769V41.648H175.409C175.718 41.648 175.926 41.5787 176.033 41.44C176.15 41.2907 176.209 41.072 176.209 40.784V39.36H178.049V41.648H179.761V43.28H178.049V48.368H179.633V50H178.161ZM184.851 50.192C184.232 50.192 183.678 50.0907 183.187 49.888C182.707 49.6747 182.296 49.3813 181.955 49.008C181.624 48.624 181.368 48.1653 181.187 47.632C181.006 47.088 180.915 46.48 180.915 45.808C180.915 45.1467 181 44.5493 181.171 44.016C181.352 43.4827 181.608 43.0293 181.939 42.656C182.27 42.272 182.675 41.9787 183.155 41.776C183.635 41.5627 184.179 41.456 184.787 41.456C185.438 41.456 186.003 41.568 186.483 41.792C186.963 42.016 187.358 42.32 187.667 42.704C187.976 43.088 188.206 43.536 188.355 44.048C188.515 44.5493 188.595 45.088 188.595 45.664V46.336H183.043V46.544C183.043 47.152 183.214 47.6427 183.555 48.016C183.896 48.3787 184.403 48.56 185.075 48.56C185.587 48.56 186.003 48.4533 186.323 48.24C186.654 48.0267 186.947 47.7547 187.203 47.424L188.307 48.656C187.966 49.136 187.496 49.5147 186.899 49.792C186.312 50.0587 185.63 50.192 184.851 50.192ZM184.819 42.992C184.275 42.992 183.843 43.1733 183.523 43.536C183.203 43.8987 183.043 44.368 183.043 44.944V45.072H186.467V44.928C186.467 44.352 186.323 43.888 186.035 43.536C185.758 43.1733 185.352 42.992 184.819 42.992ZM192.445 50C191.741 50 191.224 49.824 190.893 49.472C190.562 49.12 190.397 48.624 190.397 47.984V38.16H192.445V48.368H193.549V50H192.445ZM206.433 50H198.689V48.048L202.193 44.976C202.791 44.4533 203.228 43.984 203.505 43.568C203.783 43.1413 203.921 42.6827 203.921 42.192V41.984C203.921 41.4933 203.761 41.12 203.441 40.864C203.121 40.5973 202.732 40.464 202.273 40.464C201.697 40.464 201.26 40.6293 200.961 40.96C200.663 41.28 200.449 41.6693 200.321 42.128L198.497 41.424C198.615 41.0507 198.78 40.6987 198.993 40.368C199.207 40.0267 199.473 39.728 199.793 39.472C200.124 39.216 200.508 39.0133 200.945 38.864C201.383 38.7147 201.884 38.64 202.449 38.64C203.036 38.64 203.559 38.7253 204.017 38.896C204.476 39.056 204.86 39.2853 205.169 39.584C205.489 39.8827 205.729 40.2347 205.889 40.64C206.06 41.0453 206.145 41.488 206.145 41.968C206.145 42.4373 206.071 42.864 205.921 43.248C205.772 43.632 205.569 44 205.313 44.352C205.057 44.6933 204.759 45.024 204.417 45.344C204.076 45.6533 203.713 45.968 203.329 46.288L200.977 48.224H206.433V50Z" fill="#1A1A1A"/>
<mask id="path-15-inside-6_14279_20987" fill="white">
<path d="M144.666 72H273.333V128H144.666V72Z"/>
</mask>
<path d="M144.666 72H273.333V128H144.666V72Z" fill="white"/>
<path d="M273.333 128V129H274.333V128H273.333ZM272.333 72V128H274.333V72H272.333ZM273.333 127H144.666V129H273.333V127Z" fill="#BFBFBF" mask="url(#path-15-inside-6_14279_20987)"/>
<mask id="path-17-inside-7_14279_20987" fill="white">
<path d="M144.666 128H273.333V184H144.666V128Z"/>
</mask>
<path d="M144.666 128H273.333V184H144.666V128Z" fill="white"/>
<path d="M273.333 184V185H274.333V184H273.333ZM272.333 128V184H274.333V128H272.333ZM273.333 183H144.666V185H273.333V183Z" fill="#BFBFBF" mask="url(#path-17-inside-7_14279_20987)"/>
<mask id="path-19-inside-8_14279_20987" fill="white">
<path d="M144.666 184H273.333V240H144.666V184Z"/>
</mask>
<path d="M144.666 184H273.333V240H144.666V184Z" fill="white"/>
<path d="M273.333 240V241H274.333V240H273.333ZM272.333 184V240H274.333V184H272.333ZM273.333 239H144.666V241H273.333V239Z" fill="#BFBFBF" mask="url(#path-19-inside-8_14279_20987)"/>
<mask id="path-21-inside-9_14279_20987" fill="white">
<path d="M273.334 16H402.001V72H273.334V16Z"/>
</mask>
<path d="M273.334 16H402.001V72H273.334V16Z" fill="#F5F5F5"/>
<path d="M402.001 72V73H403.001V72H402.001ZM401.001 16V72H403.001V16H401.001ZM402.001 71H273.334V73H402.001V71Z" fill="#BFBFBF" mask="url(#path-21-inside-9_14279_20987)"/>
<path d="M295.03 40.704V50H292.918V40.704H289.75V38.832H298.198V40.704H295.03ZM300.823 40.432C300.397 40.432 300.087 40.336 299.895 40.144C299.714 39.952 299.623 39.7067 299.623 39.408V39.088C299.623 38.7893 299.714 38.544 299.895 38.352C300.087 38.16 300.397 38.064 300.823 38.064C301.239 38.064 301.543 38.16 301.735 38.352C301.927 38.544 302.023 38.7893 302.023 39.088V39.408C302.023 39.7067 301.927 39.952 301.735 40.144C301.543 40.336 301.239 40.432 300.823 40.432ZM299.799 41.648H301.847V50H299.799V41.648ZM306.829 50C306.125 50 305.586 49.8187 305.213 49.456C304.85 49.0827 304.669 48.5547 304.669 47.872V43.28H303.437V41.648H304.077C304.386 41.648 304.594 41.5787 304.701 41.44C304.818 41.2907 304.877 41.072 304.877 40.784V39.36H306.717V41.648H308.429V43.28H306.717V48.368H308.301V50H306.829ZM313.519 50.192C312.9 50.192 312.346 50.0907 311.855 49.888C311.375 49.6747 310.964 49.3813 310.623 49.008C310.292 48.624 310.036 48.1653 309.855 47.632C309.674 47.088 309.583 46.48 309.583 45.808C309.583 45.1467 309.668 44.5493 309.839 44.016C310.02 43.4827 310.276 43.0293 310.607 42.656C310.938 42.272 311.343 41.9787 311.823 41.776C312.303 41.5627 312.847 41.456 313.455 41.456C314.106 41.456 314.671 41.568 315.151 41.792C315.631 42.016 316.026 42.32 316.335 42.704C316.644 43.088 316.874 43.536 317.023 44.048C317.183 44.5493 317.263 45.088 317.263 45.664V46.336H311.711V46.544C311.711 47.152 311.882 47.6427 312.223 48.016C312.564 48.3787 313.071 48.56 313.743 48.56C314.255 48.56 314.671 48.4533 314.991 48.24C315.322 48.0267 315.615 47.7547 315.871 47.424L316.975 48.656C316.634 49.136 316.164 49.5147 315.567 49.792C314.98 50.0587 314.298 50.192 313.519 50.192ZM313.487 42.992C312.943 42.992 312.511 43.1733 312.191 43.536C311.871 43.8987 311.711 44.368 311.711 44.944V45.072H315.135V44.928C315.135 44.352 314.991 43.888 314.703 43.536C314.426 43.1733 314.02 42.992 313.487 42.992ZM321.113 50C320.409 50 319.892 49.824 319.561 49.472C319.23 49.12 319.065 48.624 319.065 47.984V38.16H321.113V48.368H322.217V50H321.113ZM330.557 43.344C331.197 43.344 331.667 43.216 331.965 42.96C332.275 42.6933 332.429 42.3573 332.429 41.952V41.84C332.429 41.3813 332.28 41.024 331.981 40.768C331.693 40.5013 331.293 40.368 330.781 40.368C330.291 40.368 329.853 40.4853 329.469 40.72C329.096 40.9547 328.771 41.2853 328.493 41.712L327.149 40.496C327.341 40.24 327.549 40 327.773 39.776C328.008 39.5413 328.275 39.344 328.573 39.184C328.872 39.0133 329.208 38.88 329.581 38.784C329.955 38.688 330.376 38.64 330.845 38.64C331.411 38.64 331.923 38.7093 332.381 38.848C332.851 38.976 333.251 39.168 333.581 39.424C333.923 39.68 334.184 39.9893 334.365 40.352C334.547 40.704 334.637 41.104 334.637 41.552C334.637 41.9147 334.579 42.24 334.461 42.528C334.355 42.816 334.2 43.0667 333.997 43.28C333.805 43.4933 333.576 43.6693 333.309 43.808C333.053 43.936 332.781 44.032 332.493 44.096V44.192C332.813 44.256 333.117 44.3573 333.405 44.496C333.693 44.6347 333.939 44.8213 334.141 45.056C334.355 45.28 334.52 45.5467 334.637 45.856C334.765 46.1653 334.829 46.5173 334.829 46.912C334.829 47.4027 334.728 47.8507 334.525 48.256C334.333 48.6613 334.056 49.008 333.693 49.296C333.331 49.584 332.899 49.808 332.397 49.968C331.896 50.1173 331.336 50.192 330.717 50.192C330.173 50.192 329.693 50.1333 329.277 50.016C328.861 49.9093 328.493 49.76 328.173 49.568C327.864 49.376 327.592 49.1573 327.357 48.912C327.123 48.656 326.92 48.3893 326.749 48.112L328.301 46.928C328.429 47.152 328.568 47.36 328.717 47.552C328.867 47.7333 329.037 47.8933 329.229 48.032C329.421 48.1707 329.64 48.2773 329.885 48.352C330.131 48.4267 330.408 48.464 330.717 48.464C331.336 48.464 331.811 48.3147 332.141 48.016C332.472 47.7173 332.637 47.3067 332.637 46.784V46.672C332.637 46.16 332.456 45.7707 332.093 45.504C331.741 45.2373 331.229 45.104 330.557 45.104H329.453V43.344H330.557Z" fill="#1A1A1A"/>
<mask id="path-24-inside-10_14279_20987" fill="white">
<path d="M273.334 72H402.001V128H273.334V72Z"/>
</mask>
<path d="M273.334 72H402.001V128H273.334V72Z" fill="white"/>
<path d="M402.001 128V129H403.001V128H402.001ZM401.001 72V128H403.001V72H401.001ZM402.001 127H273.334V129H402.001V127Z" fill="#BFBFBF" mask="url(#path-24-inside-10_14279_20987)"/>
<mask id="path-26-inside-11_14279_20987" fill="white">
<path d="M273.334 128H402.001V184H273.334V128Z"/>
</mask>
<path d="M273.334 128H402.001V184H273.334V128Z" fill="white"/>
<path d="M402.001 184V185H403.001V184H402.001ZM401.001 128V184H403.001V128H401.001ZM402.001 183H273.334V185H402.001V183Z" fill="#BFBFBF" mask="url(#path-26-inside-11_14279_20987)"/>
<mask id="path-28-inside-12_14279_20987" fill="white">
<path d="M273.334 184H402.001V240H273.334V184Z"/>
</mask>
<path d="M273.334 184H402.001V240H273.334V184Z" fill="white"/>
<path d="M402.001 240V241H403.001V240H402.001ZM401.001 184V240H403.001V184H401.001ZM402.001 239H273.334V241H402.001V239Z" fill="#BFBFBF" mask="url(#path-28-inside-12_14279_20987)"/>
<path d="M289 206C289 203.791 290.791 202 293 202H381C383.209 202 385 203.791 385 206V218C385 220.209 383.209 222 381 222H293C290.791 222 289 220.209 289 218V206Z" fill="#DCDCDC"/>
<path d="M289 150C289 147.791 290.791 146 293 146H381C383.209 146 385 147.791 385 150V162C385 164.209 383.209 166 381 166H293C290.791 166 289 164.209 289 162V150Z" fill="#DCDCDC"/>
<path d="M289 94C289 91.7909 290.791 90 293 90H381C383.209 90 385 91.7909 385 94V106C385 108.209 383.209 110 381 110H293C290.791 110 289 108.209 289 106V94Z" fill="#DCDCDC"/>
<path d="M32 206C32 203.791 33.7909 202 36 202H124C126.209 202 128 203.791 128 206V218C128 220.209 126.209 222 124 222H36C33.7909 222 32 220.209 32 218V206Z" fill="#DCDCDC"/>
<path d="M161 206C161 203.791 162.791 202 165 202H253C255.209 202 257 203.791 257 206V218C257 220.209 255.209 222 253 222H165C162.791 222 161 220.209 161 218V206Z" fill="#DCDCDC"/>
<path d="M32 150C32 147.791 33.7909 146 36 146H124C126.209 146 128 147.791 128 150V162C128 164.209 126.209 166 124 166H36C33.7909 166 32 164.209 32 162V150Z" fill="#DCDCDC"/>
<path d="M161 150C161 147.791 162.791 146 165 146H253C255.209 146 257 147.791 257 150V162C257 164.209 255.209 166 253 166H165C162.791 166 161 164.209 161 162V150Z" fill="#DCDCDC"/>
<path d="M32 94C32 91.7909 33.7909 90 36 90H124C126.209 90 128 91.7909 128 94V106C128 108.209 126.209 110 124 110H36C33.7909 110 32 108.209 32 106V94Z" fill="#DCDCDC"/>
<path d="M161 94C161 91.7909 162.791 90 165 90H253C255.209 90 257 91.7909 257 94V106C257 108.209 255.209 110 253 110H165C162.791 110 161 108.209 161 106V94Z" fill="#DCDCDC"/>
</g>
<rect x="16.5" y="16.5" width="385" height="223" stroke="#8E8E8E"/>
<defs>
<clipPath id="clip0_14279_20987">
<rect x="16" y="16" width="386" height="224" fill="white"/>
</clipPath>
</defs>
</svg>
