<svg width="418" height="332" viewBox="0 0 418 332" fill="none" xmlns="http://www.w3.org/2000/svg">
<rect width="418" height="332" fill="white"/>
<path d="M16 144C16 141.791 17.7909 140 20 140H397C399.209 140 401 141.791 401 144V156C401 158.209 399.209 160 397 160H20C17.7909 160 16 158.209 16 156V144Z" fill="#DCDCDC"/>
<path d="M16 168C16 165.791 17.7909 164 20 164H397C399.209 164 401 165.791 401 168V180C401 182.209 399.209 184 397 184H20C17.7909 184 16 182.209 16 180V168Z" fill="#DCDCDC"/>
<path d="M16 36C16 33.7909 17.7909 32 20 32H398C400.209 32 402 33.7909 402 36V48C402 50.2091 400.209 52 398 52H20C17.7909 52 16 50.2091 16 48V36Z" fill="#DCDCDC"/>
<path d="M16 60C16 57.7909 17.7909 56 20 56H398C400.209 56 402 57.7909 402 60V72C402 74.2091 400.209 76 398 76H20C17.7909 76 16 74.2091 16 72V60Z" fill="#DCDCDC"/>
<path d="M16 84C16 81.7909 17.7909 80 20 80H300C302.209 80 304 81.7909 304 84V96C304 98.2091 302.209 100 300 100H20C17.7909 100 16 98.2091 16 96V84Z" fill="#DCDCDC"/>
<path d="M16 128C16 125.791 17.7909 124 20 124H130C132.209 124 134 125.791 134 128V132C134 134.209 132.209 136 130 136H20C17.7909 136 16 134.209 16 132V128Z" fill="#DCDCDC"/>
<path d="M16 20C16 17.7909 17.7909 16 20 16H130C132.209 16 134 17.7909 134 20V24C134 26.2091 132.209 28 130 28H20C17.7909 28 16 26.2091 16 24V20Z" fill="#DCDCDC"/>
<path d="M355 300V297H347V300H345V295H357V300H355ZM357 304.5C357.283 304.5 357.521 304.404 357.712 304.213C357.904 304.021 358 303.783 358 303.5C358 303.217 357.904 302.979 357.712 302.787C357.521 302.596 357.283 302.5 357 302.5C356.717 302.5 356.479 302.596 356.288 302.787C356.096 302.979 356 303.217 356 303.5C356 303.783 356.096 304.021 356.288 304.213C356.479 304.404 356.717 304.5 357 304.5ZM355 311V307H347V311H355ZM357 313H345V309H341V303C341 302.15 341.292 301.438 341.875 300.863C342.458 300.288 343.167 300 344 300H358C358.85 300 359.562 300.288 360.138 300.863C360.713 301.438 361 302.15 361 303V309H357V313ZM359 307V303C359 302.717 358.904 302.479 358.712 302.287C358.521 302.096 358.283 302 358 302H344C343.717 302 343.479 302.096 343.288 302.287C343.096 302.479 343 302.717 343 303V307H345V305H357V307H359Z" fill="#1A1A1A"/>
<path d="M368.488 310V298.832H372.936C373.939 298.832 374.707 299.12 375.24 299.696C375.784 300.261 376.056 301.04 376.056 302.032C376.056 303.024 375.784 303.808 375.24 304.384C374.707 304.949 373.939 305.232 372.936 305.232H369.832V310H368.488ZM369.832 304.048H372.936C373.469 304.048 373.88 303.909 374.168 303.632C374.467 303.355 374.616 302.96 374.616 302.448V301.616C374.616 301.104 374.467 300.709 374.168 300.432C373.88 300.155 373.469 300.016 372.936 300.016H369.832V304.048ZM377.907 310V301.744H379.187V303.264H379.267C379.416 302.869 379.683 302.517 380.067 302.208C380.451 301.899 380.979 301.744 381.651 301.744H382.147V303.024H381.395C380.702 303.024 380.158 303.157 379.763 303.424C379.379 303.68 379.187 304.005 379.187 304.4V310H377.907ZM384.422 299.808C384.145 299.808 383.942 299.744 383.814 299.616C383.697 299.477 383.638 299.301 383.638 299.088V298.88C383.638 298.667 383.697 298.496 383.814 298.368C383.942 298.229 384.145 298.16 384.422 298.16C384.699 298.16 384.897 298.229 385.014 298.368C385.142 298.496 385.206 298.667 385.206 298.88V299.088C385.206 299.301 385.142 299.477 385.014 299.616C384.897 299.744 384.699 299.808 384.422 299.808ZM383.782 301.744H385.062V310H383.782V301.744ZM387.782 310V301.744H389.062V303.088H389.126C389.329 302.619 389.611 302.245 389.974 301.968C390.347 301.691 390.843 301.552 391.462 301.552C392.315 301.552 392.987 301.829 393.478 302.384C393.979 302.928 394.23 303.701 394.23 304.704V310H392.95V304.928C392.95 303.445 392.326 302.704 391.078 302.704C390.822 302.704 390.571 302.736 390.326 302.8C390.091 302.864 389.878 302.96 389.686 303.088C389.494 303.216 389.339 303.381 389.222 303.584C389.115 303.776 389.062 304.005 389.062 304.272V310H387.782ZM398.7 310C398.252 310 397.91 309.877 397.676 309.632C397.452 309.376 397.34 309.045 397.34 308.64V302.864H395.98V301.744H396.748C397.025 301.744 397.212 301.691 397.308 301.584C397.414 301.467 397.468 301.269 397.468 300.992V299.456H398.62V301.744H400.428V302.864H398.62V308.88H400.3V310H398.7Z" fill="#1A1A1A"/>
<path d="M367 312H401.132V312.96H367V312Z" fill="#1A1A1A"/>
<path d="M16 228C16 225.791 17.7909 224 20 224H397C399.209 224 401 225.791 401 228V240C401 242.209 399.209 244 397 244H20C17.7909 244 16 242.209 16 240V228Z" fill="#DCDCDC"/>
<path d="M16 252C16 249.791 17.7909 248 20 248H300C302.209 248 304 249.791 304 252V264C304 266.209 302.209 268 300 268H20C17.7909 268 16 266.209 16 264V252Z" fill="#DCDCDC"/>
<path d="M16 212C16 209.791 17.7909 208 20 208H130C132.209 208 134 209.791 134 212V216C134 218.209 132.209 220 130 220H20C17.7909 220 16 218.209 16 216V212Z" fill="#DCDCDC"/>
</svg>
