<svg width="418" height="428" viewBox="0 0 418 428" fill="none" xmlns="http://www.w3.org/2000/svg">
<rect width="418" height="428" fill="white"/>
<path d="M23.472 22.832V30.864C23.472 31.3653 23.3867 31.8187 23.216 32.224C23.056 32.6293 22.8213 32.976 22.512 33.264C22.2133 33.552 21.8453 33.776 21.408 33.936C20.9707 34.096 20.48 34.176 19.936 34.176C18.9013 34.176 18.096 33.9093 17.52 33.376C16.944 32.832 16.576 32.112 16.416 31.216L18.368 30.816C18.464 31.296 18.6347 31.6693 18.88 31.936C19.136 32.192 19.4827 32.32 19.92 32.32C20.336 32.32 20.6773 32.192 20.944 31.936C21.2213 31.6693 21.36 31.264 21.36 30.72V24.56H17.84V22.832H23.472ZM29.2788 34.192C28.6601 34.192 28.1054 34.0907 27.6148 33.888C27.1348 33.6747 26.7241 33.3813 26.3828 33.008C26.0521 32.624 25.7961 32.1653 25.6148 31.632C25.4334 31.088 25.3428 30.48 25.3428 29.808C25.3428 29.1467 25.4281 28.5493 25.5988 28.016C25.7801 27.4827 26.0361 27.0293 26.3668 26.656C26.6974 26.272 27.1028 25.9787 27.5828 25.776C28.0628 25.5627 28.6068 25.456 29.2148 25.456C29.8654 25.456 30.4308 25.568 30.9108 25.792C31.3908 26.016 31.7854 26.32 32.0948 26.704C32.4041 27.088 32.6334 27.536 32.7828 28.048C32.9428 28.5493 33.0228 29.088 33.0228 29.664V30.336H27.4708V30.544C27.4708 31.152 27.6414 31.6427 27.9828 32.016C28.3241 32.3787 28.8308 32.56 29.5028 32.56C30.0148 32.56 30.4308 32.4533 30.7508 32.24C31.0814 32.0267 31.3748 31.7547 31.6308 31.424L32.7348 32.656C32.3934 33.136 31.9241 33.5147 31.3268 33.792C30.7401 34.0587 30.0574 34.192 29.2788 34.192ZM29.2468 26.992C28.7028 26.992 28.2708 27.1733 27.9508 27.536C27.6308 27.8987 27.4708 28.368 27.4708 28.944V29.072H30.8948V28.928C30.8948 28.352 30.7508 27.888 30.4628 27.536C30.1854 27.1733 29.7801 26.992 29.2468 26.992ZM42.3606 34.704C42.3606 35.1413 42.2806 35.5253 42.1206 35.856C41.9713 36.1973 41.7206 36.48 41.3686 36.704C41.0166 36.928 40.5633 37.0987 40.0086 37.216C39.454 37.3333 38.7766 37.392 37.9766 37.392C37.2726 37.392 36.6753 37.344 36.1846 37.248C35.694 37.1627 35.2886 37.0347 34.9686 36.864C34.6593 36.704 34.4353 36.5013 34.2966 36.256C34.158 36.0107 34.0886 35.7333 34.0886 35.424C34.0886 34.9547 34.2166 34.5867 34.4726 34.32C34.7393 34.064 35.1073 33.8987 35.5766 33.824V33.648C35.2353 33.5627 34.9686 33.3973 34.7766 33.152C34.5953 32.896 34.5046 32.5973 34.5046 32.256C34.5046 32.0427 34.5473 31.856 34.6326 31.696C34.718 31.5253 34.83 31.3813 34.9686 31.264C35.118 31.1467 35.2833 31.0507 35.4646 30.976C35.646 30.8907 35.838 30.8267 36.0406 30.784V30.72C35.5286 30.4853 35.1446 30.16 34.8886 29.744C34.6433 29.328 34.5206 28.8427 34.5206 28.288C34.5206 27.4347 34.814 26.752 35.4006 26.24C35.9873 25.7173 36.846 25.456 37.9766 25.456C38.2326 25.456 38.4833 25.472 38.7286 25.504C38.9846 25.536 39.2193 25.5893 39.4326 25.664V25.392C39.4326 24.5813 39.8273 24.176 40.6166 24.176H41.9126V25.744H40.1366V25.968C40.574 26.2133 40.8993 26.5333 41.1126 26.928C41.326 27.3227 41.4326 27.776 41.4326 28.288C41.4326 29.1307 41.1393 29.808 40.5526 30.32C39.9766 30.832 39.118 31.088 37.9766 31.088C37.486 31.088 37.0593 31.04 36.6966 30.944C36.5366 31.0187 36.398 31.12 36.2806 31.248C36.1633 31.3653 36.1046 31.5147 36.1046 31.696C36.1046 32.112 36.4673 32.32 37.1926 32.32H39.4326C40.4566 32.32 41.198 32.5333 41.6566 32.96C42.126 33.376 42.3606 33.9573 42.3606 34.704ZM40.4406 34.944C40.4406 34.6773 40.334 34.4693 40.1206 34.32C39.9073 34.1707 39.5393 34.096 39.0166 34.096H36.1686C35.8806 34.3093 35.7366 34.5973 35.7366 34.96C35.7366 35.28 35.87 35.5307 36.1366 35.712C36.4033 35.8933 36.8566 35.984 37.4966 35.984H38.5206C39.1926 35.984 39.678 35.8987 39.9766 35.728C40.286 35.5573 40.4406 35.296 40.4406 34.944ZM37.9766 29.696C38.9793 29.696 39.4806 29.2693 39.4806 28.416V28.144C39.4806 27.2907 38.9793 26.864 37.9766 26.864C36.974 26.864 36.4726 27.2907 36.4726 28.144V28.416C36.4726 29.2693 36.974 29.696 37.9766 29.696ZM49.1166 34L46.3326 25.648H48.3486L49.5166 29.248L50.3326 32.224H50.4446L51.2606 29.248L52.3966 25.648H54.3486L51.5486 34H49.1166ZM56.7393 24.432C56.3126 24.432 56.0033 24.336 55.8113 24.144C55.6299 23.952 55.5393 23.7067 55.5393 23.408V23.088C55.5393 22.7893 55.6299 22.544 55.8113 22.352C56.0033 22.16 56.3126 22.064 56.7393 22.064C57.1553 22.064 57.4593 22.16 57.6513 22.352C57.8433 22.544 57.9393 22.7893 57.9393 23.088V23.408C57.9393 23.7067 57.8433 23.952 57.6513 24.144C57.4593 24.336 57.1553 24.432 56.7393 24.432ZM55.7153 25.648H57.7633V34H55.7153V25.648ZM62.1851 34C61.4811 34 60.9638 33.824 60.6331 33.472C60.3025 33.12 60.1371 32.624 60.1371 31.984V22.16H62.1851V32.368H63.2891V34H62.1851ZM76.1575 34.704C76.1575 35.1413 76.0775 35.5253 75.9175 35.856C75.7682 36.1973 75.5175 36.48 75.1655 36.704C74.8135 36.928 74.3602 37.0987 73.8055 37.216C73.2508 37.3333 72.5735 37.392 71.7735 37.392C71.0695 37.392 70.4722 37.344 69.9815 37.248C69.4908 37.1627 69.0855 37.0347 68.7655 36.864C68.4562 36.704 68.2322 36.5013 68.0935 36.256C67.9548 36.0107 67.8855 35.7333 67.8855 35.424C67.8855 34.9547 68.0135 34.5867 68.2695 34.32C68.5362 34.064 68.9042 33.8987 69.3735 33.824V33.648C69.0322 33.5627 68.7655 33.3973 68.5735 33.152C68.3922 32.896 68.3015 32.5973 68.3015 32.256C68.3015 32.0427 68.3442 31.856 68.4295 31.696C68.5148 31.5253 68.6268 31.3813 68.7655 31.264C68.9148 31.1467 69.0802 31.0507 69.2615 30.976C69.4428 30.8907 69.6348 30.8267 69.8375 30.784V30.72C69.3255 30.4853 68.9415 30.16 68.6855 29.744C68.4402 29.328 68.3175 28.8427 68.3175 28.288C68.3175 27.4347 68.6108 26.752 69.1975 26.24C69.7842 25.7173 70.6428 25.456 71.7735 25.456C72.0295 25.456 72.2802 25.472 72.5255 25.504C72.7815 25.536 73.0162 25.5893 73.2295 25.664V25.392C73.2295 24.5813 73.6242 24.176 74.4135 24.176H75.7095V25.744H73.9335V25.968C74.3708 26.2133 74.6962 26.5333 74.9095 26.928C75.1228 27.3227 75.2295 27.776 75.2295 28.288C75.2295 29.1307 74.9362 29.808 74.3495 30.32C73.7735 30.832 72.9148 31.088 71.7735 31.088C71.2828 31.088 70.8562 31.04 70.4935 30.944C70.3335 31.0187 70.1948 31.12 70.0775 31.248C69.9602 31.3653 69.9015 31.5147 69.9015 31.696C69.9015 32.112 70.2642 32.32 70.9895 32.32H73.2295C74.2535 32.32 74.9948 32.5333 75.4535 32.96C75.9228 33.376 76.1575 33.9573 76.1575 34.704ZM74.2375 34.944C74.2375 34.6773 74.1308 34.4693 73.9175 34.32C73.7042 34.1707 73.3362 34.096 72.8135 34.096H69.9655C69.6775 34.3093 69.5335 34.5973 69.5335 34.96C69.5335 35.28 69.6668 35.5307 69.9335 35.712C70.2002 35.8933 70.6535 35.984 71.2935 35.984H72.3175C72.9895 35.984 73.4748 35.8987 73.7735 35.728C74.0828 35.5573 74.2375 35.296 74.2375 34.944ZM71.7735 29.696C72.7762 29.696 73.2775 29.2693 73.2775 28.416V28.144C73.2775 27.2907 72.7762 26.864 71.7735 26.864C70.7708 26.864 70.2695 27.2907 70.2695 28.144V28.416C70.2695 29.2693 70.7708 29.696 71.7735 29.696ZM80.6225 34.192C80.0038 34.192 79.4492 34.0907 78.9585 33.888C78.4785 33.6747 78.0678 33.3813 77.7265 33.008C77.3958 32.624 77.1398 32.1653 76.9585 31.632C76.7772 31.088 76.6865 30.48 76.6865 29.808C76.6865 29.1467 76.7718 28.5493 76.9425 28.016C77.1238 27.4827 77.3798 27.0293 77.7105 26.656C78.0412 26.272 78.4465 25.9787 78.9265 25.776C79.4065 25.5627 79.9505 25.456 80.5585 25.456C81.2092 25.456 81.7745 25.568 82.2545 25.792C82.7345 26.016 83.1292 26.32 83.4385 26.704C83.7478 27.088 83.9772 27.536 84.1265 28.048C84.2865 28.5493 84.3665 29.088 84.3665 29.664V30.336H78.8145V30.544C78.8145 31.152 78.9852 31.6427 79.3265 32.016C79.6678 32.3787 80.1745 32.56 80.8465 32.56C81.3585 32.56 81.7745 32.4533 82.0945 32.24C82.4252 32.0267 82.7185 31.7547 82.9745 31.424L84.0785 32.656C83.7372 33.136 83.2678 33.5147 82.6705 33.792C82.0838 34.0587 81.4012 34.192 80.6225 34.192ZM80.5905 26.992C80.0465 26.992 79.6145 27.1733 79.2945 27.536C78.9745 27.8987 78.8145 28.368 78.8145 28.944V29.072H82.2385V28.928C82.2385 28.352 82.0945 27.888 81.8065 27.536C81.5292 27.1733 81.1238 26.992 80.5905 26.992ZM86.1684 34V25.648H88.2164V27.376H88.2964C88.3497 27.152 88.4297 26.9387 88.5364 26.736C88.6537 26.5227 88.803 26.336 88.9844 26.176C89.1657 26.016 89.379 25.888 89.6244 25.792C89.8804 25.696 90.1737 25.648 90.5044 25.648H90.9524V27.584H90.3124C89.619 27.584 89.0964 27.6853 88.7444 27.888C88.3924 28.0907 88.2164 28.4213 88.2164 28.88V34H86.1684ZM92.4496 34V25.648H94.4976V27.04H94.5776C94.7483 26.592 95.015 26.2187 95.3776 25.92C95.751 25.6107 96.263 25.456 96.9136 25.456C97.7776 25.456 98.439 25.7387 98.8976 26.304C99.3563 26.8693 99.5856 27.6747 99.5856 28.72V34H97.5376V28.928C97.5376 28.3307 97.431 27.8827 97.2176 27.584C97.0043 27.2853 96.6523 27.136 96.1616 27.136C95.9483 27.136 95.7403 27.168 95.5376 27.232C95.3456 27.2853 95.1696 27.3707 95.0096 27.488C94.8603 27.5947 94.7376 27.7333 94.6416 27.904C94.5456 28.064 94.4976 28.256 94.4976 28.48V34H92.4496ZM105.232 34.192C104.613 34.192 104.059 34.0907 103.568 33.888C103.088 33.6747 102.677 33.3813 102.336 33.008C102.005 32.624 101.749 32.1653 101.568 31.632C101.387 31.088 101.296 30.48 101.296 29.808C101.296 29.1467 101.381 28.5493 101.552 28.016C101.733 27.4827 101.989 27.0293 102.32 26.656C102.651 26.272 103.056 25.9787 103.536 25.776C104.016 25.5627 104.56 25.456 105.168 25.456C105.819 25.456 106.384 25.568 106.864 25.792C107.344 26.016 107.739 26.32 108.048 26.704C108.357 27.088 108.587 27.536 108.736 28.048C108.896 28.5493 108.976 29.088 108.976 29.664V30.336H103.424V30.544C103.424 31.152 103.595 31.6427 103.936 32.016C104.277 32.3787 104.784 32.56 105.456 32.56C105.968 32.56 106.384 32.4533 106.704 32.24C107.035 32.0267 107.328 31.7547 107.584 31.424L108.688 32.656C108.347 33.136 107.877 33.5147 107.28 33.792C106.693 34.0587 106.011 34.192 105.232 34.192ZM105.2 26.992C104.656 26.992 104.224 27.1733 103.904 27.536C103.584 27.8987 103.424 28.368 103.424 28.944V29.072H106.848V28.928C106.848 28.352 106.704 27.888 106.416 27.536C106.139 27.1733 105.733 26.992 105.2 26.992ZM114.559 22.16H116.607V29.296H116.687L117.791 27.792L119.663 25.648H121.983L119.103 28.88L122.287 34H119.855L117.711 30.256L116.607 31.456V34H114.559V22.16ZM126.465 34.192C125.867 34.192 125.329 34.0907 124.849 33.888C124.379 33.6853 123.974 33.392 123.633 33.008C123.302 32.624 123.046 32.1653 122.865 31.632C122.683 31.088 122.593 30.48 122.593 29.808C122.593 29.136 122.683 28.5333 122.865 28C123.046 27.4667 123.302 27.0133 123.633 26.64C123.974 26.256 124.379 25.9627 124.849 25.76C125.329 25.5573 125.867 25.456 126.465 25.456C127.062 25.456 127.601 25.5573 128.081 25.76C128.561 25.9627 128.966 26.256 129.297 26.64C129.638 27.0133 129.899 27.4667 130.081 28C130.262 28.5333 130.353 29.136 130.353 29.808C130.353 30.48 130.262 31.088 130.081 31.632C129.899 32.1653 129.638 32.624 129.297 33.008C128.966 33.392 128.561 33.6853 128.081 33.888C127.601 34.0907 127.062 34.192 126.465 34.192ZM126.465 32.544C127.009 32.544 127.435 32.3787 127.745 32.048C128.054 31.7173 128.209 31.232 128.209 30.592V29.04C128.209 28.4107 128.054 27.9307 127.745 27.6C127.435 27.2693 127.009 27.104 126.465 27.104C125.931 27.104 125.51 27.2693 125.201 27.6C124.891 27.9307 124.737 28.4107 124.737 29.04V30.592C124.737 31.232 124.891 31.7173 125.201 32.048C125.51 32.3787 125.931 32.544 126.465 32.544ZM132.168 34V25.648H134.216V27.04H134.296C134.467 26.592 134.734 26.2187 135.096 25.92C135.47 25.6107 135.982 25.456 136.632 25.456C137.496 25.456 138.158 25.7387 138.616 26.304C139.075 26.8693 139.304 27.6747 139.304 28.72V34H137.256V28.928C137.256 28.3307 137.15 27.8827 136.936 27.584C136.723 27.2853 136.371 27.136 135.88 27.136C135.667 27.136 135.459 27.168 135.256 27.232C135.064 27.2853 134.888 27.3707 134.728 27.488C134.579 27.5947 134.456 27.7333 134.36 27.904C134.264 28.064 134.216 28.256 134.216 28.48V34H132.168ZM144.183 34C143.479 34 142.94 33.8187 142.567 33.456C142.204 33.0827 142.023 32.5547 142.023 31.872V27.28H140.791V25.648H141.431C141.74 25.648 141.948 25.5787 142.055 25.44C142.172 25.2907 142.231 25.072 142.231 24.784V23.36H144.071V25.648H145.783V27.28H144.071V32.368H145.655V34H144.183ZM153.703 34C153.255 34 152.898 33.872 152.631 33.616C152.375 33.3493 152.215 32.9973 152.151 32.56H152.055C151.916 33.104 151.634 33.5147 151.207 33.792C150.78 34.0587 150.252 34.192 149.623 34.192C148.77 34.192 148.114 33.968 147.655 33.52C147.196 33.072 146.967 32.4747 146.967 31.728C146.967 30.864 147.276 30.224 147.895 29.808C148.514 29.3813 149.394 29.168 150.535 29.168H151.959V28.56C151.959 28.0907 151.836 27.728 151.591 27.472C151.346 27.216 150.951 27.088 150.407 27.088C149.927 27.088 149.538 27.1947 149.239 27.408C148.951 27.6107 148.706 27.856 148.503 28.144L147.287 27.056C147.596 26.576 148.007 26.192 148.519 25.904C149.031 25.6053 149.708 25.456 150.551 25.456C151.682 25.456 152.54 25.712 153.127 26.224C153.714 26.736 154.007 27.472 154.007 28.432V32.368H154.839V34H153.703ZM150.311 32.704C150.77 32.704 151.159 32.6027 151.479 32.4C151.799 32.1973 151.959 31.8987 151.959 31.504V30.4H150.647C149.58 30.4 149.047 30.7413 149.047 31.424V31.696C149.047 32.0373 149.154 32.2933 149.367 32.464C149.591 32.624 149.906 32.704 150.311 32.704ZM156.497 22.16H158.545V29.296H158.625L159.729 27.792L161.601 25.648H163.921L161.041 28.88L164.225 34H161.793L159.649 30.256L158.545 31.456V34H156.497V22.16ZM167.933 34C167.229 34 166.69 33.8187 166.317 33.456C165.954 33.0827 165.773 32.5547 165.773 31.872V27.28H164.541V25.648H165.181C165.49 25.648 165.698 25.5787 165.805 25.44C165.922 25.2907 165.981 25.072 165.981 24.784V23.36H167.821V25.648H169.533V27.28H167.821V32.368H169.405V34H167.933ZM174.623 34.192C174.004 34.192 173.449 34.0907 172.959 33.888C172.479 33.6747 172.068 33.3813 171.727 33.008C171.396 32.624 171.14 32.1653 170.959 31.632C170.777 31.088 170.687 30.48 170.687 29.808C170.687 29.1467 170.772 28.5493 170.943 28.016C171.124 27.4827 171.38 27.0293 171.711 26.656C172.041 26.272 172.447 25.9787 172.927 25.776C173.407 25.5627 173.951 25.456 174.559 25.456C175.209 25.456 175.775 25.568 176.255 25.792C176.735 26.016 177.129 26.32 177.439 26.704C177.748 27.088 177.977 27.536 178.127 28.048C178.287 28.5493 178.367 29.088 178.367 29.664V30.336H172.815V30.544C172.815 31.152 172.985 31.6427 173.327 32.016C173.668 32.3787 174.175 32.56 174.847 32.56C175.359 32.56 175.775 32.4533 176.095 32.24C176.425 32.0267 176.719 31.7547 176.975 31.424L178.079 32.656C177.737 33.136 177.268 33.5147 176.671 33.792C176.084 34.0587 175.401 34.192 174.623 34.192ZM174.591 26.992C174.047 26.992 173.615 27.1733 173.295 27.536C172.975 27.8987 172.815 28.368 172.815 28.944V29.072H176.239V28.928C176.239 28.352 176.095 27.888 175.807 27.536C175.529 27.1733 175.124 26.992 174.591 26.992ZM182.904 34.192C182.104 34.192 181.432 34.0587 180.888 33.792C180.344 33.5147 179.864 33.136 179.448 32.656L180.696 31.44C181.006 31.792 181.342 32.0693 181.704 32.272C182.078 32.4747 182.504 32.576 182.984 32.576C183.475 32.576 183.827 32.4907 184.04 32.32C184.264 32.1493 184.376 31.9147 184.376 31.616C184.376 31.3707 184.296 31.1787 184.136 31.04C183.987 30.8907 183.726 30.7893 183.352 30.736L182.52 30.624C181.614 30.5067 180.92 30.2507 180.44 29.856C179.971 29.4507 179.736 28.864 179.736 28.096C179.736 27.6907 179.811 27.328 179.96 27.008C180.11 26.6773 180.323 26.4 180.6 26.176C180.878 25.9413 181.208 25.7653 181.592 25.648C181.987 25.52 182.424 25.456 182.904 25.456C183.31 25.456 183.667 25.488 183.976 25.552C184.296 25.6053 184.584 25.6907 184.84 25.808C185.096 25.9147 185.331 26.0533 185.544 26.224C185.758 26.384 185.966 26.5653 186.168 26.768L184.968 27.968C184.723 27.712 184.43 27.4987 184.088 27.328C183.747 27.1573 183.374 27.072 182.968 27.072C182.52 27.072 182.195 27.152 181.992 27.312C181.8 27.472 181.704 27.68 181.704 27.936C181.704 28.2133 181.784 28.4267 181.944 28.576C182.115 28.7147 182.398 28.816 182.792 28.88L183.64 28.992C185.443 29.248 186.344 30.0693 186.344 31.456C186.344 31.8613 186.259 32.2347 186.088 32.576C185.928 32.9067 185.699 33.1947 185.4 33.44C185.102 33.6747 184.739 33.8613 184.312 34C183.896 34.128 183.427 34.192 182.904 34.192ZM191.934 25.648H193.982V27.024H194.046C194.195 26.544 194.478 26.1653 194.894 25.888C195.31 25.6 195.795 25.456 196.35 25.456C197.417 25.456 198.227 25.8347 198.782 26.592C199.347 27.3387 199.63 28.4107 199.63 29.808C199.63 31.216 199.347 32.2987 198.782 33.056C198.227 33.8133 197.417 34.192 196.35 34.192C195.795 34.192 195.31 34.048 194.894 33.76C194.489 33.472 194.206 33.088 194.046 32.608H193.982V37.2H191.934V25.648ZM195.694 32.496C196.227 32.496 196.659 32.32 196.99 31.968C197.321 31.616 197.486 31.1413 197.486 30.544V29.104C197.486 28.5067 197.321 28.032 196.99 27.68C196.659 27.3173 196.227 27.136 195.694 27.136C195.203 27.136 194.793 27.2587 194.462 27.504C194.142 27.7493 193.982 28.0747 193.982 28.48V31.136C193.982 31.5733 194.142 31.9093 194.462 32.144C194.793 32.3787 195.203 32.496 195.694 32.496ZM204.904 34.192C204.285 34.192 203.73 34.0907 203.24 33.888C202.76 33.6747 202.349 33.3813 202.008 33.008C201.677 32.624 201.421 32.1653 201.24 31.632C201.058 31.088 200.968 30.48 200.968 29.808C200.968 29.1467 201.053 28.5493 201.224 28.016C201.405 27.4827 201.661 27.0293 201.992 26.656C202.322 26.272 202.728 25.9787 203.208 25.776C203.688 25.5627 204.232 25.456 204.84 25.456C205.49 25.456 206.056 25.568 206.536 25.792C207.016 26.016 207.41 26.32 207.72 26.704C208.029 27.088 208.258 27.536 208.408 28.048C208.568 28.5493 208.648 29.088 208.648 29.664V30.336H203.096V30.544C203.096 31.152 203.266 31.6427 203.608 32.016C203.949 32.3787 204.456 32.56 205.128 32.56C205.64 32.56 206.056 32.4533 206.376 32.24C206.706 32.0267 207 31.7547 207.256 31.424L208.36 32.656C208.018 33.136 207.549 33.5147 206.952 33.792C206.365 34.0587 205.682 34.192 204.904 34.192ZM204.872 26.992C204.328 26.992 203.896 27.1733 203.576 27.536C203.256 27.8987 203.096 28.368 203.096 28.944V29.072H206.52V28.928C206.52 28.352 206.376 27.888 206.088 27.536C205.81 27.1733 205.405 26.992 204.872 26.992ZM210.45 34V25.648H212.498V27.376H212.578C212.631 27.152 212.711 26.9387 212.818 26.736C212.935 26.5227 213.084 26.336 213.266 26.176C213.447 26.016 213.66 25.888 213.906 25.792C214.162 25.696 214.455 25.648 214.786 25.648H215.234V27.584H214.594C213.9 27.584 213.378 27.6853 213.026 27.888C212.674 28.0907 212.498 28.4213 212.498 28.88V34H210.45Z" fill="black"/>
<rect x="17" y="57" width="22" height="22" rx="11" fill="white"/>
<rect x="17" y="57" width="22" height="22" rx="11" stroke="#1A1A1A" stroke-width="2"/>
<circle cx="28" cy="68" r="6" fill="#1A1A1A"/>
<path d="M49.488 74V62.832H56.304V64.016H50.832V67.76H55.984V68.944H50.832V72.816H56.304V74H49.488ZM58.4321 69.824V68.448H62.6081V69.824H58.4321ZM65.0788 74V65.744H66.3588V67.088H66.4228C66.5188 66.8747 66.6254 66.6773 66.7428 66.496C66.8708 66.304 67.0201 66.1387 67.1908 66C67.3721 65.8613 67.5801 65.7547 67.8148 65.68C68.0494 65.5947 68.3268 65.552 68.6468 65.552C69.1908 65.552 69.6921 65.6853 70.1508 65.952C70.6094 66.208 70.9508 66.6347 71.1748 67.232H71.2068C71.3561 66.784 71.6334 66.3947 72.0388 66.064C72.4548 65.7227 73.0148 65.552 73.7188 65.552C74.5614 65.552 75.2174 65.8293 75.6868 66.384C76.1668 66.928 76.4068 67.7013 76.4068 68.704V74H75.1268V68.928C75.1268 68.192 74.9828 67.6373 74.6948 67.264C74.4068 66.8907 73.9481 66.704 73.3188 66.704C73.0628 66.704 72.8174 66.736 72.5828 66.8C72.3588 66.864 72.1561 66.96 71.9748 67.088C71.7934 67.216 71.6494 67.3813 71.5428 67.584C71.4361 67.776 71.3828 68.0053 71.3828 68.272V74H70.1028V68.928C70.1028 68.192 69.9588 67.6373 69.6708 67.264C69.3828 66.8907 68.9348 66.704 68.3268 66.704C68.0708 66.704 67.8254 66.736 67.5908 66.8C67.3561 66.864 67.1481 66.96 66.9668 67.088C66.7854 67.216 66.6361 67.3813 66.5188 67.584C66.4121 67.776 66.3588 68.0053 66.3588 68.272V74H65.0788ZM85.0475 74C84.5675 74 84.2208 73.872 84.0075 73.616C83.8048 73.36 83.6768 73.04 83.6235 72.656H83.5435C83.3622 73.168 83.0635 73.552 82.6475 73.808C82.2315 74.064 81.7355 74.192 81.1595 74.192C80.2848 74.192 79.6022 73.968 79.1115 73.52C78.6315 73.072 78.3915 72.464 78.3915 71.696C78.3915 70.9173 78.6742 70.32 79.2395 69.904C79.8155 69.488 80.7062 69.28 81.9115 69.28H83.5435V68.464C83.5435 67.8773 83.3835 67.4293 83.0635 67.12C82.7435 66.8107 82.2528 66.656 81.5915 66.656C81.0902 66.656 80.6688 66.768 80.3275 66.992C79.9968 67.216 79.7195 67.5147 79.4955 67.888L78.7275 67.168C78.9515 66.72 79.3088 66.3413 79.7995 66.032C80.2902 65.712 80.9088 65.552 81.6555 65.552C82.6582 65.552 83.4368 65.7973 83.9915 66.288C84.5462 66.7787 84.8235 67.4613 84.8235 68.336V72.88H85.7675V74H85.0475ZM81.3675 73.104C81.6875 73.104 81.9808 73.0667 82.2475 72.992C82.5142 72.9173 82.7435 72.8107 82.9355 72.672C83.1275 72.5333 83.2768 72.3733 83.3835 72.192C83.4902 72.0107 83.5435 71.8133 83.5435 71.6V70.24H81.8475C81.1115 70.24 80.5728 70.3467 80.2315 70.56C79.9008 70.7733 79.7355 71.0827 79.7355 71.488V71.824C79.7355 72.2293 79.8795 72.544 80.1675 72.768C80.4662 72.992 80.8662 73.104 81.3675 73.104ZM88.2344 63.808C87.957 63.808 87.7544 63.744 87.6264 63.616C87.509 63.4773 87.4504 63.3013 87.4504 63.088V62.88C87.4504 62.6667 87.509 62.496 87.6264 62.368C87.7544 62.2293 87.957 62.16 88.2344 62.16C88.5117 62.16 88.709 62.2293 88.8264 62.368C88.9544 62.496 89.0184 62.6667 89.0184 62.88V63.088C89.0184 63.3013 88.9544 63.4773 88.8264 63.616C88.709 63.744 88.5117 63.808 88.2344 63.808ZM87.5944 65.744H88.8744V74H87.5944V65.744ZM92.9544 74C92.5064 74 92.165 73.8773 91.9304 73.632C91.7064 73.376 91.5944 73.056 91.5944 72.672V62.16H92.8744V72.88H94.0904V74H92.9544Z" fill="#1A1A1A"/>
<rect x="26" y="88" width="4" height="116" fill="#C4C4C4"/>
<path d="M49.312 122V110.832H56.672V112.704H51.424V115.408H56.064V117.28H51.424V120.128H56.672V122H49.312ZM58.5218 118.144V116.112H63.0978V118.144H58.5218ZM65.2153 122V113.648H67.2633V115.04H67.3433C67.5033 114.603 67.7593 114.229 68.1113 113.92C68.4633 113.611 68.9539 113.456 69.5833 113.456C70.1593 113.456 70.6553 113.595 71.0713 113.872C71.4873 114.149 71.7966 114.571 71.9993 115.136H72.0312C72.1806 114.667 72.4739 114.272 72.9113 113.952C73.3593 113.621 73.9193 113.456 74.5913 113.456C75.4126 113.456 76.0419 113.739 76.4793 114.304C76.9273 114.869 77.1513 115.675 77.1513 116.72V122H75.1033V116.928C75.1033 115.733 74.6553 115.136 73.7593 115.136C73.5566 115.136 73.3593 115.168 73.1673 115.232C72.9859 115.285 72.8206 115.371 72.6713 115.488C72.5326 115.595 72.4206 115.733 72.3353 115.904C72.2499 116.064 72.2073 116.256 72.2073 116.48V122H70.1593V116.928C70.1593 115.733 69.7113 115.136 68.8153 115.136C68.6233 115.136 68.4313 115.168 68.2393 115.232C68.0579 115.285 67.8926 115.371 67.7433 115.488C67.6046 115.595 67.4873 115.733 67.3913 115.904C67.3059 116.064 67.2633 116.256 67.2633 116.48V122H65.2153ZM85.5624 122C85.1144 122 84.757 121.872 84.4904 121.616C84.2344 121.349 84.0744 120.997 84.0104 120.56H83.9144C83.7757 121.104 83.493 121.515 83.0664 121.792C82.6397 122.059 82.1117 122.192 81.4824 122.192C80.629 122.192 79.973 121.968 79.5144 121.52C79.0557 121.072 78.8264 120.475 78.8264 119.728C78.8264 118.864 79.1357 118.224 79.7544 117.808C80.373 117.381 81.253 117.168 82.3944 117.168H83.8184V116.56C83.8184 116.091 83.6957 115.728 83.4504 115.472C83.205 115.216 82.8104 115.088 82.2664 115.088C81.7864 115.088 81.397 115.195 81.0984 115.408C80.8104 115.611 80.565 115.856 80.3624 116.144L79.1464 115.056C79.4557 114.576 79.8664 114.192 80.3784 113.904C80.8904 113.605 81.5677 113.456 82.4104 113.456C83.541 113.456 84.3997 113.712 84.9864 114.224C85.573 114.736 85.8664 115.472 85.8664 116.432V120.368H86.6984V122H85.5624ZM82.1704 120.704C82.629 120.704 83.0184 120.603 83.3384 120.4C83.6584 120.197 83.8184 119.899 83.8184 119.504V118.4H82.5064C81.4397 118.4 80.9064 118.741 80.9064 119.424V119.696C80.9064 120.037 81.013 120.293 81.2264 120.464C81.4504 120.624 81.765 120.704 82.1704 120.704ZM89.3799 112.432C88.9532 112.432 88.6439 112.336 88.4519 112.144C88.2705 111.952 88.1799 111.707 88.1799 111.408V111.088C88.1799 110.789 88.2705 110.544 88.4519 110.352C88.6439 110.16 88.9532 110.064 89.3799 110.064C89.7959 110.064 90.0999 110.16 90.2919 110.352C90.4839 110.544 90.5799 110.789 90.5799 111.088V111.408C90.5799 111.707 90.4839 111.952 90.2919 112.144C90.0999 112.336 89.7959 112.432 89.3799 112.432ZM88.3559 113.648H90.4039V122H88.3559V113.648ZM94.8258 122C94.1218 122 93.6044 121.824 93.2738 121.472C92.9431 121.12 92.7778 120.624 92.7778 119.984V110.16H94.8258V120.368H95.9298V122H94.8258ZM103.625 122C103.177 122 102.82 121.872 102.553 121.616C102.297 121.349 102.137 120.997 102.073 120.56H101.977C101.838 121.104 101.556 121.515 101.129 121.792C100.702 122.059 100.174 122.192 99.5449 122.192C98.6915 122.192 98.0355 121.968 97.5769 121.52C97.1182 121.072 96.8889 120.475 96.8889 119.728C96.8889 118.864 97.1982 118.224 97.8169 117.808C98.4355 117.381 99.3155 117.168 100.457 117.168H101.881V116.56C101.881 116.091 101.758 115.728 101.513 115.472C101.268 115.216 100.873 115.088 100.329 115.088C99.8489 115.088 99.4595 115.195 99.1609 115.408C98.8729 115.611 98.6275 115.856 98.4249 116.144L97.2089 115.056C97.5182 114.576 97.9289 114.192 98.4409 113.904C98.9529 113.605 99.6302 113.456 100.473 113.456C101.604 113.456 102.462 113.712 103.049 114.224C103.636 114.736 103.929 115.472 103.929 116.432V120.368H104.761V122H103.625ZM100.233 120.704C100.692 120.704 101.081 120.603 101.401 120.4C101.721 120.197 101.881 119.899 101.881 119.504V118.4H100.569C99.5022 118.4 98.9689 118.741 98.9689 119.424V119.696C98.9689 120.037 99.0755 120.293 99.2889 120.464C99.5129 120.624 99.8275 120.704 100.233 120.704ZM111.602 120.608H111.522C111.373 121.088 111.09 121.472 110.674 121.76C110.258 122.048 109.773 122.192 109.218 122.192C108.162 122.192 107.352 121.813 106.786 121.056C106.232 120.299 105.954 119.216 105.954 117.808C105.954 116.411 106.232 115.339 106.786 114.592C107.352 113.835 108.162 113.456 109.218 113.456C109.773 113.456 110.258 113.6 110.674 113.888C111.09 114.165 111.373 114.544 111.522 115.024H111.602V110.16H113.65V122H111.602V120.608ZM109.874 120.496C110.365 120.496 110.776 120.379 111.106 120.144C111.437 119.909 111.602 119.573 111.602 119.136V116.48C111.602 116.075 111.437 115.749 111.106 115.504C110.776 115.259 110.365 115.136 109.874 115.136C109.341 115.136 108.909 115.317 108.578 115.68C108.258 116.032 108.098 116.507 108.098 117.104V118.544C108.098 119.141 108.258 119.616 108.578 119.968C108.909 120.32 109.341 120.496 109.874 120.496ZM116.012 122V113.648H118.06V115.376H118.14C118.193 115.152 118.273 114.939 118.38 114.736C118.497 114.523 118.647 114.336 118.828 114.176C119.009 114.016 119.223 113.888 119.468 113.792C119.724 113.696 120.017 113.648 120.348 113.648H120.796V115.584H120.156C119.463 115.584 118.94 115.685 118.588 115.888C118.236 116.091 118.06 116.421 118.06 116.88V122H116.012ZM125.591 122.192C124.973 122.192 124.418 122.091 123.927 121.888C123.447 121.675 123.037 121.381 122.695 121.008C122.365 120.624 122.109 120.165 121.927 119.632C121.746 119.088 121.655 118.48 121.655 117.808C121.655 117.147 121.741 116.549 121.911 116.016C122.093 115.483 122.349 115.029 122.679 114.656C123.01 114.272 123.415 113.979 123.895 113.776C124.375 113.563 124.919 113.456 125.527 113.456C126.178 113.456 126.743 113.568 127.223 113.792C127.703 114.016 128.098 114.32 128.407 114.704C128.717 115.088 128.946 115.536 129.095 116.048C129.255 116.549 129.335 117.088 129.335 117.664V118.336H123.783V118.544C123.783 119.152 123.954 119.643 124.295 120.016C124.637 120.379 125.143 120.56 125.815 120.56C126.327 120.56 126.743 120.453 127.063 120.24C127.394 120.027 127.687 119.755 127.943 119.424L129.047 120.656C128.706 121.136 128.237 121.515 127.639 121.792C127.053 122.059 126.37 122.192 125.591 122.192ZM125.559 114.992C125.015 114.992 124.583 115.173 124.263 115.536C123.943 115.899 123.783 116.368 123.783 116.944V117.072H127.207V116.928C127.207 116.352 127.063 115.888 126.775 115.536C126.498 115.173 126.093 114.992 125.559 114.992ZM133.873 122.192C133.073 122.192 132.401 122.059 131.857 121.792C131.313 121.515 130.833 121.136 130.417 120.656L131.665 119.44C131.974 119.792 132.31 120.069 132.673 120.272C133.046 120.475 133.473 120.576 133.953 120.576C134.444 120.576 134.796 120.491 135.009 120.32C135.233 120.149 135.345 119.915 135.345 119.616C135.345 119.371 135.265 119.179 135.105 119.04C134.956 118.891 134.694 118.789 134.321 118.736L133.489 118.624C132.582 118.507 131.889 118.251 131.409 117.856C130.94 117.451 130.705 116.864 130.705 116.096C130.705 115.691 130.78 115.328 130.929 115.008C131.078 114.677 131.292 114.4 131.569 114.176C131.846 113.941 132.177 113.765 132.561 113.648C132.956 113.52 133.393 113.456 133.873 113.456C134.278 113.456 134.636 113.488 134.945 113.552C135.265 113.605 135.553 113.691 135.809 113.808C136.065 113.915 136.3 114.053 136.513 114.224C136.726 114.384 136.934 114.565 137.137 114.768L135.937 115.968C135.692 115.712 135.398 115.499 135.057 115.328C134.716 115.157 134.342 115.072 133.937 115.072C133.489 115.072 133.164 115.152 132.961 115.312C132.769 115.472 132.673 115.68 132.673 115.936C132.673 116.213 132.753 116.427 132.913 116.576C133.084 116.715 133.366 116.816 133.761 116.88L134.609 116.992C136.412 117.248 137.313 118.069 137.313 119.456C137.313 119.861 137.228 120.235 137.057 120.576C136.897 120.907 136.668 121.195 136.369 121.44C136.07 121.675 135.708 121.861 135.281 122C134.865 122.128 134.396 122.192 133.873 122.192ZM141.748 122.192C140.948 122.192 140.276 122.059 139.732 121.792C139.188 121.515 138.708 121.136 138.292 120.656L139.54 119.44C139.849 119.792 140.185 120.069 140.548 120.272C140.921 120.475 141.348 120.576 141.828 120.576C142.319 120.576 142.671 120.491 142.884 120.32C143.108 120.149 143.22 119.915 143.22 119.616C143.22 119.371 143.14 119.179 142.98 119.04C142.831 118.891 142.569 118.789 142.196 118.736L141.364 118.624C140.457 118.507 139.764 118.251 139.284 117.856C138.815 117.451 138.58 116.864 138.58 116.096C138.58 115.691 138.655 115.328 138.804 115.008C138.953 114.677 139.167 114.4 139.444 114.176C139.721 113.941 140.052 113.765 140.436 113.648C140.831 113.52 141.268 113.456 141.748 113.456C142.153 113.456 142.511 113.488 142.82 113.552C143.14 113.605 143.428 113.691 143.684 113.808C143.94 113.915 144.175 114.053 144.388 114.224C144.601 114.384 144.809 114.565 145.012 114.768L143.812 115.968C143.567 115.712 143.273 115.499 142.932 115.328C142.591 115.157 142.217 115.072 141.812 115.072C141.364 115.072 141.039 115.152 140.836 115.312C140.644 115.472 140.548 115.68 140.548 115.936C140.548 116.213 140.628 116.427 140.788 116.576C140.959 116.715 141.241 116.816 141.636 116.88L142.484 116.992C144.287 117.248 145.188 118.069 145.188 119.456C145.188 119.861 145.103 120.235 144.932 120.576C144.772 120.907 144.543 121.195 144.244 121.44C143.945 121.675 143.583 121.861 143.156 122C142.74 122.128 142.271 122.192 141.748 122.192ZM150.373 122.192C149.754 122.192 149.199 122.091 148.709 121.888C148.229 121.675 147.818 121.381 147.477 121.008C147.146 120.624 146.89 120.165 146.709 119.632C146.527 119.088 146.437 118.48 146.437 117.808C146.437 117.147 146.522 116.549 146.693 116.016C146.874 115.483 147.13 115.029 147.461 114.656C147.791 114.272 148.197 113.979 148.677 113.776C149.157 113.563 149.701 113.456 150.309 113.456C150.959 113.456 151.525 113.568 152.005 113.792C152.485 114.016 152.879 114.32 153.189 114.704C153.498 115.088 153.727 115.536 153.877 116.048C154.037 116.549 154.117 117.088 154.117 117.664V118.336H148.565V118.544C148.565 119.152 148.735 119.643 149.077 120.016C149.418 120.379 149.925 120.56 150.597 120.56C151.109 120.56 151.525 120.453 151.845 120.24C152.175 120.027 152.469 119.755 152.725 119.424L153.829 120.656C153.487 121.136 153.018 121.515 152.421 121.792C151.834 122.059 151.151 122.192 150.373 122.192ZM150.341 114.992C149.797 114.992 149.365 115.173 149.045 115.536C148.725 115.899 148.565 116.368 148.565 116.944V117.072H151.989V116.928C151.989 116.352 151.845 115.888 151.557 115.536C151.279 115.173 150.874 114.992 150.341 114.992Z" fill="#1A1A1A"/>
<rect x="48.5" y="136.5" width="319" height="39" rx="3.5" stroke="#707070"/>
<rect x="17" y="221" width="22" height="22" rx="11" fill="white"/>
<rect x="17" y="221" width="22" height="22" rx="11" stroke="#1A1A1A" stroke-width="2"/>
<path d="M53.248 228.016V238H51.904V228.016H48.352V226.832H56.8V228.016H53.248ZM60.5734 238.192C60.008 238.192 59.496 238.091 59.0374 237.888C58.5894 237.685 58.2 237.397 57.8694 237.024C57.5494 236.64 57.2987 236.187 57.1174 235.664C56.9467 235.131 56.8614 234.533 56.8614 233.872C56.8614 233.221 56.9467 232.629 57.1174 232.096C57.2987 231.563 57.5494 231.109 57.8694 230.736C58.2 230.352 58.5894 230.059 59.0374 229.856C59.496 229.653 60.008 229.552 60.5734 229.552C61.128 229.552 61.624 229.653 62.0614 229.856C62.4987 230.059 62.872 230.341 63.1814 230.704C63.4907 231.056 63.7254 231.477 63.8854 231.968C64.056 232.459 64.1414 232.997 64.1414 233.584V234.192H58.2054V234.576C58.2054 234.928 58.2587 235.259 58.3654 235.568C58.4827 235.867 58.6427 236.128 58.8454 236.352C59.0587 236.576 59.3147 236.752 59.6134 236.88C59.9227 237.008 60.2694 237.072 60.6534 237.072C61.176 237.072 61.6294 236.949 62.0134 236.704C62.408 236.459 62.712 236.107 62.9254 235.648L63.8374 236.304C63.5707 236.869 63.1547 237.328 62.5894 237.68C62.024 238.021 61.352 238.192 60.5734 238.192ZM60.5734 230.624C60.2214 230.624 59.9014 230.688 59.6134 230.816C59.3254 230.933 59.0747 231.104 58.8614 231.328C58.6587 231.552 58.4987 231.819 58.3814 232.128C58.264 232.427 58.2054 232.757 58.2054 233.12V233.232H62.7654V233.056C62.7654 232.32 62.5627 231.733 62.1574 231.296C61.7627 230.848 61.2347 230.624 60.5734 230.624ZM67.6106 238C67.1626 238 66.8213 237.877 66.5866 237.632C66.3626 237.376 66.2506 237.056 66.2506 236.672V226.16H67.5306V236.88H68.7466V238H67.6106ZM73.714 238.192C73.1487 238.192 72.6367 238.091 72.178 237.888C71.73 237.685 71.3407 237.397 71.01 237.024C70.69 236.64 70.4393 236.187 70.258 235.664C70.0873 235.131 70.002 234.533 70.002 233.872C70.002 233.221 70.0873 232.629 70.258 232.096C70.4393 231.563 70.69 231.109 71.01 230.736C71.3407 230.352 71.73 230.059 72.178 229.856C72.6367 229.653 73.1487 229.552 73.714 229.552C74.2687 229.552 74.7647 229.653 75.202 229.856C75.6393 230.059 76.0127 230.341 76.322 230.704C76.6313 231.056 76.866 231.477 77.026 231.968C77.1967 232.459 77.282 232.997 77.282 233.584V234.192H71.346V234.576C71.346 234.928 71.3993 235.259 71.506 235.568C71.6233 235.867 71.7833 236.128 71.986 236.352C72.1993 236.576 72.4553 236.752 72.754 236.88C73.0633 237.008 73.41 237.072 73.794 237.072C74.3167 237.072 74.77 236.949 75.154 236.704C75.5487 236.459 75.8527 236.107 76.066 235.648L76.978 236.304C76.7113 236.869 76.2953 237.328 75.73 237.68C75.1647 238.021 74.4927 238.192 73.714 238.192ZM73.714 230.624C73.362 230.624 73.042 230.688 72.754 230.816C72.466 230.933 72.2153 231.104 72.002 231.328C71.7993 231.552 71.6393 231.819 71.522 232.128C71.4047 232.427 71.346 232.757 71.346 233.12V233.232H75.906V233.056C75.906 232.32 75.7033 231.733 75.298 231.296C74.9033 230.848 74.3753 230.624 73.714 230.624ZM79.8393 230.864H78.4953V229.744H79.8393V228.08C79.8393 227.504 79.9886 227.04 80.2873 226.688C80.5859 226.336 81.0393 226.16 81.6473 226.16H82.8953V227.28H81.1193V229.744H82.8953V230.864H81.1193V238H79.8393V230.864ZM87.6363 238.192C87.0816 238.192 86.5749 238.091 86.1163 237.888C85.6576 237.685 85.2629 237.397 84.9323 237.024C84.6123 236.64 84.3616 236.187 84.1803 235.664C83.9989 235.131 83.9083 234.533 83.9083 233.872C83.9083 233.221 83.9989 232.629 84.1803 232.096C84.3616 231.563 84.6123 231.109 84.9323 230.736C85.2629 230.352 85.6576 230.059 86.1163 229.856C86.5749 229.653 87.0816 229.552 87.6363 229.552C88.1909 229.552 88.6923 229.653 89.1403 229.856C89.5989 230.059 89.9936 230.352 90.3243 230.736C90.6549 231.109 90.9109 231.563 91.0923 232.096C91.2736 232.629 91.3643 233.221 91.3643 233.872C91.3643 234.533 91.2736 235.131 91.0923 235.664C90.9109 236.187 90.6549 236.64 90.3243 237.024C89.9936 237.397 89.5989 237.685 89.1403 237.888C88.6923 238.091 88.1909 238.192 87.6363 238.192ZM87.6363 237.056C88.3296 237.056 88.8949 236.843 89.3323 236.416C89.7696 235.989 89.9883 235.339 89.9883 234.464V233.28C89.9883 232.405 89.7696 231.755 89.3323 231.328C88.8949 230.901 88.3296 230.688 87.6363 230.688C86.9429 230.688 86.3776 230.901 85.9403 231.328C85.5029 231.755 85.2843 232.405 85.2843 233.28V234.464C85.2843 235.339 85.5029 235.989 85.9403 236.416C86.3776 236.843 86.9429 237.056 87.6363 237.056ZM93.4694 238V229.744H94.7494V231.088H94.8134C95.016 230.619 95.2987 230.245 95.6614 229.968C96.0347 229.691 96.5307 229.552 97.1494 229.552C98.0027 229.552 98.6747 229.829 99.1654 230.384C99.6667 230.928 99.9174 231.701 99.9174 232.704V238H98.6374V232.928C98.6374 231.445 98.0134 230.704 96.7654 230.704C96.5094 230.704 96.2587 230.736 96.0134 230.8C95.7787 230.864 95.5654 230.96 95.3734 231.088C95.1814 231.216 95.0267 231.381 94.9094 231.584C94.8027 231.776 94.7494 232.005 94.7494 232.272V238H93.4694Z" fill="#1A1A1A"/>
<rect x="17" y="261" width="22" height="22" rx="11" fill="white"/>
<rect x="17" y="261" width="22" height="22" rx="11" stroke="#1A1A1A" stroke-width="2"/>
<path d="M49.488 266.832H54.08C55.008 266.832 55.7333 267.093 56.256 267.616C56.7893 268.139 57.056 268.837 57.056 269.712C57.056 270.128 56.9973 270.48 56.88 270.768C56.7627 271.056 56.6133 271.296 56.432 271.488C56.2507 271.669 56.0533 271.808 55.84 271.904C55.6267 271.989 55.4293 272.048 55.248 272.08V272.176C55.4507 272.187 55.6747 272.24 55.92 272.336C56.176 272.432 56.416 272.587 56.64 272.8C56.864 273.003 57.0507 273.269 57.2 273.6C57.36 273.92 57.44 274.309 57.44 274.768C57.44 275.227 57.3653 275.653 57.216 276.048C57.0773 276.443 56.88 276.784 56.624 277.072C56.368 277.36 56.064 277.589 55.712 277.76C55.36 277.92 54.976 278 54.56 278H49.488V266.832ZM50.832 276.816H54.144C54.72 276.816 55.1733 276.672 55.504 276.384C55.8347 276.085 56 275.653 56 275.088V274.544C56 273.979 55.8347 273.552 55.504 273.264C55.1733 272.965 54.72 272.816 54.144 272.816H50.832V276.816ZM50.832 271.664H53.92C54.4533 271.664 54.8693 271.531 55.168 271.264C55.4667 270.997 55.616 270.613 55.616 270.112V269.568C55.616 269.067 55.4667 268.683 55.168 268.416C54.8693 268.149 54.4533 268.016 53.92 268.016H50.832V271.664ZM59.8131 278V269.744H61.0931V271.264H61.1731C61.3225 270.869 61.5891 270.517 61.9731 270.208C62.3571 269.899 62.8851 269.744 63.5571 269.744H64.0531V271.024H63.3011C62.6078 271.024 62.0638 271.157 61.6691 271.424C61.2851 271.68 61.0931 272.005 61.0931 272.4V278H59.8131ZM68.714 278.192C68.1487 278.192 67.6367 278.091 67.178 277.888C66.73 277.685 66.3407 277.397 66.01 277.024C65.69 276.64 65.4393 276.187 65.258 275.664C65.0873 275.131 65.002 274.533 65.002 273.872C65.002 273.221 65.0873 272.629 65.258 272.096C65.4393 271.563 65.69 271.109 66.01 270.736C66.3407 270.352 66.73 270.059 67.178 269.856C67.6367 269.653 68.1487 269.552 68.714 269.552C69.2687 269.552 69.7647 269.653 70.202 269.856C70.6393 270.059 71.0127 270.341 71.322 270.704C71.6313 271.056 71.866 271.477 72.026 271.968C72.1967 272.459 72.282 272.997 72.282 273.584V274.192H66.346V274.576C66.346 274.928 66.3993 275.259 66.506 275.568C66.6233 275.867 66.7833 276.128 66.986 276.352C67.1993 276.576 67.4553 276.752 67.754 276.88C68.0633 277.008 68.41 277.072 68.794 277.072C69.3167 277.072 69.77 276.949 70.154 276.704C70.5487 276.459 70.8527 276.107 71.066 275.648L71.978 276.304C71.7113 276.869 71.2953 277.328 70.73 277.68C70.1647 278.021 69.4927 278.192 68.714 278.192ZM68.714 270.624C68.362 270.624 68.042 270.688 67.754 270.816C67.466 270.933 67.2153 271.104 67.002 271.328C66.7993 271.552 66.6393 271.819 66.522 272.128C66.4047 272.427 66.346 272.757 66.346 273.12V273.232H70.906V273.056C70.906 272.32 70.7033 271.733 70.298 271.296C69.9033 270.848 69.3753 270.624 68.714 270.624ZM76.0903 278L73.1943 269.744H74.4743L75.9143 273.84L76.8103 276.656H76.8903L77.7863 273.84L79.2583 269.744H80.4903L77.5783 278H76.0903Z" fill="#1A1A1A"/>
</svg>
