<svg width="360" height="247" viewBox="0 0 360 247" fill="none" xmlns="http://www.w3.org/2000/svg">
<path d="M360 0H0V247H360V0Z" fill="#DCDCDC"/>
<path d="M355 15H327V29H355V15Z" fill="#999999"/>
<path d="M327.5 15.5H233.5V28.5H327.5V15.5Z" fill="#BFBFBF" stroke="#BFBFBF"/>
<path d="M31 20C31 13.9249 26.0751 9 20 9C13.9249 9 9 13.9249 9 20C9 26.0751 13.9249 31 20 31C26.0751 31 31 26.0751 31 20Z" fill="#BFBFBF"/>
<path d="M118 168H5V238H118V168Z" fill="#BFBFBF"/>
<path d="M355 58H5V163H355V58Z" fill="#BFBFBF"/>
<path d="M360 38H0V53H360V38Z" fill="#BFBFBF"/>
<path d="M238 168H123V238H238V168Z" fill="#BFBFBF"/>
<path d="M355 168H243V238H355V168Z" fill="#BFBFBF"/>
<path d="M234.33 117.187H131V123.121H234.33V117.187Z" fill="#BFBFBF"/>
<path d="M282.5 100.863H91.5V188.863H282.5V100.863Z" fill="#C8CADF" stroke="#474E95"/>
<path d="M154 170H109V181H154V170Z" fill="#474E95"/>
<path d="M209 170H164V181H209V170Z" fill="#474E95"/>
<path fill-rule="evenodd" clip-rule="evenodd" d="M109 111.253H178.176H265V116.198H109V111.253Z" fill="#9195BF"/>
<path fill-rule="evenodd" clip-rule="evenodd" d="M109 119.165H265V124.11H126.811H109V119.165Z" fill="#9195BF"/>
<path d="M166 127.077H109V132.022H166V127.077Z" fill="#9195BF"/>
<path d="M129 153H109V157.945H129V153Z" fill="#9195BF"/>
<path d="M265 153H245V157.945H265V153Z" fill="#9195BF"/>
<path d="M220 153H200V157.945H220V153Z" fill="#9195BF"/>
<path d="M174 153H154V157.945H174V153Z" fill="#9195BF"/>
<path d="M124.5 139.5H113.5V150.5H124.5V139.5Z" fill="#C8CADF" stroke="#474E95"/>
<path d="M169.5 139.5H158.5V150.5H169.5V139.5Z" fill="#C8CADF" stroke="#474E95"/>
<path d="M215.5 139.5H204.5V150.5H215.5V139.5Z" fill="#C8CADF" stroke="#474E95"/>
<path d="M260.5 139.5H249.5V150.5H260.5V139.5Z" fill="#C8CADF" stroke="#474E95"/>
<path d="M206 146.416L209.134 148.867L214.135 142" stroke="#454A99"/>
</svg>
