<svg width="360" height="248" viewBox="0 0 360 248" fill="none" xmlns="http://www.w3.org/2000/svg">
<path d="M360 0H0V247H360V0Z" fill="#D8D8D8"/>
<path d="M355 58H5V163H355V58Z" fill="#BFBFBF"/>
<path d="M360 38H0V53H360V38Z" fill="#BFBFBF"/>
<path d="M355 15H327V29H355V15Z" fill="#999999"/>
<path d="M327.5 15.5H233.5V28.5H327.5V15.5Z" fill="#BFBFBF" stroke="#BFBFBF"/>
<path d="M31 20C31 13.9249 26.0751 9 20 9C13.9249 9 9 13.9249 9 20C9 26.0751 13.9249 31 20 31C26.0751 31 31 26.0751 31 20Z" fill="#BFBFBF"/>
<path d="M118 168H5V238H118V168Z" fill="#BFBFBF"/>
<path d="M238 168H123V238H238V168Z" fill="#BFBFBF"/>
<path d="M355 168H243V238H355V168Z" fill="#BFBFBF"/>
<path d="M359 198H238V247H359V198Z" fill="#C8CADF" stroke="#474E95"/>
<path d="M292.5 232.5H242.5V242.5H292.5V232.5Z" fill="#474E95"/>
<path d="M354.5 232.5H304.5V242.5H354.5V232.5Z" fill="#474E95"/>
<path d="M353.5 202.5H242.5V207.5H353.5V202.5Z" fill="#9195BF"/>
<path d="M353.5 210.5H242.5V215.5H353.5V210.5Z" fill="#9195BF"/>
<path d="M282.5 218.5H242.5V223.5H282.5V218.5Z" fill="#9195BF"/>
</svg>
