<svg width="352" height="222" viewBox="0 0 352 222" fill="none" xmlns="http://www.w3.org/2000/svg">
<path fill-rule="evenodd" clip-rule="evenodd" d="M0.5 37.5V221.5H351.5V37.5H175.5V0.5H88.5V37.5H0.5Z" fill="#C8CADF" stroke="#454A99"/>
<path d="M85.5 0.5H0.5V34.5H85.5V0.5Z" fill="#C8CADF" stroke="#454A99"/>
<path d="M10.674 11.436H15.84C16.884 11.436 17.7 11.73 18.288 12.318C18.888 12.906 19.188 13.692 19.188 14.676C19.188 15.144 19.122 15.54 18.99 15.864C18.858 16.188 18.69 16.458 18.486 16.674C18.282 16.878 18.06 17.034 17.82 17.142C17.58 17.238 17.358 17.304 17.154 17.34V17.448C17.382 17.46 17.634 17.52 17.91 17.628C18.198 17.736 18.468 17.91 18.72 18.15C18.972 18.378 19.182 18.678 19.35 19.05C19.53 19.41 19.62 19.848 19.62 20.364C19.62 20.88 19.536 21.36 19.368 21.804C19.212 22.248 18.99 22.632 18.702 22.956C18.414 23.28 18.072 23.538 17.676 23.73C17.28 23.91 16.848 24 16.38 24H10.674V11.436ZM12.186 22.668H15.912C16.56 22.668 17.07 22.506 17.442 22.182C17.814 21.846 18 21.36 18 20.724V20.112C18 19.476 17.814 18.996 17.442 18.672C17.07 18.336 16.56 18.168 15.912 18.168H12.186V22.668ZM12.186 16.872H15.66C16.26 16.872 16.728 16.722 17.064 16.422C17.4 16.122 17.568 15.69 17.568 15.126V14.514C17.568 13.95 17.4 13.518 17.064 13.218C16.728 12.918 16.26 12.768 15.66 12.768H12.186V16.872ZM29.0398 24C28.4998 24 28.1098 23.856 27.8698 23.568C27.6418 23.28 27.4978 22.92 27.4378 22.488H27.3478C27.1438 23.064 26.8078 23.496 26.3398 23.784C25.8718 24.072 25.3138 24.216 24.6658 24.216C23.6818 24.216 22.9138 23.964 22.3618 23.46C21.8218 22.956 21.5518 22.272 21.5518 21.408C21.5518 20.532 21.8698 19.86 22.5058 19.392C23.1538 18.924 24.1558 18.69 25.5118 18.69H27.3478V17.772C27.3478 17.112 27.1678 16.608 26.8078 16.26C26.4478 15.912 25.8958 15.738 25.1518 15.738C24.5878 15.738 24.1138 15.864 23.7298 16.116C23.3578 16.368 23.0458 16.704 22.7938 17.124L21.9298 16.314C22.1818 15.81 22.5838 15.384 23.1358 15.036C23.6878 14.676 24.3838 14.496 25.2238 14.496C26.3518 14.496 27.2278 14.772 27.8518 15.324C28.4758 15.876 28.7878 16.644 28.7878 17.628V22.74H29.8498V24H29.0398ZM24.8998 22.992C25.2598 22.992 25.5898 22.95 25.8898 22.866C26.1898 22.782 26.4478 22.662 26.6638 22.506C26.8798 22.35 27.0478 22.17 27.1678 21.966C27.2878 21.762 27.3478 21.54 27.3478 21.3V19.77H25.4398C24.6118 19.77 24.0058 19.89 23.6218 20.13C23.2498 20.37 23.0638 20.718 23.0638 21.174V21.552C23.0638 22.008 23.2258 22.362 23.5498 22.614C23.8858 22.866 24.3358 22.992 24.8998 22.992ZM31.905 24V14.712H33.345V16.224H33.417C33.645 15.696 33.963 15.276 34.371 14.964C34.791 14.652 35.349 14.496 36.045 14.496C37.005 14.496 37.761 14.808 38.313 15.432C38.877 16.044 39.159 16.914 39.159 18.042V24H37.719V18.294C37.719 16.626 37.017 15.792 35.613 15.792C35.325 15.792 35.043 15.828 34.767 15.9C34.503 15.972 34.263 16.08 34.047 16.224C33.831 16.368 33.657 16.554 33.525 16.782C33.405 16.998 33.345 17.256 33.345 17.556V24H31.905ZM48.8855 24C48.3455 24 47.9555 23.856 47.7155 23.568C47.4875 23.28 47.3435 22.92 47.2835 22.488H47.1935C46.9895 23.064 46.6535 23.496 46.1855 23.784C45.7175 24.072 45.1595 24.216 44.5115 24.216C43.5275 24.216 42.7595 23.964 42.2075 23.46C41.6675 22.956 41.3975 22.272 41.3975 21.408C41.3975 20.532 41.7155 19.86 42.3515 19.392C42.9995 18.924 44.0015 18.69 45.3575 18.69H47.1935V17.772C47.1935 17.112 47.0135 16.608 46.6535 16.26C46.2935 15.912 45.7415 15.738 44.9975 15.738C44.4335 15.738 43.9595 15.864 43.5755 16.116C43.2035 16.368 42.8915 16.704 42.6395 17.124L41.7755 16.314C42.0275 15.81 42.4295 15.384 42.9815 15.036C43.5335 14.676 44.2295 14.496 45.0695 14.496C46.1975 14.496 47.0735 14.772 47.6975 15.324C48.3215 15.876 48.6335 16.644 48.6335 17.628V22.74H49.6955V24H48.8855ZM44.7455 22.992C45.1055 22.992 45.4355 22.95 45.7355 22.866C46.0355 22.782 46.2935 22.662 46.5095 22.506C46.7255 22.35 46.8935 22.17 47.0135 21.966C47.1335 21.762 47.1935 21.54 47.1935 21.3V19.77H45.2855C44.4575 19.77 43.8515 19.89 43.4675 20.13C43.0955 20.37 42.9095 20.718 42.9095 21.174V21.552C42.9095 22.008 43.0715 22.362 43.3955 22.614C43.7315 22.866 44.1815 22.992 44.7455 22.992ZM51.7507 24V14.712H53.1907V16.224H53.2627C53.4907 15.696 53.8087 15.276 54.2167 14.964C54.6367 14.652 55.1947 14.496 55.8907 14.496C56.8507 14.496 57.6067 14.808 58.1587 15.432C58.7227 16.044 59.0047 16.914 59.0047 18.042V24H57.5647V18.294C57.5647 16.626 56.8627 15.792 55.4587 15.792C55.1707 15.792 54.8887 15.828 54.6127 15.9C54.3487 15.972 54.1087 16.08 53.8927 16.224C53.6767 16.368 53.5027 16.554 53.3707 16.782C53.2507 16.998 53.1907 17.256 53.1907 17.556V24H51.7507ZM65.4732 24.216C64.8372 24.216 64.2612 24.102 63.7452 23.874C63.2412 23.646 62.8032 23.322 62.4312 22.902C62.0712 22.47 61.7892 21.96 61.5852 21.372C61.3932 20.772 61.2972 20.1 61.2972 19.356C61.2972 18.624 61.3932 17.958 61.5852 17.358C61.7892 16.758 62.0712 16.248 62.4312 15.828C62.8032 15.396 63.2412 15.066 63.7452 14.838C64.2612 14.61 64.8372 14.496 65.4732 14.496C66.0972 14.496 66.6552 14.61 67.1472 14.838C67.6392 15.066 68.0592 15.384 68.4072 15.792C68.7552 16.188 69.0192 16.662 69.1992 17.214C69.3912 17.766 69.4872 18.372 69.4872 19.032V19.716H62.8092V20.148C62.8092 20.544 62.8692 20.916 62.9892 21.264C63.1212 21.6 63.3012 21.894 63.5292 22.146C63.7692 22.398 64.0572 22.596 64.3932 22.74C64.7412 22.884 65.1312 22.956 65.5632 22.956C66.1512 22.956 66.6612 22.818 67.0932 22.542C67.5372 22.266 67.8792 21.87 68.1192 21.354L69.1452 22.092C68.8452 22.728 68.3772 23.244 67.7412 23.64C67.1052 24.024 66.3492 24.216 65.4732 24.216ZM65.4732 15.702C65.0772 15.702 64.7172 15.774 64.3932 15.918C64.0692 16.05 63.7872 16.242 63.5472 16.494C63.3192 16.746 63.1392 17.046 63.0072 17.394C62.8752 17.73 62.8092 18.102 62.8092 18.51V18.636H67.9392V18.438C67.9392 17.61 67.7112 16.95 67.2552 16.458C66.8112 15.954 66.2172 15.702 65.4732 15.702ZM71.8601 24V14.712H73.3001V16.422H73.3901C73.5581 15.978 73.8581 15.582 74.2901 15.234C74.7221 14.886 75.3161 14.712 76.0721 14.712H76.6301V16.152H75.7841C75.0041 16.152 74.3921 16.302 73.9481 16.602C73.5161 16.89 73.3001 17.256 73.3001 17.7V24H71.8601Z" fill="#454A99"/>
<path d="M9 26.25H76.9361V27.33H9V26.25Z" fill="#454A99"/>
<path d="M115.506 20.31H111.456L109.62 24H108.072L114.498 11.436H123.174V12.768H117V16.98H122.814V18.312H117V22.668H123.174V24H115.506V20.31ZM115.272 12.768L112.086 18.978H115.506V12.768H115.272ZM125.86 10.68H127.3V16.224H127.372C127.612 15.636 127.96 15.204 128.416 14.928C128.884 14.64 129.442 14.496 130.09 14.496C130.666 14.496 131.188 14.61 131.656 14.838C132.124 15.066 132.52 15.39 132.844 15.81C133.18 16.23 133.432 16.74 133.6 17.34C133.78 17.94 133.87 18.612 133.87 19.356C133.87 20.1 133.78 20.772 133.6 21.372C133.432 21.972 133.18 22.482 132.844 22.902C132.52 23.322 132.124 23.646 131.656 23.874C131.188 24.102 130.666 24.216 130.09 24.216C128.83 24.216 127.924 23.64 127.372 22.488H127.3V24H125.86V10.68ZM129.694 22.92C130.51 22.92 131.152 22.668 131.62 22.164C132.088 21.648 132.322 20.976 132.322 20.148V18.564C132.322 17.736 132.088 17.07 131.62 16.566C131.152 16.05 130.51 15.792 129.694 15.792C129.37 15.792 129.058 15.84 128.758 15.936C128.47 16.02 128.218 16.14 128.002 16.296C127.786 16.452 127.612 16.644 127.48 16.872C127.36 17.088 127.3 17.322 127.3 17.574V21.03C127.3 21.33 127.36 21.6 127.48 21.84C127.612 22.068 127.786 22.266 128.002 22.434C128.218 22.59 128.47 22.71 128.758 22.794C129.058 22.878 129.37 22.92 129.694 22.92ZM137.831 24C137.327 24 136.943 23.862 136.679 23.586C136.427 23.298 136.301 22.938 136.301 22.506V10.68H137.741V22.74H139.109V24H137.831ZM144.698 24.216C144.062 24.216 143.486 24.102 142.97 23.874C142.466 23.646 142.028 23.322 141.656 22.902C141.296 22.47 141.014 21.96 140.81 21.372C140.618 20.772 140.522 20.1 140.522 19.356C140.522 18.624 140.618 17.958 140.81 17.358C141.014 16.758 141.296 16.248 141.656 15.828C142.028 15.396 142.466 15.066 142.97 14.838C143.486 14.61 144.062 14.496 144.698 14.496C145.322 14.496 145.88 14.61 146.372 14.838C146.864 15.066 147.284 15.384 147.632 15.792C147.98 16.188 148.244 16.662 148.424 17.214C148.616 17.766 148.712 18.372 148.712 19.032V19.716H142.034V20.148C142.034 20.544 142.094 20.916 142.214 21.264C142.346 21.6 142.526 21.894 142.754 22.146C142.994 22.398 143.282 22.596 143.618 22.74C143.966 22.884 144.356 22.956 144.788 22.956C145.376 22.956 145.886 22.818 146.318 22.542C146.762 22.266 147.104 21.87 147.344 21.354L148.37 22.092C148.07 22.728 147.602 23.244 146.966 23.64C146.33 24.024 145.574 24.216 144.698 24.216ZM144.698 15.702C144.302 15.702 143.942 15.774 143.618 15.918C143.294 16.05 143.012 16.242 142.772 16.494C142.544 16.746 142.364 17.046 142.232 17.394C142.1 17.73 142.034 18.102 142.034 18.51V18.636H147.164V18.438C147.164 17.61 146.936 16.95 146.48 16.458C146.036 15.954 145.442 15.702 144.698 15.702ZM151.085 24V14.712H152.525V16.422H152.615C152.783 15.978 153.083 15.582 153.515 15.234C153.947 14.886 154.541 14.712 155.297 14.712H155.855V16.152H155.009C154.229 16.152 153.617 16.302 153.173 16.602C152.741 16.89 152.525 17.256 152.525 17.7V24H151.085Z" fill="#454A99"/>
<path fill-rule="evenodd" clip-rule="evenodd" d="M178.5 0.5V34.5H263.5V0.5H178.5Z" fill="#C8CADF" stroke="#454A99"/>
<path d="M351.5 0.5H266.5V34.5H351.5V0.5Z" fill="#C8CADF" stroke="#454A99"/>
<path d="M197.674 24V11.436H202.678C203.806 11.436 204.67 11.76 205.27 12.408C205.882 13.044 206.188 13.92 206.188 15.036C206.188 16.152 205.882 17.034 205.27 17.682C204.67 18.318 203.806 18.636 202.678 18.636H199.186V24H197.674ZM199.186 17.304H202.678C203.278 17.304 203.74 17.148 204.064 16.836C204.4 16.524 204.568 16.08 204.568 15.504V14.568C204.568 13.992 204.4 13.548 204.064 13.236C203.74 12.924 203.278 12.768 202.678 12.768H199.186V17.304ZM211.42 19.716C210.592 19.74 209.986 19.878 209.602 20.13C209.23 20.37 209.044 20.718 209.044 21.174V21.552C209.044 22.008 209.206 22.362 209.53 22.614C209.866 22.866 210.322 22.992 210.898 22.992C211.246 22.992 211.564 22.95 211.852 22.866C212.152 22.782 212.41 22.662 212.626 22.506C212.842 22.35 213.01 22.17 213.13 21.966C213.262 21.762 213.328 21.54 213.328 21.3V19.716H211.42ZM219.898 18.636V18.438C219.898 17.61 219.67 16.95 219.214 16.458C218.77 15.954 218.176 15.702 217.432 15.702C217.036 15.702 216.676 15.774 216.352 15.918C216.028 16.05 215.746 16.242 215.506 16.494C215.278 16.746 215.098 17.046 214.966 17.394C214.834 17.73 214.768 18.102 214.768 18.51V18.636H219.898ZM217.522 22.956C218.71 22.956 219.562 22.428 220.078 21.372L221.104 22.092C220.804 22.74 220.342 23.256 219.718 23.64C219.106 24.024 218.398 24.216 217.594 24.216C217.102 24.216 216.652 24.144 216.244 24C215.848 23.868 215.5 23.7 215.2 23.496C214.912 23.28 214.678 23.052 214.498 22.812C214.318 22.56 214.204 22.332 214.156 22.128H214.048C214.012 22.332 213.904 22.554 213.724 22.794C213.556 23.034 213.328 23.262 213.04 23.478C212.752 23.682 212.404 23.856 211.996 24C211.588 24.144 211.126 24.216 210.61 24.216C209.674 24.216 208.924 23.97 208.36 23.478C207.808 22.974 207.532 22.296 207.532 21.444C207.532 20.544 207.862 19.854 208.522 19.374C209.182 18.882 210.172 18.636 211.492 18.636H213.328V17.772C213.328 17.112 213.148 16.608 212.788 16.26C212.428 15.912 211.894 15.738 211.186 15.738C210.586 15.738 210.1 15.858 209.728 16.098C209.356 16.338 209.038 16.674 208.774 17.106L207.91 16.314C208.15 15.822 208.546 15.396 209.098 15.036C209.662 14.676 210.37 14.496 211.222 14.496C211.75 14.496 212.188 14.574 212.536 14.73C212.896 14.874 213.184 15.054 213.4 15.27C213.628 15.474 213.796 15.696 213.904 15.936C214.012 16.176 214.09 16.386 214.138 16.566H214.246C214.294 16.362 214.408 16.14 214.588 15.9C214.768 15.66 215.002 15.438 215.29 15.234C215.578 15.018 215.914 14.844 216.298 14.712C216.694 14.568 217.126 14.496 217.594 14.496C218.182 14.496 218.71 14.61 219.178 14.838C219.658 15.066 220.066 15.384 220.402 15.792C220.738 16.188 220.996 16.662 221.176 17.214C221.356 17.766 221.446 18.372 221.446 19.032V19.716H214.768V20.148C214.768 20.544 214.828 20.916 214.948 21.264C215.08 21.6 215.26 21.894 215.488 22.146C215.728 22.398 216.016 22.596 216.352 22.74C216.7 22.884 217.09 22.956 217.522 22.956ZM223.827 24V14.712H225.267V16.422H225.357C225.525 15.978 225.825 15.582 226.257 15.234C226.689 14.886 227.283 14.712 228.039 14.712H228.597V16.152H227.751C226.971 16.152 226.359 16.302 225.915 16.602C225.483 16.89 225.267 17.256 225.267 17.7V24H223.827ZM233.84 24.216C233.204 24.216 232.628 24.102 232.112 23.874C231.608 23.646 231.17 23.322 230.798 22.902C230.438 22.47 230.156 21.96 229.952 21.372C229.76 20.772 229.664 20.1 229.664 19.356C229.664 18.624 229.76 17.958 229.952 17.358C230.156 16.758 230.438 16.248 230.798 15.828C231.17 15.396 231.608 15.066 232.112 14.838C232.628 14.61 233.204 14.496 233.84 14.496C234.464 14.496 235.022 14.61 235.514 14.838C236.006 15.066 236.426 15.384 236.774 15.792C237.122 16.188 237.386 16.662 237.566 17.214C237.758 17.766 237.854 18.372 237.854 19.032V19.716H231.176V20.148C231.176 20.544 231.236 20.916 231.356 21.264C231.488 21.6 231.668 21.894 231.896 22.146C232.136 22.398 232.424 22.596 232.76 22.74C233.108 22.884 233.498 22.956 233.93 22.956C234.518 22.956 235.028 22.818 235.46 22.542C235.904 22.266 236.246 21.87 236.486 21.354L237.512 22.092C237.212 22.728 236.744 23.244 236.108 23.64C235.472 24.024 234.716 24.216 233.84 24.216ZM233.84 15.702C233.444 15.702 233.084 15.774 232.76 15.918C232.436 16.05 232.154 16.242 231.914 16.494C231.686 16.746 231.506 17.046 231.374 17.394C231.242 17.73 231.176 18.102 231.176 18.51V18.636H236.306V18.438C236.306 17.61 236.078 16.95 235.622 16.458C235.178 15.954 234.584 15.702 233.84 15.702ZM240.227 24V14.712H241.667V16.422H241.757C241.925 15.978 242.225 15.582 242.657 15.234C243.089 14.886 243.683 14.712 244.439 14.712H244.997V16.152H244.151C243.371 16.152 242.759 16.302 242.315 16.602C241.883 16.89 241.667 17.256 241.667 17.7V24H240.227Z" fill="#454A99"/>
<path d="M196 26.25H245.303V27.33H196V26.25Z" fill="#454A99"/>
<path d="M284.674 24V11.436H292.162V12.768H286.186V16.98H291.64V18.312H286.186V24H284.674ZM295.305 12.534C294.993 12.534 294.765 12.462 294.621 12.318C294.489 12.162 294.423 11.964 294.423 11.724V11.49C294.423 11.25 294.489 11.058 294.621 10.914C294.765 10.758 294.993 10.68 295.305 10.68C295.617 10.68 295.839 10.758 295.971 10.914C296.115 11.058 296.187 11.25 296.187 11.49V11.724C296.187 11.964 296.115 12.162 295.971 12.318C295.839 12.462 295.617 12.534 295.305 12.534ZM294.585 14.712H296.025V24H294.585V14.712ZM306.915 25.026C306.915 25.986 306.537 26.688 305.781 27.132C305.037 27.588 303.915 27.816 302.415 27.816C300.963 27.816 299.919 27.618 299.283 27.222C298.647 26.826 298.329 26.262 298.329 25.53C298.329 25.026 298.461 24.63 298.725 24.342C298.989 24.066 299.349 23.862 299.805 23.73V23.532C299.253 23.268 298.977 22.836 298.977 22.236C298.977 21.768 299.127 21.414 299.427 21.174C299.727 20.922 300.111 20.736 300.579 20.616V20.544C300.027 20.28 299.595 19.902 299.283 19.41C298.983 18.918 298.833 18.348 298.833 17.7C298.833 17.232 298.917 16.8 299.085 16.404C299.253 16.008 299.487 15.672 299.787 15.396C300.099 15.108 300.465 14.886 300.885 14.73C301.317 14.574 301.797 14.496 302.325 14.496C302.985 14.496 303.573 14.616 304.089 14.856V14.694C304.089 14.334 304.173 14.04 304.341 13.812C304.509 13.572 304.785 13.452 305.169 13.452H306.555V14.712H304.791V15.306C305.127 15.594 305.385 15.942 305.565 16.35C305.757 16.746 305.853 17.196 305.853 17.7C305.853 18.168 305.769 18.6 305.601 18.996C305.433 19.392 305.193 19.734 304.881 20.022C304.581 20.298 304.215 20.514 303.783 20.67C303.351 20.826 302.871 20.904 302.343 20.904C302.043 20.904 301.743 20.874 301.443 20.814C301.131 20.898 300.849 21.024 300.597 21.192C300.345 21.348 300.219 21.57 300.219 21.858C300.219 22.134 300.351 22.32 300.615 22.416C300.879 22.512 301.221 22.56 301.641 22.56H303.621C304.773 22.56 305.607 22.782 306.123 23.226C306.651 23.658 306.915 24.258 306.915 25.026ZM305.565 25.134C305.565 24.762 305.421 24.462 305.133 24.234C304.857 24.018 304.359 23.91 303.639 23.91H300.543C299.967 24.174 299.679 24.594 299.679 25.17C299.679 25.578 299.829 25.926 300.129 26.214C300.441 26.502 300.963 26.646 301.695 26.646H303.027C303.831 26.646 304.455 26.52 304.899 26.268C305.343 26.016 305.565 25.638 305.565 25.134ZM302.343 19.752C302.955 19.752 303.441 19.608 303.801 19.32C304.161 19.02 304.341 18.564 304.341 17.952V17.448C304.341 16.836 304.161 16.386 303.801 16.098C303.441 15.798 302.955 15.648 302.343 15.648C301.731 15.648 301.245 15.798 300.885 16.098C300.525 16.386 300.345 16.836 300.345 17.448V17.952C300.345 18.564 300.525 19.02 300.885 19.32C301.245 19.608 301.731 19.752 302.343 19.752ZM308.594 24V14.712H310.034V16.224H310.106C310.334 15.696 310.652 15.276 311.06 14.964C311.48 14.652 312.038 14.496 312.734 14.496C313.694 14.496 314.45 14.808 315.002 15.432C315.566 16.044 315.848 16.914 315.848 18.042V24H314.408V18.294C314.408 16.626 313.706 15.792 312.302 15.792C312.014 15.792 311.732 15.828 311.456 15.9C311.192 15.972 310.952 16.08 310.736 16.224C310.52 16.368 310.346 16.554 310.214 16.782C310.094 16.998 310.034 17.256 310.034 17.556V24H308.594ZM322.317 24.216C321.681 24.216 321.105 24.102 320.589 23.874C320.085 23.646 319.647 23.322 319.275 22.902C318.915 22.47 318.633 21.96 318.429 21.372C318.237 20.772 318.141 20.1 318.141 19.356C318.141 18.624 318.237 17.958 318.429 17.358C318.633 16.758 318.915 16.248 319.275 15.828C319.647 15.396 320.085 15.066 320.589 14.838C321.105 14.61 321.681 14.496 322.317 14.496C322.941 14.496 323.499 14.61 323.991 14.838C324.483 15.066 324.903 15.384 325.251 15.792C325.599 16.188 325.863 16.662 326.043 17.214C326.235 17.766 326.331 18.372 326.331 19.032V19.716H319.653V20.148C319.653 20.544 319.713 20.916 319.833 21.264C319.965 21.6 320.145 21.894 320.373 22.146C320.613 22.398 320.901 22.596 321.237 22.74C321.585 22.884 321.975 22.956 322.407 22.956C322.995 22.956 323.505 22.818 323.937 22.542C324.381 22.266 324.723 21.87 324.963 21.354L325.989 22.092C325.689 22.728 325.221 23.244 324.585 23.64C323.949 24.024 323.193 24.216 322.317 24.216ZM322.317 15.702C321.921 15.702 321.561 15.774 321.237 15.918C320.913 16.05 320.631 16.242 320.391 16.494C320.163 16.746 319.983 17.046 319.851 17.394C319.719 17.73 319.653 18.102 319.653 18.51V18.636H324.783V18.438C324.783 17.61 324.555 16.95 324.099 16.458C323.655 15.954 323.061 15.702 322.317 15.702ZM328.704 24V14.712H330.144V16.422H330.234C330.402 15.978 330.702 15.582 331.134 15.234C331.566 14.886 332.16 14.712 332.916 14.712H333.474V16.152H332.628C331.848 16.152 331.236 16.302 330.792 16.602C330.36 16.89 330.144 17.256 330.144 17.7V24H328.704Z" fill="#454A99"/>
<path d="M283 26.25H333.78V27.33H283V26.25Z" fill="#454A99"/>
</svg>
