<svg width="352" height="222" viewBox="0 0 352 222" fill="none" xmlns="http://www.w3.org/2000/svg">
<path fill-rule="evenodd" clip-rule="evenodd" d="M0.5 37.5V221.5H351.5V37.5H175.5V0.5H88.5V37.5H0.5Z" fill="#C8CADF" stroke="#454A99"/>
<path d="M85.5 0.5H0.5V34.5H85.5V0.5Z" fill="#C8CADF" stroke="#454A99"/>
<path d="M25.904 12.768V24H24.392V12.768H20.396V11.436H29.9V12.768H25.904ZM31.0222 24V14.712H32.4622V16.422H32.5522C32.7202 15.978 33.0202 15.582 33.4522 15.234C33.8842 14.886 34.4782 14.712 35.2342 14.712H35.7922V16.152H34.9462C34.1662 16.152 33.5542 16.302 33.1102 16.602C32.6782 16.89 32.4622 17.256 32.4622 17.7V24H31.0222ZM38.3516 12.534C38.0396 12.534 37.8116 12.462 37.6676 12.318C37.5356 12.162 37.4696 11.964 37.4696 11.724V11.49C37.4696 11.25 37.5356 11.058 37.6676 10.914C37.8116 10.758 38.0396 10.68 38.3516 10.68C38.6636 10.68 38.8856 10.758 39.0176 10.914C39.1616 11.058 39.2336 11.25 39.2336 11.49V11.724C39.2336 11.964 39.1616 12.162 39.0176 12.318C38.8856 12.462 38.6636 12.534 38.3516 12.534ZM37.6316 14.712H39.0716V24H37.6316V14.712ZM42.1316 24V14.712H43.5716V16.224H43.6436C43.8716 15.696 44.1896 15.276 44.5976 14.964C45.0176 14.652 45.5756 14.496 46.2716 14.496C47.2316 14.496 47.9876 14.808 48.5396 15.432C49.1036 16.044 49.3856 16.914 49.3856 18.042V24H47.9456V18.294C47.9456 16.626 47.2436 15.792 45.8396 15.792C45.5516 15.792 45.2696 15.828 44.9936 15.9C44.7296 15.972 44.4896 16.08 44.2736 16.224C44.0576 16.368 43.8836 16.554 43.7516 16.782C43.6316 16.998 43.5716 17.256 43.5716 17.556V24H42.1316ZM56.6699 24V22.668H60.1799V12.552H60.0539L56.8859 15.504L56.0039 14.55L59.3339 11.436H61.6919V22.668H64.9319V24H56.6699Z" fill="#454A99"/>
<path d="M20 26.25H65.8859V27.33H20V26.25Z" fill="#454A99"/>
<path d="M114.904 12.768V24H113.392V12.768H109.396V11.436H118.9V12.768H114.904ZM120.022 24V14.712H121.462V16.422H121.552C121.72 15.978 122.02 15.582 122.452 15.234C122.884 14.886 123.478 14.712 124.234 14.712H124.792V16.152H123.946C123.166 16.152 122.554 16.302 122.11 16.602C121.678 16.89 121.462 17.256 121.462 17.7V24H120.022ZM127.352 12.534C127.04 12.534 126.812 12.462 126.668 12.318C126.536 12.162 126.47 11.964 126.47 11.724V11.49C126.47 11.25 126.536 11.058 126.668 10.914C126.812 10.758 127.04 10.68 127.352 10.68C127.664 10.68 127.886 10.758 128.018 10.914C128.162 11.058 128.234 11.25 128.234 11.49V11.724C128.234 11.964 128.162 12.162 128.018 12.318C127.886 12.462 127.664 12.534 127.352 12.534ZM126.632 14.712H128.072V24H126.632V14.712ZM131.132 24V14.712H132.572V16.224H132.644C132.872 15.696 133.19 15.276 133.598 14.964C134.018 14.652 134.576 14.496 135.272 14.496C136.232 14.496 136.988 14.808 137.54 15.432C138.104 16.044 138.386 16.914 138.386 18.042V24H136.946V18.294C136.946 16.626 136.244 15.792 134.84 15.792C134.552 15.792 134.27 15.828 133.994 15.9C133.73 15.972 133.49 16.08 133.274 16.224C133.058 16.368 132.884 16.554 132.752 16.782C132.632 16.998 132.572 17.256 132.572 17.556V24H131.132ZM153.68 24H145.436V22.452L149.54 18.672C150.128 18.132 150.62 17.562 151.016 16.962C151.412 16.35 151.61 15.738 151.61 15.126V14.91C151.61 14.214 151.418 13.65 151.034 13.218C150.65 12.786 150.068 12.57 149.288 12.57C148.904 12.57 148.568 12.624 148.28 12.732C147.992 12.84 147.74 12.99 147.524 13.182C147.32 13.374 147.146 13.602 147.002 13.866C146.87 14.118 146.762 14.394 146.678 14.694L145.328 14.172C145.448 13.8 145.61 13.44 145.814 13.092C146.03 12.732 146.294 12.414 146.606 12.138C146.93 11.862 147.314 11.64 147.758 11.472C148.214 11.304 148.748 11.22 149.36 11.22C149.972 11.22 150.518 11.31 150.998 11.49C151.478 11.67 151.88 11.922 152.204 12.246C152.528 12.57 152.774 12.954 152.942 13.398C153.122 13.842 153.212 14.334 153.212 14.874C153.212 15.366 153.14 15.822 152.996 16.242C152.864 16.662 152.678 17.064 152.438 17.448C152.198 17.82 151.904 18.186 151.556 18.546C151.22 18.906 150.854 19.266 150.458 19.626L147.074 22.668H153.68V24Z" fill="#454A99"/>
<path fill-rule="evenodd" clip-rule="evenodd" d="M178.5 0.5V34.5H263.5V0.5H178.5Z" fill="#C8CADF" stroke="#454A99"/>
<path d="M351.5 0.5H266.5V34.5H351.5V0.5Z" fill="#C8CADF" stroke="#454A99"/>
<path d="M203.904 12.768V24H202.392V12.768H198.396V11.436H207.9V12.768H203.904ZM209.022 24V14.712H210.462V16.422H210.552C210.72 15.978 211.02 15.582 211.452 15.234C211.884 14.886 212.478 14.712 213.234 14.712H213.792V16.152H212.946C212.166 16.152 211.554 16.302 211.11 16.602C210.678 16.89 210.462 17.256 210.462 17.7V24H209.022ZM216.352 12.534C216.04 12.534 215.812 12.462 215.668 12.318C215.536 12.162 215.47 11.964 215.47 11.724V11.49C215.47 11.25 215.536 11.058 215.668 10.914C215.812 10.758 216.04 10.68 216.352 10.68C216.664 10.68 216.886 10.758 217.018 10.914C217.162 11.058 217.234 11.25 217.234 11.49V11.724C217.234 11.964 217.162 12.162 217.018 12.318C216.886 12.462 216.664 12.534 216.352 12.534ZM215.632 14.712H217.072V24H215.632V14.712ZM220.132 24V14.712H221.572V16.224H221.644C221.872 15.696 222.19 15.276 222.598 14.964C223.018 14.652 223.576 14.496 224.272 14.496C225.232 14.496 225.988 14.808 226.54 15.432C227.104 16.044 227.386 16.914 227.386 18.042V24H225.946V18.294C225.946 16.626 225.244 15.792 223.84 15.792C223.552 15.792 223.27 15.828 222.994 15.9C222.73 15.972 222.49 16.08 222.274 16.224C222.058 16.368 221.884 16.554 221.752 16.782C221.632 16.998 221.572 17.256 221.572 17.556V24H220.132ZM237.784 16.764C238.636 16.764 239.272 16.572 239.692 16.188C240.124 15.792 240.34 15.288 240.34 14.676V14.55C240.34 13.89 240.13 13.398 239.71 13.074C239.302 12.738 238.762 12.57 238.09 12.57C237.442 12.57 236.914 12.714 236.506 13.002C236.098 13.278 235.762 13.656 235.498 14.136L234.382 13.272C234.538 13.02 234.724 12.774 234.94 12.534C235.168 12.282 235.432 12.06 235.732 11.868C236.032 11.676 236.38 11.52 236.776 11.4C237.172 11.28 237.622 11.22 238.126 11.22C238.654 11.22 239.152 11.292 239.62 11.436C240.088 11.568 240.49 11.772 240.826 12.048C241.174 12.312 241.444 12.642 241.636 13.038C241.84 13.434 241.942 13.884 241.942 14.388C241.942 14.796 241.876 15.162 241.744 15.486C241.624 15.81 241.456 16.092 241.24 16.332C241.024 16.572 240.766 16.776 240.466 16.944C240.178 17.112 239.866 17.238 239.53 17.322V17.394C239.866 17.466 240.19 17.586 240.502 17.754C240.826 17.91 241.108 18.12 241.348 18.384C241.6 18.636 241.798 18.948 241.942 19.32C242.098 19.68 242.176 20.094 242.176 20.562C242.176 21.102 242.074 21.6 241.87 22.056C241.666 22.5 241.378 22.884 241.006 23.208C240.634 23.52 240.184 23.766 239.656 23.946C239.128 24.126 238.546 24.216 237.91 24.216C237.37 24.216 236.89 24.156 236.47 24.036C236.05 23.916 235.678 23.754 235.354 23.55C235.03 23.346 234.742 23.118 234.49 22.866C234.25 22.614 234.034 22.35 233.842 22.074L234.976 21.21C235.132 21.462 235.3 21.69 235.48 21.894C235.672 22.098 235.882 22.272 236.11 22.416C236.338 22.56 236.596 22.674 236.884 22.758C237.172 22.83 237.508 22.866 237.892 22.866C238.78 22.866 239.452 22.668 239.908 22.272C240.364 21.864 240.592 21.288 240.592 20.544V20.4C240.592 19.656 240.364 19.086 239.908 18.69C239.452 18.282 238.78 18.078 237.892 18.078H236.416V16.764H237.784Z" fill="#454A99"/>
<path d="M198 26.25H243.886V27.33H198V26.25Z" fill="#454A99"/>
<path d="M291.904 12.768V24H290.392V12.768H286.396V11.436H295.9V12.768H291.904ZM297.022 24V14.712H298.462V16.422H298.552C298.72 15.978 299.02 15.582 299.452 15.234C299.884 14.886 300.478 14.712 301.234 14.712H301.792V16.152H300.946C300.166 16.152 299.554 16.302 299.11 16.602C298.678 16.89 298.462 17.256 298.462 17.7V24H297.022ZM304.352 12.534C304.04 12.534 303.812 12.462 303.668 12.318C303.536 12.162 303.47 11.964 303.47 11.724V11.49C303.47 11.25 303.536 11.058 303.668 10.914C303.812 10.758 304.04 10.68 304.352 10.68C304.664 10.68 304.886 10.758 305.018 10.914C305.162 11.058 305.234 11.25 305.234 11.49V11.724C305.234 11.964 305.162 12.162 305.018 12.318C304.886 12.462 304.664 12.534 304.352 12.534ZM303.632 14.712H305.072V24H303.632V14.712ZM308.132 24V14.712H309.572V16.224H309.644C309.872 15.696 310.19 15.276 310.598 14.964C311.018 14.652 311.576 14.496 312.272 14.496C313.232 14.496 313.988 14.808 314.54 15.432C315.104 16.044 315.386 16.914 315.386 18.042V24H313.946V18.294C313.946 16.626 313.244 15.792 311.84 15.792C311.552 15.792 311.27 15.828 310.994 15.9C310.73 15.972 310.49 16.08 310.274 16.224C310.058 16.368 309.884 16.554 309.752 16.782C309.632 16.998 309.572 17.256 309.572 17.556V24H308.132ZM327.836 24V21.534H321.77V20.202L327.026 11.436H329.276V20.274H331.094V21.534H329.276V24H327.836ZM323.192 20.274H327.836V12.606H327.746L323.192 20.274Z" fill="#454A99"/>
<path d="M286 26.25H331.886V27.33H286V26.25Z" fill="#454A99"/>
</svg>
