<svg width="360" height="380" viewBox="0 0 360 380" fill="none" xmlns="http://www.w3.org/2000/svg">
<g clip-path="url(#clip0)">
<path d="M316.5 215.5H25.5V252.5H316.5V215.5Z" fill="#DCDCDC" stroke="#CC0000"/>
<path d="M146.5 168.5H25.5V187.5H146.5V168.5Z" fill="#BFBFBF" stroke="#747474"/>
<path d="M240.5 118.5H9.5V155.5H240.5V118.5Z" fill="#DCDCDC" stroke="#747474"/>
<path d="M130.5 95.5H9.5V114.5H130.5V95.5Z" fill="#BFBFBF" stroke="#747474"/>
<path d="M330.5 63.5H9.5V84.5H330.5V63.5Z" fill="#BFBFBF" stroke="#747474"/>
<path d="M330.5 18.5H9.5V54.5H330.5V18.5Z" fill="#FFE0E0" stroke="#CE1B1B"/>
<path d="M15 19H10V54H15V19Z" fill="#CE1B1B"/>
<path d="M18 165H10V255H18V165Z" fill="#CE1B1B"/>
<path d="M95 341H10V376H95V341Z" fill="#747474"/>
<path d="M38.784 366.192C37.824 366.192 37.008 366.021 36.336 365.68C35.6747 365.339 35.104 364.891 34.624 364.336L36.048 362.96C36.432 363.408 36.8587 363.749 37.328 363.984C37.808 364.219 38.336 364.336 38.912 364.336C39.5627 364.336 40.0533 364.197 40.384 363.92C40.7147 363.632 40.88 363.248 40.88 362.768C40.88 362.395 40.7733 362.091 40.56 361.856C40.3467 361.621 39.9467 361.451 39.36 361.344L38.304 361.184C36.0747 360.832 34.96 359.749 34.96 357.936C34.96 357.435 35.0507 356.981 35.232 356.576C35.424 356.171 35.696 355.824 36.048 355.536C36.4 355.248 36.8213 355.029 37.312 354.88C37.8133 354.72 38.3787 354.64 39.008 354.64C39.8507 354.64 40.5867 354.779 41.216 355.056C41.8453 355.333 42.384 355.744 42.832 356.288L41.392 357.648C41.1147 357.307 40.7787 357.029 40.384 356.816C39.9893 356.603 39.4933 356.496 38.896 356.496C38.288 356.496 37.8293 356.613 37.52 356.848C37.2213 357.072 37.072 357.392 37.072 357.808C37.072 358.235 37.1947 358.549 37.44 358.752C37.6853 358.955 38.08 359.104 38.624 359.2L39.664 359.392C40.7947 359.595 41.6267 359.957 42.16 360.48C42.704 360.992 42.976 361.712 42.976 362.64C42.976 363.173 42.88 363.659 42.688 364.096C42.5067 364.523 42.2347 364.896 41.872 365.216C41.52 365.525 41.0827 365.765 40.56 365.936C40.048 366.107 39.456 366.192 38.784 366.192ZM48.3413 366.192C47.7226 366.192 47.1679 366.091 46.6773 365.888C46.1973 365.675 45.7866 365.381 45.4453 365.008C45.1146 364.624 44.8586 364.165 44.6773 363.632C44.4959 363.088 44.4053 362.48 44.4053 361.808C44.4053 361.147 44.4906 360.549 44.6613 360.016C44.8426 359.483 45.0986 359.029 45.4293 358.656C45.7599 358.272 46.1653 357.979 46.6453 357.776C47.1253 357.563 47.6693 357.456 48.2773 357.456C48.9279 357.456 49.4933 357.568 49.9733 357.792C50.4533 358.016 50.8479 358.32 51.1573 358.704C51.4666 359.088 51.6959 359.536 51.8453 360.048C52.0053 360.549 52.0853 361.088 52.0853 361.664V362.336H46.5333V362.544C46.5333 363.152 46.7039 363.643 47.0453 364.016C47.3866 364.379 47.8933 364.56 48.5653 364.56C49.0773 364.56 49.4933 364.453 49.8133 364.24C50.1439 364.027 50.4373 363.755 50.6933 363.424L51.7973 364.656C51.4559 365.136 50.9866 365.515 50.3893 365.792C49.8026 366.059 49.1199 366.192 48.3413 366.192ZM48.3093 358.992C47.7653 358.992 47.3333 359.173 47.0133 359.536C46.6933 359.899 46.5333 360.368 46.5333 360.944V361.072H49.9573V360.928C49.9573 360.352 49.8133 359.888 49.5253 359.536C49.2479 359.173 48.8426 358.992 48.3093 358.992ZM53.8871 366V357.648H55.9351V359.04H56.0151C56.1858 358.592 56.4525 358.219 56.8151 357.92C57.1885 357.611 57.7005 357.456 58.3511 357.456C59.2151 357.456 59.8765 357.739 60.3351 358.304C60.7938 358.869 61.0231 359.675 61.0231 360.72V366H58.9751V360.928C58.9751 360.331 58.8685 359.883 58.6551 359.584C58.4418 359.285 58.0898 359.136 57.5991 359.136C57.3858 359.136 57.1778 359.168 56.9751 359.232C56.7831 359.285 56.6071 359.371 56.4471 359.488C56.2978 359.595 56.1751 359.733 56.0791 359.904C55.9831 360.064 55.9351 360.256 55.9351 360.48V366H53.8871ZM68.4774 364.608H68.3974C68.248 365.088 67.9654 365.472 67.5494 365.76C67.1334 366.048 66.648 366.192 66.0934 366.192C65.0374 366.192 64.2267 365.813 63.6614 365.056C63.1067 364.299 62.8294 363.216 62.8294 361.808C62.8294 360.411 63.1067 359.339 63.6614 358.592C64.2267 357.835 65.0374 357.456 66.0934 357.456C66.648 357.456 67.1334 357.6 67.5494 357.888C67.9654 358.165 68.248 358.544 68.3974 359.024H68.4774V354.16H70.5254V366H68.4774V364.608ZM66.7494 364.496C67.24 364.496 67.6507 364.379 67.9814 364.144C68.312 363.909 68.4774 363.573 68.4774 363.136V360.48C68.4774 360.075 68.312 359.749 67.9814 359.504C67.6507 359.259 67.24 359.136 66.7494 359.136C66.216 359.136 65.784 359.317 65.4534 359.68C65.1334 360.032 64.9734 360.507 64.9734 361.104V362.544C64.9734 363.141 65.1334 363.616 65.4534 363.968C65.784 364.32 66.216 364.496 66.7494 364.496Z" fill="#F5F5F5"/>
<path d="M25.312 43V31.832H32.496V33.704H27.424V36.408H31.84V38.28H27.424V43H25.312ZM37.31 43.192C36.6913 43.192 36.1367 43.0907 35.646 42.888C35.166 42.6747 34.7553 42.3813 34.414 42.008C34.0833 41.624 33.8273 41.1653 33.646 40.632C33.4647 40.088 33.374 39.48 33.374 38.808C33.374 38.1467 33.4593 37.5493 33.63 37.016C33.8113 36.4827 34.0673 36.0293 34.398 35.656C34.7287 35.272 35.134 34.9787 35.614 34.776C36.094 34.5627 36.638 34.456 37.246 34.456C37.8967 34.456 38.462 34.568 38.942 34.792C39.422 35.016 39.8167 35.32 40.126 35.704C40.4353 36.088 40.6647 36.536 40.814 37.048C40.974 37.5493 41.054 38.088 41.054 38.664V39.336H35.502V39.544C35.502 40.152 35.6727 40.6427 36.014 41.016C36.3553 41.3787 36.862 41.56 37.534 41.56C38.046 41.56 38.462 41.4533 38.782 41.24C39.1127 41.0267 39.406 40.7547 39.662 40.424L40.766 41.656C40.4247 42.136 39.9553 42.5147 39.358 42.792C38.7713 43.0587 38.0887 43.192 37.31 43.192ZM37.278 35.992C36.734 35.992 36.302 36.1733 35.982 36.536C35.662 36.8987 35.502 37.368 35.502 37.944V38.072H38.926V37.928C38.926 37.352 38.782 36.888 38.494 36.536C38.2167 36.1733 37.8113 35.992 37.278 35.992ZM42.8559 34.648H44.9039V44.008C44.9039 44.712 44.7279 45.2507 44.3759 45.624C44.0239 46.008 43.4639 46.2 42.6959 46.2H41.5759V44.568H42.8559V34.648ZM43.8799 33.432C43.4532 33.432 43.1439 33.336 42.9519 33.144C42.7705 32.952 42.6799 32.7067 42.6799 32.408V32.088C42.6799 31.7893 42.7705 31.544 42.9519 31.352C43.1439 31.16 43.4532 31.064 43.8799 31.064C44.2959 31.064 44.5999 31.16 44.7919 31.352C44.9839 31.544 45.0799 31.7893 45.0799 32.088V32.408C45.0799 32.7067 44.9839 32.952 44.7919 33.144C44.5999 33.336 44.2959 33.432 43.8799 33.432ZM49.3258 43C48.6218 43 48.1044 42.824 47.7738 42.472C47.4431 42.12 47.2778 41.624 47.2778 40.984V31.16H49.3258V41.368H50.4298V43H49.3258ZM55.2929 43.192C54.6955 43.192 54.1569 43.0907 53.6769 42.888C53.2075 42.6853 52.8022 42.392 52.4609 42.008C52.1302 41.624 51.8742 41.1653 51.6929 40.632C51.5115 40.088 51.4209 39.48 51.4209 38.808C51.4209 38.136 51.5115 37.5333 51.6929 37C51.8742 36.4667 52.1302 36.0133 52.4609 35.64C52.8022 35.256 53.2075 34.9627 53.6769 34.76C54.1569 34.5573 54.6955 34.456 55.2929 34.456C55.8902 34.456 56.4289 34.5573 56.9089 34.76C57.3889 34.9627 57.7942 35.256 58.1249 35.64C58.4662 36.0133 58.7275 36.4667 58.9089 37C59.0902 37.5333 59.1809 38.136 59.1809 38.808C59.1809 39.48 59.0902 40.088 58.9089 40.632C58.7275 41.1653 58.4662 41.624 58.1249 42.008C57.7942 42.392 57.3889 42.6853 56.9089 42.888C56.4289 43.0907 55.8902 43.192 55.2929 43.192ZM55.2929 41.544C55.8369 41.544 56.2635 41.3787 56.5729 41.048C56.8822 40.7173 57.0369 40.232 57.0369 39.592V38.04C57.0369 37.4107 56.8822 36.9307 56.5729 36.6C56.2635 36.2693 55.8369 36.104 55.2929 36.104C54.7595 36.104 54.3382 36.2693 54.0289 36.6C53.7195 36.9307 53.5649 37.4107 53.5649 38.04V39.592C53.5649 40.232 53.7195 40.7173 54.0289 41.048C54.3382 41.3787 54.7595 41.544 55.2929 41.544ZM60.9965 34.648H63.0445V36.024H63.1085C63.2578 35.544 63.5405 35.1653 63.9565 34.888C64.3725 34.6 64.8578 34.456 65.4125 34.456C66.4792 34.456 67.2898 34.8347 67.8445 35.592C68.4098 36.3387 68.6925 37.4107 68.6925 38.808C68.6925 40.216 68.4098 41.2987 67.8445 42.056C67.2898 42.8133 66.4792 43.192 65.4125 43.192C64.8578 43.192 64.3725 43.048 63.9565 42.76C63.5512 42.472 63.2685 42.088 63.1085 41.608H63.0445V46.2H60.9965V34.648ZM64.7565 41.496C65.2898 41.496 65.7218 41.32 66.0525 40.968C66.3832 40.616 66.5485 40.1413 66.5485 39.544V38.104C66.5485 37.5067 66.3832 37.032 66.0525 36.68C65.7218 36.3173 65.2898 36.136 64.7565 36.136C64.2658 36.136 63.8552 36.2587 63.5245 36.504C63.2045 36.7493 63.0445 37.0747 63.0445 37.48V40.136C63.0445 40.5733 63.2045 40.9093 63.5245 41.144C63.8552 41.3787 64.2658 41.496 64.7565 41.496ZM73.3263 43.192C72.5263 43.192 71.8543 43.0587 71.3103 42.792C70.7663 42.5147 70.2863 42.136 69.8703 41.656L71.1183 40.44C71.4276 40.792 71.7636 41.0693 72.1263 41.272C72.4996 41.4747 72.9263 41.576 73.4062 41.576C73.8969 41.576 74.2489 41.4907 74.4623 41.32C74.6863 41.1493 74.7983 40.9147 74.7983 40.616C74.7983 40.3707 74.7183 40.1787 74.5583 40.04C74.4089 39.8907 74.1476 39.7893 73.7743 39.736L72.9423 39.624C72.0356 39.5067 71.3423 39.2507 70.8623 38.856C70.3929 38.4507 70.1583 37.864 70.1583 37.096C70.1583 36.6907 70.2329 36.328 70.3823 36.008C70.5316 35.6773 70.7449 35.4 71.0223 35.176C71.2996 34.9413 71.6303 34.7653 72.0143 34.648C72.4089 34.52 72.8463 34.456 73.3263 34.456C73.7316 34.456 74.0889 34.488 74.3983 34.552C74.7183 34.6053 75.0063 34.6907 75.2623 34.808C75.5183 34.9147 75.7529 35.0533 75.9663 35.224C76.1796 35.384 76.3876 35.5653 76.5903 35.768L75.3903 36.968C75.1449 36.712 74.8516 36.4987 74.5103 36.328C74.1689 36.1573 73.7956 36.072 73.3903 36.072C72.9423 36.072 72.6169 36.152 72.4143 36.312C72.2223 36.472 72.1263 36.68 72.1263 36.936C72.1263 37.2133 72.2063 37.4267 72.3663 37.576C72.5369 37.7147 72.8196 37.816 73.2143 37.88L74.0623 37.992C75.8649 38.248 76.7663 39.0693 76.7663 40.456C76.7663 40.8613 76.6809 41.2347 76.5103 41.576C76.3503 41.9067 76.1209 42.1947 75.8223 42.44C75.5236 42.6747 75.1609 42.8613 74.7343 43C74.3183 43.128 73.8489 43.192 73.3263 43.192ZM83.5666 41.608H83.4866C83.412 41.8213 83.3106 42.024 83.1826 42.216C83.0653 42.3973 82.9106 42.5627 82.7186 42.712C82.5373 42.8613 82.3133 42.9787 82.0466 43.064C81.7906 43.1493 81.492 43.192 81.1506 43.192C80.2866 43.192 79.6253 42.9093 79.1666 42.344C78.708 41.7787 78.4786 40.9733 78.4786 39.928V34.648H80.5266V39.72C80.5266 40.296 80.6386 40.7387 80.8626 41.048C81.0866 41.3467 81.444 41.496 81.9346 41.496C82.1373 41.496 82.3346 41.4693 82.5266 41.416C82.7293 41.3627 82.9053 41.2827 83.0546 41.176C83.204 41.0587 83.3266 40.92 83.4226 40.76C83.5186 40.5893 83.5666 40.392 83.5666 40.168V34.648H85.6146V43H83.5666V41.608ZM87.9809 43V34.648H90.0289V36.04H90.1089C90.2689 35.6027 90.5249 35.2293 90.8769 34.92C91.2289 34.6107 91.7195 34.456 92.3489 34.456C92.9249 34.456 93.4209 34.5947 93.8369 34.872C94.2529 35.1493 94.5622 35.5707 94.7649 36.136H94.7969C94.9462 35.6667 95.2395 35.272 95.6769 34.952C96.1249 34.6213 96.6849 34.456 97.3569 34.456C98.1782 34.456 98.8075 34.7387 99.2449 35.304C99.6929 35.8693 99.9169 36.6747 99.9169 37.72V43H97.8689V37.928C97.8689 36.7333 97.4209 36.136 96.5249 36.136C96.3222 36.136 96.1249 36.168 95.9329 36.232C95.7515 36.2853 95.5862 36.3707 95.4369 36.488C95.2982 36.5947 95.1862 36.7333 95.1009 36.904C95.0155 37.064 94.9729 37.256 94.9729 37.48V43H92.9249V37.928C92.9249 36.7333 92.4769 36.136 91.5809 36.136C91.3889 36.136 91.1969 36.168 91.0049 36.232C90.8235 36.2853 90.6582 36.3707 90.5089 36.488C90.3702 36.5947 90.2529 36.7333 90.1569 36.904C90.0715 37.064 90.0289 37.256 90.0289 37.48V43H87.9809ZM102.184 43V34.648H104.232V36.04H104.312C104.472 35.6027 104.728 35.2293 105.08 34.92C105.432 34.6107 105.923 34.456 106.552 34.456C107.128 34.456 107.624 34.5947 108.04 34.872C108.456 35.1493 108.765 35.5707 108.968 36.136H109C109.149 35.6667 109.443 35.272 109.88 34.952C110.328 34.6213 110.888 34.456 111.56 34.456C112.381 34.456 113.011 34.7387 113.448 35.304C113.896 35.8693 114.12 36.6747 114.12 37.72V43H112.072V37.928C112.072 36.7333 111.624 36.136 110.728 36.136C110.525 36.136 110.328 36.168 110.136 36.232C109.955 36.2853 109.789 36.3707 109.64 36.488C109.501 36.5947 109.389 36.7333 109.304 36.904C109.219 37.064 109.176 37.256 109.176 37.48V43H107.128V37.928C107.128 36.7333 106.68 36.136 105.784 36.136C105.592 36.136 105.4 36.168 105.208 36.232C105.027 36.2853 104.861 36.3707 104.712 36.488C104.573 36.5947 104.456 36.7333 104.36 36.904C104.275 37.064 104.232 37.256 104.232 37.48V43H102.184ZM119.763 43.192C119.144 43.192 118.59 43.0907 118.099 42.888C117.619 42.6747 117.208 42.3813 116.867 42.008C116.536 41.624 116.28 41.1653 116.099 40.632C115.918 40.088 115.827 39.48 115.827 38.808C115.827 38.1467 115.912 37.5493 116.083 37.016C116.264 36.4827 116.52 36.0293 116.851 35.656C117.182 35.272 117.587 34.9787 118.067 34.776C118.547 34.5627 119.091 34.456 119.699 34.456C120.35 34.456 120.915 34.568 121.395 34.792C121.875 35.016 122.27 35.32 122.579 35.704C122.888 36.088 123.118 36.536 123.267 37.048C123.427 37.5493 123.507 38.088 123.507 38.664V39.336H117.955V39.544C117.955 40.152 118.126 40.6427 118.467 41.016C118.808 41.3787 119.315 41.56 119.987 41.56C120.499 41.56 120.915 41.4533 121.235 41.24C121.566 41.0267 121.859 40.7547 122.115 40.424L123.219 41.656C122.878 42.136 122.408 42.5147 121.811 42.792C121.224 43.0587 120.542 43.192 119.763 43.192ZM119.731 35.992C119.187 35.992 118.755 36.1733 118.435 36.536C118.115 36.8987 117.955 37.368 117.955 37.944V38.072H121.379V37.928C121.379 37.352 121.235 36.888 120.947 36.536C120.67 36.1733 120.264 35.992 119.731 35.992ZM125.309 43V34.648H127.357V36.376H127.437C127.49 36.152 127.57 35.9387 127.677 35.736C127.794 35.5227 127.944 35.336 128.125 35.176C128.306 35.016 128.52 34.888 128.765 34.792C129.021 34.696 129.314 34.648 129.645 34.648H130.093V36.584H129.453C128.76 36.584 128.237 36.6853 127.885 36.888C127.533 37.0907 127.357 37.4213 127.357 37.88V43H125.309ZM132.614 33.432C132.188 33.432 131.878 33.336 131.686 33.144C131.505 32.952 131.414 32.7067 131.414 32.408V32.088C131.414 31.7893 131.505 31.544 131.686 31.352C131.878 31.16 132.188 31.064 132.614 31.064C133.03 31.064 133.334 31.16 133.526 31.352C133.718 31.544 133.814 31.7893 133.814 32.088V32.408C133.814 32.7067 133.718 32.952 133.526 33.144C133.334 33.336 133.03 33.432 132.614 33.432ZM131.59 34.648H133.638V43H131.59V34.648ZM136.012 43V34.648H138.06V36.04H138.14C138.311 35.592 138.577 35.2187 138.94 34.92C139.313 34.6107 139.825 34.456 140.476 34.456C141.34 34.456 142.001 34.7387 142.46 35.304C142.919 35.8693 143.148 36.6747 143.148 37.72V43H141.1V37.928C141.1 37.3307 140.993 36.8827 140.78 36.584C140.567 36.2853 140.215 36.136 139.724 36.136C139.511 36.136 139.303 36.168 139.1 36.232C138.908 36.2853 138.732 36.3707 138.572 36.488C138.423 36.5947 138.3 36.7333 138.204 36.904C138.108 37.064 138.06 37.256 138.06 37.48V43H136.012ZM152.954 43.704C152.954 44.1413 152.874 44.5253 152.714 44.856C152.565 45.1973 152.314 45.48 151.962 45.704C151.61 45.928 151.157 46.0987 150.602 46.216C150.048 46.3333 149.37 46.392 148.57 46.392C147.866 46.392 147.269 46.344 146.778 46.248C146.288 46.1627 145.882 46.0347 145.562 45.864C145.253 45.704 145.029 45.5013 144.89 45.256C144.752 45.0107 144.682 44.7333 144.682 44.424C144.682 43.9547 144.81 43.5867 145.066 43.32C145.333 43.064 145.701 42.8987 146.17 42.824V42.648C145.829 42.5627 145.562 42.3973 145.37 42.152C145.189 41.896 145.098 41.5973 145.098 41.256C145.098 41.0427 145.141 40.856 145.226 40.696C145.312 40.5253 145.424 40.3813 145.562 40.264C145.712 40.1467 145.877 40.0507 146.058 39.976C146.24 39.8907 146.432 39.8267 146.634 39.784V39.72C146.122 39.4853 145.738 39.16 145.482 38.744C145.237 38.328 145.114 37.8427 145.114 37.288C145.114 36.4347 145.408 35.752 145.994 35.24C146.581 34.7173 147.44 34.456 148.57 34.456C148.826 34.456 149.077 34.472 149.322 34.504C149.578 34.536 149.813 34.5893 150.026 34.664V34.392C150.026 33.5813 150.421 33.176 151.21 33.176H152.506V34.744H150.73V34.968C151.168 35.2133 151.493 35.5333 151.706 35.928C151.92 36.3227 152.026 36.776 152.026 37.288C152.026 38.1307 151.733 38.808 151.146 39.32C150.57 39.832 149.712 40.088 148.57 40.088C148.08 40.088 147.653 40.04 147.29 39.944C147.13 40.0187 146.992 40.12 146.874 40.248C146.757 40.3653 146.698 40.5147 146.698 40.696C146.698 41.112 147.061 41.32 147.786 41.32H150.026C151.05 41.32 151.792 41.5333 152.25 41.96C152.72 42.376 152.954 42.9573 152.954 43.704ZM151.034 43.944C151.034 43.6773 150.928 43.4693 150.714 43.32C150.501 43.1707 150.133 43.096 149.61 43.096H146.762C146.474 43.3093 146.33 43.5973 146.33 43.96C146.33 44.28 146.464 44.5307 146.73 44.712C146.997 44.8933 147.45 44.984 148.09 44.984H149.114C149.786 44.984 150.272 44.8987 150.57 44.728C150.88 44.5573 151.034 44.296 151.034 43.944ZM148.57 38.696C149.573 38.696 150.074 38.2693 150.074 37.416V37.144C150.074 36.2907 149.573 35.864 148.57 35.864C147.568 35.864 147.066 36.2907 147.066 37.144V37.416C147.066 38.2693 147.568 38.696 148.57 38.696Z" fill="#CE1B1B"/>
<path d="M25.312 206V194.832H32.496V196.704H27.424V199.408H31.84V201.28H27.424V206H25.312ZM37.31 206.192C36.6913 206.192 36.1367 206.091 35.646 205.888C35.166 205.675 34.7553 205.381 34.414 205.008C34.0833 204.624 33.8273 204.165 33.646 203.632C33.4647 203.088 33.374 202.48 33.374 201.808C33.374 201.147 33.4593 200.549 33.63 200.016C33.8113 199.483 34.0673 199.029 34.398 198.656C34.7287 198.272 35.134 197.979 35.614 197.776C36.094 197.563 36.638 197.456 37.246 197.456C37.8967 197.456 38.462 197.568 38.942 197.792C39.422 198.016 39.8167 198.32 40.126 198.704C40.4353 199.088 40.6647 199.536 40.814 200.048C40.974 200.549 41.054 201.088 41.054 201.664V202.336H35.502V202.544C35.502 203.152 35.6727 203.643 36.014 204.016C36.3553 204.379 36.862 204.56 37.534 204.56C38.046 204.56 38.462 204.453 38.782 204.24C39.1127 204.027 39.406 203.755 39.662 203.424L40.766 204.656C40.4247 205.136 39.9553 205.515 39.358 205.792C38.7713 206.059 38.0887 206.192 37.31 206.192ZM37.278 198.992C36.734 198.992 36.302 199.173 35.982 199.536C35.662 199.899 35.502 200.368 35.502 200.944V201.072H38.926V200.928C38.926 200.352 38.782 199.888 38.494 199.536C38.2167 199.173 37.8113 198.992 37.278 198.992ZM42.8559 197.648H44.9039V207.008C44.9039 207.712 44.7279 208.251 44.3759 208.624C44.0239 209.008 43.4639 209.2 42.6959 209.2H41.5759V207.568H42.8559V197.648ZM43.8799 196.432C43.4532 196.432 43.1439 196.336 42.9519 196.144C42.7705 195.952 42.6799 195.707 42.6799 195.408V195.088C42.6799 194.789 42.7705 194.544 42.9519 194.352C43.1439 194.16 43.4532 194.064 43.8799 194.064C44.2959 194.064 44.5999 194.16 44.7919 194.352C44.9839 194.544 45.0799 194.789 45.0799 195.088V195.408C45.0799 195.707 44.9839 195.952 44.7919 196.144C44.5999 196.336 44.2959 196.432 43.8799 196.432ZM49.3258 206C48.6218 206 48.1044 205.824 47.7738 205.472C47.4431 205.12 47.2778 204.624 47.2778 203.984V194.16H49.3258V204.368H50.4298V206H49.3258ZM51.9809 194.16H54.0289V199.024H54.0929C54.2422 198.544 54.5249 198.165 54.9409 197.888C55.3569 197.6 55.8422 197.456 56.3969 197.456C57.4635 197.456 58.2742 197.835 58.8289 198.592C59.3942 199.339 59.6769 200.411 59.6769 201.808C59.6769 203.216 59.3942 204.299 58.8289 205.056C58.2742 205.813 57.4635 206.192 56.3969 206.192C55.8422 206.192 55.3569 206.048 54.9409 205.76C54.5355 205.472 54.2529 205.088 54.0929 204.608H54.0289V206H51.9809V194.16ZM55.7409 204.496C56.2742 204.496 56.7062 204.32 57.0369 203.968C57.3675 203.616 57.5329 203.141 57.5329 202.544V201.104C57.5329 200.507 57.3675 200.032 57.0369 199.68C56.7062 199.317 56.2742 199.136 55.7409 199.136C55.2502 199.136 54.8395 199.259 54.5089 199.504C54.1889 199.749 54.0289 200.075 54.0289 200.48V203.136C54.0289 203.573 54.1889 203.909 54.5089 204.144C54.8395 204.379 55.2502 204.496 55.7409 204.496ZM64.9506 206.192C64.332 206.192 63.7773 206.091 63.2866 205.888C62.8066 205.675 62.396 205.381 62.0546 205.008C61.724 204.624 61.468 204.165 61.2866 203.632C61.1053 203.088 61.0146 202.48 61.0146 201.808C61.0146 201.147 61.1 200.549 61.2706 200.016C61.452 199.483 61.708 199.029 62.0386 198.656C62.3693 198.272 62.7746 197.979 63.2546 197.776C63.7346 197.563 64.2786 197.456 64.8866 197.456C65.5373 197.456 66.1026 197.568 66.5826 197.792C67.0626 198.016 67.4573 198.32 67.7666 198.704C68.076 199.088 68.3053 199.536 68.4546 200.048C68.6146 200.549 68.6946 201.088 68.6946 201.664V202.336H63.1426V202.544C63.1426 203.152 63.3133 203.643 63.6546 204.016C63.996 204.379 64.5026 204.56 65.1746 204.56C65.6866 204.56 66.1026 204.453 66.4226 204.24C66.7533 204.027 67.0466 203.755 67.3026 203.424L68.4066 204.656C68.0653 205.136 67.596 205.515 66.9986 205.792C66.412 206.059 65.7293 206.192 64.9506 206.192ZM64.9186 198.992C64.3746 198.992 63.9426 199.173 63.6226 199.536C63.3026 199.899 63.1426 200.368 63.1426 200.944V201.072H66.5666V200.928C66.5666 200.352 66.4226 199.888 66.1346 199.536C65.8573 199.173 65.452 198.992 64.9186 198.992ZM73.2325 206.192C72.4325 206.192 71.7605 206.059 71.2165 205.792C70.6725 205.515 70.1925 205.136 69.7765 204.656L71.0245 203.44C71.3338 203.792 71.6698 204.069 72.0325 204.272C72.4058 204.475 72.8325 204.576 73.3125 204.576C73.8032 204.576 74.1552 204.491 74.3685 204.32C74.5925 204.149 74.7045 203.915 74.7045 203.616C74.7045 203.371 74.6245 203.179 74.4645 203.04C74.3152 202.891 74.0538 202.789 73.6805 202.736L72.8485 202.624C71.9418 202.507 71.2485 202.251 70.7685 201.856C70.2992 201.451 70.0645 200.864 70.0645 200.096C70.0645 199.691 70.1392 199.328 70.2885 199.008C70.4378 198.677 70.6512 198.4 70.9285 198.176C71.2058 197.941 71.5365 197.765 71.9205 197.648C72.3152 197.52 72.7525 197.456 73.2325 197.456C73.6378 197.456 73.9952 197.488 74.3045 197.552C74.6245 197.605 74.9125 197.691 75.1685 197.808C75.4245 197.915 75.6592 198.053 75.8725 198.224C76.0858 198.384 76.2938 198.565 76.4965 198.768L75.2965 199.968C75.0512 199.712 74.7578 199.499 74.4165 199.328C74.0752 199.157 73.7018 199.072 73.2965 199.072C72.8485 199.072 72.5232 199.152 72.3205 199.312C72.1285 199.472 72.0325 199.68 72.0325 199.936C72.0325 200.213 72.1125 200.427 72.2725 200.576C72.4432 200.715 72.7258 200.816 73.1205 200.88L73.9685 200.992C75.7712 201.248 76.6725 202.069 76.6725 203.456C76.6725 203.861 76.5872 204.235 76.4165 204.576C76.2565 204.907 76.0272 205.195 75.7285 205.44C75.4298 205.675 75.0672 205.861 74.6405 206C74.2245 206.128 73.7552 206.192 73.2325 206.192ZM78.4809 194.16H80.5289V201.296H80.6089L81.7129 199.792L83.5849 197.648H85.9049L83.0249 200.88L86.2089 206H83.7769L81.6329 202.256L80.5289 203.456V206H78.4809V194.16ZM90.4506 206.192C89.832 206.192 89.2773 206.091 88.7866 205.888C88.3066 205.675 87.896 205.381 87.5546 205.008C87.224 204.624 86.968 204.165 86.7866 203.632C86.6053 203.088 86.5146 202.48 86.5146 201.808C86.5146 201.147 86.6 200.549 86.7706 200.016C86.952 199.483 87.208 199.029 87.5386 198.656C87.8693 198.272 88.2746 197.979 88.7546 197.776C89.2346 197.563 89.7786 197.456 90.3866 197.456C91.0373 197.456 91.6026 197.568 92.0826 197.792C92.5626 198.016 92.9573 198.32 93.2666 198.704C93.576 199.088 93.8053 199.536 93.9546 200.048C94.1146 200.549 94.1946 201.088 94.1946 201.664V202.336H88.6426V202.544C88.6426 203.152 88.8133 203.643 89.1546 204.016C89.496 204.379 90.0026 204.56 90.6746 204.56C91.1866 204.56 91.6026 204.453 91.9226 204.24C92.2533 204.027 92.5466 203.755 92.8026 203.424L93.9066 204.656C93.5653 205.136 93.096 205.515 92.4986 205.792C91.912 206.059 91.2293 206.192 90.4506 206.192ZM90.4186 198.992C89.8746 198.992 89.4426 199.173 89.1226 199.536C88.8026 199.899 88.6426 200.368 88.6426 200.944V201.072H92.0666V200.928C92.0666 200.352 91.9226 199.888 91.6346 199.536C91.3573 199.173 90.952 198.992 90.4186 198.992ZM101.181 204.608H101.101C100.951 205.088 100.669 205.472 100.253 205.76C99.8365 206.048 99.3512 206.192 98.7965 206.192C97.7405 206.192 96.9298 205.813 96.3645 205.056C95.8098 204.299 95.5325 203.216 95.5325 201.808C95.5325 200.411 95.8098 199.339 96.3645 198.592C96.9298 197.835 97.7405 197.456 98.7965 197.456C99.3512 197.456 99.8365 197.6 100.253 197.888C100.669 198.165 100.951 198.544 101.101 199.024H101.181V194.16H103.229V206H101.181V204.608ZM99.4525 204.496C99.9432 204.496 100.354 204.379 100.685 204.144C101.015 203.909 101.181 203.573 101.181 203.136V200.48C101.181 200.075 101.015 199.749 100.685 199.504C100.354 199.259 99.9432 199.136 99.4525 199.136C98.9192 199.136 98.4872 199.317 98.1565 199.68C97.8365 200.032 97.6765 200.507 97.6765 201.104V202.544C97.6765 203.141 97.8365 203.616 98.1565 203.968C98.4872 204.32 98.9192 204.496 99.4525 204.496Z" fill="#CE1B1B"/>
<path d="M351 290H10V327H351V290Z" fill="#DCDCDC" stroke="#747474"/>
<path d="M131 267H10V286H131V267Z" fill="#BFBFBF" stroke="#747474"/>
</g>
<defs>
<clipPath id="clip0">
<rect width="360" height="380" fill="white"/>
</clipPath>
</defs>
</svg>
