<svg width="360" height="360" viewBox="0 0 360 360" fill="none" xmlns="http://www.w3.org/2000/svg">
<path d="M350.5 262.5H9.5V299.5H350.5V262.5Z" fill="#DCDCDC" stroke="#747474"/>
<path d="M130.5 239.5H9.5V258.5H130.5V239.5Z" fill="#BFBFBF" stroke="#747474"/>
<path d="M300.5 189.5H9.5V226.5H300.5V189.5Z" fill="#DCDCDC" stroke="#747474"/>
<path d="M130.5 166.5H9.5V185.5H130.5V166.5Z" fill="#BFBFBF" stroke="#747474"/>
<path d="M240.5 116.5H9.5V153.5H240.5V116.5Z" fill="#DCDCDC" stroke="#747474"/>
<path d="M130 94H10V112H130V94Z" fill="#BFBFBF" stroke="#747474"/>
<path d="M330.5 63.5H9.5V84.5H330.5V63.5Z" fill="#BFBFBF" stroke="#747474"/>
<path d="M330.5 18.5H9.5V54.5H330.5V18.5Z" fill="#FFE0E0" stroke="#CE1B1B"/>
<path d="M15 19H10V54H15V19Z" fill="#CE1B1B"/>
<path d="M95 313H10V348H95V313Z" fill="#747474"/>
<path d="M38.784 338.192C37.824 338.192 37.008 338.021 36.336 337.68C35.6747 337.339 35.104 336.891 34.624 336.336L36.048 334.96C36.432 335.408 36.8587 335.749 37.328 335.984C37.808 336.219 38.336 336.336 38.912 336.336C39.5627 336.336 40.0533 336.197 40.384 335.92C40.7147 335.632 40.88 335.248 40.88 334.768C40.88 334.395 40.7733 334.091 40.56 333.856C40.3467 333.621 39.9467 333.451 39.36 333.344L38.304 333.184C36.0747 332.832 34.96 331.749 34.96 329.936C34.96 329.435 35.0507 328.981 35.232 328.576C35.424 328.171 35.696 327.824 36.048 327.536C36.4 327.248 36.8213 327.029 37.312 326.88C37.8133 326.72 38.3787 326.64 39.008 326.64C39.8507 326.64 40.5867 326.779 41.216 327.056C41.8453 327.333 42.384 327.744 42.832 328.288L41.392 329.648C41.1147 329.307 40.7787 329.029 40.384 328.816C39.9893 328.603 39.4933 328.496 38.896 328.496C38.288 328.496 37.8293 328.613 37.52 328.848C37.2213 329.072 37.072 329.392 37.072 329.808C37.072 330.235 37.1947 330.549 37.44 330.752C37.6853 330.955 38.08 331.104 38.624 331.2L39.664 331.392C40.7947 331.595 41.6267 331.957 42.16 332.48C42.704 332.992 42.976 333.712 42.976 334.64C42.976 335.173 42.88 335.659 42.688 336.096C42.5067 336.523 42.2347 336.896 41.872 337.216C41.52 337.525 41.0827 337.765 40.56 337.936C40.048 338.107 39.456 338.192 38.784 338.192ZM48.3413 338.192C47.7226 338.192 47.1679 338.091 46.6773 337.888C46.1973 337.675 45.7866 337.381 45.4453 337.008C45.1146 336.624 44.8586 336.165 44.6773 335.632C44.4959 335.088 44.4053 334.48 44.4053 333.808C44.4053 333.147 44.4906 332.549 44.6613 332.016C44.8426 331.483 45.0986 331.029 45.4293 330.656C45.7599 330.272 46.1653 329.979 46.6453 329.776C47.1253 329.563 47.6693 329.456 48.2773 329.456C48.9279 329.456 49.4933 329.568 49.9733 329.792C50.4533 330.016 50.8479 330.32 51.1573 330.704C51.4666 331.088 51.6959 331.536 51.8453 332.048C52.0053 332.549 52.0853 333.088 52.0853 333.664V334.336H46.5333V334.544C46.5333 335.152 46.7039 335.643 47.0453 336.016C47.3866 336.379 47.8933 336.56 48.5653 336.56C49.0773 336.56 49.4933 336.453 49.8133 336.24C50.1439 336.027 50.4373 335.755 50.6933 335.424L51.7973 336.656C51.4559 337.136 50.9866 337.515 50.3893 337.792C49.8026 338.059 49.1199 338.192 48.3413 338.192ZM48.3093 330.992C47.7653 330.992 47.3333 331.173 47.0133 331.536C46.6933 331.899 46.5333 332.368 46.5333 332.944V333.072H49.9573V332.928C49.9573 332.352 49.8133 331.888 49.5253 331.536C49.2479 331.173 48.8426 330.992 48.3093 330.992ZM53.8871 338V329.648H55.9351V331.04H56.0151C56.1858 330.592 56.4525 330.219 56.8151 329.92C57.1885 329.611 57.7005 329.456 58.3511 329.456C59.2151 329.456 59.8765 329.739 60.3351 330.304C60.7938 330.869 61.0231 331.675 61.0231 332.72V338H58.9751V332.928C58.9751 332.331 58.8685 331.883 58.6551 331.584C58.4418 331.285 58.0898 331.136 57.5991 331.136C57.3858 331.136 57.1778 331.168 56.9751 331.232C56.7831 331.285 56.6071 331.371 56.4471 331.488C56.2978 331.595 56.1751 331.733 56.0791 331.904C55.9831 332.064 55.9351 332.256 55.9351 332.48V338H53.8871ZM68.4774 336.608H68.3974C68.248 337.088 67.9654 337.472 67.5494 337.76C67.1334 338.048 66.648 338.192 66.0934 338.192C65.0374 338.192 64.2267 337.813 63.6614 337.056C63.1067 336.299 62.8294 335.216 62.8294 333.808C62.8294 332.411 63.1067 331.339 63.6614 330.592C64.2267 329.835 65.0374 329.456 66.0934 329.456C66.648 329.456 67.1334 329.6 67.5494 329.888C67.9654 330.165 68.248 330.544 68.3974 331.024H68.4774V326.16H70.5254V338H68.4774V336.608ZM66.7494 336.496C67.24 336.496 67.6507 336.379 67.9814 336.144C68.312 335.909 68.4774 335.573 68.4774 335.136V332.48C68.4774 332.075 68.312 331.749 67.9814 331.504C67.6507 331.259 67.24 331.136 66.7494 331.136C66.216 331.136 65.784 331.317 65.4534 331.68C65.1334 332.032 64.9734 332.507 64.9734 333.104V334.544C64.9734 335.141 65.1334 335.616 65.4534 335.968C65.784 336.32 66.216 336.496 66.7494 336.496Z" fill="#F5F5F5"/>
<path d="M26.312 43V31.832H33.496V33.704H28.424V36.408H32.84V38.28H28.424V43H26.312ZM38.31 43.192C37.6913 43.192 37.1367 43.0907 36.646 42.888C36.166 42.6747 35.7553 42.3813 35.414 42.008C35.0833 41.624 34.8273 41.1653 34.646 40.632C34.4647 40.088 34.374 39.48 34.374 38.808C34.374 38.1467 34.4593 37.5493 34.63 37.016C34.8113 36.4827 35.0673 36.0293 35.398 35.656C35.7287 35.272 36.134 34.9787 36.614 34.776C37.094 34.5627 37.638 34.456 38.246 34.456C38.8967 34.456 39.462 34.568 39.942 34.792C40.422 35.016 40.8167 35.32 41.126 35.704C41.4353 36.088 41.6647 36.536 41.814 37.048C41.974 37.5493 42.054 38.088 42.054 38.664V39.336H36.502V39.544C36.502 40.152 36.6727 40.6427 37.014 41.016C37.3553 41.3787 37.862 41.56 38.534 41.56C39.046 41.56 39.462 41.4533 39.782 41.24C40.1127 41.0267 40.406 40.7547 40.662 40.424L41.766 41.656C41.4247 42.136 40.9553 42.5147 40.358 42.792C39.7713 43.0587 39.0887 43.192 38.31 43.192ZM38.278 35.992C37.734 35.992 37.302 36.1733 36.982 36.536C36.662 36.8987 36.502 37.368 36.502 37.944V38.072H39.926V37.928C39.926 37.352 39.782 36.888 39.494 36.536C39.2167 36.1733 38.8113 35.992 38.278 35.992ZM43.8559 34.648H45.9039V44.008C45.9039 44.712 45.7279 45.2507 45.3759 45.624C45.0239 46.008 44.4639 46.2 43.6959 46.2H42.5759V44.568H43.8559V34.648ZM44.8799 33.432C44.4532 33.432 44.1439 33.336 43.9519 33.144C43.7705 32.952 43.6799 32.7067 43.6799 32.408V32.088C43.6799 31.7893 43.7705 31.544 43.9519 31.352C44.1439 31.16 44.4532 31.064 44.8799 31.064C45.2959 31.064 45.5999 31.16 45.7919 31.352C45.9839 31.544 46.0799 31.7893 46.0799 32.088V32.408C46.0799 32.7067 45.9839 32.952 45.7919 33.144C45.5999 33.336 45.2959 33.432 44.8799 33.432ZM50.3258 43C49.6218 43 49.1044 42.824 48.7738 42.472C48.4431 42.12 48.2778 41.624 48.2778 40.984V31.16H50.3258V41.368H51.4298V43H50.3258ZM52.9809 31.16H55.0289V36.024H55.0929C55.2422 35.544 55.5249 35.1653 55.9409 34.888C56.3569 34.6 56.8422 34.456 57.3969 34.456C58.4635 34.456 59.2742 34.8347 59.8289 35.592C60.3942 36.3387 60.6769 37.4107 60.6769 38.808C60.6769 40.216 60.3942 41.2987 59.8289 42.056C59.2742 42.8133 58.4635 43.192 57.3969 43.192C56.8422 43.192 56.3569 43.048 55.9409 42.76C55.5355 42.472 55.2529 42.088 55.0929 41.608H55.0289V43H52.9809V31.16ZM56.7409 41.496C57.2742 41.496 57.7062 41.32 58.0369 40.968C58.3675 40.616 58.5329 40.1413 58.5329 39.544V38.104C58.5329 37.5067 58.3675 37.032 58.0369 36.68C57.7062 36.3173 57.2742 36.136 56.7409 36.136C56.2502 36.136 55.8395 36.2587 55.5089 36.504C55.1889 36.7493 55.0289 37.0747 55.0289 37.48V40.136C55.0289 40.5733 55.1889 40.9093 55.5089 41.144C55.8395 41.3787 56.2502 41.496 56.7409 41.496ZM65.9506 43.192C65.332 43.192 64.7773 43.0907 64.2866 42.888C63.8066 42.6747 63.396 42.3813 63.0546 42.008C62.724 41.624 62.468 41.1653 62.2866 40.632C62.1053 40.088 62.0146 39.48 62.0146 38.808C62.0146 38.1467 62.1 37.5493 62.2706 37.016C62.452 36.4827 62.708 36.0293 63.0386 35.656C63.3693 35.272 63.7746 34.9787 64.2546 34.776C64.7346 34.5627 65.2786 34.456 65.8866 34.456C66.5373 34.456 67.1026 34.568 67.5826 34.792C68.0626 35.016 68.4573 35.32 68.7666 35.704C69.076 36.088 69.3053 36.536 69.4546 37.048C69.6146 37.5493 69.6946 38.088 69.6946 38.664V39.336H64.1426V39.544C64.1426 40.152 64.3133 40.6427 64.6546 41.016C64.996 41.3787 65.5026 41.56 66.1746 41.56C66.6866 41.56 67.1026 41.4533 67.4226 41.24C67.7533 41.0267 68.0466 40.7547 68.3026 40.424L69.4066 41.656C69.0653 42.136 68.596 42.5147 67.9986 42.792C67.412 43.0587 66.7293 43.192 65.9506 43.192ZM65.9186 35.992C65.3746 35.992 64.9426 36.1733 64.6226 36.536C64.3026 36.8987 64.1426 37.368 64.1426 37.944V38.072H67.5666V37.928C67.5666 37.352 67.4226 36.888 67.1346 36.536C66.8573 36.1733 66.452 35.992 65.9186 35.992ZM74.2325 43.192C73.4325 43.192 72.7605 43.0587 72.2165 42.792C71.6725 42.5147 71.1925 42.136 70.7765 41.656L72.0245 40.44C72.3338 40.792 72.6698 41.0693 73.0325 41.272C73.4058 41.4747 73.8325 41.576 74.3125 41.576C74.8032 41.576 75.1552 41.4907 75.3685 41.32C75.5925 41.1493 75.7045 40.9147 75.7045 40.616C75.7045 40.3707 75.6245 40.1787 75.4645 40.04C75.3152 39.8907 75.0538 39.7893 74.6805 39.736L73.8485 39.624C72.9418 39.5067 72.2485 39.2507 71.7685 38.856C71.2992 38.4507 71.0645 37.864 71.0645 37.096C71.0645 36.6907 71.1392 36.328 71.2885 36.008C71.4378 35.6773 71.6512 35.4 71.9285 35.176C72.2058 34.9413 72.5365 34.7653 72.9205 34.648C73.3152 34.52 73.7525 34.456 74.2325 34.456C74.6378 34.456 74.9952 34.488 75.3045 34.552C75.6245 34.6053 75.9125 34.6907 76.1685 34.808C76.4245 34.9147 76.6592 35.0533 76.8725 35.224C77.0858 35.384 77.2938 35.5653 77.4965 35.768L76.2965 36.968C76.0512 36.712 75.7578 36.4987 75.4165 36.328C75.0752 36.1573 74.7018 36.072 74.2965 36.072C73.8485 36.072 73.5232 36.152 73.3205 36.312C73.1285 36.472 73.0325 36.68 73.0325 36.936C73.0325 37.2133 73.1125 37.4267 73.2725 37.576C73.4432 37.7147 73.7258 37.816 74.1205 37.88L74.9685 37.992C76.7712 38.248 77.6725 39.0693 77.6725 40.456C77.6725 40.8613 77.5872 41.2347 77.4165 41.576C77.2565 41.9067 77.0272 42.1947 76.7285 42.44C76.4298 42.6747 76.0672 42.8613 75.6405 43C75.2245 43.128 74.7552 43.192 74.2325 43.192ZM79.4809 31.16H81.5289V38.296H81.6089L82.7129 36.792L84.5849 34.648H86.9049L84.0249 37.88L87.2089 43H84.7769L82.6329 39.256L81.5289 40.456V43H79.4809V31.16ZM91.4506 43.192C90.832 43.192 90.2773 43.0907 89.7866 42.888C89.3066 42.6747 88.896 42.3813 88.5546 42.008C88.224 41.624 87.968 41.1653 87.7866 40.632C87.6053 40.088 87.5146 39.48 87.5146 38.808C87.5146 38.1467 87.6 37.5493 87.7706 37.016C87.952 36.4827 88.208 36.0293 88.5386 35.656C88.8693 35.272 89.2746 34.9787 89.7546 34.776C90.2346 34.5627 90.7786 34.456 91.3866 34.456C92.0373 34.456 92.6026 34.568 93.0826 34.792C93.5626 35.016 93.9573 35.32 94.2666 35.704C94.576 36.088 94.8053 36.536 94.9546 37.048C95.1146 37.5493 95.1946 38.088 95.1946 38.664V39.336H89.6426V39.544C89.6426 40.152 89.8133 40.6427 90.1546 41.016C90.496 41.3787 91.0026 41.56 91.6746 41.56C92.1866 41.56 92.6026 41.4533 92.9226 41.24C93.2533 41.0267 93.5466 40.7547 93.8026 40.424L94.9066 41.656C94.5653 42.136 94.096 42.5147 93.4986 42.792C92.912 43.0587 92.2293 43.192 91.4506 43.192ZM91.4186 35.992C90.8746 35.992 90.4426 36.1733 90.1226 36.536C89.8026 36.8987 89.6426 37.368 89.6426 37.944V38.072H93.0666V37.928C93.0666 37.352 92.9226 36.888 92.6346 36.536C92.3573 36.1733 91.952 35.992 91.4186 35.992ZM102.181 41.608H102.101C101.951 42.088 101.669 42.472 101.253 42.76C100.837 43.048 100.351 43.192 99.7965 43.192C98.7405 43.192 97.9298 42.8133 97.3645 42.056C96.8098 41.2987 96.5325 40.216 96.5325 38.808C96.5325 37.4107 96.8098 36.3387 97.3645 35.592C97.9298 34.8347 98.7405 34.456 99.7965 34.456C100.351 34.456 100.837 34.6 101.253 34.888C101.669 35.1653 101.951 35.544 102.101 36.024H102.181V31.16H104.229V43H102.181V41.608ZM100.453 41.496C100.943 41.496 101.354 41.3787 101.685 41.144C102.015 40.9093 102.181 40.5733 102.181 40.136V37.48C102.181 37.0747 102.015 36.7493 101.685 36.504C101.354 36.2587 100.943 36.136 100.453 36.136C99.9192 36.136 99.4872 36.3173 99.1565 36.68C98.8365 37.032 98.6765 37.5067 98.6765 38.104V39.544C98.6765 40.1413 98.8365 40.616 99.1565 40.968C99.4872 41.32 99.9192 41.496 100.453 41.496Z" fill="#CE1B1B"/>
</svg>
