<svg width="342" height="237" viewBox="0 0 342 237" fill="none" xmlns="http://www.w3.org/2000/svg">
<path d="M161.5 111.5H0.5V152.5H161.5V111.5Z" fill="#C8CADF" stroke="#474E95"/>
<path d="M161.5 27.5H0.5V68.5H161.5V27.5Z" fill="#C8CADF" stroke="#474E95"/>
<path d="M12.466 91.416H12.376L11.314 93.522L8.308 98.994L5.302 93.522L4.24 91.416H4.15V102H2.674V89.436H4.69L8.29 96.204H8.38L11.998 89.436H13.942V102H12.466V91.416ZM20.6474 102.216C20.0234 102.216 19.4534 102.102 18.9374 101.874C18.4214 101.646 17.9774 101.322 17.6054 100.902C17.2454 100.47 16.9634 99.96 16.7594 99.372C16.5554 98.772 16.4534 98.1 16.4534 97.356C16.4534 96.624 16.5554 95.958 16.7594 95.358C16.9634 94.758 17.2454 94.248 17.6054 93.828C17.9774 93.396 18.4214 93.066 18.9374 92.838C19.4534 92.61 20.0234 92.496 20.6474 92.496C21.2714 92.496 21.8354 92.61 22.3394 92.838C22.8554 93.066 23.2994 93.396 23.6714 93.828C24.0434 94.248 24.3314 94.758 24.5354 95.358C24.7394 95.958 24.8414 96.624 24.8414 97.356C24.8414 98.1 24.7394 98.772 24.5354 99.372C24.3314 99.96 24.0434 100.47 23.6714 100.902C23.2994 101.322 22.8554 101.646 22.3394 101.874C21.8354 102.102 21.2714 102.216 20.6474 102.216ZM20.6474 100.938C21.4274 100.938 22.0634 100.698 22.5554 100.218C23.0474 99.738 23.2934 99.006 23.2934 98.022V96.69C23.2934 95.706 23.0474 94.974 22.5554 94.494C22.0634 94.014 21.4274 93.774 20.6474 93.774C19.8674 93.774 19.2314 94.014 18.7394 94.494C18.2474 94.974 18.0014 95.706 18.0014 96.69V98.022C18.0014 99.006 18.2474 99.738 18.7394 100.218C19.2314 100.698 19.8674 100.938 20.6474 100.938ZM27.2097 88.68H28.6497V94.224H28.7217C28.9617 93.636 29.3097 93.204 29.7657 92.928C30.2337 92.64 30.7917 92.496 31.4397 92.496C32.0157 92.496 32.5377 92.61 33.0057 92.838C33.4737 93.066 33.8697 93.39 34.1937 93.81C34.5297 94.23 34.7817 94.74 34.9497 95.34C35.1297 95.94 35.2197 96.612 35.2197 97.356C35.2197 98.1 35.1297 98.772 34.9497 99.372C34.7817 99.972 34.5297 100.482 34.1937 100.902C33.8697 101.322 33.4737 101.646 33.0057 101.874C32.5377 102.102 32.0157 102.216 31.4397 102.216C30.1797 102.216 29.2737 101.64 28.7217 100.488H28.6497V102H27.2097V88.68ZM31.0437 100.92C31.8597 100.92 32.5017 100.668 32.9697 100.164C33.4377 99.648 33.6717 98.976 33.6717 98.148V96.564C33.6717 95.736 33.4377 95.07 32.9697 94.566C32.5017 94.05 31.8597 93.792 31.0437 93.792C30.7197 93.792 30.4077 93.84 30.1077 93.936C29.8197 94.02 29.5677 94.14 29.3517 94.296C29.1357 94.452 28.9617 94.644 28.8297 94.872C28.7097 95.088 28.6497 95.322 28.6497 95.574V99.03C28.6497 99.33 28.7097 99.6 28.8297 99.84C28.9617 100.068 29.1357 100.266 29.3517 100.434C29.5677 100.59 29.8197 100.71 30.1077 100.794C30.4077 100.878 30.7197 100.92 31.0437 100.92ZM38.3711 90.534C38.0591 90.534 37.8311 90.462 37.6871 90.318C37.5551 90.162 37.4891 89.964 37.4891 89.724V89.49C37.4891 89.25 37.5551 89.058 37.6871 88.914C37.8311 88.758 38.0591 88.68 38.3711 88.68C38.6831 88.68 38.9051 88.758 39.0371 88.914C39.1811 89.058 39.2531 89.25 39.2531 89.49V89.724C39.2531 89.964 39.1811 90.162 39.0371 90.318C38.9051 90.462 38.6831 90.534 38.3711 90.534ZM37.6511 92.712H39.0911V102H37.6511V92.712ZM43.6811 102C43.1771 102 42.7931 101.862 42.5291 101.586C42.2771 101.298 42.1511 100.938 42.1511 100.506V88.68H43.5911V100.74H44.9591V102H43.6811Z" fill="#474E95"/>
<path d="M2.674 186V173.436H10.342V174.768H4.186V178.98H9.982V180.312H4.186V184.668H10.342V186H2.674ZM12.7361 181.302V179.754H17.4341V181.302H12.7361ZM20.2136 186V176.712H21.6536V178.224H21.7256C21.8336 177.984 21.9536 177.762 22.0856 177.558C22.2296 177.342 22.3976 177.156 22.5896 177C22.7936 176.844 23.0276 176.724 23.2916 176.64C23.5556 176.544 23.8676 176.496 24.2276 176.496C24.8396 176.496 25.4036 176.646 25.9196 176.946C26.4356 177.234 26.8196 177.714 27.0716 178.386H27.1076C27.2756 177.882 27.5876 177.444 28.0436 177.072C28.5116 176.688 29.1416 176.496 29.9336 176.496C30.8816 176.496 31.6196 176.808 32.1476 177.432C32.6876 178.044 32.9576 178.914 32.9576 180.042V186H31.5176V180.294C31.5176 179.466 31.3556 178.842 31.0316 178.422C30.7076 178.002 30.1916 177.792 29.4836 177.792C29.1956 177.792 28.9196 177.828 28.6556 177.9C28.4036 177.972 28.1756 178.08 27.9716 178.224C27.7676 178.368 27.6056 178.554 27.4856 178.782C27.3656 178.998 27.3056 179.256 27.3056 179.556V186H25.8656V180.294C25.8656 179.466 25.7036 178.842 25.3796 178.422C25.0556 178.002 24.5516 177.792 23.8676 177.792C23.5796 177.792 23.3036 177.828 23.0396 177.9C22.7756 177.972 22.5416 178.08 22.3376 178.224C22.1336 178.368 21.9656 178.554 21.8336 178.782C21.7136 178.998 21.6536 179.256 21.6536 179.556V186H20.2136ZM42.6784 186C42.1384 186 41.7484 185.856 41.5084 185.568C41.2804 185.28 41.1364 184.92 41.0764 184.488H40.9864C40.7824 185.064 40.4464 185.496 39.9784 185.784C39.5104 186.072 38.9524 186.216 38.3044 186.216C37.3204 186.216 36.5524 185.964 36.0004 185.46C35.4604 184.956 35.1904 184.272 35.1904 183.408C35.1904 182.532 35.5084 181.86 36.1444 181.392C36.7924 180.924 37.7944 180.69 39.1504 180.69H40.9864V179.772C40.9864 179.112 40.8064 178.608 40.4464 178.26C40.0864 177.912 39.5344 177.738 38.7904 177.738C38.2264 177.738 37.7524 177.864 37.3684 178.116C36.9964 178.368 36.6844 178.704 36.4324 179.124L35.5684 178.314C35.8204 177.81 36.2224 177.384 36.7744 177.036C37.3264 176.676 38.0224 176.496 38.8624 176.496C39.9904 176.496 40.8664 176.772 41.4904 177.324C42.1144 177.876 42.4264 178.644 42.4264 179.628V184.74H43.4884V186H42.6784ZM38.5384 184.992C38.8984 184.992 39.2284 184.95 39.5284 184.866C39.8284 184.782 40.0864 184.662 40.3024 184.506C40.5184 184.35 40.6864 184.17 40.8064 183.966C40.9264 183.762 40.9864 183.54 40.9864 183.3V181.77H39.0784C38.2504 181.77 37.6444 181.89 37.2604 182.13C36.8884 182.37 36.7024 182.718 36.7024 183.174V183.552C36.7024 184.008 36.8644 184.362 37.1884 184.614C37.5244 184.866 37.9744 184.992 38.5384 184.992ZM46.2637 174.534C45.9517 174.534 45.7237 174.462 45.5797 174.318C45.4477 174.162 45.3817 173.964 45.3817 173.724V173.49C45.3817 173.25 45.4477 173.058 45.5797 172.914C45.7237 172.758 45.9517 172.68 46.2637 172.68C46.5757 172.68 46.7977 172.758 46.9297 172.914C47.0737 173.058 47.1457 173.25 47.1457 173.49V173.724C47.1457 173.964 47.0737 174.162 46.9297 174.318C46.7977 174.462 46.5757 174.534 46.2637 174.534ZM45.5437 176.712H46.9837V186H45.5437V176.712ZM51.5737 186C51.0697 186 50.6857 185.862 50.4217 185.586C50.1697 185.298 50.0437 184.938 50.0437 184.506V172.68H51.4837V184.74H52.8517V186H51.5737ZM61.698 186C61.158 186 60.768 185.856 60.528 185.568C60.3 185.28 60.156 184.92 60.096 184.488H60.006C59.802 185.064 59.466 185.496 58.998 185.784C58.53 186.072 57.972 186.216 57.324 186.216C56.34 186.216 55.572 185.964 55.02 185.46C54.48 184.956 54.21 184.272 54.21 183.408C54.21 182.532 54.528 181.86 55.164 181.392C55.812 180.924 56.814 180.69 58.17 180.69H60.006V179.772C60.006 179.112 59.826 178.608 59.466 178.26C59.106 177.912 58.554 177.738 57.81 177.738C57.246 177.738 56.772 177.864 56.388 178.116C56.016 178.368 55.704 178.704 55.452 179.124L54.588 178.314C54.84 177.81 55.242 177.384 55.794 177.036C56.346 176.676 57.042 176.496 57.882 176.496C59.01 176.496 59.886 176.772 60.51 177.324C61.134 177.876 61.446 178.644 61.446 179.628V184.74H62.508V186H61.698ZM57.558 184.992C57.918 184.992 58.248 184.95 58.548 184.866C58.848 184.782 59.106 184.662 59.322 184.506C59.538 184.35 59.706 184.17 59.826 183.966C59.946 183.762 60.006 183.54 60.006 183.3V181.77H58.098C57.27 181.77 56.664 181.89 56.28 182.13C55.908 182.37 55.722 182.718 55.722 183.174V183.552C55.722 184.008 55.884 184.362 56.208 184.614C56.544 184.866 56.994 184.992 57.558 184.992ZM70.5032 184.488H70.4312C69.8672 185.64 68.9612 186.216 67.7132 186.216C67.1372 186.216 66.6152 186.102 66.1472 185.874C65.6792 185.646 65.2772 185.322 64.9412 184.902C64.6172 184.482 64.3652 183.972 64.1852 183.372C64.0172 182.772 63.9332 182.1 63.9332 181.356C63.9332 180.612 64.0172 179.94 64.1852 179.34C64.3652 178.74 64.6172 178.23 64.9412 177.81C65.2772 177.39 65.6792 177.066 66.1472 176.838C66.6152 176.61 67.1372 176.496 67.7132 176.496C68.3612 176.496 68.9132 176.64 69.3692 176.928C69.8372 177.204 70.1912 177.636 70.4312 178.224H70.5032V172.68H71.9432V186H70.5032V184.488ZM68.1092 184.92C68.4332 184.92 68.7392 184.878 69.0272 184.794C69.3272 184.71 69.5852 184.59 69.8012 184.434C70.0172 184.266 70.1852 184.068 70.3052 183.84C70.4372 183.6 70.5032 183.33 70.5032 183.03V179.574C70.5032 179.322 70.4372 179.088 70.3052 178.872C70.1852 178.644 70.0172 178.452 69.8012 178.296C69.5852 178.14 69.3272 178.02 69.0272 177.936C68.7392 177.84 68.4332 177.792 68.1092 177.792C67.2932 177.792 66.6512 178.05 66.1832 178.566C65.7152 179.07 65.4812 179.736 65.4812 180.564V182.148C65.4812 182.976 65.7152 183.648 66.1832 184.164C66.6512 184.668 67.2932 184.92 68.1092 184.92ZM75.0046 186V176.712H76.4446V178.422H76.5346C76.7026 177.978 77.0026 177.582 77.4346 177.234C77.8666 176.886 78.4606 176.712 79.2166 176.712H79.7746V178.152H78.9286C78.1486 178.152 77.5366 178.302 77.0926 178.602C76.6606 178.89 76.4446 179.256 76.4446 179.7V186H75.0046ZM85.0181 186.216C84.3821 186.216 83.8061 186.102 83.2901 185.874C82.7861 185.646 82.3481 185.322 81.9761 184.902C81.6161 184.47 81.3341 183.96 81.1301 183.372C80.9381 182.772 80.8421 182.1 80.8421 181.356C80.8421 180.624 80.9381 179.958 81.1301 179.358C81.3341 178.758 81.6161 178.248 81.9761 177.828C82.3481 177.396 82.7861 177.066 83.2901 176.838C83.8061 176.61 84.3821 176.496 85.0181 176.496C85.6421 176.496 86.2001 176.61 86.6921 176.838C87.1841 177.066 87.6041 177.384 87.9521 177.792C88.3001 178.188 88.5641 178.662 88.7441 179.214C88.9361 179.766 89.0321 180.372 89.0321 181.032V181.716H82.3541V182.148C82.3541 182.544 82.4141 182.916 82.5341 183.264C82.6661 183.6 82.8461 183.894 83.0741 184.146C83.3141 184.398 83.6021 184.596 83.9381 184.74C84.2861 184.884 84.6761 184.956 85.1081 184.956C85.6961 184.956 86.2061 184.818 86.6381 184.542C87.0821 184.266 87.4241 183.87 87.6641 183.354L88.6901 184.092C88.3901 184.728 87.9221 185.244 87.2861 185.64C86.6501 186.024 85.8941 186.216 85.0181 186.216ZM85.0181 177.702C84.6221 177.702 84.2621 177.774 83.9381 177.918C83.6141 178.05 83.3321 178.242 83.0921 178.494C82.8641 178.746 82.6841 179.046 82.5521 179.394C82.4201 179.73 82.3541 180.102 82.3541 180.51V180.636H87.4841V180.438C87.4841 179.61 87.2561 178.95 86.8001 178.458C86.3561 177.954 85.7621 177.702 85.0181 177.702ZM94.195 186.216C93.331 186.216 92.605 186.054 92.017 185.73C91.441 185.394 90.943 184.95 90.523 184.398L91.549 183.57C91.909 184.026 92.311 184.38 92.755 184.632C93.199 184.872 93.715 184.992 94.303 184.992C94.915 184.992 95.389 184.86 95.725 184.596C96.073 184.332 96.247 183.96 96.247 183.48C96.247 183.12 96.127 182.814 95.887 182.562C95.659 182.298 95.239 182.118 94.627 182.022L93.889 181.914C93.457 181.854 93.061 181.764 92.701 181.644C92.341 181.512 92.023 181.344 91.747 181.14C91.483 180.924 91.273 180.66 91.117 180.348C90.973 180.036 90.901 179.664 90.901 179.232C90.901 178.776 90.985 178.38 91.153 178.044C91.321 177.696 91.549 177.408 91.837 177.18C92.137 176.952 92.491 176.784 92.899 176.676C93.307 176.556 93.745 176.496 94.213 176.496C94.969 176.496 95.599 176.628 96.103 176.892C96.619 177.156 97.069 177.522 97.453 177.99L96.499 178.854C96.295 178.566 95.995 178.308 95.599 178.08C95.203 177.84 94.705 177.72 94.105 177.72C93.505 177.72 93.049 177.852 92.737 178.116C92.437 178.368 92.287 178.716 92.287 179.16C92.287 179.616 92.437 179.946 92.737 180.15C93.049 180.354 93.493 180.504 94.069 180.6L94.789 180.708C95.821 180.864 96.553 181.164 96.985 181.608C97.417 182.04 97.633 182.61 97.633 183.318C97.633 184.218 97.327 184.926 96.715 185.442C96.103 185.958 95.263 186.216 94.195 186.216ZM102.861 186.216C101.997 186.216 101.271 186.054 100.683 185.73C100.107 185.394 99.609 184.95 99.189 184.398L100.215 183.57C100.575 184.026 100.977 184.38 101.421 184.632C101.865 184.872 102.381 184.992 102.969 184.992C103.581 184.992 104.055 184.86 104.391 184.596C104.739 184.332 104.913 183.96 104.913 183.48C104.913 183.12 104.793 182.814 104.553 182.562C104.325 182.298 103.905 182.118 103.293 182.022L102.555 181.914C102.123 181.854 101.727 181.764 101.367 181.644C101.007 181.512 100.689 181.344 100.413 181.14C100.149 180.924 99.939 180.66 99.783 180.348C99.639 180.036 99.567 179.664 99.567 179.232C99.567 178.776 99.651 178.38 99.819 178.044C99.987 177.696 100.215 177.408 100.503 177.18C100.803 176.952 101.157 176.784 101.565 176.676C101.973 176.556 102.411 176.496 102.879 176.496C103.635 176.496 104.265 176.628 104.769 176.892C105.285 177.156 105.735 177.522 106.119 177.99L105.165 178.854C104.961 178.566 104.661 178.308 104.265 178.08C103.869 177.84 103.371 177.72 102.771 177.72C102.171 177.72 101.715 177.852 101.403 178.116C101.103 178.368 100.953 178.716 100.953 179.16C100.953 179.616 101.103 179.946 101.403 180.15C101.715 180.354 102.159 180.504 102.735 180.6L103.455 180.708C104.487 180.864 105.219 181.164 105.651 181.608C106.083 182.04 106.299 182.61 106.299 183.318C106.299 184.218 105.993 184.926 105.381 185.442C104.769 185.958 103.929 186.216 102.861 186.216ZM112.335 186.216C111.699 186.216 111.123 186.102 110.607 185.874C110.103 185.646 109.665 185.322 109.293 184.902C108.933 184.47 108.651 183.96 108.447 183.372C108.255 182.772 108.159 182.1 108.159 181.356C108.159 180.624 108.255 179.958 108.447 179.358C108.651 178.758 108.933 178.248 109.293 177.828C109.665 177.396 110.103 177.066 110.607 176.838C111.123 176.61 111.699 176.496 112.335 176.496C112.959 176.496 113.517 176.61 114.009 176.838C114.501 177.066 114.921 177.384 115.269 177.792C115.617 178.188 115.881 178.662 116.061 179.214C116.253 179.766 116.349 180.372 116.349 181.032V181.716H109.671V182.148C109.671 182.544 109.731 182.916 109.851 183.264C109.983 183.6 110.163 183.894 110.391 184.146C110.631 184.398 110.919 184.596 111.255 184.74C111.603 184.884 111.993 184.956 112.425 184.956C113.013 184.956 113.523 184.818 113.955 184.542C114.399 184.266 114.741 183.87 114.981 183.354L116.007 184.092C115.707 184.728 115.239 185.244 114.603 185.64C113.967 186.024 113.211 186.216 112.335 186.216ZM112.335 177.702C111.939 177.702 111.579 177.774 111.255 177.918C110.931 178.05 110.649 178.242 110.409 178.494C110.181 178.746 110.001 179.046 109.869 179.394C109.737 179.73 109.671 180.102 109.671 180.51V180.636H114.801V180.438C114.801 179.61 114.573 178.95 114.117 178.458C113.673 177.954 113.079 177.702 112.335 177.702Z" fill="#474E95"/>
<path d="M341.5 195.5H0.5V236.5H341.5V195.5Z" fill="#C8CADF" stroke="#474E95"/>
<path d="M2.674 18V5.436H10.162V6.768H4.186V10.98H9.64V12.312H4.186V18H2.674ZM18.614 18C18.074 18 17.684 17.856 17.444 17.568C17.216 17.28 17.072 16.92 17.012 16.488H16.922C16.718 17.064 16.382 17.496 15.914 17.784C15.446 18.072 14.888 18.216 14.24 18.216C13.256 18.216 12.488 17.964 11.936 17.46C11.396 16.956 11.126 16.272 11.126 15.408C11.126 14.532 11.444 13.86 12.08 13.392C12.728 12.924 13.73 12.69 15.086 12.69H16.922V11.772C16.922 11.112 16.742 10.608 16.382 10.26C16.022 9.912 15.47 9.738 14.726 9.738C14.162 9.738 13.688 9.864 13.304 10.116C12.932 10.368 12.62 10.704 12.368 11.124L11.504 10.314C11.756 9.81 12.158 9.384 12.71 9.036C13.262 8.676 13.958 8.496 14.798 8.496C15.926 8.496 16.802 8.772 17.426 9.324C18.05 9.876 18.362 10.644 18.362 11.628V16.74H19.424V18H18.614ZM14.474 16.992C14.834 16.992 15.164 16.95 15.464 16.866C15.764 16.782 16.022 16.662 16.238 16.506C16.454 16.35 16.622 16.17 16.742 15.966C16.862 15.762 16.922 15.54 16.922 15.3V13.77H15.014C14.186 13.77 13.58 13.89 13.196 14.13C12.824 14.37 12.638 14.718 12.638 15.174V15.552C12.638 16.008 12.8 16.362 13.124 16.614C13.46 16.866 13.91 16.992 14.474 16.992ZM24.2692 18.216C23.4052 18.216 22.6792 18.054 22.0912 17.73C21.5152 17.394 21.0172 16.95 20.5972 16.398L21.6232 15.57C21.9832 16.026 22.3852 16.38 22.8292 16.632C23.2732 16.872 23.7892 16.992 24.3772 16.992C24.9892 16.992 25.4632 16.86 25.7992 16.596C26.1472 16.332 26.3212 15.96 26.3212 15.48C26.3212 15.12 26.2012 14.814 25.9612 14.562C25.7332 14.298 25.3132 14.118 24.7012 14.022L23.9632 13.914C23.5312 13.854 23.1352 13.764 22.7752 13.644C22.4152 13.512 22.0972 13.344 21.8212 13.14C21.5572 12.924 21.3472 12.66 21.1912 12.348C21.0472 12.036 20.9752 11.664 20.9752 11.232C20.9752 10.776 21.0592 10.38 21.2272 10.044C21.3952 9.696 21.6232 9.408 21.9112 9.18C22.2112 8.952 22.5652 8.784 22.9732 8.676C23.3812 8.556 23.8192 8.496 24.2872 8.496C25.0432 8.496 25.6732 8.628 26.1772 8.892C26.6932 9.156 27.1432 9.522 27.5272 9.99L26.5732 10.854C26.3692 10.566 26.0692 10.308 25.6732 10.08C25.2772 9.84 24.7792 9.72 24.1792 9.72C23.5792 9.72 23.1232 9.852 22.8112 10.116C22.5112 10.368 22.3612 10.716 22.3612 11.16C22.3612 11.616 22.5112 11.946 22.8112 12.15C23.1232 12.354 23.5672 12.504 24.1432 12.6L24.8632 12.708C25.8952 12.864 26.6272 13.164 27.0592 13.608C27.4912 14.04 27.7072 14.61 27.7072 15.318C27.7072 16.218 27.4012 16.926 26.7892 17.442C26.1772 17.958 25.3372 18.216 24.2692 18.216ZM32.1797 18C31.6757 18 31.2917 17.862 31.0277 17.586C30.7757 17.298 30.6497 16.926 30.6497 16.47V9.972H29.1197V8.712H29.9837C30.2957 8.712 30.5057 8.652 30.6137 8.532C30.7337 8.4 30.7937 8.178 30.7937 7.866V6.138H32.0897V8.712H34.1237V9.972H32.0897V16.74H33.9797V18H32.1797ZM36.4382 18V8.712H37.8782V10.224H37.9502C38.1782 9.696 38.4962 9.276 38.9042 8.964C39.3242 8.652 39.8822 8.496 40.5782 8.496C41.5382 8.496 42.2942 8.808 42.8462 9.432C43.4102 10.044 43.6922 10.914 43.6922 12.042V18H42.2522V12.294C42.2522 10.626 41.5502 9.792 40.1462 9.792C39.8582 9.792 39.5762 9.828 39.3002 9.9C39.0362 9.972 38.7962 10.08 38.5802 10.224C38.3642 10.368 38.1902 10.554 38.0582 10.782C37.9382 10.998 37.8782 11.256 37.8782 11.556V18H36.4382ZM50.1607 18.216C49.5247 18.216 48.9487 18.102 48.4327 17.874C47.9287 17.646 47.4907 17.322 47.1187 16.902C46.7587 16.47 46.4767 15.96 46.2727 15.372C46.0807 14.772 45.9847 14.1 45.9847 13.356C45.9847 12.624 46.0807 11.958 46.2727 11.358C46.4767 10.758 46.7587 10.248 47.1187 9.828C47.4907 9.396 47.9287 9.066 48.4327 8.838C48.9487 8.61 49.5247 8.496 50.1607 8.496C50.7847 8.496 51.3427 8.61 51.8347 8.838C52.3267 9.066 52.7467 9.384 53.0947 9.792C53.4427 10.188 53.7067 10.662 53.8867 11.214C54.0787 11.766 54.1747 12.372 54.1747 13.032V13.716H47.4967V14.148C47.4967 14.544 47.5567 14.916 47.6767 15.264C47.8087 15.6 47.9887 15.894 48.2167 16.146C48.4567 16.398 48.7447 16.596 49.0807 16.74C49.4287 16.884 49.8187 16.956 50.2507 16.956C50.8387 16.956 51.3487 16.818 51.7807 16.542C52.2247 16.266 52.5667 15.87 52.8067 15.354L53.8327 16.092C53.5327 16.728 53.0647 17.244 52.4287 17.64C51.7927 18.024 51.0367 18.216 50.1607 18.216ZM50.1607 9.702C49.7647 9.702 49.4047 9.774 49.0807 9.918C48.7567 10.05 48.4747 10.242 48.2347 10.494C48.0067 10.746 47.8267 11.046 47.6947 11.394C47.5627 11.73 47.4967 12.102 47.4967 12.51V12.636H52.6267V12.438C52.6267 11.61 52.3987 10.95 51.9427 10.458C51.4987 9.954 50.9047 9.702 50.1607 9.702ZM58.5996 18C58.0956 18 57.7116 17.862 57.4476 17.586C57.1956 17.298 57.0696 16.926 57.0696 16.47V9.972H55.5396V8.712H56.4036C56.7156 8.712 56.9256 8.652 57.0336 8.532C57.1536 8.4 57.2136 8.178 57.2136 7.866V6.138H58.5096V8.712H60.5436V9.972H58.5096V16.74H60.3996V18H58.5996ZM62.2186 13.302V11.754H66.9166V13.302H62.2186ZM71.748 18C71.244 18 70.86 17.862 70.596 17.586C70.344 17.298 70.218 16.926 70.218 16.47V9.972H68.688V8.712H69.552C69.864 8.712 70.074 8.652 70.182 8.532C70.302 8.4 70.362 8.178 70.362 7.866V6.138H71.658V8.712H73.692V9.972H71.658V16.74H73.548V18H71.748ZM79.4283 18.216C78.7923 18.216 78.2163 18.102 77.7003 17.874C77.1963 17.646 76.7583 17.322 76.3863 16.902C76.0263 16.47 75.7443 15.96 75.5403 15.372C75.3483 14.772 75.2523 14.1 75.2523 13.356C75.2523 12.624 75.3483 11.958 75.5403 11.358C75.7443 10.758 76.0263 10.248 76.3863 9.828C76.7583 9.396 77.1963 9.066 77.7003 8.838C78.2163 8.61 78.7923 8.496 79.4283 8.496C80.0523 8.496 80.6103 8.61 81.1023 8.838C81.5943 9.066 82.0143 9.384 82.3623 9.792C82.7103 10.188 82.9743 10.662 83.1543 11.214C83.3463 11.766 83.4423 12.372 83.4423 13.032V13.716H76.7643V14.148C76.7643 14.544 76.8243 14.916 76.9443 15.264C77.0763 15.6 77.2563 15.894 77.4843 16.146C77.7243 16.398 78.0123 16.596 78.3483 16.74C78.6963 16.884 79.0863 16.956 79.5183 16.956C80.1063 16.956 80.6163 16.818 81.0483 16.542C81.4923 16.266 81.8343 15.87 82.0743 15.354L83.1003 16.092C82.8003 16.728 82.3323 17.244 81.6963 17.64C81.0603 18.024 80.3043 18.216 79.4283 18.216ZM79.4283 9.702C79.0323 9.702 78.6723 9.774 78.3483 9.918C78.0243 10.05 77.7423 10.242 77.5023 10.494C77.2743 10.746 77.0943 11.046 76.9623 11.394C76.8303 11.73 76.7643 12.102 76.7643 12.51V12.636H81.8943V12.438C81.8943 11.61 81.6663 10.95 81.2103 10.458C80.7663 9.954 80.1723 9.702 79.4283 9.702ZM87.3452 18C86.8412 18 86.4572 17.862 86.1932 17.586C85.9412 17.298 85.8152 16.938 85.8152 16.506V4.68H87.2552V16.74H88.6232V18H87.3452ZM94.2115 18.216C93.5755 18.216 92.9995 18.102 92.4835 17.874C91.9795 17.646 91.5415 17.322 91.1695 16.902C90.8095 16.47 90.5275 15.96 90.3235 15.372C90.1315 14.772 90.0355 14.1 90.0355 13.356C90.0355 12.624 90.1315 11.958 90.3235 11.358C90.5275 10.758 90.8095 10.248 91.1695 9.828C91.5415 9.396 91.9795 9.066 92.4835 8.838C92.9995 8.61 93.5755 8.496 94.2115 8.496C94.8355 8.496 95.3935 8.61 95.8855 8.838C96.3775 9.066 96.7975 9.384 97.1455 9.792C97.4935 10.188 97.7575 10.662 97.9375 11.214C98.1295 11.766 98.2255 12.372 98.2255 13.032V13.716H91.5475V14.148C91.5475 14.544 91.6075 14.916 91.7275 15.264C91.8595 15.6 92.0395 15.894 92.2675 16.146C92.5075 16.398 92.7955 16.596 93.1315 16.74C93.4795 16.884 93.8695 16.956 94.3015 16.956C94.8895 16.956 95.3995 16.818 95.8315 16.542C96.2755 16.266 96.6175 15.87 96.8575 15.354L97.8835 16.092C97.5835 16.728 97.1155 17.244 96.4795 17.64C95.8435 18.024 95.0875 18.216 94.2115 18.216ZM94.2115 9.702C93.8155 9.702 93.4555 9.774 93.1315 9.918C92.8075 10.05 92.5255 10.242 92.2855 10.494C92.0575 10.746 91.8775 11.046 91.7455 11.394C91.6135 11.73 91.5475 12.102 91.5475 12.51V12.636H96.6775V12.438C96.6775 11.61 96.4495 10.95 95.9935 10.458C95.5495 9.954 94.9555 9.702 94.2115 9.702ZM101.102 9.972H99.5904V8.712H101.102V6.84C101.102 6.192 101.27 5.67 101.606 5.274C101.942 4.878 102.452 4.68 103.136 4.68H104.54V5.94H102.542V8.712H104.54V9.972H102.542V18H101.102V9.972ZM109.874 18.216C109.25 18.216 108.68 18.102 108.164 17.874C107.648 17.646 107.204 17.322 106.832 16.902C106.472 16.47 106.19 15.96 105.986 15.372C105.782 14.772 105.68 14.1 105.68 13.356C105.68 12.624 105.782 11.958 105.986 11.358C106.19 10.758 106.472 10.248 106.832 9.828C107.204 9.396 107.648 9.066 108.164 8.838C108.68 8.61 109.25 8.496 109.874 8.496C110.498 8.496 111.062 8.61 111.566 8.838C112.082 9.066 112.526 9.396 112.898 9.828C113.27 10.248 113.558 10.758 113.762 11.358C113.966 11.958 114.068 12.624 114.068 13.356C114.068 14.1 113.966 14.772 113.762 15.372C113.558 15.96 113.27 16.47 112.898 16.902C112.526 17.322 112.082 17.646 111.566 17.874C111.062 18.102 110.498 18.216 109.874 18.216ZM109.874 16.938C110.654 16.938 111.29 16.698 111.782 16.218C112.274 15.738 112.52 15.006 112.52 14.022V12.69C112.52 11.706 112.274 10.974 111.782 10.494C111.29 10.014 110.654 9.774 109.874 9.774C109.094 9.774 108.458 10.014 107.966 10.494C107.474 10.974 107.228 11.706 107.228 12.69V14.022C107.228 15.006 107.474 15.738 107.966 16.218C108.458 16.698 109.094 16.938 109.874 16.938ZM116.436 18V8.712H117.876V10.224H117.948C118.176 9.696 118.494 9.276 118.902 8.964C119.322 8.652 119.88 8.496 120.576 8.496C121.536 8.496 122.292 8.808 122.844 9.432C123.408 10.044 123.69 10.914 123.69 12.042V18H122.25V12.294C122.25 10.626 121.548 9.792 120.144 9.792C119.856 9.792 119.574 9.828 119.298 9.9C119.034 9.972 118.794 10.08 118.578 10.224C118.362 10.368 118.188 10.554 118.056 10.782C117.936 10.998 117.876 11.256 117.876 11.556V18H116.436Z" fill="#474E95"/>
</svg>
