<svg width="342" height="342" viewBox="0 0 342 227" fill="none" xmlns="http://www.w3.org/2000/svg">
<path d="M161.5 107.5H0.5V148.5H161.5V107.5Z" fill="#DCDCDC" stroke="#747474"/>
<path d="M161.5 26.5H0.5V67.5H161.5V26.5Z" fill="#DCDCDC" stroke="#747474"/>
<path d="M12.466 87.416H12.376L11.314 89.522L8.308 94.994L5.302 89.522L4.24 87.416H4.15V98H2.674V85.436H4.69L8.29 92.204H8.38L11.998 85.436H13.942V98H12.466V87.416ZM20.6474 98.216C20.0234 98.216 19.4534 98.102 18.9374 97.874C18.4214 97.646 17.9774 97.322 17.6054 96.902C17.2454 96.47 16.9634 95.96 16.7594 95.372C16.5554 94.772 16.4534 94.1 16.4534 93.356C16.4534 92.624 16.5554 91.958 16.7594 91.358C16.9634 90.758 17.2454 90.248 17.6054 89.828C17.9774 89.396 18.4214 89.066 18.9374 88.838C19.4534 88.61 20.0234 88.496 20.6474 88.496C21.2714 88.496 21.8354 88.61 22.3394 88.838C22.8554 89.066 23.2994 89.396 23.6714 89.828C24.0434 90.248 24.3314 90.758 24.5354 91.358C24.7394 91.958 24.8414 92.624 24.8414 93.356C24.8414 94.1 24.7394 94.772 24.5354 95.372C24.3314 95.96 24.0434 96.47 23.6714 96.902C23.2994 97.322 22.8554 97.646 22.3394 97.874C21.8354 98.102 21.2714 98.216 20.6474 98.216ZM20.6474 96.938C21.4274 96.938 22.0634 96.698 22.5554 96.218C23.0474 95.738 23.2934 95.006 23.2934 94.022V92.69C23.2934 91.706 23.0474 90.974 22.5554 90.494C22.0634 90.014 21.4274 89.774 20.6474 89.774C19.8674 89.774 19.2314 90.014 18.7394 90.494C18.2474 90.974 18.0014 91.706 18.0014 92.69V94.022C18.0014 95.006 18.2474 95.738 18.7394 96.218C19.2314 96.698 19.8674 96.938 20.6474 96.938ZM27.2097 84.68H28.6497V90.224H28.7217C28.9617 89.636 29.3097 89.204 29.7657 88.928C30.2337 88.64 30.7917 88.496 31.4397 88.496C32.0157 88.496 32.5377 88.61 33.0057 88.838C33.4737 89.066 33.8697 89.39 34.1937 89.81C34.5297 90.23 34.7817 90.74 34.9497 91.34C35.1297 91.94 35.2197 92.612 35.2197 93.356C35.2197 94.1 35.1297 94.772 34.9497 95.372C34.7817 95.972 34.5297 96.482 34.1937 96.902C33.8697 97.322 33.4737 97.646 33.0057 97.874C32.5377 98.102 32.0157 98.216 31.4397 98.216C30.1797 98.216 29.2737 97.64 28.7217 96.488H28.6497V98H27.2097V84.68ZM31.0437 96.92C31.8597 96.92 32.5017 96.668 32.9697 96.164C33.4377 95.648 33.6717 94.976 33.6717 94.148V92.564C33.6717 91.736 33.4377 91.07 32.9697 90.566C32.5017 90.05 31.8597 89.792 31.0437 89.792C30.7197 89.792 30.4077 89.84 30.1077 89.936C29.8197 90.02 29.5677 90.14 29.3517 90.296C29.1357 90.452 28.9617 90.644 28.8297 90.872C28.7097 91.088 28.6497 91.322 28.6497 91.574V95.03C28.6497 95.33 28.7097 95.6 28.8297 95.84C28.9617 96.068 29.1357 96.266 29.3517 96.434C29.5677 96.59 29.8197 96.71 30.1077 96.794C30.4077 96.878 30.7197 96.92 31.0437 96.92ZM38.3711 86.534C38.0591 86.534 37.8311 86.462 37.6871 86.318C37.5551 86.162 37.4891 85.964 37.4891 85.724V85.49C37.4891 85.25 37.5551 85.058 37.6871 84.914C37.8311 84.758 38.0591 84.68 38.3711 84.68C38.6831 84.68 38.9051 84.758 39.0371 84.914C39.1811 85.058 39.2531 85.25 39.2531 85.49V85.724C39.2531 85.964 39.1811 86.162 39.0371 86.318C38.9051 86.462 38.6831 86.534 38.3711 86.534ZM37.6511 88.712H39.0911V98H37.6511V88.712ZM43.6811 98C43.1771 98 42.7931 97.862 42.5291 97.586C42.2771 97.298 42.1511 96.938 42.1511 96.506V84.68H43.5911V96.74H44.9591V98H43.6811Z" fill="#1A1A1A"/>
<path d="M2.674 176V163.436H10.342V164.768H4.186V168.98H9.982V170.312H4.186V174.668H10.342V176H2.674ZM12.7361 171.302V169.754H17.4341V171.302H12.7361ZM20.2136 176V166.712H21.6536V168.224H21.7256C21.8336 167.984 21.9536 167.762 22.0856 167.558C22.2296 167.342 22.3976 167.156 22.5896 167C22.7936 166.844 23.0276 166.724 23.2916 166.64C23.5556 166.544 23.8676 166.496 24.2276 166.496C24.8396 166.496 25.4036 166.646 25.9196 166.946C26.4356 167.234 26.8196 167.714 27.0716 168.386H27.1076C27.2756 167.882 27.5876 167.444 28.0436 167.072C28.5116 166.688 29.1416 166.496 29.9336 166.496C30.8816 166.496 31.6196 166.808 32.1476 167.432C32.6876 168.044 32.9576 168.914 32.9576 170.042V176H31.5176V170.294C31.5176 169.466 31.3556 168.842 31.0316 168.422C30.7076 168.002 30.1916 167.792 29.4836 167.792C29.1956 167.792 28.9196 167.828 28.6556 167.9C28.4036 167.972 28.1756 168.08 27.9716 168.224C27.7676 168.368 27.6056 168.554 27.4856 168.782C27.3656 168.998 27.3056 169.256 27.3056 169.556V176H25.8656V170.294C25.8656 169.466 25.7036 168.842 25.3796 168.422C25.0556 168.002 24.5516 167.792 23.8676 167.792C23.5796 167.792 23.3036 167.828 23.0396 167.9C22.7756 167.972 22.5416 168.08 22.3376 168.224C22.1336 168.368 21.9656 168.554 21.8336 168.782C21.7136 168.998 21.6536 169.256 21.6536 169.556V176H20.2136ZM42.6784 176C42.1384 176 41.7484 175.856 41.5084 175.568C41.2804 175.28 41.1364 174.92 41.0764 174.488H40.9864C40.7824 175.064 40.4464 175.496 39.9784 175.784C39.5104 176.072 38.9524 176.216 38.3044 176.216C37.3204 176.216 36.5524 175.964 36.0004 175.46C35.4604 174.956 35.1904 174.272 35.1904 173.408C35.1904 172.532 35.5084 171.86 36.1444 171.392C36.7924 170.924 37.7944 170.69 39.1504 170.69H40.9864V169.772C40.9864 169.112 40.8064 168.608 40.4464 168.26C40.0864 167.912 39.5344 167.738 38.7904 167.738C38.2264 167.738 37.7524 167.864 37.3684 168.116C36.9964 168.368 36.6844 168.704 36.4324 169.124L35.5684 168.314C35.8204 167.81 36.2224 167.384 36.7744 167.036C37.3264 166.676 38.0224 166.496 38.8624 166.496C39.9904 166.496 40.8664 166.772 41.4904 167.324C42.1144 167.876 42.4264 168.644 42.4264 169.628V174.74H43.4884V176H42.6784ZM38.5384 174.992C38.8984 174.992 39.2284 174.95 39.5284 174.866C39.8284 174.782 40.0864 174.662 40.3024 174.506C40.5184 174.35 40.6864 174.17 40.8064 173.966C40.9264 173.762 40.9864 173.54 40.9864 173.3V171.77H39.0784C38.2504 171.77 37.6444 171.89 37.2604 172.13C36.8884 172.37 36.7024 172.718 36.7024 173.174V173.552C36.7024 174.008 36.8644 174.362 37.1884 174.614C37.5244 174.866 37.9744 174.992 38.5384 174.992ZM46.2637 164.534C45.9517 164.534 45.7237 164.462 45.5797 164.318C45.4477 164.162 45.3817 163.964 45.3817 163.724V163.49C45.3817 163.25 45.4477 163.058 45.5797 162.914C45.7237 162.758 45.9517 162.68 46.2637 162.68C46.5757 162.68 46.7977 162.758 46.9297 162.914C47.0737 163.058 47.1457 163.25 47.1457 163.49V163.724C47.1457 163.964 47.0737 164.162 46.9297 164.318C46.7977 164.462 46.5757 164.534 46.2637 164.534ZM45.5437 166.712H46.9837V176H45.5437V166.712ZM51.5737 176C51.0697 176 50.6857 175.862 50.4217 175.586C50.1697 175.298 50.0437 174.938 50.0437 174.506V162.68H51.4837V174.74H52.8517V176H51.5737ZM61.698 176C61.158 176 60.768 175.856 60.528 175.568C60.3 175.28 60.156 174.92 60.096 174.488H60.006C59.802 175.064 59.466 175.496 58.998 175.784C58.53 176.072 57.972 176.216 57.324 176.216C56.34 176.216 55.572 175.964 55.02 175.46C54.48 174.956 54.21 174.272 54.21 173.408C54.21 172.532 54.528 171.86 55.164 171.392C55.812 170.924 56.814 170.69 58.17 170.69H60.006V169.772C60.006 169.112 59.826 168.608 59.466 168.26C59.106 167.912 58.554 167.738 57.81 167.738C57.246 167.738 56.772 167.864 56.388 168.116C56.016 168.368 55.704 168.704 55.452 169.124L54.588 168.314C54.84 167.81 55.242 167.384 55.794 167.036C56.346 166.676 57.042 166.496 57.882 166.496C59.01 166.496 59.886 166.772 60.51 167.324C61.134 167.876 61.446 168.644 61.446 169.628V174.74H62.508V176H61.698ZM57.558 174.992C57.918 174.992 58.248 174.95 58.548 174.866C58.848 174.782 59.106 174.662 59.322 174.506C59.538 174.35 59.706 174.17 59.826 173.966C59.946 173.762 60.006 173.54 60.006 173.3V171.77H58.098C57.27 171.77 56.664 171.89 56.28 172.13C55.908 172.37 55.722 172.718 55.722 173.174V173.552C55.722 174.008 55.884 174.362 56.208 174.614C56.544 174.866 56.994 174.992 57.558 174.992ZM70.5032 174.488H70.4312C69.8672 175.64 68.9612 176.216 67.7132 176.216C67.1372 176.216 66.6152 176.102 66.1472 175.874C65.6792 175.646 65.2772 175.322 64.9412 174.902C64.6172 174.482 64.3652 173.972 64.1852 173.372C64.0172 172.772 63.9332 172.1 63.9332 171.356C63.9332 170.612 64.0172 169.94 64.1852 169.34C64.3652 168.74 64.6172 168.23 64.9412 167.81C65.2772 167.39 65.6792 167.066 66.1472 166.838C66.6152 166.61 67.1372 166.496 67.7132 166.496C68.3612 166.496 68.9132 166.64 69.3692 166.928C69.8372 167.204 70.1912 167.636 70.4312 168.224H70.5032V162.68H71.9432V176H70.5032V174.488ZM68.1092 174.92C68.4332 174.92 68.7392 174.878 69.0272 174.794C69.3272 174.71 69.5852 174.59 69.8012 174.434C70.0172 174.266 70.1852 174.068 70.3052 173.84C70.4372 173.6 70.5032 173.33 70.5032 173.03V169.574C70.5032 169.322 70.4372 169.088 70.3052 168.872C70.1852 168.644 70.0172 168.452 69.8012 168.296C69.5852 168.14 69.3272 168.02 69.0272 167.936C68.7392 167.84 68.4332 167.792 68.1092 167.792C67.2932 167.792 66.6512 168.05 66.1832 168.566C65.7152 169.07 65.4812 169.736 65.4812 170.564V172.148C65.4812 172.976 65.7152 173.648 66.1832 174.164C66.6512 174.668 67.2932 174.92 68.1092 174.92ZM75.0046 176V166.712H76.4446V168.422H76.5346C76.7026 167.978 77.0026 167.582 77.4346 167.234C77.8666 166.886 78.4606 166.712 79.2166 166.712H79.7746V168.152H78.9286C78.1486 168.152 77.5366 168.302 77.0926 168.602C76.6606 168.89 76.4446 169.256 76.4446 169.7V176H75.0046ZM85.0181 176.216C84.3821 176.216 83.8061 176.102 83.2901 175.874C82.7861 175.646 82.3481 175.322 81.9761 174.902C81.6161 174.47 81.3341 173.96 81.1301 173.372C80.9381 172.772 80.8421 172.1 80.8421 171.356C80.8421 170.624 80.9381 169.958 81.1301 169.358C81.3341 168.758 81.6161 168.248 81.9761 167.828C82.3481 167.396 82.7861 167.066 83.2901 166.838C83.8061 166.61 84.3821 166.496 85.0181 166.496C85.6421 166.496 86.2001 166.61 86.6921 166.838C87.1841 167.066 87.6041 167.384 87.9521 167.792C88.3001 168.188 88.5641 168.662 88.7441 169.214C88.9361 169.766 89.0321 170.372 89.0321 171.032V171.716H82.3541V172.148C82.3541 172.544 82.4141 172.916 82.5341 173.264C82.6661 173.6 82.8461 173.894 83.0741 174.146C83.3141 174.398 83.6021 174.596 83.9381 174.74C84.2861 174.884 84.6761 174.956 85.1081 174.956C85.6961 174.956 86.2061 174.818 86.6381 174.542C87.0821 174.266 87.4241 173.87 87.6641 173.354L88.6901 174.092C88.3901 174.728 87.9221 175.244 87.2861 175.64C86.6501 176.024 85.8941 176.216 85.0181 176.216ZM85.0181 167.702C84.6221 167.702 84.2621 167.774 83.9381 167.918C83.6141 168.05 83.3321 168.242 83.0921 168.494C82.8641 168.746 82.6841 169.046 82.5521 169.394C82.4201 169.73 82.3541 170.102 82.3541 170.51V170.636H87.4841V170.438C87.4841 169.61 87.2561 168.95 86.8001 168.458C86.3561 167.954 85.7621 167.702 85.0181 167.702ZM94.195 176.216C93.331 176.216 92.605 176.054 92.017 175.73C91.441 175.394 90.943 174.95 90.523 174.398L91.549 173.57C91.909 174.026 92.311 174.38 92.755 174.632C93.199 174.872 93.715 174.992 94.303 174.992C94.915 174.992 95.389 174.86 95.725 174.596C96.073 174.332 96.247 173.96 96.247 173.48C96.247 173.12 96.127 172.814 95.887 172.562C95.659 172.298 95.239 172.118 94.627 172.022L93.889 171.914C93.457 171.854 93.061 171.764 92.701 171.644C92.341 171.512 92.023 171.344 91.747 171.14C91.483 170.924 91.273 170.66 91.117 170.348C90.973 170.036 90.901 169.664 90.901 169.232C90.901 168.776 90.985 168.38 91.153 168.044C91.321 167.696 91.549 167.408 91.837 167.18C92.137 166.952 92.491 166.784 92.899 166.676C93.307 166.556 93.745 166.496 94.213 166.496C94.969 166.496 95.599 166.628 96.103 166.892C96.619 167.156 97.069 167.522 97.453 167.99L96.499 168.854C96.295 168.566 95.995 168.308 95.599 168.08C95.203 167.84 94.705 167.72 94.105 167.72C93.505 167.72 93.049 167.852 92.737 168.116C92.437 168.368 92.287 168.716 92.287 169.16C92.287 169.616 92.437 169.946 92.737 170.15C93.049 170.354 93.493 170.504 94.069 170.6L94.789 170.708C95.821 170.864 96.553 171.164 96.985 171.608C97.417 172.04 97.633 172.61 97.633 173.318C97.633 174.218 97.327 174.926 96.715 175.442C96.103 175.958 95.263 176.216 94.195 176.216ZM102.861 176.216C101.997 176.216 101.271 176.054 100.683 175.73C100.107 175.394 99.609 174.95 99.189 174.398L100.215 173.57C100.575 174.026 100.977 174.38 101.421 174.632C101.865 174.872 102.381 174.992 102.969 174.992C103.581 174.992 104.055 174.86 104.391 174.596C104.739 174.332 104.913 173.96 104.913 173.48C104.913 173.12 104.793 172.814 104.553 172.562C104.325 172.298 103.905 172.118 103.293 172.022L102.555 171.914C102.123 171.854 101.727 171.764 101.367 171.644C101.007 171.512 100.689 171.344 100.413 171.14C100.149 170.924 99.939 170.66 99.783 170.348C99.639 170.036 99.567 169.664 99.567 169.232C99.567 168.776 99.651 168.38 99.819 168.044C99.987 167.696 100.215 167.408 100.503 167.18C100.803 166.952 101.157 166.784 101.565 166.676C101.973 166.556 102.411 166.496 102.879 166.496C103.635 166.496 104.265 166.628 104.769 166.892C105.285 167.156 105.735 167.522 106.119 167.99L105.165 168.854C104.961 168.566 104.661 168.308 104.265 168.08C103.869 167.84 103.371 167.72 102.771 167.72C102.171 167.72 101.715 167.852 101.403 168.116C101.103 168.368 100.953 168.716 100.953 169.16C100.953 169.616 101.103 169.946 101.403 170.15C101.715 170.354 102.159 170.504 102.735 170.6L103.455 170.708C104.487 170.864 105.219 171.164 105.651 171.608C106.083 172.04 106.299 172.61 106.299 173.318C106.299 174.218 105.993 174.926 105.381 175.442C104.769 175.958 103.929 176.216 102.861 176.216ZM112.335 176.216C111.699 176.216 111.123 176.102 110.607 175.874C110.103 175.646 109.665 175.322 109.293 174.902C108.933 174.47 108.651 173.96 108.447 173.372C108.255 172.772 108.159 172.1 108.159 171.356C108.159 170.624 108.255 169.958 108.447 169.358C108.651 168.758 108.933 168.248 109.293 167.828C109.665 167.396 110.103 167.066 110.607 166.838C111.123 166.61 111.699 166.496 112.335 166.496C112.959 166.496 113.517 166.61 114.009 166.838C114.501 167.066 114.921 167.384 115.269 167.792C115.617 168.188 115.881 168.662 116.061 169.214C116.253 169.766 116.349 170.372 116.349 171.032V171.716H109.671V172.148C109.671 172.544 109.731 172.916 109.851 173.264C109.983 173.6 110.163 173.894 110.391 174.146C110.631 174.398 110.919 174.596 111.255 174.74C111.603 174.884 111.993 174.956 112.425 174.956C113.013 174.956 113.523 174.818 113.955 174.542C114.399 174.266 114.741 173.87 114.981 173.354L116.007 174.092C115.707 174.728 115.239 175.244 114.603 175.64C113.967 176.024 113.211 176.216 112.335 176.216ZM112.335 167.702C111.939 167.702 111.579 167.774 111.255 167.918C110.931 168.05 110.649 168.242 110.409 168.494C110.181 168.746 110.001 169.046 109.869 169.394C109.737 169.73 109.671 170.102 109.671 170.51V170.636H114.801V170.438C114.801 169.61 114.573 168.95 114.117 168.458C113.673 167.954 113.079 167.702 112.335 167.702Z" fill="#474E95"/>
<path d="M161.5 185.5H0.5V226.5H161.5V185.5Z" fill="#C8CADF" stroke="#474E95"/>
<path d="M2.674 18V5.436H10.162V6.768H4.186V10.98H9.64V12.312H4.186V18H2.674ZM18.614 18C18.074 18 17.684 17.856 17.444 17.568C17.216 17.28 17.072 16.92 17.012 16.488H16.922C16.718 17.064 16.382 17.496 15.914 17.784C15.446 18.072 14.888 18.216 14.24 18.216C13.256 18.216 12.488 17.964 11.936 17.46C11.396 16.956 11.126 16.272 11.126 15.408C11.126 14.532 11.444 13.86 12.08 13.392C12.728 12.924 13.73 12.69 15.086 12.69H16.922V11.772C16.922 11.112 16.742 10.608 16.382 10.26C16.022 9.912 15.47 9.738 14.726 9.738C14.162 9.738 13.688 9.864 13.304 10.116C12.932 10.368 12.62 10.704 12.368 11.124L11.504 10.314C11.756 9.81 12.158 9.384 12.71 9.036C13.262 8.676 13.958 8.496 14.798 8.496C15.926 8.496 16.802 8.772 17.426 9.324C18.05 9.876 18.362 10.644 18.362 11.628V16.74H19.424V18H18.614ZM14.474 16.992C14.834 16.992 15.164 16.95 15.464 16.866C15.764 16.782 16.022 16.662 16.238 16.506C16.454 16.35 16.622 16.17 16.742 15.966C16.862 15.762 16.922 15.54 16.922 15.3V13.77H15.014C14.186 13.77 13.58 13.89 13.196 14.13C12.824 14.37 12.638 14.718 12.638 15.174V15.552C12.638 16.008 12.8 16.362 13.124 16.614C13.46 16.866 13.91 16.992 14.474 16.992ZM24.2692 18.216C23.4052 18.216 22.6792 18.054 22.0912 17.73C21.5152 17.394 21.0172 16.95 20.5972 16.398L21.6232 15.57C21.9832 16.026 22.3852 16.38 22.8292 16.632C23.2732 16.872 23.7892 16.992 24.3772 16.992C24.9892 16.992 25.4632 16.86 25.7992 16.596C26.1472 16.332 26.3212 15.96 26.3212 15.48C26.3212 15.12 26.2012 14.814 25.9612 14.562C25.7332 14.298 25.3132 14.118 24.7012 14.022L23.9632 13.914C23.5312 13.854 23.1352 13.764 22.7752 13.644C22.4152 13.512 22.0972 13.344 21.8212 13.14C21.5572 12.924 21.3472 12.66 21.1912 12.348C21.0472 12.036 20.9752 11.664 20.9752 11.232C20.9752 10.776 21.0592 10.38 21.2272 10.044C21.3952 9.696 21.6232 9.408 21.9112 9.18C22.2112 8.952 22.5652 8.784 22.9732 8.676C23.3812 8.556 23.8192 8.496 24.2872 8.496C25.0432 8.496 25.6732 8.628 26.1772 8.892C26.6932 9.156 27.1432 9.522 27.5272 9.99L26.5732 10.854C26.3692 10.566 26.0692 10.308 25.6732 10.08C25.2772 9.84 24.7792 9.72 24.1792 9.72C23.5792 9.72 23.1232 9.852 22.8112 10.116C22.5112 10.368 22.3612 10.716 22.3612 11.16C22.3612 11.616 22.5112 11.946 22.8112 12.15C23.1232 12.354 23.5672 12.504 24.1432 12.6L24.8632 12.708C25.8952 12.864 26.6272 13.164 27.0592 13.608C27.4912 14.04 27.7072 14.61 27.7072 15.318C27.7072 16.218 27.4012 16.926 26.7892 17.442C26.1772 17.958 25.3372 18.216 24.2692 18.216ZM32.1797 18C31.6757 18 31.2917 17.862 31.0277 17.586C30.7757 17.298 30.6497 16.926 30.6497 16.47V9.972H29.1197V8.712H29.9837C30.2957 8.712 30.5057 8.652 30.6137 8.532C30.7337 8.4 30.7937 8.178 30.7937 7.866V6.138H32.0897V8.712H34.1237V9.972H32.0897V16.74H33.9797V18H32.1797ZM36.4382 18V8.712H37.8782V10.224H37.9502C38.1782 9.696 38.4962 9.276 38.9042 8.964C39.3242 8.652 39.8822 8.496 40.5782 8.496C41.5382 8.496 42.2942 8.808 42.8462 9.432C43.4102 10.044 43.6922 10.914 43.6922 12.042V18H42.2522V12.294C42.2522 10.626 41.5502 9.792 40.1462 9.792C39.8582 9.792 39.5762 9.828 39.3002 9.9C39.0362 9.972 38.7962 10.08 38.5802 10.224C38.3642 10.368 38.1902 10.554 38.0582 10.782C37.9382 10.998 37.8782 11.256 37.8782 11.556V18H36.4382ZM50.1607 18.216C49.5247 18.216 48.9487 18.102 48.4327 17.874C47.9287 17.646 47.4907 17.322 47.1187 16.902C46.7587 16.47 46.4767 15.96 46.2727 15.372C46.0807 14.772 45.9847 14.1 45.9847 13.356C45.9847 12.624 46.0807 11.958 46.2727 11.358C46.4767 10.758 46.7587 10.248 47.1187 9.828C47.4907 9.396 47.9287 9.066 48.4327 8.838C48.9487 8.61 49.5247 8.496 50.1607 8.496C50.7847 8.496 51.3427 8.61 51.8347 8.838C52.3267 9.066 52.7467 9.384 53.0947 9.792C53.4427 10.188 53.7067 10.662 53.8867 11.214C54.0787 11.766 54.1747 12.372 54.1747 13.032V13.716H47.4967V14.148C47.4967 14.544 47.5567 14.916 47.6767 15.264C47.8087 15.6 47.9887 15.894 48.2167 16.146C48.4567 16.398 48.7447 16.596 49.0807 16.74C49.4287 16.884 49.8187 16.956 50.2507 16.956C50.8387 16.956 51.3487 16.818 51.7807 16.542C52.2247 16.266 52.5667 15.87 52.8067 15.354L53.8327 16.092C53.5327 16.728 53.0647 17.244 52.4287 17.64C51.7927 18.024 51.0367 18.216 50.1607 18.216ZM50.1607 9.702C49.7647 9.702 49.4047 9.774 49.0807 9.918C48.7567 10.05 48.4747 10.242 48.2347 10.494C48.0067 10.746 47.8267 11.046 47.6947 11.394C47.5627 11.73 47.4967 12.102 47.4967 12.51V12.636H52.6267V12.438C52.6267 11.61 52.3987 10.95 51.9427 10.458C51.4987 9.954 50.9047 9.702 50.1607 9.702ZM58.5996 18C58.0956 18 57.7116 17.862 57.4476 17.586C57.1956 17.298 57.0696 16.926 57.0696 16.47V9.972H55.5396V8.712H56.4036C56.7156 8.712 56.9256 8.652 57.0336 8.532C57.1536 8.4 57.2136 8.178 57.2136 7.866V6.138H58.5096V8.712H60.5436V9.972H58.5096V16.74H60.3996V18H58.5996ZM62.2186 13.302V11.754H66.9166V13.302H62.2186ZM71.748 18C71.244 18 70.86 17.862 70.596 17.586C70.344 17.298 70.218 16.926 70.218 16.47V9.972H68.688V8.712H69.552C69.864 8.712 70.074 8.652 70.182 8.532C70.302 8.4 70.362 8.178 70.362 7.866V6.138H71.658V8.712H73.692V9.972H71.658V16.74H73.548V18H71.748ZM79.4283 18.216C78.7923 18.216 78.2163 18.102 77.7003 17.874C77.1963 17.646 76.7583 17.322 76.3863 16.902C76.0263 16.47 75.7443 15.96 75.5403 15.372C75.3483 14.772 75.2523 14.1 75.2523 13.356C75.2523 12.624 75.3483 11.958 75.5403 11.358C75.7443 10.758 76.0263 10.248 76.3863 9.828C76.7583 9.396 77.1963 9.066 77.7003 8.838C78.2163 8.61 78.7923 8.496 79.4283 8.496C80.0523 8.496 80.6103 8.61 81.1023 8.838C81.5943 9.066 82.0143 9.384 82.3623 9.792C82.7103 10.188 82.9743 10.662 83.1543 11.214C83.3463 11.766 83.4423 12.372 83.4423 13.032V13.716H76.7643V14.148C76.7643 14.544 76.8243 14.916 76.9443 15.264C77.0763 15.6 77.2563 15.894 77.4843 16.146C77.7243 16.398 78.0123 16.596 78.3483 16.74C78.6963 16.884 79.0863 16.956 79.5183 16.956C80.1063 16.956 80.6163 16.818 81.0483 16.542C81.4923 16.266 81.8343 15.87 82.0743 15.354L83.1003 16.092C82.8003 16.728 82.3323 17.244 81.6963 17.64C81.0603 18.024 80.3043 18.216 79.4283 18.216ZM79.4283 9.702C79.0323 9.702 78.6723 9.774 78.3483 9.918C78.0243 10.05 77.7423 10.242 77.5023 10.494C77.2743 10.746 77.0943 11.046 76.9623 11.394C76.8303 11.73 76.7643 12.102 76.7643 12.51V12.636H81.8943V12.438C81.8943 11.61 81.6663 10.95 81.2103 10.458C80.7663 9.954 80.1723 9.702 79.4283 9.702ZM87.3452 18C86.8412 18 86.4572 17.862 86.1932 17.586C85.9412 17.298 85.8152 16.938 85.8152 16.506V4.68H87.2552V16.74H88.6232V18H87.3452ZM94.2115 18.216C93.5755 18.216 92.9995 18.102 92.4835 17.874C91.9795 17.646 91.5415 17.322 91.1695 16.902C90.8095 16.47 90.5275 15.96 90.3235 15.372C90.1315 14.772 90.0355 14.1 90.0355 13.356C90.0355 12.624 90.1315 11.958 90.3235 11.358C90.5275 10.758 90.8095 10.248 91.1695 9.828C91.5415 9.396 91.9795 9.066 92.4835 8.838C92.9995 8.61 93.5755 8.496 94.2115 8.496C94.8355 8.496 95.3935 8.61 95.8855 8.838C96.3775 9.066 96.7975 9.384 97.1455 9.792C97.4935 10.188 97.7575 10.662 97.9375 11.214C98.1295 11.766 98.2255 12.372 98.2255 13.032V13.716H91.5475V14.148C91.5475 14.544 91.6075 14.916 91.7275 15.264C91.8595 15.6 92.0395 15.894 92.2675 16.146C92.5075 16.398 92.7955 16.596 93.1315 16.74C93.4795 16.884 93.8695 16.956 94.3015 16.956C94.8895 16.956 95.3995 16.818 95.8315 16.542C96.2755 16.266 96.6175 15.87 96.8575 15.354L97.8835 16.092C97.5835 16.728 97.1155 17.244 96.4795 17.64C95.8435 18.024 95.0875 18.216 94.2115 18.216ZM94.2115 9.702C93.8155 9.702 93.4555 9.774 93.1315 9.918C92.8075 10.05 92.5255 10.242 92.2855 10.494C92.0575 10.746 91.8775 11.046 91.7455 11.394C91.6135 11.73 91.5475 12.102 91.5475 12.51V12.636H96.6775V12.438C96.6775 11.61 96.4495 10.95 95.9935 10.458C95.5495 9.954 94.9555 9.702 94.2115 9.702ZM101.102 9.972H99.5904V8.712H101.102V6.84C101.102 6.192 101.27 5.67 101.606 5.274C101.942 4.878 102.452 4.68 103.136 4.68H104.54V5.94H102.542V8.712H104.54V9.972H102.542V18H101.102V9.972ZM109.874 18.216C109.25 18.216 108.68 18.102 108.164 17.874C107.648 17.646 107.204 17.322 106.832 16.902C106.472 16.47 106.19 15.96 105.986 15.372C105.782 14.772 105.68 14.1 105.68 13.356C105.68 12.624 105.782 11.958 105.986 11.358C106.19 10.758 106.472 10.248 106.832 9.828C107.204 9.396 107.648 9.066 108.164 8.838C108.68 8.61 109.25 8.496 109.874 8.496C110.498 8.496 111.062 8.61 111.566 8.838C112.082 9.066 112.526 9.396 112.898 9.828C113.27 10.248 113.558 10.758 113.762 11.358C113.966 11.958 114.068 12.624 114.068 13.356C114.068 14.1 113.966 14.772 113.762 15.372C113.558 15.96 113.27 16.47 112.898 16.902C112.526 17.322 112.082 17.646 111.566 17.874C111.062 18.102 110.498 18.216 109.874 18.216ZM109.874 16.938C110.654 16.938 111.29 16.698 111.782 16.218C112.274 15.738 112.52 15.006 112.52 14.022V12.69C112.52 11.706 112.274 10.974 111.782 10.494C111.29 10.014 110.654 9.774 109.874 9.774C109.094 9.774 108.458 10.014 107.966 10.494C107.474 10.974 107.228 11.706 107.228 12.69V14.022C107.228 15.006 107.474 15.738 107.966 16.218C108.458 16.698 109.094 16.938 109.874 16.938ZM116.436 18V8.712H117.876V10.224H117.948C118.176 9.696 118.494 9.276 118.902 8.964C119.322 8.652 119.88 8.496 120.576 8.496C121.536 8.496 122.292 8.808 122.844 9.432C123.408 10.044 123.69 10.914 123.69 12.042V18H122.25V12.294C122.25 10.626 121.548 9.792 120.144 9.792C119.856 9.792 119.574 9.828 119.298 9.9C119.034 9.972 118.794 10.08 118.578 10.224C118.362 10.368 118.188 10.554 118.056 10.782C117.936 10.998 117.876 11.256 117.876 11.556V18H116.436Z" fill="#1A1A1A"/>
</svg>
