<svg id="Layer_1" data-name="Layer 1" xmlns="http://www.w3.org/2000/svg"  width="360" height="360" viewBox="0 0 360 360" ><path d="M15.2,27.2a6.09,6.09,0,0,1-2.8-.6,7,7,0,0,1-1.9-1.5l1.6-1.5a5.26,5.26,0,0,0,1.4,1.2,3.42,3.42,0,0,0,1.8.4,2.86,2.86,0,0,0,1.7-.5,1.61,1.61,0,0,0,.6-1.3,1.16,1.16,0,0,0-.4-1,2,2,0,0,0-1.3-.6l-1.2-.2c-2.5-.4-3.8-1.6-3.8-3.7a3.34,3.34,0,0,1,.3-1.5,3.45,3.45,0,0,1,.9-1.2,3.69,3.69,0,0,1,1.4-.7,5.82,5.82,0,0,1,1.9-.3,6.55,6.55,0,0,1,2.5.5,4.89,4.89,0,0,1,1.8,1.4l-1.6,1.5a3.13,3.13,0,0,0-1.1-.9,3.87,3.87,0,0,0-1.7-.4,2.08,2.08,0,0,0-1.5.4,1.43,1.43,0,0,0-.5,1.1,1.37,1.37,0,0,0,.4,1.1,3.2,3.2,0,0,0,1.3.5l1.2.2A4.86,4.86,0,0,1,19,20.8a3.24,3.24,0,0,1,.9,2.4,4.15,4.15,0,0,1-.3,1.6,3.81,3.81,0,0,1-.9,1.3,5.3,5.3,0,0,1-1.5.8A6.45,6.45,0,0,1,15.2,27.2Zm6.9-13.5h2.3v8h.1L25.7,20l2.1-2.4h2.6l-3.2,3.6L30.8,27H28.1l-2.4-4.2-1.2,1.4V27H22.2V13.7ZM32.2,27V17.6h2.3v1.9h.1a4.88,4.88,0,0,1,.3-.7,2.65,2.65,0,0,1,.5-.6,1.61,1.61,0,0,1,.7-.4,3,3,0,0,1,1-.2h.5v2.2h-.7a4.18,4.18,0,0,0-1.8.3,1.15,1.15,0,0,0-.6,1.1V27Zm8.3-10.8a1.33,1.33,0,0,1-1-.3,1.14,1.14,0,0,1-.3-.8v-.4a1.14,1.14,0,0,1,.3-.8,1.49,1.49,0,0,1,1-.3,1.33,1.33,0,0,1,1,.3,1.14,1.14,0,0,1,.3.8v.4a1.14,1.14,0,0,1-.3.8A1.49,1.49,0,0,1,40.5,16.2Zm-1.2,1.4h2.3V27H39.3Zm7,9.4-3.1-9.4h2.3l1.3,4,.9,3.3h.1l.9-3.3,1.3-4h2.2L49,27Zm17.5-1.6h0a4.49,4.49,0,0,1-1,1.3,3.2,3.2,0,0,1-4.3-.8,6.53,6.53,0,0,1-.9-3.7,6,6,0,0,1,.9-3.6,3,3,0,0,1,2.7-1.3,2.77,2.77,0,0,1,1.6.5,2.21,2.21,0,0,1,1,1.3h.1V13.6h2.3V27H63.9V25.4Zm-1.9-.1a2.12,2.12,0,0,0,1.4-.4,1.25,1.25,0,0,0,.6-1.1v-3a1.25,1.25,0,0,0-.6-1.1,2.12,2.12,0,0,0-1.4-.4,2,2,0,0,0-1.5.6,2.07,2.07,0,0,0-.5,1.6v1.6a2.54,2.54,0,0,0,.5,1.6A2,2,0,0,0,61.9,25.3Zm8-9.1a1.33,1.33,0,0,1-1-.3,1.14,1.14,0,0,1-.3-.8v-.4a1.14,1.14,0,0,1,.3-.8,1.49,1.49,0,0,1,1-.3,1.33,1.33,0,0,1,1,.3,1.14,1.14,0,0,1,.3.8v.4a1.14,1.14,0,0,1-.3.8A1.33,1.33,0,0,1,69.9,16.2Zm-1.1,1.4h2.3V27H68.8ZM76.7,27a2.12,2.12,0,0,1-2.4-2.4V19.4H72.9V17.6h.7a1.17,1.17,0,0,0,.7-.2,1.45,1.45,0,0,0,.2-.7V15h2.1v2.6h1.9v1.8H76.6v5.7h1.8V27Zm8-13.3H87v5.5h.1a2.56,2.56,0,0,1,1-1.3,3.2,3.2,0,0,1,4.3.8,5.94,5.94,0,0,1,1,3.6,5.82,5.82,0,0,1-1,3.7,3,3,0,0,1-2.7,1.3,2.77,2.77,0,0,1-1.6-.5,2.56,2.56,0,0,1-1-1.3H87V27H84.7ZM89,25.3a2,2,0,0,0,1.5-.6,2.11,2.11,0,0,0,.6-1.6V21.5a2.11,2.11,0,0,0-.6-1.6,2,2,0,0,0-1.5-.6,2.12,2.12,0,0,0-1.4.4,1.25,1.25,0,0,0-.6,1.1v3a1.29,1.29,0,0,0,.5,1.1A2.41,2.41,0,0,0,89,25.3ZM102.4,27a1.59,1.59,0,0,1-1.2-.4,1.66,1.66,0,0,1-.5-1.2h-.1a2.43,2.43,0,0,1-1,1.4,3.42,3.42,0,0,1-1.8.4,3,3,0,0,1-2.2-.8,2.79,2.79,0,0,1-.8-2,2.46,2.46,0,0,1,1-2.2,5.13,5.13,0,0,1,3-.7h1.6v-.7a1.59,1.59,0,0,0-.4-1.2,1.7,1.7,0,0,0-1.3-.4,1.84,1.84,0,0,0-1.3.4,3,3,0,0,0-.8.8l-1.4-1.2a3.53,3.53,0,0,1,1.4-1.3,4.9,4.9,0,0,1,2.3-.5,4.2,4.2,0,0,1,2.9.9,3,3,0,0,1,1,2.5v4.4h.9V27Zm-3.8-1.5a2.5,2.5,0,0,0,1.3-.3,1,1,0,0,0,.5-1V23H99q-1.8,0-1.8,1.2v.3a1,1,0,0,0,.4.9A2.79,2.79,0,0,0,98.6,25.5Zm7,1.5V17.6h2.3v1.9h.1a4.88,4.88,0,0,1,.3-.7,2.65,2.65,0,0,1,.5-.6,1.61,1.61,0,0,1,.7-.4,3,3,0,0,1,1-.2h.5v2.2h-.7a4.18,4.18,0,0,0-1.8.3,1.15,1.15,0,0,0-.6,1.1V27Zm7,0V17.6h2.3v1.6h.1a3.81,3.81,0,0,1,.9-1.3,2.86,2.86,0,0,1,1.7-.5,2.46,2.46,0,0,1,2.2,1,4.14,4.14,0,0,1,.8,2.7V27h-2.3V21.3a2.08,2.08,0,0,0-.4-1.5,1.36,1.36,0,0,0-1.2-.5,1.7,1.7,0,0,0-.7.1l-.6.3a1,1,0,0,0-.4.5,1.42,1.42,0,0,0-.2.6V27Zm18.6.2a4.84,4.84,0,0,1-1.8-.3,4.51,4.51,0,0,1-1.4-1,3.77,3.77,0,0,1-.9-1.5,6.65,6.65,0,0,1-.3-2.1,6,6,0,0,1,.3-2,3.77,3.77,0,0,1,.9-1.5,3.59,3.59,0,0,1,1.4-1,5.55,5.55,0,0,1,3.6,0,4.51,4.51,0,0,1,1.4,1,3.77,3.77,0,0,1,.9,1.5,6.45,6.45,0,0,1,.3,2,7.61,7.61,0,0,1-.3,2.1,3.77,3.77,0,0,1-.9,1.5,3.59,3.59,0,0,1-1.4,1A4.84,4.84,0,0,1,131.2,27.2Zm0-1.8a1.68,1.68,0,0,0,1.4-.6,2.54,2.54,0,0,0,.5-1.6V21.5a2.54,2.54,0,0,0-.5-1.6,1.93,1.93,0,0,0-2.8,0,2.54,2.54,0,0,0-.5,1.6v1.7a2.35,2.35,0,0,0,.5,1.6A1.68,1.68,0,0,0,131.2,25.4Zm6.4-7.8h2.3v1.5h.1a2.56,2.56,0,0,1,1-1.3,3.2,3.2,0,0,1,4.3.8,5.94,5.94,0,0,1,1,3.6,5.82,5.82,0,0,1-1,3.7,3,3,0,0,1-2.7,1.3,2.77,2.77,0,0,1-1.6-.5,2.56,2.56,0,0,1-1-1.3h-.1v5.2h-2.3Zm4.3,7.7a2,2,0,0,0,1.5-.6,2.11,2.11,0,0,0,.6-1.6V21.5a2.11,2.11,0,0,0-.6-1.6,2,2,0,0,0-1.5-.6,2.12,2.12,0,0,0-1.4.4,1.17,1.17,0,0,0-.5,1.1v3a1.29,1.29,0,0,0,.5,1.1A2,2,0,0,0,141.9,25.3ZM155.6,27a2.12,2.12,0,0,1-2.4-2.4V19.4h-1.4V17.6h.7a1.17,1.17,0,0,0,.7-.2,1.45,1.45,0,0,0,.2-.7V15h2.1v2.6h1.9v1.8h-1.9v5.7h1.8V27Zm5-10.8a1.33,1.33,0,0,1-1-.3,1.14,1.14,0,0,1-.3-.8v-.4a1.14,1.14,0,0,1,.3-.8,1.49,1.49,0,0,1,1-.3,1.33,1.33,0,0,1,1,.3,1.14,1.14,0,0,1,.3.8v.4a1.14,1.14,0,0,1-.3.8A1.49,1.49,0,0,1,160.6,16.2Zm-1.2,1.4h2.3V27h-2.3Zm7.3,9.4a2.06,2.06,0,0,1-1.7-.6,2.89,2.89,0,0,1-.6-1.7v-11h2.3V25.2h1.2V27Zm7.2-9.4h2.3v1.5h.1a2.56,2.56,0,0,1,1-1.3,3.2,3.2,0,0,1,4.3.8,5.94,5.94,0,0,1,1,3.6,5.82,5.82,0,0,1-1,3.7,3,3,0,0,1-2.7,1.3,2.77,2.77,0,0,1-1.6-.5,2.56,2.56,0,0,1-1-1.3h-.1v5.2h-2.3Zm4.3,7.7a2,2,0,0,0,1.5-.6,2.11,2.11,0,0,0,.6-1.6V21.5a2.11,2.11,0,0,0-.6-1.6,2,2,0,0,0-1.5-.6,2.12,2.12,0,0,0-1.4.4,1.17,1.17,0,0,0-.5,1.1v3a1.29,1.29,0,0,0,.5,1.1A2,2,0,0,0,178.2,25.3ZM191.6,27a1.59,1.59,0,0,1-1.2-.4,1.66,1.66,0,0,1-.5-1.2h-.1a2.43,2.43,0,0,1-1,1.4,3.42,3.42,0,0,1-1.8.4,3,3,0,0,1-2.2-.8,2.79,2.79,0,0,1-.8-2,2.46,2.46,0,0,1,1-2.2,5.13,5.13,0,0,1,3-.7h1.6v-.7a1.59,1.59,0,0,0-.4-1.2,1.7,1.7,0,0,0-1.3-.4,1.84,1.84,0,0,0-1.3.4,3,3,0,0,0-.8.8l-1.4-1.2a3.53,3.53,0,0,1,1.4-1.3,4.9,4.9,0,0,1,2.3-.5,4.2,4.2,0,0,1,2.9.9,3,3,0,0,1,1,2.5v4.4h.9V27Zm-3.8-1.5a2.5,2.5,0,0,0,1.3-.3,1,1,0,0,0,.5-1V23h-1.5q-1.8,0-1.8,1.2v.3a1,1,0,0,0,.4.9A3.75,3.75,0,0,0,187.8,25.5Zm10,1.7a5.27,5.27,0,0,1-2.3-.4,4,4,0,0,1-1.6-1.3l1.4-1.4a3.13,3.13,0,0,0,1.1.9,3.19,3.19,0,0,0,1.4.3A1.92,1.92,0,0,0,199,25a.91.91,0,0,0,.4-.8.6.6,0,0,0-.3-.6,1.22,1.22,0,0,0-.9-.3l-.9-.1a3.74,3.74,0,0,1-2.3-.9,2.63,2.63,0,0,1-.8-2,2.13,2.13,0,0,1,.3-1.2,2.18,2.18,0,0,1,.7-.9,2.38,2.38,0,0,1,1.1-.6,6.05,6.05,0,0,1,1.5-.2,4.12,4.12,0,0,1,1.2.1c.4.1.7.2,1,.3a2.18,2.18,0,0,1,.8.5c.2.2.5.4.7.6l-1.3,1.4a3.59,3.59,0,0,0-1-.7,2.77,2.77,0,0,0-1.3-.3,1.61,1.61,0,0,0-1.1.3.91.91,0,0,0-.3.7.78.78,0,0,0,.3.7,1.33,1.33,0,0,0,1,.3l1,.1c2,.3,3,1.2,3,2.8a2.77,2.77,0,0,1-.3,1.3,2.54,2.54,0,0,1-.8,1,2.28,2.28,0,0,1-1.2.6C199,27.1,198.4,27.2,197.8,27.2Zm6-.2V17.6h2.3v1.6h.1a3.81,3.81,0,0,1,.9-1.3,2.86,2.86,0,0,1,1.7-.5,2.46,2.46,0,0,1,2.2,1,4.14,4.14,0,0,1,.8,2.7V27h-2.3V21.3a2.08,2.08,0,0,0-.4-1.5,1.5,1.5,0,0,0-1.2-.5,1.7,1.7,0,0,0-.7.1l-.6.3a1,1,0,0,0-.4.5,1.42,1.42,0,0,0-.2.6V27Zm11.7-10.8a1.33,1.33,0,0,1-1-.3,1.14,1.14,0,0,1-.3-.8v-.4a1.14,1.14,0,0,1,.3-.8,1.49,1.49,0,0,1,1-.3,1.33,1.33,0,0,1,1,.3,1.14,1.14,0,0,1,.3.8v.4a1.14,1.14,0,0,1-.3.8A1.33,1.33,0,0,1,215.5,16.2Zm-1.2,1.4h2.3V27h-2.3Zm5,9.4V17.6h2.3v1.6h.1a3.81,3.81,0,0,1,.9-1.3,2.86,2.86,0,0,1,1.7-.5,2.46,2.46,0,0,1,2.2,1,4.14,4.14,0,0,1,.8,2.7V27H225V21.3a2.08,2.08,0,0,0-.4-1.5,1.36,1.36,0,0,0-1.2-.5,1.7,1.7,0,0,0-.7.1l-.6.3a1,1,0,0,0-.4.5,1.42,1.42,0,0,0-.2.6V27Zm19.1.8a2.77,2.77,0,0,1-.3,1.3,2.54,2.54,0,0,1-.8,1,5.21,5.21,0,0,1-1.5.6,14,14,0,0,1-2.3.2,10.31,10.31,0,0,1-2-.2,4.67,4.67,0,0,1-1.4-.4,2.7,2.7,0,0,1-.8-.7,1.49,1.49,0,0,1-.2-.9,1.59,1.59,0,0,1,.4-1.2,2.28,2.28,0,0,1,1.2-.6v-.2a1.46,1.46,0,0,1-.9-.6,1.69,1.69,0,0,1-.3-1c0-.2,0-.5.1-.6a1,1,0,0,1,.4-.5l.6-.3a1.42,1.42,0,0,1,.6-.2v-.1a2.85,2.85,0,0,1-1.3-1.1,2.93,2.93,0,0,1-.4-1.6,2.76,2.76,0,0,1,1-2.3,4.2,4.2,0,0,1,2.9-.9,2,2,0,0,1,.8.1,1.88,1.88,0,0,1,.8.2v-.3c0-.9.4-1.4,1.3-1.4h1.5v1.8h-2V18a2.35,2.35,0,0,1,1.1,1.1,4.19,4.19,0,0,1,.4,1.5,2.9,2.9,0,0,1-1,2.3,4,4,0,0,1-2.9.9,5.21,5.21,0,0,1-1.4-.2c-.2.1-.3.2-.5.3a.76.76,0,0,0-.2.5c0,.5.4.7,1.2.7H235a3.4,3.4,0,0,1,2.5.7A2.52,2.52,0,0,1,238.4,27.8Zm-2.2.3a.75.75,0,0,0-.4-.7,1.92,1.92,0,0,0-1.2-.3h-3.2a1.23,1.23,0,0,0-.5,1,1,1,0,0,0,.4.8,2.81,2.81,0,0,0,1.5.3H234a3,3,0,0,0,1.6-.3A.76.76,0,0,0,236.2,28.1Zm-2.8-5.9c1.1,0,1.7-.5,1.7-1.4v-.3c0-1-.6-1.4-1.7-1.4s-1.7.5-1.7,1.4v.3C231.7,21.7,232.3,22.2,233.4,22.2Z" transform="translate(-10 -13.6)" fill="#474e95"/><path d="M95,127H10v35H95Z" transform="translate(-10 -13.6)" fill="#747474"/><path d="M31.5,146.3,30.3,144h0v8h-2V140.8h2.3l3.4,5.7,1.2,2.3h0v-8h2V152H34.9Zm11.3,2a2.13,2.13,0,0,0-1.2.3.81.81,0,0,0-.4.8v.3a1.14,1.14,0,0,0,.3.8,1.33,1.33,0,0,0,1,.3,2.66,2.66,0,0,0,1.2-.3,1.05,1.05,0,0,0,.5-.9v-1.2H42.8Zm6.8-1.2V147a2.12,2.12,0,0,0-.4-1.4,1.35,1.35,0,0,0-1.2-.5,1.9,1.9,0,0,0-1.3.5,2.17,2.17,0,0,0-.5,1.4v.1Zm-1.4,3.4a2.77,2.77,0,0,0,1.3-.3,6.47,6.47,0,0,0,.9-.8l1.1,1.2a2.59,2.59,0,0,1-1.4,1.1,4.48,4.48,0,0,1-2,.4A3.75,3.75,0,0,1,47,152a1.88,1.88,0,0,1-.9-.4,4.23,4.23,0,0,1-.7-.5,2.09,2.09,0,0,1-.4-.6h-.1a2.09,2.09,0,0,1-.4.6,1,1,0,0,1-.6.5,1.88,1.88,0,0,1-.9.4,3.73,3.73,0,0,1-1.2.2,2.72,2.72,0,0,1-2-.7,2.41,2.41,0,0,1-.7-1.8,2.66,2.66,0,0,1,.3-1.2,2.7,2.7,0,0,1,.7-.8,3.7,3.7,0,0,1,1.1-.5,6.05,6.05,0,0,1,1.5-.2h1.4v-.5a1.37,1.37,0,0,0-.4-1.1,1.46,1.46,0,0,0-1.2-.4,2.13,2.13,0,0,0-1.2.3,2.7,2.7,0,0,0-.7.8L39.4,145a3.45,3.45,0,0,1,1.2-1.2,4,4,0,0,1,2-.4,2.24,2.24,0,0,1,1.5.4,2.84,2.84,0,0,1,.9,1h.1a3.18,3.18,0,0,1,1-1,3.29,3.29,0,0,1,1.7-.4,4.31,4.31,0,0,1,1.7.3,2.73,2.73,0,0,1,1.2.9,5.39,5.39,0,0,1,.7,1.3,7.77,7.77,0,0,1,.2,1.6v.7H46v.2a2,2,0,0,0,.5,1.4A2.34,2.34,0,0,0,48.2,150.5Zm8,1.7a4,4,0,0,1-2-.4,7.55,7.55,0,0,1-1.4-1.1l1.2-1.2a2.54,2.54,0,0,0,1,.8,2.77,2.77,0,0,0,1.3.3,1.8,1.8,0,0,0,1.1-.3.91.91,0,0,0,.3-.7,1.42,1.42,0,0,0-.2-.6,1.21,1.21,0,0,0-.8-.3l-.8-.1a4,4,0,0,1-2.1-.8,2.14,2.14,0,0,1-.7-1.8,3.59,3.59,0,0,1,.2-1.1,2.41,2.41,0,0,1,.6-.8,3.13,3.13,0,0,1,1-.5,5.07,5.07,0,0,1,1.3-.2,3.75,3.75,0,0,1,1.1.1,3.18,3.18,0,0,1,.9.3,1.61,1.61,0,0,1,.7.4c.2.2.4.3.6.5l-1.2,1.2a1.46,1.46,0,0,0-.9-.6,2,2,0,0,0-1.1-.3,2.51,2.51,0,0,0-1,.2.86.86,0,0,0-.3.6.85.85,0,0,0,.2.6,6.89,6.89,0,0,0,.8.3l1,.3c1.8.3,2.7,1.1,2.7,2.5a2,2,0,0,1-.3,1.1,5.5,5.5,0,0,1-.7.9,10.91,10.91,0,0,1-1.1.6C57.2,152.1,56.8,152.2,56.2,152.2ZM64,152a2.54,2.54,0,0,1-1.6-.5,2.07,2.07,0,0,1-.5-1.6v-4.6H60.7v-1.6h.6a.85.85,0,0,0,.6-.2,1.17,1.17,0,0,0,.2-.7v-1.4h1.8v2.3h1.7v1.6H63.9v5.1h1.6V152Zm6.7.2a4.67,4.67,0,0,1-1.7-.3,2.73,2.73,0,0,1-1.2-.9,4.68,4.68,0,0,1-.8-1.4,5.23,5.23,0,0,1-.3-1.8A4.84,4.84,0,0,1,67,146a3.92,3.92,0,0,1,.8-1.4,2.73,2.73,0,0,1,1.2-.9,4.15,4.15,0,0,1,1.6-.3,4.31,4.31,0,0,1,1.7.3,2.73,2.73,0,0,1,1.2.9,5.39,5.39,0,0,1,.7,1.3,4.14,4.14,0,0,1,.2,1.6v.7H68.8v.2a2.46,2.46,0,0,0,.5,1.5,1.72,1.72,0,0,0,1.5.5,2.13,2.13,0,0,0,1.2-.3,6.47,6.47,0,0,0,.9-.8l1.1,1.2a2.59,2.59,0,0,1-1.4,1.1A2.56,2.56,0,0,1,70.7,152.2Zm-.1-7.2a1.9,1.9,0,0,0-1.3.5,2.17,2.17,0,0,0-.5,1.4v.1h3.4v-.1a2.12,2.12,0,0,0-.4-1.4A1.36,1.36,0,0,0,70.6,145Z" transform="translate(-10 -13.6)" fill="#f5f5f5"/><text transform="translate(0.5 48.98)" font-size="18" fill="#474e95" font-family="IBMPlexSans, IBM Plex Sans, Arial" style="isolation:isolate"><tspan letter-spacing="-0.01em">B</tspan><tspan x="11.57" y="0">y</tspan></text><rect id="Rectangle-Copy" x="0.5" y="61.8" width="239" height="35" fill="#c8cadf" stroke="#474e95"/></svg>
