<svg width="360" height="360" viewBox="0 0 360 360" fill="none" xmlns="http://www.w3.org/2000/svg">
<path d="M15.382 27.216C14.302 27.216 13.384 27.024 12.628 26.64C11.884 26.256 11.242 25.752 10.702 25.128L12.304 23.58C12.736 24.084 13.216 24.468 13.744 24.732C14.284 24.996 14.878 25.128 15.526 25.128C16.258 25.128 16.81 24.972 17.182 24.66C17.554 24.336 17.74 23.904 17.74 23.364C17.74 22.944 17.62 22.602 17.38 22.338C17.14 22.074 16.69 21.882 16.03 21.762L14.842 21.582C12.334 21.186 11.08 19.968 11.08 17.928C11.08 17.364 11.182 16.854 11.386 16.398C11.602 15.942 11.908 15.552 12.304 15.228C12.7 14.904 13.174 14.658 13.726 14.49C14.29 14.31 14.926 14.22 15.634 14.22C16.582 14.22 17.41 14.376 18.118 14.688C18.826 15 19.432 15.462 19.936 16.074L18.316 17.604C18.004 17.22 17.626 16.908 17.182 16.668C16.738 16.428 16.18 16.308 15.508 16.308C14.824 16.308 14.308 16.44 13.96 16.704C13.624 16.956 13.456 17.316 13.456 17.784C13.456 18.264 13.594 18.618 13.87 18.846C14.146 19.074 14.59 19.242 15.202 19.35L16.372 19.566C17.644 19.794 18.58 20.202 19.18 20.79C19.792 21.366 20.098 22.176 20.098 23.22C20.098 23.82 19.99 24.366 19.774 24.858C19.57 25.338 19.264 25.758 18.856 26.118C18.46 26.466 17.968 26.736 17.38 26.928C16.804 27.12 16.138 27.216 15.382 27.216ZM22.3359 13.68H24.6399V21.708H24.7299L25.9719 20.016L28.0779 17.604H30.6879L27.4479 21.24L31.0299 27H28.2939L25.8819 22.788L24.6399 24.138V27H22.3359V13.68ZM32.4433 27V17.604H34.7473V19.548H34.8373C34.8973 19.296 34.9873 19.056 35.1073 18.828C35.2393 18.588 35.4073 18.378 35.6113 18.198C35.8153 18.018 36.0553 17.874 36.3313 17.766C36.6193 17.658 36.9493 17.604 37.3213 17.604H37.8253V19.782H37.1053C36.3253 19.782 35.7373 19.896 35.3413 20.124C34.9453 20.352 34.7473 20.724 34.7473 21.24V27H32.4433ZM40.6617 16.236C40.1817 16.236 39.8337 16.128 39.6177 15.912C39.4137 15.696 39.3117 15.42 39.3117 15.084V14.724C39.3117 14.388 39.4137 14.112 39.6177 13.896C39.8337 13.68 40.1817 13.572 40.6617 13.572C41.1297 13.572 41.4717 13.68 41.6877 13.896C41.9037 14.112 42.0117 14.388 42.0117 14.724V15.084C42.0117 15.42 41.9037 15.696 41.6877 15.912C41.4717 16.128 41.1297 16.236 40.6617 16.236ZM39.5097 17.604H41.8137V27H39.5097V17.604ZM46.5003 27L43.3683 17.604H45.6363L46.9503 21.654L47.8683 25.002H47.9943L48.9123 21.654L50.1903 17.604H52.3863L49.2363 27H46.5003ZM64.0097 25.434H63.9197C63.7517 25.974 63.4337 26.406 62.9657 26.73C62.4977 27.054 61.9517 27.216 61.3277 27.216C60.1397 27.216 59.2277 26.79 58.5917 25.938C57.9677 25.086 57.6557 23.868 57.6557 22.284C57.6557 20.712 57.9677 19.506 58.5917 18.666C59.2277 17.814 60.1397 17.388 61.3277 17.388C61.9517 17.388 62.4977 17.55 62.9657 17.874C63.4337 18.186 63.7517 18.612 63.9197 19.152H64.0097V13.68H66.3137V27H64.0097V25.434ZM62.0657 25.308C62.6177 25.308 63.0797 25.176 63.4517 24.912C63.8237 24.648 64.0097 24.27 64.0097 23.778V20.79C64.0097 20.334 63.8237 19.968 63.4517 19.692C63.0797 19.416 62.6177 19.278 62.0657 19.278C61.4657 19.278 60.9797 19.482 60.6077 19.89C60.2477 20.286 60.0677 20.82 60.0677 21.492V23.112C60.0677 23.784 60.2477 24.318 60.6077 24.714C60.9797 25.11 61.4657 25.308 62.0657 25.308ZM70.1227 16.236C69.6427 16.236 69.2947 16.128 69.0787 15.912C68.8747 15.696 68.7727 15.42 68.7727 15.084V14.724C68.7727 14.388 68.8747 14.112 69.0787 13.896C69.2947 13.68 69.6427 13.572 70.1227 13.572C70.5907 13.572 70.9327 13.68 71.1487 13.896C71.3647 14.112 71.4727 14.388 71.4727 14.724V15.084C71.4727 15.42 71.3647 15.696 71.1487 15.912C70.9327 16.128 70.5907 16.236 70.1227 16.236ZM68.9707 17.604H71.2747V27H68.9707V17.604ZM76.8793 27C76.0873 27 75.4813 26.796 75.0613 26.388C74.6533 25.968 74.4493 25.374 74.4493 24.606V19.44H73.0633V17.604H73.7833C74.1313 17.604 74.3653 17.526 74.4853 17.37C74.6173 17.202 74.6833 16.956 74.6833 16.632V15.03H76.7533V17.604H78.6793V19.44H76.7533V25.164H78.5353V27H76.8793ZM84.9316 13.68H87.2356V19.152H87.3076C87.4756 18.612 87.7936 18.186 88.2616 17.874C88.7296 17.55 89.2756 17.388 89.8996 17.388C91.0996 17.388 92.0116 17.814 92.6356 18.666C93.2716 19.506 93.5896 20.712 93.5896 22.284C93.5896 23.868 93.2716 25.086 92.6356 25.938C92.0116 26.79 91.0996 27.216 89.8996 27.216C89.2756 27.216 88.7296 27.054 88.2616 26.73C87.8056 26.406 87.4876 25.974 87.3076 25.434H87.2356V27H84.9316V13.68ZM89.1616 25.308C89.7616 25.308 90.2476 25.11 90.6196 24.714C90.9916 24.318 91.1776 23.784 91.1776 23.112V21.492C91.1776 20.82 90.9916 20.286 90.6196 19.89C90.2476 19.482 89.7616 19.278 89.1616 19.278C88.6096 19.278 88.1476 19.416 87.7756 19.692C87.4156 19.968 87.2356 20.334 87.2356 20.79V23.778C87.2356 24.27 87.4156 24.648 87.7756 24.912C88.1476 25.176 88.6096 25.308 89.1616 25.308ZM102.637 27C102.133 27 101.731 26.856 101.431 26.568C101.143 26.268 100.963 25.872 100.891 25.38H100.783C100.627 25.992 100.309 26.454 99.8286 26.766C99.3486 27.066 98.7546 27.216 98.0466 27.216C97.0866 27.216 96.3486 26.964 95.8326 26.46C95.3166 25.956 95.0586 25.284 95.0586 24.444C95.0586 23.472 95.4066 22.752 96.1026 22.284C96.7986 21.804 97.7886 21.564 99.0726 21.564H100.675V20.88C100.675 20.352 100.537 19.944 100.261 19.656C99.9846 19.368 99.5406 19.224 98.9286 19.224C98.3886 19.224 97.9506 19.344 97.6146 19.584C97.2906 19.812 97.0146 20.088 96.7866 20.412L95.4186 19.188C95.7666 18.648 96.2286 18.216 96.8046 17.892C97.3806 17.556 98.1426 17.388 99.0906 17.388C100.363 17.388 101.329 17.676 101.989 18.252C102.649 18.828 102.979 19.656 102.979 20.736V25.164H103.915V27H102.637ZM98.8206 25.542C99.3366 25.542 99.7746 25.428 100.135 25.2C100.495 24.972 100.675 24.636 100.675 24.192V22.95H99.1986C97.9986 22.95 97.3986 23.334 97.3986 24.102V24.408C97.3986 24.792 97.5186 25.08 97.7586 25.272C98.0106 25.452 98.3646 25.542 98.8206 25.542ZM105.779 27V17.604H108.083V19.548H108.173C108.233 19.296 108.323 19.056 108.443 18.828C108.575 18.588 108.743 18.378 108.947 18.198C109.151 18.018 109.391 17.874 109.667 17.766C109.955 17.658 110.285 17.604 110.657 17.604H111.161V19.782H110.441C109.661 19.782 109.073 19.896 108.677 20.124C108.281 20.352 108.083 20.724 108.083 21.24V27H105.779ZM112.846 27V17.604H115.15V19.17H115.24C115.432 18.666 115.732 18.246 116.14 17.91C116.56 17.562 117.136 17.388 117.868 17.388C118.84 17.388 119.584 17.706 120.1 18.342C120.616 18.978 120.874 19.884 120.874 21.06V27H118.57V21.294C118.57 20.622 118.45 20.118 118.21 19.782C117.97 19.446 117.574 19.278 117.022 19.278C116.782 19.278 116.548 19.314 116.32 19.386C116.104 19.446 115.906 19.542 115.726 19.674C115.558 19.794 115.42 19.95 115.312 20.142C115.204 20.322 115.15 20.538 115.15 20.79V27H112.846ZM131.408 27.216C130.736 27.216 130.13 27.102 129.59 26.874C129.062 26.646 128.606 26.316 128.222 25.884C127.85 25.452 127.562 24.936 127.358 24.336C127.154 23.724 127.052 23.04 127.052 22.284C127.052 21.528 127.154 20.85 127.358 20.25C127.562 19.65 127.85 19.14 128.222 18.72C128.606 18.288 129.062 17.958 129.59 17.73C130.13 17.502 130.736 17.388 131.408 17.388C132.08 17.388 132.686 17.502 133.226 17.73C133.766 17.958 134.222 18.288 134.594 18.72C134.978 19.14 135.272 19.65 135.476 20.25C135.68 20.85 135.782 21.528 135.782 22.284C135.782 23.04 135.68 23.724 135.476 24.336C135.272 24.936 134.978 25.452 134.594 25.884C134.222 26.316 133.766 26.646 133.226 26.874C132.686 27.102 132.08 27.216 131.408 27.216ZM131.408 25.362C132.02 25.362 132.5 25.176 132.848 24.804C133.196 24.432 133.37 23.886 133.37 23.166V21.42C133.37 20.712 133.196 20.172 132.848 19.8C132.5 19.428 132.02 19.242 131.408 19.242C130.808 19.242 130.334 19.428 129.986 19.8C129.638 20.172 129.464 20.712 129.464 21.42V23.166C129.464 23.886 129.638 24.432 129.986 24.804C130.334 25.176 130.808 25.362 131.408 25.362ZM137.824 17.604H140.128V19.152H140.2C140.368 18.612 140.686 18.186 141.154 17.874C141.622 17.55 142.168 17.388 142.792 17.388C143.992 17.388 144.904 17.814 145.528 18.666C146.164 19.506 146.482 20.712 146.482 22.284C146.482 23.868 146.164 25.086 145.528 25.938C144.904 26.79 143.992 27.216 142.792 27.216C142.168 27.216 141.622 27.054 141.154 26.73C140.698 26.406 140.38 25.974 140.2 25.434H140.128V30.6H137.824V17.604ZM142.054 25.308C142.654 25.308 143.14 25.11 143.512 24.714C143.884 24.318 144.07 23.784 144.07 23.112V21.492C144.07 20.82 143.884 20.286 143.512 19.89C143.14 19.482 142.654 19.278 142.054 19.278C141.502 19.278 141.04 19.416 140.668 19.692C140.308 19.968 140.128 20.334 140.128 20.79V23.778C140.128 24.27 140.308 24.648 140.668 24.912C141.04 25.176 141.502 25.308 142.054 25.308ZM155.805 27C155.013 27 154.407 26.796 153.987 26.388C153.579 25.968 153.375 25.374 153.375 24.606V19.44H151.989V17.604H152.709C153.057 17.604 153.291 17.526 153.411 17.37C153.543 17.202 153.609 16.956 153.609 16.632V15.03H155.679V17.604H157.605V19.44H155.679V25.164H157.461V27H155.805ZM160.755 16.236C160.275 16.236 159.927 16.128 159.711 15.912C159.507 15.696 159.405 15.42 159.405 15.084V14.724C159.405 14.388 159.507 14.112 159.711 13.896C159.927 13.68 160.275 13.572 160.755 13.572C161.223 13.572 161.565 13.68 161.781 13.896C161.997 14.112 162.105 14.388 162.105 14.724V15.084C162.105 15.42 161.997 15.696 161.781 15.912C161.565 16.128 161.223 16.236 160.755 16.236ZM159.603 17.604H161.907V27H159.603V17.604ZM166.882 27C166.09 27 165.508 26.802 165.136 26.406C164.764 26.01 164.578 25.452 164.578 24.732V13.68H166.882V25.164H168.124V27H166.882ZM174.123 17.604H176.427V19.152H176.499C176.667 18.612 176.985 18.186 177.453 17.874C177.921 17.55 178.467 17.388 179.091 17.388C180.291 17.388 181.203 17.814 181.827 18.666C182.463 19.506 182.781 20.712 182.781 22.284C182.781 23.868 182.463 25.086 181.827 25.938C181.203 26.79 180.291 27.216 179.091 27.216C178.467 27.216 177.921 27.054 177.453 26.73C176.997 26.406 176.679 25.974 176.499 25.434H176.427V30.6H174.123V17.604ZM178.353 25.308C178.953 25.308 179.439 25.11 179.811 24.714C180.183 24.318 180.369 23.784 180.369 23.112V21.492C180.369 20.82 180.183 20.286 179.811 19.89C179.439 19.482 178.953 19.278 178.353 19.278C177.801 19.278 177.339 19.416 176.967 19.692C176.607 19.968 176.427 20.334 176.427 20.79V23.778C176.427 24.27 176.607 24.648 176.967 24.912C177.339 25.176 177.801 25.308 178.353 25.308ZM191.828 27C191.324 27 190.922 26.856 190.622 26.568C190.334 26.268 190.154 25.872 190.082 25.38H189.974C189.818 25.992 189.5 26.454 189.02 26.766C188.54 27.066 187.946 27.216 187.238 27.216C186.278 27.216 185.54 26.964 185.024 26.46C184.508 25.956 184.25 25.284 184.25 24.444C184.25 23.472 184.598 22.752 185.294 22.284C185.99 21.804 186.98 21.564 188.264 21.564H189.866V20.88C189.866 20.352 189.728 19.944 189.452 19.656C189.176 19.368 188.732 19.224 188.12 19.224C187.58 19.224 187.142 19.344 186.806 19.584C186.482 19.812 186.206 20.088 185.978 20.412L184.61 19.188C184.958 18.648 185.42 18.216 185.996 17.892C186.572 17.556 187.334 17.388 188.282 17.388C189.554 17.388 190.52 17.676 191.18 18.252C191.84 18.828 192.17 19.656 192.17 20.736V25.164H193.106V27H191.828ZM188.012 25.542C188.528 25.542 188.966 25.428 189.326 25.2C189.686 24.972 189.866 24.636 189.866 24.192V22.95H188.39C187.19 22.95 186.59 23.334 186.59 24.102V24.408C186.59 24.792 186.71 25.08 186.95 25.272C187.202 25.452 187.556 25.542 188.012 25.542ZM198.049 27.216C197.149 27.216 196.393 27.066 195.781 26.766C195.169 26.454 194.629 26.028 194.161 25.488L195.565 24.12C195.913 24.516 196.291 24.828 196.699 25.056C197.119 25.284 197.599 25.398 198.139 25.398C198.691 25.398 199.087 25.302 199.327 25.11C199.579 24.918 199.705 24.654 199.705 24.318C199.705 24.042 199.615 23.826 199.435 23.67C199.267 23.502 198.973 23.388 198.553 23.328L197.617 23.202C196.597 23.07 195.817 22.782 195.277 22.338C194.749 21.882 194.485 21.222 194.485 20.358C194.485 19.902 194.569 19.494 194.737 19.134C194.905 18.762 195.145 18.45 195.457 18.198C195.769 17.934 196.141 17.736 196.573 17.604C197.017 17.46 197.509 17.388 198.049 17.388C198.505 17.388 198.907 17.424 199.255 17.496C199.615 17.556 199.939 17.652 200.227 17.784C200.515 17.904 200.779 18.06 201.019 18.252C201.259 18.432 201.493 18.636 201.721 18.864L200.371 20.214C200.095 19.926 199.765 19.686 199.381 19.494C198.997 19.302 198.577 19.206 198.121 19.206C197.617 19.206 197.251 19.296 197.023 19.476C196.807 19.656 196.699 19.89 196.699 20.178C196.699 20.49 196.789 20.73 196.969 20.898C197.161 21.054 197.479 21.168 197.923 21.24L198.877 21.366C200.905 21.654 201.919 22.578 201.919 24.138C201.919 24.594 201.823 25.014 201.631 25.398C201.451 25.77 201.193 26.094 200.857 26.37C200.521 26.634 200.113 26.844 199.633 27C199.165 27.144 198.637 27.216 198.049 27.216ZM203.953 27V17.604H206.257V19.17H206.347C206.539 18.666 206.839 18.246 207.247 17.91C207.667 17.562 208.243 17.388 208.975 17.388C209.947 17.388 210.691 17.706 211.207 18.342C211.723 18.978 211.981 19.884 211.981 21.06V27H209.677V21.294C209.677 20.622 209.557 20.118 209.317 19.782C209.077 19.446 208.681 19.278 208.129 19.278C207.889 19.278 207.655 19.314 207.427 19.386C207.211 19.446 207.013 19.542 206.833 19.674C206.665 19.794 206.527 19.95 206.419 20.142C206.311 20.322 206.257 20.538 206.257 20.79V27H203.953ZM215.687 16.236C215.207 16.236 214.859 16.128 214.643 15.912C214.439 15.696 214.337 15.42 214.337 15.084V14.724C214.337 14.388 214.439 14.112 214.643 13.896C214.859 13.68 215.207 13.572 215.687 13.572C216.155 13.572 216.497 13.68 216.713 13.896C216.929 14.112 217.037 14.388 217.037 14.724V15.084C217.037 15.42 216.929 15.696 216.713 15.912C216.497 16.128 216.155 16.236 215.687 16.236ZM214.535 17.604H216.839V27H214.535V17.604ZM219.51 27V17.604H221.814V19.17H221.904C222.096 18.666 222.396 18.246 222.804 17.91C223.224 17.562 223.8 17.388 224.532 17.388C225.504 17.388 226.248 17.706 226.764 18.342C227.28 18.978 227.538 19.884 227.538 21.06V27H225.234V21.294C225.234 20.622 225.114 20.118 224.874 19.782C224.634 19.446 224.238 19.278 223.686 19.278C223.446 19.278 223.212 19.314 222.984 19.386C222.768 19.446 222.57 19.542 222.39 19.674C222.222 19.794 222.084 19.95 221.976 20.142C221.868 20.322 221.814 20.538 221.814 20.79V27H219.51ZM238.57 27.792C238.57 28.284 238.48 28.716 238.3 29.088C238.132 29.472 237.85 29.79 237.454 30.042C237.058 30.294 236.548 30.486 235.924 30.618C235.3 30.75 234.538 30.816 233.638 30.816C232.846 30.816 232.174 30.762 231.622 30.654C231.07 30.558 230.614 30.414 230.254 30.222C229.906 30.042 229.654 29.814 229.498 29.538C229.342 29.262 229.264 28.95 229.264 28.602C229.264 28.074 229.408 27.66 229.696 27.36C229.996 27.072 230.41 26.886 230.938 26.802V26.604C230.554 26.508 230.254 26.322 230.038 26.046C229.834 25.758 229.732 25.422 229.732 25.038C229.732 24.798 229.78 24.588 229.876 24.408C229.972 24.216 230.098 24.054 230.254 23.922C230.422 23.79 230.608 23.682 230.812 23.598C231.016 23.502 231.232 23.43 231.46 23.382V23.31C230.884 23.046 230.452 22.68 230.164 22.212C229.888 21.744 229.75 21.198 229.75 20.574C229.75 19.614 230.08 18.846 230.74 18.27C231.4 17.682 232.366 17.388 233.638 17.388C233.926 17.388 234.208 17.406 234.484 17.442C234.772 17.478 235.036 17.538 235.276 17.622V17.316C235.276 16.404 235.72 15.948 236.608 15.948H238.066V17.712H236.068V17.964C236.56 18.24 236.926 18.6 237.166 19.044C237.406 19.488 237.526 19.998 237.526 20.574C237.526 21.522 237.196 22.284 236.536 22.86C235.888 23.436 234.922 23.724 233.638 23.724C233.086 23.724 232.606 23.67 232.198 23.562C232.018 23.646 231.862 23.76 231.73 23.904C231.598 24.036 231.532 24.204 231.532 24.408C231.532 24.876 231.94 25.11 232.756 25.11H235.276C236.428 25.11 237.262 25.35 237.778 25.83C238.306 26.298 238.57 26.952 238.57 27.792ZM236.41 28.062C236.41 27.762 236.29 27.528 236.05 27.36C235.81 27.192 235.396 27.108 234.808 27.108H231.604C231.28 27.348 231.118 27.672 231.118 28.08C231.118 28.44 231.268 28.722 231.568 28.926C231.868 29.13 232.378 29.232 233.098 29.232H234.25C235.006 29.232 235.552 29.136 235.888 28.944C236.236 28.752 236.41 28.458 236.41 28.062ZM233.638 22.158C234.766 22.158 235.33 21.678 235.33 20.718V20.412C235.33 19.452 234.766 18.972 233.638 18.972C232.51 18.972 231.946 19.452 231.946 20.412V20.718C231.946 21.678 232.51 22.158 233.638 22.158Z" fill="#474E95"/>
<path d="M249.5 139H10.5V180H249.5V139Z" fill="#DCDCDC" stroke="#707070"/>
<path d="M131.5 116H10.5V135H131.5V116Z" fill="#BFBFBF" stroke="#707070"/>
<path d="M95 191H10V226H95V191Z" fill="#707070"/>
<path d="M31.512 210.272L30.36 207.952H30.312V216H28.312V204.832H30.632L33.992 210.56L35.144 212.88H35.192V204.832H37.192V216H34.872L31.512 210.272ZM42.772 212.336C42.26 212.347 41.8653 212.443 41.588 212.624C41.3107 212.795 41.172 213.051 41.172 213.392V213.648C41.172 213.989 41.2787 214.251 41.492 214.432C41.7053 214.613 42.0253 214.704 42.452 214.704C42.9 214.704 43.284 214.603 43.604 214.4C43.924 214.197 44.084 213.899 44.084 213.504V212.336H42.772ZM49.572 211.072V210.928C49.572 210.352 49.428 209.888 49.14 209.536C48.8627 209.173 48.4573 208.992 47.924 208.992C47.38 208.992 46.948 209.173 46.628 209.536C46.308 209.899 46.148 210.368 46.148 210.944V211.072H49.572ZM48.212 214.528C48.7133 214.528 49.1347 214.421 49.476 214.208C49.8173 213.995 50.1053 213.733 50.34 213.424L51.444 214.656C51.1027 215.136 50.6387 215.515 50.052 215.792C49.4653 216.059 48.7933 216.192 48.036 216.192C47.6307 216.192 47.252 216.144 46.9 216.048C46.548 215.952 46.2333 215.824 45.956 215.664C45.6893 215.504 45.46 215.323 45.268 215.12C45.076 214.917 44.932 214.704 44.836 214.48H44.74C44.6653 214.693 44.548 214.901 44.388 215.104C44.2387 215.307 44.0413 215.488 43.796 215.648C43.5507 215.808 43.2573 215.936 42.916 216.032C42.5853 216.139 42.196 216.192 41.748 216.192C40.9053 216.192 40.2493 215.963 39.78 215.504C39.3213 215.045 39.092 214.448 39.092 213.712C39.092 213.275 39.1773 212.891 39.348 212.56C39.5187 212.229 39.7587 211.957 40.068 211.744C40.3773 211.52 40.7507 211.355 41.188 211.248C41.6253 211.131 42.116 211.072 42.66 211.072H44.084V210.56C44.084 210.091 43.9613 209.728 43.716 209.472C43.4707 209.216 43.0813 209.088 42.548 209.088C42.0573 209.088 41.6627 209.189 41.364 209.392C41.076 209.595 40.8307 209.845 40.628 210.144L39.412 209.056C39.7213 208.576 40.132 208.192 40.644 207.904C41.156 207.605 41.8333 207.456 42.676 207.456C43.316 207.456 43.828 207.589 44.212 207.856C44.596 208.112 44.8947 208.437 45.108 208.832H45.204C45.4173 208.437 45.764 208.112 46.244 207.856C46.724 207.589 47.3 207.456 47.972 207.456C48.6227 207.456 49.1827 207.568 49.652 207.792C50.1213 208.016 50.5053 208.32 50.804 208.704C51.1133 209.088 51.3373 209.536 51.476 210.048C51.6253 210.549 51.7 211.088 51.7 211.664V212.336H46.132V212.544C46.132 213.141 46.3133 213.621 46.676 213.984C47.0387 214.347 47.5507 214.528 48.212 214.528ZM56.2481 216.192C55.4481 216.192 54.7761 216.059 54.2321 215.792C53.6881 215.515 53.2081 215.136 52.7921 214.656L54.0401 213.44C54.3495 213.792 54.6855 214.069 55.0481 214.272C55.4215 214.475 55.8481 214.576 56.3281 214.576C56.8188 214.576 57.1708 214.491 57.3841 214.32C57.6081 214.149 57.7201 213.915 57.7201 213.616C57.7201 213.371 57.6401 213.179 57.4801 213.04C57.3308 212.891 57.0695 212.789 56.6961 212.736L55.8641 212.624C54.9575 212.507 54.2641 212.251 53.7841 211.856C53.3148 211.451 53.0801 210.864 53.0801 210.096C53.0801 209.691 53.1548 209.328 53.3041 209.008C53.4535 208.677 53.6668 208.4 53.9441 208.176C54.2215 207.941 54.5521 207.765 54.9361 207.648C55.3308 207.52 55.7681 207.456 56.2481 207.456C56.6535 207.456 57.0108 207.488 57.3201 207.552C57.6401 207.605 57.9281 207.691 58.1841 207.808C58.4401 207.915 58.6748 208.053 58.8881 208.224C59.1015 208.384 59.3095 208.565 59.5121 208.768L58.3121 209.968C58.0668 209.712 57.7735 209.499 57.4321 209.328C57.0908 209.157 56.7175 209.072 56.3121 209.072C55.8641 209.072 55.5388 209.152 55.3361 209.312C55.1441 209.472 55.0481 209.68 55.0481 209.936C55.0481 210.213 55.1281 210.427 55.2881 210.576C55.4588 210.715 55.7415 210.816 56.1361 210.88L56.9841 210.992C58.7868 211.248 59.6881 212.069 59.6881 213.456C59.6881 213.861 59.6028 214.235 59.4321 214.576C59.2721 214.907 59.0428 215.195 58.7441 215.44C58.4455 215.675 58.0828 215.861 57.6561 216C57.2401 216.128 56.7708 216.192 56.2481 216.192ZM63.9795 216C63.2755 216 62.7368 215.819 62.3635 215.456C62.0008 215.083 61.8195 214.555 61.8195 213.872V209.28H60.5875V207.648H61.2275C61.5368 207.648 61.7448 207.579 61.8515 207.44C61.9688 207.291 62.0275 207.072 62.0275 206.784V205.36H63.8675V207.648H65.5795V209.28H63.8675V214.368H65.4515V216H63.9795ZM70.6694 216.192C70.0507 216.192 69.496 216.091 69.0054 215.888C68.5254 215.675 68.1147 215.381 67.7734 215.008C67.4427 214.624 67.1867 214.165 67.0054 213.632C66.824 213.088 66.7334 212.48 66.7334 211.808C66.7334 211.147 66.8187 210.549 66.9894 210.016C67.1707 209.483 67.4267 209.029 67.7574 208.656C68.088 208.272 68.4934 207.979 68.9734 207.776C69.4534 207.563 69.9974 207.456 70.6054 207.456C71.256 207.456 71.8214 207.568 72.3014 207.792C72.7814 208.016 73.176 208.32 73.4854 208.704C73.7947 209.088 74.024 209.536 74.1734 210.048C74.3334 210.549 74.4134 211.088 74.4134 211.664V212.336H68.8614V212.544C68.8614 213.152 69.032 213.643 69.3734 214.016C69.7147 214.379 70.2214 214.56 70.8934 214.56C71.4054 214.56 71.8214 214.453 72.1414 214.24C72.472 214.027 72.7654 213.755 73.0214 213.424L74.1254 214.656C73.784 215.136 73.3147 215.515 72.7174 215.792C72.1307 216.059 71.448 216.192 70.6694 216.192ZM70.6374 208.992C70.0934 208.992 69.6614 209.173 69.3414 209.536C69.0214 209.899 68.8614 210.368 68.8614 210.944V211.072H72.2854V210.928C72.2854 210.352 72.1414 209.888 71.8534 209.536C71.576 209.173 71.1707 208.992 70.6374 208.992Z" fill="#F5F5F5"/>
<path fill-rule="evenodd" clip-rule="evenodd" d="M11 43H122V94H11V43Z" fill="#C8CADF" stroke="#474E95"/>
<path fill-rule="evenodd" clip-rule="evenodd" d="M110.5 75.6182L116.309 64.0001H104.691L110.5 75.6182Z" fill="#454A99" stroke="#44479B"/>
<path d="M23.404 64.268V75.5H21.892V64.268H17.896V62.936H27.4V64.268H23.404ZM28.5222 75.5V66.212H29.9622V67.922H30.0522C30.2202 67.478 30.5202 67.082 30.9522 66.734C31.3842 66.386 31.9782 66.212 32.7342 66.212H33.2922V67.652H32.4462C31.6662 67.652 31.0542 67.802 30.6102 68.102C30.1782 68.39 29.9622 68.756 29.9622 69.2V75.5H28.5222ZM35.8516 64.034C35.5396 64.034 35.3116 63.962 35.1676 63.818C35.0356 63.662 34.9696 63.464 34.9696 63.224V62.99C34.9696 62.75 35.0356 62.558 35.1676 62.414C35.3116 62.258 35.5396 62.18 35.8516 62.18C36.1636 62.18 36.3856 62.258 36.5176 62.414C36.6616 62.558 36.7336 62.75 36.7336 62.99V63.224C36.7336 63.464 36.6616 63.662 36.5176 63.818C36.3856 63.962 36.1636 64.034 35.8516 64.034ZM35.1316 66.212H36.5716V75.5H35.1316V66.212ZM39.6316 75.5V66.212H41.0716V67.724H41.1436C41.3716 67.196 41.6896 66.776 42.0976 66.464C42.5176 66.152 43.0756 65.996 43.7716 65.996C44.7316 65.996 45.4876 66.308 46.0396 66.932C46.6036 67.544 46.8856 68.414 46.8856 69.542V75.5H45.4456V69.794C45.4456 68.126 44.7436 67.292 43.3396 67.292C43.0516 67.292 42.7696 67.328 42.4936 67.4C42.2296 67.472 41.9896 67.58 41.7736 67.724C41.5576 67.868 41.3836 68.054 41.2516 68.282C41.1316 68.498 41.0716 68.756 41.0716 69.056V75.5H39.6316ZM57.2839 68.264C58.1359 68.264 58.7719 68.072 59.1919 67.688C59.6239 67.292 59.8399 66.788 59.8399 66.176V66.05C59.8399 65.39 59.6299 64.898 59.2099 64.574C58.8019 64.238 58.2619 64.07 57.5899 64.07C56.9419 64.07 56.4139 64.214 56.0059 64.502C55.5979 64.778 55.2619 65.156 54.9979 65.636L53.8819 64.772C54.0379 64.52 54.2239 64.274 54.4399 64.034C54.6679 63.782 54.9319 63.56 55.2319 63.368C55.5319 63.176 55.8799 63.02 56.2759 62.9C56.6719 62.78 57.1219 62.72 57.6259 62.72C58.1539 62.72 58.6519 62.792 59.1199 62.936C59.5879 63.068 59.9899 63.272 60.3259 63.548C60.6739 63.812 60.9439 64.142 61.1359 64.538C61.3399 64.934 61.4419 65.384 61.4419 65.888C61.4419 66.296 61.3759 66.662 61.2439 66.986C61.1239 67.31 60.9559 67.592 60.7399 67.832C60.5239 68.072 60.2659 68.276 59.9659 68.444C59.6779 68.612 59.3659 68.738 59.0299 68.822V68.894C59.3659 68.966 59.6899 69.086 60.0019 69.254C60.3259 69.41 60.6079 69.62 60.8479 69.884C61.0999 70.136 61.2979 70.448 61.4419 70.82C61.5979 71.18 61.6759 71.594 61.6759 72.062C61.6759 72.602 61.5739 73.1 61.3699 73.556C61.1659 74 60.8779 74.384 60.5059 74.708C60.1339 75.02 59.6839 75.266 59.1559 75.446C58.6279 75.626 58.0459 75.716 57.4099 75.716C56.8699 75.716 56.3899 75.656 55.9699 75.536C55.5499 75.416 55.1779 75.254 54.8539 75.05C54.5299 74.846 54.2419 74.618 53.9899 74.366C53.7499 74.114 53.5339 73.85 53.3419 73.574L54.4759 72.71C54.6319 72.962 54.7999 73.19 54.9799 73.394C55.1719 73.598 55.3819 73.772 55.6099 73.916C55.8379 74.06 56.0959 74.174 56.3839 74.258C56.6719 74.33 57.0079 74.366 57.3919 74.366C58.2799 74.366 58.9519 74.168 59.4079 73.772C59.8639 73.364 60.0919 72.788 60.0919 72.044V71.9C60.0919 71.156 59.8639 70.586 59.4079 70.19C58.9519 69.782 58.2799 69.578 57.3919 69.578H55.9159V68.264H57.2839ZM75.9128 75.5C75.3728 75.5 74.9828 75.356 74.7428 75.068C74.5148 74.78 74.3708 74.42 74.3108 73.988H74.2208C74.0168 74.564 73.6808 74.996 73.2128 75.284C72.7448 75.572 72.1868 75.716 71.5388 75.716C70.5548 75.716 69.7868 75.464 69.2348 74.96C68.6948 74.456 68.4248 73.772 68.4248 72.908C68.4248 72.032 68.7428 71.36 69.3788 70.892C70.0268 70.424 71.0288 70.19 72.3848 70.19H74.2208V69.272C74.2208 68.612 74.0408 68.108 73.6808 67.76C73.3208 67.412 72.7688 67.238 72.0248 67.238C71.4608 67.238 70.9868 67.364 70.6028 67.616C70.2308 67.868 69.9188 68.204 69.6668 68.624L68.8028 67.814C69.0548 67.31 69.4568 66.884 70.0088 66.536C70.5608 66.176 71.2568 65.996 72.0968 65.996C73.2248 65.996 74.1008 66.272 74.7248 66.824C75.3488 67.376 75.6608 68.144 75.6608 69.128V74.24H76.7228V75.5H75.9128ZM71.7728 74.492C72.1328 74.492 72.4628 74.45 72.7628 74.366C73.0628 74.282 73.3208 74.162 73.5368 74.006C73.7528 73.85 73.9208 73.67 74.0408 73.466C74.1608 73.262 74.2208 73.04 74.2208 72.8V71.27H72.3128C71.4848 71.27 70.8788 71.39 70.4948 71.63C70.1228 71.87 69.9368 72.218 69.9368 72.674V73.052C69.9368 73.508 70.0988 73.862 70.4228 74.114C70.7588 74.366 71.2088 74.492 71.7728 74.492ZM79.282 67.472H77.77V66.212H79.282V64.34C79.282 63.692 79.45 63.17 79.786 62.774C80.122 62.378 80.632 62.18 81.316 62.18H82.72V63.44H80.722V66.212H82.72V67.472H80.722V75.5H79.282V67.472ZM96.3019 64.268H90.7939L90.4339 69.056H90.5599C90.8599 68.636 91.1959 68.3 91.5679 68.048C91.9519 67.796 92.4739 67.67 93.1339 67.67C93.6739 67.67 94.1719 67.76 94.6279 67.94C95.0839 68.12 95.4799 68.378 95.8159 68.714C96.1519 69.038 96.4099 69.44 96.5899 69.92C96.7819 70.4 96.8779 70.946 96.8779 71.558C96.8779 72.17 96.7819 72.734 96.5899 73.25C96.3979 73.754 96.1159 74.192 95.7439 74.564C95.3839 74.924 94.9399 75.206 94.4119 75.41C93.8959 75.614 93.3079 75.716 92.6479 75.716C92.1199 75.716 91.6519 75.656 91.2439 75.536C90.8479 75.416 90.4939 75.254 90.1819 75.05C89.8699 74.846 89.5939 74.618 89.3539 74.366C89.1259 74.114 88.9159 73.85 88.7239 73.574L89.8579 72.71C90.0139 72.962 90.1759 73.19 90.3439 73.394C90.5239 73.598 90.7159 73.772 90.9199 73.916C91.1359 74.06 91.3819 74.174 91.6579 74.258C91.9339 74.33 92.2639 74.366 92.6479 74.366C93.5119 74.366 94.1659 74.138 94.6099 73.682C95.0539 73.226 95.2759 72.584 95.2759 71.756V71.576C95.2759 70.748 95.0539 70.106 94.6099 69.65C94.1659 69.194 93.5119 68.966 92.6479 68.966C92.0719 68.966 91.6159 69.074 91.2799 69.29C90.9559 69.494 90.6619 69.74 90.3979 70.028L89.1199 69.848L89.5699 62.936H96.3019V64.268Z" fill="#474E95"/>
</svg>
