<svg width="343" height="282" viewBox="0 0 343 282" fill="none" xmlns="http://www.w3.org/2000/svg">
<path d="M342 86H1V107H342V86Z" fill="#BFBFBF" stroke="#707070"/>
<path d="M342 144H1V165H342V144Z" fill="#BFBFBF" stroke="#707070"/>
<path d="M342 202H1V223H342V202Z" fill="#BFBFBF" stroke="#707070"/>
<path d="M342 260H1V281H342V260Z" fill="#BFBFBF" stroke="#707070"/>
<path d="M342 115H1V136H342V115Z" fill="#BFBFBF" stroke="#707070"/>
<path d="M342 173H1V194H342V173Z" fill="#BFBFBF" stroke="#707070"/>
<path d="M342 231H1V252H342V231Z" fill="#BFBFBF" stroke="#707070"/>
<path d="M321.5 26.5H0.5V47.5H321.5V26.5Z" fill="#BFBFBF" stroke="#707070"/>
<path d="M251.5 56.5H0.5V77.5H251.5V56.5Z" fill="#BFBFBF" stroke="#707070"/>
<path d="M314.984 13V4.624H318.752C319.136 4.624 319.48 4.688 319.784 4.816C320.096 4.936 320.36 5.112 320.576 5.344C320.792 5.568 320.956 5.84 321.068 6.16C321.18 6.48 321.236 6.832 321.236 7.216C321.236 7.608 321.18 7.964 321.068 8.284C320.956 8.596 320.792 8.868 320.576 9.1C320.36 9.324 320.096 9.5 319.784 9.628C319.48 9.748 319.136 9.808 318.752 9.808H316.568V13H314.984ZM316.568 8.44H318.608C318.912 8.44 319.152 8.36 319.328 8.2C319.504 8.032 319.592 7.796 319.592 7.492V6.94C319.592 6.636 319.504 6.404 319.328 6.244C319.152 6.084 318.912 6.004 318.608 6.004H316.568V8.44ZM322.458 13V6.736H323.994V8.032H324.054C324.094 7.864 324.154 7.704 324.234 7.552C324.322 7.392 324.434 7.252 324.57 7.132C324.706 7.012 324.866 6.916 325.05 6.844C325.242 6.772 325.462 6.736 325.71 6.736H326.046V8.188H325.566C325.046 8.188 324.654 8.264 324.39 8.416C324.126 8.568 323.994 8.816 323.994 9.16V13H322.458ZM327.937 5.824C327.617 5.824 327.385 5.752 327.241 5.608C327.105 5.464 327.037 5.28 327.037 5.056V4.816C327.037 4.592 327.105 4.408 327.241 4.264C327.385 4.12 327.617 4.048 327.937 4.048C328.249 4.048 328.477 4.12 328.621 4.264C328.765 4.408 328.837 4.592 328.837 4.816V5.056C328.837 5.28 328.765 5.464 328.621 5.608C328.477 5.752 328.249 5.824 327.937 5.824ZM327.169 6.736H328.705V13H327.169V6.736ZM330.486 13V6.736H332.022V7.78H332.082C332.21 7.444 332.41 7.164 332.682 6.94C332.962 6.708 333.346 6.592 333.834 6.592C334.482 6.592 334.978 6.804 335.322 7.228C335.666 7.652 335.838 8.256 335.838 9.04V13H334.302V9.196C334.302 8.748 334.222 8.412 334.062 8.188C333.902 7.964 333.638 7.852 333.27 7.852C333.11 7.852 332.954 7.876 332.802 7.924C332.658 7.964 332.526 8.028 332.406 8.116C332.294 8.196 332.202 8.3 332.13 8.428C332.058 8.548 332.022 8.692 332.022 8.86V13H330.486ZM339.496 13C338.968 13 338.564 12.864 338.284 12.592C338.012 12.312 337.876 11.916 337.876 11.404V7.96H336.952V6.736H337.432C337.664 6.736 337.82 6.684 337.9 6.58C337.988 6.468 338.032 6.304 338.032 6.088V5.02H339.412V6.736H340.696V7.96H339.412V11.776H340.6V13H339.496Z" fill="#474E95"/>
<path d="M304.667 5.33333H304V2H296V5.33333H295.333C294.227 5.33333 293.333 6.22667 293.333 7.33333V11.3333H296V14H304V11.3333H306.667V7.33333C306.667 6.22667 305.773 5.33333 304.667 5.33333ZM297.333 3.33333H302.667V5.33333H297.333V3.33333ZM302.667 12.6667H297.333V10H302.667V12.6667ZM304 10V8.66667H296V10H294.667V7.33333C294.667 6.96667 294.967 6.66667 295.333 6.66667H304.667C305.033 6.66667 305.333 6.96667 305.333 7.33333V10H304Z" fill="#474E95"/>
<path d="M304 8.33333C304.368 8.33333 304.667 8.03486 304.667 7.66667C304.667 7.29848 304.368 7 304 7C303.632 7 303.333 7.29848 303.333 7.66667C303.333 8.03486 303.632 8.33333 304 8.33333Z" fill="#474E95"/>
</svg>
