<svg width="360" height="287.43" viewBox="0 0 360 287.43" fill="none" xmlns="http://www.w3.org/2000/svg">
    <path d="M25.38,47.22a6,6,0,0,1-2.75-.58,6.35,6.35,0,0,1-1.93-1.51l1.6-1.55a4.81,4.81,0,0,0,1.44,1.15,4,4,0,0,0,1.79.4,2.52,2.52,0,0,0,1.65-.47,1.64,1.64,0,0,0,.56-1.3,1.44,1.44,0,0,0-.36-1A2.36,2.36,0,0,0,26,41.76l-1.19-.18q-3.77-.59-3.76-3.65a3.58,3.58,0,0,1,.31-1.53,3.25,3.25,0,0,1,.91-1.17,4,4,0,0,1,1.43-.74,6.83,6.83,0,0,1,4.39.2,4.9,4.9,0,0,1,1.82,1.38L28.32,37.6a3.82,3.82,0,0,0-1.14-.93,3.47,3.47,0,0,0-1.67-.36A2.57,2.57,0,0,0,24,36.7a1.28,1.28,0,0,0-.5,1.08,1.3,1.3,0,0,0,.41,1.07,3.05,3.05,0,0,0,1.33.5l1.17.22a5.21,5.21,0,0,1,2.81,1.22,3.2,3.2,0,0,1,.92,2.43,4,4,0,0,1-.33,1.64,3.51,3.51,0,0,1-.91,1.26,4.13,4.13,0,0,1-1.48.81A6.39,6.39,0,0,1,25.38,47.22Zm7-13.54h2.3v8h.09L36,40l2.11-2.42h2.61l-3.24,3.64L41,47H38.29l-2.41-4.21-1.24,1.35V47h-2.3ZM42.44,47V37.6h2.31v1.95h.09a3.13,3.13,0,0,1,.27-.72,2.28,2.28,0,0,1,1.22-1.06,2.78,2.78,0,0,1,1-.17h.51v2.18h-.72a3.75,3.75,0,0,0-1.77.34,1.2,1.2,0,0,0-.59,1.12V47Zm8.22-10.76a1.4,1.4,0,0,1-1-.33,1.12,1.12,0,0,1-.31-.83v-.36a1.12,1.12,0,0,1,.31-.82,1.79,1.79,0,0,1,2.07,0,1.12,1.12,0,0,1,.32.82v.36a1.13,1.13,0,0,1-.32.83A1.4,1.4,0,0,1,50.66,36.24ZM49.51,37.6h2.3V47h-2.3Zm7,9.4-3.13-9.4h2.27l1.31,4L57.87,45H58l.92-3.35,1.28-4h2.2L59.24,47ZM74,45.43h-.09a2.44,2.44,0,0,1-1,1.3,2.86,2.86,0,0,1-1.64.49,3.22,3.22,0,0,1-2.74-1.28,6.14,6.14,0,0,1-.93-3.66,6,6,0,0,1,.93-3.61,3.2,3.2,0,0,1,2.74-1.28,2.85,2.85,0,0,1,1.64.48,2.4,2.4,0,0,1,1,1.28H74V33.68h2.3V47H74Zm-1.94-.12a2.28,2.28,0,0,0,1.38-.4A1.3,1.3,0,0,0,74,43.78v-3a1.31,1.31,0,0,0-.56-1.1,2.28,2.28,0,0,0-1.38-.41,1.87,1.87,0,0,0-1.46.61,2.3,2.3,0,0,0-.54,1.6v1.62a2.28,2.28,0,0,0,.54,1.6A1.9,1.9,0,0,0,72.07,45.31Zm8.05-9.07a1.4,1.4,0,0,1-1-.33,1.12,1.12,0,0,1-.31-.83v-.36a1.12,1.12,0,0,1,.31-.82,1.79,1.79,0,0,1,2.07,0,1.12,1.12,0,0,1,.32.82v.36a1.13,1.13,0,0,1-.32.83A1.4,1.4,0,0,1,80.12,36.24ZM79,37.6h2.3V47H79ZM86.88,47a2.5,2.5,0,0,1-1.82-.61,2.45,2.45,0,0,1-.61-1.78V39.44H83.06V37.6h.72a.85.85,0,0,0,.71-.23,1.19,1.19,0,0,0,.19-.74V35h2.07V37.6h1.93v1.84H86.75v5.72h1.79V47Zm8.05-13.32h2.31v5.47h.07a2.35,2.35,0,0,1,1-1.28,2.85,2.85,0,0,1,1.64-.48,3.18,3.18,0,0,1,2.74,1.28,5.92,5.92,0,0,1,1,3.61,6.07,6.07,0,0,1-1,3.66,3.2,3.2,0,0,1-2.74,1.28,2.86,2.86,0,0,1-1.64-.49,2.55,2.55,0,0,1-1-1.3h-.07V47H94.93Zm4.23,11.63a1.9,1.9,0,0,0,1.46-.6,2.24,2.24,0,0,0,.56-1.6V41.49a2.26,2.26,0,0,0-.56-1.6,1.87,1.87,0,0,0-1.46-.61,2.28,2.28,0,0,0-1.38.41,1.32,1.32,0,0,0-.54,1.1v3a1.31,1.31,0,0,0,.54,1.13A2.28,2.28,0,0,0,99.16,45.31ZM112.64,47a1.66,1.66,0,0,1-1.21-.43,2.09,2.09,0,0,1-.54-1.19h-.11a2.25,2.25,0,0,1-1,1.39,3.31,3.31,0,0,1-1.78.45,3.08,3.08,0,0,1-2.22-.76,2.71,2.71,0,0,1-.77-2,2.44,2.44,0,0,1,1-2.16,5.21,5.21,0,0,1,3-.72h1.61v-.68a1.66,1.66,0,0,0-.42-1.22,1.76,1.76,0,0,0-1.33-.44,2.24,2.24,0,0,0-1.32.36,3.4,3.4,0,0,0-.82.83l-1.37-1.22a4,4,0,0,1,1.39-1.3,4.53,4.53,0,0,1,2.28-.5,4.33,4.33,0,0,1,2.9.86,3.14,3.14,0,0,1,1,2.49v4.42h.94V47Zm-3.82-1.46a2.4,2.4,0,0,0,1.32-.34,1.12,1.12,0,0,0,.54-1V43H109.2c-1.2,0-1.8.38-1.8,1.15v.31a1,1,0,0,0,.36.86A1.79,1.79,0,0,0,108.82,45.54Zm7,1.46V37.6h2.3v1.95h.09a3.13,3.13,0,0,1,.27-.72,2.21,2.21,0,0,1,.51-.63,2.16,2.16,0,0,1,.72-.43,2.78,2.78,0,0,1,1-.17h.5v2.18h-.72a3.67,3.67,0,0,0-1.76.34,1.19,1.19,0,0,0-.6,1.12V47Zm7.07,0V37.6h2.3v1.57h.09a3,3,0,0,1,.9-1.26,2.63,2.63,0,0,1,1.73-.52,2.73,2.73,0,0,1,2.23,1,4.2,4.2,0,0,1,.77,2.72V47h-2.3V41.29a2.61,2.61,0,0,0-.36-1.51,1.38,1.38,0,0,0-1.19-.5,2.09,2.09,0,0,0-.7.11,1.78,1.78,0,0,0-.59.28,1.47,1.47,0,0,0-.42.47,1.23,1.23,0,0,0-.16.65V47Zm18.56.22a4.61,4.61,0,0,1-1.82-.35,3.71,3.71,0,0,1-1.37-1,4.52,4.52,0,0,1-.86-1.54,6.36,6.36,0,0,1-.31-2.06,6.14,6.14,0,0,1,.31-2,4.38,4.38,0,0,1,.86-1.53,4,4,0,0,1,1.37-1,5,5,0,0,1,3.64,0,3.65,3.65,0,0,1,1.36,1,4.29,4.29,0,0,1,.89,1.53,6.42,6.42,0,0,1,.3,2,6.65,6.65,0,0,1-.3,2.06,4.42,4.42,0,0,1-.89,1.54,3.45,3.45,0,0,1-1.36,1A4.61,4.61,0,0,1,141.41,47.22Zm0-1.86a1.85,1.85,0,0,0,1.44-.56,2.28,2.28,0,0,0,.52-1.63V41.42a2.27,2.27,0,0,0-.52-1.62,1.89,1.89,0,0,0-1.44-.56,1.84,1.84,0,0,0-1.42.56,2.27,2.27,0,0,0-.53,1.62v1.75A2.28,2.28,0,0,0,140,44.8,1.81,1.81,0,0,0,141.41,45.36Zm6.41-7.76h2.31v1.55h.07a2.4,2.4,0,0,1,1-1.28,2.85,2.85,0,0,1,1.64-.48,3.18,3.18,0,0,1,2.74,1.28,5.92,5.92,0,0,1,.95,3.61,6.07,6.07,0,0,1-.95,3.66,3.2,3.2,0,0,1-2.74,1.28,2.86,2.86,0,0,1-1.64-.49,2.55,2.55,0,0,1-1-1.3h-.07V50.6h-2.31Zm4.23,7.71a1.9,1.9,0,0,0,1.46-.6,2.24,2.24,0,0,0,.56-1.6V41.49a2.26,2.26,0,0,0-.56-1.6,1.87,1.87,0,0,0-1.46-.61,2.28,2.28,0,0,0-1.38.41,1.32,1.32,0,0,0-.54,1.1v3a1.31,1.31,0,0,0,.54,1.13A2.28,2.28,0,0,0,152.05,45.31ZM165.8,47a2.48,2.48,0,0,1-1.81-.61,2.45,2.45,0,0,1-.61-1.78V39.44H162V37.6h.72a.83.83,0,0,0,.7-.23,1.19,1.19,0,0,0,.2-.74V35h2.07V37.6h1.92v1.84h-1.92v5.72h1.78V47Zm5-10.76a1.42,1.42,0,0,1-1-.33,1.17,1.17,0,0,1-.31-.83v-.36a1.16,1.16,0,0,1,.31-.82,1.42,1.42,0,0,1,1-.33,1.37,1.37,0,0,1,1,.33,1.08,1.08,0,0,1,.32.82v.36a1.09,1.09,0,0,1-.32.83A1.37,1.37,0,0,1,170.76,36.24ZM169.6,37.6h2.31V47H169.6Zm7.28,9.4a2.3,2.3,0,0,1-1.74-.59,2.34,2.34,0,0,1-.56-1.68v-11h2.3V45.16h1.24V47Zm7.24-9.4h2.31v1.55h.07a2.4,2.4,0,0,1,.95-1.28,2.85,2.85,0,0,1,1.64-.48,3.18,3.18,0,0,1,2.74,1.28,5.92,5.92,0,0,1,.95,3.61,6.07,6.07,0,0,1-.95,3.66,3.2,3.2,0,0,1-2.74,1.28,2.86,2.86,0,0,1-1.64-.49,2.55,2.55,0,0,1-.95-1.3h-.07V50.6h-2.31Zm4.23,7.71a1.9,1.9,0,0,0,1.46-.6,2.24,2.24,0,0,0,.56-1.6V41.49a2.26,2.26,0,0,0-.56-1.6,1.87,1.87,0,0,0-1.46-.61,2.28,2.28,0,0,0-1.38.41,1.32,1.32,0,0,0-.54,1.1v3a1.31,1.31,0,0,0,.54,1.13A2.28,2.28,0,0,0,188.35,45.31ZM201.83,47a1.66,1.66,0,0,1-1.21-.43,2.09,2.09,0,0,1-.54-1.19H200a2.25,2.25,0,0,1-.95,1.39,3.29,3.29,0,0,1-1.78.45,3.08,3.08,0,0,1-2.22-.76,2.71,2.71,0,0,1-.77-2,2.44,2.44,0,0,1,1-2.16,5.21,5.21,0,0,1,3-.72h1.61v-.68a1.66,1.66,0,0,0-.42-1.22,1.76,1.76,0,0,0-1.33-.44,2.19,2.19,0,0,0-1.31.36,3.44,3.44,0,0,0-.83.83l-1.37-1.22a4,4,0,0,1,1.39-1.3,4.53,4.53,0,0,1,2.28-.5,4.33,4.33,0,0,1,2.9.86,3.14,3.14,0,0,1,1,2.49v4.42h.94V47ZM198,45.54a2.4,2.4,0,0,0,1.32-.34,1.12,1.12,0,0,0,.54-1V43h-1.48c-1.2,0-1.8.38-1.8,1.15v.31a1,1,0,0,0,.36.86A1.81,1.81,0,0,0,198,45.54Zm10,1.68a5.13,5.13,0,0,1-2.27-.45,5.53,5.53,0,0,1-1.62-1.28l1.41-1.37a4.13,4.13,0,0,0,1.13.94,3.06,3.06,0,0,0,1.44.34,1.94,1.94,0,0,0,1.19-.29,1,1,0,0,0,.38-.79.79.79,0,0,0-.28-.65,1.51,1.51,0,0,0-.88-.34l-.93-.13a4.58,4.58,0,0,1-2.34-.86,2.48,2.48,0,0,1-.79-2,2.85,2.85,0,0,1,.25-1.23,2.44,2.44,0,0,1,.72-.93,3.13,3.13,0,0,1,1.11-.6,5,5,0,0,1,1.48-.21,5.48,5.48,0,0,1,1.21.11,3.93,3.93,0,0,1,1,.28,3.51,3.51,0,0,1,.79.47,7.83,7.83,0,0,1,.7.61l-1.35,1.35a3.88,3.88,0,0,0-1-.72,2.77,2.77,0,0,0-1.26-.28,1.8,1.8,0,0,0-1.1.27.88.88,0,0,0-.32.7.94.94,0,0,0,.27.72,2.11,2.11,0,0,0,.95.34l1,.13c2,.28,3,1.21,3,2.77a2.84,2.84,0,0,1-.29,1.26,3,3,0,0,1-.77,1,4.19,4.19,0,0,1-1.23.63A5.48,5.48,0,0,1,208.05,47.22ZM214,47V37.6h2.31v1.57h.09a3,3,0,0,1,.9-1.26,2.61,2.61,0,0,1,1.73-.52,2.73,2.73,0,0,1,2.23,1,4.26,4.26,0,0,1,.77,2.72V47h-2.3V41.29a2.61,2.61,0,0,0-.36-1.51,1.38,1.38,0,0,0-1.19-.5,2.05,2.05,0,0,0-.7.11,1.83,1.83,0,0,0-.6.28,1.44,1.44,0,0,0-.41.47,1.23,1.23,0,0,0-.16.65V47Zm11.74-10.76a1.44,1.44,0,0,1-1.05-.33,1.16,1.16,0,0,1-.3-.83v-.36a1.15,1.15,0,0,1,.3-.82,1.44,1.44,0,0,1,1.05-.33,1.37,1.37,0,0,1,1,.33,1.09,1.09,0,0,1,.33.82v.36a1.1,1.1,0,0,1-.33.83A1.37,1.37,0,0,1,225.69,36.24Zm-1.15,1.36h2.3V47h-2.3Zm5,9.4V37.6h2.3v1.57h.09a3.17,3.17,0,0,1,.9-1.26,2.63,2.63,0,0,1,1.73-.52,2.71,2.71,0,0,1,2.23,1,4.2,4.2,0,0,1,.78,2.72V47h-2.31V41.29a2.61,2.61,0,0,0-.36-1.51,1.36,1.36,0,0,0-1.18-.5,2.15,2.15,0,0,0-.71.11,1.88,1.88,0,0,0-.59.28,1.33,1.33,0,0,0-.41.47,1.23,1.23,0,0,0-.17.65V47Zm19.06.79a3,3,0,0,1-.27,1.3,2.14,2.14,0,0,1-.85.95,4.53,4.53,0,0,1-1.53.58,11.28,11.28,0,0,1-2.28.2,10.51,10.51,0,0,1-2-.17,4.51,4.51,0,0,1-1.37-.43,1.79,1.79,0,0,1-.75-.68,1.85,1.85,0,0,1-.24-.94,1.71,1.71,0,0,1,.44-1.24,2.27,2.27,0,0,1,1.24-.56v-.2a1.54,1.54,0,0,1-.9-.55,1.68,1.68,0,0,1-.31-1,1.28,1.28,0,0,1,.15-.63,1.51,1.51,0,0,1,.37-.49,2.39,2.39,0,0,1,.56-.32,2.93,2.93,0,0,1,.65-.22v-.07a2.84,2.84,0,0,1-1.3-1.1,3.22,3.22,0,0,1-.41-1.64,2.9,2.9,0,0,1,1-2.3,4.23,4.23,0,0,1,2.9-.88,7.58,7.58,0,0,1,.84,0,4.49,4.49,0,0,1,.8.18v-.3c0-.92.44-1.37,1.33-1.37h1.46v1.76h-2V38a2.79,2.79,0,0,1,1.1,1.08,3.2,3.2,0,0,1,.36,1.53,2.9,2.9,0,0,1-1,2.29,4.24,4.24,0,0,1-2.9.86,5.61,5.61,0,0,1-1.44-.16,1.62,1.62,0,0,0-.47.34.71.71,0,0,0-.2.51c0,.47.41.7,1.23.7h2.52a3.61,3.61,0,0,1,2.5.72A2.48,2.48,0,0,1,248.57,47.79Zm-2.16.27a.81.81,0,0,0-.36-.7,2.23,2.23,0,0,0-1.24-.25H241.6a1.15,1.15,0,0,0-.48,1,1,1,0,0,0,.45.85,2.89,2.89,0,0,0,1.53.3h1.15a3.38,3.38,0,0,0,1.64-.29A.93.93,0,0,0,246.41,48.06Zm-2.77-5.9c1.13,0,1.69-.48,1.69-1.44v-.31c0-1-.56-1.44-1.69-1.44s-1.69.48-1.69,1.44v.31C242,41.68,242.51,42.16,243.64,42.16Z" transform="translate(-19 -33.57)" fill="#474e95"/>
    <path d="M340.5,235.5H19.5v41h321Z" transform="translate(-19 -33.57)" fill="#dcdcdc" stroke="#747474"/>
    <path d="M140.5,212.5H19.5v19h121Z" transform="translate(-19 -33.57)" fill="#bfbfbf" stroke="#747474"/>
    <path d="M311.5,162.5H19.5v41h292Z" transform="translate(-19 -33.57)" fill="#dcdcdc" stroke="#747474"/>
    <path d="M140.5,139.5H19.5v19h121Z" transform="translate(-19 -33.57)" fill="#bfbfbf" stroke="#747474"/>
    <path d="M259.5,89.5H20.5v41h239Z" transform="translate(-19 -33.57)" fill="#dcdcdc" stroke="#747474"/>
    <path d="M141.5,66.5H20.5v19h121Z" transform="translate(-19 -33.57)" fill="#bfbfbf" stroke="#747474"/>
    <path d="M105,286H20v35h85Z" transform="translate(-19 -33.57)" fill="#747474"/>
    <path d="M41.51,305.27,40.36,303h0V311h-2V299.83h2.32L44,305.56l1.15,2.32h0v-8.05h2V311H44.87Zm11.26,2.07a2.26,2.26,0,0,0-1.18.28.86.86,0,0,0-.42.77v.26a1,1,0,0,0,.32.78,1.48,1.48,0,0,0,1,.27,2.12,2.12,0,0,0,1.15-.3,1,1,0,0,0,.48-.9v-1.16Zm6.8-1.27v-.14a2.1,2.1,0,0,0-.43-1.39,1.42,1.42,0,0,0-1.22-.55,1.62,1.62,0,0,0-1.29.55,2,2,0,0,0-.48,1.4v.13Zm-1.36,3.46a2.42,2.42,0,0,0,1.27-.32,3.1,3.1,0,0,0,.86-.79l1.1,1.24a3.39,3.39,0,0,1-1.39,1.13,4.75,4.75,0,0,1-2,.4,4.56,4.56,0,0,1-1.14-.14,4,4,0,0,1-.94-.39,3.18,3.18,0,0,1-.69-.54,2.12,2.12,0,0,1-.43-.64h-.1a2,2,0,0,1-.35.62,2.23,2.23,0,0,1-.59.55,3.08,3.08,0,0,1-.88.38,3.72,3.72,0,0,1-1.17.16,2.7,2.7,0,0,1-2-.69,2.4,2.4,0,0,1-.69-1.79,2.5,2.5,0,0,1,.26-1.15,2.27,2.27,0,0,1,.72-.82,3.28,3.28,0,0,1,1.12-.49,5.58,5.58,0,0,1,1.47-.18h1.42v-.51a1.54,1.54,0,0,0-.36-1.09,1.6,1.6,0,0,0-1.17-.38,2.12,2.12,0,0,0-1.19.3,3.25,3.25,0,0,0-.73.75l-1.22-1.08a3.51,3.51,0,0,1,1.23-1.16,4.14,4.14,0,0,1,2-.44,2.59,2.59,0,0,1,1.53.4,2.7,2.7,0,0,1,.9,1h.09a2.46,2.46,0,0,1,1-1,3.48,3.48,0,0,1,1.73-.4,3.93,3.93,0,0,1,1.68.33,3.17,3.17,0,0,1,1.15.91,3.74,3.74,0,0,1,.68,1.35,5.59,5.59,0,0,1,.22,1.61v.68H56.13v.2a1.91,1.91,0,0,0,.55,1.44A2,2,0,0,0,58.21,309.53Zm8,1.66a4.55,4.55,0,0,1-2-.4,4.71,4.71,0,0,1-1.44-1.13L64,308.44a3.88,3.88,0,0,0,1,.83,2.55,2.55,0,0,0,1.28.31,1.68,1.68,0,0,0,1-.26.81.81,0,0,0,.34-.7.73.73,0,0,0-.24-.58,1.35,1.35,0,0,0-.78-.3l-.84-.12a4.05,4.05,0,0,1-2.08-.76,2.21,2.21,0,0,1-.7-1.76A2.53,2.53,0,0,1,63.3,304a2.29,2.29,0,0,1,.64-.83,2.74,2.74,0,0,1,1-.53,4.15,4.15,0,0,1,1.31-.19,5.7,5.7,0,0,1,1.07.09,3.47,3.47,0,0,1,.86.26,3.13,3.13,0,0,1,.71.41,6.27,6.27,0,0,1,.62.55l-1.2,1.2a3,3,0,0,0-.88-.64,2.46,2.46,0,0,0-1.12-.26,1.55,1.55,0,0,0-1,.24.76.76,0,0,0-.29.63.84.84,0,0,0,.24.64,1.77,1.77,0,0,0,.85.3L67,306c1.81.26,2.71,1.08,2.71,2.47a2.53,2.53,0,0,1-1,2,3.34,3.34,0,0,1-1.08.56A4.76,4.76,0,0,1,66.25,311.19ZM74,311a2.26,2.26,0,0,1-1.62-.54,2.2,2.2,0,0,1-.54-1.59v-4.59H70.59v-1.63h.64a.74.74,0,0,0,.62-.21,1,1,0,0,0,.18-.66v-1.42h1.84v2.29h1.71v1.63H73.87v5.09h1.58V311Zm6.69.19a4.35,4.35,0,0,1-1.66-.3,3.68,3.68,0,0,1-1.24-.88,4.1,4.1,0,0,1-.76-1.38,5.48,5.48,0,0,1-.28-1.82A5.86,5.86,0,0,1,77,305a3.83,3.83,0,0,1,.77-1.36,3.13,3.13,0,0,1,1.21-.88,3.9,3.9,0,0,1,1.64-.32,4,4,0,0,1,1.69.33,3.4,3.4,0,0,1,1.19.91,4.09,4.09,0,0,1,.68,1.35,5.27,5.27,0,0,1,.24,1.61v.68H78.86v.2a2.13,2.13,0,0,0,.51,1.48,2,2,0,0,0,1.52.54,2.23,2.23,0,0,0,1.25-.32,3.25,3.25,0,0,0,.88-.82l1.11,1.24a3.52,3.52,0,0,1-1.41,1.13A4.87,4.87,0,0,1,80.67,311.19Zm0-7.2a1.62,1.62,0,0,0-1.3.55,2,2,0,0,0-.48,1.4v.13h3.43v-.14a2.1,2.1,0,0,0-.44-1.39A1.41,1.41,0,0,0,80.64,304Z" transform="translate(-19 -33.57)" fill="#f5f5f5"/>
</svg>
