<svg width="361" height="320.43" viewBox="0 0 360 320.43" fill="none" xmlns="http://www.w3.org/2000/svg">
    <path d="M15.38,32.22a6,6,0,0,1-2.75-.58,6.35,6.35,0,0,1-1.93-1.51l1.6-1.55a4.81,4.81,0,0,0,1.44,1.15,4,4,0,0,0,1.79.4,2.52,2.52,0,0,0,1.65-.47,1.64,1.64,0,0,0,.56-1.3,1.44,1.44,0,0,0-.36-1A2.36,2.36,0,0,0,16,26.76l-1.19-.18q-3.77-.58-3.76-3.65a3.58,3.58,0,0,1,.31-1.53,3.25,3.25,0,0,1,.91-1.17,4,4,0,0,1,1.43-.74,6.23,6.23,0,0,1,1.9-.27,6.18,6.18,0,0,1,2.49.47,4.9,4.9,0,0,1,1.82,1.38L18.32,22.6a3.82,3.82,0,0,0-1.14-.93,3.47,3.47,0,0,0-1.67-.36A2.57,2.57,0,0,0,14,21.7a1.28,1.28,0,0,0-.5,1.08,1.3,1.3,0,0,0,.41,1.07,3.05,3.05,0,0,0,1.33.5l1.17.22a5.21,5.21,0,0,1,2.81,1.22,3.2,3.2,0,0,1,.92,2.43,4,4,0,0,1-.33,1.64,3.51,3.51,0,0,1-.91,1.26,4.13,4.13,0,0,1-1.48.81A6.39,6.39,0,0,1,15.38,32.22Zm6-.31,1.21-1.51a5.64,5.64,0,0,1-.79-3.12,6.42,6.42,0,0,1,.3-2A4.57,4.57,0,0,1,23,23.72a3.86,3.86,0,0,1,1.37-1,4.56,4.56,0,0,1,1.81-.34,4.26,4.26,0,0,1,2.43.68l1.1-1.31,1.26.93L29.7,24.21a4.54,4.54,0,0,1,.59,1.4,6.06,6.06,0,0,1,.22,1.69,6.26,6.26,0,0,1-.31,2.05,4.45,4.45,0,0,1-.88,1.55,3.64,3.64,0,0,1-1.37,1,4.58,4.58,0,0,1-1.82.35,4.43,4.43,0,0,1-2.43-.67l-1.08,1.3Zm4.77-1.44a1.86,1.86,0,0,0,1.48-.61,2.6,2.6,0,0,0,.54-1.75V26L24.8,30A1.93,1.93,0,0,0,26.13,30.47Zm-2-1.87,3.32-4a2,2,0,0,0-1.34-.47,1.81,1.81,0,0,0-1.45.63,2.59,2.59,0,0,0-.53,1.73Zm17,4.19a3,3,0,0,1-.27,1.3A2.14,2.14,0,0,1,40,35a4.53,4.53,0,0,1-1.53.58,11.28,11.28,0,0,1-2.28.2,10.43,10.43,0,0,1-2-.17,4.51,4.51,0,0,1-1.37-.43,1.73,1.73,0,0,1-.75-.68,1.85,1.85,0,0,1-.24-.94,1.74,1.74,0,0,1,.43-1.24,2.3,2.3,0,0,1,1.25-.56v-.2a1.54,1.54,0,0,1-.9-.55,1.68,1.68,0,0,1-.31-1,1.39,1.39,0,0,1,.14-.63,1.69,1.69,0,0,1,.38-.49,2.39,2.39,0,0,1,.56-.32,2.77,2.77,0,0,1,.65-.22v-.07a2.84,2.84,0,0,1-1.3-1.1,3.22,3.22,0,0,1-.41-1.64,2.9,2.9,0,0,1,1-2.3,4.21,4.21,0,0,1,2.9-.88,7.73,7.73,0,0,1,.84.05,4.37,4.37,0,0,1,.79.18v-.3A1.2,1.2,0,0,1,39.14,21h1.45v1.76h-2V23A2.76,2.76,0,0,1,39.69,24a3.2,3.2,0,0,1,.36,1.53,2.9,2.9,0,0,1-1,2.29,4.19,4.19,0,0,1-2.89.86,5.5,5.5,0,0,1-1.44-.16,1.62,1.62,0,0,0-.47.34.71.71,0,0,0-.2.51c0,.47.41.7,1.22.7H37.8a3.62,3.62,0,0,1,2.51.72A2.51,2.51,0,0,1,41.1,32.79Zm-2.16.27a.81.81,0,0,0-.36-.7,2.26,2.26,0,0,0-1.24-.25H34.13a1.15,1.15,0,0,0-.48,1,1,1,0,0,0,.45.85,2.89,2.89,0,0,0,1.53.3h1.15a3.4,3.4,0,0,0,1.64-.29A1,1,0,0,0,38.94,33.06Zm-2.77-5.9c1.12,0,1.69-.48,1.69-1.44v-.31c0-1-.57-1.44-1.69-1.44s-1.7.48-1.7,1.44v.31C34.47,26.68,35,27.16,36.17,27.16Zm14.24,5.06a4.61,4.61,0,0,1-1.82-.35,3.71,3.71,0,0,1-1.37-1,4.52,4.52,0,0,1-.86-1.54,6.36,6.36,0,0,1-.31-2.06,6.14,6.14,0,0,1,.31-2,4.38,4.38,0,0,1,.86-1.53,4,4,0,0,1,1.37-1,5,5,0,0,1,3.64,0,3.65,3.65,0,0,1,1.36,1,4.29,4.29,0,0,1,.89,1.53,6.42,6.42,0,0,1,.3,2,6.65,6.65,0,0,1-.3,2.06,4.42,4.42,0,0,1-.89,1.54,3.45,3.45,0,0,1-1.36,1A4.61,4.61,0,0,1,50.41,32.22Zm0-1.86a1.85,1.85,0,0,0,1.44-.56,2.28,2.28,0,0,0,.52-1.63V26.42a2.27,2.27,0,0,0-.52-1.62,1.89,1.89,0,0,0-1.44-.56A1.84,1.84,0,0,0,49,24.8a2.27,2.27,0,0,0-.53,1.62v1.75A2.28,2.28,0,0,0,49,29.8,1.81,1.81,0,0,0,50.41,30.36ZM56.82,32V22.6h2.31v1.57h.09a3.12,3.12,0,0,1,.86-1.26,2.43,2.43,0,0,1,1.66-.52,2.88,2.88,0,0,1,1.67.47,2.74,2.74,0,0,1,1,1.42h0a2.62,2.62,0,0,1,1-1.33,3.07,3.07,0,0,1,1.89-.56,2.55,2.55,0,0,1,2.13.95,4.32,4.32,0,0,1,.75,2.72V32H68V26.29c0-1.34-.51-2-1.51-2a1.92,1.92,0,0,0-.67.11,1.73,1.73,0,0,0-.56.28,1.48,1.48,0,0,0-.38.47,1.45,1.45,0,0,0-.14.65V32h-2.3V26.29c0-1.34-.51-2-1.52-2a1.8,1.8,0,0,0-.64.11,1.64,1.64,0,0,0-.56.28,1.54,1.54,0,0,0-.4.47,1.45,1.45,0,0,0-.14.65V32ZM77.06,18.68h2.3v5.47h.07a2.36,2.36,0,0,1,1-1.28A2.8,2.8,0,0,1,82,22.39a3.16,3.16,0,0,1,2.74,1.28,5.86,5.86,0,0,1,.95,3.61,6,6,0,0,1-.95,3.66A3.19,3.19,0,0,1,82,32.22a2.8,2.8,0,0,1-1.63-.49,2.51,2.51,0,0,1-1-1.3h-.07V32h-2.3Zm4.23,11.63a1.88,1.88,0,0,0,1.45-.6,2.2,2.2,0,0,0,.56-1.6V26.49a2.22,2.22,0,0,0-.56-1.6,1.85,1.85,0,0,0-1.45-.61,2.29,2.29,0,0,0-1.39.41,1.32,1.32,0,0,0-.54,1.1v3a1.31,1.31,0,0,0,.54,1.13A2.29,2.29,0,0,0,81.29,30.31Zm10.29,1.91a4.58,4.58,0,0,1-1.82-.35,3.63,3.63,0,0,1-1.37-1,4.52,4.52,0,0,1-.86-1.54,6.36,6.36,0,0,1-.31-2.06,6.14,6.14,0,0,1,.31-2,4.38,4.38,0,0,1,.86-1.53,3.86,3.86,0,0,1,1.37-1,5,5,0,0,1,3.63,0,3.69,3.69,0,0,1,1.37,1,4.13,4.13,0,0,1,.88,1.53,6.14,6.14,0,0,1,.31,2,6.36,6.36,0,0,1-.31,2.06,4.25,4.25,0,0,1-.88,1.54,3.48,3.48,0,0,1-1.37,1A4.56,4.56,0,0,1,91.58,32.22Zm0-1.86A1.85,1.85,0,0,0,93,29.8a2.33,2.33,0,0,0,.52-1.63V26.42A2.32,2.32,0,0,0,93,24.8a2.12,2.12,0,0,0-2.87,0,2.32,2.32,0,0,0-.52,1.62v1.75a2.33,2.33,0,0,0,.52,1.63A1.85,1.85,0,0,0,91.58,30.36ZM100.3,32a2.31,2.31,0,0,1-1.75-.59A2.38,2.38,0,0,1,98,29.73v-11h2.31V30.16h1.24V32Zm4.13-10.76a1.43,1.43,0,0,1-1-.33,1.17,1.17,0,0,1-.31-.83v-.36a1.16,1.16,0,0,1,.31-.82,1.43,1.43,0,0,1,1-.33,1.38,1.38,0,0,1,1,.33,1.09,1.09,0,0,1,.33.82v.36a1.1,1.1,0,0,1-.33.83A1.38,1.38,0,0,1,104.43,21.24Zm-1.15,1.36h2.31V32h-2.31Zm13.46,10.19a3,3,0,0,1-.27,1.3,2.14,2.14,0,0,1-.85.95,4.7,4.7,0,0,1-1.53.58,11.39,11.39,0,0,1-2.29.2,10.39,10.39,0,0,1-2-.17,4.51,4.51,0,0,1-1.37-.43,1.82,1.82,0,0,1-.76-.68,2,2,0,0,1-.23-.94,1.7,1.7,0,0,1,.43-1.24,2.3,2.3,0,0,1,1.24-.56v-.2a1.61,1.61,0,0,1-.9-.55,1.74,1.74,0,0,1-.3-1,1.39,1.39,0,0,1,.14-.63,1.54,1.54,0,0,1,.38-.49,2.2,2.2,0,0,1,.56-.32,2.77,2.77,0,0,1,.65-.22v-.07a2.84,2.84,0,0,1-1.3-1.1,3.12,3.12,0,0,1-.41-1.64,2.9,2.9,0,0,1,1-2.3,4.2,4.2,0,0,1,2.89-.88,7.92,7.92,0,0,1,.85.05,4.37,4.37,0,0,1,.79.18v-.3A1.19,1.19,0,0,1,114.77,21h1.46v1.76h-2V23a2.73,2.73,0,0,1,1.1,1.08,3.2,3.2,0,0,1,.36,1.53,2.9,2.9,0,0,1-1,2.29,4.22,4.22,0,0,1-2.9.86,5.61,5.61,0,0,1-1.44-.16,1.57,1.57,0,0,0-.46.34.67.67,0,0,0-.2.51c0,.47.41.7,1.22.7h2.52a3.59,3.59,0,0,1,2.5.72A2.48,2.48,0,0,1,116.74,32.79Zm-2.16.27a.81.81,0,0,0-.36-.7,2.27,2.27,0,0,0-1.25-.25h-3.2a1.15,1.15,0,0,0-.49,1,1,1,0,0,0,.45.85,2.89,2.89,0,0,0,1.53.3h1.16a3.33,3.33,0,0,0,1.63-.29A.94.94,0,0,0,114.58,33.06Zm-2.78-5.9c1.13,0,1.7-.48,1.7-1.44v-.31c0-1-.57-1.44-1.7-1.44s-1.69.48-1.69,1.44v.31C110.11,26.68,110.68,27.16,111.8,27.16Zm9.34,5.06a5.08,5.08,0,0,1-2.26-.45,5.28,5.28,0,0,1-1.62-1.28l1.4-1.37a4.45,4.45,0,0,0,1.13.94,3.06,3.06,0,0,0,1.44.34,1.92,1.92,0,0,0,1.19-.29,1,1,0,0,0,.38-.79.82.82,0,0,0-.27-.65,1.54,1.54,0,0,0-.88-.34l-.94-.13a4.58,4.58,0,0,1-2.34-.86,2.48,2.48,0,0,1-.79-2,2.85,2.85,0,0,1,.25-1.23,2.54,2.54,0,0,1,.72-.93,3.17,3.17,0,0,1,1.12-.6,4.83,4.83,0,0,1,1.47-.21,5.48,5.48,0,0,1,1.21.11,3.93,3.93,0,0,1,1,.28,3.3,3.3,0,0,1,.79.47,7.93,7.93,0,0,1,.71.61l-1.35,1.35a4.07,4.07,0,0,0-1-.72,2.83,2.83,0,0,0-1.26-.28,1.78,1.78,0,0,0-1.1.27.86.86,0,0,0-.33.7.94.94,0,0,0,.27.72,2.16,2.16,0,0,0,1,.34l1,.13c2,.28,3,1.21,3,2.77a2.83,2.83,0,0,1-.28,1.26,2.88,2.88,0,0,1-.78,1,4,4,0,0,1-1.22.63A5.55,5.55,0,0,1,121.14,32.22Zm8.7-.22a2.15,2.15,0,0,1-2.43-2.39V24.44H126V22.6h.72a.84.84,0,0,0,.7-.23,1.19,1.19,0,0,0,.2-.74V20h2.07V22.6h1.92v1.84h-1.92v5.72h1.78V32Zm2.76-.09,1.2-1.51a5.73,5.73,0,0,1-.79-3.12,6.14,6.14,0,0,1,.31-2,4.38,4.38,0,0,1,.86-1.53,4,4,0,0,1,1.37-1,4.61,4.61,0,0,1,1.82-.34,4.26,4.26,0,0,1,2.43.68l1.1-1.31,1.26.93-1.23,1.52a4.56,4.56,0,0,1,.6,1.4,6.47,6.47,0,0,1,.21,1.69,6.54,6.54,0,0,1-.3,2.05,4.47,4.47,0,0,1-.89,1.55,3.61,3.61,0,0,1-1.36,1,4.61,4.61,0,0,1-1.82.35,4.38,4.38,0,0,1-2.43-.67l-1.08,1.3Zm4.77-1.44a1.85,1.85,0,0,0,1.47-.61,2.6,2.6,0,0,0,.54-1.75V26L136,30A1.91,1.91,0,0,0,137.37,30.47Zm-2-1.87,3.31-4a1.93,1.93,0,0,0-1.33-.47,1.83,1.83,0,0,0-1.46.63,2.59,2.59,0,0,0-.52,1.73ZM146.72,32a2.5,2.5,0,0,1-1.82-.61,2.45,2.45,0,0,1-.61-1.78V24.44H142.9V22.6h.72a.83.83,0,0,0,.7-.23,1.13,1.13,0,0,0,.2-.74V20h2.07V22.6h1.93v1.84h-1.93v5.72h1.78V32Zm6.62,0a2.16,2.16,0,0,1-2.43-2.39V24.44h-1.38V22.6h.72a.83.83,0,0,0,.7-.23,1.19,1.19,0,0,0,.2-.74V20h2.07V22.6h1.92v1.84h-1.92v5.72H155V32Zm7.53.22a4.8,4.8,0,0,1-1.87-.35,4.2,4.2,0,0,1-1.39-1,4.52,4.52,0,0,1-.86-1.54,6.36,6.36,0,0,1-.31-2.06,6.64,6.64,0,0,1,.29-2,4.38,4.38,0,0,1,.86-1.53,3.77,3.77,0,0,1,1.37-1,4.48,4.48,0,0,1,1.84-.36,4.37,4.37,0,0,1,1.91.38,3.67,3.67,0,0,1,1.33,1,4.32,4.32,0,0,1,.77,1.51,6,6,0,0,1,.27,1.82v.76h-6.24v.23a2.37,2.37,0,0,0,.57,1.66,2.25,2.25,0,0,0,1.71.61,2.5,2.5,0,0,0,1.41-.36,4.09,4.09,0,0,0,1-.92l1.24,1.39a4,4,0,0,1-1.59,1.28A5.49,5.49,0,0,1,160.87,32.22Zm0-8.1a1.82,1.82,0,0,0-1.45.61,2.3,2.3,0,0,0-.54,1.58v.15h3.85v-.17a2.35,2.35,0,0,0-.49-1.56A1.61,1.61,0,0,0,160.83,24.12Z" transform="translate(-9 -18.57)" fill="#474e95"/>
    <path d="M15,61.17a4.7,4.7,0,0,1-1.75-.32,3.58,3.58,0,0,1-1.34-1A4.68,4.68,0,0,1,11,58.3a6.93,6.93,0,0,1-.31-2.19A6.85,6.85,0,0,1,11,53.94a4.64,4.64,0,0,1,.85-1.59,3.58,3.58,0,0,1,1.34-1A4.7,4.7,0,0,1,15,51.06a4.62,4.62,0,0,1,1.75.32,3.62,3.62,0,0,1,1.35,1,4.32,4.32,0,0,1,.85,1.59,6.85,6.85,0,0,1,.31,2.17,6.93,6.93,0,0,1-.31,2.19,4.36,4.36,0,0,1-.85,1.58,3.62,3.62,0,0,1-1.35,1A4.62,4.62,0,0,1,15,61.17Zm0-1.64a2.1,2.1,0,0,0,1.67-.7,2.83,2.83,0,0,0,.63-2V55.36a2.82,2.82,0,0,0-.63-2A2.1,2.1,0,0,0,15,52.7a2.14,2.14,0,0,0-1.68.7,2.86,2.86,0,0,0-.61,2v1.51a2.88,2.88,0,0,0,.61,2A2.14,2.14,0,0,0,15,59.53Zm6-5.84h1.79V54.9h.06a1.82,1.82,0,0,1,.74-1,2.22,2.22,0,0,1,1.28-.38,2.47,2.47,0,0,1,2.12,1,4.54,4.54,0,0,1,.75,2.81A4.64,4.64,0,0,1,27,60.17a2.44,2.44,0,0,1-2.12,1,2.22,2.22,0,0,1-1.28-.38,2,2,0,0,1-.74-1h-.06v4H21Zm3.29,6a1.48,1.48,0,0,0,1.14-.46A1.73,1.73,0,0,0,25.86,58V56.72a1.74,1.74,0,0,0-.43-1.25A1.47,1.47,0,0,0,24.29,55a1.74,1.74,0,0,0-1.08.33,1,1,0,0,0-.42.85v2.32a1,1,0,0,0,.42.89A1.86,1.86,0,0,0,24.29,59.68ZM31.19,61a1.78,1.78,0,0,1-1.36-.46,1.82,1.82,0,0,1-.43-1.3v-8.6h1.79v8.93h1V61Zm6.71-7.31h1.68L36.64,62.3a3,3,0,0,1-.33.67,1.47,1.47,0,0,1-.4.48,1.64,1.64,0,0,1-.58.27,3.53,3.53,0,0,1-.78.08H33.47V62.37h1.32l.33-1-2.61-7.66h1.77l1.28,3.87L36,59.4h.09l.5-1.84ZM43,61.17a3.62,3.62,0,0,1-3-1.35l1.09-1.06a3.49,3.49,0,0,0,.88.73,2.29,2.29,0,0,0,1.12.26,1.52,1.52,0,0,0,.93-.22.74.74,0,0,0,.29-.62.63.63,0,0,0-.21-.5,1.24,1.24,0,0,0-.68-.27l-.73-.09a3.55,3.55,0,0,1-1.82-.68,1.91,1.91,0,0,1-.62-1.54,2.24,2.24,0,0,1,.2-.95,1.91,1.91,0,0,1,.56-.73,2.41,2.41,0,0,1,.87-.46A3.69,3.69,0,0,1,43,53.52a4.35,4.35,0,0,1,.94.09,2.93,2.93,0,0,1,.76.22,2.68,2.68,0,0,1,.61.37,4.73,4.73,0,0,1,.55.47l-1,1a2.93,2.93,0,0,0-.77-.56,2.17,2.17,0,0,0-1-.22,1.36,1.36,0,0,0-.85.21.67.67,0,0,0-.26.54.72.72,0,0,0,.21.56,1.57,1.57,0,0,0,.75.27l.74.1c1.57.22,2.36.94,2.36,2.15a2.11,2.11,0,0,1-.22,1,2.2,2.2,0,0,1-.6.76,2.94,2.94,0,0,1-.95.49A4.32,4.32,0,0,1,43,61.17Zm4.6-.17V53.69h1.79v1.22h.07a2.3,2.3,0,0,1,.7-1,2,2,0,0,1,1.34-.41,2.1,2.1,0,0,1,1.74.75,3.27,3.27,0,0,1,.6,2.11V61H52.09V56.56a2.06,2.06,0,0,0-.28-1.17,1.05,1.05,0,0,0-.93-.4,1.65,1.65,0,0,0-.54.09,1.3,1.3,0,0,0-.46.22,1.17,1.17,0,0,0-.33.37,1,1,0,0,0-.12.5V61Zm9.12-8.37a1.15,1.15,0,0,1-.81-.25.92.92,0,0,1-.24-.65v-.28a.89.89,0,0,1,.24-.64,1.11,1.11,0,0,1,.81-.25,1.08,1.08,0,0,1,.8.25.86.86,0,0,1,.25.64v.28a.88.88,0,0,1-.25.65A1.13,1.13,0,0,1,56.76,52.63Zm-.89,1.06h1.79V61H55.87ZM59.74,61V53.69h1.79v1.22h.07a2.3,2.3,0,0,1,.7-1,2,2,0,0,1,1.34-.41,2.1,2.1,0,0,1,1.74.75,3.27,3.27,0,0,1,.6,2.11V61H64.19V56.56a2.06,2.06,0,0,0-.28-1.17A1.05,1.05,0,0,0,63,55a1.65,1.65,0,0,0-.54.09,1.3,1.3,0,0,0-.46.22,1.17,1.17,0,0,0-.33.37,1,1,0,0,0-.12.5V61Zm14.82.62a2.26,2.26,0,0,1-.21,1,1.69,1.69,0,0,1-.66.75,3.66,3.66,0,0,1-1.19.44,8.2,8.2,0,0,1-1.78.16,7.71,7.71,0,0,1-1.56-.13,3.46,3.46,0,0,1-1.07-.33,1.34,1.34,0,0,1-.77-1.26,1.32,1.32,0,0,1,.34-1,1.71,1.71,0,0,1,1-.43v-.16a1.23,1.23,0,0,1-.7-.43,1.33,1.33,0,0,1-.23-.79A1,1,0,0,1,67.8,59a1.06,1.06,0,0,1,.29-.37,1.76,1.76,0,0,1,.44-.26,2,2,0,0,1,.5-.16v-.06a2.31,2.31,0,0,1-1-.85A2.53,2.53,0,0,1,67.7,56a2.28,2.28,0,0,1,.77-1.79,3.26,3.26,0,0,1,2.25-.69,4.65,4.65,0,0,1,.66,0,2.35,2.35,0,0,1,.62.14v-.24c0-.71.34-1.07,1-1.07h1.14v1.38H72.61V54a2.17,2.17,0,0,1,.86.84A2.55,2.55,0,0,1,73.75,56,2.26,2.26,0,0,1,73,57.78a3.32,3.32,0,0,1-2.26.67,4.63,4.63,0,0,1-1.12-.12,1,1,0,0,0-.36.26.54.54,0,0,0-.15.39c0,.37.31.55,1,.55h2a2.81,2.81,0,0,1,1.94.56A1.93,1.93,0,0,1,74.56,61.62Zm-1.68.21a.62.62,0,0,0-.28-.55,1.78,1.78,0,0,0-1-.2H69.14a.91.91,0,0,0-.38.76.77.77,0,0,0,.35.66,2.21,2.21,0,0,0,1.19.24h.9a2.65,2.65,0,0,0,1.27-.23A.74.74,0,0,0,72.88,61.83Zm-2.16-4.6c.88,0,1.32-.37,1.32-1.12v-.23c0-.75-.44-1.12-1.32-1.12s-1.31.37-1.31,1.12v.23C69.41,56.86,69.85,57.23,70.72,57.23Zm7.75,3.94A3.76,3.76,0,0,1,77,60.9a3.09,3.09,0,0,1-1.08-.77,3.59,3.59,0,0,1-.67-1.2,5,5,0,0,1-.24-1.6,5.13,5.13,0,0,1,.23-1.57,3.54,3.54,0,0,1,.67-1.19A2.93,2.93,0,0,1,77,53.8a3.61,3.61,0,0,1,1.43-.28,3.4,3.4,0,0,1,1.48.3,2.77,2.77,0,0,1,1,.8,3.25,3.25,0,0,1,.6,1.17,4.64,4.64,0,0,1,.21,1.42v.58H76.88V58a1.8,1.8,0,0,0,.45,1.28,1.73,1.73,0,0,0,1.33.48,1.9,1.9,0,0,0,1.09-.28,3,3,0,0,0,.77-.71l1,1.07a3.06,3.06,0,0,1-1.23,1A4.33,4.33,0,0,1,78.47,61.17Zm0-6.3a1.46,1.46,0,0,0-1.14.47,1.81,1.81,0,0,0-.42,1.24v.11h3v-.13a1.89,1.89,0,0,0-.38-1.22A1.26,1.26,0,0,0,78.44,54.87ZM83.32,61V53.69h1.79V55.2h.07a2.92,2.92,0,0,1,.21-.56,1.75,1.75,0,0,1,1-.82,2.07,2.07,0,0,1,.77-.13h.4v1.7H87a2.82,2.82,0,0,0-1.38.26.94.94,0,0,0-.46.87V61Zm11.7.17a3.55,3.55,0,0,1-1.41-.27,3,3,0,0,1-1.07-.77,3.59,3.59,0,0,1-.67-1.2,5,5,0,0,1-.24-1.6,4.86,4.86,0,0,1,.24-1.58,3.45,3.45,0,0,1,.67-1.19,3,3,0,0,1,1.07-.77A3.55,3.55,0,0,1,95,53.52a3.59,3.59,0,0,1,1.42.27,2.82,2.82,0,0,1,1.06.77,3.33,3.33,0,0,1,.69,1.19,5.15,5.15,0,0,1,.23,1.58,5.33,5.33,0,0,1-.23,1.6,3.46,3.46,0,0,1-.69,1.2,2.82,2.82,0,0,1-1.06.77A3.59,3.59,0,0,1,95,61.17Zm0-1.44a1.45,1.45,0,0,0,1.12-.44A1.79,1.79,0,0,0,96.55,58V56.66a1.78,1.78,0,0,0-.41-1.26A1.45,1.45,0,0,0,95,55a1.43,1.43,0,0,0-1.1.43,1.78,1.78,0,0,0-.41,1.26V58a1.79,1.79,0,0,0,.41,1.27A1.44,1.44,0,0,0,95,59.73ZM100,61V53.69h1.8v1.22h.07a2.27,2.27,0,0,1,.67-1,1.87,1.87,0,0,1,1.28-.41,2.34,2.34,0,0,1,1.31.37A2.17,2.17,0,0,1,106,55h0a2,2,0,0,1,.77-1,2.4,2.4,0,0,1,1.47-.44,2,2,0,0,1,1.65.75,3.33,3.33,0,0,1,.59,2.11V61h-1.79V56.56c0-1-.4-1.57-1.18-1.57a1.54,1.54,0,0,0-.52.09,1.17,1.17,0,0,0-.43.22,1.22,1.22,0,0,0-.3.37,1.09,1.09,0,0,0-.11.5V61h-1.79V56.56c0-1-.39-1.57-1.18-1.57a1.51,1.51,0,0,0-.5.09,1.3,1.3,0,0,0-.44.22,1.22,1.22,0,0,0-.3.37,1,1,0,0,0-.11.5V61Zm20.28-1.22h-.08a1.83,1.83,0,0,1-.74,1,2.19,2.19,0,0,1-1.27.38,2.5,2.5,0,0,1-2.13-1,4.78,4.78,0,0,1-.73-2.84,4.68,4.68,0,0,1,.73-2.81,2.52,2.52,0,0,1,2.13-1,2.19,2.19,0,0,1,1.27.38,1.78,1.78,0,0,1,.74,1h.08V50.64h1.79V61h-1.79Zm-1.52-.1a1.86,1.86,0,0,0,1.08-.3,1,1,0,0,0,.44-.89V56.17a1,1,0,0,0-.44-.85,1.74,1.74,0,0,0-1.08-.33,1.46,1.46,0,0,0-1.13.48,1.78,1.78,0,0,0-.42,1.25V58a1.77,1.77,0,0,0,.42,1.24A1.48,1.48,0,0,0,118.77,59.68Zm8.33,1.49a3.76,3.76,0,0,1-1.46-.27,3.09,3.09,0,0,1-1.08-.77,3.59,3.59,0,0,1-.67-1.2,5,5,0,0,1-.24-1.6,5.13,5.13,0,0,1,.23-1.57,3.54,3.54,0,0,1,.67-1.19,2.93,2.93,0,0,1,1.06-.77,3.61,3.61,0,0,1,1.43-.28,3.4,3.4,0,0,1,1.48.3,2.69,2.69,0,0,1,1,.8,3.25,3.25,0,0,1,.6,1.17,4.64,4.64,0,0,1,.21,1.42v.58h-4.86V58a1.85,1.85,0,0,0,.45,1.28,1.75,1.75,0,0,0,1.33.48,1.9,1.9,0,0,0,1.09-.28,2.89,2.89,0,0,0,.77-.71l1,1.07a3.06,3.06,0,0,1-1.23,1A4.33,4.33,0,0,1,127.1,61.17Zm0-6.3a1.46,1.46,0,0,0-1.14.47,1.81,1.81,0,0,0-.42,1.24v.11h3v-.13a1.89,1.89,0,0,0-.38-1.22A1.26,1.26,0,0,0,127.07,54.87ZM132,61V53.69h1.79v1.22h.07a2.39,2.39,0,0,1,.7-1,2.39,2.39,0,0,1,3.08.34,3.27,3.27,0,0,1,.6,2.11V61H136.4V56.56a2,2,0,0,0-.28-1.17,1,1,0,0,0-.92-.4,1.71,1.71,0,0,0-.55.09,1.3,1.3,0,0,0-.46.22,1.14,1.14,0,0,0-.32.37.89.89,0,0,0-.13.5V61Zm11.54-10.36h1.79V54.9h.06a1.78,1.78,0,0,1,.74-1,2.19,2.19,0,0,1,1.27-.38,2.47,2.47,0,0,1,2.13,1,4.54,4.54,0,0,1,.74,2.81,4.64,4.64,0,0,1-.74,2.84,2.45,2.45,0,0,1-2.13,1,2.19,2.19,0,0,1-1.27-.38,1.93,1.93,0,0,1-.74-1h-.06V61h-1.79Zm3.29,9a1.46,1.46,0,0,0,1.13-.46,1.74,1.74,0,0,0,.44-1.24V56.72a1.75,1.75,0,0,0-.44-1.25,1.44,1.44,0,0,0-1.13-.48,1.74,1.74,0,0,0-1.08.33,1,1,0,0,0-.42.85v2.32a1,1,0,0,0,.42.89A1.86,1.86,0,0,0,146.78,59.68Zm8,1.49a3.55,3.55,0,0,1-1.41-.27,3,3,0,0,1-1.07-.77,3.59,3.59,0,0,1-.67-1.2,5,5,0,0,1-.24-1.6,4.86,4.86,0,0,1,.24-1.58,3.45,3.45,0,0,1,.67-1.19,3,3,0,0,1,1.07-.77,3.55,3.55,0,0,1,1.41-.27,3.59,3.59,0,0,1,1.42.27,2.82,2.82,0,0,1,1.06.77,3.33,3.33,0,0,1,.69,1.19,5.15,5.15,0,0,1,.23,1.58,5.33,5.33,0,0,1-.23,1.6,3.46,3.46,0,0,1-.69,1.2,2.82,2.82,0,0,1-1.06.77A3.59,3.59,0,0,1,154.78,61.17Zm0-1.44a1.45,1.45,0,0,0,1.12-.44,1.79,1.79,0,0,0,.41-1.27V56.66a1.78,1.78,0,0,0-.41-1.26,1.45,1.45,0,0,0-1.12-.43,1.43,1.43,0,0,0-1.1.43,1.74,1.74,0,0,0-.41,1.26V58a1.75,1.75,0,0,0,.41,1.27A1.44,1.44,0,0,0,154.78,59.73ZM161.56,61a1.77,1.77,0,0,1-1.35-.46,1.83,1.83,0,0,1-.44-1.3v-8.6h1.79v8.93h1V61Zm3.22-8.37a1.15,1.15,0,0,1-.81-.25.92.92,0,0,1-.24-.65v-.28a.89.89,0,0,1,.24-.64,1.11,1.11,0,0,1,.81-.25,1.08,1.08,0,0,1,.8.25.86.86,0,0,1,.25.64v.28a.88.88,0,0,1-.25.65A1.13,1.13,0,0,1,164.78,52.63Zm-.89,1.06h1.79V61h-1.79Zm10.46,7.93a2.26,2.26,0,0,1-.21,1,1.69,1.69,0,0,1-.66.75,3.57,3.57,0,0,1-1.19.44,8.2,8.2,0,0,1-1.78.16,7.77,7.77,0,0,1-1.56-.13,3.46,3.46,0,0,1-1.07-.33,1.34,1.34,0,0,1-.77-1.26,1.36,1.36,0,0,1,.34-1,1.71,1.71,0,0,1,1-.43v-.16a1.27,1.27,0,0,1-.7-.43,1.41,1.41,0,0,1-.23-.79,1,1,0,0,1,.11-.49,1.06,1.06,0,0,1,.29-.37,1.76,1.76,0,0,1,.44-.26,2.09,2.09,0,0,1,.5-.16v-.06a2.31,2.31,0,0,1-1-.85,2.53,2.53,0,0,1-.32-1.28,2.28,2.28,0,0,1,.77-1.79,3.26,3.26,0,0,1,2.25-.69,4.65,4.65,0,0,1,.66,0,2.35,2.35,0,0,1,.62.14v-.24c0-.71.34-1.07,1-1.07H174v1.38H172.4V54a2.17,2.17,0,0,1,.86.84,2.43,2.43,0,0,1,.28,1.19,2.26,2.26,0,0,1-.77,1.78,3.32,3.32,0,0,1-2.26.67,4.54,4.54,0,0,1-1.11-.12,1.08,1.08,0,0,0-.37.26.54.54,0,0,0-.15.39c0,.37.31.55,1,.55h2a2.86,2.86,0,0,1,2,.56A1.92,1.92,0,0,1,174.35,61.62Zm-1.68.21a.62.62,0,0,0-.28-.55,1.76,1.76,0,0,0-1-.2h-2.5a.91.91,0,0,0-.38.76.77.77,0,0,0,.35.66,2.25,2.25,0,0,0,1.2.24H171a2.65,2.65,0,0,0,1.27-.23A.72.72,0,0,0,172.67,61.83Zm-2.16-4.6c.88,0,1.32-.37,1.32-1.12v-.23c0-.75-.44-1.12-1.32-1.12s-1.31.37-1.31,1.12v.23C169.2,56.86,169.64,57.23,170.51,57.23Zm6.06,1.61a1,1,0,0,1,.84.3,1,1,0,0,1,.28.74v.25a2.78,2.78,0,0,1-.11.79,3.19,3.19,0,0,1-.29.78,3.54,3.54,0,0,1-.45.71,3,3,0,0,1-.58.59H175a7.14,7.14,0,0,0,.8-.91,3.35,3.35,0,0,0,.49-1,.93.93,0,0,1-.63-.34,1.14,1.14,0,0,1-.2-.66v-.25a1,1,0,0,1,.27-.74A1.08,1.08,0,0,1,176.57,58.84Zm11,.94h-.07a1.88,1.88,0,0,1-.74,1,2.19,2.19,0,0,1-1.27.38,2.47,2.47,0,0,1-2.13-1,4.71,4.71,0,0,1-.73-2.84,4.61,4.61,0,0,1,.73-2.81,2.5,2.5,0,0,1,2.13-1,2.19,2.19,0,0,1,1.27.38,1.82,1.82,0,0,1,.74,1h.07V50.64h1.8V61h-1.8Zm-1.51-.1a1.86,1.86,0,0,0,1.08-.3,1,1,0,0,0,.43-.89V56.17a1,1,0,0,0-.43-.85A1.74,1.74,0,0,0,186,55a1.44,1.44,0,0,0-1.13.48,1.78,1.78,0,0,0-.42,1.25V58a1.77,1.77,0,0,0,.42,1.24A1.46,1.46,0,0,0,186,59.68Zm9.74.1h-.07a2,2,0,0,1-.27.53,1.65,1.65,0,0,1-.4.44,1.94,1.94,0,0,1-.59.31,2.62,2.62,0,0,1-.78.11,2.12,2.12,0,0,1-1.74-.74,3.3,3.3,0,0,1-.6-2.12V53.69h1.79v4.44a2,2,0,0,0,.29,1.16,1.11,1.11,0,0,0,.94.39,1.81,1.81,0,0,0,.52-.07,1.14,1.14,0,0,0,.46-.21,1.22,1.22,0,0,0,.32-.36,1,1,0,0,0,.13-.52V53.69h1.79V61h-1.79Zm9.57,1.39a3.62,3.62,0,0,1-3-1.35l1.09-1.06a3.49,3.49,0,0,0,.88.73,2.29,2.29,0,0,0,1.12.26,1.52,1.52,0,0,0,.93-.22.72.72,0,0,0,.29-.62.63.63,0,0,0-.21-.5,1.24,1.24,0,0,0-.68-.27l-.73-.09a3.55,3.55,0,0,1-1.82-.68,1.91,1.91,0,0,1-.62-1.54,2.24,2.24,0,0,1,.2-.95,2,2,0,0,1,.56-.73,2.41,2.41,0,0,1,.87-.46,3.75,3.75,0,0,1,1.15-.17,4.31,4.31,0,0,1,.93.09,2.82,2.82,0,0,1,.76.22,3,3,0,0,1,.62.37,5.66,5.66,0,0,1,.54.47l-1,1a2.78,2.78,0,0,0-.77-.56,2.14,2.14,0,0,0-1-.22,1.36,1.36,0,0,0-.85.21.67.67,0,0,0-.26.54.72.72,0,0,0,.22.56,1.49,1.49,0,0,0,.74.27l.74.1c1.58.22,2.36.94,2.36,2.15a2.11,2.11,0,0,1-.22,1,2.2,2.2,0,0,1-.6.76,2.94,2.94,0,0,1-.95.49A4.3,4.3,0,0,1,205.32,61.17Zm3.83-.24.94-1.18a4.37,4.37,0,0,1-.62-2.42,4.86,4.86,0,0,1,.24-1.58,3.45,3.45,0,0,1,.67-1.19,3,3,0,0,1,1.07-.77,3.55,3.55,0,0,1,1.41-.27,3.24,3.24,0,0,1,1.89.54l.85-1,1,.73-1,1.18A3.71,3.71,0,0,1,216.1,56a5.45,5.45,0,0,1-.08,2.91,3.34,3.34,0,0,1-.68,1.21,3,3,0,0,1-1.07.75,3.55,3.55,0,0,1-1.41.27,3.35,3.35,0,0,1-1.89-.52l-.84,1Zm3.71-1.12a1.44,1.44,0,0,0,1.15-.48,2,2,0,0,0,.42-1.35V56.3l-2.61,3.15A1.53,1.53,0,0,0,212.86,59.81Zm-1.54-1.46,2.58-3.1a1.47,1.47,0,0,0-1-.37,1.42,1.42,0,0,0-1.13.49,2,2,0,0,0-.41,1.35Zm13.18,3.27a2.26,2.26,0,0,1-.21,1,1.69,1.69,0,0,1-.66.75,3.66,3.66,0,0,1-1.19.44,8.2,8.2,0,0,1-1.78.16,7.71,7.71,0,0,1-1.56-.13,3.46,3.46,0,0,1-1.07-.33,1.36,1.36,0,0,1-.59-.54,1.43,1.43,0,0,1-.18-.72,1.32,1.32,0,0,1,.34-1,1.71,1.71,0,0,1,1-.43v-.16a1.23,1.23,0,0,1-.7-.43,1.33,1.33,0,0,1-.23-.79,1,1,0,0,1,.11-.49,1.06,1.06,0,0,1,.29-.37,1.9,1.9,0,0,1,.43-.26,2.16,2.16,0,0,1,.51-.16v-.06a2.25,2.25,0,0,1-1-.85,2.53,2.53,0,0,1-.32-1.28,2.28,2.28,0,0,1,.77-1.79,3.26,3.26,0,0,1,2.25-.69,4.65,4.65,0,0,1,.66,0,2.44,2.44,0,0,1,.62.14v-.24c0-.71.34-1.07,1-1.07h1.14v1.38h-1.56V54a2.17,2.17,0,0,1,.86.84,2.55,2.55,0,0,1,.28,1.19,2.26,2.26,0,0,1-.77,1.78,3.32,3.32,0,0,1-2.26.67,4.63,4.63,0,0,1-1.12-.12,1,1,0,0,0-.36.26A.55.55,0,0,0,219,59c0,.37.32.55,1,.55h2a2.81,2.81,0,0,1,1.94.56A1.93,1.93,0,0,1,224.5,61.62Zm-1.68.21a.62.62,0,0,0-.28-.55,1.78,1.78,0,0,0-1-.2h-2.49a.91.91,0,0,0-.38.76.77.77,0,0,0,.35.66,2.21,2.21,0,0,0,1.19.24h.9a2.65,2.65,0,0,0,1.27-.23A.74.74,0,0,0,222.82,61.83Zm-2.16-4.6c.88,0,1.32-.37,1.32-1.12v-.23c0-.75-.44-1.12-1.32-1.12s-1.31.37-1.31,1.12v.23C219.35,56.86,219.79,57.23,220.66,57.23Zm7.75,3.94A3.76,3.76,0,0,1,227,60.9a3.09,3.09,0,0,1-1.08-.77,3.59,3.59,0,0,1-.67-1.2,5,5,0,0,1-.24-1.6,5.13,5.13,0,0,1,.23-1.57,3.54,3.54,0,0,1,.67-1.19,2.93,2.93,0,0,1,1.06-.77,3.61,3.61,0,0,1,1.43-.28,3.4,3.4,0,0,1,1.48.3,2.77,2.77,0,0,1,1,.8,3.25,3.25,0,0,1,.6,1.17,4.64,4.64,0,0,1,.21,1.42v.58h-4.86V58a1.8,1.8,0,0,0,.45,1.28,1.73,1.73,0,0,0,1.33.48,1.9,1.9,0,0,0,1.09-.28,3,3,0,0,0,.77-.71l1,1.07a3.06,3.06,0,0,1-1.23,1A4.36,4.36,0,0,1,228.41,61.17Zm0-6.3a1.46,1.46,0,0,0-1.14.47,1.81,1.81,0,0,0-.42,1.24v.11h3v-.13a1.89,1.89,0,0,0-.38-1.22A1.26,1.26,0,0,0,228.38,54.87ZM233.26,61V53.69h1.79V55.2h.07a2.92,2.92,0,0,1,.21-.56,1.75,1.75,0,0,1,.95-.82,2.07,2.07,0,0,1,.77-.13h.4v1.7h-.57a2.8,2.8,0,0,0-1.37.26.94.94,0,0,0-.46.87V61Zm8.8-10.36h1.79V54.9h.06a1.82,1.82,0,0,1,.74-1,2.22,2.22,0,0,1,1.28-.38,2.47,2.47,0,0,1,2.12,1,4.54,4.54,0,0,1,.75,2.81,4.64,4.64,0,0,1-.75,2.84,2.44,2.44,0,0,1-2.12,1,2.22,2.22,0,0,1-1.28-.38,2,2,0,0,1-.74-1h-.06V61h-1.79Zm3.29,9a1.48,1.48,0,0,0,1.14-.46,1.73,1.73,0,0,0,.43-1.24V56.72a1.74,1.74,0,0,0-.43-1.25,1.47,1.47,0,0,0-1.14-.48,1.76,1.76,0,0,0-1.08.33,1,1,0,0,0-.42.85v2.32a1,1,0,0,0,.42.89A1.88,1.88,0,0,0,245.35,59.68Zm8,1.49a3.56,3.56,0,0,1-1.42-.27,3,3,0,0,1-1.06-.77,3.59,3.59,0,0,1-.67-1.2,5,5,0,0,1-.24-1.6,4.86,4.86,0,0,1,.24-1.58,3.45,3.45,0,0,1,.67-1.19,3,3,0,0,1,1.06-.77,3.84,3.84,0,0,1,2.83,0,2.82,2.82,0,0,1,1.06.77,3.33,3.33,0,0,1,.69,1.19,4.86,4.86,0,0,1,.24,1.58,5,5,0,0,1-.24,1.6,3.46,3.46,0,0,1-.69,1.2,2.82,2.82,0,0,1-1.06.77A3.55,3.55,0,0,1,253.36,61.17Zm0-1.44a1.47,1.47,0,0,0,1.12-.44,1.79,1.79,0,0,0,.4-1.27V56.66a1.78,1.78,0,0,0-.4-1.26,1.46,1.46,0,0,0-1.12-.43,1.44,1.44,0,0,0-1.11.43,1.78,1.78,0,0,0-.41,1.26V58a1.79,1.79,0,0,0,.41,1.27A1.45,1.45,0,0,0,253.36,59.73ZM260.14,61a1.78,1.78,0,0,1-1.36-.46,1.82,1.82,0,0,1-.43-1.3v-8.6h1.79v8.93h1V61Zm3.22-8.37a1.12,1.12,0,0,1-.81-.25.92.92,0,0,1-.24-.65v-.28a.89.89,0,0,1,.24-.64,1.08,1.08,0,0,1,.81-.25,1.1,1.1,0,0,1,.8.25.9.9,0,0,1,.25.64v.28a.92.92,0,0,1-.25.65A1.14,1.14,0,0,1,263.36,52.63Zm-.9,1.06h1.79V61h-1.79Zm10.46,7.93a2.13,2.13,0,0,1-.21,1,1.73,1.73,0,0,1-.65.75,3.75,3.75,0,0,1-1.19.44,8.26,8.26,0,0,1-1.78.16,7.81,7.81,0,0,1-1.57-.13,3.4,3.4,0,0,1-1.06-.33,1.36,1.36,0,0,1-.59-.54,1.43,1.43,0,0,1-.18-.72,1.36,1.36,0,0,1,.33-1,1.78,1.78,0,0,1,1-.43v-.16a1.23,1.23,0,0,1-.7-.43,1.34,1.34,0,0,1-.24-.79,1.1,1.1,0,0,1,.11-.49,1.22,1.22,0,0,1,.3-.37,1.7,1.7,0,0,1,.43-.26,2.24,2.24,0,0,1,.5-.16v-.06a2.28,2.28,0,0,1-1-.85,2.44,2.44,0,0,1-.32-1.28,2.27,2.27,0,0,1,.76-1.79,3.3,3.3,0,0,1,2.26-.69,4.89,4.89,0,0,1,.66,0,2.27,2.27,0,0,1,.61.14v-.24a.94.94,0,0,1,1-1.07h1.13v1.38H271V54a2.15,2.15,0,0,1,.85.84,2.43,2.43,0,0,1,.28,1.19,2.23,2.23,0,0,1-.77,1.78,3.27,3.27,0,0,1-2.25.67,4.63,4.63,0,0,1-1.12-.12,1,1,0,0,0-.36.26.51.51,0,0,0-.16.39c0,.37.32.55.95.55h2a2.82,2.82,0,0,1,1.95.56A1.92,1.92,0,0,1,272.92,61.62Zm-1.68.21a.62.62,0,0,0-.28-.55,1.71,1.71,0,0,0-1-.2h-2.49a.91.91,0,0,0-.38.76.77.77,0,0,0,.35.66,2.18,2.18,0,0,0,1.19.24h.9a2.68,2.68,0,0,0,1.27-.23A.73.73,0,0,0,271.24,61.83Zm-2.15-4.6c.88,0,1.31-.37,1.31-1.12v-.23c0-.75-.43-1.12-1.31-1.12s-1.32.37-1.32,1.12v.23C267.77,56.86,268.21,57.23,269.09,57.23Zm7.26,3.94a3.62,3.62,0,0,1-3-1.35l1.09-1.06a3.49,3.49,0,0,0,.88.73,2.29,2.29,0,0,0,1.12.26,1.52,1.52,0,0,0,.93-.22.74.74,0,0,0,.29-.62.63.63,0,0,0-.21-.5,1.24,1.24,0,0,0-.68-.27l-.73-.09a3.55,3.55,0,0,1-1.82-.68,1.91,1.91,0,0,1-.62-1.54,2.24,2.24,0,0,1,.2-.95,2,2,0,0,1,.56-.73,2.41,2.41,0,0,1,.87-.46,3.69,3.69,0,0,1,1.14-.17,4.35,4.35,0,0,1,.94.09,2.93,2.93,0,0,1,.76.22,2.68,2.68,0,0,1,.61.37,4.73,4.73,0,0,1,.55.47l-1,1a2.78,2.78,0,0,0-.77-.56,2.17,2.17,0,0,0-1-.22,1.36,1.36,0,0,0-.85.21.67.67,0,0,0-.26.54.72.72,0,0,0,.21.56,1.57,1.57,0,0,0,.75.27l.74.1c1.58.22,2.36.94,2.36,2.15a2.11,2.11,0,0,1-.22,1,2.2,2.2,0,0,1-.6.76,2.94,2.94,0,0,1-1,.49A4.32,4.32,0,0,1,276.35,61.17Zm6.77-.17a2,2,0,0,1-1.42-.48,1.91,1.91,0,0,1-.47-1.38v-4h-1.08V53.69h.56a.68.68,0,0,0,.55-.18.92.92,0,0,0,.15-.57V51.69H283v2h1.5v1.43H283v4.45h1.39V61Zm2.14-.07.94-1.18a4.37,4.37,0,0,1-.62-2.42,4.86,4.86,0,0,1,.24-1.58,3.45,3.45,0,0,1,.67-1.19,3,3,0,0,1,1.07-.77,3.55,3.55,0,0,1,1.41-.27,3.24,3.24,0,0,1,1.89.54l.86-1,1,.73-1,1.18a3.71,3.71,0,0,1,.47,1.09,5.57,5.57,0,0,1-.07,2.91,3.51,3.51,0,0,1-.69,1.21,3,3,0,0,1-1.06.75,3.59,3.59,0,0,1-1.42.27,3.35,3.35,0,0,1-1.89-.52l-.84,1ZM289,59.81a1.44,1.44,0,0,0,1.15-.48,2,2,0,0,0,.42-1.35V56.3l-2.6,3.15A1.49,1.49,0,0,0,289,59.81Zm-1.54-1.46,2.58-3.1a1.47,1.47,0,0,0-1-.37,1.44,1.44,0,0,0-1.13.49,2,2,0,0,0-.41,1.35ZM296.24,61a1.94,1.94,0,0,1-1.41-.48,1.87,1.87,0,0,1-.48-1.38v-4h-1.07V53.69h.56a.65.65,0,0,0,.54-.18.92.92,0,0,0,.16-.57V51.69h1.61v2h1.49v1.43h-1.49v4.45h1.38V61Zm5.16,0a2,2,0,0,1-1.42-.48,1.91,1.91,0,0,1-.47-1.38v-4h-1.08V53.69H299a.68.68,0,0,0,.55-.18.92.92,0,0,0,.15-.57V51.69h1.61v2h1.5v1.43h-1.5v4.45h1.39V61Zm5.85.17a3.71,3.71,0,0,1-1.45-.27,3.09,3.09,0,0,1-1.08-.77,3.42,3.42,0,0,1-.67-1.2,5,5,0,0,1-.24-1.6,5.14,5.14,0,0,1,.22-1.57,3.54,3.54,0,0,1,.67-1.19,3,3,0,0,1,1.07-.77,3.58,3.58,0,0,1,1.43-.28,3.4,3.4,0,0,1,1.48.3,2.77,2.77,0,0,1,1,.8,3.25,3.25,0,0,1,.6,1.17,4.64,4.64,0,0,1,.21,1.42v.58h-4.86V58a1.8,1.8,0,0,0,.45,1.28,1.73,1.73,0,0,0,1.33.48,1.9,1.9,0,0,0,1.09-.28,3,3,0,0,0,.77-.71l1,1.07a3,3,0,0,1-1.24,1A4.33,4.33,0,0,1,307.25,61.17Zm0-6.3a1.46,1.46,0,0,0-1.13.47,1.81,1.81,0,0,0-.42,1.24v.11h3v-.13a1.89,1.89,0,0,0-.38-1.22A1.28,1.28,0,0,0,307.22,54.87ZM317.7,61a2,2,0,0,1-1.42-.48,1.87,1.87,0,0,1-.48-1.38v-4h-1.07V53.69h.56a.65.65,0,0,0,.54-.18.86.86,0,0,0,.16-.57V51.69h1.61v2h1.5v1.43h-1.5v4.45H319V61Zm3.85-8.37a1.16,1.16,0,0,1-.82-.25,1,1,0,0,1-.24-.65v-.28a.94.94,0,0,1,.24-.64,1.12,1.12,0,0,1,.82-.25,1.07,1.07,0,0,1,.79.25.87.87,0,0,1,.26.64v.28a.89.89,0,0,1-.26.65A1.12,1.12,0,0,1,321.55,52.63Zm-.9,1.06h1.79V61h-1.79ZM326.31,61a1.78,1.78,0,0,1-1.36-.46,1.82,1.82,0,0,1-.43-1.3v-8.6h1.79v8.93h1V61Z" transform="translate(-9 -18.57)" fill="#474e95"/>
    <path d="M350.5,257.5H9.5v37h341Z" transform="translate(-9 -18.57)" fill="#dcdcdc" stroke="#747474"/>
    <path d="M130.5,234.5H9.5v19h121Z" transform="translate(-9 -18.57)" fill="#bfbfbf" stroke="#747474"/>
    <path d="M350.5,188.5H9.5v37h341Z" transform="translate(-9 -18.57)" fill="#dcdcdc" stroke="#747474"/>
    <path d="M130.5,165.5H9.5v19h121Z" transform="translate(-9 -18.57)" fill="#bfbfbf" stroke="#747474"/>
    <path d="M290.5,119.5H9.5v37h281Z" transform="translate(-9 -18.57)" fill="#dcdcdc" stroke="#747474"/>
    <path d="M130.5,96.5H9.5v19h121Z" transform="translate(-9 -18.57)" fill="#bfbfbf" stroke="#747474"/>
    <path d="M95,304H10v35H95Z" transform="translate(-9 -18.57)" fill="#747474"/>
    <path d="M31.51,323.27,30.36,321h-.05V329h-2V317.83h2.32L34,323.56l1.15,2.32h0v-8.05h2V329H34.87Zm11.26,2.07a2.26,2.26,0,0,0-1.18.28.86.86,0,0,0-.42.77v.26a1,1,0,0,0,.32.78,1.48,1.48,0,0,0,1,.27,2.12,2.12,0,0,0,1.15-.3,1,1,0,0,0,.48-.9v-1.16Zm6.8-1.27v-.14a2.1,2.1,0,0,0-.43-1.39,1.42,1.42,0,0,0-1.22-.55,1.62,1.62,0,0,0-1.29.55,2,2,0,0,0-.48,1.4v.13Zm-1.36,3.46a2.42,2.42,0,0,0,1.27-.32,3.1,3.1,0,0,0,.86-.79l1.1,1.24a3.39,3.39,0,0,1-1.39,1.13,4.75,4.75,0,0,1-2,.4,4.56,4.56,0,0,1-1.14-.14,4,4,0,0,1-.94-.39,3.18,3.18,0,0,1-.69-.54,2.12,2.12,0,0,1-.43-.64h-.1a2,2,0,0,1-.35.62,2.23,2.23,0,0,1-.59.55,3.08,3.08,0,0,1-.88.38,3.72,3.72,0,0,1-1.17.16,2.7,2.7,0,0,1-2-.69,2.4,2.4,0,0,1-.69-1.79,2.5,2.5,0,0,1,.26-1.15,2.27,2.27,0,0,1,.72-.82,3.28,3.28,0,0,1,1.12-.49,5.58,5.58,0,0,1,1.47-.18h1.42v-.51a1.54,1.54,0,0,0-.36-1.09,1.6,1.6,0,0,0-1.17-.38,2.12,2.12,0,0,0-1.19.3,3.25,3.25,0,0,0-.73.75l-1.22-1.08a3.51,3.51,0,0,1,1.23-1.16,4.14,4.14,0,0,1,2-.44,2.59,2.59,0,0,1,1.53.4,2.7,2.7,0,0,1,.9,1h.09a2.46,2.46,0,0,1,1-1,3.48,3.48,0,0,1,1.73-.4,3.93,3.93,0,0,1,1.68.33,3.17,3.17,0,0,1,1.15.91,3.74,3.74,0,0,1,.68,1.35,5.59,5.59,0,0,1,.22,1.61v.68H46.13v.2a1.91,1.91,0,0,0,.55,1.44A2,2,0,0,0,48.21,327.53Zm8,1.66a4.55,4.55,0,0,1-2-.4,4.71,4.71,0,0,1-1.44-1.13L54,326.44a3.88,3.88,0,0,0,1,.83,2.55,2.55,0,0,0,1.28.31,1.68,1.68,0,0,0,1.05-.26.81.81,0,0,0,.34-.7.73.73,0,0,0-.24-.58,1.35,1.35,0,0,0-.78-.3l-.84-.12a4.05,4.05,0,0,1-2.08-.76,2.21,2.21,0,0,1-.7-1.76A2.53,2.53,0,0,1,53.3,322a2.29,2.29,0,0,1,.64-.83,2.74,2.74,0,0,1,1-.53,4.15,4.15,0,0,1,1.31-.19,5.7,5.7,0,0,1,1.07.09,3.47,3.47,0,0,1,.86.26,3.13,3.13,0,0,1,.71.41,6.27,6.27,0,0,1,.62.55l-1.2,1.2a3,3,0,0,0-.88-.64,2.46,2.46,0,0,0-1.12-.26,1.55,1.55,0,0,0-1,.24.76.76,0,0,0-.29.63.84.84,0,0,0,.24.64,1.77,1.77,0,0,0,.85.3L57,324c1.81.26,2.71,1.08,2.71,2.47a2.53,2.53,0,0,1-.95,2,3.34,3.34,0,0,1-1.08.56A4.76,4.76,0,0,1,56.25,329.19ZM64,329a2.26,2.26,0,0,1-1.62-.54,2.2,2.2,0,0,1-.54-1.59v-4.59H60.59v-1.63h.64a.74.74,0,0,0,.62-.21,1,1,0,0,0,.18-.66v-1.42h1.84v2.29h1.71v1.63H63.87v5.09h1.58V329Zm6.69.19a4.35,4.35,0,0,1-1.66-.3,3.68,3.68,0,0,1-1.24-.88,4.1,4.1,0,0,1-.76-1.38,5.48,5.48,0,0,1-.28-1.82A5.86,5.86,0,0,1,67,323a3.83,3.83,0,0,1,.77-1.36,3.13,3.13,0,0,1,1.21-.88,3.9,3.9,0,0,1,1.64-.32,4,4,0,0,1,1.69.33,3.4,3.4,0,0,1,1.19.91,4.09,4.09,0,0,1,.68,1.35,5.27,5.27,0,0,1,.24,1.61v.68H68.86v.2a2.13,2.13,0,0,0,.51,1.48,2,2,0,0,0,1.52.54,2.23,2.23,0,0,0,1.25-.32,3.25,3.25,0,0,0,.88-.82l1.11,1.24a3.52,3.52,0,0,1-1.41,1.13A4.87,4.87,0,0,1,70.67,329.19Zm0-7.2a1.62,1.62,0,0,0-1.3.55,2,2,0,0,0-.48,1.4v.13h3.43v-.14a2.1,2.1,0,0,0-.44-1.39A1.41,1.41,0,0,0,70.64,322Z" transform="translate(-9 -18.57)" fill="#f5f5f5"/>
</svg>
