<svg width="360" height="360" viewBox="0 0 360 360" fill="none" xmlns="http://www.w3.org/2000/svg">
<path d="M25.382 47.216C24.302 47.216 23.384 47.024 22.628 46.64C21.884 46.256 21.242 45.752 20.702 45.128L22.304 43.58C22.736 44.084 23.216 44.468 23.744 44.732C24.284 44.996 24.878 45.128 25.526 45.128C26.258 45.128 26.81 44.972 27.182 44.66C27.554 44.336 27.74 43.904 27.74 43.364C27.74 42.944 27.62 42.602 27.38 42.338C27.14 42.074 26.69 41.882 26.03 41.762L24.842 41.582C22.334 41.186 21.08 39.968 21.08 37.928C21.08 37.364 21.182 36.854 21.386 36.398C21.602 35.942 21.908 35.552 22.304 35.228C22.7 34.904 23.174 34.658 23.726 34.49C24.29 34.31 24.926 34.22 25.634 34.22C26.582 34.22 27.41 34.376 28.118 34.688C28.826 35 29.432 35.462 29.936 36.074L28.316 37.604C28.004 37.22 27.626 36.908 27.182 36.668C26.738 36.428 26.18 36.308 25.508 36.308C24.824 36.308 24.308 36.44 23.96 36.704C23.624 36.956 23.456 37.316 23.456 37.784C23.456 38.264 23.594 38.618 23.87 38.846C24.146 39.074 24.59 39.242 25.202 39.35L26.372 39.566C27.644 39.794 28.58 40.202 29.18 40.79C29.792 41.366 30.098 42.176 30.098 43.22C30.098 43.82 29.99 44.366 29.774 44.858C29.57 45.338 29.264 45.758 28.856 46.118C28.46 46.466 27.968 46.736 27.38 46.928C26.804 47.12 26.138 47.216 25.382 47.216ZM32.3359 33.68H34.6399V41.708H34.7299L35.9719 40.016L38.0779 37.604H40.6879L37.4479 41.24L41.0299 47H38.2939L35.8819 42.788L34.6399 44.138V47H32.3359V33.68ZM42.4433 47V37.604H44.7473V39.548H44.8373C44.8973 39.296 44.9873 39.056 45.1073 38.828C45.2393 38.588 45.4073 38.378 45.6113 38.198C45.8153 38.018 46.0553 37.874 46.3313 37.766C46.6193 37.658 46.9493 37.604 47.3213 37.604H47.8253V39.782H47.1053C46.3253 39.782 45.7373 39.896 45.3413 40.124C44.9453 40.352 44.7473 40.724 44.7473 41.24V47H42.4433ZM50.6617 36.236C50.1817 36.236 49.8337 36.128 49.6177 35.912C49.4137 35.696 49.3117 35.42 49.3117 35.084V34.724C49.3117 34.388 49.4137 34.112 49.6177 33.896C49.8337 33.68 50.1817 33.572 50.6617 33.572C51.1297 33.572 51.4717 33.68 51.6877 33.896C51.9037 34.112 52.0117 34.388 52.0117 34.724V35.084C52.0117 35.42 51.9037 35.696 51.6877 35.912C51.4717 36.128 51.1297 36.236 50.6617 36.236ZM49.5097 37.604H51.8137V47H49.5097V37.604ZM56.5003 47L53.3683 37.604H55.6363L56.9503 41.654L57.8683 45.002H57.9943L58.9123 41.654L60.1903 37.604H62.3863L59.2363 47H56.5003ZM74.0097 45.434H73.9197C73.7517 45.974 73.4337 46.406 72.9657 46.73C72.4977 47.054 71.9517 47.216 71.3277 47.216C70.1397 47.216 69.2277 46.79 68.5917 45.938C67.9677 45.086 67.6557 43.868 67.6557 42.284C67.6557 40.712 67.9677 39.506 68.5917 38.666C69.2277 37.814 70.1397 37.388 71.3277 37.388C71.9517 37.388 72.4977 37.55 72.9657 37.874C73.4337 38.186 73.7517 38.612 73.9197 39.152H74.0097V33.68H76.3137V47H74.0097V45.434ZM72.0657 45.308C72.6177 45.308 73.0797 45.176 73.4517 44.912C73.8237 44.648 74.0097 44.27 74.0097 43.778V40.79C74.0097 40.334 73.8237 39.968 73.4517 39.692C73.0797 39.416 72.6177 39.278 72.0657 39.278C71.4657 39.278 70.9797 39.482 70.6077 39.89C70.2477 40.286 70.0677 40.82 70.0677 41.492V43.112C70.0677 43.784 70.2477 44.318 70.6077 44.714C70.9797 45.11 71.4657 45.308 72.0657 45.308ZM80.1227 36.236C79.6427 36.236 79.2947 36.128 79.0787 35.912C78.8747 35.696 78.7727 35.42 78.7727 35.084V34.724C78.7727 34.388 78.8747 34.112 79.0787 33.896C79.2947 33.68 79.6427 33.572 80.1227 33.572C80.5907 33.572 80.9327 33.68 81.1487 33.896C81.3647 34.112 81.4727 34.388 81.4727 34.724V35.084C81.4727 35.42 81.3647 35.696 81.1487 35.912C80.9327 36.128 80.5907 36.236 80.1227 36.236ZM78.9707 37.604H81.2747V47H78.9707V37.604ZM86.8793 47C86.0873 47 85.4813 46.796 85.0613 46.388C84.6533 45.968 84.4493 45.374 84.4493 44.606V39.44H83.0633V37.604H83.7833C84.1313 37.604 84.3653 37.526 84.4853 37.37C84.6173 37.202 84.6833 36.956 84.6833 36.632V35.03H86.7533V37.604H88.6793V39.44H86.7533V45.164H88.5353V47H86.8793ZM94.9316 33.68H97.2356V39.152H97.3076C97.4756 38.612 97.7936 38.186 98.2616 37.874C98.7296 37.55 99.2756 37.388 99.8996 37.388C101.1 37.388 102.012 37.814 102.636 38.666C103.272 39.506 103.59 40.712 103.59 42.284C103.59 43.868 103.272 45.086 102.636 45.938C102.012 46.79 101.1 47.216 99.8996 47.216C99.2756 47.216 98.7296 47.054 98.2616 46.73C97.8056 46.406 97.4876 45.974 97.3076 45.434H97.2356V47H94.9316V33.68ZM99.1616 45.308C99.7616 45.308 100.248 45.11 100.62 44.714C100.992 44.318 101.178 43.784 101.178 43.112V41.492C101.178 40.82 100.992 40.286 100.62 39.89C100.248 39.482 99.7616 39.278 99.1616 39.278C98.6096 39.278 98.1476 39.416 97.7756 39.692C97.4156 39.968 97.2356 40.334 97.2356 40.79V43.778C97.2356 44.27 97.4156 44.648 97.7756 44.912C98.1476 45.176 98.6096 45.308 99.1616 45.308ZM112.637 47C112.133 47 111.731 46.856 111.431 46.568C111.143 46.268 110.963 45.872 110.891 45.38H110.783C110.627 45.992 110.309 46.454 109.829 46.766C109.349 47.066 108.755 47.216 108.047 47.216C107.087 47.216 106.349 46.964 105.833 46.46C105.317 45.956 105.059 45.284 105.059 44.444C105.059 43.472 105.407 42.752 106.103 42.284C106.799 41.804 107.789 41.564 109.073 41.564H110.675V40.88C110.675 40.352 110.537 39.944 110.261 39.656C109.985 39.368 109.541 39.224 108.929 39.224C108.389 39.224 107.951 39.344 107.615 39.584C107.291 39.812 107.015 40.088 106.787 40.412L105.419 39.188C105.767 38.648 106.229 38.216 106.805 37.892C107.381 37.556 108.143 37.388 109.091 37.388C110.363 37.388 111.329 37.676 111.989 38.252C112.649 38.828 112.979 39.656 112.979 40.736V45.164H113.915V47H112.637ZM108.821 45.542C109.337 45.542 109.775 45.428 110.135 45.2C110.495 44.972 110.675 44.636 110.675 44.192V42.95H109.199C107.999 42.95 107.399 43.334 107.399 44.102V44.408C107.399 44.792 107.519 45.08 107.759 45.272C108.011 45.452 108.365 45.542 108.821 45.542ZM115.779 47V37.604H118.083V39.548H118.173C118.233 39.296 118.323 39.056 118.443 38.828C118.575 38.588 118.743 38.378 118.947 38.198C119.151 38.018 119.391 37.874 119.667 37.766C119.955 37.658 120.285 37.604 120.657 37.604H121.161V39.782H120.441C119.661 39.782 119.073 39.896 118.677 40.124C118.281 40.352 118.083 40.724 118.083 41.24V47H115.779ZM122.846 47V37.604H125.15V39.17H125.24C125.432 38.666 125.732 38.246 126.14 37.91C126.56 37.562 127.136 37.388 127.868 37.388C128.84 37.388 129.584 37.706 130.1 38.342C130.616 38.978 130.874 39.884 130.874 41.06V47H128.57V41.294C128.57 40.622 128.45 40.118 128.21 39.782C127.97 39.446 127.574 39.278 127.022 39.278C126.782 39.278 126.548 39.314 126.32 39.386C126.104 39.446 125.906 39.542 125.726 39.674C125.558 39.794 125.42 39.95 125.312 40.142C125.204 40.322 125.15 40.538 125.15 40.79V47H122.846ZM141.408 47.216C140.736 47.216 140.13 47.102 139.59 46.874C139.062 46.646 138.606 46.316 138.222 45.884C137.85 45.452 137.562 44.936 137.358 44.336C137.154 43.724 137.052 43.04 137.052 42.284C137.052 41.528 137.154 40.85 137.358 40.25C137.562 39.65 137.85 39.14 138.222 38.72C138.606 38.288 139.062 37.958 139.59 37.73C140.13 37.502 140.736 37.388 141.408 37.388C142.08 37.388 142.686 37.502 143.226 37.73C143.766 37.958 144.222 38.288 144.594 38.72C144.978 39.14 145.272 39.65 145.476 40.25C145.68 40.85 145.782 41.528 145.782 42.284C145.782 43.04 145.68 43.724 145.476 44.336C145.272 44.936 144.978 45.452 144.594 45.884C144.222 46.316 143.766 46.646 143.226 46.874C142.686 47.102 142.08 47.216 141.408 47.216ZM141.408 45.362C142.02 45.362 142.5 45.176 142.848 44.804C143.196 44.432 143.37 43.886 143.37 43.166V41.42C143.37 40.712 143.196 40.172 142.848 39.8C142.5 39.428 142.02 39.242 141.408 39.242C140.808 39.242 140.334 39.428 139.986 39.8C139.638 40.172 139.464 40.712 139.464 41.42V43.166C139.464 43.886 139.638 44.432 139.986 44.804C140.334 45.176 140.808 45.362 141.408 45.362ZM147.824 37.604H150.128V39.152H150.2C150.368 38.612 150.686 38.186 151.154 37.874C151.622 37.55 152.168 37.388 152.792 37.388C153.992 37.388 154.904 37.814 155.528 38.666C156.164 39.506 156.482 40.712 156.482 42.284C156.482 43.868 156.164 45.086 155.528 45.938C154.904 46.79 153.992 47.216 152.792 47.216C152.168 47.216 151.622 47.054 151.154 46.73C150.698 46.406 150.38 45.974 150.2 45.434H150.128V50.6H147.824V37.604ZM152.054 45.308C152.654 45.308 153.14 45.11 153.512 44.714C153.884 44.318 154.07 43.784 154.07 43.112V41.492C154.07 40.82 153.884 40.286 153.512 39.89C153.14 39.482 152.654 39.278 152.054 39.278C151.502 39.278 151.04 39.416 150.668 39.692C150.308 39.968 150.128 40.334 150.128 40.79V43.778C150.128 44.27 150.308 44.648 150.668 44.912C151.04 45.176 151.502 45.308 152.054 45.308ZM165.805 47C165.013 47 164.407 46.796 163.987 46.388C163.579 45.968 163.375 45.374 163.375 44.606V39.44H161.989V37.604H162.709C163.057 37.604 163.291 37.526 163.411 37.37C163.543 37.202 163.609 36.956 163.609 36.632V35.03H165.679V37.604H167.605V39.44H165.679V45.164H167.461V47H165.805ZM170.755 36.236C170.275 36.236 169.927 36.128 169.711 35.912C169.507 35.696 169.405 35.42 169.405 35.084V34.724C169.405 34.388 169.507 34.112 169.711 33.896C169.927 33.68 170.275 33.572 170.755 33.572C171.223 33.572 171.565 33.68 171.781 33.896C171.997 34.112 172.105 34.388 172.105 34.724V35.084C172.105 35.42 171.997 35.696 171.781 35.912C171.565 36.128 171.223 36.236 170.755 36.236ZM169.603 37.604H171.907V47H169.603V37.604ZM176.882 47C176.09 47 175.508 46.802 175.136 46.406C174.764 46.01 174.578 45.452 174.578 44.732V33.68H176.882V45.164H178.124V47H176.882ZM184.123 37.604H186.427V39.152H186.499C186.667 38.612 186.985 38.186 187.453 37.874C187.921 37.55 188.467 37.388 189.091 37.388C190.291 37.388 191.203 37.814 191.827 38.666C192.463 39.506 192.781 40.712 192.781 42.284C192.781 43.868 192.463 45.086 191.827 45.938C191.203 46.79 190.291 47.216 189.091 47.216C188.467 47.216 187.921 47.054 187.453 46.73C186.997 46.406 186.679 45.974 186.499 45.434H186.427V50.6H184.123V37.604ZM188.353 45.308C188.953 45.308 189.439 45.11 189.811 44.714C190.183 44.318 190.369 43.784 190.369 43.112V41.492C190.369 40.82 190.183 40.286 189.811 39.89C189.439 39.482 188.953 39.278 188.353 39.278C187.801 39.278 187.339 39.416 186.967 39.692C186.607 39.968 186.427 40.334 186.427 40.79V43.778C186.427 44.27 186.607 44.648 186.967 44.912C187.339 45.176 187.801 45.308 188.353 45.308ZM201.828 47C201.324 47 200.922 46.856 200.622 46.568C200.334 46.268 200.154 45.872 200.082 45.38H199.974C199.818 45.992 199.5 46.454 199.02 46.766C198.54 47.066 197.946 47.216 197.238 47.216C196.278 47.216 195.54 46.964 195.024 46.46C194.508 45.956 194.25 45.284 194.25 44.444C194.25 43.472 194.598 42.752 195.294 42.284C195.99 41.804 196.98 41.564 198.264 41.564H199.866V40.88C199.866 40.352 199.728 39.944 199.452 39.656C199.176 39.368 198.732 39.224 198.12 39.224C197.58 39.224 197.142 39.344 196.806 39.584C196.482 39.812 196.206 40.088 195.978 40.412L194.61 39.188C194.958 38.648 195.42 38.216 195.996 37.892C196.572 37.556 197.334 37.388 198.282 37.388C199.554 37.388 200.52 37.676 201.18 38.252C201.84 38.828 202.17 39.656 202.17 40.736V45.164H203.106V47H201.828ZM198.012 45.542C198.528 45.542 198.966 45.428 199.326 45.2C199.686 44.972 199.866 44.636 199.866 44.192V42.95H198.39C197.19 42.95 196.59 43.334 196.59 44.102V44.408C196.59 44.792 196.71 45.08 196.95 45.272C197.202 45.452 197.556 45.542 198.012 45.542ZM208.049 47.216C207.149 47.216 206.393 47.066 205.781 46.766C205.169 46.454 204.629 46.028 204.161 45.488L205.565 44.12C205.913 44.516 206.291 44.828 206.699 45.056C207.119 45.284 207.599 45.398 208.139 45.398C208.691 45.398 209.087 45.302 209.327 45.11C209.579 44.918 209.705 44.654 209.705 44.318C209.705 44.042 209.615 43.826 209.435 43.67C209.267 43.502 208.973 43.388 208.553 43.328L207.617 43.202C206.597 43.07 205.817 42.782 205.277 42.338C204.749 41.882 204.485 41.222 204.485 40.358C204.485 39.902 204.569 39.494 204.737 39.134C204.905 38.762 205.145 38.45 205.457 38.198C205.769 37.934 206.141 37.736 206.573 37.604C207.017 37.46 207.509 37.388 208.049 37.388C208.505 37.388 208.907 37.424 209.255 37.496C209.615 37.556 209.939 37.652 210.227 37.784C210.515 37.904 210.779 38.06 211.019 38.252C211.259 38.432 211.493 38.636 211.721 38.864L210.371 40.214C210.095 39.926 209.765 39.686 209.381 39.494C208.997 39.302 208.577 39.206 208.121 39.206C207.617 39.206 207.251 39.296 207.023 39.476C206.807 39.656 206.699 39.89 206.699 40.178C206.699 40.49 206.789 40.73 206.969 40.898C207.161 41.054 207.479 41.168 207.923 41.24L208.877 41.366C210.905 41.654 211.919 42.578 211.919 44.138C211.919 44.594 211.823 45.014 211.631 45.398C211.451 45.77 211.193 46.094 210.857 46.37C210.521 46.634 210.113 46.844 209.633 47C209.165 47.144 208.637 47.216 208.049 47.216ZM213.953 47V37.604H216.257V39.17H216.347C216.539 38.666 216.839 38.246 217.247 37.91C217.667 37.562 218.243 37.388 218.975 37.388C219.947 37.388 220.691 37.706 221.207 38.342C221.723 38.978 221.981 39.884 221.981 41.06V47H219.677V41.294C219.677 40.622 219.557 40.118 219.317 39.782C219.077 39.446 218.681 39.278 218.129 39.278C217.889 39.278 217.655 39.314 217.427 39.386C217.211 39.446 217.013 39.542 216.833 39.674C216.665 39.794 216.527 39.95 216.419 40.142C216.311 40.322 216.257 40.538 216.257 40.79V47H213.953ZM225.687 36.236C225.207 36.236 224.859 36.128 224.643 35.912C224.439 35.696 224.337 35.42 224.337 35.084V34.724C224.337 34.388 224.439 34.112 224.643 33.896C224.859 33.68 225.207 33.572 225.687 33.572C226.155 33.572 226.497 33.68 226.713 33.896C226.929 34.112 227.037 34.388 227.037 34.724V35.084C227.037 35.42 226.929 35.696 226.713 35.912C226.497 36.128 226.155 36.236 225.687 36.236ZM224.535 37.604H226.839V47H224.535V37.604ZM229.51 47V37.604H231.814V39.17H231.904C232.096 38.666 232.396 38.246 232.804 37.91C233.224 37.562 233.8 37.388 234.532 37.388C235.504 37.388 236.248 37.706 236.764 38.342C237.28 38.978 237.538 39.884 237.538 41.06V47H235.234V41.294C235.234 40.622 235.114 40.118 234.874 39.782C234.634 39.446 234.238 39.278 233.686 39.278C233.446 39.278 233.212 39.314 232.984 39.386C232.768 39.446 232.57 39.542 232.39 39.674C232.222 39.794 232.084 39.95 231.976 40.142C231.868 40.322 231.814 40.538 231.814 40.79V47H229.51ZM248.57 47.792C248.57 48.284 248.48 48.716 248.3 49.088C248.132 49.472 247.85 49.79 247.454 50.042C247.058 50.294 246.548 50.486 245.924 50.618C245.3 50.75 244.538 50.816 243.638 50.816C242.846 50.816 242.174 50.762 241.622 50.654C241.07 50.558 240.614 50.414 240.254 50.222C239.906 50.042 239.654 49.814 239.498 49.538C239.342 49.262 239.264 48.95 239.264 48.602C239.264 48.074 239.408 47.66 239.696 47.36C239.996 47.072 240.41 46.886 240.938 46.802V46.604C240.554 46.508 240.254 46.322 240.038 46.046C239.834 45.758 239.732 45.422 239.732 45.038C239.732 44.798 239.78 44.588 239.876 44.408C239.972 44.216 240.098 44.054 240.254 43.922C240.422 43.79 240.608 43.682 240.812 43.598C241.016 43.502 241.232 43.43 241.46 43.382V43.31C240.884 43.046 240.452 42.68 240.164 42.212C239.888 41.744 239.75 41.198 239.75 40.574C239.75 39.614 240.08 38.846 240.74 38.27C241.4 37.682 242.366 37.388 243.638 37.388C243.926 37.388 244.208 37.406 244.484 37.442C244.772 37.478 245.036 37.538 245.276 37.622V37.316C245.276 36.404 245.72 35.948 246.608 35.948H248.066V37.712H246.068V37.964C246.56 38.24 246.926 38.6 247.166 39.044C247.406 39.488 247.526 39.998 247.526 40.574C247.526 41.522 247.196 42.284 246.536 42.86C245.888 43.436 244.922 43.724 243.638 43.724C243.086 43.724 242.606 43.67 242.198 43.562C242.018 43.646 241.862 43.76 241.73 43.904C241.598 44.036 241.532 44.204 241.532 44.408C241.532 44.876 241.94 45.11 242.756 45.11H245.276C246.428 45.11 247.262 45.35 247.778 45.83C248.306 46.298 248.57 46.952 248.57 47.792ZM246.41 48.062C246.41 47.762 246.29 47.528 246.05 47.36C245.81 47.192 245.396 47.108 244.808 47.108H241.604C241.28 47.348 241.118 47.672 241.118 48.08C241.118 48.44 241.268 48.722 241.568 48.926C241.868 49.13 242.378 49.232 243.098 49.232H244.25C245.006 49.232 245.552 49.136 245.888 48.944C246.236 48.752 246.41 48.458 246.41 48.062ZM243.638 42.158C244.766 42.158 245.33 41.678 245.33 40.718V40.412C245.33 39.452 244.766 38.972 243.638 38.972C242.51 38.972 241.946 39.452 241.946 40.412V40.718C241.946 41.678 242.51 42.158 243.638 42.158Z" fill="#474E95"/>
<path d="M340.5 235.5H19.5V276.5H340.5V235.5Z" fill="#DCDCDC" stroke="#747474"/>
<path d="M140.5 212.5H19.5V231.5H140.5V212.5Z" fill="#BFBFBF" stroke="#747474"/>
<path d="M311.5 162.5H19.5V203.5H311.5V162.5Z" fill="#DCDCDC" stroke="#747474"/>
<path d="M140.5 139.5H19.5V158.5H140.5V139.5Z" fill="#BFBFBF" stroke="#747474"/>
<path d="M259.5 89.5H20.5V130.5H259.5V89.5Z" fill="#DCDCDC" stroke="#747474"/>
<path d="M141.5 66.5H20.5V85.5H141.5V66.5Z" fill="#BFBFBF" stroke="#747474"/>
<path d="M105 286H20V321H105V286Z" fill="#747474"/>
<path d="M41.512 305.272L40.36 302.952H40.312V311H38.312V299.832H40.632L43.992 305.56L45.144 307.88H45.192V299.832H47.192V311H44.872L41.512 305.272ZM52.772 307.336C52.26 307.347 51.8653 307.443 51.588 307.624C51.3107 307.795 51.172 308.051 51.172 308.392V308.648C51.172 308.989 51.2787 309.251 51.492 309.432C51.7053 309.613 52.0253 309.704 52.452 309.704C52.9 309.704 53.284 309.603 53.604 309.4C53.924 309.197 54.084 308.899 54.084 308.504V307.336H52.772ZM59.572 306.072V305.928C59.572 305.352 59.428 304.888 59.14 304.536C58.8627 304.173 58.4573 303.992 57.924 303.992C57.38 303.992 56.948 304.173 56.628 304.536C56.308 304.899 56.148 305.368 56.148 305.944V306.072H59.572ZM58.212 309.528C58.7133 309.528 59.1347 309.421 59.476 309.208C59.8173 308.995 60.1053 308.733 60.34 308.424L61.444 309.656C61.1027 310.136 60.6387 310.515 60.052 310.792C59.4653 311.059 58.7933 311.192 58.036 311.192C57.6307 311.192 57.252 311.144 56.9 311.048C56.548 310.952 56.2333 310.824 55.956 310.664C55.6893 310.504 55.46 310.323 55.268 310.12C55.076 309.917 54.932 309.704 54.836 309.48H54.74C54.6653 309.693 54.548 309.901 54.388 310.104C54.2387 310.307 54.0413 310.488 53.796 310.648C53.5507 310.808 53.2573 310.936 52.916 311.032C52.5853 311.139 52.196 311.192 51.748 311.192C50.9053 311.192 50.2493 310.963 49.78 310.504C49.3213 310.045 49.092 309.448 49.092 308.712C49.092 308.275 49.1773 307.891 49.348 307.56C49.5187 307.229 49.7587 306.957 50.068 306.744C50.3773 306.52 50.7507 306.355 51.188 306.248C51.6253 306.131 52.116 306.072 52.66 306.072H54.084V305.56C54.084 305.091 53.9613 304.728 53.716 304.472C53.4707 304.216 53.0813 304.088 52.548 304.088C52.0573 304.088 51.6627 304.189 51.364 304.392C51.076 304.595 50.8307 304.845 50.628 305.144L49.412 304.056C49.7213 303.576 50.132 303.192 50.644 302.904C51.156 302.605 51.8333 302.456 52.676 302.456C53.316 302.456 53.828 302.589 54.212 302.856C54.596 303.112 54.8947 303.437 55.108 303.832H55.204C55.4173 303.437 55.764 303.112 56.244 302.856C56.724 302.589 57.3 302.456 57.972 302.456C58.6227 302.456 59.1827 302.568 59.652 302.792C60.1213 303.016 60.5053 303.32 60.804 303.704C61.1133 304.088 61.3373 304.536 61.476 305.048C61.6253 305.549 61.7 306.088 61.7 306.664V307.336H56.132V307.544C56.132 308.141 56.3133 308.621 56.676 308.984C57.0387 309.347 57.5507 309.528 58.212 309.528ZM66.2481 311.192C65.4481 311.192 64.7761 311.059 64.2321 310.792C63.6881 310.515 63.2081 310.136 62.7921 309.656L64.0401 308.44C64.3495 308.792 64.6855 309.069 65.0481 309.272C65.4215 309.475 65.8481 309.576 66.3281 309.576C66.8188 309.576 67.1708 309.491 67.3841 309.32C67.6081 309.149 67.7201 308.915 67.7201 308.616C67.7201 308.371 67.6401 308.179 67.4801 308.04C67.3308 307.891 67.0695 307.789 66.6961 307.736L65.8641 307.624C64.9575 307.507 64.2641 307.251 63.7841 306.856C63.3148 306.451 63.0801 305.864 63.0801 305.096C63.0801 304.691 63.1548 304.328 63.3041 304.008C63.4535 303.677 63.6668 303.4 63.9441 303.176C64.2215 302.941 64.5521 302.765 64.9361 302.648C65.3308 302.52 65.7681 302.456 66.2481 302.456C66.6535 302.456 67.0108 302.488 67.3201 302.552C67.6401 302.605 67.9281 302.691 68.1841 302.808C68.4401 302.915 68.6748 303.053 68.8881 303.224C69.1015 303.384 69.3095 303.565 69.5121 303.768L68.3121 304.968C68.0668 304.712 67.7735 304.499 67.4321 304.328C67.0908 304.157 66.7175 304.072 66.3121 304.072C65.8641 304.072 65.5388 304.152 65.3361 304.312C65.1441 304.472 65.0481 304.68 65.0481 304.936C65.0481 305.213 65.1281 305.427 65.2881 305.576C65.4588 305.715 65.7415 305.816 66.1361 305.88L66.9841 305.992C68.7868 306.248 69.6881 307.069 69.6881 308.456C69.6881 308.861 69.6028 309.235 69.4321 309.576C69.2721 309.907 69.0428 310.195 68.7441 310.44C68.4455 310.675 68.0828 310.861 67.6561 311C67.2401 311.128 66.7708 311.192 66.2481 311.192ZM73.9795 311C73.2755 311 72.7368 310.819 72.3635 310.456C72.0008 310.083 71.8195 309.555 71.8195 308.872V304.28H70.5875V302.648H71.2275C71.5368 302.648 71.7448 302.579 71.8515 302.44C71.9688 302.291 72.0275 302.072 72.0275 301.784V300.36H73.8675V302.648H75.5795V304.28H73.8675V309.368H75.4515V311H73.9795ZM80.6694 311.192C80.0507 311.192 79.496 311.091 79.0054 310.888C78.5254 310.675 78.1147 310.381 77.7734 310.008C77.4427 309.624 77.1867 309.165 77.0054 308.632C76.824 308.088 76.7334 307.48 76.7334 306.808C76.7334 306.147 76.8187 305.549 76.9894 305.016C77.1707 304.483 77.4267 304.029 77.7574 303.656C78.088 303.272 78.4934 302.979 78.9734 302.776C79.4534 302.563 79.9974 302.456 80.6054 302.456C81.256 302.456 81.8214 302.568 82.3014 302.792C82.7814 303.016 83.176 303.32 83.4854 303.704C83.7947 304.088 84.024 304.536 84.1734 305.048C84.3334 305.549 84.4134 306.088 84.4134 306.664V307.336H78.8614V307.544C78.8614 308.152 79.032 308.643 79.3734 309.016C79.7147 309.379 80.2214 309.56 80.8934 309.56C81.4054 309.56 81.8214 309.453 82.1414 309.24C82.472 309.027 82.7654 308.755 83.0214 308.424L84.1254 309.656C83.784 310.136 83.3147 310.515 82.7174 310.792C82.1307 311.059 81.448 311.192 80.6694 311.192ZM80.6374 303.992C80.0934 303.992 79.6614 304.173 79.3414 304.536C79.0214 304.899 78.8614 305.368 78.8614 305.944V306.072H82.2854V305.928C82.2854 305.352 82.1414 304.888 81.8534 304.536C81.576 304.173 81.1707 303.992 80.6374 303.992Z" fill="#F5F5F5"/>
</svg>
