<svg width="360" height="360" viewBox="0 0 360 360" fill="none" xmlns="http://www.w3.org/2000/svg">
<path d="M21.476 33.436H26.048C26.864 33.436 27.602 33.568 28.262 33.832C28.934 34.096 29.504 34.492 29.972 35.02C30.452 35.536 30.818 36.19 31.07 36.982C31.334 37.762 31.466 38.674 31.466 39.718C31.466 40.762 31.334 41.68 31.07 42.472C30.818 43.252 30.452 43.906 29.972 44.434C29.504 44.95 28.934 45.34 28.262 45.604C27.602 45.868 26.864 46 26.048 46H21.476V33.436ZM26.048 43.894C26.936 43.894 27.638 43.636 28.154 43.12C28.682 42.592 28.946 41.788 28.946 40.708V38.728C28.946 37.648 28.682 36.85 28.154 36.334C27.638 35.806 26.936 35.542 26.048 35.542H23.852V43.894H26.048ZM34.8942 35.236C34.4142 35.236 34.0662 35.128 33.8502 34.912C33.6462 34.696 33.5442 34.42 33.5442 34.084V33.724C33.5442 33.388 33.6462 33.112 33.8502 32.896C34.0662 32.68 34.4142 32.572 34.8942 32.572C35.3622 32.572 35.7042 32.68 35.9202 32.896C36.1362 33.112 36.2442 33.388 36.2442 33.724V34.084C36.2442 34.42 36.1362 34.696 35.9202 34.912C35.7042 35.128 35.3622 35.236 34.8942 35.236ZM33.7422 36.604H36.0462V46H33.7422V36.604ZM47.1948 46.792C47.1948 47.284 47.1048 47.716 46.9248 48.088C46.7568 48.472 46.4748 48.79 46.0788 49.042C45.6828 49.294 45.1728 49.486 44.5488 49.618C43.9248 49.75 43.1628 49.816 42.2628 49.816C41.4708 49.816 40.7988 49.762 40.2468 49.654C39.6948 49.558 39.2388 49.414 38.8788 49.222C38.5308 49.042 38.2788 48.814 38.1228 48.538C37.9668 48.262 37.8888 47.95 37.8888 47.602C37.8888 47.074 38.0328 46.66 38.3208 46.36C38.6208 46.072 39.0348 45.886 39.5628 45.802V45.604C39.1788 45.508 38.8788 45.322 38.6628 45.046C38.4588 44.758 38.3568 44.422 38.3568 44.038C38.3568 43.798 38.4048 43.588 38.5008 43.408C38.5968 43.216 38.7228 43.054 38.8788 42.922C39.0468 42.79 39.2328 42.682 39.4368 42.598C39.6408 42.502 39.8568 42.43 40.0848 42.382V42.31C39.5088 42.046 39.0768 41.68 38.7888 41.212C38.5128 40.744 38.3748 40.198 38.3748 39.574C38.3748 38.614 38.7048 37.846 39.3648 37.27C40.0248 36.682 40.9908 36.388 42.2628 36.388C42.5508 36.388 42.8328 36.406 43.1088 36.442C43.3968 36.478 43.6608 36.538 43.9008 36.622V36.316C43.9008 35.404 44.3448 34.948 45.2328 34.948H46.6908V36.712H44.6928V36.964C45.1848 37.24 45.5508 37.6 45.7908 38.044C46.0308 38.488 46.1508 38.998 46.1508 39.574C46.1508 40.522 45.8208 41.284 45.1608 41.86C44.5128 42.436 43.5468 42.724 42.2628 42.724C41.7108 42.724 41.2308 42.67 40.8228 42.562C40.6428 42.646 40.4868 42.76 40.3548 42.904C40.2228 43.036 40.1568 43.204 40.1568 43.408C40.1568 43.876 40.5648 44.11 41.3808 44.11H43.9008C45.0528 44.11 45.8868 44.35 46.4028 44.83C46.9308 45.298 47.1948 45.952 47.1948 46.792ZM45.0348 47.062C45.0348 46.762 44.9148 46.528 44.6748 46.36C44.4348 46.192 44.0208 46.108 43.4328 46.108H40.2288C39.9048 46.348 39.7428 46.672 39.7428 47.08C39.7428 47.44 39.8928 47.722 40.1928 47.926C40.4928 48.13 41.0028 48.232 41.7228 48.232H42.8748C43.6308 48.232 44.1768 48.136 44.5128 47.944C44.8608 47.752 45.0348 47.458 45.0348 47.062ZM42.2628 41.158C43.3908 41.158 43.9548 40.678 43.9548 39.718V39.412C43.9548 38.452 43.3908 37.972 42.2628 37.972C41.1348 37.972 40.5708 38.452 40.5708 39.412V39.718C40.5708 40.678 41.1348 41.158 42.2628 41.158ZM49.6774 35.236C49.1974 35.236 48.8494 35.128 48.6334 34.912C48.4294 34.696 48.3274 34.42 48.3274 34.084V33.724C48.3274 33.388 48.4294 33.112 48.6334 32.896C48.8494 32.68 49.1974 32.572 49.6774 32.572C50.1454 32.572 50.4874 32.68 50.7034 32.896C50.9194 33.112 51.0274 33.388 51.0274 33.724V34.084C51.0274 34.42 50.9194 34.696 50.7034 34.912C50.4874 35.128 50.1454 35.236 49.6774 35.236ZM48.5254 36.604H50.8294V46H48.5254V36.604ZM56.434 46C55.642 46 55.036 45.796 54.616 45.388C54.208 44.968 54.004 44.374 54.004 43.606V38.44H52.618V36.604H53.338C53.686 36.604 53.92 36.526 54.04 36.37C54.172 36.202 54.238 35.956 54.238 35.632V34.03H56.308V36.604H58.234V38.44H56.308V44.164H58.09V46H56.434ZM67.1444 46C66.6404 46 66.2384 45.856 65.9384 45.568C65.6504 45.268 65.4704 44.872 65.3984 44.38H65.2904C65.1344 44.992 64.8164 45.454 64.3364 45.766C63.8564 46.066 63.2624 46.216 62.5544 46.216C61.5944 46.216 60.8564 45.964 60.3404 45.46C59.8244 44.956 59.5664 44.284 59.5664 43.444C59.5664 42.472 59.9144 41.752 60.6104 41.284C61.3064 40.804 62.2964 40.564 63.5804 40.564H65.1824V39.88C65.1824 39.352 65.0444 38.944 64.7684 38.656C64.4924 38.368 64.0484 38.224 63.4364 38.224C62.8964 38.224 62.4584 38.344 62.1224 38.584C61.7984 38.812 61.5224 39.088 61.2944 39.412L59.9264 38.188C60.2744 37.648 60.7364 37.216 61.3124 36.892C61.8884 36.556 62.6504 36.388 63.5984 36.388C64.8704 36.388 65.8364 36.676 66.4964 37.252C67.1564 37.828 67.4864 38.656 67.4864 39.736V44.164H68.4224V46H67.1444ZM63.3284 44.542C63.8444 44.542 64.2824 44.428 64.6424 44.2C65.0024 43.972 65.1824 43.636 65.1824 43.192V41.95H63.7064C62.5064 41.95 61.9064 42.334 61.9064 43.102V43.408C61.9064 43.792 62.0264 44.08 62.2664 44.272C62.5184 44.452 62.8724 44.542 63.3284 44.542ZM72.5911 46C71.7991 46 71.2171 45.802 70.8451 45.406C70.4731 45.01 70.2871 44.452 70.2871 43.732V32.68H72.5911V44.164H73.8331V46H72.5911ZM79.832 36.604H82.136V38.152H82.208C82.376 37.612 82.694 37.186 83.162 36.874C83.63 36.55 84.176 36.388 84.8 36.388C86 36.388 86.912 36.814 87.536 37.666C88.172 38.506 88.49 39.712 88.49 41.284C88.49 42.868 88.172 44.086 87.536 44.938C86.912 45.79 86 46.216 84.8 46.216C84.176 46.216 83.63 46.054 83.162 45.73C82.706 45.406 82.388 44.974 82.208 44.434H82.136V49.6H79.832V36.604ZM84.062 44.308C84.662 44.308 85.148 44.11 85.52 43.714C85.892 43.318 86.078 42.784 86.078 42.112V40.492C86.078 39.82 85.892 39.286 85.52 38.89C85.148 38.482 84.662 38.278 84.062 38.278C83.51 38.278 83.048 38.416 82.676 38.692C82.316 38.968 82.136 39.334 82.136 39.79V42.778C82.136 43.27 82.316 43.648 82.676 43.912C83.048 44.176 83.51 44.308 84.062 44.308ZM92.929 46C92.137 46 91.555 45.802 91.183 45.406C90.811 45.01 90.625 44.452 90.625 43.732V32.68H92.929V44.164H94.171V46H92.929ZM102.828 46C102.324 46 101.922 45.856 101.622 45.568C101.334 45.268 101.154 44.872 101.082 44.38H100.974C100.818 44.992 100.5 45.454 100.02 45.766C99.54 46.066 98.946 46.216 98.238 46.216C97.278 46.216 96.54 45.964 96.024 45.46C95.508 44.956 95.25 44.284 95.25 43.444C95.25 42.472 95.598 41.752 96.294 41.284C96.99 40.804 97.98 40.564 99.264 40.564H100.866V39.88C100.866 39.352 100.728 38.944 100.452 38.656C100.176 38.368 99.732 38.224 99.12 38.224C98.58 38.224 98.142 38.344 97.806 38.584C97.482 38.812 97.206 39.088 96.978 39.412L95.61 38.188C95.958 37.648 96.42 37.216 96.996 36.892C97.572 36.556 98.334 36.388 99.282 36.388C100.554 36.388 101.52 36.676 102.18 37.252C102.84 37.828 103.17 38.656 103.17 39.736V44.164H104.106V46H102.828ZM99.012 44.542C99.528 44.542 99.966 44.428 100.326 44.2C100.686 43.972 100.866 43.636 100.866 43.192V41.95H99.39C98.19 41.95 97.59 42.334 97.59 43.102V43.408C97.59 43.792 97.71 44.08 97.95 44.272C98.202 44.452 98.556 44.542 99.012 44.542ZM111.803 44.434H111.713C111.545 44.974 111.227 45.406 110.759 45.73C110.291 46.054 109.745 46.216 109.121 46.216C107.933 46.216 107.021 45.79 106.385 44.938C105.761 44.086 105.449 42.868 105.449 41.284C105.449 39.712 105.761 38.506 106.385 37.666C107.021 36.814 107.933 36.388 109.121 36.388C109.745 36.388 110.291 36.55 110.759 36.874C111.227 37.186 111.545 37.612 111.713 38.152H111.803V32.68H114.107V46H111.803V44.434ZM109.859 44.308C110.411 44.308 110.873 44.176 111.245 43.912C111.617 43.648 111.803 43.27 111.803 42.778V39.79C111.803 39.334 111.617 38.968 111.245 38.692C110.873 38.416 110.411 38.278 109.859 38.278C109.259 38.278 108.773 38.482 108.401 38.89C108.041 39.286 107.861 39.82 107.861 40.492V42.112C107.861 42.784 108.041 43.318 108.401 43.714C108.773 44.11 109.259 44.308 109.859 44.308ZM119.842 46.216C118.942 46.216 118.186 46.066 117.574 45.766C116.962 45.454 116.422 45.028 115.954 44.488L117.358 43.12C117.706 43.516 118.084 43.828 118.492 44.056C118.912 44.284 119.392 44.398 119.932 44.398C120.484 44.398 120.88 44.302 121.12 44.11C121.372 43.918 121.498 43.654 121.498 43.318C121.498 43.042 121.408 42.826 121.228 42.67C121.06 42.502 120.766 42.388 120.346 42.328L119.41 42.202C118.39 42.07 117.61 41.782 117.07 41.338C116.542 40.882 116.278 40.222 116.278 39.358C116.278 38.902 116.362 38.494 116.53 38.134C116.698 37.762 116.938 37.45 117.25 37.198C117.562 36.934 117.934 36.736 118.366 36.604C118.81 36.46 119.302 36.388 119.842 36.388C120.298 36.388 120.7 36.424 121.048 36.496C121.408 36.556 121.732 36.652 122.02 36.784C122.308 36.904 122.572 37.06 122.812 37.252C123.052 37.432 123.286 37.636 123.514 37.864L122.164 39.214C121.888 38.926 121.558 38.686 121.174 38.494C120.79 38.302 120.37 38.206 119.914 38.206C119.41 38.206 119.044 38.296 118.816 38.476C118.6 38.656 118.492 38.89 118.492 39.178C118.492 39.49 118.582 39.73 118.762 39.898C118.954 40.054 119.272 40.168 119.716 40.24L120.67 40.366C122.698 40.654 123.712 41.578 123.712 43.138C123.712 43.594 123.616 44.014 123.424 44.398C123.244 44.77 122.986 45.094 122.65 45.37C122.314 45.634 121.906 45.844 121.426 46C120.958 46.144 120.43 46.216 119.842 46.216ZM132.658 46C132.154 46 131.752 45.856 131.452 45.568C131.164 45.268 130.984 44.872 130.912 44.38H130.804C130.648 44.992 130.33 45.454 129.85 45.766C129.37 46.066 128.776 46.216 128.068 46.216C127.108 46.216 126.37 45.964 125.854 45.46C125.338 44.956 125.08 44.284 125.08 43.444C125.08 42.472 125.428 41.752 126.124 41.284C126.82 40.804 127.81 40.564 129.094 40.564H130.696V39.88C130.696 39.352 130.558 38.944 130.282 38.656C130.006 38.368 129.562 38.224 128.95 38.224C128.41 38.224 127.972 38.344 127.636 38.584C127.312 38.812 127.036 39.088 126.808 39.412L125.44 38.188C125.788 37.648 126.25 37.216 126.826 36.892C127.402 36.556 128.164 36.388 129.112 36.388C130.384 36.388 131.35 36.676 132.01 37.252C132.67 37.828 133 38.656 133 39.736V44.164H133.936V46H132.658ZM128.842 44.542C129.358 44.542 129.796 44.428 130.156 44.2C130.516 43.972 130.696 43.636 130.696 43.192V41.95H129.22C128.02 41.95 127.42 42.334 127.42 43.102V43.408C127.42 43.792 127.54 44.08 127.78 44.272C128.032 44.452 128.386 44.542 128.842 44.542ZM135.801 46V36.604H138.105V38.17H138.195C138.387 37.666 138.687 37.246 139.095 36.91C139.515 36.562 140.091 36.388 140.823 36.388C141.795 36.388 142.539 36.706 143.055 37.342C143.571 37.978 143.829 38.884 143.829 40.06V46H141.525V40.294C141.525 39.622 141.405 39.118 141.165 38.782C140.925 38.446 140.529 38.278 139.977 38.278C139.737 38.278 139.503 38.314 139.275 38.386C139.059 38.446 138.861 38.542 138.681 38.674C138.513 38.794 138.375 38.95 138.267 39.142C138.159 39.322 138.105 39.538 138.105 39.79V46H135.801ZM148.258 46L145.126 36.604H147.394L148.708 40.654L149.626 44.002H149.752L150.67 40.654L151.948 36.604H154.144L150.994 46H148.258ZM156.834 35.236C156.354 35.236 156.006 35.128 155.79 34.912C155.586 34.696 155.484 34.42 155.484 34.084V33.724C155.484 33.388 155.586 33.112 155.79 32.896C156.006 32.68 156.354 32.572 156.834 32.572C157.302 32.572 157.644 32.68 157.86 32.896C158.076 33.112 158.184 33.388 158.184 33.724V34.084C158.184 34.42 158.076 34.696 157.86 34.912C157.644 35.128 157.302 35.236 156.834 35.236ZM155.682 36.604H157.986V46H155.682V36.604ZM163.734 46.216C162.834 46.216 162.078 46.066 161.466 45.766C160.854 45.454 160.314 45.028 159.846 44.488L161.25 43.12C161.598 43.516 161.976 43.828 162.384 44.056C162.804 44.284 163.284 44.398 163.824 44.398C164.376 44.398 164.772 44.302 165.012 44.11C165.264 43.918 165.39 43.654 165.39 43.318C165.39 43.042 165.3 42.826 165.12 42.67C164.952 42.502 164.658 42.388 164.238 42.328L163.302 42.202C162.282 42.07 161.502 41.782 160.962 41.338C160.434 40.882 160.17 40.222 160.17 39.358C160.17 38.902 160.254 38.494 160.422 38.134C160.59 37.762 160.83 37.45 161.142 37.198C161.454 36.934 161.826 36.736 162.258 36.604C162.702 36.46 163.194 36.388 163.734 36.388C164.19 36.388 164.592 36.424 164.94 36.496C165.3 36.556 165.624 36.652 165.912 36.784C166.2 36.904 166.464 37.06 166.704 37.252C166.944 37.432 167.178 37.636 167.406 37.864L166.056 39.214C165.78 38.926 165.45 38.686 165.066 38.494C164.682 38.302 164.262 38.206 163.806 38.206C163.302 38.206 162.936 38.296 162.708 38.476C162.492 38.656 162.384 38.89 162.384 39.178C162.384 39.49 162.474 39.73 162.654 39.898C162.846 40.054 163.164 40.168 163.608 40.24L164.562 40.366C166.59 40.654 167.604 41.578 167.604 43.138C167.604 43.594 167.508 44.014 167.316 44.398C167.136 44.77 166.878 45.094 166.542 45.37C166.206 45.634 165.798 45.844 165.318 46C164.85 46.144 164.322 46.216 163.734 46.216ZM169.639 46V36.604H171.943V38.17H172.033C172.225 37.666 172.525 37.246 172.933 36.91C173.353 36.562 173.929 36.388 174.661 36.388C175.633 36.388 176.377 36.706 176.893 37.342C177.409 37.978 177.667 38.884 177.667 40.06V46H175.363V40.294C175.363 39.622 175.243 39.118 175.003 38.782C174.763 38.446 174.367 38.278 173.815 38.278C173.575 38.278 173.341 38.314 173.113 38.386C172.897 38.446 172.699 38.542 172.519 38.674C172.351 38.794 172.213 38.95 172.105 39.142C171.997 39.322 171.943 39.538 171.943 39.79V46H169.639ZM181.373 35.236C180.893 35.236 180.545 35.128 180.329 34.912C180.125 34.696 180.023 34.42 180.023 34.084V33.724C180.023 33.388 180.125 33.112 180.329 32.896C180.545 32.68 180.893 32.572 181.373 32.572C181.841 32.572 182.183 32.68 182.399 32.896C182.615 33.112 182.723 33.388 182.723 33.724V34.084C182.723 34.42 182.615 34.696 182.399 34.912C182.183 35.128 181.841 35.236 181.373 35.236ZM180.221 36.604H182.525V46H180.221V36.604ZM185.195 46V36.604H187.499V38.17H187.589C187.781 37.666 188.081 37.246 188.489 36.91C188.909 36.562 189.485 36.388 190.217 36.388C191.189 36.388 191.933 36.706 192.449 37.342C192.965 37.978 193.223 38.884 193.223 40.06V46H190.919V40.294C190.919 39.622 190.799 39.118 190.559 38.782C190.319 38.446 189.923 38.278 189.371 38.278C189.131 38.278 188.897 38.314 188.669 38.386C188.453 38.446 188.255 38.542 188.075 38.674C187.907 38.794 187.769 38.95 187.661 39.142C187.553 39.322 187.499 39.538 187.499 39.79V46H185.195ZM204.255 46.792C204.255 47.284 204.165 47.716 203.985 48.088C203.817 48.472 203.535 48.79 203.139 49.042C202.743 49.294 202.233 49.486 201.609 49.618C200.985 49.75 200.223 49.816 199.323 49.816C198.531 49.816 197.859 49.762 197.307 49.654C196.755 49.558 196.299 49.414 195.939 49.222C195.591 49.042 195.339 48.814 195.183 48.538C195.027 48.262 194.949 47.95 194.949 47.602C194.949 47.074 195.093 46.66 195.381 46.36C195.681 46.072 196.095 45.886 196.623 45.802V45.604C196.239 45.508 195.939 45.322 195.723 45.046C195.519 44.758 195.417 44.422 195.417 44.038C195.417 43.798 195.465 43.588 195.561 43.408C195.657 43.216 195.783 43.054 195.939 42.922C196.107 42.79 196.293 42.682 196.497 42.598C196.701 42.502 196.917 42.43 197.145 42.382V42.31C196.569 42.046 196.137 41.68 195.849 41.212C195.573 40.744 195.435 40.198 195.435 39.574C195.435 38.614 195.765 37.846 196.425 37.27C197.085 36.682 198.051 36.388 199.323 36.388C199.611 36.388 199.893 36.406 200.169 36.442C200.457 36.478 200.721 36.538 200.961 36.622V36.316C200.961 35.404 201.405 34.948 202.293 34.948H203.751V36.712H201.753V36.964C202.245 37.24 202.611 37.6 202.851 38.044C203.091 38.488 203.211 38.998 203.211 39.574C203.211 40.522 202.881 41.284 202.221 41.86C201.573 42.436 200.607 42.724 199.323 42.724C198.771 42.724 198.291 42.67 197.883 42.562C197.703 42.646 197.547 42.76 197.415 42.904C197.283 43.036 197.217 43.204 197.217 43.408C197.217 43.876 197.625 44.11 198.441 44.11H200.961C202.113 44.11 202.947 44.35 203.463 44.83C203.991 45.298 204.255 45.952 204.255 46.792ZM202.095 47.062C202.095 46.762 201.975 46.528 201.735 46.36C201.495 46.192 201.081 46.108 200.493 46.108H197.289C196.965 46.348 196.803 46.672 196.803 47.08C196.803 47.44 196.953 47.722 197.253 47.926C197.553 48.13 198.063 48.232 198.783 48.232H199.935C200.691 48.232 201.237 48.136 201.573 47.944C201.921 47.752 202.095 47.458 202.095 47.062ZM199.323 41.158C200.451 41.158 201.015 40.678 201.015 39.718V39.412C201.015 38.452 200.451 37.972 199.323 37.972C198.195 37.972 197.631 38.452 197.631 39.412V39.718C197.631 40.678 198.195 41.158 199.323 41.158Z" fill="#474E95"/>
<path d="M340.5 234.5H19.5V275.5H340.5V234.5Z" fill="#DCDCDC" stroke="#747474"/>
<path d="M140.5 211.5H19.5V230.5H140.5V211.5Z" fill="#BFBFBF" stroke="#747474"/>
<path d="M311.5 161.5H19.5V202.5H311.5V161.5Z" fill="#DCDCDC" stroke="#747474"/>
<path d="M140.5 138.5H19.5V157.5H140.5V138.5Z" fill="#BFBFBF" stroke="#747474"/>
<path d="M259.5 88.5H20.5V129.5H259.5V88.5Z" fill="#DCDCDC" stroke="#747474"/>
<path d="M141.5 65.5H20.5V84.5H141.5V65.5Z" fill="#BFBFBF" stroke="#747474"/>
<path d="M105 285H20V320H105V285Z" fill="#747474"/>
<path d="M41.512 304.272L40.36 301.952H40.312V310H38.312V298.832H40.632L43.992 304.56L45.144 306.88H45.192V298.832H47.192V310H44.872L41.512 304.272ZM52.772 306.336C52.26 306.347 51.8653 306.443 51.588 306.624C51.3107 306.795 51.172 307.051 51.172 307.392V307.648C51.172 307.989 51.2787 308.251 51.492 308.432C51.7053 308.613 52.0253 308.704 52.452 308.704C52.9 308.704 53.284 308.603 53.604 308.4C53.924 308.197 54.084 307.899 54.084 307.504V306.336H52.772ZM59.572 305.072V304.928C59.572 304.352 59.428 303.888 59.14 303.536C58.8627 303.173 58.4573 302.992 57.924 302.992C57.38 302.992 56.948 303.173 56.628 303.536C56.308 303.899 56.148 304.368 56.148 304.944V305.072H59.572ZM58.212 308.528C58.7133 308.528 59.1347 308.421 59.476 308.208C59.8173 307.995 60.1053 307.733 60.34 307.424L61.444 308.656C61.1027 309.136 60.6387 309.515 60.052 309.792C59.4653 310.059 58.7933 310.192 58.036 310.192C57.6307 310.192 57.252 310.144 56.9 310.048C56.548 309.952 56.2333 309.824 55.956 309.664C55.6893 309.504 55.46 309.323 55.268 309.12C55.076 308.917 54.932 308.704 54.836 308.48H54.74C54.6653 308.693 54.548 308.901 54.388 309.104C54.2387 309.307 54.0413 309.488 53.796 309.648C53.5507 309.808 53.2573 309.936 52.916 310.032C52.5853 310.139 52.196 310.192 51.748 310.192C50.9053 310.192 50.2493 309.963 49.78 309.504C49.3213 309.045 49.092 308.448 49.092 307.712C49.092 307.275 49.1773 306.891 49.348 306.56C49.5187 306.229 49.7587 305.957 50.068 305.744C50.3773 305.52 50.7507 305.355 51.188 305.248C51.6253 305.131 52.116 305.072 52.66 305.072H54.084V304.56C54.084 304.091 53.9613 303.728 53.716 303.472C53.4707 303.216 53.0813 303.088 52.548 303.088C52.0573 303.088 51.6627 303.189 51.364 303.392C51.076 303.595 50.8307 303.845 50.628 304.144L49.412 303.056C49.7213 302.576 50.132 302.192 50.644 301.904C51.156 301.605 51.8333 301.456 52.676 301.456C53.316 301.456 53.828 301.589 54.212 301.856C54.596 302.112 54.8947 302.437 55.108 302.832H55.204C55.4173 302.437 55.764 302.112 56.244 301.856C56.724 301.589 57.3 301.456 57.972 301.456C58.6227 301.456 59.1827 301.568 59.652 301.792C60.1213 302.016 60.5053 302.32 60.804 302.704C61.1133 303.088 61.3373 303.536 61.476 304.048C61.6253 304.549 61.7 305.088 61.7 305.664V306.336H56.132V306.544C56.132 307.141 56.3133 307.621 56.676 307.984C57.0387 308.347 57.5507 308.528 58.212 308.528ZM66.2481 310.192C65.4481 310.192 64.7761 310.059 64.2321 309.792C63.6881 309.515 63.2081 309.136 62.7921 308.656L64.0401 307.44C64.3495 307.792 64.6855 308.069 65.0481 308.272C65.4215 308.475 65.8481 308.576 66.3281 308.576C66.8188 308.576 67.1708 308.491 67.3841 308.32C67.6081 308.149 67.7201 307.915 67.7201 307.616C67.7201 307.371 67.6401 307.179 67.4801 307.04C67.3308 306.891 67.0695 306.789 66.6961 306.736L65.8641 306.624C64.9575 306.507 64.2641 306.251 63.7841 305.856C63.3148 305.451 63.0801 304.864 63.0801 304.096C63.0801 303.691 63.1548 303.328 63.3041 303.008C63.4535 302.677 63.6668 302.4 63.9441 302.176C64.2215 301.941 64.5521 301.765 64.9361 301.648C65.3308 301.52 65.7681 301.456 66.2481 301.456C66.6535 301.456 67.0108 301.488 67.3201 301.552C67.6401 301.605 67.9281 301.691 68.1841 301.808C68.4401 301.915 68.6748 302.053 68.8881 302.224C69.1015 302.384 69.3095 302.565 69.5121 302.768L68.3121 303.968C68.0668 303.712 67.7735 303.499 67.4321 303.328C67.0908 303.157 66.7175 303.072 66.3121 303.072C65.8641 303.072 65.5388 303.152 65.3361 303.312C65.1441 303.472 65.0481 303.68 65.0481 303.936C65.0481 304.213 65.1281 304.427 65.2881 304.576C65.4588 304.715 65.7415 304.816 66.1361 304.88L66.9841 304.992C68.7868 305.248 69.6881 306.069 69.6881 307.456C69.6881 307.861 69.6028 308.235 69.4321 308.576C69.2721 308.907 69.0428 309.195 68.7441 309.44C68.4455 309.675 68.0828 309.861 67.6561 310C67.2401 310.128 66.7708 310.192 66.2481 310.192ZM73.9795 310C73.2755 310 72.7368 309.819 72.3635 309.456C72.0008 309.083 71.8195 308.555 71.8195 307.872V303.28H70.5875V301.648H71.2275C71.5368 301.648 71.7448 301.579 71.8515 301.44C71.9688 301.291 72.0275 301.072 72.0275 300.784V299.36H73.8675V301.648H75.5795V303.28H73.8675V308.368H75.4515V310H73.9795ZM80.6694 310.192C80.0507 310.192 79.496 310.091 79.0054 309.888C78.5254 309.675 78.1147 309.381 77.7734 309.008C77.4427 308.624 77.1867 308.165 77.0054 307.632C76.824 307.088 76.7334 306.48 76.7334 305.808C76.7334 305.147 76.8187 304.549 76.9894 304.016C77.1707 303.483 77.4267 303.029 77.7574 302.656C78.088 302.272 78.4934 301.979 78.9734 301.776C79.4534 301.563 79.9974 301.456 80.6054 301.456C81.256 301.456 81.8214 301.568 82.3014 301.792C82.7814 302.016 83.176 302.32 83.4854 302.704C83.7947 303.088 84.024 303.536 84.1734 304.048C84.3334 304.549 84.4134 305.088 84.4134 305.664V306.336H78.8614V306.544C78.8614 307.152 79.032 307.643 79.3734 308.016C79.7147 308.379 80.2214 308.56 80.8934 308.56C81.4054 308.56 81.8214 308.453 82.1414 308.24C82.472 308.027 82.7654 307.755 83.0214 307.424L84.1254 308.656C83.784 309.136 83.3147 309.515 82.7174 309.792C82.1307 310.059 81.448 310.192 80.6694 310.192ZM80.6374 302.992C80.0934 302.992 79.6614 303.173 79.3414 303.536C79.0214 303.899 78.8614 304.368 78.8614 304.944V305.072H82.2854V304.928C82.2854 304.352 82.1414 303.888 81.8534 303.536C81.576 303.173 81.1707 302.992 80.6374 302.992Z" fill="#F5F5F5"/>
</svg>
