<svg width="268" height="203" viewBox="0 0 268 203" fill="none" xmlns="http://www.w3.org/2000/svg">
<path d="M5.716 10.332L4.204 7.542H4.15V18H2.674V5.436H4.42L9.01 13.104L10.522 15.894H10.576V5.436H12.052V18H10.306L5.716 10.332ZM22.0066 18C21.4666 18 21.0766 17.856 20.8366 17.568C20.6086 17.28 20.4646 16.92 20.4046 16.488H20.3146C20.1106 17.064 19.7746 17.496 19.3066 17.784C18.8386 18.072 18.2806 18.216 17.6326 18.216C16.6486 18.216 15.8806 17.964 15.3286 17.46C14.7886 16.956 14.5186 16.272 14.5186 15.408C14.5186 14.532 14.8366 13.86 15.4726 13.392C16.1206 12.924 17.1226 12.69 18.4786 12.69H20.3146V11.772C20.3146 11.112 20.1346 10.608 19.7746 10.26C19.4146 9.912 18.8626 9.738 18.1186 9.738C17.5546 9.738 17.0806 9.864 16.6966 10.116C16.3246 10.368 16.0126 10.704 15.7606 11.124L14.8966 10.314C15.1486 9.81 15.5506 9.384 16.1026 9.036C16.6546 8.676 17.3506 8.496 18.1906 8.496C19.3186 8.496 20.1946 8.772 20.8186 9.324C21.4426 9.876 21.7546 10.644 21.7546 11.628V16.74H22.8166V18H22.0066ZM17.8666 16.992C18.2266 16.992 18.5566 16.95 18.8566 16.866C19.1566 16.782 19.4146 16.662 19.6306 16.506C19.8466 16.35 20.0146 16.17 20.1346 15.966C20.2546 15.762 20.3146 15.54 20.3146 15.3V13.77H18.4066C17.5786 13.77 16.9726 13.89 16.5886 14.13C16.2166 14.37 16.0306 14.718 16.0306 15.174V15.552C16.0306 16.008 16.1926 16.362 16.5166 16.614C16.8526 16.866 17.3026 16.992 17.8666 16.992ZM26.7832 18L23.5252 8.712H24.9652L26.5852 13.32L27.5932 16.488H27.6832L28.6912 13.32L30.3472 8.712H31.7332L28.4572 18H26.7832ZM33.5905 18V8.712H35.0305V10.224H35.1025C35.3305 9.696 35.6485 9.276 36.0565 8.964C36.4765 8.652 37.0345 8.496 37.7305 8.496C38.6905 8.496 39.4465 8.808 39.9985 9.432C40.5625 10.044 40.8445 10.914 40.8445 12.042V18H39.4045V12.294C39.4045 10.626 38.7025 9.792 37.2985 9.792C37.0105 9.792 36.7285 9.828 36.4525 9.9C36.1885 9.972 35.9485 10.08 35.7325 10.224C35.5165 10.368 35.3425 10.554 35.2105 10.782C35.0905 10.998 35.0305 11.256 35.0305 11.556V18H33.5905Z" fill="#202020"/>
<path d="M261.5 42.5H0.5V77.5H261.5V42.5Z" fill="#D8D8D8" stroke="#707070"/>
<path d="M261.5 114.5H0.5V155.5H261.5V114.5Z" fill="#D8D8D8" stroke="#707070"/>
<path d="M2.674 104V91.436H10.342V92.768H4.186V96.98H9.982V98.312H4.186V102.668H10.342V104H2.674ZM13.5281 95.972H12.0161V94.712H13.5281V92.84C13.5281 92.192 13.6961 91.67 14.0321 91.274C14.3681 90.878 14.8781 90.68 15.5621 90.68H16.9661V91.94H14.9681V94.712H16.9661V95.972H14.9681V104H13.5281V95.972ZM20.9121 104C20.4081 104 20.0241 103.862 19.7601 103.586C19.5081 103.298 19.3821 102.926 19.3821 102.47V95.972H17.8521V94.712H18.7161C19.0281 94.712 19.2381 94.652 19.3461 94.532C19.4661 94.4 19.5261 94.178 19.5261 93.866V92.138H20.8221V94.712H22.8561V95.972H20.8221V102.74H22.7121V104H20.9121ZM28.5923 104.216C27.9563 104.216 27.3803 104.102 26.8643 103.874C26.3603 103.646 25.9223 103.322 25.5503 102.902C25.1903 102.47 24.9083 101.96 24.7043 101.372C24.5123 100.772 24.4163 100.1 24.4163 99.356C24.4163 98.624 24.5123 97.958 24.7043 97.358C24.9083 96.758 25.1903 96.248 25.5503 95.828C25.9223 95.396 26.3603 95.066 26.8643 94.838C27.3803 94.61 27.9563 94.496 28.5923 94.496C29.2163 94.496 29.7743 94.61 30.2663 94.838C30.7583 95.066 31.1783 95.384 31.5263 95.792C31.8743 96.188 32.1383 96.662 32.3183 97.214C32.5103 97.766 32.6063 98.372 32.6063 99.032V99.716H25.9283V100.148C25.9283 100.544 25.9883 100.916 26.1083 101.264C26.2403 101.6 26.4203 101.894 26.6483 102.146C26.8883 102.398 27.1763 102.596 27.5123 102.74C27.8603 102.884 28.2503 102.956 28.6823 102.956C29.2703 102.956 29.7803 102.818 30.2123 102.542C30.6563 102.266 30.9983 101.87 31.2383 101.354L32.2643 102.092C31.9643 102.728 31.4963 103.244 30.8603 103.64C30.2243 104.024 29.4683 104.216 28.5923 104.216ZM28.5923 95.702C28.1963 95.702 27.8363 95.774 27.5123 95.918C27.1883 96.05 26.9063 96.242 26.6663 96.494C26.4383 96.746 26.2583 97.046 26.1263 97.394C25.9943 97.73 25.9283 98.102 25.9283 98.51V98.636H31.0583V98.438C31.0583 97.61 30.8303 96.95 30.3743 96.458C29.9303 95.954 29.3363 95.702 28.5923 95.702ZM34.9792 104V94.712H36.4192V96.422H36.5092C36.6772 95.978 36.9772 95.582 37.4092 95.234C37.8412 94.886 38.4352 94.712 39.1912 94.712H39.7492V96.152H38.9032C38.1232 96.152 37.5112 96.302 37.0672 96.602C36.6352 96.89 36.4192 97.256 36.4192 97.7V104H34.9792ZM41.5886 104V94.712H43.0286V96.224H43.1006C43.3286 95.696 43.6466 95.276 44.0546 94.964C44.4746 94.652 45.0326 94.496 45.7286 94.496C46.6886 94.496 47.4446 94.808 47.9966 95.432C48.5606 96.044 48.8426 96.914 48.8426 98.042V104H47.4026V98.294C47.4026 96.626 46.7006 95.792 45.2966 95.792C45.0086 95.792 44.7266 95.828 44.4506 95.9C44.1866 95.972 43.9466 96.08 43.7306 96.224C43.5146 96.368 43.3406 96.554 43.2086 96.782C43.0886 96.998 43.0286 97.256 43.0286 97.556V104H41.5886ZM58.5691 104C58.0291 104 57.6391 103.856 57.3991 103.568C57.1711 103.28 57.0271 102.92 56.9671 102.488H56.8771C56.6731 103.064 56.3371 103.496 55.8691 103.784C55.4011 104.072 54.8431 104.216 54.1951 104.216C53.2111 104.216 52.4431 103.964 51.8911 103.46C51.3511 102.956 51.0811 102.272 51.0811 101.408C51.0811 100.532 51.3991 99.86 52.0351 99.392C52.6831 98.924 53.6851 98.69 55.0411 98.69H56.8771V97.772C56.8771 97.112 56.6971 96.608 56.3371 96.26C55.9771 95.912 55.4251 95.738 54.6811 95.738C54.1171 95.738 53.6431 95.864 53.2591 96.116C52.8871 96.368 52.5751 96.704 52.3231 97.124L51.4591 96.314C51.7111 95.81 52.1131 95.384 52.6651 95.036C53.2171 94.676 53.9131 94.496 54.7531 94.496C55.8811 94.496 56.7571 94.772 57.3811 95.324C58.0051 95.876 58.3171 96.644 58.3171 97.628V102.74H59.3791V104H58.5691ZM54.4291 102.992C54.7891 102.992 55.1191 102.95 55.4191 102.866C55.7191 102.782 55.9771 102.662 56.1931 102.506C56.4091 102.35 56.5771 102.17 56.6971 101.966C56.8171 101.762 56.8771 101.54 56.8771 101.3V99.77H54.9691C54.1411 99.77 53.5351 99.89 53.1511 100.13C52.7791 100.37 52.5931 100.718 52.5931 101.174V101.552C52.5931 102.008 52.7551 102.362 53.0791 102.614C53.4151 102.866 53.8651 102.992 54.4291 102.992ZM63.3457 104L60.0877 94.712H61.5277L63.1477 99.32L64.1557 102.488H64.2457L65.2537 99.32L66.9097 94.712H68.2957L65.0197 104H63.3457ZM70.153 104V94.712H71.593V96.224H71.665C71.893 95.696 72.211 95.276 72.619 94.964C73.039 94.652 73.597 94.496 74.293 94.496C75.253 94.496 76.009 94.808 76.561 95.432C77.125 96.044 77.407 96.914 77.407 98.042V104H75.967V98.294C75.967 96.626 75.265 95.792 73.861 95.792C73.573 95.792 73.291 95.828 73.015 95.9C72.751 95.972 72.511 96.08 72.295 96.224C72.079 96.368 71.905 96.554 71.773 96.782C71.653 96.998 71.593 97.256 71.593 97.556V104H70.153Z" fill="#1A1A1A"/>
<path opacity="0.703404" d="M4.468 34.144C3.788 34.144 3.208 34.016 2.728 33.76C2.248 33.496 1.84 33.136 1.504 32.68L2.248 32.056C2.544 32.448 2.872 32.748 3.232 32.956C3.592 33.156 4.016 33.256 4.504 33.256C5.104 33.256 5.56 33.112 5.872 32.824C6.192 32.536 6.352 32.152 6.352 31.672C6.352 31.272 6.232 30.964 5.992 30.748C5.752 30.532 5.356 30.36 4.804 30.232L4.12 30.076C3.352 29.9 2.764 29.636 2.356 29.284C1.956 28.924 1.756 28.42 1.756 27.772C1.756 27.404 1.824 27.076 1.96 26.788C2.096 26.5 2.284 26.26 2.524 26.068C2.772 25.876 3.064 25.732 3.4 25.636C3.744 25.532 4.12 25.48 4.528 25.48C5.16 25.48 5.7 25.596 6.148 25.828C6.604 26.06 6.988 26.4 7.3 26.848L6.544 27.4C6.312 27.08 6.032 26.828 5.704 26.644C5.376 26.46 4.968 26.368 4.48 26.368C3.944 26.368 3.52 26.484 3.208 26.716C2.904 26.94 2.752 27.28 2.752 27.736C2.752 28.136 2.88 28.44 3.136 28.648C3.4 28.848 3.796 29.008 4.324 29.128L5.008 29.284C5.832 29.468 6.428 29.748 6.796 30.124C7.164 30.5 7.348 31 7.348 31.624C7.348 32.008 7.28 32.356 7.144 32.668C7.016 32.98 6.828 33.244 6.58 33.46C6.332 33.676 6.028 33.844 5.668 33.964C5.316 34.084 4.916 34.144 4.468 34.144ZM8.99266 25.12H9.95266V30.748H10.0007L10.9487 29.692L12.7007 27.808H13.8647L11.5727 30.256L14.0927 34H12.9287L10.8767 30.844L9.95266 31.792V34H8.99266V25.12ZM15.3208 34V27.808H16.2808V28.948H16.3408C16.4528 28.652 16.6528 28.388 16.9408 28.156C17.2288 27.924 17.6248 27.808 18.1288 27.808H18.5008V28.768H17.9368C17.4168 28.768 17.0088 28.868 16.7128 29.068C16.4248 29.26 16.2808 29.504 16.2808 29.8V34H15.3208ZM20.207 26.356C19.999 26.356 19.847 26.308 19.751 26.212C19.663 26.108 19.619 25.976 19.619 25.816V25.66C19.619 25.5 19.663 25.372 19.751 25.276C19.847 25.172 19.999 25.12 20.207 25.12C20.415 25.12 20.563 25.172 20.651 25.276C20.747 25.372 20.795 25.5 20.795 25.66V25.816C20.795 25.976 20.747 26.108 20.651 26.212C20.563 26.308 20.415 26.356 20.207 26.356ZM19.727 27.808H20.687V34H19.727V27.808ZM24.095 34L21.923 27.808H22.883L23.963 30.88L24.635 32.992H24.695L25.367 30.88L26.471 27.808H27.395L25.211 34H24.095ZM31.8052 28.648H30.7972V27.808H31.8052V26.56C31.8052 26.128 31.9172 25.78 32.1412 25.516C32.3652 25.252 32.7052 25.12 33.1612 25.12H34.0972V25.96H32.7652V27.808H34.0972V28.648H32.7652V34H31.8052V28.648ZM37.653 34.144C37.237 34.144 36.857 34.068 36.513 33.916C36.169 33.764 35.873 33.548 35.625 33.268C35.385 32.98 35.197 32.64 35.061 32.248C34.925 31.848 34.857 31.4 34.857 30.904C34.857 30.416 34.925 29.972 35.061 29.572C35.197 29.172 35.385 28.832 35.625 28.552C35.873 28.264 36.169 28.044 36.513 27.892C36.857 27.74 37.237 27.664 37.653 27.664C38.069 27.664 38.445 27.74 38.781 27.892C39.125 28.044 39.421 28.264 39.669 28.552C39.917 28.832 40.109 29.172 40.245 29.572C40.381 29.972 40.449 30.416 40.449 30.904C40.449 31.4 40.381 31.848 40.245 32.248C40.109 32.64 39.917 32.98 39.669 33.268C39.421 33.548 39.125 33.764 38.781 33.916C38.445 34.068 38.069 34.144 37.653 34.144ZM37.653 33.292C38.173 33.292 38.597 33.132 38.925 32.812C39.253 32.492 39.417 32.004 39.417 31.348V30.46C39.417 29.804 39.253 29.316 38.925 28.996C38.597 28.676 38.173 28.516 37.653 28.516C37.133 28.516 36.709 28.676 36.381 28.996C36.053 29.316 35.889 29.804 35.889 30.46V31.348C35.889 32.004 36.053 32.492 36.381 32.812C36.709 33.132 37.133 33.292 37.653 33.292ZM42.0278 34V27.808H42.9878V28.948H43.0478C43.1598 28.652 43.3598 28.388 43.6478 28.156C43.9358 27.924 44.3318 27.808 44.8358 27.808H45.2078V28.768H44.6438C44.1238 28.768 43.7158 28.868 43.4198 29.068C43.1318 29.26 42.9878 29.504 42.9878 29.8V34H42.0278ZM46.4341 34V27.808H47.3941V28.816H47.4421C47.5941 28.464 47.8061 28.184 48.0781 27.976C48.3581 27.768 48.7301 27.664 49.1941 27.664C49.8341 27.664 50.3381 27.872 50.7061 28.288C51.0821 28.696 51.2701 29.276 51.2701 30.028V34H50.3101V30.196C50.3101 29.084 49.8421 28.528 48.9061 28.528C48.7141 28.528 48.5261 28.552 48.3421 28.6C48.1661 28.648 48.0061 28.72 47.8621 28.816C47.7181 28.912 47.6021 29.036 47.5141 29.188C47.4341 29.332 47.3941 29.504 47.3941 29.704V34H46.4341ZM57.7544 34C57.3944 34 57.1344 33.904 56.9744 33.712C56.8224 33.52 56.7264 33.28 56.6864 32.992H56.6264C56.4904 33.376 56.2664 33.664 55.9544 33.856C55.6424 34.048 55.2704 34.144 54.8384 34.144C54.1824 34.144 53.6704 33.976 53.3024 33.64C52.9424 33.304 52.7624 32.848 52.7624 32.272C52.7624 31.688 52.9744 31.24 53.3984 30.928C53.8304 30.616 54.4984 30.46 55.4024 30.46H56.6264V29.848C56.6264 29.408 56.5064 29.072 56.2664 28.84C56.0264 28.608 55.6584 28.492 55.1624 28.492C54.7864 28.492 54.4704 28.576 54.2144 28.744C53.9664 28.912 53.7584 29.136 53.5904 29.416L53.0144 28.876C53.1824 28.54 53.4504 28.256 53.8184 28.024C54.1864 27.784 54.6504 27.664 55.2104 27.664C55.9624 27.664 56.5464 27.848 56.9624 28.216C57.3784 28.584 57.5864 29.096 57.5864 29.752V33.16H58.2944V34H57.7544ZM54.9944 33.328C55.2344 33.328 55.4544 33.3 55.6544 33.244C55.8544 33.188 56.0264 33.108 56.1704 33.004C56.3144 32.9 56.4264 32.78 56.5064 32.644C56.5864 32.508 56.6264 32.36 56.6264 32.2V31.18H55.3544C54.8024 31.18 54.3984 31.26 54.1424 31.42C53.8944 31.58 53.7704 31.812 53.7704 32.116V32.368C53.7704 32.672 53.8784 32.908 54.0944 33.076C54.3184 33.244 54.6184 33.328 54.9944 33.328ZM60.9388 34L58.7668 27.808H59.7268L60.8068 30.88L61.4788 32.992H61.5388L62.2108 30.88L63.3148 27.808H64.2388L62.0548 34H60.9388ZM65.477 34V27.808H66.437V28.816H66.485C66.637 28.464 66.849 28.184 67.121 27.976C67.401 27.768 67.773 27.664 68.237 27.664C68.877 27.664 69.381 27.872 69.749 28.288C70.125 28.696 70.313 29.276 70.313 30.028V34H69.353V30.196C69.353 29.084 68.885 28.528 67.949 28.528C67.757 28.528 67.569 28.552 67.385 28.6C67.209 28.648 67.049 28.72 66.905 28.816C66.761 28.912 66.645 29.036 66.557 29.188C66.477 29.332 66.437 29.504 66.437 29.704V34H65.477ZM77.4733 34.144C77.0573 34.144 76.6773 34.068 76.3333 33.916C75.9893 33.764 75.6933 33.548 75.4453 33.268C75.2053 32.98 75.0173 32.64 74.8813 32.248C74.7453 31.848 74.6773 31.4 74.6773 30.904C74.6773 30.416 74.7453 29.972 74.8813 29.572C75.0173 29.172 75.2053 28.832 75.4453 28.552C75.6933 28.264 75.9893 28.044 76.3333 27.892C76.6773 27.74 77.0573 27.664 77.4733 27.664C77.8893 27.664 78.2653 27.74 78.6013 27.892C78.9453 28.044 79.2413 28.264 79.4893 28.552C79.7373 28.832 79.9293 29.172 80.0653 29.572C80.2013 29.972 80.2693 30.416 80.2693 30.904C80.2693 31.4 80.2013 31.848 80.0653 32.248C79.9293 32.64 79.7373 32.98 79.4893 33.268C79.2413 33.548 78.9453 33.764 78.6013 33.916C78.2653 34.068 77.8893 34.144 77.4733 34.144ZM77.4733 33.292C77.9933 33.292 78.4173 33.132 78.7453 32.812C79.0733 32.492 79.2373 32.004 79.2373 31.348V30.46C79.2373 29.804 79.0733 29.316 78.7453 28.996C78.4173 28.676 77.9933 28.516 77.4733 28.516C76.9533 28.516 76.5293 28.676 76.2013 28.996C75.8733 29.316 75.7093 29.804 75.7093 30.46V31.348C75.7093 32.004 75.8733 32.492 76.2013 32.812C76.5293 33.132 76.9533 33.292 77.4733 33.292ZM87.0681 34.684C87.0681 35.324 86.8161 35.792 86.3121 36.088C85.8161 36.392 85.0681 36.544 84.0681 36.544C83.1001 36.544 82.4041 36.412 81.9801 36.148C81.5561 35.884 81.3441 35.508 81.3441 35.02C81.3441 34.684 81.4321 34.42 81.6081 34.228C81.7841 34.044 82.0241 33.908 82.3281 33.82V33.688C81.9601 33.512 81.7761 33.224 81.7761 32.824C81.7761 32.512 81.8761 32.276 82.0761 32.116C82.2761 31.948 82.5321 31.824 82.8441 31.744V31.696C82.4761 31.52 82.1881 31.268 81.9801 30.94C81.7801 30.612 81.6801 30.232 81.6801 29.8C81.6801 29.488 81.7361 29.2 81.8481 28.936C81.9601 28.672 82.1161 28.448 82.3161 28.264C82.5241 28.072 82.7681 27.924 83.0481 27.82C83.3361 27.716 83.6561 27.664 84.0081 27.664C84.4481 27.664 84.8401 27.744 85.1841 27.904V27.796C85.1841 27.556 85.2401 27.36 85.3521 27.208C85.4641 27.048 85.6481 26.968 85.9041 26.968H86.8281V27.808H85.6521V28.204C85.8761 28.396 86.0481 28.628 86.1681 28.9C86.2961 29.164 86.3601 29.464 86.3601 29.8C86.3601 30.112 86.3041 30.4 86.1921 30.664C86.0801 30.928 85.9201 31.156 85.7121 31.348C85.5121 31.532 85.2681 31.676 84.9801 31.78C84.6921 31.884 84.3721 31.936 84.0201 31.936C83.8201 31.936 83.6201 31.916 83.4201 31.876C83.2121 31.932 83.0241 32.016 82.8561 32.128C82.6881 32.232 82.6041 32.38 82.6041 32.572C82.6041 32.756 82.6921 32.88 82.8681 32.944C83.0441 33.008 83.2721 33.04 83.5521 33.04H84.8721C85.6401 33.04 86.1961 33.188 86.5401 33.484C86.8921 33.772 87.0681 34.172 87.0681 34.684ZM86.1681 34.756C86.1681 34.508 86.0721 34.308 85.8801 34.156C85.6961 34.012 85.3641 33.94 84.8841 33.94H82.8201C82.4361 34.116 82.2441 34.396 82.2441 34.78C82.2441 35.052 82.3441 35.284 82.5441 35.476C82.7521 35.668 83.1001 35.764 83.5881 35.764H84.4761C85.0121 35.764 85.4281 35.68 85.7241 35.512C86.0201 35.344 86.1681 35.092 86.1681 34.756ZM84.0201 31.168C84.4281 31.168 84.7521 31.072 84.9921 30.88C85.2321 30.68 85.3521 30.376 85.3521 29.968V29.632C85.3521 29.224 85.2321 28.924 84.9921 28.732C84.7521 28.532 84.4281 28.432 84.0201 28.432C83.6121 28.432 83.2881 28.532 83.0481 28.732C82.8081 28.924 82.6881 29.224 82.6881 29.632V29.968C82.6881 30.376 82.8081 30.68 83.0481 30.88C83.2881 31.072 83.6121 31.168 84.0201 31.168ZM93.3519 34.144C92.9279 34.144 92.5439 34.068 92.1999 33.916C91.8639 33.764 91.5719 33.548 91.3239 33.268C91.0839 32.98 90.8959 32.64 90.7599 32.248C90.6319 31.848 90.5679 31.4 90.5679 30.904C90.5679 30.416 90.6319 29.972 90.7599 29.572C90.8959 29.172 91.0839 28.832 91.3239 28.552C91.5719 28.264 91.8639 28.044 92.1999 27.892C92.5439 27.74 92.9279 27.664 93.3519 27.664C93.7679 27.664 94.1399 27.74 94.4679 27.892C94.7959 28.044 95.0759 28.256 95.3079 28.528C95.5399 28.792 95.7159 29.108 95.8359 29.476C95.9639 29.844 96.0279 30.248 96.0279 30.688V31.144H91.5759V31.432C91.5759 31.696 91.6159 31.944 91.6959 32.176C91.7839 32.4 91.9039 32.596 92.0559 32.764C92.2159 32.932 92.4079 33.064 92.6319 33.16C92.8639 33.256 93.1239 33.304 93.4119 33.304C93.8039 33.304 94.1439 33.212 94.4319 33.028C94.7279 32.844 94.9559 32.58 95.1159 32.236L95.7999 32.728C95.5999 33.152 95.2879 33.496 94.8639 33.76C94.4399 34.016 93.9359 34.144 93.3519 34.144ZM93.3519 28.468C93.0879 28.468 92.8479 28.516 92.6319 28.612C92.4159 28.7 92.2279 28.828 92.0679 28.996C91.9159 29.164 91.7959 29.364 91.7079 29.596C91.6199 29.82 91.5759 30.068 91.5759 30.34V30.424H94.9959V30.292C94.9959 29.74 94.8439 29.3 94.5399 28.972C94.2439 28.636 93.8479 28.468 93.3519 28.468ZM98.8841 34L96.7121 27.808H97.6721L98.7521 30.88L99.4241 32.992H99.4841L100.156 30.88L101.26 27.808H102.184L100 34H98.8841ZM104.826 34C104.49 34 104.234 33.908 104.058 33.724C103.89 33.532 103.806 33.284 103.806 32.98V28.648H102.786V27.808H103.362C103.57 27.808 103.71 27.768 103.782 27.688C103.862 27.6 103.902 27.452 103.902 27.244V26.092H104.766V27.808H106.122V28.648H104.766V33.16H106.026V34H104.826ZM108.277 34.144C108.021 34.144 107.833 34.08 107.713 33.952C107.601 33.824 107.545 33.656 107.545 33.448V33.292C107.545 33.084 107.601 32.916 107.713 32.788C107.833 32.66 108.021 32.596 108.277 32.596C108.533 32.596 108.717 32.66 108.829 32.788C108.949 32.916 109.009 33.084 109.009 33.292V33.448C109.009 33.656 108.949 33.824 108.829 33.952C108.717 34.08 108.533 34.144 108.277 34.144ZM113.77 34V27.808H114.73V28.816H114.778C114.85 28.656 114.93 28.508 115.018 28.372C115.114 28.228 115.226 28.104 115.354 28C115.49 27.896 115.646 27.816 115.822 27.76C115.998 27.696 116.206 27.664 116.446 27.664C116.854 27.664 117.23 27.764 117.574 27.964C117.918 28.156 118.174 28.476 118.342 28.924H118.366C118.478 28.588 118.686 28.296 118.99 28.048C119.302 27.792 119.722 27.664 120.25 27.664C120.882 27.664 121.374 27.872 121.726 28.288C122.086 28.696 122.266 29.276 122.266 30.028V34H121.306V30.196C121.306 29.644 121.198 29.228 120.982 28.948C120.766 28.668 120.422 28.528 119.95 28.528C119.758 28.528 119.574 28.552 119.398 28.6C119.23 28.648 119.078 28.72 118.942 28.816C118.806 28.912 118.698 29.036 118.618 29.188C118.538 29.332 118.498 29.504 118.498 29.704V34H117.538V30.196C117.538 29.644 117.43 29.228 117.214 28.948C116.998 28.668 116.662 28.528 116.206 28.528C116.014 28.528 115.83 28.552 115.654 28.6C115.478 28.648 115.322 28.72 115.186 28.816C115.05 28.912 114.938 29.036 114.85 29.188C114.77 29.332 114.73 29.504 114.73 29.704V34H113.77ZM126.575 34.144C126.151 34.144 125.767 34.068 125.423 33.916C125.087 33.764 124.795 33.548 124.547 33.268C124.307 32.98 124.119 32.64 123.983 32.248C123.855 31.848 123.791 31.4 123.791 30.904C123.791 30.416 123.855 29.972 123.983 29.572C124.119 29.172 124.307 28.832 124.547 28.552C124.795 28.264 125.087 28.044 125.423 27.892C125.767 27.74 126.151 27.664 126.575 27.664C126.991 27.664 127.363 27.74 127.691 27.892C128.019 28.044 128.299 28.256 128.531 28.528C128.763 28.792 128.939 29.108 129.059 29.476C129.187 29.844 129.251 30.248 129.251 30.688V31.144H124.799V31.432C124.799 31.696 124.839 31.944 124.919 32.176C125.007 32.4 125.127 32.596 125.279 32.764C125.439 32.932 125.631 33.064 125.855 33.16C126.087 33.256 126.347 33.304 126.635 33.304C127.027 33.304 127.367 33.212 127.655 33.028C127.951 32.844 128.179 32.58 128.339 32.236L129.023 32.728C128.823 33.152 128.511 33.496 128.087 33.76C127.663 34.016 127.159 34.144 126.575 34.144ZM126.575 28.468C126.311 28.468 126.071 28.516 125.855 28.612C125.639 28.7 125.451 28.828 125.291 28.996C125.139 29.164 125.019 29.364 124.931 29.596C124.843 29.82 124.799 30.068 124.799 30.34V30.424H128.219V30.292C128.219 29.74 128.067 29.3 127.763 28.972C127.467 28.636 127.071 28.468 126.575 28.468ZM131.853 34C131.517 34 131.261 33.908 131.085 33.724C130.917 33.532 130.833 33.292 130.833 33.004V25.12H131.793V33.16H132.705V34H131.853ZM135.063 34C134.727 34 134.471 33.908 134.295 33.724C134.127 33.532 134.043 33.292 134.043 33.004V25.12H135.003V33.16H135.915V34H135.063ZM139.641 34.144C139.217 34.144 138.833 34.068 138.489 33.916C138.153 33.764 137.861 33.548 137.613 33.268C137.373 32.98 137.185 32.64 137.049 32.248C136.921 31.848 136.857 31.4 136.857 30.904C136.857 30.416 136.921 29.972 137.049 29.572C137.185 29.172 137.373 28.832 137.613 28.552C137.861 28.264 138.153 28.044 138.489 27.892C138.833 27.74 139.217 27.664 139.641 27.664C140.057 27.664 140.429 27.74 140.757 27.892C141.085 28.044 141.365 28.256 141.597 28.528C141.829 28.792 142.005 29.108 142.125 29.476C142.253 29.844 142.317 30.248 142.317 30.688V31.144H137.865V31.432C137.865 31.696 137.905 31.944 137.985 32.176C138.073 32.4 138.193 32.596 138.345 32.764C138.505 32.932 138.697 33.064 138.921 33.16C139.153 33.256 139.413 33.304 139.701 33.304C140.093 33.304 140.433 33.212 140.721 33.028C141.017 32.844 141.245 32.58 141.405 32.236L142.089 32.728C141.889 33.152 141.577 33.496 141.153 33.76C140.729 34.016 140.225 34.144 139.641 34.144ZM139.641 28.468C139.377 28.468 139.137 28.516 138.921 28.612C138.705 28.7 138.517 28.828 138.357 28.996C138.205 29.164 138.085 29.364 137.997 29.596C137.909 29.82 137.865 30.068 137.865 30.34V30.424H141.285V30.292C141.285 29.74 141.133 29.3 140.829 28.972C140.533 28.636 140.137 28.468 139.641 28.468ZM143.899 34V27.808H144.859V28.816H144.907C144.979 28.656 145.059 28.508 145.147 28.372C145.243 28.228 145.355 28.104 145.483 28C145.619 27.896 145.775 27.816 145.951 27.76C146.127 27.696 146.335 27.664 146.575 27.664C146.983 27.664 147.359 27.764 147.703 27.964C148.047 28.156 148.303 28.476 148.471 28.924H148.495C148.607 28.588 148.815 28.296 149.119 28.048C149.431 27.792 149.851 27.664 150.379 27.664C151.011 27.664 151.503 27.872 151.855 28.288C152.215 28.696 152.395 29.276 152.395 30.028V34H151.435V30.196C151.435 29.644 151.327 29.228 151.111 28.948C150.895 28.668 150.551 28.528 150.079 28.528C149.887 28.528 149.703 28.552 149.527 28.6C149.359 28.648 149.207 28.72 149.071 28.816C148.935 28.912 148.827 29.036 148.747 29.188C148.667 29.332 148.627 29.504 148.627 29.704V34H147.667V30.196C147.667 29.644 147.559 29.228 147.343 28.948C147.127 28.668 146.791 28.528 146.335 28.528C146.143 28.528 145.959 28.552 145.783 28.6C145.607 28.648 145.451 28.72 145.315 28.816C145.179 28.912 145.067 29.036 144.979 29.188C144.899 29.332 144.859 29.504 144.859 29.704V34H143.899ZM154.375 34V27.808H155.335V28.816H155.383C155.535 28.464 155.747 28.184 156.019 27.976C156.299 27.768 156.671 27.664 157.135 27.664C157.775 27.664 158.279 27.872 158.647 28.288C159.023 28.696 159.211 29.276 159.211 30.028V34H158.251V30.196C158.251 29.084 157.783 28.528 156.847 28.528C156.655 28.528 156.467 28.552 156.283 28.6C156.107 28.648 155.947 28.72 155.803 28.816C155.659 28.912 155.543 29.036 155.455 29.188C155.375 29.332 155.335 29.504 155.335 29.704V34H154.375ZM165.696 34C165.336 34 165.076 33.904 164.916 33.712C164.764 33.52 164.668 33.28 164.628 32.992H164.568C164.432 33.376 164.208 33.664 163.896 33.856C163.584 34.048 163.212 34.144 162.78 34.144C162.124 34.144 161.612 33.976 161.244 33.64C160.884 33.304 160.704 32.848 160.704 32.272C160.704 31.688 160.916 31.24 161.34 30.928C161.772 30.616 162.44 30.46 163.344 30.46H164.568V29.848C164.568 29.408 164.448 29.072 164.208 28.84C163.968 28.608 163.6 28.492 163.104 28.492C162.728 28.492 162.412 28.576 162.156 28.744C161.908 28.912 161.7 29.136 161.532 29.416L160.956 28.876C161.124 28.54 161.392 28.256 161.76 28.024C162.128 27.784 162.592 27.664 163.152 27.664C163.904 27.664 164.488 27.848 164.904 28.216C165.32 28.584 165.528 29.096 165.528 29.752V33.16H166.236V34H165.696ZM162.936 33.328C163.176 33.328 163.396 33.3 163.596 33.244C163.796 33.188 163.968 33.108 164.112 33.004C164.256 32.9 164.368 32.78 164.448 32.644C164.528 32.508 164.568 32.36 164.568 32.2V31.18H163.296C162.744 31.18 162.34 31.26 162.084 31.42C161.836 31.58 161.712 31.812 161.712 32.116V32.368C161.712 32.672 161.82 32.908 162.036 33.076C162.26 33.244 162.56 33.328 162.936 33.328ZM168.88 34L166.708 27.808H167.668L168.748 30.88L169.42 32.992H169.48L170.152 30.88L171.256 27.808H172.18L169.996 34H168.88ZM173.418 34V27.808H174.378V28.816H174.426C174.578 28.464 174.79 28.184 175.062 27.976C175.342 27.768 175.714 27.664 176.178 27.664C176.818 27.664 177.322 27.872 177.69 28.288C178.066 28.696 178.254 29.276 178.254 30.028V34H177.294V30.196C177.294 29.084 176.826 28.528 175.89 28.528C175.698 28.528 175.51 28.552 175.326 28.6C175.15 28.648 174.99 28.72 174.846 28.816C174.702 28.912 174.586 29.036 174.498 29.188C174.418 29.332 174.378 29.504 174.378 29.704V34H173.418ZM180.215 30.256C180.215 29.68 180.271 29.124 180.383 28.588C180.495 28.052 180.647 27.556 180.839 27.1C181.039 26.636 181.271 26.216 181.535 25.84C181.799 25.464 182.083 25.144 182.387 24.88H183.299C182.963 25.184 182.659 25.528 182.387 25.912C182.123 26.296 181.895 26.704 181.703 27.136C181.519 27.568 181.375 28.008 181.271 28.456C181.167 28.904 181.115 29.336 181.115 29.752V30.784C181.115 31.208 181.167 31.644 181.271 32.092C181.375 32.54 181.523 32.98 181.715 33.412C181.907 33.844 182.135 34.252 182.399 34.636C182.671 35.02 182.971 35.356 183.299 35.644H182.387C182.091 35.396 181.811 35.084 181.547 34.708C181.283 34.332 181.051 33.912 180.851 33.448C180.659 32.984 180.503 32.484 180.383 31.948C180.271 31.404 180.215 30.84 180.215 30.256ZM186.586 34.144C186.162 34.144 185.778 34.068 185.434 33.916C185.098 33.764 184.806 33.548 184.558 33.268C184.318 32.98 184.13 32.64 183.994 32.248C183.866 31.848 183.802 31.4 183.802 30.904C183.802 30.416 183.866 29.972 183.994 29.572C184.13 29.172 184.318 28.832 184.558 28.552C184.806 28.264 185.098 28.044 185.434 27.892C185.778 27.74 186.162 27.664 186.586 27.664C187.002 27.664 187.374 27.74 187.702 27.892C188.03 28.044 188.31 28.256 188.542 28.528C188.774 28.792 188.95 29.108 189.07 29.476C189.198 29.844 189.262 30.248 189.262 30.688V31.144H184.81V31.432C184.81 31.696 184.85 31.944 184.93 32.176C185.018 32.4 185.138 32.596 185.29 32.764C185.45 32.932 185.642 33.064 185.866 33.16C186.098 33.256 186.358 33.304 186.646 33.304C187.038 33.304 187.378 33.212 187.666 33.028C187.962 32.844 188.19 32.58 188.35 32.236L189.034 32.728C188.834 33.152 188.522 33.496 188.098 33.76C187.674 34.016 187.17 34.144 186.586 34.144ZM186.586 28.468C186.322 28.468 186.082 28.516 185.866 28.612C185.65 28.7 185.462 28.828 185.302 28.996C185.15 29.164 185.03 29.364 184.942 29.596C184.854 29.82 184.81 30.068 184.81 30.34V30.424H188.23V30.292C188.23 29.74 188.078 29.3 187.774 28.972C187.478 28.636 187.082 28.468 186.586 28.468ZM192.848 30.256C192.848 30.84 192.788 31.404 192.668 31.948C192.556 32.484 192.4 32.984 192.2 33.448C192.008 33.912 191.78 34.332 191.516 34.708C191.252 35.084 190.972 35.396 190.676 35.644H189.764C190.092 35.356 190.388 35.02 190.652 34.636C190.924 34.252 191.156 33.844 191.348 33.412C191.54 32.98 191.688 32.54 191.792 32.092C191.896 31.644 191.948 31.208 191.948 30.784V29.752C191.948 29.336 191.896 28.904 191.792 28.456C191.688 28.008 191.54 27.568 191.348 27.136C191.164 26.704 190.936 26.296 190.664 25.912C190.4 25.528 190.1 25.184 189.764 24.88H190.676C190.98 25.144 191.264 25.464 191.528 25.84C191.792 26.216 192.02 26.636 192.212 27.1C192.412 27.556 192.568 28.052 192.68 28.588C192.792 29.124 192.848 29.68 192.848 30.256ZM199.56 34.144C198.984 34.144 198.5 34.036 198.108 33.82C197.724 33.596 197.392 33.3 197.112 32.932L197.796 32.38C198.036 32.684 198.304 32.92 198.6 33.088C198.896 33.248 199.24 33.328 199.632 33.328C200.04 33.328 200.356 33.24 200.58 33.064C200.812 32.888 200.928 32.64 200.928 32.32C200.928 32.08 200.848 31.876 200.688 31.708C200.536 31.532 200.256 31.412 199.848 31.348L199.356 31.276C199.068 31.236 198.804 31.176 198.564 31.096C198.324 31.008 198.112 30.896 197.928 30.76C197.752 30.616 197.612 30.44 197.508 30.232C197.412 30.024 197.364 29.776 197.364 29.488C197.364 29.184 197.42 28.92 197.532 28.696C197.644 28.464 197.796 28.272 197.988 28.12C198.188 27.968 198.424 27.856 198.696 27.784C198.968 27.704 199.26 27.664 199.572 27.664C200.076 27.664 200.496 27.752 200.832 27.928C201.176 28.104 201.476 28.348 201.732 28.66L201.096 29.236C200.96 29.044 200.76 28.872 200.496 28.72C200.232 28.56 199.9 28.48 199.5 28.48C199.1 28.48 198.796 28.568 198.588 28.744C198.388 28.912 198.288 29.144 198.288 29.44C198.288 29.744 198.388 29.964 198.588 30.1C198.796 30.236 199.092 30.336 199.476 30.4L199.956 30.472C200.644 30.576 201.132 30.776 201.42 31.072C201.708 31.36 201.852 31.74 201.852 32.212C201.852 32.812 201.648 33.284 201.24 33.628C200.832 33.972 200.272 34.144 199.56 34.144ZM205.887 34.144C205.471 34.144 205.091 34.068 204.747 33.916C204.403 33.764 204.107 33.548 203.859 33.268C203.619 32.98 203.431 32.64 203.295 32.248C203.159 31.848 203.091 31.4 203.091 30.904C203.091 30.416 203.159 29.972 203.295 29.572C203.431 29.172 203.619 28.832 203.859 28.552C204.107 28.264 204.403 28.044 204.747 27.892C205.091 27.74 205.471 27.664 205.887 27.664C206.303 27.664 206.679 27.74 207.015 27.892C207.359 28.044 207.655 28.264 207.903 28.552C208.151 28.832 208.343 29.172 208.479 29.572C208.615 29.972 208.683 30.416 208.683 30.904C208.683 31.4 208.615 31.848 208.479 32.248C208.343 32.64 208.151 32.98 207.903 33.268C207.655 33.548 207.359 33.764 207.015 33.916C206.679 34.068 206.303 34.144 205.887 34.144ZM205.887 33.292C206.407 33.292 206.831 33.132 207.159 32.812C207.487 32.492 207.651 32.004 207.651 31.348V30.46C207.651 29.804 207.487 29.316 207.159 28.996C206.831 28.676 206.407 28.516 205.887 28.516C205.367 28.516 204.943 28.676 204.615 28.996C204.287 29.316 204.123 29.804 204.123 30.46V31.348C204.123 32.004 204.287 32.492 204.615 32.812C204.943 33.132 205.367 33.292 205.887 33.292ZM210.262 34V27.808H211.222V28.816H211.27C211.342 28.656 211.422 28.508 211.51 28.372C211.606 28.228 211.718 28.104 211.846 28C211.982 27.896 212.138 27.816 212.314 27.76C212.49 27.696 212.698 27.664 212.938 27.664C213.346 27.664 213.722 27.764 214.066 27.964C214.41 28.156 214.666 28.476 214.834 28.924H214.858C214.97 28.588 215.178 28.296 215.482 28.048C215.794 27.792 216.214 27.664 216.742 27.664C217.374 27.664 217.866 27.872 218.218 28.288C218.578 28.696 218.758 29.276 218.758 30.028V34H217.798V30.196C217.798 29.644 217.69 29.228 217.474 28.948C217.258 28.668 216.914 28.528 216.442 28.528C216.25 28.528 216.066 28.552 215.89 28.6C215.722 28.648 215.57 28.72 215.434 28.816C215.298 28.912 215.19 29.036 215.11 29.188C215.03 29.332 214.99 29.504 214.99 29.704V34H214.03V30.196C214.03 29.644 213.922 29.228 213.706 28.948C213.49 28.668 213.154 28.528 212.698 28.528C212.506 28.528 212.322 28.552 212.146 28.6C211.97 28.648 211.814 28.72 211.678 28.816C211.542 28.912 211.43 29.036 211.342 29.188C211.262 29.332 211.222 29.504 211.222 29.704V34H210.262ZM224.055 26.356C223.847 26.356 223.695 26.308 223.599 26.212C223.511 26.108 223.467 25.976 223.467 25.816V25.66C223.467 25.5 223.511 25.372 223.599 25.276C223.695 25.172 223.847 25.12 224.055 25.12C224.263 25.12 224.411 25.172 224.499 25.276C224.595 25.372 224.643 25.5 224.643 25.66V25.816C224.643 25.976 224.595 26.108 224.499 26.212C224.411 26.308 224.263 26.356 224.055 26.356ZM223.575 27.808H224.535V34H223.575V27.808ZM233.371 32.992H233.323C232.947 33.76 232.343 34.144 231.511 34.144C231.127 34.144 230.779 34.068 230.467 33.916C230.155 33.764 229.887 33.548 229.663 33.268C229.447 32.988 229.279 32.648 229.159 32.248C229.047 31.848 228.991 31.4 228.991 30.904C228.991 30.408 229.047 29.96 229.159 29.56C229.279 29.16 229.447 28.82 229.663 28.54C229.887 28.26 230.155 28.044 230.467 27.892C230.779 27.74 231.127 27.664 231.511 27.664C231.943 27.664 232.311 27.76 232.615 27.952C232.927 28.136 233.163 28.424 233.323 28.816H233.371V25.12H234.331V34H233.371V32.992ZM231.775 33.28C231.991 33.28 232.195 33.252 232.387 33.196C232.587 33.14 232.759 33.06 232.903 32.956C233.047 32.844 233.159 32.712 233.239 32.56C233.327 32.4 233.371 32.22 233.371 32.02V29.716C233.371 29.548 233.327 29.392 233.239 29.248C233.159 29.096 233.047 28.968 232.903 28.864C232.759 28.76 232.587 28.68 232.387 28.624C232.195 28.56 231.991 28.528 231.775 28.528C231.231 28.528 230.803 28.7 230.491 29.044C230.179 29.38 230.023 29.824 230.023 30.376V31.432C230.023 31.984 230.179 32.432 230.491 32.776C230.803 33.112 231.231 33.28 231.775 33.28ZM236.852 26.356C236.644 26.356 236.492 26.308 236.396 26.212C236.308 26.108 236.264 25.976 236.264 25.816V25.66C236.264 25.5 236.308 25.372 236.396 25.276C236.492 25.172 236.644 25.12 236.852 25.12C237.06 25.12 237.208 25.172 237.296 25.276C237.392 25.372 237.44 25.5 237.44 25.66V25.816C237.44 25.976 237.392 26.108 237.296 26.212C237.208 26.308 237.06 26.356 236.852 26.356ZM236.372 27.808H237.332V34H236.372V27.808ZM240.74 34C240.404 34 240.148 33.908 239.972 33.724C239.804 33.532 239.72 33.284 239.72 32.98V28.648H238.7V27.808H239.276C239.484 27.808 239.624 27.768 239.696 27.688C239.776 27.6 239.816 27.452 239.816 27.244V26.092H240.68V27.808H242.036V28.648H240.68V33.16H241.94V34H240.74ZM246.415 27.808H247.375V28.816H247.423C247.583 28.424 247.815 28.136 248.119 27.952C248.431 27.76 248.803 27.664 249.235 27.664C249.619 27.664 249.967 27.74 250.279 27.892C250.591 28.044 250.855 28.26 251.071 28.54C251.295 28.82 251.463 29.16 251.575 29.56C251.695 29.96 251.755 30.408 251.755 30.904C251.755 31.4 251.695 31.848 251.575 32.248C251.463 32.648 251.295 32.988 251.071 33.268C250.855 33.548 250.591 33.764 250.279 33.916C249.967 34.068 249.619 34.144 249.235 34.144C248.395 34.144 247.791 33.76 247.423 32.992H247.375V36.4H246.415V27.808ZM248.971 33.28C249.515 33.28 249.943 33.112 250.255 32.776C250.567 32.432 250.723 31.984 250.723 31.432V30.376C250.723 29.824 250.567 29.38 250.255 29.044C249.943 28.7 249.515 28.528 248.971 28.528C248.755 28.528 248.547 28.56 248.347 28.624C248.155 28.68 247.987 28.76 247.843 28.864C247.699 28.968 247.583 29.096 247.495 29.248C247.415 29.392 247.375 29.548 247.375 29.716V32.02C247.375 32.22 247.415 32.4 247.495 32.56C247.583 32.712 247.699 32.844 247.843 32.956C247.987 33.06 248.155 33.14 248.347 33.196C248.547 33.252 248.755 33.28 248.971 33.28ZM257.875 34C257.515 34 257.255 33.904 257.095 33.712C256.943 33.52 256.847 33.28 256.807 32.992H256.747C256.611 33.376 256.387 33.664 256.075 33.856C255.763 34.048 255.391 34.144 254.959 34.144C254.303 34.144 253.791 33.976 253.423 33.64C253.063 33.304 252.883 32.848 252.883 32.272C252.883 31.688 253.095 31.24 253.519 30.928C253.951 30.616 254.619 30.46 255.523 30.46H256.747V29.848C256.747 29.408 256.627 29.072 256.387 28.84C256.147 28.608 255.779 28.492 255.283 28.492C254.907 28.492 254.591 28.576 254.335 28.744C254.087 28.912 253.879 29.136 253.711 29.416L253.135 28.876C253.303 28.54 253.571 28.256 253.939 28.024C254.307 27.784 254.771 27.664 255.331 27.664C256.083 27.664 256.667 27.848 257.083 28.216C257.499 28.584 257.707 29.096 257.707 29.752V33.16H258.415V34H257.875ZM255.115 33.328C255.355 33.328 255.575 33.3 255.775 33.244C255.975 33.188 256.147 33.108 256.291 33.004C256.435 32.9 256.547 32.78 256.627 32.644C256.707 32.508 256.747 32.36 256.747 32.2V31.18H255.475C254.923 31.18 254.519 31.26 254.263 31.42C254.015 31.58 253.891 31.812 253.891 32.116V32.368C253.891 32.672 253.999 32.908 254.215 33.076C254.439 33.244 254.739 33.328 255.115 33.328ZM261.646 34.144C261.07 34.144 260.586 34.036 260.194 33.82C259.81 33.596 259.478 33.3 259.198 32.932L259.882 32.38C260.122 32.684 260.39 32.92 260.686 33.088C260.982 33.248 261.326 33.328 261.718 33.328C262.126 33.328 262.442 33.24 262.666 33.064C262.898 32.888 263.014 32.64 263.014 32.32C263.014 32.08 262.934 31.876 262.774 31.708C262.622 31.532 262.342 31.412 261.934 31.348L261.442 31.276C261.154 31.236 260.89 31.176 260.65 31.096C260.41 31.008 260.198 30.896 260.014 30.76C259.838 30.616 259.698 30.44 259.594 30.232C259.498 30.024 259.45 29.776 259.45 29.488C259.45 29.184 259.506 28.92 259.618 28.696C259.73 28.464 259.882 28.272 260.074 28.12C260.274 27.968 260.51 27.856 260.782 27.784C261.054 27.704 261.346 27.664 261.658 27.664C262.162 27.664 262.582 27.752 262.918 27.928C263.262 28.104 263.562 28.348 263.818 28.66L263.182 29.236C263.046 29.044 262.846 28.872 262.582 28.72C262.318 28.56 261.986 28.48 261.586 28.48C261.186 28.48 260.882 28.568 260.674 28.744C260.474 28.912 260.374 29.144 260.374 29.44C260.374 29.744 260.474 29.964 260.674 30.1C260.882 30.236 261.178 30.336 261.562 30.4L262.042 30.472C262.73 30.576 263.218 30.776 263.506 31.072C263.794 31.36 263.938 31.74 263.938 32.212C263.938 32.812 263.734 33.284 263.326 33.628C262.918 33.972 262.358 34.144 261.646 34.144ZM266.187 34.144C265.931 34.144 265.743 34.08 265.623 33.952C265.511 33.824 265.455 33.656 265.455 33.448V33.292C265.455 33.084 265.511 32.916 265.623 32.788C265.743 32.66 265.931 32.596 266.187 32.596C266.443 32.596 266.627 32.66 266.739 32.788C266.859 32.916 266.919 33.084 266.919 33.292V33.448C266.919 33.656 266.859 33.824 266.739 33.952C266.627 34.08 266.443 34.144 266.187 34.144Z" fill="#474E95"/>
<path d="M147 168H1V203H147V168Z" fill="#707070"/>
<path d="M20.432 190.272H20.368C20.272 190.816 19.968 191.275 19.456 191.648C18.9547 192.011 18.2827 192.192 17.44 192.192C16.7787 192.192 16.1653 192.069 15.6 191.824C15.0453 191.579 14.56 191.216 14.144 190.736C13.7387 190.245 13.4187 189.643 13.184 188.928C12.9493 188.213 12.832 187.387 12.832 186.448C12.832 185.509 12.9493 184.683 13.184 183.968C13.4293 183.243 13.7707 182.635 14.208 182.144C14.6453 181.653 15.168 181.28 15.776 181.024C16.384 180.768 17.0613 180.64 17.808 180.64C18.8107 180.64 19.664 180.859 20.368 181.296C21.072 181.733 21.6267 182.363 22.032 183.184L20.32 184.192C20.1173 183.712 19.8133 183.312 19.408 182.992C19.0133 182.672 18.48 182.512 17.808 182.512C16.976 182.512 16.3093 182.768 15.808 183.28C15.3173 183.781 15.072 184.528 15.072 185.52V187.312C15.072 188.293 15.3227 189.04 15.824 189.552C16.3253 190.064 16.9973 190.32 17.84 190.32C18.1707 190.32 18.48 190.283 18.768 190.208C19.056 190.123 19.3067 190 19.52 189.84C19.7333 189.68 19.904 189.483 20.032 189.248C20.16 189.013 20.224 188.736 20.224 188.416V187.696H18.032V185.92H22.256V192H20.432V190.272ZM27.9506 192.192C27.332 192.192 26.7773 192.091 26.2866 191.888C25.8066 191.675 25.396 191.381 25.0546 191.008C24.724 190.624 24.468 190.165 24.2866 189.632C24.1053 189.088 24.0146 188.48 24.0146 187.808C24.0146 187.147 24.1 186.549 24.2706 186.016C24.452 185.483 24.708 185.029 25.0386 184.656C25.3693 184.272 25.7746 183.979 26.2546 183.776C26.7346 183.563 27.2786 183.456 27.8866 183.456C28.5373 183.456 29.1026 183.568 29.5826 183.792C30.0626 184.016 30.4573 184.32 30.7666 184.704C31.076 185.088 31.3053 185.536 31.4546 186.048C31.6146 186.549 31.6946 187.088 31.6946 187.664V188.336H26.1426V188.544C26.1426 189.152 26.3133 189.643 26.6546 190.016C26.996 190.379 27.5026 190.56 28.1746 190.56C28.6866 190.56 29.1026 190.453 29.4226 190.24C29.7533 190.027 30.0466 189.755 30.3026 189.424L31.4066 190.656C31.0653 191.136 30.596 191.515 29.9986 191.792C29.412 192.059 28.7293 192.192 27.9506 192.192ZM27.9186 184.992C27.3746 184.992 26.9426 185.173 26.6226 185.536C26.3026 185.899 26.1426 186.368 26.1426 186.944V187.072H29.5666V186.928C29.5666 186.352 29.4226 185.888 29.1346 185.536C28.8573 185.173 28.452 184.992 27.9186 184.992ZM33.4965 192V183.648H35.5445V185.04H35.6245C35.7845 184.603 36.0405 184.229 36.3925 183.92C36.7445 183.611 37.2352 183.456 37.8645 183.456C38.4405 183.456 38.9365 183.595 39.3525 183.872C39.7685 184.149 40.0778 184.571 40.2805 185.136H40.3125C40.4618 184.667 40.7552 184.272 41.1925 183.952C41.6405 183.621 42.2005 183.456 42.8725 183.456C43.6938 183.456 44.3232 183.739 44.7605 184.304C45.2085 184.869 45.4325 185.675 45.4325 186.72V192H43.3845V186.928C43.3845 185.733 42.9365 185.136 42.0405 185.136C41.8378 185.136 41.6405 185.168 41.4485 185.232C41.2672 185.285 41.1018 185.371 40.9525 185.488C40.8138 185.595 40.7018 185.733 40.6165 185.904C40.5312 186.064 40.4885 186.256 40.4885 186.48V192H38.4405V186.928C38.4405 185.733 37.9925 185.136 37.0965 185.136C36.9045 185.136 36.7125 185.168 36.5205 185.232C36.3392 185.285 36.1738 185.371 36.0245 185.488C35.8858 185.595 35.7685 185.733 35.6725 185.904C35.5872 186.064 35.5445 186.256 35.5445 186.48V192H33.4965ZM54.7929 192.192C54.1955 192.192 53.6569 192.091 53.1769 191.888C52.7075 191.685 52.3022 191.392 51.9609 191.008C51.6302 190.624 51.3742 190.165 51.1929 189.632C51.0115 189.088 50.9209 188.48 50.9209 187.808C50.9209 187.136 51.0115 186.533 51.1929 186C51.3742 185.467 51.6302 185.013 51.9609 184.64C52.3022 184.256 52.7075 183.963 53.1769 183.76C53.6569 183.557 54.1955 183.456 54.7929 183.456C55.3902 183.456 55.9289 183.557 56.4089 183.76C56.8889 183.963 57.2942 184.256 57.6249 184.64C57.9662 185.013 58.2275 185.467 58.4089 186C58.5902 186.533 58.6809 187.136 58.6809 187.808C58.6809 188.48 58.5902 189.088 58.4089 189.632C58.2275 190.165 57.9662 190.624 57.6249 191.008C57.2942 191.392 56.8889 191.685 56.4089 191.888C55.9289 192.091 55.3902 192.192 54.7929 192.192ZM54.7929 190.544C55.3369 190.544 55.7635 190.379 56.0729 190.048C56.3822 189.717 56.5369 189.232 56.5369 188.592V187.04C56.5369 186.411 56.3822 185.931 56.0729 185.6C55.7635 185.269 55.3369 185.104 54.7929 185.104C54.2595 185.104 53.8382 185.269 53.5289 185.6C53.2195 185.931 53.0649 186.411 53.0649 187.04V188.592C53.0649 189.232 53.2195 189.717 53.5289 190.048C53.8382 190.379 54.2595 190.544 54.7929 190.544ZM60.4965 183.648H62.5445V185.024H62.6085C62.7578 184.544 63.0405 184.165 63.4565 183.888C63.8725 183.6 64.3578 183.456 64.9125 183.456C65.9792 183.456 66.7898 183.835 67.3445 184.592C67.9098 185.339 68.1925 186.411 68.1925 187.808C68.1925 189.216 67.9098 190.299 67.3445 191.056C66.7898 191.813 65.9792 192.192 64.9125 192.192C64.3578 192.192 63.8725 192.048 63.4565 191.76C63.0512 191.472 62.7685 191.088 62.6085 190.608H62.5445V195.2H60.4965V183.648ZM64.2565 190.496C64.7898 190.496 65.2218 190.32 65.5525 189.968C65.8832 189.616 66.0485 189.141 66.0485 188.544V187.104C66.0485 186.507 65.8832 186.032 65.5525 185.68C65.2218 185.317 64.7898 185.136 64.2565 185.136C63.7658 185.136 63.3552 185.259 63.0245 185.504C62.7045 185.749 62.5445 186.075 62.5445 186.48V189.136C62.5445 189.573 62.7045 189.909 63.0245 190.144C63.3552 190.379 63.7658 190.496 64.2565 190.496ZM72.1383 192C71.4343 192 70.9169 191.824 70.5863 191.472C70.2556 191.12 70.0903 190.624 70.0903 189.984V180.16H72.1383V190.368H73.2423V192H72.1383ZM79.804 183.648H81.724L78.364 193.488C78.2573 193.787 78.1347 194.043 77.996 194.256C77.868 194.48 77.7133 194.661 77.532 194.8C77.3507 194.939 77.132 195.04 76.876 195.104C76.62 195.168 76.3213 195.2 75.98 195.2H74.748V193.568H76.252L76.636 192.4L73.644 183.648H75.676L77.132 188.064L77.676 190.176H77.772L78.348 188.064L79.804 183.648ZM85.6856 192.192C84.8856 192.192 84.2136 192.059 83.6696 191.792C83.1256 191.515 82.6456 191.136 82.2296 190.656L83.4776 189.44C83.787 189.792 84.123 190.069 84.4856 190.272C84.859 190.475 85.2856 190.576 85.7656 190.576C86.2563 190.576 86.6083 190.491 86.8216 190.32C87.0456 190.149 87.1576 189.915 87.1576 189.616C87.1576 189.371 87.0776 189.179 86.9176 189.04C86.7683 188.891 86.507 188.789 86.1336 188.736L85.3016 188.624C84.395 188.507 83.7016 188.251 83.2216 187.856C82.7523 187.451 82.5176 186.864 82.5176 186.096C82.5176 185.691 82.5923 185.328 82.7416 185.008C82.891 184.677 83.1043 184.4 83.3816 184.176C83.659 183.941 83.9896 183.765 84.3736 183.648C84.7683 183.52 85.2056 183.456 85.6856 183.456C86.091 183.456 86.4483 183.488 86.7576 183.552C87.0776 183.605 87.3656 183.691 87.6216 183.808C87.8776 183.915 88.1123 184.053 88.3256 184.224C88.539 184.384 88.747 184.565 88.9496 184.768L87.7496 185.968C87.5043 185.712 87.211 185.499 86.8696 185.328C86.5283 185.157 86.155 185.072 85.7496 185.072C85.3016 185.072 84.9763 185.152 84.7736 185.312C84.5816 185.472 84.4856 185.68 84.4856 185.936C84.4856 186.213 84.5656 186.427 84.7256 186.576C84.8963 186.715 85.179 186.816 85.5736 186.88L86.4216 186.992C88.2243 187.248 89.1256 188.069 89.1256 189.456C89.1256 189.861 89.0403 190.235 88.8696 190.576C88.7096 190.907 88.4803 191.195 88.1816 191.44C87.883 191.675 87.5203 191.861 87.0936 192C86.6776 192.128 86.2083 192.192 85.6856 192.192ZM90.934 192V183.648H92.982V185.04H93.062C93.2327 184.592 93.4993 184.219 93.862 183.92C94.2353 183.611 94.7473 183.456 95.398 183.456C96.262 183.456 96.9233 183.739 97.382 184.304C97.8407 184.869 98.07 185.675 98.07 186.72V192H96.022V186.928C96.022 186.331 95.9153 185.883 95.702 185.584C95.4887 185.285 95.1367 185.136 94.646 185.136C94.4327 185.136 94.2247 185.168 94.022 185.232C93.83 185.285 93.654 185.371 93.494 185.488C93.3447 185.595 93.222 185.733 93.126 185.904C93.03 186.064 92.982 186.256 92.982 186.48V192H90.934ZM101.364 182.432C100.938 182.432 100.628 182.336 100.436 182.144C100.255 181.952 100.164 181.707 100.164 181.408V181.088C100.164 180.789 100.255 180.544 100.436 180.352C100.628 180.16 100.938 180.064 101.364 180.064C101.78 180.064 102.084 180.16 102.276 180.352C102.468 180.544 102.564 180.789 102.564 181.088V181.408C102.564 181.707 102.468 181.952 102.276 182.144C102.084 182.336 101.78 182.432 101.364 182.432ZM100.34 183.648H102.388V192H100.34V183.648ZM104.762 192V183.648H106.81V185.04H106.89C107.061 184.592 107.327 184.219 107.69 183.92C108.063 183.611 108.575 183.456 109.226 183.456C110.09 183.456 110.751 183.739 111.21 184.304C111.669 184.869 111.898 185.675 111.898 186.72V192H109.85V186.928C109.85 186.331 109.743 185.883 109.53 185.584C109.317 185.285 108.965 185.136 108.474 185.136C108.261 185.136 108.053 185.168 107.85 185.232C107.658 185.285 107.482 185.371 107.322 185.488C107.173 185.595 107.05 185.733 106.954 185.904C106.858 186.064 106.81 186.256 106.81 186.48V192H104.762ZM121.704 192.704C121.704 193.141 121.624 193.525 121.464 193.856C121.315 194.197 121.064 194.48 120.712 194.704C120.36 194.928 119.907 195.099 119.352 195.216C118.798 195.333 118.12 195.392 117.32 195.392C116.616 195.392 116.019 195.344 115.528 195.248C115.038 195.163 114.632 195.035 114.312 194.864C114.003 194.704 113.779 194.501 113.64 194.256C113.502 194.011 113.432 193.733 113.432 193.424C113.432 192.955 113.56 192.587 113.816 192.32C114.083 192.064 114.451 191.899 114.92 191.824V191.648C114.579 191.563 114.312 191.397 114.12 191.152C113.939 190.896 113.848 190.597 113.848 190.256C113.848 190.043 113.891 189.856 113.976 189.696C114.062 189.525 114.174 189.381 114.312 189.264C114.462 189.147 114.627 189.051 114.808 188.976C114.99 188.891 115.182 188.827 115.384 188.784V188.72C114.872 188.485 114.488 188.16 114.232 187.744C113.987 187.328 113.864 186.843 113.864 186.288C113.864 185.435 114.158 184.752 114.744 184.24C115.331 183.717 116.19 183.456 117.32 183.456C117.576 183.456 117.827 183.472 118.072 183.504C118.328 183.536 118.563 183.589 118.776 183.664V183.392C118.776 182.581 119.171 182.176 119.96 182.176H121.256V183.744H119.48V183.968C119.918 184.213 120.243 184.533 120.456 184.928C120.67 185.323 120.776 185.776 120.776 186.288C120.776 187.131 120.483 187.808 119.896 188.32C119.32 188.832 118.462 189.088 117.32 189.088C116.83 189.088 116.403 189.04 116.04 188.944C115.88 189.019 115.742 189.12 115.624 189.248C115.507 189.365 115.448 189.515 115.448 189.696C115.448 190.112 115.811 190.32 116.536 190.32H118.776C119.8 190.32 120.542 190.533 121 190.96C121.47 191.376 121.704 191.957 121.704 192.704ZM119.784 192.944C119.784 192.677 119.678 192.469 119.464 192.32C119.251 192.171 118.883 192.096 118.36 192.096H115.512C115.224 192.309 115.08 192.597 115.08 192.96C115.08 193.28 115.214 193.531 115.48 193.712C115.747 193.893 116.2 193.984 116.84 193.984H117.864C118.536 193.984 119.022 193.899 119.32 193.728C119.63 193.557 119.784 193.296 119.784 192.944ZM117.32 187.696C118.323 187.696 118.824 187.269 118.824 186.416V186.144C118.824 185.291 118.323 184.864 117.32 184.864C116.318 184.864 115.816 185.291 115.816 186.144V186.416C115.816 187.269 116.318 187.696 117.32 187.696ZM126.169 192.192C125.551 192.192 124.996 192.091 124.505 191.888C124.025 191.675 123.615 191.381 123.273 191.008C122.943 190.624 122.687 190.165 122.505 189.632C122.324 189.088 122.233 188.48 122.233 187.808C122.233 187.147 122.319 186.549 122.489 186.016C122.671 185.483 122.927 185.029 123.257 184.656C123.588 184.272 123.993 183.979 124.473 183.776C124.953 183.563 125.497 183.456 126.105 183.456C126.756 183.456 127.321 183.568 127.801 183.792C128.281 184.016 128.676 184.32 128.985 184.704C129.295 185.088 129.524 185.536 129.673 186.048C129.833 186.549 129.913 187.088 129.913 187.664V188.336H124.361V188.544C124.361 189.152 124.532 189.643 124.873 190.016C125.215 190.379 125.721 190.56 126.393 190.56C126.905 190.56 127.321 190.453 127.641 190.24C127.972 190.027 128.265 189.755 128.521 189.424L129.625 190.656C129.284 191.136 128.815 191.515 128.217 191.792C127.631 192.059 126.948 192.192 126.169 192.192ZM126.137 184.992C125.593 184.992 125.161 185.173 124.841 185.536C124.521 185.899 124.361 186.368 124.361 186.944V187.072H127.785V186.928C127.785 186.352 127.641 185.888 127.353 185.536C127.076 185.173 126.671 184.992 126.137 184.992ZM131.715 192V183.648H133.763V185.376H133.843C133.897 185.152 133.977 184.939 134.083 184.736C134.201 184.523 134.35 184.336 134.531 184.176C134.713 184.016 134.926 183.888 135.171 183.792C135.427 183.696 135.721 183.648 136.051 183.648H136.499V185.584H135.859C135.166 185.584 134.643 185.685 134.291 185.888C133.939 186.091 133.763 186.421 133.763 186.88V192H131.715Z" fill="#F5F5F5"/>
</svg>
