<svg width="269" height="203" viewBox="0 0 269 203" fill="none" xmlns="http://www.w3.org/2000/svg">
<path d="M6.216 10.332L4.704 7.542H4.65V18H3.174V5.436H4.92L9.51 13.104L11.022 15.894H11.076V5.436H12.552V18H10.806L6.216 10.332ZM22.5066 18C21.9666 18 21.5766 17.856 21.3366 17.568C21.1086 17.28 20.9646 16.92 20.9046 16.488H20.8146C20.6106 17.064 20.2746 17.496 19.8066 17.784C19.3386 18.072 18.7806 18.216 18.1326 18.216C17.1486 18.216 16.3806 17.964 15.8286 17.46C15.2886 16.956 15.0186 16.272 15.0186 15.408C15.0186 14.532 15.3366 13.86 15.9726 13.392C16.6206 12.924 17.6226 12.69 18.9786 12.69H20.8146V11.772C20.8146 11.112 20.6346 10.608 20.2746 10.26C19.9146 9.912 19.3626 9.738 18.6186 9.738C18.0546 9.738 17.5806 9.864 17.1966 10.116C16.8246 10.368 16.5126 10.704 16.2606 11.124L15.3966 10.314C15.6486 9.81 16.0506 9.384 16.6026 9.036C17.1546 8.676 17.8506 8.496 18.6906 8.496C19.8186 8.496 20.6946 8.772 21.3186 9.324C21.9426 9.876 22.2546 10.644 22.2546 11.628V16.74H23.3166V18H22.5066ZM18.3666 16.992C18.7266 16.992 19.0566 16.95 19.3566 16.866C19.6566 16.782 19.9146 16.662 20.1306 16.506C20.3466 16.35 20.5146 16.17 20.6346 15.966C20.7546 15.762 20.8146 15.54 20.8146 15.3V13.77H18.9066C18.0786 13.77 17.4726 13.89 17.0886 14.13C16.7166 14.37 16.5306 14.718 16.5306 15.174V15.552C16.5306 16.008 16.6926 16.362 17.0166 16.614C17.3526 16.866 17.8026 16.992 18.3666 16.992ZM27.2832 18L24.0252 8.712H25.4652L27.0852 13.32L28.0932 16.488H28.1832L29.1912 13.32L30.8472 8.712H32.2332L28.9572 18H27.2832ZM34.0905 18V8.712H35.5305V10.224H35.6025C35.8305 9.696 36.1485 9.276 36.5565 8.964C36.9765 8.652 37.5345 8.496 38.2305 8.496C39.1905 8.496 39.9465 8.808 40.4985 9.432C41.0625 10.044 41.3445 10.914 41.3445 12.042V18H39.9045V12.294C39.9045 10.626 39.2025 9.792 37.7985 9.792C37.5105 9.792 37.2285 9.828 36.9525 9.9C36.6885 9.972 36.4485 10.08 36.2325 10.224C36.0165 10.368 35.8425 10.554 35.7105 10.782C35.5905 10.998 35.5305 11.256 35.5305 11.556V18H34.0905Z" fill="#202020"/>
<path d="M262 25H1V60H262V25Z" fill="#D8D8D8" stroke="#747474"/>
<path d="M262 114.5H1V155.5H262V114.5Z" fill="#D8D8D8" stroke="#747474"/>
<path d="M3.174 104V91.436H10.842V92.768H4.686V96.98H10.482V98.312H4.686V102.668H10.842V104H3.174ZM14.0281 95.972H12.5161V94.712H14.0281V92.84C14.0281 92.192 14.1961 91.67 14.5321 91.274C14.8681 90.878 15.3781 90.68 16.0621 90.68H17.4661V91.94H15.4681V94.712H17.4661V95.972H15.4681V104H14.0281V95.972ZM21.4121 104C20.9081 104 20.5241 103.862 20.2601 103.586C20.0081 103.298 19.8821 102.926 19.8821 102.47V95.972H18.3521V94.712H19.2161C19.5281 94.712 19.7381 94.652 19.8461 94.532C19.9661 94.4 20.0261 94.178 20.0261 93.866V92.138H21.3221V94.712H23.3561V95.972H21.3221V102.74H23.2121V104H21.4121ZM29.0923 104.216C28.4563 104.216 27.8803 104.102 27.3643 103.874C26.8603 103.646 26.4223 103.322 26.0503 102.902C25.6903 102.47 25.4083 101.96 25.2043 101.372C25.0123 100.772 24.9163 100.1 24.9163 99.356C24.9163 98.624 25.0123 97.958 25.2043 97.358C25.4083 96.758 25.6903 96.248 26.0503 95.828C26.4223 95.396 26.8603 95.066 27.3643 94.838C27.8803 94.61 28.4563 94.496 29.0923 94.496C29.7163 94.496 30.2743 94.61 30.7663 94.838C31.2583 95.066 31.6783 95.384 32.0263 95.792C32.3743 96.188 32.6383 96.662 32.8183 97.214C33.0103 97.766 33.1063 98.372 33.1063 99.032V99.716H26.4283V100.148C26.4283 100.544 26.4883 100.916 26.6083 101.264C26.7403 101.6 26.9203 101.894 27.1483 102.146C27.3883 102.398 27.6763 102.596 28.0123 102.74C28.3603 102.884 28.7503 102.956 29.1823 102.956C29.7703 102.956 30.2803 102.818 30.7123 102.542C31.1563 102.266 31.4983 101.87 31.7383 101.354L32.7643 102.092C32.4643 102.728 31.9963 103.244 31.3603 103.64C30.7243 104.024 29.9683 104.216 29.0923 104.216ZM29.0923 95.702C28.6963 95.702 28.3363 95.774 28.0123 95.918C27.6883 96.05 27.4063 96.242 27.1663 96.494C26.9383 96.746 26.7583 97.046 26.6263 97.394C26.4943 97.73 26.4283 98.102 26.4283 98.51V98.636H31.5583V98.438C31.5583 97.61 31.3303 96.95 30.8743 96.458C30.4303 95.954 29.8363 95.702 29.0923 95.702ZM35.4792 104V94.712H36.9192V96.422H37.0092C37.1772 95.978 37.4772 95.582 37.9092 95.234C38.3412 94.886 38.9352 94.712 39.6912 94.712H40.2492V96.152H39.4032C38.6232 96.152 38.0112 96.302 37.5672 96.602C37.1352 96.89 36.9192 97.256 36.9192 97.7V104H35.4792ZM42.0886 104V94.712H43.5286V96.224H43.6006C43.8286 95.696 44.1466 95.276 44.5546 94.964C44.9746 94.652 45.5326 94.496 46.2286 94.496C47.1886 94.496 47.9446 94.808 48.4966 95.432C49.0606 96.044 49.3426 96.914 49.3426 98.042V104H47.9026V98.294C47.9026 96.626 47.2006 95.792 45.7966 95.792C45.5086 95.792 45.2266 95.828 44.9506 95.9C44.6866 95.972 44.4466 96.08 44.2306 96.224C44.0146 96.368 43.8406 96.554 43.7086 96.782C43.5886 96.998 43.5286 97.256 43.5286 97.556V104H42.0886ZM59.0691 104C58.5291 104 58.1391 103.856 57.8991 103.568C57.6711 103.28 57.5271 102.92 57.4671 102.488H57.3771C57.1731 103.064 56.8371 103.496 56.3691 103.784C55.9011 104.072 55.3431 104.216 54.6951 104.216C53.7111 104.216 52.9431 103.964 52.3911 103.46C51.8511 102.956 51.5811 102.272 51.5811 101.408C51.5811 100.532 51.8991 99.86 52.5351 99.392C53.1831 98.924 54.1851 98.69 55.5411 98.69H57.3771V97.772C57.3771 97.112 57.1971 96.608 56.8371 96.26C56.4771 95.912 55.9251 95.738 55.1811 95.738C54.6171 95.738 54.1431 95.864 53.7591 96.116C53.3871 96.368 53.0751 96.704 52.8231 97.124L51.9591 96.314C52.2111 95.81 52.6131 95.384 53.1651 95.036C53.7171 94.676 54.4131 94.496 55.2531 94.496C56.3811 94.496 57.2571 94.772 57.8811 95.324C58.5051 95.876 58.8171 96.644 58.8171 97.628V102.74H59.8791V104H59.0691ZM54.9291 102.992C55.2891 102.992 55.6191 102.95 55.9191 102.866C56.2191 102.782 56.4771 102.662 56.6931 102.506C56.9091 102.35 57.0771 102.17 57.1971 101.966C57.3171 101.762 57.3771 101.54 57.3771 101.3V99.77H55.4691C54.6411 99.77 54.0351 99.89 53.6511 100.13C53.2791 100.37 53.0931 100.718 53.0931 101.174V101.552C53.0931 102.008 53.2551 102.362 53.5791 102.614C53.9151 102.866 54.3651 102.992 54.9291 102.992ZM63.8457 104L60.5877 94.712H62.0277L63.6477 99.32L64.6557 102.488H64.7457L65.7537 99.32L67.4097 94.712H68.7957L65.5197 104H63.8457ZM70.653 104V94.712H72.093V96.224H72.165C72.393 95.696 72.711 95.276 73.119 94.964C73.539 94.652 74.097 94.496 74.793 94.496C75.753 94.496 76.509 94.808 77.061 95.432C77.625 96.044 77.907 96.914 77.907 98.042V104H76.467V98.294C76.467 96.626 75.765 95.792 74.361 95.792C74.073 95.792 73.791 95.828 73.515 95.9C73.251 95.972 73.011 96.08 72.795 96.224C72.579 96.368 72.405 96.554 72.273 96.782C72.153 96.998 72.093 97.256 72.093 97.556V104H70.653Z" fill="#1A1A1A"/>
<path opacity="0.703404" d="M4.968 75.144C4.288 75.144 3.708 75.016 3.228 74.76C2.748 74.496 2.34 74.136 2.004 73.68L2.748 73.056C3.044 73.448 3.372 73.748 3.732 73.956C4.092 74.156 4.516 74.256 5.004 74.256C5.604 74.256 6.06 74.112 6.372 73.824C6.692 73.536 6.852 73.152 6.852 72.672C6.852 72.272 6.732 71.964 6.492 71.748C6.252 71.532 5.856 71.36 5.304 71.232L4.62 71.076C3.852 70.9 3.264 70.636 2.856 70.284C2.456 69.924 2.256 69.42 2.256 68.772C2.256 68.404 2.324 68.076 2.46 67.788C2.596 67.5 2.784 67.26 3.024 67.068C3.272 66.876 3.564 66.732 3.9 66.636C4.244 66.532 4.62 66.48 5.028 66.48C5.66 66.48 6.2 66.596 6.648 66.828C7.104 67.06 7.488 67.4 7.8 67.848L7.044 68.4C6.812 68.08 6.532 67.828 6.204 67.644C5.876 67.46 5.468 67.368 4.98 67.368C4.444 67.368 4.02 67.484 3.708 67.716C3.404 67.94 3.252 68.28 3.252 68.736C3.252 69.136 3.38 69.44 3.636 69.648C3.9 69.848 4.296 70.008 4.824 70.128L5.508 70.284C6.332 70.468 6.928 70.748 7.296 71.124C7.664 71.5 7.848 72 7.848 72.624C7.848 73.008 7.78 73.356 7.644 73.668C7.516 73.98 7.328 74.244 7.08 74.46C6.832 74.676 6.528 74.844 6.168 74.964C5.816 75.084 5.416 75.144 4.968 75.144ZM9.49266 66.12H10.4527V71.748H10.5007L11.4487 70.692L13.2007 68.808H14.3647L12.0727 71.256L14.5927 75H13.4287L11.3767 71.844L10.4527 72.792V75H9.49266V66.12ZM15.8208 75V68.808H16.7808V69.948H16.8408C16.9528 69.652 17.1528 69.388 17.4408 69.156C17.7288 68.924 18.1248 68.808 18.6288 68.808H19.0008V69.768H18.4368C17.9168 69.768 17.5088 69.868 17.2128 70.068C16.9248 70.26 16.7808 70.504 16.7808 70.8V75H15.8208ZM20.707 67.356C20.499 67.356 20.347 67.308 20.251 67.212C20.163 67.108 20.119 66.976 20.119 66.816V66.66C20.119 66.5 20.163 66.372 20.251 66.276C20.347 66.172 20.499 66.12 20.707 66.12C20.915 66.12 21.063 66.172 21.151 66.276C21.247 66.372 21.295 66.5 21.295 66.66V66.816C21.295 66.976 21.247 67.108 21.151 67.212C21.063 67.308 20.915 67.356 20.707 67.356ZM20.227 68.808H21.187V75H20.227V68.808ZM24.595 75L22.423 68.808H23.383L24.463 71.88L25.135 73.992H25.195L25.867 71.88L26.971 68.808H27.895L25.711 75H24.595ZM32.3052 69.648H31.2972V68.808H32.3052V67.56C32.3052 67.128 32.4172 66.78 32.6412 66.516C32.8652 66.252 33.2052 66.12 33.6612 66.12H34.5972V66.96H33.2652V68.808H34.5972V69.648H33.2652V75H32.3052V69.648ZM38.153 75.144C37.737 75.144 37.357 75.068 37.013 74.916C36.669 74.764 36.373 74.548 36.125 74.268C35.885 73.98 35.697 73.64 35.561 73.248C35.425 72.848 35.357 72.4 35.357 71.904C35.357 71.416 35.425 70.972 35.561 70.572C35.697 70.172 35.885 69.832 36.125 69.552C36.373 69.264 36.669 69.044 37.013 68.892C37.357 68.74 37.737 68.664 38.153 68.664C38.569 68.664 38.945 68.74 39.281 68.892C39.625 69.044 39.921 69.264 40.169 69.552C40.417 69.832 40.609 70.172 40.745 70.572C40.881 70.972 40.949 71.416 40.949 71.904C40.949 72.4 40.881 72.848 40.745 73.248C40.609 73.64 40.417 73.98 40.169 74.268C39.921 74.548 39.625 74.764 39.281 74.916C38.945 75.068 38.569 75.144 38.153 75.144ZM38.153 74.292C38.673 74.292 39.097 74.132 39.425 73.812C39.753 73.492 39.917 73.004 39.917 72.348V71.46C39.917 70.804 39.753 70.316 39.425 69.996C39.097 69.676 38.673 69.516 38.153 69.516C37.633 69.516 37.209 69.676 36.881 69.996C36.553 70.316 36.389 70.804 36.389 71.46V72.348C36.389 73.004 36.553 73.492 36.881 73.812C37.209 74.132 37.633 74.292 38.153 74.292ZM42.5278 75V68.808H43.4878V69.948H43.5478C43.6598 69.652 43.8598 69.388 44.1478 69.156C44.4358 68.924 44.8318 68.808 45.3358 68.808H45.7078V69.768H45.1438C44.6238 69.768 44.2158 69.868 43.9198 70.068C43.6318 70.26 43.4878 70.504 43.4878 70.8V75H42.5278ZM46.9341 75V68.808H47.8941V69.816H47.9421C48.0941 69.464 48.3061 69.184 48.5781 68.976C48.8581 68.768 49.2301 68.664 49.6941 68.664C50.3341 68.664 50.8381 68.872 51.2061 69.288C51.5821 69.696 51.7701 70.276 51.7701 71.028V75H50.8101V71.196C50.8101 70.084 50.3421 69.528 49.4061 69.528C49.2141 69.528 49.0261 69.552 48.8421 69.6C48.6661 69.648 48.5061 69.72 48.3621 69.816C48.2181 69.912 48.1021 70.036 48.0141 70.188C47.9341 70.332 47.8941 70.504 47.8941 70.704V75H46.9341ZM58.2544 75C57.8944 75 57.6344 74.904 57.4744 74.712C57.3224 74.52 57.2264 74.28 57.1864 73.992H57.1264C56.9904 74.376 56.7664 74.664 56.4544 74.856C56.1424 75.048 55.7704 75.144 55.3384 75.144C54.6824 75.144 54.1704 74.976 53.8024 74.64C53.4424 74.304 53.2624 73.848 53.2624 73.272C53.2624 72.688 53.4744 72.24 53.8984 71.928C54.3304 71.616 54.9984 71.46 55.9024 71.46H57.1264V70.848C57.1264 70.408 57.0064 70.072 56.7664 69.84C56.5264 69.608 56.1584 69.492 55.6624 69.492C55.2864 69.492 54.9704 69.576 54.7144 69.744C54.4664 69.912 54.2584 70.136 54.0904 70.416L53.5144 69.876C53.6824 69.54 53.9504 69.256 54.3184 69.024C54.6864 68.784 55.1504 68.664 55.7104 68.664C56.4624 68.664 57.0464 68.848 57.4624 69.216C57.8784 69.584 58.0864 70.096 58.0864 70.752V74.16H58.7944V75H58.2544ZM55.4944 74.328C55.7344 74.328 55.9544 74.3 56.1544 74.244C56.3544 74.188 56.5264 74.108 56.6704 74.004C56.8144 73.9 56.9264 73.78 57.0064 73.644C57.0864 73.508 57.1264 73.36 57.1264 73.2V72.18H55.8544C55.3024 72.18 54.8984 72.26 54.6424 72.42C54.3944 72.58 54.2704 72.812 54.2704 73.116V73.368C54.2704 73.672 54.3784 73.908 54.5944 74.076C54.8184 74.244 55.1184 74.328 55.4944 74.328ZM61.4388 75L59.2668 68.808H60.2268L61.3068 71.88L61.9788 73.992H62.0388L62.7108 71.88L63.8148 68.808H64.7388L62.5548 75H61.4388ZM65.977 75V68.808H66.937V69.816H66.985C67.137 69.464 67.349 69.184 67.621 68.976C67.901 68.768 68.273 68.664 68.737 68.664C69.377 68.664 69.881 68.872 70.249 69.288C70.625 69.696 70.813 70.276 70.813 71.028V75H69.853V71.196C69.853 70.084 69.385 69.528 68.449 69.528C68.257 69.528 68.069 69.552 67.885 69.6C67.709 69.648 67.549 69.72 67.405 69.816C67.261 69.912 67.145 70.036 67.057 70.188C66.977 70.332 66.937 70.504 66.937 70.704V75H65.977ZM77.9733 75.144C77.5573 75.144 77.1773 75.068 76.8333 74.916C76.4893 74.764 76.1933 74.548 75.9453 74.268C75.7053 73.98 75.5173 73.64 75.3813 73.248C75.2453 72.848 75.1773 72.4 75.1773 71.904C75.1773 71.416 75.2453 70.972 75.3813 70.572C75.5173 70.172 75.7053 69.832 75.9453 69.552C76.1933 69.264 76.4893 69.044 76.8333 68.892C77.1773 68.74 77.5573 68.664 77.9733 68.664C78.3893 68.664 78.7653 68.74 79.1013 68.892C79.4453 69.044 79.7413 69.264 79.9893 69.552C80.2373 69.832 80.4293 70.172 80.5653 70.572C80.7013 70.972 80.7693 71.416 80.7693 71.904C80.7693 72.4 80.7013 72.848 80.5653 73.248C80.4293 73.64 80.2373 73.98 79.9893 74.268C79.7413 74.548 79.4453 74.764 79.1013 74.916C78.7653 75.068 78.3893 75.144 77.9733 75.144ZM77.9733 74.292C78.4933 74.292 78.9173 74.132 79.2453 73.812C79.5733 73.492 79.7373 73.004 79.7373 72.348V71.46C79.7373 70.804 79.5733 70.316 79.2453 69.996C78.9173 69.676 78.4933 69.516 77.9733 69.516C77.4533 69.516 77.0293 69.676 76.7013 69.996C76.3733 70.316 76.2093 70.804 76.2093 71.46V72.348C76.2093 73.004 76.3733 73.492 76.7013 73.812C77.0293 74.132 77.4533 74.292 77.9733 74.292ZM87.5681 75.684C87.5681 76.324 87.3161 76.792 86.8121 77.088C86.3161 77.392 85.5681 77.544 84.5681 77.544C83.6001 77.544 82.9041 77.412 82.4801 77.148C82.0561 76.884 81.8441 76.508 81.8441 76.02C81.8441 75.684 81.9321 75.42 82.1081 75.228C82.2841 75.044 82.5241 74.908 82.8281 74.82V74.688C82.4601 74.512 82.2761 74.224 82.2761 73.824C82.2761 73.512 82.3761 73.276 82.5761 73.116C82.7761 72.948 83.0321 72.824 83.3441 72.744V72.696C82.9761 72.52 82.6881 72.268 82.4801 71.94C82.2801 71.612 82.1801 71.232 82.1801 70.8C82.1801 70.488 82.2361 70.2 82.3481 69.936C82.4601 69.672 82.6161 69.448 82.8161 69.264C83.0241 69.072 83.2681 68.924 83.5481 68.82C83.8361 68.716 84.1561 68.664 84.5081 68.664C84.9481 68.664 85.3401 68.744 85.6841 68.904V68.796C85.6841 68.556 85.7401 68.36 85.8521 68.208C85.9641 68.048 86.1481 67.968 86.4041 67.968H87.3281V68.808H86.1521V69.204C86.3761 69.396 86.5481 69.628 86.6681 69.9C86.7961 70.164 86.8601 70.464 86.8601 70.8C86.8601 71.112 86.8041 71.4 86.6921 71.664C86.5801 71.928 86.4201 72.156 86.2121 72.348C86.0121 72.532 85.7681 72.676 85.4801 72.78C85.1921 72.884 84.8721 72.936 84.5201 72.936C84.3201 72.936 84.1201 72.916 83.9201 72.876C83.7121 72.932 83.5241 73.016 83.3561 73.128C83.1881 73.232 83.1041 73.38 83.1041 73.572C83.1041 73.756 83.1921 73.88 83.3681 73.944C83.5441 74.008 83.7721 74.04 84.0521 74.04H85.3721C86.1401 74.04 86.6961 74.188 87.0401 74.484C87.3921 74.772 87.5681 75.172 87.5681 75.684ZM86.6681 75.756C86.6681 75.508 86.5721 75.308 86.3801 75.156C86.1961 75.012 85.8641 74.94 85.3841 74.94H83.3201C82.9361 75.116 82.7441 75.396 82.7441 75.78C82.7441 76.052 82.8441 76.284 83.0441 76.476C83.2521 76.668 83.6001 76.764 84.0881 76.764H84.9761C85.5121 76.764 85.9281 76.68 86.2241 76.512C86.5201 76.344 86.6681 76.092 86.6681 75.756ZM84.5201 72.168C84.9281 72.168 85.2521 72.072 85.4921 71.88C85.7321 71.68 85.8521 71.376 85.8521 70.968V70.632C85.8521 70.224 85.7321 69.924 85.4921 69.732C85.2521 69.532 84.9281 69.432 84.5201 69.432C84.1121 69.432 83.7881 69.532 83.5481 69.732C83.3081 69.924 83.1881 70.224 83.1881 70.632V70.968C83.1881 71.376 83.3081 71.68 83.5481 71.88C83.7881 72.072 84.1121 72.168 84.5201 72.168ZM93.8519 75.144C93.4279 75.144 93.0439 75.068 92.6999 74.916C92.3639 74.764 92.0719 74.548 91.8239 74.268C91.5839 73.98 91.3959 73.64 91.2599 73.248C91.1319 72.848 91.0679 72.4 91.0679 71.904C91.0679 71.416 91.1319 70.972 91.2599 70.572C91.3959 70.172 91.5839 69.832 91.8239 69.552C92.0719 69.264 92.3639 69.044 92.6999 68.892C93.0439 68.74 93.4279 68.664 93.8519 68.664C94.2679 68.664 94.6399 68.74 94.9679 68.892C95.2959 69.044 95.5759 69.256 95.8079 69.528C96.0399 69.792 96.2159 70.108 96.3359 70.476C96.4639 70.844 96.5279 71.248 96.5279 71.688V72.144H92.0759V72.432C92.0759 72.696 92.1159 72.944 92.1959 73.176C92.2839 73.4 92.4039 73.596 92.5559 73.764C92.7159 73.932 92.9079 74.064 93.1319 74.16C93.3639 74.256 93.6239 74.304 93.9119 74.304C94.3039 74.304 94.6439 74.212 94.9319 74.028C95.2279 73.844 95.4559 73.58 95.6159 73.236L96.2999 73.728C96.0999 74.152 95.7879 74.496 95.3639 74.76C94.9399 75.016 94.4359 75.144 93.8519 75.144ZM93.8519 69.468C93.5879 69.468 93.3479 69.516 93.1319 69.612C92.9159 69.7 92.7279 69.828 92.5679 69.996C92.4159 70.164 92.2959 70.364 92.2079 70.596C92.1199 70.82 92.0759 71.068 92.0759 71.34V71.424H95.4959V71.292C95.4959 70.74 95.3439 70.3 95.0399 69.972C94.7439 69.636 94.3479 69.468 93.8519 69.468ZM99.3841 75L97.2121 68.808H98.1721L99.2521 71.88L99.9241 73.992H99.9841L100.656 71.88L101.76 68.808H102.684L100.5 75H99.3841ZM105.326 75C104.99 75 104.734 74.908 104.558 74.724C104.39 74.532 104.306 74.284 104.306 73.98V69.648H103.286V68.808H103.862C104.07 68.808 104.21 68.768 104.282 68.688C104.362 68.6 104.402 68.452 104.402 68.244V67.092H105.266V68.808H106.622V69.648H105.266V74.16H106.526V75H105.326ZM108.777 75.144C108.521 75.144 108.333 75.08 108.213 74.952C108.101 74.824 108.045 74.656 108.045 74.448V74.292C108.045 74.084 108.101 73.916 108.213 73.788C108.333 73.66 108.521 73.596 108.777 73.596C109.033 73.596 109.217 73.66 109.329 73.788C109.449 73.916 109.509 74.084 109.509 74.292V74.448C109.509 74.656 109.449 74.824 109.329 74.952C109.217 75.08 109.033 75.144 108.777 75.144ZM114.27 75V68.808H115.23V69.816H115.278C115.35 69.656 115.43 69.508 115.518 69.372C115.614 69.228 115.726 69.104 115.854 69C115.99 68.896 116.146 68.816 116.322 68.76C116.498 68.696 116.706 68.664 116.946 68.664C117.354 68.664 117.73 68.764 118.074 68.964C118.418 69.156 118.674 69.476 118.842 69.924H118.866C118.978 69.588 119.186 69.296 119.49 69.048C119.802 68.792 120.222 68.664 120.75 68.664C121.382 68.664 121.874 68.872 122.226 69.288C122.586 69.696 122.766 70.276 122.766 71.028V75H121.806V71.196C121.806 70.644 121.698 70.228 121.482 69.948C121.266 69.668 120.922 69.528 120.45 69.528C120.258 69.528 120.074 69.552 119.898 69.6C119.73 69.648 119.578 69.72 119.442 69.816C119.306 69.912 119.198 70.036 119.118 70.188C119.038 70.332 118.998 70.504 118.998 70.704V75H118.038V71.196C118.038 70.644 117.93 70.228 117.714 69.948C117.498 69.668 117.162 69.528 116.706 69.528C116.514 69.528 116.33 69.552 116.154 69.6C115.978 69.648 115.822 69.72 115.686 69.816C115.55 69.912 115.438 70.036 115.35 70.188C115.27 70.332 115.23 70.504 115.23 70.704V75H114.27ZM127.075 75.144C126.651 75.144 126.267 75.068 125.923 74.916C125.587 74.764 125.295 74.548 125.047 74.268C124.807 73.98 124.619 73.64 124.483 73.248C124.355 72.848 124.291 72.4 124.291 71.904C124.291 71.416 124.355 70.972 124.483 70.572C124.619 70.172 124.807 69.832 125.047 69.552C125.295 69.264 125.587 69.044 125.923 68.892C126.267 68.74 126.651 68.664 127.075 68.664C127.491 68.664 127.863 68.74 128.191 68.892C128.519 69.044 128.799 69.256 129.031 69.528C129.263 69.792 129.439 70.108 129.559 70.476C129.687 70.844 129.751 71.248 129.751 71.688V72.144H125.299V72.432C125.299 72.696 125.339 72.944 125.419 73.176C125.507 73.4 125.627 73.596 125.779 73.764C125.939 73.932 126.131 74.064 126.355 74.16C126.587 74.256 126.847 74.304 127.135 74.304C127.527 74.304 127.867 74.212 128.155 74.028C128.451 73.844 128.679 73.58 128.839 73.236L129.523 73.728C129.323 74.152 129.011 74.496 128.587 74.76C128.163 75.016 127.659 75.144 127.075 75.144ZM127.075 69.468C126.811 69.468 126.571 69.516 126.355 69.612C126.139 69.7 125.951 69.828 125.791 69.996C125.639 70.164 125.519 70.364 125.431 70.596C125.343 70.82 125.299 71.068 125.299 71.34V71.424H128.719V71.292C128.719 70.74 128.567 70.3 128.263 69.972C127.967 69.636 127.571 69.468 127.075 69.468ZM132.353 75C132.017 75 131.761 74.908 131.585 74.724C131.417 74.532 131.333 74.292 131.333 74.004V66.12H132.293V74.16H133.205V75H132.353ZM135.563 75C135.227 75 134.971 74.908 134.795 74.724C134.627 74.532 134.543 74.292 134.543 74.004V66.12H135.503V74.16H136.415V75H135.563ZM140.141 75.144C139.717 75.144 139.333 75.068 138.989 74.916C138.653 74.764 138.361 74.548 138.113 74.268C137.873 73.98 137.685 73.64 137.549 73.248C137.421 72.848 137.357 72.4 137.357 71.904C137.357 71.416 137.421 70.972 137.549 70.572C137.685 70.172 137.873 69.832 138.113 69.552C138.361 69.264 138.653 69.044 138.989 68.892C139.333 68.74 139.717 68.664 140.141 68.664C140.557 68.664 140.929 68.74 141.257 68.892C141.585 69.044 141.865 69.256 142.097 69.528C142.329 69.792 142.505 70.108 142.625 70.476C142.753 70.844 142.817 71.248 142.817 71.688V72.144H138.365V72.432C138.365 72.696 138.405 72.944 138.485 73.176C138.573 73.4 138.693 73.596 138.845 73.764C139.005 73.932 139.197 74.064 139.421 74.16C139.653 74.256 139.913 74.304 140.201 74.304C140.593 74.304 140.933 74.212 141.221 74.028C141.517 73.844 141.745 73.58 141.905 73.236L142.589 73.728C142.389 74.152 142.077 74.496 141.653 74.76C141.229 75.016 140.725 75.144 140.141 75.144ZM140.141 69.468C139.877 69.468 139.637 69.516 139.421 69.612C139.205 69.7 139.017 69.828 138.857 69.996C138.705 70.164 138.585 70.364 138.497 70.596C138.409 70.82 138.365 71.068 138.365 71.34V71.424H141.785V71.292C141.785 70.74 141.633 70.3 141.329 69.972C141.033 69.636 140.637 69.468 140.141 69.468ZM144.399 75V68.808H145.359V69.816H145.407C145.479 69.656 145.559 69.508 145.647 69.372C145.743 69.228 145.855 69.104 145.983 69C146.119 68.896 146.275 68.816 146.451 68.76C146.627 68.696 146.835 68.664 147.075 68.664C147.483 68.664 147.859 68.764 148.203 68.964C148.547 69.156 148.803 69.476 148.971 69.924H148.995C149.107 69.588 149.315 69.296 149.619 69.048C149.931 68.792 150.351 68.664 150.879 68.664C151.511 68.664 152.003 68.872 152.355 69.288C152.715 69.696 152.895 70.276 152.895 71.028V75H151.935V71.196C151.935 70.644 151.827 70.228 151.611 69.948C151.395 69.668 151.051 69.528 150.579 69.528C150.387 69.528 150.203 69.552 150.027 69.6C149.859 69.648 149.707 69.72 149.571 69.816C149.435 69.912 149.327 70.036 149.247 70.188C149.167 70.332 149.127 70.504 149.127 70.704V75H148.167V71.196C148.167 70.644 148.059 70.228 147.843 69.948C147.627 69.668 147.291 69.528 146.835 69.528C146.643 69.528 146.459 69.552 146.283 69.6C146.107 69.648 145.951 69.72 145.815 69.816C145.679 69.912 145.567 70.036 145.479 70.188C145.399 70.332 145.359 70.504 145.359 70.704V75H144.399ZM154.875 75V68.808H155.835V69.816H155.883C156.035 69.464 156.247 69.184 156.519 68.976C156.799 68.768 157.171 68.664 157.635 68.664C158.275 68.664 158.779 68.872 159.147 69.288C159.523 69.696 159.711 70.276 159.711 71.028V75H158.751V71.196C158.751 70.084 158.283 69.528 157.347 69.528C157.155 69.528 156.967 69.552 156.783 69.6C156.607 69.648 156.447 69.72 156.303 69.816C156.159 69.912 156.043 70.036 155.955 70.188C155.875 70.332 155.835 70.504 155.835 70.704V75H154.875ZM166.196 75C165.836 75 165.576 74.904 165.416 74.712C165.264 74.52 165.168 74.28 165.128 73.992H165.068C164.932 74.376 164.708 74.664 164.396 74.856C164.084 75.048 163.712 75.144 163.28 75.144C162.624 75.144 162.112 74.976 161.744 74.64C161.384 74.304 161.204 73.848 161.204 73.272C161.204 72.688 161.416 72.24 161.84 71.928C162.272 71.616 162.94 71.46 163.844 71.46H165.068V70.848C165.068 70.408 164.948 70.072 164.708 69.84C164.468 69.608 164.1 69.492 163.604 69.492C163.228 69.492 162.912 69.576 162.656 69.744C162.408 69.912 162.2 70.136 162.032 70.416L161.456 69.876C161.624 69.54 161.892 69.256 162.26 69.024C162.628 68.784 163.092 68.664 163.652 68.664C164.404 68.664 164.988 68.848 165.404 69.216C165.82 69.584 166.028 70.096 166.028 70.752V74.16H166.736V75H166.196ZM163.436 74.328C163.676 74.328 163.896 74.3 164.096 74.244C164.296 74.188 164.468 74.108 164.612 74.004C164.756 73.9 164.868 73.78 164.948 73.644C165.028 73.508 165.068 73.36 165.068 73.2V72.18H163.796C163.244 72.18 162.84 72.26 162.584 72.42C162.336 72.58 162.212 72.812 162.212 73.116V73.368C162.212 73.672 162.32 73.908 162.536 74.076C162.76 74.244 163.06 74.328 163.436 74.328ZM169.38 75L167.208 68.808H168.168L169.248 71.88L169.92 73.992H169.98L170.652 71.88L171.756 68.808H172.68L170.496 75H169.38ZM173.918 75V68.808H174.878V69.816H174.926C175.078 69.464 175.29 69.184 175.562 68.976C175.842 68.768 176.214 68.664 176.678 68.664C177.318 68.664 177.822 68.872 178.19 69.288C178.566 69.696 178.754 70.276 178.754 71.028V75H177.794V71.196C177.794 70.084 177.326 69.528 176.39 69.528C176.198 69.528 176.01 69.552 175.826 69.6C175.65 69.648 175.49 69.72 175.346 69.816C175.202 69.912 175.086 70.036 174.998 70.188C174.918 70.332 174.878 70.504 174.878 70.704V75H173.918ZM180.715 71.256C180.715 70.68 180.771 70.124 180.883 69.588C180.995 69.052 181.147 68.556 181.339 68.1C181.539 67.636 181.771 67.216 182.035 66.84C182.299 66.464 182.583 66.144 182.887 65.88H183.799C183.463 66.184 183.159 66.528 182.887 66.912C182.623 67.296 182.395 67.704 182.203 68.136C182.019 68.568 181.875 69.008 181.771 69.456C181.667 69.904 181.615 70.336 181.615 70.752V71.784C181.615 72.208 181.667 72.644 181.771 73.092C181.875 73.54 182.023 73.98 182.215 74.412C182.407 74.844 182.635 75.252 182.899 75.636C183.171 76.02 183.471 76.356 183.799 76.644H182.887C182.591 76.396 182.311 76.084 182.047 75.708C181.783 75.332 181.551 74.912 181.351 74.448C181.159 73.984 181.003 73.484 180.883 72.948C180.771 72.404 180.715 71.84 180.715 71.256ZM187.086 75.144C186.662 75.144 186.278 75.068 185.934 74.916C185.598 74.764 185.306 74.548 185.058 74.268C184.818 73.98 184.63 73.64 184.494 73.248C184.366 72.848 184.302 72.4 184.302 71.904C184.302 71.416 184.366 70.972 184.494 70.572C184.63 70.172 184.818 69.832 185.058 69.552C185.306 69.264 185.598 69.044 185.934 68.892C186.278 68.74 186.662 68.664 187.086 68.664C187.502 68.664 187.874 68.74 188.202 68.892C188.53 69.044 188.81 69.256 189.042 69.528C189.274 69.792 189.45 70.108 189.57 70.476C189.698 70.844 189.762 71.248 189.762 71.688V72.144H185.31V72.432C185.31 72.696 185.35 72.944 185.43 73.176C185.518 73.4 185.638 73.596 185.79 73.764C185.95 73.932 186.142 74.064 186.366 74.16C186.598 74.256 186.858 74.304 187.146 74.304C187.538 74.304 187.878 74.212 188.166 74.028C188.462 73.844 188.69 73.58 188.85 73.236L189.534 73.728C189.334 74.152 189.022 74.496 188.598 74.76C188.174 75.016 187.67 75.144 187.086 75.144ZM187.086 69.468C186.822 69.468 186.582 69.516 186.366 69.612C186.15 69.7 185.962 69.828 185.802 69.996C185.65 70.164 185.53 70.364 185.442 70.596C185.354 70.82 185.31 71.068 185.31 71.34V71.424H188.73V71.292C188.73 70.74 188.578 70.3 188.274 69.972C187.978 69.636 187.582 69.468 187.086 69.468ZM193.348 71.256C193.348 71.84 193.288 72.404 193.168 72.948C193.056 73.484 192.9 73.984 192.7 74.448C192.508 74.912 192.28 75.332 192.016 75.708C191.752 76.084 191.472 76.396 191.176 76.644H190.264C190.592 76.356 190.888 76.02 191.152 75.636C191.424 75.252 191.656 74.844 191.848 74.412C192.04 73.98 192.188 73.54 192.292 73.092C192.396 72.644 192.448 72.208 192.448 71.784V70.752C192.448 70.336 192.396 69.904 192.292 69.456C192.188 69.008 192.04 68.568 191.848 68.136C191.664 67.704 191.436 67.296 191.164 66.912C190.9 66.528 190.6 66.184 190.264 65.88H191.176C191.48 66.144 191.764 66.464 192.028 66.84C192.292 67.216 192.52 67.636 192.712 68.1C192.912 68.556 193.068 69.052 193.18 69.588C193.292 70.124 193.348 70.68 193.348 71.256ZM200.06 75.144C199.484 75.144 199 75.036 198.608 74.82C198.224 74.596 197.892 74.3 197.612 73.932L198.296 73.38C198.536 73.684 198.804 73.92 199.1 74.088C199.396 74.248 199.74 74.328 200.132 74.328C200.54 74.328 200.856 74.24 201.08 74.064C201.312 73.888 201.428 73.64 201.428 73.32C201.428 73.08 201.348 72.876 201.188 72.708C201.036 72.532 200.756 72.412 200.348 72.348L199.856 72.276C199.568 72.236 199.304 72.176 199.064 72.096C198.824 72.008 198.612 71.896 198.428 71.76C198.252 71.616 198.112 71.44 198.008 71.232C197.912 71.024 197.864 70.776 197.864 70.488C197.864 70.184 197.92 69.92 198.032 69.696C198.144 69.464 198.296 69.272 198.488 69.12C198.688 68.968 198.924 68.856 199.196 68.784C199.468 68.704 199.76 68.664 200.072 68.664C200.576 68.664 200.996 68.752 201.332 68.928C201.676 69.104 201.976 69.348 202.232 69.66L201.596 70.236C201.46 70.044 201.26 69.872 200.996 69.72C200.732 69.56 200.4 69.48 200 69.48C199.6 69.48 199.296 69.568 199.088 69.744C198.888 69.912 198.788 70.144 198.788 70.44C198.788 70.744 198.888 70.964 199.088 71.1C199.296 71.236 199.592 71.336 199.976 71.4L200.456 71.472C201.144 71.576 201.632 71.776 201.92 72.072C202.208 72.36 202.352 72.74 202.352 73.212C202.352 73.812 202.148 74.284 201.74 74.628C201.332 74.972 200.772 75.144 200.06 75.144ZM206.387 75.144C205.971 75.144 205.591 75.068 205.247 74.916C204.903 74.764 204.607 74.548 204.359 74.268C204.119 73.98 203.931 73.64 203.795 73.248C203.659 72.848 203.591 72.4 203.591 71.904C203.591 71.416 203.659 70.972 203.795 70.572C203.931 70.172 204.119 69.832 204.359 69.552C204.607 69.264 204.903 69.044 205.247 68.892C205.591 68.74 205.971 68.664 206.387 68.664C206.803 68.664 207.179 68.74 207.515 68.892C207.859 69.044 208.155 69.264 208.403 69.552C208.651 69.832 208.843 70.172 208.979 70.572C209.115 70.972 209.183 71.416 209.183 71.904C209.183 72.4 209.115 72.848 208.979 73.248C208.843 73.64 208.651 73.98 208.403 74.268C208.155 74.548 207.859 74.764 207.515 74.916C207.179 75.068 206.803 75.144 206.387 75.144ZM206.387 74.292C206.907 74.292 207.331 74.132 207.659 73.812C207.987 73.492 208.151 73.004 208.151 72.348V71.46C208.151 70.804 207.987 70.316 207.659 69.996C207.331 69.676 206.907 69.516 206.387 69.516C205.867 69.516 205.443 69.676 205.115 69.996C204.787 70.316 204.623 70.804 204.623 71.46V72.348C204.623 73.004 204.787 73.492 205.115 73.812C205.443 74.132 205.867 74.292 206.387 74.292ZM210.762 75V68.808H211.722V69.816H211.77C211.842 69.656 211.922 69.508 212.01 69.372C212.106 69.228 212.218 69.104 212.346 69C212.482 68.896 212.638 68.816 212.814 68.76C212.99 68.696 213.198 68.664 213.438 68.664C213.846 68.664 214.222 68.764 214.566 68.964C214.91 69.156 215.166 69.476 215.334 69.924H215.358C215.47 69.588 215.678 69.296 215.982 69.048C216.294 68.792 216.714 68.664 217.242 68.664C217.874 68.664 218.366 68.872 218.718 69.288C219.078 69.696 219.258 70.276 219.258 71.028V75H218.298V71.196C218.298 70.644 218.19 70.228 217.974 69.948C217.758 69.668 217.414 69.528 216.942 69.528C216.75 69.528 216.566 69.552 216.39 69.6C216.222 69.648 216.07 69.72 215.934 69.816C215.798 69.912 215.69 70.036 215.61 70.188C215.53 70.332 215.49 70.504 215.49 70.704V75H214.53V71.196C214.53 70.644 214.422 70.228 214.206 69.948C213.99 69.668 213.654 69.528 213.198 69.528C213.006 69.528 212.822 69.552 212.646 69.6C212.47 69.648 212.314 69.72 212.178 69.816C212.042 69.912 211.93 70.036 211.842 70.188C211.762 70.332 211.722 70.504 211.722 70.704V75H210.762ZM224.555 67.356C224.347 67.356 224.195 67.308 224.099 67.212C224.011 67.108 223.967 66.976 223.967 66.816V66.66C223.967 66.5 224.011 66.372 224.099 66.276C224.195 66.172 224.347 66.12 224.555 66.12C224.763 66.12 224.911 66.172 224.999 66.276C225.095 66.372 225.143 66.5 225.143 66.66V66.816C225.143 66.976 225.095 67.108 224.999 67.212C224.911 67.308 224.763 67.356 224.555 67.356ZM224.075 68.808H225.035V75H224.075V68.808ZM233.871 73.992H233.823C233.447 74.76 232.843 75.144 232.011 75.144C231.627 75.144 231.279 75.068 230.967 74.916C230.655 74.764 230.387 74.548 230.163 74.268C229.947 73.988 229.779 73.648 229.659 73.248C229.547 72.848 229.491 72.4 229.491 71.904C229.491 71.408 229.547 70.96 229.659 70.56C229.779 70.16 229.947 69.82 230.163 69.54C230.387 69.26 230.655 69.044 230.967 68.892C231.279 68.74 231.627 68.664 232.011 68.664C232.443 68.664 232.811 68.76 233.115 68.952C233.427 69.136 233.663 69.424 233.823 69.816H233.871V66.12H234.831V75H233.871V73.992ZM232.275 74.28C232.491 74.28 232.695 74.252 232.887 74.196C233.087 74.14 233.259 74.06 233.403 73.956C233.547 73.844 233.659 73.712 233.739 73.56C233.827 73.4 233.871 73.22 233.871 73.02V70.716C233.871 70.548 233.827 70.392 233.739 70.248C233.659 70.096 233.547 69.968 233.403 69.864C233.259 69.76 233.087 69.68 232.887 69.624C232.695 69.56 232.491 69.528 232.275 69.528C231.731 69.528 231.303 69.7 230.991 70.044C230.679 70.38 230.523 70.824 230.523 71.376V72.432C230.523 72.984 230.679 73.432 230.991 73.776C231.303 74.112 231.731 74.28 232.275 74.28ZM237.352 67.356C237.144 67.356 236.992 67.308 236.896 67.212C236.808 67.108 236.764 66.976 236.764 66.816V66.66C236.764 66.5 236.808 66.372 236.896 66.276C236.992 66.172 237.144 66.12 237.352 66.12C237.56 66.12 237.708 66.172 237.796 66.276C237.892 66.372 237.94 66.5 237.94 66.66V66.816C237.94 66.976 237.892 67.108 237.796 67.212C237.708 67.308 237.56 67.356 237.352 67.356ZM236.872 68.808H237.832V75H236.872V68.808ZM241.24 75C240.904 75 240.648 74.908 240.472 74.724C240.304 74.532 240.22 74.284 240.22 73.98V69.648H239.2V68.808H239.776C239.984 68.808 240.124 68.768 240.196 68.688C240.276 68.6 240.316 68.452 240.316 68.244V67.092H241.18V68.808H242.536V69.648H241.18V74.16H242.44V75H241.24ZM246.915 68.808H247.875V69.816H247.923C248.083 69.424 248.315 69.136 248.619 68.952C248.931 68.76 249.303 68.664 249.735 68.664C250.119 68.664 250.467 68.74 250.779 68.892C251.091 69.044 251.355 69.26 251.571 69.54C251.795 69.82 251.963 70.16 252.075 70.56C252.195 70.96 252.255 71.408 252.255 71.904C252.255 72.4 252.195 72.848 252.075 73.248C251.963 73.648 251.795 73.988 251.571 74.268C251.355 74.548 251.091 74.764 250.779 74.916C250.467 75.068 250.119 75.144 249.735 75.144C248.895 75.144 248.291 74.76 247.923 73.992H247.875V77.4H246.915V68.808ZM249.471 74.28C250.015 74.28 250.443 74.112 250.755 73.776C251.067 73.432 251.223 72.984 251.223 72.432V71.376C251.223 70.824 251.067 70.38 250.755 70.044C250.443 69.7 250.015 69.528 249.471 69.528C249.255 69.528 249.047 69.56 248.847 69.624C248.655 69.68 248.487 69.76 248.343 69.864C248.199 69.968 248.083 70.096 247.995 70.248C247.915 70.392 247.875 70.548 247.875 70.716V73.02C247.875 73.22 247.915 73.4 247.995 73.56C248.083 73.712 248.199 73.844 248.343 73.956C248.487 74.06 248.655 74.14 248.847 74.196C249.047 74.252 249.255 74.28 249.471 74.28ZM258.375 75C258.015 75 257.755 74.904 257.595 74.712C257.443 74.52 257.347 74.28 257.307 73.992H257.247C257.111 74.376 256.887 74.664 256.575 74.856C256.263 75.048 255.891 75.144 255.459 75.144C254.803 75.144 254.291 74.976 253.923 74.64C253.563 74.304 253.383 73.848 253.383 73.272C253.383 72.688 253.595 72.24 254.019 71.928C254.451 71.616 255.119 71.46 256.023 71.46H257.247V70.848C257.247 70.408 257.127 70.072 256.887 69.84C256.647 69.608 256.279 69.492 255.783 69.492C255.407 69.492 255.091 69.576 254.835 69.744C254.587 69.912 254.379 70.136 254.211 70.416L253.635 69.876C253.803 69.54 254.071 69.256 254.439 69.024C254.807 68.784 255.271 68.664 255.831 68.664C256.583 68.664 257.167 68.848 257.583 69.216C257.999 69.584 258.207 70.096 258.207 70.752V74.16H258.915V75H258.375ZM255.615 74.328C255.855 74.328 256.075 74.3 256.275 74.244C256.475 74.188 256.647 74.108 256.791 74.004C256.935 73.9 257.047 73.78 257.127 73.644C257.207 73.508 257.247 73.36 257.247 73.2V72.18H255.975C255.423 72.18 255.019 72.26 254.763 72.42C254.515 72.58 254.391 72.812 254.391 73.116V73.368C254.391 73.672 254.499 73.908 254.715 74.076C254.939 74.244 255.239 74.328 255.615 74.328ZM262.146 75.144C261.57 75.144 261.086 75.036 260.694 74.82C260.31 74.596 259.978 74.3 259.698 73.932L260.382 73.38C260.622 73.684 260.89 73.92 261.186 74.088C261.482 74.248 261.826 74.328 262.218 74.328C262.626 74.328 262.942 74.24 263.166 74.064C263.398 73.888 263.514 73.64 263.514 73.32C263.514 73.08 263.434 72.876 263.274 72.708C263.122 72.532 262.842 72.412 262.434 72.348L261.942 72.276C261.654 72.236 261.39 72.176 261.15 72.096C260.91 72.008 260.698 71.896 260.514 71.76C260.338 71.616 260.198 71.44 260.094 71.232C259.998 71.024 259.95 70.776 259.95 70.488C259.95 70.184 260.006 69.92 260.118 69.696C260.23 69.464 260.382 69.272 260.574 69.12C260.774 68.968 261.01 68.856 261.282 68.784C261.554 68.704 261.846 68.664 262.158 68.664C262.662 68.664 263.082 68.752 263.418 68.928C263.762 69.104 264.062 69.348 264.318 69.66L263.682 70.236C263.546 70.044 263.346 69.872 263.082 69.72C262.818 69.56 262.486 69.48 262.086 69.48C261.686 69.48 261.382 69.568 261.174 69.744C260.974 69.912 260.874 70.144 260.874 70.44C260.874 70.744 260.974 70.964 261.174 71.1C261.382 71.236 261.678 71.336 262.062 71.4L262.542 71.472C263.23 71.576 263.718 71.776 264.006 72.072C264.294 72.36 264.438 72.74 264.438 73.212C264.438 73.812 264.234 74.284 263.826 74.628C263.418 74.972 262.858 75.144 262.146 75.144ZM266.687 75.144C266.431 75.144 266.243 75.08 266.123 74.952C266.011 74.824 265.955 74.656 265.955 74.448V74.292C265.955 74.084 266.011 73.916 266.123 73.788C266.243 73.66 266.431 73.596 266.687 73.596C266.943 73.596 267.127 73.66 267.239 73.788C267.359 73.916 267.419 74.084 267.419 74.292V74.448C267.419 74.656 267.359 74.824 267.239 74.952C267.127 75.08 266.943 75.144 266.687 75.144Z" fill="#474E95"/>
<path d="M147.5 168H1.5V203H147.5V168Z" fill="#747474"/>
<path d="M20.932 190.272H20.868C20.772 190.816 20.468 191.275 19.956 191.648C19.4547 192.011 18.7827 192.192 17.94 192.192C17.2787 192.192 16.6653 192.069 16.1 191.824C15.5453 191.579 15.06 191.216 14.644 190.736C14.2387 190.245 13.9187 189.643 13.684 188.928C13.4493 188.213 13.332 187.387 13.332 186.448C13.332 185.509 13.4493 184.683 13.684 183.968C13.9293 183.243 14.2707 182.635 14.708 182.144C15.1453 181.653 15.668 181.28 16.276 181.024C16.884 180.768 17.5613 180.64 18.308 180.64C19.3107 180.64 20.164 180.859 20.868 181.296C21.572 181.733 22.1267 182.363 22.532 183.184L20.82 184.192C20.6173 183.712 20.3133 183.312 19.908 182.992C19.5133 182.672 18.98 182.512 18.308 182.512C17.476 182.512 16.8093 182.768 16.308 183.28C15.8173 183.781 15.572 184.528 15.572 185.52V187.312C15.572 188.293 15.8227 189.04 16.324 189.552C16.8253 190.064 17.4973 190.32 18.34 190.32C18.6707 190.32 18.98 190.283 19.268 190.208C19.556 190.123 19.8067 190 20.02 189.84C20.2333 189.68 20.404 189.483 20.532 189.248C20.66 189.013 20.724 188.736 20.724 188.416V187.696H18.532V185.92H22.756V192H20.932V190.272ZM28.4506 192.192C27.832 192.192 27.2773 192.091 26.7866 191.888C26.3066 191.675 25.896 191.381 25.5546 191.008C25.224 190.624 24.968 190.165 24.7866 189.632C24.6053 189.088 24.5146 188.48 24.5146 187.808C24.5146 187.147 24.6 186.549 24.7706 186.016C24.952 185.483 25.208 185.029 25.5386 184.656C25.8693 184.272 26.2746 183.979 26.7546 183.776C27.2346 183.563 27.7786 183.456 28.3866 183.456C29.0373 183.456 29.6026 183.568 30.0826 183.792C30.5626 184.016 30.9573 184.32 31.2666 184.704C31.576 185.088 31.8053 185.536 31.9546 186.048C32.1146 186.549 32.1946 187.088 32.1946 187.664V188.336H26.6426V188.544C26.6426 189.152 26.8133 189.643 27.1546 190.016C27.496 190.379 28.0026 190.56 28.6746 190.56C29.1866 190.56 29.6026 190.453 29.9226 190.24C30.2533 190.027 30.5466 189.755 30.8026 189.424L31.9066 190.656C31.5653 191.136 31.096 191.515 30.4986 191.792C29.912 192.059 29.2293 192.192 28.4506 192.192ZM28.4186 184.992C27.8746 184.992 27.4426 185.173 27.1226 185.536C26.8026 185.899 26.6426 186.368 26.6426 186.944V187.072H30.0666V186.928C30.0666 186.352 29.9226 185.888 29.6346 185.536C29.3573 185.173 28.952 184.992 28.4186 184.992ZM33.9965 192V183.648H36.0445V185.04H36.1245C36.2845 184.603 36.5405 184.229 36.8925 183.92C37.2445 183.611 37.7352 183.456 38.3645 183.456C38.9405 183.456 39.4365 183.595 39.8525 183.872C40.2685 184.149 40.5778 184.571 40.7805 185.136H40.8125C40.9618 184.667 41.2552 184.272 41.6925 183.952C42.1405 183.621 42.7005 183.456 43.3725 183.456C44.1938 183.456 44.8232 183.739 45.2605 184.304C45.7085 184.869 45.9325 185.675 45.9325 186.72V192H43.8845V186.928C43.8845 185.733 43.4365 185.136 42.5405 185.136C42.3378 185.136 42.1405 185.168 41.9485 185.232C41.7672 185.285 41.6018 185.371 41.4525 185.488C41.3138 185.595 41.2018 185.733 41.1165 185.904C41.0312 186.064 40.9885 186.256 40.9885 186.48V192H38.9405V186.928C38.9405 185.733 38.4925 185.136 37.5965 185.136C37.4045 185.136 37.2125 185.168 37.0205 185.232C36.8392 185.285 36.6738 185.371 36.5245 185.488C36.3858 185.595 36.2685 185.733 36.1725 185.904C36.0872 186.064 36.0445 186.256 36.0445 186.48V192H33.9965ZM55.2929 192.192C54.6955 192.192 54.1569 192.091 53.6769 191.888C53.2075 191.685 52.8022 191.392 52.4609 191.008C52.1302 190.624 51.8742 190.165 51.6929 189.632C51.5115 189.088 51.4209 188.48 51.4209 187.808C51.4209 187.136 51.5115 186.533 51.6929 186C51.8742 185.467 52.1302 185.013 52.4609 184.64C52.8022 184.256 53.2075 183.963 53.6769 183.76C54.1569 183.557 54.6955 183.456 55.2929 183.456C55.8902 183.456 56.4289 183.557 56.9089 183.76C57.3889 183.963 57.7942 184.256 58.1249 184.64C58.4662 185.013 58.7275 185.467 58.9089 186C59.0902 186.533 59.1809 187.136 59.1809 187.808C59.1809 188.48 59.0902 189.088 58.9089 189.632C58.7275 190.165 58.4662 190.624 58.1249 191.008C57.7942 191.392 57.3889 191.685 56.9089 191.888C56.4289 192.091 55.8902 192.192 55.2929 192.192ZM55.2929 190.544C55.8369 190.544 56.2635 190.379 56.5729 190.048C56.8822 189.717 57.0369 189.232 57.0369 188.592V187.04C57.0369 186.411 56.8822 185.931 56.5729 185.6C56.2635 185.269 55.8369 185.104 55.2929 185.104C54.7595 185.104 54.3382 185.269 54.0289 185.6C53.7195 185.931 53.5649 186.411 53.5649 187.04V188.592C53.5649 189.232 53.7195 189.717 54.0289 190.048C54.3382 190.379 54.7595 190.544 55.2929 190.544ZM60.9965 183.648H63.0445V185.024H63.1085C63.2578 184.544 63.5405 184.165 63.9565 183.888C64.3725 183.6 64.8578 183.456 65.4125 183.456C66.4792 183.456 67.2898 183.835 67.8445 184.592C68.4098 185.339 68.6925 186.411 68.6925 187.808C68.6925 189.216 68.4098 190.299 67.8445 191.056C67.2898 191.813 66.4792 192.192 65.4125 192.192C64.8578 192.192 64.3725 192.048 63.9565 191.76C63.5512 191.472 63.2685 191.088 63.1085 190.608H63.0445V195.2H60.9965V183.648ZM64.7565 190.496C65.2898 190.496 65.7218 190.32 66.0525 189.968C66.3832 189.616 66.5485 189.141 66.5485 188.544V187.104C66.5485 186.507 66.3832 186.032 66.0525 185.68C65.7218 185.317 65.2898 185.136 64.7565 185.136C64.2658 185.136 63.8552 185.259 63.5245 185.504C63.2045 185.749 63.0445 186.075 63.0445 186.48V189.136C63.0445 189.573 63.2045 189.909 63.5245 190.144C63.8552 190.379 64.2658 190.496 64.7565 190.496ZM72.6383 192C71.9343 192 71.4169 191.824 71.0863 191.472C70.7556 191.12 70.5903 190.624 70.5903 189.984V180.16H72.6383V190.368H73.7423V192H72.6383ZM80.304 183.648H82.224L78.864 193.488C78.7573 193.787 78.6347 194.043 78.496 194.256C78.368 194.48 78.2133 194.661 78.032 194.8C77.8507 194.939 77.632 195.04 77.376 195.104C77.12 195.168 76.8213 195.2 76.48 195.2H75.248V193.568H76.752L77.136 192.4L74.144 183.648H76.176L77.632 188.064L78.176 190.176H78.272L78.848 188.064L80.304 183.648ZM86.1856 192.192C85.3856 192.192 84.7136 192.059 84.1696 191.792C83.6256 191.515 83.1456 191.136 82.7296 190.656L83.9776 189.44C84.287 189.792 84.623 190.069 84.9856 190.272C85.359 190.475 85.7856 190.576 86.2656 190.576C86.7563 190.576 87.1083 190.491 87.3216 190.32C87.5456 190.149 87.6576 189.915 87.6576 189.616C87.6576 189.371 87.5776 189.179 87.4176 189.04C87.2683 188.891 87.007 188.789 86.6336 188.736L85.8016 188.624C84.895 188.507 84.2016 188.251 83.7216 187.856C83.2523 187.451 83.0176 186.864 83.0176 186.096C83.0176 185.691 83.0923 185.328 83.2416 185.008C83.391 184.677 83.6043 184.4 83.8816 184.176C84.159 183.941 84.4896 183.765 84.8736 183.648C85.2683 183.52 85.7056 183.456 86.1856 183.456C86.591 183.456 86.9483 183.488 87.2576 183.552C87.5776 183.605 87.8656 183.691 88.1216 183.808C88.3776 183.915 88.6123 184.053 88.8256 184.224C89.039 184.384 89.247 184.565 89.4496 184.768L88.2496 185.968C88.0043 185.712 87.711 185.499 87.3696 185.328C87.0283 185.157 86.655 185.072 86.2496 185.072C85.8016 185.072 85.4763 185.152 85.2736 185.312C85.0816 185.472 84.9856 185.68 84.9856 185.936C84.9856 186.213 85.0656 186.427 85.2256 186.576C85.3963 186.715 85.679 186.816 86.0736 186.88L86.9216 186.992C88.7243 187.248 89.6256 188.069 89.6256 189.456C89.6256 189.861 89.5403 190.235 89.3696 190.576C89.2096 190.907 88.9803 191.195 88.6816 191.44C88.383 191.675 88.0203 191.861 87.5936 192C87.1776 192.128 86.7083 192.192 86.1856 192.192ZM91.434 192V183.648H93.482V185.04H93.562C93.7327 184.592 93.9993 184.219 94.362 183.92C94.7353 183.611 95.2473 183.456 95.898 183.456C96.762 183.456 97.4233 183.739 97.882 184.304C98.3407 184.869 98.57 185.675 98.57 186.72V192H96.522V186.928C96.522 186.331 96.4153 185.883 96.202 185.584C95.9887 185.285 95.6367 185.136 95.146 185.136C94.9327 185.136 94.7247 185.168 94.522 185.232C94.33 185.285 94.154 185.371 93.994 185.488C93.8447 185.595 93.722 185.733 93.626 185.904C93.53 186.064 93.482 186.256 93.482 186.48V192H91.434ZM101.864 182.432C101.438 182.432 101.128 182.336 100.936 182.144C100.755 181.952 100.664 181.707 100.664 181.408V181.088C100.664 180.789 100.755 180.544 100.936 180.352C101.128 180.16 101.438 180.064 101.864 180.064C102.28 180.064 102.584 180.16 102.776 180.352C102.968 180.544 103.064 180.789 103.064 181.088V181.408C103.064 181.707 102.968 181.952 102.776 182.144C102.584 182.336 102.28 182.432 101.864 182.432ZM100.84 183.648H102.888V192H100.84V183.648ZM105.262 192V183.648H107.31V185.04H107.39C107.561 184.592 107.827 184.219 108.19 183.92C108.563 183.611 109.075 183.456 109.726 183.456C110.59 183.456 111.251 183.739 111.71 184.304C112.169 184.869 112.398 185.675 112.398 186.72V192H110.35V186.928C110.35 186.331 110.243 185.883 110.03 185.584C109.817 185.285 109.465 185.136 108.974 185.136C108.761 185.136 108.553 185.168 108.35 185.232C108.158 185.285 107.982 185.371 107.822 185.488C107.673 185.595 107.55 185.733 107.454 185.904C107.358 186.064 107.31 186.256 107.31 186.48V192H105.262ZM122.204 192.704C122.204 193.141 122.124 193.525 121.964 193.856C121.815 194.197 121.564 194.48 121.212 194.704C120.86 194.928 120.407 195.099 119.852 195.216C119.298 195.333 118.62 195.392 117.82 195.392C117.116 195.392 116.519 195.344 116.028 195.248C115.538 195.163 115.132 195.035 114.812 194.864C114.503 194.704 114.279 194.501 114.14 194.256C114.002 194.011 113.932 193.733 113.932 193.424C113.932 192.955 114.06 192.587 114.316 192.32C114.583 192.064 114.951 191.899 115.42 191.824V191.648C115.079 191.563 114.812 191.397 114.62 191.152C114.439 190.896 114.348 190.597 114.348 190.256C114.348 190.043 114.391 189.856 114.476 189.696C114.562 189.525 114.674 189.381 114.812 189.264C114.962 189.147 115.127 189.051 115.308 188.976C115.49 188.891 115.682 188.827 115.884 188.784V188.72C115.372 188.485 114.988 188.16 114.732 187.744C114.487 187.328 114.364 186.843 114.364 186.288C114.364 185.435 114.658 184.752 115.244 184.24C115.831 183.717 116.69 183.456 117.82 183.456C118.076 183.456 118.327 183.472 118.572 183.504C118.828 183.536 119.063 183.589 119.276 183.664V183.392C119.276 182.581 119.671 182.176 120.46 182.176H121.756V183.744H119.98V183.968C120.418 184.213 120.743 184.533 120.956 184.928C121.17 185.323 121.276 185.776 121.276 186.288C121.276 187.131 120.983 187.808 120.396 188.32C119.82 188.832 118.962 189.088 117.82 189.088C117.33 189.088 116.903 189.04 116.54 188.944C116.38 189.019 116.242 189.12 116.124 189.248C116.007 189.365 115.948 189.515 115.948 189.696C115.948 190.112 116.311 190.32 117.036 190.32H119.276C120.3 190.32 121.042 190.533 121.5 190.96C121.97 191.376 122.204 191.957 122.204 192.704ZM120.284 192.944C120.284 192.677 120.178 192.469 119.964 192.32C119.751 192.171 119.383 192.096 118.86 192.096H116.012C115.724 192.309 115.58 192.597 115.58 192.96C115.58 193.28 115.714 193.531 115.98 193.712C116.247 193.893 116.7 193.984 117.34 193.984H118.364C119.036 193.984 119.522 193.899 119.82 193.728C120.13 193.557 120.284 193.296 120.284 192.944ZM117.82 187.696C118.823 187.696 119.324 187.269 119.324 186.416V186.144C119.324 185.291 118.823 184.864 117.82 184.864C116.818 184.864 116.316 185.291 116.316 186.144V186.416C116.316 187.269 116.818 187.696 117.82 187.696ZM126.669 192.192C126.051 192.192 125.496 192.091 125.005 191.888C124.525 191.675 124.115 191.381 123.773 191.008C123.443 190.624 123.187 190.165 123.005 189.632C122.824 189.088 122.733 188.48 122.733 187.808C122.733 187.147 122.819 186.549 122.989 186.016C123.171 185.483 123.427 185.029 123.757 184.656C124.088 184.272 124.493 183.979 124.973 183.776C125.453 183.563 125.997 183.456 126.605 183.456C127.256 183.456 127.821 183.568 128.301 183.792C128.781 184.016 129.176 184.32 129.485 184.704C129.795 185.088 130.024 185.536 130.173 186.048C130.333 186.549 130.413 187.088 130.413 187.664V188.336H124.861V188.544C124.861 189.152 125.032 189.643 125.373 190.016C125.715 190.379 126.221 190.56 126.893 190.56C127.405 190.56 127.821 190.453 128.141 190.24C128.472 190.027 128.765 189.755 129.021 189.424L130.125 190.656C129.784 191.136 129.315 191.515 128.717 191.792C128.131 192.059 127.448 192.192 126.669 192.192ZM126.637 184.992C126.093 184.992 125.661 185.173 125.341 185.536C125.021 185.899 124.861 186.368 124.861 186.944V187.072H128.285V186.928C128.285 186.352 128.141 185.888 127.853 185.536C127.576 185.173 127.171 184.992 126.637 184.992ZM132.215 192V183.648H134.263V185.376H134.343C134.397 185.152 134.477 184.939 134.583 184.736C134.701 184.523 134.85 184.336 135.031 184.176C135.213 184.016 135.426 183.888 135.671 183.792C135.927 183.696 136.221 183.648 136.551 183.648H136.999V185.584H136.359C135.666 185.584 135.143 185.685 134.791 185.888C134.439 186.091 134.263 186.421 134.263 186.88V192H132.215Z" fill="#F5F5F5"/>
</svg>
