<svg width="360" height="146" viewBox="0 0 360 146" fill="none" xmlns="http://www.w3.org/2000/svg">
<path d="M313 31.5H1V82.5H313V31.5Z" fill="#C8CADF" stroke="#474E95"/>
<path d="M152 94.5H1V145.5H152V94.5Z" fill="#747474" stroke="#747474"/>
<path d="M54.676 127.288C53.236 127.288 52.012 127.032 51.004 126.52C50.012 126.008 49.156 125.336 48.436 124.504L50.572 122.44C51.148 123.112 51.788 123.624 52.492 123.976C53.212 124.328 54.004 124.504 54.868 124.504C55.844 124.504 56.58 124.296 57.076 123.88C57.572 123.448 57.82 122.872 57.82 122.152C57.82 121.592 57.66 121.136 57.34 120.784C57.02 120.432 56.42 120.176 55.54 120.016L53.956 119.776C50.612 119.248 48.94 117.624 48.94 114.904C48.94 114.152 49.076 113.472 49.348 112.864C49.636 112.256 50.044 111.736 50.572 111.304C51.1 110.872 51.732 110.544 52.468 110.32C53.22 110.08 54.068 109.96 55.012 109.96C56.276 109.96 57.38 110.168 58.324 110.584C59.268 111 60.076 111.616 60.748 112.432L58.588 114.472C58.172 113.96 57.668 113.544 57.076 113.224C56.484 112.904 55.74 112.744 54.844 112.744C53.932 112.744 53.244 112.92 52.78 113.272C52.332 113.608 52.108 114.088 52.108 114.712C52.108 115.352 52.292 115.824 52.66 116.128C53.028 116.432 53.62 116.656 54.436 116.8L55.996 117.088C57.692 117.392 58.94 117.936 59.74 118.72C60.556 119.488 60.964 120.568 60.964 121.96C60.964 122.76 60.82 123.488 60.532 124.144C60.26 124.784 59.852 125.344 59.308 125.824C58.78 126.288 58.124 126.648 57.34 126.904C56.572 127.16 55.684 127.288 54.676 127.288ZM69.0119 127.288C68.0839 127.288 67.2519 127.136 66.5159 126.832C65.7959 126.512 65.1799 126.072 64.6679 125.512C64.1719 124.936 63.7879 124.248 63.5159 123.448C63.2439 122.632 63.1079 121.72 63.1079 120.712C63.1079 119.72 63.2359 118.824 63.4919 118.024C63.7639 117.224 64.1479 116.544 64.6439 115.984C65.1399 115.408 65.7479 114.968 66.4679 114.664C67.1879 114.344 68.0039 114.184 68.9159 114.184C69.8919 114.184 70.7399 114.352 71.4599 114.688C72.1799 115.024 72.7719 115.48 73.2359 116.056C73.6999 116.632 74.0439 117.304 74.2679 118.072C74.5079 118.824 74.6279 119.632 74.6279 120.496V121.504H66.2999V121.816C66.2999 122.728 66.5559 123.464 67.0679 124.024C67.5799 124.568 68.3399 124.84 69.3479 124.84C70.1159 124.84 70.7399 124.68 71.2199 124.36C71.7159 124.04 72.1559 123.632 72.5399 123.136L74.1959 124.984C73.6839 125.704 72.9799 126.272 72.0839 126.688C71.2039 127.088 70.1799 127.288 69.0119 127.288ZM68.9639 116.488C68.1479 116.488 67.4999 116.76 67.0199 117.304C66.5399 117.848 66.2999 118.552 66.2999 119.416V119.608H71.4359V119.392C71.4359 118.528 71.2199 117.832 70.7879 117.304C70.3719 116.76 69.7639 116.488 68.9639 116.488ZM77.3307 127V114.472H80.4027V116.56H80.5227C80.7787 115.888 81.1787 115.328 81.7227 114.88C82.2827 114.416 83.0507 114.184 84.0267 114.184C85.3227 114.184 86.3147 114.608 87.0027 115.456C87.6907 116.304 88.0347 117.512 88.0347 119.08V127H84.9627V119.392C84.9627 118.496 84.8027 117.824 84.4827 117.376C84.1627 116.928 83.6347 116.704 82.8987 116.704C82.5787 116.704 82.2667 116.752 81.9627 116.848C81.6747 116.928 81.4107 117.056 81.1707 117.232C80.9467 117.392 80.7627 117.6 80.6187 117.856C80.4747 118.096 80.4027 118.384 80.4027 118.72V127H77.3307ZM99.2161 124.912H99.0961C98.8721 125.632 98.4481 126.208 97.8241 126.64C97.2001 127.072 96.4721 127.288 95.6401 127.288C94.0561 127.288 92.8401 126.72 91.9921 125.584C91.1601 124.448 90.7441 122.824 90.7441 120.712C90.7441 118.616 91.1601 117.008 91.9921 115.888C92.8401 114.752 94.0561 114.184 95.6401 114.184C96.4721 114.184 97.2001 114.4 97.8241 114.832C98.4481 115.248 98.8721 115.816 99.0961 116.536H99.2161V109.24H102.288V127H99.2161V124.912ZM96.6241 124.744C97.3601 124.744 97.9761 124.568 98.4721 124.216C98.9681 123.864 99.2161 123.36 99.2161 122.704V118.72C99.2161 118.112 98.9681 117.624 98.4721 117.256C97.9761 116.888 97.3601 116.704 96.6241 116.704C95.8241 116.704 95.1761 116.976 94.6801 117.52C94.2001 118.048 93.9601 118.76 93.9601 119.656V121.816C93.9601 122.712 94.2001 123.424 94.6801 123.952C95.1761 124.48 95.8241 124.744 96.6241 124.744Z" fill="white"/>
<path d="M3.453 21V6.342H12.399V7.896H5.217V12.81H11.979V14.364H5.217V19.446H12.399V21H3.453ZM16.1162 11.634H14.3522V10.164H16.1162V7.98C16.1162 7.224 16.3122 6.615 16.7042 6.153C17.0962 5.691 17.6912 5.46 18.4892 5.46H20.1272V6.93H17.7962V10.164H20.1272V11.634H17.7962V21H16.1162V11.634ZM24.7308 21C24.1428 21 23.6948 20.839 23.3868 20.517C23.0928 20.181 22.9458 19.747 22.9458 19.215V11.634H21.1608V10.164H22.1688C22.5328 10.164 22.7778 10.094 22.9038 9.954C23.0438 9.8 23.1138 9.541 23.1138 9.177V7.161H24.6258V10.164H26.9988V11.634H24.6258V19.53H26.8308V21H24.7308ZM33.691 21.252C32.949 21.252 32.277 21.119 31.675 20.853C31.087 20.587 30.576 20.209 30.142 19.719C29.722 19.215 29.393 18.62 29.155 17.934C28.931 17.234 28.819 16.45 28.819 15.582C28.819 14.728 28.931 13.951 29.155 13.251C29.393 12.551 29.722 11.956 30.142 11.466C30.576 10.962 31.087 10.577 31.675 10.311C32.277 10.045 32.949 9.912 33.691 9.912C34.419 9.912 35.07 10.045 35.644 10.311C36.218 10.577 36.708 10.948 37.114 11.424C37.52 11.886 37.828 12.439 38.038 13.083C38.262 13.727 38.374 14.434 38.374 15.204V16.002H30.583V16.506C30.583 16.968 30.653 17.402 30.793 17.808C30.947 18.2 31.157 18.543 31.423 18.837C31.703 19.131 32.039 19.362 32.431 19.53C32.837 19.698 33.292 19.782 33.796 19.782C34.482 19.782 35.077 19.621 35.581 19.299C36.099 18.977 36.498 18.515 36.778 17.913L37.975 18.774C37.625 19.516 37.079 20.118 36.337 20.58C35.595 21.028 34.713 21.252 33.691 21.252ZM33.691 11.319C33.229 11.319 32.809 11.403 32.431 11.571C32.053 11.725 31.724 11.949 31.444 12.243C31.178 12.537 30.968 12.887 30.814 13.293C30.66 13.685 30.583 14.119 30.583 14.595V14.742H36.568V14.511C36.568 13.545 36.302 12.775 35.77 12.201C35.252 11.613 34.559 11.319 33.691 11.319ZM41.1424 21V10.164H42.8224V12.159H42.9274C43.1234 11.641 43.4734 11.179 43.9774 10.773C44.4814 10.367 45.1744 10.164 46.0564 10.164H46.7074V11.844H45.7204C44.8104 11.844 44.0964 12.019 43.5784 12.369C43.0744 12.705 42.8224 13.132 42.8224 13.65V21H41.1424ZM48.8534 21V10.164H50.5334V11.928H50.6174C50.8834 11.312 51.2544 10.822 51.7304 10.458C52.2204 10.094 52.8714 9.912 53.6834 9.912C54.8034 9.912 55.6854 10.276 56.3294 11.004C56.9874 11.718 57.3164 12.733 57.3164 14.049V21H55.6364V14.343C55.6364 12.397 54.8174 11.424 53.1794 11.424C52.8434 11.424 52.5144 11.466 52.1924 11.55C51.8844 11.634 51.6044 11.76 51.3524 11.928C51.1004 12.096 50.8974 12.313 50.7434 12.579C50.6034 12.831 50.5334 13.132 50.5334 13.482V21H48.8534ZM68.6639 21C68.0339 21 67.5789 20.832 67.2989 20.496C67.0329 20.16 66.8649 19.74 66.7949 19.236H66.6899C66.4519 19.908 66.0599 20.412 65.5139 20.748C64.9679 21.084 64.3169 21.252 63.5609 21.252C62.4129 21.252 61.5169 20.958 60.8729 20.37C60.2429 19.782 59.9279 18.984 59.9279 17.976C59.9279 16.954 60.2989 16.17 61.0409 15.624C61.7969 15.078 62.9659 14.805 64.5479 14.805H66.6899V13.734C66.6899 12.964 66.4799 12.376 66.0599 11.97C65.6399 11.564 64.9959 11.361 64.1279 11.361C63.4699 11.361 62.9169 11.508 62.4689 11.802C62.0349 12.096 61.6709 12.488 61.3769 12.978L60.3689 12.033C60.6629 11.445 61.1319 10.948 61.7759 10.542C62.4199 10.122 63.2319 9.912 64.2119 9.912C65.5279 9.912 66.5499 10.234 67.2779 10.878C68.0059 11.522 68.3699 12.418 68.3699 13.566V19.53H69.6089V21H68.6639ZM63.8339 19.824C64.2539 19.824 64.6389 19.775 64.9889 19.677C65.3389 19.579 65.6399 19.439 65.8919 19.257C66.1439 19.075 66.3399 18.865 66.4799 18.627C66.6199 18.389 66.6899 18.13 66.6899 17.85V16.065H64.4639C63.4979 16.065 62.7909 16.205 62.3429 16.485C61.9089 16.765 61.6919 17.171 61.6919 17.703V18.144C61.6919 18.676 61.8809 19.089 62.2589 19.383C62.6509 19.677 63.1759 19.824 63.8339 19.824ZM74.2366 21L70.4356 10.164H72.1156L74.0056 15.54L75.1816 19.236H75.2866L76.4626 15.54L78.3946 10.164H80.0116L76.1896 21H74.2366ZM82.1786 21V10.164H83.8586V11.928H83.9426C84.2086 11.312 84.5796 10.822 85.0556 10.458C85.5456 10.094 86.1966 9.912 87.0086 9.912C88.1286 9.912 89.0106 10.276 89.6546 11.004C90.3126 11.718 90.6416 12.733 90.6416 14.049V21H88.9616V14.343C88.9616 12.397 88.1426 11.424 86.5046 11.424C86.1686 11.424 85.8396 11.466 85.5176 11.55C85.2096 11.634 84.9296 11.76 84.6776 11.928C84.4256 12.096 84.2226 12.313 84.0686 12.579C83.9286 12.831 83.8586 13.132 83.8586 13.482V21H82.1786Z" fill="#474E95"/>
</svg>
