<svg width="418" height="198" viewBox="0 0 418 198" fill="none" xmlns="http://www.w3.org/2000/svg">
<rect width="418" height="198" fill="white"/>
<g filter="url(#filter0_d_5010_49455)">
<mask id="path-1-inside-1_5010_49455" fill="white">
<path fill-rule="evenodd" clip-rule="evenodd" d="M20 16C17.7909 16 16 17.7909 16 20V70C16 72.2091 17.7909 74 20 74H147L153.586 80.5858C154.367 81.3668 155.633 81.3668 156.414 80.5858L163 74H290C292.209 74 294 72.2091 294 70V20C294 17.7909 292.209 16 290 16H20Z"/>
</mask>
<path fill-rule="evenodd" clip-rule="evenodd" d="M20 16C17.7909 16 16 17.7909 16 20V70C16 72.2091 17.7909 74 20 74H147L153.586 80.5858C154.367 81.3668 155.633 81.3668 156.414 80.5858L163 74H290C292.209 74 294 72.2091 294 70V20C294 17.7909 292.209 16 290 16H20Z" fill="white"/>
<path d="M147 74L147.707 73.2929L147.414 73H147V74ZM153.586 80.5858L154.293 79.8787L153.586 80.5858ZM156.414 80.5858L155.707 79.8787V79.8787L156.414 80.5858ZM163 74V73H162.586L162.293 73.2929L163 74ZM17 20C17 18.3431 18.3431 17 20 17V15C17.2386 15 15 17.2386 15 20H17ZM17 70V20H15V70H17ZM20 73C18.3431 73 17 71.6569 17 70H15C15 72.7614 17.2386 75 20 75V73ZM147 73H20V75H147V73ZM154.293 79.8787L147.707 73.2929L146.293 74.7071L152.879 81.2929L154.293 79.8787ZM155.707 79.8787C155.317 80.2692 154.683 80.2692 154.293 79.8787L152.879 81.2929C154.05 82.4645 155.95 82.4645 157.121 81.2929L155.707 79.8787ZM162.293 73.2929L155.707 79.8787L157.121 81.2929L163.707 74.7071L162.293 73.2929ZM290 73H163V75H290V73ZM293 70C293 71.6569 291.657 73 290 73V75C292.761 75 295 72.7614 295 70H293ZM293 20V70H295V20H293ZM290 17C291.657 17 293 18.3431 293 20H295C295 17.2386 292.761 15 290 15V17ZM20 17H290V15H20V17Z" fill="#747474" mask="url(#path-1-inside-1_5010_49455)"/>
</g>
<path d="M32.48 32.944H26.832V38H25.488V26.832H26.832V31.76H32.48V26.832H33.824V38H32.48V32.944ZM38.4965 38L35.6005 29.744H36.8805L38.3205 33.84L39.2165 36.656H39.2965L40.1925 33.84L41.6645 29.744H42.8965L39.9845 38H38.4965ZM45.1875 27.808C44.9102 27.808 44.7075 27.744 44.5795 27.616C44.4622 27.4773 44.4035 27.3013 44.4035 27.088V26.88C44.4035 26.6667 44.4622 26.496 44.5795 26.368C44.7075 26.2293 44.9102 26.16 45.1875 26.16C45.4648 26.16 45.6622 26.2293 45.7795 26.368C45.9075 26.496 45.9715 26.6667 45.9715 26.88V27.088C45.9715 27.3013 45.9075 27.4773 45.7795 27.616C45.6622 27.744 45.4648 27.808 45.1875 27.808ZM44.5475 29.744H45.8275V38H44.5475V29.744ZM51.0275 38.192C50.2595 38.192 49.6142 38.048 49.0915 37.76C48.5795 37.4613 48.1368 37.0667 47.7635 36.576L48.6755 35.84C48.9955 36.2453 49.3528 36.56 49.7475 36.784C50.1422 36.9973 50.6008 37.104 51.1235 37.104C51.6675 37.104 52.0888 36.9867 52.3875 36.752C52.6968 36.5173 52.8515 36.1867 52.8515 35.76C52.8515 35.44 52.7448 35.168 52.5315 34.944C52.3288 34.7093 51.9555 34.5493 51.4115 34.464L50.7555 34.368C50.3715 34.3147 50.0195 34.2347 49.6995 34.128C49.3795 34.0107 49.0968 33.8613 48.8515 33.68C48.6168 33.488 48.4302 33.2533 48.2915 32.976C48.1635 32.6987 48.0995 32.368 48.0995 31.984C48.0995 31.5787 48.1742 31.2267 48.3235 30.928C48.4728 30.6187 48.6755 30.3627 48.9315 30.16C49.1982 29.9573 49.5128 29.808 49.8755 29.712C50.2382 29.6053 50.6275 29.552 51.0435 29.552C51.7155 29.552 52.2755 29.6693 52.7235 29.904C53.1822 30.1387 53.5822 30.464 53.9235 30.88L53.0755 31.648C52.8942 31.392 52.6275 31.1627 52.2755 30.96C51.9235 30.7467 51.4808 30.64 50.9475 30.64C50.4142 30.64 50.0088 30.7573 49.7315 30.992C49.4648 31.216 49.3315 31.5253 49.3315 31.92C49.3315 32.3253 49.4648 32.6187 49.7315 32.8C50.0088 32.9813 50.4035 33.1147 50.9155 33.2L51.5555 33.296C52.4728 33.4347 53.1235 33.7013 53.5075 34.096C53.8915 34.48 54.0835 34.9867 54.0835 35.616C54.0835 36.416 53.8115 37.0453 53.2675 37.504C52.7235 37.9627 51.9768 38.192 51.0275 38.192ZM65.4056 36.656H65.3416C64.8403 37.68 64.035 38.192 62.9256 38.192C62.4136 38.192 61.9496 38.0907 61.5336 37.888C61.1176 37.6853 60.7603 37.3973 60.4616 37.024C60.1736 36.6507 59.9496 36.1973 59.7896 35.664C59.6403 35.1307 59.5656 34.5333 59.5656 33.872C59.5656 33.2107 59.6403 32.6133 59.7896 32.08C59.9496 31.5467 60.1736 31.0933 60.4616 30.72C60.7603 30.3467 61.1176 30.0587 61.5336 29.856C61.9496 29.6533 62.4136 29.552 62.9256 29.552C63.5016 29.552 63.9923 29.68 64.3976 29.936C64.8136 30.1813 65.1283 30.5653 65.3416 31.088H65.4056V26.16H66.6856V38H65.4056V36.656ZM63.2776 37.04C63.5656 37.04 63.8376 37.0027 64.0936 36.928C64.3603 36.8533 64.5896 36.7467 64.7816 36.608C64.9736 36.4587 65.123 36.2827 65.2296 36.08C65.347 35.8667 65.4056 35.6267 65.4056 35.36V32.288C65.4056 32.064 65.347 31.856 65.2296 31.664C65.123 31.4613 64.9736 31.2907 64.7816 31.152C64.5896 31.0133 64.3603 30.9067 64.0936 30.832C63.8376 30.7467 63.5656 30.704 63.2776 30.704C62.5523 30.704 61.9816 30.9333 61.5656 31.392C61.1496 31.84 60.9416 32.432 60.9416 33.168V34.576C60.9416 35.312 61.1496 35.9093 61.5656 36.368C61.9816 36.816 62.5523 37.04 63.2776 37.04ZM74.4949 36.656H74.4309C74.3455 36.848 74.2389 37.04 74.1109 37.232C73.9935 37.4133 73.8442 37.5787 73.6629 37.728C73.4815 37.8667 73.2629 37.9787 73.0069 38.064C72.7509 38.1493 72.4522 38.192 72.1109 38.192C71.2575 38.192 70.5802 37.92 70.0789 37.376C69.5775 36.8213 69.3269 36.0427 69.3269 35.04V29.744H70.6069V34.816C70.6069 36.2987 71.2362 37.04 72.4949 37.04C72.7509 37.04 72.9962 37.008 73.2309 36.944C73.4762 36.88 73.6895 36.784 73.8709 36.656C74.0629 36.528 74.2122 36.368 74.3189 36.176C74.4362 35.9733 74.4949 35.7333 74.4949 35.456V29.744H75.7749V38H74.4949V36.656ZM82.9219 27.808C82.6445 27.808 82.4419 27.744 82.3139 27.616C82.1965 27.4773 82.1379 27.3013 82.1379 27.088V26.88C82.1379 26.6667 82.1965 26.496 82.3139 26.368C82.4419 26.2293 82.6445 26.16 82.9219 26.16C83.1992 26.16 83.3965 26.2293 83.5139 26.368C83.6419 26.496 83.7059 26.6667 83.7059 26.88V27.088C83.7059 27.3013 83.6419 27.4773 83.5139 27.616C83.3965 27.744 83.1992 27.808 82.9219 27.808ZM82.2819 29.744H83.5619V38H82.2819V29.744ZM86.2819 26.16H87.5619V33.664H87.6259L88.8899 32.256L91.2259 29.744H92.7779L89.7219 33.008L93.0819 38H91.5299L88.7939 33.792L87.5619 35.056V38H86.2819V26.16ZM94.7194 26.16H95.9994V33.664H96.0634L97.3274 32.256L99.6634 29.744H101.215L98.1594 33.008L101.519 38H99.9674L97.2314 33.792L95.9994 35.056V38H94.7194V26.16ZM105.995 38.192C105.43 38.192 104.918 38.0907 104.459 37.888C104.011 37.6853 103.622 37.3973 103.291 37.024C102.971 36.64 102.721 36.1867 102.539 35.664C102.369 35.1307 102.283 34.5333 102.283 33.872C102.283 33.2213 102.369 32.6293 102.539 32.096C102.721 31.5627 102.971 31.1093 103.291 30.736C103.622 30.352 104.011 30.0587 104.459 29.856C104.918 29.6533 105.43 29.552 105.995 29.552C106.55 29.552 107.046 29.6533 107.483 29.856C107.921 30.0587 108.294 30.3413 108.603 30.704C108.913 31.056 109.147 31.4773 109.307 31.968C109.478 32.4587 109.563 32.9973 109.563 33.584V34.192H103.627V34.576C103.627 34.928 103.681 35.2587 103.787 35.568C103.905 35.8667 104.065 36.128 104.267 36.352C104.481 36.576 104.737 36.752 105.035 36.88C105.345 37.008 105.691 37.072 106.075 37.072C106.598 37.072 107.051 36.9493 107.435 36.704C107.83 36.4587 108.134 36.1067 108.347 35.648L109.259 36.304C108.993 36.8693 108.577 37.328 108.011 37.68C107.446 38.0213 106.774 38.192 105.995 38.192ZM105.995 30.624C105.643 30.624 105.323 30.688 105.035 30.816C104.747 30.9333 104.497 31.104 104.283 31.328C104.081 31.552 103.921 31.8187 103.803 32.128C103.686 32.4267 103.627 32.7573 103.627 33.12V33.232H108.187V33.056C108.187 32.32 107.985 31.7333 107.579 31.296C107.185 30.848 106.657 30.624 105.995 30.624ZM115.454 26.16H116.734V33.664H116.798L118.062 32.256L120.398 29.744H121.95L118.894 33.008L122.254 38H120.702L117.966 33.792L116.734 35.056V38H115.454V26.16ZM126.73 38.192C126.164 38.192 125.652 38.0907 125.194 37.888C124.746 37.6853 124.356 37.3973 124.026 37.024C123.706 36.64 123.455 36.1867 123.274 35.664C123.103 35.1307 123.018 34.5333 123.018 33.872C123.018 33.2213 123.103 32.6293 123.274 32.096C123.455 31.5627 123.706 31.1093 124.026 30.736C124.356 30.352 124.746 30.0587 125.194 29.856C125.652 29.6533 126.164 29.552 126.73 29.552C127.284 29.552 127.78 29.6533 128.218 29.856C128.655 30.0587 129.028 30.3413 129.338 30.704C129.647 31.056 129.882 31.4773 130.042 31.968C130.212 32.4587 130.298 32.9973 130.298 33.584V34.192H124.362V34.576C124.362 34.928 124.415 35.2587 124.522 35.568C124.639 35.8667 124.799 36.128 125.002 36.352C125.215 36.576 125.471 36.752 125.77 36.88C126.079 37.008 126.426 37.072 126.81 37.072C127.332 37.072 127.786 36.9493 128.17 36.704C128.564 36.4587 128.868 36.1067 129.082 35.648L129.994 36.304C129.727 36.8693 129.311 37.328 128.746 37.68C128.18 38.0213 127.508 38.192 126.73 38.192ZM126.73 30.624C126.378 30.624 126.058 30.688 125.77 30.816C125.482 30.9333 125.231 31.104 125.018 31.328C124.815 31.552 124.655 31.8187 124.538 32.128C124.42 32.4267 124.362 32.7573 124.362 33.12V33.232H128.922V33.056C128.922 32.32 128.719 31.7333 128.314 31.296C127.919 30.848 127.391 30.624 126.73 30.624ZM132.407 38V29.744H133.687V31.088H133.751C133.954 30.6187 134.236 30.2453 134.599 29.968C134.972 29.6907 135.468 29.552 136.087 29.552C136.94 29.552 137.612 29.8293 138.103 30.384C138.604 30.928 138.855 31.7013 138.855 32.704V38H137.575V32.928C137.575 31.4453 136.951 30.704 135.703 30.704C135.447 30.704 135.196 30.736 134.951 30.8C134.716 30.864 134.503 30.96 134.311 31.088C134.119 31.216 133.964 31.3813 133.847 31.584C133.74 31.776 133.687 32.0053 133.687 32.272V38H132.407ZM146.781 36.656H146.717C146.215 37.68 145.41 38.192 144.301 38.192C143.789 38.192 143.325 38.0907 142.909 37.888C142.493 37.6853 142.135 37.3973 141.837 37.024C141.549 36.6507 141.325 36.1973 141.165 35.664C141.015 35.1307 140.941 34.5333 140.941 33.872C140.941 33.2107 141.015 32.6133 141.165 32.08C141.325 31.5467 141.549 31.0933 141.837 30.72C142.135 30.3467 142.493 30.0587 142.909 29.856C143.325 29.6533 143.789 29.552 144.301 29.552C144.877 29.552 145.367 29.68 145.773 29.936C146.189 30.1813 146.503 30.5653 146.717 31.088H146.781V26.16H148.061V38H146.781V36.656ZM144.653 37.04C144.941 37.04 145.213 37.0027 145.469 36.928C145.735 36.8533 145.965 36.7467 146.157 36.608C146.349 36.4587 146.498 36.2827 146.605 36.08C146.722 35.8667 146.781 35.6267 146.781 35.36V32.288C146.781 32.064 146.722 31.856 146.605 31.664C146.498 31.4613 146.349 31.2907 146.157 31.152C145.965 31.0133 145.735 30.9067 145.469 30.832C145.213 30.7467 144.941 30.704 144.653 30.704C143.927 30.704 143.357 30.9333 142.941 31.392C142.525 31.84 142.317 32.432 142.317 33.168V34.576C142.317 35.312 142.525 35.9093 142.941 36.368C143.357 36.816 143.927 37.04 144.653 37.04ZM153.886 38.192C153.321 38.192 152.809 38.0907 152.35 37.888C151.902 37.6853 151.513 37.3973 151.182 37.024C150.862 36.64 150.611 36.1867 150.43 35.664C150.259 35.1307 150.174 34.5333 150.174 33.872C150.174 33.2213 150.259 32.6293 150.43 32.096C150.611 31.5627 150.862 31.1093 151.182 30.736C151.513 30.352 151.902 30.0587 152.35 29.856C152.809 29.6533 153.321 29.552 153.886 29.552C154.441 29.552 154.937 29.6533 155.374 29.856C155.811 30.0587 156.185 30.3413 156.494 30.704C156.803 31.056 157.038 31.4773 157.198 31.968C157.369 32.4587 157.454 32.9973 157.454 33.584V34.192H151.518V34.576C151.518 34.928 151.571 35.2587 151.678 35.568C151.795 35.8667 151.955 36.128 152.158 36.352C152.371 36.576 152.627 36.752 152.926 36.88C153.235 37.008 153.582 37.072 153.966 37.072C154.489 37.072 154.942 36.9493 155.326 36.704C155.721 36.4587 156.025 36.1067 156.238 35.648L157.15 36.304C156.883 36.8693 156.467 37.328 155.902 37.68C155.337 38.0213 154.665 38.192 153.886 38.192ZM153.886 30.624C153.534 30.624 153.214 30.688 152.926 30.816C152.638 30.9333 152.387 31.104 152.174 31.328C151.971 31.552 151.811 31.8187 151.694 32.128C151.577 32.4267 151.518 32.7573 151.518 33.12V33.232H156.078V33.056C156.078 32.32 155.875 31.7333 155.47 31.296C155.075 30.848 154.547 30.624 153.886 30.624ZM159.563 38V29.744H160.843V31.264H160.923C161.072 30.8693 161.339 30.5173 161.723 30.208C162.107 29.8987 162.635 29.744 163.307 29.744H163.803V31.024H163.051C162.358 31.024 161.814 31.1573 161.419 31.424C161.035 31.68 160.843 32.0053 160.843 32.4V38H159.563ZM174.499 36.656H174.435C173.934 37.68 173.129 38.192 172.019 38.192C171.507 38.192 171.043 38.0907 170.627 37.888C170.211 37.6853 169.854 37.3973 169.555 37.024C169.267 36.6507 169.043 36.1973 168.883 35.664C168.734 35.1307 168.659 34.5333 168.659 33.872C168.659 33.2107 168.734 32.6133 168.883 32.08C169.043 31.5467 169.267 31.0933 169.555 30.72C169.854 30.3467 170.211 30.0587 170.627 29.856C171.043 29.6533 171.507 29.552 172.019 29.552C172.595 29.552 173.086 29.68 173.491 29.936C173.907 30.1813 174.222 30.5653 174.435 31.088H174.499V26.16H175.779V38H174.499V36.656ZM172.371 37.04C172.659 37.04 172.931 37.0027 173.187 36.928C173.454 36.8533 173.683 36.7467 173.875 36.608C174.067 36.4587 174.217 36.2827 174.323 36.08C174.441 35.8667 174.499 35.6267 174.499 35.36V32.288C174.499 32.064 174.441 31.856 174.323 31.664C174.217 31.4613 174.067 31.2907 173.875 31.152C173.683 31.0133 173.454 30.9067 173.187 30.832C172.931 30.7467 172.659 30.704 172.371 30.704C171.646 30.704 171.075 30.9333 170.659 31.392C170.243 31.84 170.035 32.432 170.035 33.168V34.576C170.035 35.312 170.243 35.9093 170.659 36.368C171.075 36.816 171.646 37.04 172.371 37.04ZM179.141 27.808C178.863 27.808 178.661 27.744 178.533 27.616C178.415 27.4773 178.357 27.3013 178.357 27.088V26.88C178.357 26.6667 178.415 26.496 178.533 26.368C178.661 26.2293 178.863 26.16 179.141 26.16C179.418 26.16 179.615 26.2293 179.733 26.368C179.861 26.496 179.925 26.6667 179.925 26.88V27.088C179.925 27.3013 179.861 27.4773 179.733 27.616C179.615 27.744 179.418 27.808 179.141 27.808ZM178.501 29.744H179.781V38H178.501V29.744ZM184.325 38C183.877 38 183.535 37.8773 183.301 37.632C183.077 37.376 182.965 37.0453 182.965 36.64V30.864H181.605V29.744H182.373C182.65 29.744 182.837 29.6907 182.933 29.584C183.039 29.4667 183.093 29.2693 183.093 28.992V27.456H184.245V29.744H186.053V30.864H184.245V36.88H185.925V38H184.325ZM194.371 38.192C193.603 38.192 192.958 38.048 192.435 37.76C191.923 37.4613 191.481 37.0667 191.107 36.576L192.019 35.84C192.339 36.2453 192.697 36.56 193.091 36.784C193.486 36.9973 193.945 37.104 194.467 37.104C195.011 37.104 195.433 36.9867 195.731 36.752C196.041 36.5173 196.195 36.1867 196.195 35.76C196.195 35.44 196.089 35.168 195.875 34.944C195.673 34.7093 195.299 34.5493 194.755 34.464L194.099 34.368C193.715 34.3147 193.363 34.2347 193.043 34.128C192.723 34.0107 192.441 33.8613 192.195 33.68C191.961 33.488 191.774 33.2533 191.635 32.976C191.507 32.6987 191.443 32.368 191.443 31.984C191.443 31.5787 191.518 31.2267 191.667 30.928C191.817 30.6187 192.019 30.3627 192.275 30.16C192.542 29.9573 192.857 29.808 193.219 29.712C193.582 29.6053 193.971 29.552 194.387 29.552C195.059 29.552 195.619 29.6693 196.067 29.904C196.526 30.1387 196.926 30.464 197.267 30.88L196.419 31.648C196.238 31.392 195.971 31.1627 195.619 30.96C195.267 30.7467 194.825 30.64 194.291 30.64C193.758 30.64 193.353 30.7573 193.075 30.992C192.809 31.216 192.675 31.5253 192.675 31.92C192.675 32.3253 192.809 32.6187 193.075 32.8C193.353 32.9813 193.747 33.1147 194.259 33.2L194.899 33.296C195.817 33.4347 196.467 33.7013 196.851 34.096C197.235 34.48 197.427 34.9867 197.427 35.616C197.427 36.416 197.155 37.0453 196.611 37.504C196.067 37.9627 195.321 38.192 194.371 38.192ZM205.688 38C205.208 38 204.861 37.872 204.648 37.616C204.445 37.36 204.317 37.04 204.264 36.656H204.184C204.003 37.168 203.704 37.552 203.288 37.808C202.872 38.064 202.376 38.192 201.8 38.192C200.925 38.192 200.243 37.968 199.752 37.52C199.272 37.072 199.032 36.464 199.032 35.696C199.032 34.9173 199.315 34.32 199.88 33.904C200.456 33.488 201.347 33.28 202.552 33.28H204.184V32.464C204.184 31.8773 204.024 31.4293 203.704 31.12C203.384 30.8107 202.893 30.656 202.232 30.656C201.731 30.656 201.309 30.768 200.968 30.992C200.637 31.216 200.36 31.5147 200.136 31.888L199.368 31.168C199.592 30.72 199.949 30.3413 200.44 30.032C200.931 29.712 201.549 29.552 202.296 29.552C203.299 29.552 204.077 29.7973 204.632 30.288C205.187 30.7787 205.464 31.4613 205.464 32.336V36.88H206.408V38H205.688ZM202.008 37.104C202.328 37.104 202.621 37.0667 202.888 36.992C203.155 36.9173 203.384 36.8107 203.576 36.672C203.768 36.5333 203.917 36.3733 204.024 36.192C204.131 36.0107 204.184 35.8133 204.184 35.6V34.24H202.488C201.752 34.24 201.213 34.3467 200.872 34.56C200.541 34.7733 200.376 35.0827 200.376 35.488V35.824C200.376 36.2293 200.52 36.544 200.808 36.768C201.107 36.992 201.507 37.104 202.008 37.104ZM215.195 38.912C215.195 39.7653 214.859 40.3893 214.187 40.784C213.526 41.1893 212.528 41.392 211.195 41.392C209.904 41.392 208.976 41.216 208.411 40.864C207.846 40.512 207.563 40.0107 207.563 39.36C207.563 38.912 207.68 38.56 207.915 38.304C208.15 38.0587 208.47 37.8773 208.875 37.76V37.584C208.384 37.3493 208.139 36.9653 208.139 36.432C208.139 36.016 208.272 35.7013 208.539 35.488C208.806 35.264 209.147 35.0987 209.563 34.992V34.928C209.072 34.6933 208.688 34.3573 208.411 33.92C208.144 33.4827 208.011 32.976 208.011 32.4C208.011 31.984 208.086 31.6 208.235 31.248C208.384 30.896 208.592 30.5973 208.859 30.352C209.136 30.096 209.462 29.8987 209.835 29.76C210.219 29.6213 210.646 29.552 211.115 29.552C211.702 29.552 212.224 29.6587 212.683 29.872V29.728C212.683 29.408 212.758 29.1467 212.907 28.944C213.056 28.7307 213.302 28.624 213.643 28.624H214.875V29.744H213.307V30.272C213.606 30.528 213.835 30.8373 213.995 31.2C214.166 31.552 214.251 31.952 214.251 32.4C214.251 32.816 214.176 33.2 214.027 33.552C213.878 33.904 213.664 34.208 213.387 34.464C213.12 34.7093 212.795 34.9013 212.411 35.04C212.027 35.1787 211.6 35.248 211.131 35.248C210.864 35.248 210.598 35.2213 210.331 35.168C210.054 35.2427 209.803 35.3547 209.579 35.504C209.355 35.6427 209.243 35.84 209.243 36.096C209.243 36.3413 209.36 36.5067 209.595 36.592C209.83 36.6773 210.134 36.72 210.507 36.72H212.267C213.291 36.72 214.032 36.9173 214.491 37.312C214.96 37.696 215.195 38.2293 215.195 38.912ZM213.995 39.008C213.995 38.6773 213.867 38.4107 213.611 38.208C213.366 38.016 212.923 37.92 212.283 37.92H209.531C209.019 38.1547 208.763 38.528 208.763 39.04C208.763 39.4027 208.896 39.712 209.163 39.968C209.44 40.224 209.904 40.352 210.555 40.352H211.739C212.454 40.352 213.008 40.24 213.403 40.016C213.798 39.792 213.995 39.456 213.995 39.008ZM211.131 34.224C211.675 34.224 212.107 34.096 212.427 33.84C212.747 33.5733 212.907 33.168 212.907 32.624V32.176C212.907 31.632 212.747 31.232 212.427 30.976C212.107 30.7093 211.675 30.576 211.131 30.576C210.587 30.576 210.155 30.7093 209.835 30.976C209.515 31.232 209.355 31.632 209.355 32.176V32.624C209.355 33.168 209.515 33.5733 209.835 33.84C210.155 34.096 210.587 34.224 211.131 34.224ZM219.168 38.192C218.4 38.192 217.755 38.048 217.232 37.76C216.72 37.4613 216.277 37.0667 215.904 36.576L216.816 35.84C217.136 36.2453 217.493 36.56 217.888 36.784C218.283 36.9973 218.741 37.104 219.264 37.104C219.808 37.104 220.229 36.9867 220.528 36.752C220.837 36.5173 220.992 36.1867 220.992 35.76C220.992 35.44 220.885 35.168 220.672 34.944C220.469 34.7093 220.096 34.5493 219.552 34.464L218.896 34.368C218.512 34.3147 218.16 34.2347 217.84 34.128C217.52 34.0107 217.237 33.8613 216.992 33.68C216.757 33.488 216.571 33.2533 216.432 32.976C216.304 32.6987 216.24 32.368 216.24 31.984C216.24 31.5787 216.315 31.2267 216.464 30.928C216.613 30.6187 216.816 30.3627 217.072 30.16C217.339 29.9573 217.653 29.808 218.016 29.712C218.379 29.6053 218.768 29.552 219.184 29.552C219.856 29.552 220.416 29.6693 220.864 29.904C221.323 30.1387 221.723 30.464 222.064 30.88L221.216 31.648C221.035 31.392 220.768 31.1627 220.416 30.96C220.064 30.7467 219.621 30.64 219.088 30.64C218.555 30.64 218.149 30.7573 217.872 30.992C217.605 31.216 217.472 31.5253 217.472 31.92C217.472 32.3253 217.605 32.6187 217.872 32.8C218.149 32.9813 218.544 33.1147 219.056 33.2L219.696 33.296C220.613 33.4347 221.264 33.7013 221.648 34.096C222.032 34.48 222.224 34.9867 222.224 35.616C222.224 36.416 221.952 37.0453 221.408 37.504C220.864 37.9627 220.117 38.192 219.168 38.192ZM224.485 38V29.744H225.765V31.088H225.829C226.032 30.6187 226.314 30.2453 226.677 29.968C227.05 29.6907 227.546 29.552 228.165 29.552C229.018 29.552 229.69 29.8293 230.181 30.384C230.682 30.928 230.933 31.7013 230.933 32.704V38H229.653V32.928C229.653 31.4453 229.029 30.704 227.781 30.704C227.525 30.704 227.274 30.736 227.029 30.8C226.794 30.864 226.581 30.96 226.389 31.088C226.197 31.216 226.042 31.3813 225.925 31.584C225.818 31.776 225.765 32.0053 225.765 32.272V38H224.485ZM238.667 36.656H238.603C238.517 36.848 238.411 37.04 238.283 37.232C238.165 37.4133 238.016 37.5787 237.835 37.728C237.653 37.8667 237.435 37.9787 237.179 38.064C236.923 38.1493 236.624 38.192 236.283 38.192C235.429 38.192 234.752 37.92 234.251 37.376C233.749 36.8213 233.499 36.0427 233.499 35.04V29.744H234.779V34.816C234.779 36.2987 235.408 37.04 236.667 37.04C236.923 37.04 237.168 37.008 237.403 36.944C237.648 36.88 237.861 36.784 238.043 36.656C238.235 36.528 238.384 36.368 238.491 36.176C238.608 35.9733 238.667 35.7333 238.667 35.456V29.744H239.947V38H238.667V36.656ZM242.673 38V29.744H243.953V31.088H244.017C244.113 30.8747 244.219 30.6773 244.337 30.496C244.465 30.304 244.614 30.1387 244.785 30C244.966 29.8613 245.174 29.7547 245.409 29.68C245.643 29.5947 245.921 29.552 246.241 29.552C246.785 29.552 247.286 29.6853 247.745 29.952C248.203 30.208 248.545 30.6347 248.769 31.232H248.801C248.95 30.784 249.227 30.3947 249.633 30.064C250.049 29.7227 250.609 29.552 251.312 29.552C252.155 29.552 252.811 29.8293 253.281 30.384C253.761 30.928 254.001 31.7013 254.001 32.704V38H252.721V32.928C252.721 32.192 252.577 31.6373 252.289 31.264C252.001 30.8907 251.542 30.704 250.913 30.704C250.657 30.704 250.411 30.736 250.177 30.8C249.953 30.864 249.75 30.96 249.569 31.088C249.387 31.216 249.243 31.3813 249.137 31.584C249.03 31.776 248.977 32.0053 248.977 32.272V38H247.697V32.928C247.697 32.192 247.553 31.6373 247.265 31.264C246.977 30.8907 246.529 30.704 245.921 30.704C245.665 30.704 245.419 30.736 245.185 30.8C244.95 30.864 244.742 30.96 244.561 31.088C244.379 31.216 244.23 31.3813 244.113 31.584C244.006 31.776 243.953 32.0053 243.953 32.272V38H242.673ZM256.641 38V29.744H257.921V31.088H257.985C258.081 30.8747 258.188 30.6773 258.305 30.496C258.433 30.304 258.583 30.1387 258.753 30C258.935 29.8613 259.143 29.7547 259.377 29.68C259.612 29.5947 259.889 29.552 260.209 29.552C260.753 29.552 261.255 29.6853 261.713 29.952C262.172 30.208 262.513 30.6347 262.737 31.232H262.769C262.919 30.784 263.196 30.3947 263.601 30.064C264.017 29.7227 264.577 29.552 265.281 29.552C266.124 29.552 266.78 29.8293 267.249 30.384C267.729 30.928 267.969 31.7013 267.969 32.704V38H266.689V32.928C266.689 32.192 266.545 31.6373 266.257 31.264C265.969 30.8907 265.511 30.704 264.881 30.704C264.625 30.704 264.38 30.736 264.145 30.8C263.921 30.864 263.719 30.96 263.537 31.088C263.356 31.216 263.212 31.3813 263.105 31.584C262.999 31.776 262.945 32.0053 262.945 32.272V38H261.665V32.928C261.665 32.192 261.521 31.6373 261.233 31.264C260.945 30.8907 260.497 30.704 259.889 30.704C259.633 30.704 259.388 30.736 259.153 30.8C258.919 30.864 258.711 30.96 258.529 31.088C258.348 31.216 258.199 31.3813 258.081 31.584C257.975 31.776 257.921 32.0053 257.921 32.272V38H256.641ZM273.714 38.192C273.149 38.192 272.637 38.0907 272.178 37.888C271.73 37.6853 271.341 37.3973 271.01 37.024C270.69 36.64 270.439 36.1867 270.258 35.664C270.087 35.1307 270.002 34.5333 270.002 33.872C270.002 33.2213 270.087 32.6293 270.258 32.096C270.439 31.5627 270.69 31.1093 271.01 30.736C271.341 30.352 271.73 30.0587 272.178 29.856C272.637 29.6533 273.149 29.552 273.714 29.552C274.269 29.552 274.765 29.6533 275.202 29.856C275.639 30.0587 276.013 30.3413 276.322 30.704C276.631 31.056 276.866 31.4773 277.026 31.968C277.197 32.4587 277.282 32.9973 277.282 33.584V34.192H271.346V34.576C271.346 34.928 271.399 35.2587 271.506 35.568C271.623 35.8667 271.783 36.128 271.986 36.352C272.199 36.576 272.455 36.752 272.754 36.88C273.063 37.008 273.41 37.072 273.794 37.072C274.317 37.072 274.77 36.9493 275.154 36.704C275.549 36.4587 275.853 36.1067 276.066 35.648L276.978 36.304C276.711 36.8693 276.295 37.328 275.73 37.68C275.165 38.0213 274.493 38.192 273.714 38.192ZM273.714 30.624C273.362 30.624 273.042 30.688 272.754 30.816C272.466 30.9333 272.215 31.104 272.002 31.328C271.799 31.552 271.639 31.8187 271.522 32.128C271.405 32.4267 271.346 32.7573 271.346 33.12V33.232H275.906V33.056C275.906 32.32 275.703 31.7333 275.298 31.296C274.903 30.848 274.375 30.624 273.714 30.624ZM279.391 38V29.744H280.671V31.264H280.751C280.901 30.8693 281.167 30.5173 281.551 30.208C281.935 29.8987 282.463 29.744 283.135 29.744H283.631V31.024H282.879C282.186 31.024 281.642 31.1573 281.247 31.424C280.863 31.68 280.671 32.0053 280.671 32.4V38H279.391ZM284.801 36.128C285.142 36.128 285.388 36.2187 285.537 36.4C285.697 36.5707 285.777 36.7947 285.777 37.072V37.296C285.777 37.7333 285.649 38.2133 285.393 38.736C285.137 39.2693 284.78 39.7333 284.321 40.128H283.249C283.569 39.7867 283.825 39.4613 284.017 39.152C284.22 38.8533 284.364 38.5173 284.449 38.144C284.236 38.0907 284.076 37.9893 283.969 37.84C283.873 37.6907 283.825 37.5093 283.825 37.296V37.072C283.825 36.7947 283.9 36.5707 284.049 36.4C284.209 36.2187 284.46 36.128 284.801 36.128ZM25.36 50.16H26.64V57.664H26.704L27.968 56.256L30.304 53.744H31.856L28.8 57.008L32.16 62H30.608L27.872 57.792L26.64 59.056V62H25.36V50.16ZM39.7194 62C39.2394 62 38.8927 61.872 38.6794 61.616C38.4767 61.36 38.3487 61.04 38.2954 60.656H38.2154C38.034 61.168 37.7354 61.552 37.3194 61.808C36.9034 62.064 36.4074 62.192 35.8314 62.192C34.9567 62.192 34.274 61.968 33.7834 61.52C33.3034 61.072 33.0634 60.464 33.0634 59.696C33.0634 58.9173 33.346 58.32 33.9114 57.904C34.4874 57.488 35.378 57.28 36.5834 57.28H38.2154V56.464C38.2154 55.8773 38.0554 55.4293 37.7354 55.12C37.4154 54.8107 36.9247 54.656 36.2634 54.656C35.762 54.656 35.3407 54.768 34.9994 54.992C34.6687 55.216 34.3914 55.5147 34.1674 55.888L33.3994 55.168C33.6234 54.72 33.9807 54.3413 34.4714 54.032C34.962 53.712 35.5807 53.552 36.3274 53.552C37.33 53.552 38.1087 53.7973 38.6634 54.288C39.218 54.7787 39.4954 55.4613 39.4954 56.336V60.88H40.4394V62H39.7194ZM36.0394 61.104C36.3594 61.104 36.6527 61.0667 36.9194 60.992C37.186 60.9173 37.4154 60.8107 37.6074 60.672C37.7994 60.5333 37.9487 60.3733 38.0554 60.192C38.162 60.0107 38.2154 59.8133 38.2154 59.6V58.24H36.5194C35.7834 58.24 35.2447 58.3467 34.9034 58.56C34.5727 58.7733 34.4074 59.0827 34.4074 59.488V59.824C34.4074 60.2293 34.5514 60.544 34.8394 60.768C35.138 60.992 35.538 61.104 36.0394 61.104ZM42.2663 62V53.744H43.5463V55.088H43.6103C43.8129 54.6187 44.0956 54.2453 44.4583 53.968C44.8316 53.6907 45.3276 53.552 45.9463 53.552C46.7996 53.552 47.4716 53.8293 47.9623 54.384C48.4636 54.928 48.7143 55.7013 48.7143 56.704V62H47.4343V56.928C47.4343 55.4453 46.8103 54.704 45.5623 54.704C45.3063 54.704 45.0556 54.736 44.8103 54.8C44.5756 54.864 44.3623 54.96 44.1703 55.088C43.9783 55.216 43.8236 55.3813 43.7063 55.584C43.5996 55.776 43.5463 56.0053 43.5463 56.272V62H42.2663ZM60.4213 60.656H60.3573C59.8559 61.68 59.0506 62.192 57.9413 62.192C57.4293 62.192 56.9653 62.0907 56.5493 61.888C56.1333 61.6853 55.7759 61.3973 55.4773 61.024C55.1893 60.6507 54.9653 60.1973 54.8053 59.664C54.6559 59.1307 54.5813 58.5333 54.5813 57.872C54.5813 57.2107 54.6559 56.6133 54.8053 56.08C54.9653 55.5467 55.1893 55.0933 55.4773 54.72C55.7759 54.3467 56.1333 54.0587 56.5493 53.856C56.9653 53.6533 57.4293 53.552 57.9413 53.552C58.5173 53.552 59.0079 53.68 59.4133 53.936C59.8293 54.1813 60.1439 54.5653 60.3573 55.088H60.4213V50.16H61.7013V62H60.4213V60.656ZM58.2933 61.04C58.5813 61.04 58.8533 61.0027 59.1093 60.928C59.3759 60.8533 59.6053 60.7467 59.7973 60.608C59.9893 60.4587 60.1386 60.2827 60.2453 60.08C60.3626 59.8667 60.4213 59.6267 60.4213 59.36V56.288C60.4213 56.064 60.3626 55.856 60.2453 55.664C60.1386 55.4613 59.9893 55.2907 59.7973 55.152C59.6053 55.0133 59.3759 54.9067 59.1093 54.832C58.8533 54.7467 58.5813 54.704 58.2933 54.704C57.5679 54.704 56.9973 54.9333 56.5813 55.392C56.1653 55.84 55.9573 56.432 55.9573 57.168V58.576C55.9573 59.312 56.1653 59.9093 56.5813 60.368C56.9973 60.816 57.5679 61.04 58.2933 61.04ZM69.5105 60.656H69.4465C69.3612 60.848 69.2545 61.04 69.1265 61.232C69.0092 61.4133 68.8598 61.5787 68.6785 61.728C68.4972 61.8667 68.2785 61.9787 68.0225 62.064C67.7665 62.1493 67.4678 62.192 67.1265 62.192C66.2732 62.192 65.5958 61.92 65.0945 61.376C64.5932 60.8213 64.3425 60.0427 64.3425 59.04V53.744H65.6225V58.816C65.6225 60.2987 66.2518 61.04 67.5105 61.04C67.7665 61.04 68.0118 61.008 68.2465 60.944C68.4918 60.88 68.7052 60.784 68.8865 60.656C69.0785 60.528 69.2278 60.368 69.3345 60.176C69.4518 59.9733 69.5105 59.7333 69.5105 59.456V53.744H70.7905V62H69.5105V60.656ZM77.7455 54.864H76.4015V53.744H77.7455V52.08C77.7455 51.504 77.8948 51.04 78.1935 50.688C78.4922 50.336 78.9455 50.16 79.5535 50.16H80.8015V51.28H79.0255V53.744H83.6495V62H82.3695V54.864H79.0255V62H77.7455V54.864ZM83.0095 51.808C82.7322 51.808 82.5295 51.744 82.4015 51.616C82.2842 51.4773 82.2255 51.3013 82.2255 51.088V50.88C82.2255 50.6667 82.2842 50.496 82.4015 50.368C82.5295 50.2293 82.7322 50.16 83.0095 50.16C83.2868 50.16 83.4842 50.2293 83.6015 50.368C83.7295 50.496 83.7935 50.6667 83.7935 50.88V51.088C83.7935 51.3013 83.7295 51.4773 83.6015 51.616C83.4842 51.744 83.2868 51.808 83.0095 51.808ZM86.3756 62V53.744H87.6556V55.088H87.7196C87.9223 54.6187 88.205 54.2453 88.5676 53.968C88.941 53.6907 89.437 53.552 90.0556 53.552C90.909 53.552 91.581 53.8293 92.0716 54.384C92.573 54.928 92.8236 55.7013 92.8236 56.704V62H91.5436V56.928C91.5436 55.4453 90.9196 54.704 89.6716 54.704C89.4156 54.704 89.165 54.736 88.9196 54.8C88.685 54.864 88.4716 54.96 88.2796 55.088C88.0876 55.216 87.933 55.3813 87.8156 55.584C87.709 55.776 87.6556 56.0053 87.6556 56.272V62H86.3756ZM100.749 60.656H100.685C100.184 61.68 99.3787 62.192 98.2694 62.192C97.7574 62.192 97.2934 62.0907 96.8774 61.888C96.4614 61.6853 96.104 61.3973 95.8054 61.024C95.5174 60.6507 95.2934 60.1973 95.1334 59.664C94.984 59.1307 94.9094 58.5333 94.9094 57.872C94.9094 57.2107 94.984 56.6133 95.1334 56.08C95.2934 55.5467 95.5174 55.0933 95.8054 54.72C96.104 54.3467 96.4614 54.0587 96.8774 53.856C97.2934 53.6533 97.7574 53.552 98.2694 53.552C98.8454 53.552 99.336 53.68 99.7414 53.936C100.157 54.1813 100.472 54.5653 100.685 55.088H100.749V50.16H102.029V62H100.749V60.656ZM98.6214 61.04C98.9094 61.04 99.1814 61.0027 99.4374 60.928C99.704 60.8533 99.9334 60.7467 100.125 60.608C100.317 60.4587 100.467 60.2827 100.573 60.08C100.691 59.8667 100.749 59.6267 100.749 59.36V56.288C100.749 56.064 100.691 55.856 100.573 55.664C100.467 55.4613 100.317 55.2907 100.125 55.152C99.9334 55.0133 99.704 54.9067 99.4374 54.832C99.1814 54.7467 98.9094 54.704 98.6214 54.704C97.896 54.704 97.3254 54.9333 96.9094 55.392C96.4934 55.84 96.2854 56.432 96.2854 57.168V58.576C96.2854 59.312 96.4934 59.9093 96.9094 60.368C97.3254 60.816 97.896 61.04 98.6214 61.04ZM107.855 62.192C107.289 62.192 106.777 62.0907 106.319 61.888C105.871 61.6853 105.481 61.3973 105.151 61.024C104.831 60.64 104.58 60.1867 104.399 59.664C104.228 59.1307 104.143 58.5333 104.143 57.872C104.143 57.2213 104.228 56.6293 104.399 56.096C104.58 55.5627 104.831 55.1093 105.151 54.736C105.481 54.352 105.871 54.0587 106.319 53.856C106.777 53.6533 107.289 53.552 107.855 53.552C108.409 53.552 108.905 53.6533 109.343 53.856C109.78 54.0587 110.153 54.3413 110.463 54.704C110.772 55.056 111.007 55.4773 111.167 55.968C111.337 56.4587 111.423 56.9973 111.423 57.584V58.192H105.487V58.576C105.487 58.928 105.54 59.2587 105.647 59.568C105.764 59.8667 105.924 60.128 106.127 60.352C106.34 60.576 106.596 60.752 106.895 60.88C107.204 61.008 107.551 61.072 107.935 61.072C108.457 61.072 108.911 60.9493 109.295 60.704C109.689 60.4587 109.993 60.1067 110.207 59.648L111.119 60.304C110.852 60.8693 110.436 61.328 109.871 61.68C109.305 62.0213 108.633 62.192 107.855 62.192ZM107.855 54.624C107.503 54.624 107.183 54.688 106.895 54.816C106.607 54.9333 106.356 55.104 106.143 55.328C105.94 55.552 105.78 55.8187 105.663 56.128C105.545 56.4267 105.487 56.7573 105.487 57.12V57.232H110.047V57.056C110.047 56.32 109.844 55.7333 109.439 55.296C109.044 54.848 108.516 54.624 107.855 54.624ZM122.593 60.656H122.529C122.028 61.68 121.222 62.192 120.113 62.192C119.601 62.192 119.137 62.0907 118.721 61.888C118.305 61.6853 117.948 61.3973 117.649 61.024C117.361 60.6507 117.137 60.1973 116.977 59.664C116.828 59.1307 116.753 58.5333 116.753 57.872C116.753 57.2107 116.828 56.6133 116.977 56.08C117.137 55.5467 117.361 55.0933 117.649 54.72C117.948 54.3467 118.305 54.0587 118.721 53.856C119.137 53.6533 119.601 53.552 120.113 53.552C120.689 53.552 121.18 53.68 121.585 53.936C122.001 54.1813 122.316 54.5653 122.529 55.088H122.593V50.16H123.873V62H122.593V60.656ZM120.465 61.04C120.753 61.04 121.025 61.0027 121.281 60.928C121.548 60.8533 121.777 60.7467 121.969 60.608C122.161 60.4587 122.31 60.2827 122.417 60.08C122.534 59.8667 122.593 59.6267 122.593 59.36V56.288C122.593 56.064 122.534 55.856 122.417 55.664C122.31 55.4613 122.161 55.2907 121.969 55.152C121.777 55.0133 121.548 54.9067 121.281 54.832C121.025 54.7467 120.753 54.704 120.465 54.704C119.74 54.704 119.169 54.9333 118.753 55.392C118.337 55.84 118.129 56.432 118.129 57.168V58.576C118.129 59.312 118.337 59.9093 118.753 60.368C119.169 60.816 119.74 61.04 120.465 61.04ZM129.698 62.192C129.133 62.192 128.621 62.0907 128.162 61.888C127.714 61.6853 127.325 61.3973 126.994 61.024C126.674 60.64 126.424 60.1867 126.242 59.664C126.072 59.1307 125.986 58.5333 125.986 57.872C125.986 57.2213 126.072 56.6293 126.242 56.096C126.424 55.5627 126.674 55.1093 126.994 54.736C127.325 54.352 127.714 54.0587 128.162 53.856C128.621 53.6533 129.133 53.552 129.698 53.552C130.253 53.552 130.749 53.6533 131.186 53.856C131.624 54.0587 131.997 54.3413 132.306 54.704C132.616 55.056 132.85 55.4773 133.01 55.968C133.181 56.4587 133.266 56.9973 133.266 57.584V58.192H127.33V58.576C127.33 58.928 127.384 59.2587 127.49 59.568C127.608 59.8667 127.768 60.128 127.97 60.352C128.184 60.576 128.44 60.752 128.738 60.88C129.048 61.008 129.394 61.072 129.778 61.072C130.301 61.072 130.754 60.9493 131.138 60.704C131.533 60.4587 131.837 60.1067 132.05 59.648L132.962 60.304C132.696 60.8693 132.28 61.328 131.714 61.68C131.149 62.0213 130.477 62.192 129.698 62.192ZM129.698 54.624C129.346 54.624 129.026 54.688 128.738 54.816C128.45 54.9333 128.2 55.104 127.986 55.328C127.784 55.552 127.624 55.8187 127.506 56.128C127.389 56.4267 127.33 56.7573 127.33 57.12V57.232H131.89V57.056C131.89 56.32 131.688 55.7333 131.282 55.296C130.888 54.848 130.36 54.624 129.698 54.624ZM137.2 62C136.752 62 136.41 61.8773 136.176 61.632C135.952 61.376 135.84 61.0453 135.84 60.64V54.864H134.48V53.744H135.248C135.525 53.744 135.712 53.6907 135.808 53.584C135.914 53.4667 135.968 53.2693 135.968 52.992V51.456H137.12V53.744H138.928V54.864H137.12V60.88H138.8V62H137.2ZM144.766 53.744H146.046V55.088H146.11C146.324 54.5653 146.633 54.1813 147.038 53.936C147.454 53.68 147.95 53.552 148.526 53.552C149.038 53.552 149.502 53.6533 149.918 53.856C150.334 54.0587 150.686 54.3467 150.974 54.72C151.273 55.0933 151.497 55.5467 151.646 56.08C151.806 56.6133 151.886 57.2107 151.886 57.872C151.886 58.5333 151.806 59.1307 151.646 59.664C151.497 60.1973 151.273 60.6507 150.974 61.024C150.686 61.3973 150.334 61.6853 149.918 61.888C149.502 62.0907 149.038 62.192 148.526 62.192C147.406 62.192 146.601 61.68 146.11 60.656H146.046V65.2H144.766V53.744ZM148.174 61.04C148.9 61.04 149.47 60.816 149.886 60.368C150.302 59.9093 150.51 59.312 150.51 58.576V57.168C150.51 56.432 150.302 55.84 149.886 55.392C149.47 54.9333 148.9 54.704 148.174 54.704C147.886 54.704 147.609 54.7467 147.342 54.832C147.086 54.9067 146.862 55.0133 146.67 55.152C146.478 55.2907 146.324 55.4613 146.206 55.664C146.1 55.856 146.046 56.064 146.046 56.288V59.36C146.046 59.6267 146.1 59.8667 146.206 60.08C146.324 60.2827 146.478 60.4587 146.67 60.608C146.862 60.7467 147.086 60.8533 147.342 60.928C147.609 61.0027 147.886 61.04 148.174 61.04ZM160.048 62C159.568 62 159.221 61.872 159.008 61.616C158.805 61.36 158.677 61.04 158.624 60.656H158.544C158.362 61.168 158.064 61.552 157.648 61.808C157.232 62.064 156.736 62.192 156.16 62.192C155.285 62.192 154.602 61.968 154.112 61.52C153.632 61.072 153.392 60.464 153.392 59.696C153.392 58.9173 153.674 58.32 154.24 57.904C154.816 57.488 155.706 57.28 156.911 57.28H158.544V56.464C158.544 55.8773 158.384 55.4293 158.064 55.12C157.744 54.8107 157.253 54.656 156.592 54.656C156.09 54.656 155.669 54.768 155.328 54.992C154.997 55.216 154.72 55.5147 154.496 55.888L153.728 55.168C153.952 54.72 154.309 54.3413 154.799 54.032C155.29 53.712 155.909 53.552 156.656 53.552C157.658 53.552 158.437 53.7973 158.992 54.288C159.546 54.7787 159.824 55.4613 159.824 56.336V60.88H160.767V62H160.048ZM156.368 61.104C156.688 61.104 156.981 61.0667 157.248 60.992C157.514 60.9173 157.744 60.8107 157.936 60.672C158.128 60.5333 158.277 60.3733 158.384 60.192C158.49 60.0107 158.544 59.8133 158.544 59.6V58.24H156.848C156.112 58.24 155.573 58.3467 155.232 58.56C154.901 58.7733 154.736 59.0827 154.736 59.488V59.824C154.736 60.2293 154.88 60.544 155.168 60.768C155.466 60.992 155.866 61.104 156.368 61.104ZM156.736 52.784C156.48 52.784 156.234 52.7413 156 52.656C155.776 52.56 155.578 52.432 155.408 52.272C155.248 52.1013 155.12 51.904 155.024 51.68C154.928 51.456 154.88 51.2107 154.88 50.944C154.88 50.6773 154.928 50.432 155.024 50.208C155.12 49.984 155.248 49.792 155.408 49.632C155.578 49.4613 155.776 49.3333 156 49.248C156.234 49.152 156.48 49.104 156.736 49.104C156.992 49.104 157.232 49.152 157.456 49.248C157.69 49.3333 157.888 49.4613 158.048 49.632C158.218 49.792 158.352 49.984 158.448 50.208C158.544 50.432 158.592 50.6773 158.592 50.944C158.592 51.2107 158.544 51.456 158.448 51.68C158.352 51.904 158.218 52.1013 158.048 52.272C157.888 52.432 157.69 52.56 157.456 52.656C157.232 52.7413 156.992 52.784 156.736 52.784ZM156.736 52C157.024 52 157.248 51.9253 157.408 51.776C157.578 51.616 157.664 51.3973 157.664 51.12V50.768C157.664 50.4907 157.578 50.2773 157.408 50.128C157.248 49.968 157.024 49.888 156.736 49.888C156.448 49.888 156.218 49.968 156.048 50.128C155.888 50.2773 155.808 50.4907 155.808 50.768V51.12C155.808 51.3973 155.888 51.616 156.048 51.776C156.218 51.9253 156.448 52 156.736 52ZM171.656 60.656H171.592C171.09 61.68 170.285 62.192 169.176 62.192C168.664 62.192 168.2 62.0907 167.784 61.888C167.368 61.6853 167.01 61.3973 166.712 61.024C166.424 60.6507 166.2 60.1973 166.04 59.664C165.89 59.1307 165.816 58.5333 165.816 57.872C165.816 57.2107 165.89 56.6133 166.04 56.08C166.2 55.5467 166.424 55.0933 166.712 54.72C167.01 54.3467 167.368 54.0587 167.784 53.856C168.2 53.6533 168.664 53.552 169.176 53.552C169.752 53.552 170.242 53.68 170.648 53.936C171.064 54.1813 171.378 54.5653 171.592 55.088H171.656V50.16H172.936V62H171.656V60.656ZM169.528 61.04C169.816 61.04 170.088 61.0027 170.344 60.928C170.61 60.8533 170.84 60.7467 171.032 60.608C171.224 60.4587 171.373 60.2827 171.48 60.08C171.597 59.8667 171.656 59.6267 171.656 59.36V56.288C171.656 56.064 171.597 55.856 171.48 55.664C171.373 55.4613 171.224 55.2907 171.032 55.152C170.84 55.0133 170.61 54.9067 170.344 54.832C170.088 54.7467 169.816 54.704 169.528 54.704C168.802 54.704 168.232 54.9333 167.816 55.392C167.4 55.84 167.192 56.432 167.192 57.168V58.576C167.192 59.312 167.4 59.9093 167.816 60.368C168.232 60.816 168.802 61.04 169.528 61.04ZM178.777 62.192C178.222 62.192 177.716 62.0907 177.257 61.888C176.798 61.6853 176.404 61.3973 176.073 61.024C175.753 60.64 175.502 60.1867 175.321 59.664C175.14 59.1307 175.049 58.5333 175.049 57.872C175.049 57.2213 175.14 56.6293 175.321 56.096C175.502 55.5627 175.753 55.1093 176.073 54.736C176.404 54.352 176.798 54.0587 177.257 53.856C177.716 53.6533 178.222 53.552 178.777 53.552C179.332 53.552 179.833 53.6533 180.281 53.856C180.74 54.0587 181.134 54.352 181.465 54.736C181.796 55.1093 182.052 55.5627 182.233 56.096C182.414 56.6293 182.505 57.2213 182.505 57.872C182.505 58.5333 182.414 59.1307 182.233 59.664C182.052 60.1867 181.796 60.64 181.465 61.024C181.134 61.3973 180.74 61.6853 180.281 61.888C179.833 62.0907 179.332 62.192 178.777 62.192ZM178.777 61.056C179.47 61.056 180.036 60.8427 180.473 60.416C180.91 59.9893 181.129 59.3387 181.129 58.464V57.28C181.129 56.4053 180.91 55.7547 180.473 55.328C180.036 54.9013 179.47 54.688 178.777 54.688C178.084 54.688 177.518 54.9013 177.081 55.328C176.644 55.7547 176.425 56.4053 176.425 57.28V58.464C176.425 59.3387 176.644 59.9893 177.081 60.416C177.518 60.8427 178.084 61.056 178.777 61.056ZM184.61 50.16H185.89V57.664H185.954L187.218 56.256L189.554 53.744H191.106L188.05 57.008L191.41 62H189.858L187.122 57.792L185.89 59.056V62H184.61V50.16ZM197.979 60.656H197.915C197.83 60.848 197.723 61.04 197.595 61.232C197.478 61.4133 197.329 61.5787 197.147 61.728C196.966 61.8667 196.747 61.9787 196.491 62.064C196.235 62.1493 195.937 62.192 195.595 62.192C194.742 62.192 194.065 61.92 193.563 61.376C193.062 60.8213 192.811 60.0427 192.811 59.04V53.744H194.091V58.816C194.091 60.2987 194.721 61.04 195.979 61.04C196.235 61.04 196.481 61.008 196.715 60.944C196.961 60.88 197.174 60.784 197.355 60.656C197.547 60.528 197.697 60.368 197.803 60.176C197.921 59.9733 197.979 59.7333 197.979 59.456V53.744H199.259V62H197.979V60.656ZM201.985 62V53.744H203.265V55.088H203.329C203.425 54.8747 203.532 54.6773 203.649 54.496C203.777 54.304 203.926 54.1387 204.097 54C204.278 53.8613 204.486 53.7547 204.721 53.68C204.956 53.5947 205.233 53.552 205.553 53.552C206.097 53.552 206.598 53.6853 207.057 53.952C207.516 54.208 207.857 54.6347 208.081 55.232H208.113C208.262 54.784 208.54 54.3947 208.945 54.064C209.361 53.7227 209.921 53.552 210.625 53.552C211.468 53.552 212.124 53.8293 212.593 54.384C213.073 54.928 213.313 55.7013 213.313 56.704V62H212.033V56.928C212.033 56.192 211.889 55.6373 211.601 55.264C211.313 54.8907 210.854 54.704 210.225 54.704C209.969 54.704 209.724 54.736 209.489 54.8C209.265 54.864 209.062 54.96 208.881 55.088C208.7 55.216 208.556 55.3813 208.449 55.584C208.342 55.776 208.289 56.0053 208.289 56.272V62H207.009V56.928C207.009 56.192 206.865 55.6373 206.577 55.264C206.289 54.8907 205.841 54.704 205.233 54.704C204.977 54.704 204.732 54.736 204.497 54.8C204.262 54.864 204.054 54.96 203.873 55.088C203.692 55.216 203.542 55.3813 203.425 55.584C203.318 55.776 203.265 56.0053 203.265 56.272V62H201.985ZM219.058 62.192C218.492 62.192 217.98 62.0907 217.522 61.888C217.074 61.6853 216.684 61.3973 216.354 61.024C216.034 60.64 215.783 60.1867 215.602 59.664C215.431 59.1307 215.346 58.5333 215.346 57.872C215.346 57.2213 215.431 56.6293 215.602 56.096C215.783 55.5627 216.034 55.1093 216.354 54.736C216.684 54.352 217.074 54.0587 217.522 53.856C217.98 53.6533 218.492 53.552 219.058 53.552C219.612 53.552 220.108 53.6533 220.546 53.856C220.983 54.0587 221.356 54.3413 221.666 54.704C221.975 55.056 222.21 55.4773 222.37 55.968C222.54 56.4587 222.626 56.9973 222.626 57.584V58.192H216.69V58.576C216.69 58.928 216.743 59.2587 216.85 59.568C216.967 59.8667 217.127 60.128 217.33 60.352C217.543 60.576 217.799 60.752 218.098 60.88C218.407 61.008 218.754 61.072 219.138 61.072C219.66 61.072 220.114 60.9493 220.498 60.704C220.892 60.4587 221.196 60.1067 221.41 59.648L222.322 60.304C222.055 60.8693 221.639 61.328 221.074 61.68C220.508 62.0213 219.836 62.192 219.058 62.192ZM219.058 54.624C218.706 54.624 218.386 54.688 218.098 54.816C217.81 54.9333 217.559 55.104 217.346 55.328C217.143 55.552 216.983 55.8187 216.866 56.128C216.748 56.4267 216.69 56.7573 216.69 57.12V57.232H221.25V57.056C221.25 56.32 221.047 55.7333 220.642 55.296C220.247 54.848 219.719 54.624 219.058 54.624ZM224.735 62V53.744H226.015V55.088H226.079C226.282 54.6187 226.564 54.2453 226.927 53.968C227.3 53.6907 227.796 53.552 228.415 53.552C229.268 53.552 229.94 53.8293 230.431 54.384C230.932 54.928 231.183 55.7013 231.183 56.704V62H229.903V56.928C229.903 55.4453 229.279 54.704 228.031 54.704C227.775 54.704 227.524 54.736 227.279 54.8C227.044 54.864 226.831 54.96 226.639 55.088C226.447 55.216 226.292 55.3813 226.175 55.584C226.068 55.776 226.015 56.0053 226.015 56.272V62H224.735ZM235.653 62C235.205 62 234.863 61.8773 234.629 61.632C234.405 61.376 234.293 61.0453 234.293 60.64V54.864H232.933V53.744H233.701C233.978 53.744 234.165 53.6907 234.261 53.584C234.367 53.4667 234.421 53.2693 234.421 52.992V51.456H235.573V53.744H237.381V54.864H235.573V60.88H237.253V62H235.653ZM242.48 62.192C241.914 62.192 241.402 62.0907 240.944 61.888C240.496 61.6853 240.106 61.3973 239.776 61.024C239.456 60.64 239.205 60.1867 239.024 59.664C238.853 59.1307 238.768 58.5333 238.768 57.872C238.768 57.2213 238.853 56.6293 239.024 56.096C239.205 55.5627 239.456 55.1093 239.776 54.736C240.106 54.352 240.496 54.0587 240.944 53.856C241.402 53.6533 241.914 53.552 242.48 53.552C243.034 53.552 243.53 53.6533 243.968 53.856C244.405 54.0587 244.778 54.3413 245.088 54.704C245.397 55.056 245.632 55.4773 245.792 55.968C245.962 56.4587 246.048 56.9973 246.048 57.584V58.192H240.112V58.576C240.112 58.928 240.165 59.2587 240.272 59.568C240.389 59.8667 240.549 60.128 240.752 60.352C240.965 60.576 241.221 60.752 241.52 60.88C241.829 61.008 242.176 61.072 242.56 61.072C243.082 61.072 243.536 60.9493 243.92 60.704C244.314 60.4587 244.618 60.1067 244.832 59.648L245.744 60.304C245.477 60.8693 245.061 61.328 244.496 61.68C243.93 62.0213 243.258 62.192 242.48 62.192ZM242.48 54.624C242.128 54.624 241.808 54.688 241.52 54.816C241.232 54.9333 240.981 55.104 240.768 55.328C240.565 55.552 240.405 55.8187 240.288 56.128C240.17 56.4267 240.112 56.7573 240.112 57.12V57.232H244.672V57.056C244.672 56.32 244.469 55.7333 244.064 55.296C243.669 54.848 243.141 54.624 242.48 54.624ZM249.981 62C249.533 62 249.192 61.8773 248.957 61.632C248.733 61.376 248.621 61.0453 248.621 60.64V54.864H247.261V53.744H248.029C248.306 53.744 248.493 53.6907 248.589 53.584C248.696 53.4667 248.749 53.2693 248.749 52.992V51.456H249.901V53.744H251.709V54.864H249.901V60.88H251.581V62H249.981ZM258.299 54.16C257.958 54.16 257.708 54.0747 257.548 53.904C257.398 53.7227 257.324 53.4933 257.324 53.216V52.992C257.324 52.5547 257.452 52.0747 257.708 51.552C257.964 51.0187 258.321 50.5547 258.78 50.16H259.852C259.532 50.5013 259.27 50.8267 259.068 51.136C258.876 51.4347 258.737 51.7707 258.652 52.144C258.865 52.1973 259.02 52.2987 259.116 52.448C259.222 52.5973 259.276 52.7787 259.276 52.992V53.216C259.276 53.4933 259.196 53.7227 259.036 53.904C258.886 54.0747 258.641 54.16 258.299 54.16ZM261.532 54.16C261.19 54.16 260.94 54.0747 260.78 53.904C260.63 53.7227 260.556 53.4933 260.556 53.216V52.992C260.556 52.5547 260.684 52.0747 260.94 51.552C261.196 51.0187 261.553 50.5547 262.012 50.16H263.084C262.764 50.5013 262.502 50.8267 262.3 51.136C262.108 51.4347 261.969 51.7707 261.884 52.144C262.097 52.1973 262.252 52.2987 262.348 52.448C262.454 52.5973 262.508 52.7787 262.508 52.992V53.216C262.508 53.4933 262.428 53.7227 262.268 53.904C262.118 54.0747 261.873 54.16 261.532 54.16ZM273.205 62H271.589L268.661 57.312H268.629L265.701 62H264.165L267.813 56.32L264.261 50.832H265.877L268.677 55.28H268.709L271.573 50.832H273.109L269.525 56.272L273.205 62ZM275.928 50C276.269 50 276.515 50.0907 276.664 50.272C276.824 50.4427 276.904 50.6667 276.904 50.944V51.168C276.904 51.6053 276.776 52.0907 276.52 52.624C276.264 53.1467 275.907 53.6053 275.448 54H274.376C274.696 53.6587 274.952 53.3387 275.144 53.04C275.347 52.7307 275.491 52.3893 275.576 52.016C275.363 51.9627 275.203 51.8613 275.096 51.712C275 51.5627 274.952 51.3813 274.952 51.168V50.944C274.952 50.6667 275.027 50.4427 275.176 50.272C275.336 50.0907 275.587 50 275.928 50ZM279.144 50C279.485 50 279.731 50.0907 279.88 50.272C280.04 50.4427 280.12 50.6667 280.12 50.944V51.168C280.12 51.6053 279.992 52.0907 279.736 52.624C279.48 53.1467 279.123 53.6053 278.664 54H277.592C277.912 53.6587 278.168 53.3387 278.36 53.04C278.563 52.7307 278.707 52.3893 278.792 52.016C278.579 51.9627 278.419 51.8613 278.312 51.712C278.216 51.5627 278.168 51.3813 278.168 51.168V50.944C278.168 50.6667 278.243 50.4427 278.392 50.272C278.552 50.0907 278.803 50 279.144 50ZM282.301 62.192C281.96 62.192 281.709 62.1067 281.549 61.936C281.4 61.7653 281.325 61.5413 281.325 61.264V61.056C281.325 60.7787 281.4 60.5547 281.549 60.384C281.709 60.2133 281.96 60.128 282.301 60.128C282.642 60.128 282.888 60.2133 283.037 60.384C283.197 60.5547 283.277 60.7787 283.277 61.056V61.264C283.277 61.5413 283.197 61.7653 283.037 61.936C282.888 62.1067 282.642 62.192 282.301 62.192Z" fill="black"/>
<path d="M155 108C153.022 108 151.089 107.414 149.444 106.315C147.8 105.216 146.518 103.654 145.761 101.827C145.004 99.9996 144.806 97.9889 145.192 96.0491C145.578 94.1093 146.53 92.3275 147.929 90.9289C149.327 89.5304 151.109 88.578 153.049 88.1922C154.989 87.8063 157 88.0043 158.827 88.7612C160.654 89.5181 162.216 90.7998 163.315 92.4443C164.414 94.0888 165 96.0222 165 98C164.997 100.651 163.943 103.193 162.068 105.068C160.193 106.943 157.651 107.997 155 108ZM155 90C153.418 90 151.871 90.4692 150.555 91.3482C149.24 92.2273 148.214 93.4767 147.609 94.9385C147.003 96.4003 146.845 98.0089 147.154 99.5607C147.462 101.113 148.224 102.538 149.343 103.657C150.462 104.776 151.887 105.538 153.439 105.846C154.991 106.155 156.6 105.997 158.061 105.391C159.523 104.786 160.773 103.76 161.652 102.445C162.531 101.129 163 99.5823 163 98C162.998 95.879 162.154 93.8456 160.654 92.3458C159.154 90.846 157.121 90.0024 155 90ZM156 104H154V102H156V104ZM156 101H154C153.984 100.361 154.14 99.7285 154.452 99.1697C154.763 98.6108 155.218 98.1455 155.77 97.822C156.43 97.316 157 96.879 157 96C157 95.4696 156.789 94.9609 156.414 94.5858C156.039 94.2107 155.53 94 155 94C154.47 94 153.961 94.2107 153.586 94.5858C153.211 94.9609 153 95.4696 153 96H151C151 94.9391 151.421 93.9217 152.172 93.1716C152.922 92.4214 153.939 92 155 92C156.061 92 157.078 92.4214 157.828 93.1716C158.579 93.9217 159 94.9391 159 96C158.965 96.5321 158.805 97.0485 158.534 97.5079C158.263 97.9672 157.889 98.3567 157.44 98.645C157.034 98.8996 156.693 99.2448 156.443 99.6534C156.194 100.062 156.042 100.523 156 101Z" fill="#1A1A1A"/>
<path d="M41.784 104.192C40.824 104.192 40.008 104.021 39.336 103.68C38.6747 103.339 38.104 102.891 37.624 102.336L39.048 100.96C39.432 101.408 39.8587 101.749 40.328 101.984C40.808 102.219 41.336 102.336 41.912 102.336C42.5627 102.336 43.0533 102.197 43.384 101.92C43.7147 101.632 43.88 101.248 43.88 100.768C43.88 100.395 43.7733 100.091 43.56 99.856C43.3467 99.6213 42.9467 99.4507 42.36 99.344L41.304 99.184C39.0747 98.832 37.96 97.7493 37.96 95.936C37.96 95.4347 38.0507 94.9813 38.232 94.576C38.424 94.1707 38.696 93.824 39.048 93.536C39.4 93.248 39.8213 93.0293 40.312 92.88C40.8133 92.72 41.3787 92.64 42.008 92.64C42.8507 92.64 43.5867 92.7787 44.216 93.056C44.8453 93.3333 45.384 93.744 45.832 94.288L44.392 95.648C44.1147 95.3067 43.7787 95.0293 43.384 94.816C42.9893 94.6027 42.4933 94.496 41.896 94.496C41.288 94.496 40.8293 94.6133 40.52 94.848C40.2213 95.072 40.072 95.392 40.072 95.808C40.072 96.2347 40.1947 96.5493 40.44 96.752C40.6853 96.9547 41.08 97.104 41.624 97.2L42.664 97.392C43.7947 97.5947 44.6267 97.9573 45.16 98.48C45.704 98.992 45.976 99.712 45.976 100.64C45.976 101.173 45.88 101.659 45.688 102.096C45.5067 102.523 45.2347 102.896 44.872 103.216C44.52 103.525 44.0827 103.765 43.56 103.936C43.048 104.107 42.456 104.192 41.784 104.192ZM54.1093 104C53.6613 104 53.3039 103.872 53.0373 103.616C52.7813 103.349 52.6213 102.997 52.5573 102.56H52.4613C52.3226 103.104 52.0399 103.515 51.6133 103.792C51.1866 104.059 50.6586 104.192 50.0293 104.192C49.1759 104.192 48.5199 103.968 48.0613 103.52C47.6026 103.072 47.3733 102.475 47.3733 101.728C47.3733 100.864 47.6826 100.224 48.3013 99.808C48.9199 99.3813 49.7999 99.168 50.9413 99.168H52.3653V98.56C52.3653 98.0907 52.2426 97.728 51.9973 97.472C51.7519 97.216 51.3573 97.088 50.8133 97.088C50.3333 97.088 49.9439 97.1947 49.6453 97.408C49.3573 97.6107 49.1119 97.856 48.9093 98.144L47.6933 97.056C48.0026 96.576 48.4133 96.192 48.9253 95.904C49.4373 95.6053 50.1146 95.456 50.9573 95.456C52.0879 95.456 52.9466 95.712 53.5333 96.224C54.1199 96.736 54.4133 97.472 54.4133 98.432V102.368H55.2453V104H54.1093ZM50.7173 102.704C51.1759 102.704 51.5653 102.603 51.8853 102.4C52.2053 102.197 52.3653 101.899 52.3653 101.504V100.4H51.0533C49.9866 100.4 49.4533 100.741 49.4533 101.424V101.696C49.4533 102.037 49.5599 102.293 49.7733 102.464C49.9973 102.624 50.3119 102.704 50.7173 102.704ZM64.4388 104.704C64.4388 105.141 64.3588 105.525 64.1988 105.856C64.0494 106.197 63.7988 106.48 63.4468 106.704C63.0948 106.928 62.6414 107.099 62.0868 107.216C61.5321 107.333 60.8548 107.392 60.0548 107.392C59.3508 107.392 58.7534 107.344 58.2628 107.248C57.7721 107.163 57.3668 107.035 57.0468 106.864C56.7374 106.704 56.5134 106.501 56.3748 106.256C56.2361 106.011 56.1668 105.733 56.1668 105.424C56.1668 104.955 56.2948 104.587 56.5508 104.32C56.8174 104.064 57.1854 103.899 57.6548 103.824V103.648C57.3134 103.563 57.0468 103.397 56.8548 103.152C56.6734 102.896 56.5828 102.597 56.5828 102.256C56.5828 102.043 56.6254 101.856 56.7108 101.696C56.7961 101.525 56.9081 101.381 57.0468 101.264C57.1961 101.147 57.3614 101.051 57.5428 100.976C57.7241 100.891 57.9161 100.827 58.1188 100.784V100.72C57.6068 100.485 57.2228 100.16 56.9668 99.744C56.7214 99.328 56.5988 98.8427 56.5988 98.288C56.5988 97.4347 56.8921 96.752 57.4788 96.24C58.0654 95.7173 58.9241 95.456 60.0548 95.456C60.3108 95.456 60.5614 95.472 60.8068 95.504C61.0628 95.536 61.2974 95.5893 61.5108 95.664V95.392C61.5108 94.5813 61.9054 94.176 62.6948 94.176H63.9908V95.744H62.2148V95.968C62.6521 96.2133 62.9774 96.5333 63.1908 96.928C63.4041 97.3227 63.5108 97.776 63.5108 98.288C63.5108 99.1307 63.2174 99.808 62.6308 100.32C62.0548 100.832 61.1961 101.088 60.0548 101.088C59.5641 101.088 59.1374 101.04 58.7748 100.944C58.6148 101.019 58.4761 101.12 58.3588 101.248C58.2414 101.365 58.1828 101.515 58.1828 101.696C58.1828 102.112 58.5454 102.32 59.2708 102.32H61.5108C62.5348 102.32 63.2761 102.533 63.7348 102.96C64.2041 103.376 64.4388 103.957 64.4388 104.704ZM62.5188 104.944C62.5188 104.677 62.4121 104.469 62.1988 104.32C61.9854 104.171 61.6174 104.096 61.0948 104.096H58.2468C57.9588 104.309 57.8148 104.597 57.8148 104.96C57.8148 105.28 57.9481 105.531 58.2148 105.712C58.4814 105.893 58.9348 105.984 59.5748 105.984H60.5988C61.2708 105.984 61.7561 105.899 62.0548 105.728C62.3641 105.557 62.5188 105.296 62.5188 104.944ZM60.0548 99.696C61.0574 99.696 61.5588 99.2693 61.5588 98.416V98.144C61.5588 97.2907 61.0574 96.864 60.0548 96.864C59.0521 96.864 58.5508 97.2907 58.5508 98.144V98.416C58.5508 99.2693 59.0521 99.696 60.0548 99.696ZM68.3575 104.192C67.5575 104.192 66.8855 104.059 66.3415 103.792C65.7975 103.515 65.3175 103.136 64.9015 102.656L66.1495 101.44C66.4588 101.792 66.7948 102.069 67.1575 102.272C67.5308 102.475 67.9575 102.576 68.4375 102.576C68.9282 102.576 69.2802 102.491 69.4935 102.32C69.7175 102.149 69.8295 101.915 69.8295 101.616C69.8295 101.371 69.7495 101.179 69.5895 101.04C69.4402 100.891 69.1788 100.789 68.8055 100.736L67.9735 100.624C67.0668 100.507 66.3735 100.251 65.8935 99.856C65.4242 99.4507 65.1895 98.864 65.1895 98.096C65.1895 97.6907 65.2642 97.328 65.4135 97.008C65.5628 96.6773 65.7762 96.4 66.0535 96.176C66.3308 95.9413 66.6615 95.7653 67.0455 95.648C67.4402 95.52 67.8775 95.456 68.3575 95.456C68.7628 95.456 69.1202 95.488 69.4295 95.552C69.7495 95.6053 70.0375 95.6907 70.2935 95.808C70.5495 95.9147 70.7842 96.0533 70.9975 96.224C71.2108 96.384 71.4188 96.5653 71.6215 96.768L70.4215 97.968C70.1762 97.712 69.8828 97.4987 69.5415 97.328C69.2002 97.1573 68.8268 97.072 68.4215 97.072C67.9735 97.072 67.6482 97.152 67.4455 97.312C67.2535 97.472 67.1575 97.68 67.1575 97.936C67.1575 98.2133 67.2375 98.4267 67.3975 98.576C67.5682 98.7147 67.8508 98.816 68.2455 98.88L69.0935 98.992C70.8962 99.248 71.7975 100.069 71.7975 101.456C71.7975 101.861 71.7122 102.235 71.5415 102.576C71.3815 102.907 71.1522 103.195 70.8535 103.44C70.5548 103.675 70.1922 103.861 69.7655 104C69.3495 104.128 68.8802 104.192 68.3575 104.192ZM73.6059 104V95.648H75.6539V97.04H75.7339C75.9045 96.592 76.1712 96.2187 76.5339 95.92C76.9072 95.6107 77.4192 95.456 78.0699 95.456C78.9339 95.456 79.5952 95.7387 80.0539 96.304C80.5125 96.8693 80.7419 97.6747 80.7419 98.72V104H78.6939V98.928C78.6939 98.3307 78.5872 97.8827 78.3739 97.584C78.1605 97.2853 77.8085 97.136 77.3179 97.136C77.1045 97.136 76.8965 97.168 76.6939 97.232C76.5019 97.2853 76.3259 97.3707 76.1659 97.488C76.0165 97.5947 75.8939 97.7333 75.7979 97.904C75.7019 98.064 75.6539 98.256 75.6539 98.48V104H73.6059ZM88.0041 102.608H87.9241C87.8495 102.821 87.7481 103.024 87.6201 103.216C87.5028 103.397 87.3481 103.563 87.1561 103.712C86.9748 103.861 86.7508 103.979 86.4841 104.064C86.2281 104.149 85.9295 104.192 85.5881 104.192C84.7241 104.192 84.0628 103.909 83.6041 103.344C83.1455 102.779 82.9161 101.973 82.9161 100.928V95.648H84.9641V100.72C84.9641 101.296 85.0761 101.739 85.3001 102.048C85.5241 102.347 85.8815 102.496 86.3721 102.496C86.5748 102.496 86.7721 102.469 86.9641 102.416C87.1668 102.363 87.3428 102.283 87.4921 102.176C87.6415 102.059 87.7641 101.92 87.8601 101.76C87.9561 101.589 88.0041 101.392 88.0041 101.168V95.648H90.0521V104H88.0041V102.608ZM92.4184 104V95.648H94.4664V97.04H94.5464C94.7064 96.6027 94.9624 96.2293 95.3144 95.92C95.6664 95.6107 96.157 95.456 96.7864 95.456C97.3624 95.456 97.8584 95.5947 98.2744 95.872C98.6904 96.1493 98.9997 96.5707 99.2024 97.136H99.2344C99.3837 96.6667 99.677 96.272 100.114 95.952C100.562 95.6213 101.122 95.456 101.794 95.456C102.616 95.456 103.245 95.7387 103.682 96.304C104.13 96.8693 104.354 97.6747 104.354 98.72V104H102.306V98.928C102.306 97.7333 101.858 97.136 100.962 97.136C100.76 97.136 100.562 97.168 100.37 97.232C100.189 97.2853 100.024 97.3707 99.8744 97.488C99.7357 97.5947 99.6237 97.7333 99.5384 97.904C99.453 98.064 99.4104 98.256 99.4104 98.48V104H97.3624V98.928C97.3624 97.7333 96.9144 97.136 96.0184 97.136C95.8264 97.136 95.6344 97.168 95.4424 97.232C95.261 97.2853 95.0957 97.3707 94.9464 97.488C94.8077 97.5947 94.6904 97.7333 94.5944 97.904C94.509 98.064 94.4664 98.256 94.4664 98.48V104H92.4184ZM106.622 104V95.648H108.67V97.04H108.75C108.91 96.6027 109.166 96.2293 109.518 95.92C109.87 95.6107 110.36 95.456 110.99 95.456C111.566 95.456 112.062 95.5947 112.478 95.872C112.894 96.1493 113.203 96.5707 113.406 97.136H113.438C113.587 96.6667 113.88 96.272 114.318 95.952C114.766 95.6213 115.326 95.456 115.998 95.456C116.819 95.456 117.448 95.7387 117.886 96.304C118.334 96.8693 118.558 97.6747 118.558 98.72V104H116.51V98.928C116.51 97.7333 116.062 97.136 115.166 97.136C114.963 97.136 114.766 97.168 114.574 97.232C114.392 97.2853 114.227 97.3707 114.078 97.488C113.939 97.5947 113.827 97.7333 113.742 97.904C113.656 98.064 113.614 98.256 113.614 98.48V104H111.566V98.928C111.566 97.7333 111.118 97.136 110.222 97.136C110.03 97.136 109.838 97.168 109.646 97.232C109.464 97.2853 109.299 97.3707 109.15 97.488C109.011 97.5947 108.894 97.7333 108.798 97.904C108.712 98.064 108.67 98.256 108.67 98.48V104H106.622ZM124.201 104.192C123.582 104.192 123.027 104.091 122.537 103.888C122.057 103.675 121.646 103.381 121.305 103.008C120.974 102.624 120.718 102.165 120.537 101.632C120.355 101.088 120.265 100.48 120.265 99.808C120.265 99.1467 120.35 98.5493 120.521 98.016C120.702 97.4827 120.958 97.0293 121.289 96.656C121.619 96.272 122.025 95.9787 122.505 95.776C122.985 95.5627 123.529 95.456 124.137 95.456C124.787 95.456 125.353 95.568 125.833 95.792C126.313 96.016 126.707 96.32 127.017 96.704C127.326 97.088 127.555 97.536 127.705 98.048C127.865 98.5493 127.945 99.088 127.945 99.664V100.336H122.393V100.544C122.393 101.152 122.563 101.643 122.905 102.016C123.246 102.379 123.753 102.56 124.425 102.56C124.937 102.56 125.353 102.453 125.673 102.24C126.003 102.027 126.297 101.755 126.553 101.424L127.657 102.656C127.315 103.136 126.846 103.515 126.249 103.792C125.662 104.059 124.979 104.192 124.201 104.192ZM124.169 96.992C123.625 96.992 123.193 97.1733 122.873 97.536C122.553 97.8987 122.393 98.368 122.393 98.944V99.072H125.817V98.928C125.817 98.352 125.673 97.888 125.385 97.536C125.107 97.1733 124.702 96.992 124.169 96.992ZM129.747 104V95.648H131.795V97.376H131.875C131.928 97.152 132.008 96.9387 132.115 96.736C132.232 96.5227 132.381 96.336 132.562 96.176C132.744 96.016 132.957 95.888 133.203 95.792C133.459 95.696 133.752 95.648 134.083 95.648H134.531V97.584H133.891C133.197 97.584 132.675 97.6853 132.323 97.888C131.971 98.0907 131.795 98.4213 131.795 98.88V104H129.747Z" fill="#1A1A1A"/>
<path d="M37.96 128V126.88H39.528V117.952H37.96V116.832H42.44V117.952H40.872V126.88H42.44V128H37.96ZM44.7663 128V119.744H46.0463V121.088H46.1103C46.3129 120.619 46.5956 120.245 46.9583 119.968C47.3316 119.691 47.8276 119.552 48.4463 119.552C49.2996 119.552 49.9716 119.829 50.4623 120.384C50.9636 120.928 51.2143 121.701 51.2143 122.704V128H49.9343V122.928C49.9343 121.445 49.3103 120.704 48.0623 120.704C47.8063 120.704 47.5556 120.736 47.3103 120.8C47.0756 120.864 46.8623 120.96 46.6703 121.088C46.4783 121.216 46.3236 121.381 46.2063 121.584C46.0996 121.776 46.0463 122.005 46.0463 122.272V128H44.7663ZM59.14 126.656H59.076C58.5747 127.68 57.7693 128.192 56.66 128.192C56.148 128.192 55.684 128.091 55.268 127.888C54.852 127.685 54.4947 127.397 54.196 127.024C53.908 126.651 53.684 126.197 53.524 125.664C53.3747 125.131 53.3 124.533 53.3 123.872C53.3 123.211 53.3747 122.613 53.524 122.08C53.684 121.547 53.908 121.093 54.196 120.72C54.4947 120.347 54.852 120.059 55.268 119.856C55.684 119.653 56.148 119.552 56.66 119.552C57.236 119.552 57.7267 119.68 58.132 119.936C58.548 120.181 58.8627 120.565 59.076 121.088H59.14V116.16H60.42V128H59.14V126.656ZM57.012 127.04C57.3 127.04 57.572 127.003 57.828 126.928C58.0947 126.853 58.324 126.747 58.516 126.608C58.708 126.459 58.8573 126.283 58.964 126.08C59.0813 125.867 59.14 125.627 59.14 125.36V122.288C59.14 122.064 59.0813 121.856 58.964 121.664C58.8573 121.461 58.708 121.291 58.516 121.152C58.324 121.013 58.0947 120.907 57.828 120.832C57.572 120.747 57.3 120.704 57.012 120.704C56.2867 120.704 55.716 120.933 55.3 121.392C54.884 121.84 54.676 122.432 54.676 123.168V124.576C54.676 125.312 54.884 125.909 55.3 126.368C55.716 126.816 56.2867 127.04 57.012 127.04ZM64.9653 128C64.5173 128 64.1759 127.877 63.9413 127.632C63.7173 127.376 63.6053 127.045 63.6053 126.64V120.864H62.2453V119.744H63.0133C63.2906 119.744 63.4773 119.691 63.5733 119.584C63.6799 119.467 63.7333 119.269 63.7333 118.992V117.456H64.8853V119.744H66.6933V120.864H64.8853V126.88H66.5653V128H64.9653ZM74.7506 128C74.2706 128 73.924 127.872 73.7106 127.616C73.508 127.36 73.38 127.04 73.3266 126.656H73.2466C73.0653 127.168 72.7666 127.552 72.3506 127.808C71.9346 128.064 71.4386 128.192 70.8626 128.192C69.988 128.192 69.3053 127.968 68.8146 127.52C68.3346 127.072 68.0946 126.464 68.0946 125.696C68.0946 124.917 68.3773 124.32 68.9426 123.904C69.5186 123.488 70.4093 123.28 71.6146 123.28H73.2466V122.464C73.2466 121.877 73.0866 121.429 72.7666 121.12C72.4466 120.811 71.956 120.656 71.2946 120.656C70.7933 120.656 70.372 120.768 70.0306 120.992C69.7 121.216 69.4226 121.515 69.1986 121.888L68.4306 121.168C68.6546 120.72 69.012 120.341 69.5026 120.032C69.9933 119.712 70.612 119.552 71.3586 119.552C72.3613 119.552 73.14 119.797 73.6946 120.288C74.2493 120.779 74.5266 121.461 74.5266 122.336V126.88H75.4706V128H74.7506ZM71.0706 127.104C71.3906 127.104 71.684 127.067 71.9506 126.992C72.2173 126.917 72.4466 126.811 72.6386 126.672C72.8306 126.533 72.98 126.373 73.0866 126.192C73.1933 126.011 73.2466 125.813 73.2466 125.6V124.24H71.5506C70.8146 124.24 70.276 124.347 69.9346 124.56C69.604 124.773 69.4386 125.083 69.4386 125.488V125.824C69.4386 126.229 69.5826 126.544 69.8706 126.768C70.1693 126.992 70.5693 127.104 71.0706 127.104ZM79.7775 128.192C79.0095 128.192 78.3642 128.048 77.8415 127.76C77.3295 127.461 76.8868 127.067 76.5135 126.576L77.4255 125.84C77.7455 126.245 78.1028 126.56 78.4975 126.784C78.8922 126.997 79.3508 127.104 79.8735 127.104C80.4175 127.104 80.8388 126.987 81.1375 126.752C81.4468 126.517 81.6015 126.187 81.6015 125.76C81.6015 125.44 81.4948 125.168 81.2815 124.944C81.0788 124.709 80.7055 124.549 80.1615 124.464L79.5055 124.368C79.1215 124.315 78.7695 124.235 78.4495 124.128C78.1295 124.011 77.8468 123.861 77.6015 123.68C77.3668 123.488 77.1802 123.253 77.0415 122.976C76.9135 122.699 76.8495 122.368 76.8495 121.984C76.8495 121.579 76.9242 121.227 77.0735 120.928C77.2228 120.619 77.4255 120.363 77.6815 120.16C77.9482 119.957 78.2628 119.808 78.6255 119.712C78.9882 119.605 79.3775 119.552 79.7935 119.552C80.4655 119.552 81.0255 119.669 81.4735 119.904C81.9322 120.139 82.3322 120.464 82.6735 120.88L81.8255 121.648C81.6442 121.392 81.3775 121.163 81.0255 120.96C80.6735 120.747 80.2308 120.64 79.6975 120.64C79.1642 120.64 78.7588 120.757 78.4815 120.992C78.2148 121.216 78.0815 121.525 78.0815 121.92C78.0815 122.325 78.2148 122.619 78.4815 122.8C78.7588 122.981 79.1535 123.115 79.6655 123.2L80.3055 123.296C81.2228 123.435 81.8735 123.701 82.2575 124.096C82.6415 124.48 82.8335 124.987 82.8335 125.616C82.8335 126.416 82.5615 127.045 82.0175 127.504C81.4735 127.963 80.7268 128.192 79.7775 128.192ZM86.809 128C86.361 128 86.0197 127.877 85.785 127.632C85.561 127.376 85.449 127.045 85.449 126.64V120.864H84.089V119.744H84.857C85.1343 119.744 85.321 119.691 85.417 119.584C85.5237 119.467 85.577 119.269 85.577 118.992V117.456H86.729V119.744H88.537V120.864H86.729V126.88H88.409V128H86.809ZM97.8156 128.192C97.1756 128.192 96.6156 128.112 96.1356 127.952C95.6556 127.781 95.2503 127.552 94.9196 127.264C94.5996 126.976 94.3543 126.635 94.1836 126.24C94.0236 125.845 93.9436 125.419 93.9436 124.96C93.9436 124.192 94.1516 123.584 94.5676 123.136C94.9836 122.688 95.5276 122.373 96.1996 122.192V122.064C95.613 121.861 95.1436 121.536 94.7916 121.088C94.4503 120.629 94.2796 120.08 94.2796 119.44C94.2796 118.587 94.589 117.909 95.2076 117.408C95.8263 116.896 96.6956 116.64 97.8156 116.64C98.9356 116.64 99.805 116.896 100.424 117.408C101.042 117.909 101.352 118.587 101.352 119.44C101.352 120.08 101.176 120.629 100.824 121.088C100.482 121.536 100.018 121.861 99.4316 122.064V122.192C100.104 122.373 100.648 122.688 101.064 123.136C101.48 123.584 101.688 124.192 101.688 124.96C101.688 125.419 101.602 125.845 101.432 126.24C101.272 126.635 101.026 126.976 100.696 127.264C100.376 127.552 99.9756 127.781 99.4956 127.952C99.0156 128.112 98.4556 128.192 97.8156 128.192ZM97.8156 127.024C98.5943 127.024 99.197 126.853 99.6236 126.512C100.05 126.16 100.264 125.664 100.264 125.024V124.688C100.264 124.048 100.05 123.557 99.6236 123.216C99.197 122.864 98.5943 122.688 97.8156 122.688C97.037 122.688 96.4343 122.864 96.0076 123.216C95.581 123.557 95.3676 124.048 95.3676 124.688V125.024C95.3676 125.664 95.581 126.16 96.0076 126.512C96.4343 126.853 97.037 127.024 97.8156 127.024ZM97.8156 121.568C98.5196 121.568 99.053 121.419 99.4156 121.12C99.7783 120.821 99.9596 120.384 99.9596 119.808V119.568C99.9596 118.992 99.7783 118.555 99.4156 118.256C99.053 117.957 98.5196 117.808 97.8156 117.808C97.1116 117.808 96.5783 117.957 96.2156 118.256C95.853 118.555 95.6716 118.992 95.6716 119.568V119.808C95.6716 120.384 95.853 120.821 96.2156 121.12C96.5783 121.419 97.1116 121.568 97.8156 121.568ZM103.713 123.824V122.448H107.889V123.824H103.713ZM113.588 128.192C113.012 128.192 112.495 128.091 112.036 127.888C111.578 127.685 111.188 127.397 110.868 127.024C110.559 126.651 110.319 126.197 110.148 125.664C109.988 125.131 109.908 124.533 109.908 123.872C109.908 123.211 109.988 122.613 110.148 122.08C110.319 121.547 110.559 121.093 110.868 120.72C111.188 120.347 111.578 120.059 112.036 119.856C112.495 119.653 113.012 119.552 113.588 119.552C114.41 119.552 115.066 119.733 115.556 120.096C116.058 120.448 116.431 120.912 116.676 121.488L115.604 122.032C115.455 121.605 115.21 121.275 114.868 121.04C114.527 120.805 114.1 120.688 113.588 120.688C113.204 120.688 112.868 120.752 112.58 120.88C112.292 120.997 112.052 121.168 111.86 121.392C111.668 121.605 111.524 121.867 111.428 122.176C111.332 122.475 111.284 122.805 111.284 123.168V124.576C111.284 125.301 111.476 125.899 111.86 126.368C112.255 126.827 112.831 127.056 113.588 127.056C114.623 127.056 115.37 126.576 115.828 125.616L116.756 126.24C116.49 126.837 116.09 127.312 115.556 127.664C115.034 128.016 114.378 128.192 113.588 128.192ZM119.203 117.808C118.926 117.808 118.723 117.744 118.595 117.616C118.478 117.477 118.419 117.301 118.419 117.088V116.88C118.419 116.667 118.478 116.496 118.595 116.368C118.723 116.229 118.926 116.16 119.203 116.16C119.48 116.16 119.678 116.229 119.795 116.368C119.923 116.496 119.987 116.667 119.987 116.88V117.088C119.987 117.301 119.923 117.477 119.795 117.616C119.678 117.744 119.48 117.808 119.203 117.808ZM118.563 119.744H119.843V128H118.563V119.744ZM123.011 120.864H121.667V119.744H123.011V118.08C123.011 117.504 123.16 117.04 123.459 116.688C123.758 116.336 124.211 116.16 124.819 116.16H126.067V117.28H124.291V119.744H126.067V120.864H124.291V128H123.011V120.864ZM127.751 128V119.744H129.031V121.264H129.111C129.26 120.869 129.527 120.517 129.911 120.208C130.295 119.899 130.823 119.744 131.495 119.744H131.991V121.024H131.239C130.545 121.024 130.001 121.157 129.607 121.424C129.223 121.68 129.031 122.005 129.031 122.4V128H127.751ZM136.652 128.192C136.086 128.192 135.574 128.091 135.116 127.888C134.668 127.685 134.278 127.397 133.948 127.024C133.628 126.64 133.377 126.187 133.196 125.664C133.025 125.131 132.94 124.533 132.94 123.872C132.94 123.221 133.025 122.629 133.196 122.096C133.377 121.563 133.628 121.109 133.948 120.736C134.278 120.352 134.668 120.059 135.116 119.856C135.574 119.653 136.086 119.552 136.652 119.552C137.206 119.552 137.702 119.653 138.14 119.856C138.577 120.059 138.95 120.341 139.26 120.704C139.569 121.056 139.804 121.477 139.964 121.968C140.134 122.459 140.22 122.997 140.22 123.584V124.192H134.284V124.576C134.284 124.928 134.337 125.259 134.444 125.568C134.561 125.867 134.721 126.128 134.924 126.352C135.137 126.576 135.393 126.752 135.692 126.88C136.001 127.008 136.348 127.072 136.732 127.072C137.254 127.072 137.708 126.949 138.092 126.704C138.486 126.459 138.79 126.107 139.004 125.648L139.916 126.304C139.649 126.869 139.233 127.328 138.668 127.68C138.102 128.021 137.43 128.192 136.652 128.192ZM136.652 120.624C136.3 120.624 135.98 120.688 135.692 120.816C135.404 120.933 135.153 121.104 134.94 121.328C134.737 121.552 134.577 121.819 134.46 122.128C134.342 122.427 134.284 122.757 134.284 123.12V123.232H138.844V123.056C138.844 122.32 138.641 121.733 138.236 121.296C137.841 120.848 137.313 120.624 136.652 120.624ZM144.153 128C143.705 128 143.363 127.877 143.129 127.632C142.905 127.376 142.793 127.045 142.793 126.64V120.864H141.433V119.744H142.201C142.478 119.744 142.665 119.691 142.761 119.584C142.867 119.467 142.921 119.269 142.921 118.992V117.456H144.073V119.744H145.881V120.864H144.073V126.88H145.753V128H144.153ZM154.199 128.192C153.431 128.192 152.786 128.048 152.263 127.76C151.751 127.461 151.309 127.067 150.935 126.576L151.847 125.84C152.167 126.245 152.525 126.56 152.919 126.784C153.314 126.997 153.773 127.104 154.295 127.104C154.839 127.104 155.261 126.987 155.559 126.752C155.869 126.517 156.023 126.187 156.023 125.76C156.023 125.44 155.917 125.168 155.703 124.944C155.501 124.709 155.127 124.549 154.583 124.464L153.927 124.368C153.543 124.315 153.191 124.235 152.871 124.128C152.551 124.011 152.269 123.861 152.023 123.68C151.789 123.488 151.602 123.253 151.463 122.976C151.335 122.699 151.271 122.368 151.271 121.984C151.271 121.579 151.346 121.227 151.495 120.928C151.645 120.619 151.847 120.363 152.103 120.16C152.37 119.957 152.685 119.808 153.047 119.712C153.41 119.605 153.799 119.552 154.215 119.552C154.887 119.552 155.447 119.669 155.895 119.904C156.354 120.139 156.754 120.464 157.095 120.88L156.247 121.648C156.066 121.392 155.799 121.163 155.447 120.96C155.095 120.747 154.653 120.64 154.119 120.64C153.586 120.64 153.181 120.757 152.903 120.992C152.637 121.216 152.503 121.525 152.503 121.92C152.503 122.325 152.637 122.619 152.903 122.8C153.181 122.981 153.575 123.115 154.087 123.2L154.727 123.296C155.645 123.435 156.295 123.701 156.679 124.096C157.063 124.48 157.255 124.987 157.255 125.616C157.255 126.416 156.983 127.045 156.439 127.504C155.895 127.963 155.149 128.192 154.199 128.192ZM165.516 128C165.036 128 164.69 127.872 164.476 127.616C164.274 127.36 164.146 127.04 164.092 126.656H164.012C163.831 127.168 163.532 127.552 163.116 127.808C162.7 128.064 162.204 128.192 161.628 128.192C160.754 128.192 160.071 127.968 159.58 127.52C159.1 127.072 158.86 126.464 158.86 125.696C158.86 124.917 159.143 124.32 159.708 123.904C160.284 123.488 161.175 123.28 162.38 123.28H164.012V122.464C164.012 121.877 163.852 121.429 163.532 121.12C163.212 120.811 162.722 120.656 162.06 120.656C161.559 120.656 161.138 120.768 160.796 120.992C160.466 121.216 160.188 121.515 159.964 121.888L159.196 121.168C159.42 120.72 159.778 120.341 160.268 120.032C160.759 119.712 161.378 119.552 162.124 119.552C163.127 119.552 163.906 119.797 164.46 120.288C165.015 120.779 165.292 121.461 165.292 122.336V126.88H166.236V128H165.516ZM161.836 127.104C162.156 127.104 162.45 127.067 162.716 126.992C162.983 126.917 163.212 126.811 163.404 126.672C163.596 126.533 163.746 126.373 163.852 126.192C163.959 126.011 164.012 125.813 164.012 125.6V124.24H162.316C161.58 124.24 161.042 124.347 160.7 124.56C160.37 124.773 160.204 125.083 160.204 125.488V125.824C160.204 126.229 160.348 126.544 160.636 126.768C160.935 126.992 161.335 127.104 161.836 127.104ZM175.023 128.912C175.023 129.765 174.687 130.389 174.015 130.784C173.354 131.189 172.356 131.392 171.023 131.392C169.732 131.392 168.804 131.216 168.239 130.864C167.674 130.512 167.391 130.011 167.391 129.36C167.391 128.912 167.508 128.56 167.743 128.304C167.978 128.059 168.298 127.877 168.703 127.76V127.584C168.212 127.349 167.967 126.965 167.967 126.432C167.967 126.016 168.1 125.701 168.367 125.488C168.634 125.264 168.975 125.099 169.391 124.992V124.928C168.9 124.693 168.516 124.357 168.239 123.92C167.972 123.483 167.839 122.976 167.839 122.4C167.839 121.984 167.914 121.6 168.063 121.248C168.212 120.896 168.42 120.597 168.687 120.352C168.964 120.096 169.29 119.899 169.663 119.76C170.047 119.621 170.474 119.552 170.943 119.552C171.53 119.552 172.052 119.659 172.511 119.872V119.728C172.511 119.408 172.586 119.147 172.735 118.944C172.884 118.731 173.13 118.624 173.471 118.624H174.703V119.744H173.135V120.272C173.434 120.528 173.663 120.837 173.823 121.2C173.994 121.552 174.079 121.952 174.079 122.4C174.079 122.816 174.004 123.2 173.855 123.552C173.706 123.904 173.492 124.208 173.215 124.464C172.948 124.709 172.623 124.901 172.239 125.04C171.855 125.179 171.428 125.248 170.959 125.248C170.692 125.248 170.426 125.221 170.159 125.168C169.882 125.243 169.631 125.355 169.407 125.504C169.183 125.643 169.071 125.84 169.071 126.096C169.071 126.341 169.188 126.507 169.423 126.592C169.658 126.677 169.962 126.72 170.335 126.72H172.095C173.119 126.72 173.86 126.917 174.319 127.312C174.788 127.696 175.023 128.229 175.023 128.912ZM173.823 129.008C173.823 128.677 173.695 128.411 173.439 128.208C173.194 128.016 172.751 127.92 172.111 127.92H169.359C168.847 128.155 168.591 128.528 168.591 129.04C168.591 129.403 168.724 129.712 168.991 129.968C169.268 130.224 169.732 130.352 170.383 130.352H171.567C172.282 130.352 172.836 130.24 173.231 130.016C173.626 129.792 173.823 129.456 173.823 129.008ZM170.959 124.224C171.503 124.224 171.935 124.096 172.255 123.84C172.575 123.573 172.735 123.168 172.735 122.624V122.176C172.735 121.632 172.575 121.232 172.255 120.976C171.935 120.709 171.503 120.576 170.959 120.576C170.415 120.576 169.983 120.709 169.663 120.976C169.343 121.232 169.183 121.632 169.183 122.176V122.624C169.183 123.168 169.343 123.573 169.663 123.84C169.983 124.096 170.415 124.224 170.959 124.224ZM178.996 128.192C178.228 128.192 177.583 128.048 177.06 127.76C176.548 127.461 176.106 127.067 175.732 126.576L176.644 125.84C176.964 126.245 177.322 126.56 177.716 126.784C178.111 126.997 178.57 127.104 179.092 127.104C179.636 127.104 180.058 126.987 180.356 126.752C180.666 126.517 180.82 126.187 180.82 125.76C180.82 125.44 180.714 125.168 180.5 124.944C180.298 124.709 179.924 124.549 179.38 124.464L178.724 124.368C178.34 124.315 177.988 124.235 177.668 124.128C177.348 124.011 177.066 123.861 176.82 123.68C176.586 123.488 176.399 123.253 176.26 122.976C176.132 122.699 176.068 122.368 176.068 121.984C176.068 121.579 176.143 121.227 176.292 120.928C176.442 120.619 176.644 120.363 176.9 120.16C177.167 119.957 177.482 119.808 177.844 119.712C178.207 119.605 178.596 119.552 179.012 119.552C179.684 119.552 180.244 119.669 180.692 119.904C181.151 120.139 181.551 120.464 181.892 120.88L181.044 121.648C180.863 121.392 180.596 121.163 180.244 120.96C179.892 120.747 179.45 120.64 178.916 120.64C178.383 120.64 177.978 120.757 177.7 120.992C177.434 121.216 177.3 121.525 177.3 121.92C177.3 122.325 177.434 122.619 177.7 122.8C177.978 122.981 178.372 123.115 178.884 123.2L179.524 123.296C180.442 123.435 181.092 123.701 181.476 124.096C181.86 124.48 182.052 124.987 182.052 125.616C182.052 126.416 181.78 127.045 181.236 127.504C180.692 127.963 179.946 128.192 178.996 128.192ZM184.313 128V119.744H185.593V121.088H185.657C185.86 120.619 186.142 120.245 186.505 119.968C186.878 119.691 187.374 119.552 187.993 119.552C188.846 119.552 189.518 119.829 190.009 120.384C190.51 120.928 190.761 121.701 190.761 122.704V128H189.481V122.928C189.481 121.445 188.857 120.704 187.609 120.704C187.353 120.704 187.102 120.736 186.857 120.8C186.622 120.864 186.409 120.96 186.217 121.088C186.025 121.216 185.87 121.381 185.753 121.584C185.646 121.776 185.593 122.005 185.593 122.272V128H184.313ZM198.495 126.656H198.431C198.346 126.848 198.239 127.04 198.111 127.232C197.994 127.413 197.844 127.579 197.663 127.728C197.482 127.867 197.263 127.979 197.007 128.064C196.751 128.149 196.452 128.192 196.111 128.192C195.258 128.192 194.58 127.92 194.079 127.376C193.578 126.821 193.327 126.043 193.327 125.04V119.744H194.607V124.816C194.607 126.299 195.236 127.04 196.495 127.04C196.751 127.04 196.996 127.008 197.231 126.944C197.476 126.88 197.69 126.784 197.871 126.656C198.063 126.528 198.212 126.368 198.319 126.176C198.436 125.973 198.495 125.733 198.495 125.456V119.744H199.775V128H198.495V126.656ZM202.501 128V119.744H203.781V121.088H203.845C203.941 120.875 204.047 120.677 204.165 120.496C204.293 120.304 204.442 120.139 204.613 120C204.794 119.861 205.002 119.755 205.237 119.68C205.471 119.595 205.749 119.552 206.069 119.552C206.613 119.552 207.114 119.685 207.573 119.952C208.031 120.208 208.373 120.635 208.597 121.232H208.629C208.778 120.784 209.055 120.395 209.461 120.064C209.877 119.723 210.437 119.552 211.141 119.552C211.983 119.552 212.639 119.829 213.109 120.384C213.589 120.928 213.829 121.701 213.829 122.704V128H212.549V122.928C212.549 122.192 212.405 121.637 212.117 121.264C211.829 120.891 211.37 120.704 210.741 120.704C210.485 120.704 210.239 120.736 210.005 120.8C209.781 120.864 209.578 120.96 209.397 121.088C209.215 121.216 209.071 121.381 208.965 121.584C208.858 121.776 208.805 122.005 208.805 122.272V128H207.525V122.928C207.525 122.192 207.381 121.637 207.093 121.264C206.805 120.891 206.357 120.704 205.749 120.704C205.493 120.704 205.247 120.736 205.013 120.8C204.778 120.864 204.57 120.96 204.389 121.088C204.207 121.216 204.058 121.381 203.941 121.584C203.834 121.776 203.781 122.005 203.781 122.272V128H202.501ZM216.469 128V119.744H217.749V121.088H217.813C217.909 120.875 218.016 120.677 218.133 120.496C218.261 120.304 218.411 120.139 218.581 120C218.763 119.861 218.971 119.755 219.205 119.68C219.44 119.595 219.717 119.552 220.037 119.552C220.581 119.552 221.083 119.685 221.541 119.952C222 120.208 222.341 120.635 222.565 121.232H222.597C222.747 120.784 223.024 120.395 223.429 120.064C223.845 119.723 224.405 119.552 225.109 119.552C225.952 119.552 226.608 119.829 227.077 120.384C227.557 120.928 227.797 121.701 227.797 122.704V128H226.517V122.928C226.517 122.192 226.373 121.637 226.085 121.264C225.797 120.891 225.339 120.704 224.709 120.704C224.453 120.704 224.208 120.736 223.973 120.8C223.749 120.864 223.547 120.96 223.365 121.088C223.184 121.216 223.04 121.381 222.933 121.584C222.827 121.776 222.773 122.005 222.773 122.272V128H221.493V122.928C221.493 122.192 221.349 121.637 221.061 121.264C220.773 120.891 220.325 120.704 219.717 120.704C219.461 120.704 219.216 120.736 218.981 120.8C218.747 120.864 218.539 120.96 218.357 121.088C218.176 121.216 218.027 121.381 217.909 121.584C217.803 121.776 217.749 122.005 217.749 122.272V128H216.469ZM233.542 128.192C232.977 128.192 232.465 128.091 232.006 127.888C231.558 127.685 231.169 127.397 230.838 127.024C230.518 126.64 230.267 126.187 230.086 125.664C229.915 125.131 229.83 124.533 229.83 123.872C229.83 123.221 229.915 122.629 230.086 122.096C230.267 121.563 230.518 121.109 230.838 120.736C231.169 120.352 231.558 120.059 232.006 119.856C232.465 119.653 232.977 119.552 233.542 119.552C234.097 119.552 234.593 119.653 235.03 119.856C235.467 120.059 235.841 120.341 236.15 120.704C236.459 121.056 236.694 121.477 236.854 121.968C237.025 122.459 237.11 122.997 237.11 123.584V124.192H231.174V124.576C231.174 124.928 231.227 125.259 231.334 125.568C231.451 125.867 231.611 126.128 231.814 126.352C232.027 126.576 232.283 126.752 232.582 126.88C232.891 127.008 233.238 127.072 233.622 127.072C234.145 127.072 234.598 126.949 234.982 126.704C235.377 126.459 235.681 126.107 235.894 125.648L236.806 126.304C236.539 126.869 236.123 127.328 235.558 127.68C234.993 128.021 234.321 128.192 233.542 128.192ZM233.542 120.624C233.19 120.624 232.87 120.688 232.582 120.816C232.294 120.933 232.043 121.104 231.83 121.328C231.627 121.552 231.467 121.819 231.35 122.128C231.233 122.427 231.174 122.757 231.174 123.12V123.232H235.734V123.056C235.734 122.32 235.531 121.733 235.126 121.296C234.731 120.848 234.203 120.624 233.542 120.624ZM239.219 128V119.744H240.499V121.264H240.579C240.729 120.869 240.995 120.517 241.379 120.208C241.763 119.899 242.291 119.744 242.963 119.744H243.459V121.024H242.707C242.014 121.024 241.47 121.157 241.075 121.424C240.691 121.68 240.499 122.005 240.499 122.4V128H239.219ZM244.629 126.128C244.97 126.128 245.216 126.219 245.365 126.4C245.525 126.571 245.605 126.795 245.605 127.072V127.296C245.605 127.733 245.477 128.213 245.221 128.736C244.965 129.269 244.608 129.733 244.149 130.128H243.077C243.397 129.787 243.653 129.461 243.845 129.152C244.048 128.853 244.192 128.517 244.277 128.144C244.064 128.091 243.904 127.989 243.797 127.84C243.701 127.691 243.653 127.509 243.653 127.296V127.072C243.653 126.795 243.728 126.571 243.877 126.4C244.037 126.219 244.288 126.128 244.629 126.128ZM252.402 120.864H251.058V119.744H252.402V118.08C252.402 117.504 252.551 117.04 252.85 116.688C253.148 116.336 253.602 116.16 254.21 116.16H255.458V117.28H253.682V119.744H255.458V120.864H253.682V128H252.402V120.864ZM256.117 128L259.173 123.84L256.245 119.744H257.749L259.845 122.816H259.893L262.069 119.744H263.493L260.581 123.744L263.557 128H262.053L259.909 124.768H259.861L257.541 128H256.117ZM276.152 128L275.032 124.704H270.52L269.4 128H268.04L271.944 116.832H273.656L277.56 128H276.152ZM272.808 118.08H272.728L270.84 123.52H274.696L272.808 118.08ZM279.41 116.832H284.002C284.93 116.832 285.655 117.093 286.178 117.616C286.711 118.139 286.978 118.837 286.978 119.712C286.978 120.128 286.919 120.48 286.802 120.768C286.685 121.056 286.535 121.296 286.354 121.488C286.173 121.669 285.975 121.808 285.762 121.904C285.549 121.989 285.351 122.048 285.17 122.08V122.176C285.373 122.187 285.597 122.24 285.842 122.336C286.098 122.432 286.338 122.587 286.562 122.8C286.786 123.003 286.973 123.269 287.122 123.6C287.282 123.92 287.362 124.309 287.362 124.768C287.362 125.227 287.287 125.653 287.138 126.048C286.999 126.443 286.802 126.784 286.546 127.072C286.29 127.36 285.986 127.589 285.634 127.76C285.282 127.92 284.898 128 284.482 128H279.41V116.832ZM280.754 126.816H284.066C284.642 126.816 285.095 126.672 285.426 126.384C285.757 126.085 285.922 125.653 285.922 125.088V124.544C285.922 123.979 285.757 123.552 285.426 123.264C285.095 122.965 284.642 122.816 284.066 122.816H280.754V126.816ZM280.754 121.664H283.842C284.375 121.664 284.791 121.531 285.09 121.264C285.389 120.997 285.538 120.613 285.538 120.112V119.568C285.538 119.067 285.389 118.683 285.09 118.416C284.791 118.149 284.375 118.016 283.842 118.016H280.754V121.664ZM293.799 128.192C292.38 128.192 291.276 127.712 290.487 126.752C289.698 125.781 289.303 124.357 289.303 122.48C289.303 120.603 289.698 119.163 290.487 118.16C291.276 117.147 292.38 116.64 293.799 116.64C294.738 116.64 295.522 116.853 296.151 117.28C296.791 117.707 297.287 118.309 297.639 119.088L296.551 119.744C296.327 119.168 295.986 118.709 295.527 118.368C295.068 118.016 294.492 117.84 293.799 117.84C293.319 117.84 292.887 117.931 292.503 118.112C292.13 118.293 291.81 118.555 291.543 118.896C291.287 119.227 291.09 119.627 290.951 120.096C290.812 120.555 290.743 121.072 290.743 121.648V123.312C290.743 124.464 291.01 125.365 291.543 126.016C292.076 126.667 292.828 126.992 293.799 126.992C294.514 126.992 295.111 126.811 295.591 126.448C296.071 126.075 296.423 125.584 296.647 124.976L297.719 125.648C297.367 126.437 296.86 127.061 296.199 127.52C295.538 127.968 294.738 128.192 293.799 128.192ZM299.721 128V126.816H302.841V117.824H302.729L299.913 120.448L299.129 119.6L302.089 116.832H304.185V126.816H307.065V128H299.721ZM316.434 128H309.106V126.624L312.754 123.264C313.277 122.784 313.714 122.277 314.066 121.744C314.418 121.2 314.594 120.656 314.594 120.112V119.92C314.594 119.301 314.424 118.8 314.082 118.416C313.741 118.032 313.224 117.84 312.53 117.84C312.189 117.84 311.89 117.888 311.634 117.984C311.378 118.08 311.154 118.213 310.962 118.384C310.781 118.555 310.626 118.757 310.498 118.992C310.381 119.216 310.285 119.461 310.21 119.728L309.01 119.264C309.117 118.933 309.261 118.613 309.442 118.304C309.634 117.984 309.869 117.701 310.146 117.456C310.434 117.211 310.776 117.013 311.17 116.864C311.576 116.715 312.05 116.64 312.594 116.64C313.138 116.64 313.624 116.72 314.05 116.88C314.477 117.04 314.834 117.264 315.122 117.552C315.41 117.84 315.629 118.181 315.778 118.576C315.938 118.971 316.018 119.408 316.018 119.888C316.018 120.325 315.954 120.731 315.826 121.104C315.709 121.477 315.544 121.835 315.33 122.176C315.117 122.507 314.856 122.832 314.546 123.152C314.248 123.472 313.922 123.792 313.57 124.112L310.562 126.816H316.434V128ZM321.676 121.568C322.433 121.568 322.999 121.397 323.372 121.056C323.756 120.704 323.948 120.256 323.948 119.712V119.6C323.948 119.013 323.761 118.576 323.388 118.288C323.025 117.989 322.545 117.84 321.948 117.84C321.372 117.84 320.903 117.968 320.54 118.224C320.177 118.469 319.879 118.805 319.644 119.232L318.652 118.464C318.791 118.24 318.956 118.021 319.148 117.808C319.351 117.584 319.585 117.387 319.852 117.216C320.119 117.045 320.428 116.907 320.78 116.8C321.132 116.693 321.532 116.64 321.98 116.64C322.449 116.64 322.892 116.704 323.308 116.832C323.724 116.949 324.081 117.131 324.38 117.376C324.689 117.611 324.929 117.904 325.1 118.256C325.281 118.608 325.372 119.008 325.372 119.456C325.372 119.819 325.313 120.144 325.196 120.432C325.089 120.72 324.94 120.971 324.748 121.184C324.556 121.397 324.327 121.579 324.06 121.728C323.804 121.877 323.527 121.989 323.228 122.064V122.128C323.527 122.192 323.815 122.299 324.092 122.448C324.38 122.587 324.631 122.773 324.844 123.008C325.068 123.232 325.244 123.509 325.372 123.84C325.511 124.16 325.58 124.528 325.58 124.944C325.58 125.424 325.489 125.867 325.308 126.272C325.127 126.667 324.871 127.008 324.54 127.296C324.209 127.573 323.809 127.792 323.34 127.952C322.871 128.112 322.353 128.192 321.788 128.192C321.308 128.192 320.881 128.139 320.508 128.032C320.135 127.925 319.804 127.781 319.516 127.6C319.228 127.419 318.972 127.216 318.748 126.992C318.535 126.768 318.343 126.533 318.172 126.288L319.18 125.52C319.319 125.744 319.468 125.947 319.628 126.128C319.799 126.309 319.985 126.464 320.188 126.592C320.391 126.72 320.62 126.821 320.876 126.896C321.132 126.96 321.431 126.992 321.772 126.992C322.561 126.992 323.159 126.816 323.564 126.464C323.969 126.101 324.172 125.589 324.172 124.928V124.8C324.172 124.139 323.969 123.632 323.564 123.28C323.159 122.917 322.561 122.736 321.772 122.736H320.46V121.568H321.676ZM333.094 128V125.808H327.702V124.624L332.374 116.832H334.374V124.688H335.99V125.808H334.374V128H333.094ZM328.966 124.688H333.094V117.872H333.014L328.966 124.688ZM344.656 118.016H339.76L339.44 122.272H339.552C339.818 121.899 340.117 121.6 340.448 121.376C340.789 121.152 341.253 121.04 341.84 121.04C342.32 121.04 342.762 121.12 343.168 121.28C343.573 121.44 343.925 121.669 344.224 121.968C344.522 122.256 344.752 122.613 344.911 123.04C345.082 123.467 345.168 123.952 345.168 124.496C345.168 125.04 345.082 125.541 344.911 126C344.741 126.448 344.49 126.837 344.16 127.168C343.84 127.488 343.445 127.739 342.976 127.92C342.517 128.101 341.994 128.192 341.408 128.192C340.938 128.192 340.522 128.139 340.16 128.032C339.808 127.925 339.493 127.781 339.216 127.6C338.938 127.419 338.693 127.216 338.48 126.992C338.277 126.768 338.09 126.533 337.92 126.288L338.928 125.52C339.066 125.744 339.21 125.947 339.36 126.128C339.52 126.309 339.69 126.464 339.872 126.592C340.064 126.72 340.282 126.821 340.528 126.896C340.773 126.96 341.066 126.992 341.408 126.992C342.176 126.992 342.757 126.789 343.152 126.384C343.546 125.979 343.744 125.408 343.744 124.672V124.512C343.744 123.776 343.546 123.205 343.152 122.8C342.757 122.395 342.176 122.192 341.408 122.192C340.896 122.192 340.49 122.288 340.192 122.48C339.904 122.661 339.642 122.88 339.408 123.136L338.272 122.976L338.672 116.832H344.656V118.016Z" fill="#747474"/>
<rect x="37.5" y="142.5" width="109" height="39" rx="3.5" stroke="#747474"/>
<defs>
<filter id="filter0_d_5010_49455" x="8" y="12" width="294" height="81.1719" filterUnits="userSpaceOnUse" color-interpolation-filters="sRGB">
<feFlood flood-opacity="0" result="BackgroundImageFix"/>
<feColorMatrix in="SourceAlpha" type="matrix" values="0 0 0 0 0 0 0 0 0 0 0 0 0 0 0 0 0 0 127 0" result="hardAlpha"/>
<feOffset dy="4"/>
<feGaussianBlur stdDeviation="4"/>
<feColorMatrix type="matrix" values="0 0 0 0 0 0 0 0 0 0 0 0 0 0 0 0 0 0 0.302 0"/>
<feBlend mode="normal" in2="BackgroundImageFix" result="effect1_dropShadow_5010_49455"/>
<feBlend mode="normal" in="SourceGraphic" in2="effect1_dropShadow_5010_49455" result="shape"/>
</filter>
</defs>
</svg>
