<svg width="334" height="108" viewBox="0 0 334 108" fill="none" xmlns="http://www.w3.org/2000/svg">
<path d="M203 76C203 71.5817 199.418 68 195 68C190.582 68 187 71.5817 187 76C187 80.4183 190.582 84 195 84C199.418 84 203 80.4183 203 76Z" fill="#C8CADF" stroke="#474E95"/>
<path d="M3.174 45.5V32.936H4.686V44.168H10.032V45.5H3.174ZM18.78 45.5C18.24 45.5 17.85 45.356 17.61 45.068C17.382 44.78 17.238 44.42 17.178 43.988H17.088C16.884 44.564 16.548 44.996 16.08 45.284C15.612 45.572 15.054 45.716 14.406 45.716C13.422 45.716 12.654 45.464 12.102 44.96C11.562 44.456 11.292 43.772 11.292 42.908C11.292 42.032 11.61 41.36 12.246 40.892C12.894 40.424 13.896 40.19 15.252 40.19H17.088V39.272C17.088 38.612 16.908 38.108 16.548 37.76C16.188 37.412 15.636 37.238 14.892 37.238C14.328 37.238 13.854 37.364 13.47 37.616C13.098 37.868 12.786 38.204 12.534 38.624L11.67 37.814C11.922 37.31 12.324 36.884 12.876 36.536C13.428 36.176 14.124 35.996 14.964 35.996C16.092 35.996 16.968 36.272 17.592 36.824C18.216 37.376 18.528 38.144 18.528 39.128V44.24H19.59V45.5H18.78ZM14.64 44.492C15 44.492 15.33 44.45 15.63 44.366C15.93 44.282 16.188 44.162 16.404 44.006C16.62 43.85 16.788 43.67 16.908 43.466C17.028 43.262 17.088 43.04 17.088 42.8V41.27H15.18C14.352 41.27 13.746 41.39 13.362 41.63C12.99 41.87 12.804 42.218 12.804 42.674V43.052C12.804 43.508 12.966 43.862 13.29 44.114C13.626 44.366 14.076 44.492 14.64 44.492ZM21.6452 32.18H23.0852V37.724H23.1572C23.3972 37.136 23.7452 36.704 24.2012 36.428C24.6692 36.14 25.2272 35.996 25.8752 35.996C26.4512 35.996 26.9732 36.11 27.4412 36.338C27.9092 36.566 28.3052 36.89 28.6292 37.31C28.9652 37.73 29.2172 38.24 29.3852 38.84C29.5652 39.44 29.6552 40.112 29.6552 40.856C29.6552 41.6 29.5652 42.272 29.3852 42.872C29.2172 43.472 28.9652 43.982 28.6292 44.402C28.3052 44.822 27.9092 45.146 27.4412 45.374C26.9732 45.602 26.4512 45.716 25.8752 45.716C24.6152 45.716 23.7092 45.14 23.1572 43.988H23.0852V45.5H21.6452V32.18ZM25.4792 44.42C26.2952 44.42 26.9372 44.168 27.4052 43.664C27.8732 43.148 28.1072 42.476 28.1072 41.648V40.064C28.1072 39.236 27.8732 38.57 27.4052 38.066C26.9372 37.55 26.2952 37.292 25.4792 37.292C25.1552 37.292 24.8432 37.34 24.5432 37.436C24.2552 37.52 24.0032 37.64 23.7872 37.796C23.5712 37.952 23.3972 38.144 23.2652 38.372C23.1452 38.588 23.0852 38.822 23.0852 39.074V42.53C23.0852 42.83 23.1452 43.1 23.2652 43.34C23.3972 43.568 23.5712 43.766 23.7872 43.934C24.0032 44.09 24.2552 44.21 24.5432 44.294C24.8432 44.378 25.1552 44.42 25.4792 44.42ZM35.5786 45.716C34.9426 45.716 34.3666 45.602 33.8506 45.374C33.3466 45.146 32.9086 44.822 32.5366 44.402C32.1766 43.97 31.8946 43.46 31.6906 42.872C31.4986 42.272 31.4026 41.6 31.4026 40.856C31.4026 40.124 31.4986 39.458 31.6906 38.858C31.8946 38.258 32.1766 37.748 32.5366 37.328C32.9086 36.896 33.3466 36.566 33.8506 36.338C34.3666 36.11 34.9426 35.996 35.5786 35.996C36.2026 35.996 36.7606 36.11 37.2526 36.338C37.7446 36.566 38.1646 36.884 38.5126 37.292C38.8606 37.688 39.1246 38.162 39.3046 38.714C39.4966 39.266 39.5926 39.872 39.5926 40.532V41.216H32.9146V41.648C32.9146 42.044 32.9746 42.416 33.0946 42.764C33.2266 43.1 33.4066 43.394 33.6346 43.646C33.8746 43.898 34.1626 44.096 34.4986 44.24C34.8466 44.384 35.2366 44.456 35.6686 44.456C36.2566 44.456 36.7666 44.318 37.1986 44.042C37.6426 43.766 37.9846 43.37 38.2246 42.854L39.2506 43.592C38.9506 44.228 38.4826 44.744 37.8466 45.14C37.2106 45.524 36.4546 45.716 35.5786 45.716ZM35.5786 37.202C35.1826 37.202 34.8226 37.274 34.4986 37.418C34.1746 37.55 33.8926 37.742 33.6526 37.994C33.4246 38.246 33.2446 38.546 33.1126 38.894C32.9806 39.23 32.9146 39.602 32.9146 40.01V40.136H38.0446V39.938C38.0446 39.11 37.8166 38.45 37.3606 37.958C36.9166 37.454 36.3226 37.202 35.5786 37.202ZM43.4955 45.5C42.9915 45.5 42.6075 45.362 42.3435 45.086C42.0915 44.798 41.9655 44.438 41.9655 44.006V32.18H43.4055V44.24H44.7735V45.5H43.4955Z" fill="#1A1A1A"/>
<path d="M182 55H1V96H182V55Z" fill="#DCDCDC" stroke="#747474"/>
<path d="M194.006 77.588V75.292C194.771 75.2547 195.369 75.068 195.798 74.732C196.237 74.396 196.456 73.934 196.456 73.346V73.15C196.456 72.674 196.307 72.296 196.008 72.016C195.709 71.7267 195.308 71.582 194.804 71.582C194.263 71.582 193.829 71.736 193.502 72.044C193.185 72.352 192.97 72.744 192.858 73.22L191.822 72.828C191.906 72.5293 192.027 72.2447 192.186 71.974C192.354 71.694 192.559 71.4513 192.802 71.246C193.054 71.0313 193.348 70.8633 193.684 70.742C194.02 70.6207 194.407 70.56 194.846 70.56C195.714 70.56 196.4 70.798 196.904 71.274C197.408 71.75 197.66 72.394 197.66 73.206C197.66 73.654 197.581 74.046 197.422 74.382C197.273 74.7087 197.077 74.9887 196.834 75.222C196.591 75.4553 196.316 75.642 196.008 75.782C195.7 75.922 195.392 76.02 195.084 76.076V77.588H194.006ZM194.552 80.668C194.253 80.668 194.034 80.5933 193.894 80.444C193.763 80.2947 193.698 80.0987 193.698 79.856V79.674C193.698 79.4313 193.763 79.2353 193.894 79.086C194.034 78.9367 194.253 78.862 194.552 78.862C194.851 78.862 195.065 78.9367 195.196 79.086C195.336 79.2353 195.406 79.4313 195.406 79.674V79.856C195.406 80.0987 195.336 80.2947 195.196 80.444C195.065 80.5933 194.851 80.668 194.552 80.668Z" fill="#474E95"/>
<path fill-rule="evenodd" clip-rule="evenodd" d="M200.809 52L195.5 62.618L190.191 52H170V1H333V52H200.809Z" fill="#C8CADF" stroke="#474E95"/>
</svg>
