<?xml version="1.0" encoding="UTF-8"?>
<svg width="180px" height="118px" viewBox="0 0 180 118" version="1.1" xmlns="http://www.w3.org/2000/svg" xmlns:xlink="http://www.w3.org/1999/xlink">
    <!-- Generator: Sketch 52.6 (67491) - http://www.bohemiancoding.com/sketch -->
    <title>Multiselect dropdown_With_BG</title>
    <desc>Created with Sketch.</desc>
    <g id="Illustrationer" stroke="none" stroke-width="1" fill="none" fill-rule="evenodd">
        <g id="Overview_illustrationer_Ver02" transform="translate(-511.000000, -3331.000000)">
            <g id="Multiselect-dropdown" transform="translate(511.000000, 3331.000000)">
                <rect id="Rectangle-6" fill="#FFFFFF" fill-rule="nonzero" x="0" y="0" width="180" height="118"></rect>
                <rect id="Rectangle-15" fill="#DCDCDC" fill-rule="nonzero" x="36" y="102" width="132" height="4"></rect>
                <rect id="Rectangle-15" fill="#DCDCDC" fill-rule="nonzero" x="36" y="72" width="132" height="4"></rect>
                <rect id="Rectangle-15" fill="#DCDCDC" fill-rule="nonzero" x="36" y="42" width="132" height="4"></rect>
                <path d="M14.1714286,68 L22.1714286,68 C23.2759981,68 24.1714286,68.8954305 24.1714286,70 L24.1714286,78 C24.1714286,79.1045695 23.2759981,80 22.1714286,80 L14.1714286,80 C13.0668591,80 12.1714286,79.1045695 12.1714286,78 L12.1714286,70 C12.1714286,68.8954305 13.0668591,68 14.1714286,68 Z M21.7000241,70.8619288 L17.0858258,75.4761271 L14.6428331,73.0331344 L13.7000241,73.9759435 L17.0858258,77.3617452 L22.6428331,71.8047379 L21.7000241,70.8619288 Z" id="Box" fill="#1A1A1A"></path>
                <path d="M14.1714286,98 L22.1714286,98 C23.2759981,98 24.1714286,98.8954305 24.1714286,100 L24.1714286,108 C24.1714286,109.104569 23.2759981,110 22.1714286,110 L14.1714286,110 C13.0668591,110 12.1714286,109.104569 12.1714286,108 L12.1714286,100 C12.1714286,98.8954305 13.0668591,98 14.1714286,98 Z M21.7000241,100.861929 L17.0858258,105.476127 L14.6428331,103.033134 L13.7000241,103.975943 L17.0858258,107.361745 L22.6428331,101.804738 L21.7000241,100.861929 Z" id="Box-Copy" fill="#1A1A1A"></path>
                <path d="M14.0588235,39.5441176 C13.7745593,39.5441176 13.5441176,39.7745593 13.5441176,40.0588235 L13.5441176,47.9411765 C13.5441176,48.2254407 13.7745593,48.4558824 14.0588235,48.4558824 L21.9411765,48.4558824 C22.2254407,48.4558824 22.4558824,48.2254407 22.4558824,47.9411765 L22.4558824,40.0588235 C22.4558824,39.7745593 22.2254407,39.5441176 21.9411765,39.5441176 L14.0588235,39.5441176 Z M14.0588235,38 L21.9411765,38 C23.0782333,38 24,38.9217667 24,40.0588235 L24,47.9411765 C24,49.0782333 23.0782333,50 21.9411765,50 L14.0588235,50 C12.9217667,50 12,49.0782333 12,47.9411765 L12,40.0588235 C12,38.9217667 12.9217667,38 14.0588235,38 Z" id="Box" fill="#1A1A1A" fill-rule="nonzero"></path>
                <rect id="Rectangle-15" fill="#DCDCDC" fill-rule="nonzero" x="12" y="10" width="124" height="8"></rect>
                <g id="Small-arrow" transform="translate(160.485281, 16.485281) rotate(-135.000000) translate(-160.485281, -16.485281) translate(154.485281, 10.485281)" fill="#1A1A1A" fill-rule="nonzero">
                    <rect id="Rectangle-15" x="2" y="10" width="10" height="2"></rect>
                    <rect id="Rectangle-15" transform="translate(11.000000, 7.000000) rotate(-270.000000) translate(-11.000000, -7.000000) " x="6" y="6" width="10" height="2"></rect>
                </g>
                <rect id="Rectangle-17" fill="#F5F5F5" fill-rule="nonzero" x="0" y="28" width="180" height="2"></rect>
                <rect id="Rectangle-17" fill="#F5F5F5" fill-rule="nonzero" x="0" y="58" width="180" height="2"></rect>
                <rect id="Rectangle-17" fill="#F5F5F5" fill-rule="nonzero" x="0" y="88" width="180" height="2"></rect>
            </g>
        </g>
    </g>
</svg>