<?xml version="1.0" encoding="UTF-8"?>
<svg width="171px" height="87px" viewBox="0 0 171 87" version="1.1" xmlns="http://www.w3.org/2000/svg" xmlns:xlink="http://www.w3.org/1999/xlink">
    <!-- Generator: Sketch 53.2 (72643) - https://sketchapp.com -->
    <title>Skjul+vis (collapse)</title>
    <desc>Created with Sketch.</desc>
    <g id="Illustrationer" stroke="none" stroke-width="1" fill="none" fill-rule="evenodd">
        <g id="Overview_illustrationer_Ver02" transform="translate(-163.000000, -2366.000000)">
            <g id="Skjul+vis-(collapse)" transform="translate(163.000000, 2366.000000)">
                <polygon id="Rectangle-15" fill="#1A1A1A" fill-rule="nonzero" points="32 8 110 8 110 16 32 16"></polygon>
                <polygon id="Rectangle-15-Copy-2" fill="#FFFFFF" fill-rule="nonzero" points="32 29 171 29 171 37 32 37"></polygon>
                <polygon id="Rectangle-15-Copy-3" fill="#FFFFFF" fill-rule="nonzero" points="32 45 171 45 171 53 32 53"></polygon>
                <polygon id="Rectangle-15-Copy" fill="#1A1A1A" fill-rule="nonzero" points="3 26 7 26 7 58 3 58"></polygon>
                <polygon id="Rectangle-15" fill="#1A1A1A" fill-rule="nonzero" points="32 72 120 72 120 80 32 80"></polygon>
                <g id="Radio-button-/-Large-/-Checked">
                    <g id="Radio-button/Large/Marked">
                        <g id="Marked-radio-button">
                            <rect id="Bounding-box" x="0" y="0" width="24" height="24"></rect>
                            <path d="M12,22.2 C6.36669555,22.2 1.8,17.6333044 1.8,12 C1.8,6.36669555 6.36669555,1.8 12,1.8 C17.6333044,1.8 22.2,6.36669555 22.2,12 C22.2,17.6333044 17.6333044,22.2 12,22.2 Z" id="Radio" stroke="#1A1A1A" stroke-width="2" fill="#FFFFFF" fill-rule="nonzero"></path>
                            <path d="M12,18.2 C15.4241654,18.2 18.2,15.4241654 18.2,12 C18.2,8.57583455 15.4241654,5.8 12,5.8 C8.57583455,5.8 5.8,8.57583455 5.8,12 C5.8,15.4241654 8.57583455,18.2 12,18.2 Z" id="Path" fill="#1A1A1A" fill-rule="nonzero"></path>
                        </g>
                    </g>
                </g>
                <g id="Radio-button-/-Large-/-Unchecked-" transform="translate(0.000000, 65.000000)">
                    <g id="Radio-button/Large/Unmarked">
                        <g id="Marked-radio-button">
                            <rect id="Bounding-box" x="0" y="0" width="24" height="24"></rect>
                            <circle id="Oval-3" stroke="#1A1A1A" stroke-width="2" fill="#FFFFFF" fill-rule="nonzero" cx="12" cy="12" r="9"></circle>
                        </g>
                    </g>
                </g>
            </g>
        </g>
    </g>
</svg>