<svg xmlns="http://www.w3.org/2000/svg" width="191px" height="25px" viewBox="0 0 199 25"><title>Tags</title><g id="Illustrationer"><g id="Overview_illustrationer_Ver02" data-name="Overview illustrationer Ver02"><g id="Tags"><g id="Tag"><path d="M131.4,0h63.4A4.16,4.16,0,0,1,199,4.2V20.8a4.23,4.23,0,0,1-4.2,4.2H131.4a4.23,4.23,0,0,1-4.2-4.2V4.2A4.29,4.29,0,0,1,131.4,0Z" transform="translate(0 0)" style="fill:#1a1a1a;fill-rule:evenodd"/><path id="Elefant" d="M144.4,18H137V6.3h7.4V8h-5.6v3.1h5v1.7h-5v3.5h5.6Zm5.4,0h-1.2a1.63,1.63,0,0,1-1.8-1.8V5.6h1.8V16.4h1.2Zm5.1.2c-2.5,0-4-1.8-4-4.5s1.5-4.5,4-4.5,3.8,1.9,3.8,4.3v.7h-5.9v.3a2.15,2.15,0,0,0,2.3,2.3,2.53,2.53,0,0,0,2.3-1.3l1.1,1A4.32,4.32,0,0,1,154.9,18.2Zm0-7.7a2.11,2.11,0,0,0-2.1,2.3v.1h4v-.2C156.8,11.4,156.1,10.5,154.9,10.5Zm6.3,7.5V10.8h-1.3V9.3h1.3V7.9a2,2,0,0,1,2.2-2.2h1.4V7.2H163V9.4h1.8v1.5H163V18Zm12.6,0h-1a1.62,1.62,0,0,1-1.6-1.4h-.1a2.34,2.34,0,0,1-2.5,1.6,2.48,2.48,0,0,1-2.8-2.6c0-1.7,1.3-2.6,3.7-2.6H171v-.7a1.61,1.61,0,0,0-1.8-1.7,2.44,2.44,0,0,0-2.1,1.2l-1.1-1a3.53,3.53,0,0,1,3.3-1.7c2.2,0,3.5,1.1,3.5,3v4.3h.9V18Zm-4.7-1.2c1.1,0,1.9-.5,1.9-1.4V14.2h-1.5c-1.3,0-1.9.4-1.9,1.2v.3C167.6,16.4,168.2,16.8,169.1,16.8Zm8.2,1.2h-1.8V9.3h1.8v1.4h.1a2.45,2.45,0,0,1,2.4-1.6c1.8,0,2.8,1.2,2.8,3.4V18h-1.8V12.7c0-1.3-.5-2-1.6-2-.9,0-1.9.5-1.9,1.5Zm11.9,0h-1.6a1.74,1.74,0,0,1-1.9-1.9V10.8h-1.3V9.3h.6c.6,0,.8-.2.8-.8V6.9h1.6V9.3h1.8v1.5h-1.8v5.7h1.7V18Z" transform="translate(0 0)" style="fill:#fff;fill-rule:evenodd"/></g><path d="M4.5,0H114a4.36,4.36,0,0,1,4.5,4.2V20.8A4.36,4.36,0,0,1,114,25H4.5A4.36,4.36,0,0,1,0,20.8V4.2A4.36,4.36,0,0,1,4.5,0Z" transform="translate(0 0)" style="fill:#1a1a1a;fill-rule:evenodd"/><path id="Skilpadde" d="M13.2,18.2a5,5,0,0,1-4.2-2L10.3,15a3.69,3.69,0,0,0,3,1.5c1.5,0,2.2-.7,2.2-1.8,0-.9-.5-1.4-1.8-1.7l-1-.2c-2.2-.4-3.4-1.5-3.4-3.3,0-2.1,1.6-3.3,4.1-3.3A4.58,4.58,0,0,1,17.3,8L16,9.1a3.1,3.1,0,0,0-2.7-1.3c-1.3,0-2.1.5-2.1,1.6s.6,1.4,1.8,1.6l1,.2c2.3.4,3.4,1.5,3.4,3.3C17.4,16.7,15.9,18.2,13.2,18.2Zm6.4-.2V5.6h1.8v7.6h.1l1.2-1.5,2.1-2.3h2.1l-3,3.3L27.3,18H25.1l-2.5-4.1-1.2,1.3V18Zm10-10.2c-.7,0-1.1-.4-1.1-.9V6.5c0-.5.3-.9,1.1-.9s1.1.4,1.1.9v.3A1,1,0,0,1,29.6,7.8ZM28.7,18V9.3h1.8V18Zm7.4,0H34.9a1.63,1.63,0,0,1-1.8-1.8V5.6h1.8V16.4h1.2Zm11.7,3.3V9.3h1.8v1.4h.1a2.5,2.5,0,0,1,2.4-1.6c2.2,0,3.4,1.7,3.4,4.5s-1.3,4.5-3.4,4.5a2.41,2.41,0,0,1-2.4-1.6h-.1v4.8Zm3.8-4.7a2.08,2.08,0,0,0,2.1-2.2V12.9a2,2,0,0,0-2.1-2.2c-1.1,0-2,.6-2,1.5v3C49.6,16,50.5,16.6,51.6,16.6ZM65,18H64a1.62,1.62,0,0,1-1.6-1.4h-.1a2.34,2.34,0,0,1-2.5,1.6A2.48,2.48,0,0,1,57,15.6c0-1.7,1.3-2.6,3.7-2.6h1.6v-.7a1.61,1.61,0,0,0-1.8-1.7,2.44,2.44,0,0,0-2.1,1.2l-1.1-1a3.53,3.53,0,0,1,3.3-1.7c2.2,0,3.5,1.1,3.5,3v4.3H65Zm-4.6-1.2c1.1,0,1.9-.5,1.9-1.4V14.2H60.8c-1.3,0-1.9.4-1.9,1.2v.3C58.9,16.4,59.5,16.8,60.4,16.8ZM72.3,18V16.6h-.1a2.5,2.5,0,0,1-2.4,1.6c-2.2,0-3.4-1.7-3.4-4.5s1.3-4.5,3.4-4.5a2.41,2.41,0,0,1,2.4,1.6h.1V5.6h1.8V18Zm-2-1.4c1.1,0,2-.6,2-1.5v-3c0-.9-.9-1.5-2-1.5a2.08,2.08,0,0,0-2.1,2.2v1.5A2.05,2.05,0,0,0,70.3,16.6ZM82.1,18V16.6H82a2.5,2.5,0,0,1-2.4,1.6c-2.2,0-3.4-1.7-3.4-4.5s1.3-4.5,3.4-4.5A2.41,2.41,0,0,1,82,10.8h.1V5.6h1.8V18Zm-2-1.4c1.1,0,2-.6,2-1.5v-3c0-.9-.9-1.5-2-1.5A2.08,2.08,0,0,0,78,12.8v1.5C78.1,15.7,78.9,16.6,80.1,16.6Zm9.8,1.6c-2.5,0-4-1.8-4-4.5s1.5-4.5,4-4.5,3.8,1.9,3.8,4.3v.7H87.8v.3a2.15,2.15,0,0,0,2.3,2.3,2.53,2.53,0,0,0,2.3-1.3l1.1,1A4.32,4.32,0,0,1,89.9,18.2Zm0-7.7a2.11,2.11,0,0,0-2.1,2.3v.1h4v-.2C91.8,11.4,91.1,10.5,89.9,10.5ZM43.6,18.2V16.8h-.1a2.5,2.5,0,0,1-2.4,1.6c-2.2,0-3.4-1.7-3.4-4.5S39,9.4,41.1,9.4A2.41,2.41,0,0,1,43.5,11h.1V5.9h1.8V18.2Zm-1.9-1.4c1.1,0,2-.6,2-1.5v-3c0-.9-.9-1.5-2-1.5A2.08,2.08,0,0,0,39.6,13v1.5A2,2,0,0,0,41.7,16.8Z" transform="translate(0 0)" style="fill:#fff;fill-rule:evenodd"/><g id="Close-negative"><rect id="Bounding-box" x="93.58" width="25" height="25" style="fill:none"/><path id="Combined-Shape" d="M107.48,12.5l2.4-2.4-1.5-1.5L106,11l-2.4-2.4-1.5,1.5,2.4,2.4-2.4,2.4,1.5,1.5L106,14l2.4,2.4,1.5-1.5ZM106,19.8a7.3,7.3,0,1,1,7.3-7.3A7.34,7.34,0,0,1,106,19.8Z" transform="translate(0 0)" style="fill:#fff;fill-rule:evenodd"/></g></g></g></g></svg>
