<svg width="418" height="332" viewBox="0 0 418 332" fill="none" xmlns="http://www.w3.org/2000/svg">
<rect width="418" height="332" fill="white"/>
<path d="M16 192C16 189.791 17.7909 188 20 188H397C399.209 188 401 189.791 401 192V204C401 206.209 399.209 208 397 208H20C17.7909 208 16 206.209 16 204V192Z" fill="#DCDCDC"/>
<path d="M16 276C16 273.791 17.7909 272 20 272H397C399.209 272 401 273.791 401 276V288C401 290.209 399.209 292 397 292H20C17.7909 292 16 290.209 16 288V276Z" fill="#DCDCDC"/>
<path d="M16 216C16 213.791 17.7909 212 20 212H397C399.209 212 401 213.791 401 216V228C401 230.209 399.209 232 397 232H20C17.7909 232 16 230.209 16 228V216Z" fill="#DCDCDC"/>
<path d="M16 300C16 297.791 17.7909 296 20 296H300C302.209 296 304 297.791 304 300V312C304 314.209 302.209 316 300 316H20C17.7909 316 16 314.209 16 312V300Z" fill="#DCDCDC"/>
<path d="M16 84C16 81.7909 17.7909 80 20 80H398C400.209 80 402 81.7909 402 84V96C402 98.2091 400.209 100 398 100H20C17.7909 100 16 98.2091 16 96V84Z" fill="#DCDCDC"/>
<path d="M16 108C16 105.791 17.7909 104 20 104H398C400.209 104 402 105.791 402 108V120C402 122.209 400.209 124 398 124H20C17.7909 124 16 122.209 16 120V108Z" fill="#DCDCDC"/>
<path d="M16 132C16 129.791 17.7909 128 20 128H300C302.209 128 304 129.791 304 132V144C304 146.209 302.209 148 300 148H20C17.7909 148 16 146.209 16 144V132Z" fill="#DCDCDC"/>
<path d="M16 176C16 173.791 17.7909 172 20 172H130C132.209 172 134 173.791 134 176V180C134 182.209 132.209 184 130 184H20C17.7909 184 16 182.209 16 180V176Z" fill="#DCDCDC"/>
<path d="M16 260C16 257.791 17.7909 256 20 256H130C132.209 256 134 257.791 134 260V264C134 266.209 132.209 268 130 268H20C17.7909 268 16 266.209 16 264V260Z" fill="#DCDCDC"/>
<path d="M16 68C16 65.7909 17.7909 64 20 64H130C132.209 64 134 65.7909 134 68V72C134 74.2091 132.209 76 130 76H20C17.7909 76 16 74.2091 16 72V68Z" fill="#DCDCDC"/>
<path d="M355 24V21H347V24H345V19H357V24H355ZM357 28.5C357.283 28.5 357.521 28.4042 357.712 28.2125C357.904 28.0208 358 27.7833 358 27.5C358 27.2167 357.904 26.9792 357.712 26.7875C357.521 26.5958 357.283 26.5 357 26.5C356.717 26.5 356.479 26.5958 356.288 26.7875C356.096 26.9792 356 27.2167 356 27.5C356 27.7833 356.096 28.0208 356.288 28.2125C356.479 28.4042 356.717 28.5 357 28.5ZM355 35V31H347V35H355ZM357 37H345V33H341V27C341 26.15 341.292 25.4375 341.875 24.8625C342.458 24.2875 343.167 24 344 24H358C358.85 24 359.562 24.2875 360.138 24.8625C360.713 25.4375 361 26.15 361 27V33H357V37ZM359 31V27C359 26.7167 358.904 26.4792 358.712 26.2875C358.521 26.0958 358.283 26 358 26H344C343.717 26 343.479 26.0958 343.288 26.2875C343.096 26.4792 343 26.7167 343 27V31H345V29H357V31H359Z" fill="#1A1A1A"/>
<path d="M368.488 34V22.832H372.936C373.939 22.832 374.707 23.12 375.24 23.696C375.784 24.2613 376.056 25.04 376.056 26.032C376.056 27.024 375.784 27.808 375.24 28.384C374.707 28.9493 373.939 29.232 372.936 29.232H369.832V34H368.488ZM369.832 28.048H372.936C373.469 28.048 373.88 27.9093 374.168 27.632C374.467 27.3547 374.616 26.96 374.616 26.448V25.616C374.616 25.104 374.467 24.7093 374.168 24.432C373.88 24.1547 373.469 24.016 372.936 24.016H369.832V28.048ZM377.907 34V25.744H379.187V27.264H379.267C379.416 26.8693 379.683 26.5173 380.067 26.208C380.451 25.8987 380.979 25.744 381.651 25.744H382.147V27.024H381.395C380.702 27.024 380.158 27.1573 379.763 27.424C379.379 27.68 379.187 28.0053 379.187 28.4V34H377.907ZM384.422 23.808C384.145 23.808 383.942 23.744 383.814 23.616C383.697 23.4773 383.638 23.3013 383.638 23.088V22.88C383.638 22.6667 383.697 22.496 383.814 22.368C383.942 22.2293 384.145 22.16 384.422 22.16C384.699 22.16 384.897 22.2293 385.014 22.368C385.142 22.496 385.206 22.6667 385.206 22.88V23.088C385.206 23.3013 385.142 23.4773 385.014 23.616C384.897 23.744 384.699 23.808 384.422 23.808ZM383.782 25.744H385.062V34H383.782V25.744ZM387.782 34V25.744H389.062V27.088H389.126C389.329 26.6187 389.611 26.2453 389.974 25.968C390.347 25.6907 390.843 25.552 391.462 25.552C392.315 25.552 392.987 25.8293 393.478 26.384C393.979 26.928 394.23 27.7013 394.23 28.704V34H392.95V28.928C392.95 27.4453 392.326 26.704 391.078 26.704C390.822 26.704 390.571 26.736 390.326 26.8C390.091 26.864 389.878 26.96 389.686 27.088C389.494 27.216 389.339 27.3813 389.222 27.584C389.115 27.776 389.062 28.0053 389.062 28.272V34H387.782ZM398.7 34C398.252 34 397.91 33.8773 397.676 33.632C397.452 33.376 397.34 33.0453 397.34 32.64V26.864H395.98V25.744H396.748C397.025 25.744 397.212 25.6907 397.308 25.584C397.414 25.4667 397.468 25.2693 397.468 24.992V23.456H398.62V25.744H400.428V26.864H398.62V32.88H400.3V34H398.7Z" fill="#1A1A1A"/>
<path d="M367 36H401.132V36.96H367V36Z" fill="#1A1A1A"/>
</svg>
