<svg width="418" height="56" viewBox="0 0 418 56" fill="none" xmlns="http://www.w3.org/2000/svg">
<rect width="418" height="56" fill="white"/>
<path d="M16 28C16 21.3726 21.3726 16 28 16H62C68.6274 16 74 21.3726 74 28C74 34.6274 68.6274 40 62 40H28C21.3726 40 16 34.6274 16 28Z" fill="#454545"/>
<path d="M27.952 34L24.288 22.832H26.16L27.936 28.352L29.008 32.24H29.072L30.16 28.352L31.936 22.832H33.76L30.048 34H27.952ZM36.1749 24.192C35.8122 24.192 35.5455 24.1067 35.3749 23.936C35.2149 23.7653 35.1349 23.5467 35.1349 23.28V23.008C35.1349 22.7413 35.2149 22.5227 35.3749 22.352C35.5455 22.1813 35.8122 22.096 36.1749 22.096C36.5375 22.096 36.7989 22.1813 36.9589 22.352C37.1189 22.5227 37.1989 22.7413 37.1989 23.008V23.28C37.1989 23.5467 37.1189 23.7653 36.9589 23.936C36.7989 24.1067 36.5375 24.192 36.1749 24.192ZM35.2949 25.68H37.0389V34H35.2949V25.68ZM44.7613 32.624H44.6813C44.4999 33.1147 44.2013 33.4987 43.7853 33.776C43.3799 34.0533 42.8999 34.192 42.3453 34.192C41.2893 34.192 40.4733 33.8133 39.8973 33.056C39.3213 32.288 39.0333 31.216 39.0333 29.84C39.0333 28.464 39.3213 27.3973 39.8973 26.64C40.4733 25.872 41.2893 25.488 42.3453 25.488C42.8999 25.488 43.3799 25.6267 43.7853 25.904C44.2013 26.1707 44.4999 26.5547 44.6813 27.056H44.7613V22.16H46.5052V34H44.7613V32.624ZM42.8733 32.688C43.4066 32.688 43.8546 32.56 44.2173 32.304C44.5799 32.0373 44.7613 31.6907 44.7613 31.264V28.416C44.7613 27.9893 44.5799 27.648 44.2173 27.392C43.8546 27.1253 43.4066 26.992 42.8733 26.992C42.2653 26.992 41.7799 27.1893 41.4173 27.584C41.0546 27.968 40.8733 28.48 40.8733 29.12V30.56C40.8733 31.2 41.0546 31.7173 41.4173 32.112C41.7799 32.496 42.2653 32.688 42.8733 32.688ZM52.262 34.192C51.6647 34.192 51.1313 34.0907 50.662 33.888C50.1927 33.6853 49.7927 33.3973 49.462 33.024C49.1313 32.64 48.8753 32.1813 48.694 31.648C48.5233 31.104 48.438 30.5013 48.438 29.84C48.438 29.1787 48.5233 28.5813 48.694 28.048C48.8753 27.504 49.1313 27.0453 49.462 26.672C49.7927 26.288 50.1927 25.9947 50.662 25.792C51.1313 25.5893 51.6647 25.488 52.262 25.488C52.87 25.488 53.4033 25.5947 53.862 25.808C54.3313 26.0213 54.7207 26.32 55.03 26.704C55.3393 27.0773 55.5687 27.5147 55.718 28.016C55.878 28.5173 55.958 29.056 55.958 29.632V30.288H50.246V30.56C50.246 31.2 50.4327 31.728 50.806 32.144C51.19 32.5493 51.734 32.752 52.438 32.752C52.95 32.752 53.382 32.64 53.734 32.416C54.086 32.192 54.3847 31.888 54.63 31.504L55.654 32.512C55.3447 33.024 54.8967 33.4347 54.31 33.744C53.7233 34.0427 53.0407 34.192 52.262 34.192ZM52.262 26.848C51.9633 26.848 51.686 26.9013 51.43 27.008C51.1847 27.1147 50.9713 27.264 50.79 27.456C50.6193 27.648 50.486 27.8773 50.39 28.144C50.294 28.4107 50.246 28.704 50.246 29.024V29.136H54.118V28.976C54.118 28.336 53.9527 27.824 53.622 27.44C53.2913 27.0453 52.838 26.848 52.262 26.848ZM61.1526 34.192C60.5766 34.192 60.0486 34.0907 59.5686 33.888C59.0993 33.6853 58.6993 33.3973 58.3686 33.024C58.038 32.64 57.782 32.1813 57.6006 31.648C57.4193 31.104 57.3286 30.5013 57.3286 29.84C57.3286 29.1787 57.4193 28.5813 57.6006 28.048C57.782 27.504 58.038 27.0453 58.3686 26.672C58.6993 26.288 59.0993 25.9947 59.5686 25.792C60.0486 25.5893 60.5766 25.488 61.1526 25.488C61.7286 25.488 62.2513 25.5893 62.7206 25.792C63.2006 25.9947 63.606 26.288 63.9366 26.672C64.2673 27.0453 64.5233 27.504 64.7046 28.048C64.886 28.5813 64.9766 29.1787 64.9766 29.84C64.9766 30.5013 64.886 31.104 64.7046 31.648C64.5233 32.1813 64.2673 32.64 63.9366 33.024C63.606 33.3973 63.2006 33.6853 62.7206 33.888C62.2513 34.0907 61.7286 34.192 61.1526 34.192ZM61.1526 32.752C61.75 32.752 62.23 32.5707 62.5926 32.208C62.9553 31.8347 63.1366 31.28 63.1366 30.544V29.136C63.1366 28.4 62.9553 27.8507 62.5926 27.488C62.23 27.1147 61.75 26.928 61.1526 26.928C60.5553 26.928 60.0753 27.1147 59.7126 27.488C59.35 27.8507 59.1686 28.4 59.1686 29.136V30.544C59.1686 31.28 59.35 31.8347 59.7126 32.208C60.0753 32.5707 60.5553 32.752 61.1526 32.752Z" fill="white"/>
<path d="M82 28C82 21.3726 87.3726 16 94 16H106C112.627 16 118 21.3726 118 28C118 34.6274 112.627 40 106 40H94C87.3726 40 82 34.6274 82 28Z" fill="#454545"/>
<path d="M94.384 27.824L93.152 25.456H93.104V34H91.376V22.832H93.392L97.04 29.008L98.272 31.376H98.32V22.832H100.048V34H98.032L94.384 27.824ZM107.774 25.68H109.454L105.95 35.648C105.854 35.9253 105.742 36.16 105.614 36.352C105.497 36.5547 105.353 36.7147 105.182 36.832C105.022 36.96 104.825 37.0507 104.59 37.104C104.355 37.168 104.078 37.2 103.758 37.2H102.75V35.776H104.158L104.638 34.368L101.614 25.68H103.358L105.022 30.576L105.502 32.384H105.582L106.11 30.576L107.774 25.68Z" fill="white"/>
<path d="M126 28C126 21.3726 131.373 16 138 16H218C224.627 16 230 21.3726 230 28C230 34.6274 224.627 40 218 40H138C131.373 40 126 34.6274 126 28Z" fill="#454545"/>
<path d="M135.376 22.832H140.32C141.248 22.832 141.973 23.0933 142.496 23.616C143.029 24.1387 143.296 24.8373 143.296 25.712C143.296 26.128 143.237 26.4853 143.12 26.784C143.003 27.072 142.853 27.312 142.672 27.504C142.491 27.6853 142.283 27.824 142.048 27.92C141.813 28.0053 141.584 28.0587 141.36 28.08V28.176C141.584 28.1867 141.829 28.24 142.096 28.336C142.373 28.432 142.629 28.5867 142.864 28.8C143.099 29.0027 143.296 29.2693 143.456 29.6C143.616 29.92 143.696 30.3147 143.696 30.784C143.696 31.232 143.621 31.6533 143.472 32.048C143.333 32.4427 143.136 32.784 142.88 33.072C142.624 33.36 142.32 33.5893 141.968 33.76C141.616 33.92 141.232 34 140.816 34H135.376V22.832ZM137.184 32.448H140.288C140.757 32.448 141.125 32.3253 141.392 32.08C141.659 31.8347 141.792 31.4827 141.792 31.024V30.48C141.792 30.0213 141.659 29.6693 141.392 29.424C141.125 29.1787 140.757 29.056 140.288 29.056H137.184V32.448ZM137.184 27.552H139.984C140.432 27.552 140.779 27.44 141.024 27.216C141.269 26.9813 141.392 26.6507 141.392 26.224V25.712C141.392 25.2853 141.269 24.96 141.024 24.736C140.779 24.5013 140.432 24.384 139.984 24.384H137.184V27.552ZM144.963 33.984L146.035 32.656C145.79 32.2827 145.603 31.8667 145.475 31.408C145.347 30.9387 145.283 30.416 145.283 29.84C145.283 29.1787 145.374 28.5813 145.555 28.048C145.736 27.504 145.992 27.0453 146.323 26.672C146.654 26.288 147.054 25.9947 147.523 25.792C148.003 25.5893 148.531 25.488 149.107 25.488C149.95 25.488 150.686 25.712 151.315 26.16L152.291 24.976L153.251 25.696L152.163 27.04C152.408 27.4027 152.595 27.8187 152.723 28.288C152.862 28.7573 152.931 29.2747 152.931 29.84C152.931 30.5013 152.84 31.104 152.659 31.648C152.478 32.1813 152.222 32.64 151.891 33.024C151.56 33.3973 151.155 33.6853 150.675 33.888C150.206 34.0907 149.683 34.192 149.107 34.192C148.67 34.192 148.264 34.1333 147.891 34.016C147.528 33.9093 147.198 33.7493 146.899 33.536L145.923 34.704L144.963 33.984ZM149.107 32.8C149.715 32.8 150.2 32.608 150.563 32.224C150.936 31.8293 151.123 31.2587 151.123 30.512V29.168C151.123 28.88 151.091 28.6133 151.027 28.368L147.779 32.352C148.11 32.6507 148.552 32.8 149.107 32.8ZM147.091 30.512C147.091 30.8107 147.123 31.0773 147.187 31.312L150.435 27.344C150.072 27.0347 149.63 26.88 149.107 26.88C148.499 26.88 148.008 27.0773 147.635 27.472C147.272 27.856 147.091 28.4213 147.091 29.168V30.512ZM154.92 34V25.68H156.664V27.28H156.744C156.861 26.8533 157.107 26.48 157.48 26.16C157.853 25.84 158.371 25.68 159.032 25.68H159.496V27.36H158.808C158.115 27.36 157.581 27.472 157.208 27.696C156.845 27.92 156.664 28.2507 156.664 28.688V34H154.92ZM161.045 34V25.68H162.789V27.056H162.869C163.05 26.608 163.322 26.2347 163.685 25.936C164.058 25.6373 164.565 25.488 165.205 25.488C166.058 25.488 166.72 25.7707 167.189 26.336C167.669 26.8907 167.909 27.6853 167.909 28.72V34H166.165V28.944C166.165 27.6427 165.642 26.992 164.597 26.992C164.373 26.992 164.149 27.024 163.925 27.088C163.712 27.1413 163.52 27.2267 163.349 27.344C163.178 27.4613 163.04 27.6107 162.933 27.792C162.837 27.9733 162.789 28.1867 162.789 28.432V34H161.045ZM173.59 34.192C172.993 34.192 172.459 34.0907 171.99 33.888C171.521 33.6853 171.121 33.3973 170.79 33.024C170.459 32.64 170.203 32.1813 170.022 31.648C169.851 31.104 169.766 30.5013 169.766 29.84C169.766 29.1787 169.851 28.5813 170.022 28.048C170.203 27.504 170.459 27.0453 170.79 26.672C171.121 26.288 171.521 25.9947 171.99 25.792C172.459 25.5893 172.993 25.488 173.59 25.488C174.198 25.488 174.731 25.5947 175.19 25.808C175.659 26.0213 176.049 26.32 176.358 26.704C176.667 27.0773 176.897 27.5147 177.046 28.016C177.206 28.5173 177.286 29.056 177.286 29.632V30.288H171.574V30.56C171.574 31.2 171.761 31.728 172.134 32.144C172.518 32.5493 173.062 32.752 173.766 32.752C174.278 32.752 174.71 32.64 175.062 32.416C175.414 32.192 175.713 31.888 175.958 31.504L176.982 32.512C176.673 33.024 176.225 33.4347 175.638 33.744C175.051 34.0427 174.369 34.192 173.59 34.192ZM173.59 26.848C173.291 26.848 173.014 26.9013 172.758 27.008C172.513 27.1147 172.299 27.264 172.118 27.456C171.947 27.648 171.814 27.8773 171.718 28.144C171.622 28.4107 171.574 28.704 171.574 29.024V29.136H175.446V28.976C175.446 28.336 175.281 27.824 174.95 27.44C174.619 27.0453 174.166 26.848 173.59 26.848ZM180.884 34L178.052 25.68H179.78L181.044 29.472L181.892 32.384H181.988L182.836 29.472L184.132 25.68H185.796L182.932 34H180.884ZM190.403 34.192C189.805 34.192 189.272 34.0907 188.803 33.888C188.333 33.6853 187.933 33.3973 187.603 33.024C187.272 32.64 187.016 32.1813 186.835 31.648C186.664 31.104 186.579 30.5013 186.579 29.84C186.579 29.1787 186.664 28.5813 186.835 28.048C187.016 27.504 187.272 27.0453 187.603 26.672C187.933 26.288 188.333 25.9947 188.803 25.792C189.272 25.5893 189.805 25.488 190.403 25.488C191.011 25.488 191.544 25.5947 192.003 25.808C192.472 26.0213 192.861 26.32 193.171 26.704C193.48 27.0773 193.709 27.5147 193.859 28.016C194.019 28.5173 194.099 29.056 194.099 29.632V30.288H188.387V30.56C188.387 31.2 188.573 31.728 188.947 32.144C189.331 32.5493 189.875 32.752 190.579 32.752C191.091 32.752 191.523 32.64 191.875 32.416C192.227 32.192 192.525 31.888 192.771 31.504L193.795 32.512C193.485 33.024 193.037 33.4347 192.451 33.744C191.864 34.0427 191.181 34.192 190.403 34.192ZM190.403 26.848C190.104 26.848 189.827 26.9013 189.571 27.008C189.325 27.1147 189.112 27.264 188.931 27.456C188.76 27.648 188.627 27.8773 188.531 28.144C188.435 28.4107 188.387 28.704 188.387 29.024V29.136H192.259V28.976C192.259 28.336 192.093 27.824 191.763 27.44C191.432 27.0453 190.979 26.848 190.403 26.848ZM196.029 34V25.68H197.773V27.056H197.853C198.035 26.608 198.307 26.2347 198.669 25.936C199.043 25.6373 199.549 25.488 200.189 25.488C201.043 25.488 201.704 25.7707 202.173 26.336C202.653 26.8907 202.893 27.6853 202.893 28.72V34H201.149V28.944C201.149 27.6427 200.627 26.992 199.581 26.992C199.357 26.992 199.133 27.024 198.909 27.088C198.696 27.1413 198.504 27.2267 198.333 27.344C198.163 27.4613 198.024 27.6107 197.917 27.792C197.821 27.9733 197.773 28.1867 197.773 28.432V34H196.029ZM207.087 34C206.489 34 206.041 33.8507 205.743 33.552C205.455 33.2427 205.311 32.816 205.311 32.272V22.16H207.055V32.576H208.207V34H207.087ZM210.753 24.192C210.39 24.192 210.124 24.1067 209.953 23.936C209.793 23.7653 209.713 23.5467 209.713 23.28V23.008C209.713 22.7413 209.793 22.5227 209.953 22.352C210.124 22.1813 210.39 22.096 210.753 22.096C211.116 22.096 211.377 22.1813 211.537 22.352C211.697 22.5227 211.777 22.7413 211.777 23.008V23.28C211.777 23.5467 211.697 23.7653 211.537 23.936C211.377 24.1067 211.116 24.192 210.753 24.192ZM209.873 25.68H211.617V34H209.873V25.68ZM221.403 34.784C221.403 35.648 221.073 36.2987 220.411 36.736C219.75 37.1733 218.673 37.392 217.179 37.392C216.497 37.392 215.915 37.344 215.435 37.248C214.966 37.1627 214.577 37.0347 214.267 36.864C213.969 36.6933 213.75 36.4853 213.611 36.24C213.473 35.9947 213.403 35.712 213.403 35.392C213.403 34.9333 213.526 34.576 213.771 34.32C214.027 34.064 214.379 33.888 214.827 33.792V33.616C214.198 33.4133 213.883 32.9867 213.883 32.336C213.883 31.9093 214.027 31.584 214.315 31.36C214.603 31.1253 214.95 30.96 215.355 30.864V30.8C214.865 30.5653 214.486 30.24 214.219 29.824C213.963 29.3973 213.835 28.9013 213.835 28.336C213.835 27.4827 214.118 26.7947 214.683 26.272C215.259 25.7493 216.081 25.488 217.147 25.488C217.734 25.488 218.235 25.5733 218.651 25.744V25.52C218.651 25.1467 218.737 24.8587 218.907 24.656C219.089 24.4427 219.366 24.336 219.739 24.336H221.019V25.744H219.323V26.08C219.697 26.3253 219.985 26.6453 220.187 27.04C220.39 27.424 220.491 27.856 220.491 28.336C220.491 29.1787 220.203 29.8613 219.627 30.384C219.051 30.896 218.23 31.152 217.163 31.152C216.758 31.152 216.395 31.1093 216.075 31.024C215.862 31.0987 215.675 31.2053 215.515 31.344C215.355 31.472 215.275 31.6427 215.275 31.856C215.275 32.08 215.377 32.24 215.579 32.336C215.782 32.432 216.07 32.48 216.443 32.48H218.491C219.515 32.48 220.257 32.688 220.715 33.104C221.174 33.5093 221.403 34.0693 221.403 34.784ZM219.771 34.976C219.771 34.688 219.659 34.4587 219.435 34.288C219.222 34.1173 218.827 34.032 218.251 34.032H215.435C215.051 34.256 214.859 34.576 214.859 34.992C214.859 35.3333 214.993 35.6053 215.259 35.808C215.537 36.0213 216.001 36.128 216.651 36.128H217.739C219.094 36.128 219.771 35.744 219.771 34.976ZM217.163 29.888C217.675 29.888 218.07 29.776 218.347 29.552C218.635 29.3173 218.779 28.96 218.779 28.48V28.16C218.779 27.68 218.635 27.328 218.347 27.104C218.07 26.8693 217.675 26.752 217.163 26.752C216.651 26.752 216.251 26.8693 215.963 27.104C215.686 27.328 215.547 27.68 215.547 28.16V28.48C215.547 28.96 215.686 29.3173 215.963 29.552C216.251 29.776 216.651 29.888 217.163 29.888Z" fill="white"/>
</svg>
