<svg width="418" height="56" viewBox="0 0 418 56" fill="none" xmlns="http://www.w3.org/2000/svg">
<rect width="418" height="56" fill="white"/>
<path d="M16 20C16 17.7909 17.7909 16 20 16H48C50.2091 16 52 17.7909 52 20V36C52 38.2091 50.2091 40 48 40H20C17.7909 40 16 38.2091 16 36V20Z" fill="#454545"/>
<path d="M28.384 27.824L27.152 25.456H27.104V34H25.376V22.832H27.392L31.04 29.008L32.272 31.376H32.32V22.832H34.048V34H32.032L28.384 27.824ZM41.7739 25.68H43.4539L39.9499 35.648C39.8539 35.9253 39.7419 36.16 39.6139 36.352C39.4965 36.5547 39.3525 36.7147 39.1819 36.832C39.0219 36.96 38.8245 37.0507 38.5899 37.104C38.3552 37.168 38.0779 37.2 37.7579 37.2H36.7499V35.776H38.1579L38.6379 34.368L35.6139 25.68H37.3579L39.0219 30.576L39.5019 32.384H39.5819L40.1099 30.576L41.7739 25.68Z" fill="white"/>
<path d="M60 20C60 17.7909 61.7909 16 64 16H160C162.209 16 164 17.7909 164 20V36C164 38.2091 162.209 40 160 40H64C61.7909 40 60 38.2091 60 36V20Z" fill="#454545"/>
<path d="M69.376 22.832H74.32C75.248 22.832 75.9733 23.0933 76.496 23.616C77.0293 24.1387 77.296 24.8373 77.296 25.712C77.296 26.128 77.2373 26.4853 77.12 26.784C77.0027 27.072 76.8533 27.312 76.672 27.504C76.4907 27.6853 76.2827 27.824 76.048 27.92C75.8133 28.0053 75.584 28.0587 75.36 28.08V28.176C75.584 28.1867 75.8293 28.24 76.096 28.336C76.3733 28.432 76.6293 28.5867 76.864 28.8C77.0987 29.0027 77.296 29.2693 77.456 29.6C77.616 29.92 77.696 30.3147 77.696 30.784C77.696 31.232 77.6213 31.6533 77.472 32.048C77.3333 32.4427 77.136 32.784 76.88 33.072C76.624 33.36 76.32 33.5893 75.968 33.76C75.616 33.92 75.232 34 74.816 34H69.376V22.832ZM71.184 32.448H74.288C74.7573 32.448 75.1253 32.3253 75.392 32.08C75.6587 31.8347 75.792 31.4827 75.792 31.024V30.48C75.792 30.0213 75.6587 29.6693 75.392 29.424C75.1253 29.1787 74.7573 29.056 74.288 29.056H71.184V32.448ZM71.184 27.552H73.984C74.432 27.552 74.7787 27.44 75.024 27.216C75.2693 26.9813 75.392 26.6507 75.392 26.224V25.712C75.392 25.2853 75.2693 24.96 75.024 24.736C74.7787 24.5013 74.432 24.384 73.984 24.384H71.184V27.552ZM78.9629 33.984L80.0349 32.656C79.7895 32.2827 79.6029 31.8667 79.4749 31.408C79.3469 30.9387 79.2829 30.416 79.2829 29.84C79.2829 29.1787 79.3735 28.5813 79.5549 28.048C79.7362 27.504 79.9922 27.0453 80.3229 26.672C80.6535 26.288 81.0535 25.9947 81.5229 25.792C82.0029 25.5893 82.5309 25.488 83.1069 25.488C83.9495 25.488 84.6855 25.712 85.3149 26.16L86.2909 24.976L87.2509 25.696L86.1629 27.04C86.4082 27.4027 86.5949 27.8187 86.7229 28.288C86.8615 28.7573 86.9309 29.2747 86.9309 29.84C86.9309 30.5013 86.8402 31.104 86.6589 31.648C86.4775 32.1813 86.2215 32.64 85.8909 33.024C85.5602 33.3973 85.1549 33.6853 84.6749 33.888C84.2055 34.0907 83.6829 34.192 83.1069 34.192C82.6695 34.192 82.2642 34.1333 81.8909 34.016C81.5282 33.9093 81.1975 33.7493 80.8989 33.536L79.9229 34.704L78.9629 33.984ZM83.1069 32.8C83.7149 32.8 84.2002 32.608 84.5629 32.224C84.9362 31.8293 85.1229 31.2587 85.1229 30.512V29.168C85.1229 28.88 85.0909 28.6133 85.0269 28.368L81.7789 32.352C82.1095 32.6507 82.5522 32.8 83.1069 32.8ZM81.0909 30.512C81.0909 30.8107 81.1229 31.0773 81.1869 31.312L84.4349 27.344C84.0722 27.0347 83.6295 26.88 83.1069 26.88C82.4989 26.88 82.0082 27.0773 81.6349 27.472C81.2722 27.856 81.0909 28.4213 81.0909 29.168V30.512ZM88.9199 34V25.68H90.6639V27.28H90.7439C90.8612 26.8533 91.1065 26.48 91.4799 26.16C91.8532 25.84 92.3705 25.68 93.0319 25.68H93.4959V27.36H92.8079C92.1145 27.36 91.5812 27.472 91.2079 27.696C90.8452 27.92 90.6639 28.2507 90.6639 28.688V34H88.9199ZM95.0449 34V25.68H96.7889V27.056H96.8689C97.0502 26.608 97.3222 26.2347 97.6849 25.936C98.0582 25.6373 98.5649 25.488 99.2049 25.488C100.058 25.488 100.72 25.7707 101.189 26.336C101.669 26.8907 101.909 27.6853 101.909 28.72V34H100.165V28.944C100.165 27.6427 99.6422 26.992 98.5969 26.992C98.3729 26.992 98.1489 27.024 97.9249 27.088C97.7115 27.1413 97.5195 27.2267 97.3489 27.344C97.1782 27.4613 97.0395 27.6107 96.9329 27.792C96.8369 27.9733 96.7889 28.1867 96.7889 28.432V34H95.0449ZM107.59 34.192C106.993 34.192 106.459 34.0907 105.99 33.888C105.521 33.6853 105.121 33.3973 104.79 33.024C104.459 32.64 104.203 32.1813 104.022 31.648C103.851 31.104 103.766 30.5013 103.766 29.84C103.766 29.1787 103.851 28.5813 104.022 28.048C104.203 27.504 104.459 27.0453 104.79 26.672C105.121 26.288 105.521 25.9947 105.99 25.792C106.459 25.5893 106.993 25.488 107.59 25.488C108.198 25.488 108.731 25.5947 109.19 25.808C109.659 26.0213 110.049 26.32 110.358 26.704C110.667 27.0773 110.897 27.5147 111.046 28.016C111.206 28.5173 111.286 29.056 111.286 29.632V30.288H105.574V30.56C105.574 31.2 105.761 31.728 106.134 32.144C106.518 32.5493 107.062 32.752 107.766 32.752C108.278 32.752 108.71 32.64 109.062 32.416C109.414 32.192 109.713 31.888 109.958 31.504L110.982 32.512C110.673 33.024 110.225 33.4347 109.638 33.744C109.051 34.0427 108.369 34.192 107.59 34.192ZM107.59 26.848C107.291 26.848 107.014 26.9013 106.758 27.008C106.513 27.1147 106.299 27.264 106.118 27.456C105.947 27.648 105.814 27.8773 105.718 28.144C105.622 28.4107 105.574 28.704 105.574 29.024V29.136H109.446V28.976C109.446 28.336 109.281 27.824 108.95 27.44C108.619 27.0453 108.166 26.848 107.59 26.848ZM114.884 34L112.052 25.68H113.78L115.044 29.472L115.892 32.384H115.988L116.836 29.472L118.132 25.68H119.796L116.932 34H114.884ZM124.403 34.192C123.805 34.192 123.272 34.0907 122.803 33.888C122.333 33.6853 121.933 33.3973 121.603 33.024C121.272 32.64 121.016 32.1813 120.835 31.648C120.664 31.104 120.579 30.5013 120.579 29.84C120.579 29.1787 120.664 28.5813 120.835 28.048C121.016 27.504 121.272 27.0453 121.603 26.672C121.933 26.288 122.333 25.9947 122.803 25.792C123.272 25.5893 123.805 25.488 124.403 25.488C125.011 25.488 125.544 25.5947 126.003 25.808C126.472 26.0213 126.861 26.32 127.171 26.704C127.48 27.0773 127.709 27.5147 127.859 28.016C128.019 28.5173 128.099 29.056 128.099 29.632V30.288H122.387V30.56C122.387 31.2 122.573 31.728 122.947 32.144C123.331 32.5493 123.875 32.752 124.579 32.752C125.091 32.752 125.523 32.64 125.875 32.416C126.227 32.192 126.525 31.888 126.771 31.504L127.795 32.512C127.485 33.024 127.037 33.4347 126.451 33.744C125.864 34.0427 125.181 34.192 124.403 34.192ZM124.403 26.848C124.104 26.848 123.827 26.9013 123.571 27.008C123.325 27.1147 123.112 27.264 122.931 27.456C122.76 27.648 122.627 27.8773 122.531 28.144C122.435 28.4107 122.387 28.704 122.387 29.024V29.136H126.259V28.976C126.259 28.336 126.093 27.824 125.763 27.44C125.432 27.0453 124.979 26.848 124.403 26.848ZM130.029 34V25.68H131.773V27.056H131.853C132.035 26.608 132.307 26.2347 132.669 25.936C133.043 25.6373 133.549 25.488 134.189 25.488C135.043 25.488 135.704 25.7707 136.173 26.336C136.653 26.8907 136.893 27.6853 136.893 28.72V34H135.149V28.944C135.149 27.6427 134.627 26.992 133.581 26.992C133.357 26.992 133.133 27.024 132.909 27.088C132.696 27.1413 132.504 27.2267 132.333 27.344C132.163 27.4613 132.024 27.6107 131.917 27.792C131.821 27.9733 131.773 28.1867 131.773 28.432V34H130.029ZM141.087 34C140.489 34 140.041 33.8507 139.743 33.552C139.455 33.2427 139.311 32.816 139.311 32.272V22.16H141.055V32.576H142.207V34H141.087ZM144.753 24.192C144.39 24.192 144.124 24.1067 143.953 23.936C143.793 23.7653 143.713 23.5467 143.713 23.28V23.008C143.713 22.7413 143.793 22.5227 143.953 22.352C144.124 22.1813 144.39 22.096 144.753 22.096C145.116 22.096 145.377 22.1813 145.537 22.352C145.697 22.5227 145.777 22.7413 145.777 23.008V23.28C145.777 23.5467 145.697 23.7653 145.537 23.936C145.377 24.1067 145.116 24.192 144.753 24.192ZM143.873 25.68H145.617V34H143.873V25.68ZM155.403 34.784C155.403 35.648 155.073 36.2987 154.411 36.736C153.75 37.1733 152.673 37.392 151.179 37.392C150.497 37.392 149.915 37.344 149.435 37.248C148.966 37.1627 148.577 37.0347 148.267 36.864C147.969 36.6933 147.75 36.4853 147.611 36.24C147.473 35.9947 147.403 35.712 147.403 35.392C147.403 34.9333 147.526 34.576 147.771 34.32C148.027 34.064 148.379 33.888 148.827 33.792V33.616C148.198 33.4133 147.883 32.9867 147.883 32.336C147.883 31.9093 148.027 31.584 148.315 31.36C148.603 31.1253 148.95 30.96 149.355 30.864V30.8C148.865 30.5653 148.486 30.24 148.219 29.824C147.963 29.3973 147.835 28.9013 147.835 28.336C147.835 27.4827 148.118 26.7947 148.683 26.272C149.259 25.7493 150.081 25.488 151.147 25.488C151.734 25.488 152.235 25.5733 152.651 25.744V25.52C152.651 25.1467 152.737 24.8587 152.907 24.656C153.089 24.4427 153.366 24.336 153.739 24.336H155.019V25.744H153.323V26.08C153.697 26.3253 153.985 26.6453 154.187 27.04C154.39 27.424 154.491 27.856 154.491 28.336C154.491 29.1787 154.203 29.8613 153.627 30.384C153.051 30.896 152.23 31.152 151.163 31.152C150.758 31.152 150.395 31.1093 150.075 31.024C149.862 31.0987 149.675 31.2053 149.515 31.344C149.355 31.472 149.275 31.6427 149.275 31.856C149.275 32.08 149.377 32.24 149.579 32.336C149.782 32.432 150.07 32.48 150.443 32.48H152.491C153.515 32.48 154.257 32.688 154.715 33.104C155.174 33.5093 155.403 34.0693 155.403 34.784ZM153.771 34.976C153.771 34.688 153.659 34.4587 153.435 34.288C153.222 34.1173 152.827 34.032 152.251 34.032H149.435C149.051 34.256 148.859 34.576 148.859 34.992C148.859 35.3333 148.993 35.6053 149.259 35.808C149.537 36.0213 150.001 36.128 150.651 36.128H151.739C153.094 36.128 153.771 35.744 153.771 34.976ZM151.163 29.888C151.675 29.888 152.07 29.776 152.347 29.552C152.635 29.3173 152.779 28.96 152.779 28.48V28.16C152.779 27.68 152.635 27.328 152.347 27.104C152.07 26.8693 151.675 26.752 151.163 26.752C150.651 26.752 150.251 26.8693 149.963 27.104C149.686 27.328 149.547 27.68 149.547 28.16V28.48C149.547 28.96 149.686 29.3173 149.963 29.552C150.251 29.776 150.651 29.888 151.163 29.888Z" fill="white"/>
<path d="M172 20C172 17.7909 173.791 16 176 16H226C228.209 16 230 17.7909 230 20V36C230 38.2091 228.209 40 226 40H176C173.791 40 172 38.2091 172 36V20Z" fill="#454545"/>
<path d="M183.952 34L180.288 22.832H182.16L183.936 28.352L185.008 32.24H185.072L186.16 28.352L187.936 22.832H189.76L186.048 34H183.952ZM192.175 24.192C191.812 24.192 191.546 24.1067 191.375 23.936C191.215 23.7653 191.135 23.5467 191.135 23.28V23.008C191.135 22.7413 191.215 22.5227 191.375 22.352C191.546 22.1813 191.812 22.096 192.175 22.096C192.538 22.096 192.799 22.1813 192.959 22.352C193.119 22.5227 193.199 22.7413 193.199 23.008V23.28C193.199 23.5467 193.119 23.7653 192.959 23.936C192.799 24.1067 192.538 24.192 192.175 24.192ZM191.295 25.68H193.039V34H191.295V25.68ZM200.761 32.624H200.681C200.5 33.1147 200.201 33.4987 199.785 33.776C199.38 34.0533 198.9 34.192 198.345 34.192C197.289 34.192 196.473 33.8133 195.897 33.056C195.321 32.288 195.033 31.216 195.033 29.84C195.033 28.464 195.321 27.3973 195.897 26.64C196.473 25.872 197.289 25.488 198.345 25.488C198.9 25.488 199.38 25.6267 199.785 25.904C200.201 26.1707 200.5 26.5547 200.681 27.056H200.761V22.16H202.505V34H200.761V32.624ZM198.873 32.688C199.407 32.688 199.855 32.56 200.217 32.304C200.58 32.0373 200.761 31.6907 200.761 31.264V28.416C200.761 27.9893 200.58 27.648 200.217 27.392C199.855 27.1253 199.407 26.992 198.873 26.992C198.265 26.992 197.78 27.1893 197.417 27.584C197.055 27.968 196.873 28.48 196.873 29.12V30.56C196.873 31.2 197.055 31.7173 197.417 32.112C197.78 32.496 198.265 32.688 198.873 32.688ZM208.262 34.192C207.665 34.192 207.131 34.0907 206.662 33.888C206.193 33.6853 205.793 33.3973 205.462 33.024C205.131 32.64 204.875 32.1813 204.694 31.648C204.523 31.104 204.438 30.5013 204.438 29.84C204.438 29.1787 204.523 28.5813 204.694 28.048C204.875 27.504 205.131 27.0453 205.462 26.672C205.793 26.288 206.193 25.9947 206.662 25.792C207.131 25.5893 207.665 25.488 208.262 25.488C208.87 25.488 209.403 25.5947 209.862 25.808C210.331 26.0213 210.721 26.32 211.03 26.704C211.339 27.0773 211.569 27.5147 211.718 28.016C211.878 28.5173 211.958 29.056 211.958 29.632V30.288H206.246V30.56C206.246 31.2 206.433 31.728 206.806 32.144C207.19 32.5493 207.734 32.752 208.438 32.752C208.95 32.752 209.382 32.64 209.734 32.416C210.086 32.192 210.385 31.888 210.63 31.504L211.654 32.512C211.345 33.024 210.897 33.4347 210.31 33.744C209.723 34.0427 209.041 34.192 208.262 34.192ZM208.262 26.848C207.963 26.848 207.686 26.9013 207.43 27.008C207.185 27.1147 206.971 27.264 206.79 27.456C206.619 27.648 206.486 27.8773 206.39 28.144C206.294 28.4107 206.246 28.704 206.246 29.024V29.136H210.118V28.976C210.118 28.336 209.953 27.824 209.622 27.44C209.291 27.0453 208.838 26.848 208.262 26.848ZM217.153 34.192C216.577 34.192 216.049 34.0907 215.569 33.888C215.099 33.6853 214.699 33.3973 214.369 33.024C214.038 32.64 213.782 32.1813 213.601 31.648C213.419 31.104 213.329 30.5013 213.329 29.84C213.329 29.1787 213.419 28.5813 213.601 28.048C213.782 27.504 214.038 27.0453 214.369 26.672C214.699 26.288 215.099 25.9947 215.569 25.792C216.049 25.5893 216.577 25.488 217.153 25.488C217.729 25.488 218.251 25.5893 218.721 25.792C219.201 25.9947 219.606 26.288 219.937 26.672C220.267 27.0453 220.523 27.504 220.705 28.048C220.886 28.5813 220.977 29.1787 220.977 29.84C220.977 30.5013 220.886 31.104 220.705 31.648C220.523 32.1813 220.267 32.64 219.937 33.024C219.606 33.3973 219.201 33.6853 218.721 33.888C218.251 34.0907 217.729 34.192 217.153 34.192ZM217.153 32.752C217.75 32.752 218.23 32.5707 218.593 32.208C218.955 31.8347 219.137 31.28 219.137 30.544V29.136C219.137 28.4 218.955 27.8507 218.593 27.488C218.23 27.1147 217.75 26.928 217.153 26.928C216.555 26.928 216.075 27.1147 215.713 27.488C215.35 27.8507 215.169 28.4 215.169 29.136V30.544C215.169 31.28 215.35 31.8347 215.713 32.208C216.075 32.5707 216.555 32.752 217.153 32.752Z" fill="white"/>
</svg>
