<?xml version="1.0" encoding="UTF-8"?>
<svg width="352px" height="430px" viewBox="0 0 352 430" version="1.1" xmlns="http://www.w3.org/2000/svg" xmlns:xlink="http://www.w3.org/1999/xlink">
    <!-- Generator: Sketch 52.6 (67491) - http://www.bohemiancoding.com/sketch -->
    <title>Guide_Trin</title>
    <desc>Created with Sketch.</desc>
    <g id="Illustrationer" stroke="none" stroke-width="1" fill="none" fill-rule="evenodd">
        <g id="Komponentside-2" transform="translate(-698.000000, -3322.000000)">
            <g id="Box-Copy-3" transform="translate(354.000000, 3277.000000)">
                <g id="Guide_Trin" transform="translate(344.000000, 45.000000)">
                    <g id="Step-1" transform="translate(82.000000, 0.000000)">
                        <rect id="White_BG" fill="#FFFFFF" x="0" y="0" width="270" height="203"></rect>
                        <g id="Input_1" transform="translate(33.000000, 56.000000)" fill-rule="nonzero">
                            <rect id="Rectangle-15-Copy-6" fill="#DCDCDC" x="0" y="0.555555556" width="40.4605263" height="5.38888889"></rect>
                            <rect id="Rectangle-15-Copy-7" fill="#DCDCDC" x="0" y="43.6666667" width="40.4605263" height="5.38888889"></rect>
                            <rect id="Rectangle-15" stroke="#1A1A1A" stroke-width="2" fill="#FFFFFF" x="1" y="12.3333333" width="203" height="19.5555556" rx="2"></rect>
                            <rect id="Rectangle-15-Copy-8" stroke="#1A1A1A" stroke-width="2" fill="#FFFFFF" x="1" y="55.4444444" width="154.447368" height="19.5555556" rx="2"></rect>
                        </g>
                        <g id="Bn" transform="translate(33.000000, 153.000000)" fill-rule="nonzero" stroke-width="2">
                            <g id="Bn_Videre" transform="translate(0.000000, 0.968750)">
                                <rect id="Rectangle-15-Copy-13" stroke="#1A1A1A" fill="#747474" x="1" y="1" width="80" height="25" rx="2"></rect>
                                <g id="Arrow" transform="translate(32.262295, 8.100000)" stroke="#FFFFFF">
                                    <path d="M0,5.5 L17,5.5" id="Path"></path>
                                    <polyline id="Path" points="11.5357143 0 17 5.5 11.5357143 11"></polyline>
                                </g>
                            </g>
                        </g>
                        <g id="Step-2" transform="translate(68.000000, 17.000000)">
                            <circle id="Oval-Copy" stroke="#1A1A1A" stroke-width="2" fill="#FFFFFF" cx="10" cy="10" r="10"></circle>
                            <path d="M13.4533333,14.8 L6.86666667,14.8 L6.86666667,12.9733333 L9.73333333,10.52 C9.9911124,10.2977767 10.208888,10.0955565 10.3866667,9.91333333 C10.5644453,9.7311102 10.7088883,9.5533342 10.82,9.38 C10.9311117,9.2066658 11.0111109,9.0355564 11.06,8.86666667 C11.1088891,8.69777693 11.1333333,8.51555653 11.1333333,8.32 L11.1333333,8.13333333 C11.1333333,7.95555467 11.0977781,7.80000067 11.0266667,7.66666667 C10.9555552,7.53333267 10.8622228,7.42222267 10.7466667,7.33333333 C10.6311105,7.244444 10.5000007,7.177778 10.3533333,7.13333333 C10.2066659,7.08888867 10.0577785,7.06666667 9.90666667,7.06666667 C9.68444333,7.06666667 9.49111193,7.10222187 9.32666667,7.17333333 C9.1622214,7.2444448 9.0200006,7.3399994 8.9,7.46 C8.7799994,7.5800006 8.6800004,7.717777 8.6,7.87333333 C8.5199996,8.02888967 8.457778,8.19555467 8.41333333,8.37333333 L6.66666667,7.70666667 C6.77333387,7.38666507 6.91999907,7.08222367 7.10666667,6.79333333 C7.29333427,6.504443 7.52666527,6.2511122 7.80666667,6.03333333 C8.08666807,5.81555447 8.41777587,5.64444507 8.8,5.52 C9.18222413,5.39555493 9.61333093,5.33333333 10.0933333,5.33333333 C10.6000025,5.33333333 11.0488869,5.40444373 11.44,5.54666667 C11.8311131,5.6888896 12.1622209,5.8844432 12.4333333,6.13333333 C12.7044458,6.38222347 12.9111104,6.67777607 13.0533333,7.02 C13.1955563,7.36222393 13.2666667,7.73333133 13.2666667,8.13333333 C13.2666667,8.53333533 13.2000007,8.89777613 13.0666667,9.22666667 C12.9333327,9.5555572 12.7533345,9.864443 12.5266667,10.1533333 C12.2999989,10.4422237 12.0355571,10.7155543 11.7333333,10.9733333 C11.4311096,11.2311124 11.1155572,11.493332 10.7866667,11.76 L9.05333333,13.12 L13.4533333,13.12 L13.4533333,14.8 Z" id="2" fill="#1A1A1A" fill-rule="nonzero"></path>
                        </g>
                        <g transform="translate(32.000000, 17.000000)">
                            <ellipse id="Oval" stroke="#1A1A1A" stroke-width="2" fill="#1A1A1A" cx="11" cy="10" rx="10.3125" ry="10"></ellipse>
                            <polygon id="1" fill="#FFFFFF" fill-rule="nonzero" points="7.68625 14.64 7.68625 13.0266667 10.27125 13.0266667 10.27125 6.78666667 10.1475 6.78666667 8.195 9.26666667 6.875 8.26666667 9.17125 5.33333333 12.33375 5.33333333 12.33375 13.0266667 14.36875 13.0266667 14.36875 14.64"></polygon>
                        </g>
                    </g>
                    <g id="Step-1-Copy" transform="translate(82.000000, 227.000000)">
                        <rect id="White_BG" fill="#FFFFFF" x="0" y="0" width="270" height="203"></rect>
                        <g id="Input_1" transform="translate(33.000000, 56.000000)" fill-rule="nonzero">
                            <rect id="Rectangle-15-Copy-6" fill="#DCDCDC" x="0" y="0.555555556" width="40.4605263" height="5.38888889"></rect>
                            <rect id="Rectangle-15-Copy-7" fill="#DCDCDC" x="0" y="43.6666667" width="40.4605263" height="5.38888889"></rect>
                            <rect id="Rectangle-15" stroke="#1A1A1A" stroke-width="2" fill="#FFFFFF" x="1" y="12.3333333" width="203" height="19.5555556" rx="2"></rect>
                            <rect id="Rectangle-15-Copy-8" stroke="#1A1A1A" stroke-width="2" fill="#FFFFFF" x="1" y="55.4444444" width="154.447368" height="19.5555556" rx="2"></rect>
                        </g>
                        <g id="Bn" transform="translate(33.000000, 153.000000)" fill-rule="nonzero" stroke-width="2">
                            <g id="Bn_Videre" transform="translate(0.000000, 0.968750)">
                                <rect id="Rectangle-15-Copy-13" stroke="#1A1A1A" fill="#747474" x="1" y="1" width="80" height="25" rx="2"></rect>
                                <g id="Arrow" transform="translate(32.262295, 8.100000)" stroke="#FFFFFF">
                                    <path d="M0,5.5 L17,5.5" id="Path"></path>
                                    <polyline id="Path" points="11.5357143 0 17 5.5 11.5357143 11"></polyline>
                                </g>
                            </g>
                        </g>
                        <g id="Step-2" transform="translate(68.000000, 17.000000)">
                            <circle id="Oval-Copy" stroke="#1A1A1A" stroke-width="2" fill="#1A1A1A" cx="10" cy="10" r="10"></circle>
                            <path d="M13.4533333,14.8 L6.86666667,14.8 L6.86666667,12.9733333 L9.73333333,10.52 C9.9911124,10.2977767 10.208888,10.0955565 10.3866667,9.91333333 C10.5644453,9.7311102 10.7088883,9.5533342 10.82,9.38 C10.9311117,9.2066658 11.0111109,9.0355564 11.06,8.86666667 C11.1088891,8.69777693 11.1333333,8.51555653 11.1333333,8.32 L11.1333333,8.13333333 C11.1333333,7.95555467 11.0977781,7.80000067 11.0266667,7.66666667 C10.9555552,7.53333267 10.8622228,7.42222267 10.7466667,7.33333333 C10.6311105,7.244444 10.5000007,7.177778 10.3533333,7.13333333 C10.2066659,7.08888867 10.0577785,7.06666667 9.90666667,7.06666667 C9.68444333,7.06666667 9.49111193,7.10222187 9.32666667,7.17333333 C9.1622214,7.2444448 9.0200006,7.3399994 8.9,7.46 C8.7799994,7.5800006 8.6800004,7.717777 8.6,7.87333333 C8.5199996,8.02888967 8.457778,8.19555467 8.41333333,8.37333333 L6.66666667,7.70666667 C6.77333387,7.38666507 6.91999907,7.08222367 7.10666667,6.79333333 C7.29333427,6.504443 7.52666527,6.2511122 7.80666667,6.03333333 C8.08666807,5.81555447 8.41777587,5.64444507 8.8,5.52 C9.18222413,5.39555493 9.61333093,5.33333333 10.0933333,5.33333333 C10.6000025,5.33333333 11.0488869,5.40444373 11.44,5.54666667 C11.8311131,5.6888896 12.1622209,5.8844432 12.4333333,6.13333333 C12.7044458,6.38222347 12.9111104,6.67777607 13.0533333,7.02 C13.1955563,7.36222393 13.2666667,7.73333133 13.2666667,8.13333333 C13.2666667,8.53333533 13.2000007,8.89777613 13.0666667,9.22666667 C12.9333327,9.5555572 12.7533345,9.864443 12.5266667,10.1533333 C12.2999989,10.4422237 12.0355571,10.7155543 11.7333333,10.9733333 C11.4311096,11.2311124 11.1155572,11.493332 10.7866667,11.76 L9.05333333,13.12 L13.4533333,13.12 L13.4533333,14.8 Z" id="2" fill="#FFFFFF" fill-rule="nonzero"></path>
                        </g>
                        <g id="Step-1" transform="translate(32.000000, 17.000000)">
                            <ellipse id="Oval" stroke="#1A1A1A" stroke-width="2" fill="#FFFFFF" cx="11" cy="10" rx="10.3125" ry="10"></ellipse>
                            <polygon id="1" fill="#1A1A1A" fill-rule="nonzero" points="7.68625 14.64 7.68625 13.0266667 10.27125 13.0266667 10.27125 6.78666667 10.1475 6.78666667 8.195 9.26666667 6.875 8.26666667 9.17125 5.33333333 12.33375 5.33333333 12.33375 13.0266667 14.36875 13.0266667 14.36875 14.64"></polygon>
                        </g>
                    </g>
                    <path d="M7.38723404,230.973298 L7.38723404,243 L4.09439072,243 L4.09439072,230.973298 L0,230.973298 L0,228.089453 L11.4816248,228.089453 L11.4816248,230.973298 L7.38723404,230.973298 Z M12.5864603,243 L12.5864603,231.785047 L15.7926499,231.785047 L15.7926499,234.220294 L15.9009671,234.220294 C15.9587366,233.906986 16.0598316,233.604363 16.2042553,233.312417 C16.348679,233.02047 16.5400375,232.760571 16.7783366,232.53271 C17.0166356,232.30485 17.3018681,232.123276 17.6340426,231.987984 C17.966217,231.852692 18.3561551,231.785047 18.8038685,231.785047 L19.367118,231.785047 L19.367118,234.732977 L18.5655706,234.732977 C17.6268167,234.732977 16.9299829,234.854026 16.4750484,235.096128 C16.0201138,235.33823 15.7926499,235.786824 15.7926499,236.441923 L15.7926499,243 L12.5864603,243 Z M22.9415861,230.588785 C22.2916795,230.588785 21.8186991,230.442814 21.5226306,230.150868 C21.226562,229.858922 21.07853,229.485094 21.07853,229.029372 L21.07853,228.559413 C21.07853,228.103692 21.226562,227.729863 21.5226306,227.437917 C21.8186991,227.145971 22.2916795,227 22.9415861,227 C23.5914926,227 24.0644731,227.145971 24.3605416,227.437917 C24.6566101,227.729863 24.8046422,228.103692 24.8046422,228.559413 L24.8046422,229.029372 C24.8046422,229.485094 24.6566101,229.858922 24.3605416,230.150868 C24.0644731,230.442814 23.5914926,230.588785 22.9415861,230.588785 Z M21.3384913,231.785047 L24.5446809,231.785047 L24.5446809,243 L21.3384913,243 L21.3384913,231.785047 Z M27.534236,243 L27.534236,231.785047 L30.7404255,231.785047 L30.7404255,233.686248 L30.8704062,233.686248 C31.0725993,233.102356 31.426432,232.596798 31.9319149,232.169559 C32.4373978,231.742321 33.1378421,231.528705 34.0332689,231.528705 C35.2031006,231.528705 36.0876824,231.913214 36.6870406,232.682243 C37.2863989,233.451272 37.5860735,234.547834 37.5860735,235.971963 L37.5860735,243 L34.3798839,243 L34.3798839,236.228304 C34.3798839,235.501999 34.2643467,234.964399 34.0332689,234.615487 C33.802191,234.266576 33.3905897,234.092123 32.7984526,234.092123 C32.53849,234.092123 32.2857524,234.124165 32.0402321,234.188251 C31.7947119,234.252337 31.5744691,234.355585 31.3794971,234.497997 C31.1845251,234.64041 31.029272,234.814863 30.9137331,235.021362 C30.7981941,235.22786 30.7404255,235.466398 30.7404255,235.736983 L30.7404255,243 L27.534236,243 Z M56,243 L45.2982592,243 L45.2982592,240.073431 L49.9558994,236.142857 C50.3747281,235.786825 50.7285608,235.462841 51.0174081,235.170895 C51.3062555,234.878948 51.5409404,234.594127 51.72147,234.316422 C51.9019996,234.038717 52.031979,233.764576 52.111412,233.493992 C52.190845,233.223408 52.2305609,232.931466 52.2305609,232.618158 L52.2305609,232.319092 C52.2305609,232.034266 52.1727923,231.785048 52.0572534,231.571429 C51.9417144,231.357809 51.7900719,231.179796 51.6023211,231.037383 C51.4145703,230.89497 51.2015486,230.788162 50.9632495,230.716956 C50.7249505,230.64575 50.4830444,230.610147 50.2375242,230.610147 C49.876465,230.610147 49.5623482,230.667111 49.2951644,230.781041 C49.0279806,230.894972 48.7969062,231.048063 48.6019342,231.24032 C48.4069623,231.432578 48.2444881,231.653314 48.1145068,231.902537 C47.9845255,232.151759 47.8834304,232.418779 47.8112186,232.703605 L44.9733075,231.635514 C45.146616,231.122828 45.3849114,230.635071 45.6882012,230.17223 C45.9914909,229.709388 46.3705973,229.303518 46.8255319,228.954606 C47.2804665,228.605695 47.8184366,228.331554 48.4394584,228.132176 C49.0604802,227.932798 49.7609245,227.833111 50.5408124,227.833111 C51.3640273,227.833111 52.0933559,227.947039 52.7288201,228.1749 C53.3642843,228.40276 53.9022544,228.716064 54.3427466,229.11482 C54.7832388,229.513576 55.1190188,229.987091 55.3500967,230.535381 C55.5811746,231.08367 55.6967118,231.678234 55.6967118,232.319092 C55.6967118,232.95995 55.5883957,233.543834 55.3717602,234.070761 C55.1551246,234.597688 54.8626711,235.092566 54.4943907,235.555407 C54.1261103,236.018249 53.6964564,236.456162 53.2054159,236.869159 C52.7143754,237.282156 52.201679,237.702268 51.6673114,238.129506 L48.8510638,240.308411 L56,240.308411 L56,243 Z" id="Trin2" fill="#D71784" fill-rule="nonzero"></path>
                    <path d="M7.43573068,3.97329773 L7.43573068,16 L4.12127008,16 L4.12127008,3.97329773 L0,3.97329773 L0,1.0894526 L11.5570008,1.0894526 L11.5570008,3.97329773 L7.43573068,3.97329773 Z M12.6690895,16 L12.6690895,4.78504673 L15.8963275,4.78504673 L15.8963275,7.22029372 L16.0053558,7.22029372 C16.0635045,6.90698553 16.1652632,6.60436283 16.310635,6.31241656 C16.4560068,6.02047028 16.6486216,5.76057079 16.8884851,5.53271028 C17.1283486,5.30484977 17.4154536,5.12327615 17.7498087,4.98798398 C18.0841639,4.8526918 18.4766619,4.78504673 18.9273145,4.78504673 L19.4942617,4.78504673 L19.4942617,7.7329773 L18.6874522,7.7329773 C17.7425354,7.7329773 17.041127,7.85402638 16.5832058,8.09612817 C16.1252846,8.33822996 15.8963275,8.7868236 15.8963275,9.44192256 L15.8963275,16 L12.6690895,16 Z M23.0921959,3.58878505 C22.4380227,3.58878505 21.9619372,3.4428141 21.663925,3.15086782 C21.3659128,2.85892155 21.216909,2.48509351 21.216909,2.0293725 L21.216909,1.55941255 C21.216909,1.10369154 21.3659128,0.729863498 21.663925,0.437917223 C21.9619372,0.145970948 22.4380227,0 23.0921959,0 C23.746369,0 24.2224545,0.145970948 24.5204667,0.437917223 C24.8184789,0.729863498 24.9674828,1.10369154 24.9674828,1.55941255 L24.9674828,2.0293725 C24.9674828,2.48509351 24.8184789,2.85892155 24.5204667,3.15086782 C24.2224545,3.4428141 23.746369,3.58878505 23.0921959,3.58878505 Z M21.4785769,4.78504673 L24.7058148,4.78504673 L24.7058148,16 L21.4785769,16 L21.4785769,4.78504673 Z M27.7149962,16 L27.7149962,4.78504673 L30.9422341,4.78504673 L30.9422341,6.68624833 L31.0730681,6.68624833 C31.2765886,6.10235578 31.6327442,5.59679786 32.1415455,5.16955941 C32.6503468,4.74232096 33.3553895,4.52870494 34.2566947,4.52870494 C35.4342063,4.52870494 36.3245953,4.91321378 36.9278883,5.68224299 C37.5311813,6.4512722 37.8328233,7.54783445 37.8328233,8.97196262 L37.8328233,16 L34.6055853,16 L34.6055853,9.22830441 C34.6055853,8.50199904 34.4892896,7.96439872 34.2566947,7.61548732 C34.0240998,7.26657591 33.6097964,7.09212283 33.013772,7.09212283 C32.7521027,7.09212283 32.4977059,7.12416523 32.2505738,7.188251 C32.0034418,7.25233677 31.7817531,7.35558451 31.5855011,7.49799733 C31.3892492,7.64041015 31.2329769,7.81486323 31.1166794,8.02136182 C31.000382,8.2278604 30.9422341,8.46639829 30.9422341,8.73698264 L30.9422341,16 L27.7149962,16 Z M46.4024484,16 L46.4024484,13.4152203 L50.5019128,13.4152203 L50.5019128,3.41789052 L50.3056618,3.41789052 L47.2092578,7.39118825 L45.1159143,5.78905207 L48.7574598,1.0894526 L53.7727621,1.0894526 L53.7727621,13.4152203 L57,13.4152203 L57,16 L46.4024484,16 Z" id="Trin1" fill="#D71784" fill-rule="nonzero"></path>
                </g>
            </g>
        </g>
    </g>
</svg>