<?xml version="1.0" encoding="UTF-8"?>
<svg width="409px" height="268px" viewBox="0 0 409 268" version="1.1" xmlns="http://www.w3.org/2000/svg" xmlns:xlink="http://www.w3.org/1999/xlink">
    <!-- Generator: Sketch 52.6 (67491) - http://www.bohemiancoding.com/sketch -->
    <title>Forside_illu_borger</title>
    <desc>Created with Sketch.</desc>
    <defs>
        <filter x="-78.2%" y="-67.2%" width="256.4%" height="234.4%" filterUnits="objectBoundingBox" id="filter-1">
            <feOffset dx="0" dy="2" in="SourceAlpha" result="shadowOffsetOuter1"></feOffset>
            <feGaussianBlur stdDeviation="10" in="shadowOffsetOuter1" result="shadowBlurOuter1"></feGaussianBlur>
            <feColorMatrix values="0 0 0 0 0.101960784   0 0 0 0 0.101960784   0 0 0 0 0.101960784  0 0 0 0.24 0" type="matrix" in="shadowBlurOuter1" result="shadowMatrixOuter1"></feColorMatrix>
            <feMerge>
                <feMergeNode in="shadowMatrixOuter1"></feMergeNode>
                <feMergeNode in="SourceGraphic"></feMergeNode>
            </feMerge>
        </filter>
        <filter x="-45.7%" y="-89.6%" width="191.5%" height="279.2%" filterUnits="objectBoundingBox" id="filter-2">
            <feOffset dx="0" dy="2" in="SourceAlpha" result="shadowOffsetOuter1"></feOffset>
            <feGaussianBlur stdDeviation="10" in="shadowOffsetOuter1" result="shadowBlurOuter1"></feGaussianBlur>
            <feColorMatrix values="0 0 0 0 0.101960784   0 0 0 0 0.101960784   0 0 0 0 0.101960784  0 0 0 0.24 0" type="matrix" in="shadowBlurOuter1" result="shadowMatrixOuter1"></feColorMatrix>
            <feMerge>
                <feMergeNode in="shadowMatrixOuter1"></feMergeNode>
                <feMergeNode in="SourceGraphic"></feMergeNode>
            </feMerge>
        </filter>
        <filter x="-53.1%" y="-58.1%" width="206.2%" height="216.2%" filterUnits="objectBoundingBox" id="filter-3">
            <feOffset dx="0" dy="2" in="SourceAlpha" result="shadowOffsetOuter1"></feOffset>
            <feGaussianBlur stdDeviation="10" in="shadowOffsetOuter1" result="shadowBlurOuter1"></feGaussianBlur>
            <feColorMatrix values="0 0 0 0 0.101960784   0 0 0 0 0.101960784   0 0 0 0 0.101960784  0 0 0 0.24 0" type="matrix" in="shadowBlurOuter1" result="shadowMatrixOuter1"></feColorMatrix>
            <feMerge>
                <feMergeNode in="shadowMatrixOuter1"></feMergeNode>
                <feMergeNode in="SourceGraphic"></feMergeNode>
            </feMerge>
        </filter>
    </defs>
    <g id="Forside-illustrationer" stroke="none" stroke-width="1" fill="none" fill-rule="evenodd">
        <g id="Forside_illu_borger" transform="translate(4.000000, 18.000000)">
            <g id="Main-Illustration">
                <g id="Laptop" transform="translate(0.000000, 15.066079)">
                    <path d="M46.4327615,185.549071 L315.625476,185.549071 L315.625476,10 C315.625476,4.75329488 311.372182,0.5 306.125476,0.5 L55.9327615,0.5 C50.6860564,0.5 46.4327615,4.75329488 46.4327615,10 L46.4327615,185.549071 Z" id="Rectangle" stroke="#747474" fill="#F5F5F5"></path>
                    <rect id="Rectangle" fill="#DCDCDC" x="45.9327615" y="185.34434" width="270.192715" height="1"></rect>
                    <rect id="Rectangle" stroke="#747474" fill="#DCDCDC" x="56.5649884" y="11.07097" width="248.928261" height="163.907132"></rect>
                    <g id="Dashed-Box" transform="translate(101.997750, 22.551403)" fill="#747474">
                        <path d="M0,56.3785065 L5.4038543,56.3785065 L5.4038543,58.4927005 L0,58.4927005 L0,56.3785065 Z M48.6346887,56.3785065 L54.038543,56.3785065 L54.038543,58.4927005 L48.6346887,58.4927005 L48.6346887,56.3785065 Z M97.2693774,56.3785065 L102.673232,56.3785065 L102.673232,58.4927005 L97.2693774,58.4927005 L97.2693774,56.3785065 Z M8.10578145,56.3785065 L13.5096357,56.3785065 L13.5096357,58.4927005 L8.10578145,58.4927005 L8.10578145,56.3785065 Z M56.7404701,56.3785065 L62.1443244,56.3785065 L62.1443244,58.4927005 L56.7404701,58.4927005 L56.7404701,56.3785065 Z M105.375159,56.3785065 L110.779013,56.3785065 L110.779013,58.4927005 L105.375159,58.4927005 L105.375159,56.3785065 Z M16.2115629,56.3785065 L21.6154172,56.3785065 L21.6154172,58.4927005 L16.2115629,58.4927005 L16.2115629,56.3785065 Z M64.8462516,56.3785065 L70.2501059,56.3785065 L70.2501059,58.4927005 L64.8462516,58.4927005 L64.8462516,56.3785065 Z M113.48094,56.3785065 L118.884795,56.3785065 L118.884795,58.4927005 L113.48094,58.4927005 L113.48094,56.3785065 Z M24.3173443,56.3785065 L29.7211986,56.3785065 L29.7211986,58.4927005 L24.3173443,58.4927005 L24.3173443,56.3785065 Z M72.952033,56.3785065 L78.3558873,56.3785065 L78.3558873,58.4927005 L72.952033,58.4927005 L72.952033,56.3785065 Z M121.586722,56.3785065 L126.990576,56.3785065 L126.990576,58.4927005 L121.586722,58.4927005 L121.586722,56.3785065 Z M32.4231258,56.3785065 L37.8269801,56.3785065 L37.8269801,58.4927005 L32.4231258,58.4927005 L32.4231258,56.3785065 Z M81.0578145,56.3785065 L86.4616688,56.3785065 L86.4616688,58.4927005 L81.0578145,58.4927005 L81.0578145,56.3785065 Z M129.692503,56.3785065 L135.096357,56.3785065 L135.096357,58.4927005 L129.692503,58.4927005 L129.692503,56.3785065 Z M145.904066,56.3785065 L151.30792,56.3785065 L151.30792,58.4927005 L145.904066,58.4927005 L145.904066,56.3785065 Z M40.5289072,56.3785065 L45.9327615,56.3785065 L45.9327615,58.4927005 L40.5289072,58.4927005 L40.5289072,56.3785065 Z M89.1635959,56.3785065 L94.5674502,56.3785065 L94.5674502,58.4927005 L89.1635959,58.4927005 L89.1635959,56.3785065 Z M137.798285,56.3785065 L143.202139,56.3785065 L143.202139,58.4927005 L137.798285,58.4927005 L137.798285,56.3785065 Z M154.009848,56.3785065 L159.413702,56.3785065 L159.413702,58.4927005 L154.009848,58.4927005 L154.009848,56.3785065 Z" id="Combined-Shape"></path>
                        <path d="M0,37.3507606 L5.4038543,37.3507606 L5.4038543,39.4649545 L0,39.4649545 L0,37.3507606 Z M48.6346887,37.3507606 L54.038543,37.3507606 L54.038543,39.4649545 L48.6346887,39.4649545 L48.6346887,37.3507606 Z M97.2693774,37.3507606 L102.673232,37.3507606 L102.673232,39.4649545 L97.2693774,39.4649545 L97.2693774,37.3507606 Z M8.10578145,37.3507606 L13.5096357,37.3507606 L13.5096357,39.4649545 L8.10578145,39.4649545 L8.10578145,37.3507606 Z M56.7404701,37.3507606 L62.1443244,37.3507606 L62.1443244,39.4649545 L56.7404701,39.4649545 L56.7404701,37.3507606 Z M105.375159,37.3507606 L110.779013,37.3507606 L110.779013,39.4649545 L105.375159,39.4649545 L105.375159,37.3507606 Z M16.2115629,37.3507606 L21.6154172,37.3507606 L21.6154172,39.4649545 L16.2115629,39.4649545 L16.2115629,37.3507606 Z M64.8462516,37.3507606 L70.2501059,37.3507606 L70.2501059,39.4649545 L64.8462516,39.4649545 L64.8462516,37.3507606 Z M113.48094,37.3507606 L118.884795,37.3507606 L118.884795,39.4649545 L113.48094,39.4649545 L113.48094,37.3507606 Z M24.3173443,37.3507606 L29.7211986,37.3507606 L29.7211986,39.4649545 L24.3173443,39.4649545 L24.3173443,37.3507606 Z M72.952033,37.3507606 L78.3558873,37.3507606 L78.3558873,39.4649545 L72.952033,39.4649545 L72.952033,37.3507606 Z M121.586722,37.3507606 L126.990576,37.3507606 L126.990576,39.4649545 L121.586722,39.4649545 L121.586722,37.3507606 Z M32.4231258,37.3507606 L37.8269801,37.3507606 L37.8269801,39.4649545 L32.4231258,39.4649545 L32.4231258,37.3507606 Z M81.0578145,37.3507606 L86.4616688,37.3507606 L86.4616688,39.4649545 L81.0578145,39.4649545 L81.0578145,37.3507606 Z M129.692503,37.3507606 L135.096357,37.3507606 L135.096357,39.4649545 L129.692503,39.4649545 L129.692503,37.3507606 Z M145.904066,37.3507606 L151.30792,37.3507606 L151.30792,39.4649545 L145.904066,39.4649545 L145.904066,37.3507606 Z M40.5289072,37.3507606 L45.9327615,37.3507606 L45.9327615,39.4649545 L40.5289072,39.4649545 L40.5289072,37.3507606 Z M89.1635959,37.3507606 L94.5674502,37.3507606 L94.5674502,39.4649545 L89.1635959,39.4649545 L89.1635959,37.3507606 Z M137.798285,37.3507606 L143.202139,37.3507606 L143.202139,39.4649545 L137.798285,39.4649545 L137.798285,37.3507606 Z M154.009848,37.3507606 L159.413702,37.3507606 L159.413702,39.4649545 L154.009848,39.4649545 L154.009848,37.3507606 Z" id="Combined-Shape"></path>
                        <path d="M0,0 L5.4038543,0 L5.4038543,2.11419399 L0,2.11419399 L0,0 Z M48.6346887,0 L54.038543,0 L54.038543,2.11419399 L48.6346887,2.11419399 L48.6346887,0 Z M97.2693774,0 L102.673232,0 L102.673232,2.11419399 L97.2693774,2.11419399 L97.2693774,0 Z M8.10578145,0 L13.5096357,0 L13.5096357,2.11419399 L8.10578145,2.11419399 L8.10578145,0 Z M56.7404701,0 L62.1443244,0 L62.1443244,2.11419399 L56.7404701,2.11419399 L56.7404701,0 Z M105.375159,0 L110.779013,0 L110.779013,2.11419399 L105.375159,2.11419399 L105.375159,0 Z M16.2115629,0 L21.6154172,0 L21.6154172,2.11419399 L16.2115629,2.11419399 L16.2115629,0 Z M64.8462516,0 L70.2501059,0 L70.2501059,2.11419399 L64.8462516,2.11419399 L64.8462516,0 Z M113.48094,0 L118.884795,0 L118.884795,2.11419399 L113.48094,2.11419399 L113.48094,0 Z M24.3173443,0 L29.7211986,0 L29.7211986,2.11419399 L24.3173443,2.11419399 L24.3173443,0 Z M72.952033,0 L78.3558873,0 L78.3558873,2.11419399 L72.952033,2.11419399 L72.952033,0 Z M121.586722,0 L126.990576,0 L126.990576,2.11419399 L121.586722,2.11419399 L121.586722,0 Z M32.4231258,0 L37.8269801,0 L37.8269801,2.11419399 L32.4231258,2.11419399 L32.4231258,0 Z M81.0578145,0 L86.4616688,0 L86.4616688,2.11419399 L81.0578145,2.11419399 L81.0578145,0 Z M129.692503,0 L135.096357,0 L135.096357,2.11419399 L129.692503,2.11419399 L129.692503,0 Z M145.904066,0 L151.30792,0 L151.30792,2.11419399 L145.904066,2.11419399 L145.904066,0 Z M40.5289072,0 L45.9327615,0 L45.9327615,2.11419399 L40.5289072,2.11419399 L40.5289072,0 Z M89.1635959,0 L94.5674502,0 L94.5674502,2.11419399 L89.1635959,2.11419399 L89.1635959,0 Z M137.798285,0 L143.202139,0 L143.202139,2.11419399 L137.798285,2.11419399 L137.798285,0 Z M154.009848,0 L159.413702,0 L159.413702,2.11419399 L154.009848,2.11419399 L154.009848,0 Z" id="Combined-Shape"></path>
                        <path d="M157.387256,56.3785065 L159.413702,56.3785065 L159.413702,61.7506525 L157.387256,61.7506525 L157.387256,56.3785065 Z M157.387256,80.5531636 L159.413702,80.5531636 L159.413702,85.9253097 L157.387256,85.9253097 L157.387256,80.5531636 Z M157.387256,104.727821 L159.413702,104.727821 L159.413702,110.099967 L157.387256,110.099967 L157.387256,104.727821 Z M157.387256,128.902478 L159.413702,128.902478 L159.413702,134.274624 L157.387256,134.274624 L157.387256,128.902478 Z M157.387256,64.4367255 L159.413702,64.4367255 L159.413702,69.8088716 L157.387256,69.8088716 L157.387256,64.4367255 Z M157.387256,88.6113827 L159.413702,88.6113827 L159.413702,93.9835287 L157.387256,93.9835287 L157.387256,88.6113827 Z M157.387256,112.78604 L159.413702,112.78604 L159.413702,118.158186 L157.387256,118.158186 L157.387256,112.78604 Z M157.387256,136.960697 L159.413702,136.960697 L159.413702,142.332843 L157.387256,142.332843 L157.387256,136.960697 Z M157.387256,72.4949446 L159.413702,72.4949446 L159.413702,77.8670906 L157.387256,77.8670906 L157.387256,72.4949446 Z M157.387256,96.6696017 L159.413702,96.6696017 L159.413702,102.041748 L157.387256,102.041748 L157.387256,96.6696017 Z M157.387256,120.844259 L159.413702,120.844259 L159.413702,126.216405 L157.387256,126.216405 L157.387256,120.844259 Z M157.387256,145.018916 L159.413702,145.018916 L159.413702,150.391062 L157.387256,150.391062 L157.387256,145.018916 Z" id="Combined-Shape"></path>
                        <path d="M104.699677,56.3785065 L106.726122,56.3785065 L106.726122,61.7506525 L104.699677,61.7506525 L104.699677,56.3785065 Z M104.699677,80.5531636 L106.726122,80.5531636 L106.726122,85.9253097 L104.699677,85.9253097 L104.699677,80.5531636 Z M104.699677,104.727821 L106.726122,104.727821 L106.726122,110.099967 L104.699677,110.099967 L104.699677,104.727821 Z M104.699677,128.902478 L106.726122,128.902478 L106.726122,134.274624 L104.699677,134.274624 L104.699677,128.902478 Z M104.699677,64.4367255 L106.726122,64.4367255 L106.726122,69.8088716 L104.699677,69.8088716 L104.699677,64.4367255 Z M104.699677,88.6113827 L106.726122,88.6113827 L106.726122,93.9835287 L104.699677,93.9835287 L104.699677,88.6113827 Z M104.699677,112.78604 L106.726122,112.78604 L106.726122,118.158186 L104.699677,118.158186 L104.699677,112.78604 Z M104.699677,136.960697 L106.726122,136.960697 L106.726122,142.332843 L104.699677,142.332843 L104.699677,136.960697 Z M104.699677,72.4949446 L106.726122,72.4949446 L106.726122,77.8670906 L104.699677,77.8670906 L104.699677,72.4949446 Z M104.699677,96.6696017 L106.726122,96.6696017 L106.726122,102.041748 L104.699677,102.041748 L104.699677,96.6696017 Z M104.699677,120.844259 L106.726122,120.844259 L106.726122,126.216405 L104.699677,126.216405 L104.699677,120.844259 Z M104.699677,145.018916 L106.726122,145.018916 L106.726122,150.391062 L104.699677,150.391062 L104.699677,145.018916 Z" id="Combined-Shape"></path>
                        <path d="M52.6875794,56.3785065 L54.7140248,56.3785065 L54.7140248,61.7506525 L52.6875794,61.7506525 L52.6875794,56.3785065 Z M52.6875794,80.5531636 L54.7140248,80.5531636 L54.7140248,85.9253097 L52.6875794,85.9253097 L52.6875794,80.5531636 Z M52.6875794,104.727821 L54.7140248,104.727821 L54.7140248,110.099967 L52.6875794,110.099967 L52.6875794,104.727821 Z M52.6875794,128.902478 L54.7140248,128.902478 L54.7140248,134.274624 L52.6875794,134.274624 L52.6875794,128.902478 Z M52.6875794,64.4367255 L54.7140248,64.4367255 L54.7140248,69.8088716 L52.6875794,69.8088716 L52.6875794,64.4367255 Z M52.6875794,88.6113827 L54.7140248,88.6113827 L54.7140248,93.9835287 L52.6875794,93.9835287 L52.6875794,88.6113827 Z M52.6875794,112.78604 L54.7140248,112.78604 L54.7140248,118.158186 L52.6875794,118.158186 L52.6875794,112.78604 Z M52.6875794,136.960697 L54.7140248,136.960697 L54.7140248,142.332843 L52.6875794,142.332843 L52.6875794,136.960697 Z M52.6875794,72.4949446 L54.7140248,72.4949446 L54.7140248,77.8670906 L52.6875794,77.8670906 L52.6875794,72.4949446 Z M52.6875794,96.6696017 L54.7140248,96.6696017 L54.7140248,102.041748 L52.6875794,102.041748 L52.6875794,96.6696017 Z M52.6875794,120.844259 L54.7140248,120.844259 L54.7140248,126.216405 L52.6875794,126.216405 L52.6875794,120.844259 Z M52.6875794,145.018916 L54.7140248,145.018916 L54.7140248,150.391062 L52.6875794,150.391062 L52.6875794,145.018916 Z" id="Combined-Shape"></path>
                        <path d="M0,56.3785065 L2.02644536,56.3785065 L2.02644536,61.7506525 L0,61.7506525 L0,56.3785065 Z M0,80.5531636 L2.02644536,80.5531636 L2.02644536,85.9253097 L0,85.9253097 L0,80.5531636 Z M0,104.727821 L2.02644536,104.727821 L2.02644536,110.099967 L0,110.099967 L0,104.727821 Z M0,128.902478 L2.02644536,128.902478 L2.02644536,134.274624 L0,134.274624 L0,128.902478 Z M0,64.4367255 L2.02644536,64.4367255 L2.02644536,69.8088716 L0,69.8088716 L0,64.4367255 Z M0,88.6113827 L2.02644536,88.6113827 L2.02644536,93.9835287 L0,93.9835287 L0,88.6113827 Z M0,112.78604 L2.02644536,112.78604 L2.02644536,118.158186 L0,118.158186 L0,112.78604 Z M0,136.960697 L2.02644536,136.960697 L2.02644536,142.332843 L0,142.332843 L0,136.960697 Z M0,72.4949446 L2.02644536,72.4949446 L2.02644536,77.8670906 L0,77.8670906 L0,72.4949446 Z M0,96.6696017 L2.02644536,96.6696017 L2.02644536,102.041748 L0,102.041748 L0,96.6696017 Z M0,120.844259 L2.02644536,120.844259 L2.02644536,126.216405 L0,126.216405 L0,120.844259 Z M0,145.018916 L2.02644536,145.018916 L2.02644536,150.391062 L0,150.391062 L0,145.018916 Z" id="Combined-Shape-Copy"></path>
                        <path d="M0,0 L2.02644536,0 L2.02644536,5.63785065 L0,5.63785065 L0,0 Z M0,25.3703279 L2.02644536,25.3703279 L2.02644536,31.0081786 L0,31.0081786 L0,25.3703279 Z M0,8.45677597 L2.02644536,8.45677597 L2.02644536,14.0946266 L0,14.0946266 L0,8.45677597 Z M0,33.8271039 L2.02644536,33.8271039 L2.02644536,39.4649545 L0,39.4649545 L0,33.8271039 Z M0,16.9135519 L2.02644536,16.9135519 L2.02644536,22.5514026 L0,22.5514026 L0,16.9135519 Z" id="Combined-Shape-Copy-3"></path>
                        <path d="M157.387256,0 L159.413702,0 L159.413702,5.63785065 L157.387256,5.63785065 L157.387256,0 Z M157.387256,25.3703279 L159.413702,25.3703279 L159.413702,31.0081786 L157.387256,31.0081786 L157.387256,25.3703279 Z M157.387256,8.45677597 L159.413702,8.45677597 L159.413702,14.0946266 L157.387256,14.0946266 L157.387256,8.45677597 Z M157.387256,33.8271039 L159.413702,33.8271039 L159.413702,39.4649545 L157.387256,39.4649545 L157.387256,33.8271039 Z M157.387256,16.9135519 L159.413702,16.9135519 L159.413702,22.5514026 L157.387256,22.5514026 L157.387256,16.9135519 Z" id="Combined-Shape-Copy-4"></path>
                    </g>
                    <path d="M1,186.549071 C0.723857625,186.549071 0.5,186.772929 0.5,187.049071 L0.5,191.334556 C0.5,193.977507 2.64253461,196.120041 5.28548498,196.120041 L356.772753,196.120041 C359.415703,196.120041 361.558238,193.977507 361.558238,191.334556 L361.558238,187.049071 C361.558238,186.772929 361.33438,186.549071 361.058238,186.549071 L1,186.549071 Z" id="Rectangle" stroke="#747474" fill="#F5F5F5"></path>
                    <path d="M157.711775,186.549071 C157.435632,186.549071 157.211775,186.772929 157.211775,187.049071 L157.211775,188.867997 C157.211775,190.148704 158.249993,191.186922 159.5307,191.186922 L203.20302,191.186922 C204.483727,191.186922 205.521945,190.148704 205.521945,188.867997 L205.521945,187.049071 C205.521945,186.772929 205.298088,186.549071 205.021945,186.549071 L157.711775,186.549071 Z" id="Rectangle" stroke="#747474" fill="#DCDCDC"></path>
                    <path d="M7.84247826,197.120041 L18.9694802,199.643698 L343.761762,199.643698 L354.404981,197.120041 L7.84247826,197.120041 Z" id="Rectangle-Copy" stroke="#747474" fill="#DCDCDC"></path>
                </g>
                <g id="Card" filter="url(#filter-1)" transform="translate(16.000000, 0.000000)">
                    <rect id="Rectangle-6" stroke="#747474" fill="#FFFFFF" fill-rule="nonzero" x="0.5" y="0.5" width="53.5843869" height="62.3157475"></rect>
                    <rect id="Rectangle-6" stroke="#747474" fill="#44831E" fill-rule="nonzero" x="0.5" y="0.5" width="53.5843869" height="27.7798852"></rect>
                    <g id="Group-3" transform="translate(15.693011, 3.597486)" stroke="#FFFFFF" stroke-width="2">
                        <path d="M7.45112541,8.56689425 L7.45112541,20.212991 L19.841068,20.212991 L19.841068,8.56689425 L7.45112541,8.56689425 Z" id="Rectangle" transform="translate(13.646097, 14.389943) rotate(-270.000000) translate(-13.646097, -14.389943) "></path>
                        <ellipse id="Oval" cx="6.82304836" cy="7.19497131" rx="6.82304836" ry="7.19497131"></ellipse>
                    </g>
                    <polygon id="Rectangle-6" fill-opacity="0.5" fill="#44831E" fill-rule="nonzero" points="6.82304836 35.9748565 47.7613385 35.9748565 47.7613385 38.852845 6.82304836 38.852845"></polygon>
                    <polygon id="Rectangle-6" fill-opacity="0.5" fill="#44831E" fill-rule="nonzero" points="6.82304836 41.7308336 47.7613385 41.7308336 47.7613385 44.6088221 6.82304836 44.6088221"></polygon>
                    <polygon id="Rectangle-6" fill-opacity="0.5" fill="#44831E" fill-rule="nonzero" points="6.82304836 47.4868106 47.7613385 47.4868106 47.7613385 50.3647991 6.82304836 50.3647991"></polygon>
                    <polygon id="Rectangle-6-Copy" fill-opacity="0.5" fill="#44831E" fill-rule="nonzero" points="6.82304836 53.2427877 27.2921934 53.2427877 27.2921934 56.1207762 6.82304836 56.1207762"></polygon>
                </g>
                <g id="Card" filter="url(#filter-2)" transform="translate(291.000000, 42.185022)">
                    <rect id="White_BG" stroke="#747474" fill="#FFFFFF" x="0.5" y="0.5" width="92.9964194" height="46.1579779"></rect>
                    <rect id="Rectangle-15" fill-opacity="0.5" fill="#44831E" fill-rule="nonzero" x="13.4280599" y="24.9659883" width="64.4546876" height="2.7739987"></rect>
                    <rect id="Rectangle-15-Copy-4" fill-opacity="0.5" fill="#44831E" fill-rule="nonzero" x="13.4280599" y="30.5139857" width="49.0124187" height="2.7739987"></rect>
                    <rect id="Rectangle-15-Copy" fill="#44831E" fill-rule="nonzero" x="13.4280599" y="13.8699935" width="18.7992839" height="5.5479974"></rect>
                    <rect id="Rectangle-15-Copy-2" fill="#44831E" fill-rule="nonzero" x="70.4973145" y="13.8699935" width="10.0710449" height="5.5479974"></rect>
                    <rect id="Rectangle-15-Copy-3" fill="#44831E" fill-rule="nonzero" x="34.9129558" y="13.8699935" width="32.8987468" height="5.5479974"></rect>
                </g>
                <g id="Card" transform="translate(102.000000, 93.409692)">
                    <rect id="White_BG" stroke="#979797" fill="#FFFFFF" x="0.5" y="0.5" width="105.736623" height="66.9924788"></rect>
                    <rect id="Rectangle-15-Copy-6" fill="#44831E" fill-rule="nonzero" x="13.5109649" y="14.1650998" width="13.5109649" height="2.83301995"></rect>
                    <rect id="Rectangle-15-Copy-7" fill="#44831E" fill-rule="nonzero" x="13.5109649" y="36.8292594" width="13.5109649" height="2.83301995"></rect>
                    <rect id="Rectangle-15" stroke-opacity="0.5" stroke="#44831E" stroke-width="2" fill-rule="nonzero" x="13.5109649" y="19.8311397" width="79.714693" height="11.3320798" rx="2"></rect>
                    <rect id="Rectangle-15-Copy-8" stroke-opacity="0.5" stroke="#44831E" stroke-width="2" fill-rule="nonzero" x="13.5109649" y="42.4952993" width="51.3416667" height="11.3320798" rx="2"></rect>
                </g>
                <g id="Card" filter="url(#filter-3)" transform="translate(251.000000, 153.674009)">
                    <rect id="White_BG" stroke="#747474" fill="#FFFFFF" x="0.5" y="0.5" width="79.8607853" height="72.6585187"></rect>
                    <rect id="Rectangle-15" fill-opacity="0.5" fill="#44831E" fill-rule="nonzero" x="13.4767975" y="31.1632195" width="54.5810301" height="2.83301995"></rect>
                    <rect id="Rectangle-15-Copy-5" fill-opacity="0.5" fill="#44831E" fill-rule="nonzero" x="13.4767975" y="22.6641596" width="44.4734319" height="2.83301995"></rect>
                    <rect id="Rectangle-15-Copy-6" fill-opacity="0.5" fill="#44831E" fill-rule="nonzero" x="13.4767975" y="14.1650998" width="52.5595104" height="2.83301995"></rect>
                    <rect id="Rectangle-15-Copy-4" fill-opacity="0.5" fill="#44831E" fill-rule="nonzero" x="13.4767975" y="39.6622793" width="48.5164712" height="2.83301995"></rect>
                    <rect id="Rectangle-15-Copy-7" fill-opacity="0.5" fill="#44831E" fill-rule="nonzero" x="13.4767975" y="48.1613392" width="53.9071902" height="2.83301995"></rect>
                    <rect id="Rectangle-15-Copy-8" fill-opacity="0.5" fill="#44831E" fill-rule="nonzero" x="13.4767975" y="56.660399" width="14.1506374" height="2.83301995"></rect>
                </g>
            </g>
        </g>
    </g>
</svg>