<?xml version="1.0" encoding="UTF-8"?>
<svg width="292px" height="145px" viewBox="0 0 292 145" version="1.1" xmlns="http://www.w3.org/2000/svg" xmlns:xlink="http://www.w3.org/1999/xlink">
    <!-- Generator: Sketch 53.2 (72643) - https://sketchapp.com -->
    <title>Åbent team / GitHub_Front</title>
    <desc>Created with Sketch.</desc>
    <g id="Illustrationer" stroke="none" stroke-width="1" fill="none" fill-rule="evenodd">
        <g id="Illustrationer_Front" transform="translate(-524.000000, -585.000000)">
            <g id="Åbent-team-/-GitHub" transform="translate(526.000000, 585.000000)">
                <rect id="Rectangle" fill="#FFFFFF" x="86" y="21" width="115" height="2"></rect>
                <g id="Group-5" transform="translate(142.500000, 45.000000)" fill="#C8CADF">
                    <rect id="Rectangle-Copy-38" x="0" y="0" width="3" height="6"></rect>
                    <rect id="Rectangle-Copy-38" x="0" y="9" width="3" height="6"></rect>
                    <rect id="Rectangle-Copy-38" x="0" y="18" width="3" height="6"></rect>
                </g>
                <g id="Group-10" transform="translate(56.549038, 59.039419) rotate(-330.000000) translate(-56.549038, -59.039419) translate(55.049038, 42.539419)" fill="#C8CADF">
                    <rect id="Rectangle-Copy-39" x="0" y="0" width="3" height="6"></rect>
                    <rect id="Rectangle-Copy-40" x="0" y="9" width="3" height="6"></rect>
                    <rect id="Rectangle-Copy-41" x="0" y="18" width="3" height="6"></rect>
                    <rect id="Rectangle-Copy-41" x="0" y="27" width="3" height="6"></rect>
                </g>
                <g id="Group-10" transform="translate(230.549038, 59.039419) scale(-1, 1) rotate(-330.000000) translate(-230.549038, -59.039419) translate(229.049038, 42.539419)" fill="#C8CADF">
                    <rect id="Rectangle-Copy-39" x="0" y="0" width="3" height="6"></rect>
                    <rect id="Rectangle-Copy-40" x="0" y="9" width="3" height="6"></rect>
                    <rect id="Rectangle-Copy-41" x="0" y="18" width="3" height="6"></rect>
                    <rect id="Rectangle-Copy-41" x="0" y="27" width="3" height="6"></rect>
                </g>
                <g id="Code" transform="translate(40.000000, 0.000000)">
                    <g>
                        <rect id="Rectangle" fill="#FFFFFF" x="0" y="0" width="50" height="44"></rect>
                        <rect id="Rectangle" fill="#474E95" x="8" y="8" width="16" height="4"></rect>
                        <rect id="Rectangle-Copy-6" fill="#474E95" x="8" y="24" width="20" height="4"></rect>
                        <rect id="Rectangle-Copy-3" fill="#474E95" x="26" y="16" width="16" height="4"></rect>
                        <rect id="Rectangle-Copy-9" fill="#474E95" x="18" y="32" width="24" height="4"></rect>
                        <rect id="Rectangle-Copy" fill="#474E95" x="26" y="8" width="7" height="4"></rect>
                        <rect id="Rectangle-Copy-7" fill="#474E95" x="26" y="24" width="7" height="4"></rect>
                        <rect id="Rectangle-Copy-2" fill="#474E95" x="35" y="8" width="7" height="4"></rect>
                        <rect id="Rectangle-Copy-8" fill="#474E95" x="35" y="24" width="7" height="4"></rect>
                        <rect id="Rectangle-Copy-4" fill="#474E95" x="14" y="16" width="10" height="4"></rect>
                        <rect id="Rectangle-Copy-5" fill="#474E95" x="8" y="16" width="4" height="4"></rect>
                        <rect id="Rectangle-Copy-11" fill="#474E95" x="8" y="32" width="8" height="4"></rect>
                    </g>
                </g>
                <g id="Code" transform="translate(119.000000, 0.000000)">
                    <g>
                        <rect id="Rectangle" fill="#FFFFFF" x="0" y="0" width="50" height="44"></rect>
                        <rect id="Rectangle" fill="#474E95" x="8" y="8" width="16" height="4"></rect>
                        <rect id="Rectangle-Copy-6" fill="#474E95" x="8" y="24" width="20" height="4"></rect>
                        <rect id="Rectangle-Copy-3" fill="#474E95" x="26" y="16" width="16" height="4"></rect>
                        <rect id="Rectangle-Copy-9" fill="#474E95" x="18" y="32" width="24" height="4"></rect>
                        <rect id="Rectangle-Copy" fill="#474E95" x="26" y="8" width="7" height="4"></rect>
                        <rect id="Rectangle-Copy-7" fill="#474E95" x="26" y="24" width="7" height="4"></rect>
                        <rect id="Rectangle-Copy-2" fill="#474E95" x="35" y="8" width="7" height="4"></rect>
                        <rect id="Rectangle-Copy-8" fill="#474E95" x="35" y="24" width="7" height="4"></rect>
                        <rect id="Rectangle-Copy-4" fill="#474E95" x="14" y="16" width="10" height="4"></rect>
                        <rect id="Rectangle-Copy-5" fill="#474E95" x="8" y="16" width="4" height="4"></rect>
                        <rect id="Rectangle-Copy-11" fill="#474E95" x="8" y="32" width="8" height="4"></rect>
                    </g>
                </g>
                <g id="Code" transform="translate(198.000000, 0.000000)">
                    <g>
                        <rect id="Rectangle" fill="#FFFFFF" x="0" y="0" width="50" height="44"></rect>
                        <rect id="Rectangle" fill="#474E95" x="8" y="8" width="16" height="4"></rect>
                        <rect id="Rectangle-Copy-6" fill="#474E95" x="8" y="24" width="20" height="4"></rect>
                        <rect id="Rectangle-Copy-3" fill="#474E95" x="26" y="16" width="16" height="4"></rect>
                        <rect id="Rectangle-Copy-9" fill="#474E95" x="18" y="32" width="24" height="4"></rect>
                        <rect id="Rectangle-Copy" fill="#474E95" x="26" y="8" width="7" height="4"></rect>
                        <rect id="Rectangle-Copy-7" fill="#474E95" x="26" y="24" width="7" height="4"></rect>
                        <rect id="Rectangle-Copy-2" fill="#474E95" x="35" y="8" width="7" height="4"></rect>
                        <rect id="Rectangle-Copy-8" fill="#474E95" x="35" y="24" width="7" height="4"></rect>
                        <rect id="Rectangle-Copy-4" fill="#474E95" x="14" y="16" width="10" height="4"></rect>
                        <rect id="Rectangle-Copy-5" fill="#474E95" x="8" y="16" width="4" height="4"></rect>
                        <rect id="Rectangle-Copy-11" fill="#474E95" x="8" y="32" width="8" height="4"></rect>
                    </g>
                </g>
                <g id="Avatar" transform="translate(0.000000, 73.000000)">
                    <g>
                        <circle id="Oval" stroke="#FFFFFF" stroke-width="4" fill="#474E95" cx="35" cy="35" r="35"></circle>
                        <circle id="Oval" fill="#FFFFFF" cx="35" cy="24" r="11"></circle>
                        <path d="M55,49.8461538 C50.7714988,43.8367326 43.4029484,39.8461538 35,39.8461538 C26.5945946,39.8461538 19.2285012,43.8367326 15,49.8461538" id="Stroke-3" stroke="#FFFFFF" stroke-width="3"></path>
                    </g>
                </g>
                <g id="Avatar" transform="translate(109.000000, 73.000000)">
                    <g>
                        <circle id="Oval" stroke="#FFFFFF" stroke-width="4" fill="#474E95" cx="35" cy="35" r="35"></circle>
                        <circle id="Oval" fill="#FFFFFF" cx="35" cy="24" r="11"></circle>
                        <path d="M55,49.8461538 C50.7714988,43.8367326 43.4029484,39.8461538 35,39.8461538 C26.5945946,39.8461538 19.2285012,43.8367326 15,49.8461538" id="Stroke-3" stroke="#FFFFFF" stroke-width="3"></path>
                    </g>
                </g>
                <g id="Avatar" transform="translate(218.000000, 73.000000)">
                    <g>
                        <circle id="Oval" stroke="#FFFFFF" stroke-width="4" fill="#474E95" cx="35" cy="35" r="35"></circle>
                        <circle id="Oval" fill="#FFFFFF" cx="35" cy="24" r="11"></circle>
                        <path d="M55,49.8461538 C50.7714988,43.8367326 43.4029484,39.8461538 35,39.8461538 C26.5945946,39.8461538 19.2285012,43.8367326 15,49.8461538" id="Stroke-3" stroke="#FFFFFF" stroke-width="3"></path>
                    </g>
                </g>
            </g>
        </g>
    </g>
</svg>