<?xml version="1.0" encoding="UTF-8"?>
<svg width="335px" height="352px" viewBox="0 0 335 352" version="1.1" xmlns="http://www.w3.org/2000/svg" xmlns:xlink="http://www.w3.org/1999/xlink">
    <!-- Generator: Sketch 52.6 (67491) - http://www.bohemiancoding.com/sketch -->
    <title>Guide_Læseretning</title>
    <desc>Created with Sketch.</desc>
    <g id="Illustrationer" stroke="none" stroke-width="1" fill="none" fill-rule="evenodd">
        <g id="Komponentside-2" transform="translate(-697.000000, -2043.000000)">
            <g id="Box" transform="translate(376.000000, 2043.000000)">
                <g id="Guide_Læseretning" transform="translate(321.000000, 0.000000)">
                    <g id="Content" transform="translate(80.000000, 26.000000)">
                        <rect id="White_BG" fill="#FFFFFF" x="0" y="0" width="255" height="326"></rect>
                        <rect id="Rectangle-15" fill="#DCDCDC" fill-rule="nonzero" x="30.6" y="50.9375" width="193.8" height="5.09375"></rect>
                        <rect id="Rectangle-15-Copy-4" fill="#DCDCDC" fill-rule="nonzero" x="30.6" y="61.125" width="154.275" height="5.09375"></rect>
                        <rect id="Rectangle-15-Copy-5" fill="#DCDCDC" fill-rule="nonzero" x="30.6" y="71.3125" width="179.775" height="5.09375"></rect>
                        <rect id="Rectangle-15-Copy-6" fill="#DCDCDC" fill-rule="nonzero" x="30.6" y="96.78125" width="25.5" height="5.09375"></rect>
                        <rect id="Rectangle-15-Copy-7" fill="#DCDCDC" fill-rule="nonzero" x="30.6" y="137.53125" width="25.5" height="5.09375"></rect>
                        <rect id="Rectangle-15-Copy-9" fill="#DCDCDC" fill-rule="nonzero" x="30.6" y="178.28125" width="25.5" height="5.09375"></rect>
                        <rect id="Rectangle-15-Copy-11" fill="#DCDCDC" fill-rule="nonzero" x="30.6" y="219.03125" width="25.5" height="5.09375"></rect>
                        <rect id="Rectangle-15-Copy" fill="#DCDCDC" fill-rule="nonzero" x="30.6" y="30.5625" width="35.7" height="10.1875"></rect>
                        <rect id="Rectangle-15-Copy-2" fill="#DCDCDC" fill-rule="nonzero" x="71.4" y="30.5625" width="16.575" height="10.1875"></rect>
                        <rect id="Rectangle-15-Copy-3" fill="#DCDCDC" fill-rule="nonzero" x="93.075" y="30.5625" width="70.125" height="10.1875"></rect>
                        <rect id="Rectangle-15" stroke="#1A1A1A" stroke-width="2" fill="#FFFFFF" fill-rule="nonzero" x="31.6" y="107.96875" width="191.8" height="18.375" rx="2"></rect>
                        <rect id="Rectangle-15-Copy-8" stroke="#1A1A1A" stroke-width="2" fill="#FFFFFF" fill-rule="nonzero" x="31.6" y="148.71875" width="94.9" height="18.375" rx="2"></rect>
                        <rect id="Rectangle-15-Copy-10" stroke="#1A1A1A" stroke-width="2" fill="#FFFFFF" fill-rule="nonzero" x="31.6" y="189.46875" width="94.9" height="18.375" rx="2"></rect>
                        <rect id="Rectangle-15-Copy-12" stroke="#1A1A1A" stroke-width="2" fill="#FFFFFF" fill-rule="nonzero" x="31.6" y="230.21875" width="191.8" height="18.375" rx="2"></rect>
                        <rect id="Rectangle-15-Copy-13" stroke="#1A1A1A" stroke-width="2" fill="#747474" fill-rule="nonzero" x="31.6" y="270.96875" width="75.775" height="23.46875" rx="2"></rect>
                        <rect id="Rectangle-15-Copy-11" fill="#DCDCDC" fill-rule="nonzero" x="45.9" y="280.15625" width="48.45" height="5.09375"></rect>
                    </g>
                    <g id="GUIDE">
                        <g id="preview" fill="#D71784" fill-rule="nonzero">
                            <path d="M58.2519336,18.0295341 C54.4477162,12.6036145 44.0303684,0 29.4907162,0 C14.8240857,0 4.47984661,12.6176185 0.716672699,18.0473574 C-0.243088774,19.4501752 -0.238507109,21.2934982 0.728216178,22.6915984 C4.52730313,28.1187912 14.9331075,40.7389558 29.4907162,40.7389558 C43.9149336,40.7389558 54.398977,28.1353414 58.2391075,22.7068755 C59.2240461,21.3024679 59.2291554,19.4392427 58.2519336,18.0295341 Z M29.4907162,31.8273092 C23.1154292,31.8273092 17.9472379,26.6974634 17.9472379,20.3694779 C17.9472379,14.0414924 23.1154292,8.91164659 29.4907162,8.91164659 C35.8660032,8.91164659 41.0341944,14.0414924 41.0341944,20.3694779 C41.0341944,23.4082837 39.81801,26.3226279 37.6531879,28.4713881 C35.4883658,30.6201483 32.552237,31.8273092 29.4907162,31.8273092 Z" id="Shape"></path>
                        </g>
                        <g id="arrow-down" transform="translate(17.956522, 47.104418)" stroke="#D71784" stroke-linecap="round" stroke-linejoin="round" stroke-width="3">
                            <path d="M11.5434783,0.636546185 L11.5434783,268.62249" id="Path"></path>
                            <polyline id="Path" points="23.0869565 257.164659 11.5434783 268.62249 0 257.164659"></polyline>
                        </g>
                    </g>
                </g>
            </g>
        </g>
    </g>
</svg>