<svg width="418" height="256" viewBox="0 0 418 256" fill="none" xmlns="http://www.w3.org/2000/svg">
<rect width="418" height="256" fill="white"/>
<path d="M17.312 34V22.832H19.424V32.128H23.824V34H17.312ZM28.6835 34.192C28.0862 34.192 27.5475 34.0907 27.0675 33.888C26.5982 33.6853 26.1928 33.392 25.8515 33.008C25.5208 32.624 25.2648 32.1653 25.0835 31.632C24.9022 31.088 24.8115 30.48 24.8115 29.808C24.8115 29.136 24.9022 28.5333 25.0835 28C25.2648 27.4667 25.5208 27.0133 25.8515 26.64C26.1928 26.256 26.5982 25.9627 27.0675 25.76C27.5475 25.5573 28.0862 25.456 28.6835 25.456C29.2808 25.456 29.8195 25.5573 30.2995 25.76C30.7795 25.9627 31.1848 26.256 31.5155 26.64C31.8568 27.0133 32.1182 27.4667 32.2995 28C32.4808 28.5333 32.5715 29.136 32.5715 29.808C32.5715 30.48 32.4808 31.088 32.2995 31.632C32.1182 32.1653 31.8568 32.624 31.5155 33.008C31.1848 33.392 30.7795 33.6853 30.2995 33.888C29.8195 34.0907 29.2808 34.192 28.6835 34.192ZM28.6835 32.544C29.2275 32.544 29.6542 32.3787 29.9635 32.048C30.2728 31.7173 30.4275 31.232 30.4275 30.592V29.04C30.4275 28.4107 30.2728 27.9307 29.9635 27.6C29.6542 27.2693 29.2275 27.104 28.6835 27.104C28.1502 27.104 27.7288 27.2693 27.4195 27.6C27.1102 27.9307 26.9555 28.4107 26.9555 29.04V30.592C26.9555 31.232 27.1102 31.7173 27.4195 32.048C27.7288 32.3787 28.1502 32.544 28.6835 32.544ZM34.3871 34V25.648H36.4351V27.376H36.5151C36.5685 27.152 36.6485 26.9387 36.7551 26.736C36.8725 26.5227 37.0218 26.336 37.2031 26.176C37.3845 26.016 37.5978 25.888 37.8431 25.792C38.0991 25.696 38.3925 25.648 38.7231 25.648H39.1711V27.584H38.5311C37.8378 27.584 37.3151 27.6853 36.9631 27.888C36.6111 28.0907 36.4351 28.4213 36.4351 28.88V34H34.3871ZM43.9663 34.192C43.3476 34.192 42.7929 34.0907 42.3023 33.888C41.8223 33.6747 41.4116 33.3813 41.0703 33.008C40.7396 32.624 40.4836 32.1653 40.3023 31.632C40.1209 31.088 40.0303 30.48 40.0303 29.808C40.0303 29.1467 40.1156 28.5493 40.2863 28.016C40.4676 27.4827 40.7236 27.0293 41.0543 26.656C41.3849 26.272 41.7903 25.9787 42.2703 25.776C42.7503 25.5627 43.2943 25.456 43.9023 25.456C44.5529 25.456 45.1183 25.568 45.5983 25.792C46.0783 26.016 46.4729 26.32 46.7823 26.704C47.0916 27.088 47.3209 27.536 47.4703 28.048C47.6303 28.5493 47.7103 29.088 47.7103 29.664V30.336H42.1583V30.544C42.1583 31.152 42.3289 31.6427 42.6703 32.016C43.0116 32.3787 43.5183 32.56 44.1903 32.56C44.7023 32.56 45.1183 32.4533 45.4383 32.24C45.7689 32.0267 46.0623 31.7547 46.3183 31.424L47.4223 32.656C47.0809 33.136 46.6116 33.5147 46.0143 33.792C45.4276 34.0587 44.7449 34.192 43.9663 34.192ZM43.9343 26.992C43.3903 26.992 42.9583 27.1733 42.6383 27.536C42.3183 27.8987 42.1583 28.368 42.1583 28.944V29.072H45.5823V28.928C45.5823 28.352 45.4383 27.888 45.1503 27.536C44.8729 27.1733 44.4676 26.992 43.9343 26.992ZM49.5121 34V25.648H51.5601V27.04H51.6401C51.8001 26.6027 52.0561 26.2293 52.4081 25.92C52.7601 25.6107 53.2508 25.456 53.8801 25.456C54.4561 25.456 54.9521 25.5947 55.3681 25.872C55.7841 26.1493 56.0935 26.5707 56.2961 27.136H56.3281C56.4775 26.6667 56.7708 26.272 57.2081 25.952C57.6561 25.6213 58.2161 25.456 58.8881 25.456C59.7095 25.456 60.3388 25.7387 60.7761 26.304C61.2241 26.8693 61.4481 27.6747 61.4481 28.72V34H59.4001V28.928C59.4001 27.7333 58.9521 27.136 58.0561 27.136C57.8535 27.136 57.6561 27.168 57.4641 27.232C57.2828 27.2853 57.1175 27.3707 56.9681 27.488C56.8295 27.5947 56.7175 27.7333 56.6321 27.904C56.5468 28.064 56.5041 28.256 56.5041 28.48V34H54.4561V28.928C54.4561 27.7333 54.0081 27.136 53.1121 27.136C52.9201 27.136 52.7281 27.168 52.5361 27.232C52.3548 27.2853 52.1895 27.3707 52.0401 27.488C51.9015 27.5947 51.7841 27.7333 51.6881 27.904C51.6028 28.064 51.5601 28.256 51.5601 28.48V34H49.5121ZM68.5205 24.432C68.0938 24.432 67.7845 24.336 67.5925 24.144C67.4112 23.952 67.3205 23.7067 67.3205 23.408V23.088C67.3205 22.7893 67.4112 22.544 67.5925 22.352C67.7845 22.16 68.0938 22.064 68.5205 22.064C68.9365 22.064 69.2405 22.16 69.4325 22.352C69.6245 22.544 69.7205 22.7893 69.7205 23.088V23.408C69.7205 23.7067 69.6245 23.952 69.4325 24.144C69.2405 24.336 68.9365 24.432 68.5205 24.432ZM67.4965 25.648H69.5445V34H67.4965V25.648ZM71.9184 25.648H73.9664V27.024H74.0304C74.1797 26.544 74.4624 26.1653 74.8784 25.888C75.2944 25.6 75.7797 25.456 76.3344 25.456C77.401 25.456 78.2117 25.8347 78.7664 26.592C79.3317 27.3387 79.6144 28.4107 79.6144 29.808C79.6144 31.216 79.3317 32.2987 78.7664 33.056C78.2117 33.8133 77.401 34.192 76.3344 34.192C75.7797 34.192 75.2944 34.048 74.8784 33.76C74.473 33.472 74.1904 33.088 74.0304 32.608H73.9664V37.2H71.9184V25.648ZM75.6784 32.496C76.2117 32.496 76.6437 32.32 76.9744 31.968C77.305 31.616 77.4704 31.1413 77.4704 30.544V29.104C77.4704 28.5067 77.305 28.032 76.9744 27.68C76.6437 27.3173 76.2117 27.136 75.6784 27.136C75.1877 27.136 74.777 27.2587 74.4464 27.504C74.1264 27.7493 73.9664 28.0747 73.9664 28.48V31.136C73.9664 31.5733 74.1264 31.9093 74.4464 32.144C74.777 32.3787 75.1877 32.496 75.6784 32.496ZM84.2481 34.192C83.4481 34.192 82.7761 34.0587 82.2321 33.792C81.6881 33.5147 81.2081 33.136 80.7921 32.656L82.0401 31.44C82.3495 31.792 82.6855 32.0693 83.0481 32.272C83.4215 32.4747 83.8481 32.576 84.3281 32.576C84.8188 32.576 85.1708 32.4907 85.3841 32.32C85.6081 32.1493 85.7201 31.9147 85.7201 31.616C85.7201 31.3707 85.6401 31.1787 85.4801 31.04C85.3308 30.8907 85.0695 30.7893 84.6961 30.736L83.8641 30.624C82.9575 30.5067 82.2641 30.2507 81.7841 29.856C81.3148 29.4507 81.0801 28.864 81.0801 28.096C81.0801 27.6907 81.1548 27.328 81.3041 27.008C81.4535 26.6773 81.6668 26.4 81.9441 26.176C82.2215 25.9413 82.5521 25.7653 82.9361 25.648C83.3308 25.52 83.7681 25.456 84.2481 25.456C84.6535 25.456 85.0108 25.488 85.3201 25.552C85.6401 25.6053 85.9281 25.6907 86.1841 25.808C86.4401 25.9147 86.6748 26.0533 86.8881 26.224C87.1015 26.384 87.3095 26.5653 87.5121 26.768L86.3121 27.968C86.0668 27.712 85.7735 27.4987 85.4321 27.328C85.0908 27.1573 84.7175 27.072 84.3121 27.072C83.8641 27.072 83.5388 27.152 83.3361 27.312C83.1441 27.472 83.0481 27.68 83.0481 27.936C83.0481 28.2133 83.1281 28.4267 83.2881 28.576C83.4588 28.7147 83.7415 28.816 84.1361 28.88L84.9841 28.992C86.7868 29.248 87.6881 30.0693 87.6881 31.456C87.6881 31.8613 87.6028 32.2347 87.4321 32.576C87.2721 32.9067 87.0428 33.1947 86.7441 33.44C86.4455 33.6747 86.0828 33.8613 85.6561 34C85.2401 34.128 84.7708 34.192 84.2481 34.192ZM94.4885 32.608H94.4085C94.3338 32.8213 94.2325 33.024 94.1045 33.216C93.9872 33.3973 93.8325 33.5627 93.6405 33.712C93.4592 33.8613 93.2352 33.9787 92.9685 34.064C92.7125 34.1493 92.4138 34.192 92.0725 34.192C91.2085 34.192 90.5472 33.9093 90.0885 33.344C89.6298 32.7787 89.4005 31.9733 89.4005 30.928V25.648H91.4485V30.72C91.4485 31.296 91.5605 31.7387 91.7845 32.048C92.0085 32.3467 92.3658 32.496 92.8565 32.496C93.0592 32.496 93.2565 32.4693 93.4485 32.416C93.6512 32.3627 93.8272 32.2827 93.9765 32.176C94.1258 32.0587 94.2485 31.92 94.3445 31.76C94.4405 31.5893 94.4885 31.392 94.4885 31.168V25.648H96.5365V34H94.4885V32.608ZM98.9028 34V25.648H100.951V27.04H101.031C101.191 26.6027 101.447 26.2293 101.799 25.92C102.151 25.6107 102.641 25.456 103.271 25.456C103.847 25.456 104.343 25.5947 104.759 25.872C105.175 26.1493 105.484 26.5707 105.687 27.136H105.719C105.868 26.6667 106.161 26.272 106.599 25.952C107.047 25.6213 107.607 25.456 108.279 25.456C109.1 25.456 109.729 25.7387 110.167 26.304C110.615 26.8693 110.839 27.6747 110.839 28.72V34H108.791V28.928C108.791 27.7333 108.343 27.136 107.447 27.136C107.244 27.136 107.047 27.168 106.855 27.232C106.673 27.2853 106.508 27.3707 106.359 27.488C106.22 27.5947 106.108 27.7333 106.023 27.904C105.937 28.064 105.895 28.256 105.895 28.48V34H103.847V28.928C103.847 27.7333 103.399 27.136 102.503 27.136C102.311 27.136 102.119 27.168 101.927 27.232C101.745 27.2853 101.58 27.3707 101.431 27.488C101.292 27.5947 101.175 27.7333 101.079 27.904C100.993 28.064 100.951 28.256 100.951 28.48V34H98.9028ZM122.071 32.608H121.991C121.842 33.088 121.559 33.472 121.143 33.76C120.727 34.048 120.242 34.192 119.687 34.192C118.631 34.192 117.82 33.8133 117.255 33.056C116.7 32.2987 116.423 31.216 116.423 29.808C116.423 28.4107 116.7 27.3387 117.255 26.592C117.82 25.8347 118.631 25.456 119.687 25.456C120.242 25.456 120.727 25.6 121.143 25.888C121.559 26.1653 121.842 26.544 121.991 27.024H122.071V22.16H124.119V34H122.071V32.608ZM120.343 32.496C120.834 32.496 121.244 32.3787 121.575 32.144C121.906 31.9093 122.071 31.5733 122.071 31.136V28.48C122.071 28.0747 121.906 27.7493 121.575 27.504C121.244 27.2587 120.834 27.136 120.343 27.136C119.81 27.136 119.378 27.3173 119.047 27.68C118.727 28.032 118.567 28.5067 118.567 29.104V30.544C118.567 31.1413 118.727 31.616 119.047 31.968C119.378 32.32 119.81 32.496 120.343 32.496ZM129.793 34.192C129.196 34.192 128.657 34.0907 128.177 33.888C127.708 33.6853 127.302 33.392 126.961 33.008C126.63 32.624 126.374 32.1653 126.193 31.632C126.012 31.088 125.921 30.48 125.921 29.808C125.921 29.136 126.012 28.5333 126.193 28C126.374 27.4667 126.63 27.0133 126.961 26.64C127.302 26.256 127.708 25.9627 128.177 25.76C128.657 25.5573 129.196 25.456 129.793 25.456C130.39 25.456 130.929 25.5573 131.409 25.76C131.889 25.9627 132.294 26.256 132.625 26.64C132.966 27.0133 133.228 27.4667 133.409 28C133.59 28.5333 133.681 29.136 133.681 29.808C133.681 30.48 133.59 31.088 133.409 31.632C133.228 32.1653 132.966 32.624 132.625 33.008C132.294 33.392 131.889 33.6853 131.409 33.888C130.929 34.0907 130.39 34.192 129.793 34.192ZM129.793 32.544C130.337 32.544 130.764 32.3787 131.073 32.048C131.382 31.7173 131.537 31.232 131.537 30.592V29.04C131.537 28.4107 131.382 27.9307 131.073 27.6C130.764 27.2693 130.337 27.104 129.793 27.104C129.26 27.104 128.838 27.2693 128.529 27.6C128.22 27.9307 128.065 28.4107 128.065 29.04V30.592C128.065 31.232 128.22 31.7173 128.529 32.048C128.838 32.3787 129.26 32.544 129.793 32.544ZM137.545 34C136.841 34 136.323 33.824 135.993 33.472C135.662 33.12 135.497 32.624 135.497 31.984V22.16H137.545V32.368H138.649V34H137.545ZM143.512 34.192C142.914 34.192 142.376 34.0907 141.896 33.888C141.426 33.6853 141.021 33.392 140.68 33.008C140.349 32.624 140.093 32.1653 139.912 31.632C139.73 31.088 139.64 30.48 139.64 29.808C139.64 29.136 139.73 28.5333 139.912 28C140.093 27.4667 140.349 27.0133 140.68 26.64C141.021 26.256 141.426 25.9627 141.896 25.76C142.376 25.5573 142.914 25.456 143.512 25.456C144.109 25.456 144.648 25.5573 145.128 25.76C145.608 25.9627 146.013 26.256 146.344 26.64C146.685 27.0133 146.946 27.4667 147.128 28C147.309 28.5333 147.4 29.136 147.4 29.808C147.4 30.48 147.309 31.088 147.128 31.632C146.946 32.1653 146.685 32.624 146.344 33.008C146.013 33.392 145.608 33.6853 145.128 33.888C144.648 34.0907 144.109 34.192 143.512 34.192ZM143.512 32.544C144.056 32.544 144.482 32.3787 144.792 32.048C145.101 31.7173 145.256 31.232 145.256 30.592V29.04C145.256 28.4107 145.101 27.9307 144.792 27.6C144.482 27.2693 144.056 27.104 143.512 27.104C142.978 27.104 142.557 27.2693 142.248 27.6C141.938 27.9307 141.784 28.4107 141.784 29.04V30.592C141.784 31.232 141.938 31.7173 142.248 32.048C142.557 32.3787 142.978 32.544 143.512 32.544ZM149.215 34V25.648H151.263V27.376H151.343C151.397 27.152 151.477 26.9387 151.583 26.736C151.701 26.5227 151.85 26.336 152.031 26.176C152.213 26.016 152.426 25.888 152.671 25.792C152.927 25.696 153.221 25.648 153.551 25.648H153.999V27.584H153.359C152.666 27.584 152.143 27.6853 151.791 27.888C151.439 28.0907 151.263 28.4213 151.263 28.88V34H149.215ZM162.014 34.192C161.214 34.192 160.542 34.0587 159.998 33.792C159.454 33.5147 158.974 33.136 158.558 32.656L159.806 31.44C160.115 31.792 160.451 32.0693 160.814 32.272C161.187 32.4747 161.614 32.576 162.094 32.576C162.584 32.576 162.936 32.4907 163.15 32.32C163.374 32.1493 163.486 31.9147 163.486 31.616C163.486 31.3707 163.406 31.1787 163.246 31.04C163.096 30.8907 162.835 30.7893 162.462 30.736L161.63 30.624C160.723 30.5067 160.03 30.2507 159.55 29.856C159.08 29.4507 158.846 28.864 158.846 28.096C158.846 27.6907 158.92 27.328 159.07 27.008C159.219 26.6773 159.432 26.4 159.71 26.176C159.987 25.9413 160.318 25.7653 160.702 25.648C161.096 25.52 161.534 25.456 162.014 25.456C162.419 25.456 162.776 25.488 163.086 25.552C163.406 25.6053 163.694 25.6907 163.95 25.808C164.206 25.9147 164.44 26.0533 164.654 26.224C164.867 26.384 165.075 26.5653 165.278 26.768L164.078 27.968C163.832 27.712 163.539 27.4987 163.198 27.328C162.856 27.1573 162.483 27.072 162.078 27.072C161.63 27.072 161.304 27.152 161.102 27.312C160.91 27.472 160.814 27.68 160.814 27.936C160.814 28.2133 160.894 28.4267 161.054 28.576C161.224 28.7147 161.507 28.816 161.902 28.88L162.75 28.992C164.552 29.248 165.454 30.0693 165.454 31.456C165.454 31.8613 165.368 32.2347 165.198 32.576C165.038 32.9067 164.808 33.1947 164.51 33.44C164.211 33.6747 163.848 33.8613 163.422 34C163.006 34.128 162.536 34.192 162.014 34.192ZM168.286 24.432C167.859 24.432 167.55 24.336 167.358 24.144C167.177 23.952 167.086 23.7067 167.086 23.408V23.088C167.086 22.7893 167.177 22.544 167.358 22.352C167.55 22.16 167.859 22.064 168.286 22.064C168.702 22.064 169.006 22.16 169.198 22.352C169.39 22.544 169.486 22.7893 169.486 23.088V23.408C169.486 23.7067 169.39 23.952 169.198 24.144C169.006 24.336 168.702 24.432 168.286 24.432ZM167.262 25.648H169.31V34H167.262V25.648ZM174.292 34C173.588 34 173.049 33.8187 172.676 33.456C172.313 33.0827 172.132 32.5547 172.132 31.872V27.28H170.9V25.648H171.54C171.849 25.648 172.057 25.5787 172.164 25.44C172.281 25.2907 172.34 25.072 172.34 24.784V23.36H174.18V25.648H175.892V27.28H174.18V32.368H175.764V34H174.292ZM187.594 34C187.146 34 186.788 33.872 186.522 33.616C186.266 33.3493 186.106 32.9973 186.042 32.56H185.946C185.807 33.104 185.524 33.5147 185.098 33.792C184.671 34.0587 184.143 34.192 183.514 34.192C182.66 34.192 182.004 33.968 181.546 33.52C181.087 33.072 180.858 32.4747 180.858 31.728C180.858 30.864 181.167 30.224 181.786 29.808C182.404 29.3813 183.284 29.168 184.426 29.168H185.85V28.56C185.85 28.0907 185.727 27.728 185.482 27.472C185.236 27.216 184.842 27.088 184.298 27.088C183.818 27.088 183.428 27.1947 183.13 27.408C182.842 27.6107 182.596 27.856 182.394 28.144L181.178 27.056C181.487 26.576 181.898 26.192 182.41 25.904C182.922 25.6053 183.599 25.456 184.442 25.456C185.572 25.456 186.431 25.712 187.018 26.224C187.604 26.736 187.898 27.472 187.898 28.432V32.368H188.73V34H187.594ZM184.202 32.704C184.66 32.704 185.05 32.6027 185.37 32.4C185.69 32.1973 185.85 31.8987 185.85 31.504V30.4H184.538C183.471 30.4 182.938 30.7413 182.938 31.424V31.696C182.938 32.0373 183.044 32.2933 183.258 32.464C183.482 32.624 183.796 32.704 184.202 32.704ZM190.387 34V25.648H192.435V27.04H192.515C192.675 26.6027 192.931 26.2293 193.283 25.92C193.635 25.6107 194.126 25.456 194.755 25.456C195.331 25.456 195.827 25.5947 196.243 25.872C196.659 26.1493 196.968 26.5707 197.171 27.136H197.203C197.352 26.6667 197.646 26.272 198.083 25.952C198.531 25.6213 199.091 25.456 199.763 25.456C200.584 25.456 201.214 25.7387 201.651 26.304C202.099 26.8693 202.323 27.6747 202.323 28.72V34H200.275V28.928C200.275 27.7333 199.827 27.136 198.931 27.136C198.728 27.136 198.531 27.168 198.339 27.232C198.158 27.2853 197.992 27.3707 197.843 27.488C197.704 27.5947 197.592 27.7333 197.507 27.904C197.422 28.064 197.379 28.256 197.379 28.48V34H195.331V28.928C195.331 27.7333 194.883 27.136 193.987 27.136C193.795 27.136 193.603 27.168 193.411 27.232C193.23 27.2853 193.064 27.3707 192.915 27.488C192.776 27.5947 192.659 27.7333 192.563 27.904C192.478 28.064 192.435 28.256 192.435 28.48V34H190.387ZM207.966 34.192C207.348 34.192 206.793 34.0907 206.302 33.888C205.822 33.6747 205.412 33.3813 205.07 33.008C204.74 32.624 204.484 32.1653 204.302 31.632C204.121 31.088 204.03 30.48 204.03 29.808C204.03 29.1467 204.116 28.5493 204.286 28.016C204.468 27.4827 204.724 27.0293 205.054 26.656C205.385 26.272 205.79 25.9787 206.27 25.776C206.75 25.5627 207.294 25.456 207.902 25.456C208.553 25.456 209.118 25.568 209.598 25.792C210.078 26.016 210.473 26.32 210.782 26.704C211.092 27.088 211.321 27.536 211.47 28.048C211.63 28.5493 211.71 29.088 211.71 29.664V30.336H206.158V30.544C206.158 31.152 206.329 31.6427 206.67 32.016C207.012 32.3787 207.518 32.56 208.19 32.56C208.702 32.56 209.118 32.4533 209.438 32.24C209.769 32.0267 210.062 31.7547 210.318 31.424L211.422 32.656C211.081 33.136 210.612 33.5147 210.014 33.792C209.428 34.0587 208.745 34.192 207.966 34.192ZM207.934 26.992C207.39 26.992 206.958 27.1733 206.638 27.536C206.318 27.8987 206.158 28.368 206.158 28.944V29.072H209.582V28.928C209.582 28.352 209.438 27.888 209.15 27.536C208.873 27.1733 208.468 26.992 207.934 26.992ZM216.12 34C215.416 34 214.877 33.8187 214.504 33.456C214.141 33.0827 213.96 32.5547 213.96 31.872V27.28H212.728V25.648H213.368C213.677 25.648 213.885 25.5787 213.992 25.44C214.109 25.2907 214.168 25.072 214.168 24.784V23.36H216.008V25.648H217.72V27.28H216.008V32.368H217.592V34H216.12Z" fill="black"/>
<rect x="17" y="57" width="22" height="22" rx="11" fill="white"/>
<rect x="17" y="57" width="22" height="22" rx="11" stroke="#1A1A1A" stroke-width="2"/>
<path d="M52.032 74L48.32 62.832H49.76L51.6 68.464L52.832 72.656H52.912L54.176 68.464L56.032 62.832H57.424L53.664 74H52.032ZM64.6256 74C64.1456 74 63.799 73.872 63.5856 73.616C63.383 73.36 63.255 73.04 63.2016 72.656H63.1216C62.9403 73.168 62.6416 73.552 62.2256 73.808C61.8096 74.064 61.3136 74.192 60.7376 74.192C59.863 74.192 59.1803 73.968 58.6896 73.52C58.2096 73.072 57.9696 72.464 57.9696 71.696C57.9696 70.9173 58.2523 70.32 58.8176 69.904C59.3936 69.488 60.2843 69.28 61.4896 69.28H63.1216V68.464C63.1216 67.8773 62.9616 67.4293 62.6416 67.12C62.3216 66.8107 61.831 66.656 61.1696 66.656C60.6683 66.656 60.247 66.768 59.9056 66.992C59.575 67.216 59.2976 67.5147 59.0736 67.888L58.3056 67.168C58.5296 66.72 58.887 66.3413 59.3776 66.032C59.8683 65.712 60.487 65.552 61.2336 65.552C62.2363 65.552 63.015 65.7973 63.5696 66.288C64.1243 66.7787 64.4016 67.4613 64.4016 68.336V72.88H65.3456V74H64.6256ZM60.9456 73.104C61.2656 73.104 61.559 73.0667 61.8256 72.992C62.0923 72.9173 62.3216 72.8107 62.5136 72.672C62.7056 72.5333 62.855 72.3733 62.9616 72.192C63.0683 72.0107 63.1216 71.8133 63.1216 71.6V70.24H61.4256C60.6896 70.24 60.151 70.3467 59.8096 70.56C59.479 70.7733 59.3136 71.0827 59.3136 71.488V71.824C59.3136 72.2293 59.4576 72.544 59.7456 72.768C60.0443 72.992 60.4443 73.104 60.9456 73.104ZM68.5325 74C68.0845 74 67.7432 73.8773 67.5085 73.632C67.2845 73.376 67.1725 73.056 67.1725 72.672V62.16H68.4525V72.88H69.6685V74H68.5325ZM78.4919 74.912C78.4919 75.7653 78.1559 76.3893 77.4839 76.784C76.8225 77.1893 75.8252 77.392 74.4919 77.392C73.2012 77.392 72.2732 77.216 71.7079 76.864C71.1425 76.512 70.8599 76.0107 70.8599 75.36C70.8599 74.912 70.9772 74.56 71.2119 74.304C71.4465 74.0587 71.7665 73.8773 72.1719 73.76V73.584C71.6812 73.3493 71.4359 72.9653 71.4359 72.432C71.4359 72.016 71.5692 71.7013 71.8359 71.488C72.1025 71.264 72.4439 71.0987 72.8599 70.992V70.928C72.3692 70.6933 71.9852 70.3573 71.7079 69.92C71.4412 69.4827 71.3079 68.976 71.3079 68.4C71.3079 67.984 71.3825 67.6 71.5319 67.248C71.6812 66.896 71.8892 66.5973 72.1559 66.352C72.4332 66.096 72.7585 65.8987 73.1319 65.76C73.5159 65.6213 73.9425 65.552 74.4119 65.552C74.9985 65.552 75.5212 65.6587 75.9799 65.872V65.728C75.9799 65.408 76.0545 65.1467 76.2039 64.944C76.3532 64.7307 76.5985 64.624 76.9399 64.624H78.1719V65.744H76.6039V66.272C76.9025 66.528 77.1319 66.8373 77.2919 67.2C77.4625 67.552 77.5479 67.952 77.5479 68.4C77.5479 68.816 77.4732 69.2 77.3239 69.552C77.1745 69.904 76.9612 70.208 76.6839 70.464C76.4172 70.7093 76.0919 70.9013 75.7079 71.04C75.3239 71.1787 74.8972 71.248 74.4279 71.248C74.1612 71.248 73.8945 71.2213 73.6279 71.168C73.3505 71.2427 73.0999 71.3547 72.8759 71.504C72.6519 71.6427 72.5399 71.84 72.5399 72.096C72.5399 72.3413 72.6572 72.5067 72.8919 72.592C73.1265 72.6773 73.4305 72.72 73.8039 72.72H75.5639C76.5879 72.72 77.3292 72.9173 77.7879 73.312C78.2572 73.696 78.4919 74.2293 78.4919 74.912ZM77.2919 75.008C77.2919 74.6773 77.1639 74.4107 76.9079 74.208C76.6625 74.016 76.2199 73.92 75.5799 73.92H72.8279C72.3159 74.1547 72.0599 74.528 72.0599 75.04C72.0599 75.4027 72.1932 75.712 72.4599 75.968C72.7372 76.224 73.2012 76.352 73.8519 76.352H75.0359C75.7505 76.352 76.3052 76.24 76.6999 76.016C77.0945 75.792 77.2919 75.456 77.2919 75.008ZM74.4279 70.224C74.9719 70.224 75.4039 70.096 75.7239 69.84C76.0439 69.5733 76.2039 69.168 76.2039 68.624V68.176C76.2039 67.632 76.0439 67.232 75.7239 66.976C75.4039 66.7093 74.9719 66.576 74.4279 66.576C73.8839 66.576 73.4519 66.7093 73.1319 66.976C72.8119 67.232 72.6519 67.632 72.6519 68.176V68.624C72.6519 69.168 72.8119 69.5733 73.1319 69.84C73.4519 70.096 73.8839 70.224 74.4279 70.224ZM79.985 74V65.744H81.265V67.088H81.329C81.425 66.8747 81.5317 66.6773 81.649 66.496C81.777 66.304 81.9263 66.1387 82.097 66C82.2783 65.8613 82.4863 65.7547 82.721 65.68C82.9557 65.5947 83.233 65.552 83.553 65.552C84.097 65.552 84.5983 65.6853 85.057 65.952C85.5157 66.208 85.857 66.6347 86.081 67.232H86.113C86.2623 66.784 86.5397 66.3947 86.945 66.064C87.361 65.7227 87.921 65.552 88.625 65.552C89.4677 65.552 90.1237 65.8293 90.593 66.384C91.073 66.928 91.313 67.7013 91.313 68.704V74H90.033V68.928C90.033 68.192 89.889 67.6373 89.601 67.264C89.313 66.8907 88.8543 66.704 88.225 66.704C87.969 66.704 87.7237 66.736 87.489 66.8C87.265 66.864 87.0623 66.96 86.881 67.088C86.6997 67.216 86.5557 67.3813 86.449 67.584C86.3423 67.776 86.289 68.0053 86.289 68.272V74H85.009V68.928C85.009 68.192 84.865 67.6373 84.577 67.264C84.289 66.8907 83.841 66.704 83.233 66.704C82.977 66.704 82.7317 66.736 82.497 66.8C82.2623 66.864 82.0543 66.96 81.873 67.088C81.6917 67.216 81.5423 67.3813 81.425 67.584C81.3183 67.776 81.265 68.0053 81.265 68.272V74H79.985ZM99.0418 72.656H98.9778C98.8924 72.848 98.7858 73.04 98.6578 73.232C98.5404 73.4133 98.3911 73.5787 98.2098 73.728C98.0284 73.8667 97.8098 73.9787 97.5538 74.064C97.2978 74.1493 96.9991 74.192 96.6578 74.192C95.8044 74.192 95.1271 73.92 94.6258 73.376C94.1244 72.8213 93.8738 72.0427 93.8738 71.04V65.744H95.1538V70.816C95.1538 72.2987 95.7831 73.04 97.0418 73.04C97.2978 73.04 97.5431 73.008 97.7778 72.944C98.0231 72.88 98.2364 72.784 98.4178 72.656C98.6098 72.528 98.7591 72.368 98.8658 72.176C98.9831 71.9733 99.0418 71.7333 99.0418 71.456V65.744H100.322V74H99.0418V72.656ZM104.408 74C103.96 74 103.618 73.8773 103.384 73.632C103.16 73.376 103.048 73.056 103.048 72.672V62.16H104.328V72.88H105.544V74H104.408ZM108.047 63.808C107.77 63.808 107.567 63.744 107.439 63.616C107.322 63.4773 107.263 63.3013 107.263 63.088V62.88C107.263 62.6667 107.322 62.496 107.439 62.368C107.567 62.2293 107.77 62.16 108.047 62.16C108.324 62.16 108.522 62.2293 108.639 62.368C108.767 62.496 108.831 62.6667 108.831 62.88V63.088C108.831 63.3013 108.767 63.4773 108.639 63.616C108.522 63.744 108.324 63.808 108.047 63.808ZM107.407 65.744H108.687V74H107.407V65.744ZM118.367 74.912C118.367 75.7653 118.031 76.3893 117.359 76.784C116.698 77.1893 115.7 77.392 114.367 77.392C113.076 77.392 112.148 77.216 111.583 76.864C111.018 76.512 110.735 76.0107 110.735 75.36C110.735 74.912 110.852 74.56 111.087 74.304C111.322 74.0587 111.642 73.8773 112.047 73.76V73.584C111.556 73.3493 111.311 72.9653 111.311 72.432C111.311 72.016 111.444 71.7013 111.711 71.488C111.978 71.264 112.319 71.0987 112.735 70.992V70.928C112.244 70.6933 111.86 70.3573 111.583 69.92C111.316 69.4827 111.183 68.976 111.183 68.4C111.183 67.984 111.258 67.6 111.407 67.248C111.556 66.896 111.764 66.5973 112.031 66.352C112.308 66.096 112.634 65.8987 113.007 65.76C113.391 65.6213 113.818 65.552 114.287 65.552C114.874 65.552 115.396 65.6587 115.855 65.872V65.728C115.855 65.408 115.93 65.1467 116.079 64.944C116.228 64.7307 116.474 64.624 116.815 64.624H118.047V65.744H116.479V66.272C116.778 66.528 117.007 66.8373 117.167 67.2C117.338 67.552 117.423 67.952 117.423 68.4C117.423 68.816 117.348 69.2 117.199 69.552C117.05 69.904 116.836 70.208 116.559 70.464C116.292 70.7093 115.967 70.9013 115.583 71.04C115.199 71.1787 114.772 71.248 114.303 71.248C114.036 71.248 113.77 71.2213 113.503 71.168C113.226 71.2427 112.975 71.3547 112.751 71.504C112.527 71.6427 112.415 71.84 112.415 72.096C112.415 72.3413 112.532 72.5067 112.767 72.592C113.002 72.6773 113.306 72.72 113.679 72.72H115.439C116.463 72.72 117.204 72.9173 117.663 73.312C118.132 73.696 118.367 74.2293 118.367 74.912ZM117.167 75.008C117.167 74.6773 117.039 74.4107 116.783 74.208C116.538 74.016 116.095 73.92 115.455 73.92H112.703C112.191 74.1547 111.935 74.528 111.935 75.04C111.935 75.4027 112.068 75.712 112.335 75.968C112.612 76.224 113.076 76.352 113.727 76.352H114.911C115.626 76.352 116.18 76.24 116.575 76.016C116.97 75.792 117.167 75.456 117.167 75.008ZM114.303 70.224C114.847 70.224 115.279 70.096 115.599 69.84C115.919 69.5733 116.079 69.168 116.079 68.624V68.176C116.079 67.632 115.919 67.232 115.599 66.976C115.279 66.7093 114.847 66.576 114.303 66.576C113.759 66.576 113.327 66.7093 113.007 66.976C112.687 67.232 112.527 67.632 112.527 68.176V68.624C112.527 69.168 112.687 69.5733 113.007 69.84C113.327 70.096 113.759 70.224 114.303 70.224ZM119.86 62.16H121.14V67.088H121.204C121.407 66.6187 121.689 66.2453 122.052 65.968C122.425 65.6907 122.921 65.552 123.54 65.552C124.393 65.552 125.065 65.8293 125.556 66.384C126.057 66.928 126.308 67.7013 126.308 68.704V74H125.028V68.928C125.028 67.4453 124.404 66.704 123.156 66.704C122.9 66.704 122.649 66.736 122.404 66.8C122.169 66.864 121.956 66.96 121.764 67.088C121.572 67.216 121.417 67.3813 121.3 67.584C121.193 67.776 121.14 68.0053 121.14 68.272V74H119.86V62.16ZM132.058 74.192C131.492 74.192 130.98 74.0907 130.522 73.888C130.074 73.6853 129.684 73.3973 129.354 73.024C129.034 72.64 128.783 72.1867 128.602 71.664C128.431 71.1307 128.346 70.5333 128.346 69.872C128.346 69.2213 128.431 68.6293 128.602 68.096C128.783 67.5627 129.034 67.1093 129.354 66.736C129.684 66.352 130.074 66.0587 130.522 65.856C130.98 65.6533 131.492 65.552 132.058 65.552C132.612 65.552 133.108 65.6533 133.546 65.856C133.983 66.0587 134.356 66.3413 134.666 66.704C134.975 67.056 135.21 67.4773 135.37 67.968C135.54 68.4587 135.626 68.9973 135.626 69.584V70.192H129.69V70.576C129.69 70.928 129.743 71.2587 129.85 71.568C129.967 71.8667 130.127 72.128 130.33 72.352C130.543 72.576 130.799 72.752 131.098 72.88C131.407 73.008 131.754 73.072 132.138 73.072C132.66 73.072 133.114 72.9493 133.498 72.704C133.892 72.4587 134.196 72.1067 134.41 71.648L135.322 72.304C135.055 72.8693 134.639 73.328 134.074 73.68C133.508 74.0213 132.836 74.192 132.058 74.192ZM132.058 66.624C131.706 66.624 131.386 66.688 131.098 66.816C130.81 66.9333 130.559 67.104 130.346 67.328C130.143 67.552 129.983 67.8187 129.866 68.128C129.748 68.4267 129.69 68.7573 129.69 69.12V69.232H134.25V69.056C134.25 68.32 134.047 67.7333 133.642 67.296C133.247 66.848 132.719 66.624 132.058 66.624ZM143.015 72.656H142.951C142.45 73.68 141.644 74.192 140.535 74.192C140.023 74.192 139.559 74.0907 139.143 73.888C138.727 73.6853 138.37 73.3973 138.071 73.024C137.783 72.6507 137.559 72.1973 137.399 71.664C137.25 71.1307 137.175 70.5333 137.175 69.872C137.175 69.2107 137.25 68.6133 137.399 68.08C137.559 67.5467 137.783 67.0933 138.071 66.72C138.37 66.3467 138.727 66.0587 139.143 65.856C139.559 65.6533 140.023 65.552 140.535 65.552C141.111 65.552 141.602 65.68 142.007 65.936C142.423 66.1813 142.738 66.5653 142.951 67.088H143.015V62.16H144.295V74H143.015V72.656ZM140.887 73.04C141.175 73.04 141.447 73.0027 141.703 72.928C141.97 72.8533 142.199 72.7467 142.391 72.608C142.583 72.4587 142.732 72.2827 142.839 72.08C142.956 71.8667 143.015 71.6267 143.015 71.36V68.288C143.015 68.064 142.956 67.856 142.839 67.664C142.732 67.4613 142.583 67.2907 142.391 67.152C142.199 67.0133 141.97 66.9067 141.703 66.832C141.447 66.7467 141.175 66.704 140.887 66.704C140.162 66.704 139.591 66.9333 139.175 67.392C138.759 67.84 138.551 68.432 138.551 69.168V70.576C138.551 71.312 138.759 71.9093 139.175 72.368C139.591 72.816 140.162 73.04 140.887 73.04ZM150.846 74V72.816H153.966V63.824H153.854L151.038 66.448L150.254 65.6L153.214 62.832H155.31V72.816H158.19V74H150.846Z" fill="#1A1A1A"/>
<rect x="17" y="97" width="22" height="22" rx="11" fill="white"/>
<rect x="17" y="97" width="22" height="22" rx="11" stroke="#1A1A1A" stroke-width="2"/>
<circle cx="28" cy="108" r="6" fill="#1A1A1A"/>
<path d="M52.032 114L48.32 102.832H49.76L51.6 108.464L52.832 112.656H52.912L54.176 108.464L56.032 102.832H57.424L53.664 114H52.032ZM64.6256 114C64.1456 114 63.799 113.872 63.5856 113.616C63.383 113.36 63.255 113.04 63.2016 112.656H63.1216C62.9403 113.168 62.6416 113.552 62.2256 113.808C61.8096 114.064 61.3136 114.192 60.7376 114.192C59.863 114.192 59.1803 113.968 58.6896 113.52C58.2096 113.072 57.9696 112.464 57.9696 111.696C57.9696 110.917 58.2523 110.32 58.8176 109.904C59.3936 109.488 60.2843 109.28 61.4896 109.28H63.1216V108.464C63.1216 107.877 62.9616 107.429 62.6416 107.12C62.3216 106.811 61.831 106.656 61.1696 106.656C60.6683 106.656 60.247 106.768 59.9056 106.992C59.575 107.216 59.2976 107.515 59.0736 107.888L58.3056 107.168C58.5296 106.72 58.887 106.341 59.3776 106.032C59.8683 105.712 60.487 105.552 61.2336 105.552C62.2363 105.552 63.015 105.797 63.5696 106.288C64.1243 106.779 64.4016 107.461 64.4016 108.336V112.88H65.3456V114H64.6256ZM60.9456 113.104C61.2656 113.104 61.559 113.067 61.8256 112.992C62.0923 112.917 62.3216 112.811 62.5136 112.672C62.7056 112.533 62.855 112.373 62.9616 112.192C63.0683 112.011 63.1216 111.813 63.1216 111.6V110.24H61.4256C60.6896 110.24 60.151 110.347 59.8096 110.56C59.479 110.773 59.3136 111.083 59.3136 111.488V111.824C59.3136 112.229 59.4576 112.544 59.7456 112.768C60.0443 112.992 60.4443 113.104 60.9456 113.104ZM68.5325 114C68.0845 114 67.7432 113.877 67.5085 113.632C67.2845 113.376 67.1725 113.056 67.1725 112.672V102.16H68.4525V112.88H69.6685V114H68.5325ZM78.4919 114.912C78.4919 115.765 78.1559 116.389 77.4839 116.784C76.8225 117.189 75.8252 117.392 74.4919 117.392C73.2012 117.392 72.2732 117.216 71.7079 116.864C71.1425 116.512 70.8599 116.011 70.8599 115.36C70.8599 114.912 70.9772 114.56 71.2119 114.304C71.4465 114.059 71.7665 113.877 72.1719 113.76V113.584C71.6812 113.349 71.4359 112.965 71.4359 112.432C71.4359 112.016 71.5692 111.701 71.8359 111.488C72.1025 111.264 72.4439 111.099 72.8599 110.992V110.928C72.3692 110.693 71.9852 110.357 71.7079 109.92C71.4412 109.483 71.3079 108.976 71.3079 108.4C71.3079 107.984 71.3825 107.6 71.5319 107.248C71.6812 106.896 71.8892 106.597 72.1559 106.352C72.4332 106.096 72.7585 105.899 73.1319 105.76C73.5159 105.621 73.9425 105.552 74.4119 105.552C74.9985 105.552 75.5212 105.659 75.9799 105.872V105.728C75.9799 105.408 76.0545 105.147 76.2039 104.944C76.3532 104.731 76.5985 104.624 76.9399 104.624H78.1719V105.744H76.6039V106.272C76.9025 106.528 77.1319 106.837 77.2919 107.2C77.4625 107.552 77.5479 107.952 77.5479 108.4C77.5479 108.816 77.4732 109.2 77.3239 109.552C77.1745 109.904 76.9612 110.208 76.6839 110.464C76.4172 110.709 76.0919 110.901 75.7079 111.04C75.3239 111.179 74.8972 111.248 74.4279 111.248C74.1612 111.248 73.8945 111.221 73.6279 111.168C73.3505 111.243 73.0999 111.355 72.8759 111.504C72.6519 111.643 72.5399 111.84 72.5399 112.096C72.5399 112.341 72.6572 112.507 72.8919 112.592C73.1265 112.677 73.4305 112.72 73.8039 112.72H75.5639C76.5879 112.72 77.3292 112.917 77.7879 113.312C78.2572 113.696 78.4919 114.229 78.4919 114.912ZM77.2919 115.008C77.2919 114.677 77.1639 114.411 76.9079 114.208C76.6625 114.016 76.2199 113.92 75.5799 113.92H72.8279C72.3159 114.155 72.0599 114.528 72.0599 115.04C72.0599 115.403 72.1932 115.712 72.4599 115.968C72.7372 116.224 73.2012 116.352 73.8519 116.352H75.0359C75.7505 116.352 76.3052 116.24 76.6999 116.016C77.0945 115.792 77.2919 115.456 77.2919 115.008ZM74.4279 110.224C74.9719 110.224 75.4039 110.096 75.7239 109.84C76.0439 109.573 76.2039 109.168 76.2039 108.624V108.176C76.2039 107.632 76.0439 107.232 75.7239 106.976C75.4039 106.709 74.9719 106.576 74.4279 106.576C73.8839 106.576 73.4519 106.709 73.1319 106.976C72.8119 107.232 72.6519 107.632 72.6519 108.176V108.624C72.6519 109.168 72.8119 109.573 73.1319 109.84C73.4519 110.096 73.8839 110.224 74.4279 110.224ZM79.985 114V105.744H81.265V107.088H81.329C81.425 106.875 81.5317 106.677 81.649 106.496C81.777 106.304 81.9263 106.139 82.097 106C82.2783 105.861 82.4863 105.755 82.721 105.68C82.9557 105.595 83.233 105.552 83.553 105.552C84.097 105.552 84.5983 105.685 85.057 105.952C85.5157 106.208 85.857 106.635 86.081 107.232H86.113C86.2623 106.784 86.5397 106.395 86.945 106.064C87.361 105.723 87.921 105.552 88.625 105.552C89.4677 105.552 90.1237 105.829 90.593 106.384C91.073 106.928 91.313 107.701 91.313 108.704V114H90.033V108.928C90.033 108.192 89.889 107.637 89.601 107.264C89.313 106.891 88.8543 106.704 88.225 106.704C87.969 106.704 87.7237 106.736 87.489 106.8C87.265 106.864 87.0623 106.96 86.881 107.088C86.6997 107.216 86.5557 107.381 86.449 107.584C86.3423 107.776 86.289 108.005 86.289 108.272V114H85.009V108.928C85.009 108.192 84.865 107.637 84.577 107.264C84.289 106.891 83.841 106.704 83.233 106.704C82.977 106.704 82.7317 106.736 82.497 106.8C82.2623 106.864 82.0543 106.96 81.873 107.088C81.6917 107.216 81.5423 107.381 81.425 107.584C81.3183 107.776 81.265 108.005 81.265 108.272V114H79.985ZM99.0418 112.656H98.9778C98.8924 112.848 98.7858 113.04 98.6578 113.232C98.5404 113.413 98.3911 113.579 98.2098 113.728C98.0284 113.867 97.8098 113.979 97.5538 114.064C97.2978 114.149 96.9991 114.192 96.6578 114.192C95.8044 114.192 95.1271 113.92 94.6258 113.376C94.1244 112.821 93.8738 112.043 93.8738 111.04V105.744H95.1538V110.816C95.1538 112.299 95.7831 113.04 97.0418 113.04C97.2978 113.04 97.5431 113.008 97.7778 112.944C98.0231 112.88 98.2364 112.784 98.4178 112.656C98.6098 112.528 98.7591 112.368 98.8658 112.176C98.9831 111.973 99.0418 111.733 99.0418 111.456V105.744H100.322V114H99.0418V112.656ZM104.408 114C103.96 114 103.618 113.877 103.384 113.632C103.16 113.376 103.048 113.056 103.048 112.672V102.16H104.328V112.88H105.544V114H104.408ZM108.047 103.808C107.77 103.808 107.567 103.744 107.439 103.616C107.322 103.477 107.263 103.301 107.263 103.088V102.88C107.263 102.667 107.322 102.496 107.439 102.368C107.567 102.229 107.77 102.16 108.047 102.16C108.324 102.16 108.522 102.229 108.639 102.368C108.767 102.496 108.831 102.667 108.831 102.88V103.088C108.831 103.301 108.767 103.477 108.639 103.616C108.522 103.744 108.324 103.808 108.047 103.808ZM107.407 105.744H108.687V114H107.407V105.744ZM118.367 114.912C118.367 115.765 118.031 116.389 117.359 116.784C116.698 117.189 115.7 117.392 114.367 117.392C113.076 117.392 112.148 117.216 111.583 116.864C111.018 116.512 110.735 116.011 110.735 115.36C110.735 114.912 110.852 114.56 111.087 114.304C111.322 114.059 111.642 113.877 112.047 113.76V113.584C111.556 113.349 111.311 112.965 111.311 112.432C111.311 112.016 111.444 111.701 111.711 111.488C111.978 111.264 112.319 111.099 112.735 110.992V110.928C112.244 110.693 111.86 110.357 111.583 109.92C111.316 109.483 111.183 108.976 111.183 108.4C111.183 107.984 111.258 107.6 111.407 107.248C111.556 106.896 111.764 106.597 112.031 106.352C112.308 106.096 112.634 105.899 113.007 105.76C113.391 105.621 113.818 105.552 114.287 105.552C114.874 105.552 115.396 105.659 115.855 105.872V105.728C115.855 105.408 115.93 105.147 116.079 104.944C116.228 104.731 116.474 104.624 116.815 104.624H118.047V105.744H116.479V106.272C116.778 106.528 117.007 106.837 117.167 107.2C117.338 107.552 117.423 107.952 117.423 108.4C117.423 108.816 117.348 109.2 117.199 109.552C117.05 109.904 116.836 110.208 116.559 110.464C116.292 110.709 115.967 110.901 115.583 111.04C115.199 111.179 114.772 111.248 114.303 111.248C114.036 111.248 113.77 111.221 113.503 111.168C113.226 111.243 112.975 111.355 112.751 111.504C112.527 111.643 112.415 111.84 112.415 112.096C112.415 112.341 112.532 112.507 112.767 112.592C113.002 112.677 113.306 112.72 113.679 112.72H115.439C116.463 112.72 117.204 112.917 117.663 113.312C118.132 113.696 118.367 114.229 118.367 114.912ZM117.167 115.008C117.167 114.677 117.039 114.411 116.783 114.208C116.538 114.016 116.095 113.92 115.455 113.92H112.703C112.191 114.155 111.935 114.528 111.935 115.04C111.935 115.403 112.068 115.712 112.335 115.968C112.612 116.224 113.076 116.352 113.727 116.352H114.911C115.626 116.352 116.18 116.24 116.575 116.016C116.97 115.792 117.167 115.456 117.167 115.008ZM114.303 110.224C114.847 110.224 115.279 110.096 115.599 109.84C115.919 109.573 116.079 109.168 116.079 108.624V108.176C116.079 107.632 115.919 107.232 115.599 106.976C115.279 106.709 114.847 106.576 114.303 106.576C113.759 106.576 113.327 106.709 113.007 106.976C112.687 107.232 112.527 107.632 112.527 108.176V108.624C112.527 109.168 112.687 109.573 113.007 109.84C113.327 110.096 113.759 110.224 114.303 110.224ZM119.86 102.16H121.14V107.088H121.204C121.407 106.619 121.689 106.245 122.052 105.968C122.425 105.691 122.921 105.552 123.54 105.552C124.393 105.552 125.065 105.829 125.556 106.384C126.057 106.928 126.308 107.701 126.308 108.704V114H125.028V108.928C125.028 107.445 124.404 106.704 123.156 106.704C122.9 106.704 122.649 106.736 122.404 106.8C122.169 106.864 121.956 106.96 121.764 107.088C121.572 107.216 121.417 107.381 121.3 107.584C121.193 107.776 121.14 108.005 121.14 108.272V114H119.86V102.16ZM132.058 114.192C131.492 114.192 130.98 114.091 130.522 113.888C130.074 113.685 129.684 113.397 129.354 113.024C129.034 112.64 128.783 112.187 128.602 111.664C128.431 111.131 128.346 110.533 128.346 109.872C128.346 109.221 128.431 108.629 128.602 108.096C128.783 107.563 129.034 107.109 129.354 106.736C129.684 106.352 130.074 106.059 130.522 105.856C130.98 105.653 131.492 105.552 132.058 105.552C132.612 105.552 133.108 105.653 133.546 105.856C133.983 106.059 134.356 106.341 134.666 106.704C134.975 107.056 135.21 107.477 135.37 107.968C135.54 108.459 135.626 108.997 135.626 109.584V110.192H129.69V110.576C129.69 110.928 129.743 111.259 129.85 111.568C129.967 111.867 130.127 112.128 130.33 112.352C130.543 112.576 130.799 112.752 131.098 112.88C131.407 113.008 131.754 113.072 132.138 113.072C132.66 113.072 133.114 112.949 133.498 112.704C133.892 112.459 134.196 112.107 134.41 111.648L135.322 112.304C135.055 112.869 134.639 113.328 134.074 113.68C133.508 114.021 132.836 114.192 132.058 114.192ZM132.058 106.624C131.706 106.624 131.386 106.688 131.098 106.816C130.81 106.933 130.559 107.104 130.346 107.328C130.143 107.552 129.983 107.819 129.866 108.128C129.748 108.427 129.69 108.757 129.69 109.12V109.232H134.25V109.056C134.25 108.32 134.047 107.733 133.642 107.296C133.247 106.848 132.719 106.624 132.058 106.624ZM143.015 112.656H142.951C142.45 113.68 141.644 114.192 140.535 114.192C140.023 114.192 139.559 114.091 139.143 113.888C138.727 113.685 138.37 113.397 138.071 113.024C137.783 112.651 137.559 112.197 137.399 111.664C137.25 111.131 137.175 110.533 137.175 109.872C137.175 109.211 137.25 108.613 137.399 108.08C137.559 107.547 137.783 107.093 138.071 106.72C138.37 106.347 138.727 106.059 139.143 105.856C139.559 105.653 140.023 105.552 140.535 105.552C141.111 105.552 141.602 105.68 142.007 105.936C142.423 106.181 142.738 106.565 142.951 107.088H143.015V102.16H144.295V114H143.015V112.656ZM140.887 113.04C141.175 113.04 141.447 113.003 141.703 112.928C141.97 112.853 142.199 112.747 142.391 112.608C142.583 112.459 142.732 112.283 142.839 112.08C142.956 111.867 143.015 111.627 143.015 111.36V108.288C143.015 108.064 142.956 107.856 142.839 107.664C142.732 107.461 142.583 107.291 142.391 107.152C142.199 107.013 141.97 106.907 141.703 106.832C141.447 106.747 141.175 106.704 140.887 106.704C140.162 106.704 139.591 106.933 139.175 107.392C138.759 107.84 138.551 108.432 138.551 109.168V110.576C138.551 111.312 138.759 111.909 139.175 112.368C139.591 112.816 140.162 113.04 140.887 113.04ZM157.966 114H150.638V112.624L154.286 109.264C154.808 108.784 155.246 108.277 155.598 107.744C155.95 107.2 156.126 106.656 156.126 106.112V105.92C156.126 105.301 155.955 104.8 155.614 104.416C155.272 104.032 154.755 103.84 154.062 103.84C153.72 103.84 153.422 103.888 153.166 103.984C152.91 104.08 152.686 104.213 152.494 104.384C152.312 104.555 152.158 104.757 152.03 104.992C151.912 105.216 151.816 105.461 151.742 105.728L150.542 105.264C150.648 104.933 150.792 104.613 150.974 104.304C151.166 103.984 151.4 103.701 151.678 103.456C151.966 103.211 152.307 103.013 152.702 102.864C153.107 102.715 153.582 102.64 154.126 102.64C154.67 102.64 155.155 102.72 155.582 102.88C156.008 103.04 156.366 103.264 156.654 103.552C156.942 103.84 157.16 104.181 157.31 104.576C157.47 104.971 157.55 105.408 157.55 105.888C157.55 106.325 157.486 106.731 157.358 107.104C157.24 107.477 157.075 107.835 156.862 108.176C156.648 108.507 156.387 108.832 156.078 109.152C155.779 109.472 155.454 109.792 155.102 110.112L152.094 112.816H157.966V114Z" fill="#1A1A1A"/>
<rect x="17" y="137" width="22" height="22" rx="11" fill="white"/>
<rect x="17" y="137" width="22" height="22" rx="11" stroke="#1A1A1A" stroke-width="2"/>
<path d="M52.032 154L48.32 142.832H49.76L51.6 148.464L52.832 152.656H52.912L54.176 148.464L56.032 142.832H57.424L53.664 154H52.032ZM64.6256 154C64.1456 154 63.799 153.872 63.5856 153.616C63.383 153.36 63.255 153.04 63.2016 152.656H63.1216C62.9403 153.168 62.6416 153.552 62.2256 153.808C61.8096 154.064 61.3136 154.192 60.7376 154.192C59.863 154.192 59.1803 153.968 58.6896 153.52C58.2096 153.072 57.9696 152.464 57.9696 151.696C57.9696 150.917 58.2523 150.32 58.8176 149.904C59.3936 149.488 60.2843 149.28 61.4896 149.28H63.1216V148.464C63.1216 147.877 62.9616 147.429 62.6416 147.12C62.3216 146.811 61.831 146.656 61.1696 146.656C60.6683 146.656 60.247 146.768 59.9056 146.992C59.575 147.216 59.2976 147.515 59.0736 147.888L58.3056 147.168C58.5296 146.72 58.887 146.341 59.3776 146.032C59.8683 145.712 60.487 145.552 61.2336 145.552C62.2363 145.552 63.015 145.797 63.5696 146.288C64.1243 146.779 64.4016 147.461 64.4016 148.336V152.88H65.3456V154H64.6256ZM60.9456 153.104C61.2656 153.104 61.559 153.067 61.8256 152.992C62.0923 152.917 62.3216 152.811 62.5136 152.672C62.7056 152.533 62.855 152.373 62.9616 152.192C63.0683 152.011 63.1216 151.813 63.1216 151.6V150.24H61.4256C60.6896 150.24 60.151 150.347 59.8096 150.56C59.479 150.773 59.3136 151.083 59.3136 151.488V151.824C59.3136 152.229 59.4576 152.544 59.7456 152.768C60.0443 152.992 60.4443 153.104 60.9456 153.104ZM68.5325 154C68.0845 154 67.7432 153.877 67.5085 153.632C67.2845 153.376 67.1725 153.056 67.1725 152.672V142.16H68.4525V152.88H69.6685V154H68.5325ZM78.4919 154.912C78.4919 155.765 78.1559 156.389 77.4839 156.784C76.8225 157.189 75.8252 157.392 74.4919 157.392C73.2012 157.392 72.2732 157.216 71.7079 156.864C71.1425 156.512 70.8599 156.011 70.8599 155.36C70.8599 154.912 70.9772 154.56 71.2119 154.304C71.4465 154.059 71.7665 153.877 72.1719 153.76V153.584C71.6812 153.349 71.4359 152.965 71.4359 152.432C71.4359 152.016 71.5692 151.701 71.8359 151.488C72.1025 151.264 72.4439 151.099 72.8599 150.992V150.928C72.3692 150.693 71.9852 150.357 71.7079 149.92C71.4412 149.483 71.3079 148.976 71.3079 148.4C71.3079 147.984 71.3825 147.6 71.5319 147.248C71.6812 146.896 71.8892 146.597 72.1559 146.352C72.4332 146.096 72.7585 145.899 73.1319 145.76C73.5159 145.621 73.9425 145.552 74.4119 145.552C74.9985 145.552 75.5212 145.659 75.9799 145.872V145.728C75.9799 145.408 76.0545 145.147 76.2039 144.944C76.3532 144.731 76.5985 144.624 76.9399 144.624H78.1719V145.744H76.6039V146.272C76.9025 146.528 77.1319 146.837 77.2919 147.2C77.4625 147.552 77.5479 147.952 77.5479 148.4C77.5479 148.816 77.4732 149.2 77.3239 149.552C77.1745 149.904 76.9612 150.208 76.6839 150.464C76.4172 150.709 76.0919 150.901 75.7079 151.04C75.3239 151.179 74.8972 151.248 74.4279 151.248C74.1612 151.248 73.8945 151.221 73.6279 151.168C73.3505 151.243 73.0999 151.355 72.8759 151.504C72.6519 151.643 72.5399 151.84 72.5399 152.096C72.5399 152.341 72.6572 152.507 72.8919 152.592C73.1265 152.677 73.4305 152.72 73.8039 152.72H75.5639C76.5879 152.72 77.3292 152.917 77.7879 153.312C78.2572 153.696 78.4919 154.229 78.4919 154.912ZM77.2919 155.008C77.2919 154.677 77.1639 154.411 76.9079 154.208C76.6625 154.016 76.2199 153.92 75.5799 153.92H72.8279C72.3159 154.155 72.0599 154.528 72.0599 155.04C72.0599 155.403 72.1932 155.712 72.4599 155.968C72.7372 156.224 73.2012 156.352 73.8519 156.352H75.0359C75.7505 156.352 76.3052 156.24 76.6999 156.016C77.0945 155.792 77.2919 155.456 77.2919 155.008ZM74.4279 150.224C74.9719 150.224 75.4039 150.096 75.7239 149.84C76.0439 149.573 76.2039 149.168 76.2039 148.624V148.176C76.2039 147.632 76.0439 147.232 75.7239 146.976C75.4039 146.709 74.9719 146.576 74.4279 146.576C73.8839 146.576 73.4519 146.709 73.1319 146.976C72.8119 147.232 72.6519 147.632 72.6519 148.176V148.624C72.6519 149.168 72.8119 149.573 73.1319 149.84C73.4519 150.096 73.8839 150.224 74.4279 150.224ZM79.985 154V145.744H81.265V147.088H81.329C81.425 146.875 81.5317 146.677 81.649 146.496C81.777 146.304 81.9263 146.139 82.097 146C82.2783 145.861 82.4863 145.755 82.721 145.68C82.9557 145.595 83.233 145.552 83.553 145.552C84.097 145.552 84.5983 145.685 85.057 145.952C85.5157 146.208 85.857 146.635 86.081 147.232H86.113C86.2623 146.784 86.5397 146.395 86.945 146.064C87.361 145.723 87.921 145.552 88.625 145.552C89.4677 145.552 90.1237 145.829 90.593 146.384C91.073 146.928 91.313 147.701 91.313 148.704V154H90.033V148.928C90.033 148.192 89.889 147.637 89.601 147.264C89.313 146.891 88.8543 146.704 88.225 146.704C87.969 146.704 87.7237 146.736 87.489 146.8C87.265 146.864 87.0623 146.96 86.881 147.088C86.6997 147.216 86.5557 147.381 86.449 147.584C86.3423 147.776 86.289 148.005 86.289 148.272V154H85.009V148.928C85.009 148.192 84.865 147.637 84.577 147.264C84.289 146.891 83.841 146.704 83.233 146.704C82.977 146.704 82.7317 146.736 82.497 146.8C82.2623 146.864 82.0543 146.96 81.873 147.088C81.6917 147.216 81.5423 147.381 81.425 147.584C81.3183 147.776 81.265 148.005 81.265 148.272V154H79.985ZM99.0418 152.656H98.9778C98.8924 152.848 98.7858 153.04 98.6578 153.232C98.5404 153.413 98.3911 153.579 98.2098 153.728C98.0284 153.867 97.8098 153.979 97.5538 154.064C97.2978 154.149 96.9991 154.192 96.6578 154.192C95.8044 154.192 95.1271 153.92 94.6258 153.376C94.1244 152.821 93.8738 152.043 93.8738 151.04V145.744H95.1538V150.816C95.1538 152.299 95.7831 153.04 97.0418 153.04C97.2978 153.04 97.5431 153.008 97.7778 152.944C98.0231 152.88 98.2364 152.784 98.4178 152.656C98.6098 152.528 98.7591 152.368 98.8658 152.176C98.9831 151.973 99.0418 151.733 99.0418 151.456V145.744H100.322V154H99.0418V152.656ZM104.408 154C103.96 154 103.618 153.877 103.384 153.632C103.16 153.376 103.048 153.056 103.048 152.672V142.16H104.328V152.88H105.544V154H104.408ZM108.047 143.808C107.77 143.808 107.567 143.744 107.439 143.616C107.322 143.477 107.263 143.301 107.263 143.088V142.88C107.263 142.667 107.322 142.496 107.439 142.368C107.567 142.229 107.77 142.16 108.047 142.16C108.324 142.16 108.522 142.229 108.639 142.368C108.767 142.496 108.831 142.667 108.831 142.88V143.088C108.831 143.301 108.767 143.477 108.639 143.616C108.522 143.744 108.324 143.808 108.047 143.808ZM107.407 145.744H108.687V154H107.407V145.744ZM118.367 154.912C118.367 155.765 118.031 156.389 117.359 156.784C116.698 157.189 115.7 157.392 114.367 157.392C113.076 157.392 112.148 157.216 111.583 156.864C111.018 156.512 110.735 156.011 110.735 155.36C110.735 154.912 110.852 154.56 111.087 154.304C111.322 154.059 111.642 153.877 112.047 153.76V153.584C111.556 153.349 111.311 152.965 111.311 152.432C111.311 152.016 111.444 151.701 111.711 151.488C111.978 151.264 112.319 151.099 112.735 150.992V150.928C112.244 150.693 111.86 150.357 111.583 149.92C111.316 149.483 111.183 148.976 111.183 148.4C111.183 147.984 111.258 147.6 111.407 147.248C111.556 146.896 111.764 146.597 112.031 146.352C112.308 146.096 112.634 145.899 113.007 145.76C113.391 145.621 113.818 145.552 114.287 145.552C114.874 145.552 115.396 145.659 115.855 145.872V145.728C115.855 145.408 115.93 145.147 116.079 144.944C116.228 144.731 116.474 144.624 116.815 144.624H118.047V145.744H116.479V146.272C116.778 146.528 117.007 146.837 117.167 147.2C117.338 147.552 117.423 147.952 117.423 148.4C117.423 148.816 117.348 149.2 117.199 149.552C117.05 149.904 116.836 150.208 116.559 150.464C116.292 150.709 115.967 150.901 115.583 151.04C115.199 151.179 114.772 151.248 114.303 151.248C114.036 151.248 113.77 151.221 113.503 151.168C113.226 151.243 112.975 151.355 112.751 151.504C112.527 151.643 112.415 151.84 112.415 152.096C112.415 152.341 112.532 152.507 112.767 152.592C113.002 152.677 113.306 152.72 113.679 152.72H115.439C116.463 152.72 117.204 152.917 117.663 153.312C118.132 153.696 118.367 154.229 118.367 154.912ZM117.167 155.008C117.167 154.677 117.039 154.411 116.783 154.208C116.538 154.016 116.095 153.92 115.455 153.92H112.703C112.191 154.155 111.935 154.528 111.935 155.04C111.935 155.403 112.068 155.712 112.335 155.968C112.612 156.224 113.076 156.352 113.727 156.352H114.911C115.626 156.352 116.18 156.24 116.575 156.016C116.97 155.792 117.167 155.456 117.167 155.008ZM114.303 150.224C114.847 150.224 115.279 150.096 115.599 149.84C115.919 149.573 116.079 149.168 116.079 148.624V148.176C116.079 147.632 115.919 147.232 115.599 146.976C115.279 146.709 114.847 146.576 114.303 146.576C113.759 146.576 113.327 146.709 113.007 146.976C112.687 147.232 112.527 147.632 112.527 148.176V148.624C112.527 149.168 112.687 149.573 113.007 149.84C113.327 150.096 113.759 150.224 114.303 150.224ZM119.86 142.16H121.14V147.088H121.204C121.407 146.619 121.689 146.245 122.052 145.968C122.425 145.691 122.921 145.552 123.54 145.552C124.393 145.552 125.065 145.829 125.556 146.384C126.057 146.928 126.308 147.701 126.308 148.704V154H125.028V148.928C125.028 147.445 124.404 146.704 123.156 146.704C122.9 146.704 122.649 146.736 122.404 146.8C122.169 146.864 121.956 146.96 121.764 147.088C121.572 147.216 121.417 147.381 121.3 147.584C121.193 147.776 121.14 148.005 121.14 148.272V154H119.86V142.16ZM132.058 154.192C131.492 154.192 130.98 154.091 130.522 153.888C130.074 153.685 129.684 153.397 129.354 153.024C129.034 152.64 128.783 152.187 128.602 151.664C128.431 151.131 128.346 150.533 128.346 149.872C128.346 149.221 128.431 148.629 128.602 148.096C128.783 147.563 129.034 147.109 129.354 146.736C129.684 146.352 130.074 146.059 130.522 145.856C130.98 145.653 131.492 145.552 132.058 145.552C132.612 145.552 133.108 145.653 133.546 145.856C133.983 146.059 134.356 146.341 134.666 146.704C134.975 147.056 135.21 147.477 135.37 147.968C135.54 148.459 135.626 148.997 135.626 149.584V150.192H129.69V150.576C129.69 150.928 129.743 151.259 129.85 151.568C129.967 151.867 130.127 152.128 130.33 152.352C130.543 152.576 130.799 152.752 131.098 152.88C131.407 153.008 131.754 153.072 132.138 153.072C132.66 153.072 133.114 152.949 133.498 152.704C133.892 152.459 134.196 152.107 134.41 151.648L135.322 152.304C135.055 152.869 134.639 153.328 134.074 153.68C133.508 154.021 132.836 154.192 132.058 154.192ZM132.058 146.624C131.706 146.624 131.386 146.688 131.098 146.816C130.81 146.933 130.559 147.104 130.346 147.328C130.143 147.552 129.983 147.819 129.866 148.128C129.748 148.427 129.69 148.757 129.69 149.12V149.232H134.25V149.056C134.25 148.32 134.047 147.733 133.642 147.296C133.247 146.848 132.719 146.624 132.058 146.624ZM143.015 152.656H142.951C142.45 153.68 141.644 154.192 140.535 154.192C140.023 154.192 139.559 154.091 139.143 153.888C138.727 153.685 138.37 153.397 138.071 153.024C137.783 152.651 137.559 152.197 137.399 151.664C137.25 151.131 137.175 150.533 137.175 149.872C137.175 149.211 137.25 148.613 137.399 148.08C137.559 147.547 137.783 147.093 138.071 146.72C138.37 146.347 138.727 146.059 139.143 145.856C139.559 145.653 140.023 145.552 140.535 145.552C141.111 145.552 141.602 145.68 142.007 145.936C142.423 146.181 142.738 146.565 142.951 147.088H143.015V142.16H144.295V154H143.015V152.656ZM140.887 153.04C141.175 153.04 141.447 153.003 141.703 152.928C141.97 152.853 142.199 152.747 142.391 152.608C142.583 152.459 142.732 152.283 142.839 152.08C142.956 151.867 143.015 151.627 143.015 151.36V148.288C143.015 148.064 142.956 147.856 142.839 147.664C142.732 147.461 142.583 147.291 142.391 147.152C142.199 147.013 141.97 146.907 141.703 146.832C141.447 146.747 141.175 146.704 140.887 146.704C140.162 146.704 139.591 146.933 139.175 147.392C138.759 147.84 138.551 148.432 138.551 149.168V150.576C138.551 151.312 138.759 151.909 139.175 152.368C139.591 152.816 140.162 153.04 140.887 153.04ZM153.614 147.568C154.371 147.568 154.936 147.397 155.31 147.056C155.694 146.704 155.886 146.256 155.886 145.712V145.6C155.886 145.013 155.699 144.576 155.326 144.288C154.963 143.989 154.483 143.84 153.886 143.84C153.31 143.84 152.84 143.968 152.478 144.224C152.115 144.469 151.816 144.805 151.582 145.232L150.59 144.464C150.728 144.24 150.894 144.021 151.086 143.808C151.288 143.584 151.523 143.387 151.789 143.216C152.056 143.045 152.366 142.907 152.718 142.8C153.07 142.693 153.47 142.64 153.918 142.64C154.387 142.64 154.83 142.704 155.246 142.832C155.662 142.949 156.019 143.131 156.318 143.376C156.627 143.611 156.867 143.904 157.038 144.256C157.219 144.608 157.31 145.008 157.31 145.456C157.31 145.819 157.251 146.144 157.134 146.432C157.027 146.72 156.878 146.971 156.686 147.184C156.494 147.397 156.264 147.579 155.998 147.728C155.742 147.877 155.464 147.989 155.166 148.064V148.128C155.464 148.192 155.752 148.299 156.03 148.448C156.318 148.587 156.568 148.773 156.782 149.008C157.006 149.232 157.182 149.509 157.31 149.84C157.448 150.16 157.517 150.528 157.517 150.944C157.517 151.424 157.427 151.867 157.246 152.272C157.064 152.667 156.808 153.008 156.478 153.296C156.147 153.573 155.747 153.792 155.278 153.952C154.808 154.112 154.291 154.192 153.726 154.192C153.246 154.192 152.819 154.139 152.446 154.032C152.072 153.925 151.742 153.781 151.454 153.6C151.166 153.419 150.91 153.216 150.686 152.992C150.472 152.768 150.28 152.533 150.11 152.288L151.118 151.52C151.256 151.744 151.406 151.947 151.566 152.128C151.736 152.309 151.923 152.464 152.126 152.592C152.328 152.72 152.558 152.821 152.814 152.896C153.07 152.96 153.368 152.992 153.71 152.992C154.499 152.992 155.096 152.816 155.502 152.464C155.907 152.101 156.11 151.589 156.11 150.928V150.8C156.11 150.139 155.907 149.632 155.502 149.28C155.096 148.917 154.499 148.736 153.71 148.736H152.398V147.568H153.614Z" fill="#1A1A1A"/>
<rect x="17" y="177" width="22" height="22" rx="11" fill="white"/>
<rect x="17" y="177" width="22" height="22" rx="11" stroke="#1A1A1A" stroke-width="2"/>
<path d="M52.032 194L48.32 182.832H49.76L51.6 188.464L52.832 192.656H52.912L54.176 188.464L56.032 182.832H57.424L53.664 194H52.032ZM64.6256 194C64.1456 194 63.799 193.872 63.5856 193.616C63.383 193.36 63.255 193.04 63.2016 192.656H63.1216C62.9403 193.168 62.6416 193.552 62.2256 193.808C61.8096 194.064 61.3136 194.192 60.7376 194.192C59.863 194.192 59.1803 193.968 58.6896 193.52C58.2096 193.072 57.9696 192.464 57.9696 191.696C57.9696 190.917 58.2523 190.32 58.8176 189.904C59.3936 189.488 60.2843 189.28 61.4896 189.28H63.1216V188.464C63.1216 187.877 62.9616 187.429 62.6416 187.12C62.3216 186.811 61.831 186.656 61.1696 186.656C60.6683 186.656 60.247 186.768 59.9056 186.992C59.575 187.216 59.2976 187.515 59.0736 187.888L58.3056 187.168C58.5296 186.72 58.887 186.341 59.3776 186.032C59.8683 185.712 60.487 185.552 61.2336 185.552C62.2363 185.552 63.015 185.797 63.5696 186.288C64.1243 186.779 64.4016 187.461 64.4016 188.336V192.88H65.3456V194H64.6256ZM60.9456 193.104C61.2656 193.104 61.559 193.067 61.8256 192.992C62.0923 192.917 62.3216 192.811 62.5136 192.672C62.7056 192.533 62.855 192.373 62.9616 192.192C63.0683 192.011 63.1216 191.813 63.1216 191.6V190.24H61.4256C60.6896 190.24 60.151 190.347 59.8096 190.56C59.479 190.773 59.3136 191.083 59.3136 191.488V191.824C59.3136 192.229 59.4576 192.544 59.7456 192.768C60.0443 192.992 60.4443 193.104 60.9456 193.104ZM68.5325 194C68.0845 194 67.7432 193.877 67.5085 193.632C67.2845 193.376 67.1725 193.056 67.1725 192.672V182.16H68.4525V192.88H69.6685V194H68.5325ZM78.4919 194.912C78.4919 195.765 78.1559 196.389 77.4839 196.784C76.8225 197.189 75.8252 197.392 74.4919 197.392C73.2012 197.392 72.2732 197.216 71.7079 196.864C71.1425 196.512 70.8599 196.011 70.8599 195.36C70.8599 194.912 70.9772 194.56 71.2119 194.304C71.4465 194.059 71.7665 193.877 72.1719 193.76V193.584C71.6812 193.349 71.4359 192.965 71.4359 192.432C71.4359 192.016 71.5692 191.701 71.8359 191.488C72.1025 191.264 72.4439 191.099 72.8599 190.992V190.928C72.3692 190.693 71.9852 190.357 71.7079 189.92C71.4412 189.483 71.3079 188.976 71.3079 188.4C71.3079 187.984 71.3825 187.6 71.5319 187.248C71.6812 186.896 71.8892 186.597 72.1559 186.352C72.4332 186.096 72.7585 185.899 73.1319 185.76C73.5159 185.621 73.9425 185.552 74.4119 185.552C74.9985 185.552 75.5212 185.659 75.9799 185.872V185.728C75.9799 185.408 76.0545 185.147 76.2039 184.944C76.3532 184.731 76.5985 184.624 76.9399 184.624H78.1719V185.744H76.6039V186.272C76.9025 186.528 77.1319 186.837 77.2919 187.2C77.4625 187.552 77.5479 187.952 77.5479 188.4C77.5479 188.816 77.4732 189.2 77.3239 189.552C77.1745 189.904 76.9612 190.208 76.6839 190.464C76.4172 190.709 76.0919 190.901 75.7079 191.04C75.3239 191.179 74.8972 191.248 74.4279 191.248C74.1612 191.248 73.8945 191.221 73.6279 191.168C73.3505 191.243 73.0999 191.355 72.8759 191.504C72.6519 191.643 72.5399 191.84 72.5399 192.096C72.5399 192.341 72.6572 192.507 72.8919 192.592C73.1265 192.677 73.4305 192.72 73.8039 192.72H75.5639C76.5879 192.72 77.3292 192.917 77.7879 193.312C78.2572 193.696 78.4919 194.229 78.4919 194.912ZM77.2919 195.008C77.2919 194.677 77.1639 194.411 76.9079 194.208C76.6625 194.016 76.2199 193.92 75.5799 193.92H72.8279C72.3159 194.155 72.0599 194.528 72.0599 195.04C72.0599 195.403 72.1932 195.712 72.4599 195.968C72.7372 196.224 73.2012 196.352 73.8519 196.352H75.0359C75.7505 196.352 76.3052 196.24 76.6999 196.016C77.0945 195.792 77.2919 195.456 77.2919 195.008ZM74.4279 190.224C74.9719 190.224 75.4039 190.096 75.7239 189.84C76.0439 189.573 76.2039 189.168 76.2039 188.624V188.176C76.2039 187.632 76.0439 187.232 75.7239 186.976C75.4039 186.709 74.9719 186.576 74.4279 186.576C73.8839 186.576 73.4519 186.709 73.1319 186.976C72.8119 187.232 72.6519 187.632 72.6519 188.176V188.624C72.6519 189.168 72.8119 189.573 73.1319 189.84C73.4519 190.096 73.8839 190.224 74.4279 190.224ZM79.985 194V185.744H81.265V187.088H81.329C81.425 186.875 81.5317 186.677 81.649 186.496C81.777 186.304 81.9263 186.139 82.097 186C82.2783 185.861 82.4863 185.755 82.721 185.68C82.9557 185.595 83.233 185.552 83.553 185.552C84.097 185.552 84.5983 185.685 85.057 185.952C85.5157 186.208 85.857 186.635 86.081 187.232H86.113C86.2623 186.784 86.5397 186.395 86.945 186.064C87.361 185.723 87.921 185.552 88.625 185.552C89.4677 185.552 90.1237 185.829 90.593 186.384C91.073 186.928 91.313 187.701 91.313 188.704V194H90.033V188.928C90.033 188.192 89.889 187.637 89.601 187.264C89.313 186.891 88.8543 186.704 88.225 186.704C87.969 186.704 87.7237 186.736 87.489 186.8C87.265 186.864 87.0623 186.96 86.881 187.088C86.6997 187.216 86.5557 187.381 86.449 187.584C86.3423 187.776 86.289 188.005 86.289 188.272V194H85.009V188.928C85.009 188.192 84.865 187.637 84.577 187.264C84.289 186.891 83.841 186.704 83.233 186.704C82.977 186.704 82.7317 186.736 82.497 186.8C82.2623 186.864 82.0543 186.96 81.873 187.088C81.6917 187.216 81.5423 187.381 81.425 187.584C81.3183 187.776 81.265 188.005 81.265 188.272V194H79.985ZM99.0418 192.656H98.9778C98.8924 192.848 98.7858 193.04 98.6578 193.232C98.5404 193.413 98.3911 193.579 98.2098 193.728C98.0284 193.867 97.8098 193.979 97.5538 194.064C97.2978 194.149 96.9991 194.192 96.6578 194.192C95.8044 194.192 95.1271 193.92 94.6258 193.376C94.1244 192.821 93.8738 192.043 93.8738 191.04V185.744H95.1538V190.816C95.1538 192.299 95.7831 193.04 97.0418 193.04C97.2978 193.04 97.5431 193.008 97.7778 192.944C98.0231 192.88 98.2364 192.784 98.4178 192.656C98.6098 192.528 98.7591 192.368 98.8658 192.176C98.9831 191.973 99.0418 191.733 99.0418 191.456V185.744H100.322V194H99.0418V192.656ZM104.408 194C103.96 194 103.618 193.877 103.384 193.632C103.16 193.376 103.048 193.056 103.048 192.672V182.16H104.328V192.88H105.544V194H104.408ZM108.047 183.808C107.77 183.808 107.567 183.744 107.439 183.616C107.322 183.477 107.263 183.301 107.263 183.088V182.88C107.263 182.667 107.322 182.496 107.439 182.368C107.567 182.229 107.77 182.16 108.047 182.16C108.324 182.16 108.522 182.229 108.639 182.368C108.767 182.496 108.831 182.667 108.831 182.88V183.088C108.831 183.301 108.767 183.477 108.639 183.616C108.522 183.744 108.324 183.808 108.047 183.808ZM107.407 185.744H108.687V194H107.407V185.744ZM118.367 194.912C118.367 195.765 118.031 196.389 117.359 196.784C116.698 197.189 115.7 197.392 114.367 197.392C113.076 197.392 112.148 197.216 111.583 196.864C111.018 196.512 110.735 196.011 110.735 195.36C110.735 194.912 110.852 194.56 111.087 194.304C111.322 194.059 111.642 193.877 112.047 193.76V193.584C111.556 193.349 111.311 192.965 111.311 192.432C111.311 192.016 111.444 191.701 111.711 191.488C111.978 191.264 112.319 191.099 112.735 190.992V190.928C112.244 190.693 111.86 190.357 111.583 189.92C111.316 189.483 111.183 188.976 111.183 188.4C111.183 187.984 111.258 187.6 111.407 187.248C111.556 186.896 111.764 186.597 112.031 186.352C112.308 186.096 112.634 185.899 113.007 185.76C113.391 185.621 113.818 185.552 114.287 185.552C114.874 185.552 115.396 185.659 115.855 185.872V185.728C115.855 185.408 115.93 185.147 116.079 184.944C116.228 184.731 116.474 184.624 116.815 184.624H118.047V185.744H116.479V186.272C116.778 186.528 117.007 186.837 117.167 187.2C117.338 187.552 117.423 187.952 117.423 188.4C117.423 188.816 117.348 189.2 117.199 189.552C117.05 189.904 116.836 190.208 116.559 190.464C116.292 190.709 115.967 190.901 115.583 191.04C115.199 191.179 114.772 191.248 114.303 191.248C114.036 191.248 113.77 191.221 113.503 191.168C113.226 191.243 112.975 191.355 112.751 191.504C112.527 191.643 112.415 191.84 112.415 192.096C112.415 192.341 112.532 192.507 112.767 192.592C113.002 192.677 113.306 192.72 113.679 192.72H115.439C116.463 192.72 117.204 192.917 117.663 193.312C118.132 193.696 118.367 194.229 118.367 194.912ZM117.167 195.008C117.167 194.677 117.039 194.411 116.783 194.208C116.538 194.016 116.095 193.92 115.455 193.92H112.703C112.191 194.155 111.935 194.528 111.935 195.04C111.935 195.403 112.068 195.712 112.335 195.968C112.612 196.224 113.076 196.352 113.727 196.352H114.911C115.626 196.352 116.18 196.24 116.575 196.016C116.97 195.792 117.167 195.456 117.167 195.008ZM114.303 190.224C114.847 190.224 115.279 190.096 115.599 189.84C115.919 189.573 116.079 189.168 116.079 188.624V188.176C116.079 187.632 115.919 187.232 115.599 186.976C115.279 186.709 114.847 186.576 114.303 186.576C113.759 186.576 113.327 186.709 113.007 186.976C112.687 187.232 112.527 187.632 112.527 188.176V188.624C112.527 189.168 112.687 189.573 113.007 189.84C113.327 190.096 113.759 190.224 114.303 190.224ZM119.86 182.16H121.14V187.088H121.204C121.407 186.619 121.689 186.245 122.052 185.968C122.425 185.691 122.921 185.552 123.54 185.552C124.393 185.552 125.065 185.829 125.556 186.384C126.057 186.928 126.308 187.701 126.308 188.704V194H125.028V188.928C125.028 187.445 124.404 186.704 123.156 186.704C122.9 186.704 122.649 186.736 122.404 186.8C122.169 186.864 121.956 186.96 121.764 187.088C121.572 187.216 121.417 187.381 121.3 187.584C121.193 187.776 121.14 188.005 121.14 188.272V194H119.86V182.16ZM132.058 194.192C131.492 194.192 130.98 194.091 130.522 193.888C130.074 193.685 129.684 193.397 129.354 193.024C129.034 192.64 128.783 192.187 128.602 191.664C128.431 191.131 128.346 190.533 128.346 189.872C128.346 189.221 128.431 188.629 128.602 188.096C128.783 187.563 129.034 187.109 129.354 186.736C129.684 186.352 130.074 186.059 130.522 185.856C130.98 185.653 131.492 185.552 132.058 185.552C132.612 185.552 133.108 185.653 133.546 185.856C133.983 186.059 134.356 186.341 134.666 186.704C134.975 187.056 135.21 187.477 135.37 187.968C135.54 188.459 135.626 188.997 135.626 189.584V190.192H129.69V190.576C129.69 190.928 129.743 191.259 129.85 191.568C129.967 191.867 130.127 192.128 130.33 192.352C130.543 192.576 130.799 192.752 131.098 192.88C131.407 193.008 131.754 193.072 132.138 193.072C132.66 193.072 133.114 192.949 133.498 192.704C133.892 192.459 134.196 192.107 134.41 191.648L135.322 192.304C135.055 192.869 134.639 193.328 134.074 193.68C133.508 194.021 132.836 194.192 132.058 194.192ZM132.058 186.624C131.706 186.624 131.386 186.688 131.098 186.816C130.81 186.933 130.559 187.104 130.346 187.328C130.143 187.552 129.983 187.819 129.866 188.128C129.748 188.427 129.69 188.757 129.69 189.12V189.232H134.25V189.056C134.25 188.32 134.047 187.733 133.642 187.296C133.247 186.848 132.719 186.624 132.058 186.624ZM143.015 192.656H142.951C142.45 193.68 141.644 194.192 140.535 194.192C140.023 194.192 139.559 194.091 139.143 193.888C138.727 193.685 138.37 193.397 138.071 193.024C137.783 192.651 137.559 192.197 137.399 191.664C137.25 191.131 137.175 190.533 137.175 189.872C137.175 189.211 137.25 188.613 137.399 188.08C137.559 187.547 137.783 187.093 138.071 186.72C138.37 186.347 138.727 186.059 139.143 185.856C139.559 185.653 140.023 185.552 140.535 185.552C141.111 185.552 141.602 185.68 142.007 185.936C142.423 186.181 142.738 186.565 142.951 187.088H143.015V182.16H144.295V194H143.015V192.656ZM140.887 193.04C141.175 193.04 141.447 193.003 141.703 192.928C141.97 192.853 142.199 192.747 142.391 192.608C142.583 192.459 142.732 192.283 142.839 192.08C142.956 191.867 143.015 191.627 143.015 191.36V188.288C143.015 188.064 142.956 187.856 142.839 187.664C142.732 187.461 142.583 187.291 142.391 187.152C142.199 187.013 141.97 186.907 141.703 186.832C141.447 186.747 141.175 186.704 140.887 186.704C140.162 186.704 139.591 186.933 139.175 187.392C138.759 187.84 138.551 188.432 138.551 189.168V190.576C138.551 191.312 138.759 191.909 139.175 192.368C139.591 192.816 140.162 193.04 140.887 193.04ZM155.438 194V191.808H150.046V190.624L154.718 182.832H156.718V190.688H158.334V191.808H156.718V194H155.438ZM151.31 190.688H155.438V183.872H155.358L151.31 190.688Z" fill="#1A1A1A"/>
<rect x="17" y="217" width="22" height="22" rx="11" fill="white"/>
<rect x="17" y="217" width="22" height="22" rx="11" stroke="#1A1A1A" stroke-width="2"/>
<path d="M52.032 234L48.32 222.832H49.76L51.6 228.464L52.832 232.656H52.912L54.176 228.464L56.032 222.832H57.424L53.664 234H52.032ZM64.6256 234C64.1456 234 63.799 233.872 63.5856 233.616C63.383 233.36 63.255 233.04 63.2016 232.656H63.1216C62.9403 233.168 62.6416 233.552 62.2256 233.808C61.8096 234.064 61.3136 234.192 60.7376 234.192C59.863 234.192 59.1803 233.968 58.6896 233.52C58.2096 233.072 57.9696 232.464 57.9696 231.696C57.9696 230.917 58.2523 230.32 58.8176 229.904C59.3936 229.488 60.2843 229.28 61.4896 229.28H63.1216V228.464C63.1216 227.877 62.9616 227.429 62.6416 227.12C62.3216 226.811 61.831 226.656 61.1696 226.656C60.6683 226.656 60.247 226.768 59.9056 226.992C59.575 227.216 59.2976 227.515 59.0736 227.888L58.3056 227.168C58.5296 226.72 58.887 226.341 59.3776 226.032C59.8683 225.712 60.487 225.552 61.2336 225.552C62.2363 225.552 63.015 225.797 63.5696 226.288C64.1243 226.779 64.4016 227.461 64.4016 228.336V232.88H65.3456V234H64.6256ZM60.9456 233.104C61.2656 233.104 61.559 233.067 61.8256 232.992C62.0923 232.917 62.3216 232.811 62.5136 232.672C62.7056 232.533 62.855 232.373 62.9616 232.192C63.0683 232.011 63.1216 231.813 63.1216 231.6V230.24H61.4256C60.6896 230.24 60.151 230.347 59.8096 230.56C59.479 230.773 59.3136 231.083 59.3136 231.488V231.824C59.3136 232.229 59.4576 232.544 59.7456 232.768C60.0443 232.992 60.4443 233.104 60.9456 233.104ZM68.5325 234C68.0845 234 67.7432 233.877 67.5085 233.632C67.2845 233.376 67.1725 233.056 67.1725 232.672V222.16H68.4525V232.88H69.6685V234H68.5325ZM78.4919 234.912C78.4919 235.765 78.1559 236.389 77.4839 236.784C76.8225 237.189 75.8252 237.392 74.4919 237.392C73.2012 237.392 72.2732 237.216 71.7079 236.864C71.1425 236.512 70.8599 236.011 70.8599 235.36C70.8599 234.912 70.9772 234.56 71.2119 234.304C71.4465 234.059 71.7665 233.877 72.1719 233.76V233.584C71.6812 233.349 71.4359 232.965 71.4359 232.432C71.4359 232.016 71.5692 231.701 71.8359 231.488C72.1025 231.264 72.4439 231.099 72.8599 230.992V230.928C72.3692 230.693 71.9852 230.357 71.7079 229.92C71.4412 229.483 71.3079 228.976 71.3079 228.4C71.3079 227.984 71.3825 227.6 71.5319 227.248C71.6812 226.896 71.8892 226.597 72.1559 226.352C72.4332 226.096 72.7585 225.899 73.1319 225.76C73.5159 225.621 73.9425 225.552 74.4119 225.552C74.9985 225.552 75.5212 225.659 75.9799 225.872V225.728C75.9799 225.408 76.0545 225.147 76.2039 224.944C76.3532 224.731 76.5985 224.624 76.9399 224.624H78.1719V225.744H76.6039V226.272C76.9025 226.528 77.1319 226.837 77.2919 227.2C77.4625 227.552 77.5479 227.952 77.5479 228.4C77.5479 228.816 77.4732 229.2 77.3239 229.552C77.1745 229.904 76.9612 230.208 76.6839 230.464C76.4172 230.709 76.0919 230.901 75.7079 231.04C75.3239 231.179 74.8972 231.248 74.4279 231.248C74.1612 231.248 73.8945 231.221 73.6279 231.168C73.3505 231.243 73.0999 231.355 72.8759 231.504C72.6519 231.643 72.5399 231.84 72.5399 232.096C72.5399 232.341 72.6572 232.507 72.8919 232.592C73.1265 232.677 73.4305 232.72 73.8039 232.72H75.5639C76.5879 232.72 77.3292 232.917 77.7879 233.312C78.2572 233.696 78.4919 234.229 78.4919 234.912ZM77.2919 235.008C77.2919 234.677 77.1639 234.411 76.9079 234.208C76.6625 234.016 76.2199 233.92 75.5799 233.92H72.8279C72.3159 234.155 72.0599 234.528 72.0599 235.04C72.0599 235.403 72.1932 235.712 72.4599 235.968C72.7372 236.224 73.2012 236.352 73.8519 236.352H75.0359C75.7505 236.352 76.3052 236.24 76.6999 236.016C77.0945 235.792 77.2919 235.456 77.2919 235.008ZM74.4279 230.224C74.9719 230.224 75.4039 230.096 75.7239 229.84C76.0439 229.573 76.2039 229.168 76.2039 228.624V228.176C76.2039 227.632 76.0439 227.232 75.7239 226.976C75.4039 226.709 74.9719 226.576 74.4279 226.576C73.8839 226.576 73.4519 226.709 73.1319 226.976C72.8119 227.232 72.6519 227.632 72.6519 228.176V228.624C72.6519 229.168 72.8119 229.573 73.1319 229.84C73.4519 230.096 73.8839 230.224 74.4279 230.224ZM79.985 234V225.744H81.265V227.088H81.329C81.425 226.875 81.5317 226.677 81.649 226.496C81.777 226.304 81.9263 226.139 82.097 226C82.2783 225.861 82.4863 225.755 82.721 225.68C82.9557 225.595 83.233 225.552 83.553 225.552C84.097 225.552 84.5983 225.685 85.057 225.952C85.5157 226.208 85.857 226.635 86.081 227.232H86.113C86.2623 226.784 86.5397 226.395 86.945 226.064C87.361 225.723 87.921 225.552 88.625 225.552C89.4677 225.552 90.1237 225.829 90.593 226.384C91.073 226.928 91.313 227.701 91.313 228.704V234H90.033V228.928C90.033 228.192 89.889 227.637 89.601 227.264C89.313 226.891 88.8543 226.704 88.225 226.704C87.969 226.704 87.7237 226.736 87.489 226.8C87.265 226.864 87.0623 226.96 86.881 227.088C86.6997 227.216 86.5557 227.381 86.449 227.584C86.3423 227.776 86.289 228.005 86.289 228.272V234H85.009V228.928C85.009 228.192 84.865 227.637 84.577 227.264C84.289 226.891 83.841 226.704 83.233 226.704C82.977 226.704 82.7317 226.736 82.497 226.8C82.2623 226.864 82.0543 226.96 81.873 227.088C81.6917 227.216 81.5423 227.381 81.425 227.584C81.3183 227.776 81.265 228.005 81.265 228.272V234H79.985ZM99.0418 232.656H98.9778C98.8924 232.848 98.7858 233.04 98.6578 233.232C98.5404 233.413 98.3911 233.579 98.2098 233.728C98.0284 233.867 97.8098 233.979 97.5538 234.064C97.2978 234.149 96.9991 234.192 96.6578 234.192C95.8044 234.192 95.1271 233.92 94.6258 233.376C94.1244 232.821 93.8738 232.043 93.8738 231.04V225.744H95.1538V230.816C95.1538 232.299 95.7831 233.04 97.0418 233.04C97.2978 233.04 97.5431 233.008 97.7778 232.944C98.0231 232.88 98.2364 232.784 98.4178 232.656C98.6098 232.528 98.7591 232.368 98.8658 232.176C98.9831 231.973 99.0418 231.733 99.0418 231.456V225.744H100.322V234H99.0418V232.656ZM104.408 234C103.96 234 103.618 233.877 103.384 233.632C103.16 233.376 103.048 233.056 103.048 232.672V222.16H104.328V232.88H105.544V234H104.408ZM108.047 223.808C107.77 223.808 107.567 223.744 107.439 223.616C107.322 223.477 107.263 223.301 107.263 223.088V222.88C107.263 222.667 107.322 222.496 107.439 222.368C107.567 222.229 107.77 222.16 108.047 222.16C108.324 222.16 108.522 222.229 108.639 222.368C108.767 222.496 108.831 222.667 108.831 222.88V223.088C108.831 223.301 108.767 223.477 108.639 223.616C108.522 223.744 108.324 223.808 108.047 223.808ZM107.407 225.744H108.687V234H107.407V225.744ZM118.367 234.912C118.367 235.765 118.031 236.389 117.359 236.784C116.698 237.189 115.7 237.392 114.367 237.392C113.076 237.392 112.148 237.216 111.583 236.864C111.018 236.512 110.735 236.011 110.735 235.36C110.735 234.912 110.852 234.56 111.087 234.304C111.322 234.059 111.642 233.877 112.047 233.76V233.584C111.556 233.349 111.311 232.965 111.311 232.432C111.311 232.016 111.444 231.701 111.711 231.488C111.978 231.264 112.319 231.099 112.735 230.992V230.928C112.244 230.693 111.86 230.357 111.583 229.92C111.316 229.483 111.183 228.976 111.183 228.4C111.183 227.984 111.258 227.6 111.407 227.248C111.556 226.896 111.764 226.597 112.031 226.352C112.308 226.096 112.634 225.899 113.007 225.76C113.391 225.621 113.818 225.552 114.287 225.552C114.874 225.552 115.396 225.659 115.855 225.872V225.728C115.855 225.408 115.93 225.147 116.079 224.944C116.228 224.731 116.474 224.624 116.815 224.624H118.047V225.744H116.479V226.272C116.778 226.528 117.007 226.837 117.167 227.2C117.338 227.552 117.423 227.952 117.423 228.4C117.423 228.816 117.348 229.2 117.199 229.552C117.05 229.904 116.836 230.208 116.559 230.464C116.292 230.709 115.967 230.901 115.583 231.04C115.199 231.179 114.772 231.248 114.303 231.248C114.036 231.248 113.77 231.221 113.503 231.168C113.226 231.243 112.975 231.355 112.751 231.504C112.527 231.643 112.415 231.84 112.415 232.096C112.415 232.341 112.532 232.507 112.767 232.592C113.002 232.677 113.306 232.72 113.679 232.72H115.439C116.463 232.72 117.204 232.917 117.663 233.312C118.132 233.696 118.367 234.229 118.367 234.912ZM117.167 235.008C117.167 234.677 117.039 234.411 116.783 234.208C116.538 234.016 116.095 233.92 115.455 233.92H112.703C112.191 234.155 111.935 234.528 111.935 235.04C111.935 235.403 112.068 235.712 112.335 235.968C112.612 236.224 113.076 236.352 113.727 236.352H114.911C115.626 236.352 116.18 236.24 116.575 236.016C116.97 235.792 117.167 235.456 117.167 235.008ZM114.303 230.224C114.847 230.224 115.279 230.096 115.599 229.84C115.919 229.573 116.079 229.168 116.079 228.624V228.176C116.079 227.632 115.919 227.232 115.599 226.976C115.279 226.709 114.847 226.576 114.303 226.576C113.759 226.576 113.327 226.709 113.007 226.976C112.687 227.232 112.527 227.632 112.527 228.176V228.624C112.527 229.168 112.687 229.573 113.007 229.84C113.327 230.096 113.759 230.224 114.303 230.224ZM119.86 222.16H121.14V227.088H121.204C121.407 226.619 121.689 226.245 122.052 225.968C122.425 225.691 122.921 225.552 123.54 225.552C124.393 225.552 125.065 225.829 125.556 226.384C126.057 226.928 126.308 227.701 126.308 228.704V234H125.028V228.928C125.028 227.445 124.404 226.704 123.156 226.704C122.9 226.704 122.649 226.736 122.404 226.8C122.169 226.864 121.956 226.96 121.764 227.088C121.572 227.216 121.417 227.381 121.3 227.584C121.193 227.776 121.14 228.005 121.14 228.272V234H119.86V222.16ZM132.058 234.192C131.492 234.192 130.98 234.091 130.522 233.888C130.074 233.685 129.684 233.397 129.354 233.024C129.034 232.64 128.783 232.187 128.602 231.664C128.431 231.131 128.346 230.533 128.346 229.872C128.346 229.221 128.431 228.629 128.602 228.096C128.783 227.563 129.034 227.109 129.354 226.736C129.684 226.352 130.074 226.059 130.522 225.856C130.98 225.653 131.492 225.552 132.058 225.552C132.612 225.552 133.108 225.653 133.546 225.856C133.983 226.059 134.356 226.341 134.666 226.704C134.975 227.056 135.21 227.477 135.37 227.968C135.54 228.459 135.626 228.997 135.626 229.584V230.192H129.69V230.576C129.69 230.928 129.743 231.259 129.85 231.568C129.967 231.867 130.127 232.128 130.33 232.352C130.543 232.576 130.799 232.752 131.098 232.88C131.407 233.008 131.754 233.072 132.138 233.072C132.66 233.072 133.114 232.949 133.498 232.704C133.892 232.459 134.196 232.107 134.41 231.648L135.322 232.304C135.055 232.869 134.639 233.328 134.074 233.68C133.508 234.021 132.836 234.192 132.058 234.192ZM132.058 226.624C131.706 226.624 131.386 226.688 131.098 226.816C130.81 226.933 130.559 227.104 130.346 227.328C130.143 227.552 129.983 227.819 129.866 228.128C129.748 228.427 129.69 228.757 129.69 229.12V229.232H134.25V229.056C134.25 228.32 134.047 227.733 133.642 227.296C133.247 226.848 132.719 226.624 132.058 226.624ZM143.015 232.656H142.951C142.45 233.68 141.644 234.192 140.535 234.192C140.023 234.192 139.559 234.091 139.143 233.888C138.727 233.685 138.37 233.397 138.071 233.024C137.783 232.651 137.559 232.197 137.399 231.664C137.25 231.131 137.175 230.533 137.175 229.872C137.175 229.211 137.25 228.613 137.399 228.08C137.559 227.547 137.783 227.093 138.071 226.72C138.37 226.347 138.727 226.059 139.143 225.856C139.559 225.653 140.023 225.552 140.535 225.552C141.111 225.552 141.602 225.68 142.007 225.936C142.423 226.181 142.738 226.565 142.951 227.088H143.015V222.16H144.295V234H143.015V232.656ZM140.887 233.04C141.175 233.04 141.447 233.003 141.703 232.928C141.97 232.853 142.199 232.747 142.391 232.608C142.583 232.459 142.732 232.283 142.839 232.08C142.956 231.867 143.015 231.627 143.015 231.36V228.288C143.015 228.064 142.956 227.856 142.839 227.664C142.732 227.461 142.583 227.291 142.391 227.152C142.199 227.013 141.97 226.907 141.703 226.832C141.447 226.747 141.175 226.704 140.887 226.704C140.162 226.704 139.591 226.933 139.175 227.392C138.759 227.84 138.551 228.432 138.551 229.168V230.576C138.551 231.312 138.759 231.909 139.175 232.368C139.591 232.816 140.162 233.04 140.887 233.04ZM157.406 224.016H152.51L152.19 228.272H152.302C152.568 227.899 152.867 227.6 153.198 227.376C153.539 227.152 154.003 227.04 154.59 227.04C155.07 227.04 155.512 227.12 155.918 227.28C156.323 227.44 156.675 227.669 156.974 227.968C157.272 228.256 157.502 228.613 157.661 229.04C157.832 229.467 157.918 229.952 157.918 230.496C157.918 231.04 157.832 231.541 157.661 232C157.491 232.448 157.24 232.837 156.91 233.168C156.59 233.488 156.195 233.739 155.726 233.92C155.267 234.101 154.744 234.192 154.158 234.192C153.688 234.192 153.272 234.139 152.91 234.032C152.558 233.925 152.243 233.781 151.966 233.6C151.688 233.419 151.443 233.216 151.23 232.992C151.027 232.768 150.84 232.533 150.67 232.288L151.678 231.52C151.816 231.744 151.96 231.947 152.11 232.128C152.27 232.309 152.44 232.464 152.622 232.592C152.814 232.72 153.032 232.821 153.278 232.896C153.523 232.96 153.816 232.992 154.158 232.992C154.926 232.992 155.507 232.789 155.902 232.384C156.296 231.979 156.494 231.408 156.494 230.672V230.512C156.494 229.776 156.296 229.205 155.902 228.8C155.507 228.395 154.926 228.192 154.158 228.192C153.646 228.192 153.24 228.288 152.942 228.48C152.654 228.661 152.392 228.88 152.158 229.136L151.022 228.976L151.422 222.832H157.406V224.016Z" fill="#1A1A1A"/>
</svg>
