<svg width="419" height="263" viewBox="0 0 419 263" fill="none" xmlns="http://www.w3.org/2000/svg">
<rect width="419" height="263" fill="white"/>
<rect x="16" y="16" width="72" height="48" rx="24" fill="#454545"/>
<path d="M54 30L60 36V48C60 48.5304 59.7893 49.0391 59.4142 49.4142C59.0391 49.7893 58.5304 50 58 50H46C45.4696 50 44.9609 49.7893 44.5858 49.4142C44.2107 49.0391 44 48.5304 44 48V32C44 31.4696 44.2107 30.9609 44.5858 30.5858C44.9609 30.2107 45.4696 30 46 30H54ZM58 48V37H53V32H46V48H58ZM57 41V47H47L52 42L54 44L57 41ZM50 38.5C50 38.8978 49.842 39.2794 49.5607 39.5607C49.2794 39.842 48.8978 40 48.5 40C48.1022 40 47.7206 39.842 47.4393 39.5607C47.158 39.2794 47 38.8978 47 38.5C47 38.1022 47.158 37.7206 47.4393 37.4393C47.7206 37.158 48.1022 37 48.5 37C48.8978 37 49.2794 37.158 49.5607 37.4393C49.842 37.7206 50 38.1022 50 38.5Z" fill="white"/>
<rect x="104" y="16" width="72" height="48" rx="24" fill="#F5F5F5"/>
<path d="M134 50C133.45 50 132.979 49.8042 132.588 49.4125C132.196 49.0208 132 48.55 132 48V32C132 31.45 132.196 30.9792 132.588 30.5875C132.979 30.1958 133.45 30 134 30H142L148 36V48C148 48.55 147.804 49.0208 147.413 49.4125C147.021 49.8042 146.55 50 146 50H134ZM141 37V32H134V48H146V37H141Z" fill="#1A1A1A"/>
<path d="M16.5 88C16.5 83.8579 19.8579 80.5 24 80.5H394C398.142 80.5 401.5 83.8579 401.5 88V239C401.5 243.142 398.142 246.5 394 246.5H24C19.8579 246.5 16.5 243.142 16.5 239V88Z" stroke="#8E8E8E"/>
<path d="M40 108C40 105.791 41.7909 104 44 104H374C376.209 104 378 105.791 378 108V219C378 221.209 376.209 223 374 223H44C41.7909 223 40 221.209 40 219V108Z" fill="#DCDCDC"/>
</svg>
