<svg width="419" height="263" viewBox="0 0 419 263" fill="none" xmlns="http://www.w3.org/2000/svg">
<rect width="419" height="263" fill="white"/>
<rect x="16" y="16" width="101" height="48" rx="24" fill="#454545"/>
<path d="M41.232 34.832H46.656C47.584 34.832 48.304 35.0933 48.816 35.616C49.3387 36.1387 49.6 36.832 49.6 37.696C49.6 38.1227 49.5413 38.4853 49.424 38.784C49.3173 39.0827 49.168 39.328 48.976 39.52C48.7947 39.712 48.576 39.856 48.32 39.952C48.0747 40.0373 47.808 40.0853 47.52 40.096V40.192C47.7867 40.192 48.064 40.24 48.352 40.336C48.6507 40.432 48.9227 40.5867 49.168 40.8C49.4133 41.0027 49.616 41.2693 49.776 41.6C49.9467 41.9307 50.032 42.336 50.032 42.816C50.032 43.2533 49.9573 43.6693 49.808 44.064C49.6693 44.448 49.472 44.784 49.216 45.072C48.96 45.36 48.656 45.5893 48.304 45.76C47.952 45.92 47.568 46 47.152 46H41.232V34.832ZM43.664 43.952H46.464C46.784 43.952 47.0347 43.8667 47.216 43.696C47.408 43.5147 47.504 43.264 47.504 42.944V42.4C47.504 42.08 47.408 41.8347 47.216 41.664C47.0347 41.4827 46.784 41.392 46.464 41.392H43.664V43.952ZM43.664 39.408H46.08C46.4 39.408 46.6507 39.3173 46.832 39.136C47.0133 38.9547 47.104 38.704 47.104 38.384V37.904C47.104 37.584 47.0133 37.3333 46.832 37.152C46.6507 36.9707 46.4 36.88 46.08 36.88H43.664V39.408ZM52.9599 36.704C52.4799 36.704 52.1279 36.5973 51.9039 36.384C51.6905 36.16 51.5839 35.8773 51.5839 35.536V35.184C51.5839 34.8427 51.6905 34.5653 51.9039 34.352C52.1279 34.128 52.4799 34.016 52.9599 34.016C53.4399 34.016 53.7865 34.128 53.9999 34.352C54.2239 34.5653 54.3359 34.8427 54.3359 35.184V35.536C54.3359 35.8773 54.2239 36.16 53.9999 36.384C53.7865 36.5973 53.4399 36.704 52.9599 36.704ZM51.7759 37.6H54.1439V46H51.7759V37.6ZM58.706 46C57.8953 46 57.298 45.8027 56.914 45.408C56.5407 45.0133 56.354 44.4427 56.354 43.696V34.16H58.722V44.16H59.778V46H58.706ZM63.4248 46C62.6141 46 62.0168 45.8027 61.6328 45.408C61.2594 45.0133 61.0728 44.4427 61.0728 43.696V34.16H63.4408V44.16H64.4968V46H63.4248ZM69.4205 46.192C68.7805 46.192 68.2098 46.0907 67.7085 45.888C67.2072 45.6747 66.7805 45.3813 66.4285 45.008C66.0872 44.624 65.8258 44.16 65.6445 43.616C65.4738 43.072 65.3885 42.464 65.3885 41.792C65.3885 41.1307 65.4738 40.5333 65.6445 40C65.8152 39.456 66.0658 38.992 66.3965 38.608C66.7378 38.224 67.1538 37.9307 67.6445 37.728C68.1352 37.5147 68.6952 37.408 69.3245 37.408C70.0178 37.408 70.6098 37.5253 71.1005 37.76C71.6018 37.9947 72.0072 38.3093 72.3165 38.704C72.6365 39.0987 72.8658 39.5573 73.0045 40.08C73.1538 40.592 73.2285 41.1307 73.2285 41.696V42.4H67.8365V42.528C67.8365 43.0827 67.9858 43.5253 68.2845 43.856C68.5832 44.176 69.0525 44.336 69.6925 44.336C70.1832 44.336 70.5832 44.24 70.8925 44.048C71.2018 43.8453 71.4898 43.6053 71.7565 43.328L72.9405 44.8C72.5672 45.2373 72.0765 45.5787 71.4685 45.824C70.8712 46.0693 70.1885 46.192 69.4205 46.192ZM69.3725 39.152C68.8925 39.152 68.5138 39.312 68.2365 39.632C67.9698 39.9413 67.8365 40.3573 67.8365 40.88V41.008H70.7805V40.864C70.7805 40.352 70.6632 39.9413 70.4285 39.632C70.2045 39.312 69.8525 39.152 69.3725 39.152ZM80.0529 44.592H79.9729C79.9089 44.816 79.8075 45.0293 79.6689 45.232C79.5302 45.424 79.3595 45.5947 79.1569 45.744C78.9649 45.8827 78.7409 45.9893 78.4849 46.064C78.2395 46.1493 77.9835 46.192 77.7169 46.192C76.6502 46.192 75.8449 45.8187 75.3009 45.072C74.7569 44.3147 74.4849 43.2213 74.4849 41.792C74.4849 40.3627 74.7569 39.2747 75.3009 38.528C75.8449 37.7813 76.6502 37.408 77.7169 37.408C78.2609 37.408 78.7409 37.5573 79.1569 37.856C79.5835 38.1547 79.8555 38.5387 79.9729 39.008H80.0529V34.16H82.4209V46H80.0529V44.592ZM78.5009 44.272C78.9489 44.272 79.3169 44.1653 79.6049 43.952C79.9035 43.728 80.0529 43.424 80.0529 43.04V40.56C80.0529 40.176 79.9035 39.8773 79.6049 39.664C79.3169 39.44 78.9489 39.328 78.5009 39.328C78.0529 39.328 77.6795 39.488 77.3809 39.808C77.0929 40.1173 76.9489 40.5387 76.9489 41.072V42.528C76.9489 43.0613 77.0929 43.488 77.3809 43.808C77.6795 44.1173 78.0529 44.272 78.5009 44.272ZM88.1393 46.192C87.4993 46.192 86.9286 46.0907 86.4273 45.888C85.9259 45.6747 85.4993 45.3813 85.1473 45.008C84.8059 44.624 84.5446 44.16 84.3633 43.616C84.1926 43.072 84.1073 42.464 84.1073 41.792C84.1073 41.1307 84.1926 40.5333 84.3633 40C84.5339 39.456 84.7846 38.992 85.1153 38.608C85.4566 38.224 85.8726 37.9307 86.3633 37.728C86.8539 37.5147 87.4139 37.408 88.0433 37.408C88.7366 37.408 89.3286 37.5253 89.8193 37.76C90.3206 37.9947 90.7259 38.3093 91.0353 38.704C91.3553 39.0987 91.5846 39.5573 91.7233 40.08C91.8726 40.592 91.9473 41.1307 91.9473 41.696V42.4H86.5553V42.528C86.5553 43.0827 86.7046 43.5253 87.0033 43.856C87.3019 44.176 87.7713 44.336 88.4113 44.336C88.9019 44.336 89.3019 44.24 89.6113 44.048C89.9206 43.8453 90.2086 43.6053 90.4753 43.328L91.6593 44.8C91.2859 45.2373 90.7953 45.5787 90.1873 45.824C89.5899 46.0693 88.9073 46.192 88.1393 46.192ZM88.0913 39.152C87.6113 39.152 87.2326 39.312 86.9553 39.632C86.6886 39.9413 86.5553 40.3573 86.5553 40.88V41.008H89.4993V40.864C89.4993 40.352 89.3819 39.9413 89.1473 39.632C88.9233 39.312 88.5713 39.152 88.0913 39.152Z" fill="white"/>
<rect x="133" y="16" width="98" height="48" rx="24" fill="#F5F5F5"/>
<path d="M163 50C162.45 50 161.979 49.8042 161.588 49.4125C161.196 49.0208 161 48.55 161 48V32C161 31.45 161.196 30.9792 161.588 30.5875C161.979 30.1958 162.45 30 163 30H171L177 36V48C177 48.55 176.804 49.0208 176.413 49.4125C176.021 49.8042 175.55 50 175 50H163ZM170 37V32H163V48H175V37H170Z" fill="#1A1A1A"/>
<path d="M190.488 46V34.832H197.144V36.016H191.832V39.76H196.68V40.944H191.832V46H190.488ZM199.938 35.808C199.66 35.808 199.458 35.744 199.33 35.616C199.212 35.4773 199.154 35.3013 199.154 35.088V34.88C199.154 34.6667 199.212 34.496 199.33 34.368C199.458 34.2293 199.66 34.16 199.938 34.16C200.215 34.16 200.412 34.2293 200.53 34.368C200.658 34.496 200.722 34.6667 200.722 34.88V35.088C200.722 35.3013 200.658 35.4773 200.53 35.616C200.412 35.744 200.215 35.808 199.938 35.808ZM199.298 37.744H200.578V46H199.298V37.744ZM204.658 46C204.21 46 203.868 45.8773 203.634 45.632C203.41 45.376 203.298 45.056 203.298 44.672V34.16H204.578V44.88H205.794V46H204.658Z" fill="#1A1A1A"/>
<path d="M189 48H206.29V48.96H189V48Z" fill="#1A1A1A"/>
<rect x="16.5" y="80.5" width="385" height="166" stroke="#8E8E8E"/>
<path d="M40 108C40 105.791 41.7909 104 44 104H374C376.209 104 378 105.791 378 108V219C378 221.209 376.209 223 374 223H44C41.7909 223 40 221.209 40 219V108Z" fill="#DCDCDC"/>
</svg>
