<?xml version="1.0" encoding="UTF-8"?>
<svg width="400px" height="200px" viewBox="0 0 400 200" version="1.1" xmlns="http://www.w3.org/2000/svg" xmlns:xlink="http://www.w3.org/1999/xlink">
    <!-- Generator: Sketch 52.6 (67491) - http://www.bohemiancoding.com/sketch -->
    <title>Group 2</title>
    <desc>Created with Sketch.</desc>
    <g id="Illustrationer" stroke="none" stroke-width="1" fill="none" fill-rule="evenodd">
        <g id="Illustrationer_Cards" transform="translate(-520.000000, -2464.000000)">
            <g id="Group-2" transform="translate(520.000000, 2464.000000)">
                <g id="Card-med-halv-bredde-2-Copy">
                    <rect id="Grey_BG" fill="#C8CADF" x="0" y="0" width="400" height="200"></rect>
                    <text id="3-ofte-stillede-spør" font-family="IBMPlexSans-Bold, IBM Plex Sans, Arial" font-size="24" font-weight="bold" line-spacing="32" fill="#1A1A1A">
                        <tspan x="173" y="41">3 ofte stillede </tspan>
                        <tspan x="173" y="73">spørgsmål</tspan>
                    </text>
                    <text id="In-viverra-faucibus" font-family="IBMPlexSans, IBM Plex Sans, Arial" font-size="16" font-weight="normal" line-spacing="28" fill="#1A1A1A">
                        <tspan x="185" y="104">In viverra faucibus lorem?</tspan>
                        <tspan x="185" y="132">Phasellus posuere neque?</tspan>
                        <tspan x="185" y="160">Nullam quis nunc dui?</tspan>
                    </text>
                    <g id="Oval-punktopstilling" transform="translate(173.000000, 152.000000)" fill="#1A1A1A">
                        <circle id="Oval" cx="2.5" cy="2.5" r="2.5"></circle>
                    </g>
                    <g id="Oval-punktopstilling" transform="translate(173.000000, 125.000000)" fill="#1A1A1A">
                        <circle id="Oval" cx="2.5" cy="2.5" r="2.5"></circle>
                    </g>
                    <g id="Oval-punktopstilling" transform="translate(173.000000, 97.000000)" fill="#1A1A1A">
                        <circle id="Oval" cx="2.5" cy="2.5" r="2.5"></circle>
                    </g>
                    <g id="Faq" transform="translate(24.000000, 24.000000)">
                        <g id="Group-15">
                            <path d="M22.9935897,45.6521739 L9.80769231,60 L9.80769231,45.6521739 L8,45.6521739 C3.581722,45.6521739 5.41083001e-16,42.0704519 0,37.6521739 L0,8 C-5.41083001e-16,3.581722 3.581722,8.11624501e-16 8,0 L77,0 C81.418278,-8.11624501e-16 85,3.581722 85,8 L85,37.6521739 C85,42.0704519 81.418278,45.6521739 77,45.6521739 L22.9935897,45.6521739 Z" id="Rectangle-2" fill="#ECEDF4"></path>
                            <g id="Group-14" transform="translate(39.230769, 18.260870)" fill="#9195BE" fill-rule="nonzero">
                                <rect id="Rectangle-15-Copy-10" x="0" y="0" width="38.5769231" height="2.60869565"></rect>
                                <rect id="Rectangle-15-Copy-10" x="0" y="6.52173913" width="22.2307692" height="2.60869565"></rect>
                            </g>
                            <g id="Group-3" transform="translate(7.999182, 11.225296)" fill="#474E95" fill-rule="nonzero">
                                <path d="M11.6162029,22.3616601 C5.65790016,22.3616601 0.827741408,17.5438547 0.827741408,11.6007905 C0.827741408,5.65772636 5.65790016,0.839920949 11.6162029,0.839920949 C17.5745057,0.839920949 22.4046645,5.65772636 22.4046645,11.6007905 C22.4046645,17.5438547 17.5745057,22.3616601 11.6162029,22.3616601 Z M11.6162029,20.4051383 C16.4911779,20.4051383 20.443126,16.4632976 20.443126,11.6007905 C20.443126,6.73828348 16.4911779,2.79644269 11.6162029,2.79644269 C6.74122794,2.79644269 2.78927987,6.73828348 2.78927987,11.6007905 C2.78927987,16.4632976 6.74122794,20.4051383 11.6162029,20.4051383 Z" id="Oval"></path>
                                <path d="M10.6537414,13.0825296 L10.6537414,11.4860079 C11.2047185,11.4651382 11.6179452,11.3729652 11.8934337,11.2094862 C12.1689223,11.0460071 12.3066645,10.7694881 12.3066645,10.3799209 L12.3066645,10.233834 C12.3066645,9.96948484 12.2282037,9.76774773 12.0712799,9.6286166 C11.914356,9.48948547 11.710358,9.41992095 11.4592799,9.41992095 C11.1872785,9.41992095 10.9623577,9.50339837 10.7845106,9.67035573 C10.6066636,9.83731309 10.4863571,10.0494849 10.4235876,10.3068775 L9.14727987,9.77470356 C9.21004941,9.56600686 9.30071517,9.36253064 9.41927987,9.16426877 C9.53784456,8.96600691 9.6930225,8.78861738 9.88481833,8.63209486 C10.0766142,8.47557234 10.3067657,8.34861709 10.5752799,8.2512253 C10.843794,8.15383351 11.1558935,8.10513834 11.5115876,8.10513834 C11.874256,8.10513834 12.2055348,8.15731173 12.5054337,8.26166008 C12.8053327,8.36600843 13.0633814,8.51209392 13.2795876,8.69992095 C13.4957938,8.88774797 13.6614331,9.11383267 13.7765106,9.37818182 C13.8915881,9.64253097 13.949126,9.93470196 13.949126,10.2547036 C13.949126,10.5468789 13.900306,10.8112241 13.8026645,11.047747 C13.705023,11.28427 13.5725115,11.4912244 13.405126,11.6686166 C13.2377406,11.8460088 13.0424605,11.9903552 12.8192799,12.1016601 C12.5960993,12.212965 12.3624606,12.289486 12.1183568,12.3312253 L12.1183568,13.0825296 L10.6537414,13.0825296 Z M11.4069722,15.6390514 C11.0722013,15.6390514 10.8333319,15.5625304 10.6903568,15.4094862 C10.5473817,15.2564419 10.4758953,15.0686177 10.4758953,14.8460079 L10.4758953,14.5955731 C10.4758953,14.3729633 10.5473817,14.1851391 10.6903568,14.0320949 C10.8333319,13.8790506 11.0722013,13.8025296 11.4069722,13.8025296 C11.7417431,13.8025296 11.9806125,13.8790506 12.1235876,14.0320949 C12.2665626,14.1851391 12.3380491,14.3729633 12.3380491,14.5955731 L12.3380491,14.8460079 C12.3380491,15.0686177 12.2665626,15.2564419 12.1235876,15.4094862 C11.9806125,15.5625304 11.7417431,15.6390514 11.4069722,15.6390514 Z" id="?"></path>
                            </g>
                        </g>
                        <g id="Group-15-Copy" transform="translate(38.000000, 32.000000)">
                            <path d="M22.9935897,45.6521739 L9.80769231,60 L9.80769231,45.6521739 L8,45.6521739 C3.581722,45.6521739 5.41083001e-16,42.0704519 0,37.6521739 L0,8 C-5.41083001e-16,3.581722 3.581722,8.11624501e-16 8,0 L77,0 C81.418278,-8.66006284e-15 85,3.581722 85,8 L85,37.6521739 C85,42.0704519 81.418278,45.6521739 77,45.6521739 L22.9935897,45.6521739 Z" id="Rectangle-2" fill="#FFFFFF" transform="translate(42.500000, 30.000000) scale(-1, 1) translate(-42.500000, -30.000000) "></path>
                            <g id="Group-14" transform="translate(39.230769, 18.260870)" fill="#9195BE" fill-rule="nonzero">
                                <rect id="Rectangle-15-Copy-10" x="0" y="0" width="38.5769231" height="2.60869565"></rect>
                                <rect id="Rectangle-15-Copy-10" x="0" y="6.52173913" width="22.2307692" height="2.60869565"></rect>
                            </g>
                            <g id="Group-3" transform="translate(7.999182, 11.225296)" fill="#474E95" fill-rule="nonzero">
                                <path d="M11.6162029,22.3616601 C5.65790016,22.3616601 0.827741408,17.5438547 0.827741408,11.6007905 C0.827741408,5.65772636 5.65790016,0.839920949 11.6162029,0.839920949 C17.5745057,0.839920949 22.4046645,5.65772636 22.4046645,11.6007905 C22.4046645,17.5438547 17.5745057,22.3616601 11.6162029,22.3616601 Z M11.6162029,20.4051383 C16.4911779,20.4051383 20.443126,16.4632976 20.443126,11.6007905 C20.443126,6.73828348 16.4911779,2.79644269 11.6162029,2.79644269 C6.74122794,2.79644269 2.78927987,6.73828348 2.78927987,11.6007905 C2.78927987,16.4632976 6.74122794,20.4051383 11.6162029,20.4051383 Z" id="Oval"></path>
                                <path d="M11.3023568,13.2181818 L10.8106645,10.2547036 L10.8106645,8.23035573 L12.4426645,8.23035573 L12.4426645,10.2547036 L11.9614337,13.2181818 L11.3023568,13.2181818 Z M11.6162029,15.6390514 C11.281432,15.6390514 11.0425626,15.5625304 10.8995876,15.4094862 C10.7566125,15.2564419 10.685126,15.0686177 10.685126,14.8460079 L10.685126,14.5955731 C10.685126,14.3729633 10.7566125,14.1851391 10.8995876,14.0320949 C11.0425626,13.8790506 11.281432,13.8025296 11.6162029,13.8025296 C11.9509739,13.8025296 12.1898433,13.8790506 12.3328183,14.0320949 C12.4757934,14.1851391 12.5472799,14.3729633 12.5472799,14.5955731 L12.5472799,14.8460079 C12.5472799,15.0686177 12.4757934,15.2564419 12.3328183,15.4094862 C12.1898433,15.5625304 11.9509739,15.6390514 11.6162029,15.6390514 Z" id="!"></path>
                            </g>
                        </g>
                    </g>
                </g>
                <g id="Exempel" transform="translate(323.000000, 0.000000)">
                    <rect id="Rectangle" fill="#D71784" fill-rule="evenodd" x="0" y="0" width="77" height="24"></rect>
                    <path d="M8.19588,16.2580645 L8.19588,7.61187097 L14.04788,7.61187097 L14.04788,9.28412903 L10.06852,9.28412903 L10.06852,11.0554839 L13.48116,11.0554839 L13.48116,12.7153548 L10.06852,12.7153548 L10.06852,14.5858065 L14.04788,14.5858065 L14.04788,16.2580645 L8.19588,16.2580645 Z M18.66788,12.4923871 L17.54676,13.8549677 L17.54676,16.2580645 L15.67412,16.2580645 L15.67412,7.61187097 L17.54676,7.61187097 L17.54676,11.7243871 L17.62068,11.7243871 L18.84036,10.052129 L20.7746,7.61187097 L22.89364,7.61187097 L19.99844,11.1669677 L23.15236,16.2580645 L20.94708,16.2580645 L18.66788,12.4923871 Z M26.90996,16.4067097 C26.1543296,16.4067097 25.513696,16.2766465 24.98804,16.0165161 C24.462384,15.7563858 24.0147618,15.419873 23.64516,15.0069677 L24.87716,13.755871 C25.4603096,14.4165194 26.1789691,14.7468387 27.03316,14.7468387 C27.493109,14.7468387 27.8339589,14.6518719 28.05572,14.4619355 C28.2774811,14.2719991 28.38836,14.0201306 28.38836,13.7063226 C28.38836,13.4668375 28.322654,13.2665815 28.19124,13.1055484 C28.059826,12.9445153 27.7928953,12.8350971 27.39044,12.7772903 L26.54036,12.6658065 C25.6286754,12.550193 24.9613488,12.2735506 24.53836,11.835871 C24.1153712,11.3981914 23.90388,10.8160036 23.90388,10.0892903 C23.90388,9.70115935 23.9777993,9.34606613 24.12564,9.024 C24.2734807,8.70193387 24.484972,8.42529148 24.76012,8.19406452 C25.035268,7.96283755 25.3720113,7.78322645 25.77036,7.65522581 C26.1687087,7.52722517 26.6224908,7.46322581 27.13172,7.46322581 C27.7805766,7.46322581 28.3513975,7.56645058 28.8442,7.77290323 C29.3370025,7.97935587 29.7599849,8.28077221 30.11316,8.67716129 L28.86884,9.94064516 C28.6635056,9.70116009 28.4150548,9.50503302 28.12348,9.35225806 C27.8319052,9.19948311 27.4643622,9.12309677 27.02084,9.12309677 C26.6019579,9.12309677 26.2898544,9.19741861 26.08452,9.34606452 C25.8791856,9.49471042 25.77652,9.70115997 25.77652,9.96541935 C25.77652,10.2627112 25.8565992,10.4774187 26.01676,10.6095484 C26.1769208,10.7416781 26.4376915,10.8366449 26.79908,10.8944516 L27.64916,11.0307097 C28.5362044,11.1710975 29.1932645,11.4456754 29.62036,11.8544516 C30.0474555,12.2632279 30.261,12.8433511 30.261,13.5948387 C30.261,14.007744 30.1870807,14.3876112 30.03924,14.7344516 C29.8913993,15.0812921 29.6758014,15.3785794 29.39244,15.6263226 C29.1090786,15.8740658 28.7579621,16.0660638 28.33908,16.2023226 C27.9201979,16.3385813 27.4438293,16.4067097 26.90996,16.4067097 Z M31.81332,16.2580645 L31.81332,7.61187097 L37.66532,7.61187097 L37.66532,9.28412903 L33.68596,9.28412903 L33.68596,11.0554839 L37.0986,11.0554839 L37.0986,12.7153548 L33.68596,12.7153548 L33.68596,14.5858065 L37.66532,14.5858065 L37.66532,16.2580645 L31.81332,16.2580645 Z M45.7226,10.5847742 L45.68564,10.5847742 L45.05732,11.8482581 L43.3818,14.907871 L41.74324,11.8606452 L41.09028,10.4980645 L41.05332,10.4980645 L41.05332,16.2580645 L39.29156,16.2580645 L39.29156,7.61187097 L41.27508,7.61187097 L43.3818,11.6624516 L43.40644,11.6624516 L45.48852,7.61187097 L47.48436,7.61187097 L47.48436,16.2580645 L45.7226,16.2580645 L45.7226,10.5847742 Z M49.38164,16.2580645 L49.38164,7.61187097 L53.44724,7.61187097 C53.8496953,7.61187097 54.2110784,7.67999932 54.5314,7.81625806 C54.8517216,7.95251681 55.1248122,8.1403859 55.35068,8.37987097 C55.5765478,8.61935604 55.7510794,8.9104499 55.87428,9.25316129 C55.9974806,9.59587268 56.05908,9.96954636 56.05908,10.3741935 C56.05908,10.7870988 55.9974806,11.162837 55.87428,11.5014194 C55.7510794,11.8400017 55.5765478,12.1290311 55.35068,12.3685161 C55.1248122,12.6080012 54.8517216,12.7958703 54.5314,12.932129 C54.2110784,13.0683878 53.8496953,13.1365161 53.44724,13.1365161 L51.25428,13.1365161 L51.25428,16.2580645 L49.38164,16.2580645 Z M51.25428,11.5014194 L53.22548,11.5014194 C53.5047347,11.5014194 53.7244392,11.429162 53.8846,11.2846452 C54.0447608,11.1401283 54.12484,10.9274853 54.12484,10.6467097 L54.12484,10.1016774 C54.12484,9.82090182 54.0447608,9.60825879 53.8846,9.46374194 C53.7244392,9.31922508 53.5047347,9.24696774 53.22548,9.24696774 L51.25428,9.24696774 L51.25428,11.5014194 Z M57.46356,16.2580645 L57.46356,7.61187097 L63.31556,7.61187097 L63.31556,9.28412903 L59.3362,9.28412903 L59.3362,11.0554839 L62.74884,11.0554839 L62.74884,12.7153548 L59.3362,12.7153548 L59.3362,14.5858065 L63.31556,14.5858065 L63.31556,16.2580645 L57.46356,16.2580645 Z M64.9418,16.2580645 L64.9418,7.61187097 L66.81444,7.61187097 L66.81444,14.5858065 L70.09156,14.5858065 L70.09156,16.2580645 L64.9418,16.2580645 Z" id="EKSEMPEL" fill="#FFFFFF" fill-rule="nonzero"></path>
                </g>
            </g>
        </g>
    </g>
</svg>
