<?xml version="1.0" encoding="UTF-8"?>
<svg width="832px" height="300px" viewBox="0 0 832 300" version="1.1" xmlns="http://www.w3.org/2000/svg" xmlns:xlink="http://www.w3.org/1999/xlink">
    <!-- Generator: Sketch 53.2 (72643) - https://sketchapp.com -->
    <title>Group 11</title>
    <desc>Created with Sketch.</desc>
    <g id="Illustrationer" stroke="none" stroke-width="1" fill="none" fill-rule="evenodd">
        <g id="Illustrationer_Cards" transform="translate(-88.000000, -2044.000000)">
            <g id="Group-11" transform="translate(88.000000, 2044.000000)">
                <g id="Card-med-fuld-bredde--Copy-3">
                    <rect id="Grey_BG" fill="#B9E7DF" x="0" y="0" width="832" height="300"></rect>
                    <text id="Aliquam-aliquet-nibo" font-family="IBMPlexSans-Bold, IBM Plex Sans" font-size="32" font-weight="bold" line-spacing="40" fill="#1A1A1A">
                        <tspan x="32" y="57">Aliquam aliquet niboh </tspan>
                        <tspan x="32" y="97">faucibus varius </tspan>
                    </text>
                    <text id="Aenean-euismod-vesti" font-family="IBMPlexSans, IBM Plex Sans" font-size="16" font-weight="normal" line-spacing="24" fill="#454545">
                        <tspan x="32" y="138">Aenean euismod vestibulum </tspan>
                        <tspan x="32" y="162">lacinia. Pellentesque nec nisi diam. </tspan>
                        <tspan x="32" y="186">Pellentesque nec urna vel ante </tspan>
                        <tspan x="32" y="210">ultrices facilisis sed in dolor. </tspan>
                        <tspan x="32" y="234">Curabitur eu leo semper, gravida </tspan>
                        <tspan x="32" y="258">justo at, euismod ex. </tspan>
                    </text>
                </g>
                <g id="Graf-Copy" transform="translate(367.000000, 37.000000)">
                    <g id="Lines" transform="translate(33.000000, 9.000000)" fill-rule="nonzero">
                        <rect id="Rectangle" fill="#FFFFFF" x="0" y="194" width="401" height="3"></rect>
                        <rect id="Rectangle" fill="#74D0BF" x="0" y="159" width="401" height="1"></rect>
                        <rect id="Rectangle" fill="#74D0BF" x="0" y="124" width="401" height="1"></rect>
                        <rect id="Rectangle" fill="#74D0BF" x="0" y="88" width="401" height="1"></rect>
                        <rect id="Rectangle" fill="#74D0BF" x="0" y="53" width="401" height="1"></rect>
                        <rect id="Rectangle" fill="#74D0BF" x="0" y="18" width="401" height="1"></rect>
                        <rect id="Rectangle" fill="#74D0BF" x="0" y="141" width="401" height="1"></rect>
                        <rect id="Rectangle" fill="#74D0BF" x="0" y="106" width="401" height="1"></rect>
                        <rect id="Rectangle" fill="#74D0BF" x="0" y="70" width="401" height="1"></rect>
                        <rect id="Rectangle" fill="#74D0BF" x="0" y="35" width="401" height="1"></rect>
                        <rect id="Rectangle" fill="#74D0BF" x="0" y="0" width="401" height="1"></rect>
                    </g>
                    <g id="Lines" transform="translate(32.000000, 0.000000)" fill="#FFFFFF" fill-rule="nonzero">
                        <rect id="Rectangle" x="0" y="0" width="1" height="223"></rect>
                        <rect id="Rectangle-Copy-2" x="101" y="0" width="1" height="223"></rect>
                        <rect id="Rectangle-Copy-2" x="201" y="0" width="1" height="223"></rect>
                        <rect id="Rectangle-Copy-2" x="301" y="0" width="1" height="223"></rect>
                        <rect id="Rectangle-Copy-2" x="401" y="0" width="1" height="223"></rect>
                    </g>
                    <text id="2015" font-family="IBMPlexSans-Bold, IBM Plex Sans" font-size="12" font-weight="bold" line-spacing="32" fill="#1A1A1A">
                        <tspan x="20.6" y="235">2015</tspan>
                    </text>
                    <text id="2018" font-family="IBMPlexSans-Bold, IBM Plex Sans" font-size="12" font-weight="bold" line-spacing="32" fill="#1A1A1A">
                        <tspan x="318.1" y="235">2018</tspan>
                    </text>
                    <text id="2019" font-family="IBMPlexSans-Bold, IBM Plex Sans" font-size="12" font-weight="bold" line-spacing="32" fill="#1A1A1A">
                        <tspan x="418.1" y="235">2019</tspan>
                    </text>
                    <text id="2016" font-family="IBMPlexSans-Bold, IBM Plex Sans" font-size="12" font-weight="bold" line-spacing="32" fill="#1A1A1A">
                        <tspan x="118.1" y="235">2016</tspan>
                    </text>
                    <text id="2017" font-family="IBMPlexSans-Bold, IBM Plex Sans" font-size="12" font-weight="bold" line-spacing="32" fill="#1A1A1A">
                        <tspan x="219.1" y="235">2017</tspan>
                    </text>
                    <path d="M33,105.613502 C71.2674013,105.613502 69.2104906,162.277149 103.878807,162.277149 C138.547124,162.277149 138.547124,133.993996 169.173946,133.993996 C199.800768,133.993996 199.800768,157.44268 227.791667,157.44268 C255.782566,157.44268 261.125509,26.5192236 293.416667,26.5192236 C331.476428,26.5192236 331.476428,69.157727 364.667509,69.157727 C397.207687,69.157727 392.095566,105.613502 433,105.613502 C433,105.613502 433,138.248743 433,203.519224 L33,203.519224 C33,138.248743 33,105.613502 33,105.613502 Z" id="Path-4" fill="#74D0BF" fill-rule="nonzero"></path>
                    <circle id="Oval" stroke="#FFFFFF" stroke-width="2" fill="#14B094" cx="296" cy="27" r="5"></circle>
                    <circle id="Oval-Copy" stroke="#FFFFFF" stroke-width="2" fill="#14B094" cx="373" cy="70" r="5"></circle>
                    <circle id="Oval-Copy-4" stroke="#FFFFFF" stroke-width="2" fill="#14B094" cx="433" cy="105" r="5"></circle>
                    <circle id="Oval-Copy-2" stroke="#FFFFFF" stroke-width="2" fill="#14B094" cx="169" cy="134" r="5"></circle>
                    <circle id="Oval-Copy-3" stroke="#FFFFFF" stroke-width="2" fill="#14B094" cx="33" cy="105" r="5"></circle>
                </g>
                <g id="Exempel" transform="translate(732.000000, 0.000000)">
                    <rect id="Rectangle" fill="#D71784" fill-rule="evenodd" x="0" y="0" width="100" height="31"></rect>
                    <path d="M10.644,21 L10.644,9.832 L18.244,9.832 L18.244,11.992 L13.076,11.992 L13.076,14.28 L17.508,14.28 L17.508,16.424 L13.076,16.424 L13.076,18.84 L18.244,18.84 L18.244,21 L10.644,21 Z M24.244,16.136 L22.788,17.896 L22.788,21 L20.356,21 L20.356,9.832 L22.788,9.832 L22.788,15.144 L22.884,15.144 L24.468,12.984 L26.98,9.832 L29.732,9.832 L25.972,14.424 L30.068,21 L27.204,21 L24.244,16.136 Z M34.948,21.192 C33.9666618,21.192 33.1346701,21.0240017 32.452,20.688 C31.7693299,20.3519983 31.1880024,19.917336 30.708,19.384 L32.308,17.768 C33.0653371,18.6213376 33.9986611,19.048 35.108,19.048 C35.7053363,19.048 36.1479986,18.9253346 36.436,18.68 C36.7240014,18.4346654 36.868,18.1093354 36.868,17.704 C36.868,17.3946651 36.7826675,17.136001 36.612,16.928 C36.4413325,16.719999 36.0946693,16.578667 35.572,16.504 L34.468,16.36 C33.2839941,16.2106659 32.4173361,15.8533362 31.868,15.288 C31.3186639,14.7226638 31.044,13.9706714 31.044,13.032 C31.044,12.5306642 31.139999,12.0720021 31.332,11.656 C31.524001,11.2399979 31.7986649,10.8826682 32.156,10.584 C32.5133351,10.2853318 32.9506641,10.0533342 33.468,9.888 C33.9853359,9.72266584 34.5746634,9.64 35.236,9.64 C36.0786709,9.64 36.8199968,9.773332 37.46,10.04 C38.1000032,10.306668 38.649331,10.6959974 39.108,11.208 L37.492,12.84 C37.225332,12.5306651 36.9026686,12.2773343 36.524,12.08 C36.1453314,11.8826657 35.6680029,11.784 35.092,11.784 C34.5479973,11.784 34.142668,11.879999 33.876,12.072 C33.609332,12.264001 33.476,12.530665 33.476,12.872 C33.476,13.2560019 33.579999,13.5333325 33.788,13.704 C33.996001,13.8746675 34.3346643,13.997333 34.804,14.072 L35.908,14.248 C37.0600058,14.4293342 37.9133306,14.7839974 38.468,15.312 C39.0226694,15.8400026 39.3,16.5893285 39.3,17.56 C39.3,18.093336 39.204001,18.5839978 39.012,19.032 C38.819999,19.4800022 38.5400018,19.8639984 38.172,20.184 C37.8039982,20.5040016 37.3480027,20.7519991 36.804,20.928 C36.2599973,21.1040009 35.6413368,21.192 34.948,21.192 Z M41.316,21 L41.316,9.832 L48.916,9.832 L48.916,11.992 L43.748,11.992 L43.748,14.28 L48.18,14.28 L48.18,16.424 L43.748,16.424 L43.748,18.84 L48.916,18.84 L48.916,21 L41.316,21 Z M59.38,13.672 L59.332,13.672 L58.516,15.304 L56.34,19.256 L54.212,15.32 L53.364,13.56 L53.316,13.56 L53.316,21 L51.028,21 L51.028,9.832 L53.604,9.832 L56.34,15.064 L56.372,15.064 L59.076,9.832 L61.668,9.832 L61.668,21 L59.38,21 L59.38,13.672 Z M64.132,21 L64.132,9.832 L69.412,9.832 C69.9346693,9.832 70.4039979,9.91999912 70.82,10.096 C71.2360021,10.2720009 71.5906652,10.5146651 71.884,10.824 C72.1773348,11.1333349 72.4039992,11.5093311 72.564,11.952 C72.7240008,12.3946689 72.804,12.8773307 72.804,13.4 C72.804,13.933336 72.7240008,14.4186645 72.564,14.856 C72.4039992,15.2933355 72.1773348,15.6666651 71.884,15.976 C71.5906652,16.2853349 71.2360021,16.5279991 70.82,16.704 C70.4039979,16.8800009 69.9346693,16.968 69.412,16.968 L66.564,16.968 L66.564,21 L64.132,21 Z M66.564,14.856 L69.124,14.856 C69.4866685,14.856 69.771999,14.7626676 69.98,14.576 C70.188001,14.3893324 70.292,14.1146685 70.292,13.752 L70.292,13.048 C70.292,12.6853315 70.188001,12.4106676 69.98,12.224 C69.771999,12.0373324 69.4866685,11.944 69.124,11.944 L66.564,11.944 L66.564,14.856 Z M74.628,21 L74.628,9.832 L82.228,9.832 L82.228,11.992 L77.06,11.992 L77.06,14.28 L81.492,14.28 L81.492,16.424 L77.06,16.424 L77.06,18.84 L82.228,18.84 L82.228,21 L74.628,21 Z M84.34,21 L84.34,9.832 L86.772,9.832 L86.772,18.84 L91.028,18.84 L91.028,21 L84.34,21 Z" id="EKSEMPEL" fill="#FFFFFF" fill-rule="nonzero"></path>
                </g>
                <g id="Card-med-fuld-bredde--Copy-4">
                    <rect id="Grey_BG" fill="#B9E7DF" x="0" y="0" width="832" height="300"></rect>
                    <text id="Aliquam-aliquet-nibo" font-family="IBMPlexSans-Bold, IBM Plex Sans" font-size="32" font-weight="bold" line-spacing="40" fill="#1A1A1A">
                        <tspan x="32" y="57">Aliquam aliquet niboh </tspan>
                        <tspan x="32" y="97">faucibus varius </tspan>
                    </text>
                    <text id="Aenean-euismod-vesti" font-family="IBMPlexSans, IBM Plex Sans" font-size="16" font-weight="normal" line-spacing="24" fill="#454545">
                        <tspan x="32" y="138">Aenean euismod vestibulum </tspan>
                        <tspan x="32" y="162">lacinia. Pellentesque nec nisi diam. </tspan>
                        <tspan x="32" y="186">Pellentesque nec urna vel ante </tspan>
                        <tspan x="32" y="210">ultrices facilisis sed in dolor. </tspan>
                        <tspan x="32" y="234">Curabitur eu leo semper, gravida </tspan>
                        <tspan x="32" y="258">justo at, euismod ex. </tspan>
                    </text>
                </g>
                <g id="Graf-Copy-2" transform="translate(367.000000, 37.000000)">
                    <g id="Lines" transform="translate(33.000000, 9.000000)" fill-rule="nonzero">
                        <rect id="Rectangle" fill="#FFFFFF" x="0" y="194" width="401" height="3"></rect>
                        <rect id="Rectangle" fill="#74D0BF" x="0" y="159" width="401" height="1"></rect>
                        <rect id="Rectangle" fill="#74D0BF" x="0" y="124" width="401" height="1"></rect>
                        <rect id="Rectangle" fill="#74D0BF" x="0" y="88" width="401" height="1"></rect>
                        <rect id="Rectangle" fill="#74D0BF" x="0" y="53" width="401" height="1"></rect>
                        <rect id="Rectangle" fill="#74D0BF" x="0" y="18" width="401" height="1"></rect>
                        <rect id="Rectangle" fill="#74D0BF" x="0" y="141" width="401" height="1"></rect>
                        <rect id="Rectangle" fill="#74D0BF" x="0" y="106" width="401" height="1"></rect>
                        <rect id="Rectangle" fill="#74D0BF" x="0" y="70" width="401" height="1"></rect>
                        <rect id="Rectangle" fill="#74D0BF" x="0" y="35" width="401" height="1"></rect>
                        <rect id="Rectangle" fill="#74D0BF" x="0" y="0" width="401" height="1"></rect>
                    </g>
                    <g id="Lines" transform="translate(32.000000, 0.000000)" fill="#FFFFFF" fill-rule="nonzero">
                        <rect id="Rectangle" x="0" y="0" width="1" height="223"></rect>
                        <rect id="Rectangle-Copy-2" x="101" y="0" width="1" height="223"></rect>
                        <rect id="Rectangle-Copy-2" x="201" y="0" width="1" height="223"></rect>
                        <rect id="Rectangle-Copy-2" x="301" y="0" width="1" height="223"></rect>
                        <rect id="Rectangle-Copy-2" x="401" y="0" width="1" height="223"></rect>
                    </g>
                    <text id="2015" font-family="IBMPlexSans-Bold, IBM Plex Sans" font-size="12" font-weight="bold" line-spacing="32" fill="#1A1A1A">
                        <tspan x="20.6" y="235">2015</tspan>
                    </text>
                    <text id="2018" font-family="IBMPlexSans-Bold, IBM Plex Sans" font-size="12" font-weight="bold" line-spacing="32" fill="#1A1A1A">
                        <tspan x="318.1" y="235">2018</tspan>
                    </text>
                    <text id="2019" font-family="IBMPlexSans-Bold, IBM Plex Sans" font-size="12" font-weight="bold" line-spacing="32" fill="#1A1A1A">
                        <tspan x="418.1" y="235">2019</tspan>
                    </text>
                    <text id="2016" font-family="IBMPlexSans-Bold, IBM Plex Sans" font-size="12" font-weight="bold" line-spacing="32" fill="#1A1A1A">
                        <tspan x="118.1" y="235">2016</tspan>
                    </text>
                    <text id="2017" font-family="IBMPlexSans-Bold, IBM Plex Sans" font-size="12" font-weight="bold" line-spacing="32" fill="#1A1A1A">
                        <tspan x="219.1" y="235">2017</tspan>
                    </text>
                    <path d="M33,105.613502 C71.2674013,105.613502 69.2104906,162.277149 103.878807,162.277149 C138.547124,162.277149 138.547124,133.993996 169.173946,133.993996 C199.800768,133.993996 199.800768,157.44268 227.791667,157.44268 C255.782566,157.44268 261.125509,26.5192236 293.416667,26.5192236 C331.476428,26.5192236 331.476428,69.157727 364.667509,69.157727 C397.207687,69.157727 392.095566,105.613502 433,105.613502 C433,105.613502 433,138.248743 433,203.519224 L33,203.519224 C33,138.248743 33,105.613502 33,105.613502 Z" id="Path-4" fill="#74D0BF" fill-rule="nonzero"></path>
                    <circle id="Oval" stroke="#FFFFFF" stroke-width="2" fill="#14B094" cx="296" cy="27" r="5"></circle>
                    <circle id="Oval-Copy" stroke="#FFFFFF" stroke-width="2" fill="#14B094" cx="373" cy="70" r="5"></circle>
                    <circle id="Oval-Copy-4" stroke="#FFFFFF" stroke-width="2" fill="#14B094" cx="433" cy="105" r="5"></circle>
                    <circle id="Oval-Copy-2" stroke="#FFFFFF" stroke-width="2" fill="#14B094" cx="169" cy="134" r="5"></circle>
                    <circle id="Oval-Copy-3" stroke="#FFFFFF" stroke-width="2" fill="#14B094" cx="33" cy="105" r="5"></circle>
                </g>
                <g id="Exempel" transform="translate(732.000000, 0.000000)">
                    <rect id="Rectangle" fill="#D71784" fill-rule="evenodd" x="0" y="0" width="100" height="31"></rect>
                    <path d="M10.644,21 L10.644,9.832 L18.244,9.832 L18.244,11.992 L13.076,11.992 L13.076,14.28 L17.508,14.28 L17.508,16.424 L13.076,16.424 L13.076,18.84 L18.244,18.84 L18.244,21 L10.644,21 Z M24.244,16.136 L22.788,17.896 L22.788,21 L20.356,21 L20.356,9.832 L22.788,9.832 L22.788,15.144 L22.884,15.144 L24.468,12.984 L26.98,9.832 L29.732,9.832 L25.972,14.424 L30.068,21 L27.204,21 L24.244,16.136 Z M34.948,21.192 C33.9666618,21.192 33.1346701,21.0240017 32.452,20.688 C31.7693299,20.3519983 31.1880024,19.917336 30.708,19.384 L32.308,17.768 C33.0653371,18.6213376 33.9986611,19.048 35.108,19.048 C35.7053363,19.048 36.1479986,18.9253346 36.436,18.68 C36.7240014,18.4346654 36.868,18.1093354 36.868,17.704 C36.868,17.3946651 36.7826675,17.136001 36.612,16.928 C36.4413325,16.719999 36.0946693,16.578667 35.572,16.504 L34.468,16.36 C33.2839941,16.2106659 32.4173361,15.8533362 31.868,15.288 C31.3186639,14.7226638 31.044,13.9706714 31.044,13.032 C31.044,12.5306642 31.139999,12.0720021 31.332,11.656 C31.524001,11.2399979 31.7986649,10.8826682 32.156,10.584 C32.5133351,10.2853318 32.9506641,10.0533342 33.468,9.888 C33.9853359,9.72266584 34.5746634,9.64 35.236,9.64 C36.0786709,9.64 36.8199968,9.773332 37.46,10.04 C38.1000032,10.306668 38.649331,10.6959974 39.108,11.208 L37.492,12.84 C37.225332,12.5306651 36.9026686,12.2773343 36.524,12.08 C36.1453314,11.8826657 35.6680029,11.784 35.092,11.784 C34.5479973,11.784 34.142668,11.879999 33.876,12.072 C33.609332,12.264001 33.476,12.530665 33.476,12.872 C33.476,13.2560019 33.579999,13.5333325 33.788,13.704 C33.996001,13.8746675 34.3346643,13.997333 34.804,14.072 L35.908,14.248 C37.0600058,14.4293342 37.9133306,14.7839974 38.468,15.312 C39.0226694,15.8400026 39.3,16.5893285 39.3,17.56 C39.3,18.093336 39.204001,18.5839978 39.012,19.032 C38.819999,19.4800022 38.5400018,19.8639984 38.172,20.184 C37.8039982,20.5040016 37.3480027,20.7519991 36.804,20.928 C36.2599973,21.1040009 35.6413368,21.192 34.948,21.192 Z M41.316,21 L41.316,9.832 L48.916,9.832 L48.916,11.992 L43.748,11.992 L43.748,14.28 L48.18,14.28 L48.18,16.424 L43.748,16.424 L43.748,18.84 L48.916,18.84 L48.916,21 L41.316,21 Z M59.38,13.672 L59.332,13.672 L58.516,15.304 L56.34,19.256 L54.212,15.32 L53.364,13.56 L53.316,13.56 L53.316,21 L51.028,21 L51.028,9.832 L53.604,9.832 L56.34,15.064 L56.372,15.064 L59.076,9.832 L61.668,9.832 L61.668,21 L59.38,21 L59.38,13.672 Z M64.132,21 L64.132,9.832 L69.412,9.832 C69.9346693,9.832 70.4039979,9.91999912 70.82,10.096 C71.2360021,10.2720009 71.5906652,10.5146651 71.884,10.824 C72.1773348,11.1333349 72.4039992,11.5093311 72.564,11.952 C72.7240008,12.3946689 72.804,12.8773307 72.804,13.4 C72.804,13.933336 72.7240008,14.4186645 72.564,14.856 C72.4039992,15.2933355 72.1773348,15.6666651 71.884,15.976 C71.5906652,16.2853349 71.2360021,16.5279991 70.82,16.704 C70.4039979,16.8800009 69.9346693,16.968 69.412,16.968 L66.564,16.968 L66.564,21 L64.132,21 Z M66.564,14.856 L69.124,14.856 C69.4866685,14.856 69.771999,14.7626676 69.98,14.576 C70.188001,14.3893324 70.292,14.1146685 70.292,13.752 L70.292,13.048 C70.292,12.6853315 70.188001,12.4106676 69.98,12.224 C69.771999,12.0373324 69.4866685,11.944 69.124,11.944 L66.564,11.944 L66.564,14.856 Z M74.628,21 L74.628,9.832 L82.228,9.832 L82.228,11.992 L77.06,11.992 L77.06,14.28 L81.492,14.28 L81.492,16.424 L77.06,16.424 L77.06,18.84 L82.228,18.84 L82.228,21 L74.628,21 Z M84.34,21 L84.34,9.832 L86.772,9.832 L86.772,18.84 L91.028,18.84 L91.028,21 L84.34,21 Z" id="EKSEMPEL" fill="#FFFFFF" fill-rule="nonzero"></path>
                </g>
            </g>
        </g>
    </g>
</svg>