<?xml version="1.0" encoding="UTF-8"?>
<svg width="194px" height="128px" viewBox="0 0 194 128" version="1.1" xmlns="http://www.w3.org/2000/svg" xmlns:xlink="http://www.w3.org/1999/xlink">
    <!-- Generator: Sketch 52.6 (67491) - http://www.bohemiancoding.com/sketch -->
    <title>Avancerede_Tabeller_With_BG</title>
    <desc>Created with Sketch.</desc>
    <g id="Illustrationer" stroke="none" stroke-width="1" fill="none" fill-rule="evenodd">
        <g id="Overview_illustrationer_Ver02" transform="translate(-152.000000, -3326.000000)" fill-rule="nonzero">
            <g id="Avancerede_Tabeller" transform="translate(152.000000, 3326.000000)">
                <rect id="Rectangle-10" fill="#FFFFFF" x="0" y="0" width="194" height="128"></rect>
                <rect id="Rectangle-10" fill="#1A1A1A" x="0" y="0" width="194" height="16"></rect>
                <polygon id="Rectangle-10" fill="#DCDCDC" points="12 28 62 28 62 36 12 36"></polygon>
                <polygon id="Rectangle-10" fill="#DCDCDC" points="12 44 62 44 62 52 12 52"></polygon>
                <polygon id="Rectangle-10" fill="#DCDCDC" points="12 60 62 60 62 68 12 68"></polygon>
                <polygon id="Rectangle-10" fill="#DCDCDC" points="12 76 62 76 62 84 12 84"></polygon>
                <polygon id="Rectangle-10" fill="#DCDCDC" points="12 92 62 92 62 100 12 100"></polygon>
                <polygon id="Rectangle-10" fill="#DCDCDC" points="12 108 62 108 62 116 12 116"></polygon>
                <polygon id="Rectangle-10" fill="#DCDCDC" points="72 28 122 28 122 36 72 36"></polygon>
                <polygon id="Rectangle-10" fill="#DCDCDC" points="72 44 122 44 122 52 72 52"></polygon>
                <polygon id="Rectangle-10" fill="#DCDCDC" points="72 60 122 60 122 68 72 68"></polygon>
                <polygon id="Rectangle-10" fill="#DCDCDC" points="72 76 122 76 122 84 72 84"></polygon>
                <polygon id="Rectangle-10" fill="#DCDCDC" points="72 92 122 92 122 100 72 100"></polygon>
                <polygon id="Rectangle-10" fill="#DCDCDC" points="72 108 122 108 122 116 72 116"></polygon>
                <polygon id="Rectangle-10" fill="#DCDCDC" points="132 28 182 28 182 36 132 36"></polygon>
                <polygon id="Rectangle-10" fill="#DCDCDC" points="132 44 182 44 182 52 132 52"></polygon>
                <polygon id="Rectangle-10" fill="#DCDCDC" points="132 60 182 60 182 68 132 68"></polygon>
                <polygon id="Rectangle-10" fill="#DCDCDC" points="132 76 182 76 182 84 132 84"></polygon>
                <polygon id="Rectangle-10" fill="#DCDCDC" points="132 92 182 92 182 100 132 100"></polygon>
                <polygon id="Rectangle-10" fill="#DCDCDC" points="132 108 182 108 182 116 132 116"></polygon>
            </g>
        </g>
    </g>
</svg>