<?xml version="1.0" encoding="UTF-8"?>
<svg width="91px" height="104px" viewBox="0 0 91 104" version="1.1" xmlns="http://www.w3.org/2000/svg" xmlns:xlink="http://www.w3.org/1999/xlink">
    <!-- Generator: Sketch 52.6 (67491) - http://www.bohemiancoding.com/sketch -->
    <title>round-accessibility_new-24px</title>
    <desc>Created with Sketch.</desc>
    <g id="Illustrationer" stroke="none" stroke-width="1" fill="none" fill-rule="evenodd">
        <g id="Tilgængelighed-Copy" transform="translate(-114.000000, -57.000000)">
            <g id="round-accessibility_new-24px" transform="translate(101.000000, 49.000000)">
                <polygon id="Path" points="0 0 119 0 119 119 0 119"></polygon>
                <path d="M101.844044,34.95 C101.150541,32.2 98.4260638,30.6 95.7015865,31.2 C83.9120302,33.85 70.7850032,35 58.5000874,35 C46.2151716,35 33.0881446,33.85 21.2985883,31.2 C18.574111,30.6 15.8496337,32.2 15.1561304,34.95 C14.4626271,37.75 16.1468494,40.6 18.8713267,41.25 C26.8466148,43.05 35.4658702,44.3 43.6393021,45 L43.6393021,105 C43.6393021,107.75 45.8684199,110 48.5928972,110 C51.3173745,110 53.5464923,107.75 53.5464923,105 L53.5464923,80 L63.4536825,80 L63.4536825,105 C63.4536825,107.75 65.6828002,110 68.4072775,110 C71.1317548,110 73.3608726,107.75 73.3608726,105 L73.3608726,45 C81.5343045,44.3 90.15356,43.05 98.0793121,41.25 C100.853325,40.6 102.537548,37.75 101.844044,34.95 Z M58.5000874,30 C63.949042,30 68.4072775,25.5 68.4072775,20 C68.4072775,14.5 63.949042,10 58.5000874,10 C53.0511328,10 48.5928972,14.5 48.5928972,20 C48.5928972,25.5 53.0511328,30 58.5000874,30 Z" id="Shape" stroke="#1A1A1A" stroke-width="4" fill="#F5F5F5" fill-rule="nonzero"></path>
            </g>
        </g>
    </g>
</svg>