<svg width="309" height="600" viewBox="0 0 309 600" fill="none" xmlns="http://www.w3.org/2000/svg">
<g clip-path="url(#clip0)">
<rect width="309" height="600" fill="#7A0177"/>
<path d="M42.375 39.85H35.725V47H31.925V29.55H35.725V36.5H42.375V29.55H46.175V47H42.375V39.85ZM52.6158 47L48.3158 33.875H51.9658L53.5908 39.175L54.8158 43.925H55.0158L56.2408 39.175L57.8158 33.875H61.3158L57.0158 47H52.6158ZM68.3977 47.3C67.431 47.3 66.5643 47.1417 65.7977 46.825C65.0477 46.5083 64.406 46.05 63.8727 45.45C63.356 44.85 62.956 44.125 62.6727 43.275C62.3893 42.425 62.2477 41.475 62.2477 40.425C62.2477 39.375 62.3893 38.425 62.6727 37.575C62.956 36.725 63.356 36.0083 63.8727 35.425C64.406 34.825 65.0477 34.3667 65.7977 34.05C66.5643 33.7333 67.431 33.575 68.3977 33.575C69.3643 33.575 70.2227 33.7333 70.9727 34.05C71.7393 34.3667 72.381 34.825 72.8977 35.425C73.431 36.0083 73.8393 36.725 74.1227 37.575C74.406 38.425 74.5477 39.375 74.5477 40.425C74.5477 41.475 74.406 42.425 74.1227 43.275C73.8393 44.125 73.431 44.85 72.8977 45.45C72.381 46.05 71.7393 46.5083 70.9727 46.825C70.2227 47.1417 69.3643 47.3 68.3977 47.3ZM68.3977 44.375C69.131 44.375 69.6977 44.15 70.0977 43.7C70.4977 43.25 70.6977 42.6083 70.6977 41.775V39.1C70.6977 38.2667 70.4977 37.625 70.0977 37.175C69.6977 36.725 69.131 36.5 68.3977 36.5C67.6643 36.5 67.0977 36.725 66.6977 37.175C66.2977 37.625 66.0977 38.2667 66.0977 39.1V41.775C66.0977 42.6083 66.2977 43.25 66.6977 43.7C67.0977 44.15 67.6643 44.375 68.3977 44.375ZM77.184 47V33.875H80.884V36.725H81.009C81.0757 36.3583 81.1923 36.0083 81.359 35.675C81.5257 35.325 81.7423 35.0167 82.009 34.75C82.2923 34.4833 82.6257 34.275 83.009 34.125C83.3923 33.9583 83.8423 33.875 84.359 33.875H85.009V37.325H84.084C83.0007 37.325 82.1923 37.4667 81.659 37.75C81.1423 38.0333 80.884 38.5583 80.884 39.325V47H77.184ZM87.2914 47V33.875H90.9914V36.1H91.1414C91.3747 35.4167 91.7831 34.825 92.3664 34.325C92.9497 33.825 93.7581 33.575 94.7914 33.575C96.1414 33.575 97.1581 34.025 97.8414 34.925C98.5414 35.825 98.8914 37.1083 98.8914 38.775V47H95.1914V39.075C95.1914 38.225 95.0581 37.6 94.7914 37.2C94.5247 36.7833 94.0497 36.575 93.3664 36.575C93.0664 36.575 92.7747 36.6167 92.4914 36.7C92.2081 36.7667 91.9497 36.8833 91.7164 37.05C91.4997 37.2167 91.3247 37.425 91.1914 37.675C91.0581 37.9083 90.9914 38.1833 90.9914 38.5V47H87.2914ZM111.884 47C111.217 47 110.659 46.7917 110.209 46.375C109.776 45.9583 109.501 45.4 109.384 44.7H109.234C109.034 45.55 108.592 46.2 107.909 46.65C107.226 47.0833 106.384 47.3 105.384 47.3C104.067 47.3 103.059 46.95 102.359 46.25C101.659 45.55 101.309 44.625 101.309 43.475C101.309 42.0917 101.809 41.0667 102.809 40.4C103.826 39.7167 105.201 39.375 106.934 39.375H109.009V38.55C109.009 37.9167 108.842 37.4167 108.509 37.05C108.176 36.6667 107.617 36.475 106.834 36.475C106.101 36.475 105.517 36.6333 105.084 36.95C104.651 37.2667 104.292 37.625 104.009 38.025L101.809 36.075C102.342 35.2917 103.009 34.6833 103.809 34.25C104.626 33.8 105.726 33.575 107.109 33.575C108.976 33.575 110.376 33.9833 111.309 34.8C112.242 35.6167 112.709 36.8083 112.709 38.375V44.125H113.934V47H111.884ZM106.759 44.725C107.376 44.725 107.901 44.5917 108.334 44.325C108.784 44.0583 109.009 43.625 109.009 43.025V41.475H107.209C105.759 41.475 105.034 41.9667 105.034 42.95V43.325C105.034 43.8083 105.184 44.1667 105.484 44.4C105.784 44.6167 106.209 44.725 106.759 44.725ZM107.184 33.05C106.667 33.05 106.184 32.9667 105.734 32.8C105.284 32.6167 104.892 32.3667 104.559 32.05C104.226 31.7333 103.959 31.3583 103.759 30.925C103.576 30.475 103.484 29.9917 103.484 29.475C103.484 28.9583 103.576 28.4833 103.759 28.05C103.959 27.6 104.226 27.2167 104.559 26.9C104.892 26.5833 105.284 26.3417 105.734 26.175C106.184 25.9917 106.667 25.9 107.184 25.9C107.701 25.9 108.184 25.9917 108.634 26.175C109.084 26.3417 109.476 26.5833 109.809 26.9C110.142 27.2167 110.401 27.6 110.584 28.05C110.784 28.4833 110.884 28.9583 110.884 29.475C110.884 29.9917 110.784 30.475 110.584 30.925C110.401 31.3583 110.142 31.7333 109.809 32.05C109.476 32.3667 109.084 32.6167 108.634 32.8C108.184 32.9667 107.701 33.05 107.184 33.05ZM107.184 31.175C107.601 31.175 107.917 31.0667 108.134 30.85C108.351 30.6167 108.459 30.3 108.459 29.9V29.05C108.459 28.65 108.351 28.3417 108.134 28.125C107.917 27.8917 107.601 27.775 107.184 27.775C106.767 27.775 106.451 27.8917 106.234 28.125C106.017 28.3417 105.909 28.65 105.909 29.05V29.9C105.909 30.3 106.017 30.6167 106.234 30.85C106.451 31.0667 106.767 31.175 107.184 31.175ZM116.417 47V33.875H120.117V36.725H120.242C120.309 36.3583 120.426 36.0083 120.592 35.675C120.759 35.325 120.976 35.0167 121.242 34.75C121.526 34.4833 121.859 34.275 122.242 34.125C122.626 33.9583 123.076 33.875 123.592 33.875H124.242V37.325H123.317C122.234 37.325 121.426 37.4667 120.892 37.75C120.376 38.0333 120.117 38.5583 120.117 39.325V47H116.417ZM31.725 60.5H35.425V68.075H35.55C35.7333 67.3417 36.15 66.7417 36.8 66.275C37.4667 65.8083 38.225 65.575 39.075 65.575C40.7417 65.575 42 66.1583 42.85 67.325C43.7 68.4917 44.125 70.1917 44.125 72.425C44.125 74.6583 43.7 76.3667 42.85 77.55C42 78.7167 40.7417 79.3 39.075 79.3C38.6417 79.3 38.2333 79.2333 37.85 79.1C37.4667 78.9833 37.1167 78.8167 36.8 78.6C36.5 78.3667 36.2417 78.1 36.025 77.8C35.8083 77.4833 35.65 77.15 35.55 76.8H35.425V79H31.725V60.5ZM37.85 76.3C38.55 76.3 39.125 76.0583 39.575 75.575C40.0417 75.075 40.275 74.4083 40.275 73.575V71.3C40.275 70.4667 40.0417 69.8083 39.575 69.325C39.125 68.825 38.55 68.575 37.85 68.575C37.15 68.575 36.5667 68.75 36.1 69.1C35.65 69.4333 35.425 69.9 35.425 70.5V74.375C35.425 74.975 35.65 75.45 36.1 75.8C36.5667 76.1333 37.15 76.3 37.85 76.3ZM46.935 79V65.875H50.635V68.725H50.76C50.8266 68.3583 50.9433 68.0083 51.11 67.675C51.2766 67.325 51.4933 67.0167 51.76 66.75C52.0433 66.4833 52.3766 66.275 52.76 66.125C53.1433 65.9583 53.5933 65.875 54.11 65.875H54.76V69.325H53.835C52.7516 69.325 51.9433 69.4667 51.41 69.75C50.8933 70.0333 50.635 70.5583 50.635 71.325V79H46.935ZM64.7924 76.8H64.6674C64.5507 77.1333 64.3924 77.45 64.1924 77.75C64.009 78.05 63.7674 78.3167 63.4674 78.55C63.1674 78.7833 62.8091 78.9667 62.3924 79.1C61.9924 79.2333 61.5257 79.3 60.9924 79.3C59.6424 79.3 58.6174 78.8583 57.9174 77.975C57.234 77.075 56.8924 75.7917 56.8924 74.125V65.875H60.5924V73.8C60.5924 74.6 60.734 75.2167 61.0174 75.65C61.3007 76.0833 61.784 76.3 62.4674 76.3C62.7507 76.3 63.034 76.2583 63.3174 76.175C63.6007 76.0917 63.8507 75.975 64.0674 75.825C64.284 75.6583 64.459 75.4583 64.5924 75.225C64.7257 74.9917 64.7924 74.7167 64.7924 74.4V65.875H68.4924V79H64.7924V76.8ZM84.085 79.95C84.085 80.65 83.96 81.2667 83.71 81.8C83.4766 82.3333 83.085 82.7833 82.535 83.15C81.985 83.5333 81.2516 83.8167 80.335 84C79.435 84.2 78.3183 84.3 76.985 84.3C75.8516 84.3 74.885 84.225 74.085 84.075C73.3016 83.9417 72.66 83.7417 72.16 83.475C71.6766 83.225 71.3183 82.9083 71.085 82.525C70.8683 82.1583 70.76 81.7333 70.76 81.25C70.76 80.5167 70.9766 79.9417 71.41 79.525C71.8433 79.1083 72.4433 78.85 73.21 78.75V78.475C72.5766 78.3583 72.1016 78.0917 71.785 77.675C71.4683 77.2417 71.31 76.7417 71.31 76.175C71.31 75.825 71.3766 75.525 71.51 75.275C71.66 75.0083 71.8433 74.7833 72.06 74.6C72.2933 74.4 72.56 74.2417 72.86 74.125C73.16 74.0083 73.46 73.9167 73.76 73.85V73.75C72.96 73.3833 72.3683 72.8833 71.985 72.25C71.6016 71.6 71.41 70.85 71.41 70C71.41 68.6667 71.8683 67.6 72.785 66.8C73.7183 65.9833 75.135 65.575 77.035 65.575C77.9016 65.575 78.6433 65.6583 79.26 65.825V65.325C79.26 64.625 79.4266 64.125 79.76 63.825C80.11 63.5083 80.6016 63.35 81.235 63.35H83.31V66.1H80.41V66.25C81.1766 66.6167 81.7433 67.125 82.11 67.775C82.4766 68.4083 82.66 69.15 82.66 70C82.66 71.3167 82.1933 72.375 81.26 73.175C80.3433 73.9583 78.935 74.35 77.035 74.35C76.185 74.35 75.41 74.2583 74.71 74.075C74.3266 74.325 74.135 74.675 74.135 75.125C74.135 75.4417 74.2516 75.6917 74.485 75.875C74.735 76.0417 75.1433 76.125 75.71 76.125H79.51C81.11 76.125 82.2683 76.4583 82.985 77.125C83.7183 77.7917 84.085 78.7333 84.085 79.95ZM80.61 80.45C80.61 80.0667 80.46 79.775 80.16 79.575C79.86 79.375 79.335 79.275 78.585 79.275H74.085C73.9183 79.4417 73.7933 79.625 73.71 79.825C73.6433 80.0417 73.61 80.25 73.61 80.45C73.61 80.9333 73.8183 81.2833 74.235 81.5C74.6516 81.7333 75.36 81.85 76.36 81.85H77.86C78.86 81.85 79.5683 81.7333 79.985 81.5C80.4016 81.2833 80.61 80.9333 80.61 80.45ZM77.035 71.925C77.7683 71.925 78.31 71.775 78.66 71.475C79.0266 71.1583 79.21 70.7083 79.21 70.125V69.825C79.21 69.2417 79.0266 68.8 78.66 68.5C78.31 68.1833 77.7683 68.025 77.035 68.025C76.3016 68.025 75.7516 68.1833 75.385 68.5C75.035 68.8 74.86 69.2417 74.86 69.825V70.125C74.86 70.7083 75.035 71.1583 75.385 71.475C75.7516 71.775 76.3016 71.925 77.035 71.925ZM91.0574 79.3C90.0574 79.3 89.1658 79.1417 88.3824 78.825C87.5991 78.4917 86.9324 78.0333 86.3824 77.45C85.8491 76.85 85.4408 76.125 85.1574 75.275C84.8908 74.425 84.7574 73.475 84.7574 72.425C84.7574 71.3917 84.8908 70.4583 85.1574 69.625C85.4241 68.775 85.8158 68.05 86.3324 67.45C86.8658 66.85 87.5158 66.3917 88.2824 66.075C89.0491 65.7417 89.9241 65.575 90.9074 65.575C91.9908 65.575 92.9158 65.7583 93.6824 66.125C94.4658 66.4917 95.0991 66.9833 95.5824 67.6C96.0824 68.2167 96.4408 68.9333 96.6574 69.75C96.8908 70.55 97.0074 71.3917 97.0074 72.275V73.375H88.5824V73.575C88.5824 74.4417 88.8158 75.1333 89.2824 75.65C89.7491 76.15 90.4824 76.4 91.4824 76.4C92.2491 76.4 92.8741 76.25 93.3574 75.95C93.8408 75.6333 94.2908 75.2583 94.7074 74.825L96.5574 77.125C95.9741 77.8083 95.2074 78.3417 94.2574 78.725C93.3241 79.1083 92.2574 79.3 91.0574 79.3ZM90.9824 68.3C90.2324 68.3 89.6408 68.55 89.2074 69.05C88.7908 69.5333 88.5824 70.1833 88.5824 71V71.2H93.1824V70.975C93.1824 70.175 92.9991 69.5333 92.6324 69.05C92.2824 68.55 91.7324 68.3 90.9824 68.3ZM99.6205 79V65.875H103.321V68.725H103.446C103.512 68.3583 103.629 68.0083 103.796 67.675C103.962 67.325 104.179 67.0167 104.446 66.75C104.729 66.4833 105.062 66.275 105.446 66.125C105.829 65.9583 106.279 65.875 106.796 65.875H107.446V69.325H106.521C105.437 69.325 104.629 69.4667 104.096 69.75C103.579 70.0333 103.321 70.5583 103.321 71.325V79H99.6205ZM118.436 79L114.136 65.875H117.786L119.411 71.175L120.636 75.925H120.836L122.061 71.175L123.636 65.875H127.136L122.836 79H118.436ZM130.938 64.475C130.188 64.475 129.638 64.3083 129.288 63.975C128.955 63.625 128.788 63.1833 128.788 62.65V62.1C128.788 61.5667 128.955 61.1333 129.288 60.8C129.638 60.45 130.188 60.275 130.938 60.275C131.688 60.275 132.23 60.45 132.563 60.8C132.913 61.1333 133.088 61.5667 133.088 62.1V62.65C133.088 63.1833 132.913 63.625 132.563 63.975C132.23 64.3083 131.688 64.475 130.938 64.475ZM129.088 65.875H132.788V79H129.088V65.875ZM147.45 79.3C146.466 79.3 145.591 79.1417 144.825 78.825C144.058 78.4917 143.416 78.0333 142.9 77.45C142.383 76.85 141.991 76.125 141.725 75.275C141.458 74.425 141.325 73.475 141.325 72.425C141.325 71.375 141.458 70.4333 141.725 69.6C141.991 68.75 142.383 68.025 142.9 67.425C143.416 66.825 144.058 66.3667 144.825 66.05C145.591 65.7333 146.466 65.575 147.45 65.575C148.783 65.575 149.891 65.875 150.775 66.475C151.675 67.075 152.316 67.9167 152.7 69L149.7 70.3C149.583 69.8 149.341 69.375 148.975 69.025C148.608 68.675 148.1 68.5 147.45 68.5C146.7 68.5 146.133 68.75 145.75 69.25C145.366 69.7333 145.175 70.3917 145.175 71.225V73.675C145.175 74.5083 145.366 75.1667 145.75 75.65C146.133 76.1333 146.7 76.375 147.45 76.375C148.116 76.375 148.641 76.2 149.025 75.85C149.425 75.4833 149.716 75.0083 149.9 74.425L152.775 75.675C152.341 76.925 151.666 77.8417 150.75 78.425C149.85 79.0083 148.75 79.3 147.45 79.3ZM163.09 65.875H166.54L161.49 81.025C161.157 82.0417 160.682 82.7917 160.065 83.275C159.465 83.7583 158.598 84 157.465 84H155.165V81.125H157.64L158.09 79.675L153.49 65.875H157.165L159.09 72L160.04 75.8H160.19L161.165 72L163.09 65.875ZM168.419 60.5H172.119V71.425H172.269L173.894 69L176.519 65.875H180.619L176.244 70.9L181.119 79H176.719L173.769 73.45L172.119 75.3V79H168.419V60.5ZM186.523 79C185.256 79 184.323 78.6917 183.723 78.075C183.14 77.4583 182.848 76.5667 182.848 75.4V60.5H186.548V76.125H188.198V79H186.523ZM195.891 79.3C194.891 79.3 194 79.1417 193.216 78.825C192.433 78.4917 191.766 78.0333 191.216 77.45C190.683 76.85 190.275 76.125 189.991 75.275C189.725 74.425 189.591 73.475 189.591 72.425C189.591 71.3917 189.725 70.4583 189.991 69.625C190.258 68.775 190.65 68.05 191.166 67.45C191.7 66.85 192.35 66.3917 193.116 66.075C193.883 65.7417 194.758 65.575 195.741 65.575C196.825 65.575 197.75 65.7583 198.516 66.125C199.3 66.4917 199.933 66.9833 200.416 67.6C200.916 68.2167 201.275 68.9333 201.491 69.75C201.725 70.55 201.841 71.3917 201.841 72.275V73.375H193.416V73.575C193.416 74.4417 193.65 75.1333 194.116 75.65C194.583 76.15 195.316 76.4 196.316 76.4C197.083 76.4 197.708 76.25 198.191 75.95C198.675 75.6333 199.125 75.2583 199.541 74.825L201.391 77.125C200.808 77.8083 200.041 78.3417 199.091 78.725C198.158 79.1083 197.091 79.3 195.891 79.3ZM195.816 68.3C195.066 68.3 194.475 68.55 194.041 69.05C193.625 69.5333 193.416 70.1833 193.416 71V71.2H198.016V70.975C198.016 70.175 197.833 69.5333 197.466 69.05C197.116 68.55 196.566 68.3 195.816 68.3ZM204.454 79V65.875H208.154V68.1H208.304C208.538 67.4167 208.946 66.825 209.529 66.325C210.113 65.825 210.921 65.575 211.954 65.575C213.304 65.575 214.321 66.025 215.004 66.925C215.704 67.825 216.054 69.1083 216.054 70.775V79H212.354V71.075C212.354 70.225 212.221 69.6 211.954 69.2C211.688 68.7833 211.213 68.575 210.529 68.575C210.229 68.575 209.938 68.6167 209.654 68.7C209.371 68.7667 209.113 68.8833 208.879 69.05C208.663 69.2167 208.488 69.425 208.354 69.675C208.221 69.9083 208.154 70.1833 208.154 70.5V79H204.454ZM221.572 73.175V69.35C222.889 69.3 223.872 69.0833 224.522 68.7C225.189 68.3 225.522 67.6333 225.522 66.7V66.35C225.522 65.7167 225.33 65.2333 224.947 64.9C224.58 64.5667 224.097 64.4 223.497 64.4C222.847 64.4 222.305 64.6 221.872 65C221.455 65.4 221.172 65.9083 221.022 66.525L217.972 65.25C218.122 64.75 218.339 64.2667 218.622 63.8C218.905 63.3167 219.272 62.8917 219.722 62.525C220.189 62.1417 220.739 61.8333 221.372 61.6C222.022 61.3667 222.772 61.25 223.622 61.25C224.489 61.25 225.28 61.375 225.997 61.625C226.714 61.875 227.33 62.225 227.847 62.675C228.364 63.125 228.755 63.6667 229.022 64.3C229.305 64.9333 229.447 65.6333 229.447 66.4C229.447 67.1 229.33 67.7333 229.097 68.3C228.864 68.8667 228.547 69.3667 228.147 69.8C227.747 70.2167 227.28 70.5583 226.747 70.825C226.214 71.0917 225.655 71.275 225.072 71.375V73.175H221.572ZM223.372 79.3C222.572 79.3 221.997 79.1167 221.647 78.75C221.314 78.3833 221.147 77.9333 221.147 77.4V76.8C221.147 76.2667 221.314 75.8167 221.647 75.45C221.997 75.0833 222.572 74.9 223.372 74.9C224.172 74.9 224.739 75.0833 225.072 75.45C225.422 75.8167 225.597 76.2667 225.597 76.8V77.4C225.597 77.9333 225.422 78.3833 225.072 78.75C224.739 79.1167 224.172 79.3 223.372 79.3Z" fill="white"/>
<g clip-path="url(#clip1)">
<path d="M121.978 257.601C120.177 257.601 118.451 257.977 116.912 258.617C116.5 257.263 116.124 255.871 115.787 254.442C115.824 254.179 115.787 253.916 115.599 253.69C113.572 244.778 113.047 236.016 113.047 235.865C113.047 235.564 112.859 235.301 112.597 235.113C112.334 234.925 112.034 234.925 111.734 235.038L103.515 238.498C103.028 238.686 102.802 239.25 103.028 239.739C103.215 240.227 103.778 240.453 104.266 240.227L111.283 237.294C111.433 239.062 111.734 242.409 112.334 246.357C112.334 246.357 112.297 246.357 112.297 246.395L95.4847 262.941L87.6042 245.041H91.0566C91.582 245.041 91.9948 244.627 91.9948 244.101C91.9948 243.574 91.582 243.161 91.0566 243.161H81.3372C80.8119 243.161 80.3991 243.574 80.3991 244.101C80.3991 244.627 80.8119 245.041 81.3372 245.041H85.4652L86.7411 247.899L84.0392 254.931C82.3129 254.33 80.4741 253.991 78.5603 253.991C72.5936 253.991 67.0397 257.225 64.1126 262.452C63.8499 262.904 64.0376 263.468 64.4879 263.731C64.638 263.806 64.7881 263.844 64.9382 263.844C65.2759 263.844 65.5761 263.656 65.7638 263.355C68.3531 258.729 73.2691 255.834 78.5603 255.834C80.2115 255.834 81.8251 256.097 83.3261 256.624L82.8008 257.94C81.4874 257.488 80.0613 257.225 78.5603 257.225C71.2426 257.225 65.2759 263.204 65.2759 270.538C65.2759 277.871 71.2426 283.85 78.5603 283.85C85.2775 283.85 90.8314 278.848 91.7321 272.38H94.4715C95.1094 273.508 96.3478 274.298 97.7363 274.298C99.8003 274.298 101.489 272.606 101.489 270.538C101.489 270.199 101.451 269.898 101.376 269.597L114.21 256.097C114.473 257.188 114.811 258.278 115.111 259.331C111.358 261.625 108.844 265.762 108.844 270.5C108.844 277.72 114.698 283.587 121.903 283.587C129.108 283.587 134.963 277.72 134.963 270.5C134.963 263.28 129.146 257.601 121.978 257.601ZM78.5978 282.12C72.2934 282.12 67.1898 276.968 67.1898 270.688C67.1898 264.408 72.3309 259.256 78.5978 259.256C79.8362 259.256 81.037 259.444 82.1628 259.82L77.7347 271.214C77.6221 271.515 77.6597 271.816 77.8473 272.079C78.0349 272.343 78.2976 272.493 78.6353 272.493H89.8933C88.9926 277.946 84.2643 282.12 78.5978 282.12ZM83.889 260.534C87.5291 262.452 90.0059 266.251 90.0434 270.65H79.9863L83.889 260.534ZM94.0587 270.613H91.9197C91.9197 265.423 88.9176 260.948 84.602 258.729L85.1274 257.413C85.7278 257.714 86.2907 258.015 86.8161 258.391C87.2289 258.692 87.8293 258.579 88.1295 258.128C88.4297 257.714 88.3172 257.112 87.8668 256.812C87.1538 256.435 86.4784 256.022 85.7654 255.683L87.8293 250.381L95.4847 267.717C94.6216 268.394 94.0587 269.447 94.0587 270.613ZM97.8113 272.531C96.7606 272.531 95.935 271.703 95.935 270.65C95.935 269.597 96.7606 268.77 97.8113 268.77C98.8621 268.77 99.6877 269.597 99.6877 270.65C99.6877 271.703 98.8246 272.531 97.8113 272.531ZM100.476 268.018C99.8003 267.341 98.8621 266.89 97.8113 266.89C97.6237 266.89 97.3986 266.927 97.2109 266.927L96.2352 264.746L112.634 248.614C112.934 250.343 113.272 252.186 113.723 254.029L100.476 268.018ZM121.978 281.857C115.824 281.857 110.795 276.818 110.795 270.65C110.795 266.777 112.784 263.317 115.787 261.324C117.175 265.31 118.976 268.921 121.303 271.327C121.491 271.515 121.716 271.628 121.978 271.628C122.204 271.628 122.466 271.553 122.616 271.365C122.992 270.989 122.992 270.425 122.654 270.049C120.477 267.792 118.789 264.333 117.475 260.459C118.864 259.858 120.365 259.519 121.978 259.519C128.133 259.519 133.161 264.558 133.161 270.726C133.161 276.893 128.133 281.857 121.978 281.857Z" fill="#CCEBC5"/>
</g>
<path d="M170.288 251H156.736V247.584L162.868 242.208C163.913 241.293 164.679 240.472 165.164 239.744C165.649 238.997 165.892 238.195 165.892 237.336V236.972C165.892 236.113 165.612 235.46 165.052 235.012C164.492 234.545 163.811 234.312 163.008 234.312C162 234.312 161.235 234.601 160.712 235.18C160.189 235.74 159.816 236.421 159.592 237.224L156.4 235.992C156.605 235.339 156.895 234.723 157.268 234.144C157.641 233.547 158.108 233.024 158.668 232.576C159.247 232.128 159.919 231.773 160.684 231.512C161.449 231.251 162.327 231.12 163.316 231.12C164.343 231.12 165.257 231.269 166.06 231.568C166.863 231.848 167.535 232.249 168.076 232.772C168.636 233.295 169.056 233.911 169.336 234.62C169.635 235.329 169.784 236.104 169.784 236.944C169.784 237.765 169.653 238.512 169.392 239.184C169.131 239.856 168.776 240.5 168.328 241.116C167.88 241.713 167.357 242.292 166.76 242.852C166.163 243.393 165.528 243.944 164.856 244.504L160.74 247.892H170.288V251ZM180.273 251.336C179.153 251.336 178.154 251.159 177.277 250.804C176.4 250.431 175.653 249.917 175.037 249.264C174.421 248.592 173.954 247.789 173.637 246.856C173.32 245.904 173.161 244.84 173.161 243.664C173.161 242.264 173.366 240.948 173.777 239.716C174.206 238.465 174.757 237.327 175.429 236.3C176.101 235.255 176.848 234.331 177.669 233.528C178.509 232.707 179.34 232.016 180.161 231.456H185.145C183.988 232.277 182.952 233.071 182.037 233.836C181.141 234.601 180.348 235.376 179.657 236.16C178.985 236.944 178.425 237.765 177.977 238.624C177.548 239.464 177.221 240.379 176.997 241.368L177.221 241.424C177.408 241.051 177.622 240.696 177.865 240.36C178.126 240.005 178.434 239.697 178.789 239.436C179.144 239.156 179.554 238.941 180.021 238.792C180.488 238.624 181.029 238.54 181.645 238.54C182.448 238.54 183.194 238.68 183.885 238.96C184.594 239.24 185.201 239.651 185.705 240.192C186.228 240.715 186.629 241.349 186.909 242.096C187.208 242.843 187.357 243.673 187.357 244.588C187.357 245.577 187.189 246.483 186.853 247.304C186.517 248.125 186.041 248.835 185.425 249.432C184.809 250.029 184.062 250.496 183.185 250.832C182.326 251.168 181.356 251.336 180.273 251.336ZM180.273 248.424C181.3 248.424 182.102 248.144 182.681 247.584C183.278 247.005 183.577 246.184 183.577 245.12V244.7C183.577 243.636 183.278 242.824 182.681 242.264C182.102 241.685 181.3 241.396 180.273 241.396C179.228 241.396 178.416 241.685 177.837 242.264C177.258 242.824 176.969 243.636 176.969 244.7V245.12C176.969 246.184 177.258 247.005 177.837 247.584C178.416 248.144 179.228 248.424 180.273 248.424ZM193.618 251L207.17 231.456H210.418L196.866 251H193.618ZM194.962 242.208C193.375 242.208 192.162 241.741 191.322 240.808C190.501 239.856 190.09 238.475 190.09 236.664C190.09 234.853 190.501 233.481 191.322 232.548C192.162 231.596 193.375 231.12 194.962 231.12C196.549 231.12 197.753 231.596 198.574 232.548C199.395 233.481 199.806 234.853 199.806 236.664C199.806 238.475 199.395 239.856 198.574 240.808C197.753 241.741 196.549 242.208 194.962 242.208ZM194.962 240.08C196.119 240.08 196.698 239.193 196.698 237.42V235.908C196.698 234.135 196.119 233.248 194.962 233.248C193.805 233.248 193.226 234.135 193.226 235.908V237.42C193.226 239.193 193.805 240.08 194.962 240.08ZM209.074 251.336C207.506 251.336 206.302 250.869 205.462 249.936C204.641 248.984 204.23 247.603 204.23 245.792C204.23 243.981 204.641 242.609 205.462 241.676C206.302 240.724 207.506 240.248 209.074 240.248C210.661 240.248 211.865 240.724 212.686 241.676C213.526 242.609 213.946 243.981 213.946 245.792C213.946 247.603 213.526 248.984 212.686 249.936C211.865 250.869 210.661 251.336 209.074 251.336ZM209.074 249.208C210.231 249.208 210.81 248.321 210.81 246.548V245.036C210.81 243.263 210.231 242.376 209.074 242.376C207.917 242.376 207.338 243.263 207.338 245.036V246.548C207.338 248.321 207.917 249.208 209.074 249.208ZM167.096 278.016H161.104L158.724 283H155L164.688 263.456H179.976V266.732H170.764V271.464H178.912V274.74H170.764V279.724H179.976V283H167.096V278.016ZM166.536 266.732L162.588 274.88H167.096V266.732H166.536ZM183.677 283V268.384H187.261V271.408H187.401C187.495 271.016 187.635 270.643 187.821 270.288C188.027 269.915 188.288 269.588 188.605 269.308C188.923 269.028 189.296 268.804 189.725 268.636C190.173 268.468 190.687 268.384 191.265 268.384H192.049V271.772H190.929C189.716 271.772 188.801 271.949 188.185 272.304C187.569 272.659 187.261 273.237 187.261 274.04V283H183.677ZM196.462 266.256C195.715 266.256 195.174 266.088 194.838 265.752C194.52 265.416 194.362 264.987 194.362 264.464V263.904C194.362 263.381 194.52 262.952 194.838 262.616C195.174 262.28 195.715 262.112 196.462 262.112C197.19 262.112 197.722 262.28 198.058 262.616C198.394 262.952 198.562 263.381 198.562 263.904V264.464C198.562 264.987 198.394 265.416 198.058 265.752C197.722 266.088 197.19 266.256 196.462 266.256ZM194.67 268.384H198.254V283H194.67V268.384ZM202.408 283V268.384H205.992V270.82H206.132C206.431 270.036 206.897 269.383 207.532 268.86C208.185 268.319 209.081 268.048 210.22 268.048C211.732 268.048 212.889 268.543 213.692 269.532C214.495 270.521 214.896 271.931 214.896 273.76V283H211.312V274.124C211.312 273.079 211.125 272.295 210.752 271.772C210.379 271.249 209.763 270.988 208.904 270.988C208.531 270.988 208.167 271.044 207.812 271.156C207.476 271.249 207.168 271.399 206.888 271.604C206.627 271.791 206.412 272.033 206.244 272.332C206.076 272.612 205.992 272.948 205.992 273.34V283H202.408ZM227.941 280.564H227.801C227.54 281.404 227.045 282.076 226.317 282.58C225.589 283.084 224.74 283.336 223.769 283.336C221.921 283.336 220.502 282.673 219.513 281.348C218.542 280.023 218.057 278.128 218.057 275.664C218.057 273.219 218.542 271.343 219.513 270.036C220.502 268.711 221.921 268.048 223.769 268.048C224.74 268.048 225.589 268.3 226.317 268.804C227.045 269.289 227.54 269.952 227.801 270.792H227.941V262.28H231.525V283H227.941V280.564ZM224.917 280.368C225.776 280.368 226.494 280.163 227.073 279.752C227.652 279.341 227.941 278.753 227.941 277.988V273.34C227.941 272.631 227.652 272.061 227.073 271.632C226.494 271.203 225.776 270.988 224.917 270.988C223.984 270.988 223.228 271.305 222.649 271.94C222.089 272.556 221.809 273.387 221.809 274.432V276.952C221.809 277.997 222.089 278.828 222.649 279.444C223.228 280.06 223.984 280.368 224.917 280.368ZM241.566 283.336C240.483 283.336 239.513 283.159 238.654 282.804C237.814 282.431 237.095 281.917 236.498 281.264C235.919 280.592 235.471 279.789 235.154 278.856C234.837 277.904 234.678 276.84 234.678 275.664C234.678 274.507 234.827 273.461 235.126 272.528C235.443 271.595 235.891 270.801 236.47 270.148C237.049 269.476 237.758 268.963 238.598 268.608C239.438 268.235 240.39 268.048 241.454 268.048C242.593 268.048 243.582 268.244 244.422 268.636C245.262 269.028 245.953 269.56 246.494 270.232C247.035 270.904 247.437 271.688 247.698 272.584C247.978 273.461 248.118 274.404 248.118 275.412V276.588H238.402V276.952C238.402 278.016 238.701 278.875 239.298 279.528C239.895 280.163 240.782 280.48 241.958 280.48C242.854 280.48 243.582 280.293 244.142 279.92C244.721 279.547 245.234 279.071 245.682 278.492L247.614 280.648C247.017 281.488 246.195 282.151 245.15 282.636C244.123 283.103 242.929 283.336 241.566 283.336ZM241.51 270.736C240.558 270.736 239.802 271.053 239.242 271.688C238.682 272.323 238.402 273.144 238.402 274.152V274.376H244.394V274.124C244.394 273.116 244.142 272.304 243.638 271.688C243.153 271.053 242.443 270.736 241.51 270.736Z" fill="white"/>
<g clip-path="url(#clip2)">
<path d="M188.737 360.756C190.361 360.756 191.917 361.102 193.304 361.689C193.676 360.445 194.014 359.168 194.319 357.855C194.285 357.613 194.319 357.372 194.488 357.165C196.314 348.98 196.788 340.933 196.788 340.795C196.788 340.518 196.957 340.277 197.194 340.104C197.431 339.931 197.701 339.931 197.972 340.035L205.38 343.212C205.82 343.385 206.023 343.903 205.82 344.352C205.651 344.801 205.143 345.008 204.703 344.801L198.378 342.107C198.243 343.73 197.972 346.804 197.431 350.43C197.431 350.43 197.465 350.43 197.465 350.465L212.619 365.66L219.723 349.221H216.61C216.137 349.221 215.765 348.841 215.765 348.358C215.765 347.874 216.137 347.495 216.61 347.495H225.372C225.845 347.495 226.217 347.874 226.217 348.358C226.217 348.841 225.845 349.221 225.372 349.221H221.651L220.501 351.846L222.936 358.304C224.492 357.752 226.15 357.441 227.875 357.441C233.253 357.441 238.26 360.411 240.898 365.211C241.135 365.626 240.966 366.144 240.56 366.386C240.424 366.455 240.289 366.489 240.154 366.489C239.849 366.489 239.579 366.316 239.41 366.04C237.076 361.792 232.644 359.133 227.875 359.133C226.386 359.133 224.932 359.375 223.579 359.858L224.052 361.067C225.236 360.653 226.522 360.411 227.875 360.411C234.471 360.411 239.849 365.902 239.849 372.637C239.849 379.371 234.471 384.862 227.875 384.862C221.82 384.862 216.813 380.269 216.002 374.329H213.532C212.957 375.365 211.841 376.09 210.589 376.09C208.729 376.09 207.207 374.536 207.207 372.637C207.207 372.326 207.24 372.049 207.308 371.773L195.739 359.375C195.503 360.376 195.198 361.378 194.928 362.345C198.31 364.452 200.577 368.25 200.577 372.602C200.577 379.233 195.3 384.62 188.805 384.62C182.31 384.62 177.033 379.233 177.033 372.602C177.033 365.971 182.276 360.756 188.737 360.756ZM227.841 383.274C233.524 383.274 238.124 378.542 238.124 372.775C238.124 367.007 233.49 362.276 227.841 362.276C226.725 362.276 225.642 362.448 224.627 362.794L228.619 373.258C228.72 373.534 228.687 373.811 228.517 374.052C228.348 374.294 228.112 374.432 227.807 374.432H217.659C218.471 379.44 222.733 383.274 227.841 383.274ZM223.071 363.45C219.79 365.211 217.558 368.699 217.524 372.74H226.589L223.071 363.45ZM213.904 372.706H215.832C215.832 367.94 218.539 363.83 222.429 361.792L221.955 360.584C221.414 360.86 220.906 361.136 220.433 361.481C220.061 361.758 219.52 361.654 219.249 361.24C218.978 360.86 219.08 360.307 219.486 360.031C220.128 359.686 220.737 359.306 221.38 358.995L219.52 354.125L212.619 370.046C213.397 370.668 213.904 371.635 213.904 372.706ZM210.522 374.467C211.469 374.467 212.213 373.707 212.213 372.74C212.213 371.773 211.469 371.013 210.522 371.013C209.575 371.013 208.83 371.773 208.83 372.74C208.83 373.707 209.608 374.467 210.522 374.467ZM208.12 370.323C208.729 369.701 209.575 369.287 210.522 369.287C210.691 369.287 210.894 369.321 211.063 369.321L211.942 367.318L197.16 352.502C196.89 354.091 196.585 355.783 196.179 357.475L208.12 370.323ZM188.737 383.032C194.285 383.032 198.818 378.404 198.818 372.74C198.818 369.183 197.025 366.006 194.319 364.175C193.067 367.836 191.443 371.151 189.346 373.362C189.177 373.534 188.974 373.638 188.737 373.638C188.534 373.638 188.298 373.569 188.162 373.396C187.824 373.051 187.824 372.533 188.128 372.188C190.09 370.115 191.613 366.938 192.797 363.381C191.545 362.828 190.192 362.518 188.737 362.518C183.19 362.518 178.657 367.145 178.657 372.809C178.657 378.473 183.19 383.032 188.737 383.032Z" fill="#CCEBC5"/>
</g>
<path d="M77.288 352H63.736V348.584L69.868 343.208C70.9133 342.293 71.6787 341.472 72.164 340.744C72.6493 339.997 72.892 339.195 72.892 338.336V337.972C72.892 337.113 72.612 336.46 72.052 336.012C71.492 335.545 70.8107 335.312 70.008 335.312C69 335.312 68.2347 335.601 67.712 336.18C67.1893 336.74 66.816 337.421 66.592 338.224L63.4 336.992C63.6053 336.339 63.8947 335.723 64.268 335.144C64.6413 334.547 65.108 334.024 65.668 333.576C66.2467 333.128 66.9187 332.773 67.684 332.512C68.4493 332.251 69.3267 332.12 70.316 332.12C71.3427 332.12 72.2573 332.269 73.06 332.568C73.8627 332.848 74.5347 333.249 75.076 333.772C75.636 334.295 76.056 334.911 76.336 335.62C76.6347 336.329 76.784 337.104 76.784 337.944C76.784 338.765 76.6533 339.512 76.392 340.184C76.1307 340.856 75.776 341.5 75.328 342.116C74.88 342.713 74.3573 343.292 73.76 343.852C73.1627 344.393 72.528 344.944 71.856 345.504L67.74 348.892H77.288V352ZM93.2091 335.648H84.4171L83.9691 342.2H84.1651C84.3704 341.789 84.5944 341.407 84.8371 341.052C85.0797 340.697 85.3597 340.399 85.6771 340.156C85.9944 339.913 86.3584 339.727 86.7691 339.596C87.1984 339.447 87.7117 339.372 88.3091 339.372C89.1491 339.372 89.9331 339.512 90.6611 339.792C91.3891 340.072 92.0144 340.483 92.5371 341.024C93.0784 341.547 93.4984 342.191 93.7971 342.956C94.1144 343.721 94.2731 344.589 94.2731 345.56C94.2731 346.549 94.1144 347.455 93.7971 348.276C93.4797 349.097 93.0131 349.816 92.3971 350.432C91.7811 351.029 91.0251 351.496 90.1291 351.832C89.2331 352.168 88.2064 352.336 87.0491 352.336C86.1531 352.336 85.3504 352.233 84.6411 352.028C83.9317 351.841 83.3064 351.58 82.7651 351.244C82.2237 350.908 81.7571 350.525 81.3651 350.096C80.9731 349.648 80.6277 349.181 80.3291 348.696L83.0171 346.624C83.2411 346.997 83.4744 347.352 83.7171 347.688C83.9597 348.005 84.2397 348.285 84.5571 348.528C84.8931 348.771 85.2571 348.967 85.6491 349.116C86.0597 349.247 86.5357 349.312 87.0771 349.312C88.1784 349.312 89.0091 349.004 89.5691 348.388C90.1477 347.772 90.4371 346.932 90.4371 345.868V345.644C90.4371 344.636 90.1477 343.843 89.5691 343.264C88.9904 342.685 88.1877 342.396 87.1611 342.396C86.3584 342.396 85.7051 342.555 85.2011 342.872C84.6971 343.171 84.2957 343.497 83.9971 343.852L80.9731 343.432L81.7011 332.456H93.2091V335.648ZM100.618 352L114.17 332.456H117.418L103.866 352H100.618ZM101.962 343.208C100.375 343.208 99.1621 342.741 98.3221 341.808C97.5008 340.856 97.0901 339.475 97.0901 337.664C97.0901 335.853 97.5008 334.481 98.3221 333.548C99.1621 332.596 100.375 332.12 101.962 332.12C103.549 332.12 104.753 332.596 105.574 333.548C106.395 334.481 106.806 335.853 106.806 337.664C106.806 339.475 106.395 340.856 105.574 341.808C104.753 342.741 103.549 343.208 101.962 343.208ZM101.962 341.08C103.119 341.08 103.698 340.193 103.698 338.42V336.908C103.698 335.135 103.119 334.248 101.962 334.248C100.805 334.248 100.226 335.135 100.226 336.908V338.42C100.226 340.193 100.805 341.08 101.962 341.08ZM116.074 352.336C114.506 352.336 113.302 351.869 112.462 350.936C111.641 349.984 111.23 348.603 111.23 346.792C111.23 344.981 111.641 343.609 112.462 342.676C113.302 341.724 114.506 341.248 116.074 341.248C117.661 341.248 118.865 341.724 119.686 342.676C120.526 343.609 120.946 344.981 120.946 346.792C120.946 348.603 120.526 349.984 119.686 350.936C118.865 351.869 117.661 352.336 116.074 352.336ZM116.074 350.208C117.231 350.208 117.81 349.321 117.81 347.548V346.036C117.81 344.263 117.231 343.376 116.074 343.376C114.917 343.376 114.338 344.263 114.338 346.036V347.548C114.338 349.321 114.917 350.208 116.074 350.208ZM76.392 384L74.824 379.016H67.88L66.34 384H62.588L69.14 364.456H73.732L80.228 384H76.392ZM71.408 367.816H71.268L68.776 375.852H73.928L71.408 367.816ZM82.8845 384V369.384H86.4685V372.408H86.6085C86.7018 372.016 86.8418 371.643 87.0285 371.288C87.2338 370.915 87.4952 370.588 87.8125 370.308C88.1298 370.028 88.5032 369.804 88.9325 369.636C89.3805 369.468 89.8938 369.384 90.4725 369.384H91.2565V372.772H90.1365C88.9232 372.772 88.0085 372.949 87.3925 373.304C86.7765 373.659 86.4685 374.237 86.4685 375.04V384H82.8845ZM93.8767 363.28H97.4607V371.792H97.5727C97.834 370.952 98.3287 370.289 99.0567 369.804C99.7847 369.3 100.634 369.048 101.605 369.048C103.471 369.048 104.89 369.711 105.861 371.036C106.85 372.343 107.345 374.219 107.345 376.664C107.345 379.128 106.85 381.023 105.861 382.348C104.89 383.673 103.471 384.336 101.605 384.336C100.634 384.336 99.7847 384.084 99.0567 383.58C98.3474 383.076 97.8527 382.404 97.5727 381.564H97.4607V384H93.8767V363.28ZM100.457 381.368C101.39 381.368 102.146 381.06 102.725 380.444C103.303 379.828 103.593 378.997 103.593 377.952V375.432C103.593 374.387 103.303 373.556 102.725 372.94C102.146 372.305 101.39 371.988 100.457 371.988C99.598 371.988 98.8794 372.203 98.3007 372.632C97.7407 373.061 97.4607 373.631 97.4607 374.34V378.988C97.4607 379.753 97.7407 380.341 98.3007 380.752C98.8794 381.163 99.598 381.368 100.457 381.368ZM116.574 384.336C115.491 384.336 114.52 384.159 113.662 383.804C112.822 383.431 112.103 382.917 111.506 382.264C110.927 381.592 110.479 380.789 110.162 379.856C109.844 378.904 109.686 377.84 109.686 376.664C109.686 375.507 109.835 374.461 110.134 373.528C110.451 372.595 110.899 371.801 111.478 371.148C112.056 370.476 112.766 369.963 113.606 369.608C114.446 369.235 115.398 369.048 116.462 369.048C117.6 369.048 118.59 369.244 119.43 369.636C120.27 370.028 120.96 370.56 121.502 371.232C122.043 371.904 122.444 372.688 122.706 373.584C122.986 374.461 123.126 375.404 123.126 376.412V377.588H113.41V377.952C113.41 379.016 113.708 379.875 114.306 380.528C114.903 381.163 115.79 381.48 116.966 381.48C117.862 381.48 118.59 381.293 119.15 380.92C119.728 380.547 120.242 380.071 120.69 379.492L122.622 381.648C122.024 382.488 121.203 383.151 120.158 383.636C119.131 384.103 117.936 384.336 116.574 384.336ZM116.518 371.736C115.566 371.736 114.81 372.053 114.25 372.688C113.69 373.323 113.41 374.144 113.41 375.152V375.376H119.402V375.124C119.402 374.116 119.15 373.304 118.646 372.688C118.16 372.053 117.451 371.736 116.518 371.736ZM126.279 369.384H129.863V385.764C129.863 386.996 129.555 387.939 128.939 388.592C128.323 389.264 127.343 389.6 125.999 389.6H124.039V386.744H126.279V369.384ZM128.071 367.256C127.324 367.256 126.783 367.088 126.447 366.752C126.13 366.416 125.971 365.987 125.971 365.464V364.904C125.971 364.381 126.13 363.952 126.447 363.616C126.783 363.28 127.324 363.112 128.071 363.112C128.799 363.112 129.331 363.28 129.667 363.616C130.003 363.952 130.171 364.381 130.171 364.904V365.464C130.171 365.987 130.003 366.416 129.667 366.752C129.331 367.088 128.799 367.256 128.071 367.256ZM143.089 381.564H142.949C142.688 382.404 142.193 383.076 141.465 383.58C140.737 384.084 139.888 384.336 138.917 384.336C137.069 384.336 135.651 383.673 134.661 382.348C133.691 381.023 133.205 379.128 133.205 376.664C133.205 374.219 133.691 372.343 134.661 371.036C135.651 369.711 137.069 369.048 138.917 369.048C139.888 369.048 140.737 369.3 141.465 369.804C142.193 370.289 142.688 370.952 142.949 371.792H143.089V363.28H146.673V384H143.089V381.564ZM140.065 381.368C140.924 381.368 141.643 381.163 142.221 380.752C142.8 380.341 143.089 379.753 143.089 378.988V374.34C143.089 373.631 142.8 373.061 142.221 372.632C141.643 372.203 140.924 371.988 140.065 371.988C139.132 371.988 138.376 372.305 137.797 372.94C137.237 373.556 136.957 374.387 136.957 375.432V377.952C136.957 378.997 137.237 379.828 137.797 380.444C138.376 381.06 139.132 381.368 140.065 381.368ZM156.714 384.336C155.632 384.336 154.661 384.159 153.802 383.804C152.962 383.431 152.244 382.917 151.646 382.264C151.068 381.592 150.62 380.789 150.302 379.856C149.985 378.904 149.826 377.84 149.826 376.664C149.826 375.507 149.976 374.461 150.274 373.528C150.592 372.595 151.04 371.801 151.618 371.148C152.197 370.476 152.906 369.963 153.746 369.608C154.586 369.235 155.538 369.048 156.602 369.048C157.741 369.048 158.73 369.244 159.57 369.636C160.41 370.028 161.101 370.56 161.642 371.232C162.184 371.904 162.585 372.688 162.846 373.584C163.126 374.461 163.266 375.404 163.266 376.412V377.588H153.55V377.952C153.55 379.016 153.849 379.875 154.446 380.528C155.044 381.163 155.93 381.48 157.106 381.48C158.002 381.48 158.73 381.293 159.29 380.92C159.869 380.547 160.382 380.071 160.83 379.492L162.762 381.648C162.165 382.488 161.344 383.151 160.298 383.636C159.272 384.103 158.077 384.336 156.714 384.336ZM156.658 371.736C155.706 371.736 154.95 372.053 154.39 372.688C153.83 373.323 153.55 374.144 153.55 375.152V375.376H159.542V375.124C159.542 374.116 159.29 373.304 158.786 372.688C158.301 372.053 157.592 371.736 156.658 371.736Z" fill="white"/>
<g clip-path="url(#clip3)">
<path d="M104.097 461.068C102.727 461.068 101.414 461.352 100.243 461.834C99.9295 460.812 99.6441 459.761 99.3872 458.682C99.4158 458.484 99.3872 458.285 99.2445 458.114C97.7033 451.385 97.3037 444.768 97.3037 444.655C97.3037 444.427 97.161 444.229 96.9612 444.087C96.7614 443.945 96.5331 443.945 96.3048 444.03L90.0542 446.642C89.6832 446.784 89.5119 447.21 89.6832 447.579C89.8259 447.949 90.254 448.119 90.6251 447.949L95.9623 445.734C96.0764 447.068 96.3048 449.596 96.7614 452.577C96.7614 452.577 96.7329 452.577 96.7329 452.606L83.9464 465.1L77.9528 451.583H80.5785C80.9781 451.583 81.2921 451.271 81.2921 450.873C81.2921 450.476 80.9781 450.163 80.5785 450.163H73.1864C72.7868 450.163 72.4728 450.476 72.4728 450.873C72.4728 451.271 72.7868 451.583 73.1864 451.583H76.3259L77.2963 453.741L75.2413 459.051C73.9284 458.597 72.5299 458.342 71.0743 458.342C66.5363 458.342 62.3122 460.784 60.0859 464.731C59.8862 465.071 60.0289 465.497 60.3714 465.696C60.4855 465.753 60.5997 465.781 60.7139 465.781C60.9707 465.781 61.1991 465.639 61.3418 465.412C63.3111 461.919 67.05 459.733 71.0743 459.733C72.3301 459.733 73.5574 459.932 74.6991 460.329L74.2995 461.323C73.3005 460.982 72.216 460.784 71.0743 460.784C65.5088 460.784 60.9707 465.299 60.9707 470.836C60.9707 476.373 65.5088 480.888 71.0743 480.888C76.1832 480.888 80.4073 477.111 81.0923 472.227H83.1758C83.661 473.079 84.6029 473.675 85.6589 473.675C87.2287 473.675 88.513 472.398 88.513 470.836C88.513 470.58 88.4845 470.353 88.4274 470.126L98.1885 459.932C98.3883 460.755 98.6451 461.579 98.8735 462.374C96.0193 464.106 94.1071 467.229 94.1071 470.807C94.1071 476.259 98.5595 480.689 104.039 480.689C109.519 480.689 113.972 476.259 113.972 470.807C113.972 465.355 109.548 461.068 104.097 461.068ZM71.1029 479.582C66.3079 479.582 62.4263 475.691 62.4263 470.949C62.4263 466.207 66.3365 462.317 71.1029 462.317C72.0447 462.317 72.958 462.459 73.8143 462.743L70.4464 471.347C70.3608 471.574 70.3893 471.801 70.532 472C70.6747 472.199 70.8745 472.312 71.1314 472.312H79.6938C79.0088 476.43 75.4126 479.582 71.1029 479.582ZM75.1272 463.282C77.8957 464.731 79.7794 467.599 79.8079 470.921H72.1589L75.1272 463.282ZM82.8618 470.893H81.235C81.235 466.974 78.9517 463.595 75.6695 461.919L76.069 460.926C76.5257 461.153 76.9538 461.38 77.3534 461.664C77.6673 461.891 78.124 461.806 78.3523 461.465C78.5807 461.153 78.495 460.698 78.1525 460.471C77.6103 460.187 77.0965 459.875 76.5542 459.619L78.124 455.616L83.9464 468.706C83.29 469.217 82.8618 470.012 82.8618 470.893ZM85.716 472.341C84.9168 472.341 84.2889 471.716 84.2889 470.921C84.2889 470.126 84.9168 469.501 85.716 469.501C86.5151 469.501 87.143 470.126 87.143 470.921C87.143 471.716 86.4866 472.341 85.716 472.341ZM87.7424 468.933C87.2287 468.422 86.5151 468.081 85.716 468.081C85.5733 468.081 85.402 468.11 85.2593 468.11L84.5172 466.463L96.9897 454.281C97.2181 455.587 97.4749 456.979 97.8174 458.37L87.7424 468.933ZM104.097 479.383C99.4158 479.383 95.5912 475.578 95.5912 470.921C95.5912 467.996 97.1039 465.384 99.3872 463.879C100.443 466.889 101.813 469.615 103.583 471.432C103.725 471.574 103.897 471.659 104.097 471.659C104.268 471.659 104.468 471.602 104.582 471.46C104.867 471.177 104.867 470.751 104.61 470.467C102.955 468.763 101.671 466.15 100.672 463.226C101.728 462.771 102.869 462.516 104.097 462.516C108.777 462.516 112.602 466.321 112.602 470.978C112.602 475.635 108.777 479.383 104.097 479.383Z" fill="#CCEBC5"/>
</g>
<path d="M129.184 451V448.432H133.792V436.528H133.576L129.928 440.848L127.96 439.192L132.112 434.248H136.888V448.432H140.728V451H129.184ZM149.743 451V447.76H142.159V445.072L148.831 434.248H152.743V445.312H154.927V447.76H152.743V451H149.743ZM144.751 445.312H149.743V437.32H149.551L144.751 445.312ZM160.101 451L171.717 434.248H174.501L162.885 451H160.101ZM161.253 443.464C159.893 443.464 158.853 443.064 158.133 442.264C157.429 441.448 157.077 440.264 157.077 438.712C157.077 437.16 157.429 435.984 158.133 435.184C158.853 434.368 159.893 433.96 161.253 433.96C162.613 433.96 163.645 434.368 164.349 435.184C165.053 435.984 165.405 437.16 165.405 438.712C165.405 440.264 165.053 441.448 164.349 442.264C163.645 443.064 162.613 443.464 161.253 443.464ZM161.253 441.64C162.245 441.64 162.741 440.88 162.741 439.36V438.064C162.741 436.544 162.245 435.784 161.253 435.784C160.261 435.784 159.765 436.544 159.765 438.064V439.36C159.765 440.88 160.261 441.64 161.253 441.64ZM173.349 451.288C172.005 451.288 170.973 450.888 170.253 450.088C169.549 449.272 169.197 448.088 169.197 446.536C169.197 444.984 169.549 443.808 170.253 443.008C170.973 442.192 172.005 441.784 173.349 441.784C174.709 441.784 175.741 442.192 176.445 443.008C177.165 443.808 177.525 444.984 177.525 446.536C177.525 448.088 177.165 449.272 176.445 450.088C175.741 450.888 174.709 451.288 173.349 451.288ZM173.349 449.464C174.341 449.464 174.837 448.704 174.837 447.184V445.888C174.837 444.368 174.341 443.608 173.349 443.608C172.357 443.608 171.861 444.368 171.861 445.888V447.184C171.861 448.704 172.357 449.464 173.349 449.464ZM131.968 462.248V472.544C131.968 473.856 132.216 474.84 132.712 475.496C133.224 476.152 134.08 476.48 135.28 476.48C136.48 476.48 137.328 476.152 137.824 475.496C138.336 474.84 138.592 473.856 138.592 472.544V462.248H141.712V472.136C141.712 473.368 141.592 474.432 141.352 475.328C141.128 476.224 140.76 476.968 140.248 477.56C139.736 478.152 139.064 478.592 138.232 478.88C137.416 479.152 136.424 479.288 135.256 479.288C134.072 479.288 133.072 479.152 132.256 478.88C131.456 478.592 130.8 478.152 130.288 477.56C129.776 476.968 129.408 476.224 129.184 475.328C128.96 474.432 128.848 473.368 128.848 472.136V462.248H131.968ZM153.122 476.912H153.002C152.778 477.632 152.354 478.208 151.73 478.64C151.106 479.072 150.378 479.288 149.546 479.288C147.962 479.288 146.746 478.72 145.898 477.584C145.066 476.448 144.65 474.824 144.65 472.712C144.65 470.616 145.066 469.008 145.898 467.888C146.746 466.752 147.962 466.184 149.546 466.184C150.378 466.184 151.106 466.4 151.73 466.832C152.354 467.248 152.778 467.816 153.002 468.536H153.122V461.24H156.194V479H153.122V476.912ZM150.53 476.744C151.266 476.744 151.882 476.568 152.378 476.216C152.874 475.864 153.122 475.36 153.122 474.704V470.72C153.122 470.112 152.874 469.624 152.378 469.256C151.882 468.888 151.266 468.704 150.53 468.704C149.73 468.704 149.082 468.976 148.586 469.52C148.106 470.048 147.866 470.76 147.866 471.656V473.816C147.866 474.712 148.106 475.424 148.586 475.952C149.082 476.48 149.73 476.744 150.53 476.744ZM167.513 476.912H167.393C167.169 477.632 166.745 478.208 166.121 478.64C165.497 479.072 164.769 479.288 163.937 479.288C162.353 479.288 161.137 478.72 160.289 477.584C159.457 476.448 159.041 474.824 159.041 472.712C159.041 470.616 159.457 469.008 160.289 467.888C161.137 466.752 162.353 466.184 163.937 466.184C164.769 466.184 165.497 466.4 166.121 466.832C166.745 467.248 167.169 467.816 167.393 468.536H167.513V461.24H170.585V479H167.513V476.912ZM164.921 476.744C165.657 476.744 166.273 476.568 166.769 476.216C167.265 475.864 167.513 475.36 167.513 474.704V470.72C167.513 470.112 167.265 469.624 166.769 469.256C166.273 468.888 165.657 468.704 164.921 468.704C164.121 468.704 163.473 468.976 162.977 469.52C162.497 470.048 162.257 470.76 162.257 471.656V473.816C162.257 474.712 162.497 475.424 162.977 475.952C163.473 476.48 164.121 476.744 164.921 476.744ZM183.344 479C182.672 479 182.136 478.808 181.736 478.424C181.352 478.024 181.112 477.496 181.016 476.84H180.872C180.664 477.656 180.24 478.272 179.6 478.688C178.96 479.088 178.168 479.288 177.224 479.288C175.944 479.288 174.96 478.952 174.272 478.28C173.584 477.608 173.24 476.712 173.24 475.592C173.24 474.296 173.704 473.336 174.632 472.712C175.56 472.072 176.88 471.752 178.592 471.752H180.728V470.84C180.728 470.136 180.544 469.592 180.176 469.208C179.808 468.824 179.216 468.632 178.4 468.632C177.68 468.632 177.096 468.792 176.648 469.112C176.216 469.416 175.848 469.784 175.544 470.216L173.72 468.584C174.184 467.864 174.8 467.288 175.568 466.856C176.336 466.408 177.352 466.184 178.616 466.184C180.312 466.184 181.6 466.568 182.48 467.336C183.36 468.104 183.8 469.208 183.8 470.648V476.552H185.048V479H183.344ZM178.256 477.056C178.944 477.056 179.528 476.904 180.008 476.6C180.488 476.296 180.728 475.848 180.728 475.256V473.6H178.76C177.16 473.6 176.36 474.112 176.36 475.136V475.544C176.36 476.056 176.52 476.44 176.84 476.696C177.176 476.936 177.648 477.056 178.256 477.056ZM187.534 479V466.472H190.606V468.56H190.726C190.982 467.888 191.382 467.328 191.926 466.88C192.486 466.416 193.254 466.184 194.23 466.184C195.526 466.184 196.518 466.608 197.206 467.456C197.894 468.304 198.238 469.512 198.238 471.08V479H195.166V471.392C195.166 470.496 195.006 469.824 194.686 469.376C194.366 468.928 193.838 468.704 193.102 468.704C192.782 468.704 192.47 468.752 192.166 468.848C191.878 468.928 191.614 469.056 191.374 469.232C191.15 469.392 190.966 469.6 190.822 469.856C190.678 470.096 190.606 470.384 190.606 470.72V479H187.534ZM201.643 479V466.472H204.715V468.56H204.835C205.091 467.888 205.491 467.328 206.035 466.88C206.595 466.416 207.363 466.184 208.339 466.184C209.635 466.184 210.627 466.608 211.315 467.456C212.003 468.304 212.347 469.512 212.347 471.08V479H209.275V471.392C209.275 470.496 209.115 469.824 208.795 469.376C208.475 468.928 207.947 468.704 207.211 468.704C206.891 468.704 206.579 468.752 206.275 468.848C205.987 468.928 205.723 469.056 205.483 469.232C205.259 469.392 205.075 469.6 204.931 469.856C204.787 470.096 204.715 470.384 204.715 470.72V479H201.643ZM220.817 479.288C219.889 479.288 219.057 479.136 218.321 478.832C217.601 478.512 216.985 478.072 216.473 477.512C215.977 476.936 215.593 476.248 215.321 475.448C215.049 474.632 214.913 473.72 214.913 472.712C214.913 471.72 215.041 470.824 215.297 470.024C215.569 469.224 215.953 468.544 216.449 467.984C216.945 467.408 217.553 466.968 218.273 466.664C218.993 466.344 219.809 466.184 220.721 466.184C221.697 466.184 222.545 466.352 223.265 466.688C223.985 467.024 224.577 467.48 225.041 468.056C225.505 468.632 225.849 469.304 226.073 470.072C226.313 470.824 226.433 471.632 226.433 472.496V473.504H218.105V473.816C218.105 474.728 218.361 475.464 218.873 476.024C219.385 476.568 220.145 476.84 221.153 476.84C221.921 476.84 222.545 476.68 223.025 476.36C223.521 476.04 223.961 475.632 224.345 475.136L226.001 476.984C225.489 477.704 224.785 478.272 223.889 478.688C223.009 479.088 221.985 479.288 220.817 479.288ZM220.769 468.488C219.953 468.488 219.305 468.76 218.825 469.304C218.345 469.848 218.105 470.552 218.105 471.416V471.608H223.241V471.392C223.241 470.528 223.025 469.832 222.593 469.304C222.177 468.76 221.569 468.488 220.769 468.488ZM232.207 479C231.151 479 230.375 478.736 229.879 478.208C229.383 477.68 229.135 476.936 229.135 475.976V461.24H232.207V476.552H233.863V479H232.207ZM240.294 479.288C239.094 479.288 238.086 479.088 237.27 478.688C236.454 478.272 235.734 477.704 235.11 476.984L236.982 475.16C237.446 475.688 237.95 476.104 238.494 476.408C239.054 476.712 239.694 476.864 240.414 476.864C241.15 476.864 241.678 476.736 241.998 476.48C242.334 476.224 242.502 475.872 242.502 475.424C242.502 475.056 242.382 474.768 242.142 474.56C241.918 474.336 241.526 474.184 240.966 474.104L239.718 473.936C238.358 473.76 237.318 473.376 236.598 472.784C235.894 472.176 235.542 471.296 235.542 470.144C235.542 469.536 235.654 468.992 235.878 468.512C236.102 468.016 236.422 467.6 236.838 467.264C237.254 466.912 237.75 466.648 238.326 466.472C238.918 466.28 239.574 466.184 240.294 466.184C240.902 466.184 241.438 466.232 241.902 466.328C242.382 466.408 242.814 466.536 243.198 466.712C243.582 466.872 243.934 467.08 244.254 467.336C244.574 467.576 244.886 467.848 245.19 468.152L243.39 469.952C243.022 469.568 242.582 469.248 242.07 468.992C241.558 468.736 240.998 468.608 240.39 468.608C239.718 468.608 239.23 468.728 238.926 468.968C238.638 469.208 238.494 469.52 238.494 469.904C238.494 470.32 238.614 470.64 238.854 470.864C239.11 471.072 239.534 471.224 240.126 471.32L241.398 471.488C244.102 471.872 245.454 473.104 245.454 475.184C245.454 475.792 245.326 476.352 245.07 476.864C244.83 477.36 244.486 477.792 244.038 478.16C243.59 478.512 243.046 478.792 242.406 479C241.782 479.192 241.078 479.288 240.294 479.288ZM253.231 479.288C252.303 479.288 251.471 479.136 250.735 478.832C250.015 478.512 249.399 478.072 248.887 477.512C248.391 476.936 248.007 476.248 247.735 475.448C247.463 474.632 247.327 473.72 247.327 472.712C247.327 471.72 247.455 470.824 247.711 470.024C247.983 469.224 248.367 468.544 248.863 467.984C249.359 467.408 249.967 466.968 250.687 466.664C251.407 466.344 252.223 466.184 253.135 466.184C254.111 466.184 254.959 466.352 255.679 466.688C256.399 467.024 256.991 467.48 257.455 468.056C257.919 468.632 258.263 469.304 258.487 470.072C258.727 470.824 258.847 471.632 258.847 472.496V473.504H250.519V473.816C250.519 474.728 250.775 475.464 251.287 476.024C251.799 476.568 252.559 476.84 253.567 476.84C254.335 476.84 254.959 476.68 255.439 476.36C255.935 476.04 256.375 475.632 256.759 475.136L258.415 476.984C257.903 477.704 257.199 478.272 256.303 478.688C255.423 479.088 254.399 479.288 253.231 479.288ZM253.183 468.488C252.367 468.488 251.719 468.76 251.239 469.304C250.759 469.848 250.519 470.552 250.519 471.416V471.608H255.655V471.392C255.655 470.528 255.439 469.832 255.007 469.304C254.591 468.76 253.983 468.488 253.183 468.488Z" fill="white"/>
<path d="M71.17 130.44C72.57 130.44 73.5967 130.16 74.25 129.6C74.9267 129.017 75.265 128.282 75.265 127.395V127.15C75.265 126.147 74.9383 125.365 74.285 124.805C73.655 124.222 72.78 123.93 71.66 123.93C70.5867 123.93 69.63 124.187 68.79 124.7C67.9733 125.213 67.2617 125.937 66.655 126.87L63.715 124.21C64.135 123.65 64.59 123.125 65.08 122.635C65.5933 122.122 66.1767 121.69 66.83 121.34C67.4833 120.967 68.2183 120.675 69.035 120.465C69.8517 120.255 70.7733 120.15 71.8 120.15C73.0367 120.15 74.1567 120.302 75.16 120.605C76.1867 120.885 77.0617 121.305 77.785 121.865C78.5317 122.425 79.1033 123.102 79.5 123.895C79.8967 124.665 80.095 125.54 80.095 126.52C80.095 127.313 79.9667 128.025 79.71 128.655C79.4767 129.285 79.1383 129.833 78.695 130.3C78.275 130.767 77.7733 131.152 77.19 131.455C76.63 131.735 76.035 131.945 75.405 132.085V132.295C76.105 132.435 76.77 132.657 77.4 132.96C78.03 133.263 78.5667 133.672 79.01 134.185C79.4767 134.675 79.8383 135.258 80.095 135.935C80.375 136.612 80.515 137.382 80.515 138.245C80.515 139.318 80.2933 140.298 79.85 141.185C79.43 142.072 78.8233 142.83 78.03 143.46C77.2367 144.09 76.2917 144.58 75.195 144.93C74.0983 145.257 72.8733 145.42 71.52 145.42C70.33 145.42 69.28 145.292 68.37 145.035C67.46 144.802 66.655 144.475 65.955 144.055C65.2783 143.635 64.6833 143.157 64.17 142.62C63.6567 142.06 63.2133 141.477 62.84 140.87L66.235 138.28C66.515 138.77 66.8183 139.225 67.145 139.645C67.4717 140.042 67.845 140.392 68.265 140.695C68.685 140.998 69.1633 141.232 69.7 141.395C70.2367 141.558 70.8433 141.64 71.52 141.64C72.8733 141.64 73.9117 141.313 74.635 140.66C75.3583 140.007 75.72 139.108 75.72 137.965V137.72C75.72 136.6 75.3233 135.748 74.53 135.165C73.76 134.582 72.64 134.29 71.17 134.29H68.755V130.44H71.17ZM102.096 145H85.1563V140.73L92.8213 134.01C94.128 132.867 95.0847 131.84 95.6913 130.93C96.298 129.997 96.6013 128.993 96.6013 127.92V127.465C96.6013 126.392 96.2513 125.575 95.5513 125.015C94.8513 124.432 93.9997 124.14 92.9963 124.14C91.7363 124.14 90.7797 124.502 90.1263 125.225C89.473 125.925 89.0063 126.777 88.7263 127.78L84.7363 126.24C84.993 125.423 85.3547 124.653 85.8213 123.93C86.288 123.183 86.8713 122.53 87.5713 121.97C88.2947 121.41 89.1347 120.967 90.0913 120.64C91.048 120.313 92.1447 120.15 93.3813 120.15C94.6647 120.15 95.808 120.337 96.8113 120.71C97.8147 121.06 98.6547 121.562 99.3313 122.215C100.031 122.868 100.556 123.638 100.906 124.525C101.28 125.412 101.466 126.38 101.466 127.43C101.466 128.457 101.303 129.39 100.976 130.23C100.65 131.07 100.206 131.875 99.6463 132.645C99.0863 133.392 98.433 134.115 97.6863 134.815C96.9397 135.492 96.1463 136.18 95.3063 136.88L90.1613 141.115H102.096V145ZM110.273 145L127.213 120.57H131.273L114.333 145H110.273ZM111.953 134.01C109.969 134.01 108.453 133.427 107.403 132.26C106.376 131.07 105.863 129.343 105.863 127.08C105.863 124.817 106.376 123.102 107.403 121.935C108.453 120.745 109.969 120.15 111.953 120.15C113.936 120.15 115.441 120.745 116.468 121.935C117.494 123.102 118.008 124.817 118.008 127.08C118.008 129.343 117.494 131.07 116.468 132.26C115.441 133.427 113.936 134.01 111.953 134.01ZM111.953 131.35C113.399 131.35 114.123 130.242 114.123 128.025V126.135C114.123 123.918 113.399 122.81 111.953 122.81C110.506 122.81 109.783 123.918 109.783 126.135V128.025C109.783 130.242 110.506 131.35 111.953 131.35ZM129.593 145.42C127.633 145.42 126.128 144.837 125.078 143.67C124.051 142.48 123.538 140.753 123.538 138.49C123.538 136.227 124.051 134.512 125.078 133.345C126.128 132.155 127.633 131.56 129.593 131.56C131.576 131.56 133.081 132.155 134.108 133.345C135.158 134.512 135.683 136.227 135.683 138.49C135.683 140.753 135.158 142.48 134.108 143.67C133.081 144.837 131.576 145.42 129.593 145.42ZM129.593 142.76C131.039 142.76 131.763 141.652 131.763 139.435V137.545C131.763 135.328 131.039 134.22 129.593 134.22C128.146 134.22 127.423 135.328 127.423 137.545V139.435C127.423 141.652 128.146 142.76 129.593 142.76ZM64.87 185V160.57H80.585V164.665H69.49V170.58H79.15V174.675H69.49V185H64.87ZM83.8332 185V166.73H88.3132V170.51H88.4882C88.6048 170.02 88.7798 169.553 89.0132 169.11C89.2698 168.643 89.5965 168.235 89.9932 167.885C90.3898 167.535 90.8565 167.255 91.3932 167.045C91.9532 166.835 92.5948 166.73 93.3182 166.73H94.2982V170.965H92.8982C91.3815 170.965 90.2382 171.187 89.4682 171.63C88.6982 172.073 88.3132 172.797 88.3132 173.8V185H83.8332ZM99.8134 164.07C98.8801 164.07 98.2034 163.86 97.7834 163.44C97.3867 163.02 97.1884 162.483 97.1884 161.83V161.13C97.1884 160.477 97.3867 159.94 97.7834 159.52C98.2034 159.1 98.8801 158.89 99.8134 158.89C100.723 158.89 101.388 159.1 101.808 159.52C102.228 159.94 102.438 160.477 102.438 161.13V161.83C102.438 162.483 102.228 163.02 101.808 163.44C101.388 163.86 100.723 164.07 99.8134 164.07ZM97.5734 166.73H102.053V185H97.5734V166.73ZM112.951 185C111.411 185 110.233 184.603 109.416 183.81C108.623 182.993 108.226 181.838 108.226 180.345V170.3H105.531V166.73H106.931C107.608 166.73 108.063 166.578 108.296 166.275C108.553 165.948 108.681 165.47 108.681 164.84V161.725H112.706V166.73H116.451V170.3H112.706V181.43H116.171V185H112.951ZM122.577 164.07C121.644 164.07 120.967 163.86 120.547 163.44C120.15 163.02 119.952 162.483 119.952 161.83V161.13C119.952 160.477 120.15 159.94 120.547 159.52C120.967 159.1 121.644 158.89 122.577 158.89C123.487 158.89 124.152 159.1 124.572 159.52C124.992 159.94 125.202 160.477 125.202 161.13V161.83C125.202 162.483 124.992 163.02 124.572 163.44C124.152 163.86 123.487 164.07 122.577 164.07ZM120.337 166.73H124.817V185H120.337V166.73ZM141.35 181.955H141.175C140.848 183.005 140.23 183.845 139.32 184.475C138.41 185.105 137.348 185.42 136.135 185.42C133.825 185.42 132.052 184.592 130.815 182.935C129.602 181.278 128.995 178.91 128.995 175.83C128.995 172.773 129.602 170.428 130.815 168.795C132.052 167.138 133.825 166.31 136.135 166.31C137.348 166.31 138.41 166.625 139.32 167.255C140.23 167.862 140.848 168.69 141.175 169.74H141.35V159.1H145.83V185H141.35V181.955ZM137.57 181.71C138.643 181.71 139.542 181.453 140.265 180.94C140.988 180.427 141.35 179.692 141.35 178.735V172.925C141.35 172.038 140.988 171.327 140.265 170.79C139.542 170.253 138.643 169.985 137.57 169.985C136.403 169.985 135.458 170.382 134.735 171.175C134.035 171.945 133.685 172.983 133.685 174.29V177.44C133.685 178.747 134.035 179.785 134.735 180.555C135.458 181.325 136.403 181.71 137.57 181.71Z" fill="white"/>
<g clip-path="url(#clip4)">
<path d="M229.061 158.985C227.133 158.985 225.285 159.384 223.639 160.062C223.197 158.626 222.795 157.149 222.433 155.632C222.474 155.353 222.433 155.074 222.233 154.834C222.072 154.196 221.951 153.597 221.831 152.959L229.945 152.28C230.427 152.24 230.829 151.841 230.869 151.362L231.793 136.477C231.793 136.157 231.672 135.878 231.472 135.678C231.231 135.479 230.909 135.399 230.628 135.439L219.622 137.434C219.541 136.517 219.501 135.958 219.501 135.918C219.501 135.599 219.3 135.319 219.019 135.12C218.738 134.92 218.417 134.92 218.095 135.04L209.298 138.711C208.776 138.911 208.535 139.51 208.776 140.028C208.977 140.547 209.579 140.787 210.102 140.547L217.613 137.434C217.774 139.31 218.095 142.862 218.738 147.052C218.738 147.052 218.698 147.052 218.698 147.092L200.702 164.652L192.266 145.655H195.962C196.524 145.655 196.966 145.216 196.966 144.658C196.966 144.099 196.524 143.66 195.962 143.66H185.558C184.996 143.66 184.554 144.099 184.554 144.658C184.554 145.216 184.996 145.655 185.558 145.655H189.977L191.343 148.688L189.977 152.2C189.856 152.121 189.696 152.081 189.535 152.081H172.463C171.901 152.081 171.459 152.52 171.459 153.078C171.459 153.637 171.901 154.076 172.463 154.076H189.214L188.41 156.111C186.562 155.473 184.594 155.114 182.546 155.114C176.159 155.114 170.214 158.546 167.08 164.093C166.799 164.572 167 165.17 167.482 165.45C167.643 165.53 167.803 165.57 167.964 165.57C168.326 165.57 168.647 165.37 168.848 165.051C171.62 160.142 176.882 157.069 182.546 157.069C184.313 157.069 186.04 157.348 187.647 157.907L187.085 159.304C185.679 158.825 184.152 158.546 182.546 158.546C174.713 158.546 168.326 164.891 168.326 172.673C168.326 180.455 174.713 186.801 182.546 186.801C189.736 186.801 195.681 181.493 196.645 174.629H199.577C200.26 175.826 201.586 176.664 203.072 176.664C205.281 176.664 207.089 174.868 207.089 172.673C207.089 172.314 207.049 171.995 206.968 171.675L220.706 157.348C220.987 158.506 221.349 159.663 221.67 160.781C217.653 163.215 214.962 167.605 214.962 172.633C214.962 180.296 221.228 186.521 228.941 186.521C236.653 186.521 242.92 180.296 242.92 172.633C242.92 164.971 236.734 158.985 229.061 158.985ZM229.704 137.634L228.901 150.405L221.389 151.003C220.546 146.454 220.023 142.263 219.742 139.47L229.704 137.634ZM182.626 185.005C175.877 185.005 170.414 179.537 170.414 172.873C170.414 166.208 175.918 160.741 182.626 160.741C183.951 160.741 185.237 160.94 186.442 161.339L181.702 173.431C181.581 173.751 181.622 174.07 181.822 174.349C182.023 174.629 182.305 174.788 182.666 174.788H194.717C193.753 180.575 188.691 185.005 182.626 185.005ZM184.112 172.793L188.29 162.098C192.186 164.133 194.837 168.164 194.877 172.833H184.112V172.793ZM199.176 172.793H196.886C196.886 167.286 193.672 162.537 189.053 160.182L189.615 158.785C190.258 159.104 190.861 159.424 191.423 159.823C191.865 160.142 192.507 160.022 192.829 159.543C193.15 159.104 193.03 158.466 192.548 158.147C191.784 157.748 191.061 157.309 190.298 156.949L192.507 151.322L200.702 169.72C199.778 170.438 199.176 171.556 199.176 172.793ZM203.192 174.828C202.068 174.828 201.184 173.95 201.184 172.833C201.184 171.715 202.068 170.837 203.192 170.837C204.317 170.837 205.201 171.715 205.201 172.833C205.201 173.95 204.277 174.828 203.192 174.828ZM206.044 170.039C205.321 169.321 204.317 168.842 203.192 168.842C202.992 168.842 202.751 168.882 202.55 168.882L201.505 166.567L219.059 149.447C219.381 151.282 219.742 153.238 220.224 155.193L206.044 170.039ZM229.061 184.725C222.474 184.725 217.091 179.378 217.091 172.833C217.091 168.722 219.22 165.051 222.433 162.936C223.92 167.166 225.848 170.997 228.338 173.551C228.539 173.751 228.78 173.87 229.061 173.87C229.302 173.87 229.584 173.791 229.744 173.591C230.146 173.192 230.146 172.593 229.784 172.194C227.455 169.8 225.647 166.128 224.241 162.018C225.727 161.379 227.334 161.02 229.061 161.02C235.649 161.02 241.032 166.368 241.032 172.913C241.032 179.457 235.649 184.725 229.061 184.725Z" fill="#CCEBC5"/>
</g>
<path d="M77.104 555H65.488V552.072L70.744 547.464C71.64 546.68 72.296 545.976 72.712 545.352C73.128 544.712 73.336 544.024 73.336 543.288V542.976C73.336 542.24 73.096 541.68 72.616 541.296C72.136 540.896 71.552 540.696 70.864 540.696C70 540.696 69.344 540.944 68.896 541.44C68.448 541.92 68.128 542.504 67.936 543.192L65.2 542.136C65.376 541.576 65.624 541.048 65.944 540.552C66.264 540.04 66.664 539.592 67.144 539.208C67.64 538.824 68.216 538.52 68.872 538.296C69.528 538.072 70.28 537.96 71.128 537.96C72.008 537.96 72.792 538.088 73.48 538.344C74.168 538.584 74.744 538.928 75.208 539.376C75.688 539.824 76.048 540.352 76.288 540.96C76.544 541.568 76.672 542.232 76.672 542.952C76.672 543.656 76.56 544.296 76.336 544.872C76.112 545.448 75.808 546 75.424 546.528C75.04 547.04 74.592 547.536 74.08 548.016C73.568 548.48 73.024 548.952 72.448 549.432L68.92 552.336H77.104V555ZM82.7106 555L94.3266 538.248H97.1106L85.4946 555H82.7106ZM83.8626 547.464C82.5026 547.464 81.4626 547.064 80.7426 546.264C80.0386 545.448 79.6866 544.264 79.6866 542.712C79.6866 541.16 80.0386 539.984 80.7426 539.184C81.4626 538.368 82.5026 537.96 83.8626 537.96C85.2226 537.96 86.2546 538.368 86.9586 539.184C87.6626 539.984 88.0146 541.16 88.0146 542.712C88.0146 544.264 87.6626 545.448 86.9586 546.264C86.2546 547.064 85.2226 547.464 83.8626 547.464ZM83.8626 545.64C84.8546 545.64 85.3506 544.88 85.3506 543.36V542.064C85.3506 540.544 84.8546 539.784 83.8626 539.784C82.8706 539.784 82.3746 540.544 82.3746 542.064V543.36C82.3746 544.88 82.8706 545.64 83.8626 545.64ZM95.9586 555.288C94.6146 555.288 93.5826 554.888 92.8626 554.088C92.1586 553.272 91.8066 552.088 91.8066 550.536C91.8066 548.984 92.1586 547.808 92.8626 547.008C93.5826 546.192 94.6146 545.784 95.9586 545.784C97.3186 545.784 98.3506 546.192 99.0546 547.008C99.7746 547.808 100.135 548.984 100.135 550.536C100.135 552.088 99.7746 553.272 99.0546 554.088C98.3506 554.888 97.3186 555.288 95.9586 555.288ZM95.9586 553.464C96.9506 553.464 97.4466 552.704 97.4466 551.184V549.888C97.4466 548.368 96.9506 547.608 95.9586 547.608C94.9666 547.608 94.4706 548.368 94.4706 549.888V551.184C94.4706 552.704 94.9666 553.464 95.9586 553.464ZM109.07 555V538.248H120.11V541.056H112.238V545.112H119.198V547.92H112.238V552.192H120.11V555H109.07ZM123.268 555V542.472H126.34V545.064H126.46C126.54 544.728 126.66 544.408 126.82 544.104C126.996 543.784 127.22 543.504 127.492 543.264C127.764 543.024 128.084 542.832 128.452 542.688C128.836 542.544 129.276 542.472 129.772 542.472H130.444V545.376H129.484C128.444 545.376 127.66 545.528 127.132 545.832C126.604 546.136 126.34 546.632 126.34 547.32V555H123.268ZM132.69 537.24H135.762V544.56H135.882C136.138 543.888 136.538 543.328 137.082 542.88C137.642 542.416 138.41 542.184 139.386 542.184C140.682 542.184 141.674 542.608 142.362 543.456C143.05 544.304 143.394 545.512 143.394 547.08V555H140.322V547.392C140.322 546.496 140.162 545.824 139.842 545.376C139.522 544.928 138.994 544.704 138.258 544.704C137.938 544.704 137.626 544.752 137.322 544.848C137.034 544.928 136.77 545.056 136.53 545.232C136.306 545.392 136.122 545.6 135.978 545.856C135.834 546.096 135.762 546.384 135.762 546.72V555H132.69V537.24ZM149.3 555L145.124 542.472H148.148L149.9 547.872L151.124 552.336H151.292L152.516 547.872L154.22 542.472H157.148L152.948 555H149.3ZM164.074 555.288C163.146 555.288 162.314 555.136 161.578 554.832C160.858 554.512 160.242 554.072 159.73 553.512C159.234 552.936 158.85 552.248 158.578 551.448C158.306 550.632 158.17 549.72 158.17 548.712C158.17 547.72 158.298 546.824 158.554 546.024C158.826 545.224 159.21 544.544 159.706 543.984C160.202 543.408 160.81 542.968 161.53 542.664C162.25 542.344 163.066 542.184 163.978 542.184C164.954 542.184 165.802 542.352 166.522 542.688C167.242 543.024 167.834 543.48 168.298 544.056C168.762 544.632 169.106 545.304 169.33 546.072C169.57 546.824 169.69 547.632 169.69 548.496V549.504H161.362V549.816C161.362 550.728 161.618 551.464 162.13 552.024C162.642 552.568 163.402 552.84 164.41 552.84C165.178 552.84 165.802 552.68 166.282 552.36C166.778 552.04 167.218 551.632 167.602 551.136L169.258 552.984C168.746 553.704 168.042 554.272 167.146 554.688C166.266 555.088 165.242 555.288 164.074 555.288ZM164.026 544.488C163.21 544.488 162.562 544.76 162.082 545.304C161.602 545.848 161.362 546.552 161.362 547.416V547.608H166.498V547.392C166.498 546.528 166.282 545.832 165.85 545.304C165.434 544.76 164.826 544.488 164.026 544.488ZM172.393 555V542.472H175.465V545.064H175.585C175.665 544.728 175.785 544.408 175.945 544.104C176.121 543.784 176.345 543.504 176.617 543.264C176.889 543.024 177.209 542.832 177.577 542.688C177.961 542.544 178.401 542.472 178.897 542.472H179.569V545.376H178.609C177.569 545.376 176.785 545.528 176.257 545.832C175.729 546.136 175.465 546.632 175.465 547.32V555H172.393ZM184.691 555L180.515 542.472H183.539L185.291 547.872L186.515 552.336H186.683L187.907 547.872L189.611 542.472H192.539L188.339 555H184.691Z" fill="white"/>
<g clip-path="url(#clip5)">
<path d="M226.327 537.401C226.23 537.853 226.52 538.272 226.941 538.369L235.117 540.113C235.181 540.113 235.246 540.145 235.278 540.145C235.666 540.145 235.989 539.887 236.054 539.5C236.151 539.047 235.86 538.628 235.44 538.531L227.264 536.787C226.844 536.69 226.424 536.949 226.327 537.401Z" fill="#CCEBC5"/>
<path d="M236.7 545.473C235.925 545.473 235.149 545.667 234.503 545.957C234.276 545.15 233.921 543.762 233.727 542.987C232.952 540.113 232.273 539.661 228.201 539.112C224.84 538.66 220.413 537.755 218.894 537.465C218.926 537.174 218.926 536.884 218.959 536.593C220.025 535.85 220.639 533.493 221.77 528.553L221.996 527.616C222.158 526.906 222.417 526.486 222.804 526.357C223.741 526.099 225.551 527.39 226.553 528.359C226.876 528.682 227.393 528.682 227.684 528.359C228.007 528.036 228.007 527.519 227.684 527.229C227.361 526.906 224.549 524.161 222.32 524.807C221.641 525.001 220.768 525.582 220.381 527.261L220.154 528.197C219.702 530.232 218.959 533.429 218.345 534.72C218.312 534.72 218.248 534.688 218.215 534.688C217.989 533.461 218.054 530.91 218.054 529.424C218.086 527.939 218.086 526.647 217.989 525.84C217.828 524.581 217.246 524.161 216.761 524.032C215.404 523.677 213.853 525.517 213.045 526.647C212.786 527.003 212.883 527.519 213.239 527.778C213.594 528.036 214.111 527.939 214.37 527.584C215.016 526.68 215.889 525.808 216.309 525.614C216.341 525.679 216.373 525.808 216.373 526.002C216.47 526.68 216.438 527.971 216.406 529.36C216.341 533.558 216.406 535.657 217.246 536.432C217.181 537.562 217.052 538.595 216.89 539.531C216.18 539.338 215.307 539.176 214.402 539.176C209.749 539.176 206 542.954 206 547.572C206 552.189 209.781 555.967 214.402 555.967C219.023 555.967 222.804 552.189 222.804 547.572C222.804 544.407 221.059 541.663 218.474 540.21C218.539 539.822 218.603 539.435 218.668 539.015C220.316 539.37 224.646 540.242 227.943 540.662C231.53 541.146 231.562 541.307 232.144 543.374C232.305 543.923 232.531 544.763 232.725 545.505C232.434 545.441 232.111 545.408 231.82 545.408C228.912 545.408 226.553 547.766 226.553 550.672C226.553 553.578 228.912 555.935 231.82 555.935C232.693 555.935 233.533 555.709 234.276 555.322C235.02 555.709 235.86 555.935 236.732 555.935C239.641 555.935 242 553.578 242 550.672C242 547.766 239.609 545.473 236.7 545.473ZM221.221 547.604C221.221 551.35 218.183 554.385 214.434 554.385C210.686 554.385 207.648 551.35 207.648 547.604C207.648 543.858 210.686 540.823 214.434 540.823C215.21 540.823 215.953 540.952 216.664 541.211C215.662 545.215 213.95 547.055 213.917 547.087C213.594 547.41 213.627 547.927 213.95 548.218C214.111 548.379 214.305 548.444 214.499 548.444C214.725 548.444 214.919 548.347 215.081 548.185C215.178 548.088 217.02 546.119 218.151 541.921C219.993 543.116 221.221 545.215 221.221 547.604ZM228.169 550.736C228.169 548.734 229.817 547.087 231.82 547.087C232.176 547.087 232.499 547.152 232.79 547.217C231.95 548.153 231.433 549.38 231.433 550.736C231.433 552.093 231.95 553.32 232.79 554.256C232.467 554.353 232.144 554.385 231.82 554.385C229.785 554.385 228.169 552.738 228.169 550.736ZM236.7 554.385C234.697 554.385 233.048 552.738 233.048 550.736C233.048 548.734 234.697 547.087 236.7 547.087C238.704 547.087 240.352 548.734 240.352 550.736C240.384 552.738 238.736 554.385 236.7 554.385Z" fill="#CCEBC5"/>
</g>
<mask id="mask0" style="mask-type:alpha" maskUnits="userSpaceOnUse" x="243" y="-141" width="410" height="283">
<g clip-path="url(#clip6)">
<path d="M584.223 -16.3479C573.822 -16.3479 563.853 -14.1804 554.969 -10.4956C552.585 -18.2986 550.418 -26.3184 548.468 -34.555C548.684 -36.0722 548.468 -37.5895 547.384 -38.89C535.682 -90.26 532.648 -140.763 532.648 -141.63C532.648 -143.364 531.565 -144.881 530.048 -145.965C528.531 -147.049 526.797 -147.049 525.064 -146.399L477.606 -126.457C474.789 -125.374 473.489 -122.122 474.789 -119.305C475.872 -116.487 479.123 -115.186 481.94 -116.487L522.463 -133.393C523.33 -123.206 525.064 -103.915 528.531 -81.1564C528.531 -81.1564 528.314 -81.1564 528.314 -80.9397L431.232 14.4308L385.724 -88.7427H405.661C408.695 -88.7427 411.079 -91.127 411.079 -94.1615C411.079 -97.196 408.695 -99.5803 405.661 -99.5803H349.535C346.501 -99.5803 344.118 -97.196 344.118 -94.1615C344.118 -91.127 346.501 -88.7427 349.535 -88.7427H373.372L380.74 -72.2697L365.138 -31.7372C355.169 -35.2052 344.551 -37.156 333.499 -37.156C299.044 -37.156 266.972 -18.5154 250.069 11.613C248.552 14.214 249.636 17.4653 252.236 18.9825C253.103 19.416 253.97 19.6328 254.837 19.6328C256.787 19.6328 258.52 18.549 259.604 16.815C274.556 -9.84535 302.944 -26.5352 333.499 -26.5352C343.034 -26.5352 352.352 -25.0179 361.02 -21.9834L357.987 -14.3971C350.402 -16.9981 342.167 -18.5154 333.499 -18.5154C291.242 -18.5154 256.787 15.948 256.787 58.2145C256.787 100.481 291.242 134.944 333.499 134.944C372.289 134.944 404.361 106.116 409.562 68.8353H425.381C429.065 75.3378 436.216 79.8896 444.234 79.8896C456.153 79.8896 465.904 70.1358 465.904 58.2145C465.904 56.2637 465.687 54.5297 465.254 52.7957L539.366 -25.0179C540.883 -18.7321 542.833 -12.4464 544.567 -6.37735C522.897 6.84447 508.378 30.6871 508.378 57.9977C508.378 99.6139 542.183 133.427 583.79 133.427C625.397 133.427 659.202 99.6139 659.202 57.9977C659.202 16.3815 625.613 -16.3479 584.223 -16.3479ZM333.716 124.974C297.31 124.974 267.839 95.2789 267.839 59.0815C267.839 22.884 297.527 -6.81084 333.716 -6.81084C340.867 -6.81084 347.802 -5.72708 354.303 -3.55957L328.732 62.116C328.082 63.85 328.298 65.584 329.382 67.1013C330.465 68.6185 331.982 69.4855 333.933 69.4855H398.943C393.742 100.914 366.438 124.974 333.716 124.974ZM364.271 0.558701C385.291 11.613 399.593 33.5049 399.81 58.8647H341.734L364.271 0.558701ZM422.997 58.648H410.645C410.645 28.7363 393.309 2.94295 368.388 -9.84535L371.422 -17.4316C374.889 -15.6976 378.14 -13.9636 381.174 -11.7961C383.557 -10.0621 387.025 -10.7124 388.758 -13.3134C390.492 -15.6976 389.842 -19.1656 387.241 -20.8997C383.124 -23.0672 379.223 -25.4514 375.106 -27.4022L387.025 -57.9641L431.232 41.9581C426.248 45.8597 422.997 51.9287 422.997 58.648ZM444.667 69.7023C438.6 69.7023 433.832 64.9338 433.832 58.8647C433.832 52.7957 438.6 48.0272 444.667 48.0272C450.735 48.0272 455.502 52.7957 455.502 58.8647C455.502 64.9338 450.518 69.7023 444.667 69.7023ZM460.053 43.6922C456.153 39.7906 450.735 37.1896 444.667 37.1896C443.584 37.1896 442.284 37.4064 441.2 37.4064L435.566 24.8348L530.265 -68.1514C531.998 -58.1808 533.949 -47.56 536.549 -36.9392L460.053 43.6922ZM584.223 123.457C548.684 123.457 519.646 94.4119 519.646 58.8647C519.646 36.5394 531.131 16.5983 548.468 5.11047C556.486 28.0861 566.887 48.8942 580.323 62.7663C581.406 63.85 582.706 64.5003 584.223 64.5003C585.524 64.5003 587.041 64.0667 587.907 62.983C590.074 60.8155 590.074 57.5642 588.124 55.3967C575.555 42.3916 565.804 22.4505 558.219 0.125183C566.237 -3.34283 574.905 -5.29359 584.223 -5.29359C619.763 -5.29359 648.801 23.7511 648.801 59.2982C648.801 94.8454 619.763 123.457 584.223 123.457Z" fill="white"/>
</g>
</mask>
<g mask="url(#mask0)">
<rect x="227" width="82" height="203" fill="#AE017E"/>
</g>
</g>
<defs>
<clipPath id="clip0">
<rect width="309" height="600" fill="white"/>
</clipPath>
<clipPath id="clip1">
<rect width="71" height="49" fill="white" transform="translate(64 235)"/>
</clipPath>
<clipPath id="clip2">
<rect width="64" height="45" fill="white" transform="matrix(-1 0 0 1 241 340)"/>
</clipPath>
<clipPath id="clip3">
<rect width="54" height="37" fill="white" transform="translate(60 444)"/>
</clipPath>
<clipPath id="clip4">
<rect width="76" height="52" fill="white" transform="translate(167 135)"/>
</clipPath>
<clipPath id="clip5">
<rect width="36" height="32" fill="white" transform="translate(206 524)"/>
</clipPath>
<clipPath id="clip6">
<rect width="410" height="282.427" fill="white" transform="translate(243 -141)"/>
</clipPath>
</defs>
</svg>
