<svg width="668" height="240" viewBox="0 0 668 240" fill="none" xmlns="http://www.w3.org/2000/svg">
<g clip-path="url(#clip0)">
<rect width="668" height="240" fill="#7A0177"/>
<path d="M38.345 40.134H30.099V49H25.387V27.362H30.099V35.98H38.345V27.362H43.057V49H38.345V40.134ZM51.0436 49L45.7116 32.725H50.2376L52.2526 39.297L53.7716 45.187H54.0196L55.5386 39.297L57.4916 32.725H61.8316L56.4996 49H51.0436ZM70.6131 49.372C69.4144 49.372 68.3398 49.1757 67.3891 48.783C66.4591 48.3903 65.6634 47.822 65.0021 47.078C64.3614 46.334 63.8654 45.435 63.5141 44.381C63.1628 43.327 62.9871 42.149 62.9871 40.847C62.9871 39.545 63.1628 38.367 63.5141 37.313C63.8654 36.259 64.3614 35.3703 65.0021 34.647C65.6634 33.903 66.4591 33.3347 67.3891 32.942C68.3398 32.5493 69.4144 32.353 70.6131 32.353C71.8118 32.353 72.8761 32.5493 73.8061 32.942C74.7568 33.3347 75.5524 33.903 76.1931 34.647C76.8544 35.3703 77.3608 36.259 77.7121 37.313C78.0634 38.367 78.2391 39.545 78.2391 40.847C78.2391 42.149 78.0634 43.327 77.7121 44.381C77.3608 45.435 76.8544 46.334 76.1931 47.078C75.5524 47.822 74.7568 48.3903 73.8061 48.783C72.8761 49.1757 71.8118 49.372 70.6131 49.372ZM70.6131 45.745C71.5224 45.745 72.2251 45.466 72.7211 44.908C73.2171 44.35 73.4651 43.5543 73.4651 42.521V39.204C73.4651 38.1707 73.2171 37.375 72.7211 36.817C72.2251 36.259 71.5224 35.98 70.6131 35.98C69.7038 35.98 69.0011 36.259 68.5051 36.817C68.0091 37.375 67.7611 38.1707 67.7611 39.204V42.521C67.7611 43.5543 68.0091 44.35 68.5051 44.908C69.0011 45.466 69.7038 45.745 70.6131 45.745ZM81.5081 49V32.725H86.0961V36.259H86.2511C86.3338 35.8043 86.4785 35.3703 86.6851 34.957C86.8918 34.523 87.1605 34.1407 87.4911 33.81C87.8425 33.4793 88.2558 33.221 88.7311 33.035C89.2065 32.8283 89.7645 32.725 90.4051 32.725H91.2111V37.003H90.0641C88.7208 37.003 87.7185 37.1787 87.0571 37.53C86.4165 37.8813 86.0961 38.5323 86.0961 39.483V49H81.5081ZM94.0413 49V32.725H98.6293V35.484H98.8153C99.1047 34.6367 99.611 33.903 100.334 33.283C101.058 32.663 102.06 32.353 103.341 32.353C105.015 32.353 106.276 32.911 107.123 34.027C107.991 35.143 108.425 36.7343 108.425 38.801V49H103.837V39.173C103.837 38.119 103.672 37.344 103.341 36.848C103.011 36.3313 102.422 36.073 101.574 36.073C101.202 36.073 100.841 36.1247 100.489 36.228C100.138 36.3107 99.8177 36.4553 99.5283 36.662C99.2597 36.8687 99.0427 37.127 98.8773 37.437C98.712 37.7263 98.6293 38.0673 98.6293 38.46V49H94.0413ZM124.536 49C123.709 49 123.017 48.7417 122.459 48.225C121.922 47.7083 121.581 47.016 121.436 46.148H121.25C121.002 47.202 120.454 48.008 119.607 48.566C118.76 49.1033 117.716 49.372 116.476 49.372C114.843 49.372 113.593 48.938 112.725 48.07C111.857 47.202 111.423 46.055 111.423 44.629C111.423 42.9137 112.043 41.6427 113.283 40.816C114.544 39.9687 116.249 39.545 118.398 39.545H120.971V38.522C120.971 37.7367 120.764 37.1167 120.351 36.662C119.938 36.1867 119.245 35.949 118.274 35.949C117.365 35.949 116.641 36.1453 116.104 36.538C115.567 36.9307 115.122 37.375 114.771 37.871L112.043 35.453C112.704 34.4817 113.531 33.7273 114.523 33.19C115.536 32.632 116.9 32.353 118.615 32.353C120.93 32.353 122.666 32.8593 123.823 33.872C124.98 34.8847 125.559 36.3623 125.559 38.305V45.435H127.078V49H124.536ZM118.181 46.179C118.946 46.179 119.597 46.0137 120.134 45.683C120.692 45.3523 120.971 44.815 120.971 44.071V42.149H118.739C116.941 42.149 116.042 42.7587 116.042 43.978V44.443C116.042 45.0423 116.228 45.4867 116.6 45.776C116.972 46.0447 117.499 46.179 118.181 46.179ZM118.708 31.702C118.067 31.702 117.468 31.5987 116.91 31.392C116.352 31.1647 115.866 30.8547 115.453 30.462C115.04 30.0693 114.709 29.6043 114.461 29.067C114.234 28.509 114.12 27.9097 114.12 27.269C114.12 26.6283 114.234 26.0393 114.461 25.502C114.709 24.944 115.04 24.4687 115.453 24.076C115.866 23.6833 116.352 23.3837 116.91 23.177C117.468 22.9497 118.067 22.836 118.708 22.836C119.349 22.836 119.948 22.9497 120.506 23.177C121.064 23.3837 121.55 23.6833 121.963 24.076C122.376 24.4687 122.697 24.944 122.924 25.502C123.172 26.0393 123.296 26.6283 123.296 27.269C123.296 27.9097 123.172 28.509 122.924 29.067C122.697 29.6043 122.376 30.0693 121.963 30.462C121.55 30.8547 121.064 31.1647 120.506 31.392C119.948 31.5987 119.349 31.702 118.708 31.702ZM118.708 29.377C119.225 29.377 119.617 29.2427 119.886 28.974C120.155 28.6847 120.289 28.292 120.289 27.796V26.742C120.289 26.246 120.155 25.8637 119.886 25.595C119.617 25.3057 119.225 25.161 118.708 25.161C118.191 25.161 117.799 25.3057 117.53 25.595C117.261 25.8637 117.127 26.246 117.127 26.742V27.796C117.127 28.292 117.261 28.6847 117.53 28.974C117.799 29.2427 118.191 29.377 118.708 29.377ZM130.158 49V32.725H134.746V36.259H134.901C134.983 35.8043 135.128 35.3703 135.335 34.957C135.541 34.523 135.81 34.1407 136.141 33.81C136.492 33.4793 136.905 33.221 137.381 33.035C137.856 32.8283 138.414 32.725 139.055 32.725H139.861V37.003H138.714C137.37 37.003 136.368 37.1787 135.707 37.53C135.066 37.8813 134.746 38.5323 134.746 39.483V49H130.158ZM150.017 26.06H154.605V35.453H154.76C154.987 34.5437 155.504 33.7997 156.31 33.221C157.137 32.6423 158.077 32.353 159.131 32.353C161.198 32.353 162.758 33.0763 163.812 34.523C164.866 35.9697 165.393 38.0777 165.393 40.847C165.393 43.6163 164.866 45.7347 163.812 47.202C162.758 48.6487 161.198 49.372 159.131 49.372C158.594 49.372 158.087 49.2893 157.612 49.124C157.137 48.9793 156.703 48.7727 156.31 48.504C155.938 48.2147 155.618 47.884 155.349 47.512C155.08 47.1193 154.884 46.706 154.76 46.272H154.605V49H150.017V26.06ZM157.612 45.652C158.48 45.652 159.193 45.3523 159.751 44.753C160.33 44.133 160.619 43.3063 160.619 42.273V39.452C160.619 38.4187 160.33 37.6023 159.751 37.003C159.193 36.383 158.48 36.073 157.612 36.073C156.744 36.073 156.021 36.29 155.442 36.724C154.884 37.1373 154.605 37.716 154.605 38.46V43.265C154.605 44.009 154.884 44.598 155.442 45.032C156.021 45.4453 156.744 45.652 157.612 45.652ZM168.877 49V32.725H173.465V36.259H173.62C173.703 35.8043 173.848 35.3703 174.054 34.957C174.261 34.523 174.53 34.1407 174.86 33.81C175.212 33.4793 175.625 33.221 176.1 33.035C176.576 32.8283 177.134 32.725 177.774 32.725H178.58V37.003H177.433C176.09 37.003 175.088 37.1787 174.426 37.53C173.786 37.8813 173.465 38.5323 173.465 39.483V49H168.877ZM191.02 46.272H190.865C190.721 46.6853 190.524 47.078 190.276 47.45C190.049 47.822 189.749 48.1527 189.377 48.442C189.005 48.7313 188.561 48.9587 188.044 49.124C187.548 49.2893 186.97 49.372 186.308 49.372C184.634 49.372 183.363 48.8243 182.495 47.729C181.648 46.613 181.224 45.0217 181.224 42.955V32.725H185.812V42.552C185.812 43.544 185.988 44.3087 186.339 44.846C186.691 45.3833 187.29 45.652 188.137 45.652C188.489 45.652 188.84 45.6003 189.191 45.497C189.543 45.3937 189.853 45.249 190.121 45.063C190.39 44.8563 190.607 44.6083 190.772 44.319C190.938 44.0297 191.02 43.6887 191.02 43.296V32.725H195.608V49H191.02V46.272ZM214.943 50.178C214.943 51.046 214.788 51.8107 214.478 52.472C214.189 53.1333 213.703 53.6913 213.021 54.146C212.339 54.6213 211.43 54.9727 210.293 55.2C209.177 55.448 207.793 55.572 206.139 55.572C204.734 55.572 203.535 55.479 202.543 55.293C201.572 55.1277 200.776 54.8797 200.156 54.549C199.557 54.239 199.113 53.8463 198.823 53.371C198.555 52.9163 198.42 52.3893 198.42 51.79C198.42 50.8807 198.689 50.1677 199.226 49.651C199.764 49.1343 200.508 48.814 201.458 48.69V48.349C200.673 48.2043 200.084 47.8737 199.691 47.357C199.299 46.8197 199.102 46.1997 199.102 45.497C199.102 45.063 199.185 44.691 199.35 44.381C199.536 44.0503 199.764 43.7713 200.032 43.544C200.322 43.296 200.652 43.0997 201.024 42.955C201.396 42.8103 201.768 42.6967 202.14 42.614V42.49C201.148 42.0353 200.415 41.4153 199.939 40.63C199.464 39.824 199.226 38.894 199.226 37.84C199.226 36.1867 199.795 34.864 200.931 33.872C202.089 32.8593 203.845 32.353 206.201 32.353C207.276 32.353 208.196 32.4563 208.96 32.663V32.043C208.96 31.175 209.167 30.555 209.58 30.183C210.014 29.7903 210.624 29.594 211.409 29.594H213.982V33.004H210.386V33.19C211.337 33.6447 212.04 34.275 212.494 35.081C212.949 35.8663 213.176 36.786 213.176 37.84C213.176 39.4727 212.598 40.785 211.44 41.777C210.304 42.7483 208.557 43.234 206.201 43.234C205.147 43.234 204.186 43.1203 203.318 42.893C202.843 43.203 202.605 43.637 202.605 44.195C202.605 44.5877 202.75 44.8977 203.039 45.125C203.349 45.3317 203.856 45.435 204.558 45.435H209.27C211.254 45.435 212.691 45.8483 213.579 46.675C214.489 47.5017 214.943 48.6693 214.943 50.178ZM210.634 50.798C210.634 50.3227 210.448 49.961 210.076 49.713C209.704 49.465 209.053 49.341 208.123 49.341H202.543C202.337 49.5477 202.182 49.775 202.078 50.023C201.996 50.2917 201.954 50.55 201.954 50.798C201.954 51.3973 202.213 51.8313 202.729 52.1C203.246 52.3893 204.124 52.534 205.364 52.534H207.224C208.464 52.534 209.343 52.3893 209.859 52.1C210.376 51.8313 210.634 51.3973 210.634 50.798ZM206.201 40.227C207.111 40.227 207.782 40.041 208.216 39.669C208.671 39.2763 208.898 38.7183 208.898 37.995V37.623C208.898 36.8997 208.671 36.352 208.216 35.98C207.782 35.5873 207.111 35.391 206.201 35.391C205.292 35.391 204.61 35.5873 204.155 35.98C203.721 36.352 203.504 36.8997 203.504 37.623V37.995C203.504 38.7183 203.721 39.2763 204.155 39.669C204.61 40.041 205.292 40.227 206.201 40.227ZM223.589 49.372C222.349 49.372 221.243 49.1757 220.272 48.783C219.301 48.3697 218.474 47.8013 217.792 47.078C217.131 46.334 216.624 45.435 216.273 44.381C215.942 43.327 215.777 42.149 215.777 40.847C215.777 39.5657 215.942 38.4083 216.273 37.375C216.604 36.321 217.089 35.422 217.73 34.678C218.391 33.934 219.197 33.3657 220.148 32.973C221.099 32.5597 222.184 32.353 223.403 32.353C224.746 32.353 225.893 32.5803 226.844 33.035C227.815 33.4897 228.601 34.0993 229.2 34.864C229.82 35.6287 230.264 36.5173 230.533 37.53C230.822 38.522 230.967 39.5657 230.967 40.661V42.025H220.52V42.273C220.52 43.3477 220.809 44.2053 221.388 44.846C221.967 45.466 222.876 45.776 224.116 45.776C225.067 45.776 225.842 45.59 226.441 45.218C227.04 44.8253 227.598 44.3603 228.115 43.823L230.409 46.675C229.686 47.5223 228.735 48.1837 227.557 48.659C226.4 49.1343 225.077 49.372 223.589 49.372ZM223.496 35.732C222.566 35.732 221.832 36.042 221.295 36.662C220.778 37.2613 220.52 38.0673 220.52 39.08V39.328H226.224V39.049C226.224 38.057 225.997 37.2613 225.542 36.662C225.108 36.042 224.426 35.732 223.496 35.732ZM234.207 49V32.725H238.795V36.259H238.95C239.033 35.8043 239.178 35.3703 239.384 34.957C239.591 34.523 239.86 34.1407 240.19 33.81C240.542 33.4793 240.955 33.221 241.43 33.035C241.906 32.8283 242.464 32.725 243.104 32.725H243.91V37.003H242.763C241.42 37.003 240.418 37.1787 239.756 37.53C239.116 37.8813 238.795 38.5323 238.795 39.483V49H234.207ZM257.539 49L252.207 32.725H256.733L258.748 39.297L260.267 45.187H260.515L262.034 39.297L263.987 32.725H268.327L262.995 49H257.539ZM273.041 30.989C272.111 30.989 271.429 30.7823 270.995 30.369C270.582 29.935 270.375 29.3873 270.375 28.726V28.044C270.375 27.3827 270.582 26.8453 270.995 26.432C271.429 25.998 272.111 25.781 273.041 25.781C273.971 25.781 274.643 25.998 275.056 26.432C275.49 26.8453 275.707 27.3827 275.707 28.044V28.726C275.707 29.3873 275.49 29.935 275.056 30.369C274.643 30.7823 273.971 30.989 273.041 30.989ZM270.747 32.725H275.335V49H270.747V32.725ZM293.516 49.372C292.296 49.372 291.211 49.1757 290.261 48.783C289.31 48.3697 288.514 47.8013 287.874 47.078C287.233 46.334 286.747 45.435 286.417 44.381C286.086 43.327 285.921 42.149 285.921 40.847C285.921 39.545 286.086 38.3773 286.417 37.344C286.747 36.29 287.233 35.391 287.874 34.647C288.514 33.903 289.31 33.3347 290.261 32.942C291.211 32.5493 292.296 32.353 293.516 32.353C295.169 32.353 296.543 32.725 297.639 33.469C298.755 34.213 299.55 35.2567 300.026 36.6L296.306 38.212C296.161 37.592 295.861 37.065 295.407 36.631C294.952 36.197 294.322 35.98 293.516 35.98C292.586 35.98 291.883 36.29 291.408 36.91C290.932 37.5093 290.695 38.3257 290.695 39.359V42.397C290.695 43.4303 290.932 44.2467 291.408 44.846C291.883 45.4453 292.586 45.745 293.516 45.745C294.342 45.745 294.993 45.528 295.469 45.094C295.965 44.6393 296.326 44.0503 296.554 43.327L300.119 44.877C299.581 46.427 298.744 47.5637 297.608 48.287C296.492 49.0103 295.128 49.372 293.516 49.372ZM312.909 32.725H317.187L310.925 51.511C310.512 52.7717 309.923 53.7017 309.158 54.301C308.414 54.9003 307.34 55.2 305.934 55.2H303.082V51.635H306.151L306.709 49.837L301.005 32.725H305.562L307.949 40.32L309.127 45.032H309.313L310.522 40.32L312.909 32.725ZM319.518 26.06H324.106V39.607H324.292L326.307 36.6L329.562 32.725H334.646L329.221 38.956L335.266 49H329.81L326.152 42.118L324.106 44.412V49H319.518V26.06ZM341.967 49C340.396 49 339.239 48.6177 338.495 47.853C337.771 47.0883 337.41 45.9827 337.41 44.536V26.06H341.998V45.435H344.044V49H341.967ZM353.583 49.372C352.343 49.372 351.238 49.1757 350.266 48.783C349.295 48.3697 348.468 47.8013 347.786 47.078C347.125 46.334 346.619 45.435 346.267 44.381C345.937 43.327 345.771 42.149 345.771 40.847C345.771 39.5657 345.937 38.4083 346.267 37.375C346.598 36.321 347.084 35.422 347.724 34.678C348.386 33.934 349.192 33.3657 350.142 32.973C351.093 32.5597 352.178 32.353 353.397 32.353C354.741 32.353 355.888 32.5803 356.838 33.035C357.81 33.4897 358.595 34.0993 359.194 34.864C359.814 35.6287 360.259 36.5173 360.527 37.53C360.817 38.522 360.961 39.5657 360.961 40.661V42.025H350.514V42.273C350.514 43.3477 350.804 44.2053 351.382 44.846C351.961 45.466 352.87 45.776 354.11 45.776C355.061 45.776 355.836 45.59 356.435 45.218C357.035 44.8253 357.593 44.3603 358.109 43.823L360.403 46.675C359.68 47.5223 358.729 48.1837 357.551 48.659C356.394 49.1343 355.071 49.372 353.583 49.372ZM353.49 35.732C352.56 35.732 351.827 36.042 351.289 36.662C350.773 37.2613 350.514 38.0673 350.514 39.08V39.328H356.218V39.049C356.218 38.057 355.991 37.2613 355.536 36.662C355.102 36.042 354.42 35.732 353.49 35.732ZM364.202 49V32.725H368.79V35.484H368.976C369.265 34.6367 369.771 33.903 370.495 33.283C371.218 32.663 372.22 32.353 373.502 32.353C375.176 32.353 376.436 32.911 377.284 34.027C378.152 35.143 378.586 36.7343 378.586 38.801V49H373.998V39.173C373.998 38.119 373.832 37.344 373.502 36.848C373.171 36.3313 372.582 36.073 371.735 36.073C371.363 36.073 371.001 36.1247 370.65 36.228C370.298 36.3107 369.978 36.4553 369.689 36.662C369.42 36.8687 369.203 37.127 369.038 37.437C368.872 37.7263 368.79 38.0673 368.79 38.46V49H364.202ZM385.427 41.777V37.034C387.06 36.972 388.279 36.7033 389.085 36.228C389.912 35.732 390.325 34.9053 390.325 33.748V33.314C390.325 32.5287 390.088 31.9293 389.612 31.516C389.158 31.1027 388.558 30.896 387.814 30.896C387.008 30.896 386.337 31.144 385.799 31.64C385.283 32.136 384.931 32.7663 384.745 33.531L380.963 31.95C381.149 31.33 381.418 30.7307 381.769 30.152C382.121 29.5527 382.575 29.0257 383.133 28.571C383.712 28.0957 384.394 27.7133 385.179 27.424C385.985 27.1347 386.915 26.99 387.969 26.99C389.044 26.99 390.026 27.145 390.914 27.455C391.803 27.765 392.568 28.199 393.208 28.757C393.849 29.315 394.335 29.9867 394.665 30.772C395.017 31.5573 395.192 32.4253 395.192 33.376C395.192 34.244 395.048 35.0293 394.758 35.732C394.469 36.4347 394.076 37.0547 393.58 37.592C393.084 38.1087 392.506 38.5323 391.844 38.863C391.183 39.1937 390.491 39.421 389.767 39.545V41.777H385.427ZM387.659 49.372C386.667 49.372 385.954 49.1447 385.52 48.69C385.107 48.2353 384.9 47.6773 384.9 47.016V46.272C384.9 45.6107 385.107 45.0527 385.52 44.598C385.954 44.1433 386.667 43.916 387.659 43.916C388.651 43.916 389.354 44.1433 389.767 44.598C390.201 45.0527 390.418 45.6107 390.418 46.272V47.016C390.418 47.6773 390.201 48.2353 389.767 48.69C389.354 49.1447 388.651 49.372 387.659 49.372Z" fill="white"/>
<g clip-path="url(#clip1)">
<path d="M279.978 123.601C278.177 123.601 276.451 123.977 274.912 124.617C274.5 123.263 274.124 121.871 273.787 120.442C273.824 120.179 273.787 119.916 273.599 119.69C271.572 110.778 271.047 102.016 271.047 101.865C271.047 101.564 270.859 101.301 270.597 101.113C270.334 100.925 270.034 100.925 269.734 101.038L261.515 104.498C261.028 104.686 260.802 105.25 261.028 105.739C261.215 106.227 261.778 106.453 262.266 106.227L269.283 103.294C269.433 105.062 269.734 108.409 270.334 112.357C270.334 112.357 270.297 112.357 270.297 112.395L253.485 128.941L245.604 111.041H249.057C249.582 111.041 249.995 110.627 249.995 110.101C249.995 109.574 249.582 109.161 249.057 109.161H239.337C238.812 109.161 238.399 109.574 238.399 110.101C238.399 110.627 238.812 111.041 239.337 111.041H243.465L244.741 113.899L242.039 120.931C240.313 120.33 238.474 119.991 236.56 119.991C230.594 119.991 225.04 123.225 222.113 128.452C221.85 128.904 222.038 129.468 222.488 129.731C222.638 129.806 222.788 129.844 222.938 129.844C223.276 129.844 223.576 129.656 223.764 129.355C226.353 124.729 231.269 121.834 236.56 121.834C238.211 121.834 239.825 122.097 241.326 122.624L240.801 123.94C239.487 123.488 238.061 123.225 236.56 123.225C229.243 123.225 223.276 129.204 223.276 136.538C223.276 143.871 229.243 149.85 236.56 149.85C243.278 149.85 248.831 144.848 249.732 138.38H252.471C253.109 139.508 254.348 140.298 255.736 140.298C257.8 140.298 259.489 138.606 259.489 136.538C259.489 136.199 259.451 135.898 259.376 135.597L272.21 122.097C272.473 123.188 272.811 124.278 273.111 125.331C269.358 127.625 266.844 131.762 266.844 136.5C266.844 143.72 272.698 149.587 279.903 149.587C287.108 149.587 292.963 143.72 292.963 136.5C292.963 129.28 287.146 123.601 279.978 123.601ZM236.598 148.12C230.293 148.12 225.19 142.968 225.19 136.688C225.19 130.408 230.331 125.256 236.598 125.256C237.836 125.256 239.037 125.444 240.163 125.82L235.735 137.214C235.622 137.515 235.66 137.816 235.847 138.079C236.035 138.343 236.298 138.493 236.635 138.493H247.893C246.993 143.946 242.264 148.12 236.598 148.12ZM241.889 126.534C245.529 128.452 248.006 132.251 248.043 136.65H237.986L241.889 126.534ZM252.059 136.613H249.92C249.92 131.423 246.918 126.948 242.602 124.729L243.127 123.413C243.728 123.714 244.291 124.015 244.816 124.391C245.229 124.692 245.829 124.579 246.13 124.128C246.43 123.714 246.317 123.112 245.867 122.812C245.154 122.435 244.478 122.022 243.765 121.683L245.829 116.381L253.485 133.717C252.622 134.394 252.059 135.447 252.059 136.613ZM255.811 138.531C254.761 138.531 253.935 137.703 253.935 136.65C253.935 135.597 254.761 134.77 255.811 134.77C256.862 134.77 257.688 135.597 257.688 136.65C257.688 137.703 256.825 138.531 255.811 138.531ZM258.476 134.018C257.8 133.341 256.862 132.89 255.811 132.89C255.624 132.89 255.399 132.927 255.211 132.927L254.235 130.746L270.634 114.614C270.934 116.343 271.272 118.186 271.723 120.029L258.476 134.018ZM279.978 147.857C273.824 147.857 268.795 142.818 268.795 136.65C268.795 132.777 270.784 129.317 273.787 127.324C275.175 131.31 276.976 134.921 279.303 137.327C279.491 137.515 279.716 137.628 279.978 137.628C280.204 137.628 280.466 137.553 280.616 137.365C280.992 136.989 280.992 136.425 280.654 136.049C278.477 133.792 276.789 130.333 275.475 126.459C276.864 125.858 278.365 125.519 279.978 125.519C286.133 125.519 291.161 130.558 291.161 136.726C291.161 142.893 286.133 147.857 279.978 147.857Z" fill="#CCEBC5"/>
</g>
<path d="M326.104 119H314.488V116.072L319.744 111.464C320.64 110.68 321.296 109.976 321.712 109.352C322.128 108.712 322.336 108.024 322.336 107.288V106.976C322.336 106.24 322.096 105.68 321.616 105.296C321.136 104.896 320.552 104.696 319.864 104.696C319 104.696 318.344 104.944 317.896 105.44C317.448 105.92 317.128 106.504 316.936 107.192L314.2 106.136C314.376 105.576 314.624 105.048 314.944 104.552C315.264 104.04 315.664 103.592 316.144 103.208C316.64 102.824 317.216 102.52 317.872 102.296C318.528 102.072 319.28 101.96 320.128 101.96C321.008 101.96 321.792 102.088 322.48 102.344C323.168 102.584 323.744 102.928 324.208 103.376C324.688 103.824 325.048 104.352 325.288 104.96C325.544 105.568 325.672 106.232 325.672 106.952C325.672 107.656 325.56 108.296 325.336 108.872C325.112 109.448 324.808 110 324.424 110.528C324.04 111.04 323.592 111.536 323.08 112.016C322.568 112.48 322.024 112.952 321.448 113.432L317.92 116.336H326.104V119ZM334.663 119.288C333.703 119.288 332.847 119.136 332.095 118.832C331.343 118.512 330.703 118.072 330.175 117.512C329.647 116.936 329.247 116.248 328.975 115.448C328.703 114.632 328.567 113.72 328.567 112.712C328.567 111.512 328.743 110.384 329.095 109.328C329.463 108.256 329.935 107.28 330.511 106.4C331.087 105.504 331.727 104.712 332.431 104.024C333.151 103.32 333.863 102.728 334.567 102.248H338.839C337.847 102.952 336.959 103.632 336.175 104.288C335.407 104.944 334.727 105.608 334.135 106.28C333.559 106.952 333.079 107.656 332.695 108.392C332.327 109.112 332.047 109.896 331.855 110.744L332.047 110.792C332.207 110.472 332.391 110.168 332.599 109.88C332.823 109.576 333.087 109.312 333.391 109.088C333.695 108.848 334.047 108.664 334.447 108.536C334.847 108.392 335.311 108.32 335.839 108.32C336.527 108.32 337.167 108.44 337.759 108.68C338.367 108.92 338.887 109.272 339.319 109.736C339.767 110.184 340.111 110.728 340.351 111.368C340.607 112.008 340.735 112.72 340.735 113.504C340.735 114.352 340.591 115.128 340.303 115.832C340.015 116.536 339.607 117.144 339.079 117.656C338.551 118.168 337.911 118.568 337.159 118.856C336.423 119.144 335.591 119.288 334.663 119.288ZM334.663 116.792C335.543 116.792 336.231 116.552 336.727 116.072C337.239 115.576 337.495 114.872 337.495 113.96V113.6C337.495 112.688 337.239 111.992 336.727 111.512C336.231 111.016 335.543 110.768 334.663 110.768C333.767 110.768 333.071 111.016 332.575 111.512C332.079 111.992 331.831 112.688 331.831 113.6V113.96C331.831 114.872 332.079 115.576 332.575 116.072C333.071 116.552 333.767 116.792 334.663 116.792ZM346.101 119L357.717 102.248H360.501L348.885 119H346.101ZM347.253 111.464C345.893 111.464 344.853 111.064 344.133 110.264C343.429 109.448 343.077 108.264 343.077 106.712C343.077 105.16 343.429 103.984 344.133 103.184C344.853 102.368 345.893 101.96 347.253 101.96C348.613 101.96 349.645 102.368 350.349 103.184C351.053 103.984 351.405 105.16 351.405 106.712C351.405 108.264 351.053 109.448 350.349 110.264C349.645 111.064 348.613 111.464 347.253 111.464ZM347.253 109.64C348.245 109.64 348.741 108.88 348.741 107.36V106.064C348.741 104.544 348.245 103.784 347.253 103.784C346.261 103.784 345.765 104.544 345.765 106.064V107.36C345.765 108.88 346.261 109.64 347.253 109.64ZM359.349 119.288C358.005 119.288 356.973 118.888 356.253 118.088C355.549 117.272 355.197 116.088 355.197 114.536C355.197 112.984 355.549 111.808 356.253 111.008C356.973 110.192 358.005 109.784 359.349 109.784C360.709 109.784 361.741 110.192 362.445 111.008C363.165 111.808 363.525 112.984 363.525 114.536C363.525 116.088 363.165 117.272 362.445 118.088C361.741 118.888 360.709 119.288 359.349 119.288ZM359.349 117.464C360.341 117.464 360.837 116.704 360.837 115.184V113.888C360.837 112.368 360.341 111.608 359.349 111.608C358.357 111.608 357.861 112.368 357.861 113.888V115.184C357.861 116.704 358.357 117.464 359.349 117.464ZM323.368 142.728H318.232L316.192 147H313L321.304 130.248H334.408V133.056H326.512V137.112H333.496V139.92H326.512V144.192H334.408V147H323.368V142.728ZM322.888 133.056L319.504 140.04H323.368V133.056H322.888ZM337.581 147V134.472H340.653V137.064H340.773C340.853 136.728 340.973 136.408 341.133 136.104C341.309 135.784 341.533 135.504 341.805 135.264C342.077 135.024 342.397 134.832 342.765 134.688C343.149 134.544 343.589 134.472 344.085 134.472H344.757V137.376H343.797C342.757 137.376 341.973 137.528 341.445 137.832C340.917 138.136 340.653 138.632 340.653 139.32V147H337.581ZM348.539 132.648C347.899 132.648 347.435 132.504 347.147 132.216C346.875 131.928 346.739 131.56 346.739 131.112V130.632C346.739 130.184 346.875 129.816 347.147 129.528C347.435 129.24 347.899 129.096 348.539 129.096C349.163 129.096 349.619 129.24 349.907 129.528C350.195 129.816 350.339 130.184 350.339 130.632V131.112C350.339 131.56 350.195 131.928 349.907 132.216C349.619 132.504 349.163 132.648 348.539 132.648ZM347.003 134.472H350.075V147H347.003V134.472ZM353.635 147V134.472H356.707V136.56H356.827C357.083 135.888 357.483 135.328 358.027 134.88C358.587 134.416 359.355 134.184 360.331 134.184C361.627 134.184 362.619 134.608 363.307 135.456C363.995 136.304 364.339 137.512 364.339 139.08V147H361.267V139.392C361.267 138.496 361.107 137.824 360.787 137.376C360.467 136.928 359.939 136.704 359.203 136.704C358.883 136.704 358.571 136.752 358.267 136.848C357.979 136.928 357.715 137.056 357.475 137.232C357.251 137.392 357.067 137.6 356.923 137.856C356.779 138.096 356.707 138.384 356.707 138.72V147H353.635ZM375.521 144.912H375.401C375.177 145.632 374.753 146.208 374.129 146.64C373.505 147.072 372.777 147.288 371.945 147.288C370.361 147.288 369.145 146.72 368.297 145.584C367.465 144.448 367.049 142.824 367.049 140.712C367.049 138.616 367.465 137.008 368.297 135.888C369.145 134.752 370.361 134.184 371.945 134.184C372.777 134.184 373.505 134.4 374.129 134.832C374.753 135.248 375.177 135.816 375.401 136.536H375.521V129.24H378.593V147H375.521V144.912ZM372.929 144.744C373.665 144.744 374.281 144.568 374.777 144.216C375.273 143.864 375.521 143.36 375.521 142.704V138.72C375.521 138.112 375.273 137.624 374.777 137.256C374.281 136.888 373.665 136.704 372.929 136.704C372.129 136.704 371.481 136.976 370.985 137.52C370.505 138.048 370.265 138.76 370.265 139.656V141.816C370.265 142.712 370.505 143.424 370.985 143.952C371.481 144.48 372.129 144.744 372.929 144.744ZM387.199 147.288C386.271 147.288 385.439 147.136 384.703 146.832C383.983 146.512 383.367 146.072 382.855 145.512C382.359 144.936 381.975 144.248 381.703 143.448C381.431 142.632 381.295 141.72 381.295 140.712C381.295 139.72 381.423 138.824 381.679 138.024C381.951 137.224 382.335 136.544 382.831 135.984C383.327 135.408 383.935 134.968 384.655 134.664C385.375 134.344 386.191 134.184 387.103 134.184C388.079 134.184 388.927 134.352 389.647 134.688C390.367 135.024 390.959 135.48 391.423 136.056C391.887 136.632 392.231 137.304 392.455 138.072C392.695 138.824 392.815 139.632 392.815 140.496V141.504H384.487V141.816C384.487 142.728 384.743 143.464 385.255 144.024C385.767 144.568 386.527 144.84 387.535 144.84C388.303 144.84 388.927 144.68 389.407 144.36C389.903 144.04 390.343 143.632 390.727 143.136L392.383 144.984C391.871 145.704 391.167 146.272 390.271 146.688C389.391 147.088 388.367 147.288 387.199 147.288ZM387.151 136.488C386.335 136.488 385.687 136.76 385.207 137.304C384.727 137.848 384.487 138.552 384.487 139.416V139.608H389.623V139.392C389.623 138.528 389.407 137.832 388.975 137.304C388.559 136.76 387.951 136.488 387.151 136.488Z" fill="white"/>
<path d="M527.104 119H515.488V116.072L520.744 111.464C521.64 110.68 522.296 109.976 522.712 109.352C523.128 108.712 523.336 108.024 523.336 107.288V106.976C523.336 106.24 523.096 105.68 522.616 105.296C522.136 104.896 521.552 104.696 520.864 104.696C520 104.696 519.344 104.944 518.896 105.44C518.448 105.92 518.128 106.504 517.936 107.192L515.2 106.136C515.376 105.576 515.624 105.048 515.944 104.552C516.264 104.04 516.664 103.592 517.144 103.208C517.64 102.824 518.216 102.52 518.872 102.296C519.528 102.072 520.28 101.96 521.128 101.96C522.008 101.96 522.792 102.088 523.48 102.344C524.168 102.584 524.744 102.928 525.208 103.376C525.688 103.824 526.048 104.352 526.288 104.96C526.544 105.568 526.672 106.232 526.672 106.952C526.672 107.656 526.56 108.296 526.336 108.872C526.112 109.448 525.808 110 525.424 110.528C525.04 111.04 524.592 111.536 524.08 112.016C523.568 112.48 523.024 112.952 522.448 113.432L518.92 116.336H527.104V119ZM540.751 104.984H533.215L532.831 110.6H532.999C533.175 110.248 533.367 109.92 533.575 109.616C533.783 109.312 534.023 109.056 534.295 108.848C534.567 108.64 534.879 108.48 535.231 108.368C535.599 108.24 536.039 108.176 536.551 108.176C537.271 108.176 537.943 108.296 538.567 108.536C539.191 108.776 539.727 109.128 540.175 109.592C540.639 110.04 540.999 110.592 541.255 111.248C541.527 111.904 541.663 112.648 541.663 113.48C541.663 114.328 541.527 115.104 541.255 115.808C540.983 116.512 540.583 117.128 540.055 117.656C539.527 118.168 538.879 118.568 538.111 118.856C537.343 119.144 536.463 119.288 535.471 119.288C534.703 119.288 534.015 119.2 533.407 119.024C532.799 118.864 532.263 118.64 531.799 118.352C531.335 118.064 530.935 117.736 530.599 117.368C530.263 116.984 529.967 116.584 529.711 116.168L532.015 114.392C532.207 114.712 532.407 115.016 532.615 115.304C532.823 115.576 533.063 115.816 533.335 116.024C533.623 116.232 533.935 116.4 534.271 116.528C534.623 116.64 535.031 116.696 535.495 116.696C536.439 116.696 537.151 116.432 537.631 115.904C538.127 115.376 538.375 114.656 538.375 113.744V113.552C538.375 112.688 538.127 112.008 537.631 111.512C537.135 111.016 536.447 110.768 535.567 110.768C534.879 110.768 534.319 110.904 533.887 111.176C533.455 111.432 533.111 111.712 532.855 112.016L530.263 111.656L530.887 102.248H540.751V104.984ZM547.101 119L558.717 102.248H561.501L549.885 119H547.101ZM548.253 111.464C546.893 111.464 545.853 111.064 545.133 110.264C544.429 109.448 544.077 108.264 544.077 106.712C544.077 105.16 544.429 103.984 545.133 103.184C545.853 102.368 546.893 101.96 548.253 101.96C549.613 101.96 550.645 102.368 551.349 103.184C552.053 103.984 552.405 105.16 552.405 106.712C552.405 108.264 552.053 109.448 551.349 110.264C550.645 111.064 549.613 111.464 548.253 111.464ZM548.253 109.64C549.245 109.64 549.741 108.88 549.741 107.36V106.064C549.741 104.544 549.245 103.784 548.253 103.784C547.261 103.784 546.765 104.544 546.765 106.064V107.36C546.765 108.88 547.261 109.64 548.253 109.64ZM560.349 119.288C559.005 119.288 557.973 118.888 557.253 118.088C556.549 117.272 556.197 116.088 556.197 114.536C556.197 112.984 556.549 111.808 557.253 111.008C557.973 110.192 559.005 109.784 560.349 109.784C561.709 109.784 562.741 110.192 563.445 111.008C564.165 111.808 564.525 112.984 564.525 114.536C564.525 116.088 564.165 117.272 563.445 118.088C562.741 118.888 561.709 119.288 560.349 119.288ZM560.349 117.464C561.341 117.464 561.837 116.704 561.837 115.184V113.888C561.837 112.368 561.341 111.608 560.349 111.608C559.357 111.608 558.861 112.368 558.861 113.888V115.184C558.861 116.704 559.357 117.464 560.349 117.464ZM526.336 147L524.992 142.728H519.04L517.72 147H514.504L520.12 130.248H524.056L529.624 147H526.336ZM522.064 133.128H521.944L519.808 140.016H524.224L522.064 133.128ZM531.901 147V134.472H534.973V137.064H535.093C535.173 136.728 535.293 136.408 535.453 136.104C535.629 135.784 535.853 135.504 536.125 135.264C536.397 135.024 536.717 134.832 537.085 134.688C537.469 134.544 537.909 134.472 538.405 134.472H539.077V137.376H538.117C537.077 137.376 536.293 137.528 535.765 137.832C535.237 138.136 534.973 138.632 534.973 139.32V147H531.901ZM541.323 129.24H544.395V136.536H544.491C544.715 135.816 545.139 135.248 545.763 134.832C546.387 134.4 547.115 134.184 547.947 134.184C549.547 134.184 550.763 134.752 551.595 135.888C552.443 137.008 552.867 138.616 552.867 140.712C552.867 142.824 552.443 144.448 551.595 145.584C550.763 146.72 549.547 147.288 547.947 147.288C547.115 147.288 546.387 147.072 545.763 146.64C545.155 146.208 544.731 145.632 544.491 144.912H544.395V147H541.323V129.24ZM546.963 144.744C547.763 144.744 548.411 144.48 548.907 143.952C549.403 143.424 549.651 142.712 549.651 141.816V139.656C549.651 138.76 549.403 138.048 548.907 137.52C548.411 136.976 547.763 136.704 546.963 136.704C546.227 136.704 545.611 136.888 545.115 137.256C544.635 137.624 544.395 138.112 544.395 138.72V142.704C544.395 143.36 544.635 143.864 545.115 144.216C545.611 144.568 546.227 144.744 546.963 144.744ZM560.778 147.288C559.85 147.288 559.018 147.136 558.282 146.832C557.562 146.512 556.946 146.072 556.434 145.512C555.938 144.936 555.554 144.248 555.282 143.448C555.01 142.632 554.874 141.72 554.874 140.712C554.874 139.72 555.002 138.824 555.258 138.024C555.53 137.224 555.914 136.544 556.41 135.984C556.906 135.408 557.514 134.968 558.234 134.664C558.954 134.344 559.77 134.184 560.682 134.184C561.658 134.184 562.506 134.352 563.226 134.688C563.946 135.024 564.538 135.48 565.002 136.056C565.466 136.632 565.81 137.304 566.034 138.072C566.274 138.824 566.394 139.632 566.394 140.496V141.504H558.066V141.816C558.066 142.728 558.322 143.464 558.834 144.024C559.346 144.568 560.106 144.84 561.114 144.84C561.882 144.84 562.506 144.68 562.986 144.36C563.482 144.04 563.922 143.632 564.306 143.136L565.962 144.984C565.45 145.704 564.746 146.272 563.85 146.688C562.97 147.088 561.946 147.288 560.778 147.288ZM560.73 136.488C559.914 136.488 559.266 136.76 558.786 137.304C558.306 137.848 558.066 138.552 558.066 139.416V139.608H563.202V139.392C563.202 138.528 562.986 137.832 562.554 137.304C562.138 136.76 561.53 136.488 560.73 136.488ZM569.096 134.472H572.168V148.512C572.168 149.568 571.904 150.376 571.376 150.936C570.848 151.512 570.008 151.8 568.856 151.8H567.176V149.352H569.096V134.472ZM570.632 132.648C569.992 132.648 569.528 132.504 569.24 132.216C568.968 131.928 568.832 131.56 568.832 131.112V130.632C568.832 130.184 568.968 129.816 569.24 129.528C569.528 129.24 569.992 129.096 570.632 129.096C571.256 129.096 571.712 129.24 572 129.528C572.288 129.816 572.432 130.184 572.432 130.632V131.112C572.432 131.56 572.288 131.928 572 132.216C571.712 132.504 571.256 132.648 570.632 132.648ZM583.505 144.912H583.385C583.161 145.632 582.737 146.208 582.113 146.64C581.489 147.072 580.761 147.288 579.929 147.288C578.345 147.288 577.129 146.72 576.281 145.584C575.449 144.448 575.033 142.824 575.033 140.712C575.033 138.616 575.449 137.008 576.281 135.888C577.129 134.752 578.345 134.184 579.929 134.184C580.761 134.184 581.489 134.4 582.113 134.832C582.737 135.248 583.161 135.816 583.385 136.536H583.505V129.24H586.577V147H583.505V144.912ZM580.913 144.744C581.649 144.744 582.265 144.568 582.761 144.216C583.257 143.864 583.505 143.36 583.505 142.704V138.72C583.505 138.112 583.257 137.624 582.761 137.256C582.265 136.888 581.649 136.704 580.913 136.704C580.113 136.704 579.465 136.976 578.969 137.52C578.489 138.048 578.249 138.76 578.249 139.656V141.816C578.249 142.712 578.489 143.424 578.969 143.952C579.465 144.48 580.113 144.744 580.913 144.744ZM595.184 147.288C594.256 147.288 593.424 147.136 592.688 146.832C591.968 146.512 591.352 146.072 590.84 145.512C590.344 144.936 589.96 144.248 589.688 143.448C589.416 142.632 589.28 141.72 589.28 140.712C589.28 139.72 589.408 138.824 589.664 138.024C589.936 137.224 590.32 136.544 590.816 135.984C591.312 135.408 591.92 134.968 592.64 134.664C593.36 134.344 594.176 134.184 595.088 134.184C596.064 134.184 596.912 134.352 597.632 134.688C598.352 135.024 598.944 135.48 599.408 136.056C599.872 136.632 600.216 137.304 600.44 138.072C600.68 138.824 600.8 139.632 600.8 140.496V141.504H592.472V141.816C592.472 142.728 592.728 143.464 593.24 144.024C593.752 144.568 594.512 144.84 595.52 144.84C596.288 144.84 596.912 144.68 597.392 144.36C597.888 144.04 598.328 143.632 598.712 143.136L600.368 144.984C599.856 145.704 599.152 146.272 598.256 146.688C597.376 147.088 596.352 147.288 595.184 147.288ZM595.136 136.488C594.32 136.488 593.672 136.76 593.192 137.304C592.712 137.848 592.472 138.552 592.472 139.416V139.608H597.608V139.392C597.608 138.528 597.392 137.832 596.96 137.304C596.544 136.76 595.936 136.488 595.136 136.488Z" fill="white"/>
<g clip-path="url(#clip2)">
<path d="M484.712 125.218C483.012 125.218 481.383 125.571 479.932 126.171C479.542 124.9 479.188 123.594 478.869 122.252C478.905 122.005 478.869 121.758 478.692 121.546C476.78 113.179 476.284 104.954 476.284 104.812C476.284 104.53 476.107 104.283 475.859 104.106C475.611 103.93 475.328 103.93 475.045 104.036L467.289 107.284C466.829 107.46 466.617 107.99 466.829 108.449C467.006 108.907 467.537 109.119 467.998 108.907L474.62 106.154C474.761 107.813 475.045 110.955 475.611 114.662C475.611 114.662 475.576 114.662 475.576 114.697L459.711 130.231L452.275 113.426H455.532C456.028 113.426 456.418 113.038 456.418 112.544C456.418 112.049 456.028 111.661 455.532 111.661H446.361C445.865 111.661 445.475 112.049 445.475 112.544C445.475 113.038 445.865 113.426 446.361 113.426H450.256L451.46 116.109L448.91 122.711C447.281 122.146 445.546 121.828 443.74 121.828C438.11 121.828 432.869 124.865 430.106 129.772C429.859 130.195 430.036 130.725 430.461 130.972C430.602 131.043 430.744 131.078 430.886 131.078C431.204 131.078 431.488 130.901 431.665 130.619C434.108 126.277 438.747 123.558 443.74 123.558C445.298 123.558 446.821 123.805 448.238 124.3L447.742 125.535C446.502 125.112 445.157 124.865 443.74 124.865C436.835 124.865 431.204 130.478 431.204 137.362C431.204 144.246 436.835 149.859 443.74 149.859C450.079 149.859 455.32 145.164 456.17 139.092H458.755C459.357 140.151 460.526 140.892 461.836 140.892C463.784 140.892 465.377 139.304 465.377 137.362C465.377 137.044 465.342 136.762 465.271 136.479L477.382 123.805C477.63 124.829 477.948 125.853 478.232 126.841C474.69 128.995 472.318 132.878 472.318 137.327C472.318 144.105 477.842 149.612 484.641 149.612C491.441 149.612 496.965 144.105 496.965 137.327C496.965 130.548 491.476 125.218 484.712 125.218ZM443.776 148.235C437.826 148.235 433.01 143.399 433.01 137.503C433.01 131.607 437.862 126.771 443.776 126.771C444.944 126.771 446.077 126.947 447.14 127.3L442.961 137.997C442.855 138.28 442.89 138.562 443.067 138.809C443.244 139.056 443.492 139.198 443.811 139.198H454.435C453.585 144.317 449.123 148.235 443.776 148.235ZM448.769 127.971C452.204 129.772 454.541 133.337 454.576 137.468H445.086L448.769 127.971ZM458.365 137.432H456.347C456.347 132.561 453.514 128.36 449.442 126.277L449.937 125.041C450.504 125.323 451.035 125.606 451.531 125.959C451.92 126.241 452.487 126.135 452.77 125.712C453.054 125.323 452.947 124.759 452.522 124.476C451.85 124.123 451.212 123.735 450.539 123.417L452.487 118.439L459.711 134.714C458.897 135.35 458.365 136.338 458.365 137.432ZM461.907 139.233C460.915 139.233 460.136 138.456 460.136 137.468C460.136 136.479 460.915 135.703 461.907 135.703C462.898 135.703 463.677 136.479 463.677 137.468C463.677 138.456 462.863 139.233 461.907 139.233ZM464.421 134.997C463.784 134.361 462.898 133.937 461.907 133.937C461.73 133.937 461.517 133.973 461.34 133.973L460.419 131.925L475.895 116.78C476.178 118.404 476.497 120.134 476.921 121.864L464.421 134.997ZM484.712 147.988C478.905 147.988 474.159 143.257 474.159 137.468C474.159 133.832 476.036 130.584 478.869 128.713C480.179 132.455 481.879 135.844 484.075 138.103C484.252 138.28 484.464 138.386 484.712 138.386C484.925 138.386 485.173 138.315 485.314 138.139C485.668 137.785 485.668 137.256 485.35 136.903C483.296 134.785 481.702 131.537 480.463 127.901C481.773 127.336 483.189 127.018 484.712 127.018C490.52 127.018 495.265 131.749 495.265 137.538C495.265 143.328 490.52 147.988 484.712 147.988Z" fill="#CCEBC5"/>
</g>
<g clip-path="url(#clip3)">
<path d="M67.0965 190.067C65.7265 190.067 64.4136 190.351 63.2435 190.834C62.9295 189.812 62.6441 188.761 62.3872 187.682C62.4158 187.483 62.3872 187.285 62.2445 187.114C60.7033 180.384 60.3037 173.768 60.3037 173.655C60.3037 173.427 60.161 173.229 59.9612 173.087C59.7614 172.945 59.5331 172.945 59.3048 173.03L53.0542 175.642C52.6832 175.784 52.5119 176.21 52.6832 176.579C52.8259 176.948 53.254 177.119 53.6251 176.948L58.9623 174.734C59.0764 176.068 59.3048 178.595 59.7614 181.577C59.7614 181.577 59.7329 181.577 59.7329 181.605L46.9464 194.1L40.9528 180.583H43.5785C43.9781 180.583 44.2921 180.271 44.2921 179.873C44.2921 179.476 43.9781 179.163 43.5785 179.163H36.1864C35.7868 179.163 35.4728 179.476 35.4728 179.873C35.4728 180.271 35.7868 180.583 36.1864 180.583H39.3259L40.2963 182.741L38.2413 188.051C36.9284 187.597 35.5299 187.341 34.0743 187.341C29.5363 187.341 25.3122 189.783 23.0859 193.731C22.8862 194.071 23.0289 194.497 23.3714 194.696C23.4855 194.753 23.5997 194.781 23.7139 194.781C23.9707 194.781 24.1991 194.639 24.3418 194.412C26.3111 190.919 30.05 188.733 34.0743 188.733C35.3301 188.733 36.5574 188.932 37.6991 189.329L37.2995 190.323C36.3005 189.982 35.216 189.783 34.0743 189.783C28.5088 189.783 23.9707 194.298 23.9707 199.836C23.9707 205.373 28.5088 209.888 34.0743 209.888C39.1832 209.888 43.4073 206.111 44.0923 201.227H46.1758C46.661 202.079 47.6029 202.675 48.6589 202.675C50.2287 202.675 51.513 201.397 51.513 199.836C51.513 199.58 51.4845 199.353 51.4274 199.126L61.1885 188.932C61.3883 189.755 61.6451 190.579 61.8735 191.374C59.0193 193.106 57.1071 196.229 57.1071 199.807C57.1071 205.259 61.5595 209.689 67.0394 209.689C72.5193 209.689 76.9718 205.259 76.9718 199.807C76.9718 194.355 72.5479 190.067 67.0965 190.067ZM34.1029 208.582C29.3079 208.582 25.4263 204.691 25.4263 199.949C25.4263 195.207 29.3365 191.317 34.1029 191.317C35.0447 191.317 35.958 191.459 36.8143 191.743L33.4464 200.347C33.3608 200.574 33.3893 200.801 33.532 201C33.6747 201.199 33.8745 201.312 34.1314 201.312H42.6938C42.0088 205.43 38.4126 208.582 34.1029 208.582ZM38.1272 192.282C40.8957 193.731 42.7794 196.599 42.8079 199.921H35.1589L38.1272 192.282ZM45.8618 199.892H44.235C44.235 195.974 41.9517 192.595 38.6695 190.919L39.069 189.925C39.5257 190.153 39.9538 190.38 40.3534 190.664C40.6673 190.891 41.124 190.806 41.3523 190.465C41.5807 190.153 41.495 189.698 41.1525 189.471C40.6103 189.187 40.0965 188.875 39.5542 188.619L41.124 184.615L46.9464 197.706C46.29 198.217 45.8618 199.012 45.8618 199.892ZM48.716 201.341C47.9168 201.341 47.2889 200.716 47.2889 199.921C47.2889 199.126 47.9168 198.501 48.716 198.501C49.5151 198.501 50.143 199.126 50.143 199.921C50.143 200.716 49.4866 201.341 48.716 201.341ZM50.7424 197.933C50.2287 197.422 49.5151 197.081 48.716 197.081C48.5733 197.081 48.402 197.11 48.2593 197.11L47.5172 195.463L59.9897 183.281C60.2181 184.587 60.4749 185.978 60.8174 187.37L50.7424 197.933ZM67.0965 208.383C62.4158 208.383 58.5912 204.578 58.5912 199.921C58.5912 196.996 60.1039 194.384 62.3872 192.879C63.4432 195.889 64.8132 198.615 66.5828 200.432C66.7255 200.574 66.8967 200.659 67.0965 200.659C67.2678 200.659 67.4675 200.602 67.5817 200.46C67.8671 200.176 67.8671 199.75 67.6103 199.467C65.9549 197.763 64.6705 195.15 63.6716 192.226C64.7276 191.771 65.8692 191.516 67.0965 191.516C71.7773 191.516 75.6018 195.321 75.6018 199.978C75.6018 204.635 71.7773 208.383 67.0965 208.383Z" fill="#CCEBC5"/>
</g>
<path d="M92.184 209V206.432H96.792V194.528H96.576L92.928 198.848L90.96 197.192L95.112 192.248H99.888V206.432H103.728V209H92.184ZM112.743 209V205.76H105.159V203.072L111.831 192.248H115.743V203.312H117.927V205.76H115.743V209H112.743ZM107.751 203.312H112.743V195.32H112.551L107.751 203.312ZM123.101 209L134.717 192.248H137.501L125.885 209H123.101ZM124.253 201.464C122.893 201.464 121.853 201.064 121.133 200.264C120.429 199.448 120.077 198.264 120.077 196.712C120.077 195.16 120.429 193.984 121.133 193.184C121.853 192.368 122.893 191.96 124.253 191.96C125.613 191.96 126.645 192.368 127.349 193.184C128.053 193.984 128.405 195.16 128.405 196.712C128.405 198.264 128.053 199.448 127.349 200.264C126.645 201.064 125.613 201.464 124.253 201.464ZM124.253 199.64C125.245 199.64 125.741 198.88 125.741 197.36V196.064C125.741 194.544 125.245 193.784 124.253 193.784C123.261 193.784 122.765 194.544 122.765 196.064V197.36C122.765 198.88 123.261 199.64 124.253 199.64ZM136.349 209.288C135.005 209.288 133.973 208.888 133.253 208.088C132.549 207.272 132.197 206.088 132.197 204.536C132.197 202.984 132.549 201.808 133.253 201.008C133.973 200.192 135.005 199.784 136.349 199.784C137.709 199.784 138.741 200.192 139.445 201.008C140.165 201.808 140.525 202.984 140.525 204.536C140.525 206.088 140.165 207.272 139.445 208.088C138.741 208.888 137.709 209.288 136.349 209.288ZM136.349 207.464C137.341 207.464 137.837 206.704 137.837 205.184V203.888C137.837 202.368 137.341 201.608 136.349 201.608C135.357 201.608 134.861 202.368 134.861 203.888V205.184C134.861 206.704 135.357 207.464 136.349 207.464ZM152.46 192.248V202.544C152.46 203.856 152.708 204.84 153.204 205.496C153.716 206.152 154.572 206.48 155.772 206.48C156.972 206.48 157.82 206.152 158.316 205.496C158.828 204.84 159.084 203.856 159.084 202.544V192.248H162.204V202.136C162.204 203.368 162.084 204.432 161.844 205.328C161.62 206.224 161.252 206.968 160.74 207.56C160.228 208.152 159.556 208.592 158.724 208.88C157.908 209.152 156.916 209.288 155.748 209.288C154.564 209.288 153.564 209.152 152.748 208.88C151.948 208.592 151.292 208.152 150.78 207.56C150.268 206.968 149.9 206.224 149.676 205.328C149.452 204.432 149.34 203.368 149.34 202.136V192.248H152.46ZM173.615 206.912H173.495C173.271 207.632 172.847 208.208 172.223 208.64C171.599 209.072 170.871 209.288 170.039 209.288C168.455 209.288 167.239 208.72 166.391 207.584C165.559 206.448 165.143 204.824 165.143 202.712C165.143 200.616 165.559 199.008 166.391 197.888C167.239 196.752 168.455 196.184 170.039 196.184C170.871 196.184 171.599 196.4 172.223 196.832C172.847 197.248 173.271 197.816 173.495 198.536H173.615V191.24H176.687V209H173.615V206.912ZM171.023 206.744C171.759 206.744 172.375 206.568 172.871 206.216C173.367 205.864 173.615 205.36 173.615 204.704V200.72C173.615 200.112 173.367 199.624 172.871 199.256C172.375 198.888 171.759 198.704 171.023 198.704C170.223 198.704 169.575 198.976 169.079 199.52C168.599 200.048 168.359 200.76 168.359 201.656V203.816C168.359 204.712 168.599 205.424 169.079 205.952C169.575 206.48 170.223 206.744 171.023 206.744ZM188.005 206.912H187.885C187.661 207.632 187.237 208.208 186.613 208.64C185.989 209.072 185.261 209.288 184.429 209.288C182.845 209.288 181.629 208.72 180.781 207.584C179.949 206.448 179.533 204.824 179.533 202.712C179.533 200.616 179.949 199.008 180.781 197.888C181.629 196.752 182.845 196.184 184.429 196.184C185.261 196.184 185.989 196.4 186.613 196.832C187.237 197.248 187.661 197.816 187.885 198.536H188.005V191.24H191.077V209H188.005V206.912ZM185.413 206.744C186.149 206.744 186.765 206.568 187.261 206.216C187.757 205.864 188.005 205.36 188.005 204.704V200.72C188.005 200.112 187.757 199.624 187.261 199.256C186.765 198.888 186.149 198.704 185.413 198.704C184.613 198.704 183.965 198.976 183.469 199.52C182.989 200.048 182.749 200.76 182.749 201.656V203.816C182.749 204.712 182.989 205.424 183.469 205.952C183.965 206.48 184.613 206.744 185.413 206.744ZM203.836 209C203.164 209 202.628 208.808 202.228 208.424C201.844 208.024 201.604 207.496 201.508 206.84H201.364C201.156 207.656 200.732 208.272 200.092 208.688C199.452 209.088 198.66 209.288 197.716 209.288C196.436 209.288 195.452 208.952 194.764 208.28C194.076 207.608 193.732 206.712 193.732 205.592C193.732 204.296 194.196 203.336 195.124 202.712C196.052 202.072 197.372 201.752 199.084 201.752H201.22V200.84C201.22 200.136 201.036 199.592 200.668 199.208C200.3 198.824 199.708 198.632 198.892 198.632C198.172 198.632 197.588 198.792 197.14 199.112C196.708 199.416 196.34 199.784 196.036 200.216L194.212 198.584C194.676 197.864 195.292 197.288 196.06 196.856C196.828 196.408 197.844 196.184 199.108 196.184C200.804 196.184 202.092 196.568 202.972 197.336C203.852 198.104 204.292 199.208 204.292 200.648V206.552H205.54V209H203.836ZM198.748 207.056C199.436 207.056 200.02 206.904 200.5 206.6C200.98 206.296 201.22 205.848 201.22 205.256V203.6H199.252C197.652 203.6 196.852 204.112 196.852 205.136V205.544C196.852 206.056 197.012 206.44 197.332 206.696C197.668 206.936 198.14 207.056 198.748 207.056ZM208.026 209V196.472H211.098V198.56H211.218C211.474 197.888 211.874 197.328 212.418 196.88C212.978 196.416 213.746 196.184 214.722 196.184C216.018 196.184 217.01 196.608 217.698 197.456C218.386 198.304 218.73 199.512 218.73 201.08V209H215.658V201.392C215.658 200.496 215.498 199.824 215.178 199.376C214.858 198.928 214.33 198.704 213.594 198.704C213.274 198.704 212.962 198.752 212.658 198.848C212.37 198.928 212.106 199.056 211.866 199.232C211.642 199.392 211.458 199.6 211.314 199.856C211.17 200.096 211.098 200.384 211.098 200.72V209H208.026ZM222.135 209V196.472H225.207V198.56H225.327C225.583 197.888 225.983 197.328 226.527 196.88C227.087 196.416 227.855 196.184 228.831 196.184C230.127 196.184 231.119 196.608 231.807 197.456C232.495 198.304 232.839 199.512 232.839 201.08V209H229.767V201.392C229.767 200.496 229.607 199.824 229.287 199.376C228.967 198.928 228.439 198.704 227.703 198.704C227.383 198.704 227.071 198.752 226.767 198.848C226.479 198.928 226.215 199.056 225.975 199.232C225.751 199.392 225.567 199.6 225.423 199.856C225.279 200.096 225.207 200.384 225.207 200.72V209H222.135ZM241.309 209.288C240.381 209.288 239.549 209.136 238.813 208.832C238.093 208.512 237.477 208.072 236.965 207.512C236.469 206.936 236.085 206.248 235.813 205.448C235.541 204.632 235.405 203.72 235.405 202.712C235.405 201.72 235.533 200.824 235.789 200.024C236.061 199.224 236.445 198.544 236.941 197.984C237.437 197.408 238.045 196.968 238.765 196.664C239.485 196.344 240.301 196.184 241.213 196.184C242.189 196.184 243.037 196.352 243.757 196.688C244.477 197.024 245.069 197.48 245.533 198.056C245.997 198.632 246.341 199.304 246.565 200.072C246.805 200.824 246.925 201.632 246.925 202.496V203.504H238.597V203.816C238.597 204.728 238.853 205.464 239.365 206.024C239.877 206.568 240.637 206.84 241.645 206.84C242.413 206.84 243.037 206.68 243.517 206.36C244.013 206.04 244.453 205.632 244.837 205.136L246.493 206.984C245.981 207.704 245.277 208.272 244.381 208.688C243.501 209.088 242.477 209.288 241.309 209.288ZM241.261 198.488C240.445 198.488 239.797 198.76 239.317 199.304C238.837 199.848 238.597 200.552 238.597 201.416V201.608H243.733V201.392C243.733 200.528 243.517 199.832 243.085 199.304C242.669 198.76 242.061 198.488 241.261 198.488ZM252.7 209C251.644 209 250.868 208.736 250.372 208.208C249.876 207.68 249.628 206.936 249.628 205.976V191.24H252.7V206.552H254.356V209H252.7ZM260.786 209.288C259.586 209.288 258.578 209.088 257.762 208.688C256.946 208.272 256.226 207.704 255.602 206.984L257.474 205.16C257.938 205.688 258.442 206.104 258.986 206.408C259.546 206.712 260.186 206.864 260.906 206.864C261.642 206.864 262.17 206.736 262.49 206.48C262.826 206.224 262.994 205.872 262.994 205.424C262.994 205.056 262.874 204.768 262.634 204.56C262.41 204.336 262.018 204.184 261.458 204.104L260.21 203.936C258.85 203.76 257.81 203.376 257.09 202.784C256.386 202.176 256.034 201.296 256.034 200.144C256.034 199.536 256.146 198.992 256.37 198.512C256.594 198.016 256.914 197.6 257.33 197.264C257.746 196.912 258.242 196.648 258.818 196.472C259.41 196.28 260.066 196.184 260.786 196.184C261.394 196.184 261.93 196.232 262.394 196.328C262.874 196.408 263.306 196.536 263.69 196.712C264.074 196.872 264.426 197.08 264.746 197.336C265.066 197.576 265.378 197.848 265.682 198.152L263.882 199.952C263.514 199.568 263.074 199.248 262.562 198.992C262.05 198.736 261.49 198.608 260.882 198.608C260.21 198.608 259.722 198.728 259.418 198.968C259.13 199.208 258.986 199.52 258.986 199.904C258.986 200.32 259.106 200.64 259.346 200.864C259.602 201.072 260.026 201.224 260.618 201.32L261.89 201.488C264.594 201.872 265.946 203.104 265.946 205.184C265.946 205.792 265.818 206.352 265.562 206.864C265.322 207.36 264.978 207.792 264.53 208.16C264.082 208.512 263.538 208.792 262.898 209C262.274 209.192 261.57 209.288 260.786 209.288ZM273.723 209.288C272.795 209.288 271.963 209.136 271.227 208.832C270.507 208.512 269.891 208.072 269.379 207.512C268.883 206.936 268.499 206.248 268.227 205.448C267.955 204.632 267.819 203.72 267.819 202.712C267.819 201.72 267.947 200.824 268.203 200.024C268.475 199.224 268.859 198.544 269.355 197.984C269.851 197.408 270.459 196.968 271.179 196.664C271.899 196.344 272.715 196.184 273.627 196.184C274.603 196.184 275.451 196.352 276.171 196.688C276.891 197.024 277.483 197.48 277.947 198.056C278.411 198.632 278.755 199.304 278.979 200.072C279.219 200.824 279.339 201.632 279.339 202.496V203.504H271.011V203.816C271.011 204.728 271.267 205.464 271.779 206.024C272.291 206.568 273.051 206.84 274.059 206.84C274.827 206.84 275.451 206.68 275.931 206.36C276.427 206.04 276.867 205.632 277.251 205.136L278.907 206.984C278.395 207.704 277.691 208.272 276.795 208.688C275.915 209.088 274.891 209.288 273.723 209.288ZM273.675 198.488C272.859 198.488 272.211 198.76 271.731 199.304C271.251 199.848 271.011 200.552 271.011 201.416V201.608H276.147V201.392C276.147 200.528 275.931 199.832 275.499 199.304C275.083 198.76 274.475 198.488 273.675 198.488Z" fill="white"/>
<path d="M119.86 98.52C121.06 98.52 121.94 98.28 122.5 97.8C123.08 97.3 123.37 96.67 123.37 95.91V95.7C123.37 94.84 123.09 94.17 122.53 93.69C121.99 93.19 121.24 92.94 120.28 92.94C119.36 92.94 118.54 93.16 117.82 93.6C117.12 94.04 116.51 94.66 115.99 95.46L113.47 93.18C113.83 92.7 114.22 92.25 114.64 91.83C115.08 91.39 115.58 91.02 116.14 90.72C116.7 90.4 117.33 90.15 118.03 89.97C118.73 89.79 119.52 89.7 120.4 89.7C121.46 89.7 122.42 89.83 123.28 90.09C124.16 90.33 124.91 90.69 125.53 91.17C126.17 91.65 126.66 92.23 127 92.91C127.34 93.57 127.51 94.32 127.51 95.16C127.51 95.84 127.4 96.45 127.18 96.99C126.98 97.53 126.69 98 126.31 98.4C125.95 98.8 125.52 99.13 125.02 99.39C124.54 99.63 124.03 99.81 123.49 99.93V100.11C124.09 100.23 124.66 100.42 125.2 100.68C125.74 100.94 126.2 101.29 126.58 101.73C126.98 102.15 127.29 102.65 127.51 103.23C127.75 103.81 127.87 104.47 127.87 105.21C127.87 106.13 127.68 106.97 127.3 107.73C126.94 108.49 126.42 109.14 125.74 109.68C125.06 110.22 124.25 110.64 123.31 110.94C122.37 111.22 121.32 111.36 120.16 111.36C119.14 111.36 118.24 111.25 117.46 111.03C116.68 110.83 115.99 110.55 115.39 110.19C114.81 109.83 114.3 109.42 113.86 108.96C113.42 108.48 113.04 107.98 112.72 107.46L115.63 105.24C115.87 105.66 116.13 106.05 116.41 106.41C116.69 106.75 117.01 107.05 117.37 107.31C117.73 107.57 118.14 107.77 118.6 107.91C119.06 108.05 119.58 108.12 120.16 108.12C121.32 108.12 122.21 107.84 122.83 107.28C123.45 106.72 123.76 105.95 123.76 104.97V104.76C123.76 103.8 123.42 103.07 122.74 102.57C122.08 102.07 121.12 101.82 119.86 101.82H117.79V98.52H119.86ZM146.368 111H131.848V107.34L138.418 101.58C139.538 100.6 140.358 99.72 140.878 98.94C141.398 98.14 141.658 97.28 141.658 96.36V95.97C141.658 95.05 141.358 94.35 140.758 93.87C140.158 93.37 139.428 93.12 138.568 93.12C137.488 93.12 136.668 93.43 136.108 94.05C135.548 94.65 135.148 95.38 134.908 96.24L131.488 94.92C131.708 94.22 132.018 93.56 132.418 92.94C132.818 92.3 133.318 91.74 133.918 91.26C134.538 90.78 135.258 90.4 136.078 90.12C136.898 89.84 137.838 89.7 138.898 89.7C139.998 89.7 140.978 89.86 141.838 90.18C142.698 90.48 143.418 90.91 143.998 91.47C144.598 92.03 145.048 92.69 145.348 93.45C145.668 94.21 145.828 95.04 145.828 95.94C145.828 96.82 145.688 97.62 145.408 98.34C145.128 99.06 144.748 99.75 144.268 100.41C143.788 101.05 143.228 101.67 142.588 102.27C141.948 102.85 141.268 103.44 140.548 104.04L136.138 107.67H146.368V111ZM153.377 111L167.897 90.06H171.377L156.857 111H153.377ZM154.817 101.58C153.117 101.58 151.817 101.08 150.917 100.08C150.037 99.06 149.597 97.58 149.597 95.64C149.597 93.7 150.037 92.23 150.917 91.23C151.817 90.21 153.117 89.7 154.817 89.7C156.517 89.7 157.807 90.21 158.687 91.23C159.567 92.23 160.007 93.7 160.007 95.64C160.007 97.58 159.567 99.06 158.687 100.08C157.807 101.08 156.517 101.58 154.817 101.58ZM154.817 99.3C156.057 99.3 156.677 98.35 156.677 96.45V94.83C156.677 92.93 156.057 91.98 154.817 91.98C153.577 91.98 152.957 92.93 152.957 94.83V96.45C152.957 98.35 153.577 99.3 154.817 99.3ZM169.937 111.36C168.257 111.36 166.967 110.86 166.067 109.86C165.187 108.84 164.747 107.36 164.747 105.42C164.747 103.48 165.187 102.01 166.067 101.01C166.967 99.99 168.257 99.48 169.937 99.48C171.637 99.48 172.927 99.99 173.807 101.01C174.707 102.01 175.157 103.48 175.157 105.42C175.157 107.36 174.707 108.84 173.807 109.86C172.927 110.86 171.637 111.36 169.937 111.36ZM169.937 109.08C171.177 109.08 171.797 108.13 171.797 106.23V104.61C171.797 102.71 171.177 101.76 169.937 101.76C168.697 101.76 168.077 102.71 168.077 104.61V106.23C168.077 108.13 168.697 109.08 169.937 109.08ZM114.46 147V126.06H127.93V129.57H118.42V134.64H126.7V138.15H118.42V147H114.46ZM130.714 147V131.34H134.554V134.58H134.704C134.804 134.16 134.954 133.76 135.154 133.38C135.374 132.98 135.654 132.63 135.994 132.33C136.334 132.03 136.734 131.79 137.194 131.61C137.674 131.43 138.224 131.34 138.844 131.34H139.684V134.97H138.484C137.184 134.97 136.204 135.16 135.544 135.54C134.884 135.92 134.554 136.54 134.554 137.4V147H130.714ZM144.411 129.06C143.611 129.06 143.031 128.88 142.671 128.52C142.331 128.16 142.161 127.7 142.161 127.14V126.54C142.161 125.98 142.331 125.52 142.671 125.16C143.031 124.8 143.611 124.62 144.411 124.62C145.191 124.62 145.761 124.8 146.121 125.16C146.481 125.52 146.661 125.98 146.661 126.54V127.14C146.661 127.7 146.481 128.16 146.121 128.52C145.761 128.88 145.191 129.06 144.411 129.06ZM142.491 131.34H146.331V147H142.491V131.34ZM155.673 147C154.353 147 153.343 146.66 152.643 145.98C151.963 145.28 151.623 144.29 151.623 143.01V134.4H149.313V131.34H150.513C151.093 131.34 151.483 131.21 151.683 130.95C151.903 130.67 152.013 130.26 152.013 129.72V127.05H155.463V131.34H158.673V134.4H155.463V143.94H158.433V147H155.673ZM163.923 129.06C163.123 129.06 162.543 128.88 162.183 128.52C161.843 128.16 161.673 127.7 161.673 127.14V126.54C161.673 125.98 161.843 125.52 162.183 125.16C162.543 124.8 163.123 124.62 163.923 124.62C164.703 124.62 165.273 124.8 165.633 125.16C165.993 125.52 166.173 125.98 166.173 126.54V127.14C166.173 127.7 165.993 128.16 165.633 128.52C165.273 128.88 164.703 129.06 163.923 129.06ZM162.003 131.34H165.843V147H162.003V131.34ZM180.014 144.39H179.864C179.584 145.29 179.054 146.01 178.274 146.55C177.494 147.09 176.584 147.36 175.544 147.36C173.564 147.36 172.044 146.65 170.984 145.23C169.944 143.81 169.424 141.78 169.424 139.14C169.424 136.52 169.944 134.51 170.984 133.11C172.044 131.69 173.564 130.98 175.544 130.98C176.584 130.98 177.494 131.25 178.274 131.79C179.054 132.31 179.584 133.02 179.864 133.92H180.014V124.8H183.854V147H180.014V144.39ZM176.774 144.18C177.694 144.18 178.464 143.96 179.084 143.52C179.704 143.08 180.014 142.45 180.014 141.63V136.65C180.014 135.89 179.704 135.28 179.084 134.82C178.464 134.36 177.694 134.13 176.774 134.13C175.774 134.13 174.964 134.47 174.344 135.15C173.744 135.81 173.444 136.7 173.444 137.82V140.52C173.444 141.64 173.744 142.53 174.344 143.19C174.964 143.85 175.774 144.18 176.774 144.18Z" fill="white"/>
<g clip-path="url(#clip4)">
<path d="M85.0614 121.985C83.1333 121.985 81.2855 122.384 79.6386 123.062C79.1967 121.626 78.795 120.149 78.4335 118.632C78.4737 118.353 78.4335 118.074 78.2326 117.834C78.072 117.196 77.9515 116.597 77.831 115.959L85.9451 115.28C86.4271 115.24 86.8288 114.841 86.869 114.362L87.7929 99.4766C87.7929 99.1574 87.6724 98.878 87.4715 98.6785C87.2305 98.4789 86.9092 98.3991 86.628 98.439L75.6217 100.434C75.5413 99.5166 75.5011 98.9578 75.5011 98.9179C75.5011 98.5987 75.3003 98.3193 75.0191 98.1198C74.7379 97.9202 74.4166 97.9202 74.0952 98.04L65.2982 101.711C64.776 101.911 64.535 102.51 64.776 103.028C64.9768 103.547 65.5794 103.787 66.1016 103.547L73.6132 100.434C73.7739 102.31 74.0952 105.862 74.7379 110.052C74.7379 110.052 74.6978 110.052 74.6978 110.092L56.702 127.652L48.2665 108.655H51.962C52.5244 108.655 52.9663 108.216 52.9663 107.658C52.9663 107.099 52.5244 106.66 51.962 106.66H41.5582C40.9959 106.66 40.554 107.099 40.554 107.658C40.554 108.216 40.9959 108.655 41.5582 108.655H45.9768L47.3426 111.688L45.9768 115.2C45.8563 115.121 45.6956 115.081 45.535 115.081H28.4631C27.9007 115.081 27.4589 115.52 27.4589 116.078C27.4589 116.637 27.9007 117.076 28.4631 117.076H45.2136L44.4102 119.111C42.5625 118.473 40.5942 118.114 38.5455 118.114C32.1586 118.114 26.2136 121.546 23.0804 127.093C22.7992 127.572 23.0001 128.17 23.4821 128.45C23.6428 128.53 23.8035 128.57 23.9641 128.57C24.3257 128.57 24.647 128.37 24.8479 128.051C27.6195 123.142 32.8817 120.069 38.5455 120.069C40.313 120.069 42.0403 120.348 43.647 120.907L43.0847 122.304C41.6787 121.825 40.1523 121.546 38.5455 121.546C30.7126 121.546 24.3257 127.891 24.3257 135.673C24.3257 143.455 30.7126 149.801 38.5455 149.801C45.7358 149.801 51.6808 144.493 52.6449 137.629H55.5773C56.2601 138.826 57.5857 139.664 59.072 139.664C61.2813 139.664 63.0889 137.868 63.0889 135.673C63.0889 135.314 63.0487 134.995 62.9684 134.675L76.7062 120.348C76.9874 121.506 77.3489 122.663 77.6703 123.781C73.6534 126.215 70.962 130.605 70.962 135.633C70.962 143.296 77.2284 149.521 84.9409 149.521C92.6534 149.521 98.9197 143.296 98.9197 135.633C98.9197 127.971 92.7337 121.985 85.0614 121.985ZM85.7041 100.634L84.9007 113.405L77.3891 114.003C76.5455 109.454 76.0233 105.263 75.7422 102.47L85.7041 100.634ZM38.6259 148.005C31.8775 148.005 26.4145 142.537 26.4145 135.873C26.4145 129.208 31.9176 123.741 38.6259 123.741C39.9515 123.741 41.2369 123.94 42.4419 124.339L37.702 136.431C37.5815 136.751 37.6216 137.07 37.8225 137.349C38.0233 137.629 38.3045 137.788 38.666 137.788H50.7168C49.7527 143.575 44.6914 148.005 38.6259 148.005ZM40.1121 135.793L44.2897 125.098C48.1861 127.133 50.8373 131.164 50.8775 135.833H40.1121V135.793ZM55.1756 135.793H52.8859C52.8859 130.286 49.6724 125.537 45.0529 123.182L45.6153 121.785C46.258 122.104 46.8605 122.424 47.4229 122.823C47.8648 123.142 48.5075 123.022 48.8288 122.543C49.1502 122.104 49.0297 121.466 48.5477 121.147C47.7844 120.748 47.0614 120.309 46.2982 119.949L48.5075 114.322L56.702 132.72C55.7781 133.438 55.1756 134.556 55.1756 135.793ZM59.1925 137.828C58.0677 137.828 57.184 136.95 57.184 135.833C57.184 134.715 58.0677 133.837 59.1925 133.837C60.3172 133.837 61.2009 134.715 61.2009 135.833C61.2009 136.95 60.277 137.828 59.1925 137.828ZM62.0445 133.039C61.3214 132.321 60.3172 131.842 59.1925 131.842C58.9916 131.842 58.7506 131.882 58.5498 131.882L57.5054 129.567L75.0593 112.447C75.3806 114.282 75.7422 116.238 76.2242 118.193L62.0445 133.039ZM85.0614 147.725C78.4737 147.725 73.091 142.378 73.091 135.833C73.091 131.722 75.22 128.051 78.4335 125.936C79.9197 130.166 81.8479 133.997 84.3383 136.551C84.5392 136.751 84.7802 136.87 85.0614 136.87C85.3024 136.87 85.5836 136.791 85.7443 136.591C86.146 136.192 86.146 135.593 85.7844 135.194C83.4546 132.8 81.647 129.128 80.2411 125.018C81.7274 124.379 83.3341 124.02 85.0614 124.02C91.6491 124.02 97.0318 129.368 97.0318 135.913C97.0318 142.457 91.6491 147.725 85.0614 147.725Z" fill="#CCEBC5"/>
</g>
<path d="M375.104 209H363.488V206.072L368.744 201.464C369.64 200.68 370.296 199.976 370.712 199.352C371.128 198.712 371.336 198.024 371.336 197.288V196.976C371.336 196.24 371.096 195.68 370.616 195.296C370.136 194.896 369.552 194.696 368.864 194.696C368 194.696 367.344 194.944 366.896 195.44C366.448 195.92 366.128 196.504 365.936 197.192L363.2 196.136C363.376 195.576 363.624 195.048 363.944 194.552C364.264 194.04 364.664 193.592 365.144 193.208C365.64 192.824 366.216 192.52 366.872 192.296C367.528 192.072 368.28 191.96 369.128 191.96C370.008 191.96 370.792 192.088 371.48 192.344C372.168 192.584 372.744 192.928 373.208 193.376C373.688 193.824 374.048 194.352 374.288 194.96C374.544 195.568 374.672 196.232 374.672 196.952C374.672 197.656 374.56 198.296 374.336 198.872C374.112 199.448 373.808 200 373.424 200.528C373.04 201.04 372.592 201.536 372.08 202.016C371.568 202.48 371.024 202.952 370.448 203.432L366.92 206.336H375.104V209ZM380.711 209L392.327 192.248H395.111L383.495 209H380.711ZM381.863 201.464C380.503 201.464 379.463 201.064 378.743 200.264C378.039 199.448 377.687 198.264 377.687 196.712C377.687 195.16 378.039 193.984 378.743 193.184C379.463 192.368 380.503 191.96 381.863 191.96C383.223 191.96 384.255 192.368 384.959 193.184C385.663 193.984 386.015 195.16 386.015 196.712C386.015 198.264 385.663 199.448 384.959 200.264C384.255 201.064 383.223 201.464 381.863 201.464ZM381.863 199.64C382.855 199.64 383.351 198.88 383.351 197.36V196.064C383.351 194.544 382.855 193.784 381.863 193.784C380.871 193.784 380.375 194.544 380.375 196.064V197.36C380.375 198.88 380.871 199.64 381.863 199.64ZM393.959 209.288C392.615 209.288 391.583 208.888 390.863 208.088C390.159 207.272 389.807 206.088 389.807 204.536C389.807 202.984 390.159 201.808 390.863 201.008C391.583 200.192 392.615 199.784 393.959 199.784C395.319 199.784 396.351 200.192 397.055 201.008C397.775 201.808 398.135 202.984 398.135 204.536C398.135 206.088 397.775 207.272 397.055 208.088C396.351 208.888 395.319 209.288 393.959 209.288ZM393.959 207.464C394.951 207.464 395.447 206.704 395.447 205.184V203.888C395.447 202.368 394.951 201.608 393.959 201.608C392.967 201.608 392.471 202.368 392.471 203.888V205.184C392.471 206.704 392.967 207.464 393.959 207.464ZM407.07 209V192.248H418.11V195.056H410.238V199.112H417.198V201.92H410.238V206.192H418.11V209H407.07ZM421.268 209V196.472H424.34V199.064H424.46C424.54 198.728 424.66 198.408 424.82 198.104C424.996 197.784 425.22 197.504 425.492 197.264C425.764 197.024 426.084 196.832 426.452 196.688C426.836 196.544 427.276 196.472 427.772 196.472H428.444V199.376H427.484C426.444 199.376 425.66 199.528 425.132 199.832C424.604 200.136 424.34 200.632 424.34 201.32V209H421.268ZM430.69 191.24H433.762V198.56H433.882C434.138 197.888 434.538 197.328 435.082 196.88C435.642 196.416 436.41 196.184 437.386 196.184C438.682 196.184 439.674 196.608 440.362 197.456C441.05 198.304 441.394 199.512 441.394 201.08V209H438.322V201.392C438.322 200.496 438.162 199.824 437.842 199.376C437.522 198.928 436.994 198.704 436.258 198.704C435.938 198.704 435.626 198.752 435.322 198.848C435.034 198.928 434.77 199.056 434.53 199.232C434.306 199.392 434.122 199.6 433.978 199.856C433.834 200.096 433.762 200.384 433.762 200.72V209H430.69V191.24ZM447.3 209L443.124 196.472H446.148L447.9 201.872L449.124 206.336H449.292L450.516 201.872L452.22 196.472H455.148L450.948 209H447.3ZM462.074 209.288C461.146 209.288 460.314 209.136 459.578 208.832C458.858 208.512 458.242 208.072 457.73 207.512C457.234 206.936 456.85 206.248 456.578 205.448C456.306 204.632 456.17 203.72 456.17 202.712C456.17 201.72 456.298 200.824 456.554 200.024C456.826 199.224 457.21 198.544 457.706 197.984C458.202 197.408 458.81 196.968 459.53 196.664C460.25 196.344 461.066 196.184 461.978 196.184C462.954 196.184 463.802 196.352 464.522 196.688C465.242 197.024 465.834 197.48 466.298 198.056C466.762 198.632 467.106 199.304 467.33 200.072C467.57 200.824 467.69 201.632 467.69 202.496V203.504H459.362V203.816C459.362 204.728 459.618 205.464 460.13 206.024C460.642 206.568 461.402 206.84 462.41 206.84C463.178 206.84 463.802 206.68 464.282 206.36C464.778 206.04 465.218 205.632 465.602 205.136L467.258 206.984C466.746 207.704 466.042 208.272 465.146 208.688C464.266 209.088 463.242 209.288 462.074 209.288ZM462.026 198.488C461.21 198.488 460.562 198.76 460.082 199.304C459.602 199.848 459.362 200.552 459.362 201.416V201.608H464.498V201.392C464.498 200.528 464.282 199.832 463.85 199.304C463.434 198.76 462.826 198.488 462.026 198.488ZM470.393 209V196.472H473.465V199.064H473.585C473.665 198.728 473.785 198.408 473.945 198.104C474.121 197.784 474.345 197.504 474.617 197.264C474.889 197.024 475.209 196.832 475.577 196.688C475.961 196.544 476.401 196.472 476.897 196.472H477.569V199.376H476.609C475.569 199.376 474.785 199.528 474.257 199.832C473.729 200.136 473.465 200.632 473.465 201.32V209H470.393ZM482.691 209L478.515 196.472H481.539L483.291 201.872L484.515 206.336H484.683L485.907 201.872L487.611 196.472H490.539L486.339 209H482.691Z" fill="white"/>
<g clip-path="url(#clip5)">
<path d="M337.327 191.401C337.23 191.853 337.52 192.272 337.941 192.369L346.117 194.113C346.181 194.113 346.246 194.145 346.278 194.145C346.666 194.145 346.989 193.887 347.054 193.5C347.151 193.047 346.86 192.628 346.44 192.531L338.264 190.787C337.844 190.69 337.424 190.949 337.327 191.401Z" fill="#CCEBC5"/>
<path d="M347.7 199.473C346.925 199.473 346.149 199.667 345.503 199.957C345.276 199.15 344.921 197.761 344.727 196.986C343.952 194.113 343.273 193.66 339.201 193.112C335.84 192.659 331.413 191.755 329.894 191.465C329.926 191.174 329.926 190.883 329.959 190.593C331.025 189.85 331.639 187.493 332.77 182.553L332.996 181.616C333.158 180.906 333.417 180.486 333.804 180.357C334.741 180.098 336.551 181.39 337.553 182.359C337.876 182.682 338.393 182.682 338.684 182.359C339.007 182.036 339.007 181.519 338.684 181.229C338.361 180.906 335.549 178.161 333.32 178.807C332.641 179.001 331.768 179.582 331.381 181.261L331.154 182.197C330.702 184.232 329.959 187.428 329.345 188.72C329.312 188.72 329.248 188.688 329.215 188.688C328.989 187.461 329.054 184.91 329.054 183.424C329.086 181.939 329.086 180.647 328.989 179.84C328.828 178.581 328.246 178.161 327.761 178.032C326.404 177.677 324.853 179.517 324.045 180.647C323.786 181.003 323.883 181.519 324.239 181.778C324.594 182.036 325.111 181.939 325.37 181.584C326.016 180.68 326.889 179.808 327.309 179.614C327.341 179.679 327.373 179.808 327.373 180.002C327.47 180.68 327.438 181.971 327.406 183.36C327.341 187.558 327.406 189.656 328.246 190.431C328.181 191.562 328.052 192.595 327.89 193.531C327.18 193.338 326.307 193.176 325.402 193.176C320.749 193.176 317 196.954 317 201.572C317 206.189 320.781 209.967 325.402 209.967C330.023 209.967 333.804 206.189 333.804 201.572C333.804 198.407 332.059 195.663 329.474 194.209C329.539 193.822 329.603 193.434 329.668 193.015C331.316 193.37 335.646 194.242 338.943 194.661C342.53 195.146 342.562 195.307 343.144 197.374C343.305 197.923 343.531 198.762 343.725 199.505C343.434 199.441 343.111 199.408 342.82 199.408C339.912 199.408 337.553 201.765 337.553 204.672C337.553 207.578 339.912 209.935 342.82 209.935C343.693 209.935 344.533 209.709 345.276 209.321C346.02 209.709 346.86 209.935 347.732 209.935C350.641 209.935 353 207.578 353 204.672C353 201.765 350.609 199.473 347.7 199.473ZM332.221 201.604C332.221 205.35 329.183 208.385 325.434 208.385C321.686 208.385 318.648 205.35 318.648 201.604C318.648 197.858 321.686 194.823 325.434 194.823C326.21 194.823 326.953 194.952 327.664 195.21C326.662 199.214 324.95 201.055 324.917 201.087C324.594 201.41 324.627 201.927 324.95 202.218C325.111 202.379 325.305 202.444 325.499 202.444C325.725 202.444 325.919 202.347 326.081 202.185C326.178 202.088 328.02 200.119 329.151 195.921C330.993 197.116 332.221 199.214 332.221 201.604ZM339.169 204.736C339.169 202.734 340.817 201.087 342.82 201.087C343.176 201.087 343.499 201.152 343.79 201.216C342.95 202.153 342.433 203.38 342.433 204.736C342.433 206.092 342.95 207.319 343.79 208.256C343.467 208.353 343.144 208.385 342.82 208.385C340.785 208.385 339.169 206.738 339.169 204.736ZM347.7 208.385C345.697 208.385 344.048 206.738 344.048 204.736C344.048 202.734 345.697 201.087 347.7 201.087C349.704 201.087 351.352 202.734 351.352 204.736C351.384 206.738 349.736 208.385 347.7 208.385Z" fill="#CCEBC5"/>
</g>
<mask id="mask0" style="mask-type:alpha" maskUnits="userSpaceOnUse" x="597" y="-150" width="572" height="394">
<g clip-path="url(#clip6)">
<path d="M1072.33 23.6432C1057.84 23.6432 1043.96 26.6626 1031.58 31.7955C1028.26 20.9258 1025.24 9.754 1022.52 -1.71968C1022.83 -3.83325 1022.52 -5.94682 1021.01 -7.75847C1004.71 -79.318 1000.49 -149.67 1000.49 -150.878C1000.49 -153.293 998.977 -155.407 996.864 -156.916C994.751 -158.426 992.336 -158.426 989.921 -157.52L923.812 -129.742C919.887 -128.232 918.076 -123.703 919.887 -119.778C921.397 -115.853 925.925 -114.041 929.849 -115.853L986.299 -139.404C987.506 -125.213 989.921 -98.3402 994.751 -66.6366C994.751 -66.6366 994.449 -66.6366 994.449 -66.3346L859.211 66.5186L795.818 -77.2044H823.591C827.817 -77.2044 831.137 -80.5258 831.137 -84.7529C831.137 -88.9801 827.817 -92.3014 823.591 -92.3014H745.406C741.18 -92.3014 737.859 -88.9801 737.859 -84.7529C737.859 -80.5258 741.18 -77.2044 745.406 -77.2044H778.612L788.875 -54.2571L767.141 2.20552C753.255 -2.6255 738.463 -5.34296 723.068 -5.34296C675.07 -5.34296 630.393 20.6238 606.847 62.5933C604.734 66.2166 606.244 70.7457 609.866 72.8593C611.074 73.4632 612.281 73.7651 613.489 73.7651C616.205 73.7651 618.62 72.2554 620.13 69.8399C640.959 32.7014 680.504 9.45207 723.068 9.45207C736.35 9.45207 749.33 11.5656 761.405 15.7928L757.179 26.3607C746.614 22.7374 735.142 20.6238 723.068 20.6238C664.203 20.6238 616.205 68.6321 616.205 127.51C616.205 186.388 664.203 234.397 723.068 234.397C777.102 234.397 821.779 194.239 829.024 142.305H851.061C856.193 151.363 866.154 157.704 877.324 157.704C893.926 157.704 907.511 144.117 907.511 127.51C907.511 124.793 907.209 122.377 906.605 119.962L1009.84 11.5656C1011.96 20.3219 1014.67 29.0781 1017.09 37.5324C986.903 55.9507 966.677 89.164 966.677 127.208C966.677 185.181 1013.77 232.283 1071.73 232.283C1129.69 232.283 1176.78 185.181 1176.78 127.208C1176.78 69.236 1129.99 23.6432 1072.33 23.6432ZM723.369 220.507C672.655 220.507 631.601 179.142 631.601 128.718C631.601 78.2942 672.957 36.9285 723.369 36.9285C733.331 36.9285 742.991 38.4382 752.047 41.4576L716.426 132.945C715.521 135.361 715.823 137.776 717.332 139.89C718.841 142.003 720.955 143.211 723.671 143.211H814.233C806.988 186.992 768.952 220.507 723.369 220.507ZM765.933 47.1945C795.215 62.5934 815.138 93.0892 815.44 128.416H734.539L765.933 47.1945ZM847.74 128.114H830.534C830.534 86.4465 806.384 50.5158 771.669 32.7014L775.895 22.1335C780.725 24.549 785.253 26.9645 789.479 29.9839C792.8 32.3994 797.63 31.4936 800.045 27.8703C802.46 24.549 801.554 19.718 797.932 17.3025C792.196 14.2831 786.762 10.9618 781.027 8.24431L797.63 -34.3291L859.211 104.865C852.268 110.3 847.74 118.754 847.74 128.114ZM877.927 143.513C869.475 143.513 862.834 136.87 862.834 128.416C862.834 119.962 869.475 113.319 877.927 113.319C886.38 113.319 893.021 119.962 893.021 128.416C893.021 136.87 886.078 143.513 877.927 143.513ZM899.36 107.28C893.926 101.845 886.38 98.2222 877.927 98.2222C876.418 98.2222 874.607 98.5241 873.097 98.5241L865.249 81.0116L997.166 -48.5202C999.581 -34.631 1002.3 -19.836 1005.92 -5.04102L899.36 107.28ZM1072.33 218.394C1022.83 218.394 982.374 177.934 982.374 128.416C982.374 97.3163 998.374 69.5379 1022.52 53.5352C1033.69 85.5407 1048.18 114.527 1066.9 133.851C1068.41 135.361 1070.22 136.266 1072.33 136.266C1074.14 136.266 1076.26 135.663 1077.46 134.153C1080.48 131.134 1080.48 126.604 1077.77 123.585C1060.26 105.469 1046.67 77.6903 1036.11 46.5906C1047.28 41.7595 1059.35 39.0421 1072.33 39.0421C1121.84 39.0421 1162.29 79.5019 1162.29 129.02C1162.29 178.538 1121.84 218.394 1072.33 218.394Z" fill="white"/>
</g>
</mask>
<g mask="url(#mask0)">
<rect x="575" width="93" height="240" fill="#AE017E"/>
</g>
</g>
<defs>
<clipPath id="clip0">
<rect width="668" height="240" fill="white"/>
</clipPath>
<clipPath id="clip1">
<rect width="71" height="49" fill="white" transform="translate(222 101)"/>
</clipPath>
<clipPath id="clip2">
<rect width="67" height="46" fill="white" transform="translate(430 104)"/>
</clipPath>
<clipPath id="clip3">
<rect width="54" height="37" fill="white" transform="translate(23 173)"/>
</clipPath>
<clipPath id="clip4">
<rect width="76" height="52" fill="white" transform="translate(23 98)"/>
</clipPath>
<clipPath id="clip5">
<rect width="36" height="32" fill="white" transform="translate(317 178)"/>
</clipPath>
<clipPath id="clip6">
<rect width="571.139" height="393.427" fill="white" transform="translate(597 -150)"/>
</clipPath>
</defs>
</svg>
