<svg width="418" height="280" viewBox="0 0 418 280" fill="none" xmlns="http://www.w3.org/2000/svg">
<rect width="418" height="280" fill="white"/>
<path d="M16 164C16 161.791 17.7909 160 20 160H292C294.209 160 296 161.791 296 164V176C296 178.209 294.209 180 292 180H20C17.7909 180 16 178.209 16 176V164Z" fill="#DCDCDC"/>
<path d="M16 224C16 221.791 17.7909 220 20 220H292C294.209 220 296 221.791 296 224V236C296 238.209 294.209 240 292 240H20C17.7909 240 16 238.209 16 236V224Z" fill="#DCDCDC"/>
<path d="M16 148C16 145.791 17.7909 144 20 144H130C132.209 144 134 145.791 134 148V152C134 154.209 132.209 156 130 156H20C17.7909 156 16 154.209 16 152V148Z" fill="#DCDCDC"/>
<path d="M16 208C16 205.791 17.7909 204 20 204H130C132.209 204 134 205.791 134 208V212C134 214.209 132.209 216 130 216H20C17.7909 216 16 214.209 16 212V208Z" fill="#DCDCDC"/>
<path d="M24.08 29.28H19.424V34H17.312V22.832H19.424V27.408H24.08V22.832H26.192V34H24.08V29.28ZM30.476 34L27.692 25.648H29.708L30.876 29.248L31.692 32.224H31.804L32.62 29.248L33.756 25.648H35.708L32.908 34H30.476ZM40.2616 34.192C39.6643 34.192 39.1256 34.0907 38.6456 33.888C38.1763 33.6853 37.771 33.392 37.4296 33.008C37.099 32.624 36.843 32.1653 36.6616 31.632C36.4803 31.088 36.3896 30.48 36.3896 29.808C36.3896 29.136 36.4803 28.5333 36.6616 28C36.843 27.4667 37.099 27.0133 37.4296 26.64C37.771 26.256 38.1763 25.9627 38.6456 25.76C39.1256 25.5573 39.6643 25.456 40.2616 25.456C40.859 25.456 41.3976 25.5573 41.8776 25.76C42.3576 25.9627 42.763 26.256 43.0936 26.64C43.435 27.0133 43.6963 27.4667 43.8776 28C44.059 28.5333 44.1496 29.136 44.1496 29.808C44.1496 30.48 44.059 31.088 43.8776 31.632C43.6963 32.1653 43.435 32.624 43.0936 33.008C42.763 33.392 42.3576 33.6853 41.8776 33.888C41.3976 34.0907 40.859 34.192 40.2616 34.192ZM40.2616 32.544C40.8056 32.544 41.2323 32.3787 41.5416 32.048C41.851 31.7173 42.0056 31.232 42.0056 30.592V29.04C42.0056 28.4107 41.851 27.9307 41.5416 27.6C41.2323 27.2693 40.8056 27.104 40.2616 27.104C39.7283 27.104 39.307 27.2693 38.9976 27.6C38.6883 27.9307 38.5336 28.4107 38.5336 29.04V30.592C38.5336 31.232 38.6883 31.7173 38.9976 32.048C39.307 32.3787 39.7283 32.544 40.2616 32.544ZM45.9653 34V25.648H48.0133V27.376H48.0933C48.1466 27.152 48.2266 26.9387 48.3333 26.736C48.4506 26.5227 48.5999 26.336 48.7812 26.176C48.9626 26.016 49.1759 25.888 49.4213 25.792C49.6773 25.696 49.9706 25.648 50.3013 25.648H50.7493V27.584H50.1093C49.4159 27.584 48.8933 27.6853 48.5413 27.888C48.1893 28.0907 48.0133 28.4213 48.0133 28.88V34H45.9653ZM52.2465 34V25.648H54.2945V27.04H54.3745C54.5452 26.592 54.8118 26.2187 55.1745 25.92C55.5478 25.6107 56.0598 25.456 56.7105 25.456C57.5745 25.456 58.2358 25.7387 58.6945 26.304C59.1532 26.8693 59.3825 27.6747 59.3825 28.72V34H57.3345V28.928C57.3345 28.3307 57.2278 27.8827 57.0145 27.584C56.8012 27.2853 56.4492 27.136 55.9585 27.136C55.7452 27.136 55.5372 27.168 55.3345 27.232C55.1425 27.2853 54.9665 27.3707 54.8065 27.488C54.6572 27.5947 54.5345 27.7333 54.4385 27.904C54.3425 28.064 54.2945 28.256 54.2945 28.48V34H52.2465ZM67.7968 34C67.3488 34 66.9914 33.872 66.7248 33.616C66.4688 33.3493 66.3088 32.9973 66.2448 32.56H66.1488C66.0101 33.104 65.7274 33.5147 65.3008 33.792C64.8741 34.0587 64.3461 34.192 63.7168 34.192C62.8634 34.192 62.2074 33.968 61.7488 33.52C61.2901 33.072 61.0608 32.4747 61.0608 31.728C61.0608 30.864 61.3701 30.224 61.9888 29.808C62.6074 29.3813 63.4874 29.168 64.6288 29.168H66.0528V28.56C66.0528 28.0907 65.9301 27.728 65.6848 27.472C65.4394 27.216 65.0448 27.088 64.5008 27.088C64.0208 27.088 63.6314 27.1947 63.3328 27.408C63.0448 27.6107 62.7994 27.856 62.5968 28.144L61.3808 27.056C61.6901 26.576 62.1008 26.192 62.6128 25.904C63.1248 25.6053 63.8021 25.456 64.6448 25.456C65.7754 25.456 66.6341 25.712 67.2208 26.224C67.8074 26.736 68.1008 27.472 68.1008 28.432V32.368H68.9328V34H67.7968ZM64.4048 32.704C64.8634 32.704 65.2528 32.6027 65.5728 32.4C65.8928 32.1973 66.0528 31.8987 66.0528 31.504V30.4H64.7408C63.6741 30.4 63.1408 30.7413 63.1408 31.424V31.696C63.1408 32.0373 63.2474 32.2933 63.4608 32.464C63.6848 32.624 63.9994 32.704 64.4048 32.704ZM64.6927 24.992C64.3834 24.992 64.0901 24.9387 63.8128 24.832C63.5461 24.7253 63.3114 24.576 63.1088 24.384C62.9061 24.192 62.7461 23.9627 62.6288 23.696C62.5221 23.4293 62.4688 23.1413 62.4688 22.832C62.4688 22.5227 62.5221 22.2347 62.6288 21.968C62.7461 21.7013 62.9061 21.472 63.1088 21.28C63.3114 21.088 63.5461 20.9387 63.8128 20.832C64.0901 20.7253 64.3834 20.672 64.6927 20.672C65.0021 20.672 65.2901 20.7253 65.5568 20.832C65.8341 20.9387 66.0688 21.088 66.2608 21.28C66.4634 21.472 66.6234 21.7013 66.7408 21.968C66.8581 22.2347 66.9168 22.5227 66.9168 22.832C66.9168 23.1413 66.8581 23.4293 66.7408 23.696C66.6234 23.9627 66.4634 24.192 66.2608 24.384C66.0688 24.576 65.8341 24.7253 65.5568 24.832C65.2901 24.9387 65.0021 24.992 64.6927 24.992ZM64.6927 23.904C65.2581 23.904 65.5408 23.6267 65.5408 23.072V22.592C65.5408 22.0373 65.2581 21.76 64.6927 21.76C64.1274 21.76 63.8448 22.0373 63.8448 22.592V23.072C63.8448 23.6267 64.1274 23.904 64.6927 23.904ZM70.5903 34V25.648H72.6383V27.376H72.7183C72.7716 27.152 72.8516 26.9387 72.9583 26.736C73.0756 26.5227 73.2249 26.336 73.4062 26.176C73.5876 26.016 73.8009 25.888 74.0463 25.792C74.3023 25.696 74.5956 25.648 74.9263 25.648H75.3743V27.584H74.7343C74.0409 27.584 73.5183 27.6853 73.1663 27.888C72.8143 28.0907 72.6383 28.4213 72.6383 28.88V34H70.5903ZM80.6528 22.16H82.7008V27.024H82.7648C82.9141 26.544 83.1968 26.1653 83.6128 25.888C84.0288 25.6 84.5141 25.456 85.0688 25.456C86.1354 25.456 86.9461 25.8347 87.5008 26.592C88.0661 27.3387 88.3488 28.4107 88.3488 29.808C88.3488 31.216 88.0661 32.2987 87.5008 33.056C86.9461 33.8133 86.1354 34.192 85.0688 34.192C84.5141 34.192 84.0288 34.048 83.6128 33.76C83.2074 33.472 82.9248 33.088 82.7648 32.608H82.7008V34H80.6528V22.16ZM84.4128 32.496C84.9461 32.496 85.3781 32.32 85.7088 31.968C86.0394 31.616 86.2048 31.1413 86.2048 30.544V29.104C86.2048 28.5067 86.0394 28.032 85.7088 27.68C85.3781 27.3173 84.9461 27.136 84.4128 27.136C83.9221 27.136 83.5114 27.2587 83.1808 27.504C82.8608 27.7493 82.7008 28.0747 82.7008 28.48V31.136C82.7008 31.5733 82.8608 31.9093 83.1808 32.144C83.5114 32.3787 83.9221 32.496 84.4128 32.496ZM92.2945 34C91.5905 34 91.0732 33.824 90.7425 33.472C90.4118 33.12 90.2465 32.624 90.2465 31.984V22.16H92.2945V32.368H93.3985V34H92.2945ZM98.3256 34.192C97.707 34.192 97.1523 34.0907 96.6616 33.888C96.1816 33.6747 95.771 33.3813 95.4296 33.008C95.099 32.624 94.843 32.1653 94.6616 31.632C94.4803 31.088 94.3896 30.48 94.3896 29.808C94.3896 29.1467 94.475 28.5493 94.6456 28.016C94.827 27.4827 95.083 27.0293 95.4136 26.656C95.7443 26.272 96.1496 25.9787 96.6296 25.776C97.1096 25.5627 97.6536 25.456 98.2616 25.456C98.9123 25.456 99.4776 25.568 99.9576 25.792C100.438 26.016 100.832 26.32 101.142 26.704C101.451 27.088 101.68 27.536 101.83 28.048C101.99 28.5493 102.07 29.088 102.07 29.664V30.336H96.5176V30.544C96.5176 31.152 96.6883 31.6427 97.0296 32.016C97.371 32.3787 97.8776 32.56 98.5496 32.56C99.0616 32.56 99.4776 32.4533 99.7976 32.24C100.128 32.0267 100.422 31.7547 100.678 31.424L101.782 32.656C101.44 33.136 100.971 33.5147 100.374 33.792C99.787 34.0587 99.1043 34.192 98.3256 34.192ZM98.2936 26.992C97.7496 26.992 97.3176 27.1733 96.9976 27.536C96.6776 27.8987 96.5176 28.368 96.5176 28.944V29.072H99.9416V28.928C99.9416 28.352 99.7976 27.888 99.5096 27.536C99.2323 27.1733 98.827 26.992 98.2936 26.992ZM105.523 34L102.739 25.648H104.755L105.923 29.248L106.739 32.224H106.851L107.667 29.248L108.803 25.648H110.755L107.955 34H105.523ZM121.087 32.608H121.007C120.857 33.088 120.575 33.472 120.159 33.76C119.743 34.048 119.257 34.192 118.703 34.192C117.647 34.192 116.836 33.8133 116.271 33.056C115.716 32.2987 115.439 31.216 115.439 29.808C115.439 28.4107 115.716 27.3387 116.271 26.592C116.836 25.8347 117.647 25.456 118.703 25.456C119.257 25.456 119.743 25.6 120.159 25.888C120.575 26.1653 120.857 26.544 121.007 27.024H121.087V22.16H123.135V34H121.087V32.608ZM119.359 32.496C119.849 32.496 120.26 32.3787 120.591 32.144C120.921 31.9093 121.087 31.5733 121.087 31.136V28.48C121.087 28.0747 120.921 27.7493 120.591 27.504C120.26 27.2587 119.849 27.136 119.359 27.136C118.825 27.136 118.393 27.3173 118.063 27.68C117.743 28.032 117.583 28.5067 117.583 29.104V30.544C117.583 31.1413 117.743 31.616 118.063 31.968C118.393 32.32 118.825 32.496 119.359 32.496ZM130.489 32.608H130.409C130.334 32.8213 130.233 33.024 130.105 33.216C129.987 33.3973 129.833 33.5627 129.641 33.712C129.459 33.8613 129.235 33.9787 128.969 34.064C128.713 34.1493 128.414 34.192 128.073 34.192C127.209 34.192 126.547 33.9093 126.089 33.344C125.63 32.7787 125.401 31.9733 125.401 30.928V25.648H127.449V30.72C127.449 31.296 127.561 31.7387 127.785 32.048C128.009 32.3467 128.366 32.496 128.857 32.496C129.059 32.496 129.257 32.4693 129.449 32.416C129.651 32.3627 129.827 32.2827 129.977 32.176C130.126 32.0587 130.249 31.92 130.345 31.76C130.441 31.5893 130.489 31.392 130.489 31.168V25.648H132.536V34H130.489V32.608ZM142.06 34.192C141.441 34.192 140.887 34.0907 140.396 33.888C139.916 33.6747 139.505 33.3813 139.164 33.008C138.833 32.624 138.577 32.1653 138.396 31.632C138.215 31.088 138.124 30.48 138.124 29.808C138.124 29.1467 138.209 28.5493 138.38 28.016C138.561 27.4827 138.817 27.0293 139.148 26.656C139.479 26.272 139.884 25.9787 140.364 25.776C140.844 25.5627 141.388 25.456 141.996 25.456C142.647 25.456 143.212 25.568 143.692 25.792C144.172 26.016 144.567 26.32 144.876 26.704C145.185 27.088 145.415 27.536 145.564 28.048C145.724 28.5493 145.804 29.088 145.804 29.664V30.336H140.252V30.544C140.252 31.152 140.423 31.6427 140.764 32.016C141.105 32.3787 141.612 32.56 142.284 32.56C142.796 32.56 143.212 32.4533 143.532 32.24C143.863 32.0267 144.156 31.7547 144.412 31.424L145.516 32.656C145.175 33.136 144.705 33.5147 144.108 33.792C143.521 34.0587 142.839 34.192 142.06 34.192ZM142.028 26.992C141.484 26.992 141.052 27.1733 140.732 27.536C140.412 27.8987 140.252 28.368 140.252 28.944V29.072H143.676V28.928C143.676 28.352 143.532 27.888 143.244 27.536C142.967 27.1733 142.561 26.992 142.028 26.992ZM147.606 34V25.648H149.654V27.04H149.734C149.905 26.592 150.171 26.2187 150.534 25.92C150.907 25.6107 151.419 25.456 152.07 25.456C152.934 25.456 153.595 25.7387 154.054 26.304C154.513 26.8693 154.742 27.6747 154.742 28.72V34H152.694V28.928C152.694 28.3307 152.587 27.8827 152.374 27.584C152.161 27.2853 151.809 27.136 151.318 27.136C151.105 27.136 150.897 27.168 150.694 27.232C150.502 27.2853 150.326 27.3707 150.166 27.488C150.017 27.5947 149.894 27.7333 149.798 27.904C149.702 28.064 149.654 28.256 149.654 28.48V34H147.606ZM159.06 34C158.356 34 157.839 33.824 157.508 33.472C157.177 33.12 157.012 32.624 157.012 31.984V22.16H159.06V32.368H160.164V34H159.06ZM162.739 24.432C162.313 24.432 162.003 24.336 161.811 24.144C161.63 23.952 161.539 23.7067 161.539 23.408V23.088C161.539 22.7893 161.63 22.544 161.811 22.352C162.003 22.16 162.313 22.064 162.739 22.064C163.155 22.064 163.459 22.16 163.651 22.352C163.843 22.544 163.939 22.7893 163.939 23.088V23.408C163.939 23.7067 163.843 23.952 163.651 24.144C163.459 24.336 163.155 24.432 162.739 24.432ZM161.715 25.648H163.763V34H161.715V25.648ZM173.673 34.704C173.673 35.1413 173.593 35.5253 173.433 35.856C173.284 36.1973 173.033 36.48 172.681 36.704C172.329 36.928 171.876 37.0987 171.321 37.216C170.766 37.3333 170.089 37.392 169.289 37.392C168.585 37.392 167.988 37.344 167.497 37.248C167.006 37.1627 166.601 37.0347 166.281 36.864C165.972 36.704 165.748 36.5013 165.609 36.256C165.47 36.0107 165.401 35.7333 165.401 35.424C165.401 34.9547 165.529 34.5867 165.785 34.32C166.052 34.064 166.42 33.8987 166.889 33.824V33.648C166.548 33.5627 166.281 33.3973 166.089 33.152C165.908 32.896 165.817 32.5973 165.817 32.256C165.817 32.0427 165.86 31.856 165.945 31.696C166.03 31.5253 166.142 31.3813 166.281 31.264C166.43 31.1467 166.596 31.0507 166.777 30.976C166.958 30.8907 167.15 30.8267 167.353 30.784V30.72C166.841 30.4853 166.457 30.16 166.201 29.744C165.956 29.328 165.833 28.8427 165.833 28.288C165.833 27.4347 166.126 26.752 166.713 26.24C167.3 25.7173 168.158 25.456 169.289 25.456C169.545 25.456 169.796 25.472 170.041 25.504C170.297 25.536 170.532 25.5893 170.745 25.664V25.392C170.745 24.5813 171.14 24.176 171.929 24.176H173.225V25.744H171.449V25.968C171.886 26.2133 172.212 26.5333 172.425 26.928C172.638 27.3227 172.745 27.776 172.745 28.288C172.745 29.1307 172.452 29.808 171.865 30.32C171.289 30.832 170.43 31.088 169.289 31.088C168.798 31.088 168.372 31.04 168.009 30.944C167.849 31.0187 167.71 31.12 167.593 31.248C167.476 31.3653 167.417 31.5147 167.417 31.696C167.417 32.112 167.78 32.32 168.505 32.32H170.745C171.769 32.32 172.51 32.5333 172.969 32.96C173.438 33.376 173.673 33.9573 173.673 34.704ZM171.753 34.944C171.753 34.6773 171.646 34.4693 171.433 34.32C171.22 34.1707 170.852 34.096 170.329 34.096H167.481C167.193 34.3093 167.049 34.5973 167.049 34.96C167.049 35.28 167.182 35.5307 167.449 35.712C167.716 35.8933 168.169 35.984 168.809 35.984H169.833C170.505 35.984 170.99 35.8987 171.289 35.728C171.598 35.5573 171.753 35.296 171.753 34.944ZM169.289 29.696C170.292 29.696 170.793 29.2693 170.793 28.416V28.144C170.793 27.2907 170.292 26.864 169.289 26.864C168.286 26.864 167.785 27.2907 167.785 28.144V28.416C167.785 29.2693 168.286 29.696 169.289 29.696ZM176.296 30.384V27.888C177.149 27.856 177.795 27.696 178.232 27.408C178.68 27.1093 178.904 26.6507 178.904 26.032V25.808C178.904 25.36 178.771 25.0133 178.504 24.768C178.237 24.5227 177.88 24.4 177.432 24.4C176.952 24.4 176.563 24.544 176.264 24.832C175.976 25.1093 175.773 25.472 175.656 25.92L173.944 25.216C174.04 24.8853 174.179 24.5653 174.36 24.256C174.541 23.9467 174.776 23.6747 175.064 23.44C175.352 23.1947 175.699 23.0027 176.104 22.864C176.509 22.7147 176.979 22.64 177.512 22.64C178.056 22.64 178.547 22.72 178.984 22.88C179.421 23.0293 179.795 23.248 180.104 23.536C180.413 23.8133 180.653 24.1493 180.824 24.544C180.995 24.9387 181.08 25.376 181.08 25.856C181.08 26.3253 181 26.7467 180.84 27.12C180.691 27.4827 180.483 27.8027 180.216 28.08C179.949 28.3467 179.645 28.5653 179.304 28.736C178.963 28.896 178.611 29.008 178.248 29.072V30.384H176.296ZM177.288 34.192C176.84 34.192 176.515 34.0853 176.312 33.872C176.109 33.6587 176.008 33.3867 176.008 33.056V32.736C176.008 32.4053 176.109 32.1333 176.312 31.92C176.515 31.7067 176.84 31.6 177.288 31.6C177.747 31.6 178.077 31.7067 178.28 31.92C178.483 32.1333 178.584 32.4053 178.584 32.736V33.056C178.584 33.3867 178.483 33.6587 178.28 33.872C178.077 34.0853 177.747 34.192 177.288 34.192Z" fill="#1A1A1A"/>
<path d="M17.488 54.832H21.232C21.9253 54.832 22.5547 54.9493 23.12 55.184C23.6853 55.4187 24.1653 55.7707 24.56 56.24C24.9653 56.6987 25.2747 57.28 25.488 57.984C25.7013 58.6773 25.808 59.488 25.808 60.416C25.808 61.344 25.7013 62.16 25.488 62.864C25.2747 63.5573 24.9653 64.1387 24.56 64.608C24.1653 65.0667 23.6853 65.4133 23.12 65.648C22.5547 65.8827 21.9253 66 21.232 66H17.488V54.832ZM21.232 64.816C21.6907 64.816 22.112 64.7413 22.496 64.592C22.88 64.432 23.2107 64.2027 23.488 63.904C23.7653 63.6053 23.9787 63.2427 24.128 62.816C24.288 62.3787 24.368 61.8827 24.368 61.328V59.504C24.368 58.9493 24.288 58.4587 24.128 58.032C23.9787 57.5947 23.7653 57.2267 23.488 56.928C23.2107 56.6293 22.88 56.4053 22.496 56.256C22.112 56.096 21.6907 56.016 21.232 56.016H18.832V64.816H21.232ZM34.0944 66C33.6144 66 33.2677 65.872 33.0544 65.616C32.8517 65.36 32.7237 65.04 32.6704 64.656H32.5904C32.409 65.168 32.1104 65.552 31.6944 65.808C31.2784 66.064 30.7824 66.192 30.2064 66.192C29.3317 66.192 28.649 65.968 28.1584 65.52C27.6784 65.072 27.4384 64.464 27.4384 63.696C27.4384 62.9173 27.721 62.32 28.2864 61.904C28.8624 61.488 29.753 61.28 30.9584 61.28H32.5904V60.464C32.5904 59.8773 32.4304 59.4293 32.1104 59.12C31.7904 58.8107 31.2997 58.656 30.6384 58.656C30.137 58.656 29.7157 58.768 29.3744 58.992C29.0437 59.216 28.7664 59.5147 28.5424 59.888L27.7744 59.168C27.9984 58.72 28.3557 58.3413 28.8464 58.032C29.337 57.712 29.9557 57.552 30.7024 57.552C31.705 57.552 32.4837 57.7973 33.0384 58.288C33.593 58.7787 33.8704 59.4613 33.8704 60.336V64.88H34.8144V66H34.0944ZM30.4144 65.104C30.7344 65.104 31.0277 65.0667 31.2944 64.992C31.561 64.9173 31.7904 64.8107 31.9824 64.672C32.1744 64.5333 32.3237 64.3733 32.4304 64.192C32.537 64.0107 32.5904 63.8133 32.5904 63.6V62.24H30.8944C30.1584 62.24 29.6197 62.3467 29.2784 62.56C28.9477 62.7733 28.7824 63.0827 28.7824 63.488V63.824C28.7824 64.2293 28.9264 64.544 29.2144 64.768C29.513 64.992 29.913 65.104 30.4144 65.104ZM43.6013 66.912C43.6013 67.7653 43.2653 68.3893 42.5933 68.784C41.9319 69.1893 40.9346 69.392 39.6013 69.392C38.3106 69.392 37.3826 69.216 36.8173 68.864C36.2519 68.512 35.9693 68.0107 35.9693 67.36C35.9693 66.912 36.0866 66.56 36.3213 66.304C36.5559 66.0587 36.8759 65.8773 37.2812 65.76V65.584C36.7906 65.3493 36.5453 64.9653 36.5453 64.432C36.5453 64.016 36.6786 63.7013 36.9453 63.488C37.2119 63.264 37.5533 63.0987 37.9693 62.992V62.928C37.4786 62.6933 37.0946 62.3573 36.8173 61.92C36.5506 61.4827 36.4173 60.976 36.4173 60.4C36.4173 59.984 36.4919 59.6 36.6413 59.248C36.7906 58.896 36.9986 58.5973 37.2653 58.352C37.5426 58.096 37.8679 57.8987 38.2413 57.76C38.6253 57.6213 39.0519 57.552 39.5213 57.552C40.1079 57.552 40.6306 57.6587 41.0893 57.872V57.728C41.0893 57.408 41.1639 57.1467 41.3133 56.944C41.4626 56.7307 41.7079 56.624 42.0493 56.624H43.2812V57.744H41.7133V58.272C42.0119 58.528 42.2413 58.8373 42.4013 59.2C42.5719 59.552 42.6573 59.952 42.6573 60.4C42.6573 60.816 42.5826 61.2 42.4333 61.552C42.2839 61.904 42.0706 62.208 41.7933 62.464C41.5266 62.7093 41.2013 62.9013 40.8173 63.04C40.4333 63.1787 40.0066 63.248 39.5373 63.248C39.2706 63.248 39.0039 63.2213 38.7373 63.168C38.4599 63.2427 38.2093 63.3547 37.9853 63.504C37.7613 63.6427 37.6493 63.84 37.6493 64.096C37.6493 64.3413 37.7666 64.5067 38.0013 64.592C38.2359 64.6773 38.5399 64.72 38.9133 64.72H40.6733C41.6973 64.72 42.4386 64.9173 42.8973 65.312C43.3666 65.696 43.6013 66.2293 43.6013 66.912ZM42.4013 67.008C42.4013 66.6773 42.2733 66.4107 42.0173 66.208C41.7719 66.016 41.3293 65.92 40.6893 65.92H37.9373C37.4253 66.1547 37.1693 66.528 37.1693 67.04C37.1693 67.4027 37.3026 67.712 37.5693 67.968C37.8466 68.224 38.3106 68.352 38.9613 68.352H40.1453C40.8599 68.352 41.4146 68.24 41.8093 68.016C42.2039 67.792 42.4013 67.456 42.4013 67.008ZM39.5373 62.224C40.0813 62.224 40.5133 62.096 40.8333 61.84C41.1533 61.5733 41.3133 61.168 41.3133 60.624V60.176C41.3133 59.632 41.1533 59.232 40.8333 58.976C40.5133 58.7093 40.0813 58.576 39.5373 58.576C38.9933 58.576 38.5613 58.7093 38.2413 58.976C37.9213 59.232 37.7613 59.632 37.7613 60.176V60.624C37.7613 61.168 37.9213 61.5733 38.2413 61.84C38.5613 62.096 38.9933 62.224 39.5373 62.224Z" fill="#1A1A1A"/>
<path d="M16.5 88C16.5 83.8579 19.8579 80.5 24 80.5H61C65.1421 80.5 68.5 83.8579 68.5 88V112C68.5 116.142 65.1421 119.5 61 119.5H24C19.8579 119.5 16.5 116.142 16.5 112V88Z" fill="white"/>
<path d="M16.5 88C16.5 83.8579 19.8579 80.5 24 80.5H61C65.1421 80.5 68.5 83.8579 68.5 88V112C68.5 116.142 65.1421 119.5 61 119.5H24C19.8579 119.5 16.5 116.142 16.5 112V88Z" stroke="#8E8E8E"/>
<mask id="path-8-inside-1_14279_20806" fill="white">
<path d="M36.8 106.192C35.4667 106.192 34.4907 105.685 33.872 104.672C33.264 103.659 32.96 102.24 32.96 100.416C32.96 98.592 33.264 97.1733 33.872 96.16C34.4907 95.1467 35.4667 94.64 36.8 94.64C38.1333 94.64 39.104 95.1467 39.712 96.16C40.3307 97.1733 40.64 98.592 40.64 100.416C40.64 102.24 40.3307 103.659 39.712 104.672C39.104 105.685 38.1333 106.192 36.8 106.192ZM36.8 105.024C37.2373 105.024 37.6107 104.933 37.92 104.752C38.2293 104.571 38.48 104.315 38.672 103.984C38.864 103.653 39.0027 103.264 39.088 102.816C39.184 102.368 39.232 101.872 39.232 101.328V99.504C39.232 98.96 39.184 98.464 39.088 98.016C39.0027 97.568 38.864 97.1787 38.672 96.848C38.48 96.5173 38.2293 96.2613 37.92 96.08C37.6107 95.8987 37.2373 95.808 36.8 95.808C36.3627 95.808 35.9893 95.8987 35.68 96.08C35.3707 96.2613 35.12 96.5173 34.928 96.848C34.736 97.1787 34.592 97.568 34.496 98.016C34.4107 98.464 34.368 98.96 34.368 99.504V101.328C34.368 101.872 34.4107 102.368 34.496 102.816C34.592 103.264 34.736 103.653 34.928 103.984C35.12 104.315 35.3707 104.571 35.68 104.752C35.9893 104.933 36.3627 105.024 36.8 105.024ZM50.1218 98.928C50.1218 99.76 49.9991 100.544 49.7538 101.28C49.5084 102.005 49.1884 102.672 48.7938 103.28C48.4098 103.877 47.9831 104.411 47.5138 104.88C47.0444 105.339 46.5858 105.712 46.1378 106H44.4098C45.0071 105.563 45.5404 105.136 46.0098 104.72C46.4791 104.304 46.8898 103.872 47.2418 103.424C47.5938 102.965 47.8924 102.48 48.1378 101.968C48.3831 101.445 48.5804 100.859 48.7298 100.208L48.6498 100.176C48.3831 100.635 48.0364 101.019 47.6098 101.328C47.1938 101.627 46.6444 101.776 45.9618 101.776C45.4818 101.776 45.0391 101.696 44.6338 101.536C44.2284 101.376 43.8818 101.147 43.5938 100.848C43.3058 100.549 43.0764 100.192 42.9058 99.776C42.7458 99.3493 42.6658 98.8693 42.6658 98.336C42.6658 97.792 42.7511 97.296 42.9218 96.848C43.1031 96.3893 43.3538 96 43.6738 95.68C44.0044 95.3493 44.3938 95.0933 44.8418 94.912C45.3004 94.7307 45.8124 94.64 46.3778 94.64C46.9538 94.64 47.4711 94.7413 47.9298 94.944C48.3991 95.136 48.7938 95.4187 49.1138 95.792C49.4444 96.1547 49.6951 96.6027 49.8658 97.136C50.0364 97.6693 50.1218 98.2667 50.1218 98.928ZM46.3938 100.64C47.1298 100.64 47.7004 100.437 48.1058 100.032C48.5218 99.6267 48.7298 99.0453 48.7298 98.288V98.16C48.7298 97.4027 48.5218 96.8213 48.1058 96.416C47.7004 96.0107 47.1298 95.808 46.3938 95.808C45.6578 95.808 45.0818 96.0107 44.6658 96.416C44.2604 96.8213 44.0578 97.4027 44.0578 98.16V98.288C44.0578 99.0453 44.2604 99.6267 44.6658 100.032C45.0818 100.437 45.6578 100.64 46.3938 100.64Z"/>
</mask>
<path d="M36.8 106.192C35.4667 106.192 34.4907 105.685 33.872 104.672C33.264 103.659 32.96 102.24 32.96 100.416C32.96 98.592 33.264 97.1733 33.872 96.16C34.4907 95.1467 35.4667 94.64 36.8 94.64C38.1333 94.64 39.104 95.1467 39.712 96.16C40.3307 97.1733 40.64 98.592 40.64 100.416C40.64 102.24 40.3307 103.659 39.712 104.672C39.104 105.685 38.1333 106.192 36.8 106.192ZM36.8 105.024C37.2373 105.024 37.6107 104.933 37.92 104.752C38.2293 104.571 38.48 104.315 38.672 103.984C38.864 103.653 39.0027 103.264 39.088 102.816C39.184 102.368 39.232 101.872 39.232 101.328V99.504C39.232 98.96 39.184 98.464 39.088 98.016C39.0027 97.568 38.864 97.1787 38.672 96.848C38.48 96.5173 38.2293 96.2613 37.92 96.08C37.6107 95.8987 37.2373 95.808 36.8 95.808C36.3627 95.808 35.9893 95.8987 35.68 96.08C35.3707 96.2613 35.12 96.5173 34.928 96.848C34.736 97.1787 34.592 97.568 34.496 98.016C34.4107 98.464 34.368 98.96 34.368 99.504V101.328C34.368 101.872 34.4107 102.368 34.496 102.816C34.592 103.264 34.736 103.653 34.928 103.984C35.12 104.315 35.3707 104.571 35.68 104.752C35.9893 104.933 36.3627 105.024 36.8 105.024ZM50.1218 98.928C50.1218 99.76 49.9991 100.544 49.7538 101.28C49.5084 102.005 49.1884 102.672 48.7938 103.28C48.4098 103.877 47.9831 104.411 47.5138 104.88C47.0444 105.339 46.5858 105.712 46.1378 106H44.4098C45.0071 105.563 45.5404 105.136 46.0098 104.72C46.4791 104.304 46.8898 103.872 47.2418 103.424C47.5938 102.965 47.8924 102.48 48.1378 101.968C48.3831 101.445 48.5804 100.859 48.7298 100.208L48.6498 100.176C48.3831 100.635 48.0364 101.019 47.6098 101.328C47.1938 101.627 46.6444 101.776 45.9618 101.776C45.4818 101.776 45.0391 101.696 44.6338 101.536C44.2284 101.376 43.8818 101.147 43.5938 100.848C43.3058 100.549 43.0764 100.192 42.9058 99.776C42.7458 99.3493 42.6658 98.8693 42.6658 98.336C42.6658 97.792 42.7511 97.296 42.9218 96.848C43.1031 96.3893 43.3538 96 43.6738 95.68C44.0044 95.3493 44.3938 95.0933 44.8418 94.912C45.3004 94.7307 45.8124 94.64 46.3778 94.64C46.9538 94.64 47.4711 94.7413 47.9298 94.944C48.3991 95.136 48.7938 95.4187 49.1138 95.792C49.4444 96.1547 49.6951 96.6027 49.8658 97.136C50.0364 97.6693 50.1218 98.2667 50.1218 98.928ZM46.3938 100.64C47.1298 100.64 47.7004 100.437 48.1058 100.032C48.5218 99.6267 48.7298 99.0453 48.7298 98.288V98.16C48.7298 97.4027 48.5218 96.8213 48.1058 96.416C47.7004 96.0107 47.1298 95.808 46.3938 95.808C45.6578 95.808 45.0818 96.0107 44.6658 96.416C44.2604 96.8213 44.0578 97.4027 44.0578 98.16V98.288C44.0578 99.0453 44.2604 99.6267 44.6658 100.032C45.0818 100.437 45.6578 100.64 46.3938 100.64Z" fill="#1A1A1A"/>
<path d="M33.872 104.672L33.0145 105.187L33.0185 105.193L33.872 104.672ZM33.872 96.16L33.0185 95.6389L33.0145 95.6455L33.872 96.16ZM39.712 96.16L38.8545 96.6745L38.8585 96.6811L39.712 96.16ZM39.712 104.672L38.8585 104.151L38.8545 104.158L39.712 104.672ZM37.92 104.752L37.4143 103.889H37.4143L37.92 104.752ZM38.672 103.984L39.5368 104.486L38.672 103.984ZM39.088 102.816L38.1102 102.606L38.1078 102.618L38.1057 102.629L39.088 102.816ZM39.088 98.016L38.1057 98.2031L38.1078 98.2143L38.1102 98.2255L39.088 98.016ZM37.92 96.08L37.4143 96.9427L37.4143 96.9427L37.92 96.08ZM35.68 96.08L36.1857 96.9427L36.1857 96.9427L35.68 96.08ZM34.928 96.848L35.7928 97.3501H35.7928L34.928 96.848ZM34.496 98.016L33.5182 97.8065L33.5158 97.8177L33.5137 97.8289L34.496 98.016ZM34.496 102.816L33.5137 103.003L33.5158 103.014L33.5182 103.026L34.496 102.816ZM34.928 103.984L35.7928 103.482L35.7928 103.482L34.928 103.984ZM35.68 104.752L35.1743 105.615H35.1743L35.68 104.752ZM36.8 105.192C35.7641 105.192 35.1374 104.826 34.7255 104.151L33.0185 105.193C33.8439 106.545 35.1693 107.192 36.8 107.192V105.192ZM34.7295 104.158C34.2523 103.362 33.96 102.149 33.96 100.416H31.96C31.96 102.331 32.2757 103.955 33.0145 105.186L34.7295 104.158ZM33.96 100.416C33.96 98.6828 34.2523 97.4698 34.7295 96.6745L33.0145 95.6455C32.2757 96.8769 31.96 98.5012 31.96 100.416H33.96ZM34.7255 96.6811C35.1374 96.0064 35.7641 95.64 36.8 95.64V93.64C35.1693 93.64 33.8439 94.2869 33.0185 95.6389L34.7255 96.6811ZM36.8 95.64C37.8359 95.64 38.4533 96.0058 38.8545 96.6745L40.5695 95.6455C39.7547 94.2875 38.4308 93.64 36.8 93.64V95.64ZM38.8585 96.6811C39.3431 97.4748 39.64 98.685 39.64 100.416H41.64C41.64 98.499 41.3183 96.8719 40.5655 95.6389L38.8585 96.6811ZM39.64 100.416C39.64 102.147 39.3431 103.357 38.8585 104.151L40.5655 105.193C41.3183 103.96 41.64 102.333 41.64 100.416H39.64ZM38.8545 104.158C38.4533 104.826 37.8359 105.192 36.8 105.192V107.192C38.4308 107.192 39.7547 106.544 40.5695 105.186L38.8545 104.158ZM36.8 106.024C37.3762 106.024 37.9326 105.904 38.4257 105.615L37.4143 103.889C37.2887 103.963 37.0985 104.024 36.8 104.024V106.024ZM38.4257 105.615C38.8937 105.34 39.2641 104.956 39.5368 104.486L37.8072 103.482C37.6959 103.674 37.5649 103.801 37.4143 103.889L38.4257 105.615ZM39.5368 104.486C39.7952 104.041 39.9678 103.541 40.0703 103.003L38.1057 102.629C38.0375 102.987 37.9328 103.266 37.8072 103.482L39.5368 104.486ZM40.0658 103.026C40.179 102.497 40.232 101.93 40.232 101.328H38.232C38.232 101.814 38.189 102.239 38.1102 102.606L40.0658 103.026ZM40.232 101.328V99.504H38.232V101.328H40.232ZM40.232 99.504C40.232 98.9023 40.179 98.3347 40.0658 97.8065L38.1102 98.2255C38.189 98.5933 38.232 99.0177 38.232 99.504H40.232ZM40.0703 97.8289C39.9678 97.2908 39.7952 96.7909 39.5368 96.3459L37.8072 97.3501C37.9328 97.5664 38.0375 97.8452 38.1057 98.2031L40.0703 97.8289ZM39.5368 96.3459C39.2641 95.8763 38.8937 95.4916 38.4257 95.2173L37.4143 96.9427C37.5649 97.031 37.6959 97.1584 37.8072 97.3501L39.5368 96.3459ZM38.4257 95.2173C37.9326 94.9282 37.3762 94.808 36.8 94.808V96.808C37.0985 96.808 37.2887 96.8691 37.4143 96.9427L38.4257 95.2173ZM36.8 94.808C36.2238 94.808 35.6674 94.9282 35.1743 95.2173L36.1857 96.9427C36.3113 96.8691 36.5015 96.808 36.8 96.808V94.808ZM35.1743 95.2173C34.7063 95.4916 34.3359 95.8763 34.0632 96.3459L35.7928 97.3501C35.9041 97.1584 36.0351 97.031 36.1857 96.9427L35.1743 95.2173ZM34.0632 96.3459C33.8091 96.7835 33.632 97.2754 33.5182 97.8065L35.4738 98.2255C35.552 97.8606 35.6629 97.5739 35.7928 97.3501L34.0632 96.3459ZM33.5137 97.8289C33.4146 98.349 33.368 98.9088 33.368 99.504H35.368C35.368 99.0112 35.4067 98.579 35.4783 98.2031L33.5137 97.8289ZM33.368 99.504V101.328H35.368V99.504H33.368ZM33.368 101.328C33.368 101.923 33.4146 102.483 33.5137 103.003L35.4783 102.629C35.4067 102.253 35.368 101.821 35.368 101.328H33.368ZM33.5182 103.026C33.632 103.557 33.8091 104.049 34.0632 104.486L35.7928 103.482C35.6629 103.258 35.552 102.971 35.4738 102.606L33.5182 103.026ZM34.0632 104.486C34.3359 104.956 34.7063 105.34 35.1743 105.615L36.1857 103.889C36.0351 103.801 35.9041 103.674 35.7928 103.482L34.0632 104.486ZM35.1743 105.615C35.6674 105.904 36.2238 106.024 36.8 106.024V104.024C36.5015 104.024 36.3113 103.963 36.1857 103.889L35.1743 105.615ZM49.7537 101.28L50.701 101.6L50.7024 101.596L49.7537 101.28ZM48.7938 103.28L47.955 102.736L47.9526 102.739L48.7938 103.28ZM47.5138 104.88L48.2127 105.595L48.2209 105.587L47.5138 104.88ZM46.1378 106V107H46.4315L46.6785 106.841L46.1378 106ZM44.4097 106L43.819 105.193L41.3511 107H44.4097V106ZM46.0098 104.72L46.6731 105.468L46.0098 104.72ZM47.2418 103.424L48.0281 104.042L48.0351 104.033L47.2418 103.424ZM48.1378 101.968L49.0396 102.4L49.043 102.393L48.1378 101.968ZM48.7297 100.208L49.7044 100.432L49.8959 99.5974L49.1011 99.2795L48.7297 100.208ZM48.6497 100.176L49.0211 99.2475L48.2193 98.9268L47.7852 99.6734L48.6497 100.176ZM47.6098 101.328L48.193 102.14L48.1967 102.138L47.6098 101.328ZM44.6337 101.536L45.0009 100.606H45.0009L44.6337 101.536ZM43.5938 100.848L44.3136 100.154H44.3136L43.5938 100.848ZM42.9058 99.776L41.9694 100.127L41.9748 100.141L41.9806 100.156L42.9058 99.776ZM42.9218 96.848L41.9917 96.4803L41.9873 96.492L42.9218 96.848ZM43.6737 95.68L42.9666 94.9729L43.6737 95.68ZM44.8418 94.912L44.4741 93.982L44.4666 93.9851L44.8418 94.912ZM47.9298 94.944L47.5256 95.8587L47.5383 95.8643L47.5511 95.8695L47.9298 94.944ZM49.1138 95.792L48.3545 96.4428L48.3645 96.4544L48.3748 96.4658L49.1138 95.792ZM49.8657 97.136L48.9133 97.4408V97.4408L49.8657 97.136ZM48.1058 100.032L47.4078 99.3157L47.3986 99.3249L48.1058 100.032ZM48.1058 96.416L47.3986 97.1232L47.4079 97.1322L48.1058 96.416ZM44.6658 96.416L43.9678 95.6997L43.9586 95.7089L44.6658 96.416ZM44.6658 100.032L43.9586 100.739L43.9679 100.748L44.6658 100.032ZM49.1217 98.928C49.1217 99.6603 49.014 100.337 48.8051 100.964L50.7024 101.596C50.9841 100.751 51.1217 99.8597 51.1217 98.928H49.1217ZM48.8065 100.96C48.5863 101.61 48.3018 102.201 47.955 102.736L49.6325 103.824C50.075 103.143 50.4305 102.4 50.701 101.6L48.8065 100.96ZM47.9526 102.739C47.6045 103.281 47.2221 103.757 46.8066 104.173L48.2209 105.587C48.7441 105.064 49.215 104.474 49.6349 103.821L47.9526 102.739ZM46.8148 104.165C46.3832 104.587 45.9768 104.915 45.597 105.159L46.6785 106.841C47.1947 106.509 47.7057 106.091 48.2127 105.595L46.8148 104.165ZM46.1378 105H44.4097V107H46.1378V105ZM45.0005 106.807C45.6186 106.354 46.1768 105.908 46.6731 105.468L45.3464 103.972C44.9041 104.364 44.3956 104.771 43.819 105.193L45.0005 106.807ZM46.6731 105.468C47.1828 105.017 47.6356 104.541 48.0281 104.042L46.4554 102.806C46.1439 103.203 45.7754 103.591 45.3464 103.972L46.6731 105.468ZM48.0351 104.033C48.4285 103.52 48.7637 102.976 49.0396 102.4L47.2359 101.536C47.0211 101.984 46.759 102.41 46.4484 102.815L48.0351 104.033ZM49.043 102.393C49.3228 101.797 49.5416 101.141 49.7044 100.432L47.7551 99.9843C47.6193 100.576 47.4434 101.094 47.2325 101.543L49.043 102.393ZM49.1011 99.2795L49.0211 99.2475L48.2784 101.104L48.3584 101.136L49.1011 99.2795ZM47.7852 99.6734C47.5882 100.012 47.3358 100.291 47.0228 100.518L48.1967 102.138C48.7371 101.746 49.178 101.257 49.5143 100.679L47.7852 99.6734ZM47.0265 100.516C46.829 100.657 46.504 100.776 45.9618 100.776V102.776C46.7848 102.776 47.5585 102.596 48.193 102.14L47.0265 100.516ZM45.9618 100.776C45.5947 100.776 45.278 100.715 45.0009 100.606L44.2666 102.466C44.8001 102.677 45.3688 102.776 45.9618 102.776V100.776ZM45.0009 100.606C44.7218 100.496 44.4973 100.344 44.3136 100.154L42.8739 101.542C43.2662 101.949 43.735 102.256 44.2666 102.466L45.0009 100.606ZM44.3136 100.154C44.1204 99.9535 43.9577 99.7054 43.8309 99.3964L41.9806 100.156C42.1952 100.679 42.4911 101.145 42.8739 101.542L44.3136 100.154ZM43.8421 99.4249C43.7307 99.1278 43.6658 98.7695 43.6658 98.336H41.6658C41.6658 98.9692 41.7608 99.5708 41.9694 100.127L43.8421 99.4249ZM43.6658 98.336C43.6658 97.8974 43.7343 97.5241 43.8562 97.204L41.9873 96.492C41.7679 97.0679 41.6658 97.6866 41.6658 98.336H43.6658ZM43.8517 97.2157C43.9873 96.8727 44.166 96.602 44.3809 96.3871L42.9666 94.9729C42.5415 95.398 42.2189 95.906 41.9918 96.4803L43.8517 97.2157ZM44.3809 96.3871C44.6135 96.1544 44.8889 95.9717 45.2169 95.8389L44.4666 93.9851C43.8986 94.215 43.3953 94.5442 42.9666 94.9729L44.3809 96.3871ZM45.2094 95.842C45.5352 95.7132 45.9201 95.64 46.3778 95.64V93.64C45.7048 93.64 45.0656 93.7482 44.4741 93.982L45.2094 95.842ZM46.3778 95.64C46.8351 95.64 47.2118 95.72 47.5256 95.8587L48.3339 94.0293C47.7304 93.7626 47.0724 93.64 46.3778 93.64V95.64ZM47.5511 95.8695C47.8783 96.0034 48.1411 96.1938 48.3545 96.4428L49.873 95.1412C49.4464 94.6435 48.9198 94.2686 48.3084 94.0185L47.5511 95.8695ZM48.3748 96.4658C48.5958 96.7082 48.7803 97.0251 48.9133 97.4408L50.8182 96.8312C50.6099 96.1803 50.293 95.6011 49.8527 95.1182L48.3748 96.4658ZM48.9133 97.4408C49.0474 97.8596 49.1217 98.3519 49.1217 98.928H51.1217C51.1217 98.1814 51.0255 97.479 50.8182 96.8312L48.9133 97.4408ZM46.3938 101.64C47.3161 101.64 48.1708 101.381 48.8129 100.739L47.3986 99.3249C47.2301 99.4935 46.9434 99.64 46.3938 99.64V101.64ZM48.8036 100.748C49.4666 100.102 49.7297 99.2294 49.7297 98.288H47.7297C47.7297 98.8613 47.5769 99.1511 47.4079 99.3158L48.8036 100.748ZM49.7297 98.288V98.16H47.7297V98.288H49.7297ZM49.7297 98.16C49.7297 97.2186 49.4666 96.3457 48.8036 95.6998L47.4079 97.1322C47.5769 97.2969 47.7297 97.5867 47.7297 98.16H49.7297ZM48.8129 95.7089C48.1708 95.0668 47.3161 94.808 46.3938 94.808V96.808C46.9434 96.808 47.2301 96.9545 47.3986 97.1231L48.8129 95.7089ZM46.3938 94.808C45.47 94.808 44.6171 95.0672 43.9679 95.6998L45.3636 97.1322C45.5464 96.9541 45.8455 96.808 46.3938 96.808V94.808ZM43.9586 95.7089C43.3114 96.3561 43.0578 97.2257 43.0578 98.16H45.0578C45.0578 97.5796 45.2094 97.2865 45.3729 97.1231L43.9586 95.7089ZM43.0578 98.16V98.288H45.0578V98.16H43.0578ZM43.0578 98.288C43.0578 99.2223 43.3114 100.092 43.9586 100.739L45.3729 99.3249C45.2094 99.1615 45.0578 98.8684 45.0578 98.288H43.0578ZM43.9679 100.748C44.6171 101.381 45.47 101.64 46.3938 101.64V99.64C45.8455 99.64 45.5464 99.4939 45.3636 99.3158L43.9679 100.748Z" fill="#1A1A1A" mask="url(#path-8-inside-1_14279_20806)"/>
<path d="M95.192 56.592H95.112L94.168 58.464L91.496 63.328L88.824 58.464L87.88 56.592H87.8V66H86.488V54.832H88.28L91.48 60.848H91.56L94.776 54.832H96.504V66H95.192V56.592ZM105.344 66C104.864 66 104.518 65.872 104.304 65.616C104.102 65.36 103.974 65.04 103.92 64.656H103.84C103.659 65.168 103.36 65.552 102.944 65.808C102.528 66.064 102.032 66.192 101.456 66.192C100.582 66.192 99.899 65.968 99.4084 65.52C98.9284 65.072 98.6884 64.464 98.6884 63.696C98.6884 62.9173 98.971 62.32 99.5364 61.904C100.112 61.488 101.003 61.28 102.208 61.28H103.84V60.464C103.84 59.8773 103.68 59.4293 103.36 59.12C103.04 58.8107 102.55 58.656 101.888 58.656C101.387 58.656 100.966 58.768 100.624 58.992C100.294 59.216 100.016 59.5147 99.7924 59.888L99.0244 59.168C99.2484 58.72 99.6057 58.3413 100.096 58.032C100.587 57.712 101.206 57.552 101.952 57.552C102.955 57.552 103.734 57.7973 104.288 58.288C104.843 58.7787 105.12 59.4613 105.12 60.336V64.88H106.064V66H105.344ZM101.664 65.104C101.984 65.104 102.278 65.0667 102.544 64.992C102.811 64.9173 103.04 64.8107 103.232 64.672C103.424 64.5333 103.574 64.3733 103.68 64.192C103.787 64.0107 103.84 63.8133 103.84 63.6V62.24H102.144C101.408 62.24 100.87 62.3467 100.528 62.56C100.198 62.7733 100.032 63.0827 100.032 63.488V63.824C100.032 64.2293 100.176 64.544 100.464 64.768C100.763 64.992 101.163 65.104 101.664 65.104ZM102.032 56.784C101.776 56.784 101.531 56.7413 101.296 56.656C101.072 56.56 100.875 56.432 100.704 56.272C100.544 56.1013 100.416 55.904 100.32 55.68C100.224 55.456 100.176 55.2107 100.176 54.944C100.176 54.6773 100.224 54.432 100.32 54.208C100.416 53.984 100.544 53.792 100.704 53.632C100.875 53.4613 101.072 53.3333 101.296 53.248C101.531 53.152 101.776 53.104 102.032 53.104C102.288 53.104 102.528 53.152 102.752 53.248C102.987 53.3333 103.184 53.4613 103.344 53.632C103.515 53.792 103.648 53.984 103.744 54.208C103.84 54.432 103.888 54.6773 103.888 54.944C103.888 55.2107 103.84 55.456 103.744 55.68C103.648 55.904 103.515 56.1013 103.344 56.272C103.184 56.432 102.987 56.56 102.752 56.656C102.528 56.7413 102.288 56.784 102.032 56.784ZM102.032 56C102.32 56 102.544 55.9253 102.704 55.776C102.875 55.616 102.96 55.3973 102.96 55.12V54.768C102.96 54.4907 102.875 54.2773 102.704 54.128C102.544 53.968 102.32 53.888 102.032 53.888C101.744 53.888 101.515 53.968 101.344 54.128C101.184 54.2773 101.104 54.4907 101.104 54.768V55.12C101.104 55.3973 101.184 55.616 101.344 55.776C101.515 55.9253 101.744 56 102.032 56ZM107.891 66V57.744H109.171V59.088H109.235C109.438 58.6187 109.721 58.2453 110.083 57.968C110.457 57.6907 110.953 57.552 111.571 57.552C112.425 57.552 113.097 57.8293 113.587 58.384C114.089 58.928 114.339 59.7013 114.339 60.704V66H113.059V60.928C113.059 59.4453 112.435 58.704 111.187 58.704C110.931 58.704 110.681 58.736 110.435 58.8C110.201 58.864 109.987 58.96 109.795 59.088C109.603 59.216 109.449 59.3813 109.331 59.584C109.225 59.776 109.171 60.0053 109.171 60.272V66H107.891ZM120.089 66.192C119.524 66.192 119.012 66.0907 118.553 65.888C118.105 65.6853 117.716 65.3973 117.385 65.024C117.065 64.64 116.814 64.1867 116.633 63.664C116.462 63.1307 116.377 62.5333 116.377 61.872C116.377 61.2213 116.462 60.6293 116.633 60.096C116.814 59.5627 117.065 59.1093 117.385 58.736C117.716 58.352 118.105 58.0587 118.553 57.856C119.012 57.6533 119.524 57.552 120.089 57.552C120.644 57.552 121.14 57.6533 121.577 57.856C122.014 58.0587 122.388 58.3413 122.697 58.704C123.006 59.056 123.241 59.4773 123.401 59.968C123.572 60.4587 123.657 60.9973 123.657 61.584V62.192H117.721V62.576C117.721 62.928 117.774 63.2587 117.881 63.568C117.998 63.8667 118.158 64.128 118.361 64.352C118.574 64.576 118.83 64.752 119.129 64.88C119.438 65.008 119.785 65.072 120.169 65.072C120.692 65.072 121.145 64.9493 121.529 64.704C121.924 64.4587 122.228 64.1067 122.441 63.648L123.353 64.304C123.086 64.8693 122.67 65.328 122.105 65.68C121.54 66.0213 120.868 66.192 120.089 66.192ZM120.089 58.624C119.737 58.624 119.417 58.688 119.129 58.816C118.841 58.9333 118.59 59.104 118.377 59.328C118.174 59.552 118.014 59.8187 117.897 60.128C117.78 60.4267 117.721 60.7573 117.721 61.12V61.232H122.281V61.056C122.281 60.32 122.078 59.7333 121.673 59.296C121.278 58.848 120.75 58.624 120.089 58.624ZM131.046 64.656H130.982C130.481 65.68 129.676 66.192 128.566 66.192C128.054 66.192 127.59 66.0907 127.174 65.888C126.758 65.6853 126.401 65.3973 126.102 65.024C125.814 64.6507 125.59 64.1973 125.43 63.664C125.281 63.1307 125.206 62.5333 125.206 61.872C125.206 61.2107 125.281 60.6133 125.43 60.08C125.59 59.5467 125.814 59.0933 126.102 58.72C126.401 58.3467 126.758 58.0587 127.174 57.856C127.59 57.6533 128.054 57.552 128.566 57.552C129.142 57.552 129.633 57.68 130.038 57.936C130.454 58.1813 130.769 58.5653 130.982 59.088H131.046V54.16H132.326V66H131.046V64.656ZM128.918 65.04C129.206 65.04 129.478 65.0027 129.734 64.928C130.001 64.8533 130.23 64.7467 130.422 64.608C130.614 64.4587 130.764 64.2827 130.87 64.08C130.988 63.8667 131.046 63.6267 131.046 63.36V60.288C131.046 60.064 130.988 59.856 130.87 59.664C130.764 59.4613 130.614 59.2907 130.422 59.152C130.23 59.0133 130.001 58.9067 129.734 58.832C129.478 58.7467 129.206 58.704 128.918 58.704C128.193 58.704 127.622 58.9333 127.206 59.392C126.79 59.84 126.582 60.432 126.582 61.168V62.576C126.582 63.312 126.79 63.9093 127.206 64.368C127.622 64.816 128.193 65.04 128.918 65.04Z" fill="#1A1A1A"/>
<path d="M85.5 88C85.5 83.8579 88.8579 80.5 93 80.5H130C134.142 80.5 137.5 83.8579 137.5 88V112C137.5 116.142 134.142 119.5 130 119.5H93C88.8579 119.5 85.5 116.142 85.5 112V88Z" fill="white"/>
<path d="M85.5 88C85.5 83.8579 88.8579 80.5 93 80.5H130C134.142 80.5 137.5 83.8579 137.5 88V112C137.5 116.142 134.142 119.5 130 119.5H93C88.8579 119.5 85.5 116.142 85.5 112V88Z" stroke="#8E8E8E"/>
<mask id="path-12-inside-2_14279_20806" fill="white">
<path d="M105.8 106.192C104.467 106.192 103.491 105.685 102.872 104.672C102.264 103.659 101.96 102.24 101.96 100.416C101.96 98.592 102.264 97.1733 102.872 96.16C103.491 95.1467 104.467 94.64 105.8 94.64C107.133 94.64 108.104 95.1467 108.712 96.16C109.331 97.1733 109.64 98.592 109.64 100.416C109.64 102.24 109.331 103.659 108.712 104.672C108.104 105.685 107.133 106.192 105.8 106.192ZM105.8 105.024C106.237 105.024 106.611 104.933 106.92 104.752C107.229 104.571 107.48 104.315 107.672 103.984C107.864 103.653 108.003 103.264 108.088 102.816C108.184 102.368 108.232 101.872 108.232 101.328V99.504C108.232 98.96 108.184 98.464 108.088 98.016C108.003 97.568 107.864 97.1787 107.672 96.848C107.48 96.5173 107.229 96.2613 106.92 96.08C106.611 95.8987 106.237 95.808 105.8 95.808C105.363 95.808 104.989 95.8987 104.68 96.08C104.371 96.2613 104.12 96.5173 103.928 96.848C103.736 97.1787 103.592 97.568 103.496 98.016C103.411 98.464 103.368 98.96 103.368 99.504V101.328C103.368 101.872 103.411 102.368 103.496 102.816C103.592 103.264 103.736 103.653 103.928 103.984C104.12 104.315 104.371 104.571 104.68 104.752C104.989 104.933 105.363 105.024 105.8 105.024ZM119.122 106H111.794V104.624L115.442 101.264C115.964 100.784 116.402 100.277 116.754 99.744C117.106 99.2 117.282 98.656 117.282 98.112V97.92C117.282 97.3013 117.111 96.8 116.77 96.416C116.428 96.032 115.911 95.84 115.218 95.84C114.876 95.84 114.578 95.888 114.322 95.984C114.066 96.08 113.842 96.2133 113.65 96.384C113.468 96.5547 113.314 96.7573 113.186 96.992C113.068 97.216 112.972 97.4613 112.898 97.728L111.698 97.264C111.804 96.9333 111.948 96.6133 112.13 96.304C112.322 95.984 112.556 95.7013 112.834 95.456C113.122 95.2107 113.463 95.0133 113.858 94.864C114.263 94.7147 114.738 94.64 115.282 94.64C115.826 94.64 116.311 94.72 116.738 94.88C117.164 95.04 117.522 95.264 117.81 95.552C118.098 95.84 118.316 96.1813 118.466 96.576C118.626 96.9707 118.706 97.408 118.706 97.888C118.706 98.3253 118.642 98.7307 118.514 99.104C118.396 99.4773 118.231 99.8347 118.018 100.176C117.804 100.507 117.543 100.832 117.234 101.152C116.935 101.472 116.61 101.792 116.258 102.112L113.25 104.816H119.122V106Z"/>
</mask>
<path d="M105.8 106.192C104.467 106.192 103.491 105.685 102.872 104.672C102.264 103.659 101.96 102.24 101.96 100.416C101.96 98.592 102.264 97.1733 102.872 96.16C103.491 95.1467 104.467 94.64 105.8 94.64C107.133 94.64 108.104 95.1467 108.712 96.16C109.331 97.1733 109.64 98.592 109.64 100.416C109.64 102.24 109.331 103.659 108.712 104.672C108.104 105.685 107.133 106.192 105.8 106.192ZM105.8 105.024C106.237 105.024 106.611 104.933 106.92 104.752C107.229 104.571 107.48 104.315 107.672 103.984C107.864 103.653 108.003 103.264 108.088 102.816C108.184 102.368 108.232 101.872 108.232 101.328V99.504C108.232 98.96 108.184 98.464 108.088 98.016C108.003 97.568 107.864 97.1787 107.672 96.848C107.48 96.5173 107.229 96.2613 106.92 96.08C106.611 95.8987 106.237 95.808 105.8 95.808C105.363 95.808 104.989 95.8987 104.68 96.08C104.371 96.2613 104.12 96.5173 103.928 96.848C103.736 97.1787 103.592 97.568 103.496 98.016C103.411 98.464 103.368 98.96 103.368 99.504V101.328C103.368 101.872 103.411 102.368 103.496 102.816C103.592 103.264 103.736 103.653 103.928 103.984C104.12 104.315 104.371 104.571 104.68 104.752C104.989 104.933 105.363 105.024 105.8 105.024ZM119.122 106H111.794V104.624L115.442 101.264C115.964 100.784 116.402 100.277 116.754 99.744C117.106 99.2 117.282 98.656 117.282 98.112V97.92C117.282 97.3013 117.111 96.8 116.77 96.416C116.428 96.032 115.911 95.84 115.218 95.84C114.876 95.84 114.578 95.888 114.322 95.984C114.066 96.08 113.842 96.2133 113.65 96.384C113.468 96.5547 113.314 96.7573 113.186 96.992C113.068 97.216 112.972 97.4613 112.898 97.728L111.698 97.264C111.804 96.9333 111.948 96.6133 112.13 96.304C112.322 95.984 112.556 95.7013 112.834 95.456C113.122 95.2107 113.463 95.0133 113.858 94.864C114.263 94.7147 114.738 94.64 115.282 94.64C115.826 94.64 116.311 94.72 116.738 94.88C117.164 95.04 117.522 95.264 117.81 95.552C118.098 95.84 118.316 96.1813 118.466 96.576C118.626 96.9707 118.706 97.408 118.706 97.888C118.706 98.3253 118.642 98.7307 118.514 99.104C118.396 99.4773 118.231 99.8347 118.018 100.176C117.804 100.507 117.543 100.832 117.234 101.152C116.935 101.472 116.61 101.792 116.258 102.112L113.25 104.816H119.122V106Z" fill="#1A1A1A"/>
<path d="M102.872 104.672L102.014 105.187L102.018 105.193L102.872 104.672ZM102.872 96.16L102.018 95.6389L102.015 95.6455L102.872 96.16ZM108.712 96.16L107.854 96.6745L107.858 96.6811L108.712 96.16ZM108.712 104.672L107.858 104.151L107.855 104.158L108.712 104.672ZM106.92 104.752L106.414 103.889H106.414L106.92 104.752ZM107.672 103.984L108.537 104.486L107.672 103.984ZM108.088 102.816L107.11 102.606L107.108 102.618L107.106 102.629L108.088 102.816ZM108.088 98.016L107.106 98.2031L107.108 98.2143L107.11 98.2255L108.088 98.016ZM106.92 96.08L106.414 96.9427L106.414 96.9427L106.92 96.08ZM104.68 96.08L105.186 96.9427L105.186 96.9427L104.68 96.08ZM103.928 96.848L104.793 97.3501H104.793L103.928 96.848ZM103.496 98.016L102.518 97.8065L102.516 97.8177L102.514 97.8289L103.496 98.016ZM103.496 102.816L102.514 103.003L102.516 103.014L102.518 103.026L103.496 102.816ZM103.928 103.984L104.793 103.482L104.793 103.482L103.928 103.984ZM104.68 104.752L104.174 105.615H104.174L104.68 104.752ZM105.8 105.192C104.764 105.192 104.137 104.826 103.726 104.151L102.018 105.193C102.844 106.545 104.169 107.192 105.8 107.192V105.192ZM103.729 104.158C103.252 103.362 102.96 102.149 102.96 100.416H100.96C100.96 102.331 101.276 103.955 102.015 105.186L103.729 104.158ZM102.96 100.416C102.96 98.6828 103.252 97.4698 103.729 96.6745L102.015 95.6455C101.276 96.8769 100.96 98.5012 100.96 100.416H102.96ZM103.726 96.6811C104.137 96.0064 104.764 95.64 105.8 95.64V93.64C104.169 93.64 102.844 94.2869 102.018 95.6389L103.726 96.6811ZM105.8 95.64C106.836 95.64 107.453 96.0058 107.855 96.6745L109.569 95.6455C108.755 94.2875 107.431 93.64 105.8 93.64V95.64ZM107.858 96.6811C108.343 97.4748 108.64 98.685 108.64 100.416H110.64C110.64 98.499 110.318 96.8719 109.566 95.6389L107.858 96.6811ZM108.64 100.416C108.64 102.147 108.343 103.357 107.858 104.151L109.566 105.193C110.318 103.96 110.64 102.333 110.64 100.416H108.64ZM107.855 104.158C107.453 104.826 106.836 105.192 105.8 105.192V107.192C107.431 107.192 108.755 106.544 109.569 105.186L107.855 104.158ZM105.8 106.024C106.376 106.024 106.933 105.904 107.426 105.615L106.414 103.889C106.289 103.963 106.098 104.024 105.8 104.024V106.024ZM107.426 105.615C107.894 105.34 108.264 104.956 108.537 104.486L106.807 103.482C106.696 103.674 106.565 103.801 106.414 103.889L107.426 105.615ZM108.537 104.486C108.795 104.041 108.968 103.541 109.07 103.003L107.106 102.629C107.037 102.987 106.933 103.266 106.807 103.482L108.537 104.486ZM109.066 103.026C109.179 102.497 109.232 101.93 109.232 101.328H107.232C107.232 101.814 107.189 102.239 107.11 102.606L109.066 103.026ZM109.232 101.328V99.504H107.232V101.328H109.232ZM109.232 99.504C109.232 98.9023 109.179 98.3347 109.066 97.8065L107.11 98.2255C107.189 98.5933 107.232 99.0177 107.232 99.504H109.232ZM109.07 97.8289C108.968 97.2908 108.795 96.7909 108.537 96.3459L106.807 97.3501C106.933 97.5664 107.037 97.8452 107.106 98.2031L109.07 97.8289ZM108.537 96.3459C108.264 95.8763 107.894 95.4916 107.426 95.2173L106.414 96.9427C106.565 97.031 106.696 97.1584 106.807 97.3501L108.537 96.3459ZM107.426 95.2173C106.933 94.9282 106.376 94.808 105.8 94.808V96.808C106.098 96.808 106.289 96.8691 106.414 96.9427L107.426 95.2173ZM105.8 94.808C105.224 94.808 104.667 94.9282 104.174 95.2173L105.186 96.9427C105.311 96.8691 105.502 96.808 105.8 96.808V94.808ZM104.174 95.2173C103.706 95.4916 103.336 95.8763 103.063 96.3459L104.793 97.3501C104.904 97.1584 105.035 97.031 105.186 96.9427L104.174 95.2173ZM103.063 96.3459C102.809 96.7835 102.632 97.2754 102.518 97.8065L104.474 98.2255C104.552 97.8606 104.663 97.5739 104.793 97.3501L103.063 96.3459ZM102.514 97.8289C102.415 98.349 102.368 98.9088 102.368 99.504H104.368C104.368 99.0112 104.407 98.579 104.478 98.2031L102.514 97.8289ZM102.368 99.504V101.328H104.368V99.504H102.368ZM102.368 101.328C102.368 101.923 102.415 102.483 102.514 103.003L104.478 102.629C104.407 102.253 104.368 101.821 104.368 101.328H102.368ZM102.518 103.026C102.632 103.557 102.809 104.049 103.063 104.486L104.793 103.482C104.663 103.258 104.552 102.971 104.474 102.606L102.518 103.026ZM103.063 104.486C103.336 104.956 103.706 105.34 104.174 105.615L105.186 103.889C105.035 103.801 104.904 103.674 104.793 103.482L103.063 104.486ZM104.174 105.615C104.667 105.904 105.224 106.024 105.8 106.024V104.024C105.502 104.024 105.311 103.963 105.186 103.889L104.174 105.615ZM119.122 106V107H120.122V106H119.122ZM111.794 106H110.794V107H111.794V106ZM111.794 104.624L111.116 103.888L110.794 104.186V104.624H111.794ZM115.442 101.264L114.765 100.527L114.764 100.528L115.442 101.264ZM116.754 99.744L117.588 100.295L117.593 100.287L116.754 99.744ZM114.322 95.984L114.673 96.9203L114.322 95.984ZM113.65 96.384L112.985 95.6366L112.975 95.646L112.964 95.6558L113.65 96.384ZM113.186 96.992L112.308 96.5131L112.304 96.5205L112.3 96.528L113.186 96.992ZM112.898 97.728L112.537 98.6607L113.564 99.0577L113.861 97.9976L112.898 97.728ZM111.698 97.264L110.746 96.957L110.456 97.856L111.337 98.1967L111.698 97.264ZM112.13 96.304L111.272 95.7895L111.267 95.7983L112.13 96.304ZM112.834 95.456L112.185 94.6948L112.178 94.7008L112.171 94.707L112.834 95.456ZM113.858 94.864L113.512 93.9256L113.504 93.9287L113.858 94.864ZM116.738 94.88L117.089 93.9437L117.089 93.9437L116.738 94.88ZM117.81 95.552L118.517 94.8449V94.8449L117.81 95.552ZM118.466 96.576L117.53 96.9299L117.535 96.9408L117.539 96.9517L118.466 96.576ZM118.514 99.104L117.568 98.7797L117.564 98.7919L117.56 98.8042L118.514 99.104ZM118.018 100.176L118.858 100.718L118.862 100.712L118.866 100.706L118.018 100.176ZM117.234 101.152L116.515 100.457L116.509 100.463L116.503 100.47L117.234 101.152ZM116.258 102.112L116.926 102.856L116.93 102.852L116.258 102.112ZM113.25 104.816L112.581 104.072L110.641 105.816H113.25V104.816ZM119.122 104.816H120.122V103.816H119.122V104.816ZM119.122 105H111.794V107H119.122V105ZM112.794 106V104.624H110.794V106H112.794ZM112.471 105.36L116.119 102L114.764 100.528L111.116 103.888L112.471 105.36ZM116.118 102.001C116.694 101.471 117.187 100.903 117.588 100.295L115.919 99.1932C115.617 99.6513 115.234 100.097 114.765 100.527L116.118 102.001ZM117.593 100.287C118.03 99.6128 118.282 98.883 118.282 98.112H116.282C116.282 98.429 116.182 98.7872 115.914 99.2007L117.593 100.287ZM118.282 98.112V97.92H116.282V98.112H118.282ZM118.282 97.92C118.282 97.1089 118.053 96.3545 117.517 95.7516L116.022 97.0804C116.169 97.2455 116.282 97.4937 116.282 97.92H118.282ZM117.517 95.7516C116.926 95.0867 116.092 94.84 115.218 94.84V96.84C115.73 96.84 115.931 96.9773 116.022 97.0804L117.517 95.7516ZM115.218 94.84C114.785 94.84 114.363 94.9006 113.971 95.0477L114.673 96.9203C114.793 96.8754 114.968 96.84 115.218 96.84V94.84ZM113.971 95.0477C113.607 95.184 113.275 95.3791 112.985 95.6366L114.314 97.1314C114.408 97.0476 114.525 96.976 114.673 96.9203L113.971 95.0477ZM112.964 95.6558C112.701 95.904 112.483 96.1925 112.308 96.5131L114.064 97.4709C114.145 97.3221 114.236 97.2053 114.335 97.1122L112.964 95.6558ZM112.3 96.528C112.147 96.8195 112.027 97.1307 111.935 97.4584L113.861 97.9976C113.918 97.792 113.99 97.6125 114.072 97.456L112.3 96.528ZM113.258 96.7953L112.058 96.3313L111.337 98.1967L112.537 98.6607L113.258 96.7953ZM112.649 97.571C112.733 97.3118 112.847 97.0583 112.992 96.8097L111.267 95.7983C111.05 96.1684 110.876 96.5549 110.746 96.957L112.649 97.571ZM112.987 96.8185C113.127 96.5855 113.296 96.382 113.496 96.205L112.171 94.707C111.817 95.0206 111.516 95.3825 111.272 95.7895L112.987 96.8185ZM113.482 96.2172C113.673 96.0545 113.912 95.9126 114.212 95.7993L113.504 93.9287C113.014 94.114 112.57 94.3668 112.185 94.6948L113.482 96.2172ZM114.203 95.8023C114.474 95.7028 114.826 95.64 115.282 95.64V93.64C114.649 93.64 114.053 93.7265 113.512 93.9257L114.203 95.8023ZM115.282 95.64C115.729 95.64 116.092 95.7057 116.387 95.8163L117.089 93.9437C116.531 93.7343 115.923 93.64 115.282 93.64V95.64ZM116.387 95.8163C116.696 95.9322 116.927 96.0834 117.103 96.2591L118.517 94.8449C118.117 94.4446 117.633 94.1478 117.089 93.9437L116.387 95.8163ZM117.103 96.2591C117.287 96.4432 117.429 96.6629 117.53 96.9299L119.401 96.2221C119.203 95.6998 118.909 95.2368 118.517 94.8449L117.103 96.2591ZM117.539 96.9517C117.645 97.2128 117.706 97.5205 117.706 97.888H119.706C119.706 97.2955 119.607 96.7285 119.392 96.2003L117.539 96.9517ZM117.706 97.888C117.706 98.2268 117.656 98.5214 117.568 98.7797L119.46 99.4283C119.627 98.94 119.706 98.4238 119.706 97.888H117.706ZM117.56 98.8042C117.469 99.0943 117.339 99.3745 117.17 99.646L118.866 100.706C119.123 100.295 119.324 99.8604 119.468 99.4038L117.56 98.8042ZM117.177 99.6339C117.004 99.9032 116.785 100.178 116.515 100.457L117.953 101.847C118.302 101.486 118.605 101.11 118.858 100.718L117.177 99.6339ZM116.503 100.47C116.224 100.768 115.919 101.069 115.585 101.372L116.93 102.852C117.301 102.515 117.646 102.176 117.965 101.834L116.503 100.47ZM115.589 101.368L112.581 104.072L113.918 105.56L116.926 102.856L115.589 101.368ZM113.25 105.816H119.122V103.816H113.25V105.816ZM118.122 104.816V106H120.122V104.816H118.122Z" fill="#1A1A1A" mask="url(#path-12-inside-2_14279_20806)"/>
<path d="M162.48 66L161.36 62.704H156.848L155.728 66H154.368L158.272 54.832H159.984L163.888 66H162.48ZM159.136 56.08H159.056L157.168 61.52H161.024L159.136 56.08ZM159.152 54.064C158.896 54.064 158.651 54.0213 158.416 53.936C158.192 53.84 157.995 53.712 157.824 53.552C157.664 53.3813 157.536 53.184 157.44 52.96C157.344 52.736 157.296 52.4907 157.296 52.224C157.296 51.9573 157.344 51.712 157.44 51.488C157.536 51.264 157.664 51.072 157.824 50.912C157.995 50.7413 158.192 50.6133 158.416 50.528C158.651 50.432 158.896 50.384 159.152 50.384C159.408 50.384 159.648 50.432 159.872 50.528C160.107 50.6133 160.304 50.7413 160.464 50.912C160.635 51.072 160.768 51.264 160.864 51.488C160.96 51.712 161.008 51.9573 161.008 52.224C161.008 52.4907 160.96 52.736 160.864 52.96C160.768 53.184 160.635 53.3813 160.464 53.552C160.304 53.712 160.107 53.84 159.872 53.936C159.648 54.0213 159.408 54.064 159.152 54.064ZM159.152 53.28C159.44 53.28 159.664 53.2053 159.824 53.056C159.995 52.896 160.08 52.6773 160.08 52.4V52.048C160.08 51.7707 159.995 51.5573 159.824 51.408C159.664 51.248 159.44 51.168 159.152 51.168C158.864 51.168 158.635 51.248 158.464 51.408C158.304 51.5573 158.224 51.7707 158.224 52.048V52.4C158.224 52.6773 158.304 52.896 158.464 53.056C158.635 53.2053 158.864 53.28 159.152 53.28ZM165.61 66V57.744H166.89V59.264H166.97C167.119 58.8693 167.386 58.5173 167.77 58.208C168.154 57.8987 168.682 57.744 169.354 57.744H169.85V59.024H169.098C168.405 59.024 167.861 59.1573 167.466 59.424C167.082 59.68 166.89 60.0053 166.89 60.4V66H165.61Z" fill="#1A1A1A"/>
<path d="M154.5 88C154.5 83.8579 157.858 80.5 162 80.5H219C223.142 80.5 226.5 83.8579 226.5 88V112C226.5 116.142 223.142 119.5 219 119.5H162C157.858 119.5 154.5 116.142 154.5 112V88Z" fill="white"/>
<path d="M154.5 88C154.5 83.8579 157.858 80.5 162 80.5H219C223.142 80.5 226.5 83.8579 226.5 88V112C226.5 116.142 223.142 119.5 219 119.5H162C157.858 119.5 154.5 116.142 154.5 112V88Z" stroke="#8E8E8E"/>
<mask id="path-16-inside-3_14279_20806" fill="white">
<path d="M178.528 106H171.2V104.624L174.848 101.264C175.371 100.784 175.808 100.277 176.16 99.744C176.512 99.2 176.688 98.656 176.688 98.112V97.92C176.688 97.3013 176.517 96.8 176.176 96.416C175.835 96.032 175.317 95.84 174.624 95.84C174.283 95.84 173.984 95.888 173.728 95.984C173.472 96.08 173.248 96.2133 173.056 96.384C172.875 96.5547 172.72 96.7573 172.592 96.992C172.475 97.216 172.379 97.4613 172.304 97.728L171.104 97.264C171.211 96.9333 171.355 96.6133 171.536 96.304C171.728 95.984 171.963 95.7013 172.24 95.456C172.528 95.2107 172.869 95.0133 173.264 94.864C173.669 94.7147 174.144 94.64 174.688 94.64C175.232 94.64 175.717 94.72 176.144 94.88C176.571 95.04 176.928 95.264 177.216 95.552C177.504 95.84 177.723 96.1813 177.872 96.576C178.032 96.9707 178.112 97.408 178.112 97.888C178.112 98.3253 178.048 98.7307 177.92 99.104C177.803 99.4773 177.637 99.8347 177.424 100.176C177.211 100.507 176.949 100.832 176.64 101.152C176.341 101.472 176.016 101.792 175.664 102.112L172.656 104.816H178.528V106ZM184.394 106.192C183.06 106.192 182.084 105.685 181.466 104.672C180.858 103.659 180.554 102.24 180.554 100.416C180.554 98.592 180.858 97.1733 181.466 96.16C182.084 95.1467 183.06 94.64 184.394 94.64C185.727 94.64 186.698 95.1467 187.306 96.16C187.924 97.1733 188.234 98.592 188.234 100.416C188.234 102.24 187.924 103.659 187.306 104.672C186.698 105.685 185.727 106.192 184.394 106.192ZM184.394 105.024C184.831 105.024 185.204 104.933 185.514 104.752C185.823 104.571 186.074 104.315 186.266 103.984C186.458 103.653 186.596 103.264 186.682 102.816C186.778 102.368 186.826 101.872 186.826 101.328V99.504C186.826 98.96 186.778 98.464 186.682 98.016C186.596 97.568 186.458 97.1787 186.266 96.848C186.074 96.5173 185.823 96.2613 185.514 96.08C185.204 95.8987 184.831 95.808 184.394 95.808C183.956 95.808 183.583 95.8987 183.274 96.08C182.964 96.2613 182.714 96.5173 182.522 96.848C182.33 97.1787 182.186 97.568 182.09 98.016C182.004 98.464 181.962 98.96 181.962 99.504V101.328C181.962 101.872 182.004 102.368 182.09 102.816C182.186 103.264 182.33 103.653 182.522 103.984C182.714 104.315 182.964 104.571 183.274 104.752C183.583 104.933 183.956 105.024 184.394 105.024ZM197.716 106H190.388V104.624L194.036 101.264C194.558 100.784 194.996 100.277 195.348 99.744C195.7 99.2 195.876 98.656 195.876 98.112V97.92C195.876 97.3013 195.705 96.8 195.364 96.416C195.022 96.032 194.505 95.84 193.812 95.84C193.47 95.84 193.172 95.888 192.916 95.984C192.66 96.08 192.436 96.2133 192.244 96.384C192.062 96.5547 191.908 96.7573 191.78 96.992C191.662 97.216 191.566 97.4613 191.492 97.728L190.292 97.264C190.398 96.9333 190.542 96.6133 190.724 96.304C190.916 95.984 191.15 95.7013 191.428 95.456C191.716 95.2107 192.057 95.0133 192.452 94.864C192.857 94.7147 193.332 94.64 193.876 94.64C194.42 94.64 194.905 94.72 195.332 94.88C195.758 95.04 196.116 95.264 196.404 95.552C196.692 95.84 196.91 96.1813 197.06 96.576C197.22 96.9707 197.3 97.408 197.3 97.888C197.3 98.3253 197.236 98.7307 197.108 99.104C196.99 99.4773 196.825 99.8347 196.612 100.176C196.398 100.507 196.137 100.832 195.828 101.152C195.529 101.472 195.204 101.792 194.852 102.112L191.844 104.816H197.716V106ZM204.781 106V103.808H199.389V102.624L204.061 94.832H206.061V102.688H207.677V103.808H206.061V106H204.781ZM200.653 102.688H204.781V95.872H204.701L200.653 102.688Z"/>
</mask>
<path d="M178.528 106H171.2V104.624L174.848 101.264C175.371 100.784 175.808 100.277 176.16 99.744C176.512 99.2 176.688 98.656 176.688 98.112V97.92C176.688 97.3013 176.517 96.8 176.176 96.416C175.835 96.032 175.317 95.84 174.624 95.84C174.283 95.84 173.984 95.888 173.728 95.984C173.472 96.08 173.248 96.2133 173.056 96.384C172.875 96.5547 172.72 96.7573 172.592 96.992C172.475 97.216 172.379 97.4613 172.304 97.728L171.104 97.264C171.211 96.9333 171.355 96.6133 171.536 96.304C171.728 95.984 171.963 95.7013 172.24 95.456C172.528 95.2107 172.869 95.0133 173.264 94.864C173.669 94.7147 174.144 94.64 174.688 94.64C175.232 94.64 175.717 94.72 176.144 94.88C176.571 95.04 176.928 95.264 177.216 95.552C177.504 95.84 177.723 96.1813 177.872 96.576C178.032 96.9707 178.112 97.408 178.112 97.888C178.112 98.3253 178.048 98.7307 177.92 99.104C177.803 99.4773 177.637 99.8347 177.424 100.176C177.211 100.507 176.949 100.832 176.64 101.152C176.341 101.472 176.016 101.792 175.664 102.112L172.656 104.816H178.528V106ZM184.394 106.192C183.06 106.192 182.084 105.685 181.466 104.672C180.858 103.659 180.554 102.24 180.554 100.416C180.554 98.592 180.858 97.1733 181.466 96.16C182.084 95.1467 183.06 94.64 184.394 94.64C185.727 94.64 186.698 95.1467 187.306 96.16C187.924 97.1733 188.234 98.592 188.234 100.416C188.234 102.24 187.924 103.659 187.306 104.672C186.698 105.685 185.727 106.192 184.394 106.192ZM184.394 105.024C184.831 105.024 185.204 104.933 185.514 104.752C185.823 104.571 186.074 104.315 186.266 103.984C186.458 103.653 186.596 103.264 186.682 102.816C186.778 102.368 186.826 101.872 186.826 101.328V99.504C186.826 98.96 186.778 98.464 186.682 98.016C186.596 97.568 186.458 97.1787 186.266 96.848C186.074 96.5173 185.823 96.2613 185.514 96.08C185.204 95.8987 184.831 95.808 184.394 95.808C183.956 95.808 183.583 95.8987 183.274 96.08C182.964 96.2613 182.714 96.5173 182.522 96.848C182.33 97.1787 182.186 97.568 182.09 98.016C182.004 98.464 181.962 98.96 181.962 99.504V101.328C181.962 101.872 182.004 102.368 182.09 102.816C182.186 103.264 182.33 103.653 182.522 103.984C182.714 104.315 182.964 104.571 183.274 104.752C183.583 104.933 183.956 105.024 184.394 105.024ZM197.716 106H190.388V104.624L194.036 101.264C194.558 100.784 194.996 100.277 195.348 99.744C195.7 99.2 195.876 98.656 195.876 98.112V97.92C195.876 97.3013 195.705 96.8 195.364 96.416C195.022 96.032 194.505 95.84 193.812 95.84C193.47 95.84 193.172 95.888 192.916 95.984C192.66 96.08 192.436 96.2133 192.244 96.384C192.062 96.5547 191.908 96.7573 191.78 96.992C191.662 97.216 191.566 97.4613 191.492 97.728L190.292 97.264C190.398 96.9333 190.542 96.6133 190.724 96.304C190.916 95.984 191.15 95.7013 191.428 95.456C191.716 95.2107 192.057 95.0133 192.452 94.864C192.857 94.7147 193.332 94.64 193.876 94.64C194.42 94.64 194.905 94.72 195.332 94.88C195.758 95.04 196.116 95.264 196.404 95.552C196.692 95.84 196.91 96.1813 197.06 96.576C197.22 96.9707 197.3 97.408 197.3 97.888C197.3 98.3253 197.236 98.7307 197.108 99.104C196.99 99.4773 196.825 99.8347 196.612 100.176C196.398 100.507 196.137 100.832 195.828 101.152C195.529 101.472 195.204 101.792 194.852 102.112L191.844 104.816H197.716V106ZM204.781 106V103.808H199.389V102.624L204.061 94.832H206.061V102.688H207.677V103.808H206.061V106H204.781ZM200.653 102.688H204.781V95.872H204.701L200.653 102.688Z" fill="#1A1A1A"/>
<path d="M178.528 106V107H179.528V106H178.528ZM171.2 106H170.2V107H171.2V106ZM171.2 104.624L170.523 103.888L170.2 104.186V104.624H171.2ZM174.848 101.264L174.172 100.527L174.171 100.528L174.848 101.264ZM176.16 99.744L176.995 100.295L177 100.287L176.16 99.744ZM173.728 95.984L174.079 96.9203H174.079L173.728 95.984ZM173.056 96.384L172.392 95.6366L172.381 95.646L172.371 95.6558L173.056 96.384ZM172.592 96.992L171.714 96.5131L171.71 96.5205L171.706 96.528L172.592 96.992ZM172.304 97.728L171.943 98.6607L172.97 99.0577L173.267 97.9976L172.304 97.728ZM171.104 97.264L170.152 96.957L169.862 97.856L170.743 98.1967L171.104 97.264ZM171.536 96.304L170.678 95.7895L170.673 95.7983L171.536 96.304ZM172.24 95.456L171.592 94.6948L171.584 94.7008L171.577 94.707L172.24 95.456ZM173.264 94.864L172.918 93.9256L172.91 93.9287L173.264 94.864ZM176.144 94.88L176.495 93.9437L176.495 93.9437L176.144 94.88ZM177.216 95.552L177.923 94.8449L177.923 94.8449L177.216 95.552ZM177.872 96.576L176.937 96.9299L176.941 96.9408L176.945 96.9517L177.872 96.576ZM177.92 99.104L176.974 98.7797L176.97 98.7919L176.966 98.8042L177.92 99.104ZM177.424 100.176L178.264 100.718L178.268 100.712L178.272 100.706L177.424 100.176ZM176.64 101.152L175.921 100.457L175.915 100.463L175.909 100.47L176.64 101.152ZM175.664 102.112L176.333 102.856L176.337 102.852L175.664 102.112ZM172.656 104.816L171.987 104.072L170.048 105.816H172.656V104.816ZM178.528 104.816H179.528V103.816H178.528V104.816ZM178.528 105H171.2V107H178.528V105ZM172.2 106V104.624H170.2V106H172.2ZM171.877 105.36L175.525 102L174.171 100.528L170.523 103.888L171.877 105.36ZM175.524 102.001C176.101 101.471 176.593 100.903 176.995 100.295L175.325 99.1932C175.023 99.6513 174.641 100.097 174.172 100.527L175.524 102.001ZM177 100.287C177.436 99.6128 177.688 98.883 177.688 98.112H175.688C175.688 98.429 175.588 98.7872 175.32 99.2007L177 100.287ZM177.688 98.112V97.92H175.688V98.112H177.688ZM177.688 97.92C177.688 97.1089 177.459 96.3545 176.923 95.7516L175.429 97.0804C175.575 97.2455 175.688 97.4937 175.688 97.92H177.688ZM176.923 95.7516C176.332 95.0867 175.498 94.84 174.624 94.84V96.84C175.136 96.84 175.337 96.9773 175.429 97.0804L176.923 95.7516ZM174.624 94.84C174.191 94.84 173.769 94.9006 173.377 95.0477L174.079 96.9203C174.199 96.8754 174.374 96.84 174.624 96.84V94.84ZM173.377 95.0477C173.013 95.184 172.681 95.3791 172.392 95.6366L173.72 97.1314C173.815 97.0476 173.931 96.976 174.079 96.9203L173.377 95.0477ZM172.371 95.6558C172.107 95.904 171.889 96.1925 171.714 96.5131L173.47 97.4709C173.551 97.3221 173.642 97.2053 173.741 97.1122L172.371 95.6558ZM171.706 96.528C171.553 96.8195 171.433 97.1307 171.341 97.4584L173.267 97.9976C173.325 97.792 173.396 97.6125 173.478 97.456L171.706 96.528ZM172.665 96.7953L171.465 96.3313L170.743 98.1967L171.943 98.6607L172.665 96.7953ZM172.056 97.571C172.139 97.3118 172.253 97.0583 172.399 96.8097L170.673 95.7983C170.456 96.1684 170.282 96.5549 170.152 96.957L172.056 97.571ZM172.393 96.8185C172.533 96.5855 172.702 96.382 172.903 96.205L171.577 94.707C171.223 95.0206 170.923 95.3825 170.679 95.7895L172.393 96.8185ZM172.888 96.2172C173.08 96.0545 173.318 95.9126 173.618 95.7993L172.91 93.9287C172.42 94.114 171.976 94.3668 171.592 94.6948L172.888 96.2172ZM173.61 95.8023C173.88 95.7028 174.233 95.64 174.688 95.64V93.64C174.055 93.64 173.459 93.7265 172.918 93.9257L173.61 95.8023ZM174.688 95.64C175.135 95.64 175.498 95.7057 175.793 95.8163L176.495 93.9437C175.937 93.7343 175.329 93.64 174.688 93.64V95.64ZM175.793 95.8163C176.102 95.9322 176.333 96.0834 176.509 96.2591L177.923 94.8449C177.523 94.4446 177.04 94.1478 176.495 93.9437L175.793 95.8163ZM176.509 96.2591C176.693 96.4432 176.836 96.6629 176.937 96.9299L178.807 96.2221C178.61 95.6998 178.315 95.2368 177.923 94.8449L176.509 96.2591ZM176.945 96.9517C177.051 97.2128 177.112 97.5205 177.112 97.888H179.112C179.112 97.2955 179.013 96.7285 178.799 96.2003L176.945 96.9517ZM177.112 97.888C177.112 98.2268 177.063 98.5214 176.974 98.7797L178.866 99.4283C179.033 98.94 179.112 98.4238 179.112 97.888H177.112ZM176.966 98.8042C176.875 99.0943 176.746 99.3745 176.576 99.646L178.272 100.706C178.529 100.295 178.731 99.8604 178.874 99.4038L176.966 98.8042ZM176.584 99.6339C176.41 99.9032 176.191 100.178 175.921 100.457L177.359 101.847C177.708 101.486 178.011 101.11 178.264 100.718L176.584 99.6339ZM175.909 100.47C175.63 100.768 175.325 101.069 174.991 101.372L176.337 102.852C176.707 102.515 177.052 102.176 177.371 101.834L175.909 100.47ZM174.995 101.368L171.987 104.072L173.325 105.56L176.333 102.856L174.995 101.368ZM172.656 105.816H178.528V103.816H172.656V105.816ZM177.528 104.816V106H179.528V104.816H177.528ZM181.466 104.672L180.608 105.187L180.612 105.193L181.466 104.672ZM181.466 96.16L180.612 95.6389L180.608 95.6455L181.466 96.16ZM187.306 96.16L186.448 96.6745L186.452 96.6811L187.306 96.16ZM187.306 104.672L186.452 104.151L186.448 104.158L187.306 104.672ZM185.514 104.752L185.008 103.889L185.514 104.752ZM186.266 103.984L187.131 104.486L186.266 103.984ZM186.682 102.816L185.704 102.606L185.702 102.618L185.699 102.629L186.682 102.816ZM186.682 98.016L185.699 98.2031L185.702 98.2143L185.704 98.2255L186.682 98.016ZM185.514 96.08L185.008 96.9427L185.008 96.9427L185.514 96.08ZM183.274 96.08L183.779 96.9427L183.779 96.9427L183.274 96.08ZM182.522 96.848L183.387 97.3501L182.522 96.848ZM182.09 98.016L181.112 97.8065L181.11 97.8177L181.107 97.8289L182.09 98.016ZM182.09 102.816L181.107 103.003L181.11 103.014L181.112 103.026L182.09 102.816ZM182.522 103.984L183.387 103.482V103.482L182.522 103.984ZM183.274 104.752L182.768 105.615L183.274 104.752ZM184.394 105.192C183.358 105.192 182.731 104.826 182.319 104.151L180.612 105.193C181.438 106.545 182.763 107.192 184.394 107.192V105.192ZM182.323 104.158C181.846 103.362 181.554 102.149 181.554 100.416H179.554C179.554 102.331 179.869 103.955 180.608 105.186L182.323 104.158ZM181.554 100.416C181.554 98.6828 181.846 97.4698 182.323 96.6745L180.608 95.6455C179.869 96.8769 179.554 98.5012 179.554 100.416H181.554ZM182.319 96.6811C182.731 96.0064 183.358 95.64 184.394 95.64V93.64C182.763 93.64 181.438 94.2869 180.612 95.6389L182.319 96.6811ZM184.394 95.64C185.43 95.64 186.047 96.0058 186.448 96.6745L188.163 95.6455C187.348 94.2875 186.025 93.64 184.394 93.64V95.64ZM186.452 96.6811C186.937 97.4748 187.234 98.685 187.234 100.416H189.234C189.234 98.499 188.912 96.8719 188.159 95.6389L186.452 96.6811ZM187.234 100.416C187.234 102.147 186.937 103.357 186.452 104.151L188.159 105.193C188.912 103.96 189.234 102.333 189.234 100.416H187.234ZM186.448 104.158C186.047 104.826 185.43 105.192 184.394 105.192V107.192C186.025 107.192 187.348 106.544 188.163 105.186L186.448 104.158ZM184.394 106.024C184.97 106.024 185.526 105.904 186.019 105.615L185.008 103.889C184.882 103.963 184.692 104.024 184.394 104.024V106.024ZM186.019 105.615C186.487 105.34 186.858 104.956 187.131 104.486L185.401 103.482C185.29 103.674 185.159 103.801 185.008 103.889L186.019 105.615ZM187.131 104.486C187.389 104.041 187.562 103.541 187.664 103.003L185.699 102.629C185.631 102.987 185.527 103.266 185.401 103.482L187.131 104.486ZM187.66 103.026C187.773 102.497 187.826 101.93 187.826 101.328H185.826C185.826 101.814 185.783 102.239 185.704 102.606L187.66 103.026ZM187.826 101.328V99.504H185.826V101.328H187.826ZM187.826 99.504C187.826 98.9023 187.773 98.3347 187.66 97.8065L185.704 98.2255C185.783 98.5933 185.826 99.0177 185.826 99.504H187.826ZM187.664 97.8289C187.562 97.2908 187.389 96.7909 187.131 96.3459L185.401 97.3501C185.527 97.5664 185.631 97.8452 185.699 98.2031L187.664 97.8289ZM187.131 96.3459C186.858 95.8763 186.487 95.4916 186.019 95.2173L185.008 96.9427C185.159 97.031 185.29 97.1584 185.401 97.3501L187.131 96.3459ZM186.019 95.2173C185.526 94.9282 184.97 94.808 184.394 94.808V96.808C184.692 96.808 184.882 96.8691 185.008 96.9427L186.019 95.2173ZM184.394 94.808C183.818 94.808 183.261 94.9282 182.768 95.2173L183.779 96.9427C183.905 96.8691 184.095 96.808 184.394 96.808V94.808ZM182.768 95.2173C182.3 95.4916 181.93 95.8763 181.657 96.3459L183.387 97.3501C183.498 97.1584 183.629 97.031 183.779 96.9427L182.768 95.2173ZM181.657 96.3459C181.403 96.7835 181.226 97.2754 181.112 97.8065L183.068 98.2255C183.146 97.8606 183.257 97.5739 183.387 97.3501L181.657 96.3459ZM181.107 97.8289C181.008 98.349 180.962 98.9088 180.962 99.504H182.962C182.962 99.0112 183 98.579 183.072 98.2031L181.107 97.8289ZM180.962 99.504V101.328H182.962V99.504H180.962ZM180.962 101.328C180.962 101.923 181.008 102.483 181.107 103.003L183.072 102.629C183 102.253 182.962 101.821 182.962 101.328H180.962ZM181.112 103.026C181.226 103.557 181.403 104.049 181.657 104.486L183.387 103.482C183.257 103.258 183.146 102.971 183.068 102.606L181.112 103.026ZM181.657 104.486C181.93 104.956 182.3 105.34 182.768 105.615L183.779 103.889C183.629 103.801 183.498 103.674 183.387 103.482L181.657 104.486ZM182.768 105.615C183.261 105.904 183.818 106.024 184.394 106.024V104.024C184.095 104.024 183.905 103.963 183.779 103.889L182.768 105.615ZM197.715 106V107H198.715V106H197.715ZM190.388 106H189.388V107H190.388V106ZM190.388 104.624L189.71 103.888L189.388 104.186V104.624H190.388ZM194.035 101.264L193.359 100.527L193.358 100.528L194.035 101.264ZM195.347 99.744L196.182 100.295L196.187 100.287L195.347 99.744ZM192.916 95.984L193.267 96.9203L192.916 95.984ZM192.243 96.384L191.579 95.6366L191.568 95.646L191.558 95.6558L192.243 96.384ZM191.779 96.992L190.902 96.5131L190.898 96.5205L190.894 96.528L191.779 96.992ZM191.492 97.728L191.131 98.6607L192.158 99.0577L192.454 97.9976L191.492 97.728ZM190.292 97.264L189.34 96.957L189.05 97.856L189.931 98.1967L190.292 97.264ZM190.723 96.304L189.866 95.7895L189.861 95.7983L190.723 96.304ZM191.427 95.456L190.779 94.6948L190.772 94.7008L190.765 94.707L191.427 95.456ZM192.451 94.864L192.106 93.9256L192.098 93.9287L192.451 94.864ZM195.332 94.88L195.683 93.9437L195.683 93.9437L195.332 94.88ZM196.403 95.552L197.111 94.8449V94.8449L196.403 95.552ZM197.059 96.576L196.124 96.9299L196.128 96.9408L196.133 96.9517L197.059 96.576ZM197.108 99.104L196.162 98.7797L196.157 98.7919L196.154 98.8042L197.108 99.104ZM196.611 100.176L197.452 100.718L197.456 100.712L197.459 100.706L196.611 100.176ZM195.827 101.152L195.109 100.457L195.102 100.463L195.096 100.47L195.827 101.152ZM194.851 102.112L195.52 102.856L195.524 102.852L194.851 102.112ZM191.844 104.816L191.175 104.072L189.235 105.816H191.844V104.816ZM197.715 104.816H198.715V103.816H197.715V104.816ZM197.715 105H190.388V107H197.715V105ZM191.388 106V104.624H189.388V106H191.388ZM191.065 105.36L194.713 102L193.358 100.528L189.71 103.888L191.065 105.36ZM194.712 102.001C195.288 101.471 195.781 100.903 196.182 100.295L194.513 99.1932C194.21 99.6513 193.828 100.097 193.359 100.527L194.712 102.001ZM196.187 100.287C196.623 99.6128 196.875 98.883 196.875 98.112H194.875C194.875 98.429 194.776 98.7872 194.508 99.2007L196.187 100.287ZM196.875 98.112V97.92H194.875V98.112H196.875ZM196.875 97.92C196.875 97.1089 196.647 96.3545 196.111 95.7516L194.616 97.0804C194.763 97.2455 194.875 97.4937 194.875 97.92H196.875ZM196.111 95.7516C195.52 95.0867 194.686 94.84 193.812 94.84V96.84C194.324 96.84 194.524 96.9773 194.616 97.0804L196.111 95.7516ZM193.812 94.84C193.379 94.84 192.957 94.9006 192.564 95.0477L193.267 96.9203C193.386 96.8754 193.561 96.84 193.812 96.84V94.84ZM192.564 95.0477C192.201 95.184 191.869 95.3791 191.579 95.6366L192.908 97.1314C193.002 97.0476 193.118 96.976 193.267 96.9203L192.564 95.0477ZM191.558 95.6558C191.294 95.904 191.076 96.1925 190.902 96.5131L192.657 97.4709C192.739 97.3221 192.83 97.2053 192.929 97.1122L191.558 95.6558ZM190.894 96.528C190.741 96.8195 190.62 97.1307 190.529 97.4584L192.454 97.9976C192.512 97.792 192.583 97.6125 192.665 97.456L190.894 96.528ZM191.852 96.7953L190.652 96.3313L189.931 98.1967L191.131 98.6607L191.852 96.7953ZM191.243 97.571C191.327 97.3118 191.441 97.0583 191.586 96.8097L189.861 95.7983C189.644 96.1684 189.47 96.5549 189.34 96.957L191.243 97.571ZM191.581 96.8185C191.721 96.5855 191.89 96.382 192.09 96.205L190.765 94.707C190.41 95.0206 190.11 95.3825 189.866 95.7895L191.581 96.8185ZM192.076 96.2172C192.267 96.0545 192.506 95.9126 192.805 95.7993L192.098 93.9287C191.608 94.114 191.164 94.3668 190.779 94.6948L192.076 96.2172ZM192.797 95.8023C193.067 95.7028 193.42 95.64 193.875 95.64V93.64C193.243 93.64 192.646 93.7265 192.106 93.9257L192.797 95.8023ZM193.875 95.64C194.322 95.64 194.685 95.7057 194.98 95.8163L195.683 93.9437C195.124 93.7343 194.517 93.64 193.875 93.64V95.64ZM194.98 95.8163C195.289 95.9322 195.521 96.0834 195.696 96.2591L197.111 94.8449C196.71 94.4446 196.227 94.1478 195.683 93.9437L194.98 95.8163ZM195.696 96.2591C195.881 96.4432 196.023 96.6629 196.124 96.9299L197.995 96.2221C197.797 95.6998 197.502 95.2368 197.111 94.8449L195.696 96.2591ZM196.133 96.9517C196.239 97.2128 196.299 97.5205 196.299 97.888H198.299C198.299 97.2955 198.2 96.7285 197.986 96.2003L196.133 96.9517ZM196.299 97.888C196.299 98.2268 196.25 98.5214 196.162 98.7797L198.053 99.4283C198.221 98.94 198.299 98.4238 198.299 97.888H196.299ZM196.154 98.8042C196.062 99.0943 195.933 99.3745 195.764 99.646L197.459 100.706C197.716 100.295 197.918 99.8604 198.061 99.4038L196.154 98.8042ZM195.771 99.6339C195.597 99.9032 195.378 100.178 195.109 100.457L196.546 101.847C196.895 101.486 197.199 101.11 197.452 100.718L195.771 99.6339ZM195.096 100.47C194.818 100.768 194.512 101.069 194.179 101.372L195.524 102.852C195.895 102.515 196.24 102.176 196.559 101.834L195.096 100.47ZM194.183 101.368L191.175 104.072L192.512 105.56L195.52 102.856L194.183 101.368ZM191.844 105.816H197.715V103.816H191.844V105.816ZM196.715 104.816V106H198.715V104.816H196.715ZM204.781 106H203.781V107H204.781V106ZM204.781 103.808H205.781V102.808H204.781V103.808ZM199.389 103.808H198.389V104.808H199.389V103.808ZM199.389 102.624L198.532 102.11L198.389 102.347V102.624H199.389ZM204.061 94.832V93.832H203.495L203.204 94.3178L204.061 94.832ZM206.061 94.832H207.061V93.832H206.061V94.832ZM206.061 102.688H205.061V103.688H206.061V102.688ZM207.677 102.688H208.677V101.688H207.677V102.688ZM207.677 103.808V104.808H208.677V103.808H207.677ZM206.061 103.808V102.808H205.061V103.808H206.061ZM206.061 106V107H207.061V106H206.061ZM200.653 102.688L199.793 102.177L198.896 103.688H200.653V102.688ZM204.781 102.688V103.688H205.781V102.688H204.781ZM204.781 95.872H205.781V94.872H204.781V95.872ZM204.701 95.872V94.872H204.132L203.841 95.3614L204.701 95.872ZM205.781 106V103.808H203.781V106H205.781ZM204.781 102.808H199.389V104.808H204.781V102.808ZM200.389 103.808V102.624H198.389V103.808H200.389ZM200.247 103.138L204.919 95.3462L203.204 94.3178L198.532 102.11L200.247 103.138ZM204.061 95.832H206.061V93.832H204.061V95.832ZM205.061 94.832V102.688H207.061V94.832H205.061ZM206.061 103.688H207.677V101.688H206.061V103.688ZM206.677 102.688V103.808H208.677V102.688H206.677ZM207.677 102.808H206.061V104.808H207.677V102.808ZM205.061 103.808V106H207.061V103.808H205.061ZM206.061 105H204.781V107H206.061V105ZM200.653 103.688H204.781V101.688H200.653V103.688ZM205.781 102.688V95.872H203.781V102.688H205.781ZM204.781 94.872H204.701V96.872H204.781V94.872ZM203.841 95.3614L199.793 102.177L201.513 103.199L205.561 96.3826L203.841 95.3614Z" fill="#1A1A1A" mask="url(#path-16-inside-3_14279_20806)"/>
</svg>
