<svg width="418" height="280" viewBox="0 0 418 280" fill="none" xmlns="http://www.w3.org/2000/svg">
<rect width="418" height="280" fill="white"/>
<path d="M16 188C16 185.791 17.7909 184 20 184H292C294.209 184 296 185.791 296 188V200C296 202.209 294.209 204 292 204H20C17.7909 204 16 202.209 16 200V188Z" fill="#DCDCDC"/>
<path d="M16 248C16 245.791 17.7909 244 20 244H292C294.209 244 296 245.791 296 248V260C296 262.209 294.209 264 292 264H20C17.7909 264 16 262.209 16 260V248Z" fill="#DCDCDC"/>
<path d="M16 172C16 169.791 17.7909 168 20 168H130C132.209 168 134 169.791 134 172V176C134 178.209 132.209 180 130 180H20C17.7909 180 16 178.209 16 176V172Z" fill="#DCDCDC"/>
<path d="M16 232C16 229.791 17.7909 228 20 228H130C132.209 228 134 229.791 134 232V236C134 238.209 132.209 240 130 240H20C17.7909 240 16 238.209 16 236V232Z" fill="#DCDCDC"/>
<path d="M17.312 22.832H21.376C22.1013 22.832 22.7573 22.9493 23.344 23.184C23.9413 23.4187 24.448 23.7707 24.864 24.24C25.2907 24.6987 25.616 25.28 25.84 25.984C26.0747 26.6773 26.192 27.488 26.192 28.416C26.192 29.344 26.0747 30.16 25.84 30.864C25.616 31.5573 25.2907 32.1387 24.864 32.608C24.448 33.0667 23.9413 33.4133 23.344 33.648C22.7573 33.8827 22.1013 34 21.376 34H17.312V22.832ZM21.376 32.128C22.1653 32.128 22.7893 31.8987 23.248 31.44C23.7173 30.9707 23.952 30.256 23.952 29.296V27.536C23.952 26.576 23.7173 25.8667 23.248 25.408C22.7893 24.9387 22.1653 24.704 21.376 24.704H19.424V32.128H21.376ZM34.3593 34C33.9113 34 33.5539 33.872 33.2873 33.616C33.0313 33.3493 32.8713 32.9973 32.8073 32.56H32.7113C32.5726 33.104 32.2899 33.5147 31.8633 33.792C31.4366 34.0587 30.9086 34.192 30.2793 34.192C29.4259 34.192 28.7699 33.968 28.3113 33.52C27.8526 33.072 27.6233 32.4747 27.6233 31.728C27.6233 30.864 27.9326 30.224 28.5513 29.808C29.1699 29.3813 30.0499 29.168 31.1913 29.168H32.6153V28.56C32.6153 28.0907 32.4926 27.728 32.2473 27.472C32.0019 27.216 31.6073 27.088 31.0633 27.088C30.5833 27.088 30.1939 27.1947 29.8953 27.408C29.6073 27.6107 29.3619 27.856 29.1593 28.144L27.9433 27.056C28.2526 26.576 28.6633 26.192 29.1753 25.904C29.6873 25.6053 30.3646 25.456 31.2073 25.456C32.3379 25.456 33.1966 25.712 33.7833 26.224C34.3699 26.736 34.6633 27.472 34.6633 28.432V32.368H35.4953V34H34.3593ZM30.9673 32.704C31.4259 32.704 31.8153 32.6027 32.1353 32.4C32.4553 32.1973 32.6153 31.8987 32.6153 31.504V30.4H31.3033C30.2366 30.4 29.7033 30.7413 29.7033 31.424V31.696C29.7033 32.0373 29.8099 32.2933 30.0233 32.464C30.2473 32.624 30.5619 32.704 30.9673 32.704ZM39.6983 34C38.9943 34 38.4556 33.8187 38.0823 33.456C37.7196 33.0827 37.5383 32.5547 37.5383 31.872V27.28H36.3063V25.648H36.9463C37.2556 25.648 37.4636 25.5787 37.5703 25.44C37.6876 25.2907 37.7463 25.072 37.7463 24.784V23.36H39.5863V25.648H41.2983V27.28H39.5863V32.368H41.1703V34H39.6983ZM46.3241 34.192C45.7268 34.192 45.1881 34.0907 44.7081 33.888C44.2388 33.6853 43.8335 33.392 43.4921 33.008C43.1615 32.624 42.9055 32.1653 42.7241 31.632C42.5428 31.088 42.4521 30.48 42.4521 29.808C42.4521 29.136 42.5428 28.5333 42.7241 28C42.9055 27.4667 43.1615 27.0133 43.4921 26.64C43.8335 26.256 44.2388 25.9627 44.7081 25.76C45.1881 25.5573 45.7268 25.456 46.3241 25.456C46.9215 25.456 47.4601 25.5573 47.9401 25.76C48.4201 25.9627 48.8255 26.256 49.1561 26.64C49.4975 27.0133 49.7588 27.4667 49.9401 28C50.1215 28.5333 50.2121 29.136 50.2121 29.808C50.2121 30.48 50.1215 31.088 49.9401 31.632C49.7588 32.1653 49.4975 32.624 49.1561 33.008C48.8255 33.392 48.4201 33.6853 47.9401 33.888C47.4601 34.0907 46.9215 34.192 46.3241 34.192ZM46.3241 32.544C46.8681 32.544 47.2948 32.3787 47.6041 32.048C47.9135 31.7173 48.0681 31.232 48.0681 30.592V29.04C48.0681 28.4107 47.9135 27.9307 47.6041 27.6C47.2948 27.2693 46.8681 27.104 46.3241 27.104C45.7908 27.104 45.3695 27.2693 45.0601 27.6C44.7508 27.9307 44.5961 28.4107 44.5961 29.04V30.592C44.5961 31.232 44.7508 31.7173 45.0601 32.048C45.3695 32.3787 45.7908 32.544 46.3241 32.544ZM56.225 27.264H54.993V25.648H56.225V24.448C56.225 23.712 56.417 23.1467 56.801 22.752C57.1957 22.3573 57.7717 22.16 58.529 22.16H59.985V23.792H58.273V25.648H59.985V27.264H58.273V34H56.225V27.264ZM64.6523 34.192C64.0549 34.192 63.5163 34.0907 63.0363 33.888C62.5669 33.6853 62.1616 33.392 61.8203 33.008C61.4896 32.624 61.2336 32.1653 61.0523 31.632C60.8709 31.088 60.7803 30.48 60.7803 29.808C60.7803 29.136 60.8709 28.5333 61.0523 28C61.2336 27.4667 61.4896 27.0133 61.8203 26.64C62.1616 26.256 62.5669 25.9627 63.0363 25.76C63.5163 25.5573 64.0549 25.456 64.6523 25.456C65.2496 25.456 65.7883 25.5573 66.2683 25.76C66.7483 25.9627 67.1536 26.256 67.4843 26.64C67.8256 27.0133 68.0869 27.4667 68.2683 28C68.4496 28.5333 68.5403 29.136 68.5403 29.808C68.5403 30.48 68.4496 31.088 68.2683 31.632C68.0869 32.1653 67.8256 32.624 67.4843 33.008C67.1536 33.392 66.7483 33.6853 66.2683 33.888C65.7883 34.0907 65.2496 34.192 64.6523 34.192ZM64.6523 32.544C65.1963 32.544 65.6229 32.3787 65.9323 32.048C66.2416 31.7173 66.3963 31.232 66.3963 30.592V29.04C66.3963 28.4107 66.2416 27.9307 65.9323 27.6C65.6229 27.2693 65.1963 27.104 64.6523 27.104C64.1189 27.104 63.6976 27.2693 63.3883 27.6C63.0789 27.9307 62.9243 28.4107 62.9243 29.04V30.592C62.9243 31.232 63.0789 31.7173 63.3883 32.048C63.6976 32.3787 64.1189 32.544 64.6523 32.544ZM70.3559 34V25.648H72.4039V27.376H72.4839C72.5372 27.152 72.6172 26.9387 72.7239 26.736C72.8412 26.5227 72.9905 26.336 73.1719 26.176C73.3532 26.016 73.5665 25.888 73.8119 25.792C74.0679 25.696 74.3612 25.648 74.6919 25.648H75.1399V27.584H74.4999C73.8065 27.584 73.2839 27.6853 72.9319 27.888C72.5799 28.0907 72.4039 28.4213 72.4039 28.88V34H70.3559ZM86.5624 34C86.1144 34 85.757 33.872 85.4904 33.616C85.2344 33.3493 85.0744 32.9973 85.0104 32.56H84.9144C84.7757 33.104 84.493 33.5147 84.0664 33.792C83.6397 34.0587 83.1117 34.192 82.4824 34.192C81.629 34.192 80.973 33.968 80.5144 33.52C80.0557 33.072 79.8264 32.4747 79.8264 31.728C79.8264 30.864 80.1357 30.224 80.7544 29.808C81.373 29.3813 82.253 29.168 83.3944 29.168H84.8184V28.56C84.8184 28.0907 84.6957 27.728 84.4504 27.472C84.205 27.216 83.8104 27.088 83.2664 27.088C82.7864 27.088 82.397 27.1947 82.0984 27.408C81.8104 27.6107 81.565 27.856 81.3624 28.144L80.1464 27.056C80.4557 26.576 80.8664 26.192 81.3784 25.904C81.8904 25.6053 82.5677 25.456 83.4104 25.456C84.541 25.456 85.3997 25.712 85.9864 26.224C86.573 26.736 86.8664 27.472 86.8664 28.432V32.368H87.6984V34H86.5624ZM83.1704 32.704C83.629 32.704 84.0184 32.6027 84.3384 32.4C84.6584 32.1973 84.8184 31.8987 84.8184 31.504V30.4H83.5064C82.4397 30.4 81.9064 30.7413 81.9064 31.424V31.696C81.9064 32.0373 82.013 32.2933 82.2264 32.464C82.4504 32.624 82.765 32.704 83.1704 32.704ZM89.7719 27.264H88.5399V25.648H89.7719V24.448C89.7719 23.712 89.9639 23.1467 90.3479 22.752C90.7425 22.3573 91.3185 22.16 92.0759 22.16H93.5319V23.792H91.8199V25.648H93.5319V27.264H91.8199V34H89.7719V27.264ZM97.5576 34C96.8536 34 96.315 33.8187 95.9416 33.456C95.579 33.0827 95.3976 32.5547 95.3976 31.872V27.28H94.1656V25.648H94.8056C95.115 25.648 95.323 25.5787 95.4296 25.44C95.547 25.2907 95.6056 25.072 95.6056 24.784V23.36H97.4456V25.648H99.1576V27.28H97.4456V32.368H99.0296V34H97.5576ZM107.078 34C106.63 34 106.273 33.872 106.006 33.616C105.75 33.3493 105.59 32.9973 105.526 32.56H105.43C105.291 33.104 105.009 33.5147 104.582 33.792C104.155 34.0587 103.627 34.192 102.998 34.192C102.145 34.192 101.489 33.968 101.03 33.52C100.571 33.072 100.342 32.4747 100.342 31.728C100.342 30.864 100.651 30.224 101.27 29.808C101.889 29.3813 102.769 29.168 103.91 29.168H105.334V28.56C105.334 28.0907 105.211 27.728 104.966 27.472C104.721 27.216 104.326 27.088 103.782 27.088C103.302 27.088 102.913 27.1947 102.614 27.408C102.326 27.6107 102.081 27.856 101.878 28.144L100.662 27.056C100.971 26.576 101.382 26.192 101.894 25.904C102.406 25.6053 103.083 25.456 103.926 25.456C105.057 25.456 105.915 25.712 106.502 26.224C107.089 26.736 107.382 27.472 107.382 28.432V32.368H108.214V34H107.078ZM103.686 32.704C104.145 32.704 104.534 32.6027 104.854 32.4C105.174 32.1973 105.334 31.8987 105.334 31.504V30.4H104.022C102.955 30.4 102.422 30.7413 102.422 31.424V31.696C102.422 32.0373 102.529 32.2933 102.742 32.464C102.966 32.624 103.281 32.704 103.686 32.704ZM111.92 34C111.216 34 110.698 33.824 110.368 33.472C110.037 33.12 109.872 32.624 109.872 31.984V22.16H111.92V32.368H113.024V34H111.92ZM117.951 34.192C117.332 34.192 116.777 34.0907 116.287 33.888C115.807 33.6747 115.396 33.3813 115.055 33.008C114.724 32.624 114.468 32.1653 114.287 31.632C114.105 31.088 114.015 30.48 114.015 29.808C114.015 29.1467 114.1 28.5493 114.271 28.016C114.452 27.4827 114.708 27.0293 115.039 26.656C115.369 26.272 115.775 25.9787 116.255 25.776C116.735 25.5627 117.279 25.456 117.887 25.456C118.537 25.456 119.103 25.568 119.583 25.792C120.063 26.016 120.457 26.32 120.767 26.704C121.076 27.088 121.305 27.536 121.455 28.048C121.615 28.5493 121.695 29.088 121.695 29.664V30.336H116.143V30.544C116.143 31.152 116.313 31.6427 116.655 32.016C116.996 32.3787 117.503 32.56 118.175 32.56C118.687 32.56 119.103 32.4533 119.423 32.24C119.753 32.0267 120.047 31.7547 120.303 31.424L121.407 32.656C121.065 33.136 120.596 33.5147 119.999 33.792C119.412 34.0587 118.729 34.192 117.951 34.192ZM117.919 26.992C117.375 26.992 116.943 27.1733 116.623 27.536C116.303 27.8987 116.143 28.368 116.143 28.944V29.072H119.567V28.928C119.567 28.352 119.423 27.888 119.135 27.536C118.857 27.1733 118.452 26.992 117.919 26.992ZM123.497 34V25.648H125.545V27.04H125.625C125.795 26.592 126.062 26.2187 126.424 25.92C126.798 25.6107 127.31 25.456 127.961 25.456C128.825 25.456 129.486 25.7387 129.945 26.304C130.403 26.8693 130.633 27.6747 130.633 28.72V34H128.585V28.928C128.585 28.3307 128.478 27.8827 128.265 27.584C128.051 27.2853 127.699 27.136 127.209 27.136C126.995 27.136 126.787 27.168 126.585 27.232C126.393 27.2853 126.217 27.3707 126.057 27.488C125.907 27.5947 125.785 27.7333 125.689 27.904C125.593 28.064 125.545 28.256 125.545 28.48V34H123.497Z" fill="#1A1A1A"/>
<path d="M17.488 46.832H21.232C21.9253 46.832 22.5547 46.9493 23.12 47.184C23.6853 47.4187 24.1653 47.7707 24.56 48.24C24.9653 48.6987 25.2747 49.28 25.488 49.984C25.7013 50.6773 25.808 51.488 25.808 52.416C25.808 53.344 25.7013 54.16 25.488 54.864C25.2747 55.5573 24.9653 56.1387 24.56 56.608C24.1653 57.0667 23.6853 57.4133 23.12 57.648C22.5547 57.8827 21.9253 58 21.232 58H17.488V46.832ZM21.232 56.816C21.6907 56.816 22.112 56.7413 22.496 56.592C22.88 56.432 23.2107 56.2027 23.488 55.904C23.7653 55.6053 23.9787 55.2427 24.128 54.816C24.288 54.3787 24.368 53.8827 24.368 53.328V51.504C24.368 50.9493 24.288 50.4587 24.128 50.032C23.9787 49.5947 23.7653 49.2267 23.488 48.928C23.2107 48.6293 22.88 48.4053 22.496 48.256C22.112 48.096 21.6907 48.016 21.232 48.016H18.832V56.816H21.232ZM31.1984 58.192C30.633 58.192 30.121 58.0907 29.6624 57.888C29.2144 57.6853 28.825 57.3973 28.4944 57.024C28.1744 56.64 27.9237 56.1867 27.7424 55.664C27.5717 55.1307 27.4864 54.5333 27.4864 53.872C27.4864 53.2213 27.5717 52.6293 27.7424 52.096C27.9237 51.5627 28.1744 51.1093 28.4944 50.736C28.825 50.352 29.2144 50.0587 29.6624 49.856C30.121 49.6533 30.633 49.552 31.1984 49.552C31.753 49.552 32.249 49.6533 32.6864 49.856C33.1237 50.0587 33.497 50.3413 33.8064 50.704C34.1157 51.056 34.3504 51.4773 34.5104 51.968C34.681 52.4587 34.7664 52.9973 34.7664 53.584V54.192H28.8304V54.576C28.8304 54.928 28.8837 55.2587 28.9904 55.568C29.1077 55.8667 29.2677 56.128 29.4704 56.352C29.6837 56.576 29.9397 56.752 30.2384 56.88C30.5477 57.008 30.8944 57.072 31.2784 57.072C31.801 57.072 32.2544 56.9493 32.6384 56.704C33.033 56.4587 33.337 56.1067 33.5504 55.648L34.4624 56.304C34.1957 56.8693 33.7797 57.328 33.2144 57.68C32.649 58.0213 31.977 58.192 31.1984 58.192ZM31.1984 50.624C30.8464 50.624 30.5264 50.688 30.2384 50.816C29.9504 50.9333 29.6997 51.104 29.4864 51.328C29.2837 51.552 29.1237 51.8187 29.0064 52.128C28.889 52.4267 28.8304 52.7573 28.8304 53.12V53.232H33.3904V53.056C33.3904 52.32 33.1877 51.7333 32.7824 51.296C32.3877 50.848 31.8597 50.624 31.1984 50.624ZM36.8756 58V49.744H38.1556V51.264H38.2356C38.385 50.8693 38.6516 50.5173 39.0356 50.208C39.4196 49.8987 39.9476 49.744 40.6196 49.744H41.1156V51.024H40.3636C39.6703 51.024 39.1263 51.1573 38.7316 51.424C38.3476 51.68 38.1556 52.0053 38.1556 52.4V58H36.8756ZM49.6359 58.192C49.0705 58.192 48.5585 58.0907 48.0999 57.888C47.6519 57.6853 47.2625 57.3973 46.9319 57.024C46.6119 56.64 46.3612 56.1867 46.1799 55.664C46.0092 55.1307 45.9239 54.5333 45.9239 53.872C45.9239 53.2213 46.0092 52.6293 46.1799 52.096C46.3612 51.5627 46.6119 51.1093 46.9319 50.736C47.2625 50.352 47.6519 50.0587 48.0999 49.856C48.5585 49.6533 49.0705 49.552 49.6359 49.552C50.1905 49.552 50.6865 49.6533 51.1239 49.856C51.5612 50.0587 51.9345 50.3413 52.2439 50.704C52.5532 51.056 52.7879 51.4773 52.9479 51.968C53.1185 52.4587 53.2039 52.9973 53.2039 53.584V54.192H47.2679V54.576C47.2679 54.928 47.3212 55.2587 47.4279 55.568C47.5452 55.8667 47.7052 56.128 47.9079 56.352C48.1212 56.576 48.3772 56.752 48.6759 56.88C48.9852 57.008 49.3319 57.072 49.7159 57.072C50.2385 57.072 50.6919 56.9493 51.0759 56.704C51.4705 56.4587 51.7745 56.1067 51.9879 55.648L52.8999 56.304C52.6332 56.8693 52.2172 57.328 51.6519 57.68C51.0865 58.0213 50.4145 58.192 49.6359 58.192ZM49.6359 50.624C49.2839 50.624 48.9639 50.688 48.6759 50.816C48.3879 50.9333 48.1372 51.104 47.9239 51.328C47.7212 51.552 47.5612 51.8187 47.4439 52.128C47.3265 52.4267 47.2679 52.7573 47.2679 53.12V53.232H51.8279V53.056C51.8279 52.32 51.6252 51.7333 51.2199 51.296C50.8252 50.848 50.2972 50.624 49.6359 50.624ZM55.3131 58V49.744H56.5931V51.264H56.6731C56.8225 50.8693 57.0891 50.5173 57.4731 50.208C57.8571 49.8987 58.3851 49.744 59.0571 49.744H59.5531V51.024H58.8011C58.1078 51.024 57.5638 51.1573 57.1691 51.424C56.7851 51.68 56.5931 52.0053 56.5931 52.4V58H55.3131ZM64.9694 46.16H66.2494V53.664H66.3134L67.5774 52.256L69.9134 49.744H71.4654L68.4094 53.008L71.7694 58H70.2174L67.4814 53.792L66.2494 55.056V58H64.9694V46.16ZM78.3386 56.656H78.2746C78.1893 56.848 78.0826 57.04 77.9546 57.232C77.8373 57.4133 77.688 57.5787 77.5066 57.728C77.3253 57.8667 77.1066 57.9787 76.8506 58.064C76.5946 58.1493 76.296 58.192 75.9546 58.192C75.1013 58.192 74.424 57.92 73.9226 57.376C73.4213 56.8213 73.1706 56.0427 73.1706 55.04V49.744H74.4506V54.816C74.4506 56.2987 75.08 57.04 76.3386 57.04C76.5946 57.04 76.84 57.008 77.0746 56.944C77.32 56.88 77.5333 56.784 77.7146 56.656C77.9066 56.528 78.056 56.368 78.1626 56.176C78.28 55.9733 78.3386 55.7333 78.3386 55.456V49.744H79.6186V58H78.3386V56.656ZM82.3444 58V49.744H83.6244V51.088H83.6884C83.891 50.6187 84.1737 50.2453 84.5364 49.968C84.9097 49.6907 85.4057 49.552 86.0244 49.552C86.8777 49.552 87.5497 49.8293 88.0404 50.384C88.5417 50.928 88.7924 51.7013 88.7924 52.704V58H87.5124V52.928C87.5124 51.4453 86.8884 50.704 85.6404 50.704C85.3844 50.704 85.1337 50.736 84.8884 50.8C84.6537 50.864 84.4404 50.96 84.2484 51.088C84.0564 51.216 83.9017 51.3813 83.7844 51.584C83.6777 51.776 83.6244 52.0053 83.6244 52.272V58H82.3444ZM96.5794 58C96.1314 58 95.79 57.8773 95.5554 57.632C95.3314 57.376 95.2194 57.056 95.2194 56.672V46.16H96.4994V56.88H97.7154V58H96.5794ZM102.683 58.192C102.117 58.192 101.605 58.0907 101.147 57.888C100.699 57.6853 100.309 57.3973 99.9788 57.024C99.6588 56.64 99.4081 56.1867 99.2268 55.664C99.0561 55.1307 98.9708 54.5333 98.9708 53.872C98.9708 53.2213 99.0561 52.6293 99.2268 52.096C99.4081 51.5627 99.6588 51.1093 99.9788 50.736C100.309 50.352 100.699 50.0587 101.147 49.856C101.605 49.6533 102.117 49.552 102.683 49.552C103.237 49.552 103.733 49.6533 104.171 49.856C104.608 50.0587 104.981 50.3413 105.291 50.704C105.6 51.056 105.835 51.4773 105.995 51.968C106.165 52.4587 106.251 52.9973 106.251 53.584V54.192H100.315V54.576C100.315 54.928 100.368 55.2587 100.475 55.568C100.592 55.8667 100.752 56.128 100.955 56.352C101.168 56.576 101.424 56.752 101.723 56.88C102.032 57.008 102.379 57.072 102.763 57.072C103.285 57.072 103.739 56.9493 104.123 56.704C104.517 56.4587 104.821 56.1067 105.035 55.648L105.947 56.304C105.68 56.8693 105.264 57.328 104.699 57.68C104.133 58.0213 103.461 58.192 102.683 58.192ZM102.683 50.624C102.331 50.624 102.011 50.688 101.723 50.816C101.435 50.9333 101.184 51.104 100.971 51.328C100.768 51.552 100.608 51.8187 100.491 52.128C100.373 52.4267 100.315 52.7573 100.315 53.12V53.232H104.875V53.056C104.875 52.32 104.672 51.7333 104.267 51.296C103.872 50.848 103.344 50.624 102.683 50.624ZM113.64 56.656H113.576C113.075 57.68 112.269 58.192 111.16 58.192C110.648 58.192 110.184 58.0907 109.768 57.888C109.352 57.6853 108.995 57.3973 108.696 57.024C108.408 56.6507 108.184 56.1973 108.024 55.664C107.875 55.1307 107.8 54.5333 107.8 53.872C107.8 53.2107 107.875 52.6133 108.024 52.08C108.184 51.5467 108.408 51.0933 108.696 50.72C108.995 50.3467 109.352 50.0587 109.768 49.856C110.184 49.6533 110.648 49.552 111.16 49.552C111.736 49.552 112.227 49.68 112.632 49.936C113.048 50.1813 113.363 50.5653 113.576 51.088H113.64V46.16H114.92V58H113.64V56.656ZM111.512 57.04C111.8 57.04 112.072 57.0027 112.328 56.928C112.595 56.8533 112.824 56.7467 113.016 56.608C113.208 56.4587 113.357 56.2827 113.464 56.08C113.581 55.8667 113.64 55.6267 113.64 55.36V52.288C113.64 52.064 113.581 51.856 113.464 51.664C113.357 51.4613 113.208 51.2907 113.016 51.152C112.824 51.0133 112.595 50.9067 112.328 50.832C112.072 50.7467 111.8 50.704 111.512 50.704C110.787 50.704 110.216 50.9333 109.8 51.392C109.384 51.84 109.176 52.432 109.176 53.168V54.576C109.176 55.312 109.384 55.9093 109.8 56.368C110.216 56.816 110.787 57.04 111.512 57.04ZM118.281 47.808C118.004 47.808 117.801 47.744 117.673 47.616C117.556 47.4773 117.497 47.3013 117.497 47.088V46.88C117.497 46.6667 117.556 46.496 117.673 46.368C117.801 46.2293 118.004 46.16 118.281 46.16C118.559 46.16 118.756 46.2293 118.873 46.368C119.001 46.496 119.065 46.6667 119.065 46.88V47.088C119.065 47.3013 119.001 47.4773 118.873 47.616C118.756 47.744 118.559 47.808 118.281 47.808ZM117.641 49.744H118.921V58H117.641V49.744ZM128.601 58.912C128.601 59.7653 128.265 60.3893 127.593 60.784C126.932 61.1893 125.935 61.392 124.601 61.392C123.311 61.392 122.383 61.216 121.817 60.864C121.252 60.512 120.969 60.0107 120.969 59.36C120.969 58.912 121.087 58.56 121.321 58.304C121.556 58.0587 121.876 57.8773 122.281 57.76V57.584C121.791 57.3493 121.545 56.9653 121.545 56.432C121.545 56.016 121.679 55.7013 121.945 55.488C122.212 55.264 122.553 55.0987 122.969 54.992V54.928C122.479 54.6933 122.095 54.3573 121.817 53.92C121.551 53.4827 121.417 52.976 121.417 52.4C121.417 51.984 121.492 51.6 121.641 51.248C121.791 50.896 121.999 50.5973 122.265 50.352C122.543 50.096 122.868 49.8987 123.241 49.76C123.625 49.6213 124.052 49.552 124.521 49.552C125.108 49.552 125.631 49.6587 126.089 49.872V49.728C126.089 49.408 126.164 49.1467 126.313 48.944C126.463 48.7307 126.708 48.624 127.049 48.624H128.281V49.744H126.713V50.272C127.012 50.528 127.241 50.8373 127.401 51.2C127.572 51.552 127.657 51.952 127.657 52.4C127.657 52.816 127.583 53.2 127.433 53.552C127.284 53.904 127.071 54.208 126.793 54.464C126.527 54.7093 126.201 54.9013 125.817 55.04C125.433 55.1787 125.007 55.248 124.537 55.248C124.271 55.248 124.004 55.2213 123.737 55.168C123.46 55.2427 123.209 55.3547 122.985 55.504C122.761 55.6427 122.649 55.84 122.649 56.096C122.649 56.3413 122.767 56.5067 123.001 56.592C123.236 56.6773 123.54 56.72 123.913 56.72H125.673C126.697 56.72 127.439 56.9173 127.897 57.312C128.367 57.696 128.601 58.2293 128.601 58.912ZM127.401 59.008C127.401 58.6773 127.273 58.4107 127.017 58.208C126.772 58.016 126.329 57.92 125.689 57.92H122.937C122.425 58.1547 122.169 58.528 122.169 59.04C122.169 59.4027 122.303 59.712 122.569 59.968C122.847 60.224 123.311 60.352 123.961 60.352H125.145C125.86 60.352 126.415 60.24 126.809 60.016C127.204 59.792 127.401 59.456 127.401 59.008ZM124.537 54.224C125.081 54.224 125.513 54.096 125.833 53.84C126.153 53.5733 126.313 53.168 126.313 52.624V52.176C126.313 51.632 126.153 51.232 125.833 50.976C125.513 50.7093 125.081 50.576 124.537 50.576C123.993 50.576 123.561 50.7093 123.241 50.976C122.921 51.232 122.761 51.632 122.761 52.176V52.624C122.761 53.168 122.921 53.5733 123.241 53.84C123.561 54.096 123.993 54.224 124.537 54.224ZM133.105 58.192C132.539 58.192 132.027 58.0907 131.569 57.888C131.121 57.6853 130.731 57.3973 130.401 57.024C130.081 56.64 129.83 56.1867 129.649 55.664C129.478 55.1307 129.393 54.5333 129.393 53.872C129.393 53.2213 129.478 52.6293 129.649 52.096C129.83 51.5627 130.081 51.1093 130.401 50.736C130.731 50.352 131.121 50.0587 131.569 49.856C132.027 49.6533 132.539 49.552 133.105 49.552C133.659 49.552 134.155 49.6533 134.593 49.856C135.03 50.0587 135.403 50.3413 135.713 50.704C136.022 51.056 136.257 51.4773 136.417 51.968C136.587 52.4587 136.673 52.9973 136.673 53.584V54.192H130.737V54.576C130.737 54.928 130.79 55.2587 130.897 55.568C131.014 55.8667 131.174 56.128 131.377 56.352C131.59 56.576 131.846 56.752 132.145 56.88C132.454 57.008 132.801 57.072 133.185 57.072C133.707 57.072 134.161 56.9493 134.545 56.704C134.939 56.4587 135.243 56.1067 135.457 55.648L136.369 56.304C136.102 56.8693 135.686 57.328 135.121 57.68C134.555 58.0213 133.883 58.192 133.105 58.192ZM133.105 50.624C132.753 50.624 132.433 50.688 132.145 50.816C131.857 50.9333 131.606 51.104 131.393 51.328C131.19 51.552 131.03 51.8187 130.913 52.128C130.795 52.4267 130.737 52.7573 130.737 53.12V53.232H135.297V53.056C135.297 52.32 135.094 51.7333 134.689 51.296C134.294 50.848 133.766 50.624 133.105 50.624ZM147.843 56.656H147.779C147.278 57.68 146.472 58.192 145.363 58.192C144.851 58.192 144.387 58.0907 143.971 57.888C143.555 57.6853 143.198 57.3973 142.899 57.024C142.611 56.6507 142.387 56.1973 142.227 55.664C142.078 55.1307 142.003 54.5333 142.003 53.872C142.003 53.2107 142.078 52.6133 142.227 52.08C142.387 51.5467 142.611 51.0933 142.899 50.72C143.198 50.3467 143.555 50.0587 143.971 49.856C144.387 49.6533 144.851 49.552 145.363 49.552C145.939 49.552 146.43 49.68 146.835 49.936C147.251 50.1813 147.566 50.5653 147.779 51.088H147.843V46.16H149.123V58H147.843V56.656ZM145.715 57.04C146.003 57.04 146.275 57.0027 146.531 56.928C146.798 56.8533 147.027 56.7467 147.219 56.608C147.411 56.4587 147.56 56.2827 147.667 56.08C147.784 55.8667 147.843 55.6267 147.843 55.36V52.288C147.843 52.064 147.784 51.856 147.667 51.664C147.56 51.4613 147.411 51.2907 147.219 51.152C147.027 51.0133 146.798 50.9067 146.531 50.832C146.275 50.7467 146.003 50.704 145.715 50.704C144.99 50.704 144.419 50.9333 144.003 51.392C143.587 51.84 143.379 52.432 143.379 53.168V54.576C143.379 55.312 143.587 55.9093 144.003 56.368C144.419 56.816 144.99 57.04 145.715 57.04ZM157.844 58C157.364 58 157.018 57.872 156.804 57.616C156.602 57.36 156.474 57.04 156.42 56.656H156.34C156.159 57.168 155.86 57.552 155.444 57.808C155.028 58.064 154.532 58.192 153.956 58.192C153.082 58.192 152.399 57.968 151.908 57.52C151.428 57.072 151.188 56.464 151.188 55.696C151.188 54.9173 151.471 54.32 152.036 53.904C152.612 53.488 153.503 53.28 154.708 53.28H156.34V52.464C156.34 51.8773 156.18 51.4293 155.86 51.12C155.54 50.8107 155.05 50.656 154.388 50.656C153.887 50.656 153.466 50.768 153.124 50.992C152.794 51.216 152.516 51.5147 152.292 51.888L151.524 51.168C151.748 50.72 152.106 50.3413 152.596 50.032C153.087 49.712 153.706 49.552 154.452 49.552C155.455 49.552 156.234 49.7973 156.788 50.288C157.343 50.7787 157.62 51.4613 157.62 52.336V56.88H158.564V58H157.844ZM154.164 57.104C154.484 57.104 154.778 57.0667 155.044 56.992C155.311 56.9173 155.54 56.8107 155.732 56.672C155.924 56.5333 156.074 56.3733 156.18 56.192C156.287 56.0107 156.34 55.8133 156.34 55.6V54.24H154.644C153.908 54.24 153.37 54.3467 153.028 54.56C152.698 54.7733 152.532 55.0827 152.532 55.488V55.824C152.532 56.2293 152.676 56.544 152.964 56.768C153.263 56.992 153.663 57.104 154.164 57.104ZM162.215 58C161.767 58 161.426 57.8773 161.191 57.632C160.967 57.376 160.855 57.0453 160.855 56.64V50.864H159.495V49.744H160.263C160.541 49.744 160.727 49.6907 160.823 49.584C160.93 49.4667 160.983 49.2693 160.983 48.992V47.456H162.135V49.744H163.943V50.864H162.135V56.88H163.815V58H162.215ZM169.058 58.192C168.503 58.192 167.997 58.0907 167.538 57.888C167.079 57.6853 166.685 57.3973 166.354 57.024C166.034 56.64 165.783 56.1867 165.602 55.664C165.421 55.1307 165.33 54.5333 165.33 53.872C165.33 53.2213 165.421 52.6293 165.602 52.096C165.783 51.5627 166.034 51.1093 166.354 50.736C166.685 50.352 167.079 50.0587 167.538 49.856C167.997 49.6533 168.503 49.552 169.058 49.552C169.613 49.552 170.114 49.6533 170.562 49.856C171.021 50.0587 171.415 50.352 171.746 50.736C172.077 51.1093 172.333 51.5627 172.514 52.096C172.695 52.6293 172.786 53.2213 172.786 53.872C172.786 54.5333 172.695 55.1307 172.514 55.664C172.333 56.1867 172.077 56.64 171.746 57.024C171.415 57.3973 171.021 57.6853 170.562 57.888C170.114 58.0907 169.613 58.192 169.058 58.192ZM169.058 57.056C169.751 57.056 170.317 56.8427 170.754 56.416C171.191 55.9893 171.41 55.3387 171.41 54.464V53.28C171.41 52.4053 171.191 51.7547 170.754 51.328C170.317 50.9013 169.751 50.688 169.058 50.688C168.365 50.688 167.799 50.9013 167.362 51.328C166.925 51.7547 166.706 52.4053 166.706 53.28V54.464C166.706 55.3387 166.925 55.9893 167.362 56.416C167.799 56.8427 168.365 57.056 169.058 57.056ZM177.995 58.192C177.43 58.192 176.918 58.0907 176.459 57.888C176.011 57.6853 175.622 57.3973 175.291 57.024C174.971 56.64 174.721 56.1867 174.539 55.664C174.369 55.1307 174.283 54.5333 174.283 53.872C174.283 53.2213 174.369 52.6293 174.539 52.096C174.721 51.5627 174.971 51.1093 175.291 50.736C175.622 50.352 176.011 50.0587 176.459 49.856C176.918 49.6533 177.43 49.552 177.995 49.552C178.55 49.552 179.046 49.6533 179.483 49.856C179.921 50.0587 180.294 50.3413 180.603 50.704C180.913 51.056 181.147 51.4773 181.307 51.968C181.478 52.4587 181.563 52.9973 181.563 53.584V54.192H175.627V54.576C175.627 54.928 175.681 55.2587 175.787 55.568C175.905 55.8667 176.065 56.128 176.267 56.352C176.481 56.576 176.737 56.752 177.035 56.88C177.345 57.008 177.691 57.072 178.075 57.072C178.598 57.072 179.051 56.9493 179.435 56.704C179.83 56.4587 180.134 56.1067 180.347 55.648L181.259 56.304C180.993 56.8693 180.577 57.328 180.011 57.68C179.446 58.0213 178.774 58.192 177.995 58.192ZM177.995 50.624C177.643 50.624 177.323 50.688 177.035 50.816C176.747 50.9333 176.497 51.104 176.283 51.328C176.081 51.552 175.921 51.8187 175.803 52.128C175.686 52.4267 175.627 52.7573 175.627 53.12V53.232H180.187V53.056C180.187 52.32 179.985 51.7333 179.579 51.296C179.185 50.848 178.657 50.624 177.995 50.624ZM183.673 58V49.744H184.953V51.264H185.033C185.182 50.8693 185.449 50.5173 185.833 50.208C186.217 49.8987 186.745 49.744 187.417 49.744H187.913V51.024H187.161C186.467 51.024 185.923 51.1573 185.529 51.424C185.145 51.68 184.953 52.0053 184.953 52.4V58H183.673ZM193.969 47.808C193.691 47.808 193.489 47.744 193.361 47.616C193.243 47.4773 193.185 47.3013 193.185 47.088V46.88C193.185 46.6667 193.243 46.496 193.361 46.368C193.489 46.2293 193.691 46.16 193.969 46.16C194.246 46.16 194.443 46.2293 194.561 46.368C194.689 46.496 194.753 46.6667 194.753 46.88V47.088C194.753 47.3013 194.689 47.4773 194.561 47.616C194.443 47.744 194.246 47.808 193.969 47.808ZM193.329 49.744H194.609V58H193.329V49.744ZM206.198 56.656H206.134C206.049 56.848 205.942 57.04 205.814 57.232C205.697 57.4133 205.547 57.5787 205.366 57.728C205.185 57.8667 204.966 57.9787 204.71 58.064C204.454 58.1493 204.155 58.192 203.814 58.192C202.961 58.192 202.283 57.92 201.782 57.376C201.281 56.8213 201.03 56.0427 201.03 55.04V49.744H202.31V54.816C202.31 56.2987 202.939 57.04 204.198 57.04C204.454 57.04 204.699 57.008 204.934 56.944C205.179 56.88 205.393 56.784 205.574 56.656C205.766 56.528 205.915 56.368 206.022 56.176C206.139 55.9733 206.198 55.7333 206.198 55.456V49.744H207.478V58H206.198V56.656ZM217.164 58.912C217.164 59.7653 216.828 60.3893 216.156 60.784C215.494 61.1893 214.497 61.392 213.164 61.392C211.873 61.392 210.945 61.216 210.38 60.864C209.814 60.512 209.532 60.0107 209.532 59.36C209.532 58.912 209.649 58.56 209.884 58.304C210.118 58.0587 210.438 57.8773 210.844 57.76V57.584C210.353 57.3493 210.108 56.9653 210.108 56.432C210.108 56.016 210.241 55.7013 210.508 55.488C210.774 55.264 211.116 55.0987 211.532 54.992V54.928C211.041 54.6933 210.657 54.3573 210.38 53.92C210.113 53.4827 209.98 52.976 209.98 52.4C209.98 51.984 210.054 51.6 210.204 51.248C210.353 50.896 210.561 50.5973 210.828 50.352C211.105 50.096 211.43 49.8987 211.804 49.76C212.188 49.6213 212.614 49.552 213.084 49.552C213.67 49.552 214.193 49.6587 214.652 49.872V49.728C214.652 49.408 214.726 49.1467 214.876 48.944C215.025 48.7307 215.27 48.624 215.612 48.624H216.844V49.744H215.276V50.272C215.574 50.528 215.804 50.8373 215.964 51.2C216.134 51.552 216.22 51.952 216.22 52.4C216.22 52.816 216.145 53.2 215.996 53.552C215.846 53.904 215.633 54.208 215.356 54.464C215.089 54.7093 214.764 54.9013 214.38 55.04C213.996 55.1787 213.569 55.248 213.1 55.248C212.833 55.248 212.566 55.2213 212.3 55.168C212.022 55.2427 211.772 55.3547 211.548 55.504C211.324 55.6427 211.212 55.84 211.212 56.096C211.212 56.3413 211.329 56.5067 211.564 56.592C211.798 56.6773 212.102 56.72 212.476 56.72H214.236C215.26 56.72 216.001 56.9173 216.46 57.312C216.929 57.696 217.164 58.2293 217.164 58.912ZM215.964 59.008C215.964 58.6773 215.836 58.4107 215.58 58.208C215.334 58.016 214.892 57.92 214.252 57.92H211.5C210.988 58.1547 210.732 58.528 210.732 59.04C210.732 59.4027 210.865 59.712 211.132 59.968C211.409 60.224 211.873 60.352 212.524 60.352H213.708C214.422 60.352 214.977 60.24 215.372 60.016C215.766 59.792 215.964 59.456 215.964 59.008ZM213.1 54.224C213.644 54.224 214.076 54.096 214.396 53.84C214.716 53.5733 214.876 53.168 214.876 52.624V52.176C214.876 51.632 214.716 51.232 214.396 50.976C214.076 50.7093 213.644 50.576 213.1 50.576C212.556 50.576 212.124 50.7093 211.804 50.976C211.484 51.232 211.324 51.632 211.324 52.176V52.624C211.324 53.168 211.484 53.5733 211.804 53.84C212.124 54.096 212.556 54.224 213.1 54.224ZM221.667 58.192C221.102 58.192 220.59 58.0907 220.131 57.888C219.683 57.6853 219.294 57.3973 218.963 57.024C218.643 56.64 218.392 56.1867 218.211 55.664C218.04 55.1307 217.955 54.5333 217.955 53.872C217.955 53.2213 218.04 52.6293 218.211 52.096C218.392 51.5627 218.643 51.1093 218.963 50.736C219.294 50.352 219.683 50.0587 220.131 49.856C220.59 49.6533 221.102 49.552 221.667 49.552C222.222 49.552 222.718 49.6533 223.155 49.856C223.592 50.0587 223.966 50.3413 224.275 50.704C224.584 51.056 224.819 51.4773 224.979 51.968C225.15 52.4587 225.235 52.9973 225.235 53.584V54.192H219.299V54.576C219.299 54.928 219.352 55.2587 219.459 55.568C219.576 55.8667 219.736 56.128 219.939 56.352C220.152 56.576 220.408 56.752 220.707 56.88C221.016 57.008 221.363 57.072 221.747 57.072C222.27 57.072 222.723 56.9493 223.107 56.704C223.502 56.4587 223.806 56.1067 224.019 55.648L224.931 56.304C224.664 56.8693 224.248 57.328 223.683 57.68C223.118 58.0213 222.446 58.192 221.667 58.192ZM221.667 50.624C221.315 50.624 220.995 50.688 220.707 50.816C220.419 50.9333 220.168 51.104 219.955 51.328C219.752 51.552 219.592 51.8187 219.475 52.128C219.358 52.4267 219.299 52.7573 219.299 53.12V53.232H223.859V53.056C223.859 52.32 223.656 51.7333 223.251 51.296C222.856 50.848 222.328 50.624 221.667 50.624ZM231.174 58V56.816H234.294V47.824H234.182L231.366 50.448L230.582 49.6L233.542 46.832H235.638V56.816H238.518V58H231.174ZM247.327 48.016H242.431L242.111 52.272H242.223C242.49 51.8987 242.789 51.6 243.119 51.376C243.461 51.152 243.925 51.04 244.511 51.04C244.991 51.04 245.434 51.12 245.839 51.28C246.245 51.44 246.597 51.6693 246.895 51.968C247.194 52.256 247.423 52.6133 247.583 53.04C247.754 53.4667 247.839 53.952 247.839 54.496C247.839 55.04 247.754 55.5413 247.583 56C247.413 56.448 247.162 56.8373 246.831 57.168C246.511 57.488 246.117 57.7387 245.647 57.92C245.189 58.1013 244.666 58.192 244.079 58.192C243.61 58.192 243.194 58.1387 242.831 58.032C242.479 57.9253 242.165 57.7813 241.887 57.6C241.61 57.4187 241.365 57.216 241.151 56.992C240.949 56.768 240.762 56.5333 240.591 56.288L241.599 55.52C241.738 55.744 241.882 55.9467 242.031 56.128C242.191 56.3093 242.362 56.464 242.543 56.592C242.735 56.72 242.954 56.8213 243.199 56.896C243.445 56.96 243.738 56.992 244.079 56.992C244.847 56.992 245.429 56.7893 245.823 56.384C246.218 55.9787 246.415 55.408 246.415 54.672V54.512C246.415 53.776 246.218 53.2053 245.823 52.8C245.429 52.3947 244.847 52.192 244.079 52.192C243.567 52.192 243.162 52.288 242.863 52.48C242.575 52.6613 242.314 52.88 242.079 53.136L240.943 52.976L241.343 46.832H247.327V48.016Z" fill="#707070"/>
<path d="M17.488 78.832H21.232C21.9253 78.832 22.5547 78.9493 23.12 79.184C23.6853 79.4187 24.1653 79.7707 24.56 80.24C24.9653 80.6987 25.2747 81.28 25.488 81.984C25.7013 82.6773 25.808 83.488 25.808 84.416C25.808 85.344 25.7013 86.16 25.488 86.864C25.2747 87.5573 24.9653 88.1387 24.56 88.608C24.1653 89.0667 23.6853 89.4133 23.12 89.648C22.5547 89.8827 21.9253 90 21.232 90H17.488V78.832ZM21.232 88.816C21.6907 88.816 22.112 88.7413 22.496 88.592C22.88 88.432 23.2107 88.2027 23.488 87.904C23.7653 87.6053 23.9787 87.2427 24.128 86.816C24.288 86.3787 24.368 85.8827 24.368 85.328V83.504C24.368 82.9493 24.288 82.4587 24.128 82.032C23.9787 81.5947 23.7653 81.2267 23.488 80.928C23.2107 80.6293 22.88 80.4053 22.496 80.256C22.112 80.096 21.6907 80.016 21.232 80.016H18.832V88.816H21.232ZM34.0944 90C33.6144 90 33.2677 89.872 33.0544 89.616C32.8517 89.36 32.7237 89.04 32.6704 88.656H32.5904C32.409 89.168 32.1104 89.552 31.6944 89.808C31.2784 90.064 30.7824 90.192 30.2064 90.192C29.3317 90.192 28.649 89.968 28.1584 89.52C27.6784 89.072 27.4384 88.464 27.4384 87.696C27.4384 86.9173 27.721 86.32 28.2864 85.904C28.8624 85.488 29.753 85.28 30.9584 85.28H32.5904V84.464C32.5904 83.8773 32.4304 83.4293 32.1104 83.12C31.7904 82.8107 31.2997 82.656 30.6384 82.656C30.137 82.656 29.7157 82.768 29.3744 82.992C29.0437 83.216 28.7664 83.5147 28.5424 83.888L27.7744 83.168C27.9984 82.72 28.3557 82.3413 28.8464 82.032C29.337 81.712 29.9557 81.552 30.7024 81.552C31.705 81.552 32.4837 81.7973 33.0384 82.288C33.593 82.7787 33.8704 83.4613 33.8704 84.336V88.88H34.8144V90H34.0944ZM30.4144 89.104C30.7344 89.104 31.0277 89.0667 31.2944 88.992C31.561 88.9173 31.7904 88.8107 31.9824 88.672C32.1744 88.5333 32.3237 88.3733 32.4304 88.192C32.537 88.0107 32.5904 87.8133 32.5904 87.6V86.24H30.8944C30.1584 86.24 29.6197 86.3467 29.2784 86.56C28.9477 86.7733 28.7824 87.0827 28.7824 87.488V87.824C28.7824 88.2293 28.9264 88.544 29.2144 88.768C29.513 88.992 29.913 89.104 30.4144 89.104ZM43.6013 90.912C43.6013 91.7653 43.2653 92.3893 42.5933 92.784C41.9319 93.1893 40.9346 93.392 39.6013 93.392C38.3106 93.392 37.3826 93.216 36.8173 92.864C36.2519 92.512 35.9693 92.0107 35.9693 91.36C35.9693 90.912 36.0866 90.56 36.3213 90.304C36.5559 90.0587 36.8759 89.8773 37.2812 89.76V89.584C36.7906 89.3493 36.5453 88.9653 36.5453 88.432C36.5453 88.016 36.6786 87.7013 36.9453 87.488C37.2119 87.264 37.5533 87.0987 37.9693 86.992V86.928C37.4786 86.6933 37.0946 86.3573 36.8173 85.92C36.5506 85.4827 36.4173 84.976 36.4173 84.4C36.4173 83.984 36.4919 83.6 36.6413 83.248C36.7906 82.896 36.9986 82.5973 37.2653 82.352C37.5426 82.096 37.8679 81.8987 38.2413 81.76C38.6253 81.6213 39.0519 81.552 39.5213 81.552C40.1079 81.552 40.6306 81.6587 41.0893 81.872V81.728C41.0893 81.408 41.1639 81.1467 41.3133 80.944C41.4626 80.7307 41.7079 80.624 42.0493 80.624H43.2812V81.744H41.7133V82.272C42.0119 82.528 42.2413 82.8373 42.4013 83.2C42.5719 83.552 42.6573 83.952 42.6573 84.4C42.6573 84.816 42.5826 85.2 42.4333 85.552C42.2839 85.904 42.0706 86.208 41.7933 86.464C41.5266 86.7093 41.2013 86.9013 40.8173 87.04C40.4333 87.1787 40.0066 87.248 39.5373 87.248C39.2706 87.248 39.0039 87.2213 38.7373 87.168C38.4599 87.2427 38.2093 87.3547 37.9853 87.504C37.7613 87.6427 37.6493 87.84 37.6493 88.096C37.6493 88.3413 37.7666 88.5067 38.0013 88.592C38.2359 88.6773 38.5399 88.72 38.9133 88.72H40.6733C41.6973 88.72 42.4386 88.9173 42.8973 89.312C43.3666 89.696 43.6013 90.2293 43.6013 90.912ZM42.4013 91.008C42.4013 90.6773 42.2733 90.4107 42.0173 90.208C41.7719 90.016 41.3293 89.92 40.6893 89.92H37.9373C37.4253 90.1547 37.1693 90.528 37.1693 91.04C37.1693 91.4027 37.3026 91.712 37.5693 91.968C37.8466 92.224 38.3106 92.352 38.9613 92.352H40.1453C40.8599 92.352 41.4146 92.24 41.8093 92.016C42.2039 91.792 42.4013 91.456 42.4013 91.008ZM39.5373 86.224C40.0813 86.224 40.5133 86.096 40.8333 85.84C41.1533 85.5733 41.3133 85.168 41.3133 84.624V84.176C41.3133 83.632 41.1533 83.232 40.8333 82.976C40.5133 82.7093 40.0813 82.576 39.5373 82.576C38.9933 82.576 38.5613 82.7093 38.2413 82.976C37.9213 83.232 37.7613 83.632 37.7613 84.176V84.624C37.7613 85.168 37.9213 85.5733 38.2413 85.84C38.5613 86.096 38.9933 86.224 39.5373 86.224Z" fill="#1A1A1A"/>
<path d="M16.5 112C16.5 107.858 19.8579 104.5 24 104.5H61C65.1421 104.5 68.5 107.858 68.5 112V136C68.5 140.142 65.1421 143.5 61 143.5H24C19.8579 143.5 16.5 140.142 16.5 136V112Z" fill="white"/>
<path d="M16.5 112C16.5 107.858 19.8579 104.5 24 104.5H61C65.1421 104.5 68.5 107.858 68.5 112V136C68.5 140.142 65.1421 143.5 61 143.5H24C19.8579 143.5 16.5 140.142 16.5 136V112Z" stroke="#8E8E8E"/>
<mask id="path-9-inside-1_14279_21267" fill="white">
<path d="M33.408 130V128.816H36.528V119.824H36.416L33.6 122.448L32.816 121.6L35.776 118.832H37.872V128.816H40.752V130H33.408ZM43.0018 130V128.816H46.1218V119.824H46.0098L43.1938 122.448L42.4098 121.6L45.3698 118.832H47.4658V128.816H50.3458V130H43.0018Z"/>
</mask>
<path d="M33.408 130V128.816H36.528V119.824H36.416L33.6 122.448L32.816 121.6L35.776 118.832H37.872V128.816H40.752V130H33.408ZM43.0018 130V128.816H46.1218V119.824H46.0098L43.1938 122.448L42.4098 121.6L45.3698 118.832H47.4658V128.816H50.3458V130H43.0018Z" fill="#1A1A1A"/>
<path d="M33.408 130H32.408V131H33.408V130ZM33.408 128.816V127.816H32.408V128.816H33.408ZM36.528 128.816V129.816H37.528V128.816H36.528ZM36.528 119.824H37.528V118.824H36.528V119.824ZM36.416 119.824V118.824H36.0223L35.7343 119.092L36.416 119.824ZM33.6 122.448L32.8657 123.127L33.5472 123.864L34.2817 123.18L33.6 122.448ZM32.816 121.6L32.133 120.87L31.4067 121.549L32.0817 122.279L32.816 121.6ZM35.776 118.832V117.832H35.3813L35.093 118.102L35.776 118.832ZM37.872 118.832H38.872V117.832H37.872V118.832ZM37.872 128.816H36.872V129.816H37.872V128.816ZM40.752 128.816H41.752V127.816H40.752V128.816ZM40.752 130V131H41.752V130H40.752ZM34.408 130V128.816H32.408V130H34.408ZM33.408 129.816H36.528V127.816H33.408V129.816ZM37.528 128.816V119.824H35.528V128.816H37.528ZM36.528 118.824H36.416V120.824H36.528V118.824ZM35.7343 119.092L32.9183 121.716L34.2817 123.18L37.0977 120.556L35.7343 119.092ZM34.3343 121.769L33.5503 120.921L32.0817 122.279L32.8657 123.127L34.3343 121.769ZM33.499 122.33L36.459 119.562L35.093 118.102L32.133 120.87L33.499 122.33ZM35.776 119.832H37.872V117.832H35.776V119.832ZM36.872 118.832V128.816H38.872V118.832H36.872ZM37.872 129.816H40.752V127.816H37.872V129.816ZM39.752 128.816V130H41.752V128.816H39.752ZM40.752 129H33.408V131H40.752V129ZM43.0017 130H42.0017V131H43.0017V130ZM43.0017 128.816V127.816H42.0017V128.816H43.0017ZM46.1217 128.816V129.816H47.1217V128.816H46.1217ZM46.1217 119.824H47.1217V118.824H46.1217V119.824ZM46.0098 119.824V118.824H45.6161L45.328 119.092L46.0098 119.824ZM43.1938 122.448L42.4595 123.127L43.141 123.864L43.8755 123.18L43.1938 122.448ZM42.4097 121.6L41.7267 120.87L41.0005 121.549L41.6755 122.279L42.4097 121.6ZM45.3698 118.832V117.832H44.975L44.6867 118.102L45.3698 118.832ZM47.4657 118.832H48.4657V117.832H47.4657V118.832ZM47.4657 128.816H46.4657V129.816H47.4657V128.816ZM50.3458 128.816H51.3458V127.816H50.3458V128.816ZM50.3458 130V131H51.3458V130H50.3458ZM44.0017 130V128.816H42.0017V130H44.0017ZM43.0017 129.816H46.1217V127.816H43.0017V129.816ZM47.1217 128.816V119.824H45.1217V128.816H47.1217ZM46.1217 118.824H46.0098V120.824H46.1217V118.824ZM45.328 119.092L42.512 121.716L43.8755 123.18L46.6915 120.556L45.328 119.092ZM43.928 121.769L43.144 120.921L41.6755 122.279L42.4595 123.127L43.928 121.769ZM43.0928 122.33L46.0528 119.562L44.6867 118.102L41.7267 120.87L43.0928 122.33ZM45.3698 119.832H47.4657V117.832H45.3698V119.832ZM46.4657 118.832V128.816H48.4657V118.832H46.4657ZM47.4657 129.816H50.3458V127.816H47.4657V129.816ZM49.3458 128.816V130H51.3458V128.816H49.3458ZM50.3458 129H43.0017V131H50.3458V129Z" fill="#1A1A1A" mask="url(#path-9-inside-1_14279_21267)"/>
<path d="M95.192 80.592H95.112L94.168 82.464L91.496 87.328L88.824 82.464L87.88 80.592H87.8V90H86.488V78.832H88.28L91.48 84.848H91.56L94.776 78.832H96.504V90H95.192V80.592ZM105.344 90C104.864 90 104.518 89.872 104.304 89.616C104.102 89.36 103.974 89.04 103.92 88.656H103.84C103.659 89.168 103.36 89.552 102.944 89.808C102.528 90.064 102.032 90.192 101.456 90.192C100.582 90.192 99.899 89.968 99.4084 89.52C98.9284 89.072 98.6884 88.464 98.6884 87.696C98.6884 86.9173 98.971 86.32 99.5364 85.904C100.112 85.488 101.003 85.28 102.208 85.28H103.84V84.464C103.84 83.8773 103.68 83.4293 103.36 83.12C103.04 82.8107 102.55 82.656 101.888 82.656C101.387 82.656 100.966 82.768 100.624 82.992C100.294 83.216 100.016 83.5147 99.7924 83.888L99.0244 83.168C99.2484 82.72 99.6057 82.3413 100.096 82.032C100.587 81.712 101.206 81.552 101.952 81.552C102.955 81.552 103.734 81.7973 104.288 82.288C104.843 82.7787 105.12 83.4613 105.12 84.336V88.88H106.064V90H105.344ZM101.664 89.104C101.984 89.104 102.278 89.0667 102.544 88.992C102.811 88.9173 103.04 88.8107 103.232 88.672C103.424 88.5333 103.574 88.3733 103.68 88.192C103.787 88.0107 103.84 87.8133 103.84 87.6V86.24H102.144C101.408 86.24 100.87 86.3467 100.528 86.56C100.198 86.7733 100.032 87.0827 100.032 87.488V87.824C100.032 88.2293 100.176 88.544 100.464 88.768C100.763 88.992 101.163 89.104 101.664 89.104ZM102.032 80.784C101.776 80.784 101.531 80.7413 101.296 80.656C101.072 80.56 100.875 80.432 100.704 80.272C100.544 80.1013 100.416 79.904 100.32 79.68C100.224 79.456 100.176 79.2107 100.176 78.944C100.176 78.6773 100.224 78.432 100.32 78.208C100.416 77.984 100.544 77.792 100.704 77.632C100.875 77.4613 101.072 77.3333 101.296 77.248C101.531 77.152 101.776 77.104 102.032 77.104C102.288 77.104 102.528 77.152 102.752 77.248C102.987 77.3333 103.184 77.4613 103.344 77.632C103.515 77.792 103.648 77.984 103.744 78.208C103.84 78.432 103.888 78.6773 103.888 78.944C103.888 79.2107 103.84 79.456 103.744 79.68C103.648 79.904 103.515 80.1013 103.344 80.272C103.184 80.432 102.987 80.56 102.752 80.656C102.528 80.7413 102.288 80.784 102.032 80.784ZM102.032 80C102.32 80 102.544 79.9253 102.704 79.776C102.875 79.616 102.96 79.3973 102.96 79.12V78.768C102.96 78.4907 102.875 78.2773 102.704 78.128C102.544 77.968 102.32 77.888 102.032 77.888C101.744 77.888 101.515 77.968 101.344 78.128C101.184 78.2773 101.104 78.4907 101.104 78.768V79.12C101.104 79.3973 101.184 79.616 101.344 79.776C101.515 79.9253 101.744 80 102.032 80ZM107.891 90V81.744H109.171V83.088H109.235C109.438 82.6187 109.721 82.2453 110.083 81.968C110.457 81.6907 110.953 81.552 111.571 81.552C112.425 81.552 113.097 81.8293 113.587 82.384C114.089 82.928 114.339 83.7013 114.339 84.704V90H113.059V84.928C113.059 83.4453 112.435 82.704 111.187 82.704C110.931 82.704 110.681 82.736 110.435 82.8C110.201 82.864 109.987 82.96 109.795 83.088C109.603 83.216 109.449 83.3813 109.331 83.584C109.225 83.776 109.171 84.0053 109.171 84.272V90H107.891ZM120.089 90.192C119.524 90.192 119.012 90.0907 118.553 89.888C118.105 89.6853 117.716 89.3973 117.385 89.024C117.065 88.64 116.814 88.1867 116.633 87.664C116.462 87.1307 116.377 86.5333 116.377 85.872C116.377 85.2213 116.462 84.6293 116.633 84.096C116.814 83.5627 117.065 83.1093 117.385 82.736C117.716 82.352 118.105 82.0587 118.553 81.856C119.012 81.6533 119.524 81.552 120.089 81.552C120.644 81.552 121.14 81.6533 121.577 81.856C122.014 82.0587 122.388 82.3413 122.697 82.704C123.006 83.056 123.241 83.4773 123.401 83.968C123.572 84.4587 123.657 84.9973 123.657 85.584V86.192H117.721V86.576C117.721 86.928 117.774 87.2587 117.881 87.568C117.998 87.8667 118.158 88.128 118.361 88.352C118.574 88.576 118.83 88.752 119.129 88.88C119.438 89.008 119.785 89.072 120.169 89.072C120.692 89.072 121.145 88.9493 121.529 88.704C121.924 88.4587 122.228 88.1067 122.441 87.648L123.353 88.304C123.086 88.8693 122.67 89.328 122.105 89.68C121.54 90.0213 120.868 90.192 120.089 90.192ZM120.089 82.624C119.737 82.624 119.417 82.688 119.129 82.816C118.841 82.9333 118.59 83.104 118.377 83.328C118.174 83.552 118.014 83.8187 117.897 84.128C117.78 84.4267 117.721 84.7573 117.721 85.12V85.232H122.281V85.056C122.281 84.32 122.078 83.7333 121.673 83.296C121.278 82.848 120.75 82.624 120.089 82.624ZM131.046 88.656H130.982C130.481 89.68 129.676 90.192 128.566 90.192C128.054 90.192 127.59 90.0907 127.174 89.888C126.758 89.6853 126.401 89.3973 126.102 89.024C125.814 88.6507 125.59 88.1973 125.43 87.664C125.281 87.1307 125.206 86.5333 125.206 85.872C125.206 85.2107 125.281 84.6133 125.43 84.08C125.59 83.5467 125.814 83.0933 126.102 82.72C126.401 82.3467 126.758 82.0587 127.174 81.856C127.59 81.6533 128.054 81.552 128.566 81.552C129.142 81.552 129.633 81.68 130.038 81.936C130.454 82.1813 130.769 82.5653 130.982 83.088H131.046V78.16H132.326V90H131.046V88.656ZM128.918 89.04C129.206 89.04 129.478 89.0027 129.734 88.928C130.001 88.8533 130.23 88.7467 130.422 88.608C130.614 88.4587 130.764 88.2827 130.87 88.08C130.988 87.8667 131.046 87.6267 131.046 87.36V84.288C131.046 84.064 130.988 83.856 130.87 83.664C130.764 83.4613 130.614 83.2907 130.422 83.152C130.23 83.0133 130.001 82.9067 129.734 82.832C129.478 82.7467 129.206 82.704 128.918 82.704C128.193 82.704 127.622 82.9333 127.206 83.392C126.79 83.84 126.582 84.432 126.582 85.168V86.576C126.582 87.312 126.79 87.9093 127.206 88.368C127.622 88.816 128.193 89.04 128.918 89.04Z" fill="#1A1A1A"/>
<path d="M85.5 112C85.5 107.858 88.8579 104.5 93 104.5H130C134.142 104.5 137.5 107.858 137.5 112V136C137.5 140.142 134.142 143.5 130 143.5H93C88.8579 143.5 85.5 140.142 85.5 136V112Z" fill="white"/>
<path d="M85.5 112C85.5 107.858 88.8579 104.5 93 104.5H130C134.142 104.5 137.5 107.858 137.5 112V136C137.5 140.142 134.142 143.5 130 143.5H93C88.8579 143.5 85.5 140.142 85.5 136V112Z" stroke="#8E8E8E"/>
<mask id="path-13-inside-2_14279_21267" fill="white">
<path d="M105.8 130.192C104.467 130.192 103.491 129.685 102.872 128.672C102.264 127.659 101.96 126.24 101.96 124.416C101.96 122.592 102.264 121.173 102.872 120.16C103.491 119.147 104.467 118.64 105.8 118.64C107.133 118.64 108.104 119.147 108.712 120.16C109.331 121.173 109.64 122.592 109.64 124.416C109.64 126.24 109.331 127.659 108.712 128.672C108.104 129.685 107.133 130.192 105.8 130.192ZM105.8 129.024C106.237 129.024 106.611 128.933 106.92 128.752C107.229 128.571 107.48 128.315 107.672 127.984C107.864 127.653 108.003 127.264 108.088 126.816C108.184 126.368 108.232 125.872 108.232 125.328V123.504C108.232 122.96 108.184 122.464 108.088 122.016C108.003 121.568 107.864 121.179 107.672 120.848C107.48 120.517 107.229 120.261 106.92 120.08C106.611 119.899 106.237 119.808 105.8 119.808C105.363 119.808 104.989 119.899 104.68 120.08C104.371 120.261 104.12 120.517 103.928 120.848C103.736 121.179 103.592 121.568 103.496 122.016C103.411 122.464 103.368 122.96 103.368 123.504V125.328C103.368 125.872 103.411 126.368 103.496 126.816C103.592 127.264 103.736 127.653 103.928 127.984C104.12 128.315 104.371 128.571 104.68 128.752C104.989 128.933 105.363 129.024 105.8 129.024ZM114.77 123.568C115.527 123.568 116.092 123.397 116.466 123.056C116.85 122.704 117.042 122.256 117.042 121.712V121.6C117.042 121.013 116.855 120.576 116.482 120.288C116.119 119.989 115.639 119.84 115.042 119.84C114.466 119.84 113.996 119.968 113.634 120.224C113.271 120.469 112.972 120.805 112.738 121.232L111.746 120.464C111.884 120.24 112.05 120.021 112.242 119.808C112.444 119.584 112.679 119.387 112.946 119.216C113.212 119.045 113.522 118.907 113.874 118.8C114.226 118.693 114.626 118.64 115.074 118.64C115.543 118.64 115.986 118.704 116.402 118.832C116.818 118.949 117.175 119.131 117.474 119.376C117.783 119.611 118.023 119.904 118.194 120.256C118.375 120.608 118.466 121.008 118.466 121.456C118.466 121.819 118.407 122.144 118.29 122.432C118.183 122.72 118.034 122.971 117.842 123.184C117.65 123.397 117.42 123.579 117.154 123.728C116.898 123.877 116.62 123.989 116.322 124.064V124.128C116.62 124.192 116.908 124.299 117.186 124.448C117.474 124.587 117.724 124.773 117.938 125.008C118.162 125.232 118.338 125.509 118.466 125.84C118.604 126.16 118.674 126.528 118.674 126.944C118.674 127.424 118.583 127.867 118.402 128.272C118.22 128.667 117.964 129.008 117.634 129.296C117.303 129.573 116.903 129.792 116.434 129.952C115.964 130.112 115.447 130.192 114.882 130.192C114.402 130.192 113.975 130.139 113.602 130.032C113.228 129.925 112.898 129.781 112.61 129.6C112.322 129.419 112.066 129.216 111.842 128.992C111.628 128.768 111.436 128.533 111.266 128.288L112.274 127.52C112.412 127.744 112.562 127.947 112.722 128.128C112.892 128.309 113.079 128.464 113.282 128.592C113.484 128.72 113.714 128.821 113.97 128.896C114.226 128.96 114.524 128.992 114.866 128.992C115.655 128.992 116.252 128.816 116.658 128.464C117.063 128.101 117.266 127.589 117.266 126.928V126.8C117.266 126.139 117.063 125.632 116.658 125.28C116.252 124.917 115.655 124.736 114.866 124.736H113.554V123.568H114.77Z"/>
</mask>
<path d="M105.8 130.192C104.467 130.192 103.491 129.685 102.872 128.672C102.264 127.659 101.96 126.24 101.96 124.416C101.96 122.592 102.264 121.173 102.872 120.16C103.491 119.147 104.467 118.64 105.8 118.64C107.133 118.64 108.104 119.147 108.712 120.16C109.331 121.173 109.64 122.592 109.64 124.416C109.64 126.24 109.331 127.659 108.712 128.672C108.104 129.685 107.133 130.192 105.8 130.192ZM105.8 129.024C106.237 129.024 106.611 128.933 106.92 128.752C107.229 128.571 107.48 128.315 107.672 127.984C107.864 127.653 108.003 127.264 108.088 126.816C108.184 126.368 108.232 125.872 108.232 125.328V123.504C108.232 122.96 108.184 122.464 108.088 122.016C108.003 121.568 107.864 121.179 107.672 120.848C107.48 120.517 107.229 120.261 106.92 120.08C106.611 119.899 106.237 119.808 105.8 119.808C105.363 119.808 104.989 119.899 104.68 120.08C104.371 120.261 104.12 120.517 103.928 120.848C103.736 121.179 103.592 121.568 103.496 122.016C103.411 122.464 103.368 122.96 103.368 123.504V125.328C103.368 125.872 103.411 126.368 103.496 126.816C103.592 127.264 103.736 127.653 103.928 127.984C104.12 128.315 104.371 128.571 104.68 128.752C104.989 128.933 105.363 129.024 105.8 129.024ZM114.77 123.568C115.527 123.568 116.092 123.397 116.466 123.056C116.85 122.704 117.042 122.256 117.042 121.712V121.6C117.042 121.013 116.855 120.576 116.482 120.288C116.119 119.989 115.639 119.84 115.042 119.84C114.466 119.84 113.996 119.968 113.634 120.224C113.271 120.469 112.972 120.805 112.738 121.232L111.746 120.464C111.884 120.24 112.05 120.021 112.242 119.808C112.444 119.584 112.679 119.387 112.946 119.216C113.212 119.045 113.522 118.907 113.874 118.8C114.226 118.693 114.626 118.64 115.074 118.64C115.543 118.64 115.986 118.704 116.402 118.832C116.818 118.949 117.175 119.131 117.474 119.376C117.783 119.611 118.023 119.904 118.194 120.256C118.375 120.608 118.466 121.008 118.466 121.456C118.466 121.819 118.407 122.144 118.29 122.432C118.183 122.72 118.034 122.971 117.842 123.184C117.65 123.397 117.42 123.579 117.154 123.728C116.898 123.877 116.62 123.989 116.322 124.064V124.128C116.62 124.192 116.908 124.299 117.186 124.448C117.474 124.587 117.724 124.773 117.938 125.008C118.162 125.232 118.338 125.509 118.466 125.84C118.604 126.16 118.674 126.528 118.674 126.944C118.674 127.424 118.583 127.867 118.402 128.272C118.22 128.667 117.964 129.008 117.634 129.296C117.303 129.573 116.903 129.792 116.434 129.952C115.964 130.112 115.447 130.192 114.882 130.192C114.402 130.192 113.975 130.139 113.602 130.032C113.228 129.925 112.898 129.781 112.61 129.6C112.322 129.419 112.066 129.216 111.842 128.992C111.628 128.768 111.436 128.533 111.266 128.288L112.274 127.52C112.412 127.744 112.562 127.947 112.722 128.128C112.892 128.309 113.079 128.464 113.282 128.592C113.484 128.72 113.714 128.821 113.97 128.896C114.226 128.96 114.524 128.992 114.866 128.992C115.655 128.992 116.252 128.816 116.658 128.464C117.063 128.101 117.266 127.589 117.266 126.928V126.8C117.266 126.139 117.063 125.632 116.658 125.28C116.252 124.917 115.655 124.736 114.866 124.736H113.554V123.568H114.77Z" fill="#1A1A1A"/>
<path d="M102.872 128.672L102.014 129.187L102.018 129.193L102.872 128.672ZM102.872 120.16L102.018 119.639L102.015 119.646L102.872 120.16ZM108.712 120.16L107.854 120.675L107.858 120.681L108.712 120.16ZM108.712 128.672L107.858 128.151L107.855 128.158L108.712 128.672ZM106.92 128.752L106.414 127.889H106.414L106.92 128.752ZM107.672 127.984L108.537 128.486L107.672 127.984ZM108.088 126.816L107.11 126.606L107.108 126.618L107.106 126.629L108.088 126.816ZM108.088 122.016L107.106 122.203L107.108 122.214L107.11 122.226L108.088 122.016ZM106.92 120.08L106.414 120.943L106.414 120.943L106.92 120.08ZM104.68 120.08L105.186 120.943L105.186 120.943L104.68 120.08ZM103.928 120.848L104.793 121.35H104.793L103.928 120.848ZM103.496 122.016L102.518 121.806L102.516 121.818L102.514 121.829L103.496 122.016ZM103.496 126.816L102.514 127.003L102.516 127.014L102.518 127.026L103.496 126.816ZM103.928 127.984L104.793 127.482L104.793 127.482L103.928 127.984ZM104.68 128.752L104.174 129.615H104.174L104.68 128.752ZM105.8 129.192C104.764 129.192 104.137 128.826 103.726 128.151L102.018 129.193C102.844 130.545 104.169 131.192 105.8 131.192V129.192ZM103.729 128.158C103.252 127.362 102.96 126.149 102.96 124.416H100.96C100.96 126.331 101.276 127.955 102.015 129.186L103.729 128.158ZM102.96 124.416C102.96 122.683 103.252 121.47 103.729 120.674L102.015 119.646C101.276 120.877 100.96 122.501 100.96 124.416H102.96ZM103.726 120.681C104.137 120.006 104.764 119.64 105.8 119.64V117.64C104.169 117.64 102.844 118.287 102.018 119.639L103.726 120.681ZM105.8 119.64C106.836 119.64 107.453 120.006 107.855 120.674L109.569 119.646C108.755 118.288 107.431 117.64 105.8 117.64V119.64ZM107.858 120.681C108.343 121.475 108.64 122.685 108.64 124.416H110.64C110.64 122.499 110.318 120.872 109.566 119.639L107.858 120.681ZM108.64 124.416C108.64 126.147 108.343 127.357 107.858 128.151L109.566 129.193C110.318 127.96 110.64 126.333 110.64 124.416H108.64ZM107.855 128.158C107.453 128.826 106.836 129.192 105.8 129.192V131.192C107.431 131.192 108.755 130.544 109.569 129.186L107.855 128.158ZM105.8 130.024C106.376 130.024 106.933 129.904 107.426 129.615L106.414 127.889C106.289 127.963 106.098 128.024 105.8 128.024V130.024ZM107.426 129.615C107.894 129.34 108.264 128.956 108.537 128.486L106.807 127.482C106.696 127.674 106.565 127.801 106.414 127.889L107.426 129.615ZM108.537 128.486C108.795 128.041 108.968 127.541 109.07 127.003L107.106 126.629C107.037 126.987 106.933 127.266 106.807 127.482L108.537 128.486ZM109.066 127.026C109.179 126.497 109.232 125.93 109.232 125.328H107.232C107.232 125.814 107.189 126.239 107.11 126.606L109.066 127.026ZM109.232 125.328V123.504H107.232V125.328H109.232ZM109.232 123.504C109.232 122.902 109.179 122.335 109.066 121.806L107.11 122.226C107.189 122.593 107.232 123.018 107.232 123.504H109.232ZM109.07 121.829C108.968 121.291 108.795 120.791 108.537 120.346L106.807 121.35C106.933 121.566 107.037 121.845 107.106 122.203L109.07 121.829ZM108.537 120.346C108.264 119.876 107.894 119.492 107.426 119.217L106.414 120.943C106.565 121.031 106.696 121.158 106.807 121.35L108.537 120.346ZM107.426 119.217C106.933 118.928 106.376 118.808 105.8 118.808V120.808C106.098 120.808 106.289 120.869 106.414 120.943L107.426 119.217ZM105.8 118.808C105.224 118.808 104.667 118.928 104.174 119.217L105.186 120.943C105.311 120.869 105.502 120.808 105.8 120.808V118.808ZM104.174 119.217C103.706 119.492 103.336 119.876 103.063 120.346L104.793 121.35C104.904 121.158 105.035 121.031 105.186 120.943L104.174 119.217ZM103.063 120.346C102.809 120.783 102.632 121.275 102.518 121.806L104.474 122.226C104.552 121.861 104.663 121.574 104.793 121.35L103.063 120.346ZM102.514 121.829C102.415 122.349 102.368 122.909 102.368 123.504H104.368C104.368 123.011 104.407 122.579 104.478 122.203L102.514 121.829ZM102.368 123.504V125.328H104.368V123.504H102.368ZM102.368 125.328C102.368 125.923 102.415 126.483 102.514 127.003L104.478 126.629C104.407 126.253 104.368 125.821 104.368 125.328H102.368ZM102.518 127.026C102.632 127.557 102.809 128.049 103.063 128.486L104.793 127.482C104.663 127.258 104.552 126.971 104.474 126.606L102.518 127.026ZM103.063 128.486C103.336 128.956 103.706 129.34 104.174 129.615L105.186 127.889C105.035 127.801 104.904 127.674 104.793 127.482L103.063 128.486ZM104.174 129.615C104.667 129.904 105.224 130.024 105.8 130.024V128.024C105.502 128.024 105.311 127.963 105.186 127.889L104.174 129.615ZM116.466 123.056L117.141 123.794L117.141 123.793L116.466 123.056ZM116.482 120.288L115.846 121.06L115.858 121.07L115.871 121.08L116.482 120.288ZM113.634 120.224L114.194 121.052L114.202 121.047L114.21 121.041L113.634 120.224ZM112.738 121.232L112.126 122.023L113.05 122.739L113.614 121.714L112.738 121.232ZM111.746 120.464L110.895 119.938L110.421 120.703L111.134 121.255L111.746 120.464ZM112.242 119.808L111.5 119.137L111.498 119.139L112.242 119.808ZM112.946 119.216L113.485 120.058L113.485 120.058L112.946 119.216ZM113.874 118.8L114.164 119.757L113.874 118.8ZM116.402 118.832L116.108 119.788L116.119 119.791L116.13 119.794L116.402 118.832ZM117.474 119.376L116.839 120.149L116.854 120.161L116.869 120.173L117.474 119.376ZM118.194 120.256L117.294 120.692L117.299 120.703L117.305 120.714L118.194 120.256ZM118.29 122.432L117.364 122.055L117.358 122.07L117.352 122.085L118.29 122.432ZM117.842 123.184L117.098 122.515L117.098 122.515L117.842 123.184ZM117.154 123.728L116.665 122.855L116.657 122.86L116.65 122.864L117.154 123.728ZM116.322 124.064L116.079 123.094L115.322 123.283V124.064H116.322ZM116.322 124.128H115.322V124.936L116.112 125.106L116.322 124.128ZM117.186 124.448L116.712 125.328L116.732 125.339L116.752 125.349L117.186 124.448ZM117.938 125.008L117.198 125.681L117.214 125.698L117.231 125.715L117.938 125.008ZM118.466 125.84L117.533 126.201L117.54 126.219L117.548 126.238L118.466 125.84ZM118.402 128.272L119.31 128.69L119.315 128.68L118.402 128.272ZM117.634 129.296L118.276 130.062L118.284 130.056L118.291 130.05L117.634 129.296ZM116.434 129.952L116.756 130.899L116.434 129.952ZM113.602 130.032L113.327 130.994L113.602 130.032ZM112.61 129.6L112.077 130.446V130.446L112.61 129.6ZM111.842 128.992L111.118 129.682L111.126 129.69L111.135 129.699L111.842 128.992ZM111.266 128.288L110.66 127.493L109.898 128.073L110.445 128.859L111.266 128.288ZM112.274 127.52L113.124 126.994L112.544 126.057L111.668 126.725L112.274 127.52ZM112.722 128.128L111.972 128.79L111.983 128.802L111.994 128.813L112.722 128.128ZM113.282 128.592L113.816 127.747L113.816 127.747L113.282 128.592ZM113.97 128.896L113.69 129.856L113.708 129.861L113.727 129.866L113.97 128.896ZM116.658 128.464L117.313 129.219L117.319 129.214L117.325 129.209L116.658 128.464ZM116.658 125.28L115.991 126.025L115.996 126.03L116.002 126.035L116.658 125.28ZM113.554 124.736H112.554V125.736H113.554V124.736ZM113.554 123.568V122.568H112.554V123.568H113.554ZM114.77 124.568C115.656 124.568 116.51 124.371 117.141 123.794L115.791 122.318C115.675 122.424 115.399 122.568 114.77 122.568V124.568ZM117.141 123.793C117.742 123.242 118.042 122.522 118.042 121.712H116.042C116.042 121.99 115.957 122.166 115.79 122.319L117.141 123.793ZM118.042 121.712V121.6H116.042V121.712H118.042ZM118.042 121.6C118.042 120.787 117.771 120.019 117.093 119.496L115.871 121.08C115.939 121.133 116.042 121.24 116.042 121.6H118.042ZM117.117 119.516C116.532 119.034 115.807 118.84 115.042 118.84V120.84C115.471 120.84 115.706 120.945 115.846 121.06L117.117 119.516ZM115.042 118.84C114.32 118.84 113.632 119.001 113.057 119.407L114.21 121.041C114.36 120.935 114.611 120.84 115.042 120.84V118.84ZM113.073 119.396C112.565 119.739 112.164 120.2 111.862 120.75L113.614 121.714C113.781 121.41 113.977 121.199 114.194 121.052L113.073 119.396ZM113.35 120.441L112.358 119.673L111.134 121.255L112.126 122.023L113.35 120.441ZM112.596 120.99C112.701 120.821 112.829 120.65 112.985 120.477L111.498 119.139C111.27 119.393 111.068 119.659 110.895 119.938L112.596 120.99ZM112.983 120.479C113.124 120.324 113.289 120.183 113.485 120.058L112.407 118.374C112.069 118.59 111.765 118.844 111.5 119.137L112.983 120.479ZM113.485 120.058C113.663 119.944 113.886 119.841 114.164 119.757L113.584 117.843C113.158 117.972 112.762 118.146 112.407 118.374L113.485 120.058ZM114.164 119.757C114.404 119.684 114.703 119.64 115.074 119.64V117.64C114.548 117.64 114.048 117.702 113.584 117.843L114.164 119.757ZM115.074 119.64C115.451 119.64 115.794 119.691 116.108 119.788L116.696 117.876C116.177 117.717 115.635 117.64 115.074 117.64V119.64ZM116.13 119.794C116.429 119.879 116.659 120.001 116.839 120.149L118.108 118.603C117.691 118.26 117.206 118.02 116.673 117.87L116.13 119.794ZM116.869 120.173C117.052 120.311 117.191 120.481 117.294 120.692L119.094 119.82C118.855 119.327 118.514 118.91 118.078 118.579L116.869 120.173ZM117.305 120.714C117.404 120.907 117.466 121.146 117.466 121.456H119.466C119.466 120.87 119.346 120.309 119.083 119.798L117.305 120.714ZM117.466 121.456C117.466 121.711 117.425 121.905 117.364 122.055L119.216 122.809C119.389 122.383 119.466 121.927 119.466 121.456H117.466ZM117.352 122.085C117.286 122.263 117.2 122.402 117.098 122.515L118.585 123.853C118.867 123.539 119.08 123.177 119.227 122.779L117.352 122.085ZM117.098 122.515C116.984 122.642 116.843 122.756 116.665 122.855L117.642 124.601C117.998 124.401 118.315 124.153 118.585 123.853L117.098 122.515ZM116.65 122.864C116.479 122.964 116.29 123.041 116.079 123.094L116.564 125.034C116.951 124.937 117.317 124.791 117.658 124.592L116.65 122.864ZM115.322 124.064V124.128H117.322V124.064H115.322ZM116.112 125.106C116.316 125.149 116.515 125.223 116.712 125.328L117.66 123.568C117.302 123.375 116.925 123.235 116.531 123.15L116.112 125.106ZM116.752 125.349C116.925 125.432 117.072 125.542 117.198 125.681L118.678 124.335C118.377 124.005 118.022 123.741 117.62 123.547L116.752 125.349ZM117.231 125.715C117.345 125.83 117.449 125.985 117.533 126.201L119.398 125.479C119.226 125.034 118.978 124.634 118.645 124.301L117.231 125.715ZM117.548 126.238C117.623 126.41 117.674 126.639 117.674 126.944H119.674C119.674 126.417 119.586 125.91 119.383 125.442L117.548 126.238ZM117.674 126.944C117.674 127.295 117.608 127.597 117.489 127.864L119.315 128.68C119.558 128.136 119.674 127.553 119.674 126.944H117.674ZM117.493 127.854C117.371 128.119 117.202 128.346 116.977 128.542L118.291 130.05C118.727 129.67 119.069 129.214 119.31 128.69L117.493 127.854ZM116.991 128.53C116.768 128.717 116.481 128.879 116.111 129.005L116.756 130.899C117.325 130.705 117.838 130.43 118.276 130.062L116.991 128.53ZM116.111 129.005C115.759 129.125 115.352 129.192 114.882 129.192V131.192C115.542 131.192 116.17 131.099 116.756 130.899L116.111 129.005ZM114.882 129.192C114.474 129.192 114.142 129.146 113.876 129.07L113.327 130.994C113.808 131.131 114.33 131.192 114.882 131.192V129.192ZM113.876 129.07C113.582 128.986 113.34 128.878 113.143 128.754L112.077 130.446C112.455 130.685 112.875 130.864 113.327 130.994L113.876 129.07ZM113.143 128.754C112.913 128.609 112.716 128.452 112.549 128.285L111.135 129.699C111.415 129.98 111.73 130.228 112.077 130.446L113.143 128.754ZM112.566 128.302C112.387 128.114 112.227 127.919 112.087 127.717L110.445 128.859C110.646 129.148 110.87 129.422 111.118 129.682L112.566 128.302ZM111.872 129.083L112.88 128.315L111.668 126.725L110.66 127.493L111.872 129.083ZM111.423 128.046C111.589 128.314 111.772 128.563 111.972 128.79L113.472 127.466C113.352 127.331 113.236 127.174 113.124 126.994L111.423 128.046ZM111.994 128.813C112.22 129.054 112.471 129.263 112.748 129.437L113.816 127.747C113.687 127.665 113.565 127.565 113.45 127.443L111.994 128.813ZM112.748 129.437C113.038 129.621 113.354 129.758 113.69 129.856L114.25 127.936C114.073 127.885 113.931 127.819 113.816 127.747L112.748 129.437ZM113.727 129.866C114.082 129.955 114.465 129.992 114.866 129.992V127.992C114.584 127.992 114.37 127.965 114.212 127.926L113.727 129.866ZM114.866 129.992C115.785 129.992 116.657 129.789 117.313 129.219L116.002 127.709C115.848 127.843 115.525 127.992 114.866 127.992V129.992ZM117.325 129.209C117.987 128.617 118.266 127.807 118.266 126.928H116.266C116.266 127.371 116.139 127.586 115.991 127.719L117.325 129.209ZM118.266 126.928V126.8H116.266V126.928H118.266ZM118.266 126.8C118.266 125.922 117.987 125.11 117.313 124.525L116.002 126.035C116.139 126.154 116.266 126.355 116.266 126.8H118.266ZM117.325 124.535C116.668 123.947 115.792 123.736 114.866 123.736V125.736C115.518 125.736 115.837 125.887 115.991 126.025L117.325 124.535ZM114.866 123.736H113.554V125.736H114.866V123.736ZM114.554 124.736V123.568H112.554V124.736H114.554ZM113.554 124.568H114.77V122.568H113.554V124.568Z" fill="#1A1A1A" mask="url(#path-13-inside-2_14279_21267)"/>
<path d="M162.48 90L161.36 86.704H156.848L155.728 90H154.368L158.272 78.832H159.984L163.888 90H162.48ZM159.136 80.08H159.056L157.168 85.52H161.024L159.136 80.08ZM159.152 78.064C158.896 78.064 158.651 78.0213 158.416 77.936C158.192 77.84 157.995 77.712 157.824 77.552C157.664 77.3813 157.536 77.184 157.44 76.96C157.344 76.736 157.296 76.4907 157.296 76.224C157.296 75.9573 157.344 75.712 157.44 75.488C157.536 75.264 157.664 75.072 157.824 74.912C157.995 74.7413 158.192 74.6133 158.416 74.528C158.651 74.432 158.896 74.384 159.152 74.384C159.408 74.384 159.648 74.432 159.872 74.528C160.107 74.6133 160.304 74.7413 160.464 74.912C160.635 75.072 160.768 75.264 160.864 75.488C160.96 75.712 161.008 75.9573 161.008 76.224C161.008 76.4907 160.96 76.736 160.864 76.96C160.768 77.184 160.635 77.3813 160.464 77.552C160.304 77.712 160.107 77.84 159.872 77.936C159.648 78.0213 159.408 78.064 159.152 78.064ZM159.152 77.28C159.44 77.28 159.664 77.2053 159.824 77.056C159.995 76.896 160.08 76.6773 160.08 76.4V76.048C160.08 75.7707 159.995 75.5573 159.824 75.408C159.664 75.248 159.44 75.168 159.152 75.168C158.864 75.168 158.635 75.248 158.464 75.408C158.304 75.5573 158.224 75.7707 158.224 76.048V76.4C158.224 76.6773 158.304 76.896 158.464 77.056C158.635 77.2053 158.864 77.28 159.152 77.28ZM165.61 90V81.744H166.89V83.264H166.97C167.119 82.8693 167.386 82.5173 167.77 82.208C168.154 81.8987 168.682 81.744 169.354 81.744H169.85V83.024H169.098C168.405 83.024 167.861 83.1573 167.466 83.424C167.082 83.68 166.89 84.0053 166.89 84.4V90H165.61Z" fill="#1A1A1A"/>
<path d="M154.5 112C154.5 107.858 157.858 104.5 162 104.5H219C223.142 104.5 226.5 107.858 226.5 112V136C226.5 140.142 223.142 143.5 219 143.5H162C157.858 143.5 154.5 140.142 154.5 136V112Z" fill="white"/>
<path d="M154.5 112C154.5 107.858 157.858 104.5 162 104.5H219C223.142 104.5 226.5 107.858 226.5 112V136C226.5 140.142 223.142 143.5 219 143.5H162C157.858 143.5 154.5 140.142 154.5 136V112Z" stroke="#8E8E8E"/>
<mask id="path-17-inside-3_14279_21267" fill="white">
<path d="M178.528 130H171.2V128.624L174.848 125.264C175.371 124.784 175.808 124.277 176.16 123.744C176.512 123.2 176.688 122.656 176.688 122.112V121.92C176.688 121.301 176.517 120.8 176.176 120.416C175.835 120.032 175.317 119.84 174.624 119.84C174.283 119.84 173.984 119.888 173.728 119.984C173.472 120.08 173.248 120.213 173.056 120.384C172.875 120.555 172.72 120.757 172.592 120.992C172.475 121.216 172.379 121.461 172.304 121.728L171.104 121.264C171.211 120.933 171.355 120.613 171.536 120.304C171.728 119.984 171.963 119.701 172.24 119.456C172.528 119.211 172.869 119.013 173.264 118.864C173.669 118.715 174.144 118.64 174.688 118.64C175.232 118.64 175.717 118.72 176.144 118.88C176.571 119.04 176.928 119.264 177.216 119.552C177.504 119.84 177.723 120.181 177.872 120.576C178.032 120.971 178.112 121.408 178.112 121.888C178.112 122.325 178.048 122.731 177.92 123.104C177.803 123.477 177.637 123.835 177.424 124.176C177.211 124.507 176.949 124.832 176.64 125.152C176.341 125.472 176.016 125.792 175.664 126.112L172.656 128.816H178.528V130ZM184.394 130.192C183.06 130.192 182.084 129.685 181.466 128.672C180.858 127.659 180.554 126.24 180.554 124.416C180.554 122.592 180.858 121.173 181.466 120.16C182.084 119.147 183.06 118.64 184.394 118.64C185.727 118.64 186.698 119.147 187.306 120.16C187.924 121.173 188.234 122.592 188.234 124.416C188.234 126.24 187.924 127.659 187.306 128.672C186.698 129.685 185.727 130.192 184.394 130.192ZM184.394 129.024C184.831 129.024 185.204 128.933 185.514 128.752C185.823 128.571 186.074 128.315 186.266 127.984C186.458 127.653 186.596 127.264 186.682 126.816C186.778 126.368 186.826 125.872 186.826 125.328V123.504C186.826 122.96 186.778 122.464 186.682 122.016C186.596 121.568 186.458 121.179 186.266 120.848C186.074 120.517 185.823 120.261 185.514 120.08C185.204 119.899 184.831 119.808 184.394 119.808C183.956 119.808 183.583 119.899 183.274 120.08C182.964 120.261 182.714 120.517 182.522 120.848C182.33 121.179 182.186 121.568 182.09 122.016C182.004 122.464 181.962 122.96 181.962 123.504V125.328C181.962 125.872 182.004 126.368 182.09 126.816C182.186 127.264 182.33 127.653 182.522 127.984C182.714 128.315 182.964 128.571 183.274 128.752C183.583 128.933 183.956 129.024 184.394 129.024ZM197.716 130H190.388V128.624L194.036 125.264C194.558 124.784 194.996 124.277 195.348 123.744C195.7 123.2 195.876 122.656 195.876 122.112V121.92C195.876 121.301 195.705 120.8 195.364 120.416C195.022 120.032 194.505 119.84 193.812 119.84C193.47 119.84 193.172 119.888 192.916 119.984C192.66 120.08 192.436 120.213 192.244 120.384C192.062 120.555 191.908 120.757 191.78 120.992C191.662 121.216 191.566 121.461 191.492 121.728L190.292 121.264C190.398 120.933 190.542 120.613 190.724 120.304C190.916 119.984 191.15 119.701 191.428 119.456C191.716 119.211 192.057 119.013 192.452 118.864C192.857 118.715 193.332 118.64 193.876 118.64C194.42 118.64 194.905 118.72 195.332 118.88C195.758 119.04 196.116 119.264 196.404 119.552C196.692 119.84 196.91 120.181 197.06 120.576C197.22 120.971 197.3 121.408 197.3 121.888C197.3 122.325 197.236 122.731 197.108 123.104C196.99 123.477 196.825 123.835 196.612 124.176C196.398 124.507 196.137 124.832 195.828 125.152C195.529 125.472 195.204 125.792 194.852 126.112L191.844 128.816H197.716V130ZM202.957 123.568C203.715 123.568 204.28 123.397 204.653 123.056C205.037 122.704 205.229 122.256 205.229 121.712V121.6C205.229 121.013 205.043 120.576 204.669 120.288C204.307 119.989 203.827 119.84 203.229 119.84C202.653 119.84 202.184 119.968 201.821 120.224C201.459 120.469 201.16 120.805 200.925 121.232L199.933 120.464C200.072 120.24 200.237 120.021 200.429 119.808C200.632 119.584 200.867 119.387 201.133 119.216C201.4 119.045 201.709 118.907 202.061 118.8C202.413 118.693 202.813 118.64 203.261 118.64C203.731 118.64 204.173 118.704 204.589 118.832C205.005 118.949 205.363 119.131 205.661 119.376C205.971 119.611 206.211 119.904 206.381 120.256C206.563 120.608 206.653 121.008 206.653 121.456C206.653 121.819 206.595 122.144 206.477 122.432C206.371 122.72 206.221 122.971 206.029 123.184C205.837 123.397 205.608 123.579 205.341 123.728C205.085 123.877 204.808 123.989 204.509 124.064V124.128C204.808 124.192 205.096 124.299 205.373 124.448C205.661 124.587 205.912 124.773 206.125 125.008C206.349 125.232 206.525 125.509 206.653 125.84C206.792 126.16 206.861 126.528 206.861 126.944C206.861 127.424 206.771 127.867 206.589 128.272C206.408 128.667 206.152 129.008 205.821 129.296C205.491 129.573 205.091 129.792 204.621 129.952C204.152 130.112 203.635 130.192 203.069 130.192C202.589 130.192 202.163 130.139 201.789 130.032C201.416 129.925 201.085 129.781 200.797 129.6C200.509 129.419 200.253 129.216 200.029 128.992C199.816 128.768 199.624 128.533 199.453 128.288L200.461 127.52C200.6 127.744 200.749 127.947 200.909 128.128C201.08 128.309 201.267 128.464 201.469 128.592C201.672 128.72 201.901 128.821 202.157 128.896C202.413 128.96 202.712 128.992 203.053 128.992C203.843 128.992 204.44 128.816 204.845 128.464C205.251 128.101 205.453 127.589 205.453 126.928V126.8C205.453 126.139 205.251 125.632 204.845 125.28C204.44 124.917 203.843 124.736 203.053 124.736H201.741V123.568H202.957Z"/>
</mask>
<path d="M178.528 130H171.2V128.624L174.848 125.264C175.371 124.784 175.808 124.277 176.16 123.744C176.512 123.2 176.688 122.656 176.688 122.112V121.92C176.688 121.301 176.517 120.8 176.176 120.416C175.835 120.032 175.317 119.84 174.624 119.84C174.283 119.84 173.984 119.888 173.728 119.984C173.472 120.08 173.248 120.213 173.056 120.384C172.875 120.555 172.72 120.757 172.592 120.992C172.475 121.216 172.379 121.461 172.304 121.728L171.104 121.264C171.211 120.933 171.355 120.613 171.536 120.304C171.728 119.984 171.963 119.701 172.24 119.456C172.528 119.211 172.869 119.013 173.264 118.864C173.669 118.715 174.144 118.64 174.688 118.64C175.232 118.64 175.717 118.72 176.144 118.88C176.571 119.04 176.928 119.264 177.216 119.552C177.504 119.84 177.723 120.181 177.872 120.576C178.032 120.971 178.112 121.408 178.112 121.888C178.112 122.325 178.048 122.731 177.92 123.104C177.803 123.477 177.637 123.835 177.424 124.176C177.211 124.507 176.949 124.832 176.64 125.152C176.341 125.472 176.016 125.792 175.664 126.112L172.656 128.816H178.528V130ZM184.394 130.192C183.06 130.192 182.084 129.685 181.466 128.672C180.858 127.659 180.554 126.24 180.554 124.416C180.554 122.592 180.858 121.173 181.466 120.16C182.084 119.147 183.06 118.64 184.394 118.64C185.727 118.64 186.698 119.147 187.306 120.16C187.924 121.173 188.234 122.592 188.234 124.416C188.234 126.24 187.924 127.659 187.306 128.672C186.698 129.685 185.727 130.192 184.394 130.192ZM184.394 129.024C184.831 129.024 185.204 128.933 185.514 128.752C185.823 128.571 186.074 128.315 186.266 127.984C186.458 127.653 186.596 127.264 186.682 126.816C186.778 126.368 186.826 125.872 186.826 125.328V123.504C186.826 122.96 186.778 122.464 186.682 122.016C186.596 121.568 186.458 121.179 186.266 120.848C186.074 120.517 185.823 120.261 185.514 120.08C185.204 119.899 184.831 119.808 184.394 119.808C183.956 119.808 183.583 119.899 183.274 120.08C182.964 120.261 182.714 120.517 182.522 120.848C182.33 121.179 182.186 121.568 182.09 122.016C182.004 122.464 181.962 122.96 181.962 123.504V125.328C181.962 125.872 182.004 126.368 182.09 126.816C182.186 127.264 182.33 127.653 182.522 127.984C182.714 128.315 182.964 128.571 183.274 128.752C183.583 128.933 183.956 129.024 184.394 129.024ZM197.716 130H190.388V128.624L194.036 125.264C194.558 124.784 194.996 124.277 195.348 123.744C195.7 123.2 195.876 122.656 195.876 122.112V121.92C195.876 121.301 195.705 120.8 195.364 120.416C195.022 120.032 194.505 119.84 193.812 119.84C193.47 119.84 193.172 119.888 192.916 119.984C192.66 120.08 192.436 120.213 192.244 120.384C192.062 120.555 191.908 120.757 191.78 120.992C191.662 121.216 191.566 121.461 191.492 121.728L190.292 121.264C190.398 120.933 190.542 120.613 190.724 120.304C190.916 119.984 191.15 119.701 191.428 119.456C191.716 119.211 192.057 119.013 192.452 118.864C192.857 118.715 193.332 118.64 193.876 118.64C194.42 118.64 194.905 118.72 195.332 118.88C195.758 119.04 196.116 119.264 196.404 119.552C196.692 119.84 196.91 120.181 197.06 120.576C197.22 120.971 197.3 121.408 197.3 121.888C197.3 122.325 197.236 122.731 197.108 123.104C196.99 123.477 196.825 123.835 196.612 124.176C196.398 124.507 196.137 124.832 195.828 125.152C195.529 125.472 195.204 125.792 194.852 126.112L191.844 128.816H197.716V130ZM202.957 123.568C203.715 123.568 204.28 123.397 204.653 123.056C205.037 122.704 205.229 122.256 205.229 121.712V121.6C205.229 121.013 205.043 120.576 204.669 120.288C204.307 119.989 203.827 119.84 203.229 119.84C202.653 119.84 202.184 119.968 201.821 120.224C201.459 120.469 201.16 120.805 200.925 121.232L199.933 120.464C200.072 120.24 200.237 120.021 200.429 119.808C200.632 119.584 200.867 119.387 201.133 119.216C201.4 119.045 201.709 118.907 202.061 118.8C202.413 118.693 202.813 118.64 203.261 118.64C203.731 118.64 204.173 118.704 204.589 118.832C205.005 118.949 205.363 119.131 205.661 119.376C205.971 119.611 206.211 119.904 206.381 120.256C206.563 120.608 206.653 121.008 206.653 121.456C206.653 121.819 206.595 122.144 206.477 122.432C206.371 122.72 206.221 122.971 206.029 123.184C205.837 123.397 205.608 123.579 205.341 123.728C205.085 123.877 204.808 123.989 204.509 124.064V124.128C204.808 124.192 205.096 124.299 205.373 124.448C205.661 124.587 205.912 124.773 206.125 125.008C206.349 125.232 206.525 125.509 206.653 125.84C206.792 126.16 206.861 126.528 206.861 126.944C206.861 127.424 206.771 127.867 206.589 128.272C206.408 128.667 206.152 129.008 205.821 129.296C205.491 129.573 205.091 129.792 204.621 129.952C204.152 130.112 203.635 130.192 203.069 130.192C202.589 130.192 202.163 130.139 201.789 130.032C201.416 129.925 201.085 129.781 200.797 129.6C200.509 129.419 200.253 129.216 200.029 128.992C199.816 128.768 199.624 128.533 199.453 128.288L200.461 127.52C200.6 127.744 200.749 127.947 200.909 128.128C201.08 128.309 201.267 128.464 201.469 128.592C201.672 128.72 201.901 128.821 202.157 128.896C202.413 128.96 202.712 128.992 203.053 128.992C203.843 128.992 204.44 128.816 204.845 128.464C205.251 128.101 205.453 127.589 205.453 126.928V126.8C205.453 126.139 205.251 125.632 204.845 125.28C204.44 124.917 203.843 124.736 203.053 124.736H201.741V123.568H202.957Z" fill="#1A1A1A"/>
<path d="M178.528 130V131H179.528V130H178.528ZM171.2 130H170.2V131H171.2V130ZM171.2 128.624L170.523 127.888L170.2 128.186V128.624H171.2ZM174.848 125.264L174.172 124.527L174.171 124.528L174.848 125.264ZM176.16 123.744L176.995 124.295L177 124.287L176.16 123.744ZM173.728 119.984L174.079 120.92H174.079L173.728 119.984ZM173.056 120.384L172.392 119.637L172.381 119.646L172.371 119.656L173.056 120.384ZM172.592 120.992L171.714 120.513L171.71 120.521L171.706 120.528L172.592 120.992ZM172.304 121.728L171.943 122.661L172.97 123.058L173.267 121.998L172.304 121.728ZM171.104 121.264L170.152 120.957L169.862 121.856L170.743 122.197L171.104 121.264ZM171.536 120.304L170.678 119.789L170.673 119.798L171.536 120.304ZM172.24 119.456L171.592 118.695L171.584 118.701L171.577 118.707L172.24 119.456ZM173.264 118.864L172.918 117.926L172.91 117.929L173.264 118.864ZM176.144 118.88L176.495 117.944L176.495 117.944L176.144 118.88ZM177.216 119.552L177.923 118.845L177.923 118.845L177.216 119.552ZM177.872 120.576L176.937 120.93L176.941 120.941L176.945 120.952L177.872 120.576ZM177.92 123.104L176.974 122.78L176.97 122.792L176.966 122.804L177.92 123.104ZM177.424 124.176L178.264 124.718L178.268 124.712L178.272 124.706L177.424 124.176ZM176.64 125.152L175.921 124.457L175.915 124.463L175.909 124.47L176.64 125.152ZM175.664 126.112L176.333 126.856L176.337 126.852L175.664 126.112ZM172.656 128.816L171.987 128.072L170.048 129.816H172.656V128.816ZM178.528 128.816H179.528V127.816H178.528V128.816ZM178.528 129H171.2V131H178.528V129ZM172.2 130V128.624H170.2V130H172.2ZM171.877 129.36L175.525 126L174.171 124.528L170.523 127.888L171.877 129.36ZM175.524 126.001C176.101 125.471 176.593 124.903 176.995 124.295L175.325 123.193C175.023 123.651 174.641 124.097 174.172 124.527L175.524 126.001ZM177 124.287C177.436 123.613 177.688 122.883 177.688 122.112H175.688C175.688 122.429 175.588 122.787 175.32 123.201L177 124.287ZM177.688 122.112V121.92H175.688V122.112H177.688ZM177.688 121.92C177.688 121.109 177.459 120.354 176.923 119.752L175.429 121.08C175.575 121.246 175.688 121.494 175.688 121.92H177.688ZM176.923 119.752C176.332 119.087 175.498 118.84 174.624 118.84V120.84C175.136 120.84 175.337 120.977 175.429 121.08L176.923 119.752ZM174.624 118.84C174.191 118.84 173.769 118.901 173.377 119.048L174.079 120.92C174.199 120.875 174.374 120.84 174.624 120.84V118.84ZM173.377 119.048C173.013 119.184 172.681 119.379 172.392 119.637L173.72 121.131C173.815 121.048 173.931 120.976 174.079 120.92L173.377 119.048ZM172.371 119.656C172.107 119.904 171.889 120.193 171.714 120.513L173.47 121.471C173.551 121.322 173.642 121.205 173.741 121.112L172.371 119.656ZM171.706 120.528C171.553 120.819 171.433 121.131 171.341 121.458L173.267 121.998C173.325 121.792 173.396 121.613 173.478 121.456L171.706 120.528ZM172.665 120.795L171.465 120.331L170.743 122.197L171.943 122.661L172.665 120.795ZM172.056 121.571C172.139 121.312 172.253 121.058 172.399 120.81L170.673 119.798C170.456 120.168 170.282 120.555 170.152 120.957L172.056 121.571ZM172.393 120.818C172.533 120.585 172.702 120.382 172.903 120.205L171.577 118.707C171.223 119.021 170.923 119.383 170.679 119.79L172.393 120.818ZM172.888 120.217C173.08 120.054 173.318 119.913 173.618 119.799L172.91 117.929C172.42 118.114 171.976 118.367 171.592 118.695L172.888 120.217ZM173.61 119.802C173.88 119.703 174.233 119.64 174.688 119.64V117.64C174.055 117.64 173.459 117.727 172.918 117.926L173.61 119.802ZM174.688 119.64C175.135 119.64 175.498 119.706 175.793 119.816L176.495 117.944C175.937 117.734 175.329 117.64 174.688 117.64V119.64ZM175.793 119.816C176.102 119.932 176.333 120.083 176.509 120.259L177.923 118.845C177.523 118.445 177.04 118.148 176.495 117.944L175.793 119.816ZM176.509 120.259C176.693 120.443 176.836 120.663 176.937 120.93L178.807 120.222C178.61 119.7 178.315 119.237 177.923 118.845L176.509 120.259ZM176.945 120.952C177.051 121.213 177.112 121.52 177.112 121.888H179.112C179.112 121.296 179.013 120.729 178.799 120.2L176.945 120.952ZM177.112 121.888C177.112 122.227 177.063 122.521 176.974 122.78L178.866 123.428C179.033 122.94 179.112 122.424 179.112 121.888H177.112ZM176.966 122.804C176.875 123.094 176.746 123.375 176.576 123.646L178.272 124.706C178.529 124.295 178.731 123.86 178.874 123.404L176.966 122.804ZM176.584 123.634C176.41 123.903 176.191 124.178 175.921 124.457L177.359 125.847C177.708 125.486 178.011 125.11 178.264 124.718L176.584 123.634ZM175.909 124.47C175.63 124.768 175.325 125.069 174.991 125.372L176.337 126.852C176.707 126.515 177.052 126.176 177.371 125.834L175.909 124.47ZM174.995 125.368L171.987 128.072L173.325 129.56L176.333 126.856L174.995 125.368ZM172.656 129.816H178.528V127.816H172.656V129.816ZM177.528 128.816V130H179.528V128.816H177.528ZM181.466 128.672L180.608 129.187L180.612 129.193L181.466 128.672ZM181.466 120.16L180.612 119.639L180.608 119.646L181.466 120.16ZM187.306 120.16L186.448 120.675L186.452 120.681L187.306 120.16ZM187.306 128.672L186.452 128.151L186.448 128.158L187.306 128.672ZM185.514 128.752L185.008 127.889L185.514 128.752ZM186.266 127.984L187.131 128.486L186.266 127.984ZM186.682 126.816L185.704 126.606L185.702 126.618L185.699 126.629L186.682 126.816ZM186.682 122.016L185.699 122.203L185.702 122.214L185.704 122.226L186.682 122.016ZM185.514 120.08L185.008 120.943L185.008 120.943L185.514 120.08ZM183.274 120.08L183.779 120.943L183.779 120.943L183.274 120.08ZM182.522 120.848L183.387 121.35L182.522 120.848ZM182.09 122.016L181.112 121.806L181.11 121.818L181.107 121.829L182.09 122.016ZM182.09 126.816L181.107 127.003L181.11 127.014L181.112 127.026L182.09 126.816ZM182.522 127.984L183.387 127.482V127.482L182.522 127.984ZM183.274 128.752L182.768 129.615L183.274 128.752ZM184.394 129.192C183.358 129.192 182.731 128.826 182.319 128.151L180.612 129.193C181.438 130.545 182.763 131.192 184.394 131.192V129.192ZM182.323 128.158C181.846 127.362 181.554 126.149 181.554 124.416H179.554C179.554 126.331 179.869 127.955 180.608 129.186L182.323 128.158ZM181.554 124.416C181.554 122.683 181.846 121.47 182.323 120.674L180.608 119.646C179.869 120.877 179.554 122.501 179.554 124.416H181.554ZM182.319 120.681C182.731 120.006 183.358 119.64 184.394 119.64V117.64C182.763 117.64 181.438 118.287 180.612 119.639L182.319 120.681ZM184.394 119.64C185.43 119.64 186.047 120.006 186.448 120.674L188.163 119.646C187.348 118.288 186.025 117.64 184.394 117.64V119.64ZM186.452 120.681C186.937 121.475 187.234 122.685 187.234 124.416H189.234C189.234 122.499 188.912 120.872 188.159 119.639L186.452 120.681ZM187.234 124.416C187.234 126.147 186.937 127.357 186.452 128.151L188.159 129.193C188.912 127.96 189.234 126.333 189.234 124.416H187.234ZM186.448 128.158C186.047 128.826 185.43 129.192 184.394 129.192V131.192C186.025 131.192 187.348 130.544 188.163 129.186L186.448 128.158ZM184.394 130.024C184.97 130.024 185.526 129.904 186.019 129.615L185.008 127.889C184.882 127.963 184.692 128.024 184.394 128.024V130.024ZM186.019 129.615C186.487 129.34 186.858 128.956 187.131 128.486L185.401 127.482C185.29 127.674 185.159 127.801 185.008 127.889L186.019 129.615ZM187.131 128.486C187.389 128.041 187.562 127.541 187.664 127.003L185.699 126.629C185.631 126.987 185.527 127.266 185.401 127.482L187.131 128.486ZM187.66 127.026C187.773 126.497 187.826 125.93 187.826 125.328H185.826C185.826 125.814 185.783 126.239 185.704 126.606L187.66 127.026ZM187.826 125.328V123.504H185.826V125.328H187.826ZM187.826 123.504C187.826 122.902 187.773 122.335 187.66 121.806L185.704 122.226C185.783 122.593 185.826 123.018 185.826 123.504H187.826ZM187.664 121.829C187.562 121.291 187.389 120.791 187.131 120.346L185.401 121.35C185.527 121.566 185.631 121.845 185.699 122.203L187.664 121.829ZM187.131 120.346C186.858 119.876 186.487 119.492 186.019 119.217L185.008 120.943C185.159 121.031 185.29 121.158 185.401 121.35L187.131 120.346ZM186.019 119.217C185.526 118.928 184.97 118.808 184.394 118.808V120.808C184.692 120.808 184.882 120.869 185.008 120.943L186.019 119.217ZM184.394 118.808C183.818 118.808 183.261 118.928 182.768 119.217L183.779 120.943C183.905 120.869 184.095 120.808 184.394 120.808V118.808ZM182.768 119.217C182.3 119.492 181.93 119.876 181.657 120.346L183.387 121.35C183.498 121.158 183.629 121.031 183.779 120.943L182.768 119.217ZM181.657 120.346C181.403 120.783 181.226 121.275 181.112 121.806L183.068 122.226C183.146 121.861 183.257 121.574 183.387 121.35L181.657 120.346ZM181.107 121.829C181.008 122.349 180.962 122.909 180.962 123.504H182.962C182.962 123.011 183 122.579 183.072 122.203L181.107 121.829ZM180.962 123.504V125.328H182.962V123.504H180.962ZM180.962 125.328C180.962 125.923 181.008 126.483 181.107 127.003L183.072 126.629C183 126.253 182.962 125.821 182.962 125.328H180.962ZM181.112 127.026C181.226 127.557 181.403 128.049 181.657 128.486L183.387 127.482C183.257 127.258 183.146 126.971 183.068 126.606L181.112 127.026ZM181.657 128.486C181.93 128.956 182.3 129.34 182.768 129.615L183.779 127.889C183.629 127.801 183.498 127.674 183.387 127.482L181.657 128.486ZM182.768 129.615C183.261 129.904 183.818 130.024 184.394 130.024V128.024C184.095 128.024 183.905 127.963 183.779 127.889L182.768 129.615ZM197.715 130V131H198.715V130H197.715ZM190.388 130H189.388V131H190.388V130ZM190.388 128.624L189.71 127.888L189.388 128.186V128.624H190.388ZM194.035 125.264L193.359 124.527L193.358 124.528L194.035 125.264ZM195.347 123.744L196.182 124.295L196.187 124.287L195.347 123.744ZM192.916 119.984L193.267 120.92L192.916 119.984ZM192.243 120.384L191.579 119.637L191.568 119.646L191.558 119.656L192.243 120.384ZM191.779 120.992L190.902 120.513L190.898 120.521L190.894 120.528L191.779 120.992ZM191.492 121.728L191.131 122.661L192.158 123.058L192.454 121.998L191.492 121.728ZM190.292 121.264L189.34 120.957L189.05 121.856L189.931 122.197L190.292 121.264ZM190.723 120.304L189.866 119.789L189.861 119.798L190.723 120.304ZM191.427 119.456L190.779 118.695L190.772 118.701L190.765 118.707L191.427 119.456ZM192.451 118.864L192.106 117.926L192.098 117.929L192.451 118.864ZM195.332 118.88L195.683 117.944L195.683 117.944L195.332 118.88ZM196.403 119.552L197.111 118.845V118.845L196.403 119.552ZM197.059 120.576L196.124 120.93L196.128 120.941L196.133 120.952L197.059 120.576ZM197.108 123.104L196.162 122.78L196.157 122.792L196.154 122.804L197.108 123.104ZM196.611 124.176L197.452 124.718L197.456 124.712L197.459 124.706L196.611 124.176ZM195.827 125.152L195.109 124.457L195.102 124.463L195.096 124.47L195.827 125.152ZM194.851 126.112L195.52 126.856L195.524 126.852L194.851 126.112ZM191.844 128.816L191.175 128.072L189.235 129.816H191.844V128.816ZM197.715 128.816H198.715V127.816H197.715V128.816ZM197.715 129H190.388V131H197.715V129ZM191.388 130V128.624H189.388V130H191.388ZM191.065 129.36L194.713 126L193.358 124.528L189.71 127.888L191.065 129.36ZM194.712 126.001C195.288 125.471 195.781 124.903 196.182 124.295L194.513 123.193C194.21 123.651 193.828 124.097 193.359 124.527L194.712 126.001ZM196.187 124.287C196.623 123.613 196.875 122.883 196.875 122.112H194.875C194.875 122.429 194.776 122.787 194.508 123.201L196.187 124.287ZM196.875 122.112V121.92H194.875V122.112H196.875ZM196.875 121.92C196.875 121.109 196.647 120.354 196.111 119.752L194.616 121.08C194.763 121.246 194.875 121.494 194.875 121.92H196.875ZM196.111 119.752C195.52 119.087 194.686 118.84 193.812 118.84V120.84C194.324 120.84 194.524 120.977 194.616 121.08L196.111 119.752ZM193.812 118.84C193.379 118.84 192.957 118.901 192.564 119.048L193.267 120.92C193.386 120.875 193.561 120.84 193.812 120.84V118.84ZM192.564 119.048C192.201 119.184 191.869 119.379 191.579 119.637L192.908 121.131C193.002 121.048 193.118 120.976 193.267 120.92L192.564 119.048ZM191.558 119.656C191.294 119.904 191.076 120.193 190.902 120.513L192.657 121.471C192.739 121.322 192.83 121.205 192.929 121.112L191.558 119.656ZM190.894 120.528C190.741 120.819 190.62 121.131 190.529 121.458L192.454 121.998C192.512 121.792 192.583 121.613 192.665 121.456L190.894 120.528ZM191.852 120.795L190.652 120.331L189.931 122.197L191.131 122.661L191.852 120.795ZM191.243 121.571C191.327 121.312 191.441 121.058 191.586 120.81L189.861 119.798C189.644 120.168 189.47 120.555 189.34 120.957L191.243 121.571ZM191.581 120.818C191.721 120.585 191.89 120.382 192.09 120.205L190.765 118.707C190.41 119.021 190.11 119.383 189.866 119.79L191.581 120.818ZM192.076 120.217C192.267 120.054 192.506 119.913 192.805 119.799L192.098 117.929C191.608 118.114 191.164 118.367 190.779 118.695L192.076 120.217ZM192.797 119.802C193.067 119.703 193.42 119.64 193.875 119.64V117.64C193.243 117.64 192.646 117.727 192.106 117.926L192.797 119.802ZM193.875 119.64C194.322 119.64 194.685 119.706 194.98 119.816L195.683 117.944C195.124 117.734 194.517 117.64 193.875 117.64V119.64ZM194.98 119.816C195.289 119.932 195.521 120.083 195.696 120.259L197.111 118.845C196.71 118.445 196.227 118.148 195.683 117.944L194.98 119.816ZM195.696 120.259C195.881 120.443 196.023 120.663 196.124 120.93L197.995 120.222C197.797 119.7 197.502 119.237 197.111 118.845L195.696 120.259ZM196.133 120.952C196.239 121.213 196.299 121.52 196.299 121.888H198.299C198.299 121.296 198.2 120.729 197.986 120.2L196.133 120.952ZM196.299 121.888C196.299 122.227 196.25 122.521 196.162 122.78L198.053 123.428C198.221 122.94 198.299 122.424 198.299 121.888H196.299ZM196.154 122.804C196.062 123.094 195.933 123.375 195.764 123.646L197.459 124.706C197.716 124.295 197.918 123.86 198.061 123.404L196.154 122.804ZM195.771 123.634C195.597 123.903 195.378 124.178 195.109 124.457L196.546 125.847C196.895 125.486 197.199 125.11 197.452 124.718L195.771 123.634ZM195.096 124.47C194.818 124.768 194.512 125.069 194.179 125.372L195.524 126.852C195.895 126.515 196.24 126.176 196.559 125.834L195.096 124.47ZM194.183 125.368L191.175 128.072L192.512 129.56L195.52 126.856L194.183 125.368ZM191.844 129.816H197.715V127.816H191.844V129.816ZM196.715 128.816V130H198.715V128.816H196.715ZM204.653 123.056L205.328 123.794L205.329 123.793L204.653 123.056ZM204.669 120.288L204.034 121.06L204.046 121.07L204.058 121.08L204.669 120.288ZM201.821 120.224L202.382 121.052L202.39 121.047L202.398 121.041L201.821 120.224ZM200.925 121.232L200.313 122.023L201.238 122.739L201.801 121.714L200.925 121.232ZM199.933 120.464L199.083 119.938L198.609 120.703L199.321 121.255L199.933 120.464ZM200.429 119.808L199.688 119.137L199.686 119.139L200.429 119.808ZM201.133 119.216L201.672 120.058L201.672 120.058L201.133 119.216ZM202.061 118.8L202.351 119.757L202.061 118.8ZM204.589 118.832L204.295 119.788L204.306 119.791L204.318 119.794L204.589 118.832ZM205.661 119.376L205.027 120.149L205.041 120.161L205.057 120.173L205.661 119.376ZM206.381 120.256L205.481 120.692L205.487 120.703L205.492 120.714L206.381 120.256ZM206.477 122.432L205.551 122.055L205.545 122.07L205.54 122.085L206.477 122.432ZM206.029 123.184L205.286 122.515L205.286 122.515L206.029 123.184ZM205.341 123.728L204.853 122.855L204.845 122.86L204.837 122.864L205.341 123.728ZM204.509 124.064L204.267 123.094L203.509 123.283V124.064H204.509ZM204.509 124.128H203.509V124.936L204.3 125.106L204.509 124.128ZM205.373 124.448L204.899 125.328L204.919 125.339L204.939 125.349L205.373 124.448ZM206.125 125.008L205.385 125.681L205.401 125.698L205.418 125.715L206.125 125.008ZM206.653 125.84L205.721 126.201L205.728 126.219L205.736 126.238L206.653 125.84ZM206.589 128.272L207.498 128.69L207.502 128.68L206.589 128.272ZM205.821 129.296L206.464 130.062L206.471 130.056L206.478 130.05L205.821 129.296ZM204.621 129.952L204.944 130.899L204.621 129.952ZM201.789 130.032L201.515 130.994L201.789 130.032ZM200.797 129.6L200.264 130.446V130.446L200.797 129.6ZM200.029 128.992L199.305 129.682L199.314 129.69L199.322 129.699L200.029 128.992ZM199.453 128.288L198.847 127.493L198.085 128.073L198.632 128.859L199.453 128.288ZM200.461 127.52L201.312 126.994L200.732 126.057L199.855 126.725L200.461 127.52ZM200.909 128.128L200.159 128.79L200.17 128.802L200.181 128.813L200.909 128.128ZM201.469 128.592L202.003 127.747V127.747L201.469 128.592ZM202.157 128.896L201.877 129.856L201.896 129.861L201.915 129.866L202.157 128.896ZM204.845 128.464L205.501 129.219L205.507 129.214L205.512 129.209L204.845 128.464ZM204.845 125.28L204.178 126.025L204.184 126.03L204.19 126.035L204.845 125.28ZM201.741 124.736H200.741V125.736H201.741V124.736ZM201.741 123.568V122.568H200.741V123.568H201.741ZM202.957 124.568C203.843 124.568 204.697 124.371 205.328 123.794L203.978 122.318C203.863 122.424 203.586 122.568 202.957 122.568V124.568ZM205.329 123.793C205.93 123.242 206.229 122.522 206.229 121.712H204.229C204.229 121.99 204.145 122.166 203.978 122.319L205.329 123.793ZM206.229 121.712V121.6H204.229V121.712H206.229ZM206.229 121.6C206.229 120.787 205.958 120.019 205.28 119.496L204.058 121.08C204.127 121.133 204.229 121.24 204.229 121.6H206.229ZM205.305 119.516C204.719 119.034 203.994 118.84 203.229 118.84V120.84C203.659 120.84 203.894 120.945 204.034 121.06L205.305 119.516ZM203.229 118.84C202.508 118.84 201.82 119.001 201.245 119.407L202.398 121.041C202.548 120.935 202.799 120.84 203.229 120.84V118.84ZM201.261 119.396C200.753 119.739 200.351 120.2 200.049 120.75L201.801 121.714C201.968 121.41 202.164 121.199 202.382 121.052L201.261 119.396ZM201.537 120.441L200.545 119.673L199.321 121.255L200.313 122.023L201.537 120.441ZM200.784 120.99C200.888 120.821 201.017 120.65 201.173 120.477L199.686 119.139C199.458 119.393 199.256 119.659 199.083 119.938L200.784 120.99ZM201.171 120.479C201.311 120.324 201.477 120.183 201.672 120.058L200.594 118.374C200.256 118.59 199.953 118.844 199.688 119.137L201.171 120.479ZM201.672 120.058C201.85 119.944 202.073 119.841 202.351 119.757L201.771 117.843C201.345 117.972 200.95 118.146 200.594 118.374L201.672 120.058ZM202.351 119.757C202.591 119.684 202.891 119.64 203.261 119.64V117.64C202.736 117.64 202.235 117.702 201.771 117.843L202.351 119.757ZM203.261 119.64C203.639 119.64 203.982 119.691 204.295 119.788L204.883 117.876C204.365 117.717 203.822 117.64 203.261 117.64V119.64ZM204.318 119.794C204.617 119.879 204.847 120.001 205.027 120.149L206.296 118.603C205.879 118.26 205.394 118.02 204.861 117.87L204.318 119.794ZM205.057 120.173C205.24 120.311 205.379 120.481 205.481 120.692L207.281 119.82C207.042 119.327 206.701 118.91 206.266 118.579L205.057 120.173ZM205.492 120.714C205.592 120.907 205.653 121.146 205.653 121.456H207.653C207.653 120.87 207.534 120.309 207.27 119.798L205.492 120.714ZM205.653 121.456C205.653 121.711 205.612 121.905 205.551 122.055L207.403 122.809C207.577 122.383 207.653 121.927 207.653 121.456H205.653ZM205.54 122.085C205.474 122.263 205.388 122.402 205.286 122.515L206.773 123.853C207.055 123.539 207.268 123.177 207.415 122.779L205.54 122.085ZM205.286 122.515C205.172 122.642 205.03 122.756 204.853 122.855L205.83 124.601C206.186 124.401 206.503 124.153 206.773 123.853L205.286 122.515ZM204.837 122.864C204.666 122.964 204.477 123.041 204.267 123.094L204.752 125.034C205.139 124.937 205.504 124.791 205.845 124.592L204.837 122.864ZM203.509 124.064V124.128H205.509V124.064H203.509ZM204.3 125.106C204.503 125.149 204.702 125.223 204.899 125.328L205.847 123.568C205.489 123.375 205.113 123.235 204.719 123.15L204.3 125.106ZM204.939 125.349C205.113 125.432 205.259 125.542 205.385 125.681L206.865 124.335C206.565 124.005 206.21 123.741 205.807 123.547L204.939 125.349ZM205.418 125.715C205.533 125.83 205.637 125.985 205.721 126.201L207.586 125.479C207.414 125.034 207.166 124.634 206.832 124.301L205.418 125.715ZM205.736 126.238C205.811 126.41 205.861 126.639 205.861 126.944H207.861C207.861 126.417 207.773 125.91 207.571 125.442L205.736 126.238ZM205.861 126.944C205.861 127.295 205.796 127.597 205.676 127.864L207.502 128.68C207.745 128.136 207.861 127.553 207.861 126.944H205.861ZM205.681 127.854C205.559 128.119 205.389 128.346 205.164 128.542L206.478 130.05C206.915 129.67 207.257 129.214 207.498 128.69L205.681 127.854ZM205.179 128.53C204.956 128.717 204.668 128.879 204.299 129.005L204.944 130.899C205.513 130.705 206.026 130.43 206.464 130.062L205.179 128.53ZM204.299 129.005C203.947 129.125 203.54 129.192 203.069 129.192V131.192C203.729 131.192 204.357 131.099 204.944 130.899L204.299 129.005ZM203.069 129.192C202.661 129.192 202.33 129.146 202.064 129.07L201.515 130.994C201.995 131.131 202.517 131.192 203.069 131.192V129.192ZM202.064 129.07C201.769 128.986 201.528 128.878 201.33 128.754L200.264 130.446C200.643 130.685 201.063 130.864 201.515 130.994L202.064 129.07ZM201.33 128.754C201.101 128.609 200.904 128.452 200.736 128.285L199.322 129.699C199.603 129.98 199.918 130.228 200.264 130.446L201.33 128.754ZM200.753 128.302C200.574 128.114 200.415 127.919 200.274 127.717L198.632 128.859C198.833 129.148 199.058 129.422 199.305 129.682L200.753 128.302ZM200.059 129.083L201.067 128.315L199.855 126.725L198.847 127.493L200.059 129.083ZM199.611 128.046C199.777 128.314 199.959 128.563 200.159 128.79L201.659 127.466C201.539 127.331 201.423 127.174 201.312 126.994L199.611 128.046ZM200.181 128.813C200.407 129.054 200.659 129.263 200.935 129.437L202.003 127.747C201.875 127.665 201.753 127.565 201.637 127.443L200.181 128.813ZM200.935 129.437C201.225 129.621 201.542 129.758 201.877 129.856L202.437 127.936C202.261 127.885 202.119 127.819 202.003 127.747L200.935 129.437ZM201.915 129.866C202.269 129.955 202.653 129.992 203.053 129.992V127.992C202.771 127.992 202.557 127.965 202.4 127.926L201.915 129.866ZM203.053 129.992C203.973 129.992 204.845 129.789 205.501 129.219L204.19 127.709C204.035 127.843 203.712 127.992 203.053 127.992V129.992ZM205.512 129.209C206.174 128.617 206.453 127.807 206.453 126.928H204.453C204.453 127.371 204.327 127.586 204.178 127.719L205.512 129.209ZM206.453 126.928V126.8H204.453V126.928H206.453ZM206.453 126.8C206.453 125.922 206.175 125.11 205.501 124.525L204.19 126.035C204.327 126.154 204.453 126.355 204.453 126.8H206.453ZM205.512 124.535C204.856 123.947 203.979 123.736 203.053 123.736V125.736C203.706 125.736 204.024 125.887 204.178 126.025L205.512 124.535ZM203.053 123.736H201.741V125.736H203.053V123.736ZM202.741 124.736V123.568H200.741V124.736H202.741ZM201.741 124.568H202.957V122.568H201.741V124.568Z" fill="#1A1A1A" mask="url(#path-17-inside-3_14279_21267)"/>
</svg>
