<?xml version="1.0" encoding="UTF-8"?>
<svg width="254px" height="200px" viewBox="0 0 254 200" version="1.1" xmlns="http://www.w3.org/2000/svg" xmlns:xlink="http://www.w3.org/1999/xlink">
    <!-- Generator: Sketch 53.2 (72643) - https://sketchapp.com -->
    <title>Group 13</title>
    <desc>Created with Sketch.</desc>
    <g id="Illustrationer" stroke="none" stroke-width="1" fill="none" fill-rule="evenodd">
        <g id="Illustrationer_Cards" transform="translate(-379.000000, -2784.000000)">
            <g id="Group-13" transform="translate(379.000000, 2784.000000)">
                <g id="Group-8">
                    <g id="Card-med-en-tredjedel-bredde-Copy-4">
                        <rect id="Grey_BG-Copy" fill="#CCF2F3" x="0" y="0" width="254" height="200"></rect>
                        <text id="Lorem-ipsum-fordelin" font-family="IBMPlexSans-Bold, IBM Plex Sans, Arial" font-size="16" font-weight="bold" line-spacing="24" fill="#1A1A1A">
                            <tspan x="42.6" y="32">Lorem ipsum fordeling</tspan>
                        </text>
                        <text id="København" font-family="IBMPlexSans-Bold, IBM Plex Sans, Arial" font-size="12" font-weight="bold" line-spacing="24" fill="#1A1A1A">
                            <tspan x="43.002" y="180">København</tspan>
                        </text>
                        <text id="Hele-landet" font-family="IBMPlexSans-Bold, IBM Plex Sans, Arial" font-size="12" font-weight="bold" line-spacing="24" fill="#1A1A1A">
                            <tspan x="142.552" y="180">Hele landet</tspan>
                        </text>
                    </g>
                    <rect id="Rectangle-Copy-17" fill="#EEFAFA" x="152" y="58" width="50" height="100"></rect>
                    <rect id="Rectangle-Copy-20" fill="#56D4D6" x="152" y="122" width="50" height="36"></rect>
                    <g id="Exempel" transform="translate(177.000000, 0.000000)">
                        <rect id="Rectangle" fill="#D71784" fill-rule="evenodd" x="0" y="0" width="77" height="24"></rect>
                        <path d="M8.19588,16.2580645 L8.19588,7.61187097 L14.04788,7.61187097 L14.04788,9.28412903 L10.06852,9.28412903 L10.06852,11.0554839 L13.48116,11.0554839 L13.48116,12.7153548 L10.06852,12.7153548 L10.06852,14.5858065 L14.04788,14.5858065 L14.04788,16.2580645 L8.19588,16.2580645 Z M18.66788,12.4923871 L17.54676,13.8549677 L17.54676,16.2580645 L15.67412,16.2580645 L15.67412,7.61187097 L17.54676,7.61187097 L17.54676,11.7243871 L17.62068,11.7243871 L18.84036,10.052129 L20.7746,7.61187097 L22.89364,7.61187097 L19.99844,11.1669677 L23.15236,16.2580645 L20.94708,16.2580645 L18.66788,12.4923871 Z M26.90996,16.4067097 C26.1543296,16.4067097 25.513696,16.2766465 24.98804,16.0165161 C24.462384,15.7563858 24.0147618,15.419873 23.64516,15.0069677 L24.87716,13.755871 C25.4603096,14.4165194 26.1789691,14.7468387 27.03316,14.7468387 C27.493109,14.7468387 27.8339589,14.6518719 28.05572,14.4619355 C28.2774811,14.2719991 28.38836,14.0201306 28.38836,13.7063226 C28.38836,13.4668375 28.322654,13.2665815 28.19124,13.1055484 C28.059826,12.9445153 27.7928953,12.8350971 27.39044,12.7772903 L26.54036,12.6658065 C25.6286754,12.550193 24.9613488,12.2735506 24.53836,11.835871 C24.1153712,11.3981914 23.90388,10.8160036 23.90388,10.0892903 C23.90388,9.70115935 23.9777993,9.34606613 24.12564,9.024 C24.2734807,8.70193387 24.484972,8.42529148 24.76012,8.19406452 C25.035268,7.96283755 25.3720113,7.78322645 25.77036,7.65522581 C26.1687087,7.52722517 26.6224908,7.46322581 27.13172,7.46322581 C27.7805766,7.46322581 28.3513975,7.56645058 28.8442,7.77290323 C29.3370025,7.97935587 29.7599849,8.28077221 30.11316,8.67716129 L28.86884,9.94064516 C28.6635056,9.70116009 28.4150548,9.50503302 28.12348,9.35225806 C27.8319052,9.19948311 27.4643622,9.12309677 27.02084,9.12309677 C26.6019579,9.12309677 26.2898544,9.19741861 26.08452,9.34606452 C25.8791856,9.49471042 25.77652,9.70115997 25.77652,9.96541935 C25.77652,10.2627112 25.8565992,10.4774187 26.01676,10.6095484 C26.1769208,10.7416781 26.4376915,10.8366449 26.79908,10.8944516 L27.64916,11.0307097 C28.5362044,11.1710975 29.1932645,11.4456754 29.62036,11.8544516 C30.0474555,12.2632279 30.261,12.8433511 30.261,13.5948387 C30.261,14.007744 30.1870807,14.3876112 30.03924,14.7344516 C29.8913993,15.0812921 29.6758014,15.3785794 29.39244,15.6263226 C29.1090786,15.8740658 28.7579621,16.0660638 28.33908,16.2023226 C27.9201979,16.3385813 27.4438293,16.4067097 26.90996,16.4067097 Z M31.81332,16.2580645 L31.81332,7.61187097 L37.66532,7.61187097 L37.66532,9.28412903 L33.68596,9.28412903 L33.68596,11.0554839 L37.0986,11.0554839 L37.0986,12.7153548 L33.68596,12.7153548 L33.68596,14.5858065 L37.66532,14.5858065 L37.66532,16.2580645 L31.81332,16.2580645 Z M45.7226,10.5847742 L45.68564,10.5847742 L45.05732,11.8482581 L43.3818,14.907871 L41.74324,11.8606452 L41.09028,10.4980645 L41.05332,10.4980645 L41.05332,16.2580645 L39.29156,16.2580645 L39.29156,7.61187097 L41.27508,7.61187097 L43.3818,11.6624516 L43.40644,11.6624516 L45.48852,7.61187097 L47.48436,7.61187097 L47.48436,16.2580645 L45.7226,16.2580645 L45.7226,10.5847742 Z M49.38164,16.2580645 L49.38164,7.61187097 L53.44724,7.61187097 C53.8496953,7.61187097 54.2110784,7.67999932 54.5314,7.81625806 C54.8517216,7.95251681 55.1248122,8.1403859 55.35068,8.37987097 C55.5765478,8.61935604 55.7510794,8.9104499 55.87428,9.25316129 C55.9974806,9.59587268 56.05908,9.96954636 56.05908,10.3741935 C56.05908,10.7870988 55.9974806,11.162837 55.87428,11.5014194 C55.7510794,11.8400017 55.5765478,12.1290311 55.35068,12.3685161 C55.1248122,12.6080012 54.8517216,12.7958703 54.5314,12.932129 C54.2110784,13.0683878 53.8496953,13.1365161 53.44724,13.1365161 L51.25428,13.1365161 L51.25428,16.2580645 L49.38164,16.2580645 Z M51.25428,11.5014194 L53.22548,11.5014194 C53.5047347,11.5014194 53.7244392,11.429162 53.8846,11.2846452 C54.0447608,11.1401283 54.12484,10.9274853 54.12484,10.6467097 L54.12484,10.1016774 C54.12484,9.82090182 54.0447608,9.60825879 53.8846,9.46374194 C53.7244392,9.31922508 53.5047347,9.24696774 53.22548,9.24696774 L51.25428,9.24696774 L51.25428,11.5014194 Z M57.46356,16.2580645 L57.46356,7.61187097 L63.31556,7.61187097 L63.31556,9.28412903 L59.3362,9.28412903 L59.3362,11.0554839 L62.74884,11.0554839 L62.74884,12.7153548 L59.3362,12.7153548 L59.3362,14.5858065 L63.31556,14.5858065 L63.31556,16.2580645 L57.46356,16.2580645 Z M64.9418,16.2580645 L64.9418,7.61187097 L66.81444,7.61187097 L66.81444,14.5858065 L70.09156,14.5858065 L70.09156,16.2580645 L64.9418,16.2580645 Z" id="EKSEMPEL" fill="#FFFFFF" fill-rule="nonzero"></path>
                    </g>
                </g>
                <rect id="Rectangle-Copy-11" fill="#EEFAFA" x="50" y="58" width="50" height="100"></rect>
                <rect id="Rectangle-Copy-14" fill="#56D4D6" x="50" y="78" width="50" height="80"></rect>
            </g>
        </g>
    </g>
</svg>
