<svg id="Layer_1" data-name="Layer 1" xmlns="http://www.w3.org/2000/svg" viewBox="0 0 435.9 238.89"><title>Card-illustration-graf</title><rect x="12.4" width="1" height="223" fill="#fff"/><rect x="113.1" width="1" height="223" fill="#fff"/><rect x="212.9" width="1" height="223" fill="#fff"/><rect x="312.7" width="1" height="223" fill="#fff"/><rect x="412.4" width="1" height="223" fill="#fff"/><text transform="translate(0 234.97)" font-size="14" fill="#1a1a1a" font-family="IBMPlexSans, IBM Plex Sans, arial" style="isolation:isolate">2015</text><text transform="translate(297.5 234.97)" font-size="14" fill="#1a1a1a" font-family="IBMPlexSans, IBM Plex Sans, Arial" style="isolation:isolate">2018</text><text transform="translate(397.5 234.97)" font-size="14" fill="#1a1a1a" font-family="IBMPlexSans, IBM Plex Sans, Arial" style="isolation:isolate">2019</text><text transform="translate(97.5 234.97)" font-size="14" fill="#1a1a1a" font-family="IBMPlexSans, IBM Plex Sans, Arial" style="isolation:isolate">2016</text><text transform="translate(198.5 234.97)" font-size="14" fill="#1a1a1a" font-family="IBMPlexSans, IBM Plex Sans, Arial" style="isolation:isolate">2017</text><rect x="12.4" y="203" width="401" height="3" fill="#fff"/><rect x="12.4" y="168" width="401" height="1" fill="#2B8CBE"/><rect x="12.4" y="133" width="401" height="1" fill="#2B8CBE"/><rect x="12.4" y="97" width="401" height="1" fill="#2B8CBE"/><rect x="12.4" y="62" width="401" height="1" fill="#2B8CBE"/><rect x="12.4" y="27" width="401" height="1" fill="#2B8CBE"/><rect x="12.4" y="150" width="401" height="1" fill="#2B8CBE"/><rect x="12.4" y="115" width="401" height="1" fill="#2B8CBE"/><rect x="12.4" y="79" width="401" height="1" fill="#2B8CBE"/><rect x="12.4" y="44" width="401" height="1" fill="#2B8CBE"/><rect x="12.4" y="9" width="401" height="1" fill="#2B8CBE"/><path d="M12.4,105.6c38.3,0,36.2,56.7,70.9,56.7S118,134,148.6,134s30.6,23.4,58.6,23.4S240.5,26.5,272.8,26.5c38.1,0,38.1,42.6,71.3,42.6,32.5,0,27.4,36.5,68.3,36.5v97.9H12.4Z" transform="translate(0 0)" fill="#0868AC"/><circle cx="275.3" cy="27" r="5" fill="#084081" stroke="#fff" stroke-width="2"/><circle cx="352.2" cy="70" r="5" fill="#084081" stroke="#fff" stroke-width="2"/><circle cx="411.8" cy="105" r="5" fill="#084081" stroke="#fff" stroke-width="2"/><circle cx="148.4" cy="134" r="5" fill="#084081" stroke="#fff" stroke-width="2"/><circle cx="12.4" cy="105" r="5" fill="#084081" stroke="#fff" stroke-width="2"/><text transform="translate(2 97.97)" font-size="14" fill="#1a1a1a" font-family="IBMPlexSans-SemiBold, IBM Plex Sans SemiBold, Arial" font-weight="600" style="isolation:isolate">123</text><text transform="translate(141 126.97)" font-size="14" fill="#1a1a1a" font-family="IBMPlexSans-SemiBold, IBM Plex Sans SemiBold, Arial" font-weight="600" style="isolation:isolate">85</text><text transform="translate(264.1 20.97)" font-size="14" fill="#1a1a1a" font-family="IBMPlexSans-SemiBold, IBM Plex Sans SemiBold, Arial" font-weight="600" style="isolation:isolate">320</text><text transform="translate(341.35 62.97)" font-size="14" fill="#1a1a1a" font-family="IBMPlexSans-SemiBold, IBM Plex Sans SemiBold, Arial" font-weight="600" style="isolation:isolate">254</text><text transform="translate(400.98 97.97)" font-size="14" fill="#1a1a1a" font-family="IBMPlexSans-SemiBold, IBM Plex Sans SemiBold, Arial" font-weight="600" style="isolation:isolate">123</text></svg>