<svg id="Layer_1" data-name="Layer 1" xmlns="http://www.w3.org/2000/svg" viewBox="0 0 426.3 237.91"><defs><style>.cls-1{fill:#fff;}.cls-2,.cls-6{isolation:isolate;font-size:16px;fill:#1a1a1a;}.cls-2{font-family:IBMPlexSans, IBM Plex Sans;}.cls-3{fill:#8cb8b8;}.cls-4{fill:#3f8888;}.cls-5{fill:#2e6361;stroke:#fff;stroke-width:2px;}.cls-6{font-family:IBMPlexSans-SemiBold, IBM Plex Sans;font-weight:600;}</style></defs><title>Card-ill-graf</title><rect class="cls-1" x="12.4" width="1" height="223"/><rect class="cls-1" x="113.1" width="1" height="223"/><rect class="cls-1" x="212.9" width="1" height="223"/><rect class="cls-1" x="312.7" width="1" height="223"/><rect class="cls-1" x="412.4" width="1" height="223"/><text class="cls-2" transform="translate(0 234.97)">2015</text><text class="cls-2" transform="translate(297.5 234.97)">2018</text><text class="cls-2" transform="translate(397.5 234.97)">2019</text><text class="cls-2" transform="translate(97.5 234.97)">2016</text><text class="cls-2" transform="translate(198.5 234.97)">2017</text><rect class="cls-1" x="12.4" y="203" width="401" height="3"/><rect class="cls-3" x="12.4" y="168" width="401" height="1"/><rect class="cls-3" x="12.4" y="133" width="401" height="1"/><rect class="cls-3" x="12.4" y="97" width="401" height="1"/><rect class="cls-3" x="12.4" y="62" width="401" height="1"/><rect class="cls-3" x="12.4" y="27" width="401" height="1"/><rect class="cls-3" x="12.4" y="150" width="401" height="1"/><rect class="cls-3" x="12.4" y="115" width="401" height="1"/><rect class="cls-3" x="12.4" y="79" width="401" height="1"/><rect class="cls-3" x="12.4" y="44" width="401" height="1"/><rect class="cls-3" x="12.4" y="9" width="401" height="1"/><path class="cls-4" d="M12.4,105.6c38.3,0,36.2,56.7,70.9,56.7S118,134,148.6,134s30.6,23.4,58.6,23.4S240.5,26.5,272.8,26.5c38.1,0,38.1,42.6,71.3,42.6,32.5,0,27.4,36.5,68.3,36.5v97.9H12.4Z"/><circle class="cls-5" cx="275.3" cy="27" r="5"/><circle class="cls-5" cx="352.2" cy="70" r="5"/><circle class="cls-5" cx="411.8" cy="105" r="5"/><circle class="cls-5" cx="148.4" cy="134" r="5"/><circle class="cls-5" cx="12.4" cy="105" r="5"/><text class="cls-6" transform="translate(2 97.97)">123</text><text class="cls-6" transform="translate(141 126.97)">85</text><text class="cls-6" transform="translate(264.1 20.97)">320</text><text class="cls-6" transform="translate(341.35 62.97)">254</text><text class="cls-6" transform="translate(400.98 97.97)">123</text></svg>
