<svg id="Layer_1" data-name="Layer 1" xmlns="http://www.w3.org/2000/svg" viewBox="0 0 183.28 183.54"><defs><style>.cls-1{fill:#fbe7f2;}.cls-2{fill:#ce2283;}.cls-3{isolation:isolate;font-size:51px;fill:#1a1a1a;font-family:IBMPlexSans, IBM Plex Sans;}</style></defs><title>Card-ill-41pro</title><g id="Chart-Copy"><path class="cls-1" d="M91.67,183.54a92.27,92.27,0,0,1-22.42-2.78A90.78,90.78,0,0,1,13,139,92,92,0,0,1,44.41,13.19,91.62,91.62,0,0,1,170.28,44.5a92,92,0,0,1-31.41,125.85h0A91.42,91.42,0,0,1,91.67,183.54ZM91.58,10a81.87,81.87,0,0,0-70,123.9,81.61,81.61,0,0,0,112.14,27.88,82,82,0,0,0,28-112.14,80.93,80.93,0,0,0-50.16-37.17A82.46,82.46,0,0,0,91.58,10Z" transform="translate(0)"/><path class="cls-2" d="M171.68,75.76a81.88,81.88,0,0,0-80-65.69h-1l-.12-10h1.08a91.91,91.91,0,0,1,89.8,73.72Z" transform="translate(0)"/><text class="cls-3" transform="translate(44.18 107.07)">41%</text></g></svg>