<svg width="267" height="150" viewBox="0 0 267 150" fill="none" xmlns="http://www.w3.org/2000/svg">
<mask id="path-1-inside-1_12428_15297" fill="white">
<path d="M0 0H267V150H0V0Z"/>
</mask>
<path d="M0 0H267V150H0V0Z" fill="#F5F5F5"/>
<path d="M267 149H0V151H267V149Z" fill="#DCDCDC" mask="url(#path-1-inside-1_12428_15297)"/>
<g clip-path="url(#clip0_12428_15297)">
<path d="M102.539 53.3758C102.539 58.0184 98.7857 61.1426 94.2966 61.1426C89.8075 61.1426 85.9937 58.0184 85.9937 53.3758C85.9937 48.7331 89.747 45.6089 94.2966 45.6089C98.8463 45.6089 102.539 48.7607 102.539 53.3758ZM97.9894 53.3758C97.9894 52.3995 97.5969 51.4632 96.8983 50.7729C96.1996 50.0826 95.2521 49.6948 94.264 49.6948C93.276 49.6948 92.3284 50.0826 91.6298 50.7729C90.9311 51.4632 90.5386 52.3995 90.5386 53.3758C90.5386 54.352 90.9311 55.2883 91.6298 55.9786C92.3284 56.6689 93.276 57.0567 94.264 57.0567C95.2521 57.0567 96.1996 56.6689 96.8983 55.9786C97.5969 55.2883 97.9894 54.352 97.9894 53.3758Z" fill="#44831E"/>
<path d="M115.331 45.9586L115.075 50.5322C115.075 50.5322 109.156 49.6119 109.156 53.5598V60.7055H104.416V46.046H109.156V48.5859C109.689 47.721 110.443 47.0103 111.342 46.5255C112.242 46.0408 113.255 45.7992 114.279 45.8251C114.634 45.824 114.988 45.8689 115.331 45.9586V45.9586Z" fill="#44831E"/>
<path d="M161.335 45.9588L161.074 50.5324C161.074 50.5324 155.16 49.6121 155.16 53.56V60.7057H150.424V46.0462H155.165V48.5861C155.696 47.7202 156.45 47.0087 157.35 46.5238C158.249 46.039 159.263 45.798 160.287 45.8253C160.641 45.8249 160.993 45.8698 161.335 45.9588V45.9588Z" fill="#44831E"/>
<path d="M163.687 58.2206C163.658 58.9098 163.36 59.5613 162.857 60.0389C162.353 60.5164 161.682 60.7831 160.984 60.7831C160.285 60.7831 159.614 60.5164 159.11 60.0389C158.607 59.5613 158.309 58.9098 158.28 58.2206C158.309 57.5314 158.607 56.8799 159.11 56.4024C159.614 55.9248 160.285 55.6582 160.984 55.6582C161.682 55.6582 162.353 55.9248 162.857 56.4024C163.36 56.8799 163.658 57.5314 163.687 58.2206V58.2206Z" fill="#44831E"/>
<path d="M132.37 46.0458H125.93C125.055 45.7486 124.135 45.6007 123.21 45.6087C119.192 45.6087 116.295 48.1486 116.295 51.6823C116.283 52.6876 116.548 53.6772 117.063 54.5443C115.913 55.2713 114.735 56.8219 114.735 58.3955C114.735 61.9063 118.107 63.236 120.877 63.236H124.249C126.358 63.236 127.313 63.9446 127.313 65.8357V66.9998H127.364L131.332 64.9661C131.332 61.9891 129.935 59.3204 125.501 59.3204H120.877C119.592 59.3204 118.917 58.9385 118.917 58.0504C118.925 57.8094 118.989 57.5734 119.104 57.3605C119.218 57.1476 119.38 56.9634 119.578 56.8219C120.708 57.3682 121.952 57.647 123.21 57.6363C127.108 57.6363 130.093 55.1839 130.093 51.6823C130.087 51.0293 129.988 50.3804 129.8 49.7544H132.37V46.0458ZM123.21 54.0934C122.724 54.0593 122.258 53.8856 121.87 53.5935C121.481 53.3015 121.188 52.9038 121.025 52.4493C120.863 51.9947 120.838 51.5032 120.954 51.035C121.07 50.5667 121.322 50.1422 121.679 49.8135C122.036 49.4847 122.482 49.2661 122.963 49.1844C123.444 49.1027 123.938 49.1616 124.386 49.3537C124.833 49.5458 125.214 49.8628 125.482 50.2659C125.75 50.6689 125.892 51.1404 125.893 51.6225C125.886 51.9603 125.81 52.2932 125.67 52.6016C125.531 52.91 125.33 53.1877 125.08 53.418C124.83 53.6484 124.536 53.8269 124.214 53.9429C123.893 54.0589 123.552 54.1101 123.21 54.0934V54.0934Z" fill="#44831E"/>
<path d="M77.2809 45.6042C75.5894 45.5424 73.9371 46.1162 72.6567 47.2101V37.0229H72.4658L68 38.9739V60.7009H72.6567V59.546C73.9335 60.6365 75.5802 61.2101 77.2669 61.1518C81.1972 61.1518 84.5035 58.0276 84.5035 53.3849C84.5035 48.7423 81.2112 45.6042 77.2809 45.6042ZM76.3076 57.2453C75.8031 57.2421 75.3043 57.1384 74.8413 56.9404C74.3782 56.7423 73.9603 56.4541 73.6126 56.0929C73.2648 55.7317 72.9943 55.3049 72.8173 54.838C72.6403 54.3711 72.5603 53.8738 72.5822 53.3757C72.5629 52.8783 72.6447 52.382 72.8226 51.9163C73.0006 51.4506 73.2712 51.0248 73.6185 50.6641C73.9657 50.3034 74.3826 50.0151 74.8444 49.8162C75.3063 49.6173 75.8038 49.5119 76.3076 49.5061C78.4171 49.5061 79.9539 51.0843 79.9539 53.3757C79.9539 55.6671 78.4171 57.2453 76.3076 57.2453Z" fill="#44831E"/>
<path d="M181.587 37L177.014 38.9785V47.2147C175.737 46.1242 174.091 45.5506 172.404 45.6089C168.474 45.6089 165.167 48.7607 165.167 53.3758C165.167 57.9908 168.474 61.1426 172.404 61.1426C174.09 61.2035 175.736 60.6332 177.014 59.546V60.7147H181.741V37H181.587ZM173.377 57.2454C171.268 57.2454 169.731 55.6994 169.731 53.3758C169.731 51.0521 171.268 49.5015 173.377 49.5015C173.882 49.5073 174.379 49.6129 174.842 49.8121C175.304 50.0112 175.721 50.3 176.068 50.6611C176.416 51.0223 176.686 51.4487 176.864 51.9149C177.041 52.3812 177.123 52.8779 177.103 53.3758C177.125 53.8739 177.045 54.3712 176.868 54.8381C176.691 55.3049 176.42 55.7317 176.072 56.0929C175.725 56.4542 175.307 56.7424 174.844 56.9404C174.381 57.1384 173.882 57.2422 173.377 57.2454V57.2454Z" fill="#44831E"/>
<path d="M194.309 52.4969L199.995 46.046H194.272L190.733 50.1917H189.336V37H189.126L184.605 38.9555V60.7055H189.336V54.4248H190.733L194.375 60.7055H200L194.309 52.4969Z" fill="#44831E"/>
<path d="M148.319 53.3756C148.231 48.5857 144.864 45.6087 140.668 45.6087C139.629 45.5835 138.596 45.7671 137.63 46.1485C136.665 46.5299 135.788 47.1011 135.053 47.8274C134.318 48.5537 133.74 49.42 133.354 50.3738C132.968 51.3275 132.782 52.3488 132.808 53.3756C132.779 54.4013 132.962 55.4221 133.345 56.3758C133.729 57.3294 134.305 58.196 135.038 58.9226C135.771 59.6493 136.646 60.2209 137.61 60.6025C138.574 60.9841 139.607 61.1679 140.645 61.1425C143.579 61.1425 145.982 60.029 147.402 57.733L143.802 55.713C143.006 57.1394 141.735 57.4063 140.645 57.4063C139.048 57.4063 137.851 56.325 137.451 54.5719H148.324L148.319 53.3756ZM137.385 51.7698C137.59 51.0611 138.021 50.4364 138.613 49.9881C139.205 49.5398 139.927 49.2917 140.673 49.2805C141.406 49.2744 142.118 49.519 142.69 49.9727C143.261 50.4264 143.656 51.0613 143.807 51.7698H137.385Z" fill="#44831E"/>
</g>
<g clip-path="url(#clip1_12428_15297)">
<path d="M128.1 75C129.193 75 130.052 75.925 130.052 77.0042C130.052 78.0833 129.193 79.0083 128.1 79.0083C127.008 79.0083 126.149 78.0833 126.149 77.0042C126.227 75.925 127.086 75 128.1 75Z" fill="#999999"/>
<path d="M123.73 82.4773C123.73 83.5565 122.872 84.4815 121.857 84.4815C120.765 84.4815 119.984 83.5565 119.984 82.4773C119.984 81.3981 120.843 80.4731 121.857 80.4731C122.872 80.4731 123.73 81.3981 123.73 82.4773Z" fill="#999999"/>
<path d="M130.052 81.9373C130.052 83.0935 129.193 83.9414 128.1 83.9414C127.008 83.9414 126.149 83.0164 126.149 81.9373C126.149 80.781 127.008 79.9331 128.1 79.9331C129.193 79.9331 130.052 80.781 130.052 81.9373Z" fill="#999999"/>
<path d="M136.373 82.4772C136.373 83.6335 135.515 84.5585 134.422 84.5585C133.329 84.5585 132.471 83.6335 132.471 82.4772C132.471 81.321 133.329 80.396 134.422 80.396C135.515 80.396 136.373 81.321 136.373 82.4772Z" fill="#999999"/>
<path d="M130.052 86.7166C130.052 87.8728 129.193 88.7207 128.1 88.7207C127.008 88.7207 126.149 87.7957 126.149 86.7166C126.149 85.5603 127.008 84.7124 128.1 84.7124C129.193 84.7124 130.052 85.5603 130.052 86.7166Z" fill="#999999"/>
<path d="M134.812 87.0251C134.812 88.1813 133.954 89.1063 132.861 89.1063C131.769 89.1063 130.91 88.1813 130.91 87.0251C130.91 85.8688 131.769 84.9438 132.861 84.9438C133.954 84.9438 134.812 85.8688 134.812 87.0251Z" fill="#999999"/>
<path d="M123.418 85.021C124.433 85.021 125.291 85.946 125.291 87.0252C125.291 88.1043 124.433 89.0293 123.418 89.0293C122.403 89.0293 121.545 88.1814 121.545 87.0252C121.467 85.8689 122.325 85.021 123.418 85.021Z" fill="#999999"/>
<path d="M105 94.0398C105 93.4231 110.229 93.4231 110.385 93.8856C110.385 93.8856 112.336 104.677 112.336 105.14H112.492C113.116 103.213 116.706 93.8856 116.706 93.8856C116.94 93.4231 121.701 93.4231 121.701 93.9627C121.701 94.1169 121.623 94.3481 121.545 94.5794L114.131 111.615C113.897 112.077 109.136 112.077 108.98 111.615L105.078 94.5794C105 94.2711 105 94.1169 105 94.0398Z" fill="#1A1A1A"/>
<path d="M134.656 96.9692L134.89 94.1942C135.202 93.5775 139.885 93.8859 139.885 94.2713C139.885 94.5796 139.729 96.2755 139.729 96.2755C139.729 94.965 143.007 93.963 144.567 93.963C145.036 93.963 145.27 93.8859 145.504 93.963C145.816 94.04 145.114 98.2796 144.802 98.4338C144.177 98.588 143.709 98.588 142.694 98.8192C141.368 99.1275 139.885 100.13 139.573 100.978L138.558 111.384C138.48 112.155 133.173 111.923 133.251 111.384C133.251 111.461 134.578 97.74 134.656 96.9692Z" fill="#1A1A1A"/>
<path d="M154.791 86.2544L153.308 100.669H153.464L158.459 93.8856C158.849 93.4231 164 93.3461 164 93.7315C164 93.8856 163.844 94.1169 163.61 94.5023L157.913 101.902L162.751 110.921C162.907 111.152 163.063 111.538 162.907 111.692C162.751 112 157.444 112.077 157.288 111.692L153.152 103.444H152.996L152.137 111.384C152.059 112.154 146.831 112.154 146.831 111.384L149.406 86.2544C149.64 85.4836 154.791 85.4836 154.791 86.2544Z" fill="#1A1A1A"/>
<path d="M130.364 94.2713C130.442 93.5775 125.135 93.5775 125.057 94.2713L124.51 99.9755L123.34 111.384C123.34 112.155 128.569 112.155 128.647 111.384L129.505 103.444L129.817 100.592L130.051 97.9713C130.13 96.8921 130.286 95.5817 130.364 94.2713Z" fill="#1A1A1A"/>
</g>
<defs>
<clipPath id="clip0_12428_15297">
<rect width="132" height="30" fill="white" transform="translate(68 37)"/>
</clipPath>
<clipPath id="clip1_12428_15297">
<rect width="59" height="37" fill="white" transform="translate(105 75)"/>
</clipPath>
</defs>
</svg>
