<svg width="267" height="150" viewBox="0 0 267 150" fill="none" xmlns="http://www.w3.org/2000/svg">
<rect width="267" height="150" fill="#F5F5F5"/>
<path d="M89.6668 89.1501L81.3334 80.8335V79.5168L80.8834 79.0501C78.7544 80.8774 76.0002 81.8088 73.1991 81.6487C70.398 81.4886 67.7678 80.2495 65.8608 78.1916C63.9538 76.1336 62.9183 73.4168 62.9717 70.6116C63.0251 67.8065 64.1632 65.1311 66.1471 63.1471C68.1311 61.1632 70.8065 60.0251 73.6116 59.9717C76.4168 59.9183 79.1336 60.9538 81.1916 62.8608C83.2495 64.7678 84.4886 67.398 84.6487 70.1991C84.8088 73.0002 83.8774 75.7544 82.0501 77.8834L82.5168 78.3334H83.8335L92.1501 86.6668L89.6668 89.1485V89.1501ZM73.8334 63.3334C72.3501 63.3334 70.9 63.7733 69.6667 64.5974C68.4333 65.4215 67.472 66.5929 66.9044 67.9633C66.3367 69.3338 66.1882 70.8418 66.4776 72.2966C66.7669 73.7515 67.4813 75.0879 68.5301 76.1367C69.579 77.1856 70.9154 77.9 72.3703 78.1893C73.8251 78.4787 75.3331 78.3302 76.7036 77.7625C78.074 77.1949 79.2454 76.2336 80.0695 75.0002C80.8936 73.7669 81.3334 72.3168 81.3334 70.8334C81.3312 68.845 80.5404 66.9386 79.1343 65.5326C77.7283 64.1265 75.8219 63.3357 73.8334 63.3334Z" fill="#44831E"/>
<g clip-path="url(#clip0_12428_15296)">
<path d="M134 64.4833L142.333 71.9833V85H139V75H129V85H125.667V71.9833L134 64.4833ZM134 60L117.333 75H122.333V88.3333H132.333V78.3333H135.667V88.3333H145.667V75H150.667L134 60Z" fill="#44831E"/>
</g>
<path d="M185 60V61.6667H176.667V65H178.333V86.6667C178.333 87.5507 178.685 88.3986 179.31 89.0237C179.935 89.6488 180.783 90 181.667 90H198.333C199.217 90 200.065 89.6488 200.69 89.0237C201.316 88.3986 201.667 87.5507 201.667 86.6667V65H203.333V61.6667H195V60H185ZM181.667 65H198.333V86.6667H181.667V65ZM185 68.3333V83.3333H188.333V68.3333H185ZM191.667 68.3333V83.3333H195V68.3333H191.667Z" fill="#44831E"/>
<defs>
<clipPath id="clip0_12428_15296">
<rect width="40" height="40" fill="white" transform="translate(114 55)"/>
</clipPath>
</defs>
</svg>
