<svg width="418" height="367" viewBox="0 0 418 367" fill="none" xmlns="http://www.w3.org/2000/svg">
<rect width="418" height="367" fill="white"/>
<line y1="246.5" x2="418" y2="246.5" stroke="#8E8E8E"/>
<path d="M19.836 280.596L18.758 278.524H18.716V286H17.204V276.228H18.968L22.16 281.632L23.238 283.704H23.28V276.228H24.792V286H23.028L19.836 280.596ZM31.5521 278.72H33.0221L29.9561 287.442C29.8721 287.685 29.7741 287.89 29.6621 288.058C29.5595 288.235 29.4335 288.375 29.2841 288.478C29.1441 288.59 28.9715 288.669 28.7661 288.716C28.5608 288.772 28.3181 288.8 28.0381 288.8H27.1561V287.554H28.3881L28.8081 286.322L26.1621 278.72H27.6881L29.1441 283.004L29.5641 284.586H29.6341L30.0961 283.004L31.5521 278.72ZM34.2775 275.64H35.8035V279.924H35.8735C36.0322 279.532 36.2702 279.205 36.5875 278.944C36.9142 278.683 37.3575 278.552 37.9175 278.552C38.6642 278.552 39.2429 278.799 39.6535 279.294C40.0735 279.779 40.2835 280.475 40.2835 281.38V286H38.7575V281.562C38.7575 280.433 38.3002 279.868 37.3855 279.868C37.1895 279.868 36.9935 279.896 36.7975 279.952C36.6109 279.999 36.4429 280.073 36.2935 280.176C36.1442 280.279 36.0229 280.409 35.9295 280.568C35.8455 280.727 35.8035 280.909 35.8035 281.114V286H34.2775V275.64ZM45.2546 286.168C44.732 286.168 44.2653 286.079 43.8546 285.902C43.444 285.725 43.094 285.473 42.8046 285.146C42.5153 284.81 42.2913 284.409 42.1326 283.942C41.9833 283.466 41.9086 282.939 41.9086 282.36C41.9086 281.781 41.9833 281.259 42.1326 280.792C42.2913 280.316 42.5153 279.915 42.8046 279.588C43.094 279.252 43.444 278.995 43.8546 278.818C44.2653 278.641 44.732 278.552 45.2546 278.552C45.7866 278.552 46.2533 278.645 46.6546 278.832C47.0653 279.019 47.406 279.28 47.6766 279.616C47.9473 279.943 48.148 280.325 48.2786 280.764C48.4186 281.203 48.4886 281.674 48.4886 282.178V282.752H43.4906V282.99C43.4906 283.55 43.654 284.012 43.9806 284.376C44.3166 284.731 44.7926 284.908 45.4086 284.908C45.8566 284.908 46.2346 284.81 46.5426 284.614C46.8506 284.418 47.112 284.152 47.3266 283.816L48.2226 284.698C47.952 285.146 47.56 285.505 47.0466 285.776C46.5333 286.037 45.936 286.168 45.2546 286.168ZM45.2546 279.742C44.9933 279.742 44.7506 279.789 44.5266 279.882C44.312 279.975 44.1253 280.106 43.9666 280.274C43.8173 280.442 43.7006 280.643 43.6166 280.876C43.5326 281.109 43.4906 281.366 43.4906 281.646V281.744H46.8786V281.604C46.8786 281.044 46.734 280.596 46.4446 280.26C46.1553 279.915 45.7586 279.742 45.2546 279.742ZM54.7559 284.796H54.6859C54.5273 285.225 54.2659 285.561 53.9019 285.804C53.5473 286.047 53.1273 286.168 52.6419 286.168C51.7179 286.168 51.0039 285.837 50.4999 285.174C49.9959 284.502 49.7439 283.564 49.7439 282.36C49.7439 281.156 49.9959 280.223 50.4999 279.56C51.0039 278.888 51.7179 278.552 52.6419 278.552C53.1273 278.552 53.5473 278.673 53.9019 278.916C54.2659 279.149 54.5273 279.485 54.6859 279.924H54.7559V275.64H56.2819V286H54.7559V284.796ZM53.1039 284.852C53.5706 284.852 53.9626 284.74 54.2799 284.516C54.5973 284.283 54.7559 283.979 54.7559 283.606V281.114C54.7559 280.741 54.5973 280.442 54.2799 280.218C53.9626 279.985 53.5706 279.868 53.1039 279.868C52.5719 279.868 52.1473 280.041 51.8299 280.386C51.5126 280.722 51.3539 281.17 51.3539 281.73V282.99C51.3539 283.55 51.5126 284.003 51.8299 284.348C52.1473 284.684 52.5719 284.852 53.1039 284.852ZM61.3191 286.168C60.7964 286.168 60.3298 286.079 59.9191 285.902C59.5084 285.725 59.1584 285.473 58.8691 285.146C58.5798 284.81 58.3558 284.409 58.1971 283.942C58.0478 283.466 57.9731 282.939 57.9731 282.36C57.9731 281.781 58.0478 281.259 58.1971 280.792C58.3558 280.316 58.5798 279.915 58.8691 279.588C59.1584 279.252 59.5084 278.995 59.9191 278.818C60.3298 278.641 60.7964 278.552 61.3191 278.552C61.8511 278.552 62.3178 278.645 62.7191 278.832C63.1298 279.019 63.4704 279.28 63.7411 279.616C64.0118 279.943 64.2124 280.325 64.3431 280.764C64.4831 281.203 64.5531 281.674 64.5531 282.178V282.752H59.5551V282.99C59.5551 283.55 59.7184 284.012 60.0451 284.376C60.3811 284.731 60.8571 284.908 61.4731 284.908C61.9211 284.908 62.2991 284.81 62.6071 284.614C62.9151 284.418 63.1764 284.152 63.3911 283.816L64.2871 284.698C64.0164 285.146 63.6244 285.505 63.1111 285.776C62.5978 286.037 62.0004 286.168 61.3191 286.168ZM61.3191 279.742C61.0578 279.742 60.8151 279.789 60.5911 279.882C60.3764 279.975 60.1898 280.106 60.0311 280.274C59.8818 280.442 59.7651 280.643 59.6811 280.876C59.5971 281.109 59.5551 281.366 59.5551 281.646V281.744H62.9431V281.604C62.9431 281.044 62.7984 280.596 62.5091 280.26C62.2198 279.915 61.8231 279.742 61.3191 279.742ZM66.2424 286V278.72H67.7684V280.12H67.8384C67.9411 279.747 68.1557 279.42 68.4824 279.14C68.8091 278.86 69.2617 278.72 69.8404 278.72H70.2464V280.19H69.6444C69.0377 280.19 68.5711 280.288 68.2444 280.484C67.9271 280.68 67.7684 280.969 67.7684 281.352V286H66.2424Z" fill="black"/>
<path d="M151.204 286V276.228H152.786V284.6H156.762V286H151.204ZM159.04 277.418C158.722 277.418 158.489 277.343 158.34 277.194C158.2 277.045 158.13 276.853 158.13 276.62V276.382C158.13 276.149 158.2 275.957 158.34 275.808C158.489 275.659 158.722 275.584 159.04 275.584C159.357 275.584 159.586 275.659 159.726 275.808C159.866 275.957 159.936 276.149 159.936 276.382V276.62C159.936 276.853 159.866 277.045 159.726 277.194C159.586 277.343 159.357 277.418 159.04 277.418ZM158.27 278.72H159.796V286H158.27V278.72ZM161.975 286V278.72H163.501V279.924H163.571C163.729 279.532 163.967 279.205 164.285 278.944C164.611 278.683 165.055 278.552 165.615 278.552C166.361 278.552 166.94 278.799 167.351 279.294C167.771 279.779 167.981 280.475 167.981 281.38V286H166.455V281.576C166.455 280.437 165.997 279.868 165.083 279.868C164.887 279.868 164.691 279.896 164.495 279.952C164.308 279.999 164.14 280.073 163.991 280.176C163.841 280.279 163.72 280.409 163.627 280.568C163.543 280.727 163.501 280.913 163.501 281.128V286H161.975ZM170.096 275.64H171.622V281.996H171.692L172.7 280.694L174.45 278.72H176.228L173.68 281.534L176.536 286H174.716L172.63 282.528L171.622 283.62V286H170.096V275.64ZM179.925 286.168C179.235 286.168 178.656 286.047 178.189 285.804C177.723 285.561 177.317 285.225 176.971 284.796L177.951 283.9C178.222 284.227 178.521 284.483 178.847 284.67C179.183 284.847 179.571 284.936 180.009 284.936C180.457 284.936 180.789 284.852 181.003 284.684C181.227 284.507 181.339 284.264 181.339 283.956C181.339 283.723 181.26 283.527 181.101 283.368C180.952 283.2 180.686 283.093 180.303 283.046L179.631 282.962C178.885 282.869 178.297 282.654 177.867 282.318C177.447 281.973 177.237 281.464 177.237 280.792C177.237 280.437 177.303 280.125 177.433 279.854C177.564 279.574 177.746 279.341 177.979 279.154C178.222 278.958 178.507 278.809 178.833 278.706C179.169 278.603 179.538 278.552 179.939 278.552C180.593 278.552 181.125 278.655 181.535 278.86C181.955 279.065 182.329 279.35 182.655 279.714L181.717 280.61C181.531 280.386 181.283 280.195 180.975 280.036C180.677 279.868 180.331 279.784 179.939 279.784C179.519 279.784 179.207 279.868 179.001 280.036C178.805 280.204 178.707 280.423 178.707 280.694C178.707 280.974 178.796 281.184 178.973 281.324C179.151 281.464 179.435 281.567 179.827 281.632L180.499 281.716C181.302 281.837 181.885 282.075 182.249 282.43C182.623 282.775 182.809 283.242 182.809 283.83C182.809 284.185 182.739 284.507 182.599 284.796C182.469 285.076 182.277 285.319 182.025 285.524C181.773 285.729 181.47 285.888 181.115 286C180.761 286.112 180.364 286.168 179.925 286.168Z" fill="black"/>
<path d="M288.13 286.168C287.309 286.168 286.609 286.019 286.03 285.72C285.461 285.421 284.971 285.02 284.56 284.516L285.652 283.494C285.997 283.914 286.375 284.231 286.786 284.446C287.206 284.661 287.682 284.768 288.214 284.768C288.839 284.768 289.311 284.628 289.628 284.348C289.945 284.068 290.104 283.69 290.104 283.214C290.104 282.831 289.992 282.528 289.768 282.304C289.544 282.08 289.147 281.912 288.578 281.8L287.71 281.646C286.758 281.469 286.044 281.156 285.568 280.708C285.092 280.26 284.854 279.644 284.854 278.86C284.854 278.431 284.933 278.043 285.092 277.698C285.26 277.343 285.489 277.049 285.778 276.816C286.077 276.573 286.436 276.387 286.856 276.256C287.276 276.125 287.747 276.06 288.27 276.06C289.007 276.06 289.647 276.191 290.188 276.452C290.729 276.704 291.191 277.073 291.574 277.558L290.468 278.538C290.216 278.211 289.908 277.95 289.544 277.754C289.18 277.558 288.727 277.46 288.186 277.46C287.626 277.46 287.192 277.572 286.884 277.796C286.576 278.02 286.422 278.347 286.422 278.776C286.422 279.187 286.548 279.495 286.8 279.7C287.052 279.896 287.444 280.045 287.976 280.148L288.844 280.33C289.824 280.517 290.538 280.834 290.986 281.282C291.443 281.73 291.672 282.346 291.672 283.13C291.672 283.587 291.593 284.003 291.434 284.376C291.275 284.749 291.042 285.071 290.734 285.342C290.435 285.603 290.067 285.809 289.628 285.958C289.189 286.098 288.69 286.168 288.13 286.168ZM296.315 286.168C295.793 286.168 295.326 286.079 294.915 285.902C294.505 285.725 294.155 285.473 293.865 285.146C293.576 284.81 293.352 284.409 293.193 283.942C293.044 283.466 292.969 282.939 292.969 282.36C292.969 281.781 293.044 281.259 293.193 280.792C293.352 280.316 293.576 279.915 293.865 279.588C294.155 279.252 294.505 278.995 294.915 278.818C295.326 278.641 295.793 278.552 296.315 278.552C296.847 278.552 297.314 278.645 297.715 278.832C298.126 279.019 298.467 279.28 298.737 279.616C299.008 279.943 299.209 280.325 299.339 280.764C299.479 281.203 299.549 281.674 299.549 282.178V282.752H294.551V282.99C294.551 283.55 294.715 284.012 295.041 284.376C295.377 284.731 295.853 284.908 296.469 284.908C296.917 284.908 297.295 284.81 297.603 284.614C297.911 284.418 298.173 284.152 298.387 283.816L299.283 284.698C299.013 285.146 298.621 285.505 298.107 285.776C297.594 286.037 296.997 286.168 296.315 286.168ZM296.315 279.742C296.054 279.742 295.811 279.789 295.587 279.882C295.373 279.975 295.186 280.106 295.027 280.274C294.878 280.442 294.761 280.643 294.677 280.876C294.593 281.109 294.551 281.366 294.551 281.646V281.744H297.939V281.604C297.939 281.044 297.795 280.596 297.505 280.26C297.216 279.915 296.819 279.742 296.315 279.742ZM302.792 286C302.27 286 301.878 285.869 301.616 285.608C301.364 285.337 301.238 284.964 301.238 284.488V275.64H302.764V284.754H303.772V286H302.792ZM306.703 286L304.225 278.72H305.737L306.843 282.038L307.585 284.586H307.669L308.411 282.038L309.545 278.72H311.001L308.495 286H306.703ZM312.285 275.64H313.811V279.924H313.881C314.04 279.485 314.297 279.149 314.651 278.916C315.015 278.673 315.44 278.552 315.925 278.552C316.849 278.552 317.563 278.888 318.067 279.56C318.571 280.223 318.823 281.156 318.823 282.36C318.823 283.564 318.571 284.502 318.067 285.174C317.563 285.837 316.849 286.168 315.925 286.168C315.44 286.168 315.015 286.047 314.651 285.804C314.297 285.561 314.04 285.225 313.881 284.796H313.811V286H312.285V275.64ZM315.463 284.852C315.995 284.852 316.42 284.684 316.737 284.348C317.055 284.003 317.213 283.55 317.213 282.99V281.73C317.213 281.17 317.055 280.722 316.737 280.386C316.42 280.041 315.995 279.868 315.463 279.868C314.997 279.868 314.605 279.985 314.287 280.218C313.97 280.442 313.811 280.741 313.811 281.114V283.606C313.811 283.979 313.97 284.283 314.287 284.516C314.605 284.74 314.997 284.852 315.463 284.852ZM323.427 286.168C322.904 286.168 322.437 286.079 322.027 285.902C321.616 285.725 321.266 285.473 320.977 285.146C320.687 284.81 320.463 284.409 320.305 283.942C320.155 283.466 320.081 282.939 320.081 282.36C320.081 281.781 320.155 281.259 320.305 280.792C320.463 280.316 320.687 279.915 320.977 279.588C321.266 279.252 321.616 278.995 322.027 278.818C322.437 278.641 322.904 278.552 323.427 278.552C323.959 278.552 324.425 278.645 324.827 278.832C325.237 279.019 325.578 279.28 325.849 279.616C326.119 279.943 326.32 280.325 326.451 280.764C326.591 281.203 326.661 281.674 326.661 282.178V282.752H321.663V282.99C321.663 283.55 321.826 284.012 322.153 284.376C322.489 284.731 322.965 284.908 323.581 284.908C324.029 284.908 324.407 284.81 324.715 284.614C325.023 284.418 325.284 284.152 325.499 283.816L326.395 284.698C326.124 285.146 325.732 285.505 325.219 285.776C324.705 286.037 324.108 286.168 323.427 286.168ZM323.427 279.742C323.165 279.742 322.923 279.789 322.699 279.882C322.484 279.975 322.297 280.106 322.139 280.274C321.989 280.442 321.873 280.643 321.789 280.876C321.705 281.109 321.663 281.366 321.663 281.646V281.744H325.051V281.604C325.051 281.044 324.906 280.596 324.617 280.26C324.327 279.915 323.931 279.742 323.427 279.742ZM330.366 286C329.834 286 329.432 285.865 329.162 285.594C328.891 285.314 328.756 284.922 328.756 284.418V279.966H327.622V278.72H328.238C328.49 278.72 328.662 278.664 328.756 278.552C328.858 278.44 328.91 278.258 328.91 278.006V276.732H330.282V278.72H331.808V279.966H330.282V284.754H331.696V286H330.366ZM333.463 278.72H334.989V286.98C334.989 287.54 334.844 287.983 334.555 288.31C334.275 288.637 333.827 288.8 333.211 288.8H332.329V287.554H333.463V278.72ZM334.233 277.418C333.916 277.418 333.682 277.343 333.533 277.194C333.393 277.045 333.323 276.853 333.323 276.62V276.382C333.323 276.149 333.393 275.957 333.533 275.808C333.682 275.659 333.916 275.584 334.233 275.584C334.55 275.584 334.779 275.659 334.919 275.808C335.059 275.957 335.129 276.149 335.129 276.382V276.62C335.129 276.853 335.059 277.045 334.919 277.194C334.779 277.343 334.55 277.418 334.233 277.418ZM340.024 286.168C339.502 286.168 339.035 286.079 338.624 285.902C338.214 285.725 337.864 285.473 337.574 285.146C337.285 284.81 337.061 284.409 336.902 283.942C336.753 283.466 336.678 282.939 336.678 282.36C336.678 281.781 336.753 281.259 336.902 280.792C337.061 280.316 337.285 279.915 337.574 279.588C337.864 279.252 338.214 278.995 338.624 278.818C339.035 278.641 339.502 278.552 340.024 278.552C340.556 278.552 341.023 278.645 341.424 278.832C341.835 279.019 342.176 279.28 342.446 279.616C342.717 279.943 342.918 280.325 343.048 280.764C343.188 281.203 343.258 281.674 343.258 282.178V282.752H338.26V282.99C338.26 283.55 338.424 284.012 338.75 284.376C339.086 284.731 339.562 284.908 340.178 284.908C340.626 284.908 341.004 284.81 341.312 284.614C341.62 284.418 341.882 284.152 342.096 283.816L342.992 284.698C342.722 285.146 342.33 285.505 341.816 285.776C341.303 286.037 340.706 286.168 340.024 286.168ZM340.024 279.742C339.763 279.742 339.52 279.789 339.296 279.882C339.082 279.975 338.895 280.106 338.736 280.274C338.587 280.442 338.47 280.643 338.386 280.876C338.302 281.109 338.26 281.366 338.26 281.646V281.744H341.648V281.604C341.648 281.044 341.504 280.596 341.214 280.26C340.925 279.915 340.528 279.742 340.024 279.742ZM344.947 286V278.72H346.473V279.924H346.543C346.702 279.532 346.94 279.205 347.257 278.944C347.584 278.683 348.027 278.552 348.587 278.552C349.334 278.552 349.913 278.799 350.323 279.294C350.743 279.779 350.953 280.475 350.953 281.38V286H349.427V281.576C349.427 280.437 348.97 279.868 348.055 279.868C347.859 279.868 347.663 279.896 347.467 279.952C347.281 279.999 347.113 280.073 346.963 280.176C346.814 280.279 346.693 280.409 346.599 280.568C346.515 280.727 346.473 280.913 346.473 281.128V286H344.947ZM353.839 277.418C353.521 277.418 353.288 277.343 353.139 277.194C352.999 277.045 352.929 276.853 352.929 276.62V276.382C352.929 276.149 352.999 275.957 353.139 275.808C353.288 275.659 353.521 275.584 353.839 275.584C354.156 275.584 354.385 275.659 354.525 275.808C354.665 275.957 354.735 276.149 354.735 276.382V276.62C354.735 276.853 354.665 277.045 354.525 277.194C354.385 277.343 354.156 277.418 353.839 277.418ZM353.069 278.72H354.595V286H353.069V278.72ZM356.774 286V278.72H358.3V279.924H358.37C358.528 279.532 358.766 279.205 359.084 278.944C359.41 278.683 359.854 278.552 360.414 278.552C361.16 278.552 361.739 278.799 362.15 279.294C362.57 279.779 362.78 280.475 362.78 281.38V286H361.254V281.576C361.254 280.437 360.796 279.868 359.882 279.868C359.686 279.868 359.49 279.896 359.294 279.952C359.107 279.999 358.939 280.073 358.79 280.176C358.64 280.279 358.519 280.409 358.426 280.568C358.342 280.727 358.3 280.913 358.3 281.128V286H356.774ZM371.279 286.686C371.279 287.442 370.989 288.011 370.411 288.394C369.832 288.777 368.889 288.968 367.583 288.968C366.985 288.968 366.477 288.926 366.057 288.842C365.646 288.767 365.305 288.655 365.035 288.506C364.773 288.357 364.582 288.175 364.461 287.96C364.339 287.745 364.279 287.498 364.279 287.218C364.279 286.817 364.386 286.504 364.601 286.28C364.825 286.056 365.133 285.902 365.525 285.818V285.664C364.974 285.487 364.699 285.113 364.699 284.544C364.699 284.171 364.825 283.886 365.077 283.69C365.329 283.485 365.632 283.34 365.987 283.256V283.2C365.557 282.995 365.226 282.71 364.993 282.346C364.769 281.973 364.657 281.539 364.657 281.044C364.657 280.297 364.904 279.695 365.399 279.238C365.903 278.781 366.621 278.552 367.555 278.552C368.068 278.552 368.507 278.627 368.871 278.776V278.58C368.871 278.253 368.945 278.001 369.095 277.824C369.253 277.637 369.496 277.544 369.823 277.544H370.943V278.776H369.459V279.07C369.785 279.285 370.037 279.565 370.215 279.91C370.392 280.246 370.481 280.624 370.481 281.044C370.481 281.781 370.229 282.379 369.725 282.836C369.221 283.284 368.502 283.508 367.569 283.508C367.214 283.508 366.897 283.471 366.617 283.396C366.43 283.461 366.267 283.555 366.127 283.676C365.987 283.788 365.917 283.937 365.917 284.124C365.917 284.32 366.005 284.46 366.183 284.544C366.36 284.628 366.612 284.67 366.939 284.67H368.731C369.627 284.67 370.275 284.852 370.677 285.216C371.078 285.571 371.279 286.061 371.279 286.686ZM369.851 286.854C369.851 286.602 369.753 286.401 369.557 286.252C369.37 286.103 369.025 286.028 368.521 286.028H366.057C365.721 286.224 365.553 286.504 365.553 286.868C365.553 287.167 365.669 287.405 365.903 287.582C366.145 287.769 366.551 287.862 367.121 287.862H368.073C369.258 287.862 369.851 287.526 369.851 286.854ZM367.569 282.402C368.017 282.402 368.362 282.304 368.605 282.108C368.857 281.903 368.983 281.59 368.983 281.17V280.89C368.983 280.47 368.857 280.162 368.605 279.966C368.362 279.761 368.017 279.658 367.569 279.658C367.121 279.658 366.771 279.761 366.519 279.966C366.276 280.162 366.155 280.47 366.155 280.89V281.17C366.155 281.59 366.276 281.903 366.519 282.108C366.771 282.304 367.121 282.402 367.569 282.402Z" fill="black"/>
<path d="M16 20C16 17.7909 17.7909 16 20 16H398C400.209 16 402 17.7909 402 20V131C402 133.209 400.209 135 398 135H20C17.7909 135 16 133.209 16 131V20Z" fill="#DCDCDC"/>
<path d="M16 155C16 152.791 17.7909 151 20 151H197C199.209 151 201 152.791 201 155V227C201 229.209 199.209 231 197 231H20C17.7909 231 16 229.209 16 227V155Z" fill="#DCDCDC"/>
<path d="M16 155C16 152.791 17.7909 151 20 151H197C199.209 151 201 152.791 201 155V227C201 229.209 199.209 231 197 231H20C17.7909 231 16 229.209 16 227V155Z" fill="#DCDCDC"/>
<path d="M16 303C16 300.791 17.7909 299 20 299H130C132.209 299 134 300.791 134 303V307C134 309.209 132.209 311 130 311H20C17.7909 311 16 309.209 16 307V303Z" fill="#DCDCDC"/>
<path d="M150 303C150 300.791 151.791 299 154 299H264C266.209 299 268 300.791 268 303V307C268 309.209 266.209 311 264 311H154C151.791 311 150 309.209 150 307V303Z" fill="#DCDCDC"/>
<path d="M284 303C284 300.791 285.791 299 288 299H398C400.209 299 402 300.791 402 303V307C402 309.209 400.209 311 398 311H288C285.791 311 284 309.209 284 307V303Z" fill="#DCDCDC"/>
<path d="M16 323C16 320.791 17.7909 319 20 319H130C132.209 319 134 320.791 134 323V327C134 329.209 132.209 331 130 331H20C17.7909 331 16 329.209 16 327V323Z" fill="#DCDCDC"/>
<path d="M150 323C150 320.791 151.791 319 154 319H264C266.209 319 268 320.791 268 323V327C268 329.209 266.209 331 264 331H154C151.791 331 150 329.209 150 327V323Z" fill="#DCDCDC"/>
<path d="M284 323C284 320.791 285.791 319 288 319H398C400.209 319 402 320.791 402 323V327C402 329.209 400.209 331 398 331H288C285.791 331 284 329.209 284 327V323Z" fill="#DCDCDC"/>
<path d="M16 343C16 340.791 17.7909 339 20 339H130C132.209 339 134 340.791 134 343V347C134 349.209 132.209 351 130 351H20C17.7909 351 16 349.209 16 347V343Z" fill="#DCDCDC"/>
<path d="M150 343C150 340.791 151.791 339 154 339H264C266.209 339 268 340.791 268 343V347C268 349.209 266.209 351 264 351H154C151.791 351 150 349.209 150 347V343Z" fill="#DCDCDC"/>
<path d="M284 343C284 340.791 285.791 339 288 339H398C400.209 339 402 340.791 402 343V347C402 349.209 400.209 351 398 351H288C285.791 351 284 349.209 284 347V343Z" fill="#DCDCDC"/>
<path d="M217 155C217 152.791 218.791 151 221 151H398C400.209 151 402 152.791 402 155V227C402 229.209 400.209 231 398 231H221C218.791 231 217 229.209 217 227V155Z" fill="#DCDCDC"/>
</svg>
