<svg width="418" height="390" viewBox="0 0 418 390" fill="none" xmlns="http://www.w3.org/2000/svg">
<rect width="418" height="390" fill="white"/>
<path d="M17.312 34V22.832H19.424V32.128H23.824V34H17.312ZM28.6835 34.192C28.0862 34.192 27.5475 34.0907 27.0675 33.888C26.5982 33.6853 26.1928 33.392 25.8515 33.008C25.5208 32.624 25.2648 32.1653 25.0835 31.632C24.9022 31.088 24.8115 30.48 24.8115 29.808C24.8115 29.136 24.9022 28.5333 25.0835 28C25.2648 27.4667 25.5208 27.0133 25.8515 26.64C26.1928 26.256 26.5982 25.9627 27.0675 25.76C27.5475 25.5573 28.0862 25.456 28.6835 25.456C29.2808 25.456 29.8195 25.5573 30.2995 25.76C30.7795 25.9627 31.1848 26.256 31.5155 26.64C31.8568 27.0133 32.1182 27.4667 32.2995 28C32.4808 28.5333 32.5715 29.136 32.5715 29.808C32.5715 30.48 32.4808 31.088 32.2995 31.632C32.1182 32.1653 31.8568 32.624 31.5155 33.008C31.1848 33.392 30.7795 33.6853 30.2995 33.888C29.8195 34.0907 29.2808 34.192 28.6835 34.192ZM28.6835 32.544C29.2275 32.544 29.6542 32.3787 29.9635 32.048C30.2728 31.7173 30.4275 31.232 30.4275 30.592V29.04C30.4275 28.4107 30.2728 27.9307 29.9635 27.6C29.6542 27.2693 29.2275 27.104 28.6835 27.104C28.1502 27.104 27.7288 27.2693 27.4195 27.6C27.1102 27.9307 26.9555 28.4107 26.9555 29.04V30.592C26.9555 31.232 27.1102 31.7173 27.4195 32.048C27.7288 32.3787 28.1502 32.544 28.6835 32.544ZM34.3871 34V25.648H36.4351V27.376H36.5151C36.5685 27.152 36.6485 26.9387 36.7551 26.736C36.8725 26.5227 37.0218 26.336 37.2031 26.176C37.3845 26.016 37.5978 25.888 37.8431 25.792C38.0991 25.696 38.3925 25.648 38.7231 25.648H39.1711V27.584H38.5311C37.8378 27.584 37.3151 27.6853 36.9631 27.888C36.6111 28.0907 36.4351 28.4213 36.4351 28.88V34H34.3871ZM43.9663 34.192C43.3476 34.192 42.7929 34.0907 42.3023 33.888C41.8223 33.6747 41.4116 33.3813 41.0703 33.008C40.7396 32.624 40.4836 32.1653 40.3023 31.632C40.1209 31.088 40.0303 30.48 40.0303 29.808C40.0303 29.1467 40.1156 28.5493 40.2863 28.016C40.4676 27.4827 40.7236 27.0293 41.0543 26.656C41.3849 26.272 41.7903 25.9787 42.2703 25.776C42.7503 25.5627 43.2943 25.456 43.9023 25.456C44.5529 25.456 45.1183 25.568 45.5983 25.792C46.0783 26.016 46.4729 26.32 46.7823 26.704C47.0916 27.088 47.3209 27.536 47.4703 28.048C47.6303 28.5493 47.7103 29.088 47.7103 29.664V30.336H42.1583V30.544C42.1583 31.152 42.3289 31.6427 42.6703 32.016C43.0116 32.3787 43.5183 32.56 44.1903 32.56C44.7023 32.56 45.1183 32.4533 45.4383 32.24C45.7689 32.0267 46.0623 31.7547 46.3183 31.424L47.4223 32.656C47.0809 33.136 46.6116 33.5147 46.0143 33.792C45.4276 34.0587 44.7449 34.192 43.9663 34.192ZM43.9343 26.992C43.3903 26.992 42.9583 27.1733 42.6383 27.536C42.3183 27.8987 42.1583 28.368 42.1583 28.944V29.072H45.5823V28.928C45.5823 28.352 45.4383 27.888 45.1503 27.536C44.8729 27.1733 44.4676 26.992 43.9343 26.992ZM49.5121 34V25.648H51.5601V27.04H51.6401C51.8001 26.6027 52.0561 26.2293 52.4081 25.92C52.7601 25.6107 53.2508 25.456 53.8801 25.456C54.4561 25.456 54.9521 25.5947 55.3681 25.872C55.7841 26.1493 56.0935 26.5707 56.2961 27.136H56.3281C56.4775 26.6667 56.7708 26.272 57.2081 25.952C57.6561 25.6213 58.2161 25.456 58.8881 25.456C59.7095 25.456 60.3388 25.7387 60.7761 26.304C61.2241 26.8693 61.4481 27.6747 61.4481 28.72V34H59.4001V28.928C59.4001 27.7333 58.9521 27.136 58.0561 27.136C57.8535 27.136 57.6561 27.168 57.4641 27.232C57.2828 27.2853 57.1175 27.3707 56.9681 27.488C56.8295 27.5947 56.7175 27.7333 56.6321 27.904C56.5468 28.064 56.5041 28.256 56.5041 28.48V34H54.4561V28.928C54.4561 27.7333 54.0081 27.136 53.1121 27.136C52.9201 27.136 52.7281 27.168 52.5361 27.232C52.3548 27.2853 52.1895 27.3707 52.0401 27.488C51.9015 27.5947 51.7841 27.7333 51.6881 27.904C51.6028 28.064 51.5601 28.256 51.5601 28.48V34H49.5121ZM68.5205 24.432C68.0938 24.432 67.7845 24.336 67.5925 24.144C67.4112 23.952 67.3205 23.7067 67.3205 23.408V23.088C67.3205 22.7893 67.4112 22.544 67.5925 22.352C67.7845 22.16 68.0938 22.064 68.5205 22.064C68.9365 22.064 69.2405 22.16 69.4325 22.352C69.6245 22.544 69.7205 22.7893 69.7205 23.088V23.408C69.7205 23.7067 69.6245 23.952 69.4325 24.144C69.2405 24.336 68.9365 24.432 68.5205 24.432ZM67.4965 25.648H69.5445V34H67.4965V25.648ZM71.9184 25.648H73.9664V27.024H74.0304C74.1797 26.544 74.4624 26.1653 74.8784 25.888C75.2944 25.6 75.7797 25.456 76.3344 25.456C77.401 25.456 78.2117 25.8347 78.7664 26.592C79.3317 27.3387 79.6144 28.4107 79.6144 29.808C79.6144 31.216 79.3317 32.2987 78.7664 33.056C78.2117 33.8133 77.401 34.192 76.3344 34.192C75.7797 34.192 75.2944 34.048 74.8784 33.76C74.473 33.472 74.1904 33.088 74.0304 32.608H73.9664V37.2H71.9184V25.648ZM75.6784 32.496C76.2117 32.496 76.6437 32.32 76.9744 31.968C77.305 31.616 77.4704 31.1413 77.4704 30.544V29.104C77.4704 28.5067 77.305 28.032 76.9744 27.68C76.6437 27.3173 76.2117 27.136 75.6784 27.136C75.1877 27.136 74.777 27.2587 74.4464 27.504C74.1264 27.7493 73.9664 28.0747 73.9664 28.48V31.136C73.9664 31.5733 74.1264 31.9093 74.4464 32.144C74.777 32.3787 75.1877 32.496 75.6784 32.496ZM84.2481 34.192C83.4481 34.192 82.7761 34.0587 82.2321 33.792C81.6881 33.5147 81.2081 33.136 80.7921 32.656L82.0401 31.44C82.3495 31.792 82.6855 32.0693 83.0481 32.272C83.4215 32.4747 83.8481 32.576 84.3281 32.576C84.8188 32.576 85.1708 32.4907 85.3841 32.32C85.6081 32.1493 85.7201 31.9147 85.7201 31.616C85.7201 31.3707 85.6401 31.1787 85.4801 31.04C85.3308 30.8907 85.0695 30.7893 84.6961 30.736L83.8641 30.624C82.9575 30.5067 82.2641 30.2507 81.7841 29.856C81.3148 29.4507 81.0801 28.864 81.0801 28.096C81.0801 27.6907 81.1548 27.328 81.3041 27.008C81.4535 26.6773 81.6668 26.4 81.9441 26.176C82.2215 25.9413 82.5521 25.7653 82.9361 25.648C83.3308 25.52 83.7681 25.456 84.2481 25.456C84.6535 25.456 85.0108 25.488 85.3201 25.552C85.6401 25.6053 85.9281 25.6907 86.1841 25.808C86.4401 25.9147 86.6748 26.0533 86.8881 26.224C87.1015 26.384 87.3095 26.5653 87.5121 26.768L86.3121 27.968C86.0668 27.712 85.7735 27.4987 85.4321 27.328C85.0908 27.1573 84.7175 27.072 84.3121 27.072C83.8641 27.072 83.5388 27.152 83.3361 27.312C83.1441 27.472 83.0481 27.68 83.0481 27.936C83.0481 28.2133 83.1281 28.4267 83.2881 28.576C83.4588 28.7147 83.7415 28.816 84.1361 28.88L84.9841 28.992C86.7868 29.248 87.6881 30.0693 87.6881 31.456C87.6881 31.8613 87.6028 32.2347 87.4321 32.576C87.2721 32.9067 87.0428 33.1947 86.7441 33.44C86.4455 33.6747 86.0828 33.8613 85.6561 34C85.2401 34.128 84.7708 34.192 84.2481 34.192ZM94.4885 32.608H94.4085C94.3338 32.8213 94.2325 33.024 94.1045 33.216C93.9872 33.3973 93.8325 33.5627 93.6405 33.712C93.4592 33.8613 93.2352 33.9787 92.9685 34.064C92.7125 34.1493 92.4138 34.192 92.0725 34.192C91.2085 34.192 90.5472 33.9093 90.0885 33.344C89.6298 32.7787 89.4005 31.9733 89.4005 30.928V25.648H91.4485V30.72C91.4485 31.296 91.5605 31.7387 91.7845 32.048C92.0085 32.3467 92.3658 32.496 92.8565 32.496C93.0592 32.496 93.2565 32.4693 93.4485 32.416C93.6512 32.3627 93.8272 32.2827 93.9765 32.176C94.1258 32.0587 94.2485 31.92 94.3445 31.76C94.4405 31.5893 94.4885 31.392 94.4885 31.168V25.648H96.5365V34H94.4885V32.608ZM98.9028 34V25.648H100.951V27.04H101.031C101.191 26.6027 101.447 26.2293 101.799 25.92C102.151 25.6107 102.641 25.456 103.271 25.456C103.847 25.456 104.343 25.5947 104.759 25.872C105.175 26.1493 105.484 26.5707 105.687 27.136H105.719C105.868 26.6667 106.161 26.272 106.599 25.952C107.047 25.6213 107.607 25.456 108.279 25.456C109.1 25.456 109.729 25.7387 110.167 26.304C110.615 26.8693 110.839 27.6747 110.839 28.72V34H108.791V28.928C108.791 27.7333 108.343 27.136 107.447 27.136C107.244 27.136 107.047 27.168 106.855 27.232C106.673 27.2853 106.508 27.3707 106.359 27.488C106.22 27.5947 106.108 27.7333 106.023 27.904C105.937 28.064 105.895 28.256 105.895 28.48V34H103.847V28.928C103.847 27.7333 103.399 27.136 102.503 27.136C102.311 27.136 102.119 27.168 101.927 27.232C101.745 27.2853 101.58 27.3707 101.431 27.488C101.292 27.5947 101.175 27.7333 101.079 27.904C100.993 28.064 100.951 28.256 100.951 28.48V34H98.9028ZM122.071 32.608H121.991C121.842 33.088 121.559 33.472 121.143 33.76C120.727 34.048 120.242 34.192 119.687 34.192C118.631 34.192 117.82 33.8133 117.255 33.056C116.7 32.2987 116.423 31.216 116.423 29.808C116.423 28.4107 116.7 27.3387 117.255 26.592C117.82 25.8347 118.631 25.456 119.687 25.456C120.242 25.456 120.727 25.6 121.143 25.888C121.559 26.1653 121.842 26.544 121.991 27.024H122.071V22.16H124.119V34H122.071V32.608ZM120.343 32.496C120.834 32.496 121.244 32.3787 121.575 32.144C121.906 31.9093 122.071 31.5733 122.071 31.136V28.48C122.071 28.0747 121.906 27.7493 121.575 27.504C121.244 27.2587 120.834 27.136 120.343 27.136C119.81 27.136 119.378 27.3173 119.047 27.68C118.727 28.032 118.567 28.5067 118.567 29.104V30.544C118.567 31.1413 118.727 31.616 119.047 31.968C119.378 32.32 119.81 32.496 120.343 32.496ZM129.793 34.192C129.196 34.192 128.657 34.0907 128.177 33.888C127.708 33.6853 127.302 33.392 126.961 33.008C126.63 32.624 126.374 32.1653 126.193 31.632C126.012 31.088 125.921 30.48 125.921 29.808C125.921 29.136 126.012 28.5333 126.193 28C126.374 27.4667 126.63 27.0133 126.961 26.64C127.302 26.256 127.708 25.9627 128.177 25.76C128.657 25.5573 129.196 25.456 129.793 25.456C130.39 25.456 130.929 25.5573 131.409 25.76C131.889 25.9627 132.294 26.256 132.625 26.64C132.966 27.0133 133.228 27.4667 133.409 28C133.59 28.5333 133.681 29.136 133.681 29.808C133.681 30.48 133.59 31.088 133.409 31.632C133.228 32.1653 132.966 32.624 132.625 33.008C132.294 33.392 131.889 33.6853 131.409 33.888C130.929 34.0907 130.39 34.192 129.793 34.192ZM129.793 32.544C130.337 32.544 130.764 32.3787 131.073 32.048C131.382 31.7173 131.537 31.232 131.537 30.592V29.04C131.537 28.4107 131.382 27.9307 131.073 27.6C130.764 27.2693 130.337 27.104 129.793 27.104C129.26 27.104 128.838 27.2693 128.529 27.6C128.22 27.9307 128.065 28.4107 128.065 29.04V30.592C128.065 31.232 128.22 31.7173 128.529 32.048C128.838 32.3787 129.26 32.544 129.793 32.544ZM137.545 34C136.841 34 136.323 33.824 135.993 33.472C135.662 33.12 135.497 32.624 135.497 31.984V22.16H137.545V32.368H138.649V34H137.545ZM143.512 34.192C142.914 34.192 142.376 34.0907 141.896 33.888C141.426 33.6853 141.021 33.392 140.68 33.008C140.349 32.624 140.093 32.1653 139.912 31.632C139.73 31.088 139.64 30.48 139.64 29.808C139.64 29.136 139.73 28.5333 139.912 28C140.093 27.4667 140.349 27.0133 140.68 26.64C141.021 26.256 141.426 25.9627 141.896 25.76C142.376 25.5573 142.914 25.456 143.512 25.456C144.109 25.456 144.648 25.5573 145.128 25.76C145.608 25.9627 146.013 26.256 146.344 26.64C146.685 27.0133 146.946 27.4667 147.128 28C147.309 28.5333 147.4 29.136 147.4 29.808C147.4 30.48 147.309 31.088 147.128 31.632C146.946 32.1653 146.685 32.624 146.344 33.008C146.013 33.392 145.608 33.6853 145.128 33.888C144.648 34.0907 144.109 34.192 143.512 34.192ZM143.512 32.544C144.056 32.544 144.482 32.3787 144.792 32.048C145.101 31.7173 145.256 31.232 145.256 30.592V29.04C145.256 28.4107 145.101 27.9307 144.792 27.6C144.482 27.2693 144.056 27.104 143.512 27.104C142.978 27.104 142.557 27.2693 142.248 27.6C141.938 27.9307 141.784 28.4107 141.784 29.04V30.592C141.784 31.232 141.938 31.7173 142.248 32.048C142.557 32.3787 142.978 32.544 143.512 32.544ZM149.215 34V25.648H151.263V27.376H151.343C151.397 27.152 151.477 26.9387 151.583 26.736C151.701 26.5227 151.85 26.336 152.031 26.176C152.213 26.016 152.426 25.888 152.671 25.792C152.927 25.696 153.221 25.648 153.551 25.648H153.999V27.584H153.359C152.666 27.584 152.143 27.6853 151.791 27.888C151.439 28.0907 151.263 28.4213 151.263 28.88V34H149.215ZM162.014 34.192C161.214 34.192 160.542 34.0587 159.998 33.792C159.454 33.5147 158.974 33.136 158.558 32.656L159.806 31.44C160.115 31.792 160.451 32.0693 160.814 32.272C161.187 32.4747 161.614 32.576 162.094 32.576C162.584 32.576 162.936 32.4907 163.15 32.32C163.374 32.1493 163.486 31.9147 163.486 31.616C163.486 31.3707 163.406 31.1787 163.246 31.04C163.096 30.8907 162.835 30.7893 162.462 30.736L161.63 30.624C160.723 30.5067 160.03 30.2507 159.55 29.856C159.08 29.4507 158.846 28.864 158.846 28.096C158.846 27.6907 158.92 27.328 159.07 27.008C159.219 26.6773 159.432 26.4 159.71 26.176C159.987 25.9413 160.318 25.7653 160.702 25.648C161.096 25.52 161.534 25.456 162.014 25.456C162.419 25.456 162.776 25.488 163.086 25.552C163.406 25.6053 163.694 25.6907 163.95 25.808C164.206 25.9147 164.44 26.0533 164.654 26.224C164.867 26.384 165.075 26.5653 165.278 26.768L164.078 27.968C163.832 27.712 163.539 27.4987 163.198 27.328C162.856 27.1573 162.483 27.072 162.078 27.072C161.63 27.072 161.304 27.152 161.102 27.312C160.91 27.472 160.814 27.68 160.814 27.936C160.814 28.2133 160.894 28.4267 161.054 28.576C161.224 28.7147 161.507 28.816 161.902 28.88L162.75 28.992C164.552 29.248 165.454 30.0693 165.454 31.456C165.454 31.8613 165.368 32.2347 165.198 32.576C165.038 32.9067 164.808 33.1947 164.51 33.44C164.211 33.6747 163.848 33.8613 163.422 34C163.006 34.128 162.536 34.192 162.014 34.192ZM168.286 24.432C167.859 24.432 167.55 24.336 167.358 24.144C167.177 23.952 167.086 23.7067 167.086 23.408V23.088C167.086 22.7893 167.177 22.544 167.358 22.352C167.55 22.16 167.859 22.064 168.286 22.064C168.702 22.064 169.006 22.16 169.198 22.352C169.39 22.544 169.486 22.7893 169.486 23.088V23.408C169.486 23.7067 169.39 23.952 169.198 24.144C169.006 24.336 168.702 24.432 168.286 24.432ZM167.262 25.648H169.31V34H167.262V25.648ZM174.292 34C173.588 34 173.049 33.8187 172.676 33.456C172.313 33.0827 172.132 32.5547 172.132 31.872V27.28H170.9V25.648H171.54C171.849 25.648 172.057 25.5787 172.164 25.44C172.281 25.2907 172.34 25.072 172.34 24.784V23.36H174.18V25.648H175.892V27.28H174.18V32.368H175.764V34H174.292ZM187.594 34C187.146 34 186.788 33.872 186.522 33.616C186.266 33.3493 186.106 32.9973 186.042 32.56H185.946C185.807 33.104 185.524 33.5147 185.098 33.792C184.671 34.0587 184.143 34.192 183.514 34.192C182.66 34.192 182.004 33.968 181.546 33.52C181.087 33.072 180.858 32.4747 180.858 31.728C180.858 30.864 181.167 30.224 181.786 29.808C182.404 29.3813 183.284 29.168 184.426 29.168H185.85V28.56C185.85 28.0907 185.727 27.728 185.482 27.472C185.236 27.216 184.842 27.088 184.298 27.088C183.818 27.088 183.428 27.1947 183.13 27.408C182.842 27.6107 182.596 27.856 182.394 28.144L181.178 27.056C181.487 26.576 181.898 26.192 182.41 25.904C182.922 25.6053 183.599 25.456 184.442 25.456C185.572 25.456 186.431 25.712 187.018 26.224C187.604 26.736 187.898 27.472 187.898 28.432V32.368H188.73V34H187.594ZM184.202 32.704C184.66 32.704 185.05 32.6027 185.37 32.4C185.69 32.1973 185.85 31.8987 185.85 31.504V30.4H184.538C183.471 30.4 182.938 30.7413 182.938 31.424V31.696C182.938 32.0373 183.044 32.2933 183.258 32.464C183.482 32.624 183.796 32.704 184.202 32.704ZM190.387 34V25.648H192.435V27.04H192.515C192.675 26.6027 192.931 26.2293 193.283 25.92C193.635 25.6107 194.126 25.456 194.755 25.456C195.331 25.456 195.827 25.5947 196.243 25.872C196.659 26.1493 196.968 26.5707 197.171 27.136H197.203C197.352 26.6667 197.646 26.272 198.083 25.952C198.531 25.6213 199.091 25.456 199.763 25.456C200.584 25.456 201.214 25.7387 201.651 26.304C202.099 26.8693 202.323 27.6747 202.323 28.72V34H200.275V28.928C200.275 27.7333 199.827 27.136 198.931 27.136C198.728 27.136 198.531 27.168 198.339 27.232C198.158 27.2853 197.992 27.3707 197.843 27.488C197.704 27.5947 197.592 27.7333 197.507 27.904C197.422 28.064 197.379 28.256 197.379 28.48V34H195.331V28.928C195.331 27.7333 194.883 27.136 193.987 27.136C193.795 27.136 193.603 27.168 193.411 27.232C193.23 27.2853 193.064 27.3707 192.915 27.488C192.776 27.5947 192.659 27.7333 192.563 27.904C192.478 28.064 192.435 28.256 192.435 28.48V34H190.387ZM207.966 34.192C207.348 34.192 206.793 34.0907 206.302 33.888C205.822 33.6747 205.412 33.3813 205.07 33.008C204.74 32.624 204.484 32.1653 204.302 31.632C204.121 31.088 204.03 30.48 204.03 29.808C204.03 29.1467 204.116 28.5493 204.286 28.016C204.468 27.4827 204.724 27.0293 205.054 26.656C205.385 26.272 205.79 25.9787 206.27 25.776C206.75 25.5627 207.294 25.456 207.902 25.456C208.553 25.456 209.118 25.568 209.598 25.792C210.078 26.016 210.473 26.32 210.782 26.704C211.092 27.088 211.321 27.536 211.47 28.048C211.63 28.5493 211.71 29.088 211.71 29.664V30.336H206.158V30.544C206.158 31.152 206.329 31.6427 206.67 32.016C207.012 32.3787 207.518 32.56 208.19 32.56C208.702 32.56 209.118 32.4533 209.438 32.24C209.769 32.0267 210.062 31.7547 210.318 31.424L211.422 32.656C211.081 33.136 210.612 33.5147 210.014 33.792C209.428 34.0587 208.745 34.192 207.966 34.192ZM207.934 26.992C207.39 26.992 206.958 27.1733 206.638 27.536C206.318 27.8987 206.158 28.368 206.158 28.944V29.072H209.582V28.928C209.582 28.352 209.438 27.888 209.15 27.536C208.873 27.1733 208.468 26.992 207.934 26.992ZM216.12 34C215.416 34 214.877 33.8187 214.504 33.456C214.141 33.0827 213.96 32.5547 213.96 31.872V27.28H212.728V25.648H213.368C213.677 25.648 213.885 25.5787 213.992 25.44C214.109 25.2907 214.168 25.072 214.168 24.784V23.36H216.008V25.648H217.72V27.28H216.008V32.368H217.592V34H216.12Z" fill="#1A1A1A"/>
<path d="M16.5 56C16.5 51.8579 19.8579 48.5 24 48.5H328C332.142 48.5 335.5 51.8579 335.5 56V80C335.5 84.1421 332.142 87.5 328 87.5H24C19.8579 87.5 16.5 84.1421 16.5 80V56Z" fill="white"/>
<path d="M16.5 56C16.5 51.8579 19.8579 48.5 24 48.5H328C332.142 48.5 335.5 51.8579 335.5 56V80C335.5 84.1421 332.142 87.5 328 87.5H24C19.8579 87.5 16.5 84.1421 16.5 80V56Z" stroke="#8E8E8E"/>
<mask id="path-3-inside-1_14279_21279" fill="white">
<path d="M36.032 74L32.32 62.832H33.76L35.6 68.464L36.832 72.656H36.912L38.176 68.464L40.032 62.832H41.424L37.664 74H36.032ZM45.4256 70.192C44.6896 70.2133 44.151 70.336 43.8096 70.56C43.479 70.7733 43.3136 71.0827 43.3136 71.488V71.824C43.3136 72.2293 43.4576 72.544 43.7456 72.768C44.0443 72.992 44.4496 73.104 44.9616 73.104C45.271 73.104 45.5536 73.0667 45.8096 72.992C46.0763 72.9173 46.3056 72.8107 46.4976 72.672C46.6896 72.5333 46.839 72.3733 46.9456 72.192C47.063 72.0107 47.1216 71.8133 47.1216 71.6V70.192H45.4256ZM52.9616 69.232V69.056C52.9616 68.32 52.759 67.7333 52.3536 67.296C51.959 66.848 51.431 66.624 50.7696 66.624C50.4176 66.624 50.0976 66.688 49.8096 66.816C49.5216 66.9333 49.271 67.104 49.0576 67.328C48.855 67.552 48.695 67.8187 48.5776 68.128C48.4603 68.4267 48.4016 68.7573 48.4016 69.12V69.232H52.9616ZM50.8496 73.072C51.9056 73.072 52.663 72.6027 53.1216 71.664L54.0336 72.304C53.767 72.88 53.3563 73.3387 52.8016 73.68C52.2576 74.0213 51.6283 74.192 50.9136 74.192C50.4763 74.192 50.0763 74.128 49.7136 74C49.3616 73.8827 49.0523 73.7333 48.7856 73.552C48.5296 73.36 48.3216 73.1573 48.1616 72.944C48.0016 72.72 47.9003 72.5173 47.8576 72.336H47.7616C47.7296 72.5173 47.6336 72.7147 47.4736 72.928C47.3243 73.1413 47.1216 73.344 46.8656 73.536C46.6096 73.7173 46.3003 73.872 45.9376 74C45.575 74.128 45.1643 74.192 44.7056 74.192C43.8736 74.192 43.207 73.9733 42.7056 73.536C42.215 73.088 41.9696 72.4853 41.9696 71.728C41.9696 70.928 42.263 70.3147 42.8496 69.888C43.4363 69.4507 44.3163 69.232 45.4896 69.232H47.1216V68.464C47.1216 67.8773 46.9616 67.4293 46.6416 67.12C46.3216 66.8107 45.847 66.656 45.2176 66.656C44.6843 66.656 44.2523 66.7627 43.9216 66.976C43.591 67.1893 43.3083 67.488 43.0736 67.872L42.3056 67.168C42.519 66.7307 42.871 66.352 43.3616 66.032C43.863 65.712 44.4923 65.552 45.2496 65.552C45.719 65.552 46.1083 65.6213 46.4176 65.76C46.7376 65.888 46.9936 66.048 47.1856 66.24C47.3883 66.4213 47.5376 66.6187 47.6336 66.832C47.7296 67.0453 47.799 67.232 47.8416 67.392H47.9376C47.9803 67.2107 48.0816 67.0133 48.2416 66.8C48.4016 66.5867 48.6096 66.3893 48.8656 66.208C49.1216 66.016 49.4203 65.8613 49.7616 65.744C50.1136 65.616 50.4976 65.552 50.9136 65.552C51.4363 65.552 51.9056 65.6533 52.3216 65.856C52.7483 66.0587 53.111 66.3413 53.4096 66.704C53.7083 67.056 53.9376 67.4773 54.0976 67.968C54.2576 68.4587 54.3376 68.9973 54.3376 69.584V70.192H48.4016V70.576C48.4016 70.928 48.455 71.2587 48.5616 71.568C48.679 71.8667 48.839 72.128 49.0416 72.352C49.255 72.576 49.511 72.752 49.8096 72.88C50.119 73.008 50.4656 73.072 50.8496 73.072ZM57.8138 74C57.3658 74 57.0244 73.8773 56.7898 73.632C56.5658 73.376 56.4538 73.056 56.4538 72.672V62.16H57.7338V72.88H58.9498V74H57.8138ZM67.7731 74.912C67.7731 75.7653 67.4371 76.3893 66.7651 76.784C66.1038 77.1893 65.1065 77.392 63.7731 77.392C62.4825 77.392 61.5545 77.216 60.9891 76.864C60.4238 76.512 60.1411 76.0107 60.1411 75.36C60.1411 74.912 60.2585 74.56 60.4931 74.304C60.7278 74.0587 61.0478 73.8773 61.4531 73.76V73.584C60.9625 73.3493 60.7171 72.9653 60.7171 72.432C60.7171 72.016 60.8505 71.7013 61.1171 71.488C61.3838 71.264 61.7251 71.0987 62.1411 70.992V70.928C61.6505 70.6933 61.2665 70.3573 60.9891 69.92C60.7225 69.4827 60.5891 68.976 60.5891 68.4C60.5891 67.984 60.6638 67.6 60.8131 67.248C60.9625 66.896 61.1705 66.5973 61.4371 66.352C61.7145 66.096 62.0398 65.8987 62.4131 65.76C62.7971 65.6213 63.2238 65.552 63.6931 65.552C64.2798 65.552 64.8025 65.6587 65.2611 65.872V65.728C65.2611 65.408 65.3358 65.1467 65.4851 64.944C65.6345 64.7307 65.8798 64.624 66.2211 64.624H67.4531V65.744H65.8851V66.272C66.1838 66.528 66.4131 66.8373 66.5731 67.2C66.7438 67.552 66.8291 67.952 66.8291 68.4C66.8291 68.816 66.7545 69.2 66.6051 69.552C66.4558 69.904 66.2425 70.208 65.9651 70.464C65.6985 70.7093 65.3731 70.9013 64.9891 71.04C64.6051 71.1787 64.1785 71.248 63.7091 71.248C63.4425 71.248 63.1758 71.2213 62.9091 71.168C62.6318 71.2427 62.3811 71.3547 62.1571 71.504C61.9331 71.6427 61.8211 71.84 61.8211 72.096C61.8211 72.3413 61.9385 72.5067 62.1731 72.592C62.4078 72.6773 62.7118 72.72 63.0851 72.72H64.8451C65.8691 72.72 66.6105 72.9173 67.0691 73.312C67.5385 73.696 67.7731 74.2293 67.7731 74.912ZM66.5731 75.008C66.5731 74.6773 66.4451 74.4107 66.1891 74.208C65.9438 74.016 65.5011 73.92 64.8611 73.92H62.1091C61.5971 74.1547 61.3411 74.528 61.3411 75.04C61.3411 75.4027 61.4745 75.712 61.7411 75.968C62.0185 76.224 62.4825 76.352 63.1331 76.352H64.3171C65.0318 76.352 65.5865 76.24 65.9811 76.016C66.3758 75.792 66.5731 75.456 66.5731 75.008ZM63.7091 70.224C64.2531 70.224 64.6851 70.096 65.0051 69.84C65.3251 69.5733 65.4851 69.168 65.4851 68.624V68.176C65.4851 67.632 65.3251 67.232 65.0051 66.976C64.6851 66.7093 64.2531 66.576 63.7091 66.576C63.1651 66.576 62.7331 66.7093 62.4131 66.976C62.0931 67.232 61.9331 67.632 61.9331 68.176V68.624C61.9331 69.168 62.0931 69.5733 62.4131 69.84C62.7331 70.096 63.1651 70.224 63.7091 70.224Z"/>
</mask>
<path d="M36.032 74L32.32 62.832H33.76L35.6 68.464L36.832 72.656H36.912L38.176 68.464L40.032 62.832H41.424L37.664 74H36.032ZM45.4256 70.192C44.6896 70.2133 44.151 70.336 43.8096 70.56C43.479 70.7733 43.3136 71.0827 43.3136 71.488V71.824C43.3136 72.2293 43.4576 72.544 43.7456 72.768C44.0443 72.992 44.4496 73.104 44.9616 73.104C45.271 73.104 45.5536 73.0667 45.8096 72.992C46.0763 72.9173 46.3056 72.8107 46.4976 72.672C46.6896 72.5333 46.839 72.3733 46.9456 72.192C47.063 72.0107 47.1216 71.8133 47.1216 71.6V70.192H45.4256ZM52.9616 69.232V69.056C52.9616 68.32 52.759 67.7333 52.3536 67.296C51.959 66.848 51.431 66.624 50.7696 66.624C50.4176 66.624 50.0976 66.688 49.8096 66.816C49.5216 66.9333 49.271 67.104 49.0576 67.328C48.855 67.552 48.695 67.8187 48.5776 68.128C48.4603 68.4267 48.4016 68.7573 48.4016 69.12V69.232H52.9616ZM50.8496 73.072C51.9056 73.072 52.663 72.6027 53.1216 71.664L54.0336 72.304C53.767 72.88 53.3563 73.3387 52.8016 73.68C52.2576 74.0213 51.6283 74.192 50.9136 74.192C50.4763 74.192 50.0763 74.128 49.7136 74C49.3616 73.8827 49.0523 73.7333 48.7856 73.552C48.5296 73.36 48.3216 73.1573 48.1616 72.944C48.0016 72.72 47.9003 72.5173 47.8576 72.336H47.7616C47.7296 72.5173 47.6336 72.7147 47.4736 72.928C47.3243 73.1413 47.1216 73.344 46.8656 73.536C46.6096 73.7173 46.3003 73.872 45.9376 74C45.575 74.128 45.1643 74.192 44.7056 74.192C43.8736 74.192 43.207 73.9733 42.7056 73.536C42.215 73.088 41.9696 72.4853 41.9696 71.728C41.9696 70.928 42.263 70.3147 42.8496 69.888C43.4363 69.4507 44.3163 69.232 45.4896 69.232H47.1216V68.464C47.1216 67.8773 46.9616 67.4293 46.6416 67.12C46.3216 66.8107 45.847 66.656 45.2176 66.656C44.6843 66.656 44.2523 66.7627 43.9216 66.976C43.591 67.1893 43.3083 67.488 43.0736 67.872L42.3056 67.168C42.519 66.7307 42.871 66.352 43.3616 66.032C43.863 65.712 44.4923 65.552 45.2496 65.552C45.719 65.552 46.1083 65.6213 46.4176 65.76C46.7376 65.888 46.9936 66.048 47.1856 66.24C47.3883 66.4213 47.5376 66.6187 47.6336 66.832C47.7296 67.0453 47.799 67.232 47.8416 67.392H47.9376C47.9803 67.2107 48.0816 67.0133 48.2416 66.8C48.4016 66.5867 48.6096 66.3893 48.8656 66.208C49.1216 66.016 49.4203 65.8613 49.7616 65.744C50.1136 65.616 50.4976 65.552 50.9136 65.552C51.4363 65.552 51.9056 65.6533 52.3216 65.856C52.7483 66.0587 53.111 66.3413 53.4096 66.704C53.7083 67.056 53.9376 67.4773 54.0976 67.968C54.2576 68.4587 54.3376 68.9973 54.3376 69.584V70.192H48.4016V70.576C48.4016 70.928 48.455 71.2587 48.5616 71.568C48.679 71.8667 48.839 72.128 49.0416 72.352C49.255 72.576 49.511 72.752 49.8096 72.88C50.119 73.008 50.4656 73.072 50.8496 73.072ZM57.8138 74C57.3658 74 57.0244 73.8773 56.7898 73.632C56.5658 73.376 56.4538 73.056 56.4538 72.672V62.16H57.7338V72.88H58.9498V74H57.8138ZM67.7731 74.912C67.7731 75.7653 67.4371 76.3893 66.7651 76.784C66.1038 77.1893 65.1065 77.392 63.7731 77.392C62.4825 77.392 61.5545 77.216 60.9891 76.864C60.4238 76.512 60.1411 76.0107 60.1411 75.36C60.1411 74.912 60.2585 74.56 60.4931 74.304C60.7278 74.0587 61.0478 73.8773 61.4531 73.76V73.584C60.9625 73.3493 60.7171 72.9653 60.7171 72.432C60.7171 72.016 60.8505 71.7013 61.1171 71.488C61.3838 71.264 61.7251 71.0987 62.1411 70.992V70.928C61.6505 70.6933 61.2665 70.3573 60.9891 69.92C60.7225 69.4827 60.5891 68.976 60.5891 68.4C60.5891 67.984 60.6638 67.6 60.8131 67.248C60.9625 66.896 61.1705 66.5973 61.4371 66.352C61.7145 66.096 62.0398 65.8987 62.4131 65.76C62.7971 65.6213 63.2238 65.552 63.6931 65.552C64.2798 65.552 64.8025 65.6587 65.2611 65.872V65.728C65.2611 65.408 65.3358 65.1467 65.4851 64.944C65.6345 64.7307 65.8798 64.624 66.2211 64.624H67.4531V65.744H65.8851V66.272C66.1838 66.528 66.4131 66.8373 66.5731 67.2C66.7438 67.552 66.8291 67.952 66.8291 68.4C66.8291 68.816 66.7545 69.2 66.6051 69.552C66.4558 69.904 66.2425 70.208 65.9651 70.464C65.6985 70.7093 65.3731 70.9013 64.9891 71.04C64.6051 71.1787 64.1785 71.248 63.7091 71.248C63.4425 71.248 63.1758 71.2213 62.9091 71.168C62.6318 71.2427 62.3811 71.3547 62.1571 71.504C61.9331 71.6427 61.8211 71.84 61.8211 72.096C61.8211 72.3413 61.9385 72.5067 62.1731 72.592C62.4078 72.6773 62.7118 72.72 63.0851 72.72H64.8451C65.8691 72.72 66.6105 72.9173 67.0691 73.312C67.5385 73.696 67.7731 74.2293 67.7731 74.912ZM66.5731 75.008C66.5731 74.6773 66.4451 74.4107 66.1891 74.208C65.9438 74.016 65.5011 73.92 64.8611 73.92H62.1091C61.5971 74.1547 61.3411 74.528 61.3411 75.04C61.3411 75.4027 61.4745 75.712 61.7411 75.968C62.0185 76.224 62.4825 76.352 63.1331 76.352H64.3171C65.0318 76.352 65.5865 76.24 65.9811 76.016C66.3758 75.792 66.5731 75.456 66.5731 75.008ZM63.7091 70.224C64.2531 70.224 64.6851 70.096 65.0051 69.84C65.3251 69.5733 65.4851 69.168 65.4851 68.624V68.176C65.4851 67.632 65.3251 67.232 65.0051 66.976C64.6851 66.7093 64.2531 66.576 63.7091 66.576C63.1651 66.576 62.7331 66.7093 62.4131 66.976C62.0931 67.232 61.9331 67.632 61.9331 68.176V68.624C61.9331 69.168 62.0931 69.5733 62.4131 69.84C62.7331 70.096 63.1651 70.224 63.7091 70.224Z" fill="#1A1A1A"/>
<path d="M36.032 74L35.083 74.3154L35.3106 75H36.032V74ZM32.32 62.832V61.832H30.9338L31.371 63.1474L32.32 62.832ZM33.76 62.832L34.7106 62.5214L34.4853 61.832H33.76V62.832ZM35.6 68.464L36.5594 68.182L36.5552 68.1677L36.5506 68.1534L35.6 68.464ZM36.832 72.656L35.8726 72.938L36.0836 73.656H36.832V72.656ZM36.912 72.656V73.656H37.6549L37.8694 72.9447L36.912 72.656ZM38.176 68.464L37.2262 68.151L37.2223 68.1631L37.2186 68.1753L38.176 68.464ZM40.032 62.832V61.832H39.3086L39.0822 62.519L40.032 62.832ZM41.424 62.832L42.3717 63.1511L42.8158 61.832H41.424V62.832ZM37.664 74V75H38.3825L38.6117 74.3191L37.664 74ZM36.981 73.6846L33.269 62.5166L31.371 63.1474L35.083 74.3154L36.981 73.6846ZM32.32 63.832H33.76V61.832H32.32V63.832ZM32.8094 63.1426L34.6494 68.7746L36.5506 68.1534L34.7106 62.5214L32.8094 63.1426ZM34.6406 68.746L35.8726 72.938L37.7914 72.374L36.5594 68.182L34.6406 68.746ZM36.832 73.656H36.912V71.656H36.832V73.656ZM37.8694 72.9447L39.1334 68.7527L37.2186 68.1753L35.9546 72.3673L37.8694 72.9447ZM39.1258 68.777L40.9818 63.145L39.0822 62.519L37.2262 68.151L39.1258 68.777ZM40.032 63.832H41.424V61.832H40.032V63.832ZM40.4763 62.5129L36.7163 73.6809L38.6117 74.3191L42.3717 63.1511L40.4763 62.5129ZM37.664 73H36.032V75H37.664V73ZM45.4256 70.192V69.192H45.4111L45.3967 69.1924L45.4256 70.192ZM43.8096 70.56L44.3518 71.4003L44.3583 71.396L43.8096 70.56ZM43.7456 72.768L43.1317 73.5574L43.1386 73.5627L43.1456 73.568L43.7456 72.768ZM45.8096 72.992L45.54 72.029L45.5296 72.032L45.8096 72.992ZM46.4976 72.672L45.9121 71.8613L46.4976 72.672ZM46.9456 72.192L46.1061 71.6487L46.0945 71.6666L46.0837 71.685L46.9456 72.192ZM47.1216 70.192H48.1216V69.192H47.1216V70.192ZM52.9616 69.232V70.232H53.9616V69.232H52.9616ZM52.3536 67.296L51.6033 67.957L51.6116 67.9665L51.6202 67.9758L52.3536 67.296ZM49.8096 66.816L50.1869 67.7421L50.2014 67.7362L50.2158 67.7298L49.8096 66.816ZM49.0576 67.328L48.3335 66.6383L48.3247 66.6476L48.3161 66.6571L49.0576 67.328ZM48.5776 68.128L49.5084 68.4937L49.5126 68.4827L48.5776 68.128ZM48.4016 69.232H47.4016V70.232H48.4016V69.232ZM53.1216 71.664L53.6961 70.8454L52.7373 70.1727L52.2232 71.225L53.1216 71.664ZM54.0336 72.304L54.9411 72.7241L55.2923 71.9656L54.6081 71.4854L54.0336 72.304ZM52.8016 73.68L52.2775 72.8283L52.2701 72.8329L52.8016 73.68ZM49.7136 74L50.0464 73.057L50.0382 73.0541L50.0299 73.0513L49.7136 74ZM48.7856 73.552L48.1856 74.352L48.2042 74.3659L48.2233 74.3789L48.7856 73.552ZM48.1616 72.944L47.3479 73.5252L47.3546 73.5347L47.3616 73.544L48.1616 72.944ZM47.8576 72.336L48.831 72.107L48.6496 71.336H47.8576V72.336ZM47.7616 72.336V71.336H46.9226L46.7768 72.1622L47.7616 72.336ZM47.4736 72.928L46.6736 72.328L46.6638 72.3411L46.6544 72.3545L47.4736 72.928ZM46.8656 73.536L47.4436 74.352L47.4547 74.3442L47.4656 74.336L46.8656 73.536ZM45.9376 74L46.2704 74.943V74.943L45.9376 74ZM42.7056 73.536L42.0314 74.2745L42.0397 74.2821L42.0483 74.2896L42.7056 73.536ZM42.8496 69.888L43.4378 70.6968L43.4473 70.6897L42.8496 69.888ZM47.1216 69.232V70.232H48.1216V69.232H47.1216ZM46.6416 67.12L45.9466 67.839H45.9466L46.6416 67.12ZM43.9216 66.976L44.4638 67.8163L43.9216 66.976ZM43.0736 67.872L42.3979 68.6092L43.2934 69.4301L43.9269 68.3934L43.0736 67.872ZM42.3056 67.168L41.4069 66.7296L41.0795 67.4006L41.6299 67.9052L42.3056 67.168ZM43.3616 66.032L42.8236 65.189L42.8154 65.1944L43.3616 66.032ZM46.4176 65.76L46.0086 66.6725L46.0272 66.6809L46.0462 66.6885L46.4176 65.76ZM47.1856 66.24L46.4785 66.9471L46.4981 66.9667L46.5188 66.9852L47.1856 66.24ZM47.6336 66.832L48.5455 66.4216L47.6336 66.832ZM47.8416 67.392L46.8754 67.6497L47.0733 68.392H47.8416V67.392ZM47.9376 67.392V68.392H48.7296L48.911 67.621L47.9376 67.392ZM48.2416 66.8L47.4416 66.2L47.4416 66.2L48.2416 66.8ZM48.8656 66.208L49.4436 67.024L49.4547 67.0162L49.4656 67.008L48.8656 66.208ZM49.7616 65.744L50.0867 66.6897L50.0951 66.6868L50.1034 66.6838L49.7616 65.744ZM52.3216 65.856L51.8836 66.755L51.8926 66.7593L52.3216 65.856ZM53.4096 66.704L52.6377 67.3397L52.6424 67.3454L52.6471 67.351L53.4096 66.704ZM54.0976 67.968L53.1469 68.278V68.278L54.0976 67.968ZM54.3376 70.192V71.192H55.3376V70.192H54.3376ZM48.4016 70.192V69.192H47.4016V70.192H48.4016ZM48.5616 71.568L47.6163 71.894L47.6231 71.914L47.6309 71.9337L48.5616 71.568ZM49.0416 72.352L48.3001 73.0229L48.3087 73.0324L48.3175 73.0417L49.0416 72.352ZM49.8096 72.88L49.4157 73.7992L49.4273 73.804L49.8096 72.88ZM45.3967 69.1924C44.6037 69.2154 43.8373 69.3457 43.261 69.724L44.3583 71.396C44.4646 71.3263 44.7756 71.2113 45.4546 71.1916L45.3967 69.1924ZM43.2675 69.7197C42.6412 70.1238 42.3136 70.7553 42.3136 71.488H44.3136C44.3136 71.4547 44.317 71.4355 44.3189 71.4274C44.3206 71.4198 44.3215 71.4197 44.3196 71.4234C44.3175 71.4272 44.316 71.4285 44.318 71.4264C44.3204 71.4238 44.3299 71.4144 44.3518 71.4003L43.2675 69.7197ZM42.3136 71.488V71.824H44.3136V71.488H42.3136ZM42.3136 71.824C42.3136 72.4988 42.5708 73.1211 43.1317 73.5574L44.3596 71.9786C44.3457 71.9678 44.3392 71.9605 44.3367 71.9574C44.3344 71.9544 44.3327 71.9518 44.3309 71.9479C44.3281 71.9416 44.3136 71.9074 44.3136 71.824H42.3136ZM43.1456 73.568C43.6714 73.9623 44.3123 74.104 44.9616 74.104V72.104C44.587 72.104 44.4172 72.0217 44.3456 71.968L43.1456 73.568ZM44.9616 74.104C45.3509 74.104 45.7295 74.057 46.0896 73.952L45.5296 72.032C45.3778 72.0763 45.191 72.104 44.9616 72.104V74.104ZM46.0793 73.955C46.4405 73.8538 46.781 73.7009 47.0831 73.4827L45.9121 71.8613C45.8303 71.9204 45.7121 71.9809 45.54 72.029L46.0793 73.955ZM47.0831 73.4827C47.3732 73.2732 47.6224 73.0138 47.8076 72.699L46.0837 71.685C46.0555 71.7329 46.0061 71.7935 45.9121 71.8613L47.0831 73.4827ZM47.7852 72.7353C48.0059 72.3942 48.1216 72.0086 48.1216 71.6H46.1216C46.1216 71.618 46.1201 71.6271 46.1061 71.6487L47.7852 72.7353ZM48.1216 71.6V70.192H46.1216V71.6H48.1216ZM47.1216 69.192H45.4256V71.192H47.1216V69.192ZM53.9616 69.232V69.056H51.9616V69.232H53.9616ZM53.9616 69.056C53.9616 68.1298 53.7017 67.2794 53.0871 66.6162L51.6202 67.9758C51.8163 68.1873 51.9616 68.5102 51.9616 69.056H53.9616ZM53.104 66.635C52.4977 65.9468 51.6835 65.624 50.7696 65.624V67.624C51.1784 67.624 51.4202 67.7492 51.6033 67.957L53.104 66.635ZM50.7696 65.624C50.2941 65.624 49.8335 65.7111 49.4035 65.9022L50.2158 67.7298C50.3617 67.6649 50.5411 67.624 50.7696 67.624V65.624ZM49.4323 65.8899C49.014 66.0603 48.6449 66.3113 48.3335 66.6383L49.7818 68.0177C49.897 67.8967 50.0292 67.8063 50.1869 67.7421L49.4323 65.8899ZM48.3161 66.6571C48.0222 66.982 47.8 67.3586 47.6426 67.7733L49.5126 68.4827C49.59 68.2788 49.6878 68.122 49.7992 67.9989L48.3161 66.6571ZM47.6469 67.7623C47.4782 68.1917 47.4016 68.6484 47.4016 69.12H49.4016C49.4016 68.8663 49.4424 68.6617 49.5084 68.4937L47.6469 67.7623ZM47.4016 69.12V69.232H49.4016V69.12H47.4016ZM48.4016 70.232H52.9616V68.232H48.4016V70.232ZM50.8496 74.072C51.5289 74.072 52.1723 73.9196 52.7364 73.57C53.3011 73.22 53.7226 72.7119 54.0201 72.103L52.2232 71.225C52.062 71.5547 51.8754 71.7506 51.6829 71.87C51.4896 71.9897 51.2264 72.072 50.8496 72.072V74.072ZM52.5472 72.4826L53.4592 73.1226L54.6081 71.4854L53.6961 70.8454L52.5472 72.4826ZM53.1262 71.8839C52.9443 72.2766 52.6694 72.5872 52.2775 72.8283L53.3257 74.5317C54.0432 74.0901 54.5896 73.4834 54.9411 72.7241L53.1262 71.8839ZM52.2701 72.8329C51.903 73.0633 51.4622 73.192 50.9136 73.192V75.192C51.7944 75.192 52.6123 74.9794 53.3331 74.5271L52.2701 72.8329ZM50.9136 73.192C50.5743 73.192 50.2886 73.1425 50.0464 73.057L49.3808 74.943C49.8639 75.1135 50.3783 75.192 50.9136 75.192V73.192ZM50.0299 73.0513C49.7523 72.9588 49.5281 72.8476 49.3479 72.7251L48.2233 74.3789C48.5764 74.6191 48.971 74.8065 49.3974 74.9487L50.0299 73.0513ZM49.3856 72.752C49.1908 72.6059 49.0548 72.4682 48.9616 72.344L47.3616 73.544C47.5885 73.8465 47.8684 74.1141 48.1856 74.352L49.3856 72.752ZM48.9754 72.3628C48.9195 72.2846 48.883 72.2227 48.8601 72.1768C48.8488 72.1542 48.8415 72.1369 48.837 72.1249C48.8324 72.1128 48.831 72.107 48.831 72.107L46.8842 72.565C46.9674 72.9184 47.1451 73.2414 47.3479 73.5252L48.9754 72.3628ZM47.8576 71.336H47.7616V73.336H47.8576V71.336ZM46.7768 72.1622C46.7797 72.1459 46.7813 72.1519 46.7664 72.1825C46.7514 72.2133 46.7233 72.2618 46.6736 72.328L48.2736 73.528C48.4886 73.2414 48.6777 72.8993 48.7464 72.5098L46.7768 72.1622ZM46.6544 72.3545C46.5777 72.464 46.4556 72.5935 46.2656 72.736L47.4656 74.336C47.7876 74.0945 48.0708 73.8186 48.2929 73.5015L46.6544 72.3545ZM46.2876 72.72C46.1218 72.8374 45.8991 72.9531 45.6048 73.057L46.2704 74.943C46.7015 74.7909 47.0974 74.5973 47.4436 74.352L46.2876 72.72ZM45.6048 73.057C45.3674 73.1408 45.0722 73.192 44.7056 73.192V75.192C45.2564 75.192 45.7825 75.1152 46.2704 74.943L45.6048 73.057ZM44.7056 73.192C44.0526 73.192 43.6399 73.024 43.363 72.7824L42.0483 74.2896C42.774 74.9227 43.6946 75.192 44.7056 75.192V73.192ZM43.3799 72.7975C43.1267 72.5664 42.9696 72.2477 42.9696 71.728H40.9696C40.9696 72.723 41.3032 73.6096 42.0314 74.2745L43.3799 72.7975ZM42.9696 71.728C42.9696 71.2098 43.1393 70.9139 43.4378 70.6967L42.2615 69.0793C41.3867 69.7155 40.9696 70.6462 40.9696 71.728H42.9696ZM43.4473 70.6897C43.7849 70.4381 44.4115 70.232 45.4896 70.232V68.232C44.2211 68.232 43.0877 68.4633 42.252 69.0863L43.4473 70.6897ZM45.4896 70.232H47.1216V68.232H45.4896V70.232ZM48.1216 69.232V68.464H46.1216V69.232H48.1216ZM48.1216 68.464C48.1216 67.6962 47.9079 66.9533 47.3366 66.401L45.9466 67.839C46.0153 67.9054 46.1216 68.0585 46.1216 68.464H48.1216ZM47.3366 66.401C46.7648 65.8482 45.9983 65.656 45.2176 65.656V67.656C45.6956 67.656 45.8785 67.7731 45.9466 67.839L47.3366 66.401ZM45.2176 65.656C44.5583 65.656 43.9197 65.7872 43.3795 66.1357L44.4638 67.8163C44.5849 67.7381 44.8102 67.656 45.2176 67.656V65.656ZM43.3795 66.1357C42.9055 66.4415 42.5222 66.8567 42.2203 67.3505L43.9269 68.3934C44.0944 68.1193 44.2765 67.9371 44.4638 67.8163L43.3795 66.1357ZM43.7493 67.1348L42.9813 66.4308L41.6299 67.9052L42.3979 68.6092L43.7493 67.1348ZM43.2044 67.6064C43.3237 67.3619 43.5377 67.1111 43.9079 66.8696L42.8154 65.1944C42.2042 65.5929 41.7142 66.0995 41.4069 66.7296L43.2044 67.6064ZM43.8997 66.8749C44.2017 66.6821 44.6313 66.552 45.2496 66.552V64.552C44.3533 64.552 43.5242 64.7419 42.8236 65.1891L43.8997 66.8749ZM45.2496 66.552C45.6287 66.552 45.8673 66.6092 46.0086 66.6725L46.8267 64.8475C46.3493 64.6335 45.8092 64.552 45.2496 64.552V66.552ZM46.0462 66.6885C46.2731 66.7792 46.4043 66.8729 46.4785 66.9471L47.8927 65.5329C47.5829 65.2231 47.2022 64.9968 46.789 64.8315L46.0462 66.6885ZM46.5188 66.9852C46.6341 67.0883 46.6917 67.1756 46.7217 67.2424L48.5455 66.4216C48.3836 66.0617 48.1425 65.7543 47.8524 65.4948L46.5188 66.9852ZM46.7217 67.2424C46.8038 67.4248 46.8511 67.5584 46.8754 67.6497L48.8079 67.1343C48.7469 66.9056 48.6555 66.6659 48.5455 66.4216L46.7217 67.2424ZM47.8416 68.392H47.9376V66.392H47.8416V68.392ZM48.911 67.621C48.9106 67.6227 48.9148 67.6045 48.9352 67.5648C48.9556 67.5251 48.9889 67.4703 49.0416 67.4L47.4416 66.2C47.2319 66.4797 47.049 66.8025 46.9642 67.163L48.911 67.621ZM49.0416 67.4C49.1294 67.2829 49.2578 67.1556 49.4436 67.024L48.2876 65.392C47.9614 65.623 47.6738 65.8904 47.4416 66.2L49.0416 67.4ZM49.4656 67.008C49.6282 66.886 49.8316 66.7774 50.0867 66.6897L49.4365 64.7983C49.009 64.9453 48.615 65.146 48.2656 65.408L49.4656 67.008ZM50.1034 66.6838C50.3344 66.5998 50.6013 66.552 50.9136 66.552V64.552C50.3939 64.552 49.8929 64.6322 49.4199 64.8042L50.1034 66.6838ZM50.9136 66.552C51.3043 66.552 51.6208 66.6269 51.8837 66.755L52.7596 64.957C52.1904 64.6797 51.5683 64.552 50.9136 64.552V66.552ZM51.8926 66.7593C52.1874 66.8993 52.4328 67.0909 52.6377 67.3397L54.1816 66.0683C53.7891 65.5917 53.3091 65.218 52.7507 64.9527L51.8926 66.7593ZM52.6471 67.351C52.8524 67.5929 53.0224 67.8963 53.1469 68.278L55.0484 67.658C54.8528 67.0584 54.5642 66.5191 54.1721 66.057L52.6471 67.351ZM53.1469 68.278C53.2701 68.6559 53.3376 69.0885 53.3376 69.584H55.3376C55.3376 68.9062 55.2451 68.2614 55.0484 67.658L53.1469 68.278ZM53.3376 69.584V70.192H55.3376V69.584H53.3376ZM54.3376 69.192H48.4016V71.192H54.3376V69.192ZM47.4016 70.192V70.576H49.4016V70.192H47.4016ZM47.4016 70.576C47.4016 71.0305 47.4708 71.4721 47.6163 71.894L49.507 71.242C49.4391 71.0452 49.4016 70.8255 49.4016 70.576H47.4016ZM47.6309 71.9337C47.7896 72.3376 48.0115 72.704 48.3001 73.0229L49.7832 71.6811C49.6664 71.552 49.5683 71.3957 49.4924 71.2023L47.6309 71.9337ZM48.3175 73.0417C48.6289 73.3686 48.999 73.6205 49.4157 73.7991L50.2035 71.9609C50.023 71.8835 49.881 71.7834 49.7658 71.6623L48.3175 73.0417ZM49.4273 73.804C49.8743 73.989 50.3536 74.072 50.8496 74.072V72.072C50.5777 72.072 50.3636 72.027 50.192 71.956L49.4273 73.804ZM56.7897 73.632L56.0372 74.2905L56.0518 74.3072L56.0671 74.3232L56.7897 73.632ZM56.4538 62.16V61.16H55.4538V62.16H56.4538ZM57.7337 62.16H58.7337V61.16H57.7337V62.16ZM57.7337 72.88H56.7337V73.88H57.7337V72.88ZM58.9498 72.88H59.9498V71.88H58.9498V72.88ZM58.9498 74V75H59.9498V74H58.9498ZM57.8137 73C57.6789 73 57.6 72.9813 57.5599 72.9669C57.5248 72.9543 57.5154 72.9439 57.5124 72.9408L56.0671 74.3232C56.5453 74.8231 57.1839 75 57.8137 75V73ZM57.5423 72.9735C57.4985 72.9234 57.4538 72.8471 57.4538 72.672H55.4538C55.4538 73.2649 55.633 73.8286 56.0372 74.2905L57.5423 72.9735ZM57.4538 72.672V62.16H55.4538V72.672H57.4538ZM56.4538 63.16H57.7337V61.16H56.4538V63.16ZM56.7337 62.16V72.88H58.7337V62.16H56.7337ZM57.7337 73.88H58.9498V71.88H57.7337V73.88ZM57.9498 72.88V74H59.9498V72.88H57.9498ZM58.9498 73H57.8137V75H58.9498V73ZM66.7651 76.784L66.2587 75.9217L66.2506 75.9265L66.2426 75.9314L66.7651 76.784ZM60.9891 76.864L61.5177 76.0151L60.9891 76.864ZM60.4931 74.304L59.7705 73.6128L59.7631 73.6204L59.756 73.6283L60.4931 74.304ZM61.4531 73.76L61.7312 74.7206L62.4531 74.5116V73.76H61.4531ZM61.4531 73.584H62.4531V72.9538L61.8846 72.6819L61.4531 73.584ZM61.1171 71.488L61.7418 72.2689L61.7512 72.2614L61.7603 72.2537L61.1171 71.488ZM62.1411 70.992L62.3895 71.9607L63.1411 71.7679V70.992H62.1411ZM62.1411 70.928H63.1411V70.2978L62.5726 70.0259L62.1411 70.928ZM60.9891 69.92L60.1353 70.4406L60.1399 70.4481L60.1446 70.4555L60.9891 69.92ZM60.8131 67.248L59.8925 66.8574L60.8131 67.248ZM61.4371 66.352L62.1142 67.0879L62.1154 67.0868L61.4371 66.352ZM62.4131 65.76L62.0735 64.8194L62.0649 64.8226L62.4131 65.76ZM65.2611 65.872L64.8394 66.7787L66.2611 67.44V65.872H65.2611ZM65.4851 64.944L66.2902 65.5372L66.2974 65.5274L66.3044 65.5175L65.4851 64.944ZM67.4531 64.624H68.4531V63.624H67.4531V64.624ZM67.4531 65.744V66.744H68.4531V65.744H67.4531ZM65.8851 65.744V64.744H64.8851V65.744H65.8851ZM65.8851 66.272H64.8851V66.7319L65.2343 67.0313L65.8851 66.272ZM66.5731 67.2L65.6582 67.6036L65.6655 67.6201L65.6733 67.6363L66.5731 67.2ZM66.6051 69.552L65.6845 69.1614V69.1615L66.6051 69.552ZM65.9651 70.464L66.6422 71.1999L66.6434 71.1988L65.9651 70.464ZM64.9891 71.04L65.3288 71.9806L64.9891 71.04ZM62.9091 71.168L63.1052 70.1874L62.8754 70.1415L62.6492 70.2024L62.9091 71.168ZM62.1571 71.504L62.6835 72.3543L62.6978 72.3454L62.7118 72.3361L62.1571 71.504ZM62.1731 72.592L62.5149 71.6522L62.1731 72.592ZM67.0691 73.312L66.4169 74.07L66.4263 74.0781L66.4359 74.086L67.0691 73.312ZM66.1891 74.208L66.8098 73.4239L66.8054 73.4205L66.1891 74.208ZM62.1091 73.92V72.92H61.8909L61.6925 73.0109L62.1091 73.92ZM61.7411 75.968L61.0486 76.6894L61.0557 76.6962L61.0628 76.7028L61.7411 75.968ZM65.0051 69.84L65.6298 70.6209L65.6376 70.6146L65.6453 70.6082L65.0051 69.84ZM65.0051 66.976L64.3649 67.7442L64.3726 67.7506L64.3804 67.7569L65.0051 66.976ZM62.4131 66.976L63.0378 67.7569L63.0456 67.7506L63.0533 67.7442L62.4131 66.976ZM62.4131 69.84L61.7729 70.6082L61.7806 70.6146L61.7884 70.6209L62.4131 69.84ZM66.7731 74.912C66.7731 75.4515 66.5913 75.7264 66.2587 75.9217L67.2715 77.6463C68.2829 77.0523 68.7731 76.0792 68.7731 74.912H66.7731ZM66.2426 75.9314C65.8147 76.1936 65.0387 76.392 63.7731 76.392V78.392C65.1743 78.392 66.3928 78.1851 67.2877 77.6366L66.2426 75.9314ZM63.7731 76.392C62.5232 76.392 61.8344 76.2123 61.5177 76.0151L60.4606 77.7129C61.2745 78.2197 62.4417 78.392 63.7731 78.392V76.392ZM61.5177 76.0151C61.2372 75.8404 61.1411 75.6555 61.1411 75.36H59.1411C59.1411 76.3658 59.6104 77.1836 60.4606 77.7129L61.5177 76.0151ZM61.1411 75.36C61.1411 75.0873 61.2092 75.0027 61.2303 74.9797L59.756 73.6283C59.3077 74.1173 59.1411 74.7367 59.1411 75.36H61.1411ZM61.2158 74.9952C61.3023 74.9048 61.4545 74.8007 61.7312 74.7206L61.1751 72.7994C60.6411 72.954 60.1533 73.2125 59.7705 73.6128L61.2158 74.9952ZM62.4531 73.76V73.584H60.4531V73.76H62.4531ZM61.8846 72.6819C61.7747 72.6293 61.7481 72.5882 61.7438 72.5816C61.7404 72.5762 61.7171 72.541 61.7171 72.432H59.7171C59.7171 72.8564 59.8166 73.2798 60.0584 73.6584C60.2995 74.0358 60.6409 74.304 61.0217 74.4861L61.8846 72.6819ZM61.7171 72.432C61.7171 72.3296 61.7336 72.2844 61.7379 72.2741C61.74 72.2691 61.7407 72.2689 61.7392 72.2709C61.7378 72.2728 61.7377 72.2722 61.7418 72.2689L60.4924 70.7071C59.9367 71.1517 59.7171 71.7855 59.7171 72.432H61.7171ZM61.7603 72.2537C61.8887 72.1459 62.0855 72.0386 62.3895 71.9607L61.8927 70.0233C61.3647 70.1587 60.8789 70.3821 60.4739 70.7223L61.7603 72.2537ZM63.1411 70.992V70.928H61.1411V70.992H63.1411ZM62.5726 70.0259C62.2424 69.8679 62.0053 69.6551 61.8336 69.3845L60.1446 70.4555C60.5277 71.0596 61.0586 71.5187 61.7097 71.8301L62.5726 70.0259ZM61.8429 69.3994C61.6834 69.1378 61.5891 68.8158 61.5891 68.4H59.5891C59.5891 69.1362 59.7615 69.8276 60.1353 70.4406L61.8429 69.3994ZM61.5891 68.4C61.5891 68.1063 61.6412 67.8565 61.7337 67.6385L59.8925 66.8574C59.6863 67.3435 59.5891 67.8617 59.5891 68.4H61.5891ZM61.7337 67.6385C61.8305 67.4103 61.9581 67.2315 62.1142 67.0879L60.7601 65.6161C60.3828 65.9632 60.0944 66.3817 59.8925 66.8574L61.7337 67.6385ZM62.1154 67.0868C62.2917 66.924 62.5033 66.7933 62.7613 66.6974L62.0649 64.8226C61.5763 65.0041 61.1372 65.268 60.7588 65.6172L62.1154 67.0868ZM62.7528 66.7006C63.0129 66.6066 63.3225 66.552 63.6931 66.552V64.552C63.125 64.552 62.5814 64.636 62.0735 64.8194L62.7528 66.7006ZM63.6931 66.552C64.1573 66.552 64.5323 66.6359 64.8394 66.7787L65.6829 64.9653C65.0726 64.6814 64.4023 64.552 63.6931 64.552V66.552ZM66.2611 65.872V65.728H64.2611V65.872H66.2611ZM66.2611 65.728C66.2611 65.6449 66.2709 65.5939 66.2786 65.5667C66.2825 65.5534 66.2859 65.5455 66.2877 65.5417C66.2886 65.5398 66.2893 65.5386 66.2897 65.538C66.2898 65.5377 66.29 65.5375 66.2901 65.5374C66.2901 65.5373 66.2902 65.5372 66.2902 65.5372L64.6801 64.3508C64.3734 64.767 64.2611 65.2528 64.2611 65.728H66.2611ZM66.3044 65.5175C66.2897 65.5385 66.2697 65.5607 66.2449 65.5808C66.2203 65.6007 66.1971 65.6136 66.1799 65.6211C66.1471 65.6353 66.1512 65.624 66.2211 65.624V63.624C65.6655 63.624 65.0585 63.8096 64.6659 64.3705L66.3044 65.5175ZM66.2211 65.624H67.4531V63.624H66.2211V65.624ZM66.4531 64.624V65.744H68.4531V64.624H66.4531ZM67.4531 64.744H65.8851V66.744H67.4531V64.744ZM64.8851 65.744V66.272H66.8851V65.744H64.8851ZM65.2343 67.0313C65.4186 67.1892 65.5581 67.3767 65.6582 67.6036L67.488 66.7964C67.2682 66.298 66.949 65.8668 66.5359 65.5127L65.2343 67.0313ZM65.6733 67.6363C65.7691 67.8338 65.8291 68.0811 65.8291 68.4H67.8291C67.8291 67.8229 67.7185 67.2702 67.4729 66.7637L65.6733 67.6363ZM65.8291 68.4C65.8291 68.6937 65.777 68.9435 65.6845 69.1614L67.5257 69.9425C67.7319 69.4565 67.8291 68.9383 67.8291 68.4H65.8291ZM65.6845 69.1615C65.5899 69.3846 65.4585 69.5707 65.2868 69.7292L66.6434 71.1988C67.0264 70.8453 67.3217 70.4234 67.5257 69.9425L65.6845 69.1615ZM65.2881 69.7281C65.1308 69.8727 64.9243 70.0002 64.6495 70.0994L65.3288 71.9806C65.8219 71.8025 66.2661 71.5459 66.6422 71.1999L65.2881 69.7281ZM64.6495 70.0994C64.3894 70.1934 64.0797 70.248 63.7091 70.248V72.248C64.2772 72.248 64.8209 72.164 65.3288 71.9806L64.6495 70.0994ZM63.7091 70.248C63.5096 70.248 63.3086 70.2281 63.1052 70.1874L62.713 72.1486C63.043 72.2146 63.3753 72.248 63.7091 72.248V70.248ZM62.6492 70.2024C62.274 70.3034 61.9226 70.4585 61.6024 70.6719L62.7118 72.3361C62.8396 72.2509 62.9896 72.1819 63.1691 72.1336L62.6492 70.2024ZM61.6308 70.6537C61.1227 70.9682 60.8211 71.4816 60.8211 72.096H62.8211C62.8211 72.1184 62.8147 72.1793 62.7748 72.2496C62.7356 72.3187 62.6909 72.3497 62.6835 72.3543L61.6308 70.6537ZM60.8211 72.096C60.8211 72.3816 60.8916 72.698 61.0936 72.9827C61.2947 73.266 61.5678 73.4359 61.8314 73.5318L62.5149 71.6522C62.5438 71.6627 62.6409 71.7073 62.7246 71.8253C62.8094 71.9446 62.8211 72.0557 62.8211 72.096H60.8211ZM61.8314 73.5318C62.2156 73.6715 62.6472 73.72 63.0851 73.72V71.72C62.7764 71.72 62.6 71.6831 62.5149 71.6522L61.8314 73.5318ZM63.0851 73.72H64.8451V71.72H63.0851V73.72ZM64.8451 73.72C65.7821 73.72 66.2289 73.9083 66.4169 74.07L67.7214 72.554C66.992 71.9264 65.9561 71.72 64.8451 71.72V73.72ZM66.4359 74.086C66.642 74.2546 66.7731 74.4867 66.7731 74.912H68.7731C68.7731 73.972 68.4349 73.1374 67.7024 72.538L66.4359 74.086ZM67.5731 75.008C67.5731 74.3763 67.309 73.8191 66.8098 73.424L65.5684 74.992C65.5804 75.0015 65.584 75.0063 65.5832 75.0052C65.5828 75.0048 65.5817 75.0034 65.5802 75.001C65.5787 74.9987 65.5771 74.9958 65.5756 74.9927C65.5724 74.986 65.5713 74.9815 65.5713 74.9815C65.5714 74.9819 65.5731 74.99 65.5731 75.008H67.5731ZM66.8054 73.4205C66.2755 73.0057 65.5292 72.92 64.8611 72.92V74.92C65.1366 74.92 65.3315 74.9412 65.4612 74.9693C65.597 74.9987 65.6103 75.0248 65.5728 74.9955L66.8054 73.4205ZM64.8611 72.92H62.1091V74.92H64.8611V72.92ZM61.6925 73.0109C61.3118 73.1854 60.9611 73.442 60.7084 73.8105C60.4516 74.1849 60.3411 74.6095 60.3411 75.04H62.3411C62.3411 74.9957 62.3466 74.9708 62.3498 74.9598C62.3527 74.9498 62.3553 74.9452 62.3579 74.9415C62.3612 74.9367 62.3945 74.8892 62.5258 74.8291L61.6925 73.0109ZM60.3411 75.04C60.3411 75.6808 60.5898 76.2489 61.0486 76.6894L62.4337 75.2466C62.3591 75.1751 62.3411 75.1245 62.3411 75.04H60.3411ZM61.0628 76.7028C61.6192 77.2164 62.3986 77.352 63.1331 77.352V75.352C62.8684 75.352 62.6841 75.3254 62.5631 75.292C62.4436 75.2591 62.4131 75.2273 62.4194 75.2332L61.0628 76.7028ZM63.1331 77.352H64.3171V75.352H63.1331V77.352ZM64.3171 77.352C65.1146 77.352 65.8669 77.2307 66.4747 76.8857L65.4875 75.1463C65.306 75.2493 64.9489 75.352 64.3171 75.352V77.352ZM66.4747 76.8857C67.1774 76.4869 67.5731 75.8217 67.5731 75.008H65.5731C65.5731 75.0465 65.5689 75.0688 65.5664 75.0789C65.5651 75.0841 65.564 75.0869 65.5635 75.0881C65.5633 75.0887 65.5631 75.0891 65.563 75.0893C65.5629 75.0894 65.5629 75.0895 65.5628 75.0896C65.5628 75.0896 65.5625 75.0902 65.5613 75.0916C65.5602 75.0931 65.5576 75.0961 65.5529 75.1005C65.5437 75.1093 65.524 75.1256 65.4875 75.1463L66.4747 76.8857ZM63.7091 71.224C64.4056 71.224 65.0819 71.0592 65.6298 70.6209L64.3804 69.0591C64.2883 69.1328 64.1006 69.224 63.7091 69.224V71.224ZM65.6453 70.6082C66.2588 70.097 66.4851 69.3674 66.4851 68.624H64.4851C64.4851 68.9686 64.3914 69.0497 64.3649 69.0718L65.6453 70.6082ZM66.4851 68.624V68.176H64.4851V68.624H66.4851ZM66.4851 68.176C66.4851 67.435 66.2595 66.6989 65.6298 66.1951L64.3804 67.7569C64.3908 67.7651 64.4851 67.829 64.4851 68.176H66.4851ZM65.6453 66.2078C65.0968 65.7507 64.4145 65.576 63.7091 65.576V67.576C64.0917 67.576 64.2735 67.668 64.3649 67.7442L65.6453 66.2078ZM63.7091 65.576C63.0037 65.576 62.3215 65.7507 61.7729 66.2078L63.0533 67.7442C63.1448 67.668 63.3265 67.576 63.7091 67.576V65.576ZM61.7884 66.1951C61.1588 66.6989 60.9331 67.435 60.9331 68.176H62.9331C62.9331 67.829 63.0275 67.7651 63.0378 67.7569L61.7884 66.1951ZM60.9331 68.176V68.624H62.9331V68.176H60.9331ZM60.9331 68.624C60.9331 69.3674 61.1594 70.097 61.7729 70.6082L63.0533 69.0718C63.0268 69.0497 62.9331 68.9686 62.9331 68.624H60.9331ZM61.7884 70.6209C62.3363 71.0592 63.0126 71.224 63.7091 71.224V69.224C63.3176 69.224 63.1299 69.1328 63.0378 69.0591L61.7884 70.6209Z" fill="#1A1A1A" mask="url(#path-3-inside-1_14279_21279)"/>
<path d="M303.41 64.5801L308 69.1701L312.59 64.5801L314 66.0001L308 72.0001L302 66.0001L303.41 64.5801Z" fill="#1A1A1A"/>
<path d="M23 45.5C17.7533 45.5 13.5 49.7533 13.5 55V81C13.5 86.2467 17.7533 90.5 23 90.5H329C334.247 90.5 338.5 86.2467 338.5 81V55C338.5 49.7533 334.247 45.5 329 45.5H23Z" stroke="#454545" stroke-width="3"/>
<path d="M16.5 100C16.5 95.8579 19.8579 92.5 24 92.5H328C332.142 92.5 335.5 95.8579 335.5 100V206C335.5 210.142 332.142 213.5 328 213.5H24C19.8579 213.5 16.5 210.142 16.5 206V100Z" fill="white"/>
<path d="M16.5 100C16.5 95.8579 19.8579 92.5 24 92.5H328C332.142 92.5 335.5 95.8579 335.5 100V206C335.5 210.142 332.142 213.5 328 213.5H24C19.8579 213.5 16.5 210.142 16.5 206V100Z" stroke="#707070"/>
<mask id="path-8-inside-2_14279_21279" fill="white">
<path d="M17 93H335V133H17V93Z"/>
</mask>
<path d="M335 132H17V134H335V132Z" fill="#BFBFBF" mask="url(#path-8-inside-2_14279_21279)"/>
<path d="M37.032 119L33.32 107.832H34.76L36.6 113.464L37.832 117.656H37.912L39.176 113.464L41.032 107.832H42.424L38.664 119H37.032ZM46.4256 115.192C45.6896 115.213 45.151 115.336 44.8096 115.56C44.479 115.773 44.3136 116.083 44.3136 116.488V116.824C44.3136 117.229 44.4576 117.544 44.7456 117.768C45.0443 117.992 45.4496 118.104 45.9616 118.104C46.271 118.104 46.5536 118.067 46.8096 117.992C47.0763 117.917 47.3056 117.811 47.4976 117.672C47.6896 117.533 47.839 117.373 47.9456 117.192C48.063 117.011 48.1216 116.813 48.1216 116.6V115.192H46.4256ZM53.9616 114.232V114.056C53.9616 113.32 53.759 112.733 53.3536 112.296C52.959 111.848 52.431 111.624 51.7696 111.624C51.4176 111.624 51.0976 111.688 50.8096 111.816C50.5216 111.933 50.271 112.104 50.0576 112.328C49.855 112.552 49.695 112.819 49.5776 113.128C49.4603 113.427 49.4016 113.757 49.4016 114.12V114.232H53.9616ZM51.8496 118.072C52.9056 118.072 53.663 117.603 54.1216 116.664L55.0336 117.304C54.767 117.88 54.3563 118.339 53.8016 118.68C53.2576 119.021 52.6283 119.192 51.9136 119.192C51.4763 119.192 51.0763 119.128 50.7136 119C50.3616 118.883 50.0523 118.733 49.7856 118.552C49.5296 118.36 49.3216 118.157 49.1616 117.944C49.0016 117.72 48.9003 117.517 48.8576 117.336H48.7616C48.7296 117.517 48.6336 117.715 48.4736 117.928C48.3243 118.141 48.1216 118.344 47.8656 118.536C47.6096 118.717 47.3003 118.872 46.9376 119C46.575 119.128 46.1643 119.192 45.7056 119.192C44.8736 119.192 44.207 118.973 43.7056 118.536C43.215 118.088 42.9696 117.485 42.9696 116.728C42.9696 115.928 43.263 115.315 43.8496 114.888C44.4363 114.451 45.3163 114.232 46.4896 114.232H48.1216V113.464C48.1216 112.877 47.9616 112.429 47.6416 112.12C47.3216 111.811 46.847 111.656 46.2176 111.656C45.6843 111.656 45.2523 111.763 44.9216 111.976C44.591 112.189 44.3083 112.488 44.0736 112.872L43.3056 112.168C43.519 111.731 43.871 111.352 44.3616 111.032C44.863 110.712 45.4923 110.552 46.2496 110.552C46.719 110.552 47.1083 110.621 47.4176 110.76C47.7376 110.888 47.9936 111.048 48.1856 111.24C48.3883 111.421 48.5376 111.619 48.6336 111.832C48.7296 112.045 48.799 112.232 48.8416 112.392H48.9376C48.9803 112.211 49.0816 112.013 49.2416 111.8C49.4016 111.587 49.6096 111.389 49.8656 111.208C50.1216 111.016 50.4203 110.861 50.7616 110.744C51.1136 110.616 51.4976 110.552 51.9136 110.552C52.4363 110.552 52.9056 110.653 53.3216 110.856C53.7483 111.059 54.111 111.341 54.4096 111.704C54.7083 112.056 54.9376 112.477 55.0976 112.968C55.2576 113.459 55.3376 113.997 55.3376 114.584V115.192H49.4016V115.576C49.4016 115.928 49.455 116.259 49.5616 116.568C49.679 116.867 49.839 117.128 50.0416 117.352C50.255 117.576 50.511 117.752 50.8096 117.88C51.119 118.008 51.4656 118.072 51.8496 118.072ZM58.8138 119C58.3658 119 58.0244 118.877 57.7898 118.632C57.5658 118.376 57.4538 118.056 57.4538 117.672V107.16H58.7338V117.88H59.9498V119H58.8138ZM68.7731 119.912C68.7731 120.765 68.4371 121.389 67.7651 121.784C67.1038 122.189 66.1065 122.392 64.7731 122.392C63.4825 122.392 62.5545 122.216 61.9891 121.864C61.4238 121.512 61.1411 121.011 61.1411 120.36C61.1411 119.912 61.2585 119.56 61.4931 119.304C61.7278 119.059 62.0478 118.877 62.4531 118.76V118.584C61.9625 118.349 61.7171 117.965 61.7171 117.432C61.7171 117.016 61.8505 116.701 62.1171 116.488C62.3838 116.264 62.7251 116.099 63.1411 115.992V115.928C62.6505 115.693 62.2665 115.357 61.9891 114.92C61.7225 114.483 61.5891 113.976 61.5891 113.4C61.5891 112.984 61.6638 112.6 61.8131 112.248C61.9625 111.896 62.1705 111.597 62.4371 111.352C62.7145 111.096 63.0398 110.899 63.4131 110.76C63.7971 110.621 64.2238 110.552 64.6931 110.552C65.2798 110.552 65.8025 110.659 66.2611 110.872V110.728C66.2611 110.408 66.3358 110.147 66.4851 109.944C66.6345 109.731 66.8798 109.624 67.2211 109.624H68.4531V110.744H66.8851V111.272C67.1838 111.528 67.4131 111.837 67.5731 112.2C67.7438 112.552 67.8291 112.952 67.8291 113.4C67.8291 113.816 67.7545 114.2 67.6051 114.552C67.4558 114.904 67.2425 115.208 66.9651 115.464C66.6985 115.709 66.3731 115.901 65.9891 116.04C65.6051 116.179 65.1785 116.248 64.7091 116.248C64.4425 116.248 64.1758 116.221 63.9091 116.168C63.6318 116.243 63.3811 116.355 63.1571 116.504C62.9331 116.643 62.8211 116.84 62.8211 117.096C62.8211 117.341 62.9385 117.507 63.1731 117.592C63.4078 117.677 63.7118 117.72 64.0851 117.72H65.8451C66.8691 117.72 67.6105 117.917 68.0691 118.312C68.5385 118.696 68.7731 119.229 68.7731 119.912ZM67.5731 120.008C67.5731 119.677 67.4451 119.411 67.1891 119.208C66.9438 119.016 66.5011 118.92 65.8611 118.92H63.1091C62.5971 119.155 62.3411 119.528 62.3411 120.04C62.3411 120.403 62.4745 120.712 62.7411 120.968C63.0185 121.224 63.4825 121.352 64.1331 121.352H65.3171C66.0318 121.352 66.5865 121.24 66.9811 121.016C67.3758 120.792 67.5731 120.456 67.5731 120.008ZM64.7091 115.224C65.2531 115.224 65.6851 115.096 66.0051 114.84C66.3251 114.573 66.4851 114.168 66.4851 113.624V113.176C66.4851 112.632 66.3251 112.232 66.0051 111.976C65.6851 111.709 65.2531 111.576 64.7091 111.576C64.1651 111.576 63.7331 111.709 63.4131 111.976C63.0931 112.232 62.9331 112.632 62.9331 113.176V113.624C62.9331 114.168 63.0931 114.573 63.4131 114.84C63.7331 115.096 64.1651 115.224 64.7091 115.224Z" fill="#1A1A1A"/>
<mask id="path-11-inside-3_14279_21279" fill="white">
<path d="M17 133H335V173H17V133Z"/>
</mask>
<path d="M335 172H17V174H335V172Z" fill="#BFBFBF" mask="url(#path-11-inside-3_14279_21279)"/>
<path d="M39.752 147.832V156.104C39.752 156.573 39.672 157 39.512 157.384C39.3627 157.768 39.144 158.093 38.856 158.36C38.5787 158.627 38.2427 158.835 37.848 158.984C37.4533 159.123 37.0213 159.192 36.552 159.192C35.688 159.192 34.9893 158.963 34.456 158.504C33.9333 158.035 33.5973 157.416 33.448 156.648L34.664 156.36C34.7707 156.84 34.9733 157.235 35.272 157.544C35.5707 157.843 36.008 157.992 36.584 157.992C37.16 157.992 37.608 157.816 37.928 157.464C38.248 157.112 38.408 156.579 38.408 155.864V149.016H34.568V147.832H39.752ZM48.5163 159C48.0363 159 47.6896 158.872 47.4763 158.616C47.2736 158.36 47.1456 158.04 47.0923 157.656H47.0123C46.8309 158.168 46.5323 158.552 46.1163 158.808C45.7003 159.064 45.2043 159.192 44.6283 159.192C43.7536 159.192 43.0709 158.968 42.5803 158.52C42.1003 158.072 41.8603 157.464 41.8603 156.696C41.8603 155.917 42.1429 155.32 42.7083 154.904C43.2843 154.488 44.1749 154.28 45.3802 154.28H47.0123V153.464C47.0123 152.877 46.8523 152.429 46.5323 152.12C46.2123 151.811 45.7216 151.656 45.0603 151.656C44.5589 151.656 44.1376 151.768 43.7963 151.992C43.4656 152.216 43.1883 152.515 42.9643 152.888L42.1963 152.168C42.4203 151.72 42.7776 151.341 43.2682 151.032C43.7589 150.712 44.3776 150.552 45.1243 150.552C46.1269 150.552 46.9056 150.797 47.4603 151.288C48.0149 151.779 48.2923 152.461 48.2923 153.336V157.88H49.2362V159H48.5163ZM44.8363 158.104C45.1563 158.104 45.4496 158.067 45.7163 157.992C45.9829 157.917 46.2123 157.811 46.4043 157.672C46.5963 157.533 46.7456 157.373 46.8523 157.192C46.9589 157.011 47.0123 156.813 47.0123 156.6V155.24H45.3163C44.5803 155.24 44.0416 155.347 43.7003 155.56C43.3696 155.773 43.2043 156.083 43.2043 156.488V156.824C43.2043 157.229 43.3483 157.544 43.6363 157.768C43.9349 157.992 44.3349 158.104 44.8363 158.104Z" fill="#1A1A1A"/>
<path d="M37.192 192.184L35.848 189.704H35.8V199H34.488V187.832H36.04L40.12 194.648L41.464 197.128H41.512V187.832H42.824V199H41.272L37.192 192.184ZM48.7765 199.192C48.2112 199.192 47.6992 199.091 47.2405 198.888C46.7925 198.685 46.4032 198.397 46.0725 198.024C45.7525 197.64 45.5018 197.187 45.3205 196.664C45.1498 196.131 45.0645 195.533 45.0645 194.872C45.0645 194.221 45.1498 193.629 45.3205 193.096C45.5018 192.563 45.7525 192.109 46.0725 191.736C46.4032 191.352 46.7925 191.059 47.2405 190.856C47.6992 190.653 48.2112 190.552 48.7765 190.552C49.3312 190.552 49.8272 190.653 50.2645 190.856C50.7018 191.059 51.0752 191.341 51.3845 191.704C51.6938 192.056 51.9285 192.477 52.0885 192.968C52.2592 193.459 52.3445 193.997 52.3445 194.584V195.192H46.4085V195.576C46.4085 195.928 46.4618 196.259 46.5685 196.568C46.6858 196.867 46.8458 197.128 47.0485 197.352C47.2618 197.576 47.5178 197.752 47.8165 197.88C48.1258 198.008 48.4725 198.072 48.8565 198.072C49.3792 198.072 49.8325 197.949 50.2165 197.704C50.6112 197.459 50.9152 197.107 51.1285 196.648L52.0405 197.304C51.7738 197.869 51.3578 198.328 50.7925 198.68C50.2272 199.021 49.5552 199.192 48.7765 199.192ZM48.7765 191.624C48.4245 191.624 48.1045 191.688 47.8165 191.816C47.5285 191.933 47.2778 192.104 47.0645 192.328C46.8618 192.552 46.7018 192.819 46.5845 193.128C46.4672 193.427 46.4085 193.757 46.4085 194.12V194.232H50.9685V194.056C50.9685 193.32 50.7658 192.733 50.3605 192.296C49.9658 191.848 49.4378 191.624 48.7765 191.624ZM54.4538 190.744H55.7338V200.28C55.7338 200.856 55.5898 201.32 55.3018 201.672C55.0138 202.024 54.5604 202.2 53.9418 202.2H53.1098V201.08H54.4538V190.744ZM55.0938 188.808C54.8164 188.808 54.6138 188.744 54.4858 188.616C54.3684 188.477 54.3098 188.301 54.3098 188.088V187.88C54.3098 187.667 54.3684 187.496 54.4858 187.368C54.6138 187.229 54.8164 187.16 55.0938 187.16C55.3711 187.16 55.5684 187.229 55.6858 187.368C55.8138 187.496 55.8778 187.667 55.8778 187.88V188.088C55.8778 188.301 55.8138 188.477 55.6858 188.616C55.5684 188.744 55.3711 188.808 55.0938 188.808Z" fill="#1A1A1A"/>
</svg>
