<svg width="418" height="366" viewBox="0 0 418 366" fill="none" xmlns="http://www.w3.org/2000/svg">
<rect width="418" height="366" fill="white"/>
<path d="M17.968 41V24.248H21.136V38.192H27.736V41H17.968ZM35.0253 41.288C34.1293 41.288 33.3213 41.136 32.6013 40.832C31.8973 40.528 31.2893 40.088 30.7773 39.512C30.2813 38.936 29.8973 38.248 29.6253 37.448C29.3533 36.632 29.2173 35.72 29.2173 34.712C29.2173 33.704 29.3533 32.8 29.6253 32C29.8973 31.2 30.2813 30.52 30.7773 29.96C31.2893 29.384 31.8973 28.944 32.6013 28.64C33.3213 28.336 34.1293 28.184 35.0253 28.184C35.9213 28.184 36.7293 28.336 37.4493 28.64C38.1693 28.944 38.7773 29.384 39.2733 29.96C39.7853 30.52 40.1773 31.2 40.4493 32C40.7213 32.8 40.8573 33.704 40.8573 34.712C40.8573 35.72 40.7213 36.632 40.4493 37.448C40.1773 38.248 39.7853 38.936 39.2733 39.512C38.7773 40.088 38.1693 40.528 37.4493 40.832C36.7293 41.136 35.9213 41.288 35.0253 41.288ZM35.0253 38.816C35.8413 38.816 36.4813 38.568 36.9453 38.072C37.4093 37.576 37.6413 36.848 37.6413 35.888V33.56C37.6413 32.616 37.4093 31.896 36.9453 31.4C36.4813 30.904 35.8413 30.656 35.0253 30.656C34.2253 30.656 33.5933 30.904 33.1293 31.4C32.6653 31.896 32.4333 32.616 32.4333 33.56V35.888C32.4333 36.848 32.6653 37.576 33.1293 38.072C33.5933 38.568 34.2253 38.816 35.0253 38.816ZM43.5807 41V28.472H46.6527V31.064H46.7727C46.8527 30.728 46.9727 30.408 47.1327 30.104C47.3087 29.784 47.5327 29.504 47.8047 29.264C48.0767 29.024 48.3967 28.832 48.7647 28.688C49.1487 28.544 49.5887 28.472 50.0847 28.472H50.7567V31.376H49.7967C48.7567 31.376 47.9727 31.528 47.4447 31.832C46.9167 32.136 46.6527 32.632 46.6527 33.32V41H43.5807ZM57.9494 41.288C57.0214 41.288 56.1894 41.136 55.4534 40.832C54.7334 40.512 54.1174 40.072 53.6054 39.512C53.1094 38.936 52.7254 38.248 52.4534 37.448C52.1814 36.632 52.0454 35.72 52.0454 34.712C52.0454 33.72 52.1734 32.824 52.4294 32.024C52.7014 31.224 53.0854 30.544 53.5814 29.984C54.0774 29.408 54.6854 28.968 55.4054 28.664C56.1254 28.344 56.9414 28.184 57.8534 28.184C58.8294 28.184 59.6774 28.352 60.3974 28.688C61.1174 29.024 61.7094 29.48 62.1734 30.056C62.6374 30.632 62.9814 31.304 63.2054 32.072C63.4454 32.824 63.5654 33.632 63.5654 34.496V35.504H55.2374V35.816C55.2374 36.728 55.4934 37.464 56.0054 38.024C56.5174 38.568 57.2774 38.84 58.2854 38.84C59.0534 38.84 59.6774 38.68 60.1574 38.36C60.6534 38.04 61.0934 37.632 61.4774 37.136L63.1334 38.984C62.6214 39.704 61.9174 40.272 61.0214 40.688C60.1414 41.088 59.1174 41.288 57.9494 41.288ZM57.9014 30.488C57.0854 30.488 56.4374 30.76 55.9574 31.304C55.4774 31.848 55.2374 32.552 55.2374 33.416V33.608H60.3734V33.392C60.3734 32.528 60.1574 31.832 59.7254 31.304C59.3094 30.76 58.7014 30.488 57.9014 30.488ZM66.2682 41V28.472H69.3402V30.56H69.4602C69.7002 29.904 70.0842 29.344 70.6122 28.88C71.1402 28.416 71.8762 28.184 72.8202 28.184C73.6842 28.184 74.4282 28.392 75.0522 28.808C75.6762 29.224 76.1402 29.856 76.4442 30.704H76.4922C76.7162 30 77.1562 29.408 77.8122 28.928C78.4842 28.432 79.3242 28.184 80.3322 28.184C81.5642 28.184 82.5082 28.608 83.1642 29.456C83.8362 30.304 84.1722 31.512 84.1722 33.08V41H81.1002V33.392C81.1002 31.6 80.4282 30.704 79.0842 30.704C78.7802 30.704 78.4842 30.752 78.1962 30.848C77.9242 30.928 77.6762 31.056 77.4522 31.232C77.2442 31.392 77.0762 31.6 76.9482 31.856C76.8202 32.096 76.7562 32.384 76.7562 32.72V41H73.6842V33.392C73.6842 31.6 73.0122 30.704 71.6682 30.704C71.3802 30.704 71.0922 30.752 70.8042 30.848C70.5322 30.928 70.2842 31.056 70.0602 31.232C69.8522 31.392 69.6762 31.6 69.5322 31.856C69.4042 32.096 69.3402 32.384 69.3402 32.72V41H66.2682ZM94.7808 26.648C94.1408 26.648 93.6768 26.504 93.3888 26.216C93.1168 25.928 92.9808 25.56 92.9808 25.112V24.632C92.9808 24.184 93.1168 23.816 93.3888 23.528C93.6768 23.24 94.1408 23.096 94.7808 23.096C95.4048 23.096 95.8608 23.24 96.1488 23.528C96.4368 23.816 96.5808 24.184 96.5808 24.632V25.112C96.5808 25.56 96.4368 25.928 96.1488 26.216C95.8608 26.504 95.4048 26.648 94.7808 26.648ZM93.2448 28.472H96.3168V41H93.2448V28.472ZM99.8776 28.472H102.95V30.536H103.046C103.27 29.816 103.694 29.248 104.318 28.832C104.942 28.4 105.67 28.184 106.502 28.184C108.102 28.184 109.318 28.752 110.15 29.888C110.998 31.008 111.422 32.616 111.422 34.712C111.422 36.824 110.998 38.448 110.15 39.584C109.318 40.72 108.102 41.288 106.502 41.288C105.67 41.288 104.942 41.072 104.318 40.64C103.71 40.208 103.286 39.632 103.046 38.912H102.95V45.8H99.8776V28.472ZM105.518 38.744C106.318 38.744 106.966 38.48 107.462 37.952C107.958 37.424 108.206 36.712 108.206 35.816V33.656C108.206 32.76 107.958 32.048 107.462 31.52C106.966 30.976 106.318 30.704 105.518 30.704C104.782 30.704 104.166 30.888 103.67 31.256C103.19 31.624 102.95 32.112 102.95 32.72V36.704C102.95 37.36 103.19 37.864 103.67 38.216C104.166 38.568 104.782 38.744 105.518 38.744ZM118.372 41.288C117.172 41.288 116.164 41.088 115.348 40.688C114.532 40.272 113.812 39.704 113.188 38.984L115.06 37.16C115.524 37.688 116.028 38.104 116.572 38.408C117.132 38.712 117.772 38.864 118.492 38.864C119.228 38.864 119.756 38.736 120.076 38.48C120.412 38.224 120.58 37.872 120.58 37.424C120.58 37.056 120.46 36.768 120.22 36.56C119.996 36.336 119.604 36.184 119.044 36.104L117.796 35.936C116.436 35.76 115.396 35.376 114.676 34.784C113.972 34.176 113.62 33.296 113.62 32.144C113.62 31.536 113.732 30.992 113.956 30.512C114.18 30.016 114.5 29.6 114.916 29.264C115.332 28.912 115.828 28.648 116.404 28.472C116.996 28.28 117.652 28.184 118.372 28.184C118.98 28.184 119.516 28.232 119.98 28.328C120.46 28.408 120.892 28.536 121.276 28.712C121.66 28.872 122.012 29.08 122.332 29.336C122.652 29.576 122.964 29.848 123.268 30.152L121.468 31.952C121.1 31.568 120.66 31.248 120.148 30.992C119.636 30.736 119.076 30.608 118.468 30.608C117.796 30.608 117.308 30.728 117.004 30.968C116.716 31.208 116.572 31.52 116.572 31.904C116.572 32.32 116.692 32.64 116.932 32.864C117.188 33.072 117.612 33.224 118.204 33.32L119.476 33.488C122.18 33.872 123.532 35.104 123.532 37.184C123.532 37.792 123.404 38.352 123.148 38.864C122.908 39.36 122.564 39.792 122.116 40.16C121.668 40.512 121.124 40.792 120.484 41C119.86 41.192 119.156 41.288 118.372 41.288ZM133.733 38.912H133.613C133.501 39.232 133.349 39.536 133.157 39.824C132.981 40.096 132.749 40.344 132.461 40.568C132.189 40.792 131.853 40.968 131.453 41.096C131.069 41.224 130.621 41.288 130.109 41.288C128.813 41.288 127.821 40.864 127.133 40.016C126.445 39.168 126.101 37.96 126.101 36.392V28.472H129.173V36.08C129.173 36.944 129.341 37.608 129.677 38.072C130.013 38.52 130.549 38.744 131.285 38.744C131.589 38.744 131.885 38.704 132.173 38.624C132.477 38.544 132.741 38.424 132.965 38.264C133.189 38.088 133.373 37.88 133.517 37.64C133.661 37.384 133.733 37.088 133.733 36.752V28.472H136.805V41H133.733V38.912ZM140.354 41V28.472H143.426V30.56H143.546C143.786 29.904 144.17 29.344 144.698 28.88C145.226 28.416 145.962 28.184 146.906 28.184C147.77 28.184 148.514 28.392 149.138 28.808C149.762 29.224 150.226 29.856 150.53 30.704H150.578C150.802 30 151.242 29.408 151.898 28.928C152.57 28.432 153.41 28.184 154.418 28.184C155.65 28.184 156.594 28.608 157.25 29.456C157.922 30.304 158.258 31.512 158.258 33.08V41H155.186V33.392C155.186 31.6 154.514 30.704 153.17 30.704C152.866 30.704 152.57 30.752 152.282 30.848C152.01 30.928 151.762 31.056 151.538 31.232C151.33 31.392 151.162 31.6 151.034 31.856C150.906 32.096 150.842 32.384 150.842 32.72V41H147.77V33.392C147.77 31.6 147.098 30.704 145.754 30.704C145.466 30.704 145.178 30.752 144.89 30.848C144.618 30.928 144.37 31.056 144.146 31.232C143.938 31.392 143.762 31.6 143.618 31.856C143.49 32.096 143.426 32.384 143.426 32.72V41H140.354ZM175.107 38.912H174.987C174.763 39.632 174.339 40.208 173.715 40.64C173.091 41.072 172.363 41.288 171.531 41.288C169.947 41.288 168.731 40.72 167.883 39.584C167.051 38.448 166.635 36.824 166.635 34.712C166.635 32.616 167.051 31.008 167.883 29.888C168.731 28.752 169.947 28.184 171.531 28.184C172.363 28.184 173.091 28.4 173.715 28.832C174.339 29.248 174.763 29.816 174.987 30.536H175.107V23.24H178.179V41H175.107V38.912ZM172.515 38.744C173.251 38.744 173.867 38.568 174.363 38.216C174.859 37.864 175.107 37.36 175.107 36.704V32.72C175.107 32.112 174.859 31.624 174.363 31.256C173.867 30.888 173.251 30.704 172.515 30.704C171.715 30.704 171.067 30.976 170.571 31.52C170.091 32.048 169.851 32.76 169.851 33.656V35.816C169.851 36.712 170.091 37.424 170.571 37.952C171.067 38.48 171.715 38.744 172.515 38.744ZM186.689 41.288C185.793 41.288 184.985 41.136 184.265 40.832C183.561 40.528 182.953 40.088 182.441 39.512C181.945 38.936 181.561 38.248 181.289 37.448C181.017 36.632 180.881 35.72 180.881 34.712C180.881 33.704 181.017 32.8 181.289 32C181.561 31.2 181.945 30.52 182.441 29.96C182.953 29.384 183.561 28.944 184.265 28.64C184.985 28.336 185.793 28.184 186.689 28.184C187.585 28.184 188.393 28.336 189.113 28.64C189.833 28.944 190.441 29.384 190.937 29.96C191.449 30.52 191.841 31.2 192.113 32C192.385 32.8 192.521 33.704 192.521 34.712C192.521 35.72 192.385 36.632 192.113 37.448C191.841 38.248 191.449 38.936 190.937 39.512C190.441 40.088 189.833 40.528 189.113 40.832C188.393 41.136 187.585 41.288 186.689 41.288ZM186.689 38.816C187.505 38.816 188.145 38.568 188.609 38.072C189.073 37.576 189.305 36.848 189.305 35.888V33.56C189.305 32.616 189.073 31.896 188.609 31.4C188.145 30.904 187.505 30.656 186.689 30.656C185.889 30.656 185.257 30.904 184.793 31.4C184.329 31.896 184.097 32.616 184.097 33.56V35.888C184.097 36.848 184.329 37.576 184.793 38.072C185.257 38.568 185.889 38.816 186.689 38.816ZM198.317 41C197.261 41 196.485 40.736 195.989 40.208C195.493 39.68 195.245 38.936 195.245 37.976V23.24H198.317V38.552H199.973V41H198.317ZM207.267 41.288C206.371 41.288 205.563 41.136 204.843 40.832C204.139 40.528 203.531 40.088 203.019 39.512C202.523 38.936 202.139 38.248 201.867 37.448C201.595 36.632 201.459 35.72 201.459 34.712C201.459 33.704 201.595 32.8 201.867 32C202.139 31.2 202.523 30.52 203.019 29.96C203.531 29.384 204.139 28.944 204.843 28.64C205.563 28.336 206.371 28.184 207.267 28.184C208.163 28.184 208.971 28.336 209.691 28.64C210.411 28.944 211.019 29.384 211.515 29.96C212.027 30.52 212.419 31.2 212.691 32C212.963 32.8 213.099 33.704 213.099 34.712C213.099 35.72 212.963 36.632 212.691 37.448C212.419 38.248 212.027 38.936 211.515 39.512C211.019 40.088 210.411 40.528 209.691 40.832C208.971 41.136 208.163 41.288 207.267 41.288ZM207.267 38.816C208.083 38.816 208.723 38.568 209.187 38.072C209.651 37.576 209.883 36.848 209.883 35.888V33.56C209.883 32.616 209.651 31.896 209.187 31.4C208.723 30.904 208.083 30.656 207.267 30.656C206.467 30.656 205.835 30.904 205.371 31.4C204.907 31.896 204.675 32.616 204.675 33.56V35.888C204.675 36.848 204.907 37.576 205.371 38.072C205.835 38.568 206.467 38.816 207.267 38.816ZM215.823 41V28.472H218.895V31.064H219.015C219.095 30.728 219.215 30.408 219.375 30.104C219.551 29.784 219.775 29.504 220.047 29.264C220.319 29.024 220.639 28.832 221.007 28.688C221.391 28.544 221.831 28.472 222.327 28.472H222.999V31.376H222.039C220.999 31.376 220.215 31.528 219.687 31.832C219.159 32.136 218.895 32.632 218.895 33.32V41H215.823ZM235.021 41.288C233.821 41.288 232.813 41.088 231.997 40.688C231.181 40.272 230.461 39.704 229.837 38.984L231.709 37.16C232.173 37.688 232.677 38.104 233.221 38.408C233.781 38.712 234.421 38.864 235.141 38.864C235.877 38.864 236.405 38.736 236.725 38.48C237.061 38.224 237.229 37.872 237.229 37.424C237.229 37.056 237.109 36.768 236.869 36.56C236.645 36.336 236.253 36.184 235.693 36.104L234.445 35.936C233.085 35.76 232.045 35.376 231.325 34.784C230.621 34.176 230.269 33.296 230.269 32.144C230.269 31.536 230.381 30.992 230.605 30.512C230.829 30.016 231.149 29.6 231.565 29.264C231.981 28.912 232.477 28.648 233.053 28.472C233.645 28.28 234.301 28.184 235.021 28.184C235.629 28.184 236.165 28.232 236.629 28.328C237.109 28.408 237.541 28.536 237.925 28.712C238.309 28.872 238.661 29.08 238.981 29.336C239.301 29.576 239.613 29.848 239.917 30.152L238.117 31.952C237.749 31.568 237.309 31.248 236.797 30.992C236.285 30.736 235.725 30.608 235.117 30.608C234.445 30.608 233.957 30.728 233.653 30.968C233.365 31.208 233.221 31.52 233.221 31.904C233.221 32.32 233.341 32.64 233.581 32.864C233.837 33.072 234.261 33.224 234.853 33.32L236.125 33.488C238.829 33.872 240.181 35.104 240.181 37.184C240.181 37.792 240.053 38.352 239.797 38.864C239.557 39.36 239.213 39.792 238.765 40.16C238.317 40.512 237.773 40.792 237.133 41C236.509 41.192 235.805 41.288 235.021 41.288ZM244.429 26.648C243.789 26.648 243.325 26.504 243.037 26.216C242.765 25.928 242.629 25.56 242.629 25.112V24.632C242.629 24.184 242.765 23.816 243.037 23.528C243.325 23.24 243.789 23.096 244.429 23.096C245.053 23.096 245.509 23.24 245.797 23.528C246.085 23.816 246.229 24.184 246.229 24.632V25.112C246.229 25.56 246.085 25.928 245.797 26.216C245.509 26.504 245.053 26.648 244.429 26.648ZM242.893 28.472H245.965V41H242.893V28.472ZM253.438 41C252.382 41 251.574 40.728 251.014 40.184C250.47 39.624 250.198 38.832 250.198 37.808V30.92H248.35V28.472H249.31C249.774 28.472 250.086 28.368 250.246 28.16C250.422 27.936 250.51 27.608 250.51 27.176V25.04H253.27V28.472H255.838V30.92H253.27V38.552H255.646V41H253.438ZM273.39 41C272.718 41 272.182 40.808 271.782 40.424C271.398 40.024 271.158 39.496 271.062 38.84H270.918C270.71 39.656 270.286 40.272 269.646 40.688C269.006 41.088 268.214 41.288 267.27 41.288C265.99 41.288 265.006 40.952 264.318 40.28C263.63 39.608 263.286 38.712 263.286 37.592C263.286 36.296 263.75 35.336 264.678 34.712C265.606 34.072 266.926 33.752 268.638 33.752H270.774V32.84C270.774 32.136 270.59 31.592 270.222 31.208C269.854 30.824 269.262 30.632 268.446 30.632C267.726 30.632 267.142 30.792 266.694 31.112C266.262 31.416 265.894 31.784 265.59 32.216L263.766 30.584C264.23 29.864 264.846 29.288 265.614 28.856C266.382 28.408 267.398 28.184 268.662 28.184C270.358 28.184 271.646 28.568 272.526 29.336C273.406 30.104 273.846 31.208 273.846 32.648V38.552H275.094V41H273.39ZM268.302 39.056C268.99 39.056 269.574 38.904 270.054 38.6C270.534 38.296 270.774 37.848 270.774 37.256V35.6H268.806C267.206 35.6 266.406 36.112 266.406 37.136V37.544C266.406 38.056 266.566 38.44 266.886 38.696C267.222 38.936 267.694 39.056 268.302 39.056ZM277.581 41V28.472H280.653V30.56H280.773C281.013 29.904 281.397 29.344 281.925 28.88C282.453 28.416 283.189 28.184 284.133 28.184C284.997 28.184 285.741 28.392 286.365 28.808C286.989 29.224 287.453 29.856 287.757 30.704H287.805C288.029 30 288.469 29.408 289.125 28.928C289.797 28.432 290.637 28.184 291.645 28.184C292.877 28.184 293.821 28.608 294.477 29.456C295.149 30.304 295.485 31.512 295.485 33.08V41H292.413V33.392C292.413 31.6 291.741 30.704 290.397 30.704C290.093 30.704 289.797 30.752 289.509 30.848C289.237 30.928 288.989 31.056 288.765 31.232C288.557 31.392 288.389 31.6 288.261 31.856C288.133 32.096 288.069 32.384 288.069 32.72V41H284.997V33.392C284.997 31.6 284.325 30.704 282.981 30.704C282.693 30.704 282.405 30.752 282.117 30.848C281.845 30.928 281.597 31.056 281.373 31.232C281.165 31.392 280.989 31.6 280.845 31.856C280.717 32.096 280.653 32.384 280.653 32.72V41H277.581ZM303.949 41.288C303.021 41.288 302.189 41.136 301.453 40.832C300.733 40.512 300.117 40.072 299.605 39.512C299.109 38.936 298.725 38.248 298.453 37.448C298.181 36.632 298.045 35.72 298.045 34.712C298.045 33.72 298.173 32.824 298.429 32.024C298.701 31.224 299.085 30.544 299.581 29.984C300.077 29.408 300.685 28.968 301.405 28.664C302.125 28.344 302.941 28.184 303.853 28.184C304.829 28.184 305.677 28.352 306.397 28.688C307.117 29.024 307.709 29.48 308.173 30.056C308.637 30.632 308.981 31.304 309.205 32.072C309.445 32.824 309.565 33.632 309.565 34.496V35.504H301.237V35.816C301.237 36.728 301.493 37.464 302.005 38.024C302.517 38.568 303.277 38.84 304.285 38.84C305.053 38.84 305.677 38.68 306.157 38.36C306.653 38.04 307.093 37.632 307.477 37.136L309.133 38.984C308.621 39.704 307.917 40.272 307.021 40.688C306.141 41.088 305.117 41.288 303.949 41.288ZM303.901 30.488C303.085 30.488 302.437 30.76 301.957 31.304C301.477 31.848 301.237 32.552 301.237 33.416V33.608H306.373V33.392C306.373 32.528 306.157 31.832 305.725 31.304C305.309 30.76 304.701 30.488 303.901 30.488ZM316.18 41C315.124 41 314.316 40.728 313.756 40.184C313.212 39.624 312.94 38.832 312.94 37.808V30.92H311.092V28.472H312.052C312.516 28.472 312.828 28.368 312.988 28.16C313.164 27.936 313.252 27.608 313.252 27.176V25.04H316.012V28.472H318.58V30.92H316.012V38.552H318.388V41H316.18Z" fill="black"/>
<rect x="17" y="311" width="84" height="38.0001" rx="3" fill="#0059B3"/>
<rect x="18.5" y="346.5" width="81" height="1" stroke="#004993"/>
<path d="M36.932 329.052L35.546 326.388H35.492V336H33.548V323.436H35.816L39.92 330.384L41.306 333.048H41.36V323.436H43.304V336H41.036L36.932 329.052ZM49.6016 331.824C48.2456 331.848 47.5676 332.274 47.5676 333.102V333.426C47.5676 333.846 47.7056 334.17 47.9816 334.398C48.2696 334.614 48.6716 334.722 49.1876 334.722C49.7636 334.722 50.2496 334.59 50.6456 334.326C51.0536 334.05 51.2576 333.684 51.2576 333.228V331.824H49.6016ZM57.5756 330.528V330.348C57.5756 329.628 57.3896 329.052 57.0176 328.62C56.6456 328.176 56.1356 327.954 55.4876 327.954C55.1516 327.954 54.8396 328.014 54.5516 328.134C54.2756 328.254 54.0356 328.422 53.8316 328.638C53.6396 328.854 53.4896 329.112 53.3816 329.412C53.2736 329.712 53.2196 330.042 53.2196 330.402V330.528H57.5756ZM55.7216 334.596C56.2976 334.596 56.7836 334.47 57.1796 334.218C57.5876 333.966 57.9176 333.63 58.1696 333.21L59.3216 334.326C58.9736 334.902 58.4756 335.364 57.8276 335.712C57.1916 336.048 56.4596 336.216 55.6316 336.216C55.1636 336.216 54.7256 336.156 54.3176 336.036C53.9216 335.916 53.5676 335.76 53.2556 335.568C52.9556 335.376 52.7036 335.166 52.4996 334.938C52.3076 334.698 52.1696 334.464 52.0856 334.236H51.9776C51.9176 334.452 51.7976 334.68 51.6176 334.92C51.4496 335.148 51.2276 335.358 50.9516 335.55C50.6756 335.742 50.3396 335.898 49.9436 336.018C49.5476 336.15 49.0976 336.216 48.5936 336.216C47.6456 336.216 46.9016 335.958 46.3616 335.442C45.8336 334.926 45.5696 334.254 45.5696 333.426C45.5696 332.478 45.9176 331.758 46.6136 331.266C47.3096 330.774 48.2936 330.528 49.5656 330.528H51.2576V329.826C51.2576 329.25 51.1016 328.806 50.7896 328.494C50.4776 328.182 49.9976 328.026 49.3496 328.026C48.7736 328.026 48.3116 328.146 47.9636 328.386C47.6276 328.614 47.3396 328.914 47.0996 329.286L45.9296 328.242C46.2416 327.714 46.6796 327.282 47.2436 326.946C47.8076 326.598 48.5456 326.424 49.4576 326.424C49.8896 326.424 50.2616 326.478 50.5736 326.586C50.8856 326.694 51.1496 326.832 51.3656 327C51.5936 327.168 51.7736 327.36 51.9056 327.576C52.0496 327.78 52.1696 327.984 52.2656 328.188H52.3736C52.4696 327.972 52.6136 327.762 52.8056 327.558C52.9976 327.342 53.2256 327.15 53.4896 326.982C53.7656 326.814 54.0776 326.682 54.4256 326.586C54.7856 326.478 55.1756 326.424 55.5956 326.424C56.2676 326.424 56.8556 326.544 57.3596 326.784C57.8636 327.024 58.2836 327.36 58.6196 327.792C58.9676 328.212 59.2256 328.704 59.3936 329.268C59.5616 329.832 59.6456 330.438 59.6456 331.086V331.824H53.2196V332.13C53.2196 332.85 53.4356 333.444 53.8676 333.912C54.3116 334.368 54.9296 334.596 55.7216 334.596ZM64.7978 336.216C63.9098 336.216 63.1658 336.06 62.5658 335.748C61.9658 335.436 61.4438 335.004 60.9998 334.452L62.2598 333.3C62.6078 333.72 62.9918 334.05 63.4118 334.29C63.8438 334.518 64.3418 334.632 64.9058 334.632C65.4818 334.632 65.9078 334.524 66.1838 334.308C66.4718 334.08 66.6158 333.768 66.6158 333.372C66.6158 333.072 66.5138 332.82 66.3098 332.616C66.1178 332.4 65.7758 332.262 65.2838 332.202L64.4198 332.094C63.4598 331.974 62.7038 331.698 62.1518 331.266C61.6118 330.822 61.3418 330.168 61.3418 329.304C61.3418 328.848 61.4258 328.446 61.5938 328.098C61.7618 327.738 61.9958 327.438 62.2958 327.198C62.6078 326.946 62.9738 326.754 63.3938 326.622C63.8258 326.49 64.2998 326.424 64.8158 326.424C65.6558 326.424 66.3398 326.556 66.8678 326.82C67.4078 327.084 67.8878 327.45 68.3078 327.918L67.1018 329.07C66.8618 328.782 66.5438 328.536 66.1478 328.332C65.7638 328.116 65.3198 328.008 64.8158 328.008C64.2758 328.008 63.8738 328.116 63.6098 328.332C63.3578 328.548 63.2318 328.83 63.2318 329.178C63.2318 329.538 63.3458 329.808 63.5738 329.988C63.8018 330.168 64.1678 330.3 64.6718 330.384L65.5358 330.492C66.5678 330.648 67.3178 330.954 67.7858 331.41C68.2658 331.854 68.5058 332.454 68.5058 333.21C68.5058 333.666 68.4158 334.08 68.2358 334.452C68.0678 334.812 67.8218 335.124 67.4978 335.388C67.1738 335.652 66.7838 335.856 66.3278 336C65.8718 336.144 65.3618 336.216 64.7978 336.216ZM73.1913 336C72.5073 336 71.9913 335.826 71.6433 335.478C71.2953 335.118 71.1213 334.614 71.1213 333.966V328.242H69.6633V326.64H70.4553C70.7793 326.64 71.0013 326.568 71.1213 326.424C71.2533 326.28 71.3193 326.046 71.3193 325.722V324.084H73.0833V326.64H75.0453V328.242H73.0833V334.398H74.9013V336H73.1913ZM80.7752 336.216C80.1032 336.216 79.5032 336.102 78.9752 335.874C78.4472 335.646 77.9972 335.322 77.6252 334.902C77.2532 334.47 76.9652 333.954 76.7612 333.354C76.5692 332.742 76.4732 332.064 76.4732 331.32C76.4732 330.576 76.5692 329.904 76.7612 329.304C76.9652 328.692 77.2532 328.176 77.6252 327.756C77.9972 327.324 78.4472 326.994 78.9752 326.766C79.5032 326.538 80.1032 326.424 80.7752 326.424C81.4592 326.424 82.0592 326.544 82.5752 326.784C83.1032 327.024 83.5412 327.36 83.8892 327.792C84.2372 328.212 84.4952 328.704 84.6632 329.268C84.8432 329.832 84.9332 330.438 84.9332 331.086V331.824H78.5072V332.13C78.5072 332.85 78.7172 333.444 79.1372 333.912C79.5692 334.368 80.1812 334.596 80.9732 334.596C81.5492 334.596 82.0352 334.47 82.4312 334.218C82.8272 333.966 83.1632 333.624 83.4392 333.192L84.5912 334.326C84.2432 334.902 83.7392 335.364 83.0792 335.712C82.4192 336.048 81.6512 336.216 80.7752 336.216ZM80.7752 327.954C80.4392 327.954 80.1272 328.014 79.8392 328.134C79.5632 328.254 79.3232 328.422 79.1192 328.638C78.9272 328.854 78.7772 329.112 78.6692 329.412C78.5612 329.712 78.5072 330.042 78.5072 330.402V330.528H82.8632V330.348C82.8632 329.628 82.6772 329.052 82.3052 328.62C81.9332 328.176 81.4232 327.954 80.7752 327.954Z" fill="white"/>
<rect x="17" y="311" width="84" height="38.0001" rx="3" stroke="#004993" stroke-width="2"/>
<rect width="205" height="20" transform="translate(16 214)" fill="#DCDCDC"/>
<rect width="205" height="20" transform="translate(16 162)" fill="#DCDCDC"/>
<rect width="205" height="20" transform="translate(16 266)" fill="#DCDCDC"/>
<rect width="118" height="12" transform="translate(16 198)" fill="#DCDCDC"/>
<rect width="118" height="12" transform="translate(16 146)" fill="#DCDCDC"/>
<rect width="118" height="12" transform="translate(16 250)" fill="#DCDCDC"/>
<path d="M103 79L108 84L113 79H103Z" fill="#1A1A1A"/>
<path d="M26.248 75.016V85H24.904V75.016H21.352V73.832H29.8V75.016H26.248ZM30.7975 85V76.744H32.0775V78.264H32.1575C32.3068 77.8693 32.5735 77.5173 32.9575 77.208C33.3415 76.8987 33.8695 76.744 34.5415 76.744H35.0375V78.024H34.2855C33.5922 78.024 33.0482 78.1573 32.6535 78.424C32.2695 78.68 32.0775 79.0053 32.0775 79.4V85H30.7975ZM37.3125 74.808C37.0352 74.808 36.8325 74.744 36.7045 74.616C36.5872 74.4773 36.5285 74.3013 36.5285 74.088V73.88C36.5285 73.6667 36.5872 73.496 36.7045 73.368C36.8325 73.2293 37.0352 73.16 37.3125 73.16C37.5898 73.16 37.7872 73.2293 37.9045 73.368C38.0325 73.496 38.0965 73.6667 38.0965 73.88V74.088C38.0965 74.3013 38.0325 74.4773 37.9045 74.616C37.7872 74.744 37.5898 74.808 37.3125 74.808ZM36.6725 76.744H37.9525V85H36.6725V76.744ZM40.6725 85V76.744H41.9525V78.088H42.0165C42.2192 77.6187 42.5018 77.2453 42.8645 76.968C43.2378 76.6907 43.7338 76.552 44.3525 76.552C45.2058 76.552 45.8778 76.8293 46.3685 77.384C46.8698 77.928 47.1205 78.7013 47.1205 79.704V85H45.8405V79.928C45.8405 78.4453 45.2165 77.704 43.9685 77.704C43.7125 77.704 43.4618 77.736 43.2165 77.8C42.9818 77.864 42.7685 77.96 42.5765 78.088C42.3845 78.216 42.2298 78.3813 42.1125 78.584C42.0058 78.776 41.9525 79.0053 41.9525 79.272V85H40.6725ZM53.5955 85V83.816H56.7155V74.824H56.6035L53.7875 77.448L53.0035 76.6L55.9635 73.832H58.0595V83.816H60.9395V85H53.5955ZM72.9225 85C72.4425 85 72.0958 84.872 71.8825 84.616C71.6798 84.36 71.5518 84.04 71.4985 83.656H71.4185C71.2372 84.168 70.9385 84.552 70.5225 84.808C70.1065 85.064 69.6105 85.192 69.0345 85.192C68.1598 85.192 67.4772 84.968 66.9865 84.52C66.5065 84.072 66.2665 83.464 66.2665 82.696C66.2665 81.9173 66.5492 81.32 67.1145 80.904C67.6905 80.488 68.5812 80.28 69.7865 80.28H71.4185V79.464C71.4185 78.8773 71.2585 78.4293 70.9385 78.12C70.6185 77.8107 70.1278 77.656 69.4665 77.656C68.9652 77.656 68.5438 77.768 68.2025 77.992C67.8718 78.216 67.5945 78.5147 67.3705 78.888L66.6025 78.168C66.8265 77.72 67.1838 77.3413 67.6745 77.032C68.1652 76.712 68.7838 76.552 69.5305 76.552C70.5332 76.552 71.3118 76.7973 71.8665 77.288C72.4212 77.7787 72.6985 78.4613 72.6985 79.336V83.88H73.6425V85H72.9225ZM69.2425 84.104C69.5625 84.104 69.8558 84.0667 70.1225 83.992C70.3892 83.9173 70.6185 83.8107 70.8105 83.672C71.0025 83.5333 71.1518 83.3733 71.2585 83.192C71.3652 83.0107 71.4185 82.8133 71.4185 82.6V81.24H69.7225C68.9865 81.24 68.4478 81.3467 68.1065 81.56C67.7758 81.7733 67.6105 82.0827 67.6105 82.488V82.824C67.6105 83.2293 67.7545 83.544 68.0425 83.768C68.3412 83.992 68.7412 84.104 69.2425 84.104ZM75.9174 77.864H74.5734V76.744H75.9174V75.08C75.9174 74.504 76.0667 74.04 76.3654 73.688C76.664 73.336 77.1174 73.16 77.7254 73.16H78.9734V74.28H77.1974V76.744H78.9734V77.864H77.1974V85H75.9174V77.864ZM91.0461 75.016H86.1501L85.8301 79.272H85.9421C86.2088 78.8987 86.5075 78.6 86.8381 78.376C87.1795 78.152 87.6435 78.04 88.2301 78.04C88.7101 78.04 89.1528 78.12 89.5581 78.28C89.9635 78.44 90.3155 78.6693 90.6141 78.968C90.9128 79.256 91.1421 79.6133 91.3021 80.04C91.4728 80.4667 91.5581 80.952 91.5581 81.496C91.5581 82.04 91.4728 82.5413 91.3021 83C91.1315 83.448 90.8808 83.8373 90.5501 84.168C90.2301 84.488 89.8355 84.7387 89.3661 84.92C88.9075 85.1013 88.3848 85.192 87.7981 85.192C87.3288 85.192 86.9128 85.1387 86.5501 85.032C86.1981 84.9253 85.8835 84.7813 85.6061 84.6C85.3288 84.4187 85.0835 84.216 84.8701 83.992C84.6675 83.768 84.4808 83.5333 84.3101 83.288L85.3181 82.52C85.4568 82.744 85.6008 82.9467 85.7501 83.128C85.9101 83.3093 86.0808 83.464 86.2621 83.592C86.4541 83.72 86.6728 83.8213 86.9181 83.896C87.1635 83.96 87.4568 83.992 87.7981 83.992C88.5661 83.992 89.1475 83.7893 89.5421 83.384C89.9368 82.9787 90.1341 82.408 90.1341 81.672V81.512C90.1341 80.776 89.9368 80.2053 89.5421 79.8C89.1475 79.3947 88.5661 79.192 87.7981 79.192C87.2861 79.192 86.8808 79.288 86.5821 79.48C86.2941 79.6613 86.0328 79.88 85.7981 80.136L84.6621 79.976L85.0621 73.832H91.0461V75.016Z" fill="#1A1A1A"/>
<path d="M24.224 124L23.328 121.152H19.36L18.48 124H16.336L20.08 112.832H22.704L26.416 124H24.224ZM21.376 114.752H21.296L19.872 119.344H22.816L21.376 114.752ZM27.934 124V115.648H29.982V117.04H30.062C30.2327 116.592 30.4993 116.219 30.862 115.92C31.2353 115.611 31.7473 115.456 32.398 115.456C33.262 115.456 33.9233 115.739 34.382 116.304C34.8407 116.869 35.07 117.675 35.07 118.72V124H33.022V118.928C33.022 118.331 32.9153 117.883 32.702 117.584C32.4887 117.285 32.1367 117.136 31.646 117.136C31.4327 117.136 31.2247 117.168 31.022 117.232C30.83 117.285 30.654 117.371 30.494 117.488C30.3447 117.595 30.222 117.733 30.126 117.904C30.03 118.064 29.982 118.256 29.982 118.48V124H27.934ZM44.8763 124.704C44.8763 125.141 44.7963 125.525 44.6363 125.856C44.4869 126.197 44.2363 126.48 43.8843 126.704C43.5323 126.928 43.0789 127.099 42.5243 127.216C41.9696 127.333 41.2923 127.392 40.4923 127.392C39.7883 127.392 39.1909 127.344 38.7003 127.248C38.2096 127.163 37.8043 127.035 37.4843 126.864C37.1749 126.704 36.9509 126.501 36.8123 126.256C36.6736 126.011 36.6043 125.733 36.6043 125.424C36.6043 124.955 36.7323 124.587 36.9883 124.32C37.2549 124.064 37.6229 123.899 38.0923 123.824V123.648C37.7509 123.563 37.4843 123.397 37.2923 123.152C37.1109 122.896 37.0203 122.597 37.0203 122.256C37.0203 122.043 37.0629 121.856 37.1483 121.696C37.2336 121.525 37.3456 121.381 37.4843 121.264C37.6336 121.147 37.7989 121.051 37.9803 120.976C38.1616 120.891 38.3536 120.827 38.5563 120.784V120.72C38.0443 120.485 37.6603 120.16 37.4043 119.744C37.1589 119.328 37.0363 118.843 37.0363 118.288C37.0363 117.435 37.3296 116.752 37.9163 116.24C38.5029 115.717 39.3616 115.456 40.4923 115.456C40.7483 115.456 40.9989 115.472 41.2443 115.504C41.5003 115.536 41.7349 115.589 41.9483 115.664V115.392C41.9483 114.581 42.3429 114.176 43.1323 114.176H44.4283V115.744H42.6523V115.968C43.0896 116.213 43.4149 116.533 43.6283 116.928C43.8416 117.323 43.9483 117.776 43.9483 118.288C43.9483 119.131 43.6549 119.808 43.0683 120.32C42.4923 120.832 41.6336 121.088 40.4923 121.088C40.0016 121.088 39.5749 121.04 39.2123 120.944C39.0523 121.019 38.9136 121.12 38.7963 121.248C38.6789 121.365 38.6203 121.515 38.6203 121.696C38.6203 122.112 38.9829 122.32 39.7083 122.32H41.9483C42.9723 122.32 43.7136 122.533 44.1723 122.96C44.6416 123.376 44.8763 123.957 44.8763 124.704ZM42.9563 124.944C42.9563 124.677 42.8496 124.469 42.6363 124.32C42.4229 124.171 42.0549 124.096 41.5323 124.096H38.6843C38.3963 124.309 38.2523 124.597 38.2523 124.96C38.2523 125.28 38.3856 125.531 38.6523 125.712C38.9189 125.893 39.3723 125.984 40.0123 125.984H41.0363C41.7083 125.984 42.1936 125.899 42.4923 125.728C42.8016 125.557 42.9563 125.296 42.9563 124.944ZM40.4923 119.696C41.4949 119.696 41.9963 119.269 41.9963 118.416V118.144C41.9963 117.291 41.4949 116.864 40.4923 116.864C39.4896 116.864 38.9883 117.291 38.9883 118.144V118.416C38.9883 119.269 39.4896 119.696 40.4923 119.696ZM47.083 114.432C46.6563 114.432 46.347 114.336 46.155 114.144C45.9737 113.952 45.883 113.707 45.883 113.408V113.088C45.883 112.789 45.9737 112.544 46.155 112.352C46.347 112.16 46.6563 112.064 47.083 112.064C47.499 112.064 47.803 112.16 47.995 112.352C48.187 112.544 48.283 112.789 48.283 113.088V113.408C48.283 113.707 48.187 113.952 47.995 114.144C47.803 114.336 47.499 114.432 47.083 114.432ZM46.059 115.648H48.107V124H46.059V115.648ZM52.2729 124L49.4889 115.648H51.5049L52.6729 119.248L53.4889 122.224H53.6009L54.4169 119.248L55.5529 115.648H57.5049L54.7049 124H52.2729ZM62.6528 112.16H64.7008V119.296H64.7808L65.8848 117.792L67.7568 115.648H70.0768L67.1968 118.88L70.3808 124H67.9488L65.8048 120.256L64.7008 121.456V124H62.6528V112.16ZM74.5585 124.192C73.9612 124.192 73.4225 124.091 72.9425 123.888C72.4732 123.685 72.0678 123.392 71.7265 123.008C71.3958 122.624 71.1398 122.165 70.9585 121.632C70.7772 121.088 70.6865 120.48 70.6865 119.808C70.6865 119.136 70.7772 118.533 70.9585 118C71.1398 117.467 71.3958 117.013 71.7265 116.64C72.0678 116.256 72.4732 115.963 72.9425 115.76C73.4225 115.557 73.9612 115.456 74.5585 115.456C75.1558 115.456 75.6945 115.557 76.1745 115.76C76.6545 115.963 77.0598 116.256 77.3905 116.64C77.7318 117.013 77.9932 117.467 78.1745 118C78.3558 118.533 78.4465 119.136 78.4465 119.808C78.4465 120.48 78.3558 121.088 78.1745 121.632C77.9932 122.165 77.7318 122.624 77.3905 123.008C77.0598 123.392 76.6545 123.685 76.1745 123.888C75.6945 124.091 75.1558 124.192 74.5585 124.192ZM74.5585 122.544C75.1025 122.544 75.5292 122.379 75.8385 122.048C76.1478 121.717 76.3025 121.232 76.3025 120.592V119.04C76.3025 118.411 76.1478 117.931 75.8385 117.6C75.5292 117.269 75.1025 117.104 74.5585 117.104C74.0252 117.104 73.6038 117.269 73.2945 117.6C72.9852 117.931 72.8305 118.411 72.8305 119.04V120.592C72.8305 121.232 72.9852 121.717 73.2945 122.048C73.6038 122.379 74.0252 122.544 74.5585 122.544ZM80.2621 124V115.648H82.3101V117.04H82.3901C82.5608 116.592 82.8275 116.219 83.1901 115.92C83.5635 115.611 84.0755 115.456 84.7261 115.456C85.5901 115.456 86.2515 115.739 86.7101 116.304C87.1688 116.869 87.3981 117.675 87.3981 118.72V124H85.3501V118.928C85.3501 118.331 85.2435 117.883 85.0301 117.584C84.8168 117.285 84.4648 117.136 83.9741 117.136C83.7608 117.136 83.5528 117.168 83.3501 117.232C83.1581 117.285 82.9821 117.371 82.8221 117.488C82.6728 117.595 82.5501 117.733 82.4541 117.904C82.3581 118.064 82.3101 118.256 82.3101 118.48V124H80.2621ZM92.2764 124C91.5724 124 91.0337 123.819 90.6604 123.456C90.2977 123.083 90.1164 122.555 90.1164 121.872V117.28H88.8844V115.648H89.5244C89.8337 115.648 90.0417 115.579 90.1484 115.44C90.2657 115.291 90.3244 115.072 90.3244 114.784V113.36H92.1644V115.648H93.8764V117.28H92.1644V122.368H93.7484V124H92.2764ZM101.797 124C101.349 124 100.991 123.872 100.725 123.616C100.469 123.349 100.309 122.997 100.245 122.56H100.149C100.01 123.104 99.7274 123.515 99.3008 123.792C98.8741 124.059 98.3461 124.192 97.7168 124.192C96.8634 124.192 96.2074 123.968 95.7488 123.52C95.2901 123.072 95.0608 122.475 95.0608 121.728C95.0608 120.864 95.3701 120.224 95.9888 119.808C96.6074 119.381 97.4874 119.168 98.6288 119.168H100.053V118.56C100.053 118.091 99.9301 117.728 99.6848 117.472C99.4394 117.216 99.0448 117.088 98.5008 117.088C98.0208 117.088 97.6314 117.195 97.3328 117.408C97.0448 117.611 96.7994 117.856 96.5968 118.144L95.3808 117.056C95.6901 116.576 96.1008 116.192 96.6128 115.904C97.1248 115.605 97.8021 115.456 98.6448 115.456C99.7754 115.456 100.634 115.712 101.221 116.224C101.807 116.736 102.101 117.472 102.101 118.432V122.368H102.933V124H101.797ZM98.4048 122.704C98.8634 122.704 99.2528 122.603 99.5728 122.4C99.8928 122.197 100.053 121.899 100.053 121.504V120.4H98.7408C97.6741 120.4 97.1408 120.741 97.1408 121.424V121.696C97.1408 122.037 97.2474 122.293 97.4608 122.464C97.6848 122.624 97.9994 122.704 98.4048 122.704ZM104.59 112.16H106.638V119.296H106.718L107.822 117.792L109.694 115.648H112.014L109.134 118.88L112.318 124H109.886L107.742 120.256L106.638 121.456V124H104.59V112.16ZM116.026 124C115.322 124 114.784 123.819 114.41 123.456C114.048 123.083 113.866 122.555 113.866 121.872V117.28H112.634V115.648H113.274C113.584 115.648 113.792 115.579 113.898 115.44C114.016 115.291 114.074 115.072 114.074 114.784V113.36H115.914V115.648H117.626V117.28H115.914V122.368H117.498V124H116.026ZM122.652 124.192C122.055 124.192 121.516 124.091 121.036 123.888C120.567 123.685 120.162 123.392 119.82 123.008C119.49 122.624 119.234 122.165 119.052 121.632C118.871 121.088 118.78 120.48 118.78 119.808C118.78 119.136 118.871 118.533 119.052 118C119.234 117.467 119.49 117.013 119.82 116.64C120.162 116.256 120.567 115.963 121.036 115.76C121.516 115.557 122.055 115.456 122.652 115.456C123.25 115.456 123.788 115.557 124.268 115.76C124.748 115.963 125.154 116.256 125.484 116.64C125.826 117.013 126.087 117.467 126.268 118C126.45 118.533 126.54 119.136 126.54 119.808C126.54 120.48 126.45 121.088 126.268 121.632C126.087 122.165 125.826 122.624 125.484 123.008C125.154 123.392 124.748 123.685 124.268 123.888C123.788 124.091 123.25 124.192 122.652 124.192ZM122.652 122.544C123.196 122.544 123.623 122.379 123.932 122.048C124.242 121.717 124.396 121.232 124.396 120.592V119.04C124.396 118.411 124.242 117.931 123.932 117.6C123.623 117.269 123.196 117.104 122.652 117.104C122.119 117.104 121.698 117.269 121.388 117.6C121.079 117.931 120.924 118.411 120.924 119.04V120.592C120.924 121.232 121.079 121.717 121.388 122.048C121.698 122.379 122.119 122.544 122.652 122.544ZM128.356 115.648H130.404V117.024H130.468C130.617 116.544 130.9 116.165 131.316 115.888C131.732 115.6 132.217 115.456 132.772 115.456C133.839 115.456 134.649 115.835 135.204 116.592C135.769 117.339 136.052 118.411 136.052 119.808C136.052 121.216 135.769 122.299 135.204 123.056C134.649 123.813 133.839 124.192 132.772 124.192C132.217 124.192 131.732 124.048 131.316 123.76C130.911 123.472 130.628 123.088 130.468 122.608H130.404V127.2H128.356V115.648ZM132.116 122.496C132.649 122.496 133.081 122.32 133.412 121.968C133.743 121.616 133.908 121.141 133.908 120.544V119.104C133.908 118.507 133.743 118.032 133.412 117.68C133.081 117.317 132.649 117.136 132.116 117.136C131.625 117.136 131.215 117.259 130.884 117.504C130.564 117.749 130.404 118.075 130.404 118.48V121.136C130.404 121.573 130.564 121.909 130.884 122.144C131.215 122.379 131.625 122.496 132.116 122.496ZM139.998 124C139.294 124 138.776 123.824 138.446 123.472C138.115 123.12 137.95 122.624 137.95 121.984V112.16H139.998V122.368H141.102V124H139.998ZM147.663 115.648H149.583L146.223 125.488C146.117 125.787 145.994 126.043 145.855 126.256C145.727 126.48 145.573 126.661 145.391 126.8C145.21 126.939 144.991 127.04 144.735 127.104C144.479 127.168 144.181 127.2 143.839 127.2H142.607V125.568H144.111L144.495 124.4L141.503 115.648H143.535L144.991 120.064L145.535 122.176H145.631L146.207 120.064L147.663 115.648ZM153.545 124.192C152.745 124.192 152.073 124.059 151.529 123.792C150.985 123.515 150.505 123.136 150.089 122.656L151.337 121.44C151.646 121.792 151.982 122.069 152.345 122.272C152.718 122.475 153.145 122.576 153.625 122.576C154.116 122.576 154.468 122.491 154.681 122.32C154.905 122.149 155.017 121.915 155.017 121.616C155.017 121.371 154.937 121.179 154.777 121.04C154.628 120.891 154.366 120.789 153.993 120.736L153.161 120.624C152.254 120.507 151.561 120.251 151.081 119.856C150.612 119.451 150.377 118.864 150.377 118.096C150.377 117.691 150.452 117.328 150.601 117.008C150.75 116.677 150.964 116.4 151.241 116.176C151.518 115.941 151.849 115.765 152.233 115.648C152.628 115.52 153.065 115.456 153.545 115.456C153.95 115.456 154.308 115.488 154.617 115.552C154.937 115.605 155.225 115.691 155.481 115.808C155.737 115.915 155.972 116.053 156.185 116.224C156.398 116.384 156.606 116.565 156.809 116.768L155.609 117.968C155.364 117.712 155.07 117.499 154.729 117.328C154.388 117.157 154.014 117.072 153.609 117.072C153.161 117.072 152.836 117.152 152.633 117.312C152.441 117.472 152.345 117.68 152.345 117.936C152.345 118.213 152.425 118.427 152.585 118.576C152.756 118.715 153.038 118.816 153.433 118.88L154.281 118.992C156.084 119.248 156.985 120.069 156.985 121.456C156.985 121.861 156.9 122.235 156.729 122.576C156.569 122.907 156.34 123.195 156.041 123.44C155.742 123.675 155.38 123.861 154.953 124C154.537 124.128 154.068 124.192 153.545 124.192ZM158.793 124V115.648H160.841V117.04H160.921C161.092 116.592 161.359 116.219 161.721 115.92C162.095 115.611 162.607 115.456 163.257 115.456C164.121 115.456 164.783 115.739 165.241 116.304C165.7 116.869 165.929 117.675 165.929 118.72V124H163.881V118.928C163.881 118.331 163.775 117.883 163.561 117.584C163.348 117.285 162.996 117.136 162.505 117.136C162.292 117.136 162.084 117.168 161.881 117.232C161.689 117.285 161.513 117.371 161.353 117.488C161.204 117.595 161.081 117.733 160.985 117.904C160.889 118.064 160.841 118.256 160.841 118.48V124H158.793ZM169.224 114.432C168.797 114.432 168.488 114.336 168.296 114.144C168.114 113.952 168.024 113.707 168.024 113.408V113.088C168.024 112.789 168.114 112.544 168.296 112.352C168.488 112.16 168.797 112.064 169.224 112.064C169.64 112.064 169.944 112.16 170.136 112.352C170.328 112.544 170.424 112.789 170.424 113.088V113.408C170.424 113.707 170.328 113.952 170.136 114.144C169.944 114.336 169.64 114.432 169.224 114.432ZM168.2 115.648H170.248V124H168.2V115.648ZM172.622 124V115.648H174.67V117.04H174.75C174.92 116.592 175.187 116.219 175.549 115.92C175.923 115.611 176.435 115.456 177.086 115.456C177.95 115.456 178.611 115.739 179.07 116.304C179.528 116.869 179.758 117.675 179.758 118.72V124H177.71V118.928C177.71 118.331 177.603 117.883 177.39 117.584C177.176 117.285 176.824 117.136 176.334 117.136C176.12 117.136 175.912 117.168 175.71 117.232C175.518 117.285 175.342 117.371 175.182 117.488C175.032 117.595 174.91 117.733 174.814 117.904C174.718 118.064 174.67 118.256 174.67 118.48V124H172.622ZM189.564 124.704C189.564 125.141 189.484 125.525 189.324 125.856C189.174 126.197 188.924 126.48 188.572 126.704C188.22 126.928 187.766 127.099 187.212 127.216C186.657 127.333 185.98 127.392 185.18 127.392C184.476 127.392 183.878 127.344 183.388 127.248C182.897 127.163 182.492 127.035 182.172 126.864C181.862 126.704 181.638 126.501 181.5 126.256C181.361 126.011 181.292 125.733 181.292 125.424C181.292 124.955 181.42 124.587 181.676 124.32C181.942 124.064 182.31 123.899 182.78 123.824V123.648C182.438 123.563 182.172 123.397 181.98 123.152C181.798 122.896 181.708 122.597 181.708 122.256C181.708 122.043 181.75 121.856 181.836 121.696C181.921 121.525 182.033 121.381 182.172 121.264C182.321 121.147 182.486 121.051 182.668 120.976C182.849 120.891 183.041 120.827 183.244 120.784V120.72C182.732 120.485 182.348 120.16 182.092 119.744C181.846 119.328 181.724 118.843 181.724 118.288C181.724 117.435 182.017 116.752 182.604 116.24C183.19 115.717 184.049 115.456 185.18 115.456C185.436 115.456 185.686 115.472 185.932 115.504C186.188 115.536 186.422 115.589 186.636 115.664V115.392C186.636 114.581 187.03 114.176 187.82 114.176H189.116V115.744H187.34V115.968C187.777 116.213 188.102 116.533 188.316 116.928C188.529 117.323 188.636 117.776 188.636 118.288C188.636 119.131 188.342 119.808 187.756 120.32C187.18 120.832 186.321 121.088 185.18 121.088C184.689 121.088 184.262 121.04 183.9 120.944C183.74 121.019 183.601 121.12 183.484 121.248C183.366 121.365 183.308 121.515 183.308 121.696C183.308 122.112 183.67 122.32 184.396 122.32H186.636C187.66 122.32 188.401 122.533 188.86 122.96C189.329 123.376 189.564 123.957 189.564 124.704ZM187.644 124.944C187.644 124.677 187.537 124.469 187.324 124.32C187.11 124.171 186.742 124.096 186.22 124.096H183.372C183.084 124.309 182.94 124.597 182.94 124.96C182.94 125.28 183.073 125.531 183.34 125.712C183.606 125.893 184.06 125.984 184.7 125.984H185.724C186.396 125.984 186.881 125.899 187.18 125.728C187.489 125.557 187.644 125.296 187.644 124.944ZM185.18 119.696C186.182 119.696 186.684 119.269 186.684 118.416V118.144C186.684 117.291 186.182 116.864 185.18 116.864C184.177 116.864 183.676 117.291 183.676 118.144V118.416C183.676 119.269 184.177 119.696 185.18 119.696ZM194.029 124.192C193.41 124.192 192.855 124.091 192.365 123.888C191.885 123.675 191.474 123.381 191.133 123.008C190.802 122.624 190.546 122.165 190.365 121.632C190.183 121.088 190.093 120.48 190.093 119.808C190.093 119.147 190.178 118.549 190.349 118.016C190.53 117.483 190.786 117.029 191.117 116.656C191.447 116.272 191.853 115.979 192.333 115.776C192.813 115.563 193.357 115.456 193.965 115.456C194.615 115.456 195.181 115.568 195.661 115.792C196.141 116.016 196.535 116.32 196.845 116.704C197.154 117.088 197.383 117.536 197.533 118.048C197.693 118.549 197.773 119.088 197.773 119.664V120.336H192.221V120.544C192.221 121.152 192.391 121.643 192.733 122.016C193.074 122.379 193.581 122.56 194.253 122.56C194.765 122.56 195.181 122.453 195.501 122.24C195.831 122.027 196.125 121.755 196.381 121.424L197.485 122.656C197.143 123.136 196.674 123.515 196.077 123.792C195.49 124.059 194.807 124.192 194.029 124.192ZM193.997 116.992C193.453 116.992 193.021 117.173 192.701 117.536C192.381 117.899 192.221 118.368 192.221 118.944V119.072H195.645V118.928C195.645 118.352 195.501 117.888 195.213 117.536C194.935 117.173 194.53 116.992 193.997 116.992ZM199.575 124V115.648H201.623V117.376H201.703C201.756 117.152 201.836 116.939 201.943 116.736C202.06 116.523 202.209 116.336 202.391 116.176C202.572 116.016 202.785 115.888 203.031 115.792C203.287 115.696 203.58 115.648 203.911 115.648H204.359V117.584H203.719C203.025 117.584 202.503 117.685 202.151 117.888C201.799 118.091 201.623 118.421 201.623 118.88V124H199.575Z" fill="black"/>
</svg>
