<svg width="418" height="292" viewBox="0 0 418 292" fill="none" xmlns="http://www.w3.org/2000/svg">
<rect width="418" height="292" fill="white"/>
<path d="M17.968 24.248H24.064C25.152 24.248 26.136 24.424 27.016 24.776C27.912 25.128 28.672 25.656 29.296 26.36C29.936 27.048 30.424 27.92 30.76 28.976C31.112 30.016 31.288 31.232 31.288 32.624C31.288 34.016 31.112 35.24 30.76 36.296C30.424 37.336 29.936 38.208 29.296 38.912C28.672 39.6 27.912 40.12 27.016 40.472C26.136 40.824 25.152 41 24.064 41H17.968V24.248ZM24.064 38.192C25.248 38.192 26.184 37.848 26.872 37.16C27.576 36.456 27.928 35.384 27.928 33.944V31.304C27.928 29.864 27.576 28.8 26.872 28.112C26.184 27.408 25.248 27.056 24.064 27.056H21.136V38.192H24.064ZM35.8589 26.648C35.2189 26.648 34.7549 26.504 34.4669 26.216C34.1949 25.928 34.0589 25.56 34.0589 25.112V24.632C34.0589 24.184 34.1949 23.816 34.4669 23.528C34.7549 23.24 35.2189 23.096 35.8589 23.096C36.4829 23.096 36.9389 23.24 37.2269 23.528C37.5149 23.816 37.6589 24.184 37.6589 24.632V25.112C37.6589 25.56 37.5149 25.928 37.2269 26.216C36.9389 26.504 36.4829 26.648 35.8589 26.648ZM34.3229 28.472H37.3949V41H34.3229V28.472ZM52.2597 42.056C52.2597 42.712 52.1397 43.288 51.8997 43.784C51.6757 44.296 51.2997 44.72 50.7717 45.056C50.2437 45.392 49.5637 45.648 48.7317 45.824C47.8997 46 46.8837 46.088 45.6837 46.088C44.6277 46.088 43.7317 46.016 42.9957 45.872C42.2597 45.744 41.6517 45.552 41.1717 45.296C40.7077 45.056 40.3717 44.752 40.1637 44.384C39.9557 44.016 39.8517 43.6 39.8517 43.136C39.8517 42.432 40.0437 41.88 40.4277 41.48C40.8277 41.096 41.3797 40.848 42.0837 40.736V40.472C41.5717 40.344 41.1717 40.096 40.8837 39.728C40.6117 39.344 40.4757 38.896 40.4757 38.384C40.4757 38.064 40.5397 37.784 40.6677 37.544C40.7957 37.288 40.9637 37.072 41.1717 36.896C41.3957 36.72 41.6437 36.576 41.9157 36.464C42.1877 36.336 42.4757 36.24 42.7797 36.176V36.08C42.0117 35.728 41.4357 35.24 41.0517 34.616C40.6837 33.992 40.4997 33.264 40.4997 32.432C40.4997 31.152 40.9397 30.128 41.8197 29.36C42.6997 28.576 43.9877 28.184 45.6837 28.184C46.0677 28.184 46.4437 28.208 46.8117 28.256C47.1957 28.304 47.5477 28.384 47.8677 28.496V28.088C47.8677 26.872 48.4597 26.264 49.6437 26.264H51.5877V28.616H48.9237V28.952C49.5797 29.32 50.0677 29.8 50.3877 30.392C50.7077 30.984 50.8677 31.664 50.8677 32.432C50.8677 33.696 50.4277 34.712 49.5477 35.48C48.6837 36.248 47.3957 36.632 45.6837 36.632C44.9477 36.632 44.3077 36.56 43.7637 36.416C43.5237 36.528 43.3157 36.68 43.1397 36.872C42.9637 37.048 42.8757 37.272 42.8757 37.544C42.8757 38.168 43.4197 38.48 44.5077 38.48H47.8677C49.4037 38.48 50.5157 38.8 51.2037 39.44C51.9077 40.064 52.2597 40.936 52.2597 42.056ZM49.3797 42.416C49.3797 42.016 49.2197 41.704 48.8997 41.48C48.5797 41.256 48.0277 41.144 47.2437 41.144H42.9717C42.5397 41.464 42.3237 41.896 42.3237 42.44C42.3237 42.92 42.5237 43.296 42.9237 43.568C43.3237 43.84 44.0037 43.976 44.9637 43.976H46.4997C47.5077 43.976 48.2357 43.848 48.6837 43.592C49.1477 43.336 49.3797 42.944 49.3797 42.416ZM45.6837 34.544C47.1877 34.544 47.9397 33.904 47.9397 32.624V32.216C47.9397 30.936 47.1877 30.296 45.6837 30.296C44.1797 30.296 43.4277 30.936 43.4277 32.216V32.624C43.4277 33.904 44.1797 34.544 45.6837 34.544ZM55.5698 26.648C54.9298 26.648 54.4658 26.504 54.1778 26.216C53.9058 25.928 53.7698 25.56 53.7698 25.112V24.632C53.7698 24.184 53.9058 23.816 54.1778 23.528C54.4658 23.24 54.9298 23.096 55.5698 23.096C56.1938 23.096 56.6498 23.24 56.9378 23.528C57.2258 23.816 57.3698 24.184 57.3698 24.632V25.112C57.3698 25.56 57.2258 25.928 56.9378 26.216C56.6498 26.504 56.1938 26.648 55.5698 26.648ZM54.0338 28.472H57.1058V41H54.0338V28.472ZM64.5786 41C63.5226 41 62.7146 40.728 62.1546 40.184C61.6106 39.624 61.3386 38.832 61.3386 37.808V30.92H59.4906V28.472H60.4506C60.9146 28.472 61.2266 28.368 61.3866 28.16C61.5626 27.936 61.6506 27.608 61.6506 27.176V25.04H64.4106V28.472H66.9786V30.92H64.4106V38.552H66.7866V41H64.5786ZM78.8592 41C78.1872 41 77.6512 40.808 77.2512 40.424C76.8672 40.024 76.6272 39.496 76.5312 38.84H76.3872C76.1792 39.656 75.7552 40.272 75.1152 40.688C74.4752 41.088 73.6832 41.288 72.7392 41.288C71.4592 41.288 70.4752 40.952 69.7872 40.28C69.0992 39.608 68.7552 38.712 68.7552 37.592C68.7552 36.296 69.2192 35.336 70.1472 34.712C71.0752 34.072 72.3952 33.752 74.1072 33.752H76.2432V32.84C76.2432 32.136 76.0592 31.592 75.6912 31.208C75.3232 30.824 74.7312 30.632 73.9152 30.632C73.1952 30.632 72.6112 30.792 72.1632 31.112C71.7312 31.416 71.3632 31.784 71.0592 32.216L69.2352 30.584C69.6992 29.864 70.3152 29.288 71.0832 28.856C71.8512 28.408 72.8672 28.184 74.1312 28.184C75.8272 28.184 77.1152 28.568 77.9952 29.336C78.8752 30.104 79.3152 31.208 79.3152 32.648V38.552H80.5632V41H78.8592ZM73.7712 39.056C74.4592 39.056 75.0432 38.904 75.5232 38.6C76.0032 38.296 76.2432 37.848 76.2432 37.256V35.6H74.2752C72.6752 35.6 71.8752 36.112 71.8752 37.136V37.544C71.8752 38.056 72.0352 38.44 72.3552 38.696C72.6912 38.936 73.1632 39.056 73.7712 39.056ZM86.1214 41C85.0654 41 84.2894 40.736 83.7934 40.208C83.2974 39.68 83.0494 38.936 83.0494 37.976V23.24H86.1214V38.552H87.7774V41H86.1214ZM95.776 28.472H98.848V30.536H98.944C99.168 29.816 99.592 29.248 100.216 28.832C100.84 28.4 101.568 28.184 102.4 28.184C104 28.184 105.216 28.752 106.048 29.888C106.896 31.008 107.32 32.616 107.32 34.712C107.32 36.824 106.896 38.448 106.048 39.584C105.216 40.72 104 41.288 102.4 41.288C101.568 41.288 100.84 41.072 100.216 40.64C99.608 40.208 99.184 39.632 98.944 38.912H98.848V45.8H95.776V28.472ZM101.416 38.744C102.216 38.744 102.864 38.48 103.36 37.952C103.856 37.424 104.104 36.712 104.104 35.816V33.656C104.104 32.76 103.856 32.048 103.36 31.52C102.864 30.976 102.216 30.704 101.416 30.704C100.68 30.704 100.064 30.888 99.568 31.256C99.088 31.624 98.848 32.112 98.848 32.72V36.704C98.848 37.36 99.088 37.864 99.568 38.216C100.064 38.568 100.68 38.744 101.416 38.744ZM113.239 41C112.183 41 111.407 40.736 110.911 40.208C110.415 39.68 110.167 38.936 110.167 37.976V23.24H113.239V38.552H114.895V41H113.239ZM126.437 41C125.765 41 125.229 40.808 124.829 40.424C124.445 40.024 124.205 39.496 124.109 38.84H123.965C123.757 39.656 123.333 40.272 122.693 40.688C122.053 41.088 121.261 41.288 120.317 41.288C119.037 41.288 118.053 40.952 117.365 40.28C116.677 39.608 116.333 38.712 116.333 37.592C116.333 36.296 116.797 35.336 117.725 34.712C118.653 34.072 119.973 33.752 121.685 33.752H123.821V32.84C123.821 32.136 123.637 31.592 123.269 31.208C122.901 30.824 122.309 30.632 121.493 30.632C120.773 30.632 120.189 30.792 119.741 31.112C119.309 31.416 118.941 31.784 118.637 32.216L116.813 30.584C117.277 29.864 117.893 29.288 118.661 28.856C119.429 28.408 120.445 28.184 121.709 28.184C123.405 28.184 124.693 28.568 125.573 29.336C126.453 30.104 126.893 31.208 126.893 32.648V38.552H128.141V41H126.437ZM121.349 39.056C122.037 39.056 122.621 38.904 123.101 38.6C123.581 38.296 123.821 37.848 123.821 37.256V35.6H121.853C120.253 35.6 119.453 36.112 119.453 37.136V37.544C119.453 38.056 119.613 38.44 119.933 38.696C120.269 38.936 120.741 39.056 121.349 39.056ZM138.404 38.912H138.284C138.06 39.632 137.636 40.208 137.012 40.64C136.388 41.072 135.66 41.288 134.828 41.288C133.244 41.288 132.028 40.72 131.18 39.584C130.348 38.448 129.932 36.824 129.932 34.712C129.932 32.616 130.348 31.008 131.18 29.888C132.028 28.752 133.244 28.184 134.828 28.184C135.66 28.184 136.388 28.4 137.012 28.832C137.636 29.248 138.06 29.816 138.284 30.536H138.404V23.24H141.476V41H138.404V38.912ZM135.812 38.744C136.548 38.744 137.164 38.568 137.66 38.216C138.156 37.864 138.404 37.36 138.404 36.704V32.72C138.404 32.112 138.156 31.624 137.66 31.256C137.164 30.888 136.548 30.704 135.812 30.704C135.012 30.704 134.364 30.976 133.868 31.52C133.388 32.048 133.148 32.76 133.148 33.656V35.816C133.148 36.712 133.388 37.424 133.868 37.952C134.364 38.48 135.012 38.744 135.812 38.744ZM149.122 41.288C147.922 41.288 146.914 41.088 146.098 40.688C145.282 40.272 144.562 39.704 143.938 38.984L145.81 37.16C146.274 37.688 146.778 38.104 147.322 38.408C147.882 38.712 148.522 38.864 149.242 38.864C149.978 38.864 150.506 38.736 150.826 38.48C151.162 38.224 151.33 37.872 151.33 37.424C151.33 37.056 151.21 36.768 150.97 36.56C150.746 36.336 150.354 36.184 149.794 36.104L148.546 35.936C147.186 35.76 146.146 35.376 145.426 34.784C144.722 34.176 144.37 33.296 144.37 32.144C144.37 31.536 144.482 30.992 144.706 30.512C144.93 30.016 145.25 29.6 145.666 29.264C146.082 28.912 146.578 28.648 147.154 28.472C147.746 28.28 148.402 28.184 149.122 28.184C149.73 28.184 150.266 28.232 150.73 28.328C151.21 28.408 151.642 28.536 152.026 28.712C152.41 28.872 152.762 29.08 153.082 29.336C153.402 29.576 153.714 29.848 154.018 30.152L152.218 31.952C151.85 31.568 151.41 31.248 150.898 30.992C150.386 30.736 149.826 30.608 149.218 30.608C148.546 30.608 148.058 30.728 147.754 30.968C147.466 31.208 147.322 31.52 147.322 31.904C147.322 32.32 147.442 32.64 147.682 32.864C147.938 33.072 148.362 33.224 148.954 33.32L150.226 33.488C152.93 33.872 154.282 35.104 154.282 37.184C154.282 37.792 154.154 38.352 153.898 38.864C153.658 39.36 153.314 39.792 152.866 40.16C152.418 40.512 151.874 40.792 151.234 41C150.61 41.192 149.906 41.288 149.122 41.288ZM166.211 41C165.539 41 165.003 40.808 164.603 40.424C164.219 40.024 163.979 39.496 163.883 38.84H163.739C163.531 39.656 163.107 40.272 162.467 40.688C161.827 41.088 161.035 41.288 160.091 41.288C158.811 41.288 157.827 40.952 157.139 40.28C156.451 39.608 156.107 38.712 156.107 37.592C156.107 36.296 156.571 35.336 157.499 34.712C158.427 34.072 159.747 33.752 161.459 33.752H163.595V32.84C163.595 32.136 163.411 31.592 163.043 31.208C162.675 30.824 162.083 30.632 161.267 30.632C160.547 30.632 159.963 30.792 159.515 31.112C159.083 31.416 158.715 31.784 158.411 32.216L156.587 30.584C157.051 29.864 157.667 29.288 158.435 28.856C159.203 28.408 160.219 28.184 161.483 28.184C163.179 28.184 164.467 28.568 165.347 29.336C166.227 30.104 166.667 31.208 166.667 32.648V38.552H167.915V41H166.211ZM161.123 39.056C161.811 39.056 162.395 38.904 162.875 38.6C163.355 38.296 163.595 37.848 163.595 37.256V35.6H161.627C160.027 35.6 159.227 36.112 159.227 37.136V37.544C159.227 38.056 159.387 38.44 159.707 38.696C160.043 38.936 160.515 39.056 161.123 39.056ZM170.401 41V28.472H173.473V30.56H173.593C173.849 29.888 174.249 29.328 174.793 28.88C175.353 28.416 176.121 28.184 177.097 28.184C178.393 28.184 179.385 28.608 180.073 29.456C180.761 30.304 181.105 31.512 181.105 33.08V41H178.033V33.392C178.033 32.496 177.873 31.824 177.553 31.376C177.233 30.928 176.705 30.704 175.969 30.704C175.649 30.704 175.337 30.752 175.033 30.848C174.745 30.928 174.481 31.056 174.241 31.232C174.017 31.392 173.833 31.6 173.689 31.856C173.545 32.096 173.473 32.384 173.473 32.72V41H170.401ZM187.011 41L182.835 28.472H185.859L187.611 33.872L188.835 38.336H189.003L190.227 33.872L191.931 28.472H194.859L190.659 41H187.011ZM198.445 26.648C197.805 26.648 197.341 26.504 197.053 26.216C196.781 25.928 196.645 25.56 196.645 25.112V24.632C196.645 24.184 196.781 23.816 197.053 23.528C197.341 23.24 197.805 23.096 198.445 23.096C199.069 23.096 199.525 23.24 199.813 23.528C200.101 23.816 200.245 24.184 200.245 24.632V25.112C200.245 25.56 200.101 25.928 199.813 26.216C199.525 26.504 199.069 26.648 198.445 26.648ZM196.909 28.472H199.981V41H196.909V28.472ZM207.646 41.288C206.446 41.288 205.438 41.088 204.622 40.688C203.806 40.272 203.086 39.704 202.462 38.984L204.334 37.16C204.798 37.688 205.302 38.104 205.846 38.408C206.406 38.712 207.046 38.864 207.766 38.864C208.502 38.864 209.03 38.736 209.35 38.48C209.686 38.224 209.854 37.872 209.854 37.424C209.854 37.056 209.734 36.768 209.494 36.56C209.27 36.336 208.878 36.184 208.318 36.104L207.07 35.936C205.71 35.76 204.67 35.376 203.95 34.784C203.246 34.176 202.894 33.296 202.894 32.144C202.894 31.536 203.006 30.992 203.23 30.512C203.454 30.016 203.774 29.6 204.19 29.264C204.606 28.912 205.102 28.648 205.678 28.472C206.27 28.28 206.926 28.184 207.646 28.184C208.254 28.184 208.79 28.232 209.254 28.328C209.734 28.408 210.166 28.536 210.55 28.712C210.934 28.872 211.286 29.08 211.606 29.336C211.926 29.576 212.238 29.848 212.542 30.152L210.742 31.952C210.374 31.568 209.934 31.248 209.422 30.992C208.91 30.736 208.35 30.608 207.742 30.608C207.07 30.608 206.582 30.728 206.278 30.968C205.99 31.208 205.846 31.52 205.846 31.904C205.846 32.32 205.966 32.64 206.206 32.864C206.462 33.072 206.886 33.224 207.478 33.32L208.75 33.488C211.454 33.872 212.806 35.104 212.806 37.184C212.806 37.792 212.678 38.352 212.422 38.864C212.182 39.36 211.838 39.792 211.39 40.16C210.942 40.512 210.398 40.792 209.758 41C209.134 41.192 208.43 41.288 207.646 41.288ZM215.518 41V28.472H218.59V30.56H218.71C218.966 29.888 219.366 29.328 219.91 28.88C220.47 28.416 221.238 28.184 222.214 28.184C223.51 28.184 224.502 28.608 225.19 29.456C225.878 30.304 226.222 31.512 226.222 33.08V41H223.15V33.392C223.15 32.496 222.99 31.824 222.67 31.376C222.35 30.928 221.822 30.704 221.086 30.704C220.766 30.704 220.454 30.752 220.15 30.848C219.862 30.928 219.598 31.056 219.358 31.232C219.134 31.392 218.95 31.6 218.806 31.856C218.662 32.096 218.59 32.384 218.59 32.72V41H215.518ZM231.164 26.648C230.524 26.648 230.06 26.504 229.772 26.216C229.5 25.928 229.364 25.56 229.364 25.112V24.632C229.364 24.184 229.5 23.816 229.772 23.528C230.06 23.24 230.524 23.096 231.164 23.096C231.788 23.096 232.244 23.24 232.532 23.528C232.82 23.816 232.964 24.184 232.964 24.632V25.112C232.964 25.56 232.82 25.928 232.532 26.216C232.244 26.504 231.788 26.648 231.164 26.648ZM229.628 28.472H232.7V41H229.628V28.472ZM236.26 41V28.472H239.332V30.56H239.452C239.708 29.888 240.108 29.328 240.652 28.88C241.212 28.416 241.98 28.184 242.956 28.184C244.252 28.184 245.244 28.608 245.932 29.456C246.62 30.304 246.964 31.512 246.964 33.08V41H243.892V33.392C243.892 32.496 243.732 31.824 243.412 31.376C243.092 30.928 242.564 30.704 241.828 30.704C241.508 30.704 241.196 30.752 240.892 30.848C240.604 30.928 240.34 31.056 240.1 31.232C239.876 31.392 239.692 31.6 239.548 31.856C239.404 32.096 239.332 32.384 239.332 32.72V41H236.26ZM261.674 42.056C261.674 42.712 261.554 43.288 261.314 43.784C261.09 44.296 260.714 44.72 260.186 45.056C259.658 45.392 258.978 45.648 258.146 45.824C257.314 46 256.298 46.088 255.098 46.088C254.042 46.088 253.146 46.016 252.41 45.872C251.674 45.744 251.066 45.552 250.586 45.296C250.122 45.056 249.786 44.752 249.578 44.384C249.37 44.016 249.266 43.6 249.266 43.136C249.266 42.432 249.458 41.88 249.842 41.48C250.242 41.096 250.794 40.848 251.498 40.736V40.472C250.986 40.344 250.586 40.096 250.298 39.728C250.026 39.344 249.89 38.896 249.89 38.384C249.89 38.064 249.954 37.784 250.082 37.544C250.21 37.288 250.378 37.072 250.586 36.896C250.81 36.72 251.058 36.576 251.33 36.464C251.602 36.336 251.89 36.24 252.194 36.176V36.08C251.426 35.728 250.85 35.24 250.466 34.616C250.098 33.992 249.914 33.264 249.914 32.432C249.914 31.152 250.354 30.128 251.234 29.36C252.114 28.576 253.402 28.184 255.098 28.184C255.482 28.184 255.858 28.208 256.226 28.256C256.61 28.304 256.962 28.384 257.282 28.496V28.088C257.282 26.872 257.874 26.264 259.058 26.264H261.002V28.616H258.338V28.952C258.994 29.32 259.482 29.8 259.802 30.392C260.122 30.984 260.282 31.664 260.282 32.432C260.282 33.696 259.842 34.712 258.962 35.48C258.098 36.248 256.81 36.632 255.098 36.632C254.362 36.632 253.722 36.56 253.178 36.416C252.938 36.528 252.73 36.68 252.554 36.872C252.378 37.048 252.29 37.272 252.29 37.544C252.29 38.168 252.834 38.48 253.922 38.48H257.282C258.818 38.48 259.93 38.8 260.618 39.44C261.322 40.064 261.674 40.936 261.674 42.056ZM258.794 42.416C258.794 42.016 258.634 41.704 258.314 41.48C257.994 41.256 257.442 41.144 256.658 41.144H252.386C251.954 41.464 251.738 41.896 251.738 42.44C251.738 42.92 251.938 43.296 252.338 43.568C252.738 43.84 253.418 43.976 254.378 43.976H255.914C256.922 43.976 257.65 43.848 258.098 43.592C258.562 43.336 258.794 42.944 258.794 42.416ZM255.098 34.544C256.602 34.544 257.354 33.904 257.354 32.624V32.216C257.354 30.936 256.602 30.296 255.098 30.296C253.594 30.296 252.842 30.936 252.842 32.216V32.624C252.842 33.904 253.594 34.544 255.098 34.544Z" fill="black"/>
<rect x="17" y="237" width="84" height="38.0001" rx="3" fill="#44831E"/>
<rect x="18.5" y="272.5" width="81" height="1" stroke="#3C5C22"/>
<path d="M36.932 255.052L35.546 252.388H35.492V262H33.548V249.436H35.816L39.92 256.384L41.306 259.048H41.36V249.436H43.304V262H41.036L36.932 255.052ZM49.6016 257.824C48.2456 257.848 47.5676 258.274 47.5676 259.102V259.426C47.5676 259.846 47.7056 260.17 47.9816 260.398C48.2696 260.614 48.6716 260.722 49.1876 260.722C49.7636 260.722 50.2496 260.59 50.6456 260.326C51.0536 260.05 51.2576 259.684 51.2576 259.228V257.824H49.6016ZM57.5756 256.528V256.348C57.5756 255.628 57.3896 255.052 57.0176 254.62C56.6456 254.176 56.1356 253.954 55.4876 253.954C55.1516 253.954 54.8396 254.014 54.5516 254.134C54.2756 254.254 54.0356 254.422 53.8316 254.638C53.6396 254.854 53.4896 255.112 53.3816 255.412C53.2736 255.712 53.2196 256.042 53.2196 256.402V256.528H57.5756ZM55.7216 260.596C56.2976 260.596 56.7836 260.47 57.1796 260.218C57.5876 259.966 57.9176 259.63 58.1696 259.21L59.3216 260.326C58.9736 260.902 58.4756 261.364 57.8276 261.712C57.1916 262.048 56.4596 262.216 55.6316 262.216C55.1636 262.216 54.7256 262.156 54.3176 262.036C53.9216 261.916 53.5676 261.76 53.2556 261.568C52.9556 261.376 52.7036 261.166 52.4996 260.938C52.3076 260.698 52.1696 260.464 52.0856 260.236H51.9776C51.9176 260.452 51.7976 260.68 51.6176 260.92C51.4496 261.148 51.2276 261.358 50.9516 261.55C50.6756 261.742 50.3396 261.898 49.9436 262.018C49.5476 262.15 49.0976 262.216 48.5936 262.216C47.6456 262.216 46.9016 261.958 46.3616 261.442C45.8336 260.926 45.5696 260.254 45.5696 259.426C45.5696 258.478 45.9176 257.758 46.6136 257.266C47.3096 256.774 48.2936 256.528 49.5656 256.528H51.2576V255.826C51.2576 255.25 51.1016 254.806 50.7896 254.494C50.4776 254.182 49.9976 254.026 49.3496 254.026C48.7736 254.026 48.3116 254.146 47.9636 254.386C47.6276 254.614 47.3396 254.914 47.0996 255.286L45.9296 254.242C46.2416 253.714 46.6796 253.282 47.2436 252.946C47.8076 252.598 48.5456 252.424 49.4576 252.424C49.8896 252.424 50.2616 252.478 50.5736 252.586C50.8856 252.694 51.1496 252.832 51.3656 253C51.5936 253.168 51.7736 253.36 51.9056 253.576C52.0496 253.78 52.1696 253.984 52.2656 254.188H52.3736C52.4696 253.972 52.6136 253.762 52.8056 253.558C52.9976 253.342 53.2256 253.15 53.4896 252.982C53.7656 252.814 54.0776 252.682 54.4256 252.586C54.7856 252.478 55.1756 252.424 55.5956 252.424C56.2676 252.424 56.8556 252.544 57.3596 252.784C57.8636 253.024 58.2836 253.36 58.6196 253.792C58.9676 254.212 59.2256 254.704 59.3936 255.268C59.5616 255.832 59.6456 256.438 59.6456 257.086V257.824H53.2196V258.13C53.2196 258.85 53.4356 259.444 53.8676 259.912C54.3116 260.368 54.9296 260.596 55.7216 260.596ZM64.7978 262.216C63.9098 262.216 63.1658 262.06 62.5658 261.748C61.9658 261.436 61.4438 261.004 60.9998 260.452L62.2598 259.3C62.6078 259.72 62.9918 260.05 63.4118 260.29C63.8438 260.518 64.3418 260.632 64.9058 260.632C65.4818 260.632 65.9078 260.524 66.1838 260.308C66.4718 260.08 66.6158 259.768 66.6158 259.372C66.6158 259.072 66.5138 258.82 66.3098 258.616C66.1178 258.4 65.7758 258.262 65.2838 258.202L64.4198 258.094C63.4598 257.974 62.7038 257.698 62.1518 257.266C61.6118 256.822 61.3418 256.168 61.3418 255.304C61.3418 254.848 61.4258 254.446 61.5938 254.098C61.7618 253.738 61.9958 253.438 62.2958 253.198C62.6078 252.946 62.9738 252.754 63.3938 252.622C63.8258 252.49 64.2998 252.424 64.8158 252.424C65.6558 252.424 66.3398 252.556 66.8678 252.82C67.4078 253.084 67.8878 253.45 68.3078 253.918L67.1018 255.07C66.8618 254.782 66.5438 254.536 66.1478 254.332C65.7638 254.116 65.3198 254.008 64.8158 254.008C64.2758 254.008 63.8738 254.116 63.6098 254.332C63.3578 254.548 63.2318 254.83 63.2318 255.178C63.2318 255.538 63.3458 255.808 63.5738 255.988C63.8018 256.168 64.1678 256.3 64.6718 256.384L65.5358 256.492C66.5678 256.648 67.3178 256.954 67.7858 257.41C68.2658 257.854 68.5058 258.454 68.5058 259.21C68.5058 259.666 68.4158 260.08 68.2358 260.452C68.0678 260.812 67.8218 261.124 67.4978 261.388C67.1738 261.652 66.7838 261.856 66.3278 262C65.8718 262.144 65.3618 262.216 64.7978 262.216ZM73.1913 262C72.5073 262 71.9913 261.826 71.6433 261.478C71.2953 261.118 71.1213 260.614 71.1213 259.966V254.242H69.6633V252.64H70.4553C70.7793 252.64 71.0013 252.568 71.1213 252.424C71.2533 252.28 71.3193 252.046 71.3193 251.722V250.084H73.0833V252.64H75.0453V254.242H73.0833V260.398H74.9013V262H73.1913ZM80.7752 262.216C80.1032 262.216 79.5032 262.102 78.9752 261.874C78.4472 261.646 77.9972 261.322 77.6252 260.902C77.2532 260.47 76.9652 259.954 76.7612 259.354C76.5692 258.742 76.4732 258.064 76.4732 257.32C76.4732 256.576 76.5692 255.904 76.7612 255.304C76.9652 254.692 77.2532 254.176 77.6252 253.756C77.9972 253.324 78.4472 252.994 78.9752 252.766C79.5032 252.538 80.1032 252.424 80.7752 252.424C81.4592 252.424 82.0592 252.544 82.5752 252.784C83.1032 253.024 83.5412 253.36 83.8892 253.792C84.2372 254.212 84.4952 254.704 84.6632 255.268C84.8432 255.832 84.9332 256.438 84.9332 257.086V257.824H78.5072V258.13C78.5072 258.85 78.7172 259.444 79.1372 259.912C79.5692 260.368 80.1812 260.596 80.9732 260.596C81.5492 260.596 82.0352 260.47 82.4312 260.218C82.8272 259.966 83.1632 259.624 83.4392 259.192L84.5912 260.326C84.2432 260.902 83.7392 261.364 83.0792 261.712C82.4192 262.048 81.6512 262.216 80.7752 262.216ZM80.7752 253.954C80.4392 253.954 80.1272 254.014 79.8392 254.134C79.5632 254.254 79.3232 254.422 79.1192 254.638C78.9272 254.854 78.7772 255.112 78.6692 255.412C78.5612 255.712 78.5072 256.042 78.5072 256.402V256.528H82.8632V256.348C82.8632 255.628 82.6772 255.052 82.3052 254.62C81.9332 254.176 81.4232 253.954 80.7752 253.954Z" fill="white"/>
<rect x="17" y="237" width="84" height="38.0001" rx="3" stroke="#3C5C22" stroke-width="2"/>
<rect width="205" height="20" transform="translate(16 88)" fill="#DCDCDC"/>
<rect width="205" height="20" transform="translate(16 140)" fill="#DCDCDC"/>
<rect width="205" height="20" transform="translate(16 192)" fill="#DCDCDC"/>
<rect width="118" height="12" transform="translate(16 72)" fill="#DCDCDC"/>
<rect width="118" height="12" transform="translate(16 124)" fill="#DCDCDC"/>
<rect width="118" height="12" transform="translate(16 176)" fill="#DCDCDC"/>
</svg>
