<svg width="418" height="366" viewBox="0 0 418 366" fill="none" xmlns="http://www.w3.org/2000/svg">
<rect width="418" height="366" fill="white"/>
<path d="M16 272C16 267.582 19.5817 264 24 264H89C93.4183 264 97 267.582 97 272V296C97 300.418 93.4183 304 89 304H24C19.5817 304 16 300.418 16 296V272Z" fill="#44831E"/>
<path d="M36.512 284.272L35.36 281.952H35.312V290H33.312V278.832H35.632L38.992 284.56L40.144 286.88H40.192V278.832H42.192V290H39.872L36.512 284.272ZM47.772 286.336C47.26 286.347 46.8653 286.443 46.588 286.624C46.3107 286.795 46.172 287.051 46.172 287.392V287.648C46.172 287.989 46.2787 288.251 46.492 288.432C46.7053 288.613 47.0253 288.704 47.452 288.704C47.9 288.704 48.284 288.603 48.604 288.4C48.924 288.197 49.084 287.899 49.084 287.504V286.336H47.772ZM54.572 285.072V284.928C54.572 284.352 54.428 283.888 54.14 283.536C53.8627 283.173 53.4573 282.992 52.924 282.992C52.38 282.992 51.948 283.173 51.628 283.536C51.308 283.899 51.148 284.368 51.148 284.944V285.072H54.572ZM53.212 288.528C53.7133 288.528 54.1347 288.421 54.476 288.208C54.8173 287.995 55.1053 287.733 55.34 287.424L56.444 288.656C56.1027 289.136 55.6387 289.515 55.052 289.792C54.4653 290.059 53.7933 290.192 53.036 290.192C52.6307 290.192 52.252 290.144 51.9 290.048C51.548 289.952 51.2333 289.824 50.956 289.664C50.6893 289.504 50.46 289.323 50.268 289.12C50.076 288.917 49.932 288.704 49.836 288.48H49.74C49.6653 288.693 49.548 288.901 49.388 289.104C49.2387 289.307 49.0413 289.488 48.796 289.648C48.5507 289.808 48.2573 289.936 47.916 290.032C47.5853 290.139 47.196 290.192 46.748 290.192C45.9053 290.192 45.2493 289.963 44.78 289.504C44.3213 289.045 44.092 288.448 44.092 287.712C44.092 287.275 44.1773 286.891 44.348 286.56C44.5187 286.229 44.7587 285.957 45.068 285.744C45.3773 285.52 45.7507 285.355 46.188 285.248C46.6253 285.131 47.116 285.072 47.66 285.072H49.084V284.56C49.084 284.091 48.9613 283.728 48.716 283.472C48.4707 283.216 48.0813 283.088 47.548 283.088C47.0573 283.088 46.6627 283.189 46.364 283.392C46.076 283.595 45.8307 283.845 45.628 284.144L44.412 283.056C44.7213 282.576 45.132 282.192 45.644 281.904C46.156 281.605 46.8333 281.456 47.676 281.456C48.316 281.456 48.828 281.589 49.212 281.856C49.596 282.112 49.8947 282.437 50.108 282.832H50.204C50.4173 282.437 50.764 282.112 51.244 281.856C51.724 281.589 52.3 281.456 52.972 281.456C53.6227 281.456 54.1827 281.568 54.652 281.792C55.1213 282.016 55.5053 282.32 55.804 282.704C56.1133 283.088 56.3373 283.536 56.476 284.048C56.6253 284.549 56.7 285.088 56.7 285.664V286.336H51.132V286.544C51.132 287.141 51.3133 287.621 51.676 287.984C52.0387 288.347 52.5507 288.528 53.212 288.528ZM61.2481 290.192C60.4481 290.192 59.7761 290.059 59.2321 289.792C58.6881 289.515 58.2081 289.136 57.7921 288.656L59.0401 287.44C59.3495 287.792 59.6855 288.069 60.0481 288.272C60.4215 288.475 60.8481 288.576 61.3281 288.576C61.8188 288.576 62.1708 288.491 62.3841 288.32C62.6081 288.149 62.7201 287.915 62.7201 287.616C62.7201 287.371 62.6401 287.179 62.4801 287.04C62.3308 286.891 62.0695 286.789 61.6961 286.736L60.8641 286.624C59.9575 286.507 59.2641 286.251 58.7841 285.856C58.3148 285.451 58.0801 284.864 58.0801 284.096C58.0801 283.691 58.1548 283.328 58.3041 283.008C58.4535 282.677 58.6668 282.4 58.9441 282.176C59.2215 281.941 59.5521 281.765 59.9361 281.648C60.3308 281.52 60.7681 281.456 61.2481 281.456C61.6535 281.456 62.0108 281.488 62.3201 281.552C62.6401 281.605 62.9281 281.691 63.1841 281.808C63.4401 281.915 63.6748 282.053 63.8881 282.224C64.1015 282.384 64.3095 282.565 64.5121 282.768L63.3121 283.968C63.0668 283.712 62.7735 283.499 62.4321 283.328C62.0908 283.157 61.7175 283.072 61.3121 283.072C60.8641 283.072 60.5388 283.152 60.3361 283.312C60.1441 283.472 60.0481 283.68 60.0481 283.936C60.0481 284.213 60.1281 284.427 60.2881 284.576C60.4588 284.715 60.7415 284.816 61.1361 284.88L61.9841 284.992C63.7868 285.248 64.6881 286.069 64.6881 287.456C64.6881 287.861 64.6028 288.235 64.4321 288.576C64.2721 288.907 64.0428 289.195 63.7441 289.44C63.4455 289.675 63.0828 289.861 62.6561 290C62.2401 290.128 61.7708 290.192 61.2481 290.192ZM68.9795 290C68.2755 290 67.7368 289.819 67.3635 289.456C67.0008 289.083 66.8195 288.555 66.8195 287.872V283.28H65.5875V281.648H66.2275C66.5368 281.648 66.7448 281.579 66.8515 281.44C66.9688 281.291 67.0275 281.072 67.0275 280.784V279.36H68.8675V281.648H70.5795V283.28H68.8675V288.368H70.4515V290H68.9795ZM75.6694 290.192C75.0507 290.192 74.496 290.091 74.0054 289.888C73.5254 289.675 73.1147 289.381 72.7734 289.008C72.4427 288.624 72.1867 288.165 72.0054 287.632C71.824 287.088 71.7334 286.48 71.7334 285.808C71.7334 285.147 71.8187 284.549 71.9894 284.016C72.1707 283.483 72.4267 283.029 72.7574 282.656C73.088 282.272 73.4934 281.979 73.9734 281.776C74.4534 281.563 74.9974 281.456 75.6054 281.456C76.256 281.456 76.8214 281.568 77.3014 281.792C77.7814 282.016 78.176 282.32 78.4854 282.704C78.7947 283.088 79.024 283.536 79.1734 284.048C79.3334 284.549 79.4134 285.088 79.4134 285.664V286.336H73.8614V286.544C73.8614 287.152 74.032 287.643 74.3734 288.016C74.7147 288.379 75.2214 288.56 75.8934 288.56C76.4054 288.56 76.8214 288.453 77.1414 288.24C77.472 288.027 77.7654 287.755 78.0214 287.424L79.1254 288.656C78.784 289.136 78.3147 289.515 77.7174 289.792C77.1307 290.059 76.448 290.192 75.6694 290.192ZM75.6374 282.992C75.0934 282.992 74.6614 283.173 74.3414 283.536C74.0214 283.899 73.8614 284.368 73.8614 284.944V285.072H77.2854V284.928C77.2854 284.352 77.1414 283.888 76.8534 283.536C76.576 283.173 76.1707 282.992 75.6374 282.992Z" fill="white"/>
<path d="M16 172C16 169.791 17.7909 168 20 168H217C219.209 168 221 169.791 221 172V184C221 186.209 219.209 188 217 188H20C17.7909 188 16 186.209 16 184V172Z" fill="#DCDCDC"/>
<path d="M16 120C16 117.791 17.7909 116 20 116H217C219.209 116 221 117.791 221 120V132C221 134.209 219.209 136 217 136H20C17.7909 136 16 134.209 16 132V120Z" fill="#DCDCDC"/>
<path d="M16 224C16 221.791 17.7909 220 20 220H217C219.209 220 221 221.791 221 224V236C221 238.209 219.209 240 217 240H20C17.7909 240 16 238.209 16 236V224Z" fill="#DCDCDC"/>
<path d="M16 156C16 153.791 17.7909 152 20 152H130C132.209 152 134 153.791 134 156V160C134 162.209 132.209 164 130 164H20C17.7909 164 16 162.209 16 160V156Z" fill="#DCDCDC"/>
<path d="M16 104C16 101.791 17.7909 100 20 100H130C132.209 100 134 101.791 134 104V108C134 110.209 132.209 112 130 112H20C17.7909 112 16 110.209 16 108V104Z" fill="#DCDCDC"/>
<path d="M16 208C16 205.791 17.7909 204 20 204H130C132.209 204 134 205.791 134 208V212C134 214.209 132.209 216 130 216H20C17.7909 216 16 214.209 16 212V208Z" fill="#DCDCDC"/>
<path d="M28.336 61L26.992 56.728H21.04L19.72 61H16.504L22.12 44.248H26.056L31.624 61H28.336ZM24.064 47.128H23.944L21.808 54.016H26.224L24.064 47.128ZM33.901 61V48.472H36.973V50.56H37.093C37.349 49.888 37.749 49.328 38.293 48.88C38.853 48.416 39.621 48.184 40.597 48.184C41.893 48.184 42.885 48.608 43.573 49.456C44.261 50.304 44.605 51.512 44.605 53.08V61H41.533V53.392C41.533 52.496 41.373 51.824 41.053 51.376C40.733 50.928 40.205 50.704 39.469 50.704C39.149 50.704 38.837 50.752 38.533 50.848C38.245 50.928 37.981 51.056 37.741 51.232C37.517 51.392 37.333 51.6 37.189 51.856C37.045 52.096 36.973 52.384 36.973 52.72V61H33.901ZM59.3144 62.056C59.3144 62.712 59.1944 63.288 58.9544 63.784C58.7304 64.296 58.3544 64.72 57.8264 65.056C57.2984 65.392 56.6184 65.648 55.7864 65.824C54.9544 66 53.9384 66.088 52.7384 66.088C51.6824 66.088 50.7864 66.016 50.0504 65.872C49.3144 65.744 48.7064 65.552 48.2264 65.296C47.7624 65.056 47.4264 64.752 47.2184 64.384C47.0104 64.016 46.9064 63.6 46.9064 63.136C46.9064 62.432 47.0984 61.88 47.4824 61.48C47.8824 61.096 48.4344 60.848 49.1384 60.736V60.472C48.6264 60.344 48.2264 60.096 47.9384 59.728C47.6664 59.344 47.5304 58.896 47.5304 58.384C47.5304 58.064 47.5944 57.784 47.7224 57.544C47.8504 57.288 48.0184 57.072 48.2264 56.896C48.4504 56.72 48.6984 56.576 48.9704 56.464C49.2424 56.336 49.5304 56.24 49.8344 56.176V56.08C49.0664 55.728 48.4904 55.24 48.1064 54.616C47.7384 53.992 47.5544 53.264 47.5544 52.432C47.5544 51.152 47.9944 50.128 48.8744 49.36C49.7544 48.576 51.0424 48.184 52.7384 48.184C53.1224 48.184 53.4984 48.208 53.8664 48.256C54.2504 48.304 54.6024 48.384 54.9224 48.496V48.088C54.9224 46.872 55.5144 46.264 56.6984 46.264H58.6424V48.616H55.9784V48.952C56.6344 49.32 57.1224 49.8 57.4424 50.392C57.7624 50.984 57.9224 51.664 57.9224 52.432C57.9224 53.696 57.4824 54.712 56.6024 55.48C55.7384 56.248 54.4504 56.632 52.7384 56.632C52.0024 56.632 51.3624 56.56 50.8184 56.416C50.5784 56.528 50.3704 56.68 50.1944 56.872C50.0184 57.048 49.9304 57.272 49.9304 57.544C49.9304 58.168 50.4744 58.48 51.5624 58.48H54.9224C56.4584 58.48 57.5704 58.8 58.2584 59.44C58.9624 60.064 59.3144 60.936 59.3144 62.056ZM56.4344 62.416C56.4344 62.016 56.2744 61.704 55.9544 61.48C55.6344 61.256 55.0824 61.144 54.2984 61.144H50.0264C49.5944 61.464 49.3784 61.896 49.3784 62.44C49.3784 62.92 49.5784 63.296 49.9784 63.568C50.3784 63.84 51.0584 63.976 52.0184 63.976H53.5544C54.5624 63.976 55.2904 63.848 55.7384 63.592C56.2024 63.336 56.4344 62.944 56.4344 62.416ZM52.7384 54.544C54.2424 54.544 54.9944 53.904 54.9944 52.624V52.216C54.9944 50.936 54.2424 50.296 52.7384 50.296C51.2344 50.296 50.4824 50.936 50.4824 52.216V52.624C50.4824 53.904 51.2344 54.544 52.7384 54.544ZM62.6245 46.648C61.9845 46.648 61.5205 46.504 61.2325 46.216C60.9605 45.928 60.8245 45.56 60.8245 45.112V44.632C60.8245 44.184 60.9605 43.816 61.2325 43.528C61.5205 43.24 61.9845 43.096 62.6245 43.096C63.2485 43.096 63.7045 43.24 63.9925 43.528C64.2805 43.816 64.4245 44.184 64.4245 44.632V45.112C64.4245 45.56 64.2805 45.928 63.9925 46.216C63.7045 46.504 63.2485 46.648 62.6245 46.648ZM61.0885 48.472H64.1605V61H61.0885V48.472ZM70.4093 61L66.2333 48.472H69.2573L71.0093 53.872L72.2333 58.336H72.4013L73.6253 53.872L75.3293 48.472H78.2573L74.0573 61H70.4093ZM85.9791 43.24H89.0511V53.944H89.1711L90.8271 51.688L93.6351 48.472H97.1151L92.7951 53.32L97.5711 61H93.9231L90.7071 55.384L89.0511 57.184V61H85.9791V43.24ZM103.838 61.288C102.942 61.288 102.134 61.136 101.414 60.832C100.71 60.528 100.102 60.088 99.5898 59.512C99.0938 58.936 98.7098 58.248 98.4378 57.448C98.1658 56.632 98.0298 55.72 98.0298 54.712C98.0298 53.704 98.1658 52.8 98.4378 52C98.7098 51.2 99.0938 50.52 99.5898 49.96C100.102 49.384 100.71 48.944 101.414 48.64C102.134 48.336 102.942 48.184 103.838 48.184C104.734 48.184 105.542 48.336 106.262 48.64C106.982 48.944 107.59 49.384 108.086 49.96C108.598 50.52 108.99 51.2 109.262 52C109.534 52.8 109.67 53.704 109.67 54.712C109.67 55.72 109.534 56.632 109.262 57.448C108.99 58.248 108.598 58.936 108.086 59.512C107.59 60.088 106.982 60.528 106.262 60.832C105.542 61.136 104.734 61.288 103.838 61.288ZM103.838 58.816C104.654 58.816 105.294 58.568 105.758 58.072C106.222 57.576 106.454 56.848 106.454 55.888V53.56C106.454 52.616 106.222 51.896 105.758 51.4C105.294 50.904 104.654 50.656 103.838 50.656C103.038 50.656 102.406 50.904 101.942 51.4C101.478 51.896 101.246 52.616 101.246 53.56V55.888C101.246 56.848 101.478 57.576 101.942 58.072C102.406 58.568 103.038 58.816 103.838 58.816ZM112.393 61V48.472H115.465V50.56H115.585C115.841 49.888 116.241 49.328 116.785 48.88C117.345 48.416 118.113 48.184 119.089 48.184C120.385 48.184 121.377 48.608 122.065 49.456C122.753 50.304 123.097 51.512 123.097 53.08V61H120.025V53.392C120.025 52.496 119.865 51.824 119.545 51.376C119.225 50.928 118.697 50.704 117.961 50.704C117.641 50.704 117.329 50.752 117.025 50.848C116.737 50.928 116.473 51.056 116.233 51.232C116.009 51.392 115.825 51.6 115.681 51.856C115.537 52.096 115.465 52.384 115.465 52.72V61H112.393ZM130.415 61C129.359 61 128.551 60.728 127.991 60.184C127.447 59.624 127.175 58.832 127.175 57.808V50.92H125.327V48.472H126.287C126.751 48.472 127.063 48.368 127.223 48.16C127.399 47.936 127.487 47.608 127.487 47.176V45.04H130.247V48.472H132.815V50.92H130.247V58.552H132.623V61H130.415ZM144.695 61C144.023 61 143.487 60.808 143.087 60.424C142.703 60.024 142.463 59.496 142.367 58.84H142.223C142.015 59.656 141.591 60.272 140.951 60.688C140.311 61.088 139.519 61.288 138.575 61.288C137.295 61.288 136.311 60.952 135.623 60.28C134.935 59.608 134.591 58.712 134.591 57.592C134.591 56.296 135.055 55.336 135.983 54.712C136.911 54.072 138.231 53.752 139.943 53.752H142.079V52.84C142.079 52.136 141.895 51.592 141.527 51.208C141.159 50.824 140.567 50.632 139.751 50.632C139.031 50.632 138.447 50.792 137.999 51.112C137.567 51.416 137.199 51.784 136.895 52.216L135.071 50.584C135.535 49.864 136.151 49.288 136.919 48.856C137.687 48.408 138.703 48.184 139.967 48.184C141.663 48.184 142.951 48.568 143.831 49.336C144.711 50.104 145.151 51.208 145.151 52.648V58.552H146.399V61H144.695ZM139.607 59.056C140.295 59.056 140.879 58.904 141.359 58.6C141.839 58.296 142.079 57.848 142.079 57.256V55.6H140.111C138.511 55.6 137.711 56.112 137.711 57.136V57.544C137.711 58.056 137.871 58.44 138.191 58.696C138.527 58.936 138.999 59.056 139.607 59.056ZM148.885 43.24H151.957V53.944H152.077L153.733 51.688L156.541 48.472H160.021L155.701 53.32L160.477 61H156.829L153.613 55.384L151.957 57.184V61H148.885V43.24ZM166.04 61C164.984 61 164.176 60.728 163.616 60.184C163.072 59.624 162.8 58.832 162.8 57.808V50.92H160.952V48.472H161.912C162.376 48.472 162.688 48.368 162.848 48.16C163.024 47.936 163.112 47.608 163.112 47.176V45.04H165.872V48.472H168.44V50.92H165.872V58.552H168.248V61H166.04ZM175.978 61.288C175.082 61.288 174.274 61.136 173.554 60.832C172.85 60.528 172.242 60.088 171.73 59.512C171.234 58.936 170.85 58.248 170.578 57.448C170.306 56.632 170.17 55.72 170.17 54.712C170.17 53.704 170.306 52.8 170.578 52C170.85 51.2 171.234 50.52 171.73 49.96C172.242 49.384 172.85 48.944 173.554 48.64C174.274 48.336 175.082 48.184 175.978 48.184C176.874 48.184 177.682 48.336 178.402 48.64C179.122 48.944 179.73 49.384 180.226 49.96C180.738 50.52 181.13 51.2 181.402 52C181.674 52.8 181.81 53.704 181.81 54.712C181.81 55.72 181.674 56.632 181.402 57.448C181.13 58.248 180.738 58.936 180.226 59.512C179.73 60.088 179.122 60.528 178.402 60.832C177.682 61.136 176.874 61.288 175.978 61.288ZM175.978 58.816C176.794 58.816 177.434 58.568 177.898 58.072C178.362 57.576 178.594 56.848 178.594 55.888V53.56C178.594 52.616 178.362 51.896 177.898 51.4C177.434 50.904 176.794 50.656 175.978 50.656C175.178 50.656 174.546 50.904 174.082 51.4C173.618 51.896 173.386 52.616 173.386 53.56V55.888C173.386 56.848 173.618 57.576 174.082 58.072C174.546 58.568 175.178 58.816 175.978 58.816ZM184.534 48.472H187.606V50.536H187.702C187.926 49.816 188.35 49.248 188.974 48.832C189.598 48.4 190.326 48.184 191.158 48.184C192.758 48.184 193.974 48.752 194.806 49.888C195.654 51.008 196.078 52.616 196.078 54.712C196.078 56.824 195.654 58.448 194.806 59.584C193.974 60.72 192.758 61.288 191.158 61.288C190.326 61.288 189.598 61.072 188.974 60.64C188.366 60.208 187.942 59.632 187.702 58.912H187.606V65.8H184.534V48.472ZM190.174 58.744C190.974 58.744 191.622 58.48 192.118 57.952C192.614 57.424 192.862 56.712 192.862 55.816V53.656C192.862 52.76 192.614 52.048 192.118 51.52C191.622 50.976 190.974 50.704 190.174 50.704C189.438 50.704 188.822 50.888 188.326 51.256C187.846 51.624 187.606 52.112 187.606 52.72V56.704C187.606 57.36 187.846 57.864 188.326 58.216C188.822 58.568 189.438 58.744 190.174 58.744ZM201.996 61C200.94 61 200.164 60.736 199.668 60.208C199.172 59.68 198.924 58.936 198.924 57.976V43.24H201.996V58.552H203.652V61H201.996ZM213.495 48.472H216.375L211.335 63.232C211.175 63.68 210.991 64.064 210.783 64.384C210.591 64.72 210.359 64.992 210.087 65.2C209.815 65.408 209.487 65.56 209.103 65.656C208.719 65.752 208.271 65.8 207.759 65.8H205.911V63.352H208.167L208.743 61.6L204.255 48.472H207.303L209.487 55.096L210.303 58.264H210.447L211.311 55.096L213.495 48.472ZM222.318 61.288C221.118 61.288 220.11 61.088 219.294 60.688C218.478 60.272 217.758 59.704 217.134 58.984L219.006 57.16C219.47 57.688 219.974 58.104 220.518 58.408C221.078 58.712 221.718 58.864 222.438 58.864C223.174 58.864 223.702 58.736 224.022 58.48C224.358 58.224 224.526 57.872 224.526 57.424C224.526 57.056 224.406 56.768 224.166 56.56C223.942 56.336 223.55 56.184 222.99 56.104L221.742 55.936C220.382 55.76 219.342 55.376 218.622 54.784C217.918 54.176 217.566 53.296 217.566 52.144C217.566 51.536 217.678 50.992 217.902 50.512C218.126 50.016 218.446 49.6 218.862 49.264C219.278 48.912 219.774 48.648 220.35 48.472C220.942 48.28 221.598 48.184 222.318 48.184C222.926 48.184 223.462 48.232 223.926 48.328C224.406 48.408 224.838 48.536 225.222 48.712C225.606 48.872 225.958 49.08 226.278 49.336C226.598 49.576 226.91 49.848 227.214 50.152L225.414 51.952C225.046 51.568 224.606 51.248 224.094 50.992C223.582 50.736 223.022 50.608 222.414 50.608C221.742 50.608 221.254 50.728 220.95 50.968C220.662 51.208 220.518 51.52 220.518 51.904C220.518 52.32 220.638 52.64 220.878 52.864C221.134 53.072 221.558 53.224 222.15 53.32L223.422 53.488C226.126 53.872 227.478 55.104 227.478 57.184C227.478 57.792 227.35 58.352 227.094 58.864C226.854 59.36 226.51 59.792 226.062 60.16C225.614 60.512 225.07 60.792 224.43 61C223.806 61.192 223.102 61.288 222.318 61.288ZM230.19 61V48.472H233.262V50.56H233.382C233.638 49.888 234.038 49.328 234.582 48.88C235.142 48.416 235.91 48.184 236.886 48.184C238.182 48.184 239.174 48.608 239.862 49.456C240.55 50.304 240.894 51.512 240.894 53.08V61H237.822V53.392C237.822 52.496 237.662 51.824 237.342 51.376C237.022 50.928 236.494 50.704 235.758 50.704C235.438 50.704 235.126 50.752 234.822 50.848C234.534 50.928 234.27 51.056 234.03 51.232C233.806 51.392 233.622 51.6 233.478 51.856C233.334 52.096 233.262 52.384 233.262 52.72V61H230.19ZM245.835 46.648C245.195 46.648 244.731 46.504 244.443 46.216C244.171 45.928 244.035 45.56 244.035 45.112V44.632C244.035 44.184 244.171 43.816 244.443 43.528C244.731 43.24 245.195 43.096 245.835 43.096C246.459 43.096 246.915 43.24 247.203 43.528C247.491 43.816 247.635 44.184 247.635 44.632V45.112C247.635 45.56 247.491 45.928 247.203 46.216C246.915 46.504 246.459 46.648 245.835 46.648ZM244.299 48.472H247.371V61H244.299V48.472ZM250.932 61V48.472H254.004V50.56H254.124C254.38 49.888 254.78 49.328 255.324 48.88C255.884 48.416 256.652 48.184 257.628 48.184C258.924 48.184 259.916 48.608 260.604 49.456C261.292 50.304 261.636 51.512 261.636 53.08V61H258.564V53.392C258.564 52.496 258.404 51.824 258.084 51.376C257.764 50.928 257.236 50.704 256.5 50.704C256.18 50.704 255.868 50.752 255.564 50.848C255.276 50.928 255.012 51.056 254.772 51.232C254.548 51.392 254.364 51.6 254.22 51.856C254.076 52.096 254.004 52.384 254.004 52.72V61H250.932ZM276.346 62.056C276.346 62.712 276.226 63.288 275.986 63.784C275.762 64.296 275.386 64.72 274.858 65.056C274.33 65.392 273.65 65.648 272.818 65.824C271.986 66 270.97 66.088 269.77 66.088C268.714 66.088 267.818 66.016 267.082 65.872C266.346 65.744 265.738 65.552 265.258 65.296C264.794 65.056 264.458 64.752 264.25 64.384C264.042 64.016 263.938 63.6 263.938 63.136C263.938 62.432 264.13 61.88 264.514 61.48C264.914 61.096 265.466 60.848 266.17 60.736V60.472C265.658 60.344 265.258 60.096 264.97 59.728C264.698 59.344 264.562 58.896 264.562 58.384C264.562 58.064 264.626 57.784 264.754 57.544C264.882 57.288 265.05 57.072 265.258 56.896C265.482 56.72 265.73 56.576 266.002 56.464C266.274 56.336 266.562 56.24 266.866 56.176V56.08C266.098 55.728 265.522 55.24 265.138 54.616C264.77 53.992 264.586 53.264 264.586 52.432C264.586 51.152 265.026 50.128 265.906 49.36C266.786 48.576 268.074 48.184 269.77 48.184C270.154 48.184 270.53 48.208 270.898 48.256C271.282 48.304 271.634 48.384 271.954 48.496V48.088C271.954 46.872 272.546 46.264 273.73 46.264H275.674V48.616H273.01V48.952C273.666 49.32 274.154 49.8 274.474 50.392C274.794 50.984 274.954 51.664 274.954 52.432C274.954 53.696 274.514 54.712 273.634 55.48C272.77 56.248 271.482 56.632 269.77 56.632C269.034 56.632 268.394 56.56 267.85 56.416C267.61 56.528 267.402 56.68 267.226 56.872C267.05 57.048 266.962 57.272 266.962 57.544C266.962 58.168 267.506 58.48 268.594 58.48H271.954C273.49 58.48 274.602 58.8 275.29 59.44C275.994 60.064 276.346 60.936 276.346 62.056ZM273.466 62.416C273.466 62.016 273.306 61.704 272.986 61.48C272.666 61.256 272.114 61.144 271.33 61.144H267.058C266.626 61.464 266.41 61.896 266.41 62.44C266.41 62.92 266.61 63.296 267.01 63.568C267.41 63.84 268.09 63.976 269.05 63.976H270.586C271.594 63.976 272.322 63.848 272.77 63.592C273.234 63.336 273.466 62.944 273.466 62.416ZM269.77 54.544C271.274 54.544 272.026 53.904 272.026 52.624V52.216C272.026 50.936 271.274 50.296 269.77 50.296C268.266 50.296 267.514 50.936 267.514 52.216V52.624C267.514 53.904 268.266 54.544 269.77 54.544ZM283.043 61.288C282.115 61.288 281.283 61.136 280.547 60.832C279.827 60.512 279.211 60.072 278.699 59.512C278.203 58.936 277.819 58.248 277.547 57.448C277.275 56.632 277.139 55.72 277.139 54.712C277.139 53.72 277.267 52.824 277.523 52.024C277.795 51.224 278.179 50.544 278.675 49.984C279.171 49.408 279.779 48.968 280.499 48.664C281.219 48.344 282.035 48.184 282.947 48.184C283.923 48.184 284.771 48.352 285.491 48.688C286.211 49.024 286.803 49.48 287.267 50.056C287.731 50.632 288.075 51.304 288.299 52.072C288.539 52.824 288.659 53.632 288.659 54.496V55.504H280.331V55.816C280.331 56.728 280.587 57.464 281.099 58.024C281.611 58.568 282.371 58.84 283.379 58.84C284.147 58.84 284.771 58.68 285.251 58.36C285.747 58.04 286.187 57.632 286.571 57.136L288.227 58.984C287.715 59.704 287.011 60.272 286.115 60.688C285.235 61.088 284.211 61.288 283.043 61.288ZM282.995 50.488C282.179 50.488 281.531 50.76 281.051 51.304C280.571 51.848 280.331 52.552 280.331 53.416V53.608H285.467V53.392C285.467 52.528 285.251 51.832 284.819 51.304C284.403 50.76 283.795 50.488 282.995 50.488ZM291.362 61V48.472H294.434V51.064H294.554C294.634 50.728 294.754 50.408 294.914 50.104C295.09 49.784 295.314 49.504 295.586 49.264C295.858 49.024 296.178 48.832 296.546 48.688C296.93 48.544 297.37 48.472 297.866 48.472H298.538V51.376H297.578C296.538 51.376 295.754 51.528 295.226 51.832C294.698 52.136 294.434 52.632 294.434 53.32V61H291.362Z" fill="#1A1A1A"/>
<path d="M20.592 20.264V29H19.416V20.264H16.308V19.228H23.7V20.264H20.592ZM25.5728 29V21.776H26.6928V23.106H26.7628C26.8935 22.7607 27.1268 22.4527 27.4628 22.182C27.7988 21.9113 28.2608 21.776 28.8488 21.776H29.2828V22.896H28.6248C28.0181 22.896 27.5421 23.0127 27.1968 23.246C26.8608 23.47 26.6928 23.7547 26.6928 24.1V29H25.5728ZM32.2734 20.082C32.0308 20.082 31.8534 20.026 31.7414 19.914C31.6388 19.7927 31.5874 19.6387 31.5874 19.452V19.27C31.5874 19.0833 31.6388 18.934 31.7414 18.822C31.8534 18.7007 32.0308 18.64 32.2734 18.64C32.5161 18.64 32.6888 18.7007 32.7914 18.822C32.9034 18.934 32.9594 19.0833 32.9594 19.27V19.452C32.9594 19.6387 32.9034 19.7927 32.7914 19.914C32.6888 20.026 32.5161 20.082 32.2734 20.082ZM31.7134 21.776H32.8334V29H31.7134V21.776ZM36.2134 29V21.776H37.3334V22.952H37.3894C37.5668 22.5413 37.8141 22.2147 38.1314 21.972C38.4581 21.7293 38.8921 21.608 39.4334 21.608C40.1801 21.608 40.7681 21.8507 41.1974 22.336C41.6361 22.812 41.8554 23.4887 41.8554 24.366V29H40.7354V24.562C40.7354 23.2647 40.1894 22.616 39.0974 22.616C38.8734 22.616 38.6541 22.644 38.4394 22.7C38.2341 22.756 38.0474 22.84 37.8794 22.952C37.7114 23.064 37.5761 23.2087 37.4734 23.386C37.3801 23.554 37.3334 23.7547 37.3334 23.988V29H36.2134ZM49.5211 29V27.964H52.2511V20.096H52.1531L49.6891 22.392L49.0031 21.65L51.5931 19.228H53.4271V27.964H55.9471V29H49.5211ZM68.4322 29C68.0122 29 67.7089 28.888 67.5222 28.664C67.3449 28.44 67.2329 28.16 67.1862 27.824H67.1162C66.9575 28.272 66.6962 28.608 66.3322 28.832C65.9682 29.056 65.5342 29.168 65.0302 29.168C64.2649 29.168 63.6675 28.972 63.2382 28.58C62.8182 28.188 62.6082 27.656 62.6082 26.984C62.6082 26.3027 62.8555 25.78 63.3502 25.416C63.8542 25.052 64.6335 24.87 65.6882 24.87H67.1162V24.156C67.1162 23.6427 66.9762 23.2507 66.6962 22.98C66.4162 22.7093 65.9869 22.574 65.4082 22.574C64.9695 22.574 64.6009 22.672 64.3022 22.868C64.0129 23.064 63.7702 23.3253 63.5742 23.652L62.9022 23.022C63.0982 22.63 63.4109 22.2987 63.8402 22.028C64.2695 21.748 64.8109 21.608 65.4642 21.608C66.3415 21.608 67.0229 21.8227 67.5082 22.252C67.9935 22.6813 68.2362 23.2787 68.2362 24.044V28.02H69.0622V29H68.4322ZM65.2122 28.216C65.4922 28.216 65.7489 28.1833 65.9822 28.118C66.2155 28.0527 66.4162 27.9593 66.5842 27.838C66.7522 27.7167 66.8829 27.5767 66.9762 27.418C67.0695 27.2593 67.1162 27.0867 67.1162 26.9V25.71H65.6322C64.9882 25.71 64.5169 25.8033 64.2182 25.99C63.9289 26.1767 63.7842 26.4473 63.7842 26.802V27.096C63.7842 27.4507 63.9102 27.726 64.1622 27.922C64.4235 28.118 64.7735 28.216 65.2122 28.216ZM72.0527 22.756H70.8767V21.776H72.0527V20.32C72.0527 19.816 72.1834 19.41 72.4447 19.102C72.706 18.794 73.1027 18.64 73.6347 18.64H74.7267V19.62H73.1727V21.776H74.7267V22.756H73.1727V29H72.0527V22.756ZM87.2904 20.264H83.0064L82.7264 23.988H82.8244C83.0577 23.6613 83.319 23.4 83.6084 23.204C83.907 23.008 84.313 22.91 84.8264 22.91C85.2464 22.91 85.6337 22.98 85.9884 23.12C86.343 23.26 86.651 23.4607 86.9124 23.722C87.1737 23.974 87.3744 24.2867 87.5144 24.66C87.6637 25.0333 87.7384 25.458 87.7384 25.934C87.7384 26.41 87.6637 26.8487 87.5144 27.25C87.365 27.642 87.1457 27.9827 86.8564 28.272C86.5764 28.552 86.231 28.7713 85.8204 28.93C85.419 29.0887 84.9617 29.168 84.4484 29.168C84.0377 29.168 83.6737 29.1213 83.3564 29.028C83.0484 28.9347 82.773 28.8087 82.5304 28.65C82.2877 28.4913 82.073 28.314 81.8864 28.118C81.709 27.922 81.5457 27.7167 81.3964 27.502L82.2784 26.83C82.3997 27.026 82.5257 27.2033 82.6564 27.362C82.7964 27.5207 82.9457 27.656 83.1044 27.768C83.2724 27.88 83.4637 27.9687 83.6784 28.034C83.893 28.09 84.1497 28.118 84.4484 28.118C85.1204 28.118 85.629 27.9407 85.9744 27.586C86.3197 27.2313 86.4924 26.732 86.4924 26.088V25.948C86.4924 25.304 86.3197 24.8047 85.9744 24.45C85.629 24.0953 85.1204 23.918 84.4484 23.918C84.0004 23.918 83.6457 24.002 83.3844 24.17C83.1324 24.3287 82.9037 24.52 82.6984 24.744L81.7044 24.604L82.0544 19.228H87.2904V20.264Z" fill="#707070"/>
</svg>
