<svg width="418" height="352" viewBox="0 0 418 352" fill="none" xmlns="http://www.w3.org/2000/svg">
<rect width="418" height="352" fill="white"/>
<path d="M21.98 38.24C20.78 38.24 19.76 38.0267 18.92 37.6C18.0933 37.1733 17.38 36.6133 16.78 35.92L18.56 34.2C19.04 34.76 19.5733 35.1867 20.16 35.48C20.76 35.7733 21.42 35.92 22.14 35.92C22.9533 35.92 23.5667 35.7467 23.98 35.4C24.3933 35.04 24.6 34.56 24.6 33.96C24.6 33.4933 24.4667 33.1133 24.2 32.82C23.9333 32.5267 23.4333 32.3133 22.7 32.18L21.38 31.98C18.5933 31.54 17.2 30.1867 17.2 27.92C17.2 27.2933 17.3133 26.7267 17.54 26.22C17.78 25.7133 18.12 25.28 18.56 24.92C19 24.56 19.5267 24.2867 20.14 24.1C20.7667 23.9 21.4733 23.8 22.26 23.8C23.3133 23.8 24.2333 23.9733 25.02 24.32C25.8067 24.6667 26.48 25.18 27.04 25.86L25.24 27.56C24.8933 27.1333 24.4733 26.7867 23.98 26.52C23.4867 26.2533 22.8667 26.12 22.12 26.12C21.36 26.12 20.7867 26.2667 20.4 26.56C20.0267 26.84 19.84 27.24 19.84 27.76C19.84 28.2933 19.9933 28.6867 20.3 28.94C20.6067 29.1933 21.1 29.38 21.78 29.5L23.08 29.74C24.4933 29.9933 25.5333 30.4467 26.2 31.1C26.88 31.74 27.22 32.64 27.22 33.8C27.22 34.4667 27.1 35.0733 26.86 35.62C26.6333 36.1533 26.2933 36.62 25.84 37.02C25.4 37.4067 24.8533 37.7067 24.2 37.92C23.56 38.1333 22.82 38.24 21.98 38.24ZM28.6266 37.9L29.9666 36.22C29.3799 35.3133 29.0866 34.16 29.0866 32.76C29.0866 31.92 29.1999 31.1667 29.4266 30.5C29.6532 29.8333 29.9732 29.2667 30.3866 28.8C30.8132 28.32 31.3199 27.9533 31.9066 27.7C32.5066 27.4467 33.1799 27.32 33.9266 27.32C34.9799 27.32 35.8799 27.5733 36.6266 28.08L37.8466 26.62L39.2466 27.66L37.8866 29.34C38.1799 29.7933 38.3999 30.3133 38.5466 30.9C38.7066 31.4733 38.7866 32.1 38.7866 32.78C38.7866 33.62 38.6732 34.38 38.4466 35.06C38.2199 35.7267 37.8932 36.3 37.4666 36.78C37.0532 37.2467 36.5466 37.6067 35.9466 37.86C35.3466 38.1133 34.6732 38.24 33.9266 38.24C32.8866 38.24 31.9866 37.9933 31.2266 37.5L30.0266 38.94L28.6266 37.9ZM33.9266 36.3C34.6199 36.3 35.1666 36.0733 35.5666 35.62C35.9666 35.1533 36.1666 34.5067 36.1666 33.68V31.28L32.4466 35.78C32.8332 36.1267 33.3266 36.3 33.9266 36.3ZM31.7266 34.22L35.4066 29.78C35.0199 29.4333 34.5266 29.26 33.9266 29.26C33.2466 29.26 32.7066 29.4933 32.3066 29.96C31.9199 30.4133 31.7266 31.0533 31.7266 31.88V34.22ZM50.5523 38.88C50.5523 39.4267 50.4523 39.9067 50.2523 40.32C50.0657 40.7467 49.7523 41.1 49.3123 41.38C48.8723 41.66 48.3057 41.8733 47.6123 42.02C46.919 42.1667 46.0723 42.24 45.0723 42.24C44.1923 42.24 43.4457 42.18 42.8323 42.06C42.219 41.9533 41.7123 41.7933 41.3123 41.58C40.9257 41.38 40.6457 41.1267 40.4723 40.82C40.299 40.5133 40.2123 40.1667 40.2123 39.78C40.2123 39.1933 40.3723 38.7333 40.6923 38.4C41.0257 38.08 41.4857 37.8733 42.0723 37.78V37.56C41.6457 37.4533 41.3123 37.2467 41.0723 36.94C40.8457 36.62 40.7323 36.2467 40.7323 35.82C40.7323 35.5533 40.7857 35.32 40.8923 35.12C40.999 34.9067 41.139 34.7267 41.3123 34.58C41.499 34.4333 41.7057 34.3133 41.9323 34.22C42.159 34.1133 42.399 34.0333 42.6523 33.98V33.9C42.0123 33.6067 41.5323 33.2 41.2123 32.68C40.9057 32.16 40.7523 31.5533 40.7523 30.86C40.7523 29.7933 41.119 28.94 41.8523 28.3C42.5857 27.6467 43.659 27.32 45.0723 27.32C45.3923 27.32 45.7057 27.34 46.0123 27.38C46.3323 27.42 46.6257 27.4867 46.8923 27.58V27.24C46.8923 26.2267 47.3857 25.72 48.3723 25.72H49.9923V27.68H47.7723V27.96C48.319 28.2667 48.7257 28.6667 48.9923 29.16C49.259 29.6533 49.3923 30.22 49.3923 30.86C49.3923 31.9133 49.0257 32.76 48.2923 33.4C47.5723 34.04 46.499 34.36 45.0723 34.36C44.459 34.36 43.9257 34.3 43.4723 34.18C43.2723 34.2733 43.099 34.4 42.9523 34.56C42.8057 34.7067 42.7323 34.8933 42.7323 35.12C42.7323 35.64 43.1857 35.9 44.0923 35.9H46.8923C48.1723 35.9 49.099 36.1667 49.6723 36.7C50.259 37.22 50.5523 37.9467 50.5523 38.88ZM48.1523 39.18C48.1523 38.8467 48.019 38.5867 47.7523 38.4C47.4857 38.2133 47.0257 38.12 46.3723 38.12H42.8123C42.4523 38.3867 42.2723 38.7467 42.2723 39.2C42.2723 39.6 42.439 39.9133 42.7723 40.14C43.1057 40.3667 43.6723 40.48 44.4723 40.48H45.7523C46.5923 40.48 47.199 40.3733 47.5723 40.16C47.959 39.9467 48.1523 39.62 48.1523 39.18ZM45.0723 32.62C46.3257 32.62 46.9523 32.0867 46.9523 31.02V30.68C46.9523 29.6133 46.3257 29.08 45.0723 29.08C43.819 29.08 43.1923 29.6133 43.1923 30.68V31.02C43.1923 32.0867 43.819 32.62 45.0723 32.62ZM56.7573 23.2H59.3173V29.28H59.3973C59.584 28.68 59.9373 28.2067 60.4573 27.86C60.9773 27.5 61.584 27.32 62.2773 27.32C63.6107 27.32 64.624 27.7933 65.3173 28.74C66.024 29.6733 66.3773 31.0133 66.3773 32.76C66.3773 34.52 66.024 35.8733 65.3173 36.82C64.624 37.7667 63.6107 38.24 62.2773 38.24C61.584 38.24 60.9773 38.06 60.4573 37.7C59.9507 37.34 59.5973 36.86 59.3973 36.26H59.3173V38H56.7573V23.2ZM61.4573 36.12C62.124 36.12 62.664 35.9 63.0773 35.46C63.4907 35.02 63.6973 34.4267 63.6973 33.68V31.88C63.6973 31.1333 63.4907 30.54 63.0773 30.1C62.664 29.6467 62.124 29.42 61.4573 29.42C60.844 29.42 60.3307 29.5733 59.9173 29.88C59.5173 30.1867 59.3173 30.5933 59.3173 31.1V34.42C59.3173 34.9667 59.5173 35.3867 59.9173 35.68C60.3307 35.9733 60.844 36.12 61.4573 36.12ZM72.8895 38.24C72.1429 38.24 71.4695 38.1133 70.8695 37.86C70.2829 37.6067 69.7762 37.24 69.3495 36.76C68.9362 36.28 68.6162 35.7067 68.3895 35.04C68.1629 34.36 68.0495 33.6 68.0495 32.76C68.0495 31.92 68.1629 31.1667 68.3895 30.5C68.6162 29.8333 68.9362 29.2667 69.3495 28.8C69.7762 28.32 70.2829 27.9533 70.8695 27.7C71.4695 27.4467 72.1429 27.32 72.8895 27.32C73.6362 27.32 74.3095 27.4467 74.9095 27.7C75.5095 27.9533 76.0162 28.32 76.4295 28.8C76.8562 29.2667 77.1829 29.8333 77.4095 30.5C77.6362 31.1667 77.7495 31.92 77.7495 32.76C77.7495 33.6 77.6362 34.36 77.4095 35.04C77.1829 35.7067 76.8562 36.28 76.4295 36.76C76.0162 37.24 75.5095 37.6067 74.9095 37.86C74.3095 38.1133 73.6362 38.24 72.8895 38.24ZM72.8895 36.18C73.5695 36.18 74.1029 35.9733 74.4895 35.56C74.8762 35.1467 75.0695 34.54 75.0695 33.74V31.8C75.0695 31.0133 74.8762 30.4133 74.4895 30C74.1029 29.5867 73.5695 29.38 72.8895 29.38C72.2229 29.38 71.6962 29.5867 71.3095 30C70.9229 30.4133 70.7295 31.0133 70.7295 31.8V33.74C70.7295 34.54 70.9229 35.1467 71.3095 35.56C71.6962 35.9733 72.2229 36.18 72.8895 36.18ZM82.5791 38C81.6991 38 81.0524 37.78 80.6391 37.34C80.2257 36.9 80.0191 36.28 80.0191 35.48V23.2H82.5791V35.96H83.9591V38H82.5791ZM87.178 26.04C86.6446 26.04 86.258 25.92 86.018 25.68C85.7913 25.44 85.678 25.1333 85.678 24.76V24.36C85.678 23.9867 85.7913 23.68 86.018 23.44C86.258 23.2 86.6446 23.08 87.178 23.08C87.698 23.08 88.078 23.2 88.318 23.44C88.558 23.68 88.678 23.9867 88.678 24.36V24.76C88.678 25.1333 88.558 25.44 88.318 25.68C88.078 25.92 87.698 26.04 87.178 26.04ZM85.898 27.56H88.458V38H85.898V27.56ZM100.845 38.88C100.845 39.4267 100.745 39.9067 100.545 40.32C100.359 40.7467 100.045 41.1 99.6053 41.38C99.1653 41.66 98.5986 41.8733 97.9053 42.02C97.212 42.1667 96.3653 42.24 95.3653 42.24C94.4853 42.24 93.7386 42.18 93.1253 42.06C92.512 41.9533 92.0053 41.7933 91.6053 41.58C91.2186 41.38 90.9386 41.1267 90.7653 40.82C90.592 40.5133 90.5053 40.1667 90.5053 39.78C90.5053 39.1933 90.6653 38.7333 90.9853 38.4C91.3186 38.08 91.7786 37.8733 92.3653 37.78V37.56C91.9386 37.4533 91.6053 37.2467 91.3653 36.94C91.1386 36.62 91.0253 36.2467 91.0253 35.82C91.0253 35.5533 91.0786 35.32 91.1853 35.12C91.292 34.9067 91.432 34.7267 91.6053 34.58C91.792 34.4333 91.9986 34.3133 92.2253 34.22C92.452 34.1133 92.692 34.0333 92.9453 33.98V33.9C92.3053 33.6067 91.8253 33.2 91.5053 32.68C91.1986 32.16 91.0453 31.5533 91.0453 30.86C91.0453 29.7933 91.412 28.94 92.1453 28.3C92.8786 27.6467 93.952 27.32 95.3653 27.32C95.6853 27.32 95.9986 27.34 96.3053 27.38C96.6253 27.42 96.9186 27.4867 97.1853 27.58V27.24C97.1853 26.2267 97.6786 25.72 98.6653 25.72H100.285V27.68H98.0653V27.96C98.612 28.2667 99.0186 28.6667 99.2853 29.16C99.552 29.6533 99.6853 30.22 99.6853 30.86C99.6853 31.9133 99.3186 32.76 98.5853 33.4C97.8653 34.04 96.792 34.36 95.3653 34.36C94.752 34.36 94.2186 34.3 93.7653 34.18C93.5653 34.2733 93.392 34.4 93.2453 34.56C93.0986 34.7067 93.0253 34.8933 93.0253 35.12C93.0253 35.64 93.4786 35.9 94.3853 35.9H97.1853C98.4653 35.9 99.392 36.1667 99.9653 36.7C100.552 37.22 100.845 37.9467 100.845 38.88ZM98.4453 39.18C98.4453 38.8467 98.312 38.5867 98.0453 38.4C97.7786 38.2133 97.3186 38.12 96.6653 38.12H93.1053C92.7453 38.3867 92.5653 38.7467 92.5653 39.2C92.5653 39.6 92.732 39.9133 93.0653 40.14C93.3986 40.3667 93.9653 40.48 94.7653 40.48H96.0453C96.8853 40.48 97.492 40.3733 97.8653 40.16C98.252 39.9467 98.4453 39.62 98.4453 39.18ZM95.3653 32.62C96.6186 32.62 97.2453 32.0867 97.2453 31.02V30.68C97.2453 29.6133 96.6186 29.08 95.3653 29.08C94.112 29.08 93.4853 29.6133 93.4853 30.68V31.02C93.4853 32.0867 94.112 32.62 95.3653 32.62ZM105.744 38.24C104.744 38.24 103.904 38.0733 103.224 37.74C102.544 37.3933 101.944 36.92 101.424 36.32L102.984 34.8C103.37 35.24 103.79 35.5867 104.244 35.84C104.71 36.0933 105.244 36.22 105.844 36.22C106.457 36.22 106.897 36.1133 107.164 35.9C107.444 35.6867 107.584 35.3933 107.584 35.02C107.584 34.7133 107.484 34.4733 107.284 34.3C107.097 34.1133 106.77 33.9867 106.304 33.92L105.264 33.78C104.13 33.6333 103.264 33.3133 102.664 32.82C102.077 32.3133 101.784 31.58 101.784 30.62C101.784 30.1133 101.877 29.66 102.064 29.26C102.25 28.8467 102.517 28.5 102.864 28.22C103.21 27.9267 103.624 27.7067 104.104 27.56C104.597 27.4 105.144 27.32 105.744 27.32C106.25 27.32 106.697 27.36 107.084 27.44C107.484 27.5067 107.844 27.6133 108.164 27.76C108.484 27.8933 108.777 28.0667 109.044 28.28C109.31 28.48 109.57 28.7067 109.824 28.96L108.324 30.46C108.017 30.14 107.65 29.8733 107.224 29.66C106.797 29.4467 106.33 29.34 105.824 29.34C105.264 29.34 104.857 29.44 104.604 29.64C104.364 29.84 104.244 30.1 104.244 30.42C104.244 30.7667 104.344 31.0333 104.544 31.22C104.757 31.3933 105.11 31.52 105.604 31.6L106.664 31.74C108.917 32.06 110.044 33.0867 110.044 34.82C110.044 35.3267 109.937 35.7933 109.724 36.22C109.524 36.6333 109.237 36.9933 108.864 37.3C108.49 37.5933 108.037 37.8267 107.504 38C106.984 38.16 106.397 38.24 105.744 38.24ZM115.408 38C114.528 38 113.855 37.7733 113.388 37.32C112.935 36.8533 112.708 36.1933 112.708 35.34V29.6H111.168V27.56H111.968C112.355 27.56 112.615 27.4733 112.748 27.3C112.895 27.1133 112.968 26.84 112.968 26.48V24.7H115.268V27.56H117.408V29.6H115.268V35.96H117.248V38H115.408ZM118.47 37.9L119.81 36.22C119.224 35.3133 118.93 34.16 118.93 32.76C118.93 31.92 119.044 31.1667 119.27 30.5C119.497 29.8333 119.817 29.2667 120.23 28.8C120.657 28.32 121.164 27.9533 121.75 27.7C122.35 27.4467 123.024 27.32 123.77 27.32C124.824 27.32 125.724 27.5733 126.47 28.08L127.69 26.62L129.09 27.66L127.73 29.34C128.024 29.7933 128.244 30.3133 128.39 30.9C128.55 31.4733 128.63 32.1 128.63 32.78C128.63 33.62 128.517 34.38 128.29 35.06C128.064 35.7267 127.737 36.3 127.31 36.78C126.897 37.2467 126.39 37.6067 125.79 37.86C125.19 38.1133 124.517 38.24 123.77 38.24C122.73 38.24 121.83 37.9933 121.07 37.5L119.87 38.94L118.47 37.9ZM123.77 36.3C124.464 36.3 125.01 36.0733 125.41 35.62C125.81 35.1533 126.01 34.5067 126.01 33.68V31.28L122.29 35.78C122.677 36.1267 123.17 36.3 123.77 36.3ZM121.57 34.22L125.25 29.78C124.864 29.4333 124.37 29.26 123.77 29.26C123.09 29.26 122.55 29.4933 122.15 29.96C121.764 30.4133 121.57 31.0533 121.57 31.88V34.22ZM134.158 38C133.278 38 132.605 37.7733 132.138 37.32C131.685 36.8533 131.458 36.1933 131.458 35.34V29.6H129.918V27.56H130.718C131.105 27.56 131.365 27.4733 131.498 27.3C131.645 27.1133 131.718 26.84 131.718 26.48V24.7H134.018V27.56H136.158V29.6H134.018V35.96H135.998V38H134.158ZM141.521 38C140.641 38 139.968 37.7733 139.501 37.32C139.048 36.8533 138.821 36.1933 138.821 35.34V29.6H137.281V27.56H138.081C138.468 27.56 138.728 27.4733 138.861 27.3C139.008 27.1133 139.081 26.84 139.081 26.48V24.7H141.381V27.56H143.521V29.6H141.381V35.96H143.361V38H141.521ZM149.884 38.24C149.11 38.24 148.417 38.1133 147.804 37.86C147.204 37.5933 146.69 37.2267 146.264 36.76C145.85 36.28 145.53 35.7067 145.304 35.04C145.077 34.36 144.964 33.6 144.964 32.76C144.964 31.9333 145.07 31.1867 145.284 30.52C145.51 29.8533 145.83 29.2867 146.244 28.82C146.657 28.34 147.164 27.9733 147.764 27.72C148.364 27.4533 149.044 27.32 149.804 27.32C150.617 27.32 151.324 27.46 151.924 27.74C152.524 28.02 153.017 28.4 153.404 28.88C153.79 29.36 154.077 29.92 154.264 30.56C154.464 31.1867 154.564 31.86 154.564 32.58V33.42H147.624V33.68C147.624 34.44 147.837 35.0533 148.264 35.52C148.69 35.9733 149.324 36.2 150.164 36.2C150.804 36.2 151.324 36.0667 151.724 35.8C152.137 35.5333 152.504 35.1933 152.824 34.78L154.204 36.32C153.777 36.92 153.19 37.3933 152.444 37.74C151.71 38.0733 150.857 38.24 149.884 38.24ZM149.844 29.24C149.164 29.24 148.624 29.4667 148.224 29.92C147.824 30.3733 147.624 30.96 147.624 31.68V31.84H151.904V31.66C151.904 30.94 151.724 30.36 151.364 29.92C151.017 29.4667 150.51 29.24 149.844 29.24Z" fill="#1A1A1A"/>
<path d="M28.336 121L26.992 116.728H21.04L19.72 121H16.504L22.12 104.248H26.056L31.624 121H28.336ZM24.064 107.128H23.944L21.808 114.016H26.224L24.064 107.128ZM33.901 121V108.472H36.973V110.56H37.093C37.349 109.888 37.749 109.328 38.293 108.88C38.853 108.416 39.621 108.184 40.597 108.184C41.893 108.184 42.885 108.608 43.573 109.456C44.261 110.304 44.605 111.512 44.605 113.08V121H41.533V113.392C41.533 112.496 41.373 111.824 41.053 111.376C40.733 110.928 40.205 110.704 39.469 110.704C39.149 110.704 38.837 110.752 38.533 110.848C38.245 110.928 37.981 111.056 37.741 111.232C37.517 111.392 37.333 111.6 37.189 111.856C37.045 112.096 36.973 112.384 36.973 112.72V121H33.901ZM59.3144 122.056C59.3144 122.712 59.1944 123.288 58.9544 123.784C58.7304 124.296 58.3544 124.72 57.8264 125.056C57.2984 125.392 56.6184 125.648 55.7864 125.824C54.9544 126 53.9384 126.088 52.7384 126.088C51.6824 126.088 50.7864 126.016 50.0504 125.872C49.3144 125.744 48.7064 125.552 48.2264 125.296C47.7624 125.056 47.4264 124.752 47.2184 124.384C47.0104 124.016 46.9064 123.6 46.9064 123.136C46.9064 122.432 47.0984 121.88 47.4824 121.48C47.8824 121.096 48.4344 120.848 49.1384 120.736V120.472C48.6264 120.344 48.2264 120.096 47.9384 119.728C47.6664 119.344 47.5304 118.896 47.5304 118.384C47.5304 118.064 47.5944 117.784 47.7224 117.544C47.8504 117.288 48.0184 117.072 48.2264 116.896C48.4504 116.72 48.6984 116.576 48.9704 116.464C49.2424 116.336 49.5304 116.24 49.8344 116.176V116.08C49.0664 115.728 48.4904 115.24 48.1064 114.616C47.7384 113.992 47.5544 113.264 47.5544 112.432C47.5544 111.152 47.9944 110.128 48.8744 109.36C49.7544 108.576 51.0424 108.184 52.7384 108.184C53.1224 108.184 53.4984 108.208 53.8664 108.256C54.2504 108.304 54.6024 108.384 54.9224 108.496V108.088C54.9224 106.872 55.5144 106.264 56.6984 106.264H58.6424V108.616H55.9784V108.952C56.6344 109.32 57.1224 109.8 57.4424 110.392C57.7624 110.984 57.9224 111.664 57.9224 112.432C57.9224 113.696 57.4824 114.712 56.6024 115.48C55.7384 116.248 54.4504 116.632 52.7384 116.632C52.0024 116.632 51.3624 116.56 50.8184 116.416C50.5784 116.528 50.3704 116.68 50.1944 116.872C50.0184 117.048 49.9304 117.272 49.9304 117.544C49.9304 118.168 50.4744 118.48 51.5624 118.48H54.9224C56.4584 118.48 57.5704 118.8 58.2584 119.44C58.9624 120.064 59.3144 120.936 59.3144 122.056ZM56.4344 122.416C56.4344 122.016 56.2744 121.704 55.9544 121.48C55.6344 121.256 55.0824 121.144 54.2984 121.144H50.0264C49.5944 121.464 49.3784 121.896 49.3784 122.44C49.3784 122.92 49.5784 123.296 49.9784 123.568C50.3784 123.84 51.0584 123.976 52.0184 123.976H53.5544C54.5624 123.976 55.2904 123.848 55.7384 123.592C56.2024 123.336 56.4344 122.944 56.4344 122.416ZM52.7384 114.544C54.2424 114.544 54.9944 113.904 54.9944 112.624V112.216C54.9944 110.936 54.2424 110.296 52.7384 110.296C51.2344 110.296 50.4824 110.936 50.4824 112.216V112.624C50.4824 113.904 51.2344 114.544 52.7384 114.544ZM62.6245 106.648C61.9845 106.648 61.5205 106.504 61.2325 106.216C60.9605 105.928 60.8245 105.56 60.8245 105.112V104.632C60.8245 104.184 60.9605 103.816 61.2325 103.528C61.5205 103.24 61.9845 103.096 62.6245 103.096C63.2485 103.096 63.7045 103.24 63.9925 103.528C64.2805 103.816 64.4245 104.184 64.4245 104.632V105.112C64.4245 105.56 64.2805 105.928 63.9925 106.216C63.7045 106.504 63.2485 106.648 62.6245 106.648ZM61.0885 108.472H64.1605V121H61.0885V108.472ZM70.4093 121L66.2333 108.472H69.2573L71.0093 113.872L72.2333 118.336H72.4013L73.6253 113.872L75.3293 108.472H78.2573L74.0573 121H70.4093ZM90.9471 121.288C90.0511 121.288 89.2431 121.136 88.5231 120.832C87.8191 120.528 87.2111 120.088 86.6991 119.512C86.2031 118.936 85.8191 118.248 85.5471 117.448C85.2751 116.632 85.1391 115.72 85.1391 114.712C85.1391 113.704 85.2751 112.8 85.5471 112C85.8191 111.2 86.2031 110.52 86.6991 109.96C87.2111 109.384 87.8191 108.944 88.5231 108.64C89.2431 108.336 90.0511 108.184 90.9471 108.184C91.8431 108.184 92.6511 108.336 93.3711 108.64C94.0911 108.944 94.6991 109.384 95.1951 109.96C95.7071 110.52 96.0991 111.2 96.3711 112C96.6431 112.8 96.7791 113.704 96.7791 114.712C96.7791 115.72 96.6431 116.632 96.3711 117.448C96.0991 118.248 95.7071 118.936 95.1951 119.512C94.6991 120.088 94.0911 120.528 93.3711 120.832C92.6511 121.136 91.8431 121.288 90.9471 121.288ZM90.9471 118.816C91.7631 118.816 92.4031 118.568 92.8671 118.072C93.3311 117.576 93.5631 116.848 93.5631 115.888V113.56C93.5631 112.616 93.3311 111.896 92.8671 111.4C92.4031 110.904 91.7631 110.656 90.9471 110.656C90.1471 110.656 89.5151 110.904 89.0511 111.4C88.5871 111.896 88.3551 112.616 88.3551 113.56V115.888C88.3551 116.848 88.5871 117.576 89.0511 118.072C89.5151 118.568 90.1471 118.816 90.9471 118.816ZM99.5026 108.472H102.575V110.536H102.671C102.895 109.816 103.319 109.248 103.943 108.832C104.567 108.4 105.295 108.184 106.127 108.184C107.727 108.184 108.943 108.752 109.775 109.888C110.623 111.008 111.047 112.616 111.047 114.712C111.047 116.824 110.623 118.448 109.775 119.584C108.943 120.72 107.727 121.288 106.127 121.288C105.295 121.288 104.567 121.072 103.943 120.64C103.335 120.208 102.911 119.632 102.671 118.912H102.575V125.8H99.5026V108.472ZM105.143 118.744C105.943 118.744 106.591 118.48 107.087 117.952C107.583 117.424 107.831 116.712 107.831 115.816V113.656C107.831 112.76 107.583 112.048 107.087 111.52C106.591 110.976 105.943 110.704 105.143 110.704C104.407 110.704 103.791 110.888 103.295 111.256C102.815 111.624 102.575 112.112 102.575 112.72V116.704C102.575 117.36 102.815 117.864 103.295 118.216C103.791 118.568 104.407 118.744 105.143 118.744ZM116.965 121C115.909 121 115.133 120.736 114.637 120.208C114.141 119.68 113.893 118.936 113.893 117.976V103.24H116.965V118.552H118.621V121H116.965ZM128.464 108.472H131.344L126.304 123.232C126.144 123.68 125.96 124.064 125.752 124.384C125.56 124.72 125.328 124.992 125.056 125.2C124.784 125.408 124.456 125.56 124.072 125.656C123.688 125.752 123.24 125.8 122.728 125.8H120.88V123.352H123.136L123.712 121.6L119.224 108.472H122.272L124.456 115.096L125.272 118.264H125.416L126.28 115.096L128.464 108.472ZM137.286 121.288C136.086 121.288 135.078 121.088 134.262 120.688C133.446 120.272 132.726 119.704 132.102 118.984L133.974 117.16C134.438 117.688 134.942 118.104 135.486 118.408C136.046 118.712 136.686 118.864 137.406 118.864C138.142 118.864 138.67 118.736 138.99 118.48C139.326 118.224 139.494 117.872 139.494 117.424C139.494 117.056 139.374 116.768 139.134 116.56C138.91 116.336 138.518 116.184 137.958 116.104L136.71 115.936C135.35 115.76 134.31 115.376 133.59 114.784C132.886 114.176 132.534 113.296 132.534 112.144C132.534 111.536 132.646 110.992 132.87 110.512C133.094 110.016 133.414 109.6 133.83 109.264C134.246 108.912 134.742 108.648 135.318 108.472C135.91 108.28 136.566 108.184 137.286 108.184C137.894 108.184 138.43 108.232 138.894 108.328C139.374 108.408 139.806 108.536 140.19 108.712C140.574 108.872 140.926 109.08 141.246 109.336C141.566 109.576 141.878 109.848 142.182 110.152L140.382 111.952C140.014 111.568 139.574 111.248 139.062 110.992C138.55 110.736 137.99 110.608 137.382 110.608C136.71 110.608 136.222 110.728 135.918 110.968C135.63 111.208 135.486 111.52 135.486 111.904C135.486 112.32 135.606 112.64 135.846 112.864C136.102 113.072 136.526 113.224 137.118 113.32L138.39 113.488C141.094 113.872 142.446 115.104 142.446 117.184C142.446 117.792 142.318 118.352 142.062 118.864C141.822 119.36 141.478 119.792 141.03 120.16C140.582 120.512 140.038 120.792 139.398 121C138.774 121.192 138.07 121.288 137.286 121.288ZM145.159 121V108.472H148.231V110.56H148.351C148.607 109.888 149.007 109.328 149.551 108.88C150.111 108.416 150.879 108.184 151.855 108.184C153.151 108.184 154.143 108.608 154.831 109.456C155.519 110.304 155.863 111.512 155.863 113.08V121H152.791V113.392C152.791 112.496 152.631 111.824 152.311 111.376C151.991 110.928 151.463 110.704 150.727 110.704C150.407 110.704 150.095 110.752 149.791 110.848C149.503 110.928 149.239 111.056 148.999 111.232C148.775 111.392 148.591 111.6 148.447 111.856C148.303 112.096 148.231 112.384 148.231 112.72V121H145.159ZM160.804 106.648C160.164 106.648 159.7 106.504 159.412 106.216C159.14 105.928 159.004 105.56 159.004 105.112V104.632C159.004 104.184 159.14 103.816 159.412 103.528C159.7 103.24 160.164 103.096 160.804 103.096C161.428 103.096 161.884 103.24 162.172 103.528C162.46 103.816 162.604 104.184 162.604 104.632V105.112C162.604 105.56 162.46 105.928 162.172 106.216C161.884 106.504 161.428 106.648 160.804 106.648ZM159.268 108.472H162.34V121H159.268V108.472ZM165.901 121V108.472H168.973V110.56H169.093C169.349 109.888 169.749 109.328 170.293 108.88C170.853 108.416 171.621 108.184 172.597 108.184C173.893 108.184 174.885 108.608 175.573 109.456C176.261 110.304 176.605 111.512 176.605 113.08V121H173.533V113.392C173.533 112.496 173.373 111.824 173.053 111.376C172.733 110.928 172.205 110.704 171.469 110.704C171.149 110.704 170.837 110.752 170.533 110.848C170.245 110.928 169.981 111.056 169.741 111.232C169.517 111.392 169.333 111.6 169.189 111.856C169.045 112.096 168.973 112.384 168.973 112.72V121H165.901ZM191.314 122.056C191.314 122.712 191.194 123.288 190.954 123.784C190.73 124.296 190.354 124.72 189.826 125.056C189.298 125.392 188.618 125.648 187.786 125.824C186.954 126 185.938 126.088 184.738 126.088C183.682 126.088 182.786 126.016 182.05 125.872C181.314 125.744 180.706 125.552 180.226 125.296C179.762 125.056 179.426 124.752 179.218 124.384C179.01 124.016 178.906 123.6 178.906 123.136C178.906 122.432 179.098 121.88 179.482 121.48C179.882 121.096 180.434 120.848 181.138 120.736V120.472C180.626 120.344 180.226 120.096 179.938 119.728C179.666 119.344 179.53 118.896 179.53 118.384C179.53 118.064 179.594 117.784 179.722 117.544C179.85 117.288 180.018 117.072 180.226 116.896C180.45 116.72 180.698 116.576 180.97 116.464C181.242 116.336 181.53 116.24 181.834 116.176V116.08C181.066 115.728 180.49 115.24 180.106 114.616C179.738 113.992 179.554 113.264 179.554 112.432C179.554 111.152 179.994 110.128 180.874 109.36C181.754 108.576 183.042 108.184 184.738 108.184C185.122 108.184 185.498 108.208 185.866 108.256C186.25 108.304 186.602 108.384 186.922 108.496V108.088C186.922 106.872 187.514 106.264 188.698 106.264H190.642V108.616H187.978V108.952C188.634 109.32 189.122 109.8 189.442 110.392C189.762 110.984 189.922 111.664 189.922 112.432C189.922 113.696 189.482 114.712 188.602 115.48C187.738 116.248 186.45 116.632 184.738 116.632C184.002 116.632 183.362 116.56 182.818 116.416C182.578 116.528 182.37 116.68 182.194 116.872C182.018 117.048 181.93 117.272 181.93 117.544C181.93 118.168 182.474 118.48 183.562 118.48H186.922C188.458 118.48 189.57 118.8 190.258 119.44C190.962 120.064 191.314 120.936 191.314 122.056ZM188.434 122.416C188.434 122.016 188.274 121.704 187.954 121.48C187.634 121.256 187.082 121.144 186.298 121.144H182.026C181.594 121.464 181.378 121.896 181.378 122.44C181.378 122.92 181.578 123.296 181.978 123.568C182.378 123.84 183.058 123.976 184.018 123.976H185.554C186.562 123.976 187.29 123.848 187.738 123.592C188.202 123.336 188.434 122.944 188.434 122.416ZM184.738 114.544C186.242 114.544 186.994 113.904 186.994 112.624V112.216C186.994 110.936 186.242 110.296 184.738 110.296C183.234 110.296 182.482 110.936 182.482 112.216V112.624C182.482 113.904 183.234 114.544 184.738 114.544ZM198.012 121.288C197.084 121.288 196.252 121.136 195.516 120.832C194.796 120.512 194.18 120.072 193.668 119.512C193.172 118.936 192.788 118.248 192.516 117.448C192.244 116.632 192.108 115.72 192.108 114.712C192.108 113.72 192.236 112.824 192.492 112.024C192.764 111.224 193.148 110.544 193.644 109.984C194.14 109.408 194.748 108.968 195.468 108.664C196.188 108.344 197.004 108.184 197.916 108.184C198.892 108.184 199.74 108.352 200.46 108.688C201.18 109.024 201.772 109.48 202.236 110.056C202.7 110.632 203.044 111.304 203.268 112.072C203.508 112.824 203.628 113.632 203.628 114.496V115.504H195.3V115.816C195.3 116.728 195.556 117.464 196.068 118.024C196.58 118.568 197.34 118.84 198.348 118.84C199.116 118.84 199.74 118.68 200.22 118.36C200.716 118.04 201.156 117.632 201.54 117.136L203.196 118.984C202.684 119.704 201.98 120.272 201.084 120.688C200.204 121.088 199.18 121.288 198.012 121.288ZM197.964 110.488C197.148 110.488 196.5 110.76 196.02 111.304C195.54 111.848 195.3 112.552 195.3 113.416V113.608H200.436V113.392C200.436 112.528 200.22 111.832 199.788 111.304C199.372 110.76 198.764 110.488 197.964 110.488ZM206.331 121V108.472H209.403V111.064H209.523C209.603 110.728 209.723 110.408 209.883 110.104C210.059 109.784 210.283 109.504 210.555 109.264C210.827 109.024 211.147 108.832 211.515 108.688C211.899 108.544 212.339 108.472 212.835 108.472H213.507V111.376H212.547C211.507 111.376 210.723 111.528 210.195 111.832C209.667 112.136 209.403 112.632 209.403 113.32V121H206.331ZM226.392 121.288C225.496 121.288 224.688 121.136 223.968 120.832C223.264 120.528 222.656 120.088 222.144 119.512C221.648 118.936 221.264 118.248 220.992 117.448C220.72 116.632 220.584 115.72 220.584 114.712C220.584 113.704 220.72 112.8 220.992 112C221.264 111.2 221.648 110.52 222.144 109.96C222.656 109.384 223.264 108.944 223.968 108.64C224.688 108.336 225.496 108.184 226.392 108.184C227.288 108.184 228.096 108.336 228.816 108.64C229.536 108.944 230.144 109.384 230.64 109.96C231.152 110.52 231.544 111.2 231.816 112C232.088 112.8 232.224 113.704 232.224 114.712C232.224 115.72 232.088 116.632 231.816 117.448C231.544 118.248 231.152 118.936 230.64 119.512C230.144 120.088 229.536 120.528 228.816 120.832C228.096 121.136 227.288 121.288 226.392 121.288ZM226.392 118.816C227.208 118.816 227.848 118.568 228.312 118.072C228.776 117.576 229.008 116.848 229.008 115.888V113.56C229.008 112.616 228.776 111.896 228.312 111.4C227.848 110.904 227.208 110.656 226.392 110.656C225.592 110.656 224.96 110.904 224.496 111.4C224.032 111.896 223.8 112.616 223.8 113.56V115.888C223.8 116.848 224.032 117.576 224.496 118.072C224.96 118.568 225.592 118.816 226.392 118.816ZM234.948 121V108.472H238.02V110.56H238.14C238.38 109.904 238.764 109.344 239.292 108.88C239.82 108.416 240.556 108.184 241.5 108.184C242.364 108.184 243.108 108.392 243.732 108.808C244.356 109.224 244.82 109.856 245.124 110.704H245.172C245.396 110 245.836 109.408 246.492 108.928C247.164 108.432 248.004 108.184 249.012 108.184C250.244 108.184 251.188 108.608 251.844 109.456C252.516 110.304 252.852 111.512 252.852 113.08V121H249.78V113.392C249.78 111.6 249.108 110.704 247.764 110.704C247.46 110.704 247.164 110.752 246.876 110.848C246.604 110.928 246.356 111.056 246.132 111.232C245.924 111.392 245.756 111.6 245.628 111.856C245.5 112.096 245.436 112.384 245.436 112.72V121H242.364V113.392C242.364 111.6 241.692 110.704 240.348 110.704C240.06 110.704 239.772 110.752 239.484 110.848C239.212 110.928 238.964 111.056 238.74 111.232C238.532 111.392 238.356 111.6 238.212 111.856C238.084 112.096 238.02 112.384 238.02 112.72V121H234.948ZM269.7 118.912H269.58C269.356 119.632 268.932 120.208 268.308 120.64C267.684 121.072 266.956 121.288 266.124 121.288C264.54 121.288 263.324 120.72 262.476 119.584C261.644 118.448 261.228 116.824 261.228 114.712C261.228 112.616 261.644 111.008 262.476 109.888C263.324 108.752 264.54 108.184 266.124 108.184C266.956 108.184 267.684 108.4 268.308 108.832C268.932 109.248 269.356 109.816 269.58 110.536H269.7V103.24H272.772V121H269.7V118.912ZM267.108 118.744C267.844 118.744 268.46 118.568 268.956 118.216C269.452 117.864 269.7 117.36 269.7 116.704V112.72C269.7 112.112 269.452 111.624 268.956 111.256C268.46 110.888 267.844 110.704 267.108 110.704C266.308 110.704 265.66 110.976 265.164 111.52C264.684 112.048 264.444 112.76 264.444 113.656V115.816C264.444 116.712 264.684 117.424 265.164 117.952C265.66 118.48 266.308 118.744 267.108 118.744ZM281.379 121.288C280.451 121.288 279.619 121.136 278.883 120.832C278.163 120.512 277.547 120.072 277.035 119.512C276.539 118.936 276.155 118.248 275.883 117.448C275.611 116.632 275.475 115.72 275.475 114.712C275.475 113.72 275.603 112.824 275.859 112.024C276.131 111.224 276.515 110.544 277.011 109.984C277.507 109.408 278.115 108.968 278.835 108.664C279.555 108.344 280.371 108.184 281.283 108.184C282.259 108.184 283.107 108.352 283.827 108.688C284.547 109.024 285.139 109.48 285.603 110.056C286.067 110.632 286.411 111.304 286.635 112.072C286.875 112.824 286.995 113.632 286.995 114.496V115.504H278.667V115.816C278.667 116.728 278.923 117.464 279.435 118.024C279.947 118.568 280.707 118.84 281.715 118.84C282.483 118.84 283.107 118.68 283.587 118.36C284.083 118.04 284.523 117.632 284.907 117.136L286.563 118.984C286.051 119.704 285.347 120.272 284.451 120.688C283.571 121.088 282.547 121.288 281.379 121.288ZM281.331 110.488C280.515 110.488 279.867 110.76 279.387 111.304C278.907 111.848 278.667 112.552 278.667 113.416V113.608H283.803V113.392C283.803 112.528 283.587 111.832 283.155 111.304C282.739 110.76 282.131 110.488 281.331 110.488ZM289.698 121V108.472H292.77V110.56H292.89C293.146 109.888 293.546 109.328 294.09 108.88C294.65 108.416 295.418 108.184 296.394 108.184C297.69 108.184 298.682 108.608 299.37 109.456C300.058 110.304 300.402 111.512 300.402 113.08V121H297.33V113.392C297.33 112.496 297.17 111.824 296.85 111.376C296.53 110.928 296.002 110.704 295.266 110.704C294.946 110.704 294.634 110.752 294.33 110.848C294.042 110.928 293.778 111.056 293.538 111.232C293.314 111.392 293.13 111.6 292.986 111.856C292.842 112.096 292.77 112.384 292.77 112.72V121H289.698ZM309.479 103.24H312.551V110.536H312.647C312.871 109.816 313.295 109.248 313.919 108.832C314.543 108.4 315.271 108.184 316.103 108.184C317.703 108.184 318.919 108.752 319.751 109.888C320.599 111.008 321.023 112.616 321.023 114.712C321.023 116.824 320.599 118.448 319.751 119.584C318.919 120.72 317.703 121.288 316.103 121.288C315.271 121.288 314.543 121.072 313.919 120.64C313.311 120.208 312.887 119.632 312.647 118.912H312.551V121H309.479V103.24ZM315.119 118.744C315.919 118.744 316.567 118.48 317.063 117.952C317.559 117.424 317.807 116.712 317.807 115.816V113.656C317.807 112.76 317.559 112.048 317.063 111.52C316.567 110.976 315.919 110.704 315.119 110.704C314.383 110.704 313.767 110.888 313.271 111.256C312.791 111.624 312.551 112.112 312.551 112.72V116.704C312.551 117.36 312.791 117.864 313.271 118.216C313.767 118.568 314.383 118.744 315.119 118.744ZM328.838 121.288C327.942 121.288 327.134 121.136 326.414 120.832C325.71 120.528 325.102 120.088 324.59 119.512C324.094 118.936 323.71 118.248 323.438 117.448C323.166 116.632 323.03 115.72 323.03 114.712C323.03 113.704 323.166 112.8 323.438 112C323.71 111.2 324.094 110.52 324.59 109.96C325.102 109.384 325.71 108.944 326.414 108.64C327.134 108.336 327.942 108.184 328.838 108.184C329.734 108.184 330.542 108.336 331.262 108.64C331.982 108.944 332.59 109.384 333.086 109.96C333.598 110.52 333.99 111.2 334.262 112C334.534 112.8 334.67 113.704 334.67 114.712C334.67 115.72 334.534 116.632 334.262 117.448C333.99 118.248 333.598 118.936 333.086 119.512C332.59 120.088 331.982 120.528 331.262 120.832C330.542 121.136 329.734 121.288 328.838 121.288ZM328.838 118.816C329.654 118.816 330.294 118.568 330.758 118.072C331.222 117.576 331.454 116.848 331.454 115.888V113.56C331.454 112.616 331.222 111.896 330.758 111.4C330.294 110.904 329.654 110.656 328.838 110.656C328.038 110.656 327.406 110.904 326.942 111.4C326.478 111.896 326.246 112.616 326.246 113.56V115.888C326.246 116.848 326.478 117.576 326.942 118.072C327.406 118.568 328.038 118.816 328.838 118.816ZM340.465 121C339.409 121 338.633 120.736 338.137 120.208C337.641 119.68 337.393 118.936 337.393 117.976V103.24H340.465V118.552H342.121V121H340.465ZM345.984 106.648C345.344 106.648 344.88 106.504 344.592 106.216C344.32 105.928 344.184 105.56 344.184 105.112V104.632C344.184 104.184 344.32 103.816 344.592 103.528C344.88 103.24 345.344 103.096 345.984 103.096C346.608 103.096 347.064 103.24 347.352 103.528C347.64 103.816 347.784 104.184 347.784 104.632V105.112C347.784 105.56 347.64 105.928 347.352 106.216C347.064 106.504 346.608 106.648 345.984 106.648ZM344.448 108.472H347.52V121H344.448V108.472ZM362.385 122.056C362.385 122.712 362.265 123.288 362.025 123.784C361.801 124.296 361.425 124.72 360.897 125.056C360.369 125.392 359.689 125.648 358.857 125.824C358.025 126 357.009 126.088 355.809 126.088C354.753 126.088 353.857 126.016 353.121 125.872C352.385 125.744 351.777 125.552 351.297 125.296C350.833 125.056 350.497 124.752 350.289 124.384C350.081 124.016 349.977 123.6 349.977 123.136C349.977 122.432 350.169 121.88 350.553 121.48C350.953 121.096 351.505 120.848 352.209 120.736V120.472C351.697 120.344 351.297 120.096 351.009 119.728C350.737 119.344 350.601 118.896 350.601 118.384C350.601 118.064 350.665 117.784 350.793 117.544C350.921 117.288 351.089 117.072 351.297 116.896C351.521 116.72 351.769 116.576 352.041 116.464C352.313 116.336 352.601 116.24 352.905 116.176V116.08C352.137 115.728 351.561 115.24 351.177 114.616C350.809 113.992 350.625 113.264 350.625 112.432C350.625 111.152 351.065 110.128 351.945 109.36C352.825 108.576 354.113 108.184 355.809 108.184C356.193 108.184 356.569 108.208 356.937 108.256C357.321 108.304 357.673 108.384 357.993 108.496V108.088C357.993 106.872 358.585 106.264 359.769 106.264H361.713V108.616H359.049V108.952C359.705 109.32 360.193 109.8 360.513 110.392C360.833 110.984 360.993 111.664 360.993 112.432C360.993 113.696 360.553 114.712 359.673 115.48C358.809 116.248 357.521 116.632 355.809 116.632C355.073 116.632 354.433 116.56 353.889 116.416C353.649 116.528 353.441 116.68 353.265 116.872C353.089 117.048 353.001 117.272 353.001 117.544C353.001 118.168 353.545 118.48 354.633 118.48H357.993C359.529 118.48 360.641 118.8 361.329 119.44C362.033 120.064 362.385 120.936 362.385 122.056ZM359.505 122.416C359.505 122.016 359.345 121.704 359.025 121.48C358.705 121.256 358.153 121.144 357.369 121.144H353.097C352.665 121.464 352.449 121.896 352.449 122.44C352.449 122.92 352.649 123.296 353.049 123.568C353.449 123.84 354.129 123.976 355.089 123.976H356.625C357.633 123.976 358.361 123.848 358.809 123.592C359.273 123.336 359.505 122.944 359.505 122.416ZM355.809 114.544C357.313 114.544 358.065 113.904 358.065 112.624V112.216C358.065 110.936 357.313 110.296 355.809 110.296C354.305 110.296 353.553 110.936 353.553 112.216V112.624C353.553 113.904 354.305 114.544 355.809 114.544ZM366.146 117.304C366.802 117.304 367.282 117.472 367.586 117.808C367.906 118.144 368.066 118.568 368.066 119.08V119.512C368.066 119.944 368.002 120.392 367.874 120.856C367.762 121.32 367.594 121.768 367.37 122.2C367.162 122.632 366.906 123.04 366.602 123.424C366.314 123.808 365.986 124.144 365.618 124.432H363.434C363.978 123.904 364.434 123.384 364.802 122.872C365.17 122.376 365.45 121.824 365.642 121.216C365.146 121.136 364.786 120.944 364.562 120.64C364.338 120.32 364.226 119.944 364.226 119.512V119.08C364.226 118.568 364.378 118.144 364.682 117.808C364.986 117.472 365.474 117.304 366.146 117.304ZM25.552 150.912H25.432C25.208 151.632 24.784 152.208 24.16 152.64C23.536 153.072 22.808 153.288 21.976 153.288C20.392 153.288 19.176 152.72 18.328 151.584C17.496 150.448 17.08 148.824 17.08 146.712C17.08 144.616 17.496 143.008 18.328 141.888C19.176 140.752 20.392 140.184 21.976 140.184C22.808 140.184 23.536 140.4 24.16 140.832C24.784 141.248 25.208 141.816 25.432 142.536H25.552V135.24H28.624V153H25.552V150.912ZM22.96 150.744C23.696 150.744 24.312 150.568 24.808 150.216C25.304 149.864 25.552 149.36 25.552 148.704V144.72C25.552 144.112 25.304 143.624 24.808 143.256C24.312 142.888 23.696 142.704 22.96 142.704C22.16 142.704 21.512 142.976 21.016 143.52C20.536 144.048 20.296 144.76 20.296 145.656V147.816C20.296 148.712 20.536 149.424 21.016 149.952C21.512 150.48 22.16 150.744 22.96 150.744ZM39.6546 150.912H39.5346C39.4226 151.232 39.2706 151.536 39.0786 151.824C38.9026 152.096 38.6706 152.344 38.3826 152.568C38.1106 152.792 37.7746 152.968 37.3746 153.096C36.9906 153.224 36.5426 153.288 36.0306 153.288C34.7346 153.288 33.7426 152.864 33.0546 152.016C32.3666 151.168 32.0226 149.96 32.0226 148.392V140.472H35.0946V148.08C35.0946 148.944 35.2626 149.608 35.5986 150.072C35.9346 150.52 36.4706 150.744 37.2066 150.744C37.5106 150.744 37.8066 150.704 38.0946 150.624C38.3986 150.544 38.6626 150.424 38.8866 150.264C39.1106 150.088 39.2946 149.88 39.4386 149.64C39.5826 149.384 39.6546 149.088 39.6546 148.752V140.472H42.7266V153H39.6546V150.912ZM56.0519 153.288C54.8519 153.288 53.8439 153.088 53.0279 152.688C52.2119 152.272 51.4919 151.704 50.8679 150.984L52.7399 149.16C53.2039 149.688 53.7079 150.104 54.2519 150.408C54.8119 150.712 55.4519 150.864 56.1719 150.864C56.9079 150.864 57.4359 150.736 57.7559 150.48C58.0919 150.224 58.2599 149.872 58.2599 149.424C58.2599 149.056 58.1399 148.768 57.8999 148.56C57.6759 148.336 57.2839 148.184 56.7239 148.104L55.4759 147.936C54.1159 147.76 53.0759 147.376 52.3559 146.784C51.6519 146.176 51.2999 145.296 51.2999 144.144C51.2999 143.536 51.4119 142.992 51.6359 142.512C51.8599 142.016 52.1799 141.6 52.5959 141.264C53.0119 140.912 53.5079 140.648 54.0839 140.472C54.6759 140.28 55.3319 140.184 56.0519 140.184C56.6599 140.184 57.1959 140.232 57.6599 140.328C58.1399 140.408 58.5719 140.536 58.9559 140.712C59.3399 140.872 59.6919 141.08 60.0119 141.336C60.3319 141.576 60.6439 141.848 60.9479 142.152L59.1479 143.952C58.7799 143.568 58.3399 143.248 57.8279 142.992C57.3159 142.736 56.7559 142.608 56.1479 142.608C55.4759 142.608 54.9879 142.728 54.6839 142.968C54.3959 143.208 54.2519 143.52 54.2519 143.904C54.2519 144.32 54.3719 144.64 54.6119 144.864C54.8679 145.072 55.2919 145.224 55.8839 145.32L57.1559 145.488C59.8599 145.872 61.2119 147.104 61.2119 149.184C61.2119 149.792 61.0839 150.352 60.8279 150.864C60.5879 151.36 60.2439 151.792 59.7959 152.16C59.3479 152.512 58.8039 152.792 58.1639 153C57.5399 153.192 56.8359 153.288 56.0519 153.288ZM62.6284 152.88L64.2364 150.864C63.5324 149.776 63.1804 148.392 63.1804 146.712C63.1804 145.704 63.3164 144.8 63.5884 144C63.8604 143.2 64.2444 142.52 64.7404 141.96C65.2524 141.384 65.8604 140.944 66.5644 140.64C67.2844 140.336 68.0924 140.184 68.9884 140.184C70.2524 140.184 71.3324 140.488 72.2284 141.096L73.6924 139.344L75.3724 140.592L73.7404 142.608C74.0924 143.152 74.3564 143.776 74.5324 144.48C74.7244 145.168 74.8204 145.92 74.8204 146.736C74.8204 147.744 74.6844 148.656 74.4124 149.472C74.1404 150.272 73.7484 150.96 73.2364 151.536C72.7404 152.096 72.1324 152.528 71.4124 152.832C70.6924 153.136 69.8844 153.288 68.9884 153.288C67.7404 153.288 66.6604 152.992 65.7484 152.4L64.3084 154.128L62.6284 152.88ZM68.9884 150.96C69.8204 150.96 70.4764 150.688 70.9564 150.144C71.4364 149.584 71.6764 148.808 71.6764 147.816V144.936L67.2124 150.336C67.6764 150.752 68.2684 150.96 68.9884 150.96ZM66.3484 148.464L70.7644 143.136C70.3004 142.72 69.7084 142.512 68.9884 142.512C68.1724 142.512 67.5244 142.792 67.0444 143.352C66.5804 143.896 66.3484 144.664 66.3484 145.656V148.464ZM88.9394 154.056C88.9394 154.712 88.8194 155.288 88.5794 155.784C88.3554 156.296 87.9794 156.72 87.4514 157.056C86.9234 157.392 86.2434 157.648 85.4114 157.824C84.5794 158 83.5634 158.088 82.3634 158.088C81.3074 158.088 80.4114 158.016 79.6754 157.872C78.9394 157.744 78.3314 157.552 77.8514 157.296C77.3874 157.056 77.0514 156.752 76.8434 156.384C76.6354 156.016 76.5314 155.6 76.5314 155.136C76.5314 154.432 76.7234 153.88 77.1074 153.48C77.5074 153.096 78.0594 152.848 78.7634 152.736V152.472C78.2514 152.344 77.8514 152.096 77.5634 151.728C77.2914 151.344 77.1554 150.896 77.1554 150.384C77.1554 150.064 77.2194 149.784 77.3474 149.544C77.4754 149.288 77.6434 149.072 77.8514 148.896C78.0754 148.72 78.3234 148.576 78.5954 148.464C78.8674 148.336 79.1554 148.24 79.4594 148.176V148.08C78.6914 147.728 78.1154 147.24 77.7314 146.616C77.3634 145.992 77.1794 145.264 77.1794 144.432C77.1794 143.152 77.6194 142.128 78.4994 141.36C79.3794 140.576 80.6674 140.184 82.3634 140.184C82.7474 140.184 83.1234 140.208 83.4914 140.256C83.8754 140.304 84.2274 140.384 84.5474 140.496V140.088C84.5474 138.872 85.1394 138.264 86.3234 138.264H88.2674V140.616H85.6034V140.952C86.2594 141.32 86.7474 141.8 87.0674 142.392C87.3874 142.984 87.5474 143.664 87.5474 144.432C87.5474 145.696 87.1074 146.712 86.2274 147.48C85.3634 148.248 84.0754 148.632 82.3634 148.632C81.6274 148.632 80.9874 148.56 80.4434 148.416C80.2034 148.528 79.9954 148.68 79.8194 148.872C79.6434 149.048 79.5554 149.272 79.5554 149.544C79.5554 150.168 80.0994 150.48 81.1874 150.48H84.5474C86.0834 150.48 87.1954 150.8 87.8834 151.44C88.5874 152.064 88.9394 152.936 88.9394 154.056ZM86.0594 154.416C86.0594 154.016 85.8994 153.704 85.5794 153.48C85.2594 153.256 84.7074 153.144 83.9234 153.144H79.6514C79.2194 153.464 79.0034 153.896 79.0034 154.44C79.0034 154.92 79.2034 155.296 79.6034 155.568C80.0034 155.84 80.6834 155.976 81.6434 155.976H83.1794C84.1874 155.976 84.9154 155.848 85.3634 155.592C85.8274 155.336 86.0594 154.944 86.0594 154.416ZM82.3634 146.544C83.8674 146.544 84.6194 145.904 84.6194 144.624V144.216C84.6194 142.936 83.8674 142.296 82.3634 142.296C80.8594 142.296 80.1074 142.936 80.1074 144.216V144.624C80.1074 145.904 80.8594 146.544 82.3634 146.544ZM95.6369 153.288C94.7089 153.288 93.8769 153.136 93.1409 152.832C92.4209 152.512 91.8049 152.072 91.2929 151.512C90.7969 150.936 90.4129 150.248 90.1409 149.448C89.8689 148.632 89.7329 147.72 89.7329 146.712C89.7329 145.72 89.8609 144.824 90.1169 144.024C90.3889 143.224 90.7729 142.544 91.2689 141.984C91.7649 141.408 92.3729 140.968 93.0929 140.664C93.8129 140.344 94.6289 140.184 95.5409 140.184C96.5169 140.184 97.3649 140.352 98.0849 140.688C98.8049 141.024 99.3969 141.48 99.8609 142.056C100.325 142.632 100.669 143.304 100.893 144.072C101.133 144.824 101.253 145.632 101.253 146.496V147.504H92.9249V147.816C92.9249 148.728 93.1809 149.464 93.6929 150.024C94.2049 150.568 94.9649 150.84 95.9729 150.84C96.7409 150.84 97.3649 150.68 97.8449 150.36C98.3409 150.04 98.7809 149.632 99.1649 149.136L100.821 150.984C100.309 151.704 99.6049 152.272 98.7089 152.688C97.8289 153.088 96.8049 153.288 95.6369 153.288ZM95.5889 142.488C94.7729 142.488 94.1249 142.76 93.6449 143.304C93.1649 143.848 92.9249 144.552 92.9249 145.416V145.608H98.0609V145.392C98.0609 144.528 97.8449 143.832 97.4129 143.304C96.9969 142.76 96.3889 142.488 95.5889 142.488ZM103.956 153V140.472H107.028V143.064H107.148C107.228 142.728 107.348 142.408 107.508 142.104C107.684 141.784 107.908 141.504 108.18 141.264C108.452 141.024 108.772 140.832 109.14 140.688C109.524 140.544 109.964 140.472 110.46 140.472H111.132V143.376H110.172C109.132 143.376 108.348 143.528 107.82 143.832C107.292 144.136 107.028 144.632 107.028 145.32V153H103.956ZM119.049 135.24H122.121V142.536H122.217C122.441 141.816 122.865 141.248 123.489 140.832C124.113 140.4 124.841 140.184 125.673 140.184C127.273 140.184 128.489 140.752 129.321 141.888C130.169 143.008 130.593 144.616 130.593 146.712C130.593 148.824 130.169 150.448 129.321 151.584C128.489 152.72 127.273 153.288 125.673 153.288C124.841 153.288 124.113 153.072 123.489 152.64C122.881 152.208 122.457 151.632 122.217 150.912H122.121V153H119.049V135.24ZM124.689 150.744C125.489 150.744 126.137 150.48 126.633 149.952C127.129 149.424 127.377 148.712 127.377 147.816V145.656C127.377 144.76 127.129 144.048 126.633 143.52C126.137 142.976 125.489 142.704 124.689 142.704C123.953 142.704 123.337 142.888 122.841 143.256C122.361 143.624 122.121 144.112 122.121 144.72V148.704C122.121 149.36 122.361 149.864 122.841 150.216C123.337 150.568 123.953 150.744 124.689 150.744ZM138.408 153.288C137.512 153.288 136.704 153.136 135.984 152.832C135.28 152.528 134.672 152.088 134.16 151.512C133.664 150.936 133.28 150.248 133.008 149.448C132.736 148.632 132.6 147.72 132.6 146.712C132.6 145.704 132.736 144.8 133.008 144C133.28 143.2 133.664 142.52 134.16 141.96C134.672 141.384 135.28 140.944 135.984 140.64C136.704 140.336 137.512 140.184 138.408 140.184C139.304 140.184 140.112 140.336 140.832 140.64C141.552 140.944 142.16 141.384 142.656 141.96C143.168 142.52 143.56 143.2 143.832 144C144.104 144.8 144.24 145.704 144.24 146.712C144.24 147.72 144.104 148.632 143.832 149.448C143.56 150.248 143.168 150.936 142.656 151.512C142.16 152.088 141.552 152.528 140.832 152.832C140.112 153.136 139.304 153.288 138.408 153.288ZM138.408 150.816C139.224 150.816 139.864 150.568 140.328 150.072C140.792 149.576 141.024 148.848 141.024 147.888V145.56C141.024 144.616 140.792 143.896 140.328 143.4C139.864 142.904 139.224 142.656 138.408 142.656C137.608 142.656 136.976 142.904 136.512 143.4C136.048 143.896 135.816 144.616 135.816 145.56V147.888C135.816 148.848 136.048 149.576 136.512 150.072C136.976 150.568 137.608 150.816 138.408 150.816ZM150.036 153C148.98 153 148.204 152.736 147.708 152.208C147.212 151.68 146.964 150.936 146.964 149.976V135.24H150.036V150.552H151.692V153H150.036ZM155.554 138.648C154.914 138.648 154.45 138.504 154.162 138.216C153.89 137.928 153.754 137.56 153.754 137.112V136.632C153.754 136.184 153.89 135.816 154.162 135.528C154.45 135.24 154.914 135.096 155.554 135.096C156.178 135.096 156.634 135.24 156.922 135.528C157.21 135.816 157.354 136.184 157.354 136.632V137.112C157.354 137.56 157.21 137.928 156.922 138.216C156.634 138.504 156.178 138.648 155.554 138.648ZM154.018 140.472H157.09V153H154.018V140.472ZM171.955 154.056C171.955 154.712 171.835 155.288 171.595 155.784C171.371 156.296 170.995 156.72 170.467 157.056C169.939 157.392 169.259 157.648 168.427 157.824C167.595 158 166.579 158.088 165.379 158.088C164.323 158.088 163.427 158.016 162.691 157.872C161.955 157.744 161.347 157.552 160.867 157.296C160.403 157.056 160.067 156.752 159.859 156.384C159.651 156.016 159.547 155.6 159.547 155.136C159.547 154.432 159.739 153.88 160.123 153.48C160.523 153.096 161.075 152.848 161.779 152.736V152.472C161.267 152.344 160.867 152.096 160.579 151.728C160.307 151.344 160.171 150.896 160.171 150.384C160.171 150.064 160.235 149.784 160.363 149.544C160.491 149.288 160.659 149.072 160.867 148.896C161.091 148.72 161.339 148.576 161.611 148.464C161.883 148.336 162.171 148.24 162.475 148.176V148.08C161.707 147.728 161.131 147.24 160.747 146.616C160.379 145.992 160.195 145.264 160.195 144.432C160.195 143.152 160.635 142.128 161.515 141.36C162.395 140.576 163.683 140.184 165.379 140.184C165.763 140.184 166.139 140.208 166.507 140.256C166.891 140.304 167.243 140.384 167.563 140.496V140.088C167.563 138.872 168.155 138.264 169.339 138.264H171.283V140.616H168.619V140.952C169.275 141.32 169.763 141.8 170.083 142.392C170.403 142.984 170.563 143.664 170.563 144.432C170.563 145.696 170.123 146.712 169.243 147.48C168.379 148.248 167.091 148.632 165.379 148.632C164.643 148.632 164.003 148.56 163.459 148.416C163.219 148.528 163.011 148.68 162.835 148.872C162.659 149.048 162.571 149.272 162.571 149.544C162.571 150.168 163.115 150.48 164.203 150.48H167.563C169.099 150.48 170.211 150.8 170.899 151.44C171.603 152.064 171.955 152.936 171.955 154.056ZM169.075 154.416C169.075 154.016 168.915 153.704 168.595 153.48C168.275 153.256 167.723 153.144 166.939 153.144H162.667C162.235 153.464 162.019 153.896 162.019 154.44C162.019 154.92 162.219 155.296 162.619 155.568C163.019 155.84 163.699 155.976 164.659 155.976H166.195C167.203 155.976 167.931 155.848 168.379 155.592C168.843 155.336 169.075 154.944 169.075 154.416ZM165.379 146.544C166.883 146.544 167.635 145.904 167.635 144.624V144.216C167.635 142.936 166.883 142.296 165.379 142.296C163.875 142.296 163.123 142.936 163.123 144.216V144.624C163.123 145.904 163.875 146.544 165.379 146.544ZM177.833 153.288C176.633 153.288 175.625 153.088 174.809 152.688C173.993 152.272 173.273 151.704 172.649 150.984L174.521 149.16C174.985 149.688 175.489 150.104 176.033 150.408C176.593 150.712 177.233 150.864 177.953 150.864C178.689 150.864 179.217 150.736 179.537 150.48C179.873 150.224 180.041 149.872 180.041 149.424C180.041 149.056 179.921 148.768 179.681 148.56C179.457 148.336 179.065 148.184 178.505 148.104L177.257 147.936C175.897 147.76 174.857 147.376 174.137 146.784C173.433 146.176 173.081 145.296 173.081 144.144C173.081 143.536 173.193 142.992 173.417 142.512C173.641 142.016 173.961 141.6 174.377 141.264C174.793 140.912 175.289 140.648 175.865 140.472C176.457 140.28 177.113 140.184 177.833 140.184C178.441 140.184 178.977 140.232 179.441 140.328C179.921 140.408 180.353 140.536 180.737 140.712C181.121 140.872 181.473 141.08 181.793 141.336C182.113 141.576 182.425 141.848 182.729 142.152L180.929 143.952C180.561 143.568 180.121 143.248 179.609 142.992C179.097 142.736 178.537 142.608 177.929 142.608C177.257 142.608 176.769 142.728 176.465 142.968C176.177 143.208 176.033 143.52 176.033 143.904C176.033 144.32 176.153 144.64 176.393 144.864C176.649 145.072 177.073 145.224 177.665 145.32L178.937 145.488C181.641 145.872 182.993 147.104 182.993 149.184C182.993 149.792 182.865 150.352 182.609 150.864C182.369 151.36 182.025 151.792 181.577 152.16C181.129 152.512 180.585 152.792 179.945 153C179.321 153.192 178.617 153.288 177.833 153.288ZM189.43 153C188.374 153 187.566 152.728 187.006 152.184C186.462 151.624 186.19 150.832 186.19 149.808V142.92H184.342V140.472H185.302C185.766 140.472 186.078 140.368 186.238 140.16C186.414 139.936 186.502 139.608 186.502 139.176V137.04H189.262V140.472H191.83V142.92H189.262V150.552H191.638V153H189.43ZM193.105 152.88L194.713 150.864C194.009 149.776 193.657 148.392 193.657 146.712C193.657 145.704 193.793 144.8 194.065 144C194.337 143.2 194.721 142.52 195.217 141.96C195.729 141.384 196.337 140.944 197.041 140.64C197.761 140.336 198.569 140.184 199.465 140.184C200.729 140.184 201.809 140.488 202.705 141.096L204.169 139.344L205.849 140.592L204.217 142.608C204.569 143.152 204.833 143.776 205.009 144.48C205.201 145.168 205.297 145.92 205.297 146.736C205.297 147.744 205.161 148.656 204.889 149.472C204.617 150.272 204.225 150.96 203.713 151.536C203.217 152.096 202.609 152.528 201.889 152.832C201.169 153.136 200.361 153.288 199.465 153.288C198.217 153.288 197.137 152.992 196.225 152.4L194.785 154.128L193.105 152.88ZM199.465 150.96C200.297 150.96 200.953 150.688 201.433 150.144C201.913 149.584 202.153 148.808 202.153 147.816V144.936L197.689 150.336C198.153 150.752 198.745 150.96 199.465 150.96ZM196.825 148.464L201.241 143.136C200.777 142.72 200.185 142.512 199.465 142.512C198.649 142.512 198.001 142.792 197.521 143.352C197.057 143.896 196.825 144.664 196.825 145.656V148.464ZM211.93 153C210.874 153 210.066 152.728 209.506 152.184C208.962 151.624 208.69 150.832 208.69 149.808V142.92H206.842V140.472H207.802C208.266 140.472 208.578 140.368 208.738 140.16C208.914 139.936 209.002 139.608 209.002 139.176V137.04H211.762V140.472H214.33V142.92H211.762V150.552H214.138V153H211.93ZM220.766 153C219.71 153 218.902 152.728 218.342 152.184C217.798 151.624 217.526 150.832 217.526 149.808V142.92H215.678V140.472H216.638C217.102 140.472 217.414 140.368 217.574 140.16C217.75 139.936 217.838 139.608 217.838 139.176V137.04H220.598V140.472H223.166V142.92H220.598V150.552H222.974V153H220.766ZM230.801 153.288C229.873 153.288 229.041 153.136 228.305 152.832C227.585 152.512 226.969 152.072 226.457 151.512C225.961 150.936 225.577 150.248 225.305 149.448C225.033 148.632 224.897 147.72 224.897 146.712C224.897 145.72 225.025 144.824 225.281 144.024C225.553 143.224 225.937 142.544 226.433 141.984C226.929 141.408 227.537 140.968 228.257 140.664C228.977 140.344 229.793 140.184 230.705 140.184C231.681 140.184 232.529 140.352 233.249 140.688C233.969 141.024 234.561 141.48 235.025 142.056C235.489 142.632 235.833 143.304 236.057 144.072C236.297 144.824 236.417 145.632 236.417 146.496V147.504H228.089V147.816C228.089 148.728 228.345 149.464 228.857 150.024C229.369 150.568 230.129 150.84 231.137 150.84C231.905 150.84 232.529 150.68 233.009 150.36C233.505 150.04 233.945 149.632 234.329 149.136L235.985 150.984C235.473 151.704 234.769 152.272 233.873 152.688C232.993 153.088 231.969 153.288 230.801 153.288ZM230.753 142.488C229.937 142.488 229.289 142.76 228.809 143.304C228.329 143.848 228.089 144.552 228.089 145.416V145.608H233.225V145.392C233.225 144.528 233.009 143.832 232.577 143.304C232.161 142.76 231.553 142.488 230.753 142.488ZM248.704 153C247.648 153 246.84 152.728 246.28 152.184C245.736 151.624 245.464 150.832 245.464 149.808V142.92H243.616V140.472H244.576C245.04 140.472 245.352 140.368 245.512 140.16C245.688 139.936 245.776 139.608 245.776 139.176V137.04H248.536V140.472H251.104V142.92H248.536V150.552H250.912V153H248.704ZM255.304 138.648C254.664 138.648 254.2 138.504 253.912 138.216C253.64 137.928 253.504 137.56 253.504 137.112V136.632C253.504 136.184 253.64 135.816 253.912 135.528C254.2 135.24 254.664 135.096 255.304 135.096C255.928 135.096 256.384 135.24 256.672 135.528C256.96 135.816 257.104 136.184 257.104 136.632V137.112C257.104 137.56 256.96 137.928 256.672 138.216C256.384 138.504 255.928 138.648 255.304 138.648ZM253.768 140.472H256.84V153H253.768V140.472ZM263.473 153C262.417 153 261.641 152.736 261.145 152.208C260.649 151.68 260.401 150.936 260.401 149.976V135.24H263.473V150.552H265.129V153H263.473Z" fill="#1A1A1A"/>
<path d="M16 304C16 299.582 19.5817 296 24 296H89C93.4183 296 97 299.582 97 304V328C97 332.418 93.4183 336 89 336H24C19.5817 336 16 332.418 16 328V304Z" fill="#0059B3"/>
<path d="M36.512 316.272L35.36 313.952H35.312V322H33.312V310.832H35.632L38.992 316.56L40.144 318.88H40.192V310.832H42.192V322H39.872L36.512 316.272ZM47.772 318.336C47.26 318.347 46.8653 318.443 46.588 318.624C46.3107 318.795 46.172 319.051 46.172 319.392V319.648C46.172 319.989 46.2787 320.251 46.492 320.432C46.7053 320.613 47.0253 320.704 47.452 320.704C47.9 320.704 48.284 320.603 48.604 320.4C48.924 320.197 49.084 319.899 49.084 319.504V318.336H47.772ZM54.572 317.072V316.928C54.572 316.352 54.428 315.888 54.14 315.536C53.8627 315.173 53.4573 314.992 52.924 314.992C52.38 314.992 51.948 315.173 51.628 315.536C51.308 315.899 51.148 316.368 51.148 316.944V317.072H54.572ZM53.212 320.528C53.7133 320.528 54.1347 320.421 54.476 320.208C54.8173 319.995 55.1053 319.733 55.34 319.424L56.444 320.656C56.1027 321.136 55.6387 321.515 55.052 321.792C54.4653 322.059 53.7933 322.192 53.036 322.192C52.6307 322.192 52.252 322.144 51.9 322.048C51.548 321.952 51.2333 321.824 50.956 321.664C50.6893 321.504 50.46 321.323 50.268 321.12C50.076 320.917 49.932 320.704 49.836 320.48H49.74C49.6653 320.693 49.548 320.901 49.388 321.104C49.2387 321.307 49.0413 321.488 48.796 321.648C48.5507 321.808 48.2573 321.936 47.916 322.032C47.5853 322.139 47.196 322.192 46.748 322.192C45.9053 322.192 45.2493 321.963 44.78 321.504C44.3213 321.045 44.092 320.448 44.092 319.712C44.092 319.275 44.1773 318.891 44.348 318.56C44.5187 318.229 44.7587 317.957 45.068 317.744C45.3773 317.52 45.7507 317.355 46.188 317.248C46.6253 317.131 47.116 317.072 47.66 317.072H49.084V316.56C49.084 316.091 48.9613 315.728 48.716 315.472C48.4707 315.216 48.0813 315.088 47.548 315.088C47.0573 315.088 46.6627 315.189 46.364 315.392C46.076 315.595 45.8307 315.845 45.628 316.144L44.412 315.056C44.7213 314.576 45.132 314.192 45.644 313.904C46.156 313.605 46.8333 313.456 47.676 313.456C48.316 313.456 48.828 313.589 49.212 313.856C49.596 314.112 49.8947 314.437 50.108 314.832H50.204C50.4173 314.437 50.764 314.112 51.244 313.856C51.724 313.589 52.3 313.456 52.972 313.456C53.6227 313.456 54.1827 313.568 54.652 313.792C55.1213 314.016 55.5053 314.32 55.804 314.704C56.1133 315.088 56.3373 315.536 56.476 316.048C56.6253 316.549 56.7 317.088 56.7 317.664V318.336H51.132V318.544C51.132 319.141 51.3133 319.621 51.676 319.984C52.0387 320.347 52.5507 320.528 53.212 320.528ZM61.2481 322.192C60.4481 322.192 59.7761 322.059 59.2321 321.792C58.6881 321.515 58.2081 321.136 57.7921 320.656L59.0401 319.44C59.3495 319.792 59.6855 320.069 60.0481 320.272C60.4215 320.475 60.8481 320.576 61.3281 320.576C61.8188 320.576 62.1708 320.491 62.3841 320.32C62.6081 320.149 62.7201 319.915 62.7201 319.616C62.7201 319.371 62.6401 319.179 62.4801 319.04C62.3308 318.891 62.0695 318.789 61.6961 318.736L60.8641 318.624C59.9575 318.507 59.2641 318.251 58.7841 317.856C58.3148 317.451 58.0801 316.864 58.0801 316.096C58.0801 315.691 58.1548 315.328 58.3041 315.008C58.4535 314.677 58.6668 314.4 58.9441 314.176C59.2215 313.941 59.5521 313.765 59.9361 313.648C60.3308 313.52 60.7681 313.456 61.2481 313.456C61.6535 313.456 62.0108 313.488 62.3201 313.552C62.6401 313.605 62.9281 313.691 63.1841 313.808C63.4401 313.915 63.6748 314.053 63.8881 314.224C64.1015 314.384 64.3095 314.565 64.5121 314.768L63.3121 315.968C63.0668 315.712 62.7735 315.499 62.4321 315.328C62.0908 315.157 61.7175 315.072 61.3121 315.072C60.8641 315.072 60.5388 315.152 60.3361 315.312C60.1441 315.472 60.0481 315.68 60.0481 315.936C60.0481 316.213 60.1281 316.427 60.2881 316.576C60.4588 316.715 60.7415 316.816 61.1361 316.88L61.9841 316.992C63.7868 317.248 64.6881 318.069 64.6881 319.456C64.6881 319.861 64.6028 320.235 64.4321 320.576C64.2721 320.907 64.0428 321.195 63.7441 321.44C63.4455 321.675 63.0828 321.861 62.6561 322C62.2401 322.128 61.7708 322.192 61.2481 322.192ZM68.9795 322C68.2755 322 67.7368 321.819 67.3635 321.456C67.0008 321.083 66.8195 320.555 66.8195 319.872V315.28H65.5875V313.648H66.2275C66.5368 313.648 66.7448 313.579 66.8515 313.44C66.9688 313.291 67.0275 313.072 67.0275 312.784V311.36H68.8675V313.648H70.5795V315.28H68.8675V320.368H70.4515V322H68.9795ZM75.6694 322.192C75.0507 322.192 74.496 322.091 74.0054 321.888C73.5254 321.675 73.1147 321.381 72.7734 321.008C72.4427 320.624 72.1867 320.165 72.0054 319.632C71.824 319.088 71.7334 318.48 71.7334 317.808C71.7334 317.147 71.8187 316.549 71.9894 316.016C72.1707 315.483 72.4267 315.029 72.7574 314.656C73.088 314.272 73.4934 313.979 73.9734 313.776C74.4534 313.563 74.9974 313.456 75.6054 313.456C76.256 313.456 76.8214 313.568 77.3014 313.792C77.7814 314.016 78.176 314.32 78.4854 314.704C78.7947 315.088 79.024 315.536 79.1734 316.048C79.3334 316.549 79.4134 317.088 79.4134 317.664V318.336H73.8614V318.544C73.8614 319.152 74.032 319.643 74.3734 320.016C74.7147 320.379 75.2214 320.56 75.8934 320.56C76.4054 320.56 76.8214 320.453 77.1414 320.24C77.472 320.027 77.7654 319.755 78.0214 319.424L79.1254 320.656C78.784 321.136 78.3147 321.515 77.7174 321.792C77.1307 322.059 76.448 322.192 75.6694 322.192ZM75.6374 314.992C75.0934 314.992 74.6614 315.173 74.3414 315.536C74.0214 315.899 73.8614 316.368 73.8614 316.944V317.072H77.2854V316.928C77.2854 316.352 77.1414 315.888 76.8534 315.536C76.576 315.173 76.1707 314.992 75.6374 314.992Z" fill="white"/>
<path d="M16 204C16 201.791 17.7909 200 20 200H217C219.209 200 221 201.791 221 204V216C221 218.209 219.209 220 217 220H20C17.7909 220 16 218.209 16 216V204Z" fill="#DCDCDC"/>
<path d="M16 256C16 253.791 17.7909 252 20 252H217C219.209 252 221 253.791 221 256V268C221 270.209 219.209 272 217 272H20C17.7909 272 16 270.209 16 268V256Z" fill="#DCDCDC"/>
<path d="M16 188C16 185.791 17.7909 184 20 184H130C132.209 184 134 185.791 134 188V192C134 194.209 132.209 196 130 196H20C17.7909 196 16 194.209 16 192V188Z" fill="#DCDCDC"/>
<path d="M16 240C16 237.791 17.7909 236 20 236H130C132.209 236 134 237.791 134 240V244C134 246.209 132.209 248 130 248H20C17.7909 248 16 246.209 16 244V240Z" fill="#DCDCDC"/>
<path d="M20.592 80.264V89H19.416V80.264H16.308V79.228H23.7V80.264H20.592ZM25.5728 89V81.776H26.6928V83.106H26.7628C26.8935 82.7607 27.1268 82.4527 27.4628 82.182C27.7988 81.9113 28.2608 81.776 28.8488 81.776H29.2828V82.896H28.6248C28.0181 82.896 27.5421 83.0127 27.1968 83.246C26.8608 83.47 26.6928 83.7547 26.6928 84.1V89H25.5728ZM32.2734 80.082C32.0308 80.082 31.8534 80.026 31.7414 79.914C31.6388 79.7927 31.5874 79.6387 31.5874 79.452V79.27C31.5874 79.0833 31.6388 78.934 31.7414 78.822C31.8534 78.7007 32.0308 78.64 32.2734 78.64C32.5161 78.64 32.6888 78.7007 32.7914 78.822C32.9034 78.934 32.9594 79.0833 32.9594 79.27V79.452C32.9594 79.6387 32.9034 79.7927 32.7914 79.914C32.6888 80.026 32.5161 80.082 32.2734 80.082ZM31.7134 81.776H32.8334V89H31.7134V81.776ZM36.2134 89V81.776H37.3334V82.952H37.3894C37.5668 82.5413 37.8141 82.2147 38.1314 81.972C38.4581 81.7293 38.8921 81.608 39.4334 81.608C40.1801 81.608 40.7681 81.8507 41.1974 82.336C41.6361 82.812 41.8554 83.4887 41.8554 84.366V89H40.7354V84.562C40.7354 83.2647 40.1894 82.616 39.0974 82.616C38.8734 82.616 38.6541 82.644 38.4394 82.7C38.2341 82.756 38.0474 82.84 37.8794 82.952C37.7114 83.064 37.5761 83.2087 37.4734 83.386C37.3801 83.554 37.3334 83.7547 37.3334 83.988V89H36.2134ZM55.7511 89H49.3391V87.796L52.5311 84.856C52.9884 84.436 53.3711 83.9927 53.6791 83.526C53.9871 83.05 54.1411 82.574 54.1411 82.098V81.93C54.1411 81.3887 53.9917 80.95 53.6931 80.614C53.3944 80.278 52.9417 80.11 52.3351 80.11C52.0364 80.11 51.7751 80.152 51.5511 80.236C51.3271 80.32 51.1311 80.4367 50.9631 80.586C50.8044 80.7353 50.6691 80.9127 50.5571 81.118C50.4544 81.314 50.3704 81.5287 50.3051 81.762L49.2551 81.356C49.3484 81.0667 49.4744 80.7867 49.6331 80.516C49.8011 80.236 50.0064 79.9887 50.2491 79.774C50.5011 79.5593 50.7997 79.3867 51.1451 79.256C51.4997 79.1253 51.9151 79.06 52.3911 79.06C52.8671 79.06 53.2917 79.13 53.6651 79.27C54.0384 79.41 54.3511 79.606 54.6031 79.858C54.8551 80.11 55.0464 80.4087 55.1771 80.754C55.3171 81.0993 55.3871 81.482 55.3871 81.902C55.3871 82.2847 55.3311 82.6393 55.2191 82.966C55.1164 83.2927 54.9717 83.6053 54.7851 83.904C54.5984 84.1933 54.3697 84.478 54.0991 84.758C53.8377 85.038 53.5531 85.318 53.2451 85.598L50.6131 87.964H55.7511V89ZM68.4322 89C68.0122 89 67.7089 88.888 67.5222 88.664C67.3449 88.44 67.2329 88.16 67.1862 87.824H67.1162C66.9575 88.272 66.6962 88.608 66.3322 88.832C65.9682 89.056 65.5342 89.168 65.0302 89.168C64.2649 89.168 63.6675 88.972 63.2382 88.58C62.8182 88.188 62.6082 87.656 62.6082 86.984C62.6082 86.3027 62.8555 85.78 63.3502 85.416C63.8542 85.052 64.6335 84.87 65.6882 84.87H67.1162V84.156C67.1162 83.6427 66.9762 83.2507 66.6962 82.98C66.4162 82.7093 65.9869 82.574 65.4082 82.574C64.9695 82.574 64.6009 82.672 64.3022 82.868C64.0129 83.064 63.7702 83.3253 63.5742 83.652L62.9022 83.022C63.0982 82.63 63.4109 82.2987 63.8402 82.028C64.2695 81.748 64.8109 81.608 65.4642 81.608C66.3415 81.608 67.0229 81.8227 67.5082 82.252C67.9935 82.6813 68.2362 83.2787 68.2362 84.044V88.02H69.0622V89H68.4322ZM65.2122 88.216C65.4922 88.216 65.7489 88.1833 65.9822 88.118C66.2155 88.0527 66.4162 87.9593 66.5842 87.838C66.7522 87.7167 66.8829 87.5767 66.9762 87.418C67.0695 87.2593 67.1162 87.0867 67.1162 86.9V85.71H65.6322C64.9882 85.71 64.5169 85.8033 64.2182 85.99C63.9289 86.1767 63.7842 86.4473 63.7842 86.802V87.096C63.7842 87.4507 63.9102 87.726 64.1622 87.922C64.4235 88.118 64.7735 88.216 65.2122 88.216ZM72.0527 82.756H70.8767V81.776H72.0527V80.32C72.0527 79.816 72.1834 79.41 72.4447 79.102C72.706 78.794 73.1027 78.64 73.6347 78.64H74.7267V79.62H73.1727V81.776H74.7267V82.756H73.1727V89H72.0527V82.756ZM87.2904 80.264H83.0064L82.7264 83.988H82.8244C83.0577 83.6613 83.319 83.4 83.6084 83.204C83.907 83.008 84.313 82.91 84.8264 82.91C85.2464 82.91 85.6337 82.98 85.9884 83.12C86.343 83.26 86.651 83.4607 86.9124 83.722C87.1737 83.974 87.3744 84.2867 87.5144 84.66C87.6637 85.0333 87.7384 85.458 87.7384 85.934C87.7384 86.41 87.6637 86.8487 87.5144 87.25C87.365 87.642 87.1457 87.9827 86.8564 88.272C86.5764 88.552 86.231 88.7713 85.8204 88.93C85.419 89.0887 84.9617 89.168 84.4484 89.168C84.0377 89.168 83.6737 89.1213 83.3564 89.028C83.0484 88.9347 82.773 88.8087 82.5304 88.65C82.2877 88.4913 82.073 88.314 81.8864 88.118C81.709 87.922 81.5457 87.7167 81.3964 87.502L82.2784 86.83C82.3997 87.026 82.5257 87.2033 82.6564 87.362C82.7964 87.5207 82.9457 87.656 83.1044 87.768C83.2724 87.88 83.4637 87.9687 83.6784 88.034C83.893 88.09 84.1497 88.118 84.4484 88.118C85.1204 88.118 85.629 87.9407 85.9744 87.586C86.3197 87.2313 86.4924 86.732 86.4924 86.088V85.948C86.4924 85.304 86.3197 84.8047 85.9744 84.45C85.629 84.0953 85.1204 83.918 84.4484 83.918C84.0004 83.918 83.6457 84.002 83.3844 84.17C83.1324 84.3287 82.9037 84.52 82.6984 84.744L81.7044 84.604L82.0544 79.228H87.2904V80.264Z" fill="#707070"/>
</svg>
