<svg width="418" height="366" viewBox="0 0 418 366" fill="none" xmlns="http://www.w3.org/2000/svg">
<rect width="418" height="366" fill="white"/>
<path d="M16 168C16 163.582 19.5817 160 24 160H89C93.4183 160 97 163.582 97 168V192C97 196.418 93.4183 200 89 200H24C19.5817 200 16 196.418 16 192V168Z" fill="#44831E"/>
<path d="M36.512 180.272L35.36 177.952H35.312V186H33.312V174.832H35.632L38.992 180.56L40.144 182.88H40.192V174.832H42.192V186H39.872L36.512 180.272ZM47.772 182.336C47.26 182.347 46.8653 182.443 46.588 182.624C46.3107 182.795 46.172 183.051 46.172 183.392V183.648C46.172 183.989 46.2787 184.251 46.492 184.432C46.7053 184.613 47.0253 184.704 47.452 184.704C47.9 184.704 48.284 184.603 48.604 184.4C48.924 184.197 49.084 183.899 49.084 183.504V182.336H47.772ZM54.572 181.072V180.928C54.572 180.352 54.428 179.888 54.14 179.536C53.8627 179.173 53.4573 178.992 52.924 178.992C52.38 178.992 51.948 179.173 51.628 179.536C51.308 179.899 51.148 180.368 51.148 180.944V181.072H54.572ZM53.212 184.528C53.7133 184.528 54.1347 184.421 54.476 184.208C54.8173 183.995 55.1053 183.733 55.34 183.424L56.444 184.656C56.1027 185.136 55.6387 185.515 55.052 185.792C54.4653 186.059 53.7933 186.192 53.036 186.192C52.6307 186.192 52.252 186.144 51.9 186.048C51.548 185.952 51.2333 185.824 50.956 185.664C50.6893 185.504 50.46 185.323 50.268 185.12C50.076 184.917 49.932 184.704 49.836 184.48H49.74C49.6653 184.693 49.548 184.901 49.388 185.104C49.2387 185.307 49.0413 185.488 48.796 185.648C48.5507 185.808 48.2573 185.936 47.916 186.032C47.5853 186.139 47.196 186.192 46.748 186.192C45.9053 186.192 45.2493 185.963 44.78 185.504C44.3213 185.045 44.092 184.448 44.092 183.712C44.092 183.275 44.1773 182.891 44.348 182.56C44.5187 182.229 44.7587 181.957 45.068 181.744C45.3773 181.52 45.7507 181.355 46.188 181.248C46.6253 181.131 47.116 181.072 47.66 181.072H49.084V180.56C49.084 180.091 48.9613 179.728 48.716 179.472C48.4707 179.216 48.0813 179.088 47.548 179.088C47.0573 179.088 46.6627 179.189 46.364 179.392C46.076 179.595 45.8307 179.845 45.628 180.144L44.412 179.056C44.7213 178.576 45.132 178.192 45.644 177.904C46.156 177.605 46.8333 177.456 47.676 177.456C48.316 177.456 48.828 177.589 49.212 177.856C49.596 178.112 49.8947 178.437 50.108 178.832H50.204C50.4173 178.437 50.764 178.112 51.244 177.856C51.724 177.589 52.3 177.456 52.972 177.456C53.6227 177.456 54.1827 177.568 54.652 177.792C55.1213 178.016 55.5053 178.32 55.804 178.704C56.1133 179.088 56.3373 179.536 56.476 180.048C56.6253 180.549 56.7 181.088 56.7 181.664V182.336H51.132V182.544C51.132 183.141 51.3133 183.621 51.676 183.984C52.0387 184.347 52.5507 184.528 53.212 184.528ZM61.2481 186.192C60.4481 186.192 59.7761 186.059 59.2321 185.792C58.6881 185.515 58.2081 185.136 57.7921 184.656L59.0401 183.44C59.3495 183.792 59.6855 184.069 60.0481 184.272C60.4215 184.475 60.8481 184.576 61.3281 184.576C61.8188 184.576 62.1708 184.491 62.3841 184.32C62.6081 184.149 62.7201 183.915 62.7201 183.616C62.7201 183.371 62.6401 183.179 62.4801 183.04C62.3308 182.891 62.0695 182.789 61.6961 182.736L60.8641 182.624C59.9575 182.507 59.2641 182.251 58.7841 181.856C58.3148 181.451 58.0801 180.864 58.0801 180.096C58.0801 179.691 58.1548 179.328 58.3041 179.008C58.4535 178.677 58.6668 178.4 58.9441 178.176C59.2215 177.941 59.5521 177.765 59.9361 177.648C60.3308 177.52 60.7681 177.456 61.2481 177.456C61.6535 177.456 62.0108 177.488 62.3201 177.552C62.6401 177.605 62.9281 177.691 63.1841 177.808C63.4401 177.915 63.6748 178.053 63.8881 178.224C64.1015 178.384 64.3095 178.565 64.5121 178.768L63.3121 179.968C63.0668 179.712 62.7735 179.499 62.4321 179.328C62.0908 179.157 61.7175 179.072 61.3121 179.072C60.8641 179.072 60.5388 179.152 60.3361 179.312C60.1441 179.472 60.0481 179.68 60.0481 179.936C60.0481 180.213 60.1281 180.427 60.2881 180.576C60.4588 180.715 60.7415 180.816 61.1361 180.88L61.9841 180.992C63.7868 181.248 64.6881 182.069 64.6881 183.456C64.6881 183.861 64.6028 184.235 64.4321 184.576C64.2721 184.907 64.0428 185.195 63.7441 185.44C63.4455 185.675 63.0828 185.861 62.6561 186C62.2401 186.128 61.7708 186.192 61.2481 186.192ZM68.9795 186C68.2755 186 67.7368 185.819 67.3635 185.456C67.0008 185.083 66.8195 184.555 66.8195 183.872V179.28H65.5875V177.648H66.2275C66.5368 177.648 66.7448 177.579 66.8515 177.44C66.9688 177.291 67.0275 177.072 67.0275 176.784V175.36H68.8675V177.648H70.5795V179.28H68.8675V184.368H70.4515V186H68.9795ZM75.6694 186.192C75.0507 186.192 74.496 186.091 74.0054 185.888C73.5254 185.675 73.1147 185.381 72.7734 185.008C72.4427 184.624 72.1867 184.165 72.0054 183.632C71.824 183.088 71.7334 182.48 71.7334 181.808C71.7334 181.147 71.8187 180.549 71.9894 180.016C72.1707 179.483 72.4267 179.029 72.7574 178.656C73.088 178.272 73.4934 177.979 73.9734 177.776C74.4534 177.563 74.9974 177.456 75.6054 177.456C76.256 177.456 76.8214 177.568 77.3014 177.792C77.7814 178.016 78.176 178.32 78.4854 178.704C78.7947 179.088 79.024 179.536 79.1734 180.048C79.3334 180.549 79.4134 181.088 79.4134 181.664V182.336H73.8614V182.544C73.8614 183.152 74.032 183.643 74.3734 184.016C74.7147 184.379 75.2214 184.56 75.8934 184.56C76.4054 184.56 76.8214 184.453 77.1414 184.24C77.472 184.027 77.7654 183.755 78.0214 183.424L79.1254 184.656C78.784 185.136 78.3147 185.515 77.7174 185.792C77.1307 186.059 76.448 186.192 75.6694 186.192ZM75.6374 178.992C75.0934 178.992 74.6614 179.173 74.3414 179.536C74.0214 179.899 73.8614 180.368 73.8614 180.944V181.072H77.2854V180.928C77.2854 180.352 77.1414 179.888 76.8534 179.536C76.576 179.173 76.1707 178.992 75.6374 178.992Z" fill="white"/>
<path d="M20.592 20.264V29H19.416V20.264H16.308V19.228H23.7V20.264H20.592ZM25.5728 29V21.776H26.6928V23.106H26.7628C26.8935 22.7607 27.1268 22.4527 27.4628 22.182C27.7988 21.9113 28.2608 21.776 28.8488 21.776H29.2828V22.896H28.6248C28.0181 22.896 27.5421 23.0127 27.1968 23.246C26.8608 23.47 26.6928 23.7547 26.6928 24.1V29H25.5728ZM32.2734 20.082C32.0308 20.082 31.8534 20.026 31.7414 19.914C31.6388 19.7927 31.5874 19.6387 31.5874 19.452V19.27C31.5874 19.0833 31.6388 18.934 31.7414 18.822C31.8534 18.7007 32.0308 18.64 32.2734 18.64C32.5161 18.64 32.6888 18.7007 32.7914 18.822C32.9034 18.934 32.9594 19.0833 32.9594 19.27V19.452C32.9594 19.6387 32.9034 19.7927 32.7914 19.914C32.6888 20.026 32.5161 20.082 32.2734 20.082ZM31.7134 21.776H32.8334V29H31.7134V21.776ZM36.2134 29V21.776H37.3334V22.952H37.3894C37.5668 22.5413 37.8141 22.2147 38.1314 21.972C38.4581 21.7293 38.8921 21.608 39.4334 21.608C40.1801 21.608 40.7681 21.8507 41.1974 22.336C41.6361 22.812 41.8554 23.4887 41.8554 24.366V29H40.7354V24.562C40.7354 23.2647 40.1894 22.616 39.0974 22.616C38.8734 22.616 38.6541 22.644 38.4394 22.7C38.2341 22.756 38.0474 22.84 37.8794 22.952C37.7114 23.064 37.5761 23.2087 37.4734 23.386C37.3801 23.554 37.3334 23.7547 37.3334 23.988V29H36.2134ZM49.5211 29V27.964H52.2511V20.096H52.1531L49.6891 22.392L49.0031 21.65L51.5931 19.228H53.4271V27.964H55.9471V29H49.5211ZM68.4322 29C68.0122 29 67.7089 28.888 67.5222 28.664C67.3449 28.44 67.2329 28.16 67.1862 27.824H67.1162C66.9575 28.272 66.6962 28.608 66.3322 28.832C65.9682 29.056 65.5342 29.168 65.0302 29.168C64.2649 29.168 63.6675 28.972 63.2382 28.58C62.8182 28.188 62.6082 27.656 62.6082 26.984C62.6082 26.3027 62.8555 25.78 63.3502 25.416C63.8542 25.052 64.6335 24.87 65.6882 24.87H67.1162V24.156C67.1162 23.6427 66.9762 23.2507 66.6962 22.98C66.4162 22.7093 65.9869 22.574 65.4082 22.574C64.9695 22.574 64.6009 22.672 64.3022 22.868C64.0129 23.064 63.7702 23.3253 63.5742 23.652L62.9022 23.022C63.0982 22.63 63.4109 22.2987 63.8402 22.028C64.2695 21.748 64.8109 21.608 65.4642 21.608C66.3415 21.608 67.0229 21.8227 67.5082 22.252C67.9935 22.6813 68.2362 23.2787 68.2362 24.044V28.02H69.0622V29H68.4322ZM65.2122 28.216C65.4922 28.216 65.7489 28.1833 65.9822 28.118C66.2155 28.0527 66.4162 27.9593 66.5842 27.838C66.7522 27.7167 66.8829 27.5767 66.9762 27.418C67.0695 27.2593 67.1162 27.0867 67.1162 26.9V25.71H65.6322C64.9882 25.71 64.5169 25.8033 64.2182 25.99C63.9289 26.1767 63.7842 26.4473 63.7842 26.802V27.096C63.7842 27.4507 63.9102 27.726 64.1622 27.922C64.4235 28.118 64.7735 28.216 65.2122 28.216ZM72.0527 22.756H70.8767V21.776H72.0527V20.32C72.0527 19.816 72.1834 19.41 72.4447 19.102C72.706 18.794 73.1027 18.64 73.6347 18.64H74.7267V19.62H73.1727V21.776H74.7267V22.756H73.1727V29H72.0527V22.756ZM87.2904 20.264H83.0064L82.7264 23.988H82.8244C83.0577 23.6613 83.319 23.4 83.6084 23.204C83.907 23.008 84.313 22.91 84.8264 22.91C85.2464 22.91 85.6337 22.98 85.9884 23.12C86.343 23.26 86.651 23.4607 86.9124 23.722C87.1737 23.974 87.3744 24.2867 87.5144 24.66C87.6637 25.0333 87.7384 25.458 87.7384 25.934C87.7384 26.41 87.6637 26.8487 87.5144 27.25C87.365 27.642 87.1457 27.9827 86.8564 28.272C86.5764 28.552 86.231 28.7713 85.8204 28.93C85.419 29.0887 84.9617 29.168 84.4484 29.168C84.0377 29.168 83.6737 29.1213 83.3564 29.028C83.0484 28.9347 82.773 28.8087 82.5304 28.65C82.2877 28.4913 82.073 28.314 81.8864 28.118C81.709 27.922 81.5457 27.7167 81.3964 27.502L82.2784 26.83C82.3997 27.026 82.5257 27.2033 82.6564 27.362C82.7964 27.5207 82.9457 27.656 83.1044 27.768C83.2724 27.88 83.4637 27.9687 83.6784 28.034C83.893 28.09 84.1497 28.118 84.4484 28.118C85.1204 28.118 85.629 27.9407 85.9744 27.586C86.3197 27.2313 86.4924 26.732 86.4924 26.088V25.948C86.4924 25.304 86.3197 24.8047 85.9744 24.45C85.629 24.0953 85.1204 23.918 84.4484 23.918C84.0004 23.918 83.6457 24.002 83.3844 24.17C83.1324 24.3287 82.9037 24.52 82.6984 24.744L81.7044 24.604L82.0544 19.228H87.2904V20.264Z" fill="#707070"/>
<path d="M17.312 70.832H22.48C22.9387 70.832 23.3493 70.9013 23.712 71.04C24.0853 71.1787 24.4 71.3707 24.656 71.616C24.912 71.8613 25.104 72.1653 25.232 72.528C25.3707 72.88 25.44 73.2693 25.44 73.696C25.44 74.1227 25.3813 74.4853 25.264 74.784C25.1573 75.072 25.008 75.312 24.816 75.504C24.6347 75.696 24.4213 75.84 24.176 75.936C23.9413 76.032 23.696 76.0853 23.44 76.096V76.192C23.6853 76.192 23.9467 76.24 24.224 76.336C24.512 76.432 24.7733 76.5867 25.008 76.8C25.2533 77.0027 25.456 77.2693 25.616 77.6C25.776 77.92 25.856 78.32 25.856 78.8C25.856 79.248 25.7813 79.6693 25.632 80.064C25.4933 80.448 25.296 80.784 25.04 81.072C24.784 81.36 24.48 81.5893 24.128 81.76C23.776 81.92 23.392 82 22.976 82H17.312V70.832ZM19.424 80.208H22.368C22.7733 80.208 23.088 80.1067 23.312 79.904C23.536 79.6907 23.648 79.3867 23.648 78.992V78.448C23.648 78.0533 23.536 77.7493 23.312 77.536C23.088 77.3227 22.7733 77.216 22.368 77.216H19.424V80.208ZM19.424 75.488H22.032C22.416 75.488 22.7147 75.3867 22.928 75.184C23.1413 74.9707 23.248 74.6773 23.248 74.304V73.808C23.248 73.4347 23.1413 73.1467 22.928 72.944C22.7147 72.7307 22.416 72.624 22.032 72.624H19.424V75.488ZM32.7728 73.648H34.6927L31.3328 83.488C31.2261 83.7867 31.1034 84.0427 30.9648 84.256C30.8368 84.48 30.6821 84.6613 30.5008 84.8C30.3194 84.9387 30.1008 85.04 29.8448 85.104C29.5888 85.168 29.2901 85.2 28.9488 85.2H27.7168V83.568H29.2208L29.6048 82.4L26.6128 73.648H28.6448L30.1008 78.064L30.6448 80.176H30.7408L31.3168 78.064L32.7728 73.648Z" fill="#1A1A1A"/>
<path d="M16.5 104C16.5 99.8579 19.8579 96.5 24 96.5H328C332.142 96.5 335.5 99.8579 335.5 104V128C335.5 132.142 332.142 135.5 328 135.5H24C19.8579 135.5 16.5 132.142 16.5 128V104Z" fill="white"/>
<path d="M16.5 104C16.5 99.8579 19.8579 96.5 24 96.5H328C332.142 96.5 335.5 99.8579 335.5 104V128C335.5 132.142 332.142 135.5 328 135.5H24C19.8579 135.5 16.5 132.142 16.5 128V104Z" stroke="#8E8E8E"/>
</svg>
