<svg width="418" height="428" viewBox="0 0 418 428" fill="none" xmlns="http://www.w3.org/2000/svg">
<g clip-path="url(#clip0_14607_4969)">
<rect width="418" height="428" fill="white"/>
<path d="M17.312 34V22.832H19.424V32.128H23.824V34H17.312ZM28.6835 34.192C28.0862 34.192 27.5475 34.0907 27.0675 33.888C26.5982 33.6853 26.1928 33.392 25.8515 33.008C25.5208 32.624 25.2648 32.1653 25.0835 31.632C24.9022 31.088 24.8115 30.48 24.8115 29.808C24.8115 29.136 24.9022 28.5333 25.0835 28C25.2648 27.4667 25.5208 27.0133 25.8515 26.64C26.1928 26.256 26.5982 25.9627 27.0675 25.76C27.5475 25.5573 28.0862 25.456 28.6835 25.456C29.2808 25.456 29.8195 25.5573 30.2995 25.76C30.7795 25.9627 31.1848 26.256 31.5155 26.64C31.8568 27.0133 32.1182 27.4667 32.2995 28C32.4808 28.5333 32.5715 29.136 32.5715 29.808C32.5715 30.48 32.4808 31.088 32.2995 31.632C32.1182 32.1653 31.8568 32.624 31.5155 33.008C31.1848 33.392 30.7795 33.6853 30.2995 33.888C29.8195 34.0907 29.2808 34.192 28.6835 34.192ZM28.6835 32.544C29.2275 32.544 29.6542 32.3787 29.9635 32.048C30.2728 31.7173 30.4275 31.232 30.4275 30.592V29.04C30.4275 28.4107 30.2728 27.9307 29.9635 27.6C29.6542 27.2693 29.2275 27.104 28.6835 27.104C28.1502 27.104 27.7288 27.2693 27.4195 27.6C27.1102 27.9307 26.9555 28.4107 26.9555 29.04V30.592C26.9555 31.232 27.1102 31.7173 27.4195 32.048C27.7288 32.3787 28.1502 32.544 28.6835 32.544ZM34.3871 34V25.648H36.4351V27.376H36.5151C36.5685 27.152 36.6485 26.9387 36.7551 26.736C36.8725 26.5227 37.0218 26.336 37.2031 26.176C37.3845 26.016 37.5978 25.888 37.8431 25.792C38.0991 25.696 38.3925 25.648 38.7231 25.648H39.1711V27.584H38.5311C37.8378 27.584 37.3151 27.6853 36.9631 27.888C36.6111 28.0907 36.4351 28.4213 36.4351 28.88V34H34.3871ZM43.9663 34.192C43.3476 34.192 42.7929 34.0907 42.3023 33.888C41.8223 33.6747 41.4116 33.3813 41.0703 33.008C40.7396 32.624 40.4836 32.1653 40.3023 31.632C40.1209 31.088 40.0303 30.48 40.0303 29.808C40.0303 29.1467 40.1156 28.5493 40.2863 28.016C40.4676 27.4827 40.7236 27.0293 41.0543 26.656C41.3849 26.272 41.7903 25.9787 42.2703 25.776C42.7503 25.5627 43.2943 25.456 43.9023 25.456C44.5529 25.456 45.1183 25.568 45.5983 25.792C46.0783 26.016 46.4729 26.32 46.7823 26.704C47.0916 27.088 47.3209 27.536 47.4703 28.048C47.6303 28.5493 47.7103 29.088 47.7103 29.664V30.336H42.1583V30.544C42.1583 31.152 42.3289 31.6427 42.6703 32.016C43.0116 32.3787 43.5183 32.56 44.1903 32.56C44.7023 32.56 45.1183 32.4533 45.4383 32.24C45.7689 32.0267 46.0623 31.7547 46.3183 31.424L47.4223 32.656C47.0809 33.136 46.6116 33.5147 46.0143 33.792C45.4276 34.0587 44.7449 34.192 43.9663 34.192ZM43.9343 26.992C43.3903 26.992 42.9583 27.1733 42.6383 27.536C42.3183 27.8987 42.1583 28.368 42.1583 28.944V29.072H45.5823V28.928C45.5823 28.352 45.4383 27.888 45.1503 27.536C44.8729 27.1733 44.4676 26.992 43.9343 26.992ZM49.5121 34V25.648H51.5601V27.04H51.6401C51.8001 26.6027 52.0561 26.2293 52.4081 25.92C52.7601 25.6107 53.2508 25.456 53.8801 25.456C54.4561 25.456 54.9521 25.5947 55.3681 25.872C55.7841 26.1493 56.0935 26.5707 56.2961 27.136H56.3281C56.4775 26.6667 56.7708 26.272 57.2081 25.952C57.6561 25.6213 58.2161 25.456 58.8881 25.456C59.7095 25.456 60.3388 25.7387 60.7761 26.304C61.2241 26.8693 61.4481 27.6747 61.4481 28.72V34H59.4001V28.928C59.4001 27.7333 58.9521 27.136 58.0561 27.136C57.8535 27.136 57.6561 27.168 57.4641 27.232C57.2828 27.2853 57.1175 27.3707 56.9681 27.488C56.8295 27.5947 56.7175 27.7333 56.6321 27.904C56.5468 28.064 56.5041 28.256 56.5041 28.48V34H54.4561V28.928C54.4561 27.7333 54.0081 27.136 53.1121 27.136C52.9201 27.136 52.7281 27.168 52.5361 27.232C52.3548 27.2853 52.1895 27.3707 52.0401 27.488C51.9015 27.5947 51.7841 27.7333 51.6881 27.904C51.6028 28.064 51.5601 28.256 51.5601 28.48V34H49.5121ZM68.5205 24.432C68.0938 24.432 67.7845 24.336 67.5925 24.144C67.4112 23.952 67.3205 23.7067 67.3205 23.408V23.088C67.3205 22.7893 67.4112 22.544 67.5925 22.352C67.7845 22.16 68.0938 22.064 68.5205 22.064C68.9365 22.064 69.2405 22.16 69.4325 22.352C69.6245 22.544 69.7205 22.7893 69.7205 23.088V23.408C69.7205 23.7067 69.6245 23.952 69.4325 24.144C69.2405 24.336 68.9365 24.432 68.5205 24.432ZM67.4965 25.648H69.5445V34H67.4965V25.648ZM71.9184 25.648H73.9664V27.024H74.0304C74.1797 26.544 74.4624 26.1653 74.8784 25.888C75.2944 25.6 75.7797 25.456 76.3344 25.456C77.401 25.456 78.2117 25.8347 78.7664 26.592C79.3317 27.3387 79.6144 28.4107 79.6144 29.808C79.6144 31.216 79.3317 32.2987 78.7664 33.056C78.2117 33.8133 77.401 34.192 76.3344 34.192C75.7797 34.192 75.2944 34.048 74.8784 33.76C74.473 33.472 74.1904 33.088 74.0304 32.608H73.9664V37.2H71.9184V25.648ZM75.6784 32.496C76.2117 32.496 76.6437 32.32 76.9744 31.968C77.305 31.616 77.4704 31.1413 77.4704 30.544V29.104C77.4704 28.5067 77.305 28.032 76.9744 27.68C76.6437 27.3173 76.2117 27.136 75.6784 27.136C75.1877 27.136 74.777 27.2587 74.4464 27.504C74.1264 27.7493 73.9664 28.0747 73.9664 28.48V31.136C73.9664 31.5733 74.1264 31.9093 74.4464 32.144C74.777 32.3787 75.1877 32.496 75.6784 32.496ZM84.2481 34.192C83.4481 34.192 82.7761 34.0587 82.2321 33.792C81.6881 33.5147 81.2081 33.136 80.7921 32.656L82.0401 31.44C82.3495 31.792 82.6855 32.0693 83.0481 32.272C83.4215 32.4747 83.8481 32.576 84.3281 32.576C84.8188 32.576 85.1708 32.4907 85.3841 32.32C85.6081 32.1493 85.7201 31.9147 85.7201 31.616C85.7201 31.3707 85.6401 31.1787 85.4801 31.04C85.3308 30.8907 85.0695 30.7893 84.6961 30.736L83.8641 30.624C82.9575 30.5067 82.2641 30.2507 81.7841 29.856C81.3148 29.4507 81.0801 28.864 81.0801 28.096C81.0801 27.6907 81.1548 27.328 81.3041 27.008C81.4535 26.6773 81.6668 26.4 81.9441 26.176C82.2215 25.9413 82.5521 25.7653 82.9361 25.648C83.3308 25.52 83.7681 25.456 84.2481 25.456C84.6535 25.456 85.0108 25.488 85.3201 25.552C85.6401 25.6053 85.9281 25.6907 86.1841 25.808C86.4401 25.9147 86.6748 26.0533 86.8881 26.224C87.1015 26.384 87.3095 26.5653 87.5121 26.768L86.3121 27.968C86.0668 27.712 85.7735 27.4987 85.4321 27.328C85.0908 27.1573 84.7175 27.072 84.3121 27.072C83.8641 27.072 83.5388 27.152 83.3361 27.312C83.1441 27.472 83.0481 27.68 83.0481 27.936C83.0481 28.2133 83.1281 28.4267 83.2881 28.576C83.4588 28.7147 83.7415 28.816 84.1361 28.88L84.9841 28.992C86.7868 29.248 87.6881 30.0693 87.6881 31.456C87.6881 31.8613 87.6028 32.2347 87.4321 32.576C87.2721 32.9067 87.0428 33.1947 86.7441 33.44C86.4455 33.6747 86.0828 33.8613 85.6561 34C85.2401 34.128 84.7708 34.192 84.2481 34.192ZM94.4885 32.608H94.4085C94.3338 32.8213 94.2325 33.024 94.1045 33.216C93.9872 33.3973 93.8325 33.5627 93.6405 33.712C93.4592 33.8613 93.2352 33.9787 92.9685 34.064C92.7125 34.1493 92.4138 34.192 92.0725 34.192C91.2085 34.192 90.5472 33.9093 90.0885 33.344C89.6298 32.7787 89.4005 31.9733 89.4005 30.928V25.648H91.4485V30.72C91.4485 31.296 91.5605 31.7387 91.7845 32.048C92.0085 32.3467 92.3658 32.496 92.8565 32.496C93.0592 32.496 93.2565 32.4693 93.4485 32.416C93.6512 32.3627 93.8272 32.2827 93.9765 32.176C94.1258 32.0587 94.2485 31.92 94.3445 31.76C94.4405 31.5893 94.4885 31.392 94.4885 31.168V25.648H96.5365V34H94.4885V32.608ZM98.9028 34V25.648H100.951V27.04H101.031C101.191 26.6027 101.447 26.2293 101.799 25.92C102.151 25.6107 102.641 25.456 103.271 25.456C103.847 25.456 104.343 25.5947 104.759 25.872C105.175 26.1493 105.484 26.5707 105.687 27.136H105.719C105.868 26.6667 106.161 26.272 106.599 25.952C107.047 25.6213 107.607 25.456 108.279 25.456C109.1 25.456 109.729 25.7387 110.167 26.304C110.615 26.8693 110.839 27.6747 110.839 28.72V34H108.791V28.928C108.791 27.7333 108.343 27.136 107.447 27.136C107.244 27.136 107.047 27.168 106.855 27.232C106.673 27.2853 106.508 27.3707 106.359 27.488C106.22 27.5947 106.108 27.7333 106.023 27.904C105.937 28.064 105.895 28.256 105.895 28.48V34H103.847V28.928C103.847 27.7333 103.399 27.136 102.503 27.136C102.311 27.136 102.119 27.168 101.927 27.232C101.745 27.2853 101.58 27.3707 101.431 27.488C101.292 27.5947 101.175 27.7333 101.079 27.904C100.993 28.064 100.951 28.256 100.951 28.48V34H98.9028ZM122.071 32.608H121.991C121.842 33.088 121.559 33.472 121.143 33.76C120.727 34.048 120.242 34.192 119.687 34.192C118.631 34.192 117.82 33.8133 117.255 33.056C116.7 32.2987 116.423 31.216 116.423 29.808C116.423 28.4107 116.7 27.3387 117.255 26.592C117.82 25.8347 118.631 25.456 119.687 25.456C120.242 25.456 120.727 25.6 121.143 25.888C121.559 26.1653 121.842 26.544 121.991 27.024H122.071V22.16H124.119V34H122.071V32.608ZM120.343 32.496C120.834 32.496 121.244 32.3787 121.575 32.144C121.906 31.9093 122.071 31.5733 122.071 31.136V28.48C122.071 28.0747 121.906 27.7493 121.575 27.504C121.244 27.2587 120.834 27.136 120.343 27.136C119.81 27.136 119.378 27.3173 119.047 27.68C118.727 28.032 118.567 28.5067 118.567 29.104V30.544C118.567 31.1413 118.727 31.616 119.047 31.968C119.378 32.32 119.81 32.496 120.343 32.496ZM129.793 34.192C129.196 34.192 128.657 34.0907 128.177 33.888C127.708 33.6853 127.302 33.392 126.961 33.008C126.63 32.624 126.374 32.1653 126.193 31.632C126.012 31.088 125.921 30.48 125.921 29.808C125.921 29.136 126.012 28.5333 126.193 28C126.374 27.4667 126.63 27.0133 126.961 26.64C127.302 26.256 127.708 25.9627 128.177 25.76C128.657 25.5573 129.196 25.456 129.793 25.456C130.39 25.456 130.929 25.5573 131.409 25.76C131.889 25.9627 132.294 26.256 132.625 26.64C132.966 27.0133 133.228 27.4667 133.409 28C133.59 28.5333 133.681 29.136 133.681 29.808C133.681 30.48 133.59 31.088 133.409 31.632C133.228 32.1653 132.966 32.624 132.625 33.008C132.294 33.392 131.889 33.6853 131.409 33.888C130.929 34.0907 130.39 34.192 129.793 34.192ZM129.793 32.544C130.337 32.544 130.764 32.3787 131.073 32.048C131.382 31.7173 131.537 31.232 131.537 30.592V29.04C131.537 28.4107 131.382 27.9307 131.073 27.6C130.764 27.2693 130.337 27.104 129.793 27.104C129.26 27.104 128.838 27.2693 128.529 27.6C128.22 27.9307 128.065 28.4107 128.065 29.04V30.592C128.065 31.232 128.22 31.7173 128.529 32.048C128.838 32.3787 129.26 32.544 129.793 32.544ZM137.545 34C136.841 34 136.323 33.824 135.993 33.472C135.662 33.12 135.497 32.624 135.497 31.984V22.16H137.545V32.368H138.649V34H137.545ZM143.512 34.192C142.914 34.192 142.376 34.0907 141.896 33.888C141.426 33.6853 141.021 33.392 140.68 33.008C140.349 32.624 140.093 32.1653 139.912 31.632C139.73 31.088 139.64 30.48 139.64 29.808C139.64 29.136 139.73 28.5333 139.912 28C140.093 27.4667 140.349 27.0133 140.68 26.64C141.021 26.256 141.426 25.9627 141.896 25.76C142.376 25.5573 142.914 25.456 143.512 25.456C144.109 25.456 144.648 25.5573 145.128 25.76C145.608 25.9627 146.013 26.256 146.344 26.64C146.685 27.0133 146.946 27.4667 147.128 28C147.309 28.5333 147.4 29.136 147.4 29.808C147.4 30.48 147.309 31.088 147.128 31.632C146.946 32.1653 146.685 32.624 146.344 33.008C146.013 33.392 145.608 33.6853 145.128 33.888C144.648 34.0907 144.109 34.192 143.512 34.192ZM143.512 32.544C144.056 32.544 144.482 32.3787 144.792 32.048C145.101 31.7173 145.256 31.232 145.256 30.592V29.04C145.256 28.4107 145.101 27.9307 144.792 27.6C144.482 27.2693 144.056 27.104 143.512 27.104C142.978 27.104 142.557 27.2693 142.248 27.6C141.938 27.9307 141.784 28.4107 141.784 29.04V30.592C141.784 31.232 141.938 31.7173 142.248 32.048C142.557 32.3787 142.978 32.544 143.512 32.544ZM149.215 34V25.648H151.263V27.376H151.343C151.397 27.152 151.477 26.9387 151.583 26.736C151.701 26.5227 151.85 26.336 152.031 26.176C152.213 26.016 152.426 25.888 152.671 25.792C152.927 25.696 153.221 25.648 153.551 25.648H153.999V27.584H153.359C152.666 27.584 152.143 27.6853 151.791 27.888C151.439 28.0907 151.263 28.4213 151.263 28.88V34H149.215ZM162.014 34.192C161.214 34.192 160.542 34.0587 159.998 33.792C159.454 33.5147 158.974 33.136 158.558 32.656L159.806 31.44C160.115 31.792 160.451 32.0693 160.814 32.272C161.187 32.4747 161.614 32.576 162.094 32.576C162.584 32.576 162.936 32.4907 163.15 32.32C163.374 32.1493 163.486 31.9147 163.486 31.616C163.486 31.3707 163.406 31.1787 163.246 31.04C163.096 30.8907 162.835 30.7893 162.462 30.736L161.63 30.624C160.723 30.5067 160.03 30.2507 159.55 29.856C159.08 29.4507 158.846 28.864 158.846 28.096C158.846 27.6907 158.92 27.328 159.07 27.008C159.219 26.6773 159.432 26.4 159.71 26.176C159.987 25.9413 160.318 25.7653 160.702 25.648C161.096 25.52 161.534 25.456 162.014 25.456C162.419 25.456 162.776 25.488 163.086 25.552C163.406 25.6053 163.694 25.6907 163.95 25.808C164.206 25.9147 164.44 26.0533 164.654 26.224C164.867 26.384 165.075 26.5653 165.278 26.768L164.078 27.968C163.832 27.712 163.539 27.4987 163.198 27.328C162.856 27.1573 162.483 27.072 162.078 27.072C161.63 27.072 161.304 27.152 161.102 27.312C160.91 27.472 160.814 27.68 160.814 27.936C160.814 28.2133 160.894 28.4267 161.054 28.576C161.224 28.7147 161.507 28.816 161.902 28.88L162.75 28.992C164.552 29.248 165.454 30.0693 165.454 31.456C165.454 31.8613 165.368 32.2347 165.198 32.576C165.038 32.9067 164.808 33.1947 164.51 33.44C164.211 33.6747 163.848 33.8613 163.422 34C163.006 34.128 162.536 34.192 162.014 34.192ZM168.286 24.432C167.859 24.432 167.55 24.336 167.358 24.144C167.177 23.952 167.086 23.7067 167.086 23.408V23.088C167.086 22.7893 167.177 22.544 167.358 22.352C167.55 22.16 167.859 22.064 168.286 22.064C168.702 22.064 169.006 22.16 169.198 22.352C169.39 22.544 169.486 22.7893 169.486 23.088V23.408C169.486 23.7067 169.39 23.952 169.198 24.144C169.006 24.336 168.702 24.432 168.286 24.432ZM167.262 25.648H169.31V34H167.262V25.648ZM174.292 34C173.588 34 173.049 33.8187 172.676 33.456C172.313 33.0827 172.132 32.5547 172.132 31.872V27.28H170.9V25.648H171.54C171.849 25.648 172.057 25.5787 172.164 25.44C172.281 25.2907 172.34 25.072 172.34 24.784V23.36H174.18V25.648H175.892V27.28H174.18V32.368H175.764V34H174.292ZM187.594 34C187.146 34 186.788 33.872 186.522 33.616C186.266 33.3493 186.106 32.9973 186.042 32.56H185.946C185.807 33.104 185.524 33.5147 185.098 33.792C184.671 34.0587 184.143 34.192 183.514 34.192C182.66 34.192 182.004 33.968 181.546 33.52C181.087 33.072 180.858 32.4747 180.858 31.728C180.858 30.864 181.167 30.224 181.786 29.808C182.404 29.3813 183.284 29.168 184.426 29.168H185.85V28.56C185.85 28.0907 185.727 27.728 185.482 27.472C185.236 27.216 184.842 27.088 184.298 27.088C183.818 27.088 183.428 27.1947 183.13 27.408C182.842 27.6107 182.596 27.856 182.394 28.144L181.178 27.056C181.487 26.576 181.898 26.192 182.41 25.904C182.922 25.6053 183.599 25.456 184.442 25.456C185.572 25.456 186.431 25.712 187.018 26.224C187.604 26.736 187.898 27.472 187.898 28.432V32.368H188.73V34H187.594ZM184.202 32.704C184.66 32.704 185.05 32.6027 185.37 32.4C185.69 32.1973 185.85 31.8987 185.85 31.504V30.4H184.538C183.471 30.4 182.938 30.7413 182.938 31.424V31.696C182.938 32.0373 183.044 32.2933 183.258 32.464C183.482 32.624 183.796 32.704 184.202 32.704ZM190.387 34V25.648H192.435V27.04H192.515C192.675 26.6027 192.931 26.2293 193.283 25.92C193.635 25.6107 194.126 25.456 194.755 25.456C195.331 25.456 195.827 25.5947 196.243 25.872C196.659 26.1493 196.968 26.5707 197.171 27.136H197.203C197.352 26.6667 197.646 26.272 198.083 25.952C198.531 25.6213 199.091 25.456 199.763 25.456C200.584 25.456 201.214 25.7387 201.651 26.304C202.099 26.8693 202.323 27.6747 202.323 28.72V34H200.275V28.928C200.275 27.7333 199.827 27.136 198.931 27.136C198.728 27.136 198.531 27.168 198.339 27.232C198.158 27.2853 197.992 27.3707 197.843 27.488C197.704 27.5947 197.592 27.7333 197.507 27.904C197.422 28.064 197.379 28.256 197.379 28.48V34H195.331V28.928C195.331 27.7333 194.883 27.136 193.987 27.136C193.795 27.136 193.603 27.168 193.411 27.232C193.23 27.2853 193.064 27.3707 192.915 27.488C192.776 27.5947 192.659 27.7333 192.563 27.904C192.478 28.064 192.435 28.256 192.435 28.48V34H190.387ZM207.966 34.192C207.348 34.192 206.793 34.0907 206.302 33.888C205.822 33.6747 205.412 33.3813 205.07 33.008C204.74 32.624 204.484 32.1653 204.302 31.632C204.121 31.088 204.03 30.48 204.03 29.808C204.03 29.1467 204.116 28.5493 204.286 28.016C204.468 27.4827 204.724 27.0293 205.054 26.656C205.385 26.272 205.79 25.9787 206.27 25.776C206.75 25.5627 207.294 25.456 207.902 25.456C208.553 25.456 209.118 25.568 209.598 25.792C210.078 26.016 210.473 26.32 210.782 26.704C211.092 27.088 211.321 27.536 211.47 28.048C211.63 28.5493 211.71 29.088 211.71 29.664V30.336H206.158V30.544C206.158 31.152 206.329 31.6427 206.67 32.016C207.012 32.3787 207.518 32.56 208.19 32.56C208.702 32.56 209.118 32.4533 209.438 32.24C209.769 32.0267 210.062 31.7547 210.318 31.424L211.422 32.656C211.081 33.136 210.612 33.5147 210.014 33.792C209.428 34.0587 208.745 34.192 207.966 34.192ZM207.934 26.992C207.39 26.992 206.958 27.1733 206.638 27.536C206.318 27.8987 206.158 28.368 206.158 28.944V29.072H209.582V28.928C209.582 28.352 209.438 27.888 209.15 27.536C208.873 27.1733 208.468 26.992 207.934 26.992ZM216.12 34C215.416 34 214.877 33.8187 214.504 33.456C214.141 33.0827 213.96 32.5547 213.96 31.872V27.28H212.728V25.648H213.368C213.677 25.648 213.885 25.5787 213.992 25.44C214.109 25.2907 214.168 25.072 214.168 24.784V23.36H216.008V25.648H217.72V27.28H216.008V32.368H217.592V34H216.12Z" fill="black"/>
<path d="M20 57H36C37.6569 57 39 58.3431 39 60V76C39 77.6569 37.6569 79 36 79H20C18.3431 79 17 77.6569 17 76V60L17.0039 59.8457C17.0816 58.3117 18.3117 57.0816 19.8457 57.0039L20 57Z" fill="white"/>
<path d="M20 57H36C37.6569 57 39 58.3431 39 60V76C39 77.6569 37.6569 79 36 79H20C18.3431 79 17 77.6569 17 76V60L17.0039 59.8457C17.0816 58.3117 18.3117 57.0816 19.8457 57.0039L20 57Z" stroke="#1A1A1A" stroke-width="2"/>
<path d="M49.488 74V62.832H56.144V64.016H50.832V67.76H55.68V68.944H50.832V74H49.488ZM61.0113 74.192C60.4566 74.192 59.9499 74.0907 59.4913 73.888C59.0326 73.6853 58.6379 73.3973 58.3073 73.024C57.9873 72.64 57.7366 72.1867 57.5553 71.664C57.3739 71.1307 57.2833 70.5333 57.2833 69.872C57.2833 69.2213 57.3739 68.6293 57.5553 68.096C57.7366 67.5627 57.9873 67.1093 58.3073 66.736C58.6379 66.352 59.0326 66.0587 59.4913 65.856C59.9499 65.6533 60.4566 65.552 61.0113 65.552C61.5659 65.552 62.0673 65.6533 62.5153 65.856C62.9739 66.0587 63.3686 66.352 63.6993 66.736C64.0299 67.1093 64.2859 67.5627 64.4673 68.096C64.6486 68.6293 64.7393 69.2213 64.7393 69.872C64.7393 70.5333 64.6486 71.1307 64.4673 71.664C64.2859 72.1867 64.0299 72.64 63.6993 73.024C63.3686 73.3973 62.9739 73.6853 62.5153 73.888C62.0673 74.0907 61.5659 74.192 61.0113 74.192ZM61.0113 73.056C61.7046 73.056 62.2699 72.8427 62.7073 72.416C63.1446 71.9893 63.3633 71.3387 63.3633 70.464V69.28C63.3633 68.4053 63.1446 67.7547 62.7073 67.328C62.2699 66.9013 61.7046 66.688 61.0113 66.688C60.3179 66.688 59.7526 66.9013 59.3153 67.328C58.8779 67.7547 58.6593 68.4053 58.6593 69.28V70.464C58.6593 71.3387 58.8779 71.9893 59.3153 72.416C59.7526 72.8427 60.3179 73.056 61.0113 73.056ZM66.8444 74V65.744H68.1244V67.264H68.2044C68.3537 66.8693 68.6204 66.5173 69.0044 66.208C69.3884 65.8987 69.9164 65.744 70.5884 65.744H71.0844V67.024H70.3324C69.639 67.024 69.095 67.1573 68.7004 67.424C68.3164 67.68 68.1244 68.0053 68.1244 68.4V74H66.8444ZM72.7194 74V65.744H73.9994V67.088H74.0634C74.266 66.6187 74.5487 66.2453 74.9114 65.968C75.2847 65.6907 75.7807 65.552 76.3994 65.552C77.2527 65.552 77.9247 65.8293 78.4154 66.384C78.9167 66.928 79.1674 67.7013 79.1674 68.704V74H77.8874V68.928C77.8874 67.4453 77.2634 66.704 76.0154 66.704C75.7594 66.704 75.5087 66.736 75.2634 66.8C75.0287 66.864 74.8154 66.96 74.6234 67.088C74.4314 67.216 74.2767 67.3813 74.1594 67.584C74.0527 67.776 73.9994 68.0053 73.9994 68.272V74H72.7194ZM87.8131 74C87.3331 74 86.9865 73.872 86.7731 73.616C86.5705 73.36 86.4425 73.04 86.3891 72.656H86.3091C86.1278 73.168 85.8291 73.552 85.4131 73.808C84.9971 74.064 84.5011 74.192 83.9251 74.192C83.0505 74.192 82.3678 73.968 81.8771 73.52C81.3971 73.072 81.1571 72.464 81.1571 71.696C81.1571 70.9173 81.4398 70.32 82.0051 69.904C82.5811 69.488 83.4718 69.28 84.6771 69.28H86.3091V68.464C86.3091 67.8773 86.1491 67.4293 85.8291 67.12C85.5091 66.8107 85.0185 66.656 84.3571 66.656C83.8558 66.656 83.4345 66.768 83.0931 66.992C82.7625 67.216 82.4851 67.5147 82.2611 67.888L81.4931 67.168C81.7171 66.72 82.0745 66.3413 82.5651 66.032C83.0558 65.712 83.6745 65.552 84.4211 65.552C85.4238 65.552 86.2025 65.7973 86.7571 66.288C87.3118 66.7787 87.5891 67.4613 87.5891 68.336V72.88H88.5331V74H87.8131ZM84.1331 73.104C84.4531 73.104 84.7465 73.0667 85.0131 72.992C85.2798 72.9173 85.5091 72.8107 85.7011 72.672C85.8931 72.5333 86.0425 72.3733 86.1491 72.192C86.2558 72.0107 86.3091 71.8133 86.3091 71.6V70.24H84.6131C83.8771 70.24 83.3385 70.3467 82.9971 70.56C82.6665 70.7733 82.5011 71.0827 82.5011 71.488V71.824C82.5011 72.2293 82.6451 72.544 82.9331 72.768C83.2318 72.992 83.6318 73.104 84.1331 73.104ZM92.059 74L89.163 65.744H90.443L91.883 69.84L92.779 72.656H92.859L93.755 69.84L95.227 65.744H96.459L93.547 74H92.059ZM98.11 74V65.744H99.39V67.088H99.454C99.6567 66.6187 99.9393 66.2453 100.302 65.968C100.675 65.6907 101.171 65.552 101.79 65.552C102.643 65.552 103.315 65.8293 103.806 66.384C104.307 66.928 104.558 67.7013 104.558 68.704V74H103.278V68.928C103.278 67.4453 102.654 66.704 101.406 66.704C101.15 66.704 100.899 66.736 100.654 66.8C100.419 66.864 100.206 66.96 100.014 67.088C99.822 67.216 99.6673 67.3813 99.55 67.584C99.4433 67.776 99.39 68.0053 99.39 68.272V74H98.11Z" fill="#1A1A1A"/>
<path d="M20 97H36C37.6569 97 39 98.3431 39 100V116C39 117.657 37.6569 119 36 119H20C18.3431 119 17 117.657 17 116V100L17.0039 99.8457C17.0816 98.3117 18.3117 97.0816 19.8457 97.0039L20 97Z" fill="white"/>
<path d="M20 97H36C37.6569 97 39 98.3431 39 100V116C39 117.657 37.6569 119 36 119H20C18.3431 119 17 117.657 17 116V100L17.0039 99.8457C17.0816 98.3117 18.3117 97.0816 19.8457 97.0039L20 97Z" stroke="#1A1A1A" stroke-width="2"/>
<path d="M49.488 114V102.832H56.304V104.016H50.832V107.76H55.984V108.944H50.832V112.816H56.304V114H49.488ZM59.1361 106.864H57.7921V105.744H59.1361V104.08C59.1361 103.504 59.2855 103.04 59.5841 102.688C59.8828 102.336 60.3361 102.16 60.9441 102.16H62.1921V103.28H60.4161V105.744H62.1921V106.864H60.4161V114H59.1361V106.864ZM65.6996 114C65.2516 114 64.9103 113.877 64.6756 113.632C64.4516 113.376 64.3396 113.045 64.3396 112.64V106.864H62.9796V105.744H63.7476C64.025 105.744 64.2116 105.691 64.3076 105.584C64.4143 105.467 64.4676 105.269 64.4676 104.992V103.456H65.6196V105.744H67.4276V106.864H65.6196V112.88H67.2996V114H65.6996ZM72.5265 114.192C71.9612 114.192 71.4492 114.091 70.9905 113.888C70.5425 113.685 70.1532 113.397 69.8225 113.024C69.5025 112.64 69.2518 112.187 69.0705 111.664C68.8998 111.131 68.8145 110.533 68.8145 109.872C68.8145 109.221 68.8998 108.629 69.0705 108.096C69.2518 107.563 69.5025 107.109 69.8225 106.736C70.1532 106.352 70.5425 106.059 70.9905 105.856C71.4492 105.653 71.9612 105.552 72.5265 105.552C73.0812 105.552 73.5772 105.653 74.0145 105.856C74.4518 106.059 74.8252 106.341 75.1345 106.704C75.4438 107.056 75.6785 107.477 75.8385 107.968C76.0092 108.459 76.0945 108.997 76.0945 109.584V110.192H70.1585V110.576C70.1585 110.928 70.2118 111.259 70.3185 111.568C70.4358 111.867 70.5958 112.128 70.7985 112.352C71.0118 112.576 71.2678 112.752 71.5665 112.88C71.8758 113.008 72.2225 113.072 72.6065 113.072C73.1292 113.072 73.5825 112.949 73.9665 112.704C74.3612 112.459 74.6652 112.107 74.8785 111.648L75.7905 112.304C75.5238 112.869 75.1078 113.328 74.5425 113.68C73.9772 114.021 73.3052 114.192 72.5265 114.192ZM72.5265 106.624C72.1745 106.624 71.8545 106.688 71.5665 106.816C71.2785 106.933 71.0278 107.104 70.8145 107.328C70.6118 107.552 70.4518 107.819 70.3345 108.128C70.2172 108.427 70.1585 108.757 70.1585 109.12V109.232H74.7185V109.056C74.7185 108.32 74.5158 107.733 74.1105 107.296C73.7158 106.848 73.1878 106.624 72.5265 106.624ZM78.2038 114V105.744H79.4838V107.264H79.5638C79.7131 106.869 79.9798 106.517 80.3638 106.208C80.7478 105.899 81.2758 105.744 81.9478 105.744H82.4438V107.024H81.6918C80.9984 107.024 80.4544 107.157 80.0598 107.424C79.6758 107.68 79.4838 108.005 79.4838 108.4V114H78.2038ZM84.0788 114V105.744H85.3588V107.088H85.4228C85.6254 106.619 85.9081 106.245 86.2708 105.968C86.6441 105.691 87.1401 105.552 87.7588 105.552C88.6121 105.552 89.2841 105.829 89.7748 106.384C90.2761 106.928 90.5268 107.701 90.5268 108.704V114H89.2468V108.928C89.2468 107.445 88.6228 106.704 87.3748 106.704C87.1188 106.704 86.8681 106.736 86.6228 106.8C86.3881 106.864 86.1748 106.96 85.9828 107.088C85.7908 107.216 85.6361 107.381 85.5188 107.584C85.4121 107.776 85.3588 108.005 85.3588 108.272V114H84.0788ZM99.1725 114C98.6925 114 98.3458 113.872 98.1325 113.616C97.9298 113.36 97.8018 113.04 97.7485 112.656H97.6685C97.4872 113.168 97.1885 113.552 96.7725 113.808C96.3565 114.064 95.8605 114.192 95.2845 114.192C94.4098 114.192 93.7272 113.968 93.2365 113.52C92.7565 113.072 92.5165 112.464 92.5165 111.696C92.5165 110.917 92.7992 110.32 93.3645 109.904C93.9405 109.488 94.8312 109.28 96.0365 109.28H97.6685V108.464C97.6685 107.877 97.5085 107.429 97.1885 107.12C96.8685 106.811 96.3778 106.656 95.7165 106.656C95.2152 106.656 94.7938 106.768 94.4525 106.992C94.1218 107.216 93.8445 107.515 93.6205 107.888L92.8525 107.168C93.0765 106.72 93.4338 106.341 93.9245 106.032C94.4152 105.712 95.0338 105.552 95.7805 105.552C96.7832 105.552 97.5618 105.797 98.1165 106.288C98.6712 106.779 98.9485 107.461 98.9485 108.336V112.88H99.8925V114H99.1725ZM95.4925 113.104C95.8125 113.104 96.1058 113.067 96.3725 112.992C96.6392 112.917 96.8685 112.811 97.0605 112.672C97.2525 112.533 97.4018 112.373 97.5085 112.192C97.6152 112.011 97.6685 111.813 97.6685 111.6V110.24H95.9725C95.2365 110.24 94.6978 110.347 94.3565 110.56C94.0258 110.773 93.8605 111.083 93.8605 111.488V111.824C93.8605 112.229 94.0045 112.544 94.2925 112.768C94.5912 112.992 94.9912 113.104 95.4925 113.104ZM103.418 114L100.522 105.744H101.802L103.242 109.84L104.138 112.656H104.218L105.114 109.84L106.586 105.744H107.818L104.906 114H103.418ZM109.469 114V105.744H110.749V107.088H110.813C111.016 106.619 111.299 106.245 111.661 105.968C112.035 105.691 112.531 105.552 113.149 105.552C114.003 105.552 114.675 105.829 115.165 106.384C115.667 106.928 115.917 107.701 115.917 108.704V114H114.637V108.928C114.637 107.445 114.013 106.704 112.765 106.704C112.509 106.704 112.259 106.736 112.013 106.8C111.779 106.864 111.565 106.96 111.373 107.088C111.181 107.216 111.027 107.381 110.909 107.584C110.803 107.776 110.749 108.005 110.749 108.272V114H109.469Z" fill="#1A1A1A"/>
<path d="M20 137H36C37.6569 137 39 138.343 39 140V156C39 157.657 37.6569 159 36 159H20C18.3431 159 17 157.657 17 156V140L17.0039 139.846C17.0816 138.312 18.3117 137.082 19.8457 137.004L20 137Z" fill="white"/>
<path d="M20 137H36C37.6569 137 39 138.343 39 140V156C39 157.657 37.6569 159 36 159H20C18.3431 159 17 157.657 17 156V140L17.0039 139.846C17.0816 138.312 18.3117 137.082 19.8457 137.004L20 137Z" stroke="#1A1A1A" stroke-width="2"/>
<path d="M56.48 154L55.36 150.704H50.848L49.728 154H48.368L52.272 142.832H53.984L57.888 154H56.48ZM53.136 144.08H53.056L51.168 149.52H55.024L53.136 144.08ZM64.89 152.656H64.826C64.3247 153.68 63.5193 154.192 62.41 154.192C61.898 154.192 61.434 154.091 61.018 153.888C60.602 153.685 60.2447 153.397 59.946 153.024C59.658 152.651 59.434 152.197 59.274 151.664C59.1247 151.131 59.05 150.533 59.05 149.872C59.05 149.211 59.1247 148.613 59.274 148.08C59.434 147.547 59.658 147.093 59.946 146.72C60.2447 146.347 60.602 146.059 61.018 145.856C61.434 145.653 61.898 145.552 62.41 145.552C62.986 145.552 63.4767 145.68 63.882 145.936C64.298 146.181 64.6127 146.565 64.826 147.088H64.89V142.16H66.17V154H64.89V152.656ZM62.762 153.04C63.05 153.04 63.322 153.003 63.578 152.928C63.8447 152.853 64.074 152.747 64.266 152.608C64.458 152.459 64.6073 152.283 64.714 152.08C64.8313 151.867 64.89 151.627 64.89 151.36V148.288C64.89 148.064 64.8313 147.856 64.714 147.664C64.6073 147.461 64.458 147.291 64.266 147.152C64.074 147.013 63.8447 146.907 63.578 146.832C63.322 146.747 63.05 146.704 62.762 146.704C62.0367 146.704 61.466 146.933 61.05 147.392C60.634 147.84 60.426 148.432 60.426 149.168V150.576C60.426 151.312 60.634 151.909 61.05 152.368C61.466 152.816 62.0367 153.04 62.762 153.04ZM68.8913 154V145.744H70.1713V147.264H70.2513C70.4006 146.869 70.6673 146.517 71.0513 146.208C71.4353 145.899 71.9633 145.744 72.6353 145.744H73.1313V147.024H72.3793C71.6859 147.024 71.1419 147.157 70.7473 147.424C70.3633 147.68 70.1713 148.005 70.1713 148.4V154H68.8913ZM77.7921 154.192C77.2268 154.192 76.7148 154.091 76.2561 153.888C75.8081 153.685 75.4188 153.397 75.0881 153.024C74.7681 152.64 74.5175 152.187 74.3361 151.664C74.1655 151.131 74.0801 150.533 74.0801 149.872C74.0801 149.221 74.1655 148.629 74.3361 148.096C74.5175 147.563 74.7681 147.109 75.0881 146.736C75.4188 146.352 75.8081 146.059 76.2561 145.856C76.7148 145.653 77.2268 145.552 77.7921 145.552C78.3468 145.552 78.8428 145.653 79.2801 145.856C79.7175 146.059 80.0908 146.341 80.4001 146.704C80.7095 147.056 80.9441 147.477 81.1041 147.968C81.2748 148.459 81.3601 148.997 81.3601 149.584V150.192H75.4241V150.576C75.4241 150.928 75.4775 151.259 75.5841 151.568C75.7015 151.867 75.8615 152.128 76.0641 152.352C76.2775 152.576 76.5335 152.752 76.8321 152.88C77.1415 153.008 77.4881 153.072 77.8721 153.072C78.3948 153.072 78.8481 152.949 79.2321 152.704C79.6268 152.459 79.9308 152.107 80.1441 151.648L81.0561 152.304C80.7895 152.869 80.3735 153.328 79.8081 153.68C79.2428 154.021 78.5708 154.192 77.7921 154.192ZM77.7921 146.624C77.4401 146.624 77.1201 146.688 76.8321 146.816C76.5441 146.933 76.2935 147.104 76.0801 147.328C75.8775 147.552 75.7175 147.819 75.6001 148.128C75.4828 148.427 75.4241 148.757 75.4241 149.12V149.232H79.9841V149.056C79.9841 148.32 79.7815 147.733 79.3761 147.296C78.9815 146.848 78.4535 146.624 77.7921 146.624ZM85.9494 154.192C85.1814 154.192 84.536 154.048 84.0134 153.76C83.5014 153.461 83.0587 153.067 82.6854 152.576L83.5974 151.84C83.9174 152.245 84.2747 152.56 84.6694 152.784C85.064 152.997 85.5227 153.104 86.0454 153.104C86.5894 153.104 87.0107 152.987 87.3094 152.752C87.6187 152.517 87.7734 152.187 87.7734 151.76C87.7734 151.44 87.6667 151.168 87.4534 150.944C87.2507 150.709 86.8774 150.549 86.3334 150.464L85.6774 150.368C85.2934 150.315 84.9414 150.235 84.6214 150.128C84.3014 150.011 84.0187 149.861 83.7734 149.68C83.5387 149.488 83.352 149.253 83.2134 148.976C83.0854 148.699 83.0214 148.368 83.0214 147.984C83.0214 147.579 83.096 147.227 83.2454 146.928C83.3947 146.619 83.5974 146.363 83.8534 146.16C84.12 145.957 84.4347 145.808 84.7974 145.712C85.16 145.605 85.5494 145.552 85.9654 145.552C86.6374 145.552 87.1974 145.669 87.6454 145.904C88.104 146.139 88.504 146.464 88.8454 146.88L87.9974 147.648C87.816 147.392 87.5494 147.163 87.1974 146.96C86.8454 146.747 86.4027 146.64 85.8694 146.64C85.336 146.64 84.9307 146.757 84.6534 146.992C84.3867 147.216 84.2534 147.525 84.2534 147.92C84.2534 148.325 84.3867 148.619 84.6534 148.8C84.9307 148.981 85.3254 149.115 85.8374 149.2L86.4774 149.296C87.3947 149.435 88.0454 149.701 88.4294 150.096C88.8134 150.48 89.0054 150.987 89.0054 151.616C89.0054 152.416 88.7334 153.045 88.1894 153.504C87.6454 153.963 86.8987 154.192 85.9494 154.192ZM93.6525 154.192C92.8845 154.192 92.2392 154.048 91.7165 153.76C91.2045 153.461 90.7618 153.067 90.3885 152.576L91.3005 151.84C91.6205 152.245 91.9778 152.56 92.3725 152.784C92.7672 152.997 93.2258 153.104 93.7485 153.104C94.2925 153.104 94.7138 152.987 95.0125 152.752C95.3218 152.517 95.4765 152.187 95.4765 151.76C95.4765 151.44 95.3698 151.168 95.1565 150.944C94.9538 150.709 94.5805 150.549 94.0365 150.464L93.3805 150.368C92.9965 150.315 92.6445 150.235 92.3245 150.128C92.0045 150.011 91.7218 149.861 91.4765 149.68C91.2418 149.488 91.0552 149.253 90.9165 148.976C90.7885 148.699 90.7245 148.368 90.7245 147.984C90.7245 147.579 90.7992 147.227 90.9485 146.928C91.0978 146.619 91.3005 146.363 91.5565 146.16C91.8232 145.957 92.1378 145.808 92.5005 145.712C92.8632 145.605 93.2525 145.552 93.6685 145.552C94.3405 145.552 94.9005 145.669 95.3485 145.904C95.8072 146.139 96.2072 146.464 96.5485 146.88L95.7005 147.648C95.5192 147.392 95.2525 147.163 94.9005 146.96C94.5485 146.747 94.1058 146.64 93.5725 146.64C93.0392 146.64 92.6338 146.757 92.3565 146.992C92.0898 147.216 91.9565 147.525 91.9565 147.92C91.9565 148.325 92.0898 148.619 92.3565 148.8C92.6338 148.981 93.0285 149.115 93.5405 149.2L94.1805 149.296C95.0978 149.435 95.7485 149.701 96.1325 150.096C96.5165 150.48 96.7085 150.987 96.7085 151.616C96.7085 152.416 96.4365 153.045 95.8925 153.504C95.3485 153.963 94.6018 154.192 93.6525 154.192ZM102.073 154.192C101.508 154.192 100.996 154.091 100.537 153.888C100.089 153.685 99.7 153.397 99.3694 153.024C99.0494 152.64 98.7987 152.187 98.6174 151.664C98.4467 151.131 98.3614 150.533 98.3614 149.872C98.3614 149.221 98.4467 148.629 98.6174 148.096C98.7987 147.563 99.0494 147.109 99.3694 146.736C99.7 146.352 100.089 146.059 100.537 145.856C100.996 145.653 101.508 145.552 102.073 145.552C102.628 145.552 103.124 145.653 103.561 145.856C103.999 146.059 104.372 146.341 104.681 146.704C104.991 147.056 105.225 147.477 105.385 147.968C105.556 148.459 105.641 148.997 105.641 149.584V150.192H99.7054V150.576C99.7054 150.928 99.7587 151.259 99.8654 151.568C99.9827 151.867 100.143 152.128 100.345 152.352C100.559 152.576 100.815 152.752 101.113 152.88C101.423 153.008 101.769 153.072 102.153 153.072C102.676 153.072 103.129 152.949 103.513 152.704C103.908 152.459 104.212 152.107 104.425 151.648L105.337 152.304C105.071 152.869 104.655 153.328 104.089 153.68C103.524 154.021 102.852 154.192 102.073 154.192ZM102.073 146.624C101.721 146.624 101.401 146.688 101.113 146.816C100.825 146.933 100.575 147.104 100.361 147.328C100.159 147.552 99.9987 147.819 99.8814 148.128C99.764 148.427 99.7054 148.757 99.7054 149.12V149.232H104.265V149.056C104.265 148.32 104.063 147.733 103.657 147.296C103.263 146.848 102.735 146.624 102.073 146.624Z" fill="#1A1A1A"/>
<path d="M20 177H36C37.6569 177 39 178.343 39 180V196C39 197.657 37.6569 199 36 199H20C18.3431 199 17 197.657 17 196V180L17.0039 179.846C17.0816 178.312 18.3117 177.082 19.8457 177.004L20 177Z" fill="white"/>
<path d="M20 177H36C37.6569 177 39 178.343 39 180V196C39 197.657 37.6569 199 36 199H20C18.3431 199 17 197.657 17 196V180L17.0039 179.846C17.0816 178.312 18.3117 177.082 19.8457 177.004L20 177Z" stroke="#1A1A1A" stroke-width="2"/>
<path d="M49.488 194V182.832H56.304V184.016H50.832V187.76H55.984V188.944H50.832V192.816H56.304V194H49.488ZM58.4321 189.824V188.448H62.6081V189.824H58.4321ZM65.0788 194V185.744H66.3588V187.088H66.4228C66.5188 186.875 66.6254 186.677 66.7428 186.496C66.8708 186.304 67.0201 186.139 67.1908 186C67.3721 185.861 67.5801 185.755 67.8148 185.68C68.0494 185.595 68.3268 185.552 68.6468 185.552C69.1908 185.552 69.6921 185.685 70.1508 185.952C70.6094 186.208 70.9508 186.635 71.1748 187.232H71.2068C71.3561 186.784 71.6334 186.395 72.0388 186.064C72.4548 185.723 73.0148 185.552 73.7188 185.552C74.5614 185.552 75.2174 185.829 75.6868 186.384C76.1668 186.928 76.4068 187.701 76.4068 188.704V194H75.1268V188.928C75.1268 188.192 74.9828 187.637 74.6948 187.264C74.4068 186.891 73.9481 186.704 73.3188 186.704C73.0628 186.704 72.8174 186.736 72.5828 186.8C72.3588 186.864 72.1561 186.96 71.9748 187.088C71.7934 187.216 71.6494 187.381 71.5428 187.584C71.4361 187.776 71.3828 188.005 71.3828 188.272V194H70.1028V188.928C70.1028 188.192 69.9588 187.637 69.6708 187.264C69.3828 186.891 68.9348 186.704 68.3268 186.704C68.0708 186.704 67.8254 186.736 67.5908 186.8C67.3561 186.864 67.1481 186.96 66.9668 187.088C66.7854 187.216 66.6361 187.381 66.5188 187.584C66.4121 187.776 66.3588 188.005 66.3588 188.272V194H65.0788ZM85.0475 194C84.5675 194 84.2208 193.872 84.0075 193.616C83.8048 193.36 83.6768 193.04 83.6235 192.656H83.5435C83.3622 193.168 83.0635 193.552 82.6475 193.808C82.2315 194.064 81.7355 194.192 81.1595 194.192C80.2848 194.192 79.6022 193.968 79.1115 193.52C78.6315 193.072 78.3915 192.464 78.3915 191.696C78.3915 190.917 78.6742 190.32 79.2395 189.904C79.8155 189.488 80.7062 189.28 81.9115 189.28H83.5435V188.464C83.5435 187.877 83.3835 187.429 83.0635 187.12C82.7435 186.811 82.2528 186.656 81.5915 186.656C81.0902 186.656 80.6688 186.768 80.3275 186.992C79.9968 187.216 79.7195 187.515 79.4955 187.888L78.7275 187.168C78.9515 186.72 79.3088 186.341 79.7995 186.032C80.2902 185.712 80.9088 185.552 81.6555 185.552C82.6582 185.552 83.4368 185.797 83.9915 186.288C84.5462 186.779 84.8235 187.461 84.8235 188.336V192.88H85.7675V194H85.0475ZM81.3675 193.104C81.6875 193.104 81.9808 193.067 82.2475 192.992C82.5142 192.917 82.7435 192.811 82.9355 192.672C83.1275 192.533 83.2768 192.373 83.3835 192.192C83.4902 192.011 83.5435 191.813 83.5435 191.6V190.24H81.8475C81.1115 190.24 80.5728 190.347 80.2315 190.56C79.9008 190.773 79.7355 191.083 79.7355 191.488V191.824C79.7355 192.229 79.8795 192.544 80.1675 192.768C80.4662 192.992 80.8662 193.104 81.3675 193.104ZM88.2344 183.808C87.957 183.808 87.7544 183.744 87.6264 183.616C87.509 183.477 87.4504 183.301 87.4504 183.088V182.88C87.4504 182.667 87.509 182.496 87.6264 182.368C87.7544 182.229 87.957 182.16 88.2344 182.16C88.5117 182.16 88.709 182.229 88.8264 182.368C88.9544 182.496 89.0184 182.667 89.0184 182.88V183.088C89.0184 183.301 88.9544 183.477 88.8264 183.616C88.709 183.744 88.5117 183.808 88.2344 183.808ZM87.5944 185.744H88.8744V194H87.5944V185.744ZM92.9544 194C92.5064 194 92.165 193.877 91.9304 193.632C91.7064 193.376 91.5944 193.056 91.5944 192.672V182.16H92.8744V192.88H94.0904V194H92.9544ZM101.954 194C101.474 194 101.127 193.872 100.914 193.616C100.711 193.36 100.583 193.04 100.53 192.656H100.45C100.268 193.168 99.9698 193.552 99.5538 193.808C99.1378 194.064 98.6418 194.192 98.0658 194.192C97.1911 194.192 96.5084 193.968 96.0178 193.52C95.5378 193.072 95.2978 192.464 95.2978 191.696C95.2978 190.917 95.5804 190.32 96.1458 189.904C96.7218 189.488 97.6124 189.28 98.8177 189.28H100.45V188.464C100.45 187.877 100.29 187.429 99.9698 187.12C99.6498 186.811 99.1591 186.656 98.4978 186.656C97.9964 186.656 97.5751 186.768 97.2338 186.992C96.9031 187.216 96.6258 187.515 96.4018 187.888L95.6338 187.168C95.8578 186.72 96.2151 186.341 96.7057 186.032C97.1964 185.712 97.8151 185.552 98.5618 185.552C99.5644 185.552 100.343 185.797 100.898 186.288C101.452 186.779 101.73 187.461 101.73 188.336V192.88H102.674V194H101.954ZM98.2738 193.104C98.5938 193.104 98.8871 193.067 99.1538 192.992C99.4204 192.917 99.6498 192.811 99.8418 192.672C100.034 192.533 100.183 192.373 100.29 192.192C100.396 192.011 100.45 191.813 100.45 191.6V190.24H98.7538C98.0178 190.24 97.4791 190.347 97.1378 190.56C96.8071 190.773 96.6418 191.083 96.6418 191.488V191.824C96.6418 192.229 96.7858 192.544 97.0738 192.768C97.3724 192.992 97.7724 193.104 98.2738 193.104ZM109.781 192.656H109.717C109.215 193.68 108.41 194.192 107.301 194.192C106.789 194.192 106.325 194.091 105.909 193.888C105.493 193.685 105.135 193.397 104.837 193.024C104.549 192.651 104.325 192.197 104.165 191.664C104.015 191.131 103.941 190.533 103.941 189.872C103.941 189.211 104.015 188.613 104.165 188.08C104.325 187.547 104.549 187.093 104.837 186.72C105.135 186.347 105.493 186.059 105.909 185.856C106.325 185.653 106.789 185.552 107.301 185.552C107.877 185.552 108.367 185.68 108.773 185.936C109.189 186.181 109.503 186.565 109.717 187.088H109.781V182.16H111.061V194H109.781V192.656ZM107.653 193.04C107.941 193.04 108.213 193.003 108.469 192.928C108.735 192.853 108.965 192.747 109.157 192.608C109.349 192.459 109.498 192.283 109.605 192.08C109.722 191.867 109.781 191.627 109.781 191.36V188.288C109.781 188.064 109.722 187.856 109.605 187.664C109.498 187.461 109.349 187.291 109.157 187.152C108.965 187.013 108.735 186.907 108.469 186.832C108.213 186.747 107.941 186.704 107.653 186.704C106.927 186.704 106.357 186.933 105.941 187.392C105.525 187.84 105.317 188.432 105.317 189.168V190.576C105.317 191.312 105.525 191.909 105.941 192.368C106.357 192.816 106.927 193.04 107.653 193.04ZM113.782 194V185.744H115.062V187.264H115.142C115.291 186.869 115.558 186.517 115.942 186.208C116.326 185.899 116.854 185.744 117.526 185.744H118.022V187.024H117.27C116.577 187.024 116.033 187.157 115.638 187.424C115.254 187.68 115.062 188.005 115.062 188.4V194H113.782ZM122.683 194.192C122.117 194.192 121.605 194.091 121.147 193.888C120.699 193.685 120.309 193.397 119.979 193.024C119.659 192.64 119.408 192.187 119.227 191.664C119.056 191.131 118.971 190.533 118.971 189.872C118.971 189.221 119.056 188.629 119.227 188.096C119.408 187.563 119.659 187.109 119.979 186.736C120.309 186.352 120.699 186.059 121.147 185.856C121.605 185.653 122.117 185.552 122.683 185.552C123.237 185.552 123.733 185.653 124.171 185.856C124.608 186.059 124.981 186.341 125.291 186.704C125.6 187.056 125.835 187.477 125.995 187.968C126.165 188.459 126.251 188.997 126.251 189.584V190.192H120.315V190.576C120.315 190.928 120.368 191.259 120.475 191.568C120.592 191.867 120.752 192.128 120.955 192.352C121.168 192.576 121.424 192.752 121.723 192.88C122.032 193.008 122.379 193.072 122.763 193.072C123.285 193.072 123.739 192.949 124.123 192.704C124.517 192.459 124.821 192.107 125.035 191.648L125.947 192.304C125.68 192.869 125.264 193.328 124.699 193.68C124.133 194.021 123.461 194.192 122.683 194.192ZM122.683 186.624C122.331 186.624 122.011 186.688 121.723 186.816C121.435 186.933 121.184 187.104 120.971 187.328C120.768 187.552 120.608 187.819 120.491 188.128C120.373 188.427 120.315 188.757 120.315 189.12V189.232H124.875V189.056C124.875 188.32 124.672 187.733 124.267 187.296C123.872 186.848 123.344 186.624 122.683 186.624ZM130.84 194.192C130.072 194.192 129.427 194.048 128.904 193.76C128.392 193.461 127.949 193.067 127.576 192.576L128.488 191.84C128.808 192.245 129.165 192.56 129.56 192.784C129.955 192.997 130.413 193.104 130.936 193.104C131.48 193.104 131.901 192.987 132.2 192.752C132.509 192.517 132.664 192.187 132.664 191.76C132.664 191.44 132.557 191.168 132.344 190.944C132.141 190.709 131.768 190.549 131.224 190.464L130.568 190.368C130.184 190.315 129.832 190.235 129.512 190.128C129.192 190.011 128.909 189.861 128.664 189.68C128.429 189.488 128.243 189.253 128.104 188.976C127.976 188.699 127.912 188.368 127.912 187.984C127.912 187.579 127.987 187.227 128.136 186.928C128.285 186.619 128.488 186.363 128.744 186.16C129.011 185.957 129.325 185.808 129.688 185.712C130.051 185.605 130.44 185.552 130.856 185.552C131.528 185.552 132.088 185.669 132.536 185.904C132.995 186.139 133.395 186.464 133.736 186.88L132.888 187.648C132.707 187.392 132.44 187.163 132.088 186.96C131.736 186.747 131.293 186.64 130.76 186.64C130.227 186.64 129.821 186.757 129.544 186.992C129.277 187.216 129.144 187.525 129.144 187.92C129.144 188.325 129.277 188.619 129.544 188.8C129.821 188.981 130.216 189.115 130.728 189.2L131.368 189.296C132.285 189.435 132.936 189.701 133.32 190.096C133.704 190.48 133.896 190.987 133.896 191.616C133.896 192.416 133.624 193.045 133.08 193.504C132.536 193.963 131.789 194.192 130.84 194.192ZM138.543 194.192C137.775 194.192 137.13 194.048 136.607 193.76C136.095 193.461 135.652 193.067 135.279 192.576L136.191 191.84C136.511 192.245 136.868 192.56 137.263 192.784C137.658 192.997 138.116 193.104 138.639 193.104C139.183 193.104 139.604 192.987 139.903 192.752C140.212 192.517 140.367 192.187 140.367 191.76C140.367 191.44 140.26 191.168 140.047 190.944C139.844 190.709 139.471 190.549 138.927 190.464L138.271 190.368C137.887 190.315 137.535 190.235 137.215 190.128C136.895 190.011 136.612 189.861 136.367 189.68C136.132 189.488 135.946 189.253 135.807 188.976C135.679 188.699 135.615 188.368 135.615 187.984C135.615 187.579 135.69 187.227 135.839 186.928C135.988 186.619 136.191 186.363 136.447 186.16C136.714 185.957 137.028 185.808 137.391 185.712C137.754 185.605 138.143 185.552 138.559 185.552C139.231 185.552 139.791 185.669 140.239 185.904C140.698 186.139 141.098 186.464 141.439 186.88L140.591 187.648C140.41 187.392 140.143 187.163 139.791 186.96C139.439 186.747 138.996 186.64 138.463 186.64C137.93 186.64 137.524 186.757 137.247 186.992C136.98 187.216 136.847 187.525 136.847 187.92C136.847 188.325 136.98 188.619 137.247 188.8C137.524 188.981 137.919 189.115 138.431 189.2L139.071 189.296C139.988 189.435 140.639 189.701 141.023 190.096C141.407 190.48 141.599 190.987 141.599 191.616C141.599 192.416 141.327 193.045 140.783 193.504C140.239 193.963 139.492 194.192 138.543 194.192ZM146.964 194.192C146.399 194.192 145.887 194.091 145.428 193.888C144.98 193.685 144.591 193.397 144.26 193.024C143.94 192.64 143.689 192.187 143.508 191.664C143.337 191.131 143.252 190.533 143.252 189.872C143.252 189.221 143.337 188.629 143.508 188.096C143.689 187.563 143.94 187.109 144.26 186.736C144.591 186.352 144.98 186.059 145.428 185.856C145.887 185.653 146.399 185.552 146.964 185.552C147.519 185.552 148.015 185.653 148.452 185.856C148.889 186.059 149.263 186.341 149.572 186.704C149.881 187.056 150.116 187.477 150.276 187.968C150.447 188.459 150.532 188.997 150.532 189.584V190.192H144.596V190.576C144.596 190.928 144.649 191.259 144.756 191.568C144.873 191.867 145.033 192.128 145.236 192.352C145.449 192.576 145.705 192.752 146.004 192.88C146.313 193.008 146.66 193.072 147.044 193.072C147.567 193.072 148.02 192.949 148.404 192.704C148.799 192.459 149.103 192.107 149.316 191.648L150.228 192.304C149.961 192.869 149.545 193.328 148.98 193.68C148.415 194.021 147.743 194.192 146.964 194.192ZM146.964 186.624C146.612 186.624 146.292 186.688 146.004 186.816C145.716 186.933 145.465 187.104 145.252 187.328C145.049 187.552 144.889 187.819 144.772 188.128C144.655 188.427 144.596 188.757 144.596 189.12V189.232H149.156V189.056C149.156 188.32 148.953 187.733 148.548 187.296C148.153 186.848 147.625 186.624 146.964 186.624Z" fill="#1A1A1A"/>
<path d="M20 217H36C37.6569 217 39 218.343 39 220V236C39 237.657 37.6569 239 36 239H20C18.3431 239 17 237.657 17 236V220L17.0039 219.846C17.0816 218.312 18.3117 217.082 19.8457 217.004L20 217Z" fill="white"/>
<path d="M20 217H36C37.6569 217 39 218.343 39 220V236C39 237.657 37.6569 239 36 239H20C18.3431 239 17 237.657 17 236V220L17.0039 219.846C17.0816 218.312 18.3117 217.082 19.8457 217.004L20 217Z" stroke="#1A1A1A" stroke-width="2"/>
<path d="M53.248 224.016V234H51.904V224.016H48.352V222.832H56.8V224.016H53.248ZM60.5734 234.192C60.008 234.192 59.496 234.091 59.0374 233.888C58.5894 233.685 58.2 233.397 57.8694 233.024C57.5494 232.64 57.2987 232.187 57.1174 231.664C56.9467 231.131 56.8614 230.533 56.8614 229.872C56.8614 229.221 56.9467 228.629 57.1174 228.096C57.2987 227.563 57.5494 227.109 57.8694 226.736C58.2 226.352 58.5894 226.059 59.0374 225.856C59.496 225.653 60.008 225.552 60.5734 225.552C61.128 225.552 61.624 225.653 62.0614 225.856C62.4987 226.059 62.872 226.341 63.1814 226.704C63.4907 227.056 63.7254 227.477 63.8854 227.968C64.056 228.459 64.1414 228.997 64.1414 229.584V230.192H58.2054V230.576C58.2054 230.928 58.2587 231.259 58.3654 231.568C58.4827 231.867 58.6427 232.128 58.8454 232.352C59.0587 232.576 59.3147 232.752 59.6134 232.88C59.9227 233.008 60.2694 233.072 60.6534 233.072C61.176 233.072 61.6294 232.949 62.0134 232.704C62.408 232.459 62.712 232.107 62.9254 231.648L63.8374 232.304C63.5707 232.869 63.1547 233.328 62.5894 233.68C62.024 234.021 61.352 234.192 60.5734 234.192ZM60.5734 226.624C60.2214 226.624 59.9014 226.688 59.6134 226.816C59.3254 226.933 59.0747 227.104 58.8614 227.328C58.6587 227.552 58.4987 227.819 58.3814 228.128C58.264 228.427 58.2054 228.757 58.2054 229.12V229.232H62.7654V229.056C62.7654 228.32 62.5627 227.733 62.1574 227.296C61.7627 226.848 61.2347 226.624 60.5734 226.624ZM67.6106 234C67.1626 234 66.8213 233.877 66.5866 233.632C66.3626 233.376 66.2506 233.056 66.2506 232.672V222.16H67.5306V232.88H68.7466V234H67.6106ZM73.714 234.192C73.1487 234.192 72.6367 234.091 72.178 233.888C71.73 233.685 71.3407 233.397 71.01 233.024C70.69 232.64 70.4393 232.187 70.258 231.664C70.0873 231.131 70.002 230.533 70.002 229.872C70.002 229.221 70.0873 228.629 70.258 228.096C70.4393 227.563 70.69 227.109 71.01 226.736C71.3407 226.352 71.73 226.059 72.178 225.856C72.6367 225.653 73.1487 225.552 73.714 225.552C74.2687 225.552 74.7647 225.653 75.202 225.856C75.6393 226.059 76.0127 226.341 76.322 226.704C76.6313 227.056 76.866 227.477 77.026 227.968C77.1967 228.459 77.282 228.997 77.282 229.584V230.192H71.346V230.576C71.346 230.928 71.3993 231.259 71.506 231.568C71.6233 231.867 71.7833 232.128 71.986 232.352C72.1993 232.576 72.4553 232.752 72.754 232.88C73.0633 233.008 73.41 233.072 73.794 233.072C74.3167 233.072 74.77 232.949 75.154 232.704C75.5487 232.459 75.8527 232.107 76.066 231.648L76.978 232.304C76.7113 232.869 76.2953 233.328 75.73 233.68C75.1647 234.021 74.4927 234.192 73.714 234.192ZM73.714 226.624C73.362 226.624 73.042 226.688 72.754 226.816C72.466 226.933 72.2153 227.104 72.002 227.328C71.7993 227.552 71.6393 227.819 71.522 228.128C71.4047 228.427 71.346 228.757 71.346 229.12V229.232H75.906V229.056C75.906 228.32 75.7033 227.733 75.298 227.296C74.9033 226.848 74.3753 226.624 73.714 226.624ZM79.8393 226.864H78.4953V225.744H79.8393V224.08C79.8393 223.504 79.9886 223.04 80.2873 222.688C80.5859 222.336 81.0393 222.16 81.6473 222.16H82.8953V223.28H81.1193V225.744H82.8953V226.864H81.1193V234H79.8393V226.864ZM87.6363 234.192C87.0816 234.192 86.5749 234.091 86.1163 233.888C85.6576 233.685 85.2629 233.397 84.9323 233.024C84.6123 232.64 84.3616 232.187 84.1803 231.664C83.9989 231.131 83.9083 230.533 83.9083 229.872C83.9083 229.221 83.9989 228.629 84.1803 228.096C84.3616 227.563 84.6123 227.109 84.9323 226.736C85.2629 226.352 85.6576 226.059 86.1163 225.856C86.5749 225.653 87.0816 225.552 87.6363 225.552C88.1909 225.552 88.6923 225.653 89.1403 225.856C89.5989 226.059 89.9936 226.352 90.3243 226.736C90.6549 227.109 90.9109 227.563 91.0923 228.096C91.2736 228.629 91.3643 229.221 91.3643 229.872C91.3643 230.533 91.2736 231.131 91.0923 231.664C90.9109 232.187 90.6549 232.64 90.3243 233.024C89.9936 233.397 89.5989 233.685 89.1403 233.888C88.6923 234.091 88.1909 234.192 87.6363 234.192ZM87.6363 233.056C88.3296 233.056 88.8949 232.843 89.3323 232.416C89.7696 231.989 89.9883 231.339 89.9883 230.464V229.28C89.9883 228.405 89.7696 227.755 89.3323 227.328C88.8949 226.901 88.3296 226.688 87.6363 226.688C86.9429 226.688 86.3776 226.901 85.9403 227.328C85.5029 227.755 85.2843 228.405 85.2843 229.28V230.464C85.2843 231.339 85.5029 231.989 85.9403 232.416C86.3776 232.843 86.9429 233.056 87.6363 233.056ZM93.4694 234V225.744H94.7494V227.088H94.8134C95.016 226.619 95.2987 226.245 95.6614 225.968C96.0347 225.691 96.5307 225.552 97.1494 225.552C98.0027 225.552 98.6747 225.829 99.1654 226.384C99.6667 226.928 99.9174 227.701 99.9174 228.704V234H98.6374V228.928C98.6374 227.445 98.0134 226.704 96.7654 226.704C96.5094 226.704 96.2587 226.736 96.0134 226.8C95.7787 226.864 95.5654 226.96 95.3734 227.088C95.1814 227.216 95.0267 227.381 94.9094 227.584C94.8027 227.776 94.7494 228.005 94.7494 228.272V234H93.4694Z" fill="#1A1A1A"/>
<path d="M48 324C48 321.791 49.7909 320 52 320H398C400.209 320 402 321.791 402 324V336C402 338.209 400.209 340 398 340H52C49.7909 340 48 338.209 48 336V324Z" fill="#DCDCDC"/>
<path d="M48 348C48 345.791 49.7909 344 52 344H398C400.209 344 402 345.791 402 348V360C402 362.209 400.209 364 398 364H52C49.7909 364 48 362.209 48 360V348Z" fill="#DCDCDC"/>
<path d="M48 372C48 369.791 49.7909 368 52 368H309C311.209 368 313 369.791 313 372V384C313 386.209 311.209 388 309 388H52C49.7909 388 48 386.209 48 384V372Z" fill="#DCDCDC"/>
<path d="M48 308C48 305.791 49.7909 304 52 304H165C167.209 304 169 305.791 169 308V312C169 314.209 167.209 316 165 316H52C49.7909 316 48 314.209 48 312V308Z" fill="#DCDCDC"/>
<path d="M16 260C16 257.791 17.7909 256 20 256H36C38.2091 256 40 257.791 40 260V276C40 278.209 38.2091 280 36 280H20C17.7909 280 16 278.209 16 276V260Z" fill="#1A1A1A"/>
<path d="M25.5496 274L19.8496 268.3L21.2746 266.875L25.5496 271.15L34.7246 261.975L36.1496 263.4L25.5496 274Z" fill="white"/>
<path d="M56.48 268.944H50.832V274H49.488V262.832H50.832V267.76H56.48V262.832H57.824V274H56.48V268.944ZM60.6725 265.744H61.9525V275.28C61.9525 275.856 61.8085 276.32 61.5205 276.672C61.2325 277.024 60.7792 277.2 60.1605 277.2H59.3285V276.08H60.6725V265.744ZM61.3125 263.808C61.0352 263.808 60.8325 263.744 60.7045 263.616C60.5872 263.477 60.5285 263.301 60.5285 263.088V262.88C60.5285 262.667 60.5872 262.496 60.7045 262.368C60.8325 262.229 61.0352 262.16 61.3125 262.16C61.5898 262.16 61.7872 262.229 61.9045 262.368C62.0325 262.496 62.0965 262.667 62.0965 262.88V263.088C62.0965 263.301 62.0325 263.477 61.9045 263.616C61.7872 263.744 61.5898 263.808 61.3125 263.808ZM67.4725 270.192C66.7365 270.213 66.1978 270.336 65.8565 270.56C65.5258 270.773 65.3605 271.083 65.3605 271.488V271.824C65.3605 272.229 65.5045 272.544 65.7925 272.768C66.0912 272.992 66.4965 273.104 67.0085 273.104C67.3178 273.104 67.6005 273.067 67.8565 272.992C68.1232 272.917 68.3525 272.811 68.5445 272.672C68.7365 272.533 68.8858 272.373 68.9925 272.192C69.1098 272.011 69.1685 271.813 69.1685 271.6V270.192H67.4725ZM75.0085 269.232V269.056C75.0085 268.32 74.8058 267.733 74.4005 267.296C74.0058 266.848 73.4778 266.624 72.8165 266.624C72.4645 266.624 72.1445 266.688 71.8565 266.816C71.5685 266.933 71.3178 267.104 71.1045 267.328C70.9018 267.552 70.7418 267.819 70.6245 268.128C70.5072 268.427 70.4485 268.757 70.4485 269.12V269.232H75.0085ZM72.8965 273.072C73.9525 273.072 74.7098 272.603 75.1685 271.664L76.0805 272.304C75.8138 272.88 75.4032 273.339 74.8485 273.68C74.3045 274.021 73.6752 274.192 72.9605 274.192C72.5232 274.192 72.1232 274.128 71.7605 274C71.4085 273.883 71.0992 273.733 70.8325 273.552C70.5765 273.36 70.3685 273.157 70.2085 272.944C70.0485 272.72 69.9472 272.517 69.9045 272.336H69.8085C69.7765 272.517 69.6805 272.715 69.5205 272.928C69.3712 273.141 69.1685 273.344 68.9125 273.536C68.6565 273.717 68.3472 273.872 67.9845 274C67.6218 274.128 67.2112 274.192 66.7525 274.192C65.9205 274.192 65.2538 273.973 64.7525 273.536C64.2618 273.088 64.0165 272.485 64.0165 271.728C64.0165 270.928 64.3098 270.315 64.8965 269.888C65.4832 269.451 66.3632 269.232 67.5365 269.232H69.1685V268.464C69.1685 267.877 69.0085 267.429 68.6885 267.12C68.3685 266.811 67.8938 266.656 67.2645 266.656C66.7312 266.656 66.2992 266.763 65.9685 266.976C65.6378 267.189 65.3552 267.488 65.1205 267.872L64.3525 267.168C64.5658 266.731 64.9178 266.352 65.4085 266.032C65.9098 265.712 66.5392 265.552 67.2965 265.552C67.7658 265.552 68.1552 265.621 68.4645 265.76C68.7845 265.888 69.0405 266.048 69.2325 266.24C69.4352 266.421 69.5845 266.619 69.6805 266.832C69.7765 267.045 69.8458 267.232 69.8885 267.392H69.9845C70.0272 267.211 70.1285 267.013 70.2885 266.8C70.4485 266.587 70.6565 266.389 70.9125 266.208C71.1685 266.016 71.4672 265.861 71.8085 265.744C72.1605 265.616 72.5445 265.552 72.9605 265.552C73.4832 265.552 73.9525 265.653 74.3685 265.856C74.7952 266.059 75.1578 266.341 75.4565 266.704C75.7552 267.056 75.9845 267.477 76.1445 267.968C76.3045 268.459 76.3845 268.997 76.3845 269.584V270.192H70.4485V270.576C70.4485 270.928 70.5018 271.259 70.6085 271.568C70.7258 271.867 70.8858 272.128 71.0885 272.352C71.3018 272.576 71.5578 272.752 71.8565 272.88C72.1658 273.008 72.5125 273.072 72.8965 273.072ZM79.8606 274C79.4126 274 79.0713 273.877 78.8366 273.632C78.6126 273.376 78.5006 273.056 78.5006 272.672V262.16H79.7806V272.88H80.9966V274H79.8606ZM82.86 265.744H84.14V267.088H84.204C84.4173 266.565 84.7267 266.181 85.132 265.936C85.548 265.68 86.044 265.552 86.62 265.552C87.132 265.552 87.596 265.653 88.012 265.856C88.428 266.059 88.78 266.347 89.068 266.72C89.3667 267.093 89.5907 267.547 89.74 268.08C89.9 268.613 89.98 269.211 89.98 269.872C89.98 270.533 89.9 271.131 89.74 271.664C89.5907 272.197 89.3667 272.651 89.068 273.024C88.78 273.397 88.428 273.685 88.012 273.888C87.596 274.091 87.132 274.192 86.62 274.192C85.5 274.192 84.6947 273.68 84.204 272.656H84.14V277.2H82.86V265.744ZM86.268 273.04C86.9933 273.04 87.564 272.816 87.98 272.368C88.396 271.909 88.604 271.312 88.604 270.576V269.168C88.604 268.432 88.396 267.84 87.98 267.392C87.564 266.933 86.9933 266.704 86.268 266.704C85.98 266.704 85.7027 266.747 85.436 266.832C85.18 266.907 84.956 267.013 84.764 267.152C84.572 267.291 84.4173 267.461 84.3 267.664C84.1933 267.856 84.14 268.064 84.14 268.288V271.36C84.14 271.627 84.1933 271.867 84.3 272.08C84.4173 272.283 84.572 272.459 84.764 272.608C84.956 272.747 85.18 272.853 85.436 272.928C85.7027 273.003 85.98 273.04 86.268 273.04Z" fill="#1A1A1A"/>
<rect x="26" y="288" width="4" height="116" fill="#BFBFBF"/>
</g>
<defs>
<clipPath id="clip0_14607_4969">
<rect width="418" height="428" fill="white"/>
</clipPath>
</defs>
</svg>
