<svg width="418" height="256" viewBox="0 0 418 256" fill="none" xmlns="http://www.w3.org/2000/svg">
<rect width="418" height="256" fill="white"/>
<path d="M17.312 34V22.832H19.424V32.128H23.824V34H17.312ZM28.6835 34.192C28.0862 34.192 27.5475 34.0907 27.0675 33.888C26.5982 33.6853 26.1928 33.392 25.8515 33.008C25.5208 32.624 25.2648 32.1653 25.0835 31.632C24.9022 31.088 24.8115 30.48 24.8115 29.808C24.8115 29.136 24.9022 28.5333 25.0835 28C25.2648 27.4667 25.5208 27.0133 25.8515 26.64C26.1928 26.256 26.5982 25.9627 27.0675 25.76C27.5475 25.5573 28.0862 25.456 28.6835 25.456C29.2808 25.456 29.8195 25.5573 30.2995 25.76C30.7795 25.9627 31.1848 26.256 31.5155 26.64C31.8568 27.0133 32.1182 27.4667 32.2995 28C32.4808 28.5333 32.5715 29.136 32.5715 29.808C32.5715 30.48 32.4808 31.088 32.2995 31.632C32.1182 32.1653 31.8568 32.624 31.5155 33.008C31.1848 33.392 30.7795 33.6853 30.2995 33.888C29.8195 34.0907 29.2808 34.192 28.6835 34.192ZM28.6835 32.544C29.2275 32.544 29.6542 32.3787 29.9635 32.048C30.2728 31.7173 30.4275 31.232 30.4275 30.592V29.04C30.4275 28.4107 30.2728 27.9307 29.9635 27.6C29.6542 27.2693 29.2275 27.104 28.6835 27.104C28.1502 27.104 27.7288 27.2693 27.4195 27.6C27.1102 27.9307 26.9555 28.4107 26.9555 29.04V30.592C26.9555 31.232 27.1102 31.7173 27.4195 32.048C27.7288 32.3787 28.1502 32.544 28.6835 32.544ZM34.3871 34V25.648H36.4351V27.376H36.5151C36.5685 27.152 36.6485 26.9387 36.7551 26.736C36.8725 26.5227 37.0218 26.336 37.2031 26.176C37.3845 26.016 37.5978 25.888 37.8431 25.792C38.0991 25.696 38.3925 25.648 38.7231 25.648H39.1711V27.584H38.5311C37.8378 27.584 37.3151 27.6853 36.9631 27.888C36.6111 28.0907 36.4351 28.4213 36.4351 28.88V34H34.3871ZM43.9663 34.192C43.3476 34.192 42.7929 34.0907 42.3023 33.888C41.8223 33.6747 41.4116 33.3813 41.0703 33.008C40.7396 32.624 40.4836 32.1653 40.3023 31.632C40.1209 31.088 40.0303 30.48 40.0303 29.808C40.0303 29.1467 40.1156 28.5493 40.2863 28.016C40.4676 27.4827 40.7236 27.0293 41.0543 26.656C41.3849 26.272 41.7903 25.9787 42.2703 25.776C42.7503 25.5627 43.2943 25.456 43.9023 25.456C44.5529 25.456 45.1183 25.568 45.5983 25.792C46.0783 26.016 46.4729 26.32 46.7823 26.704C47.0916 27.088 47.3209 27.536 47.4703 28.048C47.6303 28.5493 47.7103 29.088 47.7103 29.664V30.336H42.1583V30.544C42.1583 31.152 42.3289 31.6427 42.6703 32.016C43.0116 32.3787 43.5183 32.56 44.1903 32.56C44.7023 32.56 45.1183 32.4533 45.4383 32.24C45.7689 32.0267 46.0623 31.7547 46.3183 31.424L47.4223 32.656C47.0809 33.136 46.6116 33.5147 46.0143 33.792C45.4276 34.0587 44.7449 34.192 43.9663 34.192ZM43.9343 26.992C43.3903 26.992 42.9583 27.1733 42.6383 27.536C42.3183 27.8987 42.1583 28.368 42.1583 28.944V29.072H45.5823V28.928C45.5823 28.352 45.4383 27.888 45.1503 27.536C44.8729 27.1733 44.4676 26.992 43.9343 26.992ZM49.5121 34V25.648H51.5601V27.04H51.6401C51.8001 26.6027 52.0561 26.2293 52.4081 25.92C52.7601 25.6107 53.2508 25.456 53.8801 25.456C54.4561 25.456 54.9521 25.5947 55.3681 25.872C55.7841 26.1493 56.0935 26.5707 56.2961 27.136H56.3281C56.4775 26.6667 56.7708 26.272 57.2081 25.952C57.6561 25.6213 58.2161 25.456 58.8881 25.456C59.7095 25.456 60.3388 25.7387 60.7761 26.304C61.2241 26.8693 61.4481 27.6747 61.4481 28.72V34H59.4001V28.928C59.4001 27.7333 58.9521 27.136 58.0561 27.136C57.8535 27.136 57.6561 27.168 57.4641 27.232C57.2828 27.2853 57.1175 27.3707 56.9681 27.488C56.8295 27.5947 56.7175 27.7333 56.6321 27.904C56.5468 28.064 56.5041 28.256 56.5041 28.48V34H54.4561V28.928C54.4561 27.7333 54.0081 27.136 53.1121 27.136C52.9201 27.136 52.7281 27.168 52.5361 27.232C52.3548 27.2853 52.1895 27.3707 52.0401 27.488C51.9015 27.5947 51.7841 27.7333 51.6881 27.904C51.6028 28.064 51.5601 28.256 51.5601 28.48V34H49.5121ZM68.5205 24.432C68.0938 24.432 67.7845 24.336 67.5925 24.144C67.4112 23.952 67.3205 23.7067 67.3205 23.408V23.088C67.3205 22.7893 67.4112 22.544 67.5925 22.352C67.7845 22.16 68.0938 22.064 68.5205 22.064C68.9365 22.064 69.2405 22.16 69.4325 22.352C69.6245 22.544 69.7205 22.7893 69.7205 23.088V23.408C69.7205 23.7067 69.6245 23.952 69.4325 24.144C69.2405 24.336 68.9365 24.432 68.5205 24.432ZM67.4965 25.648H69.5445V34H67.4965V25.648ZM71.9184 25.648H73.9664V27.024H74.0304C74.1797 26.544 74.4624 26.1653 74.8784 25.888C75.2944 25.6 75.7797 25.456 76.3344 25.456C77.401 25.456 78.2117 25.8347 78.7664 26.592C79.3317 27.3387 79.6144 28.4107 79.6144 29.808C79.6144 31.216 79.3317 32.2987 78.7664 33.056C78.2117 33.8133 77.401 34.192 76.3344 34.192C75.7797 34.192 75.2944 34.048 74.8784 33.76C74.473 33.472 74.1904 33.088 74.0304 32.608H73.9664V37.2H71.9184V25.648ZM75.6784 32.496C76.2117 32.496 76.6437 32.32 76.9744 31.968C77.305 31.616 77.4704 31.1413 77.4704 30.544V29.104C77.4704 28.5067 77.305 28.032 76.9744 27.68C76.6437 27.3173 76.2117 27.136 75.6784 27.136C75.1877 27.136 74.777 27.2587 74.4464 27.504C74.1264 27.7493 73.9664 28.0747 73.9664 28.48V31.136C73.9664 31.5733 74.1264 31.9093 74.4464 32.144C74.777 32.3787 75.1877 32.496 75.6784 32.496ZM84.2481 34.192C83.4481 34.192 82.7761 34.0587 82.2321 33.792C81.6881 33.5147 81.2081 33.136 80.7921 32.656L82.0401 31.44C82.3495 31.792 82.6855 32.0693 83.0481 32.272C83.4215 32.4747 83.8481 32.576 84.3281 32.576C84.8188 32.576 85.1708 32.4907 85.3841 32.32C85.6081 32.1493 85.7201 31.9147 85.7201 31.616C85.7201 31.3707 85.6401 31.1787 85.4801 31.04C85.3308 30.8907 85.0695 30.7893 84.6961 30.736L83.8641 30.624C82.9575 30.5067 82.2641 30.2507 81.7841 29.856C81.3148 29.4507 81.0801 28.864 81.0801 28.096C81.0801 27.6907 81.1548 27.328 81.3041 27.008C81.4535 26.6773 81.6668 26.4 81.9441 26.176C82.2215 25.9413 82.5521 25.7653 82.9361 25.648C83.3308 25.52 83.7681 25.456 84.2481 25.456C84.6535 25.456 85.0108 25.488 85.3201 25.552C85.6401 25.6053 85.9281 25.6907 86.1841 25.808C86.4401 25.9147 86.6748 26.0533 86.8881 26.224C87.1015 26.384 87.3095 26.5653 87.5121 26.768L86.3121 27.968C86.0668 27.712 85.7735 27.4987 85.4321 27.328C85.0908 27.1573 84.7175 27.072 84.3121 27.072C83.8641 27.072 83.5388 27.152 83.3361 27.312C83.1441 27.472 83.0481 27.68 83.0481 27.936C83.0481 28.2133 83.1281 28.4267 83.2881 28.576C83.4588 28.7147 83.7415 28.816 84.1361 28.88L84.9841 28.992C86.7868 29.248 87.6881 30.0693 87.6881 31.456C87.6881 31.8613 87.6028 32.2347 87.4321 32.576C87.2721 32.9067 87.0428 33.1947 86.7441 33.44C86.4455 33.6747 86.0828 33.8613 85.6561 34C85.2401 34.128 84.7708 34.192 84.2481 34.192ZM94.4885 32.608H94.4085C94.3338 32.8213 94.2325 33.024 94.1045 33.216C93.9872 33.3973 93.8325 33.5627 93.6405 33.712C93.4592 33.8613 93.2352 33.9787 92.9685 34.064C92.7125 34.1493 92.4138 34.192 92.0725 34.192C91.2085 34.192 90.5472 33.9093 90.0885 33.344C89.6298 32.7787 89.4005 31.9733 89.4005 30.928V25.648H91.4485V30.72C91.4485 31.296 91.5605 31.7387 91.7845 32.048C92.0085 32.3467 92.3658 32.496 92.8565 32.496C93.0592 32.496 93.2565 32.4693 93.4485 32.416C93.6512 32.3627 93.8272 32.2827 93.9765 32.176C94.1258 32.0587 94.2485 31.92 94.3445 31.76C94.4405 31.5893 94.4885 31.392 94.4885 31.168V25.648H96.5365V34H94.4885V32.608ZM98.9028 34V25.648H100.951V27.04H101.031C101.191 26.6027 101.447 26.2293 101.799 25.92C102.151 25.6107 102.641 25.456 103.271 25.456C103.847 25.456 104.343 25.5947 104.759 25.872C105.175 26.1493 105.484 26.5707 105.687 27.136H105.719C105.868 26.6667 106.161 26.272 106.599 25.952C107.047 25.6213 107.607 25.456 108.279 25.456C109.1 25.456 109.729 25.7387 110.167 26.304C110.615 26.8693 110.839 27.6747 110.839 28.72V34H108.791V28.928C108.791 27.7333 108.343 27.136 107.447 27.136C107.244 27.136 107.047 27.168 106.855 27.232C106.673 27.2853 106.508 27.3707 106.359 27.488C106.22 27.5947 106.108 27.7333 106.023 27.904C105.937 28.064 105.895 28.256 105.895 28.48V34H103.847V28.928C103.847 27.7333 103.399 27.136 102.503 27.136C102.311 27.136 102.119 27.168 101.927 27.232C101.745 27.2853 101.58 27.3707 101.431 27.488C101.292 27.5947 101.175 27.7333 101.079 27.904C100.993 28.064 100.951 28.256 100.951 28.48V34H98.9028ZM122.071 32.608H121.991C121.842 33.088 121.559 33.472 121.143 33.76C120.727 34.048 120.242 34.192 119.687 34.192C118.631 34.192 117.82 33.8133 117.255 33.056C116.7 32.2987 116.423 31.216 116.423 29.808C116.423 28.4107 116.7 27.3387 117.255 26.592C117.82 25.8347 118.631 25.456 119.687 25.456C120.242 25.456 120.727 25.6 121.143 25.888C121.559 26.1653 121.842 26.544 121.991 27.024H122.071V22.16H124.119V34H122.071V32.608ZM120.343 32.496C120.834 32.496 121.244 32.3787 121.575 32.144C121.906 31.9093 122.071 31.5733 122.071 31.136V28.48C122.071 28.0747 121.906 27.7493 121.575 27.504C121.244 27.2587 120.834 27.136 120.343 27.136C119.81 27.136 119.378 27.3173 119.047 27.68C118.727 28.032 118.567 28.5067 118.567 29.104V30.544C118.567 31.1413 118.727 31.616 119.047 31.968C119.378 32.32 119.81 32.496 120.343 32.496ZM129.793 34.192C129.196 34.192 128.657 34.0907 128.177 33.888C127.708 33.6853 127.302 33.392 126.961 33.008C126.63 32.624 126.374 32.1653 126.193 31.632C126.012 31.088 125.921 30.48 125.921 29.808C125.921 29.136 126.012 28.5333 126.193 28C126.374 27.4667 126.63 27.0133 126.961 26.64C127.302 26.256 127.708 25.9627 128.177 25.76C128.657 25.5573 129.196 25.456 129.793 25.456C130.39 25.456 130.929 25.5573 131.409 25.76C131.889 25.9627 132.294 26.256 132.625 26.64C132.966 27.0133 133.228 27.4667 133.409 28C133.59 28.5333 133.681 29.136 133.681 29.808C133.681 30.48 133.59 31.088 133.409 31.632C133.228 32.1653 132.966 32.624 132.625 33.008C132.294 33.392 131.889 33.6853 131.409 33.888C130.929 34.0907 130.39 34.192 129.793 34.192ZM129.793 32.544C130.337 32.544 130.764 32.3787 131.073 32.048C131.382 31.7173 131.537 31.232 131.537 30.592V29.04C131.537 28.4107 131.382 27.9307 131.073 27.6C130.764 27.2693 130.337 27.104 129.793 27.104C129.26 27.104 128.838 27.2693 128.529 27.6C128.22 27.9307 128.065 28.4107 128.065 29.04V30.592C128.065 31.232 128.22 31.7173 128.529 32.048C128.838 32.3787 129.26 32.544 129.793 32.544ZM137.545 34C136.841 34 136.323 33.824 135.993 33.472C135.662 33.12 135.497 32.624 135.497 31.984V22.16H137.545V32.368H138.649V34H137.545ZM143.512 34.192C142.914 34.192 142.376 34.0907 141.896 33.888C141.426 33.6853 141.021 33.392 140.68 33.008C140.349 32.624 140.093 32.1653 139.912 31.632C139.73 31.088 139.64 30.48 139.64 29.808C139.64 29.136 139.73 28.5333 139.912 28C140.093 27.4667 140.349 27.0133 140.68 26.64C141.021 26.256 141.426 25.9627 141.896 25.76C142.376 25.5573 142.914 25.456 143.512 25.456C144.109 25.456 144.648 25.5573 145.128 25.76C145.608 25.9627 146.013 26.256 146.344 26.64C146.685 27.0133 146.946 27.4667 147.128 28C147.309 28.5333 147.4 29.136 147.4 29.808C147.4 30.48 147.309 31.088 147.128 31.632C146.946 32.1653 146.685 32.624 146.344 33.008C146.013 33.392 145.608 33.6853 145.128 33.888C144.648 34.0907 144.109 34.192 143.512 34.192ZM143.512 32.544C144.056 32.544 144.482 32.3787 144.792 32.048C145.101 31.7173 145.256 31.232 145.256 30.592V29.04C145.256 28.4107 145.101 27.9307 144.792 27.6C144.482 27.2693 144.056 27.104 143.512 27.104C142.978 27.104 142.557 27.2693 142.248 27.6C141.938 27.9307 141.784 28.4107 141.784 29.04V30.592C141.784 31.232 141.938 31.7173 142.248 32.048C142.557 32.3787 142.978 32.544 143.512 32.544ZM149.215 34V25.648H151.263V27.376H151.343C151.397 27.152 151.477 26.9387 151.583 26.736C151.701 26.5227 151.85 26.336 152.031 26.176C152.213 26.016 152.426 25.888 152.671 25.792C152.927 25.696 153.221 25.648 153.551 25.648H153.999V27.584H153.359C152.666 27.584 152.143 27.6853 151.791 27.888C151.439 28.0907 151.263 28.4213 151.263 28.88V34H149.215ZM162.014 34.192C161.214 34.192 160.542 34.0587 159.998 33.792C159.454 33.5147 158.974 33.136 158.558 32.656L159.806 31.44C160.115 31.792 160.451 32.0693 160.814 32.272C161.187 32.4747 161.614 32.576 162.094 32.576C162.584 32.576 162.936 32.4907 163.15 32.32C163.374 32.1493 163.486 31.9147 163.486 31.616C163.486 31.3707 163.406 31.1787 163.246 31.04C163.096 30.8907 162.835 30.7893 162.462 30.736L161.63 30.624C160.723 30.5067 160.03 30.2507 159.55 29.856C159.08 29.4507 158.846 28.864 158.846 28.096C158.846 27.6907 158.92 27.328 159.07 27.008C159.219 26.6773 159.432 26.4 159.71 26.176C159.987 25.9413 160.318 25.7653 160.702 25.648C161.096 25.52 161.534 25.456 162.014 25.456C162.419 25.456 162.776 25.488 163.086 25.552C163.406 25.6053 163.694 25.6907 163.95 25.808C164.206 25.9147 164.44 26.0533 164.654 26.224C164.867 26.384 165.075 26.5653 165.278 26.768L164.078 27.968C163.832 27.712 163.539 27.4987 163.198 27.328C162.856 27.1573 162.483 27.072 162.078 27.072C161.63 27.072 161.304 27.152 161.102 27.312C160.91 27.472 160.814 27.68 160.814 27.936C160.814 28.2133 160.894 28.4267 161.054 28.576C161.224 28.7147 161.507 28.816 161.902 28.88L162.75 28.992C164.552 29.248 165.454 30.0693 165.454 31.456C165.454 31.8613 165.368 32.2347 165.198 32.576C165.038 32.9067 164.808 33.1947 164.51 33.44C164.211 33.6747 163.848 33.8613 163.422 34C163.006 34.128 162.536 34.192 162.014 34.192ZM168.286 24.432C167.859 24.432 167.55 24.336 167.358 24.144C167.177 23.952 167.086 23.7067 167.086 23.408V23.088C167.086 22.7893 167.177 22.544 167.358 22.352C167.55 22.16 167.859 22.064 168.286 22.064C168.702 22.064 169.006 22.16 169.198 22.352C169.39 22.544 169.486 22.7893 169.486 23.088V23.408C169.486 23.7067 169.39 23.952 169.198 24.144C169.006 24.336 168.702 24.432 168.286 24.432ZM167.262 25.648H169.31V34H167.262V25.648ZM174.292 34C173.588 34 173.049 33.8187 172.676 33.456C172.313 33.0827 172.132 32.5547 172.132 31.872V27.28H170.9V25.648H171.54C171.849 25.648 172.057 25.5787 172.164 25.44C172.281 25.2907 172.34 25.072 172.34 24.784V23.36H174.18V25.648H175.892V27.28H174.18V32.368H175.764V34H174.292ZM187.594 34C187.146 34 186.788 33.872 186.522 33.616C186.266 33.3493 186.106 32.9973 186.042 32.56H185.946C185.807 33.104 185.524 33.5147 185.098 33.792C184.671 34.0587 184.143 34.192 183.514 34.192C182.66 34.192 182.004 33.968 181.546 33.52C181.087 33.072 180.858 32.4747 180.858 31.728C180.858 30.864 181.167 30.224 181.786 29.808C182.404 29.3813 183.284 29.168 184.426 29.168H185.85V28.56C185.85 28.0907 185.727 27.728 185.482 27.472C185.236 27.216 184.842 27.088 184.298 27.088C183.818 27.088 183.428 27.1947 183.13 27.408C182.842 27.6107 182.596 27.856 182.394 28.144L181.178 27.056C181.487 26.576 181.898 26.192 182.41 25.904C182.922 25.6053 183.599 25.456 184.442 25.456C185.572 25.456 186.431 25.712 187.018 26.224C187.604 26.736 187.898 27.472 187.898 28.432V32.368H188.73V34H187.594ZM184.202 32.704C184.66 32.704 185.05 32.6027 185.37 32.4C185.69 32.1973 185.85 31.8987 185.85 31.504V30.4H184.538C183.471 30.4 182.938 30.7413 182.938 31.424V31.696C182.938 32.0373 183.044 32.2933 183.258 32.464C183.482 32.624 183.796 32.704 184.202 32.704ZM190.387 34V25.648H192.435V27.04H192.515C192.675 26.6027 192.931 26.2293 193.283 25.92C193.635 25.6107 194.126 25.456 194.755 25.456C195.331 25.456 195.827 25.5947 196.243 25.872C196.659 26.1493 196.968 26.5707 197.171 27.136H197.203C197.352 26.6667 197.646 26.272 198.083 25.952C198.531 25.6213 199.091 25.456 199.763 25.456C200.584 25.456 201.214 25.7387 201.651 26.304C202.099 26.8693 202.323 27.6747 202.323 28.72V34H200.275V28.928C200.275 27.7333 199.827 27.136 198.931 27.136C198.728 27.136 198.531 27.168 198.339 27.232C198.158 27.2853 197.992 27.3707 197.843 27.488C197.704 27.5947 197.592 27.7333 197.507 27.904C197.422 28.064 197.379 28.256 197.379 28.48V34H195.331V28.928C195.331 27.7333 194.883 27.136 193.987 27.136C193.795 27.136 193.603 27.168 193.411 27.232C193.23 27.2853 193.064 27.3707 192.915 27.488C192.776 27.5947 192.659 27.7333 192.563 27.904C192.478 28.064 192.435 28.256 192.435 28.48V34H190.387ZM207.966 34.192C207.348 34.192 206.793 34.0907 206.302 33.888C205.822 33.6747 205.412 33.3813 205.07 33.008C204.74 32.624 204.484 32.1653 204.302 31.632C204.121 31.088 204.03 30.48 204.03 29.808C204.03 29.1467 204.116 28.5493 204.286 28.016C204.468 27.4827 204.724 27.0293 205.054 26.656C205.385 26.272 205.79 25.9787 206.27 25.776C206.75 25.5627 207.294 25.456 207.902 25.456C208.553 25.456 209.118 25.568 209.598 25.792C210.078 26.016 210.473 26.32 210.782 26.704C211.092 27.088 211.321 27.536 211.47 28.048C211.63 28.5493 211.71 29.088 211.71 29.664V30.336H206.158V30.544C206.158 31.152 206.329 31.6427 206.67 32.016C207.012 32.3787 207.518 32.56 208.19 32.56C208.702 32.56 209.118 32.4533 209.438 32.24C209.769 32.0267 210.062 31.7547 210.318 31.424L211.422 32.656C211.081 33.136 210.612 33.5147 210.014 33.792C209.428 34.0587 208.745 34.192 207.966 34.192ZM207.934 26.992C207.39 26.992 206.958 27.1733 206.638 27.536C206.318 27.8987 206.158 28.368 206.158 28.944V29.072H209.582V28.928C209.582 28.352 209.438 27.888 209.15 27.536C208.873 27.1733 208.468 26.992 207.934 26.992ZM216.12 34C215.416 34 214.877 33.8187 214.504 33.456C214.141 33.0827 213.96 32.5547 213.96 31.872V27.28H212.728V25.648H213.368C213.677 25.648 213.885 25.5787 213.992 25.44C214.109 25.2907 214.168 25.072 214.168 24.784V23.36H216.008V25.648H217.72V27.28H216.008V32.368H217.592V34H216.12Z" fill="black"/>
<path d="M16 60C16 57.7909 17.7909 56 20 56H36C38.2091 56 40 57.7909 40 60V76C40 78.2091 38.2091 80 36 80H20C17.7909 80 16 78.2091 16 76V60Z" fill="#1A1A1A"/>
<path d="M25.5496 73.9996L19.8496 68.2996L21.2746 66.8746L25.5496 71.1496L34.7246 61.9746L36.1496 63.3996L25.5496 73.9996Z" fill="white"/>
<path d="M52.624 74.192C51.7173 74.192 50.944 74.0213 50.304 73.68C49.664 73.328 49.12 72.848 48.672 72.24L49.664 71.408C50.0587 71.9307 50.496 72.3307 50.976 72.608C51.456 72.8747 52.0213 73.008 52.672 73.008C53.472 73.008 54.08 72.816 54.496 72.432C54.9227 72.048 55.136 71.536 55.136 70.896C55.136 70.3627 54.976 69.952 54.656 69.664C54.336 69.376 53.808 69.1467 53.072 68.976L52.16 68.768C51.136 68.5333 50.352 68.1813 49.808 67.712C49.2747 67.232 49.008 66.56 49.008 65.696C49.008 65.2053 49.0987 64.768 49.28 64.384C49.4613 64 49.712 63.68 50.032 63.424C50.3627 63.168 50.752 62.976 51.2 62.848C51.6587 62.7093 52.16 62.64 52.704 62.64C53.5467 62.64 54.2667 62.7947 54.864 63.104C55.472 63.4133 55.984 63.8667 56.4 64.464L55.392 65.2C55.0827 64.7733 54.7093 64.4373 54.272 64.192C53.8347 63.9467 53.2907 63.824 52.64 63.824C51.9253 63.824 51.36 63.9787 50.944 64.288C50.5387 64.5867 50.336 65.04 50.336 65.648C50.336 66.1813 50.5067 66.5867 50.848 66.864C51.2 67.1307 51.728 67.344 52.432 67.504L53.344 67.712C54.4427 67.9573 55.2373 68.3307 55.728 68.832C56.2187 69.3333 56.464 70 56.464 70.832C56.464 71.344 56.3733 71.808 56.192 72.224C56.0213 72.64 55.7707 72.992 55.44 73.28C55.1093 73.568 54.704 73.792 54.224 73.952C53.7547 74.112 53.2213 74.192 52.624 74.192ZM61.4569 70.192C60.7209 70.2133 60.1822 70.336 59.8409 70.56C59.5102 70.7733 59.3449 71.0827 59.3449 71.488V71.824C59.3449 72.2293 59.4889 72.544 59.7769 72.768C60.0755 72.992 60.4809 73.104 60.9929 73.104C61.3022 73.104 61.5849 73.0667 61.8409 72.992C62.1075 72.9173 62.3369 72.8107 62.5289 72.672C62.7209 72.5333 62.8702 72.3733 62.9769 72.192C63.0942 72.0107 63.1529 71.8133 63.1529 71.6V70.192H61.4569ZM68.9929 69.232V69.056C68.9929 68.32 68.7902 67.7333 68.3849 67.296C67.9902 66.848 67.4622 66.624 66.8009 66.624C66.4489 66.624 66.1289 66.688 65.8409 66.816C65.5529 66.9333 65.3022 67.104 65.0889 67.328C64.8862 67.552 64.7262 67.8187 64.6089 68.128C64.4915 68.4267 64.4329 68.7573 64.4329 69.12V69.232H68.9929ZM66.8809 73.072C67.9369 73.072 68.6942 72.6027 69.1529 71.664L70.0649 72.304C69.7982 72.88 69.3875 73.3387 68.8329 73.68C68.2889 74.0213 67.6595 74.192 66.9449 74.192C66.5075 74.192 66.1075 74.128 65.7449 74C65.3929 73.8827 65.0835 73.7333 64.8169 73.552C64.5609 73.36 64.3529 73.1573 64.1929 72.944C64.0329 72.72 63.9315 72.5173 63.8889 72.336H63.7929C63.7609 72.5173 63.6649 72.7147 63.5049 72.928C63.3555 73.1413 63.1529 73.344 62.8969 73.536C62.6409 73.7173 62.3315 73.872 61.9689 74C61.6062 74.128 61.1955 74.192 60.7369 74.192C59.9049 74.192 59.2382 73.9733 58.7369 73.536C58.2462 73.088 58.0009 72.4853 58.0009 71.728C58.0009 70.928 58.2942 70.3147 58.8809 69.888C59.4675 69.4507 60.3475 69.232 61.5209 69.232H63.1529V68.464C63.1529 67.8773 62.9929 67.4293 62.6729 67.12C62.3529 66.8107 61.8782 66.656 61.2489 66.656C60.7155 66.656 60.2835 66.7627 59.9529 66.976C59.6222 67.1893 59.3395 67.488 59.1049 67.872L58.3369 67.168C58.5502 66.7307 58.9022 66.352 59.3929 66.032C59.8942 65.712 60.5235 65.552 61.2809 65.552C61.7502 65.552 62.1395 65.6213 62.4489 65.76C62.7689 65.888 63.0249 66.048 63.2169 66.24C63.4195 66.4213 63.5689 66.6187 63.6649 66.832C63.7609 67.0453 63.8302 67.232 63.8729 67.392H63.9689C64.0115 67.2107 64.1129 67.0133 64.2729 66.8C64.4329 66.5867 64.6409 66.3893 64.8969 66.208C65.1529 66.016 65.4515 65.8613 65.7929 65.744C66.1449 65.616 66.5289 65.552 66.9449 65.552C67.4675 65.552 67.9369 65.6533 68.3529 65.856C68.7795 66.0587 69.1422 66.3413 69.4409 66.704C69.7395 67.056 69.9689 67.4773 70.1289 67.968C70.2889 68.4587 70.3689 68.9973 70.3689 69.584V70.192H64.4329V70.576C64.4329 70.928 64.4862 71.2587 64.5929 71.568C64.7102 71.8667 64.8702 72.128 65.0729 72.352C65.2862 72.576 65.5422 72.752 65.8409 72.88C66.1502 73.008 66.4969 73.072 66.8809 73.072ZM72.485 62.16H73.765V69.664H73.829L75.093 68.256L77.429 65.744H78.981L75.925 69.008L79.285 74H77.733L74.997 69.792L73.765 71.056V74H72.485V62.16ZM80.9225 62.16H82.2025V69.664H82.2665L83.5305 68.256L85.8665 65.744H87.4185L84.3625 69.008L87.7225 74H86.1705L83.4345 69.792L82.2025 71.056V74H80.9225V62.16ZM92.1984 74.192C91.633 74.192 91.121 74.0907 90.6624 73.888C90.2144 73.6853 89.825 73.3973 89.4944 73.024C89.1744 72.64 88.9237 72.1867 88.7424 71.664C88.5717 71.1307 88.4864 70.5333 88.4864 69.872C88.4864 69.2213 88.5717 68.6293 88.7424 68.096C88.9237 67.5627 89.1744 67.1093 89.4944 66.736C89.825 66.352 90.2144 66.0587 90.6624 65.856C91.121 65.6533 91.633 65.552 92.1984 65.552C92.753 65.552 93.249 65.6533 93.6864 65.856C94.1237 66.0587 94.497 66.3413 94.8064 66.704C95.1157 67.056 95.3504 67.4773 95.5104 67.968C95.681 68.4587 95.7664 68.9973 95.7664 69.584V70.192H89.8304V70.576C89.8304 70.928 89.8837 71.2587 89.9904 71.568C90.1077 71.8667 90.2677 72.128 90.4704 72.352C90.6837 72.576 90.9397 72.752 91.2384 72.88C91.5477 73.008 91.8944 73.072 92.2784 73.072C92.801 73.072 93.2544 72.9493 93.6384 72.704C94.033 72.4587 94.337 72.1067 94.5504 71.648L95.4624 72.304C95.1957 72.8693 94.7797 73.328 94.2144 73.68C93.649 74.0213 92.977 74.192 92.1984 74.192ZM92.1984 66.624C91.8464 66.624 91.5264 66.688 91.2384 66.816C90.9504 66.9333 90.6997 67.104 90.4864 67.328C90.2837 67.552 90.1237 67.8187 90.0064 68.128C89.889 68.4267 89.8304 68.7573 89.8304 69.12V69.232H94.3904V69.056C94.3904 68.32 94.1877 67.7333 93.7824 67.296C93.3877 66.848 92.8597 66.624 92.1984 66.624ZM101.657 74V65.744H102.937V67.088H103.001C103.097 66.8747 103.204 66.6773 103.321 66.496C103.449 66.304 103.598 66.1387 103.769 66C103.95 65.8613 104.158 65.7547 104.393 65.68C104.628 65.5947 104.905 65.552 105.225 65.552C105.769 65.552 106.27 65.6853 106.729 65.952C107.188 66.208 107.529 66.6347 107.753 67.232H107.785C107.934 66.784 108.212 66.3947 108.617 66.064C109.033 65.7227 109.593 65.552 110.297 65.552C111.14 65.552 111.796 65.8293 112.265 66.384C112.745 66.928 112.985 67.7013 112.985 68.704V74H111.705V68.928C111.705 68.192 111.561 67.6373 111.273 67.264C110.985 66.8907 110.526 66.704 109.897 66.704C109.641 66.704 109.396 66.736 109.161 66.8C108.937 66.864 108.734 66.96 108.553 67.088C108.372 67.216 108.228 67.3813 108.121 67.584C108.014 67.776 107.961 68.0053 107.961 68.272V74H106.681V68.928C106.681 68.192 106.537 67.6373 106.249 67.264C105.961 66.8907 105.513 66.704 104.905 66.704C104.649 66.704 104.404 66.736 104.169 66.8C103.934 66.864 103.726 66.96 103.545 67.088C103.364 67.216 103.214 67.3813 103.097 67.584C102.99 67.776 102.937 68.0053 102.937 68.272V74H101.657ZM116.442 74.192C116.1 74.192 115.85 74.1067 115.69 73.936C115.54 73.7653 115.466 73.5413 115.466 73.264V73.056C115.466 72.7787 115.54 72.5547 115.69 72.384C115.85 72.2133 116.1 72.128 116.442 72.128C116.783 72.128 117.028 72.2133 117.178 72.384C117.338 72.5547 117.418 72.7787 117.418 73.056V73.264C117.418 73.5413 117.338 73.7653 117.178 73.936C117.028 74.1067 116.783 74.192 116.442 74.192ZM130.726 74.912C130.726 75.7653 130.39 76.3893 129.718 76.784C129.057 77.1893 128.06 77.392 126.726 77.392C125.436 77.392 124.508 77.216 123.942 76.864C123.377 76.512 123.094 76.0107 123.094 75.36C123.094 74.912 123.212 74.56 123.446 74.304C123.681 74.0587 124.001 73.8773 124.406 73.76V73.584C123.916 73.3493 123.67 72.9653 123.67 72.432C123.67 72.016 123.804 71.7013 124.07 71.488C124.337 71.264 124.678 71.0987 125.094 70.992V70.928C124.604 70.6933 124.22 70.3573 123.942 69.92C123.676 69.4827 123.542 68.976 123.542 68.4C123.542 67.984 123.617 67.6 123.766 67.248C123.916 66.896 124.124 66.5973 124.39 66.352C124.668 66.096 124.993 65.8987 125.366 65.76C125.75 65.6213 126.177 65.552 126.646 65.552C127.233 65.552 127.756 65.6587 128.214 65.872V65.728C128.214 65.408 128.289 65.1467 128.438 64.944C128.588 64.7307 128.833 64.624 129.174 64.624H130.406V65.744H128.838V66.272C129.137 66.528 129.366 66.8373 129.526 67.2C129.697 67.552 129.782 67.952 129.782 68.4C129.782 68.816 129.708 69.2 129.558 69.552C129.409 69.904 129.196 70.208 128.918 70.464C128.652 70.7093 128.326 70.9013 127.942 71.04C127.558 71.1787 127.132 71.248 126.662 71.248C126.396 71.248 126.129 71.2213 125.862 71.168C125.585 71.2427 125.334 71.3547 125.11 71.504C124.886 71.6427 124.774 71.84 124.774 72.096C124.774 72.3413 124.892 72.5067 125.126 72.592C125.361 72.6773 125.665 72.72 126.038 72.72H127.798C128.822 72.72 129.564 72.9173 130.022 73.312C130.492 73.696 130.726 74.2293 130.726 74.912ZM129.526 75.008C129.526 74.6773 129.398 74.4107 129.142 74.208C128.897 74.016 128.454 73.92 127.814 73.92H125.062C124.55 74.1547 124.294 74.528 124.294 75.04C124.294 75.4027 124.428 75.712 124.694 75.968C124.972 76.224 125.436 76.352 126.086 76.352H127.27C127.985 76.352 128.54 76.24 128.934 76.016C129.329 75.792 129.526 75.456 129.526 75.008ZM126.662 70.224C127.206 70.224 127.638 70.096 127.958 69.84C128.278 69.5733 128.438 69.168 128.438 68.624V68.176C128.438 67.632 128.278 67.232 127.958 66.976C127.638 66.7093 127.206 66.576 126.662 66.576C126.118 66.576 125.686 66.7093 125.366 66.976C125.046 67.232 124.886 67.632 124.886 68.176V68.624C124.886 69.168 125.046 69.5733 125.366 69.84C125.686 70.096 126.118 70.224 126.662 70.224ZM135.23 74.192C134.664 74.192 134.152 74.0907 133.694 73.888C133.246 73.6853 132.856 73.3973 132.526 73.024C132.206 72.64 131.955 72.1867 131.774 71.664C131.603 71.1307 131.518 70.5333 131.518 69.872C131.518 69.2213 131.603 68.6293 131.774 68.096C131.955 67.5627 132.206 67.1093 132.526 66.736C132.856 66.352 133.246 66.0587 133.694 65.856C134.152 65.6533 134.664 65.552 135.23 65.552C135.784 65.552 136.28 65.6533 136.718 65.856C137.155 66.0587 137.528 66.3413 137.838 66.704C138.147 67.056 138.382 67.4773 138.542 67.968C138.712 68.4587 138.798 68.9973 138.798 69.584V70.192H132.862V70.576C132.862 70.928 132.915 71.2587 133.022 71.568C133.139 71.8667 133.299 72.128 133.502 72.352C133.715 72.576 133.971 72.752 134.27 72.88C134.579 73.008 134.926 73.072 135.31 73.072C135.832 73.072 136.286 72.9493 136.67 72.704C137.064 72.4587 137.368 72.1067 137.582 71.648L138.494 72.304C138.227 72.8693 137.811 73.328 137.246 73.68C136.68 74.0213 136.008 74.192 135.23 74.192ZM135.23 66.624C134.878 66.624 134.558 66.688 134.27 66.816C133.982 66.9333 133.731 67.104 133.518 67.328C133.315 67.552 133.155 67.8187 133.038 68.128C132.92 68.4267 132.862 68.7573 132.862 69.12V69.232H137.422V69.056C137.422 68.32 137.219 67.7333 136.814 67.296C136.419 66.848 135.891 66.624 135.23 66.624ZM140.907 74V65.744H142.187V67.088H142.251C142.454 66.6187 142.736 66.2453 143.099 65.968C143.472 65.6907 143.968 65.552 144.587 65.552C145.44 65.552 146.112 65.8293 146.603 66.384C147.104 66.928 147.355 67.7013 147.355 68.704V74H146.075V68.928C146.075 67.4453 145.451 66.704 144.203 66.704C143.947 66.704 143.696 66.736 143.451 66.8C143.216 66.864 143.003 66.96 142.811 67.088C142.619 67.216 142.464 67.3813 142.347 67.584C142.24 67.776 142.187 68.0053 142.187 68.272V74H140.907ZM150.001 62.16H151.281V67.088H151.345C151.558 66.5653 151.867 66.1813 152.273 65.936C152.689 65.68 153.185 65.552 153.761 65.552C154.273 65.552 154.737 65.6533 155.153 65.856C155.569 66.0587 155.921 66.3467 156.209 66.72C156.507 67.0933 156.731 67.5467 156.881 68.08C157.041 68.6133 157.121 69.2107 157.121 69.872C157.121 70.5333 157.041 71.1307 156.881 71.664C156.731 72.1973 156.507 72.6507 156.209 73.024C155.921 73.3973 155.569 73.6853 155.153 73.888C154.737 74.0907 154.273 74.192 153.761 74.192C152.641 74.192 151.835 73.68 151.345 72.656H151.281V74H150.001V62.16ZM153.409 73.04C154.134 73.04 154.705 72.816 155.121 72.368C155.537 71.9093 155.745 71.312 155.745 70.576V69.168C155.745 68.432 155.537 67.84 155.121 67.392C154.705 66.9333 154.134 66.704 153.409 66.704C153.121 66.704 152.843 66.7467 152.577 66.832C152.321 66.9067 152.097 67.0133 151.905 67.152C151.713 67.2907 151.558 67.4613 151.441 67.664C151.334 67.856 151.281 68.064 151.281 68.288V71.36C151.281 71.6267 151.334 71.8667 151.441 72.08C151.558 72.2827 151.713 72.4587 151.905 72.608C152.097 72.7467 152.321 72.8533 152.577 72.928C152.843 73.0027 153.121 73.04 153.409 73.04ZM159.282 74V65.744H160.562V67.264H160.642C160.791 66.8693 161.058 66.5173 161.442 66.208C161.826 65.8987 162.354 65.744 163.026 65.744H163.522V67.024H162.77C162.077 67.024 161.533 67.1573 161.138 67.424C160.754 67.68 160.562 68.0053 160.562 68.4V74H159.282ZM170.245 72.656H170.181C170.096 72.848 169.989 73.04 169.861 73.232C169.744 73.4133 169.594 73.5787 169.413 73.728C169.232 73.8667 169.013 73.9787 168.757 74.064C168.501 74.1493 168.202 74.192 167.861 74.192C167.008 74.192 166.33 73.92 165.829 73.376C165.328 72.8213 165.077 72.0427 165.077 71.04V65.744H166.357V70.816C166.357 72.2987 166.986 73.04 168.245 73.04C168.501 73.04 168.746 73.008 168.981 72.944C169.226 72.88 169.44 72.784 169.621 72.656C169.813 72.528 169.962 72.368 170.069 72.176C170.186 71.9733 170.245 71.7333 170.245 71.456V65.744H171.525V74H170.245V72.656ZM181.211 74.912C181.211 75.7653 180.875 76.3893 180.203 76.784C179.541 77.1893 178.544 77.392 177.211 77.392C175.92 77.392 174.992 77.216 174.427 76.864C173.861 76.512 173.579 76.0107 173.579 75.36C173.579 74.912 173.696 74.56 173.931 74.304C174.165 74.0587 174.485 73.8773 174.891 73.76V73.584C174.4 73.3493 174.155 72.9653 174.155 72.432C174.155 72.016 174.288 71.7013 174.555 71.488C174.821 71.264 175.163 71.0987 175.579 70.992V70.928C175.088 70.6933 174.704 70.3573 174.427 69.92C174.16 69.4827 174.027 68.976 174.027 68.4C174.027 67.984 174.101 67.6 174.251 67.248C174.4 66.896 174.608 66.5973 174.875 66.352C175.152 66.096 175.477 65.8987 175.851 65.76C176.235 65.6213 176.661 65.552 177.131 65.552C177.717 65.552 178.24 65.6587 178.699 65.872V65.728C178.699 65.408 178.773 65.1467 178.923 64.944C179.072 64.7307 179.317 64.624 179.659 64.624H180.891V65.744H179.323V66.272C179.621 66.528 179.851 66.8373 180.011 67.2C180.181 67.552 180.267 67.952 180.267 68.4C180.267 68.816 180.192 69.2 180.043 69.552C179.893 69.904 179.68 70.208 179.403 70.464C179.136 70.7093 178.811 70.9013 178.427 71.04C178.043 71.1787 177.616 71.248 177.147 71.248C176.88 71.248 176.613 71.2213 176.347 71.168C176.069 71.2427 175.819 71.3547 175.595 71.504C175.371 71.6427 175.259 71.84 175.259 72.096C175.259 72.3413 175.376 72.5067 175.611 72.592C175.845 72.6773 176.149 72.72 176.523 72.72H178.283C179.307 72.72 180.048 72.9173 180.507 73.312C180.976 73.696 181.211 74.2293 181.211 74.912ZM180.011 75.008C180.011 74.6773 179.883 74.4107 179.627 74.208C179.381 74.016 178.939 73.92 178.299 73.92H175.547C175.035 74.1547 174.779 74.528 174.779 75.04C174.779 75.4027 174.912 75.712 175.179 75.968C175.456 76.224 175.92 76.352 176.571 76.352H177.755C178.469 76.352 179.024 76.24 179.419 76.016C179.813 75.792 180.011 75.456 180.011 75.008ZM177.147 70.224C177.691 70.224 178.123 70.096 178.443 69.84C178.763 69.5733 178.923 69.168 178.923 68.624V68.176C178.923 67.632 178.763 67.232 178.443 66.976C178.123 66.7093 177.691 66.576 177.147 66.576C176.603 66.576 176.171 66.7093 175.851 66.976C175.531 67.232 175.371 67.632 175.371 68.176V68.624C175.371 69.168 175.531 69.5733 175.851 69.84C176.171 70.096 176.603 70.224 177.147 70.224Z" fill="#1A1A1A"/>
<path d="M16 100C16 97.7909 17.7909 96 20 96H36C38.2091 96 40 97.7909 40 100V116C40 118.209 38.2091 120 36 120H20C17.7909 120 16 118.209 16 116V100Z" fill="#1A1A1A"/>
<path d="M25.5496 114L19.8496 108.3L21.2746 106.875L25.5496 111.15L34.7246 101.975L36.1496 103.4L25.5496 114Z" fill="white"/>
<path d="M58.192 104.592H58.112L57.168 106.464L54.496 111.328L51.824 106.464L50.88 104.592H50.8V114H49.488V102.832H51.28L54.48 108.848H54.56L57.776 102.832H59.504V114H58.192V104.592ZM61.5444 114.096L62.6164 112.752C62.0724 111.995 61.8004 111.035 61.8004 109.872C61.8004 109.221 61.891 108.629 62.0724 108.096C62.2537 107.563 62.5044 107.109 62.8244 106.736C63.155 106.352 63.5497 106.059 64.0084 105.856C64.467 105.653 64.9737 105.552 65.5284 105.552C65.9764 105.552 66.387 105.621 66.7604 105.76C67.1444 105.899 67.491 106.091 67.8004 106.336L68.7924 105.104L69.5124 105.648L68.4404 107.008C68.6964 107.371 68.8937 107.797 69.0324 108.288C69.1817 108.768 69.2564 109.296 69.2564 109.872C69.2564 110.533 69.1657 111.131 68.9844 111.664C68.803 112.187 68.547 112.64 68.2164 113.024C67.8857 113.397 67.491 113.685 67.0324 113.888C66.5844 114.091 66.083 114.192 65.5284 114.192C64.643 114.192 63.8857 113.936 63.2564 113.424L62.2644 114.64L61.5444 114.096ZM65.5284 113.056C66.2217 113.056 66.787 112.843 67.2244 112.416C67.6617 111.989 67.8804 111.339 67.8804 110.464V109.28C67.8804 109.024 67.859 108.789 67.8164 108.576C67.7737 108.363 67.715 108.165 67.6404 107.984L63.9604 112.528C64.355 112.88 64.8777 113.056 65.5284 113.056ZM63.1764 110.464C63.1764 110.976 63.2564 111.413 63.4164 111.776L67.0964 107.216C66.6804 106.864 66.1577 106.688 65.5284 106.688C64.835 106.688 64.2697 106.901 63.8324 107.328C63.395 107.755 63.1764 108.405 63.1764 109.28V110.464ZM71.4381 102.16H72.7181V107.088H72.7821C72.9955 106.565 73.3048 106.181 73.7101 105.936C74.1261 105.68 74.6221 105.552 75.1981 105.552C75.7101 105.552 76.1741 105.653 76.5901 105.856C77.0061 106.059 77.3581 106.347 77.6461 106.72C77.9448 107.093 78.1688 107.547 78.3181 108.08C78.4781 108.613 78.5581 109.211 78.5581 109.872C78.5581 110.533 78.4781 111.131 78.3181 111.664C78.1688 112.197 77.9448 112.651 77.6461 113.024C77.3581 113.397 77.0061 113.685 76.5901 113.888C76.1741 114.091 75.7101 114.192 75.1981 114.192C74.0781 114.192 73.2728 113.68 72.7821 112.656H72.7181V114H71.4381V102.16ZM74.8461 113.04C75.5715 113.04 76.1421 112.816 76.5581 112.368C76.9741 111.909 77.1821 111.312 77.1821 110.576V109.168C77.1821 108.432 76.9741 107.84 76.5581 107.392C76.1421 106.933 75.5715 106.704 74.8461 106.704C74.5581 106.704 74.2808 106.747 74.0141 106.832C73.7581 106.907 73.5341 107.013 73.3421 107.152C73.1501 107.291 72.9955 107.461 72.8781 107.664C72.7715 107.856 72.7181 108.064 72.7181 108.288V111.36C72.7181 111.627 72.7715 111.867 72.8781 112.08C72.9955 112.283 73.1501 112.459 73.3421 112.608C73.5341 112.747 73.7581 112.853 74.0141 112.928C74.2808 113.003 74.5581 113.04 74.8461 113.04ZM82.0794 114C81.6314 114 81.29 113.877 81.0554 113.632C80.8314 113.376 80.7194 113.056 80.7194 112.672V102.16H81.9994V112.88H83.2154V114H82.0794ZM88.1828 114.192C87.6174 114.192 87.1054 114.091 86.6468 113.888C86.1988 113.685 85.8094 113.397 85.4788 113.024C85.1588 112.64 84.9081 112.187 84.7268 111.664C84.5561 111.131 84.4708 110.533 84.4708 109.872C84.4708 109.221 84.5561 108.629 84.7268 108.096C84.9081 107.563 85.1588 107.109 85.4788 106.736C85.8094 106.352 86.1988 106.059 86.6468 105.856C87.1054 105.653 87.6174 105.552 88.1828 105.552C88.7374 105.552 89.2334 105.653 89.6708 105.856C90.1081 106.059 90.4814 106.341 90.7908 106.704C91.1001 107.056 91.3348 107.477 91.4948 107.968C91.6654 108.459 91.7508 108.997 91.7508 109.584V110.192H85.8148V110.576C85.8148 110.928 85.8681 111.259 85.9748 111.568C86.0921 111.867 86.2521 112.128 86.4548 112.352C86.6681 112.576 86.9241 112.752 87.2228 112.88C87.5321 113.008 87.8788 113.072 88.2628 113.072C88.7854 113.072 89.2388 112.949 89.6228 112.704C90.0174 112.459 90.3214 112.107 90.5348 111.648L91.4468 112.304C91.1801 112.869 90.7641 113.328 90.1988 113.68C89.6334 114.021 88.9614 114.192 88.1828 114.192ZM88.1828 106.624C87.8308 106.624 87.5108 106.688 87.2228 106.816C86.9348 106.933 86.6841 107.104 86.4708 107.328C86.2681 107.552 86.1081 107.819 85.9908 108.128C85.8734 108.427 85.8148 108.757 85.8148 109.12V109.232H90.3748V109.056C90.3748 108.32 90.1721 107.733 89.7668 107.296C89.3721 106.848 88.8441 106.624 88.1828 106.624ZM93.86 114V105.744H95.14V107.264H95.22C95.3693 106.869 95.636 106.517 96.02 106.208C96.404 105.899 96.932 105.744 97.604 105.744H98.1V107.024H97.348C96.6547 107.024 96.1107 107.157 95.716 107.424C95.332 107.68 95.14 108.005 95.14 108.4V114H93.86Z" fill="#1A1A1A"/>
<path d="M17 140C17 138.343 18.3431 137 20 137H36C37.6569 137 39 138.343 39 140V156C39 157.657 37.6569 159 36 159H20C18.3431 159 17 157.657 17 156V140Z" fill="white"/>
<path d="M17 140C17 138.343 18.3431 137 20 137H36C37.6569 137 39 138.343 39 140V156C39 157.657 37.6569 159 36 159H20C18.3431 159 17 157.657 17 156V140Z" stroke="#1A1A1A" stroke-width="2"/>
<path d="M52.624 154.192C51.7173 154.192 50.944 154.021 50.304 153.68C49.664 153.328 49.12 152.848 48.672 152.24L49.664 151.408C50.0587 151.931 50.496 152.331 50.976 152.608C51.456 152.875 52.0213 153.008 52.672 153.008C53.472 153.008 54.08 152.816 54.496 152.432C54.9227 152.048 55.136 151.536 55.136 150.896C55.136 150.363 54.976 149.952 54.656 149.664C54.336 149.376 53.808 149.147 53.072 148.976L52.16 148.768C51.136 148.533 50.352 148.181 49.808 147.712C49.2747 147.232 49.008 146.56 49.008 145.696C49.008 145.205 49.0987 144.768 49.28 144.384C49.4613 144 49.712 143.68 50.032 143.424C50.3627 143.168 50.752 142.976 51.2 142.848C51.6587 142.709 52.16 142.64 52.704 142.64C53.5467 142.64 54.2667 142.795 54.864 143.104C55.472 143.413 55.984 143.867 56.4 144.464L55.392 145.2C55.0827 144.773 54.7093 144.437 54.272 144.192C53.8347 143.947 53.2907 143.824 52.64 143.824C51.9253 143.824 51.36 143.979 50.944 144.288C50.5387 144.587 50.336 145.04 50.336 145.648C50.336 146.181 50.5067 146.587 50.848 146.864C51.2 147.131 51.728 147.344 52.432 147.504L53.344 147.712C54.4427 147.957 55.2373 148.331 55.728 148.832C56.2187 149.333 56.464 150 56.464 150.832C56.464 151.344 56.3733 151.808 56.192 152.224C56.0213 152.64 55.7707 152.992 55.44 153.28C55.1093 153.568 54.704 153.792 54.224 153.952C53.7547 154.112 53.2213 154.192 52.624 154.192ZM60.4809 154C60.0329 154 59.6915 153.877 59.4569 153.632C59.2329 153.376 59.1209 153.045 59.1209 152.64V146.864H57.7609V145.744H58.5289C58.8062 145.744 58.9929 145.691 59.0889 145.584C59.1955 145.467 59.2489 145.269 59.2489 144.992V143.456H60.4009V145.744H62.2089V146.864H60.4009V152.88H62.0809V154H60.4809ZM67.3238 154.192C66.7691 154.192 66.2624 154.091 65.8038 153.888C65.3451 153.685 64.9504 153.397 64.6198 153.024C64.2998 152.64 64.0491 152.187 63.8678 151.664C63.6864 151.131 63.5958 150.533 63.5958 149.872C63.5958 149.221 63.6864 148.629 63.8678 148.096C64.0491 147.563 64.2998 147.109 64.6198 146.736C64.9504 146.352 65.3451 146.059 65.8038 145.856C66.2624 145.653 66.7691 145.552 67.3238 145.552C67.8784 145.552 68.3798 145.653 68.8278 145.856C69.2864 146.059 69.6811 146.352 70.0118 146.736C70.3424 147.109 70.5984 147.563 70.7798 148.096C70.9611 148.629 71.0518 149.221 71.0518 149.872C71.0518 150.533 70.9611 151.131 70.7798 151.664C70.5984 152.187 70.3424 152.64 70.0118 153.024C69.6811 153.397 69.2864 153.685 68.8278 153.888C68.3798 154.091 67.8784 154.192 67.3238 154.192ZM67.3238 153.056C68.0171 153.056 68.5824 152.843 69.0198 152.416C69.4571 151.989 69.6758 151.339 69.6758 150.464V149.28C69.6758 148.405 69.4571 147.755 69.0198 147.328C68.5824 146.901 68.0171 146.688 67.3238 146.688C66.6304 146.688 66.0651 146.901 65.6278 147.328C65.1904 147.755 64.9718 148.405 64.9718 149.28V150.464C64.9718 151.339 65.1904 151.989 65.6278 152.416C66.0651 152.843 66.6304 153.056 67.3238 153.056ZM73.1569 154V145.744H74.4369V147.264H74.5169C74.6662 146.869 74.9329 146.517 75.3169 146.208C75.7009 145.899 76.2289 145.744 76.9009 145.744H77.3969V147.024H76.6449C75.9515 147.024 75.4075 147.157 75.0129 147.424C74.6289 147.68 74.4369 148.005 74.4369 148.4V154H73.1569ZM85.9171 154.192C85.3518 154.192 84.8398 154.091 84.3811 153.888C83.9331 153.685 83.5438 153.397 83.2131 153.024C82.8931 152.64 82.6425 152.187 82.4611 151.664C82.2905 151.131 82.2051 150.533 82.2051 149.872C82.2051 149.221 82.2905 148.629 82.4611 148.096C82.6425 147.563 82.8931 147.109 83.2131 146.736C83.5438 146.352 83.9331 146.059 84.3811 145.856C84.8398 145.653 85.3518 145.552 85.9171 145.552C86.4718 145.552 86.9678 145.653 87.4051 145.856C87.8425 146.059 88.2158 146.341 88.5251 146.704C88.8345 147.056 89.0691 147.477 89.2291 147.968C89.3998 148.459 89.4851 148.997 89.4851 149.584V150.192H83.5491V150.576C83.5491 150.928 83.6025 151.259 83.7091 151.568C83.8265 151.867 83.9865 152.128 84.1891 152.352C84.4025 152.576 84.6585 152.752 84.9571 152.88C85.2665 153.008 85.6131 153.072 85.9971 153.072C86.5198 153.072 86.9731 152.949 87.3571 152.704C87.7518 152.459 88.0558 152.107 88.2691 151.648L89.1811 152.304C88.9145 152.869 88.4985 153.328 87.9331 153.68C87.3678 154.021 86.6958 154.192 85.9171 154.192ZM85.9171 146.624C85.5651 146.624 85.2451 146.688 84.9571 146.816C84.6691 146.933 84.4185 147.104 84.2051 147.328C84.0025 147.552 83.8425 147.819 83.7251 148.128C83.6078 148.427 83.5491 148.757 83.5491 149.12V149.232H88.1091V149.056C88.1091 148.32 87.9065 147.733 87.5011 147.296C87.1065 146.848 86.5785 146.624 85.9171 146.624ZM92.9544 154C92.5064 154 92.165 153.877 91.9304 153.632C91.7064 153.376 91.5944 153.056 91.5944 152.672V142.16H92.8744V152.88H94.0904V154H92.9544ZM99.0578 154.192C98.4924 154.192 97.9804 154.091 97.5218 153.888C97.0738 153.685 96.6844 153.397 96.3538 153.024C96.0338 152.64 95.7831 152.187 95.6018 151.664C95.4311 151.131 95.3458 150.533 95.3458 149.872C95.3458 149.221 95.4311 148.629 95.6018 148.096C95.7831 147.563 96.0338 147.109 96.3538 146.736C96.6844 146.352 97.0738 146.059 97.5218 145.856C97.9804 145.653 98.4924 145.552 99.0578 145.552C99.6124 145.552 100.108 145.653 100.546 145.856C100.983 146.059 101.356 146.341 101.666 146.704C101.975 147.056 102.21 147.477 102.37 147.968C102.54 148.459 102.626 148.997 102.626 149.584V150.192H96.6898V150.576C96.6898 150.928 96.7431 151.259 96.8498 151.568C96.9671 151.867 97.1271 152.128 97.3298 152.352C97.5431 152.576 97.7991 152.752 98.0978 152.88C98.4071 153.008 98.7538 153.072 99.1378 153.072C99.6604 153.072 100.114 152.949 100.498 152.704C100.892 152.459 101.196 152.107 101.41 151.648L102.322 152.304C102.055 152.869 101.639 153.328 101.074 153.68C100.508 154.021 99.8364 154.192 99.0578 154.192ZM99.0578 146.624C98.7058 146.624 98.3858 146.688 98.0978 146.816C97.8098 146.933 97.5591 147.104 97.3458 147.328C97.1431 147.552 96.9831 147.819 96.8658 148.128C96.7484 148.427 96.6898 148.757 96.6898 149.12V149.232H101.25V149.056C101.25 148.32 101.047 147.733 100.642 147.296C100.247 146.848 99.7191 146.624 99.0578 146.624ZM104.735 142.16H106.015V149.664H106.079L107.343 148.256L109.679 145.744H111.231L108.175 149.008L111.535 154H109.983L107.247 149.792L106.015 151.056V154H104.735V142.16ZM114.84 154C114.392 154 114.051 153.877 113.816 153.632C113.592 153.376 113.48 153.045 113.48 152.64V146.864H112.12V145.744H112.888C113.166 145.744 113.352 145.691 113.448 145.584C113.555 145.467 113.608 145.269 113.608 144.992V143.456H114.76V145.744H116.568V146.864H114.76V152.88H116.44V154H114.84ZM118.626 154V145.744H119.906V147.264H119.986C120.135 146.869 120.402 146.517 120.786 146.208C121.17 145.899 121.698 145.744 122.37 145.744H122.866V147.024H122.114C121.42 147.024 120.876 147.157 120.482 147.424C120.098 147.68 119.906 148.005 119.906 148.4V154H118.626ZM127.543 154.192C126.988 154.192 126.481 154.091 126.023 153.888C125.564 153.685 125.169 153.397 124.839 153.024C124.519 152.64 124.268 152.187 124.087 151.664C123.905 151.131 123.815 150.533 123.815 149.872C123.815 149.221 123.905 148.629 124.087 148.096C124.268 147.563 124.519 147.109 124.839 146.736C125.169 146.352 125.564 146.059 126.023 145.856C126.481 145.653 126.988 145.552 127.543 145.552C128.097 145.552 128.599 145.653 129.047 145.856C129.505 146.059 129.9 146.352 130.231 146.736C130.561 147.109 130.817 147.563 130.999 148.096C131.18 148.629 131.271 149.221 131.271 149.872C131.271 150.533 131.18 151.131 130.999 151.664C130.817 152.187 130.561 152.64 130.231 153.024C129.9 153.397 129.505 153.685 129.047 153.888C128.599 154.091 128.097 154.192 127.543 154.192ZM127.543 153.056C128.236 153.056 128.801 152.843 129.239 152.416C129.676 151.989 129.895 151.339 129.895 150.464V149.28C129.895 148.405 129.676 147.755 129.239 147.328C128.801 146.901 128.236 146.688 127.543 146.688C126.849 146.688 126.284 146.901 125.847 147.328C125.409 147.755 125.191 148.405 125.191 149.28V150.464C125.191 151.339 125.409 151.989 125.847 152.416C126.284 152.843 126.849 153.056 127.543 153.056ZM133.376 154V145.744H134.656V147.088H134.72C134.922 146.619 135.205 146.245 135.568 145.968C135.941 145.691 136.437 145.552 137.056 145.552C137.909 145.552 138.581 145.829 139.072 146.384C139.573 146.928 139.824 147.701 139.824 148.704V154H138.544V148.928C138.544 147.445 137.92 146.704 136.672 146.704C136.416 146.704 136.165 146.736 135.92 146.8C135.685 146.864 135.472 146.96 135.28 147.088C135.088 147.216 134.933 147.381 134.816 147.584C134.709 147.776 134.656 148.005 134.656 148.272V154H133.376ZM143.109 143.808C142.832 143.808 142.629 143.744 142.501 143.616C142.384 143.477 142.325 143.301 142.325 143.088V142.88C142.325 142.667 142.384 142.496 142.501 142.368C142.629 142.229 142.832 142.16 143.109 142.16C143.387 142.16 143.584 142.229 143.701 142.368C143.829 142.496 143.893 142.667 143.893 142.88V143.088C143.893 143.301 143.829 143.477 143.701 143.616C143.584 143.744 143.387 143.808 143.109 143.808ZM142.469 145.744H143.749V154H142.469V145.744ZM146.469 142.16H147.749V149.664H147.813L149.077 148.256L151.413 145.744H152.965L149.909 149.008L153.269 154H151.717L148.981 149.792L147.749 151.056V154H146.469V142.16Z" fill="#1A1A1A"/>
<path d="M16 180C16 177.791 17.7909 176 20 176H36C38.2091 176 40 177.791 40 180V196C40 198.209 38.2091 200 36 200H20C17.7909 200 16 198.209 16 196V180Z" fill="#1A1A1A"/>
<path d="M25.5496 194L19.8496 188.3L21.2746 186.875L25.5496 191.15L34.7246 181.975L36.1496 183.4L25.5496 194Z" fill="white"/>
<path d="M56.48 188.944H50.832V194H49.488V182.832H50.832V187.76H56.48V182.832H57.824V194H56.48V188.944ZM66.6725 194C66.1925 194 65.8458 193.872 65.6325 193.616C65.4298 193.36 65.3018 193.04 65.2485 192.656H65.1685C64.9872 193.168 64.6885 193.552 64.2725 193.808C63.8565 194.064 63.3605 194.192 62.7845 194.192C61.9098 194.192 61.2272 193.968 60.7365 193.52C60.2565 193.072 60.0165 192.464 60.0165 191.696C60.0165 190.917 60.2992 190.32 60.8645 189.904C61.4405 189.488 62.3312 189.28 63.5365 189.28H65.1685V188.464C65.1685 187.877 65.0085 187.429 64.6885 187.12C64.3685 186.811 63.8778 186.656 63.2165 186.656C62.7152 186.656 62.2938 186.768 61.9525 186.992C61.6218 187.216 61.3445 187.515 61.1205 187.888L60.3525 187.168C60.5765 186.72 60.9338 186.341 61.4245 186.032C61.9152 185.712 62.5338 185.552 63.2805 185.552C64.2832 185.552 65.0618 185.797 65.6165 186.288C66.1712 186.779 66.4485 187.461 66.4485 188.336V192.88H67.3925V194H66.6725ZM62.9925 193.104C63.3125 193.104 63.6058 193.067 63.8725 192.992C64.1392 192.917 64.3685 192.811 64.5605 192.672C64.7525 192.533 64.9018 192.373 65.0085 192.192C65.1152 192.011 65.1685 191.813 65.1685 191.6V190.24H63.4725C62.7365 190.24 62.1978 190.347 61.8565 190.56C61.5258 190.773 61.3605 191.083 61.3605 191.488V191.824C61.3605 192.229 61.5045 192.544 61.7925 192.768C62.0912 192.992 62.4912 193.104 62.9925 193.104ZM63.3605 184.784C63.1045 184.784 62.8592 184.741 62.6245 184.656C62.4005 184.56 62.2032 184.432 62.0325 184.272C61.8725 184.101 61.7445 183.904 61.6485 183.68C61.5525 183.456 61.5045 183.211 61.5045 182.944C61.5045 182.677 61.5525 182.432 61.6485 182.208C61.7445 181.984 61.8725 181.792 62.0325 181.632C62.2032 181.461 62.4005 181.333 62.6245 181.248C62.8592 181.152 63.1045 181.104 63.3605 181.104C63.6165 181.104 63.8565 181.152 64.0805 181.248C64.3152 181.333 64.5125 181.461 64.6725 181.632C64.8432 181.792 64.9765 181.984 65.0725 182.208C65.1685 182.432 65.2165 182.677 65.2165 182.944C65.2165 183.211 65.1685 183.456 65.0725 183.68C64.9765 183.904 64.8432 184.101 64.6725 184.272C64.5125 184.432 64.3152 184.56 64.0805 184.656C63.8565 184.741 63.6165 184.784 63.3605 184.784ZM63.3605 184C63.6485 184 63.8725 183.925 64.0325 183.776C64.2032 183.616 64.2885 183.397 64.2885 183.12V182.768C64.2885 182.491 64.2032 182.277 64.0325 182.128C63.8725 181.968 63.6485 181.888 63.3605 181.888C63.0725 181.888 62.8432 181.968 62.6725 182.128C62.5125 182.277 62.4325 182.491 62.4325 182.768V183.12C62.4325 183.397 62.5125 183.616 62.6725 183.776C62.8432 183.925 63.0725 184 63.3605 184ZM69.2194 194V185.744H70.4994V187.264H70.5794C70.7287 186.869 70.9954 186.517 71.3794 186.208C71.7634 185.899 72.2914 185.744 72.9634 185.744H73.4594V187.024H72.7074C72.014 187.024 71.47 187.157 71.0754 187.424C70.6914 187.68 70.4994 188.005 70.4994 188.4V194H69.2194ZM80.2806 192.656H80.2166C79.7153 193.68 78.91 194.192 77.8006 194.192C77.2886 194.192 76.8246 194.091 76.4086 193.888C75.9926 193.685 75.6353 193.397 75.3366 193.024C75.0486 192.651 74.8246 192.197 74.6646 191.664C74.5153 191.131 74.4406 190.533 74.4406 189.872C74.4406 189.211 74.5153 188.613 74.6646 188.08C74.8246 187.547 75.0486 187.093 75.3366 186.72C75.6353 186.347 75.9926 186.059 76.4086 185.856C76.8246 185.653 77.2886 185.552 77.8006 185.552C78.3766 185.552 78.8673 185.68 79.2726 185.936C79.6886 186.181 80.0033 186.565 80.2166 187.088H80.2806V182.16H81.5606V194H80.2806V192.656ZM78.1526 193.04C78.4406 193.04 78.7126 193.003 78.9686 192.928C79.2353 192.853 79.4646 192.747 79.6566 192.608C79.8486 192.459 79.998 192.283 80.1046 192.08C80.222 191.867 80.2806 191.627 80.2806 191.36V188.288C80.2806 188.064 80.222 187.856 80.1046 187.664C79.998 187.461 79.8486 187.291 79.6566 187.152C79.4646 187.013 79.2353 186.907 78.9686 186.832C78.7126 186.747 78.4406 186.704 78.1526 186.704C77.4273 186.704 76.8566 186.933 76.4406 187.392C76.0246 187.84 75.8166 188.432 75.8166 189.168V190.576C75.8166 191.312 76.0246 191.909 76.4406 192.368C76.8566 192.816 77.4273 193.04 78.1526 193.04ZM87.3859 194.192C86.8205 194.192 86.3085 194.091 85.8499 193.888C85.4019 193.685 85.0125 193.397 84.6819 193.024C84.3619 192.64 84.1112 192.187 83.9299 191.664C83.7592 191.131 83.6739 190.533 83.6739 189.872C83.6739 189.221 83.7592 188.629 83.9299 188.096C84.1112 187.563 84.3619 187.109 84.6819 186.736C85.0125 186.352 85.4019 186.059 85.8499 185.856C86.3085 185.653 86.8205 185.552 87.3859 185.552C87.9405 185.552 88.4365 185.653 88.8739 185.856C89.3112 186.059 89.6845 186.341 89.9939 186.704C90.3032 187.056 90.5379 187.477 90.6979 187.968C90.8685 188.459 90.9539 188.997 90.9539 189.584V190.192H85.0179V190.576C85.0179 190.928 85.0712 191.259 85.1779 191.568C85.2952 191.867 85.4552 192.128 85.6579 192.352C85.8712 192.576 86.1272 192.752 86.4259 192.88C86.7352 193.008 87.0819 193.072 87.4659 193.072C87.9885 193.072 88.4419 192.949 88.8259 192.704C89.2205 192.459 89.5245 192.107 89.7379 191.648L90.6499 192.304C90.3832 192.869 89.9672 193.328 89.4019 193.68C88.8365 194.021 88.1645 194.192 87.3859 194.192ZM87.3859 186.624C87.0339 186.624 86.7139 186.688 86.4259 186.816C86.1379 186.933 85.8872 187.104 85.6739 187.328C85.4712 187.552 85.3112 187.819 85.1939 188.128C85.0765 188.427 85.0179 188.757 85.0179 189.12V189.232H89.5779V189.056C89.5779 188.32 89.3752 187.733 88.9699 187.296C88.5752 186.848 88.0472 186.624 87.3859 186.624ZM96.8444 182.16H98.1244V187.088H98.1884C98.391 186.619 98.6737 186.245 99.0364 185.968C99.4097 185.691 99.9057 185.552 100.524 185.552C101.378 185.552 102.05 185.829 102.54 186.384C103.042 186.928 103.292 187.701 103.292 188.704V194H102.012V188.928C102.012 187.445 101.388 186.704 100.14 186.704C99.8844 186.704 99.6337 186.736 99.3884 186.8C99.1537 186.864 98.9404 186.96 98.7484 187.088C98.5564 187.216 98.4017 187.381 98.2844 187.584C98.1777 187.776 98.1244 188.005 98.1244 188.272V194H96.8444V182.16ZM107.637 194L104.741 185.744H106.021L107.461 189.84L108.357 192.656H108.437L109.333 189.84L110.805 185.744H112.037L109.125 194H107.637ZM114.328 183.808C114.051 183.808 113.848 183.744 113.72 183.616C113.603 183.477 113.544 183.301 113.544 183.088V182.88C113.544 182.667 113.603 182.496 113.72 182.368C113.848 182.229 114.051 182.16 114.328 182.16C114.605 182.16 114.803 182.229 114.92 182.368C115.048 182.496 115.112 182.667 115.112 182.88V183.088C115.112 183.301 115.048 183.477 114.92 183.616C114.803 183.744 114.605 183.808 114.328 183.808ZM113.688 185.744H114.968V194H113.688V185.744ZM122.968 192.656H122.904C122.403 193.68 121.597 194.192 120.488 194.192C119.976 194.192 119.512 194.091 119.096 193.888C118.68 193.685 118.323 193.397 118.024 193.024C117.736 192.651 117.512 192.197 117.352 191.664C117.203 191.131 117.128 190.533 117.128 189.872C117.128 189.211 117.203 188.613 117.352 188.08C117.512 187.547 117.736 187.093 118.024 186.72C118.323 186.347 118.68 186.059 119.096 185.856C119.512 185.653 119.976 185.552 120.488 185.552C121.064 185.552 121.555 185.68 121.96 185.936C122.376 186.181 122.691 186.565 122.904 187.088H122.968V182.16H124.248V194H122.968V192.656ZM120.84 193.04C121.128 193.04 121.4 193.003 121.656 192.928C121.923 192.853 122.152 192.747 122.344 192.608C122.536 192.459 122.685 192.283 122.792 192.08C122.909 191.867 122.968 191.627 122.968 191.36V188.288C122.968 188.064 122.909 187.856 122.792 187.664C122.685 187.461 122.536 187.291 122.344 187.152C122.152 187.013 121.923 186.907 121.656 186.832C121.4 186.747 121.128 186.704 120.84 186.704C120.115 186.704 119.544 186.933 119.128 187.392C118.712 187.84 118.504 188.432 118.504 189.168V190.576C118.504 191.312 118.712 191.909 119.128 192.368C119.544 192.816 120.115 193.04 120.84 193.04ZM130.073 194.192C129.508 194.192 128.996 194.091 128.537 193.888C128.089 193.685 127.7 193.397 127.369 193.024C127.049 192.64 126.799 192.187 126.617 191.664C126.447 191.131 126.361 190.533 126.361 189.872C126.361 189.221 126.447 188.629 126.617 188.096C126.799 187.563 127.049 187.109 127.369 186.736C127.7 186.352 128.089 186.059 128.537 185.856C128.996 185.653 129.508 185.552 130.073 185.552C130.628 185.552 131.124 185.653 131.561 185.856C131.999 186.059 132.372 186.341 132.681 186.704C132.991 187.056 133.225 187.477 133.385 187.968C133.556 188.459 133.641 188.997 133.641 189.584V190.192H127.705V190.576C127.705 190.928 127.759 191.259 127.865 191.568C127.983 191.867 128.143 192.128 128.345 192.352C128.559 192.576 128.815 192.752 129.113 192.88C129.423 193.008 129.769 193.072 130.153 193.072C130.676 193.072 131.129 192.949 131.513 192.704C131.908 192.459 132.212 192.107 132.425 191.648L133.337 192.304C133.071 192.869 132.655 193.328 132.089 193.68C131.524 194.021 130.852 194.192 130.073 194.192ZM130.073 186.624C129.721 186.624 129.401 186.688 129.113 186.816C128.825 186.933 128.575 187.104 128.361 187.328C128.159 187.552 127.999 187.819 127.881 188.128C127.764 188.427 127.705 188.757 127.705 189.12V189.232H132.265V189.056C132.265 188.32 132.063 187.733 131.657 187.296C131.263 186.848 130.735 186.624 130.073 186.624ZM137.45 194L134.554 185.744H135.834L137.274 189.84L138.17 192.656H138.25L139.146 189.84L140.618 185.744H141.85L138.938 194H137.45ZM149.36 194C148.88 194 148.533 193.872 148.32 193.616C148.117 193.36 147.989 193.04 147.936 192.656H147.856C147.675 193.168 147.376 193.552 146.96 193.808C146.544 194.064 146.048 194.192 145.472 194.192C144.597 194.192 143.915 193.968 143.424 193.52C142.944 193.072 142.704 192.464 142.704 191.696C142.704 190.917 142.987 190.32 143.552 189.904C144.128 189.488 145.019 189.28 146.224 189.28H147.856V188.464C147.856 187.877 147.696 187.429 147.376 187.12C147.056 186.811 146.565 186.656 145.904 186.656C145.403 186.656 144.981 186.768 144.64 186.992C144.309 187.216 144.032 187.515 143.808 187.888L143.04 187.168C143.264 186.72 143.621 186.341 144.112 186.032C144.603 185.712 145.221 185.552 145.968 185.552C146.971 185.552 147.749 185.797 148.304 186.288C148.859 186.779 149.136 187.461 149.136 188.336V192.88H150.08V194H149.36ZM145.68 193.104C146 193.104 146.293 193.067 146.56 192.992C146.827 192.917 147.056 192.811 147.248 192.672C147.44 192.533 147.589 192.373 147.696 192.192C147.803 192.011 147.856 191.813 147.856 191.6V190.24H146.16C145.424 190.24 144.885 190.347 144.544 190.56C144.213 190.773 144.048 191.083 144.048 191.488V191.824C144.048 192.229 144.192 192.544 144.48 192.768C144.779 192.992 145.179 193.104 145.68 193.104ZM151.907 194V185.744H153.187V187.264H153.267C153.416 186.869 153.683 186.517 154.067 186.208C154.451 185.899 154.979 185.744 155.651 185.744H156.147V187.024H155.395C154.702 187.024 154.158 187.157 153.763 187.424C153.379 187.68 153.187 188.005 153.187 188.4V194H151.907ZM160.808 194.192C160.242 194.192 159.73 194.091 159.272 193.888C158.824 193.685 158.434 193.397 158.104 193.024C157.784 192.64 157.533 192.187 157.352 191.664C157.181 191.131 157.096 190.533 157.096 189.872C157.096 189.221 157.181 188.629 157.352 188.096C157.533 187.563 157.784 187.109 158.104 186.736C158.434 186.352 158.824 186.059 159.272 185.856C159.73 185.653 160.242 185.552 160.808 185.552C161.362 185.552 161.858 185.653 162.296 185.856C162.733 186.059 163.106 186.341 163.416 186.704C163.725 187.056 163.96 187.477 164.12 187.968C164.29 188.459 164.376 188.997 164.376 189.584V190.192H158.44V190.576C158.44 190.928 158.493 191.259 158.6 191.568C158.717 191.867 158.877 192.128 159.08 192.352C159.293 192.576 159.549 192.752 159.848 192.88C160.157 193.008 160.504 193.072 160.888 193.072C161.41 193.072 161.864 192.949 162.248 192.704C162.642 192.459 162.946 192.107 163.16 191.648L164.072 192.304C163.805 192.869 163.389 193.328 162.824 193.68C162.258 194.021 161.586 194.192 160.808 194.192ZM160.808 186.624C160.456 186.624 160.136 186.688 159.848 186.816C159.56 186.933 159.309 187.104 159.096 187.328C158.893 187.552 158.733 187.819 158.616 188.128C158.498 188.427 158.44 188.757 158.44 189.12V189.232H163V189.056C163 188.32 162.797 187.733 162.392 187.296C161.997 186.848 161.469 186.624 160.808 186.624ZM166.485 194V185.744H167.765V187.264H167.845C167.994 186.869 168.261 186.517 168.645 186.208C169.029 185.899 169.557 185.744 170.229 185.744H170.725V187.024H169.973C169.28 187.024 168.736 187.157 168.341 187.424C167.957 187.68 167.765 188.005 167.765 188.4V194H166.485Z" fill="#1A1A1A"/>
<path d="M17 220C17 218.343 18.3431 217 20 217H36C37.6569 217 39 218.343 39 220V236C39 237.657 37.6569 239 36 239H20C18.3431 239 17 237.657 17 236V220Z" fill="white"/>
<path d="M17 220C17 218.343 18.3431 217 20 217H36C37.6569 217 39 218.343 39 220V236C39 237.657 37.6569 239 36 239H20C18.3431 239 17 237.657 17 236V220Z" stroke="#1A1A1A" stroke-width="2"/>
<path d="M56.48 234L55.36 230.704H50.848L49.728 234H48.368L52.272 222.832H53.984L57.888 234H56.48ZM53.136 224.08H53.056L51.168 229.52H55.024L53.136 224.08ZM59.61 234V225.744H60.89V227.088H60.954C61.1567 226.619 61.4393 226.245 61.802 225.968C62.1753 225.691 62.6713 225.552 63.29 225.552C64.1433 225.552 64.8153 225.829 65.306 226.384C65.8073 226.928 66.058 227.701 66.058 228.704V234H64.778V228.928C64.778 227.445 64.154 226.704 62.906 226.704C62.65 226.704 62.3993 226.736 62.154 226.8C61.9193 226.864 61.706 226.96 61.514 227.088C61.322 227.216 61.1673 227.381 61.05 227.584C60.9433 227.776 60.89 228.005 60.89 228.272V234H59.61ZM73.9838 232.656H73.9198C73.4184 233.68 72.6131 234.192 71.5038 234.192C70.9918 234.192 70.5278 234.091 70.1118 233.888C69.6958 233.685 69.3384 233.397 69.0398 233.024C68.7518 232.651 68.5278 232.197 68.3678 231.664C68.2184 231.131 68.1438 230.533 68.1438 229.872C68.1438 229.211 68.2184 228.613 68.3678 228.08C68.5278 227.547 68.7518 227.093 69.0398 226.72C69.3384 226.347 69.6958 226.059 70.1118 225.856C70.5278 225.653 70.9918 225.552 71.5038 225.552C72.0798 225.552 72.5704 225.68 72.9758 225.936C73.3918 226.181 73.7064 226.565 73.9198 227.088H73.9838V222.16H75.2638V234H73.9838V232.656ZM71.8558 233.04C72.1438 233.04 72.4158 233.003 72.6718 232.928C72.9384 232.853 73.1678 232.747 73.3598 232.608C73.5518 232.459 73.7011 232.283 73.8078 232.08C73.9251 231.867 73.9838 231.627 73.9838 231.36V228.288C73.9838 228.064 73.9251 227.856 73.8078 227.664C73.7011 227.461 73.5518 227.291 73.3598 227.152C73.1678 227.013 72.9384 226.907 72.6718 226.832C72.4158 226.747 72.1438 226.704 71.8558 226.704C71.1304 226.704 70.5598 226.933 70.1438 227.392C69.7278 227.84 69.5198 228.432 69.5198 229.168V230.576C69.5198 231.312 69.7278 231.909 70.1438 232.368C70.5598 232.816 71.1304 233.04 71.8558 233.04ZM81.089 234.192C80.5237 234.192 80.0117 234.091 79.553 233.888C79.105 233.685 78.7157 233.397 78.385 233.024C78.065 232.64 77.8143 232.187 77.633 231.664C77.4623 231.131 77.377 230.533 77.377 229.872C77.377 229.221 77.4623 228.629 77.633 228.096C77.8143 227.563 78.065 227.109 78.385 226.736C78.7157 226.352 79.105 226.059 79.553 225.856C80.0117 225.653 80.5237 225.552 81.089 225.552C81.6437 225.552 82.1397 225.653 82.577 225.856C83.0143 226.059 83.3877 226.341 83.697 226.704C84.0063 227.056 84.241 227.477 84.401 227.968C84.5717 228.459 84.657 228.997 84.657 229.584V230.192H78.721V230.576C78.721 230.928 78.7743 231.259 78.881 231.568C78.9983 231.867 79.1583 232.128 79.361 232.352C79.5743 232.576 79.8303 232.752 80.129 232.88C80.4383 233.008 80.785 233.072 81.169 233.072C81.6917 233.072 82.145 232.949 82.529 232.704C82.9237 232.459 83.2277 232.107 83.441 231.648L84.353 232.304C84.0863 232.869 83.6703 233.328 83.105 233.68C82.5397 234.021 81.8677 234.192 81.089 234.192ZM81.089 226.624C80.737 226.624 80.417 226.688 80.129 226.816C79.841 226.933 79.5903 227.104 79.377 227.328C79.1743 227.552 79.0143 227.819 78.897 228.128C78.7797 228.427 78.721 228.757 78.721 229.12V229.232H83.281V229.056C83.281 228.32 83.0783 227.733 82.673 227.296C82.2783 226.848 81.7503 226.624 81.089 226.624ZM88.5903 234C88.1423 234 87.8009 233.877 87.5663 233.632C87.3423 233.376 87.2303 233.045 87.2303 232.64V226.864H85.8703V225.744H86.6383C86.9156 225.744 87.1023 225.691 87.1983 225.584C87.3049 225.467 87.3583 225.269 87.3583 224.992V223.456H88.5103V225.744H90.3183V226.864H88.5103V232.88H90.1903V234H88.5903ZM98.6369 234.192C97.8689 234.192 97.2235 234.048 96.7009 233.76C96.1889 233.461 95.7462 233.067 95.3729 232.576L96.2849 231.84C96.6049 232.245 96.9622 232.56 97.3569 232.784C97.7515 232.997 98.2102 233.104 98.7329 233.104C99.2769 233.104 99.6982 232.987 99.9969 232.752C100.306 232.517 100.461 232.187 100.461 231.76C100.461 231.44 100.354 231.168 100.141 230.944C99.9382 230.709 99.5649 230.549 99.0209 230.464L98.3649 230.368C97.9809 230.315 97.6289 230.235 97.3089 230.128C96.9889 230.011 96.7062 229.861 96.4609 229.68C96.2262 229.488 96.0395 229.253 95.9009 228.976C95.7729 228.699 95.7089 228.368 95.7089 227.984C95.7089 227.579 95.7835 227.227 95.9329 226.928C96.0822 226.619 96.2849 226.363 96.5409 226.16C96.8075 225.957 97.1222 225.808 97.4849 225.712C97.8475 225.605 98.2369 225.552 98.6529 225.552C99.3249 225.552 99.8849 225.669 100.333 225.904C100.792 226.139 101.192 226.464 101.533 226.88L100.685 227.648C100.504 227.392 100.237 227.163 99.8849 226.96C99.5329 226.747 99.0902 226.64 98.5569 226.64C98.0235 226.64 97.6182 226.757 97.3409 226.992C97.0742 227.216 96.9409 227.525 96.9409 227.92C96.9409 228.325 97.0742 228.619 97.3409 228.8C97.6182 228.981 98.0129 229.115 98.5249 229.2L99.1649 229.296C100.082 229.435 100.733 229.701 101.117 230.096C101.501 230.48 101.693 230.987 101.693 231.616C101.693 232.416 101.421 233.045 100.877 233.504C100.333 233.963 99.5862 234.192 98.6369 234.192ZM105.668 234C105.22 234 104.879 233.877 104.644 233.632C104.42 233.376 104.308 233.045 104.308 232.64V226.864H102.948V225.744H103.716C103.994 225.744 104.18 225.691 104.276 225.584C104.383 225.467 104.436 225.269 104.436 224.992V223.456H105.588V225.744H107.396V226.864H105.588V232.88H107.268V234H105.668ZM112.511 234.192C111.957 234.192 111.45 234.091 110.991 233.888C110.533 233.685 110.138 233.397 109.807 233.024C109.487 232.64 109.237 232.187 109.055 231.664C108.874 231.131 108.783 230.533 108.783 229.872C108.783 229.221 108.874 228.629 109.055 228.096C109.237 227.563 109.487 227.109 109.807 226.736C110.138 226.352 110.533 226.059 110.991 225.856C111.45 225.653 111.957 225.552 112.511 225.552C113.066 225.552 113.567 225.653 114.015 225.856C114.474 226.059 114.869 226.352 115.199 226.736C115.53 227.109 115.786 227.563 115.967 228.096C116.149 228.629 116.239 229.221 116.239 229.872C116.239 230.533 116.149 231.131 115.967 231.664C115.786 232.187 115.53 232.64 115.199 233.024C114.869 233.397 114.474 233.685 114.015 233.888C113.567 234.091 113.066 234.192 112.511 234.192ZM112.511 233.056C113.205 233.056 113.77 232.843 114.207 232.416C114.645 231.989 114.863 231.339 114.863 230.464V229.28C114.863 228.405 114.645 227.755 114.207 227.328C113.77 226.901 113.205 226.688 112.511 226.688C111.818 226.688 111.253 226.901 110.815 227.328C110.378 227.755 110.159 228.405 110.159 229.28V230.464C110.159 231.339 110.378 231.989 110.815 232.416C111.253 232.843 111.818 233.056 112.511 233.056ZM118.344 234V225.744H119.624V227.264H119.704C119.854 226.869 120.12 226.517 120.504 226.208C120.888 225.899 121.416 225.744 122.088 225.744H122.584V227.024H121.832C121.139 227.024 120.595 227.157 120.2 227.424C119.816 227.68 119.624 228.005 119.624 228.4V234H118.344ZM126.699 234.192C125.931 234.192 125.286 234.048 124.763 233.76C124.251 233.461 123.809 233.067 123.435 232.576L124.347 231.84C124.667 232.245 125.025 232.56 125.419 232.784C125.814 232.997 126.273 233.104 126.795 233.104C127.339 233.104 127.761 232.987 128.059 232.752C128.369 232.517 128.523 232.187 128.523 231.76C128.523 231.44 128.417 231.168 128.203 230.944C128.001 230.709 127.627 230.549 127.083 230.464L126.427 230.368C126.043 230.315 125.691 230.235 125.371 230.128C125.051 230.011 124.769 229.861 124.523 229.68C124.289 229.488 124.102 229.253 123.963 228.976C123.835 228.699 123.771 228.368 123.771 227.984C123.771 227.579 123.846 227.227 123.995 226.928C124.145 226.619 124.347 226.363 124.603 226.16C124.87 225.957 125.185 225.808 125.547 225.712C125.91 225.605 126.299 225.552 126.715 225.552C127.387 225.552 127.947 225.669 128.395 225.904C128.854 226.139 129.254 226.464 129.595 226.88L128.747 227.648C128.566 227.392 128.299 227.163 127.947 226.96C127.595 226.747 127.153 226.64 126.619 226.64C126.086 226.64 125.681 226.757 125.403 226.992C125.137 227.216 125.003 227.525 125.003 227.92C125.003 228.325 125.137 228.619 125.403 228.8C125.681 228.981 126.075 229.115 126.587 229.2L127.227 229.296C128.145 229.435 128.795 229.701 129.179 230.096C129.563 230.48 129.755 230.987 129.755 231.616C129.755 232.416 129.483 233.045 128.939 233.504C128.395 233.963 127.649 234.192 126.699 234.192ZM132.016 222.16H133.296V229.664H133.36L134.624 228.256L136.96 225.744H138.512L135.456 229.008L138.816 234H137.264L134.528 229.792L133.296 231.056V234H132.016V222.16ZM140.454 234V225.744H141.734V227.264H141.814C141.963 226.869 142.23 226.517 142.614 226.208C142.998 225.899 143.526 225.744 144.198 225.744H144.694V227.024H143.942C143.248 227.024 142.704 227.157 142.31 227.424C141.926 227.68 141.734 228.005 141.734 228.4V234H140.454ZM152.266 234C151.786 234 151.44 233.872 151.226 233.616C151.024 233.36 150.896 233.04 150.842 232.656H150.762C150.581 233.168 150.282 233.552 149.866 233.808C149.45 234.064 148.954 234.192 148.378 234.192C147.504 234.192 146.821 233.968 146.33 233.52C145.85 233.072 145.61 232.464 145.61 231.696C145.61 230.917 145.893 230.32 146.458 229.904C147.034 229.488 147.925 229.28 149.13 229.28H150.762V228.464C150.762 227.877 150.602 227.429 150.282 227.12C149.962 226.811 149.472 226.656 148.81 226.656C148.309 226.656 147.888 226.768 147.546 226.992C147.216 227.216 146.938 227.515 146.714 227.888L145.946 227.168C146.17 226.72 146.528 226.341 147.018 226.032C147.509 225.712 148.128 225.552 148.874 225.552C149.877 225.552 150.656 225.797 151.21 226.288C151.765 226.779 152.042 227.461 152.042 228.336V232.88H152.986V234H152.266ZM148.586 233.104C148.906 233.104 149.2 233.067 149.466 232.992C149.733 232.917 149.962 232.811 150.154 232.672C150.346 232.533 150.496 232.373 150.602 232.192C150.709 232.011 150.762 231.813 150.762 231.6V230.24H149.066C148.33 230.24 147.792 230.347 147.45 230.56C147.12 230.773 146.954 231.083 146.954 231.488V231.824C146.954 232.229 147.098 232.544 147.386 232.768C147.685 232.992 148.085 233.104 148.586 233.104ZM156.173 234C155.725 234 155.384 233.877 155.149 233.632C154.925 233.376 154.813 233.056 154.813 232.672V222.16H156.093V232.88H157.309V234H156.173ZM164.453 232.656H164.389C163.887 233.68 163.082 234.192 161.973 234.192C161.461 234.192 160.997 234.091 160.581 233.888C160.165 233.685 159.807 233.397 159.509 233.024C159.221 232.651 158.997 232.197 158.837 231.664C158.687 231.131 158.613 230.533 158.613 229.872C158.613 229.211 158.687 228.613 158.837 228.08C158.997 227.547 159.221 227.093 159.509 226.72C159.807 226.347 160.165 226.059 160.581 225.856C160.997 225.653 161.461 225.552 161.973 225.552C162.549 225.552 163.039 225.68 163.445 225.936C163.861 226.181 164.175 226.565 164.389 227.088H164.453V222.16H165.733V234H164.453V232.656ZM162.325 233.04C162.613 233.04 162.885 233.003 163.141 232.928C163.407 232.853 163.637 232.747 163.829 232.608C164.021 232.459 164.17 232.283 164.277 232.08C164.394 231.867 164.453 231.627 164.453 231.36V228.288C164.453 228.064 164.394 227.856 164.277 227.664C164.17 227.461 164.021 227.291 163.829 227.152C163.637 227.013 163.407 226.907 163.141 226.832C162.885 226.747 162.613 226.704 162.325 226.704C161.599 226.704 161.029 226.933 160.613 227.392C160.197 227.84 159.989 228.432 159.989 229.168V230.576C159.989 231.312 160.197 231.909 160.613 232.368C161.029 232.816 161.599 233.04 162.325 233.04Z" fill="#1A1A1A"/>
</svg>
