<svg width="418" height="277" viewBox="0 0 418 277" fill="none" xmlns="http://www.w3.org/2000/svg">
<rect width="418" height="277" fill="white"/>
<path d="M17.312 20.832H21.376C22.1013 20.832 22.7573 20.9493 23.344 21.184C23.9413 21.4187 24.448 21.7707 24.864 22.24C25.2907 22.6987 25.616 23.28 25.84 23.984C26.0747 24.6773 26.192 25.488 26.192 26.416C26.192 27.344 26.0747 28.16 25.84 28.864C25.616 29.5573 25.2907 30.1387 24.864 30.608C24.448 31.0667 23.9413 31.4133 23.344 31.648C22.7573 31.8827 22.1013 32 21.376 32H17.312V20.832ZM21.376 30.128C22.1653 30.128 22.7893 29.8987 23.248 29.44C23.7173 28.9707 23.952 28.256 23.952 27.296V25.536C23.952 24.576 23.7173 23.8667 23.248 23.408C22.7893 22.9387 22.1653 22.704 21.376 22.704H19.424V30.128H21.376ZM34.3593 32C33.9113 32 33.5539 31.872 33.2873 31.616C33.0313 31.3493 32.8713 30.9973 32.8073 30.56H32.7113C32.5726 31.104 32.2899 31.5147 31.8633 31.792C31.4366 32.0587 30.9086 32.192 30.2793 32.192C29.4259 32.192 28.7699 31.968 28.3113 31.52C27.8526 31.072 27.6233 30.4747 27.6233 29.728C27.6233 28.864 27.9326 28.224 28.5513 27.808C29.1699 27.3813 30.0499 27.168 31.1913 27.168H32.6153V26.56C32.6153 26.0907 32.4926 25.728 32.2473 25.472C32.0019 25.216 31.6073 25.088 31.0633 25.088C30.5833 25.088 30.1939 25.1947 29.8953 25.408C29.6073 25.6107 29.3619 25.856 29.1593 26.144L27.9433 25.056C28.2526 24.576 28.6633 24.192 29.1753 23.904C29.6873 23.6053 30.3646 23.456 31.2073 23.456C32.3379 23.456 33.1966 23.712 33.7833 24.224C34.3699 24.736 34.6633 25.472 34.6633 26.432V30.368H35.4953V32H34.3593ZM30.9673 30.704C31.4259 30.704 31.8153 30.6027 32.1353 30.4C32.4553 30.1973 32.6153 29.8987 32.6153 29.504V28.4H31.3033C30.2366 28.4 29.7033 28.7413 29.7033 29.424V29.696C29.7033 30.0373 29.8099 30.2933 30.0233 30.464C30.2473 30.624 30.5619 30.704 30.9673 30.704ZM39.6983 32C38.9943 32 38.4556 31.8187 38.0823 31.456C37.7196 31.0827 37.5383 30.5547 37.5383 29.872V25.28H36.3063V23.648H36.9463C37.2556 23.648 37.4636 23.5787 37.5703 23.44C37.6876 23.2907 37.7463 23.072 37.7463 22.784V21.36H39.5863V23.648H41.2983V25.28H39.5863V30.368H41.1703V32H39.6983ZM46.3241 32.192C45.7268 32.192 45.1881 32.0907 44.7081 31.888C44.2388 31.6853 43.8335 31.392 43.4921 31.008C43.1615 30.624 42.9055 30.1653 42.7241 29.632C42.5428 29.088 42.4521 28.48 42.4521 27.808C42.4521 27.136 42.5428 26.5333 42.7241 26C42.9055 25.4667 43.1615 25.0133 43.4921 24.64C43.8335 24.256 44.2388 23.9627 44.7081 23.76C45.1881 23.5573 45.7268 23.456 46.3241 23.456C46.9215 23.456 47.4601 23.5573 47.9401 23.76C48.4201 23.9627 48.8255 24.256 49.1561 24.64C49.4975 25.0133 49.7588 25.4667 49.9401 26C50.1215 26.5333 50.2121 27.136 50.2121 27.808C50.2121 28.48 50.1215 29.088 49.9401 29.632C49.7588 30.1653 49.4975 30.624 49.1561 31.008C48.8255 31.392 48.4201 31.6853 47.9401 31.888C47.4601 32.0907 46.9215 32.192 46.3241 32.192ZM46.3241 30.544C46.8681 30.544 47.2948 30.3787 47.6041 30.048C47.9135 29.7173 48.0681 29.232 48.0681 28.592V27.04C48.0681 26.4107 47.9135 25.9307 47.6041 25.6C47.2948 25.2693 46.8681 25.104 46.3241 25.104C45.7908 25.104 45.3695 25.2693 45.0601 25.6C44.7508 25.9307 44.5961 26.4107 44.5961 27.04V28.592C44.5961 29.232 44.7508 29.7173 45.0601 30.048C45.3695 30.3787 45.7908 30.544 46.3241 30.544ZM56.225 25.264H54.993V23.648H56.225V22.448C56.225 21.712 56.417 21.1467 56.801 20.752C57.1957 20.3573 57.7717 20.16 58.529 20.16H59.985V21.792H58.273V23.648H59.985V25.264H58.273V32H56.225V25.264ZM64.6523 32.192C64.0549 32.192 63.5163 32.0907 63.0363 31.888C62.5669 31.6853 62.1616 31.392 61.8203 31.008C61.4896 30.624 61.2336 30.1653 61.0523 29.632C60.8709 29.088 60.7803 28.48 60.7803 27.808C60.7803 27.136 60.8709 26.5333 61.0523 26C61.2336 25.4667 61.4896 25.0133 61.8203 24.64C62.1616 24.256 62.5669 23.9627 63.0363 23.76C63.5163 23.5573 64.0549 23.456 64.6523 23.456C65.2496 23.456 65.7883 23.5573 66.2683 23.76C66.7483 23.9627 67.1536 24.256 67.4843 24.64C67.8256 25.0133 68.0869 25.4667 68.2683 26C68.4496 26.5333 68.5403 27.136 68.5403 27.808C68.5403 28.48 68.4496 29.088 68.2683 29.632C68.0869 30.1653 67.8256 30.624 67.4843 31.008C67.1536 31.392 66.7483 31.6853 66.2683 31.888C65.7883 32.0907 65.2496 32.192 64.6523 32.192ZM64.6523 30.544C65.1963 30.544 65.6229 30.3787 65.9323 30.048C66.2416 29.7173 66.3963 29.232 66.3963 28.592V27.04C66.3963 26.4107 66.2416 25.9307 65.9323 25.6C65.6229 25.2693 65.1963 25.104 64.6523 25.104C64.1189 25.104 63.6976 25.2693 63.3883 25.6C63.0789 25.9307 62.9243 26.4107 62.9243 27.04V28.592C62.9243 29.232 63.0789 29.7173 63.3883 30.048C63.6976 30.3787 64.1189 30.544 64.6523 30.544ZM70.3559 32V23.648H72.4039V25.376H72.4839C72.5372 25.152 72.6172 24.9387 72.7239 24.736C72.8412 24.5227 72.9905 24.336 73.1719 24.176C73.3532 24.016 73.5665 23.888 73.8119 23.792C74.0679 23.696 74.3612 23.648 74.6919 23.648H75.1399V25.584H74.4999C73.8065 25.584 73.2839 25.6853 72.9319 25.888C72.5799 26.0907 72.4039 26.4213 72.4039 26.88V32H70.3559ZM86.5624 32C86.1144 32 85.757 31.872 85.4904 31.616C85.2344 31.3493 85.0744 30.9973 85.0104 30.56H84.9144C84.7757 31.104 84.493 31.5147 84.0664 31.792C83.6397 32.0587 83.1117 32.192 82.4824 32.192C81.629 32.192 80.973 31.968 80.5144 31.52C80.0557 31.072 79.8264 30.4747 79.8264 29.728C79.8264 28.864 80.1357 28.224 80.7544 27.808C81.373 27.3813 82.253 27.168 83.3944 27.168H84.8184V26.56C84.8184 26.0907 84.6957 25.728 84.4504 25.472C84.205 25.216 83.8104 25.088 83.2664 25.088C82.7864 25.088 82.397 25.1947 82.0984 25.408C81.8104 25.6107 81.565 25.856 81.3624 26.144L80.1464 25.056C80.4557 24.576 80.8664 24.192 81.3784 23.904C81.8904 23.6053 82.5677 23.456 83.4104 23.456C84.541 23.456 85.3997 23.712 85.9864 24.224C86.573 24.736 86.8664 25.472 86.8664 26.432V30.368H87.6984V32H86.5624ZM83.1704 30.704C83.629 30.704 84.0184 30.6027 84.3384 30.4C84.6584 30.1973 84.8184 29.8987 84.8184 29.504V28.4H83.5064C82.4397 28.4 81.9064 28.7413 81.9064 29.424V29.696C81.9064 30.0373 82.013 30.2933 82.2264 30.464C82.4504 30.624 82.765 30.704 83.1704 30.704ZM89.7719 25.264H88.5399V23.648H89.7719V22.448C89.7719 21.712 89.9639 21.1467 90.3479 20.752C90.7425 20.3573 91.3185 20.16 92.0759 20.16H93.5319V21.792H91.8199V23.648H93.5319V25.264H91.8199V32H89.7719V25.264ZM97.5576 32C96.8536 32 96.315 31.8187 95.9416 31.456C95.579 31.0827 95.3976 30.5547 95.3976 29.872V25.28H94.1656V23.648H94.8056C95.115 23.648 95.323 23.5787 95.4296 23.44C95.547 23.2907 95.6056 23.072 95.6056 22.784V21.36H97.4456V23.648H99.1576V25.28H97.4456V30.368H99.0296V32H97.5576ZM107.078 32C106.63 32 106.273 31.872 106.006 31.616C105.75 31.3493 105.59 30.9973 105.526 30.56H105.43C105.291 31.104 105.009 31.5147 104.582 31.792C104.155 32.0587 103.627 32.192 102.998 32.192C102.145 32.192 101.489 31.968 101.03 31.52C100.571 31.072 100.342 30.4747 100.342 29.728C100.342 28.864 100.651 28.224 101.27 27.808C101.889 27.3813 102.769 27.168 103.91 27.168H105.334V26.56C105.334 26.0907 105.211 25.728 104.966 25.472C104.721 25.216 104.326 25.088 103.782 25.088C103.302 25.088 102.913 25.1947 102.614 25.408C102.326 25.6107 102.081 25.856 101.878 26.144L100.662 25.056C100.971 24.576 101.382 24.192 101.894 23.904C102.406 23.6053 103.083 23.456 103.926 23.456C105.057 23.456 105.915 23.712 106.502 24.224C107.089 24.736 107.382 25.472 107.382 26.432V30.368H108.214V32H107.078ZM103.686 30.704C104.145 30.704 104.534 30.6027 104.854 30.4C105.174 30.1973 105.334 29.8987 105.334 29.504V28.4H104.022C102.955 28.4 102.422 28.7413 102.422 29.424V29.696C102.422 30.0373 102.529 30.2933 102.742 30.464C102.966 30.624 103.281 30.704 103.686 30.704ZM111.92 32C111.216 32 110.698 31.824 110.368 31.472C110.037 31.12 109.872 30.624 109.872 29.984V20.16H111.92V30.368H113.024V32H111.92ZM117.951 32.192C117.332 32.192 116.777 32.0907 116.287 31.888C115.807 31.6747 115.396 31.3813 115.055 31.008C114.724 30.624 114.468 30.1653 114.287 29.632C114.105 29.088 114.015 28.48 114.015 27.808C114.015 27.1467 114.1 26.5493 114.271 26.016C114.452 25.4827 114.708 25.0293 115.039 24.656C115.369 24.272 115.775 23.9787 116.255 23.776C116.735 23.5627 117.279 23.456 117.887 23.456C118.537 23.456 119.103 23.568 119.583 23.792C120.063 24.016 120.457 24.32 120.767 24.704C121.076 25.088 121.305 25.536 121.455 26.048C121.615 26.5493 121.695 27.088 121.695 27.664V28.336H116.143V28.544C116.143 29.152 116.313 29.6427 116.655 30.016C116.996 30.3787 117.503 30.56 118.175 30.56C118.687 30.56 119.103 30.4533 119.423 30.24C119.753 30.0267 120.047 29.7547 120.303 29.424L121.407 30.656C121.065 31.136 120.596 31.5147 119.999 31.792C119.412 32.0587 118.729 32.192 117.951 32.192ZM117.919 24.992C117.375 24.992 116.943 25.1733 116.623 25.536C116.303 25.8987 116.143 26.368 116.143 26.944V27.072H119.567V26.928C119.567 26.352 119.423 25.888 119.135 25.536C118.857 25.1733 118.452 24.992 117.919 24.992ZM123.497 32V23.648H125.545V25.04H125.625C125.795 24.592 126.062 24.2187 126.424 23.92C126.798 23.6107 127.31 23.456 127.961 23.456C128.825 23.456 129.486 23.7387 129.945 24.304C130.403 24.8693 130.633 25.6747 130.633 26.72V32H128.585V26.928C128.585 26.3307 128.478 25.8827 128.265 25.584C128.051 25.2853 127.699 25.136 127.209 25.136C126.995 25.136 126.787 25.168 126.585 25.232C126.393 25.2853 126.217 25.3707 126.057 25.488C125.907 25.5947 125.785 25.7333 125.689 25.904C125.593 26.064 125.545 26.256 125.545 26.48V32H123.497Z" fill="#1A1A1A"/>
<path d="M17.488 45.832H21.232C21.9253 45.832 22.5547 45.9493 23.12 46.184C23.6853 46.4187 24.1653 46.7707 24.56 47.24C24.9653 47.6987 25.2747 48.28 25.488 48.984C25.7013 49.6773 25.808 50.488 25.808 51.416C25.808 52.344 25.7013 53.16 25.488 53.864C25.2747 54.5573 24.9653 55.1387 24.56 55.608C24.1653 56.0667 23.6853 56.4133 23.12 56.648C22.5547 56.8827 21.9253 57 21.232 57H17.488V45.832ZM21.232 55.816C21.6907 55.816 22.112 55.7413 22.496 55.592C22.88 55.432 23.2107 55.2027 23.488 54.904C23.7653 54.6053 23.9787 54.2427 24.128 53.816C24.288 53.3787 24.368 52.8827 24.368 52.328V50.504C24.368 49.9493 24.288 49.4587 24.128 49.032C23.9787 48.5947 23.7653 48.2267 23.488 47.928C23.2107 47.6293 22.88 47.4053 22.496 47.256C22.112 47.096 21.6907 47.016 21.232 47.016H18.832V55.816H21.232ZM31.1984 57.192C30.633 57.192 30.121 57.0907 29.6624 56.888C29.2144 56.6853 28.825 56.3973 28.4944 56.024C28.1744 55.64 27.9237 55.1867 27.7424 54.664C27.5717 54.1307 27.4864 53.5333 27.4864 52.872C27.4864 52.2213 27.5717 51.6293 27.7424 51.096C27.9237 50.5627 28.1744 50.1093 28.4944 49.736C28.825 49.352 29.2144 49.0587 29.6624 48.856C30.121 48.6533 30.633 48.552 31.1984 48.552C31.753 48.552 32.249 48.6533 32.6864 48.856C33.1237 49.0587 33.497 49.3413 33.8064 49.704C34.1157 50.056 34.3504 50.4773 34.5104 50.968C34.681 51.4587 34.7664 51.9973 34.7664 52.584V53.192H28.8304V53.576C28.8304 53.928 28.8837 54.2587 28.9904 54.568C29.1077 54.8667 29.2677 55.128 29.4704 55.352C29.6837 55.576 29.9397 55.752 30.2384 55.88C30.5477 56.008 30.8944 56.072 31.2784 56.072C31.801 56.072 32.2544 55.9493 32.6384 55.704C33.033 55.4587 33.337 55.1067 33.5504 54.648L34.4624 55.304C34.1957 55.8693 33.7797 56.328 33.2144 56.68C32.649 57.0213 31.977 57.192 31.1984 57.192ZM31.1984 49.624C30.8464 49.624 30.5264 49.688 30.2384 49.816C29.9504 49.9333 29.6997 50.104 29.4864 50.328C29.2837 50.552 29.1237 50.8187 29.0064 51.128C28.889 51.4267 28.8304 51.7573 28.8304 52.12V52.232H33.3904V52.056C33.3904 51.32 33.1877 50.7333 32.7824 50.296C32.3877 49.848 31.8597 49.624 31.1984 49.624ZM36.8756 57V48.744H38.1556V50.264H38.2356C38.385 49.8693 38.6516 49.5173 39.0356 49.208C39.4196 48.8987 39.9476 48.744 40.6196 48.744H41.1156V50.024H40.3636C39.6703 50.024 39.1263 50.1573 38.7316 50.424C38.3476 50.68 38.1556 51.0053 38.1556 51.4V57H36.8756ZM49.6359 57.192C49.0705 57.192 48.5585 57.0907 48.0999 56.888C47.6519 56.6853 47.2625 56.3973 46.9319 56.024C46.6119 55.64 46.3612 55.1867 46.1799 54.664C46.0092 54.1307 45.9239 53.5333 45.9239 52.872C45.9239 52.2213 46.0092 51.6293 46.1799 51.096C46.3612 50.5627 46.6119 50.1093 46.9319 49.736C47.2625 49.352 47.6519 49.0587 48.0999 48.856C48.5585 48.6533 49.0705 48.552 49.6359 48.552C50.1905 48.552 50.6865 48.6533 51.1239 48.856C51.5612 49.0587 51.9345 49.3413 52.2439 49.704C52.5532 50.056 52.7879 50.4773 52.9479 50.968C53.1185 51.4587 53.2039 51.9973 53.2039 52.584V53.192H47.2679V53.576C47.2679 53.928 47.3212 54.2587 47.4279 54.568C47.5452 54.8667 47.7052 55.128 47.9079 55.352C48.1212 55.576 48.3772 55.752 48.6759 55.88C48.9852 56.008 49.3319 56.072 49.7159 56.072C50.2385 56.072 50.6919 55.9493 51.0759 55.704C51.4705 55.4587 51.7745 55.1067 51.9879 54.648L52.8999 55.304C52.6332 55.8693 52.2172 56.328 51.6519 56.68C51.0865 57.0213 50.4145 57.192 49.6359 57.192ZM49.6359 49.624C49.2839 49.624 48.9639 49.688 48.6759 49.816C48.3879 49.9333 48.1372 50.104 47.9239 50.328C47.7212 50.552 47.5612 50.8187 47.4439 51.128C47.3265 51.4267 47.2679 51.7573 47.2679 52.12V52.232H51.8279V52.056C51.8279 51.32 51.6252 50.7333 51.2199 50.296C50.8252 49.848 50.2972 49.624 49.6359 49.624ZM55.3131 57V48.744H56.5931V50.264H56.6731C56.8225 49.8693 57.0891 49.5173 57.4731 49.208C57.8571 48.8987 58.3851 48.744 59.0571 48.744H59.5531V50.024H58.8011C58.1078 50.024 57.5638 50.1573 57.1691 50.424C56.7851 50.68 56.5931 51.0053 56.5931 51.4V57H55.3131ZM64.9694 45.16H66.2494V52.664H66.3134L67.5774 51.256L69.9134 48.744H71.4654L68.4094 52.008L71.7694 57H70.2174L67.4814 52.792L66.2494 54.056V57H64.9694V45.16ZM78.3386 55.656H78.2746C78.1893 55.848 78.0826 56.04 77.9546 56.232C77.8373 56.4133 77.688 56.5787 77.5066 56.728C77.3253 56.8667 77.1066 56.9787 76.8506 57.064C76.5946 57.1493 76.296 57.192 75.9546 57.192C75.1013 57.192 74.424 56.92 73.9226 56.376C73.4213 55.8213 73.1706 55.0427 73.1706 54.04V48.744H74.4506V53.816C74.4506 55.2987 75.08 56.04 76.3386 56.04C76.5946 56.04 76.84 56.008 77.0746 55.944C77.32 55.88 77.5333 55.784 77.7146 55.656C77.9066 55.528 78.056 55.368 78.1626 55.176C78.28 54.9733 78.3386 54.7333 78.3386 54.456V48.744H79.6186V57H78.3386V55.656ZM82.3444 57V48.744H83.6244V50.088H83.6884C83.891 49.6187 84.1737 49.2453 84.5364 48.968C84.9097 48.6907 85.4057 48.552 86.0244 48.552C86.8777 48.552 87.5497 48.8293 88.0404 49.384C88.5417 49.928 88.7924 50.7013 88.7924 51.704V57H87.5124V51.928C87.5124 50.4453 86.8884 49.704 85.6404 49.704C85.3844 49.704 85.1337 49.736 84.8884 49.8C84.6537 49.864 84.4404 49.96 84.2484 50.088C84.0564 50.216 83.9017 50.3813 83.7844 50.584C83.6777 50.776 83.6244 51.0053 83.6244 51.272V57H82.3444ZM96.5794 57C96.1314 57 95.79 56.8773 95.5554 56.632C95.3314 56.376 95.2194 56.056 95.2194 55.672V45.16H96.4994V55.88H97.7154V57H96.5794ZM102.683 57.192C102.117 57.192 101.605 57.0907 101.147 56.888C100.699 56.6853 100.309 56.3973 99.9788 56.024C99.6588 55.64 99.4081 55.1867 99.2268 54.664C99.0561 54.1307 98.9708 53.5333 98.9708 52.872C98.9708 52.2213 99.0561 51.6293 99.2268 51.096C99.4081 50.5627 99.6588 50.1093 99.9788 49.736C100.309 49.352 100.699 49.0587 101.147 48.856C101.605 48.6533 102.117 48.552 102.683 48.552C103.237 48.552 103.733 48.6533 104.171 48.856C104.608 49.0587 104.981 49.3413 105.291 49.704C105.6 50.056 105.835 50.4773 105.995 50.968C106.165 51.4587 106.251 51.9973 106.251 52.584V53.192H100.315V53.576C100.315 53.928 100.368 54.2587 100.475 54.568C100.592 54.8667 100.752 55.128 100.955 55.352C101.168 55.576 101.424 55.752 101.723 55.88C102.032 56.008 102.379 56.072 102.763 56.072C103.285 56.072 103.739 55.9493 104.123 55.704C104.517 55.4587 104.821 55.1067 105.035 54.648L105.947 55.304C105.68 55.8693 105.264 56.328 104.699 56.68C104.133 57.0213 103.461 57.192 102.683 57.192ZM102.683 49.624C102.331 49.624 102.011 49.688 101.723 49.816C101.435 49.9333 101.184 50.104 100.971 50.328C100.768 50.552 100.608 50.8187 100.491 51.128C100.373 51.4267 100.315 51.7573 100.315 52.12V52.232H104.875V52.056C104.875 51.32 104.672 50.7333 104.267 50.296C103.872 49.848 103.344 49.624 102.683 49.624ZM113.64 55.656H113.576C113.075 56.68 112.269 57.192 111.16 57.192C110.648 57.192 110.184 57.0907 109.768 56.888C109.352 56.6853 108.995 56.3973 108.696 56.024C108.408 55.6507 108.184 55.1973 108.024 54.664C107.875 54.1307 107.8 53.5333 107.8 52.872C107.8 52.2107 107.875 51.6133 108.024 51.08C108.184 50.5467 108.408 50.0933 108.696 49.72C108.995 49.3467 109.352 49.0587 109.768 48.856C110.184 48.6533 110.648 48.552 111.16 48.552C111.736 48.552 112.227 48.68 112.632 48.936C113.048 49.1813 113.363 49.5653 113.576 50.088H113.64V45.16H114.92V57H113.64V55.656ZM111.512 56.04C111.8 56.04 112.072 56.0027 112.328 55.928C112.595 55.8533 112.824 55.7467 113.016 55.608C113.208 55.4587 113.357 55.2827 113.464 55.08C113.581 54.8667 113.64 54.6267 113.64 54.36V51.288C113.64 51.064 113.581 50.856 113.464 50.664C113.357 50.4613 113.208 50.2907 113.016 50.152C112.824 50.0133 112.595 49.9067 112.328 49.832C112.072 49.7467 111.8 49.704 111.512 49.704C110.787 49.704 110.216 49.9333 109.8 50.392C109.384 50.84 109.176 51.432 109.176 52.168V53.576C109.176 54.312 109.384 54.9093 109.8 55.368C110.216 55.816 110.787 56.04 111.512 56.04ZM118.281 46.808C118.004 46.808 117.801 46.744 117.673 46.616C117.556 46.4773 117.497 46.3013 117.497 46.088V45.88C117.497 45.6667 117.556 45.496 117.673 45.368C117.801 45.2293 118.004 45.16 118.281 45.16C118.559 45.16 118.756 45.2293 118.873 45.368C119.001 45.496 119.065 45.6667 119.065 45.88V46.088C119.065 46.3013 119.001 46.4773 118.873 46.616C118.756 46.744 118.559 46.808 118.281 46.808ZM117.641 48.744H118.921V57H117.641V48.744ZM128.601 57.912C128.601 58.7653 128.265 59.3893 127.593 59.784C126.932 60.1893 125.935 60.392 124.601 60.392C123.311 60.392 122.383 60.216 121.817 59.864C121.252 59.512 120.969 59.0107 120.969 58.36C120.969 57.912 121.087 57.56 121.321 57.304C121.556 57.0587 121.876 56.8773 122.281 56.76V56.584C121.791 56.3493 121.545 55.9653 121.545 55.432C121.545 55.016 121.679 54.7013 121.945 54.488C122.212 54.264 122.553 54.0987 122.969 53.992V53.928C122.479 53.6933 122.095 53.3573 121.817 52.92C121.551 52.4827 121.417 51.976 121.417 51.4C121.417 50.984 121.492 50.6 121.641 50.248C121.791 49.896 121.999 49.5973 122.265 49.352C122.543 49.096 122.868 48.8987 123.241 48.76C123.625 48.6213 124.052 48.552 124.521 48.552C125.108 48.552 125.631 48.6587 126.089 48.872V48.728C126.089 48.408 126.164 48.1467 126.313 47.944C126.463 47.7307 126.708 47.624 127.049 47.624H128.281V48.744H126.713V49.272C127.012 49.528 127.241 49.8373 127.401 50.2C127.572 50.552 127.657 50.952 127.657 51.4C127.657 51.816 127.583 52.2 127.433 52.552C127.284 52.904 127.071 53.208 126.793 53.464C126.527 53.7093 126.201 53.9013 125.817 54.04C125.433 54.1787 125.007 54.248 124.537 54.248C124.271 54.248 124.004 54.2213 123.737 54.168C123.46 54.2427 123.209 54.3547 122.985 54.504C122.761 54.6427 122.649 54.84 122.649 55.096C122.649 55.3413 122.767 55.5067 123.001 55.592C123.236 55.6773 123.54 55.72 123.913 55.72H125.673C126.697 55.72 127.439 55.9173 127.897 56.312C128.367 56.696 128.601 57.2293 128.601 57.912ZM127.401 58.008C127.401 57.6773 127.273 57.4107 127.017 57.208C126.772 57.016 126.329 56.92 125.689 56.92H122.937C122.425 57.1547 122.169 57.528 122.169 58.04C122.169 58.4027 122.303 58.712 122.569 58.968C122.847 59.224 123.311 59.352 123.961 59.352H125.145C125.86 59.352 126.415 59.24 126.809 59.016C127.204 58.792 127.401 58.456 127.401 58.008ZM124.537 53.224C125.081 53.224 125.513 53.096 125.833 52.84C126.153 52.5733 126.313 52.168 126.313 51.624V51.176C126.313 50.632 126.153 50.232 125.833 49.976C125.513 49.7093 125.081 49.576 124.537 49.576C123.993 49.576 123.561 49.7093 123.241 49.976C122.921 50.232 122.761 50.632 122.761 51.176V51.624C122.761 52.168 122.921 52.5733 123.241 52.84C123.561 53.096 123.993 53.224 124.537 53.224ZM133.105 57.192C132.539 57.192 132.027 57.0907 131.569 56.888C131.121 56.6853 130.731 56.3973 130.401 56.024C130.081 55.64 129.83 55.1867 129.649 54.664C129.478 54.1307 129.393 53.5333 129.393 52.872C129.393 52.2213 129.478 51.6293 129.649 51.096C129.83 50.5627 130.081 50.1093 130.401 49.736C130.731 49.352 131.121 49.0587 131.569 48.856C132.027 48.6533 132.539 48.552 133.105 48.552C133.659 48.552 134.155 48.6533 134.593 48.856C135.03 49.0587 135.403 49.3413 135.713 49.704C136.022 50.056 136.257 50.4773 136.417 50.968C136.587 51.4587 136.673 51.9973 136.673 52.584V53.192H130.737V53.576C130.737 53.928 130.79 54.2587 130.897 54.568C131.014 54.8667 131.174 55.128 131.377 55.352C131.59 55.576 131.846 55.752 132.145 55.88C132.454 56.008 132.801 56.072 133.185 56.072C133.707 56.072 134.161 55.9493 134.545 55.704C134.939 55.4587 135.243 55.1067 135.457 54.648L136.369 55.304C136.102 55.8693 135.686 56.328 135.121 56.68C134.555 57.0213 133.883 57.192 133.105 57.192ZM133.105 49.624C132.753 49.624 132.433 49.688 132.145 49.816C131.857 49.9333 131.606 50.104 131.393 50.328C131.19 50.552 131.03 50.8187 130.913 51.128C130.795 51.4267 130.737 51.7573 130.737 52.12V52.232H135.297V52.056C135.297 51.32 135.094 50.7333 134.689 50.296C134.294 49.848 133.766 49.624 133.105 49.624ZM147.843 55.656H147.779C147.278 56.68 146.472 57.192 145.363 57.192C144.851 57.192 144.387 57.0907 143.971 56.888C143.555 56.6853 143.198 56.3973 142.899 56.024C142.611 55.6507 142.387 55.1973 142.227 54.664C142.078 54.1307 142.003 53.5333 142.003 52.872C142.003 52.2107 142.078 51.6133 142.227 51.08C142.387 50.5467 142.611 50.0933 142.899 49.72C143.198 49.3467 143.555 49.0587 143.971 48.856C144.387 48.6533 144.851 48.552 145.363 48.552C145.939 48.552 146.43 48.68 146.835 48.936C147.251 49.1813 147.566 49.5653 147.779 50.088H147.843V45.16H149.123V57H147.843V55.656ZM145.715 56.04C146.003 56.04 146.275 56.0027 146.531 55.928C146.798 55.8533 147.027 55.7467 147.219 55.608C147.411 55.4587 147.56 55.2827 147.667 55.08C147.784 54.8667 147.843 54.6267 147.843 54.36V51.288C147.843 51.064 147.784 50.856 147.667 50.664C147.56 50.4613 147.411 50.2907 147.219 50.152C147.027 50.0133 146.798 49.9067 146.531 49.832C146.275 49.7467 146.003 49.704 145.715 49.704C144.99 49.704 144.419 49.9333 144.003 50.392C143.587 50.84 143.379 51.432 143.379 52.168V53.576C143.379 54.312 143.587 54.9093 144.003 55.368C144.419 55.816 144.99 56.04 145.715 56.04ZM157.844 57C157.364 57 157.018 56.872 156.804 56.616C156.602 56.36 156.474 56.04 156.42 55.656H156.34C156.159 56.168 155.86 56.552 155.444 56.808C155.028 57.064 154.532 57.192 153.956 57.192C153.082 57.192 152.399 56.968 151.908 56.52C151.428 56.072 151.188 55.464 151.188 54.696C151.188 53.9173 151.471 53.32 152.036 52.904C152.612 52.488 153.503 52.28 154.708 52.28H156.34V51.464C156.34 50.8773 156.18 50.4293 155.86 50.12C155.54 49.8107 155.05 49.656 154.388 49.656C153.887 49.656 153.466 49.768 153.124 49.992C152.794 50.216 152.516 50.5147 152.292 50.888L151.524 50.168C151.748 49.72 152.106 49.3413 152.596 49.032C153.087 48.712 153.706 48.552 154.452 48.552C155.455 48.552 156.234 48.7973 156.788 49.288C157.343 49.7787 157.62 50.4613 157.62 51.336V55.88H158.564V57H157.844ZM154.164 56.104C154.484 56.104 154.778 56.0667 155.044 55.992C155.311 55.9173 155.54 55.8107 155.732 55.672C155.924 55.5333 156.074 55.3733 156.18 55.192C156.287 55.0107 156.34 54.8133 156.34 54.6V53.24H154.644C153.908 53.24 153.37 53.3467 153.028 53.56C152.698 53.7733 152.532 54.0827 152.532 54.488V54.824C152.532 55.2293 152.676 55.544 152.964 55.768C153.263 55.992 153.663 56.104 154.164 56.104ZM162.215 57C161.767 57 161.426 56.8773 161.191 56.632C160.967 56.376 160.855 56.0453 160.855 55.64V49.864H159.495V48.744H160.263C160.541 48.744 160.727 48.6907 160.823 48.584C160.93 48.4667 160.983 48.2693 160.983 47.992V46.456H162.135V48.744H163.943V49.864H162.135V55.88H163.815V57H162.215ZM169.058 57.192C168.503 57.192 167.997 57.0907 167.538 56.888C167.079 56.6853 166.685 56.3973 166.354 56.024C166.034 55.64 165.783 55.1867 165.602 54.664C165.421 54.1307 165.33 53.5333 165.33 52.872C165.33 52.2213 165.421 51.6293 165.602 51.096C165.783 50.5627 166.034 50.1093 166.354 49.736C166.685 49.352 167.079 49.0587 167.538 48.856C167.997 48.6533 168.503 48.552 169.058 48.552C169.613 48.552 170.114 48.6533 170.562 48.856C171.021 49.0587 171.415 49.352 171.746 49.736C172.077 50.1093 172.333 50.5627 172.514 51.096C172.695 51.6293 172.786 52.2213 172.786 52.872C172.786 53.5333 172.695 54.1307 172.514 54.664C172.333 55.1867 172.077 55.64 171.746 56.024C171.415 56.3973 171.021 56.6853 170.562 56.888C170.114 57.0907 169.613 57.192 169.058 57.192ZM169.058 56.056C169.751 56.056 170.317 55.8427 170.754 55.416C171.191 54.9893 171.41 54.3387 171.41 53.464V52.28C171.41 51.4053 171.191 50.7547 170.754 50.328C170.317 49.9013 169.751 49.688 169.058 49.688C168.365 49.688 167.799 49.9013 167.362 50.328C166.925 50.7547 166.706 51.4053 166.706 52.28V53.464C166.706 54.3387 166.925 54.9893 167.362 55.416C167.799 55.8427 168.365 56.056 169.058 56.056ZM177.995 57.192C177.43 57.192 176.918 57.0907 176.459 56.888C176.011 56.6853 175.622 56.3973 175.291 56.024C174.971 55.64 174.721 55.1867 174.539 54.664C174.369 54.1307 174.283 53.5333 174.283 52.872C174.283 52.2213 174.369 51.6293 174.539 51.096C174.721 50.5627 174.971 50.1093 175.291 49.736C175.622 49.352 176.011 49.0587 176.459 48.856C176.918 48.6533 177.43 48.552 177.995 48.552C178.55 48.552 179.046 48.6533 179.483 48.856C179.921 49.0587 180.294 49.3413 180.603 49.704C180.913 50.056 181.147 50.4773 181.307 50.968C181.478 51.4587 181.563 51.9973 181.563 52.584V53.192H175.627V53.576C175.627 53.928 175.681 54.2587 175.787 54.568C175.905 54.8667 176.065 55.128 176.267 55.352C176.481 55.576 176.737 55.752 177.035 55.88C177.345 56.008 177.691 56.072 178.075 56.072C178.598 56.072 179.051 55.9493 179.435 55.704C179.83 55.4587 180.134 55.1067 180.347 54.648L181.259 55.304C180.993 55.8693 180.577 56.328 180.011 56.68C179.446 57.0213 178.774 57.192 177.995 57.192ZM177.995 49.624C177.643 49.624 177.323 49.688 177.035 49.816C176.747 49.9333 176.497 50.104 176.283 50.328C176.081 50.552 175.921 50.8187 175.803 51.128C175.686 51.4267 175.627 51.7573 175.627 52.12V52.232H180.187V52.056C180.187 51.32 179.985 50.7333 179.579 50.296C179.185 49.848 178.657 49.624 177.995 49.624ZM183.673 57V48.744H184.953V50.264H185.033C185.182 49.8693 185.449 49.5173 185.833 49.208C186.217 48.8987 186.745 48.744 187.417 48.744H187.913V50.024H187.161C186.467 50.024 185.923 50.1573 185.529 50.424C185.145 50.68 184.953 51.0053 184.953 51.4V57H183.673ZM193.969 46.808C193.691 46.808 193.489 46.744 193.361 46.616C193.243 46.4773 193.185 46.3013 193.185 46.088V45.88C193.185 45.6667 193.243 45.496 193.361 45.368C193.489 45.2293 193.691 45.16 193.969 45.16C194.246 45.16 194.443 45.2293 194.561 45.368C194.689 45.496 194.753 45.6667 194.753 45.88V46.088C194.753 46.3013 194.689 46.4773 194.561 46.616C194.443 46.744 194.246 46.808 193.969 46.808ZM193.329 48.744H194.609V57H193.329V48.744ZM206.198 55.656H206.134C206.049 55.848 205.942 56.04 205.814 56.232C205.697 56.4133 205.547 56.5787 205.366 56.728C205.185 56.8667 204.966 56.9787 204.71 57.064C204.454 57.1493 204.155 57.192 203.814 57.192C202.961 57.192 202.283 56.92 201.782 56.376C201.281 55.8213 201.03 55.0427 201.03 54.04V48.744H202.31V53.816C202.31 55.2987 202.939 56.04 204.198 56.04C204.454 56.04 204.699 56.008 204.934 55.944C205.179 55.88 205.393 55.784 205.574 55.656C205.766 55.528 205.915 55.368 206.022 55.176C206.139 54.9733 206.198 54.7333 206.198 54.456V48.744H207.478V57H206.198V55.656ZM217.164 57.912C217.164 58.7653 216.828 59.3893 216.156 59.784C215.494 60.1893 214.497 60.392 213.164 60.392C211.873 60.392 210.945 60.216 210.38 59.864C209.814 59.512 209.532 59.0107 209.532 58.36C209.532 57.912 209.649 57.56 209.884 57.304C210.118 57.0587 210.438 56.8773 210.844 56.76V56.584C210.353 56.3493 210.108 55.9653 210.108 55.432C210.108 55.016 210.241 54.7013 210.508 54.488C210.774 54.264 211.116 54.0987 211.532 53.992V53.928C211.041 53.6933 210.657 53.3573 210.38 52.92C210.113 52.4827 209.98 51.976 209.98 51.4C209.98 50.984 210.054 50.6 210.204 50.248C210.353 49.896 210.561 49.5973 210.828 49.352C211.105 49.096 211.43 48.8987 211.804 48.76C212.188 48.6213 212.614 48.552 213.084 48.552C213.67 48.552 214.193 48.6587 214.652 48.872V48.728C214.652 48.408 214.726 48.1467 214.876 47.944C215.025 47.7307 215.27 47.624 215.612 47.624H216.844V48.744H215.276V49.272C215.574 49.528 215.804 49.8373 215.964 50.2C216.134 50.552 216.22 50.952 216.22 51.4C216.22 51.816 216.145 52.2 215.996 52.552C215.846 52.904 215.633 53.208 215.356 53.464C215.089 53.7093 214.764 53.9013 214.38 54.04C213.996 54.1787 213.569 54.248 213.1 54.248C212.833 54.248 212.566 54.2213 212.3 54.168C212.022 54.2427 211.772 54.3547 211.548 54.504C211.324 54.6427 211.212 54.84 211.212 55.096C211.212 55.3413 211.329 55.5067 211.564 55.592C211.798 55.6773 212.102 55.72 212.476 55.72H214.236C215.26 55.72 216.001 55.9173 216.46 56.312C216.929 56.696 217.164 57.2293 217.164 57.912ZM215.964 58.008C215.964 57.6773 215.836 57.4107 215.58 57.208C215.334 57.016 214.892 56.92 214.252 56.92H211.5C210.988 57.1547 210.732 57.528 210.732 58.04C210.732 58.4027 210.865 58.712 211.132 58.968C211.409 59.224 211.873 59.352 212.524 59.352H213.708C214.422 59.352 214.977 59.24 215.372 59.016C215.766 58.792 215.964 58.456 215.964 58.008ZM213.1 53.224C213.644 53.224 214.076 53.096 214.396 52.84C214.716 52.5733 214.876 52.168 214.876 51.624V51.176C214.876 50.632 214.716 50.232 214.396 49.976C214.076 49.7093 213.644 49.576 213.1 49.576C212.556 49.576 212.124 49.7093 211.804 49.976C211.484 50.232 211.324 50.632 211.324 51.176V51.624C211.324 52.168 211.484 52.5733 211.804 52.84C212.124 53.096 212.556 53.224 213.1 53.224ZM221.667 57.192C221.102 57.192 220.59 57.0907 220.131 56.888C219.683 56.6853 219.294 56.3973 218.963 56.024C218.643 55.64 218.392 55.1867 218.211 54.664C218.04 54.1307 217.955 53.5333 217.955 52.872C217.955 52.2213 218.04 51.6293 218.211 51.096C218.392 50.5627 218.643 50.1093 218.963 49.736C219.294 49.352 219.683 49.0587 220.131 48.856C220.59 48.6533 221.102 48.552 221.667 48.552C222.222 48.552 222.718 48.6533 223.155 48.856C223.592 49.0587 223.966 49.3413 224.275 49.704C224.584 50.056 224.819 50.4773 224.979 50.968C225.15 51.4587 225.235 51.9973 225.235 52.584V53.192H219.299V53.576C219.299 53.928 219.352 54.2587 219.459 54.568C219.576 54.8667 219.736 55.128 219.939 55.352C220.152 55.576 220.408 55.752 220.707 55.88C221.016 56.008 221.363 56.072 221.747 56.072C222.27 56.072 222.723 55.9493 223.107 55.704C223.502 55.4587 223.806 55.1067 224.019 54.648L224.931 55.304C224.664 55.8693 224.248 56.328 223.683 56.68C223.118 57.0213 222.446 57.192 221.667 57.192ZM221.667 49.624C221.315 49.624 220.995 49.688 220.707 49.816C220.419 49.9333 220.168 50.104 219.955 50.328C219.752 50.552 219.592 50.8187 219.475 51.128C219.358 51.4267 219.299 51.7573 219.299 52.12V52.232H223.859V52.056C223.859 51.32 223.656 50.7333 223.251 50.296C222.856 49.848 222.328 49.624 221.667 49.624ZM231.174 57V55.816H234.294V46.824H234.182L231.366 49.448L230.582 48.6L233.542 45.832H235.638V55.816H238.518V57H231.174ZM247.327 47.016H242.431L242.111 51.272H242.223C242.49 50.8987 242.789 50.6 243.119 50.376C243.461 50.152 243.925 50.04 244.511 50.04C244.991 50.04 245.434 50.12 245.839 50.28C246.245 50.44 246.597 50.6693 246.895 50.968C247.194 51.256 247.423 51.6133 247.583 52.04C247.754 52.4667 247.839 52.952 247.839 53.496C247.839 54.04 247.754 54.5413 247.583 55C247.413 55.448 247.162 55.8373 246.831 56.168C246.511 56.488 246.117 56.7387 245.647 56.92C245.189 57.1013 244.666 57.192 244.079 57.192C243.61 57.192 243.194 57.1387 242.831 57.032C242.479 56.9253 242.165 56.7813 241.887 56.6C241.61 56.4187 241.365 56.216 241.151 55.992C240.949 55.768 240.762 55.5333 240.591 55.288L241.599 54.52C241.738 54.744 241.882 54.9467 242.031 55.128C242.191 55.3093 242.362 55.464 242.543 55.592C242.735 55.72 242.954 55.8213 243.199 55.896C243.445 55.96 243.738 55.992 244.079 55.992C244.847 55.992 245.429 55.7893 245.823 55.384C246.218 54.9787 246.415 54.408 246.415 53.672V53.512C246.415 52.776 246.218 52.2053 245.823 51.8C245.429 51.3947 244.847 51.192 244.079 51.192C243.567 51.192 243.162 51.288 242.863 51.48C242.575 51.6613 242.314 51.88 242.079 52.136L240.943 51.976L241.343 45.832H247.327V47.016Z" fill="#707070"/>
<rect x="16.5" y="101.5" width="52" height="39" rx="3.5" stroke="#707070"/>
<path d="M33.408 126V124.816H36.528V115.824H36.416L33.6 118.448L32.816 117.6L35.776 114.832H37.872V124.816H40.752V126H33.408ZM43.0018 126V124.816H46.1218V115.824H46.0098L43.1938 118.448L42.4098 117.6L45.3698 114.832H47.4658V124.816H50.3458V126H43.0018Z" fill="#1A1A1A"/>
<path d="M17.488 75.832H21.232C21.9253 75.832 22.5547 75.9493 23.12 76.184C23.6853 76.4187 24.1653 76.7707 24.56 77.24C24.9653 77.6987 25.2747 78.28 25.488 78.984C25.7013 79.6773 25.808 80.488 25.808 81.416C25.808 82.344 25.7013 83.16 25.488 83.864C25.2747 84.5573 24.9653 85.1387 24.56 85.608C24.1653 86.0667 23.6853 86.4133 23.12 86.648C22.5547 86.8827 21.9253 87 21.232 87H17.488V75.832ZM21.232 85.816C21.6907 85.816 22.112 85.7413 22.496 85.592C22.88 85.432 23.2107 85.2027 23.488 84.904C23.7653 84.6053 23.9787 84.2427 24.128 83.816C24.288 83.3787 24.368 82.8827 24.368 82.328V80.504C24.368 79.9493 24.288 79.4587 24.128 79.032C23.9787 78.5947 23.7653 78.2267 23.488 77.928C23.2107 77.6293 22.88 77.4053 22.496 77.256C22.112 77.096 21.6907 77.016 21.232 77.016H18.832V85.816H21.232ZM34.0944 87C33.6144 87 33.2677 86.872 33.0544 86.616C32.8517 86.36 32.7237 86.04 32.6704 85.656H32.5904C32.409 86.168 32.1104 86.552 31.6944 86.808C31.2784 87.064 30.7824 87.192 30.2064 87.192C29.3317 87.192 28.649 86.968 28.1584 86.52C27.6784 86.072 27.4384 85.464 27.4384 84.696C27.4384 83.9173 27.721 83.32 28.2864 82.904C28.8624 82.488 29.753 82.28 30.9584 82.28H32.5904V81.464C32.5904 80.8773 32.4304 80.4293 32.1104 80.12C31.7904 79.8107 31.2997 79.656 30.6384 79.656C30.137 79.656 29.7157 79.768 29.3744 79.992C29.0437 80.216 28.7664 80.5147 28.5424 80.888L27.7744 80.168C27.9984 79.72 28.3557 79.3413 28.8464 79.032C29.337 78.712 29.9557 78.552 30.7024 78.552C31.705 78.552 32.4837 78.7973 33.0384 79.288C33.593 79.7787 33.8704 80.4613 33.8704 81.336V85.88H34.8144V87H34.0944ZM30.4144 86.104C30.7344 86.104 31.0277 86.0667 31.2944 85.992C31.561 85.9173 31.7904 85.8107 31.9824 85.672C32.1744 85.5333 32.3237 85.3733 32.4304 85.192C32.537 85.0107 32.5904 84.8133 32.5904 84.6V83.24H30.8944C30.1584 83.24 29.6197 83.3467 29.2784 83.56C28.9477 83.7733 28.7824 84.0827 28.7824 84.488V84.824C28.7824 85.2293 28.9264 85.544 29.2144 85.768C29.513 85.992 29.913 86.104 30.4144 86.104ZM43.6013 87.912C43.6013 88.7653 43.2653 89.3893 42.5933 89.784C41.9319 90.1893 40.9346 90.392 39.6013 90.392C38.3106 90.392 37.3826 90.216 36.8173 89.864C36.2519 89.512 35.9693 89.0107 35.9693 88.36C35.9693 87.912 36.0866 87.56 36.3213 87.304C36.5559 87.0587 36.8759 86.8773 37.2812 86.76V86.584C36.7906 86.3493 36.5453 85.9653 36.5453 85.432C36.5453 85.016 36.6786 84.7013 36.9453 84.488C37.2119 84.264 37.5533 84.0987 37.9693 83.992V83.928C37.4786 83.6933 37.0946 83.3573 36.8173 82.92C36.5506 82.4827 36.4173 81.976 36.4173 81.4C36.4173 80.984 36.4919 80.6 36.6413 80.248C36.7906 79.896 36.9986 79.5973 37.2653 79.352C37.5426 79.096 37.8679 78.8987 38.2413 78.76C38.6253 78.6213 39.0519 78.552 39.5213 78.552C40.1079 78.552 40.6306 78.6587 41.0893 78.872V78.728C41.0893 78.408 41.1639 78.1467 41.3133 77.944C41.4626 77.7307 41.7079 77.624 42.0493 77.624H43.2812V78.744H41.7133V79.272C42.0119 79.528 42.2413 79.8373 42.4013 80.2C42.5719 80.552 42.6573 80.952 42.6573 81.4C42.6573 81.816 42.5826 82.2 42.4333 82.552C42.2839 82.904 42.0706 83.208 41.7933 83.464C41.5266 83.7093 41.2013 83.9013 40.8173 84.04C40.4333 84.1787 40.0066 84.248 39.5373 84.248C39.2706 84.248 39.0039 84.2213 38.7373 84.168C38.4599 84.2427 38.2093 84.3547 37.9853 84.504C37.7613 84.6427 37.6493 84.84 37.6493 85.096C37.6493 85.3413 37.7666 85.5067 38.0013 85.592C38.2359 85.6773 38.5399 85.72 38.9133 85.72H40.6733C41.6973 85.72 42.4386 85.9173 42.8973 86.312C43.3666 86.696 43.6013 87.2293 43.6013 87.912ZM42.4013 88.008C42.4013 87.6773 42.2733 87.4107 42.0173 87.208C41.7719 87.016 41.3293 86.92 40.6893 86.92H37.9373C37.4253 87.1547 37.1693 87.528 37.1693 88.04C37.1693 88.4027 37.3026 88.712 37.5693 88.968C37.8466 89.224 38.3106 89.352 38.9613 89.352H40.1453C40.8599 89.352 41.4146 89.24 41.8093 89.016C42.2039 88.792 42.4013 88.456 42.4013 88.008ZM39.5373 83.224C40.0813 83.224 40.5133 83.096 40.8333 82.84C41.1533 82.5733 41.3133 82.168 41.3133 81.624V81.176C41.3133 80.632 41.1533 80.232 40.8333 79.976C40.5133 79.7093 40.0813 79.576 39.5373 79.576C38.9933 79.576 38.5613 79.7093 38.2413 79.976C37.9213 80.232 37.7613 80.632 37.7613 81.176V81.624C37.7613 82.168 37.9213 82.5733 38.2413 82.84C38.5613 83.096 38.9933 83.224 39.5373 83.224Z" fill="#1A1A1A"/>
<rect x="85.5" y="101.5" width="52" height="39" rx="3.5" stroke="#707070"/>
<path d="M105.8 126.192C104.467 126.192 103.491 125.685 102.872 124.672C102.264 123.659 101.96 122.24 101.96 120.416C101.96 118.592 102.264 117.173 102.872 116.16C103.491 115.147 104.467 114.64 105.8 114.64C107.133 114.64 108.104 115.147 108.712 116.16C109.331 117.173 109.64 118.592 109.64 120.416C109.64 122.24 109.331 123.659 108.712 124.672C108.104 125.685 107.133 126.192 105.8 126.192ZM105.8 125.024C106.237 125.024 106.611 124.933 106.92 124.752C107.229 124.571 107.48 124.315 107.672 123.984C107.864 123.653 108.003 123.264 108.088 122.816C108.184 122.368 108.232 121.872 108.232 121.328V119.504C108.232 118.96 108.184 118.464 108.088 118.016C108.003 117.568 107.864 117.179 107.672 116.848C107.48 116.517 107.229 116.261 106.92 116.08C106.611 115.899 106.237 115.808 105.8 115.808C105.363 115.808 104.989 115.899 104.68 116.08C104.371 116.261 104.12 116.517 103.928 116.848C103.736 117.179 103.592 117.568 103.496 118.016C103.411 118.464 103.368 118.96 103.368 119.504V121.328C103.368 121.872 103.411 122.368 103.496 122.816C103.592 123.264 103.736 123.653 103.928 123.984C104.12 124.315 104.371 124.571 104.68 124.752C104.989 124.933 105.363 125.024 105.8 125.024ZM114.77 119.568C115.527 119.568 116.092 119.397 116.466 119.056C116.85 118.704 117.042 118.256 117.042 117.712V117.6C117.042 117.013 116.855 116.576 116.482 116.288C116.119 115.989 115.639 115.84 115.042 115.84C114.466 115.84 113.996 115.968 113.634 116.224C113.271 116.469 112.972 116.805 112.738 117.232L111.746 116.464C111.884 116.24 112.05 116.021 112.242 115.808C112.444 115.584 112.679 115.387 112.946 115.216C113.212 115.045 113.522 114.907 113.874 114.8C114.226 114.693 114.626 114.64 115.074 114.64C115.543 114.64 115.986 114.704 116.402 114.832C116.818 114.949 117.175 115.131 117.474 115.376C117.783 115.611 118.023 115.904 118.194 116.256C118.375 116.608 118.466 117.008 118.466 117.456C118.466 117.819 118.407 118.144 118.29 118.432C118.183 118.72 118.034 118.971 117.842 119.184C117.65 119.397 117.42 119.579 117.154 119.728C116.898 119.877 116.62 119.989 116.322 120.064V120.128C116.62 120.192 116.908 120.299 117.186 120.448C117.474 120.587 117.724 120.773 117.938 121.008C118.162 121.232 118.338 121.509 118.466 121.84C118.604 122.16 118.674 122.528 118.674 122.944C118.674 123.424 118.583 123.867 118.402 124.272C118.22 124.667 117.964 125.008 117.634 125.296C117.303 125.573 116.903 125.792 116.434 125.952C115.964 126.112 115.447 126.192 114.882 126.192C114.402 126.192 113.975 126.139 113.602 126.032C113.228 125.925 112.898 125.781 112.61 125.6C112.322 125.419 112.066 125.216 111.842 124.992C111.628 124.768 111.436 124.533 111.266 124.288L112.274 123.52C112.412 123.744 112.562 123.947 112.722 124.128C112.892 124.309 113.079 124.464 113.282 124.592C113.484 124.72 113.714 124.821 113.97 124.896C114.226 124.96 114.524 124.992 114.866 124.992C115.655 124.992 116.252 124.816 116.658 124.464C117.063 124.101 117.266 123.589 117.266 122.928V122.8C117.266 122.139 117.063 121.632 116.658 121.28C116.252 120.917 115.655 120.736 114.866 120.736H113.554V119.568H114.77Z" fill="#1A1A1A"/>
<path d="M95.192 77.592H95.112L94.168 79.464L91.496 84.328L88.824 79.464L87.88 77.592H87.8V87H86.488V75.832H88.28L91.48 81.848H91.56L94.776 75.832H96.504V87H95.192V77.592ZM105.344 87C104.864 87 104.518 86.872 104.304 86.616C104.102 86.36 103.974 86.04 103.92 85.656H103.84C103.659 86.168 103.36 86.552 102.944 86.808C102.528 87.064 102.032 87.192 101.456 87.192C100.582 87.192 99.899 86.968 99.4084 86.52C98.9284 86.072 98.6884 85.464 98.6884 84.696C98.6884 83.9173 98.971 83.32 99.5364 82.904C100.112 82.488 101.003 82.28 102.208 82.28H103.84V81.464C103.84 80.8773 103.68 80.4293 103.36 80.12C103.04 79.8107 102.55 79.656 101.888 79.656C101.387 79.656 100.966 79.768 100.624 79.992C100.294 80.216 100.016 80.5147 99.7924 80.888L99.0244 80.168C99.2484 79.72 99.6057 79.3413 100.096 79.032C100.587 78.712 101.206 78.552 101.952 78.552C102.955 78.552 103.734 78.7973 104.288 79.288C104.843 79.7787 105.12 80.4613 105.12 81.336V85.88H106.064V87H105.344ZM101.664 86.104C101.984 86.104 102.278 86.0667 102.544 85.992C102.811 85.9173 103.04 85.8107 103.232 85.672C103.424 85.5333 103.574 85.3733 103.68 85.192C103.787 85.0107 103.84 84.8133 103.84 84.6V83.24H102.144C101.408 83.24 100.87 83.3467 100.528 83.56C100.198 83.7733 100.032 84.0827 100.032 84.488V84.824C100.032 85.2293 100.176 85.544 100.464 85.768C100.763 85.992 101.163 86.104 101.664 86.104ZM102.032 77.784C101.776 77.784 101.531 77.7413 101.296 77.656C101.072 77.56 100.875 77.432 100.704 77.272C100.544 77.1013 100.416 76.904 100.32 76.68C100.224 76.456 100.176 76.2107 100.176 75.944C100.176 75.6773 100.224 75.432 100.32 75.208C100.416 74.984 100.544 74.792 100.704 74.632C100.875 74.4613 101.072 74.3333 101.296 74.248C101.531 74.152 101.776 74.104 102.032 74.104C102.288 74.104 102.528 74.152 102.752 74.248C102.987 74.3333 103.184 74.4613 103.344 74.632C103.515 74.792 103.648 74.984 103.744 75.208C103.84 75.432 103.888 75.6773 103.888 75.944C103.888 76.2107 103.84 76.456 103.744 76.68C103.648 76.904 103.515 77.1013 103.344 77.272C103.184 77.432 102.987 77.56 102.752 77.656C102.528 77.7413 102.288 77.784 102.032 77.784ZM102.032 77C102.32 77 102.544 76.9253 102.704 76.776C102.875 76.616 102.96 76.3973 102.96 76.12V75.768C102.96 75.4907 102.875 75.2773 102.704 75.128C102.544 74.968 102.32 74.888 102.032 74.888C101.744 74.888 101.515 74.968 101.344 75.128C101.184 75.2773 101.104 75.4907 101.104 75.768V76.12C101.104 76.3973 101.184 76.616 101.344 76.776C101.515 76.9253 101.744 77 102.032 77ZM107.891 87V78.744H109.171V80.088H109.235C109.438 79.6187 109.721 79.2453 110.083 78.968C110.457 78.6907 110.953 78.552 111.571 78.552C112.425 78.552 113.097 78.8293 113.587 79.384C114.089 79.928 114.339 80.7013 114.339 81.704V87H113.059V81.928C113.059 80.4453 112.435 79.704 111.187 79.704C110.931 79.704 110.681 79.736 110.435 79.8C110.201 79.864 109.987 79.96 109.795 80.088C109.603 80.216 109.449 80.3813 109.331 80.584C109.225 80.776 109.171 81.0053 109.171 81.272V87H107.891ZM120.089 87.192C119.524 87.192 119.012 87.0907 118.553 86.888C118.105 86.6853 117.716 86.3973 117.385 86.024C117.065 85.64 116.814 85.1867 116.633 84.664C116.462 84.1307 116.377 83.5333 116.377 82.872C116.377 82.2213 116.462 81.6293 116.633 81.096C116.814 80.5627 117.065 80.1093 117.385 79.736C117.716 79.352 118.105 79.0587 118.553 78.856C119.012 78.6533 119.524 78.552 120.089 78.552C120.644 78.552 121.14 78.6533 121.577 78.856C122.014 79.0587 122.388 79.3413 122.697 79.704C123.006 80.056 123.241 80.4773 123.401 80.968C123.572 81.4587 123.657 81.9973 123.657 82.584V83.192H117.721V83.576C117.721 83.928 117.774 84.2587 117.881 84.568C117.998 84.8667 118.158 85.128 118.361 85.352C118.574 85.576 118.83 85.752 119.129 85.88C119.438 86.008 119.785 86.072 120.169 86.072C120.692 86.072 121.145 85.9493 121.529 85.704C121.924 85.4587 122.228 85.1067 122.441 84.648L123.353 85.304C123.086 85.8693 122.67 86.328 122.105 86.68C121.54 87.0213 120.868 87.192 120.089 87.192ZM120.089 79.624C119.737 79.624 119.417 79.688 119.129 79.816C118.841 79.9333 118.59 80.104 118.377 80.328C118.174 80.552 118.014 80.8187 117.897 81.128C117.78 81.4267 117.721 81.7573 117.721 82.12V82.232H122.281V82.056C122.281 81.32 122.078 80.7333 121.673 80.296C121.278 79.848 120.75 79.624 120.089 79.624ZM131.046 85.656H130.982C130.481 86.68 129.676 87.192 128.566 87.192C128.054 87.192 127.59 87.0907 127.174 86.888C126.758 86.6853 126.401 86.3973 126.102 86.024C125.814 85.6507 125.59 85.1973 125.43 84.664C125.281 84.1307 125.206 83.5333 125.206 82.872C125.206 82.2107 125.281 81.6133 125.43 81.08C125.59 80.5467 125.814 80.0933 126.102 79.72C126.401 79.3467 126.758 79.0587 127.174 78.856C127.59 78.6533 128.054 78.552 128.566 78.552C129.142 78.552 129.633 78.68 130.038 78.936C130.454 79.1813 130.769 79.5653 130.982 80.088H131.046V75.16H132.326V87H131.046V85.656ZM128.918 86.04C129.206 86.04 129.478 86.0027 129.734 85.928C130.001 85.8533 130.23 85.7467 130.422 85.608C130.614 85.4587 130.764 85.2827 130.87 85.08C130.988 84.8667 131.046 84.6267 131.046 84.36V81.288C131.046 81.064 130.988 80.856 130.87 80.664C130.764 80.4613 130.614 80.2907 130.422 80.152C130.23 80.0133 130.001 79.9067 129.734 79.832C129.478 79.7467 129.206 79.704 128.918 79.704C128.193 79.704 127.622 79.9333 127.206 80.392C126.79 80.84 126.582 81.432 126.582 82.168V83.576C126.582 84.312 126.79 84.9093 127.206 85.368C127.622 85.816 128.193 86.04 128.918 86.04Z" fill="#1A1A1A"/>
<rect x="154.5" y="101.5" width="72" height="39" rx="3.5" stroke="#707070"/>
<path d="M179.841 126H172.513V124.624L176.161 121.264C176.683 120.784 177.121 120.277 177.473 119.744C177.825 119.2 178.001 118.656 178.001 118.112V117.92C178.001 117.301 177.83 116.8 177.489 116.416C177.147 116.032 176.63 115.84 175.937 115.84C175.595 115.84 175.297 115.888 175.041 115.984C174.785 116.08 174.561 116.213 174.369 116.384C174.187 116.555 174.033 116.757 173.905 116.992C173.787 117.216 173.691 117.461 173.617 117.728L172.417 117.264C172.523 116.933 172.667 116.613 172.849 116.304C173.041 115.984 173.275 115.701 173.553 115.456C173.841 115.211 174.182 115.013 174.577 114.864C174.982 114.715 175.457 114.64 176.001 114.64C176.545 114.64 177.03 114.72 177.457 114.88C177.883 115.04 178.241 115.264 178.529 115.552C178.817 115.84 179.035 116.181 179.185 116.576C179.345 116.971 179.425 117.408 179.425 117.888C179.425 118.325 179.361 118.731 179.233 119.104C179.115 119.477 178.95 119.835 178.737 120.176C178.523 120.507 178.262 120.832 177.953 121.152C177.654 121.472 177.329 121.792 176.977 122.112L173.969 124.816H179.841V126ZM185.706 126.192C184.373 126.192 183.397 125.685 182.778 124.672C182.17 123.659 181.866 122.24 181.866 120.416C181.866 118.592 182.17 117.173 182.778 116.16C183.397 115.147 184.373 114.64 185.706 114.64C187.04 114.64 188.01 115.147 188.618 116.16C189.237 117.173 189.546 118.592 189.546 120.416C189.546 122.24 189.237 123.659 188.618 124.672C188.01 125.685 187.04 126.192 185.706 126.192ZM185.706 125.024C186.144 125.024 186.517 124.933 186.826 124.752C187.136 124.571 187.386 124.315 187.578 123.984C187.77 123.653 187.909 123.264 187.994 122.816C188.09 122.368 188.138 121.872 188.138 121.328V119.504C188.138 118.96 188.09 118.464 187.994 118.016C187.909 117.568 187.77 117.179 187.578 116.848C187.386 116.517 187.136 116.261 186.826 116.08C186.517 115.899 186.144 115.808 185.706 115.808C185.269 115.808 184.896 115.899 184.586 116.08C184.277 116.261 184.026 116.517 183.834 116.848C183.642 117.179 183.498 117.568 183.402 118.016C183.317 118.464 183.274 118.96 183.274 119.504V121.328C183.274 121.872 183.317 122.368 183.402 122.816C183.498 123.264 183.642 123.653 183.834 123.984C184.026 124.315 184.277 124.571 184.586 124.752C184.896 124.933 185.269 125.024 185.706 125.024ZM199.028 126H191.7V124.624L195.348 121.264C195.871 120.784 196.308 120.277 196.66 119.744C197.012 119.2 197.188 118.656 197.188 118.112V117.92C197.188 117.301 197.017 116.8 196.676 116.416C196.335 116.032 195.817 115.84 195.124 115.84C194.783 115.84 194.484 115.888 194.228 115.984C193.972 116.08 193.748 116.213 193.556 116.384C193.375 116.555 193.22 116.757 193.092 116.992C192.975 117.216 192.879 117.461 192.804 117.728L191.604 117.264C191.711 116.933 191.855 116.613 192.036 116.304C192.228 115.984 192.463 115.701 192.74 115.456C193.028 115.211 193.369 115.013 193.764 114.864C194.169 114.715 194.644 114.64 195.188 114.64C195.732 114.64 196.217 114.72 196.644 114.88C197.071 115.04 197.428 115.264 197.716 115.552C198.004 115.84 198.223 116.181 198.372 116.576C198.532 116.971 198.612 117.408 198.612 117.888C198.612 118.325 198.548 118.731 198.42 119.104C198.303 119.477 198.137 119.835 197.924 120.176C197.711 120.507 197.449 120.832 197.14 121.152C196.841 121.472 196.516 121.792 196.164 122.112L193.156 124.816H199.028V126ZM208.622 126H201.294V124.624L204.942 121.264C205.464 120.784 205.902 120.277 206.254 119.744C206.606 119.2 206.782 118.656 206.782 118.112V117.92C206.782 117.301 206.611 116.8 206.27 116.416C205.928 116.032 205.411 115.84 204.718 115.84C204.376 115.84 204.078 115.888 203.822 115.984C203.566 116.08 203.342 116.213 203.15 116.384C202.968 116.555 202.814 116.757 202.686 116.992C202.568 117.216 202.472 117.461 202.398 117.728L201.198 117.264C201.304 116.933 201.448 116.613 201.63 116.304C201.822 115.984 202.056 115.701 202.334 115.456C202.622 115.211 202.963 115.013 203.358 114.864C203.763 114.715 204.238 114.64 204.782 114.64C205.326 114.64 205.811 114.72 206.238 114.88C206.664 115.04 207.022 115.264 207.31 115.552C207.598 115.84 207.816 116.181 207.966 116.576C208.126 116.971 208.206 117.408 208.206 117.888C208.206 118.325 208.142 118.731 208.014 119.104C207.896 119.477 207.731 119.835 207.518 120.176C207.304 120.507 207.043 120.832 206.734 121.152C206.435 121.472 206.11 121.792 205.758 122.112L202.75 124.816H208.622V126Z" fill="#1A1A1A"/>
<path d="M162.48 87L161.36 83.704H156.848L155.728 87H154.368L158.272 75.832H159.984L163.888 87H162.48ZM159.136 77.08H159.056L157.168 82.52H161.024L159.136 77.08ZM159.152 75.064C158.896 75.064 158.651 75.0213 158.416 74.936C158.192 74.84 157.995 74.712 157.824 74.552C157.664 74.3813 157.536 74.184 157.44 73.96C157.344 73.736 157.296 73.4907 157.296 73.224C157.296 72.9573 157.344 72.712 157.44 72.488C157.536 72.264 157.664 72.072 157.824 71.912C157.995 71.7413 158.192 71.6133 158.416 71.528C158.651 71.432 158.896 71.384 159.152 71.384C159.408 71.384 159.648 71.432 159.872 71.528C160.107 71.6133 160.304 71.7413 160.464 71.912C160.635 72.072 160.768 72.264 160.864 72.488C160.96 72.712 161.008 72.9573 161.008 73.224C161.008 73.4907 160.96 73.736 160.864 73.96C160.768 74.184 160.635 74.3813 160.464 74.552C160.304 74.712 160.107 74.84 159.872 74.936C159.648 75.0213 159.408 75.064 159.152 75.064ZM159.152 74.28C159.44 74.28 159.664 74.2053 159.824 74.056C159.995 73.896 160.08 73.6773 160.08 73.4V73.048C160.08 72.7707 159.995 72.5573 159.824 72.408C159.664 72.248 159.44 72.168 159.152 72.168C158.864 72.168 158.635 72.248 158.464 72.408C158.304 72.5573 158.224 72.7707 158.224 73.048V73.4C158.224 73.6773 158.304 73.896 158.464 74.056C158.635 74.2053 158.864 74.28 159.152 74.28ZM165.61 87V78.744H166.89V80.264H166.97C167.119 79.8693 167.386 79.5173 167.77 79.208C168.154 78.8987 168.682 78.744 169.354 78.744H169.85V80.024H169.098C168.405 80.024 167.861 80.1573 167.466 80.424C167.082 80.68 166.89 81.0053 166.89 81.4V87H165.61Z" fill="#1A1A1A"/>
<rect width="280" height="20" transform="translate(16 181)" fill="#DCDCDC"/>
<rect width="280" height="20" transform="translate(16 241)" fill="#DCDCDC"/>
<rect width="118" height="12" transform="translate(16 165)" fill="#DCDCDC"/>
<rect width="118" height="12" transform="translate(16 225)" fill="#DCDCDC"/>
</svg>
