<svg width="418" height="398" viewBox="0 0 418 398" fill="none" xmlns="http://www.w3.org/2000/svg">
<rect width="418" height="398" fill="white"/>
<rect width="386" height="104" transform="translate(16 16)" fill="#FFE0E0"/>
<path d="M24 16H16V120H24V16Z" fill="#CC0000"/>
<path d="M52 54.0002C50.0213 54.0014 48.0868 53.4155 46.4412 52.3168C44.7957 51.2181 43.513 49.6559 42.7557 47.8279C41.9983 45.9999 41.8003 43.9883 42.1866 42.0477C42.573 40.1071 43.5263 38.3248 44.926 36.9262C46.8022 35.0501 49.3467 33.9961 52 33.9961C54.6533 33.9961 57.1979 35.0501 59.074 36.9262C60.9502 38.8024 62.0042 41.347 62.0042 44.0002C62.0042 46.6535 60.9502 49.1981 59.074 51.0742C58.1468 52.0053 57.0442 52.7433 55.83 53.2456C54.6158 53.7478 53.314 54.0043 52 54.0002V54.0002ZM52 36.0002C50.4178 36.0002 48.871 36.4694 47.5555 37.3485C46.2399 38.2275 45.2145 39.477 44.609 40.9388C44.0035 42.4006 43.845 44.0091 44.1537 45.561C44.4624 47.1128 45.2243 48.5383 46.3432 49.6571C47.462 50.7759 48.8874 51.5378 50.4393 51.8465C51.9911 52.1552 53.5997 51.9968 55.0615 51.3913C56.5233 50.7858 57.7727 49.7604 58.6518 48.4448C59.5308 47.1292 60 45.5825 60 44.0002C59.9976 41.8792 59.154 39.8458 57.6542 38.346C56.1545 36.8462 54.121 36.0026 52 36.0002V36.0002ZM49.409 48.0002L48 46.5902L50.59 44.0002L48 41.4102L49.41 40.0002L52 42.5902L54.59 40.0002L56 41.4102L53.41 44.0002L56 46.5902L54.591 48.0002L52 45.4112L49.41 48.0002H49.409Z" fill="#1A1A1A"/>
<path d="M73.312 50V38.832H75.424V48.128H79.824V50H73.312ZM84.6835 50.192C84.0862 50.192 83.5475 50.0907 83.0675 49.888C82.5982 49.6853 82.1928 49.392 81.8515 49.008C81.5208 48.624 81.2648 48.1653 81.0835 47.632C80.9022 47.088 80.8115 46.48 80.8115 45.808C80.8115 45.136 80.9022 44.5333 81.0835 44C81.2648 43.4667 81.5208 43.0133 81.8515 42.64C82.1928 42.256 82.5982 41.9627 83.0675 41.76C83.5475 41.5573 84.0862 41.456 84.6835 41.456C85.2808 41.456 85.8195 41.5573 86.2995 41.76C86.7795 41.9627 87.1848 42.256 87.5155 42.64C87.8568 43.0133 88.1182 43.4667 88.2995 44C88.4808 44.5333 88.5715 45.136 88.5715 45.808C88.5715 46.48 88.4808 47.088 88.2995 47.632C88.1182 48.1653 87.8568 48.624 87.5155 49.008C87.1848 49.392 86.7795 49.6853 86.2995 49.888C85.8195 50.0907 85.2808 50.192 84.6835 50.192ZM84.6835 48.544C85.2275 48.544 85.6542 48.3787 85.9635 48.048C86.2728 47.7173 86.4275 47.232 86.4275 46.592V45.04C86.4275 44.4107 86.2728 43.9307 85.9635 43.6C85.6542 43.2693 85.2275 43.104 84.6835 43.104C84.1502 43.104 83.7288 43.2693 83.4195 43.6C83.1102 43.9307 82.9555 44.4107 82.9555 45.04V46.592C82.9555 47.232 83.1102 47.7173 83.4195 48.048C83.7288 48.3787 84.1502 48.544 84.6835 48.544ZM90.3871 50V41.648H92.4351V43.376H92.5151C92.5685 43.152 92.6485 42.9387 92.7551 42.736C92.8725 42.5227 93.0218 42.336 93.2031 42.176C93.3845 42.016 93.5978 41.888 93.8431 41.792C94.0991 41.696 94.3925 41.648 94.7231 41.648H95.1711V43.584H94.5311C93.8378 43.584 93.3151 43.6853 92.9631 43.888C92.6111 44.0907 92.4351 44.4213 92.4351 44.88V50H90.3871ZM99.9663 50.192C99.3476 50.192 98.7929 50.0907 98.3023 49.888C97.8223 49.6747 97.4116 49.3813 97.0703 49.008C96.7396 48.624 96.4836 48.1653 96.3023 47.632C96.1209 47.088 96.0303 46.48 96.0303 45.808C96.0303 45.1467 96.1156 44.5493 96.2863 44.016C96.4676 43.4827 96.7236 43.0293 97.0543 42.656C97.3849 42.272 97.7903 41.9787 98.2703 41.776C98.7503 41.5627 99.2943 41.456 99.9023 41.456C100.553 41.456 101.118 41.568 101.598 41.792C102.078 42.016 102.473 42.32 102.782 42.704C103.092 43.088 103.321 43.536 103.47 44.048C103.63 44.5493 103.71 45.088 103.71 45.664V46.336H98.1583V46.544C98.1583 47.152 98.3289 47.6427 98.6703 48.016C99.0116 48.3787 99.5183 48.56 100.19 48.56C100.702 48.56 101.118 48.4533 101.438 48.24C101.769 48.0267 102.062 47.7547 102.318 47.424L103.422 48.656C103.081 49.136 102.612 49.5147 102.014 49.792C101.428 50.0587 100.745 50.192 99.9663 50.192ZM99.9343 42.992C99.3903 42.992 98.9583 43.1733 98.6383 43.536C98.3183 43.8987 98.1583 44.368 98.1583 44.944V45.072H101.582V44.928C101.582 44.352 101.438 43.888 101.15 43.536C100.873 43.1733 100.468 42.992 99.9343 42.992ZM105.512 50V41.648H107.56V43.04H107.64C107.8 42.6027 108.056 42.2293 108.408 41.92C108.76 41.6107 109.251 41.456 109.88 41.456C110.456 41.456 110.952 41.5947 111.368 41.872C111.784 42.1493 112.093 42.5707 112.296 43.136H112.328C112.477 42.6667 112.771 42.272 113.208 41.952C113.656 41.6213 114.216 41.456 114.888 41.456C115.709 41.456 116.339 41.7387 116.776 42.304C117.224 42.8693 117.448 43.6747 117.448 44.72V50H115.4V44.928C115.4 43.7333 114.952 43.136 114.056 43.136C113.853 43.136 113.656 43.168 113.464 43.232C113.283 43.2853 113.117 43.3707 112.968 43.488C112.829 43.5947 112.717 43.7333 112.632 43.904C112.547 44.064 112.504 44.256 112.504 44.48V50H110.456V44.928C110.456 43.7333 110.008 43.136 109.112 43.136C108.92 43.136 108.728 43.168 108.536 43.232C108.355 43.2853 108.189 43.3707 108.04 43.488C107.901 43.5947 107.784 43.7333 107.688 43.904C107.603 44.064 107.56 44.256 107.56 44.48V50H105.512ZM124.521 40.432C124.094 40.432 123.785 40.336 123.593 40.144C123.411 39.952 123.321 39.7067 123.321 39.408V39.088C123.321 38.7893 123.411 38.544 123.593 38.352C123.785 38.16 124.094 38.064 124.521 38.064C124.937 38.064 125.241 38.16 125.433 38.352C125.625 38.544 125.721 38.7893 125.721 39.088V39.408C125.721 39.7067 125.625 39.952 125.433 40.144C125.241 40.336 124.937 40.432 124.521 40.432ZM123.497 41.648H125.545V50H123.497V41.648ZM127.918 41.648H129.966V43.024H130.03C130.18 42.544 130.462 42.1653 130.878 41.888C131.294 41.6 131.78 41.456 132.334 41.456C133.401 41.456 134.212 41.8347 134.766 42.592C135.332 43.3387 135.614 44.4107 135.614 45.808C135.614 47.216 135.332 48.2987 134.766 49.056C134.212 49.8133 133.401 50.192 132.334 50.192C131.78 50.192 131.294 50.048 130.878 49.76C130.473 49.472 130.19 49.088 130.03 48.608H129.966V53.2H127.918V41.648ZM131.678 48.496C132.212 48.496 132.644 48.32 132.974 47.968C133.305 47.616 133.47 47.1413 133.47 46.544V45.104C133.47 44.5067 133.305 44.032 132.974 43.68C132.644 43.3173 132.212 43.136 131.678 43.136C131.188 43.136 130.777 43.2587 130.446 43.504C130.126 43.7493 129.966 44.0747 129.966 44.48V47.136C129.966 47.5733 130.126 47.9093 130.446 48.144C130.777 48.3787 131.188 48.496 131.678 48.496ZM140.248 50.192C139.448 50.192 138.776 50.0587 138.232 49.792C137.688 49.5147 137.208 49.136 136.792 48.656L138.04 47.44C138.349 47.792 138.685 48.0693 139.048 48.272C139.421 48.4747 139.848 48.576 140.328 48.576C140.819 48.576 141.171 48.4907 141.384 48.32C141.608 48.1493 141.72 47.9147 141.72 47.616C141.72 47.3707 141.64 47.1787 141.48 47.04C141.331 46.8907 141.069 46.7893 140.696 46.736L139.864 46.624C138.957 46.5067 138.264 46.2507 137.784 45.856C137.315 45.4507 137.08 44.864 137.08 44.096C137.08 43.6907 137.155 43.328 137.304 43.008C137.453 42.6773 137.667 42.4 137.944 42.176C138.221 41.9413 138.552 41.7653 138.936 41.648C139.331 41.52 139.768 41.456 140.248 41.456C140.653 41.456 141.011 41.488 141.32 41.552C141.64 41.6053 141.928 41.6907 142.184 41.808C142.44 41.9147 142.675 42.0533 142.888 42.224C143.101 42.384 143.309 42.5653 143.512 42.768L142.312 43.968C142.067 43.712 141.773 43.4987 141.432 43.328C141.091 43.1573 140.717 43.072 140.312 43.072C139.864 43.072 139.539 43.152 139.336 43.312C139.144 43.472 139.048 43.68 139.048 43.936C139.048 44.2133 139.128 44.4267 139.288 44.576C139.459 44.7147 139.741 44.816 140.136 44.88L140.984 44.992C142.787 45.248 143.688 46.0693 143.688 47.456C143.688 47.8613 143.603 48.2347 143.432 48.576C143.272 48.9067 143.043 49.1947 142.744 49.44C142.445 49.6747 142.083 49.8613 141.656 50C141.24 50.128 140.771 50.192 140.248 50.192ZM150.489 48.608H150.409C150.334 48.8213 150.233 49.024 150.105 49.216C149.987 49.3973 149.833 49.5627 149.641 49.712C149.459 49.8613 149.235 49.9787 148.969 50.064C148.713 50.1493 148.414 50.192 148.073 50.192C147.209 50.192 146.547 49.9093 146.089 49.344C145.63 48.7787 145.401 47.9733 145.401 46.928V41.648H147.449V46.72C147.449 47.296 147.561 47.7387 147.785 48.048C148.009 48.3467 148.366 48.496 148.857 48.496C149.059 48.496 149.257 48.4693 149.449 48.416C149.651 48.3627 149.827 48.2827 149.977 48.176C150.126 48.0587 150.249 47.92 150.345 47.76C150.441 47.5893 150.489 47.392 150.489 47.168V41.648H152.536V50H150.489V48.608ZM154.903 50V41.648H156.951V43.04H157.031C157.191 42.6027 157.447 42.2293 157.799 41.92C158.151 41.6107 158.641 41.456 159.271 41.456C159.847 41.456 160.343 41.5947 160.759 41.872C161.175 42.1493 161.484 42.5707 161.687 43.136H161.719C161.868 42.6667 162.161 42.272 162.599 41.952C163.047 41.6213 163.607 41.456 164.279 41.456C165.1 41.456 165.729 41.7387 166.167 42.304C166.615 42.8693 166.839 43.6747 166.839 44.72V50H164.791V44.928C164.791 43.7333 164.343 43.136 163.447 43.136C163.244 43.136 163.047 43.168 162.855 43.232C162.673 43.2853 162.508 43.3707 162.359 43.488C162.22 43.5947 162.108 43.7333 162.023 43.904C161.937 44.064 161.895 44.256 161.895 44.48V50H159.847V44.928C159.847 43.7333 159.399 43.136 158.503 43.136C158.311 43.136 158.119 43.168 157.927 43.232C157.745 43.2853 157.58 43.3707 157.431 43.488C157.292 43.5947 157.175 43.7333 157.079 43.904C156.993 44.064 156.951 44.256 156.951 44.48V50H154.903Z" fill="#1A1A1A"/>
<path d="M73.488 74V62.832H74.832V72.816H79.584V74H73.488ZM84.3394 74.192C83.7847 74.192 83.278 74.0907 82.8194 73.888C82.3607 73.6853 81.966 73.3973 81.6354 73.024C81.3154 72.64 81.0647 72.1867 80.8834 71.664C80.702 71.1307 80.6114 70.5333 80.6114 69.872C80.6114 69.2213 80.702 68.6293 80.8834 68.096C81.0647 67.5627 81.3154 67.1093 81.6354 66.736C81.966 66.352 82.3607 66.0587 82.8194 65.856C83.278 65.6533 83.7847 65.552 84.3394 65.552C84.894 65.552 85.3954 65.6533 85.8434 65.856C86.302 66.0587 86.6967 66.352 87.0274 66.736C87.358 67.1093 87.614 67.5627 87.7954 68.096C87.9767 68.6293 88.0674 69.2213 88.0674 69.872C88.0674 70.5333 87.9767 71.1307 87.7954 71.664C87.614 72.1867 87.358 72.64 87.0274 73.024C86.6967 73.3973 86.302 73.6853 85.8434 73.888C85.3954 74.0907 84.894 74.192 84.3394 74.192ZM84.3394 73.056C85.0327 73.056 85.598 72.8427 86.0354 72.416C86.4727 71.9893 86.6914 71.3387 86.6914 70.464V69.28C86.6914 68.4053 86.4727 67.7547 86.0354 67.328C85.598 66.9013 85.0327 66.688 84.3394 66.688C83.646 66.688 83.0807 66.9013 82.6434 67.328C82.206 67.7547 81.9874 68.4053 81.9874 69.28V70.464C81.9874 71.3387 82.206 71.9893 82.6434 72.416C83.0807 72.8427 83.646 73.056 84.3394 73.056ZM90.1725 74V65.744H91.4525V67.264H91.5325C91.6818 66.8693 91.9485 66.5173 92.3325 66.208C92.7165 65.8987 93.2445 65.744 93.9165 65.744H94.4125V67.024H93.6605C92.9672 67.024 92.4232 67.1573 92.0285 67.424C91.6445 67.68 91.4525 68.0053 91.4525 68.4V74H90.1725ZM99.0734 74.192C98.508 74.192 97.996 74.0907 97.5374 73.888C97.0894 73.6853 96.7 73.3973 96.3694 73.024C96.0494 72.64 95.7987 72.1867 95.6174 71.664C95.4467 71.1307 95.3614 70.5333 95.3614 69.872C95.3614 69.2213 95.4467 68.6293 95.6174 68.096C95.7987 67.5627 96.0494 67.1093 96.3694 66.736C96.7 66.352 97.0894 66.0587 97.5374 65.856C97.996 65.6533 98.508 65.552 99.0734 65.552C99.628 65.552 100.124 65.6533 100.561 65.856C100.999 66.0587 101.372 66.3413 101.681 66.704C101.991 67.056 102.225 67.4773 102.385 67.968C102.556 68.4587 102.641 68.9973 102.641 69.584V70.192H96.7054V70.576C96.7054 70.928 96.7587 71.2587 96.8654 71.568C96.9827 71.8667 97.1427 72.128 97.3454 72.352C97.5587 72.576 97.8147 72.752 98.1134 72.88C98.4227 73.008 98.7694 73.072 99.1534 73.072C99.676 73.072 100.129 72.9493 100.513 72.704C100.908 72.4587 101.212 72.1067 101.425 71.648L102.337 72.304C102.071 72.8693 101.655 73.328 101.089 73.68C100.524 74.0213 99.852 74.192 99.0734 74.192ZM99.0734 66.624C98.7214 66.624 98.4014 66.688 98.1134 66.816C97.8254 66.9333 97.5747 67.104 97.3614 67.328C97.1587 67.552 96.9987 67.8187 96.8814 68.128C96.764 68.4267 96.7054 68.7573 96.7054 69.12V69.232H101.265V69.056C101.265 68.32 101.063 67.7333 100.657 67.296C100.263 66.848 99.7347 66.624 99.0734 66.624ZM104.751 74V65.744H106.031V67.088H106.095C106.191 66.8747 106.297 66.6773 106.415 66.496C106.543 66.304 106.692 66.1387 106.863 66C107.044 65.8613 107.252 65.7547 107.487 65.68C107.721 65.5947 107.999 65.552 108.319 65.552C108.863 65.552 109.364 65.6853 109.823 65.952C110.281 66.208 110.623 66.6347 110.847 67.232H110.879C111.028 66.784 111.305 66.3947 111.711 66.064C112.127 65.7227 112.687 65.552 113.391 65.552C114.233 65.552 114.889 65.8293 115.359 66.384C115.839 66.928 116.079 67.7013 116.079 68.704V74H114.799V68.928C114.799 68.192 114.655 67.6373 114.367 67.264C114.079 66.8907 113.62 66.704 112.991 66.704C112.735 66.704 112.489 66.736 112.255 66.8C112.031 66.864 111.828 66.96 111.647 67.088C111.465 67.216 111.321 67.3813 111.215 67.584C111.108 67.776 111.055 68.0053 111.055 68.272V74H109.775V68.928C109.775 68.192 109.631 67.6373 109.343 67.264C109.055 66.8907 108.607 66.704 107.999 66.704C107.743 66.704 107.497 66.736 107.263 66.8C107.028 66.864 106.82 66.96 106.639 67.088C106.457 67.216 106.308 67.3813 106.191 67.584C106.084 67.776 106.031 68.0053 106.031 68.272V74H104.751ZM123.141 63.808C122.863 63.808 122.661 63.744 122.533 63.616C122.415 63.4773 122.357 63.3013 122.357 63.088V62.88C122.357 62.6667 122.415 62.496 122.533 62.368C122.661 62.2293 122.863 62.16 123.141 62.16C123.418 62.16 123.615 62.2293 123.733 62.368C123.861 62.496 123.925 62.6667 123.925 62.88V63.088C123.925 63.3013 123.861 63.4773 123.733 63.616C123.615 63.744 123.418 63.808 123.141 63.808ZM122.501 65.744H123.781V74H122.501V65.744ZM126.501 65.744H127.781V67.088H127.845C128.058 66.5653 128.367 66.1813 128.773 65.936C129.189 65.68 129.685 65.552 130.261 65.552C130.773 65.552 131.237 65.6533 131.653 65.856C132.069 66.0587 132.421 66.3467 132.709 66.72C133.007 67.0933 133.231 67.5467 133.381 68.08C133.541 68.6133 133.621 69.2107 133.621 69.872C133.621 70.5333 133.541 71.1307 133.381 71.664C133.231 72.1973 133.007 72.6507 132.709 73.024C132.421 73.3973 132.069 73.6853 131.653 73.888C131.237 74.0907 130.773 74.192 130.261 74.192C129.141 74.192 128.335 73.68 127.845 72.656H127.781V77.2H126.501V65.744ZM129.909 73.04C130.634 73.04 131.205 72.816 131.621 72.368C132.037 71.9093 132.245 71.312 132.245 70.576V69.168C132.245 68.432 132.037 67.84 131.621 67.392C131.205 66.9333 130.634 66.704 129.909 66.704C129.621 66.704 129.343 66.7467 129.077 66.832C128.821 66.9067 128.597 67.0133 128.405 67.152C128.213 67.2907 128.058 67.4613 127.941 67.664C127.834 67.856 127.781 68.064 127.781 68.288V71.36C127.781 71.6267 127.834 71.8667 127.941 72.08C128.058 72.2827 128.213 72.4587 128.405 72.608C128.597 72.7467 128.821 72.8533 129.077 72.928C129.343 73.0027 129.621 73.04 129.909 73.04ZM138.262 74.192C137.494 74.192 136.849 74.048 136.326 73.76C135.814 73.4613 135.371 73.0667 134.998 72.576L135.91 71.84C136.23 72.2453 136.587 72.56 136.982 72.784C137.377 72.9973 137.835 73.104 138.358 73.104C138.902 73.104 139.323 72.9867 139.622 72.752C139.931 72.5173 140.086 72.1867 140.086 71.76C140.086 71.44 139.979 71.168 139.766 70.944C139.563 70.7093 139.19 70.5493 138.646 70.464L137.99 70.368C137.606 70.3147 137.254 70.2347 136.934 70.128C136.614 70.0107 136.331 69.8613 136.086 69.68C135.851 69.488 135.665 69.2533 135.526 68.976C135.398 68.6987 135.334 68.368 135.334 67.984C135.334 67.5787 135.409 67.2267 135.558 66.928C135.707 66.6187 135.91 66.3627 136.166 66.16C136.433 65.9573 136.747 65.808 137.11 65.712C137.473 65.6053 137.862 65.552 138.278 65.552C138.95 65.552 139.51 65.6693 139.958 65.904C140.417 66.1387 140.817 66.464 141.158 66.88L140.31 67.648C140.129 67.392 139.862 67.1627 139.51 66.96C139.158 66.7467 138.715 66.64 138.182 66.64C137.649 66.64 137.243 66.7573 136.966 66.992C136.699 67.216 136.566 67.5253 136.566 67.92C136.566 68.3253 136.699 68.6187 136.966 68.8C137.243 68.9813 137.638 69.1147 138.15 69.2L138.79 69.296C139.707 69.4347 140.358 69.7013 140.742 70.096C141.126 70.48 141.318 70.9867 141.318 71.616C141.318 72.416 141.046 73.0453 140.502 73.504C139.958 73.9627 139.211 74.192 138.262 74.192ZM148.667 72.656H148.603C148.517 72.848 148.411 73.04 148.283 73.232C148.165 73.4133 148.016 73.5787 147.835 73.728C147.653 73.8667 147.435 73.9787 147.179 74.064C146.923 74.1493 146.624 74.192 146.283 74.192C145.429 74.192 144.752 73.92 144.251 73.376C143.749 72.8213 143.499 72.0427 143.499 71.04V65.744H144.779V70.816C144.779 72.2987 145.408 73.04 146.667 73.04C146.923 73.04 147.168 73.008 147.403 72.944C147.648 72.88 147.861 72.784 148.043 72.656C148.235 72.528 148.384 72.368 148.491 72.176C148.608 71.9733 148.667 71.7333 148.667 71.456V65.744H149.947V74H148.667V72.656ZM152.673 74V65.744H153.953V67.088H154.017C154.113 66.8747 154.219 66.6773 154.337 66.496C154.465 66.304 154.614 66.1387 154.785 66C154.966 65.8613 155.174 65.7547 155.409 65.68C155.643 65.5947 155.921 65.552 156.241 65.552C156.785 65.552 157.286 65.6853 157.745 65.952C158.203 66.208 158.545 66.6347 158.769 67.232H158.801C158.95 66.784 159.227 66.3947 159.633 66.064C160.049 65.7227 160.609 65.552 161.312 65.552C162.155 65.552 162.811 65.8293 163.281 66.384C163.761 66.928 164.001 67.7013 164.001 68.704V74H162.721V68.928C162.721 68.192 162.577 67.6373 162.289 67.264C162.001 66.8907 161.542 66.704 160.913 66.704C160.657 66.704 160.411 66.736 160.177 66.8C159.953 66.864 159.75 66.96 159.569 67.088C159.387 67.216 159.243 67.3813 159.137 67.584C159.03 67.776 158.977 68.0053 158.977 68.272V74H157.697V68.928C157.697 68.192 157.553 67.6373 157.265 67.264C156.977 66.8907 156.529 66.704 155.921 66.704C155.665 66.704 155.419 66.736 155.185 66.8C154.95 66.864 154.742 66.96 154.561 67.088C154.379 67.216 154.23 67.3813 154.113 67.584C154.006 67.776 153.953 68.0053 153.953 68.272V74H152.673ZM175.703 72.656H175.639C175.137 73.68 174.332 74.192 173.223 74.192C172.711 74.192 172.247 74.0907 171.831 73.888C171.415 73.6853 171.057 73.3973 170.759 73.024C170.471 72.6507 170.247 72.1973 170.087 71.664C169.937 71.1307 169.863 70.5333 169.863 69.872C169.863 69.2107 169.937 68.6133 170.087 68.08C170.247 67.5467 170.471 67.0933 170.759 66.72C171.057 66.3467 171.415 66.0587 171.831 65.856C172.247 65.6533 172.711 65.552 173.223 65.552C173.799 65.552 174.289 65.68 174.695 65.936C175.111 66.1813 175.425 66.5653 175.639 67.088H175.703V62.16H176.983V74H175.703V72.656ZM173.575 73.04C173.863 73.04 174.135 73.0027 174.391 72.928C174.657 72.8533 174.887 72.7467 175.079 72.608C175.271 72.4587 175.42 72.2827 175.527 72.08C175.644 71.8667 175.703 71.6267 175.703 71.36V68.288C175.703 68.064 175.644 67.856 175.527 67.664C175.42 67.4613 175.271 67.2907 175.079 67.152C174.887 67.0133 174.657 66.9067 174.391 66.832C174.135 66.7467 173.863 66.704 173.575 66.704C172.849 66.704 172.279 66.9333 171.863 67.392C171.447 67.84 171.239 68.432 171.239 69.168V70.576C171.239 71.312 171.447 71.9093 171.863 72.368C172.279 72.816 172.849 73.04 173.575 73.04ZM182.824 74.192C182.269 74.192 181.762 74.0907 181.304 73.888C180.845 73.6853 180.45 73.3973 180.12 73.024C179.8 72.64 179.549 72.1867 179.368 71.664C179.186 71.1307 179.096 70.5333 179.096 69.872C179.096 69.2213 179.186 68.6293 179.368 68.096C179.549 67.5627 179.8 67.1093 180.12 66.736C180.45 66.352 180.845 66.0587 181.304 65.856C181.762 65.6533 182.269 65.552 182.824 65.552C183.378 65.552 183.88 65.6533 184.328 65.856C184.786 66.0587 185.181 66.352 185.512 66.736C185.842 67.1093 186.098 67.5627 186.28 68.096C186.461 68.6293 186.552 69.2213 186.552 69.872C186.552 70.5333 186.461 71.1307 186.28 71.664C186.098 72.1867 185.842 72.64 185.512 73.024C185.181 73.3973 184.786 73.6853 184.328 73.888C183.88 74.0907 183.378 74.192 182.824 74.192ZM182.824 73.056C183.517 73.056 184.082 72.8427 184.52 72.416C184.957 71.9893 185.176 71.3387 185.176 70.464V69.28C185.176 68.4053 184.957 67.7547 184.52 67.328C184.082 66.9013 183.517 66.688 182.824 66.688C182.13 66.688 181.565 66.9013 181.128 67.328C180.69 67.7547 180.472 68.4053 180.472 69.28V70.464C180.472 71.3387 180.69 71.9893 181.128 72.416C181.565 72.8427 182.13 73.056 182.824 73.056ZM190.017 74C189.569 74 189.228 73.8773 188.993 73.632C188.769 73.376 188.657 73.056 188.657 72.672V62.16H189.937V72.88H191.153V74H190.017ZM196.136 74.192C195.582 74.192 195.075 74.0907 194.616 73.888C194.158 73.6853 193.763 73.3973 193.432 73.024C193.112 72.64 192.862 72.1867 192.68 71.664C192.499 71.1307 192.408 70.5333 192.408 69.872C192.408 69.2213 192.499 68.6293 192.68 68.096C192.862 67.5627 193.112 67.1093 193.432 66.736C193.763 66.352 194.158 66.0587 194.616 65.856C195.075 65.6533 195.582 65.552 196.136 65.552C196.691 65.552 197.192 65.6533 197.64 65.856C198.099 66.0587 198.494 66.352 198.824 66.736C199.155 67.1093 199.411 67.5627 199.592 68.096C199.774 68.6293 199.864 69.2213 199.864 69.872C199.864 70.5333 199.774 71.1307 199.592 71.664C199.411 72.1867 199.155 72.64 198.824 73.024C198.494 73.3973 198.099 73.6853 197.64 73.888C197.192 74.0907 196.691 74.192 196.136 74.192ZM196.136 73.056C196.83 73.056 197.395 72.8427 197.832 72.416C198.27 71.9893 198.488 71.3387 198.488 70.464V69.28C198.488 68.4053 198.27 67.7547 197.832 67.328C197.395 66.9013 196.83 66.688 196.136 66.688C195.443 66.688 194.878 66.9013 194.44 67.328C194.003 67.7547 193.784 68.4053 193.784 69.28V70.464C193.784 71.3387 194.003 71.9893 194.44 72.416C194.878 72.8427 195.443 73.056 196.136 73.056ZM201.969 74V65.744H203.249V67.264H203.329C203.479 66.8693 203.745 66.5173 204.129 66.208C204.513 65.8987 205.041 65.744 205.713 65.744H206.209V67.024H205.457C204.764 67.024 204.22 67.1573 203.825 67.424C203.441 67.68 203.249 68.0053 203.249 68.4V74H201.969ZM214.106 74.192C213.338 74.192 212.692 74.048 212.17 73.76C211.658 73.4613 211.215 73.0667 210.842 72.576L211.754 71.84C212.074 72.2453 212.431 72.56 212.826 72.784C213.22 72.9973 213.679 73.104 214.202 73.104C214.746 73.104 215.167 72.9867 215.466 72.752C215.775 72.5173 215.93 72.1867 215.93 71.76C215.93 71.44 215.823 71.168 215.61 70.944C215.407 70.7093 215.034 70.5493 214.49 70.464L213.834 70.368C213.45 70.3147 213.098 70.2347 212.778 70.128C212.458 70.0107 212.175 69.8613 211.93 69.68C211.695 69.488 211.508 69.2533 211.37 68.976C211.242 68.6987 211.178 68.368 211.178 67.984C211.178 67.5787 211.252 67.2267 211.402 66.928C211.551 66.6187 211.754 66.3627 212.01 66.16C212.276 65.9573 212.591 65.808 212.954 65.712C213.316 65.6053 213.706 65.552 214.122 65.552C214.794 65.552 215.354 65.6693 215.802 65.904C216.26 66.1387 216.66 66.464 217.002 66.88L216.154 67.648C215.972 67.392 215.706 67.1627 215.354 66.96C215.002 66.7467 214.559 66.64 214.026 66.64C213.492 66.64 213.087 66.7573 212.81 66.992C212.543 67.216 212.41 67.5253 212.41 67.92C212.41 68.3253 212.543 68.6187 212.81 68.8C213.087 68.9813 213.482 69.1147 213.994 69.2L214.634 69.296C215.551 69.4347 216.202 69.7013 216.586 70.096C216.97 70.48 217.162 70.9867 217.162 71.616C217.162 72.416 216.89 73.0453 216.346 73.504C215.802 73.9627 215.055 74.192 214.106 74.192ZM220.062 63.808C219.785 63.808 219.583 63.744 219.455 63.616C219.337 63.4773 219.279 63.3013 219.279 63.088V62.88C219.279 62.6667 219.337 62.496 219.455 62.368C219.583 62.2293 219.785 62.16 220.062 62.16C220.34 62.16 220.537 62.2293 220.655 62.368C220.783 62.496 220.847 62.6667 220.847 62.88V63.088C220.847 63.3013 220.783 63.4773 220.655 63.616C220.537 63.744 220.34 63.808 220.062 63.808ZM219.423 65.744H220.703V74H219.423V65.744ZM225.247 74C224.799 74 224.457 73.8773 224.223 73.632C223.999 73.376 223.887 73.0453 223.887 72.64V66.864H222.527V65.744H223.295C223.572 65.744 223.759 65.6907 223.855 65.584C223.961 65.4667 224.015 65.2693 224.015 64.992V63.456H225.167V65.744H226.975V66.864H225.167V72.88H226.847V74H225.247ZM238.813 74C238.333 74 237.986 73.872 237.773 73.616C237.57 73.36 237.442 73.04 237.389 72.656H237.309C237.128 73.168 236.829 73.552 236.413 73.808C235.997 74.064 235.501 74.192 234.925 74.192C234.05 74.192 233.368 73.968 232.877 73.52C232.397 73.072 232.157 72.464 232.157 71.696C232.157 70.9173 232.44 70.32 233.005 69.904C233.581 69.488 234.472 69.28 235.677 69.28H237.309V68.464C237.309 67.8773 237.149 67.4293 236.829 67.12C236.509 66.8107 236.018 66.656 235.357 66.656C234.856 66.656 234.434 66.768 234.093 66.992C233.762 67.216 233.485 67.5147 233.261 67.888L232.493 67.168C232.717 66.72 233.074 66.3413 233.565 66.032C234.056 65.712 234.674 65.552 235.421 65.552C236.424 65.552 237.202 65.7973 237.757 66.288C238.312 66.7787 238.589 67.4613 238.589 68.336V72.88H239.533V74H238.813ZM235.133 73.104C235.453 73.104 235.746 73.0667 236.013 72.992C236.28 72.9173 236.509 72.8107 236.701 72.672C236.893 72.5333 237.042 72.3733 237.149 72.192C237.256 72.0107 237.309 71.8133 237.309 71.6V70.24H235.613C234.877 70.24 234.338 70.3467 233.997 70.56C233.666 70.7733 233.501 71.0827 233.501 71.488V71.824C233.501 72.2293 233.645 72.544 233.933 72.768C234.232 72.992 234.632 73.104 235.133 73.104ZM241.36 74V65.744H242.64V67.088H242.704C242.8 66.8747 242.907 66.6773 243.024 66.496C243.152 66.304 243.301 66.1387 243.472 66C243.653 65.8613 243.861 65.7547 244.096 65.68C244.331 65.5947 244.608 65.552 244.928 65.552C245.472 65.552 245.973 65.6853 246.432 65.952C246.891 66.208 247.232 66.6347 247.456 67.232H247.488C247.637 66.784 247.915 66.3947 248.32 66.064C248.736 65.7227 249.296 65.552 250 65.552C250.843 65.552 251.499 65.8293 251.968 66.384C252.448 66.928 252.688 67.7013 252.688 68.704V74H251.408V68.928C251.408 68.192 251.264 67.6373 250.976 67.264C250.688 66.8907 250.229 66.704 249.6 66.704C249.344 66.704 249.099 66.736 248.864 66.8C248.64 66.864 248.437 66.96 248.256 67.088C248.075 67.216 247.931 67.3813 247.824 67.584C247.717 67.776 247.664 68.0053 247.664 68.272V74H246.384V68.928C246.384 68.192 246.24 67.6373 245.952 67.264C245.664 66.8907 245.216 66.704 244.608 66.704C244.352 66.704 244.107 66.736 243.872 66.8C243.637 66.864 243.429 66.96 243.248 67.088C243.067 67.216 242.917 67.3813 242.8 67.584C242.693 67.776 242.64 68.0053 242.64 68.272V74H241.36ZM258.433 74.192C257.867 74.192 257.355 74.0907 256.897 73.888C256.449 73.6853 256.059 73.3973 255.729 73.024C255.409 72.64 255.158 72.1867 254.977 71.664C254.806 71.1307 254.721 70.5333 254.721 69.872C254.721 69.2213 254.806 68.6293 254.977 68.096C255.158 67.5627 255.409 67.1093 255.729 66.736C256.059 66.352 256.449 66.0587 256.897 65.856C257.355 65.6533 257.867 65.552 258.433 65.552C258.987 65.552 259.483 65.6533 259.921 65.856C260.358 66.0587 260.731 66.3413 261.041 66.704C261.35 67.056 261.585 67.4773 261.745 67.968C261.915 68.4587 262.001 68.9973 262.001 69.584V70.192H256.065V70.576C256.065 70.928 256.118 71.2587 256.225 71.568C256.342 71.8667 256.502 72.128 256.705 72.352C256.918 72.576 257.174 72.752 257.473 72.88C257.782 73.008 258.129 73.072 258.513 73.072C259.035 73.072 259.489 72.9493 259.873 72.704C260.267 72.4587 260.571 72.1067 260.785 71.648L261.697 72.304C261.43 72.8693 261.014 73.328 260.449 73.68C259.883 74.0213 259.211 74.192 258.433 74.192ZM258.433 66.624C258.081 66.624 257.761 66.688 257.473 66.816C257.185 66.9333 256.934 67.104 256.721 67.328C256.518 67.552 256.358 67.8187 256.241 68.128C256.123 68.4267 256.065 68.7573 256.065 69.12V69.232H260.625V69.056C260.625 68.32 260.422 67.7333 260.017 67.296C259.622 66.848 259.094 66.624 258.433 66.624ZM265.934 74C265.486 74 265.145 73.8773 264.91 73.632C264.686 73.376 264.574 73.0453 264.574 72.64V66.864H263.214V65.744H263.982C264.259 65.744 264.446 65.6907 264.542 65.584C264.649 65.4667 264.702 65.2693 264.702 64.992V63.456H265.854V65.744H267.662V66.864H265.854V72.88H267.534V74H265.934ZM270.535 72.128C270.877 72.128 271.122 72.2187 271.271 72.4C271.431 72.5707 271.511 72.7947 271.511 73.072V73.296C271.511 73.7333 271.383 74.2133 271.127 74.736C270.871 75.2693 270.514 75.7333 270.055 76.128H268.983C269.303 75.7867 269.559 75.4613 269.751 75.152C269.954 74.8533 270.098 74.5173 270.183 74.144C269.97 74.0907 269.81 73.9893 269.703 73.84C269.607 73.6907 269.559 73.5093 269.559 73.296V73.072C269.559 72.7947 269.634 72.5707 269.783 72.4C269.943 72.2187 270.194 72.128 270.535 72.128ZM280.34 74.192C279.572 74.192 278.927 74.048 278.404 73.76C277.892 73.4613 277.449 73.0667 277.076 72.576L277.988 71.84C278.308 72.2453 278.665 72.56 279.06 72.784C279.455 72.9973 279.913 73.104 280.436 73.104C280.98 73.104 281.401 72.9867 281.7 72.752C282.009 72.5173 282.164 72.1867 282.164 71.76C282.164 71.44 282.057 71.168 281.844 70.944C281.641 70.7093 281.268 70.5493 280.724 70.464L280.068 70.368C279.684 70.3147 279.332 70.2347 279.012 70.128C278.692 70.0107 278.409 69.8613 278.164 69.68C277.929 69.488 277.743 69.2533 277.604 68.976C277.476 68.6987 277.412 68.368 277.412 67.984C277.412 67.5787 277.487 67.2267 277.636 66.928C277.785 66.6187 277.988 66.3627 278.244 66.16C278.511 65.9573 278.825 65.808 279.188 65.712C279.551 65.6053 279.94 65.552 280.356 65.552C281.028 65.552 281.588 65.6693 282.036 65.904C282.495 66.1387 282.895 66.464 283.236 66.88L282.388 67.648C282.207 67.392 281.94 67.1627 281.588 66.96C281.236 66.7467 280.793 66.64 280.26 66.64C279.727 66.64 279.321 66.7573 279.044 66.992C278.777 67.216 278.644 67.5253 278.644 67.92C278.644 68.3253 278.777 68.6187 279.044 68.8C279.321 68.9813 279.716 69.1147 280.228 69.2L280.868 69.296C281.785 69.4347 282.436 69.7013 282.82 70.096C283.204 70.48 283.396 70.9867 283.396 71.616C283.396 72.416 283.124 73.0453 282.58 73.504C282.036 73.9627 281.289 74.192 280.34 74.192ZM288.761 74.192C288.196 74.192 287.684 74.0907 287.225 73.888C286.777 73.6853 286.388 73.3973 286.057 73.024C285.737 72.64 285.486 72.1867 285.305 71.664C285.134 71.1307 285.049 70.5333 285.049 69.872C285.049 69.2213 285.134 68.6293 285.305 68.096C285.486 67.5627 285.737 67.1093 286.057 66.736C286.388 66.352 286.777 66.0587 287.225 65.856C287.684 65.6533 288.196 65.552 288.761 65.552C289.316 65.552 289.812 65.6533 290.249 65.856C290.686 66.0587 291.06 66.3413 291.369 66.704C291.678 67.056 291.913 67.4773 292.073 67.968C292.244 68.4587 292.329 68.9973 292.329 69.584V70.192H286.393V70.576C286.393 70.928 286.446 71.2587 286.553 71.568C286.67 71.8667 286.83 72.128 287.033 72.352C287.246 72.576 287.502 72.752 287.801 72.88C288.11 73.008 288.457 73.072 288.841 73.072C289.364 73.072 289.817 72.9493 290.201 72.704C290.596 72.4587 290.9 72.1067 291.113 71.648L292.025 72.304C291.758 72.8693 291.342 73.328 290.777 73.68C290.212 74.0213 289.54 74.192 288.761 74.192ZM288.761 66.624C288.409 66.624 288.089 66.688 287.801 66.816C287.513 66.9333 287.262 67.104 287.049 67.328C286.846 67.552 286.686 67.8187 286.569 68.128C286.452 68.4267 286.393 68.7573 286.393 69.12V69.232H290.953V69.056C290.953 68.32 290.75 67.7333 290.345 67.296C289.95 66.848 289.422 66.624 288.761 66.624ZM299.718 72.656H299.654C299.153 73.68 298.347 74.192 297.238 74.192C296.726 74.192 296.262 74.0907 295.846 73.888C295.43 73.6853 295.073 73.3973 294.774 73.024C294.486 72.6507 294.262 72.1973 294.102 71.664C293.953 71.1307 293.878 70.5333 293.878 69.872C293.878 69.2107 293.953 68.6133 294.102 68.08C294.262 67.5467 294.486 67.0933 294.774 66.72C295.073 66.3467 295.43 66.0587 295.846 65.856C296.262 65.6533 296.726 65.552 297.238 65.552C297.814 65.552 298.305 65.68 298.71 65.936C299.126 66.1813 299.441 66.5653 299.654 67.088H299.718V62.16H300.998V74H299.718V72.656ZM297.59 73.04C297.878 73.04 298.15 73.0027 298.406 72.928C298.673 72.8533 298.902 72.7467 299.094 72.608C299.286 72.4587 299.435 72.2827 299.542 72.08C299.659 71.8667 299.718 71.6267 299.718 71.36V68.288C299.718 68.064 299.659 67.856 299.542 67.664C299.435 67.4613 299.286 67.2907 299.094 67.152C298.902 67.0133 298.673 66.9067 298.406 66.832C298.15 66.7467 297.878 66.704 297.59 66.704C296.865 66.704 296.294 66.9333 295.878 67.392C295.462 67.84 295.254 68.432 295.254 69.168V70.576C295.254 71.312 295.462 71.9093 295.878 72.368C296.294 72.816 296.865 73.04 297.59 73.04ZM312.589 72.656H312.525C312.439 72.848 312.333 73.04 312.205 73.232C312.087 73.4133 311.938 73.5787 311.757 73.728C311.575 73.8667 311.357 73.9787 311.101 74.064C310.845 74.1493 310.546 74.192 310.205 74.192C309.351 74.192 308.674 73.92 308.173 73.376C307.671 72.8213 307.421 72.0427 307.421 71.04V65.744H308.701V70.816C308.701 72.2987 309.33 73.04 310.589 73.04C310.845 73.04 311.09 73.008 311.325 72.944C311.57 72.88 311.783 72.784 311.965 72.656C312.157 72.528 312.306 72.368 312.413 72.176C312.53 71.9733 312.589 71.7333 312.589 71.456V65.744H313.869V74H312.589V72.656ZM318.418 74C317.97 74 317.629 73.8773 317.394 73.632C317.17 73.376 317.058 73.0453 317.058 72.64V66.864H315.698V65.744H316.466C316.744 65.744 316.93 65.6907 317.026 65.584C317.133 65.4667 317.186 65.2693 317.186 64.992V63.456H318.338V65.744H320.146V66.864H318.338V72.88H320.018V74H318.418ZM73.36 89.744H74.64V91.088H74.704C74.9173 90.5653 75.2267 90.1813 75.632 89.936C76.048 89.68 76.544 89.552 77.12 89.552C77.632 89.552 78.096 89.6533 78.512 89.856C78.928 90.0587 79.28 90.3467 79.568 90.72C79.8667 91.0933 80.0907 91.5467 80.24 92.08C80.4 92.6133 80.48 93.2107 80.48 93.872C80.48 94.5333 80.4 95.1307 80.24 95.664C80.0907 96.1973 79.8667 96.6507 79.568 97.024C79.28 97.3973 78.928 97.6853 78.512 97.888C78.096 98.0907 77.632 98.192 77.12 98.192C76 98.192 75.1947 97.68 74.704 96.656H74.64V101.2H73.36V89.744ZM76.768 97.04C77.4933 97.04 78.064 96.816 78.48 96.368C78.896 95.9093 79.104 95.312 79.104 94.576V93.168C79.104 92.432 78.896 91.84 78.48 91.392C78.064 90.9333 77.4933 90.704 76.768 90.704C76.48 90.704 76.2027 90.7467 75.936 90.832C75.68 90.9067 75.456 91.0133 75.264 91.152C75.072 91.2907 74.9173 91.4613 74.8 91.664C74.6933 91.856 74.64 92.064 74.64 92.288V95.36C74.64 95.6267 74.6933 95.8667 74.8 96.08C74.9173 96.2827 75.072 96.4587 75.264 96.608C75.456 96.7467 75.68 96.8533 75.936 96.928C76.2027 97.0027 76.48 97.04 76.768 97.04ZM85.7453 98.192C85.1799 98.192 84.6679 98.0907 84.2093 97.888C83.7613 97.6853 83.3719 97.3973 83.0413 97.024C82.7213 96.64 82.4706 96.1867 82.2893 95.664C82.1186 95.1307 82.0333 94.5333 82.0333 93.872C82.0333 93.2213 82.1186 92.6293 82.2893 92.096C82.4706 91.5627 82.7213 91.1093 83.0413 90.736C83.3719 90.352 83.7613 90.0587 84.2093 89.856C84.6679 89.6533 85.1799 89.552 85.7453 89.552C86.2999 89.552 86.7959 89.6533 87.2333 89.856C87.6706 90.0587 88.0439 90.3413 88.3533 90.704C88.6626 91.056 88.8973 91.4773 89.0573 91.968C89.2279 92.4587 89.3133 92.9973 89.3133 93.584V94.192H83.3773V94.576C83.3773 94.928 83.4306 95.2587 83.5373 95.568C83.6546 95.8667 83.8146 96.128 84.0173 96.352C84.2306 96.576 84.4866 96.752 84.7853 96.88C85.0946 97.008 85.4413 97.072 85.8253 97.072C86.3479 97.072 86.8013 96.9493 87.1853 96.704C87.5799 96.4587 87.8839 96.1067 88.0973 95.648L89.0093 96.304C88.7426 96.8693 88.3266 97.328 87.7613 97.68C87.1959 98.0213 86.5239 98.192 85.7453 98.192ZM85.7453 90.624C85.3933 90.624 85.0733 90.688 84.7853 90.816C84.4973 90.9333 84.2466 91.104 84.0333 91.328C83.8306 91.552 83.6706 91.8187 83.5533 92.128C83.4359 92.4267 83.3773 92.7573 83.3773 93.12V93.232H87.9373V93.056C87.9373 92.32 87.7346 91.7333 87.3293 91.296C86.9346 90.848 86.4066 90.624 85.7453 90.624ZM91.4225 98V89.744H92.7025V91.264H92.7825C92.9318 90.8693 93.1985 90.5173 93.5825 90.208C93.9665 89.8987 94.4945 89.744 95.1665 89.744H95.6625V91.024H94.9105C94.2172 91.024 93.6732 91.1573 93.2785 91.424C92.8945 91.68 92.7025 92.0053 92.7025 92.4V98H91.4225ZM99.7775 98.192C99.0095 98.192 98.3642 98.048 97.8415 97.76C97.3295 97.4613 96.8868 97.0667 96.5135 96.576L97.4255 95.84C97.7455 96.2453 98.1028 96.56 98.4975 96.784C98.8922 96.9973 99.3508 97.104 99.8735 97.104C100.418 97.104 100.839 96.9867 101.138 96.752C101.447 96.5173 101.602 96.1867 101.602 95.76C101.602 95.44 101.495 95.168 101.282 94.944C101.079 94.7093 100.706 94.5493 100.161 94.464L99.5055 94.368C99.1215 94.3147 98.7695 94.2347 98.4495 94.128C98.1295 94.0107 97.8468 93.8613 97.6015 93.68C97.3668 93.488 97.1802 93.2533 97.0415 92.976C96.9135 92.6987 96.8495 92.368 96.8495 91.984C96.8495 91.5787 96.9242 91.2267 97.0735 90.928C97.2228 90.6187 97.4255 90.3627 97.6815 90.16C97.9482 89.9573 98.2628 89.808 98.6255 89.712C98.9882 89.6053 99.3775 89.552 99.7935 89.552C100.466 89.552 101.026 89.6693 101.474 89.904C101.932 90.1387 102.332 90.464 102.674 90.88L101.826 91.648C101.644 91.392 101.378 91.1627 101.026 90.96C100.674 90.7467 100.231 90.64 99.6975 90.64C99.1642 90.64 98.7588 90.7573 98.4815 90.992C98.2148 91.216 98.0815 91.5253 98.0815 91.92C98.0815 92.3253 98.2148 92.6187 98.4815 92.8C98.7588 92.9813 99.1535 93.1147 99.6655 93.2L100.306 93.296C101.223 93.4347 101.874 93.7013 102.258 94.096C102.642 94.48 102.834 94.9867 102.834 95.616C102.834 96.416 102.562 97.0453 102.018 97.504C101.474 97.9627 100.727 98.192 99.7775 98.192ZM105.094 89.744H106.374V91.088H106.438C106.652 90.5653 106.961 90.1813 107.366 89.936C107.782 89.68 108.278 89.552 108.854 89.552C109.366 89.552 109.83 89.6533 110.246 89.856C110.662 90.0587 111.014 90.3467 111.302 90.72C111.601 91.0933 111.825 91.5467 111.974 92.08C112.134 92.6133 112.214 93.2107 112.214 93.872C112.214 94.5333 112.134 95.1307 111.974 95.664C111.825 96.1973 111.601 96.6507 111.302 97.024C111.014 97.3973 110.662 97.6853 110.246 97.888C109.83 98.0907 109.366 98.192 108.854 98.192C107.734 98.192 106.929 97.68 106.438 96.656H106.374V101.2H105.094V89.744ZM108.502 97.04C109.228 97.04 109.798 96.816 110.214 96.368C110.63 95.9093 110.838 95.312 110.838 94.576V93.168C110.838 92.432 110.63 91.84 110.214 91.392C109.798 90.9333 109.228 90.704 108.502 90.704C108.214 90.704 107.937 90.7467 107.67 90.832C107.414 90.9067 107.19 91.0133 106.998 91.152C106.806 91.2907 106.652 91.4613 106.534 91.664C106.428 91.856 106.374 92.064 106.374 92.288V95.36C106.374 95.6267 106.428 95.8667 106.534 96.08C106.652 96.2827 106.806 96.4587 106.998 96.608C107.19 96.7467 107.414 96.8533 107.67 96.928C107.937 97.0027 108.214 97.04 108.502 97.04ZM115.016 87.808C114.738 87.808 114.536 87.744 114.408 87.616C114.29 87.4773 114.232 87.3013 114.232 87.088V86.88C114.232 86.6667 114.29 86.496 114.408 86.368C114.536 86.2293 114.738 86.16 115.016 86.16C115.293 86.16 115.49 86.2293 115.608 86.368C115.736 86.496 115.8 86.6667 115.8 86.88V87.088C115.8 87.3013 115.736 87.4773 115.608 87.616C115.49 87.744 115.293 87.808 115.016 87.808ZM114.376 89.744H115.656V98H114.376V89.744ZM121.448 98.192C120.872 98.192 120.354 98.0907 119.896 97.888C119.437 97.6853 119.048 97.3973 118.728 97.024C118.418 96.6507 118.178 96.1973 118.008 95.664C117.848 95.1307 117.768 94.5333 117.768 93.872C117.768 93.2107 117.848 92.6133 118.008 92.08C118.178 91.5467 118.418 91.0933 118.728 90.72C119.048 90.3467 119.437 90.0587 119.896 89.856C120.354 89.6533 120.872 89.552 121.448 89.552C122.269 89.552 122.925 89.7333 123.416 90.096C123.917 90.448 124.29 90.912 124.536 91.488L123.464 92.032C123.314 91.6053 123.069 91.2747 122.728 91.04C122.386 90.8053 121.96 90.688 121.448 90.688C121.064 90.688 120.728 90.752 120.44 90.88C120.152 90.9973 119.912 91.168 119.72 91.392C119.528 91.6053 119.384 91.8667 119.288 92.176C119.192 92.4747 119.144 92.8053 119.144 93.168V94.576C119.144 95.3013 119.336 95.8987 119.72 96.368C120.114 96.8267 120.69 97.056 121.448 97.056C122.482 97.056 123.229 96.576 123.688 95.616L124.616 96.24C124.349 96.8373 123.949 97.312 123.416 97.664C122.893 98.016 122.237 98.192 121.448 98.192ZM127.062 87.808C126.785 87.808 126.583 87.744 126.455 87.616C126.337 87.4773 126.279 87.3013 126.279 87.088V86.88C126.279 86.6667 126.337 86.496 126.455 86.368C126.583 86.2293 126.785 86.16 127.062 86.16C127.34 86.16 127.537 86.2293 127.655 86.368C127.783 86.496 127.847 86.6667 127.847 86.88V87.088C127.847 87.3013 127.783 87.4773 127.655 87.616C127.537 87.744 127.34 87.808 127.062 87.808ZM126.423 89.744H127.703V98H126.423V89.744ZM136.423 98C135.943 98 135.596 97.872 135.383 97.616C135.18 97.36 135.052 97.04 134.999 96.656H134.919C134.737 97.168 134.439 97.552 134.023 97.808C133.607 98.064 133.111 98.192 132.535 98.192C131.66 98.192 130.977 97.968 130.487 97.52C130.007 97.072 129.767 96.464 129.767 95.696C129.767 94.9173 130.049 94.32 130.615 93.904C131.191 93.488 132.081 93.28 133.286 93.28H134.919V92.464C134.919 91.8773 134.759 91.4293 134.439 91.12C134.119 90.8107 133.628 90.656 132.967 90.656C132.465 90.656 132.044 90.768 131.703 90.992C131.372 91.216 131.095 91.5147 130.871 91.888L130.103 91.168C130.327 90.72 130.684 90.3413 131.174 90.032C131.665 89.712 132.284 89.552 133.031 89.552C134.033 89.552 134.812 89.7973 135.367 90.288C135.921 90.7787 136.199 91.4613 136.199 92.336V96.88H137.142V98H136.423ZM132.743 97.104C133.063 97.104 133.356 97.0667 133.623 96.992C133.889 96.9173 134.119 96.8107 134.311 96.672C134.503 96.5333 134.652 96.3733 134.759 96.192C134.865 96.0107 134.919 95.8133 134.919 95.6V94.24H133.223C132.487 94.24 131.948 94.3467 131.607 94.56C131.276 94.7733 131.111 95.0827 131.111 95.488V95.824C131.111 96.2293 131.255 96.544 131.543 96.768C131.841 96.992 132.241 97.104 132.743 97.104ZM140.793 98C140.345 98 140.004 97.8773 139.769 97.632C139.545 97.376 139.433 97.0453 139.433 96.64V90.864H138.073V89.744H138.841C139.119 89.744 139.305 89.6907 139.401 89.584C139.508 89.4667 139.561 89.2693 139.561 88.992V87.456H140.713V89.744H142.521V90.864H140.713V96.88H142.393V98H140.793ZM145.219 87.808C144.941 87.808 144.739 87.744 144.611 87.616C144.493 87.4773 144.435 87.3013 144.435 87.088V86.88C144.435 86.6667 144.493 86.496 144.611 86.368C144.739 86.2293 144.941 86.16 145.219 86.16C145.496 86.16 145.693 86.2293 145.811 86.368C145.939 86.496 146.003 86.6667 146.003 86.88V87.088C146.003 87.3013 145.939 87.4773 145.811 87.616C145.693 87.744 145.496 87.808 145.219 87.808ZM144.579 89.744H145.859V98H144.579V89.744ZM151.059 98.192C150.291 98.192 149.645 98.048 149.123 97.76C148.611 97.4613 148.168 97.0667 147.795 96.576L148.707 95.84C149.027 96.2453 149.384 96.56 149.779 96.784C150.173 96.9973 150.632 97.104 151.155 97.104C151.699 97.104 152.12 96.9867 152.419 96.752C152.728 96.5173 152.883 96.1867 152.883 95.76C152.883 95.44 152.776 95.168 152.563 94.944C152.36 94.7093 151.987 94.5493 151.443 94.464L150.787 94.368C150.403 94.3147 150.051 94.2347 149.731 94.128C149.411 94.0107 149.128 93.8613 148.883 93.68C148.648 93.488 148.461 93.2533 148.323 92.976C148.195 92.6987 148.131 92.368 148.131 91.984C148.131 91.5787 148.205 91.2267 148.355 90.928C148.504 90.6187 148.707 90.3627 148.963 90.16C149.229 89.9573 149.544 89.808 149.907 89.712C150.269 89.6053 150.659 89.552 151.075 89.552C151.747 89.552 152.307 89.6693 152.755 89.904C153.213 90.1387 153.613 90.464 153.955 90.88L153.107 91.648C152.925 91.392 152.659 91.1627 152.307 90.96C151.955 90.7467 151.512 90.64 150.979 90.64C150.445 90.64 150.04 90.7573 149.763 90.992C149.496 91.216 149.363 91.5253 149.363 91.92C149.363 92.3253 149.496 92.6187 149.763 92.8C150.04 92.9813 150.435 93.1147 150.947 93.2L151.587 93.296C152.504 93.4347 153.155 93.7013 153.539 94.096C153.923 94.48 154.115 94.9867 154.115 95.616C154.115 96.416 153.843 97.0453 153.299 97.504C152.755 97.9627 152.008 98.192 151.059 98.192ZM165.245 96.656H165.181C165.096 96.848 164.989 97.04 164.861 97.232C164.744 97.4133 164.594 97.5787 164.413 97.728C164.232 97.8667 164.013 97.9787 163.757 98.064C163.501 98.1493 163.202 98.192 162.861 98.192C162.008 98.192 161.33 97.92 160.829 97.376C160.328 96.8213 160.077 96.0427 160.077 95.04V89.744H161.357V94.816C161.357 96.2987 161.986 97.04 163.245 97.04C163.501 97.04 163.746 97.008 163.981 96.944C164.226 96.88 164.44 96.784 164.621 96.656C164.813 96.528 164.962 96.368 165.069 96.176C165.186 95.9733 165.245 95.7333 165.245 95.456V89.744H166.525V98H165.245V96.656ZM169.251 98V89.744H170.531V91.088H170.595C170.797 90.6187 171.08 90.2453 171.443 89.968C171.816 89.6907 172.312 89.552 172.931 89.552C173.784 89.552 174.456 89.8293 174.947 90.384C175.448 90.928 175.699 91.7013 175.699 92.704V98H174.419V92.928C174.419 91.4453 173.795 90.704 172.547 90.704C172.291 90.704 172.04 90.736 171.795 90.8C171.56 90.864 171.347 90.96 171.155 91.088C170.963 91.216 170.808 91.3813 170.691 91.584C170.584 91.776 170.531 92.0053 170.531 92.272V98H169.251ZM183.624 96.656H183.56C183.059 97.68 182.254 98.192 181.144 98.192C180.632 98.192 180.168 98.0907 179.752 97.888C179.336 97.6853 178.979 97.3973 178.68 97.024C178.392 96.6507 178.168 96.1973 178.008 95.664C177.859 95.1307 177.784 94.5333 177.784 93.872C177.784 93.2107 177.859 92.6133 178.008 92.08C178.168 91.5467 178.392 91.0933 178.68 90.72C178.979 90.3467 179.336 90.0587 179.752 89.856C180.168 89.6533 180.632 89.552 181.144 89.552C181.72 89.552 182.211 89.68 182.616 89.936C183.032 90.1813 183.347 90.5653 183.56 91.088H183.624V86.16H184.904V98H183.624V96.656ZM181.496 97.04C181.784 97.04 182.056 97.0027 182.312 96.928C182.579 96.8533 182.808 96.7467 183 96.608C183.192 96.4587 183.342 96.2827 183.448 96.08C183.566 95.8667 183.624 95.6267 183.624 95.36V92.288C183.624 92.064 183.566 91.856 183.448 91.664C183.342 91.4613 183.192 91.2907 183 91.152C182.808 91.0133 182.579 90.9067 182.312 90.832C182.056 90.7467 181.784 90.704 181.496 90.704C180.771 90.704 180.2 90.9333 179.784 91.392C179.368 91.84 179.16 92.432 179.16 93.168V94.576C179.16 95.312 179.368 95.9093 179.784 96.368C180.2 96.816 180.771 97.04 181.496 97.04ZM190.73 98.192C190.164 98.192 189.652 98.0907 189.194 97.888C188.746 97.6853 188.356 97.3973 188.026 97.024C187.706 96.64 187.455 96.1867 187.274 95.664C187.103 95.1307 187.018 94.5333 187.018 93.872C187.018 93.2213 187.103 92.6293 187.274 92.096C187.455 91.5627 187.706 91.1093 188.026 90.736C188.356 90.352 188.746 90.0587 189.194 89.856C189.652 89.6533 190.164 89.552 190.73 89.552C191.284 89.552 191.78 89.6533 192.218 89.856C192.655 90.0587 193.028 90.3413 193.338 90.704C193.647 91.056 193.882 91.4773 194.042 91.968C194.212 92.4587 194.298 92.9973 194.298 93.584V94.192H188.362V94.576C188.362 94.928 188.415 95.2587 188.522 95.568C188.639 95.8667 188.799 96.128 189.002 96.352C189.215 96.576 189.471 96.752 189.77 96.88C190.079 97.008 190.426 97.072 190.81 97.072C191.332 97.072 191.786 96.9493 192.17 96.704C192.564 96.4587 192.868 96.1067 193.082 95.648L193.994 96.304C193.727 96.8693 193.311 97.328 192.746 97.68C192.18 98.0213 191.508 98.192 190.73 98.192ZM190.73 90.624C190.378 90.624 190.058 90.688 189.77 90.816C189.482 90.9333 189.231 91.104 189.018 91.328C188.815 91.552 188.655 91.8187 188.538 92.128C188.42 92.4267 188.362 92.7573 188.362 93.12V93.232H192.922V93.056C192.922 92.32 192.719 91.7333 192.314 91.296C191.919 90.848 191.391 90.624 190.73 90.624ZM203.308 98.192C202.753 98.192 202.247 98.0907 201.788 97.888C201.329 97.6853 200.935 97.3973 200.604 97.024C200.284 96.64 200.033 96.1867 199.852 95.664C199.671 95.1307 199.58 94.5333 199.58 93.872C199.58 93.2213 199.671 92.6293 199.852 92.096C200.033 91.5627 200.284 91.1093 200.604 90.736C200.935 90.352 201.329 90.0587 201.788 89.856C202.247 89.6533 202.753 89.552 203.308 89.552C203.863 89.552 204.364 89.6533 204.812 89.856C205.271 90.0587 205.665 90.352 205.996 90.736C206.327 91.1093 206.583 91.5627 206.764 92.096C206.945 92.6293 207.036 93.2213 207.036 93.872C207.036 94.5333 206.945 95.1307 206.764 95.664C206.583 96.1867 206.327 96.64 205.996 97.024C205.665 97.3973 205.271 97.6853 204.812 97.888C204.364 98.0907 203.863 98.192 203.308 98.192ZM203.308 97.056C204.001 97.056 204.567 96.8427 205.004 96.416C205.441 95.9893 205.66 95.3387 205.66 94.464V93.28C205.66 92.4053 205.441 91.7547 205.004 91.328C204.567 90.9013 204.001 90.688 203.308 90.688C202.615 90.688 202.049 90.9013 201.612 91.328C201.175 91.7547 200.956 92.4053 200.956 93.28V94.464C200.956 95.3387 201.175 95.9893 201.612 96.416C202.049 96.8427 202.615 97.056 203.308 97.056ZM209.141 98V89.744H210.421V91.088H210.485C210.581 90.8747 210.688 90.6773 210.805 90.496C210.933 90.304 211.083 90.1387 211.253 90C211.435 89.8613 211.643 89.7547 211.877 89.68C212.112 89.5947 212.389 89.552 212.709 89.552C213.253 89.552 213.755 89.6853 214.213 89.952C214.672 90.208 215.013 90.6347 215.237 91.232H215.269C215.419 90.784 215.696 90.3947 216.101 90.064C216.517 89.7227 217.077 89.552 217.781 89.552C218.624 89.552 219.28 89.8293 219.749 90.384C220.229 90.928 220.469 91.7013 220.469 92.704V98H219.189V92.928C219.189 92.192 219.045 91.6373 218.757 91.264C218.469 90.8907 218.011 90.704 217.381 90.704C217.125 90.704 216.88 90.736 216.645 90.8C216.421 90.864 216.219 90.96 216.037 91.088C215.856 91.216 215.712 91.3813 215.605 91.584C215.499 91.776 215.445 92.0053 215.445 92.272V98H214.165V92.928C214.165 92.192 214.021 91.6373 213.733 91.264C213.445 90.8907 212.997 90.704 212.389 90.704C212.133 90.704 211.888 90.736 211.653 90.8C211.419 90.864 211.211 90.96 211.029 91.088C210.848 91.216 210.699 91.3813 210.581 91.584C210.475 91.776 210.421 92.0053 210.421 92.272V98H209.141ZM223.11 98V89.744H224.39V91.088H224.454C224.657 90.6187 224.939 90.2453 225.302 89.968C225.675 89.6907 226.171 89.552 226.79 89.552C227.643 89.552 228.315 89.8293 228.806 90.384C229.307 90.928 229.558 91.7013 229.558 92.704V98H228.278V92.928C228.278 91.4453 227.654 90.704 226.406 90.704C226.15 90.704 225.899 90.736 225.654 90.8C225.419 90.864 225.206 90.96 225.014 91.088C224.822 91.216 224.667 91.3813 224.55 91.584C224.443 91.776 224.39 92.0053 224.39 92.272V98H223.11ZM232.844 87.808C232.566 87.808 232.364 87.744 232.236 87.616C232.118 87.4773 232.06 87.3013 232.06 87.088V86.88C232.06 86.6667 232.118 86.496 232.236 86.368C232.364 86.2293 232.566 86.16 232.844 86.16C233.121 86.16 233.318 86.2293 233.436 86.368C233.564 86.496 233.628 86.6667 233.628 86.88V87.088C233.628 87.3013 233.564 87.4773 233.436 87.616C233.318 87.744 233.121 87.808 232.844 87.808ZM232.204 89.744H233.484V98H232.204V89.744ZM238.684 98.192C237.916 98.192 237.27 98.048 236.748 97.76C236.236 97.4613 235.793 97.0667 235.42 96.576L236.332 95.84C236.652 96.2453 237.009 96.56 237.404 96.784C237.798 96.9973 238.257 97.104 238.78 97.104C239.324 97.104 239.745 96.9867 240.044 96.752C240.353 96.5173 240.508 96.1867 240.508 95.76C240.508 95.44 240.401 95.168 240.188 94.944C239.985 94.7093 239.612 94.5493 239.068 94.464L238.412 94.368C238.028 94.3147 237.676 94.2347 237.356 94.128C237.036 94.0107 236.753 93.8613 236.508 93.68C236.273 93.488 236.086 93.2533 235.948 92.976C235.82 92.6987 235.756 92.368 235.756 91.984C235.756 91.5787 235.83 91.2267 235.98 90.928C236.129 90.6187 236.332 90.3627 236.588 90.16C236.854 89.9573 237.169 89.808 237.532 89.712C237.894 89.6053 238.284 89.552 238.7 89.552C239.372 89.552 239.932 89.6693 240.38 89.904C240.838 90.1387 241.238 90.464 241.58 90.88L240.732 91.648C240.55 91.392 240.284 91.1627 239.932 90.96C239.58 90.7467 239.137 90.64 238.604 90.64C238.07 90.64 237.665 90.7573 237.388 90.992C237.121 91.216 236.988 91.5253 236.988 91.92C236.988 92.3253 237.121 92.6187 237.388 92.8C237.665 92.9813 238.06 93.1147 238.572 93.2L239.212 93.296C240.129 93.4347 240.78 93.7013 241.164 94.096C241.548 94.48 241.74 94.9867 241.74 95.616C241.74 96.416 241.468 97.0453 240.924 97.504C240.38 97.9627 239.633 98.192 238.684 98.192ZM248.422 87.808C248.145 87.808 247.942 87.744 247.814 87.616C247.697 87.4773 247.638 87.3013 247.638 87.088V86.88C247.638 86.6667 247.697 86.496 247.814 86.368C247.942 86.2293 248.145 86.16 248.422 86.16C248.699 86.16 248.897 86.2293 249.014 86.368C249.142 86.496 249.206 86.6667 249.206 86.88V87.088C249.206 87.3013 249.142 87.4773 249.014 87.616C248.897 87.744 248.699 87.808 248.422 87.808ZM247.782 89.744H249.062V98H247.782V89.744ZM254.262 98.192C253.494 98.192 252.849 98.048 252.326 97.76C251.814 97.4613 251.371 97.0667 250.998 96.576L251.91 95.84C252.23 96.2453 252.587 96.56 252.982 96.784C253.377 96.9973 253.835 97.104 254.358 97.104C254.902 97.104 255.323 96.9867 255.622 96.752C255.931 96.5173 256.086 96.1867 256.086 95.76C256.086 95.44 255.979 95.168 255.766 94.944C255.563 94.7093 255.19 94.5493 254.646 94.464L253.99 94.368C253.606 94.3147 253.254 94.2347 252.934 94.128C252.614 94.0107 252.331 93.8613 252.086 93.68C251.851 93.488 251.665 93.2533 251.526 92.976C251.398 92.6987 251.334 92.368 251.334 91.984C251.334 91.5787 251.409 91.2267 251.558 90.928C251.707 90.6187 251.91 90.3627 252.166 90.16C252.433 89.9573 252.747 89.808 253.11 89.712C253.473 89.6053 253.862 89.552 254.278 89.552C254.95 89.552 255.51 89.6693 255.958 89.904C256.417 90.1387 256.817 90.464 257.158 90.88L256.31 91.648C256.129 91.392 255.862 91.1627 255.51 90.96C255.158 90.7467 254.715 90.64 254.182 90.64C253.649 90.64 253.243 90.7573 252.966 90.992C252.699 91.216 252.566 91.5253 252.566 91.92C252.566 92.3253 252.699 92.6187 252.966 92.8C253.243 92.9813 253.638 93.1147 254.15 93.2L254.79 93.296C255.707 93.4347 256.358 93.7013 256.742 94.096C257.126 94.48 257.318 94.9867 257.318 95.616C257.318 96.416 257.046 97.0453 256.502 97.504C255.958 97.9627 255.211 98.192 254.262 98.192ZM261.293 98C260.845 98 260.504 97.8773 260.269 97.632C260.045 97.376 259.933 97.0453 259.933 96.64V90.864H258.573V89.744H259.341C259.619 89.744 259.805 89.6907 259.901 89.584C260.008 89.4667 260.061 89.2693 260.061 88.992V87.456H261.213V89.744H263.021V90.864H261.213V96.88H262.893V98H261.293ZM268.12 98.192C267.555 98.192 267.043 98.0907 266.584 97.888C266.136 97.6853 265.747 97.3973 265.416 97.024C265.096 96.64 264.846 96.1867 264.664 95.664C264.494 95.1307 264.408 94.5333 264.408 93.872C264.408 93.2213 264.494 92.6293 264.664 92.096C264.846 91.5627 265.096 91.1093 265.416 90.736C265.747 90.352 266.136 90.0587 266.584 89.856C267.043 89.6533 267.555 89.552 268.12 89.552C268.675 89.552 269.171 89.6533 269.608 89.856C270.046 90.0587 270.419 90.3413 270.728 90.704C271.038 91.056 271.272 91.4773 271.432 91.968C271.603 92.4587 271.688 92.9973 271.688 93.584V94.192H265.752V94.576C265.752 94.928 265.806 95.2587 265.912 95.568C266.03 95.8667 266.19 96.128 266.392 96.352C266.606 96.576 266.862 96.752 267.16 96.88C267.47 97.008 267.816 97.072 268.2 97.072C268.723 97.072 269.176 96.9493 269.56 96.704C269.955 96.4587 270.259 96.1067 270.472 95.648L271.384 96.304C271.118 96.8693 270.702 97.328 270.136 97.68C269.571 98.0213 268.899 98.192 268.12 98.192ZM268.12 90.624C267.768 90.624 267.448 90.688 267.16 90.816C266.872 90.9333 266.622 91.104 266.408 91.328C266.206 91.552 266.046 91.8187 265.928 92.128C265.811 92.4267 265.752 92.7573 265.752 93.12V93.232H270.312V93.056C270.312 92.32 270.11 91.7333 269.704 91.296C269.31 90.848 268.782 90.624 268.12 90.624ZM277.579 98V89.744H278.859V91.088H278.923C279.125 90.6187 279.408 90.2453 279.771 89.968C280.144 89.6907 280.64 89.552 281.259 89.552C282.112 89.552 282.784 89.8293 283.275 90.384C283.776 90.928 284.027 91.7013 284.027 92.704V98H282.747V92.928C282.747 91.4453 282.123 90.704 280.875 90.704C280.619 90.704 280.368 90.736 280.123 90.8C279.888 90.864 279.675 90.96 279.483 91.088C279.291 91.216 279.136 91.3813 279.019 91.584C278.912 91.776 278.859 92.0053 278.859 92.272V98H277.579ZM292.673 98C292.193 98 291.846 97.872 291.633 97.616C291.43 97.36 291.302 97.04 291.249 96.656H291.169C290.987 97.168 290.689 97.552 290.273 97.808C289.857 98.064 289.361 98.192 288.785 98.192C287.91 98.192 287.227 97.968 286.737 97.52C286.257 97.072 286.017 96.464 286.017 95.696C286.017 94.9173 286.299 94.32 286.865 93.904C287.441 93.488 288.331 93.28 289.536 93.28H291.169V92.464C291.169 91.8773 291.009 91.4293 290.689 91.12C290.369 90.8107 289.878 90.656 289.217 90.656C288.715 90.656 288.294 90.768 287.953 90.992C287.622 91.216 287.345 91.5147 287.121 91.888L286.353 91.168C286.577 90.72 286.934 90.3413 287.424 90.032C287.915 89.712 288.534 89.552 289.281 89.552C290.283 89.552 291.062 89.7973 291.617 90.288C292.171 90.7787 292.449 91.4613 292.449 92.336V96.88H293.392V98H292.673ZM288.993 97.104C289.313 97.104 289.606 97.0667 289.873 96.992C290.139 96.9173 290.369 96.8107 290.561 96.672C290.753 96.5333 290.902 96.3733 291.009 96.192C291.115 96.0107 291.169 95.8133 291.169 95.6V94.24H289.473C288.737 94.24 288.198 94.3467 287.857 94.56C287.526 94.7733 287.361 95.0827 287.361 95.488V95.824C287.361 96.2293 287.505 96.544 287.793 96.768C288.091 96.992 288.491 97.104 288.993 97.104ZM297.043 98C296.595 98 296.254 97.8773 296.019 97.632C295.795 97.376 295.683 97.0453 295.683 96.64V90.864H294.323V89.744H295.091C295.369 89.744 295.555 89.6907 295.651 89.584C295.758 89.4667 295.811 89.2693 295.811 88.992V87.456H296.963V89.744H298.771V90.864H296.963V96.88H298.643V98H297.043ZM305.917 96.656H305.853C305.767 96.848 305.661 97.04 305.533 97.232C305.415 97.4133 305.266 97.5787 305.085 97.728C304.903 97.8667 304.685 97.9787 304.429 98.064C304.173 98.1493 303.874 98.192 303.533 98.192C302.679 98.192 302.002 97.92 301.501 97.376C300.999 96.8213 300.749 96.0427 300.749 95.04V89.744H302.029V94.816C302.029 96.2987 302.658 97.04 303.917 97.04C304.173 97.04 304.418 97.008 304.653 96.944C304.898 96.88 305.111 96.784 305.293 96.656C305.485 96.528 305.634 96.368 305.741 96.176C305.858 95.9733 305.917 95.7333 305.917 95.456V89.744H307.197V98H305.917V96.656ZM312.403 98.192C311.635 98.192 310.989 98.048 310.467 97.76C309.955 97.4613 309.512 97.0667 309.139 96.576L310.051 95.84C310.371 96.2453 310.728 96.56 311.123 96.784C311.517 96.9973 311.976 97.104 312.499 97.104C313.043 97.104 313.464 96.9867 313.763 96.752C314.072 96.5173 314.227 96.1867 314.227 95.76C314.227 95.44 314.12 95.168 313.907 94.944C313.704 94.7093 313.331 94.5493 312.786 94.464L312.131 94.368C311.747 94.3147 311.395 94.2347 311.075 94.128C310.755 94.0107 310.472 93.8613 310.227 93.68C309.992 93.488 309.805 93.2533 309.667 92.976C309.539 92.6987 309.475 92.368 309.475 91.984C309.475 91.5787 309.549 91.2267 309.699 90.928C309.848 90.6187 310.051 90.3627 310.307 90.16C310.573 89.9573 310.888 89.808 311.251 89.712C311.613 89.6053 312.003 89.552 312.419 89.552C313.091 89.552 313.651 89.6693 314.099 89.904C314.557 90.1387 314.957 90.464 315.299 90.88L314.451 91.648C314.269 91.392 314.003 91.1627 313.651 90.96C313.299 90.7467 312.856 90.64 312.323 90.64C311.789 90.64 311.384 90.7573 311.107 90.992C310.84 91.216 310.707 91.5253 310.707 91.92C310.707 92.3253 310.84 92.6187 311.107 92.8C311.384 92.9813 311.779 93.1147 312.291 93.2L312.931 93.296C313.848 93.4347 314.499 93.7013 314.883 94.096C315.267 94.48 315.459 94.9867 315.459 95.616C315.459 96.416 315.187 97.0453 314.643 97.504C314.099 97.9627 313.352 98.192 312.403 98.192ZM324.605 98.192C324.039 98.192 323.527 98.0907 323.069 97.888C322.621 97.6853 322.231 97.3973 321.901 97.024C321.581 96.64 321.33 96.1867 321.149 95.664C320.978 95.1307 320.893 94.5333 320.893 93.872C320.893 93.2213 320.978 92.6293 321.149 92.096C321.33 91.5627 321.581 91.1093 321.901 90.736C322.231 90.352 322.621 90.0587 323.069 89.856C323.527 89.6533 324.039 89.552 324.605 89.552C325.159 89.552 325.655 89.6533 326.093 89.856C326.53 90.0587 326.903 90.3413 327.213 90.704C327.522 91.056 327.757 91.4773 327.917 91.968C328.087 92.4587 328.173 92.9973 328.173 93.584V94.192H322.237V94.576C322.237 94.928 322.29 95.2587 322.397 95.568C322.514 95.8667 322.674 96.128 322.877 96.352C323.09 96.576 323.346 96.752 323.645 96.88C323.954 97.008 324.301 97.072 324.685 97.072C325.207 97.072 325.661 96.9493 326.045 96.704C326.439 96.4587 326.743 96.1067 326.957 95.648L327.869 96.304C327.602 96.8693 327.186 97.328 326.621 97.68C326.055 98.0213 325.383 98.192 324.605 98.192ZM324.605 90.624C324.253 90.624 323.933 90.688 323.645 90.816C323.357 90.9333 323.106 91.104 322.893 91.328C322.69 91.552 322.53 91.8187 322.413 92.128C322.295 92.4267 322.237 92.7573 322.237 93.12V93.232H326.797V93.056C326.797 92.32 326.594 91.7333 326.189 91.296C325.794 90.848 325.266 90.624 324.605 90.624ZM330.282 98V89.744H331.562V91.264H331.642C331.791 90.8693 332.058 90.5173 332.442 90.208C332.826 89.8987 333.354 89.744 334.026 89.744H334.522V91.024H333.77C333.077 91.024 332.533 91.1573 332.138 91.424C331.754 91.68 331.562 92.0053 331.562 92.4V98H330.282ZM336.157 98V89.744H337.437V91.264H337.517C337.666 90.8693 337.933 90.5173 338.317 90.208C338.701 89.8987 339.229 89.744 339.901 89.744H340.397V91.024H339.645C338.952 91.024 338.408 91.1573 338.013 91.424C337.629 91.68 337.437 92.0053 337.437 92.4V98H336.157ZM345.074 98.192C344.519 98.192 344.012 98.0907 343.554 97.888C343.095 97.6853 342.7 97.3973 342.37 97.024C342.05 96.64 341.799 96.1867 341.618 95.664C341.436 95.1307 341.346 94.5333 341.346 93.872C341.346 93.2213 341.436 92.6293 341.618 92.096C341.799 91.5627 342.05 91.1093 342.37 90.736C342.7 90.352 343.095 90.0587 343.554 89.856C344.012 89.6533 344.519 89.552 345.074 89.552C345.628 89.552 346.13 89.6533 346.578 89.856C347.036 90.0587 347.431 90.352 347.762 90.736C348.092 91.1093 348.348 91.5627 348.53 92.096C348.711 92.6293 348.802 93.2213 348.802 93.872C348.802 94.5333 348.711 95.1307 348.53 95.664C348.348 96.1867 348.092 96.64 347.762 97.024C347.431 97.3973 347.036 97.6853 346.578 97.888C346.13 98.0907 345.628 98.192 345.074 98.192ZM345.074 97.056C345.767 97.056 346.332 96.8427 346.77 96.416C347.207 95.9893 347.426 95.3387 347.426 94.464V93.28C347.426 92.4053 347.207 91.7547 346.77 91.328C346.332 90.9013 345.767 90.688 345.074 90.688C344.38 90.688 343.815 90.9013 343.378 91.328C342.94 91.7547 342.722 92.4053 342.722 93.28V94.464C342.722 95.3387 342.94 95.9893 343.378 96.416C343.815 96.8427 344.38 97.056 345.074 97.056ZM350.907 98V89.744H352.187V91.264H352.267C352.416 90.8693 352.683 90.5173 353.067 90.208C353.451 89.8987 353.979 89.744 354.651 89.744H355.147V91.024H354.395C353.702 91.024 353.158 91.1573 352.763 91.424C352.379 91.68 352.187 92.0053 352.187 92.4V98H350.907ZM356.317 98.192C355.975 98.192 355.725 98.1067 355.565 97.936C355.415 97.7653 355.341 97.5413 355.341 97.264V97.056C355.341 96.7787 355.415 96.5547 355.565 96.384C355.725 96.2133 355.975 96.128 356.317 96.128C356.658 96.128 356.903 96.2133 357.053 96.384C357.213 96.5547 357.293 96.7787 357.293 97.056V97.264C357.293 97.5413 357.213 97.7653 357.053 97.936C356.903 98.1067 356.658 98.192 356.317 98.192Z" fill="#1A1A1A"/>
<path d="M18.46 180V159.06H22.42V176.49H30.67V180H18.46ZM39.7816 180.36C38.6616 180.36 37.6516 180.17 36.7516 179.79C35.8716 179.41 35.1116 178.86 34.4716 178.14C33.8516 177.42 33.3716 176.56 33.0316 175.56C32.6916 174.54 32.5216 173.4 32.5216 172.14C32.5216 170.88 32.6916 169.75 33.0316 168.75C33.3716 167.75 33.8516 166.9 34.4716 166.2C35.1116 165.48 35.8716 164.93 36.7516 164.55C37.6516 164.17 38.6616 163.98 39.7816 163.98C40.9016 163.98 41.9116 164.17 42.8116 164.55C43.7116 164.93 44.4716 165.48 45.0916 166.2C45.7316 166.9 46.2216 167.75 46.5616 168.75C46.9016 169.75 47.0716 170.88 47.0716 172.14C47.0716 173.4 46.9016 174.54 46.5616 175.56C46.2216 176.56 45.7316 177.42 45.0916 178.14C44.4716 178.86 43.7116 179.41 42.8116 179.79C41.9116 180.17 40.9016 180.36 39.7816 180.36ZM39.7816 177.27C40.8016 177.27 41.6016 176.96 42.1816 176.34C42.7616 175.72 43.0516 174.81 43.0516 173.61V170.7C43.0516 169.52 42.7616 168.62 42.1816 168C41.6016 167.38 40.8016 167.07 39.7816 167.07C38.7816 167.07 37.9916 167.38 37.4116 168C36.8316 168.62 36.5416 169.52 36.5416 170.7V173.61C36.5416 174.81 36.8316 175.72 37.4116 176.34C37.9916 176.96 38.7816 177.27 39.7816 177.27ZM50.4759 180V164.34H54.3159V167.58H54.4659C54.5659 167.16 54.7159 166.76 54.9159 166.38C55.1359 165.98 55.4159 165.63 55.7559 165.33C56.0959 165.03 56.4959 164.79 56.9559 164.61C57.4359 164.43 57.9859 164.34 58.6059 164.34H59.4459V167.97H58.2459C56.9459 167.97 55.9659 168.16 55.3059 168.54C54.6459 168.92 54.3159 169.54 54.3159 170.4V180H50.4759ZM68.4367 180.36C67.2767 180.36 66.2367 180.17 65.3167 179.79C64.4167 179.39 63.6467 178.84 63.0067 178.14C62.3867 177.42 61.9067 176.56 61.5667 175.56C61.2267 174.54 61.0567 173.4 61.0567 172.14C61.0567 170.9 61.2167 169.78 61.5367 168.78C61.8767 167.78 62.3567 166.93 62.9767 166.23C63.5967 165.51 64.3567 164.96 65.2567 164.58C66.1567 164.18 67.1767 163.98 68.3167 163.98C69.5367 163.98 70.5967 164.19 71.4967 164.61C72.3967 165.03 73.1367 165.6 73.7167 166.32C74.2967 167.04 74.7267 167.88 75.0067 168.84C75.3067 169.78 75.4567 170.79 75.4567 171.87V173.13H65.0467V173.52C65.0467 174.66 65.3667 175.58 66.0067 176.28C66.6467 176.96 67.5967 177.3 68.8567 177.3C69.8167 177.3 70.5967 177.1 71.1967 176.7C71.8167 176.3 72.3667 175.79 72.8467 175.17L74.9167 177.48C74.2767 178.38 73.3967 179.09 72.2767 179.61C71.1767 180.11 69.8967 180.36 68.4367 180.36ZM68.3767 166.86C67.3567 166.86 66.5467 167.2 65.9467 167.88C65.3467 168.56 65.0467 169.44 65.0467 170.52V170.76H71.4667V170.49C71.4667 169.41 71.1967 168.54 70.6567 167.88C70.1367 167.2 69.3767 166.86 68.3767 166.86ZM78.8352 180V164.34H82.6752V166.95H82.8252C83.1252 166.13 83.6052 165.43 84.2652 164.85C84.9252 164.27 85.8452 163.98 87.0252 163.98C88.1052 163.98 89.0352 164.24 89.8152 164.76C90.5952 165.28 91.1752 166.07 91.5552 167.13H91.6152C91.8952 166.25 92.4452 165.51 93.2652 164.91C94.1052 164.29 95.1552 163.98 96.4152 163.98C97.9552 163.98 99.1352 164.51 99.9552 165.57C100.795 166.63 101.215 168.14 101.215 170.1V180H97.3752V170.49C97.3752 168.25 96.5352 167.13 94.8552 167.13C94.4752 167.13 94.1052 167.19 93.7452 167.31C93.4052 167.41 93.0952 167.57 92.8152 167.79C92.5552 167.99 92.3452 168.25 92.1852 168.57C92.0252 168.87 91.9452 169.23 91.9452 169.65V180H88.1052V170.49C88.1052 168.25 87.2652 167.13 85.5852 167.13C85.2252 167.13 84.8652 167.19 84.5052 167.31C84.1652 167.41 83.8552 167.57 83.5752 167.79C83.3152 167.99 83.0952 168.25 82.9152 168.57C82.7552 168.87 82.6752 169.23 82.6752 169.65V180H78.8352ZM114.476 162.06C113.676 162.06 113.096 161.88 112.736 161.52C112.396 161.16 112.226 160.7 112.226 160.14V159.54C112.226 158.98 112.396 158.52 112.736 158.16C113.096 157.8 113.676 157.62 114.476 157.62C115.256 157.62 115.826 157.8 116.186 158.16C116.546 158.52 116.726 158.98 116.726 159.54V160.14C116.726 160.7 116.546 161.16 116.186 161.52C115.826 161.88 115.256 162.06 114.476 162.06ZM112.556 164.34H116.396V180H112.556V164.34ZM120.847 164.34H124.687V166.92H124.807C125.087 166.02 125.617 165.31 126.397 164.79C127.177 164.25 128.087 163.98 129.127 163.98C131.127 163.98 132.647 164.69 133.687 166.11C134.747 167.51 135.277 169.52 135.277 172.14C135.277 174.78 134.747 176.81 133.687 178.23C132.647 179.65 131.127 180.36 129.127 180.36C128.087 180.36 127.177 180.09 126.397 179.55C125.637 179.01 125.107 178.29 124.807 177.39H124.687V186H120.847V164.34ZM127.897 177.18C128.897 177.18 129.707 176.85 130.327 176.19C130.947 175.53 131.257 174.64 131.257 173.52V170.82C131.257 169.7 130.947 168.81 130.327 168.15C129.707 167.47 128.897 167.13 127.897 167.13C126.977 167.13 126.207 167.36 125.587 167.82C124.987 168.28 124.687 168.89 124.687 169.65V174.63C124.687 175.45 124.987 176.08 125.587 176.52C126.207 176.96 126.977 177.18 127.897 177.18ZM143.965 180.36C142.465 180.36 141.205 180.11 140.185 179.61C139.165 179.09 138.265 178.38 137.485 177.48L139.825 175.2C140.405 175.86 141.035 176.38 141.715 176.76C142.415 177.14 143.215 177.33 144.115 177.33C145.035 177.33 145.695 177.17 146.095 176.85C146.515 176.53 146.725 176.09 146.725 175.53C146.725 175.07 146.575 174.71 146.275 174.45C145.995 174.17 145.505 173.98 144.805 173.88L143.245 173.67C141.545 173.45 140.245 172.97 139.345 172.23C138.465 171.47 138.025 170.37 138.025 168.93C138.025 168.17 138.165 167.49 138.445 166.89C138.725 166.27 139.125 165.75 139.645 165.33C140.165 164.89 140.785 164.56 141.505 164.34C142.245 164.1 143.065 163.98 143.965 163.98C144.725 163.98 145.395 164.04 145.975 164.16C146.575 164.26 147.115 164.42 147.595 164.64C148.075 164.84 148.515 165.1 148.915 165.42C149.315 165.72 149.705 166.06 150.085 166.44L147.835 168.69C147.375 168.21 146.825 167.81 146.185 167.49C145.545 167.17 144.845 167.01 144.085 167.01C143.245 167.01 142.635 167.16 142.255 167.46C141.895 167.76 141.715 168.15 141.715 168.63C141.715 169.15 141.865 169.55 142.165 169.83C142.485 170.09 143.015 170.28 143.755 170.4L145.345 170.61C148.725 171.09 150.415 172.63 150.415 175.23C150.415 175.99 150.255 176.69 149.935 177.33C149.635 177.95 149.205 178.49 148.645 178.95C148.085 179.39 147.405 179.74 146.605 180C145.825 180.24 144.945 180.36 143.965 180.36ZM163.166 177.39H163.016C162.876 177.79 162.686 178.17 162.446 178.53C162.226 178.87 161.936 179.18 161.576 179.46C161.236 179.74 160.816 179.96 160.316 180.12C159.836 180.28 159.276 180.36 158.636 180.36C157.016 180.36 155.776 179.83 154.916 178.77C154.056 177.71 153.626 176.2 153.626 174.24V164.34H157.466V173.85C157.466 174.93 157.676 175.76 158.096 176.34C158.516 176.9 159.186 177.18 160.106 177.18C160.486 177.18 160.856 177.13 161.216 177.03C161.596 176.93 161.926 176.78 162.206 176.58C162.486 176.36 162.716 176.1 162.896 175.8C163.076 175.48 163.166 175.11 163.166 174.69V164.34H167.006V180H163.166V177.39ZM171.443 180V164.34H175.283V166.95H175.433C175.733 166.13 176.213 165.43 176.873 164.85C177.533 164.27 178.453 163.98 179.633 163.98C180.713 163.98 181.643 164.24 182.423 164.76C183.203 165.28 183.783 166.07 184.163 167.13H184.223C184.503 166.25 185.053 165.51 185.873 164.91C186.713 164.29 187.763 163.98 189.023 163.98C190.563 163.98 191.743 164.51 192.563 165.57C193.403 166.63 193.823 168.14 193.823 170.1V180H189.983V170.49C189.983 168.25 189.143 167.13 187.463 167.13C187.083 167.13 186.713 167.19 186.353 167.31C186.013 167.41 185.703 167.57 185.423 167.79C185.163 167.99 184.953 168.25 184.793 168.57C184.633 168.87 184.553 169.23 184.553 169.65V180H180.713V170.49C180.713 168.25 179.873 167.13 178.193 167.13C177.833 167.13 177.473 167.19 177.113 167.31C176.773 167.41 176.463 167.57 176.183 167.79C175.923 167.99 175.703 168.25 175.523 168.57C175.363 168.87 175.283 169.23 175.283 169.65V180H171.443Z" fill="#1A1A1A"/>
<rect x="16.5" y="247.5" width="159" height="39" rx="3.5" stroke="#747474"/>
<path d="M17.312 222.832H21.376C22.1013 222.832 22.7573 222.949 23.344 223.184C23.9413 223.419 24.448 223.771 24.864 224.24C25.2907 224.699 25.616 225.28 25.84 225.984C26.0747 226.677 26.192 227.488 26.192 228.416C26.192 229.344 26.0747 230.16 25.84 230.864C25.616 231.557 25.2907 232.139 24.864 232.608C24.448 233.067 23.9413 233.413 23.344 233.648C22.7573 233.883 22.1013 234 21.376 234H17.312V222.832ZM21.376 232.128C22.1653 232.128 22.7893 231.899 23.248 231.44C23.7173 230.971 23.952 230.256 23.952 229.296V227.536C23.952 226.576 23.7173 225.867 23.248 225.408C22.7893 224.939 22.1653 224.704 21.376 224.704H19.424V232.128H21.376ZM31.5273 234.192C30.9299 234.192 30.3913 234.091 29.9113 233.888C29.4419 233.685 29.0366 233.392 28.6953 233.008C28.3646 232.624 28.1086 232.165 27.9273 231.632C27.7459 231.088 27.6553 230.48 27.6553 229.808C27.6553 229.136 27.7459 228.533 27.9273 228C28.1086 227.467 28.3646 227.013 28.6953 226.64C29.0366 226.256 29.4419 225.963 29.9113 225.76C30.3913 225.557 30.9299 225.456 31.5273 225.456C32.1246 225.456 32.6633 225.557 33.1433 225.76C33.6233 225.963 34.0286 226.256 34.3593 226.64C34.7006 227.013 34.9619 227.467 35.1433 228C35.3246 228.533 35.4153 229.136 35.4153 229.808C35.4153 230.48 35.3246 231.088 35.1433 231.632C34.9619 232.165 34.7006 232.624 34.3593 233.008C34.0286 233.392 33.6233 233.685 33.1433 233.888C32.6633 234.091 32.1246 234.192 31.5273 234.192ZM31.5273 232.544C32.0713 232.544 32.4979 232.379 32.8073 232.048C33.1166 231.717 33.2713 231.232 33.2713 230.592V229.04C33.2713 228.411 33.1166 227.931 32.8073 227.6C32.4979 227.269 32.0713 227.104 31.5273 227.104C30.9939 227.104 30.5726 227.269 30.2633 227.6C29.9539 227.931 29.7993 228.411 29.7993 229.04V230.592C29.7993 231.232 29.9539 231.717 30.2633 232.048C30.5726 232.379 30.9939 232.544 31.5273 232.544ZM39.2789 234C38.5749 234 38.0575 233.824 37.7269 233.472C37.3962 233.12 37.2309 232.624 37.2309 231.984V222.16H39.2789V232.368H40.3829V234H39.2789ZM45.246 234.192C44.6487 234.192 44.11 234.091 43.63 233.888C43.1607 233.685 42.7553 233.392 42.414 233.008C42.0833 232.624 41.8273 232.165 41.646 231.632C41.4647 231.088 41.374 230.48 41.374 229.808C41.374 229.136 41.4647 228.533 41.646 228C41.8273 227.467 42.0833 227.013 42.414 226.64C42.7553 226.256 43.1607 225.963 43.63 225.76C44.11 225.557 44.6487 225.456 45.246 225.456C45.8433 225.456 46.382 225.557 46.862 225.76C47.342 225.963 47.7473 226.256 48.078 226.64C48.4193 227.013 48.6807 227.467 48.862 228C49.0433 228.533 49.134 229.136 49.134 229.808C49.134 230.48 49.0433 231.088 48.862 231.632C48.6807 232.165 48.4193 232.624 48.078 233.008C47.7473 233.392 47.342 233.685 46.862 233.888C46.382 234.091 45.8433 234.192 45.246 234.192ZM45.246 232.544C45.79 232.544 46.2167 232.379 46.526 232.048C46.8353 231.717 46.99 231.232 46.99 230.592V229.04C46.99 228.411 46.8353 227.931 46.526 227.6C46.2167 227.269 45.79 227.104 45.246 227.104C44.7127 227.104 44.2913 227.269 43.982 227.6C43.6727 227.931 43.518 228.411 43.518 229.04V230.592C43.518 231.232 43.6727 231.717 43.982 232.048C44.2913 232.379 44.7127 232.544 45.246 232.544ZM50.9496 234V225.648H52.9976V227.376H53.0776C53.131 227.152 53.211 226.939 53.3176 226.736C53.435 226.523 53.5843 226.336 53.7656 226.176C53.947 226.016 54.1603 225.888 54.4056 225.792C54.6616 225.696 54.955 225.648 55.2856 225.648H55.7336V227.584H55.0936C54.4003 227.584 53.8776 227.685 53.5256 227.888C53.1736 228.091 52.9976 228.421 52.9976 228.88V234H50.9496ZM63.7481 234.192C62.9481 234.192 62.2761 234.059 61.7321 233.792C61.1881 233.515 60.7081 233.136 60.2921 232.656L61.5401 231.44C61.8495 231.792 62.1855 232.069 62.5481 232.272C62.9215 232.475 63.3481 232.576 63.8281 232.576C64.3188 232.576 64.6708 232.491 64.8841 232.32C65.1081 232.149 65.2201 231.915 65.2201 231.616C65.2201 231.371 65.1401 231.179 64.9801 231.04C64.8308 230.891 64.5695 230.789 64.1961 230.736L63.3641 230.624C62.4575 230.507 61.7641 230.251 61.2841 229.856C60.8148 229.451 60.5801 228.864 60.5801 228.096C60.5801 227.691 60.6548 227.328 60.8041 227.008C60.9535 226.677 61.1668 226.4 61.4441 226.176C61.7215 225.941 62.0521 225.765 62.4361 225.648C62.8308 225.52 63.2681 225.456 63.7481 225.456C64.1535 225.456 64.5108 225.488 64.8201 225.552C65.1401 225.605 65.4281 225.691 65.6841 225.808C65.9401 225.915 66.1748 226.053 66.3881 226.224C66.6015 226.384 66.8095 226.565 67.0121 226.768L65.8121 227.968C65.5668 227.712 65.2735 227.499 64.9321 227.328C64.5908 227.157 64.2175 227.072 63.8121 227.072C63.3641 227.072 63.0388 227.152 62.8361 227.312C62.6441 227.472 62.5481 227.68 62.5481 227.936C62.5481 228.213 62.6281 228.427 62.7881 228.576C62.9588 228.715 63.2415 228.816 63.6361 228.88L64.4841 228.992C66.2868 229.248 67.1881 230.069 67.1881 231.456C67.1881 231.861 67.1028 232.235 66.9321 232.576C66.7721 232.907 66.5428 233.195 66.2441 233.44C65.9455 233.675 65.5828 233.861 65.1561 234C64.7401 234.128 64.2708 234.192 63.7481 234.192ZM70.0205 224.432C69.5938 224.432 69.2845 224.336 69.0925 224.144C68.9112 223.952 68.8205 223.707 68.8205 223.408V223.088C68.8205 222.789 68.9112 222.544 69.0925 222.352C69.2845 222.16 69.5938 222.064 70.0205 222.064C70.4365 222.064 70.7405 222.16 70.9325 222.352C71.1245 222.544 71.2205 222.789 71.2205 223.088V223.408C71.2205 223.707 71.1245 223.952 70.9325 224.144C70.7405 224.336 70.4365 224.432 70.0205 224.432ZM68.9965 225.648H71.0445V234H68.9965V225.648ZM76.0264 234C75.3224 234 74.7837 233.819 74.4104 233.456C74.0477 233.083 73.8664 232.555 73.8664 231.872V227.28H72.6344V225.648H73.2744C73.5837 225.648 73.7917 225.579 73.8984 225.44C74.0157 225.291 74.0744 225.072 74.0744 224.784V223.36H75.9144V225.648H77.6264V227.28H75.9144V232.368H77.4984V234H76.0264Z" fill="#1A1A1A"/>
<rect x="16.5" y="342.5" width="159" height="39" rx="3.5" stroke="#747474"/>
<path d="M24.224 329L23.328 326.152H19.36L18.48 329H16.336L20.08 317.832H22.704L26.416 329H24.224ZM21.376 319.752H21.296L19.872 324.344H22.816L21.376 319.752ZM27.934 329V320.648H29.982V322.04H30.062C30.222 321.603 30.478 321.229 30.83 320.92C31.182 320.611 31.6727 320.456 32.302 320.456C32.878 320.456 33.374 320.595 33.79 320.872C34.206 321.149 34.5153 321.571 34.718 322.136H34.75C34.8993 321.667 35.1927 321.272 35.63 320.952C36.078 320.621 36.638 320.456 37.31 320.456C38.1313 320.456 38.7607 320.739 39.198 321.304C39.646 321.869 39.87 322.675 39.87 323.72V329H37.822V323.928C37.822 322.733 37.374 322.136 36.478 322.136C36.2753 322.136 36.078 322.168 35.886 322.232C35.7047 322.285 35.5393 322.371 35.39 322.488C35.2513 322.595 35.1393 322.733 35.054 322.904C34.9687 323.064 34.926 323.256 34.926 323.48V329H32.878V323.928C32.878 322.733 32.43 322.136 31.534 322.136C31.342 322.136 31.15 322.168 30.958 322.232C30.7767 322.285 30.6113 322.371 30.462 322.488C30.3233 322.595 30.206 322.733 30.11 322.904C30.0247 323.064 29.982 323.256 29.982 323.48V329H27.934ZM45.5131 329.192C44.8945 329.192 44.3398 329.091 43.8491 328.888C43.3691 328.675 42.9585 328.381 42.6171 328.008C42.2865 327.624 42.0305 327.165 41.8491 326.632C41.6678 326.088 41.5771 325.48 41.5771 324.808C41.5771 324.147 41.6625 323.549 41.8331 323.016C42.0145 322.483 42.2705 322.029 42.6011 321.656C42.9318 321.272 43.3371 320.979 43.8171 320.776C44.2971 320.563 44.8411 320.456 45.4491 320.456C46.0998 320.456 46.6651 320.568 47.1451 320.792C47.6251 321.016 48.0198 321.32 48.3291 321.704C48.6385 322.088 48.8678 322.536 49.0171 323.048C49.1771 323.549 49.2571 324.088 49.2571 324.664V325.336H43.7051V325.544C43.7051 326.152 43.8758 326.643 44.2171 327.016C44.5585 327.379 45.0651 327.56 45.7371 327.56C46.2491 327.56 46.6651 327.453 46.9851 327.24C47.3158 327.027 47.6091 326.755 47.8651 326.424L48.9691 327.656C48.6278 328.136 48.1585 328.515 47.5611 328.792C46.9745 329.059 46.2918 329.192 45.5131 329.192ZM45.4811 321.992C44.9371 321.992 44.5051 322.173 44.1851 322.536C43.8651 322.899 43.7051 323.368 43.7051 323.944V324.072H47.1291V323.928C47.1291 323.352 46.9851 322.888 46.6971 322.536C46.4198 322.173 46.0145 321.992 45.4811 321.992ZM53.667 329C52.963 329 52.4243 328.819 52.051 328.456C51.6883 328.083 51.507 327.555 51.507 326.872V322.28H50.275V320.648H50.915C51.2243 320.648 51.4323 320.579 51.539 320.44C51.6563 320.291 51.715 320.072 51.715 319.784V318.36H53.555V320.648H55.267V322.28H53.555V327.368H55.139V329H53.667Z" fill="#1A1A1A"/>
</svg>
