<svg width="418" height="398" viewBox="0 0 418 398" fill="none" xmlns="http://www.w3.org/2000/svg">
<rect width="418" height="398" fill="white"/>
<path d="M18.46 44V23.06H22.42V40.49H30.67V44H18.46ZM39.7816 44.36C38.6616 44.36 37.6516 44.17 36.7516 43.79C35.8716 43.41 35.1116 42.86 34.4716 42.14C33.8516 41.42 33.3716 40.56 33.0316 39.56C32.6916 38.54 32.5216 37.4 32.5216 36.14C32.5216 34.88 32.6916 33.75 33.0316 32.75C33.3716 31.75 33.8516 30.9 34.4716 30.2C35.1116 29.48 35.8716 28.93 36.7516 28.55C37.6516 28.17 38.6616 27.98 39.7816 27.98C40.9016 27.98 41.9116 28.17 42.8116 28.55C43.7116 28.93 44.4716 29.48 45.0916 30.2C45.7316 30.9 46.2216 31.75 46.5616 32.75C46.9016 33.75 47.0716 34.88 47.0716 36.14C47.0716 37.4 46.9016 38.54 46.5616 39.56C46.2216 40.56 45.7316 41.42 45.0916 42.14C44.4716 42.86 43.7116 43.41 42.8116 43.79C41.9116 44.17 40.9016 44.36 39.7816 44.36ZM39.7816 41.27C40.8016 41.27 41.6016 40.96 42.1816 40.34C42.7616 39.72 43.0516 38.81 43.0516 37.61V34.7C43.0516 33.52 42.7616 32.62 42.1816 32C41.6016 31.38 40.8016 31.07 39.7816 31.07C38.7816 31.07 37.9916 31.38 37.4116 32C36.8316 32.62 36.5416 33.52 36.5416 34.7V37.61C36.5416 38.81 36.8316 39.72 37.4116 40.34C37.9916 40.96 38.7816 41.27 39.7816 41.27ZM50.4759 44V28.34H54.3159V31.58H54.4659C54.5659 31.16 54.7159 30.76 54.9159 30.38C55.1359 29.98 55.4159 29.63 55.7559 29.33C56.0959 29.03 56.4959 28.79 56.9559 28.61C57.4359 28.43 57.9859 28.34 58.6059 28.34H59.4459V31.97H58.2459C56.9459 31.97 55.9659 32.16 55.3059 32.54C54.6459 32.92 54.3159 33.54 54.3159 34.4V44H50.4759ZM68.4367 44.36C67.2767 44.36 66.2367 44.17 65.3167 43.79C64.4167 43.39 63.6467 42.84 63.0067 42.14C62.3867 41.42 61.9067 40.56 61.5667 39.56C61.2267 38.54 61.0567 37.4 61.0567 36.14C61.0567 34.9 61.2167 33.78 61.5367 32.78C61.8767 31.78 62.3567 30.93 62.9767 30.23C63.5967 29.51 64.3567 28.96 65.2567 28.58C66.1567 28.18 67.1767 27.98 68.3167 27.98C69.5367 27.98 70.5967 28.19 71.4967 28.61C72.3967 29.03 73.1367 29.6 73.7167 30.32C74.2967 31.04 74.7267 31.88 75.0067 32.84C75.3067 33.78 75.4567 34.79 75.4567 35.87V37.13H65.0467V37.52C65.0467 38.66 65.3667 39.58 66.0067 40.28C66.6467 40.96 67.5967 41.3 68.8567 41.3C69.8167 41.3 70.5967 41.1 71.1967 40.7C71.8167 40.3 72.3667 39.79 72.8467 39.17L74.9167 41.48C74.2767 42.38 73.3967 43.09 72.2767 43.61C71.1767 44.11 69.8967 44.36 68.4367 44.36ZM68.3767 30.86C67.3567 30.86 66.5467 31.2 65.9467 31.88C65.3467 32.56 65.0467 33.44 65.0467 34.52V34.76H71.4667V34.49C71.4667 33.41 71.1967 32.54 70.6567 31.88C70.1367 31.2 69.3767 30.86 68.3767 30.86ZM78.8352 44V28.34H82.6752V30.95H82.8252C83.1252 30.13 83.6052 29.43 84.2652 28.85C84.9252 28.27 85.8452 27.98 87.0252 27.98C88.1052 27.98 89.0352 28.24 89.8152 28.76C90.5952 29.28 91.1752 30.07 91.5552 31.13H91.6152C91.8952 30.25 92.4452 29.51 93.2652 28.91C94.1052 28.29 95.1552 27.98 96.4152 27.98C97.9552 27.98 99.1352 28.51 99.9552 29.57C100.795 30.63 101.215 32.14 101.215 34.1V44H97.3752V34.49C97.3752 32.25 96.5352 31.13 94.8552 31.13C94.4752 31.13 94.1052 31.19 93.7452 31.31C93.4052 31.41 93.0952 31.57 92.8152 31.79C92.5552 31.99 92.3452 32.25 92.1852 32.57C92.0252 32.87 91.9452 33.23 91.9452 33.65V44H88.1052V34.49C88.1052 32.25 87.2652 31.13 85.5852 31.13C85.2252 31.13 84.8652 31.19 84.5052 31.31C84.1652 31.41 83.8552 31.57 83.5752 31.79C83.3152 31.99 83.0952 32.25 82.9152 32.57C82.7552 32.87 82.6752 33.23 82.6752 33.65V44H78.8352ZM114.476 26.06C113.676 26.06 113.096 25.88 112.736 25.52C112.396 25.16 112.226 24.7 112.226 24.14V23.54C112.226 22.98 112.396 22.52 112.736 22.16C113.096 21.8 113.676 21.62 114.476 21.62C115.256 21.62 115.826 21.8 116.186 22.16C116.546 22.52 116.726 22.98 116.726 23.54V24.14C116.726 24.7 116.546 25.16 116.186 25.52C115.826 25.88 115.256 26.06 114.476 26.06ZM112.556 28.34H116.396V44H112.556V28.34ZM120.847 28.34H124.687V30.92H124.807C125.087 30.02 125.617 29.31 126.397 28.79C127.177 28.25 128.087 27.98 129.127 27.98C131.127 27.98 132.647 28.69 133.687 30.11C134.747 31.51 135.277 33.52 135.277 36.14C135.277 38.78 134.747 40.81 133.687 42.23C132.647 43.65 131.127 44.36 129.127 44.36C128.087 44.36 127.177 44.09 126.397 43.55C125.637 43.01 125.107 42.29 124.807 41.39H124.687V50H120.847V28.34ZM127.897 41.18C128.897 41.18 129.707 40.85 130.327 40.19C130.947 39.53 131.257 38.64 131.257 37.52V34.82C131.257 33.7 130.947 32.81 130.327 32.15C129.707 31.47 128.897 31.13 127.897 31.13C126.977 31.13 126.207 31.36 125.587 31.82C124.987 32.28 124.687 32.89 124.687 33.65V38.63C124.687 39.45 124.987 40.08 125.587 40.52C126.207 40.96 126.977 41.18 127.897 41.18ZM143.965 44.36C142.465 44.36 141.205 44.11 140.185 43.61C139.165 43.09 138.265 42.38 137.485 41.48L139.825 39.2C140.405 39.86 141.035 40.38 141.715 40.76C142.415 41.14 143.215 41.33 144.115 41.33C145.035 41.33 145.695 41.17 146.095 40.85C146.515 40.53 146.725 40.09 146.725 39.53C146.725 39.07 146.575 38.71 146.275 38.45C145.995 38.17 145.505 37.98 144.805 37.88L143.245 37.67C141.545 37.45 140.245 36.97 139.345 36.23C138.465 35.47 138.025 34.37 138.025 32.93C138.025 32.17 138.165 31.49 138.445 30.89C138.725 30.27 139.125 29.75 139.645 29.33C140.165 28.89 140.785 28.56 141.505 28.34C142.245 28.1 143.065 27.98 143.965 27.98C144.725 27.98 145.395 28.04 145.975 28.16C146.575 28.26 147.115 28.42 147.595 28.64C148.075 28.84 148.515 29.1 148.915 29.42C149.315 29.72 149.705 30.06 150.085 30.44L147.835 32.69C147.375 32.21 146.825 31.81 146.185 31.49C145.545 31.17 144.845 31.01 144.085 31.01C143.245 31.01 142.635 31.16 142.255 31.46C141.895 31.76 141.715 32.15 141.715 32.63C141.715 33.15 141.865 33.55 142.165 33.83C142.485 34.09 143.015 34.28 143.755 34.4L145.345 34.61C148.725 35.09 150.415 36.63 150.415 39.23C150.415 39.99 150.255 40.69 149.935 41.33C149.635 41.95 149.205 42.49 148.645 42.95C148.085 43.39 147.405 43.74 146.605 44C145.825 44.24 144.945 44.36 143.965 44.36ZM163.166 41.39H163.016C162.876 41.79 162.686 42.17 162.446 42.53C162.226 42.87 161.936 43.18 161.576 43.46C161.236 43.74 160.816 43.96 160.316 44.12C159.836 44.28 159.276 44.36 158.636 44.36C157.016 44.36 155.776 43.83 154.916 42.77C154.056 41.71 153.626 40.2 153.626 38.24V28.34H157.466V37.85C157.466 38.93 157.676 39.76 158.096 40.34C158.516 40.9 159.186 41.18 160.106 41.18C160.486 41.18 160.856 41.13 161.216 41.03C161.596 40.93 161.926 40.78 162.206 40.58C162.486 40.36 162.716 40.1 162.896 39.8C163.076 39.48 163.166 39.11 163.166 38.69V28.34H167.006V44H163.166V41.39ZM171.443 44V28.34H175.283V30.95H175.433C175.733 30.13 176.213 29.43 176.873 28.85C177.533 28.27 178.453 27.98 179.633 27.98C180.713 27.98 181.643 28.24 182.423 28.76C183.203 29.28 183.783 30.07 184.163 31.13H184.223C184.503 30.25 185.053 29.51 185.873 28.91C186.713 28.29 187.763 27.98 189.023 27.98C190.563 27.98 191.743 28.51 192.563 29.57C193.403 30.63 193.823 32.14 193.823 34.1V44H189.983V34.49C189.983 32.25 189.143 31.13 187.463 31.13C187.083 31.13 186.713 31.19 186.353 31.31C186.013 31.41 185.703 31.57 185.423 31.79C185.163 31.99 184.953 32.25 184.793 32.57C184.633 32.87 184.553 33.23 184.553 33.65V44H180.713V34.49C180.713 32.25 179.873 31.13 178.193 31.13C177.833 31.13 177.473 31.19 177.113 31.31C176.773 31.41 176.463 31.57 176.183 31.79C175.923 31.99 175.703 32.25 175.523 32.57C175.363 32.87 175.283 33.23 175.283 33.65V44H171.443Z" fill="#1A1A1A"/>
<path d="M17.312 86.832H21.376C22.1013 86.832 22.7573 86.9493 23.344 87.184C23.9413 87.4187 24.448 87.7707 24.864 88.24C25.2907 88.6987 25.616 89.28 25.84 89.984C26.0747 90.6773 26.192 91.488 26.192 92.416C26.192 93.344 26.0747 94.16 25.84 94.864C25.616 95.5573 25.2907 96.1387 24.864 96.608C24.448 97.0667 23.9413 97.4133 23.344 97.648C22.7573 97.8827 22.1013 98 21.376 98H17.312V86.832ZM21.376 96.128C22.1653 96.128 22.7893 95.8987 23.248 95.44C23.7173 94.9707 23.952 94.256 23.952 93.296V91.536C23.952 90.576 23.7173 89.8667 23.248 89.408C22.7893 88.9387 22.1653 88.704 21.376 88.704H19.424V96.128H21.376ZM31.5273 98.192C30.9299 98.192 30.3913 98.0907 29.9113 97.888C29.4419 97.6853 29.0366 97.392 28.6953 97.008C28.3646 96.624 28.1086 96.1653 27.9273 95.632C27.7459 95.088 27.6553 94.48 27.6553 93.808C27.6553 93.136 27.7459 92.5333 27.9273 92C28.1086 91.4667 28.3646 91.0133 28.6953 90.64C29.0366 90.256 29.4419 89.9627 29.9113 89.76C30.3913 89.5573 30.9299 89.456 31.5273 89.456C32.1246 89.456 32.6633 89.5573 33.1433 89.76C33.6233 89.9627 34.0286 90.256 34.3593 90.64C34.7006 91.0133 34.9619 91.4667 35.1433 92C35.3246 92.5333 35.4153 93.136 35.4153 93.808C35.4153 94.48 35.3246 95.088 35.1433 95.632C34.9619 96.1653 34.7006 96.624 34.3593 97.008C34.0286 97.392 33.6233 97.6853 33.1433 97.888C32.6633 98.0907 32.1246 98.192 31.5273 98.192ZM31.5273 96.544C32.0713 96.544 32.4979 96.3787 32.8073 96.048C33.1166 95.7173 33.2713 95.232 33.2713 94.592V93.04C33.2713 92.4107 33.1166 91.9307 32.8073 91.6C32.4979 91.2693 32.0713 91.104 31.5273 91.104C30.9939 91.104 30.5726 91.2693 30.2633 91.6C29.9539 91.9307 29.7993 92.4107 29.7993 93.04V94.592C29.7993 95.232 29.9539 95.7173 30.2633 96.048C30.5726 96.3787 30.9939 96.544 31.5273 96.544ZM39.2789 98C38.5749 98 38.0575 97.824 37.7269 97.472C37.3962 97.12 37.2309 96.624 37.2309 95.984V86.16H39.2789V96.368H40.3829V98H39.2789ZM45.246 98.192C44.6487 98.192 44.11 98.0907 43.63 97.888C43.1607 97.6853 42.7553 97.392 42.414 97.008C42.0833 96.624 41.8273 96.1653 41.646 95.632C41.4647 95.088 41.374 94.48 41.374 93.808C41.374 93.136 41.4647 92.5333 41.646 92C41.8273 91.4667 42.0833 91.0133 42.414 90.64C42.7553 90.256 43.1607 89.9627 43.63 89.76C44.11 89.5573 44.6487 89.456 45.246 89.456C45.8433 89.456 46.382 89.5573 46.862 89.76C47.342 89.9627 47.7473 90.256 48.078 90.64C48.4193 91.0133 48.6807 91.4667 48.862 92C49.0433 92.5333 49.134 93.136 49.134 93.808C49.134 94.48 49.0433 95.088 48.862 95.632C48.6807 96.1653 48.4193 96.624 48.078 97.008C47.7473 97.392 47.342 97.6853 46.862 97.888C46.382 98.0907 45.8433 98.192 45.246 98.192ZM45.246 96.544C45.79 96.544 46.2167 96.3787 46.526 96.048C46.8353 95.7173 46.99 95.232 46.99 94.592V93.04C46.99 92.4107 46.8353 91.9307 46.526 91.6C46.2167 91.2693 45.79 91.104 45.246 91.104C44.7127 91.104 44.2913 91.2693 43.982 91.6C43.6727 91.9307 43.518 92.4107 43.518 93.04V94.592C43.518 95.232 43.6727 95.7173 43.982 96.048C44.2913 96.3787 44.7127 96.544 45.246 96.544ZM50.9496 98V89.648H52.9976V91.376H53.0776C53.131 91.152 53.211 90.9387 53.3176 90.736C53.435 90.5227 53.5843 90.336 53.7656 90.176C53.947 90.016 54.1603 89.888 54.4056 89.792C54.6616 89.696 54.955 89.648 55.2856 89.648H55.7336V91.584H55.0936C54.4003 91.584 53.8776 91.6853 53.5256 91.888C53.1736 92.0907 52.9976 92.4213 52.9976 92.88V98H50.9496ZM63.7481 98.192C62.9481 98.192 62.2761 98.0587 61.7321 97.792C61.1881 97.5147 60.7081 97.136 60.2921 96.656L61.5401 95.44C61.8495 95.792 62.1855 96.0693 62.5481 96.272C62.9215 96.4747 63.3481 96.576 63.8281 96.576C64.3188 96.576 64.6708 96.4907 64.8841 96.32C65.1081 96.1493 65.2201 95.9147 65.2201 95.616C65.2201 95.3707 65.1401 95.1787 64.9801 95.04C64.8308 94.8907 64.5695 94.7893 64.1961 94.736L63.3641 94.624C62.4575 94.5067 61.7641 94.2507 61.2841 93.856C60.8148 93.4507 60.5801 92.864 60.5801 92.096C60.5801 91.6907 60.6548 91.328 60.8041 91.008C60.9535 90.6773 61.1668 90.4 61.4441 90.176C61.7215 89.9413 62.0521 89.7653 62.4361 89.648C62.8308 89.52 63.2681 89.456 63.7481 89.456C64.1535 89.456 64.5108 89.488 64.8201 89.552C65.1401 89.6053 65.4281 89.6907 65.6841 89.808C65.9401 89.9147 66.1748 90.0533 66.3881 90.224C66.6015 90.384 66.8095 90.5653 67.0121 90.768L65.8121 91.968C65.5668 91.712 65.2735 91.4987 64.9321 91.328C64.5908 91.1573 64.2175 91.072 63.8121 91.072C63.3641 91.072 63.0388 91.152 62.8361 91.312C62.6441 91.472 62.5481 91.68 62.5481 91.936C62.5481 92.2133 62.6281 92.4267 62.7881 92.576C62.9588 92.7147 63.2415 92.816 63.6361 92.88L64.4841 92.992C66.2868 93.248 67.1881 94.0693 67.1881 95.456C67.1881 95.8613 67.1028 96.2347 66.9321 96.576C66.7721 96.9067 66.5428 97.1947 66.2441 97.44C65.9455 97.6747 65.5828 97.8613 65.1561 98C64.7401 98.128 64.2708 98.192 63.7481 98.192ZM70.0205 88.432C69.5938 88.432 69.2845 88.336 69.0925 88.144C68.9112 87.952 68.8205 87.7067 68.8205 87.408V87.088C68.8205 86.7893 68.9112 86.544 69.0925 86.352C69.2845 86.16 69.5938 86.064 70.0205 86.064C70.4365 86.064 70.7405 86.16 70.9325 86.352C71.1245 86.544 71.2205 86.7893 71.2205 87.088V87.408C71.2205 87.7067 71.1245 87.952 70.9325 88.144C70.7405 88.336 70.4365 88.432 70.0205 88.432ZM68.9965 89.648H71.0445V98H68.9965V89.648ZM76.0264 98C75.3224 98 74.7837 97.8187 74.4104 97.456C74.0477 97.0827 73.8664 96.5547 73.8664 95.872V91.28H72.6344V89.648H73.2744C73.5837 89.648 73.7917 89.5787 73.8984 89.44C74.0157 89.2907 74.0744 89.072 74.0744 88.784V87.36H75.9144V89.648H77.6264V91.28H75.9144V96.368H77.4984V98H76.0264Z" fill="#1A1A1A"/>
<path d="M24.224 258L23.328 255.152H19.36L18.48 258H16.336L20.08 246.832H22.704L26.416 258H24.224ZM21.376 248.752H21.296L19.872 253.344H22.816L21.376 248.752ZM27.934 258V249.648H29.982V251.04H30.062C30.222 250.603 30.478 250.229 30.83 249.92C31.182 249.611 31.6727 249.456 32.302 249.456C32.878 249.456 33.374 249.595 33.79 249.872C34.206 250.149 34.5153 250.571 34.718 251.136H34.75C34.8993 250.667 35.1927 250.272 35.63 249.952C36.078 249.621 36.638 249.456 37.31 249.456C38.1313 249.456 38.7607 249.739 39.198 250.304C39.646 250.869 39.87 251.675 39.87 252.72V258H37.822V252.928C37.822 251.733 37.374 251.136 36.478 251.136C36.2753 251.136 36.078 251.168 35.886 251.232C35.7047 251.285 35.5393 251.371 35.39 251.488C35.2513 251.595 35.1393 251.733 35.054 251.904C34.9687 252.064 34.926 252.256 34.926 252.48V258H32.878V252.928C32.878 251.733 32.43 251.136 31.534 251.136C31.342 251.136 31.15 251.168 30.958 251.232C30.7767 251.285 30.6113 251.371 30.462 251.488C30.3233 251.595 30.206 251.733 30.11 251.904C30.0247 252.064 29.982 252.256 29.982 252.48V258H27.934ZM45.5131 258.192C44.8945 258.192 44.3398 258.091 43.8491 257.888C43.3691 257.675 42.9585 257.381 42.6171 257.008C42.2865 256.624 42.0305 256.165 41.8491 255.632C41.6678 255.088 41.5771 254.48 41.5771 253.808C41.5771 253.147 41.6625 252.549 41.8331 252.016C42.0145 251.483 42.2705 251.029 42.6011 250.656C42.9318 250.272 43.3371 249.979 43.8171 249.776C44.2971 249.563 44.8411 249.456 45.4491 249.456C46.0998 249.456 46.6651 249.568 47.1451 249.792C47.6251 250.016 48.0198 250.32 48.3291 250.704C48.6385 251.088 48.8678 251.536 49.0171 252.048C49.1771 252.549 49.2571 253.088 49.2571 253.664V254.336H43.7051V254.544C43.7051 255.152 43.8758 255.643 44.2171 256.016C44.5585 256.379 45.0651 256.56 45.7371 256.56C46.2491 256.56 46.6651 256.453 46.9851 256.24C47.3158 256.027 47.6091 255.755 47.8651 255.424L48.9691 256.656C48.6278 257.136 48.1585 257.515 47.5611 257.792C46.9745 258.059 46.2918 258.192 45.5131 258.192ZM45.4811 250.992C44.9371 250.992 44.5051 251.173 44.1851 251.536C43.8651 251.899 43.7051 252.368 43.7051 252.944V253.072H47.1291V252.928C47.1291 252.352 46.9851 251.888 46.6971 251.536C46.4198 251.173 46.0145 250.992 45.4811 250.992ZM53.667 258C52.963 258 52.4243 257.819 52.051 257.456C51.6883 257.083 51.507 256.555 51.507 255.872V251.28H50.275V249.648H50.915C51.2243 249.648 51.4323 249.579 51.539 249.44C51.6563 249.291 51.715 249.072 51.715 248.784V247.36H53.555V249.648H55.267V251.28H53.555V256.368H55.139V258H53.667Z" fill="#1A1A1A"/>
<rect x="16.5" y="176.5" width="159" height="39" rx="3.5" stroke="#747474"/>
<rect x="16.5" y="336.5" width="159" height="39" rx="3.5" stroke="#747474"/>
<rect width="386" height="56" transform="translate(16 112)" fill="#FFE0E0"/>
<path d="M24 112H16V168H24V112Z" fill="#CC0000"/>
<path d="M41.312 146V134.832H43.424V144.128H47.824V146H41.312ZM52.6835 146.192C52.0862 146.192 51.5475 146.091 51.0675 145.888C50.5982 145.685 50.1928 145.392 49.8515 145.008C49.5208 144.624 49.2648 144.165 49.0835 143.632C48.9022 143.088 48.8115 142.48 48.8115 141.808C48.8115 141.136 48.9022 140.533 49.0835 140C49.2648 139.467 49.5208 139.013 49.8515 138.64C50.1928 138.256 50.5982 137.963 51.0675 137.76C51.5475 137.557 52.0862 137.456 52.6835 137.456C53.2808 137.456 53.8195 137.557 54.2995 137.76C54.7795 137.963 55.1848 138.256 55.5155 138.64C55.8568 139.013 56.1182 139.467 56.2995 140C56.4808 140.533 56.5715 141.136 56.5715 141.808C56.5715 142.48 56.4808 143.088 56.2995 143.632C56.1182 144.165 55.8568 144.624 55.5155 145.008C55.1848 145.392 54.7795 145.685 54.2995 145.888C53.8195 146.091 53.2808 146.192 52.6835 146.192ZM52.6835 144.544C53.2275 144.544 53.6542 144.379 53.9635 144.048C54.2728 143.717 54.4275 143.232 54.4275 142.592V141.04C54.4275 140.411 54.2728 139.931 53.9635 139.6C53.6542 139.269 53.2275 139.104 52.6835 139.104C52.1502 139.104 51.7288 139.269 51.4195 139.6C51.1102 139.931 50.9555 140.411 50.9555 141.04V142.592C50.9555 143.232 51.1102 143.717 51.4195 144.048C51.7288 144.379 52.1502 144.544 52.6835 144.544ZM58.3871 146V137.648H60.4351V139.376H60.5151C60.5685 139.152 60.6485 138.939 60.7551 138.736C60.8725 138.523 61.0218 138.336 61.2031 138.176C61.3845 138.016 61.5978 137.888 61.8431 137.792C62.0991 137.696 62.3925 137.648 62.7231 137.648H63.1711V139.584H62.5311C61.8378 139.584 61.3151 139.685 60.9631 139.888C60.6111 140.091 60.4351 140.421 60.4351 140.88V146H58.3871ZM67.9663 146.192C67.3476 146.192 66.7929 146.091 66.3023 145.888C65.8223 145.675 65.4116 145.381 65.0703 145.008C64.7396 144.624 64.4836 144.165 64.3023 143.632C64.1209 143.088 64.0303 142.48 64.0303 141.808C64.0303 141.147 64.1156 140.549 64.2863 140.016C64.4676 139.483 64.7236 139.029 65.0543 138.656C65.3849 138.272 65.7903 137.979 66.2703 137.776C66.7503 137.563 67.2943 137.456 67.9023 137.456C68.5529 137.456 69.1183 137.568 69.5983 137.792C70.0783 138.016 70.4729 138.32 70.7823 138.704C71.0916 139.088 71.3209 139.536 71.4703 140.048C71.6303 140.549 71.7103 141.088 71.7103 141.664V142.336H66.1583V142.544C66.1583 143.152 66.3289 143.643 66.6703 144.016C67.0116 144.379 67.5183 144.56 68.1903 144.56C68.7023 144.56 69.1183 144.453 69.4383 144.24C69.7689 144.027 70.0623 143.755 70.3183 143.424L71.4223 144.656C71.0809 145.136 70.6116 145.515 70.0143 145.792C69.4276 146.059 68.7449 146.192 67.9663 146.192ZM67.9343 138.992C67.3903 138.992 66.9583 139.173 66.6383 139.536C66.3183 139.899 66.1583 140.368 66.1583 140.944V141.072H69.5823V140.928C69.5823 140.352 69.4383 139.888 69.1503 139.536C68.8729 139.173 68.4676 138.992 67.9343 138.992ZM73.5121 146V137.648H75.5601V139.04H75.6401C75.8001 138.603 76.0561 138.229 76.4081 137.92C76.7601 137.611 77.2508 137.456 77.8801 137.456C78.4561 137.456 78.9521 137.595 79.3681 137.872C79.7841 138.149 80.0935 138.571 80.2961 139.136H80.3281C80.4775 138.667 80.7708 138.272 81.2081 137.952C81.6561 137.621 82.2161 137.456 82.8881 137.456C83.7095 137.456 84.3388 137.739 84.7761 138.304C85.2241 138.869 85.4481 139.675 85.4481 140.72V146H83.4001V140.928C83.4001 139.733 82.9521 139.136 82.0561 139.136C81.8535 139.136 81.6561 139.168 81.4641 139.232C81.2828 139.285 81.1175 139.371 80.9681 139.488C80.8295 139.595 80.7175 139.733 80.6321 139.904C80.5468 140.064 80.5041 140.256 80.5041 140.48V146H78.4561V140.928C78.4561 139.733 78.0081 139.136 77.1121 139.136C76.9201 139.136 76.7281 139.168 76.5361 139.232C76.3548 139.285 76.1895 139.371 76.0401 139.488C75.9015 139.595 75.7841 139.733 75.6881 139.904C75.6028 140.064 75.5601 140.256 75.5601 140.48V146H73.5121ZM92.5205 136.432C92.0938 136.432 91.7845 136.336 91.5925 136.144C91.4112 135.952 91.3205 135.707 91.3205 135.408V135.088C91.3205 134.789 91.4112 134.544 91.5925 134.352C91.7845 134.16 92.0938 134.064 92.5205 134.064C92.9365 134.064 93.2405 134.16 93.4325 134.352C93.6245 134.544 93.7205 134.789 93.7205 135.088V135.408C93.7205 135.707 93.6245 135.952 93.4325 136.144C93.2405 136.336 92.9365 136.432 92.5205 136.432ZM91.4965 137.648H93.5445V146H91.4965V137.648ZM95.9184 137.648H97.9664V139.024H98.0304C98.1797 138.544 98.4624 138.165 98.8784 137.888C99.2944 137.6 99.7797 137.456 100.334 137.456C101.401 137.456 102.212 137.835 102.766 138.592C103.332 139.339 103.614 140.411 103.614 141.808C103.614 143.216 103.332 144.299 102.766 145.056C102.212 145.813 101.401 146.192 100.334 146.192C99.7797 146.192 99.2944 146.048 98.8784 145.76C98.473 145.472 98.1904 145.088 98.0304 144.608H97.9664V149.2H95.9184V137.648ZM99.6784 144.496C100.212 144.496 100.644 144.32 100.974 143.968C101.305 143.616 101.47 143.141 101.47 142.544V141.104C101.47 140.507 101.305 140.032 100.974 139.68C100.644 139.317 100.212 139.136 99.6784 139.136C99.1877 139.136 98.777 139.259 98.4464 139.504C98.1264 139.749 97.9664 140.075 97.9664 140.48V143.136C97.9664 143.573 98.1264 143.909 98.4464 144.144C98.777 144.379 99.1877 144.496 99.6784 144.496ZM108.248 146.192C107.448 146.192 106.776 146.059 106.232 145.792C105.688 145.515 105.208 145.136 104.792 144.656L106.04 143.44C106.349 143.792 106.685 144.069 107.048 144.272C107.421 144.475 107.848 144.576 108.328 144.576C108.819 144.576 109.171 144.491 109.384 144.32C109.608 144.149 109.72 143.915 109.72 143.616C109.72 143.371 109.64 143.179 109.48 143.04C109.331 142.891 109.069 142.789 108.696 142.736L107.864 142.624C106.957 142.507 106.264 142.251 105.784 141.856C105.315 141.451 105.08 140.864 105.08 140.096C105.08 139.691 105.155 139.328 105.304 139.008C105.453 138.677 105.667 138.4 105.944 138.176C106.221 137.941 106.552 137.765 106.936 137.648C107.331 137.52 107.768 137.456 108.248 137.456C108.653 137.456 109.011 137.488 109.32 137.552C109.64 137.605 109.928 137.691 110.184 137.808C110.44 137.915 110.675 138.053 110.888 138.224C111.101 138.384 111.309 138.565 111.512 138.768L110.312 139.968C110.067 139.712 109.773 139.499 109.432 139.328C109.091 139.157 108.717 139.072 108.312 139.072C107.864 139.072 107.539 139.152 107.336 139.312C107.144 139.472 107.048 139.68 107.048 139.936C107.048 140.213 107.128 140.427 107.288 140.576C107.459 140.715 107.741 140.816 108.136 140.88L108.984 140.992C110.787 141.248 111.688 142.069 111.688 143.456C111.688 143.861 111.603 144.235 111.432 144.576C111.272 144.907 111.043 145.195 110.744 145.44C110.445 145.675 110.083 145.861 109.656 146C109.24 146.128 108.771 146.192 108.248 146.192ZM118.489 144.608H118.409C118.334 144.821 118.233 145.024 118.105 145.216C117.987 145.397 117.833 145.563 117.641 145.712C117.459 145.861 117.235 145.979 116.969 146.064C116.713 146.149 116.414 146.192 116.073 146.192C115.209 146.192 114.547 145.909 114.089 145.344C113.63 144.779 113.401 143.973 113.401 142.928V137.648H115.449V142.72C115.449 143.296 115.561 143.739 115.785 144.048C116.009 144.347 116.366 144.496 116.857 144.496C117.059 144.496 117.257 144.469 117.449 144.416C117.651 144.363 117.827 144.283 117.977 144.176C118.126 144.059 118.249 143.92 118.345 143.76C118.441 143.589 118.489 143.392 118.489 143.168V137.648H120.536V146H118.489V144.608ZM122.903 146V137.648H124.951V139.04H125.031C125.191 138.603 125.447 138.229 125.799 137.92C126.151 137.611 126.641 137.456 127.271 137.456C127.847 137.456 128.343 137.595 128.759 137.872C129.175 138.149 129.484 138.571 129.687 139.136H129.719C129.868 138.667 130.161 138.272 130.599 137.952C131.047 137.621 131.607 137.456 132.279 137.456C133.1 137.456 133.729 137.739 134.167 138.304C134.615 138.869 134.839 139.675 134.839 140.72V146H132.791V140.928C132.791 139.733 132.343 139.136 131.447 139.136C131.244 139.136 131.047 139.168 130.855 139.232C130.673 139.285 130.508 139.371 130.359 139.488C130.22 139.595 130.108 139.733 130.023 139.904C129.937 140.064 129.895 140.256 129.895 140.48V146H127.847V140.928C127.847 139.733 127.399 139.136 126.503 139.136C126.311 139.136 126.119 139.168 125.927 139.232C125.745 139.285 125.58 139.371 125.431 139.488C125.292 139.595 125.175 139.733 125.079 139.904C124.993 140.064 124.951 140.256 124.951 140.48V146H122.903ZM146.071 144.608H145.991C145.842 145.088 145.559 145.472 145.143 145.76C144.727 146.048 144.242 146.192 143.687 146.192C142.631 146.192 141.82 145.813 141.255 145.056C140.7 144.299 140.423 143.216 140.423 141.808C140.423 140.411 140.7 139.339 141.255 138.592C141.82 137.835 142.631 137.456 143.687 137.456C144.242 137.456 144.727 137.6 145.143 137.888C145.559 138.165 145.842 138.544 145.991 139.024H146.071V134.16H148.119V146H146.071V144.608ZM144.343 144.496C144.834 144.496 145.244 144.379 145.575 144.144C145.906 143.909 146.071 143.573 146.071 143.136V140.48C146.071 140.075 145.906 139.749 145.575 139.504C145.244 139.259 144.834 139.136 144.343 139.136C143.81 139.136 143.378 139.317 143.047 139.68C142.727 140.032 142.567 140.507 142.567 141.104V142.544C142.567 143.141 142.727 143.616 143.047 143.968C143.378 144.32 143.81 144.496 144.343 144.496ZM153.793 146.192C153.196 146.192 152.657 146.091 152.177 145.888C151.708 145.685 151.302 145.392 150.961 145.008C150.63 144.624 150.374 144.165 150.193 143.632C150.012 143.088 149.921 142.48 149.921 141.808C149.921 141.136 150.012 140.533 150.193 140C150.374 139.467 150.63 139.013 150.961 138.64C151.302 138.256 151.708 137.963 152.177 137.76C152.657 137.557 153.196 137.456 153.793 137.456C154.39 137.456 154.929 137.557 155.409 137.76C155.889 137.963 156.294 138.256 156.625 138.64C156.966 139.013 157.228 139.467 157.409 140C157.59 140.533 157.681 141.136 157.681 141.808C157.681 142.48 157.59 143.088 157.409 143.632C157.228 144.165 156.966 144.624 156.625 145.008C156.294 145.392 155.889 145.685 155.409 145.888C154.929 146.091 154.39 146.192 153.793 146.192ZM153.793 144.544C154.337 144.544 154.764 144.379 155.073 144.048C155.382 143.717 155.537 143.232 155.537 142.592V141.04C155.537 140.411 155.382 139.931 155.073 139.6C154.764 139.269 154.337 139.104 153.793 139.104C153.26 139.104 152.838 139.269 152.529 139.6C152.22 139.931 152.065 140.411 152.065 141.04V142.592C152.065 143.232 152.22 143.717 152.529 144.048C152.838 144.379 153.26 144.544 153.793 144.544ZM161.545 146C160.841 146 160.323 145.824 159.993 145.472C159.662 145.12 159.497 144.624 159.497 143.984V134.16H161.545V144.368H162.649V146H161.545ZM167.512 146.192C166.914 146.192 166.376 146.091 165.896 145.888C165.426 145.685 165.021 145.392 164.68 145.008C164.349 144.624 164.093 144.165 163.912 143.632C163.73 143.088 163.64 142.48 163.64 141.808C163.64 141.136 163.73 140.533 163.912 140C164.093 139.467 164.349 139.013 164.68 138.64C165.021 138.256 165.426 137.963 165.896 137.76C166.376 137.557 166.914 137.456 167.512 137.456C168.109 137.456 168.648 137.557 169.128 137.76C169.608 137.963 170.013 138.256 170.344 138.64C170.685 139.013 170.946 139.467 171.128 140C171.309 140.533 171.4 141.136 171.4 141.808C171.4 142.48 171.309 143.088 171.128 143.632C170.946 144.165 170.685 144.624 170.344 145.008C170.013 145.392 169.608 145.685 169.128 145.888C168.648 146.091 168.109 146.192 167.512 146.192ZM167.512 144.544C168.056 144.544 168.482 144.379 168.792 144.048C169.101 143.717 169.256 143.232 169.256 142.592V141.04C169.256 140.411 169.101 139.931 168.792 139.6C168.482 139.269 168.056 139.104 167.512 139.104C166.978 139.104 166.557 139.269 166.248 139.6C165.938 139.931 165.784 140.411 165.784 141.04V142.592C165.784 143.232 165.938 143.717 166.248 144.048C166.557 144.379 166.978 144.544 167.512 144.544ZM173.215 146V137.648H175.263V139.376H175.343C175.397 139.152 175.477 138.939 175.583 138.736C175.701 138.523 175.85 138.336 176.031 138.176C176.213 138.016 176.426 137.888 176.671 137.792C176.927 137.696 177.221 137.648 177.551 137.648H177.999V139.584H177.359C176.666 139.584 176.143 139.685 175.791 139.888C175.439 140.091 175.263 140.421 175.263 140.88V146H173.215ZM186.014 146.192C185.214 146.192 184.542 146.059 183.998 145.792C183.454 145.515 182.974 145.136 182.558 144.656L183.806 143.44C184.115 143.792 184.451 144.069 184.814 144.272C185.187 144.475 185.614 144.576 186.094 144.576C186.584 144.576 186.936 144.491 187.15 144.32C187.374 144.149 187.486 143.915 187.486 143.616C187.486 143.371 187.406 143.179 187.246 143.04C187.096 142.891 186.835 142.789 186.462 142.736L185.63 142.624C184.723 142.507 184.03 142.251 183.55 141.856C183.08 141.451 182.846 140.864 182.846 140.096C182.846 139.691 182.92 139.328 183.07 139.008C183.219 138.677 183.432 138.4 183.71 138.176C183.987 137.941 184.318 137.765 184.702 137.648C185.096 137.52 185.534 137.456 186.014 137.456C186.419 137.456 186.776 137.488 187.086 137.552C187.406 137.605 187.694 137.691 187.95 137.808C188.206 137.915 188.44 138.053 188.654 138.224C188.867 138.384 189.075 138.565 189.278 138.768L188.078 139.968C187.832 139.712 187.539 139.499 187.198 139.328C186.856 139.157 186.483 139.072 186.078 139.072C185.63 139.072 185.304 139.152 185.102 139.312C184.91 139.472 184.814 139.68 184.814 139.936C184.814 140.213 184.894 140.427 185.054 140.576C185.224 140.715 185.507 140.816 185.902 140.88L186.75 140.992C188.552 141.248 189.454 142.069 189.454 143.456C189.454 143.861 189.368 144.235 189.198 144.576C189.038 144.907 188.808 145.195 188.51 145.44C188.211 145.675 187.848 145.861 187.422 146C187.006 146.128 186.536 146.192 186.014 146.192ZM192.286 136.432C191.859 136.432 191.55 136.336 191.358 136.144C191.177 135.952 191.086 135.707 191.086 135.408V135.088C191.086 134.789 191.177 134.544 191.358 134.352C191.55 134.16 191.859 134.064 192.286 134.064C192.702 134.064 193.006 134.16 193.198 134.352C193.39 134.544 193.486 134.789 193.486 135.088V135.408C193.486 135.707 193.39 135.952 193.198 136.144C193.006 136.336 192.702 136.432 192.286 136.432ZM191.262 137.648H193.31V146H191.262V137.648ZM198.292 146C197.588 146 197.049 145.819 196.676 145.456C196.313 145.083 196.132 144.555 196.132 143.872V139.28H194.9V137.648H195.54C195.849 137.648 196.057 137.579 196.164 137.44C196.281 137.291 196.34 137.072 196.34 136.784V135.36H198.18V137.648H199.892V139.28H198.18V144.368H199.764V146H198.292ZM211.594 146C211.146 146 210.788 145.872 210.522 145.616C210.266 145.349 210.106 144.997 210.042 144.56H209.946C209.807 145.104 209.524 145.515 209.098 145.792C208.671 146.059 208.143 146.192 207.514 146.192C206.66 146.192 206.004 145.968 205.546 145.52C205.087 145.072 204.858 144.475 204.858 143.728C204.858 142.864 205.167 142.224 205.786 141.808C206.404 141.381 207.284 141.168 208.426 141.168H209.85V140.56C209.85 140.091 209.727 139.728 209.482 139.472C209.236 139.216 208.842 139.088 208.298 139.088C207.818 139.088 207.428 139.195 207.13 139.408C206.842 139.611 206.596 139.856 206.394 140.144L205.178 139.056C205.487 138.576 205.898 138.192 206.41 137.904C206.922 137.605 207.599 137.456 208.442 137.456C209.572 137.456 210.431 137.712 211.018 138.224C211.604 138.736 211.898 139.472 211.898 140.432V144.368H212.73V146H211.594ZM208.202 144.704C208.66 144.704 209.05 144.603 209.37 144.4C209.69 144.197 209.85 143.899 209.85 143.504V142.4H208.538C207.471 142.4 206.938 142.741 206.938 143.424V143.696C206.938 144.037 207.044 144.293 207.258 144.464C207.482 144.624 207.796 144.704 208.202 144.704ZM214.387 146V137.648H216.435V139.04H216.515C216.675 138.603 216.931 138.229 217.283 137.92C217.635 137.611 218.126 137.456 218.755 137.456C219.331 137.456 219.827 137.595 220.243 137.872C220.659 138.149 220.968 138.571 221.171 139.136H221.203C221.352 138.667 221.646 138.272 222.083 137.952C222.531 137.621 223.091 137.456 223.763 137.456C224.584 137.456 225.214 137.739 225.651 138.304C226.099 138.869 226.323 139.675 226.323 140.72V146H224.275V140.928C224.275 139.733 223.827 139.136 222.931 139.136C222.728 139.136 222.531 139.168 222.339 139.232C222.158 139.285 221.992 139.371 221.843 139.488C221.704 139.595 221.592 139.733 221.507 139.904C221.422 140.064 221.379 140.256 221.379 140.48V146H219.331V140.928C219.331 139.733 218.883 139.136 217.987 139.136C217.795 139.136 217.603 139.168 217.411 139.232C217.23 139.285 217.064 139.371 216.915 139.488C216.776 139.595 216.659 139.733 216.563 139.904C216.478 140.064 216.435 140.256 216.435 140.48V146H214.387ZM231.966 146.192C231.348 146.192 230.793 146.091 230.302 145.888C229.822 145.675 229.412 145.381 229.07 145.008C228.74 144.624 228.484 144.165 228.302 143.632C228.121 143.088 228.03 142.48 228.03 141.808C228.03 141.147 228.116 140.549 228.286 140.016C228.468 139.483 228.724 139.029 229.054 138.656C229.385 138.272 229.79 137.979 230.27 137.776C230.75 137.563 231.294 137.456 231.902 137.456C232.553 137.456 233.118 137.568 233.598 137.792C234.078 138.016 234.473 138.32 234.782 138.704C235.092 139.088 235.321 139.536 235.47 140.048C235.63 140.549 235.71 141.088 235.71 141.664V142.336H230.158V142.544C230.158 143.152 230.329 143.643 230.67 144.016C231.012 144.379 231.518 144.56 232.19 144.56C232.702 144.56 233.118 144.453 233.438 144.24C233.769 144.027 234.062 143.755 234.318 143.424L235.422 144.656C235.081 145.136 234.612 145.515 234.014 145.792C233.428 146.059 232.745 146.192 231.966 146.192ZM231.934 138.992C231.39 138.992 230.958 139.173 230.638 139.536C230.318 139.899 230.158 140.368 230.158 140.944V141.072H233.582V140.928C233.582 140.352 233.438 139.888 233.15 139.536C232.873 139.173 232.468 138.992 231.934 138.992ZM240.12 146C239.416 146 238.877 145.819 238.504 145.456C238.141 145.083 237.96 144.555 237.96 143.872V139.28H236.728V137.648H237.368C237.677 137.648 237.885 137.579 237.992 137.44C238.109 137.291 238.168 137.072 238.168 136.784V135.36H240.008V137.648H241.72V139.28H240.008V144.368H241.592V146H240.12Z" fill="#1A1A1A"/>
<rect width="386" height="56" transform="translate(16 272)" fill="#E2F2FB"/>
<path d="M24 272H16V328H24V272Z" fill="#1B86C3"/>
<path d="M41.312 306V294.832H43.424V304.128H47.824V306H41.312ZM52.6835 306.192C52.0862 306.192 51.5475 306.091 51.0675 305.888C50.5982 305.685 50.1928 305.392 49.8515 305.008C49.5208 304.624 49.2648 304.165 49.0835 303.632C48.9022 303.088 48.8115 302.48 48.8115 301.808C48.8115 301.136 48.9022 300.533 49.0835 300C49.2648 299.467 49.5208 299.013 49.8515 298.64C50.1928 298.256 50.5982 297.963 51.0675 297.76C51.5475 297.557 52.0862 297.456 52.6835 297.456C53.2808 297.456 53.8195 297.557 54.2995 297.76C54.7795 297.963 55.1848 298.256 55.5155 298.64C55.8568 299.013 56.1182 299.467 56.2995 300C56.4808 300.533 56.5715 301.136 56.5715 301.808C56.5715 302.48 56.4808 303.088 56.2995 303.632C56.1182 304.165 55.8568 304.624 55.5155 305.008C55.1848 305.392 54.7795 305.685 54.2995 305.888C53.8195 306.091 53.2808 306.192 52.6835 306.192ZM52.6835 304.544C53.2275 304.544 53.6542 304.379 53.9635 304.048C54.2728 303.717 54.4275 303.232 54.4275 302.592V301.04C54.4275 300.411 54.2728 299.931 53.9635 299.6C53.6542 299.269 53.2275 299.104 52.6835 299.104C52.1502 299.104 51.7288 299.269 51.4195 299.6C51.1102 299.931 50.9555 300.411 50.9555 301.04V302.592C50.9555 303.232 51.1102 303.717 51.4195 304.048C51.7288 304.379 52.1502 304.544 52.6835 304.544ZM58.3871 306V297.648H60.4351V299.376H60.5151C60.5685 299.152 60.6485 298.939 60.7551 298.736C60.8725 298.523 61.0218 298.336 61.2031 298.176C61.3845 298.016 61.5978 297.888 61.8431 297.792C62.0991 297.696 62.3925 297.648 62.7231 297.648H63.1711V299.584H62.5311C61.8378 299.584 61.3151 299.685 60.9631 299.888C60.6111 300.091 60.4351 300.421 60.4351 300.88V306H58.3871ZM67.9663 306.192C67.3476 306.192 66.7929 306.091 66.3023 305.888C65.8223 305.675 65.4116 305.381 65.0703 305.008C64.7396 304.624 64.4836 304.165 64.3023 303.632C64.1209 303.088 64.0303 302.48 64.0303 301.808C64.0303 301.147 64.1156 300.549 64.2863 300.016C64.4676 299.483 64.7236 299.029 65.0543 298.656C65.3849 298.272 65.7903 297.979 66.2703 297.776C66.7503 297.563 67.2943 297.456 67.9023 297.456C68.5529 297.456 69.1183 297.568 69.5983 297.792C70.0783 298.016 70.4729 298.32 70.7823 298.704C71.0916 299.088 71.3209 299.536 71.4703 300.048C71.6303 300.549 71.7103 301.088 71.7103 301.664V302.336H66.1583V302.544C66.1583 303.152 66.3289 303.643 66.6703 304.016C67.0116 304.379 67.5183 304.56 68.1903 304.56C68.7023 304.56 69.1183 304.453 69.4383 304.24C69.7689 304.027 70.0623 303.755 70.3183 303.424L71.4223 304.656C71.0809 305.136 70.6116 305.515 70.0143 305.792C69.4276 306.059 68.7449 306.192 67.9663 306.192ZM67.9343 298.992C67.3903 298.992 66.9583 299.173 66.6383 299.536C66.3183 299.899 66.1583 300.368 66.1583 300.944V301.072H69.5823V300.928C69.5823 300.352 69.4383 299.888 69.1503 299.536C68.8729 299.173 68.4676 298.992 67.9343 298.992ZM73.5121 306V297.648H75.5601V299.04H75.6401C75.8001 298.603 76.0561 298.229 76.4081 297.92C76.7601 297.611 77.2508 297.456 77.8801 297.456C78.4561 297.456 78.9521 297.595 79.3681 297.872C79.7841 298.149 80.0935 298.571 80.2961 299.136H80.3281C80.4775 298.667 80.7708 298.272 81.2081 297.952C81.6561 297.621 82.2161 297.456 82.8881 297.456C83.7095 297.456 84.3388 297.739 84.7761 298.304C85.2241 298.869 85.4481 299.675 85.4481 300.72V306H83.4001V300.928C83.4001 299.733 82.9521 299.136 82.0561 299.136C81.8535 299.136 81.6561 299.168 81.4641 299.232C81.2828 299.285 81.1175 299.371 80.9681 299.488C80.8295 299.595 80.7175 299.733 80.6321 299.904C80.5468 300.064 80.5041 300.256 80.5041 300.48V306H78.4561V300.928C78.4561 299.733 78.0081 299.136 77.1121 299.136C76.9201 299.136 76.7281 299.168 76.5361 299.232C76.3548 299.285 76.1895 299.371 76.0401 299.488C75.9015 299.595 75.7841 299.733 75.6881 299.904C75.6028 300.064 75.5601 300.256 75.5601 300.48V306H73.5121ZM92.5205 296.432C92.0938 296.432 91.7845 296.336 91.5925 296.144C91.4112 295.952 91.3205 295.707 91.3205 295.408V295.088C91.3205 294.789 91.4112 294.544 91.5925 294.352C91.7845 294.16 92.0938 294.064 92.5205 294.064C92.9365 294.064 93.2405 294.16 93.4325 294.352C93.6245 294.544 93.7205 294.789 93.7205 295.088V295.408C93.7205 295.707 93.6245 295.952 93.4325 296.144C93.2405 296.336 92.9365 296.432 92.5205 296.432ZM91.4965 297.648H93.5445V306H91.4965V297.648ZM95.9184 297.648H97.9664V299.024H98.0304C98.1797 298.544 98.4624 298.165 98.8784 297.888C99.2944 297.6 99.7797 297.456 100.334 297.456C101.401 297.456 102.212 297.835 102.766 298.592C103.332 299.339 103.614 300.411 103.614 301.808C103.614 303.216 103.332 304.299 102.766 305.056C102.212 305.813 101.401 306.192 100.334 306.192C99.7797 306.192 99.2944 306.048 98.8784 305.76C98.473 305.472 98.1904 305.088 98.0304 304.608H97.9664V309.2H95.9184V297.648ZM99.6784 304.496C100.212 304.496 100.644 304.32 100.974 303.968C101.305 303.616 101.47 303.141 101.47 302.544V301.104C101.47 300.507 101.305 300.032 100.974 299.68C100.644 299.317 100.212 299.136 99.6784 299.136C99.1877 299.136 98.777 299.259 98.4464 299.504C98.1264 299.749 97.9664 300.075 97.9664 300.48V303.136C97.9664 303.573 98.1264 303.909 98.4464 304.144C98.777 304.379 99.1877 304.496 99.6784 304.496ZM108.248 306.192C107.448 306.192 106.776 306.059 106.232 305.792C105.688 305.515 105.208 305.136 104.792 304.656L106.04 303.44C106.349 303.792 106.685 304.069 107.048 304.272C107.421 304.475 107.848 304.576 108.328 304.576C108.819 304.576 109.171 304.491 109.384 304.32C109.608 304.149 109.72 303.915 109.72 303.616C109.72 303.371 109.64 303.179 109.48 303.04C109.331 302.891 109.069 302.789 108.696 302.736L107.864 302.624C106.957 302.507 106.264 302.251 105.784 301.856C105.315 301.451 105.08 300.864 105.08 300.096C105.08 299.691 105.155 299.328 105.304 299.008C105.453 298.677 105.667 298.4 105.944 298.176C106.221 297.941 106.552 297.765 106.936 297.648C107.331 297.52 107.768 297.456 108.248 297.456C108.653 297.456 109.011 297.488 109.32 297.552C109.64 297.605 109.928 297.691 110.184 297.808C110.44 297.915 110.675 298.053 110.888 298.224C111.101 298.384 111.309 298.565 111.512 298.768L110.312 299.968C110.067 299.712 109.773 299.499 109.432 299.328C109.091 299.157 108.717 299.072 108.312 299.072C107.864 299.072 107.539 299.152 107.336 299.312C107.144 299.472 107.048 299.68 107.048 299.936C107.048 300.213 107.128 300.427 107.288 300.576C107.459 300.715 107.741 300.816 108.136 300.88L108.984 300.992C110.787 301.248 111.688 302.069 111.688 303.456C111.688 303.861 111.603 304.235 111.432 304.576C111.272 304.907 111.043 305.195 110.744 305.44C110.445 305.675 110.083 305.861 109.656 306C109.24 306.128 108.771 306.192 108.248 306.192ZM118.489 304.608H118.409C118.334 304.821 118.233 305.024 118.105 305.216C117.987 305.397 117.833 305.563 117.641 305.712C117.459 305.861 117.235 305.979 116.969 306.064C116.713 306.149 116.414 306.192 116.073 306.192C115.209 306.192 114.547 305.909 114.089 305.344C113.63 304.779 113.401 303.973 113.401 302.928V297.648H115.449V302.72C115.449 303.296 115.561 303.739 115.785 304.048C116.009 304.347 116.366 304.496 116.857 304.496C117.059 304.496 117.257 304.469 117.449 304.416C117.651 304.363 117.827 304.283 117.977 304.176C118.126 304.059 118.249 303.92 118.345 303.76C118.441 303.589 118.489 303.392 118.489 303.168V297.648H120.536V306H118.489V304.608ZM122.903 306V297.648H124.951V299.04H125.031C125.191 298.603 125.447 298.229 125.799 297.92C126.151 297.611 126.641 297.456 127.271 297.456C127.847 297.456 128.343 297.595 128.759 297.872C129.175 298.149 129.484 298.571 129.687 299.136H129.719C129.868 298.667 130.161 298.272 130.599 297.952C131.047 297.621 131.607 297.456 132.279 297.456C133.1 297.456 133.729 297.739 134.167 298.304C134.615 298.869 134.839 299.675 134.839 300.72V306H132.791V300.928C132.791 299.733 132.343 299.136 131.447 299.136C131.244 299.136 131.047 299.168 130.855 299.232C130.673 299.285 130.508 299.371 130.359 299.488C130.22 299.595 130.108 299.733 130.023 299.904C129.937 300.064 129.895 300.256 129.895 300.48V306H127.847V300.928C127.847 299.733 127.399 299.136 126.503 299.136C126.311 299.136 126.119 299.168 125.927 299.232C125.745 299.285 125.58 299.371 125.431 299.488C125.292 299.595 125.175 299.733 125.079 299.904C124.993 300.064 124.951 300.256 124.951 300.48V306H122.903ZM146.071 304.608H145.991C145.842 305.088 145.559 305.472 145.143 305.76C144.727 306.048 144.242 306.192 143.687 306.192C142.631 306.192 141.82 305.813 141.255 305.056C140.7 304.299 140.423 303.216 140.423 301.808C140.423 300.411 140.7 299.339 141.255 298.592C141.82 297.835 142.631 297.456 143.687 297.456C144.242 297.456 144.727 297.6 145.143 297.888C145.559 298.165 145.842 298.544 145.991 299.024H146.071V294.16H148.119V306H146.071V304.608ZM144.343 304.496C144.834 304.496 145.244 304.379 145.575 304.144C145.906 303.909 146.071 303.573 146.071 303.136V300.48C146.071 300.075 145.906 299.749 145.575 299.504C145.244 299.259 144.834 299.136 144.343 299.136C143.81 299.136 143.378 299.317 143.047 299.68C142.727 300.032 142.567 300.507 142.567 301.104V302.544C142.567 303.141 142.727 303.616 143.047 303.968C143.378 304.32 143.81 304.496 144.343 304.496ZM153.793 306.192C153.196 306.192 152.657 306.091 152.177 305.888C151.708 305.685 151.302 305.392 150.961 305.008C150.63 304.624 150.374 304.165 150.193 303.632C150.012 303.088 149.921 302.48 149.921 301.808C149.921 301.136 150.012 300.533 150.193 300C150.374 299.467 150.63 299.013 150.961 298.64C151.302 298.256 151.708 297.963 152.177 297.76C152.657 297.557 153.196 297.456 153.793 297.456C154.39 297.456 154.929 297.557 155.409 297.76C155.889 297.963 156.294 298.256 156.625 298.64C156.966 299.013 157.228 299.467 157.409 300C157.59 300.533 157.681 301.136 157.681 301.808C157.681 302.48 157.59 303.088 157.409 303.632C157.228 304.165 156.966 304.624 156.625 305.008C156.294 305.392 155.889 305.685 155.409 305.888C154.929 306.091 154.39 306.192 153.793 306.192ZM153.793 304.544C154.337 304.544 154.764 304.379 155.073 304.048C155.382 303.717 155.537 303.232 155.537 302.592V301.04C155.537 300.411 155.382 299.931 155.073 299.6C154.764 299.269 154.337 299.104 153.793 299.104C153.26 299.104 152.838 299.269 152.529 299.6C152.22 299.931 152.065 300.411 152.065 301.04V302.592C152.065 303.232 152.22 303.717 152.529 304.048C152.838 304.379 153.26 304.544 153.793 304.544ZM161.545 306C160.841 306 160.323 305.824 159.993 305.472C159.662 305.12 159.497 304.624 159.497 303.984V294.16H161.545V304.368H162.649V306H161.545ZM167.512 306.192C166.914 306.192 166.376 306.091 165.896 305.888C165.426 305.685 165.021 305.392 164.68 305.008C164.349 304.624 164.093 304.165 163.912 303.632C163.73 303.088 163.64 302.48 163.64 301.808C163.64 301.136 163.73 300.533 163.912 300C164.093 299.467 164.349 299.013 164.68 298.64C165.021 298.256 165.426 297.963 165.896 297.76C166.376 297.557 166.914 297.456 167.512 297.456C168.109 297.456 168.648 297.557 169.128 297.76C169.608 297.963 170.013 298.256 170.344 298.64C170.685 299.013 170.946 299.467 171.128 300C171.309 300.533 171.4 301.136 171.4 301.808C171.4 302.48 171.309 303.088 171.128 303.632C170.946 304.165 170.685 304.624 170.344 305.008C170.013 305.392 169.608 305.685 169.128 305.888C168.648 306.091 168.109 306.192 167.512 306.192ZM167.512 304.544C168.056 304.544 168.482 304.379 168.792 304.048C169.101 303.717 169.256 303.232 169.256 302.592V301.04C169.256 300.411 169.101 299.931 168.792 299.6C168.482 299.269 168.056 299.104 167.512 299.104C166.978 299.104 166.557 299.269 166.248 299.6C165.938 299.931 165.784 300.411 165.784 301.04V302.592C165.784 303.232 165.938 303.717 166.248 304.048C166.557 304.379 166.978 304.544 167.512 304.544ZM173.215 306V297.648H175.263V299.376H175.343C175.397 299.152 175.477 298.939 175.583 298.736C175.701 298.523 175.85 298.336 176.031 298.176C176.213 298.016 176.426 297.888 176.671 297.792C176.927 297.696 177.221 297.648 177.551 297.648H177.999V299.584H177.359C176.666 299.584 176.143 299.685 175.791 299.888C175.439 300.091 175.263 300.421 175.263 300.88V306H173.215ZM186.014 306.192C185.214 306.192 184.542 306.059 183.998 305.792C183.454 305.515 182.974 305.136 182.558 304.656L183.806 303.44C184.115 303.792 184.451 304.069 184.814 304.272C185.187 304.475 185.614 304.576 186.094 304.576C186.584 304.576 186.936 304.491 187.15 304.32C187.374 304.149 187.486 303.915 187.486 303.616C187.486 303.371 187.406 303.179 187.246 303.04C187.096 302.891 186.835 302.789 186.462 302.736L185.63 302.624C184.723 302.507 184.03 302.251 183.55 301.856C183.08 301.451 182.846 300.864 182.846 300.096C182.846 299.691 182.92 299.328 183.07 299.008C183.219 298.677 183.432 298.4 183.71 298.176C183.987 297.941 184.318 297.765 184.702 297.648C185.096 297.52 185.534 297.456 186.014 297.456C186.419 297.456 186.776 297.488 187.086 297.552C187.406 297.605 187.694 297.691 187.95 297.808C188.206 297.915 188.44 298.053 188.654 298.224C188.867 298.384 189.075 298.565 189.278 298.768L188.078 299.968C187.832 299.712 187.539 299.499 187.198 299.328C186.856 299.157 186.483 299.072 186.078 299.072C185.63 299.072 185.304 299.152 185.102 299.312C184.91 299.472 184.814 299.68 184.814 299.936C184.814 300.213 184.894 300.427 185.054 300.576C185.224 300.715 185.507 300.816 185.902 300.88L186.75 300.992C188.552 301.248 189.454 302.069 189.454 303.456C189.454 303.861 189.368 304.235 189.198 304.576C189.038 304.907 188.808 305.195 188.51 305.44C188.211 305.675 187.848 305.861 187.422 306C187.006 306.128 186.536 306.192 186.014 306.192ZM192.286 296.432C191.859 296.432 191.55 296.336 191.358 296.144C191.177 295.952 191.086 295.707 191.086 295.408V295.088C191.086 294.789 191.177 294.544 191.358 294.352C191.55 294.16 191.859 294.064 192.286 294.064C192.702 294.064 193.006 294.16 193.198 294.352C193.39 294.544 193.486 294.789 193.486 295.088V295.408C193.486 295.707 193.39 295.952 193.198 296.144C193.006 296.336 192.702 296.432 192.286 296.432ZM191.262 297.648H193.31V306H191.262V297.648ZM198.292 306C197.588 306 197.049 305.819 196.676 305.456C196.313 305.083 196.132 304.555 196.132 303.872V299.28H194.9V297.648H195.54C195.849 297.648 196.057 297.579 196.164 297.44C196.281 297.291 196.34 297.072 196.34 296.784V295.36H198.18V297.648H199.892V299.28H198.18V304.368H199.764V306H198.292ZM211.594 306C211.146 306 210.788 305.872 210.522 305.616C210.266 305.349 210.106 304.997 210.042 304.56H209.946C209.807 305.104 209.524 305.515 209.098 305.792C208.671 306.059 208.143 306.192 207.514 306.192C206.66 306.192 206.004 305.968 205.546 305.52C205.087 305.072 204.858 304.475 204.858 303.728C204.858 302.864 205.167 302.224 205.786 301.808C206.404 301.381 207.284 301.168 208.426 301.168H209.85V300.56C209.85 300.091 209.727 299.728 209.482 299.472C209.236 299.216 208.842 299.088 208.298 299.088C207.818 299.088 207.428 299.195 207.13 299.408C206.842 299.611 206.596 299.856 206.394 300.144L205.178 299.056C205.487 298.576 205.898 298.192 206.41 297.904C206.922 297.605 207.599 297.456 208.442 297.456C209.572 297.456 210.431 297.712 211.018 298.224C211.604 298.736 211.898 299.472 211.898 300.432V304.368H212.73V306H211.594ZM208.202 304.704C208.66 304.704 209.05 304.603 209.37 304.4C209.69 304.197 209.85 303.899 209.85 303.504V302.4H208.538C207.471 302.4 206.938 302.741 206.938 303.424V303.696C206.938 304.037 207.044 304.293 207.258 304.464C207.482 304.624 207.796 304.704 208.202 304.704ZM214.387 306V297.648H216.435V299.04H216.515C216.675 298.603 216.931 298.229 217.283 297.92C217.635 297.611 218.126 297.456 218.755 297.456C219.331 297.456 219.827 297.595 220.243 297.872C220.659 298.149 220.968 298.571 221.171 299.136H221.203C221.352 298.667 221.646 298.272 222.083 297.952C222.531 297.621 223.091 297.456 223.763 297.456C224.584 297.456 225.214 297.739 225.651 298.304C226.099 298.869 226.323 299.675 226.323 300.72V306H224.275V300.928C224.275 299.733 223.827 299.136 222.931 299.136C222.728 299.136 222.531 299.168 222.339 299.232C222.158 299.285 221.992 299.371 221.843 299.488C221.704 299.595 221.592 299.733 221.507 299.904C221.422 300.064 221.379 300.256 221.379 300.48V306H219.331V300.928C219.331 299.733 218.883 299.136 217.987 299.136C217.795 299.136 217.603 299.168 217.411 299.232C217.23 299.285 217.064 299.371 216.915 299.488C216.776 299.595 216.659 299.733 216.563 299.904C216.478 300.064 216.435 300.256 216.435 300.48V306H214.387ZM231.966 306.192C231.348 306.192 230.793 306.091 230.302 305.888C229.822 305.675 229.412 305.381 229.07 305.008C228.74 304.624 228.484 304.165 228.302 303.632C228.121 303.088 228.03 302.48 228.03 301.808C228.03 301.147 228.116 300.549 228.286 300.016C228.468 299.483 228.724 299.029 229.054 298.656C229.385 298.272 229.79 297.979 230.27 297.776C230.75 297.563 231.294 297.456 231.902 297.456C232.553 297.456 233.118 297.568 233.598 297.792C234.078 298.016 234.473 298.32 234.782 298.704C235.092 299.088 235.321 299.536 235.47 300.048C235.63 300.549 235.71 301.088 235.71 301.664V302.336H230.158V302.544C230.158 303.152 230.329 303.643 230.67 304.016C231.012 304.379 231.518 304.56 232.19 304.56C232.702 304.56 233.118 304.453 233.438 304.24C233.769 304.027 234.062 303.755 234.318 303.424L235.422 304.656C235.081 305.136 234.612 305.515 234.014 305.792C233.428 306.059 232.745 306.192 231.966 306.192ZM231.934 298.992C231.39 298.992 230.958 299.173 230.638 299.536C230.318 299.899 230.158 300.368 230.158 300.944V301.072H233.582V300.928C233.582 300.352 233.438 299.888 233.15 299.536C232.873 299.173 232.468 298.992 231.934 298.992ZM240.12 306C239.416 306 238.877 305.819 238.504 305.456C238.141 305.083 237.96 304.555 237.96 303.872V299.28H236.728V297.648H237.368C237.677 297.648 237.885 297.579 237.992 297.44C238.109 297.291 238.168 297.072 238.168 296.784V295.36H240.008V297.648H241.72V299.28H240.008V304.368H241.592V306H240.12Z" fill="#1A1A1A"/>
</svg>
