<svg width="418" height="196" viewBox="0 0 418 196" fill="none" xmlns="http://www.w3.org/2000/svg">
<rect width="418" height="196" fill="white"/>
<rect width="386" height="56" transform="translate(16 16)" fill="#EEFFE2"/>
<path d="M24 16H16V72H24V16Z" fill="#358000"/>
<path d="M52 34C53.3132 34 54.6136 34.2587 55.8268 34.7612C57.0401 35.2638 58.1425 36.0003 59.0711 36.9289C59.9997 37.8575 60.7362 38.9599 61.2388 40.1732C61.7413 41.3864 62 42.6868 62 44C62 46.6522 60.9464 49.1957 59.0711 51.0711C57.1957 52.9464 54.6522 54 52 54C50.6868 54 49.3864 53.7413 48.1732 53.2388C46.9599 52.7362 45.8575 51.9997 44.9289 51.0711C43.0536 49.1957 42 46.6522 42 44C42 41.3478 43.0536 38.8043 44.9289 36.9289C46.8043 35.0536 49.3478 34 52 34ZM52 36C49.8783 36 47.8434 36.8429 46.3431 38.3431C44.8429 39.8434 44 41.8783 44 44C44 46.1217 44.8429 48.1566 46.3431 49.6569C47.8434 51.1571 49.8783 52 52 52C54.1217 52 56.1566 51.1571 57.6569 49.6569C59.1571 48.1566 60 46.1217 60 44C60 41.8783 59.1571 39.8434 57.6569 38.3431C56.1566 36.8429 54.1217 36 52 36ZM51 48.5L46.5 44L47.91 42.59L51 45.67L56.59 40.09L58 41.5L51 48.5Z" fill="#1A1A1A"/>
<path d="M77.696 40.704V50H75.584V40.704H72.416V38.832H80.864V40.704H77.696ZM87.4843 50C87.0363 50 86.6789 49.872 86.4123 49.616C86.1563 49.3493 85.9963 48.9973 85.9323 48.56H85.8363C85.6976 49.104 85.4149 49.5147 84.9883 49.792C84.5616 50.0587 84.0336 50.192 83.4043 50.192C82.5509 50.192 81.8949 49.968 81.4363 49.52C80.9776 49.072 80.7483 48.4747 80.7483 47.728C80.7483 46.864 81.0576 46.224 81.6763 45.808C82.2949 45.3813 83.1749 45.168 84.3163 45.168H85.7403V44.56C85.7403 44.0907 85.6176 43.728 85.3723 43.472C85.1269 43.216 84.7323 43.088 84.1883 43.088C83.7083 43.088 83.3189 43.1947 83.0203 43.408C82.7323 43.6107 82.4869 43.856 82.2843 44.144L81.0683 43.056C81.3776 42.576 81.7883 42.192 82.3003 41.904C82.8123 41.6053 83.4896 41.456 84.3323 41.456C85.4629 41.456 86.3216 41.712 86.9083 42.224C87.4949 42.736 87.7883 43.472 87.7883 44.432V48.368H88.6203V50H87.4843ZM84.0923 48.704C84.5509 48.704 84.9403 48.6027 85.2603 48.4C85.5803 48.1973 85.7403 47.8987 85.7403 47.504V46.4H84.4283C83.3616 46.4 82.8283 46.7413 82.8283 47.424V47.696C82.8283 48.0373 82.9349 48.2933 83.1483 48.464C83.3723 48.624 83.6869 48.704 84.0923 48.704ZM90.2778 38.16H92.3258V45.296H92.4058L93.5098 43.792L95.3818 41.648H97.7018L94.8218 44.88L98.0058 50H95.5738L93.4298 46.256L92.3258 47.456V50H90.2778V38.16Z" fill="#1A1A1A"/>
<rect width="386" height="20" transform="translate(16 112)" fill="#DCDCDC"/>
<rect width="386" height="20" transform="translate(16 136)" fill="#DCDCDC"/>
<rect width="288" height="20" transform="translate(16 160)" fill="#DCDCDC"/>
<rect width="118" height="12" transform="translate(16 96)" fill="#DCDCDC"/>
</svg>
