<svg width="418" height="398" viewBox="0 0 418 398" fill="none" xmlns="http://www.w3.org/2000/svg">
<rect width="418" height="398" fill="white"/>
<rect width="386" height="104" transform="translate(16 16)" fill="#FFE0E0"/>
<path d="M24 16H16V120H24V16Z" fill="#CC0000"/>
<path d="M41.312 50V38.832H43.424V48.128H47.824V50H41.312ZM52.6835 50.192C52.0862 50.192 51.5475 50.0907 51.0675 49.888C50.5982 49.6853 50.1928 49.392 49.8515 49.008C49.5208 48.624 49.2648 48.1653 49.0835 47.632C48.9022 47.088 48.8115 46.48 48.8115 45.808C48.8115 45.136 48.9022 44.5333 49.0835 44C49.2648 43.4667 49.5208 43.0133 49.8515 42.64C50.1928 42.256 50.5982 41.9627 51.0675 41.76C51.5475 41.5573 52.0862 41.456 52.6835 41.456C53.2808 41.456 53.8195 41.5573 54.2995 41.76C54.7795 41.9627 55.1848 42.256 55.5155 42.64C55.8568 43.0133 56.1182 43.4667 56.2995 44C56.4808 44.5333 56.5715 45.136 56.5715 45.808C56.5715 46.48 56.4808 47.088 56.2995 47.632C56.1182 48.1653 55.8568 48.624 55.5155 49.008C55.1848 49.392 54.7795 49.6853 54.2995 49.888C53.8195 50.0907 53.2808 50.192 52.6835 50.192ZM52.6835 48.544C53.2275 48.544 53.6542 48.3787 53.9635 48.048C54.2728 47.7173 54.4275 47.232 54.4275 46.592V45.04C54.4275 44.4107 54.2728 43.9307 53.9635 43.6C53.6542 43.2693 53.2275 43.104 52.6835 43.104C52.1502 43.104 51.7288 43.2693 51.4195 43.6C51.1102 43.9307 50.9555 44.4107 50.9555 45.04V46.592C50.9555 47.232 51.1102 47.7173 51.4195 48.048C51.7288 48.3787 52.1502 48.544 52.6835 48.544ZM58.3871 50V41.648H60.4351V43.376H60.5151C60.5685 43.152 60.6485 42.9387 60.7551 42.736C60.8725 42.5227 61.0218 42.336 61.2031 42.176C61.3845 42.016 61.5978 41.888 61.8431 41.792C62.0991 41.696 62.3925 41.648 62.7231 41.648H63.1711V43.584H62.5311C61.8378 43.584 61.3151 43.6853 60.9631 43.888C60.6111 44.0907 60.4351 44.4213 60.4351 44.88V50H58.3871ZM67.9663 50.192C67.3476 50.192 66.7929 50.0907 66.3023 49.888C65.8223 49.6747 65.4116 49.3813 65.0703 49.008C64.7396 48.624 64.4836 48.1653 64.3023 47.632C64.1209 47.088 64.0303 46.48 64.0303 45.808C64.0303 45.1467 64.1156 44.5493 64.2863 44.016C64.4676 43.4827 64.7236 43.0293 65.0543 42.656C65.3849 42.272 65.7903 41.9787 66.2703 41.776C66.7503 41.5627 67.2943 41.456 67.9023 41.456C68.5529 41.456 69.1183 41.568 69.5983 41.792C70.0783 42.016 70.4729 42.32 70.7823 42.704C71.0916 43.088 71.3209 43.536 71.4703 44.048C71.6303 44.5493 71.7103 45.088 71.7103 45.664V46.336H66.1583V46.544C66.1583 47.152 66.3289 47.6427 66.6703 48.016C67.0116 48.3787 67.5183 48.56 68.1903 48.56C68.7023 48.56 69.1183 48.4533 69.4383 48.24C69.7689 48.0267 70.0623 47.7547 70.3183 47.424L71.4223 48.656C71.0809 49.136 70.6116 49.5147 70.0143 49.792C69.4276 50.0587 68.7449 50.192 67.9663 50.192ZM67.9343 42.992C67.3903 42.992 66.9583 43.1733 66.6383 43.536C66.3183 43.8987 66.1583 44.368 66.1583 44.944V45.072H69.5823V44.928C69.5823 44.352 69.4383 43.888 69.1503 43.536C68.8729 43.1733 68.4676 42.992 67.9343 42.992ZM73.5121 50V41.648H75.5601V43.04H75.6401C75.8001 42.6027 76.0561 42.2293 76.4081 41.92C76.7601 41.6107 77.2508 41.456 77.8801 41.456C78.4561 41.456 78.9521 41.5947 79.3681 41.872C79.7841 42.1493 80.0935 42.5707 80.2961 43.136H80.3281C80.4775 42.6667 80.7708 42.272 81.2081 41.952C81.6561 41.6213 82.2161 41.456 82.8881 41.456C83.7095 41.456 84.3388 41.7387 84.7761 42.304C85.2241 42.8693 85.4481 43.6747 85.4481 44.72V50H83.4001V44.928C83.4001 43.7333 82.9521 43.136 82.0561 43.136C81.8535 43.136 81.6561 43.168 81.4641 43.232C81.2828 43.2853 81.1175 43.3707 80.9681 43.488C80.8295 43.5947 80.7175 43.7333 80.6321 43.904C80.5468 44.064 80.5041 44.256 80.5041 44.48V50H78.4561V44.928C78.4561 43.7333 78.0081 43.136 77.1121 43.136C76.9201 43.136 76.7281 43.168 76.5361 43.232C76.3548 43.2853 76.1895 43.3707 76.0401 43.488C75.9015 43.5947 75.7841 43.7333 75.6881 43.904C75.6028 44.064 75.5601 44.256 75.5601 44.48V50H73.5121ZM92.5205 40.432C92.0938 40.432 91.7845 40.336 91.5925 40.144C91.4112 39.952 91.3205 39.7067 91.3205 39.408V39.088C91.3205 38.7893 91.4112 38.544 91.5925 38.352C91.7845 38.16 92.0938 38.064 92.5205 38.064C92.9365 38.064 93.2405 38.16 93.4325 38.352C93.6245 38.544 93.7205 38.7893 93.7205 39.088V39.408C93.7205 39.7067 93.6245 39.952 93.4325 40.144C93.2405 40.336 92.9365 40.432 92.5205 40.432ZM91.4965 41.648H93.5445V50H91.4965V41.648ZM95.9184 41.648H97.9664V43.024H98.0304C98.1797 42.544 98.4624 42.1653 98.8784 41.888C99.2944 41.6 99.7797 41.456 100.334 41.456C101.401 41.456 102.212 41.8347 102.766 42.592C103.332 43.3387 103.614 44.4107 103.614 45.808C103.614 47.216 103.332 48.2987 102.766 49.056C102.212 49.8133 101.401 50.192 100.334 50.192C99.7797 50.192 99.2944 50.048 98.8784 49.76C98.473 49.472 98.1904 49.088 98.0304 48.608H97.9664V53.2H95.9184V41.648ZM99.6784 48.496C100.212 48.496 100.644 48.32 100.974 47.968C101.305 47.616 101.47 47.1413 101.47 46.544V45.104C101.47 44.5067 101.305 44.032 100.974 43.68C100.644 43.3173 100.212 43.136 99.6784 43.136C99.1877 43.136 98.777 43.2587 98.4464 43.504C98.1264 43.7493 97.9664 44.0747 97.9664 44.48V47.136C97.9664 47.5733 98.1264 47.9093 98.4464 48.144C98.777 48.3787 99.1877 48.496 99.6784 48.496ZM108.248 50.192C107.448 50.192 106.776 50.0587 106.232 49.792C105.688 49.5147 105.208 49.136 104.792 48.656L106.04 47.44C106.349 47.792 106.685 48.0693 107.048 48.272C107.421 48.4747 107.848 48.576 108.328 48.576C108.819 48.576 109.171 48.4907 109.384 48.32C109.608 48.1493 109.72 47.9147 109.72 47.616C109.72 47.3707 109.64 47.1787 109.48 47.04C109.331 46.8907 109.069 46.7893 108.696 46.736L107.864 46.624C106.957 46.5067 106.264 46.2507 105.784 45.856C105.315 45.4507 105.08 44.864 105.08 44.096C105.08 43.6907 105.155 43.328 105.304 43.008C105.453 42.6773 105.667 42.4 105.944 42.176C106.221 41.9413 106.552 41.7653 106.936 41.648C107.331 41.52 107.768 41.456 108.248 41.456C108.653 41.456 109.011 41.488 109.32 41.552C109.64 41.6053 109.928 41.6907 110.184 41.808C110.44 41.9147 110.675 42.0533 110.888 42.224C111.101 42.384 111.309 42.5653 111.512 42.768L110.312 43.968C110.067 43.712 109.773 43.4987 109.432 43.328C109.091 43.1573 108.717 43.072 108.312 43.072C107.864 43.072 107.539 43.152 107.336 43.312C107.144 43.472 107.048 43.68 107.048 43.936C107.048 44.2133 107.128 44.4267 107.288 44.576C107.459 44.7147 107.741 44.816 108.136 44.88L108.984 44.992C110.787 45.248 111.688 46.0693 111.688 47.456C111.688 47.8613 111.603 48.2347 111.432 48.576C111.272 48.9067 111.043 49.1947 110.744 49.44C110.445 49.6747 110.083 49.8613 109.656 50C109.24 50.128 108.771 50.192 108.248 50.192ZM118.489 48.608H118.409C118.334 48.8213 118.233 49.024 118.105 49.216C117.987 49.3973 117.833 49.5627 117.641 49.712C117.459 49.8613 117.235 49.9787 116.969 50.064C116.713 50.1493 116.414 50.192 116.073 50.192C115.209 50.192 114.547 49.9093 114.089 49.344C113.63 48.7787 113.401 47.9733 113.401 46.928V41.648H115.449V46.72C115.449 47.296 115.561 47.7387 115.785 48.048C116.009 48.3467 116.366 48.496 116.857 48.496C117.059 48.496 117.257 48.4693 117.449 48.416C117.651 48.3627 117.827 48.2827 117.977 48.176C118.126 48.0587 118.249 47.92 118.345 47.76C118.441 47.5893 118.489 47.392 118.489 47.168V41.648H120.536V50H118.489V48.608ZM122.903 50V41.648H124.951V43.04H125.031C125.191 42.6027 125.447 42.2293 125.799 41.92C126.151 41.6107 126.641 41.456 127.271 41.456C127.847 41.456 128.343 41.5947 128.759 41.872C129.175 42.1493 129.484 42.5707 129.687 43.136H129.719C129.868 42.6667 130.161 42.272 130.599 41.952C131.047 41.6213 131.607 41.456 132.279 41.456C133.1 41.456 133.729 41.7387 134.167 42.304C134.615 42.8693 134.839 43.6747 134.839 44.72V50H132.791V44.928C132.791 43.7333 132.343 43.136 131.447 43.136C131.244 43.136 131.047 43.168 130.855 43.232C130.673 43.2853 130.508 43.3707 130.359 43.488C130.22 43.5947 130.108 43.7333 130.023 43.904C129.937 44.064 129.895 44.256 129.895 44.48V50H127.847V44.928C127.847 43.7333 127.399 43.136 126.503 43.136C126.311 43.136 126.119 43.168 125.927 43.232C125.745 43.2853 125.58 43.3707 125.431 43.488C125.292 43.5947 125.175 43.7333 125.079 43.904C124.993 44.064 124.951 44.256 124.951 44.48V50H122.903Z" fill="#1A1A1A"/>
<path d="M41.488 74V62.832H42.832V72.816H47.584V74H41.488ZM52.3394 74.192C51.7847 74.192 51.278 74.0907 50.8194 73.888C50.3607 73.6853 49.966 73.3973 49.6354 73.024C49.3154 72.64 49.0647 72.1867 48.8834 71.664C48.702 71.1307 48.6114 70.5333 48.6114 69.872C48.6114 69.2213 48.702 68.6293 48.8834 68.096C49.0647 67.5627 49.3154 67.1093 49.6354 66.736C49.966 66.352 50.3607 66.0587 50.8194 65.856C51.278 65.6533 51.7847 65.552 52.3394 65.552C52.894 65.552 53.3954 65.6533 53.8434 65.856C54.302 66.0587 54.6967 66.352 55.0274 66.736C55.358 67.1093 55.614 67.5627 55.7954 68.096C55.9767 68.6293 56.0674 69.2213 56.0674 69.872C56.0674 70.5333 55.9767 71.1307 55.7954 71.664C55.614 72.1867 55.358 72.64 55.0274 73.024C54.6967 73.3973 54.302 73.6853 53.8434 73.888C53.3954 74.0907 52.894 74.192 52.3394 74.192ZM52.3394 73.056C53.0327 73.056 53.598 72.8427 54.0354 72.416C54.4727 71.9893 54.6914 71.3387 54.6914 70.464V69.28C54.6914 68.4053 54.4727 67.7547 54.0354 67.328C53.598 66.9013 53.0327 66.688 52.3394 66.688C51.646 66.688 51.0807 66.9013 50.6434 67.328C50.206 67.7547 49.9874 68.4053 49.9874 69.28V70.464C49.9874 71.3387 50.206 71.9893 50.6434 72.416C51.0807 72.8427 51.646 73.056 52.3394 73.056ZM58.1725 74V65.744H59.4525V67.264H59.5325C59.6818 66.8693 59.9485 66.5173 60.3325 66.208C60.7165 65.8987 61.2445 65.744 61.9165 65.744H62.4125V67.024H61.6605C60.9672 67.024 60.4232 67.1573 60.0285 67.424C59.6445 67.68 59.4525 68.0053 59.4525 68.4V74H58.1725ZM67.0734 74.192C66.508 74.192 65.996 74.0907 65.5374 73.888C65.0894 73.6853 64.7 73.3973 64.3694 73.024C64.0494 72.64 63.7987 72.1867 63.6174 71.664C63.4467 71.1307 63.3614 70.5333 63.3614 69.872C63.3614 69.2213 63.4467 68.6293 63.6174 68.096C63.7987 67.5627 64.0494 67.1093 64.3694 66.736C64.7 66.352 65.0894 66.0587 65.5374 65.856C65.996 65.6533 66.508 65.552 67.0734 65.552C67.628 65.552 68.124 65.6533 68.5614 65.856C68.9987 66.0587 69.372 66.3413 69.6814 66.704C69.9907 67.056 70.2254 67.4773 70.3854 67.968C70.556 68.4587 70.6414 68.9973 70.6414 69.584V70.192H64.7054V70.576C64.7054 70.928 64.7587 71.2587 64.8654 71.568C64.9827 71.8667 65.1427 72.128 65.3454 72.352C65.5587 72.576 65.8147 72.752 66.1134 72.88C66.4227 73.008 66.7694 73.072 67.1534 73.072C67.676 73.072 68.1294 72.9493 68.5134 72.704C68.908 72.4587 69.212 72.1067 69.4254 71.648L70.3374 72.304C70.0707 72.8693 69.6547 73.328 69.0894 73.68C68.524 74.0213 67.852 74.192 67.0734 74.192ZM67.0734 66.624C66.7214 66.624 66.4014 66.688 66.1134 66.816C65.8254 66.9333 65.5747 67.104 65.3614 67.328C65.1587 67.552 64.9987 67.8187 64.8814 68.128C64.764 68.4267 64.7054 68.7573 64.7054 69.12V69.232H69.2654V69.056C69.2654 68.32 69.0627 67.7333 68.6574 67.296C68.2627 66.848 67.7347 66.624 67.0734 66.624ZM72.7506 74V65.744H74.0306V67.088H74.0946C74.1906 66.8747 74.2973 66.6773 74.4146 66.496C74.5426 66.304 74.692 66.1387 74.8626 66C75.044 65.8613 75.252 65.7547 75.4866 65.68C75.7213 65.5947 75.9986 65.552 76.3186 65.552C76.8626 65.552 77.364 65.6853 77.8226 65.952C78.2813 66.208 78.6226 66.6347 78.8466 67.232H78.8786C79.028 66.784 79.3053 66.3947 79.7106 66.064C80.1266 65.7227 80.6866 65.552 81.3906 65.552C82.2333 65.552 82.8893 65.8293 83.3586 66.384C83.8386 66.928 84.0786 67.7013 84.0786 68.704V74H82.7986V68.928C82.7986 68.192 82.6546 67.6373 82.3666 67.264C82.0786 66.8907 81.62 66.704 80.9906 66.704C80.7346 66.704 80.4893 66.736 80.2546 66.8C80.0306 66.864 79.828 66.96 79.6466 67.088C79.4653 67.216 79.3213 67.3813 79.2146 67.584C79.108 67.776 79.0546 68.0053 79.0546 68.272V74H77.7746V68.928C77.7746 68.192 77.6306 67.6373 77.3426 67.264C77.0546 66.8907 76.6066 66.704 75.9986 66.704C75.7426 66.704 75.4973 66.736 75.2626 66.8C75.028 66.864 74.82 66.96 74.6386 67.088C74.4573 67.216 74.308 67.3813 74.1906 67.584C74.084 67.776 74.0306 68.0053 74.0306 68.272V74H72.7506ZM91.1406 63.808C90.8633 63.808 90.6606 63.744 90.5326 63.616C90.4153 63.4773 90.3566 63.3013 90.3566 63.088V62.88C90.3566 62.6667 90.4153 62.496 90.5326 62.368C90.6606 62.2293 90.8633 62.16 91.1406 62.16C91.418 62.16 91.6153 62.2293 91.7326 62.368C91.8606 62.496 91.9246 62.6667 91.9246 62.88V63.088C91.9246 63.3013 91.8606 63.4773 91.7326 63.616C91.6153 63.744 91.418 63.808 91.1406 63.808ZM90.5006 65.744H91.7806V74H90.5006V65.744ZM94.5006 65.744H95.7806V67.088H95.8446C96.058 66.5653 96.3673 66.1813 96.7726 65.936C97.1886 65.68 97.6846 65.552 98.2606 65.552C98.7726 65.552 99.2366 65.6533 99.6526 65.856C100.069 66.0587 100.421 66.3467 100.709 66.72C101.007 67.0933 101.231 67.5467 101.381 68.08C101.541 68.6133 101.621 69.2107 101.621 69.872C101.621 70.5333 101.541 71.1307 101.381 71.664C101.231 72.1973 101.007 72.6507 100.709 73.024C100.421 73.3973 100.069 73.6853 99.6526 73.888C99.2366 74.0907 98.7726 74.192 98.2606 74.192C97.1406 74.192 96.3353 73.68 95.8446 72.656H95.7806V77.2H94.5006V65.744ZM97.9086 73.04C98.634 73.04 99.2046 72.816 99.6206 72.368C100.037 71.9093 100.245 71.312 100.245 70.576V69.168C100.245 68.432 100.037 67.84 99.6206 67.392C99.2046 66.9333 98.634 66.704 97.9086 66.704C97.6206 66.704 97.3433 66.7467 97.0766 66.832C96.8206 66.9067 96.5966 67.0133 96.4046 67.152C96.2126 67.2907 96.058 67.4613 95.9406 67.664C95.834 67.856 95.7806 68.064 95.7806 68.288V71.36C95.7806 71.6267 95.834 71.8667 95.9406 72.08C96.058 72.2827 96.2126 72.4587 96.4046 72.608C96.5966 72.7467 96.8206 72.8533 97.0766 72.928C97.3433 73.0027 97.6206 73.04 97.9086 73.04ZM106.262 74.192C105.494 74.192 104.849 74.048 104.326 73.76C103.814 73.4613 103.371 73.0667 102.998 72.576L103.91 71.84C104.23 72.2453 104.587 72.56 104.982 72.784C105.377 72.9973 105.835 73.104 106.358 73.104C106.902 73.104 107.323 72.9867 107.622 72.752C107.931 72.5173 108.086 72.1867 108.086 71.76C108.086 71.44 107.979 71.168 107.766 70.944C107.563 70.7093 107.19 70.5493 106.646 70.464L105.99 70.368C105.606 70.3147 105.254 70.2347 104.934 70.128C104.614 70.0107 104.331 69.8613 104.086 69.68C103.851 69.488 103.665 69.2533 103.526 68.976C103.398 68.6987 103.334 68.368 103.334 67.984C103.334 67.5787 103.409 67.2267 103.558 66.928C103.707 66.6187 103.91 66.3627 104.166 66.16C104.433 65.9573 104.747 65.808 105.11 65.712C105.473 65.6053 105.862 65.552 106.278 65.552C106.95 65.552 107.51 65.6693 107.958 65.904C108.417 66.1387 108.817 66.464 109.158 66.88L108.31 67.648C108.129 67.392 107.862 67.1627 107.51 66.96C107.158 66.7467 106.715 66.64 106.182 66.64C105.649 66.64 105.243 66.7573 104.966 66.992C104.699 67.216 104.566 67.5253 104.566 67.92C104.566 68.3253 104.699 68.6187 104.966 68.8C105.243 68.9813 105.638 69.1147 106.15 69.2L106.79 69.296C107.707 69.4347 108.358 69.7013 108.742 70.096C109.126 70.48 109.318 70.9867 109.318 71.616C109.318 72.416 109.046 73.0453 108.502 73.504C107.958 73.9627 107.211 74.192 106.262 74.192ZM116.667 72.656H116.603C116.517 72.848 116.411 73.04 116.283 73.232C116.165 73.4133 116.016 73.5787 115.835 73.728C115.653 73.8667 115.435 73.9787 115.179 74.064C114.923 74.1493 114.624 74.192 114.283 74.192C113.429 74.192 112.752 73.92 112.251 73.376C111.749 72.8213 111.499 72.0427 111.499 71.04V65.744H112.779V70.816C112.779 72.2987 113.408 73.04 114.667 73.04C114.923 73.04 115.168 73.008 115.403 72.944C115.648 72.88 115.861 72.784 116.043 72.656C116.235 72.528 116.384 72.368 116.491 72.176C116.608 71.9733 116.667 71.7333 116.667 71.456V65.744H117.947V74H116.667V72.656ZM120.673 74V65.744H121.953V67.088H122.017C122.113 66.8747 122.219 66.6773 122.337 66.496C122.465 66.304 122.614 66.1387 122.785 66C122.966 65.8613 123.174 65.7547 123.409 65.68C123.643 65.5947 123.921 65.552 124.241 65.552C124.785 65.552 125.286 65.6853 125.745 65.952C126.203 66.208 126.545 66.6347 126.769 67.232H126.801C126.95 66.784 127.227 66.3947 127.633 66.064C128.049 65.7227 128.609 65.552 129.312 65.552C130.155 65.552 130.811 65.8293 131.281 66.384C131.761 66.928 132.001 67.7013 132.001 68.704V74H130.721V68.928C130.721 68.192 130.577 67.6373 130.289 67.264C130.001 66.8907 129.542 66.704 128.913 66.704C128.657 66.704 128.411 66.736 128.177 66.8C127.953 66.864 127.75 66.96 127.569 67.088C127.387 67.216 127.243 67.3813 127.137 67.584C127.03 67.776 126.977 68.0053 126.977 68.272V74H125.697V68.928C125.697 68.192 125.553 67.6373 125.265 67.264C124.977 66.8907 124.529 66.704 123.921 66.704C123.665 66.704 123.419 66.736 123.185 66.8C122.95 66.864 122.742 66.96 122.561 67.088C122.379 67.216 122.23 67.3813 122.113 67.584C122.006 67.776 121.953 68.0053 121.953 68.272V74H120.673ZM143.703 72.656H143.639C143.137 73.68 142.332 74.192 141.223 74.192C140.711 74.192 140.247 74.0907 139.831 73.888C139.415 73.6853 139.057 73.3973 138.759 73.024C138.471 72.6507 138.247 72.1973 138.087 71.664C137.937 71.1307 137.863 70.5333 137.863 69.872C137.863 69.2107 137.937 68.6133 138.087 68.08C138.247 67.5467 138.471 67.0933 138.759 66.72C139.057 66.3467 139.415 66.0587 139.831 65.856C140.247 65.6533 140.711 65.552 141.223 65.552C141.799 65.552 142.289 65.68 142.695 65.936C143.111 66.1813 143.425 66.5653 143.639 67.088H143.703V62.16H144.983V74H143.703V72.656ZM141.575 73.04C141.863 73.04 142.135 73.0027 142.391 72.928C142.657 72.8533 142.887 72.7467 143.079 72.608C143.271 72.4587 143.42 72.2827 143.527 72.08C143.644 71.8667 143.703 71.6267 143.703 71.36V68.288C143.703 68.064 143.644 67.856 143.527 67.664C143.42 67.4613 143.271 67.2907 143.079 67.152C142.887 67.0133 142.657 66.9067 142.391 66.832C142.135 66.7467 141.863 66.704 141.575 66.704C140.849 66.704 140.279 66.9333 139.863 67.392C139.447 67.84 139.239 68.432 139.239 69.168V70.576C139.239 71.312 139.447 71.9093 139.863 72.368C140.279 72.816 140.849 73.04 141.575 73.04ZM150.824 74.192C150.269 74.192 149.762 74.0907 149.304 73.888C148.845 73.6853 148.45 73.3973 148.12 73.024C147.8 72.64 147.549 72.1867 147.368 71.664C147.186 71.1307 147.096 70.5333 147.096 69.872C147.096 69.2213 147.186 68.6293 147.368 68.096C147.549 67.5627 147.8 67.1093 148.12 66.736C148.45 66.352 148.845 66.0587 149.304 65.856C149.762 65.6533 150.269 65.552 150.824 65.552C151.378 65.552 151.88 65.6533 152.328 65.856C152.786 66.0587 153.181 66.352 153.512 66.736C153.842 67.1093 154.098 67.5627 154.28 68.096C154.461 68.6293 154.552 69.2213 154.552 69.872C154.552 70.5333 154.461 71.1307 154.28 71.664C154.098 72.1867 153.842 72.64 153.512 73.024C153.181 73.3973 152.786 73.6853 152.328 73.888C151.88 74.0907 151.378 74.192 150.824 74.192ZM150.824 73.056C151.517 73.056 152.082 72.8427 152.52 72.416C152.957 71.9893 153.176 71.3387 153.176 70.464V69.28C153.176 68.4053 152.957 67.7547 152.52 67.328C152.082 66.9013 151.517 66.688 150.824 66.688C150.13 66.688 149.565 66.9013 149.128 67.328C148.69 67.7547 148.472 68.4053 148.472 69.28V70.464C148.472 71.3387 148.69 71.9893 149.128 72.416C149.565 72.8427 150.13 73.056 150.824 73.056ZM158.017 74C157.569 74 157.228 73.8773 156.993 73.632C156.769 73.376 156.657 73.056 156.657 72.672V62.16H157.937V72.88H159.153V74H158.017ZM164.136 74.192C163.582 74.192 163.075 74.0907 162.616 73.888C162.158 73.6853 161.763 73.3973 161.432 73.024C161.112 72.64 160.862 72.1867 160.68 71.664C160.499 71.1307 160.408 70.5333 160.408 69.872C160.408 69.2213 160.499 68.6293 160.68 68.096C160.862 67.5627 161.112 67.1093 161.432 66.736C161.763 66.352 162.158 66.0587 162.616 65.856C163.075 65.6533 163.582 65.552 164.136 65.552C164.691 65.552 165.192 65.6533 165.64 65.856C166.099 66.0587 166.494 66.352 166.824 66.736C167.155 67.1093 167.411 67.5627 167.592 68.096C167.774 68.6293 167.864 69.2213 167.864 69.872C167.864 70.5333 167.774 71.1307 167.592 71.664C167.411 72.1867 167.155 72.64 166.824 73.024C166.494 73.3973 166.099 73.6853 165.64 73.888C165.192 74.0907 164.691 74.192 164.136 74.192ZM164.136 73.056C164.83 73.056 165.395 72.8427 165.832 72.416C166.27 71.9893 166.488 71.3387 166.488 70.464V69.28C166.488 68.4053 166.27 67.7547 165.832 67.328C165.395 66.9013 164.83 66.688 164.136 66.688C163.443 66.688 162.878 66.9013 162.44 67.328C162.003 67.7547 161.784 68.4053 161.784 69.28V70.464C161.784 71.3387 162.003 71.9893 162.44 72.416C162.878 72.8427 163.443 73.056 164.136 73.056ZM169.969 74V65.744H171.249V67.264H171.329C171.479 66.8693 171.745 66.5173 172.129 66.208C172.513 65.8987 173.041 65.744 173.713 65.744H174.209V67.024H173.457C172.764 67.024 172.22 67.1573 171.825 67.424C171.441 67.68 171.249 68.0053 171.249 68.4V74H169.969ZM182.106 74.192C181.338 74.192 180.692 74.048 180.17 73.76C179.658 73.4613 179.215 73.0667 178.842 72.576L179.754 71.84C180.074 72.2453 180.431 72.56 180.826 72.784C181.22 72.9973 181.679 73.104 182.202 73.104C182.746 73.104 183.167 72.9867 183.466 72.752C183.775 72.5173 183.93 72.1867 183.93 71.76C183.93 71.44 183.823 71.168 183.61 70.944C183.407 70.7093 183.034 70.5493 182.49 70.464L181.834 70.368C181.45 70.3147 181.098 70.2347 180.778 70.128C180.458 70.0107 180.175 69.8613 179.93 69.68C179.695 69.488 179.508 69.2533 179.37 68.976C179.242 68.6987 179.178 68.368 179.178 67.984C179.178 67.5787 179.252 67.2267 179.402 66.928C179.551 66.6187 179.754 66.3627 180.01 66.16C180.276 65.9573 180.591 65.808 180.954 65.712C181.316 65.6053 181.706 65.552 182.122 65.552C182.794 65.552 183.354 65.6693 183.802 65.904C184.26 66.1387 184.66 66.464 185.002 66.88L184.154 67.648C183.972 67.392 183.706 67.1627 183.354 66.96C183.002 66.7467 182.559 66.64 182.026 66.64C181.492 66.64 181.087 66.7573 180.81 66.992C180.543 67.216 180.41 67.5253 180.41 67.92C180.41 68.3253 180.543 68.6187 180.81 68.8C181.087 68.9813 181.482 69.1147 181.994 69.2L182.634 69.296C183.551 69.4347 184.202 69.7013 184.586 70.096C184.97 70.48 185.162 70.9867 185.162 71.616C185.162 72.416 184.89 73.0453 184.346 73.504C183.802 73.9627 183.055 74.192 182.106 74.192ZM188.062 63.808C187.785 63.808 187.583 63.744 187.455 63.616C187.337 63.4773 187.279 63.3013 187.279 63.088V62.88C187.279 62.6667 187.337 62.496 187.455 62.368C187.583 62.2293 187.785 62.16 188.062 62.16C188.34 62.16 188.537 62.2293 188.655 62.368C188.783 62.496 188.847 62.6667 188.847 62.88V63.088C188.847 63.3013 188.783 63.4773 188.655 63.616C188.537 63.744 188.34 63.808 188.062 63.808ZM187.423 65.744H188.703V74H187.423V65.744ZM193.247 74C192.799 74 192.457 73.8773 192.223 73.632C191.999 73.376 191.887 73.0453 191.887 72.64V66.864H190.527V65.744H191.295C191.572 65.744 191.759 65.6907 191.855 65.584C191.961 65.4667 192.015 65.2693 192.015 64.992V63.456H193.167V65.744H194.975V66.864H193.167V72.88H194.847V74H193.247ZM206.813 74C206.333 74 205.986 73.872 205.773 73.616C205.57 73.36 205.442 73.04 205.389 72.656H205.309C205.128 73.168 204.829 73.552 204.413 73.808C203.997 74.064 203.501 74.192 202.925 74.192C202.05 74.192 201.368 73.968 200.877 73.52C200.397 73.072 200.157 72.464 200.157 71.696C200.157 70.9173 200.44 70.32 201.005 69.904C201.581 69.488 202.472 69.28 203.677 69.28H205.309V68.464C205.309 67.8773 205.149 67.4293 204.829 67.12C204.509 66.8107 204.018 66.656 203.357 66.656C202.856 66.656 202.434 66.768 202.093 66.992C201.762 67.216 201.485 67.5147 201.261 67.888L200.493 67.168C200.717 66.72 201.074 66.3413 201.565 66.032C202.056 65.712 202.674 65.552 203.421 65.552C204.424 65.552 205.202 65.7973 205.757 66.288C206.312 66.7787 206.589 67.4613 206.589 68.336V72.88H207.533V74H206.813ZM203.133 73.104C203.453 73.104 203.746 73.0667 204.013 72.992C204.28 72.9173 204.509 72.8107 204.701 72.672C204.893 72.5333 205.042 72.3733 205.149 72.192C205.256 72.0107 205.309 71.8133 205.309 71.6V70.24H203.613C202.877 70.24 202.338 70.3467 201.997 70.56C201.666 70.7733 201.501 71.0827 201.501 71.488V71.824C201.501 72.2293 201.645 72.544 201.933 72.768C202.232 72.992 202.632 73.104 203.133 73.104ZM209.36 74V65.744H210.64V67.088H210.704C210.8 66.8747 210.907 66.6773 211.024 66.496C211.152 66.304 211.301 66.1387 211.472 66C211.653 65.8613 211.861 65.7547 212.096 65.68C212.331 65.5947 212.608 65.552 212.928 65.552C213.472 65.552 213.973 65.6853 214.432 65.952C214.891 66.208 215.232 66.6347 215.456 67.232H215.488C215.637 66.784 215.915 66.3947 216.32 66.064C216.736 65.7227 217.296 65.552 218 65.552C218.843 65.552 219.499 65.8293 219.968 66.384C220.448 66.928 220.688 67.7013 220.688 68.704V74H219.408V68.928C219.408 68.192 219.264 67.6373 218.976 67.264C218.688 66.8907 218.229 66.704 217.6 66.704C217.344 66.704 217.099 66.736 216.864 66.8C216.64 66.864 216.437 66.96 216.256 67.088C216.075 67.216 215.931 67.3813 215.824 67.584C215.717 67.776 215.664 68.0053 215.664 68.272V74H214.384V68.928C214.384 68.192 214.24 67.6373 213.952 67.264C213.664 66.8907 213.216 66.704 212.608 66.704C212.352 66.704 212.107 66.736 211.872 66.8C211.637 66.864 211.429 66.96 211.248 67.088C211.067 67.216 210.917 67.3813 210.8 67.584C210.693 67.776 210.64 68.0053 210.64 68.272V74H209.36ZM226.433 74.192C225.867 74.192 225.355 74.0907 224.897 73.888C224.449 73.6853 224.059 73.3973 223.729 73.024C223.409 72.64 223.158 72.1867 222.977 71.664C222.806 71.1307 222.721 70.5333 222.721 69.872C222.721 69.2213 222.806 68.6293 222.977 68.096C223.158 67.5627 223.409 67.1093 223.729 66.736C224.059 66.352 224.449 66.0587 224.897 65.856C225.355 65.6533 225.867 65.552 226.433 65.552C226.987 65.552 227.483 65.6533 227.921 65.856C228.358 66.0587 228.731 66.3413 229.041 66.704C229.35 67.056 229.585 67.4773 229.745 67.968C229.915 68.4587 230.001 68.9973 230.001 69.584V70.192H224.065V70.576C224.065 70.928 224.118 71.2587 224.225 71.568C224.342 71.8667 224.502 72.128 224.705 72.352C224.918 72.576 225.174 72.752 225.473 72.88C225.782 73.008 226.129 73.072 226.513 73.072C227.035 73.072 227.489 72.9493 227.873 72.704C228.267 72.4587 228.571 72.1067 228.785 71.648L229.697 72.304C229.43 72.8693 229.014 73.328 228.449 73.68C227.883 74.0213 227.211 74.192 226.433 74.192ZM226.433 66.624C226.081 66.624 225.761 66.688 225.473 66.816C225.185 66.9333 224.934 67.104 224.721 67.328C224.518 67.552 224.358 67.8187 224.241 68.128C224.123 68.4267 224.065 68.7573 224.065 69.12V69.232H228.625V69.056C228.625 68.32 228.422 67.7333 228.017 67.296C227.622 66.848 227.094 66.624 226.433 66.624ZM233.934 74C233.486 74 233.145 73.8773 232.91 73.632C232.686 73.376 232.574 73.0453 232.574 72.64V66.864H231.214V65.744H231.982C232.259 65.744 232.446 65.6907 232.542 65.584C232.649 65.4667 232.702 65.2693 232.702 64.992V63.456H233.854V65.744H235.662V66.864H233.854V72.88H235.534V74H233.934ZM238.535 72.128C238.877 72.128 239.122 72.2187 239.271 72.4C239.431 72.5707 239.511 72.7947 239.511 73.072V73.296C239.511 73.7333 239.383 74.2133 239.127 74.736C238.871 75.2693 238.514 75.7333 238.055 76.128H236.983C237.303 75.7867 237.559 75.4613 237.751 75.152C237.954 74.8533 238.098 74.5173 238.183 74.144C237.97 74.0907 237.81 73.9893 237.703 73.84C237.607 73.6907 237.559 73.5093 237.559 73.296V73.072C237.559 72.7947 237.634 72.5707 237.783 72.4C237.943 72.2187 238.194 72.128 238.535 72.128ZM248.34 74.192C247.572 74.192 246.927 74.048 246.404 73.76C245.892 73.4613 245.449 73.0667 245.076 72.576L245.988 71.84C246.308 72.2453 246.665 72.56 247.06 72.784C247.455 72.9973 247.913 73.104 248.436 73.104C248.98 73.104 249.401 72.9867 249.7 72.752C250.009 72.5173 250.164 72.1867 250.164 71.76C250.164 71.44 250.057 71.168 249.844 70.944C249.641 70.7093 249.268 70.5493 248.724 70.464L248.068 70.368C247.684 70.3147 247.332 70.2347 247.012 70.128C246.692 70.0107 246.409 69.8613 246.164 69.68C245.929 69.488 245.743 69.2533 245.604 68.976C245.476 68.6987 245.412 68.368 245.412 67.984C245.412 67.5787 245.487 67.2267 245.636 66.928C245.785 66.6187 245.988 66.3627 246.244 66.16C246.511 65.9573 246.825 65.808 247.188 65.712C247.551 65.6053 247.94 65.552 248.356 65.552C249.028 65.552 249.588 65.6693 250.036 65.904C250.495 66.1387 250.895 66.464 251.236 66.88L250.388 67.648C250.207 67.392 249.94 67.1627 249.588 66.96C249.236 66.7467 248.793 66.64 248.26 66.64C247.727 66.64 247.321 66.7573 247.044 66.992C246.777 67.216 246.644 67.5253 246.644 67.92C246.644 68.3253 246.777 68.6187 247.044 68.8C247.321 68.9813 247.716 69.1147 248.228 69.2L248.868 69.296C249.785 69.4347 250.436 69.7013 250.82 70.096C251.204 70.48 251.396 70.9867 251.396 71.616C251.396 72.416 251.124 73.0453 250.58 73.504C250.036 73.9627 249.289 74.192 248.34 74.192ZM256.761 74.192C256.196 74.192 255.684 74.0907 255.225 73.888C254.777 73.6853 254.388 73.3973 254.057 73.024C253.737 72.64 253.486 72.1867 253.305 71.664C253.134 71.1307 253.049 70.5333 253.049 69.872C253.049 69.2213 253.134 68.6293 253.305 68.096C253.486 67.5627 253.737 67.1093 254.057 66.736C254.388 66.352 254.777 66.0587 255.225 65.856C255.684 65.6533 256.196 65.552 256.761 65.552C257.316 65.552 257.812 65.6533 258.249 65.856C258.686 66.0587 259.06 66.3413 259.369 66.704C259.678 67.056 259.913 67.4773 260.073 67.968C260.244 68.4587 260.329 68.9973 260.329 69.584V70.192H254.393V70.576C254.393 70.928 254.446 71.2587 254.553 71.568C254.67 71.8667 254.83 72.128 255.033 72.352C255.246 72.576 255.502 72.752 255.801 72.88C256.11 73.008 256.457 73.072 256.841 73.072C257.364 73.072 257.817 72.9493 258.201 72.704C258.596 72.4587 258.9 72.1067 259.113 71.648L260.025 72.304C259.758 72.8693 259.342 73.328 258.777 73.68C258.212 74.0213 257.54 74.192 256.761 74.192ZM256.761 66.624C256.409 66.624 256.089 66.688 255.801 66.816C255.513 66.9333 255.262 67.104 255.049 67.328C254.846 67.552 254.686 67.8187 254.569 68.128C254.452 68.4267 254.393 68.7573 254.393 69.12V69.232H258.953V69.056C258.953 68.32 258.75 67.7333 258.345 67.296C257.95 66.848 257.422 66.624 256.761 66.624ZM267.718 72.656H267.654C267.153 73.68 266.347 74.192 265.238 74.192C264.726 74.192 264.262 74.0907 263.846 73.888C263.43 73.6853 263.073 73.3973 262.774 73.024C262.486 72.6507 262.262 72.1973 262.102 71.664C261.953 71.1307 261.878 70.5333 261.878 69.872C261.878 69.2107 261.953 68.6133 262.102 68.08C262.262 67.5467 262.486 67.0933 262.774 66.72C263.073 66.3467 263.43 66.0587 263.846 65.856C264.262 65.6533 264.726 65.552 265.238 65.552C265.814 65.552 266.305 65.68 266.71 65.936C267.126 66.1813 267.441 66.5653 267.654 67.088H267.718V62.16H268.998V74H267.718V72.656ZM265.59 73.04C265.878 73.04 266.15 73.0027 266.406 72.928C266.673 72.8533 266.902 72.7467 267.094 72.608C267.286 72.4587 267.435 72.2827 267.542 72.08C267.659 71.8667 267.718 71.6267 267.718 71.36V68.288C267.718 68.064 267.659 67.856 267.542 67.664C267.435 67.4613 267.286 67.2907 267.094 67.152C266.902 67.0133 266.673 66.9067 266.406 66.832C266.15 66.7467 265.878 66.704 265.59 66.704C264.865 66.704 264.294 66.9333 263.878 67.392C263.462 67.84 263.254 68.432 263.254 69.168V70.576C263.254 71.312 263.462 71.9093 263.878 72.368C264.294 72.816 264.865 73.04 265.59 73.04ZM280.589 72.656H280.525C280.439 72.848 280.333 73.04 280.205 73.232C280.087 73.4133 279.938 73.5787 279.757 73.728C279.575 73.8667 279.357 73.9787 279.101 74.064C278.845 74.1493 278.546 74.192 278.205 74.192C277.351 74.192 276.674 73.92 276.173 73.376C275.671 72.8213 275.421 72.0427 275.421 71.04V65.744H276.701V70.816C276.701 72.2987 277.33 73.04 278.589 73.04C278.845 73.04 279.09 73.008 279.325 72.944C279.57 72.88 279.783 72.784 279.965 72.656C280.157 72.528 280.306 72.368 280.413 72.176C280.53 71.9733 280.589 71.7333 280.589 71.456V65.744H281.869V74H280.589V72.656ZM286.418 74C285.97 74 285.629 73.8773 285.394 73.632C285.17 73.376 285.058 73.0453 285.058 72.64V66.864H283.698V65.744H284.466C284.744 65.744 284.93 65.6907 285.026 65.584C285.133 65.4667 285.186 65.2693 285.186 64.992V63.456H286.338V65.744H288.146V66.864H286.338V72.88H288.018V74H286.418ZM293.985 65.744H295.265V67.088H295.329C295.542 66.5653 295.852 66.1813 296.257 65.936C296.673 65.68 297.169 65.552 297.745 65.552C298.257 65.552 298.721 65.6533 299.137 65.856C299.553 66.0587 299.905 66.3467 300.193 66.72C300.492 67.0933 300.716 67.5467 300.865 68.08C301.025 68.6133 301.105 69.2107 301.105 69.872C301.105 70.5333 301.025 71.1307 300.865 71.664C300.716 72.1973 300.492 72.6507 300.193 73.024C299.905 73.3973 299.553 73.6853 299.137 73.888C298.721 74.0907 298.257 74.192 297.745 74.192C296.625 74.192 295.82 73.68 295.329 72.656H295.265V77.2H293.985V65.744ZM297.393 73.04C298.118 73.04 298.689 72.816 299.105 72.368C299.521 71.9093 299.729 71.312 299.729 70.576V69.168C299.729 68.432 299.521 67.84 299.105 67.392C298.689 66.9333 298.118 66.704 297.393 66.704C297.105 66.704 296.828 66.7467 296.561 66.832C296.305 66.9067 296.081 67.0133 295.889 67.152C295.697 67.2907 295.542 67.4613 295.425 67.664C295.318 67.856 295.265 68.064 295.265 68.288V71.36C295.265 71.6267 295.318 71.8667 295.425 72.08C295.542 72.2827 295.697 72.4587 295.889 72.608C296.081 72.7467 296.305 72.8533 296.561 72.928C296.828 73.0027 297.105 73.04 297.393 73.04ZM306.37 74.192C305.805 74.192 305.293 74.0907 304.834 73.888C304.386 73.6853 303.997 73.3973 303.666 73.024C303.346 72.64 303.096 72.1867 302.914 71.664C302.744 71.1307 302.658 70.5333 302.658 69.872C302.658 69.2213 302.744 68.6293 302.914 68.096C303.096 67.5627 303.346 67.1093 303.666 66.736C303.997 66.352 304.386 66.0587 304.834 65.856C305.293 65.6533 305.805 65.552 306.37 65.552C306.925 65.552 307.421 65.6533 307.858 65.856C308.296 66.0587 308.669 66.3413 308.978 66.704C309.288 67.056 309.522 67.4773 309.682 67.968C309.853 68.4587 309.938 68.9973 309.938 69.584V70.192H304.002V70.576C304.002 70.928 304.056 71.2587 304.162 71.568C304.28 71.8667 304.44 72.128 304.642 72.352C304.856 72.576 305.112 72.752 305.41 72.88C305.72 73.008 306.066 73.072 306.45 73.072C306.973 73.072 307.426 72.9493 307.81 72.704C308.205 72.4587 308.509 72.1067 308.722 71.648L309.634 72.304C309.368 72.8693 308.952 73.328 308.386 73.68C307.821 74.0213 307.149 74.192 306.37 74.192ZM306.37 66.624C306.018 66.624 305.698 66.688 305.41 66.816C305.122 66.9333 304.872 67.104 304.658 67.328C304.456 67.552 304.296 67.8187 304.178 68.128C304.061 68.4267 304.002 68.7573 304.002 69.12V69.232H308.562V69.056C308.562 68.32 308.36 67.7333 307.954 67.296C307.56 66.848 307.032 66.624 306.37 66.624ZM312.048 74V65.744H313.328V67.264H313.408C313.557 66.8693 313.824 66.5173 314.208 66.208C314.592 65.8987 315.12 65.744 315.792 65.744H316.288V67.024H315.536C314.842 67.024 314.298 67.1573 313.904 67.424C313.52 67.68 313.328 68.0053 313.328 68.4V74H312.048ZM320.403 74.192C319.635 74.192 318.989 74.048 318.467 73.76C317.955 73.4613 317.512 73.0667 317.139 72.576L318.051 71.84C318.371 72.2453 318.728 72.56 319.123 72.784C319.517 72.9973 319.976 73.104 320.499 73.104C321.043 73.104 321.464 72.9867 321.763 72.752C322.072 72.5173 322.227 72.1867 322.227 71.76C322.227 71.44 322.12 71.168 321.907 70.944C321.704 70.7093 321.331 70.5493 320.786 70.464L320.131 70.368C319.747 70.3147 319.395 70.2347 319.075 70.128C318.755 70.0107 318.472 69.8613 318.227 69.68C317.992 69.488 317.805 69.2533 317.667 68.976C317.539 68.6987 317.475 68.368 317.475 67.984C317.475 67.5787 317.549 67.2267 317.699 66.928C317.848 66.6187 318.051 66.3627 318.307 66.16C318.573 65.9573 318.888 65.808 319.251 65.712C319.613 65.6053 320.003 65.552 320.419 65.552C321.091 65.552 321.651 65.6693 322.099 65.904C322.557 66.1387 322.957 66.464 323.299 66.88L322.451 67.648C322.269 67.392 322.003 67.1627 321.651 66.96C321.299 66.7467 320.856 66.64 320.323 66.64C319.789 66.64 319.384 66.7573 319.107 66.992C318.84 67.216 318.707 67.5253 318.707 67.92C318.707 68.3253 318.84 68.6187 319.107 68.8C319.384 68.9813 319.779 69.1147 320.291 69.2L320.931 69.296C321.848 69.4347 322.499 69.7013 322.883 70.096C323.267 70.48 323.459 70.9867 323.459 71.616C323.459 72.416 323.187 73.0453 322.643 73.504C322.099 73.9627 321.352 74.192 320.403 74.192ZM325.719 65.744H326.999V67.088H327.063C327.277 66.5653 327.586 66.1813 327.991 65.936C328.407 65.68 328.903 65.552 329.479 65.552C329.991 65.552 330.455 65.6533 330.871 65.856C331.287 66.0587 331.639 66.3467 331.927 66.72C332.226 67.0933 332.45 67.5467 332.599 68.08C332.759 68.6133 332.839 69.2107 332.839 69.872C332.839 70.5333 332.759 71.1307 332.599 71.664C332.45 72.1973 332.226 72.6507 331.927 73.024C331.639 73.3973 331.287 73.6853 330.871 73.888C330.455 74.0907 329.991 74.192 329.479 74.192C328.359 74.192 327.554 73.68 327.063 72.656H326.999V77.2H325.719V65.744ZM329.127 73.04C329.853 73.04 330.423 72.816 330.839 72.368C331.255 71.9093 331.463 71.312 331.463 70.576V69.168C331.463 68.432 331.255 67.84 330.839 67.392C330.423 66.9333 329.853 66.704 329.127 66.704C328.839 66.704 328.562 66.7467 328.295 66.832C328.039 66.9067 327.815 67.0133 327.623 67.152C327.431 67.2907 327.277 67.4613 327.159 67.664C327.053 67.856 326.999 68.064 326.999 68.288V71.36C326.999 71.6267 327.053 71.8667 327.159 72.08C327.277 72.2827 327.431 72.4587 327.623 72.608C327.815 72.7467 328.039 72.8533 328.295 72.928C328.562 73.0027 328.839 73.04 329.127 73.04ZM335.641 63.808C335.363 63.808 335.161 63.744 335.033 63.616C334.915 63.4773 334.857 63.3013 334.857 63.088V62.88C334.857 62.6667 334.915 62.496 335.033 62.368C335.161 62.2293 335.363 62.16 335.641 62.16C335.918 62.16 336.115 62.2293 336.233 62.368C336.361 62.496 336.425 62.6667 336.425 62.88V63.088C336.425 63.3013 336.361 63.4773 336.233 63.616C336.115 63.744 335.918 63.808 335.641 63.808ZM335.001 65.744H336.281V74H335.001V65.744ZM342.073 74.192C341.497 74.192 340.979 74.0907 340.521 73.888C340.062 73.6853 339.673 73.3973 339.353 73.024C339.043 72.6507 338.803 72.1973 338.633 71.664C338.473 71.1307 338.393 70.5333 338.393 69.872C338.393 69.2107 338.473 68.6133 338.633 68.08C338.803 67.5467 339.043 67.0933 339.353 66.72C339.673 66.3467 340.062 66.0587 340.521 65.856C340.979 65.6533 341.497 65.552 342.073 65.552C342.894 65.552 343.55 65.7333 344.041 66.096C344.542 66.448 344.915 66.912 345.161 67.488L344.089 68.032C343.939 67.6053 343.694 67.2747 343.353 67.04C343.011 66.8053 342.585 66.688 342.073 66.688C341.689 66.688 341.353 66.752 341.065 66.88C340.777 66.9973 340.537 67.168 340.345 67.392C340.153 67.6053 340.009 67.8667 339.913 68.176C339.817 68.4747 339.769 68.8053 339.769 69.168V70.576C339.769 71.3013 339.961 71.8987 340.345 72.368C340.739 72.8267 341.315 73.056 342.073 73.056C343.107 73.056 343.854 72.576 344.313 71.616L345.241 72.24C344.974 72.8373 344.574 73.312 344.041 73.664C343.518 74.016 342.862 74.192 342.073 74.192ZM347.688 63.808C347.41 63.808 347.208 63.744 347.08 63.616C346.962 63.4773 346.904 63.3013 346.904 63.088V62.88C346.904 62.6667 346.962 62.496 347.08 62.368C347.208 62.2293 347.41 62.16 347.688 62.16C347.965 62.16 348.162 62.2293 348.28 62.368C348.408 62.496 348.472 62.6667 348.472 62.88V63.088C348.472 63.3013 348.408 63.4773 348.28 63.616C348.162 63.744 347.965 63.808 347.688 63.808ZM347.048 65.744H348.328V74H347.048V65.744ZM357.048 74C356.568 74 356.221 73.872 356.008 73.616C355.805 73.36 355.677 73.04 355.624 72.656H355.544C355.362 73.168 355.064 73.552 354.648 73.808C354.232 74.064 353.736 74.192 353.16 74.192C352.285 74.192 351.602 73.968 351.112 73.52C350.632 73.072 350.392 72.464 350.392 71.696C350.392 70.9173 350.674 70.32 351.24 69.904C351.816 69.488 352.706 69.28 353.911 69.28H355.544V68.464C355.544 67.8773 355.384 67.4293 355.064 67.12C354.744 66.8107 354.253 66.656 353.592 66.656C353.09 66.656 352.669 66.768 352.328 66.992C351.997 67.216 351.72 67.5147 351.496 67.888L350.728 67.168C350.952 66.72 351.309 66.3413 351.799 66.032C352.29 65.712 352.909 65.552 353.656 65.552C354.658 65.552 355.437 65.7973 355.992 66.288C356.546 66.7787 356.824 67.4613 356.824 68.336V72.88H357.767V74H357.048ZM353.368 73.104C353.688 73.104 353.981 73.0667 354.248 72.992C354.514 72.9173 354.744 72.8107 354.936 72.672C355.128 72.5333 355.277 72.3733 355.384 72.192C355.49 72.0107 355.544 71.8133 355.544 71.6V70.24H353.848C353.112 70.24 352.573 70.3467 352.232 70.56C351.901 70.7733 351.736 71.0827 351.736 71.488V71.824C351.736 72.2293 351.88 72.544 352.168 72.768C352.466 72.992 352.866 73.104 353.368 73.104ZM361.418 74C360.97 74 360.629 73.8773 360.394 73.632C360.17 73.376 360.058 73.0453 360.058 72.64V66.864H358.698V65.744H359.466C359.744 65.744 359.93 65.6907 360.026 65.584C360.133 65.4667 360.186 65.2693 360.186 64.992V63.456H361.338V65.744H363.146V66.864H361.338V72.88H363.018V74H361.418ZM365.844 63.808C365.566 63.808 365.364 63.744 365.236 63.616C365.118 63.4773 365.06 63.3013 365.06 63.088V62.88C365.06 62.6667 365.118 62.496 365.236 62.368C365.364 62.2293 365.566 62.16 365.844 62.16C366.121 62.16 366.318 62.2293 366.436 62.368C366.564 62.496 366.628 62.6667 366.628 62.88V63.088C366.628 63.3013 366.564 63.4773 366.436 63.616C366.318 63.744 366.121 63.808 365.844 63.808ZM365.204 65.744H366.484V74H365.204V65.744ZM371.684 74.192C370.916 74.192 370.27 74.048 369.748 73.76C369.236 73.4613 368.793 73.0667 368.42 72.576L369.332 71.84C369.652 72.2453 370.009 72.56 370.404 72.784C370.798 72.9973 371.257 73.104 371.78 73.104C372.324 73.104 372.745 72.9867 373.044 72.752C373.353 72.5173 373.508 72.1867 373.508 71.76C373.508 71.44 373.401 71.168 373.188 70.944C372.985 70.7093 372.612 70.5493 372.068 70.464L371.412 70.368C371.028 70.3147 370.676 70.2347 370.356 70.128C370.036 70.0107 369.753 69.8613 369.508 69.68C369.273 69.488 369.086 69.2533 368.948 68.976C368.82 68.6987 368.756 68.368 368.756 67.984C368.756 67.5787 368.83 67.2267 368.98 66.928C369.129 66.6187 369.332 66.3627 369.588 66.16C369.854 65.9573 370.169 65.808 370.532 65.712C370.894 65.6053 371.284 65.552 371.7 65.552C372.372 65.552 372.932 65.6693 373.38 65.904C373.838 66.1387 374.238 66.464 374.58 66.88L373.732 67.648C373.55 67.392 373.284 67.1627 372.932 66.96C372.58 66.7467 372.137 66.64 371.604 66.64C371.07 66.64 370.665 66.7573 370.388 66.992C370.121 67.216 369.988 67.5253 369.988 67.92C369.988 68.3253 370.121 68.6187 370.388 68.8C370.665 68.9813 371.06 69.1147 371.572 69.2L372.212 69.296C373.129 69.4347 373.78 69.7013 374.164 70.096C374.548 70.48 374.74 70.9867 374.74 71.616C374.74 72.416 374.468 73.0453 373.924 73.504C373.38 73.9627 372.633 74.192 371.684 74.192ZM46.448 96.656H46.384C46.2987 96.848 46.192 97.04 46.064 97.232C45.9467 97.4133 45.7973 97.5787 45.616 97.728C45.4347 97.8667 45.216 97.9787 44.96 98.064C44.704 98.1493 44.4053 98.192 44.064 98.192C43.2107 98.192 42.5333 97.92 42.032 97.376C41.5307 96.8213 41.28 96.0427 41.28 95.04V89.744H42.56V94.816C42.56 96.2987 43.1893 97.04 44.448 97.04C44.704 97.04 44.9493 97.008 45.184 96.944C45.4293 96.88 45.6427 96.784 45.824 96.656C46.016 96.528 46.1653 96.368 46.272 96.176C46.3893 95.9733 46.448 95.7333 46.448 95.456V89.744H47.728V98H46.448V96.656ZM50.4538 98V89.744H51.7338V91.088H51.7978C52.0004 90.6187 52.2831 90.2453 52.6458 89.968C53.0191 89.6907 53.5151 89.552 54.1338 89.552C54.9871 89.552 55.6591 89.8293 56.1498 90.384C56.6511 90.928 56.9018 91.7013 56.9018 92.704V98H55.6218V92.928C55.6218 91.4453 54.9978 90.704 53.7498 90.704C53.4938 90.704 53.2431 90.736 52.9978 90.8C52.7631 90.864 52.5498 90.96 52.3578 91.088C52.1658 91.216 52.0111 91.3813 51.8938 91.584C51.7871 91.776 51.7338 92.0053 51.7338 92.272V98H50.4538ZM64.8275 96.656H64.7635C64.2622 97.68 63.4568 98.192 62.3475 98.192C61.8355 98.192 61.3715 98.0907 60.9555 97.888C60.5395 97.6853 60.1822 97.3973 59.8835 97.024C59.5955 96.6507 59.3715 96.1973 59.2115 95.664C59.0622 95.1307 58.9875 94.5333 58.9875 93.872C58.9875 93.2107 59.0622 92.6133 59.2115 92.08C59.3715 91.5467 59.5955 91.0933 59.8835 90.72C60.1822 90.3467 60.5395 90.0587 60.9555 89.856C61.3715 89.6533 61.8355 89.552 62.3475 89.552C62.9235 89.552 63.4142 89.68 63.8195 89.936C64.2355 90.1813 64.5502 90.5653 64.7635 91.088H64.8275V86.16H66.1075V98H64.8275V96.656ZM62.6995 97.04C62.9875 97.04 63.2595 97.0027 63.5155 96.928C63.7822 96.8533 64.0115 96.7467 64.2035 96.608C64.3955 96.4587 64.5448 96.2827 64.6515 96.08C64.7688 95.8667 64.8275 95.6267 64.8275 95.36V92.288C64.8275 92.064 64.7688 91.856 64.6515 91.664C64.5448 91.4613 64.3955 91.2907 64.2035 91.152C64.0115 91.0133 63.7822 90.9067 63.5155 90.832C63.2595 90.7467 62.9875 90.704 62.6995 90.704C61.9742 90.704 61.4035 90.9333 60.9875 91.392C60.5715 91.84 60.3635 92.432 60.3635 93.168V94.576C60.3635 95.312 60.5715 95.9093 60.9875 96.368C61.4035 96.816 61.9742 97.04 62.6995 97.04ZM71.9328 98.192C71.3674 98.192 70.8554 98.0907 70.3968 97.888C69.9488 97.6853 69.5594 97.3973 69.2288 97.024C68.9088 96.64 68.6581 96.1867 68.4768 95.664C68.3061 95.1307 68.2208 94.5333 68.2208 93.872C68.2208 93.2213 68.3061 92.6293 68.4768 92.096C68.6581 91.5627 68.9088 91.1093 69.2288 90.736C69.5594 90.352 69.9488 90.0587 70.3968 89.856C70.8554 89.6533 71.3674 89.552 71.9328 89.552C72.4874 89.552 72.9834 89.6533 73.4208 89.856C73.8581 90.0587 74.2314 90.3413 74.5408 90.704C74.8501 91.056 75.0848 91.4773 75.2448 91.968C75.4154 92.4587 75.5008 92.9973 75.5008 93.584V94.192H69.5648V94.576C69.5648 94.928 69.6181 95.2587 69.7248 95.568C69.8421 95.8667 70.0021 96.128 70.2048 96.352C70.4181 96.576 70.6741 96.752 70.9728 96.88C71.2821 97.008 71.6288 97.072 72.0128 97.072C72.5354 97.072 72.9888 96.9493 73.3728 96.704C73.7674 96.4587 74.0714 96.1067 74.2848 95.648L75.1968 96.304C74.9301 96.8693 74.5141 97.328 73.9488 97.68C73.3834 98.0213 72.7114 98.192 71.9328 98.192ZM71.9328 90.624C71.5808 90.624 71.2608 90.688 70.9728 90.816C70.6848 90.9333 70.4341 91.104 70.2208 91.328C70.0181 91.552 69.8581 91.8187 69.7408 92.128C69.6234 92.4267 69.5648 92.7573 69.5648 93.12V93.232H74.1248V93.056C74.1248 92.32 73.9221 91.7333 73.5168 91.296C73.1221 90.848 72.5941 90.624 71.9328 90.624ZM84.5113 98.192C83.9566 98.192 83.4499 98.0907 82.9913 97.888C82.5326 97.6853 82.1379 97.3973 81.8073 97.024C81.4873 96.64 81.2366 96.1867 81.0553 95.664C80.8739 95.1307 80.7833 94.5333 80.7833 93.872C80.7833 93.2213 80.8739 92.6293 81.0553 92.096C81.2366 91.5627 81.4873 91.1093 81.8073 90.736C82.1379 90.352 82.5326 90.0587 82.9913 89.856C83.4499 89.6533 83.9566 89.552 84.5113 89.552C85.0659 89.552 85.5673 89.6533 86.0153 89.856C86.4739 90.0587 86.8686 90.352 87.1993 90.736C87.5299 91.1093 87.7859 91.5627 87.9673 92.096C88.1486 92.6293 88.2393 93.2213 88.2393 93.872C88.2393 94.5333 88.1486 95.1307 87.9673 95.664C87.7859 96.1867 87.5299 96.64 87.1993 97.024C86.8686 97.3973 86.4739 97.6853 86.0153 97.888C85.5673 98.0907 85.0659 98.192 84.5113 98.192ZM84.5113 97.056C85.2046 97.056 85.7699 96.8427 86.2073 96.416C86.6446 95.9893 86.8633 95.3387 86.8633 94.464V93.28C86.8633 92.4053 86.6446 91.7547 86.2073 91.328C85.7699 90.9013 85.2046 90.688 84.5113 90.688C83.8179 90.688 83.2526 90.9013 82.8153 91.328C82.3779 91.7547 82.1593 92.4053 82.1593 93.28V94.464C82.1593 95.3387 82.3779 95.9893 82.8153 96.416C83.2526 96.8427 83.8179 97.056 84.5113 97.056ZM90.3444 98V89.744H91.6244V91.088H91.6884C91.7844 90.8747 91.891 90.6773 92.0084 90.496C92.1364 90.304 92.2857 90.1387 92.4564 90C92.6377 89.8613 92.8457 89.7547 93.0804 89.68C93.315 89.5947 93.5924 89.552 93.9124 89.552C94.4564 89.552 94.9577 89.6853 95.4164 89.952C95.875 90.208 96.2164 90.6347 96.4404 91.232H96.4724C96.6217 90.784 96.899 90.3947 97.3044 90.064C97.7204 89.7227 98.2804 89.552 98.9844 89.552C99.827 89.552 100.483 89.8293 100.952 90.384C101.432 90.928 101.672 91.7013 101.672 92.704V98H100.392V92.928C100.392 92.192 100.248 91.6373 99.9604 91.264C99.6724 90.8907 99.2137 90.704 98.5844 90.704C98.3284 90.704 98.083 90.736 97.8484 90.8C97.6244 90.864 97.4217 90.96 97.2404 91.088C97.059 91.216 96.915 91.3813 96.8084 91.584C96.7017 91.776 96.6484 92.0053 96.6484 92.272V98H95.3684V92.928C95.3684 92.192 95.2244 91.6373 94.9364 91.264C94.6484 90.8907 94.2004 90.704 93.5924 90.704C93.3364 90.704 93.091 90.736 92.8564 90.8C92.6217 90.864 92.4137 90.96 92.2324 91.088C92.051 91.216 91.9017 91.3813 91.7844 91.584C91.6777 91.776 91.6244 92.0053 91.6244 92.272V98H90.3444ZM104.313 98V89.744H105.593V91.088H105.657C105.86 90.6187 106.142 90.2453 106.505 89.968C106.878 89.6907 107.374 89.552 107.993 89.552C108.846 89.552 109.518 89.8293 110.009 90.384C110.51 90.928 110.761 91.7013 110.761 92.704V98H109.481V92.928C109.481 91.4453 108.857 90.704 107.609 90.704C107.353 90.704 107.102 90.736 106.857 90.8C106.622 90.864 106.409 90.96 106.217 91.088C106.025 91.216 105.87 91.3813 105.753 91.584C105.646 91.776 105.593 92.0053 105.593 92.272V98H104.313ZM114.047 87.808C113.77 87.808 113.567 87.744 113.439 87.616C113.322 87.4773 113.263 87.3013 113.263 87.088V86.88C113.263 86.6667 113.322 86.496 113.439 86.368C113.567 86.2293 113.77 86.16 114.047 86.16C114.324 86.16 114.522 86.2293 114.639 86.368C114.767 86.496 114.831 86.6667 114.831 86.88V87.088C114.831 87.3013 114.767 87.4773 114.639 87.616C114.522 87.744 114.324 87.808 114.047 87.808ZM113.407 89.744H114.687V98H113.407V89.744ZM119.887 98.192C119.119 98.192 118.474 98.048 117.951 97.76C117.439 97.4613 116.996 97.0667 116.623 96.576L117.535 95.84C117.855 96.2453 118.212 96.56 118.607 96.784C119.002 96.9973 119.46 97.104 119.983 97.104C120.527 97.104 120.948 96.9867 121.247 96.752C121.556 96.5173 121.711 96.1867 121.711 95.76C121.711 95.44 121.604 95.168 121.391 94.944C121.188 94.7093 120.815 94.5493 120.271 94.464L119.615 94.368C119.231 94.3147 118.879 94.2347 118.559 94.128C118.239 94.0107 117.956 93.8613 117.711 93.68C117.476 93.488 117.29 93.2533 117.151 92.976C117.023 92.6987 116.959 92.368 116.959 91.984C116.959 91.5787 117.034 91.2267 117.183 90.928C117.332 90.6187 117.535 90.3627 117.791 90.16C118.058 89.9573 118.372 89.808 118.735 89.712C119.098 89.6053 119.487 89.552 119.903 89.552C120.575 89.552 121.135 89.6693 121.583 89.904C122.042 90.1387 122.442 90.464 122.783 90.88L121.935 91.648C121.754 91.392 121.487 91.1627 121.135 90.96C120.783 90.7467 120.34 90.64 119.807 90.64C119.274 90.64 118.868 90.7573 118.591 90.992C118.324 91.216 118.191 91.5253 118.191 91.92C118.191 92.3253 118.324 92.6187 118.591 92.8C118.868 92.9813 119.263 93.1147 119.775 93.2L120.415 93.296C121.332 93.4347 121.983 93.7013 122.367 94.096C122.751 94.48 122.943 94.9867 122.943 95.616C122.943 96.416 122.671 97.0453 122.127 97.504C121.583 97.9627 120.836 98.192 119.887 98.192ZM129.625 87.808C129.348 87.808 129.145 87.744 129.017 87.616C128.9 87.4773 128.841 87.3013 128.841 87.088V86.88C128.841 86.6667 128.9 86.496 129.017 86.368C129.145 86.2293 129.348 86.16 129.625 86.16C129.902 86.16 130.1 86.2293 130.217 86.368C130.345 86.496 130.409 86.6667 130.409 86.88V87.088C130.409 87.3013 130.345 87.4773 130.217 87.616C130.1 87.744 129.902 87.808 129.625 87.808ZM128.985 89.744H130.265V98H128.985V89.744ZM135.465 98.192C134.697 98.192 134.052 98.048 133.529 97.76C133.017 97.4613 132.574 97.0667 132.201 96.576L133.113 95.84C133.433 96.2453 133.79 96.56 134.185 96.784C134.58 96.9973 135.038 97.104 135.561 97.104C136.105 97.104 136.526 96.9867 136.825 96.752C137.134 96.5173 137.289 96.1867 137.289 95.76C137.289 95.44 137.182 95.168 136.969 94.944C136.766 94.7093 136.393 94.5493 135.849 94.464L135.193 94.368C134.809 94.3147 134.457 94.2347 134.137 94.128C133.817 94.0107 133.534 93.8613 133.289 93.68C133.054 93.488 132.868 93.2533 132.729 92.976C132.601 92.6987 132.537 92.368 132.537 91.984C132.537 91.5787 132.612 91.2267 132.761 90.928C132.91 90.6187 133.113 90.3627 133.369 90.16C133.636 89.9573 133.95 89.808 134.313 89.712C134.676 89.6053 135.065 89.552 135.481 89.552C136.153 89.552 136.713 89.6693 137.161 89.904C137.62 90.1387 138.02 90.464 138.361 90.88L137.513 91.648C137.332 91.392 137.065 91.1627 136.713 90.96C136.361 90.7467 135.918 90.64 135.385 90.64C134.852 90.64 134.446 90.7573 134.169 90.992C133.902 91.216 133.769 91.5253 133.769 91.92C133.769 92.3253 133.902 92.6187 134.169 92.8C134.446 92.9813 134.841 93.1147 135.353 93.2L135.993 93.296C136.91 93.4347 137.561 93.7013 137.945 94.096C138.329 94.48 138.521 94.9867 138.521 95.616C138.521 96.416 138.249 97.0453 137.705 97.504C137.161 97.9627 136.414 98.192 135.465 98.192ZM142.497 98C142.049 98 141.707 97.8773 141.473 97.632C141.249 97.376 141.137 97.0453 141.137 96.64V90.864H139.777V89.744H140.545C140.822 89.744 141.009 89.6907 141.105 89.584C141.211 89.4667 141.265 89.2693 141.265 88.992V87.456H142.417V89.744H144.225V90.864H142.417V96.88H144.097V98H142.497ZM149.323 98.192C148.758 98.192 148.246 98.0907 147.787 97.888C147.339 97.6853 146.95 97.3973 146.619 97.024C146.299 96.64 146.049 96.1867 145.867 95.664C145.697 95.1307 145.611 94.5333 145.611 93.872C145.611 93.2213 145.697 92.6293 145.867 92.096C146.049 91.5627 146.299 91.1093 146.619 90.736C146.95 90.352 147.339 90.0587 147.787 89.856C148.246 89.6533 148.758 89.552 149.323 89.552C149.878 89.552 150.374 89.6533 150.811 89.856C151.249 90.0587 151.622 90.3413 151.931 90.704C152.241 91.056 152.475 91.4773 152.635 91.968C152.806 92.4587 152.891 92.9973 152.891 93.584V94.192H146.955V94.576C146.955 94.928 147.009 95.2587 147.115 95.568C147.233 95.8667 147.393 96.128 147.595 96.352C147.809 96.576 148.065 96.752 148.363 96.88C148.673 97.008 149.019 97.072 149.403 97.072C149.926 97.072 150.379 96.9493 150.763 96.704C151.158 96.4587 151.462 96.1067 151.675 95.648L152.587 96.304C152.321 96.8693 151.905 97.328 151.339 97.68C150.774 98.0213 150.102 98.192 149.323 98.192ZM149.323 90.624C148.971 90.624 148.651 90.688 148.363 90.816C148.075 90.9333 147.825 91.104 147.611 91.328C147.409 91.552 147.249 91.8187 147.131 92.128C147.014 92.4267 146.955 92.7573 146.955 93.12V93.232H151.515V93.056C151.515 92.32 151.313 91.7333 150.907 91.296C150.513 90.848 149.985 90.624 149.323 90.624ZM158.782 98V89.744H160.062V91.088H160.126C160.329 90.6187 160.611 90.2453 160.974 89.968C161.347 89.6907 161.843 89.552 162.462 89.552C163.315 89.552 163.987 89.8293 164.478 90.384C164.979 90.928 165.23 91.7013 165.23 92.704V98H163.95V92.928C163.95 91.4453 163.326 90.704 162.078 90.704C161.822 90.704 161.571 90.736 161.326 90.8C161.091 90.864 160.878 90.96 160.686 91.088C160.494 91.216 160.339 91.3813 160.222 91.584C160.115 91.776 160.062 92.0053 160.062 92.272V98H158.782ZM173.876 98C173.396 98 173.049 97.872 172.836 97.616C172.633 97.36 172.505 97.04 172.452 96.656H172.372C172.19 97.168 171.892 97.552 171.476 97.808C171.06 98.064 170.564 98.192 169.988 98.192C169.113 98.192 168.43 97.968 167.94 97.52C167.46 97.072 167.22 96.464 167.22 95.696C167.22 94.9173 167.502 94.32 168.068 93.904C168.644 93.488 169.534 93.28 170.74 93.28H172.372V92.464C172.372 91.8773 172.212 91.4293 171.892 91.12C171.572 90.8107 171.081 90.656 170.42 90.656C169.918 90.656 169.497 90.768 169.156 90.992C168.825 91.216 168.548 91.5147 168.324 91.888L167.556 91.168C167.78 90.72 168.137 90.3413 168.628 90.032C169.118 89.712 169.737 89.552 170.484 89.552C171.486 89.552 172.265 89.7973 172.82 90.288C173.374 90.7787 173.652 91.4613 173.652 92.336V96.88H174.596V98H173.876ZM170.196 97.104C170.516 97.104 170.809 97.0667 171.076 96.992C171.342 96.9173 171.572 96.8107 171.764 96.672C171.956 96.5333 172.105 96.3733 172.212 96.192C172.318 96.0107 172.372 95.8133 172.372 95.6V94.24H170.676C169.94 94.24 169.401 94.3467 169.06 94.56C168.729 94.7733 168.564 95.0827 168.564 95.488V95.824C168.564 96.2293 168.708 96.544 168.996 96.768C169.294 96.992 169.694 97.104 170.196 97.104ZM178.247 98C177.799 98 177.457 97.8773 177.223 97.632C176.999 97.376 176.887 97.0453 176.887 96.64V90.864H175.527V89.744H176.295C176.572 89.744 176.759 89.6907 176.855 89.584C176.961 89.4667 177.015 89.2693 177.015 88.992V87.456H178.167V89.744H179.975V90.864H178.167V96.88H179.847V98H178.247ZM187.12 96.656H187.056C186.971 96.848 186.864 97.04 186.736 97.232C186.619 97.4133 186.469 97.5787 186.288 97.728C186.107 97.8667 185.888 97.9787 185.632 98.064C185.376 98.1493 185.077 98.192 184.736 98.192C183.883 98.192 183.205 97.92 182.704 97.376C182.203 96.8213 181.952 96.0427 181.952 95.04V89.744H183.232V94.816C183.232 96.2987 183.861 97.04 185.12 97.04C185.376 97.04 185.621 97.008 185.856 96.944C186.101 96.88 186.315 96.784 186.496 96.656C186.688 96.528 186.837 96.368 186.944 96.176C187.061 95.9733 187.12 95.7333 187.12 95.456V89.744H188.4V98H187.12V96.656ZM193.606 98.192C192.838 98.192 192.192 98.048 191.67 97.76C191.158 97.4613 190.715 97.0667 190.342 96.576L191.254 95.84C191.574 96.2453 191.931 96.56 192.326 96.784C192.72 96.9973 193.179 97.104 193.702 97.104C194.246 97.104 194.667 96.9867 194.966 96.752C195.275 96.5173 195.43 96.1867 195.43 95.76C195.43 95.44 195.323 95.168 195.11 94.944C194.907 94.7093 194.534 94.5493 193.99 94.464L193.334 94.368C192.95 94.3147 192.598 94.2347 192.278 94.128C191.958 94.0107 191.675 93.8613 191.43 93.68C191.195 93.488 191.008 93.2533 190.87 92.976C190.742 92.6987 190.678 92.368 190.678 91.984C190.678 91.5787 190.752 91.2267 190.902 90.928C191.051 90.6187 191.254 90.3627 191.51 90.16C191.776 89.9573 192.091 89.808 192.454 89.712C192.816 89.6053 193.206 89.552 193.622 89.552C194.294 89.552 194.854 89.6693 195.302 89.904C195.76 90.1387 196.16 90.464 196.502 90.88L195.654 91.648C195.472 91.392 195.206 91.1627 194.854 90.96C194.502 90.7467 194.059 90.64 193.526 90.64C192.992 90.64 192.587 90.7573 192.31 90.992C192.043 91.216 191.91 91.5253 191.91 91.92C191.91 92.3253 192.043 92.6187 192.31 92.8C192.587 92.9813 192.982 93.1147 193.494 93.2L194.134 93.296C195.051 93.4347 195.702 93.7013 196.086 94.096C196.47 94.48 196.662 94.9867 196.662 95.616C196.662 96.416 196.39 97.0453 195.846 97.504C195.302 97.9627 194.555 98.192 193.606 98.192ZM205.808 98.192C205.242 98.192 204.73 98.0907 204.272 97.888C203.824 97.6853 203.434 97.3973 203.104 97.024C202.784 96.64 202.533 96.1867 202.352 95.664C202.181 95.1307 202.096 94.5333 202.096 93.872C202.096 93.2213 202.181 92.6293 202.352 92.096C202.533 91.5627 202.784 91.1093 203.104 90.736C203.434 90.352 203.824 90.0587 204.272 89.856C204.73 89.6533 205.242 89.552 205.808 89.552C206.362 89.552 206.858 89.6533 207.296 89.856C207.733 90.0587 208.106 90.3413 208.416 90.704C208.725 91.056 208.96 91.4773 209.12 91.968C209.29 92.4587 209.376 92.9973 209.376 93.584V94.192H203.44V94.576C203.44 94.928 203.493 95.2587 203.6 95.568C203.717 95.8667 203.877 96.128 204.08 96.352C204.293 96.576 204.549 96.752 204.848 96.88C205.157 97.008 205.504 97.072 205.888 97.072C206.41 97.072 206.864 96.9493 207.248 96.704C207.642 96.4587 207.946 96.1067 208.16 95.648L209.072 96.304C208.805 96.8693 208.389 97.328 207.824 97.68C207.258 98.0213 206.586 98.192 205.808 98.192ZM205.808 90.624C205.456 90.624 205.136 90.688 204.848 90.816C204.56 90.9333 204.309 91.104 204.096 91.328C203.893 91.552 203.733 91.8187 203.616 92.128C203.498 92.4267 203.44 92.7573 203.44 93.12V93.232H208V93.056C208 92.32 207.797 91.7333 207.392 91.296C206.997 90.848 206.469 90.624 205.808 90.624ZM211.485 98V89.744H212.765V91.264H212.845C212.994 90.8693 213.261 90.5173 213.645 90.208C214.029 89.8987 214.557 89.744 215.229 89.744H215.725V91.024H214.973C214.28 91.024 213.736 91.1573 213.341 91.424C212.957 91.68 212.765 92.0053 212.765 92.4V98H211.485ZM217.36 98V89.744H218.64V91.264H218.72C218.869 90.8693 219.136 90.5173 219.52 90.208C219.904 89.8987 220.432 89.744 221.104 89.744H221.6V91.024H220.848C220.155 91.024 219.611 91.1573 219.216 91.424C218.832 91.68 218.64 92.0053 218.64 92.4V98H217.36ZM226.277 98.192C225.722 98.192 225.216 98.0907 224.757 97.888C224.298 97.6853 223.904 97.3973 223.573 97.024C223.253 96.64 223.002 96.1867 222.821 95.664C222.64 95.1307 222.549 94.5333 222.549 93.872C222.549 93.2213 222.64 92.6293 222.821 92.096C223.002 91.5627 223.253 91.1093 223.573 90.736C223.904 90.352 224.298 90.0587 224.757 89.856C225.216 89.6533 225.722 89.552 226.277 89.552C226.832 89.552 227.333 89.6533 227.781 89.856C228.24 90.0587 228.634 90.352 228.965 90.736C229.296 91.1093 229.552 91.5627 229.733 92.096C229.914 92.6293 230.005 93.2213 230.005 93.872C230.005 94.5333 229.914 95.1307 229.733 95.664C229.552 96.1867 229.296 96.64 228.965 97.024C228.634 97.3973 228.24 97.6853 227.781 97.888C227.333 98.0907 226.832 98.192 226.277 98.192ZM226.277 97.056C226.97 97.056 227.536 96.8427 227.973 96.416C228.41 95.9893 228.629 95.3387 228.629 94.464V93.28C228.629 92.4053 228.41 91.7547 227.973 91.328C227.536 90.9013 226.97 90.688 226.277 90.688C225.584 90.688 225.018 90.9013 224.581 91.328C224.144 91.7547 223.925 92.4053 223.925 93.28V94.464C223.925 95.3387 224.144 95.9893 224.581 96.416C225.018 96.8427 225.584 97.056 226.277 97.056ZM232.11 98V89.744H233.39V91.264H233.47C233.619 90.8693 233.886 90.5173 234.27 90.208C234.654 89.8987 235.182 89.744 235.854 89.744H236.35V91.024H235.598C234.905 91.024 234.361 91.1573 233.966 91.424C233.582 91.68 233.39 92.0053 233.39 92.4V98H232.11ZM237.52 98.192C237.178 98.192 236.928 98.1067 236.768 97.936C236.618 97.7653 236.544 97.5413 236.544 97.264V97.056C236.544 96.7787 236.618 96.5547 236.768 96.384C236.928 96.2133 237.178 96.128 237.52 96.128C237.861 96.128 238.106 96.2133 238.256 96.384C238.416 96.5547 238.496 96.7787 238.496 97.056V97.264C238.496 97.5413 238.416 97.7653 238.256 97.936C238.106 98.1067 237.861 98.192 237.52 98.192Z" fill="#1A1A1A"/>
<path d="M18.46 180V159.06H22.42V176.49H30.67V180H18.46ZM39.7816 180.36C38.6616 180.36 37.6516 180.17 36.7516 179.79C35.8716 179.41 35.1116 178.86 34.4716 178.14C33.8516 177.42 33.3716 176.56 33.0316 175.56C32.6916 174.54 32.5216 173.4 32.5216 172.14C32.5216 170.88 32.6916 169.75 33.0316 168.75C33.3716 167.75 33.8516 166.9 34.4716 166.2C35.1116 165.48 35.8716 164.93 36.7516 164.55C37.6516 164.17 38.6616 163.98 39.7816 163.98C40.9016 163.98 41.9116 164.17 42.8116 164.55C43.7116 164.93 44.4716 165.48 45.0916 166.2C45.7316 166.9 46.2216 167.75 46.5616 168.75C46.9016 169.75 47.0716 170.88 47.0716 172.14C47.0716 173.4 46.9016 174.54 46.5616 175.56C46.2216 176.56 45.7316 177.42 45.0916 178.14C44.4716 178.86 43.7116 179.41 42.8116 179.79C41.9116 180.17 40.9016 180.36 39.7816 180.36ZM39.7816 177.27C40.8016 177.27 41.6016 176.96 42.1816 176.34C42.7616 175.72 43.0516 174.81 43.0516 173.61V170.7C43.0516 169.52 42.7616 168.62 42.1816 168C41.6016 167.38 40.8016 167.07 39.7816 167.07C38.7816 167.07 37.9916 167.38 37.4116 168C36.8316 168.62 36.5416 169.52 36.5416 170.7V173.61C36.5416 174.81 36.8316 175.72 37.4116 176.34C37.9916 176.96 38.7816 177.27 39.7816 177.27ZM50.4759 180V164.34H54.3159V167.58H54.4659C54.5659 167.16 54.7159 166.76 54.9159 166.38C55.1359 165.98 55.4159 165.63 55.7559 165.33C56.0959 165.03 56.4959 164.79 56.9559 164.61C57.4359 164.43 57.9859 164.34 58.6059 164.34H59.4459V167.97H58.2459C56.9459 167.97 55.9659 168.16 55.3059 168.54C54.6459 168.92 54.3159 169.54 54.3159 170.4V180H50.4759ZM68.4367 180.36C67.2767 180.36 66.2367 180.17 65.3167 179.79C64.4167 179.39 63.6467 178.84 63.0067 178.14C62.3867 177.42 61.9067 176.56 61.5667 175.56C61.2267 174.54 61.0567 173.4 61.0567 172.14C61.0567 170.9 61.2167 169.78 61.5367 168.78C61.8767 167.78 62.3567 166.93 62.9767 166.23C63.5967 165.51 64.3567 164.96 65.2567 164.58C66.1567 164.18 67.1767 163.98 68.3167 163.98C69.5367 163.98 70.5967 164.19 71.4967 164.61C72.3967 165.03 73.1367 165.6 73.7167 166.32C74.2967 167.04 74.7267 167.88 75.0067 168.84C75.3067 169.78 75.4567 170.79 75.4567 171.87V173.13H65.0467V173.52C65.0467 174.66 65.3667 175.58 66.0067 176.28C66.6467 176.96 67.5967 177.3 68.8567 177.3C69.8167 177.3 70.5967 177.1 71.1967 176.7C71.8167 176.3 72.3667 175.79 72.8467 175.17L74.9167 177.48C74.2767 178.38 73.3967 179.09 72.2767 179.61C71.1767 180.11 69.8967 180.36 68.4367 180.36ZM68.3767 166.86C67.3567 166.86 66.5467 167.2 65.9467 167.88C65.3467 168.56 65.0467 169.44 65.0467 170.52V170.76H71.4667V170.49C71.4667 169.41 71.1967 168.54 70.6567 167.88C70.1367 167.2 69.3767 166.86 68.3767 166.86ZM78.8352 180V164.34H82.6752V166.95H82.8252C83.1252 166.13 83.6052 165.43 84.2652 164.85C84.9252 164.27 85.8452 163.98 87.0252 163.98C88.1052 163.98 89.0352 164.24 89.8152 164.76C90.5952 165.28 91.1752 166.07 91.5552 167.13H91.6152C91.8952 166.25 92.4452 165.51 93.2652 164.91C94.1052 164.29 95.1552 163.98 96.4152 163.98C97.9552 163.98 99.1352 164.51 99.9552 165.57C100.795 166.63 101.215 168.14 101.215 170.1V180H97.3752V170.49C97.3752 168.25 96.5352 167.13 94.8552 167.13C94.4752 167.13 94.1052 167.19 93.7452 167.31C93.4052 167.41 93.0952 167.57 92.8152 167.79C92.5552 167.99 92.3452 168.25 92.1852 168.57C92.0252 168.87 91.9452 169.23 91.9452 169.65V180H88.1052V170.49C88.1052 168.25 87.2652 167.13 85.5852 167.13C85.2252 167.13 84.8652 167.19 84.5052 167.31C84.1652 167.41 83.8552 167.57 83.5752 167.79C83.3152 167.99 83.0952 168.25 82.9152 168.57C82.7552 168.87 82.6752 169.23 82.6752 169.65V180H78.8352ZM114.476 162.06C113.676 162.06 113.096 161.88 112.736 161.52C112.396 161.16 112.226 160.7 112.226 160.14V159.54C112.226 158.98 112.396 158.52 112.736 158.16C113.096 157.8 113.676 157.62 114.476 157.62C115.256 157.62 115.826 157.8 116.186 158.16C116.546 158.52 116.726 158.98 116.726 159.54V160.14C116.726 160.7 116.546 161.16 116.186 161.52C115.826 161.88 115.256 162.06 114.476 162.06ZM112.556 164.34H116.396V180H112.556V164.34ZM120.847 164.34H124.687V166.92H124.807C125.087 166.02 125.617 165.31 126.397 164.79C127.177 164.25 128.087 163.98 129.127 163.98C131.127 163.98 132.647 164.69 133.687 166.11C134.747 167.51 135.277 169.52 135.277 172.14C135.277 174.78 134.747 176.81 133.687 178.23C132.647 179.65 131.127 180.36 129.127 180.36C128.087 180.36 127.177 180.09 126.397 179.55C125.637 179.01 125.107 178.29 124.807 177.39H124.687V186H120.847V164.34ZM127.897 177.18C128.897 177.18 129.707 176.85 130.327 176.19C130.947 175.53 131.257 174.64 131.257 173.52V170.82C131.257 169.7 130.947 168.81 130.327 168.15C129.707 167.47 128.897 167.13 127.897 167.13C126.977 167.13 126.207 167.36 125.587 167.82C124.987 168.28 124.687 168.89 124.687 169.65V174.63C124.687 175.45 124.987 176.08 125.587 176.52C126.207 176.96 126.977 177.18 127.897 177.18ZM143.965 180.36C142.465 180.36 141.205 180.11 140.185 179.61C139.165 179.09 138.265 178.38 137.485 177.48L139.825 175.2C140.405 175.86 141.035 176.38 141.715 176.76C142.415 177.14 143.215 177.33 144.115 177.33C145.035 177.33 145.695 177.17 146.095 176.85C146.515 176.53 146.725 176.09 146.725 175.53C146.725 175.07 146.575 174.71 146.275 174.45C145.995 174.17 145.505 173.98 144.805 173.88L143.245 173.67C141.545 173.45 140.245 172.97 139.345 172.23C138.465 171.47 138.025 170.37 138.025 168.93C138.025 168.17 138.165 167.49 138.445 166.89C138.725 166.27 139.125 165.75 139.645 165.33C140.165 164.89 140.785 164.56 141.505 164.34C142.245 164.1 143.065 163.98 143.965 163.98C144.725 163.98 145.395 164.04 145.975 164.16C146.575 164.26 147.115 164.42 147.595 164.64C148.075 164.84 148.515 165.1 148.915 165.42C149.315 165.72 149.705 166.06 150.085 166.44L147.835 168.69C147.375 168.21 146.825 167.81 146.185 167.49C145.545 167.17 144.845 167.01 144.085 167.01C143.245 167.01 142.635 167.16 142.255 167.46C141.895 167.76 141.715 168.15 141.715 168.63C141.715 169.15 141.865 169.55 142.165 169.83C142.485 170.09 143.015 170.28 143.755 170.4L145.345 170.61C148.725 171.09 150.415 172.63 150.415 175.23C150.415 175.99 150.255 176.69 149.935 177.33C149.635 177.95 149.205 178.49 148.645 178.95C148.085 179.39 147.405 179.74 146.605 180C145.825 180.24 144.945 180.36 143.965 180.36ZM163.166 177.39H163.016C162.876 177.79 162.686 178.17 162.446 178.53C162.226 178.87 161.936 179.18 161.576 179.46C161.236 179.74 160.816 179.96 160.316 180.12C159.836 180.28 159.276 180.36 158.636 180.36C157.016 180.36 155.776 179.83 154.916 178.77C154.056 177.71 153.626 176.2 153.626 174.24V164.34H157.466V173.85C157.466 174.93 157.676 175.76 158.096 176.34C158.516 176.9 159.186 177.18 160.106 177.18C160.486 177.18 160.856 177.13 161.216 177.03C161.596 176.93 161.926 176.78 162.206 176.58C162.486 176.36 162.716 176.1 162.896 175.8C163.076 175.48 163.166 175.11 163.166 174.69V164.34H167.006V180H163.166V177.39ZM171.443 180V164.34H175.283V166.95H175.433C175.733 166.13 176.213 165.43 176.873 164.85C177.533 164.27 178.453 163.98 179.633 163.98C180.713 163.98 181.643 164.24 182.423 164.76C183.203 165.28 183.783 166.07 184.163 167.13H184.223C184.503 166.25 185.053 165.51 185.873 164.91C186.713 164.29 187.763 163.98 189.023 163.98C190.563 163.98 191.743 164.51 192.563 165.57C193.403 166.63 193.823 168.14 193.823 170.1V180H189.983V170.49C189.983 168.25 189.143 167.13 187.463 167.13C187.083 167.13 186.713 167.19 186.353 167.31C186.013 167.41 185.703 167.57 185.423 167.79C185.163 167.99 184.953 168.25 184.793 168.57C184.633 168.87 184.553 169.23 184.553 169.65V180H180.713V170.49C180.713 168.25 179.873 167.13 178.193 167.13C177.833 167.13 177.473 167.19 177.113 167.31C176.773 167.41 176.463 167.57 176.183 167.79C175.923 167.99 175.703 168.25 175.523 168.57C175.363 168.87 175.283 169.23 175.283 169.65V180H171.443Z" fill="#1A1A1A"/>
<rect x="16.5" y="247.5" width="159" height="39" rx="3.5" stroke="#747474"/>
<path d="M17.312 222.832H21.376C22.1013 222.832 22.7573 222.949 23.344 223.184C23.9413 223.419 24.448 223.771 24.864 224.24C25.2907 224.699 25.616 225.28 25.84 225.984C26.0747 226.677 26.192 227.488 26.192 228.416C26.192 229.344 26.0747 230.16 25.84 230.864C25.616 231.557 25.2907 232.139 24.864 232.608C24.448 233.067 23.9413 233.413 23.344 233.648C22.7573 233.883 22.1013 234 21.376 234H17.312V222.832ZM21.376 232.128C22.1653 232.128 22.7893 231.899 23.248 231.44C23.7173 230.971 23.952 230.256 23.952 229.296V227.536C23.952 226.576 23.7173 225.867 23.248 225.408C22.7893 224.939 22.1653 224.704 21.376 224.704H19.424V232.128H21.376ZM31.5273 234.192C30.9299 234.192 30.3913 234.091 29.9113 233.888C29.4419 233.685 29.0366 233.392 28.6953 233.008C28.3646 232.624 28.1086 232.165 27.9273 231.632C27.7459 231.088 27.6553 230.48 27.6553 229.808C27.6553 229.136 27.7459 228.533 27.9273 228C28.1086 227.467 28.3646 227.013 28.6953 226.64C29.0366 226.256 29.4419 225.963 29.9113 225.76C30.3913 225.557 30.9299 225.456 31.5273 225.456C32.1246 225.456 32.6633 225.557 33.1433 225.76C33.6233 225.963 34.0286 226.256 34.3593 226.64C34.7006 227.013 34.9619 227.467 35.1433 228C35.3246 228.533 35.4153 229.136 35.4153 229.808C35.4153 230.48 35.3246 231.088 35.1433 231.632C34.9619 232.165 34.7006 232.624 34.3593 233.008C34.0286 233.392 33.6233 233.685 33.1433 233.888C32.6633 234.091 32.1246 234.192 31.5273 234.192ZM31.5273 232.544C32.0713 232.544 32.4979 232.379 32.8073 232.048C33.1166 231.717 33.2713 231.232 33.2713 230.592V229.04C33.2713 228.411 33.1166 227.931 32.8073 227.6C32.4979 227.269 32.0713 227.104 31.5273 227.104C30.9939 227.104 30.5726 227.269 30.2633 227.6C29.9539 227.931 29.7993 228.411 29.7993 229.04V230.592C29.7993 231.232 29.9539 231.717 30.2633 232.048C30.5726 232.379 30.9939 232.544 31.5273 232.544ZM39.2789 234C38.5749 234 38.0575 233.824 37.7269 233.472C37.3962 233.12 37.2309 232.624 37.2309 231.984V222.16H39.2789V232.368H40.3829V234H39.2789ZM45.246 234.192C44.6487 234.192 44.11 234.091 43.63 233.888C43.1607 233.685 42.7553 233.392 42.414 233.008C42.0833 232.624 41.8273 232.165 41.646 231.632C41.4647 231.088 41.374 230.48 41.374 229.808C41.374 229.136 41.4647 228.533 41.646 228C41.8273 227.467 42.0833 227.013 42.414 226.64C42.7553 226.256 43.1607 225.963 43.63 225.76C44.11 225.557 44.6487 225.456 45.246 225.456C45.8433 225.456 46.382 225.557 46.862 225.76C47.342 225.963 47.7473 226.256 48.078 226.64C48.4193 227.013 48.6807 227.467 48.862 228C49.0433 228.533 49.134 229.136 49.134 229.808C49.134 230.48 49.0433 231.088 48.862 231.632C48.6807 232.165 48.4193 232.624 48.078 233.008C47.7473 233.392 47.342 233.685 46.862 233.888C46.382 234.091 45.8433 234.192 45.246 234.192ZM45.246 232.544C45.79 232.544 46.2167 232.379 46.526 232.048C46.8353 231.717 46.99 231.232 46.99 230.592V229.04C46.99 228.411 46.8353 227.931 46.526 227.6C46.2167 227.269 45.79 227.104 45.246 227.104C44.7127 227.104 44.2913 227.269 43.982 227.6C43.6727 227.931 43.518 228.411 43.518 229.04V230.592C43.518 231.232 43.6727 231.717 43.982 232.048C44.2913 232.379 44.7127 232.544 45.246 232.544ZM50.9496 234V225.648H52.9976V227.376H53.0776C53.131 227.152 53.211 226.939 53.3176 226.736C53.435 226.523 53.5843 226.336 53.7656 226.176C53.947 226.016 54.1603 225.888 54.4056 225.792C54.6616 225.696 54.955 225.648 55.2856 225.648H55.7336V227.584H55.0936C54.4003 227.584 53.8776 227.685 53.5256 227.888C53.1736 228.091 52.9976 228.421 52.9976 228.88V234H50.9496ZM63.7481 234.192C62.9481 234.192 62.2761 234.059 61.7321 233.792C61.1881 233.515 60.7081 233.136 60.2921 232.656L61.5401 231.44C61.8495 231.792 62.1855 232.069 62.5481 232.272C62.9215 232.475 63.3481 232.576 63.8281 232.576C64.3188 232.576 64.6708 232.491 64.8841 232.32C65.1081 232.149 65.2201 231.915 65.2201 231.616C65.2201 231.371 65.1401 231.179 64.9801 231.04C64.8308 230.891 64.5695 230.789 64.1961 230.736L63.3641 230.624C62.4575 230.507 61.7641 230.251 61.2841 229.856C60.8148 229.451 60.5801 228.864 60.5801 228.096C60.5801 227.691 60.6548 227.328 60.8041 227.008C60.9535 226.677 61.1668 226.4 61.4441 226.176C61.7215 225.941 62.0521 225.765 62.4361 225.648C62.8308 225.52 63.2681 225.456 63.7481 225.456C64.1535 225.456 64.5108 225.488 64.8201 225.552C65.1401 225.605 65.4281 225.691 65.6841 225.808C65.9401 225.915 66.1748 226.053 66.3881 226.224C66.6015 226.384 66.8095 226.565 67.0121 226.768L65.8121 227.968C65.5668 227.712 65.2735 227.499 64.9321 227.328C64.5908 227.157 64.2175 227.072 63.8121 227.072C63.3641 227.072 63.0388 227.152 62.8361 227.312C62.6441 227.472 62.5481 227.68 62.5481 227.936C62.5481 228.213 62.6281 228.427 62.7881 228.576C62.9588 228.715 63.2415 228.816 63.6361 228.88L64.4841 228.992C66.2868 229.248 67.1881 230.069 67.1881 231.456C67.1881 231.861 67.1028 232.235 66.9321 232.576C66.7721 232.907 66.5428 233.195 66.2441 233.44C65.9455 233.675 65.5828 233.861 65.1561 234C64.7401 234.128 64.2708 234.192 63.7481 234.192ZM70.0205 224.432C69.5938 224.432 69.2845 224.336 69.0925 224.144C68.9112 223.952 68.8205 223.707 68.8205 223.408V223.088C68.8205 222.789 68.9112 222.544 69.0925 222.352C69.2845 222.16 69.5938 222.064 70.0205 222.064C70.4365 222.064 70.7405 222.16 70.9325 222.352C71.1245 222.544 71.2205 222.789 71.2205 223.088V223.408C71.2205 223.707 71.1245 223.952 70.9325 224.144C70.7405 224.336 70.4365 224.432 70.0205 224.432ZM68.9965 225.648H71.0445V234H68.9965V225.648ZM76.0264 234C75.3224 234 74.7837 233.819 74.4104 233.456C74.0477 233.083 73.8664 232.555 73.8664 231.872V227.28H72.6344V225.648H73.2744C73.5837 225.648 73.7917 225.579 73.8984 225.44C74.0157 225.291 74.0744 225.072 74.0744 224.784V223.36H75.9144V225.648H77.6264V227.28H75.9144V232.368H77.4984V234H76.0264Z" fill="#1A1A1A"/>
<rect x="16.5" y="342.5" width="159" height="39" rx="3.5" stroke="#747474"/>
<path d="M24.224 329L23.328 326.152H19.36L18.48 329H16.336L20.08 317.832H22.704L26.416 329H24.224ZM21.376 319.752H21.296L19.872 324.344H22.816L21.376 319.752ZM27.934 329V320.648H29.982V322.04H30.062C30.222 321.603 30.478 321.229 30.83 320.92C31.182 320.611 31.6727 320.456 32.302 320.456C32.878 320.456 33.374 320.595 33.79 320.872C34.206 321.149 34.5153 321.571 34.718 322.136H34.75C34.8993 321.667 35.1927 321.272 35.63 320.952C36.078 320.621 36.638 320.456 37.31 320.456C38.1313 320.456 38.7607 320.739 39.198 321.304C39.646 321.869 39.87 322.675 39.87 323.72V329H37.822V323.928C37.822 322.733 37.374 322.136 36.478 322.136C36.2753 322.136 36.078 322.168 35.886 322.232C35.7047 322.285 35.5393 322.371 35.39 322.488C35.2513 322.595 35.1393 322.733 35.054 322.904C34.9687 323.064 34.926 323.256 34.926 323.48V329H32.878V323.928C32.878 322.733 32.43 322.136 31.534 322.136C31.342 322.136 31.15 322.168 30.958 322.232C30.7767 322.285 30.6113 322.371 30.462 322.488C30.3233 322.595 30.206 322.733 30.11 322.904C30.0247 323.064 29.982 323.256 29.982 323.48V329H27.934ZM45.5131 329.192C44.8945 329.192 44.3398 329.091 43.8491 328.888C43.3691 328.675 42.9585 328.381 42.6171 328.008C42.2865 327.624 42.0305 327.165 41.8491 326.632C41.6678 326.088 41.5771 325.48 41.5771 324.808C41.5771 324.147 41.6625 323.549 41.8331 323.016C42.0145 322.483 42.2705 322.029 42.6011 321.656C42.9318 321.272 43.3371 320.979 43.8171 320.776C44.2971 320.563 44.8411 320.456 45.4491 320.456C46.0998 320.456 46.6651 320.568 47.1451 320.792C47.6251 321.016 48.0198 321.32 48.3291 321.704C48.6385 322.088 48.8678 322.536 49.0171 323.048C49.1771 323.549 49.2571 324.088 49.2571 324.664V325.336H43.7051V325.544C43.7051 326.152 43.8758 326.643 44.2171 327.016C44.5585 327.379 45.0651 327.56 45.7371 327.56C46.2491 327.56 46.6651 327.453 46.9851 327.24C47.3158 327.027 47.6091 326.755 47.8651 326.424L48.9691 327.656C48.6278 328.136 48.1585 328.515 47.5611 328.792C46.9745 329.059 46.2918 329.192 45.5131 329.192ZM45.4811 321.992C44.9371 321.992 44.5051 322.173 44.1851 322.536C43.8651 322.899 43.7051 323.368 43.7051 323.944V324.072H47.1291V323.928C47.1291 323.352 46.9851 322.888 46.6971 322.536C46.4198 322.173 46.0145 321.992 45.4811 321.992ZM53.667 329C52.963 329 52.4243 328.819 52.051 328.456C51.6883 328.083 51.507 327.555 51.507 326.872V322.28H50.275V320.648H50.915C51.2243 320.648 51.4323 320.579 51.539 320.44C51.6563 320.291 51.715 320.072 51.715 319.784V318.36H53.555V320.648H55.267V322.28H53.555V327.368H55.139V329H53.667Z" fill="#1A1A1A"/>
</svg>
