<svg width="418" height="368" viewBox="0 0 418 368" fill="none" xmlns="http://www.w3.org/2000/svg">
<g clip-path="url(#clip0_6705_65065)">
<rect width="418" height="368" fill="white"/>
<g filter="url(#filter0_d_6705_65065)">
<rect x="16" y="85" width="1" height="266" fill="#747474"/>
<rect x="17" y="86" width="1" height="342" transform="rotate(-90 17 86)" fill="#747474"/>
<rect width="342" height="36" transform="translate(17 86)" fill="#F5F5F5"/>
<path d="M146.379 110.5V102.148H148.427V103.54H148.507C148.667 103.103 148.923 102.729 149.275 102.42C149.627 102.111 150.118 101.956 150.747 101.956C151.323 101.956 151.819 102.095 152.235 102.372C152.651 102.649 152.961 103.071 153.163 103.636H153.195C153.345 103.167 153.638 102.772 154.075 102.452C154.523 102.121 155.083 101.956 155.755 101.956C156.577 101.956 157.206 102.239 157.643 102.804C158.091 103.369 158.315 104.175 158.315 105.22V110.5H156.267V105.428C156.267 104.233 155.819 103.636 154.923 103.636C154.721 103.636 154.523 103.668 154.331 103.732C154.15 103.785 153.985 103.871 153.835 103.988C153.697 104.095 153.585 104.233 153.499 104.404C153.414 104.564 153.371 104.756 153.371 104.98V110.5H151.323V105.428C151.323 104.233 150.875 103.636 149.979 103.636C149.787 103.636 149.595 103.668 149.403 103.732C149.222 103.785 149.057 103.871 148.907 103.988C148.769 104.095 148.651 104.233 148.555 104.404C148.47 104.564 148.427 104.756 148.427 104.98V110.5H146.379ZM166.726 110.5C166.278 110.5 165.921 110.372 165.654 110.116C165.398 109.849 165.238 109.497 165.174 109.06H165.078C164.94 109.604 164.657 110.015 164.23 110.292C163.804 110.559 163.276 110.692 162.646 110.692C161.793 110.692 161.137 110.468 160.678 110.02C160.22 109.572 159.99 108.975 159.99 108.228C159.99 107.364 160.3 106.724 160.918 106.308C161.537 105.881 162.417 105.668 163.558 105.668H164.982V105.06C164.982 104.591 164.86 104.228 164.614 103.972C164.369 103.716 163.974 103.588 163.43 103.588C162.95 103.588 162.561 103.695 162.262 103.908C161.974 104.111 161.729 104.356 161.526 104.644L160.31 103.556C160.62 103.076 161.03 102.692 161.542 102.404C162.054 102.105 162.732 101.956 163.574 101.956C164.705 101.956 165.564 102.212 166.15 102.724C166.737 103.236 167.03 103.972 167.03 104.932V108.868H167.862V110.5H166.726ZM163.334 109.204C163.793 109.204 164.182 109.103 164.502 108.9C164.822 108.697 164.982 108.399 164.982 108.004V106.9H163.67C162.604 106.9 162.07 107.241 162.07 107.924V108.196C162.07 108.537 162.177 108.793 162.39 108.964C162.614 109.124 162.929 109.204 163.334 109.204ZM169.52 110.5V102.148H171.568V103.876H171.648C171.701 103.652 171.781 103.439 171.888 103.236C172.005 103.023 172.155 102.836 172.336 102.676C172.517 102.516 172.731 102.388 172.976 102.292C173.232 102.196 173.525 102.148 173.856 102.148H174.304V104.084H173.664C172.971 104.084 172.448 104.185 172.096 104.388C171.744 104.591 171.568 104.921 171.568 105.38V110.5H169.52ZM178.472 110.5C177.768 110.5 177.229 110.319 176.856 109.956C176.493 109.583 176.312 109.055 176.312 108.372V103.78H175.08V102.148H175.72C176.029 102.148 176.237 102.079 176.344 101.94C176.461 101.791 176.52 101.572 176.52 101.284V99.86H178.36V102.148H180.072V103.78H178.36V108.868H179.944V110.5H178.472ZM184.584 110.692C183.784 110.692 183.112 110.559 182.568 110.292C182.024 110.015 181.544 109.636 181.128 109.156L182.376 107.94C182.685 108.292 183.021 108.569 183.384 108.772C183.757 108.975 184.184 109.076 184.664 109.076C185.155 109.076 185.507 108.991 185.72 108.82C185.944 108.649 186.056 108.415 186.056 108.116C186.056 107.871 185.976 107.679 185.816 107.54C185.667 107.391 185.405 107.289 185.032 107.236L184.2 107.124C183.293 107.007 182.6 106.751 182.12 106.356C181.651 105.951 181.416 105.364 181.416 104.596C181.416 104.191 181.491 103.828 181.64 103.508C181.789 103.177 182.003 102.9 182.28 102.676C182.557 102.441 182.888 102.265 183.272 102.148C183.667 102.02 184.104 101.956 184.584 101.956C184.989 101.956 185.347 101.988 185.656 102.052C185.976 102.105 186.264 102.191 186.52 102.308C186.776 102.415 187.011 102.553 187.224 102.724C187.437 102.884 187.645 103.065 187.848 103.268L186.648 104.468C186.403 104.212 186.109 103.999 185.768 103.828C185.427 103.657 185.053 103.572 184.648 103.572C184.2 103.572 183.875 103.652 183.672 103.812C183.48 103.972 183.384 104.18 183.384 104.436C183.384 104.713 183.464 104.927 183.624 105.076C183.795 105.215 184.077 105.316 184.472 105.38L185.32 105.492C187.123 105.748 188.024 106.569 188.024 107.956C188.024 108.361 187.939 108.735 187.768 109.076C187.608 109.407 187.379 109.695 187.08 109.94C186.781 110.175 186.419 110.361 185.992 110.5C185.576 110.628 185.107 110.692 184.584 110.692ZM201.166 110.5H193.422V108.548L196.926 105.476C197.523 104.953 197.96 104.484 198.238 104.068C198.515 103.641 198.654 103.183 198.654 102.692V102.484C198.654 101.993 198.494 101.62 198.174 101.364C197.854 101.097 197.464 100.964 197.006 100.964C196.43 100.964 195.992 101.129 195.694 101.46C195.395 101.78 195.182 102.169 195.054 102.628L193.23 101.924C193.347 101.551 193.512 101.199 193.726 100.868C193.939 100.527 194.206 100.228 194.526 99.972C194.856 99.716 195.24 99.5133 195.678 99.364C196.115 99.2147 196.616 99.14 197.182 99.14C197.768 99.14 198.291 99.2253 198.75 99.396C199.208 99.556 199.592 99.7853 199.902 100.084C200.222 100.383 200.462 100.735 200.622 101.14C200.792 101.545 200.878 101.988 200.878 102.468C200.878 102.937 200.803 103.364 200.654 103.748C200.504 104.132 200.302 104.5 200.046 104.852C199.79 105.193 199.491 105.524 199.15 105.844C198.808 106.153 198.446 106.468 198.062 106.788L195.71 108.724H201.166V110.5ZM206.823 110.692C206.109 110.692 205.49 110.564 204.967 110.308C204.445 110.041 204.013 109.663 203.671 109.172C203.33 108.681 203.074 108.079 202.903 107.364C202.743 106.649 202.663 105.833 202.663 104.916C202.663 104.009 202.743 103.199 202.903 102.484C203.074 101.759 203.33 101.151 203.671 100.66C204.013 100.169 204.445 99.796 204.967 99.54C205.49 99.2733 206.109 99.14 206.823 99.14C208.242 99.14 209.287 99.6467 209.959 100.66C210.642 101.673 210.983 103.092 210.983 104.916C210.983 106.74 210.642 108.159 209.959 109.172C209.287 110.185 208.242 110.692 206.823 110.692ZM206.823 108.916C207.538 108.916 208.034 108.649 208.311 108.116C208.599 107.572 208.743 106.841 208.743 105.924V103.908C208.743 102.991 208.599 102.265 208.311 101.732C208.034 101.188 207.538 100.916 206.823 100.916C206.109 100.916 205.607 101.188 205.319 101.732C205.042 102.265 204.903 102.991 204.903 103.908V105.924C204.903 106.841 205.042 107.572 205.319 108.116C205.607 108.649 206.109 108.916 206.823 108.916ZM220.353 110.5H212.609V108.548L216.113 105.476C216.711 104.953 217.148 104.484 217.425 104.068C217.703 103.641 217.841 103.183 217.841 102.692V102.484C217.841 101.993 217.681 101.62 217.361 101.364C217.041 101.097 216.652 100.964 216.193 100.964C215.617 100.964 215.18 101.129 214.881 101.46C214.583 101.78 214.369 102.169 214.241 102.628L212.417 101.924C212.535 101.551 212.7 101.199 212.913 100.868C213.127 100.527 213.393 100.228 213.713 99.972C214.044 99.716 214.428 99.5133 214.865 99.364C215.303 99.2147 215.804 99.14 216.369 99.14C216.956 99.14 217.479 99.2253 217.937 99.396C218.396 99.556 218.78 99.7853 219.089 100.084C219.409 100.383 219.649 100.735 219.809 101.14C219.98 101.545 220.065 101.988 220.065 102.468C220.065 102.937 219.991 103.364 219.841 103.748C219.692 104.132 219.489 104.5 219.233 104.852C218.977 105.193 218.679 105.524 218.337 105.844C217.996 106.153 217.633 106.468 217.249 106.788L214.897 108.724H220.353V110.5ZM229.947 110.5H222.203V108.548L225.707 105.476C226.304 104.953 226.742 104.484 227.019 104.068C227.296 103.641 227.435 103.183 227.435 102.692V102.484C227.435 101.993 227.275 101.62 226.955 101.364C226.635 101.097 226.246 100.964 225.787 100.964C225.211 100.964 224.774 101.129 224.475 101.46C224.176 101.78 223.963 102.169 223.835 102.628L222.011 101.924C222.128 101.551 222.294 101.199 222.507 100.868C222.72 100.527 222.987 100.228 223.307 99.972C223.638 99.716 224.022 99.5133 224.459 99.364C224.896 99.2147 225.398 99.14 225.963 99.14C226.55 99.14 227.072 99.2253 227.531 99.396C227.99 99.556 228.374 99.7853 228.683 100.084C229.003 100.383 229.243 100.735 229.403 101.14C229.574 101.545 229.659 101.988 229.659 102.468C229.659 102.937 229.584 103.364 229.435 103.748C229.286 104.132 229.083 104.5 228.827 104.852C228.571 105.193 228.272 105.524 227.931 105.844C227.59 106.153 227.227 106.468 226.843 106.788L224.491 108.724H229.947V110.5Z" fill="#1A1A1A"/>
<path d="M328.59 99.41L330 98L336 104L330 110L328.59 108.59L333.17 104L328.59 99.41ZM334.59 99.41L336 98L342 104L336 110L334.59 108.59L339.17 104L334.59 99.41Z" fill="black"/>
<path d="M299.59 108.58L304.17 104L299.59 99.41L301 98L307 104L301 110L299.59 108.58Z" fill="black"/>
<rect x="17" y="123" width="1" height="342" transform="rotate(-90 17 123)" fill="#BFBFBF"/>
<rect width="342" height="37" transform="translate(17 123)" fill="white"/>
<rect width="48" height="37" transform="translate(17 123)" fill="white"/>
<path d="M35.3756 148V139.744H36.6556V141.088H36.7196C36.8156 140.875 36.9223 140.677 37.0396 140.496C37.1676 140.304 37.317 140.139 37.4876 140C37.669 139.861 37.877 139.755 38.1116 139.68C38.3463 139.595 38.6236 139.552 38.9436 139.552C39.4876 139.552 39.989 139.685 40.4476 139.952C40.9063 140.208 41.2476 140.635 41.4716 141.232H41.5036C41.653 140.784 41.9303 140.395 42.3356 140.064C42.7516 139.723 43.3116 139.552 44.0156 139.552C44.8583 139.552 45.5143 139.829 45.9836 140.384C46.4636 140.928 46.7036 141.701 46.7036 142.704V148H45.4236V142.928C45.4236 142.192 45.2796 141.637 44.9916 141.264C44.7036 140.891 44.245 140.704 43.6156 140.704C43.3596 140.704 43.1143 140.736 42.8796 140.8C42.6556 140.864 42.453 140.96 42.2716 141.088C42.0903 141.216 41.9463 141.381 41.8396 141.584C41.733 141.776 41.6796 142.005 41.6796 142.272V148H40.3996V142.928C40.3996 142.192 40.2556 141.637 39.9676 141.264C39.6796 140.891 39.2316 140.704 38.6236 140.704C38.3676 140.704 38.1223 140.736 37.8876 140.8C37.653 140.864 37.445 140.96 37.2636 141.088C37.0823 141.216 36.933 141.381 36.8156 141.584C36.709 141.776 36.6556 142.005 36.6556 142.272V148H35.3756Z" fill="#1A1A1A"/>
<rect width="48" height="37" transform="translate(66 123)" fill="white"/>
<path d="M90.3793 148C89.9313 148 89.59 147.877 89.3553 147.632C89.1313 147.376 89.0193 147.045 89.0193 146.64V140.864H87.6593V139.744H88.4273C88.7046 139.744 88.8913 139.691 88.9873 139.584C89.094 139.467 89.1473 139.269 89.1473 138.992V137.456H90.2993V139.744H92.1073V140.864H90.2993V146.88H91.9793V148H90.3793Z" fill="#1A1A1A"/>
<rect width="48" height="37" transform="translate(115 123)" fill="white"/>
<path d="M139.003 148.192C138.449 148.192 137.942 148.091 137.483 147.888C137.025 147.685 136.63 147.397 136.299 147.024C135.979 146.64 135.729 146.187 135.547 145.664C135.366 145.131 135.275 144.533 135.275 143.872C135.275 143.221 135.366 142.629 135.547 142.096C135.729 141.563 135.979 141.109 136.299 140.736C136.63 140.352 137.025 140.059 137.483 139.856C137.942 139.653 138.449 139.552 139.003 139.552C139.558 139.552 140.059 139.653 140.507 139.856C140.966 140.059 141.361 140.352 141.691 140.736C142.022 141.109 142.278 141.563 142.459 142.096C142.641 142.629 142.731 143.221 142.731 143.872C142.731 144.533 142.641 145.131 142.459 145.664C142.278 146.187 142.022 146.64 141.691 147.024C141.361 147.397 140.966 147.685 140.507 147.888C140.059 148.091 139.558 148.192 139.003 148.192ZM139.003 147.056C139.697 147.056 140.262 146.843 140.699 146.416C141.137 145.989 141.355 145.339 141.355 144.464V143.28C141.355 142.405 141.137 141.755 140.699 141.328C140.262 140.901 139.697 140.688 139.003 140.688C138.31 140.688 137.745 140.901 137.307 141.328C136.87 141.755 136.651 142.405 136.651 143.28V144.464C136.651 145.339 136.87 145.989 137.307 146.416C137.745 146.843 138.31 147.056 139.003 147.056Z" fill="#1A1A1A"/>
<rect width="48" height="37" transform="translate(164 123)" fill="white"/>
<path d="M188.379 148C187.931 148 187.59 147.877 187.355 147.632C187.131 147.376 187.019 147.045 187.019 146.64V140.864H185.659V139.744H186.427C186.705 139.744 186.891 139.691 186.987 139.584C187.094 139.467 187.147 139.269 187.147 138.992V137.456H188.299V139.744H190.107V140.864H188.299V146.88H189.979V148H188.379Z" fill="#1A1A1A"/>
<rect width="48" height="37" transform="translate(213 123)" fill="white"/>
<path d="M236.214 140.864H234.87V139.744H236.214V138.08C236.214 137.504 236.364 137.04 236.662 136.688C236.961 136.336 237.414 136.16 238.022 136.16H239.27V137.28H237.494V139.744H239.27V140.864H237.494V148H236.214V140.864Z" fill="#1A1A1A"/>
<rect width="48" height="37" transform="translate(262 123)" fill="white"/>
<path d="M286.54 148C286.092 148 285.751 147.877 285.516 147.632C285.292 147.376 285.18 147.056 285.18 146.672V136.16H286.46V146.88H287.676V148H286.54Z" fill="#1A1A1A"/>
<rect width="48" height="37" transform="translate(311 123)" fill="white"/>
<path d="M334.942 148.192C334.174 148.192 333.528 148.048 333.006 147.76C332.494 147.461 332.051 147.067 331.678 146.576L332.59 145.84C332.91 146.245 333.267 146.56 333.662 146.784C334.056 146.997 334.515 147.104 335.038 147.104C335.582 147.104 336.003 146.987 336.302 146.752C336.611 146.517 336.766 146.187 336.766 145.76C336.766 145.44 336.659 145.168 336.446 144.944C336.243 144.709 335.87 144.549 335.326 144.464L334.67 144.368C334.286 144.315 333.934 144.235 333.614 144.128C333.294 144.011 333.011 143.861 332.766 143.68C332.531 143.488 332.344 143.253 332.206 142.976C332.078 142.699 332.014 142.368 332.014 141.984C332.014 141.579 332.088 141.227 332.238 140.928C332.387 140.619 332.59 140.363 332.846 140.16C333.112 139.957 333.427 139.808 333.79 139.712C334.152 139.605 334.542 139.552 334.958 139.552C335.63 139.552 336.19 139.669 336.638 139.904C337.096 140.139 337.496 140.464 337.838 140.88L336.99 141.648C336.808 141.392 336.542 141.163 336.19 140.96C335.838 140.747 335.395 140.64 334.862 140.64C334.328 140.64 333.923 140.757 333.646 140.992C333.379 141.216 333.246 141.525 333.246 141.92C333.246 142.325 333.379 142.619 333.646 142.8C333.923 142.981 334.318 143.115 334.83 143.2L335.47 143.296C336.387 143.435 337.038 143.701 337.422 144.096C337.806 144.48 337.998 144.987 337.998 145.616C337.998 146.416 337.726 147.045 337.182 147.504C336.638 147.963 335.891 148.192 334.942 148.192Z" fill="#1A1A1A"/>
<rect x="17" y="161" width="1" height="342" transform="rotate(-90 17 161)" fill="#BFBFBF"/>
<rect width="48" height="37" transform="translate(17 161)" fill="white"/>
<path d="M41.9343 186H34.6063V184.624L38.2543 181.264C38.7769 180.784 39.2143 180.277 39.5663 179.744C39.9183 179.2 40.0943 178.656 40.0943 178.112V177.92C40.0943 177.301 39.9236 176.8 39.5823 176.416C39.2409 176.032 38.7236 175.84 38.0303 175.84C37.6889 175.84 37.3903 175.888 37.1343 175.984C36.8783 176.08 36.6543 176.213 36.4623 176.384C36.2809 176.555 36.1263 176.757 35.9983 176.992C35.8809 177.216 35.7849 177.461 35.7103 177.728L34.5103 177.264C34.6169 176.933 34.7609 176.613 34.9423 176.304C35.1343 175.984 35.3689 175.701 35.6463 175.456C35.9343 175.211 36.2756 175.013 36.6703 174.864C37.0756 174.715 37.5503 174.64 38.0943 174.64C38.6383 174.64 39.1236 174.72 39.5503 174.88C39.9769 175.04 40.3343 175.264 40.6223 175.552C40.9103 175.84 41.1289 176.181 41.2783 176.576C41.4383 176.971 41.5183 177.408 41.5183 177.888C41.5183 178.325 41.4543 178.731 41.3263 179.104C41.2089 179.477 41.0436 179.835 40.8303 180.176C40.6169 180.507 40.3556 180.832 40.0463 181.152C39.7476 181.472 39.4223 181.792 39.0703 182.112L36.0623 184.816H41.9343V186ZM50.968 176.016H46.072L45.752 180.272H45.864C46.1307 179.899 46.4293 179.6 46.76 179.376C47.1013 179.152 47.5653 179.04 48.152 179.04C48.632 179.04 49.0747 179.12 49.48 179.28C49.8853 179.44 50.2373 179.669 50.536 179.968C50.8347 180.256 51.064 180.613 51.224 181.04C51.3947 181.467 51.48 181.952 51.48 182.496C51.48 183.04 51.3947 183.541 51.224 184C51.0533 184.448 50.8027 184.837 50.472 185.168C50.152 185.488 49.7573 185.739 49.288 185.92C48.8293 186.101 48.3067 186.192 47.72 186.192C47.2507 186.192 46.8347 186.139 46.472 186.032C46.12 185.925 45.8053 185.781 45.528 185.6C45.2507 185.419 45.0053 185.216 44.792 184.992C44.5893 184.768 44.4027 184.533 44.232 184.288L45.24 183.52C45.3787 183.744 45.5227 183.947 45.672 184.128C45.832 184.309 46.0027 184.464 46.184 184.592C46.376 184.72 46.5947 184.821 46.84 184.896C47.0853 184.96 47.3787 184.992 47.72 184.992C48.488 184.992 49.0693 184.789 49.464 184.384C49.8587 183.979 50.056 183.408 50.056 182.672V182.512C50.056 181.776 49.8587 181.205 49.464 180.8C49.0693 180.395 48.488 180.192 47.72 180.192C47.208 180.192 46.8027 180.288 46.504 180.48C46.216 180.661 45.9547 180.88 45.72 181.136L44.584 180.976L44.984 174.832H50.968V176.016Z" fill="#8E8E8E"/>
<rect x="65" y="161" width="1" height="37" fill="#BFBFBF"/>
<rect width="48" height="37" transform="translate(66 161)" fill="white"/>
<path d="M90.9343 186H83.6063V184.624L87.2543 181.264C87.7769 180.784 88.2143 180.277 88.5663 179.744C88.9183 179.2 89.0943 178.656 89.0943 178.112V177.92C89.0943 177.301 88.9236 176.8 88.5823 176.416C88.2409 176.032 87.7236 175.84 87.0303 175.84C86.6889 175.84 86.3903 175.888 86.1343 175.984C85.8783 176.08 85.6543 176.213 85.4623 176.384C85.2809 176.555 85.1263 176.757 84.9983 176.992C84.8809 177.216 84.7849 177.461 84.7103 177.728L83.5103 177.264C83.6169 176.933 83.7609 176.613 83.9423 176.304C84.1343 175.984 84.3689 175.701 84.6463 175.456C84.9343 175.211 85.2756 175.013 85.6703 174.864C86.0756 174.715 86.5503 174.64 87.0943 174.64C87.6383 174.64 88.1236 174.72 88.5503 174.88C88.9769 175.04 89.3343 175.264 89.6223 175.552C89.9103 175.84 90.1289 176.181 90.2783 176.576C90.4383 176.971 90.5183 177.408 90.5183 177.888C90.5183 178.325 90.4543 178.731 90.3263 179.104C90.2089 179.477 90.0436 179.835 89.8303 180.176C89.6169 180.507 89.3556 180.832 89.0463 181.152C88.7476 181.472 88.4223 181.792 88.0703 182.112L85.0623 184.816H90.9343V186ZM96.816 186.192C96.24 186.192 95.7173 186.096 95.248 185.904C94.7893 185.701 94.3947 185.419 94.064 185.056C93.744 184.683 93.4987 184.229 93.328 183.696C93.1573 183.163 93.072 182.565 93.072 181.904C93.072 181.072 93.1947 180.293 93.44 179.568C93.6853 178.832 94 178.165 94.384 177.568C94.7787 176.96 95.2107 176.427 95.68 175.968C96.1493 175.499 96.608 175.12 97.056 174.832H98.784C98.1867 175.269 97.6533 175.696 97.184 176.112C96.7147 176.528 96.304 176.965 95.952 177.424C95.6 177.872 95.3013 178.357 95.056 178.88C94.8107 179.392 94.6133 179.973 94.464 180.624L94.544 180.656C94.8107 180.197 95.152 179.819 95.568 179.52C95.9947 179.211 96.5493 179.056 97.232 179.056C97.712 179.056 98.1547 179.136 98.56 179.296C98.9653 179.456 99.312 179.685 99.6 179.984C99.888 180.283 100.112 180.645 100.272 181.072C100.443 181.499 100.528 181.973 100.528 182.496C100.528 183.04 100.437 183.541 100.256 184C100.085 184.448 99.8347 184.837 99.504 185.168C99.184 185.488 98.7947 185.739 98.336 185.92C97.8773 186.101 97.3707 186.192 96.816 186.192ZM96.8 185.024C97.536 185.024 98.1067 184.821 98.512 184.416C98.928 184.011 99.136 183.429 99.136 182.672V182.544C99.136 181.787 98.928 181.205 98.512 180.8C98.1067 180.395 97.536 180.192 96.8 180.192C96.064 180.192 95.488 180.395 95.072 180.8C94.6667 181.205 94.464 181.787 94.464 182.544V182.672C94.464 183.429 94.6667 184.011 95.072 184.416C95.488 184.821 96.064 185.024 96.8 185.024Z" fill="#8E8E8E"/>
<rect x="114" y="161" width="1" height="37" fill="#BFBFBF"/>
<rect width="48" height="37" transform="translate(115 161)" fill="white"/>
<path d="M139.934 186H132.606V184.624L136.254 181.264C136.777 180.784 137.214 180.277 137.566 179.744C137.918 179.2 138.094 178.656 138.094 178.112V177.92C138.094 177.301 137.924 176.8 137.582 176.416C137.241 176.032 136.724 175.84 136.03 175.84C135.689 175.84 135.39 175.888 135.134 175.984C134.878 176.08 134.654 176.213 134.462 176.384C134.281 176.555 134.126 176.757 133.998 176.992C133.881 177.216 133.785 177.461 133.71 177.728L132.51 177.264C132.617 176.933 132.761 176.613 132.942 176.304C133.134 175.984 133.369 175.701 133.646 175.456C133.934 175.211 134.276 175.013 134.67 174.864C135.076 174.715 135.55 174.64 136.094 174.64C136.638 174.64 137.124 174.72 137.55 174.88C137.977 175.04 138.334 175.264 138.622 175.552C138.91 175.84 139.129 176.181 139.278 176.576C139.438 176.971 139.518 177.408 139.518 177.888C139.518 178.325 139.454 178.731 139.326 179.104C139.209 179.477 139.044 179.835 138.83 180.176C138.617 180.507 138.356 180.832 138.046 181.152C137.748 181.472 137.422 181.792 137.07 182.112L134.062 184.816H139.934V186ZM143.8 186L148.072 175.984H143.304V178.064H142.104V174.832H149.432V176.016L145.24 186H143.8Z" fill="#8E8E8E"/>
<rect x="163" y="161" width="1" height="37" fill="#BFBFBF"/>
<rect width="48" height="37" transform="translate(164 161)" fill="white"/>
<path d="M188.934 186H181.606V184.624L185.254 181.264C185.777 180.784 186.214 180.277 186.566 179.744C186.918 179.2 187.094 178.656 187.094 178.112V177.92C187.094 177.301 186.924 176.8 186.582 176.416C186.241 176.032 185.724 175.84 185.03 175.84C184.689 175.84 184.39 175.888 184.134 175.984C183.878 176.08 183.654 176.213 183.462 176.384C183.281 176.555 183.126 176.757 182.998 176.992C182.881 177.216 182.785 177.461 182.71 177.728L181.51 177.264C181.617 176.933 181.761 176.613 181.942 176.304C182.134 175.984 182.369 175.701 182.646 175.456C182.934 175.211 183.276 175.013 183.67 174.864C184.076 174.715 184.55 174.64 185.094 174.64C185.638 174.64 186.124 174.72 186.55 174.88C186.977 175.04 187.334 175.264 187.622 175.552C187.91 175.84 188.129 176.181 188.278 176.576C188.438 176.971 188.518 177.408 188.518 177.888C188.518 178.325 188.454 178.731 188.326 179.104C188.209 179.477 188.044 179.835 187.83 180.176C187.617 180.507 187.356 180.832 187.046 181.152C186.748 181.472 186.422 181.792 186.07 182.112L183.062 184.816H188.934V186ZM194.8 186.192C194.16 186.192 193.6 186.112 193.12 185.952C192.64 185.781 192.235 185.552 191.904 185.264C191.584 184.976 191.339 184.635 191.168 184.24C191.008 183.845 190.928 183.419 190.928 182.96C190.928 182.192 191.136 181.584 191.552 181.136C191.968 180.688 192.512 180.373 193.184 180.192V180.064C192.597 179.861 192.128 179.536 191.776 179.088C191.435 178.629 191.264 178.08 191.264 177.44C191.264 176.587 191.573 175.909 192.192 175.408C192.811 174.896 193.68 174.64 194.8 174.64C195.92 174.64 196.789 174.896 197.408 175.408C198.027 175.909 198.336 176.587 198.336 177.44C198.336 178.08 198.16 178.629 197.808 179.088C197.467 179.536 197.003 179.861 196.416 180.064V180.192C197.088 180.373 197.632 180.688 198.048 181.136C198.464 181.584 198.672 182.192 198.672 182.96C198.672 183.419 198.587 183.845 198.416 184.24C198.256 184.635 198.011 184.976 197.68 185.264C197.36 185.552 196.96 185.781 196.48 185.952C196 186.112 195.44 186.192 194.8 186.192ZM194.8 185.024C195.579 185.024 196.181 184.853 196.608 184.512C197.035 184.16 197.248 183.664 197.248 183.024V182.688C197.248 182.048 197.035 181.557 196.608 181.216C196.181 180.864 195.579 180.688 194.8 180.688C194.021 180.688 193.419 180.864 192.992 181.216C192.565 181.557 192.352 182.048 192.352 182.688V183.024C192.352 183.664 192.565 184.16 192.992 184.512C193.419 184.853 194.021 185.024 194.8 185.024ZM194.8 179.568C195.504 179.568 196.037 179.419 196.4 179.12C196.763 178.821 196.944 178.384 196.944 177.808V177.568C196.944 176.992 196.763 176.555 196.4 176.256C196.037 175.957 195.504 175.808 194.8 175.808C194.096 175.808 193.563 175.957 193.2 176.256C192.837 176.555 192.656 176.992 192.656 177.568V177.808C192.656 178.384 192.837 178.821 193.2 179.12C193.563 179.419 194.096 179.568 194.8 179.568Z" fill="#8E8E8E"/>
<rect x="212" y="161" width="1" height="37" fill="#C4C4C4"/>
<rect width="48" height="37" transform="translate(213 161)" fill="white"/>
<path d="M240.611 186V184.816H243.731V175.824H243.619L240.803 178.448L240.019 177.6L242.979 174.832H245.075V184.816H247.955V186H240.611Z" fill="#8E8E8E"/>
<rect x="261" y="161" width="1" height="37" fill="#C4C4C4"/>
<rect width="48" height="37" transform="translate(262 161)" fill="white"/>
<path d="M296.731 186H289.403V184.624L293.051 181.264C293.574 180.784 294.011 180.277 294.363 179.744C294.715 179.2 294.891 178.656 294.891 178.112V177.92C294.891 177.301 294.72 176.8 294.379 176.416C294.038 176.032 293.52 175.84 292.827 175.84C292.486 175.84 292.187 175.888 291.931 175.984C291.675 176.08 291.451 176.213 291.259 176.384C291.078 176.555 290.923 176.757 290.795 176.992C290.678 177.216 290.582 177.461 290.507 177.728L289.307 177.264C289.414 176.933 289.558 176.613 289.739 176.304C289.931 175.984 290.166 175.701 290.443 175.456C290.731 175.211 291.072 175.013 291.467 174.864C291.872 174.715 292.347 174.64 292.891 174.64C293.435 174.64 293.92 174.72 294.347 174.88C294.774 175.04 295.131 175.264 295.419 175.552C295.707 175.84 295.926 176.181 296.075 176.576C296.235 176.971 296.315 177.408 296.315 177.888C296.315 178.325 296.251 178.731 296.123 179.104C296.006 179.477 295.84 179.835 295.627 180.176C295.414 180.507 295.152 180.832 294.843 181.152C294.544 181.472 294.219 181.792 293.867 182.112L290.859 184.816H296.731V186Z" fill="#8E8E8E"/>
<rect x="310" y="161" width="1" height="37" fill="#C4C4C4"/>
<rect width="48" height="37" transform="translate(311 161)" fill="white"/>
<path d="M341.379 179.568C342.136 179.568 342.702 179.397 343.075 179.056C343.459 178.704 343.651 178.256 343.651 177.712V177.6C343.651 177.013 343.464 176.576 343.091 176.288C342.728 175.989 342.248 175.84 341.651 175.84C341.075 175.84 340.606 175.968 340.243 176.224C339.88 176.469 339.582 176.805 339.347 177.232L338.355 176.464C338.494 176.24 338.659 176.021 338.851 175.808C339.054 175.584 339.288 175.387 339.555 175.216C339.822 175.045 340.131 174.907 340.483 174.8C340.835 174.693 341.235 174.64 341.683 174.64C342.152 174.64 342.595 174.704 343.011 174.832C343.427 174.949 343.784 175.131 344.083 175.376C344.392 175.611 344.632 175.904 344.803 176.256C344.984 176.608 345.075 177.008 345.075 177.456C345.075 177.819 345.016 178.144 344.899 178.432C344.792 178.72 344.643 178.971 344.451 179.184C344.259 179.397 344.03 179.579 343.763 179.728C343.507 179.877 343.23 179.989 342.931 180.064V180.128C343.23 180.192 343.518 180.299 343.795 180.448C344.083 180.587 344.334 180.773 344.547 181.008C344.771 181.232 344.947 181.509 345.075 181.84C345.214 182.16 345.283 182.528 345.283 182.944C345.283 183.424 345.192 183.867 345.011 184.272C344.83 184.667 344.574 185.008 344.243 185.296C343.912 185.573 343.512 185.792 343.043 185.952C342.574 186.112 342.056 186.192 341.491 186.192C341.011 186.192 340.584 186.139 340.211 186.032C339.838 185.925 339.507 185.781 339.219 185.6C338.931 185.419 338.675 185.216 338.451 184.992C338.238 184.768 338.046 184.533 337.875 184.288L338.883 183.52C339.022 183.744 339.171 183.947 339.331 184.128C339.502 184.309 339.688 184.464 339.891 184.592C340.094 184.72 340.323 184.821 340.579 184.896C340.835 184.96 341.134 184.992 341.475 184.992C342.264 184.992 342.862 184.816 343.267 184.464C343.672 184.101 343.875 183.589 343.875 182.928V182.8C343.875 182.139 343.672 181.632 343.267 181.28C342.862 180.917 342.264 180.736 341.475 180.736H340.163V179.568H341.379Z" fill="#8E8E8E"/>
<rect x="17" y="199" width="1" height="342" transform="rotate(-90 17 199)" fill="#BFBFBF"/>
<rect width="48" height="37" transform="translate(17 199)" fill="white"/>
<path d="M49.2031 224V221.808H43.8111V220.624L48.4831 212.832H50.4831V220.688H52.0991V221.808H50.4831V224H49.2031ZM45.0751 220.688H49.2031V213.872H49.1231L45.0751 220.688Z" fill="#8E8E8E"/>
<rect x="65" y="199" width="1" height="37" fill="#C4C4C4"/>
<rect width="48" height="37" transform="translate(66 199)" fill="white"/>
<path d="M100.171 214.016H95.2751L94.9551 218.272H95.0671C95.3338 217.899 95.6325 217.6 95.9631 217.376C96.3045 217.152 96.7685 217.04 97.3551 217.04C97.8351 217.04 98.2778 217.12 98.6831 217.28C99.0885 217.44 99.4405 217.669 99.7391 217.968C100.038 218.256 100.267 218.613 100.427 219.04C100.598 219.467 100.683 219.952 100.683 220.496C100.683 221.04 100.598 221.541 100.427 222C100.256 222.448 100.006 222.837 99.6751 223.168C99.3551 223.488 98.9605 223.739 98.4911 223.92C98.0325 224.101 97.5098 224.192 96.9231 224.192C96.4538 224.192 96.0378 224.139 95.6751 224.032C95.3231 223.925 95.0085 223.781 94.7311 223.6C94.4538 223.419 94.2085 223.216 93.9951 222.992C93.7925 222.768 93.6058 222.533 93.4351 222.288L94.4431 221.52C94.5818 221.744 94.7258 221.947 94.8751 222.128C95.0351 222.309 95.2058 222.464 95.3871 222.592C95.5791 222.72 95.7978 222.821 96.0431 222.896C96.2885 222.96 96.5818 222.992 96.9231 222.992C97.6911 222.992 98.2725 222.789 98.6671 222.384C99.0618 221.979 99.2591 221.408 99.2591 220.672V220.512C99.2591 219.776 99.0618 219.205 98.6671 218.8C98.2725 218.395 97.6911 218.192 96.9231 218.192C96.4111 218.192 96.0058 218.288 95.7071 218.48C95.4191 218.661 95.1578 218.88 94.9231 219.136L93.7871 218.976L94.1871 212.832H100.171V214.016Z" fill="#1A1A1A"/>
<rect x="114" y="199" width="1" height="37" fill="#C4C4C4"/>
<rect width="48" height="37" transform="translate(115 199)" fill="#454545"/>
<path d="M146.051 224.192C145.411 224.192 144.84 224.091 144.339 223.888C143.838 223.675 143.411 223.381 143.059 223.008C142.707 222.624 142.44 222.165 142.259 221.632C142.078 221.088 141.987 220.48 141.987 219.808C141.987 219.008 142.104 218.256 142.339 217.552C142.584 216.837 142.899 216.187 143.283 215.6C143.667 215.003 144.094 214.475 144.563 214.016C145.043 213.547 145.518 213.152 145.987 212.832H148.835C148.174 213.301 147.582 213.755 147.059 214.192C146.547 214.629 146.094 215.072 145.699 215.52C145.315 215.968 144.995 216.437 144.739 216.928C144.494 217.408 144.307 217.931 144.179 218.496L144.307 218.528C144.414 218.315 144.536 218.112 144.675 217.92C144.824 217.717 145 217.541 145.203 217.392C145.406 217.232 145.64 217.109 145.907 217.024C146.174 216.928 146.483 216.88 146.835 216.88C147.294 216.88 147.72 216.96 148.115 217.12C148.52 217.28 148.867 217.515 149.155 217.824C149.454 218.123 149.683 218.485 149.843 218.912C150.014 219.339 150.099 219.813 150.099 220.336C150.099 220.901 150.003 221.419 149.811 221.888C149.619 222.357 149.347 222.763 148.995 223.104C148.643 223.445 148.216 223.712 147.715 223.904C147.224 224.096 146.67 224.192 146.051 224.192ZM146.051 222.528C146.638 222.528 147.096 222.368 147.427 222.048C147.768 221.717 147.939 221.248 147.939 220.64V220.4C147.939 219.792 147.768 219.328 147.427 219.008C147.096 218.677 146.638 218.512 146.051 218.512C145.454 218.512 144.99 218.677 144.659 219.008C144.328 219.328 144.163 219.792 144.163 220.4V220.64C144.163 221.248 144.328 221.717 144.659 222.048C144.99 222.368 145.454 222.528 146.051 222.528Z" fill="white"/>
<rect x="163" y="199" width="1" height="37" fill="#C4C4C4"/>
<rect width="48" height="37" transform="translate(164 199)" fill="white"/>
<path d="M193.003 224L197.275 213.984H192.507V216.064H191.307V212.832H198.635V214.016L194.443 224H193.003Z" fill="#1A1A1A"/>
<rect x="212" y="199" width="1" height="37" fill="#C4C4C4"/>
<rect width="48" height="37" transform="translate(213 199)" fill="white"/>
<path d="M244.003 224.192C243.363 224.192 242.803 224.112 242.323 223.952C241.843 223.781 241.438 223.552 241.107 223.264C240.787 222.976 240.542 222.635 240.371 222.24C240.211 221.845 240.131 221.419 240.131 220.96C240.131 220.192 240.339 219.584 240.755 219.136C241.171 218.688 241.715 218.373 242.387 218.192V218.064C241.8 217.861 241.331 217.536 240.979 217.088C240.638 216.629 240.467 216.08 240.467 215.44C240.467 214.587 240.776 213.909 241.395 213.408C242.014 212.896 242.883 212.64 244.003 212.64C245.123 212.64 245.992 212.896 246.611 213.408C247.23 213.909 247.539 214.587 247.539 215.44C247.539 216.08 247.363 216.629 247.011 217.088C246.67 217.536 246.206 217.861 245.619 218.064V218.192C246.291 218.373 246.835 218.688 247.251 219.136C247.667 219.584 247.875 220.192 247.875 220.96C247.875 221.419 247.79 221.845 247.619 222.24C247.459 222.635 247.214 222.976 246.883 223.264C246.563 223.552 246.163 223.781 245.683 223.952C245.203 224.112 244.643 224.192 244.003 224.192ZM244.003 223.024C244.782 223.024 245.384 222.853 245.811 222.512C246.238 222.16 246.451 221.664 246.451 221.024V220.688C246.451 220.048 246.238 219.557 245.811 219.216C245.384 218.864 244.782 218.688 244.003 218.688C243.224 218.688 242.622 218.864 242.195 219.216C241.768 219.557 241.555 220.048 241.555 220.688V221.024C241.555 221.664 241.768 222.16 242.195 222.512C242.622 222.853 243.224 223.024 244.003 223.024ZM244.003 217.568C244.707 217.568 245.24 217.419 245.603 217.12C245.966 216.821 246.147 216.384 246.147 215.808V215.568C246.147 214.992 245.966 214.555 245.603 214.256C245.24 213.957 244.707 213.808 244.003 213.808C243.299 213.808 242.766 213.957 242.403 214.256C242.04 214.555 241.859 214.992 241.859 215.568V215.808C241.859 216.384 242.04 216.821 242.403 217.12C242.766 217.419 243.299 217.568 244.003 217.568Z" fill="#1A1A1A"/>
<rect x="261" y="199" width="1" height="37" fill="#C4C4C4"/>
<rect width="48" height="37" transform="translate(262 199)" fill="white"/>
<path d="M296.731 216.928C296.731 217.76 296.608 218.544 296.363 219.28C296.118 220.005 295.798 220.672 295.403 221.28C295.019 221.877 294.592 222.411 294.123 222.88C293.654 223.339 293.195 223.712 292.747 224H291.019C291.616 223.563 292.15 223.136 292.619 222.72C293.088 222.304 293.499 221.872 293.851 221.424C294.203 220.965 294.502 220.48 294.747 219.968C294.992 219.445 295.19 218.859 295.339 218.208L295.259 218.176C294.992 218.635 294.646 219.019 294.219 219.328C293.803 219.627 293.254 219.776 292.571 219.776C292.091 219.776 291.648 219.696 291.243 219.536C290.838 219.376 290.491 219.147 290.203 218.848C289.915 218.549 289.686 218.192 289.515 217.776C289.355 217.349 289.275 216.869 289.275 216.336C289.275 215.792 289.36 215.296 289.531 214.848C289.712 214.389 289.963 214 290.283 213.68C290.614 213.349 291.003 213.093 291.451 212.912C291.91 212.731 292.422 212.64 292.987 212.64C293.563 212.64 294.08 212.741 294.539 212.944C295.008 213.136 295.403 213.419 295.723 213.792C296.054 214.155 296.304 214.603 296.475 215.136C296.646 215.669 296.731 216.267 296.731 216.928ZM293.003 218.64C293.739 218.64 294.31 218.437 294.715 218.032C295.131 217.627 295.339 217.045 295.339 216.288V216.16C295.339 215.403 295.131 214.821 294.715 214.416C294.31 214.011 293.739 213.808 293.003 213.808C292.267 213.808 291.691 214.011 291.275 214.416C290.87 214.821 290.667 215.403 290.667 216.16V216.288C290.667 217.045 290.87 217.627 291.275 218.032C291.691 218.437 292.267 218.64 293.003 218.64Z" fill="#1A1A1A"/>
<rect x="310" y="199" width="1" height="37" fill="#C4C4C4"/>
<rect width="48" height="37" transform="translate(311 199)" fill="white"/>
<path d="M328.814 224V222.816H331.934V213.824H331.822L329.006 216.448L328.222 215.6L331.182 212.832H333.278V222.816H336.158V224H328.814ZM341.8 224.192C340.467 224.192 339.491 223.685 338.872 222.672C338.264 221.659 337.96 220.24 337.96 218.416C337.96 216.592 338.264 215.173 338.872 214.16C339.491 213.147 340.467 212.64 341.8 212.64C343.133 212.64 344.104 213.147 344.712 214.16C345.331 215.173 345.64 216.592 345.64 218.416C345.64 220.24 345.331 221.659 344.712 222.672C344.104 223.685 343.133 224.192 341.8 224.192ZM341.8 223.024C342.237 223.024 342.611 222.933 342.92 222.752C343.229 222.571 343.48 222.315 343.672 221.984C343.864 221.653 344.003 221.264 344.088 220.816C344.184 220.368 344.232 219.872 344.232 219.328V217.504C344.232 216.96 344.184 216.464 344.088 216.016C344.003 215.568 343.864 215.179 343.672 214.848C343.48 214.517 343.229 214.261 342.92 214.08C342.611 213.899 342.237 213.808 341.8 213.808C341.363 213.808 340.989 213.899 340.68 214.08C340.371 214.261 340.12 214.517 339.928 214.848C339.736 215.179 339.592 215.568 339.496 216.016C339.411 216.464 339.368 216.96 339.368 217.504V219.328C339.368 219.872 339.411 220.368 339.496 220.816C339.592 221.264 339.736 221.653 339.928 221.984C340.12 222.315 340.371 222.571 340.68 222.752C340.989 222.933 341.363 223.024 341.8 223.024Z" fill="#1A1A1A"/>
<rect x="17" y="237" width="1" height="342" transform="rotate(-90 17 237)" fill="#BFBFBF"/>
<rect width="48" height="37" transform="translate(17 237)" fill="white"/>
<path d="M34.8143 262V260.816H37.9343V251.824H37.8223L35.0063 254.448L34.2223 253.6L37.1823 250.832H39.2783V260.816H42.1583V262H34.8143ZM44.408 262V260.816H47.528V251.824H47.416L44.6 254.448L43.816 253.6L46.776 250.832H48.872V260.816H51.752V262H44.408Z" fill="#1A1A1A"/>
<rect x="65" y="237" width="1" height="37" fill="#C4C4C4"/>
<rect width="48" height="37" transform="translate(66 237)" fill="white"/>
<path d="M83.8143 262V260.816H86.9343V251.824H86.8223L84.0063 254.448L83.2223 253.6L86.1823 250.832H88.2783V260.816H91.1583V262H83.8143ZM100.528 262H93.2V260.624L96.848 257.264C97.3707 256.784 97.808 256.277 98.16 255.744C98.512 255.2 98.688 254.656 98.688 254.112V253.92C98.688 253.301 98.5173 252.8 98.176 252.416C97.8347 252.032 97.3173 251.84 96.624 251.84C96.2827 251.84 95.984 251.888 95.728 251.984C95.472 252.08 95.248 252.213 95.056 252.384C94.8747 252.555 94.72 252.757 94.592 252.992C94.4747 253.216 94.3787 253.461 94.304 253.728L93.104 253.264C93.2107 252.933 93.3547 252.613 93.536 252.304C93.728 251.984 93.9627 251.701 94.24 251.456C94.528 251.211 94.8693 251.013 95.264 250.864C95.6693 250.715 96.144 250.64 96.688 250.64C97.232 250.64 97.7173 250.72 98.144 250.88C98.5707 251.04 98.928 251.264 99.216 251.552C99.504 251.84 99.7227 252.181 99.872 252.576C100.032 252.971 100.112 253.408 100.112 253.888C100.112 254.325 100.048 254.731 99.92 255.104C99.8027 255.477 99.6373 255.835 99.424 256.176C99.2107 256.507 98.9493 256.832 98.64 257.152C98.3413 257.472 98.016 257.792 97.664 258.112L94.656 260.816H100.528V262Z" fill="#1A1A1A"/>
<rect x="114" y="237" width="1" height="37" fill="#C4C4C4"/>
<rect width="48" height="37" transform="translate(115 237)" fill="white"/>
<path d="M132.814 262V260.816H135.934V251.824H135.822L133.006 254.448L132.222 253.6L135.182 250.832H137.278V260.816H140.158V262H132.814ZM145.176 255.568C145.933 255.568 146.499 255.397 146.872 255.056C147.256 254.704 147.448 254.256 147.448 253.712V253.6C147.448 253.013 147.261 252.576 146.888 252.288C146.525 251.989 146.045 251.84 145.448 251.84C144.872 251.84 144.403 251.968 144.04 252.224C143.677 252.469 143.379 252.805 143.144 253.232L142.152 252.464C142.291 252.24 142.456 252.021 142.648 251.808C142.851 251.584 143.085 251.387 143.352 251.216C143.619 251.045 143.928 250.907 144.28 250.8C144.632 250.693 145.032 250.64 145.48 250.64C145.949 250.64 146.392 250.704 146.808 250.832C147.224 250.949 147.581 251.131 147.88 251.376C148.189 251.611 148.429 251.904 148.6 252.256C148.781 252.608 148.872 253.008 148.872 253.456C148.872 253.819 148.813 254.144 148.696 254.432C148.589 254.72 148.44 254.971 148.248 255.184C148.056 255.397 147.827 255.579 147.56 255.728C147.304 255.877 147.027 255.989 146.728 256.064V256.128C147.027 256.192 147.315 256.299 147.592 256.448C147.88 256.587 148.131 256.773 148.344 257.008C148.568 257.232 148.744 257.509 148.872 257.84C149.011 258.16 149.08 258.528 149.08 258.944C149.08 259.424 148.989 259.867 148.808 260.272C148.627 260.667 148.371 261.008 148.04 261.296C147.709 261.573 147.309 261.792 146.84 261.952C146.371 262.112 145.853 262.192 145.288 262.192C144.808 262.192 144.381 262.139 144.008 262.032C143.635 261.925 143.304 261.781 143.016 261.6C142.728 261.419 142.472 261.216 142.248 260.992C142.035 260.768 141.843 260.533 141.672 260.288L142.68 259.52C142.819 259.744 142.968 259.947 143.128 260.128C143.299 260.309 143.485 260.464 143.688 260.592C143.891 260.72 144.12 260.821 144.376 260.896C144.632 260.96 144.931 260.992 145.272 260.992C146.061 260.992 146.659 260.816 147.064 260.464C147.469 260.101 147.672 259.589 147.672 258.928V258.8C147.672 258.139 147.469 257.632 147.064 257.28C146.659 256.917 146.061 256.736 145.272 256.736H143.96V255.568H145.176Z" fill="#1A1A1A"/>
<rect x="163" y="237" width="1" height="37" fill="#C4C4C4"/>
<rect width="48" height="37" transform="translate(164 237)" fill="white"/>
<path d="M181.814 262V260.816H184.934V251.824H184.822L182.006 254.448L181.222 253.6L184.182 250.832H186.278V260.816H189.158V262H181.814ZM196 262V259.808H190.608V258.624L195.28 250.832H197.28V258.688H198.896V259.808H197.28V262H196ZM191.872 258.688H196V251.872H195.92L191.872 258.688Z" fill="#1A1A1A"/>
<rect x="212" y="237" width="1" height="37" fill="#C4C4C4"/>
<rect width="48" height="37" transform="translate(213 237)" fill="white"/>
<path d="M230.814 262V260.816H233.934V251.824H233.822L231.006 254.448L230.222 253.6L233.182 250.832H235.278V260.816H238.158V262H230.814ZM246.968 252.016H242.072L241.752 256.272H241.864C242.131 255.899 242.429 255.6 242.76 255.376C243.101 255.152 243.565 255.04 244.152 255.04C244.632 255.04 245.075 255.12 245.48 255.28C245.885 255.44 246.237 255.669 246.536 255.968C246.835 256.256 247.064 256.613 247.224 257.04C247.395 257.467 247.48 257.952 247.48 258.496C247.48 259.04 247.395 259.541 247.224 260C247.053 260.448 246.803 260.837 246.472 261.168C246.152 261.488 245.757 261.739 245.288 261.92C244.829 262.101 244.307 262.192 243.72 262.192C243.251 262.192 242.835 262.139 242.472 262.032C242.12 261.925 241.805 261.781 241.528 261.6C241.251 261.419 241.005 261.216 240.792 260.992C240.589 260.768 240.403 260.533 240.232 260.288L241.24 259.52C241.379 259.744 241.523 259.947 241.672 260.128C241.832 260.309 242.003 260.464 242.184 260.592C242.376 260.72 242.595 260.821 242.84 260.896C243.085 260.96 243.379 260.992 243.72 260.992C244.488 260.992 245.069 260.789 245.464 260.384C245.859 259.979 246.056 259.408 246.056 258.672V258.512C246.056 257.776 245.859 257.205 245.464 256.8C245.069 256.395 244.488 256.192 243.72 256.192C243.208 256.192 242.803 256.288 242.504 256.48C242.216 256.661 241.955 256.88 241.72 257.136L240.584 256.976L240.984 250.832H246.968V252.016Z" fill="#1A1A1A"/>
<rect x="261" y="237" width="1" height="37" fill="#C4C4C4"/>
<rect width="48" height="37" transform="translate(262 237)" fill="white"/>
<path d="M279.814 262V260.816H282.934V251.824H282.822L280.006 254.448L279.222 253.6L282.182 250.832H284.278V260.816H287.158V262H279.814ZM292.816 262.192C292.24 262.192 291.717 262.096 291.248 261.904C290.789 261.701 290.395 261.419 290.064 261.056C289.744 260.683 289.499 260.229 289.328 259.696C289.157 259.163 289.072 258.565 289.072 257.904C289.072 257.072 289.195 256.293 289.44 255.568C289.685 254.832 290 254.165 290.384 253.568C290.779 252.96 291.211 252.427 291.68 251.968C292.149 251.499 292.608 251.12 293.056 250.832H294.784C294.187 251.269 293.653 251.696 293.184 252.112C292.715 252.528 292.304 252.965 291.952 253.424C291.6 253.872 291.301 254.357 291.056 254.88C290.811 255.392 290.613 255.973 290.464 256.624L290.544 256.656C290.811 256.197 291.152 255.819 291.568 255.52C291.995 255.211 292.549 255.056 293.232 255.056C293.712 255.056 294.155 255.136 294.56 255.296C294.965 255.456 295.312 255.685 295.6 255.984C295.888 256.283 296.112 256.645 296.272 257.072C296.443 257.499 296.528 257.973 296.528 258.496C296.528 259.04 296.437 259.541 296.256 260C296.085 260.448 295.835 260.837 295.504 261.168C295.184 261.488 294.795 261.739 294.336 261.92C293.877 262.101 293.371 262.192 292.816 262.192ZM292.8 261.024C293.536 261.024 294.107 260.821 294.512 260.416C294.928 260.011 295.136 259.429 295.136 258.672V258.544C295.136 257.787 294.928 257.205 294.512 256.8C294.107 256.395 293.536 256.192 292.8 256.192C292.064 256.192 291.488 256.395 291.072 256.8C290.667 257.205 290.464 257.787 290.464 258.544V258.672C290.464 259.429 290.667 260.011 291.072 260.416C291.488 260.821 292.064 261.024 292.8 261.024Z" fill="#1A1A1A"/>
<rect x="310" y="237" width="1" height="37" fill="#C4C4C4"/>
<rect width="48" height="37" transform="translate(311 237)" fill="white"/>
<path d="M328.814 262V260.816H331.934V251.824H331.822L329.006 254.448L328.222 253.6L331.182 250.832H333.278V260.816H336.158V262H328.814ZM339.8 262L344.072 251.984H339.304V254.064H338.104V250.832H345.432V252.016L341.24 262H339.8Z" fill="#1A1A1A"/>
<rect x="17" y="275" width="1" height="342" transform="rotate(-90 17 275)" fill="#BFBFBF"/>
<rect width="48" height="37" transform="translate(17 275)" fill="white"/>
<path d="M34.8143 300V298.816H37.9343V289.824H37.8223L35.0063 292.448L34.2223 291.6L37.1823 288.832H39.2783V298.816H42.1583V300H34.8143ZM47.8 300.192C47.16 300.192 46.6 300.112 46.12 299.952C45.64 299.781 45.2347 299.552 44.904 299.264C44.584 298.976 44.3387 298.635 44.168 298.24C44.008 297.845 43.928 297.419 43.928 296.96C43.928 296.192 44.136 295.584 44.552 295.136C44.968 294.688 45.512 294.373 46.184 294.192V294.064C45.5973 293.861 45.128 293.536 44.776 293.088C44.4347 292.629 44.264 292.08 44.264 291.44C44.264 290.587 44.5733 289.909 45.192 289.408C45.8107 288.896 46.68 288.64 47.8 288.64C48.92 288.64 49.7893 288.896 50.408 289.408C51.0267 289.909 51.336 290.587 51.336 291.44C51.336 292.08 51.16 292.629 50.808 293.088C50.4667 293.536 50.0027 293.861 49.416 294.064V294.192C50.088 294.373 50.632 294.688 51.048 295.136C51.464 295.584 51.672 296.192 51.672 296.96C51.672 297.419 51.5867 297.845 51.416 298.24C51.256 298.635 51.0107 298.976 50.68 299.264C50.36 299.552 49.96 299.781 49.48 299.952C49 300.112 48.44 300.192 47.8 300.192ZM47.8 299.024C48.5787 299.024 49.1813 298.853 49.608 298.512C50.0347 298.16 50.248 297.664 50.248 297.024V296.688C50.248 296.048 50.0347 295.557 49.608 295.216C49.1813 294.864 48.5787 294.688 47.8 294.688C47.0213 294.688 46.4187 294.864 45.992 295.216C45.5653 295.557 45.352 296.048 45.352 296.688V297.024C45.352 297.664 45.5653 298.16 45.992 298.512C46.4187 298.853 47.0213 299.024 47.8 299.024ZM47.8 293.568C48.504 293.568 49.0373 293.419 49.4 293.12C49.7627 292.821 49.944 292.384 49.944 291.808V291.568C49.944 290.992 49.7627 290.555 49.4 290.256C49.0373 289.957 48.504 289.808 47.8 289.808C47.096 289.808 46.5627 289.957 46.2 290.256C45.8373 290.555 45.656 290.992 45.656 291.568V291.808C45.656 292.384 45.8373 292.821 46.2 293.12C46.5627 293.419 47.096 293.568 47.8 293.568Z" fill="#1A1A1A"/>
<rect x="65" y="275" width="1" height="37" fill="#C4C4C4"/>
<rect width="48" height="37" transform="translate(66 275)" fill="white"/>
<path d="M83.8143 300V298.816H86.9343V289.824H86.8223L84.0063 292.448L83.2223 291.6L86.1823 288.832H88.2783V298.816H91.1583V300H83.8143ZM100.528 292.928C100.528 293.76 100.405 294.544 100.16 295.28C99.9147 296.005 99.5947 296.672 99.2 297.28C98.816 297.877 98.3893 298.411 97.92 298.88C97.4507 299.339 96.992 299.712 96.544 300H94.816C95.4133 299.563 95.9467 299.136 96.416 298.72C96.8853 298.304 97.296 297.872 97.648 297.424C98 296.965 98.2987 296.48 98.544 295.968C98.7893 295.445 98.9867 294.859 99.136 294.208L99.056 294.176C98.7893 294.635 98.4427 295.019 98.016 295.328C97.6 295.627 97.0507 295.776 96.368 295.776C95.888 295.776 95.4453 295.696 95.04 295.536C94.6347 295.376 94.288 295.147 94 294.848C93.712 294.549 93.4827 294.192 93.312 293.776C93.152 293.349 93.072 292.869 93.072 292.336C93.072 291.792 93.1573 291.296 93.328 290.848C93.5093 290.389 93.76 290 94.08 289.68C94.4107 289.349 94.8 289.093 95.248 288.912C95.7067 288.731 96.2187 288.64 96.784 288.64C97.36 288.64 97.8773 288.741 98.336 288.944C98.8053 289.136 99.2 289.419 99.52 289.792C99.8507 290.155 100.101 290.603 100.272 291.136C100.443 291.669 100.528 292.267 100.528 292.928ZM96.8 294.64C97.536 294.64 98.1067 294.437 98.512 294.032C98.928 293.627 99.136 293.045 99.136 292.288V292.16C99.136 291.403 98.928 290.821 98.512 290.416C98.1067 290.011 97.536 289.808 96.8 289.808C96.064 289.808 95.488 290.011 95.072 290.416C94.6667 290.821 94.464 291.403 94.464 292.16V292.288C94.464 293.045 94.6667 293.627 95.072 294.032C95.488 294.437 96.064 294.64 96.8 294.64Z" fill="#1A1A1A"/>
<rect x="114" y="275" width="1" height="37" fill="#C4C4C4"/>
<rect width="48" height="37" transform="translate(115 275)" fill="white"/>
<path d="M139.934 300H132.606V298.624L136.254 295.264C136.777 294.784 137.214 294.277 137.566 293.744C137.918 293.2 138.094 292.656 138.094 292.112V291.92C138.094 291.301 137.924 290.8 137.582 290.416C137.241 290.032 136.724 289.84 136.03 289.84C135.689 289.84 135.39 289.888 135.134 289.984C134.878 290.08 134.654 290.213 134.462 290.384C134.281 290.555 134.126 290.757 133.998 290.992C133.881 291.216 133.785 291.461 133.71 291.728L132.51 291.264C132.617 290.933 132.761 290.613 132.942 290.304C133.134 289.984 133.369 289.701 133.646 289.456C133.934 289.211 134.276 289.013 134.67 288.864C135.076 288.715 135.55 288.64 136.094 288.64C136.638 288.64 137.124 288.72 137.55 288.88C137.977 289.04 138.334 289.264 138.622 289.552C138.91 289.84 139.129 290.181 139.278 290.576C139.438 290.971 139.518 291.408 139.518 291.888C139.518 292.325 139.454 292.731 139.326 293.104C139.209 293.477 139.044 293.835 138.83 294.176C138.617 294.507 138.356 294.832 138.046 295.152C137.748 295.472 137.422 295.792 137.07 296.112L134.062 298.816H139.934V300ZM145.8 300.192C144.467 300.192 143.491 299.685 142.872 298.672C142.264 297.659 141.96 296.24 141.96 294.416C141.96 292.592 142.264 291.173 142.872 290.16C143.491 289.147 144.467 288.64 145.8 288.64C147.133 288.64 148.104 289.147 148.712 290.16C149.331 291.173 149.64 292.592 149.64 294.416C149.64 296.24 149.331 297.659 148.712 298.672C148.104 299.685 147.133 300.192 145.8 300.192ZM145.8 299.024C146.237 299.024 146.611 298.933 146.92 298.752C147.229 298.571 147.48 298.315 147.672 297.984C147.864 297.653 148.003 297.264 148.088 296.816C148.184 296.368 148.232 295.872 148.232 295.328V293.504C148.232 292.96 148.184 292.464 148.088 292.016C148.003 291.568 147.864 291.179 147.672 290.848C147.48 290.517 147.229 290.261 146.92 290.08C146.611 289.899 146.237 289.808 145.8 289.808C145.363 289.808 144.989 289.899 144.68 290.08C144.371 290.261 144.12 290.517 143.928 290.848C143.736 291.179 143.592 291.568 143.496 292.016C143.411 292.464 143.368 292.96 143.368 293.504V295.328C143.368 295.872 143.411 296.368 143.496 296.816C143.592 297.264 143.736 297.653 143.928 297.984C144.12 298.315 144.371 298.571 144.68 298.752C144.989 298.933 145.363 299.024 145.8 299.024Z" fill="#1A1A1A"/>
<rect x="163" y="275" width="1" height="37" fill="#C4C4C4"/>
<rect width="48" height="37" transform="translate(164 275)" fill="white"/>
<path d="M188.934 300H181.606V298.624L185.254 295.264C185.777 294.784 186.214 294.277 186.566 293.744C186.918 293.2 187.094 292.656 187.094 292.112V291.92C187.094 291.301 186.924 290.8 186.582 290.416C186.241 290.032 185.724 289.84 185.03 289.84C184.689 289.84 184.39 289.888 184.134 289.984C183.878 290.08 183.654 290.213 183.462 290.384C183.281 290.555 183.126 290.757 182.998 290.992C182.881 291.216 182.785 291.461 182.71 291.728L181.51 291.264C181.617 290.933 181.761 290.613 181.942 290.304C182.134 289.984 182.369 289.701 182.646 289.456C182.934 289.211 183.276 289.013 183.67 288.864C184.076 288.715 184.55 288.64 185.094 288.64C185.638 288.64 186.124 288.72 186.55 288.88C186.977 289.04 187.334 289.264 187.622 289.552C187.91 289.84 188.129 290.181 188.278 290.576C188.438 290.971 188.518 291.408 188.518 291.888C188.518 292.325 188.454 292.731 188.326 293.104C188.209 293.477 188.044 293.835 187.83 294.176C187.617 294.507 187.356 294.832 187.046 295.152C186.748 295.472 186.422 295.792 186.07 296.112L183.062 298.816H188.934V300ZM191.408 300V298.816H194.528V289.824H194.416L191.6 292.448L190.816 291.6L193.776 288.832H195.872V298.816H198.752V300H191.408Z" fill="#1A1A1A"/>
<rect x="212" y="275" width="1" height="37" fill="#C4C4C4"/>
<rect width="48" height="37" transform="translate(213 275)" fill="white"/>
<path d="M237.934 300H230.606V298.624L234.254 295.264C234.777 294.784 235.214 294.277 235.566 293.744C235.918 293.2 236.094 292.656 236.094 292.112V291.92C236.094 291.301 235.924 290.8 235.582 290.416C235.241 290.032 234.724 289.84 234.03 289.84C233.689 289.84 233.39 289.888 233.134 289.984C232.878 290.08 232.654 290.213 232.462 290.384C232.281 290.555 232.126 290.757 231.998 290.992C231.881 291.216 231.785 291.461 231.71 291.728L230.51 291.264C230.617 290.933 230.761 290.613 230.942 290.304C231.134 289.984 231.369 289.701 231.646 289.456C231.934 289.211 232.276 289.013 232.67 288.864C233.076 288.715 233.55 288.64 234.094 288.64C234.638 288.64 235.124 288.72 235.55 288.88C235.977 289.04 236.334 289.264 236.622 289.552C236.91 289.84 237.129 290.181 237.278 290.576C237.438 290.971 237.518 291.408 237.518 291.888C237.518 292.325 237.454 292.731 237.326 293.104C237.209 293.477 237.044 293.835 236.83 294.176C236.617 294.507 236.356 294.832 236.046 295.152C235.748 295.472 235.422 295.792 235.07 296.112L232.062 298.816H237.934V300ZM247.528 300H240.2V298.624L243.848 295.264C244.371 294.784 244.808 294.277 245.16 293.744C245.512 293.2 245.688 292.656 245.688 292.112V291.92C245.688 291.301 245.517 290.8 245.176 290.416C244.835 290.032 244.317 289.84 243.624 289.84C243.283 289.84 242.984 289.888 242.728 289.984C242.472 290.08 242.248 290.213 242.056 290.384C241.875 290.555 241.72 290.757 241.592 290.992C241.475 291.216 241.379 291.461 241.304 291.728L240.104 291.264C240.211 290.933 240.355 290.613 240.536 290.304C240.728 289.984 240.963 289.701 241.24 289.456C241.528 289.211 241.869 289.013 242.264 288.864C242.669 288.715 243.144 288.64 243.688 288.64C244.232 288.64 244.717 288.72 245.144 288.88C245.571 289.04 245.928 289.264 246.216 289.552C246.504 289.84 246.723 290.181 246.872 290.576C247.032 290.971 247.112 291.408 247.112 291.888C247.112 292.325 247.048 292.731 246.92 293.104C246.803 293.477 246.637 293.835 246.424 294.176C246.211 294.507 245.949 294.832 245.64 295.152C245.341 295.472 245.016 295.792 244.664 296.112L241.656 298.816H247.528V300Z" fill="#1A1A1A"/>
<rect x="261" y="275" width="1" height="37" fill="#C4C4C4"/>
<rect width="48" height="37" transform="translate(262 275)" fill="white"/>
<path d="M286.934 300H279.606V298.624L283.254 295.264C283.777 294.784 284.214 294.277 284.566 293.744C284.918 293.2 285.094 292.656 285.094 292.112V291.92C285.094 291.301 284.924 290.8 284.582 290.416C284.241 290.032 283.724 289.84 283.03 289.84C282.689 289.84 282.39 289.888 282.134 289.984C281.878 290.08 281.654 290.213 281.462 290.384C281.281 290.555 281.126 290.757 280.998 290.992C280.881 291.216 280.785 291.461 280.71 291.728L279.51 291.264C279.617 290.933 279.761 290.613 279.942 290.304C280.134 289.984 280.369 289.701 280.646 289.456C280.934 289.211 281.276 289.013 281.67 288.864C282.076 288.715 282.55 288.64 283.094 288.64C283.638 288.64 284.124 288.72 284.55 288.88C284.977 289.04 285.334 289.264 285.622 289.552C285.91 289.84 286.129 290.181 286.278 290.576C286.438 290.971 286.518 291.408 286.518 291.888C286.518 292.325 286.454 292.731 286.326 293.104C286.209 293.477 286.044 293.835 285.83 294.176C285.617 294.507 285.356 294.832 285.046 295.152C284.748 295.472 284.422 295.792 284.07 296.112L281.062 298.816H286.934V300ZM292.176 293.568C292.933 293.568 293.499 293.397 293.872 293.056C294.256 292.704 294.448 292.256 294.448 291.712V291.6C294.448 291.013 294.261 290.576 293.888 290.288C293.525 289.989 293.045 289.84 292.448 289.84C291.872 289.84 291.403 289.968 291.04 290.224C290.677 290.469 290.379 290.805 290.144 291.232L289.152 290.464C289.291 290.24 289.456 290.021 289.648 289.808C289.851 289.584 290.085 289.387 290.352 289.216C290.619 289.045 290.928 288.907 291.28 288.8C291.632 288.693 292.032 288.64 292.48 288.64C292.949 288.64 293.392 288.704 293.808 288.832C294.224 288.949 294.581 289.131 294.88 289.376C295.189 289.611 295.429 289.904 295.6 290.256C295.781 290.608 295.872 291.008 295.872 291.456C295.872 291.819 295.813 292.144 295.696 292.432C295.589 292.72 295.44 292.971 295.248 293.184C295.056 293.397 294.827 293.579 294.56 293.728C294.304 293.877 294.027 293.989 293.728 294.064V294.128C294.027 294.192 294.315 294.299 294.592 294.448C294.88 294.587 295.131 294.773 295.344 295.008C295.568 295.232 295.744 295.509 295.872 295.84C296.011 296.16 296.08 296.528 296.08 296.944C296.08 297.424 295.989 297.867 295.808 298.272C295.627 298.667 295.371 299.008 295.04 299.296C294.709 299.573 294.309 299.792 293.84 299.952C293.371 300.112 292.853 300.192 292.288 300.192C291.808 300.192 291.381 300.139 291.008 300.032C290.635 299.925 290.304 299.781 290.016 299.6C289.728 299.419 289.472 299.216 289.248 298.992C289.035 298.768 288.843 298.533 288.672 298.288L289.68 297.52C289.819 297.744 289.968 297.947 290.128 298.128C290.299 298.309 290.485 298.464 290.688 298.592C290.891 298.72 291.12 298.821 291.376 298.896C291.632 298.96 291.931 298.992 292.272 298.992C293.061 298.992 293.659 298.816 294.064 298.464C294.469 298.101 294.672 297.589 294.672 296.928V296.8C294.672 296.139 294.469 295.632 294.064 295.28C293.659 294.917 293.061 294.736 292.272 294.736H290.96V293.568H292.176Z" fill="#1A1A1A"/>
<rect x="310" y="275" width="1" height="37" fill="#C4C4C4"/>
<rect width="48" height="37" transform="translate(311 275)" fill="white"/>
<path d="M335.934 300H328.606V298.624L332.254 295.264C332.777 294.784 333.214 294.277 333.566 293.744C333.918 293.2 334.094 292.656 334.094 292.112V291.92C334.094 291.301 333.924 290.8 333.582 290.416C333.241 290.032 332.724 289.84 332.03 289.84C331.689 289.84 331.39 289.888 331.134 289.984C330.878 290.08 330.654 290.213 330.462 290.384C330.281 290.555 330.126 290.757 329.998 290.992C329.881 291.216 329.785 291.461 329.71 291.728L328.51 291.264C328.617 290.933 328.761 290.613 328.942 290.304C329.134 289.984 329.369 289.701 329.646 289.456C329.934 289.211 330.276 289.013 330.67 288.864C331.076 288.715 331.55 288.64 332.094 288.64C332.638 288.64 333.124 288.72 333.55 288.88C333.977 289.04 334.334 289.264 334.622 289.552C334.91 289.84 335.129 290.181 335.278 290.576C335.438 290.971 335.518 291.408 335.518 291.888C335.518 292.325 335.454 292.731 335.326 293.104C335.209 293.477 335.044 293.835 334.83 294.176C334.617 294.507 334.356 294.832 334.046 295.152C333.748 295.472 333.422 295.792 333.07 296.112L330.062 298.816H335.934V300ZM343 300V297.808H337.608V296.624L342.28 288.832H344.28V296.688H345.896V297.808H344.28V300H343ZM338.872 296.688H343V289.872H342.92L338.872 296.688Z" fill="#1A1A1A"/>
<rect x="17" y="313" width="1" height="342" transform="rotate(-90 17 313)" fill="#BFBFBF"/>
<rect width="48" height="37" transform="translate(17 313)" fill="white"/>
<path d="M41.9343 338H34.6063V336.624L38.2543 333.264C38.7769 332.784 39.2143 332.277 39.5663 331.744C39.9183 331.2 40.0943 330.656 40.0943 330.112V329.92C40.0943 329.301 39.9236 328.8 39.5823 328.416C39.2409 328.032 38.7236 327.84 38.0303 327.84C37.6889 327.84 37.3903 327.888 37.1343 327.984C36.8783 328.08 36.6543 328.213 36.4623 328.384C36.2809 328.555 36.1263 328.757 35.9983 328.992C35.8809 329.216 35.7849 329.461 35.7103 329.728L34.5103 329.264C34.6169 328.933 34.7609 328.613 34.9423 328.304C35.1343 327.984 35.3689 327.701 35.6463 327.456C35.9343 327.211 36.2756 327.013 36.6703 326.864C37.0756 326.715 37.5503 326.64 38.0943 326.64C38.6383 326.64 39.1236 326.72 39.5503 326.88C39.9769 327.04 40.3343 327.264 40.6223 327.552C40.9103 327.84 41.1289 328.181 41.2783 328.576C41.4383 328.971 41.5183 329.408 41.5183 329.888C41.5183 330.325 41.4543 330.731 41.3263 331.104C41.2089 331.477 41.0436 331.835 40.8303 332.176C40.6169 332.507 40.3556 332.832 40.0463 333.152C39.7476 333.472 39.4223 333.792 39.0703 334.112L36.0623 336.816H41.9343V338ZM50.968 328.016H46.072L45.752 332.272H45.864C46.1307 331.899 46.4293 331.6 46.76 331.376C47.1013 331.152 47.5653 331.04 48.152 331.04C48.632 331.04 49.0747 331.12 49.48 331.28C49.8853 331.44 50.2373 331.669 50.536 331.968C50.8347 332.256 51.064 332.613 51.224 333.04C51.3947 333.467 51.48 333.952 51.48 334.496C51.48 335.04 51.3947 335.541 51.224 336C51.0533 336.448 50.8027 336.837 50.472 337.168C50.152 337.488 49.7573 337.739 49.288 337.92C48.8293 338.101 48.3067 338.192 47.72 338.192C47.2507 338.192 46.8347 338.139 46.472 338.032C46.12 337.925 45.8053 337.781 45.528 337.6C45.2507 337.419 45.0053 337.216 44.792 336.992C44.5893 336.768 44.4027 336.533 44.232 336.288L45.24 335.52C45.3787 335.744 45.5227 335.947 45.672 336.128C45.832 336.309 46.0027 336.464 46.184 336.592C46.376 336.72 46.5947 336.821 46.84 336.896C47.0853 336.96 47.3787 336.992 47.72 336.992C48.488 336.992 49.0693 336.789 49.464 336.384C49.8587 335.979 50.056 335.408 50.056 334.672V334.512C50.056 333.776 49.8587 333.205 49.464 332.8C49.0693 332.395 48.488 332.192 47.72 332.192C47.208 332.192 46.8027 332.288 46.504 332.48C46.216 332.661 45.9547 332.88 45.72 333.136L44.584 332.976L44.984 326.832H50.968V328.016Z" fill="#1A1A1A"/>
<rect x="65" y="313" width="1" height="37" fill="#C4C4C4"/>
<rect width="48" height="37" transform="translate(66 313)" fill="white"/>
<path d="M90.9343 338H83.6063V336.624L87.2543 333.264C87.7769 332.784 88.2143 332.277 88.5663 331.744C88.9183 331.2 89.0943 330.656 89.0943 330.112V329.92C89.0943 329.301 88.9236 328.8 88.5823 328.416C88.2409 328.032 87.7236 327.84 87.0303 327.84C86.6889 327.84 86.3903 327.888 86.1343 327.984C85.8783 328.08 85.6543 328.213 85.4623 328.384C85.2809 328.555 85.1263 328.757 84.9983 328.992C84.8809 329.216 84.7849 329.461 84.7103 329.728L83.5103 329.264C83.6169 328.933 83.7609 328.613 83.9423 328.304C84.1343 327.984 84.3689 327.701 84.6463 327.456C84.9343 327.211 85.2756 327.013 85.6703 326.864C86.0756 326.715 86.5503 326.64 87.0943 326.64C87.6383 326.64 88.1236 326.72 88.5503 326.88C88.9769 327.04 89.3343 327.264 89.6223 327.552C89.9103 327.84 90.1289 328.181 90.2783 328.576C90.4383 328.971 90.5183 329.408 90.5183 329.888C90.5183 330.325 90.4543 330.731 90.3263 331.104C90.2089 331.477 90.0436 331.835 89.8303 332.176C89.6169 332.507 89.3556 332.832 89.0463 333.152C88.7476 333.472 88.4223 333.792 88.0703 334.112L85.0623 336.816H90.9343V338ZM96.816 338.192C96.24 338.192 95.7173 338.096 95.248 337.904C94.7893 337.701 94.3947 337.419 94.064 337.056C93.744 336.683 93.4987 336.229 93.328 335.696C93.1573 335.163 93.072 334.565 93.072 333.904C93.072 333.072 93.1947 332.293 93.44 331.568C93.6853 330.832 94 330.165 94.384 329.568C94.7787 328.96 95.2107 328.427 95.68 327.968C96.1493 327.499 96.608 327.12 97.056 326.832H98.784C98.1867 327.269 97.6533 327.696 97.184 328.112C96.7147 328.528 96.304 328.965 95.952 329.424C95.6 329.872 95.3013 330.357 95.056 330.88C94.8107 331.392 94.6133 331.973 94.464 332.624L94.544 332.656C94.8107 332.197 95.152 331.819 95.568 331.52C95.9947 331.211 96.5493 331.056 97.232 331.056C97.712 331.056 98.1547 331.136 98.56 331.296C98.9653 331.456 99.312 331.685 99.6 331.984C99.888 332.283 100.112 332.645 100.272 333.072C100.443 333.499 100.528 333.973 100.528 334.496C100.528 335.04 100.437 335.541 100.256 336C100.085 336.448 99.8347 336.837 99.504 337.168C99.184 337.488 98.7947 337.739 98.336 337.92C97.8773 338.101 97.3707 338.192 96.816 338.192ZM96.8 337.024C97.536 337.024 98.1067 336.821 98.512 336.416C98.928 336.011 99.136 335.429 99.136 334.672V334.544C99.136 333.787 98.928 333.205 98.512 332.8C98.1067 332.395 97.536 332.192 96.8 332.192C96.064 332.192 95.488 332.395 95.072 332.8C94.6667 333.205 94.464 333.787 94.464 334.544V334.672C94.464 335.429 94.6667 336.011 95.072 336.416C95.488 336.821 96.064 337.024 96.8 337.024Z" fill="#1A1A1A"/>
<rect x="114" y="313" width="1" height="37" fill="#C4C4C4"/>
<rect width="48" height="37" transform="translate(115 313)" fill="white"/>
<path d="M139.934 338H132.606V336.624L136.254 333.264C136.777 332.784 137.214 332.277 137.566 331.744C137.918 331.2 138.094 330.656 138.094 330.112V329.92C138.094 329.301 137.924 328.8 137.582 328.416C137.241 328.032 136.724 327.84 136.03 327.84C135.689 327.84 135.39 327.888 135.134 327.984C134.878 328.08 134.654 328.213 134.462 328.384C134.281 328.555 134.126 328.757 133.998 328.992C133.881 329.216 133.785 329.461 133.71 329.728L132.51 329.264C132.617 328.933 132.761 328.613 132.942 328.304C133.134 327.984 133.369 327.701 133.646 327.456C133.934 327.211 134.276 327.013 134.67 326.864C135.076 326.715 135.55 326.64 136.094 326.64C136.638 326.64 137.124 326.72 137.55 326.88C137.977 327.04 138.334 327.264 138.622 327.552C138.91 327.84 139.129 328.181 139.278 328.576C139.438 328.971 139.518 329.408 139.518 329.888C139.518 330.325 139.454 330.731 139.326 331.104C139.209 331.477 139.044 331.835 138.83 332.176C138.617 332.507 138.356 332.832 138.046 333.152C137.748 333.472 137.422 333.792 137.07 334.112L134.062 336.816H139.934V338ZM143.8 338L148.072 327.984H143.304V330.064H142.104V326.832H149.432V328.016L145.24 338H143.8Z" fill="#1A1A1A"/>
<rect x="163" y="313" width="1" height="37" fill="#C4C4C4"/>
<rect width="48" height="37" transform="translate(164 313)" fill="white"/>
<path d="M188.934 338H181.606V336.624L185.254 333.264C185.777 332.784 186.214 332.277 186.566 331.744C186.918 331.2 187.094 330.656 187.094 330.112V329.92C187.094 329.301 186.924 328.8 186.582 328.416C186.241 328.032 185.724 327.84 185.03 327.84C184.689 327.84 184.39 327.888 184.134 327.984C183.878 328.08 183.654 328.213 183.462 328.384C183.281 328.555 183.126 328.757 182.998 328.992C182.881 329.216 182.785 329.461 182.71 329.728L181.51 329.264C181.617 328.933 181.761 328.613 181.942 328.304C182.134 327.984 182.369 327.701 182.646 327.456C182.934 327.211 183.276 327.013 183.67 326.864C184.076 326.715 184.55 326.64 185.094 326.64C185.638 326.64 186.124 326.72 186.55 326.88C186.977 327.04 187.334 327.264 187.622 327.552C187.91 327.84 188.129 328.181 188.278 328.576C188.438 328.971 188.518 329.408 188.518 329.888C188.518 330.325 188.454 330.731 188.326 331.104C188.209 331.477 188.044 331.835 187.83 332.176C187.617 332.507 187.356 332.832 187.046 333.152C186.748 333.472 186.422 333.792 186.07 334.112L183.062 336.816H188.934V338ZM194.8 338.192C194.16 338.192 193.6 338.112 193.12 337.952C192.64 337.781 192.235 337.552 191.904 337.264C191.584 336.976 191.339 336.635 191.168 336.24C191.008 335.845 190.928 335.419 190.928 334.96C190.928 334.192 191.136 333.584 191.552 333.136C191.968 332.688 192.512 332.373 193.184 332.192V332.064C192.597 331.861 192.128 331.536 191.776 331.088C191.435 330.629 191.264 330.08 191.264 329.44C191.264 328.587 191.573 327.909 192.192 327.408C192.811 326.896 193.68 326.64 194.8 326.64C195.92 326.64 196.789 326.896 197.408 327.408C198.027 327.909 198.336 328.587 198.336 329.44C198.336 330.08 198.16 330.629 197.808 331.088C197.467 331.536 197.003 331.861 196.416 332.064V332.192C197.088 332.373 197.632 332.688 198.048 333.136C198.464 333.584 198.672 334.192 198.672 334.96C198.672 335.419 198.587 335.845 198.416 336.24C198.256 336.635 198.011 336.976 197.68 337.264C197.36 337.552 196.96 337.781 196.48 337.952C196 338.112 195.44 338.192 194.8 338.192ZM194.8 337.024C195.579 337.024 196.181 336.853 196.608 336.512C197.035 336.16 197.248 335.664 197.248 335.024V334.688C197.248 334.048 197.035 333.557 196.608 333.216C196.181 332.864 195.579 332.688 194.8 332.688C194.021 332.688 193.419 332.864 192.992 333.216C192.565 333.557 192.352 334.048 192.352 334.688V335.024C192.352 335.664 192.565 336.16 192.992 336.512C193.419 336.853 194.021 337.024 194.8 337.024ZM194.8 331.568C195.504 331.568 196.037 331.419 196.4 331.12C196.763 330.821 196.944 330.384 196.944 329.808V329.568C196.944 328.992 196.763 328.555 196.4 328.256C196.037 327.957 195.504 327.808 194.8 327.808C194.096 327.808 193.563 327.957 193.2 328.256C192.837 328.555 192.656 328.992 192.656 329.568V329.808C192.656 330.384 192.837 330.821 193.2 331.12C193.563 331.419 194.096 331.568 194.8 331.568Z" fill="#1A1A1A"/>
<rect x="212" y="313" width="1" height="37" fill="#C4C4C4"/>
<rect width="48" height="37" transform="translate(213 313)" fill="white"/>
<path d="M237.934 338H230.606V336.624L234.254 333.264C234.777 332.784 235.214 332.277 235.566 331.744C235.918 331.2 236.094 330.656 236.094 330.112V329.92C236.094 329.301 235.924 328.8 235.582 328.416C235.241 328.032 234.724 327.84 234.03 327.84C233.689 327.84 233.39 327.888 233.134 327.984C232.878 328.08 232.654 328.213 232.462 328.384C232.281 328.555 232.126 328.757 231.998 328.992C231.881 329.216 231.785 329.461 231.71 329.728L230.51 329.264C230.617 328.933 230.761 328.613 230.942 328.304C231.134 327.984 231.369 327.701 231.646 327.456C231.934 327.211 232.276 327.013 232.67 326.864C233.076 326.715 233.55 326.64 234.094 326.64C234.638 326.64 235.124 326.72 235.55 326.88C235.977 327.04 236.334 327.264 236.622 327.552C236.91 327.84 237.129 328.181 237.278 328.576C237.438 328.971 237.518 329.408 237.518 329.888C237.518 330.325 237.454 330.731 237.326 331.104C237.209 331.477 237.044 331.835 236.83 332.176C236.617 332.507 236.356 332.832 236.046 333.152C235.748 333.472 235.422 333.792 235.07 334.112L232.062 336.816H237.934V338ZM247.528 330.928C247.528 331.76 247.405 332.544 247.16 333.28C246.915 334.005 246.595 334.672 246.2 335.28C245.816 335.877 245.389 336.411 244.92 336.88C244.451 337.339 243.992 337.712 243.544 338H241.816C242.413 337.563 242.947 337.136 243.416 336.72C243.885 336.304 244.296 335.872 244.648 335.424C245 334.965 245.299 334.48 245.544 333.968C245.789 333.445 245.987 332.859 246.136 332.208L246.056 332.176C245.789 332.635 245.443 333.019 245.016 333.328C244.6 333.627 244.051 333.776 243.368 333.776C242.888 333.776 242.445 333.696 242.04 333.536C241.635 333.376 241.288 333.147 241 332.848C240.712 332.549 240.483 332.192 240.312 331.776C240.152 331.349 240.072 330.869 240.072 330.336C240.072 329.792 240.157 329.296 240.328 328.848C240.509 328.389 240.76 328 241.08 327.68C241.411 327.349 241.8 327.093 242.248 326.912C242.707 326.731 243.219 326.64 243.784 326.64C244.36 326.64 244.877 326.741 245.336 326.944C245.805 327.136 246.2 327.419 246.52 327.792C246.851 328.155 247.101 328.603 247.272 329.136C247.443 329.669 247.528 330.267 247.528 330.928ZM243.8 332.64C244.536 332.64 245.107 332.437 245.512 332.032C245.928 331.627 246.136 331.045 246.136 330.288V330.16C246.136 329.403 245.928 328.821 245.512 328.416C245.107 328.011 244.536 327.808 243.8 327.808C243.064 327.808 242.488 328.011 242.072 328.416C241.667 328.821 241.464 329.403 241.464 330.16V330.288C241.464 331.045 241.667 331.627 242.072 332.032C242.488 332.437 243.064 332.64 243.8 332.64Z" fill="#1A1A1A"/>
<rect x="261" y="313" width="1" height="37" fill="#C4C4C4"/>
<rect width="48" height="37" transform="translate(262 313)" fill="white"/>
<path d="M282.582 331.568C283.34 331.568 283.905 331.397 284.278 331.056C284.662 330.704 284.854 330.256 284.854 329.712V329.6C284.854 329.013 284.668 328.576 284.294 328.288C283.932 327.989 283.452 327.84 282.854 327.84C282.278 327.84 281.809 327.968 281.446 328.224C281.084 328.469 280.785 328.805 280.55 329.232L279.558 328.464C279.697 328.24 279.862 328.021 280.054 327.808C280.257 327.584 280.492 327.387 280.758 327.216C281.025 327.045 281.334 326.907 281.686 326.8C282.038 326.693 282.438 326.64 282.886 326.64C283.356 326.64 283.798 326.704 284.214 326.832C284.63 326.949 284.988 327.131 285.286 327.376C285.596 327.611 285.836 327.904 286.006 328.256C286.188 328.608 286.278 329.008 286.278 329.456C286.278 329.819 286.22 330.144 286.102 330.432C285.996 330.72 285.846 330.971 285.654 331.184C285.462 331.397 285.233 331.579 284.966 331.728C284.71 331.877 284.433 331.989 284.134 332.064V332.128C284.433 332.192 284.721 332.299 284.998 332.448C285.286 332.587 285.537 332.773 285.75 333.008C285.974 333.232 286.15 333.509 286.278 333.84C286.417 334.16 286.486 334.528 286.486 334.944C286.486 335.424 286.396 335.867 286.214 336.272C286.033 336.667 285.777 337.008 285.446 337.296C285.116 337.573 284.716 337.792 284.246 337.952C283.777 338.112 283.26 338.192 282.694 338.192C282.214 338.192 281.788 338.139 281.414 338.032C281.041 337.925 280.71 337.781 280.422 337.6C280.134 337.419 279.878 337.216 279.654 336.992C279.441 336.768 279.249 336.533 279.078 336.288L280.086 335.52C280.225 335.744 280.374 335.947 280.534 336.128C280.705 336.309 280.892 336.464 281.094 336.592C281.297 336.72 281.526 336.821 281.782 336.896C282.038 336.96 282.337 336.992 282.678 336.992C283.468 336.992 284.065 336.816 284.47 336.464C284.876 336.101 285.078 335.589 285.078 334.928V334.8C285.078 334.139 284.876 333.632 284.47 333.28C284.065 332.917 283.468 332.736 282.678 332.736H281.366V331.568H282.582ZM292.8 338.192C291.467 338.192 290.491 337.685 289.872 336.672C289.264 335.659 288.96 334.24 288.96 332.416C288.96 330.592 289.264 329.173 289.872 328.16C290.491 327.147 291.467 326.64 292.8 326.64C294.133 326.64 295.104 327.147 295.712 328.16C296.331 329.173 296.64 330.592 296.64 332.416C296.64 334.24 296.331 335.659 295.712 336.672C295.104 337.685 294.133 338.192 292.8 338.192ZM292.8 337.024C293.237 337.024 293.611 336.933 293.92 336.752C294.229 336.571 294.48 336.315 294.672 335.984C294.864 335.653 295.003 335.264 295.088 334.816C295.184 334.368 295.232 333.872 295.232 333.328V331.504C295.232 330.96 295.184 330.464 295.088 330.016C295.003 329.568 294.864 329.179 294.672 328.848C294.48 328.517 294.229 328.261 293.92 328.08C293.611 327.899 293.237 327.808 292.8 327.808C292.363 327.808 291.989 327.899 291.68 328.08C291.371 328.261 291.12 328.517 290.928 328.848C290.736 329.179 290.592 329.568 290.496 330.016C290.411 330.464 290.368 330.96 290.368 331.504V333.328C290.368 333.872 290.411 334.368 290.496 334.816C290.592 335.264 290.736 335.653 290.928 335.984C291.12 336.315 291.371 336.571 291.68 336.752C291.989 336.933 292.363 337.024 292.8 337.024Z" fill="#1A1A1A"/>
<rect x="310" y="313" width="1" height="37" fill="#C4C4C4"/>
<rect width="48" height="37" transform="translate(311 313)" fill="white"/>
<path d="M331.582 331.568C332.34 331.568 332.905 331.397 333.278 331.056C333.662 330.704 333.854 330.256 333.854 329.712V329.6C333.854 329.013 333.668 328.576 333.294 328.288C332.932 327.989 332.452 327.84 331.854 327.84C331.278 327.84 330.809 327.968 330.446 328.224C330.084 328.469 329.785 328.805 329.55 329.232L328.558 328.464C328.697 328.24 328.862 328.021 329.054 327.808C329.257 327.584 329.492 327.387 329.758 327.216C330.025 327.045 330.334 326.907 330.686 326.8C331.038 326.693 331.438 326.64 331.886 326.64C332.356 326.64 332.798 326.704 333.214 326.832C333.63 326.949 333.988 327.131 334.286 327.376C334.596 327.611 334.836 327.904 335.006 328.256C335.188 328.608 335.278 329.008 335.278 329.456C335.278 329.819 335.22 330.144 335.102 330.432C334.996 330.72 334.846 330.971 334.654 331.184C334.462 331.397 334.233 331.579 333.966 331.728C333.71 331.877 333.433 331.989 333.134 332.064V332.128C333.433 332.192 333.721 332.299 333.998 332.448C334.286 332.587 334.537 332.773 334.75 333.008C334.974 333.232 335.15 333.509 335.278 333.84C335.417 334.16 335.486 334.528 335.486 334.944C335.486 335.424 335.396 335.867 335.214 336.272C335.033 336.667 334.777 337.008 334.446 337.296C334.116 337.573 333.716 337.792 333.246 337.952C332.777 338.112 332.26 338.192 331.694 338.192C331.214 338.192 330.788 338.139 330.414 338.032C330.041 337.925 329.71 337.781 329.422 337.6C329.134 337.419 328.878 337.216 328.654 336.992C328.441 336.768 328.249 336.533 328.078 336.288L329.086 335.52C329.225 335.744 329.374 335.947 329.534 336.128C329.705 336.309 329.892 336.464 330.094 336.592C330.297 336.72 330.526 336.821 330.782 336.896C331.038 336.96 331.337 336.992 331.678 336.992C332.468 336.992 333.065 336.816 333.47 336.464C333.876 336.101 334.078 335.589 334.078 334.928V334.8C334.078 334.139 333.876 333.632 333.47 333.28C333.065 332.917 332.468 332.736 331.678 332.736H330.366V331.568H331.582ZM338.408 338V336.816H341.528V327.824H341.416L338.6 330.448L337.816 329.6L340.776 326.832H342.872V336.816H345.752V338H338.408Z" fill="#1A1A1A"/>
<rect x="17" y="351" width="1" height="342" transform="rotate(-90 17 351)" fill="#747474"/>
<rect x="359" y="85" width="1" height="266" fill="#747474"/>
</g>
<path d="M204 52H203V50H201V52H193V50H191V52H190C188.89 52 188.01 52.9 188.01 54L188 68C188 69.1 188.89 70 190 70H204C205.1 70 206 69.1 206 68V54C206 52.9 205.1 52 204 52ZM204 68H190V58H204V68ZM204 56H190V54H204V56ZM202 61H197V66H202V61Z" fill="#1A1A1A"/>
<rect x="16.5" y="41.5" width="159" height="39" rx="3.5" stroke="#747474"/>
<path d="M36.8 66.192C35.4667 66.192 34.4907 65.6853 33.872 64.672C33.264 63.6587 32.96 62.24 32.96 60.416C32.96 58.592 33.264 57.1733 33.872 56.16C34.4907 55.1467 35.4667 54.64 36.8 54.64C38.1333 54.64 39.104 55.1467 39.712 56.16C40.3307 57.1733 40.64 58.592 40.64 60.416C40.64 62.24 40.3307 63.6587 39.712 64.672C39.104 65.6853 38.1333 66.192 36.8 66.192ZM36.8 65.024C37.2373 65.024 37.6107 64.9333 37.92 64.752C38.2293 64.5707 38.48 64.3147 38.672 63.984C38.864 63.6533 39.0027 63.264 39.088 62.816C39.184 62.368 39.232 61.872 39.232 61.328V59.504C39.232 58.96 39.184 58.464 39.088 58.016C39.0027 57.568 38.864 57.1787 38.672 56.848C38.48 56.5173 38.2293 56.2613 37.92 56.08C37.6107 55.8987 37.2373 55.808 36.8 55.808C36.3627 55.808 35.9893 55.8987 35.68 56.08C35.3707 56.2613 35.12 56.5173 34.928 56.848C34.736 57.1787 34.592 57.568 34.496 58.016C34.4107 58.464 34.368 58.96 34.368 59.504V61.328C34.368 61.872 34.4107 62.368 34.496 62.816C34.592 63.264 34.736 63.6533 34.928 63.984C35.12 64.3147 35.3707 64.5707 35.68 64.752C35.9893 64.9333 36.3627 65.024 36.8 65.024ZM46.4098 66.192C45.8338 66.192 45.3111 66.096 44.8418 65.904C44.3831 65.7013 43.9884 65.4187 43.6578 65.056C43.3378 64.6827 43.0924 64.2293 42.9218 63.696C42.7511 63.1627 42.6658 62.5653 42.6658 61.904C42.6658 61.072 42.7884 60.2933 43.0338 59.568C43.2791 58.832 43.5938 58.1653 43.9778 57.568C44.3724 56.96 44.8044 56.4267 45.2738 55.968C45.7431 55.4987 46.2018 55.12 46.6498 54.832H48.3778C47.7804 55.2693 47.2471 55.696 46.7778 56.112C46.3084 56.528 45.8978 56.9653 45.5458 57.424C45.1938 57.872 44.8951 58.3573 44.6498 58.88C44.4044 59.392 44.2071 59.9733 44.0578 60.624L44.1378 60.656C44.4044 60.1973 44.7458 59.8187 45.1618 59.52C45.5884 59.2107 46.1431 59.056 46.8258 59.056C47.3058 59.056 47.7484 59.136 48.1538 59.296C48.5591 59.456 48.9058 59.6853 49.1938 59.984C49.4818 60.2827 49.7058 60.6453 49.8658 61.072C50.0364 61.4987 50.1218 61.9733 50.1218 62.496C50.1218 63.04 50.0311 63.5413 49.8498 64C49.6791 64.448 49.4284 64.8373 49.0978 65.168C48.7778 65.488 48.3884 65.7387 47.9298 65.92C47.4711 66.1013 46.9644 66.192 46.4098 66.192ZM46.3938 65.024C47.1298 65.024 47.7004 64.8213 48.1058 64.416C48.5218 64.0107 48.7298 63.4293 48.7298 62.672V62.544C48.7298 61.7867 48.5218 61.2053 48.1058 60.8C47.7004 60.3947 47.1298 60.192 46.3938 60.192C45.6578 60.192 45.0818 60.3947 44.6658 60.8C44.2604 61.2053 44.0578 61.7867 44.0578 62.544V62.672C44.0578 63.4293 44.2604 64.0107 44.6658 64.416C45.0818 64.8213 45.6578 65.024 46.3938 65.024ZM51.3315 68.416L55.5075 54.16H56.6595L52.4835 68.416H51.3315ZM62.1125 66.192C60.7792 66.192 59.8032 65.6853 59.1845 64.672C58.5765 63.6587 58.2725 62.24 58.2725 60.416C58.2725 58.592 58.5765 57.1733 59.1845 56.16C59.8032 55.1467 60.7792 54.64 62.1125 54.64C63.4458 54.64 64.4165 55.1467 65.0245 56.16C65.6432 57.1733 65.9525 58.592 65.9525 60.416C65.9525 62.24 65.6432 63.6587 65.0245 64.672C64.4165 65.6853 63.4458 66.192 62.1125 66.192ZM62.1125 65.024C62.5498 65.024 62.9232 64.9333 63.2325 64.752C63.5418 64.5707 63.7925 64.3147 63.9845 63.984C64.1765 63.6533 64.3152 63.264 64.4005 62.816C64.4965 62.368 64.5445 61.872 64.5445 61.328V59.504C64.5445 58.96 64.4965 58.464 64.4005 58.016C64.3152 57.568 64.1765 57.1787 63.9845 56.848C63.7925 56.5173 63.5418 56.2613 63.2325 56.08C62.9232 55.8987 62.5498 55.808 62.1125 55.808C61.6752 55.808 61.3018 55.8987 60.9925 56.08C60.6832 56.2613 60.4325 56.5173 60.2405 56.848C60.0485 57.1787 59.9045 57.568 59.8085 58.016C59.7232 58.464 59.6805 58.96 59.6805 59.504V61.328C59.6805 61.872 59.7232 62.368 59.8085 62.816C59.9045 63.264 60.0485 63.6533 60.2405 63.984C60.4325 64.3147 60.6832 64.5707 60.9925 64.752C61.3018 64.9333 61.6752 65.024 62.1125 65.024ZM71.0823 59.568C71.8396 59.568 72.4049 59.3973 72.7783 59.056C73.1623 58.704 73.3543 58.256 73.3543 57.712V57.6C73.3543 57.0133 73.1676 56.576 72.7943 56.288C72.4316 55.9893 71.9516 55.84 71.3543 55.84C70.7783 55.84 70.3089 55.968 69.9463 56.224C69.5836 56.4693 69.2849 56.8053 69.0503 57.232L68.0583 56.464C68.1969 56.24 68.3623 56.0213 68.5543 55.808C68.7569 55.584 68.9916 55.3867 69.2582 55.216C69.5249 55.0453 69.8343 54.9067 70.1863 54.8C70.5383 54.6933 70.9383 54.64 71.3863 54.64C71.8556 54.64 72.2983 54.704 72.7143 54.832C73.1303 54.9493 73.4876 55.1307 73.7863 55.376C74.0956 55.6107 74.3356 55.904 74.5063 56.256C74.6876 56.608 74.7783 57.008 74.7783 57.456C74.7783 57.8187 74.7196 58.144 74.6023 58.432C74.4956 58.72 74.3463 58.9707 74.1543 59.184C73.9623 59.3973 73.7329 59.5787 73.4663 59.728C73.2103 59.8773 72.9329 59.9893 72.6343 60.064V60.128C72.9329 60.192 73.2209 60.2987 73.4983 60.448C73.7863 60.5867 74.0369 60.7733 74.2503 61.008C74.4743 61.232 74.6503 61.5093 74.7783 61.84C74.9169 62.16 74.9862 62.528 74.9862 62.944C74.9862 63.424 74.8956 63.8667 74.7143 64.272C74.5329 64.6667 74.2769 65.008 73.9463 65.296C73.6156 65.5733 73.2156 65.792 72.7463 65.952C72.2769 66.112 71.7596 66.192 71.1943 66.192C70.7143 66.192 70.2876 66.1387 69.9143 66.032C69.5409 65.9253 69.2103 65.7813 68.9223 65.6C68.6343 65.4187 68.3783 65.216 68.1543 64.992C67.9409 64.768 67.7489 64.5333 67.5783 64.288L68.5863 63.52C68.7249 63.744 68.8743 63.9467 69.0343 64.128C69.2049 64.3093 69.3916 64.464 69.5943 64.592C69.7969 64.72 70.0263 64.8213 70.2823 64.896C70.5383 64.96 70.8369 64.992 71.1783 64.992C71.9676 64.992 72.5649 64.816 72.9703 64.464C73.3756 64.1013 73.5783 63.5893 73.5783 62.928V62.8C73.5783 62.1387 73.3756 61.632 72.9703 61.28C72.5649 60.9173 71.9676 60.736 71.1783 60.736H69.8663V59.568H71.0823ZM76.644 68.416L80.82 54.16H81.972L77.796 68.416H76.644ZM91.153 66H83.825V64.624L87.473 61.264C87.9957 60.784 88.433 60.2773 88.785 59.744C89.137 59.2 89.313 58.656 89.313 58.112V57.92C89.313 57.3013 89.1423 56.8 88.801 56.416C88.4597 56.032 87.9423 55.84 87.249 55.84C86.9077 55.84 86.609 55.888 86.353 55.984C86.097 56.08 85.873 56.2133 85.681 56.384C85.4997 56.5547 85.345 56.7573 85.217 56.992C85.0997 57.216 85.0037 57.4613 84.929 57.728L83.729 57.264C83.8357 56.9333 83.9797 56.6133 84.161 56.304C84.353 55.984 84.5877 55.7013 84.865 55.456C85.153 55.2107 85.4943 55.0133 85.889 54.864C86.2943 54.7147 86.769 54.64 87.313 54.64C87.857 54.64 88.3423 54.72 88.769 54.88C89.1957 55.04 89.553 55.264 89.841 55.552C90.129 55.84 90.3477 56.1813 90.497 56.576C90.657 56.9707 90.737 57.408 90.737 57.888C90.737 58.3253 90.673 58.7307 90.545 59.104C90.4277 59.4773 90.2623 59.8347 90.049 60.176C89.8357 60.5067 89.5743 60.832 89.265 61.152C88.9663 61.472 88.641 61.792 88.289 62.112L85.281 64.816H91.153V66ZM97.0188 66.192C95.6854 66.192 94.7094 65.6853 94.0908 64.672C93.4828 63.6587 93.1788 62.24 93.1788 60.416C93.1788 58.592 93.4828 57.1733 94.0908 56.16C94.7094 55.1467 95.6854 54.64 97.0188 54.64C98.3521 54.64 99.3228 55.1467 99.9308 56.16C100.549 57.1733 100.859 58.592 100.859 60.416C100.859 62.24 100.549 63.6587 99.9308 64.672C99.3228 65.6853 98.3521 66.192 97.0188 66.192ZM97.0188 65.024C97.4561 65.024 97.8294 64.9333 98.1388 64.752C98.4481 64.5707 98.6988 64.3147 98.8908 63.984C99.0828 63.6533 99.2214 63.264 99.3068 62.816C99.4028 62.368 99.4508 61.872 99.4508 61.328V59.504C99.4508 58.96 99.4028 58.464 99.3068 58.016C99.2214 57.568 99.0828 57.1787 98.8908 56.848C98.6988 56.5173 98.4481 56.2613 98.1388 56.08C97.8294 55.8987 97.4561 55.808 97.0188 55.808C96.5814 55.808 96.2081 55.8987 95.8988 56.08C95.5894 56.2613 95.3388 56.5173 95.1468 56.848C94.9548 57.1787 94.8108 57.568 94.7148 58.016C94.6294 58.464 94.5868 58.96 94.5868 59.504V61.328C94.5868 61.872 94.6294 62.368 94.7148 62.816C94.8108 63.264 94.9548 63.6533 95.1468 63.984C95.3388 64.3147 95.5894 64.5707 95.8988 64.752C96.2081 64.9333 96.5814 65.024 97.0188 65.024ZM110.341 66H103.013V64.624L106.661 61.264C107.183 60.784 107.621 60.2773 107.973 59.744C108.325 59.2 108.501 58.656 108.501 58.112V57.92C108.501 57.3013 108.33 56.8 107.989 56.416C107.647 56.032 107.13 55.84 106.437 55.84C106.095 55.84 105.797 55.888 105.541 55.984C105.285 56.08 105.061 56.2133 104.869 56.384C104.687 56.5547 104.533 56.7573 104.405 56.992C104.287 57.216 104.191 57.4613 104.117 57.728L102.917 57.264C103.023 56.9333 103.167 56.6133 103.349 56.304C103.541 55.984 103.775 55.7013 104.053 55.456C104.341 55.2107 104.682 55.0133 105.077 54.864C105.482 54.7147 105.957 54.64 106.501 54.64C107.045 54.64 107.53 54.72 107.957 54.88C108.383 55.04 108.741 55.264 109.029 55.552C109.317 55.84 109.535 56.1813 109.685 56.576C109.845 56.9707 109.925 57.408 109.925 57.888C109.925 58.3253 109.861 58.7307 109.733 59.104C109.615 59.4773 109.45 59.8347 109.237 60.176C109.023 60.5067 108.762 60.832 108.453 61.152C108.154 61.472 107.829 61.792 107.477 62.112L104.469 64.816H110.341V66ZM119.934 66H112.606V64.624L116.254 61.264C116.777 60.784 117.214 60.2773 117.566 59.744C117.918 59.2 118.094 58.656 118.094 58.112V57.92C118.094 57.3013 117.924 56.8 117.582 56.416C117.241 56.032 116.724 55.84 116.03 55.84C115.689 55.84 115.39 55.888 115.134 55.984C114.878 56.08 114.654 56.2133 114.462 56.384C114.281 56.5547 114.126 56.7573 113.998 56.992C113.881 57.216 113.785 57.4613 113.71 57.728L112.51 57.264C112.617 56.9333 112.761 56.6133 112.942 56.304C113.134 55.984 113.369 55.7013 113.646 55.456C113.934 55.2107 114.276 55.0133 114.67 54.864C115.076 54.7147 115.55 54.64 116.094 54.64C116.638 54.64 117.124 54.72 117.55 54.88C117.977 55.04 118.334 55.264 118.622 55.552C118.91 55.84 119.129 56.1813 119.278 56.576C119.438 56.9707 119.518 57.408 119.518 57.888C119.518 58.3253 119.454 58.7307 119.326 59.104C119.209 59.4773 119.044 59.8347 118.83 60.176C118.617 60.5067 118.356 60.832 118.046 61.152C117.748 61.472 117.422 61.792 117.07 62.112L114.062 64.816H119.934V66Z" fill="#1A1A1A"/>
<path d="M17.312 16.832H21.376C22.1013 16.832 22.7573 16.9493 23.344 17.184C23.9413 17.4187 24.448 17.7707 24.864 18.24C25.2907 18.6987 25.616 19.28 25.84 19.984C26.0747 20.6773 26.192 21.488 26.192 22.416C26.192 23.344 26.0747 24.16 25.84 24.864C25.616 25.5573 25.2907 26.1387 24.864 26.608C24.448 27.0667 23.9413 27.4133 23.344 27.648C22.7573 27.8827 22.1013 28 21.376 28H17.312V16.832ZM21.376 26.128C22.1653 26.128 22.7893 25.8987 23.248 25.44C23.7173 24.9707 23.952 24.256 23.952 23.296V21.536C23.952 20.576 23.7173 19.8667 23.248 19.408C22.7893 18.9387 22.1653 18.704 21.376 18.704H19.424V26.128H21.376ZM34.3593 28C33.9113 28 33.5539 27.872 33.2873 27.616C33.0313 27.3493 32.8713 26.9973 32.8073 26.56H32.7113C32.5726 27.104 32.2899 27.5147 31.8633 27.792C31.4366 28.0587 30.9086 28.192 30.2793 28.192C29.4259 28.192 28.7699 27.968 28.3113 27.52C27.8526 27.072 27.6233 26.4747 27.6233 25.728C27.6233 24.864 27.9326 24.224 28.5513 23.808C29.1699 23.3813 30.0499 23.168 31.1913 23.168H32.6153V22.56C32.6153 22.0907 32.4926 21.728 32.2473 21.472C32.0019 21.216 31.6073 21.088 31.0633 21.088C30.5833 21.088 30.1939 21.1947 29.8953 21.408C29.6073 21.6107 29.3619 21.856 29.1593 22.144L27.9433 21.056C28.2526 20.576 28.6633 20.192 29.1753 19.904C29.6873 19.6053 30.3646 19.456 31.2073 19.456C32.3379 19.456 33.1966 19.712 33.7833 20.224C34.3699 20.736 34.6633 21.472 34.6633 22.432V26.368H35.4953V28H34.3593ZM30.9673 26.704C31.4259 26.704 31.8153 26.6027 32.1353 26.4C32.4553 26.1973 32.6153 25.8987 32.6153 25.504V24.4H31.3033C30.2366 24.4 29.7033 24.7413 29.7033 25.424V25.696C29.7033 26.0373 29.8099 26.2933 30.0233 26.464C30.2473 26.624 30.5619 26.704 30.9673 26.704ZM39.6983 28C38.9943 28 38.4556 27.8187 38.0823 27.456C37.7196 27.0827 37.5383 26.5547 37.5383 25.872V21.28H36.3063V19.648H36.9463C37.2556 19.648 37.4636 19.5787 37.5703 19.44C37.6876 19.2907 37.7463 19.072 37.7463 18.784V17.36H39.5863V19.648H41.2983V21.28H39.5863V26.368H41.1703V28H39.6983ZM46.3241 28.192C45.7268 28.192 45.1881 28.0907 44.7081 27.888C44.2388 27.6853 43.8335 27.392 43.4921 27.008C43.1615 26.624 42.9055 26.1653 42.7241 25.632C42.5428 25.088 42.4521 24.48 42.4521 23.808C42.4521 23.136 42.5428 22.5333 42.7241 22C42.9055 21.4667 43.1615 21.0133 43.4921 20.64C43.8335 20.256 44.2388 19.9627 44.7081 19.76C45.1881 19.5573 45.7268 19.456 46.3241 19.456C46.9215 19.456 47.4601 19.5573 47.9401 19.76C48.4201 19.9627 48.8255 20.256 49.1561 20.64C49.4975 21.0133 49.7588 21.4667 49.9401 22C50.1215 22.5333 50.2121 23.136 50.2121 23.808C50.2121 24.48 50.1215 25.088 49.9401 25.632C49.7588 26.1653 49.4975 26.624 49.1561 27.008C48.8255 27.392 48.4201 27.6853 47.9401 27.888C47.4601 28.0907 46.9215 28.192 46.3241 28.192ZM46.3241 26.544C46.8681 26.544 47.2948 26.3787 47.6041 26.048C47.9135 25.7173 48.0681 25.232 48.0681 24.592V23.04C48.0681 22.4107 47.9135 21.9307 47.6041 21.6C47.2948 21.2693 46.8681 21.104 46.3241 21.104C45.7908 21.104 45.3695 21.2693 45.0601 21.6C44.7508 21.9307 44.5961 22.4107 44.5961 23.04V24.592C44.5961 25.232 44.7508 25.7173 45.0601 26.048C45.3695 26.3787 45.7908 26.544 46.3241 26.544ZM56.225 21.264H54.993V19.648H56.225V18.448C56.225 17.712 56.417 17.1467 56.801 16.752C57.1957 16.3573 57.7717 16.16 58.529 16.16H59.985V17.792H58.273V19.648H59.985V21.264H58.273V28H56.225V21.264ZM64.6523 28.192C64.0549 28.192 63.5163 28.0907 63.0363 27.888C62.5669 27.6853 62.1616 27.392 61.8203 27.008C61.4896 26.624 61.2336 26.1653 61.0523 25.632C60.8709 25.088 60.7803 24.48 60.7803 23.808C60.7803 23.136 60.8709 22.5333 61.0523 22C61.2336 21.4667 61.4896 21.0133 61.8203 20.64C62.1616 20.256 62.5669 19.9627 63.0363 19.76C63.5163 19.5573 64.0549 19.456 64.6523 19.456C65.2496 19.456 65.7883 19.5573 66.2683 19.76C66.7483 19.9627 67.1536 20.256 67.4843 20.64C67.8256 21.0133 68.0869 21.4667 68.2683 22C68.4496 22.5333 68.5403 23.136 68.5403 23.808C68.5403 24.48 68.4496 25.088 68.2683 25.632C68.0869 26.1653 67.8256 26.624 67.4843 27.008C67.1536 27.392 66.7483 27.6853 66.2683 27.888C65.7883 28.0907 65.2496 28.192 64.6523 28.192ZM64.6523 26.544C65.1963 26.544 65.6229 26.3787 65.9323 26.048C66.2416 25.7173 66.3963 25.232 66.3963 24.592V23.04C66.3963 22.4107 66.2416 21.9307 65.9323 21.6C65.6229 21.2693 65.1963 21.104 64.6523 21.104C64.1189 21.104 63.6976 21.2693 63.3883 21.6C63.0789 21.9307 62.9243 22.4107 62.9243 23.04V24.592C62.9243 25.232 63.0789 25.7173 63.3883 26.048C63.6976 26.3787 64.1189 26.544 64.6523 26.544ZM70.3559 28V19.648H72.4039V21.376H72.4839C72.5372 21.152 72.6172 20.9387 72.7239 20.736C72.8412 20.5227 72.9905 20.336 73.1719 20.176C73.3532 20.016 73.5665 19.888 73.8119 19.792C74.0679 19.696 74.3612 19.648 74.6919 19.648H75.1399V21.584H74.4999C73.8065 21.584 73.2839 21.6853 72.9319 21.888C72.5799 22.0907 72.4039 22.4213 72.4039 22.88V28H70.3559ZM86.5624 28C86.1144 28 85.757 27.872 85.4904 27.616C85.2344 27.3493 85.0744 26.9973 85.0104 26.56H84.9144C84.7757 27.104 84.493 27.5147 84.0664 27.792C83.6397 28.0587 83.1117 28.192 82.4824 28.192C81.629 28.192 80.973 27.968 80.5144 27.52C80.0557 27.072 79.8264 26.4747 79.8264 25.728C79.8264 24.864 80.1357 24.224 80.7544 23.808C81.373 23.3813 82.253 23.168 83.3944 23.168H84.8184V22.56C84.8184 22.0907 84.6957 21.728 84.4504 21.472C84.205 21.216 83.8104 21.088 83.2664 21.088C82.7864 21.088 82.397 21.1947 82.0984 21.408C81.8104 21.6107 81.565 21.856 81.3624 22.144L80.1464 21.056C80.4557 20.576 80.8664 20.192 81.3784 19.904C81.8904 19.6053 82.5677 19.456 83.4104 19.456C84.541 19.456 85.3997 19.712 85.9864 20.224C86.573 20.736 86.8664 21.472 86.8664 22.432V26.368H87.6984V28H86.5624ZM83.1704 26.704C83.629 26.704 84.0184 26.6027 84.3384 26.4C84.6584 26.1973 84.8184 25.8987 84.8184 25.504V24.4H83.5064C82.4397 24.4 81.9064 24.7413 81.9064 25.424V25.696C81.9064 26.0373 82.013 26.2933 82.2264 26.464C82.4504 26.624 82.765 26.704 83.1704 26.704ZM89.7719 21.264H88.5399V19.648H89.7719V18.448C89.7719 17.712 89.9639 17.1467 90.3479 16.752C90.7425 16.3573 91.3185 16.16 92.0759 16.16H93.5319V17.792H91.8199V19.648H93.5319V21.264H91.8199V28H89.7719V21.264ZM97.5576 28C96.8536 28 96.315 27.8187 95.9416 27.456C95.579 27.0827 95.3976 26.5547 95.3976 25.872V21.28H94.1656V19.648H94.8056C95.115 19.648 95.323 19.5787 95.4296 19.44C95.547 19.2907 95.6056 19.072 95.6056 18.784V17.36H97.4456V19.648H99.1576V21.28H97.4456V26.368H99.0296V28H97.5576ZM107.078 28C106.63 28 106.273 27.872 106.006 27.616C105.75 27.3493 105.59 26.9973 105.526 26.56H105.43C105.291 27.104 105.009 27.5147 104.582 27.792C104.155 28.0587 103.627 28.192 102.998 28.192C102.145 28.192 101.489 27.968 101.03 27.52C100.571 27.072 100.342 26.4747 100.342 25.728C100.342 24.864 100.651 24.224 101.27 23.808C101.889 23.3813 102.769 23.168 103.91 23.168H105.334V22.56C105.334 22.0907 105.211 21.728 104.966 21.472C104.721 21.216 104.326 21.088 103.782 21.088C103.302 21.088 102.913 21.1947 102.614 21.408C102.326 21.6107 102.081 21.856 101.878 22.144L100.662 21.056C100.971 20.576 101.382 20.192 101.894 19.904C102.406 19.6053 103.083 19.456 103.926 19.456C105.057 19.456 105.915 19.712 106.502 20.224C107.089 20.736 107.382 21.472 107.382 22.432V26.368H108.214V28H107.078ZM103.686 26.704C104.145 26.704 104.534 26.6027 104.854 26.4C105.174 26.1973 105.334 25.8987 105.334 25.504V24.4H104.022C102.955 24.4 102.422 24.7413 102.422 25.424V25.696C102.422 26.0373 102.529 26.2933 102.742 26.464C102.966 26.624 103.281 26.704 103.686 26.704ZM111.92 28C111.216 28 110.698 27.824 110.368 27.472C110.037 27.12 109.872 26.624 109.872 25.984V16.16H111.92V26.368H113.024V28H111.92ZM117.951 28.192C117.332 28.192 116.777 28.0907 116.287 27.888C115.807 27.6747 115.396 27.3813 115.055 27.008C114.724 26.624 114.468 26.1653 114.287 25.632C114.105 25.088 114.015 24.48 114.015 23.808C114.015 23.1467 114.1 22.5493 114.271 22.016C114.452 21.4827 114.708 21.0293 115.039 20.656C115.369 20.272 115.775 19.9787 116.255 19.776C116.735 19.5627 117.279 19.456 117.887 19.456C118.537 19.456 119.103 19.568 119.583 19.792C120.063 20.016 120.457 20.32 120.767 20.704C121.076 21.088 121.305 21.536 121.455 22.048C121.615 22.5493 121.695 23.088 121.695 23.664V24.336H116.143V24.544C116.143 25.152 116.313 25.6427 116.655 26.016C116.996 26.3787 117.503 26.56 118.175 26.56C118.687 26.56 119.103 26.4533 119.423 26.24C119.753 26.0267 120.047 25.7547 120.303 25.424L121.407 26.656C121.065 27.136 120.596 27.5147 119.999 27.792C119.412 28.0587 118.729 28.192 117.951 28.192ZM117.919 20.992C117.375 20.992 116.943 21.1733 116.623 21.536C116.303 21.8987 116.143 22.368 116.143 22.944V23.072H119.567V22.928C119.567 22.352 119.423 21.888 119.135 21.536C118.857 21.1733 118.452 20.992 117.919 20.992ZM123.497 28V19.648H125.545V21.04H125.625C125.795 20.592 126.062 20.2187 126.424 19.92C126.798 19.6107 127.31 19.456 127.961 19.456C128.825 19.456 129.486 19.7387 129.945 20.304C130.403 20.8693 130.633 21.6747 130.633 22.72V28H128.585V22.928C128.585 22.3307 128.478 21.8827 128.265 21.584C128.051 21.2853 127.699 21.136 127.209 21.136C126.995 21.136 126.787 21.168 126.585 21.232C126.393 21.2853 126.217 21.3707 126.057 21.488C125.907 21.5947 125.785 21.7333 125.689 21.904C125.593 22.064 125.545 22.256 125.545 22.48V28H123.497Z" fill="#1A1A1A"/>
</g>
<defs>
<filter id="filter0_d_6705_65065" x="8" y="81" width="360" height="282" filterUnits="userSpaceOnUse" color-interpolation-filters="sRGB">
<feFlood flood-opacity="0" result="BackgroundImageFix"/>
<feColorMatrix in="SourceAlpha" type="matrix" values="0 0 0 0 0 0 0 0 0 0 0 0 0 0 0 0 0 0 127 0" result="hardAlpha"/>
<feOffset dy="4"/>
<feGaussianBlur stdDeviation="4"/>
<feColorMatrix type="matrix" values="0 0 0 0 0 0 0 0 0 0 0 0 0 0 0 0 0 0 0.302 0"/>
<feBlend mode="normal" in2="BackgroundImageFix" result="effect1_dropShadow_6705_65065"/>
<feBlend mode="normal" in="SourceGraphic" in2="effect1_dropShadow_6705_65065" result="shape"/>
</filter>
<clipPath id="clip0_6705_65065">
<rect width="418" height="368" fill="white"/>
</clipPath>
</defs>
</svg>
