<svg width="419" height="257" viewBox="0 0 419 257" fill="none" xmlns="http://www.w3.org/2000/svg">
<rect width="418" height="257" fill="white"/>
<rect x="16" y="24" width="91" height="48" rx="24" fill="#454545"/>
<path d="M45.888 44.992V54H43.456V44.992H40.432V42.832H48.912V44.992H45.888ZM49.729 54V45.6H52.097V47.424H52.177C52.2197 47.1893 52.2943 46.9653 52.401 46.752C52.5077 46.528 52.6463 46.3307 52.817 46.16C52.9983 45.9893 53.2117 45.856 53.457 45.76C53.7023 45.6533 53.9903 45.6 54.321 45.6H54.737V47.808H54.145C53.4517 47.808 52.9343 47.8987 52.593 48.08C52.2623 48.2613 52.097 48.5973 52.097 49.088V54H49.729ZM57.3818 44.704C56.9018 44.704 56.5498 44.5973 56.3258 44.384C56.1124 44.16 56.0058 43.8773 56.0058 43.536V43.184C56.0058 42.8427 56.1124 42.5653 56.3258 42.352C56.5498 42.128 56.9018 42.016 57.3818 42.016C57.8618 42.016 58.2084 42.128 58.4218 42.352C58.6458 42.5653 58.7578 42.8427 58.7578 43.184V43.536C58.7578 43.8773 58.6458 44.16 58.4218 44.384C58.2084 44.5973 57.8618 44.704 57.3818 44.704ZM56.1978 45.6H58.5658V54H56.1978V45.6ZM60.7759 54V45.6H63.1439V47.024H63.2399C63.3892 46.5867 63.6505 46.208 64.0239 45.888C64.3972 45.568 64.9145 45.408 65.5759 45.408C66.4399 45.408 67.0905 45.696 67.5279 46.272C67.9759 46.848 68.1999 47.6693 68.1999 48.736V54H65.8319V48.928C65.8319 48.384 65.7465 47.984 65.5759 47.728C65.4052 47.4613 65.1012 47.328 64.6639 47.328C64.4719 47.328 64.2852 47.3547 64.1039 47.408C63.9225 47.4507 63.7572 47.5253 63.6079 47.632C63.4692 47.7387 63.3572 47.872 63.2719 48.032C63.1865 48.1813 63.1439 48.3573 63.1439 48.56V54H60.7759ZM74.4884 54V52.064H77.4964V44.576H77.3524L75.0804 47.552L73.5444 46.352L76.2164 42.832H79.8964V52.064H82.2644V54H74.4884Z" fill="white"/>
<rect x="123" y="24" width="89" height="48" rx="24" fill="#F5F5F5"/>
<path d="M152.248 44.016V54H150.904V44.016H147.352V42.832H155.8V44.016H152.248ZM156.798 54V45.744H158.078V47.264H158.158C158.307 46.8693 158.574 46.5173 158.958 46.208C159.342 45.8987 159.87 45.744 160.542 45.744H161.038V47.024H160.286C159.592 47.024 159.048 47.1573 158.654 47.424C158.27 47.68 158.078 48.0053 158.078 48.4V54H156.798ZM163.312 43.808C163.035 43.808 162.833 43.744 162.705 43.616C162.587 43.4773 162.529 43.3013 162.529 43.088V42.88C162.529 42.6667 162.587 42.496 162.705 42.368C162.833 42.2293 163.035 42.16 163.312 42.16C163.59 42.16 163.787 42.2293 163.905 42.368C164.033 42.496 164.097 42.6667 164.097 42.88V43.088C164.097 43.3013 164.033 43.4773 163.905 43.616C163.787 43.744 163.59 43.808 163.312 43.808ZM162.673 45.744H163.953V54H162.673V45.744ZM166.673 54V45.744H167.953V47.088H168.017C168.219 46.6187 168.502 46.2453 168.865 45.968C169.238 45.6907 169.734 45.552 170.353 45.552C171.206 45.552 171.878 45.8293 172.369 46.384C172.87 46.928 173.121 47.7013 173.121 48.704V54H171.841V48.928C171.841 47.4453 171.217 46.704 169.969 46.704C169.713 46.704 169.462 46.736 169.217 46.8C168.982 46.864 168.769 46.96 168.577 47.088C168.385 47.216 168.23 47.3813 168.113 47.584C168.006 47.776 167.953 48.0053 167.953 48.272V54H166.673ZM186.716 54H179.388V52.624L183.036 49.264C183.558 48.784 183.996 48.2773 184.348 47.744C184.7 47.2 184.876 46.656 184.876 46.112V45.92C184.876 45.3013 184.705 44.8 184.364 44.416C184.022 44.032 183.505 43.84 182.812 43.84C182.47 43.84 182.172 43.888 181.916 43.984C181.66 44.08 181.436 44.2133 181.244 44.384C181.062 44.5547 180.908 44.7573 180.78 44.992C180.662 45.216 180.566 45.4613 180.492 45.728L179.292 45.264C179.398 44.9333 179.542 44.6133 179.724 44.304C179.916 43.984 180.15 43.7013 180.428 43.456C180.716 43.2107 181.057 43.0133 181.452 42.864C181.857 42.7147 182.332 42.64 182.876 42.64C183.42 42.64 183.905 42.72 184.332 42.88C184.758 43.04 185.116 43.264 185.404 43.552C185.692 43.84 185.91 44.1813 186.06 44.576C186.22 44.9707 186.3 45.408 186.3 45.888C186.3 46.3253 186.236 46.7307 186.108 47.104C185.99 47.4773 185.825 47.8347 185.612 48.176C185.398 48.5067 185.137 48.832 184.828 49.152C184.529 49.472 184.204 49.792 183.852 50.112L180.844 52.816H186.716V54Z" fill="#1A1A1A"/>
<path d="M147 56H187.787V56.96H147V56Z" fill="#1A1A1A"/>
<rect x="228" y="24" width="89" height="48" rx="24" fill="#F5F5F5"/>
<path d="M257.248 44.016V54H255.904V44.016H252.352V42.832H260.8V44.016H257.248ZM261.798 54V45.744H263.078V47.264H263.158C263.307 46.8693 263.574 46.5173 263.958 46.208C264.342 45.8987 264.87 45.744 265.542 45.744H266.038V47.024H265.286C264.592 47.024 264.048 47.1573 263.654 47.424C263.27 47.68 263.078 48.0053 263.078 48.4V54H261.798ZM268.312 43.808C268.035 43.808 267.833 43.744 267.705 43.616C267.587 43.4773 267.529 43.3013 267.529 43.088V42.88C267.529 42.6667 267.587 42.496 267.705 42.368C267.833 42.2293 268.035 42.16 268.312 42.16C268.59 42.16 268.787 42.2293 268.905 42.368C269.033 42.496 269.097 42.6667 269.097 42.88V43.088C269.097 43.3013 269.033 43.4773 268.905 43.616C268.787 43.744 268.59 43.808 268.312 43.808ZM267.673 45.744H268.953V54H267.673V45.744ZM271.673 54V45.744H272.953V47.088H273.017C273.219 46.6187 273.502 46.2453 273.865 45.968C274.238 45.6907 274.734 45.552 275.353 45.552C276.206 45.552 276.878 45.8293 277.369 46.384C277.87 46.928 278.121 47.7013 278.121 48.704V54H276.841V48.928C276.841 47.4453 276.217 46.704 274.969 46.704C274.713 46.704 274.462 46.736 274.217 46.8C273.982 46.864 273.769 46.96 273.577 47.088C273.385 47.216 273.23 47.3813 273.113 47.584C273.006 47.776 272.953 48.0053 272.953 48.272V54H271.673ZM287.364 47.568C288.121 47.568 288.686 47.3973 289.06 47.056C289.444 46.704 289.636 46.256 289.636 45.712V45.6C289.636 45.0133 289.449 44.576 289.076 44.288C288.713 43.9893 288.233 43.84 287.636 43.84C287.06 43.84 286.59 43.968 286.228 44.224C285.865 44.4693 285.566 44.8053 285.332 45.232L284.34 44.464C284.478 44.24 284.644 44.0213 284.836 43.808C285.038 43.584 285.273 43.3867 285.539 43.216C285.806 43.0453 286.116 42.9067 286.468 42.8C286.82 42.6933 287.22 42.64 287.668 42.64C288.137 42.64 288.58 42.704 288.996 42.832C289.412 42.9493 289.769 43.1307 290.068 43.376C290.377 43.6107 290.617 43.904 290.788 44.256C290.969 44.608 291.06 45.008 291.06 45.456C291.06 45.8187 291.001 46.144 290.884 46.432C290.777 46.72 290.628 46.9707 290.436 47.184C290.244 47.3973 290.014 47.5787 289.748 47.728C289.492 47.8773 289.214 47.9893 288.916 48.064V48.128C289.214 48.192 289.502 48.2987 289.78 48.448C290.068 48.5867 290.318 48.7733 290.532 49.008C290.756 49.232 290.932 49.5093 291.06 49.84C291.198 50.16 291.267 50.528 291.267 50.944C291.267 51.424 291.177 51.8667 290.996 52.272C290.814 52.6667 290.558 53.008 290.228 53.296C289.897 53.5733 289.497 53.792 289.028 53.952C288.558 54.112 288.041 54.192 287.476 54.192C286.996 54.192 286.569 54.1387 286.196 54.032C285.822 53.9253 285.492 53.7813 285.204 53.6C284.916 53.4187 284.66 53.216 284.436 52.992C284.222 52.768 284.03 52.5333 283.86 52.288L284.868 51.52C285.006 51.744 285.156 51.9467 285.316 52.128C285.486 52.3093 285.673 52.464 285.876 52.592C286.078 52.72 286.308 52.8213 286.564 52.896C286.82 52.96 287.118 52.992 287.46 52.992C288.249 52.992 288.846 52.816 289.252 52.464C289.657 52.1013 289.86 51.5893 289.86 50.928V50.8C289.86 50.1387 289.657 49.632 289.252 49.28C288.846 48.9173 288.249 48.736 287.46 48.736H286.148V47.568H287.364Z" fill="#1A1A1A"/>
<path d="M252 56H292.787V56.96H252V56Z" fill="#1A1A1A"/>
<mask id="path-8-outside-1_8777_34157" maskUnits="userSpaceOnUse" x="15" y="87" width="388" height="146" fill="black">
<rect fill="white" x="15" y="87" width="388" height="146"/>
<path d="M16 88H402V232H16V88Z"/>
</mask>
<path d="M16 88H402V232H16V88Z" fill="white"/>
<path d="M16 88V87H15V88H16ZM402 88H403V87H402V88ZM402 232V233H403V232H402ZM16 232H15V233H16V232ZM16 89H402V87H16V89ZM401 88V232H403V88H401ZM402 231H16V233H402V231ZM17 232V88H15V232H17Z" fill="#747474" mask="url(#path-8-outside-1_8777_34157)"/>
<path d="M31.4019 104H386.599V216H31.4019V104Z" fill="#DCDCDC"/>
</svg>
