<svg width="418" height="387" viewBox="0 0 418 387" fill="none" xmlns="http://www.w3.org/2000/svg">
<g clip-path="url(#clip0_5010_48920)">
<rect width="418" height="387" fill="white"/>
<path d="M18.46 148V127.06H22.42V144.49H30.67V148H18.46ZM39.7816 148.36C38.6616 148.36 37.6516 148.17 36.7516 147.79C35.8716 147.41 35.1116 146.86 34.4716 146.14C33.8516 145.42 33.3716 144.56 33.0316 143.56C32.6916 142.54 32.5216 141.4 32.5216 140.14C32.5216 138.88 32.6916 137.75 33.0316 136.75C33.3716 135.75 33.8516 134.9 34.4716 134.2C35.1116 133.48 35.8716 132.93 36.7516 132.55C37.6516 132.17 38.6616 131.98 39.7816 131.98C40.9016 131.98 41.9116 132.17 42.8116 132.55C43.7116 132.93 44.4716 133.48 45.0916 134.2C45.7316 134.9 46.2216 135.75 46.5616 136.75C46.9016 137.75 47.0716 138.88 47.0716 140.14C47.0716 141.4 46.9016 142.54 46.5616 143.56C46.2216 144.56 45.7316 145.42 45.0916 146.14C44.4716 146.86 43.7116 147.41 42.8116 147.79C41.9116 148.17 40.9016 148.36 39.7816 148.36ZM39.7816 145.27C40.8016 145.27 41.6016 144.96 42.1816 144.34C42.7616 143.72 43.0516 142.81 43.0516 141.61V138.7C43.0516 137.52 42.7616 136.62 42.1816 136C41.6016 135.38 40.8016 135.07 39.7816 135.07C38.7816 135.07 37.9916 135.38 37.4116 136C36.8316 136.62 36.5416 137.52 36.5416 138.7V141.61C36.5416 142.81 36.8316 143.72 37.4116 144.34C37.9916 144.96 38.7816 145.27 39.7816 145.27ZM50.4759 148V132.34H54.3159V135.58H54.4659C54.5659 135.16 54.7159 134.76 54.9159 134.38C55.1359 133.98 55.4159 133.63 55.7559 133.33C56.0959 133.03 56.4959 132.79 56.9559 132.61C57.4359 132.43 57.9859 132.34 58.6059 132.34H59.4459V135.97H58.2459C56.9459 135.97 55.9659 136.16 55.3059 136.54C54.6459 136.92 54.3159 137.54 54.3159 138.4V148H50.4759ZM68.4367 148.36C67.2767 148.36 66.2367 148.17 65.3167 147.79C64.4167 147.39 63.6467 146.84 63.0067 146.14C62.3867 145.42 61.9067 144.56 61.5667 143.56C61.2267 142.54 61.0567 141.4 61.0567 140.14C61.0567 138.9 61.2167 137.78 61.5367 136.78C61.8767 135.78 62.3567 134.93 62.9767 134.23C63.5967 133.51 64.3567 132.96 65.2567 132.58C66.1567 132.18 67.1767 131.98 68.3167 131.98C69.5367 131.98 70.5967 132.19 71.4967 132.61C72.3967 133.03 73.1367 133.6 73.7167 134.32C74.2967 135.04 74.7267 135.88 75.0067 136.84C75.3067 137.78 75.4567 138.79 75.4567 139.87V141.13H65.0467V141.52C65.0467 142.66 65.3667 143.58 66.0067 144.28C66.6467 144.96 67.5967 145.3 68.8567 145.3C69.8167 145.3 70.5967 145.1 71.1967 144.7C71.8167 144.3 72.3667 143.79 72.8467 143.17L74.9167 145.48C74.2767 146.38 73.3967 147.09 72.2767 147.61C71.1767 148.11 69.8967 148.36 68.4367 148.36ZM68.3767 134.86C67.3567 134.86 66.5467 135.2 65.9467 135.88C65.3467 136.56 65.0467 137.44 65.0467 138.52V138.76H71.4667V138.49C71.4667 137.41 71.1967 136.54 70.6567 135.88C70.1367 135.2 69.3767 134.86 68.3767 134.86ZM78.8352 148V132.34H82.6752V134.95H82.8252C83.1252 134.13 83.6052 133.43 84.2652 132.85C84.9252 132.27 85.8452 131.98 87.0252 131.98C88.1052 131.98 89.0352 132.24 89.8152 132.76C90.5952 133.28 91.1752 134.07 91.5552 135.13H91.6152C91.8952 134.25 92.4452 133.51 93.2652 132.91C94.1052 132.29 95.1552 131.98 96.4152 131.98C97.9552 131.98 99.1352 132.51 99.9552 133.57C100.795 134.63 101.215 136.14 101.215 138.1V148H97.3752V138.49C97.3752 136.25 96.5352 135.13 94.8552 135.13C94.4752 135.13 94.1052 135.19 93.7452 135.31C93.4052 135.41 93.0952 135.57 92.8152 135.79C92.5552 135.99 92.3452 136.25 92.1852 136.57C92.0252 136.87 91.9452 137.23 91.9452 137.65V148H88.1052V138.49C88.1052 136.25 87.2652 135.13 85.5852 135.13C85.2252 135.13 84.8652 135.19 84.5052 135.31C84.1652 135.41 83.8552 135.57 83.5752 135.79C83.3152 135.99 83.0952 136.25 82.9152 136.57C82.7552 136.87 82.6752 137.23 82.6752 137.65V148H78.8352ZM114.476 130.06C113.676 130.06 113.096 129.88 112.736 129.52C112.396 129.16 112.226 128.7 112.226 128.14V127.54C112.226 126.98 112.396 126.52 112.736 126.16C113.096 125.8 113.676 125.62 114.476 125.62C115.256 125.62 115.826 125.8 116.186 126.16C116.546 126.52 116.726 126.98 116.726 127.54V128.14C116.726 128.7 116.546 129.16 116.186 129.52C115.826 129.88 115.256 130.06 114.476 130.06ZM112.556 132.34H116.396V148H112.556V132.34ZM120.847 132.34H124.687V134.92H124.807C125.087 134.02 125.617 133.31 126.397 132.79C127.177 132.25 128.087 131.98 129.127 131.98C131.127 131.98 132.647 132.69 133.687 134.11C134.747 135.51 135.277 137.52 135.277 140.14C135.277 142.78 134.747 144.81 133.687 146.23C132.647 147.65 131.127 148.36 129.127 148.36C128.087 148.36 127.177 148.09 126.397 147.55C125.637 147.01 125.107 146.29 124.807 145.39H124.687V154H120.847V132.34ZM127.897 145.18C128.897 145.18 129.707 144.85 130.327 144.19C130.947 143.53 131.257 142.64 131.257 141.52V138.82C131.257 137.7 130.947 136.81 130.327 136.15C129.707 135.47 128.897 135.13 127.897 135.13C126.977 135.13 126.207 135.36 125.587 135.82C124.987 136.28 124.687 136.89 124.687 137.65V142.63C124.687 143.45 124.987 144.08 125.587 144.52C126.207 144.96 126.977 145.18 127.897 145.18ZM143.965 148.36C142.465 148.36 141.205 148.11 140.185 147.61C139.165 147.09 138.265 146.38 137.485 145.48L139.825 143.2C140.405 143.86 141.035 144.38 141.715 144.76C142.415 145.14 143.215 145.33 144.115 145.33C145.035 145.33 145.695 145.17 146.095 144.85C146.515 144.53 146.725 144.09 146.725 143.53C146.725 143.07 146.575 142.71 146.275 142.45C145.995 142.17 145.505 141.98 144.805 141.88L143.245 141.67C141.545 141.45 140.245 140.97 139.345 140.23C138.465 139.47 138.025 138.37 138.025 136.93C138.025 136.17 138.165 135.49 138.445 134.89C138.725 134.27 139.125 133.75 139.645 133.33C140.165 132.89 140.785 132.56 141.505 132.34C142.245 132.1 143.065 131.98 143.965 131.98C144.725 131.98 145.395 132.04 145.975 132.16C146.575 132.26 147.115 132.42 147.595 132.64C148.075 132.84 148.515 133.1 148.915 133.42C149.315 133.72 149.705 134.06 150.085 134.44L147.835 136.69C147.375 136.21 146.825 135.81 146.185 135.49C145.545 135.17 144.845 135.01 144.085 135.01C143.245 135.01 142.635 135.16 142.255 135.46C141.895 135.76 141.715 136.15 141.715 136.63C141.715 137.15 141.865 137.55 142.165 137.83C142.485 138.09 143.015 138.28 143.755 138.4L145.345 138.61C148.725 139.09 150.415 140.63 150.415 143.23C150.415 143.99 150.255 144.69 149.935 145.33C149.635 145.95 149.205 146.49 148.645 146.95C148.085 147.39 147.405 147.74 146.605 148C145.825 148.24 144.945 148.36 143.965 148.36ZM163.166 145.39H163.016C162.876 145.79 162.686 146.17 162.446 146.53C162.226 146.87 161.936 147.18 161.576 147.46C161.236 147.74 160.816 147.96 160.316 148.12C159.836 148.28 159.276 148.36 158.636 148.36C157.016 148.36 155.776 147.83 154.916 146.77C154.056 145.71 153.626 144.2 153.626 142.24V132.34H157.466V141.85C157.466 142.93 157.676 143.76 158.096 144.34C158.516 144.9 159.186 145.18 160.106 145.18C160.486 145.18 160.856 145.13 161.216 145.03C161.596 144.93 161.926 144.78 162.206 144.58C162.486 144.36 162.716 144.1 162.896 143.8C163.076 143.48 163.166 143.11 163.166 142.69V132.34H167.006V148H163.166V145.39ZM171.443 148V132.34H175.283V134.95H175.433C175.733 134.13 176.213 133.43 176.873 132.85C177.533 132.27 178.453 131.98 179.633 131.98C180.713 131.98 181.643 132.24 182.423 132.76C183.203 133.28 183.783 134.07 184.163 135.13H184.223C184.503 134.25 185.053 133.51 185.873 132.91C186.713 132.29 187.763 131.98 189.023 131.98C190.563 131.98 191.743 132.51 192.563 133.57C193.403 134.63 193.823 136.14 193.823 138.1V148H189.983V138.49C189.983 136.25 189.143 135.13 187.463 135.13C187.083 135.13 186.713 135.19 186.353 135.31C186.013 135.41 185.703 135.57 185.423 135.79C185.163 135.99 184.953 136.25 184.793 136.57C184.633 136.87 184.553 137.23 184.553 137.65V148H180.713V138.49C180.713 136.25 179.873 135.13 178.193 135.13C177.833 135.13 177.473 135.19 177.113 135.31C176.773 135.41 176.463 135.57 176.183 135.79C175.923 135.99 175.703 136.25 175.523 136.57C175.363 136.87 175.283 137.23 175.283 137.65V148H171.443Z" fill="#1A1A1A"/>
<rect x="16.5" y="215.5" width="319" height="39" rx="3.5" stroke="#747474"/>
<path d="M36.416 234.512L34.832 236.272V240H33.488V228.832H34.832V234.768H34.88L36.48 232.832L39.856 228.832H41.504L37.344 233.616L41.792 240H40.128L36.416 234.512ZM44.1406 229.808C43.8633 229.808 43.6606 229.744 43.5326 229.616C43.4153 229.477 43.3566 229.301 43.3566 229.088V228.88C43.3566 228.667 43.4153 228.496 43.5326 228.368C43.6606 228.229 43.8633 228.16 44.1406 228.16C44.418 228.16 44.6153 228.229 44.7326 228.368C44.8606 228.496 44.9246 228.667 44.9246 228.88V229.088C44.9246 229.301 44.8606 229.477 44.7326 229.616C44.6153 229.744 44.418 229.808 44.1406 229.808ZM43.5006 231.744H44.7806V240H43.5006V231.744ZM47.5006 240V231.744H48.7806V233.264H48.8606C49.01 232.869 49.2766 232.517 49.6606 232.208C50.0446 231.899 50.5726 231.744 51.2446 231.744H51.7406V233.024H50.9886C50.2953 233.024 49.7513 233.157 49.3566 233.424C48.9726 233.68 48.7806 234.005 48.7806 234.4V240H47.5006ZM55.8556 240.192C55.0876 240.192 54.4423 240.048 53.9196 239.76C53.4076 239.461 52.965 239.067 52.5916 238.576L53.5036 237.84C53.8236 238.245 54.181 238.56 54.5756 238.784C54.9703 238.997 55.429 239.104 55.9516 239.104C56.4956 239.104 56.917 238.987 57.2156 238.752C57.525 238.517 57.6796 238.187 57.6796 237.76C57.6796 237.44 57.573 237.168 57.3596 236.944C57.157 236.709 56.7836 236.549 56.2396 236.464L55.5836 236.368C55.1996 236.315 54.8476 236.235 54.5276 236.128C54.2076 236.011 53.925 235.861 53.6796 235.68C53.445 235.488 53.2583 235.253 53.1196 234.976C52.9916 234.699 52.9276 234.368 52.9276 233.984C52.9276 233.579 53.0023 233.227 53.1516 232.928C53.301 232.619 53.5036 232.363 53.7596 232.16C54.0263 231.957 54.341 231.808 54.7036 231.712C55.0663 231.605 55.4556 231.552 55.8716 231.552C56.5436 231.552 57.1036 231.669 57.5516 231.904C58.0103 232.139 58.4103 232.464 58.7516 232.88L57.9036 233.648C57.7223 233.392 57.4556 233.163 57.1036 232.96C56.7516 232.747 56.309 232.64 55.7756 232.64C55.2423 232.64 54.837 232.757 54.5596 232.992C54.293 233.216 54.1596 233.525 54.1596 233.92C54.1596 234.325 54.293 234.619 54.5596 234.8C54.837 234.981 55.2316 235.115 55.7436 235.2L56.3836 235.296C57.301 235.435 57.9516 235.701 58.3356 236.096C58.7196 236.48 58.9116 236.987 58.9116 237.616C58.9116 238.416 58.6396 239.045 58.0956 239.504C57.5516 239.963 56.805 240.192 55.8556 240.192ZM62.8871 240C62.4391 240 62.0978 239.877 61.8631 239.632C61.6391 239.376 61.5271 239.045 61.5271 238.64V232.864H60.1671V231.744H60.9351C61.2125 231.744 61.3991 231.691 61.4951 231.584C61.6018 231.467 61.6551 231.269 61.6551 230.992V229.456H62.8071V231.744H64.6151V232.864H62.8071V238.88H64.4871V240H62.8871ZM69.714 240.192C69.1487 240.192 68.6367 240.091 68.178 239.888C67.73 239.685 67.3407 239.397 67.01 239.024C66.69 238.64 66.4393 238.187 66.258 237.664C66.0873 237.131 66.002 236.533 66.002 235.872C66.002 235.221 66.0873 234.629 66.258 234.096C66.4393 233.563 66.69 233.109 67.01 232.736C67.3407 232.352 67.73 232.059 68.178 231.856C68.6367 231.653 69.1487 231.552 69.714 231.552C70.2687 231.552 70.7647 231.653 71.202 231.856C71.6393 232.059 72.0127 232.341 72.322 232.704C72.6313 233.056 72.866 233.477 73.026 233.968C73.1967 234.459 73.282 234.997 73.282 235.584V236.192H67.346V236.576C67.346 236.928 67.3993 237.259 67.506 237.568C67.6233 237.867 67.7833 238.128 67.986 238.352C68.1993 238.576 68.4553 238.752 68.754 238.88C69.0633 239.008 69.41 239.072 69.794 239.072C70.3167 239.072 70.77 238.949 71.154 238.704C71.5487 238.459 71.8527 238.107 72.066 237.648L72.978 238.304C72.7113 238.869 72.2953 239.328 71.73 239.68C71.1647 240.021 70.4927 240.192 69.714 240.192ZM69.714 232.624C69.362 232.624 69.042 232.688 68.754 232.816C68.466 232.933 68.2153 233.104 68.002 233.328C67.7993 233.552 67.6393 233.819 67.522 234.128C67.4047 234.427 67.346 234.757 67.346 235.12V235.232H71.906V235.056C71.906 234.32 71.7033 233.733 71.298 233.296C70.9033 232.848 70.3753 232.624 69.714 232.624ZM75.3913 240V231.744H76.6713V233.088H76.7353C76.9379 232.619 77.2206 232.245 77.5833 231.968C77.9566 231.691 78.4526 231.552 79.0713 231.552C79.9246 231.552 80.5966 231.829 81.0873 232.384C81.5886 232.928 81.8393 233.701 81.8393 234.704V240H80.5593V234.928C80.5593 233.445 79.9353 232.704 78.6873 232.704C78.4313 232.704 78.1806 232.736 77.9353 232.8C77.7006 232.864 77.4873 232.96 77.2953 233.088C77.1033 233.216 76.9486 233.381 76.8313 233.584C76.7246 233.776 76.6713 234.005 76.6713 234.272V240H75.3913ZM97.0983 230.592H97.0183L96.0743 232.464L93.4023 237.328L90.7303 232.464L89.7863 230.592H89.7063V240H88.3943V228.832H90.1863L93.3863 234.848H93.4663L96.6823 228.832H98.4103V240H97.0983V230.592ZM100.451 240.096L101.523 238.752C100.979 237.995 100.707 237.035 100.707 235.872C100.707 235.221 100.797 234.629 100.979 234.096C101.16 233.563 101.411 233.109 101.731 232.736C102.061 232.352 102.456 232.059 102.915 231.856C103.373 231.653 103.88 231.552 104.435 231.552C104.883 231.552 105.293 231.621 105.667 231.76C106.051 231.899 106.397 232.091 106.707 232.336L107.699 231.104L108.419 231.648L107.347 233.008C107.603 233.371 107.8 233.797 107.939 234.288C108.088 234.768 108.163 235.296 108.163 235.872C108.163 236.533 108.072 237.131 107.891 237.664C107.709 238.187 107.453 238.64 107.123 239.024C106.792 239.397 106.397 239.685 105.939 239.888C105.491 240.091 104.989 240.192 104.435 240.192C103.549 240.192 102.792 239.936 102.163 239.424L101.171 240.64L100.451 240.096ZM104.435 239.056C105.128 239.056 105.693 238.843 106.131 238.416C106.568 237.989 106.787 237.339 106.787 236.464V235.28C106.787 235.024 106.765 234.789 106.723 234.576C106.68 234.363 106.621 234.165 106.547 233.984L102.867 238.528C103.261 238.88 103.784 239.056 104.435 239.056ZM102.083 236.464C102.083 236.976 102.163 237.413 102.323 237.776L106.003 233.216C105.587 232.864 105.064 232.688 104.435 232.688C103.741 232.688 103.176 232.901 102.739 233.328C102.301 233.755 102.083 234.405 102.083 235.28V236.464ZM110.344 240V231.744H111.624V233.088H111.688C111.891 232.619 112.174 232.245 112.536 231.968C112.91 231.691 113.406 231.552 114.024 231.552C114.878 231.552 115.55 231.829 116.04 232.384C116.542 232.928 116.792 233.701 116.792 234.704V240H115.512V234.928C115.512 233.445 114.888 232.704 113.64 232.704C113.384 232.704 113.134 232.736 112.888 232.8C112.654 232.864 112.44 232.96 112.248 233.088C112.056 233.216 111.902 233.381 111.784 233.584C111.678 233.776 111.624 234.005 111.624 234.272V240H110.344ZM121.918 240.192C121.15 240.192 120.505 240.048 119.982 239.76C119.47 239.461 119.027 239.067 118.654 238.576L119.566 237.84C119.886 238.245 120.243 238.56 120.638 238.784C121.033 238.997 121.491 239.104 122.014 239.104C122.558 239.104 122.979 238.987 123.278 238.752C123.587 238.517 123.742 238.187 123.742 237.76C123.742 237.44 123.635 237.168 123.422 236.944C123.219 236.709 122.846 236.549 122.302 236.464L121.646 236.368C121.262 236.315 120.91 236.235 120.59 236.128C120.27 236.011 119.987 235.861 119.742 235.68C119.507 235.488 119.321 235.253 119.182 234.976C119.054 234.699 118.99 234.368 118.99 233.984C118.99 233.579 119.065 233.227 119.214 232.928C119.363 232.619 119.566 232.363 119.822 232.16C120.089 231.957 120.403 231.808 120.766 231.712C121.129 231.605 121.518 231.552 121.934 231.552C122.606 231.552 123.166 231.669 123.614 231.904C124.073 232.139 124.473 232.464 124.814 232.88L123.966 233.648C123.785 233.392 123.518 233.163 123.166 232.96C122.814 232.747 122.371 232.64 121.838 232.64C121.305 232.64 120.899 232.757 120.622 232.992C120.355 233.216 120.222 233.525 120.222 233.92C120.222 234.325 120.355 234.619 120.622 234.8C120.899 234.981 121.294 235.115 121.806 235.2L122.446 235.296C123.363 235.435 124.014 235.701 124.398 236.096C124.782 236.48 124.974 236.987 124.974 237.616C124.974 238.416 124.702 239.045 124.158 239.504C123.614 239.963 122.867 240.192 121.918 240.192ZM128.95 240C128.502 240 128.16 239.877 127.926 239.632C127.702 239.376 127.59 239.045 127.59 238.64V232.864H126.23V231.744H126.998C127.275 231.744 127.462 231.691 127.558 231.584C127.664 231.467 127.718 231.269 127.718 230.992V229.456H128.87V231.744H130.678V232.864H128.87V238.88H130.55V240H128.95ZM135.777 240.192C135.211 240.192 134.699 240.091 134.241 239.888C133.793 239.685 133.403 239.397 133.073 239.024C132.753 238.64 132.502 238.187 132.321 237.664C132.15 237.131 132.065 236.533 132.065 235.872C132.065 235.221 132.15 234.629 132.321 234.096C132.502 233.563 132.753 233.109 133.073 232.736C133.403 232.352 133.793 232.059 134.241 231.856C134.699 231.653 135.211 231.552 135.777 231.552C136.331 231.552 136.827 231.653 137.265 231.856C137.702 232.059 138.075 232.341 138.385 232.704C138.694 233.056 138.929 233.477 139.089 233.968C139.259 234.459 139.345 234.997 139.345 235.584V236.192H133.409V236.576C133.409 236.928 133.462 237.259 133.569 237.568C133.686 237.867 133.846 238.128 134.049 238.352C134.262 238.576 134.518 238.752 134.817 238.88C135.126 239.008 135.473 239.072 135.857 239.072C136.379 239.072 136.833 238.949 137.217 238.704C137.611 238.459 137.915 238.107 138.129 237.648L139.041 238.304C138.774 238.869 138.358 239.328 137.793 239.68C137.227 240.021 136.555 240.192 135.777 240.192ZM135.777 232.624C135.425 232.624 135.105 232.688 134.817 232.816C134.529 232.933 134.278 233.104 134.065 233.328C133.862 233.552 133.702 233.819 133.585 234.128C133.467 234.427 133.409 234.757 133.409 235.12V235.232H137.969V235.056C137.969 234.32 137.766 233.733 137.361 233.296C136.966 232.848 136.438 232.624 135.777 232.624ZM141.454 240V231.744H142.734V233.264H142.814C142.963 232.869 143.23 232.517 143.614 232.208C143.998 231.899 144.526 231.744 145.198 231.744H145.694V233.024H144.942C144.248 233.024 143.704 233.157 143.31 233.424C142.926 233.68 142.734 234.005 142.734 234.4V240H141.454ZM156.502 228.832V237.104C156.502 237.573 156.422 238 156.262 238.384C156.113 238.768 155.894 239.093 155.606 239.36C155.329 239.627 154.993 239.835 154.598 239.984C154.203 240.123 153.771 240.192 153.302 240.192C152.438 240.192 151.739 239.963 151.206 239.504C150.683 239.035 150.347 238.416 150.198 237.648L151.414 237.36C151.521 237.84 151.723 238.235 152.022 238.544C152.321 238.843 152.758 238.992 153.334 238.992C153.91 238.992 154.358 238.816 154.678 238.464C154.998 238.112 155.158 237.579 155.158 236.864V230.016H151.318V228.832H156.502ZM162.37 240.192C161.805 240.192 161.293 240.091 160.834 239.888C160.386 239.685 159.997 239.397 159.666 239.024C159.346 238.64 159.096 238.187 158.914 237.664C158.744 237.131 158.658 236.533 158.658 235.872C158.658 235.221 158.744 234.629 158.914 234.096C159.096 233.563 159.346 233.109 159.666 232.736C159.997 232.352 160.386 232.059 160.834 231.856C161.293 231.653 161.805 231.552 162.37 231.552C162.925 231.552 163.421 231.653 163.858 231.856C164.296 232.059 164.669 232.341 164.978 232.704C165.288 233.056 165.522 233.477 165.682 233.968C165.853 234.459 165.938 234.997 165.938 235.584V236.192H160.002V236.576C160.002 236.928 160.056 237.259 160.162 237.568C160.28 237.867 160.44 238.128 160.642 238.352C160.856 238.576 161.112 238.752 161.41 238.88C161.72 239.008 162.066 239.072 162.45 239.072C162.973 239.072 163.426 238.949 163.81 238.704C164.205 238.459 164.509 238.107 164.722 237.648L165.634 238.304C165.368 238.869 164.952 239.328 164.386 239.68C163.821 240.021 163.149 240.192 162.37 240.192ZM162.37 232.624C162.018 232.624 161.698 232.688 161.41 232.816C161.122 232.933 160.872 233.104 160.658 233.328C160.456 233.552 160.296 233.819 160.178 234.128C160.061 234.427 160.002 234.757 160.002 235.12V235.232H164.562V235.056C164.562 234.32 164.36 233.733 163.954 233.296C163.56 232.848 163.032 232.624 162.37 232.624ZM168.048 240V231.744H169.328V233.088H169.392C169.594 232.619 169.877 232.245 170.24 231.968C170.613 231.691 171.109 231.552 171.728 231.552C172.581 231.552 173.253 231.829 173.744 232.384C174.245 232.928 174.496 233.701 174.496 234.704V240H173.216V234.928C173.216 233.445 172.592 232.704 171.344 232.704C171.088 232.704 170.837 232.736 170.592 232.8C170.357 232.864 170.144 232.96 169.952 233.088C169.76 233.216 169.605 233.381 169.488 233.584C169.381 233.776 169.328 234.005 169.328 234.272V240H168.048ZM179.621 240.192C178.853 240.192 178.208 240.048 177.685 239.76C177.173 239.461 176.731 239.067 176.357 238.576L177.269 237.84C177.589 238.245 177.947 238.56 178.341 238.784C178.736 238.997 179.195 239.104 179.717 239.104C180.261 239.104 180.683 238.987 180.981 238.752C181.291 238.517 181.445 238.187 181.445 237.76C181.445 237.44 181.339 237.168 181.125 236.944C180.923 236.709 180.549 236.549 180.005 236.464L179.349 236.368C178.965 236.315 178.613 236.235 178.293 236.128C177.973 236.011 177.691 235.861 177.445 235.68C177.211 235.488 177.024 235.253 176.885 234.976C176.757 234.699 176.693 234.368 176.693 233.984C176.693 233.579 176.768 233.227 176.917 232.928C177.067 232.619 177.269 232.363 177.525 232.16C177.792 231.957 178.107 231.808 178.469 231.712C178.832 231.605 179.221 231.552 179.637 231.552C180.309 231.552 180.869 231.669 181.317 231.904C181.776 232.139 182.176 232.464 182.517 232.88L181.669 233.648C181.488 233.392 181.221 233.163 180.869 232.96C180.517 232.747 180.075 232.64 179.541 232.64C179.008 232.64 178.603 232.757 178.325 232.992C178.059 233.216 177.925 233.525 177.925 233.92C177.925 234.325 178.059 234.619 178.325 234.8C178.603 234.981 178.997 235.115 179.509 235.2L180.149 235.296C181.067 235.435 181.717 235.701 182.101 236.096C182.485 236.48 182.677 236.987 182.677 237.616C182.677 238.416 182.405 239.045 181.861 239.504C181.317 239.963 180.571 240.192 179.621 240.192ZM188.042 240.192C187.477 240.192 186.965 240.091 186.506 239.888C186.058 239.685 185.669 239.397 185.338 239.024C185.018 238.64 184.767 238.187 184.586 237.664C184.415 237.131 184.33 236.533 184.33 235.872C184.33 235.221 184.415 234.629 184.586 234.096C184.767 233.563 185.018 233.109 185.338 232.736C185.669 232.352 186.058 232.059 186.506 231.856C186.965 231.653 187.477 231.552 188.042 231.552C188.597 231.552 189.093 231.653 189.53 231.856C189.967 232.059 190.341 232.341 190.65 232.704C190.959 233.056 191.194 233.477 191.354 233.968C191.525 234.459 191.61 234.997 191.61 235.584V236.192H185.674V236.576C185.674 236.928 185.727 237.259 185.834 237.568C185.951 237.867 186.111 238.128 186.314 238.352C186.527 238.576 186.783 238.752 187.082 238.88C187.391 239.008 187.738 239.072 188.122 239.072C188.645 239.072 189.098 238.949 189.482 238.704C189.877 238.459 190.181 238.107 190.394 237.648L191.306 238.304C191.039 238.869 190.623 239.328 190.058 239.68C189.493 240.021 188.821 240.192 188.042 240.192ZM188.042 232.624C187.69 232.624 187.37 232.688 187.082 232.816C186.794 232.933 186.543 233.104 186.33 233.328C186.127 233.552 185.967 233.819 185.85 234.128C185.733 234.427 185.674 234.757 185.674 235.12V235.232H190.234V235.056C190.234 234.32 190.031 233.733 189.626 233.296C189.231 232.848 188.703 232.624 188.042 232.624ZM193.719 240V231.744H194.999V233.088H195.063C195.266 232.619 195.549 232.245 195.911 231.968C196.285 231.691 196.781 231.552 197.399 231.552C198.253 231.552 198.925 231.829 199.415 232.384C199.917 232.928 200.167 233.701 200.167 234.704V240H198.887V234.928C198.887 233.445 198.263 232.704 197.015 232.704C196.759 232.704 196.509 232.736 196.263 232.8C196.029 232.864 195.815 232.96 195.623 233.088C195.431 233.216 195.277 233.381 195.159 233.584C195.053 233.776 194.999 234.005 194.999 234.272V240H193.719Z" fill="#1A1A1A"/>
<path d="M20.512 196.272L19.36 193.952H19.312V202H17.312V190.832H19.632L22.992 196.56L24.144 198.88H24.192V190.832H26.192V202H23.872L20.512 196.272ZM34.828 202C34.38 202 34.0227 201.872 33.756 201.616C33.5 201.349 33.34 200.997 33.276 200.56H33.18C33.0413 201.104 32.7587 201.515 32.332 201.792C31.9053 202.059 31.3773 202.192 30.748 202.192C29.8947 202.192 29.2387 201.968 28.78 201.52C28.3213 201.072 28.092 200.475 28.092 199.728C28.092 198.864 28.4013 198.224 29.02 197.808C29.6387 197.381 30.5187 197.168 31.66 197.168H33.084V196.56C33.084 196.091 32.9613 195.728 32.716 195.472C32.4707 195.216 32.076 195.088 31.532 195.088C31.052 195.088 30.6627 195.195 30.364 195.408C30.076 195.611 29.8307 195.856 29.628 196.144L28.412 195.056C28.7213 194.576 29.132 194.192 29.644 193.904C30.156 193.605 30.8333 193.456 31.676 193.456C32.8067 193.456 33.6653 193.712 34.252 194.224C34.8387 194.736 35.132 195.472 35.132 196.432V200.368H35.964V202H34.828ZM31.436 200.704C31.8947 200.704 32.284 200.603 32.604 200.4C32.924 200.197 33.084 199.899 33.084 199.504V198.4H31.772C30.7053 198.4 30.172 198.741 30.172 199.424V199.696C30.172 200.037 30.2787 200.293 30.492 200.464C30.716 200.624 31.0307 200.704 31.436 200.704ZM39.2729 202L36.4889 193.648H38.5049L39.6729 197.248L40.4889 200.224H40.6009L41.4169 197.248L42.5529 193.648H44.5049L41.7049 202H39.2729ZM45.8715 202V193.648H47.9195V195.04H47.9995C48.1702 194.592 48.4368 194.219 48.7995 193.92C49.1728 193.611 49.6848 193.456 50.3355 193.456C51.1995 193.456 51.8608 193.739 52.3195 194.304C52.7782 194.869 53.0075 195.675 53.0075 196.72V202H50.9595V196.928C50.9595 196.331 50.8528 195.883 50.6395 195.584C50.4262 195.285 50.0742 195.136 49.5835 195.136C49.3702 195.136 49.1622 195.168 48.9595 195.232C48.7675 195.285 48.5915 195.371 48.4315 195.488C48.2822 195.595 48.1595 195.733 48.0635 195.904C47.9675 196.064 47.9195 196.256 47.9195 196.48V202H45.8715Z" fill="#1A1A1A"/>
<rect width="378" height="88" transform="translate(16 16)" fill="#FFE0E0"/>
<path d="M24 16H16V104H24V16Z" fill="#CC0000"/>
<path d="M41.312 38.832H45.376C46.1013 38.832 46.7573 38.9493 47.344 39.184C47.9413 39.4187 48.448 39.7707 48.864 40.24C49.2907 40.6987 49.616 41.28 49.84 41.984C50.0747 42.6773 50.192 43.488 50.192 44.416C50.192 45.344 50.0747 46.16 49.84 46.864C49.616 47.5573 49.2907 48.1387 48.864 48.608C48.448 49.0667 47.9413 49.4133 47.344 49.648C46.7573 49.8827 46.1013 50 45.376 50H41.312V38.832ZM45.376 48.128C46.1653 48.128 46.7893 47.8987 47.248 47.44C47.7173 46.9707 47.952 46.256 47.952 45.296V43.536C47.952 42.576 47.7173 41.8667 47.248 41.408C46.7893 40.9387 46.1653 40.704 45.376 40.704H43.424V48.128H45.376ZM55.5913 50.192C54.9726 50.192 54.4179 50.0907 53.9273 49.888C53.4473 49.6747 53.0366 49.3813 52.6953 49.008C52.3646 48.624 52.1086 48.1653 51.9273 47.632C51.7459 47.088 51.6553 46.48 51.6553 45.808C51.6553 45.1467 51.7406 44.5493 51.9113 44.016C52.0926 43.4827 52.3486 43.0293 52.6793 42.656C53.0099 42.272 53.4153 41.9787 53.8953 41.776C54.3753 41.5627 54.9193 41.456 55.5273 41.456C56.1779 41.456 56.7433 41.568 57.2233 41.792C57.7033 42.016 58.0979 42.32 58.4073 42.704C58.7166 43.088 58.9459 43.536 59.0953 44.048C59.2553 44.5493 59.3353 45.088 59.3353 45.664V46.336H53.7833V46.544C53.7833 47.152 53.9539 47.6427 54.2953 48.016C54.6366 48.3787 55.1433 48.56 55.8153 48.56C56.3273 48.56 56.7433 48.4533 57.0633 48.24C57.3939 48.0267 57.6873 47.7547 57.9433 47.424L59.0473 48.656C58.7059 49.136 58.2366 49.5147 57.6393 49.792C57.0526 50.0587 56.3699 50.192 55.5913 50.192ZM55.5593 42.992C55.0153 42.992 54.5833 43.1733 54.2633 43.536C53.9433 43.8987 53.7833 44.368 53.7833 44.944V45.072H57.2073V44.928C57.2073 44.352 57.0633 43.888 56.7753 43.536C56.4979 43.1733 56.0926 42.992 55.5593 42.992ZM61.1371 50V41.648H63.1851V43.376H63.2651C63.3185 43.152 63.3985 42.9387 63.5051 42.736C63.6225 42.5227 63.7718 42.336 63.9531 42.176C64.1345 42.016 64.3478 41.888 64.5931 41.792C64.8491 41.696 65.1425 41.648 65.4731 41.648H65.9211V43.584H65.2811C64.5878 43.584 64.0651 43.6853 63.7131 43.888C63.3611 44.0907 63.1851 44.4213 63.1851 44.88V50H61.1371ZM74.5756 50.192C73.957 50.192 73.4023 50.0907 72.9116 49.888C72.4316 49.6747 72.021 49.3813 71.6796 49.008C71.349 48.624 71.093 48.1653 70.9116 47.632C70.7303 47.088 70.6396 46.48 70.6396 45.808C70.6396 45.1467 70.725 44.5493 70.8956 44.016C71.077 43.4827 71.333 43.0293 71.6636 42.656C71.9943 42.272 72.3996 41.9787 72.8796 41.776C73.3596 41.5627 73.9036 41.456 74.5116 41.456C75.1623 41.456 75.7276 41.568 76.2076 41.792C76.6876 42.016 77.0823 42.32 77.3916 42.704C77.701 43.088 77.9303 43.536 78.0796 44.048C78.2396 44.5493 78.3196 45.088 78.3196 45.664V46.336H72.7676V46.544C72.7676 47.152 72.9383 47.6427 73.2796 48.016C73.621 48.3787 74.1276 48.56 74.7996 48.56C75.3116 48.56 75.7276 48.4533 76.0476 48.24C76.3783 48.0267 76.6716 47.7547 76.9276 47.424L78.0316 48.656C77.6903 49.136 77.221 49.5147 76.6236 49.792C76.037 50.0587 75.3543 50.192 74.5756 50.192ZM74.5436 42.992C73.9996 42.992 73.5676 43.1733 73.2476 43.536C72.9276 43.8987 72.7676 44.368 72.7676 44.944V45.072H76.1916V44.928C76.1916 44.352 76.0476 43.888 75.7596 43.536C75.4823 43.1733 75.077 42.992 74.5436 42.992ZM80.1215 50V41.648H82.1695V43.376H82.2495C82.3028 43.152 82.3828 42.9387 82.4895 42.736C82.6068 42.5227 82.7562 42.336 82.9375 42.176C83.1188 42.016 83.3322 41.888 83.5775 41.792C83.8335 41.696 84.1268 41.648 84.4575 41.648H84.9055V43.584H84.2655C83.5722 43.584 83.0495 43.6853 82.6975 43.888C82.3455 44.0907 82.1695 44.4213 82.1695 44.88V50H80.1215ZM90.184 41.648H92.232V43.024H92.296C92.4453 42.544 92.728 42.1653 93.144 41.888C93.56 41.6 94.0453 41.456 94.6 41.456C95.6667 41.456 96.4773 41.8347 97.032 42.592C97.5973 43.3387 97.88 44.4107 97.88 45.808C97.88 47.216 97.5973 48.2987 97.032 49.056C96.4773 49.8133 95.6667 50.192 94.6 50.192C94.0453 50.192 93.56 50.048 93.144 49.76C92.7387 49.472 92.456 49.088 92.296 48.608H92.232V53.2H90.184V41.648ZM93.944 48.496C94.4773 48.496 94.9093 48.32 95.24 47.968C95.5707 47.616 95.736 47.1413 95.736 46.544V45.104C95.736 44.5067 95.5707 44.032 95.24 43.68C94.9093 43.3173 94.4773 43.136 93.944 43.136C93.4533 43.136 93.0427 43.2587 92.712 43.504C92.392 43.7493 92.232 44.0747 92.232 44.48V47.136C92.232 47.5733 92.392 47.9093 92.712 48.144C93.0427 48.3787 93.4533 48.496 93.944 48.496ZM99.7778 50V41.648H101.826V43.376H101.906C101.959 43.152 102.039 42.9387 102.146 42.736C102.263 42.5227 102.412 42.336 102.594 42.176C102.775 42.016 102.988 41.888 103.234 41.792C103.49 41.696 103.783 41.648 104.114 41.648H104.562V43.584H103.922C103.228 43.584 102.706 43.6853 102.354 43.888C102.002 44.0907 101.826 44.4213 101.826 44.88V50H99.7778ZM109.293 50.192C108.696 50.192 108.157 50.0907 107.677 49.888C107.208 49.6853 106.802 49.392 106.461 49.008C106.13 48.624 105.874 48.1653 105.693 47.632C105.512 47.088 105.421 46.48 105.421 45.808C105.421 45.136 105.512 44.5333 105.693 44C105.874 43.4667 106.13 43.0133 106.461 42.64C106.802 42.256 107.208 41.9627 107.677 41.76C108.157 41.5573 108.696 41.456 109.293 41.456C109.89 41.456 110.429 41.5573 110.909 41.76C111.389 41.9627 111.794 42.256 112.125 42.64C112.466 43.0133 112.728 43.4667 112.909 44C113.09 44.5333 113.181 45.136 113.181 45.808C113.181 46.48 113.09 47.088 112.909 47.632C112.728 48.1653 112.466 48.624 112.125 49.008C111.794 49.392 111.389 49.6853 110.909 49.888C110.429 50.0907 109.89 50.192 109.293 50.192ZM109.293 48.544C109.837 48.544 110.264 48.3787 110.573 48.048C110.882 47.7173 111.037 47.232 111.037 46.592V45.04C111.037 44.4107 110.882 43.9307 110.573 43.6C110.264 43.2693 109.837 43.104 109.293 43.104C108.76 43.104 108.338 43.2693 108.029 43.6C107.72 43.9307 107.565 44.4107 107.565 45.04V46.592C107.565 47.232 107.72 47.7173 108.029 48.048C108.338 48.3787 108.76 48.544 109.293 48.544ZM114.997 38.16H117.045V43.024H117.109C117.258 42.544 117.541 42.1653 117.957 41.888C118.373 41.6 118.858 41.456 119.413 41.456C120.479 41.456 121.29 41.8347 121.845 42.592C122.41 43.3387 122.693 44.4107 122.693 45.808C122.693 47.216 122.41 48.2987 121.845 49.056C121.29 49.8133 120.479 50.192 119.413 50.192C118.858 50.192 118.373 50.048 117.957 49.76C117.551 49.472 117.269 49.088 117.109 48.608H117.045V50H114.997V38.16ZM118.757 48.496C119.29 48.496 119.722 48.32 120.053 47.968C120.383 47.616 120.549 47.1413 120.549 46.544V45.104C120.549 44.5067 120.383 44.032 120.053 43.68C119.722 43.3173 119.29 43.136 118.757 43.136C118.266 43.136 117.855 43.2587 117.525 43.504C117.205 43.7493 117.045 44.0747 117.045 44.48V47.136C117.045 47.5733 117.205 47.9093 117.525 48.144C117.855 48.3787 118.266 48.496 118.757 48.496ZM126.638 50C125.934 50 125.417 49.824 125.086 49.472C124.756 49.12 124.59 48.624 124.59 47.984V38.16H126.638V48.368H127.742V50H126.638ZM132.669 50.192C132.051 50.192 131.496 50.0907 131.005 49.888C130.525 49.6747 130.115 49.3813 129.773 49.008C129.443 48.624 129.187 48.1653 129.005 47.632C128.824 47.088 128.733 46.48 128.733 45.808C128.733 45.1467 128.819 44.5493 128.989 44.016C129.171 43.4827 129.427 43.0293 129.757 42.656C130.088 42.272 130.493 41.9787 130.973 41.776C131.453 41.5627 131.997 41.456 132.605 41.456C133.256 41.456 133.821 41.568 134.301 41.792C134.781 42.016 135.176 42.32 135.485 42.704C135.795 43.088 136.024 43.536 136.173 44.048C136.333 44.5493 136.413 45.088 136.413 45.664V46.336H130.861V46.544C130.861 47.152 131.032 47.6427 131.373 48.016C131.715 48.3787 132.221 48.56 132.893 48.56C133.405 48.56 133.821 48.4533 134.141 48.24C134.472 48.0267 134.765 47.7547 135.021 47.424L136.125 48.656C135.784 49.136 135.315 49.5147 134.717 49.792C134.131 50.0587 133.448 50.192 132.669 50.192ZM132.637 42.992C132.093 42.992 131.661 43.1733 131.341 43.536C131.021 43.8987 130.861 44.368 130.861 44.944V45.072H134.285V44.928C134.285 44.352 134.141 43.888 133.853 43.536C133.576 43.1733 133.171 42.992 132.637 42.992ZM138.215 50V41.648H140.263V43.04H140.343C140.503 42.6027 140.759 42.2293 141.111 41.92C141.463 41.6107 141.954 41.456 142.583 41.456C143.159 41.456 143.655 41.5947 144.071 41.872C144.487 42.1493 144.797 42.5707 144.999 43.136H145.031C145.181 42.6667 145.474 42.272 145.911 41.952C146.359 41.6213 146.919 41.456 147.591 41.456C148.413 41.456 149.042 41.7387 149.479 42.304C149.927 42.8693 150.151 43.6747 150.151 44.72V50H148.103V44.928C148.103 43.7333 147.655 43.136 146.759 43.136C146.557 43.136 146.359 43.168 146.167 43.232C145.986 43.2853 145.821 43.3707 145.671 43.488C145.533 43.5947 145.421 43.7333 145.335 43.904C145.25 44.064 145.207 44.256 145.207 44.48V50H143.159V44.928C143.159 43.7333 142.711 43.136 141.815 43.136C141.623 43.136 141.431 43.168 141.239 43.232C141.058 43.2853 140.893 43.3707 140.743 43.488C140.605 43.5947 140.487 43.7333 140.391 43.904C140.306 44.064 140.263 44.256 140.263 44.48V50H138.215ZM155.794 50.192C155.176 50.192 154.621 50.0907 154.13 49.888C153.65 49.6747 153.24 49.3813 152.898 49.008C152.568 48.624 152.312 48.1653 152.13 47.632C151.949 47.088 151.858 46.48 151.858 45.808C151.858 45.1467 151.944 44.5493 152.114 44.016C152.296 43.4827 152.552 43.0293 152.882 42.656C153.213 42.272 153.618 41.9787 154.098 41.776C154.578 41.5627 155.122 41.456 155.73 41.456C156.381 41.456 156.946 41.568 157.426 41.792C157.906 42.016 158.301 42.32 158.61 42.704C158.92 43.088 159.149 43.536 159.298 44.048C159.458 44.5493 159.538 45.088 159.538 45.664V46.336H153.986V46.544C153.986 47.152 154.157 47.6427 154.498 48.016C154.84 48.3787 155.346 48.56 156.018 48.56C156.53 48.56 156.946 48.4533 157.266 48.24C157.597 48.0267 157.89 47.7547 158.146 47.424L159.25 48.656C158.909 49.136 158.44 49.5147 157.842 49.792C157.256 50.0587 156.573 50.192 155.794 50.192ZM155.762 42.992C155.218 42.992 154.786 43.1733 154.466 43.536C154.146 43.8987 153.986 44.368 153.986 44.944V45.072H157.41V44.928C157.41 44.352 157.266 43.888 156.978 43.536C156.701 43.1733 156.296 42.992 155.762 42.992ZM161.34 50V41.648H163.388V43.376H163.468C163.522 43.152 163.602 42.9387 163.708 42.736C163.826 42.5227 163.975 42.336 164.156 42.176C164.338 42.016 164.551 41.888 164.796 41.792C165.052 41.696 165.346 41.648 165.676 41.648H166.124V43.584H165.484C164.791 43.584 164.268 43.6853 163.916 43.888C163.564 44.0907 163.388 44.4213 163.388 44.88V50H161.34Z" fill="#1A1A1A"/>
<path d="M44.624 82.192C43.7173 82.192 42.944 82.0213 42.304 81.68C41.664 81.328 41.12 80.848 40.672 80.24L41.664 79.408C42.0587 79.9307 42.496 80.3307 42.976 80.608C43.456 80.8747 44.0213 81.008 44.672 81.008C45.472 81.008 46.08 80.816 46.496 80.432C46.9227 80.048 47.136 79.536 47.136 78.896C47.136 78.3627 46.976 77.952 46.656 77.664C46.336 77.376 45.808 77.1467 45.072 76.976L44.16 76.768C43.136 76.5333 42.352 76.1813 41.808 75.712C41.2747 75.232 41.008 74.56 41.008 73.696C41.008 73.2053 41.0987 72.768 41.28 72.384C41.4613 72 41.712 71.68 42.032 71.424C42.3627 71.168 42.752 70.976 43.2 70.848C43.6587 70.7093 44.16 70.64 44.704 70.64C45.5467 70.64 46.2667 70.7947 46.864 71.104C47.472 71.4133 47.984 71.8667 48.4 72.464L47.392 73.2C47.0827 72.7733 46.7093 72.4373 46.272 72.192C45.8347 71.9467 45.2907 71.824 44.64 71.824C43.9253 71.824 43.36 71.9787 42.944 72.288C42.5387 72.5867 42.336 73.04 42.336 73.648C42.336 74.1813 42.5067 74.5867 42.848 74.864C43.2 75.1307 43.728 75.344 44.432 75.504L45.344 75.712C46.4427 75.9573 47.2373 76.3307 47.728 76.832C48.2187 77.3333 48.464 78 48.464 78.832C48.464 79.344 48.3733 79.808 48.192 80.224C48.0213 80.64 47.7707 80.992 47.44 81.28C47.1093 81.568 46.704 81.792 46.224 81.952C45.7547 82.112 45.2213 82.192 44.624 82.192ZM50.6569 70.16H51.9369V77.664H52.0009L53.2649 76.256L55.6009 73.744H57.1529L54.0969 77.008L57.4569 82H55.9049L53.1689 77.792L51.9369 79.056V82H50.6569V70.16ZM59.0944 82V73.744H60.3744V75.264H60.4544C60.6037 74.8693 60.8704 74.5173 61.2544 74.208C61.6384 73.8987 62.1664 73.744 62.8384 73.744H63.3344V75.024H62.5824C61.889 75.024 61.345 75.1573 60.9504 75.424C60.5664 75.68 60.3744 76.0053 60.3744 76.4V82H59.0944ZM65.6094 71.808C65.332 71.808 65.1294 71.744 65.0014 71.616C64.884 71.4773 64.8254 71.3013 64.8254 71.088V70.88C64.8254 70.6667 64.884 70.496 65.0014 70.368C65.1294 70.2293 65.332 70.16 65.6094 70.16C65.8867 70.16 66.084 70.2293 66.2014 70.368C66.3294 70.496 66.3934 70.6667 66.3934 70.88V71.088C66.3934 71.3013 66.3294 71.4773 66.2014 71.616C66.084 71.744 65.8867 71.808 65.6094 71.808ZM64.9694 73.744H66.2494V82H64.9694V73.744ZM70.7934 82L67.8974 73.744H69.1774L70.6174 77.84L71.5134 80.656H71.5934L72.4894 77.84L73.9614 73.744H75.1934L72.2814 82H70.7934ZM85.9056 80.656H85.8416C85.3403 81.68 84.535 82.192 83.4256 82.192C82.9136 82.192 82.4496 82.0907 82.0336 81.888C81.6176 81.6853 81.2603 81.3973 80.9616 81.024C80.6736 80.6507 80.4496 80.1973 80.2896 79.664C80.1403 79.1307 80.0656 78.5333 80.0656 77.872C80.0656 77.2107 80.1403 76.6133 80.2896 76.08C80.4496 75.5467 80.6736 75.0933 80.9616 74.72C81.2603 74.3467 81.6176 74.0587 82.0336 73.856C82.4496 73.6533 82.9136 73.552 83.4256 73.552C84.0016 73.552 84.4923 73.68 84.8976 73.936C85.3136 74.1813 85.6283 74.5653 85.8416 75.088H85.9056V70.16H87.1856V82H85.9056V80.656ZM83.7776 81.04C84.0656 81.04 84.3376 81.0027 84.5936 80.928C84.8603 80.8533 85.0896 80.7467 85.2816 80.608C85.4736 80.4587 85.623 80.2827 85.7296 80.08C85.847 79.8667 85.9056 79.6267 85.9056 79.36V76.288C85.9056 76.064 85.847 75.856 85.7296 75.664C85.623 75.4613 85.4736 75.2907 85.2816 75.152C85.0896 75.0133 84.8603 74.9067 84.5936 74.832C84.3376 74.7467 84.0656 74.704 83.7776 74.704C83.0523 74.704 82.4816 74.9333 82.0656 75.392C81.6496 75.84 81.4416 76.432 81.4416 77.168V78.576C81.4416 79.312 81.6496 79.9093 82.0656 80.368C82.4816 80.816 83.0523 81.04 83.7776 81.04ZM90.5469 71.808C90.2695 71.808 90.0669 71.744 89.9389 71.616C89.8215 71.4773 89.7629 71.3013 89.7629 71.088V70.88C89.7629 70.6667 89.8215 70.496 89.9389 70.368C90.0669 70.2293 90.2695 70.16 90.5469 70.16C90.8242 70.16 91.0215 70.2293 91.1389 70.368C91.2669 70.496 91.3309 70.6667 91.3309 70.88V71.088C91.3309 71.3013 91.2669 71.4773 91.1389 71.616C91.0215 71.744 90.8242 71.808 90.5469 71.808ZM89.9069 73.744H91.1869V82H89.9069V73.744ZM93.9069 82V73.744H95.1869V75.088H95.2509C95.4535 74.6187 95.7362 74.2453 96.0989 73.968C96.4722 73.6907 96.9682 73.552 97.5869 73.552C98.4402 73.552 99.1122 73.8293 99.6029 74.384C100.104 74.928 100.355 75.7013 100.355 76.704V82H99.0749V76.928C99.0749 75.4453 98.4509 74.704 97.2029 74.704C96.9469 74.704 96.6962 74.736 96.4509 74.8C96.2162 74.864 96.0029 74.96 95.8109 75.088C95.6189 75.216 95.4642 75.3813 95.3469 75.584C95.2402 75.776 95.1869 76.0053 95.1869 76.272V82H93.9069ZM109.886 82.192C109.321 82.192 108.809 82.0907 108.35 81.888C107.902 81.6853 107.513 81.3973 107.182 81.024C106.862 80.64 106.611 80.1867 106.43 79.664C106.259 79.1307 106.174 78.5333 106.174 77.872C106.174 77.2213 106.259 76.6293 106.43 76.096C106.611 75.5627 106.862 75.1093 107.182 74.736C107.513 74.352 107.902 74.0587 108.35 73.856C108.809 73.6533 109.321 73.552 109.886 73.552C110.441 73.552 110.937 73.6533 111.374 73.856C111.811 74.0587 112.185 74.3413 112.494 74.704C112.803 75.056 113.038 75.4773 113.198 75.968C113.369 76.4587 113.454 76.9973 113.454 77.584V78.192H107.518V78.576C107.518 78.928 107.571 79.2587 107.678 79.568C107.795 79.8667 107.955 80.128 108.158 80.352C108.371 80.576 108.627 80.752 108.926 80.88C109.235 81.008 109.582 81.072 109.966 81.072C110.489 81.072 110.942 80.9493 111.326 80.704C111.721 80.4587 112.025 80.1067 112.238 79.648L113.15 80.304C112.883 80.8693 112.467 81.328 111.902 81.68C111.337 82.0213 110.665 82.192 109.886 82.192ZM109.886 74.624C109.534 74.624 109.214 74.688 108.926 74.816C108.638 74.9333 108.387 75.104 108.174 75.328C107.971 75.552 107.811 75.8187 107.694 76.128C107.577 76.4267 107.518 76.7573 107.518 77.12V77.232H112.078V77.056C112.078 76.32 111.875 75.7333 111.47 75.296C111.075 74.848 110.547 74.624 109.886 74.624ZM115.463 77.824V76.448H119.639V77.824H115.463ZM122.11 82V73.744H123.39V75.088H123.454C123.55 74.8747 123.657 74.6773 123.774 74.496C123.902 74.304 124.051 74.1387 124.222 74C124.403 73.8613 124.611 73.7547 124.846 73.68C125.081 73.5947 125.358 73.552 125.678 73.552C126.222 73.552 126.723 73.6853 127.182 73.952C127.641 74.208 127.982 74.6347 128.206 75.232H128.238C128.387 74.784 128.665 74.3947 129.07 74.064C129.486 73.7227 130.046 73.552 130.75 73.552C131.593 73.552 132.249 73.8293 132.718 74.384C133.198 74.928 133.438 75.7013 133.438 76.704V82H132.158V76.928C132.158 76.192 132.014 75.6373 131.726 75.264C131.438 74.8907 130.979 74.704 130.35 74.704C130.094 74.704 129.849 74.736 129.614 74.8C129.39 74.864 129.187 74.96 129.006 75.088C128.825 75.216 128.681 75.3813 128.574 75.584C128.467 75.776 128.414 76.0053 128.414 76.272V82H127.134V76.928C127.134 76.192 126.99 75.6373 126.702 75.264C126.414 74.8907 125.966 74.704 125.358 74.704C125.102 74.704 124.857 74.736 124.622 74.8C124.387 74.864 124.179 74.96 123.998 75.088C123.817 75.216 123.667 75.3813 123.55 75.584C123.443 75.776 123.39 76.0053 123.39 76.272V82H122.11ZM142.079 82C141.599 82 141.252 81.872 141.039 81.616C140.836 81.36 140.708 81.04 140.655 80.656H140.575C140.393 81.168 140.095 81.552 139.679 81.808C139.263 82.064 138.767 82.192 138.191 82.192C137.316 82.192 136.633 81.968 136.143 81.52C135.663 81.072 135.423 80.464 135.423 79.696C135.423 78.9173 135.705 78.32 136.271 77.904C136.847 77.488 137.737 77.28 138.943 77.28H140.575V76.464C140.575 75.8773 140.415 75.4293 140.095 75.12C139.775 74.8107 139.284 74.656 138.623 74.656C138.121 74.656 137.7 74.768 137.359 74.992C137.028 75.216 136.751 75.5147 136.527 75.888L135.759 75.168C135.983 74.72 136.34 74.3413 136.831 74.032C137.321 73.712 137.94 73.552 138.687 73.552C139.689 73.552 140.468 73.7973 141.023 74.288C141.577 74.7787 141.855 75.4613 141.855 76.336V80.88H142.799V82H142.079ZM138.399 81.104C138.719 81.104 139.012 81.0667 139.279 80.992C139.545 80.9173 139.775 80.8107 139.967 80.672C140.159 80.5333 140.308 80.3733 140.415 80.192C140.521 80.0107 140.575 79.8133 140.575 79.6V78.24H138.879C138.143 78.24 137.604 78.3467 137.263 78.56C136.932 78.7733 136.767 79.0827 136.767 79.488V79.824C136.767 80.2293 136.911 80.544 137.199 80.768C137.497 80.992 137.897 81.104 138.399 81.104ZM145.266 71.808C144.988 71.808 144.786 71.744 144.658 71.616C144.54 71.4773 144.482 71.3013 144.482 71.088V70.88C144.482 70.6667 144.54 70.496 144.658 70.368C144.786 70.2293 144.988 70.16 145.266 70.16C145.543 70.16 145.74 70.2293 145.858 70.368C145.986 70.496 146.05 70.6667 146.05 70.88V71.088C146.05 71.3013 145.986 71.4773 145.858 71.616C145.74 71.744 145.543 71.808 145.266 71.808ZM144.626 73.744H145.906V82H144.626V73.744ZM149.986 82C149.538 82 149.196 81.8773 148.962 81.632C148.738 81.376 148.626 81.056 148.626 80.672V70.16H149.906V80.88H151.122V82H149.986Z" fill="#1A1A1A"/>
<path d="M40 84H151.618V84.96H40V84Z" fill="#1A1A1A"/>
<rect x="16" y="271" width="4" height="117" fill="#CC0000"/>
<path d="M33.312 297V285.832H40.672V287.704H35.424V290.408H40.064V292.28H35.424V295.128H40.672V297H33.312ZM42.5218 293.144V291.112H47.0978V293.144H42.5218ZM49.2153 297V288.648H51.2633V290.04H51.3433C51.5033 289.603 51.7593 289.229 52.1113 288.92C52.4633 288.611 52.9539 288.456 53.5833 288.456C54.1593 288.456 54.6553 288.595 55.0713 288.872C55.4873 289.149 55.7966 289.571 55.9993 290.136H56.0312C56.1806 289.667 56.4739 289.272 56.9113 288.952C57.3593 288.621 57.9193 288.456 58.5913 288.456C59.4126 288.456 60.0419 288.739 60.4793 289.304C60.9273 289.869 61.1513 290.675 61.1513 291.72V297H59.1033V291.928C59.1033 290.733 58.6553 290.136 57.7593 290.136C57.5566 290.136 57.3593 290.168 57.1673 290.232C56.9859 290.285 56.8206 290.371 56.6713 290.488C56.5326 290.595 56.4206 290.733 56.3353 290.904C56.2499 291.064 56.2073 291.256 56.2073 291.48V297H54.1593V291.928C54.1593 290.733 53.7113 290.136 52.8153 290.136C52.6233 290.136 52.4313 290.168 52.2393 290.232C52.0579 290.285 51.8926 290.371 51.7433 290.488C51.6046 290.595 51.4873 290.733 51.3913 290.904C51.3059 291.064 51.2633 291.256 51.2633 291.48V297H49.2153ZM69.5624 297C69.1144 297 68.757 296.872 68.4904 296.616C68.2344 296.349 68.0744 295.997 68.0104 295.56H67.9144C67.7757 296.104 67.493 296.515 67.0664 296.792C66.6397 297.059 66.1117 297.192 65.4824 297.192C64.629 297.192 63.973 296.968 63.5144 296.52C63.0557 296.072 62.8264 295.475 62.8264 294.728C62.8264 293.864 63.1357 293.224 63.7544 292.808C64.373 292.381 65.253 292.168 66.3944 292.168H67.8184V291.56C67.8184 291.091 67.6957 290.728 67.4504 290.472C67.205 290.216 66.8104 290.088 66.2664 290.088C65.7864 290.088 65.397 290.195 65.0984 290.408C64.8104 290.611 64.565 290.856 64.3624 291.144L63.1464 290.056C63.4557 289.576 63.8664 289.192 64.3784 288.904C64.8904 288.605 65.5677 288.456 66.4104 288.456C67.541 288.456 68.3997 288.712 68.9864 289.224C69.573 289.736 69.8664 290.472 69.8664 291.432V295.368H70.6984V297H69.5624ZM66.1704 295.704C66.629 295.704 67.0184 295.603 67.3384 295.4C67.6584 295.197 67.8184 294.899 67.8184 294.504V293.4H66.5064C65.4397 293.4 64.9064 293.741 64.9064 294.424V294.696C64.9064 295.037 65.013 295.293 65.2264 295.464C65.4504 295.624 65.765 295.704 66.1704 295.704ZM73.3799 287.432C72.9532 287.432 72.6439 287.336 72.4519 287.144C72.2705 286.952 72.1799 286.707 72.1799 286.408V286.088C72.1799 285.789 72.2705 285.544 72.4519 285.352C72.6439 285.16 72.9532 285.064 73.3799 285.064C73.7959 285.064 74.0999 285.16 74.2919 285.352C74.4839 285.544 74.5799 285.789 74.5799 286.088V286.408C74.5799 286.707 74.4839 286.952 74.2919 287.144C74.0999 287.336 73.7959 287.432 73.3799 287.432ZM72.3559 288.648H74.4039V297H72.3559V288.648ZM78.8258 297C78.1218 297 77.6044 296.824 77.2738 296.472C76.9431 296.12 76.7778 295.624 76.7778 294.984V285.16H78.8258V295.368H79.9298V297H78.8258Z" fill="#1A1A1A"/>
<path d="M36.784 325.192C35.824 325.192 35.008 325.021 34.336 324.68C33.6747 324.339 33.104 323.891 32.624 323.336L34.048 321.96C34.432 322.408 34.8587 322.749 35.328 322.984C35.808 323.219 36.336 323.336 36.912 323.336C37.5627 323.336 38.0533 323.197 38.384 322.92C38.7147 322.632 38.88 322.248 38.88 321.768C38.88 321.395 38.7733 321.091 38.56 320.856C38.3467 320.621 37.9467 320.451 37.36 320.344L36.304 320.184C34.0747 319.832 32.96 318.749 32.96 316.936C32.96 316.435 33.0507 315.981 33.232 315.576C33.424 315.171 33.696 314.824 34.048 314.536C34.4 314.248 34.8213 314.029 35.312 313.88C35.8133 313.72 36.3787 313.64 37.008 313.64C37.8507 313.64 38.5867 313.779 39.216 314.056C39.8453 314.333 40.384 314.744 40.832 315.288L39.392 316.648C39.1147 316.307 38.7787 316.029 38.384 315.816C37.9893 315.603 37.4933 315.496 36.896 315.496C36.288 315.496 35.8293 315.613 35.52 315.848C35.2213 316.072 35.072 316.392 35.072 316.808C35.072 317.235 35.1947 317.549 35.44 317.752C35.6853 317.955 36.08 318.104 36.624 318.2L37.664 318.392C38.7947 318.595 39.6267 318.957 40.16 319.48C40.704 319.992 40.976 320.712 40.976 321.64C40.976 322.173 40.88 322.659 40.688 323.096C40.5067 323.523 40.2347 323.896 39.872 324.216C39.52 324.525 39.0827 324.765 38.56 324.936C38.048 325.107 37.456 325.192 36.784 325.192ZM42.9653 313.16H45.0133V320.296H45.0933L46.1973 318.792L48.0693 316.648H50.3893L47.5093 319.88L50.6933 325H48.2613L46.1173 321.256L45.0133 322.456V325H42.9653V313.16ZM51.9496 325V316.648H53.9976V318.376H54.0776C54.131 318.152 54.211 317.939 54.3176 317.736C54.435 317.523 54.5843 317.336 54.7656 317.176C54.947 317.016 55.1603 316.888 55.4056 316.792C55.6616 316.696 55.955 316.648 56.2856 316.648H56.7336V318.584H56.0936C55.4003 318.584 54.8776 318.685 54.5256 318.888C54.1736 319.091 53.9976 319.421 53.9976 319.88V325H51.9496ZM59.2549 315.432C58.8282 315.432 58.5189 315.336 58.3269 315.144C58.1455 314.952 58.0549 314.707 58.0549 314.408V314.088C58.0549 313.789 58.1455 313.544 58.3269 313.352C58.5189 313.16 58.8282 313.064 59.2549 313.064C59.6709 313.064 59.9749 313.16 60.1669 313.352C60.3589 313.544 60.4549 313.789 60.4549 314.088V314.408C60.4549 314.707 60.3589 314.952 60.1669 315.144C59.9749 315.336 59.6709 315.432 59.2549 315.432ZM58.2309 316.648H60.2789V325H58.2309V316.648ZM64.4448 325L61.6608 316.648H63.6768L64.8448 320.248L65.6608 323.224H65.7728L66.5888 320.248L67.7248 316.648H69.6768L66.8768 325H64.4448ZM80.0086 323.608H79.9286C79.7793 324.088 79.4966 324.472 79.0806 324.76C78.6646 325.048 78.1793 325.192 77.6246 325.192C76.5686 325.192 75.758 324.813 75.1926 324.056C74.638 323.299 74.3606 322.216 74.3606 320.808C74.3606 319.411 74.638 318.339 75.1926 317.592C75.758 316.835 76.5686 316.456 77.6246 316.456C78.1793 316.456 78.6646 316.6 79.0806 316.888C79.4966 317.165 79.7793 317.544 79.9286 318.024H80.0086V313.16H82.0566V325H80.0086V323.608ZM78.2806 323.496C78.7713 323.496 79.182 323.379 79.5126 323.144C79.8433 322.909 80.0086 322.573 80.0086 322.136V319.48C80.0086 319.075 79.8433 318.749 79.5126 318.504C79.182 318.259 78.7713 318.136 78.2806 318.136C77.7473 318.136 77.3153 318.317 76.9846 318.68C76.6646 319.032 76.5046 319.507 76.5046 320.104V321.544C76.5046 322.141 76.6646 322.616 76.9846 322.968C77.3153 323.32 77.7473 323.496 78.2806 323.496ZM85.4424 315.432C85.0157 315.432 84.7064 315.336 84.5144 315.144C84.333 314.952 84.2424 314.707 84.2424 314.408V314.088C84.2424 313.789 84.333 313.544 84.5144 313.352C84.7064 313.16 85.0157 313.064 85.4424 313.064C85.8584 313.064 86.1624 313.16 86.3544 313.352C86.5464 313.544 86.6424 313.789 86.6424 314.088V314.408C86.6424 314.707 86.5464 314.952 86.3544 315.144C86.1624 315.336 85.8584 315.432 85.4424 315.432ZM84.4184 316.648H86.4664V325H84.4184V316.648ZM88.8403 325V316.648H90.8883V318.04H90.9683C91.1389 317.592 91.4056 317.219 91.7682 316.92C92.1416 316.611 92.6536 316.456 93.3043 316.456C94.1683 316.456 94.8296 316.739 95.2883 317.304C95.7469 317.869 95.9763 318.675 95.9763 319.72V325H93.9283V319.928C93.9283 319.331 93.8216 318.883 93.6083 318.584C93.3949 318.285 93.0429 318.136 92.5523 318.136C92.3389 318.136 92.1309 318.168 91.9283 318.232C91.7363 318.285 91.5603 318.371 91.4003 318.488C91.2509 318.595 91.1283 318.733 91.0323 318.904C90.9363 319.064 90.8883 319.256 90.8883 319.48V325H88.8403ZM105.404 325.192C104.785 325.192 104.23 325.091 103.74 324.888C103.26 324.675 102.849 324.381 102.508 324.008C102.177 323.624 101.921 323.165 101.74 322.632C101.558 322.088 101.468 321.48 101.468 320.808C101.468 320.147 101.553 319.549 101.724 319.016C101.905 318.483 102.161 318.029 102.492 317.656C102.822 317.272 103.228 316.979 103.708 316.776C104.188 316.563 104.732 316.456 105.34 316.456C105.99 316.456 106.556 316.568 107.036 316.792C107.516 317.016 107.91 317.32 108.22 317.704C108.529 318.088 108.758 318.536 108.908 319.048C109.068 319.549 109.148 320.088 109.148 320.664V321.336H103.596V321.544C103.596 322.152 103.766 322.643 104.108 323.016C104.449 323.379 104.956 323.56 105.628 323.56C106.14 323.56 106.556 323.453 106.876 323.24C107.206 323.027 107.5 322.755 107.756 322.424L108.86 323.656C108.518 324.136 108.049 324.515 107.452 324.792C106.865 325.059 106.182 325.192 105.404 325.192ZM105.372 317.992C104.828 317.992 104.396 318.173 104.076 318.536C103.756 318.899 103.596 319.368 103.596 319.944V320.072H107.02V319.928C107.02 319.352 106.876 318.888 106.588 318.536C106.31 318.173 105.905 317.992 105.372 317.992ZM110.85 321.144V319.112H115.426V321.144H110.85ZM117.543 325V316.648H119.591V318.04H119.671C119.831 317.603 120.087 317.229 120.439 316.92C120.791 316.611 121.282 316.456 121.911 316.456C122.487 316.456 122.983 316.595 123.399 316.872C123.815 317.149 124.125 317.571 124.327 318.136H124.359C124.509 317.667 124.802 317.272 125.239 316.952C125.687 316.621 126.247 316.456 126.919 316.456C127.741 316.456 128.37 316.739 128.807 317.304C129.255 317.869 129.479 318.675 129.479 319.72V325H127.431V319.928C127.431 318.733 126.983 318.136 126.087 318.136C125.885 318.136 125.687 318.168 125.495 318.232C125.314 318.285 125.149 318.371 124.999 318.488C124.861 318.595 124.749 318.733 124.663 318.904C124.578 319.064 124.535 319.256 124.535 319.48V325H122.487V319.928C122.487 318.733 122.039 318.136 121.143 318.136C120.951 318.136 120.759 318.168 120.567 318.232C120.386 318.285 120.221 318.371 120.071 318.488C119.933 318.595 119.815 318.733 119.719 318.904C119.634 319.064 119.591 319.256 119.591 319.48V325H117.543ZM137.891 325C137.443 325 137.085 324.872 136.819 324.616C136.563 324.349 136.403 323.997 136.339 323.56H136.243C136.104 324.104 135.821 324.515 135.395 324.792C134.968 325.059 134.44 325.192 133.811 325.192C132.957 325.192 132.301 324.968 131.843 324.52C131.384 324.072 131.155 323.475 131.155 322.728C131.155 321.864 131.464 321.224 132.083 320.808C132.701 320.381 133.581 320.168 134.723 320.168H136.147V319.56C136.147 319.091 136.024 318.728 135.779 318.472C135.533 318.216 135.139 318.088 134.595 318.088C134.115 318.088 133.725 318.195 133.427 318.408C133.139 318.611 132.893 318.856 132.691 319.144L131.475 318.056C131.784 317.576 132.195 317.192 132.707 316.904C133.219 316.605 133.896 316.456 134.739 316.456C135.869 316.456 136.728 316.712 137.315 317.224C137.901 317.736 138.195 318.472 138.195 319.432V323.368H139.027V325H137.891ZM134.499 323.704C134.957 323.704 135.347 323.603 135.667 323.4C135.987 323.197 136.147 322.899 136.147 322.504V321.4H134.835C133.768 321.4 133.235 321.741 133.235 322.424V322.696C133.235 323.037 133.341 323.293 133.555 323.464C133.779 323.624 134.093 323.704 134.499 323.704ZM141.708 315.432C141.281 315.432 140.972 315.336 140.78 315.144C140.599 314.952 140.508 314.707 140.508 314.408V314.088C140.508 313.789 140.599 313.544 140.78 313.352C140.972 313.16 141.281 313.064 141.708 313.064C142.124 313.064 142.428 313.16 142.62 313.352C142.812 313.544 142.908 313.789 142.908 314.088V314.408C142.908 314.707 142.812 314.952 142.62 315.144C142.428 315.336 142.124 315.432 141.708 315.432ZM140.684 316.648H142.732V325H140.684V316.648ZM147.154 325C146.45 325 145.933 324.824 145.602 324.472C145.271 324.12 145.106 323.624 145.106 322.984V313.16H147.154V323.368H148.258V325H147.154Z" fill="#CC0000"/>
<rect x="33" y="340" width="317" height="39" rx="3" stroke="#CC0000" stroke-width="2"/>
</g>
<defs>
<clipPath id="clip0_5010_48920">
<rect width="418" height="387" fill="white"/>
</clipPath>
</defs>
</svg>
