<svg width="418" height="367" viewBox="0 0 418 367" fill="none" xmlns="http://www.w3.org/2000/svg">
<rect width="418" height="367" fill="white"/>
<line y1="246.5" x2="418" y2="246.5" stroke="#747474"/>
<path d="M19.835 281.762L18.587 283.192V286H17.118V276.926H18.587V281.528H18.639L19.939 279.877L22.383 276.926H24.099L20.862 280.748L24.359 286H22.591L19.835 281.762ZM27.918 286.156C27.45 286.156 27.021 286.074 26.631 285.909C26.2496 285.744 25.9246 285.51 25.656 285.207C25.3873 284.895 25.1793 284.522 25.032 284.089C24.8846 283.647 24.811 283.157 24.811 282.62C24.811 282.083 24.8846 281.597 25.032 281.164C25.1793 280.722 25.3873 280.349 25.656 280.046C25.9246 279.734 26.2496 279.496 26.631 279.331C27.021 279.166 27.45 279.084 27.918 279.084C28.386 279.084 28.8106 279.166 29.192 279.331C29.582 279.496 29.9113 279.734 30.18 280.046C30.4486 280.349 30.6566 280.722 30.804 281.164C30.9513 281.597 31.025 282.083 31.025 282.62C31.025 283.157 30.9513 283.647 30.804 284.089C30.6566 284.522 30.4486 284.895 30.18 285.207C29.9113 285.51 29.582 285.744 29.192 285.909C28.8106 286.074 28.386 286.156 27.918 286.156ZM27.918 284.986C28.4033 284.986 28.7933 284.839 29.088 284.544C29.3826 284.241 29.53 283.79 29.53 283.192V282.048C29.53 281.45 29.3826 281.004 29.088 280.709C28.7933 280.406 28.4033 280.254 27.918 280.254C27.4326 280.254 27.0426 280.406 26.748 280.709C26.4533 281.004 26.306 281.45 26.306 282.048V283.192C26.306 283.79 26.4533 284.241 26.748 284.544C27.0426 284.839 27.4326 284.986 27.918 284.986ZM32.6038 286V279.24H34.0208V280.358H34.0858C34.2332 279.994 34.4542 279.691 34.7488 279.448C35.0522 279.205 35.4638 279.084 35.9838 279.084C36.6772 279.084 37.2145 279.314 37.5958 279.773C37.9858 280.224 38.1808 280.869 38.1808 281.71V286H36.7638V281.892C36.7638 280.835 36.3392 280.306 35.4898 280.306C35.3078 280.306 35.1258 280.332 34.9438 280.384C34.7705 280.427 34.6145 280.497 34.4758 280.592C34.3372 280.687 34.2245 280.809 34.1378 280.956C34.0598 281.103 34.0208 281.277 34.0208 281.476V286H32.6038ZM42.0169 286C41.5229 286 41.1502 285.874 40.8989 285.623C40.6475 285.363 40.5219 284.999 40.5219 284.531V280.397H39.4689V279.24H40.0409C40.2749 279.24 40.4352 279.188 40.5219 279.084C40.6172 278.98 40.6649 278.811 40.6649 278.577V277.394H41.9389V279.24H43.3559V280.397H41.9389V284.843H43.2519V286H42.0169ZM49.8459 286C49.4732 286 49.1872 285.896 48.9879 285.688C48.7886 285.471 48.6672 285.198 48.6239 284.869H48.5589C48.4289 285.294 48.1906 285.614 47.8439 285.831C47.4972 286.048 47.0769 286.156 46.5829 286.156C45.8809 286.156 45.3392 285.974 44.9579 285.61C44.5852 285.246 44.3989 284.756 44.3989 284.141C44.3989 283.465 44.6416 282.958 45.1269 282.62C45.6209 282.282 46.3402 282.113 47.2849 282.113H48.5069V281.541C48.5069 281.125 48.3942 280.804 48.1689 280.579C47.9436 280.354 47.5926 280.241 47.1159 280.241C46.7172 280.241 46.3922 280.328 46.1409 280.501C45.8896 280.674 45.6772 280.895 45.5039 281.164L44.6589 280.397C44.8842 280.016 45.2006 279.704 45.6079 279.461C46.0152 279.21 46.5482 279.084 47.2069 279.084C48.0822 279.084 48.7539 279.288 49.2219 279.695C49.6899 280.102 49.9239 280.687 49.9239 281.45V284.843H50.6389V286H49.8459ZM46.9859 285.077C47.4279 285.077 47.7919 284.982 48.0779 284.791C48.3639 284.592 48.5069 284.327 48.5069 283.998V283.023H47.3109C46.3316 283.023 45.8419 283.326 45.8419 283.933V284.167C45.8419 284.47 45.9416 284.7 46.1409 284.856C46.3489 285.003 46.6306 285.077 46.9859 285.077ZM52.0277 276.38H53.4447V282.282H53.5097L54.4457 281.073L56.0707 279.24H57.7217L55.3557 281.853L58.0077 286H56.3177L54.3807 282.776L53.4447 283.79V286H52.0277V276.38ZM60.8821 286C60.3881 286 60.0154 285.874 59.7641 285.623C59.5128 285.363 59.3871 284.999 59.3871 284.531V280.397H58.3341V279.24H58.9061C59.1401 279.24 59.3004 279.188 59.3871 279.084C59.4824 278.98 59.5301 278.811 59.5301 278.577V277.394H60.8041V279.24H62.2211V280.397H60.8041V284.843H62.1171V286H60.8821Z" fill="black"/>
<path d="M151.118 286V276.926H155.018C155.859 276.926 156.509 277.173 156.968 277.667C157.427 278.161 157.657 278.824 157.657 279.656C157.657 280.488 157.427 281.151 156.968 281.645C156.509 282.139 155.859 282.386 155.018 282.386H152.587V286H151.118ZM152.587 281.099H154.927C155.3 281.099 155.59 281.004 155.798 280.813C156.006 280.614 156.11 280.332 156.11 279.968V279.344C156.11 278.98 156.006 278.703 155.798 278.512C155.59 278.313 155.3 278.213 154.927 278.213H152.587V281.099ZM159.037 286V279.24H160.454V280.54H160.519C160.615 280.193 160.814 279.89 161.117 279.63C161.421 279.37 161.841 279.24 162.378 279.24H162.755V280.605H162.196C161.633 280.605 161.2 280.696 160.896 280.878C160.602 281.06 160.454 281.329 160.454 281.684V286H159.037ZM164.729 278.031C164.434 278.031 164.218 277.962 164.079 277.823C163.949 277.684 163.884 277.507 163.884 277.29V277.069C163.884 276.852 163.949 276.675 164.079 276.536C164.218 276.397 164.434 276.328 164.729 276.328C165.024 276.328 165.236 276.397 165.366 276.536C165.496 276.675 165.561 276.852 165.561 277.069V277.29C165.561 277.507 165.496 277.684 165.366 277.823C165.236 277.962 165.024 278.031 164.729 278.031ZM164.014 279.24H165.431V286H164.014V279.24ZM168.923 286L166.622 279.24H168.026L169.053 282.321L169.742 284.687H169.82L170.509 282.321L171.562 279.24H172.914L170.587 286H168.923ZM178.946 286C178.573 286 178.287 285.896 178.088 285.688C177.888 285.471 177.767 285.198 177.724 284.869H177.659C177.529 285.294 177.29 285.614 176.944 285.831C176.597 286.048 176.177 286.156 175.683 286.156C174.981 286.156 174.439 285.974 174.058 285.61C173.685 285.246 173.499 284.756 173.499 284.141C173.499 283.465 173.741 282.958 174.227 282.62C174.721 282.282 175.44 282.113 176.385 282.113H177.607V281.541C177.607 281.125 177.494 280.804 177.269 280.579C177.043 280.354 176.692 280.241 176.216 280.241C175.817 280.241 175.492 280.328 175.241 280.501C174.989 280.674 174.777 280.895 174.604 281.164L173.759 280.397C173.984 280.016 174.3 279.704 174.708 279.461C175.115 279.21 175.648 279.084 176.307 279.084C177.182 279.084 177.854 279.288 178.322 279.695C178.79 280.102 179.024 280.687 179.024 281.45V284.843H179.739V286H178.946ZM176.086 285.077C176.528 285.077 176.892 284.982 177.178 284.791C177.464 284.592 177.607 284.327 177.607 283.998V283.023H176.411C175.431 283.023 174.942 283.326 174.942 283.933V284.167C174.942 284.47 175.041 284.7 175.241 284.856C175.449 285.003 175.73 285.077 176.086 285.077ZM182.961 286C182.467 286 182.095 285.874 181.843 285.623C181.592 285.363 181.466 284.999 181.466 284.531V280.397H180.413V279.24H180.985C181.219 279.24 181.38 279.188 181.466 279.084C181.562 278.98 181.609 278.811 181.609 278.577V277.394H182.883V279.24H184.3V280.397H182.883V284.843H184.196V286H182.961ZM187.28 286C186.795 286 186.431 285.879 186.188 285.636C185.954 285.385 185.837 285.038 185.837 284.596V276.38H187.254V284.843H188.19V286H187.28ZM190.259 278.031C189.965 278.031 189.748 277.962 189.609 277.823C189.479 277.684 189.414 277.507 189.414 277.29V277.069C189.414 276.852 189.479 276.675 189.609 276.536C189.748 276.397 189.965 276.328 190.259 276.328C190.554 276.328 190.766 276.397 190.896 276.536C191.026 276.675 191.091 276.852 191.091 277.069V277.29C191.091 277.507 191.026 277.684 190.896 277.823C190.766 277.962 190.554 278.031 190.259 278.031ZM189.544 279.24H190.961V286H189.544V279.24ZM194.454 286L192.153 279.24H193.557L194.584 282.321L195.273 284.687H195.351L196.04 282.321L197.093 279.24H198.445L196.118 286H194.454ZM201.769 286.156C201.128 286.156 200.591 286.043 200.157 285.818C199.724 285.593 199.347 285.281 199.026 284.882L199.936 284.05C200.188 284.353 200.465 284.592 200.768 284.765C201.08 284.93 201.44 285.012 201.847 285.012C202.263 285.012 202.571 284.934 202.77 284.778C202.978 284.613 203.082 284.388 203.082 284.102C203.082 283.885 203.009 283.703 202.861 283.556C202.723 283.4 202.476 283.3 202.12 283.257L201.496 283.179C200.803 283.092 200.257 282.893 199.858 282.581C199.468 282.26 199.273 281.788 199.273 281.164C199.273 280.835 199.334 280.544 199.455 280.293C199.577 280.033 199.746 279.816 199.962 279.643C200.188 279.461 200.452 279.322 200.755 279.227C201.067 279.132 201.41 279.084 201.782 279.084C202.389 279.084 202.883 279.179 203.264 279.37C203.654 279.561 204.001 279.825 204.304 280.163L203.433 280.995C203.26 280.787 203.03 280.609 202.744 280.462C202.467 280.306 202.146 280.228 201.782 280.228C201.392 280.228 201.102 280.306 200.911 280.462C200.729 280.618 200.638 280.822 200.638 281.073C200.638 281.333 200.721 281.528 200.885 281.658C201.05 281.788 201.314 281.883 201.678 281.944L202.302 282.022C203.048 282.135 203.589 282.356 203.927 282.685C204.274 283.006 204.447 283.439 204.447 283.985C204.447 284.314 204.382 284.613 204.252 284.882C204.131 285.142 203.953 285.367 203.719 285.558C203.485 285.749 203.204 285.896 202.874 286C202.545 286.104 202.177 286.156 201.769 286.156ZM206.048 279.24H207.465V280.358H207.53C207.678 279.951 207.916 279.639 208.245 279.422C208.583 279.197 208.978 279.084 209.428 279.084C210.286 279.084 210.949 279.396 211.417 280.02C211.885 280.635 212.119 281.502 212.119 282.62C212.119 283.738 211.885 284.609 211.417 285.233C210.949 285.848 210.286 286.156 209.428 286.156C208.978 286.156 208.583 286.043 208.245 285.818C207.916 285.593 207.678 285.281 207.53 284.882H207.465V288.6H206.048V279.24ZM208.999 284.934C209.493 284.934 209.888 284.778 210.182 284.466C210.477 284.145 210.624 283.725 210.624 283.205V282.035C210.624 281.515 210.477 281.099 210.182 280.787C209.888 280.466 209.493 280.306 208.999 280.306C208.566 280.306 208.202 280.414 207.907 280.631C207.613 280.839 207.465 281.116 207.465 281.463V283.777C207.465 284.124 207.613 284.405 207.907 284.622C208.202 284.83 208.566 284.934 208.999 284.934ZM216.394 286.156C215.926 286.156 215.497 286.074 215.107 285.909C214.725 285.744 214.4 285.51 214.132 285.207C213.863 284.895 213.655 284.522 213.508 284.089C213.36 283.647 213.287 283.157 213.287 282.62C213.287 282.083 213.36 281.597 213.508 281.164C213.655 280.722 213.863 280.349 214.132 280.046C214.4 279.734 214.725 279.496 215.107 279.331C215.497 279.166 215.926 279.084 216.394 279.084C216.862 279.084 217.286 279.166 217.668 279.331C218.058 279.496 218.387 279.734 218.656 280.046C218.924 280.349 219.132 280.722 219.28 281.164C219.427 281.597 219.501 282.083 219.501 282.62C219.501 283.157 219.427 283.647 219.28 284.089C219.132 284.522 218.924 284.895 218.656 285.207C218.387 285.51 218.058 285.744 217.668 285.909C217.286 286.074 216.862 286.156 216.394 286.156ZM216.394 284.986C216.879 284.986 217.269 284.839 217.564 284.544C217.858 284.241 218.006 283.79 218.006 283.192V282.048C218.006 281.45 217.858 281.004 217.564 280.709C217.269 280.406 216.879 280.254 216.394 280.254C215.908 280.254 215.518 280.406 215.224 280.709C214.929 281.004 214.782 281.45 214.782 282.048V283.192C214.782 283.79 214.929 284.241 215.224 284.544C215.518 284.839 215.908 284.986 216.394 284.986ZM222.522 286C222.037 286 221.673 285.879 221.43 285.636C221.196 285.385 221.079 285.038 221.079 284.596V276.38H222.496V284.843H223.432V286H222.522ZM225.501 278.031C225.207 278.031 224.99 277.962 224.851 277.823C224.721 277.684 224.656 277.507 224.656 277.29V277.069C224.656 276.852 224.721 276.675 224.851 276.536C224.99 276.397 225.207 276.328 225.501 276.328C225.796 276.328 226.008 276.397 226.138 276.536C226.268 276.675 226.333 276.852 226.333 277.069V277.29C226.333 277.507 226.268 277.684 226.138 277.823C226.008 277.962 225.796 278.031 225.501 278.031ZM224.786 279.24H226.203V286H224.786V279.24ZM230.099 286C229.605 286 229.232 285.874 228.981 285.623C228.73 285.363 228.604 284.999 228.604 284.531V280.397H227.551V279.24H228.123C228.357 279.24 228.517 279.188 228.604 279.084C228.699 278.98 228.747 278.811 228.747 278.577V277.394H230.021V279.24H231.438V280.397H230.021V284.843H231.334V286H230.099ZM233.69 278.031C233.395 278.031 233.179 277.962 233.04 277.823C232.91 277.684 232.845 277.507 232.845 277.29V277.069C232.845 276.852 232.91 276.675 233.04 276.536C233.179 276.397 233.395 276.328 233.69 276.328C233.985 276.328 234.197 276.397 234.327 276.536C234.457 276.675 234.522 276.852 234.522 277.069V277.29C234.522 277.507 234.457 277.684 234.327 277.823C234.197 277.962 233.985 278.031 233.69 278.031ZM232.975 279.24H234.392V286H232.975V279.24ZM236.415 276.38H237.832V282.282H237.897L238.833 281.073L240.458 279.24H242.109L239.743 281.853L242.395 286H240.705L238.768 282.776L237.832 283.79V286H236.415V276.38Z" fill="black"/>
<path d="M285.118 286V276.926H290.786V278.226H286.587V280.748H290.318V282.048H286.587V286H285.118ZM291.384 285.987L292.255 284.908C292.056 284.605 291.904 284.267 291.8 283.894C291.696 283.513 291.644 283.088 291.644 282.62C291.644 282.083 291.718 281.597 291.865 281.164C292.012 280.722 292.22 280.349 292.489 280.046C292.758 279.734 293.083 279.496 293.464 279.331C293.854 279.166 294.283 279.084 294.751 279.084C295.436 279.084 296.034 279.266 296.545 279.63L297.338 278.668L298.118 279.253L297.234 280.345C297.433 280.64 297.585 280.978 297.689 281.359C297.802 281.74 297.858 282.161 297.858 282.62C297.858 283.157 297.784 283.647 297.637 284.089C297.49 284.522 297.282 284.895 297.013 285.207C296.744 285.51 296.415 285.744 296.025 285.909C295.644 286.074 295.219 286.156 294.751 286.156C294.396 286.156 294.066 286.108 293.763 286.013C293.468 285.926 293.2 285.796 292.957 285.623L292.164 286.572L291.384 285.987ZM294.751 285.025C295.245 285.025 295.639 284.869 295.934 284.557C296.237 284.236 296.389 283.773 296.389 283.166V282.074C296.389 281.84 296.363 281.623 296.311 281.424L293.672 284.661C293.941 284.904 294.3 285.025 294.751 285.025ZM293.113 283.166C293.113 283.409 293.139 283.625 293.191 283.816L295.83 280.592C295.535 280.341 295.176 280.215 294.751 280.215C294.257 280.215 293.858 280.375 293.555 280.696C293.26 281.008 293.113 281.467 293.113 282.074V283.166ZM300.917 286C300.432 286 300.068 285.879 299.825 285.636C299.591 285.385 299.474 285.038 299.474 284.596V276.38H300.891V284.843H301.827V286H300.917ZM309.109 286.637C309.109 287.339 308.84 287.868 308.303 288.223C307.766 288.578 306.89 288.756 305.677 288.756C305.122 288.756 304.65 288.717 304.26 288.639C303.879 288.57 303.562 288.466 303.311 288.327C303.068 288.188 302.891 288.019 302.778 287.82C302.665 287.621 302.609 287.391 302.609 287.131C302.609 286.758 302.709 286.468 302.908 286.26C303.116 286.052 303.402 285.909 303.766 285.831V285.688C303.255 285.523 302.999 285.177 302.999 284.648C302.999 284.301 303.116 284.037 303.35 283.855C303.584 283.664 303.866 283.53 304.195 283.452V283.4C303.796 283.209 303.489 282.945 303.272 282.607C303.064 282.26 302.96 281.857 302.96 281.398C302.96 280.705 303.19 280.146 303.649 279.721C304.117 279.296 304.784 279.084 305.651 279.084C306.128 279.084 306.535 279.153 306.873 279.292V279.11C306.873 278.807 306.942 278.573 307.081 278.408C307.228 278.235 307.454 278.148 307.757 278.148H308.797V279.292H307.419V279.565C307.722 279.764 307.956 280.024 308.121 280.345C308.286 280.657 308.368 281.008 308.368 281.398C308.368 282.083 308.134 282.637 307.666 283.062C307.198 283.478 306.531 283.686 305.664 283.686C305.335 283.686 305.04 283.651 304.78 283.582C304.607 283.643 304.455 283.729 304.325 283.842C304.195 283.946 304.13 284.085 304.13 284.258C304.13 284.44 304.212 284.57 304.377 284.648C304.542 284.726 304.776 284.765 305.079 284.765H306.743C307.575 284.765 308.177 284.934 308.55 285.272C308.923 285.601 309.109 286.056 309.109 286.637ZM307.783 286.793C307.783 286.559 307.692 286.373 307.51 286.234C307.337 286.095 307.016 286.026 306.548 286.026H304.26C303.948 286.208 303.792 286.468 303.792 286.806C303.792 287.083 303.9 287.304 304.117 287.469C304.342 287.642 304.719 287.729 305.248 287.729H306.132C307.233 287.729 307.783 287.417 307.783 286.793ZM305.664 282.659C306.08 282.659 306.401 282.568 306.626 282.386C306.86 282.195 306.977 281.905 306.977 281.515V281.255C306.977 280.865 306.86 280.579 306.626 280.397C306.401 280.206 306.08 280.111 305.664 280.111C305.248 280.111 304.923 280.206 304.689 280.397C304.464 280.579 304.351 280.865 304.351 281.255V281.515C304.351 281.905 304.464 282.195 304.689 282.386C304.923 282.568 305.248 282.659 305.664 282.659ZM315.888 286.156C315.42 286.156 314.991 286.074 314.601 285.909C314.219 285.744 313.894 285.51 313.626 285.207C313.357 284.895 313.149 284.522 313.002 284.089C312.854 283.647 312.781 283.157 312.781 282.62C312.781 282.083 312.854 281.597 313.002 281.164C313.149 280.722 313.357 280.349 313.626 280.046C313.894 279.734 314.219 279.496 314.601 279.331C314.991 279.166 315.42 279.084 315.888 279.084C316.356 279.084 316.78 279.166 317.162 279.331C317.552 279.496 317.881 279.734 318.15 280.046C318.418 280.349 318.626 280.722 318.774 281.164C318.921 281.597 318.995 282.083 318.995 282.62C318.995 283.157 318.921 283.647 318.774 284.089C318.626 284.522 318.418 284.895 318.15 285.207C317.881 285.51 317.552 285.744 317.162 285.909C316.78 286.074 316.356 286.156 315.888 286.156ZM315.888 284.986C316.373 284.986 316.763 284.839 317.058 284.544C317.352 284.241 317.5 283.79 317.5 283.192V282.048C317.5 281.45 317.352 281.004 317.058 280.709C316.763 280.406 316.373 280.254 315.888 280.254C315.402 280.254 315.012 280.406 314.718 280.709C314.423 281.004 314.276 281.45 314.276 282.048V283.192C314.276 283.79 314.423 284.241 314.718 284.544C315.012 284.839 315.402 284.986 315.888 284.986ZM322.719 286.156C322.077 286.156 321.54 286.043 321.107 285.818C320.673 285.593 320.296 285.281 319.976 284.882L320.886 284.05C321.137 284.353 321.414 284.592 321.718 284.765C322.03 284.93 322.389 285.012 322.797 285.012C323.213 285.012 323.52 284.934 323.72 284.778C323.928 284.613 324.032 284.388 324.032 284.102C324.032 283.885 323.958 283.703 323.811 283.556C323.672 283.4 323.425 283.3 323.07 283.257L322.446 283.179C321.752 283.092 321.206 282.893 320.808 282.581C320.418 282.26 320.223 281.788 320.223 281.164C320.223 280.835 320.283 280.544 320.405 280.293C320.526 280.033 320.695 279.816 320.912 279.643C321.137 279.461 321.401 279.322 321.705 279.227C322.017 279.132 322.359 279.084 322.732 279.084C323.338 279.084 323.832 279.179 324.214 279.37C324.604 279.561 324.95 279.825 325.254 280.163L324.383 280.995C324.209 280.787 323.98 280.609 323.694 280.462C323.416 280.306 323.096 280.228 322.732 280.228C322.342 280.228 322.051 280.306 321.861 280.462C321.679 280.618 321.588 280.822 321.588 281.073C321.588 281.333 321.67 281.528 321.835 281.658C321.999 281.788 322.264 281.883 322.628 281.944L323.252 282.022C323.997 282.135 324.539 282.356 324.877 282.685C325.223 283.006 325.397 283.439 325.397 283.985C325.397 284.314 325.332 284.613 325.202 284.882C325.08 285.142 324.903 285.367 324.669 285.558C324.435 285.749 324.153 285.896 323.824 286C323.494 286.104 323.126 286.156 322.719 286.156Z" fill="black"/>
<rect width="386" height="119" transform="translate(16 16)" fill="#DCDCDC"/>
<rect width="386" height="119" transform="translate(16 16)" fill="#DCDCDC"/>
<rect width="185" height="80" transform="translate(16 151)" fill="#DCDCDC"/>
<rect width="185" height="80" transform="translate(16 151)" fill="#DCDCDC"/>
<rect width="118" height="12" transform="translate(16 299)" fill="#DCDCDC"/>
<rect width="118" height="12" transform="translate(150 299)" fill="#DCDCDC"/>
<rect width="118" height="12" transform="translate(284 299)" fill="#DCDCDC"/>
<rect width="118" height="12" transform="translate(16 319)" fill="#DCDCDC"/>
<rect width="118" height="12" transform="translate(150 319)" fill="#DCDCDC"/>
<rect width="118" height="12" transform="translate(284 319)" fill="#DCDCDC"/>
<rect width="118" height="12" transform="translate(16 339)" fill="#DCDCDC"/>
<rect width="118" height="12" transform="translate(150 339)" fill="#DCDCDC"/>
<rect width="118" height="12" transform="translate(284 339)" fill="#DCDCDC"/>
<rect width="185" height="80" transform="translate(217 151)" fill="#DCDCDC"/>
</svg>
