<svg width="418" height="398" viewBox="0 0 418 398" fill="none" xmlns="http://www.w3.org/2000/svg">
<rect width="418" height="398" fill="white"/>
<path d="M23.176 41.288C21.736 41.288 20.512 41.032 19.504 40.52C18.512 40.008 17.656 39.336 16.936 38.504L19.072 36.44C19.648 37.112 20.288 37.624 20.992 37.976C21.712 38.328 22.504 38.504 23.368 38.504C24.344 38.504 25.08 38.296 25.576 37.88C26.072 37.448 26.32 36.872 26.32 36.152C26.32 35.592 26.16 35.136 25.84 34.784C25.52 34.432 24.92 34.176 24.04 34.016L22.456 33.776C19.112 33.248 17.44 31.624 17.44 28.904C17.44 28.152 17.576 27.472 17.848 26.864C18.136 26.256 18.544 25.736 19.072 25.304C19.6 24.872 20.232 24.544 20.968 24.32C21.72 24.08 22.568 23.96 23.512 23.96C24.776 23.96 25.88 24.168 26.824 24.584C27.768 25 28.576 25.616 29.248 26.432L27.088 28.472C26.672 27.96 26.168 27.544 25.576 27.224C24.984 26.904 24.24 26.744 23.344 26.744C22.432 26.744 21.744 26.92 21.28 27.272C20.832 27.608 20.608 28.088 20.608 28.712C20.608 29.352 20.792 29.824 21.16 30.128C21.528 30.432 22.12 30.656 22.936 30.8L24.496 31.088C26.192 31.392 27.44 31.936 28.24 32.72C29.056 33.488 29.464 34.568 29.464 35.96C29.464 36.76 29.32 37.488 29.032 38.144C28.76 38.784 28.352 39.344 27.808 39.824C27.28 40.288 26.624 40.648 25.84 40.904C25.072 41.16 24.184 41.288 23.176 41.288ZM31.1519 40.88L32.7599 38.864C32.0559 37.776 31.7039 36.392 31.7039 34.712C31.7039 33.704 31.8399 32.8 32.1119 32C32.3839 31.2 32.7679 30.52 33.2639 29.96C33.7759 29.384 34.3839 28.944 35.0879 28.64C35.8079 28.336 36.6159 28.184 37.5119 28.184C38.7759 28.184 39.8559 28.488 40.7519 29.096L42.2159 27.344L43.8959 28.592L42.2639 30.608C42.6159 31.152 42.8799 31.776 43.0559 32.48C43.2479 33.168 43.3439 33.92 43.3439 34.736C43.3439 35.744 43.2079 36.656 42.9359 37.472C42.6639 38.272 42.2719 38.96 41.7599 39.536C41.2639 40.096 40.6559 40.528 39.9359 40.832C39.2159 41.136 38.4079 41.288 37.5119 41.288C36.2639 41.288 35.1839 40.992 34.2719 40.4L32.8319 42.128L31.1519 40.88ZM37.5119 38.96C38.3439 38.96 38.9999 38.688 39.4799 38.144C39.9599 37.584 40.1999 36.808 40.1999 35.816V32.936L35.7359 38.336C36.1999 38.752 36.7919 38.96 37.5119 38.96ZM34.8719 36.464L39.2879 31.136C38.8239 30.72 38.2319 30.512 37.5119 30.512C36.6959 30.512 36.0479 30.792 35.5679 31.352C35.1039 31.896 34.8719 32.664 34.8719 33.656V36.464ZM57.4628 42.056C57.4628 42.712 57.3428 43.288 57.1028 43.784C56.8788 44.296 56.5028 44.72 55.9748 45.056C55.4468 45.392 54.7668 45.648 53.9348 45.824C53.1028 46 52.0868 46.088 50.8868 46.088C49.8308 46.088 48.9348 46.016 48.1988 45.872C47.4628 45.744 46.8548 45.552 46.3748 45.296C45.9108 45.056 45.5748 44.752 45.3668 44.384C45.1588 44.016 45.0548 43.6 45.0548 43.136C45.0548 42.432 45.2468 41.88 45.6308 41.48C46.0308 41.096 46.5828 40.848 47.2868 40.736V40.472C46.7748 40.344 46.3748 40.096 46.0868 39.728C45.8148 39.344 45.6788 38.896 45.6788 38.384C45.6788 38.064 45.7428 37.784 45.8708 37.544C45.9988 37.288 46.1668 37.072 46.3748 36.896C46.5988 36.72 46.8468 36.576 47.1188 36.464C47.3908 36.336 47.6788 36.24 47.9828 36.176V36.08C47.2148 35.728 46.6388 35.24 46.2548 34.616C45.8868 33.992 45.7028 33.264 45.7028 32.432C45.7028 31.152 46.1428 30.128 47.0228 29.36C47.9028 28.576 49.1908 28.184 50.8868 28.184C51.2708 28.184 51.6468 28.208 52.0148 28.256C52.3988 28.304 52.7508 28.384 53.0708 28.496V28.088C53.0708 26.872 53.6628 26.264 54.8468 26.264H56.7908V28.616H54.1268V28.952C54.7828 29.32 55.2708 29.8 55.5908 30.392C55.9108 30.984 56.0708 31.664 56.0708 32.432C56.0708 33.696 55.6308 34.712 54.7508 35.48C53.8868 36.248 52.5988 36.632 50.8868 36.632C50.1508 36.632 49.5108 36.56 48.9668 36.416C48.7268 36.528 48.5188 36.68 48.3428 36.872C48.1668 37.048 48.0788 37.272 48.0788 37.544C48.0788 38.168 48.6228 38.48 49.7108 38.48H53.0708C54.6068 38.48 55.7188 38.8 56.4068 39.44C57.1108 40.064 57.4628 40.936 57.4628 42.056ZM54.5828 42.416C54.5828 42.016 54.4228 41.704 54.1028 41.48C53.7828 41.256 53.2308 41.144 52.4468 41.144H48.1748C47.7428 41.464 47.5268 41.896 47.5268 42.44C47.5268 42.92 47.7268 43.296 48.1268 43.568C48.5268 43.84 49.2068 43.976 50.1668 43.976H51.7028C52.7108 43.976 53.4388 43.848 53.8868 43.592C54.3508 43.336 54.5828 42.944 54.5828 42.416ZM50.8868 34.544C52.3908 34.544 53.1428 33.904 53.1428 32.624V32.216C53.1428 30.936 52.3908 30.296 50.8868 30.296C49.3828 30.296 48.6308 30.936 48.6308 32.216V32.624C48.6308 33.904 49.3828 34.544 50.8868 34.544ZM64.9088 23.24H67.9808V30.536H68.0768C68.3008 29.816 68.7248 29.248 69.3488 28.832C69.9728 28.4 70.7008 28.184 71.5328 28.184C73.1328 28.184 74.3488 28.752 75.1808 29.888C76.0288 31.008 76.4528 32.616 76.4528 34.712C76.4528 36.824 76.0288 38.448 75.1808 39.584C74.3488 40.72 73.1328 41.288 71.5328 41.288C70.7008 41.288 69.9728 41.072 69.3488 40.64C68.7408 40.208 68.3168 39.632 68.0768 38.912H67.9808V41H64.9088V23.24ZM70.5488 38.744C71.3488 38.744 71.9968 38.48 72.4928 37.952C72.9888 37.424 73.2368 36.712 73.2368 35.816V33.656C73.2368 32.76 72.9888 32.048 72.4928 31.52C71.9968 30.976 71.3488 30.704 70.5488 30.704C69.8128 30.704 69.1968 30.888 68.7008 31.256C68.2208 31.624 67.9808 32.112 67.9808 32.72V36.704C67.9808 37.36 68.2208 37.864 68.7008 38.216C69.1968 38.568 69.8128 38.744 70.5488 38.744ZM84.2674 41.288C83.3714 41.288 82.5634 41.136 81.8434 40.832C81.1394 40.528 80.5314 40.088 80.0194 39.512C79.5234 38.936 79.1394 38.248 78.8674 37.448C78.5954 36.632 78.4594 35.72 78.4594 34.712C78.4594 33.704 78.5954 32.8 78.8674 32C79.1394 31.2 79.5234 30.52 80.0194 29.96C80.5314 29.384 81.1394 28.944 81.8434 28.64C82.5634 28.336 83.3714 28.184 84.2674 28.184C85.1634 28.184 85.9714 28.336 86.6914 28.64C87.4114 28.944 88.0194 29.384 88.5154 29.96C89.0274 30.52 89.4194 31.2 89.6914 32C89.9634 32.8 90.0994 33.704 90.0994 34.712C90.0994 35.72 89.9634 36.632 89.6914 37.448C89.4194 38.248 89.0274 38.936 88.5154 39.512C88.0194 40.088 87.4114 40.528 86.6914 40.832C85.9714 41.136 85.1634 41.288 84.2674 41.288ZM84.2674 38.816C85.0834 38.816 85.7234 38.568 86.1874 38.072C86.6514 37.576 86.8834 36.848 86.8834 35.888V33.56C86.8834 32.616 86.6514 31.896 86.1874 31.4C85.7234 30.904 85.0834 30.656 84.2674 30.656C83.4674 30.656 82.8354 30.904 82.3714 31.4C81.9074 31.896 81.6754 32.616 81.6754 33.56V35.888C81.6754 36.848 81.9074 37.576 82.3714 38.072C82.8354 38.568 83.4674 38.816 84.2674 38.816ZM95.8949 41C94.8389 41 94.0629 40.736 93.5669 40.208C93.0709 39.68 92.8229 38.936 92.8229 37.976V23.24H95.8949V38.552H97.5509V41H95.8949ZM101.414 26.648C100.774 26.648 100.31 26.504 100.022 26.216C99.7496 25.928 99.6136 25.56 99.6136 25.112V24.632C99.6136 24.184 99.7496 23.816 100.022 23.528C100.31 23.24 100.774 23.096 101.414 23.096C102.038 23.096 102.494 23.24 102.782 23.528C103.07 23.816 103.214 24.184 103.214 24.632V25.112C103.214 25.56 103.07 25.928 102.782 26.216C102.494 26.504 102.038 26.648 101.414 26.648ZM99.8776 28.472H102.95V41H99.8776V28.472ZM117.814 42.056C117.814 42.712 117.694 43.288 117.454 43.784C117.23 44.296 116.854 44.72 116.326 45.056C115.798 45.392 115.118 45.648 114.286 45.824C113.454 46 112.438 46.088 111.238 46.088C110.182 46.088 109.286 46.016 108.55 45.872C107.814 45.744 107.206 45.552 106.726 45.296C106.262 45.056 105.926 44.752 105.718 44.384C105.51 44.016 105.406 43.6 105.406 43.136C105.406 42.432 105.598 41.88 105.982 41.48C106.382 41.096 106.934 40.848 107.638 40.736V40.472C107.126 40.344 106.726 40.096 106.438 39.728C106.166 39.344 106.03 38.896 106.03 38.384C106.03 38.064 106.094 37.784 106.222 37.544C106.35 37.288 106.518 37.072 106.726 36.896C106.95 36.72 107.198 36.576 107.47 36.464C107.742 36.336 108.03 36.24 108.334 36.176V36.08C107.566 35.728 106.99 35.24 106.606 34.616C106.238 33.992 106.054 33.264 106.054 32.432C106.054 31.152 106.494 30.128 107.374 29.36C108.254 28.576 109.542 28.184 111.238 28.184C111.622 28.184 111.998 28.208 112.366 28.256C112.75 28.304 113.102 28.384 113.422 28.496V28.088C113.422 26.872 114.014 26.264 115.198 26.264H117.142V28.616H114.478V28.952C115.134 29.32 115.622 29.8 115.942 30.392C116.262 30.984 116.422 31.664 116.422 32.432C116.422 33.696 115.982 34.712 115.102 35.48C114.238 36.248 112.95 36.632 111.238 36.632C110.502 36.632 109.862 36.56 109.318 36.416C109.078 36.528 108.87 36.68 108.694 36.872C108.518 37.048 108.43 37.272 108.43 37.544C108.43 38.168 108.974 38.48 110.062 38.48H113.422C114.958 38.48 116.07 38.8 116.758 39.44C117.462 40.064 117.814 40.936 117.814 42.056ZM114.934 42.416C114.934 42.016 114.774 41.704 114.454 41.48C114.134 41.256 113.582 41.144 112.798 41.144H108.526C108.094 41.464 107.878 41.896 107.878 42.44C107.878 42.92 108.078 43.296 108.478 43.568C108.878 43.84 109.558 43.976 110.518 43.976H112.054C113.062 43.976 113.79 43.848 114.238 43.592C114.702 43.336 114.934 42.944 114.934 42.416ZM111.238 34.544C112.742 34.544 113.494 33.904 113.494 32.624V32.216C113.494 30.936 112.742 30.296 111.238 30.296C109.734 30.296 108.982 30.936 108.982 32.216V32.624C108.982 33.904 109.734 34.544 111.238 34.544ZM123.693 41.288C122.493 41.288 121.485 41.088 120.669 40.688C119.853 40.272 119.133 39.704 118.509 38.984L120.381 37.16C120.845 37.688 121.349 38.104 121.893 38.408C122.453 38.712 123.093 38.864 123.812 38.864C124.549 38.864 125.077 38.736 125.397 38.48C125.733 38.224 125.901 37.872 125.901 37.424C125.901 37.056 125.781 36.768 125.541 36.56C125.317 36.336 124.925 36.184 124.365 36.104L123.117 35.936C121.757 35.76 120.717 35.376 119.997 34.784C119.293 34.176 118.941 33.296 118.941 32.144C118.941 31.536 119.053 30.992 119.277 30.512C119.501 30.016 119.821 29.6 120.237 29.264C120.653 28.912 121.149 28.648 121.725 28.472C122.317 28.28 122.973 28.184 123.693 28.184C124.301 28.184 124.837 28.232 125.301 28.328C125.781 28.408 126.213 28.536 126.597 28.712C126.981 28.872 127.333 29.08 127.653 29.336C127.973 29.576 128.285 29.848 128.589 30.152L126.789 31.952C126.421 31.568 125.981 31.248 125.469 30.992C124.957 30.736 124.397 30.608 123.789 30.608C123.117 30.608 122.629 30.728 122.325 30.968C122.037 31.208 121.893 31.52 121.893 31.904C121.893 32.32 122.013 32.64 122.253 32.864C122.509 33.072 122.933 33.224 123.525 33.32L124.797 33.488C127.501 33.872 128.853 35.104 128.853 37.184C128.853 37.792 128.725 38.352 128.469 38.864C128.229 39.36 127.885 39.792 127.437 40.16C126.989 40.512 126.445 40.792 125.805 41C125.181 41.192 124.477 41.288 123.693 41.288ZM135.29 41C134.234 41 133.426 40.728 132.866 40.184C132.322 39.624 132.05 38.832 132.05 37.808V30.92H130.202V28.472H131.162C131.626 28.472 131.938 28.368 132.098 28.16C132.274 27.936 132.362 27.608 132.362 27.176V25.04H135.122V28.472H137.69V30.92H135.122V38.552H137.498V41H135.29ZM138.964 40.88L140.572 38.864C139.868 37.776 139.516 36.392 139.516 34.712C139.516 33.704 139.652 32.8 139.924 32C140.196 31.2 140.58 30.52 141.076 29.96C141.588 29.384 142.196 28.944 142.9 28.64C143.62 28.336 144.428 28.184 145.324 28.184C146.588 28.184 147.668 28.488 148.564 29.096L150.028 27.344L151.708 28.592L150.076 30.608C150.428 31.152 150.692 31.776 150.868 32.48C151.06 33.168 151.156 33.92 151.156 34.736C151.156 35.744 151.02 36.656 150.748 37.472C150.476 38.272 150.084 38.96 149.572 39.536C149.076 40.096 148.468 40.528 147.748 40.832C147.028 41.136 146.22 41.288 145.324 41.288C144.076 41.288 142.996 40.992 142.084 40.4L140.644 42.128L138.964 40.88ZM145.324 38.96C146.156 38.96 146.812 38.688 147.292 38.144C147.772 37.584 148.012 36.808 148.012 35.816V32.936L143.548 38.336C144.012 38.752 144.604 38.96 145.324 38.96ZM142.684 36.464L147.1 31.136C146.636 30.72 146.044 30.512 145.324 30.512C144.508 30.512 143.86 30.792 143.38 31.352C142.916 31.896 142.684 32.664 142.684 33.656V36.464ZM157.79 41C156.734 41 155.926 40.728 155.366 40.184C154.822 39.624 154.55 38.832 154.55 37.808V30.92H152.702V28.472H153.662C154.126 28.472 154.438 28.368 154.598 28.16C154.774 27.936 154.862 27.608 154.862 27.176V25.04H157.622V28.472H160.19V30.92H157.622V38.552H159.998V41H157.79ZM166.626 41C165.57 41 164.762 40.728 164.202 40.184C163.658 39.624 163.386 38.832 163.386 37.808V30.92H161.538V28.472H162.498C162.962 28.472 163.274 28.368 163.434 28.16C163.61 27.936 163.698 27.608 163.698 27.176V25.04H166.458V28.472H169.026V30.92H166.458V38.552H168.834V41H166.626ZM176.66 41.288C175.732 41.288 174.9 41.136 174.164 40.832C173.444 40.512 172.828 40.072 172.316 39.512C171.82 38.936 171.436 38.248 171.164 37.448C170.892 36.632 170.756 35.72 170.756 34.712C170.756 33.72 170.884 32.824 171.14 32.024C171.412 31.224 171.796 30.544 172.292 29.984C172.788 29.408 173.396 28.968 174.116 28.664C174.836 28.344 175.652 28.184 176.564 28.184C177.54 28.184 178.388 28.352 179.108 28.688C179.828 29.024 180.42 29.48 180.884 30.056C181.348 30.632 181.692 31.304 181.916 32.072C182.156 32.824 182.276 33.632 182.276 34.496V35.504H173.948V35.816C173.948 36.728 174.204 37.464 174.716 38.024C175.228 38.568 175.988 38.84 176.996 38.84C177.764 38.84 178.388 38.68 178.868 38.36C179.364 38.04 179.804 37.632 180.188 37.136L181.844 38.984C181.332 39.704 180.628 40.272 179.732 40.688C178.852 41.088 177.828 41.288 176.66 41.288ZM176.612 30.488C175.796 30.488 175.148 30.76 174.668 31.304C174.188 31.848 173.948 32.552 173.948 33.416V33.608H179.084V33.392C179.084 32.528 178.868 31.832 178.436 31.304C178.02 30.76 177.412 30.488 176.612 30.488Z" fill="black"/>
<path d="M24.224 124L23.328 121.152H19.36L18.48 124H16.336L20.08 112.832H22.704L26.416 124H24.224ZM21.376 114.752H21.296L19.872 119.344H22.816L21.376 114.752ZM27.934 124V115.648H29.982V117.04H30.062C30.2327 116.592 30.4993 116.219 30.862 115.92C31.2353 115.611 31.7473 115.456 32.398 115.456C33.262 115.456 33.9233 115.739 34.382 116.304C34.8407 116.869 35.07 117.675 35.07 118.72V124H33.022V118.928C33.022 118.331 32.9153 117.883 32.702 117.584C32.4887 117.285 32.1367 117.136 31.646 117.136C31.4327 117.136 31.2247 117.168 31.022 117.232C30.83 117.285 30.654 117.371 30.494 117.488C30.3447 117.595 30.222 117.733 30.126 117.904C30.03 118.064 29.982 118.256 29.982 118.48V124H27.934ZM44.8763 124.704C44.8763 125.141 44.7963 125.525 44.6363 125.856C44.4869 126.197 44.2363 126.48 43.8843 126.704C43.5323 126.928 43.0789 127.099 42.5243 127.216C41.9696 127.333 41.2923 127.392 40.4923 127.392C39.7883 127.392 39.1909 127.344 38.7003 127.248C38.2096 127.163 37.8043 127.035 37.4843 126.864C37.1749 126.704 36.9509 126.501 36.8123 126.256C36.6736 126.011 36.6043 125.733 36.6043 125.424C36.6043 124.955 36.7323 124.587 36.9883 124.32C37.2549 124.064 37.6229 123.899 38.0923 123.824V123.648C37.7509 123.563 37.4843 123.397 37.2923 123.152C37.1109 122.896 37.0203 122.597 37.0203 122.256C37.0203 122.043 37.0629 121.856 37.1483 121.696C37.2336 121.525 37.3456 121.381 37.4843 121.264C37.6336 121.147 37.7989 121.051 37.9803 120.976C38.1616 120.891 38.3536 120.827 38.5563 120.784V120.72C38.0443 120.485 37.6603 120.16 37.4043 119.744C37.1589 119.328 37.0363 118.843 37.0363 118.288C37.0363 117.435 37.3296 116.752 37.9163 116.24C38.5029 115.717 39.3616 115.456 40.4923 115.456C40.7483 115.456 40.9989 115.472 41.2443 115.504C41.5003 115.536 41.7349 115.589 41.9483 115.664V115.392C41.9483 114.581 42.3429 114.176 43.1323 114.176H44.4283V115.744H42.6523V115.968C43.0896 116.213 43.4149 116.533 43.6283 116.928C43.8416 117.323 43.9483 117.776 43.9483 118.288C43.9483 119.131 43.6549 119.808 43.0683 120.32C42.4923 120.832 41.6336 121.088 40.4923 121.088C40.0016 121.088 39.5749 121.04 39.2123 120.944C39.0523 121.019 38.9136 121.12 38.7963 121.248C38.6789 121.365 38.6203 121.515 38.6203 121.696C38.6203 122.112 38.9829 122.32 39.7083 122.32H41.9483C42.9723 122.32 43.7136 122.533 44.1723 122.96C44.6416 123.376 44.8763 123.957 44.8763 124.704ZM42.9563 124.944C42.9563 124.677 42.8496 124.469 42.6363 124.32C42.4229 124.171 42.0549 124.096 41.5323 124.096H38.6843C38.3963 124.309 38.2523 124.597 38.2523 124.96C38.2523 125.28 38.3856 125.531 38.6523 125.712C38.9189 125.893 39.3723 125.984 40.0123 125.984H41.0363C41.7083 125.984 42.1936 125.899 42.4923 125.728C42.8016 125.557 42.9563 125.296 42.9563 124.944ZM40.4923 119.696C41.4949 119.696 41.9963 119.269 41.9963 118.416V118.144C41.9963 117.291 41.4949 116.864 40.4923 116.864C39.4896 116.864 38.9883 117.291 38.9883 118.144V118.416C38.9883 119.269 39.4896 119.696 40.4923 119.696ZM47.083 114.432C46.6563 114.432 46.347 114.336 46.155 114.144C45.9737 113.952 45.883 113.707 45.883 113.408V113.088C45.883 112.789 45.9737 112.544 46.155 112.352C46.347 112.16 46.6563 112.064 47.083 112.064C47.499 112.064 47.803 112.16 47.995 112.352C48.187 112.544 48.283 112.789 48.283 113.088V113.408C48.283 113.707 48.187 113.952 47.995 114.144C47.803 114.336 47.499 114.432 47.083 114.432ZM46.059 115.648H48.107V124H46.059V115.648ZM52.2729 124L49.4889 115.648H51.5049L52.6729 119.248L53.4889 122.224H53.6009L54.4169 119.248L55.5529 115.648H57.5049L54.7049 124H52.2729ZM65.9648 124.192C65.3674 124.192 64.8288 124.091 64.3488 123.888C63.8794 123.685 63.4741 123.392 63.1328 123.008C62.8021 122.624 62.5461 122.165 62.3648 121.632C62.1834 121.088 62.0928 120.48 62.0928 119.808C62.0928 119.136 62.1834 118.533 62.3648 118C62.5461 117.467 62.8021 117.013 63.1328 116.64C63.4741 116.256 63.8794 115.963 64.3488 115.76C64.8288 115.557 65.3674 115.456 65.9648 115.456C66.5621 115.456 67.1008 115.557 67.5808 115.76C68.0608 115.963 68.4661 116.256 68.7968 116.64C69.1381 117.013 69.3994 117.467 69.5808 118C69.7621 118.533 69.8528 119.136 69.8528 119.808C69.8528 120.48 69.7621 121.088 69.5808 121.632C69.3994 122.165 69.1381 122.624 68.7968 123.008C68.4661 123.392 68.0608 123.685 67.5808 123.888C67.1008 124.091 66.5621 124.192 65.9648 124.192ZM65.9648 122.544C66.5088 122.544 66.9354 122.379 67.2448 122.048C67.5541 121.717 67.7088 121.232 67.7088 120.592V119.04C67.7088 118.411 67.5541 117.931 67.2448 117.6C66.9354 117.269 66.5088 117.104 65.9648 117.104C65.4314 117.104 65.0101 117.269 64.7008 117.6C64.3914 117.931 64.2368 118.411 64.2368 119.04V120.592C64.2368 121.232 64.3914 121.717 64.7008 122.048C65.0101 122.379 65.4314 122.544 65.9648 122.544ZM71.6684 115.648H73.7164V117.024H73.7804C73.9297 116.544 74.2124 116.165 74.6284 115.888C75.0444 115.6 75.5297 115.456 76.0844 115.456C77.151 115.456 77.9617 115.835 78.5164 116.592C79.0817 117.339 79.3644 118.411 79.3644 119.808C79.3644 121.216 79.0817 122.299 78.5164 123.056C77.9617 123.813 77.151 124.192 76.0844 124.192C75.5297 124.192 75.0444 124.048 74.6284 123.76C74.223 123.472 73.9404 123.088 73.7804 122.608H73.7164V127.2H71.6684V115.648ZM75.4284 122.496C75.9617 122.496 76.3937 122.32 76.7244 121.968C77.055 121.616 77.2204 121.141 77.2204 120.544V119.104C77.2204 118.507 77.055 118.032 76.7244 117.68C76.3937 117.317 75.9617 117.136 75.4284 117.136C74.9377 117.136 74.527 117.259 74.1964 117.504C73.8764 117.749 73.7164 118.075 73.7164 118.48V121.136C73.7164 121.573 73.8764 121.909 74.1964 122.144C74.527 122.379 74.9377 122.496 75.4284 122.496ZM83.3101 124C82.6061 124 82.0888 123.824 81.7581 123.472C81.4275 123.12 81.2621 122.624 81.2621 121.984V112.16H83.3101V122.368H84.4141V124H83.3101ZM90.9759 115.648H92.8959L89.5359 125.488C89.4292 125.787 89.3065 126.043 89.1679 126.256C89.0399 126.48 88.8852 126.661 88.7039 126.8C88.5225 126.939 88.3039 127.04 88.0479 127.104C87.7919 127.168 87.4932 127.2 87.1519 127.2H85.9199V125.568H87.4239L87.8079 124.4L84.8159 115.648H86.8479L88.3039 120.064L88.8479 122.176H88.9439L89.5199 120.064L90.9759 115.648ZM96.8575 124.192C96.0575 124.192 95.3855 124.059 94.8415 123.792C94.2975 123.515 93.8175 123.136 93.4015 122.656L94.6495 121.44C94.9588 121.792 95.2948 122.069 95.6575 122.272C96.0308 122.475 96.4575 122.576 96.9375 122.576C97.4282 122.576 97.7802 122.491 97.9935 122.32C98.2175 122.149 98.3295 121.915 98.3295 121.616C98.3295 121.371 98.2495 121.179 98.0895 121.04C97.9402 120.891 97.6788 120.789 97.3055 120.736L96.4735 120.624C95.5668 120.507 94.8735 120.251 94.3935 119.856C93.9242 119.451 93.6895 118.864 93.6895 118.096C93.6895 117.691 93.7642 117.328 93.9135 117.008C94.0628 116.677 94.2762 116.4 94.5535 116.176C94.8308 115.941 95.1615 115.765 95.5455 115.648C95.9402 115.52 96.3775 115.456 96.8575 115.456C97.2628 115.456 97.6202 115.488 97.9295 115.552C98.2495 115.605 98.5375 115.691 98.7935 115.808C99.0495 115.915 99.2842 116.053 99.4975 116.224C99.7108 116.384 99.9188 116.565 100.122 116.768L98.9215 117.968C98.6762 117.712 98.3828 117.499 98.0415 117.328C97.7002 117.157 97.3268 117.072 96.9215 117.072C96.4735 117.072 96.1482 117.152 95.9455 117.312C95.7535 117.472 95.6575 117.68 95.6575 117.936C95.6575 118.213 95.7375 118.427 95.8975 118.576C96.0682 118.715 96.3508 118.816 96.7455 118.88L97.5935 118.992C99.3962 119.248 100.298 120.069 100.298 121.456C100.298 121.861 100.212 122.235 100.042 122.576C99.8815 122.907 99.6522 123.195 99.3535 123.44C99.0548 123.675 98.6922 123.861 98.2655 124C97.8495 124.128 97.3802 124.192 96.8575 124.192ZM102.106 124V115.648H104.154V117.04H104.234C104.405 116.592 104.671 116.219 105.034 115.92C105.407 115.611 105.919 115.456 106.57 115.456C107.434 115.456 108.095 115.739 108.554 116.304C109.013 116.869 109.242 117.675 109.242 118.72V124H107.194V118.928C107.194 118.331 107.087 117.883 106.874 117.584C106.661 117.285 106.309 117.136 105.818 117.136C105.605 117.136 105.397 117.168 105.194 117.232C105.002 117.285 104.826 117.371 104.666 117.488C104.517 117.595 104.394 117.733 104.298 117.904C104.202 118.064 104.154 118.256 104.154 118.48V124H102.106ZM112.536 114.432C112.109 114.432 111.8 114.336 111.608 114.144C111.427 113.952 111.336 113.707 111.336 113.408V113.088C111.336 112.789 111.427 112.544 111.608 112.352C111.8 112.16 112.109 112.064 112.536 112.064C112.952 112.064 113.256 112.16 113.448 112.352C113.64 112.544 113.736 112.789 113.736 113.088V113.408C113.736 113.707 113.64 113.952 113.448 114.144C113.256 114.336 112.952 114.432 112.536 114.432ZM111.512 115.648H113.56V124H111.512V115.648ZM115.934 124V115.648H117.982V117.04H118.062C118.233 116.592 118.499 116.219 118.862 115.92C119.235 115.611 119.747 115.456 120.398 115.456C121.262 115.456 121.923 115.739 122.382 116.304C122.841 116.869 123.07 117.675 123.07 118.72V124H121.022V118.928C121.022 118.331 120.915 117.883 120.702 117.584C120.489 117.285 120.137 117.136 119.646 117.136C119.433 117.136 119.225 117.168 119.022 117.232C118.83 117.285 118.654 117.371 118.494 117.488C118.345 117.595 118.222 117.733 118.126 117.904C118.03 118.064 117.982 118.256 117.982 118.48V124H115.934ZM132.876 124.704C132.876 125.141 132.796 125.525 132.636 125.856C132.487 126.197 132.236 126.48 131.884 126.704C131.532 126.928 131.079 127.099 130.524 127.216C129.97 127.333 129.292 127.392 128.492 127.392C127.788 127.392 127.191 127.344 126.7 127.248C126.21 127.163 125.804 127.035 125.484 126.864C125.175 126.704 124.951 126.501 124.812 126.256C124.674 126.011 124.604 125.733 124.604 125.424C124.604 124.955 124.732 124.587 124.988 124.32C125.255 124.064 125.623 123.899 126.092 123.824V123.648C125.751 123.563 125.484 123.397 125.292 123.152C125.111 122.896 125.02 122.597 125.02 122.256C125.02 122.043 125.063 121.856 125.148 121.696C125.234 121.525 125.346 121.381 125.484 121.264C125.634 121.147 125.799 121.051 125.98 120.976C126.162 120.891 126.354 120.827 126.556 120.784V120.72C126.044 120.485 125.66 120.16 125.404 119.744C125.159 119.328 125.036 118.843 125.036 118.288C125.036 117.435 125.33 116.752 125.916 116.24C126.503 115.717 127.362 115.456 128.492 115.456C128.748 115.456 128.999 115.472 129.244 115.504C129.5 115.536 129.735 115.589 129.948 115.664V115.392C129.948 114.581 130.343 114.176 131.132 114.176H132.428V115.744H130.652V115.968C131.09 116.213 131.415 116.533 131.628 116.928C131.842 117.323 131.948 117.776 131.948 118.288C131.948 119.131 131.655 119.808 131.068 120.32C130.492 120.832 129.634 121.088 128.492 121.088C128.002 121.088 127.575 121.04 127.212 120.944C127.052 121.019 126.914 121.12 126.796 121.248C126.679 121.365 126.62 121.515 126.62 121.696C126.62 122.112 126.983 122.32 127.708 122.32H129.948C130.972 122.32 131.714 122.533 132.172 122.96C132.642 123.376 132.876 123.957 132.876 124.704ZM130.956 124.944C130.956 124.677 130.85 124.469 130.636 124.32C130.423 124.171 130.055 124.096 129.532 124.096H126.684C126.396 124.309 126.252 124.597 126.252 124.96C126.252 125.28 126.386 125.531 126.652 125.712C126.919 125.893 127.372 125.984 128.012 125.984H129.036C129.708 125.984 130.194 125.899 130.492 125.728C130.802 125.557 130.956 125.296 130.956 124.944ZM128.492 119.696C129.495 119.696 129.996 119.269 129.996 118.416V118.144C129.996 117.291 129.495 116.864 128.492 116.864C127.49 116.864 126.988 117.291 126.988 118.144V118.416C126.988 119.269 127.49 119.696 128.492 119.696ZM137.341 124.192C136.723 124.192 136.168 124.091 135.677 123.888C135.197 123.675 134.787 123.381 134.445 123.008C134.115 122.624 133.859 122.165 133.677 121.632C133.496 121.088 133.405 120.48 133.405 119.808C133.405 119.147 133.491 118.549 133.661 118.016C133.843 117.483 134.099 117.029 134.429 116.656C134.76 116.272 135.165 115.979 135.645 115.776C136.125 115.563 136.669 115.456 137.277 115.456C137.928 115.456 138.493 115.568 138.973 115.792C139.453 116.016 139.848 116.32 140.157 116.704C140.467 117.088 140.696 117.536 140.845 118.048C141.005 118.549 141.085 119.088 141.085 119.664V120.336H135.533V120.544C135.533 121.152 135.704 121.643 136.045 122.016C136.387 122.379 136.893 122.56 137.565 122.56C138.077 122.56 138.493 122.453 138.813 122.24C139.144 122.027 139.437 121.755 139.693 121.424L140.797 122.656C140.456 123.136 139.987 123.515 139.389 123.792C138.803 124.059 138.12 124.192 137.341 124.192ZM137.309 116.992C136.765 116.992 136.333 117.173 136.013 117.536C135.693 117.899 135.533 118.368 135.533 118.944V119.072H138.957V118.928C138.957 118.352 138.813 117.888 138.525 117.536C138.248 117.173 137.843 116.992 137.309 116.992ZM142.887 124V115.648H144.935V117.376H145.015C145.068 117.152 145.148 116.939 145.255 116.736C145.372 116.523 145.522 116.336 145.703 116.176C145.884 116.016 146.098 115.888 146.343 115.792C146.599 115.696 146.892 115.648 147.223 115.648H147.671V117.584H147.031C146.338 117.584 145.815 117.685 145.463 117.888C145.111 118.091 144.935 118.421 144.935 118.88V124H142.887ZM156.262 124.192C155.664 124.192 155.126 124.091 154.646 123.888C154.176 123.685 153.771 123.392 153.43 123.008C153.099 122.624 152.843 122.165 152.662 121.632C152.48 121.088 152.39 120.48 152.39 119.808C152.39 119.136 152.48 118.533 152.662 118C152.843 117.467 153.099 117.013 153.43 116.64C153.771 116.256 154.176 115.963 154.646 115.76C155.126 115.557 155.664 115.456 156.262 115.456C156.859 115.456 157.398 115.557 157.878 115.76C158.358 115.963 158.763 116.256 159.094 116.64C159.435 117.013 159.696 117.467 159.878 118C160.059 118.533 160.15 119.136 160.15 119.808C160.15 120.48 160.059 121.088 159.878 121.632C159.696 122.165 159.435 122.624 159.094 123.008C158.763 123.392 158.358 123.685 157.878 123.888C157.398 124.091 156.859 124.192 156.262 124.192ZM156.262 122.544C156.806 122.544 157.232 122.379 157.542 122.048C157.851 121.717 158.006 121.232 158.006 120.592V119.04C158.006 118.411 157.851 117.931 157.542 117.6C157.232 117.269 156.806 117.104 156.262 117.104C155.728 117.104 155.307 117.269 154.998 117.6C154.688 117.931 154.534 118.411 154.534 119.04V120.592C154.534 121.232 154.688 121.717 154.998 122.048C155.307 122.379 155.728 122.544 156.262 122.544ZM161.965 124V115.648H164.013V117.04H164.093C164.253 116.603 164.509 116.229 164.861 115.92C165.213 115.611 165.704 115.456 166.333 115.456C166.909 115.456 167.405 115.595 167.821 115.872C168.237 116.149 168.547 116.571 168.749 117.136H168.781C168.931 116.667 169.224 116.272 169.661 115.952C170.109 115.621 170.669 115.456 171.341 115.456C172.163 115.456 172.792 115.739 173.229 116.304C173.677 116.869 173.901 117.675 173.901 118.72V124H171.853V118.928C171.853 117.733 171.405 117.136 170.509 117.136C170.307 117.136 170.109 117.168 169.917 117.232C169.736 117.285 169.571 117.371 169.421 117.488C169.283 117.595 169.171 117.733 169.085 117.904C169 118.064 168.957 118.256 168.957 118.48V124H166.909V118.928C166.909 117.733 166.461 117.136 165.565 117.136C165.373 117.136 165.181 117.168 164.989 117.232C164.808 117.285 164.643 117.371 164.493 117.488C164.355 117.595 164.237 117.733 164.141 117.904C164.056 118.064 164.013 118.256 164.013 118.48V124H161.965ZM185.134 122.608H185.054C184.904 123.088 184.622 123.472 184.206 123.76C183.79 124.048 183.304 124.192 182.75 124.192C181.694 124.192 180.883 123.813 180.318 123.056C179.763 122.299 179.486 121.216 179.486 119.808C179.486 118.411 179.763 117.339 180.318 116.592C180.883 115.835 181.694 115.456 182.75 115.456C183.304 115.456 183.79 115.6 184.206 115.888C184.622 116.165 184.904 116.544 185.054 117.024H185.134V112.16H187.182V124H185.134V122.608ZM183.406 122.496C183.896 122.496 184.307 122.379 184.638 122.144C184.968 121.909 185.134 121.573 185.134 121.136V118.48C185.134 118.075 184.968 117.749 184.638 117.504C184.307 117.259 183.896 117.136 183.406 117.136C182.872 117.136 182.44 117.317 182.11 117.68C181.79 118.032 181.63 118.507 181.63 119.104V120.544C181.63 121.141 181.79 121.616 182.11 121.968C182.44 122.32 182.872 122.496 183.406 122.496ZM192.919 124.192C192.301 124.192 191.746 124.091 191.255 123.888C190.775 123.675 190.365 123.381 190.023 123.008C189.693 122.624 189.437 122.165 189.255 121.632C189.074 121.088 188.983 120.48 188.983 119.808C188.983 119.147 189.069 118.549 189.239 118.016C189.421 117.483 189.677 117.029 190.007 116.656C190.338 116.272 190.743 115.979 191.223 115.776C191.703 115.563 192.247 115.456 192.855 115.456C193.506 115.456 194.071 115.568 194.551 115.792C195.031 116.016 195.426 116.32 195.735 116.704C196.045 117.088 196.274 117.536 196.423 118.048C196.583 118.549 196.663 119.088 196.663 119.664V120.336H191.111V120.544C191.111 121.152 191.282 121.643 191.623 122.016C191.965 122.379 192.471 122.56 193.143 122.56C193.655 122.56 194.071 122.453 194.391 122.24C194.722 122.027 195.015 121.755 195.271 121.424L196.375 122.656C196.034 123.136 195.565 123.515 194.967 123.792C194.381 124.059 193.698 124.192 192.919 124.192ZM192.887 116.992C192.343 116.992 191.911 117.173 191.591 117.536C191.271 117.899 191.111 118.368 191.111 118.944V119.072H194.535V118.928C194.535 118.352 194.391 117.888 194.103 117.536C193.826 117.173 193.421 116.992 192.887 116.992ZM198.465 124V115.648H200.513V117.04H200.593C200.764 116.592 201.031 116.219 201.393 115.92C201.767 115.611 202.279 115.456 202.929 115.456C203.793 115.456 204.455 115.739 204.913 116.304C205.372 116.869 205.601 117.675 205.601 118.72V124H203.553V118.928C203.553 118.331 203.447 117.883 203.233 117.584C203.02 117.285 202.668 117.136 202.177 117.136C201.964 117.136 201.756 117.168 201.553 117.232C201.361 117.285 201.185 117.371 201.025 117.488C200.876 117.595 200.753 117.733 200.657 117.904C200.561 118.064 200.513 118.256 200.513 118.48V124H198.465ZM211.653 112.16H213.701V117.024H213.765C213.914 116.544 214.197 116.165 214.613 115.888C215.029 115.6 215.514 115.456 216.069 115.456C217.135 115.456 217.946 115.835 218.501 116.592C219.066 117.339 219.349 118.411 219.349 119.808C219.349 121.216 219.066 122.299 218.501 123.056C217.946 123.813 217.135 124.192 216.069 124.192C215.514 124.192 215.029 124.048 214.613 123.76C214.207 123.472 213.925 123.088 213.765 122.608H213.701V124H211.653V112.16ZM215.413 122.496C215.946 122.496 216.378 122.32 216.709 121.968C217.039 121.616 217.205 121.141 217.205 120.544V119.104C217.205 118.507 217.039 118.032 216.709 117.68C216.378 117.317 215.946 117.136 215.413 117.136C214.922 117.136 214.511 117.259 214.181 117.504C213.861 117.749 213.701 118.075 213.701 118.48V121.136C213.701 121.573 213.861 121.909 214.181 122.144C214.511 122.379 214.922 122.496 215.413 122.496ZM224.559 124.192C223.961 124.192 223.423 124.091 222.943 123.888C222.473 123.685 222.068 123.392 221.727 123.008C221.396 122.624 221.14 122.165 220.959 121.632C220.777 121.088 220.687 120.48 220.687 119.808C220.687 119.136 220.777 118.533 220.959 118C221.14 117.467 221.396 117.013 221.727 116.64C222.068 116.256 222.473 115.963 222.943 115.76C223.423 115.557 223.961 115.456 224.559 115.456C225.156 115.456 225.695 115.557 226.175 115.76C226.655 115.963 227.06 116.256 227.391 116.64C227.732 117.013 227.993 117.467 228.175 118C228.356 118.533 228.447 119.136 228.447 119.808C228.447 120.48 228.356 121.088 228.175 121.632C227.993 122.165 227.732 122.624 227.391 123.008C227.06 123.392 226.655 123.685 226.175 123.888C225.695 124.091 225.156 124.192 224.559 124.192ZM224.559 122.544C225.103 122.544 225.529 122.379 225.839 122.048C226.148 121.717 226.303 121.232 226.303 120.592V119.04C226.303 118.411 226.148 117.931 225.839 117.6C225.529 117.269 225.103 117.104 224.559 117.104C224.025 117.104 223.604 117.269 223.295 117.6C222.985 117.931 222.831 118.411 222.831 119.04V120.592C222.831 121.232 222.985 121.717 223.295 122.048C223.604 122.379 224.025 122.544 224.559 122.544ZM232.31 124C231.606 124 231.089 123.824 230.758 123.472C230.427 123.12 230.262 122.624 230.262 121.984V112.16H232.31V122.368H233.414V124H232.31ZM235.989 114.432C235.563 114.432 235.253 114.336 235.061 114.144C234.88 113.952 234.789 113.707 234.789 113.408V113.088C234.789 112.789 234.88 112.544 235.061 112.352C235.253 112.16 235.563 112.064 235.989 112.064C236.405 112.064 236.709 112.16 236.901 112.352C237.093 112.544 237.189 112.789 237.189 113.088V113.408C237.189 113.707 237.093 113.952 236.901 114.144C236.709 114.336 236.405 114.432 235.989 114.432ZM234.965 115.648H237.013V124H234.965V115.648ZM246.923 124.704C246.923 125.141 246.843 125.525 246.683 125.856C246.534 126.197 246.283 126.48 245.931 126.704C245.579 126.928 245.126 127.099 244.571 127.216C244.016 127.333 243.339 127.392 242.539 127.392C241.835 127.392 241.238 127.344 240.747 127.248C240.256 127.163 239.851 127.035 239.531 126.864C239.222 126.704 238.998 126.501 238.859 126.256C238.72 126.011 238.651 125.733 238.651 125.424C238.651 124.955 238.779 124.587 239.035 124.32C239.302 124.064 239.67 123.899 240.139 123.824V123.648C239.798 123.563 239.531 123.397 239.339 123.152C239.158 122.896 239.067 122.597 239.067 122.256C239.067 122.043 239.11 121.856 239.195 121.696C239.28 121.525 239.392 121.381 239.531 121.264C239.68 121.147 239.846 121.051 240.027 120.976C240.208 120.891 240.4 120.827 240.603 120.784V120.72C240.091 120.485 239.707 120.16 239.451 119.744C239.206 119.328 239.083 118.843 239.083 118.288C239.083 117.435 239.376 116.752 239.963 116.24C240.55 115.717 241.408 115.456 242.539 115.456C242.795 115.456 243.046 115.472 243.291 115.504C243.547 115.536 243.782 115.589 243.995 115.664V115.392C243.995 114.581 244.39 114.176 245.179 114.176H246.475V115.744H244.699V115.968C245.136 116.213 245.462 116.533 245.675 116.928C245.888 117.323 245.995 117.776 245.995 118.288C245.995 119.131 245.702 119.808 245.115 120.32C244.539 120.832 243.68 121.088 242.539 121.088C242.048 121.088 241.622 121.04 241.259 120.944C241.099 121.019 240.96 121.12 240.843 121.248C240.726 121.365 240.667 121.515 240.667 121.696C240.667 122.112 241.03 122.32 241.755 122.32H243.995C245.019 122.32 245.76 122.533 246.219 122.96C246.688 123.376 246.923 123.957 246.923 124.704ZM245.003 124.944C245.003 124.677 244.896 124.469 244.683 124.32C244.47 124.171 244.102 124.096 243.579 124.096H240.731C240.443 124.309 240.299 124.597 240.299 124.96C240.299 125.28 240.432 125.531 240.699 125.712C240.966 125.893 241.419 125.984 242.059 125.984H243.083C243.755 125.984 244.24 125.899 244.539 125.728C244.848 125.557 245.003 125.296 245.003 124.944ZM242.539 119.696C243.542 119.696 244.043 119.269 244.043 118.416V118.144C244.043 117.291 243.542 116.864 242.539 116.864C241.536 116.864 241.035 117.291 241.035 118.144V118.416C241.035 119.269 241.536 119.696 242.539 119.696ZM249.431 121.536C249.868 121.536 250.188 121.648 250.391 121.872C250.604 122.096 250.711 122.379 250.711 122.72V123.008C250.711 123.296 250.668 123.595 250.583 123.904C250.508 124.213 250.396 124.512 250.247 124.8C250.108 125.088 249.938 125.36 249.735 125.616C249.543 125.872 249.324 126.096 249.079 126.288H247.623C247.986 125.936 248.29 125.589 248.535 125.248C248.78 124.917 248.967 124.549 249.095 124.144C248.764 124.091 248.524 123.963 248.375 123.76C248.226 123.547 248.151 123.296 248.151 123.008V122.72C248.151 122.379 248.252 122.096 248.455 121.872C248.658 121.648 248.983 121.536 249.431 121.536ZM261.962 122.608H261.882C261.732 123.088 261.45 123.472 261.034 123.76C260.618 124.048 260.132 124.192 259.578 124.192C258.522 124.192 257.711 123.813 257.146 123.056C256.591 122.299 256.314 121.216 256.314 119.808C256.314 118.411 256.591 117.339 257.146 116.592C257.711 115.835 258.522 115.456 259.578 115.456C260.132 115.456 260.618 115.6 261.034 115.888C261.45 116.165 261.732 116.544 261.882 117.024H261.962V112.16H264.01V124H261.962V122.608ZM260.234 122.496C260.724 122.496 261.135 122.379 261.466 122.144C261.796 121.909 261.962 121.573 261.962 121.136V118.48C261.962 118.075 261.796 117.749 261.466 117.504C261.135 117.259 260.724 117.136 260.234 117.136C259.7 117.136 259.268 117.317 258.938 117.68C258.618 118.032 258.458 118.507 258.458 119.104V120.544C258.458 121.141 258.618 121.616 258.938 121.968C259.268 122.32 259.7 122.496 260.234 122.496ZM271.364 122.608H271.284C271.209 122.821 271.108 123.024 270.98 123.216C270.862 123.397 270.708 123.563 270.516 123.712C270.334 123.861 270.11 123.979 269.844 124.064C269.588 124.149 269.289 124.192 268.948 124.192C268.084 124.192 267.422 123.909 266.964 123.344C266.505 122.779 266.276 121.973 266.276 120.928V115.648H268.324V120.72C268.324 121.296 268.436 121.739 268.66 122.048C268.884 122.347 269.241 122.496 269.732 122.496C269.934 122.496 270.132 122.469 270.324 122.416C270.526 122.363 270.702 122.283 270.852 122.176C271.001 122.059 271.124 121.92 271.22 121.76C271.316 121.589 271.364 121.392 271.364 121.168V115.648H273.411V124H271.364V122.608ZM282.295 124.192C281.495 124.192 280.823 124.059 280.279 123.792C279.735 123.515 279.255 123.136 278.839 122.656L280.087 121.44C280.396 121.792 280.732 122.069 281.095 122.272C281.468 122.475 281.895 122.576 282.375 122.576C282.866 122.576 283.218 122.491 283.431 122.32C283.655 122.149 283.767 121.915 283.767 121.616C283.767 121.371 283.687 121.179 283.527 121.04C283.378 120.891 283.116 120.789 282.743 120.736L281.911 120.624C281.004 120.507 280.311 120.251 279.831 119.856C279.362 119.451 279.127 118.864 279.127 118.096C279.127 117.691 279.202 117.328 279.351 117.008C279.5 116.677 279.714 116.4 279.991 116.176C280.268 115.941 280.599 115.765 280.983 115.648C281.378 115.52 281.815 115.456 282.295 115.456C282.7 115.456 283.058 115.488 283.367 115.552C283.687 115.605 283.975 115.691 284.231 115.808C284.487 115.915 284.722 116.053 284.935 116.224C285.148 116.384 285.356 116.565 285.559 116.768L284.359 117.968C284.114 117.712 283.82 117.499 283.479 117.328C283.138 117.157 282.764 117.072 282.359 117.072C281.911 117.072 281.586 117.152 281.383 117.312C281.191 117.472 281.095 117.68 281.095 117.936C281.095 118.213 281.175 118.427 281.335 118.576C281.506 118.715 281.788 118.816 282.183 118.88L283.031 118.992C284.834 119.248 285.735 120.069 285.735 121.456C285.735 121.861 285.65 122.235 285.479 122.576C285.319 122.907 285.09 123.195 284.791 123.44C284.492 123.675 284.13 123.861 283.703 124C283.287 124.128 282.818 124.192 282.295 124.192ZM286.679 123.92L287.751 122.576C287.282 121.851 287.047 120.928 287.047 119.808C287.047 119.136 287.138 118.533 287.319 118C287.501 117.467 287.757 117.013 288.087 116.64C288.429 116.256 288.834 115.963 289.303 115.76C289.783 115.557 290.322 115.456 290.919 115.456C291.762 115.456 292.482 115.659 293.079 116.064L294.055 114.896L295.175 115.728L294.087 117.072C294.322 117.435 294.498 117.851 294.615 118.32C294.743 118.779 294.807 119.28 294.807 119.824C294.807 120.496 294.717 121.104 294.535 121.648C294.354 122.181 294.093 122.64 293.751 123.024C293.421 123.397 293.015 123.685 292.535 123.888C292.055 124.091 291.517 124.192 290.919 124.192C290.087 124.192 289.367 123.995 288.759 123.6L287.799 124.752L286.679 123.92ZM290.919 122.64C291.474 122.64 291.911 122.459 292.231 122.096C292.551 121.723 292.711 121.205 292.711 120.544V118.624L289.735 122.224C290.045 122.501 290.439 122.64 290.919 122.64ZM289.159 120.976L292.103 117.424C291.794 117.147 291.399 117.008 290.919 117.008C290.375 117.008 289.943 117.195 289.623 117.568C289.314 117.931 289.159 118.443 289.159 119.104V120.976ZM304.22 124.704C304.22 125.141 304.14 125.525 303.98 125.856C303.831 126.197 303.58 126.48 303.228 126.704C302.876 126.928 302.423 127.099 301.868 127.216C301.313 127.333 300.636 127.392 299.836 127.392C299.132 127.392 298.535 127.344 298.044 127.248C297.553 127.163 297.148 127.035 296.828 126.864C296.519 126.704 296.295 126.501 296.156 126.256C296.017 126.011 295.948 125.733 295.948 125.424C295.948 124.955 296.076 124.587 296.332 124.32C296.599 124.064 296.967 123.899 297.436 123.824V123.648C297.095 123.563 296.828 123.397 296.636 123.152C296.455 122.896 296.364 122.597 296.364 122.256C296.364 122.043 296.407 121.856 296.492 121.696C296.577 121.525 296.689 121.381 296.828 121.264C296.977 121.147 297.143 121.051 297.324 120.976C297.505 120.891 297.697 120.827 297.9 120.784V120.72C297.388 120.485 297.004 120.16 296.748 119.744C296.503 119.328 296.38 118.843 296.38 118.288C296.38 117.435 296.673 116.752 297.26 116.24C297.847 115.717 298.705 115.456 299.836 115.456C300.092 115.456 300.343 115.472 300.588 115.504C300.844 115.536 301.079 115.589 301.292 115.664V115.392C301.292 114.581 301.687 114.176 302.476 114.176H303.772V115.744H301.996V115.968C302.433 116.213 302.759 116.533 302.972 116.928C303.185 117.323 303.292 117.776 303.292 118.288C303.292 119.131 302.999 119.808 302.412 120.32C301.836 120.832 300.977 121.088 299.836 121.088C299.345 121.088 298.919 121.04 298.556 120.944C298.396 121.019 298.257 121.12 298.14 121.248C298.023 121.365 297.964 121.515 297.964 121.696C297.964 122.112 298.327 122.32 299.052 122.32H301.292C302.316 122.32 303.057 122.533 303.516 122.96C303.985 123.376 304.22 123.957 304.22 124.704ZM302.3 124.944C302.3 124.677 302.193 124.469 301.98 124.32C301.767 124.171 301.399 124.096 300.876 124.096H298.028C297.74 124.309 297.596 124.597 297.596 124.96C297.596 125.28 297.729 125.531 297.996 125.712C298.263 125.893 298.716 125.984 299.356 125.984H300.38C301.052 125.984 301.537 125.899 301.836 125.728C302.145 125.557 302.3 125.296 302.3 124.944ZM299.836 119.696C300.839 119.696 301.34 119.269 301.34 118.416V118.144C301.34 117.291 300.839 116.864 299.836 116.864C298.833 116.864 298.332 117.291 298.332 118.144V118.416C298.332 119.269 298.833 119.696 299.836 119.696ZM308.685 124.192C308.066 124.192 307.512 124.091 307.021 123.888C306.541 123.675 306.13 123.381 305.789 123.008C305.458 122.624 305.202 122.165 305.021 121.632C304.84 121.088 304.749 120.48 304.749 119.808C304.749 119.147 304.834 118.549 305.005 118.016C305.186 117.483 305.442 117.029 305.773 116.656C306.104 116.272 306.509 115.979 306.989 115.776C307.469 115.563 308.013 115.456 308.621 115.456C309.272 115.456 309.837 115.568 310.317 115.792C310.797 116.016 311.192 116.32 311.501 116.704C311.81 117.088 312.04 117.536 312.189 118.048C312.349 118.549 312.429 119.088 312.429 119.664V120.336H306.877V120.544C306.877 121.152 307.048 121.643 307.389 122.016C307.73 122.379 308.237 122.56 308.909 122.56C309.421 122.56 309.837 122.453 310.157 122.24C310.488 122.027 310.781 121.755 311.037 121.424L312.141 122.656C311.8 123.136 311.33 123.515 310.733 123.792C310.146 124.059 309.464 124.192 308.685 124.192ZM308.653 116.992C308.109 116.992 307.677 117.173 307.357 117.536C307.037 117.899 306.877 118.368 306.877 118.944V119.072H310.301V118.928C310.301 118.352 310.157 117.888 309.869 117.536C309.592 117.173 309.186 116.992 308.653 116.992ZM314.231 124V115.648H316.279V117.376H316.359C316.412 117.152 316.492 116.939 316.599 116.736C316.716 116.523 316.866 116.336 317.047 116.176C317.228 116.016 317.442 115.888 317.687 115.792C317.943 115.696 318.236 115.648 318.567 115.648H319.015V117.584H318.375C317.682 117.584 317.159 117.685 316.807 117.888C316.455 118.091 316.279 118.421 316.279 118.88V124H314.231ZM17.184 136.16H19.232V141.024H19.296C19.4453 140.544 19.728 140.165 20.144 139.888C20.56 139.6 21.0453 139.456 21.6 139.456C22.6667 139.456 23.4773 139.835 24.032 140.592C24.5973 141.339 24.88 142.411 24.88 143.808C24.88 145.216 24.5973 146.299 24.032 147.056C23.4773 147.813 22.6667 148.192 21.6 148.192C21.0453 148.192 20.56 148.048 20.144 147.76C19.7387 147.472 19.456 147.088 19.296 146.608H19.232V148H17.184V136.16ZM20.944 146.496C21.4773 146.496 21.9093 146.32 22.24 145.968C22.5707 145.616 22.736 145.141 22.736 144.544V143.104C22.736 142.507 22.5707 142.032 22.24 141.68C21.9093 141.317 21.4773 141.136 20.944 141.136C20.4533 141.136 20.0427 141.259 19.712 141.504C19.392 141.749 19.232 142.075 19.232 142.48V145.136C19.232 145.573 19.392 145.909 19.712 146.144C20.0427 146.379 20.4533 146.496 20.944 146.496ZM30.0898 148.192C29.4924 148.192 28.9538 148.091 28.4738 147.888C28.0044 147.685 27.5991 147.392 27.2578 147.008C26.9271 146.624 26.6711 146.165 26.4898 145.632C26.3084 145.088 26.2178 144.48 26.2178 143.808C26.2178 143.136 26.3084 142.533 26.4898 142C26.6711 141.467 26.9271 141.013 27.2578 140.64C27.5991 140.256 28.0044 139.963 28.4738 139.76C28.9538 139.557 29.4924 139.456 30.0898 139.456C30.6871 139.456 31.2258 139.557 31.7058 139.76C32.1858 139.963 32.5911 140.256 32.9218 140.64C33.2631 141.013 33.5244 141.467 33.7058 142C33.8871 142.533 33.9778 143.136 33.9778 143.808C33.9778 144.48 33.8871 145.088 33.7058 145.632C33.5244 146.165 33.2631 146.624 32.9218 147.008C32.5911 147.392 32.1858 147.685 31.7058 147.888C31.2258 148.091 30.6871 148.192 30.0898 148.192ZM30.0898 146.544C30.6338 146.544 31.0604 146.379 31.3698 146.048C31.6791 145.717 31.8338 145.232 31.8338 144.592V143.04C31.8338 142.411 31.6791 141.931 31.3698 141.6C31.0604 141.269 30.6338 141.104 30.0898 141.104C29.5564 141.104 29.1351 141.269 28.8258 141.6C28.5164 141.931 28.3618 142.411 28.3618 143.04V144.592C28.3618 145.232 28.5164 145.717 28.8258 146.048C29.1351 146.379 29.5564 146.544 30.0898 146.544ZM37.8414 148C37.1374 148 36.62 147.824 36.2894 147.472C35.9587 147.12 35.7934 146.624 35.7934 145.984V136.16H37.8414V146.368H38.9454V148H37.8414ZM41.5205 138.432C41.0938 138.432 40.7845 138.336 40.5925 138.144C40.4112 137.952 40.3205 137.707 40.3205 137.408V137.088C40.3205 136.789 40.4112 136.544 40.5925 136.352C40.7845 136.16 41.0938 136.064 41.5205 136.064C41.9365 136.064 42.2405 136.16 42.4325 136.352C42.6245 136.544 42.7205 136.789 42.7205 137.088V137.408C42.7205 137.707 42.6245 137.952 42.4325 138.144C42.2405 138.336 41.9365 138.432 41.5205 138.432ZM40.4965 139.648H42.5445V148H40.4965V139.648ZM52.4544 148.704C52.4544 149.141 52.3744 149.525 52.2144 149.856C52.065 150.197 51.8144 150.48 51.4624 150.704C51.1104 150.928 50.657 151.099 50.1024 151.216C49.5477 151.333 48.8704 151.392 48.0704 151.392C47.3664 151.392 46.769 151.344 46.2784 151.248C45.7877 151.163 45.3824 151.035 45.0624 150.864C44.753 150.704 44.529 150.501 44.3904 150.256C44.2517 150.011 44.1824 149.733 44.1824 149.424C44.1824 148.955 44.3104 148.587 44.5664 148.32C44.833 148.064 45.201 147.899 45.6704 147.824V147.648C45.329 147.563 45.0624 147.397 44.8704 147.152C44.689 146.896 44.5984 146.597 44.5984 146.256C44.5984 146.043 44.641 145.856 44.7264 145.696C44.8117 145.525 44.9237 145.381 45.0624 145.264C45.2117 145.147 45.377 145.051 45.5584 144.976C45.7397 144.891 45.9317 144.827 46.1344 144.784V144.72C45.6224 144.485 45.2384 144.16 44.9824 143.744C44.737 143.328 44.6144 142.843 44.6144 142.288C44.6144 141.435 44.9077 140.752 45.4944 140.24C46.081 139.717 46.9397 139.456 48.0704 139.456C48.3264 139.456 48.577 139.472 48.8224 139.504C49.0784 139.536 49.313 139.589 49.5264 139.664V139.392C49.5264 138.581 49.921 138.176 50.7104 138.176H52.0064V139.744H50.2304V139.968C50.6677 140.213 50.993 140.533 51.2064 140.928C51.4197 141.323 51.5264 141.776 51.5264 142.288C51.5264 143.131 51.233 143.808 50.6464 144.32C50.0704 144.832 49.2117 145.088 48.0704 145.088C47.5797 145.088 47.153 145.04 46.7904 144.944C46.6304 145.019 46.4917 145.12 46.3744 145.248C46.257 145.365 46.1984 145.515 46.1984 145.696C46.1984 146.112 46.561 146.32 47.2864 146.32H49.5264C50.5504 146.32 51.2917 146.533 51.7504 146.96C52.2197 147.376 52.4544 147.957 52.4544 148.704ZM50.5344 148.944C50.5344 148.677 50.4277 148.469 50.2144 148.32C50.001 148.171 49.633 148.096 49.1104 148.096H46.2624C45.9744 148.309 45.8304 148.597 45.8304 148.96C45.8304 149.28 45.9637 149.531 46.2304 149.712C46.497 149.893 46.9504 149.984 47.5904 149.984H48.6144C49.2864 149.984 49.7717 149.899 50.0704 149.728C50.3797 149.557 50.5344 149.296 50.5344 148.944ZM48.0704 143.696C49.073 143.696 49.5744 143.269 49.5744 142.416V142.144C49.5744 141.291 49.073 140.864 48.0704 140.864C47.0677 140.864 46.5664 141.291 46.5664 142.144V142.416C46.5664 143.269 47.0677 143.696 48.0704 143.696ZM56.3731 148.192C55.5731 148.192 54.9011 148.059 54.3571 147.792C53.8131 147.515 53.3331 147.136 52.9171 146.656L54.1651 145.44C54.4745 145.792 54.8105 146.069 55.1731 146.272C55.5465 146.475 55.9731 146.576 56.4531 146.576C56.9438 146.576 57.2958 146.491 57.5091 146.32C57.7331 146.149 57.8451 145.915 57.8451 145.616C57.8451 145.371 57.7651 145.179 57.6051 145.04C57.4558 144.891 57.1945 144.789 56.8211 144.736L55.9891 144.624C55.0825 144.507 54.3891 144.251 53.9091 143.856C53.4398 143.451 53.2051 142.864 53.2051 142.096C53.2051 141.691 53.2798 141.328 53.4291 141.008C53.5785 140.677 53.7918 140.4 54.0691 140.176C54.3465 139.941 54.6771 139.765 55.0611 139.648C55.4558 139.52 55.8931 139.456 56.3731 139.456C56.7785 139.456 57.1358 139.488 57.4451 139.552C57.7651 139.605 58.0531 139.691 58.3091 139.808C58.5651 139.915 58.7998 140.053 59.0131 140.224C59.2265 140.384 59.4345 140.565 59.6371 140.768L58.4371 141.968C58.1918 141.712 57.8985 141.499 57.5571 141.328C57.2158 141.157 56.8425 141.072 56.4371 141.072C55.9891 141.072 55.6638 141.152 55.4611 141.312C55.2691 141.472 55.1731 141.68 55.1731 141.936C55.1731 142.213 55.2531 142.427 55.4131 142.576C55.5838 142.715 55.8665 142.816 56.2611 142.88L57.1091 142.992C58.9118 143.248 59.8131 144.069 59.8131 145.456C59.8131 145.861 59.7278 146.235 59.5571 146.576C59.3971 146.907 59.1678 147.195 58.8691 147.44C58.5705 147.675 58.2078 147.861 57.7811 148C57.3651 148.128 56.8958 148.192 56.3731 148.192ZM64.1045 148C63.4005 148 62.8618 147.819 62.4885 147.456C62.1258 147.083 61.9445 146.555 61.9445 145.872V141.28H60.7125V139.648H61.3525C61.6618 139.648 61.8698 139.579 61.9765 139.44C62.0938 139.291 62.1525 139.072 62.1525 138.784V137.36H63.9925V139.648H65.7045V141.28H63.9925V146.368H65.5765V148H64.1045ZM66.5544 147.92L67.6264 146.576C67.157 145.851 66.9224 144.928 66.9224 143.808C66.9224 143.136 67.013 142.533 67.1944 142C67.3757 141.467 67.6317 141.013 67.9624 140.64C68.3037 140.256 68.709 139.963 69.1784 139.76C69.6584 139.557 70.197 139.456 70.7944 139.456C71.637 139.456 72.357 139.659 72.9544 140.064L73.9304 138.896L75.0504 139.728L73.9624 141.072C74.197 141.435 74.373 141.851 74.4904 142.32C74.6184 142.779 74.6824 143.28 74.6824 143.824C74.6824 144.496 74.5917 145.104 74.4104 145.648C74.229 146.181 73.9677 146.64 73.6264 147.024C73.2957 147.397 72.8904 147.685 72.4104 147.888C71.9304 148.091 71.3917 148.192 70.7944 148.192C69.9624 148.192 69.2424 147.995 68.6344 147.6L67.6744 148.752L66.5544 147.92ZM70.7944 146.64C71.349 146.64 71.7864 146.459 72.1064 146.096C72.4264 145.723 72.5864 145.205 72.5864 144.544V142.624L69.6104 146.224C69.9197 146.501 70.3144 146.64 70.7944 146.64ZM69.0344 144.976L71.9784 141.424C71.669 141.147 71.2744 141.008 70.7944 141.008C70.2504 141.008 69.8184 141.195 69.4984 141.568C69.189 141.931 69.0344 142.443 69.0344 143.104V144.976ZM79.1045 148C78.4005 148 77.8618 147.819 77.4885 147.456C77.1258 147.083 76.9445 146.555 76.9445 145.872V141.28H75.7125V139.648H76.3525C76.6618 139.648 76.8698 139.579 76.9765 139.44C77.0938 139.291 77.1525 139.072 77.1525 138.784V137.36H78.9925V139.648H80.7045V141.28H78.9925V146.368H80.5765V148H79.1045ZM84.9951 148C84.2911 148 83.7525 147.819 83.3791 147.456C83.0165 147.083 82.8351 146.555 82.8351 145.872V141.28H81.6031V139.648H82.2431C82.5525 139.648 82.7605 139.579 82.8671 139.44C82.9845 139.291 83.0431 139.072 83.0431 138.784V137.36H84.8831V139.648H86.5951V141.28H84.8831V146.368H86.4671V148H84.9951ZM91.685 148.192C91.0663 148.192 90.5117 148.091 90.021 147.888C89.541 147.675 89.1303 147.381 88.789 147.008C88.4583 146.624 88.2023 146.165 88.021 145.632C87.8397 145.088 87.749 144.48 87.749 143.808C87.749 143.147 87.8343 142.549 88.005 142.016C88.1863 141.483 88.4423 141.029 88.773 140.656C89.1037 140.272 89.509 139.979 89.989 139.776C90.469 139.563 91.013 139.456 91.621 139.456C92.2717 139.456 92.837 139.568 93.317 139.792C93.797 140.016 94.1917 140.32 94.501 140.704C94.8103 141.088 95.0397 141.536 95.189 142.048C95.349 142.549 95.429 143.088 95.429 143.664V144.336H89.877V144.544C89.877 145.152 90.0477 145.643 90.389 146.016C90.7303 146.379 91.237 146.56 91.909 146.56C92.421 146.56 92.837 146.453 93.157 146.24C93.4877 146.027 93.781 145.755 94.037 145.424L95.141 146.656C94.7997 147.136 94.3303 147.515 93.733 147.792C93.1463 148.059 92.4637 148.192 91.685 148.192ZM91.653 140.992C91.109 140.992 90.677 141.173 90.357 141.536C90.037 141.899 89.877 142.368 89.877 142.944V143.072H93.301V142.928C93.301 142.352 93.157 141.888 92.869 141.536C92.5917 141.173 92.1863 140.992 91.653 140.992ZM103.62 148C102.916 148 102.377 147.819 102.004 147.456C101.641 147.083 101.46 146.555 101.46 145.872V141.28H100.228V139.648H100.868C101.177 139.648 101.385 139.579 101.492 139.44C101.609 139.291 101.668 139.072 101.668 138.784V137.36H103.508V139.648H105.22V141.28H103.508V146.368H105.092V148H103.62ZM108.021 138.432C107.594 138.432 107.285 138.336 107.093 138.144C106.911 137.952 106.821 137.707 106.821 137.408V137.088C106.821 136.789 106.911 136.544 107.093 136.352C107.285 136.16 107.594 136.064 108.021 136.064C108.437 136.064 108.741 136.16 108.933 136.352C109.125 136.544 109.221 136.789 109.221 137.088V137.408C109.221 137.707 109.125 137.952 108.933 138.144C108.741 138.336 108.437 138.432 108.021 138.432ZM106.997 139.648H109.045V148H106.997V139.648ZM113.466 148C112.762 148 112.245 147.824 111.914 147.472C111.584 147.12 111.418 146.624 111.418 145.984V136.16H113.466V146.368H114.57V148H113.466Z" fill="black"/>
<path d="M103 79L108 84L113 79H103Z" fill="#1A1A1A"/>
<path d="M26.248 75.016V85H24.904V75.016H21.352V73.832H29.8V75.016H26.248ZM30.7975 85V76.744H32.0775V78.264H32.1575C32.3068 77.8693 32.5735 77.5173 32.9575 77.208C33.3415 76.8987 33.8695 76.744 34.5415 76.744H35.0375V78.024H34.2855C33.5922 78.024 33.0482 78.1573 32.6535 78.424C32.2695 78.68 32.0775 79.0053 32.0775 79.4V85H30.7975ZM37.3125 74.808C37.0352 74.808 36.8325 74.744 36.7045 74.616C36.5872 74.4773 36.5285 74.3013 36.5285 74.088V73.88C36.5285 73.6667 36.5872 73.496 36.7045 73.368C36.8325 73.2293 37.0352 73.16 37.3125 73.16C37.5898 73.16 37.7872 73.2293 37.9045 73.368C38.0325 73.496 38.0965 73.6667 38.0965 73.88V74.088C38.0965 74.3013 38.0325 74.4773 37.9045 74.616C37.7872 74.744 37.5898 74.808 37.3125 74.808ZM36.6725 76.744H37.9525V85H36.6725V76.744ZM40.6725 85V76.744H41.9525V78.088H42.0165C42.2192 77.6187 42.5018 77.2453 42.8645 76.968C43.2378 76.6907 43.7338 76.552 44.3525 76.552C45.2058 76.552 45.8778 76.8293 46.3685 77.384C46.8698 77.928 47.1205 78.7013 47.1205 79.704V85H45.8405V79.928C45.8405 78.4453 45.2165 77.704 43.9685 77.704C43.7125 77.704 43.4618 77.736 43.2165 77.8C42.9818 77.864 42.7685 77.96 42.5765 78.088C42.3845 78.216 42.2298 78.3813 42.1125 78.584C42.0058 78.776 41.9525 79.0053 41.9525 79.272V85H40.6725ZM60.7155 85H53.3875V83.624L57.0355 80.264C57.5582 79.784 57.9955 79.2773 58.3475 78.744C58.6995 78.2 58.8755 77.656 58.8755 77.112V76.92C58.8755 76.3013 58.7048 75.8 58.3635 75.416C58.0222 75.032 57.5048 74.84 56.8115 74.84C56.4702 74.84 56.1715 74.888 55.9155 74.984C55.6595 75.08 55.4355 75.2133 55.2435 75.384C55.0622 75.5547 54.9075 75.7573 54.7795 75.992C54.6622 76.216 54.5662 76.4613 54.4915 76.728L53.2915 76.264C53.3982 75.9333 53.5422 75.6133 53.7235 75.304C53.9155 74.984 54.1502 74.7013 54.4275 74.456C54.7155 74.2107 55.0568 74.0133 55.4515 73.864C55.8568 73.7147 56.3315 73.64 56.8755 73.64C57.4195 73.64 57.9048 73.72 58.3315 73.88C58.7582 74.04 59.1155 74.264 59.4035 74.552C59.6915 74.84 59.9102 75.1813 60.0595 75.576C60.2195 75.9707 60.2995 76.408 60.2995 76.888C60.2995 77.3253 60.2355 77.7307 60.1075 78.104C59.9902 78.4773 59.8248 78.8347 59.6115 79.176C59.3982 79.5067 59.1368 79.832 58.8275 80.152C58.5288 80.472 58.2035 80.792 57.8515 81.112L54.8435 83.816H60.7155V85ZM72.9225 85C72.4425 85 72.0958 84.872 71.8825 84.616C71.6798 84.36 71.5518 84.04 71.4985 83.656H71.4185C71.2372 84.168 70.9385 84.552 70.5225 84.808C70.1065 85.064 69.6105 85.192 69.0345 85.192C68.1598 85.192 67.4772 84.968 66.9865 84.52C66.5065 84.072 66.2665 83.464 66.2665 82.696C66.2665 81.9173 66.5492 81.32 67.1145 80.904C67.6905 80.488 68.5812 80.28 69.7865 80.28H71.4185V79.464C71.4185 78.8773 71.2585 78.4293 70.9385 78.12C70.6185 77.8107 70.1278 77.656 69.4665 77.656C68.9652 77.656 68.5438 77.768 68.2025 77.992C67.8718 78.216 67.5945 78.5147 67.3705 78.888L66.6025 78.168C66.8265 77.72 67.1838 77.3413 67.6745 77.032C68.1652 76.712 68.7838 76.552 69.5305 76.552C70.5332 76.552 71.3118 76.7973 71.8665 77.288C72.4212 77.7787 72.6985 78.4613 72.6985 79.336V83.88H73.6425V85H72.9225ZM69.2425 84.104C69.5625 84.104 69.8558 84.0667 70.1225 83.992C70.3892 83.9173 70.6185 83.8107 70.8105 83.672C71.0025 83.5333 71.1518 83.3733 71.2585 83.192C71.3652 83.0107 71.4185 82.8133 71.4185 82.6V81.24H69.7225C68.9865 81.24 68.4478 81.3467 68.1065 81.56C67.7758 81.7733 67.6105 82.0827 67.6105 82.488V82.824C67.6105 83.2293 67.7545 83.544 68.0425 83.768C68.3412 83.992 68.7412 84.104 69.2425 84.104ZM75.9174 77.864H74.5734V76.744H75.9174V75.08C75.9174 74.504 76.0667 74.04 76.3654 73.688C76.664 73.336 77.1174 73.16 77.7254 73.16H78.9734V74.28H77.1974V76.744H78.9734V77.864H77.1974V85H75.9174V77.864ZM91.0461 75.016H86.1501L85.8301 79.272H85.9421C86.2088 78.8987 86.5075 78.6 86.8381 78.376C87.1795 78.152 87.6435 78.04 88.2301 78.04C88.7101 78.04 89.1528 78.12 89.5581 78.28C89.9635 78.44 90.3155 78.6693 90.6141 78.968C90.9128 79.256 91.1421 79.6133 91.3021 80.04C91.4728 80.4667 91.5581 80.952 91.5581 81.496C91.5581 82.04 91.4728 82.5413 91.3021 83C91.1315 83.448 90.8808 83.8373 90.5501 84.168C90.2301 84.488 89.8355 84.7387 89.3661 84.92C88.9075 85.1013 88.3848 85.192 87.7981 85.192C87.3288 85.192 86.9128 85.1387 86.5501 85.032C86.1981 84.9253 85.8835 84.7813 85.6061 84.6C85.3288 84.4187 85.0835 84.216 84.8701 83.992C84.6675 83.768 84.4808 83.5333 84.3101 83.288L85.3181 82.52C85.4568 82.744 85.6008 82.9467 85.7501 83.128C85.9101 83.3093 86.0808 83.464 86.2621 83.592C86.4541 83.72 86.6728 83.8213 86.9181 83.896C87.1635 83.96 87.4568 83.992 87.7981 83.992C88.5661 83.992 89.1475 83.7893 89.5421 83.384C89.9368 82.9787 90.1341 82.408 90.1341 81.672V81.512C90.1341 80.776 89.9368 80.2053 89.5421 79.8C89.1475 79.3947 88.5661 79.192 87.7981 79.192C87.2861 79.192 86.8808 79.288 86.5821 79.48C86.2941 79.6613 86.0328 79.88 85.7981 80.136L84.6621 79.976L85.0621 73.832H91.0461V75.016Z" fill="#1A1A1A"/>
<rect x="17" y="343" width="84" height="38.0001" rx="3" fill="#0059B3"/>
<rect x="18.5" y="378.5" width="81" height="1" stroke="#004993"/>
<path d="M36.932 361.052L35.546 358.388H35.492V368H33.548V355.436H35.816L39.92 362.384L41.306 365.048H41.36V355.436H43.304V368H41.036L36.932 361.052ZM49.6016 363.824C48.2456 363.848 47.5676 364.274 47.5676 365.102V365.426C47.5676 365.846 47.7056 366.17 47.9816 366.398C48.2696 366.614 48.6716 366.722 49.1876 366.722C49.7636 366.722 50.2496 366.59 50.6456 366.326C51.0536 366.05 51.2576 365.684 51.2576 365.228V363.824H49.6016ZM57.5756 362.528V362.348C57.5756 361.628 57.3896 361.052 57.0176 360.62C56.6456 360.176 56.1356 359.954 55.4876 359.954C55.1516 359.954 54.8396 360.014 54.5516 360.134C54.2756 360.254 54.0356 360.422 53.8316 360.638C53.6396 360.854 53.4896 361.112 53.3816 361.412C53.2736 361.712 53.2196 362.042 53.2196 362.402V362.528H57.5756ZM55.7216 366.596C56.2976 366.596 56.7836 366.47 57.1796 366.218C57.5876 365.966 57.9176 365.63 58.1696 365.21L59.3216 366.326C58.9736 366.902 58.4756 367.364 57.8276 367.712C57.1916 368.048 56.4596 368.216 55.6316 368.216C55.1636 368.216 54.7256 368.156 54.3176 368.036C53.9216 367.916 53.5676 367.76 53.2556 367.568C52.9556 367.376 52.7036 367.166 52.4996 366.938C52.3076 366.698 52.1696 366.464 52.0856 366.236H51.9776C51.9176 366.452 51.7976 366.68 51.6176 366.92C51.4496 367.148 51.2276 367.358 50.9516 367.55C50.6756 367.742 50.3396 367.898 49.9436 368.018C49.5476 368.15 49.0976 368.216 48.5936 368.216C47.6456 368.216 46.9016 367.958 46.3616 367.442C45.8336 366.926 45.5696 366.254 45.5696 365.426C45.5696 364.478 45.9176 363.758 46.6136 363.266C47.3096 362.774 48.2936 362.528 49.5656 362.528H51.2576V361.826C51.2576 361.25 51.1016 360.806 50.7896 360.494C50.4776 360.182 49.9976 360.026 49.3496 360.026C48.7736 360.026 48.3116 360.146 47.9636 360.386C47.6276 360.614 47.3396 360.914 47.0996 361.286L45.9296 360.242C46.2416 359.714 46.6796 359.282 47.2436 358.946C47.8076 358.598 48.5456 358.424 49.4576 358.424C49.8896 358.424 50.2616 358.478 50.5736 358.586C50.8856 358.694 51.1496 358.832 51.3656 359C51.5936 359.168 51.7736 359.36 51.9056 359.576C52.0496 359.78 52.1696 359.984 52.2656 360.188H52.3736C52.4696 359.972 52.6136 359.762 52.8056 359.558C52.9976 359.342 53.2256 359.15 53.4896 358.982C53.7656 358.814 54.0776 358.682 54.4256 358.586C54.7856 358.478 55.1756 358.424 55.5956 358.424C56.2676 358.424 56.8556 358.544 57.3596 358.784C57.8636 359.024 58.2836 359.36 58.6196 359.792C58.9676 360.212 59.2256 360.704 59.3936 361.268C59.5616 361.832 59.6456 362.438 59.6456 363.086V363.824H53.2196V364.13C53.2196 364.85 53.4356 365.444 53.8676 365.912C54.3116 366.368 54.9296 366.596 55.7216 366.596ZM64.7978 368.216C63.9098 368.216 63.1658 368.06 62.5658 367.748C61.9658 367.436 61.4438 367.004 60.9998 366.452L62.2598 365.3C62.6078 365.72 62.9918 366.05 63.4118 366.29C63.8438 366.518 64.3418 366.632 64.9058 366.632C65.4818 366.632 65.9078 366.524 66.1838 366.308C66.4718 366.08 66.6158 365.768 66.6158 365.372C66.6158 365.072 66.5138 364.82 66.3098 364.616C66.1178 364.4 65.7758 364.262 65.2838 364.202L64.4198 364.094C63.4598 363.974 62.7038 363.698 62.1518 363.266C61.6118 362.822 61.3418 362.168 61.3418 361.304C61.3418 360.848 61.4258 360.446 61.5938 360.098C61.7618 359.738 61.9958 359.438 62.2958 359.198C62.6078 358.946 62.9738 358.754 63.3938 358.622C63.8258 358.49 64.2998 358.424 64.8158 358.424C65.6558 358.424 66.3398 358.556 66.8678 358.82C67.4078 359.084 67.8878 359.45 68.3078 359.918L67.1018 361.07C66.8618 360.782 66.5438 360.536 66.1478 360.332C65.7638 360.116 65.3198 360.008 64.8158 360.008C64.2758 360.008 63.8738 360.116 63.6098 360.332C63.3578 360.548 63.2318 360.83 63.2318 361.178C63.2318 361.538 63.3458 361.808 63.5738 361.988C63.8018 362.168 64.1678 362.3 64.6718 362.384L65.5358 362.492C66.5678 362.648 67.3178 362.954 67.7858 363.41C68.2658 363.854 68.5058 364.454 68.5058 365.21C68.5058 365.666 68.4158 366.08 68.2358 366.452C68.0678 366.812 67.8218 367.124 67.4978 367.388C67.1738 367.652 66.7838 367.856 66.3278 368C65.8718 368.144 65.3618 368.216 64.7978 368.216ZM73.1913 368C72.5073 368 71.9913 367.826 71.6433 367.478C71.2953 367.118 71.1213 366.614 71.1213 365.966V360.242H69.6633V358.64H70.4553C70.7793 358.64 71.0013 358.568 71.1213 358.424C71.2533 358.28 71.3193 358.046 71.3193 357.722V356.084H73.0833V358.64H75.0453V360.242H73.0833V366.398H74.9013V368H73.1913ZM80.7752 368.216C80.1032 368.216 79.5032 368.102 78.9752 367.874C78.4472 367.646 77.9972 367.322 77.6252 366.902C77.2532 366.47 76.9652 365.954 76.7612 365.354C76.5692 364.742 76.4732 364.064 76.4732 363.32C76.4732 362.576 76.5692 361.904 76.7612 361.304C76.9652 360.692 77.2532 360.176 77.6252 359.756C77.9972 359.324 78.4472 358.994 78.9752 358.766C79.5032 358.538 80.1032 358.424 80.7752 358.424C81.4592 358.424 82.0592 358.544 82.5752 358.784C83.1032 359.024 83.5412 359.36 83.8892 359.792C84.2372 360.212 84.4952 360.704 84.6632 361.268C84.8432 361.832 84.9332 362.438 84.9332 363.086V363.824H78.5072V364.13C78.5072 364.85 78.7172 365.444 79.1372 365.912C79.5692 366.368 80.1812 366.596 80.9732 366.596C81.5492 366.596 82.0352 366.47 82.4312 366.218C82.8272 365.966 83.1632 365.624 83.4392 365.192L84.5912 366.326C84.2432 366.902 83.7392 367.364 83.0792 367.712C82.4192 368.048 81.6512 368.216 80.7752 368.216ZM80.7752 359.954C80.4392 359.954 80.1272 360.014 79.8392 360.134C79.5632 360.254 79.3232 360.422 79.1192 360.638C78.9272 360.854 78.7772 361.112 78.6692 361.412C78.5612 361.712 78.5072 362.042 78.5072 362.402V362.528H82.8632V362.348C82.8632 361.628 82.6772 361.052 82.3052 360.62C81.9332 360.176 81.4232 359.954 80.7752 359.954Z" fill="white"/>
<rect x="17" y="343" width="84" height="38.0001" rx="3" stroke="#004993" stroke-width="2"/>
<rect width="205" height="20" transform="translate(16 194)" fill="#DCDCDC"/>
<rect width="205" height="20" transform="translate(16 246)" fill="#DCDCDC"/>
<rect width="205" height="20" transform="translate(16 298)" fill="#DCDCDC"/>
<rect width="118" height="12" transform="translate(16 178)" fill="#DCDCDC"/>
<rect width="118" height="12" transform="translate(16 230)" fill="#DCDCDC"/>
<rect width="118" height="12" transform="translate(16 282)" fill="#DCDCDC"/>
</svg>
