<svg width="418" height="366" viewBox="0 0 418 366" fill="none" xmlns="http://www.w3.org/2000/svg">
<rect width="418" height="366" fill="white"/>
<path d="M17.968 41V24.248H21.136V38.192H27.736V41H17.968ZM35.0253 41.288C34.1293 41.288 33.3213 41.136 32.6013 40.832C31.8973 40.528 31.2893 40.088 30.7773 39.512C30.2813 38.936 29.8973 38.248 29.6253 37.448C29.3533 36.632 29.2173 35.72 29.2173 34.712C29.2173 33.704 29.3533 32.8 29.6253 32C29.8973 31.2 30.2813 30.52 30.7773 29.96C31.2893 29.384 31.8973 28.944 32.6013 28.64C33.3213 28.336 34.1293 28.184 35.0253 28.184C35.9213 28.184 36.7293 28.336 37.4493 28.64C38.1693 28.944 38.7773 29.384 39.2733 29.96C39.7853 30.52 40.1773 31.2 40.4493 32C40.7213 32.8 40.8573 33.704 40.8573 34.712C40.8573 35.72 40.7213 36.632 40.4493 37.448C40.1773 38.248 39.7853 38.936 39.2733 39.512C38.7773 40.088 38.1693 40.528 37.4493 40.832C36.7293 41.136 35.9213 41.288 35.0253 41.288ZM35.0253 38.816C35.8413 38.816 36.4813 38.568 36.9453 38.072C37.4093 37.576 37.6413 36.848 37.6413 35.888V33.56C37.6413 32.616 37.4093 31.896 36.9453 31.4C36.4813 30.904 35.8413 30.656 35.0253 30.656C34.2253 30.656 33.5933 30.904 33.1293 31.4C32.6653 31.896 32.4333 32.616 32.4333 33.56V35.888C32.4333 36.848 32.6653 37.576 33.1293 38.072C33.5933 38.568 34.2253 38.816 35.0253 38.816ZM43.5807 41V28.472H46.6527V31.064H46.7727C46.8527 30.728 46.9727 30.408 47.1327 30.104C47.3087 29.784 47.5327 29.504 47.8047 29.264C48.0767 29.024 48.3967 28.832 48.7647 28.688C49.1487 28.544 49.5887 28.472 50.0847 28.472H50.7567V31.376H49.7967C48.7567 31.376 47.9727 31.528 47.4447 31.832C46.9167 32.136 46.6527 32.632 46.6527 33.32V41H43.5807ZM57.9494 41.288C57.0214 41.288 56.1894 41.136 55.4534 40.832C54.7334 40.512 54.1174 40.072 53.6054 39.512C53.1094 38.936 52.7254 38.248 52.4534 37.448C52.1814 36.632 52.0454 35.72 52.0454 34.712C52.0454 33.72 52.1734 32.824 52.4294 32.024C52.7014 31.224 53.0854 30.544 53.5814 29.984C54.0774 29.408 54.6854 28.968 55.4054 28.664C56.1254 28.344 56.9414 28.184 57.8534 28.184C58.8294 28.184 59.6774 28.352 60.3974 28.688C61.1174 29.024 61.7094 29.48 62.1734 30.056C62.6374 30.632 62.9814 31.304 63.2054 32.072C63.4454 32.824 63.5654 33.632 63.5654 34.496V35.504H55.2374V35.816C55.2374 36.728 55.4934 37.464 56.0054 38.024C56.5174 38.568 57.2774 38.84 58.2854 38.84C59.0534 38.84 59.6774 38.68 60.1574 38.36C60.6534 38.04 61.0934 37.632 61.4774 37.136L63.1334 38.984C62.6214 39.704 61.9174 40.272 61.0214 40.688C60.1414 41.088 59.1174 41.288 57.9494 41.288ZM57.9014 30.488C57.0854 30.488 56.4374 30.76 55.9574 31.304C55.4774 31.848 55.2374 32.552 55.2374 33.416V33.608H60.3734V33.392C60.3734 32.528 60.1574 31.832 59.7254 31.304C59.3094 30.76 58.7014 30.488 57.9014 30.488ZM66.2682 41V28.472H69.3402V30.56H69.4602C69.7002 29.904 70.0842 29.344 70.6122 28.88C71.1402 28.416 71.8762 28.184 72.8202 28.184C73.6842 28.184 74.4282 28.392 75.0522 28.808C75.6762 29.224 76.1402 29.856 76.4442 30.704H76.4922C76.7162 30 77.1562 29.408 77.8122 28.928C78.4842 28.432 79.3242 28.184 80.3322 28.184C81.5642 28.184 82.5082 28.608 83.1642 29.456C83.8362 30.304 84.1722 31.512 84.1722 33.08V41H81.1002V33.392C81.1002 31.6 80.4282 30.704 79.0842 30.704C78.7802 30.704 78.4842 30.752 78.1962 30.848C77.9242 30.928 77.6762 31.056 77.4522 31.232C77.2442 31.392 77.0762 31.6 76.9482 31.856C76.8202 32.096 76.7562 32.384 76.7562 32.72V41H73.6842V33.392C73.6842 31.6 73.0122 30.704 71.6682 30.704C71.3802 30.704 71.0922 30.752 70.8042 30.848C70.5322 30.928 70.2842 31.056 70.0602 31.232C69.8522 31.392 69.6762 31.6 69.5322 31.856C69.4042 32.096 69.3402 32.384 69.3402 32.72V41H66.2682ZM94.7808 26.648C94.1408 26.648 93.6768 26.504 93.3888 26.216C93.1168 25.928 92.9808 25.56 92.9808 25.112V24.632C92.9808 24.184 93.1168 23.816 93.3888 23.528C93.6768 23.24 94.1408 23.096 94.7808 23.096C95.4048 23.096 95.8608 23.24 96.1488 23.528C96.4368 23.816 96.5808 24.184 96.5808 24.632V25.112C96.5808 25.56 96.4368 25.928 96.1488 26.216C95.8608 26.504 95.4048 26.648 94.7808 26.648ZM93.2448 28.472H96.3168V41H93.2448V28.472ZM99.8776 28.472H102.95V30.536H103.046C103.27 29.816 103.694 29.248 104.318 28.832C104.942 28.4 105.67 28.184 106.502 28.184C108.102 28.184 109.318 28.752 110.15 29.888C110.998 31.008 111.422 32.616 111.422 34.712C111.422 36.824 110.998 38.448 110.15 39.584C109.318 40.72 108.102 41.288 106.502 41.288C105.67 41.288 104.942 41.072 104.318 40.64C103.71 40.208 103.286 39.632 103.046 38.912H102.95V45.8H99.8776V28.472ZM105.518 38.744C106.318 38.744 106.966 38.48 107.462 37.952C107.958 37.424 108.206 36.712 108.206 35.816V33.656C108.206 32.76 107.958 32.048 107.462 31.52C106.966 30.976 106.318 30.704 105.518 30.704C104.782 30.704 104.166 30.888 103.67 31.256C103.19 31.624 102.95 32.112 102.95 32.72V36.704C102.95 37.36 103.19 37.864 103.67 38.216C104.166 38.568 104.782 38.744 105.518 38.744ZM118.372 41.288C117.172 41.288 116.164 41.088 115.348 40.688C114.532 40.272 113.812 39.704 113.188 38.984L115.06 37.16C115.524 37.688 116.028 38.104 116.572 38.408C117.132 38.712 117.772 38.864 118.492 38.864C119.228 38.864 119.756 38.736 120.076 38.48C120.412 38.224 120.58 37.872 120.58 37.424C120.58 37.056 120.46 36.768 120.22 36.56C119.996 36.336 119.604 36.184 119.044 36.104L117.796 35.936C116.436 35.76 115.396 35.376 114.676 34.784C113.972 34.176 113.62 33.296 113.62 32.144C113.62 31.536 113.732 30.992 113.956 30.512C114.18 30.016 114.5 29.6 114.916 29.264C115.332 28.912 115.828 28.648 116.404 28.472C116.996 28.28 117.652 28.184 118.372 28.184C118.98 28.184 119.516 28.232 119.98 28.328C120.46 28.408 120.892 28.536 121.276 28.712C121.66 28.872 122.012 29.08 122.332 29.336C122.652 29.576 122.964 29.848 123.268 30.152L121.468 31.952C121.1 31.568 120.66 31.248 120.148 30.992C119.636 30.736 119.076 30.608 118.468 30.608C117.796 30.608 117.308 30.728 117.004 30.968C116.716 31.208 116.572 31.52 116.572 31.904C116.572 32.32 116.692 32.64 116.932 32.864C117.188 33.072 117.612 33.224 118.204 33.32L119.476 33.488C122.18 33.872 123.532 35.104 123.532 37.184C123.532 37.792 123.404 38.352 123.148 38.864C122.908 39.36 122.564 39.792 122.116 40.16C121.668 40.512 121.124 40.792 120.484 41C119.86 41.192 119.156 41.288 118.372 41.288ZM133.733 38.912H133.613C133.501 39.232 133.349 39.536 133.157 39.824C132.981 40.096 132.749 40.344 132.461 40.568C132.189 40.792 131.853 40.968 131.453 41.096C131.069 41.224 130.621 41.288 130.109 41.288C128.813 41.288 127.821 40.864 127.133 40.016C126.445 39.168 126.101 37.96 126.101 36.392V28.472H129.173V36.08C129.173 36.944 129.341 37.608 129.677 38.072C130.013 38.52 130.549 38.744 131.285 38.744C131.589 38.744 131.885 38.704 132.173 38.624C132.477 38.544 132.741 38.424 132.965 38.264C133.189 38.088 133.373 37.88 133.517 37.64C133.661 37.384 133.733 37.088 133.733 36.752V28.472H136.805V41H133.733V38.912ZM140.354 41V28.472H143.426V30.56H143.546C143.786 29.904 144.17 29.344 144.698 28.88C145.226 28.416 145.962 28.184 146.906 28.184C147.77 28.184 148.514 28.392 149.138 28.808C149.762 29.224 150.226 29.856 150.53 30.704H150.578C150.802 30 151.242 29.408 151.898 28.928C152.57 28.432 153.41 28.184 154.418 28.184C155.65 28.184 156.594 28.608 157.25 29.456C157.922 30.304 158.258 31.512 158.258 33.08V41H155.186V33.392C155.186 31.6 154.514 30.704 153.17 30.704C152.866 30.704 152.57 30.752 152.282 30.848C152.01 30.928 151.762 31.056 151.538 31.232C151.33 31.392 151.162 31.6 151.034 31.856C150.906 32.096 150.842 32.384 150.842 32.72V41H147.77V33.392C147.77 31.6 147.098 30.704 145.754 30.704C145.466 30.704 145.178 30.752 144.89 30.848C144.618 30.928 144.37 31.056 144.146 31.232C143.938 31.392 143.762 31.6 143.618 31.856C143.49 32.096 143.426 32.384 143.426 32.72V41H140.354ZM175.107 38.912H174.987C174.763 39.632 174.339 40.208 173.715 40.64C173.091 41.072 172.363 41.288 171.531 41.288C169.947 41.288 168.731 40.72 167.883 39.584C167.051 38.448 166.635 36.824 166.635 34.712C166.635 32.616 167.051 31.008 167.883 29.888C168.731 28.752 169.947 28.184 171.531 28.184C172.363 28.184 173.091 28.4 173.715 28.832C174.339 29.248 174.763 29.816 174.987 30.536H175.107V23.24H178.179V41H175.107V38.912ZM172.515 38.744C173.251 38.744 173.867 38.568 174.363 38.216C174.859 37.864 175.107 37.36 175.107 36.704V32.72C175.107 32.112 174.859 31.624 174.363 31.256C173.867 30.888 173.251 30.704 172.515 30.704C171.715 30.704 171.067 30.976 170.571 31.52C170.091 32.048 169.851 32.76 169.851 33.656V35.816C169.851 36.712 170.091 37.424 170.571 37.952C171.067 38.48 171.715 38.744 172.515 38.744ZM186.689 41.288C185.793 41.288 184.985 41.136 184.265 40.832C183.561 40.528 182.953 40.088 182.441 39.512C181.945 38.936 181.561 38.248 181.289 37.448C181.017 36.632 180.881 35.72 180.881 34.712C180.881 33.704 181.017 32.8 181.289 32C181.561 31.2 181.945 30.52 182.441 29.96C182.953 29.384 183.561 28.944 184.265 28.64C184.985 28.336 185.793 28.184 186.689 28.184C187.585 28.184 188.393 28.336 189.113 28.64C189.833 28.944 190.441 29.384 190.937 29.96C191.449 30.52 191.841 31.2 192.113 32C192.385 32.8 192.521 33.704 192.521 34.712C192.521 35.72 192.385 36.632 192.113 37.448C191.841 38.248 191.449 38.936 190.937 39.512C190.441 40.088 189.833 40.528 189.113 40.832C188.393 41.136 187.585 41.288 186.689 41.288ZM186.689 38.816C187.505 38.816 188.145 38.568 188.609 38.072C189.073 37.576 189.305 36.848 189.305 35.888V33.56C189.305 32.616 189.073 31.896 188.609 31.4C188.145 30.904 187.505 30.656 186.689 30.656C185.889 30.656 185.257 30.904 184.793 31.4C184.329 31.896 184.097 32.616 184.097 33.56V35.888C184.097 36.848 184.329 37.576 184.793 38.072C185.257 38.568 185.889 38.816 186.689 38.816ZM198.317 41C197.261 41 196.485 40.736 195.989 40.208C195.493 39.68 195.245 38.936 195.245 37.976V23.24H198.317V38.552H199.973V41H198.317ZM207.267 41.288C206.371 41.288 205.563 41.136 204.843 40.832C204.139 40.528 203.531 40.088 203.019 39.512C202.523 38.936 202.139 38.248 201.867 37.448C201.595 36.632 201.459 35.72 201.459 34.712C201.459 33.704 201.595 32.8 201.867 32C202.139 31.2 202.523 30.52 203.019 29.96C203.531 29.384 204.139 28.944 204.843 28.64C205.563 28.336 206.371 28.184 207.267 28.184C208.163 28.184 208.971 28.336 209.691 28.64C210.411 28.944 211.019 29.384 211.515 29.96C212.027 30.52 212.419 31.2 212.691 32C212.963 32.8 213.099 33.704 213.099 34.712C213.099 35.72 212.963 36.632 212.691 37.448C212.419 38.248 212.027 38.936 211.515 39.512C211.019 40.088 210.411 40.528 209.691 40.832C208.971 41.136 208.163 41.288 207.267 41.288ZM207.267 38.816C208.083 38.816 208.723 38.568 209.187 38.072C209.651 37.576 209.883 36.848 209.883 35.888V33.56C209.883 32.616 209.651 31.896 209.187 31.4C208.723 30.904 208.083 30.656 207.267 30.656C206.467 30.656 205.835 30.904 205.371 31.4C204.907 31.896 204.675 32.616 204.675 33.56V35.888C204.675 36.848 204.907 37.576 205.371 38.072C205.835 38.568 206.467 38.816 207.267 38.816ZM215.823 41V28.472H218.895V31.064H219.015C219.095 30.728 219.215 30.408 219.375 30.104C219.551 29.784 219.775 29.504 220.047 29.264C220.319 29.024 220.639 28.832 221.007 28.688C221.391 28.544 221.831 28.472 222.327 28.472H222.999V31.376H222.039C220.999 31.376 220.215 31.528 219.687 31.832C219.159 32.136 218.895 32.632 218.895 33.32V41H215.823ZM235.021 41.288C233.821 41.288 232.813 41.088 231.997 40.688C231.181 40.272 230.461 39.704 229.837 38.984L231.709 37.16C232.173 37.688 232.677 38.104 233.221 38.408C233.781 38.712 234.421 38.864 235.141 38.864C235.877 38.864 236.405 38.736 236.725 38.48C237.061 38.224 237.229 37.872 237.229 37.424C237.229 37.056 237.109 36.768 236.869 36.56C236.645 36.336 236.253 36.184 235.693 36.104L234.445 35.936C233.085 35.76 232.045 35.376 231.325 34.784C230.621 34.176 230.269 33.296 230.269 32.144C230.269 31.536 230.381 30.992 230.605 30.512C230.829 30.016 231.149 29.6 231.565 29.264C231.981 28.912 232.477 28.648 233.053 28.472C233.645 28.28 234.301 28.184 235.021 28.184C235.629 28.184 236.165 28.232 236.629 28.328C237.109 28.408 237.541 28.536 237.925 28.712C238.309 28.872 238.661 29.08 238.981 29.336C239.301 29.576 239.613 29.848 239.917 30.152L238.117 31.952C237.749 31.568 237.309 31.248 236.797 30.992C236.285 30.736 235.725 30.608 235.117 30.608C234.445 30.608 233.957 30.728 233.653 30.968C233.365 31.208 233.221 31.52 233.221 31.904C233.221 32.32 233.341 32.64 233.581 32.864C233.837 33.072 234.261 33.224 234.853 33.32L236.125 33.488C238.829 33.872 240.181 35.104 240.181 37.184C240.181 37.792 240.053 38.352 239.797 38.864C239.557 39.36 239.213 39.792 238.765 40.16C238.317 40.512 237.773 40.792 237.133 41C236.509 41.192 235.805 41.288 235.021 41.288ZM244.429 26.648C243.789 26.648 243.325 26.504 243.037 26.216C242.765 25.928 242.629 25.56 242.629 25.112V24.632C242.629 24.184 242.765 23.816 243.037 23.528C243.325 23.24 243.789 23.096 244.429 23.096C245.053 23.096 245.509 23.24 245.797 23.528C246.085 23.816 246.229 24.184 246.229 24.632V25.112C246.229 25.56 246.085 25.928 245.797 26.216C245.509 26.504 245.053 26.648 244.429 26.648ZM242.893 28.472H245.965V41H242.893V28.472ZM253.438 41C252.382 41 251.574 40.728 251.014 40.184C250.47 39.624 250.198 38.832 250.198 37.808V30.92H248.35V28.472H249.31C249.774 28.472 250.086 28.368 250.246 28.16C250.422 27.936 250.51 27.608 250.51 27.176V25.04H253.27V28.472H255.838V30.92H253.27V38.552H255.646V41H253.438ZM273.39 41C272.718 41 272.182 40.808 271.782 40.424C271.398 40.024 271.158 39.496 271.062 38.84H270.918C270.71 39.656 270.286 40.272 269.646 40.688C269.006 41.088 268.214 41.288 267.27 41.288C265.99 41.288 265.006 40.952 264.318 40.28C263.63 39.608 263.286 38.712 263.286 37.592C263.286 36.296 263.75 35.336 264.678 34.712C265.606 34.072 266.926 33.752 268.638 33.752H270.774V32.84C270.774 32.136 270.59 31.592 270.222 31.208C269.854 30.824 269.262 30.632 268.446 30.632C267.726 30.632 267.142 30.792 266.694 31.112C266.262 31.416 265.894 31.784 265.59 32.216L263.766 30.584C264.23 29.864 264.846 29.288 265.614 28.856C266.382 28.408 267.398 28.184 268.662 28.184C270.358 28.184 271.646 28.568 272.526 29.336C273.406 30.104 273.846 31.208 273.846 32.648V38.552H275.094V41H273.39ZM268.302 39.056C268.99 39.056 269.574 38.904 270.054 38.6C270.534 38.296 270.774 37.848 270.774 37.256V35.6H268.806C267.206 35.6 266.406 36.112 266.406 37.136V37.544C266.406 38.056 266.566 38.44 266.886 38.696C267.222 38.936 267.694 39.056 268.302 39.056ZM277.581 41V28.472H280.653V30.56H280.773C281.013 29.904 281.397 29.344 281.925 28.88C282.453 28.416 283.189 28.184 284.133 28.184C284.997 28.184 285.741 28.392 286.365 28.808C286.989 29.224 287.453 29.856 287.757 30.704H287.805C288.029 30 288.469 29.408 289.125 28.928C289.797 28.432 290.637 28.184 291.645 28.184C292.877 28.184 293.821 28.608 294.477 29.456C295.149 30.304 295.485 31.512 295.485 33.08V41H292.413V33.392C292.413 31.6 291.741 30.704 290.397 30.704C290.093 30.704 289.797 30.752 289.509 30.848C289.237 30.928 288.989 31.056 288.765 31.232C288.557 31.392 288.389 31.6 288.261 31.856C288.133 32.096 288.069 32.384 288.069 32.72V41H284.997V33.392C284.997 31.6 284.325 30.704 282.981 30.704C282.693 30.704 282.405 30.752 282.117 30.848C281.845 30.928 281.597 31.056 281.373 31.232C281.165 31.392 280.989 31.6 280.845 31.856C280.717 32.096 280.653 32.384 280.653 32.72V41H277.581ZM303.949 41.288C303.021 41.288 302.189 41.136 301.453 40.832C300.733 40.512 300.117 40.072 299.605 39.512C299.109 38.936 298.725 38.248 298.453 37.448C298.181 36.632 298.045 35.72 298.045 34.712C298.045 33.72 298.173 32.824 298.429 32.024C298.701 31.224 299.085 30.544 299.581 29.984C300.077 29.408 300.685 28.968 301.405 28.664C302.125 28.344 302.941 28.184 303.853 28.184C304.829 28.184 305.677 28.352 306.397 28.688C307.117 29.024 307.709 29.48 308.173 30.056C308.637 30.632 308.981 31.304 309.205 32.072C309.445 32.824 309.565 33.632 309.565 34.496V35.504H301.237V35.816C301.237 36.728 301.493 37.464 302.005 38.024C302.517 38.568 303.277 38.84 304.285 38.84C305.053 38.84 305.677 38.68 306.157 38.36C306.653 38.04 307.093 37.632 307.477 37.136L309.133 38.984C308.621 39.704 307.917 40.272 307.021 40.688C306.141 41.088 305.117 41.288 303.949 41.288ZM303.901 30.488C303.085 30.488 302.437 30.76 301.957 31.304C301.477 31.848 301.237 32.552 301.237 33.416V33.608H306.373V33.392C306.373 32.528 306.157 31.832 305.725 31.304C305.309 30.76 304.701 30.488 303.901 30.488ZM316.18 41C315.124 41 314.316 40.728 313.756 40.184C313.212 39.624 312.94 38.832 312.94 37.808V30.92H311.092V28.472H312.052C312.516 28.472 312.828 28.368 312.988 28.16C313.164 27.936 313.252 27.608 313.252 27.176V25.04H316.012V28.472H318.58V30.92H316.012V38.552H318.388V41H316.18Z" fill="black"/>
<rect x="17" y="218" width="84" height="38.0001" rx="3" fill="#44831E"/>
<rect x="18.5" y="253.5" width="81" height="1" stroke="#3C5C22"/>
<path d="M36.932 236.052L35.546 233.388H35.492V243H33.548V230.436H35.816L39.92 237.384L41.306 240.048H41.36V230.436H43.304V243H41.036L36.932 236.052ZM49.6016 238.824C48.2456 238.848 47.5676 239.274 47.5676 240.102V240.426C47.5676 240.846 47.7056 241.17 47.9816 241.398C48.2696 241.614 48.6716 241.722 49.1876 241.722C49.7636 241.722 50.2496 241.59 50.6456 241.326C51.0536 241.05 51.2576 240.684 51.2576 240.228V238.824H49.6016ZM57.5756 237.528V237.348C57.5756 236.628 57.3896 236.052 57.0176 235.62C56.6456 235.176 56.1356 234.954 55.4876 234.954C55.1516 234.954 54.8396 235.014 54.5516 235.134C54.2756 235.254 54.0356 235.422 53.8316 235.638C53.6396 235.854 53.4896 236.112 53.3816 236.412C53.2736 236.712 53.2196 237.042 53.2196 237.402V237.528H57.5756ZM55.7216 241.596C56.2976 241.596 56.7836 241.47 57.1796 241.218C57.5876 240.966 57.9176 240.63 58.1696 240.21L59.3216 241.326C58.9736 241.902 58.4756 242.364 57.8276 242.712C57.1916 243.048 56.4596 243.216 55.6316 243.216C55.1636 243.216 54.7256 243.156 54.3176 243.036C53.9216 242.916 53.5676 242.76 53.2556 242.568C52.9556 242.376 52.7036 242.166 52.4996 241.938C52.3076 241.698 52.1696 241.464 52.0856 241.236H51.9776C51.9176 241.452 51.7976 241.68 51.6176 241.92C51.4496 242.148 51.2276 242.358 50.9516 242.55C50.6756 242.742 50.3396 242.898 49.9436 243.018C49.5476 243.15 49.0976 243.216 48.5936 243.216C47.6456 243.216 46.9016 242.958 46.3616 242.442C45.8336 241.926 45.5696 241.254 45.5696 240.426C45.5696 239.478 45.9176 238.758 46.6136 238.266C47.3096 237.774 48.2936 237.528 49.5656 237.528H51.2576V236.826C51.2576 236.25 51.1016 235.806 50.7896 235.494C50.4776 235.182 49.9976 235.026 49.3496 235.026C48.7736 235.026 48.3116 235.146 47.9636 235.386C47.6276 235.614 47.3396 235.914 47.0996 236.286L45.9296 235.242C46.2416 234.714 46.6796 234.282 47.2436 233.946C47.8076 233.598 48.5456 233.424 49.4576 233.424C49.8896 233.424 50.2616 233.478 50.5736 233.586C50.8856 233.694 51.1496 233.832 51.3656 234C51.5936 234.168 51.7736 234.36 51.9056 234.576C52.0496 234.78 52.1696 234.984 52.2656 235.188H52.3736C52.4696 234.972 52.6136 234.762 52.8056 234.558C52.9976 234.342 53.2256 234.15 53.4896 233.982C53.7656 233.814 54.0776 233.682 54.4256 233.586C54.7856 233.478 55.1756 233.424 55.5956 233.424C56.2676 233.424 56.8556 233.544 57.3596 233.784C57.8636 234.024 58.2836 234.36 58.6196 234.792C58.9676 235.212 59.2256 235.704 59.3936 236.268C59.5616 236.832 59.6456 237.438 59.6456 238.086V238.824H53.2196V239.13C53.2196 239.85 53.4356 240.444 53.8676 240.912C54.3116 241.368 54.9296 241.596 55.7216 241.596ZM64.7978 243.216C63.9098 243.216 63.1658 243.06 62.5658 242.748C61.9658 242.436 61.4438 242.004 60.9998 241.452L62.2598 240.3C62.6078 240.72 62.9918 241.05 63.4118 241.29C63.8438 241.518 64.3418 241.632 64.9058 241.632C65.4818 241.632 65.9078 241.524 66.1838 241.308C66.4718 241.08 66.6158 240.768 66.6158 240.372C66.6158 240.072 66.5138 239.82 66.3098 239.616C66.1178 239.4 65.7758 239.262 65.2838 239.202L64.4198 239.094C63.4598 238.974 62.7038 238.698 62.1518 238.266C61.6118 237.822 61.3418 237.168 61.3418 236.304C61.3418 235.848 61.4258 235.446 61.5938 235.098C61.7618 234.738 61.9958 234.438 62.2958 234.198C62.6078 233.946 62.9738 233.754 63.3938 233.622C63.8258 233.49 64.2998 233.424 64.8158 233.424C65.6558 233.424 66.3398 233.556 66.8678 233.82C67.4078 234.084 67.8878 234.45 68.3078 234.918L67.1018 236.07C66.8618 235.782 66.5438 235.536 66.1478 235.332C65.7638 235.116 65.3198 235.008 64.8158 235.008C64.2758 235.008 63.8738 235.116 63.6098 235.332C63.3578 235.548 63.2318 235.83 63.2318 236.178C63.2318 236.538 63.3458 236.808 63.5738 236.988C63.8018 237.168 64.1678 237.3 64.6718 237.384L65.5358 237.492C66.5678 237.648 67.3178 237.954 67.7858 238.41C68.2658 238.854 68.5058 239.454 68.5058 240.21C68.5058 240.666 68.4158 241.08 68.2358 241.452C68.0678 241.812 67.8218 242.124 67.4978 242.388C67.1738 242.652 66.7838 242.856 66.3278 243C65.8718 243.144 65.3618 243.216 64.7978 243.216ZM73.1913 243C72.5073 243 71.9913 242.826 71.6433 242.478C71.2953 242.118 71.1213 241.614 71.1213 240.966V235.242H69.6633V233.64H70.4553C70.7793 233.64 71.0013 233.568 71.1213 233.424C71.2533 233.28 71.3193 233.046 71.3193 232.722V231.084H73.0833V233.64H75.0453V235.242H73.0833V241.398H74.9013V243H73.1913ZM80.7752 243.216C80.1032 243.216 79.5032 243.102 78.9752 242.874C78.4472 242.646 77.9972 242.322 77.6252 241.902C77.2532 241.47 76.9652 240.954 76.7612 240.354C76.5692 239.742 76.4732 239.064 76.4732 238.32C76.4732 237.576 76.5692 236.904 76.7612 236.304C76.9652 235.692 77.2532 235.176 77.6252 234.756C77.9972 234.324 78.4472 233.994 78.9752 233.766C79.5032 233.538 80.1032 233.424 80.7752 233.424C81.4592 233.424 82.0592 233.544 82.5752 233.784C83.1032 234.024 83.5412 234.36 83.8892 234.792C84.2372 235.212 84.4952 235.704 84.6632 236.268C84.8432 236.832 84.9332 237.438 84.9332 238.086V238.824H78.5072V239.13C78.5072 239.85 78.7172 240.444 79.1372 240.912C79.5692 241.368 80.1812 241.596 80.9732 241.596C81.5492 241.596 82.0352 241.47 82.4312 241.218C82.8272 240.966 83.1632 240.624 83.4392 240.192L84.5912 241.326C84.2432 241.902 83.7392 242.364 83.0792 242.712C82.4192 243.048 81.6512 243.216 80.7752 243.216ZM80.7752 234.954C80.4392 234.954 80.1272 235.014 79.8392 235.134C79.5632 235.254 79.3232 235.422 79.1192 235.638C78.9272 235.854 78.7772 236.112 78.6692 236.412C78.5612 236.712 78.5072 237.042 78.5072 237.402V237.528H82.8632V237.348C82.8632 236.628 82.6772 236.052 82.3052 235.62C81.9332 235.176 81.4232 234.954 80.7752 234.954Z" fill="white"/>
<rect x="17" y="218" width="84" height="38.0001" rx="3" stroke="#3C5C22" stroke-width="2"/>
<path d="M103 79L108 84L113 79H103Z" fill="#1A1A1A"/>
<path d="M26.248 75.016V85H24.904V75.016H21.352V73.832H29.8V75.016H26.248ZM30.7975 85V76.744H32.0775V78.264H32.1575C32.3068 77.8693 32.5735 77.5173 32.9575 77.208C33.3415 76.8987 33.8695 76.744 34.5415 76.744H35.0375V78.024H34.2855C33.5922 78.024 33.0482 78.1573 32.6535 78.424C32.2695 78.68 32.0775 79.0053 32.0775 79.4V85H30.7975ZM37.3125 74.808C37.0352 74.808 36.8325 74.744 36.7045 74.616C36.5872 74.4773 36.5285 74.3013 36.5285 74.088V73.88C36.5285 73.6667 36.5872 73.496 36.7045 73.368C36.8325 73.2293 37.0352 73.16 37.3125 73.16C37.5898 73.16 37.7872 73.2293 37.9045 73.368C38.0325 73.496 38.0965 73.6667 38.0965 73.88V74.088C38.0965 74.3013 38.0325 74.4773 37.9045 74.616C37.7872 74.744 37.5898 74.808 37.3125 74.808ZM36.6725 76.744H37.9525V85H36.6725V76.744ZM40.6725 85V76.744H41.9525V78.088H42.0165C42.2192 77.6187 42.5018 77.2453 42.8645 76.968C43.2378 76.6907 43.7338 76.552 44.3525 76.552C45.2058 76.552 45.8778 76.8293 46.3685 77.384C46.8698 77.928 47.1205 78.7013 47.1205 79.704V85H45.8405V79.928C45.8405 78.4453 45.2165 77.704 43.9685 77.704C43.7125 77.704 43.4618 77.736 43.2165 77.8C42.9818 77.864 42.7685 77.96 42.5765 78.088C42.3845 78.216 42.2298 78.3813 42.1125 78.584C42.0058 78.776 41.9525 79.0053 41.9525 79.272V85H40.6725ZM53.5955 85V83.816H56.7155V74.824H56.6035L53.7875 77.448L53.0035 76.6L55.9635 73.832H58.0595V83.816H60.9395V85H53.5955ZM72.9225 85C72.4425 85 72.0958 84.872 71.8825 84.616C71.6798 84.36 71.5518 84.04 71.4985 83.656H71.4185C71.2372 84.168 70.9385 84.552 70.5225 84.808C70.1065 85.064 69.6105 85.192 69.0345 85.192C68.1598 85.192 67.4772 84.968 66.9865 84.52C66.5065 84.072 66.2665 83.464 66.2665 82.696C66.2665 81.9173 66.5492 81.32 67.1145 80.904C67.6905 80.488 68.5812 80.28 69.7865 80.28H71.4185V79.464C71.4185 78.8773 71.2585 78.4293 70.9385 78.12C70.6185 77.8107 70.1278 77.656 69.4665 77.656C68.9652 77.656 68.5438 77.768 68.2025 77.992C67.8718 78.216 67.5945 78.5147 67.3705 78.888L66.6025 78.168C66.8265 77.72 67.1838 77.3413 67.6745 77.032C68.1652 76.712 68.7838 76.552 69.5305 76.552C70.5332 76.552 71.3118 76.7973 71.8665 77.288C72.4212 77.7787 72.6985 78.4613 72.6985 79.336V83.88H73.6425V85H72.9225ZM69.2425 84.104C69.5625 84.104 69.8558 84.0667 70.1225 83.992C70.3892 83.9173 70.6185 83.8107 70.8105 83.672C71.0025 83.5333 71.1518 83.3733 71.2585 83.192C71.3652 83.0107 71.4185 82.8133 71.4185 82.6V81.24H69.7225C68.9865 81.24 68.4478 81.3467 68.1065 81.56C67.7758 81.7733 67.6105 82.0827 67.6105 82.488V82.824C67.6105 83.2293 67.7545 83.544 68.0425 83.768C68.3412 83.992 68.7412 84.104 69.2425 84.104ZM75.9174 77.864H74.5734V76.744H75.9174V75.08C75.9174 74.504 76.0667 74.04 76.3654 73.688C76.664 73.336 77.1174 73.16 77.7254 73.16H78.9734V74.28H77.1974V76.744H78.9734V77.864H77.1974V85H75.9174V77.864ZM91.0461 75.016H86.1501L85.8301 79.272H85.9421C86.2088 78.8987 86.5075 78.6 86.8381 78.376C87.1795 78.152 87.6435 78.04 88.2301 78.04C88.7101 78.04 89.1528 78.12 89.5581 78.28C89.9635 78.44 90.3155 78.6693 90.6141 78.968C90.9128 79.256 91.1421 79.6133 91.3021 80.04C91.4728 80.4667 91.5581 80.952 91.5581 81.496C91.5581 82.04 91.4728 82.5413 91.3021 83C91.1315 83.448 90.8808 83.8373 90.5501 84.168C90.2301 84.488 89.8355 84.7387 89.3661 84.92C88.9075 85.1013 88.3848 85.192 87.7981 85.192C87.3288 85.192 86.9128 85.1387 86.5501 85.032C86.1981 84.9253 85.8835 84.7813 85.6061 84.6C85.3288 84.4187 85.0835 84.216 84.8701 83.992C84.6675 83.768 84.4808 83.5333 84.3101 83.288L85.3181 82.52C85.4568 82.744 85.6008 82.9467 85.7501 83.128C85.9101 83.3093 86.0808 83.464 86.2621 83.592C86.4541 83.72 86.6728 83.8213 86.9181 83.896C87.1635 83.96 87.4568 83.992 87.7981 83.992C88.5661 83.992 89.1475 83.7893 89.5421 83.384C89.9368 82.9787 90.1341 82.408 90.1341 81.672V81.512C90.1341 80.776 89.9368 80.2053 89.5421 79.8C89.1475 79.3947 88.5661 79.192 87.7981 79.192C87.2861 79.192 86.8808 79.288 86.5821 79.48C86.2941 79.6613 86.0328 79.88 85.7981 80.136L84.6621 79.976L85.0621 73.832H91.0461V75.016Z" fill="#1A1A1A"/>
<rect x="16.5" y="145.5" width="239" height="39" rx="3.5" stroke="#747474"/>
<path d="M17.312 120.832H22.48C22.9387 120.832 23.3493 120.901 23.712 121.04C24.0853 121.179 24.4 121.371 24.656 121.616C24.912 121.861 25.104 122.165 25.232 122.528C25.3707 122.88 25.44 123.269 25.44 123.696C25.44 124.123 25.3813 124.485 25.264 124.784C25.1573 125.072 25.008 125.312 24.816 125.504C24.6347 125.696 24.4213 125.84 24.176 125.936C23.9413 126.032 23.696 126.085 23.44 126.096V126.192C23.6853 126.192 23.9467 126.24 24.224 126.336C24.512 126.432 24.7733 126.587 25.008 126.8C25.2533 127.003 25.456 127.269 25.616 127.6C25.776 127.92 25.856 128.32 25.856 128.8C25.856 129.248 25.7813 129.669 25.632 130.064C25.4933 130.448 25.296 130.784 25.04 131.072C24.784 131.36 24.48 131.589 24.128 131.76C23.776 131.92 23.392 132 22.976 132H17.312V120.832ZM19.424 130.208H22.368C22.7733 130.208 23.088 130.107 23.312 129.904C23.536 129.691 23.648 129.387 23.648 128.992V128.448C23.648 128.053 23.536 127.749 23.312 127.536C23.088 127.323 22.7733 127.216 22.368 127.216H19.424V130.208ZM19.424 125.488H22.032C22.416 125.488 22.7147 125.387 22.928 125.184C23.1413 124.971 23.248 124.677 23.248 124.304V123.808C23.248 123.435 23.1413 123.147 22.928 122.944C22.7147 122.731 22.416 122.624 22.032 122.624H19.424V125.488ZM32.7728 123.648H34.6927L31.3328 133.488C31.2261 133.787 31.1034 134.043 30.9648 134.256C30.8368 134.48 30.6821 134.661 30.5008 134.8C30.3194 134.939 30.1008 135.04 29.8448 135.104C29.5888 135.168 29.2901 135.2 28.9488 135.2H27.7168V133.568H29.2208L29.6048 132.4L26.6128 123.648H28.6448L30.1008 128.064L30.6448 130.176H30.7408L31.3168 128.064L32.7728 123.648Z" fill="#1A1A1A"/>
</svg>
