<svg width="418" height="332" viewBox="0 0 418 332" fill="none" xmlns="http://www.w3.org/2000/svg">
<rect width="418" height="332" fill="white"/>
<rect width="385" height="20" transform="translate(16 188)" fill="#DCDCDC"/>
<rect width="385" height="20" transform="translate(16 272)" fill="#DCDCDC"/>
<rect width="385" height="20" transform="translate(16 212)" fill="#DCDCDC"/>
<rect width="288" height="20" transform="translate(16 296)" fill="#DCDCDC"/>
<rect width="386" height="20" transform="translate(16 80)" fill="#DCDCDC"/>
<rect width="386" height="20" transform="translate(16 104)" fill="#DCDCDC"/>
<rect width="288" height="20" transform="translate(16 128)" fill="#DCDCDC"/>
<rect width="118" height="12" transform="translate(16 172)" fill="#DCDCDC"/>
<rect width="118" height="12" transform="translate(16 256)" fill="#DCDCDC"/>
<rect width="118" height="12" transform="translate(16 64)" fill="#DCDCDC"/>
<path d="M358 24H357V19H345V24H344C342.34 24 341 25.34 341 27V33H345V37H357V33H361V27C361 25.34 359.66 24 358 24ZM347 21H355V24H347V21ZM355 33V35H347V31H355V33ZM357 31V29H345V31H343V27C343 26.45 343.45 26 344 26H358C358.55 26 359 26.45 359 27V31H357Z" fill="#1A1A1A"/>
<path d="M357 28.5C357.552 28.5 358 28.0523 358 27.5C358 26.9477 357.552 26.5 357 26.5C356.448 26.5 356 26.9477 356 27.5C356 28.0523 356.448 28.5 357 28.5Z" fill="#1A1A1A"/>
<path d="M368.488 34.5V23.332H372.936C373.939 23.332 374.707 23.62 375.24 24.196C375.784 24.7613 376.056 25.54 376.056 26.532C376.056 27.524 375.784 28.308 375.24 28.884C374.707 29.4493 373.939 29.732 372.936 29.732H369.832V34.5H368.488ZM369.832 28.548H372.936C373.469 28.548 373.88 28.4093 374.168 28.132C374.467 27.8547 374.616 27.46 374.616 26.948V26.116C374.616 25.604 374.467 25.2093 374.168 24.932C373.88 24.6547 373.469 24.516 372.936 24.516H369.832V28.548ZM377.907 34.5V26.244H379.187V27.764H379.267C379.416 27.3693 379.683 27.0173 380.067 26.708C380.451 26.3987 380.979 26.244 381.651 26.244H382.147V27.524H381.395C380.702 27.524 380.158 27.6573 379.763 27.924C379.379 28.18 379.187 28.5053 379.187 28.9V34.5H377.907ZM384.422 24.308C384.145 24.308 383.942 24.244 383.814 24.116C383.697 23.9773 383.638 23.8013 383.638 23.588V23.38C383.638 23.1667 383.697 22.996 383.814 22.868C383.942 22.7293 384.145 22.66 384.422 22.66C384.699 22.66 384.897 22.7293 385.014 22.868C385.142 22.996 385.206 23.1667 385.206 23.38V23.588C385.206 23.8013 385.142 23.9773 385.014 24.116C384.897 24.244 384.699 24.308 384.422 24.308ZM383.782 26.244H385.062V34.5H383.782V26.244ZM387.782 34.5V26.244H389.062V27.588H389.126C389.329 27.1187 389.611 26.7453 389.974 26.468C390.347 26.1907 390.843 26.052 391.462 26.052C392.315 26.052 392.987 26.3293 393.478 26.884C393.979 27.428 394.23 28.2013 394.23 29.204V34.5H392.95V29.428C392.95 27.9453 392.326 27.204 391.078 27.204C390.822 27.204 390.571 27.236 390.326 27.3C390.091 27.364 389.878 27.46 389.686 27.588C389.494 27.716 389.339 27.8813 389.222 28.084C389.115 28.276 389.062 28.5053 389.062 28.772V34.5H387.782ZM398.7 34.5C398.252 34.5 397.91 34.3773 397.676 34.132C397.452 33.876 397.34 33.5453 397.34 33.14V27.364H395.98V26.244H396.748C397.025 26.244 397.212 26.1907 397.308 26.084C397.414 25.9667 397.468 25.7693 397.468 25.492V23.956H398.62V26.244H400.428V27.364H398.62V33.38H400.3V34.5H398.7Z" fill="#1A1A1A"/>
<path d="M367 36.5H401.132V37.46H367V36.5Z" fill="#1A1A1A"/>
</svg>
