<svg width="418" height="432" viewBox="0 0 418 432" fill="none" xmlns="http://www.w3.org/2000/svg">
<g clip-path="url(#clip0_5010_49137)">
<rect width="418" height="432" fill="white"/>
<path d="M17.312 34V22.832H19.424V32.128H23.824V34H17.312ZM28.6835 34.192C28.0862 34.192 27.5475 34.0907 27.0675 33.888C26.5982 33.6853 26.1928 33.392 25.8515 33.008C25.5208 32.624 25.2648 32.1653 25.0835 31.632C24.9022 31.088 24.8115 30.48 24.8115 29.808C24.8115 29.136 24.9022 28.5333 25.0835 28C25.2648 27.4667 25.5208 27.0133 25.8515 26.64C26.1928 26.256 26.5982 25.9627 27.0675 25.76C27.5475 25.5573 28.0862 25.456 28.6835 25.456C29.2808 25.456 29.8195 25.5573 30.2995 25.76C30.7795 25.9627 31.1848 26.256 31.5155 26.64C31.8568 27.0133 32.1182 27.4667 32.2995 28C32.4808 28.5333 32.5715 29.136 32.5715 29.808C32.5715 30.48 32.4808 31.088 32.2995 31.632C32.1182 32.1653 31.8568 32.624 31.5155 33.008C31.1848 33.392 30.7795 33.6853 30.2995 33.888C29.8195 34.0907 29.2808 34.192 28.6835 34.192ZM28.6835 32.544C29.2275 32.544 29.6542 32.3787 29.9635 32.048C30.2728 31.7173 30.4275 31.232 30.4275 30.592V29.04C30.4275 28.4107 30.2728 27.9307 29.9635 27.6C29.6542 27.2693 29.2275 27.104 28.6835 27.104C28.1502 27.104 27.7288 27.2693 27.4195 27.6C27.1102 27.9307 26.9555 28.4107 26.9555 29.04V30.592C26.9555 31.232 27.1102 31.7173 27.4195 32.048C27.7288 32.3787 28.1502 32.544 28.6835 32.544ZM34.3871 34V25.648H36.4351V27.376H36.5151C36.5685 27.152 36.6485 26.9387 36.7551 26.736C36.8725 26.5227 37.0218 26.336 37.2031 26.176C37.3845 26.016 37.5978 25.888 37.8431 25.792C38.0991 25.696 38.3925 25.648 38.7231 25.648H39.1711V27.584H38.5311C37.8378 27.584 37.3151 27.6853 36.9631 27.888C36.6111 28.0907 36.4351 28.4213 36.4351 28.88V34H34.3871ZM43.9663 34.192C43.3476 34.192 42.7929 34.0907 42.3023 33.888C41.8223 33.6747 41.4116 33.3813 41.0703 33.008C40.7396 32.624 40.4836 32.1653 40.3023 31.632C40.1209 31.088 40.0303 30.48 40.0303 29.808C40.0303 29.1467 40.1156 28.5493 40.2863 28.016C40.4676 27.4827 40.7236 27.0293 41.0543 26.656C41.3849 26.272 41.7903 25.9787 42.2703 25.776C42.7503 25.5627 43.2943 25.456 43.9023 25.456C44.5529 25.456 45.1183 25.568 45.5983 25.792C46.0783 26.016 46.4729 26.32 46.7823 26.704C47.0916 27.088 47.3209 27.536 47.4703 28.048C47.6303 28.5493 47.7103 29.088 47.7103 29.664V30.336H42.1583V30.544C42.1583 31.152 42.3289 31.6427 42.6703 32.016C43.0116 32.3787 43.5183 32.56 44.1903 32.56C44.7023 32.56 45.1183 32.4533 45.4383 32.24C45.7689 32.0267 46.0623 31.7547 46.3183 31.424L47.4223 32.656C47.0809 33.136 46.6116 33.5147 46.0143 33.792C45.4276 34.0587 44.7449 34.192 43.9663 34.192ZM43.9343 26.992C43.3903 26.992 42.9583 27.1733 42.6383 27.536C42.3183 27.8987 42.1583 28.368 42.1583 28.944V29.072H45.5823V28.928C45.5823 28.352 45.4383 27.888 45.1503 27.536C44.8729 27.1733 44.4676 26.992 43.9343 26.992ZM49.5121 34V25.648H51.5601V27.04H51.6401C51.8001 26.6027 52.0561 26.2293 52.4081 25.92C52.7601 25.6107 53.2508 25.456 53.8801 25.456C54.4561 25.456 54.9521 25.5947 55.3681 25.872C55.7841 26.1493 56.0935 26.5707 56.2961 27.136H56.3281C56.4775 26.6667 56.7708 26.272 57.2081 25.952C57.6561 25.6213 58.2161 25.456 58.8881 25.456C59.7095 25.456 60.3388 25.7387 60.7761 26.304C61.2241 26.8693 61.4481 27.6747 61.4481 28.72V34H59.4001V28.928C59.4001 27.7333 58.9521 27.136 58.0561 27.136C57.8535 27.136 57.6561 27.168 57.4641 27.232C57.2828 27.2853 57.1175 27.3707 56.9681 27.488C56.8295 27.5947 56.7175 27.7333 56.6321 27.904C56.5468 28.064 56.5041 28.256 56.5041 28.48V34H54.4561V28.928C54.4561 27.7333 54.0081 27.136 53.1121 27.136C52.9201 27.136 52.7281 27.168 52.5361 27.232C52.3548 27.2853 52.1895 27.3707 52.0401 27.488C51.9015 27.5947 51.7841 27.7333 51.6881 27.904C51.6028 28.064 51.5601 28.256 51.5601 28.48V34H49.5121ZM68.5205 24.432C68.0938 24.432 67.7845 24.336 67.5925 24.144C67.4112 23.952 67.3205 23.7067 67.3205 23.408V23.088C67.3205 22.7893 67.4112 22.544 67.5925 22.352C67.7845 22.16 68.0938 22.064 68.5205 22.064C68.9365 22.064 69.2405 22.16 69.4325 22.352C69.6245 22.544 69.7205 22.7893 69.7205 23.088V23.408C69.7205 23.7067 69.6245 23.952 69.4325 24.144C69.2405 24.336 68.9365 24.432 68.5205 24.432ZM67.4965 25.648H69.5445V34H67.4965V25.648ZM71.9184 25.648H73.9664V27.024H74.0304C74.1797 26.544 74.4624 26.1653 74.8784 25.888C75.2944 25.6 75.7797 25.456 76.3344 25.456C77.401 25.456 78.2117 25.8347 78.7664 26.592C79.3317 27.3387 79.6144 28.4107 79.6144 29.808C79.6144 31.216 79.3317 32.2987 78.7664 33.056C78.2117 33.8133 77.401 34.192 76.3344 34.192C75.7797 34.192 75.2944 34.048 74.8784 33.76C74.473 33.472 74.1904 33.088 74.0304 32.608H73.9664V37.2H71.9184V25.648ZM75.6784 32.496C76.2117 32.496 76.6437 32.32 76.9744 31.968C77.305 31.616 77.4704 31.1413 77.4704 30.544V29.104C77.4704 28.5067 77.305 28.032 76.9744 27.68C76.6437 27.3173 76.2117 27.136 75.6784 27.136C75.1877 27.136 74.777 27.2587 74.4464 27.504C74.1264 27.7493 73.9664 28.0747 73.9664 28.48V31.136C73.9664 31.5733 74.1264 31.9093 74.4464 32.144C74.777 32.3787 75.1877 32.496 75.6784 32.496ZM84.2481 34.192C83.4481 34.192 82.7761 34.0587 82.2321 33.792C81.6881 33.5147 81.2081 33.136 80.7921 32.656L82.0401 31.44C82.3495 31.792 82.6855 32.0693 83.0481 32.272C83.4215 32.4747 83.8481 32.576 84.3281 32.576C84.8188 32.576 85.1708 32.4907 85.3841 32.32C85.6081 32.1493 85.7201 31.9147 85.7201 31.616C85.7201 31.3707 85.6401 31.1787 85.4801 31.04C85.3308 30.8907 85.0695 30.7893 84.6961 30.736L83.8641 30.624C82.9575 30.5067 82.2641 30.2507 81.7841 29.856C81.3148 29.4507 81.0801 28.864 81.0801 28.096C81.0801 27.6907 81.1548 27.328 81.3041 27.008C81.4535 26.6773 81.6668 26.4 81.9441 26.176C82.2215 25.9413 82.5521 25.7653 82.9361 25.648C83.3308 25.52 83.7681 25.456 84.2481 25.456C84.6535 25.456 85.0108 25.488 85.3201 25.552C85.6401 25.6053 85.9281 25.6907 86.1841 25.808C86.4401 25.9147 86.6748 26.0533 86.8881 26.224C87.1015 26.384 87.3095 26.5653 87.5121 26.768L86.3121 27.968C86.0668 27.712 85.7735 27.4987 85.4321 27.328C85.0908 27.1573 84.7175 27.072 84.3121 27.072C83.8641 27.072 83.5388 27.152 83.3361 27.312C83.1441 27.472 83.0481 27.68 83.0481 27.936C83.0481 28.2133 83.1281 28.4267 83.2881 28.576C83.4588 28.7147 83.7415 28.816 84.1361 28.88L84.9841 28.992C86.7868 29.248 87.6881 30.0693 87.6881 31.456C87.6881 31.8613 87.6028 32.2347 87.4321 32.576C87.2721 32.9067 87.0428 33.1947 86.7441 33.44C86.4455 33.6747 86.0828 33.8613 85.6561 34C85.2401 34.128 84.7708 34.192 84.2481 34.192ZM94.4885 32.608H94.4085C94.3338 32.8213 94.2325 33.024 94.1045 33.216C93.9872 33.3973 93.8325 33.5627 93.6405 33.712C93.4592 33.8613 93.2352 33.9787 92.9685 34.064C92.7125 34.1493 92.4138 34.192 92.0725 34.192C91.2085 34.192 90.5472 33.9093 90.0885 33.344C89.6298 32.7787 89.4005 31.9733 89.4005 30.928V25.648H91.4485V30.72C91.4485 31.296 91.5605 31.7387 91.7845 32.048C92.0085 32.3467 92.3658 32.496 92.8565 32.496C93.0592 32.496 93.2565 32.4693 93.4485 32.416C93.6512 32.3627 93.8272 32.2827 93.9765 32.176C94.1258 32.0587 94.2485 31.92 94.3445 31.76C94.4405 31.5893 94.4885 31.392 94.4885 31.168V25.648H96.5365V34H94.4885V32.608ZM98.9028 34V25.648H100.951V27.04H101.031C101.191 26.6027 101.447 26.2293 101.799 25.92C102.151 25.6107 102.641 25.456 103.271 25.456C103.847 25.456 104.343 25.5947 104.759 25.872C105.175 26.1493 105.484 26.5707 105.687 27.136H105.719C105.868 26.6667 106.161 26.272 106.599 25.952C107.047 25.6213 107.607 25.456 108.279 25.456C109.1 25.456 109.729 25.7387 110.167 26.304C110.615 26.8693 110.839 27.6747 110.839 28.72V34H108.791V28.928C108.791 27.7333 108.343 27.136 107.447 27.136C107.244 27.136 107.047 27.168 106.855 27.232C106.673 27.2853 106.508 27.3707 106.359 27.488C106.22 27.5947 106.108 27.7333 106.023 27.904C105.937 28.064 105.895 28.256 105.895 28.48V34H103.847V28.928C103.847 27.7333 103.399 27.136 102.503 27.136C102.311 27.136 102.119 27.168 101.927 27.232C101.745 27.2853 101.58 27.3707 101.431 27.488C101.292 27.5947 101.175 27.7333 101.079 27.904C100.993 28.064 100.951 28.256 100.951 28.48V34H98.9028ZM122.071 32.608H121.991C121.842 33.088 121.559 33.472 121.143 33.76C120.727 34.048 120.242 34.192 119.687 34.192C118.631 34.192 117.82 33.8133 117.255 33.056C116.7 32.2987 116.423 31.216 116.423 29.808C116.423 28.4107 116.7 27.3387 117.255 26.592C117.82 25.8347 118.631 25.456 119.687 25.456C120.242 25.456 120.727 25.6 121.143 25.888C121.559 26.1653 121.842 26.544 121.991 27.024H122.071V22.16H124.119V34H122.071V32.608ZM120.343 32.496C120.834 32.496 121.244 32.3787 121.575 32.144C121.906 31.9093 122.071 31.5733 122.071 31.136V28.48C122.071 28.0747 121.906 27.7493 121.575 27.504C121.244 27.2587 120.834 27.136 120.343 27.136C119.81 27.136 119.378 27.3173 119.047 27.68C118.727 28.032 118.567 28.5067 118.567 29.104V30.544C118.567 31.1413 118.727 31.616 119.047 31.968C119.378 32.32 119.81 32.496 120.343 32.496ZM129.793 34.192C129.196 34.192 128.657 34.0907 128.177 33.888C127.708 33.6853 127.302 33.392 126.961 33.008C126.63 32.624 126.374 32.1653 126.193 31.632C126.012 31.088 125.921 30.48 125.921 29.808C125.921 29.136 126.012 28.5333 126.193 28C126.374 27.4667 126.63 27.0133 126.961 26.64C127.302 26.256 127.708 25.9627 128.177 25.76C128.657 25.5573 129.196 25.456 129.793 25.456C130.39 25.456 130.929 25.5573 131.409 25.76C131.889 25.9627 132.294 26.256 132.625 26.64C132.966 27.0133 133.228 27.4667 133.409 28C133.59 28.5333 133.681 29.136 133.681 29.808C133.681 30.48 133.59 31.088 133.409 31.632C133.228 32.1653 132.966 32.624 132.625 33.008C132.294 33.392 131.889 33.6853 131.409 33.888C130.929 34.0907 130.39 34.192 129.793 34.192ZM129.793 32.544C130.337 32.544 130.764 32.3787 131.073 32.048C131.382 31.7173 131.537 31.232 131.537 30.592V29.04C131.537 28.4107 131.382 27.9307 131.073 27.6C130.764 27.2693 130.337 27.104 129.793 27.104C129.26 27.104 128.838 27.2693 128.529 27.6C128.22 27.9307 128.065 28.4107 128.065 29.04V30.592C128.065 31.232 128.22 31.7173 128.529 32.048C128.838 32.3787 129.26 32.544 129.793 32.544ZM137.545 34C136.841 34 136.323 33.824 135.993 33.472C135.662 33.12 135.497 32.624 135.497 31.984V22.16H137.545V32.368H138.649V34H137.545ZM143.512 34.192C142.914 34.192 142.376 34.0907 141.896 33.888C141.426 33.6853 141.021 33.392 140.68 33.008C140.349 32.624 140.093 32.1653 139.912 31.632C139.73 31.088 139.64 30.48 139.64 29.808C139.64 29.136 139.73 28.5333 139.912 28C140.093 27.4667 140.349 27.0133 140.68 26.64C141.021 26.256 141.426 25.9627 141.896 25.76C142.376 25.5573 142.914 25.456 143.512 25.456C144.109 25.456 144.648 25.5573 145.128 25.76C145.608 25.9627 146.013 26.256 146.344 26.64C146.685 27.0133 146.946 27.4667 147.128 28C147.309 28.5333 147.4 29.136 147.4 29.808C147.4 30.48 147.309 31.088 147.128 31.632C146.946 32.1653 146.685 32.624 146.344 33.008C146.013 33.392 145.608 33.6853 145.128 33.888C144.648 34.0907 144.109 34.192 143.512 34.192ZM143.512 32.544C144.056 32.544 144.482 32.3787 144.792 32.048C145.101 31.7173 145.256 31.232 145.256 30.592V29.04C145.256 28.4107 145.101 27.9307 144.792 27.6C144.482 27.2693 144.056 27.104 143.512 27.104C142.978 27.104 142.557 27.2693 142.248 27.6C141.938 27.9307 141.784 28.4107 141.784 29.04V30.592C141.784 31.232 141.938 31.7173 142.248 32.048C142.557 32.3787 142.978 32.544 143.512 32.544ZM149.215 34V25.648H151.263V27.376H151.343C151.397 27.152 151.477 26.9387 151.583 26.736C151.701 26.5227 151.85 26.336 152.031 26.176C152.213 26.016 152.426 25.888 152.671 25.792C152.927 25.696 153.221 25.648 153.551 25.648H153.999V27.584H153.359C152.666 27.584 152.143 27.6853 151.791 27.888C151.439 28.0907 151.263 28.4213 151.263 28.88V34H149.215ZM162.014 34.192C161.214 34.192 160.542 34.0587 159.998 33.792C159.454 33.5147 158.974 33.136 158.558 32.656L159.806 31.44C160.115 31.792 160.451 32.0693 160.814 32.272C161.187 32.4747 161.614 32.576 162.094 32.576C162.584 32.576 162.936 32.4907 163.15 32.32C163.374 32.1493 163.486 31.9147 163.486 31.616C163.486 31.3707 163.406 31.1787 163.246 31.04C163.096 30.8907 162.835 30.7893 162.462 30.736L161.63 30.624C160.723 30.5067 160.03 30.2507 159.55 29.856C159.08 29.4507 158.846 28.864 158.846 28.096C158.846 27.6907 158.92 27.328 159.07 27.008C159.219 26.6773 159.432 26.4 159.71 26.176C159.987 25.9413 160.318 25.7653 160.702 25.648C161.096 25.52 161.534 25.456 162.014 25.456C162.419 25.456 162.776 25.488 163.086 25.552C163.406 25.6053 163.694 25.6907 163.95 25.808C164.206 25.9147 164.44 26.0533 164.654 26.224C164.867 26.384 165.075 26.5653 165.278 26.768L164.078 27.968C163.832 27.712 163.539 27.4987 163.198 27.328C162.856 27.1573 162.483 27.072 162.078 27.072C161.63 27.072 161.304 27.152 161.102 27.312C160.91 27.472 160.814 27.68 160.814 27.936C160.814 28.2133 160.894 28.4267 161.054 28.576C161.224 28.7147 161.507 28.816 161.902 28.88L162.75 28.992C164.552 29.248 165.454 30.0693 165.454 31.456C165.454 31.8613 165.368 32.2347 165.198 32.576C165.038 32.9067 164.808 33.1947 164.51 33.44C164.211 33.6747 163.848 33.8613 163.422 34C163.006 34.128 162.536 34.192 162.014 34.192ZM168.286 24.432C167.859 24.432 167.55 24.336 167.358 24.144C167.177 23.952 167.086 23.7067 167.086 23.408V23.088C167.086 22.7893 167.177 22.544 167.358 22.352C167.55 22.16 167.859 22.064 168.286 22.064C168.702 22.064 169.006 22.16 169.198 22.352C169.39 22.544 169.486 22.7893 169.486 23.088V23.408C169.486 23.7067 169.39 23.952 169.198 24.144C169.006 24.336 168.702 24.432 168.286 24.432ZM167.262 25.648H169.31V34H167.262V25.648ZM174.292 34C173.588 34 173.049 33.8187 172.676 33.456C172.313 33.0827 172.132 32.5547 172.132 31.872V27.28H170.9V25.648H171.54C171.849 25.648 172.057 25.5787 172.164 25.44C172.281 25.2907 172.34 25.072 172.34 24.784V23.36H174.18V25.648H175.892V27.28H174.18V32.368H175.764V34H174.292ZM187.594 34C187.146 34 186.788 33.872 186.522 33.616C186.266 33.3493 186.106 32.9973 186.042 32.56H185.946C185.807 33.104 185.524 33.5147 185.098 33.792C184.671 34.0587 184.143 34.192 183.514 34.192C182.66 34.192 182.004 33.968 181.546 33.52C181.087 33.072 180.858 32.4747 180.858 31.728C180.858 30.864 181.167 30.224 181.786 29.808C182.404 29.3813 183.284 29.168 184.426 29.168H185.85V28.56C185.85 28.0907 185.727 27.728 185.482 27.472C185.236 27.216 184.842 27.088 184.298 27.088C183.818 27.088 183.428 27.1947 183.13 27.408C182.842 27.6107 182.596 27.856 182.394 28.144L181.178 27.056C181.487 26.576 181.898 26.192 182.41 25.904C182.922 25.6053 183.599 25.456 184.442 25.456C185.572 25.456 186.431 25.712 187.018 26.224C187.604 26.736 187.898 27.472 187.898 28.432V32.368H188.73V34H187.594ZM184.202 32.704C184.66 32.704 185.05 32.6027 185.37 32.4C185.69 32.1973 185.85 31.8987 185.85 31.504V30.4H184.538C183.471 30.4 182.938 30.7413 182.938 31.424V31.696C182.938 32.0373 183.044 32.2933 183.258 32.464C183.482 32.624 183.796 32.704 184.202 32.704ZM190.387 34V25.648H192.435V27.04H192.515C192.675 26.6027 192.931 26.2293 193.283 25.92C193.635 25.6107 194.126 25.456 194.755 25.456C195.331 25.456 195.827 25.5947 196.243 25.872C196.659 26.1493 196.968 26.5707 197.171 27.136H197.203C197.352 26.6667 197.646 26.272 198.083 25.952C198.531 25.6213 199.091 25.456 199.763 25.456C200.584 25.456 201.214 25.7387 201.651 26.304C202.099 26.8693 202.323 27.6747 202.323 28.72V34H200.275V28.928C200.275 27.7333 199.827 27.136 198.931 27.136C198.728 27.136 198.531 27.168 198.339 27.232C198.158 27.2853 197.992 27.3707 197.843 27.488C197.704 27.5947 197.592 27.7333 197.507 27.904C197.422 28.064 197.379 28.256 197.379 28.48V34H195.331V28.928C195.331 27.7333 194.883 27.136 193.987 27.136C193.795 27.136 193.603 27.168 193.411 27.232C193.23 27.2853 193.064 27.3707 192.915 27.488C192.776 27.5947 192.659 27.7333 192.563 27.904C192.478 28.064 192.435 28.256 192.435 28.48V34H190.387ZM207.966 34.192C207.348 34.192 206.793 34.0907 206.302 33.888C205.822 33.6747 205.412 33.3813 205.07 33.008C204.74 32.624 204.484 32.1653 204.302 31.632C204.121 31.088 204.03 30.48 204.03 29.808C204.03 29.1467 204.116 28.5493 204.286 28.016C204.468 27.4827 204.724 27.0293 205.054 26.656C205.385 26.272 205.79 25.9787 206.27 25.776C206.75 25.5627 207.294 25.456 207.902 25.456C208.553 25.456 209.118 25.568 209.598 25.792C210.078 26.016 210.473 26.32 210.782 26.704C211.092 27.088 211.321 27.536 211.47 28.048C211.63 28.5493 211.71 29.088 211.71 29.664V30.336H206.158V30.544C206.158 31.152 206.329 31.6427 206.67 32.016C207.012 32.3787 207.518 32.56 208.19 32.56C208.702 32.56 209.118 32.4533 209.438 32.24C209.769 32.0267 210.062 31.7547 210.318 31.424L211.422 32.656C211.081 33.136 210.612 33.5147 210.014 33.792C209.428 34.0587 208.745 34.192 207.966 34.192ZM207.934 26.992C207.39 26.992 206.958 27.1733 206.638 27.536C206.318 27.8987 206.158 28.368 206.158 28.944V29.072H209.582V28.928C209.582 28.352 209.438 27.888 209.15 27.536C208.873 27.1733 208.468 26.992 207.934 26.992ZM216.12 34C215.416 34 214.877 33.8187 214.504 33.456C214.141 33.0827 213.96 32.5547 213.96 31.872V27.28H212.728V25.648H213.368C213.677 25.648 213.885 25.5787 213.992 25.44C214.109 25.2907 214.168 25.072 214.168 24.784V23.36H216.008V25.648H217.72V27.28H216.008V32.368H217.592V34H216.12Z" fill="black"/>
<circle cx="33" cy="65" r="16" fill="white" stroke="#1A1A1A" stroke-width="2"/>
<path d="M59.488 69V57.832H66.144V59.016H60.832V62.76H65.68V63.944H60.832V69H59.488ZM71.0113 69.192C70.4566 69.192 69.9499 69.0907 69.4913 68.888C69.0326 68.6853 68.6379 68.3973 68.3073 68.024C67.9873 67.64 67.7366 67.1867 67.5553 66.664C67.3739 66.1307 67.2833 65.5333 67.2833 64.872C67.2833 64.2213 67.3739 63.6293 67.5553 63.096C67.7366 62.5627 67.9873 62.1093 68.3073 61.736C68.6379 61.352 69.0326 61.0587 69.4913 60.856C69.9499 60.6533 70.4566 60.552 71.0113 60.552C71.5659 60.552 72.0673 60.6533 72.5153 60.856C72.9739 61.0587 73.3686 61.352 73.6993 61.736C74.0299 62.1093 74.2859 62.5627 74.4673 63.096C74.6486 63.6293 74.7393 64.2213 74.7393 64.872C74.7393 65.5333 74.6486 66.1307 74.4673 66.664C74.2859 67.1867 74.0299 67.64 73.6993 68.024C73.3686 68.3973 72.9739 68.6853 72.5153 68.888C72.0673 69.0907 71.5659 69.192 71.0113 69.192ZM71.0113 68.056C71.7046 68.056 72.2699 67.8427 72.7073 67.416C73.1446 66.9893 73.3633 66.3387 73.3633 65.464V64.28C73.3633 63.4053 73.1446 62.7547 72.7073 62.328C72.2699 61.9013 71.7046 61.688 71.0113 61.688C70.3179 61.688 69.7526 61.9013 69.3153 62.328C68.8779 62.7547 68.6593 63.4053 68.6593 64.28V65.464C68.6593 66.3387 68.8779 66.9893 69.3153 67.416C69.7526 67.8427 70.3179 68.056 71.0113 68.056ZM76.8444 69V60.744H78.1244V62.264H78.2044C78.3537 61.8693 78.6204 61.5173 79.0044 61.208C79.3884 60.8987 79.9164 60.744 80.5884 60.744H81.0844V62.024H80.3324C79.639 62.024 79.095 62.1573 78.7004 62.424C78.3164 62.68 78.1244 63.0053 78.1244 63.4V69H76.8444ZM82.7194 69V60.744H83.9994V62.088H84.0634C84.266 61.6187 84.5487 61.2453 84.9114 60.968C85.2847 60.6907 85.7807 60.552 86.3994 60.552C87.2527 60.552 87.9247 60.8293 88.4154 61.384C88.9167 61.928 89.1674 62.7013 89.1674 63.704V69H87.8874V63.928C87.8874 62.4453 87.2634 61.704 86.0154 61.704C85.7594 61.704 85.5087 61.736 85.2634 61.8C85.0287 61.864 84.8154 61.96 84.6234 62.088C84.4314 62.216 84.2767 62.3813 84.1594 62.584C84.0527 62.776 83.9994 63.0053 83.9994 63.272V69H82.7194ZM97.8131 69C97.3331 69 96.9865 68.872 96.7731 68.616C96.5705 68.36 96.4425 68.04 96.3891 67.656H96.3091C96.1278 68.168 95.8291 68.552 95.4131 68.808C94.9971 69.064 94.5011 69.192 93.9251 69.192C93.0505 69.192 92.3678 68.968 91.8771 68.52C91.3971 68.072 91.1571 67.464 91.1571 66.696C91.1571 65.9173 91.4398 65.32 92.0051 64.904C92.5811 64.488 93.4718 64.28 94.6771 64.28H96.3091V63.464C96.3091 62.8773 96.1491 62.4293 95.8291 62.12C95.5091 61.8107 95.0185 61.656 94.3571 61.656C93.8558 61.656 93.4345 61.768 93.0931 61.992C92.7625 62.216 92.4851 62.5147 92.2611 62.888L91.4931 62.168C91.7171 61.72 92.0745 61.3413 92.5651 61.032C93.0558 60.712 93.6745 60.552 94.4211 60.552C95.4238 60.552 96.2025 60.7973 96.7571 61.288C97.3118 61.7787 97.5891 62.4613 97.5891 63.336V67.88H98.5331V69H97.8131ZM94.1331 68.104C94.4531 68.104 94.7465 68.0667 95.0131 67.992C95.2798 67.9173 95.5091 67.8107 95.7011 67.672C95.8931 67.5333 96.0425 67.3733 96.1491 67.192C96.2558 67.0107 96.3091 66.8133 96.3091 66.6V65.24H94.6131C93.8771 65.24 93.3385 65.3467 92.9971 65.56C92.6665 65.7733 92.5011 66.0827 92.5011 66.488V66.824C92.5011 67.2293 92.6451 67.544 92.9331 67.768C93.2318 67.992 93.6318 68.104 94.1331 68.104ZM102.059 69L99.163 60.744H100.443L101.883 64.84L102.779 67.656H102.859L103.755 64.84L105.227 60.744H106.459L103.547 69H102.059ZM108.11 69V60.744H109.39V62.088H109.454C109.657 61.6187 109.939 61.2453 110.302 60.968C110.675 60.6907 111.171 60.552 111.79 60.552C112.643 60.552 113.315 60.8293 113.806 61.384C114.307 61.928 114.558 62.7013 114.558 63.704V69H113.278V63.928C113.278 62.4453 112.654 61.704 111.406 61.704C111.15 61.704 110.899 61.736 110.654 61.8C110.419 61.864 110.206 61.96 110.014 62.088C109.822 62.216 109.667 62.3813 109.55 62.584C109.443 62.776 109.39 63.0053 109.39 63.272V69H108.11Z" fill="#1A1A1A"/>
<circle cx="33" cy="149" r="16" fill="white" stroke="#1A1A1A" stroke-width="2"/>
<path d="M62.416 147.512L60.832 149.272V153H59.488V141.832H60.832V147.768H60.88L62.48 145.832L65.856 141.832H67.504L63.344 146.616L67.792 153H66.128L62.416 147.512ZM68.2944 153.096L69.3664 151.752C68.8224 150.995 68.5504 150.035 68.5504 148.872C68.5504 148.221 68.641 147.629 68.8224 147.096C69.0037 146.563 69.2544 146.109 69.5744 145.736C69.905 145.352 70.2997 145.059 70.7584 144.856C71.217 144.653 71.7237 144.552 72.2784 144.552C72.7264 144.552 73.137 144.621 73.5104 144.76C73.8944 144.899 74.241 145.091 74.5504 145.336L75.5424 144.104L76.2624 144.648L75.1904 146.008C75.4464 146.371 75.6437 146.797 75.7824 147.288C75.9317 147.768 76.0064 148.296 76.0064 148.872C76.0064 149.533 75.9157 150.131 75.7344 150.664C75.553 151.187 75.297 151.64 74.9664 152.024C74.6357 152.397 74.241 152.685 73.7824 152.888C73.3344 153.091 72.833 153.192 72.2784 153.192C71.393 153.192 70.6357 152.936 70.0064 152.424L69.0144 153.64L68.2944 153.096ZM72.2784 152.056C72.9717 152.056 73.537 151.843 73.9744 151.416C74.4117 150.989 74.6304 150.339 74.6304 149.464V148.28C74.6304 148.024 74.609 147.789 74.5664 147.576C74.5237 147.363 74.465 147.165 74.3904 146.984L70.7104 151.528C71.105 151.88 71.6277 152.056 72.2784 152.056ZM69.9264 149.464C69.9264 149.976 70.0064 150.413 70.1664 150.776L73.8464 146.216C73.4304 145.864 72.9077 145.688 72.2784 145.688C71.585 145.688 71.0197 145.901 70.5824 146.328C70.145 146.755 69.9264 147.405 69.9264 148.28V149.464ZM78.1881 153V144.744H79.4681V146.088H79.5321C79.7348 145.619 80.0175 145.245 80.3801 144.968C80.7535 144.691 81.2495 144.552 81.8681 144.552C82.7215 144.552 83.3935 144.829 83.8841 145.384C84.3855 145.928 84.6361 146.701 84.6361 147.704V153H83.3561V147.928C83.3561 146.445 82.7321 145.704 81.4841 145.704C81.2281 145.704 80.9775 145.736 80.7321 145.8C80.4975 145.864 80.2841 145.96 80.0921 146.088C79.9001 146.216 79.7455 146.381 79.6281 146.584C79.5215 146.776 79.4681 147.005 79.4681 147.272V153H78.1881Z" fill="#1A1A1A"/>
<circle cx="33" cy="191" r="16" fill="white" stroke="#1A1A1A" stroke-width="2"/>
<path d="M59.488 195V183.832H66.304V185.016H60.832V188.76H65.984V189.944H60.832V193.816H66.304V195H59.488ZM68.4321 190.824V189.448H72.6081V190.824H68.4321ZM75.0788 195V186.744H76.3588V188.088H76.4228C76.5188 187.875 76.6254 187.677 76.7428 187.496C76.8708 187.304 77.0201 187.139 77.1908 187C77.3721 186.861 77.5801 186.755 77.8148 186.68C78.0494 186.595 78.3268 186.552 78.6468 186.552C79.1908 186.552 79.6921 186.685 80.1508 186.952C80.6094 187.208 80.9508 187.635 81.1748 188.232H81.2068C81.3561 187.784 81.6334 187.395 82.0388 187.064C82.4548 186.723 83.0148 186.552 83.7188 186.552C84.5614 186.552 85.2174 186.829 85.6868 187.384C86.1668 187.928 86.4068 188.701 86.4068 189.704V195H85.1268V189.928C85.1268 189.192 84.9828 188.637 84.6948 188.264C84.4068 187.891 83.9481 187.704 83.3188 187.704C83.0628 187.704 82.8174 187.736 82.5828 187.8C82.3588 187.864 82.1561 187.96 81.9748 188.088C81.7934 188.216 81.6494 188.381 81.5428 188.584C81.4361 188.776 81.3828 189.005 81.3828 189.272V195H80.1028V189.928C80.1028 189.192 79.9588 188.637 79.6708 188.264C79.3828 187.891 78.9348 187.704 78.3268 187.704C78.0708 187.704 77.8254 187.736 77.5908 187.8C77.3561 187.864 77.1481 187.96 76.9668 188.088C76.7854 188.216 76.6361 188.381 76.5188 188.584C76.4121 188.776 76.3588 189.005 76.3588 189.272V195H75.0788ZM95.0475 195C94.5675 195 94.2208 194.872 94.0075 194.616C93.8048 194.36 93.6768 194.04 93.6235 193.656H93.5435C93.3622 194.168 93.0635 194.552 92.6475 194.808C92.2315 195.064 91.7355 195.192 91.1595 195.192C90.2848 195.192 89.6022 194.968 89.1115 194.52C88.6315 194.072 88.3915 193.464 88.3915 192.696C88.3915 191.917 88.6742 191.32 89.2395 190.904C89.8155 190.488 90.7062 190.28 91.9115 190.28H93.5435V189.464C93.5435 188.877 93.3835 188.429 93.0635 188.12C92.7435 187.811 92.2528 187.656 91.5915 187.656C91.0902 187.656 90.6688 187.768 90.3275 187.992C89.9968 188.216 89.7195 188.515 89.4955 188.888L88.7275 188.168C88.9515 187.72 89.3088 187.341 89.7995 187.032C90.2902 186.712 90.9088 186.552 91.6555 186.552C92.6582 186.552 93.4368 186.797 93.9915 187.288C94.5462 187.779 94.8235 188.461 94.8235 189.336V193.88H95.7675V195H95.0475ZM91.3675 194.104C91.6875 194.104 91.9808 194.067 92.2475 193.992C92.5142 193.917 92.7435 193.811 92.9355 193.672C93.1275 193.533 93.2768 193.373 93.3835 193.192C93.4902 193.011 93.5435 192.813 93.5435 192.6V191.24H91.8475C91.1115 191.24 90.5728 191.347 90.2315 191.56C89.9008 191.773 89.7355 192.083 89.7355 192.488V192.824C89.7355 193.229 89.8795 193.544 90.1675 193.768C90.4662 193.992 90.8662 194.104 91.3675 194.104ZM98.2344 184.808C97.957 184.808 97.7544 184.744 97.6264 184.616C97.509 184.477 97.4504 184.301 97.4504 184.088V183.88C97.4504 183.667 97.509 183.496 97.6264 183.368C97.7544 183.229 97.957 183.16 98.2344 183.16C98.5117 183.16 98.709 183.229 98.8264 183.368C98.9544 183.496 99.0184 183.667 99.0184 183.88V184.088C99.0184 184.301 98.9544 184.477 98.8264 184.616C98.709 184.744 98.5117 184.808 98.2344 184.808ZM97.5944 186.744H98.8744V195H97.5944V186.744ZM102.954 195C102.506 195 102.165 194.877 101.93 194.632C101.706 194.376 101.594 194.056 101.594 193.672V183.16H102.874V193.88H104.09V195H102.954ZM111.954 195C111.474 195 111.127 194.872 110.914 194.616C110.711 194.36 110.583 194.04 110.53 193.656H110.45C110.268 194.168 109.97 194.552 109.554 194.808C109.138 195.064 108.642 195.192 108.066 195.192C107.191 195.192 106.508 194.968 106.018 194.52C105.538 194.072 105.298 193.464 105.298 192.696C105.298 191.917 105.58 191.32 106.146 190.904C106.722 190.488 107.612 190.28 108.818 190.28H110.45V189.464C110.45 188.877 110.29 188.429 109.97 188.12C109.65 187.811 109.159 187.656 108.498 187.656C107.996 187.656 107.575 187.768 107.234 187.992C106.903 188.216 106.626 188.515 106.402 188.888L105.634 188.168C105.858 187.72 106.215 187.341 106.706 187.032C107.196 186.712 107.815 186.552 108.562 186.552C109.564 186.552 110.343 186.797 110.898 187.288C111.452 187.779 111.73 188.461 111.73 189.336V193.88H112.674V195H111.954ZM108.274 194.104C108.594 194.104 108.887 194.067 109.154 193.992C109.42 193.917 109.65 193.811 109.842 193.672C110.034 193.533 110.183 193.373 110.29 193.192C110.396 193.011 110.45 192.813 110.45 192.6V191.24H108.754C108.018 191.24 107.479 191.347 107.138 191.56C106.807 191.773 106.642 192.083 106.642 192.488V192.824C106.642 193.229 106.786 193.544 107.074 193.768C107.372 193.992 107.772 194.104 108.274 194.104ZM119.781 193.656H119.717C119.215 194.68 118.41 195.192 117.301 195.192C116.789 195.192 116.325 195.091 115.909 194.888C115.493 194.685 115.135 194.397 114.837 194.024C114.549 193.651 114.325 193.197 114.165 192.664C114.015 192.131 113.941 191.533 113.941 190.872C113.941 190.211 114.015 189.613 114.165 189.08C114.325 188.547 114.549 188.093 114.837 187.72C115.135 187.347 115.493 187.059 115.909 186.856C116.325 186.653 116.789 186.552 117.301 186.552C117.877 186.552 118.367 186.68 118.773 186.936C119.189 187.181 119.503 187.565 119.717 188.088H119.781V183.16H121.061V195H119.781V193.656ZM117.653 194.04C117.941 194.04 118.213 194.003 118.469 193.928C118.735 193.853 118.965 193.747 119.157 193.608C119.349 193.459 119.498 193.283 119.605 193.08C119.722 192.867 119.781 192.627 119.781 192.36V189.288C119.781 189.064 119.722 188.856 119.605 188.664C119.498 188.461 119.349 188.291 119.157 188.152C118.965 188.013 118.735 187.907 118.469 187.832C118.213 187.747 117.941 187.704 117.653 187.704C116.927 187.704 116.357 187.933 115.941 188.392C115.525 188.84 115.317 189.432 115.317 190.168V191.576C115.317 192.312 115.525 192.909 115.941 193.368C116.357 193.816 116.927 194.04 117.653 194.04ZM123.782 195V186.744H125.062V188.264H125.142C125.291 187.869 125.558 187.517 125.942 187.208C126.326 186.899 126.854 186.744 127.526 186.744H128.022V188.024H127.27C126.577 188.024 126.033 188.157 125.638 188.424C125.254 188.68 125.062 189.005 125.062 189.4V195H123.782ZM132.683 195.192C132.117 195.192 131.605 195.091 131.147 194.888C130.699 194.685 130.309 194.397 129.979 194.024C129.659 193.64 129.408 193.187 129.227 192.664C129.056 192.131 128.971 191.533 128.971 190.872C128.971 190.221 129.056 189.629 129.227 189.096C129.408 188.563 129.659 188.109 129.979 187.736C130.309 187.352 130.699 187.059 131.147 186.856C131.605 186.653 132.117 186.552 132.683 186.552C133.237 186.552 133.733 186.653 134.171 186.856C134.608 187.059 134.981 187.341 135.291 187.704C135.6 188.056 135.835 188.477 135.995 188.968C136.165 189.459 136.251 189.997 136.251 190.584V191.192H130.315V191.576C130.315 191.928 130.368 192.259 130.475 192.568C130.592 192.867 130.752 193.128 130.955 193.352C131.168 193.576 131.424 193.752 131.723 193.88C132.032 194.008 132.379 194.072 132.763 194.072C133.285 194.072 133.739 193.949 134.123 193.704C134.517 193.459 134.821 193.107 135.035 192.648L135.947 193.304C135.68 193.869 135.264 194.328 134.699 194.68C134.133 195.021 133.461 195.192 132.683 195.192ZM132.683 187.624C132.331 187.624 132.011 187.688 131.723 187.816C131.435 187.933 131.184 188.104 130.971 188.328C130.768 188.552 130.608 188.819 130.491 189.128C130.373 189.427 130.315 189.757 130.315 190.12V190.232H134.875V190.056C134.875 189.32 134.672 188.733 134.267 188.296C133.872 187.848 133.344 187.624 132.683 187.624ZM140.84 195.192C140.072 195.192 139.427 195.048 138.904 194.76C138.392 194.461 137.949 194.067 137.576 193.576L138.488 192.84C138.808 193.245 139.165 193.56 139.56 193.784C139.955 193.997 140.413 194.104 140.936 194.104C141.48 194.104 141.901 193.987 142.2 193.752C142.509 193.517 142.664 193.187 142.664 192.76C142.664 192.44 142.557 192.168 142.344 191.944C142.141 191.709 141.768 191.549 141.224 191.464L140.568 191.368C140.184 191.315 139.832 191.235 139.512 191.128C139.192 191.011 138.909 190.861 138.664 190.68C138.429 190.488 138.243 190.253 138.104 189.976C137.976 189.699 137.912 189.368 137.912 188.984C137.912 188.579 137.987 188.227 138.136 187.928C138.285 187.619 138.488 187.363 138.744 187.16C139.011 186.957 139.325 186.808 139.688 186.712C140.051 186.605 140.44 186.552 140.856 186.552C141.528 186.552 142.088 186.669 142.536 186.904C142.995 187.139 143.395 187.464 143.736 187.88L142.888 188.648C142.707 188.392 142.44 188.163 142.088 187.96C141.736 187.747 141.293 187.64 140.76 187.64C140.227 187.64 139.821 187.757 139.544 187.992C139.277 188.216 139.144 188.525 139.144 188.92C139.144 189.325 139.277 189.619 139.544 189.8C139.821 189.981 140.216 190.115 140.728 190.2L141.368 190.296C142.285 190.435 142.936 190.701 143.32 191.096C143.704 191.48 143.896 191.987 143.896 192.616C143.896 193.416 143.624 194.045 143.08 194.504C142.536 194.963 141.789 195.192 140.84 195.192ZM148.543 195.192C147.775 195.192 147.13 195.048 146.607 194.76C146.095 194.461 145.652 194.067 145.279 193.576L146.191 192.84C146.511 193.245 146.868 193.56 147.263 193.784C147.658 193.997 148.116 194.104 148.639 194.104C149.183 194.104 149.604 193.987 149.903 193.752C150.212 193.517 150.367 193.187 150.367 192.76C150.367 192.44 150.26 192.168 150.047 191.944C149.844 191.709 149.471 191.549 148.927 191.464L148.271 191.368C147.887 191.315 147.535 191.235 147.215 191.128C146.895 191.011 146.612 190.861 146.367 190.68C146.132 190.488 145.946 190.253 145.807 189.976C145.679 189.699 145.615 189.368 145.615 188.984C145.615 188.579 145.69 188.227 145.839 187.928C145.988 187.619 146.191 187.363 146.447 187.16C146.714 186.957 147.028 186.808 147.391 186.712C147.754 186.605 148.143 186.552 148.559 186.552C149.231 186.552 149.791 186.669 150.239 186.904C150.698 187.139 151.098 187.464 151.439 187.88L150.591 188.648C150.41 188.392 150.143 188.163 149.791 187.96C149.439 187.747 148.996 187.64 148.463 187.64C147.93 187.64 147.524 187.757 147.247 187.992C146.98 188.216 146.847 188.525 146.847 188.92C146.847 189.325 146.98 189.619 147.247 189.8C147.524 189.981 147.919 190.115 148.431 190.2L149.071 190.296C149.988 190.435 150.639 190.701 151.023 191.096C151.407 191.48 151.599 191.987 151.599 192.616C151.599 193.416 151.327 194.045 150.783 194.504C150.239 194.963 149.492 195.192 148.543 195.192ZM156.964 195.192C156.399 195.192 155.887 195.091 155.428 194.888C154.98 194.685 154.591 194.397 154.26 194.024C153.94 193.64 153.689 193.187 153.508 192.664C153.337 192.131 153.252 191.533 153.252 190.872C153.252 190.221 153.337 189.629 153.508 189.096C153.689 188.563 153.94 188.109 154.26 187.736C154.591 187.352 154.98 187.059 155.428 186.856C155.887 186.653 156.399 186.552 156.964 186.552C157.519 186.552 158.015 186.653 158.452 186.856C158.889 187.059 159.263 187.341 159.572 187.704C159.881 188.056 160.116 188.477 160.276 188.968C160.447 189.459 160.532 189.997 160.532 190.584V191.192H154.596V191.576C154.596 191.928 154.649 192.259 154.756 192.568C154.873 192.867 155.033 193.128 155.236 193.352C155.449 193.576 155.705 193.752 156.004 193.88C156.313 194.008 156.66 194.072 157.044 194.072C157.567 194.072 158.02 193.949 158.404 193.704C158.799 193.459 159.103 193.107 159.316 192.648L160.228 193.304C159.961 193.869 159.545 194.328 158.98 194.68C158.415 195.021 157.743 195.192 156.964 195.192ZM156.964 187.624C156.612 187.624 156.292 187.688 156.004 187.816C155.716 187.933 155.465 188.104 155.252 188.328C155.049 188.552 154.889 188.819 154.772 189.128C154.655 189.427 154.596 189.757 154.596 190.12V190.232H159.156V190.056C159.156 189.32 158.953 188.733 158.548 188.296C158.153 187.848 157.625 187.624 156.964 187.624Z" fill="#1A1A1A"/>
<circle cx="33" cy="233" r="16" fill="white" stroke="#1A1A1A" stroke-width="2"/>
<path d="M63.248 227.016V237H61.904V227.016H58.352V225.832H66.8V227.016H63.248ZM70.5734 237.192C70.008 237.192 69.496 237.091 69.0374 236.888C68.5894 236.685 68.2 236.397 67.8694 236.024C67.5494 235.64 67.2987 235.187 67.1174 234.664C66.9467 234.131 66.8614 233.533 66.8614 232.872C66.8614 232.221 66.9467 231.629 67.1174 231.096C67.2987 230.563 67.5494 230.109 67.8694 229.736C68.2 229.352 68.5894 229.059 69.0374 228.856C69.496 228.653 70.008 228.552 70.5734 228.552C71.128 228.552 71.624 228.653 72.0614 228.856C72.4987 229.059 72.872 229.341 73.1814 229.704C73.4907 230.056 73.7254 230.477 73.8854 230.968C74.056 231.459 74.1414 231.997 74.1414 232.584V233.192H68.2054V233.576C68.2054 233.928 68.2587 234.259 68.3654 234.568C68.4827 234.867 68.6427 235.128 68.8454 235.352C69.0587 235.576 69.3147 235.752 69.6134 235.88C69.9227 236.008 70.2694 236.072 70.6534 236.072C71.176 236.072 71.6294 235.949 72.0134 235.704C72.408 235.459 72.712 235.107 72.9254 234.648L73.8374 235.304C73.5707 235.869 73.1547 236.328 72.5894 236.68C72.024 237.021 71.352 237.192 70.5734 237.192ZM70.5734 229.624C70.2214 229.624 69.9014 229.688 69.6134 229.816C69.3254 229.933 69.0747 230.104 68.8614 230.328C68.6587 230.552 68.4987 230.819 68.3814 231.128C68.264 231.427 68.2054 231.757 68.2054 232.12V232.232H72.7654V232.056C72.7654 231.32 72.5627 230.733 72.1574 230.296C71.7627 229.848 71.2347 229.624 70.5734 229.624ZM77.6106 237C77.1626 237 76.8213 236.877 76.5866 236.632C76.3626 236.376 76.2506 236.056 76.2506 235.672V225.16H77.5306V235.88H78.7466V237H77.6106ZM83.714 237.192C83.1487 237.192 82.6367 237.091 82.178 236.888C81.73 236.685 81.3407 236.397 81.01 236.024C80.69 235.64 80.4393 235.187 80.258 234.664C80.0873 234.131 80.002 233.533 80.002 232.872C80.002 232.221 80.0873 231.629 80.258 231.096C80.4393 230.563 80.69 230.109 81.01 229.736C81.3407 229.352 81.73 229.059 82.178 228.856C82.6367 228.653 83.1487 228.552 83.714 228.552C84.2687 228.552 84.7647 228.653 85.202 228.856C85.6393 229.059 86.0127 229.341 86.322 229.704C86.6313 230.056 86.866 230.477 87.026 230.968C87.1967 231.459 87.282 231.997 87.282 232.584V233.192H81.346V233.576C81.346 233.928 81.3993 234.259 81.506 234.568C81.6233 234.867 81.7833 235.128 81.986 235.352C82.1993 235.576 82.4553 235.752 82.754 235.88C83.0633 236.008 83.41 236.072 83.794 236.072C84.3167 236.072 84.77 235.949 85.154 235.704C85.5487 235.459 85.8527 235.107 86.066 234.648L86.978 235.304C86.7113 235.869 86.2953 236.328 85.73 236.68C85.1647 237.021 84.4927 237.192 83.714 237.192ZM83.714 229.624C83.362 229.624 83.042 229.688 82.754 229.816C82.466 229.933 82.2153 230.104 82.002 230.328C81.7993 230.552 81.6393 230.819 81.522 231.128C81.4047 231.427 81.346 231.757 81.346 232.12V232.232H85.906V232.056C85.906 231.32 85.7033 230.733 85.298 230.296C84.9033 229.848 84.3753 229.624 83.714 229.624ZM89.8393 229.864H88.4953V228.744H89.8393V227.08C89.8393 226.504 89.9886 226.04 90.2873 225.688C90.5859 225.336 91.0393 225.16 91.6473 225.16H92.8953V226.28H91.1193V228.744H92.8953V229.864H91.1193V237H89.8393V229.864ZM97.6363 237.192C97.0816 237.192 96.5749 237.091 96.1163 236.888C95.6576 236.685 95.2629 236.397 94.9323 236.024C94.6123 235.64 94.3616 235.187 94.1803 234.664C93.9989 234.131 93.9083 233.533 93.9083 232.872C93.9083 232.221 93.9989 231.629 94.1803 231.096C94.3616 230.563 94.6123 230.109 94.9323 229.736C95.2629 229.352 95.6576 229.059 96.1163 228.856C96.5749 228.653 97.0816 228.552 97.6363 228.552C98.1909 228.552 98.6923 228.653 99.1403 228.856C99.5989 229.059 99.9936 229.352 100.324 229.736C100.655 230.109 100.911 230.563 101.092 231.096C101.274 231.629 101.364 232.221 101.364 232.872C101.364 233.533 101.274 234.131 101.092 234.664C100.911 235.187 100.655 235.64 100.324 236.024C99.9936 236.397 99.5989 236.685 99.1403 236.888C98.6923 237.091 98.1909 237.192 97.6363 237.192ZM97.6363 236.056C98.3296 236.056 98.8949 235.843 99.3323 235.416C99.7696 234.989 99.9883 234.339 99.9883 233.464V232.28C99.9883 231.405 99.7696 230.755 99.3323 230.328C98.8949 229.901 98.3296 229.688 97.6363 229.688C96.9429 229.688 96.3776 229.901 95.9403 230.328C95.5029 230.755 95.2843 231.405 95.2843 232.28V233.464C95.2843 234.339 95.5029 234.989 95.9403 235.416C96.3776 235.843 96.9429 236.056 97.6363 236.056ZM103.469 237V228.744H104.749V230.088H104.813C105.016 229.619 105.299 229.245 105.661 228.968C106.035 228.691 106.531 228.552 107.149 228.552C108.003 228.552 108.675 228.829 109.165 229.384C109.667 229.928 109.917 230.701 109.917 231.704V237H108.637V231.928C108.637 230.445 108.013 229.704 106.765 229.704C106.509 229.704 106.259 229.736 106.013 229.8C105.779 229.864 105.565 229.96 105.373 230.088C105.181 230.216 105.027 230.381 104.909 230.584C104.803 230.776 104.749 231.005 104.749 231.272V237H103.469Z" fill="#1A1A1A"/>
<circle cx="33" cy="275" r="16" fill="white" stroke="#1A1A1A" stroke-width="2"/>
<circle cx="33" cy="275" r="9" fill="#1A1A1A"/>
<path d="M66.48 273.944H60.832V279H59.488V267.832H60.832V272.76H66.48V267.832H67.824V279H66.48V273.944ZM70.6725 270.744H71.9525V280.28C71.9525 280.856 71.8085 281.32 71.5205 281.672C71.2325 282.024 70.7792 282.2 70.1605 282.2H69.3285V281.08H70.6725V270.744ZM71.3125 268.808C71.0352 268.808 70.8325 268.744 70.7045 268.616C70.5872 268.477 70.5285 268.301 70.5285 268.088V267.88C70.5285 267.667 70.5872 267.496 70.7045 267.368C70.8325 267.229 71.0352 267.16 71.3125 267.16C71.5898 267.16 71.7872 267.229 71.9045 267.368C72.0325 267.496 72.0965 267.667 72.0965 267.88V268.088C72.0965 268.301 72.0325 268.477 71.9045 268.616C71.7872 268.744 71.5898 268.808 71.3125 268.808ZM77.4725 275.192C76.7365 275.213 76.1978 275.336 75.8565 275.56C75.5258 275.773 75.3605 276.083 75.3605 276.488V276.824C75.3605 277.229 75.5045 277.544 75.7925 277.768C76.0912 277.992 76.4965 278.104 77.0085 278.104C77.3178 278.104 77.6005 278.067 77.8565 277.992C78.1232 277.917 78.3525 277.811 78.5445 277.672C78.7365 277.533 78.8858 277.373 78.9925 277.192C79.1098 277.011 79.1685 276.813 79.1685 276.6V275.192H77.4725ZM85.0085 274.232V274.056C85.0085 273.32 84.8058 272.733 84.4005 272.296C84.0058 271.848 83.4778 271.624 82.8165 271.624C82.4645 271.624 82.1445 271.688 81.8565 271.816C81.5685 271.933 81.3178 272.104 81.1045 272.328C80.9018 272.552 80.7418 272.819 80.6245 273.128C80.5072 273.427 80.4485 273.757 80.4485 274.12V274.232H85.0085ZM82.8965 278.072C83.9525 278.072 84.7098 277.603 85.1685 276.664L86.0805 277.304C85.8138 277.88 85.4032 278.339 84.8485 278.68C84.3045 279.021 83.6752 279.192 82.9605 279.192C82.5232 279.192 82.1232 279.128 81.7605 279C81.4085 278.883 81.0992 278.733 80.8325 278.552C80.5765 278.36 80.3685 278.157 80.2085 277.944C80.0485 277.72 79.9472 277.517 79.9045 277.336H79.8085C79.7765 277.517 79.6805 277.715 79.5205 277.928C79.3712 278.141 79.1685 278.344 78.9125 278.536C78.6565 278.717 78.3472 278.872 77.9845 279C77.6218 279.128 77.2112 279.192 76.7525 279.192C75.9205 279.192 75.2538 278.973 74.7525 278.536C74.2618 278.088 74.0165 277.485 74.0165 276.728C74.0165 275.928 74.3098 275.315 74.8965 274.888C75.4832 274.451 76.3632 274.232 77.5365 274.232H79.1685V273.464C79.1685 272.877 79.0085 272.429 78.6885 272.12C78.3685 271.811 77.8938 271.656 77.2645 271.656C76.7312 271.656 76.2992 271.763 75.9685 271.976C75.6378 272.189 75.3552 272.488 75.1205 272.872L74.3525 272.168C74.5658 271.731 74.9178 271.352 75.4085 271.032C75.9098 270.712 76.5392 270.552 77.2965 270.552C77.7658 270.552 78.1552 270.621 78.4645 270.76C78.7845 270.888 79.0405 271.048 79.2325 271.24C79.4352 271.421 79.5845 271.619 79.6805 271.832C79.7765 272.045 79.8458 272.232 79.8885 272.392H79.9845C80.0272 272.211 80.1285 272.013 80.2885 271.8C80.4485 271.587 80.6565 271.389 80.9125 271.208C81.1685 271.016 81.4672 270.861 81.8085 270.744C82.1605 270.616 82.5445 270.552 82.9605 270.552C83.4832 270.552 83.9525 270.653 84.3685 270.856C84.7952 271.059 85.1578 271.341 85.4565 271.704C85.7552 272.056 85.9845 272.477 86.1445 272.968C86.3045 273.459 86.3845 273.997 86.3845 274.584V275.192H80.4485V275.576C80.4485 275.928 80.5018 276.259 80.6085 276.568C80.7258 276.867 80.8858 277.128 81.0885 277.352C81.3018 277.576 81.5578 277.752 81.8565 277.88C82.1658 278.008 82.5125 278.072 82.8965 278.072ZM89.8606 279C89.4126 279 89.0713 278.877 88.8366 278.632C88.6126 278.376 88.5006 278.056 88.5006 277.672V267.16H89.7806V277.88H90.9966V279H89.8606ZM92.86 270.744H94.14V272.088H94.204C94.4173 271.565 94.7267 271.181 95.132 270.936C95.548 270.68 96.044 270.552 96.62 270.552C97.132 270.552 97.596 270.653 98.012 270.856C98.428 271.059 98.78 271.347 99.068 271.72C99.3667 272.093 99.5907 272.547 99.74 273.08C99.9 273.613 99.98 274.211 99.98 274.872C99.98 275.533 99.9 276.131 99.74 276.664C99.5907 277.197 99.3667 277.651 99.068 278.024C98.78 278.397 98.428 278.685 98.012 278.888C97.596 279.091 97.132 279.192 96.62 279.192C95.5 279.192 94.6947 278.68 94.204 277.656H94.14V282.2H92.86V270.744ZM96.268 278.04C96.9933 278.04 97.564 277.816 97.98 277.368C98.396 276.909 98.604 276.312 98.604 275.576V274.168C98.604 273.432 98.396 272.84 97.98 272.392C97.564 271.933 96.9933 271.704 96.268 271.704C95.98 271.704 95.7027 271.747 95.436 271.832C95.18 271.907 94.956 272.013 94.764 272.152C94.572 272.291 94.4173 272.461 94.3 272.664C94.1933 272.856 94.14 273.064 94.14 273.288V276.36C94.14 276.627 94.1933 276.867 94.3 277.08C94.4173 277.283 94.572 277.459 94.764 277.608C94.956 277.747 95.18 277.853 95.436 277.928C95.7027 278.003 95.98 278.04 96.268 278.04Z" fill="#1A1A1A"/>
<rect x="31" y="300" width="4" height="116" fill="#C4C4C4"/>
<rect width="343" height="20" transform="translate(59 332)" fill="#DCDCDC"/>
<rect width="343" height="20" transform="translate(59 356)" fill="#DCDCDC"/>
<rect width="257" height="20" transform="translate(59 380)" fill="#DCDCDC"/>
<rect width="118" height="12" transform="translate(59 316)" fill="#DCDCDC"/>
<circle cx="33" cy="107" r="16" fill="white" stroke="#1A1A1A" stroke-width="2"/>
<path d="M59.488 111V99.832H66.304V101.016H60.832V104.76H65.984V105.944H60.832V109.816H66.304V111H59.488ZM69.1361 103.864H67.7921V102.744H69.1361V101.08C69.1361 100.504 69.2855 100.04 69.5841 99.688C69.8828 99.336 70.3361 99.16 70.9441 99.16H72.1921V100.28H70.4161V102.744H72.1921V103.864H70.4161V111H69.1361V103.864ZM75.6996 111C75.2516 111 74.9103 110.877 74.6756 110.632C74.4516 110.376 74.3396 110.045 74.3396 109.64V103.864H72.9796V102.744H73.7476C74.025 102.744 74.2116 102.691 74.3076 102.584C74.4143 102.467 74.4676 102.269 74.4676 101.992V100.456H75.6196V102.744H77.4276V103.864H75.6196V109.88H77.2996V111H75.6996ZM82.5265 111.192C81.9612 111.192 81.4492 111.091 80.9905 110.888C80.5425 110.685 80.1532 110.397 79.8225 110.024C79.5025 109.64 79.2518 109.187 79.0705 108.664C78.8998 108.131 78.8145 107.533 78.8145 106.872C78.8145 106.221 78.8998 105.629 79.0705 105.096C79.2518 104.563 79.5025 104.109 79.8225 103.736C80.1532 103.352 80.5425 103.059 80.9905 102.856C81.4492 102.653 81.9612 102.552 82.5265 102.552C83.0812 102.552 83.5772 102.653 84.0145 102.856C84.4518 103.059 84.8252 103.341 85.1345 103.704C85.4438 104.056 85.6785 104.477 85.8385 104.968C86.0092 105.459 86.0945 105.997 86.0945 106.584V107.192H80.1585V107.576C80.1585 107.928 80.2118 108.259 80.3185 108.568C80.4358 108.867 80.5958 109.128 80.7985 109.352C81.0118 109.576 81.2678 109.752 81.5665 109.88C81.8758 110.008 82.2225 110.072 82.6065 110.072C83.1292 110.072 83.5825 109.949 83.9665 109.704C84.3612 109.459 84.6652 109.107 84.8785 108.648L85.7905 109.304C85.5238 109.869 85.1078 110.328 84.5425 110.68C83.9772 111.021 83.3052 111.192 82.5265 111.192ZM82.5265 103.624C82.1745 103.624 81.8545 103.688 81.5665 103.816C81.2785 103.933 81.0278 104.104 80.8145 104.328C80.6118 104.552 80.4518 104.819 80.3345 105.128C80.2172 105.427 80.1585 105.757 80.1585 106.12V106.232H84.7185V106.056C84.7185 105.32 84.5158 104.733 84.1105 104.296C83.7158 103.848 83.1878 103.624 82.5265 103.624ZM88.2038 111V102.744H89.4838V104.264H89.5638C89.7131 103.869 89.9798 103.517 90.3638 103.208C90.7478 102.899 91.2758 102.744 91.9478 102.744H92.4438V104.024H91.6918C90.9984 104.024 90.4544 104.157 90.0598 104.424C89.6758 104.68 89.4838 105.005 89.4838 105.4V111H88.2038ZM94.0788 111V102.744H95.3588V104.088H95.4228C95.6254 103.619 95.9081 103.245 96.2708 102.968C96.6441 102.691 97.1401 102.552 97.7588 102.552C98.6121 102.552 99.2841 102.829 99.7748 103.384C100.276 103.928 100.527 104.701 100.527 105.704V111H99.2468V105.928C99.2468 104.445 98.6228 103.704 97.3748 103.704C97.1188 103.704 96.8681 103.736 96.6228 103.8C96.3881 103.864 96.1748 103.96 95.9828 104.088C95.7908 104.216 95.6361 104.381 95.5188 104.584C95.4121 104.776 95.3588 105.005 95.3588 105.272V111H94.0788ZM109.173 111C108.693 111 108.346 110.872 108.133 110.616C107.93 110.36 107.802 110.04 107.749 109.656H107.669C107.487 110.168 107.189 110.552 106.773 110.808C106.357 111.064 105.861 111.192 105.285 111.192C104.41 111.192 103.727 110.968 103.237 110.52C102.757 110.072 102.517 109.464 102.517 108.696C102.517 107.917 102.799 107.32 103.365 106.904C103.941 106.488 104.831 106.28 106.036 106.28H107.669V105.464C107.669 104.877 107.509 104.429 107.189 104.12C106.869 103.811 106.378 103.656 105.717 103.656C105.215 103.656 104.794 103.768 104.453 103.992C104.122 104.216 103.845 104.515 103.621 104.888L102.853 104.168C103.077 103.72 103.434 103.341 103.924 103.032C104.415 102.712 105.034 102.552 105.781 102.552C106.783 102.552 107.562 102.797 108.117 103.288C108.671 103.779 108.949 104.461 108.949 105.336V109.88H109.892V111H109.173ZM105.493 110.104C105.813 110.104 106.106 110.067 106.373 109.992C106.639 109.917 106.869 109.811 107.061 109.672C107.253 109.533 107.402 109.373 107.509 109.192C107.615 109.011 107.669 108.813 107.669 108.6V107.24H105.973C105.237 107.24 104.698 107.347 104.357 107.56C104.026 107.773 103.861 108.083 103.861 108.488V108.824C103.861 109.229 104.005 109.544 104.293 109.768C104.591 109.992 104.991 110.104 105.493 110.104ZM113.418 111L110.522 102.744H111.802L113.242 106.84L114.138 109.656H114.218L115.114 106.84L116.586 102.744H117.818L114.906 111H113.418ZM119.469 111V102.744H120.749V104.088H120.813C121.016 103.619 121.299 103.245 121.661 102.968C122.035 102.691 122.531 102.552 123.149 102.552C124.003 102.552 124.675 102.829 125.165 103.384C125.667 103.928 125.917 104.701 125.917 105.704V111H124.637V105.928C124.637 104.445 124.013 103.704 122.765 103.704C122.509 103.704 122.259 103.736 122.013 103.8C121.779 103.864 121.565 103.96 121.373 104.088C121.181 104.216 121.027 104.381 120.909 104.584C120.803 104.776 120.749 105.005 120.749 105.272V111H119.469Z" fill="#1A1A1A"/>
</g>
<defs>
<clipPath id="clip0_5010_49137">
<rect width="418" height="432" fill="white"/>
</clipPath>
</defs>
</svg>
