<svg width="418" height="284" viewBox="0 0 418 284" fill="none" xmlns="http://www.w3.org/2000/svg">
<rect width="418" height="284" fill="white"/>
<path d="M49.248 61.016V71H47.904V61.016H44.352V59.832H52.8V61.016H49.248ZM55.1562 60.808C54.8789 60.808 54.6763 60.744 54.5483 60.616C54.4309 60.4773 54.3723 60.3013 54.3723 60.088V59.88C54.3723 59.6667 54.4309 59.496 54.5483 59.368C54.6763 59.2293 54.8789 59.16 55.1562 59.16C55.4336 59.16 55.6309 59.2293 55.7483 59.368C55.8763 59.496 55.9403 59.6667 55.9403 59.88V60.088C55.9403 60.3013 55.8763 60.4773 55.7483 60.616C55.6309 60.744 55.4336 60.808 55.1562 60.808ZM54.5163 62.744H55.7963V71H54.5163V62.744ZM59.8763 71C59.4283 71 59.0869 70.8773 58.8523 70.632C58.6283 70.376 58.5163 70.056 58.5163 69.672V59.16H59.7963V69.88H61.0123V71H59.8763ZM62.8756 59.16H64.1556V64.088H64.2196C64.433 63.5653 64.7423 63.1813 65.1476 62.936C65.5636 62.68 66.0596 62.552 66.6356 62.552C67.1476 62.552 67.6116 62.6533 68.0276 62.856C68.4436 63.0587 68.7956 63.3467 69.0836 63.72C69.3823 64.0933 69.6063 64.5467 69.7556 65.08C69.9156 65.6133 69.9956 66.2107 69.9956 66.872C69.9956 67.5333 69.9156 68.1307 69.7556 68.664C69.6063 69.1973 69.3823 69.6507 69.0836 70.024C68.7956 70.3973 68.4436 70.6853 68.0276 70.888C67.6116 71.0907 67.1476 71.192 66.6356 71.192C65.5156 71.192 64.7103 70.68 64.2196 69.656H64.1556V71H62.8756V59.16ZM66.2836 70.04C67.009 70.04 67.5796 69.816 67.9956 69.368C68.4116 68.9093 68.6196 68.312 68.6196 67.576V66.168C68.6196 65.432 68.4116 64.84 67.9956 64.392C67.5796 63.9333 67.009 63.704 66.2836 63.704C65.9956 63.704 65.7183 63.7467 65.4516 63.832C65.1956 63.9067 64.9716 64.0133 64.7796 64.152C64.5876 64.2907 64.433 64.4613 64.3156 64.664C64.209 64.856 64.1556 65.064 64.1556 65.288V68.36C64.1556 68.6267 64.209 68.8667 64.3156 69.08C64.433 69.2827 64.5876 69.4587 64.7796 69.608C64.9716 69.7467 65.1956 69.8533 65.4516 69.928C65.7183 70.0027 65.9956 70.04 66.2836 70.04ZM78.1569 71C77.6769 71 77.3302 70.872 77.1169 70.616C76.9142 70.36 76.7862 70.04 76.7329 69.656H76.6529C76.4715 70.168 76.1729 70.552 75.7569 70.808C75.3409 71.064 74.8449 71.192 74.2689 71.192C73.3942 71.192 72.7115 70.968 72.2209 70.52C71.7409 70.072 71.5009 69.464 71.5009 68.696C71.5009 67.9173 71.7835 67.32 72.3489 66.904C72.9249 66.488 73.8155 66.28 75.0209 66.28H76.6529V65.464C76.6529 64.8773 76.4929 64.4293 76.1729 64.12C75.8529 63.8107 75.3622 63.656 74.7009 63.656C74.1995 63.656 73.7782 63.768 73.4369 63.992C73.1062 64.216 72.8289 64.5147 72.6049 64.888L71.8369 64.168C72.0609 63.72 72.4182 63.3413 72.9089 63.032C73.3995 62.712 74.0182 62.552 74.7649 62.552C75.7675 62.552 76.5462 62.7973 77.1009 63.288C77.6555 63.7787 77.9329 64.4613 77.9329 65.336V69.88H78.8769V71H78.1569ZM74.4769 70.104C74.7969 70.104 75.0902 70.0667 75.3569 69.992C75.6235 69.9173 75.8529 69.8107 76.0449 69.672C76.2369 69.5333 76.3862 69.3733 76.4929 69.192C76.5995 69.0107 76.6529 68.8133 76.6529 68.6V67.24H74.9569C74.2209 67.24 73.6822 67.3467 73.3409 67.56C73.0102 67.7733 72.8449 68.0827 72.8449 68.488V68.824C72.8449 69.2293 72.9889 69.544 73.2769 69.768C73.5755 69.992 73.9755 70.104 74.4769 70.104ZM87.6638 71.912C87.6638 72.7653 87.3278 73.3893 86.6558 73.784C85.9944 74.1893 84.9971 74.392 83.6638 74.392C82.3731 74.392 81.4451 74.216 80.8798 73.864C80.3144 73.512 80.0318 73.0107 80.0318 72.36C80.0318 71.912 80.1491 71.56 80.3838 71.304C80.6184 71.0587 80.9384 70.8773 81.3438 70.76V70.584C80.8531 70.3493 80.6078 69.9653 80.6078 69.432C80.6078 69.016 80.7411 68.7013 81.0078 68.488C81.2744 68.264 81.6158 68.0987 82.0318 67.992V67.928C81.5411 67.6933 81.1571 67.3573 80.8798 66.92C80.6131 66.4827 80.4798 65.976 80.4798 65.4C80.4798 64.984 80.5544 64.6 80.7038 64.248C80.8531 63.896 81.0611 63.5973 81.3278 63.352C81.6051 63.096 81.9304 62.8987 82.3038 62.76C82.6878 62.6213 83.1144 62.552 83.5838 62.552C84.1704 62.552 84.6931 62.6587 85.1518 62.872V62.728C85.1518 62.408 85.2264 62.1467 85.3758 61.944C85.5251 61.7307 85.7704 61.624 86.1118 61.624H87.3438V62.744H85.7758V63.272C86.0744 63.528 86.3038 63.8373 86.4638 64.2C86.6344 64.552 86.7198 64.952 86.7198 65.4C86.7198 65.816 86.6451 66.2 86.4958 66.552C86.3464 66.904 86.1331 67.208 85.8558 67.464C85.5891 67.7093 85.2638 67.9013 84.8798 68.04C84.4958 68.1787 84.0691 68.248 83.5998 68.248C83.3331 68.248 83.0664 68.2213 82.7998 68.168C82.5224 68.2427 82.2718 68.3547 82.0478 68.504C81.8238 68.6427 81.7118 68.84 81.7118 69.096C81.7118 69.3413 81.8291 69.5067 82.0638 69.592C82.2984 69.6773 82.6024 69.72 82.9758 69.72H84.7358C85.7598 69.72 86.5011 69.9173 86.9598 70.312C87.4291 70.696 87.6638 71.2293 87.6638 71.912ZM86.4638 72.008C86.4638 71.6773 86.3358 71.4107 86.0798 71.208C85.8344 71.016 85.3918 70.92 84.7518 70.92H81.9998C81.4878 71.1547 81.2318 71.528 81.2318 72.04C81.2318 72.4027 81.3651 72.712 81.6318 72.968C81.9091 73.224 82.3731 73.352 83.0238 73.352H84.2078C84.9224 73.352 85.4771 73.24 85.8718 73.016C86.2664 72.792 86.4638 72.456 86.4638 72.008ZM83.5998 67.224C84.1438 67.224 84.5758 67.096 84.8958 66.84C85.2158 66.5733 85.3758 66.168 85.3758 65.624V65.176C85.3758 64.632 85.2158 64.232 84.8958 63.976C84.5758 63.7093 84.1438 63.576 83.5998 63.576C83.0558 63.576 82.6238 63.7093 82.3038 63.976C81.9838 64.232 81.8238 64.632 81.8238 65.176V65.624C81.8238 66.168 81.9838 66.5733 82.3038 66.84C82.6238 67.096 83.0558 67.224 83.5998 67.224ZM92.1671 71.192C91.6018 71.192 91.0898 71.0907 90.6311 70.888C90.1831 70.6853 89.7938 70.3973 89.4631 70.024C89.1431 69.64 88.8925 69.1867 88.7111 68.664C88.5405 68.1307 88.4551 67.5333 88.4551 66.872C88.4551 66.2213 88.5405 65.6293 88.7111 65.096C88.8925 64.5627 89.1431 64.1093 89.4631 63.736C89.7938 63.352 90.1831 63.0587 90.6311 62.856C91.0898 62.6533 91.6018 62.552 92.1671 62.552C92.7218 62.552 93.2178 62.6533 93.6551 62.856C94.0925 63.0587 94.4658 63.3413 94.7751 63.704C95.0845 64.056 95.3191 64.4773 95.4791 64.968C95.6498 65.4587 95.7351 65.9973 95.7351 66.584V67.192H89.7991V67.576C89.7991 67.928 89.8525 68.2587 89.9591 68.568C90.0765 68.8667 90.2365 69.128 90.4391 69.352C90.6525 69.576 90.9085 69.752 91.2071 69.88C91.5165 70.008 91.8631 70.072 92.2471 70.072C92.7698 70.072 93.2231 69.9493 93.6071 69.704C94.0018 69.4587 94.3058 69.1067 94.5191 68.648L95.4311 69.304C95.1645 69.8693 94.7485 70.328 94.1831 70.68C93.6178 71.0213 92.9458 71.192 92.1671 71.192ZM92.1671 63.624C91.8151 63.624 91.4951 63.688 91.2071 63.816C90.9191 63.9333 90.6685 64.104 90.4551 64.328C90.2525 64.552 90.0925 64.8187 89.9751 65.128C89.8578 65.4267 89.7991 65.7573 89.7991 66.12V66.232H94.3591V66.056C94.3591 65.32 94.1565 64.7333 93.7511 64.296C93.3565 63.848 92.8285 63.624 92.1671 63.624Z" fill="#1A1A1A"/>
<path d="M44 73H96.4871V73.96H44V73Z" fill="#1A1A1A"/>
<path d="M30 63L25 68L30 73V63Z" fill="#1A1A1A"/>
<rect width="385" height="20" transform="translate(16 224)" fill="#DCDCDC"/>
<rect width="385" height="20" transform="translate(16 248)" fill="#DCDCDC"/>
<rect width="386" height="20" transform="translate(16 116)" fill="#DCDCDC"/>
<rect width="386" height="20" transform="translate(16 140)" fill="#DCDCDC"/>
<rect width="288" height="20" transform="translate(16 164)" fill="#DCDCDC"/>
<rect width="118" height="12" transform="translate(16 208)" fill="#DCDCDC"/>
<rect width="118" height="12" transform="translate(16 100)" fill="#DCDCDC"/>
<path d="M17.302 32V22.228H23.126V23.264H18.478V26.54H22.72V27.576H18.478V32H17.302ZM27.3848 32.168C26.8995 32.168 26.4562 32.0793 26.0548 31.902C25.6535 31.7247 25.3082 31.4727 25.0188 31.146C24.7388 30.81 24.5195 30.4133 24.3608 29.956C24.2022 29.4893 24.1228 28.9667 24.1228 28.388C24.1228 27.8187 24.2022 27.3007 24.3608 26.834C24.5195 26.3673 24.7388 25.9707 25.0188 25.644C25.3082 25.308 25.6535 25.0513 26.0548 24.874C26.4562 24.6967 26.8995 24.608 27.3848 24.608C27.8702 24.608 28.3088 24.6967 28.7008 24.874C29.1022 25.0513 29.4475 25.308 29.7368 25.644C30.0262 25.9707 30.2502 26.3673 30.4088 26.834C30.5675 27.3007 30.6468 27.8187 30.6468 28.388C30.6468 28.9667 30.5675 29.4893 30.4088 29.956C30.2502 30.4133 30.0262 30.81 29.7368 31.146C29.4475 31.4727 29.1022 31.7247 28.7008 31.902C28.3088 32.0793 27.8702 32.168 27.3848 32.168ZM27.3848 31.174C27.9915 31.174 28.4862 30.9873 28.8688 30.614C29.2515 30.2407 29.4428 29.6713 29.4428 28.906V27.87C29.4428 27.1047 29.2515 26.5353 28.8688 26.162C28.4862 25.7887 27.9915 25.602 27.3848 25.602C26.7782 25.602 26.2835 25.7887 25.9008 26.162C25.5182 26.5353 25.3268 27.1047 25.3268 27.87V28.906C25.3268 29.6713 25.5182 30.2407 25.9008 30.614C26.2835 30.9873 26.7782 31.174 27.3848 31.174ZM32.4888 32V24.776H33.6088V26.106H33.6788C33.8095 25.7607 34.0428 25.4527 34.3788 25.182C34.7148 24.9113 35.1768 24.776 35.7648 24.776H36.1988V25.896H35.5408C34.9342 25.896 34.4582 26.0127 34.1128 26.246C33.7768 26.47 33.6088 26.7547 33.6088 27.1V32H32.4888ZM39.7995 32.168C39.1275 32.168 38.5628 32.042 38.1055 31.79C37.6575 31.5287 37.2701 31.1833 36.9435 30.754L37.7415 30.11C38.0215 30.4647 38.3341 30.74 38.6795 30.936C39.0248 31.1227 39.4261 31.216 39.8835 31.216C40.3595 31.216 40.7281 31.1133 40.9895 30.908C41.2601 30.7027 41.3955 30.4133 41.3955 30.04C41.3955 29.76 41.3021 29.522 41.1155 29.326C40.9381 29.1207 40.6115 28.9807 40.1355 28.906L39.5615 28.822C39.2255 28.7753 38.9175 28.7053 38.6375 28.612C38.3575 28.5093 38.1101 28.3787 37.8955 28.22C37.6901 28.052 37.5268 27.8467 37.4055 27.604C37.2935 27.3613 37.2375 27.072 37.2375 26.736C37.2375 26.3813 37.3028 26.0733 37.4335 25.812C37.5641 25.5413 37.7415 25.3173 37.9655 25.14C38.1988 24.9627 38.4741 24.832 38.7915 24.748C39.1088 24.6547 39.4495 24.608 39.8135 24.608C40.4015 24.608 40.8915 24.7107 41.2835 24.916C41.6848 25.1213 42.0348 25.406 42.3335 25.77L41.5915 26.442C41.4328 26.218 41.1995 26.0173 40.8915 25.84C40.5835 25.6533 40.1961 25.56 39.7295 25.56C39.2628 25.56 38.9081 25.6627 38.6655 25.868C38.4321 26.064 38.3155 26.3347 38.3155 26.68C38.3155 27.0347 38.4321 27.2913 38.6655 27.45C38.9081 27.6087 39.2535 27.7253 39.7015 27.8L40.2615 27.884C41.0641 28.0053 41.6335 28.2387 41.9695 28.584C42.3055 28.92 42.4735 29.3633 42.4735 29.914C42.4735 30.614 42.2355 31.1647 41.7595 31.566C41.2835 31.9673 40.6301 32.168 39.7995 32.168ZM45.0117 23.082C44.7691 23.082 44.5917 23.026 44.4797 22.914C44.3771 22.7927 44.3257 22.6387 44.3257 22.452V22.27C44.3257 22.0833 44.3771 21.934 44.4797 21.822C44.5917 21.7007 44.7691 21.64 45.0117 21.64C45.2544 21.64 45.4271 21.7007 45.5297 21.822C45.6417 21.934 45.6977 22.0833 45.6977 22.27V22.452C45.6977 22.6387 45.6417 22.7927 45.5297 22.914C45.4271 23.026 45.2544 23.082 45.0117 23.082ZM44.4517 24.776H45.5717V32H44.4517V24.776ZM52.5717 30.824H52.5157C52.0771 31.72 51.3724 32.168 50.4017 32.168C49.9537 32.168 49.5477 32.0793 49.1837 31.902C48.8197 31.7247 48.5071 31.4727 48.2457 31.146C47.9937 30.8193 47.7977 30.4227 47.6577 29.956C47.5271 29.4893 47.4617 28.9667 47.4617 28.388C47.4617 27.8093 47.5271 27.2867 47.6577 26.82C47.7977 26.3533 47.9937 25.9567 48.2457 25.63C48.5071 25.3033 48.8197 25.0513 49.1837 24.874C49.5477 24.6967 49.9537 24.608 50.4017 24.608C50.9057 24.608 51.3351 24.72 51.6897 24.944C52.0537 25.1587 52.3291 25.4947 52.5157 25.952H52.5717V21.64H53.6917V32H52.5717V30.824ZM50.7097 31.16C50.9617 31.16 51.1997 31.1273 51.4237 31.062C51.6571 30.9967 51.8577 30.9033 52.0257 30.782C52.1937 30.6513 52.3244 30.4973 52.4177 30.32C52.5204 30.1333 52.5717 29.9233 52.5717 29.69V27.002C52.5717 26.806 52.5204 26.624 52.4177 26.456C52.3244 26.2787 52.1937 26.1293 52.0257 26.008C51.8577 25.8867 51.6571 25.7933 51.4237 25.728C51.1997 25.6533 50.9617 25.616 50.7097 25.616C50.0751 25.616 49.5757 25.8167 49.2117 26.218C48.8477 26.61 48.6657 27.128 48.6657 27.772V29.004C48.6657 29.648 48.8477 30.1707 49.2117 30.572C49.5757 30.964 50.0751 31.16 50.7097 31.16ZM58.7888 32.168C58.2941 32.168 57.8461 32.0793 57.4448 31.902C57.0528 31.7247 56.7121 31.4727 56.4228 31.146C56.1428 30.81 55.9235 30.4133 55.7648 29.956C55.6155 29.4893 55.5408 28.9667 55.5408 28.388C55.5408 27.8187 55.6155 27.3007 55.7648 26.834C55.9235 26.3673 56.1428 25.9707 56.4228 25.644C56.7121 25.308 57.0528 25.0513 57.4448 24.874C57.8461 24.6967 58.2941 24.608 58.7888 24.608C59.2741 24.608 59.7081 24.6967 60.0908 24.874C60.4735 25.0513 60.8001 25.2987 61.0708 25.616C61.3415 25.924 61.5468 26.2927 61.6868 26.722C61.8361 27.1513 61.9108 27.6227 61.9108 28.136V28.668H56.7168V29.004C56.7168 29.312 56.7635 29.6013 56.8568 29.872C56.9595 30.1333 57.0995 30.362 57.2768 30.558C57.4635 30.754 57.6875 30.908 57.9488 31.02C58.2195 31.132 58.5228 31.188 58.8588 31.188C59.3161 31.188 59.7128 31.0807 60.0488 30.866C60.3941 30.6513 60.6601 30.3433 60.8468 29.942L61.6448 30.516C61.4115 31.0107 61.0475 31.412 60.5528 31.72C60.0581 32.0187 59.4701 32.168 58.7888 32.168ZM58.7888 25.546C58.4808 25.546 58.2008 25.602 57.9488 25.714C57.6968 25.8167 57.4775 25.966 57.2908 26.162C57.1135 26.358 56.9735 26.5913 56.8708 26.862C56.7681 27.1233 56.7168 27.4127 56.7168 27.73V27.828H60.7068V27.674C60.7068 27.03 60.5295 26.5167 60.1748 26.134C59.8295 25.742 59.3675 25.546 58.7888 25.546Z" fill="#1A1A1A"/>
<path d="M16 33.75H62.5688V34.59H16V33.75Z" fill="#1A1A1A"/>
<path d="M71 22.5L76 27L71 31.5" stroke="#747474"/>
<path d="M88.046 32.168C87.2527 32.168 86.576 32.0187 86.016 31.72C85.456 31.412 84.98 30.992 84.588 30.46L85.456 29.732C85.8013 30.1893 86.184 30.5393 86.604 30.782C87.024 31.0153 87.5187 31.132 88.088 31.132C88.788 31.132 89.32 30.964 89.684 30.628C90.0573 30.292 90.244 29.844 90.244 29.284C90.244 28.8173 90.104 28.458 89.824 28.206C89.544 27.954 89.082 27.7533 88.438 27.604L87.64 27.422C86.744 27.2167 86.058 26.9087 85.582 26.498C85.1153 26.078 84.882 25.49 84.882 24.734C84.882 24.3047 84.9613 23.922 85.12 23.586C85.2787 23.25 85.498 22.97 85.778 22.746C86.0673 22.522 86.408 22.354 86.8 22.242C87.2013 22.1207 87.64 22.06 88.116 22.06C88.8533 22.06 89.4833 22.1953 90.006 22.466C90.538 22.7367 90.986 23.1333 91.35 23.656L90.468 24.3C90.1973 23.9267 89.8707 23.6327 89.488 23.418C89.1053 23.2033 88.6293 23.096 88.06 23.096C87.4347 23.096 86.94 23.2313 86.576 23.502C86.2213 23.7633 86.044 24.16 86.044 24.692C86.044 25.1587 86.1933 25.5133 86.492 25.756C86.8 25.9893 87.262 26.176 87.878 26.316L88.676 26.498C89.6373 26.7127 90.3327 27.0393 90.762 27.478C91.1913 27.9167 91.406 28.5 91.406 29.228C91.406 29.676 91.3267 30.082 91.168 30.446C91.0187 30.81 90.7993 31.118 90.51 31.37C90.2207 31.622 89.866 31.818 89.446 31.958C89.0353 32.098 88.5687 32.168 88.046 32.168ZM93.8848 23.082C93.6421 23.082 93.4648 23.026 93.3528 22.914C93.2501 22.7927 93.1988 22.6387 93.1988 22.452V22.27C93.1988 22.0833 93.2501 21.934 93.3528 21.822C93.4648 21.7007 93.6421 21.64 93.8848 21.64C94.1274 21.64 94.3001 21.7007 94.4028 21.822C94.5148 21.934 94.5708 22.0833 94.5708 22.27V22.452C94.5708 22.6387 94.5148 22.7927 94.4028 22.914C94.3001 23.026 94.1274 23.082 93.8848 23.082ZM93.3248 24.776H94.4448V32H93.3248V24.776ZM101.445 30.824H101.389C100.95 31.72 100.245 32.168 99.2748 32.168C98.8268 32.168 98.4208 32.0793 98.0568 31.902C97.6928 31.7247 97.3801 31.4727 97.1188 31.146C96.8668 30.8193 96.6708 30.4227 96.5308 29.956C96.4001 29.4893 96.3348 28.9667 96.3348 28.388C96.3348 27.8093 96.4001 27.2867 96.5308 26.82C96.6708 26.3533 96.8668 25.9567 97.1188 25.63C97.3801 25.3033 97.6928 25.0513 98.0568 24.874C98.4208 24.6967 98.8268 24.608 99.2748 24.608C99.7788 24.608 100.208 24.72 100.563 24.944C100.927 25.1587 101.202 25.4947 101.389 25.952H101.445V21.64H102.565V32H101.445V30.824ZM99.5828 31.16C99.8348 31.16 100.073 31.1273 100.297 31.062C100.53 30.9967 100.731 30.9033 100.899 30.782C101.067 30.6513 101.197 30.4973 101.291 30.32C101.393 30.1333 101.445 29.9233 101.445 29.69V27.002C101.445 26.806 101.393 26.624 101.291 26.456C101.197 26.2787 101.067 26.1293 100.899 26.008C100.731 25.8867 100.53 25.7933 100.297 25.728C100.073 25.6533 99.8348 25.616 99.5828 25.616C98.9481 25.616 98.4488 25.8167 98.0848 26.218C97.7208 26.61 97.5388 27.128 97.5388 27.772V29.004C97.5388 29.648 97.7208 30.1707 98.0848 30.572C98.4488 30.964 98.9481 31.16 99.5828 31.16ZM107.662 32.168C107.167 32.168 106.719 32.0793 106.318 31.902C105.926 31.7247 105.585 31.4727 105.296 31.146C105.016 30.81 104.797 30.4133 104.638 29.956C104.489 29.4893 104.414 28.9667 104.414 28.388C104.414 27.8187 104.489 27.3007 104.638 26.834C104.797 26.3673 105.016 25.9707 105.296 25.644C105.585 25.308 105.926 25.0513 106.318 24.874C106.719 24.6967 107.167 24.608 107.662 24.608C108.147 24.608 108.581 24.6967 108.964 24.874C109.347 25.0513 109.673 25.2987 109.944 25.616C110.215 25.924 110.42 26.2927 110.56 26.722C110.709 27.1513 110.784 27.6227 110.784 28.136V28.668H105.59V29.004C105.59 29.312 105.637 29.6013 105.73 29.872C105.833 30.1333 105.973 30.362 106.15 30.558C106.337 30.754 106.561 30.908 106.822 31.02C107.093 31.132 107.396 31.188 107.732 31.188C108.189 31.188 108.586 31.0807 108.922 30.866C109.267 30.6513 109.533 30.3433 109.72 29.942L110.518 30.516C110.285 31.0107 109.921 31.412 109.426 31.72C108.931 32.0187 108.343 32.168 107.662 32.168ZM107.662 25.546C107.354 25.546 107.074 25.602 106.822 25.714C106.57 25.8167 106.351 25.966 106.164 26.162C105.987 26.358 105.847 26.5913 105.744 26.862C105.641 27.1233 105.59 27.4127 105.59 27.73V27.828H109.58V27.674C109.58 27.03 109.403 26.5167 109.048 26.134C108.703 25.742 108.241 25.546 107.662 25.546ZM122.168 32L121.188 29.116H117.24L116.26 32H115.07L118.486 22.228H119.984L123.4 32H122.168ZM119.242 23.32H119.172L117.52 28.08H120.894L119.242 23.32Z" fill="#1A1A1A"/>
<path d="M84 33.75H123.722V34.59H84V33.75Z" fill="#1A1A1A"/>
<path d="M132 22.5L137 27L132 31.5" stroke="#747474"/>
<path d="M149.046 32.168C148.253 32.168 147.576 32.0187 147.016 31.72C146.456 31.412 145.98 30.992 145.588 30.46L146.456 29.732C146.801 30.1893 147.184 30.5393 147.604 30.782C148.024 31.0153 148.519 31.132 149.088 31.132C149.788 31.132 150.32 30.964 150.684 30.628C151.057 30.292 151.244 29.844 151.244 29.284C151.244 28.8173 151.104 28.458 150.824 28.206C150.544 27.954 150.082 27.7533 149.438 27.604L148.64 27.422C147.744 27.2167 147.058 26.9087 146.582 26.498C146.115 26.078 145.882 25.49 145.882 24.734C145.882 24.3047 145.961 23.922 146.12 23.586C146.279 23.25 146.498 22.97 146.778 22.746C147.067 22.522 147.408 22.354 147.8 22.242C148.201 22.1207 148.64 22.06 149.116 22.06C149.853 22.06 150.483 22.1953 151.006 22.466C151.538 22.7367 151.986 23.1333 152.35 23.656L151.468 24.3C151.197 23.9267 150.871 23.6327 150.488 23.418C150.105 23.2033 149.629 23.096 149.06 23.096C148.435 23.096 147.94 23.2313 147.576 23.502C147.221 23.7633 147.044 24.16 147.044 24.692C147.044 25.1587 147.193 25.5133 147.492 25.756C147.8 25.9893 148.262 26.176 148.878 26.316L149.676 26.498C150.637 26.7127 151.333 27.0393 151.762 27.478C152.191 27.9167 152.406 28.5 152.406 29.228C152.406 29.676 152.327 30.082 152.168 30.446C152.019 30.81 151.799 31.118 151.51 31.37C151.221 31.622 150.866 31.818 150.446 31.958C150.035 32.098 149.569 32.168 149.046 32.168ZM154.885 23.082C154.642 23.082 154.465 23.026 154.353 22.914C154.25 22.7927 154.199 22.6387 154.199 22.452V22.27C154.199 22.0833 154.25 21.934 154.353 21.822C154.465 21.7007 154.642 21.64 154.885 21.64C155.127 21.64 155.3 21.7007 155.403 21.822C155.515 21.934 155.571 22.0833 155.571 22.27V22.452C155.571 22.6387 155.515 22.7927 155.403 22.914C155.3 23.026 155.127 23.082 154.885 23.082ZM154.325 24.776H155.445V32H154.325V24.776ZM162.445 30.824H162.389C161.95 31.72 161.245 32.168 160.275 32.168C159.827 32.168 159.421 32.0793 159.057 31.902C158.693 31.7247 158.38 31.4727 158.119 31.146C157.867 30.8193 157.671 30.4227 157.531 29.956C157.4 29.4893 157.335 28.9667 157.335 28.388C157.335 27.8093 157.4 27.2867 157.531 26.82C157.671 26.3533 157.867 25.9567 158.119 25.63C158.38 25.3033 158.693 25.0513 159.057 24.874C159.421 24.6967 159.827 24.608 160.275 24.608C160.779 24.608 161.208 24.72 161.563 24.944C161.927 25.1587 162.202 25.4947 162.389 25.952H162.445V21.64H163.565V32H162.445V30.824ZM160.583 31.16C160.835 31.16 161.073 31.1273 161.297 31.062C161.53 30.9967 161.731 30.9033 161.899 30.782C162.067 30.6513 162.197 30.4973 162.291 30.32C162.393 30.1333 162.445 29.9233 162.445 29.69V27.002C162.445 26.806 162.393 26.624 162.291 26.456C162.197 26.2787 162.067 26.1293 161.899 26.008C161.731 25.8867 161.53 25.7933 161.297 25.728C161.073 25.6533 160.835 25.616 160.583 25.616C159.948 25.616 159.449 25.8167 159.085 26.218C158.721 26.61 158.539 27.128 158.539 27.772V29.004C158.539 29.648 158.721 30.1707 159.085 30.572C159.449 30.964 159.948 31.16 160.583 31.16ZM168.662 32.168C168.167 32.168 167.719 32.0793 167.318 31.902C166.926 31.7247 166.585 31.4727 166.296 31.146C166.016 30.81 165.797 30.4133 165.638 29.956C165.489 29.4893 165.414 28.9667 165.414 28.388C165.414 27.8187 165.489 27.3007 165.638 26.834C165.797 26.3673 166.016 25.9707 166.296 25.644C166.585 25.308 166.926 25.0513 167.318 24.874C167.719 24.6967 168.167 24.608 168.662 24.608C169.147 24.608 169.581 24.6967 169.964 24.874C170.347 25.0513 170.673 25.2987 170.944 25.616C171.215 25.924 171.42 26.2927 171.56 26.722C171.709 27.1513 171.784 27.6227 171.784 28.136V28.668H166.59V29.004C166.59 29.312 166.637 29.6013 166.73 29.872C166.833 30.1333 166.973 30.362 167.15 30.558C167.337 30.754 167.561 30.908 167.822 31.02C168.093 31.132 168.396 31.188 168.732 31.188C169.189 31.188 169.586 31.0807 169.922 30.866C170.267 30.6513 170.533 30.3433 170.72 29.942L171.518 30.516C171.285 31.0107 170.921 31.412 170.426 31.72C169.931 32.0187 169.343 32.168 168.662 32.168ZM168.662 25.546C168.354 25.546 168.074 25.602 167.822 25.714C167.57 25.8167 167.351 25.966 167.164 26.162C166.987 26.358 166.847 26.5913 166.744 26.862C166.641 27.1233 166.59 27.4127 166.59 27.73V27.828H170.58V27.674C170.58 27.03 170.403 26.5167 170.048 26.134C169.703 25.742 169.241 25.546 168.662 25.546ZM177.05 22.228H181.068C181.88 22.228 182.515 22.4567 182.972 22.914C183.439 23.3713 183.672 23.9827 183.672 24.748C183.672 25.112 183.621 25.42 183.518 25.672C183.415 25.924 183.285 26.134 183.126 26.302C182.967 26.4607 182.795 26.582 182.608 26.666C182.421 26.7407 182.249 26.792 182.09 26.82V26.904C182.267 26.9133 182.463 26.96 182.678 27.044C182.902 27.128 183.112 27.2633 183.308 27.45C183.504 27.6273 183.667 27.8607 183.798 28.15C183.938 28.43 184.008 28.7707 184.008 29.172C184.008 29.5733 183.943 29.9467 183.812 30.292C183.691 30.6373 183.518 30.936 183.294 31.188C183.07 31.44 182.804 31.6407 182.496 31.79C182.188 31.93 181.852 32 181.488 32H177.05V22.228ZM178.226 30.964H181.124C181.628 30.964 182.025 30.838 182.314 30.586C182.603 30.3247 182.748 29.9467 182.748 29.452V28.976C182.748 28.4813 182.603 28.108 182.314 27.856C182.025 27.5947 181.628 27.464 181.124 27.464H178.226V30.964ZM178.226 26.456H180.928C181.395 26.456 181.759 26.3393 182.02 26.106C182.281 25.8727 182.412 25.5367 182.412 25.098V24.622C182.412 24.1833 182.281 23.8473 182.02 23.614C181.759 23.3807 181.395 23.264 180.928 23.264H178.226V26.456Z" fill="#1A1A1A"/>
<path d="M145 33.75H184.89V34.59H145V33.75Z" fill="#1A1A1A"/>
<path d="M193 22.5L198 27L193 31.5" stroke="#747474"/>
<path d="M210.046 32.168C209.253 32.168 208.576 32.0187 208.016 31.72C207.456 31.412 206.98 30.992 206.588 30.46L207.456 29.732C207.801 30.1893 208.184 30.5393 208.604 30.782C209.024 31.0153 209.519 31.132 210.088 31.132C210.788 31.132 211.32 30.964 211.684 30.628C212.057 30.292 212.244 29.844 212.244 29.284C212.244 28.8173 212.104 28.458 211.824 28.206C211.544 27.954 211.082 27.7533 210.438 27.604L209.64 27.422C208.744 27.2167 208.058 26.9087 207.582 26.498C207.115 26.078 206.882 25.49 206.882 24.734C206.882 24.3047 206.961 23.922 207.12 23.586C207.279 23.25 207.498 22.97 207.778 22.746C208.067 22.522 208.408 22.354 208.8 22.242C209.201 22.1207 209.64 22.06 210.116 22.06C210.853 22.06 211.483 22.1953 212.006 22.466C212.538 22.7367 212.986 23.1333 213.35 23.656L212.468 24.3C212.197 23.9267 211.871 23.6327 211.488 23.418C211.105 23.2033 210.629 23.096 210.06 23.096C209.435 23.096 208.94 23.2313 208.576 23.502C208.221 23.7633 208.044 24.16 208.044 24.692C208.044 25.1587 208.193 25.5133 208.492 25.756C208.8 25.9893 209.262 26.176 209.878 26.316L210.676 26.498C211.637 26.7127 212.333 27.0393 212.762 27.478C213.191 27.9167 213.406 28.5 213.406 29.228C213.406 29.676 213.327 30.082 213.168 30.446C213.019 30.81 212.799 31.118 212.51 31.37C212.221 31.622 211.866 31.818 211.446 31.958C211.035 32.098 210.569 32.168 210.046 32.168ZM215.885 23.082C215.642 23.082 215.465 23.026 215.353 22.914C215.25 22.7927 215.199 22.6387 215.199 22.452V22.27C215.199 22.0833 215.25 21.934 215.353 21.822C215.465 21.7007 215.642 21.64 215.885 21.64C216.127 21.64 216.3 21.7007 216.403 21.822C216.515 21.934 216.571 22.0833 216.571 22.27V22.452C216.571 22.6387 216.515 22.7927 216.403 22.914C216.3 23.026 216.127 23.082 215.885 23.082ZM215.325 24.776H216.445V32H215.325V24.776ZM223.445 30.824H223.389C222.95 31.72 222.245 32.168 221.275 32.168C220.827 32.168 220.421 32.0793 220.057 31.902C219.693 31.7247 219.38 31.4727 219.119 31.146C218.867 30.8193 218.671 30.4227 218.531 29.956C218.4 29.4893 218.335 28.9667 218.335 28.388C218.335 27.8093 218.4 27.2867 218.531 26.82C218.671 26.3533 218.867 25.9567 219.119 25.63C219.38 25.3033 219.693 25.0513 220.057 24.874C220.421 24.6967 220.827 24.608 221.275 24.608C221.779 24.608 222.208 24.72 222.563 24.944C222.927 25.1587 223.202 25.4947 223.389 25.952H223.445V21.64H224.565V32H223.445V30.824ZM221.583 31.16C221.835 31.16 222.073 31.1273 222.297 31.062C222.53 30.9967 222.731 30.9033 222.899 30.782C223.067 30.6513 223.197 30.4973 223.291 30.32C223.393 30.1333 223.445 29.9233 223.445 29.69V27.002C223.445 26.806 223.393 26.624 223.291 26.456C223.197 26.2787 223.067 26.1293 222.899 26.008C222.731 25.8867 222.53 25.7933 222.297 25.728C222.073 25.6533 221.835 25.616 221.583 25.616C220.948 25.616 220.449 25.8167 220.085 26.218C219.721 26.61 219.539 27.128 219.539 27.772V29.004C219.539 29.648 219.721 30.1707 220.085 30.572C220.449 30.964 220.948 31.16 221.583 31.16ZM229.662 32.168C229.167 32.168 228.719 32.0793 228.318 31.902C227.926 31.7247 227.585 31.4727 227.296 31.146C227.016 30.81 226.797 30.4133 226.638 29.956C226.489 29.4893 226.414 28.9667 226.414 28.388C226.414 27.8187 226.489 27.3007 226.638 26.834C226.797 26.3673 227.016 25.9707 227.296 25.644C227.585 25.308 227.926 25.0513 228.318 24.874C228.719 24.6967 229.167 24.608 229.662 24.608C230.147 24.608 230.581 24.6967 230.964 24.874C231.347 25.0513 231.673 25.2987 231.944 25.616C232.215 25.924 232.42 26.2927 232.56 26.722C232.709 27.1513 232.784 27.6227 232.784 28.136V28.668H227.59V29.004C227.59 29.312 227.637 29.6013 227.73 29.872C227.833 30.1333 227.973 30.362 228.15 30.558C228.337 30.754 228.561 30.908 228.822 31.02C229.093 31.132 229.396 31.188 229.732 31.188C230.189 31.188 230.586 31.0807 230.922 30.866C231.267 30.6513 231.533 30.3433 231.72 29.942L232.518 30.516C232.285 31.0107 231.921 31.412 231.426 31.72C230.931 32.0187 230.343 32.168 229.662 32.168ZM229.662 25.546C229.354 25.546 229.074 25.602 228.822 25.714C228.57 25.8167 228.351 25.966 228.164 26.162C227.987 26.358 227.847 26.5913 227.744 26.862C227.641 27.1233 227.59 27.4127 227.59 27.73V27.828H231.58V27.674C231.58 27.03 231.403 26.5167 231.048 26.134C230.703 25.742 230.241 25.546 229.662 25.546ZM241.494 32.168C240.253 32.168 239.287 31.748 238.596 30.908C237.905 30.0587 237.56 28.8127 237.56 27.17C237.56 25.5273 237.905 24.2673 238.596 23.39C239.287 22.5033 240.253 22.06 241.494 22.06C242.315 22.06 243.001 22.2467 243.552 22.62C244.112 22.9933 244.546 23.5207 244.854 24.202L243.902 24.776C243.706 24.272 243.407 23.8707 243.006 23.572C242.605 23.264 242.101 23.11 241.494 23.11C241.074 23.11 240.696 23.1893 240.36 23.348C240.033 23.5067 239.753 23.7353 239.52 24.034C239.296 24.3233 239.123 24.6733 239.002 25.084C238.881 25.4853 238.82 25.938 238.82 26.442V27.898C238.82 28.906 239.053 29.6947 239.52 30.264C239.987 30.8333 240.645 31.118 241.494 31.118C242.119 31.118 242.642 30.9593 243.062 30.642C243.482 30.3153 243.79 29.886 243.986 29.354L244.924 29.942C244.616 30.6327 244.173 31.1787 243.594 31.58C243.015 31.972 242.315 32.168 241.494 32.168Z" fill="#1A1A1A"/>
</svg>
