<svg width="418" height="280" viewBox="0 0 418 280" fill="none" xmlns="http://www.w3.org/2000/svg">
<g clip-path="url(#clip0_5010_49447)">
<rect width="418" height="280" fill="white"/>
<path d="M17.312 34V22.832H19.424V32.128H23.824V34H17.312ZM28.6835 34.192C28.0862 34.192 27.5475 34.0907 27.0675 33.888C26.5982 33.6853 26.1928 33.392 25.8515 33.008C25.5208 32.624 25.2648 32.1653 25.0835 31.632C24.9022 31.088 24.8115 30.48 24.8115 29.808C24.8115 29.136 24.9022 28.5333 25.0835 28C25.2648 27.4667 25.5208 27.0133 25.8515 26.64C26.1928 26.256 26.5982 25.9627 27.0675 25.76C27.5475 25.5573 28.0862 25.456 28.6835 25.456C29.2808 25.456 29.8195 25.5573 30.2995 25.76C30.7795 25.9627 31.1848 26.256 31.5155 26.64C31.8568 27.0133 32.1182 27.4667 32.2995 28C32.4808 28.5333 32.5715 29.136 32.5715 29.808C32.5715 30.48 32.4808 31.088 32.2995 31.632C32.1182 32.1653 31.8568 32.624 31.5155 33.008C31.1848 33.392 30.7795 33.6853 30.2995 33.888C29.8195 34.0907 29.2808 34.192 28.6835 34.192ZM28.6835 32.544C29.2275 32.544 29.6542 32.3787 29.9635 32.048C30.2728 31.7173 30.4275 31.232 30.4275 30.592V29.04C30.4275 28.4107 30.2728 27.9307 29.9635 27.6C29.6542 27.2693 29.2275 27.104 28.6835 27.104C28.1502 27.104 27.7288 27.2693 27.4195 27.6C27.1102 27.9307 26.9555 28.4107 26.9555 29.04V30.592C26.9555 31.232 27.1102 31.7173 27.4195 32.048C27.7288 32.3787 28.1502 32.544 28.6835 32.544ZM34.3871 34V25.648H36.4351V27.376H36.5151C36.5685 27.152 36.6485 26.9387 36.7551 26.736C36.8725 26.5227 37.0218 26.336 37.2031 26.176C37.3845 26.016 37.5978 25.888 37.8431 25.792C38.0991 25.696 38.3925 25.648 38.7231 25.648H39.1711V27.584H38.5311C37.8378 27.584 37.3151 27.6853 36.9631 27.888C36.6111 28.0907 36.4351 28.4213 36.4351 28.88V34H34.3871ZM43.9663 34.192C43.3476 34.192 42.7929 34.0907 42.3023 33.888C41.8223 33.6747 41.4116 33.3813 41.0703 33.008C40.7396 32.624 40.4836 32.1653 40.3023 31.632C40.1209 31.088 40.0303 30.48 40.0303 29.808C40.0303 29.1467 40.1156 28.5493 40.2863 28.016C40.4676 27.4827 40.7236 27.0293 41.0543 26.656C41.3849 26.272 41.7903 25.9787 42.2703 25.776C42.7503 25.5627 43.2943 25.456 43.9023 25.456C44.5529 25.456 45.1183 25.568 45.5983 25.792C46.0783 26.016 46.4729 26.32 46.7823 26.704C47.0916 27.088 47.3209 27.536 47.4703 28.048C47.6303 28.5493 47.7103 29.088 47.7103 29.664V30.336H42.1583V30.544C42.1583 31.152 42.3289 31.6427 42.6703 32.016C43.0116 32.3787 43.5183 32.56 44.1903 32.56C44.7023 32.56 45.1183 32.4533 45.4383 32.24C45.7689 32.0267 46.0623 31.7547 46.3183 31.424L47.4223 32.656C47.0809 33.136 46.6116 33.5147 46.0143 33.792C45.4276 34.0587 44.7449 34.192 43.9663 34.192ZM43.9343 26.992C43.3903 26.992 42.9583 27.1733 42.6383 27.536C42.3183 27.8987 42.1583 28.368 42.1583 28.944V29.072H45.5823V28.928C45.5823 28.352 45.4383 27.888 45.1503 27.536C44.8729 27.1733 44.4676 26.992 43.9343 26.992ZM49.5121 34V25.648H51.5601V27.04H51.6401C51.8001 26.6027 52.0561 26.2293 52.4081 25.92C52.7601 25.6107 53.2508 25.456 53.8801 25.456C54.4561 25.456 54.9521 25.5947 55.3681 25.872C55.7841 26.1493 56.0935 26.5707 56.2961 27.136H56.3281C56.4775 26.6667 56.7708 26.272 57.2081 25.952C57.6561 25.6213 58.2161 25.456 58.8881 25.456C59.7095 25.456 60.3388 25.7387 60.7761 26.304C61.2241 26.8693 61.4481 27.6747 61.4481 28.72V34H59.4001V28.928C59.4001 27.7333 58.9521 27.136 58.0561 27.136C57.8535 27.136 57.6561 27.168 57.4641 27.232C57.2828 27.2853 57.1175 27.3707 56.9681 27.488C56.8295 27.5947 56.7175 27.7333 56.6321 27.904C56.5468 28.064 56.5041 28.256 56.5041 28.48V34H54.4561V28.928C54.4561 27.7333 54.0081 27.136 53.1121 27.136C52.9201 27.136 52.7281 27.168 52.5361 27.232C52.3548 27.2853 52.1895 27.3707 52.0401 27.488C51.9015 27.5947 51.7841 27.7333 51.6881 27.904C51.6028 28.064 51.5601 28.256 51.5601 28.48V34H49.5121ZM68.5205 24.432C68.0938 24.432 67.7845 24.336 67.5925 24.144C67.4112 23.952 67.3205 23.7067 67.3205 23.408V23.088C67.3205 22.7893 67.4112 22.544 67.5925 22.352C67.7845 22.16 68.0938 22.064 68.5205 22.064C68.9365 22.064 69.2405 22.16 69.4325 22.352C69.6245 22.544 69.7205 22.7893 69.7205 23.088V23.408C69.7205 23.7067 69.6245 23.952 69.4325 24.144C69.2405 24.336 68.9365 24.432 68.5205 24.432ZM67.4965 25.648H69.5445V34H67.4965V25.648ZM71.9184 25.648H73.9664V27.024H74.0304C74.1797 26.544 74.4624 26.1653 74.8784 25.888C75.2944 25.6 75.7797 25.456 76.3344 25.456C77.401 25.456 78.2117 25.8347 78.7664 26.592C79.3317 27.3387 79.6144 28.4107 79.6144 29.808C79.6144 31.216 79.3317 32.2987 78.7664 33.056C78.2117 33.8133 77.401 34.192 76.3344 34.192C75.7797 34.192 75.2944 34.048 74.8784 33.76C74.473 33.472 74.1904 33.088 74.0304 32.608H73.9664V37.2H71.9184V25.648ZM75.6784 32.496C76.2117 32.496 76.6437 32.32 76.9744 31.968C77.305 31.616 77.4704 31.1413 77.4704 30.544V29.104C77.4704 28.5067 77.305 28.032 76.9744 27.68C76.6437 27.3173 76.2117 27.136 75.6784 27.136C75.1877 27.136 74.777 27.2587 74.4464 27.504C74.1264 27.7493 73.9664 28.0747 73.9664 28.48V31.136C73.9664 31.5733 74.1264 31.9093 74.4464 32.144C74.777 32.3787 75.1877 32.496 75.6784 32.496ZM84.2481 34.192C83.4481 34.192 82.7761 34.0587 82.2321 33.792C81.6881 33.5147 81.2081 33.136 80.7921 32.656L82.0401 31.44C82.3495 31.792 82.6855 32.0693 83.0481 32.272C83.4215 32.4747 83.8481 32.576 84.3281 32.576C84.8188 32.576 85.1708 32.4907 85.3841 32.32C85.6081 32.1493 85.7201 31.9147 85.7201 31.616C85.7201 31.3707 85.6401 31.1787 85.4801 31.04C85.3308 30.8907 85.0695 30.7893 84.6961 30.736L83.8641 30.624C82.9575 30.5067 82.2641 30.2507 81.7841 29.856C81.3148 29.4507 81.0801 28.864 81.0801 28.096C81.0801 27.6907 81.1548 27.328 81.3041 27.008C81.4535 26.6773 81.6668 26.4 81.9441 26.176C82.2215 25.9413 82.5521 25.7653 82.9361 25.648C83.3308 25.52 83.7681 25.456 84.2481 25.456C84.6535 25.456 85.0108 25.488 85.3201 25.552C85.6401 25.6053 85.9281 25.6907 86.1841 25.808C86.4401 25.9147 86.6748 26.0533 86.8881 26.224C87.1015 26.384 87.3095 26.5653 87.5121 26.768L86.3121 27.968C86.0668 27.712 85.7735 27.4987 85.4321 27.328C85.0908 27.1573 84.7175 27.072 84.3121 27.072C83.8641 27.072 83.5388 27.152 83.3361 27.312C83.1441 27.472 83.0481 27.68 83.0481 27.936C83.0481 28.2133 83.1281 28.4267 83.2881 28.576C83.4588 28.7147 83.7415 28.816 84.1361 28.88L84.9841 28.992C86.7868 29.248 87.6881 30.0693 87.6881 31.456C87.6881 31.8613 87.6028 32.2347 87.4321 32.576C87.2721 32.9067 87.0428 33.1947 86.7441 33.44C86.4455 33.6747 86.0828 33.8613 85.6561 34C85.2401 34.128 84.7708 34.192 84.2481 34.192ZM94.4885 32.608H94.4085C94.3338 32.8213 94.2325 33.024 94.1045 33.216C93.9872 33.3973 93.8325 33.5627 93.6405 33.712C93.4592 33.8613 93.2352 33.9787 92.9685 34.064C92.7125 34.1493 92.4138 34.192 92.0725 34.192C91.2085 34.192 90.5472 33.9093 90.0885 33.344C89.6298 32.7787 89.4005 31.9733 89.4005 30.928V25.648H91.4485V30.72C91.4485 31.296 91.5605 31.7387 91.7845 32.048C92.0085 32.3467 92.3658 32.496 92.8565 32.496C93.0592 32.496 93.2565 32.4693 93.4485 32.416C93.6512 32.3627 93.8272 32.2827 93.9765 32.176C94.1258 32.0587 94.2485 31.92 94.3445 31.76C94.4405 31.5893 94.4885 31.392 94.4885 31.168V25.648H96.5365V34H94.4885V32.608ZM98.9028 34V25.648H100.951V27.04H101.031C101.191 26.6027 101.447 26.2293 101.799 25.92C102.151 25.6107 102.641 25.456 103.271 25.456C103.847 25.456 104.343 25.5947 104.759 25.872C105.175 26.1493 105.484 26.5707 105.687 27.136H105.719C105.868 26.6667 106.161 26.272 106.599 25.952C107.047 25.6213 107.607 25.456 108.279 25.456C109.1 25.456 109.729 25.7387 110.167 26.304C110.615 26.8693 110.839 27.6747 110.839 28.72V34H108.791V28.928C108.791 27.7333 108.343 27.136 107.447 27.136C107.244 27.136 107.047 27.168 106.855 27.232C106.673 27.2853 106.508 27.3707 106.359 27.488C106.22 27.5947 106.108 27.7333 106.023 27.904C105.937 28.064 105.895 28.256 105.895 28.48V34H103.847V28.928C103.847 27.7333 103.399 27.136 102.503 27.136C102.311 27.136 102.119 27.168 101.927 27.232C101.745 27.2853 101.58 27.3707 101.431 27.488C101.292 27.5947 101.175 27.7333 101.079 27.904C100.993 28.064 100.951 28.256 100.951 28.48V34H98.9028ZM122.071 32.608H121.991C121.842 33.088 121.559 33.472 121.143 33.76C120.727 34.048 120.242 34.192 119.687 34.192C118.631 34.192 117.82 33.8133 117.255 33.056C116.7 32.2987 116.423 31.216 116.423 29.808C116.423 28.4107 116.7 27.3387 117.255 26.592C117.82 25.8347 118.631 25.456 119.687 25.456C120.242 25.456 120.727 25.6 121.143 25.888C121.559 26.1653 121.842 26.544 121.991 27.024H122.071V22.16H124.119V34H122.071V32.608ZM120.343 32.496C120.834 32.496 121.244 32.3787 121.575 32.144C121.906 31.9093 122.071 31.5733 122.071 31.136V28.48C122.071 28.0747 121.906 27.7493 121.575 27.504C121.244 27.2587 120.834 27.136 120.343 27.136C119.81 27.136 119.378 27.3173 119.047 27.68C118.727 28.032 118.567 28.5067 118.567 29.104V30.544C118.567 31.1413 118.727 31.616 119.047 31.968C119.378 32.32 119.81 32.496 120.343 32.496ZM129.793 34.192C129.196 34.192 128.657 34.0907 128.177 33.888C127.708 33.6853 127.302 33.392 126.961 33.008C126.63 32.624 126.374 32.1653 126.193 31.632C126.012 31.088 125.921 30.48 125.921 29.808C125.921 29.136 126.012 28.5333 126.193 28C126.374 27.4667 126.63 27.0133 126.961 26.64C127.302 26.256 127.708 25.9627 128.177 25.76C128.657 25.5573 129.196 25.456 129.793 25.456C130.39 25.456 130.929 25.5573 131.409 25.76C131.889 25.9627 132.294 26.256 132.625 26.64C132.966 27.0133 133.228 27.4667 133.409 28C133.59 28.5333 133.681 29.136 133.681 29.808C133.681 30.48 133.59 31.088 133.409 31.632C133.228 32.1653 132.966 32.624 132.625 33.008C132.294 33.392 131.889 33.6853 131.409 33.888C130.929 34.0907 130.39 34.192 129.793 34.192ZM129.793 32.544C130.337 32.544 130.764 32.3787 131.073 32.048C131.382 31.7173 131.537 31.232 131.537 30.592V29.04C131.537 28.4107 131.382 27.9307 131.073 27.6C130.764 27.2693 130.337 27.104 129.793 27.104C129.26 27.104 128.838 27.2693 128.529 27.6C128.22 27.9307 128.065 28.4107 128.065 29.04V30.592C128.065 31.232 128.22 31.7173 128.529 32.048C128.838 32.3787 129.26 32.544 129.793 32.544ZM137.545 34C136.841 34 136.323 33.824 135.993 33.472C135.662 33.12 135.497 32.624 135.497 31.984V22.16H137.545V32.368H138.649V34H137.545ZM143.512 34.192C142.914 34.192 142.376 34.0907 141.896 33.888C141.426 33.6853 141.021 33.392 140.68 33.008C140.349 32.624 140.093 32.1653 139.912 31.632C139.73 31.088 139.64 30.48 139.64 29.808C139.64 29.136 139.73 28.5333 139.912 28C140.093 27.4667 140.349 27.0133 140.68 26.64C141.021 26.256 141.426 25.9627 141.896 25.76C142.376 25.5573 142.914 25.456 143.512 25.456C144.109 25.456 144.648 25.5573 145.128 25.76C145.608 25.9627 146.013 26.256 146.344 26.64C146.685 27.0133 146.946 27.4667 147.128 28C147.309 28.5333 147.4 29.136 147.4 29.808C147.4 30.48 147.309 31.088 147.128 31.632C146.946 32.1653 146.685 32.624 146.344 33.008C146.013 33.392 145.608 33.6853 145.128 33.888C144.648 34.0907 144.109 34.192 143.512 34.192ZM143.512 32.544C144.056 32.544 144.482 32.3787 144.792 32.048C145.101 31.7173 145.256 31.232 145.256 30.592V29.04C145.256 28.4107 145.101 27.9307 144.792 27.6C144.482 27.2693 144.056 27.104 143.512 27.104C142.978 27.104 142.557 27.2693 142.248 27.6C141.938 27.9307 141.784 28.4107 141.784 29.04V30.592C141.784 31.232 141.938 31.7173 142.248 32.048C142.557 32.3787 142.978 32.544 143.512 32.544ZM149.215 34V25.648H151.263V27.376H151.343C151.397 27.152 151.477 26.9387 151.583 26.736C151.701 26.5227 151.85 26.336 152.031 26.176C152.213 26.016 152.426 25.888 152.671 25.792C152.927 25.696 153.221 25.648 153.551 25.648H153.999V27.584H153.359C152.666 27.584 152.143 27.6853 151.791 27.888C151.439 28.0907 151.263 28.4213 151.263 28.88V34H149.215ZM162.014 34.192C161.214 34.192 160.542 34.0587 159.998 33.792C159.454 33.5147 158.974 33.136 158.558 32.656L159.806 31.44C160.115 31.792 160.451 32.0693 160.814 32.272C161.187 32.4747 161.614 32.576 162.094 32.576C162.584 32.576 162.936 32.4907 163.15 32.32C163.374 32.1493 163.486 31.9147 163.486 31.616C163.486 31.3707 163.406 31.1787 163.246 31.04C163.096 30.8907 162.835 30.7893 162.462 30.736L161.63 30.624C160.723 30.5067 160.03 30.2507 159.55 29.856C159.08 29.4507 158.846 28.864 158.846 28.096C158.846 27.6907 158.92 27.328 159.07 27.008C159.219 26.6773 159.432 26.4 159.71 26.176C159.987 25.9413 160.318 25.7653 160.702 25.648C161.096 25.52 161.534 25.456 162.014 25.456C162.419 25.456 162.776 25.488 163.086 25.552C163.406 25.6053 163.694 25.6907 163.95 25.808C164.206 25.9147 164.44 26.0533 164.654 26.224C164.867 26.384 165.075 26.5653 165.278 26.768L164.078 27.968C163.832 27.712 163.539 27.4987 163.198 27.328C162.856 27.1573 162.483 27.072 162.078 27.072C161.63 27.072 161.304 27.152 161.102 27.312C160.91 27.472 160.814 27.68 160.814 27.936C160.814 28.2133 160.894 28.4267 161.054 28.576C161.224 28.7147 161.507 28.816 161.902 28.88L162.75 28.992C164.552 29.248 165.454 30.0693 165.454 31.456C165.454 31.8613 165.368 32.2347 165.198 32.576C165.038 32.9067 164.808 33.1947 164.51 33.44C164.211 33.6747 163.848 33.8613 163.422 34C163.006 34.128 162.536 34.192 162.014 34.192ZM168.286 24.432C167.859 24.432 167.55 24.336 167.358 24.144C167.177 23.952 167.086 23.7067 167.086 23.408V23.088C167.086 22.7893 167.177 22.544 167.358 22.352C167.55 22.16 167.859 22.064 168.286 22.064C168.702 22.064 169.006 22.16 169.198 22.352C169.39 22.544 169.486 22.7893 169.486 23.088V23.408C169.486 23.7067 169.39 23.952 169.198 24.144C169.006 24.336 168.702 24.432 168.286 24.432ZM167.262 25.648H169.31V34H167.262V25.648ZM174.292 34C173.588 34 173.049 33.8187 172.676 33.456C172.313 33.0827 172.132 32.5547 172.132 31.872V27.28H170.9V25.648H171.54C171.849 25.648 172.057 25.5787 172.164 25.44C172.281 25.2907 172.34 25.072 172.34 24.784V23.36H174.18V25.648H175.892V27.28H174.18V32.368H175.764V34H174.292ZM187.594 34C187.146 34 186.788 33.872 186.522 33.616C186.266 33.3493 186.106 32.9973 186.042 32.56H185.946C185.807 33.104 185.524 33.5147 185.098 33.792C184.671 34.0587 184.143 34.192 183.514 34.192C182.66 34.192 182.004 33.968 181.546 33.52C181.087 33.072 180.858 32.4747 180.858 31.728C180.858 30.864 181.167 30.224 181.786 29.808C182.404 29.3813 183.284 29.168 184.426 29.168H185.85V28.56C185.85 28.0907 185.727 27.728 185.482 27.472C185.236 27.216 184.842 27.088 184.298 27.088C183.818 27.088 183.428 27.1947 183.13 27.408C182.842 27.6107 182.596 27.856 182.394 28.144L181.178 27.056C181.487 26.576 181.898 26.192 182.41 25.904C182.922 25.6053 183.599 25.456 184.442 25.456C185.572 25.456 186.431 25.712 187.018 26.224C187.604 26.736 187.898 27.472 187.898 28.432V32.368H188.73V34H187.594ZM184.202 32.704C184.66 32.704 185.05 32.6027 185.37 32.4C185.69 32.1973 185.85 31.8987 185.85 31.504V30.4H184.538C183.471 30.4 182.938 30.7413 182.938 31.424V31.696C182.938 32.0373 183.044 32.2933 183.258 32.464C183.482 32.624 183.796 32.704 184.202 32.704ZM190.387 34V25.648H192.435V27.04H192.515C192.675 26.6027 192.931 26.2293 193.283 25.92C193.635 25.6107 194.126 25.456 194.755 25.456C195.331 25.456 195.827 25.5947 196.243 25.872C196.659 26.1493 196.968 26.5707 197.171 27.136H197.203C197.352 26.6667 197.646 26.272 198.083 25.952C198.531 25.6213 199.091 25.456 199.763 25.456C200.584 25.456 201.214 25.7387 201.651 26.304C202.099 26.8693 202.323 27.6747 202.323 28.72V34H200.275V28.928C200.275 27.7333 199.827 27.136 198.931 27.136C198.728 27.136 198.531 27.168 198.339 27.232C198.158 27.2853 197.992 27.3707 197.843 27.488C197.704 27.5947 197.592 27.7333 197.507 27.904C197.422 28.064 197.379 28.256 197.379 28.48V34H195.331V28.928C195.331 27.7333 194.883 27.136 193.987 27.136C193.795 27.136 193.603 27.168 193.411 27.232C193.23 27.2853 193.064 27.3707 192.915 27.488C192.776 27.5947 192.659 27.7333 192.563 27.904C192.478 28.064 192.435 28.256 192.435 28.48V34H190.387ZM207.966 34.192C207.348 34.192 206.793 34.0907 206.302 33.888C205.822 33.6747 205.412 33.3813 205.07 33.008C204.74 32.624 204.484 32.1653 204.302 31.632C204.121 31.088 204.03 30.48 204.03 29.808C204.03 29.1467 204.116 28.5493 204.286 28.016C204.468 27.4827 204.724 27.0293 205.054 26.656C205.385 26.272 205.79 25.9787 206.27 25.776C206.75 25.5627 207.294 25.456 207.902 25.456C208.553 25.456 209.118 25.568 209.598 25.792C210.078 26.016 210.473 26.32 210.782 26.704C211.092 27.088 211.321 27.536 211.47 28.048C211.63 28.5493 211.71 29.088 211.71 29.664V30.336H206.158V30.544C206.158 31.152 206.329 31.6427 206.67 32.016C207.012 32.3787 207.518 32.56 208.19 32.56C208.702 32.56 209.118 32.4533 209.438 32.24C209.769 32.0267 210.062 31.7547 210.318 31.424L211.422 32.656C211.081 33.136 210.612 33.5147 210.014 33.792C209.428 34.0587 208.745 34.192 207.966 34.192ZM207.934 26.992C207.39 26.992 206.958 27.1733 206.638 27.536C206.318 27.8987 206.158 28.368 206.158 28.944V29.072H209.582V28.928C209.582 28.352 209.438 27.888 209.15 27.536C208.873 27.1733 208.468 26.992 207.934 26.992ZM216.12 34C215.416 34 214.877 33.8187 214.504 33.456C214.141 33.0827 213.96 32.5547 213.96 31.872V27.28H212.728V25.648H213.368C213.677 25.648 213.885 25.5787 213.992 25.44C214.109 25.2907 214.168 25.072 214.168 24.784V23.36H216.008V25.648H217.72V27.28H216.008V32.368H217.592V34H216.12Z" fill="black"/>
<path d="M62.624 72.192C61.7173 72.192 60.944 72.0213 60.304 71.68C59.664 71.328 59.12 70.848 58.672 70.24L59.664 69.408C60.0587 69.9307 60.496 70.3307 60.976 70.608C61.456 70.8747 62.0213 71.008 62.672 71.008C63.472 71.008 64.08 70.816 64.496 70.432C64.9227 70.048 65.136 69.536 65.136 68.896C65.136 68.3627 64.976 67.952 64.656 67.664C64.336 67.376 63.808 67.1467 63.072 66.976L62.16 66.768C61.136 66.5333 60.352 66.1813 59.808 65.712C59.2747 65.232 59.008 64.56 59.008 63.696C59.008 63.2053 59.0987 62.768 59.28 62.384C59.4613 62 59.712 61.68 60.032 61.424C60.3627 61.168 60.752 60.976 61.2 60.848C61.6587 60.7093 62.16 60.64 62.704 60.64C63.5467 60.64 64.2667 60.7947 64.864 61.104C65.472 61.4133 65.984 61.8667 66.4 62.464L65.392 63.2C65.0827 62.7733 64.7093 62.4373 64.272 62.192C63.8347 61.9467 63.2907 61.824 62.64 61.824C61.9253 61.824 61.36 61.9787 60.944 62.288C60.5387 62.5867 60.336 63.04 60.336 63.648C60.336 64.1813 60.5067 64.5867 60.848 64.864C61.2 65.1307 61.728 65.344 62.432 65.504L63.344 65.712C64.4427 65.9573 65.2373 66.3307 65.728 66.832C66.2187 67.3333 66.464 68 66.464 68.832C66.464 69.344 66.3733 69.808 66.192 70.224C66.0213 70.64 65.7707 70.992 65.44 71.28C65.1093 71.568 64.704 71.792 64.224 71.952C63.7547 72.112 63.2213 72.192 62.624 72.192ZM71.4569 68.192C70.7209 68.2133 70.1822 68.336 69.8409 68.56C69.5102 68.7733 69.3449 69.0827 69.3449 69.488V69.824C69.3449 70.2293 69.4889 70.544 69.7769 70.768C70.0755 70.992 70.4809 71.104 70.9929 71.104C71.3022 71.104 71.5849 71.0667 71.8409 70.992C72.1075 70.9173 72.3369 70.8107 72.5289 70.672C72.7209 70.5333 72.8702 70.3733 72.9769 70.192C73.0942 70.0107 73.1529 69.8133 73.1529 69.6V68.192H71.4569ZM78.9929 67.232V67.056C78.9929 66.32 78.7902 65.7333 78.3849 65.296C77.9902 64.848 77.4622 64.624 76.8009 64.624C76.4489 64.624 76.1289 64.688 75.8409 64.816C75.5529 64.9333 75.3022 65.104 75.0889 65.328C74.8862 65.552 74.7262 65.8187 74.6089 66.128C74.4915 66.4267 74.4329 66.7573 74.4329 67.12V67.232H78.9929ZM76.8809 71.072C77.9369 71.072 78.6942 70.6027 79.1529 69.664L80.0649 70.304C79.7982 70.88 79.3875 71.3387 78.8329 71.68C78.2889 72.0213 77.6595 72.192 76.9449 72.192C76.5075 72.192 76.1075 72.128 75.7449 72C75.3929 71.8827 75.0835 71.7333 74.8169 71.552C74.5609 71.36 74.3529 71.1573 74.1929 70.944C74.0329 70.72 73.9315 70.5173 73.8889 70.336H73.7929C73.7609 70.5173 73.6649 70.7147 73.5049 70.928C73.3555 71.1413 73.1529 71.344 72.8969 71.536C72.6409 71.7173 72.3315 71.872 71.9689 72C71.6062 72.128 71.1955 72.192 70.7369 72.192C69.9049 72.192 69.2382 71.9733 68.7369 71.536C68.2462 71.088 68.0009 70.4853 68.0009 69.728C68.0009 68.928 68.2942 68.3147 68.8809 67.888C69.4675 67.4507 70.3475 67.232 71.5209 67.232H73.1529V66.464C73.1529 65.8773 72.9929 65.4293 72.6729 65.12C72.3529 64.8107 71.8782 64.656 71.2489 64.656C70.7155 64.656 70.2835 64.7627 69.9529 64.976C69.6222 65.1893 69.3395 65.488 69.1049 65.872L68.3369 65.168C68.5502 64.7307 68.9022 64.352 69.3929 64.032C69.8942 63.712 70.5235 63.552 71.2809 63.552C71.7502 63.552 72.1395 63.6213 72.4489 63.76C72.7689 63.888 73.0249 64.048 73.2169 64.24C73.4195 64.4213 73.5689 64.6187 73.6649 64.832C73.7609 65.0453 73.8302 65.232 73.8729 65.392H73.9689C74.0115 65.2107 74.1129 65.0133 74.2729 64.8C74.4329 64.5867 74.6409 64.3893 74.8969 64.208C75.1529 64.016 75.4515 63.8613 75.7929 63.744C76.1449 63.616 76.5289 63.552 76.9449 63.552C77.4675 63.552 77.9369 63.6533 78.3529 63.856C78.7795 64.0587 79.1422 64.3413 79.4409 64.704C79.7395 65.056 79.9689 65.4773 80.1289 65.968C80.2889 66.4587 80.3689 66.9973 80.3689 67.584V68.192H74.4329V68.576C74.4329 68.928 74.4862 69.2587 74.5929 69.568C74.7102 69.8667 74.8702 70.128 75.0729 70.352C75.2862 70.576 75.5422 70.752 75.8409 70.88C76.1502 71.008 76.4969 71.072 76.8809 71.072ZM82.485 60.16H83.765V67.664H83.829L85.093 66.256L87.429 63.744H88.981L85.925 67.008L89.285 72H87.733L84.997 67.792L83.765 69.056V72H82.485V60.16ZM90.9225 60.16H92.2025V67.664H92.2665L93.5305 66.256L95.8665 63.744H97.4185L94.3625 67.008L97.7225 72H96.1705L93.4345 67.792L92.2025 69.056V72H90.9225V60.16ZM102.198 72.192C101.633 72.192 101.121 72.0907 100.662 71.888C100.214 71.6853 99.825 71.3973 99.4944 71.024C99.1744 70.64 98.9237 70.1867 98.7424 69.664C98.5717 69.1307 98.4864 68.5333 98.4864 67.872C98.4864 67.2213 98.5717 66.6293 98.7424 66.096C98.9237 65.5627 99.1744 65.1093 99.4944 64.736C99.825 64.352 100.214 64.0587 100.662 63.856C101.121 63.6533 101.633 63.552 102.198 63.552C102.753 63.552 103.249 63.6533 103.686 63.856C104.124 64.0587 104.497 64.3413 104.806 64.704C105.116 65.056 105.35 65.4773 105.51 65.968C105.681 66.4587 105.766 66.9973 105.766 67.584V68.192H99.8304V68.576C99.8304 68.928 99.8837 69.2587 99.9904 69.568C100.108 69.8667 100.268 70.128 100.47 70.352C100.684 70.576 100.94 70.752 101.238 70.88C101.548 71.008 101.894 71.072 102.278 71.072C102.801 71.072 103.254 70.9493 103.638 70.704C104.033 70.4587 104.337 70.1067 104.55 69.648L105.462 70.304C105.196 70.8693 104.78 71.328 104.214 71.68C103.649 72.0213 102.977 72.192 102.198 72.192ZM102.198 64.624C101.846 64.624 101.526 64.688 101.238 64.816C100.95 64.9333 100.7 65.104 100.486 65.328C100.284 65.552 100.124 65.8187 100.006 66.128C99.889 66.4267 99.8304 66.7573 99.8304 67.12V67.232H104.39V67.056C104.39 66.32 104.188 65.7333 103.782 65.296C103.388 64.848 102.86 64.624 102.198 64.624ZM111.657 72V63.744H112.937V65.088H113.001C113.097 64.8747 113.204 64.6773 113.321 64.496C113.449 64.304 113.598 64.1387 113.769 64C113.95 63.8613 114.158 63.7547 114.393 63.68C114.628 63.5947 114.905 63.552 115.225 63.552C115.769 63.552 116.27 63.6853 116.729 63.952C117.188 64.208 117.529 64.6347 117.753 65.232H117.785C117.934 64.784 118.212 64.3947 118.617 64.064C119.033 63.7227 119.593 63.552 120.297 63.552C121.14 63.552 121.796 63.8293 122.265 64.384C122.745 64.928 122.985 65.7013 122.985 66.704V72H121.705V66.928C121.705 66.192 121.561 65.6373 121.273 65.264C120.985 64.8907 120.526 64.704 119.897 64.704C119.641 64.704 119.396 64.736 119.161 64.8C118.937 64.864 118.734 64.96 118.553 65.088C118.372 65.216 118.228 65.3813 118.121 65.584C118.014 65.776 117.961 66.0053 117.961 66.272V72H116.681V66.928C116.681 66.192 116.537 65.6373 116.249 65.264C115.961 64.8907 115.513 64.704 114.905 64.704C114.649 64.704 114.404 64.736 114.169 64.8C113.934 64.864 113.726 64.96 113.545 65.088C113.364 65.216 113.214 65.3813 113.097 65.584C112.99 65.776 112.937 66.0053 112.937 66.272V72H111.657ZM126.442 72.192C126.1 72.192 125.85 72.1067 125.69 71.936C125.54 71.7653 125.466 71.5413 125.466 71.264V71.056C125.466 70.7787 125.54 70.5547 125.69 70.384C125.85 70.2133 126.1 70.128 126.442 70.128C126.783 70.128 127.028 70.2133 127.178 70.384C127.338 70.5547 127.418 70.7787 127.418 71.056V71.264C127.418 71.5413 127.338 71.7653 127.178 71.936C127.028 72.1067 126.783 72.192 126.442 72.192ZM140.726 72.912C140.726 73.7653 140.39 74.3893 139.718 74.784C139.057 75.1893 138.06 75.392 136.726 75.392C135.436 75.392 134.508 75.216 133.942 74.864C133.377 74.512 133.094 74.0107 133.094 73.36C133.094 72.912 133.212 72.56 133.446 72.304C133.681 72.0587 134.001 71.8773 134.406 71.76V71.584C133.916 71.3493 133.67 70.9653 133.67 70.432C133.67 70.016 133.804 69.7013 134.07 69.488C134.337 69.264 134.678 69.0987 135.094 68.992V68.928C134.604 68.6933 134.22 68.3573 133.942 67.92C133.676 67.4827 133.542 66.976 133.542 66.4C133.542 65.984 133.617 65.6 133.766 65.248C133.916 64.896 134.124 64.5973 134.39 64.352C134.668 64.096 134.993 63.8987 135.366 63.76C135.75 63.6213 136.177 63.552 136.646 63.552C137.233 63.552 137.756 63.6587 138.214 63.872V63.728C138.214 63.408 138.289 63.1467 138.438 62.944C138.588 62.7307 138.833 62.624 139.174 62.624H140.406V63.744H138.838V64.272C139.137 64.528 139.366 64.8373 139.526 65.2C139.697 65.552 139.782 65.952 139.782 66.4C139.782 66.816 139.708 67.2 139.558 67.552C139.409 67.904 139.196 68.208 138.918 68.464C138.652 68.7093 138.326 68.9013 137.942 69.04C137.558 69.1787 137.132 69.248 136.662 69.248C136.396 69.248 136.129 69.2213 135.862 69.168C135.585 69.2427 135.334 69.3547 135.11 69.504C134.886 69.6427 134.774 69.84 134.774 70.096C134.774 70.3413 134.892 70.5067 135.126 70.592C135.361 70.6773 135.665 70.72 136.038 70.72H137.798C138.822 70.72 139.564 70.9173 140.022 71.312C140.492 71.696 140.726 72.2293 140.726 72.912ZM139.526 73.008C139.526 72.6773 139.398 72.4107 139.142 72.208C138.897 72.016 138.454 71.92 137.814 71.92H135.062C134.55 72.1547 134.294 72.528 134.294 73.04C134.294 73.4027 134.428 73.712 134.694 73.968C134.972 74.224 135.436 74.352 136.086 74.352H137.27C137.985 74.352 138.54 74.24 138.934 74.016C139.329 73.792 139.526 73.456 139.526 73.008ZM136.662 68.224C137.206 68.224 137.638 68.096 137.958 67.84C138.278 67.5733 138.438 67.168 138.438 66.624V66.176C138.438 65.632 138.278 65.232 137.958 64.976C137.638 64.7093 137.206 64.576 136.662 64.576C136.118 64.576 135.686 64.7093 135.366 64.976C135.046 65.232 134.886 65.632 134.886 66.176V66.624C134.886 67.168 135.046 67.5733 135.366 67.84C135.686 68.096 136.118 68.224 136.662 68.224ZM145.23 72.192C144.664 72.192 144.152 72.0907 143.694 71.888C143.246 71.6853 142.856 71.3973 142.526 71.024C142.206 70.64 141.955 70.1867 141.774 69.664C141.603 69.1307 141.518 68.5333 141.518 67.872C141.518 67.2213 141.603 66.6293 141.774 66.096C141.955 65.5627 142.206 65.1093 142.526 64.736C142.856 64.352 143.246 64.0587 143.694 63.856C144.152 63.6533 144.664 63.552 145.23 63.552C145.784 63.552 146.28 63.6533 146.718 63.856C147.155 64.0587 147.528 64.3413 147.838 64.704C148.147 65.056 148.382 65.4773 148.542 65.968C148.712 66.4587 148.798 66.9973 148.798 67.584V68.192H142.862V68.576C142.862 68.928 142.915 69.2587 143.022 69.568C143.139 69.8667 143.299 70.128 143.502 70.352C143.715 70.576 143.971 70.752 144.27 70.88C144.579 71.008 144.926 71.072 145.31 71.072C145.832 71.072 146.286 70.9493 146.67 70.704C147.064 70.4587 147.368 70.1067 147.582 69.648L148.494 70.304C148.227 70.8693 147.811 71.328 147.246 71.68C146.68 72.0213 146.008 72.192 145.23 72.192ZM145.23 64.624C144.878 64.624 144.558 64.688 144.27 64.816C143.982 64.9333 143.731 65.104 143.518 65.328C143.315 65.552 143.155 65.8187 143.038 66.128C142.92 66.4267 142.862 66.7573 142.862 67.12V67.232H147.422V67.056C147.422 66.32 147.219 65.7333 146.814 65.296C146.419 64.848 145.891 64.624 145.23 64.624ZM150.907 72V63.744H152.187V65.088H152.251C152.454 64.6187 152.736 64.2453 153.099 63.968C153.472 63.6907 153.968 63.552 154.587 63.552C155.44 63.552 156.112 63.8293 156.603 64.384C157.104 64.928 157.355 65.7013 157.355 66.704V72H156.075V66.928C156.075 65.4453 155.451 64.704 154.203 64.704C153.947 64.704 153.696 64.736 153.451 64.8C153.216 64.864 153.003 64.96 152.811 65.088C152.619 65.216 152.464 65.3813 152.347 65.584C152.24 65.776 152.187 66.0053 152.187 66.272V72H150.907ZM160.001 60.16H161.281V65.088H161.345C161.558 64.5653 161.867 64.1813 162.273 63.936C162.689 63.68 163.185 63.552 163.761 63.552C164.273 63.552 164.737 63.6533 165.153 63.856C165.569 64.0587 165.921 64.3467 166.209 64.72C166.507 65.0933 166.731 65.5467 166.881 66.08C167.041 66.6133 167.121 67.2107 167.121 67.872C167.121 68.5333 167.041 69.1307 166.881 69.664C166.731 70.1973 166.507 70.6507 166.209 71.024C165.921 71.3973 165.569 71.6853 165.153 71.888C164.737 72.0907 164.273 72.192 163.761 72.192C162.641 72.192 161.835 71.68 161.345 70.656H161.281V72H160.001V60.16ZM163.409 71.04C164.134 71.04 164.705 70.816 165.121 70.368C165.537 69.9093 165.745 69.312 165.745 68.576V67.168C165.745 66.432 165.537 65.84 165.121 65.392C164.705 64.9333 164.134 64.704 163.409 64.704C163.121 64.704 162.843 64.7467 162.577 64.832C162.321 64.9067 162.097 65.0133 161.905 65.152C161.713 65.2907 161.558 65.4613 161.441 65.664C161.334 65.856 161.281 66.064 161.281 66.288V69.36C161.281 69.6267 161.334 69.8667 161.441 70.08C161.558 70.2827 161.713 70.4587 161.905 70.608C162.097 70.7467 162.321 70.8533 162.577 70.928C162.843 71.0027 163.121 71.04 163.409 71.04ZM169.282 72V63.744H170.562V65.264H170.642C170.791 64.8693 171.058 64.5173 171.442 64.208C171.826 63.8987 172.354 63.744 173.026 63.744H173.522V65.024H172.77C172.077 65.024 171.533 65.1573 171.138 65.424C170.754 65.68 170.562 66.0053 170.562 66.4V72H169.282ZM180.245 70.656H180.181C180.096 70.848 179.989 71.04 179.861 71.232C179.744 71.4133 179.594 71.5787 179.413 71.728C179.232 71.8667 179.013 71.9787 178.757 72.064C178.501 72.1493 178.202 72.192 177.861 72.192C177.008 72.192 176.33 71.92 175.829 71.376C175.328 70.8213 175.077 70.0427 175.077 69.04V63.744H176.357V68.816C176.357 70.2987 176.986 71.04 178.245 71.04C178.501 71.04 178.746 71.008 178.981 70.944C179.226 70.88 179.44 70.784 179.621 70.656C179.813 70.528 179.962 70.368 180.069 70.176C180.186 69.9733 180.245 69.7333 180.245 69.456V63.744H181.525V72H180.245V70.656ZM191.211 72.912C191.211 73.7653 190.875 74.3893 190.203 74.784C189.541 75.1893 188.544 75.392 187.211 75.392C185.92 75.392 184.992 75.216 184.427 74.864C183.861 74.512 183.579 74.0107 183.579 73.36C183.579 72.912 183.696 72.56 183.931 72.304C184.165 72.0587 184.485 71.8773 184.891 71.76V71.584C184.4 71.3493 184.155 70.9653 184.155 70.432C184.155 70.016 184.288 69.7013 184.555 69.488C184.821 69.264 185.163 69.0987 185.579 68.992V68.928C185.088 68.6933 184.704 68.3573 184.427 67.92C184.16 67.4827 184.027 66.976 184.027 66.4C184.027 65.984 184.101 65.6 184.251 65.248C184.4 64.896 184.608 64.5973 184.875 64.352C185.152 64.096 185.477 63.8987 185.851 63.76C186.235 63.6213 186.661 63.552 187.131 63.552C187.717 63.552 188.24 63.6587 188.699 63.872V63.728C188.699 63.408 188.773 63.1467 188.923 62.944C189.072 62.7307 189.317 62.624 189.659 62.624H190.891V63.744H189.323V64.272C189.621 64.528 189.851 64.8373 190.011 65.2C190.181 65.552 190.267 65.952 190.267 66.4C190.267 66.816 190.192 67.2 190.043 67.552C189.893 67.904 189.68 68.208 189.403 68.464C189.136 68.7093 188.811 68.9013 188.427 69.04C188.043 69.1787 187.616 69.248 187.147 69.248C186.88 69.248 186.613 69.2213 186.347 69.168C186.069 69.2427 185.819 69.3547 185.595 69.504C185.371 69.6427 185.259 69.84 185.259 70.096C185.259 70.3413 185.376 70.5067 185.611 70.592C185.845 70.6773 186.149 70.72 186.523 70.72H188.283C189.307 70.72 190.048 70.9173 190.507 71.312C190.976 71.696 191.211 72.2293 191.211 72.912ZM190.011 73.008C190.011 72.6773 189.883 72.4107 189.627 72.208C189.381 72.016 188.939 71.92 188.299 71.92H185.547C185.035 72.1547 184.779 72.528 184.779 73.04C184.779 73.4027 184.912 73.712 185.179 73.968C185.456 74.224 185.92 74.352 186.571 74.352H187.755C188.469 74.352 189.024 74.24 189.419 74.016C189.813 73.792 190.011 73.456 190.011 73.008ZM187.147 68.224C187.691 68.224 188.123 68.096 188.443 67.84C188.763 67.5733 188.923 67.168 188.923 66.624V66.176C188.923 65.632 188.763 65.232 188.443 64.976C188.123 64.7093 187.691 64.576 187.147 64.576C186.603 64.576 186.171 64.7093 185.851 64.976C185.531 65.232 185.371 65.632 185.371 66.176V66.624C185.371 67.168 185.531 67.5733 185.851 67.84C186.171 68.096 186.603 68.224 187.147 68.224Z" fill="#1A1A1A"/>
<path d="M48 85H18C17.4696 85 16.9609 84.7893 16.5858 84.4142C16.2107 84.0391 16 83.5304 16 83V53C16 52.4696 16.2107 51.9609 16.5858 51.5858C16.9609 51.2107 17.4696 51 18 51H48C48.5304 51 49.0391 51.2107 49.4142 51.5858C49.7893 51.9609 50 52.4696 50 53V83C50 83.5304 49.7893 84.0391 49.4142 84.4142C49.0391 84.7893 48.5304 85 48 85ZM23 65.26L20.331 67.932L29.924 77.525L45.669 61.78L43 59.109L29.924 72.182L23 65.26Z" fill="#1A1A1A"/>
<path d="M68.192 106.592H68.112L67.168 108.464L64.496 113.328L61.824 108.464L60.88 106.592H60.8V116H59.488V104.832H61.28L64.48 110.848H64.56L67.776 104.832H69.504V116H68.192V106.592ZM71.5444 116.096L72.6164 114.752C72.0724 113.995 71.8004 113.035 71.8004 111.872C71.8004 111.221 71.891 110.629 72.0724 110.096C72.2537 109.563 72.5044 109.109 72.8244 108.736C73.155 108.352 73.5497 108.059 74.0084 107.856C74.467 107.653 74.9737 107.552 75.5284 107.552C75.9764 107.552 76.387 107.621 76.7604 107.76C77.1444 107.899 77.491 108.091 77.8004 108.336L78.7924 107.104L79.5124 107.648L78.4404 109.008C78.6964 109.371 78.8937 109.797 79.0324 110.288C79.1817 110.768 79.2564 111.296 79.2564 111.872C79.2564 112.533 79.1657 113.131 78.9844 113.664C78.803 114.187 78.547 114.64 78.2164 115.024C77.8857 115.397 77.491 115.685 77.0324 115.888C76.5844 116.091 76.083 116.192 75.5284 116.192C74.643 116.192 73.8857 115.936 73.2564 115.424L72.2644 116.64L71.5444 116.096ZM75.5284 115.056C76.2217 115.056 76.787 114.843 77.2244 114.416C77.6617 113.989 77.8804 113.339 77.8804 112.464V111.28C77.8804 111.024 77.859 110.789 77.8164 110.576C77.7737 110.363 77.715 110.165 77.6404 109.984L73.9604 114.528C74.355 114.88 74.8777 115.056 75.5284 115.056ZM73.1764 112.464C73.1764 112.976 73.2564 113.413 73.4164 113.776L77.0964 109.216C76.6804 108.864 76.1577 108.688 75.5284 108.688C74.835 108.688 74.2697 108.901 73.8324 109.328C73.395 109.755 73.1764 110.405 73.1764 111.28V112.464ZM81.4381 104.16H82.7181V109.088H82.7821C82.9955 108.565 83.3048 108.181 83.7101 107.936C84.1261 107.68 84.6221 107.552 85.1981 107.552C85.7101 107.552 86.1741 107.653 86.5901 107.856C87.0061 108.059 87.3581 108.347 87.6461 108.72C87.9448 109.093 88.1688 109.547 88.3181 110.08C88.4781 110.613 88.5581 111.211 88.5581 111.872C88.5581 112.533 88.4781 113.131 88.3181 113.664C88.1688 114.197 87.9448 114.651 87.6461 115.024C87.3581 115.397 87.0061 115.685 86.5901 115.888C86.1741 116.091 85.7101 116.192 85.1981 116.192C84.0781 116.192 83.2728 115.68 82.7821 114.656H82.7181V116H81.4381V104.16ZM84.8461 115.04C85.5715 115.04 86.1421 114.816 86.5581 114.368C86.9741 113.909 87.1821 113.312 87.1821 112.576V111.168C87.1821 110.432 86.9741 109.84 86.5581 109.392C86.1421 108.933 85.5715 108.704 84.8461 108.704C84.5581 108.704 84.2808 108.747 84.0141 108.832C83.7581 108.907 83.5341 109.013 83.3421 109.152C83.1501 109.291 82.9955 109.461 82.8781 109.664C82.7715 109.856 82.7181 110.064 82.7181 110.288V113.36C82.7181 113.627 82.7715 113.867 82.8781 114.08C82.9955 114.283 83.1501 114.459 83.3421 114.608C83.5341 114.747 83.7581 114.853 84.0141 114.928C84.2808 115.003 84.5581 115.04 84.8461 115.04ZM92.0794 116C91.6314 116 91.29 115.877 91.0554 115.632C90.8314 115.376 90.7194 115.056 90.7194 114.672V104.16H91.9994V114.88H93.2154V116H92.0794ZM98.1828 116.192C97.6174 116.192 97.1054 116.091 96.6468 115.888C96.1988 115.685 95.8094 115.397 95.4788 115.024C95.1588 114.64 94.9081 114.187 94.7268 113.664C94.5561 113.131 94.4708 112.533 94.4708 111.872C94.4708 111.221 94.5561 110.629 94.7268 110.096C94.9081 109.563 95.1588 109.109 95.4788 108.736C95.8094 108.352 96.1988 108.059 96.6468 107.856C97.1054 107.653 97.6174 107.552 98.1828 107.552C98.7374 107.552 99.2334 107.653 99.6708 107.856C100.108 108.059 100.481 108.341 100.791 108.704C101.1 109.056 101.335 109.477 101.495 109.968C101.665 110.459 101.751 110.997 101.751 111.584V112.192H95.8148V112.576C95.8148 112.928 95.8681 113.259 95.9748 113.568C96.0921 113.867 96.2521 114.128 96.4548 114.352C96.6681 114.576 96.9241 114.752 97.2228 114.88C97.5321 115.008 97.8788 115.072 98.2628 115.072C98.7854 115.072 99.2388 114.949 99.6228 114.704C100.017 114.459 100.321 114.107 100.535 113.648L101.447 114.304C101.18 114.869 100.764 115.328 100.199 115.68C99.6334 116.021 98.9614 116.192 98.1828 116.192ZM98.1828 108.624C97.8308 108.624 97.5108 108.688 97.2228 108.816C96.9348 108.933 96.6841 109.104 96.4708 109.328C96.2681 109.552 96.1081 109.819 95.9908 110.128C95.8734 110.427 95.8148 110.757 95.8148 111.12V111.232H100.375V111.056C100.375 110.32 100.172 109.733 99.7668 109.296C99.3721 108.848 98.8441 108.624 98.1828 108.624ZM103.86 116V107.744H105.14V109.264H105.22C105.369 108.869 105.636 108.517 106.02 108.208C106.404 107.899 106.932 107.744 107.604 107.744H108.1V109.024H107.348C106.655 109.024 106.111 109.157 105.716 109.424C105.332 109.68 105.14 110.005 105.14 110.4V116H103.86Z" fill="#1A1A1A"/>
<path d="M48 129H18C17.4696 129 16.9609 128.789 16.5858 128.414C16.2107 128.039 16 127.53 16 127V97C16 96.4696 16.2107 95.9609 16.5858 95.5858C16.9609 95.2107 17.4696 95 18 95H48C48.5304 95 49.0391 95.2107 49.4142 95.5858C49.7893 95.9609 50 96.4696 50 97V127C50 127.53 49.7893 128.039 49.4142 128.414C49.0391 128.789 48.5304 129 48 129ZM23 109.26L20.331 111.932L29.924 121.525L45.669 105.78L43 103.109L29.924 116.182L23 109.26Z" fill="#1A1A1A"/>
<path d="M62.624 160.192C61.7173 160.192 60.944 160.021 60.304 159.68C59.664 159.328 59.12 158.848 58.672 158.24L59.664 157.408C60.0587 157.931 60.496 158.331 60.976 158.608C61.456 158.875 62.0213 159.008 62.672 159.008C63.472 159.008 64.08 158.816 64.496 158.432C64.9227 158.048 65.136 157.536 65.136 156.896C65.136 156.363 64.976 155.952 64.656 155.664C64.336 155.376 63.808 155.147 63.072 154.976L62.16 154.768C61.136 154.533 60.352 154.181 59.808 153.712C59.2747 153.232 59.008 152.56 59.008 151.696C59.008 151.205 59.0987 150.768 59.28 150.384C59.4613 150 59.712 149.68 60.032 149.424C60.3627 149.168 60.752 148.976 61.2 148.848C61.6587 148.709 62.16 148.64 62.704 148.64C63.5467 148.64 64.2667 148.795 64.864 149.104C65.472 149.413 65.984 149.867 66.4 150.464L65.392 151.2C65.0827 150.773 64.7093 150.437 64.272 150.192C63.8347 149.947 63.2907 149.824 62.64 149.824C61.9253 149.824 61.36 149.979 60.944 150.288C60.5387 150.587 60.336 151.04 60.336 151.648C60.336 152.181 60.5067 152.587 60.848 152.864C61.2 153.131 61.728 153.344 62.432 153.504L63.344 153.712C64.4427 153.957 65.2373 154.331 65.728 154.832C66.2187 155.333 66.464 156 66.464 156.832C66.464 157.344 66.3733 157.808 66.192 158.224C66.0213 158.64 65.7707 158.992 65.44 159.28C65.1093 159.568 64.704 159.792 64.224 159.952C63.7547 160.112 63.2213 160.192 62.624 160.192ZM70.4809 160C70.0329 160 69.6915 159.877 69.4569 159.632C69.2329 159.376 69.1209 159.045 69.1209 158.64V152.864H67.7609V151.744H68.5289C68.8062 151.744 68.9929 151.691 69.0889 151.584C69.1955 151.467 69.2489 151.269 69.2489 150.992V149.456H70.4009V151.744H72.2089V152.864H70.4009V158.88H72.0809V160H70.4809ZM77.3238 160.192C76.7691 160.192 76.2624 160.091 75.8038 159.888C75.3451 159.685 74.9504 159.397 74.6198 159.024C74.2998 158.64 74.0491 158.187 73.8678 157.664C73.6864 157.131 73.5958 156.533 73.5958 155.872C73.5958 155.221 73.6864 154.629 73.8678 154.096C74.0491 153.563 74.2998 153.109 74.6198 152.736C74.9504 152.352 75.3451 152.059 75.8038 151.856C76.2624 151.653 76.7691 151.552 77.3238 151.552C77.8784 151.552 78.3798 151.653 78.8278 151.856C79.2864 152.059 79.6811 152.352 80.0118 152.736C80.3424 153.109 80.5984 153.563 80.7798 154.096C80.9611 154.629 81.0518 155.221 81.0518 155.872C81.0518 156.533 80.9611 157.131 80.7798 157.664C80.5984 158.187 80.3424 158.64 80.0118 159.024C79.6811 159.397 79.2864 159.685 78.8278 159.888C78.3798 160.091 77.8784 160.192 77.3238 160.192ZM77.3238 159.056C78.0171 159.056 78.5824 158.843 79.0198 158.416C79.4571 157.989 79.6758 157.339 79.6758 156.464V155.28C79.6758 154.405 79.4571 153.755 79.0198 153.328C78.5824 152.901 78.0171 152.688 77.3238 152.688C76.6304 152.688 76.0651 152.901 75.6278 153.328C75.1904 153.755 74.9718 154.405 74.9718 155.28V156.464C74.9718 157.339 75.1904 157.989 75.6278 158.416C76.0651 158.843 76.6304 159.056 77.3238 159.056ZM83.1569 160V151.744H84.4369V153.264H84.5169C84.6662 152.869 84.9329 152.517 85.3169 152.208C85.7009 151.899 86.2289 151.744 86.9009 151.744H87.3969V153.024H86.6449C85.9515 153.024 85.4075 153.157 85.0129 153.424C84.6289 153.68 84.4369 154.005 84.4369 154.4V160H83.1569ZM95.9171 160.192C95.3518 160.192 94.8398 160.091 94.3811 159.888C93.9331 159.685 93.5438 159.397 93.2131 159.024C92.8931 158.64 92.6425 158.187 92.4611 157.664C92.2905 157.131 92.2051 156.533 92.2051 155.872C92.2051 155.221 92.2905 154.629 92.4611 154.096C92.6425 153.563 92.8931 153.109 93.2131 152.736C93.5438 152.352 93.9331 152.059 94.3811 151.856C94.8398 151.653 95.3518 151.552 95.9171 151.552C96.4718 151.552 96.9678 151.653 97.4051 151.856C97.8425 152.059 98.2158 152.341 98.5251 152.704C98.8345 153.056 99.0691 153.477 99.2291 153.968C99.3998 154.459 99.4851 154.997 99.4851 155.584V156.192H93.5491V156.576C93.5491 156.928 93.6025 157.259 93.7091 157.568C93.8265 157.867 93.9865 158.128 94.1891 158.352C94.4025 158.576 94.6585 158.752 94.9571 158.88C95.2665 159.008 95.6131 159.072 95.9971 159.072C96.5198 159.072 96.9731 158.949 97.3571 158.704C97.7518 158.459 98.0558 158.107 98.2691 157.648L99.1811 158.304C98.9145 158.869 98.4985 159.328 97.9331 159.68C97.3678 160.021 96.6958 160.192 95.9171 160.192ZM95.9171 152.624C95.5651 152.624 95.2451 152.688 94.9571 152.816C94.6691 152.933 94.4185 153.104 94.2051 153.328C94.0025 153.552 93.8425 153.819 93.7251 154.128C93.6078 154.427 93.5491 154.757 93.5491 155.12V155.232H98.1091V155.056C98.1091 154.32 97.9065 153.733 97.5011 153.296C97.1065 152.848 96.5785 152.624 95.9171 152.624ZM102.954 160C102.506 160 102.165 159.877 101.93 159.632C101.706 159.376 101.594 159.056 101.594 158.672V148.16H102.874V158.88H104.09V160H102.954ZM109.058 160.192C108.492 160.192 107.98 160.091 107.522 159.888C107.074 159.685 106.684 159.397 106.354 159.024C106.034 158.64 105.783 158.187 105.602 157.664C105.431 157.131 105.346 156.533 105.346 155.872C105.346 155.221 105.431 154.629 105.602 154.096C105.783 153.563 106.034 153.109 106.354 152.736C106.684 152.352 107.074 152.059 107.522 151.856C107.98 151.653 108.492 151.552 109.058 151.552C109.612 151.552 110.108 151.653 110.546 151.856C110.983 152.059 111.356 152.341 111.666 152.704C111.975 153.056 112.21 153.477 112.37 153.968C112.54 154.459 112.626 154.997 112.626 155.584V156.192H106.69V156.576C106.69 156.928 106.743 157.259 106.85 157.568C106.967 157.867 107.127 158.128 107.33 158.352C107.543 158.576 107.799 158.752 108.098 158.88C108.407 159.008 108.754 159.072 109.138 159.072C109.66 159.072 110.114 158.949 110.498 158.704C110.892 158.459 111.196 158.107 111.41 157.648L112.322 158.304C112.055 158.869 111.639 159.328 111.074 159.68C110.508 160.021 109.836 160.192 109.058 160.192ZM109.058 152.624C108.706 152.624 108.386 152.688 108.098 152.816C107.81 152.933 107.559 153.104 107.346 153.328C107.143 153.552 106.983 153.819 106.866 154.128C106.748 154.427 106.69 154.757 106.69 155.12V155.232H111.25V155.056C111.25 154.32 111.047 153.733 110.642 153.296C110.247 152.848 109.719 152.624 109.058 152.624ZM114.735 148.16H116.015V155.664H116.079L117.343 154.256L119.679 151.744H121.231L118.175 155.008L121.535 160H119.983L117.247 155.792L116.015 157.056V160H114.735V148.16ZM124.84 160C124.392 160 124.051 159.877 123.816 159.632C123.592 159.376 123.48 159.045 123.48 158.64V152.864H122.12V151.744H122.888C123.166 151.744 123.352 151.691 123.448 151.584C123.555 151.467 123.608 151.269 123.608 150.992V149.456H124.76V151.744H126.568V152.864H124.76V158.88H126.44V160H124.84ZM128.626 160V151.744H129.906V153.264H129.986C130.135 152.869 130.402 152.517 130.786 152.208C131.17 151.899 131.698 151.744 132.37 151.744H132.866V153.024H132.114C131.42 153.024 130.876 153.157 130.482 153.424C130.098 153.68 129.906 154.005 129.906 154.4V160H128.626ZM137.543 160.192C136.988 160.192 136.481 160.091 136.023 159.888C135.564 159.685 135.169 159.397 134.839 159.024C134.519 158.64 134.268 158.187 134.087 157.664C133.905 157.131 133.815 156.533 133.815 155.872C133.815 155.221 133.905 154.629 134.087 154.096C134.268 153.563 134.519 153.109 134.839 152.736C135.169 152.352 135.564 152.059 136.023 151.856C136.481 151.653 136.988 151.552 137.543 151.552C138.097 151.552 138.599 151.653 139.047 151.856C139.505 152.059 139.9 152.352 140.231 152.736C140.561 153.109 140.817 153.563 140.999 154.096C141.18 154.629 141.271 155.221 141.271 155.872C141.271 156.533 141.18 157.131 140.999 157.664C140.817 158.187 140.561 158.64 140.231 159.024C139.9 159.397 139.505 159.685 139.047 159.888C138.599 160.091 138.097 160.192 137.543 160.192ZM137.543 159.056C138.236 159.056 138.801 158.843 139.239 158.416C139.676 157.989 139.895 157.339 139.895 156.464V155.28C139.895 154.405 139.676 153.755 139.239 153.328C138.801 152.901 138.236 152.688 137.543 152.688C136.849 152.688 136.284 152.901 135.847 153.328C135.409 153.755 135.191 154.405 135.191 155.28V156.464C135.191 157.339 135.409 157.989 135.847 158.416C136.284 158.843 136.849 159.056 137.543 159.056ZM143.376 160V151.744H144.656V153.088H144.72C144.922 152.619 145.205 152.245 145.568 151.968C145.941 151.691 146.437 151.552 147.056 151.552C147.909 151.552 148.581 151.829 149.072 152.384C149.573 152.928 149.824 153.701 149.824 154.704V160H148.544V154.928C148.544 153.445 147.92 152.704 146.672 152.704C146.416 152.704 146.165 152.736 145.92 152.8C145.685 152.864 145.472 152.96 145.28 153.088C145.088 153.216 144.933 153.381 144.816 153.584C144.709 153.776 144.656 154.005 144.656 154.272V160H143.376ZM153.109 149.808C152.832 149.808 152.629 149.744 152.501 149.616C152.384 149.477 152.325 149.301 152.325 149.088V148.88C152.325 148.667 152.384 148.496 152.501 148.368C152.629 148.229 152.832 148.16 153.109 148.16C153.387 148.16 153.584 148.229 153.701 148.368C153.829 148.496 153.893 148.667 153.893 148.88V149.088C153.893 149.301 153.829 149.477 153.701 149.616C153.584 149.744 153.387 149.808 153.109 149.808ZM152.469 151.744H153.749V160H152.469V151.744ZM156.469 148.16H157.749V155.664H157.813L159.077 154.256L161.413 151.744H162.965L159.909 155.008L163.269 160H161.717L158.981 155.792L157.749 157.056V160H156.469V148.16Z" fill="#1A1A1A"/>
<rect x="17" y="140" width="32" height="32" rx="1" fill="white" stroke="#1A1A1A" stroke-width="2"/>
<path d="M66.48 198.944H60.832V204H59.488V192.832H60.832V197.76H66.48V192.832H67.824V204H66.48V198.944ZM76.6725 204C76.1925 204 75.8458 203.872 75.6325 203.616C75.4298 203.36 75.3018 203.04 75.2485 202.656H75.1685C74.9872 203.168 74.6885 203.552 74.2725 203.808C73.8565 204.064 73.3605 204.192 72.7845 204.192C71.9098 204.192 71.2272 203.968 70.7365 203.52C70.2565 203.072 70.0165 202.464 70.0165 201.696C70.0165 200.917 70.2992 200.32 70.8645 199.904C71.4405 199.488 72.3312 199.28 73.5365 199.28H75.1685V198.464C75.1685 197.877 75.0085 197.429 74.6885 197.12C74.3685 196.811 73.8778 196.656 73.2165 196.656C72.7152 196.656 72.2938 196.768 71.9525 196.992C71.6218 197.216 71.3445 197.515 71.1205 197.888L70.3525 197.168C70.5765 196.72 70.9338 196.341 71.4245 196.032C71.9152 195.712 72.5338 195.552 73.2805 195.552C74.2832 195.552 75.0618 195.797 75.6165 196.288C76.1712 196.779 76.4485 197.461 76.4485 198.336V202.88H77.3925V204H76.6725ZM72.9925 203.104C73.3125 203.104 73.6058 203.067 73.8725 202.992C74.1392 202.917 74.3685 202.811 74.5605 202.672C74.7525 202.533 74.9018 202.373 75.0085 202.192C75.1152 202.011 75.1685 201.813 75.1685 201.6V200.24H73.4725C72.7365 200.24 72.1978 200.347 71.8565 200.56C71.5258 200.773 71.3605 201.083 71.3605 201.488V201.824C71.3605 202.229 71.5045 202.544 71.7925 202.768C72.0912 202.992 72.4912 203.104 72.9925 203.104ZM73.3605 194.784C73.1045 194.784 72.8592 194.741 72.6245 194.656C72.4005 194.56 72.2032 194.432 72.0325 194.272C71.8725 194.101 71.7445 193.904 71.6485 193.68C71.5525 193.456 71.5045 193.211 71.5045 192.944C71.5045 192.677 71.5525 192.432 71.6485 192.208C71.7445 191.984 71.8725 191.792 72.0325 191.632C72.2032 191.461 72.4005 191.333 72.6245 191.248C72.8592 191.152 73.1045 191.104 73.3605 191.104C73.6165 191.104 73.8565 191.152 74.0805 191.248C74.3152 191.333 74.5125 191.461 74.6725 191.632C74.8432 191.792 74.9765 191.984 75.0725 192.208C75.1685 192.432 75.2165 192.677 75.2165 192.944C75.2165 193.211 75.1685 193.456 75.0725 193.68C74.9765 193.904 74.8432 194.101 74.6725 194.272C74.5125 194.432 74.3152 194.56 74.0805 194.656C73.8565 194.741 73.6165 194.784 73.3605 194.784ZM73.3605 194C73.6485 194 73.8725 193.925 74.0325 193.776C74.2032 193.616 74.2885 193.397 74.2885 193.12V192.768C74.2885 192.491 74.2032 192.277 74.0325 192.128C73.8725 191.968 73.6485 191.888 73.3605 191.888C73.0725 191.888 72.8432 191.968 72.6725 192.128C72.5125 192.277 72.4325 192.491 72.4325 192.768V193.12C72.4325 193.397 72.5125 193.616 72.6725 193.776C72.8432 193.925 73.0725 194 73.3605 194ZM79.2194 204V195.744H80.4994V197.264H80.5794C80.7287 196.869 80.9954 196.517 81.3794 196.208C81.7634 195.899 82.2914 195.744 82.9634 195.744H83.4594V197.024H82.7074C82.014 197.024 81.47 197.157 81.0754 197.424C80.6914 197.68 80.4994 198.005 80.4994 198.4V204H79.2194ZM90.2806 202.656H90.2166C89.7153 203.68 88.91 204.192 87.8006 204.192C87.2886 204.192 86.8246 204.091 86.4086 203.888C85.9926 203.685 85.6353 203.397 85.3366 203.024C85.0486 202.651 84.8246 202.197 84.6646 201.664C84.5153 201.131 84.4406 200.533 84.4406 199.872C84.4406 199.211 84.5153 198.613 84.6646 198.08C84.8246 197.547 85.0486 197.093 85.3366 196.72C85.6353 196.347 85.9926 196.059 86.4086 195.856C86.8246 195.653 87.2886 195.552 87.8006 195.552C88.3766 195.552 88.8673 195.68 89.2726 195.936C89.6886 196.181 90.0033 196.565 90.2166 197.088H90.2806V192.16H91.5606V204H90.2806V202.656ZM88.1526 203.04C88.4406 203.04 88.7126 203.003 88.9686 202.928C89.2353 202.853 89.4646 202.747 89.6566 202.608C89.8486 202.459 89.998 202.283 90.1046 202.08C90.222 201.867 90.2806 201.627 90.2806 201.36V198.288C90.2806 198.064 90.222 197.856 90.1046 197.664C89.998 197.461 89.8486 197.291 89.6566 197.152C89.4646 197.013 89.2353 196.907 88.9686 196.832C88.7126 196.747 88.4406 196.704 88.1526 196.704C87.4273 196.704 86.8566 196.933 86.4406 197.392C86.0246 197.84 85.8166 198.432 85.8166 199.168V200.576C85.8166 201.312 86.0246 201.909 86.4406 202.368C86.8566 202.816 87.4273 203.04 88.1526 203.04ZM97.3859 204.192C96.8205 204.192 96.3085 204.091 95.8499 203.888C95.4019 203.685 95.0125 203.397 94.6819 203.024C94.3619 202.64 94.1112 202.187 93.9299 201.664C93.7592 201.131 93.6739 200.533 93.6739 199.872C93.6739 199.221 93.7592 198.629 93.9299 198.096C94.1112 197.563 94.3619 197.109 94.6819 196.736C95.0125 196.352 95.4019 196.059 95.8499 195.856C96.3085 195.653 96.8205 195.552 97.3859 195.552C97.9405 195.552 98.4365 195.653 98.8739 195.856C99.3112 196.059 99.6845 196.341 99.9939 196.704C100.303 197.056 100.538 197.477 100.698 197.968C100.869 198.459 100.954 198.997 100.954 199.584V200.192H95.0179V200.576C95.0179 200.928 95.0712 201.259 95.1779 201.568C95.2952 201.867 95.4552 202.128 95.6579 202.352C95.8712 202.576 96.1272 202.752 96.4259 202.88C96.7352 203.008 97.0819 203.072 97.4659 203.072C97.9885 203.072 98.4419 202.949 98.8259 202.704C99.2205 202.459 99.5245 202.107 99.7379 201.648L100.65 202.304C100.383 202.869 99.9672 203.328 99.4019 203.68C98.8365 204.021 98.1645 204.192 97.3859 204.192ZM97.3859 196.624C97.0339 196.624 96.7139 196.688 96.4259 196.816C96.1379 196.933 95.8872 197.104 95.6739 197.328C95.4712 197.552 95.3112 197.819 95.1939 198.128C95.0765 198.427 95.0179 198.757 95.0179 199.12V199.232H99.5779V199.056C99.5779 198.32 99.3752 197.733 98.9699 197.296C98.5752 196.848 98.0472 196.624 97.3859 196.624ZM106.844 192.16H108.124V197.088H108.188C108.391 196.619 108.674 196.245 109.036 195.968C109.41 195.691 109.906 195.552 110.524 195.552C111.378 195.552 112.05 195.829 112.54 196.384C113.042 196.928 113.292 197.701 113.292 198.704V204H112.012V198.928C112.012 197.445 111.388 196.704 110.14 196.704C109.884 196.704 109.634 196.736 109.388 196.8C109.154 196.864 108.94 196.96 108.748 197.088C108.556 197.216 108.402 197.381 108.284 197.584C108.178 197.776 108.124 198.005 108.124 198.272V204H106.844V192.16ZM117.637 204L114.741 195.744H116.021L117.461 199.84L118.357 202.656H118.437L119.333 199.84L120.805 195.744H122.037L119.125 204H117.637ZM124.328 193.808C124.051 193.808 123.848 193.744 123.72 193.616C123.603 193.477 123.544 193.301 123.544 193.088V192.88C123.544 192.667 123.603 192.496 123.72 192.368C123.848 192.229 124.051 192.16 124.328 192.16C124.605 192.16 124.803 192.229 124.92 192.368C125.048 192.496 125.112 192.667 125.112 192.88V193.088C125.112 193.301 125.048 193.477 124.92 193.616C124.803 193.744 124.605 193.808 124.328 193.808ZM123.688 195.744H124.968V204H123.688V195.744ZM132.968 202.656H132.904C132.403 203.68 131.597 204.192 130.488 204.192C129.976 204.192 129.512 204.091 129.096 203.888C128.68 203.685 128.323 203.397 128.024 203.024C127.736 202.651 127.512 202.197 127.352 201.664C127.203 201.131 127.128 200.533 127.128 199.872C127.128 199.211 127.203 198.613 127.352 198.08C127.512 197.547 127.736 197.093 128.024 196.72C128.323 196.347 128.68 196.059 129.096 195.856C129.512 195.653 129.976 195.552 130.488 195.552C131.064 195.552 131.555 195.68 131.96 195.936C132.376 196.181 132.691 196.565 132.904 197.088H132.968V192.16H134.248V204H132.968V202.656ZM130.84 203.04C131.128 203.04 131.4 203.003 131.656 202.928C131.923 202.853 132.152 202.747 132.344 202.608C132.536 202.459 132.685 202.283 132.792 202.08C132.909 201.867 132.968 201.627 132.968 201.36V198.288C132.968 198.064 132.909 197.856 132.792 197.664C132.685 197.461 132.536 197.291 132.344 197.152C132.152 197.013 131.923 196.907 131.656 196.832C131.4 196.747 131.128 196.704 130.84 196.704C130.115 196.704 129.544 196.933 129.128 197.392C128.712 197.84 128.504 198.432 128.504 199.168V200.576C128.504 201.312 128.712 201.909 129.128 202.368C129.544 202.816 130.115 203.04 130.84 203.04ZM140.073 204.192C139.508 204.192 138.996 204.091 138.537 203.888C138.089 203.685 137.7 203.397 137.369 203.024C137.049 202.64 136.799 202.187 136.617 201.664C136.447 201.131 136.361 200.533 136.361 199.872C136.361 199.221 136.447 198.629 136.617 198.096C136.799 197.563 137.049 197.109 137.369 196.736C137.7 196.352 138.089 196.059 138.537 195.856C138.996 195.653 139.508 195.552 140.073 195.552C140.628 195.552 141.124 195.653 141.561 195.856C141.999 196.059 142.372 196.341 142.681 196.704C142.991 197.056 143.225 197.477 143.385 197.968C143.556 198.459 143.641 198.997 143.641 199.584V200.192H137.705V200.576C137.705 200.928 137.759 201.259 137.865 201.568C137.983 201.867 138.143 202.128 138.345 202.352C138.559 202.576 138.815 202.752 139.113 202.88C139.423 203.008 139.769 203.072 140.153 203.072C140.676 203.072 141.129 202.949 141.513 202.704C141.908 202.459 142.212 202.107 142.425 201.648L143.337 202.304C143.071 202.869 142.655 203.328 142.089 203.68C141.524 204.021 140.852 204.192 140.073 204.192ZM140.073 196.624C139.721 196.624 139.401 196.688 139.113 196.816C138.825 196.933 138.575 197.104 138.361 197.328C138.159 197.552 137.999 197.819 137.881 198.128C137.764 198.427 137.705 198.757 137.705 199.12V199.232H142.265V199.056C142.265 198.32 142.063 197.733 141.657 197.296C141.263 196.848 140.735 196.624 140.073 196.624ZM147.45 204L144.554 195.744H145.834L147.274 199.84L148.17 202.656H148.25L149.146 199.84L150.618 195.744H151.85L148.938 204H147.45ZM159.36 204C158.88 204 158.533 203.872 158.32 203.616C158.117 203.36 157.989 203.04 157.936 202.656H157.856C157.675 203.168 157.376 203.552 156.96 203.808C156.544 204.064 156.048 204.192 155.472 204.192C154.597 204.192 153.915 203.968 153.424 203.52C152.944 203.072 152.704 202.464 152.704 201.696C152.704 200.917 152.987 200.32 153.552 199.904C154.128 199.488 155.019 199.28 156.224 199.28H157.856V198.464C157.856 197.877 157.696 197.429 157.376 197.12C157.056 196.811 156.565 196.656 155.904 196.656C155.403 196.656 154.981 196.768 154.64 196.992C154.309 197.216 154.032 197.515 153.808 197.888L153.04 197.168C153.264 196.72 153.621 196.341 154.112 196.032C154.603 195.712 155.221 195.552 155.968 195.552C156.971 195.552 157.749 195.797 158.304 196.288C158.859 196.779 159.136 197.461 159.136 198.336V202.88H160.08V204H159.36ZM155.68 203.104C156 203.104 156.293 203.067 156.56 202.992C156.827 202.917 157.056 202.811 157.248 202.672C157.44 202.533 157.589 202.373 157.696 202.192C157.803 202.011 157.856 201.813 157.856 201.6V200.24H156.16C155.424 200.24 154.885 200.347 154.544 200.56C154.213 200.773 154.048 201.083 154.048 201.488V201.824C154.048 202.229 154.192 202.544 154.48 202.768C154.779 202.992 155.179 203.104 155.68 203.104ZM161.907 204V195.744H163.187V197.264H163.267C163.416 196.869 163.683 196.517 164.067 196.208C164.451 195.899 164.979 195.744 165.651 195.744H166.147V197.024H165.395C164.702 197.024 164.158 197.157 163.763 197.424C163.379 197.68 163.187 198.005 163.187 198.4V204H161.907ZM170.808 204.192C170.242 204.192 169.73 204.091 169.272 203.888C168.824 203.685 168.434 203.397 168.104 203.024C167.784 202.64 167.533 202.187 167.352 201.664C167.181 201.131 167.096 200.533 167.096 199.872C167.096 199.221 167.181 198.629 167.352 198.096C167.533 197.563 167.784 197.109 168.104 196.736C168.434 196.352 168.824 196.059 169.272 195.856C169.73 195.653 170.242 195.552 170.808 195.552C171.362 195.552 171.858 195.653 172.296 195.856C172.733 196.059 173.106 196.341 173.416 196.704C173.725 197.056 173.96 197.477 174.12 197.968C174.29 198.459 174.376 198.997 174.376 199.584V200.192H168.44V200.576C168.44 200.928 168.493 201.259 168.6 201.568C168.717 201.867 168.877 202.128 169.08 202.352C169.293 202.576 169.549 202.752 169.848 202.88C170.157 203.008 170.504 203.072 170.888 203.072C171.41 203.072 171.864 202.949 172.248 202.704C172.642 202.459 172.946 202.107 173.16 201.648L174.072 202.304C173.805 202.869 173.389 203.328 172.824 203.68C172.258 204.021 171.586 204.192 170.808 204.192ZM170.808 196.624C170.456 196.624 170.136 196.688 169.848 196.816C169.56 196.933 169.309 197.104 169.096 197.328C168.893 197.552 168.733 197.819 168.616 198.128C168.498 198.427 168.44 198.757 168.44 199.12V199.232H173V199.056C173 198.32 172.797 197.733 172.392 197.296C171.997 196.848 171.469 196.624 170.808 196.624ZM176.485 204V195.744H177.765V197.264H177.845C177.994 196.869 178.261 196.517 178.645 196.208C179.029 195.899 179.557 195.744 180.229 195.744H180.725V197.024H179.973C179.28 197.024 178.736 197.157 178.341 197.424C177.957 197.68 177.765 198.005 177.765 198.4V204H176.485Z" fill="#1A1A1A"/>
<path d="M48 217H18C17.4696 217 16.9609 216.789 16.5858 216.414C16.2107 216.039 16 215.53 16 215V185C16 184.47 16.2107 183.961 16.5858 183.586C16.9609 183.211 17.4696 183 18 183H48C48.5304 183 49.0391 183.211 49.4142 183.586C49.7893 183.961 50 184.47 50 185V215C50 215.53 49.7893 216.039 49.4142 216.414C49.0391 216.789 48.5304 217 48 217ZM23 197.26L20.331 199.932L29.924 209.525L45.669 193.78L43 191.109L29.924 204.182L23 197.26Z" fill="#1A1A1A"/>
<path d="M66.48 248L65.36 244.704H60.848L59.728 248H58.368L62.272 236.832H63.984L67.888 248H66.48ZM63.136 238.08H63.056L61.168 243.52H65.024L63.136 238.08ZM69.61 248V239.744H70.89V241.088H70.954C71.1567 240.619 71.4393 240.245 71.802 239.968C72.1753 239.691 72.6713 239.552 73.29 239.552C74.1433 239.552 74.8153 239.829 75.306 240.384C75.8073 240.928 76.058 241.701 76.058 242.704V248H74.778V242.928C74.778 241.445 74.154 240.704 72.906 240.704C72.65 240.704 72.3993 240.736 72.154 240.8C71.9193 240.864 71.706 240.96 71.514 241.088C71.322 241.216 71.1673 241.381 71.05 241.584C70.9433 241.776 70.89 242.005 70.89 242.272V248H69.61ZM83.9838 246.656H83.9198C83.4184 247.68 82.6131 248.192 81.5038 248.192C80.9918 248.192 80.5278 248.091 80.1118 247.888C79.6958 247.685 79.3384 247.397 79.0398 247.024C78.7518 246.651 78.5278 246.197 78.3678 245.664C78.2184 245.131 78.1438 244.533 78.1438 243.872C78.1438 243.211 78.2184 242.613 78.3678 242.08C78.5278 241.547 78.7518 241.093 79.0398 240.72C79.3384 240.347 79.6958 240.059 80.1118 239.856C80.5278 239.653 80.9918 239.552 81.5038 239.552C82.0798 239.552 82.5704 239.68 82.9758 239.936C83.3918 240.181 83.7064 240.565 83.9198 241.088H83.9838V236.16H85.2638V248H83.9838V246.656ZM81.8558 247.04C82.1438 247.04 82.4158 247.003 82.6718 246.928C82.9384 246.853 83.1678 246.747 83.3598 246.608C83.5518 246.459 83.7011 246.283 83.8078 246.08C83.9251 245.867 83.9838 245.627 83.9838 245.36V242.288C83.9838 242.064 83.9251 241.856 83.8078 241.664C83.7011 241.461 83.5518 241.291 83.3598 241.152C83.1678 241.013 82.9384 240.907 82.6718 240.832C82.4158 240.747 82.1438 240.704 81.8558 240.704C81.1304 240.704 80.5598 240.933 80.1438 241.392C79.7278 241.84 79.5198 242.432 79.5198 243.168V244.576C79.5198 245.312 79.7278 245.909 80.1438 246.368C80.5598 246.816 81.1304 247.04 81.8558 247.04ZM91.089 248.192C90.5237 248.192 90.0117 248.091 89.553 247.888C89.105 247.685 88.7157 247.397 88.385 247.024C88.065 246.64 87.8143 246.187 87.633 245.664C87.4623 245.131 87.377 244.533 87.377 243.872C87.377 243.221 87.4623 242.629 87.633 242.096C87.8143 241.563 88.065 241.109 88.385 240.736C88.7157 240.352 89.105 240.059 89.553 239.856C90.0117 239.653 90.5237 239.552 91.089 239.552C91.6437 239.552 92.1397 239.653 92.577 239.856C93.0143 240.059 93.3877 240.341 93.697 240.704C94.0063 241.056 94.241 241.477 94.401 241.968C94.5717 242.459 94.657 242.997 94.657 243.584V244.192H88.721V244.576C88.721 244.928 88.7743 245.259 88.881 245.568C88.9983 245.867 89.1583 246.128 89.361 246.352C89.5743 246.576 89.8303 246.752 90.129 246.88C90.4383 247.008 90.785 247.072 91.169 247.072C91.6917 247.072 92.145 246.949 92.529 246.704C92.9237 246.459 93.2277 246.107 93.441 245.648L94.353 246.304C94.0863 246.869 93.6703 247.328 93.105 247.68C92.5397 248.021 91.8677 248.192 91.089 248.192ZM91.089 240.624C90.737 240.624 90.417 240.688 90.129 240.816C89.841 240.933 89.5903 241.104 89.377 241.328C89.1743 241.552 89.0143 241.819 88.897 242.128C88.7797 242.427 88.721 242.757 88.721 243.12V243.232H93.281V243.056C93.281 242.32 93.0783 241.733 92.673 241.296C92.2783 240.848 91.7503 240.624 91.089 240.624ZM98.5903 248C98.1423 248 97.8009 247.877 97.5663 247.632C97.3423 247.376 97.2303 247.045 97.2303 246.64V240.864H95.8703V239.744H96.6383C96.9156 239.744 97.1023 239.691 97.1983 239.584C97.3049 239.467 97.3583 239.269 97.3583 238.992V237.456H98.5103V239.744H100.318V240.864H98.5103V246.88H100.19V248H98.5903ZM108.637 248.192C107.869 248.192 107.224 248.048 106.701 247.76C106.189 247.461 105.746 247.067 105.373 246.576L106.285 245.84C106.605 246.245 106.962 246.56 107.357 246.784C107.752 246.997 108.21 247.104 108.733 247.104C109.277 247.104 109.698 246.987 109.997 246.752C110.306 246.517 110.461 246.187 110.461 245.76C110.461 245.44 110.354 245.168 110.141 244.944C109.938 244.709 109.565 244.549 109.021 244.464L108.365 244.368C107.981 244.315 107.629 244.235 107.309 244.128C106.989 244.011 106.706 243.861 106.461 243.68C106.226 243.488 106.04 243.253 105.901 242.976C105.773 242.699 105.709 242.368 105.709 241.984C105.709 241.579 105.784 241.227 105.933 240.928C106.082 240.619 106.285 240.363 106.541 240.16C106.808 239.957 107.122 239.808 107.485 239.712C107.848 239.605 108.237 239.552 108.653 239.552C109.325 239.552 109.885 239.669 110.333 239.904C110.792 240.139 111.192 240.464 111.533 240.88L110.685 241.648C110.504 241.392 110.237 241.163 109.885 240.96C109.533 240.747 109.09 240.64 108.557 240.64C108.024 240.64 107.618 240.757 107.341 240.992C107.074 241.216 106.941 241.525 106.941 241.92C106.941 242.325 107.074 242.619 107.341 242.8C107.618 242.981 108.013 243.115 108.525 243.2L109.165 243.296C110.082 243.435 110.733 243.701 111.117 244.096C111.501 244.48 111.693 244.987 111.693 245.616C111.693 246.416 111.421 247.045 110.877 247.504C110.333 247.963 109.586 248.192 108.637 248.192ZM115.668 248C115.22 248 114.879 247.877 114.644 247.632C114.42 247.376 114.308 247.045 114.308 246.64V240.864H112.948V239.744H113.716C113.994 239.744 114.18 239.691 114.276 239.584C114.383 239.467 114.436 239.269 114.436 238.992V237.456H115.588V239.744H117.396V240.864H115.588V246.88H117.268V248H115.668ZM122.511 248.192C121.957 248.192 121.45 248.091 120.991 247.888C120.533 247.685 120.138 247.397 119.807 247.024C119.487 246.64 119.237 246.187 119.055 245.664C118.874 245.131 118.783 244.533 118.783 243.872C118.783 243.221 118.874 242.629 119.055 242.096C119.237 241.563 119.487 241.109 119.807 240.736C120.138 240.352 120.533 240.059 120.991 239.856C121.45 239.653 121.957 239.552 122.511 239.552C123.066 239.552 123.567 239.653 124.015 239.856C124.474 240.059 124.869 240.352 125.199 240.736C125.53 241.109 125.786 241.563 125.967 242.096C126.149 242.629 126.239 243.221 126.239 243.872C126.239 244.533 126.149 245.131 125.967 245.664C125.786 246.187 125.53 246.64 125.199 247.024C124.869 247.397 124.474 247.685 124.015 247.888C123.567 248.091 123.066 248.192 122.511 248.192ZM122.511 247.056C123.205 247.056 123.77 246.843 124.207 246.416C124.645 245.989 124.863 245.339 124.863 244.464V243.28C124.863 242.405 124.645 241.755 124.207 241.328C123.77 240.901 123.205 240.688 122.511 240.688C121.818 240.688 121.253 240.901 120.815 241.328C120.378 241.755 120.159 242.405 120.159 243.28V244.464C120.159 245.339 120.378 245.989 120.815 246.416C121.253 246.843 121.818 247.056 122.511 247.056ZM128.344 248V239.744H129.624V241.264H129.704C129.854 240.869 130.12 240.517 130.504 240.208C130.888 239.899 131.416 239.744 132.088 239.744H132.584V241.024H131.832C131.139 241.024 130.595 241.157 130.2 241.424C129.816 241.68 129.624 242.005 129.624 242.4V248H128.344ZM136.699 248.192C135.931 248.192 135.286 248.048 134.763 247.76C134.251 247.461 133.809 247.067 133.435 246.576L134.347 245.84C134.667 246.245 135.025 246.56 135.419 246.784C135.814 246.997 136.273 247.104 136.795 247.104C137.339 247.104 137.761 246.987 138.059 246.752C138.369 246.517 138.523 246.187 138.523 245.76C138.523 245.44 138.417 245.168 138.203 244.944C138.001 244.709 137.627 244.549 137.083 244.464L136.427 244.368C136.043 244.315 135.691 244.235 135.371 244.128C135.051 244.011 134.769 243.861 134.523 243.68C134.289 243.488 134.102 243.253 133.963 242.976C133.835 242.699 133.771 242.368 133.771 241.984C133.771 241.579 133.846 241.227 133.995 240.928C134.145 240.619 134.347 240.363 134.603 240.16C134.87 239.957 135.185 239.808 135.547 239.712C135.91 239.605 136.299 239.552 136.715 239.552C137.387 239.552 137.947 239.669 138.395 239.904C138.854 240.139 139.254 240.464 139.595 240.88L138.747 241.648C138.566 241.392 138.299 241.163 137.947 240.96C137.595 240.747 137.153 240.64 136.619 240.64C136.086 240.64 135.681 240.757 135.403 240.992C135.137 241.216 135.003 241.525 135.003 241.92C135.003 242.325 135.137 242.619 135.403 242.8C135.681 242.981 136.075 243.115 136.587 243.2L137.227 243.296C138.145 243.435 138.795 243.701 139.179 244.096C139.563 244.48 139.755 244.987 139.755 245.616C139.755 246.416 139.483 247.045 138.939 247.504C138.395 247.963 137.649 248.192 136.699 248.192ZM142.016 236.16H143.296V243.664H143.36L144.624 242.256L146.96 239.744H148.512L145.456 243.008L148.816 248H147.264L144.528 243.792L143.296 245.056V248H142.016V236.16ZM150.454 248V239.744H151.734V241.264H151.814C151.963 240.869 152.23 240.517 152.614 240.208C152.998 239.899 153.526 239.744 154.198 239.744H154.694V241.024H153.942C153.248 241.024 152.704 241.157 152.31 241.424C151.926 241.68 151.734 242.005 151.734 242.4V248H150.454ZM162.266 248C161.786 248 161.44 247.872 161.226 247.616C161.024 247.36 160.896 247.04 160.842 246.656H160.762C160.581 247.168 160.282 247.552 159.866 247.808C159.45 248.064 158.954 248.192 158.378 248.192C157.504 248.192 156.821 247.968 156.33 247.52C155.85 247.072 155.61 246.464 155.61 245.696C155.61 244.917 155.893 244.32 156.458 243.904C157.034 243.488 157.925 243.28 159.13 243.28H160.762V242.464C160.762 241.877 160.602 241.429 160.282 241.12C159.962 240.811 159.472 240.656 158.81 240.656C158.309 240.656 157.888 240.768 157.546 240.992C157.216 241.216 156.938 241.515 156.714 241.888L155.946 241.168C156.17 240.72 156.528 240.341 157.018 240.032C157.509 239.712 158.128 239.552 158.874 239.552C159.877 239.552 160.656 239.797 161.21 240.288C161.765 240.779 162.042 241.461 162.042 242.336V246.88H162.986V248H162.266ZM158.586 247.104C158.906 247.104 159.2 247.067 159.466 246.992C159.733 246.917 159.962 246.811 160.154 246.672C160.346 246.533 160.496 246.373 160.602 246.192C160.709 246.011 160.762 245.813 160.762 245.6V244.24H159.066C158.33 244.24 157.792 244.347 157.45 244.56C157.12 244.773 156.954 245.083 156.954 245.488V245.824C156.954 246.229 157.098 246.544 157.386 246.768C157.685 246.992 158.085 247.104 158.586 247.104ZM166.173 248C165.725 248 165.384 247.877 165.149 247.632C164.925 247.376 164.813 247.056 164.813 246.672V236.16H166.093V246.88H167.309V248H166.173ZM174.453 246.656H174.389C173.887 247.68 173.082 248.192 171.973 248.192C171.461 248.192 170.997 248.091 170.581 247.888C170.165 247.685 169.807 247.397 169.509 247.024C169.221 246.651 168.997 246.197 168.837 245.664C168.687 245.131 168.613 244.533 168.613 243.872C168.613 243.211 168.687 242.613 168.837 242.08C168.997 241.547 169.221 241.093 169.509 240.72C169.807 240.347 170.165 240.059 170.581 239.856C170.997 239.653 171.461 239.552 171.973 239.552C172.549 239.552 173.039 239.68 173.445 239.936C173.861 240.181 174.175 240.565 174.389 241.088H174.453V236.16H175.733V248H174.453V246.656ZM172.325 247.04C172.613 247.04 172.885 247.003 173.141 246.928C173.407 246.853 173.637 246.747 173.829 246.608C174.021 246.459 174.17 246.283 174.277 246.08C174.394 245.867 174.453 245.627 174.453 245.36V242.288C174.453 242.064 174.394 241.856 174.277 241.664C174.17 241.461 174.021 241.291 173.829 241.152C173.637 241.013 173.407 240.907 173.141 240.832C172.885 240.747 172.613 240.704 172.325 240.704C171.599 240.704 171.029 240.933 170.613 241.392C170.197 241.84 169.989 242.432 169.989 243.168V244.576C169.989 245.312 170.197 245.909 170.613 246.368C171.029 246.816 171.599 247.04 172.325 247.04Z" fill="#1A1A1A"/>
<rect x="17" y="228" width="32" height="32" rx="1" fill="white" stroke="#1A1A1A" stroke-width="2"/>
</g>
<defs>
<clipPath id="clip0_5010_49447">
<rect width="418" height="280" fill="white"/>
</clipPath>
</defs>
</svg>
