<svg width="418" height="217" viewBox="0 0 418 217" fill="none" xmlns="http://www.w3.org/2000/svg">
<rect width="418" height="217" fill="white"/>
<g filter="url(#filter0_d_10119_18949)">
<rect x="36" y="16" width="193" height="80" rx="4" fill="#454545"/>
<path d="M55.42 32.576H50.478V37H49.302V27.228H50.478V31.54H55.42V27.228H56.596V37H55.42V32.576ZM60.6844 37L58.1504 29.776H59.2704L60.5304 33.36L61.3144 35.824H61.3844L62.1684 33.36L63.4564 29.776H64.5344L61.9864 37H60.6844ZM66.5391 28.082C66.2964 28.082 66.1191 28.026 66.0071 27.914C65.9044 27.7927 65.8531 27.6387 65.8531 27.452V27.27C65.8531 27.0833 65.9044 26.934 66.0071 26.822C66.1191 26.7007 66.2964 26.64 66.5391 26.64C66.7817 26.64 66.9544 26.7007 67.0571 26.822C67.1691 26.934 67.2251 27.0833 67.2251 27.27V27.452C67.2251 27.6387 67.1691 27.7927 67.0571 27.914C66.9544 28.026 66.7817 28.082 66.5391 28.082ZM65.9791 29.776H67.0991V37H65.9791V29.776ZM71.6491 37.168C70.9771 37.168 70.4124 37.042 69.9551 36.79C69.5071 36.5287 69.1197 36.1833 68.7931 35.754L69.5911 35.11C69.8711 35.4647 70.1837 35.74 70.5291 35.936C70.8744 36.1227 71.2757 36.216 71.7331 36.216C72.2091 36.216 72.5777 36.1133 72.8391 35.908C73.1097 35.7027 73.2451 35.4133 73.2451 35.04C73.2451 34.76 73.1517 34.522 72.9651 34.326C72.7877 34.1207 72.4611 33.9807 71.9851 33.906L71.4111 33.822C71.0751 33.7753 70.7671 33.7053 70.4871 33.612C70.2071 33.5093 69.9597 33.3787 69.7451 33.22C69.5397 33.052 69.3764 32.8467 69.2551 32.604C69.1431 32.3613 69.0871 32.072 69.0871 31.736C69.0871 31.3813 69.1524 31.0733 69.2831 30.812C69.4137 30.5413 69.5911 30.3173 69.8151 30.14C70.0484 29.9627 70.3237 29.832 70.6411 29.748C70.9584 29.6547 71.2991 29.608 71.6631 29.608C72.2511 29.608 72.7411 29.7107 73.1331 29.916C73.5344 30.1213 73.8844 30.406 74.1831 30.77L73.4411 31.442C73.2824 31.218 73.0491 31.0173 72.7411 30.84C72.4331 30.6533 72.0457 30.56 71.5791 30.56C71.1124 30.56 70.7577 30.6627 70.5151 30.868C70.2817 31.064 70.1651 31.3347 70.1651 31.68C70.1651 32.0347 70.2817 32.2913 70.5151 32.45C70.7577 32.6087 71.1031 32.7253 71.5511 32.8L72.1111 32.884C72.9137 33.0053 73.4831 33.2387 73.8191 33.584C74.1551 33.92 74.3231 34.3633 74.3231 34.914C74.3231 35.614 74.0851 36.1647 73.6091 36.566C73.1331 36.9673 72.4797 37.168 71.6491 37.168ZM84.2299 35.824H84.1739C83.7353 36.72 83.0306 37.168 82.0599 37.168C81.6119 37.168 81.2059 37.0793 80.8419 36.902C80.4779 36.7247 80.1653 36.4727 79.9039 36.146C79.6519 35.8193 79.4559 35.4227 79.3159 34.956C79.1853 34.4893 79.1199 33.9667 79.1199 33.388C79.1199 32.8093 79.1853 32.2867 79.3159 31.82C79.4559 31.3533 79.6519 30.9567 79.9039 30.63C80.1653 30.3033 80.4779 30.0513 80.8419 29.874C81.2059 29.6967 81.6119 29.608 82.0599 29.608C82.5639 29.608 82.9933 29.72 83.3479 29.944C83.7119 30.1587 83.9873 30.4947 84.1739 30.952H84.2299V26.64H85.3499V37H84.2299V35.824ZM82.3679 36.16C82.6199 36.16 82.8579 36.1273 83.0819 36.062C83.3153 35.9967 83.5159 35.9033 83.6839 35.782C83.8519 35.6513 83.9826 35.4973 84.0759 35.32C84.1786 35.1333 84.2299 34.9233 84.2299 34.69V32.002C84.2299 31.806 84.1786 31.624 84.0759 31.456C83.9826 31.2787 83.8519 31.1293 83.6839 31.008C83.5159 30.8867 83.3153 30.7933 83.0819 30.728C82.8579 30.6533 82.6199 30.616 82.3679 30.616C81.7333 30.616 81.2339 30.8167 80.8699 31.218C80.5059 31.61 80.3239 32.128 80.3239 32.772V34.004C80.3239 34.648 80.5059 35.1707 80.8699 35.572C81.2339 35.964 81.7333 36.16 82.3679 36.16ZM92.183 35.824H92.127C92.0523 35.992 91.959 36.16 91.847 36.328C91.7443 36.4867 91.6137 36.6313 91.455 36.762C91.2963 36.8833 91.105 36.9813 90.881 37.056C90.657 37.1307 90.3957 37.168 90.097 37.168C89.3503 37.168 88.7577 36.93 88.319 36.454C87.8803 35.9687 87.661 35.2873 87.661 34.41V29.776H88.781V34.214C88.781 35.5113 89.3317 36.16 90.433 36.16C90.657 36.16 90.8717 36.132 91.077 36.076C91.2917 36.02 91.4783 35.936 91.637 35.824C91.805 35.712 91.9357 35.572 92.029 35.404C92.1317 35.2267 92.183 35.0167 92.183 34.774V29.776H93.303V37H92.183V35.824ZM99.5566 28.082C99.314 28.082 99.1366 28.026 99.0246 27.914C98.922 27.7927 98.8706 27.6387 98.8706 27.452V27.27C98.8706 27.0833 98.922 26.934 99.0246 26.822C99.1366 26.7007 99.314 26.64 99.5566 26.64C99.7993 26.64 99.972 26.7007 100.075 26.822C100.187 26.934 100.243 27.0833 100.243 27.27V27.452C100.243 27.6387 100.187 27.7927 100.075 27.914C99.972 28.026 99.7993 28.082 99.5566 28.082ZM98.9966 29.776H100.117V37H98.9966V29.776ZM102.497 26.64H103.617V33.206H103.673L104.779 31.974L106.823 29.776H108.181L105.507 32.632L108.447 37H107.089L104.695 33.318L103.617 34.424V37H102.497V26.64ZM109.879 26.64H110.999V33.206H111.055L112.161 31.974L114.205 29.776H115.563L112.889 32.632L115.829 37H114.471L112.077 33.318L110.999 34.424V37H109.879V26.64ZM119.746 37.168C119.251 37.168 118.803 37.0793 118.402 36.902C118.01 36.7247 117.669 36.4727 117.38 36.146C117.1 35.81 116.881 35.4133 116.722 34.956C116.573 34.4893 116.498 33.9667 116.498 33.388C116.498 32.8187 116.573 32.3007 116.722 31.834C116.881 31.3673 117.1 30.9707 117.38 30.644C117.669 30.308 118.01 30.0513 118.402 29.874C118.803 29.6967 119.251 29.608 119.746 29.608C120.231 29.608 120.665 29.6967 121.048 29.874C121.431 30.0513 121.757 30.2987 122.028 30.616C122.299 30.924 122.504 31.2927 122.644 31.722C122.793 32.1513 122.868 32.6227 122.868 33.136V33.668H117.674V34.004C117.674 34.312 117.721 34.6013 117.814 34.872C117.917 35.1333 118.057 35.362 118.234 35.558C118.421 35.754 118.645 35.908 118.906 36.02C119.177 36.132 119.48 36.188 119.816 36.188C120.273 36.188 120.67 36.0807 121.006 35.866C121.351 35.6513 121.617 35.3433 121.804 34.942L122.602 35.516C122.369 36.0107 122.005 36.412 121.51 36.72C121.015 37.0187 120.427 37.168 119.746 37.168ZM119.746 30.546C119.438 30.546 119.158 30.602 118.906 30.714C118.654 30.8167 118.435 30.966 118.248 31.162C118.071 31.358 117.931 31.5913 117.828 31.862C117.725 32.1233 117.674 32.4127 117.674 32.73V32.828H121.664V32.674C121.664 32.03 121.487 31.5167 121.132 31.134C120.787 30.742 120.325 30.546 119.746 30.546ZM128.022 26.64H129.142V33.206H129.198L130.304 31.974L132.348 29.776H133.706L131.032 32.632L133.972 37H132.614L130.22 33.318L129.142 34.424V37H128.022V26.64ZM137.888 37.168C137.394 37.168 136.946 37.0793 136.544 36.902C136.152 36.7247 135.812 36.4727 135.522 36.146C135.242 35.81 135.023 35.4133 134.864 34.956C134.715 34.4893 134.64 33.9667 134.64 33.388C134.64 32.8187 134.715 32.3007 134.864 31.834C135.023 31.3673 135.242 30.9707 135.522 30.644C135.812 30.308 136.152 30.0513 136.544 29.874C136.946 29.6967 137.394 29.608 137.888 29.608C138.374 29.608 138.808 29.6967 139.19 29.874C139.573 30.0513 139.9 30.2987 140.17 30.616C140.441 30.924 140.646 31.2927 140.786 31.722C140.936 32.1513 141.01 32.6227 141.01 33.136V33.668H135.816V34.004C135.816 34.312 135.863 34.6013 135.956 34.872C136.059 35.1333 136.199 35.362 136.376 35.558C136.563 35.754 136.787 35.908 137.048 36.02C137.319 36.132 137.622 36.188 137.958 36.188C138.416 36.188 138.812 36.0807 139.148 35.866C139.494 35.6513 139.76 35.3433 139.946 34.942L140.744 35.516C140.511 36.0107 140.147 36.412 139.652 36.72C139.158 37.0187 138.57 37.168 137.888 37.168ZM137.888 30.546C137.58 30.546 137.3 30.602 137.048 30.714C136.796 30.8167 136.577 30.966 136.39 31.162C136.213 31.358 136.073 31.5913 135.97 31.862C135.868 32.1233 135.816 32.4127 135.816 32.73V32.828H139.806V32.674C139.806 32.03 139.629 31.5167 139.274 31.134C138.929 30.742 138.467 30.546 137.888 30.546ZM142.856 37V29.776H143.976V30.952H144.032C144.209 30.5413 144.457 30.2147 144.774 29.972C145.101 29.7293 145.535 29.608 146.076 29.608C146.823 29.608 147.411 29.8507 147.84 30.336C148.279 30.812 148.498 31.4887 148.498 32.366V37H147.378V32.562C147.378 31.2647 146.832 30.616 145.74 30.616C145.516 30.616 145.297 30.644 145.082 30.7C144.877 30.756 144.69 30.84 144.522 30.952C144.354 31.064 144.219 31.2087 144.116 31.386C144.023 31.554 143.976 31.7547 143.976 31.988V37H142.856ZM155.433 35.824H155.377C154.938 36.72 154.234 37.168 153.263 37.168C152.815 37.168 152.409 37.0793 152.045 36.902C151.681 36.7247 151.368 36.4727 151.107 36.146C150.855 35.8193 150.659 35.4227 150.519 34.956C150.388 34.4893 150.323 33.9667 150.323 33.388C150.323 32.8093 150.388 32.2867 150.519 31.82C150.659 31.3533 150.855 30.9567 151.107 30.63C151.368 30.3033 151.681 30.0513 152.045 29.874C152.409 29.6967 152.815 29.608 153.263 29.608C153.767 29.608 154.196 29.72 154.551 29.944C154.915 30.1587 155.19 30.4947 155.377 30.952H155.433V26.64H156.553V37H155.433V35.824ZM153.571 36.16C153.823 36.16 154.061 36.1273 154.285 36.062C154.518 35.9967 154.719 35.9033 154.887 35.782C155.055 35.6513 155.186 35.4973 155.279 35.32C155.382 35.1333 155.433 34.9233 155.433 34.69V32.002C155.433 31.806 155.382 31.624 155.279 31.456C155.186 31.2787 155.055 31.1293 154.887 31.008C154.719 30.8867 154.518 30.7933 154.285 30.728C154.061 30.6533 153.823 30.616 153.571 30.616C152.936 30.616 152.437 30.8167 152.073 31.218C151.709 31.61 151.527 32.128 151.527 32.772V34.004C151.527 34.648 151.709 35.1707 152.073 35.572C152.437 35.964 152.936 36.16 153.571 36.16ZM161.65 37.168C161.155 37.168 160.707 37.0793 160.306 36.902C159.914 36.7247 159.573 36.4727 159.284 36.146C159.004 35.81 158.785 35.4133 158.626 34.956C158.477 34.4893 158.402 33.9667 158.402 33.388C158.402 32.8187 158.477 32.3007 158.626 31.834C158.785 31.3673 159.004 30.9707 159.284 30.644C159.573 30.308 159.914 30.0513 160.306 29.874C160.707 29.6967 161.155 29.608 161.65 29.608C162.135 29.608 162.569 29.6967 162.952 29.874C163.335 30.0513 163.661 30.2987 163.932 30.616C164.203 30.924 164.408 31.2927 164.548 31.722C164.697 32.1513 164.772 32.6227 164.772 33.136V33.668H159.578V34.004C159.578 34.312 159.625 34.6013 159.718 34.872C159.821 35.1333 159.961 35.362 160.138 35.558C160.325 35.754 160.549 35.908 160.81 36.02C161.081 36.132 161.384 36.188 161.72 36.188C162.177 36.188 162.574 36.0807 162.91 35.866C163.255 35.6513 163.521 35.3433 163.708 34.942L164.506 35.516C164.273 36.0107 163.909 36.412 163.414 36.72C162.919 37.0187 162.331 37.168 161.65 37.168ZM161.65 30.546C161.342 30.546 161.062 30.602 160.81 30.714C160.558 30.8167 160.339 30.966 160.152 31.162C159.975 31.358 159.835 31.5913 159.732 31.862C159.629 32.1233 159.578 32.4127 159.578 32.73V32.828H163.568V32.674C163.568 32.03 163.391 31.5167 163.036 31.134C162.691 30.742 162.229 30.546 161.65 30.546ZM166.618 37V29.776H167.738V31.106H167.808C167.938 30.7607 168.172 30.4527 168.508 30.182C168.844 29.9113 169.306 29.776 169.894 29.776H170.328V30.896H169.67C169.063 30.896 168.587 31.0127 168.242 31.246C167.906 31.47 167.738 31.7547 167.738 32.1V37H166.618ZM179.687 35.824H179.631C179.192 36.72 178.488 37.168 177.517 37.168C177.069 37.168 176.663 37.0793 176.299 36.902C175.935 36.7247 175.622 36.4727 175.361 36.146C175.109 35.8193 174.913 35.4227 174.773 34.956C174.642 34.4893 174.577 33.9667 174.577 33.388C174.577 32.8093 174.642 32.2867 174.773 31.82C174.913 31.3533 175.109 30.9567 175.361 30.63C175.622 30.3033 175.935 30.0513 176.299 29.874C176.663 29.6967 177.069 29.608 177.517 29.608C178.021 29.608 178.45 29.72 178.805 29.944C179.169 30.1587 179.444 30.4947 179.631 30.952H179.687V26.64H180.807V37H179.687V35.824ZM177.825 36.16C178.077 36.16 178.315 36.1273 178.539 36.062C178.772 35.9967 178.973 35.9033 179.141 35.782C179.309 35.6513 179.44 35.4973 179.533 35.32C179.636 35.1333 179.687 34.9233 179.687 34.69V32.002C179.687 31.806 179.636 31.624 179.533 31.456C179.44 31.2787 179.309 31.1293 179.141 31.008C178.973 30.8867 178.772 30.7933 178.539 30.728C178.315 30.6533 178.077 30.616 177.825 30.616C177.19 30.616 176.691 30.8167 176.327 31.218C175.963 31.61 175.781 32.128 175.781 32.772V34.004C175.781 34.648 175.963 35.1707 176.327 35.572C176.691 35.964 177.19 36.16 177.825 36.16ZM183.748 28.082C183.505 28.082 183.328 28.026 183.216 27.914C183.113 27.7927 183.062 27.6387 183.062 27.452V27.27C183.062 27.0833 183.113 26.934 183.216 26.822C183.328 26.7007 183.505 26.64 183.748 26.64C183.991 26.64 184.163 26.7007 184.266 26.822C184.378 26.934 184.434 27.0833 184.434 27.27V27.452C184.434 27.6387 184.378 27.7927 184.266 27.914C184.163 28.026 183.991 28.082 183.748 28.082ZM183.188 29.776H184.308V37H183.188V29.776ZM188.284 37C187.892 37 187.593 36.8927 187.388 36.678C187.192 36.454 187.094 36.1647 187.094 35.81V30.756H185.904V29.776H186.576C186.819 29.776 186.982 29.7293 187.066 29.636C187.159 29.5333 187.206 29.3607 187.206 29.118V27.774H188.214V29.776H189.796V30.756H188.214V36.02H189.684V37H188.284ZM51.36 61.168C50.688 61.168 50.1233 61.042 49.666 60.79C49.218 60.5287 48.8307 60.1833 48.504 59.754L49.302 59.11C49.582 59.4647 49.8947 59.74 50.24 59.936C50.5853 60.1227 50.9867 60.216 51.444 60.216C51.92 60.216 52.2887 60.1133 52.55 59.908C52.8207 59.7027 52.956 59.4133 52.956 59.04C52.956 58.76 52.8627 58.522 52.676 58.326C52.4987 58.1207 52.172 57.9807 51.696 57.906L51.122 57.822C50.786 57.7753 50.478 57.7053 50.198 57.612C49.918 57.5093 49.6707 57.3787 49.456 57.22C49.2507 57.052 49.0873 56.8467 48.966 56.604C48.854 56.3613 48.798 56.072 48.798 55.736C48.798 55.3813 48.8633 55.0733 48.994 54.812C49.1247 54.5413 49.302 54.3173 49.526 54.14C49.7593 53.9627 50.0347 53.832 50.352 53.748C50.6693 53.6547 51.01 53.608 51.374 53.608C51.962 53.608 52.452 53.7107 52.844 53.916C53.2453 54.1213 53.5953 54.406 53.894 54.77L53.152 55.442C52.9933 55.218 52.76 55.0173 52.452 54.84C52.144 54.6533 51.7567 54.56 51.29 54.56C50.8233 54.56 50.4687 54.6627 50.226 54.868C49.9927 55.064 49.876 55.3347 49.876 55.68C49.876 56.0347 49.9927 56.2913 50.226 56.45C50.4687 56.6087 50.814 56.7253 51.262 56.8L51.822 56.884C52.6247 57.0053 53.194 57.2387 53.53 57.584C53.866 57.92 54.034 58.3633 54.034 58.914C54.034 59.614 53.796 60.1647 53.32 60.566C52.844 60.9673 52.1907 61.168 51.36 61.168ZM61.2623 61C60.8423 61 60.5389 60.888 60.3523 60.664C60.1749 60.44 60.0629 60.16 60.0163 59.824H59.9463C59.7876 60.272 59.5263 60.608 59.1623 60.832C58.7983 61.056 58.3643 61.168 57.8603 61.168C57.0949 61.168 56.4976 60.972 56.0683 60.58C55.6483 60.188 55.4383 59.656 55.4383 58.984C55.4383 58.3027 55.6856 57.78 56.1803 57.416C56.6843 57.052 57.4636 56.87 58.5183 56.87H59.9463V56.156C59.9463 55.6427 59.8063 55.2507 59.5263 54.98C59.2463 54.7093 58.8169 54.574 58.2383 54.574C57.7996 54.574 57.4309 54.672 57.1323 54.868C56.8429 55.064 56.6003 55.3253 56.4043 55.652L55.7323 55.022C55.9283 54.63 56.2409 54.2987 56.6703 54.028C57.0996 53.748 57.6409 53.608 58.2943 53.608C59.1716 53.608 59.8529 53.8227 60.3383 54.252C60.8236 54.6813 61.0663 55.2787 61.0663 56.044V60.02H61.8923V61H61.2623ZM58.0423 60.216C58.3223 60.216 58.5789 60.1833 58.8123 60.118C59.0456 60.0527 59.2463 59.9593 59.4143 59.838C59.5823 59.7167 59.7129 59.5767 59.8063 59.418C59.8996 59.2593 59.9463 59.0867 59.9463 58.9V57.71H58.4623C57.8183 57.71 57.3469 57.8033 57.0483 57.99C56.7589 58.1767 56.6143 58.4473 56.6143 58.802V59.096C56.6143 59.4507 56.7403 59.726 56.9923 59.922C57.2536 60.118 57.6036 60.216 58.0423 60.216ZM69.5808 61.798C69.5808 62.5447 69.2868 63.0907 68.6988 63.436C68.1201 63.7907 67.2474 63.968 66.0808 63.968C64.9514 63.968 64.1394 63.814 63.6448 63.506C63.1501 63.198 62.9028 62.7593 62.9028 62.19C62.9028 61.798 63.0054 61.49 63.2108 61.266C63.4161 61.0513 63.6961 60.8927 64.0508 60.79V60.636C63.6214 60.4307 63.4068 60.0947 63.4068 59.628C63.4068 59.264 63.5234 58.9887 63.7568 58.802C63.9901 58.606 64.2888 58.4613 64.6528 58.368V58.312C64.2234 58.1067 63.8874 57.8127 63.6448 57.43C63.4114 57.0473 63.2948 56.604 63.2948 56.1C63.2948 55.736 63.3601 55.4 63.4908 55.092C63.6214 54.784 63.8034 54.5227 64.0368 54.308C64.2794 54.084 64.5641 53.9113 64.8908 53.79C65.2268 53.6687 65.6001 53.608 66.0108 53.608C66.5241 53.608 66.9814 53.7013 67.3828 53.888V53.762C67.3828 53.482 67.4481 53.2533 67.5788 53.076C67.7094 52.8893 67.9241 52.796 68.2228 52.796H69.3008V53.776H67.9288V54.238C68.1901 54.462 68.3908 54.7327 68.5308 55.05C68.6801 55.358 68.7548 55.708 68.7548 56.1C68.7548 56.464 68.6894 56.8 68.5588 57.108C68.4281 57.416 68.2414 57.682 67.9988 57.906C67.7654 58.1207 67.4808 58.2887 67.1448 58.41C66.8088 58.5313 66.4354 58.592 66.0248 58.592C65.7914 58.592 65.5581 58.5687 65.3248 58.522C65.0821 58.5873 64.8628 58.6853 64.6668 58.816C64.4708 58.9373 64.3728 59.11 64.3728 59.334C64.3728 59.5487 64.4754 59.6933 64.6808 59.768C64.8861 59.8427 65.1521 59.88 65.4788 59.88H67.0188C67.9148 59.88 68.5634 60.0527 68.9648 60.398C69.3754 60.734 69.5808 61.2007 69.5808 61.798ZM68.5308 61.882C68.5308 61.5927 68.4188 61.3593 68.1948 61.182C67.9801 61.014 67.5928 60.93 67.0328 60.93H64.6248C64.1768 61.1353 63.9528 61.462 63.9528 61.91C63.9528 62.2273 64.0694 62.498 64.3028 62.722C64.5454 62.946 64.9514 63.058 65.5208 63.058H66.5568C67.1821 63.058 67.6674 62.96 68.0128 62.764C68.3581 62.568 68.5308 62.274 68.5308 61.882ZM66.0248 57.696C66.5008 57.696 66.8788 57.584 67.1588 57.36C67.4388 57.1267 67.5788 56.772 67.5788 56.296V55.904C67.5788 55.428 67.4388 55.078 67.1588 54.854C66.8788 54.6207 66.5008 54.504 66.0248 54.504C65.5488 54.504 65.1708 54.6207 64.8908 54.854C64.6108 55.078 64.4708 55.428 64.4708 55.904V56.296C64.4708 56.772 64.6108 57.1267 64.8908 57.36C65.1708 57.584 65.5488 57.696 66.0248 57.696ZM73.0573 61.168C72.3853 61.168 71.8206 61.042 71.3633 60.79C70.9153 60.5287 70.5279 60.1833 70.2013 59.754L70.9993 59.11C71.2793 59.4647 71.5919 59.74 71.9373 59.936C72.2826 60.1227 72.6839 60.216 73.1413 60.216C73.6173 60.216 73.9859 60.1133 74.2473 59.908C74.5179 59.7027 74.6533 59.4133 74.6533 59.04C74.6533 58.76 74.5599 58.522 74.3733 58.326C74.1959 58.1207 73.8693 57.9807 73.3933 57.906L72.8193 57.822C72.4833 57.7753 72.1753 57.7053 71.8953 57.612C71.6153 57.5093 71.3679 57.3787 71.1533 57.22C70.9479 57.052 70.7846 56.8467 70.6633 56.604C70.5513 56.3613 70.4953 56.072 70.4953 55.736C70.4953 55.3813 70.5606 55.0733 70.6913 54.812C70.8219 54.5413 70.9993 54.3173 71.2233 54.14C71.4566 53.9627 71.7319 53.832 72.0493 53.748C72.3666 53.6547 72.7073 53.608 73.0713 53.608C73.6593 53.608 74.1493 53.7107 74.5413 53.916C74.9426 54.1213 75.2926 54.406 75.5913 54.77L74.8493 55.442C74.6906 55.218 74.4573 55.0173 74.1493 54.84C73.8413 54.6533 73.4539 54.56 72.9873 54.56C72.5206 54.56 72.1659 54.6627 71.9233 54.868C71.6899 55.064 71.5733 55.3347 71.5733 55.68C71.5733 56.0347 71.6899 56.2913 71.9233 56.45C72.1659 56.6087 72.5113 56.7253 72.9593 56.8L73.5193 56.884C74.3219 57.0053 74.8913 57.2387 75.2273 57.584C75.5633 57.92 75.7313 58.3633 75.7313 58.914C75.7313 59.614 75.4933 60.1647 75.0173 60.566C74.5413 60.9673 73.8879 61.168 73.0573 61.168ZM77.7095 61V53.776H78.8295V54.952H78.8855C79.0629 54.5413 79.3102 54.2147 79.6275 53.972C79.9542 53.7293 80.3882 53.608 80.9295 53.608C81.6762 53.608 82.2642 53.8507 82.6935 54.336C83.1322 54.812 83.3515 55.4887 83.3515 56.366V61H82.2315V56.562C82.2315 55.2647 81.6855 54.616 80.5935 54.616C80.3695 54.616 80.1502 54.644 79.9355 54.7C79.7302 54.756 79.5435 54.84 79.3755 54.952C79.2075 55.064 79.0722 55.2087 78.9695 55.386C78.8762 55.554 78.8295 55.7547 78.8295 55.988V61H77.7095ZM90.1186 59.824H90.0626C89.9879 59.992 89.8946 60.16 89.7826 60.328C89.6799 60.4867 89.5492 60.6313 89.3906 60.762C89.2319 60.8833 89.0406 60.9813 88.8166 61.056C88.5926 61.1307 88.3312 61.168 88.0326 61.168C87.2859 61.168 86.6932 60.93 86.2546 60.454C85.8159 59.9687 85.5966 59.2873 85.5966 58.41V53.776H86.7166V58.214C86.7166 59.5113 87.2672 60.16 88.3686 60.16C88.5926 60.16 88.8072 60.132 89.0126 60.076C89.2272 60.02 89.4139 59.936 89.5726 59.824C89.7406 59.712 89.8712 59.572 89.9646 59.404C90.0672 59.2267 90.1186 59.0167 90.1186 58.774V53.776H91.2386V61H90.1186V59.824ZM93.6236 61V53.776H94.7436V54.952H94.7996C94.8836 54.7653 94.9769 54.5927 95.0796 54.434C95.1916 54.266 95.3223 54.1213 95.4716 54C95.6303 53.8787 95.8123 53.7853 96.0176 53.72C96.2229 53.6453 96.4656 53.608 96.7456 53.608C97.2216 53.608 97.6603 53.7247 98.0616 53.958C98.4629 54.182 98.7616 54.5553 98.9576 55.078H98.9856C99.1163 54.686 99.3589 54.3453 99.7136 54.056C100.078 53.7573 100.568 53.608 101.184 53.608C101.921 53.608 102.495 53.8507 102.906 54.336C103.326 54.812 103.536 55.4887 103.536 56.366V61H102.416V56.562C102.416 55.918 102.29 55.4327 102.038 55.106C101.786 54.7793 101.384 54.616 100.834 54.616C100.61 54.616 100.395 54.644 100.19 54.7C99.9936 54.756 99.8163 54.84 99.6576 54.952C99.4989 55.064 99.3729 55.2087 99.2796 55.386C99.1863 55.554 99.1396 55.7547 99.1396 55.988V61H98.0196V56.562C98.0196 55.918 97.8936 55.4327 97.6416 55.106C97.3896 54.7793 96.9976 54.616 96.4656 54.616C96.2416 54.616 96.0269 54.644 95.8216 54.7C95.6163 54.756 95.4343 54.84 95.2756 54.952C95.1169 55.064 94.9863 55.2087 94.8836 55.386C94.7903 55.554 94.7436 55.7547 94.7436 55.988V61H93.6236ZM105.846 61V53.776H106.966V54.952H107.022C107.106 54.7653 107.2 54.5927 107.302 54.434C107.414 54.266 107.545 54.1213 107.694 54C107.853 53.8787 108.035 53.7853 108.24 53.72C108.446 53.6453 108.688 53.608 108.968 53.608C109.444 53.608 109.883 53.7247 110.284 53.958C110.686 54.182 110.984 54.5553 111.18 55.078H111.208C111.339 54.686 111.582 54.3453 111.936 54.056C112.3 53.7573 112.79 53.608 113.406 53.608C114.144 53.608 114.718 53.8507 115.128 54.336C115.548 54.812 115.758 55.4887 115.758 56.366V61H114.638V56.562C114.638 55.918 114.512 55.4327 114.26 55.106C114.008 54.7793 113.607 54.616 113.056 54.616C112.832 54.616 112.618 54.644 112.412 54.7C112.216 54.756 112.039 54.84 111.88 54.952C111.722 55.064 111.596 55.2087 111.502 55.386C111.409 55.554 111.362 55.7547 111.362 55.988V61H110.242V56.562C110.242 55.918 110.116 55.4327 109.864 55.106C109.612 54.7793 109.22 54.616 108.688 54.616C108.464 54.616 108.25 54.644 108.044 54.7C107.839 54.756 107.657 54.84 107.498 54.952C107.34 55.064 107.209 55.2087 107.106 55.386C107.013 55.554 106.966 55.7547 106.966 55.988V61H105.846ZM120.785 61.168C120.29 61.168 119.842 61.0793 119.441 60.902C119.049 60.7247 118.708 60.4727 118.419 60.146C118.139 59.81 117.92 59.4133 117.761 58.956C117.612 58.4893 117.537 57.9667 117.537 57.388C117.537 56.8187 117.612 56.3007 117.761 55.834C117.92 55.3673 118.139 54.9707 118.419 54.644C118.708 54.308 119.049 54.0513 119.441 53.874C119.842 53.6967 120.29 53.608 120.785 53.608C121.27 53.608 121.704 53.6967 122.087 53.874C122.47 54.0513 122.796 54.2987 123.067 54.616C123.338 54.924 123.543 55.2927 123.683 55.722C123.832 56.1513 123.907 56.6227 123.907 57.136V57.668H118.713V58.004C118.713 58.312 118.76 58.6013 118.853 58.872C118.956 59.1333 119.096 59.362 119.273 59.558C119.46 59.754 119.684 59.908 119.945 60.02C120.216 60.132 120.519 60.188 120.855 60.188C121.312 60.188 121.709 60.0807 122.045 59.866C122.39 59.6513 122.656 59.3433 122.843 58.942L123.641 59.516C123.408 60.0107 123.044 60.412 122.549 60.72C122.054 61.0187 121.466 61.168 120.785 61.168ZM120.785 54.546C120.477 54.546 120.197 54.602 119.945 54.714C119.693 54.8167 119.474 54.966 119.287 55.162C119.11 55.358 118.97 55.5913 118.867 55.862C118.764 56.1233 118.713 56.4127 118.713 56.73V56.828H122.703V56.674C122.703 56.03 122.526 55.5167 122.171 55.134C121.826 54.742 121.364 54.546 120.785 54.546ZM125.753 61V53.776H126.873V55.106H126.943C127.073 54.7607 127.307 54.4527 127.643 54.182C127.979 53.9113 128.441 53.776 129.029 53.776H129.463V54.896H128.805C128.198 54.896 127.722 55.0127 127.377 55.246C127.041 55.47 126.873 55.7547 126.873 56.1V61H125.753ZM130.486 59.362C130.785 59.362 130.999 59.4413 131.13 59.6C131.27 59.7493 131.34 59.9453 131.34 60.188V60.384C131.34 60.7667 131.228 61.1867 131.004 61.644C130.78 62.1107 130.467 62.5167 130.066 62.862H129.128C129.408 62.5633 129.632 62.2787 129.8 62.008C129.977 61.7467 130.103 61.4527 130.178 61.126C129.991 61.0793 129.851 60.9907 129.758 60.86C129.674 60.7293 129.632 60.5707 129.632 60.384V60.188C129.632 59.9453 129.697 59.7493 129.828 59.6C129.968 59.4413 130.187 59.362 130.486 59.362ZM136.895 50.64H138.015V57.206H138.071L139.177 55.974L141.221 53.776H142.579L139.905 56.632L142.845 61H141.487L139.093 57.318L138.015 58.424V61H136.895V50.64ZM149.46 61C149.04 61 148.736 60.888 148.55 60.664C148.372 60.44 148.26 60.16 148.214 59.824H148.144C147.985 60.272 147.724 60.608 147.36 60.832C146.996 61.056 146.562 61.168 146.058 61.168C145.292 61.168 144.695 60.972 144.266 60.58C143.846 60.188 143.636 59.656 143.636 58.984C143.636 58.3027 143.883 57.78 144.378 57.416C144.882 57.052 145.661 56.87 146.716 56.87H148.144V56.156C148.144 55.6427 148.004 55.2507 147.724 54.98C147.444 54.7093 147.014 54.574 146.436 54.574C145.997 54.574 145.628 54.672 145.33 54.868C145.04 55.064 144.798 55.3253 144.602 55.652L143.93 55.022C144.126 54.63 144.438 54.2987 144.868 54.028C145.297 53.748 145.838 53.608 146.492 53.608C147.369 53.608 148.05 53.8227 148.536 54.252C149.021 54.6813 149.264 55.2787 149.264 56.044V60.02H150.09V61H149.46ZM146.24 60.216C146.52 60.216 146.776 60.1833 147.01 60.118C147.243 60.0527 147.444 59.9593 147.612 59.838C147.78 59.7167 147.91 59.5767 148.004 59.418C148.097 59.2593 148.144 59.0867 148.144 58.9V57.71H146.66C146.016 57.71 145.544 57.8033 145.246 57.99C144.956 58.1767 144.812 58.4473 144.812 58.802V59.096C144.812 59.4507 144.938 59.726 145.19 59.922C145.451 60.118 145.801 60.216 146.24 60.216ZM151.688 61V53.776H152.808V54.952H152.864C153.041 54.5413 153.289 54.2147 153.606 53.972C153.933 53.7293 154.367 53.608 154.908 53.608C155.655 53.608 156.243 53.8507 156.672 54.336C157.111 54.812 157.33 55.4887 157.33 56.366V61H156.21V56.562C156.21 55.2647 155.664 54.616 154.572 54.616C154.348 54.616 154.129 54.644 153.914 54.7C153.709 54.756 153.522 54.84 153.354 54.952C153.186 55.064 153.051 55.2087 152.948 55.386C152.855 55.554 152.808 55.7547 152.808 55.988V61H151.688ZM167.574 59.824H167.518C167.079 60.72 166.374 61.168 165.404 61.168C164.956 61.168 164.55 61.0793 164.186 60.902C163.822 60.7247 163.509 60.4727 163.248 60.146C162.996 59.8193 162.8 59.4227 162.66 58.956C162.529 58.4893 162.464 57.9667 162.464 57.388C162.464 56.8093 162.529 56.2867 162.66 55.82C162.8 55.3533 162.996 54.9567 163.248 54.63C163.509 54.3033 163.822 54.0513 164.186 53.874C164.55 53.6967 164.956 53.608 165.404 53.608C165.908 53.608 166.337 53.72 166.692 53.944C167.056 54.1587 167.331 54.4947 167.518 54.952H167.574V50.64H168.694V61H167.574V59.824ZM165.712 60.16C165.964 60.16 166.202 60.1273 166.426 60.062C166.659 59.9967 166.86 59.9033 167.028 59.782C167.196 59.6513 167.326 59.4973 167.42 59.32C167.522 59.1333 167.574 58.9233 167.574 58.69V56.002C167.574 55.806 167.522 55.624 167.42 55.456C167.326 55.2787 167.196 55.1293 167.028 55.008C166.86 54.8867 166.659 54.7933 166.426 54.728C166.202 54.6533 165.964 54.616 165.712 54.616C165.077 54.616 164.578 54.8167 164.214 55.218C163.85 55.61 163.668 56.128 163.668 56.772V58.004C163.668 58.648 163.85 59.1707 164.214 59.572C164.578 59.964 165.077 60.16 165.712 60.16ZM175.527 59.824H175.471C175.396 59.992 175.303 60.16 175.191 60.328C175.088 60.4867 174.957 60.6313 174.799 60.762C174.64 60.8833 174.449 60.9813 174.225 61.056C174.001 61.1307 173.739 61.168 173.441 61.168C172.694 61.168 172.101 60.93 171.663 60.454C171.224 59.9687 171.005 59.2873 171.005 58.41V53.776H172.125V58.214C172.125 59.5113 172.675 60.16 173.777 60.16C174.001 60.16 174.215 60.132 174.421 60.076C174.635 60.02 174.822 59.936 174.981 59.824C175.149 59.712 175.279 59.572 175.373 59.404C175.475 59.2267 175.527 59.0167 175.527 58.774V53.776H176.647V61H175.527V59.824ZM182.732 54.756H181.556V53.776H182.732V52.32C182.732 51.816 182.863 51.41 183.124 51.102C183.386 50.794 183.782 50.64 184.314 50.64H185.406V51.62H183.852V53.776H187.898V61H186.778V54.756H183.852V61H182.732V54.756ZM187.338 52.082C187.096 52.082 186.918 52.026 186.806 51.914C186.704 51.7927 186.652 51.6387 186.652 51.452V51.27C186.652 51.0833 186.704 50.934 186.806 50.822C186.918 50.7007 187.096 50.64 187.338 50.64C187.581 50.64 187.754 50.7007 187.856 50.822C187.968 50.934 188.024 51.0833 188.024 51.27V51.452C188.024 51.6387 187.968 51.7927 187.856 51.914C187.754 52.026 187.581 52.082 187.338 52.082ZM190.284 61V53.776H191.404V54.952H191.46C191.637 54.5413 191.884 54.2147 192.202 53.972C192.528 53.7293 192.962 53.608 193.504 53.608C194.25 53.608 194.838 53.8507 195.268 54.336C195.706 54.812 195.926 55.4887 195.926 56.366V61H194.806V56.562C194.806 55.2647 194.26 54.616 193.168 54.616C192.944 54.616 192.724 54.644 192.51 54.7C192.304 54.756 192.118 54.84 191.95 54.952C191.782 55.064 191.646 55.2087 191.544 55.386C191.45 55.554 191.404 55.7547 191.404 55.988V61H190.284ZM202.861 59.824H202.805C202.366 60.72 201.661 61.168 200.691 61.168C200.243 61.168 199.837 61.0793 199.473 60.902C199.109 60.7247 198.796 60.4727 198.535 60.146C198.283 59.8193 198.087 59.4227 197.947 58.956C197.816 58.4893 197.751 57.9667 197.751 57.388C197.751 56.8093 197.816 56.2867 197.947 55.82C198.087 55.3533 198.283 54.9567 198.535 54.63C198.796 54.3033 199.109 54.0513 199.473 53.874C199.837 53.6967 200.243 53.608 200.691 53.608C201.195 53.608 201.624 53.72 201.979 53.944C202.343 54.1587 202.618 54.4947 202.805 54.952H202.861V50.64H203.981V61H202.861V59.824ZM200.999 60.16C201.251 60.16 201.489 60.1273 201.713 60.062C201.946 59.9967 202.147 59.9033 202.315 59.782C202.483 59.6513 202.613 59.4973 202.707 59.32C202.809 59.1333 202.861 58.9233 202.861 58.69V56.002C202.861 55.806 202.809 55.624 202.707 55.456C202.613 55.2787 202.483 55.1293 202.315 55.008C202.147 54.8867 201.946 54.7933 201.713 54.728C201.489 54.6533 201.251 54.616 200.999 54.616C200.364 54.616 199.865 54.8167 199.501 55.218C199.137 55.61 198.955 56.128 198.955 56.772V58.004C198.955 58.648 199.137 59.1707 199.501 59.572C199.865 59.964 200.364 60.16 200.999 60.16ZM209.078 61.168C208.583 61.168 208.135 61.0793 207.734 60.902C207.342 60.7247 207.001 60.4727 206.712 60.146C206.432 59.81 206.213 59.4133 206.054 58.956C205.905 58.4893 205.83 57.9667 205.83 57.388C205.83 56.8187 205.905 56.3007 206.054 55.834C206.213 55.3673 206.432 54.9707 206.712 54.644C207.001 54.308 207.342 54.0513 207.734 53.874C208.135 53.6967 208.583 53.608 209.078 53.608C209.563 53.608 209.997 53.6967 210.38 53.874C210.763 54.0513 211.089 54.2987 211.36 54.616C211.631 54.924 211.836 55.2927 211.976 55.722C212.125 56.1513 212.2 56.6227 212.2 57.136V57.668H207.006V58.004C207.006 58.312 207.053 58.6013 207.146 58.872C207.249 59.1333 207.389 59.362 207.566 59.558C207.753 59.754 207.977 59.908 208.238 60.02C208.509 60.132 208.812 60.188 209.148 60.188C209.605 60.188 210.002 60.0807 210.338 59.866C210.683 59.6513 210.949 59.3433 211.136 58.942L211.934 59.516C211.701 60.0107 211.337 60.412 210.842 60.72C210.347 61.0187 209.759 61.168 209.078 61.168ZM209.078 54.546C208.77 54.546 208.49 54.602 208.238 54.714C207.986 54.8167 207.767 54.966 207.58 55.162C207.403 55.358 207.263 55.5913 207.16 55.862C207.057 56.1233 207.006 56.4127 207.006 56.73V56.828H210.996V56.674C210.996 56.03 210.819 55.5167 210.464 55.134C210.119 54.742 209.657 54.546 209.078 54.546ZM53.81 83.824H53.754C53.3153 84.72 52.6107 85.168 51.64 85.168C51.192 85.168 50.786 85.0793 50.422 84.902C50.058 84.7247 49.7453 84.4727 49.484 84.146C49.232 83.8193 49.036 83.4227 48.896 82.956C48.7653 82.4893 48.7 81.9667 48.7 81.388C48.7 80.8093 48.7653 80.2867 48.896 79.82C49.036 79.3533 49.232 78.9567 49.484 78.63C49.7453 78.3033 50.058 78.0513 50.422 77.874C50.786 77.6967 51.192 77.608 51.64 77.608C52.144 77.608 52.5733 77.72 52.928 77.944C53.292 78.1587 53.5673 78.4947 53.754 78.952H53.81V74.64H54.93V85H53.81V83.824ZM51.948 84.16C52.2 84.16 52.438 84.1273 52.662 84.062C52.8953 83.9967 53.096 83.9033 53.264 83.782C53.432 83.6513 53.5627 83.4973 53.656 83.32C53.7587 83.1333 53.81 82.9233 53.81 82.69V80.002C53.81 79.806 53.7587 79.624 53.656 79.456C53.5627 79.2787 53.432 79.1293 53.264 79.008C53.096 78.8867 52.8953 78.7933 52.662 78.728C52.438 78.6533 52.2 78.616 51.948 78.616C51.3133 78.616 50.814 78.8167 50.45 79.218C50.086 79.61 49.904 80.128 49.904 80.772V82.004C49.904 82.648 50.086 83.1707 50.45 83.572C50.814 83.964 51.3133 84.16 51.948 84.16ZM60.0271 85.168C59.5324 85.168 59.0844 85.0793 58.6831 84.902C58.2911 84.7247 57.9504 84.4727 57.6611 84.146C57.3811 83.81 57.1618 83.4133 57.0031 82.956C56.8538 82.4893 56.7791 81.9667 56.7791 81.388C56.7791 80.8187 56.8538 80.3007 57.0031 79.834C57.1618 79.3673 57.3811 78.9707 57.6611 78.644C57.9504 78.308 58.2911 78.0513 58.6831 77.874C59.0844 77.6967 59.5324 77.608 60.0271 77.608C60.5124 77.608 60.9464 77.6967 61.3291 77.874C61.7118 78.0513 62.0384 78.2987 62.3091 78.616C62.5798 78.924 62.7851 79.2927 62.9251 79.722C63.0744 80.1513 63.1491 80.6227 63.1491 81.136V81.668H57.9551V82.004C57.9551 82.312 58.0018 82.6013 58.0951 82.872C58.1978 83.1333 58.3378 83.362 58.5151 83.558C58.7018 83.754 58.9258 83.908 59.1871 84.02C59.4578 84.132 59.7611 84.188 60.0971 84.188C60.5544 84.188 60.9511 84.0807 61.2871 83.866C61.6324 83.6513 61.8984 83.3433 62.0851 82.942L62.8831 83.516C62.6498 84.0107 62.2858 84.412 61.7911 84.72C61.2964 85.0187 60.7084 85.168 60.0271 85.168ZM60.0271 78.546C59.7191 78.546 59.4391 78.602 59.1871 78.714C58.9351 78.8167 58.7158 78.966 58.5291 79.162C58.3518 79.358 58.2118 79.5913 58.1091 79.862C58.0064 80.1233 57.9551 80.4127 57.9551 80.73V80.828H61.9451V80.674C61.9451 80.03 61.7678 79.5167 61.4131 79.134C61.0678 78.742 60.6058 78.546 60.0271 78.546ZM66.5907 85C66.1987 85 65.9 84.8927 65.6947 84.678C65.4987 84.454 65.4007 84.1647 65.4007 83.81V78.756H64.2107V77.776H64.8827C65.1254 77.776 65.2887 77.7293 65.3727 77.636C65.466 77.5333 65.5127 77.3607 65.5127 77.118V75.774H66.5207V77.776H68.1027V78.756H66.5207V84.02H67.9907V85H66.5907ZM73.2115 77.776H74.3315V78.952H74.3875C74.5742 78.4947 74.8448 78.1587 75.1995 77.944C75.5635 77.72 75.9975 77.608 76.5015 77.608C76.9495 77.608 77.3555 77.6967 77.7195 77.874C78.0835 78.0513 78.3915 78.3033 78.6435 78.63C78.9048 78.9567 79.1008 79.3533 79.2315 79.82C79.3715 80.2867 79.4415 80.8093 79.4415 81.388C79.4415 81.9667 79.3715 82.4893 79.2315 82.956C79.1008 83.4227 78.9048 83.8193 78.6435 84.146C78.3915 84.4727 78.0835 84.7247 77.7195 84.902C77.3555 85.0793 76.9495 85.168 76.5015 85.168C75.5215 85.168 74.8168 84.72 74.3875 83.824H74.3315V87.8H73.2115V77.776ZM76.1935 84.16C76.8282 84.16 77.3275 83.964 77.6915 83.572C78.0555 83.1707 78.2375 82.648 78.2375 82.004V80.772C78.2375 80.128 78.0555 79.61 77.6915 79.218C77.3275 78.8167 76.8282 78.616 76.1935 78.616C75.9415 78.616 75.6988 78.6533 75.4655 78.728C75.2415 78.7933 75.0455 78.8867 74.8775 79.008C74.7095 79.1293 74.5742 79.2787 74.4715 79.456C74.3782 79.624 74.3315 79.806 74.3315 80.002V82.69C74.3315 82.9233 74.3782 83.1333 74.4715 83.32C74.5742 83.4973 74.7095 83.6513 74.8775 83.782C75.0455 83.9033 75.2415 83.9967 75.4655 84.062C75.6988 84.1273 75.9415 84.16 76.1935 84.16ZM86.5826 85C86.1626 85 85.8592 84.888 85.6726 84.664C85.4952 84.44 85.3832 84.16 85.3366 83.824H85.2666C85.1079 84.272 84.8466 84.608 84.4826 84.832C84.1186 85.056 83.6846 85.168 83.1806 85.168C82.4152 85.168 81.8179 84.972 81.3886 84.58C80.9686 84.188 80.7586 83.656 80.7586 82.984C80.7586 82.3027 81.0059 81.78 81.5006 81.416C82.0046 81.052 82.7839 80.87 83.8386 80.87H85.2666V80.156C85.2666 79.6427 85.1266 79.2507 84.8466 78.98C84.5666 78.7093 84.1372 78.574 83.5586 78.574C83.1199 78.574 82.7512 78.672 82.4526 78.868C82.1632 79.064 81.9206 79.3253 81.7246 79.652L81.0526 79.022C81.2486 78.63 81.5612 78.2987 81.9906 78.028C82.4199 77.748 82.9612 77.608 83.6146 77.608C84.4919 77.608 85.1732 77.8227 85.6586 78.252C86.1439 78.6813 86.3866 79.2787 86.3866 80.044V84.02H87.2126V85H86.5826ZM83.3626 84.216C83.6426 84.216 83.8992 84.1833 84.1326 84.118C84.3659 84.0527 84.5666 83.9593 84.7346 83.838C84.9026 83.7167 85.0332 83.5767 85.1266 83.418C85.2199 83.2593 85.2666 83.0867 85.2666 82.9V81.71H83.7826C83.1386 81.71 82.6672 81.8033 82.3686 81.99C82.0792 82.1767 81.9346 82.4473 81.9346 82.802V83.096C81.9346 83.4507 82.0606 83.726 82.3126 83.922C82.5739 84.118 82.9239 84.216 83.3626 84.216ZM83.6846 76.936C83.4606 76.936 83.2459 76.8987 83.0406 76.824C82.8446 76.74 82.6719 76.628 82.5226 76.488C82.3826 76.3387 82.2706 76.166 82.1866 75.97C82.1026 75.774 82.0606 75.5593 82.0606 75.326C82.0606 75.0927 82.1026 74.878 82.1866 74.682C82.2706 74.486 82.3826 74.318 82.5226 74.178C82.6719 74.0287 82.8446 73.9167 83.0406 73.842C83.2459 73.758 83.4606 73.716 83.6846 73.716C83.9086 73.716 84.1186 73.758 84.3146 73.842C84.5199 73.9167 84.6926 74.0287 84.8326 74.178C84.9819 74.318 85.0986 74.486 85.1826 74.682C85.2666 74.878 85.3086 75.0927 85.3086 75.326C85.3086 75.5593 85.2666 75.774 85.1826 75.97C85.0986 76.166 84.9819 76.3387 84.8326 76.488C84.6926 76.628 84.5199 76.74 84.3146 76.824C84.1186 76.8987 83.9086 76.936 83.6846 76.936ZM83.6846 76.25C83.9366 76.25 84.1326 76.1847 84.2726 76.054C84.4219 75.914 84.4966 75.7227 84.4966 75.48V75.172C84.4966 74.9293 84.4219 74.7427 84.2726 74.612C84.1326 74.472 83.9366 74.402 83.6846 74.402C83.4326 74.402 83.2319 74.472 83.0826 74.612C82.9426 74.7427 82.8726 74.9293 82.8726 75.172V75.48C82.8726 75.7227 82.9426 75.914 83.0826 76.054C83.2319 76.1847 83.4326 76.25 83.6846 76.25ZM96.7397 83.824H96.6837C96.245 84.72 95.5404 85.168 94.5697 85.168C94.1217 85.168 93.7157 85.0793 93.3517 84.902C92.9877 84.7247 92.675 84.4727 92.4137 84.146C92.1617 83.8193 91.9657 83.4227 91.8257 82.956C91.695 82.4893 91.6297 81.9667 91.6297 81.388C91.6297 80.8093 91.695 80.2867 91.8257 79.82C91.9657 79.3533 92.1617 78.9567 92.4137 78.63C92.675 78.3033 92.9877 78.0513 93.3517 77.874C93.7157 77.6967 94.1217 77.608 94.5697 77.608C95.0737 77.608 95.503 77.72 95.8577 77.944C96.2217 78.1587 96.497 78.4947 96.6837 78.952H96.7397V74.64H97.8597V85H96.7397V83.824ZM94.8777 84.16C95.1297 84.16 95.3677 84.1273 95.5917 84.062C95.825 83.9967 96.0257 83.9033 96.1937 83.782C96.3617 83.6513 96.4924 83.4973 96.5857 83.32C96.6884 83.1333 96.7397 82.9233 96.7397 82.69V80.002C96.7397 79.806 96.6884 79.624 96.5857 79.456C96.4924 79.2787 96.3617 79.1293 96.1937 79.008C96.0257 78.8867 95.825 78.7933 95.5917 78.728C95.3677 78.6533 95.1297 78.616 94.8777 78.616C94.243 78.616 93.7437 78.8167 93.3797 79.218C93.0157 79.61 92.8337 80.128 92.8337 80.772V82.004C92.8337 82.648 93.0157 83.1707 93.3797 83.572C93.7437 83.964 94.243 84.16 94.8777 84.16ZM102.971 85.168C102.485 85.168 102.042 85.0793 101.641 84.902C101.239 84.7247 100.894 84.4727 100.605 84.146C100.325 83.81 100.105 83.4133 99.9468 82.956C99.7881 82.4893 99.7088 81.9667 99.7088 81.388C99.7088 80.8187 99.7881 80.3007 99.9468 79.834C100.105 79.3673 100.325 78.9707 100.605 78.644C100.894 78.308 101.239 78.0513 101.641 77.874C102.042 77.6967 102.485 77.608 102.971 77.608C103.456 77.608 103.895 77.6967 104.287 77.874C104.688 78.0513 105.033 78.308 105.323 78.644C105.612 78.9707 105.836 79.3673 105.995 79.834C106.153 80.3007 106.233 80.8187 106.233 81.388C106.233 81.9667 106.153 82.4893 105.995 82.956C105.836 83.4133 105.612 83.81 105.323 84.146C105.033 84.4727 104.688 84.7247 104.287 84.902C103.895 85.0793 103.456 85.168 102.971 85.168ZM102.971 84.174C103.577 84.174 104.072 83.9873 104.455 83.614C104.837 83.2407 105.029 82.6713 105.029 81.906V80.87C105.029 80.1047 104.837 79.5353 104.455 79.162C104.072 78.7887 103.577 78.602 102.971 78.602C102.364 78.602 101.869 78.7887 101.487 79.162C101.104 79.5353 100.913 80.1047 100.913 80.87V81.906C100.913 82.6713 101.104 83.2407 101.487 83.614C101.869 83.9873 102.364 84.174 102.971 84.174ZM108.075 74.64H109.195V81.206H109.251L110.357 79.974L112.401 77.776H113.759L111.085 80.632L114.025 85H112.667L110.273 81.318L109.195 82.424V85H108.075V74.64ZM119.773 83.824H119.717C119.642 83.992 119.549 84.16 119.437 84.328C119.334 84.4867 119.204 84.6313 119.045 84.762C118.886 84.8833 118.695 84.9813 118.471 85.056C118.247 85.1307 117.986 85.168 117.687 85.168C116.94 85.168 116.348 84.93 115.909 84.454C115.47 83.9687 115.251 83.2873 115.251 82.41V77.776H116.371V82.214C116.371 83.5113 116.922 84.16 118.023 84.16C118.247 84.16 118.462 84.132 118.667 84.076C118.882 84.02 119.068 83.936 119.227 83.824C119.395 83.712 119.526 83.572 119.619 83.404C119.722 83.2267 119.773 83.0167 119.773 82.774V77.776H120.893V85H119.773V83.824ZM123.278 85V77.776H124.398V78.952H124.454C124.538 78.7653 124.631 78.5927 124.734 78.434C124.846 78.266 124.977 78.1213 125.126 78C125.285 77.8787 125.467 77.7853 125.672 77.72C125.877 77.6453 126.12 77.608 126.4 77.608C126.876 77.608 127.315 77.7247 127.716 77.958C128.117 78.182 128.416 78.5553 128.612 79.078H128.64C128.771 78.686 129.013 78.3453 129.368 78.056C129.732 77.7573 130.222 77.608 130.838 77.608C131.575 77.608 132.149 77.8507 132.56 78.336C132.98 78.812 133.19 79.4887 133.19 80.366V85H132.07V80.562C132.07 79.918 131.944 79.4327 131.692 79.106C131.44 78.7793 131.039 78.616 130.488 78.616C130.264 78.616 130.049 78.644 129.844 78.7C129.648 78.756 129.471 78.84 129.312 78.952C129.153 79.064 129.027 79.2087 128.934 79.386C128.841 79.554 128.794 79.7547 128.794 79.988V85H127.674V80.562C127.674 79.918 127.548 79.4327 127.296 79.106C127.044 78.7793 126.652 78.616 126.12 78.616C125.896 78.616 125.681 78.644 125.476 78.7C125.271 78.756 125.089 78.84 124.93 78.952C124.771 79.064 124.641 79.2087 124.538 79.386C124.445 79.554 124.398 79.7547 124.398 79.988V85H123.278ZM138.217 85.168C137.722 85.168 137.274 85.0793 136.873 84.902C136.481 84.7247 136.14 84.4727 135.851 84.146C135.571 83.81 135.351 83.4133 135.193 82.956C135.043 82.4893 134.969 81.9667 134.969 81.388C134.969 80.8187 135.043 80.3007 135.193 79.834C135.351 79.3673 135.571 78.9707 135.851 78.644C136.14 78.308 136.481 78.0513 136.873 77.874C137.274 77.6967 137.722 77.608 138.217 77.608C138.702 77.608 139.136 77.6967 139.519 77.874C139.901 78.0513 140.228 78.2987 140.499 78.616C140.769 78.924 140.975 79.2927 141.115 79.722C141.264 80.1513 141.339 80.6227 141.339 81.136V81.668H136.145V82.004C136.145 82.312 136.191 82.6013 136.285 82.872C136.387 83.1333 136.527 83.362 136.705 83.558C136.891 83.754 137.115 83.908 137.377 84.02C137.647 84.132 137.951 84.188 138.287 84.188C138.744 84.188 139.141 84.0807 139.477 83.866C139.822 83.6513 140.088 83.3433 140.275 82.942L141.073 83.516C140.839 84.0107 140.475 84.412 139.981 84.72C139.486 85.0187 138.898 85.168 138.217 85.168ZM138.217 78.546C137.909 78.546 137.629 78.602 137.377 78.714C137.125 78.8167 136.905 78.966 136.719 79.162C136.541 79.358 136.401 79.5913 136.299 79.862C136.196 80.1233 136.145 80.4127 136.145 80.73V80.828H140.135V80.674C140.135 80.03 139.957 79.5167 139.603 79.134C139.257 78.742 138.795 78.546 138.217 78.546ZM143.184 85V77.776H144.304V78.952H144.36C144.537 78.5413 144.785 78.2147 145.102 77.972C145.429 77.7293 145.863 77.608 146.404 77.608C147.151 77.608 147.739 77.8507 148.168 78.336C148.607 78.812 148.826 79.4887 148.826 80.366V85H147.706V80.562C147.706 79.2647 147.16 78.616 146.068 78.616C145.844 78.616 145.625 78.644 145.41 78.7C145.205 78.756 145.018 78.84 144.85 78.952C144.682 79.064 144.547 79.2087 144.444 79.386C144.351 79.554 144.304 79.7547 144.304 79.988V85H143.184ZM152.737 85C152.345 85 152.047 84.8927 151.841 84.678C151.645 84.454 151.547 84.1647 151.547 83.81V78.756H150.357V77.776H151.029C151.272 77.776 151.435 77.7293 151.519 77.636C151.613 77.5333 151.659 77.3607 151.659 77.118V75.774H152.667V77.776H154.249V78.756H152.667V84.02H154.137V85H152.737ZM158.711 85.168C158.216 85.168 157.768 85.0793 157.367 84.902C156.975 84.7247 156.634 84.4727 156.345 84.146C156.065 83.81 155.845 83.4133 155.687 82.956C155.537 82.4893 155.463 81.9667 155.463 81.388C155.463 80.8187 155.537 80.3007 155.687 79.834C155.845 79.3673 156.065 78.9707 156.345 78.644C156.634 78.308 156.975 78.0513 157.367 77.874C157.768 77.6967 158.216 77.608 158.711 77.608C159.196 77.608 159.63 77.6967 160.013 77.874C160.395 78.0513 160.722 78.2987 160.993 78.616C161.263 78.924 161.469 79.2927 161.609 79.722C161.758 80.1513 161.833 80.6227 161.833 81.136V81.668H156.639V82.004C156.639 82.312 156.685 82.6013 156.779 82.872C156.881 83.1333 157.021 83.362 157.199 83.558C157.385 83.754 157.609 83.908 157.871 84.02C158.141 84.132 158.445 84.188 158.781 84.188C159.238 84.188 159.635 84.0807 159.971 83.866C160.316 83.6513 160.582 83.3433 160.769 82.942L161.567 83.516C161.333 84.0107 160.969 84.412 160.475 84.72C159.98 85.0187 159.392 85.168 158.711 85.168ZM158.711 78.546C158.403 78.546 158.123 78.602 157.871 78.714C157.619 78.8167 157.399 78.966 157.213 79.162C157.035 79.358 156.895 79.5913 156.793 79.862C156.69 80.1233 156.639 80.4127 156.639 80.73V80.828H160.629V80.674C160.629 80.03 160.451 79.5167 160.097 79.134C159.751 78.742 159.289 78.546 158.711 78.546ZM165.274 85C164.882 85 164.584 84.8927 164.378 84.678C164.182 84.454 164.084 84.1647 164.084 83.81V78.756H162.894V77.776H163.566C163.809 77.776 163.972 77.7293 164.056 77.636C164.15 77.5333 164.196 77.3607 164.196 77.118V75.774H165.204V77.776H166.786V78.756H165.204V84.02H166.674V85H165.274ZM172.553 78.14C172.254 78.14 172.035 78.0653 171.895 77.916C171.764 77.7573 171.699 77.5567 171.699 77.314V77.118C171.699 76.7353 171.811 76.3153 172.035 75.858C172.259 75.3913 172.572 74.9853 172.973 74.64H173.911C173.631 74.9387 173.402 75.2233 173.225 75.494C173.057 75.7553 172.936 76.0493 172.861 76.376C173.048 76.4227 173.183 76.5113 173.267 76.642C173.36 76.7727 173.407 76.9313 173.407 77.118V77.314C173.407 77.5567 173.337 77.7573 173.197 77.916C173.066 78.0653 172.852 78.14 172.553 78.14ZM175.381 78.14C175.082 78.14 174.863 78.0653 174.723 77.916C174.592 77.7573 174.527 77.5567 174.527 77.314V77.118C174.527 76.7353 174.639 76.3153 174.863 75.858C175.087 75.3913 175.4 74.9853 175.801 74.64H176.739C176.459 74.9387 176.23 75.2233 176.053 75.494C175.885 75.7553 175.764 76.0493 175.689 76.376C175.876 76.4227 176.011 76.5113 176.095 76.642C176.188 76.7727 176.235 76.9313 176.235 77.118V77.314C176.235 77.5567 176.165 77.7573 176.025 77.916C175.894 78.0653 175.68 78.14 175.381 78.14ZM185.596 85H184.182L181.62 80.898H181.592L179.03 85H177.686L180.878 80.03L177.77 75.228H179.184L181.634 79.12H181.662L184.168 75.228H185.512L182.376 79.988L185.596 85ZM187.978 74.5C188.277 74.5 188.491 74.5793 188.622 74.738C188.762 74.8873 188.832 75.0833 188.832 75.326V75.522C188.832 75.9047 188.72 76.3293 188.496 76.796C188.272 77.2533 187.959 77.6547 187.558 78H186.62C186.9 77.7013 187.124 77.4213 187.292 77.16C187.469 76.8893 187.595 76.5907 187.67 76.264C187.483 76.2173 187.343 76.1287 187.25 75.998C187.166 75.8673 187.124 75.7087 187.124 75.522V75.326C187.124 75.0833 187.189 74.8873 187.32 74.738C187.46 74.5793 187.679 74.5 187.978 74.5ZM190.792 74.5C191.091 74.5 191.305 74.5793 191.436 74.738C191.576 74.8873 191.646 75.0833 191.646 75.326V75.522C191.646 75.9047 191.534 76.3293 191.31 76.796C191.086 77.2533 190.773 77.6547 190.372 78H189.434C189.714 77.7013 189.938 77.4213 190.106 77.16C190.283 76.8893 190.409 76.5907 190.484 76.264C190.297 76.2173 190.157 76.1287 190.064 75.998C189.98 75.8673 189.938 75.7087 189.938 75.522V75.326C189.938 75.0833 190.003 74.8873 190.134 74.738C190.274 74.5793 190.493 74.5 190.792 74.5Z" fill="white"/>
<path d="M133.914 102.586C133.133 103.367 131.867 103.367 131.086 102.586L124.5 96L140.5 96L133.914 102.586Z" fill="#454545"/>
</g>
<path d="M132.5 128C130.522 128 128.589 127.414 126.944 126.315C125.3 125.216 124.018 123.654 123.261 121.827C122.504 120 122.306 117.989 122.692 116.049C123.078 114.109 124.03 112.327 125.429 110.929C126.827 109.53 128.609 108.578 130.549 108.192C132.489 107.806 134.5 108.004 136.327 108.761C138.154 109.518 139.716 110.8 140.815 112.444C141.914 114.089 142.5 116.022 142.5 118C142.497 120.651 141.443 123.193 139.568 125.068C137.693 126.943 135.151 127.997 132.5 128V128ZM132.5 110C130.918 110 129.371 110.469 128.055 111.348C126.74 112.227 125.714 113.477 125.109 114.939C124.503 116.4 124.345 118.009 124.654 119.561C124.962 121.113 125.724 122.538 126.843 123.657C127.962 124.776 129.387 125.538 130.939 125.846C132.491 126.155 134.1 125.997 135.561 125.391C137.023 124.786 138.273 123.76 139.152 122.445C140.031 121.129 140.5 119.582 140.5 118C140.498 115.879 139.654 113.846 138.154 112.346C136.654 110.846 134.621 110.002 132.5 110V110ZM133.5 124H131.5V122H133.5V124ZM133.5 121H131.5C131.484 120.361 131.64 119.729 131.952 119.17C132.263 118.611 132.718 118.145 133.27 117.822C133.93 117.316 134.5 116.879 134.5 116C134.5 115.47 134.289 114.961 133.914 114.586C133.539 114.211 133.03 114 132.5 114C131.97 114 131.461 114.211 131.086 114.586C130.711 114.961 130.5 115.47 130.5 116H128.5C128.5 114.939 128.921 113.922 129.672 113.172C130.422 112.421 131.439 112 132.5 112C133.561 112 134.578 112.421 135.328 113.172C136.079 113.922 136.5 114.939 136.5 116C136.465 116.532 136.305 117.049 136.034 117.508C135.763 117.967 135.389 118.357 134.94 118.645C134.534 118.9 134.193 119.245 133.943 119.653C133.694 120.062 133.542 120.523 133.5 121V121Z" fill="#1A1A1A"/>
<path d="M20.784 123.192C19.824 123.192 19.008 123.021 18.336 122.68C17.6747 122.339 17.104 121.891 16.624 121.336L18.048 119.96C18.432 120.408 18.8587 120.749 19.328 120.984C19.808 121.219 20.336 121.336 20.912 121.336C21.5627 121.336 22.0533 121.197 22.384 120.92C22.7147 120.632 22.88 120.248 22.88 119.768C22.88 119.395 22.7733 119.091 22.56 118.856C22.3467 118.621 21.9467 118.451 21.36 118.344L20.304 118.184C18.0747 117.832 16.96 116.749 16.96 114.936C16.96 114.435 17.0507 113.981 17.232 113.576C17.424 113.171 17.696 112.824 18.048 112.536C18.4 112.248 18.8213 112.029 19.312 111.88C19.8133 111.72 20.3787 111.64 21.008 111.64C21.8507 111.64 22.5867 111.779 23.216 112.056C23.8453 112.333 24.384 112.744 24.832 113.288L23.392 114.648C23.1147 114.307 22.7787 114.029 22.384 113.816C21.9893 113.603 21.4933 113.496 20.896 113.496C20.288 113.496 19.8293 113.613 19.52 113.848C19.2213 114.072 19.072 114.392 19.072 114.808C19.072 115.235 19.1947 115.549 19.44 115.752C19.6853 115.955 20.08 116.104 20.624 116.2L21.664 116.392C22.7947 116.595 23.6267 116.957 24.16 117.48C24.704 117.992 24.976 118.712 24.976 119.64C24.976 120.173 24.88 120.659 24.688 121.096C24.5067 121.523 24.2347 121.896 23.872 122.216C23.52 122.525 23.0827 122.765 22.56 122.936C22.048 123.107 21.456 123.192 20.784 123.192ZM33.1093 123C32.6613 123 32.3039 122.872 32.0373 122.616C31.7813 122.349 31.6213 121.997 31.5573 121.56H31.4613C31.3226 122.104 31.0399 122.515 30.6133 122.792C30.1866 123.059 29.6586 123.192 29.0293 123.192C28.1759 123.192 27.5199 122.968 27.0613 122.52C26.6026 122.072 26.3733 121.475 26.3733 120.728C26.3733 119.864 26.6826 119.224 27.3013 118.808C27.9199 118.381 28.7999 118.168 29.9413 118.168H31.3653V117.56C31.3653 117.091 31.2426 116.728 30.9973 116.472C30.7519 116.216 30.3573 116.088 29.8133 116.088C29.3333 116.088 28.9439 116.195 28.6453 116.408C28.3573 116.611 28.1119 116.856 27.9093 117.144L26.6933 116.056C27.0026 115.576 27.4133 115.192 27.9253 114.904C28.4373 114.605 29.1146 114.456 29.9573 114.456C31.0879 114.456 31.9466 114.712 32.5333 115.224C33.1199 115.736 33.4133 116.472 33.4133 117.432V121.368H34.2453V123H33.1093ZM29.7173 121.704C30.1759 121.704 30.5653 121.603 30.8853 121.4C31.2053 121.197 31.3653 120.899 31.3653 120.504V119.4H30.0533C28.9866 119.4 28.4533 119.741 28.4533 120.424V120.696C28.4533 121.037 28.5599 121.293 28.7733 121.464C28.9973 121.624 29.3119 121.704 29.7173 121.704ZM43.4388 123.704C43.4388 124.141 43.3588 124.525 43.1988 124.856C43.0494 125.197 42.7988 125.48 42.4468 125.704C42.0948 125.928 41.6414 126.099 41.0868 126.216C40.5321 126.333 39.8548 126.392 39.0548 126.392C38.3508 126.392 37.7534 126.344 37.2628 126.248C36.7721 126.163 36.3668 126.035 36.0468 125.864C35.7374 125.704 35.5134 125.501 35.3748 125.256C35.2361 125.011 35.1668 124.733 35.1668 124.424C35.1668 123.955 35.2948 123.587 35.5508 123.32C35.8174 123.064 36.1854 122.899 36.6548 122.824V122.648C36.3134 122.563 36.0468 122.397 35.8548 122.152C35.6734 121.896 35.5828 121.597 35.5828 121.256C35.5828 121.043 35.6254 120.856 35.7108 120.696C35.7961 120.525 35.9081 120.381 36.0468 120.264C36.1961 120.147 36.3614 120.051 36.5428 119.976C36.7241 119.891 36.9161 119.827 37.1188 119.784V119.72C36.6068 119.485 36.2228 119.16 35.9668 118.744C35.7214 118.328 35.5988 117.843 35.5988 117.288C35.5988 116.435 35.8921 115.752 36.4788 115.24C37.0654 114.717 37.9241 114.456 39.0548 114.456C39.3108 114.456 39.5614 114.472 39.8068 114.504C40.0628 114.536 40.2974 114.589 40.5108 114.664V114.392C40.5108 113.581 40.9054 113.176 41.6948 113.176H42.9908V114.744H41.2148V114.968C41.6521 115.213 41.9774 115.533 42.1908 115.928C42.4041 116.323 42.5108 116.776 42.5108 117.288C42.5108 118.131 42.2174 118.808 41.6308 119.32C41.0548 119.832 40.1961 120.088 39.0548 120.088C38.5641 120.088 38.1374 120.04 37.7748 119.944C37.6148 120.019 37.4761 120.12 37.3588 120.248C37.2414 120.365 37.1828 120.515 37.1828 120.696C37.1828 121.112 37.5454 121.32 38.2708 121.32H40.5108C41.5348 121.32 42.2761 121.533 42.7348 121.96C43.2041 122.376 43.4388 122.957 43.4388 123.704ZM41.5188 123.944C41.5188 123.677 41.4121 123.469 41.1988 123.32C40.9854 123.171 40.6174 123.096 40.0948 123.096H37.2468C36.9588 123.309 36.8148 123.597 36.8148 123.96C36.8148 124.28 36.9481 124.531 37.2148 124.712C37.4814 124.893 37.9348 124.984 38.5748 124.984H39.5988C40.2708 124.984 40.7561 124.899 41.0548 124.728C41.3641 124.557 41.5188 124.296 41.5188 123.944ZM39.0548 118.696C40.0574 118.696 40.5588 118.269 40.5588 117.416V117.144C40.5588 116.291 40.0574 115.864 39.0548 115.864C38.0521 115.864 37.5508 116.291 37.5508 117.144V117.416C37.5508 118.269 38.0521 118.696 39.0548 118.696ZM47.3575 123.192C46.5575 123.192 45.8855 123.059 45.3415 122.792C44.7975 122.515 44.3175 122.136 43.9015 121.656L45.1495 120.44C45.4588 120.792 45.7948 121.069 46.1575 121.272C46.5308 121.475 46.9575 121.576 47.4375 121.576C47.9282 121.576 48.2802 121.491 48.4935 121.32C48.7175 121.149 48.8295 120.915 48.8295 120.616C48.8295 120.371 48.7495 120.179 48.5895 120.04C48.4402 119.891 48.1788 119.789 47.8055 119.736L46.9735 119.624C46.0668 119.507 45.3735 119.251 44.8935 118.856C44.4242 118.451 44.1895 117.864 44.1895 117.096C44.1895 116.691 44.2642 116.328 44.4135 116.008C44.5628 115.677 44.7762 115.4 45.0535 115.176C45.3308 114.941 45.6615 114.765 46.0455 114.648C46.4402 114.52 46.8775 114.456 47.3575 114.456C47.7628 114.456 48.1202 114.488 48.4295 114.552C48.7495 114.605 49.0375 114.691 49.2935 114.808C49.5495 114.915 49.7842 115.053 49.9975 115.224C50.2108 115.384 50.4188 115.565 50.6215 115.768L49.4215 116.968C49.1762 116.712 48.8828 116.499 48.5415 116.328C48.2002 116.157 47.8268 116.072 47.4215 116.072C46.9735 116.072 46.6482 116.152 46.4455 116.312C46.2535 116.472 46.1575 116.68 46.1575 116.936C46.1575 117.213 46.2375 117.427 46.3975 117.576C46.5682 117.715 46.8508 117.816 47.2455 117.88L48.0935 117.992C49.8962 118.248 50.7975 119.069 50.7975 120.456C50.7975 120.861 50.7122 121.235 50.5415 121.576C50.3815 121.907 50.1522 122.195 49.8535 122.44C49.5548 122.675 49.1922 122.861 48.7655 123C48.3495 123.128 47.8802 123.192 47.3575 123.192ZM52.6059 123V114.648H54.6539V116.04H54.7339C54.9045 115.592 55.1712 115.219 55.5339 114.92C55.9072 114.611 56.4192 114.456 57.0699 114.456C57.9339 114.456 58.5952 114.739 59.0539 115.304C59.5125 115.869 59.7419 116.675 59.7419 117.72V123H57.6939V117.928C57.6939 117.331 57.5872 116.883 57.3739 116.584C57.1605 116.285 56.8085 116.136 56.3179 116.136C56.1045 116.136 55.8965 116.168 55.6939 116.232C55.5019 116.285 55.3259 116.371 55.1659 116.488C55.0165 116.595 54.8939 116.733 54.7979 116.904C54.7019 117.064 54.6539 117.256 54.6539 117.48V123H52.6059ZM67.0041 121.608H66.9241C66.8495 121.821 66.7481 122.024 66.6201 122.216C66.5028 122.397 66.3481 122.563 66.1561 122.712C65.9748 122.861 65.7508 122.979 65.4841 123.064C65.2281 123.149 64.9295 123.192 64.5881 123.192C63.7241 123.192 63.0628 122.909 62.6041 122.344C62.1455 121.779 61.9161 120.973 61.9161 119.928V114.648H63.9641V119.72C63.9641 120.296 64.0761 120.739 64.3001 121.048C64.5241 121.347 64.8815 121.496 65.3721 121.496C65.5748 121.496 65.7721 121.469 65.9641 121.416C66.1668 121.363 66.3428 121.283 66.4921 121.176C66.6415 121.059 66.7641 120.92 66.8601 120.76C66.9561 120.589 67.0041 120.392 67.0041 120.168V114.648H69.0521V123H67.0041V121.608ZM71.4184 123V114.648H73.4664V116.04H73.5464C73.7064 115.603 73.9624 115.229 74.3144 114.92C74.6664 114.611 75.157 114.456 75.7864 114.456C76.3624 114.456 76.8584 114.595 77.2744 114.872C77.6904 115.149 77.9997 115.571 78.2024 116.136H78.2344C78.3837 115.667 78.677 115.272 79.1144 114.952C79.5624 114.621 80.1224 114.456 80.7944 114.456C81.6157 114.456 82.245 114.739 82.6824 115.304C83.1304 115.869 83.3544 116.675 83.3544 117.72V123H81.3064V117.928C81.3064 116.733 80.8584 116.136 79.9624 116.136C79.7597 116.136 79.5624 116.168 79.3704 116.232C79.189 116.285 79.0237 116.371 78.8744 116.488C78.7357 116.595 78.6237 116.733 78.5384 116.904C78.453 117.064 78.4104 117.256 78.4104 117.48V123H76.3624V117.928C76.3624 116.733 75.9144 116.136 75.0184 116.136C74.8264 116.136 74.6344 116.168 74.4424 116.232C74.261 116.285 74.0957 116.371 73.9464 116.488C73.8077 116.595 73.6904 116.733 73.5944 116.904C73.509 117.064 73.4664 117.256 73.4664 117.48V123H71.4184ZM85.6215 123V114.648H87.6695V116.04H87.7495C87.9095 115.603 88.1655 115.229 88.5175 114.92C88.8695 114.611 89.3602 114.456 89.9895 114.456C90.5655 114.456 91.0615 114.595 91.4775 114.872C91.8935 115.149 92.2028 115.571 92.4055 116.136H92.4375C92.5868 115.667 92.8802 115.272 93.3175 114.952C93.7655 114.621 94.3255 114.456 94.9975 114.456C95.8188 114.456 96.4482 114.739 96.8855 115.304C97.3335 115.869 97.5575 116.675 97.5575 117.72V123H95.5095V117.928C95.5095 116.733 95.0615 116.136 94.1655 116.136C93.9628 116.136 93.7655 116.168 93.5735 116.232C93.3922 116.285 93.2268 116.371 93.0775 116.488C92.9388 116.595 92.8268 116.733 92.7415 116.904C92.6562 117.064 92.6135 117.256 92.6135 117.48V123H90.5655V117.928C90.5655 116.733 90.1175 116.136 89.2215 116.136C89.0295 116.136 88.8375 116.168 88.6455 116.232C88.4642 116.285 88.2988 116.371 88.1495 116.488C88.0108 116.595 87.8935 116.733 87.7975 116.904C87.7122 117.064 87.6695 117.256 87.6695 117.48V123H85.6215ZM103.201 123.192C102.582 123.192 102.027 123.091 101.537 122.888C101.057 122.675 100.646 122.381 100.305 122.008C99.974 121.624 99.718 121.165 99.5366 120.632C99.3553 120.088 99.2646 119.48 99.2646 118.808C99.2646 118.147 99.35 117.549 99.5206 117.016C99.702 116.483 99.958 116.029 100.289 115.656C100.619 115.272 101.025 114.979 101.505 114.776C101.985 114.563 102.529 114.456 103.137 114.456C103.787 114.456 104.353 114.568 104.833 114.792C105.313 115.016 105.707 115.32 106.017 115.704C106.326 116.088 106.555 116.536 106.705 117.048C106.865 117.549 106.945 118.088 106.945 118.664V119.336H101.393V119.544C101.393 120.152 101.563 120.643 101.905 121.016C102.246 121.379 102.753 121.56 103.425 121.56C103.937 121.56 104.353 121.453 104.673 121.24C105.003 121.027 105.297 120.755 105.553 120.424L106.657 121.656C106.315 122.136 105.846 122.515 105.249 122.792C104.662 123.059 103.979 123.192 103.201 123.192ZM103.169 115.992C102.625 115.992 102.193 116.173 101.873 116.536C101.553 116.899 101.393 117.368 101.393 117.944V118.072H104.817V117.928C104.817 117.352 104.673 116.888 104.385 116.536C104.107 116.173 103.702 115.992 103.169 115.992ZM108.747 123V114.648H110.795V116.376H110.875C110.928 116.152 111.008 115.939 111.115 115.736C111.232 115.523 111.381 115.336 111.562 115.176C111.744 115.016 111.957 114.888 112.203 114.792C112.459 114.696 112.752 114.648 113.083 114.648H113.531V116.584H112.891C112.197 116.584 111.675 116.685 111.323 116.888C110.971 117.091 110.795 117.421 110.795 117.88V123H108.747Z" fill="#1A1A1A"/>
<path d="M16.96 147V145.88H18.528V136.952H16.96V135.832H21.44V136.952H19.872V145.88H21.44V147H16.96ZM23.7663 147V138.744H25.0463V140.088H25.1103C25.3129 139.619 25.5956 139.245 25.9583 138.968C26.3316 138.691 26.8276 138.552 27.4463 138.552C28.2996 138.552 28.9716 138.829 29.4623 139.384C29.9636 139.928 30.2143 140.701 30.2143 141.704V147H28.9343V141.928C28.9343 140.445 28.3103 139.704 27.0623 139.704C26.8063 139.704 26.5556 139.736 26.3103 139.8C26.0756 139.864 25.8623 139.96 25.6703 140.088C25.4783 140.216 25.3236 140.381 25.2063 140.584C25.0996 140.776 25.0463 141.005 25.0463 141.272V147H23.7663ZM38.14 145.656H38.076C37.5747 146.68 36.7693 147.192 35.66 147.192C35.148 147.192 34.684 147.091 34.268 146.888C33.852 146.685 33.4947 146.397 33.196 146.024C32.908 145.651 32.684 145.197 32.524 144.664C32.3747 144.131 32.3 143.533 32.3 142.872C32.3 142.211 32.3747 141.613 32.524 141.08C32.684 140.547 32.908 140.093 33.196 139.72C33.4947 139.347 33.852 139.059 34.268 138.856C34.684 138.653 35.148 138.552 35.66 138.552C36.236 138.552 36.7267 138.68 37.132 138.936C37.548 139.181 37.8627 139.565 38.076 140.088H38.14V135.16H39.42V147H38.14V145.656ZM36.012 146.04C36.3 146.04 36.572 146.003 36.828 145.928C37.0947 145.853 37.324 145.747 37.516 145.608C37.708 145.459 37.8573 145.283 37.964 145.08C38.0813 144.867 38.14 144.627 38.14 144.36V141.288C38.14 141.064 38.0813 140.856 37.964 140.664C37.8573 140.461 37.708 140.291 37.516 140.152C37.324 140.013 37.0947 139.907 36.828 139.832C36.572 139.747 36.3 139.704 36.012 139.704C35.2867 139.704 34.716 139.933 34.3 140.392C33.884 140.84 33.676 141.432 33.676 142.168V143.576C33.676 144.312 33.884 144.909 34.3 145.368C34.716 145.816 35.2867 146.04 36.012 146.04ZM43.9653 147C43.5173 147 43.1759 146.877 42.9413 146.632C42.7173 146.376 42.6053 146.045 42.6053 145.64V139.864H41.2453V138.744H42.0133C42.2906 138.744 42.4773 138.691 42.5733 138.584C42.6799 138.467 42.7333 138.269 42.7333 137.992V136.456H43.8853V138.744H45.6933V139.864H43.8853V145.88H45.5653V147H43.9653ZM53.7506 147C53.2706 147 52.924 146.872 52.7106 146.616C52.508 146.36 52.38 146.04 52.3266 145.656H52.2466C52.0653 146.168 51.7666 146.552 51.3506 146.808C50.9346 147.064 50.4386 147.192 49.8626 147.192C48.988 147.192 48.3053 146.968 47.8146 146.52C47.3346 146.072 47.0946 145.464 47.0946 144.696C47.0946 143.917 47.3773 143.32 47.9426 142.904C48.5186 142.488 49.4093 142.28 50.6146 142.28H52.2466V141.464C52.2466 140.877 52.0866 140.429 51.7666 140.12C51.4466 139.811 50.956 139.656 50.2946 139.656C49.7933 139.656 49.372 139.768 49.0306 139.992C48.7 140.216 48.4226 140.515 48.1986 140.888L47.4306 140.168C47.6546 139.72 48.012 139.341 48.5026 139.032C48.9933 138.712 49.612 138.552 50.3586 138.552C51.3613 138.552 52.14 138.797 52.6946 139.288C53.2493 139.779 53.5266 140.461 53.5266 141.336V145.88H54.4706V147H53.7506ZM50.0706 146.104C50.3906 146.104 50.684 146.067 50.9506 145.992C51.2173 145.917 51.4466 145.811 51.6386 145.672C51.8306 145.533 51.98 145.373 52.0866 145.192C52.1933 145.011 52.2466 144.813 52.2466 144.6V143.24H50.5506C49.8146 143.24 49.276 143.347 48.9346 143.56C48.604 143.773 48.4386 144.083 48.4386 144.488V144.824C48.4386 145.229 48.5826 145.544 48.8706 145.768C49.1693 145.992 49.5693 146.104 50.0706 146.104ZM58.7775 147.192C58.0095 147.192 57.3642 147.048 56.8415 146.76C56.3295 146.461 55.8868 146.067 55.5135 145.576L56.4255 144.84C56.7455 145.245 57.1028 145.56 57.4975 145.784C57.8922 145.997 58.3508 146.104 58.8735 146.104C59.4175 146.104 59.8388 145.987 60.1375 145.752C60.4468 145.517 60.6015 145.187 60.6015 144.76C60.6015 144.44 60.4948 144.168 60.2815 143.944C60.0788 143.709 59.7055 143.549 59.1615 143.464L58.5055 143.368C58.1215 143.315 57.7695 143.235 57.4495 143.128C57.1295 143.011 56.8468 142.861 56.6015 142.68C56.3668 142.488 56.1802 142.253 56.0415 141.976C55.9135 141.699 55.8495 141.368 55.8495 140.984C55.8495 140.579 55.9242 140.227 56.0735 139.928C56.2228 139.619 56.4255 139.363 56.6815 139.16C56.9482 138.957 57.2628 138.808 57.6255 138.712C57.9882 138.605 58.3775 138.552 58.7935 138.552C59.4655 138.552 60.0255 138.669 60.4735 138.904C60.9322 139.139 61.3322 139.464 61.6735 139.88L60.8255 140.648C60.6442 140.392 60.3775 140.163 60.0255 139.96C59.6735 139.747 59.2308 139.64 58.6975 139.64C58.1642 139.64 57.7588 139.757 57.4815 139.992C57.2148 140.216 57.0815 140.525 57.0815 140.92C57.0815 141.325 57.2148 141.619 57.4815 141.8C57.7588 141.981 58.1535 142.115 58.6655 142.2L59.3055 142.296C60.2228 142.435 60.8735 142.701 61.2575 143.096C61.6415 143.48 61.8335 143.987 61.8335 144.616C61.8335 145.416 61.5615 146.045 61.0175 146.504C60.4735 146.963 59.7268 147.192 58.7775 147.192ZM65.809 147C65.361 147 65.0197 146.877 64.785 146.632C64.561 146.376 64.449 146.045 64.449 145.64V139.864H63.089V138.744H63.857C64.1343 138.744 64.321 138.691 64.417 138.584C64.5237 138.467 64.577 138.269 64.577 137.992V136.456H65.729V138.744H67.537V139.864H65.729V145.88H67.409V147H65.809ZM76.8156 147.192C76.1756 147.192 75.6156 147.112 75.1356 146.952C74.6556 146.781 74.2503 146.552 73.9196 146.264C73.5996 145.976 73.3543 145.635 73.1836 145.24C73.0236 144.845 72.9436 144.419 72.9436 143.96C72.9436 143.192 73.1516 142.584 73.5676 142.136C73.9836 141.688 74.5276 141.373 75.1996 141.192V141.064C74.613 140.861 74.1436 140.536 73.7916 140.088C73.4503 139.629 73.2796 139.08 73.2796 138.44C73.2796 137.587 73.589 136.909 74.2076 136.408C74.8263 135.896 75.6956 135.64 76.8156 135.64C77.9356 135.64 78.805 135.896 79.4236 136.408C80.0423 136.909 80.3516 137.587 80.3516 138.44C80.3516 139.08 80.1756 139.629 79.8236 140.088C79.4823 140.536 79.0183 140.861 78.4316 141.064V141.192C79.1036 141.373 79.6476 141.688 80.0636 142.136C80.4796 142.584 80.6876 143.192 80.6876 143.96C80.6876 144.419 80.6023 144.845 80.4316 145.24C80.2716 145.635 80.0263 145.976 79.6956 146.264C79.3756 146.552 78.9756 146.781 78.4956 146.952C78.0156 147.112 77.4556 147.192 76.8156 147.192ZM76.8156 146.024C77.5943 146.024 78.197 145.853 78.6236 145.512C79.0503 145.16 79.2636 144.664 79.2636 144.024V143.688C79.2636 143.048 79.0503 142.557 78.6236 142.216C78.197 141.864 77.5943 141.688 76.8156 141.688C76.037 141.688 75.4343 141.864 75.0076 142.216C74.581 142.557 74.3676 143.048 74.3676 143.688V144.024C74.3676 144.664 74.581 145.16 75.0076 145.512C75.4343 145.853 76.037 146.024 76.8156 146.024ZM76.8156 140.568C77.5196 140.568 78.053 140.419 78.4156 140.12C78.7783 139.821 78.9596 139.384 78.9596 138.808V138.568C78.9596 137.992 78.7783 137.555 78.4156 137.256C78.053 136.957 77.5196 136.808 76.8156 136.808C76.1116 136.808 75.5783 136.957 75.2156 137.256C74.853 137.555 74.6716 137.992 74.6716 138.568V138.808C74.6716 139.384 74.853 139.821 75.2156 140.12C75.5783 140.419 76.1116 140.568 76.8156 140.568ZM82.7134 142.824V141.448H86.8894V142.824H82.7134ZM92.5883 147.192C92.0123 147.192 91.4949 147.091 91.0363 146.888C90.5776 146.685 90.1883 146.397 89.8683 146.024C89.5589 145.651 89.3189 145.197 89.1483 144.664C88.9883 144.131 88.9083 143.533 88.9083 142.872C88.9083 142.211 88.9883 141.613 89.1483 141.08C89.3189 140.547 89.5589 140.093 89.8683 139.72C90.1883 139.347 90.5776 139.059 91.0363 138.856C91.4949 138.653 92.0123 138.552 92.5883 138.552C93.4096 138.552 94.0656 138.733 94.5563 139.096C95.0576 139.448 95.4309 139.912 95.6763 140.488L94.6043 141.032C94.4549 140.605 94.2096 140.275 93.8683 140.04C93.5269 139.805 93.1003 139.688 92.5883 139.688C92.2043 139.688 91.8683 139.752 91.5803 139.88C91.2923 139.997 91.0523 140.168 90.8603 140.392C90.6683 140.605 90.5243 140.867 90.4283 141.176C90.3323 141.475 90.2843 141.805 90.2843 142.168V143.576C90.2843 144.301 90.4763 144.899 90.8603 145.368C91.2549 145.827 91.8309 146.056 92.5883 146.056C93.6229 146.056 94.3696 145.576 94.8283 144.616L95.7563 145.24C95.4896 145.837 95.0896 146.312 94.5563 146.664C94.0336 147.016 93.3776 147.192 92.5883 147.192ZM98.2031 136.808C97.9258 136.808 97.7231 136.744 97.5951 136.616C97.4778 136.477 97.4191 136.301 97.4191 136.088V135.88C97.4191 135.667 97.4778 135.496 97.5951 135.368C97.7231 135.229 97.9258 135.16 98.2031 135.16C98.4805 135.16 98.6778 135.229 98.7951 135.368C98.9231 135.496 98.9871 135.667 98.9871 135.88V136.088C98.9871 136.301 98.9231 136.477 98.7951 136.616C98.6778 136.744 98.4805 136.808 98.2031 136.808ZM97.5631 138.744H98.8431V147H97.5631V138.744ZM102.011 139.864H100.667V138.744H102.011V137.08C102.011 136.504 102.16 136.04 102.459 135.688C102.758 135.336 103.211 135.16 103.819 135.16H105.067V136.28H103.291V138.744H105.067V139.864H103.291V147H102.011V139.864ZM106.751 147V138.744H108.031V140.264H108.111C108.26 139.869 108.527 139.517 108.911 139.208C109.295 138.899 109.823 138.744 110.495 138.744H110.991V140.024H110.239C109.545 140.024 109.001 140.157 108.607 140.424C108.223 140.68 108.031 141.005 108.031 141.4V147H106.751ZM115.652 147.192C115.086 147.192 114.574 147.091 114.116 146.888C113.668 146.685 113.278 146.397 112.948 146.024C112.628 145.64 112.377 145.187 112.196 144.664C112.025 144.131 111.94 143.533 111.94 142.872C111.94 142.221 112.025 141.629 112.196 141.096C112.377 140.563 112.628 140.109 112.948 139.736C113.278 139.352 113.668 139.059 114.116 138.856C114.574 138.653 115.086 138.552 115.652 138.552C116.206 138.552 116.702 138.653 117.14 138.856C117.577 139.059 117.95 139.341 118.26 139.704C118.569 140.056 118.804 140.477 118.964 140.968C119.134 141.459 119.22 141.997 119.22 142.584V143.192H113.284V143.576C113.284 143.928 113.337 144.259 113.444 144.568C113.561 144.867 113.721 145.128 113.924 145.352C114.137 145.576 114.393 145.752 114.692 145.88C115.001 146.008 115.348 146.072 115.732 146.072C116.254 146.072 116.708 145.949 117.092 145.704C117.486 145.459 117.79 145.107 118.004 144.648L118.916 145.304C118.649 145.869 118.233 146.328 117.668 146.68C117.102 147.021 116.43 147.192 115.652 147.192ZM115.652 139.624C115.3 139.624 114.98 139.688 114.692 139.816C114.404 139.933 114.153 140.104 113.94 140.328C113.737 140.552 113.577 140.819 113.46 141.128C113.342 141.427 113.284 141.757 113.284 142.12V142.232H117.844V142.056C117.844 141.32 117.641 140.733 117.236 140.296C116.841 139.848 116.313 139.624 115.652 139.624ZM123.153 147C122.705 147 122.363 146.877 122.129 146.632C121.905 146.376 121.793 146.045 121.793 145.64V139.864H120.433V138.744H121.201C121.478 138.744 121.665 138.691 121.761 138.584C121.867 138.467 121.921 138.269 121.921 137.992V136.456H123.073V138.744H124.881V139.864H123.073V145.88H124.753V147H123.153ZM133.199 147.192C132.431 147.192 131.786 147.048 131.263 146.76C130.751 146.461 130.309 146.067 129.935 145.576L130.847 144.84C131.167 145.245 131.525 145.56 131.919 145.784C132.314 145.997 132.773 146.104 133.295 146.104C133.839 146.104 134.261 145.987 134.559 145.752C134.869 145.517 135.023 145.187 135.023 144.76C135.023 144.44 134.917 144.168 134.703 143.944C134.501 143.709 134.127 143.549 133.583 143.464L132.927 143.368C132.543 143.315 132.191 143.235 131.871 143.128C131.551 143.011 131.269 142.861 131.023 142.68C130.789 142.488 130.602 142.253 130.463 141.976C130.335 141.699 130.271 141.368 130.271 140.984C130.271 140.579 130.346 140.227 130.495 139.928C130.645 139.619 130.847 139.363 131.103 139.16C131.37 138.957 131.685 138.808 132.047 138.712C132.41 138.605 132.799 138.552 133.215 138.552C133.887 138.552 134.447 138.669 134.895 138.904C135.354 139.139 135.754 139.464 136.095 139.88L135.247 140.648C135.066 140.392 134.799 140.163 134.447 139.96C134.095 139.747 133.653 139.64 133.119 139.64C132.586 139.64 132.181 139.757 131.903 139.992C131.637 140.216 131.503 140.525 131.503 140.92C131.503 141.325 131.637 141.619 131.903 141.8C132.181 141.981 132.575 142.115 133.087 142.2L133.727 142.296C134.645 142.435 135.295 142.701 135.679 143.096C136.063 143.48 136.255 143.987 136.255 144.616C136.255 145.416 135.983 146.045 135.439 146.504C134.895 146.963 134.149 147.192 133.199 147.192ZM144.516 147C144.036 147 143.69 146.872 143.476 146.616C143.274 146.36 143.146 146.04 143.092 145.656H143.012C142.831 146.168 142.532 146.552 142.116 146.808C141.7 147.064 141.204 147.192 140.628 147.192C139.754 147.192 139.071 146.968 138.58 146.52C138.1 146.072 137.86 145.464 137.86 144.696C137.86 143.917 138.143 143.32 138.708 142.904C139.284 142.488 140.175 142.28 141.38 142.28H143.012V141.464C143.012 140.877 142.852 140.429 142.532 140.12C142.212 139.811 141.722 139.656 141.06 139.656C140.559 139.656 140.138 139.768 139.796 139.992C139.466 140.216 139.188 140.515 138.964 140.888L138.196 140.168C138.42 139.72 138.778 139.341 139.268 139.032C139.759 138.712 140.378 138.552 141.124 138.552C142.127 138.552 142.906 138.797 143.46 139.288C144.015 139.779 144.292 140.461 144.292 141.336V145.88H145.236V147H144.516ZM140.836 146.104C141.156 146.104 141.45 146.067 141.716 145.992C141.983 145.917 142.212 145.811 142.404 145.672C142.596 145.533 142.746 145.373 142.852 145.192C142.959 145.011 143.012 144.813 143.012 144.6V143.24H141.316C140.58 143.24 140.042 143.347 139.7 143.56C139.37 143.773 139.204 144.083 139.204 144.488V144.824C139.204 145.229 139.348 145.544 139.636 145.768C139.935 145.992 140.335 146.104 140.836 146.104ZM154.023 147.912C154.023 148.765 153.687 149.389 153.015 149.784C152.354 150.189 151.356 150.392 150.023 150.392C148.732 150.392 147.804 150.216 147.239 149.864C146.674 149.512 146.391 149.011 146.391 148.36C146.391 147.912 146.508 147.56 146.743 147.304C146.978 147.059 147.298 146.877 147.703 146.76V146.584C147.212 146.349 146.967 145.965 146.967 145.432C146.967 145.016 147.1 144.701 147.367 144.488C147.634 144.264 147.975 144.099 148.391 143.992V143.928C147.9 143.693 147.516 143.357 147.239 142.92C146.972 142.483 146.839 141.976 146.839 141.4C146.839 140.984 146.914 140.6 147.063 140.248C147.212 139.896 147.42 139.597 147.687 139.352C147.964 139.096 148.29 138.899 148.663 138.76C149.047 138.621 149.474 138.552 149.943 138.552C150.53 138.552 151.052 138.659 151.511 138.872V138.728C151.511 138.408 151.586 138.147 151.735 137.944C151.884 137.731 152.13 137.624 152.471 137.624H153.703V138.744H152.135V139.272C152.434 139.528 152.663 139.837 152.823 140.2C152.994 140.552 153.079 140.952 153.079 141.4C153.079 141.816 153.004 142.2 152.855 142.552C152.706 142.904 152.492 143.208 152.215 143.464C151.948 143.709 151.623 143.901 151.239 144.04C150.855 144.179 150.428 144.248 149.959 144.248C149.692 144.248 149.426 144.221 149.159 144.168C148.882 144.243 148.631 144.355 148.407 144.504C148.183 144.643 148.071 144.84 148.071 145.096C148.071 145.341 148.188 145.507 148.423 145.592C148.658 145.677 148.962 145.72 149.335 145.72H151.095C152.119 145.72 152.86 145.917 153.319 146.312C153.788 146.696 154.023 147.229 154.023 147.912ZM152.823 148.008C152.823 147.677 152.695 147.411 152.439 147.208C152.194 147.016 151.751 146.92 151.111 146.92H148.359C147.847 147.155 147.591 147.528 147.591 148.04C147.591 148.403 147.724 148.712 147.991 148.968C148.268 149.224 148.732 149.352 149.383 149.352H150.567C151.282 149.352 151.836 149.24 152.231 149.016C152.626 148.792 152.823 148.456 152.823 148.008ZM149.959 143.224C150.503 143.224 150.935 143.096 151.255 142.84C151.575 142.573 151.735 142.168 151.735 141.624V141.176C151.735 140.632 151.575 140.232 151.255 139.976C150.935 139.709 150.503 139.576 149.959 139.576C149.415 139.576 148.983 139.709 148.663 139.976C148.343 140.232 148.183 140.632 148.183 141.176V141.624C148.183 142.168 148.343 142.573 148.663 142.84C148.983 143.096 149.415 143.224 149.959 143.224ZM157.996 147.192C157.228 147.192 156.583 147.048 156.06 146.76C155.548 146.461 155.106 146.067 154.732 145.576L155.644 144.84C155.964 145.245 156.322 145.56 156.716 145.784C157.111 145.997 157.57 146.104 158.092 146.104C158.636 146.104 159.058 145.987 159.356 145.752C159.666 145.517 159.82 145.187 159.82 144.76C159.82 144.44 159.714 144.168 159.5 143.944C159.298 143.709 158.924 143.549 158.38 143.464L157.724 143.368C157.34 143.315 156.988 143.235 156.668 143.128C156.348 143.011 156.066 142.861 155.82 142.68C155.586 142.488 155.399 142.253 155.26 141.976C155.132 141.699 155.068 141.368 155.068 140.984C155.068 140.579 155.143 140.227 155.292 139.928C155.442 139.619 155.644 139.363 155.9 139.16C156.167 138.957 156.482 138.808 156.844 138.712C157.207 138.605 157.596 138.552 158.012 138.552C158.684 138.552 159.244 138.669 159.692 138.904C160.151 139.139 160.551 139.464 160.892 139.88L160.044 140.648C159.863 140.392 159.596 140.163 159.244 139.96C158.892 139.747 158.45 139.64 157.916 139.64C157.383 139.64 156.978 139.757 156.7 139.992C156.434 140.216 156.3 140.525 156.3 140.92C156.3 141.325 156.434 141.619 156.7 141.8C156.978 141.981 157.372 142.115 157.884 142.2L158.524 142.296C159.442 142.435 160.092 142.701 160.476 143.096C160.86 143.48 161.052 143.987 161.052 144.616C161.052 145.416 160.78 146.045 160.236 146.504C159.692 146.963 158.946 147.192 157.996 147.192ZM163.313 147V138.744H164.593V140.088H164.657C164.86 139.619 165.142 139.245 165.505 138.968C165.878 138.691 166.374 138.552 166.993 138.552C167.846 138.552 168.518 138.829 169.009 139.384C169.51 139.928 169.761 140.701 169.761 141.704V147H168.481V141.928C168.481 140.445 167.857 139.704 166.609 139.704C166.353 139.704 166.102 139.736 165.857 139.8C165.622 139.864 165.409 139.96 165.217 140.088C165.025 140.216 164.87 140.381 164.753 140.584C164.646 140.776 164.593 141.005 164.593 141.272V147H163.313ZM177.495 145.656H177.431C177.346 145.848 177.239 146.04 177.111 146.232C176.994 146.413 176.844 146.579 176.663 146.728C176.482 146.867 176.263 146.979 176.007 147.064C175.751 147.149 175.452 147.192 175.111 147.192C174.258 147.192 173.58 146.92 173.079 146.376C172.578 145.821 172.327 145.043 172.327 144.04V138.744H173.607V143.816C173.607 145.299 174.236 146.04 175.495 146.04C175.751 146.04 175.996 146.008 176.231 145.944C176.476 145.88 176.69 145.784 176.871 145.656C177.063 145.528 177.212 145.368 177.319 145.176C177.436 144.973 177.495 144.733 177.495 144.456V138.744H178.775V147H177.495V145.656ZM181.501 147V138.744H182.781V140.088H182.845C182.941 139.875 183.047 139.677 183.165 139.496C183.293 139.304 183.442 139.139 183.613 139C183.794 138.861 184.002 138.755 184.237 138.68C184.471 138.595 184.749 138.552 185.069 138.552C185.613 138.552 186.114 138.685 186.573 138.952C187.031 139.208 187.373 139.635 187.597 140.232H187.629C187.778 139.784 188.055 139.395 188.461 139.064C188.877 138.723 189.437 138.552 190.141 138.552C190.983 138.552 191.639 138.829 192.109 139.384C192.589 139.928 192.829 140.701 192.829 141.704V147H191.549V141.928C191.549 141.192 191.405 140.637 191.117 140.264C190.829 139.891 190.37 139.704 189.741 139.704C189.485 139.704 189.239 139.736 189.005 139.8C188.781 139.864 188.578 139.96 188.397 140.088C188.215 140.216 188.071 140.381 187.965 140.584C187.858 140.776 187.805 141.005 187.805 141.272V147H186.525V141.928C186.525 141.192 186.381 140.637 186.093 140.264C185.805 139.891 185.357 139.704 184.749 139.704C184.493 139.704 184.247 139.736 184.013 139.8C183.778 139.864 183.57 139.96 183.389 140.088C183.207 140.216 183.058 140.381 182.941 140.584C182.834 140.776 182.781 141.005 182.781 141.272V147H181.501ZM195.469 147V138.744H196.749V140.088H196.813C196.909 139.875 197.016 139.677 197.133 139.496C197.261 139.304 197.411 139.139 197.581 139C197.763 138.861 197.971 138.755 198.205 138.68C198.44 138.595 198.717 138.552 199.037 138.552C199.581 138.552 200.083 138.685 200.541 138.952C201 139.208 201.341 139.635 201.565 140.232H201.597C201.747 139.784 202.024 139.395 202.429 139.064C202.845 138.723 203.405 138.552 204.109 138.552C204.952 138.552 205.608 138.829 206.077 139.384C206.557 139.928 206.797 140.701 206.797 141.704V147H205.517V141.928C205.517 141.192 205.373 140.637 205.085 140.264C204.797 139.891 204.339 139.704 203.709 139.704C203.453 139.704 203.208 139.736 202.973 139.8C202.749 139.864 202.547 139.96 202.365 140.088C202.184 140.216 202.04 140.381 201.933 140.584C201.827 140.776 201.773 141.005 201.773 141.272V147H200.493V141.928C200.493 141.192 200.349 140.637 200.061 140.264C199.773 139.891 199.325 139.704 198.717 139.704C198.461 139.704 198.216 139.736 197.981 139.8C197.747 139.864 197.539 139.96 197.357 140.088C197.176 140.216 197.027 140.381 196.909 140.584C196.803 140.776 196.749 141.005 196.749 141.272V147H195.469ZM212.542 147.192C211.977 147.192 211.465 147.091 211.006 146.888C210.558 146.685 210.169 146.397 209.838 146.024C209.518 145.64 209.267 145.187 209.086 144.664C208.915 144.131 208.83 143.533 208.83 142.872C208.83 142.221 208.915 141.629 209.086 141.096C209.267 140.563 209.518 140.109 209.838 139.736C210.169 139.352 210.558 139.059 211.006 138.856C211.465 138.653 211.977 138.552 212.542 138.552C213.097 138.552 213.593 138.653 214.03 138.856C214.467 139.059 214.841 139.341 215.15 139.704C215.459 140.056 215.694 140.477 215.854 140.968C216.025 141.459 216.11 141.997 216.11 142.584V143.192H210.174V143.576C210.174 143.928 210.227 144.259 210.334 144.568C210.451 144.867 210.611 145.128 210.814 145.352C211.027 145.576 211.283 145.752 211.582 145.88C211.891 146.008 212.238 146.072 212.622 146.072C213.145 146.072 213.598 145.949 213.982 145.704C214.377 145.459 214.681 145.107 214.894 144.648L215.806 145.304C215.539 145.869 215.123 146.328 214.558 146.68C213.993 147.021 213.321 147.192 212.542 147.192ZM212.542 139.624C212.19 139.624 211.87 139.688 211.582 139.816C211.294 139.933 211.043 140.104 210.83 140.328C210.627 140.552 210.467 140.819 210.35 141.128C210.233 141.427 210.174 141.757 210.174 142.12V142.232H214.734V142.056C214.734 141.32 214.531 140.733 214.126 140.296C213.731 139.848 213.203 139.624 212.542 139.624ZM218.219 147V138.744H219.499V140.264H219.579C219.729 139.869 219.995 139.517 220.379 139.208C220.763 138.899 221.291 138.744 221.963 138.744H222.459V140.024H221.707C221.014 140.024 220.47 140.157 220.075 140.424C219.691 140.68 219.499 141.005 219.499 141.4V147H218.219ZM223.629 145.128C223.97 145.128 224.216 145.219 224.365 145.4C224.525 145.571 224.605 145.795 224.605 146.072V146.296C224.605 146.733 224.477 147.213 224.221 147.736C223.965 148.269 223.608 148.733 223.149 149.128H222.077C222.397 148.787 222.653 148.461 222.845 148.152C223.048 147.853 223.192 147.517 223.277 147.144C223.064 147.091 222.904 146.989 222.797 146.84C222.701 146.691 222.653 146.509 222.653 146.296V146.072C222.653 145.795 222.728 145.571 222.877 145.4C223.037 145.219 223.288 145.128 223.629 145.128ZM231.402 139.864H230.058V138.744H231.402V137.08C231.402 136.504 231.551 136.04 231.85 135.688C232.148 135.336 232.602 135.16 233.21 135.16H234.458V136.28H232.682V138.744H234.458V139.864H232.682V147H231.402V139.864ZM235.117 147L238.173 142.84L235.245 138.744H236.749L238.845 141.816H238.893L241.069 138.744H242.493L239.581 142.744L242.557 147H241.053L238.909 143.768H238.861L236.541 147H235.117ZM255.152 147L254.032 143.704H249.52L248.4 147H247.04L250.944 135.832H252.656L256.56 147H255.152ZM251.808 137.08H251.728L249.84 142.52H253.696L251.808 137.08ZM258.41 135.832H263.002C263.93 135.832 264.655 136.093 265.178 136.616C265.711 137.139 265.978 137.837 265.978 138.712C265.978 139.128 265.919 139.48 265.802 139.768C265.685 140.056 265.535 140.296 265.354 140.488C265.173 140.669 264.975 140.808 264.762 140.904C264.549 140.989 264.351 141.048 264.17 141.08V141.176C264.373 141.187 264.597 141.24 264.842 141.336C265.098 141.432 265.338 141.587 265.562 141.8C265.786 142.003 265.973 142.269 266.122 142.6C266.282 142.92 266.362 143.309 266.362 143.768C266.362 144.227 266.287 144.653 266.138 145.048C265.999 145.443 265.802 145.784 265.546 146.072C265.29 146.36 264.986 146.589 264.634 146.76C264.282 146.92 263.898 147 263.482 147H258.41V135.832ZM259.754 145.816H263.066C263.642 145.816 264.095 145.672 264.426 145.384C264.757 145.085 264.922 144.653 264.922 144.088V143.544C264.922 142.979 264.757 142.552 264.426 142.264C264.095 141.965 263.642 141.816 263.066 141.816H259.754V145.816ZM259.754 140.664H262.842C263.375 140.664 263.791 140.531 264.09 140.264C264.389 139.997 264.538 139.613 264.538 139.112V138.568C264.538 138.067 264.389 137.683 264.09 137.416C263.791 137.149 263.375 137.016 262.842 137.016H259.754V140.664ZM272.799 147.192C271.38 147.192 270.276 146.712 269.487 145.752C268.698 144.781 268.303 143.357 268.303 141.48C268.303 139.603 268.698 138.163 269.487 137.16C270.276 136.147 271.38 135.64 272.799 135.64C273.738 135.64 274.522 135.853 275.151 136.28C275.791 136.707 276.287 137.309 276.639 138.088L275.551 138.744C275.327 138.168 274.986 137.709 274.527 137.368C274.068 137.016 273.492 136.84 272.799 136.84C272.319 136.84 271.887 136.931 271.503 137.112C271.13 137.293 270.81 137.555 270.543 137.896C270.287 138.227 270.09 138.627 269.951 139.096C269.812 139.555 269.743 140.072 269.743 140.648V142.312C269.743 143.464 270.01 144.365 270.543 145.016C271.076 145.667 271.828 145.992 272.799 145.992C273.514 145.992 274.111 145.811 274.591 145.448C275.071 145.075 275.423 144.584 275.647 143.976L276.719 144.648C276.367 145.437 275.86 146.061 275.199 146.52C274.538 146.968 273.738 147.192 272.799 147.192ZM278.721 147V145.816H281.841V136.824H281.729L278.913 139.448L278.129 138.6L281.089 135.832H283.185V145.816H286.065V147H278.721ZM295.434 147H288.106V145.624L291.754 142.264C292.277 141.784 292.714 141.277 293.066 140.744C293.418 140.2 293.594 139.656 293.594 139.112V138.92C293.594 138.301 293.424 137.8 293.082 137.416C292.741 137.032 292.224 136.84 291.53 136.84C291.189 136.84 290.89 136.888 290.634 136.984C290.378 137.08 290.154 137.213 289.962 137.384C289.781 137.555 289.626 137.757 289.498 137.992C289.381 138.216 289.285 138.461 289.21 138.728L288.01 138.264C288.117 137.933 288.261 137.613 288.442 137.304C288.634 136.984 288.869 136.701 289.146 136.456C289.434 136.211 289.776 136.013 290.17 135.864C290.576 135.715 291.05 135.64 291.594 135.64C292.138 135.64 292.624 135.72 293.05 135.88C293.477 136.04 293.834 136.264 294.122 136.552C294.41 136.84 294.629 137.181 294.778 137.576C294.938 137.971 295.018 138.408 295.018 138.888C295.018 139.325 294.954 139.731 294.826 140.104C294.709 140.477 294.544 140.835 294.33 141.176C294.117 141.507 293.856 141.832 293.546 142.152C293.248 142.472 292.922 142.792 292.57 143.112L289.562 145.816H295.434V147ZM300.676 140.568C301.433 140.568 301.999 140.397 302.372 140.056C302.756 139.704 302.948 139.256 302.948 138.712V138.6C302.948 138.013 302.761 137.576 302.388 137.288C302.025 136.989 301.545 136.84 300.948 136.84C300.372 136.84 299.903 136.968 299.54 137.224C299.177 137.469 298.879 137.805 298.644 138.232L297.652 137.464C297.791 137.24 297.956 137.021 298.148 136.808C298.351 136.584 298.585 136.387 298.852 136.216C299.119 136.045 299.428 135.907 299.78 135.8C300.132 135.693 300.532 135.64 300.98 135.64C301.449 135.64 301.892 135.704 302.308 135.832C302.724 135.949 303.081 136.131 303.38 136.376C303.689 136.611 303.929 136.904 304.1 137.256C304.281 137.608 304.372 138.008 304.372 138.456C304.372 138.819 304.313 139.144 304.196 139.432C304.089 139.72 303.94 139.971 303.748 140.184C303.556 140.397 303.327 140.579 303.06 140.728C302.804 140.877 302.527 140.989 302.228 141.064V141.128C302.527 141.192 302.815 141.299 303.092 141.448C303.38 141.587 303.631 141.773 303.844 142.008C304.068 142.232 304.244 142.509 304.372 142.84C304.511 143.16 304.58 143.528 304.58 143.944C304.58 144.424 304.489 144.867 304.308 145.272C304.127 145.667 303.871 146.008 303.54 146.296C303.209 146.573 302.809 146.792 302.34 146.952C301.871 147.112 301.353 147.192 300.788 147.192C300.308 147.192 299.881 147.139 299.508 147.032C299.135 146.925 298.804 146.781 298.516 146.6C298.228 146.419 297.972 146.216 297.748 145.992C297.535 145.768 297.343 145.533 297.172 145.288L298.18 144.52C298.319 144.744 298.468 144.947 298.628 145.128C298.799 145.309 298.985 145.464 299.188 145.592C299.391 145.72 299.62 145.821 299.876 145.896C300.132 145.96 300.431 145.992 300.772 145.992C301.561 145.992 302.159 145.816 302.564 145.464C302.969 145.101 303.172 144.589 303.172 143.928V143.8C303.172 143.139 302.969 142.632 302.564 142.28C302.159 141.917 301.561 141.736 300.772 141.736H299.46V140.568H300.676ZM312.094 147V144.808H306.702V143.624L311.374 135.832H313.374V143.688H314.99V144.808H313.374V147H312.094ZM307.966 143.688H312.094V136.872H312.014L307.966 143.688ZM323.656 137.016H318.76L318.44 141.272H318.552C318.818 140.899 319.117 140.6 319.448 140.376C319.789 140.152 320.253 140.04 320.84 140.04C321.32 140.04 321.762 140.12 322.168 140.28C322.573 140.44 322.925 140.669 323.224 140.968C323.522 141.256 323.752 141.613 323.911 142.04C324.082 142.467 324.168 142.952 324.168 143.496C324.168 144.04 324.082 144.541 323.911 145C323.741 145.448 323.49 145.837 323.16 146.168C322.84 146.488 322.445 146.739 321.976 146.92C321.517 147.101 320.994 147.192 320.408 147.192C319.938 147.192 319.522 147.139 319.16 147.032C318.808 146.925 318.493 146.781 318.216 146.6C317.938 146.419 317.693 146.216 317.48 145.992C317.277 145.768 317.09 145.533 316.92 145.288L317.928 144.52C318.066 144.744 318.21 144.947 318.36 145.128C318.52 145.309 318.69 145.464 318.872 145.592C319.064 145.72 319.282 145.821 319.528 145.896C319.773 145.96 320.066 145.992 320.408 145.992C321.176 145.992 321.757 145.789 322.152 145.384C322.546 144.979 322.744 144.408 322.744 143.672V143.512C322.744 142.776 322.546 142.205 322.152 141.8C321.757 141.395 321.176 141.192 320.408 141.192C319.896 141.192 319.49 141.288 319.192 141.48C318.904 141.661 318.642 141.88 318.408 142.136L317.272 141.976L317.672 135.832H323.656V137.016Z" fill="#747474"/>
<rect x="16.5" y="161.5" width="319" height="39" rx="3.5" stroke="#747474"/>
<defs>
<filter id="filter0_d_10119_18949" x="28" y="12" width="209" height="103.172" filterUnits="userSpaceOnUse" color-interpolation-filters="sRGB">
<feFlood flood-opacity="0" result="BackgroundImageFix"/>
<feColorMatrix in="SourceAlpha" type="matrix" values="0 0 0 0 0 0 0 0 0 0 0 0 0 0 0 0 0 0 127 0" result="hardAlpha"/>
<feOffset dy="4"/>
<feGaussianBlur stdDeviation="4"/>
<feColorMatrix type="matrix" values="0 0 0 0 0 0 0 0 0 0 0 0 0 0 0 0 0 0 0.302 0"/>
<feBlend mode="normal" in2="BackgroundImageFix" result="effect1_dropShadow_10119_18949"/>
<feBlend mode="normal" in="SourceGraphic" in2="effect1_dropShadow_10119_18949" result="shape"/>
</filter>
</defs>
</svg>
