<svg width="418" height="198" viewBox="0 0 418 198" fill="none" xmlns="http://www.w3.org/2000/svg">
<rect width="418" height="198" fill="white"/>
<rect x="16.5" y="116.5" width="139" height="39" rx="3.5" fill="white" stroke="#747474"/>
<path d="M21.648 103.192C20.912 103.192 20.2453 103.075 19.648 102.84C19.0613 102.595 18.5547 102.232 18.128 101.752C17.712 101.272 17.392 100.68 17.168 99.976C16.944 99.2613 16.832 98.4347 16.832 97.496C16.832 96.5573 16.944 95.7253 17.168 95C17.392 94.264 17.712 93.6507 18.128 93.16C18.5547 92.6587 19.0613 92.28 19.648 92.024C20.2453 91.768 20.912 91.64 21.648 91.64C22.6507 91.64 23.4827 91.8533 24.144 92.28C24.8053 92.7067 25.3333 93.352 25.728 94.216L23.92 95.176C23.76 94.6747 23.4987 94.2747 23.136 93.976C22.7733 93.6667 22.2773 93.512 21.648 93.512C20.8587 93.512 20.2293 93.7787 19.76 94.312C19.3013 94.8453 19.072 95.592 19.072 96.552V98.312C19.072 99.2827 19.3013 100.029 19.76 100.552C20.2293 101.064 20.8587 101.32 21.648 101.32C22.2773 101.32 22.7893 101.149 23.184 100.808C23.5893 100.467 23.8827 100.045 24.064 99.544L25.776 100.552C25.3707 101.384 24.832 102.035 24.16 102.504C23.488 102.963 22.6507 103.192 21.648 103.192ZM27.5776 103V91.832H32.6016C33.1136 91.832 33.5723 91.9173 33.9776 92.088C34.3936 92.248 34.7456 92.4827 35.0336 92.792C35.3216 93.0907 35.5403 93.4533 35.6896 93.88C35.839 94.3067 35.9136 94.776 35.9136 95.288C35.9136 95.8107 35.839 96.2853 35.6896 96.712C35.5403 97.128 35.3216 97.4907 35.0336 97.8C34.7456 98.0987 34.3936 98.3333 33.9776 98.504C33.5723 98.664 33.1136 98.744 32.6016 98.744H29.6896V103H27.5776ZM29.6896 96.92H32.4096C32.815 96.92 33.135 96.8133 33.3696 96.6C33.6043 96.376 33.7216 96.0613 33.7216 95.656V94.92C33.7216 94.5147 33.6043 94.2053 33.3696 93.992C33.135 93.7787 32.815 93.672 32.4096 93.672H29.6896V96.92ZM39.9396 103H37.8276V91.832H42.8676C43.3796 91.832 43.8383 91.912 44.2436 92.072C44.649 92.232 44.9903 92.4667 45.2676 92.776C45.5556 93.0747 45.7743 93.4373 45.9236 93.864C46.0836 94.2907 46.1636 94.7653 46.1636 95.288C46.1636 96.056 45.9876 96.7173 45.6356 97.272C45.2943 97.8267 44.777 98.2213 44.0836 98.456L46.3716 103H44.0196L41.9396 98.696H39.9396V103ZM42.6596 96.92C43.065 96.92 43.385 96.8133 43.6196 96.6C43.8543 96.376 43.9716 96.0613 43.9716 95.656V94.92C43.9716 94.5147 43.8543 94.2053 43.6196 93.992C43.385 93.7787 43.065 93.672 42.6596 93.672H39.9396V96.92H42.6596ZM47.8343 99.144V97.112H52.4103V99.144H47.8343ZM54.5278 103V94.648H56.5758V96.04H56.6558C56.8264 95.592 57.0931 95.2187 57.4557 94.92C57.8291 94.6107 58.3411 94.456 58.9918 94.456C59.8558 94.456 60.5171 94.7387 60.9758 95.304C61.4344 95.8693 61.6638 96.6747 61.6638 97.72V103H59.6158V97.928C59.6158 97.3307 59.5091 96.8827 59.2958 96.584C59.0824 96.2853 58.7304 96.136 58.2398 96.136C58.0264 96.136 57.8184 96.168 57.6158 96.232C57.4238 96.2853 57.2478 96.3707 57.0878 96.488C56.9384 96.5947 56.8158 96.7333 56.7198 96.904C56.6238 97.064 56.5758 97.256 56.5758 97.48V103H54.5278ZM68.926 101.608H68.846C68.7713 101.821 68.67 102.024 68.542 102.216C68.4247 102.397 68.27 102.563 68.078 102.712C67.8967 102.861 67.6727 102.979 67.406 103.064C67.15 103.149 66.8513 103.192 66.51 103.192C65.646 103.192 64.9847 102.909 64.526 102.344C64.0673 101.779 63.838 100.973 63.838 99.928V94.648H65.886V99.72C65.886 100.296 65.998 100.739 66.222 101.048C66.446 101.347 66.8033 101.496 67.294 101.496C67.4967 101.496 67.694 101.469 67.886 101.416C68.0887 101.363 68.2647 101.283 68.414 101.176C68.5633 101.059 68.686 100.92 68.782 100.76C68.878 100.589 68.926 100.392 68.926 100.168V94.648H70.974V103H68.926V101.608ZM73.3403 103V94.648H75.3883V96.04H75.4683C75.6283 95.6027 75.8843 95.2293 76.2363 94.92C76.5883 94.6107 77.0789 94.456 77.7083 94.456C78.2843 94.456 78.7803 94.5947 79.1963 94.872C79.6123 95.1493 79.9216 95.5707 80.1243 96.136H80.1562C80.3056 95.6667 80.5989 95.272 81.0363 94.952C81.4843 94.6213 82.0443 94.456 82.7163 94.456C83.5376 94.456 84.1669 94.7387 84.6043 95.304C85.0523 95.8693 85.2763 96.6747 85.2763 97.72V103H83.2283V97.928C83.2283 96.7333 82.7803 96.136 81.8843 96.136C81.6816 96.136 81.4843 96.168 81.2923 96.232C81.1109 96.2853 80.9456 96.3707 80.7963 96.488C80.6576 96.5947 80.5456 96.7333 80.4603 96.904C80.3749 97.064 80.3323 97.256 80.3323 97.48V103H78.2843V97.928C78.2843 96.7333 77.8363 96.136 76.9403 96.136C76.7483 96.136 76.5563 96.168 76.3643 96.232C76.1829 96.2853 76.0176 96.3707 75.8683 96.488C75.7296 96.5947 75.6123 96.7333 75.5163 96.904C75.4309 97.064 75.3883 97.256 75.3883 97.48V103H73.3403ZM87.5434 103V94.648H89.5914V96.04H89.6714C89.8314 95.6027 90.0874 95.2293 90.4394 94.92C90.7914 94.6107 91.282 94.456 91.9114 94.456C92.4874 94.456 92.9834 94.5947 93.3994 94.872C93.8154 95.1493 94.1247 95.5707 94.3274 96.136H94.3594C94.5087 95.6667 94.802 95.272 95.2394 94.952C95.6874 94.6213 96.2474 94.456 96.9194 94.456C97.7407 94.456 98.37 94.7387 98.8074 95.304C99.2554 95.8693 99.4794 96.6747 99.4794 97.72V103H97.4314V97.928C97.4314 96.7333 96.9834 96.136 96.0874 96.136C95.8847 96.136 95.6874 96.168 95.4954 96.232C95.314 96.2853 95.1487 96.3707 94.9994 96.488C94.8607 96.5947 94.7487 96.7333 94.6634 96.904C94.578 97.064 94.5354 97.256 94.5354 97.48V103H92.4874V97.928C92.4874 96.7333 92.0394 96.136 91.1434 96.136C90.9514 96.136 90.7594 96.168 90.5674 96.232C90.386 96.2853 90.2207 96.3707 90.0714 96.488C89.9327 96.5947 89.8154 96.7333 89.7194 96.904C89.634 97.064 89.5914 97.256 89.5914 97.48V103H87.5434ZM105.123 103.192C104.504 103.192 103.949 103.091 103.459 102.888C102.979 102.675 102.568 102.381 102.227 102.008C101.896 101.624 101.64 101.165 101.459 100.632C101.277 100.088 101.187 99.48 101.187 98.808C101.187 98.1467 101.272 97.5493 101.443 97.016C101.624 96.4827 101.88 96.0293 102.211 95.656C102.541 95.272 102.947 94.9787 103.427 94.776C103.907 94.5627 104.451 94.456 105.059 94.456C105.709 94.456 106.275 94.568 106.755 94.792C107.235 95.016 107.629 95.32 107.939 95.704C108.248 96.088 108.477 96.536 108.627 97.048C108.787 97.5493 108.867 98.088 108.867 98.664V99.336H103.315V99.544C103.315 100.152 103.485 100.643 103.827 101.016C104.168 101.379 104.675 101.56 105.347 101.56C105.859 101.56 106.275 101.453 106.595 101.24C106.925 101.027 107.219 100.755 107.475 100.424L108.579 101.656C108.237 102.136 107.768 102.515 107.171 102.792C106.584 103.059 105.901 103.192 105.123 103.192ZM105.091 95.992C104.547 95.992 104.115 96.1733 103.795 96.536C103.475 96.8987 103.315 97.368 103.315 97.944V98.072H106.739V97.928C106.739 97.352 106.595 96.888 106.307 96.536C106.029 96.1733 105.624 95.992 105.091 95.992ZM110.668 103V94.648H112.716V96.376H112.796C112.85 96.152 112.93 95.9387 113.036 95.736C113.154 95.5227 113.303 95.336 113.484 95.176C113.666 95.016 113.879 94.888 114.124 94.792C114.38 94.696 114.674 94.648 115.004 94.648H115.452V96.584H114.812C114.119 96.584 113.596 96.6853 113.244 96.888C112.892 97.0907 112.716 97.4213 112.716 97.88V103H110.668Z" fill="#1A1A1A"/>
<g filter="url(#filter0_d_5010_49117)">
<mask id="path-3-inside-1_5010_49117" fill="white">
<path fill-rule="evenodd" clip-rule="evenodd" d="M47 16C44.7909 16 43 17.7909 43 20V70C43 72.2091 44.7909 74 47 74H127L133.586 80.5858C134.367 81.3668 135.633 81.3668 136.414 80.5858L143 74H223C225.209 74 227 72.2091 227 70V20C227 17.7909 225.209 16 223 16H47Z"/>
</mask>
<path fill-rule="evenodd" clip-rule="evenodd" d="M47 16C44.7909 16 43 17.7909 43 20V70C43 72.2091 44.7909 74 47 74H127L133.586 80.5858C134.367 81.3668 135.633 81.3668 136.414 80.5858L143 74H223C225.209 74 227 72.2091 227 70V20C227 17.7909 225.209 16 223 16H47Z" fill="white"/>
<path d="M127 74L127.707 73.2929L127.414 73H127V74ZM133.586 80.5858L134.293 79.8787L133.586 80.5858ZM136.414 80.5858L137.121 81.2929L136.414 80.5858ZM143 74V73H142.586L142.293 73.2929L143 74ZM44 20C44 18.3431 45.3431 17 47 17V15C44.2386 15 42 17.2386 42 20H44ZM44 70V20H42V70H44ZM47 73C45.3431 73 44 71.6569 44 70H42C42 72.7614 44.2386 75 47 75V73ZM127 73H47V75H127V73ZM134.293 79.8787L127.707 73.2929L126.293 74.7071L132.879 81.2929L134.293 79.8787ZM135.707 79.8787C135.317 80.2692 134.683 80.2692 134.293 79.8787L132.879 81.2929C134.05 82.4645 135.95 82.4645 137.121 81.2929L135.707 79.8787ZM142.293 73.2929L135.707 79.8787L137.121 81.2929L143.707 74.7071L142.293 73.2929ZM223 73H143V75H223V73ZM226 70C226 71.6569 224.657 73 223 73V75C225.761 75 228 72.7614 228 70H226ZM226 20V70H228V20H226ZM223 17C224.657 17 226 18.3431 226 20H228C228 17.2386 225.761 15 223 15V17ZM47 17H223V15H47V17Z" fill="#747474" mask="url(#path-3-inside-1_5010_49117)"/>
</g>
<path d="M52.488 26.832H56.232C56.9253 26.832 57.5547 26.9493 58.12 27.184C58.6853 27.4187 59.1653 27.7707 59.56 28.24C59.9653 28.6987 60.2747 29.28 60.488 29.984C60.7013 30.6773 60.808 31.488 60.808 32.416C60.808 33.344 60.7013 34.16 60.488 34.864C60.2747 35.5573 59.9653 36.1387 59.56 36.608C59.1653 37.0667 58.6853 37.4133 58.12 37.648C57.5547 37.8827 56.9253 38 56.232 38H52.488V26.832ZM56.232 36.816C56.6907 36.816 57.112 36.7413 57.496 36.592C57.88 36.432 58.2107 36.2027 58.488 35.904C58.7653 35.6053 58.9787 35.2427 59.128 34.816C59.288 34.3787 59.368 33.8827 59.368 33.328V31.504C59.368 30.9493 59.288 30.4587 59.128 30.032C58.9787 29.5947 58.7653 29.2267 58.488 28.928C58.2107 28.6293 57.88 28.4053 57.496 28.256C57.112 28.096 56.6907 28.016 56.232 28.016H53.832V36.816H56.232ZM63.7344 27.808C63.457 27.808 63.2544 27.744 63.1264 27.616C63.009 27.4773 62.9504 27.3013 62.9504 27.088V26.88C62.9504 26.6667 63.009 26.496 63.1264 26.368C63.2544 26.2293 63.457 26.16 63.7344 26.16C64.0117 26.16 64.209 26.2293 64.3264 26.368C64.4544 26.496 64.5184 26.6667 64.5184 26.88V27.088C64.5184 27.3013 64.4544 27.4773 64.3264 27.616C64.209 27.744 64.0117 27.808 63.7344 27.808ZM63.0944 29.744H64.3744V38H63.0944V29.744ZM68.9184 38C68.4704 38 68.129 37.8773 67.8944 37.632C67.6704 37.376 67.5584 37.0453 67.5584 36.64V30.864H66.1984V29.744H66.9664C67.2437 29.744 67.4304 29.6907 67.5264 29.584C67.633 29.4667 67.6864 29.2693 67.6864 28.992V27.456H68.8384V29.744H70.6464V30.864H68.8384V36.88H70.5184V38H68.9184ZM80.549 38.192C79.1303 38.192 78.0263 37.712 77.237 36.752C76.4477 35.7813 76.053 34.3573 76.053 32.48C76.053 30.6027 76.4477 29.1627 77.237 28.16C78.0263 27.1467 79.1303 26.64 80.549 26.64C81.4877 26.64 82.2717 26.8533 82.901 27.28C83.541 27.7067 84.037 28.3093 84.389 29.088L83.301 29.744C83.077 29.168 82.7357 28.7093 82.277 28.368C81.8183 28.016 81.2423 27.84 80.549 27.84C80.069 27.84 79.637 27.9307 79.253 28.112C78.8797 28.2933 78.5597 28.5547 78.293 28.896C78.037 29.2267 77.8397 29.6267 77.701 30.096C77.5623 30.5547 77.493 31.072 77.493 31.648V33.312C77.493 34.464 77.7597 35.3653 78.293 36.016C78.8263 36.6667 79.5783 36.992 80.549 36.992C81.2637 36.992 81.861 36.8107 82.341 36.448C82.821 36.0747 83.173 35.584 83.397 34.976L84.469 35.648C84.117 36.4373 83.6103 37.0613 82.949 37.52C82.2877 37.968 81.4877 38.192 80.549 38.192ZM86.5505 38V26.832H90.9985C92.0012 26.832 92.7692 27.12 93.3025 27.696C93.8465 28.2613 94.1185 29.04 94.1185 30.032C94.1185 31.024 93.8465 31.808 93.3025 32.384C92.7692 32.9493 92.0012 33.232 90.9985 33.232H87.8945V38H86.5505ZM87.8945 32.048H90.9985C91.5318 32.048 91.9425 31.9093 92.2305 31.632C92.5292 31.3547 92.6785 30.96 92.6785 30.448V29.616C92.6785 29.104 92.5292 28.7093 92.2305 28.432C91.9425 28.1547 91.5318 28.016 90.9985 28.016H87.8945V32.048ZM97.5976 38H96.2536V26.832H100.702C101.683 26.832 102.446 27.104 102.99 27.648C103.544 28.192 103.822 28.976 103.822 30C103.822 30.8213 103.63 31.4987 103.246 32.032C102.872 32.5547 102.318 32.9013 101.582 33.072L104.142 38H102.622L100.206 33.2H97.5976V38ZM100.702 32.048C101.235 32.048 101.646 31.9093 101.934 31.632C102.232 31.3547 102.382 30.96 102.382 30.448V29.616C102.382 29.104 102.232 28.7093 101.934 28.432C101.646 28.1547 101.235 28.016 100.702 28.016H97.5976V32.048H100.702ZM105.87 33.824V32.448H110.046V33.824H105.87ZM112.516 38V29.744H113.796V31.088H113.86C114.063 30.6187 114.346 30.2453 114.708 29.968C115.082 29.6907 115.578 29.552 116.196 29.552C117.05 29.552 117.722 29.8293 118.212 30.384C118.714 30.928 118.964 31.7013 118.964 32.704V38H117.684V32.928C117.684 31.4453 117.06 30.704 115.812 30.704C115.556 30.704 115.306 30.736 115.06 30.8C114.826 30.864 114.612 30.96 114.42 31.088C114.228 31.216 114.074 31.3813 113.956 31.584C113.85 31.776 113.796 32.0053 113.796 32.272V38H112.516ZM126.698 36.656H126.634C126.549 36.848 126.442 37.04 126.314 37.232C126.197 37.4133 126.047 37.5787 125.866 37.728C125.685 37.8667 125.466 37.9787 125.21 38.064C124.954 38.1493 124.655 38.192 124.314 38.192C123.461 38.192 122.783 37.92 122.282 37.376C121.781 36.8213 121.53 36.0427 121.53 35.04V29.744H122.81V34.816C122.81 36.2987 123.439 37.04 124.698 37.04C124.954 37.04 125.199 37.008 125.434 36.944C125.679 36.88 125.893 36.784 126.074 36.656C126.266 36.528 126.415 36.368 126.522 36.176C126.639 35.9733 126.698 35.7333 126.698 35.456V29.744H127.978V38H126.698V36.656ZM130.704 38V29.744H131.984V31.088H132.048C132.144 30.8747 132.25 30.6773 132.368 30.496C132.496 30.304 132.645 30.1387 132.816 30C132.997 29.8613 133.205 29.7547 133.44 29.68C133.674 29.5947 133.952 29.552 134.272 29.552C134.816 29.552 135.317 29.6853 135.776 29.952C136.234 30.208 136.576 30.6347 136.8 31.232H136.832C136.981 30.784 137.258 30.3947 137.664 30.064C138.08 29.7227 138.64 29.552 139.344 29.552C140.186 29.552 140.842 29.8293 141.312 30.384C141.792 30.928 142.032 31.7013 142.032 32.704V38H140.752V32.928C140.752 32.192 140.608 31.6373 140.32 31.264C140.032 30.8907 139.573 30.704 138.944 30.704C138.688 30.704 138.442 30.736 138.208 30.8C137.984 30.864 137.781 30.96 137.6 31.088C137.418 31.216 137.274 31.3813 137.168 31.584C137.061 31.776 137.008 32.0053 137.008 32.272V38H135.728V32.928C135.728 32.192 135.584 31.6373 135.296 31.264C135.008 30.8907 134.56 30.704 133.952 30.704C133.696 30.704 133.45 30.736 133.216 30.8C132.981 30.864 132.773 30.96 132.592 31.088C132.41 31.216 132.261 31.3813 132.144 31.584C132.037 31.776 131.984 32.0053 131.984 32.272V38H130.704ZM144.673 38V29.744H145.953V31.088H146.017C146.113 30.8747 146.219 30.6773 146.337 30.496C146.465 30.304 146.614 30.1387 146.785 30C146.966 29.8613 147.174 29.7547 147.409 29.68C147.643 29.5947 147.921 29.552 148.241 29.552C148.785 29.552 149.286 29.6853 149.745 29.952C150.203 30.208 150.545 30.6347 150.769 31.232H150.801C150.95 30.784 151.227 30.3947 151.633 30.064C152.049 29.7227 152.609 29.552 153.312 29.552C154.155 29.552 154.811 29.8293 155.281 30.384C155.761 30.928 156.001 31.7013 156.001 32.704V38H154.721V32.928C154.721 32.192 154.577 31.6373 154.289 31.264C154.001 30.8907 153.542 30.704 152.913 30.704C152.657 30.704 152.411 30.736 152.177 30.8C151.953 30.864 151.75 30.96 151.569 31.088C151.387 31.216 151.243 31.3813 151.137 31.584C151.03 31.776 150.977 32.0053 150.977 32.272V38H149.697V32.928C149.697 32.192 149.553 31.6373 149.265 31.264C148.977 30.8907 148.529 30.704 147.921 30.704C147.665 30.704 147.419 30.736 147.185 30.8C146.95 30.864 146.742 30.96 146.561 31.088C146.379 31.216 146.23 31.3813 146.113 31.584C146.006 31.776 145.953 32.0053 145.953 32.272V38H144.673ZM161.745 38.192C161.18 38.192 160.668 38.0907 160.209 37.888C159.761 37.6853 159.372 37.3973 159.041 37.024C158.721 36.64 158.471 36.1867 158.289 35.664C158.119 35.1307 158.033 34.5333 158.033 33.872C158.033 33.2213 158.119 32.6293 158.289 32.096C158.471 31.5627 158.721 31.1093 159.041 30.736C159.372 30.352 159.761 30.0587 160.209 29.856C160.668 29.6533 161.18 29.552 161.745 29.552C162.3 29.552 162.796 29.6533 163.233 29.856C163.671 30.0587 164.044 30.3413 164.353 30.704C164.663 31.056 164.897 31.4773 165.057 31.968C165.228 32.4587 165.313 32.9973 165.313 33.584V34.192H159.377V34.576C159.377 34.928 159.431 35.2587 159.537 35.568C159.655 35.8667 159.815 36.128 160.017 36.352C160.231 36.576 160.487 36.752 160.785 36.88C161.095 37.008 161.441 37.072 161.825 37.072C162.348 37.072 162.801 36.9493 163.185 36.704C163.58 36.4587 163.884 36.1067 164.097 35.648L165.009 36.304C164.743 36.8693 164.327 37.328 163.761 37.68C163.196 38.0213 162.524 38.192 161.745 38.192ZM161.745 30.624C161.393 30.624 161.073 30.688 160.785 30.816C160.497 30.9333 160.247 31.104 160.033 31.328C159.831 31.552 159.671 31.8187 159.553 32.128C159.436 32.4267 159.377 32.7573 159.377 33.12V33.232H163.937V33.056C163.937 32.32 163.735 31.7333 163.329 31.296C162.935 30.848 162.407 30.624 161.745 30.624ZM167.423 38V29.744H168.703V31.264H168.783C168.932 30.8693 169.199 30.5173 169.583 30.208C169.967 29.8987 170.495 29.744 171.167 29.744H171.663V31.024H170.911C170.217 31.024 169.673 31.1573 169.279 31.424C168.895 31.68 168.703 32.0053 168.703 32.4V38H167.423ZM179.559 38.192C178.791 38.192 178.145 38.048 177.623 37.76C177.111 37.4613 176.668 37.0667 176.295 36.576L177.207 35.84C177.527 36.2453 177.884 36.56 178.279 36.784C178.673 36.9973 179.132 37.104 179.655 37.104C180.199 37.104 180.62 36.9867 180.919 36.752C181.228 36.5173 181.383 36.1867 181.383 35.76C181.383 35.44 181.276 35.168 181.063 34.944C180.86 34.7093 180.487 34.5493 179.943 34.464L179.287 34.368C178.903 34.3147 178.551 34.2347 178.231 34.128C177.911 34.0107 177.628 33.8613 177.383 33.68C177.148 33.488 176.961 33.2533 176.823 32.976C176.695 32.6987 176.631 32.368 176.631 31.984C176.631 31.5787 176.705 31.2267 176.855 30.928C177.004 30.6187 177.207 30.3627 177.463 30.16C177.729 29.9573 178.044 29.808 178.407 29.712C178.769 29.6053 179.159 29.552 179.575 29.552C180.247 29.552 180.807 29.6693 181.255 29.904C181.713 30.1387 182.113 30.464 182.455 30.88L181.607 31.648C181.425 31.392 181.159 31.1627 180.807 30.96C180.455 30.7467 180.012 30.64 179.479 30.64C178.945 30.64 178.54 30.7573 178.263 30.992C177.996 31.216 177.863 31.5253 177.863 31.92C177.863 32.3253 177.996 32.6187 178.263 32.8C178.54 32.9813 178.935 33.1147 179.447 33.2L180.087 33.296C181.004 33.4347 181.655 33.7013 182.039 34.096C182.423 34.48 182.615 34.9867 182.615 35.616C182.615 36.416 182.343 37.0453 181.799 37.504C181.255 37.9627 180.508 38.192 179.559 38.192ZM184.876 26.16H186.156V33.664H186.22L187.484 32.256L189.82 29.744H191.372L188.316 33.008L191.676 38H190.124L187.388 33.792L186.156 35.056V38H184.876V26.16ZM199.235 38C198.755 38 198.408 37.872 198.195 37.616C197.992 37.36 197.864 37.04 197.811 36.656H197.731C197.55 37.168 197.251 37.552 196.835 37.808C196.419 38.064 195.923 38.192 195.347 38.192C194.472 38.192 193.79 37.968 193.299 37.52C192.819 37.072 192.579 36.464 192.579 35.696C192.579 34.9173 192.862 34.32 193.427 33.904C194.003 33.488 194.894 33.28 196.099 33.28H197.731V32.464C197.731 31.8773 197.571 31.4293 197.251 31.12C196.931 30.8107 196.44 30.656 195.779 30.656C195.278 30.656 194.856 30.768 194.515 30.992C194.184 31.216 193.907 31.5147 193.683 31.888L192.915 31.168C193.139 30.72 193.496 30.3413 193.987 30.032C194.478 29.712 195.096 29.552 195.843 29.552C196.846 29.552 197.624 29.7973 198.179 30.288C198.734 30.7787 199.011 31.4613 199.011 32.336V36.88H199.955V38H199.235ZM195.555 37.104C195.875 37.104 196.168 37.0667 196.435 36.992C196.702 36.9173 196.931 36.8107 197.123 36.672C197.315 36.5333 197.464 36.3733 197.571 36.192C197.678 36.0107 197.731 35.8133 197.731 35.6V34.24H196.035C195.299 34.24 194.76 34.3467 194.419 34.56C194.088 34.7733 193.923 35.0827 193.923 35.488V35.824C193.923 36.2293 194.067 36.544 194.355 36.768C194.654 36.992 195.054 37.104 195.555 37.104ZM203.142 38C202.694 38 202.353 37.8773 202.118 37.632C201.894 37.376 201.782 37.056 201.782 36.672V26.16H203.062V36.88H204.278V38H203.142ZM54.84 62.192C54.072 62.192 53.4267 62.048 52.904 61.76C52.392 61.4613 51.9493 61.0667 51.576 60.576L52.488 59.84C52.808 60.2453 53.1653 60.56 53.56 60.784C53.9547 60.9973 54.4133 61.104 54.936 61.104C55.48 61.104 55.9013 60.9867 56.2 60.752C56.5093 60.5173 56.664 60.1867 56.664 59.76C56.664 59.44 56.5573 59.168 56.344 58.944C56.1413 58.7093 55.768 58.5493 55.224 58.464L54.568 58.368C54.184 58.3147 53.832 58.2347 53.512 58.128C53.192 58.0107 52.9093 57.8613 52.664 57.68C52.4293 57.488 52.2427 57.2533 52.104 56.976C51.976 56.6987 51.912 56.368 51.912 55.984C51.912 55.5787 51.9867 55.2267 52.136 54.928C52.2853 54.6187 52.488 54.3627 52.744 54.16C53.0107 53.9573 53.3253 53.808 53.688 53.712C54.0507 53.6053 54.44 53.552 54.856 53.552C55.528 53.552 56.088 53.6693 56.536 53.904C56.9947 54.1387 57.3947 54.464 57.736 54.88L56.888 55.648C56.7067 55.392 56.44 55.1627 56.088 54.96C55.736 54.7467 55.2933 54.64 54.76 54.64C54.2267 54.64 53.8213 54.7573 53.544 54.992C53.2773 55.216 53.144 55.5253 53.144 55.92C53.144 56.3253 53.2773 56.6187 53.544 56.8C53.8213 56.9813 54.216 57.1147 54.728 57.2L55.368 57.296C56.2853 57.4347 56.936 57.7013 57.32 58.096C57.704 58.48 57.896 58.9867 57.896 59.616C57.896 60.416 57.624 61.0453 57.08 61.504C56.536 61.9627 55.7893 62.192 54.84 62.192ZM60.1569 50.16H61.4369V57.664H61.5009L62.7649 56.256L65.1009 53.744H66.6529L63.5969 57.008L66.9569 62H65.4049L62.6689 57.792L61.4369 59.056V62H60.1569V50.16ZM68.5944 62V53.744H69.8744V55.264H69.9544C70.1037 54.8693 70.3704 54.5173 70.7544 54.208C71.1384 53.8987 71.6664 53.744 72.3384 53.744H72.8344V55.024H72.0824C71.389 55.024 70.845 55.1573 70.4504 55.424C70.0664 55.68 69.8744 56.0053 69.8744 56.4V62H68.5944ZM75.1094 51.808C74.832 51.808 74.6294 51.744 74.5014 51.616C74.384 51.4773 74.3254 51.3013 74.3254 51.088V50.88C74.3254 50.6667 74.384 50.496 74.5014 50.368C74.6294 50.2293 74.832 50.16 75.1094 50.16C75.3867 50.16 75.584 50.2293 75.7014 50.368C75.8294 50.496 75.8934 50.6667 75.8934 50.88V51.088C75.8934 51.3013 75.8294 51.4773 75.7014 51.616C75.584 51.744 75.3867 51.808 75.1094 51.808ZM74.4694 53.744H75.7494V62H74.4694V53.744ZM80.2934 62L77.3974 53.744H78.6774L80.1174 57.84L81.0134 60.656H81.0934L81.9894 57.84L83.4614 53.744H84.6934L81.7814 62H80.2934ZM89.3234 62.192C88.758 62.192 88.246 62.0907 87.7874 61.888C87.3394 61.6853 86.95 61.3973 86.6194 61.024C86.2994 60.64 86.0487 60.1867 85.8674 59.664C85.6967 59.1307 85.6114 58.5333 85.6114 57.872C85.6114 57.2213 85.6967 56.6293 85.8674 56.096C86.0487 55.5627 86.2994 55.1093 86.6194 54.736C86.95 54.352 87.3394 54.0587 87.7874 53.856C88.246 53.6533 88.758 53.552 89.3234 53.552C89.878 53.552 90.374 53.6533 90.8114 53.856C91.2487 54.0587 91.622 54.3413 91.9314 54.704C92.2407 55.056 92.4754 55.4773 92.6354 55.968C92.806 56.4587 92.8914 56.9973 92.8914 57.584V58.192H86.9554V58.576C86.9554 58.928 87.0087 59.2587 87.1154 59.568C87.2327 59.8667 87.3927 60.128 87.5954 60.352C87.8087 60.576 88.0647 60.752 88.3634 60.88C88.6727 61.008 89.0194 61.072 89.4034 61.072C89.926 61.072 90.3794 60.9493 90.7634 60.704C91.158 60.4587 91.462 60.1067 91.6754 59.648L92.5874 60.304C92.3207 60.8693 91.9047 61.328 91.3394 61.68C90.774 62.0213 90.102 62.192 89.3234 62.192ZM89.3234 54.624C88.9714 54.624 88.6514 54.688 88.3634 54.816C88.0754 54.9333 87.8247 55.104 87.6114 55.328C87.4087 55.552 87.2487 55.8187 87.1314 56.128C87.014 56.4267 86.9554 56.7573 86.9554 57.12V57.232H91.5154V57.056C91.5154 56.32 91.3127 55.7333 90.9074 55.296C90.5127 54.848 89.9847 54.624 89.3234 54.624ZM97.4806 62.192C96.7126 62.192 96.0673 62.048 95.5446 61.76C95.0326 61.4613 94.59 61.0667 94.2166 60.576L95.1286 59.84C95.4486 60.2453 95.806 60.56 96.2006 60.784C96.5953 60.9973 97.054 61.104 97.5766 61.104C98.1206 61.104 98.542 60.9867 98.8406 60.752C99.15 60.5173 99.3046 60.1867 99.3046 59.76C99.3046 59.44 99.198 59.168 98.9846 58.944C98.782 58.7093 98.4086 58.5493 97.8646 58.464L97.2086 58.368C96.8246 58.3147 96.4726 58.2347 96.1526 58.128C95.8326 58.0107 95.55 57.8613 95.3046 57.68C95.07 57.488 94.8833 57.2533 94.7446 56.976C94.6166 56.6987 94.5526 56.368 94.5526 55.984C94.5526 55.5787 94.6273 55.2267 94.7766 54.928C94.926 54.6187 95.1286 54.3627 95.3846 54.16C95.6513 53.9573 95.966 53.808 96.3286 53.712C96.6913 53.6053 97.0806 53.552 97.4966 53.552C98.1686 53.552 98.7286 53.6693 99.1766 53.904C99.6353 54.1387 100.035 54.464 100.377 54.88L99.5286 55.648C99.3473 55.392 99.0806 55.1627 98.7286 54.96C98.3766 54.7467 97.934 54.64 97.4006 54.64C96.8673 54.64 96.462 54.7573 96.1846 54.992C95.918 55.216 95.7846 55.5253 95.7846 55.92C95.7846 56.3253 95.918 56.6187 96.1846 56.8C96.462 56.9813 96.8566 57.1147 97.3686 57.2L98.0086 57.296C98.926 57.4347 99.5766 57.7013 99.9606 58.096C100.345 58.48 100.537 58.9867 100.537 59.616C100.537 60.416 100.265 61.0453 99.7206 61.504C99.1766 61.9627 98.43 62.192 97.4806 62.192ZM106.579 62V53.744H107.859V55.088H107.923C108.019 54.8747 108.125 54.6773 108.243 54.496C108.371 54.304 108.52 54.1387 108.691 54C108.872 53.8613 109.08 53.7547 109.315 53.68C109.549 53.5947 109.827 53.552 110.147 53.552C110.691 53.552 111.192 53.6853 111.651 53.952C112.109 54.208 112.451 54.6347 112.675 55.232H112.707C112.856 54.784 113.133 54.3947 113.539 54.064C113.955 53.7227 114.515 53.552 115.219 53.552C116.061 53.552 116.717 53.8293 117.187 54.384C117.667 54.928 117.907 55.7013 117.907 56.704V62H116.627V56.928C116.627 56.192 116.483 55.6373 116.195 55.264C115.907 54.8907 115.448 54.704 114.819 54.704C114.563 54.704 114.317 54.736 114.083 54.8C113.859 54.864 113.656 54.96 113.475 55.088C113.293 55.216 113.149 55.3813 113.043 55.584C112.936 55.776 112.883 56.0053 112.883 56.272V62H111.603V56.928C111.603 56.192 111.459 55.6373 111.171 55.264C110.883 54.8907 110.435 54.704 109.827 54.704C109.571 54.704 109.325 54.736 109.091 54.8C108.856 54.864 108.648 54.96 108.467 55.088C108.285 55.216 108.136 55.3813 108.019 55.584C107.912 55.776 107.859 56.0053 107.859 56.272V62H106.579ZM123.652 62.192C123.086 62.192 122.574 62.0907 122.116 61.888C121.668 61.6853 121.278 61.3973 120.948 61.024C120.628 60.64 120.377 60.1867 120.196 59.664C120.025 59.1307 119.94 58.5333 119.94 57.872C119.94 57.2213 120.025 56.6293 120.196 56.096C120.377 55.5627 120.628 55.1093 120.948 54.736C121.278 54.352 121.668 54.0587 122.116 53.856C122.574 53.6533 123.086 53.552 123.652 53.552C124.206 53.552 124.702 53.6533 125.14 53.856C125.577 54.0587 125.95 54.3413 126.26 54.704C126.569 55.056 126.804 55.4773 126.964 55.968C127.134 56.4587 127.22 56.9973 127.22 57.584V58.192H121.284V58.576C121.284 58.928 121.337 59.2587 121.444 59.568C121.561 59.8667 121.721 60.128 121.924 60.352C122.137 60.576 122.393 60.752 122.692 60.88C123.001 61.008 123.348 61.072 123.732 61.072C124.254 61.072 124.708 60.9493 125.092 60.704C125.486 60.4587 125.79 60.1067 126.004 59.648L126.916 60.304C126.649 60.8693 126.233 61.328 125.668 61.68C125.102 62.0213 124.43 62.192 123.652 62.192ZM123.652 54.624C123.3 54.624 122.98 54.688 122.692 54.816C122.404 54.9333 122.153 55.104 121.94 55.328C121.737 55.552 121.577 55.8187 121.46 56.128C121.342 56.4267 121.284 56.7573 121.284 57.12V57.232H125.844V57.056C125.844 56.32 125.641 55.7333 125.236 55.296C124.841 54.848 124.313 54.624 123.652 54.624ZM134.609 60.656H134.545C134.043 61.68 133.238 62.192 132.129 62.192C131.617 62.192 131.153 62.0907 130.737 61.888C130.321 61.6853 129.963 61.3973 129.665 61.024C129.377 60.6507 129.153 60.1973 128.993 59.664C128.843 59.1307 128.769 58.5333 128.769 57.872C128.769 57.2107 128.843 56.6133 128.993 56.08C129.153 55.5467 129.377 55.0933 129.665 54.72C129.963 54.3467 130.321 54.0587 130.737 53.856C131.153 53.6533 131.617 53.552 132.129 53.552C132.705 53.552 133.195 53.68 133.601 53.936C134.017 54.1813 134.331 54.5653 134.545 55.088H134.609V50.16H135.889V62H134.609V60.656ZM132.481 61.04C132.769 61.04 133.041 61.0027 133.297 60.928C133.563 60.8533 133.793 60.7467 133.985 60.608C134.177 60.4587 134.326 60.2827 134.433 60.08C134.55 59.8667 134.609 59.6267 134.609 59.36V56.288C134.609 56.064 134.55 55.856 134.433 55.664C134.326 55.4613 134.177 55.2907 133.985 55.152C133.793 55.0133 133.563 54.9067 133.297 54.832C133.041 54.7467 132.769 54.704 132.481 54.704C131.755 54.704 131.185 54.9333 130.769 55.392C130.353 55.84 130.145 56.432 130.145 57.168V58.576C130.145 59.312 130.353 59.9093 130.769 60.368C131.185 60.816 131.755 61.04 132.481 61.04ZM142.391 50.16H143.671V55.088H143.735C143.949 54.5653 144.258 54.1813 144.663 53.936C145.079 53.68 145.575 53.552 146.151 53.552C146.663 53.552 147.127 53.6533 147.543 53.856C147.959 54.0587 148.311 54.3467 148.599 54.72C148.898 55.0933 149.122 55.5467 149.271 56.08C149.431 56.6133 149.511 57.2107 149.511 57.872C149.511 58.5333 149.431 59.1307 149.271 59.664C149.122 60.1973 148.898 60.6507 148.599 61.024C148.311 61.3973 147.959 61.6853 147.543 61.888C147.127 62.0907 146.663 62.192 146.151 62.192C145.031 62.192 144.226 61.68 143.735 60.656H143.671V62H142.391V50.16ZM145.799 61.04C146.525 61.04 147.095 60.816 147.511 60.368C147.927 59.9093 148.135 59.312 148.135 58.576V57.168C148.135 56.432 147.927 55.84 147.511 55.392C147.095 54.9333 146.525 54.704 145.799 54.704C145.511 54.704 145.234 54.7467 144.967 54.832C144.711 54.9067 144.487 55.0133 144.295 55.152C144.103 55.2907 143.949 55.4613 143.831 55.664C143.725 55.856 143.671 56.064 143.671 56.288V59.36C143.671 59.6267 143.725 59.8667 143.831 60.08C143.949 60.2827 144.103 60.4587 144.295 60.608C144.487 60.7467 144.711 60.8533 144.967 60.928C145.234 61.0027 145.511 61.04 145.799 61.04ZM152.312 51.808C152.035 51.808 151.833 51.744 151.705 51.616C151.587 51.4773 151.529 51.3013 151.529 51.088V50.88C151.529 50.6667 151.587 50.496 151.705 50.368C151.833 50.2293 152.035 50.16 152.312 50.16C152.59 50.16 152.787 50.2293 152.905 50.368C153.033 50.496 153.097 50.6667 153.097 50.88V51.088C153.097 51.3013 153.033 51.4773 152.905 51.616C152.787 51.744 152.59 51.808 152.312 51.808ZM151.673 53.744H152.953V62H151.673V53.744ZM155.673 62V53.744H156.953V55.088H157.017C157.219 54.6187 157.502 54.2453 157.865 53.968C158.238 53.6907 158.734 53.552 159.353 53.552C160.206 53.552 160.878 53.8293 161.369 54.384C161.87 54.928 162.121 55.7013 162.121 56.704V62H160.841V56.928C160.841 55.4453 160.217 54.704 158.969 54.704C158.713 54.704 158.462 54.736 158.217 54.8C157.982 54.864 157.769 54.96 157.577 55.088C157.385 55.216 157.23 55.3813 157.113 55.584C157.006 55.776 156.953 56.0053 156.953 56.272V62H155.673ZM170.046 60.656H169.982C169.481 61.68 168.676 62.192 167.566 62.192C167.054 62.192 166.59 62.0907 166.174 61.888C165.758 61.6853 165.401 61.3973 165.102 61.024C164.814 60.6507 164.59 60.1973 164.43 59.664C164.281 59.1307 164.206 58.5333 164.206 57.872C164.206 57.2107 164.281 56.6133 164.43 56.08C164.59 55.5467 164.814 55.0933 165.102 54.72C165.401 54.3467 165.758 54.0587 166.174 53.856C166.59 53.6533 167.054 53.552 167.566 53.552C168.142 53.552 168.633 53.68 169.038 53.936C169.454 54.1813 169.769 54.5653 169.982 55.088H170.046V50.16H171.326V62H170.046V60.656ZM167.918 61.04C168.206 61.04 168.478 61.0027 168.734 60.928C169.001 60.8533 169.23 60.7467 169.422 60.608C169.614 60.4587 169.764 60.2827 169.87 60.08C169.988 59.8667 170.046 59.6267 170.046 59.36V56.288C170.046 56.064 169.988 55.856 169.87 55.664C169.764 55.4613 169.614 55.2907 169.422 55.152C169.23 55.0133 169.001 54.9067 168.734 54.832C168.478 54.7467 168.206 54.704 167.918 54.704C167.193 54.704 166.622 54.9333 166.206 55.392C165.79 55.84 165.582 56.432 165.582 57.168V58.576C165.582 59.312 165.79 59.9093 166.206 60.368C166.622 60.816 167.193 61.04 167.918 61.04ZM177.152 62.192C176.586 62.192 176.074 62.0907 175.616 61.888C175.168 61.6853 174.778 61.3973 174.448 61.024C174.128 60.64 173.877 60.1867 173.696 59.664C173.525 59.1307 173.44 58.5333 173.44 57.872C173.44 57.2213 173.525 56.6293 173.696 56.096C173.877 55.5627 174.128 55.1093 174.448 54.736C174.778 54.352 175.168 54.0587 175.616 53.856C176.074 53.6533 176.586 53.552 177.152 53.552C177.706 53.552 178.202 53.6533 178.64 53.856C179.077 54.0587 179.45 54.3413 179.76 54.704C180.069 55.056 180.304 55.4773 180.464 55.968C180.634 56.4587 180.72 56.9973 180.72 57.584V58.192H174.784V58.576C174.784 58.928 174.837 59.2587 174.944 59.568C175.061 59.8667 175.221 60.128 175.424 60.352C175.637 60.576 175.893 60.752 176.192 60.88C176.501 61.008 176.848 61.072 177.232 61.072C177.754 61.072 178.208 60.9493 178.592 60.704C178.986 60.4587 179.29 60.1067 179.504 59.648L180.416 60.304C180.149 60.8693 179.733 61.328 179.168 61.68C178.602 62.0213 177.93 62.192 177.152 62.192ZM177.152 54.624C176.8 54.624 176.48 54.688 176.192 54.816C175.904 54.9333 175.653 55.104 175.44 55.328C175.237 55.552 175.077 55.8187 174.96 56.128C174.842 56.4267 174.784 56.7573 174.784 57.12V57.232H179.344V57.056C179.344 56.32 179.141 55.7333 178.736 55.296C178.341 54.848 177.813 54.624 177.152 54.624ZM185.309 62.192C184.541 62.192 183.895 62.048 183.373 61.76C182.861 61.4613 182.418 61.0667 182.045 60.576L182.957 59.84C183.277 60.2453 183.634 60.56 184.029 60.784C184.423 60.9973 184.882 61.104 185.405 61.104C185.949 61.104 186.37 60.9867 186.669 60.752C186.978 60.5173 187.133 60.1867 187.133 59.76C187.133 59.44 187.026 59.168 186.813 58.944C186.61 58.7093 186.237 58.5493 185.693 58.464L185.037 58.368C184.653 58.3147 184.301 58.2347 183.981 58.128C183.661 58.0107 183.378 57.8613 183.133 57.68C182.898 57.488 182.711 57.2533 182.573 56.976C182.445 56.6987 182.381 56.368 182.381 55.984C182.381 55.5787 182.455 55.2267 182.605 54.928C182.754 54.6187 182.957 54.3627 183.213 54.16C183.479 53.9573 183.794 53.808 184.157 53.712C184.519 53.6053 184.909 53.552 185.325 53.552C185.997 53.552 186.557 53.6693 187.005 53.904C187.463 54.1387 187.863 54.464 188.205 54.88L187.357 55.648C187.175 55.392 186.909 55.1627 186.557 54.96C186.205 54.7467 185.762 54.64 185.229 54.64C184.695 54.64 184.29 54.7573 184.013 54.992C183.746 55.216 183.613 55.5253 183.613 55.92C183.613 56.3253 183.746 56.6187 184.013 56.8C184.29 56.9813 184.685 57.1147 185.197 57.2L185.837 57.296C186.754 57.4347 187.405 57.7013 187.789 58.096C188.173 58.48 188.365 58.9867 188.365 59.616C188.365 60.416 188.093 61.0453 187.549 61.504C187.005 61.9627 186.258 62.192 185.309 62.192ZM192.34 62C191.892 62 191.551 61.8773 191.316 61.632C191.092 61.376 190.98 61.0453 190.98 60.64V54.864H189.62V53.744H190.388C190.666 53.744 190.852 53.6907 190.948 53.584C191.055 53.4667 191.108 53.2693 191.108 52.992V51.456H192.26V53.744H194.068V54.864H192.26V60.88H193.94V62H192.34ZM196.126 62V53.744H197.406V55.264H197.486C197.635 54.8693 197.902 54.5173 198.286 54.208C198.67 53.8987 199.198 53.744 199.87 53.744H200.366V55.024H199.614C198.92 55.024 198.376 55.1573 197.982 55.424C197.598 55.68 197.406 56.0053 197.406 56.4V62H196.126ZM205.027 62.192C204.461 62.192 203.949 62.0907 203.491 61.888C203.043 61.6853 202.653 61.3973 202.323 61.024C202.003 60.64 201.752 60.1867 201.571 59.664C201.4 59.1307 201.315 58.5333 201.315 57.872C201.315 57.2213 201.4 56.6293 201.571 56.096C201.752 55.5627 202.003 55.1093 202.323 54.736C202.653 54.352 203.043 54.0587 203.491 53.856C203.949 53.6533 204.461 53.552 205.027 53.552C205.581 53.552 206.077 53.6533 206.515 53.856C206.952 54.0587 207.325 54.3413 207.635 54.704C207.944 55.056 208.179 55.4773 208.339 55.968C208.509 56.4587 208.595 56.9973 208.595 57.584V58.192H202.659V58.576C202.659 58.928 202.712 59.2587 202.819 59.568C202.936 59.8667 203.096 60.128 203.299 60.352C203.512 60.576 203.768 60.752 204.067 60.88C204.376 61.008 204.723 61.072 205.107 61.072C205.629 61.072 206.083 60.9493 206.467 60.704C206.861 60.4587 207.165 60.1067 207.379 59.648L208.291 60.304C208.024 60.8693 207.608 61.328 207.043 61.68C206.477 62.0213 205.805 62.192 205.027 62.192ZM205.027 54.624C204.675 54.624 204.355 54.688 204.067 54.816C203.779 54.9333 203.528 55.104 203.315 55.328C203.112 55.552 202.952 55.8187 202.835 56.128C202.717 56.4267 202.659 56.7573 202.659 57.12V57.232H207.219V57.056C207.219 56.32 207.016 55.7333 206.611 55.296C206.216 54.848 205.688 54.624 205.027 54.624ZM217.664 62.912C217.664 63.7653 217.328 64.3893 216.656 64.784C215.994 65.1893 214.997 65.392 213.664 65.392C212.373 65.392 211.445 65.216 210.88 64.864C210.314 64.512 210.032 64.0107 210.032 63.36C210.032 62.912 210.149 62.56 210.384 62.304C210.618 62.0587 210.938 61.8773 211.344 61.76V61.584C210.853 61.3493 210.608 60.9653 210.608 60.432C210.608 60.016 210.741 59.7013 211.008 59.488C211.274 59.264 211.616 59.0987 212.032 58.992V58.928C211.541 58.6933 211.157 58.3573 210.88 57.92C210.613 57.4827 210.48 56.976 210.48 56.4C210.48 55.984 210.554 55.6 210.704 55.248C210.853 54.896 211.061 54.5973 211.328 54.352C211.605 54.096 211.93 53.8987 212.304 53.76C212.688 53.6213 213.114 53.552 213.584 53.552C214.17 53.552 214.693 53.6587 215.152 53.872V53.728C215.152 53.408 215.226 53.1467 215.376 52.944C215.525 52.7307 215.77 52.624 216.112 52.624H217.344V53.744H215.776V54.272C216.074 54.528 216.304 54.8373 216.464 55.2C216.634 55.552 216.72 55.952 216.72 56.4C216.72 56.816 216.645 57.2 216.496 57.552C216.346 57.904 216.133 58.208 215.856 58.464C215.589 58.7093 215.264 58.9013 214.88 59.04C214.496 59.1787 214.069 59.248 213.6 59.248C213.333 59.248 213.066 59.2213 212.8 59.168C212.522 59.2427 212.272 59.3547 212.048 59.504C211.824 59.6427 211.712 59.84 211.712 60.096C211.712 60.3413 211.829 60.5067 212.064 60.592C212.298 60.6773 212.602 60.72 212.976 60.72H214.736C215.76 60.72 216.501 60.9173 216.96 61.312C217.429 61.696 217.664 62.2293 217.664 62.912ZM216.464 63.008C216.464 62.6773 216.336 62.4107 216.08 62.208C215.834 62.016 215.392 61.92 214.752 61.92H212C211.488 62.1547 211.232 62.528 211.232 63.04C211.232 63.4027 211.365 63.712 211.632 63.968C211.909 64.224 212.373 64.352 213.024 64.352H214.208C214.922 64.352 215.477 64.24 215.872 64.016C216.266 63.792 216.464 63.456 216.464 63.008ZM213.6 58.224C214.144 58.224 214.576 58.096 214.896 57.84C215.216 57.5733 215.376 57.168 215.376 56.624V56.176C215.376 55.632 215.216 55.232 214.896 54.976C214.576 54.7093 214.144 54.576 213.6 54.576C213.056 54.576 212.624 54.7093 212.304 54.976C211.984 55.232 211.824 55.632 211.824 56.176V56.624C211.824 57.168 211.984 57.5733 212.304 57.84C212.624 58.096 213.056 58.224 213.6 58.224Z" fill="black"/>
<path d="M135 108C133.022 108 131.089 107.414 129.444 106.315C127.8 105.216 126.518 103.654 125.761 101.827C125.004 99.9996 124.806 97.9889 125.192 96.0491C125.578 94.1093 126.53 92.3275 127.929 90.9289C129.327 89.5304 131.109 88.578 133.049 88.1922C134.989 87.8063 137 88.0043 138.827 88.7612C140.654 89.5181 142.216 90.7998 143.315 92.4443C144.414 94.0888 145 96.0222 145 98C144.997 100.651 143.943 103.193 142.068 105.068C140.193 106.943 137.651 107.997 135 108ZM135 90C133.418 90 131.871 90.4692 130.555 91.3482C129.24 92.2273 128.214 93.4767 127.609 94.9385C127.003 96.4003 126.845 98.0089 127.154 99.5607C127.462 101.113 128.224 102.538 129.343 103.657C130.462 104.776 131.887 105.538 133.439 105.846C134.991 106.155 136.6 105.997 138.061 105.391C139.523 104.786 140.773 103.76 141.652 102.445C142.531 101.129 143 99.5823 143 98C142.998 95.879 142.154 93.8456 140.654 92.3458C139.154 90.846 137.121 90.0024 135 90ZM136 104H134V102H136V104ZM136 101H134C133.984 100.361 134.14 99.7285 134.452 99.1697C134.763 98.6108 135.218 98.1455 135.77 97.822C136.43 97.316 137 96.879 137 96C137 95.4696 136.789 94.9609 136.414 94.5858C136.039 94.2107 135.53 94 135 94C134.47 94 133.961 94.2107 133.586 94.5858C133.211 94.9609 133 95.4696 133 96H131C131 94.9391 131.421 93.9217 132.172 93.1716C132.922 92.4214 133.939 92 135 92C136.061 92 137.078 92.4214 137.828 93.1716C138.579 93.9217 139 94.9391 139 96C138.965 96.5321 138.805 97.0485 138.534 97.5079C138.263 97.9672 137.889 98.3567 137.44 98.645C137.034 98.8996 136.693 99.2448 136.443 99.6534C136.194 100.062 136.042 100.523 136 101Z" fill="#1A1A1A"/>
<defs>
<filter id="filter0_d_5010_49117" x="35" y="12" width="200" height="81.1719" filterUnits="userSpaceOnUse" color-interpolation-filters="sRGB">
<feFlood flood-opacity="0" result="BackgroundImageFix"/>
<feColorMatrix in="SourceAlpha" type="matrix" values="0 0 0 0 0 0 0 0 0 0 0 0 0 0 0 0 0 0 127 0" result="hardAlpha"/>
<feOffset dy="4"/>
<feGaussianBlur stdDeviation="4"/>
<feColorMatrix type="matrix" values="0 0 0 0 0 0 0 0 0 0 0 0 0 0 0 0 0 0 0.302 0"/>
<feBlend mode="normal" in2="BackgroundImageFix" result="effect1_dropShadow_5010_49117"/>
<feBlend mode="normal" in="SourceGraphic" in2="effect1_dropShadow_5010_49117" result="shape"/>
</filter>
</defs>
</svg>
