<svg width="1031" height="684" viewBox="0 0 1031 684" fill="none" xmlns="http://www.w3.org/2000/svg">
<rect x="86" y="79" width="945" height="1" fill="#454545"/>
<rect x="86" y="170" width="945" height="1" fill="#454545"/>
<rect x="86" y="261" width="945" height="1" fill="#454545"/>
<rect x="86" y="443" width="945" height="1" fill="#454545"/>
<rect x="86" y="534" width="945" height="1" fill="#454545"/>
<rect x="86" y="625" width="945" height="1" fill="#454545"/>
<rect x="86" y="352" width="945" height="1" fill="#454545"/>
<path d="M426.11 666.52H419.99L419.59 671.84H419.73C420.064 671.373 420.437 671 420.85 670.72C421.277 670.44 421.857 670.3 422.59 670.3C423.19 670.3 423.744 670.4 424.25 670.6C424.757 670.8 425.197 671.087 425.57 671.46C425.944 671.82 426.23 672.267 426.43 672.8C426.644 673.333 426.75 673.94 426.75 674.62C426.75 675.3 426.644 675.927 426.43 676.5C426.217 677.06 425.904 677.547 425.49 677.96C425.09 678.36 424.597 678.673 424.01 678.9C423.437 679.127 422.784 679.24 422.05 679.24C421.464 679.24 420.944 679.173 420.49 679.04C420.05 678.907 419.657 678.727 419.31 678.5C418.964 678.273 418.657 678.02 418.39 677.74C418.137 677.46 417.904 677.167 417.69 676.86L418.95 675.9C419.124 676.18 419.304 676.433 419.49 676.66C419.69 676.887 419.904 677.08 420.13 677.24C420.37 677.4 420.644 677.527 420.95 677.62C421.257 677.7 421.624 677.74 422.05 677.74C423.01 677.74 423.737 677.487 424.23 676.98C424.724 676.473 424.97 675.76 424.97 674.84V674.64C424.97 673.72 424.724 673.007 424.23 672.5C423.737 671.993 423.01 671.74 422.05 671.74C421.41 671.74 420.904 671.86 420.53 672.1C420.17 672.327 419.844 672.6 419.55 672.92L418.13 672.72L418.63 665.04H426.11V666.52ZM429.523 673.78V672.06H434.743V673.78H429.523ZM437.891 679V677.52H441.791V666.28H441.651L438.131 669.56L437.151 668.5L440.851 665.04H443.471V677.52H447.071V679H437.891ZM454.123 679.24C452.456 679.24 451.236 678.607 450.463 677.34C449.703 676.073 449.323 674.3 449.323 672.02C449.323 669.74 449.703 667.967 450.463 666.7C451.236 665.433 452.456 664.8 454.123 664.8C455.79 664.8 457.003 665.433 457.763 666.7C458.536 667.967 458.923 669.74 458.923 672.02C458.923 674.3 458.536 676.073 457.763 677.34C457.003 678.607 455.79 679.24 454.123 679.24ZM454.123 677.78C454.67 677.78 455.136 677.667 455.523 677.44C455.91 677.213 456.223 676.893 456.463 676.48C456.703 676.067 456.876 675.58 456.983 675.02C457.103 674.46 457.163 673.84 457.163 673.16V670.88C457.163 670.2 457.103 669.58 456.983 669.02C456.876 668.46 456.703 667.973 456.463 667.56C456.223 667.147 455.91 666.827 455.523 666.6C455.136 666.373 454.67 666.26 454.123 666.26C453.576 666.26 453.11 666.373 452.723 666.6C452.336 666.827 452.023 667.147 451.783 667.56C451.543 667.973 451.363 668.46 451.243 669.02C451.136 669.58 451.083 670.2 451.083 670.88V673.16C451.083 673.84 451.136 674.46 451.243 675.02C451.363 675.58 451.543 676.067 451.783 676.48C452.023 676.893 452.336 677.213 452.723 677.44C453.11 677.667 453.576 677.78 454.123 677.78ZM466.542 664.2H468.142V673.58H468.222L469.802 671.82L472.722 668.68H474.662L470.842 672.76L475.042 679H473.102L469.682 673.74L468.142 675.32V679H466.542V664.2ZM477.089 679V668.68H478.689V670.36H478.769C478.889 670.093 479.022 669.847 479.169 669.62C479.329 669.38 479.515 669.173 479.729 669C479.955 668.827 480.215 668.693 480.509 668.6C480.802 668.493 481.149 668.44 481.549 668.44C482.229 668.44 482.855 668.607 483.429 668.94C484.002 669.26 484.429 669.793 484.709 670.54H484.749C484.935 669.98 485.282 669.493 485.789 669.08C486.309 668.653 487.009 668.44 487.889 668.44C488.942 668.44 489.762 668.787 490.349 669.48C490.949 670.16 491.249 671.127 491.249 672.38V679H489.649V672.66C489.649 671.74 489.469 671.047 489.109 670.58C488.749 670.113 488.175 669.88 487.389 669.88C487.069 669.88 486.762 669.92 486.469 670C486.189 670.08 485.935 670.2 485.709 670.36C485.482 670.52 485.302 670.727 485.169 670.98C485.035 671.22 484.969 671.507 484.969 671.84V679H483.369V672.66C483.369 671.74 483.189 671.047 482.829 670.58C482.469 670.113 481.909 669.88 481.149 669.88C480.829 669.88 480.522 669.92 480.229 670C479.935 670.08 479.675 670.2 479.449 670.36C479.222 670.52 479.035 670.727 478.889 670.98C478.755 671.22 478.689 671.507 478.689 671.84V679H477.089Z" fill="black"/>
<path d="M757.914 679V677.52H761.814V666.28H761.674L758.154 669.56L757.174 668.5L760.874 665.04H763.494V677.52H767.094V679H757.914ZM778.106 666.52H771.986L771.586 671.84H771.726C772.06 671.373 772.433 671 772.846 670.72C773.273 670.44 773.853 670.3 774.586 670.3C775.186 670.3 775.74 670.4 776.246 670.6C776.753 670.8 777.193 671.087 777.566 671.46C777.94 671.82 778.226 672.267 778.426 672.8C778.64 673.333 778.746 673.94 778.746 674.62C778.746 675.3 778.64 675.927 778.426 676.5C778.213 677.06 777.9 677.547 777.486 677.96C777.086 678.36 776.593 678.673 776.006 678.9C775.433 679.127 774.78 679.24 774.046 679.24C773.46 679.24 772.94 679.173 772.486 679.04C772.046 678.907 771.653 678.727 771.306 678.5C770.96 678.273 770.653 678.02 770.386 677.74C770.133 677.46 769.9 677.167 769.686 676.86L770.946 675.9C771.12 676.18 771.3 676.433 771.486 676.66C771.686 676.887 771.9 677.08 772.126 677.24C772.366 677.4 772.64 677.527 772.946 677.62C773.253 677.7 773.62 677.74 774.046 677.74C775.006 677.74 775.733 677.487 776.226 676.98C776.72 676.473 776.966 675.76 776.966 674.84V674.64C776.966 673.72 776.72 673.007 776.226 672.5C775.733 671.993 775.006 671.74 774.046 671.74C773.406 671.74 772.9 671.86 772.526 672.1C772.166 672.327 771.84 672.6 771.546 672.92L770.126 672.72L770.626 665.04H778.106V666.52ZM781.519 673.78V672.06H786.739V673.78H781.519ZM798.787 679H789.627V677.28L794.187 673.08C794.84 672.48 795.387 671.847 795.827 671.18C796.267 670.5 796.487 669.82 796.487 669.14V668.9C796.487 668.127 796.274 667.5 795.847 667.02C795.42 666.54 794.774 666.3 793.907 666.3C793.48 666.3 793.107 666.36 792.787 666.48C792.467 666.6 792.187 666.767 791.947 666.98C791.72 667.193 791.527 667.447 791.367 667.74C791.22 668.02 791.1 668.327 791.007 668.66L789.507 668.08C789.64 667.667 789.82 667.267 790.047 666.88C790.287 666.48 790.58 666.127 790.927 665.82C791.287 665.513 791.714 665.267 792.207 665.08C792.714 664.893 793.307 664.8 793.987 664.8C794.667 664.8 795.274 664.9 795.807 665.1C796.34 665.3 796.787 665.58 797.147 665.94C797.507 666.3 797.78 666.727 797.967 667.22C798.167 667.713 798.267 668.26 798.267 668.86C798.267 669.407 798.187 669.913 798.027 670.38C797.88 670.847 797.674 671.293 797.407 671.72C797.14 672.133 796.814 672.54 796.427 672.94C796.054 673.34 795.647 673.74 795.207 674.14L791.447 677.52H798.787V679ZM806.119 679.24C804.452 679.24 803.232 678.607 802.459 677.34C801.699 676.073 801.319 674.3 801.319 672.02C801.319 669.74 801.699 667.967 802.459 666.7C803.232 665.433 804.452 664.8 806.119 664.8C807.786 664.8 808.999 665.433 809.759 666.7C810.532 667.967 810.919 669.74 810.919 672.02C810.919 674.3 810.532 676.073 809.759 677.34C808.999 678.607 807.786 679.24 806.119 679.24ZM806.119 677.78C806.666 677.78 807.132 677.667 807.519 677.44C807.906 677.213 808.219 676.893 808.459 676.48C808.699 676.067 808.872 675.58 808.979 675.02C809.099 674.46 809.159 673.84 809.159 673.16V670.88C809.159 670.2 809.099 669.58 808.979 669.02C808.872 668.46 808.699 667.973 808.459 667.56C808.219 667.147 807.906 666.827 807.519 666.6C807.132 666.373 806.666 666.26 806.119 666.26C805.572 666.26 805.106 666.373 804.719 666.6C804.332 666.827 804.019 667.147 803.779 667.56C803.539 667.973 803.359 668.46 803.239 669.02C803.132 669.58 803.079 670.2 803.079 670.88V673.16C803.079 673.84 803.132 674.46 803.239 675.02C803.359 675.58 803.539 676.067 803.779 676.48C804.019 676.893 804.332 677.213 804.719 677.44C805.106 677.667 805.572 677.78 806.119 677.78ZM818.538 664.2H820.138V673.58H820.218L821.798 671.82L824.718 668.68H826.658L822.838 672.76L827.038 679H825.098L821.678 673.74L820.138 675.32V679H818.538V664.2ZM829.085 679V668.68H830.685V670.36H830.765C830.885 670.093 831.018 669.847 831.165 669.62C831.325 669.38 831.511 669.173 831.725 669C831.951 668.827 832.211 668.693 832.505 668.6C832.798 668.493 833.145 668.44 833.545 668.44C834.225 668.44 834.851 668.607 835.425 668.94C835.998 669.26 836.425 669.793 836.705 670.54H836.745C836.931 669.98 837.278 669.493 837.785 669.08C838.305 668.653 839.005 668.44 839.885 668.44C840.938 668.44 841.758 668.787 842.345 669.48C842.945 670.16 843.245 671.127 843.245 672.38V679H841.645V672.66C841.645 671.74 841.465 671.047 841.105 670.58C840.745 670.113 840.171 669.88 839.385 669.88C839.065 669.88 838.758 669.92 838.465 670C838.185 670.08 837.931 670.2 837.705 670.36C837.478 670.52 837.298 670.727 837.165 670.98C837.031 671.22 836.965 671.507 836.965 671.84V679H835.365V672.66C835.365 671.74 835.185 671.047 834.825 670.58C834.465 670.113 833.905 669.88 833.145 669.88C832.825 669.88 832.518 669.92 832.225 670C831.931 670.08 831.671 670.2 831.445 670.36C831.218 670.52 831.031 670.727 830.885 670.98C830.751 671.22 830.685 671.507 830.685 671.84V679H829.085Z" fill="black"/>
<path d="M584.914 679V677.52H588.814V666.28H588.674L585.154 669.56L584.174 668.5L587.874 665.04H590.494V677.52H594.094V679H584.914ZM601.146 679.24C599.48 679.24 598.26 678.607 597.486 677.34C596.726 676.073 596.346 674.3 596.346 672.02C596.346 669.74 596.726 667.967 597.486 666.7C598.26 665.433 599.48 664.8 601.146 664.8C602.813 664.8 604.026 665.433 604.786 666.7C605.56 667.967 605.946 669.74 605.946 672.02C605.946 674.3 605.56 676.073 604.786 677.34C604.026 678.607 602.813 679.24 601.146 679.24ZM601.146 677.78C601.693 677.78 602.16 677.667 602.546 677.44C602.933 677.213 603.246 676.893 603.486 676.48C603.726 676.067 603.9 675.58 604.006 675.02C604.126 674.46 604.186 673.84 604.186 673.16V670.88C604.186 670.2 604.126 669.58 604.006 669.02C603.9 668.46 603.726 667.973 603.486 667.56C603.246 667.147 602.933 666.827 602.546 666.6C602.16 666.373 601.693 666.26 601.146 666.26C600.6 666.26 600.133 666.373 599.746 666.6C599.36 666.827 599.046 667.147 598.806 667.56C598.566 667.973 598.386 668.46 598.266 669.02C598.16 669.58 598.106 670.2 598.106 670.88V673.16C598.106 673.84 598.16 674.46 598.266 675.02C598.386 675.58 598.566 676.067 598.806 676.48C599.046 676.893 599.36 677.213 599.746 677.44C600.133 677.667 600.6 677.78 601.146 677.78ZM608.519 673.78V672.06H613.739V673.78H608.519ZM616.887 679V677.52H620.787V666.28H620.647L617.127 669.56L616.147 668.5L619.847 665.04H622.467V677.52H626.067V679H616.887ZM637.079 666.52H630.959L630.559 671.84H630.699C631.032 671.373 631.406 671 631.819 670.72C632.246 670.44 632.826 670.3 633.559 670.3C634.159 670.3 634.712 670.4 635.219 670.6C635.726 670.8 636.166 671.087 636.539 671.46C636.912 671.82 637.199 672.267 637.399 672.8C637.612 673.333 637.719 673.94 637.719 674.62C637.719 675.3 637.612 675.927 637.399 676.5C637.186 677.06 636.872 677.547 636.459 677.96C636.059 678.36 635.566 678.673 634.979 678.9C634.406 679.127 633.752 679.24 633.019 679.24C632.432 679.24 631.912 679.173 631.459 679.04C631.019 678.907 630.626 678.727 630.279 678.5C629.932 678.273 629.626 678.02 629.359 677.74C629.106 677.46 628.872 677.167 628.659 676.86L629.919 675.9C630.092 676.18 630.272 676.433 630.459 676.66C630.659 676.887 630.872 677.08 631.099 677.24C631.339 677.4 631.612 677.527 631.919 677.62C632.226 677.7 632.592 677.74 633.019 677.74C633.979 677.74 634.706 677.487 635.199 676.98C635.692 676.473 635.939 675.76 635.939 674.84V674.64C635.939 673.72 635.692 673.007 635.199 672.5C634.706 671.993 633.979 671.74 633.019 671.74C632.379 671.74 631.872 671.86 631.499 672.1C631.139 672.327 630.812 672.6 630.519 672.92L629.099 672.72L629.599 665.04H637.079V666.52ZM645.538 664.2H647.138V673.58H647.218L648.798 671.82L651.718 668.68H653.658L649.838 672.76L654.038 679H652.098L648.678 673.74L647.138 675.32V679H645.538V664.2ZM656.085 679V668.68H657.685V670.36H657.765C657.885 670.093 658.018 669.847 658.165 669.62C658.325 669.38 658.511 669.173 658.725 669C658.951 668.827 659.211 668.693 659.505 668.6C659.798 668.493 660.145 668.44 660.545 668.44C661.225 668.44 661.851 668.607 662.425 668.94C662.998 669.26 663.425 669.793 663.705 670.54H663.745C663.931 669.98 664.278 669.493 664.785 669.08C665.305 668.653 666.005 668.44 666.885 668.44C667.938 668.44 668.758 668.787 669.345 669.48C669.945 670.16 670.245 671.127 670.245 672.38V679H668.645V672.66C668.645 671.74 668.465 671.047 668.105 670.58C667.745 670.113 667.171 669.88 666.385 669.88C666.065 669.88 665.758 669.92 665.465 670C665.185 670.08 664.931 670.2 664.705 670.36C664.478 670.52 664.298 670.727 664.165 670.98C664.031 671.22 663.965 671.507 663.965 671.84V679H662.365V672.66C662.365 671.74 662.185 671.047 661.825 670.58C661.465 670.113 660.905 669.88 660.145 669.88C659.825 669.88 659.518 669.92 659.225 670C658.931 670.08 658.671 670.2 658.445 670.36C658.218 670.52 658.031 670.727 657.885 670.98C657.751 671.22 657.685 671.507 657.685 671.84V679H656.085Z" fill="black"/>
<path d="M267.806 679H258.646V677.28L263.206 673.08C263.86 672.48 264.406 671.847 264.846 671.18C265.286 670.5 265.506 669.82 265.506 669.14V668.9C265.506 668.127 265.293 667.5 264.866 667.02C264.44 666.54 263.793 666.3 262.926 666.3C262.5 666.3 262.126 666.36 261.806 666.48C261.486 666.6 261.206 666.767 260.966 666.98C260.74 667.193 260.546 667.447 260.386 667.74C260.24 668.02 260.12 668.327 260.026 668.66L258.526 668.08C258.66 667.667 258.84 667.267 259.066 666.88C259.306 666.48 259.6 666.127 259.946 665.82C260.306 665.513 260.733 665.267 261.226 665.08C261.733 664.893 262.326 664.8 263.006 664.8C263.686 664.8 264.293 664.9 264.826 665.1C265.36 665.3 265.806 665.58 266.166 665.94C266.526 666.3 266.8 666.727 266.986 667.22C267.186 667.713 267.286 668.26 267.286 668.86C267.286 669.407 267.206 669.913 267.046 670.38C266.9 670.847 266.693 671.293 266.426 671.72C266.16 672.133 265.833 672.54 265.446 672.94C265.073 673.34 264.666 673.74 264.226 674.14L260.466 677.52H267.806V679ZM270.519 673.78V672.06H275.739V673.78H270.519ZM287.087 666.52H280.967L280.567 671.84H280.707C281.04 671.373 281.414 671 281.827 670.72C282.254 670.44 282.834 670.3 283.567 670.3C284.167 670.3 284.72 670.4 285.227 670.6C285.734 670.8 286.174 671.087 286.547 671.46C286.92 671.82 287.207 672.267 287.407 672.8C287.62 673.333 287.727 673.94 287.727 674.62C287.727 675.3 287.62 675.927 287.407 676.5C287.194 677.06 286.88 677.547 286.467 677.96C286.067 678.36 285.574 678.673 284.987 678.9C284.414 679.127 283.76 679.24 283.027 679.24C282.44 679.24 281.92 679.173 281.467 679.04C281.027 678.907 280.634 678.727 280.287 678.5C279.94 678.273 279.634 678.02 279.367 677.74C279.114 677.46 278.88 677.167 278.667 676.86L279.927 675.9C280.1 676.18 280.28 676.433 280.467 676.66C280.667 676.887 280.88 677.08 281.107 677.24C281.347 677.4 281.62 677.527 281.927 677.62C282.234 677.7 282.6 677.74 283.027 677.74C283.987 677.74 284.714 677.487 285.207 676.98C285.7 676.473 285.947 675.76 285.947 674.84V674.64C285.947 673.72 285.7 673.007 285.207 672.5C284.714 671.993 283.987 671.74 283.027 671.74C282.387 671.74 281.88 671.86 281.507 672.1C281.147 672.327 280.82 672.6 280.527 672.92L279.107 672.72L279.607 665.04H287.087V666.52ZM295.546 664.2H297.146V673.58H297.226L298.806 671.82L301.726 668.68H303.666L299.846 672.76L304.046 679H302.106L298.686 673.74L297.146 675.32V679H295.546V664.2ZM306.093 679V668.68H307.693V670.36H307.773C307.893 670.093 308.026 669.847 308.173 669.62C308.333 669.38 308.519 669.173 308.733 669C308.959 668.827 309.219 668.693 309.513 668.6C309.806 668.493 310.153 668.44 310.553 668.44C311.233 668.44 311.859 668.607 312.433 668.94C313.006 669.26 313.433 669.793 313.713 670.54H313.753C313.939 669.98 314.286 669.493 314.793 669.08C315.313 668.653 316.013 668.44 316.893 668.44C317.946 668.44 318.766 668.787 319.353 669.48C319.953 670.16 320.253 671.127 320.253 672.38V679H318.653V672.66C318.653 671.74 318.473 671.047 318.113 670.58C317.753 670.113 317.179 669.88 316.393 669.88C316.073 669.88 315.766 669.92 315.473 670C315.193 670.08 314.939 670.2 314.713 670.36C314.486 670.52 314.306 670.727 314.173 670.98C314.039 671.22 313.973 671.507 313.973 671.84V679H312.373V672.66C312.373 671.74 312.193 671.047 311.833 670.58C311.473 670.113 310.913 669.88 310.153 669.88C309.833 669.88 309.526 669.92 309.233 670C308.939 670.08 308.679 670.2 308.453 670.36C308.226 670.52 308.039 670.727 307.893 670.98C307.759 671.22 307.693 671.507 307.693 671.84V679H306.093Z" fill="black"/>
<path d="M106.146 679.24C104.48 679.24 103.26 678.607 102.486 677.34C101.726 676.073 101.346 674.3 101.346 672.02C101.346 669.74 101.726 667.967 102.486 666.7C103.26 665.433 104.48 664.8 106.146 664.8C107.813 664.8 109.026 665.433 109.786 666.7C110.56 667.967 110.946 669.74 110.946 672.02C110.946 674.3 110.56 676.073 109.786 677.34C109.026 678.607 107.813 679.24 106.146 679.24ZM106.146 677.78C106.693 677.78 107.16 677.667 107.546 677.44C107.933 677.213 108.246 676.893 108.486 676.48C108.726 676.067 108.9 675.58 109.006 675.02C109.126 674.46 109.186 673.84 109.186 673.16V670.88C109.186 670.2 109.126 669.58 109.006 669.02C108.9 668.46 108.726 667.973 108.486 667.56C108.246 667.147 107.933 666.827 107.546 666.6C107.16 666.373 106.693 666.26 106.146 666.26C105.6 666.26 105.133 666.373 104.746 666.6C104.36 666.827 104.046 667.147 103.806 667.56C103.566 667.973 103.386 668.46 103.266 669.02C103.16 669.58 103.106 670.2 103.106 670.88V673.16C103.106 673.84 103.16 674.46 103.266 675.02C103.386 675.58 103.566 676.067 103.806 676.48C104.046 676.893 104.36 677.213 104.746 677.44C105.133 677.667 105.6 677.78 106.146 677.78ZM113.519 673.78V672.06H118.739V673.78H113.519ZM130.787 679H121.627V677.28L126.187 673.08C126.84 672.48 127.387 671.847 127.827 671.18C128.267 670.5 128.487 669.82 128.487 669.14V668.9C128.487 668.127 128.274 667.5 127.847 667.02C127.42 666.54 126.774 666.3 125.907 666.3C125.48 666.3 125.107 666.36 124.787 666.48C124.467 666.6 124.187 666.767 123.947 666.98C123.72 667.193 123.527 667.447 123.367 667.74C123.22 668.02 123.1 668.327 123.007 668.66L121.507 668.08C121.64 667.667 121.82 667.267 122.047 666.88C122.287 666.48 122.58 666.127 122.927 665.82C123.287 665.513 123.714 665.267 124.207 665.08C124.714 664.893 125.307 664.8 125.987 664.8C126.667 664.8 127.274 664.9 127.807 665.1C128.34 665.3 128.787 665.58 129.147 665.94C129.507 666.3 129.78 666.727 129.967 667.22C130.167 667.713 130.267 668.26 130.267 668.86C130.267 669.407 130.187 669.913 130.027 670.38C129.88 670.847 129.674 671.293 129.407 671.72C129.14 672.133 128.814 672.54 128.427 672.94C128.054 673.34 127.647 673.74 127.207 674.14L123.447 677.52H130.787V679ZM138.546 664.2H140.146V673.58H140.226L141.806 671.82L144.726 668.68H146.666L142.846 672.76L147.046 679H145.106L141.686 673.74L140.146 675.32V679H138.546V664.2ZM149.093 679V668.68H150.693V670.36H150.773C150.893 670.093 151.026 669.847 151.173 669.62C151.333 669.38 151.519 669.173 151.733 669C151.959 668.827 152.219 668.693 152.513 668.6C152.806 668.493 153.153 668.44 153.553 668.44C154.233 668.44 154.859 668.607 155.433 668.94C156.006 669.26 156.433 669.793 156.713 670.54H156.753C156.939 669.98 157.286 669.493 157.793 669.08C158.313 668.653 159.013 668.44 159.893 668.44C160.946 668.44 161.766 668.787 162.353 669.48C162.953 670.16 163.253 671.127 163.253 672.38V679H161.653V672.66C161.653 671.74 161.473 671.047 161.113 670.58C160.753 670.113 160.179 669.88 159.393 669.88C159.073 669.88 158.766 669.92 158.473 670C158.193 670.08 157.939 670.2 157.713 670.36C157.486 670.52 157.306 670.727 157.173 670.98C157.039 671.22 156.973 671.507 156.973 671.84V679H155.373V672.66C155.373 671.74 155.193 671.047 154.833 670.58C154.473 670.113 153.913 669.88 153.153 669.88C152.833 669.88 152.526 669.92 152.233 670C151.939 670.08 151.679 670.2 151.453 670.36C151.226 670.52 151.039 670.727 150.893 670.98C150.759 671.22 150.693 671.507 150.693 671.84V679H149.093Z" fill="black"/>
<path d="M932.945 677.56L939.845 673.54V673.38L932.945 669.36V667.68L941.345 672.66V674.26L932.945 679.24V677.56ZM953.797 679H944.637V677.28L949.197 673.08C949.85 672.48 950.397 671.847 950.837 671.18C951.277 670.5 951.497 669.82 951.497 669.14V668.9C951.497 668.127 951.283 667.5 950.857 667.02C950.43 666.54 949.783 666.3 948.917 666.3C948.49 666.3 948.117 666.36 947.797 666.48C947.477 666.6 947.197 666.767 946.957 666.98C946.73 667.193 946.537 667.447 946.377 667.74C946.23 668.02 946.11 668.327 946.017 668.66L944.517 668.08C944.65 667.667 944.83 667.267 945.057 666.88C945.297 666.48 945.59 666.127 945.937 665.82C946.297 665.513 946.723 665.267 947.217 665.08C947.723 664.893 948.317 664.8 948.997 664.8C949.677 664.8 950.283 664.9 950.817 665.1C951.35 665.3 951.797 665.58 952.157 665.94C952.517 666.3 952.79 666.727 952.977 667.22C953.177 667.713 953.277 668.26 953.277 668.86C953.277 669.407 953.197 669.913 953.037 670.38C952.89 670.847 952.683 671.293 952.417 671.72C952.15 672.133 951.823 672.54 951.437 672.94C951.063 673.34 950.657 673.74 950.217 674.14L946.457 677.52H953.797V679ZM961.129 679.24C959.462 679.24 958.242 678.607 957.469 677.34C956.709 676.073 956.329 674.3 956.329 672.02C956.329 669.74 956.709 667.967 957.469 666.7C958.242 665.433 959.462 664.8 961.129 664.8C962.796 664.8 964.009 665.433 964.769 666.7C965.542 667.967 965.929 669.74 965.929 672.02C965.929 674.3 965.542 676.073 964.769 677.34C964.009 678.607 962.796 679.24 961.129 679.24ZM961.129 677.78C961.676 677.78 962.142 677.667 962.529 677.44C962.916 677.213 963.229 676.893 963.469 676.48C963.709 676.067 963.882 675.58 963.989 675.02C964.109 674.46 964.169 673.84 964.169 673.16V670.88C964.169 670.2 964.109 669.58 963.989 669.02C963.882 668.46 963.709 667.973 963.469 667.56C963.229 667.147 962.916 666.827 962.529 666.6C962.142 666.373 961.676 666.26 961.129 666.26C960.582 666.26 960.116 666.373 959.729 666.6C959.342 666.827 959.029 667.147 958.789 667.56C958.549 667.973 958.369 668.46 958.249 669.02C958.142 669.58 958.089 670.2 958.089 670.88V673.16C958.089 673.84 958.142 674.46 958.249 675.02C958.369 675.58 958.549 676.067 958.789 676.48C959.029 676.893 959.342 677.213 959.729 677.44C960.116 677.667 960.582 677.78 961.129 677.78ZM973.548 664.2H975.148V673.58H975.228L976.808 671.82L979.728 668.68H981.668L977.848 672.76L982.048 679H980.108L976.688 673.74L975.148 675.32V679H973.548V664.2ZM984.095 679V668.68H985.695V670.36H985.775C985.895 670.093 986.028 669.847 986.175 669.62C986.335 669.38 986.521 669.173 986.735 669C986.961 668.827 987.221 668.693 987.515 668.6C987.808 668.493 988.155 668.44 988.555 668.44C989.235 668.44 989.861 668.607 990.435 668.94C991.008 669.26 991.435 669.793 991.715 670.54H991.755C991.941 669.98 992.288 669.493 992.795 669.08C993.315 668.653 994.015 668.44 994.895 668.44C995.948 668.44 996.768 668.787 997.355 669.48C997.955 670.16 998.255 671.127 998.255 672.38V679H996.655V672.66C996.655 671.74 996.475 671.047 996.115 670.58C995.755 670.113 995.181 669.88 994.395 669.88C994.075 669.88 993.768 669.92 993.475 670C993.195 670.08 992.941 670.2 992.715 670.36C992.488 670.52 992.308 670.727 992.175 670.98C992.041 671.22 991.975 671.507 991.975 671.84V679H990.375V672.66C990.375 671.74 990.195 671.047 989.835 670.58C989.475 670.113 988.915 669.88 988.155 669.88C987.835 669.88 987.528 669.92 987.235 670C986.941 670.08 986.681 670.2 986.455 670.36C986.228 670.52 986.041 670.727 985.895 670.98C985.761 671.22 985.695 671.507 985.695 671.84V679H984.095Z" fill="black"/>
<path d="M33.4727 631.24C31.806 631.24 30.586 630.607 29.8127 629.34C29.0527 628.073 28.6727 626.3 28.6727 624.02C28.6727 621.74 29.0527 619.967 29.8127 618.7C30.586 617.433 31.806 616.8 33.4727 616.8C35.1393 616.8 36.3527 617.433 37.1127 618.7C37.886 619.967 38.2727 621.74 38.2727 624.02C38.2727 626.3 37.886 628.073 37.1127 629.34C36.3527 630.607 35.1393 631.24 33.4727 631.24ZM33.4727 629.78C34.0193 629.78 34.486 629.667 34.8727 629.44C35.2593 629.213 35.5727 628.893 35.8127 628.48C36.0527 628.067 36.226 627.58 36.3327 627.02C36.4527 626.46 36.5127 625.84 36.5127 625.16V622.88C36.5127 622.2 36.4527 621.58 36.3327 621.02C36.226 620.46 36.0527 619.973 35.8127 619.56C35.5727 619.147 35.2593 618.827 34.8727 618.6C34.486 618.373 34.0193 618.26 33.4727 618.26C32.926 618.26 32.4593 618.373 32.0727 618.6C31.686 618.827 31.3727 619.147 31.1327 619.56C30.8927 619.973 30.7127 620.46 30.5927 621.02C30.486 621.58 30.4327 622.2 30.4327 622.88V625.16C30.4327 625.84 30.486 626.46 30.5927 627.02C30.7127 627.58 30.8927 628.067 31.1327 628.48C31.3727 628.893 31.686 629.213 32.0727 629.44C32.4593 629.667 32.926 629.78 33.4727 629.78ZM43.1248 631L52.8048 617.04H54.3448L44.6648 631H43.1248ZM43.9248 624.72C42.9115 624.72 42.1315 624.387 41.5848 623.72C41.0382 623.04 40.7648 622.053 40.7648 620.76C40.7648 619.467 41.0382 618.487 41.5848 617.82C42.1315 617.14 42.9115 616.8 43.9248 616.8C44.9382 616.8 45.7182 617.14 46.2648 617.82C46.8115 618.487 47.0848 619.467 47.0848 620.76C47.0848 622.053 46.8115 623.04 46.2648 623.72C45.7182 624.387 44.9382 624.72 43.9248 624.72ZM43.9248 623.68C45.0715 623.68 45.6448 622.907 45.6448 621.36V620.16C45.6448 618.613 45.0715 617.84 43.9248 617.84C42.7782 617.84 42.2048 618.613 42.2048 620.16V621.36C42.2048 622.907 42.7782 623.68 43.9248 623.68ZM53.5448 631.24C52.5315 631.24 51.7515 630.907 51.2048 630.24C50.6582 629.56 50.3848 628.573 50.3848 627.28C50.3848 625.987 50.6582 625.007 51.2048 624.34C51.7515 623.66 52.5315 623.32 53.5448 623.32C54.5582 623.32 55.3382 623.66 55.8848 624.34C56.4315 625.007 56.7048 625.987 56.7048 627.28C56.7048 628.573 56.4315 629.56 55.8848 630.24C55.3382 630.907 54.5582 631.24 53.5448 631.24ZM53.5448 630.2C54.6915 630.2 55.2648 629.427 55.2648 627.88V626.68C55.2648 625.133 54.6915 624.36 53.5448 624.36C52.3982 624.36 51.8248 625.133 51.8248 626.68V627.88C51.8248 629.427 52.3982 630.2 53.5448 630.2Z" fill="black"/>
<path d="M17.2405 541V539.52H21.1405V528.28H21.0005L17.4805 531.56L16.5005 530.5L20.2005 527.04H22.8205V539.52H26.4205V541H17.2405ZM33.4727 541.24C31.806 541.24 30.586 540.607 29.8127 539.34C29.0527 538.073 28.6727 536.3 28.6727 534.02C28.6727 531.74 29.0527 529.967 29.8127 528.7C30.586 527.433 31.806 526.8 33.4727 526.8C35.1393 526.8 36.3527 527.433 37.1127 528.7C37.886 529.967 38.2727 531.74 38.2727 534.02C38.2727 536.3 37.886 538.073 37.1127 539.34C36.3527 540.607 35.1393 541.24 33.4727 541.24ZM33.4727 539.78C34.0193 539.78 34.486 539.667 34.8727 539.44C35.2593 539.213 35.5727 538.893 35.8127 538.48C36.0527 538.067 36.226 537.58 36.3327 537.02C36.4527 536.46 36.5127 535.84 36.5127 535.16V532.88C36.5127 532.2 36.4527 531.58 36.3327 531.02C36.226 530.46 36.0527 529.973 35.8127 529.56C35.5727 529.147 35.2593 528.827 34.8727 528.6C34.486 528.373 34.0193 528.26 33.4727 528.26C32.926 528.26 32.4593 528.373 32.0727 528.6C31.686 528.827 31.3727 529.147 31.1327 529.56C30.8927 529.973 30.7127 530.46 30.5927 531.02C30.486 531.58 30.4327 532.2 30.4327 532.88V535.16C30.4327 535.84 30.486 536.46 30.5927 537.02C30.7127 537.58 30.8927 538.067 31.1327 538.48C31.3727 538.893 31.686 539.213 32.0727 539.44C32.4593 539.667 32.926 539.78 33.4727 539.78ZM43.1248 541L52.8048 527.04H54.3448L44.6648 541H43.1248ZM43.9248 534.72C42.9115 534.72 42.1315 534.387 41.5848 533.72C41.0382 533.04 40.7648 532.053 40.7648 530.76C40.7648 529.467 41.0382 528.487 41.5848 527.82C42.1315 527.14 42.9115 526.8 43.9248 526.8C44.9382 526.8 45.7182 527.14 46.2648 527.82C46.8115 528.487 47.0848 529.467 47.0848 530.76C47.0848 532.053 46.8115 533.04 46.2648 533.72C45.7182 534.387 44.9382 534.72 43.9248 534.72ZM43.9248 533.68C45.0715 533.68 45.6448 532.907 45.6448 531.36V530.16C45.6448 528.613 45.0715 527.84 43.9248 527.84C42.7782 527.84 42.2048 528.613 42.2048 530.16V531.36C42.2048 532.907 42.7782 533.68 43.9248 533.68ZM53.5448 541.24C52.5315 541.24 51.7515 540.907 51.2048 540.24C50.6582 539.56 50.3848 538.573 50.3848 537.28C50.3848 535.987 50.6582 535.007 51.2048 534.34C51.7515 533.66 52.5315 533.32 53.5448 533.32C54.5582 533.32 55.3382 533.66 55.8848 534.34C56.4315 535.007 56.7048 535.987 56.7048 537.28C56.7048 538.573 56.4315 539.56 55.8848 540.24C55.3382 540.907 54.5582 541.24 53.5448 541.24ZM53.5448 540.2C54.6915 540.2 55.2648 539.427 55.2648 537.88V536.68C55.2648 535.133 54.6915 534.36 53.5448 534.36C52.3982 534.36 51.8248 535.133 51.8248 536.68V537.88C51.8248 539.427 52.3982 540.2 53.5448 540.2Z" fill="black"/>
<path d="M26.1405 451H16.9805V449.28L21.5405 445.08C22.1938 444.48 22.7405 443.847 23.1805 443.18C23.6205 442.5 23.8405 441.82 23.8405 441.14V440.9C23.8405 440.127 23.6271 439.5 23.2005 439.02C22.7738 438.54 22.1271 438.3 21.2605 438.3C20.8338 438.3 20.4605 438.36 20.1405 438.48C19.8205 438.6 19.5405 438.767 19.3005 438.98C19.0738 439.193 18.8805 439.447 18.7205 439.74C18.5738 440.02 18.4538 440.327 18.3605 440.66L16.8605 440.08C16.9938 439.667 17.1738 439.267 17.4005 438.88C17.6405 438.48 17.9338 438.127 18.2805 437.82C18.6405 437.513 19.0671 437.267 19.5605 437.08C20.0671 436.893 20.6605 436.8 21.3405 436.8C22.0205 436.8 22.6271 436.9 23.1605 437.1C23.6938 437.3 24.1405 437.58 24.5005 437.94C24.8605 438.3 25.1338 438.727 25.3205 439.22C25.5205 439.713 25.6205 440.26 25.6205 440.86C25.6205 441.407 25.5405 441.913 25.3805 442.38C25.2338 442.847 25.0271 443.293 24.7605 443.72C24.4938 444.133 24.1671 444.54 23.7805 444.94C23.4071 445.34 23.0005 445.74 22.5605 446.14L18.8005 449.52H26.1405V451ZM33.4727 451.24C31.806 451.24 30.586 450.607 29.8127 449.34C29.0527 448.073 28.6727 446.3 28.6727 444.02C28.6727 441.74 29.0527 439.967 29.8127 438.7C30.586 437.433 31.806 436.8 33.4727 436.8C35.1393 436.8 36.3527 437.433 37.1127 438.7C37.886 439.967 38.2727 441.74 38.2727 444.02C38.2727 446.3 37.886 448.073 37.1127 449.34C36.3527 450.607 35.1393 451.24 33.4727 451.24ZM33.4727 449.78C34.0193 449.78 34.486 449.667 34.8727 449.44C35.2593 449.213 35.5727 448.893 35.8127 448.48C36.0527 448.067 36.226 447.58 36.3327 447.02C36.4527 446.46 36.5127 445.84 36.5127 445.16V442.88C36.5127 442.2 36.4527 441.58 36.3327 441.02C36.226 440.46 36.0527 439.973 35.8127 439.56C35.5727 439.147 35.2593 438.827 34.8727 438.6C34.486 438.373 34.0193 438.26 33.4727 438.26C32.926 438.26 32.4593 438.373 32.0727 438.6C31.686 438.827 31.3727 439.147 31.1327 439.56C30.8927 439.973 30.7127 440.46 30.5927 441.02C30.486 441.58 30.4327 442.2 30.4327 442.88V445.16C30.4327 445.84 30.486 446.46 30.5927 447.02C30.7127 447.58 30.8927 448.067 31.1327 448.48C31.3727 448.893 31.686 449.213 32.0727 449.44C32.4593 449.667 32.926 449.78 33.4727 449.78ZM43.1248 451L52.8048 437.04H54.3448L44.6648 451H43.1248ZM43.9248 444.72C42.9115 444.72 42.1315 444.387 41.5848 443.72C41.0382 443.04 40.7648 442.053 40.7648 440.76C40.7648 439.467 41.0382 438.487 41.5848 437.82C42.1315 437.14 42.9115 436.8 43.9248 436.8C44.9382 436.8 45.7182 437.14 46.2648 437.82C46.8115 438.487 47.0848 439.467 47.0848 440.76C47.0848 442.053 46.8115 443.04 46.2648 443.72C45.7182 444.387 44.9382 444.72 43.9248 444.72ZM43.9248 443.68C45.0715 443.68 45.6448 442.907 45.6448 441.36V440.16C45.6448 438.613 45.0715 437.84 43.9248 437.84C42.7782 437.84 42.2048 438.613 42.2048 440.16V441.36C42.2048 442.907 42.7782 443.68 43.9248 443.68ZM53.5448 451.24C52.5315 451.24 51.7515 450.907 51.2048 450.24C50.6582 449.56 50.3848 448.573 50.3848 447.28C50.3848 445.987 50.6582 445.007 51.2048 444.34C51.7515 443.66 52.5315 443.32 53.5448 443.32C54.5582 443.32 55.3382 443.66 55.8848 444.34C56.4315 445.007 56.7048 445.987 56.7048 447.28C56.7048 448.573 56.4315 449.56 55.8848 450.24C55.3382 450.907 54.5582 451.24 53.5448 451.24ZM53.5448 450.2C54.6915 450.2 55.2648 449.427 55.2648 447.88V446.68C55.2648 445.133 54.6915 444.36 53.5448 444.36C52.3982 444.36 51.8248 445.133 51.8248 446.68V447.88C51.8248 449.427 52.3982 450.2 53.5448 450.2Z" fill="black"/>
<path d="M20.7005 349.96C21.6471 349.96 22.3538 349.747 22.8205 349.32C23.3005 348.88 23.5405 348.32 23.5405 347.64V347.5C23.5405 346.767 23.3071 346.22 22.8405 345.86C22.3871 345.487 21.7871 345.3 21.0405 345.3C20.3205 345.3 19.7338 345.46 19.2805 345.78C18.8271 346.087 18.4538 346.507 18.1605 347.04L16.9205 346.08C17.0938 345.8 17.3005 345.527 17.5405 345.26C17.7938 344.98 18.0871 344.733 18.4205 344.52C18.7538 344.307 19.1405 344.133 19.5805 344C20.0205 343.867 20.5205 343.8 21.0805 343.8C21.6671 343.8 22.2205 343.88 22.7405 344.04C23.2605 344.187 23.7071 344.413 24.0805 344.72C24.4671 345.013 24.7671 345.38 24.9805 345.82C25.2071 346.26 25.3205 346.76 25.3205 347.32C25.3205 347.773 25.2471 348.18 25.1005 348.54C24.9671 348.9 24.7805 349.213 24.5405 349.48C24.3005 349.747 24.0138 349.973 23.6805 350.16C23.3605 350.347 23.0138 350.487 22.6405 350.58V350.66C23.0138 350.74 23.3738 350.873 23.7205 351.06C24.0805 351.233 24.3938 351.467 24.6605 351.76C24.9405 352.04 25.1605 352.387 25.3205 352.8C25.4938 353.2 25.5805 353.66 25.5805 354.18C25.5805 354.78 25.4671 355.333 25.2405 355.84C25.0138 356.333 24.6938 356.76 24.2805 357.12C23.8671 357.467 23.3671 357.74 22.7805 357.94C22.1938 358.14 21.5471 358.24 20.8405 358.24C20.2405 358.24 19.7071 358.173 19.2405 358.04C18.7738 357.907 18.3605 357.727 18.0005 357.5C17.6405 357.273 17.3205 357.02 17.0405 356.74C16.7738 356.46 16.5338 356.167 16.3205 355.86L17.5805 354.9C17.7538 355.18 17.9405 355.433 18.1405 355.66C18.3538 355.887 18.5871 356.08 18.8405 356.24C19.0938 356.4 19.3805 356.527 19.7005 356.62C20.0205 356.7 20.3938 356.74 20.8205 356.74C21.8071 356.74 22.5538 356.52 23.0605 356.08C23.5671 355.627 23.8205 354.987 23.8205 354.16V354C23.8205 353.173 23.5671 352.54 23.0605 352.1C22.5538 351.647 21.8071 351.42 20.8205 351.42H19.1805V349.96H20.7005ZM33.4727 358.24C31.806 358.24 30.586 357.607 29.8127 356.34C29.0527 355.073 28.6727 353.3 28.6727 351.02C28.6727 348.74 29.0527 346.967 29.8127 345.7C30.586 344.433 31.806 343.8 33.4727 343.8C35.1393 343.8 36.3527 344.433 37.1127 345.7C37.886 346.967 38.2727 348.74 38.2727 351.02C38.2727 353.3 37.886 355.073 37.1127 356.34C36.3527 357.607 35.1393 358.24 33.4727 358.24ZM33.4727 356.78C34.0193 356.78 34.486 356.667 34.8727 356.44C35.2593 356.213 35.5727 355.893 35.8127 355.48C36.0527 355.067 36.226 354.58 36.3327 354.02C36.4527 353.46 36.5127 352.84 36.5127 352.16V349.88C36.5127 349.2 36.4527 348.58 36.3327 348.02C36.226 347.46 36.0527 346.973 35.8127 346.56C35.5727 346.147 35.2593 345.827 34.8727 345.6C34.486 345.373 34.0193 345.26 33.4727 345.26C32.926 345.26 32.4593 345.373 32.0727 345.6C31.686 345.827 31.3727 346.147 31.1327 346.56C30.8927 346.973 30.7127 347.46 30.5927 348.02C30.486 348.58 30.4327 349.2 30.4327 349.88V352.16C30.4327 352.84 30.486 353.46 30.5927 354.02C30.7127 354.58 30.8927 355.067 31.1327 355.48C31.3727 355.893 31.686 356.213 32.0727 356.44C32.4593 356.667 32.926 356.78 33.4727 356.78ZM43.1248 358L52.8048 344.04H54.3448L44.6648 358H43.1248ZM43.9248 351.72C42.9115 351.72 42.1315 351.387 41.5848 350.72C41.0382 350.04 40.7648 349.053 40.7648 347.76C40.7648 346.467 41.0382 345.487 41.5848 344.82C42.1315 344.14 42.9115 343.8 43.9248 343.8C44.9382 343.8 45.7182 344.14 46.2648 344.82C46.8115 345.487 47.0848 346.467 47.0848 347.76C47.0848 349.053 46.8115 350.04 46.2648 350.72C45.7182 351.387 44.9382 351.72 43.9248 351.72ZM43.9248 350.68C45.0715 350.68 45.6448 349.907 45.6448 348.36V347.16C45.6448 345.613 45.0715 344.84 43.9248 344.84C42.7782 344.84 42.2048 345.613 42.2048 347.16V348.36C42.2048 349.907 42.7782 350.68 43.9248 350.68ZM53.5448 358.24C52.5315 358.24 51.7515 357.907 51.2048 357.24C50.6582 356.56 50.3848 355.573 50.3848 354.28C50.3848 352.987 50.6582 352.007 51.2048 351.34C51.7515 350.66 52.5315 350.32 53.5448 350.32C54.5582 350.32 55.3382 350.66 55.8848 351.34C56.4315 352.007 56.7048 352.987 56.7048 354.28C56.7048 355.573 56.4315 356.56 55.8848 357.24C55.3382 357.907 54.5582 358.24 53.5448 358.24ZM53.5448 357.2C54.6915 357.2 55.2648 356.427 55.2648 354.88V353.68C55.2648 352.133 54.6915 351.36 53.5448 351.36C52.3982 351.36 51.8248 352.133 51.8248 353.68V354.88C51.8248 356.427 52.3982 357.2 53.5448 357.2Z" fill="black"/>
<path d="M22.9805 267V264.26H16.2405V262.78L22.0805 253.04H24.5805V262.86H26.6005V264.26H24.5805V267H22.9805ZM17.8205 262.86H22.9805V254.34H22.8805L17.8205 262.86ZM33.4727 267.24C31.806 267.24 30.586 266.607 29.8127 265.34C29.0527 264.073 28.6727 262.3 28.6727 260.02C28.6727 257.74 29.0527 255.967 29.8127 254.7C30.586 253.433 31.806 252.8 33.4727 252.8C35.1393 252.8 36.3527 253.433 37.1127 254.7C37.886 255.967 38.2727 257.74 38.2727 260.02C38.2727 262.3 37.886 264.073 37.1127 265.34C36.3527 266.607 35.1393 267.24 33.4727 267.24ZM33.4727 265.78C34.0193 265.78 34.486 265.667 34.8727 265.44C35.2593 265.213 35.5727 264.893 35.8127 264.48C36.0527 264.067 36.226 263.58 36.3327 263.02C36.4527 262.46 36.5127 261.84 36.5127 261.16V258.88C36.5127 258.2 36.4527 257.58 36.3327 257.02C36.226 256.46 36.0527 255.973 35.8127 255.56C35.5727 255.147 35.2593 254.827 34.8727 254.6C34.486 254.373 34.0193 254.26 33.4727 254.26C32.926 254.26 32.4593 254.373 32.0727 254.6C31.686 254.827 31.3727 255.147 31.1327 255.56C30.8927 255.973 30.7127 256.46 30.5927 257.02C30.486 257.58 30.4327 258.2 30.4327 258.88V261.16C30.4327 261.84 30.486 262.46 30.5927 263.02C30.7127 263.58 30.8927 264.067 31.1327 264.48C31.3727 264.893 31.686 265.213 32.0727 265.44C32.4593 265.667 32.926 265.78 33.4727 265.78ZM43.1248 267L52.8048 253.04H54.3448L44.6648 267H43.1248ZM43.9248 260.72C42.9115 260.72 42.1315 260.387 41.5848 259.72C41.0382 259.04 40.7648 258.053 40.7648 256.76C40.7648 255.467 41.0382 254.487 41.5848 253.82C42.1315 253.14 42.9115 252.8 43.9248 252.8C44.9382 252.8 45.7182 253.14 46.2648 253.82C46.8115 254.487 47.0848 255.467 47.0848 256.76C47.0848 258.053 46.8115 259.04 46.2648 259.72C45.7182 260.387 44.9382 260.72 43.9248 260.72ZM43.9248 259.68C45.0715 259.68 45.6448 258.907 45.6448 257.36V256.16C45.6448 254.613 45.0715 253.84 43.9248 253.84C42.7782 253.84 42.2048 254.613 42.2048 256.16V257.36C42.2048 258.907 42.7782 259.68 43.9248 259.68ZM53.5448 267.24C52.5315 267.24 51.7515 266.907 51.2048 266.24C50.6582 265.56 50.3848 264.573 50.3848 263.28C50.3848 261.987 50.6582 261.007 51.2048 260.34C51.7515 259.66 52.5315 259.32 53.5448 259.32C54.5582 259.32 55.3382 259.66 55.8848 260.34C56.4315 261.007 56.7048 261.987 56.7048 263.28C56.7048 264.573 56.4315 265.56 55.8848 266.24C55.3382 266.907 54.5582 267.24 53.5448 267.24ZM53.5448 266.2C54.6915 266.2 55.2648 265.427 55.2648 263.88V262.68C55.2648 261.133 54.6915 260.36 53.5448 260.36C52.3982 260.36 51.8248 261.133 51.8248 262.68V263.88C51.8248 265.427 52.3982 266.2 53.5448 266.2Z" fill="black"/>
<path d="M25.4405 162.52H19.3205L18.9205 167.84H19.0605C19.3938 167.373 19.7671 167 20.1805 166.72C20.6071 166.44 21.1871 166.3 21.9205 166.3C22.5205 166.3 23.0738 166.4 23.5805 166.6C24.0871 166.8 24.5271 167.087 24.9005 167.46C25.2738 167.82 25.5605 168.267 25.7605 168.8C25.9738 169.333 26.0805 169.94 26.0805 170.62C26.0805 171.3 25.9738 171.927 25.7605 172.5C25.5471 173.06 25.2338 173.547 24.8205 173.96C24.4205 174.36 23.9271 174.673 23.3405 174.9C22.7671 175.127 22.1138 175.24 21.3805 175.24C20.7938 175.24 20.2738 175.173 19.8205 175.04C19.3805 174.907 18.9871 174.727 18.6405 174.5C18.2938 174.273 17.9871 174.02 17.7205 173.74C17.4671 173.46 17.2338 173.167 17.0205 172.86L18.2805 171.9C18.4538 172.18 18.6338 172.433 18.8205 172.66C19.0205 172.887 19.2338 173.08 19.4605 173.24C19.7005 173.4 19.9738 173.527 20.2805 173.62C20.5871 173.7 20.9538 173.74 21.3805 173.74C22.3405 173.74 23.0671 173.487 23.5605 172.98C24.0538 172.473 24.3005 171.76 24.3005 170.84V170.64C24.3005 169.72 24.0538 169.007 23.5605 168.5C23.0671 167.993 22.3405 167.74 21.3805 167.74C20.7405 167.74 20.2338 167.86 19.8605 168.1C19.5005 168.327 19.1738 168.6 18.8805 168.92L17.4605 168.72L17.9605 161.04H25.4405V162.52ZM33.4727 175.24C31.806 175.24 30.586 174.607 29.8127 173.34C29.0527 172.073 28.6727 170.3 28.6727 168.02C28.6727 165.74 29.0527 163.967 29.8127 162.7C30.586 161.433 31.806 160.8 33.4727 160.8C35.1393 160.8 36.3527 161.433 37.1127 162.7C37.886 163.967 38.2727 165.74 38.2727 168.02C38.2727 170.3 37.886 172.073 37.1127 173.34C36.3527 174.607 35.1393 175.24 33.4727 175.24ZM33.4727 173.78C34.0193 173.78 34.486 173.667 34.8727 173.44C35.2593 173.213 35.5727 172.893 35.8127 172.48C36.0527 172.067 36.226 171.58 36.3327 171.02C36.4527 170.46 36.5127 169.84 36.5127 169.16V166.88C36.5127 166.2 36.4527 165.58 36.3327 165.02C36.226 164.46 36.0527 163.973 35.8127 163.56C35.5727 163.147 35.2593 162.827 34.8727 162.6C34.486 162.373 34.0193 162.26 33.4727 162.26C32.926 162.26 32.4593 162.373 32.0727 162.6C31.686 162.827 31.3727 163.147 31.1327 163.56C30.8927 163.973 30.7127 164.46 30.5927 165.02C30.486 165.58 30.4327 166.2 30.4327 166.88V169.16C30.4327 169.84 30.486 170.46 30.5927 171.02C30.7127 171.58 30.8927 172.067 31.1327 172.48C31.3727 172.893 31.686 173.213 32.0727 173.44C32.4593 173.667 32.926 173.78 33.4727 173.78ZM43.1248 175L52.8048 161.04H54.3448L44.6648 175H43.1248ZM43.9248 168.72C42.9115 168.72 42.1315 168.387 41.5848 167.72C41.0382 167.04 40.7648 166.053 40.7648 164.76C40.7648 163.467 41.0382 162.487 41.5848 161.82C42.1315 161.14 42.9115 160.8 43.9248 160.8C44.9382 160.8 45.7182 161.14 46.2648 161.82C46.8115 162.487 47.0848 163.467 47.0848 164.76C47.0848 166.053 46.8115 167.04 46.2648 167.72C45.7182 168.387 44.9382 168.72 43.9248 168.72ZM43.9248 167.68C45.0715 167.68 45.6448 166.907 45.6448 165.36V164.16C45.6448 162.613 45.0715 161.84 43.9248 161.84C42.7782 161.84 42.2048 162.613 42.2048 164.16V165.36C42.2048 166.907 42.7782 167.68 43.9248 167.68ZM53.5448 175.24C52.5315 175.24 51.7515 174.907 51.2048 174.24C50.6582 173.56 50.3848 172.573 50.3848 171.28C50.3848 169.987 50.6582 169.007 51.2048 168.34C51.7515 167.66 52.5315 167.32 53.5448 167.32C54.5582 167.32 55.3382 167.66 55.8848 168.34C56.4315 169.007 56.7048 169.987 56.7048 171.28C56.7048 172.573 56.4315 173.56 55.8848 174.24C55.3382 174.907 54.5582 175.24 53.5448 175.24ZM53.5448 174.2C54.6915 174.2 55.2648 173.427 55.2648 171.88V170.68C55.2648 169.133 54.6915 168.36 53.5448 168.36C52.3982 168.36 51.8248 169.133 51.8248 170.68V171.88C51.8248 173.427 52.3982 174.2 53.5448 174.2Z" fill="black"/>
<path d="M21.5005 84.24C20.7805 84.24 20.1271 84.12 19.5405 83.88C18.9671 83.6267 18.4738 83.2733 18.0605 82.82C17.6605 82.3533 17.3538 81.7867 17.1405 81.12C16.9271 80.4533 16.8205 79.7067 16.8205 78.88C16.8205 77.84 16.9738 76.8667 17.2805 75.96C17.5871 75.04 17.9805 74.2067 18.4605 73.46C18.9538 72.7 19.4938 72.0333 20.0805 71.46C20.6671 70.8733 21.2405 70.4 21.8005 70.04H23.9605C23.2138 70.5867 22.5471 71.12 21.9605 71.64C21.3738 72.16 20.8605 72.7067 20.4205 73.28C19.9805 73.84 19.6071 74.4467 19.3005 75.1C18.9938 75.74 18.7471 76.4667 18.5605 77.28L18.6605 77.32C18.9938 76.7467 19.4205 76.2733 19.9405 75.9C20.4738 75.5133 21.1671 75.32 22.0205 75.32C22.6205 75.32 23.1738 75.42 23.6805 75.62C24.1871 75.82 24.6205 76.1067 24.9805 76.48C25.3405 76.8533 25.6205 77.3067 25.8205 77.84C26.0338 78.3733 26.1405 78.9667 26.1405 79.62C26.1405 80.3 26.0271 80.9267 25.8005 81.5C25.5871 82.06 25.2738 82.5467 24.8605 82.96C24.4605 83.36 23.9738 83.6733 23.4005 83.9C22.8271 84.1267 22.1938 84.24 21.5005 84.24ZM21.4805 82.78C22.4005 82.78 23.1138 82.5267 23.6205 82.02C24.1405 81.5133 24.4005 80.7867 24.4005 79.84V79.68C24.4005 78.7333 24.1405 78.0067 23.6205 77.5C23.1138 76.9933 22.4005 76.74 21.4805 76.74C20.5605 76.74 19.8405 76.9933 19.3205 77.5C18.8138 78.0067 18.5605 78.7333 18.5605 79.68V79.84C18.5605 80.7867 18.8138 81.5133 19.3205 82.02C19.8405 82.5267 20.5605 82.78 21.4805 82.78ZM33.4727 84.24C31.806 84.24 30.586 83.6067 29.8127 82.34C29.0527 81.0733 28.6727 79.3 28.6727 77.02C28.6727 74.74 29.0527 72.9667 29.8127 71.7C30.586 70.4333 31.806 69.8 33.4727 69.8C35.1393 69.8 36.3527 70.4333 37.1127 71.7C37.886 72.9667 38.2727 74.74 38.2727 77.02C38.2727 79.3 37.886 81.0733 37.1127 82.34C36.3527 83.6067 35.1393 84.24 33.4727 84.24ZM33.4727 82.78C34.0193 82.78 34.486 82.6667 34.8727 82.44C35.2593 82.2133 35.5727 81.8933 35.8127 81.48C36.0527 81.0667 36.226 80.58 36.3327 80.02C36.4527 79.46 36.5127 78.84 36.5127 78.16V75.88C36.5127 75.2 36.4527 74.58 36.3327 74.02C36.226 73.46 36.0527 72.9733 35.8127 72.56C35.5727 72.1467 35.2593 71.8267 34.8727 71.6C34.486 71.3733 34.0193 71.26 33.4727 71.26C32.926 71.26 32.4593 71.3733 32.0727 71.6C31.686 71.8267 31.3727 72.1467 31.1327 72.56C30.8927 72.9733 30.7127 73.46 30.5927 74.02C30.486 74.58 30.4327 75.2 30.4327 75.88V78.16C30.4327 78.84 30.486 79.46 30.5927 80.02C30.7127 80.58 30.8927 81.0667 31.1327 81.48C31.3727 81.8933 31.686 82.2133 32.0727 82.44C32.4593 82.6667 32.926 82.78 33.4727 82.78ZM43.1248 84L52.8048 70.04H54.3448L44.6648 84H43.1248ZM43.9248 77.72C42.9115 77.72 42.1315 77.3867 41.5848 76.72C41.0382 76.04 40.7648 75.0533 40.7648 73.76C40.7648 72.4667 41.0382 71.4867 41.5848 70.82C42.1315 70.14 42.9115 69.8 43.9248 69.8C44.9382 69.8 45.7182 70.14 46.2648 70.82C46.8115 71.4867 47.0848 72.4667 47.0848 73.76C47.0848 75.0533 46.8115 76.04 46.2648 76.72C45.7182 77.3867 44.9382 77.72 43.9248 77.72ZM43.9248 76.68C45.0715 76.68 45.6448 75.9067 45.6448 74.36V73.16C45.6448 71.6133 45.0715 70.84 43.9248 70.84C42.7782 70.84 42.2048 71.6133 42.2048 73.16V74.36C42.2048 75.9067 42.7782 76.68 43.9248 76.68ZM53.5448 84.24C52.5315 84.24 51.7515 83.9067 51.2048 83.24C50.6582 82.56 50.3848 81.5733 50.3848 80.28C50.3848 78.9867 50.6582 78.0067 51.2048 77.34C51.7515 76.66 52.5315 76.32 53.5448 76.32C54.5582 76.32 55.3382 76.66 55.8848 77.34C56.4315 78.0067 56.7048 78.9867 56.7048 80.28C56.7048 81.5733 56.4315 82.56 55.8848 83.24C55.3382 83.9067 54.5582 84.24 53.5448 84.24ZM53.5448 83.2C54.6915 83.2 55.2648 82.4267 55.2648 80.88V79.68C55.2648 78.1333 54.6915 77.36 53.5448 77.36C52.3982 77.36 51.8248 78.1333 51.8248 79.68V80.88C51.8248 82.4267 52.3982 83.2 53.5448 83.2Z" fill="black"/>
<path d="M220.52 17.14L218.54 19.34V24H216.86V10.04H218.54V17.46H218.6L220.6 15.04L224.82 10.04H226.88L221.68 16.02L227.24 24H225.16L220.52 17.14ZM229.18 24V13.68H230.78V15.36H230.86C230.98 15.0933 231.114 14.8467 231.26 14.62C231.42 14.38 231.607 14.1733 231.82 14C232.047 13.8267 232.307 13.6933 232.6 13.6C232.894 13.4933 233.24 13.44 233.64 13.44C234.32 13.44 234.947 13.6067 235.52 13.94C236.094 14.26 236.52 14.7933 236.8 15.54H236.84C237.027 14.98 237.374 14.4933 237.88 14.08C238.4 13.6533 239.1 13.44 239.98 13.44C241.034 13.44 241.854 13.7867 242.44 14.48C243.04 15.16 243.34 16.1267 243.34 17.38V24H241.74V17.66C241.74 16.74 241.56 16.0467 241.2 15.58C240.84 15.1133 240.267 14.88 239.48 14.88C239.16 14.88 238.854 14.92 238.56 15C238.28 15.08 238.027 15.2 237.8 15.36C237.574 15.52 237.394 15.7267 237.26 15.98C237.127 16.22 237.06 16.5067 237.06 16.84V24H235.46V17.66C235.46 16.74 235.28 16.0467 234.92 15.58C234.56 15.1133 234 14.88 233.24 14.88C232.92 14.88 232.614 14.92 232.32 15C232.027 15.08 231.767 15.2 231.54 15.36C231.314 15.52 231.127 15.7267 230.98 15.98C230.847 16.22 230.78 16.5067 230.78 16.84V24H229.18Z" fill="black"/>
<circle cx="195" cy="17" r="9.5" fill="#3F007D" stroke="white" stroke-width="3"/>
<rect x="134.121" y="145.314" width="17" height="17" transform="rotate(135 134.121 145.314)" fill="#F16913" stroke="white" stroke-width="3"/>
<rect x="302.92" y="414.899" width="17" height="17" transform="rotate(135 302.92 414.899)" fill="#F16913" stroke="white" stroke-width="3"/>
<rect x="468.92" y="519.899" width="17" height="17" transform="rotate(135 468.92 519.899)" fill="#F16913" stroke="white" stroke-width="3"/>
<rect x="629.92" y="555.899" width="17" height="17" transform="rotate(135 629.92 555.899)" fill="#F16913" stroke="white" stroke-width="3"/>
<rect x="813.92" y="596.899" width="17" height="17" transform="rotate(135 813.92 596.899)" fill="#F16913" stroke="white" stroke-width="3"/>
<rect x="975.92" y="596.899" width="17" height="17" transform="rotate(135 975.92 596.899)" fill="#F16913" stroke="white" stroke-width="3"/>
<path d="M121 145L291 415L457 520L618 556L802 597H965" stroke="#F16913" stroke-width="3"/>
<rect x="97.9204" y="16.8994" width="17" height="17" transform="rotate(135 97.9204 16.8994)" fill="#F16913" stroke="white" stroke-width="3"/>
<path d="M112.56 11.52V24H110.88V11.52H106.44V10.04H117V11.52H112.56ZM124.509 22.32H124.429C124.323 22.56 124.189 22.8 124.029 23.04C123.883 23.2667 123.696 23.4733 123.469 23.66C123.243 23.8333 122.969 23.9733 122.649 24.08C122.329 24.1867 121.956 24.24 121.529 24.24C120.463 24.24 119.616 23.9 118.989 23.22C118.363 22.5267 118.049 21.5533 118.049 20.3V13.68H119.649V20.02C119.649 21.8733 120.436 22.8 122.009 22.8C122.329 22.8 122.636 22.76 122.929 22.68C123.236 22.6 123.503 22.48 123.729 22.32C123.969 22.16 124.156 21.96 124.289 21.72C124.436 21.4667 124.509 21.1667 124.509 20.82V13.68H126.109V24H124.509V22.32ZM129.516 24V13.68H131.116V15.58H131.216C131.403 15.0867 131.736 14.6467 132.216 14.26C132.696 13.8733 133.356 13.68 134.196 13.68H134.816V15.28H133.876C133.01 15.28 132.33 15.4467 131.836 15.78C131.356 16.1 131.116 16.5067 131.116 17V24H129.516ZM140.643 24.24C139.936 24.24 139.296 24.1133 138.723 23.86C138.163 23.6067 137.676 23.2467 137.263 22.78C136.863 22.3 136.549 21.7333 136.323 21.08C136.109 20.4133 136.003 19.6667 136.003 18.84C136.003 18.0267 136.109 17.2867 136.323 16.62C136.549 15.9533 136.863 15.3867 137.263 14.92C137.676 14.44 138.163 14.0733 138.723 13.82C139.296 13.5667 139.936 13.44 140.643 13.44C141.336 13.44 141.956 13.5667 142.503 13.82C143.049 14.0733 143.516 14.4267 143.903 14.88C144.289 15.32 144.583 15.8467 144.783 16.46C144.996 17.0733 145.103 17.7467 145.103 18.48V19.24H137.683V19.72C137.683 20.16 137.749 20.5733 137.883 20.96C138.029 21.3333 138.229 21.66 138.483 21.94C138.749 22.22 139.069 22.44 139.443 22.6C139.829 22.76 140.263 22.84 140.743 22.84C141.396 22.84 141.963 22.6867 142.443 22.38C142.936 22.0733 143.316 21.6333 143.583 21.06L144.723 21.88C144.389 22.5867 143.869 23.16 143.163 23.6C142.456 24.0267 141.616 24.24 140.643 24.24ZM140.643 14.78C140.203 14.78 139.803 14.86 139.443 15.02C139.083 15.1667 138.769 15.38 138.503 15.66C138.249 15.94 138.049 16.2733 137.903 16.66C137.756 17.0333 137.683 17.4467 137.683 17.9V18.04H143.383V17.82C143.383 16.9 143.129 16.1667 142.623 15.62C142.129 15.06 141.469 14.78 140.643 14.78Z" fill="black"/>
<path d="M130 418L288 372L455 424L617 534L802 580L967 511" stroke="#3F007D" stroke-width="3"/>
<circle cx="122" cy="419" r="9.5" fill="#3F007D" stroke="white" stroke-width="3"/>
<circle cx="291" cy="372" r="9.5" fill="#3F007D" stroke="white" stroke-width="3"/>
<circle cx="457" cy="425" r="9.5" fill="#3F007D" stroke="white" stroke-width="3"/>
<circle cx="617" cy="535" r="9.5" fill="#3F007D" stroke="white" stroke-width="3"/>
<circle cx="802" cy="579" r="9.5" fill="#3F007D" stroke="white" stroke-width="3"/>
<circle cx="964" cy="510" r="9.5" fill="#3F007D" stroke="white" stroke-width="3"/>
<rect x="130.5" y="120.5" width="48" height="24" fill="white" stroke="#1A1A1A"/>
<path d="M145.967 128.656H140.943L140.687 132.4H140.799C140.916 132.165 141.044 131.947 141.183 131.744C141.321 131.541 141.481 131.371 141.663 131.232C141.844 131.093 142.052 130.987 142.287 130.912C142.532 130.827 142.825 130.784 143.167 130.784C143.647 130.784 144.095 130.864 144.511 131.024C144.927 131.184 145.284 131.419 145.583 131.728C145.892 132.027 146.132 132.395 146.303 132.832C146.484 133.269 146.575 133.765 146.575 134.32C146.575 134.885 146.484 135.403 146.303 135.872C146.121 136.341 145.855 136.752 145.503 137.104C145.151 137.445 144.719 137.712 144.207 137.904C143.695 138.096 143.108 138.192 142.447 138.192C141.935 138.192 141.476 138.133 141.071 138.016C140.665 137.909 140.308 137.76 139.999 137.568C139.689 137.376 139.423 137.157 139.199 136.912C138.975 136.656 138.777 136.389 138.607 136.112L140.143 134.928C140.271 135.141 140.404 135.344 140.543 135.536C140.681 135.717 140.841 135.877 141.023 136.016C141.215 136.155 141.423 136.267 141.647 136.352C141.881 136.427 142.153 136.464 142.463 136.464C143.092 136.464 143.567 136.288 143.887 135.936C144.217 135.584 144.383 135.104 144.383 134.496V134.368C144.383 133.792 144.217 133.339 143.887 133.008C143.556 132.677 143.097 132.512 142.511 132.512C142.052 132.512 141.679 132.603 141.391 132.784C141.103 132.955 140.873 133.141 140.703 133.344L138.975 133.104L139.391 126.832H145.967V128.656ZM148.776 138V136.288H151.848V128.352H151.704L149.272 131.232L147.96 130.128L150.728 126.832H153.912V136.288H156.472V138H148.776ZM159.794 138L167.538 126.832H169.394L161.65 138H159.794ZM160.562 132.976C159.655 132.976 158.962 132.709 158.482 132.176C158.013 131.632 157.778 130.843 157.778 129.808C157.778 128.773 158.013 127.989 158.482 127.456C158.962 126.912 159.655 126.64 160.562 126.64C161.469 126.64 162.157 126.912 162.626 127.456C163.095 127.989 163.33 128.773 163.33 129.808C163.33 130.843 163.095 131.632 162.626 132.176C162.157 132.709 161.469 132.976 160.562 132.976ZM160.562 131.76C161.223 131.76 161.554 131.253 161.554 130.24V129.376C161.554 128.363 161.223 127.856 160.562 127.856C159.901 127.856 159.57 128.363 159.57 129.376V130.24C159.57 131.253 159.901 131.76 160.562 131.76ZM168.626 138.192C167.73 138.192 167.042 137.925 166.562 137.392C166.093 136.848 165.858 136.059 165.858 135.024C165.858 133.989 166.093 133.205 166.562 132.672C167.042 132.128 167.73 131.856 168.626 131.856C169.533 131.856 170.221 132.128 170.69 132.672C171.17 133.205 171.41 133.989 171.41 135.024C171.41 136.059 171.17 136.848 170.69 137.392C170.221 137.925 169.533 138.192 168.626 138.192ZM168.626 136.976C169.287 136.976 169.618 136.469 169.618 135.456V134.592C169.618 133.579 169.287 133.072 168.626 133.072C167.965 133.072 167.634 133.579 167.634 134.592V135.456C167.634 136.469 167.965 136.976 168.626 136.976Z" fill="black"/>
<rect x="235.5" y="420.5" width="48" height="24" fill="white" stroke="#1A1A1A"/>
<path d="M251.463 438H243.719V436.048L247.223 432.976C247.82 432.453 248.257 431.984 248.535 431.568C248.812 431.141 248.951 430.683 248.951 430.192V429.984C248.951 429.493 248.791 429.12 248.471 428.864C248.151 428.597 247.761 428.464 247.303 428.464C246.727 428.464 246.289 428.629 245.991 428.96C245.692 429.28 245.479 429.669 245.351 430.128L243.527 429.424C243.644 429.051 243.809 428.699 244.023 428.368C244.236 428.027 244.503 427.728 244.823 427.472C245.153 427.216 245.537 427.013 245.975 426.864C246.412 426.715 246.913 426.64 247.479 426.64C248.065 426.64 248.588 426.725 249.047 426.896C249.505 427.056 249.889 427.285 250.199 427.584C250.519 427.883 250.759 428.235 250.919 428.64C251.089 429.045 251.175 429.488 251.175 429.968C251.175 430.437 251.1 430.864 250.951 431.248C250.801 431.632 250.599 432 250.343 432.352C250.087 432.693 249.788 433.024 249.447 433.344C249.105 433.653 248.743 433.968 248.359 434.288L246.007 436.224H251.463V438ZM256.512 431.344C257.152 431.344 257.622 431.216 257.92 430.96C258.23 430.693 258.384 430.357 258.384 429.952V429.84C258.384 429.381 258.235 429.024 257.936 428.768C257.648 428.501 257.248 428.368 256.736 428.368C256.246 428.368 255.808 428.485 255.424 428.72C255.051 428.955 254.726 429.285 254.448 429.712L253.104 428.496C253.296 428.24 253.504 428 253.728 427.776C253.963 427.541 254.23 427.344 254.528 427.184C254.827 427.013 255.163 426.88 255.536 426.784C255.91 426.688 256.331 426.64 256.8 426.64C257.366 426.64 257.878 426.709 258.336 426.848C258.806 426.976 259.206 427.168 259.536 427.424C259.878 427.68 260.139 427.989 260.32 428.352C260.502 428.704 260.592 429.104 260.592 429.552C260.592 429.915 260.534 430.24 260.416 430.528C260.31 430.816 260.155 431.067 259.952 431.28C259.76 431.493 259.531 431.669 259.264 431.808C259.008 431.936 258.736 432.032 258.448 432.096V432.192C258.768 432.256 259.072 432.357 259.36 432.496C259.648 432.635 259.894 432.821 260.096 433.056C260.31 433.28 260.475 433.547 260.592 433.856C260.72 434.165 260.784 434.517 260.784 434.912C260.784 435.403 260.683 435.851 260.48 436.256C260.288 436.661 260.011 437.008 259.648 437.296C259.286 437.584 258.854 437.808 258.352 437.968C257.851 438.117 257.291 438.192 256.672 438.192C256.128 438.192 255.648 438.133 255.232 438.016C254.816 437.909 254.448 437.76 254.128 437.568C253.819 437.376 253.547 437.157 253.312 436.912C253.078 436.656 252.875 436.389 252.704 436.112L254.256 434.928C254.384 435.152 254.523 435.36 254.672 435.552C254.822 435.733 254.992 435.893 255.184 436.032C255.376 436.171 255.595 436.277 255.84 436.352C256.086 436.427 256.363 436.464 256.672 436.464C257.291 436.464 257.766 436.315 258.096 436.016C258.427 435.717 258.592 435.307 258.592 434.784V434.672C258.592 434.16 258.411 433.771 258.048 433.504C257.696 433.237 257.184 433.104 256.512 433.104H255.408V431.344H256.512ZM264.794 438L272.538 426.832H274.394L266.65 438H264.794ZM265.562 432.976C264.655 432.976 263.962 432.709 263.482 432.176C263.013 431.632 262.778 430.843 262.778 429.808C262.778 428.773 263.013 427.989 263.482 427.456C263.962 426.912 264.655 426.64 265.562 426.64C266.469 426.64 267.157 426.912 267.626 427.456C268.095 427.989 268.33 428.773 268.33 429.808C268.33 430.843 268.095 431.632 267.626 432.176C267.157 432.709 266.469 432.976 265.562 432.976ZM265.562 431.76C266.223 431.76 266.554 431.253 266.554 430.24V429.376C266.554 428.363 266.223 427.856 265.562 427.856C264.901 427.856 264.57 428.363 264.57 429.376V430.24C264.57 431.253 264.901 431.76 265.562 431.76ZM273.626 438.192C272.73 438.192 272.042 437.925 271.562 437.392C271.093 436.848 270.858 436.059 270.858 435.024C270.858 433.989 271.093 433.205 271.562 432.672C272.042 432.128 272.73 431.856 273.626 431.856C274.533 431.856 275.221 432.128 275.69 432.672C276.17 433.205 276.41 433.989 276.41 435.024C276.41 436.059 276.17 436.848 275.69 437.392C275.221 437.925 274.533 438.192 273.626 438.192ZM273.626 436.976C274.287 436.976 274.618 436.469 274.618 435.456V434.592C274.618 433.579 274.287 433.072 273.626 433.072C272.965 433.072 272.634 433.579 272.634 434.592V435.456C272.634 436.469 272.965 436.976 273.626 436.976Z" fill="black"/>
<rect x="400.5" y="528.5" width="48" height="24" fill="white" stroke="#1A1A1A"/>
<path d="M409.183 546V544.288H412.255V536.352H412.111L409.679 539.232L408.367 538.128L411.135 534.832H414.319V544.288H416.879V546H409.183ZM418.776 546V544.288H421.848V536.352H421.704L419.272 539.232L417.96 538.128L420.728 534.832H423.912V544.288H426.472V546H418.776ZM429.794 546L437.538 534.832H439.394L431.65 546H429.794ZM430.562 540.976C429.655 540.976 428.962 540.709 428.482 540.176C428.013 539.632 427.778 538.843 427.778 537.808C427.778 536.773 428.013 535.989 428.482 535.456C428.962 534.912 429.655 534.64 430.562 534.64C431.469 534.64 432.157 534.912 432.626 535.456C433.095 535.989 433.33 536.773 433.33 537.808C433.33 538.843 433.095 539.632 432.626 540.176C432.157 540.709 431.469 540.976 430.562 540.976ZM430.562 539.76C431.223 539.76 431.554 539.253 431.554 538.24V537.376C431.554 536.363 431.223 535.856 430.562 535.856C429.901 535.856 429.57 536.363 429.57 537.376V538.24C429.57 539.253 429.901 539.76 430.562 539.76ZM438.626 546.192C437.73 546.192 437.042 545.925 436.562 545.392C436.093 544.848 435.858 544.059 435.858 543.024C435.858 541.989 436.093 541.205 436.562 540.672C437.042 540.128 437.73 539.856 438.626 539.856C439.533 539.856 440.221 540.128 440.69 540.672C441.17 541.205 441.41 541.989 441.41 543.024C441.41 544.059 441.17 544.848 440.69 545.392C440.221 545.925 439.533 546.192 438.626 546.192ZM438.626 544.976C439.287 544.976 439.618 544.469 439.618 543.456V542.592C439.618 541.579 439.287 541.072 438.626 541.072C437.965 541.072 437.634 541.579 437.634 542.592V543.456C437.634 544.469 437.965 544.976 438.626 544.976Z" fill="black"/>
<rect x="560.5" y="566.5" width="48" height="24" fill="white" stroke="#1A1A1A"/>
<path d="M577.323 584.192C576.673 584.192 576.091 584.112 575.579 583.952C575.078 583.781 574.651 583.552 574.299 583.264C573.958 582.976 573.697 582.635 573.515 582.24C573.334 581.845 573.243 581.413 573.243 580.944C573.243 580.219 573.441 579.632 573.835 579.184C574.241 578.725 574.779 578.405 575.451 578.224V578.096C574.897 577.893 574.443 577.579 574.091 577.152C573.75 576.725 573.579 576.187 573.579 575.536C573.579 575.109 573.659 574.72 573.819 574.368C573.99 574.016 574.235 573.712 574.555 573.456C574.875 573.2 575.265 573.003 575.723 572.864C576.193 572.715 576.726 572.64 577.323 572.64C577.921 572.64 578.449 572.715 578.907 572.864C579.377 573.003 579.771 573.2 580.091 573.456C580.411 573.712 580.651 574.016 580.811 574.368C580.982 574.72 581.067 575.109 581.067 575.536C581.067 576.187 580.891 576.725 580.539 577.152C580.198 577.579 579.75 577.893 579.195 578.096V578.224C579.867 578.405 580.401 578.725 580.795 579.184C581.201 579.632 581.403 580.219 581.403 580.944C581.403 581.413 581.313 581.845 581.131 582.24C580.95 582.635 580.683 582.976 580.331 583.264C579.99 583.552 579.563 583.781 579.051 583.952C578.55 584.112 577.974 584.192 577.323 584.192ZM577.323 582.544C577.931 582.544 578.395 582.405 578.715 582.128C579.046 581.851 579.211 581.461 579.211 580.96V580.624C579.211 580.123 579.046 579.733 578.715 579.456C578.395 579.179 577.931 579.04 577.323 579.04C576.715 579.04 576.246 579.179 575.915 579.456C575.595 579.733 575.435 580.123 575.435 580.624V580.96C575.435 581.461 575.595 581.851 575.915 582.128C576.246 582.405 576.715 582.544 577.323 582.544ZM577.323 577.472C577.889 577.472 578.321 577.344 578.619 577.088C578.918 576.832 579.067 576.469 579.067 576V575.744C579.067 575.285 578.918 574.928 578.619 574.672C578.321 574.416 577.889 574.288 577.323 574.288C576.758 574.288 576.326 574.416 576.027 574.672C575.729 574.928 575.579 575.285 575.579 575.744V576C575.579 576.469 575.729 576.832 576.027 577.088C576.326 577.344 576.758 577.472 577.323 577.472ZM584.997 584L592.741 572.832H594.597L586.853 584H584.997ZM585.765 578.976C584.859 578.976 584.165 578.709 583.685 578.176C583.216 577.632 582.981 576.843 582.981 575.808C582.981 574.773 583.216 573.989 583.685 573.456C584.165 572.912 584.859 572.64 585.765 572.64C586.672 572.64 587.36 572.912 587.829 573.456C588.299 573.989 588.533 574.773 588.533 575.808C588.533 576.843 588.299 577.632 587.829 578.176C587.36 578.709 586.672 578.976 585.765 578.976ZM585.765 577.76C586.427 577.76 586.757 577.253 586.757 576.24V575.376C586.757 574.363 586.427 573.856 585.765 573.856C585.104 573.856 584.773 574.363 584.773 575.376V576.24C584.773 577.253 585.104 577.76 585.765 577.76ZM593.829 584.192C592.933 584.192 592.245 583.925 591.765 583.392C591.296 582.848 591.061 582.059 591.061 581.024C591.061 579.989 591.296 579.205 591.765 578.672C592.245 578.128 592.933 577.856 593.829 577.856C594.736 577.856 595.424 578.128 595.893 578.672C596.373 579.205 596.613 579.989 596.613 581.024C596.613 582.059 596.373 582.848 595.893 583.392C595.424 583.925 594.736 584.192 593.829 584.192ZM593.829 582.976C594.491 582.976 594.821 582.469 594.821 581.456V580.592C594.821 579.579 594.491 579.072 593.829 579.072C593.168 579.072 592.837 579.579 592.837 580.592V581.456C592.837 582.469 593.168 582.976 593.829 582.976Z" fill="black"/>
<rect x="743.5" y="594.5" width="48" height="24" fill="white" stroke="#1A1A1A"/>
<path d="M759.715 605.344C760.355 605.344 760.825 605.216 761.123 604.96C761.433 604.693 761.587 604.357 761.587 603.952V603.84C761.587 603.381 761.438 603.024 761.139 602.768C760.851 602.501 760.451 602.368 759.939 602.368C759.449 602.368 759.011 602.485 758.627 602.72C758.254 602.955 757.929 603.285 757.651 603.712L756.307 602.496C756.499 602.24 756.707 602 756.931 601.776C757.166 601.541 757.433 601.344 757.731 601.184C758.03 601.013 758.366 600.88 758.739 600.784C759.113 600.688 759.534 600.64 760.003 600.64C760.569 600.64 761.081 600.709 761.539 600.848C762.009 600.976 762.409 601.168 762.739 601.424C763.081 601.68 763.342 601.989 763.523 602.352C763.705 602.704 763.795 603.104 763.795 603.552C763.795 603.915 763.737 604.24 763.619 604.528C763.513 604.816 763.358 605.067 763.155 605.28C762.963 605.493 762.734 605.669 762.467 605.808C762.211 605.936 761.939 606.032 761.651 606.096V606.192C761.971 606.256 762.275 606.357 762.563 606.496C762.851 606.635 763.097 606.821 763.299 607.056C763.513 607.28 763.678 607.547 763.795 607.856C763.923 608.165 763.987 608.517 763.987 608.912C763.987 609.403 763.886 609.851 763.683 610.256C763.491 610.661 763.214 611.008 762.851 611.296C762.489 611.584 762.057 611.808 761.555 611.968C761.054 612.117 760.494 612.192 759.875 612.192C759.331 612.192 758.851 612.133 758.435 612.016C758.019 611.909 757.651 611.76 757.331 611.568C757.022 611.376 756.75 611.157 756.515 610.912C756.281 610.656 756.078 610.389 755.907 610.112L757.459 608.928C757.587 609.152 757.726 609.36 757.875 609.552C758.025 609.733 758.195 609.893 758.387 610.032C758.579 610.171 758.798 610.277 759.043 610.352C759.289 610.427 759.566 610.464 759.875 610.464C760.494 610.464 760.969 610.315 761.299 610.016C761.63 609.717 761.795 609.307 761.795 608.784V608.672C761.795 608.16 761.614 607.771 761.251 607.504C760.899 607.237 760.387 607.104 759.715 607.104H758.611V605.344H759.715ZM767.997 612L775.741 600.832H777.597L769.853 612H767.997ZM768.765 606.976C767.859 606.976 767.165 606.709 766.685 606.176C766.216 605.632 765.981 604.843 765.981 603.808C765.981 602.773 766.216 601.989 766.685 601.456C767.165 600.912 767.859 600.64 768.765 600.64C769.672 600.64 770.36 600.912 770.829 601.456C771.299 601.989 771.533 602.773 771.533 603.808C771.533 604.843 771.299 605.632 770.829 606.176C770.36 606.709 769.672 606.976 768.765 606.976ZM768.765 605.76C769.427 605.76 769.757 605.253 769.757 604.24V603.376C769.757 602.363 769.427 601.856 768.765 601.856C768.104 601.856 767.773 602.363 767.773 603.376V604.24C767.773 605.253 768.104 605.76 768.765 605.76ZM776.829 612.192C775.933 612.192 775.245 611.925 774.765 611.392C774.296 610.848 774.061 610.059 774.061 609.024C774.061 607.989 774.296 607.205 774.765 606.672C775.245 606.128 775.933 605.856 776.829 605.856C777.736 605.856 778.424 606.128 778.893 606.672C779.373 607.205 779.613 607.989 779.613 609.024C779.613 610.059 779.373 610.848 778.893 611.392C778.424 611.925 777.736 612.192 776.829 612.192ZM776.829 610.976C777.491 610.976 777.821 610.469 777.821 609.456V608.592C777.821 607.579 777.491 607.072 776.829 607.072C776.168 607.072 775.837 607.579 775.837 608.592V609.456C775.837 610.469 776.168 610.976 776.829 610.976Z" fill="black"/>
<rect x="954.5" y="558.5" width="48" height="24" fill="white" stroke="#1A1A1A"/>
<path d="M970.715 569.344C971.355 569.344 971.825 569.216 972.123 568.96C972.433 568.693 972.587 568.357 972.587 567.952V567.84C972.587 567.381 972.438 567.024 972.139 566.768C971.851 566.501 971.451 566.368 970.939 566.368C970.449 566.368 970.011 566.485 969.627 566.72C969.254 566.955 968.929 567.285 968.651 567.712L967.307 566.496C967.499 566.24 967.707 566 967.931 565.776C968.166 565.541 968.433 565.344 968.731 565.184C969.03 565.013 969.366 564.88 969.739 564.784C970.113 564.688 970.534 564.64 971.003 564.64C971.569 564.64 972.081 564.709 972.539 564.848C973.009 564.976 973.409 565.168 973.739 565.424C974.081 565.68 974.342 565.989 974.523 566.352C974.705 566.704 974.795 567.104 974.795 567.552C974.795 567.915 974.737 568.24 974.619 568.528C974.513 568.816 974.358 569.067 974.155 569.28C973.963 569.493 973.734 569.669 973.467 569.808C973.211 569.936 972.939 570.032 972.651 570.096V570.192C972.971 570.256 973.275 570.357 973.563 570.496C973.851 570.635 974.097 570.821 974.299 571.056C974.513 571.28 974.678 571.547 974.795 571.856C974.923 572.165 974.987 572.517 974.987 572.912C974.987 573.403 974.886 573.851 974.683 574.256C974.491 574.661 974.214 575.008 973.851 575.296C973.489 575.584 973.057 575.808 972.555 575.968C972.054 576.117 971.494 576.192 970.875 576.192C970.331 576.192 969.851 576.133 969.435 576.016C969.019 575.909 968.651 575.76 968.331 575.568C968.022 575.376 967.75 575.157 967.515 574.912C967.281 574.656 967.078 574.389 966.907 574.112L968.459 572.928C968.587 573.152 968.726 573.36 968.875 573.552C969.025 573.733 969.195 573.893 969.387 574.032C969.579 574.171 969.798 574.277 970.043 574.352C970.289 574.427 970.566 574.464 970.875 574.464C971.494 574.464 971.969 574.315 972.299 574.016C972.63 573.717 972.795 573.307 972.795 572.784V572.672C972.795 572.16 972.614 571.771 972.251 571.504C971.899 571.237 971.387 571.104 970.715 571.104H969.611V569.344H970.715ZM978.997 576L986.741 564.832H988.597L980.853 576H978.997ZM979.765 570.976C978.859 570.976 978.165 570.709 977.685 570.176C977.216 569.632 976.981 568.843 976.981 567.808C976.981 566.773 977.216 565.989 977.685 565.456C978.165 564.912 978.859 564.64 979.765 564.64C980.672 564.64 981.36 564.912 981.829 565.456C982.299 565.989 982.533 566.773 982.533 567.808C982.533 568.843 982.299 569.632 981.829 570.176C981.36 570.709 980.672 570.976 979.765 570.976ZM979.765 569.76C980.427 569.76 980.757 569.253 980.757 568.24V567.376C980.757 566.363 980.427 565.856 979.765 565.856C979.104 565.856 978.773 566.363 978.773 567.376V568.24C978.773 569.253 979.104 569.76 979.765 569.76ZM987.829 576.192C986.933 576.192 986.245 575.925 985.765 575.392C985.296 574.848 985.061 574.059 985.061 573.024C985.061 571.989 985.296 571.205 985.765 570.672C986.245 570.128 986.933 569.856 987.829 569.856C988.736 569.856 989.424 570.128 989.893 570.672C990.373 571.205 990.613 571.989 990.613 573.024C990.613 574.059 990.373 574.848 989.893 575.392C989.424 575.925 988.736 576.192 987.829 576.192ZM987.829 574.976C988.491 574.976 988.821 574.469 988.821 573.456V572.592C988.821 571.579 988.491 571.072 987.829 571.072C987.168 571.072 986.837 571.579 986.837 572.592V573.456C986.837 574.469 987.168 574.976 987.829 574.976Z" fill="black"/>
<rect x="942.5" y="477.5" width="48" height="24" fill="white" stroke="#1A1A1A"/>
<path d="M951.183 495V493.288H954.255V485.352H954.111L951.679 488.232L950.367 487.128L953.135 483.832H956.319V493.288H958.879V495H951.183ZM968.056 495H960.312V493.048L963.816 489.976C964.414 489.453 964.851 488.984 965.128 488.568C965.406 488.141 965.544 487.683 965.544 487.192V486.984C965.544 486.493 965.384 486.12 965.064 485.864C964.744 485.597 964.355 485.464 963.896 485.464C963.32 485.464 962.883 485.629 962.584 485.96C962.286 486.28 962.072 486.669 961.944 487.128L960.12 486.424C960.238 486.051 960.403 485.699 960.616 485.368C960.83 485.027 961.096 484.728 961.416 484.472C961.747 484.216 962.131 484.013 962.568 483.864C963.006 483.715 963.507 483.64 964.072 483.64C964.659 483.64 965.182 483.725 965.64 483.896C966.099 484.056 966.483 484.285 966.792 484.584C967.112 484.883 967.352 485.235 967.512 485.64C967.683 486.045 967.768 486.488 967.768 486.968C967.768 487.437 967.694 487.864 967.544 488.248C967.395 488.632 967.192 489 966.936 489.352C966.68 489.693 966.382 490.024 966.04 490.344C965.699 490.653 965.336 490.968 964.952 491.288L962.6 493.224H968.056V495ZM971.794 495L979.538 483.832H981.394L973.65 495H971.794ZM972.562 489.976C971.655 489.976 970.962 489.709 970.482 489.176C970.013 488.632 969.778 487.843 969.778 486.808C969.778 485.773 970.013 484.989 970.482 484.456C970.962 483.912 971.655 483.64 972.562 483.64C973.469 483.64 974.157 483.912 974.626 484.456C975.095 484.989 975.33 485.773 975.33 486.808C975.33 487.843 975.095 488.632 974.626 489.176C974.157 489.709 973.469 489.976 972.562 489.976ZM972.562 488.76C973.223 488.76 973.554 488.253 973.554 487.24V486.376C973.554 485.363 973.223 484.856 972.562 484.856C971.901 484.856 971.57 485.363 971.57 486.376V487.24C971.57 488.253 971.901 488.76 972.562 488.76ZM980.626 495.192C979.73 495.192 979.042 494.925 978.562 494.392C978.093 493.848 977.858 493.059 977.858 492.024C977.858 490.989 978.093 490.205 978.562 489.672C979.042 489.128 979.73 488.856 980.626 488.856C981.533 488.856 982.221 489.128 982.69 489.672C983.17 490.205 983.41 490.989 983.41 492.024C983.41 493.059 983.17 493.848 982.69 494.392C982.221 494.925 981.533 495.192 980.626 495.192ZM980.626 493.976C981.287 493.976 981.618 493.469 981.618 492.456V491.592C981.618 490.579 981.287 490.072 980.626 490.072C979.965 490.072 979.634 490.579 979.634 491.592V492.456C979.634 493.469 979.965 493.976 980.626 493.976Z" fill="black"/>
<rect x="769.5" y="540.5" width="48" height="24" fill="white" stroke="#1A1A1A"/>
<path d="M789.763 548.656H784.739L784.483 552.4H784.595C784.713 552.165 784.841 551.947 784.979 551.744C785.118 551.541 785.278 551.371 785.459 551.232C785.641 551.093 785.849 550.987 786.083 550.912C786.329 550.827 786.622 550.784 786.963 550.784C787.443 550.784 787.891 550.864 788.307 551.024C788.723 551.184 789.081 551.419 789.379 551.728C789.689 552.027 789.929 552.395 790.099 552.832C790.281 553.269 790.371 553.765 790.371 554.32C790.371 554.885 790.281 555.403 790.099 555.872C789.918 556.341 789.651 556.752 789.299 557.104C788.947 557.445 788.515 557.712 788.003 557.904C787.491 558.096 786.905 558.192 786.243 558.192C785.731 558.192 785.273 558.133 784.867 558.016C784.462 557.909 784.105 557.76 783.795 557.568C783.486 557.376 783.219 557.157 782.995 556.912C782.771 556.656 782.574 556.389 782.403 556.112L783.939 554.928C784.067 555.141 784.201 555.344 784.339 555.536C784.478 555.717 784.638 555.877 784.819 556.016C785.011 556.155 785.219 556.267 785.443 556.352C785.678 556.427 785.95 556.464 786.259 556.464C786.889 556.464 787.363 556.288 787.683 555.936C788.014 555.584 788.179 555.104 788.179 554.496V554.368C788.179 553.792 788.014 553.339 787.683 553.008C787.353 552.677 786.894 552.512 786.307 552.512C785.849 552.512 785.475 552.603 785.187 552.784C784.899 552.955 784.67 553.141 784.499 553.344L782.771 553.104L783.187 546.832H789.763V548.656ZM793.997 558L801.741 546.832H803.597L795.853 558H793.997ZM794.765 552.976C793.859 552.976 793.165 552.709 792.685 552.176C792.216 551.632 791.981 550.843 791.981 549.808C791.981 548.773 792.216 547.989 792.685 547.456C793.165 546.912 793.859 546.64 794.765 546.64C795.672 546.64 796.36 546.912 796.829 547.456C797.299 547.989 797.533 548.773 797.533 549.808C797.533 550.843 797.299 551.632 796.829 552.176C796.36 552.709 795.672 552.976 794.765 552.976ZM794.765 551.76C795.427 551.76 795.757 551.253 795.757 550.24V549.376C795.757 548.363 795.427 547.856 794.765 547.856C794.104 547.856 793.773 548.363 793.773 549.376V550.24C793.773 551.253 794.104 551.76 794.765 551.76ZM802.829 558.192C801.933 558.192 801.245 557.925 800.765 557.392C800.296 556.848 800.061 556.059 800.061 555.024C800.061 553.989 800.296 553.205 800.765 552.672C801.245 552.128 801.933 551.856 802.829 551.856C803.736 551.856 804.424 552.128 804.893 552.672C805.373 553.205 805.613 553.989 805.613 555.024C805.613 556.059 805.373 556.848 804.893 557.392C804.424 557.925 803.736 558.192 802.829 558.192ZM802.829 556.976C803.491 556.976 803.821 556.469 803.821 555.456V554.592C803.821 553.579 803.491 553.072 802.829 553.072C802.168 553.072 801.837 553.579 801.837 554.592V555.456C801.837 556.469 802.168 556.976 802.829 556.976Z" fill="black"/>
<rect x="624.5" y="495.5" width="48" height="24" fill="white" stroke="#1A1A1A"/>
<path d="M633.183 513V511.288H636.255V503.352H636.111L633.679 506.232L632.367 505.128L635.135 501.832H638.319V511.288H640.879V513H633.183ZM646.12 513.192C645.406 513.192 644.787 513.064 644.264 512.808C643.742 512.541 643.31 512.163 642.968 511.672C642.627 511.181 642.371 510.579 642.2 509.864C642.04 509.149 641.96 508.333 641.96 507.416C641.96 506.509 642.04 505.699 642.2 504.984C642.371 504.259 642.627 503.651 642.968 503.16C643.31 502.669 643.742 502.296 644.264 502.04C644.787 501.773 645.406 501.64 646.12 501.64C647.539 501.64 648.584 502.147 649.256 503.16C649.939 504.173 650.28 505.592 650.28 507.416C650.28 509.24 649.939 510.659 649.256 511.672C648.584 512.685 647.539 513.192 646.12 513.192ZM646.12 511.416C646.835 511.416 647.331 511.149 647.608 510.616C647.896 510.072 648.04 509.341 648.04 508.424V506.408C648.04 505.491 647.896 504.765 647.608 504.232C647.331 503.688 646.835 503.416 646.12 503.416C645.406 503.416 644.904 503.688 644.616 504.232C644.339 504.765 644.2 505.491 644.2 506.408V508.424C644.2 509.341 644.339 510.072 644.616 510.616C644.904 511.149 645.406 511.416 646.12 511.416ZM653.794 513L661.538 501.832H663.394L655.65 513H653.794ZM654.562 507.976C653.655 507.976 652.962 507.709 652.482 507.176C652.013 506.632 651.778 505.843 651.778 504.808C651.778 503.773 652.013 502.989 652.482 502.456C652.962 501.912 653.655 501.64 654.562 501.64C655.469 501.64 656.157 501.912 656.626 502.456C657.095 502.989 657.33 503.773 657.33 504.808C657.33 505.843 657.095 506.632 656.626 507.176C656.157 507.709 655.469 507.976 654.562 507.976ZM654.562 506.76C655.223 506.76 655.554 506.253 655.554 505.24V504.376C655.554 503.363 655.223 502.856 654.562 502.856C653.901 502.856 653.57 503.363 653.57 504.376V505.24C653.57 506.253 653.901 506.76 654.562 506.76ZM662.626 513.192C661.73 513.192 661.042 512.925 660.562 512.392C660.093 511.848 659.858 511.059 659.858 510.024C659.858 508.989 660.093 508.205 660.562 507.672C661.042 507.128 661.73 506.856 662.626 506.856C663.533 506.856 664.221 507.128 664.69 507.672C665.17 508.205 665.41 508.989 665.41 510.024C665.41 511.059 665.17 511.848 664.69 512.392C664.221 512.925 663.533 513.192 662.626 513.192ZM662.626 511.976C663.287 511.976 663.618 511.469 663.618 510.456V509.592C663.618 508.579 663.287 508.072 662.626 508.072C661.965 508.072 661.634 508.579 661.634 509.592V510.456C661.634 511.469 661.965 511.976 662.626 511.976Z" fill="black"/>
<rect x="467.5" y="395.5" width="48" height="24" fill="white" stroke="#1A1A1A"/>
<path d="M483.463 413H475.719V411.048L479.223 407.976C479.82 407.453 480.257 406.984 480.535 406.568C480.812 406.141 480.951 405.683 480.951 405.192V404.984C480.951 404.493 480.791 404.12 480.471 403.864C480.151 403.597 479.761 403.464 479.303 403.464C478.727 403.464 478.289 403.629 477.991 403.96C477.692 404.28 477.479 404.669 477.351 405.128L475.527 404.424C475.644 404.051 475.809 403.699 476.023 403.368C476.236 403.027 476.503 402.728 476.823 402.472C477.153 402.216 477.537 402.013 477.975 401.864C478.412 401.715 478.913 401.64 479.479 401.64C480.065 401.64 480.588 401.725 481.047 401.896C481.505 402.056 481.889 402.285 482.199 402.584C482.519 402.883 482.759 403.235 482.919 403.64C483.089 404.045 483.175 404.488 483.175 404.968C483.175 405.437 483.1 405.864 482.951 406.248C482.801 406.632 482.599 407 482.343 407.352C482.087 407.693 481.788 408.024 481.447 408.344C481.105 408.653 480.743 408.968 480.359 409.288L478.007 411.224H483.463V413ZM493.056 413H485.312V411.048L488.816 407.976C489.414 407.453 489.851 406.984 490.128 406.568C490.406 406.141 490.544 405.683 490.544 405.192V404.984C490.544 404.493 490.384 404.12 490.064 403.864C489.744 403.597 489.355 403.464 488.896 403.464C488.32 403.464 487.883 403.629 487.584 403.96C487.286 404.28 487.072 404.669 486.944 405.128L485.12 404.424C485.238 404.051 485.403 403.699 485.616 403.368C485.83 403.027 486.096 402.728 486.416 402.472C486.747 402.216 487.131 402.013 487.568 401.864C488.006 401.715 488.507 401.64 489.072 401.64C489.659 401.64 490.182 401.725 490.64 401.896C491.099 402.056 491.483 402.285 491.792 402.584C492.112 402.883 492.352 403.235 492.512 403.64C492.683 404.045 492.768 404.488 492.768 404.968C492.768 405.437 492.694 405.864 492.544 406.248C492.395 406.632 492.192 407 491.936 407.352C491.68 407.693 491.382 408.024 491.04 408.344C490.699 408.653 490.336 408.968 489.952 409.288L487.6 411.224H493.056V413ZM496.794 413L504.538 401.832H506.394L498.65 413H496.794ZM497.562 407.976C496.655 407.976 495.962 407.709 495.482 407.176C495.013 406.632 494.778 405.843 494.778 404.808C494.778 403.773 495.013 402.989 495.482 402.456C495.962 401.912 496.655 401.64 497.562 401.64C498.469 401.64 499.157 401.912 499.626 402.456C500.095 402.989 500.33 403.773 500.33 404.808C500.33 405.843 500.095 406.632 499.626 407.176C499.157 407.709 498.469 407.976 497.562 407.976ZM497.562 406.76C498.223 406.76 498.554 406.253 498.554 405.24V404.376C498.554 403.363 498.223 402.856 497.562 402.856C496.901 402.856 496.57 403.363 496.57 404.376V405.24C496.57 406.253 496.901 406.76 497.562 406.76ZM505.626 413.192C504.73 413.192 504.042 412.925 503.562 412.392C503.093 411.848 502.858 411.059 502.858 410.024C502.858 408.989 503.093 408.205 503.562 407.672C504.042 407.128 504.73 406.856 505.626 406.856C506.533 406.856 507.221 407.128 507.69 407.672C508.17 408.205 508.41 408.989 508.41 410.024C508.41 411.059 508.17 411.848 507.69 412.392C507.221 412.925 506.533 413.192 505.626 413.192ZM505.626 411.976C506.287 411.976 506.618 411.469 506.618 410.456V409.592C506.618 408.579 506.287 408.072 505.626 408.072C504.965 408.072 504.634 408.579 504.634 409.592V410.456C504.634 411.469 504.965 411.976 505.626 411.976Z" fill="black"/>
<rect x="294.5" y="332.5" width="48" height="24" fill="white" stroke="#1A1A1A"/>
<path d="M310.463 350H302.719V348.048L306.223 344.976C306.82 344.453 307.257 343.984 307.535 343.568C307.812 343.141 307.951 342.683 307.951 342.192V341.984C307.951 341.493 307.791 341.12 307.471 340.864C307.151 340.597 306.761 340.464 306.303 340.464C305.727 340.464 305.289 340.629 304.991 340.96C304.692 341.28 304.479 341.669 304.351 342.128L302.527 341.424C302.644 341.051 302.809 340.699 303.023 340.368C303.236 340.027 303.503 339.728 303.823 339.472C304.153 339.216 304.537 339.013 304.975 338.864C305.412 338.715 305.913 338.64 306.479 338.64C307.065 338.64 307.588 338.725 308.047 338.896C308.505 339.056 308.889 339.285 309.199 339.584C309.519 339.883 309.759 340.235 309.919 340.64C310.089 341.045 310.175 341.488 310.175 341.968C310.175 342.437 310.1 342.864 309.951 343.248C309.801 343.632 309.599 344 309.343 344.352C309.087 344.693 308.788 345.024 308.447 345.344C308.105 345.653 307.743 345.968 307.359 346.288L305.007 348.224H310.463V350ZM316.12 350.192C315.47 350.192 314.888 350.112 314.376 349.952C313.875 349.781 313.448 349.552 313.096 349.264C312.755 348.976 312.494 348.635 312.312 348.24C312.131 347.845 312.04 347.413 312.04 346.944C312.04 346.219 312.238 345.632 312.632 345.184C313.038 344.725 313.576 344.405 314.248 344.224V344.096C313.694 343.893 313.24 343.579 312.888 343.152C312.547 342.725 312.376 342.187 312.376 341.536C312.376 341.109 312.456 340.72 312.616 340.368C312.787 340.016 313.032 339.712 313.352 339.456C313.672 339.2 314.062 339.003 314.52 338.864C314.99 338.715 315.523 338.64 316.12 338.64C316.718 338.64 317.246 338.715 317.704 338.864C318.174 339.003 318.568 339.2 318.888 339.456C319.208 339.712 319.448 340.016 319.608 340.368C319.779 340.72 319.864 341.109 319.864 341.536C319.864 342.187 319.688 342.725 319.336 343.152C318.995 343.579 318.547 343.893 317.992 344.096V344.224C318.664 344.405 319.198 344.725 319.592 345.184C319.998 345.632 320.2 346.219 320.2 346.944C320.2 347.413 320.11 347.845 319.928 348.24C319.747 348.635 319.48 348.976 319.128 349.264C318.787 349.552 318.36 349.781 317.848 349.952C317.347 350.112 316.771 350.192 316.12 350.192ZM316.12 348.544C316.728 348.544 317.192 348.405 317.512 348.128C317.843 347.851 318.008 347.461 318.008 346.96V346.624C318.008 346.123 317.843 345.733 317.512 345.456C317.192 345.179 316.728 345.04 316.12 345.04C315.512 345.04 315.043 345.179 314.712 345.456C314.392 345.733 314.232 346.123 314.232 346.624V346.96C314.232 347.461 314.392 347.851 314.712 348.128C315.043 348.405 315.512 348.544 316.12 348.544ZM316.12 343.472C316.686 343.472 317.118 343.344 317.416 343.088C317.715 342.832 317.864 342.469 317.864 342V341.744C317.864 341.285 317.715 340.928 317.416 340.672C317.118 340.416 316.686 340.288 316.12 340.288C315.555 340.288 315.123 340.416 314.824 340.672C314.526 340.928 314.376 341.285 314.376 341.744V342C314.376 342.469 314.526 342.832 314.824 343.088C315.123 343.344 315.555 343.472 316.12 343.472ZM323.794 350L331.538 338.832H333.394L325.65 350H323.794ZM324.562 344.976C323.655 344.976 322.962 344.709 322.482 344.176C322.013 343.632 321.778 342.843 321.778 341.808C321.778 340.773 322.013 339.989 322.482 339.456C322.962 338.912 323.655 338.64 324.562 338.64C325.469 338.64 326.157 338.912 326.626 339.456C327.095 339.989 327.33 340.773 327.33 341.808C327.33 342.843 327.095 343.632 326.626 344.176C326.157 344.709 325.469 344.976 324.562 344.976ZM324.562 343.76C325.223 343.76 325.554 343.253 325.554 342.24V341.376C325.554 340.363 325.223 339.856 324.562 339.856C323.901 339.856 323.57 340.363 323.57 341.376V342.24C323.57 343.253 323.901 343.76 324.562 343.76ZM332.626 350.192C331.73 350.192 331.042 349.925 330.562 349.392C330.093 348.848 329.858 348.059 329.858 347.024C329.858 345.989 330.093 345.205 330.562 344.672C331.042 344.128 331.73 343.856 332.626 343.856C333.533 343.856 334.221 344.128 334.69 344.672C335.17 345.205 335.41 345.989 335.41 347.024C335.41 348.059 335.17 348.848 334.69 349.392C334.221 349.925 333.533 350.192 332.626 350.192ZM332.626 348.976C333.287 348.976 333.618 348.469 333.618 347.456V346.592C333.618 345.579 333.287 345.072 332.626 345.072C331.965 345.072 331.634 345.579 331.634 346.592V347.456C331.634 348.469 331.965 348.976 332.626 348.976Z" fill="black"/>
<rect x="76.5" y="384.5" width="48" height="24" fill="white" stroke="#1A1A1A"/>
<path d="M92.4626 402H84.7186V400.048L88.2226 396.976C88.8199 396.453 89.2572 395.984 89.5346 395.568C89.8119 395.141 89.9506 394.683 89.9506 394.192V393.984C89.9506 393.493 89.7906 393.12 89.4706 392.864C89.1506 392.597 88.7612 392.464 88.3026 392.464C87.7266 392.464 87.2892 392.629 86.9906 392.96C86.6919 393.28 86.4786 393.669 86.3506 394.128L84.5266 393.424C84.6439 393.051 84.8092 392.699 85.0226 392.368C85.2359 392.027 85.5026 391.728 85.8226 391.472C86.1532 391.216 86.5372 391.013 86.9746 390.864C87.4119 390.715 87.9132 390.64 88.4786 390.64C89.0652 390.64 89.5879 390.725 90.0466 390.896C90.5052 391.056 90.8892 391.285 91.1986 391.584C91.5186 391.883 91.7586 392.235 91.9186 392.64C92.0892 393.045 92.1746 393.488 92.1746 393.968C92.1746 394.437 92.0999 394.864 91.9506 395.248C91.8012 395.632 91.5986 396 91.3426 396.352C91.0866 396.693 90.7879 397.024 90.4466 397.344C90.1052 397.653 89.7426 397.968 89.3586 398.288L87.0066 400.224H92.4626V402ZM97.5123 395.344C98.1523 395.344 98.6216 395.216 98.9203 394.96C99.2296 394.693 99.3843 394.357 99.3843 393.952V393.84C99.3843 393.381 99.235 393.024 98.9363 392.768C98.6483 392.501 98.2483 392.368 97.7363 392.368C97.2456 392.368 96.8083 392.485 96.4243 392.72C96.051 392.955 95.7256 393.285 95.4483 393.712L94.1043 392.496C94.2963 392.24 94.5043 392 94.7283 391.776C94.963 391.541 95.2296 391.344 95.5283 391.184C95.827 391.013 96.163 390.88 96.5363 390.784C96.9096 390.688 97.331 390.64 97.8003 390.64C98.3656 390.64 98.8776 390.709 99.3363 390.848C99.8056 390.976 100.206 391.168 100.536 391.424C100.878 391.68 101.139 391.989 101.32 392.352C101.502 392.704 101.592 393.104 101.592 393.552C101.592 393.915 101.534 394.24 101.416 394.528C101.31 394.816 101.155 395.067 100.952 395.28C100.76 395.493 100.531 395.669 100.264 395.808C100.008 395.936 99.7363 396.032 99.4483 396.096V396.192C99.7683 396.256 100.072 396.357 100.36 396.496C100.648 396.635 100.894 396.821 101.096 397.056C101.31 397.28 101.475 397.547 101.592 397.856C101.72 398.165 101.784 398.517 101.784 398.912C101.784 399.403 101.683 399.851 101.48 400.256C101.288 400.661 101.011 401.008 100.648 401.296C100.286 401.584 99.8536 401.808 99.3523 401.968C98.851 402.117 98.291 402.192 97.6723 402.192C97.1283 402.192 96.6483 402.133 96.2323 402.016C95.8163 401.909 95.4483 401.76 95.1283 401.568C94.819 401.376 94.547 401.157 94.3123 400.912C94.0776 400.656 93.875 400.389 93.7043 400.112L95.2563 398.928C95.3843 399.152 95.523 399.36 95.6723 399.552C95.8216 399.733 95.9923 399.893 96.1843 400.032C96.3763 400.171 96.595 400.277 96.8403 400.352C97.0856 400.427 97.363 400.464 97.6723 400.464C98.291 400.464 98.7656 400.315 99.0963 400.016C99.427 399.717 99.5923 399.307 99.5923 398.784V398.672C99.5923 398.16 99.411 397.771 99.0483 397.504C98.6963 397.237 98.1843 397.104 97.5123 397.104H96.4083V395.344H97.5123ZM105.794 402L113.538 390.832H115.394L107.65 402H105.794ZM106.562 396.976C105.655 396.976 104.962 396.709 104.482 396.176C104.013 395.632 103.778 394.843 103.778 393.808C103.778 392.773 104.013 391.989 104.482 391.456C104.962 390.912 105.655 390.64 106.562 390.64C107.469 390.64 108.157 390.912 108.626 391.456C109.095 391.989 109.33 392.773 109.33 393.808C109.33 394.843 109.095 395.632 108.626 396.176C108.157 396.709 107.469 396.976 106.562 396.976ZM106.562 395.76C107.223 395.76 107.554 395.253 107.554 394.24V393.376C107.554 392.363 107.223 391.856 106.562 391.856C105.901 391.856 105.57 392.363 105.57 393.376V394.24C105.57 395.253 105.901 395.76 106.562 395.76ZM114.626 402.192C113.73 402.192 113.042 401.925 112.562 401.392C112.093 400.848 111.858 400.059 111.858 399.024C111.858 397.989 112.093 397.205 112.562 396.672C113.042 396.128 113.73 395.856 114.626 395.856C115.533 395.856 116.221 396.128 116.69 396.672C117.17 397.205 117.41 397.989 117.41 399.024C117.41 400.059 117.17 400.848 116.69 401.392C116.221 401.925 115.533 402.192 114.626 402.192ZM114.626 400.976C115.287 400.976 115.618 400.469 115.618 399.456V398.592C115.618 397.579 115.287 397.072 114.626 397.072C113.965 397.072 113.634 397.579 113.634 398.592V399.456C113.634 400.469 113.965 400.976 114.626 400.976Z" fill="black"/>
</svg>
