<svg width="418" height="387" viewBox="0 0 418 387" fill="none" xmlns="http://www.w3.org/2000/svg">
<g clip-path="url(#clip0_10746_17569)">
<rect width="418" height="387" fill="white"/>
<path d="M18.46 148V127.06H22.42V144.49H30.67V148H18.46ZM39.7816 148.36C38.6616 148.36 37.6516 148.17 36.7516 147.79C35.8716 147.41 35.1116 146.86 34.4716 146.14C33.8516 145.42 33.3716 144.56 33.0316 143.56C32.6916 142.54 32.5216 141.4 32.5216 140.14C32.5216 138.88 32.6916 137.75 33.0316 136.75C33.3716 135.75 33.8516 134.9 34.4716 134.2C35.1116 133.48 35.8716 132.93 36.7516 132.55C37.6516 132.17 38.6616 131.98 39.7816 131.98C40.9016 131.98 41.9116 132.17 42.8116 132.55C43.7116 132.93 44.4716 133.48 45.0916 134.2C45.7316 134.9 46.2216 135.75 46.5616 136.75C46.9016 137.75 47.0716 138.88 47.0716 140.14C47.0716 141.4 46.9016 142.54 46.5616 143.56C46.2216 144.56 45.7316 145.42 45.0916 146.14C44.4716 146.86 43.7116 147.41 42.8116 147.79C41.9116 148.17 40.9016 148.36 39.7816 148.36ZM39.7816 145.27C40.8016 145.27 41.6016 144.96 42.1816 144.34C42.7616 143.72 43.0516 142.81 43.0516 141.61V138.7C43.0516 137.52 42.7616 136.62 42.1816 136C41.6016 135.38 40.8016 135.07 39.7816 135.07C38.7816 135.07 37.9916 135.38 37.4116 136C36.8316 136.62 36.5416 137.52 36.5416 138.7V141.61C36.5416 142.81 36.8316 143.72 37.4116 144.34C37.9916 144.96 38.7816 145.27 39.7816 145.27ZM50.4759 148V132.34H54.3159V135.58H54.4659C54.5659 135.16 54.7159 134.76 54.9159 134.38C55.1359 133.98 55.4159 133.63 55.7559 133.33C56.0959 133.03 56.4959 132.79 56.9559 132.61C57.4359 132.43 57.9859 132.34 58.6059 132.34H59.4459V135.97H58.2459C56.9459 135.97 55.9659 136.16 55.3059 136.54C54.6459 136.92 54.3159 137.54 54.3159 138.4V148H50.4759ZM68.4367 148.36C67.2767 148.36 66.2367 148.17 65.3167 147.79C64.4167 147.39 63.6467 146.84 63.0067 146.14C62.3867 145.42 61.9067 144.56 61.5667 143.56C61.2267 142.54 61.0567 141.4 61.0567 140.14C61.0567 138.9 61.2167 137.78 61.5367 136.78C61.8767 135.78 62.3567 134.93 62.9767 134.23C63.5967 133.51 64.3567 132.96 65.2567 132.58C66.1567 132.18 67.1767 131.98 68.3167 131.98C69.5367 131.98 70.5967 132.19 71.4967 132.61C72.3967 133.03 73.1367 133.6 73.7167 134.32C74.2967 135.04 74.7267 135.88 75.0067 136.84C75.3067 137.78 75.4567 138.79 75.4567 139.87V141.13H65.0467V141.52C65.0467 142.66 65.3667 143.58 66.0067 144.28C66.6467 144.96 67.5967 145.3 68.8567 145.3C69.8167 145.3 70.5967 145.1 71.1967 144.7C71.8167 144.3 72.3667 143.79 72.8467 143.17L74.9167 145.48C74.2767 146.38 73.3967 147.09 72.2767 147.61C71.1767 148.11 69.8967 148.36 68.4367 148.36ZM68.3767 134.86C67.3567 134.86 66.5467 135.2 65.9467 135.88C65.3467 136.56 65.0467 137.44 65.0467 138.52V138.76H71.4667V138.49C71.4667 137.41 71.1967 136.54 70.6567 135.88C70.1367 135.2 69.3767 134.86 68.3767 134.86ZM78.8352 148V132.34H82.6752V134.95H82.8252C83.1252 134.13 83.6052 133.43 84.2652 132.85C84.9252 132.27 85.8452 131.98 87.0252 131.98C88.1052 131.98 89.0352 132.24 89.8152 132.76C90.5952 133.28 91.1752 134.07 91.5552 135.13H91.6152C91.8952 134.25 92.4452 133.51 93.2652 132.91C94.1052 132.29 95.1552 131.98 96.4152 131.98C97.9552 131.98 99.1352 132.51 99.9552 133.57C100.795 134.63 101.215 136.14 101.215 138.1V148H97.3752V138.49C97.3752 136.25 96.5352 135.13 94.8552 135.13C94.4752 135.13 94.1052 135.19 93.7452 135.31C93.4052 135.41 93.0952 135.57 92.8152 135.79C92.5552 135.99 92.3452 136.25 92.1852 136.57C92.0252 136.87 91.9452 137.23 91.9452 137.65V148H88.1052V138.49C88.1052 136.25 87.2652 135.13 85.5852 135.13C85.2252 135.13 84.8652 135.19 84.5052 135.31C84.1652 135.41 83.8552 135.57 83.5752 135.79C83.3152 135.99 83.0952 136.25 82.9152 136.57C82.7552 136.87 82.6752 137.23 82.6752 137.65V148H78.8352ZM114.476 130.06C113.676 130.06 113.096 129.88 112.736 129.52C112.396 129.16 112.226 128.7 112.226 128.14V127.54C112.226 126.98 112.396 126.52 112.736 126.16C113.096 125.8 113.676 125.62 114.476 125.62C115.256 125.62 115.826 125.8 116.186 126.16C116.546 126.52 116.726 126.98 116.726 127.54V128.14C116.726 128.7 116.546 129.16 116.186 129.52C115.826 129.88 115.256 130.06 114.476 130.06ZM112.556 132.34H116.396V148H112.556V132.34ZM120.847 132.34H124.687V134.92H124.807C125.087 134.02 125.617 133.31 126.397 132.79C127.177 132.25 128.087 131.98 129.127 131.98C131.127 131.98 132.647 132.69 133.687 134.11C134.747 135.51 135.277 137.52 135.277 140.14C135.277 142.78 134.747 144.81 133.687 146.23C132.647 147.65 131.127 148.36 129.127 148.36C128.087 148.36 127.177 148.09 126.397 147.55C125.637 147.01 125.107 146.29 124.807 145.39H124.687V154H120.847V132.34ZM127.897 145.18C128.897 145.18 129.707 144.85 130.327 144.19C130.947 143.53 131.257 142.64 131.257 141.52V138.82C131.257 137.7 130.947 136.81 130.327 136.15C129.707 135.47 128.897 135.13 127.897 135.13C126.977 135.13 126.207 135.36 125.587 135.82C124.987 136.28 124.687 136.89 124.687 137.65V142.63C124.687 143.45 124.987 144.08 125.587 144.52C126.207 144.96 126.977 145.18 127.897 145.18ZM143.965 148.36C142.465 148.36 141.205 148.11 140.185 147.61C139.165 147.09 138.265 146.38 137.485 145.48L139.825 143.2C140.405 143.86 141.035 144.38 141.715 144.76C142.415 145.14 143.215 145.33 144.115 145.33C145.035 145.33 145.695 145.17 146.095 144.85C146.515 144.53 146.725 144.09 146.725 143.53C146.725 143.07 146.575 142.71 146.275 142.45C145.995 142.17 145.505 141.98 144.805 141.88L143.245 141.67C141.545 141.45 140.245 140.97 139.345 140.23C138.465 139.47 138.025 138.37 138.025 136.93C138.025 136.17 138.165 135.49 138.445 134.89C138.725 134.27 139.125 133.75 139.645 133.33C140.165 132.89 140.785 132.56 141.505 132.34C142.245 132.1 143.065 131.98 143.965 131.98C144.725 131.98 145.395 132.04 145.975 132.16C146.575 132.26 147.115 132.42 147.595 132.64C148.075 132.84 148.515 133.1 148.915 133.42C149.315 133.72 149.705 134.06 150.085 134.44L147.835 136.69C147.375 136.21 146.825 135.81 146.185 135.49C145.545 135.17 144.845 135.01 144.085 135.01C143.245 135.01 142.635 135.16 142.255 135.46C141.895 135.76 141.715 136.15 141.715 136.63C141.715 137.15 141.865 137.55 142.165 137.83C142.485 138.09 143.015 138.28 143.755 138.4L145.345 138.61C148.725 139.09 150.415 140.63 150.415 143.23C150.415 143.99 150.255 144.69 149.935 145.33C149.635 145.95 149.205 146.49 148.645 146.95C148.085 147.39 147.405 147.74 146.605 148C145.825 148.24 144.945 148.36 143.965 148.36ZM163.166 145.39H163.016C162.876 145.79 162.686 146.17 162.446 146.53C162.226 146.87 161.936 147.18 161.576 147.46C161.236 147.74 160.816 147.96 160.316 148.12C159.836 148.28 159.276 148.36 158.636 148.36C157.016 148.36 155.776 147.83 154.916 146.77C154.056 145.71 153.626 144.2 153.626 142.24V132.34H157.466V141.85C157.466 142.93 157.676 143.76 158.096 144.34C158.516 144.9 159.186 145.18 160.106 145.18C160.486 145.18 160.856 145.13 161.216 145.03C161.596 144.93 161.926 144.78 162.206 144.58C162.486 144.36 162.716 144.1 162.896 143.8C163.076 143.48 163.166 143.11 163.166 142.69V132.34H167.006V148H163.166V145.39ZM171.443 148V132.34H175.283V134.95H175.433C175.733 134.13 176.213 133.43 176.873 132.85C177.533 132.27 178.453 131.98 179.633 131.98C180.713 131.98 181.643 132.24 182.423 132.76C183.203 133.28 183.783 134.07 184.163 135.13H184.223C184.503 134.25 185.053 133.51 185.873 132.91C186.713 132.29 187.763 131.98 189.023 131.98C190.563 131.98 191.743 132.51 192.563 133.57C193.403 134.63 193.823 136.14 193.823 138.1V148H189.983V138.49C189.983 136.25 189.143 135.13 187.463 135.13C187.083 135.13 186.713 135.19 186.353 135.31C186.013 135.41 185.703 135.57 185.423 135.79C185.163 135.99 184.953 136.25 184.793 136.57C184.633 136.87 184.553 137.23 184.553 137.65V148H180.713V138.49C180.713 136.25 179.873 135.13 178.193 135.13C177.833 135.13 177.473 135.19 177.113 135.31C176.773 135.41 176.463 135.57 176.183 135.79C175.923 135.99 175.703 136.25 175.523 136.57C175.363 136.87 175.283 137.23 175.283 137.65V148H171.443Z" fill="#1A1A1A"/>
<rect x="16.5" y="215.5" width="319" height="39" rx="3.5" stroke="#707070"/>
<path d="M36.416 234.512L34.832 236.272V240H33.488V228.832H34.832V234.768H34.88L36.48 232.832L39.856 228.832H41.504L37.344 233.616L41.792 240H40.128L36.416 234.512ZM44.1406 229.808C43.8633 229.808 43.6606 229.744 43.5326 229.616C43.4153 229.477 43.3566 229.301 43.3566 229.088V228.88C43.3566 228.667 43.4153 228.496 43.5326 228.368C43.6606 228.229 43.8633 228.16 44.1406 228.16C44.418 228.16 44.6153 228.229 44.7326 228.368C44.8606 228.496 44.9246 228.667 44.9246 228.88V229.088C44.9246 229.301 44.8606 229.477 44.7326 229.616C44.6153 229.744 44.418 229.808 44.1406 229.808ZM43.5006 231.744H44.7806V240H43.5006V231.744ZM47.5006 240V231.744H48.7806V233.264H48.8606C49.01 232.869 49.2766 232.517 49.6606 232.208C50.0446 231.899 50.5726 231.744 51.2446 231.744H51.7406V233.024H50.9886C50.2953 233.024 49.7513 233.157 49.3566 233.424C48.9726 233.68 48.7806 234.005 48.7806 234.4V240H47.5006ZM55.8556 240.192C55.0876 240.192 54.4423 240.048 53.9196 239.76C53.4076 239.461 52.965 239.067 52.5916 238.576L53.5036 237.84C53.8236 238.245 54.181 238.56 54.5756 238.784C54.9703 238.997 55.429 239.104 55.9516 239.104C56.4956 239.104 56.917 238.987 57.2156 238.752C57.525 238.517 57.6796 238.187 57.6796 237.76C57.6796 237.44 57.573 237.168 57.3596 236.944C57.157 236.709 56.7836 236.549 56.2396 236.464L55.5836 236.368C55.1996 236.315 54.8476 236.235 54.5276 236.128C54.2076 236.011 53.925 235.861 53.6796 235.68C53.445 235.488 53.2583 235.253 53.1196 234.976C52.9916 234.699 52.9276 234.368 52.9276 233.984C52.9276 233.579 53.0023 233.227 53.1516 232.928C53.301 232.619 53.5036 232.363 53.7596 232.16C54.0263 231.957 54.341 231.808 54.7036 231.712C55.0663 231.605 55.4556 231.552 55.8716 231.552C56.5436 231.552 57.1036 231.669 57.5516 231.904C58.0103 232.139 58.4103 232.464 58.7516 232.88L57.9036 233.648C57.7223 233.392 57.4556 233.163 57.1036 232.96C56.7516 232.747 56.309 232.64 55.7756 232.64C55.2423 232.64 54.837 232.757 54.5596 232.992C54.293 233.216 54.1596 233.525 54.1596 233.92C54.1596 234.325 54.293 234.619 54.5596 234.8C54.837 234.981 55.2316 235.115 55.7436 235.2L56.3836 235.296C57.301 235.435 57.9516 235.701 58.3356 236.096C58.7196 236.48 58.9116 236.987 58.9116 237.616C58.9116 238.416 58.6396 239.045 58.0956 239.504C57.5516 239.963 56.805 240.192 55.8556 240.192ZM62.8871 240C62.4391 240 62.0978 239.877 61.8631 239.632C61.6391 239.376 61.5271 239.045 61.5271 238.64V232.864H60.1671V231.744H60.9351C61.2125 231.744 61.3991 231.691 61.4951 231.584C61.6018 231.467 61.6551 231.269 61.6551 230.992V229.456H62.8071V231.744H64.6151V232.864H62.8071V238.88H64.4871V240H62.8871ZM69.714 240.192C69.1487 240.192 68.6367 240.091 68.178 239.888C67.73 239.685 67.3407 239.397 67.01 239.024C66.69 238.64 66.4393 238.187 66.258 237.664C66.0873 237.131 66.002 236.533 66.002 235.872C66.002 235.221 66.0873 234.629 66.258 234.096C66.4393 233.563 66.69 233.109 67.01 232.736C67.3407 232.352 67.73 232.059 68.178 231.856C68.6367 231.653 69.1487 231.552 69.714 231.552C70.2687 231.552 70.7647 231.653 71.202 231.856C71.6393 232.059 72.0127 232.341 72.322 232.704C72.6313 233.056 72.866 233.477 73.026 233.968C73.1967 234.459 73.282 234.997 73.282 235.584V236.192H67.346V236.576C67.346 236.928 67.3993 237.259 67.506 237.568C67.6233 237.867 67.7833 238.128 67.986 238.352C68.1993 238.576 68.4553 238.752 68.754 238.88C69.0633 239.008 69.41 239.072 69.794 239.072C70.3167 239.072 70.77 238.949 71.154 238.704C71.5487 238.459 71.8527 238.107 72.066 237.648L72.978 238.304C72.7113 238.869 72.2953 239.328 71.73 239.68C71.1647 240.021 70.4927 240.192 69.714 240.192ZM69.714 232.624C69.362 232.624 69.042 232.688 68.754 232.816C68.466 232.933 68.2153 233.104 68.002 233.328C67.7993 233.552 67.6393 233.819 67.522 234.128C67.4047 234.427 67.346 234.757 67.346 235.12V235.232H71.906V235.056C71.906 234.32 71.7033 233.733 71.298 233.296C70.9033 232.848 70.3753 232.624 69.714 232.624ZM75.3913 240V231.744H76.6713V233.088H76.7353C76.9379 232.619 77.2206 232.245 77.5833 231.968C77.9566 231.691 78.4526 231.552 79.0713 231.552C79.9246 231.552 80.5966 231.829 81.0873 232.384C81.5886 232.928 81.8393 233.701 81.8393 234.704V240H80.5593V234.928C80.5593 233.445 79.9353 232.704 78.6873 232.704C78.4313 232.704 78.1806 232.736 77.9353 232.8C77.7006 232.864 77.4873 232.96 77.2953 233.088C77.1033 233.216 76.9486 233.381 76.8313 233.584C76.7246 233.776 76.6713 234.005 76.6713 234.272V240H75.3913ZM97.0983 230.592H97.0183L96.0743 232.464L93.4023 237.328L90.7303 232.464L89.7863 230.592H89.7063V240H88.3943V228.832H90.1863L93.3863 234.848H93.4663L96.6823 228.832H98.4103V240H97.0983V230.592ZM100.451 240.096L101.523 238.752C100.979 237.995 100.707 237.035 100.707 235.872C100.707 235.221 100.797 234.629 100.979 234.096C101.16 233.563 101.411 233.109 101.731 232.736C102.061 232.352 102.456 232.059 102.915 231.856C103.373 231.653 103.88 231.552 104.435 231.552C104.883 231.552 105.293 231.621 105.667 231.76C106.051 231.899 106.397 232.091 106.707 232.336L107.699 231.104L108.419 231.648L107.347 233.008C107.603 233.371 107.8 233.797 107.939 234.288C108.088 234.768 108.163 235.296 108.163 235.872C108.163 236.533 108.072 237.131 107.891 237.664C107.709 238.187 107.453 238.64 107.123 239.024C106.792 239.397 106.397 239.685 105.939 239.888C105.491 240.091 104.989 240.192 104.435 240.192C103.549 240.192 102.792 239.936 102.163 239.424L101.171 240.64L100.451 240.096ZM104.435 239.056C105.128 239.056 105.693 238.843 106.131 238.416C106.568 237.989 106.787 237.339 106.787 236.464V235.28C106.787 235.024 106.765 234.789 106.723 234.576C106.68 234.363 106.621 234.165 106.547 233.984L102.867 238.528C103.261 238.88 103.784 239.056 104.435 239.056ZM102.083 236.464C102.083 236.976 102.163 237.413 102.323 237.776L106.003 233.216C105.587 232.864 105.064 232.688 104.435 232.688C103.741 232.688 103.176 232.901 102.739 233.328C102.301 233.755 102.083 234.405 102.083 235.28V236.464ZM110.344 240V231.744H111.624V233.088H111.688C111.891 232.619 112.174 232.245 112.536 231.968C112.91 231.691 113.406 231.552 114.024 231.552C114.878 231.552 115.55 231.829 116.04 232.384C116.542 232.928 116.792 233.701 116.792 234.704V240H115.512V234.928C115.512 233.445 114.888 232.704 113.64 232.704C113.384 232.704 113.134 232.736 112.888 232.8C112.654 232.864 112.44 232.96 112.248 233.088C112.056 233.216 111.902 233.381 111.784 233.584C111.678 233.776 111.624 234.005 111.624 234.272V240H110.344ZM121.918 240.192C121.15 240.192 120.505 240.048 119.982 239.76C119.47 239.461 119.027 239.067 118.654 238.576L119.566 237.84C119.886 238.245 120.243 238.56 120.638 238.784C121.033 238.997 121.491 239.104 122.014 239.104C122.558 239.104 122.979 238.987 123.278 238.752C123.587 238.517 123.742 238.187 123.742 237.76C123.742 237.44 123.635 237.168 123.422 236.944C123.219 236.709 122.846 236.549 122.302 236.464L121.646 236.368C121.262 236.315 120.91 236.235 120.59 236.128C120.27 236.011 119.987 235.861 119.742 235.68C119.507 235.488 119.321 235.253 119.182 234.976C119.054 234.699 118.99 234.368 118.99 233.984C118.99 233.579 119.065 233.227 119.214 232.928C119.363 232.619 119.566 232.363 119.822 232.16C120.089 231.957 120.403 231.808 120.766 231.712C121.129 231.605 121.518 231.552 121.934 231.552C122.606 231.552 123.166 231.669 123.614 231.904C124.073 232.139 124.473 232.464 124.814 232.88L123.966 233.648C123.785 233.392 123.518 233.163 123.166 232.96C122.814 232.747 122.371 232.64 121.838 232.64C121.305 232.64 120.899 232.757 120.622 232.992C120.355 233.216 120.222 233.525 120.222 233.92C120.222 234.325 120.355 234.619 120.622 234.8C120.899 234.981 121.294 235.115 121.806 235.2L122.446 235.296C123.363 235.435 124.014 235.701 124.398 236.096C124.782 236.48 124.974 236.987 124.974 237.616C124.974 238.416 124.702 239.045 124.158 239.504C123.614 239.963 122.867 240.192 121.918 240.192ZM128.95 240C128.502 240 128.16 239.877 127.926 239.632C127.702 239.376 127.59 239.045 127.59 238.64V232.864H126.23V231.744H126.998C127.275 231.744 127.462 231.691 127.558 231.584C127.664 231.467 127.718 231.269 127.718 230.992V229.456H128.87V231.744H130.678V232.864H128.87V238.88H130.55V240H128.95ZM135.777 240.192C135.211 240.192 134.699 240.091 134.241 239.888C133.793 239.685 133.403 239.397 133.073 239.024C132.753 238.64 132.502 238.187 132.321 237.664C132.15 237.131 132.065 236.533 132.065 235.872C132.065 235.221 132.15 234.629 132.321 234.096C132.502 233.563 132.753 233.109 133.073 232.736C133.403 232.352 133.793 232.059 134.241 231.856C134.699 231.653 135.211 231.552 135.777 231.552C136.331 231.552 136.827 231.653 137.265 231.856C137.702 232.059 138.075 232.341 138.385 232.704C138.694 233.056 138.929 233.477 139.089 233.968C139.259 234.459 139.345 234.997 139.345 235.584V236.192H133.409V236.576C133.409 236.928 133.462 237.259 133.569 237.568C133.686 237.867 133.846 238.128 134.049 238.352C134.262 238.576 134.518 238.752 134.817 238.88C135.126 239.008 135.473 239.072 135.857 239.072C136.379 239.072 136.833 238.949 137.217 238.704C137.611 238.459 137.915 238.107 138.129 237.648L139.041 238.304C138.774 238.869 138.358 239.328 137.793 239.68C137.227 240.021 136.555 240.192 135.777 240.192ZM135.777 232.624C135.425 232.624 135.105 232.688 134.817 232.816C134.529 232.933 134.278 233.104 134.065 233.328C133.862 233.552 133.702 233.819 133.585 234.128C133.467 234.427 133.409 234.757 133.409 235.12V235.232H137.969V235.056C137.969 234.32 137.766 233.733 137.361 233.296C136.966 232.848 136.438 232.624 135.777 232.624ZM141.454 240V231.744H142.734V233.264H142.814C142.963 232.869 143.23 232.517 143.614 232.208C143.998 231.899 144.526 231.744 145.198 231.744H145.694V233.024H144.942C144.248 233.024 143.704 233.157 143.31 233.424C142.926 233.68 142.734 234.005 142.734 234.4V240H141.454ZM156.502 228.832V237.104C156.502 237.573 156.422 238 156.262 238.384C156.113 238.768 155.894 239.093 155.606 239.36C155.329 239.627 154.993 239.835 154.598 239.984C154.203 240.123 153.771 240.192 153.302 240.192C152.438 240.192 151.739 239.963 151.206 239.504C150.683 239.035 150.347 238.416 150.198 237.648L151.414 237.36C151.521 237.84 151.723 238.235 152.022 238.544C152.321 238.843 152.758 238.992 153.334 238.992C153.91 238.992 154.358 238.816 154.678 238.464C154.998 238.112 155.158 237.579 155.158 236.864V230.016H151.318V228.832H156.502ZM162.37 240.192C161.805 240.192 161.293 240.091 160.834 239.888C160.386 239.685 159.997 239.397 159.666 239.024C159.346 238.64 159.096 238.187 158.914 237.664C158.744 237.131 158.658 236.533 158.658 235.872C158.658 235.221 158.744 234.629 158.914 234.096C159.096 233.563 159.346 233.109 159.666 232.736C159.997 232.352 160.386 232.059 160.834 231.856C161.293 231.653 161.805 231.552 162.37 231.552C162.925 231.552 163.421 231.653 163.858 231.856C164.296 232.059 164.669 232.341 164.978 232.704C165.288 233.056 165.522 233.477 165.682 233.968C165.853 234.459 165.938 234.997 165.938 235.584V236.192H160.002V236.576C160.002 236.928 160.056 237.259 160.162 237.568C160.28 237.867 160.44 238.128 160.642 238.352C160.856 238.576 161.112 238.752 161.41 238.88C161.72 239.008 162.066 239.072 162.45 239.072C162.973 239.072 163.426 238.949 163.81 238.704C164.205 238.459 164.509 238.107 164.722 237.648L165.634 238.304C165.368 238.869 164.952 239.328 164.386 239.68C163.821 240.021 163.149 240.192 162.37 240.192ZM162.37 232.624C162.018 232.624 161.698 232.688 161.41 232.816C161.122 232.933 160.872 233.104 160.658 233.328C160.456 233.552 160.296 233.819 160.178 234.128C160.061 234.427 160.002 234.757 160.002 235.12V235.232H164.562V235.056C164.562 234.32 164.36 233.733 163.954 233.296C163.56 232.848 163.032 232.624 162.37 232.624ZM168.048 240V231.744H169.328V233.088H169.392C169.594 232.619 169.877 232.245 170.24 231.968C170.613 231.691 171.109 231.552 171.728 231.552C172.581 231.552 173.253 231.829 173.744 232.384C174.245 232.928 174.496 233.701 174.496 234.704V240H173.216V234.928C173.216 233.445 172.592 232.704 171.344 232.704C171.088 232.704 170.837 232.736 170.592 232.8C170.357 232.864 170.144 232.96 169.952 233.088C169.76 233.216 169.605 233.381 169.488 233.584C169.381 233.776 169.328 234.005 169.328 234.272V240H168.048ZM179.621 240.192C178.853 240.192 178.208 240.048 177.685 239.76C177.173 239.461 176.731 239.067 176.357 238.576L177.269 237.84C177.589 238.245 177.947 238.56 178.341 238.784C178.736 238.997 179.195 239.104 179.717 239.104C180.261 239.104 180.683 238.987 180.981 238.752C181.291 238.517 181.445 238.187 181.445 237.76C181.445 237.44 181.339 237.168 181.125 236.944C180.923 236.709 180.549 236.549 180.005 236.464L179.349 236.368C178.965 236.315 178.613 236.235 178.293 236.128C177.973 236.011 177.691 235.861 177.445 235.68C177.211 235.488 177.024 235.253 176.885 234.976C176.757 234.699 176.693 234.368 176.693 233.984C176.693 233.579 176.768 233.227 176.917 232.928C177.067 232.619 177.269 232.363 177.525 232.16C177.792 231.957 178.107 231.808 178.469 231.712C178.832 231.605 179.221 231.552 179.637 231.552C180.309 231.552 180.869 231.669 181.317 231.904C181.776 232.139 182.176 232.464 182.517 232.88L181.669 233.648C181.488 233.392 181.221 233.163 180.869 232.96C180.517 232.747 180.075 232.64 179.541 232.64C179.008 232.64 178.603 232.757 178.325 232.992C178.059 233.216 177.925 233.525 177.925 233.92C177.925 234.325 178.059 234.619 178.325 234.8C178.603 234.981 178.997 235.115 179.509 235.2L180.149 235.296C181.067 235.435 181.717 235.701 182.101 236.096C182.485 236.48 182.677 236.987 182.677 237.616C182.677 238.416 182.405 239.045 181.861 239.504C181.317 239.963 180.571 240.192 179.621 240.192ZM188.042 240.192C187.477 240.192 186.965 240.091 186.506 239.888C186.058 239.685 185.669 239.397 185.338 239.024C185.018 238.64 184.767 238.187 184.586 237.664C184.415 237.131 184.33 236.533 184.33 235.872C184.33 235.221 184.415 234.629 184.586 234.096C184.767 233.563 185.018 233.109 185.338 232.736C185.669 232.352 186.058 232.059 186.506 231.856C186.965 231.653 187.477 231.552 188.042 231.552C188.597 231.552 189.093 231.653 189.53 231.856C189.967 232.059 190.341 232.341 190.65 232.704C190.959 233.056 191.194 233.477 191.354 233.968C191.525 234.459 191.61 234.997 191.61 235.584V236.192H185.674V236.576C185.674 236.928 185.727 237.259 185.834 237.568C185.951 237.867 186.111 238.128 186.314 238.352C186.527 238.576 186.783 238.752 187.082 238.88C187.391 239.008 187.738 239.072 188.122 239.072C188.645 239.072 189.098 238.949 189.482 238.704C189.877 238.459 190.181 238.107 190.394 237.648L191.306 238.304C191.039 238.869 190.623 239.328 190.058 239.68C189.493 240.021 188.821 240.192 188.042 240.192ZM188.042 232.624C187.69 232.624 187.37 232.688 187.082 232.816C186.794 232.933 186.543 233.104 186.33 233.328C186.127 233.552 185.967 233.819 185.85 234.128C185.733 234.427 185.674 234.757 185.674 235.12V235.232H190.234V235.056C190.234 234.32 190.031 233.733 189.626 233.296C189.231 232.848 188.703 232.624 188.042 232.624ZM193.719 240V231.744H194.999V233.088H195.063C195.266 232.619 195.549 232.245 195.911 231.968C196.285 231.691 196.781 231.552 197.399 231.552C198.253 231.552 198.925 231.829 199.415 232.384C199.917 232.928 200.167 233.701 200.167 234.704V240H198.887V234.928C198.887 233.445 198.263 232.704 197.015 232.704C196.759 232.704 196.509 232.736 196.263 232.8C196.029 232.864 195.815 232.96 195.623 233.088C195.431 233.216 195.277 233.381 195.159 233.584C195.053 233.776 194.999 234.005 194.999 234.272V240H193.719Z" fill="#1A1A1A"/>
<path d="M20.512 196.272L19.36 193.952H19.312V202H17.312V190.832H19.632L22.992 196.56L24.144 198.88H24.192V190.832H26.192V202H23.872L20.512 196.272ZM34.828 202C34.38 202 34.0227 201.872 33.756 201.616C33.5 201.349 33.34 200.997 33.276 200.56H33.18C33.0413 201.104 32.7587 201.515 32.332 201.792C31.9053 202.059 31.3773 202.192 30.748 202.192C29.8947 202.192 29.2387 201.968 28.78 201.52C28.3213 201.072 28.092 200.475 28.092 199.728C28.092 198.864 28.4013 198.224 29.02 197.808C29.6387 197.381 30.5187 197.168 31.66 197.168H33.084V196.56C33.084 196.091 32.9613 195.728 32.716 195.472C32.4707 195.216 32.076 195.088 31.532 195.088C31.052 195.088 30.6627 195.195 30.364 195.408C30.076 195.611 29.8307 195.856 29.628 196.144L28.412 195.056C28.7213 194.576 29.132 194.192 29.644 193.904C30.156 193.605 30.8333 193.456 31.676 193.456C32.8067 193.456 33.6653 193.712 34.252 194.224C34.8387 194.736 35.132 195.472 35.132 196.432V200.368H35.964V202H34.828ZM31.436 200.704C31.8947 200.704 32.284 200.603 32.604 200.4C32.924 200.197 33.084 199.899 33.084 199.504V198.4H31.772C30.7053 198.4 30.172 198.741 30.172 199.424V199.696C30.172 200.037 30.2787 200.293 30.492 200.464C30.716 200.624 31.0307 200.704 31.436 200.704ZM39.2729 202L36.4889 193.648H38.5049L39.6729 197.248L40.4889 200.224H40.6009L41.4169 197.248L42.5529 193.648H44.5049L41.7049 202H39.2729ZM45.8715 202V193.648H47.9195V195.04H47.9995C48.1702 194.592 48.4368 194.219 48.7995 193.92C49.1728 193.611 49.6848 193.456 50.3355 193.456C51.1995 193.456 51.8608 193.739 52.3195 194.304C52.7782 194.869 53.0075 195.675 53.0075 196.72V202H50.9595V196.928C50.9595 196.331 50.8528 195.883 50.6395 195.584C50.4262 195.285 50.0742 195.136 49.5835 195.136C49.3702 195.136 49.1622 195.168 48.9595 195.232C48.7675 195.285 48.5915 195.371 48.4315 195.488C48.2822 195.595 48.1595 195.733 48.0635 195.904C47.9675 196.064 47.9195 196.256 47.9195 196.48V202H45.8715Z" fill="#1A1A1A"/>
<rect x="16" y="271" width="4" height="117" fill="#CC0000"/>
<path d="M33.312 297V285.832H40.672V287.704H35.424V290.408H40.064V292.28H35.424V295.128H40.672V297H33.312ZM42.5218 293.144V291.112H47.0978V293.144H42.5218ZM49.2153 297V288.648H51.2633V290.04H51.3433C51.5033 289.603 51.7593 289.229 52.1113 288.92C52.4633 288.611 52.9539 288.456 53.5833 288.456C54.1593 288.456 54.6553 288.595 55.0713 288.872C55.4873 289.149 55.7966 289.571 55.9993 290.136H56.0312C56.1806 289.667 56.4739 289.272 56.9113 288.952C57.3593 288.621 57.9193 288.456 58.5913 288.456C59.4126 288.456 60.0419 288.739 60.4793 289.304C60.9273 289.869 61.1513 290.675 61.1513 291.72V297H59.1033V291.928C59.1033 290.733 58.6553 290.136 57.7593 290.136C57.5566 290.136 57.3593 290.168 57.1673 290.232C56.9859 290.285 56.8206 290.371 56.6713 290.488C56.5326 290.595 56.4206 290.733 56.3353 290.904C56.2499 291.064 56.2073 291.256 56.2073 291.48V297H54.1593V291.928C54.1593 290.733 53.7113 290.136 52.8153 290.136C52.6233 290.136 52.4313 290.168 52.2393 290.232C52.0579 290.285 51.8926 290.371 51.7433 290.488C51.6046 290.595 51.4873 290.733 51.3913 290.904C51.3059 291.064 51.2633 291.256 51.2633 291.48V297H49.2153ZM69.5624 297C69.1144 297 68.757 296.872 68.4904 296.616C68.2344 296.349 68.0744 295.997 68.0104 295.56H67.9144C67.7757 296.104 67.493 296.515 67.0664 296.792C66.6397 297.059 66.1117 297.192 65.4824 297.192C64.629 297.192 63.973 296.968 63.5144 296.52C63.0557 296.072 62.8264 295.475 62.8264 294.728C62.8264 293.864 63.1357 293.224 63.7544 292.808C64.373 292.381 65.253 292.168 66.3944 292.168H67.8184V291.56C67.8184 291.091 67.6957 290.728 67.4504 290.472C67.205 290.216 66.8104 290.088 66.2664 290.088C65.7864 290.088 65.397 290.195 65.0984 290.408C64.8104 290.611 64.565 290.856 64.3624 291.144L63.1464 290.056C63.4557 289.576 63.8664 289.192 64.3784 288.904C64.8904 288.605 65.5677 288.456 66.4104 288.456C67.541 288.456 68.3997 288.712 68.9864 289.224C69.573 289.736 69.8664 290.472 69.8664 291.432V295.368H70.6984V297H69.5624ZM66.1704 295.704C66.629 295.704 67.0184 295.603 67.3384 295.4C67.6584 295.197 67.8184 294.899 67.8184 294.504V293.4H66.5064C65.4397 293.4 64.9064 293.741 64.9064 294.424V294.696C64.9064 295.037 65.013 295.293 65.2264 295.464C65.4504 295.624 65.765 295.704 66.1704 295.704ZM73.3799 287.432C72.9532 287.432 72.6439 287.336 72.4519 287.144C72.2705 286.952 72.1799 286.707 72.1799 286.408V286.088C72.1799 285.789 72.2705 285.544 72.4519 285.352C72.6439 285.16 72.9532 285.064 73.3799 285.064C73.7959 285.064 74.0999 285.16 74.2919 285.352C74.4839 285.544 74.5799 285.789 74.5799 286.088V286.408C74.5799 286.707 74.4839 286.952 74.2919 287.144C74.0999 287.336 73.7959 287.432 73.3799 287.432ZM72.3559 288.648H74.4039V297H72.3559V288.648ZM78.8258 297C78.1218 297 77.6044 296.824 77.2738 296.472C76.9431 296.12 76.7778 295.624 76.7778 294.984V285.16H78.8258V295.368H79.9298V297H78.8258Z" fill="#1A1A1A"/>
<path d="M36.784 325.192C35.824 325.192 35.008 325.021 34.336 324.68C33.6747 324.339 33.104 323.891 32.624 323.336L34.048 321.96C34.432 322.408 34.8587 322.749 35.328 322.984C35.808 323.219 36.336 323.336 36.912 323.336C37.5627 323.336 38.0533 323.197 38.384 322.92C38.7147 322.632 38.88 322.248 38.88 321.768C38.88 321.395 38.7733 321.091 38.56 320.856C38.3467 320.621 37.9467 320.451 37.36 320.344L36.304 320.184C34.0747 319.832 32.96 318.749 32.96 316.936C32.96 316.435 33.0507 315.981 33.232 315.576C33.424 315.171 33.696 314.824 34.048 314.536C34.4 314.248 34.8213 314.029 35.312 313.88C35.8133 313.72 36.3787 313.64 37.008 313.64C37.8507 313.64 38.5867 313.779 39.216 314.056C39.8453 314.333 40.384 314.744 40.832 315.288L39.392 316.648C39.1147 316.307 38.7787 316.029 38.384 315.816C37.9893 315.603 37.4933 315.496 36.896 315.496C36.288 315.496 35.8293 315.613 35.52 315.848C35.2213 316.072 35.072 316.392 35.072 316.808C35.072 317.235 35.1947 317.549 35.44 317.752C35.6853 317.955 36.08 318.104 36.624 318.2L37.664 318.392C38.7947 318.595 39.6267 318.957 40.16 319.48C40.704 319.992 40.976 320.712 40.976 321.64C40.976 322.173 40.88 322.659 40.688 323.096C40.5067 323.523 40.2347 323.896 39.872 324.216C39.52 324.525 39.0827 324.765 38.56 324.936C38.048 325.107 37.456 325.192 36.784 325.192ZM42.9653 313.16H45.0133V320.296H45.0933L46.1973 318.792L48.0693 316.648H50.3893L47.5093 319.88L50.6933 325H48.2613L46.1173 321.256L45.0133 322.456V325H42.9653V313.16ZM51.9496 325V316.648H53.9976V318.376H54.0776C54.131 318.152 54.211 317.939 54.3176 317.736C54.435 317.523 54.5843 317.336 54.7656 317.176C54.947 317.016 55.1603 316.888 55.4056 316.792C55.6616 316.696 55.955 316.648 56.2856 316.648H56.7336V318.584H56.0936C55.4003 318.584 54.8776 318.685 54.5256 318.888C54.1736 319.091 53.9976 319.421 53.9976 319.88V325H51.9496ZM59.2549 315.432C58.8282 315.432 58.5189 315.336 58.3269 315.144C58.1455 314.952 58.0549 314.707 58.0549 314.408V314.088C58.0549 313.789 58.1455 313.544 58.3269 313.352C58.5189 313.16 58.8282 313.064 59.2549 313.064C59.6709 313.064 59.9749 313.16 60.1669 313.352C60.3589 313.544 60.4549 313.789 60.4549 314.088V314.408C60.4549 314.707 60.3589 314.952 60.1669 315.144C59.9749 315.336 59.6709 315.432 59.2549 315.432ZM58.2309 316.648H60.2789V325H58.2309V316.648ZM64.4448 325L61.6608 316.648H63.6768L64.8448 320.248L65.6608 323.224H65.7728L66.5888 320.248L67.7248 316.648H69.6768L66.8768 325H64.4448ZM80.0086 323.608H79.9286C79.7793 324.088 79.4966 324.472 79.0806 324.76C78.6646 325.048 78.1793 325.192 77.6246 325.192C76.5686 325.192 75.758 324.813 75.1926 324.056C74.638 323.299 74.3606 322.216 74.3606 320.808C74.3606 319.411 74.638 318.339 75.1926 317.592C75.758 316.835 76.5686 316.456 77.6246 316.456C78.1793 316.456 78.6646 316.6 79.0806 316.888C79.4966 317.165 79.7793 317.544 79.9286 318.024H80.0086V313.16H82.0566V325H80.0086V323.608ZM78.2806 323.496C78.7713 323.496 79.182 323.379 79.5126 323.144C79.8433 322.909 80.0086 322.573 80.0086 322.136V319.48C80.0086 319.075 79.8433 318.749 79.5126 318.504C79.182 318.259 78.7713 318.136 78.2806 318.136C77.7473 318.136 77.3153 318.317 76.9846 318.68C76.6646 319.032 76.5046 319.507 76.5046 320.104V321.544C76.5046 322.141 76.6646 322.616 76.9846 322.968C77.3153 323.32 77.7473 323.496 78.2806 323.496ZM85.4424 315.432C85.0157 315.432 84.7064 315.336 84.5144 315.144C84.333 314.952 84.2424 314.707 84.2424 314.408V314.088C84.2424 313.789 84.333 313.544 84.5144 313.352C84.7064 313.16 85.0157 313.064 85.4424 313.064C85.8584 313.064 86.1624 313.16 86.3544 313.352C86.5464 313.544 86.6424 313.789 86.6424 314.088V314.408C86.6424 314.707 86.5464 314.952 86.3544 315.144C86.1624 315.336 85.8584 315.432 85.4424 315.432ZM84.4184 316.648H86.4664V325H84.4184V316.648ZM88.8403 325V316.648H90.8883V318.04H90.9683C91.1389 317.592 91.4056 317.219 91.7682 316.92C92.1416 316.611 92.6536 316.456 93.3043 316.456C94.1683 316.456 94.8296 316.739 95.2883 317.304C95.7469 317.869 95.9763 318.675 95.9763 319.72V325H93.9283V319.928C93.9283 319.331 93.8216 318.883 93.6083 318.584C93.3949 318.285 93.0429 318.136 92.5523 318.136C92.3389 318.136 92.1309 318.168 91.9283 318.232C91.7363 318.285 91.5603 318.371 91.4003 318.488C91.2509 318.595 91.1283 318.733 91.0323 318.904C90.9363 319.064 90.8883 319.256 90.8883 319.48V325H88.8403ZM105.404 325.192C104.785 325.192 104.23 325.091 103.74 324.888C103.26 324.675 102.849 324.381 102.508 324.008C102.177 323.624 101.921 323.165 101.74 322.632C101.558 322.088 101.468 321.48 101.468 320.808C101.468 320.147 101.553 319.549 101.724 319.016C101.905 318.483 102.161 318.029 102.492 317.656C102.822 317.272 103.228 316.979 103.708 316.776C104.188 316.563 104.732 316.456 105.34 316.456C105.99 316.456 106.556 316.568 107.036 316.792C107.516 317.016 107.91 317.32 108.22 317.704C108.529 318.088 108.758 318.536 108.908 319.048C109.068 319.549 109.148 320.088 109.148 320.664V321.336H103.596V321.544C103.596 322.152 103.766 322.643 104.108 323.016C104.449 323.379 104.956 323.56 105.628 323.56C106.14 323.56 106.556 323.453 106.876 323.24C107.206 323.027 107.5 322.755 107.756 322.424L108.86 323.656C108.518 324.136 108.049 324.515 107.452 324.792C106.865 325.059 106.182 325.192 105.404 325.192ZM105.372 317.992C104.828 317.992 104.396 318.173 104.076 318.536C103.756 318.899 103.596 319.368 103.596 319.944V320.072H107.02V319.928C107.02 319.352 106.876 318.888 106.588 318.536C106.31 318.173 105.905 317.992 105.372 317.992ZM110.85 321.144V319.112H115.426V321.144H110.85ZM117.543 325V316.648H119.591V318.04H119.671C119.831 317.603 120.087 317.229 120.439 316.92C120.791 316.611 121.282 316.456 121.911 316.456C122.487 316.456 122.983 316.595 123.399 316.872C123.815 317.149 124.125 317.571 124.327 318.136H124.359C124.509 317.667 124.802 317.272 125.239 316.952C125.687 316.621 126.247 316.456 126.919 316.456C127.741 316.456 128.37 316.739 128.807 317.304C129.255 317.869 129.479 318.675 129.479 319.72V325H127.431V319.928C127.431 318.733 126.983 318.136 126.087 318.136C125.885 318.136 125.687 318.168 125.495 318.232C125.314 318.285 125.149 318.371 124.999 318.488C124.861 318.595 124.749 318.733 124.663 318.904C124.578 319.064 124.535 319.256 124.535 319.48V325H122.487V319.928C122.487 318.733 122.039 318.136 121.143 318.136C120.951 318.136 120.759 318.168 120.567 318.232C120.386 318.285 120.221 318.371 120.071 318.488C119.933 318.595 119.815 318.733 119.719 318.904C119.634 319.064 119.591 319.256 119.591 319.48V325H117.543ZM137.891 325C137.443 325 137.085 324.872 136.819 324.616C136.563 324.349 136.403 323.997 136.339 323.56H136.243C136.104 324.104 135.821 324.515 135.395 324.792C134.968 325.059 134.44 325.192 133.811 325.192C132.957 325.192 132.301 324.968 131.843 324.52C131.384 324.072 131.155 323.475 131.155 322.728C131.155 321.864 131.464 321.224 132.083 320.808C132.701 320.381 133.581 320.168 134.723 320.168H136.147V319.56C136.147 319.091 136.024 318.728 135.779 318.472C135.533 318.216 135.139 318.088 134.595 318.088C134.115 318.088 133.725 318.195 133.427 318.408C133.139 318.611 132.893 318.856 132.691 319.144L131.475 318.056C131.784 317.576 132.195 317.192 132.707 316.904C133.219 316.605 133.896 316.456 134.739 316.456C135.869 316.456 136.728 316.712 137.315 317.224C137.901 317.736 138.195 318.472 138.195 319.432V323.368H139.027V325H137.891ZM134.499 323.704C134.957 323.704 135.347 323.603 135.667 323.4C135.987 323.197 136.147 322.899 136.147 322.504V321.4H134.835C133.768 321.4 133.235 321.741 133.235 322.424V322.696C133.235 323.037 133.341 323.293 133.555 323.464C133.779 323.624 134.093 323.704 134.499 323.704ZM141.708 315.432C141.281 315.432 140.972 315.336 140.78 315.144C140.599 314.952 140.508 314.707 140.508 314.408V314.088C140.508 313.789 140.599 313.544 140.78 313.352C140.972 313.16 141.281 313.064 141.708 313.064C142.124 313.064 142.428 313.16 142.62 313.352C142.812 313.544 142.908 313.789 142.908 314.088V314.408C142.908 314.707 142.812 314.952 142.62 315.144C142.428 315.336 142.124 315.432 141.708 315.432ZM140.684 316.648H142.732V325H140.684V316.648ZM147.154 325C146.45 325 145.933 324.824 145.602 324.472C145.271 324.12 145.106 323.624 145.106 322.984V313.16H147.154V323.368H148.258V325H147.154Z" fill="#CC0000"/>
<rect x="33" y="340" width="316" height="39" rx="3" stroke="#CC0000" stroke-width="2"/>
<mask id="path-10-inside-1_10746_17569" fill="white">
<path d="M16 16H402V104H16V16Z"/>
</mask>
<path d="M16 16H402V104H16V16Z" fill="#FFE0E0"/>
<path d="M24 104V16H8V104H24Z" fill="#CC0000" mask="url(#path-10-inside-1_10746_17569)"/>
<path d="M52 54.0002C50.0213 54.0014 48.0868 53.4155 46.4412 52.3168C44.7957 51.2181 43.513 49.6559 42.7557 47.8279C41.9983 45.9999 41.8003 43.9883 42.1866 42.0477C42.573 40.1071 43.5263 38.3248 44.926 36.9262C46.8022 35.0501 49.3467 33.9961 52 33.9961C54.6533 33.9961 57.1979 35.0501 59.074 36.9262C60.9502 38.8024 62.0042 41.347 62.0042 44.0002C62.0042 46.6535 60.9502 49.1981 59.074 51.0742C58.1468 52.0053 57.0442 52.7433 55.83 53.2456C54.6158 53.7478 53.314 54.0043 52 54.0002V54.0002ZM52 36.0002C50.4178 36.0002 48.871 36.4694 47.5555 37.3485C46.2399 38.2275 45.2145 39.477 44.609 40.9388C44.0035 42.4006 43.845 44.0091 44.1537 45.561C44.4624 47.1128 45.2243 48.5383 46.3432 49.6571C47.462 50.7759 48.8874 51.5378 50.4393 51.8465C51.9911 52.1552 53.5997 51.9968 55.0615 51.3913C56.5233 50.7858 57.7727 49.7604 58.6518 48.4448C59.5308 47.1292 60 45.5825 60 44.0002C59.9976 41.8792 59.154 39.8458 57.6542 38.346C56.1545 36.8462 54.121 36.0026 52 36.0002V36.0002ZM49.409 48.0002L48 46.5902L50.59 44.0002L48 41.4102L49.41 40.0002L52 42.5902L54.59 40.0002L56 41.4102L53.41 44.0002L56 46.5902L54.591 48.0002L52 45.4112L49.41 48.0002H49.409Z" fill="#1A1A1A"/>
<path d="M73.312 38.832H77.376C78.1013 38.832 78.7573 38.9493 79.344 39.184C79.9413 39.4187 80.448 39.7707 80.864 40.24C81.2907 40.6987 81.616 41.28 81.84 41.984C82.0747 42.6773 82.192 43.488 82.192 44.416C82.192 45.344 82.0747 46.16 81.84 46.864C81.616 47.5573 81.2907 48.1387 80.864 48.608C80.448 49.0667 79.9413 49.4133 79.344 49.648C78.7573 49.8827 78.1013 50 77.376 50H73.312V38.832ZM77.376 48.128C78.1653 48.128 78.7893 47.8987 79.248 47.44C79.7173 46.9707 79.952 46.256 79.952 45.296V43.536C79.952 42.576 79.7173 41.8667 79.248 41.408C78.7893 40.9387 78.1653 40.704 77.376 40.704H75.424V48.128H77.376ZM87.5913 50.192C86.9726 50.192 86.4179 50.0907 85.9273 49.888C85.4473 49.6747 85.0366 49.3813 84.6953 49.008C84.3646 48.624 84.1086 48.1653 83.9273 47.632C83.7459 47.088 83.6553 46.48 83.6553 45.808C83.6553 45.1467 83.7406 44.5493 83.9113 44.016C84.0926 43.4827 84.3486 43.0293 84.6793 42.656C85.0099 42.272 85.4153 41.9787 85.8953 41.776C86.3753 41.5627 86.9193 41.456 87.5273 41.456C88.1779 41.456 88.7433 41.568 89.2233 41.792C89.7033 42.016 90.0979 42.32 90.4073 42.704C90.7166 43.088 90.9459 43.536 91.0953 44.048C91.2553 44.5493 91.3353 45.088 91.3353 45.664V46.336H85.7833V46.544C85.7833 47.152 85.9539 47.6427 86.2953 48.016C86.6366 48.3787 87.1433 48.56 87.8153 48.56C88.3273 48.56 88.7433 48.4533 89.0633 48.24C89.3939 48.0267 89.6873 47.7547 89.9433 47.424L91.0473 48.656C90.7059 49.136 90.2366 49.5147 89.6393 49.792C89.0526 50.0587 88.3699 50.192 87.5913 50.192ZM87.5593 42.992C87.0153 42.992 86.5833 43.1733 86.2633 43.536C85.9433 43.8987 85.7833 44.368 85.7833 44.944V45.072H89.2073V44.928C89.2073 44.352 89.0633 43.888 88.7753 43.536C88.4979 43.1733 88.0926 42.992 87.5593 42.992ZM93.1371 50V41.648H95.1851V43.376H95.2651C95.3185 43.152 95.3985 42.9387 95.5051 42.736C95.6225 42.5227 95.7718 42.336 95.9531 42.176C96.1345 42.016 96.3478 41.888 96.5931 41.792C96.8491 41.696 97.1425 41.648 97.4731 41.648H97.9211V43.584H97.2811C96.5878 43.584 96.0651 43.6853 95.7131 43.888C95.3611 44.0907 95.1851 44.4213 95.1851 44.88V50H93.1371ZM106.576 50.192C105.957 50.192 105.402 50.0907 104.912 49.888C104.432 49.6747 104.021 49.3813 103.68 49.008C103.349 48.624 103.093 48.1653 102.912 47.632C102.73 47.088 102.64 46.48 102.64 45.808C102.64 45.1467 102.725 44.5493 102.896 44.016C103.077 43.4827 103.333 43.0293 103.664 42.656C103.994 42.272 104.4 41.9787 104.88 41.776C105.36 41.5627 105.904 41.456 106.512 41.456C107.162 41.456 107.728 41.568 108.208 41.792C108.688 42.016 109.082 42.32 109.392 42.704C109.701 43.088 109.93 43.536 110.08 44.048C110.24 44.5493 110.32 45.088 110.32 45.664V46.336H104.768V46.544C104.768 47.152 104.938 47.6427 105.28 48.016C105.621 48.3787 106.128 48.56 106.8 48.56C107.312 48.56 107.728 48.4533 108.048 48.24C108.378 48.0267 108.672 47.7547 108.928 47.424L110.032 48.656C109.69 49.136 109.221 49.5147 108.624 49.792C108.037 50.0587 107.354 50.192 106.576 50.192ZM106.544 42.992C106 42.992 105.568 43.1733 105.248 43.536C104.928 43.8987 104.768 44.368 104.768 44.944V45.072H108.192V44.928C108.192 44.352 108.048 43.888 107.76 43.536C107.482 43.1733 107.077 42.992 106.544 42.992ZM112.122 50V41.648H114.17V43.376H114.25C114.303 43.152 114.383 42.9387 114.49 42.736C114.607 42.5227 114.756 42.336 114.938 42.176C115.119 42.016 115.332 41.888 115.578 41.792C115.834 41.696 116.127 41.648 116.458 41.648H116.906V43.584H116.266C115.572 43.584 115.05 43.6853 114.698 43.888C114.346 44.0907 114.17 44.4213 114.17 44.88V50H112.122ZM122.184 41.648H124.232V43.024H124.296C124.445 42.544 124.728 42.1653 125.144 41.888C125.56 41.6 126.045 41.456 126.6 41.456C127.667 41.456 128.477 41.8347 129.032 42.592C129.597 43.3387 129.88 44.4107 129.88 45.808C129.88 47.216 129.597 48.2987 129.032 49.056C128.477 49.8133 127.667 50.192 126.6 50.192C126.045 50.192 125.56 50.048 125.144 49.76C124.739 49.472 124.456 49.088 124.296 48.608H124.232V53.2H122.184V41.648ZM125.944 48.496C126.477 48.496 126.909 48.32 127.24 47.968C127.571 47.616 127.736 47.1413 127.736 46.544V45.104C127.736 44.5067 127.571 44.032 127.24 43.68C126.909 43.3173 126.477 43.136 125.944 43.136C125.453 43.136 125.043 43.2587 124.712 43.504C124.392 43.7493 124.232 44.0747 124.232 44.48V47.136C124.232 47.5733 124.392 47.9093 124.712 48.144C125.043 48.3787 125.453 48.496 125.944 48.496ZM131.778 50V41.648H133.826V43.376H133.906C133.959 43.152 134.039 42.9387 134.146 42.736C134.263 42.5227 134.412 42.336 134.594 42.176C134.775 42.016 134.988 41.888 135.234 41.792C135.49 41.696 135.783 41.648 136.114 41.648H136.562V43.584H135.922C135.228 43.584 134.706 43.6853 134.354 43.888C134.002 44.0907 133.826 44.4213 133.826 44.88V50H131.778ZM141.293 50.192C140.696 50.192 140.157 50.0907 139.677 49.888C139.208 49.6853 138.802 49.392 138.461 49.008C138.13 48.624 137.874 48.1653 137.693 47.632C137.512 47.088 137.421 46.48 137.421 45.808C137.421 45.136 137.512 44.5333 137.693 44C137.874 43.4667 138.13 43.0133 138.461 42.64C138.802 42.256 139.208 41.9627 139.677 41.76C140.157 41.5573 140.696 41.456 141.293 41.456C141.89 41.456 142.429 41.5573 142.909 41.76C143.389 41.9627 143.794 42.256 144.125 42.64C144.466 43.0133 144.728 43.4667 144.909 44C145.09 44.5333 145.181 45.136 145.181 45.808C145.181 46.48 145.09 47.088 144.909 47.632C144.728 48.1653 144.466 48.624 144.125 49.008C143.794 49.392 143.389 49.6853 142.909 49.888C142.429 50.0907 141.89 50.192 141.293 50.192ZM141.293 48.544C141.837 48.544 142.264 48.3787 142.573 48.048C142.882 47.7173 143.037 47.232 143.037 46.592V45.04C143.037 44.4107 142.882 43.9307 142.573 43.6C142.264 43.2693 141.837 43.104 141.293 43.104C140.76 43.104 140.338 43.2693 140.029 43.6C139.72 43.9307 139.565 44.4107 139.565 45.04V46.592C139.565 47.232 139.72 47.7173 140.029 48.048C140.338 48.3787 140.76 48.544 141.293 48.544ZM146.997 38.16H149.045V43.024H149.109C149.258 42.544 149.541 42.1653 149.957 41.888C150.373 41.6 150.858 41.456 151.413 41.456C152.479 41.456 153.29 41.8347 153.845 42.592C154.41 43.3387 154.693 44.4107 154.693 45.808C154.693 47.216 154.41 48.2987 153.845 49.056C153.29 49.8133 152.479 50.192 151.413 50.192C150.858 50.192 150.373 50.048 149.957 49.76C149.551 49.472 149.269 49.088 149.109 48.608H149.045V50H146.997V38.16ZM150.757 48.496C151.29 48.496 151.722 48.32 152.053 47.968C152.383 47.616 152.549 47.1413 152.549 46.544V45.104C152.549 44.5067 152.383 44.032 152.053 43.68C151.722 43.3173 151.29 43.136 150.757 43.136C150.266 43.136 149.855 43.2587 149.525 43.504C149.205 43.7493 149.045 44.0747 149.045 44.48V47.136C149.045 47.5733 149.205 47.9093 149.525 48.144C149.855 48.3787 150.266 48.496 150.757 48.496ZM158.638 50C157.934 50 157.417 49.824 157.086 49.472C156.756 49.12 156.59 48.624 156.59 47.984V38.16H158.638V48.368H159.742V50H158.638ZM164.669 50.192C164.051 50.192 163.496 50.0907 163.005 49.888C162.525 49.6747 162.115 49.3813 161.773 49.008C161.443 48.624 161.187 48.1653 161.005 47.632C160.824 47.088 160.733 46.48 160.733 45.808C160.733 45.1467 160.819 44.5493 160.989 44.016C161.171 43.4827 161.427 43.0293 161.757 42.656C162.088 42.272 162.493 41.9787 162.973 41.776C163.453 41.5627 163.997 41.456 164.605 41.456C165.256 41.456 165.821 41.568 166.301 41.792C166.781 42.016 167.176 42.32 167.485 42.704C167.795 43.088 168.024 43.536 168.173 44.048C168.333 44.5493 168.413 45.088 168.413 45.664V46.336H162.861V46.544C162.861 47.152 163.032 47.6427 163.373 48.016C163.715 48.3787 164.221 48.56 164.893 48.56C165.405 48.56 165.821 48.4533 166.141 48.24C166.472 48.0267 166.765 47.7547 167.021 47.424L168.125 48.656C167.784 49.136 167.315 49.5147 166.717 49.792C166.131 50.0587 165.448 50.192 164.669 50.192ZM164.637 42.992C164.093 42.992 163.661 43.1733 163.341 43.536C163.021 43.8987 162.861 44.368 162.861 44.944V45.072H166.285V44.928C166.285 44.352 166.141 43.888 165.853 43.536C165.576 43.1733 165.171 42.992 164.637 42.992ZM170.215 50V41.648H172.263V43.04H172.343C172.503 42.6027 172.759 42.2293 173.111 41.92C173.463 41.6107 173.954 41.456 174.583 41.456C175.159 41.456 175.655 41.5947 176.071 41.872C176.487 42.1493 176.797 42.5707 176.999 43.136H177.031C177.181 42.6667 177.474 42.272 177.911 41.952C178.359 41.6213 178.919 41.456 179.591 41.456C180.413 41.456 181.042 41.7387 181.479 42.304C181.927 42.8693 182.151 43.6747 182.151 44.72V50H180.103V44.928C180.103 43.7333 179.655 43.136 178.759 43.136C178.557 43.136 178.359 43.168 178.167 43.232C177.986 43.2853 177.821 43.3707 177.671 43.488C177.533 43.5947 177.421 43.7333 177.335 43.904C177.25 44.064 177.207 44.256 177.207 44.48V50H175.159V44.928C175.159 43.7333 174.711 43.136 173.815 43.136C173.623 43.136 173.431 43.168 173.239 43.232C173.058 43.2853 172.893 43.3707 172.743 43.488C172.605 43.5947 172.487 43.7333 172.391 43.904C172.306 44.064 172.263 44.256 172.263 44.48V50H170.215ZM187.794 50.192C187.176 50.192 186.621 50.0907 186.13 49.888C185.65 49.6747 185.24 49.3813 184.898 49.008C184.568 48.624 184.312 48.1653 184.13 47.632C183.949 47.088 183.858 46.48 183.858 45.808C183.858 45.1467 183.944 44.5493 184.114 44.016C184.296 43.4827 184.552 43.0293 184.882 42.656C185.213 42.272 185.618 41.9787 186.098 41.776C186.578 41.5627 187.122 41.456 187.73 41.456C188.381 41.456 188.946 41.568 189.426 41.792C189.906 42.016 190.301 42.32 190.61 42.704C190.92 43.088 191.149 43.536 191.298 44.048C191.458 44.5493 191.538 45.088 191.538 45.664V46.336H185.986V46.544C185.986 47.152 186.157 47.6427 186.498 48.016C186.84 48.3787 187.346 48.56 188.018 48.56C188.53 48.56 188.946 48.4533 189.266 48.24C189.597 48.0267 189.89 47.7547 190.146 47.424L191.25 48.656C190.909 49.136 190.44 49.5147 189.842 49.792C189.256 50.0587 188.573 50.192 187.794 50.192ZM187.762 42.992C187.218 42.992 186.786 43.1733 186.466 43.536C186.146 43.8987 185.986 44.368 185.986 44.944V45.072H189.41V44.928C189.41 44.352 189.266 43.888 188.978 43.536C188.701 43.1733 188.296 42.992 187.762 42.992ZM193.34 50V41.648H195.388V43.376H195.468C195.522 43.152 195.602 42.9387 195.708 42.736C195.826 42.5227 195.975 42.336 196.156 42.176C196.338 42.016 196.551 41.888 196.796 41.792C197.052 41.696 197.346 41.648 197.676 41.648H198.124V43.584H197.484C196.791 43.584 196.268 43.6853 195.916 43.888C195.564 44.0907 195.388 44.4213 195.388 44.88V50H193.34Z" fill="#1A1A1A"/>
<path d="M76.624 82.192C75.7173 82.192 74.944 82.0213 74.304 81.68C73.664 81.328 73.12 80.848 72.672 80.24L73.664 79.408C74.0587 79.9307 74.496 80.3307 74.976 80.608C75.456 80.8747 76.0213 81.008 76.672 81.008C77.472 81.008 78.08 80.816 78.496 80.432C78.9227 80.048 79.136 79.536 79.136 78.896C79.136 78.3627 78.976 77.952 78.656 77.664C78.336 77.376 77.808 77.1467 77.072 76.976L76.16 76.768C75.136 76.5333 74.352 76.1813 73.808 75.712C73.2747 75.232 73.008 74.56 73.008 73.696C73.008 73.2053 73.0987 72.768 73.28 72.384C73.4613 72 73.712 71.68 74.032 71.424C74.3627 71.168 74.752 70.976 75.2 70.848C75.6587 70.7093 76.16 70.64 76.704 70.64C77.5467 70.64 78.2667 70.7947 78.864 71.104C79.472 71.4133 79.984 71.8667 80.4 72.464L79.392 73.2C79.0827 72.7733 78.7093 72.4373 78.272 72.192C77.8347 71.9467 77.2907 71.824 76.64 71.824C75.9253 71.824 75.36 71.9787 74.944 72.288C74.5387 72.5867 74.336 73.04 74.336 73.648C74.336 74.1813 74.5067 74.5867 74.848 74.864C75.2 75.1307 75.728 75.344 76.432 75.504L77.344 75.712C78.4427 75.9573 79.2373 76.3307 79.728 76.832C80.2187 77.3333 80.464 78 80.464 78.832C80.464 79.344 80.3733 79.808 80.192 80.224C80.0213 80.64 79.7707 80.992 79.44 81.28C79.1093 81.568 78.704 81.792 78.224 81.952C77.7547 82.112 77.2213 82.192 76.624 82.192ZM82.6569 70.16H83.9369V77.664H84.0009L85.2649 76.256L87.6009 73.744H89.1529L86.0969 77.008L89.4569 82H87.9049L85.1689 77.792L83.9369 79.056V82H82.6569V70.16ZM91.0944 82V73.744H92.3744V75.264H92.4544C92.6037 74.8693 92.8704 74.5173 93.2544 74.208C93.6384 73.8987 94.1664 73.744 94.8384 73.744H95.3344V75.024H94.5824C93.889 75.024 93.345 75.1573 92.9504 75.424C92.5664 75.68 92.3744 76.0053 92.3744 76.4V82H91.0944ZM97.6094 71.808C97.332 71.808 97.1294 71.744 97.0014 71.616C96.884 71.4773 96.8254 71.3013 96.8254 71.088V70.88C96.8254 70.6667 96.884 70.496 97.0014 70.368C97.1294 70.2293 97.332 70.16 97.6094 70.16C97.8867 70.16 98.084 70.2293 98.2014 70.368C98.3294 70.496 98.3934 70.6667 98.3934 70.88V71.088C98.3934 71.3013 98.3294 71.4773 98.2014 71.616C98.084 71.744 97.8867 71.808 97.6094 71.808ZM96.9694 73.744H98.2494V82H96.9694V73.744ZM102.793 82L99.8974 73.744H101.177L102.617 77.84L103.513 80.656H103.593L104.489 77.84L105.961 73.744H107.193L104.281 82H102.793ZM117.906 80.656H117.842C117.34 81.68 116.535 82.192 115.426 82.192C114.914 82.192 114.45 82.0907 114.034 81.888C113.618 81.6853 113.26 81.3973 112.962 81.024C112.674 80.6507 112.45 80.1973 112.29 79.664C112.14 79.1307 112.066 78.5333 112.066 77.872C112.066 77.2107 112.14 76.6133 112.29 76.08C112.45 75.5467 112.674 75.0933 112.962 74.72C113.26 74.3467 113.618 74.0587 114.034 73.856C114.45 73.6533 114.914 73.552 115.426 73.552C116.002 73.552 116.492 73.68 116.898 73.936C117.314 74.1813 117.628 74.5653 117.842 75.088H117.906V70.16H119.186V82H117.906V80.656ZM115.778 81.04C116.066 81.04 116.338 81.0027 116.594 80.928C116.86 80.8533 117.09 80.7467 117.282 80.608C117.474 80.4587 117.623 80.2827 117.73 80.08C117.847 79.8667 117.906 79.6267 117.906 79.36V76.288C117.906 76.064 117.847 75.856 117.73 75.664C117.623 75.4613 117.474 75.2907 117.282 75.152C117.09 75.0133 116.86 74.9067 116.594 74.832C116.338 74.7467 116.066 74.704 115.778 74.704C115.052 74.704 114.482 74.9333 114.066 75.392C113.65 75.84 113.442 76.432 113.442 77.168V78.576C113.442 79.312 113.65 79.9093 114.066 80.368C114.482 80.816 115.052 81.04 115.778 81.04ZM122.547 71.808C122.27 71.808 122.067 71.744 121.939 71.616C121.822 71.4773 121.763 71.3013 121.763 71.088V70.88C121.763 70.6667 121.822 70.496 121.939 70.368C122.067 70.2293 122.27 70.16 122.547 70.16C122.824 70.16 123.022 70.2293 123.139 70.368C123.267 70.496 123.331 70.6667 123.331 70.88V71.088C123.331 71.3013 123.267 71.4773 123.139 71.616C123.022 71.744 122.824 71.808 122.547 71.808ZM121.907 73.744H123.187V82H121.907V73.744ZM125.907 82V73.744H127.187V75.088H127.251C127.454 74.6187 127.736 74.2453 128.099 73.968C128.472 73.6907 128.968 73.552 129.587 73.552C130.44 73.552 131.112 73.8293 131.603 74.384C132.104 74.928 132.355 75.7013 132.355 76.704V82H131.075V76.928C131.075 75.4453 130.451 74.704 129.203 74.704C128.947 74.704 128.696 74.736 128.451 74.8C128.216 74.864 128.003 74.96 127.811 75.088C127.619 75.216 127.464 75.3813 127.347 75.584C127.24 75.776 127.187 76.0053 127.187 76.272V82H125.907ZM141.886 82.192C141.321 82.192 140.809 82.0907 140.35 81.888C139.902 81.6853 139.513 81.3973 139.182 81.024C138.862 80.64 138.611 80.1867 138.43 79.664C138.259 79.1307 138.174 78.5333 138.174 77.872C138.174 77.2213 138.259 76.6293 138.43 76.096C138.611 75.5627 138.862 75.1093 139.182 74.736C139.513 74.352 139.902 74.0587 140.35 73.856C140.809 73.6533 141.321 73.552 141.886 73.552C142.441 73.552 142.937 73.6533 143.374 73.856C143.811 74.0587 144.185 74.3413 144.494 74.704C144.803 75.056 145.038 75.4773 145.198 75.968C145.369 76.4587 145.454 76.9973 145.454 77.584V78.192H139.518V78.576C139.518 78.928 139.571 79.2587 139.678 79.568C139.795 79.8667 139.955 80.128 140.158 80.352C140.371 80.576 140.627 80.752 140.926 80.88C141.235 81.008 141.582 81.072 141.966 81.072C142.489 81.072 142.942 80.9493 143.326 80.704C143.721 80.4587 144.025 80.1067 144.238 79.648L145.15 80.304C144.883 80.8693 144.467 81.328 143.902 81.68C143.337 82.0213 142.665 82.192 141.886 82.192ZM141.886 74.624C141.534 74.624 141.214 74.688 140.926 74.816C140.638 74.9333 140.387 75.104 140.174 75.328C139.971 75.552 139.811 75.8187 139.694 76.128C139.577 76.4267 139.518 76.7573 139.518 77.12V77.232H144.078V77.056C144.078 76.32 143.875 75.7333 143.47 75.296C143.075 74.848 142.547 74.624 141.886 74.624ZM147.463 77.824V76.448H151.639V77.824H147.463ZM154.11 82V73.744H155.39V75.088H155.454C155.55 74.8747 155.657 74.6773 155.774 74.496C155.902 74.304 156.051 74.1387 156.222 74C156.403 73.8613 156.611 73.7547 156.846 73.68C157.081 73.5947 157.358 73.552 157.678 73.552C158.222 73.552 158.723 73.6853 159.182 73.952C159.641 74.208 159.982 74.6347 160.206 75.232H160.238C160.387 74.784 160.665 74.3947 161.07 74.064C161.486 73.7227 162.046 73.552 162.75 73.552C163.593 73.552 164.249 73.8293 164.718 74.384C165.198 74.928 165.438 75.7013 165.438 76.704V82H164.158V76.928C164.158 76.192 164.014 75.6373 163.726 75.264C163.438 74.8907 162.979 74.704 162.35 74.704C162.094 74.704 161.849 74.736 161.614 74.8C161.39 74.864 161.187 74.96 161.006 75.088C160.825 75.216 160.681 75.3813 160.574 75.584C160.467 75.776 160.414 76.0053 160.414 76.272V82H159.134V76.928C159.134 76.192 158.99 75.6373 158.702 75.264C158.414 74.8907 157.966 74.704 157.358 74.704C157.102 74.704 156.857 74.736 156.622 74.8C156.387 74.864 156.179 74.96 155.998 75.088C155.817 75.216 155.667 75.3813 155.55 75.584C155.443 75.776 155.39 76.0053 155.39 76.272V82H154.11ZM174.079 82C173.599 82 173.252 81.872 173.039 81.616C172.836 81.36 172.708 81.04 172.655 80.656H172.575C172.393 81.168 172.095 81.552 171.679 81.808C171.263 82.064 170.767 82.192 170.191 82.192C169.316 82.192 168.633 81.968 168.143 81.52C167.663 81.072 167.423 80.464 167.423 79.696C167.423 78.9173 167.705 78.32 168.271 77.904C168.847 77.488 169.737 77.28 170.943 77.28H172.575V76.464C172.575 75.8773 172.415 75.4293 172.095 75.12C171.775 74.8107 171.284 74.656 170.623 74.656C170.121 74.656 169.7 74.768 169.359 74.992C169.028 75.216 168.751 75.5147 168.527 75.888L167.759 75.168C167.983 74.72 168.34 74.3413 168.831 74.032C169.321 73.712 169.94 73.552 170.687 73.552C171.689 73.552 172.468 73.7973 173.023 74.288C173.577 74.7787 173.855 75.4613 173.855 76.336V80.88H174.799V82H174.079ZM170.399 81.104C170.719 81.104 171.012 81.0667 171.279 80.992C171.545 80.9173 171.775 80.8107 171.967 80.672C172.159 80.5333 172.308 80.3733 172.415 80.192C172.521 80.0107 172.575 79.8133 172.575 79.6V78.24H170.879C170.143 78.24 169.604 78.3467 169.263 78.56C168.932 78.7733 168.767 79.0827 168.767 79.488V79.824C168.767 80.2293 168.911 80.544 169.199 80.768C169.497 80.992 169.897 81.104 170.399 81.104ZM177.266 71.808C176.988 71.808 176.786 71.744 176.658 71.616C176.54 71.4773 176.482 71.3013 176.482 71.088V70.88C176.482 70.6667 176.54 70.496 176.658 70.368C176.786 70.2293 176.988 70.16 177.266 70.16C177.543 70.16 177.74 70.2293 177.858 70.368C177.986 70.496 178.05 70.6667 178.05 70.88V71.088C178.05 71.3013 177.986 71.4773 177.858 71.616C177.74 71.744 177.543 71.808 177.266 71.808ZM176.626 73.744H177.906V82H176.626V73.744ZM181.986 82C181.538 82 181.196 81.8773 180.962 81.632C180.738 81.376 180.626 81.056 180.626 80.672V70.16H181.906V80.88H183.122V82H181.986Z" fill="#1A1A1A"/>
<path d="M72 84H183.618V84.96H72V84Z" fill="#1A1A1A"/>
</g>
<defs>
<clipPath id="clip0_10746_17569">
<rect width="418" height="387" fill="white"/>
</clipPath>
</defs>
</svg>
