<svg width="418" height="196" viewBox="0 0 418 196" fill="none" xmlns="http://www.w3.org/2000/svg">
<rect width="418" height="196" fill="white"/>
<path d="M16 116C16 113.791 17.7909 112 20 112H398C400.209 112 402 113.791 402 116V128C402 130.209 400.209 132 398 132H20C17.7909 132 16 130.209 16 128V116Z" fill="#DCDCDC"/>
<path d="M16 140C16 137.791 17.7909 136 20 136H398C400.209 136 402 137.791 402 140V152C402 154.209 400.209 156 398 156H20C17.7909 156 16 154.209 16 152V140Z" fill="#DCDCDC"/>
<path d="M16 164C16 161.791 17.7909 160 20 160H300C302.209 160 304 161.791 304 164V176C304 178.209 302.209 180 300 180H20C17.7909 180 16 178.209 16 176V164Z" fill="#DCDCDC"/>
<path d="M16 100C16 97.7909 17.7909 96 20 96H130C132.209 96 134 97.7909 134 100V104C134 106.209 132.209 108 130 108H20C17.7909 108 16 106.209 16 104V100Z" fill="#DCDCDC"/>
<path d="M16 24C16 19.5817 19.5817 16 24 16H394C398.418 16 402 19.5817 402 24V64C402 68.4183 398.418 72 394 72H24C19.5817 72 16 68.4183 16 64V24Z" fill="#DDF7CE"/>
<g clip-path="url(#clip0_14279_20750)">
<rect x="16" y="16" width="4" height="280" fill="#358000"/>
</g>
<path d="M50.6 48.6L57.65 41.55L56.25 40.15L50.6 45.8L47.75 42.95L46.35 44.35L50.6 48.6ZM52 54C50.6167 54 49.3167 53.7375 48.1 53.2125C46.8833 52.6875 45.825 51.975 44.925 51.075C44.025 50.175 43.3125 49.1167 42.7875 47.9C42.2625 46.6833 42 45.3833 42 44C42 42.6167 42.2625 41.3167 42.7875 40.1C43.3125 38.8833 44.025 37.825 44.925 36.925C45.825 36.025 46.8833 35.3125 48.1 34.7875C49.3167 34.2625 50.6167 34 52 34C53.3833 34 54.6833 34.2625 55.9 34.7875C57.1167 35.3125 58.175 36.025 59.075 36.925C59.975 37.825 60.6875 38.8833 61.2125 40.1C61.7375 41.3167 62 42.6167 62 44C62 45.3833 61.7375 46.6833 61.2125 47.9C60.6875 49.1167 59.975 50.175 59.075 51.075C58.175 51.975 57.1167 52.6875 55.9 53.2125C54.6833 53.7375 53.3833 54 52 54ZM52 52C54.2333 52 56.125 51.225 57.675 49.675C59.225 48.125 60 46.2333 60 44C60 41.7667 59.225 39.875 57.675 38.325C56.125 36.775 54.2333 36 52 36C49.7667 36 47.875 36.775 46.325 38.325C44.775 39.875 44 41.7667 44 44C44 46.2333 44.775 48.125 46.325 49.675C47.875 51.225 49.7667 52 52 52Z" fill="#1A1A1A"/>
<path d="M73.312 38.832H77.376C78.1013 38.832 78.7573 38.9493 79.344 39.184C79.9413 39.4187 80.448 39.7707 80.864 40.24C81.2907 40.6987 81.616 41.28 81.84 41.984C82.0747 42.6773 82.192 43.488 82.192 44.416C82.192 45.344 82.0747 46.16 81.84 46.864C81.616 47.5573 81.2907 48.1387 80.864 48.608C80.448 49.0667 79.9413 49.4133 79.344 49.648C78.7573 49.8827 78.1013 50 77.376 50H73.312V38.832ZM77.376 48.128C78.1653 48.128 78.7893 47.8987 79.248 47.44C79.7173 46.9707 79.952 46.256 79.952 45.296V43.536C79.952 42.576 79.7173 41.8667 79.248 41.408C78.7893 40.9387 78.1653 40.704 77.376 40.704H75.424V48.128H77.376ZM89.2073 48.608H89.1273C89.0526 48.8213 88.9513 49.024 88.8233 49.216C88.7059 49.3973 88.5513 49.5627 88.3593 49.712C88.1779 49.8613 87.9539 49.9787 87.6873 50.064C87.4313 50.1493 87.1326 50.192 86.7913 50.192C85.9273 50.192 85.2659 49.9093 84.8073 49.344C84.3486 48.7787 84.1193 47.9733 84.1193 46.928V41.648H86.1673V46.72C86.1673 47.296 86.2793 47.7387 86.5033 48.048C86.7273 48.3467 87.0846 48.496 87.5753 48.496C87.7779 48.496 87.9753 48.4693 88.1673 48.416C88.3699 48.3627 88.5459 48.2827 88.6953 48.176C88.8446 48.0587 88.9673 47.92 89.0633 47.76C89.1593 47.5893 89.2073 47.392 89.2073 47.168V41.648H91.2552V50H89.2073V48.608ZM100.779 50.192C100.16 50.192 99.6054 50.0907 99.1148 49.888C98.6348 49.6747 98.2241 49.3813 97.8828 49.008C97.5521 48.624 97.2961 48.1653 97.1148 47.632C96.9334 47.088 96.8428 46.48 96.8428 45.808C96.8428 45.1467 96.9281 44.5493 97.0988 44.016C97.2801 43.4827 97.5361 43.0293 97.8668 42.656C98.1974 42.272 98.6028 41.9787 99.0828 41.776C99.5628 41.5627 100.107 41.456 100.715 41.456C101.365 41.456 101.931 41.568 102.411 41.792C102.891 42.016 103.285 42.32 103.595 42.704C103.904 43.088 104.133 43.536 104.283 44.048C104.443 44.5493 104.523 45.088 104.523 45.664V46.336H98.9708V46.544C98.9708 47.152 99.1414 47.6427 99.4828 48.016C99.8241 48.3787 100.331 48.56 101.003 48.56C101.515 48.56 101.931 48.4533 102.251 48.24C102.581 48.0267 102.875 47.7547 103.131 47.424L104.235 48.656C103.893 49.136 103.424 49.5147 102.827 49.792C102.24 50.0587 101.557 50.192 100.779 50.192ZM100.747 42.992C100.203 42.992 99.7708 43.1733 99.4508 43.536C99.1308 43.8987 98.9708 44.368 98.9708 44.944V45.072H102.395V44.928C102.395 44.352 102.251 43.888 101.963 43.536C101.685 43.1733 101.28 42.992 100.747 42.992ZM106.325 50V41.648H108.373V43.376H108.453C108.506 43.152 108.586 42.9387 108.693 42.736C108.81 42.5227 108.959 42.336 109.141 42.176C109.322 42.016 109.535 41.888 109.781 41.792C110.037 41.696 110.33 41.648 110.661 41.648H111.109V43.584H110.469C109.775 43.584 109.253 43.6853 108.901 43.888C108.549 44.0907 108.373 44.4213 108.373 44.88V50H106.325ZM116.387 50V41.648H118.435V43.04H118.515C118.686 42.592 118.952 42.2187 119.315 41.92C119.688 41.6107 120.2 41.456 120.851 41.456C121.715 41.456 122.376 41.7387 122.835 42.304C123.294 42.8693 123.523 43.6747 123.523 44.72V50H121.475V44.928C121.475 44.3307 121.368 43.8827 121.155 43.584C120.942 43.2853 120.59 43.136 120.099 43.136C119.886 43.136 119.678 43.168 119.475 43.232C119.283 43.2853 119.107 43.3707 118.947 43.488C118.798 43.5947 118.675 43.7333 118.579 43.904C118.483 44.064 118.435 44.256 118.435 44.48V50H116.387ZM130.785 48.608H130.705C130.631 48.8213 130.529 49.024 130.401 49.216C130.284 49.3973 130.129 49.5627 129.937 49.712C129.756 49.8613 129.532 49.9787 129.265 50.064C129.009 50.1493 128.711 50.192 128.369 50.192C127.505 50.192 126.844 49.9093 126.385 49.344C125.927 48.7787 125.697 47.9733 125.697 46.928V41.648H127.745V46.72C127.745 47.296 127.857 47.7387 128.081 48.048C128.305 48.3467 128.663 48.496 129.153 48.496C129.356 48.496 129.553 48.4693 129.745 48.416C129.948 48.3627 130.124 48.2827 130.273 48.176C130.423 48.0587 130.545 47.92 130.641 47.76C130.737 47.5893 130.785 47.392 130.785 47.168V41.648H132.833V50H130.785V48.608ZM142.293 50.192C141.696 50.192 141.157 50.0907 140.677 49.888C140.208 49.6853 139.802 49.392 139.461 49.008C139.13 48.624 138.874 48.1653 138.693 47.632C138.512 47.088 138.421 46.48 138.421 45.808C138.421 45.136 138.512 44.5333 138.693 44C138.874 43.4667 139.13 43.0133 139.461 42.64C139.802 42.256 140.208 41.9627 140.677 41.76C141.157 41.5573 141.696 41.456 142.293 41.456C142.89 41.456 143.429 41.5573 143.909 41.76C144.389 41.9627 144.794 42.256 145.125 42.64C145.466 43.0133 145.728 43.4667 145.909 44C146.09 44.5333 146.181 45.136 146.181 45.808C146.181 46.48 146.09 47.088 145.909 47.632C145.728 48.1653 145.466 48.624 145.125 49.008C144.794 49.392 144.389 49.6853 143.909 49.888C143.429 50.0907 142.89 50.192 142.293 50.192ZM142.293 48.544C142.837 48.544 143.264 48.3787 143.573 48.048C143.882 47.7173 144.037 47.232 144.037 46.592V45.04C144.037 44.4107 143.882 43.9307 143.573 43.6C143.264 43.2693 142.837 43.104 142.293 43.104C141.76 43.104 141.338 43.2693 141.029 43.6C140.72 43.9307 140.565 44.4107 140.565 45.04V46.592C140.565 47.232 140.72 47.7173 141.029 48.048C141.338 48.3787 141.76 48.544 142.293 48.544ZM147.997 41.648H150.045V43.024H150.109C150.258 42.544 150.541 42.1653 150.957 41.888C151.373 41.6 151.858 41.456 152.413 41.456C153.479 41.456 154.29 41.8347 154.845 42.592C155.41 43.3387 155.693 44.4107 155.693 45.808C155.693 47.216 155.41 48.2987 154.845 49.056C154.29 49.8133 153.479 50.192 152.413 50.192C151.858 50.192 151.373 50.048 150.957 49.76C150.551 49.472 150.269 49.088 150.109 48.608H150.045V53.2H147.997V41.648ZM151.757 48.496C152.29 48.496 152.722 48.32 153.053 47.968C153.383 47.616 153.549 47.1413 153.549 46.544V45.104C153.549 44.5067 153.383 44.032 153.053 43.68C152.722 43.3173 152.29 43.136 151.757 43.136C151.266 43.136 150.855 43.2587 150.525 43.504C150.205 43.7493 150.045 44.0747 150.045 44.48V47.136C150.045 47.5733 150.205 47.9093 150.525 48.144C150.855 48.3787 151.266 48.496 151.757 48.496ZM157.59 50V41.648H159.638V43.376H159.718C159.772 43.152 159.852 42.9387 159.958 42.736C160.076 42.5227 160.225 42.336 160.406 42.176C160.588 42.016 160.801 41.888 161.046 41.792C161.302 41.696 161.596 41.648 161.926 41.648H162.374V43.584H161.734C161.041 43.584 160.518 43.6853 160.166 43.888C159.814 44.0907 159.638 44.4213 159.638 44.88V50H157.59ZM167.169 50.192C166.551 50.192 165.996 50.0907 165.505 49.888C165.025 49.6747 164.615 49.3813 164.273 49.008C163.943 48.624 163.687 48.1653 163.505 47.632C163.324 47.088 163.233 46.48 163.233 45.808C163.233 45.1467 163.319 44.5493 163.489 44.016C163.671 43.4827 163.927 43.0293 164.257 42.656C164.588 42.272 164.993 41.9787 165.473 41.776C165.953 41.5627 166.497 41.456 167.105 41.456C167.756 41.456 168.321 41.568 168.801 41.792C169.281 42.016 169.676 42.32 169.985 42.704C170.295 43.088 170.524 43.536 170.673 44.048C170.833 44.5493 170.913 45.088 170.913 45.664V46.336H165.361V46.544C165.361 47.152 165.532 47.6427 165.873 48.016C166.215 48.3787 166.721 48.56 167.393 48.56C167.905 48.56 168.321 48.4533 168.641 48.24C168.972 48.0267 169.265 47.7547 169.521 47.424L170.625 48.656C170.284 49.136 169.815 49.5147 169.217 49.792C168.631 50.0587 167.948 50.192 167.169 50.192ZM167.137 42.992C166.593 42.992 166.161 43.1733 165.841 43.536C165.521 43.8987 165.361 44.368 165.361 44.944V45.072H168.785V44.928C168.785 44.352 168.641 43.888 168.353 43.536C168.076 43.1733 167.671 42.992 167.137 42.992ZM175.323 50C174.619 50 174.081 49.8187 173.707 49.456C173.345 49.0827 173.163 48.5547 173.163 47.872V43.28H171.931V41.648H172.571C172.881 41.648 173.089 41.5787 173.195 41.44C173.313 41.2907 173.371 41.072 173.371 40.784V39.36H175.211V41.648H176.923V43.28H175.211V48.368H176.795V50H175.323ZM181.214 50C180.51 50 179.971 49.8187 179.598 49.456C179.235 49.0827 179.054 48.5547 179.054 47.872V43.28H177.822V41.648H178.462C178.771 41.648 178.979 41.5787 179.086 41.44C179.203 41.2907 179.262 41.072 179.262 40.784V39.36H181.102V41.648H182.814V43.28H181.102V48.368H182.686V50H181.214ZM187.904 50.192C187.285 50.192 186.73 50.0907 186.24 49.888C185.76 49.6747 185.349 49.3813 185.008 49.008C184.677 48.624 184.421 48.1653 184.24 47.632C184.058 47.088 183.968 46.48 183.968 45.808C183.968 45.1467 184.053 44.5493 184.224 44.016C184.405 43.4827 184.661 43.0293 184.992 42.656C185.322 42.272 185.728 41.9787 186.208 41.776C186.688 41.5627 187.232 41.456 187.84 41.456C188.49 41.456 189.056 41.568 189.536 41.792C190.016 42.016 190.41 42.32 190.72 42.704C191.029 43.088 191.258 43.536 191.408 44.048C191.568 44.5493 191.648 45.088 191.648 45.664V46.336H186.096V46.544C186.096 47.152 186.266 47.6427 186.608 48.016C186.949 48.3787 187.456 48.56 188.128 48.56C188.64 48.56 189.056 48.4533 189.376 48.24C189.706 48.0267 190 47.7547 190.256 47.424L191.36 48.656C191.018 49.136 190.549 49.5147 189.952 49.792C189.365 50.0587 188.682 50.192 187.904 50.192ZM187.872 42.992C187.328 42.992 186.896 43.1733 186.576 43.536C186.256 43.8987 186.096 44.368 186.096 44.944V45.072H189.52V44.928C189.52 44.352 189.376 43.888 189.088 43.536C188.81 43.1733 188.405 42.992 187.872 42.992ZM196.058 50C195.354 50 194.815 49.8187 194.442 49.456C194.079 49.0827 193.898 48.5547 193.898 47.872V43.28H192.666V41.648H193.306C193.615 41.648 193.823 41.5787 193.93 41.44C194.047 41.2907 194.106 41.072 194.106 40.784V39.36H195.946V41.648H197.658V43.28H195.946V48.368H197.53V50H196.058ZM205.951 50.192C205.151 50.192 204.479 50.0587 203.935 49.792C203.391 49.5147 202.911 49.136 202.495 48.656L203.743 47.44C204.053 47.792 204.389 48.0693 204.751 48.272C205.125 48.4747 205.551 48.576 206.031 48.576C206.522 48.576 206.874 48.4907 207.087 48.32C207.311 48.1493 207.423 47.9147 207.423 47.616C207.423 47.3707 207.343 47.1787 207.183 47.04C207.034 46.8907 206.773 46.7893 206.399 46.736L205.567 46.624C204.661 46.5067 203.967 46.2507 203.487 45.856C203.018 45.4507 202.783 44.864 202.783 44.096C202.783 43.6907 202.858 43.328 203.007 43.008C203.157 42.6773 203.37 42.4 203.647 42.176C203.925 41.9413 204.255 41.7653 204.639 41.648C205.034 41.52 205.471 41.456 205.951 41.456C206.357 41.456 206.714 41.488 207.023 41.552C207.343 41.6053 207.631 41.6907 207.887 41.808C208.143 41.9147 208.378 42.0533 208.591 42.224C208.805 42.384 209.013 42.5653 209.215 42.768L208.015 43.968C207.77 43.712 207.477 43.4987 207.135 43.328C206.794 43.1573 206.421 43.072 206.015 43.072C205.567 43.072 205.242 43.152 205.039 43.312C204.847 43.472 204.751 43.68 204.751 43.936C204.751 44.2133 204.831 44.4267 204.991 44.576C205.162 44.7147 205.445 44.816 205.839 44.88L206.687 44.992C208.49 45.248 209.391 46.0693 209.391 47.456C209.391 47.8613 209.306 48.2347 209.135 48.576C208.975 48.9067 208.746 49.1947 208.447 49.44C208.149 49.6747 207.786 49.8613 207.359 50C206.943 50.128 206.474 50.192 205.951 50.192ZM214.512 50.192C213.914 50.192 213.376 50.0907 212.896 49.888C212.426 49.6853 212.021 49.392 211.68 49.008C211.349 48.624 211.093 48.1653 210.912 47.632C210.73 47.088 210.64 46.48 210.64 45.808C210.64 45.136 210.73 44.5333 210.912 44C211.093 43.4667 211.349 43.0133 211.68 42.64C212.021 42.256 212.426 41.9627 212.896 41.76C213.376 41.5573 213.914 41.456 214.512 41.456C215.109 41.456 215.648 41.5573 216.128 41.76C216.608 41.9627 217.013 42.256 217.344 42.64C217.685 43.0133 217.946 43.4667 218.128 44C218.309 44.5333 218.4 45.136 218.4 45.808C218.4 46.48 218.309 47.088 218.128 47.632C217.946 48.1653 217.685 48.624 217.344 49.008C217.013 49.392 216.608 49.6853 216.128 49.888C215.648 50.0907 215.109 50.192 214.512 50.192ZM214.512 48.544C215.056 48.544 215.482 48.3787 215.792 48.048C216.101 47.7173 216.256 47.232 216.256 46.592V45.04C216.256 44.4107 216.101 43.9307 215.792 43.6C215.482 43.2693 215.056 43.104 214.512 43.104C213.978 43.104 213.557 43.2693 213.248 43.6C212.938 43.9307 212.784 44.4107 212.784 45.04V46.592C212.784 47.232 212.938 47.7173 213.248 48.048C213.557 48.3787 213.978 48.544 214.512 48.544ZM220.215 50V41.648H222.263V43.04H222.343C222.503 42.6027 222.759 42.2293 223.111 41.92C223.463 41.6107 223.954 41.456 224.583 41.456C225.159 41.456 225.655 41.5947 226.071 41.872C226.487 42.1493 226.797 42.5707 226.999 43.136H227.031C227.181 42.6667 227.474 42.272 227.911 41.952C228.359 41.6213 228.919 41.456 229.591 41.456C230.413 41.456 231.042 41.7387 231.479 42.304C231.927 42.8693 232.151 43.6747 232.151 44.72V50H230.103V44.928C230.103 43.7333 229.655 43.136 228.759 43.136C228.557 43.136 228.359 43.168 228.167 43.232C227.986 43.2853 227.821 43.3707 227.671 43.488C227.533 43.5947 227.421 43.7333 227.335 43.904C227.25 44.064 227.207 44.256 227.207 44.48V50H225.159V44.928C225.159 43.7333 224.711 43.136 223.815 43.136C223.623 43.136 223.431 43.168 223.239 43.232C223.058 43.2853 222.893 43.3707 222.743 43.488C222.605 43.5947 222.487 43.7333 222.391 43.904C222.306 44.064 222.263 44.256 222.263 44.48V50H220.215ZM238.2 38.16H240.248V43.024H240.312C240.461 42.544 240.744 42.1653 241.16 41.888C241.576 41.6 242.061 41.456 242.616 41.456C243.682 41.456 244.493 41.8347 245.048 42.592C245.613 43.3387 245.896 44.4107 245.896 45.808C245.896 47.216 245.613 48.2987 245.048 49.056C244.493 49.8133 243.682 50.192 242.616 50.192C242.061 50.192 241.576 50.048 241.16 49.76C240.754 49.472 240.472 49.088 240.312 48.608H240.248V50H238.2V38.16ZM241.96 48.496C242.493 48.496 242.925 48.32 243.256 47.968C243.586 47.616 243.752 47.1413 243.752 46.544V45.104C243.752 44.5067 243.586 44.032 243.256 43.68C242.925 43.3173 242.493 43.136 241.96 43.136C241.469 43.136 241.058 43.2587 240.728 43.504C240.408 43.7493 240.248 44.0747 240.248 44.48V47.136C240.248 47.5733 240.408 47.9093 240.728 48.144C241.058 48.3787 241.469 48.496 241.96 48.496ZM247.793 50V41.648H249.841V43.376H249.921C249.975 43.152 250.055 42.9387 250.161 42.736C250.279 42.5227 250.428 42.336 250.609 42.176C250.791 42.016 251.004 41.888 251.249 41.792C251.505 41.696 251.799 41.648 252.129 41.648H252.577V43.584H251.937C251.244 43.584 250.721 43.6853 250.369 43.888C250.017 44.0907 249.841 44.4213 249.841 44.88V50H247.793ZM259.067 48.608H258.987C258.912 48.8213 258.811 49.024 258.683 49.216C258.565 49.3973 258.411 49.5627 258.219 49.712C258.037 49.8613 257.813 49.9787 257.547 50.064C257.291 50.1493 256.992 50.192 256.651 50.192C255.787 50.192 255.125 49.9093 254.667 49.344C254.208 48.7787 253.979 47.9733 253.979 46.928V41.648H256.027V46.72C256.027 47.296 256.139 47.7387 256.363 48.048C256.587 48.3467 256.944 48.496 257.435 48.496C257.637 48.496 257.835 48.4693 258.027 48.416C258.229 48.3627 258.405 48.2827 258.555 48.176C258.704 48.0587 258.827 47.92 258.923 47.76C259.019 47.5893 259.067 47.392 259.067 47.168V41.648H261.115V50H259.067V48.608ZM271.017 50.704C271.017 51.1413 270.937 51.5253 270.777 51.856C270.628 52.1973 270.377 52.48 270.025 52.704C269.673 52.928 269.22 53.0987 268.665 53.216C268.11 53.3333 267.433 53.392 266.633 53.392C265.929 53.392 265.332 53.344 264.841 53.248C264.35 53.1627 263.945 53.0347 263.625 52.864C263.316 52.704 263.092 52.5013 262.953 52.256C262.814 52.0107 262.745 51.7333 262.745 51.424C262.745 50.9547 262.873 50.5867 263.129 50.32C263.396 50.064 263.764 49.8987 264.233 49.824V49.648C263.892 49.5627 263.625 49.3973 263.433 49.152C263.252 48.896 263.161 48.5973 263.161 48.256C263.161 48.0427 263.204 47.856 263.289 47.696C263.374 47.5253 263.486 47.3813 263.625 47.264C263.774 47.1467 263.94 47.0507 264.121 46.976C264.302 46.8907 264.494 46.8267 264.697 46.784V46.72C264.185 46.4853 263.801 46.16 263.545 45.744C263.3 45.328 263.177 44.8427 263.177 44.288C263.177 43.4347 263.47 42.752 264.057 42.24C264.644 41.7173 265.502 41.456 266.633 41.456C266.889 41.456 267.14 41.472 267.385 41.504C267.641 41.536 267.876 41.5893 268.089 41.664V41.392C268.089 40.5813 268.484 40.176 269.273 40.176H270.569V41.744H268.793V41.968C269.23 42.2133 269.556 42.5333 269.769 42.928C269.982 43.3227 270.089 43.776 270.089 44.288C270.089 45.1307 269.796 45.808 269.209 46.32C268.633 46.832 267.774 47.088 266.633 47.088C266.142 47.088 265.716 47.04 265.353 46.944C265.193 47.0187 265.054 47.12 264.937 47.248C264.82 47.3653 264.761 47.5147 264.761 47.696C264.761 48.112 265.124 48.32 265.849 48.32H268.089C269.113 48.32 269.854 48.5333 270.313 48.96C270.782 49.376 271.017 49.9573 271.017 50.704ZM269.097 50.944C269.097 50.6773 268.99 50.4693 268.777 50.32C268.564 50.1707 268.196 50.096 267.673 50.096H264.825C264.537 50.3093 264.393 50.5973 264.393 50.96C264.393 51.28 264.526 51.5307 264.793 51.712C265.06 51.8933 265.513 51.984 266.153 51.984H267.177C267.849 51.984 268.334 51.8987 268.633 51.728C268.942 51.5573 269.097 51.296 269.097 50.944ZM266.633 45.696C267.636 45.696 268.137 45.2693 268.137 44.416V44.144C268.137 43.2907 267.636 42.864 266.633 42.864C265.63 42.864 265.129 43.2907 265.129 44.144V44.416C265.129 45.2693 265.63 45.696 266.633 45.696ZM275.482 50.192C274.863 50.192 274.309 50.0907 273.818 49.888C273.338 49.6747 272.927 49.3813 272.586 49.008C272.255 48.624 271.999 48.1653 271.818 47.632C271.637 47.088 271.546 46.48 271.546 45.808C271.546 45.1467 271.631 44.5493 271.802 44.016C271.983 43.4827 272.239 43.0293 272.57 42.656C272.901 42.272 273.306 41.9787 273.786 41.776C274.266 41.5627 274.81 41.456 275.418 41.456C276.069 41.456 276.634 41.568 277.114 41.792C277.594 42.016 277.989 42.32 278.298 42.704C278.607 43.088 278.837 43.536 278.986 44.048C279.146 44.5493 279.226 45.088 279.226 45.664V46.336H273.674V46.544C273.674 47.152 273.845 47.6427 274.186 48.016C274.527 48.3787 275.034 48.56 275.706 48.56C276.218 48.56 276.634 48.4533 276.954 48.24C277.285 48.0267 277.578 47.7547 277.834 47.424L278.938 48.656C278.597 49.136 278.127 49.5147 277.53 49.792C276.943 50.0587 276.261 50.192 275.482 50.192ZM275.45 42.992C274.906 42.992 274.474 43.1733 274.154 43.536C273.834 43.8987 273.674 44.368 273.674 44.944V45.072H277.098V44.928C277.098 44.352 276.954 43.888 276.666 43.536C276.389 43.1733 275.983 42.992 275.45 42.992ZM281.028 50V41.648H283.076V43.376H283.156C283.209 43.152 283.289 42.9387 283.396 42.736C283.513 42.5227 283.662 42.336 283.844 42.176C284.025 42.016 284.238 41.888 284.484 41.792C284.74 41.696 285.033 41.648 285.364 41.648H285.812V43.584H285.172C284.478 43.584 283.956 43.6853 283.604 43.888C283.252 44.0907 283.076 44.4213 283.076 44.88V50H281.028Z" fill="#1A1A1A"/>
<defs>
<clipPath id="clip0_14279_20750">
<path d="M16 24C16 19.5817 19.5817 16 24 16H40V72H24C19.5817 72 16 68.4183 16 64V24Z" fill="white"/>
</clipPath>
</defs>
</svg>
