<svg width="418" height="398" viewBox="0 0 418 398" fill="none" xmlns="http://www.w3.org/2000/svg">
<rect width="418" height="398" fill="white"/>
<path d="M18.46 44V23.06H22.42V40.49H30.67V44H18.46ZM39.7816 44.36C38.6616 44.36 37.6516 44.17 36.7516 43.79C35.8716 43.41 35.1116 42.86 34.4716 42.14C33.8516 41.42 33.3716 40.56 33.0316 39.56C32.6916 38.54 32.5216 37.4 32.5216 36.14C32.5216 34.88 32.6916 33.75 33.0316 32.75C33.3716 31.75 33.8516 30.9 34.4716 30.2C35.1116 29.48 35.8716 28.93 36.7516 28.55C37.6516 28.17 38.6616 27.98 39.7816 27.98C40.9016 27.98 41.9116 28.17 42.8116 28.55C43.7116 28.93 44.4716 29.48 45.0916 30.2C45.7316 30.9 46.2216 31.75 46.5616 32.75C46.9016 33.75 47.0716 34.88 47.0716 36.14C47.0716 37.4 46.9016 38.54 46.5616 39.56C46.2216 40.56 45.7316 41.42 45.0916 42.14C44.4716 42.86 43.7116 43.41 42.8116 43.79C41.9116 44.17 40.9016 44.36 39.7816 44.36ZM39.7816 41.27C40.8016 41.27 41.6016 40.96 42.1816 40.34C42.7616 39.72 43.0516 38.81 43.0516 37.61V34.7C43.0516 33.52 42.7616 32.62 42.1816 32C41.6016 31.38 40.8016 31.07 39.7816 31.07C38.7816 31.07 37.9916 31.38 37.4116 32C36.8316 32.62 36.5416 33.52 36.5416 34.7V37.61C36.5416 38.81 36.8316 39.72 37.4116 40.34C37.9916 40.96 38.7816 41.27 39.7816 41.27ZM50.4759 44V28.34H54.3159V31.58H54.4659C54.5659 31.16 54.7159 30.76 54.9159 30.38C55.1359 29.98 55.4159 29.63 55.7559 29.33C56.0959 29.03 56.4959 28.79 56.9559 28.61C57.4359 28.43 57.9859 28.34 58.6059 28.34H59.4459V31.97H58.2459C56.9459 31.97 55.9659 32.16 55.3059 32.54C54.6459 32.92 54.3159 33.54 54.3159 34.4V44H50.4759ZM68.4367 44.36C67.2767 44.36 66.2367 44.17 65.3167 43.79C64.4167 43.39 63.6467 42.84 63.0067 42.14C62.3867 41.42 61.9067 40.56 61.5667 39.56C61.2267 38.54 61.0567 37.4 61.0567 36.14C61.0567 34.9 61.2167 33.78 61.5367 32.78C61.8767 31.78 62.3567 30.93 62.9767 30.23C63.5967 29.51 64.3567 28.96 65.2567 28.58C66.1567 28.18 67.1767 27.98 68.3167 27.98C69.5367 27.98 70.5967 28.19 71.4967 28.61C72.3967 29.03 73.1367 29.6 73.7167 30.32C74.2967 31.04 74.7267 31.88 75.0067 32.84C75.3067 33.78 75.4567 34.79 75.4567 35.87V37.13H65.0467V37.52C65.0467 38.66 65.3667 39.58 66.0067 40.28C66.6467 40.96 67.5967 41.3 68.8567 41.3C69.8167 41.3 70.5967 41.1 71.1967 40.7C71.8167 40.3 72.3667 39.79 72.8467 39.17L74.9167 41.48C74.2767 42.38 73.3967 43.09 72.2767 43.61C71.1767 44.11 69.8967 44.36 68.4367 44.36ZM68.3767 30.86C67.3567 30.86 66.5467 31.2 65.9467 31.88C65.3467 32.56 65.0467 33.44 65.0467 34.52V34.76H71.4667V34.49C71.4667 33.41 71.1967 32.54 70.6567 31.88C70.1367 31.2 69.3767 30.86 68.3767 30.86ZM78.8352 44V28.34H82.6752V30.95H82.8252C83.1252 30.13 83.6052 29.43 84.2652 28.85C84.9252 28.27 85.8452 27.98 87.0252 27.98C88.1052 27.98 89.0352 28.24 89.8152 28.76C90.5952 29.28 91.1752 30.07 91.5552 31.13H91.6152C91.8952 30.25 92.4452 29.51 93.2652 28.91C94.1052 28.29 95.1552 27.98 96.4152 27.98C97.9552 27.98 99.1352 28.51 99.9552 29.57C100.795 30.63 101.215 32.14 101.215 34.1V44H97.3752V34.49C97.3752 32.25 96.5352 31.13 94.8552 31.13C94.4752 31.13 94.1052 31.19 93.7452 31.31C93.4052 31.41 93.0952 31.57 92.8152 31.79C92.5552 31.99 92.3452 32.25 92.1852 32.57C92.0252 32.87 91.9452 33.23 91.9452 33.65V44H88.1052V34.49C88.1052 32.25 87.2652 31.13 85.5852 31.13C85.2252 31.13 84.8652 31.19 84.5052 31.31C84.1652 31.41 83.8552 31.57 83.5752 31.79C83.3152 31.99 83.0952 32.25 82.9152 32.57C82.7552 32.87 82.6752 33.23 82.6752 33.65V44H78.8352ZM114.476 26.06C113.676 26.06 113.096 25.88 112.736 25.52C112.396 25.16 112.226 24.7 112.226 24.14V23.54C112.226 22.98 112.396 22.52 112.736 22.16C113.096 21.8 113.676 21.62 114.476 21.62C115.256 21.62 115.826 21.8 116.186 22.16C116.546 22.52 116.726 22.98 116.726 23.54V24.14C116.726 24.7 116.546 25.16 116.186 25.52C115.826 25.88 115.256 26.06 114.476 26.06ZM112.556 28.34H116.396V44H112.556V28.34ZM120.847 28.34H124.687V30.92H124.807C125.087 30.02 125.617 29.31 126.397 28.79C127.177 28.25 128.087 27.98 129.127 27.98C131.127 27.98 132.647 28.69 133.687 30.11C134.747 31.51 135.277 33.52 135.277 36.14C135.277 38.78 134.747 40.81 133.687 42.23C132.647 43.65 131.127 44.36 129.127 44.36C128.087 44.36 127.177 44.09 126.397 43.55C125.637 43.01 125.107 42.29 124.807 41.39H124.687V50H120.847V28.34ZM127.897 41.18C128.897 41.18 129.707 40.85 130.327 40.19C130.947 39.53 131.257 38.64 131.257 37.52V34.82C131.257 33.7 130.947 32.81 130.327 32.15C129.707 31.47 128.897 31.13 127.897 31.13C126.977 31.13 126.207 31.36 125.587 31.82C124.987 32.28 124.687 32.89 124.687 33.65V38.63C124.687 39.45 124.987 40.08 125.587 40.52C126.207 40.96 126.977 41.18 127.897 41.18ZM143.965 44.36C142.465 44.36 141.205 44.11 140.185 43.61C139.165 43.09 138.265 42.38 137.485 41.48L139.825 39.2C140.405 39.86 141.035 40.38 141.715 40.76C142.415 41.14 143.215 41.33 144.115 41.33C145.035 41.33 145.695 41.17 146.095 40.85C146.515 40.53 146.725 40.09 146.725 39.53C146.725 39.07 146.575 38.71 146.275 38.45C145.995 38.17 145.505 37.98 144.805 37.88L143.245 37.67C141.545 37.45 140.245 36.97 139.345 36.23C138.465 35.47 138.025 34.37 138.025 32.93C138.025 32.17 138.165 31.49 138.445 30.89C138.725 30.27 139.125 29.75 139.645 29.33C140.165 28.89 140.785 28.56 141.505 28.34C142.245 28.1 143.065 27.98 143.965 27.98C144.725 27.98 145.395 28.04 145.975 28.16C146.575 28.26 147.115 28.42 147.595 28.64C148.075 28.84 148.515 29.1 148.915 29.42C149.315 29.72 149.705 30.06 150.085 30.44L147.835 32.69C147.375 32.21 146.825 31.81 146.185 31.49C145.545 31.17 144.845 31.01 144.085 31.01C143.245 31.01 142.635 31.16 142.255 31.46C141.895 31.76 141.715 32.15 141.715 32.63C141.715 33.15 141.865 33.55 142.165 33.83C142.485 34.09 143.015 34.28 143.755 34.4L145.345 34.61C148.725 35.09 150.415 36.63 150.415 39.23C150.415 39.99 150.255 40.69 149.935 41.33C149.635 41.95 149.205 42.49 148.645 42.95C148.085 43.39 147.405 43.74 146.605 44C145.825 44.24 144.945 44.36 143.965 44.36ZM163.166 41.39H163.016C162.876 41.79 162.686 42.17 162.446 42.53C162.226 42.87 161.936 43.18 161.576 43.46C161.236 43.74 160.816 43.96 160.316 44.12C159.836 44.28 159.276 44.36 158.636 44.36C157.016 44.36 155.776 43.83 154.916 42.77C154.056 41.71 153.626 40.2 153.626 38.24V28.34H157.466V37.85C157.466 38.93 157.676 39.76 158.096 40.34C158.516 40.9 159.186 41.18 160.106 41.18C160.486 41.18 160.856 41.13 161.216 41.03C161.596 40.93 161.926 40.78 162.206 40.58C162.486 40.36 162.716 40.1 162.896 39.8C163.076 39.48 163.166 39.11 163.166 38.69V28.34H167.006V44H163.166V41.39ZM171.443 44V28.34H175.283V30.95H175.433C175.733 30.13 176.213 29.43 176.873 28.85C177.533 28.27 178.453 27.98 179.633 27.98C180.713 27.98 181.643 28.24 182.423 28.76C183.203 29.28 183.783 30.07 184.163 31.13H184.223C184.503 30.25 185.053 29.51 185.873 28.91C186.713 28.29 187.763 27.98 189.023 27.98C190.563 27.98 191.743 28.51 192.563 29.57C193.403 30.63 193.823 32.14 193.823 34.1V44H189.983V34.49C189.983 32.25 189.143 31.13 187.463 31.13C187.083 31.13 186.713 31.19 186.353 31.31C186.013 31.41 185.703 31.57 185.423 31.79C185.163 31.99 184.953 32.25 184.793 32.57C184.633 32.87 184.553 33.23 184.553 33.65V44H180.713V34.49C180.713 32.25 179.873 31.13 178.193 31.13C177.833 31.13 177.473 31.19 177.113 31.31C176.773 31.41 176.463 31.57 176.183 31.79C175.923 31.99 175.703 32.25 175.523 32.57C175.363 32.87 175.283 33.23 175.283 33.65V44H171.443Z" fill="#1A1A1A"/>
<path d="M17.312 72.832H21.376C22.1013 72.832 22.7573 72.9493 23.344 73.184C23.9413 73.4187 24.448 73.7707 24.864 74.24C25.2907 74.6987 25.616 75.28 25.84 75.984C26.0747 76.6773 26.192 77.488 26.192 78.416C26.192 79.344 26.0747 80.16 25.84 80.864C25.616 81.5573 25.2907 82.1387 24.864 82.608C24.448 83.0667 23.9413 83.4133 23.344 83.648C22.7573 83.8827 22.1013 84 21.376 84H17.312V72.832ZM21.376 82.128C22.1653 82.128 22.7893 81.8987 23.248 81.44C23.7173 80.9707 23.952 80.256 23.952 79.296V77.536C23.952 76.576 23.7173 75.8667 23.248 75.408C22.7893 74.9387 22.1653 74.704 21.376 74.704H19.424V82.128H21.376ZM31.5273 84.192C30.9299 84.192 30.3913 84.0907 29.9113 83.888C29.4419 83.6853 29.0366 83.392 28.6953 83.008C28.3646 82.624 28.1086 82.1653 27.9273 81.632C27.7459 81.088 27.6553 80.48 27.6553 79.808C27.6553 79.136 27.7459 78.5333 27.9273 78C28.1086 77.4667 28.3646 77.0133 28.6953 76.64C29.0366 76.256 29.4419 75.9627 29.9113 75.76C30.3913 75.5573 30.9299 75.456 31.5273 75.456C32.1246 75.456 32.6633 75.5573 33.1433 75.76C33.6233 75.9627 34.0286 76.256 34.3593 76.64C34.7006 77.0133 34.9619 77.4667 35.1433 78C35.3246 78.5333 35.4153 79.136 35.4153 79.808C35.4153 80.48 35.3246 81.088 35.1433 81.632C34.9619 82.1653 34.7006 82.624 34.3593 83.008C34.0286 83.392 33.6233 83.6853 33.1433 83.888C32.6633 84.0907 32.1246 84.192 31.5273 84.192ZM31.5273 82.544C32.0713 82.544 32.4979 82.3787 32.8073 82.048C33.1166 81.7173 33.2713 81.232 33.2713 80.592V79.04C33.2713 78.4107 33.1166 77.9307 32.8073 77.6C32.4979 77.2693 32.0713 77.104 31.5273 77.104C30.9939 77.104 30.5726 77.2693 30.2633 77.6C29.9539 77.9307 29.7993 78.4107 29.7993 79.04V80.592C29.7993 81.232 29.9539 81.7173 30.2633 82.048C30.5726 82.3787 30.9939 82.544 31.5273 82.544ZM39.2789 84C38.5749 84 38.0575 83.824 37.7269 83.472C37.3962 83.12 37.2309 82.624 37.2309 81.984V72.16H39.2789V82.368H40.3829V84H39.2789ZM45.246 84.192C44.6487 84.192 44.11 84.0907 43.63 83.888C43.1607 83.6853 42.7553 83.392 42.414 83.008C42.0833 82.624 41.8273 82.1653 41.646 81.632C41.4647 81.088 41.374 80.48 41.374 79.808C41.374 79.136 41.4647 78.5333 41.646 78C41.8273 77.4667 42.0833 77.0133 42.414 76.64C42.7553 76.256 43.1607 75.9627 43.63 75.76C44.11 75.5573 44.6487 75.456 45.246 75.456C45.8433 75.456 46.382 75.5573 46.862 75.76C47.342 75.9627 47.7473 76.256 48.078 76.64C48.4193 77.0133 48.6807 77.4667 48.862 78C49.0433 78.5333 49.134 79.136 49.134 79.808C49.134 80.48 49.0433 81.088 48.862 81.632C48.6807 82.1653 48.4193 82.624 48.078 83.008C47.7473 83.392 47.342 83.6853 46.862 83.888C46.382 84.0907 45.8433 84.192 45.246 84.192ZM45.246 82.544C45.79 82.544 46.2167 82.3787 46.526 82.048C46.8353 81.7173 46.99 81.232 46.99 80.592V79.04C46.99 78.4107 46.8353 77.9307 46.526 77.6C46.2167 77.2693 45.79 77.104 45.246 77.104C44.7127 77.104 44.2913 77.2693 43.982 77.6C43.6727 77.9307 43.518 78.4107 43.518 79.04V80.592C43.518 81.232 43.6727 81.7173 43.982 82.048C44.2913 82.3787 44.7127 82.544 45.246 82.544ZM50.9496 84V75.648H52.9976V77.376H53.0776C53.131 77.152 53.211 76.9387 53.3176 76.736C53.435 76.5227 53.5843 76.336 53.7656 76.176C53.947 76.016 54.1603 75.888 54.4056 75.792C54.6616 75.696 54.955 75.648 55.2856 75.648H55.7336V77.584H55.0936C54.4003 77.584 53.8776 77.6853 53.5256 77.888C53.1736 78.0907 52.9976 78.4213 52.9976 78.88V84H50.9496ZM63.7481 84.192C62.9481 84.192 62.2761 84.0587 61.7321 83.792C61.1881 83.5147 60.7081 83.136 60.2921 82.656L61.5401 81.44C61.8495 81.792 62.1855 82.0693 62.5481 82.272C62.9215 82.4747 63.3481 82.576 63.8281 82.576C64.3188 82.576 64.6708 82.4907 64.8841 82.32C65.1081 82.1493 65.2201 81.9147 65.2201 81.616C65.2201 81.3707 65.1401 81.1787 64.9801 81.04C64.8308 80.8907 64.5695 80.7893 64.1961 80.736L63.3641 80.624C62.4575 80.5067 61.7641 80.2507 61.2841 79.856C60.8148 79.4507 60.5801 78.864 60.5801 78.096C60.5801 77.6907 60.6548 77.328 60.8041 77.008C60.9535 76.6773 61.1668 76.4 61.4441 76.176C61.7215 75.9413 62.0521 75.7653 62.4361 75.648C62.8308 75.52 63.2681 75.456 63.7481 75.456C64.1535 75.456 64.5108 75.488 64.8201 75.552C65.1401 75.6053 65.4281 75.6907 65.6841 75.808C65.9401 75.9147 66.1748 76.0533 66.3881 76.224C66.6015 76.384 66.8095 76.5653 67.0121 76.768L65.8121 77.968C65.5668 77.712 65.2735 77.4987 64.9321 77.328C64.5908 77.1573 64.2175 77.072 63.8121 77.072C63.3641 77.072 63.0388 77.152 62.8361 77.312C62.6441 77.472 62.5481 77.68 62.5481 77.936C62.5481 78.2133 62.6281 78.4267 62.7881 78.576C62.9588 78.7147 63.2415 78.816 63.6361 78.88L64.4841 78.992C66.2868 79.248 67.1881 80.0693 67.1881 81.456C67.1881 81.8613 67.1028 82.2347 66.9321 82.576C66.7721 82.9067 66.5428 83.1947 66.2441 83.44C65.9455 83.6747 65.5828 83.8613 65.1561 84C64.7401 84.128 64.2708 84.192 63.7481 84.192ZM70.0205 74.432C69.5938 74.432 69.2845 74.336 69.0925 74.144C68.9112 73.952 68.8205 73.7067 68.8205 73.408V73.088C68.8205 72.7893 68.9112 72.544 69.0925 72.352C69.2845 72.16 69.5938 72.064 70.0205 72.064C70.4365 72.064 70.7405 72.16 70.9325 72.352C71.1245 72.544 71.2205 72.7893 71.2205 73.088V73.408C71.2205 73.7067 71.1245 73.952 70.9325 74.144C70.7405 74.336 70.4365 74.432 70.0205 74.432ZM68.9965 75.648H71.0445V84H68.9965V75.648ZM76.0264 84C75.3224 84 74.7837 83.8187 74.4104 83.456C74.0477 83.0827 73.8664 82.5547 73.8664 81.872V77.28H72.6344V75.648H73.2744C73.5837 75.648 73.7917 75.5787 73.8984 75.44C74.0157 75.2907 74.0744 75.072 74.0744 74.784V73.36H75.9144V75.648H77.6264V77.28H75.9144V82.368H77.4984V84H76.0264Z" fill="#1A1A1A"/>
<path d="M16.5 166C16.5 161.858 19.8579 158.5 24 158.5H248C252.142 158.5 255.5 161.858 255.5 166V190C255.5 194.142 252.142 197.5 248 197.5H24C19.8579 197.5 16.5 194.142 16.5 190V166Z" fill="white"/>
<path d="M16.5 166C16.5 161.858 19.8579 158.5 24 158.5H248C252.142 158.5 255.5 161.858 255.5 166V190C255.5 194.142 252.142 197.5 248 197.5H24C19.8579 197.5 16.5 194.142 16.5 190V166Z" stroke="#8E8E8E"/>
<path d="M24.224 240L23.328 237.152H19.36L18.48 240H16.336L20.08 228.832H22.704L26.416 240H24.224ZM21.376 230.752H21.296L19.872 235.344H22.816L21.376 230.752ZM27.934 240V231.648H29.982V233.04H30.062C30.222 232.603 30.478 232.229 30.83 231.92C31.182 231.611 31.6727 231.456 32.302 231.456C32.878 231.456 33.374 231.595 33.79 231.872C34.206 232.149 34.5153 232.571 34.718 233.136H34.75C34.8993 232.667 35.1927 232.272 35.63 231.952C36.078 231.621 36.638 231.456 37.31 231.456C38.1313 231.456 38.7607 231.739 39.198 232.304C39.646 232.869 39.87 233.675 39.87 234.72V240H37.822V234.928C37.822 233.733 37.374 233.136 36.478 233.136C36.2753 233.136 36.078 233.168 35.886 233.232C35.7047 233.285 35.5393 233.371 35.39 233.488C35.2513 233.595 35.1393 233.733 35.054 233.904C34.9687 234.064 34.926 234.256 34.926 234.48V240H32.878V234.928C32.878 233.733 32.43 233.136 31.534 233.136C31.342 233.136 31.15 233.168 30.958 233.232C30.7767 233.285 30.6113 233.371 30.462 233.488C30.3233 233.595 30.206 233.733 30.11 233.904C30.0247 234.064 29.982 234.256 29.982 234.48V240H27.934ZM45.5131 240.192C44.8945 240.192 44.3398 240.091 43.8491 239.888C43.3691 239.675 42.9585 239.381 42.6171 239.008C42.2865 238.624 42.0305 238.165 41.8491 237.632C41.6678 237.088 41.5771 236.48 41.5771 235.808C41.5771 235.147 41.6625 234.549 41.8331 234.016C42.0145 233.483 42.2705 233.029 42.6011 232.656C42.9318 232.272 43.3371 231.979 43.8171 231.776C44.2971 231.563 44.8411 231.456 45.4491 231.456C46.0998 231.456 46.6651 231.568 47.1451 231.792C47.6251 232.016 48.0198 232.32 48.3291 232.704C48.6385 233.088 48.8678 233.536 49.0171 234.048C49.1771 234.549 49.2571 235.088 49.2571 235.664V236.336H43.7051V236.544C43.7051 237.152 43.8758 237.643 44.2171 238.016C44.5585 238.379 45.0651 238.56 45.7371 238.56C46.2491 238.56 46.6651 238.453 46.9851 238.24C47.3158 238.027 47.6091 237.755 47.8651 237.424L48.9691 238.656C48.6278 239.136 48.1585 239.515 47.5611 239.792C46.9745 240.059 46.2918 240.192 45.5131 240.192ZM45.4811 232.992C44.9371 232.992 44.5051 233.173 44.1851 233.536C43.8651 233.899 43.7051 234.368 43.7051 234.944V235.072H47.1291V234.928C47.1291 234.352 46.9851 233.888 46.6971 233.536C46.4198 233.173 46.0145 232.992 45.4811 232.992ZM53.667 240C52.963 240 52.4243 239.819 52.051 239.456C51.6883 239.083 51.507 238.555 51.507 237.872V233.28H50.275V231.648H50.915C51.2243 231.648 51.4323 231.579 51.539 231.44C51.6563 231.291 51.715 231.072 51.715 230.784V229.36H53.555V231.648H55.267V233.28H53.555V238.368H55.139V240H53.667Z" fill="#1A1A1A"/>
<path d="M16.5 322C16.5 317.858 19.8579 314.5 24 314.5H248C252.142 314.5 255.5 317.858 255.5 322V346C255.5 350.142 252.142 353.5 248 353.5H24C19.8579 353.5 16.5 350.142 16.5 346V322Z" fill="white"/>
<path d="M16.5 322C16.5 317.858 19.8579 314.5 24 314.5H248C252.142 314.5 255.5 317.858 255.5 322V346C255.5 350.142 252.142 353.5 248 353.5H24C19.8579 353.5 16.5 350.142 16.5 346V322Z" stroke="#8E8E8E"/>
<path d="M16 102C16 97.5817 19.5817 94 24 94H394C398.418 94 402 97.5817 402 102V142C402 146.418 398.418 150 394 150H24C19.5817 150 16 146.418 16 142V102Z" fill="#FFE0E0"/>
<g clip-path="url(#clip0_14279_20818)">
<rect x="16" y="94" width="4" height="280" fill="#CC0000"/>
</g>
<path d="M52 127C52.2833 127 52.5208 126.904 52.7125 126.713C52.9042 126.521 53 126.283 53 126C53 125.717 52.9042 125.479 52.7125 125.288C52.5208 125.096 52.2833 125 52 125C51.7167 125 51.4792 125.096 51.2875 125.288C51.0958 125.479 51 125.717 51 126C51 126.283 51.0958 126.521 51.2875 126.713C51.4792 126.904 51.7167 127 52 127ZM51 123H53V117H51V123ZM52 132C50.6167 132 49.3167 131.738 48.1 131.212C46.8833 130.688 45.825 129.975 44.925 129.075C44.025 128.175 43.3125 127.117 42.7875 125.9C42.2625 124.683 42 123.383 42 122C42 120.617 42.2625 119.317 42.7875 118.1C43.3125 116.883 44.025 115.825 44.925 114.925C45.825 114.025 46.8833 113.312 48.1 112.788C49.3167 112.263 50.6167 112 52 112C53.3833 112 54.6833 112.263 55.9 112.788C57.1167 113.312 58.175 114.025 59.075 114.925C59.975 115.825 60.6875 116.883 61.2125 118.1C61.7375 119.317 62 120.617 62 122C62 123.383 61.7375 124.683 61.2125 125.9C60.6875 127.117 59.975 128.175 59.075 129.075C58.175 129.975 57.1167 130.688 55.9 131.212C54.6833 131.738 53.3833 132 52 132ZM52 130C54.2333 130 56.125 129.225 57.675 127.675C59.225 126.125 60 124.233 60 122C60 119.767 59.225 117.875 57.675 116.325C56.125 114.775 54.2333 114 52 114C49.7667 114 47.875 114.775 46.325 116.325C44.775 117.875 44 119.767 44 122C44 124.233 44.775 126.125 46.325 127.675C47.875 129.225 49.7667 130 52 130Z" fill="#1A1A1A"/>
<path d="M73.312 128V116.832H75.424V126.128H79.824V128H73.312ZM84.6835 128.192C84.0862 128.192 83.5475 128.091 83.0675 127.888C82.5982 127.685 82.1928 127.392 81.8515 127.008C81.5208 126.624 81.2648 126.165 81.0835 125.632C80.9022 125.088 80.8115 124.48 80.8115 123.808C80.8115 123.136 80.9022 122.533 81.0835 122C81.2648 121.467 81.5208 121.013 81.8515 120.64C82.1928 120.256 82.5982 119.963 83.0675 119.76C83.5475 119.557 84.0862 119.456 84.6835 119.456C85.2808 119.456 85.8195 119.557 86.2995 119.76C86.7795 119.963 87.1848 120.256 87.5155 120.64C87.8568 121.013 88.1182 121.467 88.2995 122C88.4808 122.533 88.5715 123.136 88.5715 123.808C88.5715 124.48 88.4808 125.088 88.2995 125.632C88.1182 126.165 87.8568 126.624 87.5155 127.008C87.1848 127.392 86.7795 127.685 86.2995 127.888C85.8195 128.091 85.2808 128.192 84.6835 128.192ZM84.6835 126.544C85.2275 126.544 85.6542 126.379 85.9635 126.048C86.2728 125.717 86.4275 125.232 86.4275 124.592V123.04C86.4275 122.411 86.2728 121.931 85.9635 121.6C85.6542 121.269 85.2275 121.104 84.6835 121.104C84.1502 121.104 83.7288 121.269 83.4195 121.6C83.1102 121.931 82.9555 122.411 82.9555 123.04V124.592C82.9555 125.232 83.1102 125.717 83.4195 126.048C83.7288 126.379 84.1502 126.544 84.6835 126.544ZM90.3871 128V119.648H92.4351V121.376H92.5151C92.5685 121.152 92.6485 120.939 92.7551 120.736C92.8725 120.523 93.0218 120.336 93.2031 120.176C93.3845 120.016 93.5978 119.888 93.8431 119.792C94.0991 119.696 94.3925 119.648 94.7231 119.648H95.1711V121.584H94.5311C93.8378 121.584 93.3151 121.685 92.9631 121.888C92.6111 122.091 92.4351 122.421 92.4351 122.88V128H90.3871ZM99.9663 128.192C99.3476 128.192 98.7929 128.091 98.3023 127.888C97.8223 127.675 97.4116 127.381 97.0703 127.008C96.7396 126.624 96.4836 126.165 96.3023 125.632C96.1209 125.088 96.0303 124.48 96.0303 123.808C96.0303 123.147 96.1156 122.549 96.2863 122.016C96.4676 121.483 96.7236 121.029 97.0543 120.656C97.3849 120.272 97.7903 119.979 98.2703 119.776C98.7503 119.563 99.2943 119.456 99.9023 119.456C100.553 119.456 101.118 119.568 101.598 119.792C102.078 120.016 102.473 120.32 102.782 120.704C103.092 121.088 103.321 121.536 103.47 122.048C103.63 122.549 103.71 123.088 103.71 123.664V124.336H98.1583V124.544C98.1583 125.152 98.3289 125.643 98.6703 126.016C99.0116 126.379 99.5183 126.56 100.19 126.56C100.702 126.56 101.118 126.453 101.438 126.24C101.769 126.027 102.062 125.755 102.318 125.424L103.422 126.656C103.081 127.136 102.612 127.515 102.014 127.792C101.428 128.059 100.745 128.192 99.9663 128.192ZM99.9343 120.992C99.3903 120.992 98.9583 121.173 98.6383 121.536C98.3183 121.899 98.1583 122.368 98.1583 122.944V123.072H101.582V122.928C101.582 122.352 101.438 121.888 101.15 121.536C100.873 121.173 100.468 120.992 99.9343 120.992ZM105.512 128V119.648H107.56V121.04H107.64C107.8 120.603 108.056 120.229 108.408 119.92C108.76 119.611 109.251 119.456 109.88 119.456C110.456 119.456 110.952 119.595 111.368 119.872C111.784 120.149 112.093 120.571 112.296 121.136H112.328C112.477 120.667 112.771 120.272 113.208 119.952C113.656 119.621 114.216 119.456 114.888 119.456C115.709 119.456 116.339 119.739 116.776 120.304C117.224 120.869 117.448 121.675 117.448 122.72V128H115.4V122.928C115.4 121.733 114.952 121.136 114.056 121.136C113.853 121.136 113.656 121.168 113.464 121.232C113.283 121.285 113.117 121.371 112.968 121.488C112.829 121.595 112.717 121.733 112.632 121.904C112.547 122.064 112.504 122.256 112.504 122.48V128H110.456V122.928C110.456 121.733 110.008 121.136 109.112 121.136C108.92 121.136 108.728 121.168 108.536 121.232C108.355 121.285 108.189 121.371 108.04 121.488C107.901 121.595 107.784 121.733 107.688 121.904C107.603 122.064 107.56 122.256 107.56 122.48V128H105.512ZM124.521 118.432C124.094 118.432 123.785 118.336 123.593 118.144C123.411 117.952 123.321 117.707 123.321 117.408V117.088C123.321 116.789 123.411 116.544 123.593 116.352C123.785 116.16 124.094 116.064 124.521 116.064C124.937 116.064 125.241 116.16 125.433 116.352C125.625 116.544 125.721 116.789 125.721 117.088V117.408C125.721 117.707 125.625 117.952 125.433 118.144C125.241 118.336 124.937 118.432 124.521 118.432ZM123.497 119.648H125.545V128H123.497V119.648ZM127.918 119.648H129.966V121.024H130.03C130.18 120.544 130.462 120.165 130.878 119.888C131.294 119.6 131.78 119.456 132.334 119.456C133.401 119.456 134.212 119.835 134.766 120.592C135.332 121.339 135.614 122.411 135.614 123.808C135.614 125.216 135.332 126.299 134.766 127.056C134.212 127.813 133.401 128.192 132.334 128.192C131.78 128.192 131.294 128.048 130.878 127.76C130.473 127.472 130.19 127.088 130.03 126.608H129.966V131.2H127.918V119.648ZM131.678 126.496C132.212 126.496 132.644 126.32 132.974 125.968C133.305 125.616 133.47 125.141 133.47 124.544V123.104C133.47 122.507 133.305 122.032 132.974 121.68C132.644 121.317 132.212 121.136 131.678 121.136C131.188 121.136 130.777 121.259 130.446 121.504C130.126 121.749 129.966 122.075 129.966 122.48V125.136C129.966 125.573 130.126 125.909 130.446 126.144C130.777 126.379 131.188 126.496 131.678 126.496ZM140.248 128.192C139.448 128.192 138.776 128.059 138.232 127.792C137.688 127.515 137.208 127.136 136.792 126.656L138.04 125.44C138.349 125.792 138.685 126.069 139.048 126.272C139.421 126.475 139.848 126.576 140.328 126.576C140.819 126.576 141.171 126.491 141.384 126.32C141.608 126.149 141.72 125.915 141.72 125.616C141.72 125.371 141.64 125.179 141.48 125.04C141.331 124.891 141.069 124.789 140.696 124.736L139.864 124.624C138.957 124.507 138.264 124.251 137.784 123.856C137.315 123.451 137.08 122.864 137.08 122.096C137.08 121.691 137.155 121.328 137.304 121.008C137.453 120.677 137.667 120.4 137.944 120.176C138.221 119.941 138.552 119.765 138.936 119.648C139.331 119.52 139.768 119.456 140.248 119.456C140.653 119.456 141.011 119.488 141.32 119.552C141.64 119.605 141.928 119.691 142.184 119.808C142.44 119.915 142.675 120.053 142.888 120.224C143.101 120.384 143.309 120.565 143.512 120.768L142.312 121.968C142.067 121.712 141.773 121.499 141.432 121.328C141.091 121.157 140.717 121.072 140.312 121.072C139.864 121.072 139.539 121.152 139.336 121.312C139.144 121.472 139.048 121.68 139.048 121.936C139.048 122.213 139.128 122.427 139.288 122.576C139.459 122.715 139.741 122.816 140.136 122.88L140.984 122.992C142.787 123.248 143.688 124.069 143.688 125.456C143.688 125.861 143.603 126.235 143.432 126.576C143.272 126.907 143.043 127.195 142.744 127.44C142.445 127.675 142.083 127.861 141.656 128C141.24 128.128 140.771 128.192 140.248 128.192ZM150.489 126.608H150.409C150.334 126.821 150.233 127.024 150.105 127.216C149.987 127.397 149.833 127.563 149.641 127.712C149.459 127.861 149.235 127.979 148.969 128.064C148.713 128.149 148.414 128.192 148.073 128.192C147.209 128.192 146.547 127.909 146.089 127.344C145.63 126.779 145.401 125.973 145.401 124.928V119.648H147.449V124.72C147.449 125.296 147.561 125.739 147.785 126.048C148.009 126.347 148.366 126.496 148.857 126.496C149.059 126.496 149.257 126.469 149.449 126.416C149.651 126.363 149.827 126.283 149.977 126.176C150.126 126.059 150.249 125.92 150.345 125.76C150.441 125.589 150.489 125.392 150.489 125.168V119.648H152.536V128H150.489V126.608ZM154.903 128V119.648H156.951V121.04H157.031C157.191 120.603 157.447 120.229 157.799 119.92C158.151 119.611 158.641 119.456 159.271 119.456C159.847 119.456 160.343 119.595 160.759 119.872C161.175 120.149 161.484 120.571 161.687 121.136H161.719C161.868 120.667 162.161 120.272 162.599 119.952C163.047 119.621 163.607 119.456 164.279 119.456C165.1 119.456 165.729 119.739 166.167 120.304C166.615 120.869 166.839 121.675 166.839 122.72V128H164.791V122.928C164.791 121.733 164.343 121.136 163.447 121.136C163.244 121.136 163.047 121.168 162.855 121.232C162.673 121.285 162.508 121.371 162.359 121.488C162.22 121.595 162.108 121.733 162.023 121.904C161.937 122.064 161.895 122.256 161.895 122.48V128H159.847V122.928C159.847 121.733 159.399 121.136 158.503 121.136C158.311 121.136 158.119 121.168 157.927 121.232C157.745 121.285 157.58 121.371 157.431 121.488C157.292 121.595 157.175 121.733 157.079 121.904C156.993 122.064 156.951 122.256 156.951 122.48V128H154.903ZM178.071 126.608H177.991C177.842 127.088 177.559 127.472 177.143 127.76C176.727 128.048 176.242 128.192 175.687 128.192C174.631 128.192 173.82 127.813 173.255 127.056C172.7 126.299 172.423 125.216 172.423 123.808C172.423 122.411 172.7 121.339 173.255 120.592C173.82 119.835 174.631 119.456 175.687 119.456C176.242 119.456 176.727 119.6 177.143 119.888C177.559 120.165 177.842 120.544 177.991 121.024H178.071V116.16H180.119V128H178.071V126.608ZM176.343 126.496C176.834 126.496 177.244 126.379 177.575 126.144C177.906 125.909 178.071 125.573 178.071 125.136V122.48C178.071 122.075 177.906 121.749 177.575 121.504C177.244 121.259 176.834 121.136 176.343 121.136C175.81 121.136 175.378 121.317 175.047 121.68C174.727 122.032 174.567 122.507 174.567 123.104V124.544C174.567 125.141 174.727 125.616 175.047 125.968C175.378 126.32 175.81 126.496 176.343 126.496ZM185.793 128.192C185.196 128.192 184.657 128.091 184.177 127.888C183.708 127.685 183.302 127.392 182.961 127.008C182.63 126.624 182.374 126.165 182.193 125.632C182.012 125.088 181.921 124.48 181.921 123.808C181.921 123.136 182.012 122.533 182.193 122C182.374 121.467 182.63 121.013 182.961 120.64C183.302 120.256 183.708 119.963 184.177 119.76C184.657 119.557 185.196 119.456 185.793 119.456C186.39 119.456 186.929 119.557 187.409 119.76C187.889 119.963 188.294 120.256 188.625 120.64C188.966 121.013 189.228 121.467 189.409 122C189.59 122.533 189.681 123.136 189.681 123.808C189.681 124.48 189.59 125.088 189.409 125.632C189.228 126.165 188.966 126.624 188.625 127.008C188.294 127.392 187.889 127.685 187.409 127.888C186.929 128.091 186.39 128.192 185.793 128.192ZM185.793 126.544C186.337 126.544 186.764 126.379 187.073 126.048C187.382 125.717 187.537 125.232 187.537 124.592V123.04C187.537 122.411 187.382 121.931 187.073 121.6C186.764 121.269 186.337 121.104 185.793 121.104C185.26 121.104 184.838 121.269 184.529 121.6C184.22 121.931 184.065 122.411 184.065 123.04V124.592C184.065 125.232 184.22 125.717 184.529 126.048C184.838 126.379 185.26 126.544 185.793 126.544ZM193.545 128C192.841 128 192.323 127.824 191.993 127.472C191.662 127.12 191.497 126.624 191.497 125.984V116.16H193.545V126.368H194.649V128H193.545ZM199.512 128.192C198.914 128.192 198.376 128.091 197.896 127.888C197.426 127.685 197.021 127.392 196.68 127.008C196.349 126.624 196.093 126.165 195.912 125.632C195.73 125.088 195.64 124.48 195.64 123.808C195.64 123.136 195.73 122.533 195.912 122C196.093 121.467 196.349 121.013 196.68 120.64C197.021 120.256 197.426 119.963 197.896 119.76C198.376 119.557 198.914 119.456 199.512 119.456C200.109 119.456 200.648 119.557 201.128 119.76C201.608 119.963 202.013 120.256 202.344 120.64C202.685 121.013 202.946 121.467 203.128 122C203.309 122.533 203.4 123.136 203.4 123.808C203.4 124.48 203.309 125.088 203.128 125.632C202.946 126.165 202.685 126.624 202.344 127.008C202.013 127.392 201.608 127.685 201.128 127.888C200.648 128.091 200.109 128.192 199.512 128.192ZM199.512 126.544C200.056 126.544 200.482 126.379 200.792 126.048C201.101 125.717 201.256 125.232 201.256 124.592V123.04C201.256 122.411 201.101 121.931 200.792 121.6C200.482 121.269 200.056 121.104 199.512 121.104C198.978 121.104 198.557 121.269 198.248 121.6C197.938 121.931 197.784 122.411 197.784 123.04V124.592C197.784 125.232 197.938 125.717 198.248 126.048C198.557 126.379 198.978 126.544 199.512 126.544ZM205.215 128V119.648H207.263V121.376H207.343C207.397 121.152 207.477 120.939 207.583 120.736C207.701 120.523 207.85 120.336 208.031 120.176C208.213 120.016 208.426 119.888 208.671 119.792C208.927 119.696 209.221 119.648 209.551 119.648H209.999V121.584H209.359C208.666 121.584 208.143 121.685 207.791 121.888C207.439 122.091 207.263 122.421 207.263 122.88V128H205.215ZM218.014 128.192C217.214 128.192 216.542 128.059 215.998 127.792C215.454 127.515 214.974 127.136 214.558 126.656L215.806 125.44C216.115 125.792 216.451 126.069 216.814 126.272C217.187 126.475 217.614 126.576 218.094 126.576C218.584 126.576 218.936 126.491 219.15 126.32C219.374 126.149 219.486 125.915 219.486 125.616C219.486 125.371 219.406 125.179 219.246 125.04C219.096 124.891 218.835 124.789 218.462 124.736L217.63 124.624C216.723 124.507 216.03 124.251 215.55 123.856C215.08 123.451 214.846 122.864 214.846 122.096C214.846 121.691 214.92 121.328 215.07 121.008C215.219 120.677 215.432 120.4 215.71 120.176C215.987 119.941 216.318 119.765 216.702 119.648C217.096 119.52 217.534 119.456 218.014 119.456C218.419 119.456 218.776 119.488 219.086 119.552C219.406 119.605 219.694 119.691 219.95 119.808C220.206 119.915 220.44 120.053 220.654 120.224C220.867 120.384 221.075 120.565 221.278 120.768L220.078 121.968C219.832 121.712 219.539 121.499 219.198 121.328C218.856 121.157 218.483 121.072 218.078 121.072C217.63 121.072 217.304 121.152 217.102 121.312C216.91 121.472 216.814 121.68 216.814 121.936C216.814 122.213 216.894 122.427 217.054 122.576C217.224 122.715 217.507 122.816 217.902 122.88L218.75 122.992C220.552 123.248 221.454 124.069 221.454 125.456C221.454 125.861 221.368 126.235 221.198 126.576C221.038 126.907 220.808 127.195 220.51 127.44C220.211 127.675 219.848 127.861 219.422 128C219.006 128.128 218.536 128.192 218.014 128.192ZM224.286 118.432C223.859 118.432 223.55 118.336 223.358 118.144C223.177 117.952 223.086 117.707 223.086 117.408V117.088C223.086 116.789 223.177 116.544 223.358 116.352C223.55 116.16 223.859 116.064 224.286 116.064C224.702 116.064 225.006 116.16 225.198 116.352C225.39 116.544 225.486 116.789 225.486 117.088V117.408C225.486 117.707 225.39 117.952 225.198 118.144C225.006 118.336 224.702 118.432 224.286 118.432ZM223.262 119.648H225.31V128H223.262V119.648ZM230.292 128C229.588 128 229.049 127.819 228.676 127.456C228.313 127.083 228.132 126.555 228.132 125.872V121.28H226.9V119.648H227.54C227.849 119.648 228.057 119.579 228.164 119.44C228.281 119.291 228.34 119.072 228.34 118.784V117.36H230.18V119.648H231.892V121.28H230.18V126.368H231.764V128H230.292ZM243.594 128C243.146 128 242.788 127.872 242.522 127.616C242.266 127.349 242.106 126.997 242.042 126.56H241.946C241.807 127.104 241.524 127.515 241.098 127.792C240.671 128.059 240.143 128.192 239.514 128.192C238.66 128.192 238.004 127.968 237.546 127.52C237.087 127.072 236.858 126.475 236.858 125.728C236.858 124.864 237.167 124.224 237.786 123.808C238.404 123.381 239.284 123.168 240.426 123.168H241.85V122.56C241.85 122.091 241.727 121.728 241.482 121.472C241.236 121.216 240.842 121.088 240.298 121.088C239.818 121.088 239.428 121.195 239.13 121.408C238.842 121.611 238.596 121.856 238.394 122.144L237.178 121.056C237.487 120.576 237.898 120.192 238.41 119.904C238.922 119.605 239.599 119.456 240.442 119.456C241.572 119.456 242.431 119.712 243.018 120.224C243.604 120.736 243.898 121.472 243.898 122.432V126.368H244.73V128H243.594ZM240.202 126.704C240.66 126.704 241.05 126.603 241.37 126.4C241.69 126.197 241.85 125.899 241.85 125.504V124.4H240.538C239.471 124.4 238.938 124.741 238.938 125.424V125.696C238.938 126.037 239.044 126.293 239.258 126.464C239.482 126.624 239.796 126.704 240.202 126.704ZM246.387 128V119.648H248.435V121.04H248.515C248.675 120.603 248.931 120.229 249.283 119.92C249.635 119.611 250.126 119.456 250.755 119.456C251.331 119.456 251.827 119.595 252.243 119.872C252.659 120.149 252.968 120.571 253.171 121.136H253.203C253.352 120.667 253.646 120.272 254.083 119.952C254.531 119.621 255.091 119.456 255.763 119.456C256.584 119.456 257.214 119.739 257.651 120.304C258.099 120.869 258.323 121.675 258.323 122.72V128H256.275V122.928C256.275 121.733 255.827 121.136 254.931 121.136C254.728 121.136 254.531 121.168 254.339 121.232C254.158 121.285 253.992 121.371 253.843 121.488C253.704 121.595 253.592 121.733 253.507 121.904C253.422 122.064 253.379 122.256 253.379 122.48V128H251.331V122.928C251.331 121.733 250.883 121.136 249.987 121.136C249.795 121.136 249.603 121.168 249.411 121.232C249.23 121.285 249.064 121.371 248.915 121.488C248.776 121.595 248.659 121.733 248.563 121.904C248.478 122.064 248.435 122.256 248.435 122.48V128H246.387ZM263.966 128.192C263.348 128.192 262.793 128.091 262.302 127.888C261.822 127.675 261.412 127.381 261.07 127.008C260.74 126.624 260.484 126.165 260.302 125.632C260.121 125.088 260.03 124.48 260.03 123.808C260.03 123.147 260.116 122.549 260.286 122.016C260.468 121.483 260.724 121.029 261.054 120.656C261.385 120.272 261.79 119.979 262.27 119.776C262.75 119.563 263.294 119.456 263.902 119.456C264.553 119.456 265.118 119.568 265.598 119.792C266.078 120.016 266.473 120.32 266.782 120.704C267.092 121.088 267.321 121.536 267.47 122.048C267.63 122.549 267.71 123.088 267.71 123.664V124.336H262.158V124.544C262.158 125.152 262.329 125.643 262.67 126.016C263.012 126.379 263.518 126.56 264.19 126.56C264.702 126.56 265.118 126.453 265.438 126.24C265.769 126.027 266.062 125.755 266.318 125.424L267.422 126.656C267.081 127.136 266.612 127.515 266.014 127.792C265.428 128.059 264.745 128.192 263.966 128.192ZM263.934 120.992C263.39 120.992 262.958 121.173 262.638 121.536C262.318 121.899 262.158 122.368 262.158 122.944V123.072H265.582V122.928C265.582 122.352 265.438 121.888 265.15 121.536C264.873 121.173 264.468 120.992 263.934 120.992ZM272.12 128C271.416 128 270.877 127.819 270.504 127.456C270.141 127.083 269.96 126.555 269.96 125.872V121.28H268.728V119.648H269.368C269.677 119.648 269.885 119.579 269.992 119.44C270.109 119.291 270.168 119.072 270.168 118.784V117.36H272.008V119.648H273.72V121.28H272.008V126.368H273.592V128H272.12Z" fill="#1A1A1A"/>
<path d="M16 258C16 253.582 19.5817 250 24 250H394C398.418 250 402 253.582 402 258V298C402 302.418 398.418 306 394 306H24C19.5817 306 16 302.418 16 298V258Z" fill="#E2F2FB"/>
<g clip-path="url(#clip1_14279_20818)">
<rect x="16" y="250" width="4" height="280" fill="#1B86C3"/>
</g>
<path d="M51 283H53V277H51V283ZM52 275C52.2833 275 52.5208 274.904 52.7125 274.713C52.9042 274.521 53 274.283 53 274C53 273.717 52.9042 273.479 52.7125 273.287C52.5208 273.096 52.2833 273 52 273C51.7167 273 51.4792 273.096 51.2875 273.287C51.0958 273.479 51 273.717 51 274C51 274.283 51.0958 274.521 51.2875 274.713C51.4792 274.904 51.7167 275 52 275ZM52 288C50.6167 288 49.3167 287.738 48.1 287.212C46.8833 286.688 45.825 285.975 44.925 285.075C44.025 284.175 43.3125 283.117 42.7875 281.9C42.2625 280.683 42 279.383 42 278C42 276.617 42.2625 275.317 42.7875 274.1C43.3125 272.883 44.025 271.825 44.925 270.925C45.825 270.025 46.8833 269.312 48.1 268.788C49.3167 268.263 50.6167 268 52 268C53.3833 268 54.6833 268.263 55.9 268.788C57.1167 269.312 58.175 270.025 59.075 270.925C59.975 271.825 60.6875 272.883 61.2125 274.1C61.7375 275.317 62 276.617 62 278C62 279.383 61.7375 280.683 61.2125 281.9C60.6875 283.117 59.975 284.175 59.075 285.075C58.175 285.975 57.1167 286.688 55.9 287.212C54.6833 287.738 53.3833 288 52 288ZM52 286C54.2333 286 56.125 285.225 57.675 283.675C59.225 282.125 60 280.233 60 278C60 275.767 59.225 273.875 57.675 272.325C56.125 270.775 54.2333 270 52 270C49.7667 270 47.875 270.775 46.325 272.325C44.775 273.875 44 275.767 44 278C44 280.233 44.775 282.125 46.325 283.675C47.875 285.225 49.7667 286 52 286Z" fill="#1A1A1A"/>
<path d="M73.312 284V272.832H75.424V282.128H79.824V284H73.312ZM84.6835 284.192C84.0862 284.192 83.5475 284.091 83.0675 283.888C82.5982 283.685 82.1928 283.392 81.8515 283.008C81.5208 282.624 81.2648 282.165 81.0835 281.632C80.9022 281.088 80.8115 280.48 80.8115 279.808C80.8115 279.136 80.9022 278.533 81.0835 278C81.2648 277.467 81.5208 277.013 81.8515 276.64C82.1928 276.256 82.5982 275.963 83.0675 275.76C83.5475 275.557 84.0862 275.456 84.6835 275.456C85.2808 275.456 85.8195 275.557 86.2995 275.76C86.7795 275.963 87.1848 276.256 87.5155 276.64C87.8568 277.013 88.1182 277.467 88.2995 278C88.4808 278.533 88.5715 279.136 88.5715 279.808C88.5715 280.48 88.4808 281.088 88.2995 281.632C88.1182 282.165 87.8568 282.624 87.5155 283.008C87.1848 283.392 86.7795 283.685 86.2995 283.888C85.8195 284.091 85.2808 284.192 84.6835 284.192ZM84.6835 282.544C85.2275 282.544 85.6542 282.379 85.9635 282.048C86.2728 281.717 86.4275 281.232 86.4275 280.592V279.04C86.4275 278.411 86.2728 277.931 85.9635 277.6C85.6542 277.269 85.2275 277.104 84.6835 277.104C84.1502 277.104 83.7288 277.269 83.4195 277.6C83.1102 277.931 82.9555 278.411 82.9555 279.04V280.592C82.9555 281.232 83.1102 281.717 83.4195 282.048C83.7288 282.379 84.1502 282.544 84.6835 282.544ZM90.3871 284V275.648H92.4351V277.376H92.5151C92.5685 277.152 92.6485 276.939 92.7551 276.736C92.8725 276.523 93.0218 276.336 93.2031 276.176C93.3845 276.016 93.5978 275.888 93.8431 275.792C94.0991 275.696 94.3925 275.648 94.7231 275.648H95.1711V277.584H94.5311C93.8378 277.584 93.3151 277.685 92.9631 277.888C92.6111 278.091 92.4351 278.421 92.4351 278.88V284H90.3871ZM99.9663 284.192C99.3476 284.192 98.7929 284.091 98.3023 283.888C97.8223 283.675 97.4116 283.381 97.0703 283.008C96.7396 282.624 96.4836 282.165 96.3023 281.632C96.1209 281.088 96.0303 280.48 96.0303 279.808C96.0303 279.147 96.1156 278.549 96.2863 278.016C96.4676 277.483 96.7236 277.029 97.0543 276.656C97.3849 276.272 97.7903 275.979 98.2703 275.776C98.7503 275.563 99.2943 275.456 99.9023 275.456C100.553 275.456 101.118 275.568 101.598 275.792C102.078 276.016 102.473 276.32 102.782 276.704C103.092 277.088 103.321 277.536 103.47 278.048C103.63 278.549 103.71 279.088 103.71 279.664V280.336H98.1583V280.544C98.1583 281.152 98.3289 281.643 98.6703 282.016C99.0116 282.379 99.5183 282.56 100.19 282.56C100.702 282.56 101.118 282.453 101.438 282.24C101.769 282.027 102.062 281.755 102.318 281.424L103.422 282.656C103.081 283.136 102.612 283.515 102.014 283.792C101.428 284.059 100.745 284.192 99.9663 284.192ZM99.9343 276.992C99.3903 276.992 98.9583 277.173 98.6383 277.536C98.3183 277.899 98.1583 278.368 98.1583 278.944V279.072H101.582V278.928C101.582 278.352 101.438 277.888 101.15 277.536C100.873 277.173 100.468 276.992 99.9343 276.992ZM105.512 284V275.648H107.56V277.04H107.64C107.8 276.603 108.056 276.229 108.408 275.92C108.76 275.611 109.251 275.456 109.88 275.456C110.456 275.456 110.952 275.595 111.368 275.872C111.784 276.149 112.093 276.571 112.296 277.136H112.328C112.477 276.667 112.771 276.272 113.208 275.952C113.656 275.621 114.216 275.456 114.888 275.456C115.709 275.456 116.339 275.739 116.776 276.304C117.224 276.869 117.448 277.675 117.448 278.72V284H115.4V278.928C115.4 277.733 114.952 277.136 114.056 277.136C113.853 277.136 113.656 277.168 113.464 277.232C113.283 277.285 113.117 277.371 112.968 277.488C112.829 277.595 112.717 277.733 112.632 277.904C112.547 278.064 112.504 278.256 112.504 278.48V284H110.456V278.928C110.456 277.733 110.008 277.136 109.112 277.136C108.92 277.136 108.728 277.168 108.536 277.232C108.355 277.285 108.189 277.371 108.04 277.488C107.901 277.595 107.784 277.733 107.688 277.904C107.603 278.064 107.56 278.256 107.56 278.48V284H105.512ZM124.521 274.432C124.094 274.432 123.785 274.336 123.593 274.144C123.411 273.952 123.321 273.707 123.321 273.408V273.088C123.321 272.789 123.411 272.544 123.593 272.352C123.785 272.16 124.094 272.064 124.521 272.064C124.937 272.064 125.241 272.16 125.433 272.352C125.625 272.544 125.721 272.789 125.721 273.088V273.408C125.721 273.707 125.625 273.952 125.433 274.144C125.241 274.336 124.937 274.432 124.521 274.432ZM123.497 275.648H125.545V284H123.497V275.648ZM127.918 275.648H129.966V277.024H130.03C130.18 276.544 130.462 276.165 130.878 275.888C131.294 275.6 131.78 275.456 132.334 275.456C133.401 275.456 134.212 275.835 134.766 276.592C135.332 277.339 135.614 278.411 135.614 279.808C135.614 281.216 135.332 282.299 134.766 283.056C134.212 283.813 133.401 284.192 132.334 284.192C131.78 284.192 131.294 284.048 130.878 283.76C130.473 283.472 130.19 283.088 130.03 282.608H129.966V287.2H127.918V275.648ZM131.678 282.496C132.212 282.496 132.644 282.32 132.974 281.968C133.305 281.616 133.47 281.141 133.47 280.544V279.104C133.47 278.507 133.305 278.032 132.974 277.68C132.644 277.317 132.212 277.136 131.678 277.136C131.188 277.136 130.777 277.259 130.446 277.504C130.126 277.749 129.966 278.075 129.966 278.48V281.136C129.966 281.573 130.126 281.909 130.446 282.144C130.777 282.379 131.188 282.496 131.678 282.496ZM140.248 284.192C139.448 284.192 138.776 284.059 138.232 283.792C137.688 283.515 137.208 283.136 136.792 282.656L138.04 281.44C138.349 281.792 138.685 282.069 139.048 282.272C139.421 282.475 139.848 282.576 140.328 282.576C140.819 282.576 141.171 282.491 141.384 282.32C141.608 282.149 141.72 281.915 141.72 281.616C141.72 281.371 141.64 281.179 141.48 281.04C141.331 280.891 141.069 280.789 140.696 280.736L139.864 280.624C138.957 280.507 138.264 280.251 137.784 279.856C137.315 279.451 137.08 278.864 137.08 278.096C137.08 277.691 137.155 277.328 137.304 277.008C137.453 276.677 137.667 276.4 137.944 276.176C138.221 275.941 138.552 275.765 138.936 275.648C139.331 275.52 139.768 275.456 140.248 275.456C140.653 275.456 141.011 275.488 141.32 275.552C141.64 275.605 141.928 275.691 142.184 275.808C142.44 275.915 142.675 276.053 142.888 276.224C143.101 276.384 143.309 276.565 143.512 276.768L142.312 277.968C142.067 277.712 141.773 277.499 141.432 277.328C141.091 277.157 140.717 277.072 140.312 277.072C139.864 277.072 139.539 277.152 139.336 277.312C139.144 277.472 139.048 277.68 139.048 277.936C139.048 278.213 139.128 278.427 139.288 278.576C139.459 278.715 139.741 278.816 140.136 278.88L140.984 278.992C142.787 279.248 143.688 280.069 143.688 281.456C143.688 281.861 143.603 282.235 143.432 282.576C143.272 282.907 143.043 283.195 142.744 283.44C142.445 283.675 142.083 283.861 141.656 284C141.24 284.128 140.771 284.192 140.248 284.192ZM150.489 282.608H150.409C150.334 282.821 150.233 283.024 150.105 283.216C149.987 283.397 149.833 283.563 149.641 283.712C149.459 283.861 149.235 283.979 148.969 284.064C148.713 284.149 148.414 284.192 148.073 284.192C147.209 284.192 146.547 283.909 146.089 283.344C145.63 282.779 145.401 281.973 145.401 280.928V275.648H147.449V280.72C147.449 281.296 147.561 281.739 147.785 282.048C148.009 282.347 148.366 282.496 148.857 282.496C149.059 282.496 149.257 282.469 149.449 282.416C149.651 282.363 149.827 282.283 149.977 282.176C150.126 282.059 150.249 281.92 150.345 281.76C150.441 281.589 150.489 281.392 150.489 281.168V275.648H152.536V284H150.489V282.608ZM154.903 284V275.648H156.951V277.04H157.031C157.191 276.603 157.447 276.229 157.799 275.92C158.151 275.611 158.641 275.456 159.271 275.456C159.847 275.456 160.343 275.595 160.759 275.872C161.175 276.149 161.484 276.571 161.687 277.136H161.719C161.868 276.667 162.161 276.272 162.599 275.952C163.047 275.621 163.607 275.456 164.279 275.456C165.1 275.456 165.729 275.739 166.167 276.304C166.615 276.869 166.839 277.675 166.839 278.72V284H164.791V278.928C164.791 277.733 164.343 277.136 163.447 277.136C163.244 277.136 163.047 277.168 162.855 277.232C162.673 277.285 162.508 277.371 162.359 277.488C162.22 277.595 162.108 277.733 162.023 277.904C161.937 278.064 161.895 278.256 161.895 278.48V284H159.847V278.928C159.847 277.733 159.399 277.136 158.503 277.136C158.311 277.136 158.119 277.168 157.927 277.232C157.745 277.285 157.58 277.371 157.431 277.488C157.292 277.595 157.175 277.733 157.079 277.904C156.993 278.064 156.951 278.256 156.951 278.48V284H154.903ZM178.071 282.608H177.991C177.842 283.088 177.559 283.472 177.143 283.76C176.727 284.048 176.242 284.192 175.687 284.192C174.631 284.192 173.82 283.813 173.255 283.056C172.7 282.299 172.423 281.216 172.423 279.808C172.423 278.411 172.7 277.339 173.255 276.592C173.82 275.835 174.631 275.456 175.687 275.456C176.242 275.456 176.727 275.6 177.143 275.888C177.559 276.165 177.842 276.544 177.991 277.024H178.071V272.16H180.119V284H178.071V282.608ZM176.343 282.496C176.834 282.496 177.244 282.379 177.575 282.144C177.906 281.909 178.071 281.573 178.071 281.136V278.48C178.071 278.075 177.906 277.749 177.575 277.504C177.244 277.259 176.834 277.136 176.343 277.136C175.81 277.136 175.378 277.317 175.047 277.68C174.727 278.032 174.567 278.507 174.567 279.104V280.544C174.567 281.141 174.727 281.616 175.047 281.968C175.378 282.32 175.81 282.496 176.343 282.496ZM185.793 284.192C185.196 284.192 184.657 284.091 184.177 283.888C183.708 283.685 183.302 283.392 182.961 283.008C182.63 282.624 182.374 282.165 182.193 281.632C182.012 281.088 181.921 280.48 181.921 279.808C181.921 279.136 182.012 278.533 182.193 278C182.374 277.467 182.63 277.013 182.961 276.64C183.302 276.256 183.708 275.963 184.177 275.76C184.657 275.557 185.196 275.456 185.793 275.456C186.39 275.456 186.929 275.557 187.409 275.76C187.889 275.963 188.294 276.256 188.625 276.64C188.966 277.013 189.228 277.467 189.409 278C189.59 278.533 189.681 279.136 189.681 279.808C189.681 280.48 189.59 281.088 189.409 281.632C189.228 282.165 188.966 282.624 188.625 283.008C188.294 283.392 187.889 283.685 187.409 283.888C186.929 284.091 186.39 284.192 185.793 284.192ZM185.793 282.544C186.337 282.544 186.764 282.379 187.073 282.048C187.382 281.717 187.537 281.232 187.537 280.592V279.04C187.537 278.411 187.382 277.931 187.073 277.6C186.764 277.269 186.337 277.104 185.793 277.104C185.26 277.104 184.838 277.269 184.529 277.6C184.22 277.931 184.065 278.411 184.065 279.04V280.592C184.065 281.232 184.22 281.717 184.529 282.048C184.838 282.379 185.26 282.544 185.793 282.544ZM193.545 284C192.841 284 192.323 283.824 191.993 283.472C191.662 283.12 191.497 282.624 191.497 281.984V272.16H193.545V282.368H194.649V284H193.545ZM199.512 284.192C198.914 284.192 198.376 284.091 197.896 283.888C197.426 283.685 197.021 283.392 196.68 283.008C196.349 282.624 196.093 282.165 195.912 281.632C195.73 281.088 195.64 280.48 195.64 279.808C195.64 279.136 195.73 278.533 195.912 278C196.093 277.467 196.349 277.013 196.68 276.64C197.021 276.256 197.426 275.963 197.896 275.76C198.376 275.557 198.914 275.456 199.512 275.456C200.109 275.456 200.648 275.557 201.128 275.76C201.608 275.963 202.013 276.256 202.344 276.64C202.685 277.013 202.946 277.467 203.128 278C203.309 278.533 203.4 279.136 203.4 279.808C203.4 280.48 203.309 281.088 203.128 281.632C202.946 282.165 202.685 282.624 202.344 283.008C202.013 283.392 201.608 283.685 201.128 283.888C200.648 284.091 200.109 284.192 199.512 284.192ZM199.512 282.544C200.056 282.544 200.482 282.379 200.792 282.048C201.101 281.717 201.256 281.232 201.256 280.592V279.04C201.256 278.411 201.101 277.931 200.792 277.6C200.482 277.269 200.056 277.104 199.512 277.104C198.978 277.104 198.557 277.269 198.248 277.6C197.938 277.931 197.784 278.411 197.784 279.04V280.592C197.784 281.232 197.938 281.717 198.248 282.048C198.557 282.379 198.978 282.544 199.512 282.544ZM205.215 284V275.648H207.263V277.376H207.343C207.397 277.152 207.477 276.939 207.583 276.736C207.701 276.523 207.85 276.336 208.031 276.176C208.213 276.016 208.426 275.888 208.671 275.792C208.927 275.696 209.221 275.648 209.551 275.648H209.999V277.584H209.359C208.666 277.584 208.143 277.685 207.791 277.888C207.439 278.091 207.263 278.421 207.263 278.88V284H205.215ZM218.014 284.192C217.214 284.192 216.542 284.059 215.998 283.792C215.454 283.515 214.974 283.136 214.558 282.656L215.806 281.44C216.115 281.792 216.451 282.069 216.814 282.272C217.187 282.475 217.614 282.576 218.094 282.576C218.584 282.576 218.936 282.491 219.15 282.32C219.374 282.149 219.486 281.915 219.486 281.616C219.486 281.371 219.406 281.179 219.246 281.04C219.096 280.891 218.835 280.789 218.462 280.736L217.63 280.624C216.723 280.507 216.03 280.251 215.55 279.856C215.08 279.451 214.846 278.864 214.846 278.096C214.846 277.691 214.92 277.328 215.07 277.008C215.219 276.677 215.432 276.4 215.71 276.176C215.987 275.941 216.318 275.765 216.702 275.648C217.096 275.52 217.534 275.456 218.014 275.456C218.419 275.456 218.776 275.488 219.086 275.552C219.406 275.605 219.694 275.691 219.95 275.808C220.206 275.915 220.44 276.053 220.654 276.224C220.867 276.384 221.075 276.565 221.278 276.768L220.078 277.968C219.832 277.712 219.539 277.499 219.198 277.328C218.856 277.157 218.483 277.072 218.078 277.072C217.63 277.072 217.304 277.152 217.102 277.312C216.91 277.472 216.814 277.68 216.814 277.936C216.814 278.213 216.894 278.427 217.054 278.576C217.224 278.715 217.507 278.816 217.902 278.88L218.75 278.992C220.552 279.248 221.454 280.069 221.454 281.456C221.454 281.861 221.368 282.235 221.198 282.576C221.038 282.907 220.808 283.195 220.51 283.44C220.211 283.675 219.848 283.861 219.422 284C219.006 284.128 218.536 284.192 218.014 284.192ZM224.286 274.432C223.859 274.432 223.55 274.336 223.358 274.144C223.177 273.952 223.086 273.707 223.086 273.408V273.088C223.086 272.789 223.177 272.544 223.358 272.352C223.55 272.16 223.859 272.064 224.286 272.064C224.702 272.064 225.006 272.16 225.198 272.352C225.39 272.544 225.486 272.789 225.486 273.088V273.408C225.486 273.707 225.39 273.952 225.198 274.144C225.006 274.336 224.702 274.432 224.286 274.432ZM223.262 275.648H225.31V284H223.262V275.648ZM230.292 284C229.588 284 229.049 283.819 228.676 283.456C228.313 283.083 228.132 282.555 228.132 281.872V277.28H226.9V275.648H227.54C227.849 275.648 228.057 275.579 228.164 275.44C228.281 275.291 228.34 275.072 228.34 274.784V273.36H230.18V275.648H231.892V277.28H230.18V282.368H231.764V284H230.292ZM243.594 284C243.146 284 242.788 283.872 242.522 283.616C242.266 283.349 242.106 282.997 242.042 282.56H241.946C241.807 283.104 241.524 283.515 241.098 283.792C240.671 284.059 240.143 284.192 239.514 284.192C238.66 284.192 238.004 283.968 237.546 283.52C237.087 283.072 236.858 282.475 236.858 281.728C236.858 280.864 237.167 280.224 237.786 279.808C238.404 279.381 239.284 279.168 240.426 279.168H241.85V278.56C241.85 278.091 241.727 277.728 241.482 277.472C241.236 277.216 240.842 277.088 240.298 277.088C239.818 277.088 239.428 277.195 239.13 277.408C238.842 277.611 238.596 277.856 238.394 278.144L237.178 277.056C237.487 276.576 237.898 276.192 238.41 275.904C238.922 275.605 239.599 275.456 240.442 275.456C241.572 275.456 242.431 275.712 243.018 276.224C243.604 276.736 243.898 277.472 243.898 278.432V282.368H244.73V284H243.594ZM240.202 282.704C240.66 282.704 241.05 282.603 241.37 282.4C241.69 282.197 241.85 281.899 241.85 281.504V280.4H240.538C239.471 280.4 238.938 280.741 238.938 281.424V281.696C238.938 282.037 239.044 282.293 239.258 282.464C239.482 282.624 239.796 282.704 240.202 282.704ZM246.387 284V275.648H248.435V277.04H248.515C248.675 276.603 248.931 276.229 249.283 275.92C249.635 275.611 250.126 275.456 250.755 275.456C251.331 275.456 251.827 275.595 252.243 275.872C252.659 276.149 252.968 276.571 253.171 277.136H253.203C253.352 276.667 253.646 276.272 254.083 275.952C254.531 275.621 255.091 275.456 255.763 275.456C256.584 275.456 257.214 275.739 257.651 276.304C258.099 276.869 258.323 277.675 258.323 278.72V284H256.275V278.928C256.275 277.733 255.827 277.136 254.931 277.136C254.728 277.136 254.531 277.168 254.339 277.232C254.158 277.285 253.992 277.371 253.843 277.488C253.704 277.595 253.592 277.733 253.507 277.904C253.422 278.064 253.379 278.256 253.379 278.48V284H251.331V278.928C251.331 277.733 250.883 277.136 249.987 277.136C249.795 277.136 249.603 277.168 249.411 277.232C249.23 277.285 249.064 277.371 248.915 277.488C248.776 277.595 248.659 277.733 248.563 277.904C248.478 278.064 248.435 278.256 248.435 278.48V284H246.387ZM263.966 284.192C263.348 284.192 262.793 284.091 262.302 283.888C261.822 283.675 261.412 283.381 261.07 283.008C260.74 282.624 260.484 282.165 260.302 281.632C260.121 281.088 260.03 280.48 260.03 279.808C260.03 279.147 260.116 278.549 260.286 278.016C260.468 277.483 260.724 277.029 261.054 276.656C261.385 276.272 261.79 275.979 262.27 275.776C262.75 275.563 263.294 275.456 263.902 275.456C264.553 275.456 265.118 275.568 265.598 275.792C266.078 276.016 266.473 276.32 266.782 276.704C267.092 277.088 267.321 277.536 267.47 278.048C267.63 278.549 267.71 279.088 267.71 279.664V280.336H262.158V280.544C262.158 281.152 262.329 281.643 262.67 282.016C263.012 282.379 263.518 282.56 264.19 282.56C264.702 282.56 265.118 282.453 265.438 282.24C265.769 282.027 266.062 281.755 266.318 281.424L267.422 282.656C267.081 283.136 266.612 283.515 266.014 283.792C265.428 284.059 264.745 284.192 263.966 284.192ZM263.934 276.992C263.39 276.992 262.958 277.173 262.638 277.536C262.318 277.899 262.158 278.368 262.158 278.944V279.072H265.582V278.928C265.582 278.352 265.438 277.888 265.15 277.536C264.873 277.173 264.468 276.992 263.934 276.992ZM272.12 284C271.416 284 270.877 283.819 270.504 283.456C270.141 283.083 269.96 282.555 269.96 281.872V277.28H268.728V275.648H269.368C269.677 275.648 269.885 275.579 269.992 275.44C270.109 275.291 270.168 275.072 270.168 274.784V273.36H272.008V275.648H273.72V277.28H272.008V282.368H273.592V284H272.12Z" fill="#1A1A1A"/>
<defs>
<clipPath id="clip0_14279_20818">
<path d="M16 102C16 97.5817 19.5817 94 24 94H40V150H24C19.5817 150 16 146.418 16 142V102Z" fill="white"/>
</clipPath>
<clipPath id="clip1_14279_20818">
<path d="M16 258C16 253.582 19.5817 250 24 250H40V306H24C19.5817 306 16 302.418 16 298V258Z" fill="white"/>
</clipPath>
</defs>
</svg>
