<svg id="Layer_1" data-name="Layer 1" xmlns="http://www.w3.org/2000/svg" viewBox="0 0 123 92"><defs><style>.cls-1{fill:#ecedf4;}.cls-1,.cls-4{fill-rule:evenodd;}.cls-2{fill:#9195be;}.cls-3{fill:#474e95;}.cls-4{fill:#fff;}</style></defs><title>Card-ill-talebobler</title><g id="Faq"><g id="Group-15"><path id="Rectangle-2" class="cls-1" d="M23,45.65,9.81,60V45.65H8a8,8,0,0,1-8-8V8A8,8,0,0,1,8,0H77a8,8,0,0,1,8,8V37.65a8,8,0,0,1-8,8Z"/><g id="Group-14"><rect id="Rectangle-15-Copy-10" class="cls-2" x="39.23" y="18.26" width="38.58" height="2.61"/><rect class="cls-2" x="39.23" y="24.78" width="22.23" height="2.61"/></g><g id="Group-3"><path class="cls-3" d="M19.62,33.59A10.76,10.76,0,1,1,30.4,22.83,10.78,10.78,0,0,1,19.62,33.59Zm0-2a8.81,8.81,0,1,0-8.83-8.8A8.81,8.81,0,0,0,19.62,31.63Z"/><path class="cls-3" d="M18.65,24.31v-1.6a2.58,2.58,0,0,0,1.24-.28.87.87,0,0,0,.42-.82v-.15a.76.76,0,0,0-.24-.61.88.88,0,0,0-.61-.2,1,1,0,0,0-.68.25,1.31,1.31,0,0,0-.36.63L17.15,21a2.53,2.53,0,0,1,.27-.61,1.93,1.93,0,0,1,.46-.53,2.31,2.31,0,0,1,.69-.38,2.73,2.73,0,0,1,.94-.15,2.86,2.86,0,0,1,1,.16,2.29,2.29,0,0,1,.78.44,2,2,0,0,1,.5.67,2.3,2.3,0,0,1,.17.88,2,2,0,0,1-.15.79,1.89,1.89,0,0,1-.4.62,1.94,1.94,0,0,1-.58.44,2.87,2.87,0,0,1-.7.23v.75Zm.76,2.55a.92.92,0,0,1-.72-.23.79.79,0,0,1-.21-.56v-.25a.79.79,0,0,1,.21-.56.92.92,0,0,1,.72-.23.91.91,0,0,1,.71.23.76.76,0,0,1,.22.56v.25a.76.76,0,0,1-.22.56A.91.91,0,0,1,19.41,26.86Z"/></g></g><g id="Group-15-Copy"><path class="cls-4" d="M100,77.65,113.19,92V77.65H115a8,8,0,0,0,8-8V40a8,8,0,0,0-8-8H46a8,8,0,0,0-8,8V69.65a8,8,0,0,0,8,8Z"/><rect class="cls-2" x="77.23" y="50.26" width="38.58" height="2.61"/><rect class="cls-2" x="77.23" y="56.78" width="22.23" height="2.61"/><path class="cls-3" d="M57.62,65.59A10.76,10.76,0,1,1,68.4,54.83,10.78,10.78,0,0,1,57.62,65.59Zm0-2a8.81,8.81,0,1,0-8.83-8.8A8.81,8.81,0,0,0,57.62,63.63Z"/><path class="cls-3" d="M57.3,56.44l-.49-3v-2h1.63v2l-.48,3Zm.32,2.42a.92.92,0,0,1-.72-.23.8.8,0,0,1-.22-.56v-.25a.8.8,0,0,1,.22-.56.92.92,0,0,1,.72-.23.91.91,0,0,1,.71.23.8.8,0,0,1,.22.56v.25a.8.8,0,0,1-.22.56A.91.91,0,0,1,57.62,58.86Z"/></g></g></svg>