<svg width="267" height="150" viewBox="0 0 267 150" fill="none" xmlns="http://www.w3.org/2000/svg">
<g clip-path="url(#clip0_10651_23322)">
<rect width="267" height="150" fill="#EEEEEE"/>
<line x1="0.244898" y1="-0.435919" x2="267.245" y2="149.564" stroke="#BFBFBF"/>
<line x1="-0.244898" y1="149.564" x2="266.755" y2="-0.435921" stroke="#BFBFBF"/>
<rect x="116" y="58" width="34" height="34" rx="8" fill="#EEEEEE"/>
<rect x="116" y="58" width="34" height="34" rx="8" stroke="#8E8E8E" stroke-width="4"/>
<path d="M145 72.6V87H121L133 75L137.8 79.8L145 72.6ZM128.2 66.6C128.2 67.5548 127.821 68.4705 127.146 69.1456C126.47 69.8207 125.555 70.2 124.6 70.2C123.645 70.2 122.73 69.8207 122.054 69.1456C121.379 68.4705 121 67.5548 121 66.6C121 65.6452 121.379 64.7295 122.054 64.0544C122.73 63.3793 123.645 63 124.6 63C125.555 63 126.47 63.3793 127.146 64.0544C127.821 64.7295 128.2 65.6452 128.2 66.6Z" fill="#8E8E8E"/>
</g>
<defs>
<clipPath id="clip0_10651_23322">
<rect width="267" height="150" fill="white"/>
</clipPath>
</defs>
</svg>
