<svg id="Layer_1" data-name="Layer 1" xmlns="http://www.w3.org/2000/svg" viewBox="0 0 183.28 183.48"><defs><style>.cls-1{fill:#fbe7f2;}.cls-2{fill:#ce2283;}.cls-3{isolation:isolate;font-size:51px;fill:#1a1a1a;font-family:IBMPlexSans, IBM Plex Sans;}</style></defs><title>Card-ill-22pro</title><path class="cls-1" d="M91.82,183.48a92.14,92.14,0,0,1-22.28-2.75A91.75,91.75,0,0,1,44.41,13.05C87.88-13,144.34,1.13,170.28,44.47a92,92,0,0,1-31.41,125.85h0A90.92,90.92,0,0,1,91.82,183.48ZM91.55,10A81.72,81.72,0,0,0,72,171a81,81,0,0,0,61.75-9.28h0A81.7,81.7,0,0,0,91.55,10Z"/><path class="cls-2" d="M165.1,55.93a81,81,0,0,0-48.54-42l3-9.52a90.94,90.94,0,0,1,54.47,47.11Z"/><text class="cls-3" transform="translate(38.25 107.04)">22%</text></svg>