<svg width="786" height="375" viewBox="0 0 786 375" fill="none" xmlns="http://www.w3.org/2000/svg">
<g clip-path="url(#clip0_14796_22546)">
<rect width="786" height="375" fill="#F5F5F5"/>
<g clip-path="url(#clip1_14796_22546)">
<path d="M388.667 382.186C296.167 374.167 206.1 292.634 185.667 196.737C165.399 101.263 214.764 -8.57525 288.037 -45.6128C361.605 -82.5206 459.636 -47.087 527.731 15.6217C595.532 78.2006 633.821 167.89 605.221 245.711C576.621 323.532 481.592 390.04 388.667 382.186Z" fill="white"/>
<path d="M260.996 230.632C260.996 226.174 264.609 222.575 269.067 222.63C288.231 222.866 335.998 223.434 351.122 223.434C367.441 223.434 471.854 222.772 501.741 222.581C506.179 222.552 509.723 226.143 509.723 230.581V272.953C509.723 277.425 506.074 281.031 501.602 280.966C486.648 280.749 452.97 280.328 416.909 280.328C376.35 280.328 294.798 280.861 269.007 281.036C264.566 281.067 260.996 277.475 260.996 273.035V230.632Z" fill="#F5F5F5" stroke="#707070" stroke-width="1.8" stroke-linecap="round" stroke-linejoin="round" stroke-dasharray="4 6"/>
<path d="M261.116 212.899C261.183 213.674 261.543 214.321 262.31 214.45C263.732 214.688 266.998 214.822 274.476 214.065C284.358 213.065 316.769 213.619 330.723 213.916C334.508 213.996 337.606 211.379 337.719 207.595C337.848 203.262 337.809 196.309 337.208 185.48C336.208 167.463 336.764 124.775 337.06 106.716C337.134 102.179 333.454 98.4834 328.917 98.5455C315.214 98.7334 288.281 99.0039 277.483 98.4186V98.4186C271.683 98.1042 262.42 107.769 262.297 113.575C262.166 119.762 261.845 128.348 261.224 140.236C258.971 183.362 260.656 207.502 261.116 212.899Z" fill="#F5F5F5" stroke="#707070" stroke-width="1.8" stroke-linecap="round" stroke-linejoin="round" stroke-dasharray="4 6"/>
<path d="M347.275 205.894C347.348 210.266 350.946 213.702 355.318 213.64C368.474 213.456 393.987 213.183 398.912 213.762C402.715 214.208 410.055 214.148 415.688 214.012C419.94 213.909 423.295 210.466 423.328 206.213C423.515 181.869 424.025 106.329 423.267 94.4892C422.794 87.1114 422.814 79.6888 422.942 74.2737C423.049 69.7561 419.534 65.9138 415.015 65.8347C407.115 65.6963 395.006 65.5987 385.359 66.0242C376.061 66.4344 364.474 66.3586 356.575 66.2286C351.741 66.1491 347.856 70.2784 348.206 75.1002C349.191 88.6361 350.588 115.18 348.778 139.94C346.912 165.448 347.056 192.799 347.275 205.894Z" fill="#F5F5F5" stroke="#707070" stroke-width="1.8" stroke-linecap="round" stroke-linejoin="round" stroke-dasharray="4 6"/>
<path d="M433.557 206.239C433.724 210.473 437.218 213.764 441.455 213.764H501.621C506.079 213.764 509.677 210.125 509.621 205.667C509.346 183.636 508.608 123.464 508.608 111.642C508.608 101.853 509.114 84.5522 509.444 74.3024C509.59 69.774 505.962 66.0261 501.431 66.0261H442.036C437.568 66.0261 433.964 69.6509 434.024 74.1182C434.295 94.1762 434.873 145.471 433.909 157.951C432.61 174.755 433.129 195.375 433.557 206.239Z" fill="#F5F5F5" stroke="#707070" stroke-width="1.8" stroke-linecap="round" stroke-linejoin="round" stroke-dasharray="4 6"/>
<path d="M490.253 90.6768C504.36 90.385 514.824 90.3808 521.816 90.4512L524.601 90.4854C528.428 90.5412 531.435 93.6386 531.484 97.4404L531.48 97.8105C531.12 107.461 530.571 123.421 530.571 131.205C530.571 137.634 530.946 155.341 531.279 169.835L531.584 182.722C531.683 186.818 528.37 190.16 524.272 190.103L516.673 190.002C497.569 189.766 466.396 189.516 452.839 190.157L451.406 190.232C438.631 190.974 405.166 190.696 385.444 190.449L377.934 190.349C374.217 190.295 371.198 187.423 370.929 183.758L370.911 183.401C370.633 171.846 370.261 150.393 371.035 141.37L371.113 140.536C371.877 133.16 371.695 115.458 371.447 103.084L371.34 98.1533C371.246 94.1917 374.32 90.9147 378.224 90.7344L378.604 90.7266C401.005 90.8515 462.781 91.1424 487.936 90.7197L490.253 90.6768Z" fill="white" stroke="black" stroke-width="1.6"/>
<path d="M403.68 110.951C401.588 111.125 396.178 111.057 393.095 110.999C391.868 110.976 390.859 111.963 390.859 113.19C390.859 114.312 391.709 115.245 392.831 115.27C393.802 115.291 395.052 115.28 396.396 115.166C398.592 114.98 405.614 115.066 409.219 115.126C410.419 115.145 411.4 114.18 411.4 112.98C411.4 111.843 410.511 110.905 409.374 110.874C407.733 110.829 405.418 110.806 403.68 110.951Z" fill="#8E8E8E"/>
<path d="M398.578 149.254C400.67 149.08 406.08 149.149 409.163 149.206C410.39 149.229 411.398 148.242 411.398 147.015C411.398 145.893 410.548 144.96 409.427 144.935C408.456 144.914 407.205 144.925 405.862 145.039C403.666 145.226 396.643 145.139 393.038 145.079C391.839 145.06 390.858 146.025 390.858 147.225C390.858 148.363 391.747 149.3 392.884 149.331C394.525 149.376 396.84 149.399 398.578 149.254Z" fill="#8E8E8E"/>
<path d="M511.022 122.541C511.022 121.377 510.102 120.434 508.968 120.434C508.968 120.434 480.811 119.199 451.454 120.434C422.098 121.669 393.941 120.434 393.941 120.434C392.806 120.434 391.887 121.377 391.887 122.541C391.887 122.541 392.112 124.344 392.112 127.774C392.112 131.205 391.887 133.078 391.887 133.078C391.887 134.242 392.806 135.185 393.941 135.185H451.454H508.968C510.102 135.185 511.022 134.242 511.022 133.078V122.541Z" fill="white" stroke="#DCDCDC" stroke-width="1.8"/>
<path d="M467.887 156.26C467.887 155.096 466.967 154.152 465.833 154.152C465.833 154.152 451.245 154.152 440.961 154.359C430.677 154.566 393.941 154.152 393.941 154.152C392.806 154.152 391.887 155.096 391.887 156.26V166.797C391.887 167.96 392.806 168.904 393.941 168.904C393.941 168.904 401.539 168.509 418.25 168.509C434.962 168.509 465.833 168.904 465.833 168.904C466.967 168.904 467.887 167.96 467.887 166.797C467.887 166.797 468.385 162.935 468.385 161.22C468.385 159.505 467.887 156.26 467.887 156.26Z" fill="white" stroke="#DCDCDC" stroke-width="1.8"/>
<path d="M298.67 65.2744C310.496 64.8806 320.304 64.8903 327.061 64.9932L329.767 65.042C333.401 65.1185 336.306 67.965 336.559 71.5732L336.575 71.9238C336.825 83.2952 337.265 104.479 337.265 112.157C337.265 115.216 337.195 117.525 337.096 119.261L337.051 119.97C336.898 122.229 335.235 123.716 332.873 123.906L332.643 123.921C324.812 124.266 308.077 124.885 292.358 124.698L289.231 124.649C281.631 124.503 275.827 124.347 271.479 124.204L267.604 124.067C263.946 123.927 261.106 121.005 260.973 117.368L260.968 117.014C261.093 106.28 261.307 87.086 261.307 80.4277C261.307 78.4978 261.289 76.6891 261.261 75.0332L261.229 73.4297C261.135 69.2311 264.491 65.6901 268.631 65.542L269.034 65.5381C275.403 65.6505 284.843 65.6878 296.343 65.3477L298.67 65.2744Z" fill="white" stroke="black" stroke-width="1.6"/>
<path d="M291.339 96.1472C284.973 96.3875 281.538 96.3875 279.694 96.3274C278.716 96.2956 277.598 97.2765 277.598 98.2544C277.598 98.9863 278.175 99.5806 278.907 99.5842C284.029 99.6095 302.653 99.6921 307.346 99.5774C311.468 99.4767 318.795 99.5282 322.132 99.5594C323.093 99.5683 323.875 98.7922 323.875 97.8312C323.875 96.8946 323.139 96.1298 322.203 96.1108C317.166 96.0085 301.845 95.7506 291.339 96.1472Z" fill="#DCDCDC"/>
<path d="M310.983 103.006H279.132C278.284 103.006 277.596 103.694 277.596 104.542C277.596 105.518 278.233 106.256 279.209 106.244C280.744 106.226 283.589 106.263 288.792 106.436C298.945 106.773 307.562 106.595 311.061 106.492C311.999 106.465 312.733 105.695 312.733 104.756C312.733 103.79 311.949 103.006 310.983 103.006Z" fill="#DCDCDC"/>
<path d="M319.212 87.3439V83.0229C319.212 82.1837 318.674 81.4764 317.838 81.3958C316.442 81.2609 313.805 81.1916 309.165 81.6258C302.587 82.2413 285.24 81.845 279.271 81.6843C278.142 81.654 277.219 82.5603 277.219 83.6893V87.3439C277.219 88.4485 278.114 89.3439 279.219 89.3439H317.212C318.316 89.3439 319.212 88.4485 319.212 87.3439Z" fill="#8E8E8E"/>
<path d="M302.501 224.222C300.444 224.908 297.644 235.37 296.502 240.515L295.645 244.835L299.93 249.123L302.501 247.805C306.5 245.375 315.013 238.629 317.069 231.082C319.64 221.649 312.356 220.791 310.213 221.649C308.499 222.335 305.5 228.224 304.214 231.082C304.5 228.51 304.557 223.536 302.501 224.222Z" fill="white" stroke="black" stroke-width="1.8" stroke-linecap="round"/>
<path d="M248.082 186.82C248.931 183.08 248.51 177.244 250.224 172.241C255.366 156.805 244.473 151.317 239.331 149.601C234.189 147.886 225.619 147.458 219.191 157.748C212.764 168.039 218.087 175.703 213.802 183.85C206.089 189.853 198.88 200.97 196.481 205.772C193.481 211.775 178.484 247.364 187.482 292.815C196.481 338.266 172.913 388.862 169.057 397.009C165.2 405.156 178.912 404.727 183.197 397.009C187.482 389.291 221.334 329.261 222.619 315.111C223.905 300.962 233.332 335.693 230.761 352.844C228.19 369.996 226.476 379.429 226.476 397.009C226.476 414.589 235.903 398.724 237.188 394.007C238.474 389.291 262.47 347.699 257.756 315.111C253.985 289.041 249.043 277.95 247.044 275.663C247.044 275.663 243.368 269.606 242.94 262.317C242.511 255.028 244.225 248.596 244.225 248.596C248.082 252.169 258.023 263.003 270.363 262.317C285.789 261.459 302.501 252.026 302.501 249.025C302.501 246.023 296.93 240.878 295.645 240.878C294.359 240.878 284.504 247.738 273.363 246.452C262.222 245.166 254.081 225.87 252.367 218.152C250.995 211.978 240.083 202.685 236.941 199.255C237.083 197.682 245.939 196.253 248.082 186.82Z" fill="white"/>
<path d="M185.116 281.455C184.195 277.746 185.283 282.602 213.127 285.46C227.315 286.916 236.694 281.164 245.504 275.631C247.802 281.654 253.153 298.042 255.575 314.782C260.288 347.37 236.292 388.962 235.007 393.678C233.721 398.395 224.294 414.26 224.294 396.68C224.294 379.1 226.008 369.666 228.579 352.515C231.15 335.364 221.723 300.632 220.438 314.782C219.152 328.932 185.301 388.962 181.016 396.68C176.731 404.398 163.019 404.826 166.875 396.68C170.732 388.533 199.667 340.063 185.116 281.455Z" fill="#8E8E8E"/>
<path d="M236.941 198.924C233.37 200.353 228.481 202.467 221.762 200.296C214.945 198.092 211.907 195.579 207.193 190.434" stroke="black" stroke-width="1.8" stroke-linecap="round"/>
<path d="M208.397 188.993L209.001 189.66L209.067 189.601L209.12 189.529L208.397 188.993ZM196.481 205.468L197.286 205.87L197.286 205.87L196.481 205.468ZM187.482 292.511L186.599 292.685L186.599 292.685L187.482 292.511ZM257.756 314.807L256.866 314.936L256.866 314.936L257.756 314.807ZM244.226 249.022L244.838 248.362C244.568 248.111 244.172 248.051 243.84 248.209C243.507 248.367 243.304 248.711 243.328 249.078L244.226 249.022ZM250.043 172.451L250.894 172.743L250.897 172.735L250.043 172.451ZM248.082 187.246L248.96 187.445L248.96 187.445L248.082 187.246ZM236.941 199.68L236.045 199.599L236.009 199.995L236.278 200.288L236.941 199.68ZM252.367 218.578L251.582 219.018L251.582 219.018L252.367 218.578ZM270.364 262.743L270.314 261.844L270.314 261.844L270.364 262.743ZM208.397 188.993L207.793 188.326C200.018 195.366 198.078 200.258 195.676 205.065L196.481 205.468L197.286 205.87C199.683 201.072 201.498 196.454 209.001 189.66L208.397 188.993ZM196.481 205.468L195.676 205.065C192.624 211.174 177.549 246.971 186.599 292.685L187.482 292.511L188.365 292.336C179.419 247.148 194.339 211.768 197.286 205.87L196.481 205.468ZM187.482 292.511L186.599 292.685C191.06 315.217 187.454 339.074 182.222 358.361C176.993 377.635 170.163 392.266 168.243 396.32L169.057 396.705L169.87 397.09C171.808 392.997 178.689 378.256 183.959 358.832C189.225 339.422 192.903 315.255 188.365 292.336L187.482 292.511ZM169.057 396.705L168.243 396.32C167.199 398.527 167.224 400.44 168.342 401.799C169.404 403.09 171.225 403.583 173.088 403.554C176.834 403.496 181.66 401.329 183.984 397.142L183.197 396.705L182.411 396.268C180.45 399.799 176.277 401.705 173.06 401.754C171.442 401.779 170.29 401.334 169.732 400.655C169.229 400.044 168.987 398.956 169.87 397.09L169.057 396.705ZM183.197 396.705L183.984 397.142C186.124 393.287 195.666 376.337 204.833 358.581C209.416 349.704 213.911 340.614 217.343 332.852C219.059 328.971 220.514 325.412 221.581 322.37C222.643 319.346 223.344 316.774 223.516 314.889L222.619 314.807L221.723 314.726C221.573 316.378 220.935 318.777 219.883 321.774C218.837 324.754 217.402 328.266 215.697 332.124C212.286 339.838 207.81 348.891 203.233 357.755C194.082 375.481 184.556 392.404 182.411 396.268L183.197 396.705ZM222.619 314.807L223.516 314.889C223.594 314.031 223.7 313.394 223.82 312.944C223.88 312.72 223.94 312.558 223.993 312.447C224.047 312.331 224.081 312.298 224.076 312.303C224.064 312.315 223.996 312.373 223.874 312.391C223.753 312.409 223.674 312.374 223.661 312.368C223.655 312.365 223.693 312.384 223.771 312.465C223.846 312.544 223.939 312.66 224.047 312.821C224.493 313.489 225.023 314.67 225.588 316.3C226.146 317.912 226.717 319.903 227.262 322.148C229.448 331.167 231.131 344.003 229.871 352.407L230.761 352.54L231.651 352.674C232.962 343.926 231.216 330.821 229.011 321.724C228.457 319.44 227.87 317.391 227.289 315.711C226.713 314.05 226.122 312.689 225.544 311.822C225.266 311.406 224.916 310.987 224.476 310.763C224.236 310.641 223.938 310.562 223.609 310.611C223.278 310.66 223.011 310.825 222.811 311.022C222.446 311.382 222.23 311.922 222.082 312.478C221.924 313.065 221.806 313.815 221.723 314.726L222.619 314.807ZM230.761 352.54L229.871 352.407C227.301 369.547 225.576 379.046 225.576 396.705H226.476H227.376C227.376 379.203 229.078 369.836 231.651 352.674L230.761 352.54ZM226.476 396.705H225.576C225.576 398.935 225.725 400.678 226.003 402.002C226.276 403.302 226.696 404.31 227.33 404.949C228.03 405.655 228.902 405.823 229.759 405.594C230.545 405.383 231.294 404.851 231.965 404.222C233.322 402.951 234.674 400.984 235.755 399.078C236.837 397.172 237.707 395.222 238.057 393.94L237.188 393.703L236.32 393.467C236.027 394.543 235.237 396.345 234.189 398.19C233.142 400.036 231.896 401.821 230.735 402.908C230.147 403.459 229.658 403.757 229.293 403.855C229.001 403.933 228.812 403.887 228.608 403.682C228.338 403.41 228.012 402.81 227.764 401.632C227.522 400.476 227.376 398.869 227.376 396.705H226.476ZM237.188 393.703L238.057 393.94C238.192 393.442 238.666 392.36 239.45 390.676C240.203 389.061 241.257 386.858 242.423 384.348C244.785 379.266 247.769 372.582 250.566 365.019C256.149 349.925 261.037 331.204 258.647 314.678L257.756 314.807L256.866 314.936C259.189 330.998 254.436 349.367 248.878 364.395C246.104 371.893 243.143 378.528 240.791 383.589C239.601 386.15 238.606 388.226 237.819 389.915C237.063 391.536 236.506 392.785 236.32 393.467L237.188 393.703ZM257.756 314.807L258.647 314.678C256.755 301.596 254.319 291.673 252.13 283.57C249.934 275.439 248.019 269.24 247.12 263.48L246.231 263.618L245.341 263.757C246.261 269.646 248.223 276.006 250.393 284.04C252.57 292.101 254.987 301.949 256.866 314.936L257.756 314.807ZM246.231 263.618L247.12 263.48C246.211 257.661 245.712 254.022 245.439 251.84C245.303 250.75 245.224 250.025 245.179 249.575C245.156 249.35 245.142 249.194 245.134 249.096C245.13 249.047 245.128 249.013 245.126 248.991C245.125 248.981 245.125 248.973 245.124 248.969C245.124 248.967 245.124 248.965 245.124 248.965C245.124 248.964 245.124 248.964 245.124 248.964C245.124 248.964 245.124 248.964 245.124 248.965C245.124 248.965 245.124 248.965 245.124 248.965C245.124 248.965 245.124 248.965 244.226 249.022C243.328 249.078 243.328 249.079 243.328 249.079C243.328 249.079 243.328 249.079 243.328 249.079C243.328 249.079 243.328 249.08 243.328 249.08C243.328 249.081 243.328 249.082 243.328 249.083C243.328 249.085 243.328 249.088 243.329 249.092C243.329 249.1 243.33 249.11 243.331 249.124C243.333 249.151 243.336 249.192 243.341 249.246C243.35 249.355 243.364 249.52 243.388 249.754C243.434 250.221 243.515 250.961 243.653 252.063C243.928 254.268 244.431 257.927 245.341 263.757L246.231 263.618ZM250.043 172.451L249.191 172.159C248.293 174.782 248.011 177.649 247.84 180.263C247.666 182.938 247.609 185.268 247.205 187.046L248.082 187.246L248.96 187.445C249.406 185.483 249.471 182.918 249.636 180.38C249.806 177.782 250.079 175.122 250.894 172.743L250.043 172.451ZM248.082 187.246L247.205 187.046C246.199 191.476 243.63 194.021 241.249 195.671C240.043 196.508 238.911 197.098 237.996 197.618C237.557 197.868 237.133 198.121 236.811 198.379C236.529 198.604 236.099 199.005 236.045 199.599L236.941 199.68L237.838 199.762C237.819 199.963 237.697 199.975 237.935 199.784C238.133 199.626 238.442 199.436 238.886 199.183C239.739 198.698 240.982 198.047 242.275 197.15C244.893 195.335 247.824 192.448 248.96 187.445L248.082 187.246ZM236.941 199.68L236.278 200.288C239.51 203.816 245.877 208.848 251.582 219.018L252.367 218.578L253.152 218.138C247.311 207.725 240.658 202.405 237.605 199.072L236.941 199.68ZM252.367 218.578L251.582 219.018C252.523 220.695 253.599 223.19 254.891 226.094C256.171 228.971 257.644 232.205 259.352 235.269C261.057 238.329 263.019 241.262 265.292 243.521C267.568 245.782 270.208 247.419 273.261 247.772L273.364 246.878L273.467 245.984C270.949 245.693 268.663 244.333 266.561 242.244C264.458 240.154 262.592 237.385 260.924 234.393C259.259 231.405 257.814 228.236 256.535 225.362C255.268 222.514 254.146 219.909 253.152 218.138L252.367 218.578ZM273.364 246.878L273.261 247.772C279.036 248.439 284.442 246.992 288.525 245.412C290.571 244.621 292.3 243.79 293.583 243.165C294.231 242.849 294.747 242.595 295.143 242.418C295.341 242.329 295.49 242.269 295.598 242.232C295.73 242.186 295.724 242.204 295.646 242.204V241.304V240.404C295.407 240.404 295.173 240.474 295.014 240.529C294.831 240.592 294.626 240.677 294.409 240.774C293.977 240.967 293.424 241.239 292.794 241.546C291.52 242.168 289.847 242.971 287.876 243.734C283.924 245.263 278.833 246.603 273.467 245.984L273.364 246.878ZM295.646 241.304V242.204C295.57 242.204 295.629 242.188 295.886 242.325C296.107 242.442 296.389 242.626 296.718 242.874C297.373 243.367 298.152 244.068 298.898 244.866C299.646 245.665 300.339 246.539 300.839 247.374C301.354 248.232 301.602 248.946 301.602 249.451H302.502H303.402C303.402 248.455 302.953 247.399 302.383 246.449C301.799 245.474 301.019 244.499 300.213 243.637C299.406 242.774 298.551 242.001 297.801 241.436C297.427 241.154 297.063 240.912 296.732 240.736C296.439 240.58 296.043 240.404 295.646 240.404V241.304ZM302.502 249.451H301.602C301.602 249.436 301.604 249.499 301.518 249.658C301.435 249.811 301.295 250.009 301.081 250.25C300.653 250.731 299.995 251.306 299.119 251.946C297.371 253.222 294.854 254.681 291.838 256.085C285.801 258.893 277.88 261.424 270.314 261.844L270.364 262.743L270.414 263.641C278.274 263.204 286.422 260.589 292.597 257.717C295.687 256.279 298.312 254.764 300.18 253.4C301.111 252.72 301.88 252.06 302.426 251.447C302.699 251.14 302.933 250.827 303.103 250.512C303.269 250.203 303.402 249.84 303.402 249.451H302.502ZM270.364 262.743L270.314 261.844C264.423 262.172 259.05 259.751 254.62 256.735C250.183 253.716 246.811 250.19 244.838 248.362L244.226 249.022L243.614 249.682C245.497 251.426 249.024 255.104 253.607 258.224C258.197 261.347 263.965 264 270.414 263.641L270.364 262.743ZM208.397 188.993L209.12 189.529C214.633 182.092 215.767 176.616 216.326 171.719C216.881 166.858 216.873 162.854 219.954 157.92L219.191 157.444L218.428 156.967C215.082 162.324 215.074 166.814 214.537 171.515C214.005 176.18 212.955 181.334 207.674 188.457L208.397 188.993ZM219.191 157.444L219.954 157.92C223.061 152.946 226.632 150.636 229.976 149.737C233.345 148.832 236.586 149.33 239.046 150.15L239.33 149.297L239.615 148.443C236.933 147.548 233.318 146.975 229.509 147.999C225.676 149.029 221.748 151.651 218.428 156.967L219.191 157.444ZM239.33 149.297L239.046 150.15C241.524 150.977 245.293 152.825 247.818 156.261C250.303 159.643 251.679 164.692 249.189 172.167L250.043 172.451L250.897 172.735C253.549 164.774 252.14 159.103 249.268 155.196C246.437 151.343 242.278 149.331 239.615 148.443L239.33 149.297Z" fill="black"/>
<path d="M246.364 167.234C254.226 170.483 258.806 164.71 259.111 161.301C259.476 147.385 249.592 145.714 241.951 148.203C233.88 135.701 219.724 144.248 216.13 147.182C213.268 149.519 213.434 155.332 213.49 157.296L213.491 157.322C212.477 157.345 207.67 157.322 204.033 164.603C199.783 173.107 203.6 185.67 211.308 189.72C217.715 193.087 227.007 192.016 230.589 187.536C233.499 183.896 233.499 178.918 231.68 176.252C232.178 176.899 233.538 178.369 238.592 178.072C244.776 177.708 247.168 169.703 246.364 167.234Z" fill="#DCDCDC"/>
<path d="M466.304 140.47C468.361 141.156 471.16 151.618 472.303 156.764L471.332 163.796C471.332 163.796 468.332 165.083 466.304 164.053C464.275 163.023 453.792 154.877 451.735 147.33C449.164 137.897 456.448 137.04 458.591 137.897C460.305 138.583 463.304 144.472 464.59 147.33C464.304 144.758 464.247 139.784 466.304 140.47Z" fill="white" stroke="black" stroke-width="1.8" stroke-linecap="round"/>
<path d="M555.073 217.395C548.404 204.049 556.603 209.677 548.89 203.674L517.18 212.678C506.896 200.53 485.9 175.632 484.186 173.23C482.043 170.229 475.616 158.652 474.331 157.366C473.045 156.079 469.189 155.65 467.046 160.367C464.904 165.084 479.044 201.959 488.9 217.395C496.784 229.744 504.183 258.272 506.897 270.993C508.183 280.426 508.107 295.005 509.468 307.868C513.325 344.315 513.325 400.914 514.61 405.631C515.896 410.347 521.223 425.727 525.323 408.632C530.465 387.193 528.751 388.908 532.607 363.61C535.789 342.736 547.54 312.861 550.603 326.735C558.745 363.61 553.603 403.487 557.888 411.205C562.173 418.923 565.138 418.707 567.744 403.058C573.315 369.613 580.196 361.041 581.64 314.729C583.488 255.503 558.073 223.398 555.073 217.395Z" fill="#DCDCDC"/>
<path d="M567.746 403.057C573.316 369.612 585.741 355.462 584.456 298.434C578.028 304.437 563.031 315.156 509.469 307.867C512.468 335.738 513.326 400.913 514.612 405.629C515.897 410.346 521.224 425.725 525.324 408.631C530.466 387.192 528.752 388.907 532.609 363.609C535.791 342.735 547.541 312.86 550.605 326.733C558.746 363.609 553.605 403.485 557.89 411.203C562.175 418.922 565.139 418.706 567.746 403.057Z" fill="white"/>
<path d="M524.15 211.788C521.008 215.219 516.844 212.471 512.896 207.532C502.612 194.668 494.899 186.95 484.615 174.087C477.609 165.324 476.818 151.788 467.903 158.65C462.333 162.938 480.236 200.237 491.042 222.539C497.898 236.689 500.469 242.692 506.897 271.42" stroke="black" stroke-width="1.8" stroke-linecap="round"/>
<path d="M548.89 203.674C556.603 209.677 551.219 204.048 557.888 217.395C560.887 223.398 586.302 255.502 584.455 314.729C583.01 361.04 573.315 369.613 567.744 403.058C565.138 418.707 562.173 418.923 557.888 411.205C553.603 403.487 558.745 363.61 550.603 326.734C547.54 312.861 535.789 342.736 532.607 363.61C528.751 388.908 530.465 387.193 525.323 408.632C521.223 425.727 515.896 410.347 514.61 405.63C513.325 400.914 513.324 344.315 509.468 307.868C508.107 295.005 508.183 280.426 506.897 270.993" stroke="black" stroke-width="1.8" stroke-linecap="round"/>
<path d="M524.15 211.789C527.72 213.219 532.72 215.648 539.328 213.161C546.308 210.534 547.175 207.533 548.889 203.674" stroke="black" stroke-width="1.8" stroke-linecap="round"/>
<path d="M548.889 204.103C548.889 189.524 548.326 180.574 541.899 170.283C535.471 159.993 526.901 160.421 521.759 162.137C510.324 165.951 500.468 182.235 524.036 211.821" stroke="black" stroke-width="1.8" stroke-linecap="round"/>
<path d="M509.895 165.94C513.46 159.597 517.322 161.366 519.321 161.652C526.177 152.218 552.237 164.036 555.744 186.092C558.743 204.959 563.051 225.222 564.314 231.543C568.599 252.982 550.766 268.959 541.175 260.701C522.75 244.836 516.322 232.401 514.18 219.537C512.894 211.819 510.751 204.101 508.609 193.81C506.466 183.52 506.038 172.8 509.895 165.94Z" fill="black" stroke="black" stroke-width="1.8" stroke-linecap="round"/>
</g>
</g>
<defs>
<clipPath id="clip0_14796_22546">
<rect width="786" height="375" fill="white"/>
</clipPath>
<clipPath id="clip1_14796_22546">
<rect width="449.637" height="477.601" fill="white" transform="translate(165.471 -60.3652)"/>
</clipPath>
</defs>
</svg>
