<svg width="530" height="450" viewBox="0 0 530 450" fill="none" xmlns="http://www.w3.org/2000/svg">
<g clip-path="url(#clip0_14787_17287)">
<rect width="530" height="450" fill="#F5F5F5"/>
<g clip-path="url(#clip1_14787_17287)">
<path d="M260.665 433.186C168.165 425.167 78.098 343.634 57.6648 247.737C37.3966 152.263 86.7617 42.4247 160.035 5.38718C233.604 -31.5206 331.634 3.913 399.729 66.6217C467.53 129.201 505.819 218.89 477.219 296.711C448.619 374.532 353.59 441.04 260.665 433.186Z" fill="white"/>
<path d="M132.992 281.632C132.992 277.174 136.605 273.575 141.063 273.63C160.227 273.866 207.994 274.434 223.118 274.434C239.437 274.434 343.85 273.772 373.737 273.581C378.175 273.552 381.719 277.143 381.719 281.581V323.953C381.719 328.425 378.07 332.031 373.598 331.966C358.645 331.749 324.966 331.328 288.905 331.328C248.346 331.328 166.794 331.861 141.003 332.036C136.562 332.067 132.992 328.475 132.992 324.035V281.632Z" fill="#F5F5F5" stroke="#707070" stroke-width="1.8" stroke-linecap="round" stroke-linejoin="round" stroke-dasharray="4 6"/>
<path d="M133.116 263.899C133.183 264.674 133.543 265.321 134.31 265.45C135.732 265.688 138.998 265.822 146.476 265.065C156.358 264.065 188.769 264.619 202.723 264.916C206.508 264.996 209.606 262.379 209.719 258.595C209.848 254.262 209.809 247.309 209.208 236.48C208.208 218.463 208.764 175.775 209.06 157.716C209.134 153.179 205.454 149.483 200.917 149.546C187.214 149.733 160.281 150.004 149.483 149.419V149.419C143.683 149.104 134.42 158.769 134.297 164.575C134.166 170.762 133.845 179.348 133.224 191.236C130.971 234.362 132.656 258.502 133.116 263.899Z" fill="#F5F5F5" stroke="#707070" stroke-width="1.8" stroke-linecap="round" stroke-linejoin="round" stroke-dasharray="4 6"/>
<path d="M219.273 256.894C219.346 261.266 222.944 264.702 227.316 264.64C240.472 264.456 265.985 264.183 270.91 264.762C274.713 265.208 282.054 265.148 287.686 265.012C291.938 264.909 295.293 261.466 295.326 257.213C295.513 232.869 296.024 157.329 295.265 145.489C294.792 138.111 294.813 130.689 294.94 125.274C295.047 120.756 291.532 116.914 287.013 116.835C279.113 116.696 267.004 116.599 257.357 117.024C248.059 117.434 236.472 117.359 228.573 117.229C223.739 117.149 219.854 121.278 220.204 126.1C221.189 139.636 222.586 166.18 220.776 190.94C218.91 216.448 219.054 243.799 219.273 256.894Z" fill="#F5F5F5" stroke="#707070" stroke-width="1.8" stroke-linecap="round" stroke-linejoin="round" stroke-dasharray="4 6"/>
<path d="M305.555 257.239C305.722 261.473 309.216 264.764 313.453 264.764H373.619C378.077 264.764 381.675 261.125 381.619 256.667C381.344 234.636 380.606 174.464 380.606 162.642C380.606 152.853 381.112 135.552 381.442 125.302C381.588 120.774 377.96 117.026 373.429 117.026H314.034C309.566 117.026 305.962 120.651 306.022 125.118C306.293 145.176 306.871 196.471 305.907 208.951C304.608 225.755 305.127 246.375 305.555 257.239Z" fill="#F5F5F5" stroke="#707070" stroke-width="1.8" stroke-linecap="round" stroke-linejoin="round" stroke-dasharray="4 6"/>
<path d="M362.251 141.677C376.358 141.385 386.823 141.381 393.814 141.451L396.599 141.485C400.426 141.541 403.433 144.639 403.482 148.44L403.479 148.811C403.118 158.461 402.569 174.421 402.569 182.205C402.569 188.634 402.944 206.341 403.277 220.835L403.582 233.722C403.681 237.818 400.368 241.16 396.271 241.103L388.671 241.002C369.567 240.766 338.394 240.516 324.837 241.157L323.404 241.232C310.629 241.974 277.164 241.696 257.442 241.449L249.932 241.349C246.215 241.295 243.196 238.423 242.927 234.758L242.909 234.401C242.631 222.846 242.259 201.393 243.033 192.37L243.111 191.536C243.875 184.16 243.693 166.458 243.445 154.084L243.338 149.153C243.244 145.192 246.318 141.915 250.222 141.734L250.603 141.727C273.004 141.852 334.779 142.142 359.934 141.72L362.251 141.677Z" fill="white" stroke="black" stroke-width="1.6"/>
<path d="M275.678 161.951C273.586 162.125 268.176 162.057 265.093 161.999C263.866 161.976 262.857 162.963 262.857 164.19C262.857 165.312 263.708 166.245 264.829 166.27C265.8 166.291 267.05 166.28 268.394 166.166C270.59 165.98 277.613 166.066 281.218 166.126C282.417 166.145 283.398 165.18 283.398 163.98C283.398 162.843 282.509 161.905 281.372 161.874C279.731 161.829 277.416 161.806 275.678 161.951Z" fill="#8E8E8E"/>
<path d="M270.576 200.254C272.668 200.08 278.078 200.149 281.161 200.206C282.388 200.229 283.396 199.242 283.396 198.015C283.396 196.893 282.546 195.96 281.425 195.935C280.454 195.914 279.204 195.925 277.86 196.039C275.664 196.226 268.641 196.139 265.036 196.079C263.837 196.06 262.856 197.025 262.856 198.225C262.856 199.363 263.745 200.3 264.882 200.331C266.523 200.376 268.838 200.399 270.576 200.254Z" fill="#8E8E8E"/>
<path d="M383.02 173.541C383.02 172.377 382.101 171.434 380.966 171.434C380.966 171.434 352.809 170.199 323.452 171.434C294.096 172.669 265.939 171.434 265.939 171.434C264.804 171.434 263.885 172.377 263.885 173.541C263.885 173.541 264.11 175.344 264.11 178.774C264.11 182.205 263.885 184.078 263.885 184.078C263.885 185.242 264.804 186.185 265.939 186.185H323.452H380.966C382.101 186.185 383.02 185.242 383.02 184.078V173.541Z" fill="white" stroke="#DCDCDC" stroke-width="1.8"/>
<path d="M339.885 207.26C339.885 206.096 338.965 205.152 337.831 205.152C337.831 205.152 323.243 205.152 312.959 205.359C302.675 205.566 265.939 205.152 265.939 205.152C264.804 205.152 263.885 206.096 263.885 207.26V217.797C263.885 218.96 264.804 219.904 265.939 219.904C265.939 219.904 273.537 219.509 290.248 219.509C306.96 219.509 337.831 219.904 337.831 219.904C338.965 219.904 339.885 218.96 339.885 217.797C339.885 217.797 340.383 213.935 340.383 212.22C340.383 210.505 339.885 207.26 339.885 207.26Z" fill="white" stroke="#DCDCDC" stroke-width="1.8"/>
<path d="M170.67 116.274C182.496 115.881 192.304 115.89 199.061 115.993L201.767 116.042C205.401 116.118 208.306 118.965 208.559 122.573L208.575 122.924C208.825 134.295 209.265 155.479 209.265 163.157C209.265 166.216 209.195 168.525 209.096 170.261L209.051 170.97C208.898 173.229 207.235 174.716 204.873 174.906L204.643 174.921C196.812 175.266 180.077 175.885 164.358 175.698L161.231 175.649C153.631 175.503 147.827 175.347 143.479 175.204L139.604 175.067C135.946 174.927 133.106 172.005 132.973 168.368L132.968 168.014C133.093 157.28 133.307 138.086 133.307 131.428C133.307 129.498 133.289 127.689 133.261 126.033L133.229 124.43C133.135 120.231 136.491 116.69 140.631 116.542L141.034 116.538C147.403 116.65 156.843 116.688 168.343 116.348L170.67 116.274Z" fill="white" stroke="black" stroke-width="1.6"/>
<path d="M163.339 147.147C156.973 147.387 153.538 147.387 151.694 147.327C150.716 147.296 149.598 148.277 149.598 149.254C149.598 149.986 150.175 150.581 150.907 150.584C156.029 150.61 174.653 150.692 179.346 150.577C183.468 150.477 190.795 150.528 194.132 150.559C195.093 150.568 195.875 149.792 195.875 148.831C195.875 147.895 195.139 147.13 194.203 147.111C189.166 147.009 173.845 146.751 163.339 147.147Z" fill="#DCDCDC"/>
<path d="M182.983 154.006H151.132C150.284 154.006 149.596 154.694 149.596 155.542C149.596 156.518 150.233 157.256 151.209 157.244C152.744 157.226 155.589 157.263 160.792 157.436C170.945 157.773 179.562 157.595 183.061 157.492C183.999 157.465 184.733 156.695 184.733 155.756C184.733 154.79 183.949 154.006 182.983 154.006Z" fill="#DCDCDC"/>
<path d="M191.212 138.344V134.023C191.212 133.184 190.674 132.476 189.838 132.396C188.442 132.261 185.805 132.192 181.165 132.626C174.587 133.241 157.24 132.845 151.271 132.684C150.142 132.654 149.219 133.56 149.219 134.689V138.344C149.219 139.448 150.114 140.344 151.219 140.344H189.212C190.316 140.344 191.212 139.448 191.212 138.344Z" fill="#8E8E8E"/>
<path d="M174.497 275.224C172.44 275.91 169.64 286.372 168.498 291.517L167.641 295.837L171.926 300.125L174.497 298.807C178.496 296.377 187.009 289.631 189.066 282.084C191.637 272.651 184.352 271.793 182.21 272.651C180.496 273.337 177.496 279.226 176.211 282.084C176.496 279.512 176.553 274.538 174.497 275.224Z" fill="white" stroke="black" stroke-width="1.8" stroke-linecap="round"/>
<path d="M120.08 237.82C120.929 234.08 120.508 228.244 122.222 223.241C127.364 207.805 116.471 202.317 111.329 200.601C106.187 198.886 97.6169 198.458 91.1894 208.748C84.762 219.039 90.0847 226.703 85.7997 234.85C78.0868 240.853 70.8784 251.97 68.4788 256.772C65.4793 262.775 50.4819 298.364 59.4804 343.815C68.4788 389.266 44.9115 439.862 41.055 448.009C37.1985 456.156 50.9105 455.727 55.1954 448.009C59.4804 440.291 93.3319 380.261 94.6174 366.111C95.9029 351.962 105.33 386.693 102.759 403.844C100.188 420.996 98.4739 430.429 98.4739 448.009C98.4739 465.589 107.901 449.724 109.186 445.007C110.472 440.291 134.468 398.699 129.754 366.111C125.984 340.041 121.041 328.95 119.042 326.663C119.042 326.663 115.366 320.606 114.938 313.317C114.509 306.028 116.223 299.596 116.223 299.596C120.08 303.169 130.021 314.003 142.362 313.317C157.787 312.459 174.499 303.026 174.499 300.025C174.499 297.023 168.928 291.878 167.643 291.878C166.357 291.878 156.502 298.738 145.361 297.452C134.22 296.166 126.079 276.87 124.365 269.152C122.993 262.978 112.081 253.685 108.939 250.255C109.081 248.682 117.937 247.253 120.08 237.82Z" fill="white"/>
<path d="M57.1121 332.455C56.191 328.746 57.2794 333.602 85.1235 336.46C99.3111 337.916 108.69 332.164 117.5 326.631C119.798 332.654 125.149 349.042 127.571 365.782C132.284 398.37 108.288 439.962 107.003 444.678C105.717 449.395 96.2903 465.26 96.2903 447.68C96.2903 430.1 98.0043 420.666 100.575 403.515C103.146 386.364 93.7193 351.632 92.4338 365.782C91.1483 379.932 57.2968 439.962 53.0118 447.68C48.7269 455.398 35.0149 455.826 38.8714 447.68C42.7279 439.533 71.6635 391.063 57.1121 332.455Z" fill="#8E8E8E"/>
<path d="M108.939 249.926C105.368 251.355 100.479 253.469 93.7604 251.298C86.9431 249.094 83.9049 246.581 79.1914 241.436" stroke="black" stroke-width="1.8" stroke-linecap="round"/>
<path d="M80.3952 239.993L80.9992 240.66L81.0652 240.601L81.1182 240.529L80.3952 239.993ZM68.4788 256.468L69.2839 256.87L69.2839 256.87L68.4788 256.468ZM59.4804 343.511L58.5975 343.685L58.5975 343.685L59.4804 343.511ZM129.754 365.807L128.864 365.936L128.864 365.936L129.754 365.807ZM116.224 300.022L116.836 299.362C116.566 299.111 116.17 299.051 115.838 299.209C115.505 299.367 115.303 299.711 115.326 300.078L116.224 300.022ZM122.041 223.451L122.892 223.743L122.895 223.735L122.041 223.451ZM120.08 238.246L120.958 238.445L120.958 238.445L120.08 238.246ZM108.939 250.68L108.043 250.599L108.007 250.995L108.276 251.288L108.939 250.68ZM124.365 269.578L123.58 270.018L123.58 270.018L124.365 269.578ZM142.362 313.743L142.312 312.844L142.312 312.844L142.362 313.743ZM80.3952 239.993L79.7911 239.326C72.0156 246.366 70.0758 251.258 67.6737 256.065L68.4788 256.468L69.2839 256.87C71.6811 252.072 73.4958 247.454 80.9992 240.66L80.3952 239.993ZM68.4788 256.468L67.6737 256.065C64.6216 262.174 49.547 297.971 58.5975 343.685L59.4804 343.511L60.3632 343.336C51.4168 298.148 66.3371 262.768 69.2839 256.87L68.4788 256.468ZM59.4804 343.511L58.5975 343.685C63.0583 366.217 59.452 390.074 54.2197 409.361C48.9909 428.635 42.1606 443.266 40.2415 447.32L41.055 447.705L41.8684 448.09C43.8059 443.997 50.6875 429.256 55.9569 409.832C61.2228 390.422 64.9009 366.255 60.3632 343.336L59.4804 343.511ZM41.055 447.705L40.2415 447.32C39.1968 449.527 39.2221 451.44 40.3398 452.799C41.4016 454.09 43.2227 454.583 45.086 454.554C48.8325 454.496 53.6577 452.329 55.9823 448.142L55.1954 447.705L54.4086 447.268C52.4482 450.799 48.275 452.705 45.0583 452.754C43.4401 452.779 42.2884 452.334 41.73 451.655C41.2274 451.044 40.985 449.956 41.8684 448.09L41.055 447.705ZM55.1954 447.705L55.9823 448.142C58.1222 444.287 67.6641 427.337 76.8309 409.581C81.4139 400.704 85.9092 391.614 89.3411 383.852C91.0569 379.971 92.5116 376.412 93.5794 373.37C94.6411 370.346 95.3425 367.774 95.5137 365.889L94.6174 365.807L93.7211 365.726C93.571 367.378 92.9333 369.777 91.881 372.774C90.8347 375.754 89.4004 379.266 87.6949 383.124C84.2842 390.838 79.8077 399.891 75.2315 408.755C66.08 426.481 56.5536 443.404 54.4086 447.268L55.1954 447.705ZM94.6174 365.807L95.5137 365.889C95.5917 365.031 95.6977 364.394 95.8183 363.944C95.8783 363.72 95.9378 363.558 95.9906 363.447C96.0451 363.331 96.0791 363.298 96.0741 363.303C96.0622 363.315 95.9944 363.373 95.872 363.391C95.7514 363.409 95.6717 363.374 95.6589 363.368C95.653 363.365 95.6911 363.384 95.769 363.465C95.8441 363.544 95.9368 363.66 96.0449 363.821C96.4906 364.489 97.0213 365.67 97.5858 367.3C98.1439 368.912 98.7154 370.903 99.2597 373.148C101.446 382.167 103.129 395.003 101.869 403.407L102.759 403.54L103.649 403.674C104.96 394.926 103.215 381.821 101.009 372.724C100.455 370.44 99.8685 368.391 99.2867 366.711C98.7113 365.05 98.1205 363.689 97.5419 362.822C97.2644 362.406 96.9143 361.987 96.474 361.763C96.2343 361.641 95.9362 361.562 95.6069 361.611C95.2759 361.66 95.0093 361.825 94.8095 362.022C94.4445 362.382 94.2285 362.922 94.0796 363.478C93.9221 364.065 93.8039 364.815 93.7211 365.726L94.6174 365.807ZM102.759 403.54L101.869 403.407C99.2995 420.547 97.5739 430.046 97.5739 447.705H98.4739H99.3739C99.3739 430.203 101.076 420.836 103.649 403.674L102.759 403.54ZM98.4739 447.705H97.5739C97.5739 449.935 97.7228 451.678 98.0007 453.002C98.2739 454.302 98.6941 455.31 99.328 455.949C100.028 456.655 100.9 456.823 101.757 456.594C102.543 456.383 103.292 455.851 103.963 455.222C105.32 453.951 106.672 451.984 107.753 450.078C108.835 448.172 109.705 446.222 110.055 444.94L109.186 444.703L108.318 444.467C108.025 445.543 107.235 447.345 106.187 449.19C105.14 451.036 103.894 452.821 102.733 453.908C102.145 454.459 101.656 454.757 101.291 454.855C100.999 454.933 100.81 454.887 100.606 454.682C100.336 454.41 100.01 453.81 99.7623 452.632C99.5196 451.476 99.3739 449.869 99.3739 447.705H98.4739ZM109.186 444.703L110.055 444.94C110.19 444.442 110.664 443.36 111.448 441.676C112.201 440.061 113.255 437.858 114.421 435.348C116.783 430.266 119.767 423.582 122.564 416.019C128.147 400.925 133.035 382.204 130.645 365.678L129.754 365.807L128.864 365.936C131.187 381.998 126.434 400.367 120.876 415.395C118.103 422.893 115.141 429.528 112.789 434.589C111.599 437.15 110.604 439.226 109.817 440.915C109.062 442.536 108.504 443.785 108.318 444.467L109.186 444.703ZM129.754 365.807L130.645 365.678C128.753 352.596 126.317 342.673 124.128 334.57C121.933 326.439 120.017 320.24 119.118 314.48L118.229 314.618L117.339 314.757C118.259 320.646 120.221 327.006 122.391 335.04C124.568 343.101 126.985 352.949 128.864 365.936L129.754 365.807ZM118.229 314.618L119.118 314.48C118.209 308.661 117.71 305.022 117.437 302.84C117.301 301.75 117.222 301.025 117.177 300.575C117.154 300.35 117.141 300.194 117.132 300.096C117.128 300.047 117.126 300.013 117.124 299.991C117.123 299.981 117.123 299.973 117.122 299.969C117.122 299.967 117.122 299.965 117.122 299.965C117.122 299.964 117.122 299.964 117.122 299.964C117.122 299.964 117.122 299.964 117.122 299.965C117.122 299.965 117.122 299.965 117.122 299.965C117.122 299.965 117.122 299.965 116.224 300.022C115.326 300.078 115.326 300.079 115.326 300.079C115.326 300.079 115.326 300.079 115.326 300.079C115.326 300.079 115.326 300.08 115.326 300.08C115.326 300.081 115.326 300.082 115.326 300.083C115.326 300.085 115.326 300.088 115.327 300.092C115.327 300.1 115.328 300.11 115.329 300.124C115.331 300.151 115.334 300.192 115.339 300.246C115.348 300.355 115.362 300.52 115.386 300.754C115.433 301.221 115.513 301.961 115.651 303.063C115.926 305.268 116.429 308.927 117.339 314.757L118.229 314.618ZM122.041 223.451L121.19 223.159C120.291 225.782 120.009 228.649 119.838 231.263C119.664 233.938 119.607 236.268 119.203 238.046L120.08 238.246L120.958 238.445C121.404 236.483 121.469 233.918 121.635 231.38C121.804 228.782 122.077 226.122 122.892 223.743L122.041 223.451ZM120.08 238.246L119.203 238.046C118.197 242.476 115.628 245.021 113.247 246.671C112.041 247.508 110.909 248.098 109.994 248.618C109.555 248.868 109.131 249.121 108.809 249.379C108.527 249.604 108.097 250.005 108.043 250.599L108.939 250.68L109.836 250.762C109.817 250.963 109.695 250.975 109.933 250.784C110.131 250.626 110.44 250.436 110.884 250.183C111.737 249.698 112.98 249.047 114.273 248.15C116.891 246.335 119.822 243.448 120.958 238.445L120.08 238.246ZM108.939 250.68L108.276 251.288C111.508 254.816 117.875 259.848 123.58 270.018L124.365 269.578L125.15 269.138C119.31 258.725 112.656 253.405 109.603 250.072L108.939 250.68ZM124.365 269.578L123.58 270.018C124.521 271.695 125.597 274.19 126.889 277.094C128.169 279.971 129.642 283.205 131.35 286.269C133.055 289.329 135.017 292.262 137.29 294.521C139.566 296.782 142.206 298.419 145.259 298.772L145.362 297.878L145.465 296.984C142.948 296.693 140.661 295.333 138.559 293.244C136.456 291.154 134.59 288.385 132.922 285.393C131.257 282.405 129.812 279.236 128.533 276.362C127.266 273.514 126.144 270.909 125.15 269.138L124.365 269.578ZM145.362 297.878L145.259 298.772C151.034 299.439 156.44 297.992 160.523 296.412C162.569 295.621 164.298 294.79 165.581 294.165C166.229 293.849 166.745 293.595 167.141 293.418C167.339 293.329 167.488 293.269 167.596 293.232C167.728 293.186 167.722 293.204 167.644 293.204V292.304V291.404C167.405 291.404 167.171 291.474 167.012 291.529C166.829 291.592 166.624 291.677 166.407 291.774C165.975 291.967 165.422 292.239 164.792 292.546C163.518 293.168 161.845 293.971 159.874 294.734C155.922 296.263 150.831 297.603 145.465 296.984L145.362 297.878ZM167.644 292.304V293.204C167.568 293.204 167.627 293.188 167.885 293.325C168.105 293.442 168.387 293.626 168.716 293.874C169.371 294.367 170.15 295.068 170.896 295.866C171.644 296.665 172.337 297.539 172.837 298.374C173.352 299.232 173.6 299.946 173.6 300.451H174.5H175.4C175.4 299.455 174.951 298.399 174.381 297.449C173.797 296.474 173.017 295.499 172.211 294.637C171.404 293.774 170.549 293.001 169.799 292.436C169.425 292.154 169.061 291.912 168.73 291.736C168.437 291.58 168.041 291.404 167.644 291.404V292.304ZM174.5 300.451H173.6C173.6 300.436 173.602 300.499 173.516 300.658C173.433 300.811 173.293 301.009 173.079 301.25C172.651 301.731 171.993 302.306 171.117 302.946C169.369 304.222 166.852 305.681 163.836 307.085C157.799 309.893 149.879 312.424 142.312 312.844L142.362 313.743L142.412 314.641C150.272 314.204 158.42 311.589 164.595 308.717C167.685 307.279 170.31 305.764 172.178 304.4C173.109 303.72 173.878 303.06 174.424 302.447C174.697 302.14 174.931 301.827 175.101 301.512C175.267 301.203 175.4 300.84 175.4 300.451H174.5ZM142.362 313.743L142.312 312.844C136.421 313.172 131.048 310.751 126.618 307.735C122.181 304.716 118.809 301.19 116.836 299.362L116.224 300.022L115.612 300.682C117.495 302.426 121.022 306.104 125.605 309.224C130.195 312.347 135.963 315 142.412 314.641L142.362 313.743ZM80.3952 239.993L81.1182 240.529C86.6315 233.092 87.7647 227.616 88.3237 222.719C88.8786 217.858 88.871 213.854 91.9524 208.92L91.1891 208.444L90.4257 207.967C87.0796 213.324 87.072 217.814 86.5353 222.515C86.0027 227.18 84.9527 232.334 79.6721 239.457L80.3952 239.993ZM91.1891 208.444L91.9524 208.92C95.0595 203.946 98.6298 201.636 101.974 200.737C105.343 199.832 108.584 200.33 111.044 201.15L111.328 200.297L111.613 199.443C108.931 198.548 105.316 197.975 101.507 198.999C97.6745 200.029 93.7461 202.651 90.4257 207.967L91.1891 208.444ZM111.328 200.297L111.044 201.15C113.522 201.977 117.291 203.825 119.816 207.261C122.301 210.643 123.677 215.692 121.187 223.167L122.041 223.451L122.895 223.735C125.547 215.774 124.138 210.103 121.266 206.196C118.435 202.343 114.277 200.331 111.613 199.443L111.328 200.297Z" fill="black"/>
<path d="M118.361 218.234C126.223 221.483 130.802 215.71 131.107 212.301C131.472 198.385 121.588 196.714 113.947 199.203C105.876 186.701 91.7201 195.248 88.1262 198.182C85.2639 200.519 85.4302 206.332 85.4863 208.296L85.4871 208.322C84.4726 208.345 79.6665 208.322 76.0287 215.603C71.7794 224.107 75.5958 236.67 83.3044 240.72C89.7114 244.087 99.0034 243.016 102.585 238.536C105.495 234.896 105.496 229.918 103.676 227.252C104.174 227.899 105.534 229.369 110.588 229.072C116.773 228.708 119.164 220.703 118.361 218.234Z" fill="#DCDCDC"/>
<path d="M338.3 191.47C340.357 192.156 343.156 202.618 344.299 207.764L343.328 214.796C343.328 214.796 340.329 216.083 338.3 215.053C336.271 214.023 325.788 205.877 323.731 198.33C321.16 188.897 328.444 188.04 330.587 188.897C332.301 189.583 335.3 195.472 336.586 198.33C336.3 195.758 336.243 190.784 338.3 191.47Z" fill="white" stroke="black" stroke-width="1.8" stroke-linecap="round"/>
<path d="M427.071 268.395C420.402 255.049 428.601 260.677 420.888 254.674L389.178 263.678C378.895 251.53 357.898 226.632 356.184 224.23C354.042 221.229 347.614 209.652 346.329 208.366C345.043 207.079 341.187 206.65 339.044 211.367C336.902 216.084 351.042 252.959 360.898 268.395C368.782 280.744 376.181 309.272 378.895 321.993C380.181 331.426 380.105 346.005 381.466 358.868C385.323 395.315 385.323 451.914 386.608 456.631C387.894 461.347 393.221 476.727 397.321 459.632C402.463 438.193 400.749 439.908 404.605 414.61C407.787 393.736 419.538 363.861 422.601 377.735C430.743 414.61 425.601 454.487 429.886 462.205C434.171 469.923 437.136 469.707 439.742 454.058C445.313 420.613 452.194 412.041 453.638 365.729C455.486 306.503 430.071 274.398 427.071 268.395Z" fill="#DCDCDC"/>
<path d="M439.742 454.057C445.312 420.612 457.738 406.462 456.452 349.434C450.025 355.437 435.027 366.156 381.465 358.867C384.464 386.738 385.322 451.913 386.608 456.629C387.893 461.346 393.22 476.725 397.32 459.631C402.462 438.192 400.748 439.907 404.605 414.609C407.787 393.735 419.538 363.86 422.601 377.733C430.742 414.609 425.601 454.485 429.886 462.203C434.171 469.922 437.135 469.706 439.742 454.057Z" fill="white"/>
<path d="M396.146 262.788C393.004 266.219 388.84 263.471 384.892 258.532C374.608 245.668 366.895 237.95 356.611 225.087C349.605 216.324 348.814 202.788 339.899 209.65C334.329 213.938 352.233 251.237 363.038 273.539C369.894 287.689 372.465 293.692 378.893 322.42" stroke="black" stroke-width="1.8" stroke-linecap="round"/>
<path d="M420.886 254.674C428.599 260.677 423.215 255.048 429.884 268.395C432.883 274.398 458.299 306.502 456.451 365.729C455.006 412.04 445.311 420.613 439.74 454.058C437.134 469.707 434.169 469.923 429.884 462.205C425.599 454.487 430.741 414.61 422.599 377.734C419.536 363.861 407.785 393.736 404.603 414.61C400.747 439.908 402.461 438.193 397.319 459.632C393.219 476.727 387.892 461.347 386.606 456.63C385.321 451.914 385.321 395.315 381.464 358.868C380.103 346.005 380.179 331.426 378.893 321.993" stroke="black" stroke-width="1.8" stroke-linecap="round"/>
<path d="M396.146 262.789C399.717 264.219 404.716 266.648 411.324 264.161C418.304 261.534 419.171 258.533 420.885 254.674" stroke="black" stroke-width="1.8" stroke-linecap="round"/>
<path d="M420.885 255.103C420.885 240.524 420.322 231.574 413.895 221.283C407.467 210.993 398.897 211.421 393.755 213.137C382.32 216.951 372.464 233.235 396.032 262.821" stroke="black" stroke-width="1.8" stroke-linecap="round"/>
<path d="M381.893 216.94C385.458 210.597 389.32 212.366 391.319 212.652C398.175 203.218 424.235 215.036 427.742 237.092C430.742 255.959 435.049 276.222 436.312 282.543C440.597 303.982 422.765 319.959 413.173 311.701C394.748 295.836 388.32 283.401 386.178 270.537C384.892 262.819 382.749 255.101 380.607 244.81C378.464 234.52 378.036 223.8 381.893 216.94Z" fill="black" stroke="black" stroke-width="1.8" stroke-linecap="round"/>
</g>
</g>
<defs>
<clipPath id="clip0_14787_17287">
<rect width="530" height="450" fill="white"/>
</clipPath>
<clipPath id="clip1_14787_17287">
<rect width="449.637" height="477.601" fill="white" transform="translate(37.4688 -9.36523)"/>
</clipPath>
</defs>
</svg>
