<svg width="418" height="286" viewBox="0 0 418 286" fill="none" xmlns="http://www.w3.org/2000/svg">
<g clip-path="url(#clip0_14742_7472)">
<rect width="418" height="286" fill="white"/>
<rect x="16" y="16" width="40" height="40" rx="20" fill="#F5F5F5"/>
<path d="M33.5496 41.9996L27.8496 36.2996L29.2746 34.8746L33.5496 39.1496L42.7246 29.9746L44.1496 31.3996L33.5496 41.9996Z" fill="#1A1A1A"/>
<path d="M69.488 42V30.832H70.832V40.816H75.584V42H69.488ZM80.3394 42.192C79.7847 42.192 79.278 42.0907 78.8194 41.888C78.3607 41.6853 77.966 41.3973 77.6354 41.024C77.3154 40.64 77.0647 40.1867 76.8834 39.664C76.702 39.1307 76.6114 38.5333 76.6114 37.872C76.6114 37.2213 76.702 36.6293 76.8834 36.096C77.0647 35.5627 77.3154 35.1093 77.6354 34.736C77.966 34.352 78.3607 34.0587 78.8194 33.856C79.278 33.6533 79.7847 33.552 80.3394 33.552C80.894 33.552 81.3954 33.6533 81.8434 33.856C82.302 34.0587 82.6967 34.352 83.0274 34.736C83.358 35.1093 83.614 35.5627 83.7954 36.096C83.9767 36.6293 84.0674 37.2213 84.0674 37.872C84.0674 38.5333 83.9767 39.1307 83.7954 39.664C83.614 40.1867 83.358 40.64 83.0274 41.024C82.6967 41.3973 82.302 41.6853 81.8434 41.888C81.3954 42.0907 80.894 42.192 80.3394 42.192ZM80.3394 41.056C81.0327 41.056 81.598 40.8427 82.0354 40.416C82.4727 39.9893 82.6914 39.3387 82.6914 38.464V37.28C82.6914 36.4053 82.4727 35.7547 82.0354 35.328C81.598 34.9013 81.0327 34.688 80.3394 34.688C79.646 34.688 79.0807 34.9013 78.6434 35.328C78.206 35.7547 77.9874 36.4053 77.9874 37.28V38.464C77.9874 39.3387 78.206 39.9893 78.6434 40.416C79.0807 40.8427 79.646 41.056 80.3394 41.056ZM86.1725 42V33.744H87.4525V35.264H87.5325C87.6818 34.8693 87.9485 34.5173 88.3325 34.208C88.7165 33.8987 89.2445 33.744 89.9165 33.744H90.4125V35.024H89.6605C88.9672 35.024 88.4232 35.1573 88.0285 35.424C87.6445 35.68 87.4525 36.0053 87.4525 36.4V42H86.1725ZM95.0734 42.192C94.508 42.192 93.996 42.0907 93.5374 41.888C93.0894 41.6853 92.7 41.3973 92.3694 41.024C92.0494 40.64 91.7987 40.1867 91.6174 39.664C91.4467 39.1307 91.3614 38.5333 91.3614 37.872C91.3614 37.2213 91.4467 36.6293 91.6174 36.096C91.7987 35.5627 92.0494 35.1093 92.3694 34.736C92.7 34.352 93.0894 34.0587 93.5374 33.856C93.996 33.6533 94.508 33.552 95.0734 33.552C95.628 33.552 96.124 33.6533 96.5614 33.856C96.9987 34.0587 97.372 34.3413 97.6814 34.704C97.9907 35.056 98.2254 35.4773 98.3854 35.968C98.556 36.4587 98.6414 36.9973 98.6414 37.584V38.192H92.7054V38.576C92.7054 38.928 92.7587 39.2587 92.8654 39.568C92.9827 39.8667 93.1427 40.128 93.3454 40.352C93.5587 40.576 93.8147 40.752 94.1134 40.88C94.4227 41.008 94.7694 41.072 95.1534 41.072C95.676 41.072 96.1294 40.9493 96.5134 40.704C96.908 40.4587 97.212 40.1067 97.4254 39.648L98.3374 40.304C98.0707 40.8693 97.6547 41.328 97.0894 41.68C96.524 42.0213 95.852 42.192 95.0734 42.192ZM95.0734 34.624C94.7214 34.624 94.4014 34.688 94.1134 34.816C93.8254 34.9333 93.5747 35.104 93.3614 35.328C93.1587 35.552 92.9987 35.8187 92.8814 36.128C92.764 36.4267 92.7054 36.7573 92.7054 37.12V37.232H97.2654V37.056C97.2654 36.32 97.0627 35.7333 96.6574 35.296C96.2627 34.848 95.7347 34.624 95.0734 34.624ZM100.751 42V33.744H102.031V35.088H102.095C102.191 34.8747 102.297 34.6773 102.415 34.496C102.543 34.304 102.692 34.1387 102.863 34C103.044 33.8613 103.252 33.7547 103.487 33.68C103.721 33.5947 103.999 33.552 104.319 33.552C104.863 33.552 105.364 33.6853 105.823 33.952C106.281 34.208 106.623 34.6347 106.847 35.232H106.879C107.028 34.784 107.305 34.3947 107.711 34.064C108.127 33.7227 108.687 33.552 109.391 33.552C110.233 33.552 110.889 33.8293 111.359 34.384C111.839 34.928 112.079 35.7013 112.079 36.704V42H110.799V36.928C110.799 36.192 110.655 35.6373 110.367 35.264C110.079 34.8907 109.62 34.704 108.991 34.704C108.735 34.704 108.489 34.736 108.255 34.8C108.031 34.864 107.828 34.96 107.647 35.088C107.465 35.216 107.321 35.3813 107.215 35.584C107.108 35.776 107.055 36.0053 107.055 36.272V42H105.775V36.928C105.775 36.192 105.631 35.6373 105.343 35.264C105.055 34.8907 104.607 34.704 103.999 34.704C103.743 34.704 103.497 34.736 103.263 34.8C103.028 34.864 102.82 34.96 102.639 35.088C102.457 35.216 102.308 35.3813 102.191 35.584C102.084 35.776 102.031 36.0053 102.031 36.272V42H100.751ZM119.141 31.808C118.863 31.808 118.661 31.744 118.533 31.616C118.415 31.4773 118.357 31.3013 118.357 31.088V30.88C118.357 30.6667 118.415 30.496 118.533 30.368C118.661 30.2293 118.863 30.16 119.141 30.16C119.418 30.16 119.615 30.2293 119.733 30.368C119.861 30.496 119.925 30.6667 119.925 30.88V31.088C119.925 31.3013 119.861 31.4773 119.733 31.616C119.615 31.744 119.418 31.808 119.141 31.808ZM118.501 33.744H119.781V42H118.501V33.744ZM122.501 33.744H123.781V35.088H123.845C124.058 34.5653 124.367 34.1813 124.773 33.936C125.189 33.68 125.685 33.552 126.261 33.552C126.773 33.552 127.237 33.6533 127.653 33.856C128.069 34.0587 128.421 34.3467 128.709 34.72C129.007 35.0933 129.231 35.5467 129.381 36.08C129.541 36.6133 129.621 37.2107 129.621 37.872C129.621 38.5333 129.541 39.1307 129.381 39.664C129.231 40.1973 129.007 40.6507 128.709 41.024C128.421 41.3973 128.069 41.6853 127.653 41.888C127.237 42.0907 126.773 42.192 126.261 42.192C125.141 42.192 124.335 41.68 123.845 40.656H123.781V45.2H122.501V33.744ZM125.909 41.04C126.634 41.04 127.205 40.816 127.621 40.368C128.037 39.9093 128.245 39.312 128.245 38.576V37.168C128.245 36.432 128.037 35.84 127.621 35.392C127.205 34.9333 126.634 34.704 125.909 34.704C125.621 34.704 125.343 34.7467 125.077 34.832C124.821 34.9067 124.597 35.0133 124.405 35.152C124.213 35.2907 124.058 35.4613 123.941 35.664C123.834 35.856 123.781 36.064 123.781 36.288V39.36C123.781 39.6267 123.834 39.8667 123.941 40.08C124.058 40.2827 124.213 40.4587 124.405 40.608C124.597 40.7467 124.821 40.8533 125.077 40.928C125.343 41.0027 125.621 41.04 125.909 41.04ZM134.262 42.192C133.494 42.192 132.849 42.048 132.326 41.76C131.814 41.4613 131.371 41.0667 130.998 40.576L131.91 39.84C132.23 40.2453 132.587 40.56 132.982 40.784C133.377 40.9973 133.835 41.104 134.358 41.104C134.902 41.104 135.323 40.9867 135.622 40.752C135.931 40.5173 136.086 40.1867 136.086 39.76C136.086 39.44 135.979 39.168 135.766 38.944C135.563 38.7093 135.19 38.5493 134.646 38.464L133.99 38.368C133.606 38.3147 133.254 38.2347 132.934 38.128C132.614 38.0107 132.331 37.8613 132.086 37.68C131.851 37.488 131.665 37.2533 131.526 36.976C131.398 36.6987 131.334 36.368 131.334 35.984C131.334 35.5787 131.409 35.2267 131.558 34.928C131.707 34.6187 131.91 34.3627 132.166 34.16C132.433 33.9573 132.747 33.808 133.11 33.712C133.473 33.6053 133.862 33.552 134.278 33.552C134.95 33.552 135.51 33.6693 135.958 33.904C136.417 34.1387 136.817 34.464 137.158 34.88L136.31 35.648C136.129 35.392 135.862 35.1627 135.51 34.96C135.158 34.7467 134.715 34.64 134.182 34.64C133.649 34.64 133.243 34.7573 132.966 34.992C132.699 35.216 132.566 35.5253 132.566 35.92C132.566 36.3253 132.699 36.6187 132.966 36.8C133.243 36.9813 133.638 37.1147 134.15 37.2L134.79 37.296C135.707 37.4347 136.358 37.7013 136.742 38.096C137.126 38.48 137.318 38.9867 137.318 39.616C137.318 40.416 137.046 41.0453 136.502 41.504C135.958 41.9627 135.211 42.192 134.262 42.192ZM144.667 40.656H144.603C144.517 40.848 144.411 41.04 144.283 41.232C144.165 41.4133 144.016 41.5787 143.835 41.728C143.653 41.8667 143.435 41.9787 143.179 42.064C142.923 42.1493 142.624 42.192 142.283 42.192C141.429 42.192 140.752 41.92 140.251 41.376C139.749 40.8213 139.499 40.0427 139.499 39.04V33.744H140.779V38.816C140.779 40.2987 141.408 41.04 142.667 41.04C142.923 41.04 143.168 41.008 143.403 40.944C143.648 40.88 143.861 40.784 144.043 40.656C144.235 40.528 144.384 40.368 144.491 40.176C144.608 39.9733 144.667 39.7333 144.667 39.456V33.744H145.947V42H144.667V40.656ZM148.673 42V33.744H149.953V35.088H150.017C150.113 34.8747 150.219 34.6773 150.337 34.496C150.465 34.304 150.614 34.1387 150.785 34C150.966 33.8613 151.174 33.7547 151.409 33.68C151.643 33.5947 151.921 33.552 152.241 33.552C152.785 33.552 153.286 33.6853 153.745 33.952C154.203 34.208 154.545 34.6347 154.769 35.232H154.801C154.95 34.784 155.227 34.3947 155.633 34.064C156.049 33.7227 156.609 33.552 157.312 33.552C158.155 33.552 158.811 33.8293 159.281 34.384C159.761 34.928 160.001 35.7013 160.001 36.704V42H158.721V36.928C158.721 36.192 158.577 35.6373 158.289 35.264C158.001 34.8907 157.542 34.704 156.913 34.704C156.657 34.704 156.411 34.736 156.177 34.8C155.953 34.864 155.75 34.96 155.569 35.088C155.387 35.216 155.243 35.3813 155.137 35.584C155.03 35.776 154.977 36.0053 154.977 36.272V42H153.697V36.928C153.697 36.192 153.553 35.6373 153.265 35.264C152.977 34.8907 152.529 34.704 151.921 34.704C151.665 34.704 151.419 34.736 151.185 34.8C150.95 34.864 150.742 34.96 150.561 35.088C150.379 35.216 150.23 35.3813 150.113 35.584C150.006 35.776 149.953 36.0053 149.953 36.272V42H148.673Z" fill="#1A1A1A"/>
<path d="M68 44H161.281V44.96H68V44Z" fill="#1A1A1A"/>
<rect x="16" y="64" width="40" height="40" rx="20" fill="#454545"/>
<path d="M40.0191 90H32.1151V87.808L35.5551 84.864C35.8645 84.5973 36.1258 84.3573 36.3391 84.144C36.5525 83.92 36.7231 83.7067 36.8511 83.504C36.9898 83.2907 37.0858 83.0827 37.1391 82.88C37.2031 82.6773 37.2351 82.4587 37.2351 82.224V82C37.2351 81.7867 37.1925 81.6 37.1071 81.44C37.0218 81.28 36.9098 81.1467 36.7711 81.04C36.6325 80.9333 36.4725 80.8533 36.2911 80.8C36.1205 80.7467 35.9445 80.72 35.7631 80.72C35.4965 80.72 35.2618 80.7627 35.0591 80.848C34.8671 80.9333 34.6965 81.0507 34.5471 81.2C34.4085 81.3387 34.2911 81.504 34.1951 81.696C34.0991 81.8773 34.0245 82.0747 33.9711 82.288L31.8751 81.488C32.0031 81.104 32.1791 80.7413 32.4031 80.4C32.6271 80.048 32.9045 79.744 33.2351 79.488C33.5765 79.2213 33.9765 79.0133 34.4351 78.864C34.8938 78.7147 35.4111 78.64 35.9871 78.64C36.5951 78.64 37.1338 78.7253 37.6031 78.896C38.0725 79.0667 38.4671 79.3013 38.7871 79.6C39.1178 79.8987 39.3685 80.256 39.5391 80.672C39.7098 81.0773 39.7951 81.52 39.7951 82C39.7951 82.48 39.7151 82.9173 39.5551 83.312C39.3951 83.7067 39.1765 84.08 38.8991 84.432C38.6325 84.7733 38.3178 85.0987 37.9551 85.408C37.5925 85.7173 37.2138 86.032 36.8191 86.352L34.7391 87.984H40.0191V90Z" fill="white"/>
<path d="M69.232 78.832H73.44C74.176 78.832 74.848 78.9493 75.456 79.184C76.064 79.4187 76.5813 79.7707 77.008 80.24C77.4347 80.6987 77.7653 81.28 78 81.984C78.2347 82.6773 78.352 83.488 78.352 84.416C78.352 85.344 78.2347 86.16 78 86.864C77.7653 87.5573 77.4347 88.1387 77.008 88.608C76.5813 89.0667 76.064 89.4133 75.456 89.648C74.848 89.8827 74.176 90 73.44 90H69.232V78.832ZM73.44 87.84C74.1653 87.84 74.736 87.6373 75.152 87.232C75.568 86.8267 75.776 86.176 75.776 85.28V83.552C75.776 82.656 75.568 82.0053 75.152 81.6C74.736 81.1947 74.1653 80.992 73.44 80.992H71.664V87.84H73.44ZM83.6683 90.192C83.0496 90.192 82.4949 90.0907 82.0043 89.888C81.5243 89.6853 81.1136 89.392 80.7723 89.008C80.4416 88.624 80.1856 88.16 80.0043 87.616C79.8229 87.072 79.7323 86.464 79.7323 85.792C79.7323 85.12 79.8229 84.512 80.0043 83.968C80.1856 83.424 80.4416 82.9653 80.7723 82.592C81.1136 82.208 81.5243 81.9147 82.0043 81.712C82.4949 81.5093 83.0496 81.408 83.6683 81.408C84.2869 81.408 84.8363 81.5093 85.3163 81.712C85.8069 81.9147 86.2176 82.208 86.5483 82.592C86.8896 82.9653 87.1509 83.424 87.3323 83.968C87.5136 84.512 87.6042 85.12 87.6042 85.792C87.6042 86.464 87.5136 87.072 87.3323 87.616C87.1509 88.16 86.8896 88.624 86.5483 89.008C86.2176 89.392 85.8069 89.6853 85.3163 89.888C84.8363 90.0907 84.2869 90.192 83.6683 90.192ZM83.6683 88.32C84.1376 88.32 84.5003 88.176 84.7563 87.888C85.0123 87.6 85.1403 87.1893 85.1403 86.656V84.944C85.1403 84.4107 85.0123 84 84.7563 83.712C84.5003 83.424 84.1376 83.28 83.6683 83.28C83.1989 83.28 82.8363 83.424 82.5803 83.712C82.3243 84 82.1963 84.4107 82.1963 84.944V86.656C82.1963 87.1893 82.3243 87.6 82.5803 87.888C82.8363 88.176 83.1989 88.32 83.6683 88.32ZM91.6435 90C90.8328 90 90.2355 89.8027 89.8515 89.408C89.4782 89.0133 89.2915 88.4427 89.2915 87.696V78.16H91.6595V88.16H92.7155V90H91.6435ZM97.5433 90.192C96.9246 90.192 96.3699 90.0907 95.8793 89.888C95.3993 89.6853 94.9886 89.392 94.6473 89.008C94.3166 88.624 94.0606 88.16 93.8793 87.616C93.6979 87.072 93.6073 86.464 93.6073 85.792C93.6073 85.12 93.6979 84.512 93.8793 83.968C94.0606 83.424 94.3166 82.9653 94.6473 82.592C94.9886 82.208 95.3993 81.9147 95.8793 81.712C96.3699 81.5093 96.9246 81.408 97.5433 81.408C98.1619 81.408 98.7113 81.5093 99.1913 81.712C99.6819 81.9147 100.093 82.208 100.423 82.592C100.765 82.9653 101.026 83.424 101.207 83.968C101.389 84.512 101.479 85.12 101.479 85.792C101.479 86.464 101.389 87.072 101.207 87.616C101.026 88.16 100.765 88.624 100.423 89.008C100.093 89.392 99.6819 89.6853 99.1913 89.888C98.7113 90.0907 98.1619 90.192 97.5433 90.192ZM97.5433 88.32C98.0126 88.32 98.3753 88.176 98.6313 87.888C98.8873 87.6 99.0153 87.1893 99.0153 86.656V84.944C99.0153 84.4107 98.8873 84 98.6313 83.712C98.3753 83.424 98.0126 83.28 97.5433 83.28C97.0739 83.28 96.7113 83.424 96.4553 83.712C96.1993 84 96.0713 84.4107 96.0713 84.944V86.656C96.0713 87.1893 96.1993 87.6 96.4553 87.888C96.7113 88.176 97.0739 88.32 97.5433 88.32ZM103.167 90V81.6H105.535V83.424H105.615C105.657 83.1893 105.732 82.9653 105.839 82.752C105.945 82.528 106.084 82.3307 106.255 82.16C106.436 81.9893 106.649 81.856 106.895 81.76C107.14 81.6533 107.428 81.6 107.759 81.6H108.175V83.808H107.583C106.889 83.808 106.372 83.8987 106.031 84.08C105.7 84.2613 105.535 84.5973 105.535 85.088V90H103.167ZM116.265 90.192C115.454 90.192 114.771 90.064 114.217 89.808C113.662 89.5413 113.166 89.168 112.729 88.688L114.121 87.28C114.419 87.6107 114.75 87.872 115.113 88.064C115.475 88.256 115.886 88.352 116.345 88.352C116.814 88.352 117.139 88.2827 117.321 88.144C117.502 87.9947 117.593 87.7973 117.593 87.552C117.593 87.1573 117.31 86.9227 116.745 86.848L115.833 86.736C113.945 86.5013 113.001 85.6373 113.001 84.144C113.001 83.7387 113.075 83.3707 113.225 83.04C113.385 82.6987 113.603 82.4107 113.881 82.176C114.169 81.9307 114.51 81.744 114.905 81.616C115.31 81.4773 115.763 81.408 116.265 81.408C116.702 81.408 117.086 81.44 117.417 81.504C117.758 81.5573 118.057 81.6427 118.313 81.76C118.579 81.8667 118.819 82.0053 119.033 82.176C119.257 82.336 119.475 82.5173 119.689 82.72L118.329 84.112C118.062 83.8453 117.758 83.6373 117.417 83.488C117.086 83.328 116.745 83.248 116.393 83.248C115.987 83.248 115.699 83.312 115.529 83.44C115.358 83.568 115.273 83.7387 115.273 83.952C115.273 84.176 115.331 84.352 115.449 84.48C115.577 84.5973 115.811 84.6827 116.153 84.736L117.097 84.864C118.942 85.1093 119.865 85.952 119.865 87.392C119.865 87.7973 119.779 88.1707 119.609 88.512C119.438 88.8533 119.193 89.152 118.873 89.408C118.563 89.6533 118.185 89.8453 117.737 89.984C117.299 90.1227 116.809 90.192 116.265 90.192ZM122.663 80.704C122.183 80.704 121.831 80.5973 121.607 80.384C121.394 80.16 121.287 79.8773 121.287 79.536V79.184C121.287 78.8427 121.394 78.5653 121.607 78.352C121.831 78.128 122.183 78.016 122.663 78.016C123.143 78.016 123.49 78.128 123.703 78.352C123.927 78.5653 124.039 78.8427 124.039 79.184V79.536C124.039 79.8773 123.927 80.16 123.703 80.384C123.49 80.5973 123.143 80.704 122.663 80.704ZM121.479 81.6H123.847V90H121.479V81.6ZM129.001 90C128.18 90 127.556 89.792 127.129 89.376C126.713 88.96 126.505 88.352 126.505 87.552V83.44H125.321V81.6H125.913C126.233 81.6 126.452 81.5253 126.569 81.376C126.686 81.216 126.745 80.992 126.745 80.704V79.328H128.873V81.6H130.537V83.44H128.873V88.16H130.409V90H129.001ZM142.171 90C141.745 90 141.387 89.8667 141.099 89.6C140.822 89.3333 140.646 88.976 140.571 88.528H140.475C140.347 89.072 140.065 89.488 139.627 89.776C139.19 90.0533 138.651 90.192 138.011 90.192C137.169 90.192 136.523 89.968 136.075 89.52C135.627 89.072 135.403 88.48 135.403 87.744C135.403 86.8587 135.723 86.2027 136.363 85.776C137.014 85.3387 137.894 85.12 139.003 85.12H140.331V84.592C140.331 84.1867 140.225 83.8667 140.011 83.632C139.798 83.3867 139.441 83.264 138.939 83.264C138.47 83.264 138.097 83.3653 137.819 83.568C137.542 83.7707 137.313 84 137.131 84.256L135.723 83.008C136.065 82.5067 136.491 82.1173 137.003 81.84C137.526 81.552 138.23 81.408 139.115 81.408C140.31 81.408 141.206 81.6693 141.803 82.192C142.401 82.7147 142.699 83.4773 142.699 84.48V88.16H143.483V90H142.171ZM138.891 88.544C139.286 88.544 139.622 88.4587 139.899 88.288C140.187 88.1173 140.331 87.84 140.331 87.456V86.464H139.179C138.251 86.464 137.787 86.7787 137.787 87.408V87.648C137.787 87.9573 137.883 88.1867 138.075 88.336C138.267 88.4747 138.539 88.544 138.891 88.544ZM145.073 90V81.6H147.441V83.024H147.537C147.686 82.576 147.942 82.1973 148.305 81.888C148.667 81.568 149.163 81.408 149.793 81.408C150.369 81.408 150.859 81.552 151.265 81.84C151.67 82.128 151.963 82.5493 152.145 83.104H152.193C152.267 82.8693 152.379 82.6507 152.529 82.448C152.689 82.2347 152.881 82.0533 153.105 81.904C153.329 81.7547 153.579 81.6373 153.857 81.552C154.134 81.456 154.433 81.408 154.753 81.408C155.563 81.408 156.182 81.696 156.609 82.272C157.046 82.848 157.265 83.6693 157.265 84.736V90H154.897V84.928C154.897 83.8613 154.513 83.328 153.745 83.328C153.393 83.328 153.073 83.4293 152.785 83.632C152.497 83.8347 152.353 84.144 152.353 84.56V90H149.985V84.928C149.985 83.8613 149.601 83.328 148.833 83.328C148.662 83.328 148.491 83.3547 148.321 83.408C148.161 83.4507 148.011 83.5253 147.873 83.632C147.745 83.7387 147.638 83.872 147.553 84.032C147.478 84.1813 147.441 84.3573 147.441 84.56V90H145.073ZM162.874 90.192C162.234 90.192 161.663 90.0907 161.162 89.888C160.66 89.6747 160.234 89.3813 159.882 89.008C159.54 88.624 159.279 88.16 159.098 87.616C158.927 87.072 158.842 86.464 158.842 85.792C158.842 85.1307 158.927 84.5333 159.098 84C159.268 83.456 159.519 82.992 159.85 82.608C160.191 82.224 160.607 81.9307 161.098 81.728C161.588 81.5147 162.148 81.408 162.778 81.408C163.471 81.408 164.063 81.5253 164.554 81.76C165.055 81.9947 165.46 82.3093 165.77 82.704C166.09 83.0987 166.319 83.5573 166.458 84.08C166.607 84.592 166.682 85.1307 166.682 85.696V86.4H161.29V86.528C161.29 87.0827 161.439 87.5253 161.738 87.856C162.036 88.176 162.506 88.336 163.146 88.336C163.636 88.336 164.036 88.24 164.346 88.048C164.655 87.8453 164.943 87.6053 165.21 87.328L166.394 88.8C166.02 89.2373 165.53 89.5787 164.922 89.824C164.324 90.0693 163.642 90.192 162.874 90.192ZM162.826 83.152C162.346 83.152 161.967 83.312 161.69 83.632C161.423 83.9413 161.29 84.3573 161.29 84.88V85.008H164.234V84.864C164.234 84.352 164.116 83.9413 163.882 83.632C163.658 83.312 163.306 83.152 162.826 83.152ZM171.298 90C170.477 90 169.853 89.792 169.426 89.376C169.01 88.96 168.802 88.352 168.802 87.552V83.44H167.618V81.6H168.21C168.53 81.6 168.749 81.5253 168.866 81.376C168.983 81.216 169.042 80.992 169.042 80.704V79.328H171.17V81.6H172.834V83.44H171.17V88.16H172.706V90H171.298Z" fill="#1A1A1A"/>
<rect x="40" y="112" width="40" height="40" rx="20" fill="#454545"/>
<path d="M56.7457 138H48.8417V135.808L52.2817 132.864C52.591 132.597 52.8524 132.357 53.0657 132.144C53.279 131.92 53.4497 131.707 53.5777 131.504C53.7164 131.291 53.8124 131.083 53.8657 130.88C53.9297 130.677 53.9617 130.459 53.9617 130.224V130C53.9617 129.787 53.919 129.6 53.8337 129.44C53.7484 129.28 53.6364 129.147 53.4977 129.04C53.359 128.933 53.199 128.853 53.0177 128.8C52.847 128.747 52.671 128.72 52.4897 128.72C52.223 128.72 51.9884 128.763 51.7857 128.848C51.5937 128.933 51.423 129.051 51.2737 129.2C51.135 129.339 51.0177 129.504 50.9217 129.696C50.8257 129.877 50.751 130.075 50.6977 130.288L48.6017 129.488C48.7297 129.104 48.9057 128.741 49.1297 128.4C49.3537 128.048 49.631 127.744 49.9617 127.488C50.303 127.221 50.703 127.013 51.1617 126.864C51.6204 126.715 52.1377 126.64 52.7137 126.64C53.3217 126.64 53.8604 126.725 54.3297 126.896C54.799 127.067 55.1937 127.301 55.5137 127.6C55.8444 127.899 56.095 128.256 56.2657 128.672C56.4364 129.077 56.5217 129.52 56.5217 130C56.5217 130.48 56.4417 130.917 56.2817 131.312C56.1217 131.707 55.903 132.08 55.6257 132.432C55.359 132.773 55.0444 133.099 54.6817 133.408C54.319 133.717 53.9404 134.032 53.5457 134.352L51.4657 135.984H56.7457V138ZM60.0034 138.176C59.5234 138.176 59.1661 138.059 58.9314 137.824C58.7074 137.579 58.5954 137.269 58.5954 136.896V136.576C58.5954 136.203 58.7074 135.899 58.9314 135.664C59.1661 135.419 59.5234 135.296 60.0034 135.296C60.4834 135.296 60.8354 135.419 61.0594 135.664C61.2941 135.899 61.4114 136.203 61.4114 136.576V136.896C61.4114 137.269 61.2941 137.579 61.0594 137.824C60.8354 138.059 60.4834 138.176 60.0034 138.176ZM63.9806 138V136.064H66.9886V128.576H66.8446L64.5726 131.552L63.0366 130.352L65.7086 126.832H69.3886V136.064H71.7566V138H63.9806Z" fill="white"/>
<path d="M97.744 138.192C96.9867 138.192 96.304 138.075 95.696 137.84C95.088 137.595 94.5707 137.237 94.144 136.768C93.7173 136.288 93.3867 135.696 93.152 134.992C92.9173 134.277 92.8 133.445 92.8 132.496C92.8 131.557 92.9173 130.725 93.152 130C93.3867 129.264 93.7173 128.651 94.144 128.16C94.5707 127.659 95.088 127.28 95.696 127.024C96.304 126.768 96.9867 126.64 97.744 126.64C98.7787 126.64 99.632 126.853 100.304 127.28C100.976 127.696 101.515 128.357 101.92 129.264L99.824 130.352C99.6747 129.883 99.44 129.509 99.12 129.232C98.8107 128.944 98.352 128.8 97.744 128.8C97.0293 128.8 96.4533 129.035 96.016 129.504C95.5893 129.963 95.376 130.635 95.376 131.52V133.312C95.376 134.197 95.5893 134.875 96.016 135.344C96.4533 135.803 97.0293 136.032 97.744 136.032C98.3413 136.032 98.816 135.872 99.168 135.552C99.5307 135.221 99.7973 134.827 99.968 134.368L101.952 135.52C101.536 136.373 100.987 137.035 100.304 137.504C99.632 137.963 98.7787 138.192 97.744 138.192ZM106.934 138.192C106.315 138.192 105.761 138.091 105.27 137.888C104.79 137.685 104.379 137.392 104.038 137.008C103.707 136.624 103.451 136.16 103.27 135.616C103.089 135.072 102.998 134.464 102.998 133.792C102.998 133.12 103.089 132.512 103.27 131.968C103.451 131.424 103.707 130.965 104.038 130.592C104.379 130.208 104.79 129.915 105.27 129.712C105.761 129.509 106.315 129.408 106.934 129.408C107.553 129.408 108.102 129.509 108.582 129.712C109.073 129.915 109.483 130.208 109.814 130.592C110.155 130.965 110.417 131.424 110.598 131.968C110.779 132.512 110.87 133.12 110.87 133.792C110.87 134.464 110.779 135.072 110.598 135.616C110.417 136.16 110.155 136.624 109.814 137.008C109.483 137.392 109.073 137.685 108.582 137.888C108.102 138.091 107.553 138.192 106.934 138.192ZM106.934 136.32C107.403 136.32 107.766 136.176 108.022 135.888C108.278 135.6 108.406 135.189 108.406 134.656V132.944C108.406 132.411 108.278 132 108.022 131.712C107.766 131.424 107.403 131.28 106.934 131.28C106.465 131.28 106.102 131.424 105.846 131.712C105.59 132 105.462 132.411 105.462 132.944V134.656C105.462 135.189 105.59 135.6 105.846 135.888C106.102 136.176 106.465 136.32 106.934 136.32ZM112.557 138V129.6H114.925V131.024H115.021C115.17 130.587 115.432 130.208 115.805 129.888C116.178 129.568 116.696 129.408 117.357 129.408C118.221 129.408 118.872 129.696 119.309 130.272C119.757 130.848 119.981 131.669 119.981 132.736V138H117.613V132.928C117.613 132.384 117.528 131.984 117.357 131.728C117.186 131.461 116.882 131.328 116.445 131.328C116.253 131.328 116.066 131.355 115.885 131.408C115.704 131.451 115.538 131.525 115.389 131.632C115.25 131.739 115.138 131.872 115.053 132.032C114.968 132.181 114.925 132.357 114.925 132.56V138H112.557ZM124.936 138.192C124.126 138.192 123.443 138.064 122.888 137.808C122.334 137.541 121.838 137.168 121.4 136.688L122.792 135.28C123.091 135.611 123.422 135.872 123.784 136.064C124.147 136.256 124.558 136.352 125.016 136.352C125.486 136.352 125.811 136.283 125.992 136.144C126.174 135.995 126.264 135.797 126.264 135.552C126.264 135.157 125.982 134.923 125.416 134.848L124.504 134.736C122.616 134.501 121.672 133.637 121.672 132.144C121.672 131.739 121.747 131.371 121.896 131.04C122.056 130.699 122.275 130.411 122.552 130.176C122.84 129.931 123.182 129.744 123.576 129.616C123.982 129.477 124.435 129.408 124.936 129.408C125.374 129.408 125.758 129.44 126.088 129.504C126.43 129.557 126.728 129.643 126.984 129.76C127.251 129.867 127.491 130.005 127.704 130.176C127.928 130.336 128.147 130.517 128.36 130.72L127 132.112C126.734 131.845 126.43 131.637 126.088 131.488C125.758 131.328 125.416 131.248 125.064 131.248C124.659 131.248 124.371 131.312 124.2 131.44C124.03 131.568 123.944 131.739 123.944 131.952C123.944 132.176 124.003 132.352 124.12 132.48C124.248 132.597 124.483 132.683 124.824 132.736L125.768 132.864C127.614 133.109 128.536 133.952 128.536 135.392C128.536 135.797 128.451 136.171 128.28 136.512C128.11 136.853 127.864 137.152 127.544 137.408C127.235 137.653 126.856 137.845 126.408 137.984C125.971 138.123 125.48 138.192 124.936 138.192ZM133.655 138.192C133.015 138.192 132.444 138.091 131.943 137.888C131.442 137.675 131.015 137.381 130.663 137.008C130.322 136.624 130.06 136.16 129.879 135.616C129.708 135.072 129.623 134.464 129.623 133.792C129.623 133.131 129.708 132.533 129.879 132C130.05 131.456 130.3 130.992 130.631 130.608C130.972 130.224 131.388 129.931 131.879 129.728C132.37 129.515 132.93 129.408 133.559 129.408C134.252 129.408 134.844 129.525 135.335 129.76C135.836 129.995 136.242 130.309 136.551 130.704C136.871 131.099 137.1 131.557 137.239 132.08C137.388 132.592 137.463 133.131 137.463 133.696V134.4H132.071V134.528C132.071 135.083 132.22 135.525 132.519 135.856C132.818 136.176 133.287 136.336 133.927 136.336C134.418 136.336 134.818 136.24 135.127 136.048C135.436 135.845 135.724 135.605 135.991 135.328L137.175 136.8C136.802 137.237 136.311 137.579 135.703 137.824C135.106 138.069 134.423 138.192 133.655 138.192ZM133.607 131.152C133.127 131.152 132.748 131.312 132.471 131.632C132.204 131.941 132.071 132.357 132.071 132.88V133.008H135.015V132.864C135.015 132.352 134.898 131.941 134.663 131.632C134.439 131.312 134.087 131.152 133.607 131.152ZM142.527 138.192C141.898 138.192 141.338 138.091 140.847 137.888C140.357 137.675 139.946 137.381 139.615 137.008C139.285 136.624 139.034 136.16 138.863 135.616C138.693 135.072 138.607 134.464 138.607 133.792C138.607 133.12 138.693 132.517 138.863 131.984C139.034 131.44 139.285 130.976 139.615 130.592C139.946 130.208 140.357 129.915 140.847 129.712C141.338 129.509 141.898 129.408 142.527 129.408C143.381 129.408 144.09 129.6 144.655 129.984C145.231 130.368 145.642 130.907 145.887 131.6L143.967 132.432C143.893 132.112 143.738 131.84 143.503 131.616C143.269 131.392 142.943 131.28 142.527 131.28C142.047 131.28 141.685 131.44 141.439 131.76C141.194 132.069 141.071 132.491 141.071 133.024V134.592C141.071 135.125 141.194 135.547 141.439 135.856C141.685 136.165 142.047 136.32 142.527 136.32C142.954 136.32 143.29 136.208 143.535 135.984C143.791 135.749 143.978 135.445 144.095 135.072L145.935 135.872C145.658 136.672 145.226 137.259 144.639 137.632C144.063 138.005 143.359 138.192 142.527 138.192ZM150.345 138C149.524 138 148.9 137.792 148.473 137.376C148.057 136.96 147.849 136.352 147.849 135.552V131.44H146.665V129.6H147.257C147.577 129.6 147.796 129.525 147.913 129.376C148.03 129.216 148.089 128.992 148.089 128.704V127.328H150.217V129.6H151.881V131.44H150.217V136.16H151.753V138H150.345ZM156.967 138.192C156.327 138.192 155.757 138.091 155.255 137.888C154.754 137.675 154.327 137.381 153.975 137.008C153.634 136.624 153.373 136.16 153.191 135.616C153.021 135.072 152.935 134.464 152.935 133.792C152.935 133.131 153.021 132.533 153.191 132C153.362 131.456 153.613 130.992 153.943 130.608C154.285 130.224 154.701 129.931 155.191 129.728C155.682 129.515 156.242 129.408 156.871 129.408C157.565 129.408 158.157 129.525 158.647 129.76C159.149 129.995 159.554 130.309 159.863 130.704C160.183 131.099 160.413 131.557 160.551 132.08C160.701 132.592 160.775 133.131 160.775 133.696V134.4H155.383V134.528C155.383 135.083 155.533 135.525 155.831 135.856C156.13 136.176 156.599 136.336 157.239 136.336C157.73 136.336 158.13 136.24 158.439 136.048C158.749 135.845 159.037 135.605 159.303 135.328L160.487 136.8C160.114 137.237 159.623 137.579 159.015 137.824C158.418 138.069 157.735 138.192 156.967 138.192ZM156.919 131.152C156.439 131.152 156.061 131.312 155.783 131.632C155.517 131.941 155.383 132.357 155.383 132.88V133.008H158.327V132.864C158.327 132.352 158.21 131.941 157.975 131.632C157.751 131.312 157.399 131.152 156.919 131.152ZM165.392 138C164.57 138 163.946 137.792 163.52 137.376C163.104 136.96 162.896 136.352 162.896 135.552V131.44H161.712V129.6H162.304C162.624 129.6 162.842 129.525 162.96 129.376C163.077 129.216 163.136 128.992 163.136 128.704V127.328H165.264V129.6H166.928V131.44H165.264V136.16H166.8V138H165.392ZM173.533 136.592H173.453C173.378 136.805 173.277 137.008 173.149 137.2C173.031 137.392 172.877 137.563 172.685 137.712C172.493 137.861 172.263 137.979 171.997 138.064C171.741 138.149 171.442 138.192 171.101 138.192C170.237 138.192 169.581 137.909 169.133 137.344C168.695 136.768 168.477 135.947 168.477 134.88V129.6H170.845V134.672C170.845 135.184 170.935 135.579 171.117 135.856C171.298 136.133 171.607 136.272 172.045 136.272C172.226 136.272 172.407 136.245 172.589 136.192C172.77 136.139 172.93 136.064 173.069 135.968C173.207 135.861 173.319 135.733 173.405 135.584C173.49 135.435 173.533 135.259 173.533 135.056V129.6H175.901V138H173.533V136.592ZM178.104 138V129.6H180.472V131.424H180.552C180.595 131.189 180.669 130.965 180.776 130.752C180.883 130.528 181.021 130.331 181.192 130.16C181.373 129.989 181.587 129.856 181.832 129.76C182.077 129.653 182.365 129.6 182.696 129.6H183.112V131.808H182.52C181.827 131.808 181.309 131.899 180.968 132.08C180.637 132.261 180.472 132.597 180.472 133.088V138H178.104ZM194.562 138C194.135 138 193.778 137.867 193.49 137.6C193.213 137.333 193.037 136.976 192.962 136.528H192.866C192.738 137.072 192.455 137.488 192.018 137.776C191.581 138.053 191.042 138.192 190.402 138.192C189.559 138.192 188.914 137.968 188.466 137.52C188.018 137.072 187.794 136.48 187.794 135.744C187.794 134.859 188.114 134.203 188.754 133.776C189.405 133.339 190.285 133.12 191.394 133.12H192.722V132.592C192.722 132.187 192.615 131.867 192.402 131.632C192.189 131.387 191.831 131.264 191.33 131.264C190.861 131.264 190.487 131.365 190.21 131.568C189.933 131.771 189.703 132 189.522 132.256L188.114 131.008C188.455 130.507 188.882 130.117 189.394 129.84C189.917 129.552 190.621 129.408 191.506 129.408C192.701 129.408 193.597 129.669 194.194 130.192C194.791 130.715 195.09 131.477 195.09 132.48V136.16H195.874V138H194.562ZM191.282 136.544C191.677 136.544 192.013 136.459 192.29 136.288C192.578 136.117 192.722 135.84 192.722 135.456V134.464H191.57C190.642 134.464 190.178 134.779 190.178 135.408V135.648C190.178 135.957 190.274 136.187 190.466 136.336C190.658 136.475 190.93 136.544 191.282 136.544ZM202.615 136.592H202.535C202.471 136.816 202.37 137.029 202.231 137.232C202.093 137.424 201.922 137.595 201.719 137.744C201.527 137.883 201.303 137.989 201.047 138.064C200.802 138.149 200.546 138.192 200.279 138.192C199.213 138.192 198.407 137.819 197.863 137.072C197.319 136.315 197.047 135.221 197.047 133.792C197.047 132.363 197.319 131.275 197.863 130.528C198.407 129.781 199.213 129.408 200.279 129.408C200.823 129.408 201.303 129.557 201.719 129.856C202.146 130.155 202.418 130.539 202.535 131.008H202.615V126.16H204.983V138H202.615V136.592ZM201.063 136.272C201.511 136.272 201.879 136.165 202.167 135.952C202.466 135.728 202.615 135.424 202.615 135.04V132.56C202.615 132.176 202.466 131.877 202.167 131.664C201.879 131.44 201.511 131.328 201.063 131.328C200.615 131.328 200.242 131.488 199.943 131.808C199.655 132.117 199.511 132.539 199.511 133.072V134.528C199.511 135.061 199.655 135.488 199.943 135.808C200.242 136.117 200.615 136.272 201.063 136.272ZM208.382 128.704C207.902 128.704 207.55 128.597 207.326 128.384C207.112 128.16 207.006 127.877 207.006 127.536V127.184C207.006 126.843 207.112 126.565 207.326 126.352C207.55 126.128 207.902 126.016 208.382 126.016C208.862 126.016 209.208 126.128 209.422 126.352C209.646 126.565 209.758 126.843 209.758 127.184V127.536C209.758 127.877 209.646 128.16 209.422 128.384C209.208 128.597 208.862 128.704 208.382 128.704ZM207.198 129.6H209.566V138H207.198V129.6ZM211.776 129.6H214.144V131.008H214.224C214.341 130.539 214.608 130.155 215.024 129.856C215.451 129.557 215.936 129.408 216.48 129.408C217.547 129.408 218.352 129.781 218.896 130.528C219.44 131.275 219.712 132.363 219.712 133.792C219.712 135.221 219.44 136.315 218.896 137.072C218.352 137.819 217.547 138.192 216.48 138.192C216.203 138.192 215.941 138.149 215.696 138.064C215.451 137.989 215.227 137.883 215.024 137.744C214.832 137.595 214.667 137.424 214.528 137.232C214.389 137.029 214.288 136.816 214.224 136.592H214.144V141.2H211.776V129.6ZM215.696 136.272C216.144 136.272 216.512 136.117 216.8 135.808C217.099 135.488 217.248 135.061 217.248 134.528V133.072C217.248 132.539 217.099 132.117 216.8 131.808C216.512 131.488 216.144 131.328 215.696 131.328C215.248 131.328 214.875 131.44 214.576 131.664C214.288 131.877 214.144 132.176 214.144 132.56V135.04C214.144 135.424 214.288 135.728 214.576 135.952C214.875 136.165 215.248 136.272 215.696 136.272ZM222.694 128.704C222.214 128.704 221.862 128.597 221.638 128.384C221.425 128.16 221.318 127.877 221.318 127.536V127.184C221.318 126.843 221.425 126.565 221.638 126.352C221.862 126.128 222.214 126.016 222.694 126.016C223.174 126.016 223.521 126.128 223.734 126.352C223.958 126.565 224.07 126.843 224.07 127.184V127.536C224.07 127.877 223.958 128.16 223.734 128.384C223.521 128.597 223.174 128.704 222.694 128.704ZM221.51 129.6H223.878V138H221.51V129.6ZM228.936 138.192C228.126 138.192 227.443 138.064 226.888 137.808C226.334 137.541 225.838 137.168 225.4 136.688L226.792 135.28C227.091 135.611 227.422 135.872 227.784 136.064C228.147 136.256 228.558 136.352 229.016 136.352C229.486 136.352 229.811 136.283 229.992 136.144C230.174 135.995 230.264 135.797 230.264 135.552C230.264 135.157 229.982 134.923 229.416 134.848L228.504 134.736C226.616 134.501 225.672 133.637 225.672 132.144C225.672 131.739 225.747 131.371 225.896 131.04C226.056 130.699 226.275 130.411 226.552 130.176C226.84 129.931 227.182 129.744 227.576 129.616C227.982 129.477 228.435 129.408 228.936 129.408C229.374 129.408 229.758 129.44 230.088 129.504C230.43 129.557 230.728 129.643 230.984 129.76C231.251 129.867 231.491 130.005 231.704 130.176C231.928 130.336 232.147 130.517 232.36 130.72L231 132.112C230.734 131.845 230.43 131.637 230.088 131.488C229.758 131.328 229.416 131.248 229.064 131.248C228.659 131.248 228.371 131.312 228.2 131.44C228.03 131.568 227.944 131.739 227.944 131.952C227.944 132.176 228.003 132.352 228.12 132.48C228.248 132.597 228.483 132.683 228.824 132.736L229.768 132.864C231.614 133.109 232.536 133.952 232.536 135.392C232.536 135.797 232.451 136.171 232.28 136.512C232.11 136.853 231.864 137.152 231.544 137.408C231.235 137.653 230.856 137.845 230.408 137.984C229.971 138.123 229.48 138.192 228.936 138.192ZM237.543 138.192C236.914 138.192 236.354 138.091 235.863 137.888C235.372 137.675 234.962 137.381 234.631 137.008C234.3 136.624 234.05 136.16 233.879 135.616C233.708 135.072 233.623 134.464 233.623 133.792C233.623 133.12 233.708 132.517 233.879 131.984C234.05 131.44 234.3 130.976 234.631 130.592C234.962 130.208 235.372 129.915 235.863 129.712C236.354 129.509 236.914 129.408 237.543 129.408C238.396 129.408 239.106 129.6 239.671 129.984C240.247 130.368 240.658 130.907 240.903 131.6L238.983 132.432C238.908 132.112 238.754 131.84 238.519 131.616C238.284 131.392 237.959 131.28 237.543 131.28C237.063 131.28 236.7 131.44 236.455 131.76C236.21 132.069 236.087 132.491 236.087 133.024V134.592C236.087 135.125 236.21 135.547 236.455 135.856C236.7 136.165 237.063 136.32 237.543 136.32C237.97 136.32 238.306 136.208 238.551 135.984C238.807 135.749 238.994 135.445 239.111 135.072L240.951 135.872C240.674 136.672 240.242 137.259 239.655 137.632C239.079 138.005 238.375 138.192 237.543 138.192ZM243.601 128.704C243.121 128.704 242.769 128.597 242.545 128.384C242.331 128.16 242.225 127.877 242.225 127.536V127.184C242.225 126.843 242.331 126.565 242.545 126.352C242.769 126.128 243.121 126.016 243.601 126.016C244.081 126.016 244.427 126.128 244.641 126.352C244.865 126.565 244.977 126.843 244.977 127.184V127.536C244.977 127.877 244.865 128.16 244.641 128.384C244.427 128.597 244.081 128.704 243.601 128.704ZM242.417 129.6H244.785V138H242.417V129.6ZM246.995 138V129.6H249.363V131.024H249.459C249.608 130.587 249.869 130.208 250.243 129.888C250.616 129.568 251.133 129.408 251.795 129.408C252.659 129.408 253.309 129.696 253.747 130.272C254.195 130.848 254.419 131.669 254.419 132.736V138H252.051V132.928C252.051 132.384 251.965 131.984 251.795 131.728C251.624 131.461 251.32 131.328 250.883 131.328C250.691 131.328 250.504 131.355 250.323 131.408C250.141 131.451 249.976 131.525 249.827 131.632C249.688 131.739 249.576 131.872 249.491 132.032C249.405 132.181 249.363 132.357 249.363 132.56V138H246.995ZM264.302 138.608C264.302 139.056 264.222 139.451 264.062 139.792C263.913 140.133 263.662 140.421 263.31 140.656C262.958 140.901 262.489 141.083 261.902 141.2C261.326 141.328 260.611 141.392 259.758 141.392C259.033 141.392 258.414 141.344 257.902 141.248C257.401 141.163 256.99 141.035 256.67 140.864C256.361 140.704 256.131 140.501 255.982 140.256C255.843 140.021 255.774 139.749 255.774 139.44C255.774 138.971 255.913 138.603 256.19 138.336C256.467 138.069 256.851 137.904 257.342 137.84V137.664C256.937 137.589 256.633 137.419 256.43 137.152C256.227 136.875 256.126 136.555 256.126 136.192C256.126 135.968 256.169 135.776 256.254 135.616C256.35 135.445 256.467 135.301 256.606 135.184C256.755 135.056 256.926 134.955 257.118 134.88C257.31 134.805 257.502 134.747 257.694 134.704V134.64C257.182 134.405 256.803 134.085 256.558 133.68C256.313 133.264 256.19 132.784 256.19 132.24C256.19 131.387 256.483 130.704 257.07 130.192C257.667 129.669 258.574 129.408 259.79 129.408C260.345 129.408 260.819 129.461 261.214 129.568V129.248C261.214 128.8 261.321 128.48 261.534 128.288C261.758 128.085 262.073 127.984 262.478 127.984H263.806V129.744H261.95V129.84C262.441 130.075 262.803 130.4 263.038 130.816C263.273 131.221 263.39 131.696 263.39 132.24C263.39 133.083 263.091 133.76 262.494 134.272C261.907 134.773 261.006 135.024 259.79 135.024C259.246 135.024 258.75 134.965 258.302 134.848C258.057 135.008 257.934 135.232 257.934 135.52C257.934 135.723 258.009 135.883 258.158 136C258.318 136.107 258.579 136.16 258.942 136.16H261.374C262.398 136.16 263.139 136.373 263.598 136.8C264.067 137.227 264.302 137.829 264.302 138.608ZM262.078 138.928C262.078 138.683 261.982 138.496 261.79 138.368C261.598 138.24 261.262 138.176 260.782 138.176H257.902C257.795 138.283 257.715 138.4 257.662 138.528C257.619 138.667 257.598 138.8 257.598 138.928C257.598 139.237 257.731 139.461 257.998 139.6C258.265 139.749 258.718 139.824 259.358 139.824H260.318C260.958 139.824 261.411 139.749 261.678 139.6C261.945 139.461 262.078 139.237 262.078 138.928ZM259.79 133.472C260.259 133.472 260.606 133.376 260.83 133.184C261.065 132.981 261.182 132.693 261.182 132.32V132.128C261.182 131.755 261.065 131.472 260.83 131.28C260.606 131.077 260.259 130.976 259.79 130.976C259.321 130.976 258.969 131.077 258.734 131.28C258.51 131.472 258.398 131.755 258.398 132.128V132.32C258.398 132.693 258.51 132.981 258.734 133.184C258.969 133.376 259.321 133.472 259.79 133.472ZM272.639 138.192C271.999 138.192 271.429 138.091 270.927 137.888C270.426 137.675 269.999 137.381 269.647 137.008C269.306 136.624 269.045 136.16 268.863 135.616C268.693 135.072 268.607 134.464 268.607 133.792C268.607 133.131 268.693 132.533 268.863 132C269.034 131.456 269.285 130.992 269.615 130.608C269.957 130.224 270.373 129.931 270.863 129.728C271.354 129.515 271.914 129.408 272.543 129.408C273.237 129.408 273.829 129.525 274.319 129.76C274.821 129.995 275.226 130.309 275.535 130.704C275.855 131.099 276.085 131.557 276.223 132.08C276.373 132.592 276.447 133.131 276.447 133.696V134.4H271.055V134.528C271.055 135.083 271.205 135.525 271.503 135.856C271.802 136.176 272.271 136.336 272.911 136.336C273.402 136.336 273.802 136.24 274.111 136.048C274.421 135.845 274.709 135.605 274.975 135.328L276.159 136.8C275.786 137.237 275.295 137.579 274.687 137.824C274.09 138.069 273.407 138.192 272.639 138.192ZM272.591 131.152C272.111 131.152 271.733 131.312 271.455 131.632C271.189 131.941 271.055 132.357 271.055 132.88V133.008H273.999V132.864C273.999 132.352 273.882 131.941 273.647 131.632C273.423 131.312 273.071 131.152 272.591 131.152ZM280.472 138C279.661 138 279.064 137.803 278.68 137.408C278.306 137.013 278.12 136.443 278.12 135.696V126.16H280.488V136.16H281.544V138H280.472ZM284.147 128.704C283.667 128.704 283.315 128.597 283.091 128.384C282.878 128.16 282.771 127.877 282.771 127.536V127.184C282.771 126.843 282.878 126.565 283.091 126.352C283.315 126.128 283.667 126.016 284.147 126.016C284.627 126.016 284.974 126.128 285.187 126.352C285.411 126.565 285.523 126.843 285.523 127.184V127.536C285.523 127.877 285.411 128.16 285.187 128.384C284.974 128.597 284.627 128.704 284.147 128.704ZM282.963 129.6H285.331V138H282.963V129.6ZM290.486 138C289.664 138 289.04 137.792 288.614 137.376C288.198 136.96 287.99 136.352 287.99 135.552V131.44H286.806V129.6H287.398C287.718 129.6 287.936 129.525 288.054 129.376C288.171 129.216 288.23 128.992 288.23 128.704V127.328H290.358V129.6H292.022V131.44H290.358V136.16H291.894V138H290.486Z" fill="#1A1A1A"/>
<rect x="40" y="160" width="40" height="40" rx="20" fill="#F5F5F5"/>
<path d="M56.7546 186H49.4266V184.624L53.0746 181.264C53.5972 180.784 54.0346 180.277 54.3866 179.744C54.7386 179.2 54.9146 178.656 54.9146 178.112V177.92C54.9146 177.301 54.7439 176.8 54.4026 176.416C54.0612 176.032 53.5439 175.84 52.8506 175.84C52.5092 175.84 52.2106 175.888 51.9546 175.984C51.6986 176.08 51.4746 176.213 51.2826 176.384C51.1012 176.555 50.9466 176.757 50.8186 176.992C50.7012 177.216 50.6052 177.461 50.5306 177.728L49.3306 177.264C49.4372 176.933 49.5812 176.613 49.7626 176.304C49.9546 175.984 50.1892 175.701 50.4666 175.456C50.7546 175.211 51.0959 175.013 51.4906 174.864C51.8959 174.715 52.3706 174.64 52.9146 174.64C53.4586 174.64 53.9439 174.72 54.3706 174.88C54.7972 175.04 55.1546 175.264 55.4426 175.552C55.7306 175.84 55.9492 176.181 56.0986 176.576C56.2586 176.971 56.3386 177.408 56.3386 177.888C56.3386 178.325 56.2746 178.731 56.1466 179.104C56.0292 179.477 55.8639 179.835 55.6506 180.176C55.4372 180.507 55.1759 180.832 54.8666 181.152C54.5679 181.472 54.2426 181.792 53.8906 182.112L50.8826 184.816H56.7546V186ZM59.9963 186.192C59.655 186.192 59.4043 186.107 59.2443 185.936C59.095 185.765 59.0203 185.541 59.0203 185.264V185.056C59.0203 184.779 59.095 184.555 59.2443 184.384C59.4043 184.213 59.655 184.128 59.9963 184.128C60.3376 184.128 60.583 184.213 60.7323 184.384C60.8923 184.555 60.9723 184.779 60.9723 185.056V185.264C60.9723 185.541 60.8923 185.765 60.7323 185.936C60.583 186.107 60.3376 186.192 59.9963 186.192ZM70.7077 186H63.3797V184.624L67.0277 181.264C67.5504 180.784 67.9877 180.277 68.3397 179.744C68.6917 179.2 68.8677 178.656 68.8677 178.112V177.92C68.8677 177.301 68.697 176.8 68.3557 176.416C68.0144 176.032 67.497 175.84 66.8037 175.84C66.4624 175.84 66.1637 175.888 65.9077 175.984C65.6517 176.08 65.4277 176.213 65.2357 176.384C65.0544 176.555 64.8997 176.757 64.7717 176.992C64.6544 177.216 64.5584 177.461 64.4837 177.728L63.2837 177.264C63.3904 176.933 63.5344 176.613 63.7157 176.304C63.9077 175.984 64.1424 175.701 64.4197 175.456C64.7077 175.211 65.049 175.013 65.4437 174.864C65.849 174.715 66.3237 174.64 66.8677 174.64C67.4117 174.64 67.897 174.72 68.3237 174.88C68.7504 175.04 69.1077 175.264 69.3957 175.552C69.6837 175.84 69.9024 176.181 70.0517 176.576C70.2117 176.971 70.2917 177.408 70.2917 177.888C70.2917 178.325 70.2277 178.731 70.0997 179.104C69.9824 179.477 69.817 179.835 69.6037 180.176C69.3904 180.507 69.129 180.832 68.8197 181.152C68.521 181.472 68.1957 181.792 67.8437 182.112L64.8357 184.816H70.7077V186Z" fill="#1A1A1A"/>
<path d="M96.624 186.192C95.7173 186.192 94.944 186.021 94.304 185.68C93.664 185.328 93.12 184.848 92.672 184.24L93.664 183.408C94.0587 183.931 94.496 184.331 94.976 184.608C95.456 184.875 96.0213 185.008 96.672 185.008C97.472 185.008 98.08 184.816 98.496 184.432C98.9227 184.048 99.136 183.536 99.136 182.896C99.136 182.363 98.976 181.952 98.656 181.664C98.336 181.376 97.808 181.147 97.072 180.976L96.16 180.768C95.136 180.533 94.352 180.181 93.808 179.712C93.2747 179.232 93.008 178.56 93.008 177.696C93.008 177.205 93.0987 176.768 93.28 176.384C93.4613 176 93.712 175.68 94.032 175.424C94.3627 175.168 94.752 174.976 95.2 174.848C95.6587 174.709 96.16 174.64 96.704 174.64C97.5467 174.64 98.2667 174.795 98.864 175.104C99.472 175.413 99.984 175.867 100.4 176.464L99.392 177.2C99.0827 176.773 98.7093 176.437 98.272 176.192C97.8347 175.947 97.2907 175.824 96.64 175.824C95.9253 175.824 95.36 175.979 94.944 176.288C94.5387 176.587 94.336 177.04 94.336 177.648C94.336 178.181 94.5067 178.587 94.848 178.864C95.2 179.131 95.728 179.344 96.432 179.504L97.344 179.712C98.4427 179.957 99.2373 180.331 99.728 180.832C100.219 181.333 100.464 182 100.464 182.832C100.464 183.344 100.373 183.808 100.192 184.224C100.021 184.64 99.7707 184.992 99.44 185.28C99.1093 185.568 98.704 185.792 98.224 185.952C97.7547 186.112 97.2213 186.192 96.624 186.192ZM105.761 186.192C105.196 186.192 104.684 186.091 104.225 185.888C103.777 185.685 103.388 185.397 103.057 185.024C102.737 184.64 102.486 184.187 102.305 183.664C102.134 183.131 102.049 182.533 102.049 181.872C102.049 181.221 102.134 180.629 102.305 180.096C102.486 179.563 102.737 179.109 103.057 178.736C103.388 178.352 103.777 178.059 104.225 177.856C104.684 177.653 105.196 177.552 105.761 177.552C106.316 177.552 106.812 177.653 107.249 177.856C107.686 178.059 108.06 178.341 108.369 178.704C108.678 179.056 108.913 179.477 109.073 179.968C109.244 180.459 109.329 180.997 109.329 181.584V182.192H103.393V182.576C103.393 182.928 103.446 183.259 103.553 183.568C103.67 183.867 103.83 184.128 104.033 184.352C104.246 184.576 104.502 184.752 104.801 184.88C105.11 185.008 105.457 185.072 105.841 185.072C106.364 185.072 106.817 184.949 107.201 184.704C107.596 184.459 107.9 184.107 108.113 183.648L109.025 184.304C108.758 184.869 108.342 185.328 107.777 185.68C107.212 186.021 106.54 186.192 105.761 186.192ZM105.761 178.624C105.409 178.624 105.089 178.688 104.801 178.816C104.513 178.933 104.262 179.104 104.049 179.328C103.846 179.552 103.686 179.819 103.569 180.128C103.452 180.427 103.393 180.757 103.393 181.12V181.232H107.953V181.056C107.953 180.32 107.75 179.733 107.345 179.296C106.95 178.848 106.422 178.624 105.761 178.624ZM116.718 184.656H116.654C116.153 185.68 115.347 186.192 114.238 186.192C113.726 186.192 113.262 186.091 112.846 185.888C112.43 185.685 112.073 185.397 111.774 185.024C111.486 184.651 111.262 184.197 111.102 183.664C110.953 183.131 110.878 182.533 110.878 181.872C110.878 181.211 110.953 180.613 111.102 180.08C111.262 179.547 111.486 179.093 111.774 178.72C112.073 178.347 112.43 178.059 112.846 177.856C113.262 177.653 113.726 177.552 114.238 177.552C114.814 177.552 115.305 177.68 115.71 177.936C116.126 178.181 116.441 178.565 116.654 179.088H116.718V174.16H117.998V186H116.718V184.656ZM114.59 185.04C114.878 185.04 115.15 185.003 115.406 184.928C115.673 184.853 115.902 184.747 116.094 184.608C116.286 184.459 116.435 184.283 116.542 184.08C116.659 183.867 116.718 183.627 116.718 183.36V180.288C116.718 180.064 116.659 179.856 116.542 179.664C116.435 179.461 116.286 179.291 116.094 179.152C115.902 179.013 115.673 178.907 115.406 178.832C115.15 178.747 114.878 178.704 114.59 178.704C113.865 178.704 113.294 178.933 112.878 179.392C112.462 179.84 112.254 180.432 112.254 181.168V182.576C112.254 183.312 112.462 183.909 112.878 184.368C113.294 184.816 113.865 185.04 114.59 185.04ZM129.781 184.656H129.717C129.215 185.68 128.41 186.192 127.301 186.192C126.789 186.192 126.325 186.091 125.909 185.888C125.493 185.685 125.135 185.397 124.837 185.024C124.549 184.651 124.325 184.197 124.165 183.664C124.015 183.131 123.941 182.533 123.941 181.872C123.941 181.211 124.015 180.613 124.165 180.08C124.325 179.547 124.549 179.093 124.837 178.72C125.135 178.347 125.493 178.059 125.909 177.856C126.325 177.653 126.789 177.552 127.301 177.552C127.877 177.552 128.367 177.68 128.773 177.936C129.189 178.181 129.503 178.565 129.717 179.088H129.781V174.16H131.061V186H129.781V184.656ZM127.653 185.04C127.941 185.04 128.213 185.003 128.469 184.928C128.735 184.853 128.965 184.747 129.157 184.608C129.349 184.459 129.498 184.283 129.605 184.08C129.722 183.867 129.781 183.627 129.781 183.36V180.288C129.781 180.064 129.722 179.856 129.605 179.664C129.498 179.461 129.349 179.291 129.157 179.152C128.965 179.013 128.735 178.907 128.469 178.832C128.213 178.747 127.941 178.704 127.653 178.704C126.927 178.704 126.357 178.933 125.941 179.392C125.525 179.84 125.317 180.432 125.317 181.168V182.576C125.317 183.312 125.525 183.909 125.941 184.368C126.357 184.816 126.927 185.04 127.653 185.04ZM136.902 186.192C136.347 186.192 135.841 186.091 135.382 185.888C134.923 185.685 134.529 185.397 134.198 185.024C133.878 184.64 133.627 184.187 133.446 183.664C133.265 183.131 133.174 182.533 133.174 181.872C133.174 181.221 133.265 180.629 133.446 180.096C133.627 179.563 133.878 179.109 134.198 178.736C134.529 178.352 134.923 178.059 135.382 177.856C135.841 177.653 136.347 177.552 136.902 177.552C137.457 177.552 137.958 177.653 138.406 177.856C138.865 178.059 139.259 178.352 139.59 178.736C139.921 179.109 140.177 179.563 140.358 180.096C140.539 180.629 140.63 181.221 140.63 181.872C140.63 182.533 140.539 183.131 140.358 183.664C140.177 184.187 139.921 184.64 139.59 185.024C139.259 185.397 138.865 185.685 138.406 185.888C137.958 186.091 137.457 186.192 136.902 186.192ZM136.902 185.056C137.595 185.056 138.161 184.843 138.598 184.416C139.035 183.989 139.254 183.339 139.254 182.464V181.28C139.254 180.405 139.035 179.755 138.598 179.328C138.161 178.901 137.595 178.688 136.902 178.688C136.209 178.688 135.643 178.901 135.206 179.328C134.769 179.755 134.55 180.405 134.55 181.28V182.464C134.55 183.339 134.769 183.989 135.206 184.416C135.643 184.843 136.209 185.056 136.902 185.056ZM149.62 186.192C149.055 186.192 148.543 186.091 148.084 185.888C147.636 185.685 147.247 185.397 146.916 185.024C146.596 184.64 146.346 184.187 146.164 183.664C145.994 183.131 145.908 182.533 145.908 181.872C145.908 181.221 145.994 180.629 146.164 180.096C146.346 179.563 146.596 179.109 146.916 178.736C147.247 178.352 147.636 178.059 148.084 177.856C148.543 177.653 149.055 177.552 149.62 177.552C150.175 177.552 150.671 177.653 151.108 177.856C151.546 178.059 151.919 178.341 152.228 178.704C152.538 179.056 152.772 179.477 152.932 179.968C153.103 180.459 153.188 180.997 153.188 181.584V182.192H147.252V182.576C147.252 182.928 147.306 183.259 147.412 183.568C147.53 183.867 147.69 184.128 147.892 184.352C148.106 184.576 148.362 184.752 148.66 184.88C148.97 185.008 149.316 185.072 149.7 185.072C150.223 185.072 150.676 184.949 151.06 184.704C151.455 184.459 151.759 184.107 151.972 183.648L152.884 184.304C152.618 184.869 152.202 185.328 151.636 185.68C151.071 186.021 150.399 186.192 149.62 186.192ZM149.62 178.624C149.268 178.624 148.948 178.688 148.66 178.816C148.372 178.933 148.122 179.104 147.908 179.328C147.706 179.552 147.546 179.819 147.428 180.128C147.311 180.427 147.252 180.757 147.252 181.12V181.232H151.812V181.056C151.812 180.32 151.61 179.733 151.204 179.296C150.81 178.848 150.282 178.624 149.62 178.624ZM155.938 175.808C155.66 175.808 155.458 175.744 155.33 175.616C155.212 175.477 155.154 175.301 155.154 175.088V174.88C155.154 174.667 155.212 174.496 155.33 174.368C155.458 174.229 155.66 174.16 155.938 174.16C156.215 174.16 156.412 174.229 156.53 174.368C156.658 174.496 156.722 174.667 156.722 174.88V175.088C156.722 175.301 156.658 175.477 156.53 175.616C156.412 175.744 156.215 175.808 155.938 175.808ZM155.298 177.744H156.578V186H155.298V177.744ZM164.386 184.656H164.322C164.236 184.848 164.13 185.04 164.002 185.232C163.884 185.413 163.735 185.579 163.554 185.728C163.372 185.867 163.154 185.979 162.898 186.064C162.642 186.149 162.343 186.192 162.002 186.192C161.148 186.192 160.471 185.92 159.97 185.376C159.468 184.821 159.218 184.043 159.218 183.04V177.744H160.498V182.816C160.498 184.299 161.127 185.04 162.386 185.04C162.642 185.04 162.887 185.008 163.122 184.944C163.367 184.88 163.58 184.784 163.762 184.656C163.954 184.528 164.103 184.368 164.21 184.176C164.327 183.973 164.386 183.733 164.386 183.456V177.744H165.666V186H164.386V184.656ZM170.871 186.192C170.103 186.192 169.458 186.048 168.935 185.76C168.423 185.461 167.981 185.067 167.607 184.576L168.519 183.84C168.839 184.245 169.197 184.56 169.591 184.784C169.986 184.997 170.445 185.104 170.967 185.104C171.511 185.104 171.933 184.987 172.231 184.752C172.541 184.517 172.695 184.187 172.695 183.76C172.695 183.44 172.589 183.168 172.375 182.944C172.173 182.709 171.799 182.549 171.255 182.464L170.599 182.368C170.215 182.315 169.863 182.235 169.543 182.128C169.223 182.011 168.941 181.861 168.695 181.68C168.461 181.488 168.274 181.253 168.135 180.976C168.007 180.699 167.943 180.368 167.943 179.984C167.943 179.579 168.018 179.227 168.167 178.928C168.317 178.619 168.519 178.363 168.775 178.16C169.042 177.957 169.357 177.808 169.719 177.712C170.082 177.605 170.471 177.552 170.887 177.552C171.559 177.552 172.119 177.669 172.567 177.904C173.026 178.139 173.426 178.464 173.767 178.88L172.919 179.648C172.738 179.392 172.471 179.163 172.119 178.96C171.767 178.747 171.325 178.64 170.791 178.64C170.258 178.64 169.853 178.757 169.575 178.992C169.309 179.216 169.175 179.525 169.175 179.92C169.175 180.325 169.309 180.619 169.575 180.8C169.853 180.981 170.247 181.115 170.759 181.2L171.399 181.296C172.317 181.435 172.967 181.701 173.351 182.096C173.735 182.48 173.927 182.987 173.927 183.616C173.927 184.416 173.655 185.045 173.111 185.504C172.567 185.963 171.821 186.192 170.871 186.192ZM176.188 186V177.744H177.468V179.088H177.532C177.628 178.875 177.735 178.677 177.852 178.496C177.98 178.304 178.129 178.139 178.3 178C178.481 177.861 178.689 177.755 178.924 177.68C179.159 177.595 179.436 177.552 179.756 177.552C180.3 177.552 180.801 177.685 181.26 177.952C181.719 178.208 182.06 178.635 182.284 179.232H182.316C182.465 178.784 182.743 178.395 183.148 178.064C183.564 177.723 184.124 177.552 184.828 177.552C185.671 177.552 186.327 177.829 186.796 178.384C187.276 178.928 187.516 179.701 187.516 180.704V186H186.236V180.928C186.236 180.192 186.092 179.637 185.804 179.264C185.516 178.891 185.057 178.704 184.428 178.704C184.172 178.704 183.927 178.736 183.692 178.8C183.468 178.864 183.265 178.96 183.084 179.088C182.903 179.216 182.759 179.381 182.652 179.584C182.545 179.776 182.492 180.005 182.492 180.272V186H181.212V180.928C181.212 180.192 181.068 179.637 180.78 179.264C180.492 178.891 180.044 178.704 179.436 178.704C179.18 178.704 178.935 178.736 178.7 178.8C178.465 178.864 178.257 178.96 178.076 179.088C177.895 179.216 177.745 179.381 177.628 179.584C177.521 179.776 177.468 180.005 177.468 180.272V186H176.188ZM193.277 186.192C192.722 186.192 192.216 186.091 191.757 185.888C191.298 185.685 190.904 185.397 190.573 185.024C190.253 184.64 190.002 184.187 189.821 183.664C189.64 183.131 189.549 182.533 189.549 181.872C189.549 181.221 189.64 180.629 189.821 180.096C190.002 179.563 190.253 179.109 190.573 178.736C190.904 178.352 191.298 178.059 191.757 177.856C192.216 177.653 192.722 177.552 193.277 177.552C193.832 177.552 194.333 177.653 194.781 177.856C195.24 178.059 195.634 178.352 195.965 178.736C196.296 179.109 196.552 179.563 196.733 180.096C196.914 180.629 197.005 181.221 197.005 181.872C197.005 182.533 196.914 183.131 196.733 183.664C196.552 184.187 196.296 184.64 195.965 185.024C195.634 185.397 195.24 185.685 194.781 185.888C194.333 186.091 193.832 186.192 193.277 186.192ZM193.277 185.056C193.97 185.056 194.536 184.843 194.973 184.416C195.41 183.989 195.629 183.339 195.629 182.464V181.28C195.629 180.405 195.41 179.755 194.973 179.328C194.536 178.901 193.97 178.688 193.277 178.688C192.584 178.688 192.018 178.901 191.581 179.328C191.144 179.755 190.925 180.405 190.925 181.28V182.464C190.925 183.339 191.144 183.989 191.581 184.416C192.018 184.843 192.584 185.056 193.277 185.056ZM204.39 184.656H204.326C203.825 185.68 203.019 186.192 201.91 186.192C201.398 186.192 200.934 186.091 200.518 185.888C200.102 185.685 199.745 185.397 199.446 185.024C199.158 184.651 198.934 184.197 198.774 183.664C198.625 183.131 198.55 182.533 198.55 181.872C198.55 181.211 198.625 180.613 198.774 180.08C198.934 179.547 199.158 179.093 199.446 178.72C199.745 178.347 200.102 178.059 200.518 177.856C200.934 177.653 201.398 177.552 201.91 177.552C202.486 177.552 202.977 177.68 203.382 177.936C203.798 178.181 204.113 178.565 204.326 179.088H204.39V174.16H205.67V186H204.39V184.656ZM202.262 185.04C202.55 185.04 202.822 185.003 203.078 184.928C203.345 184.853 203.574 184.747 203.766 184.608C203.958 184.459 204.107 184.283 204.214 184.08C204.331 183.867 204.39 183.627 204.39 183.36V180.288C204.39 180.064 204.331 179.856 204.214 179.664C204.107 179.461 203.958 179.291 203.766 179.152C203.574 179.013 203.345 178.907 203.078 178.832C202.822 178.747 202.55 178.704 202.262 178.704C201.537 178.704 200.966 178.933 200.55 179.392C200.134 179.84 199.926 180.432 199.926 181.168V182.576C199.926 183.312 200.134 183.909 200.55 184.368C200.966 184.816 201.537 185.04 202.262 185.04Z" fill="#1A1A1A"/>
<rect x="40" y="208" width="40" height="40" rx="20" fill="#F5F5F5"/>
<path d="M56.7546 234H49.4266V232.624L53.0746 229.264C53.5972 228.784 54.0346 228.277 54.3866 227.744C54.7386 227.2 54.9146 226.656 54.9146 226.112V225.92C54.9146 225.301 54.7439 224.8 54.4026 224.416C54.0612 224.032 53.5439 223.84 52.8506 223.84C52.5092 223.84 52.2106 223.888 51.9546 223.984C51.6986 224.08 51.4746 224.213 51.2826 224.384C51.1012 224.555 50.9466 224.757 50.8186 224.992C50.7012 225.216 50.6052 225.461 50.5306 225.728L49.3306 225.264C49.4372 224.933 49.5812 224.613 49.7626 224.304C49.9546 223.984 50.1892 223.701 50.4666 223.456C50.7546 223.211 51.0959 223.013 51.4906 222.864C51.8959 222.715 52.3706 222.64 52.9146 222.64C53.4586 222.64 53.9439 222.72 54.3706 222.88C54.7972 223.04 55.1546 223.264 55.4426 223.552C55.7306 223.84 55.9492 224.181 56.0986 224.576C56.2586 224.971 56.3386 225.408 56.3386 225.888C56.3386 226.325 56.2746 226.731 56.1466 227.104C56.0292 227.477 55.8639 227.835 55.6506 228.176C55.4372 228.507 55.1759 228.832 54.8666 229.152C54.5679 229.472 54.2426 229.792 53.8906 230.112L50.8826 232.816H56.7546V234ZM59.9963 234.192C59.655 234.192 59.4043 234.107 59.2443 233.936C59.095 233.765 59.0203 233.541 59.0203 233.264V233.056C59.0203 232.779 59.095 232.555 59.2443 232.384C59.4043 232.213 59.655 232.128 59.9963 232.128C60.3376 232.128 60.583 232.213 60.7323 232.384C60.8923 232.555 60.9723 232.779 60.9723 233.056V233.264C60.9723 233.541 60.8923 233.765 60.7323 233.936C60.583 234.107 60.3376 234.192 59.9963 234.192ZM66.3557 227.568C67.113 227.568 67.6784 227.397 68.0517 227.056C68.4357 226.704 68.6277 226.256 68.6277 225.712V225.6C68.6277 225.013 68.441 224.576 68.0677 224.288C67.705 223.989 67.225 223.84 66.6277 223.84C66.0517 223.84 65.5824 223.968 65.2197 224.224C64.857 224.469 64.5584 224.805 64.3237 225.232L63.3317 224.464C63.4704 224.24 63.6357 224.021 63.8277 223.808C64.0304 223.584 64.265 223.387 64.5317 223.216C64.7984 223.045 65.1077 222.907 65.4597 222.8C65.8117 222.693 66.2117 222.64 66.6597 222.64C67.129 222.64 67.5717 222.704 67.9877 222.832C68.4037 222.949 68.761 223.131 69.0597 223.376C69.369 223.611 69.609 223.904 69.7797 224.256C69.961 224.608 70.0517 225.008 70.0517 225.456C70.0517 225.819 69.993 226.144 69.8757 226.432C69.769 226.72 69.6197 226.971 69.4277 227.184C69.2357 227.397 69.0064 227.579 68.7397 227.728C68.4837 227.877 68.2064 227.989 67.9077 228.064V228.128C68.2064 228.192 68.4944 228.299 68.7717 228.448C69.0597 228.587 69.3104 228.773 69.5237 229.008C69.7477 229.232 69.9237 229.509 70.0517 229.84C70.1904 230.16 70.2597 230.528 70.2597 230.944C70.2597 231.424 70.169 231.867 69.9877 232.272C69.8064 232.667 69.5504 233.008 69.2197 233.296C68.889 233.573 68.489 233.792 68.0197 233.952C67.5504 234.112 67.033 234.192 66.4677 234.192C65.9877 234.192 65.561 234.139 65.1877 234.032C64.8144 233.925 64.4837 233.781 64.1957 233.6C63.9077 233.419 63.6517 233.216 63.4277 232.992C63.2144 232.768 63.0224 232.533 62.8517 232.288L63.8597 231.52C63.9984 231.744 64.1477 231.947 64.3077 232.128C64.4784 232.309 64.665 232.464 64.8677 232.592C65.0704 232.72 65.2997 232.821 65.5557 232.896C65.8117 232.96 66.1104 232.992 66.4517 232.992C67.241 232.992 67.8384 232.816 68.2437 232.464C68.649 232.101 68.8517 231.589 68.8517 230.928V230.8C68.8517 230.139 68.649 229.632 68.2437 229.28C67.8384 228.917 67.241 228.736 66.4517 228.736H65.1397V227.568H66.3557Z" fill="#1A1A1A"/>
<path d="M97.248 224.016V234H95.904V224.016H92.352V222.832H100.8V224.016H97.248ZM104.573 234.192C104.008 234.192 103.496 234.091 103.037 233.888C102.589 233.685 102.2 233.397 101.869 233.024C101.549 232.64 101.299 232.187 101.117 231.664C100.947 231.131 100.861 230.533 100.861 229.872C100.861 229.221 100.947 228.629 101.117 228.096C101.299 227.563 101.549 227.109 101.869 226.736C102.2 226.352 102.589 226.059 103.037 225.856C103.496 225.653 104.008 225.552 104.573 225.552C105.128 225.552 105.624 225.653 106.061 225.856C106.499 226.059 106.872 226.341 107.181 226.704C107.491 227.056 107.725 227.477 107.885 227.968C108.056 228.459 108.141 228.997 108.141 229.584V230.192H102.205V230.576C102.205 230.928 102.259 231.259 102.365 231.568C102.483 231.867 102.643 232.128 102.845 232.352C103.059 232.576 103.315 232.752 103.613 232.88C103.923 233.008 104.269 233.072 104.653 233.072C105.176 233.072 105.629 232.949 106.013 232.704C106.408 232.459 106.712 232.107 106.925 231.648L107.837 232.304C107.571 232.869 107.155 233.328 106.589 233.68C106.024 234.021 105.352 234.192 104.573 234.192ZM104.573 226.624C104.221 226.624 103.901 226.688 103.613 226.816C103.325 226.933 103.075 227.104 102.861 227.328C102.659 227.552 102.499 227.819 102.381 228.128C102.264 228.427 102.205 228.757 102.205 229.12V229.232H106.765V229.056C106.765 228.32 106.563 227.733 106.157 227.296C105.763 226.848 105.235 226.624 104.573 226.624ZM110.251 234V225.744H111.531V227.088H111.595C111.691 226.875 111.797 226.677 111.915 226.496C112.043 226.304 112.192 226.139 112.363 226C112.544 225.861 112.752 225.755 112.987 225.68C113.221 225.595 113.499 225.552 113.819 225.552C114.363 225.552 114.864 225.685 115.323 225.952C115.781 226.208 116.123 226.635 116.347 227.232H116.379C116.528 226.784 116.805 226.395 117.211 226.064C117.627 225.723 118.187 225.552 118.891 225.552C119.733 225.552 120.389 225.829 120.859 226.384C121.339 226.928 121.579 227.701 121.579 228.704V234H120.299V228.928C120.299 228.192 120.155 227.637 119.867 227.264C119.579 226.891 119.12 226.704 118.491 226.704C118.235 226.704 117.989 226.736 117.755 226.8C117.531 226.864 117.328 226.96 117.147 227.088C116.965 227.216 116.821 227.381 116.715 227.584C116.608 227.776 116.555 228.005 116.555 228.272V234H115.275V228.928C115.275 228.192 115.131 227.637 114.843 227.264C114.555 226.891 114.107 226.704 113.499 226.704C113.243 226.704 112.997 226.736 112.763 226.8C112.528 226.864 112.32 226.96 112.139 227.088C111.957 227.216 111.808 227.381 111.691 227.584C111.584 227.776 111.531 228.005 111.531 228.272V234H110.251ZM124.219 225.744H125.499V227.088H125.563C125.777 226.565 126.086 226.181 126.491 225.936C126.907 225.68 127.403 225.552 127.979 225.552C128.491 225.552 128.955 225.653 129.371 225.856C129.787 226.059 130.139 226.347 130.427 226.72C130.726 227.093 130.95 227.547 131.099 228.08C131.259 228.613 131.339 229.211 131.339 229.872C131.339 230.533 131.259 231.131 131.099 231.664C130.95 232.197 130.726 232.651 130.427 233.024C130.139 233.397 129.787 233.685 129.371 233.888C128.955 234.091 128.491 234.192 127.979 234.192C126.859 234.192 126.054 233.68 125.563 232.656H125.499V237.2H124.219V225.744ZM127.627 233.04C128.353 233.04 128.923 232.816 129.339 232.368C129.755 231.909 129.963 231.312 129.963 230.576V229.168C129.963 228.432 129.755 227.84 129.339 227.392C128.923 226.933 128.353 226.704 127.627 226.704C127.339 226.704 127.062 226.747 126.795 226.832C126.539 226.907 126.315 227.013 126.123 227.152C125.931 227.291 125.777 227.461 125.659 227.664C125.553 227.856 125.499 228.064 125.499 228.288V231.36C125.499 231.627 125.553 231.867 125.659 232.08C125.777 232.283 125.931 232.459 126.123 232.608C126.315 232.747 126.539 232.853 126.795 232.928C127.062 233.003 127.339 233.04 127.627 233.04ZM136.621 234.192C136.066 234.192 135.559 234.091 135.101 233.888C134.642 233.685 134.247 233.397 133.917 233.024C133.597 232.64 133.346 232.187 133.165 231.664C132.983 231.131 132.893 230.533 132.893 229.872C132.893 229.221 132.983 228.629 133.165 228.096C133.346 227.563 133.597 227.109 133.917 226.736C134.247 226.352 134.642 226.059 135.101 225.856C135.559 225.653 136.066 225.552 136.621 225.552C137.175 225.552 137.677 225.653 138.125 225.856C138.583 226.059 138.978 226.352 139.309 226.736C139.639 227.109 139.895 227.563 140.077 228.096C140.258 228.629 140.349 229.221 140.349 229.872C140.349 230.533 140.258 231.131 140.077 231.664C139.895 232.187 139.639 232.64 139.309 233.024C138.978 233.397 138.583 233.685 138.125 233.888C137.677 234.091 137.175 234.192 136.621 234.192ZM136.621 233.056C137.314 233.056 137.879 232.843 138.317 232.416C138.754 231.989 138.973 231.339 138.973 230.464V229.28C138.973 228.405 138.754 227.755 138.317 227.328C137.879 226.901 137.314 226.688 136.621 226.688C135.927 226.688 135.362 226.901 134.925 227.328C134.487 227.755 134.269 228.405 134.269 229.28V230.464C134.269 231.339 134.487 231.989 134.925 232.416C135.362 232.843 135.927 233.056 136.621 233.056ZM142.454 234V225.744H143.734V227.264H143.814C143.963 226.869 144.23 226.517 144.614 226.208C144.998 225.899 145.526 225.744 146.198 225.744H146.694V227.024H145.942C145.248 227.024 144.704 227.157 144.31 227.424C143.926 227.68 143.734 228.005 143.734 228.4V234H142.454ZM152.75 223.808C152.473 223.808 152.27 223.744 152.142 223.616C152.025 223.477 151.966 223.301 151.966 223.088V222.88C151.966 222.667 152.025 222.496 152.142 222.368C152.27 222.229 152.473 222.16 152.75 222.16C153.027 222.16 153.225 222.229 153.342 222.368C153.47 222.496 153.534 222.667 153.534 222.88V223.088C153.534 223.301 153.47 223.477 153.342 223.616C153.225 223.744 153.027 223.808 152.75 223.808ZM152.11 225.744H153.39V234H152.11V225.744ZM156.11 234V225.744H157.39V227.088H157.454C157.657 226.619 157.939 226.245 158.302 225.968C158.675 225.691 159.171 225.552 159.79 225.552C160.643 225.552 161.315 225.829 161.806 226.384C162.307 226.928 162.558 227.701 162.558 228.704V234H161.278V228.928C161.278 227.445 160.654 226.704 159.406 226.704C159.15 226.704 158.899 226.736 158.654 226.8C158.419 226.864 158.206 226.96 158.014 227.088C157.822 227.216 157.667 227.381 157.55 227.584C157.443 227.776 157.39 228.005 157.39 228.272V234H156.11ZM168.276 234.192C167.7 234.192 167.182 234.091 166.724 233.888C166.265 233.685 165.876 233.397 165.556 233.024C165.246 232.651 165.006 232.197 164.836 231.664C164.676 231.131 164.596 230.533 164.596 229.872C164.596 229.211 164.676 228.613 164.836 228.08C165.006 227.547 165.246 227.093 165.556 226.72C165.876 226.347 166.265 226.059 166.724 225.856C167.182 225.653 167.7 225.552 168.276 225.552C169.097 225.552 169.753 225.733 170.244 226.096C170.745 226.448 171.118 226.912 171.364 227.488L170.292 228.032C170.142 227.605 169.897 227.275 169.556 227.04C169.214 226.805 168.788 226.688 168.276 226.688C167.892 226.688 167.556 226.752 167.268 226.88C166.98 226.997 166.74 227.168 166.548 227.392C166.356 227.605 166.212 227.867 166.116 228.176C166.02 228.475 165.972 228.805 165.972 229.168V230.576C165.972 231.301 166.164 231.899 166.548 232.368C166.942 232.827 167.518 233.056 168.276 233.056C169.31 233.056 170.057 232.576 170.516 231.616L171.444 232.24C171.177 232.837 170.777 233.312 170.244 233.664C169.721 234.016 169.065 234.192 168.276 234.192ZM173.891 223.808C173.613 223.808 173.411 223.744 173.283 223.616C173.165 223.477 173.107 223.301 173.107 223.088V222.88C173.107 222.667 173.165 222.496 173.283 222.368C173.411 222.229 173.613 222.16 173.891 222.16C174.168 222.16 174.365 222.229 174.483 222.368C174.611 222.496 174.675 222.667 174.675 222.88V223.088C174.675 223.301 174.611 223.477 174.483 223.616C174.365 223.744 174.168 223.808 173.891 223.808ZM173.251 225.744H174.531V234H173.251V225.744ZM182.531 232.656H182.467C181.965 233.68 181.16 234.192 180.051 234.192C179.539 234.192 179.075 234.091 178.659 233.888C178.243 233.685 177.885 233.397 177.587 233.024C177.299 232.651 177.075 232.197 176.915 231.664C176.765 231.131 176.691 230.533 176.691 229.872C176.691 229.211 176.765 228.613 176.915 228.08C177.075 227.547 177.299 227.093 177.587 226.72C177.885 226.347 178.243 226.059 178.659 225.856C179.075 225.653 179.539 225.552 180.051 225.552C180.627 225.552 181.117 225.68 181.523 225.936C181.939 226.181 182.253 226.565 182.467 227.088H182.531V222.16H183.811V234H182.531V232.656ZM180.403 233.04C180.691 233.04 180.963 233.003 181.219 232.928C181.485 232.853 181.715 232.747 181.907 232.608C182.099 232.459 182.248 232.283 182.355 232.08C182.472 231.867 182.531 231.627 182.531 231.36V228.288C182.531 228.064 182.472 227.856 182.355 227.664C182.248 227.461 182.099 227.291 181.907 227.152C181.715 227.013 181.485 226.907 181.219 226.832C180.963 226.747 180.691 226.704 180.403 226.704C179.677 226.704 179.107 226.933 178.691 227.392C178.275 227.84 178.067 228.432 178.067 229.168V230.576C178.067 231.312 178.275 231.909 178.691 232.368C179.107 232.816 179.677 233.04 180.403 233.04ZM187.172 223.808C186.895 223.808 186.692 223.744 186.564 223.616C186.447 223.477 186.388 223.301 186.388 223.088V222.88C186.388 222.667 186.447 222.496 186.564 222.368C186.692 222.229 186.895 222.16 187.172 222.16C187.449 222.16 187.647 222.229 187.764 222.368C187.892 222.496 187.956 222.667 187.956 222.88V223.088C187.956 223.301 187.892 223.477 187.764 223.616C187.647 223.744 187.449 223.808 187.172 223.808ZM186.532 225.744H187.812V234H186.532V225.744ZM195.812 232.656H195.748C195.247 233.68 194.441 234.192 193.332 234.192C192.82 234.192 192.356 234.091 191.94 233.888C191.524 233.685 191.167 233.397 190.868 233.024C190.58 232.651 190.356 232.197 190.196 231.664C190.047 231.131 189.972 230.533 189.972 229.872C189.972 229.211 190.047 228.613 190.196 228.08C190.356 227.547 190.58 227.093 190.868 226.72C191.167 226.347 191.524 226.059 191.94 225.856C192.356 225.653 192.82 225.552 193.332 225.552C193.908 225.552 194.399 225.68 194.804 225.936C195.22 226.181 195.535 226.565 195.748 227.088H195.812V222.16H197.092V234H195.812V232.656ZM193.684 233.04C193.972 233.04 194.244 233.003 194.5 232.928C194.767 232.853 194.996 232.747 195.188 232.608C195.38 232.459 195.529 232.283 195.636 232.08C195.753 231.867 195.812 231.627 195.812 231.36V228.288C195.812 228.064 195.753 227.856 195.636 227.664C195.529 227.461 195.38 227.291 195.188 227.152C194.996 227.013 194.767 226.907 194.5 226.832C194.244 226.747 193.972 226.704 193.684 226.704C192.959 226.704 192.388 226.933 191.972 227.392C191.556 227.84 191.348 228.432 191.348 229.168V230.576C191.348 231.312 191.556 231.909 191.972 232.368C192.388 232.816 192.959 233.04 193.684 233.04ZM204.901 232.656H204.837C204.752 232.848 204.645 233.04 204.517 233.232C204.4 233.413 204.25 233.579 204.069 233.728C203.888 233.867 203.669 233.979 203.413 234.064C203.157 234.149 202.858 234.192 202.517 234.192C201.664 234.192 200.986 233.92 200.485 233.376C199.984 232.821 199.733 232.043 199.733 231.04V225.744H201.013V230.816C201.013 232.299 201.642 233.04 202.901 233.04C203.157 233.04 203.402 233.008 203.637 232.944C203.882 232.88 204.096 232.784 204.277 232.656C204.469 232.528 204.618 232.368 204.725 232.176C204.842 231.973 204.901 231.733 204.901 231.456V225.744H206.181V234H204.901V232.656ZM208.907 234V225.744H210.187V227.088H210.251C210.454 226.619 210.736 226.245 211.099 225.968C211.472 225.691 211.968 225.552 212.587 225.552C213.44 225.552 214.112 225.829 214.603 226.384C215.104 226.928 215.355 227.701 215.355 228.704V234H214.075V228.928C214.075 227.445 213.451 226.704 212.203 226.704C211.947 226.704 211.696 226.736 211.451 226.8C211.216 226.864 211.003 226.96 210.811 227.088C210.619 227.216 210.464 227.381 210.347 227.584C210.24 227.776 210.187 228.005 210.187 228.272V234H208.907ZM219.825 234C219.377 234 219.035 233.877 218.801 233.632C218.577 233.376 218.465 233.045 218.465 232.64V226.864H217.105V225.744H217.873C218.15 225.744 218.337 225.691 218.433 225.584C218.539 225.467 218.593 225.269 218.593 224.992V223.456H219.745V225.744H221.553V226.864H219.745V232.88H221.425V234H219.825ZM232.479 232.656H232.415C232.33 232.848 232.223 233.04 232.095 233.232C231.978 233.413 231.829 233.579 231.647 233.728C231.466 233.867 231.247 233.979 230.991 234.064C230.735 234.149 230.437 234.192 230.095 234.192C229.242 234.192 228.565 233.92 228.063 233.376C227.562 232.821 227.311 232.043 227.311 231.04V225.744H228.591V230.816C228.591 232.299 229.221 233.04 230.479 233.04C230.735 233.04 230.981 233.008 231.215 232.944C231.461 232.88 231.674 232.784 231.855 232.656C232.047 232.528 232.197 232.368 232.303 232.176C232.421 231.973 232.479 231.733 232.479 231.456V225.744H233.759V234H232.479V232.656ZM238.309 234C237.861 234 237.52 233.877 237.285 233.632C237.061 233.376 236.949 233.045 236.949 232.64V226.864H235.589V225.744H236.357C236.634 225.744 236.821 225.691 236.917 225.584C237.024 225.467 237.077 225.269 237.077 224.992V223.456H238.229V225.744H240.037V226.864H238.229V232.88H239.909V234H238.309ZM247.236 234C246.788 234 246.446 233.877 246.212 233.632C245.988 233.376 245.876 233.056 245.876 232.672V222.16H247.156V232.88H248.372V234H247.236ZM256.235 234C255.755 234 255.408 233.872 255.195 233.616C254.992 233.36 254.864 233.04 254.811 232.656H254.731C254.55 233.168 254.251 233.552 253.835 233.808C253.419 234.064 252.923 234.192 252.347 234.192C251.472 234.192 250.79 233.968 250.299 233.52C249.819 233.072 249.579 232.464 249.579 231.696C249.579 230.917 249.862 230.32 250.427 229.904C251.003 229.488 251.894 229.28 253.099 229.28H254.731V228.464C254.731 227.877 254.571 227.429 254.251 227.12C253.931 226.811 253.44 226.656 252.779 226.656C252.278 226.656 251.856 226.768 251.515 226.992C251.184 227.216 250.907 227.515 250.683 227.888L249.915 227.168C250.139 226.72 250.496 226.341 250.987 226.032C251.478 225.712 252.096 225.552 252.843 225.552C253.846 225.552 254.624 225.797 255.179 226.288C255.734 226.779 256.011 227.461 256.011 228.336V232.88H256.955V234H256.235ZM252.555 233.104C252.875 233.104 253.168 233.067 253.435 232.992C253.702 232.917 253.931 232.811 254.123 232.672C254.315 232.533 254.464 232.373 254.571 232.192C254.678 232.011 254.731 231.813 254.731 231.6V230.24H253.035C252.299 230.24 251.76 230.347 251.419 230.56C251.088 230.773 250.923 231.083 250.923 231.488V231.824C250.923 232.229 251.067 232.544 251.355 232.768C251.654 232.992 252.054 233.104 252.555 233.104ZM258.782 222.16H260.062V227.088H260.126C260.339 226.565 260.649 226.181 261.054 225.936C261.47 225.68 261.966 225.552 262.542 225.552C263.054 225.552 263.518 225.653 263.934 225.856C264.35 226.059 264.702 226.347 264.99 226.72C265.289 227.093 265.513 227.547 265.662 228.08C265.822 228.613 265.902 229.211 265.902 229.872C265.902 230.533 265.822 231.131 265.662 231.664C265.513 232.197 265.289 232.651 264.99 233.024C264.702 233.397 264.35 233.685 263.934 233.888C263.518 234.091 263.054 234.192 262.542 234.192C261.422 234.192 260.617 233.68 260.126 232.656H260.062V234H258.782V222.16ZM262.19 233.04C262.915 233.04 263.486 232.816 263.902 232.368C264.318 231.909 264.526 231.312 264.526 230.576V229.168C264.526 228.432 264.318 227.84 263.902 227.392C263.486 226.933 262.915 226.704 262.19 226.704C261.902 226.704 261.625 226.747 261.358 226.832C261.102 226.907 260.878 227.013 260.686 227.152C260.494 227.291 260.339 227.461 260.222 227.664C260.115 227.856 260.062 228.064 260.062 228.288V231.36C260.062 231.627 260.115 231.867 260.222 232.08C260.339 232.283 260.494 232.459 260.686 232.608C260.878 232.747 261.102 232.853 261.358 232.928C261.625 233.003 261.902 233.04 262.19 233.04ZM271.183 234.192C270.628 234.192 270.122 234.091 269.663 233.888C269.204 233.685 268.81 233.397 268.479 233.024C268.159 232.64 267.908 232.187 267.727 231.664C267.546 231.131 267.455 230.533 267.455 229.872C267.455 229.221 267.546 228.629 267.727 228.096C267.908 227.563 268.159 227.109 268.479 226.736C268.81 226.352 269.204 226.059 269.663 225.856C270.122 225.653 270.628 225.552 271.183 225.552C271.738 225.552 272.239 225.653 272.687 225.856C273.146 226.059 273.54 226.352 273.871 226.736C274.202 227.109 274.458 227.563 274.639 228.096C274.82 228.629 274.911 229.221 274.911 229.872C274.911 230.533 274.82 231.131 274.639 231.664C274.458 232.187 274.202 232.64 273.871 233.024C273.54 233.397 273.146 233.685 272.687 233.888C272.239 234.091 271.738 234.192 271.183 234.192ZM271.183 233.056C271.876 233.056 272.442 232.843 272.879 232.416C273.316 231.989 273.535 231.339 273.535 230.464V229.28C273.535 228.405 273.316 227.755 272.879 227.328C272.442 226.901 271.876 226.688 271.183 226.688C270.49 226.688 269.924 226.901 269.487 227.328C269.05 227.755 268.831 228.405 268.831 229.28V230.464C268.831 231.339 269.05 231.989 269.487 232.416C269.924 232.843 270.49 233.056 271.183 233.056ZM277.016 234V225.744H278.296V227.264H278.376C278.526 226.869 278.792 226.517 279.176 226.208C279.56 225.899 280.088 225.744 280.76 225.744H281.256V227.024H280.504C279.811 227.024 279.267 227.157 278.872 227.424C278.488 227.68 278.296 228.005 278.296 228.4V234H277.016ZM285.917 234.192C285.352 234.192 284.84 234.091 284.381 233.888C283.933 233.685 283.544 233.397 283.213 233.024C282.893 232.64 282.642 232.187 282.461 231.664C282.29 231.131 282.205 230.533 282.205 229.872C282.205 229.221 282.29 228.629 282.461 228.096C282.642 227.563 282.893 227.109 283.213 226.736C283.544 226.352 283.933 226.059 284.381 225.856C284.84 225.653 285.352 225.552 285.917 225.552C286.472 225.552 286.968 225.653 287.405 225.856C287.842 226.059 288.216 226.341 288.525 226.704C288.834 227.056 289.069 227.477 289.229 227.968C289.4 228.459 289.485 228.997 289.485 229.584V230.192H283.549V230.576C283.549 230.928 283.602 231.259 283.709 231.568C283.826 231.867 283.986 232.128 284.189 232.352C284.402 232.576 284.658 232.752 284.957 232.88C285.266 233.008 285.613 233.072 285.997 233.072C286.52 233.072 286.973 232.949 287.357 232.704C287.752 232.459 288.056 232.107 288.269 231.648L289.181 232.304C288.914 232.869 288.498 233.328 287.933 233.68C287.368 234.021 286.696 234.192 285.917 234.192ZM285.917 226.624C285.565 226.624 285.245 226.688 284.957 226.816C284.669 226.933 284.418 227.104 284.205 227.328C284.002 227.552 283.842 227.819 283.725 228.128C283.608 228.427 283.549 228.757 283.549 229.12V229.232H288.109V229.056C288.109 228.32 287.906 227.733 287.501 227.296C287.106 226.848 286.578 226.624 285.917 226.624Z" fill="#1A1A1A"/>
<rect x="16" y="256" width="40" height="40" rx="20" fill="#F5F5F5"/>
<path d="M35.3791 275.568C36.1365 275.568 36.7018 275.397 37.0751 275.056C37.4591 274.704 37.6511 274.256 37.6511 273.712V273.6C37.6511 273.013 37.4645 272.576 37.0911 272.288C36.7285 271.989 36.2485 271.84 35.6511 271.84C35.0751 271.84 34.6058 271.968 34.2431 272.224C33.8805 272.469 33.5818 272.805 33.3471 273.232L32.3551 272.464C32.4938 272.24 32.6591 272.021 32.8511 271.808C33.0538 271.584 33.2885 271.387 33.5551 271.216C33.8218 271.045 34.1311 270.907 34.4831 270.8C34.8351 270.693 35.2351 270.64 35.6831 270.64C36.1525 270.64 36.5951 270.704 37.0111 270.832C37.4271 270.949 37.7845 271.131 38.0831 271.376C38.3925 271.611 38.6325 271.904 38.8031 272.256C38.9845 272.608 39.0751 273.008 39.0751 273.456C39.0751 273.819 39.0165 274.144 38.8991 274.432C38.7925 274.72 38.6431 274.971 38.4511 275.184C38.2591 275.397 38.0298 275.579 37.7631 275.728C37.5071 275.877 37.2298 275.989 36.9311 276.064V276.128C37.2298 276.192 37.5178 276.299 37.7951 276.448C38.0831 276.587 38.3338 276.773 38.5471 277.008C38.7711 277.232 38.9471 277.509 39.0751 277.84C39.2138 278.16 39.2831 278.528 39.2831 278.944C39.2831 279.424 39.1925 279.867 39.0111 280.272C38.8298 280.667 38.5738 281.008 38.2431 281.296C37.9125 281.573 37.5125 281.792 37.0431 281.952C36.5738 282.112 36.0565 282.192 35.4911 282.192C35.0111 282.192 34.5845 282.139 34.2111 282.032C33.8378 281.925 33.5071 281.781 33.2191 281.6C32.9311 281.419 32.6751 281.216 32.4511 280.992C32.2378 280.768 32.0458 280.533 31.8751 280.288L32.8831 279.52C33.0218 279.744 33.1711 279.947 33.3311 280.128C33.5018 280.309 33.6885 280.464 33.8911 280.592C34.0938 280.72 34.3231 280.821 34.5791 280.896C34.8351 280.96 35.1338 280.992 35.4751 280.992C36.2645 280.992 36.8618 280.816 37.2671 280.464C37.6725 280.101 37.8751 279.589 37.8751 278.928V278.8C37.8751 278.139 37.6725 277.632 37.2671 277.28C36.8618 276.917 36.2645 276.736 35.4751 276.736H34.1631V275.568H35.3791Z" fill="#1A1A1A"/>
<path d="M69.488 282V270.832H76.304V272.016H70.832V275.76H75.984V276.944H70.832V280.816H76.304V282H69.488ZM80.5121 282C80.0641 282 79.7228 281.877 79.4881 281.632C79.2641 281.376 79.1521 281.045 79.1521 280.64V274.864H77.7921V273.744H78.5601C78.8375 273.744 79.0241 273.691 79.1201 273.584C79.2268 273.467 79.2801 273.269 79.2801 272.992V271.456H80.4321V273.744H82.2401V274.864H80.4321V280.88H82.1121V282H80.5121ZM93.3588 280.656H93.2948C92.7934 281.68 91.9881 282.192 90.8788 282.192C90.3668 282.192 89.9028 282.091 89.4868 281.888C89.0708 281.685 88.7134 281.397 88.4148 281.024C88.1268 280.651 87.9028 280.197 87.7428 279.664C87.5934 279.131 87.5188 278.533 87.5188 277.872C87.5188 277.211 87.5934 276.613 87.7428 276.08C87.9028 275.547 88.1268 275.093 88.4148 274.72C88.7134 274.347 89.0708 274.059 89.4868 273.856C89.9028 273.653 90.3668 273.552 90.8788 273.552C91.4548 273.552 91.9454 273.68 92.3508 273.936C92.7668 274.181 93.0814 274.565 93.2948 275.088H93.3588V270.16H94.6388V282H93.3588V280.656ZM91.2308 281.04C91.5188 281.04 91.7908 281.003 92.0468 280.928C92.3134 280.853 92.5428 280.747 92.7348 280.608C92.9268 280.459 93.0761 280.283 93.1828 280.08C93.3001 279.867 93.3588 279.627 93.3588 279.36V276.288C93.3588 276.064 93.3001 275.856 93.1828 275.664C93.0761 275.461 92.9268 275.291 92.7348 275.152C92.5428 275.013 92.3134 274.907 92.0468 274.832C91.7908 274.747 91.5188 274.704 91.2308 274.704C90.5054 274.704 89.9348 274.933 89.5188 275.392C89.1028 275.84 88.8948 276.432 88.8948 277.168V278.576C88.8948 279.312 89.1028 279.909 89.5188 280.368C89.9348 280.816 90.5054 281.04 91.2308 281.04ZM100.48 282.192C99.9253 282.192 99.4187 282.091 98.96 281.888C98.5013 281.685 98.1067 281.397 97.776 281.024C97.456 280.64 97.2053 280.187 97.024 279.664C96.8427 279.131 96.752 278.533 96.752 277.872C96.752 277.221 96.8427 276.629 97.024 276.096C97.2053 275.563 97.456 275.109 97.776 274.736C98.1067 274.352 98.5013 274.059 98.96 273.856C99.4187 273.653 99.9253 273.552 100.48 273.552C101.035 273.552 101.536 273.653 101.984 273.856C102.443 274.059 102.837 274.352 103.168 274.736C103.499 275.109 103.755 275.563 103.936 276.096C104.117 276.629 104.208 277.221 104.208 277.872C104.208 278.533 104.117 279.131 103.936 279.664C103.755 280.187 103.499 280.64 103.168 281.024C102.837 281.397 102.443 281.685 101.984 281.888C101.536 282.091 101.035 282.192 100.48 282.192ZM100.48 281.056C101.173 281.056 101.739 280.843 102.176 280.416C102.613 279.989 102.832 279.339 102.832 278.464V277.28C102.832 276.405 102.613 275.755 102.176 275.328C101.739 274.901 101.173 274.688 100.48 274.688C99.7867 274.688 99.2213 274.901 98.784 275.328C98.3467 275.755 98.128 276.405 98.128 277.28V278.464C98.128 279.339 98.3467 279.989 98.784 280.416C99.2213 280.843 99.7867 281.056 100.48 281.056ZM107.673 282C107.225 282 106.884 281.877 106.649 281.632C106.425 281.376 106.313 281.056 106.313 280.672V270.16H107.593V280.88H108.809V282H107.673ZM113.793 282.192C113.238 282.192 112.731 282.091 112.273 281.888C111.814 281.685 111.419 281.397 111.089 281.024C110.769 280.64 110.518 280.187 110.337 279.664C110.155 279.131 110.065 278.533 110.065 277.872C110.065 277.221 110.155 276.629 110.337 276.096C110.518 275.563 110.769 275.109 111.089 274.736C111.419 274.352 111.814 274.059 112.273 273.856C112.731 273.653 113.238 273.552 113.793 273.552C114.347 273.552 114.849 273.653 115.297 273.856C115.755 274.059 116.15 274.352 116.481 274.736C116.811 275.109 117.067 275.563 117.249 276.096C117.43 276.629 117.521 277.221 117.521 277.872C117.521 278.533 117.43 279.131 117.249 279.664C117.067 280.187 116.811 280.64 116.481 281.024C116.15 281.397 115.755 281.685 115.297 281.888C114.849 282.091 114.347 282.192 113.793 282.192ZM113.793 281.056C114.486 281.056 115.051 280.843 115.489 280.416C115.926 279.989 116.145 279.339 116.145 278.464V277.28C116.145 276.405 115.926 275.755 115.489 275.328C115.051 274.901 114.486 274.688 113.793 274.688C113.099 274.688 112.534 274.901 112.097 275.328C111.659 275.755 111.441 276.405 111.441 277.28V278.464C111.441 279.339 111.659 279.989 112.097 280.416C112.534 280.843 113.099 281.056 113.793 281.056ZM119.626 282V273.744H120.906V275.264H120.986C121.135 274.869 121.402 274.517 121.786 274.208C122.17 273.899 122.698 273.744 123.37 273.744H123.866V275.024H123.114C122.42 275.024 121.876 275.157 121.482 275.424C121.098 275.68 120.906 276.005 120.906 276.4V282H119.626ZM128.527 282.192C127.961 282.192 127.449 282.091 126.991 281.888C126.543 281.685 126.153 281.397 125.823 281.024C125.503 280.64 125.252 280.187 125.071 279.664C124.9 279.131 124.815 278.533 124.815 277.872C124.815 277.221 124.9 276.629 125.071 276.096C125.252 275.563 125.503 275.109 125.823 274.736C126.153 274.352 126.543 274.059 126.991 273.856C127.449 273.653 127.961 273.552 128.527 273.552C129.081 273.552 129.577 273.653 130.015 273.856C130.452 274.059 130.825 274.341 131.135 274.704C131.444 275.056 131.679 275.477 131.839 275.968C132.009 276.459 132.095 276.997 132.095 277.584V278.192H126.159V278.576C126.159 278.928 126.212 279.259 126.319 279.568C126.436 279.867 126.596 280.128 126.799 280.352C127.012 280.576 127.268 280.752 127.567 280.88C127.876 281.008 128.223 281.072 128.607 281.072C129.129 281.072 129.583 280.949 129.967 280.704C130.361 280.459 130.665 280.107 130.879 279.648L131.791 280.304C131.524 280.869 131.108 281.328 130.543 281.68C129.977 282.021 129.305 282.192 128.527 282.192ZM128.527 274.624C128.175 274.624 127.855 274.688 127.567 274.816C127.279 274.933 127.028 275.104 126.815 275.328C126.612 275.552 126.452 275.819 126.335 276.128C126.217 276.427 126.159 276.757 126.159 277.12V277.232H130.719V277.056C130.719 276.32 130.516 275.733 130.111 275.296C129.716 274.848 129.188 274.624 128.527 274.624ZM137.985 282V273.744H139.265V275.088H139.329C139.425 274.875 139.532 274.677 139.649 274.496C139.777 274.304 139.926 274.139 140.097 274C140.278 273.861 140.486 273.755 140.721 273.68C140.956 273.595 141.233 273.552 141.553 273.552C142.097 273.552 142.598 273.685 143.057 273.952C143.516 274.208 143.857 274.635 144.081 275.232H144.113C144.262 274.784 144.54 274.395 144.945 274.064C145.361 273.723 145.921 273.552 146.625 273.552C147.468 273.552 148.124 273.829 148.593 274.384C149.073 274.928 149.313 275.701 149.313 276.704V282H148.033V276.928C148.033 276.192 147.889 275.637 147.601 275.264C147.313 274.891 146.854 274.704 146.225 274.704C145.969 274.704 145.724 274.736 145.489 274.8C145.265 274.864 145.062 274.96 144.881 275.088C144.7 275.216 144.556 275.381 144.449 275.584C144.342 275.776 144.289 276.005 144.289 276.272V282H143.009V276.928C143.009 276.192 142.865 275.637 142.577 275.264C142.289 274.891 141.841 274.704 141.233 274.704C140.977 274.704 140.732 274.736 140.497 274.8C140.262 274.864 140.054 274.96 139.873 275.088C139.692 275.216 139.542 275.381 139.425 275.584C139.318 275.776 139.265 276.005 139.265 276.272V282H137.985ZM157.954 282C157.474 282 157.127 281.872 156.914 281.616C156.711 281.36 156.583 281.04 156.53 280.656H156.45C156.268 281.168 155.97 281.552 155.554 281.808C155.138 282.064 154.642 282.192 154.066 282.192C153.191 282.192 152.508 281.968 152.018 281.52C151.538 281.072 151.298 280.464 151.298 279.696C151.298 278.917 151.58 278.32 152.146 277.904C152.722 277.488 153.612 277.28 154.818 277.28H156.45V276.464C156.45 275.877 156.29 275.429 155.97 275.12C155.65 274.811 155.159 274.656 154.498 274.656C153.996 274.656 153.575 274.768 153.234 274.992C152.903 275.216 152.626 275.515 152.402 275.888L151.634 275.168C151.858 274.72 152.215 274.341 152.706 274.032C153.196 273.712 153.815 273.552 154.562 273.552C155.564 273.552 156.343 273.797 156.898 274.288C157.452 274.779 157.73 275.461 157.73 276.336V280.88H158.674V282H157.954ZM154.274 281.104C154.594 281.104 154.887 281.067 155.154 280.992C155.42 280.917 155.65 280.811 155.842 280.672C156.034 280.533 156.183 280.373 156.29 280.192C156.396 280.011 156.45 279.813 156.45 279.6V278.24H154.754C154.018 278.24 153.479 278.347 153.138 278.56C152.807 278.773 152.642 279.083 152.642 279.488V279.824C152.642 280.229 152.786 280.544 153.074 280.768C153.372 280.992 153.772 281.104 154.274 281.104ZM167.461 282.912C167.461 283.765 167.125 284.389 166.453 284.784C165.791 285.189 164.794 285.392 163.461 285.392C162.17 285.392 161.242 285.216 160.677 284.864C160.111 284.512 159.829 284.011 159.829 283.36C159.829 282.912 159.946 282.56 160.181 282.304C160.415 282.059 160.735 281.877 161.141 281.76V281.584C160.65 281.349 160.405 280.965 160.405 280.432C160.405 280.016 160.538 279.701 160.805 279.488C161.071 279.264 161.413 279.099 161.829 278.992V278.928C161.338 278.693 160.954 278.357 160.677 277.92C160.41 277.483 160.277 276.976 160.277 276.4C160.277 275.984 160.351 275.6 160.501 275.248C160.65 274.896 160.858 274.597 161.125 274.352C161.402 274.096 161.727 273.899 162.101 273.76C162.485 273.621 162.911 273.552 163.381 273.552C163.967 273.552 164.49 273.659 164.949 273.872V273.728C164.949 273.408 165.023 273.147 165.173 272.944C165.322 272.731 165.567 272.624 165.909 272.624H167.141V273.744H165.573V274.272C165.871 274.528 166.101 274.837 166.261 275.2C166.431 275.552 166.517 275.952 166.517 276.4C166.517 276.816 166.442 277.2 166.293 277.552C166.143 277.904 165.93 278.208 165.653 278.464C165.386 278.709 165.061 278.901 164.677 279.04C164.293 279.179 163.866 279.248 163.397 279.248C163.13 279.248 162.863 279.221 162.597 279.168C162.319 279.243 162.069 279.355 161.845 279.504C161.621 279.643 161.509 279.84 161.509 280.096C161.509 280.341 161.626 280.507 161.861 280.592C162.095 280.677 162.399 280.72 162.773 280.72H164.533C165.557 280.72 166.298 280.917 166.757 281.312C167.226 281.696 167.461 282.229 167.461 282.912ZM166.261 283.008C166.261 282.677 166.133 282.411 165.877 282.208C165.631 282.016 165.189 281.92 164.549 281.92H161.797C161.285 282.155 161.029 282.528 161.029 283.04C161.029 283.403 161.162 283.712 161.429 283.968C161.706 284.224 162.17 284.352 162.821 284.352H164.005C164.719 284.352 165.274 284.24 165.669 284.016C166.063 283.792 166.261 283.456 166.261 283.008ZM163.397 278.224C163.941 278.224 164.373 278.096 164.693 277.84C165.013 277.573 165.173 277.168 165.173 276.624V276.176C165.173 275.632 165.013 275.232 164.693 274.976C164.373 274.709 163.941 274.576 163.397 274.576C162.853 274.576 162.421 274.709 162.101 274.976C161.781 275.232 161.621 275.632 161.621 276.176V276.624C161.621 277.168 161.781 277.573 162.101 277.84C162.421 278.096 162.853 278.224 163.397 278.224ZM168.954 282V273.744H170.234V275.088H170.298C170.5 274.619 170.783 274.245 171.146 273.968C171.519 273.691 172.015 273.552 172.634 273.552C173.487 273.552 174.159 273.829 174.65 274.384C175.151 274.928 175.402 275.701 175.402 276.704V282H174.122V276.928C174.122 275.445 173.498 274.704 172.25 274.704C171.994 274.704 171.743 274.736 171.498 274.8C171.263 274.864 171.05 274.96 170.858 275.088C170.666 275.216 170.511 275.381 170.394 275.584C170.287 275.776 170.234 276.005 170.234 276.272V282H168.954ZM184.048 282C183.568 282 183.221 281.872 183.008 281.616C182.805 281.36 182.677 281.04 182.624 280.656H182.544C182.362 281.168 182.064 281.552 181.648 281.808C181.232 282.064 180.736 282.192 180.16 282.192C179.285 282.192 178.602 281.968 178.112 281.52C177.632 281.072 177.392 280.464 177.392 279.696C177.392 278.917 177.674 278.32 178.24 277.904C178.816 277.488 179.706 277.28 180.911 277.28H182.544V276.464C182.544 275.877 182.384 275.429 182.064 275.12C181.744 274.811 181.253 274.656 180.592 274.656C180.09 274.656 179.669 274.768 179.328 274.992C178.997 275.216 178.72 275.515 178.496 275.888L177.728 275.168C177.952 274.72 178.309 274.341 178.799 274.032C179.29 273.712 179.909 273.552 180.656 273.552C181.658 273.552 182.437 273.797 182.992 274.288C183.546 274.779 183.824 275.461 183.824 276.336V280.88H184.767V282H184.048ZM180.368 281.104C180.688 281.104 180.981 281.067 181.248 280.992C181.514 280.917 181.744 280.811 181.936 280.672C182.128 280.533 182.277 280.373 182.384 280.192C182.49 280.011 182.544 279.813 182.544 279.6V278.24H180.848C180.112 278.24 179.573 278.347 179.232 278.56C178.901 278.773 178.736 279.083 178.736 279.488V279.824C178.736 280.229 178.88 280.544 179.168 280.768C179.466 280.992 179.866 281.104 180.368 281.104ZM196.376 282C195.896 282 195.549 281.872 195.336 281.616C195.133 281.36 195.005 281.04 194.952 280.656H194.872C194.69 281.168 194.392 281.552 193.976 281.808C193.56 282.064 193.064 282.192 192.488 282.192C191.613 282.192 190.93 281.968 190.44 281.52C189.96 281.072 189.72 280.464 189.72 279.696C189.72 278.917 190.002 278.32 190.568 277.904C191.144 277.488 192.034 277.28 193.24 277.28H194.872V276.464C194.872 275.877 194.712 275.429 194.392 275.12C194.072 274.811 193.581 274.656 192.92 274.656C192.418 274.656 191.997 274.768 191.656 274.992C191.325 275.216 191.048 275.515 190.824 275.888L190.056 275.168C190.28 274.72 190.637 274.341 191.128 274.032C191.618 273.712 192.237 273.552 192.984 273.552C193.986 273.552 194.765 273.797 195.32 274.288C195.874 274.779 196.152 275.461 196.152 276.336V280.88H197.096V282H196.376ZM192.696 281.104C193.016 281.104 193.309 281.067 193.576 280.992C193.842 280.917 194.072 280.811 194.264 280.672C194.456 280.533 194.605 280.373 194.712 280.192C194.818 280.011 194.872 279.813 194.872 279.6V278.24H193.176C192.44 278.24 191.901 278.347 191.56 278.56C191.229 278.773 191.064 279.083 191.064 279.488V279.824C191.064 280.229 191.208 280.544 191.496 280.768C191.794 280.992 192.194 281.104 192.696 281.104ZM200.283 282C199.835 282 199.493 281.877 199.259 281.632C199.035 281.376 198.923 281.056 198.923 280.672V270.16H200.203V280.88H201.419V282H200.283ZM203.922 271.808C203.645 271.808 203.442 271.744 203.314 271.616C203.197 271.477 203.138 271.301 203.138 271.088V270.88C203.138 270.667 203.197 270.496 203.314 270.368C203.442 270.229 203.645 270.16 203.922 270.16C204.199 270.16 204.397 270.229 204.514 270.368C204.642 270.496 204.706 270.667 204.706 270.88V271.088C204.706 271.301 204.642 271.477 204.514 271.616C204.397 271.744 204.199 271.808 203.922 271.808ZM203.282 273.744H204.562V282H203.282V273.744ZM212.562 280.656H212.498C211.997 281.68 211.191 282.192 210.082 282.192C209.57 282.192 209.106 282.091 208.69 281.888C208.274 281.685 207.917 281.397 207.618 281.024C207.33 280.651 207.106 280.197 206.946 279.664C206.797 279.131 206.722 278.533 206.722 277.872C206.722 277.211 206.797 276.613 206.946 276.08C207.106 275.547 207.33 275.093 207.618 274.72C207.917 274.347 208.274 274.059 208.69 273.856C209.106 273.653 209.57 273.552 210.082 273.552C210.658 273.552 211.149 273.68 211.554 273.936C211.97 274.181 212.285 274.565 212.498 275.088H212.562V273.744H213.842V285.2H212.562V280.656ZM210.434 281.04C210.722 281.04 210.994 281.003 211.25 280.928C211.517 280.853 211.746 280.747 211.938 280.608C212.13 280.459 212.279 280.283 212.386 280.08C212.503 279.867 212.562 279.627 212.562 279.36V276.288C212.562 276.064 212.503 275.856 212.386 275.664C212.279 275.461 212.13 275.291 211.938 275.152C211.746 275.013 211.517 274.907 211.25 274.832C210.994 274.747 210.722 274.704 210.434 274.704C209.709 274.704 209.138 274.933 208.722 275.392C208.306 275.84 208.098 276.432 208.098 277.168V278.576C208.098 279.312 208.306 279.909 208.722 280.368C209.138 280.816 209.709 281.04 210.434 281.04ZM221.651 280.656H221.587C221.502 280.848 221.395 281.04 221.267 281.232C221.15 281.413 221 281.579 220.819 281.728C220.638 281.867 220.419 281.979 220.163 282.064C219.907 282.149 219.608 282.192 219.267 282.192C218.414 282.192 217.736 281.92 217.235 281.376C216.734 280.821 216.483 280.043 216.483 279.04V273.744H217.763V278.816C217.763 280.299 218.392 281.04 219.651 281.04C219.907 281.04 220.152 281.008 220.387 280.944C220.632 280.88 220.846 280.784 221.027 280.656C221.219 280.528 221.368 280.368 221.475 280.176C221.592 279.973 221.651 279.733 221.651 279.456V273.744H222.931V282H221.651V280.656ZM231.657 282C231.177 282 230.83 281.872 230.617 281.616C230.414 281.36 230.286 281.04 230.233 280.656H230.153C229.972 281.168 229.673 281.552 229.257 281.808C228.841 282.064 228.345 282.192 227.769 282.192C226.894 282.192 226.212 281.968 225.721 281.52C225.241 281.072 225.001 280.464 225.001 279.696C225.001 278.917 225.284 278.32 225.849 277.904C226.425 277.488 227.316 277.28 228.521 277.28H230.153V276.464C230.153 275.877 229.993 275.429 229.673 275.12C229.353 274.811 228.862 274.656 228.201 274.656C227.7 274.656 227.278 274.768 226.937 274.992C226.606 275.216 226.329 275.515 226.105 275.888L225.337 275.168C225.561 274.72 225.918 274.341 226.409 274.032C226.9 273.712 227.518 273.552 228.265 273.552C229.268 273.552 230.046 273.797 230.601 274.288C231.156 274.779 231.433 275.461 231.433 276.336V280.88H232.377V282H231.657ZM227.977 281.104C228.297 281.104 228.59 281.067 228.857 280.992C229.124 280.917 229.353 280.811 229.545 280.672C229.737 280.533 229.886 280.373 229.993 280.192C230.1 280.011 230.153 279.813 230.153 279.6V278.24H228.457C227.721 278.24 227.182 278.347 226.841 278.56C226.51 278.773 226.345 279.083 226.345 279.488V279.824C226.345 280.229 226.489 280.544 226.777 280.768C227.076 280.992 227.476 281.104 227.977 281.104Z" fill="#1A1A1A"/>
</g>
<defs>
<clipPath id="clip0_14742_7472">
<rect width="418" height="286" fill="white"/>
</clipPath>
</defs>
</svg>
