<svg width="418" height="236" viewBox="0 0 418 236" fill="none" xmlns="http://www.w3.org/2000/svg">
<rect width="418" height="236" fill="white"/>
<path d="M16 88C16 85.7909 17.7909 84 20 84H272C274.209 84 276 85.7909 276 88V100C276 102.209 274.209 104 272 104H20C17.7909 104 16 102.209 16 100V88Z" fill="#DCDCDC"/>
<path d="M16 36C16 33.7909 17.7909 32 20 32H272C274.209 32 276 33.7909 276 36V48C276 50.2091 274.209 52 272 52H20C17.7909 52 16 50.2091 16 48V36Z" fill="#DCDCDC"/>
<path d="M16 140C16 137.791 17.7909 136 20 136H272C274.209 136 276 137.791 276 140V152C276 154.209 274.209 156 272 156H20C17.7909 156 16 154.209 16 152V140Z" fill="#DCDCDC"/>
<path d="M16 72C16 69.7909 17.7909 68 20 68H130C132.209 68 134 69.7909 134 72V76C134 78.2091 132.209 80 130 80H20C17.7909 80 16 78.2091 16 76V72Z" fill="#DCDCDC"/>
<path d="M16 20C16 17.7909 17.7909 16 20 16H130C132.209 16 134 17.7909 134 20V24C134 26.2091 132.209 28 130 28H20C17.7909 28 16 26.2091 16 24V20Z" fill="#DCDCDC"/>
<path d="M16 124C16 121.791 17.7909 120 20 120H130C132.209 120 134 121.791 134 124V128C134 130.209 132.209 132 130 132H20C17.7909 132 16 130.209 16 128V124Z" fill="#DCDCDC"/>
<path d="M17 188C17 184.134 20.134 181 24 181H155C158.866 181 162 184.134 162 188V212C162 215.866 158.866 219 155 219H24C20.134 219 17 215.866 17 212V188Z" fill="white"/>
<path d="M17 188C17 184.134 20.134 181 24 181H155C158.866 181 162 184.134 162 188V212C162 215.866 158.866 219 155 219H24C20.134 219 17 215.866 17 212V188Z" stroke="#0059B3" stroke-width="2"/>
<path d="M40.432 204.272H40.368C40.272 204.816 39.968 205.275 39.456 205.648C38.9547 206.011 38.2827 206.192 37.44 206.192C36.7787 206.192 36.1653 206.069 35.6 205.824C35.0453 205.579 34.56 205.216 34.144 204.736C33.7387 204.245 33.4187 203.643 33.184 202.928C32.9493 202.213 32.832 201.387 32.832 200.448C32.832 199.509 32.9493 198.683 33.184 197.968C33.4293 197.243 33.7707 196.635 34.208 196.144C34.6453 195.653 35.168 195.28 35.776 195.024C36.384 194.768 37.0613 194.64 37.808 194.64C38.8107 194.64 39.664 194.859 40.368 195.296C41.072 195.733 41.6267 196.363 42.032 197.184L40.32 198.192C40.1173 197.712 39.8133 197.312 39.408 196.992C39.0133 196.672 38.48 196.512 37.808 196.512C36.976 196.512 36.3093 196.768 35.808 197.28C35.3173 197.781 35.072 198.528 35.072 199.52V201.312C35.072 202.293 35.3227 203.04 35.824 203.552C36.3253 204.064 36.9973 204.32 37.84 204.32C38.1707 204.32 38.48 204.283 38.768 204.208C39.056 204.123 39.3067 204 39.52 203.84C39.7333 203.68 39.904 203.483 40.032 203.248C40.16 203.013 40.224 202.736 40.224 202.416V201.696H38.032V199.92H42.256V206H40.432V204.272ZM47.9506 206.192C47.332 206.192 46.7773 206.091 46.2866 205.888C45.8066 205.675 45.396 205.381 45.0546 205.008C44.724 204.624 44.468 204.165 44.2866 203.632C44.1053 203.088 44.0146 202.48 44.0146 201.808C44.0146 201.147 44.1 200.549 44.2706 200.016C44.452 199.483 44.708 199.029 45.0386 198.656C45.3693 198.272 45.7746 197.979 46.2546 197.776C46.7346 197.563 47.2786 197.456 47.8866 197.456C48.5373 197.456 49.1026 197.568 49.5826 197.792C50.0626 198.016 50.4573 198.32 50.7666 198.704C51.076 199.088 51.3053 199.536 51.4546 200.048C51.6146 200.549 51.6946 201.088 51.6946 201.664V202.336H46.1426V202.544C46.1426 203.152 46.3133 203.643 46.6546 204.016C46.996 204.379 47.5026 204.56 48.1746 204.56C48.6866 204.56 49.1026 204.453 49.4226 204.24C49.7533 204.027 50.0466 203.755 50.3026 203.424L51.4066 204.656C51.0653 205.136 50.596 205.515 49.9986 205.792C49.412 206.059 48.7293 206.192 47.9506 206.192ZM47.9186 198.992C47.3746 198.992 46.9426 199.173 46.6226 199.536C46.3026 199.899 46.1426 200.368 46.1426 200.944V201.072H49.5666V200.928C49.5666 200.352 49.4226 199.888 49.1346 199.536C48.8573 199.173 48.452 198.992 47.9186 198.992ZM53.4965 206V197.648H55.5445V199.04H55.6245C55.7845 198.603 56.0405 198.229 56.3925 197.92C56.7445 197.611 57.2352 197.456 57.8645 197.456C58.4405 197.456 58.9365 197.595 59.3525 197.872C59.7685 198.149 60.0778 198.571 60.2805 199.136H60.3125C60.4618 198.667 60.7552 198.272 61.1925 197.952C61.6405 197.621 62.2005 197.456 62.8725 197.456C63.6938 197.456 64.3232 197.739 64.7605 198.304C65.2085 198.869 65.4325 199.675 65.4325 200.72V206H63.3845V200.928C63.3845 199.733 62.9365 199.136 62.0405 199.136C61.8378 199.136 61.6405 199.168 61.4485 199.232C61.2672 199.285 61.1018 199.371 60.9525 199.488C60.8138 199.595 60.7018 199.733 60.6165 199.904C60.5312 200.064 60.4885 200.256 60.4885 200.48V206H58.4405V200.928C58.4405 199.733 57.9925 199.136 57.0965 199.136C56.9045 199.136 56.7125 199.168 56.5205 199.232C56.3392 199.285 56.1738 199.371 56.0245 199.488C55.8858 199.595 55.7685 199.733 55.6725 199.904C55.5872 200.064 55.5445 200.256 55.5445 200.48V206H53.4965ZM74.7929 206.192C74.1955 206.192 73.6569 206.091 73.1769 205.888C72.7075 205.685 72.3022 205.392 71.9609 205.008C71.6302 204.624 71.3742 204.165 71.1929 203.632C71.0115 203.088 70.9209 202.48 70.9209 201.808C70.9209 201.136 71.0115 200.533 71.1929 200C71.3742 199.467 71.6302 199.013 71.9609 198.64C72.3022 198.256 72.7075 197.963 73.1769 197.76C73.6569 197.557 74.1955 197.456 74.7929 197.456C75.3902 197.456 75.9289 197.557 76.4089 197.76C76.8889 197.963 77.2942 198.256 77.6249 198.64C77.9662 199.013 78.2275 199.467 78.4089 200C78.5902 200.533 78.6809 201.136 78.6809 201.808C78.6809 202.48 78.5902 203.088 78.4089 203.632C78.2275 204.165 77.9662 204.624 77.6249 205.008C77.2942 205.392 76.8889 205.685 76.4089 205.888C75.9289 206.091 75.3902 206.192 74.7929 206.192ZM74.7929 204.544C75.3369 204.544 75.7635 204.379 76.0729 204.048C76.3822 203.717 76.5369 203.232 76.5369 202.592V201.04C76.5369 200.411 76.3822 199.931 76.0729 199.6C75.7635 199.269 75.3369 199.104 74.7929 199.104C74.2595 199.104 73.8382 199.269 73.5289 199.6C73.2195 199.931 73.0649 200.411 73.0649 201.04V202.592C73.0649 203.232 73.2195 203.717 73.5289 204.048C73.8382 204.379 74.2595 204.544 74.7929 204.544ZM88.0325 206.704C88.0325 207.141 87.9525 207.525 87.7925 207.856C87.6432 208.197 87.3925 208.48 87.0405 208.704C86.6885 208.928 86.2352 209.099 85.6805 209.216C85.1258 209.333 84.4485 209.392 83.6485 209.392C82.9445 209.392 82.3472 209.344 81.8565 209.248C81.3658 209.163 80.9605 209.035 80.6405 208.864C80.3312 208.704 80.1072 208.501 79.9685 208.256C79.8298 208.011 79.7605 207.733 79.7605 207.424C79.7605 206.955 79.8885 206.587 80.1445 206.32C80.4112 206.064 80.7792 205.899 81.2485 205.824V205.648C80.9072 205.563 80.6405 205.397 80.4485 205.152C80.2672 204.896 80.1765 204.597 80.1765 204.256C80.1765 204.043 80.2192 203.856 80.3045 203.696C80.3898 203.525 80.5018 203.381 80.6405 203.264C80.7898 203.147 80.9552 203.051 81.1365 202.976C81.3178 202.891 81.5098 202.827 81.7125 202.784V202.72C81.2005 202.485 80.8165 202.16 80.5605 201.744C80.3152 201.328 80.1925 200.843 80.1925 200.288C80.1925 199.435 80.4858 198.752 81.0725 198.24C81.6592 197.717 82.5178 197.456 83.6485 197.456C83.9045 197.456 84.1552 197.472 84.4005 197.504C84.6565 197.536 84.8912 197.589 85.1045 197.664V197.392C85.1045 196.581 85.4992 196.176 86.2885 196.176H87.5845V197.744H85.8085V197.968C86.2458 198.213 86.5712 198.533 86.7845 198.928C86.9978 199.323 87.1045 199.776 87.1045 200.288C87.1045 201.131 86.8112 201.808 86.2245 202.32C85.6485 202.832 84.7898 203.088 83.6485 203.088C83.1578 203.088 82.7312 203.04 82.3685 202.944C82.2085 203.019 82.0698 203.12 81.9525 203.248C81.8352 203.365 81.7765 203.515 81.7765 203.696C81.7765 204.112 82.1392 204.32 82.8645 204.32H85.1045C86.1285 204.32 86.8698 204.533 87.3285 204.96C87.7978 205.376 88.0325 205.957 88.0325 206.704ZM86.1125 206.944C86.1125 206.677 86.0058 206.469 85.7925 206.32C85.5792 206.171 85.2112 206.096 84.6885 206.096H81.8405C81.5525 206.309 81.4085 206.597 81.4085 206.96C81.4085 207.28 81.5418 207.531 81.8085 207.712C82.0752 207.893 82.5285 207.984 83.1685 207.984H84.1925C84.8645 207.984 85.3498 207.899 85.6485 207.728C85.9578 207.557 86.1125 207.296 86.1125 206.944ZM83.6485 201.696C84.6512 201.696 85.1525 201.269 85.1525 200.416V200.144C85.1525 199.291 84.6512 198.864 83.6485 198.864C82.6458 198.864 82.1445 199.291 82.1445 200.144V200.416C82.1445 201.269 82.6458 201.696 83.6485 201.696ZM97.9885 204.608H97.9085C97.8338 204.821 97.7325 205.024 97.6045 205.216C97.4872 205.397 97.3325 205.563 97.1405 205.712C96.9592 205.861 96.7352 205.979 96.4685 206.064C96.2125 206.149 95.9138 206.192 95.5725 206.192C94.7085 206.192 94.0472 205.909 93.5885 205.344C93.1298 204.779 92.9005 203.973 92.9005 202.928V197.648H94.9485V202.72C94.9485 203.296 95.0605 203.739 95.2845 204.048C95.5085 204.347 95.8658 204.496 96.3565 204.496C96.5592 204.496 96.7565 204.469 96.9485 204.416C97.1512 204.363 97.3272 204.283 97.4765 204.176C97.6258 204.059 97.7485 203.92 97.8445 203.76C97.9405 203.589 97.9885 203.392 97.9885 203.168V197.648H100.036V206H97.9885V204.608ZM107.587 204.608H107.507C107.357 205.088 107.075 205.472 106.659 205.76C106.243 206.048 105.757 206.192 105.203 206.192C104.147 206.192 103.336 205.813 102.771 205.056C102.216 204.299 101.939 203.216 101.939 201.808C101.939 200.411 102.216 199.339 102.771 198.592C103.336 197.835 104.147 197.456 105.203 197.456C105.757 197.456 106.243 197.6 106.659 197.888C107.075 198.165 107.357 198.544 107.507 199.024H107.587V194.16H109.635V206H107.587V204.608ZM105.859 204.496C106.349 204.496 106.76 204.379 107.091 204.144C107.421 203.909 107.587 203.573 107.587 203.136V200.48C107.587 200.075 107.421 199.749 107.091 199.504C106.76 199.259 106.349 199.136 105.859 199.136C105.325 199.136 104.893 199.317 104.563 199.68C104.243 200.032 104.083 200.507 104.083 201.104V202.544C104.083 203.141 104.243 203.616 104.563 203.968C104.893 204.32 105.325 204.496 105.859 204.496ZM114.733 206.192C113.933 206.192 113.261 206.059 112.717 205.792C112.173 205.515 111.693 205.136 111.277 204.656L112.525 203.44C112.834 203.792 113.17 204.069 113.533 204.272C113.906 204.475 114.333 204.576 114.812 204.576C115.303 204.576 115.655 204.491 115.869 204.32C116.093 204.149 116.205 203.915 116.205 203.616C116.205 203.371 116.125 203.179 115.965 203.04C115.815 202.891 115.554 202.789 115.181 202.736L114.349 202.624C113.442 202.507 112.749 202.251 112.269 201.856C111.799 201.451 111.565 200.864 111.565 200.096C111.565 199.691 111.639 199.328 111.789 199.008C111.938 198.677 112.151 198.4 112.429 198.176C112.706 197.941 113.037 197.765 113.421 197.648C113.815 197.52 114.253 197.456 114.733 197.456C115.138 197.456 115.495 197.488 115.805 197.552C116.125 197.605 116.413 197.691 116.669 197.808C116.925 197.915 117.159 198.053 117.373 198.224C117.586 198.384 117.794 198.565 117.997 198.768L116.797 199.968C116.551 199.712 116.258 199.499 115.917 199.328C115.575 199.157 115.202 199.072 114.797 199.072C114.349 199.072 114.023 199.152 113.821 199.312C113.629 199.472 113.533 199.68 113.533 199.936C113.533 200.213 113.613 200.427 113.773 200.576C113.943 200.715 114.226 200.816 114.621 200.88L115.469 200.992C117.271 201.248 118.173 202.069 118.173 203.456C118.173 203.861 118.087 204.235 117.917 204.576C117.757 204.907 117.527 205.195 117.229 205.44C116.93 205.675 116.567 205.861 116.141 206C115.725 206.128 115.255 206.192 114.733 206.192ZM119.981 194.16H122.029V201.296H122.109L123.213 199.792L125.085 197.648H127.405L124.525 200.88L127.709 206H125.277L123.133 202.256L122.029 203.456V206H119.981V194.16ZM128.965 206V197.648H131.013V199.376H131.093C131.147 199.152 131.227 198.939 131.333 198.736C131.451 198.523 131.6 198.336 131.781 198.176C131.963 198.016 132.176 197.888 132.421 197.792C132.677 197.696 132.971 197.648 133.301 197.648H133.749V199.584H133.109C132.416 199.584 131.893 199.685 131.541 199.888C131.189 200.091 131.013 200.421 131.013 200.88V206H128.965ZM136.271 196.432C135.844 196.432 135.535 196.336 135.343 196.144C135.161 195.952 135.071 195.707 135.071 195.408V195.088C135.071 194.789 135.161 194.544 135.343 194.352C135.535 194.16 135.844 194.064 136.271 194.064C136.687 194.064 136.991 194.16 137.183 194.352C137.375 194.544 137.471 194.789 137.471 195.088V195.408C137.471 195.707 137.375 195.952 137.183 196.144C136.991 196.336 136.687 196.432 136.271 196.432ZM135.247 197.648H137.295V206H135.247V197.648ZM141.46 206L138.676 197.648H140.692L141.86 201.248L142.676 204.224H142.788L143.604 201.248L144.74 197.648H146.692L143.892 206H141.46Z" fill="#1A1A1A"/>
</svg>
