<svg width="832" height="296" viewBox="0 0 832 296" fill="none" xmlns="http://www.w3.org/2000/svg">
<g clip-path="url(#clip0)">
<rect y="-4" width="832" height="300" fill="#7A0177"/>
<path d="M49.8 44.56H39.16V56H33.08V28.08H39.16V39.2H49.8V28.08H55.88V56H49.8V44.56ZM66.1853 56L59.3053 35H65.1453L67.7453 43.48L69.7053 51.08H70.0253L71.9853 43.48L74.5053 35H80.1053L73.2253 56H66.1853ZM91.4363 56.48C89.8896 56.48 88.5029 56.2267 87.2763 55.72C86.0763 55.2133 85.0496 54.48 84.1963 53.52C83.3696 52.56 82.7296 51.4 82.2763 50.04C81.8229 48.68 81.5963 47.16 81.5963 45.48C81.5963 43.8 81.8229 42.28 82.2763 40.92C82.7296 39.56 83.3696 38.4133 84.1963 37.48C85.0496 36.52 86.0763 35.7867 87.2763 35.28C88.5029 34.7733 89.8896 34.52 91.4363 34.52C92.9829 34.52 94.3563 34.7733 95.5563 35.28C96.7829 35.7867 97.8096 36.52 98.6363 37.48C99.4896 38.4133 100.143 39.56 100.596 40.92C101.05 42.28 101.276 43.8 101.276 45.48C101.276 47.16 101.05 48.68 100.596 50.04C100.143 51.4 99.4896 52.56 98.6363 53.52C97.8096 54.48 96.7829 55.2133 95.5563 55.72C94.3563 56.2267 92.9829 56.48 91.4363 56.48ZM91.4363 51.8C92.6096 51.8 93.5163 51.44 94.1563 50.72C94.7963 50 95.1163 48.9733 95.1163 47.64V43.36C95.1163 42.0267 94.7963 41 94.1563 40.28C93.5163 39.56 92.6096 39.2 91.4363 39.2C90.2629 39.2 89.3563 39.56 88.7163 40.28C88.0763 41 87.7563 42.0267 87.7563 43.36V47.64C87.7563 48.9733 88.0763 50 88.7163 50.72C89.3563 51.44 90.2629 51.8 91.4363 51.8ZM105.494 56V35H111.414V39.56H111.614C111.721 38.9733 111.908 38.4133 112.174 37.88C112.441 37.32 112.788 36.8267 113.214 36.4C113.668 35.9733 114.201 35.64 114.814 35.4C115.428 35.1333 116.148 35 116.974 35H118.014V40.52H116.534C114.801 40.52 113.508 40.7467 112.654 41.2C111.828 41.6533 111.414 42.4933 111.414 43.72V56H105.494ZM121.666 56V35H127.586V38.56H127.826C128.2 37.4667 128.853 36.52 129.786 35.72C130.72 34.92 132.013 34.52 133.666 34.52C135.826 34.52 137.453 35.24 138.546 36.68C139.666 38.12 140.226 40.1733 140.226 42.84V56H134.306V43.32C134.306 41.96 134.093 40.96 133.666 40.32C133.24 39.6533 132.48 39.32 131.386 39.32C130.906 39.32 130.44 39.3867 129.986 39.52C129.533 39.6267 129.12 39.8133 128.746 40.08C128.4 40.3467 128.12 40.68 127.906 41.08C127.693 41.4533 127.586 41.8933 127.586 42.4V56H121.666ZM161.014 56C159.948 56 159.054 55.6667 158.334 55C157.641 54.3333 157.201 53.44 157.014 52.32H156.774C156.454 53.68 155.748 54.72 154.654 55.44C153.561 56.1333 152.214 56.48 150.614 56.48C148.508 56.48 146.894 55.92 145.774 54.8C144.654 53.68 144.094 52.2 144.094 50.36C144.094 48.1467 144.894 46.5067 146.494 45.44C148.121 44.3467 150.321 43.8 153.094 43.8H156.414V42.48C156.414 41.4667 156.148 40.6667 155.614 40.08C155.081 39.4667 154.188 39.16 152.934 39.16C151.761 39.16 150.828 39.4133 150.134 39.92C149.441 40.4267 148.868 41 148.414 41.64L144.894 38.52C145.748 37.2667 146.814 36.2933 148.094 35.6C149.401 34.88 151.161 34.52 153.374 34.52C156.361 34.52 158.601 35.1733 160.094 36.48C161.588 37.7867 162.334 39.6933 162.334 42.2V51.4H164.294V56H161.014ZM152.814 52.36C153.801 52.36 154.641 52.1467 155.334 51.72C156.054 51.2933 156.414 50.6 156.414 49.64V47.16H153.534C151.214 47.16 150.054 47.9467 150.054 49.52V50.12C150.054 50.8933 150.294 51.4667 150.774 51.84C151.254 52.1867 151.934 52.36 152.814 52.36ZM153.494 33.68C152.668 33.68 151.894 33.5467 151.174 33.28C150.454 32.9867 149.828 32.5867 149.294 32.08C148.761 31.5733 148.334 30.9733 148.014 30.28C147.721 29.56 147.574 28.7867 147.574 27.96C147.574 27.1333 147.721 26.3733 148.014 25.68C148.334 24.96 148.761 24.3467 149.294 23.84C149.828 23.3333 150.454 22.9467 151.174 22.68C151.894 22.3867 152.668 22.24 153.494 22.24C154.321 22.24 155.094 22.3867 155.814 22.68C156.534 22.9467 157.161 23.3333 157.694 23.84C158.228 24.3467 158.641 24.96 158.934 25.68C159.254 26.3733 159.414 27.1333 159.414 27.96C159.414 28.7867 159.254 29.56 158.934 30.28C158.641 30.9733 158.228 31.5733 157.694 32.08C157.161 32.5867 156.534 32.9867 155.814 33.28C155.094 33.5467 154.321 33.68 153.494 33.68ZM153.494 30.68C154.161 30.68 154.668 30.5067 155.014 30.16C155.361 29.7867 155.534 29.28 155.534 28.64V27.28C155.534 26.64 155.361 26.1467 155.014 25.8C154.668 25.4267 154.161 25.24 153.494 25.24C152.828 25.24 152.321 25.4267 151.974 25.8C151.628 26.1467 151.454 26.64 151.454 27.28V28.64C151.454 29.28 151.628 29.7867 151.974 30.16C152.321 30.5067 152.828 30.68 153.494 30.68ZM168.268 56V35H174.188V39.56H174.388C174.494 38.9733 174.681 38.4133 174.948 37.88C175.214 37.32 175.561 36.8267 175.988 36.4C176.441 35.9733 176.974 35.64 177.588 35.4C178.201 35.1333 178.921 35 179.748 35H180.788V40.52H179.308C177.574 40.52 176.281 40.7467 175.428 41.2C174.601 41.6533 174.188 42.4933 174.188 43.72V56H168.268ZM193.893 26.4H199.813V38.52H200.013C200.306 37.3467 200.973 36.3867 202.013 35.64C203.079 34.8933 204.293 34.52 205.653 34.52C208.319 34.52 210.333 35.4533 211.693 37.32C213.053 39.1867 213.733 41.9067 213.733 45.48C213.733 49.0533 213.053 51.7867 211.693 53.68C210.333 55.5467 208.319 56.48 205.653 56.48C204.959 56.48 204.306 56.3733 203.693 56.16C203.079 55.9733 202.519 55.7067 202.013 55.36C201.533 54.9867 201.119 54.56 200.773 54.08C200.426 53.5733 200.173 53.04 200.013 52.48H199.813V56H193.893V26.4ZM203.693 51.68C204.813 51.68 205.733 51.2933 206.453 50.52C207.199 49.72 207.573 48.6533 207.573 47.32V43.68C207.573 42.3467 207.199 41.2933 206.453 40.52C205.733 39.72 204.813 39.32 203.693 39.32C202.573 39.32 201.639 39.6 200.893 40.16C200.173 40.6933 199.813 41.44 199.813 42.4V48.6C199.813 49.56 200.173 50.32 200.893 50.88C201.639 51.4133 202.573 51.68 203.693 51.68ZM218.229 56V35H224.149V39.56H224.349C224.455 38.9733 224.642 38.4133 224.909 37.88C225.175 37.32 225.522 36.8267 225.949 36.4C226.402 35.9733 226.935 35.64 227.549 35.4C228.162 35.1333 228.882 35 229.709 35H230.749V40.52H229.269C227.535 40.52 226.242 40.7467 225.389 41.2C224.562 41.6533 224.149 42.4933 224.149 43.72V56H218.229ZM246.801 52.48H246.601C246.414 53.0133 246.161 53.52 245.841 54C245.547 54.48 245.161 54.9067 244.681 55.28C244.201 55.6533 243.627 55.9467 242.961 56.16C242.321 56.3733 241.574 56.48 240.721 56.48C238.561 56.48 236.921 55.7733 235.801 54.36C234.707 52.92 234.161 50.8667 234.161 48.2V35H240.081V47.68C240.081 48.96 240.307 49.9467 240.761 50.64C241.214 51.3333 241.987 51.68 243.081 51.68C243.534 51.68 243.987 51.6133 244.441 51.48C244.894 51.3467 245.294 51.16 245.641 50.92C245.987 50.6533 246.267 50.3333 246.481 49.96C246.694 49.5867 246.801 49.1467 246.801 48.64V35H252.721V56H246.801V52.48ZM277.669 57.52C277.669 58.64 277.469 59.6267 277.069 60.48C276.695 61.3333 276.069 62.0533 275.189 62.64C274.309 63.2533 273.135 63.7067 271.669 64C270.229 64.32 268.442 64.48 266.309 64.48C264.495 64.48 262.949 64.36 261.669 64.12C260.415 63.9067 259.389 63.5867 258.589 63.16C257.815 62.76 257.242 62.2533 256.869 61.64C256.522 61.0533 256.349 60.3733 256.349 59.6C256.349 58.4267 256.695 57.5067 257.389 56.84C258.082 56.1733 259.042 55.76 260.269 55.6V55.16C259.255 54.9733 258.495 54.5467 257.989 53.88C257.482 53.1867 257.229 52.3867 257.229 51.48C257.229 50.92 257.335 50.44 257.549 50.04C257.789 49.6133 258.082 49.2533 258.429 48.96C258.802 48.64 259.229 48.3867 259.709 48.2C260.189 48.0133 260.669 47.8667 261.149 47.76V47.6C259.869 47.0133 258.922 46.2133 258.309 45.2C257.695 44.16 257.389 42.96 257.389 41.6C257.389 39.4667 258.122 37.76 259.589 36.48C261.082 35.1733 263.349 34.52 266.389 34.52C267.775 34.52 268.962 34.6533 269.949 34.92V34.12C269.949 33 270.215 32.2 270.749 31.72C271.309 31.2133 272.095 30.96 273.109 30.96H276.429V35.36H271.789V35.6C273.015 36.1867 273.922 37 274.509 38.04C275.095 39.0533 275.389 40.24 275.389 41.6C275.389 43.7067 274.642 45.4 273.149 46.68C271.682 47.9333 269.429 48.56 266.389 48.56C265.029 48.56 263.789 48.4133 262.669 48.12C262.055 48.52 261.749 49.08 261.749 49.8C261.749 50.3067 261.935 50.7067 262.309 51C262.709 51.2667 263.362 51.4 264.269 51.4H270.349C272.909 51.4 274.762 51.9333 275.909 53C277.082 54.0667 277.669 55.5733 277.669 57.52ZM272.109 58.32C272.109 57.7067 271.869 57.24 271.389 56.92C270.909 56.6 270.069 56.44 268.869 56.44H261.669C261.402 56.7067 261.202 57 261.069 57.32C260.962 57.6667 260.909 58 260.909 58.32C260.909 59.0933 261.242 59.6533 261.909 60C262.575 60.3733 263.709 60.56 265.309 60.56H267.709C269.309 60.56 270.442 60.3733 271.109 60C271.775 59.6533 272.109 59.0933 272.109 58.32ZM266.389 44.68C267.562 44.68 268.429 44.44 268.989 43.96C269.575 43.4533 269.869 42.7333 269.869 41.8V41.32C269.869 40.3867 269.575 39.68 268.989 39.2C268.429 38.6933 267.562 38.44 266.389 38.44C265.215 38.44 264.335 38.6933 263.749 39.2C263.189 39.68 262.909 40.3867 262.909 41.32V41.8C262.909 42.7333 263.189 43.4533 263.749 43.96C264.335 44.44 265.215 44.68 266.389 44.68ZM288.825 56.48C287.225 56.48 285.798 56.2267 284.545 55.72C283.291 55.1867 282.225 54.4533 281.345 53.52C280.491 52.56 279.838 51.4 279.385 50.04C278.958 48.68 278.745 47.16 278.745 45.48C278.745 43.8267 278.958 42.3333 279.385 41C279.811 39.64 280.438 38.48 281.265 37.52C282.118 36.56 283.158 35.8267 284.385 35.32C285.611 34.7867 287.011 34.52 288.585 34.52C290.318 34.52 291.798 34.8133 293.025 35.4C294.278 35.9867 295.291 36.7733 296.065 37.76C296.865 38.7467 297.438 39.8933 297.785 41.2C298.158 42.48 298.345 43.8267 298.345 45.24V47H284.865V47.32C284.865 48.7067 285.238 49.8133 285.985 50.64C286.731 51.44 287.905 51.84 289.505 51.84C290.731 51.84 291.731 51.6 292.505 51.12C293.278 50.6133 293.998 50.0133 294.665 49.32L297.625 53C296.691 54.0933 295.465 54.9467 293.945 55.56C292.451 56.1733 290.745 56.48 288.825 56.48ZM288.705 38.88C287.505 38.88 286.558 39.28 285.865 40.08C285.198 40.8533 284.865 41.8933 284.865 43.2V43.52H292.225V43.16C292.225 41.88 291.931 40.8533 291.345 40.08C290.785 39.28 289.905 38.88 288.705 38.88ZM302.526 56V35H308.446V39.56H308.646C308.752 38.9733 308.939 38.4133 309.206 37.88C309.472 37.32 309.819 36.8267 310.246 36.4C310.699 35.9733 311.232 35.64 311.846 35.4C312.459 35.1333 313.179 35 314.006 35H315.046V40.52H313.566C311.832 40.52 310.539 40.7467 309.686 41.2C308.859 41.6533 308.446 42.4933 308.446 43.72V56H302.526ZM332.631 56L325.751 35H331.591L334.191 43.48L336.151 51.08H336.471L338.431 43.48L340.951 35H346.551L339.671 56H332.631ZM352.634 32.76C351.434 32.76 350.554 32.4933 349.994 31.96C349.461 31.4 349.194 30.6933 349.194 29.84V28.96C349.194 28.1067 349.461 27.4133 349.994 26.88C350.554 26.32 351.434 26.04 352.634 26.04C353.834 26.04 354.701 26.32 355.234 26.88C355.794 27.4133 356.074 28.1067 356.074 28.96V29.84C356.074 30.6933 355.794 31.4 355.234 31.96C354.701 32.4933 353.834 32.76 352.634 32.76ZM349.674 35H355.594V56H349.674V35ZM379.053 56.48C377.479 56.48 376.079 56.2267 374.853 55.72C373.626 55.1867 372.599 54.4533 371.773 53.52C370.946 52.56 370.319 51.4 369.893 50.04C369.466 48.68 369.253 47.16 369.253 45.48C369.253 43.8 369.466 42.2933 369.893 40.96C370.319 39.6 370.946 38.44 371.773 37.48C372.599 36.52 373.626 35.7867 374.853 35.28C376.079 34.7733 377.479 34.52 379.053 34.52C381.186 34.52 382.959 35 384.373 35.96C385.813 36.92 386.839 38.2667 387.453 40L382.653 42.08C382.466 41.28 382.079 40.6 381.493 40.04C380.906 39.48 380.093 39.2 379.053 39.2C377.853 39.2 376.946 39.6 376.333 40.4C375.719 41.1733 375.413 42.2267 375.413 43.56V47.48C375.413 48.8133 375.719 49.8667 376.333 50.64C376.946 51.4133 377.853 51.8 379.053 51.8C380.119 51.8 380.959 51.52 381.573 50.96C382.213 50.3733 382.679 49.6133 382.973 48.68L387.573 50.68C386.879 52.68 385.799 54.1467 384.333 55.08C382.893 56.0133 381.133 56.48 379.053 56.48ZM404.077 35H409.597L401.517 59.24C400.983 60.8667 400.223 62.0667 399.237 62.84C398.277 63.6133 396.89 64 395.077 64H391.397V59.4H395.357L396.077 57.08L388.717 35H394.597L397.677 44.8L399.197 50.88H399.437L400.997 44.8L404.077 35ZM412.604 26.4H418.524V43.88H418.764L421.364 40L425.564 35H432.124L425.124 43.04L432.924 56H425.884L421.164 47.12L418.524 50.08V56H412.604V26.4ZM441.57 56C439.543 56 438.05 55.5067 437.09 54.52C436.156 53.5333 435.69 52.1067 435.69 50.24V26.4H441.61V51.4H444.25V56H441.57ZM456.559 56.48C454.959 56.48 453.532 56.2267 452.279 55.72C451.026 55.1867 449.959 54.4533 449.079 53.52C448.226 52.56 447.572 51.4 447.119 50.04C446.692 48.68 446.479 47.16 446.479 45.48C446.479 43.8267 446.692 42.3333 447.119 41C447.546 39.64 448.172 38.48 448.999 37.52C449.852 36.56 450.892 35.8267 452.119 35.32C453.346 34.7867 454.746 34.52 456.319 34.52C458.052 34.52 459.532 34.8133 460.759 35.4C462.012 35.9867 463.026 36.7733 463.799 37.76C464.599 38.7467 465.172 39.8933 465.519 41.2C465.892 42.48 466.079 43.8267 466.079 45.24V47H452.599V47.32C452.599 48.7067 452.972 49.8133 453.719 50.64C454.466 51.44 455.639 51.84 457.239 51.84C458.466 51.84 459.466 51.6 460.239 51.12C461.012 50.6133 461.732 50.0133 462.399 49.32L465.359 53C464.426 54.0933 463.199 54.9467 461.679 55.56C460.186 56.1733 458.479 56.48 456.559 56.48ZM456.439 38.88C455.239 38.88 454.292 39.28 453.599 40.08C452.932 40.8533 452.599 41.8933 452.599 43.2V43.52H459.959V43.16C459.959 41.88 459.666 40.8533 459.079 40.08C458.519 39.28 457.639 38.88 456.439 38.88ZM470.26 56V35H476.18V38.56H476.42C476.793 37.4667 477.447 36.52 478.38 35.72C479.313 34.92 480.607 34.52 482.26 34.52C484.42 34.52 486.047 35.24 487.14 36.68C488.26 38.12 488.82 40.1733 488.82 42.84V56H482.9V43.32C482.9 41.96 482.687 40.96 482.26 40.32C481.833 39.6533 481.073 39.32 479.98 39.32C479.5 39.32 479.033 39.3867 478.58 39.52C478.127 39.6267 477.713 39.8133 477.34 40.08C476.993 40.3467 476.713 40.68 476.5 41.08C476.287 41.4533 476.18 41.8933 476.18 42.4V56H470.26ZM497.648 46.68V40.56C499.755 40.48 501.328 40.1333 502.368 39.52C503.435 38.88 503.968 37.8133 503.968 36.32V35.76C503.968 34.7467 503.661 33.9733 503.048 33.44C502.461 32.9067 501.688 32.64 500.728 32.64C499.688 32.64 498.821 32.96 498.128 33.6C497.461 34.24 497.008 35.0533 496.768 36.04L491.888 34C492.128 33.2 492.475 32.4267 492.928 31.68C493.381 30.9067 493.968 30.2267 494.688 29.64C495.435 29.0267 496.315 28.5333 497.328 28.16C498.368 27.7867 499.568 27.6 500.928 27.6C502.315 27.6 503.581 27.8 504.728 28.2C505.875 28.6 506.861 29.16 507.688 29.88C508.515 30.6 509.141 31.4667 509.568 32.48C510.021 33.4933 510.248 34.6133 510.248 35.84C510.248 36.96 510.061 37.9733 509.688 38.88C509.315 39.7867 508.808 40.5867 508.168 41.28C507.528 41.9467 506.781 42.4933 505.928 42.92C505.075 43.3467 504.181 43.64 503.248 43.8V46.68H497.648ZM500.528 56.48C499.248 56.48 498.328 56.1867 497.768 55.6C497.235 55.0133 496.968 54.2933 496.968 53.44V52.48C496.968 51.6267 497.235 50.9067 497.768 50.32C498.328 49.7333 499.248 49.44 500.528 49.44C501.808 49.44 502.715 49.7333 503.248 50.32C503.808 50.9067 504.088 51.6267 504.088 52.48V53.44C504.088 54.2933 503.808 55.0133 503.248 55.6C502.715 56.1867 501.808 56.48 500.528 56.48Z" fill="white"/>
<mask id="mask0" style="mask-type:alpha" maskUnits="userSpaceOnUse" x="660" y="-116" width="572" height="394">
<g clip-path="url(#clip1)">
<path d="M1135.33 57.6432C1120.84 57.6432 1106.96 60.6626 1094.58 65.7955C1091.26 54.9258 1088.24 43.754 1085.52 32.2803C1085.83 30.1667 1085.52 28.0532 1084.01 26.2415C1067.71 -45.318 1063.49 -115.67 1063.49 -116.878C1063.49 -119.293 1061.98 -121.407 1059.86 -122.916C1057.75 -124.426 1055.34 -124.426 1052.92 -123.52L986.812 -95.7418C982.887 -94.2322 981.076 -89.7031 982.887 -85.7779C984.397 -81.8526 988.925 -80.041 992.849 -81.8527L1049.3 -105.404C1050.51 -91.2128 1052.92 -64.3402 1057.75 -32.6366C1057.75 -32.6366 1057.45 -32.6366 1057.45 -32.3346L922.211 100.519L858.818 -43.2044H886.591C890.817 -43.2044 894.137 -46.5258 894.137 -50.7529C894.137 -54.9801 890.817 -58.3014 886.591 -58.3014H808.406C804.18 -58.3014 800.859 -54.9801 800.859 -50.7529C800.859 -46.5258 804.18 -43.2044 808.406 -43.2044H841.612L851.875 -20.2571L830.141 36.2055C816.255 31.3745 801.463 28.657 786.068 28.657C738.07 28.657 693.393 54.6238 669.847 96.5933C667.734 100.217 669.244 104.746 672.866 106.859C674.074 107.463 675.281 107.765 676.489 107.765C679.205 107.765 681.62 106.255 683.13 103.84C703.959 66.7014 743.504 43.4521 786.068 43.4521C799.35 43.4521 812.33 45.5656 824.405 49.7928L820.179 60.3607C809.614 56.7374 798.142 54.6238 786.068 54.6238C727.203 54.6238 679.205 102.632 679.205 161.51C679.205 220.388 727.203 268.397 786.068 268.397C840.102 268.397 884.779 228.239 892.024 176.305H914.061C919.193 185.363 929.154 191.704 940.324 191.704C956.926 191.704 970.511 178.117 970.511 161.51C970.511 158.793 970.209 156.377 969.605 153.962L1072.84 45.5656C1074.96 54.3219 1077.67 63.0781 1080.09 71.5324C1049.9 89.9507 1029.68 123.164 1029.68 161.208C1029.68 219.181 1076.77 266.283 1134.73 266.283C1192.69 266.283 1239.78 219.181 1239.78 161.208C1239.78 103.236 1192.99 57.6432 1135.33 57.6432ZM786.369 254.507C735.655 254.507 694.601 213.142 694.601 162.718C694.601 112.294 735.957 70.9285 786.369 70.9285C796.331 70.9285 805.991 72.4382 815.047 75.4576L779.426 166.945C778.521 169.361 778.823 171.776 780.332 173.89C781.841 176.003 783.955 177.211 786.671 177.211H877.233C869.988 220.992 831.952 254.507 786.369 254.507ZM828.933 81.1945C858.215 96.5934 878.138 127.089 878.44 162.416H797.539L828.933 81.1945ZM910.74 162.114H893.534C893.534 120.447 869.384 84.5158 834.669 66.7014L838.895 56.1335C843.725 58.549 848.253 60.9645 852.479 63.9839C855.8 66.3994 860.63 65.4936 863.045 61.8703C865.46 58.549 864.554 53.718 860.932 51.3025C855.196 48.2831 849.762 44.9618 844.027 42.2443L860.63 -0.329102L922.211 138.865C915.268 144.3 910.74 152.754 910.74 162.114ZM940.927 177.513C932.475 177.513 925.834 170.87 925.834 162.416C925.834 153.962 932.475 147.319 940.927 147.319C949.38 147.319 956.021 153.962 956.021 162.416C956.021 170.87 949.078 177.513 940.927 177.513ZM962.36 141.28C956.926 135.845 949.38 132.222 940.927 132.222C939.418 132.222 937.607 132.524 936.097 132.524L928.249 115.012L1060.17 -14.5202C1062.58 -0.631042 1065.3 14.164 1068.92 28.959L962.36 141.28ZM1135.33 252.394C1085.83 252.394 1045.37 211.934 1045.37 162.416C1045.37 131.316 1061.37 103.538 1085.52 87.5352C1096.69 119.541 1111.18 148.527 1129.9 167.851C1131.41 169.361 1133.22 170.266 1135.33 170.266C1137.14 170.266 1139.26 169.663 1140.46 168.153C1143.48 165.134 1143.48 160.604 1140.77 157.585C1123.26 139.469 1109.67 111.69 1099.11 80.5906C1110.28 75.7595 1122.35 73.0421 1135.33 73.0421C1184.84 73.0421 1225.29 113.502 1225.29 163.02C1225.29 212.538 1184.84 252.394 1135.33 252.394Z" fill="white"/>
</g>
</mask>
<g mask="url(#mask0)">
<rect x="638" y="-4" width="194" height="313" fill="#AE017E"/>
</g>
<rect y="-4" width="832" height="300" fill="#7A0177"/>
<path d="M49.8 44.56H39.16V56H33.08V28.08H39.16V39.2H49.8V28.08H55.88V56H49.8V44.56ZM66.1853 56L59.3053 35H65.1453L67.7453 43.48L69.7053 51.08H70.0253L71.9853 43.48L74.5053 35H80.1053L73.2253 56H66.1853ZM91.4363 56.48C89.8896 56.48 88.5029 56.2267 87.2763 55.72C86.0763 55.2133 85.0496 54.48 84.1963 53.52C83.3696 52.56 82.7296 51.4 82.2763 50.04C81.8229 48.68 81.5963 47.16 81.5963 45.48C81.5963 43.8 81.8229 42.28 82.2763 40.92C82.7296 39.56 83.3696 38.4133 84.1963 37.48C85.0496 36.52 86.0763 35.7867 87.2763 35.28C88.5029 34.7733 89.8896 34.52 91.4363 34.52C92.9829 34.52 94.3563 34.7733 95.5563 35.28C96.7829 35.7867 97.8096 36.52 98.6363 37.48C99.4896 38.4133 100.143 39.56 100.596 40.92C101.05 42.28 101.276 43.8 101.276 45.48C101.276 47.16 101.05 48.68 100.596 50.04C100.143 51.4 99.4896 52.56 98.6363 53.52C97.8096 54.48 96.7829 55.2133 95.5563 55.72C94.3563 56.2267 92.9829 56.48 91.4363 56.48ZM91.4363 51.8C92.6096 51.8 93.5163 51.44 94.1563 50.72C94.7963 50 95.1163 48.9733 95.1163 47.64V43.36C95.1163 42.0267 94.7963 41 94.1563 40.28C93.5163 39.56 92.6096 39.2 91.4363 39.2C90.2629 39.2 89.3563 39.56 88.7163 40.28C88.0763 41 87.7563 42.0267 87.7563 43.36V47.64C87.7563 48.9733 88.0763 50 88.7163 50.72C89.3563 51.44 90.2629 51.8 91.4363 51.8ZM105.494 56V35H111.414V39.56H111.614C111.721 38.9733 111.908 38.4133 112.174 37.88C112.441 37.32 112.788 36.8267 113.214 36.4C113.668 35.9733 114.201 35.64 114.814 35.4C115.428 35.1333 116.148 35 116.974 35H118.014V40.52H116.534C114.801 40.52 113.508 40.7467 112.654 41.2C111.828 41.6533 111.414 42.4933 111.414 43.72V56H105.494ZM121.666 56V35H127.586V38.56H127.826C128.2 37.4667 128.853 36.52 129.786 35.72C130.72 34.92 132.013 34.52 133.666 34.52C135.826 34.52 137.453 35.24 138.546 36.68C139.666 38.12 140.226 40.1733 140.226 42.84V56H134.306V43.32C134.306 41.96 134.093 40.96 133.666 40.32C133.24 39.6533 132.48 39.32 131.386 39.32C130.906 39.32 130.44 39.3867 129.986 39.52C129.533 39.6267 129.12 39.8133 128.746 40.08C128.4 40.3467 128.12 40.68 127.906 41.08C127.693 41.4533 127.586 41.8933 127.586 42.4V56H121.666ZM161.014 56C159.948 56 159.054 55.6667 158.334 55C157.641 54.3333 157.201 53.44 157.014 52.32H156.774C156.454 53.68 155.748 54.72 154.654 55.44C153.561 56.1333 152.214 56.48 150.614 56.48C148.508 56.48 146.894 55.92 145.774 54.8C144.654 53.68 144.094 52.2 144.094 50.36C144.094 48.1467 144.894 46.5067 146.494 45.44C148.121 44.3467 150.321 43.8 153.094 43.8H156.414V42.48C156.414 41.4667 156.148 40.6667 155.614 40.08C155.081 39.4667 154.188 39.16 152.934 39.16C151.761 39.16 150.828 39.4133 150.134 39.92C149.441 40.4267 148.868 41 148.414 41.64L144.894 38.52C145.748 37.2667 146.814 36.2933 148.094 35.6C149.401 34.88 151.161 34.52 153.374 34.52C156.361 34.52 158.601 35.1733 160.094 36.48C161.588 37.7867 162.334 39.6933 162.334 42.2V51.4H164.294V56H161.014ZM152.814 52.36C153.801 52.36 154.641 52.1467 155.334 51.72C156.054 51.2933 156.414 50.6 156.414 49.64V47.16H153.534C151.214 47.16 150.054 47.9467 150.054 49.52V50.12C150.054 50.8933 150.294 51.4667 150.774 51.84C151.254 52.1867 151.934 52.36 152.814 52.36ZM153.494 33.68C152.668 33.68 151.894 33.5467 151.174 33.28C150.454 32.9867 149.828 32.5867 149.294 32.08C148.761 31.5733 148.334 30.9733 148.014 30.28C147.721 29.56 147.574 28.7867 147.574 27.96C147.574 27.1333 147.721 26.3733 148.014 25.68C148.334 24.96 148.761 24.3467 149.294 23.84C149.828 23.3333 150.454 22.9467 151.174 22.68C151.894 22.3867 152.668 22.24 153.494 22.24C154.321 22.24 155.094 22.3867 155.814 22.68C156.534 22.9467 157.161 23.3333 157.694 23.84C158.228 24.3467 158.641 24.96 158.934 25.68C159.254 26.3733 159.414 27.1333 159.414 27.96C159.414 28.7867 159.254 29.56 158.934 30.28C158.641 30.9733 158.228 31.5733 157.694 32.08C157.161 32.5867 156.534 32.9867 155.814 33.28C155.094 33.5467 154.321 33.68 153.494 33.68ZM153.494 30.68C154.161 30.68 154.668 30.5067 155.014 30.16C155.361 29.7867 155.534 29.28 155.534 28.64V27.28C155.534 26.64 155.361 26.1467 155.014 25.8C154.668 25.4267 154.161 25.24 153.494 25.24C152.828 25.24 152.321 25.4267 151.974 25.8C151.628 26.1467 151.454 26.64 151.454 27.28V28.64C151.454 29.28 151.628 29.7867 151.974 30.16C152.321 30.5067 152.828 30.68 153.494 30.68ZM168.268 56V35H174.188V39.56H174.388C174.494 38.9733 174.681 38.4133 174.948 37.88C175.214 37.32 175.561 36.8267 175.988 36.4C176.441 35.9733 176.974 35.64 177.588 35.4C178.201 35.1333 178.921 35 179.748 35H180.788V40.52H179.308C177.574 40.52 176.281 40.7467 175.428 41.2C174.601 41.6533 174.188 42.4933 174.188 43.72V56H168.268ZM193.893 26.4H199.813V38.52H200.013C200.306 37.3467 200.973 36.3867 202.013 35.64C203.079 34.8933 204.293 34.52 205.653 34.52C208.319 34.52 210.333 35.4533 211.693 37.32C213.053 39.1867 213.733 41.9067 213.733 45.48C213.733 49.0533 213.053 51.7867 211.693 53.68C210.333 55.5467 208.319 56.48 205.653 56.48C204.959 56.48 204.306 56.3733 203.693 56.16C203.079 55.9733 202.519 55.7067 202.013 55.36C201.533 54.9867 201.119 54.56 200.773 54.08C200.426 53.5733 200.173 53.04 200.013 52.48H199.813V56H193.893V26.4ZM203.693 51.68C204.813 51.68 205.733 51.2933 206.453 50.52C207.199 49.72 207.573 48.6533 207.573 47.32V43.68C207.573 42.3467 207.199 41.2933 206.453 40.52C205.733 39.72 204.813 39.32 203.693 39.32C202.573 39.32 201.639 39.6 200.893 40.16C200.173 40.6933 199.813 41.44 199.813 42.4V48.6C199.813 49.56 200.173 50.32 200.893 50.88C201.639 51.4133 202.573 51.68 203.693 51.68ZM218.229 56V35H224.149V39.56H224.349C224.455 38.9733 224.642 38.4133 224.909 37.88C225.175 37.32 225.522 36.8267 225.949 36.4C226.402 35.9733 226.935 35.64 227.549 35.4C228.162 35.1333 228.882 35 229.709 35H230.749V40.52H229.269C227.535 40.52 226.242 40.7467 225.389 41.2C224.562 41.6533 224.149 42.4933 224.149 43.72V56H218.229ZM246.801 52.48H246.601C246.414 53.0133 246.161 53.52 245.841 54C245.547 54.48 245.161 54.9067 244.681 55.28C244.201 55.6533 243.627 55.9467 242.961 56.16C242.321 56.3733 241.574 56.48 240.721 56.48C238.561 56.48 236.921 55.7733 235.801 54.36C234.707 52.92 234.161 50.8667 234.161 48.2V35H240.081V47.68C240.081 48.96 240.307 49.9467 240.761 50.64C241.214 51.3333 241.987 51.68 243.081 51.68C243.534 51.68 243.987 51.6133 244.441 51.48C244.894 51.3467 245.294 51.16 245.641 50.92C245.987 50.6533 246.267 50.3333 246.481 49.96C246.694 49.5867 246.801 49.1467 246.801 48.64V35H252.721V56H246.801V52.48ZM277.669 57.52C277.669 58.64 277.469 59.6267 277.069 60.48C276.695 61.3333 276.069 62.0533 275.189 62.64C274.309 63.2533 273.135 63.7067 271.669 64C270.229 64.32 268.442 64.48 266.309 64.48C264.495 64.48 262.949 64.36 261.669 64.12C260.415 63.9067 259.389 63.5867 258.589 63.16C257.815 62.76 257.242 62.2533 256.869 61.64C256.522 61.0533 256.349 60.3733 256.349 59.6C256.349 58.4267 256.695 57.5067 257.389 56.84C258.082 56.1733 259.042 55.76 260.269 55.6V55.16C259.255 54.9733 258.495 54.5467 257.989 53.88C257.482 53.1867 257.229 52.3867 257.229 51.48C257.229 50.92 257.335 50.44 257.549 50.04C257.789 49.6133 258.082 49.2533 258.429 48.96C258.802 48.64 259.229 48.3867 259.709 48.2C260.189 48.0133 260.669 47.8667 261.149 47.76V47.6C259.869 47.0133 258.922 46.2133 258.309 45.2C257.695 44.16 257.389 42.96 257.389 41.6C257.389 39.4667 258.122 37.76 259.589 36.48C261.082 35.1733 263.349 34.52 266.389 34.52C267.775 34.52 268.962 34.6533 269.949 34.92V34.12C269.949 33 270.215 32.2 270.749 31.72C271.309 31.2133 272.095 30.96 273.109 30.96H276.429V35.36H271.789V35.6C273.015 36.1867 273.922 37 274.509 38.04C275.095 39.0533 275.389 40.24 275.389 41.6C275.389 43.7067 274.642 45.4 273.149 46.68C271.682 47.9333 269.429 48.56 266.389 48.56C265.029 48.56 263.789 48.4133 262.669 48.12C262.055 48.52 261.749 49.08 261.749 49.8C261.749 50.3067 261.935 50.7067 262.309 51C262.709 51.2667 263.362 51.4 264.269 51.4H270.349C272.909 51.4 274.762 51.9333 275.909 53C277.082 54.0667 277.669 55.5733 277.669 57.52ZM272.109 58.32C272.109 57.7067 271.869 57.24 271.389 56.92C270.909 56.6 270.069 56.44 268.869 56.44H261.669C261.402 56.7067 261.202 57 261.069 57.32C260.962 57.6667 260.909 58 260.909 58.32C260.909 59.0933 261.242 59.6533 261.909 60C262.575 60.3733 263.709 60.56 265.309 60.56H267.709C269.309 60.56 270.442 60.3733 271.109 60C271.775 59.6533 272.109 59.0933 272.109 58.32ZM266.389 44.68C267.562 44.68 268.429 44.44 268.989 43.96C269.575 43.4533 269.869 42.7333 269.869 41.8V41.32C269.869 40.3867 269.575 39.68 268.989 39.2C268.429 38.6933 267.562 38.44 266.389 38.44C265.215 38.44 264.335 38.6933 263.749 39.2C263.189 39.68 262.909 40.3867 262.909 41.32V41.8C262.909 42.7333 263.189 43.4533 263.749 43.96C264.335 44.44 265.215 44.68 266.389 44.68ZM288.825 56.48C287.225 56.48 285.798 56.2267 284.545 55.72C283.291 55.1867 282.225 54.4533 281.345 53.52C280.491 52.56 279.838 51.4 279.385 50.04C278.958 48.68 278.745 47.16 278.745 45.48C278.745 43.8267 278.958 42.3333 279.385 41C279.811 39.64 280.438 38.48 281.265 37.52C282.118 36.56 283.158 35.8267 284.385 35.32C285.611 34.7867 287.011 34.52 288.585 34.52C290.318 34.52 291.798 34.8133 293.025 35.4C294.278 35.9867 295.291 36.7733 296.065 37.76C296.865 38.7467 297.438 39.8933 297.785 41.2C298.158 42.48 298.345 43.8267 298.345 45.24V47H284.865V47.32C284.865 48.7067 285.238 49.8133 285.985 50.64C286.731 51.44 287.905 51.84 289.505 51.84C290.731 51.84 291.731 51.6 292.505 51.12C293.278 50.6133 293.998 50.0133 294.665 49.32L297.625 53C296.691 54.0933 295.465 54.9467 293.945 55.56C292.451 56.1733 290.745 56.48 288.825 56.48ZM288.705 38.88C287.505 38.88 286.558 39.28 285.865 40.08C285.198 40.8533 284.865 41.8933 284.865 43.2V43.52H292.225V43.16C292.225 41.88 291.931 40.8533 291.345 40.08C290.785 39.28 289.905 38.88 288.705 38.88ZM302.526 56V35H308.446V39.56H308.646C308.752 38.9733 308.939 38.4133 309.206 37.88C309.472 37.32 309.819 36.8267 310.246 36.4C310.699 35.9733 311.232 35.64 311.846 35.4C312.459 35.1333 313.179 35 314.006 35H315.046V40.52H313.566C311.832 40.52 310.539 40.7467 309.686 41.2C308.859 41.6533 308.446 42.4933 308.446 43.72V56H302.526ZM332.631 56L325.751 35H331.591L334.191 43.48L336.151 51.08H336.471L338.431 43.48L340.951 35H346.551L339.671 56H332.631ZM352.634 32.76C351.434 32.76 350.554 32.4933 349.994 31.96C349.461 31.4 349.194 30.6933 349.194 29.84V28.96C349.194 28.1067 349.461 27.4133 349.994 26.88C350.554 26.32 351.434 26.04 352.634 26.04C353.834 26.04 354.701 26.32 355.234 26.88C355.794 27.4133 356.074 28.1067 356.074 28.96V29.84C356.074 30.6933 355.794 31.4 355.234 31.96C354.701 32.4933 353.834 32.76 352.634 32.76ZM349.674 35H355.594V56H349.674V35ZM379.053 56.48C377.479 56.48 376.079 56.2267 374.853 55.72C373.626 55.1867 372.599 54.4533 371.773 53.52C370.946 52.56 370.319 51.4 369.893 50.04C369.466 48.68 369.253 47.16 369.253 45.48C369.253 43.8 369.466 42.2933 369.893 40.96C370.319 39.6 370.946 38.44 371.773 37.48C372.599 36.52 373.626 35.7867 374.853 35.28C376.079 34.7733 377.479 34.52 379.053 34.52C381.186 34.52 382.959 35 384.373 35.96C385.813 36.92 386.839 38.2667 387.453 40L382.653 42.08C382.466 41.28 382.079 40.6 381.493 40.04C380.906 39.48 380.093 39.2 379.053 39.2C377.853 39.2 376.946 39.6 376.333 40.4C375.719 41.1733 375.413 42.2267 375.413 43.56V47.48C375.413 48.8133 375.719 49.8667 376.333 50.64C376.946 51.4133 377.853 51.8 379.053 51.8C380.119 51.8 380.959 51.52 381.573 50.96C382.213 50.3733 382.679 49.6133 382.973 48.68L387.573 50.68C386.879 52.68 385.799 54.1467 384.333 55.08C382.893 56.0133 381.133 56.48 379.053 56.48ZM404.077 35H409.597L401.517 59.24C400.983 60.8667 400.223 62.0667 399.237 62.84C398.277 63.6133 396.89 64 395.077 64H391.397V59.4H395.357L396.077 57.08L388.717 35H394.597L397.677 44.8L399.197 50.88H399.437L400.997 44.8L404.077 35ZM412.604 26.4H418.524V43.88H418.764L421.364 40L425.564 35H432.124L425.124 43.04L432.924 56H425.884L421.164 47.12L418.524 50.08V56H412.604V26.4ZM441.57 56C439.543 56 438.05 55.5067 437.09 54.52C436.156 53.5333 435.69 52.1067 435.69 50.24V26.4H441.61V51.4H444.25V56H441.57ZM456.559 56.48C454.959 56.48 453.532 56.2267 452.279 55.72C451.026 55.1867 449.959 54.4533 449.079 53.52C448.226 52.56 447.572 51.4 447.119 50.04C446.692 48.68 446.479 47.16 446.479 45.48C446.479 43.8267 446.692 42.3333 447.119 41C447.546 39.64 448.172 38.48 448.999 37.52C449.852 36.56 450.892 35.8267 452.119 35.32C453.346 34.7867 454.746 34.52 456.319 34.52C458.052 34.52 459.532 34.8133 460.759 35.4C462.012 35.9867 463.026 36.7733 463.799 37.76C464.599 38.7467 465.172 39.8933 465.519 41.2C465.892 42.48 466.079 43.8267 466.079 45.24V47H452.599V47.32C452.599 48.7067 452.972 49.8133 453.719 50.64C454.466 51.44 455.639 51.84 457.239 51.84C458.466 51.84 459.466 51.6 460.239 51.12C461.012 50.6133 461.732 50.0133 462.399 49.32L465.359 53C464.426 54.0933 463.199 54.9467 461.679 55.56C460.186 56.1733 458.479 56.48 456.559 56.48ZM456.439 38.88C455.239 38.88 454.292 39.28 453.599 40.08C452.932 40.8533 452.599 41.8933 452.599 43.2V43.52H459.959V43.16C459.959 41.88 459.666 40.8533 459.079 40.08C458.519 39.28 457.639 38.88 456.439 38.88ZM470.26 56V35H476.18V38.56H476.42C476.793 37.4667 477.447 36.52 478.38 35.72C479.313 34.92 480.607 34.52 482.26 34.52C484.42 34.52 486.047 35.24 487.14 36.68C488.26 38.12 488.82 40.1733 488.82 42.84V56H482.9V43.32C482.9 41.96 482.687 40.96 482.26 40.32C481.833 39.6533 481.073 39.32 479.98 39.32C479.5 39.32 479.033 39.3867 478.58 39.52C478.127 39.6267 477.713 39.8133 477.34 40.08C476.993 40.3467 476.713 40.68 476.5 41.08C476.287 41.4533 476.18 41.8933 476.18 42.4V56H470.26ZM497.648 46.68V40.56C499.755 40.48 501.328 40.1333 502.368 39.52C503.435 38.88 503.968 37.8133 503.968 36.32V35.76C503.968 34.7467 503.661 33.9733 503.048 33.44C502.461 32.9067 501.688 32.64 500.728 32.64C499.688 32.64 498.821 32.96 498.128 33.6C497.461 34.24 497.008 35.0533 496.768 36.04L491.888 34C492.128 33.2 492.475 32.4267 492.928 31.68C493.381 30.9067 493.968 30.2267 494.688 29.64C495.435 29.0267 496.315 28.5333 497.328 28.16C498.368 27.7867 499.568 27.6 500.928 27.6C502.315 27.6 503.581 27.8 504.728 28.2C505.875 28.6 506.861 29.16 507.688 29.88C508.515 30.6 509.141 31.4667 509.568 32.48C510.021 33.4933 510.248 34.6133 510.248 35.84C510.248 36.96 510.061 37.9733 509.688 38.88C509.315 39.7867 508.808 40.5867 508.168 41.28C507.528 41.9467 506.781 42.4933 505.928 42.92C505.075 43.3467 504.181 43.64 503.248 43.8V46.68H497.648ZM500.528 56.48C499.248 56.48 498.328 56.1867 497.768 55.6C497.235 55.0133 496.968 54.2933 496.968 53.44V52.48C496.968 51.6267 497.235 50.9067 497.768 50.32C498.328 49.7333 499.248 49.44 500.528 49.44C501.808 49.44 502.715 49.7333 503.248 50.32C503.808 50.9067 504.088 51.6267 504.088 52.48V53.44C504.088 54.2933 503.808 55.0133 503.248 55.6C502.715 56.1867 501.808 56.48 500.528 56.48Z" fill="white"/>
<mask id="mask1" style="mask-type:alpha" maskUnits="userSpaceOnUse" x="588" y="-15" width="572" height="394">
<g clip-path="url(#clip2)">
<path d="M1063.33 158.643C1048.84 158.643 1034.96 161.663 1022.58 166.796C1019.26 155.926 1016.24 144.754 1013.52 133.28C1013.83 131.167 1013.52 129.053 1012.01 127.242C995.713 55.682 991.487 -14.6698 991.487 -15.8776C991.487 -18.2931 989.977 -20.4067 987.864 -21.9164C985.751 -23.4261 983.336 -23.4261 980.921 -22.5202L914.812 5.25815C910.887 6.76785 909.076 11.2969 910.887 15.2221C912.397 19.1474 916.925 20.959 920.849 19.1473L977.299 -4.4039C978.506 9.78724 980.921 36.6598 985.751 68.3634C985.751 68.3634 985.449 68.3634 985.449 68.6654L850.211 201.519L786.818 57.7956H814.591C818.817 57.7956 822.137 54.4742 822.137 50.2471C822.137 46.0199 818.817 42.6986 814.591 42.6986H736.406C732.18 42.6986 728.859 46.0199 728.859 50.2471C728.859 54.4742 732.18 57.7956 736.406 57.7956H769.612L779.875 80.7429L758.141 137.206C744.255 132.374 729.463 129.657 714.068 129.657C666.07 129.657 621.393 155.624 597.847 197.593C595.734 201.217 597.244 205.746 600.866 207.859C602.074 208.463 603.281 208.765 604.489 208.765C607.205 208.765 609.62 207.255 611.13 204.84C631.959 167.701 671.504 144.452 714.068 144.452C727.35 144.452 740.33 146.566 752.405 150.793L748.179 161.361C737.614 157.737 726.142 155.624 714.068 155.624C655.203 155.624 607.205 203.632 607.205 262.51C607.205 321.388 655.203 369.397 714.068 369.397C768.102 369.397 812.779 329.239 820.024 277.305H842.061C847.193 286.363 857.154 292.704 868.324 292.704C884.926 292.704 898.511 279.117 898.511 262.51C898.511 259.793 898.209 257.377 897.605 254.962L1000.84 146.566C1002.96 155.322 1005.67 164.078 1008.09 172.532C977.903 190.951 957.677 224.164 957.677 262.208C957.677 320.181 1004.77 367.283 1062.73 367.283C1120.69 367.283 1167.78 320.181 1167.78 262.208C1167.78 204.236 1120.99 158.643 1063.33 158.643ZM714.369 355.507C663.655 355.507 622.601 314.142 622.601 263.718C622.601 213.294 663.957 171.929 714.369 171.929C724.331 171.929 733.991 173.438 743.047 176.458L707.426 267.945C706.521 270.361 706.823 272.776 708.332 274.89C709.841 277.003 711.955 278.211 714.671 278.211H805.233C797.988 321.992 759.952 355.507 714.369 355.507ZM756.933 182.194C786.215 197.593 806.138 228.089 806.44 263.416H725.539L756.933 182.194ZM838.74 263.114H821.534C821.534 221.447 797.384 185.516 762.669 167.701L766.895 157.133C771.725 159.549 776.253 161.965 780.479 164.984C783.8 167.399 788.63 166.494 791.045 162.87C793.46 159.549 792.554 154.718 788.932 152.302C783.196 149.283 777.762 145.962 772.027 143.244L788.63 100.671L850.211 239.865C843.268 245.3 838.74 253.754 838.74 263.114ZM868.927 278.513C860.475 278.513 853.834 271.87 853.834 263.416C853.834 254.962 860.475 248.319 868.927 248.319C877.38 248.319 884.021 254.962 884.021 263.416C884.021 271.87 877.078 278.513 868.927 278.513ZM890.36 242.28C884.926 236.845 877.38 233.222 868.927 233.222C867.418 233.222 865.607 233.524 864.097 233.524L856.249 216.012L988.166 86.4798C990.581 100.369 993.298 115.164 996.92 129.959L890.36 242.28ZM1063.33 353.394C1013.83 353.394 973.374 312.934 973.374 263.416C973.374 232.316 989.374 204.538 1013.52 188.535C1024.69 220.541 1039.18 249.527 1057.9 268.851C1059.41 270.361 1061.22 271.266 1063.33 271.266C1065.14 271.266 1067.26 270.663 1068.46 269.153C1071.48 266.134 1071.48 261.604 1068.77 258.585C1051.26 240.469 1037.67 212.69 1027.11 181.591C1038.28 176.76 1050.35 174.042 1063.33 174.042C1112.84 174.042 1153.29 214.502 1153.29 264.02C1153.29 313.538 1112.84 353.394 1063.33 353.394Z" fill="white"/>
</g>
</mask>
<g mask="url(#mask1)">
<rect x="566" y="-37" width="266" height="333" fill="#AE017E"/>
</g>
<g clip-path="url(#clip3)">
<path d="M303.978 146.601C302.177 146.601 300.451 146.977 298.912 147.617C298.5 146.263 298.124 144.871 297.787 143.442C297.824 143.179 297.787 142.916 297.599 142.69C295.572 133.778 295.047 125.016 295.047 124.865C295.047 124.564 294.859 124.301 294.597 124.113C294.334 123.925 294.034 123.925 293.734 124.038L285.515 127.498C285.028 127.686 284.802 128.25 285.028 128.739C285.215 129.227 285.778 129.453 286.266 129.227L293.283 126.294C293.433 128.062 293.734 131.409 294.334 135.357C294.334 135.357 294.297 135.357 294.297 135.395L277.485 151.941L269.604 134.041H273.057C273.582 134.041 273.995 133.627 273.995 133.101C273.995 132.574 273.582 132.161 273.057 132.161H263.337C262.812 132.161 262.399 132.574 262.399 133.101C262.399 133.627 262.812 134.041 263.337 134.041H267.465L268.741 136.899L266.039 143.931C264.313 143.33 262.474 142.991 260.56 142.991C254.594 142.991 249.04 146.225 246.113 151.452C245.85 151.904 246.038 152.468 246.488 152.731C246.638 152.806 246.788 152.844 246.938 152.844C247.276 152.844 247.576 152.656 247.764 152.355C250.353 147.729 255.269 144.834 260.56 144.834C262.211 144.834 263.825 145.097 265.326 145.624L264.801 146.94C263.487 146.488 262.061 146.225 260.56 146.225C253.243 146.225 247.276 152.204 247.276 159.538C247.276 166.871 253.243 172.85 260.56 172.85C267.278 172.85 272.831 167.848 273.732 161.38H276.471C277.109 162.508 278.348 163.298 279.736 163.298C281.8 163.298 283.489 161.606 283.489 159.538C283.489 159.199 283.451 158.898 283.376 158.597L296.21 145.097C296.473 146.188 296.811 147.278 297.111 148.331C293.358 150.625 290.844 154.762 290.844 159.5C290.844 166.72 296.698 172.587 303.903 172.587C311.108 172.587 316.963 166.72 316.963 159.5C316.963 152.28 311.146 146.601 303.978 146.601ZM260.598 171.12C254.293 171.12 249.19 165.968 249.19 159.688C249.19 153.408 254.331 148.256 260.598 148.256C261.836 148.256 263.037 148.444 264.163 148.82L259.735 160.214C259.622 160.515 259.66 160.816 259.847 161.079C260.035 161.343 260.298 161.493 260.635 161.493H271.893C270.993 166.946 266.264 171.12 260.598 171.12ZM265.889 149.534C269.529 151.452 272.006 155.251 272.043 159.65H261.986L265.889 149.534ZM276.059 159.613H273.92C273.92 154.423 270.918 149.948 266.602 147.729L267.127 146.413C267.728 146.714 268.291 147.015 268.816 147.391C269.229 147.692 269.829 147.579 270.13 147.128C270.43 146.714 270.317 146.112 269.867 145.812C269.154 145.435 268.478 145.022 267.765 144.683L269.829 139.381L277.485 156.717C276.622 157.394 276.059 158.447 276.059 159.613ZM279.811 161.531C278.761 161.531 277.935 160.703 277.935 159.65C277.935 158.597 278.761 157.77 279.811 157.77C280.862 157.77 281.688 158.597 281.688 159.65C281.688 160.703 280.825 161.531 279.811 161.531ZM282.476 157.018C281.8 156.341 280.862 155.89 279.811 155.89C279.624 155.89 279.399 155.927 279.211 155.927L278.235 153.746L294.634 137.614C294.934 139.343 295.272 141.186 295.723 143.029L282.476 157.018ZM303.978 170.857C297.824 170.857 292.795 165.818 292.795 159.65C292.795 155.777 294.784 152.317 297.787 150.324C299.175 154.31 300.976 157.921 303.303 160.327C303.491 160.515 303.716 160.628 303.978 160.628C304.204 160.628 304.466 160.553 304.616 160.365C304.992 159.989 304.992 159.425 304.654 159.049C302.477 156.792 300.789 153.333 299.475 149.459C300.864 148.858 302.365 148.519 303.978 148.519C310.133 148.519 315.161 153.558 315.161 159.726C315.161 165.893 310.133 170.857 303.978 170.857Z" fill="#CCEBC5"/>
</g>
<path d="M352.288 140H338.736V136.584L344.868 131.208C345.913 130.293 346.679 129.472 347.164 128.744C347.649 127.997 347.892 127.195 347.892 126.336V125.972C347.892 125.113 347.612 124.46 347.052 124.012C346.492 123.545 345.811 123.312 345.008 123.312C344 123.312 343.235 123.601 342.712 124.18C342.189 124.74 341.816 125.421 341.592 126.224L338.4 124.992C338.605 124.339 338.895 123.723 339.268 123.144C339.641 122.547 340.108 122.024 340.668 121.576C341.247 121.128 341.919 120.773 342.684 120.512C343.449 120.251 344.327 120.12 345.316 120.12C346.343 120.12 347.257 120.269 348.06 120.568C348.863 120.848 349.535 121.249 350.076 121.772C350.636 122.295 351.056 122.911 351.336 123.62C351.635 124.329 351.784 125.104 351.784 125.944C351.784 126.765 351.653 127.512 351.392 128.184C351.131 128.856 350.776 129.5 350.328 130.116C349.88 130.713 349.357 131.292 348.76 131.852C348.163 132.393 347.528 132.944 346.856 133.504L342.74 136.892H352.288V140ZM362.273 140.336C361.153 140.336 360.154 140.159 359.277 139.804C358.4 139.431 357.653 138.917 357.037 138.264C356.421 137.592 355.954 136.789 355.637 135.856C355.32 134.904 355.161 133.84 355.161 132.664C355.161 131.264 355.366 129.948 355.777 128.716C356.206 127.465 356.757 126.327 357.429 125.3C358.101 124.255 358.848 123.331 359.669 122.528C360.509 121.707 361.34 121.016 362.161 120.456H367.145C365.988 121.277 364.952 122.071 364.037 122.836C363.141 123.601 362.348 124.376 361.657 125.16C360.985 125.944 360.425 126.765 359.977 127.624C359.548 128.464 359.221 129.379 358.997 130.368L359.221 130.424C359.408 130.051 359.622 129.696 359.865 129.36C360.126 129.005 360.434 128.697 360.789 128.436C361.144 128.156 361.554 127.941 362.021 127.792C362.488 127.624 363.029 127.54 363.645 127.54C364.448 127.54 365.194 127.68 365.885 127.96C366.594 128.24 367.201 128.651 367.705 129.192C368.228 129.715 368.629 130.349 368.909 131.096C369.208 131.843 369.357 132.673 369.357 133.588C369.357 134.577 369.189 135.483 368.853 136.304C368.517 137.125 368.041 137.835 367.425 138.432C366.809 139.029 366.062 139.496 365.185 139.832C364.326 140.168 363.356 140.336 362.273 140.336ZM362.273 137.424C363.3 137.424 364.102 137.144 364.681 136.584C365.278 136.005 365.577 135.184 365.577 134.12V133.7C365.577 132.636 365.278 131.824 364.681 131.264C364.102 130.685 363.3 130.396 362.273 130.396C361.228 130.396 360.416 130.685 359.837 131.264C359.258 131.824 358.969 132.636 358.969 133.7V134.12C358.969 135.184 359.258 136.005 359.837 136.584C360.416 137.144 361.228 137.424 362.273 137.424ZM375.618 140L389.17 120.456H392.418L378.866 140H375.618ZM376.962 131.208C375.375 131.208 374.162 130.741 373.322 129.808C372.501 128.856 372.09 127.475 372.09 125.664C372.09 123.853 372.501 122.481 373.322 121.548C374.162 120.596 375.375 120.12 376.962 120.12C378.549 120.12 379.753 120.596 380.574 121.548C381.395 122.481 381.806 123.853 381.806 125.664C381.806 127.475 381.395 128.856 380.574 129.808C379.753 130.741 378.549 131.208 376.962 131.208ZM376.962 129.08C378.119 129.08 378.698 128.193 378.698 126.42V124.908C378.698 123.135 378.119 122.248 376.962 122.248C375.805 122.248 375.226 123.135 375.226 124.908V126.42C375.226 128.193 375.805 129.08 376.962 129.08ZM391.074 140.336C389.506 140.336 388.302 139.869 387.462 138.936C386.641 137.984 386.23 136.603 386.23 134.792C386.23 132.981 386.641 131.609 387.462 130.676C388.302 129.724 389.506 129.248 391.074 129.248C392.661 129.248 393.865 129.724 394.686 130.676C395.526 131.609 395.946 132.981 395.946 134.792C395.946 136.603 395.526 137.984 394.686 138.936C393.865 139.869 392.661 140.336 391.074 140.336ZM391.074 138.208C392.231 138.208 392.81 137.321 392.81 135.548V134.036C392.81 132.263 392.231 131.376 391.074 131.376C389.917 131.376 389.338 132.263 389.338 134.036V135.548C389.338 137.321 389.917 138.208 391.074 138.208ZM349.096 167.016H343.104L340.724 172H337L346.688 152.456H361.976V155.732H352.764V160.464H360.912V163.74H352.764V168.724H361.976V172H349.096V167.016ZM348.536 155.732L344.588 163.88H349.096V155.732H348.536ZM365.677 172V157.384H369.261V160.408H369.401C369.495 160.016 369.635 159.643 369.821 159.288C370.027 158.915 370.288 158.588 370.605 158.308C370.923 158.028 371.296 157.804 371.725 157.636C372.173 157.468 372.687 157.384 373.265 157.384H374.049V160.772H372.929C371.716 160.772 370.801 160.949 370.185 161.304C369.569 161.659 369.261 162.237 369.261 163.04V172H365.677ZM378.462 155.256C377.715 155.256 377.174 155.088 376.838 154.752C376.52 154.416 376.362 153.987 376.362 153.464V152.904C376.362 152.381 376.52 151.952 376.838 151.616C377.174 151.28 377.715 151.112 378.462 151.112C379.19 151.112 379.722 151.28 380.058 151.616C380.394 151.952 380.562 152.381 380.562 152.904V153.464C380.562 153.987 380.394 154.416 380.058 154.752C379.722 155.088 379.19 155.256 378.462 155.256ZM376.67 157.384H380.254V172H376.67V157.384ZM384.408 172V157.384H387.992V159.82H388.132C388.431 159.036 388.897 158.383 389.532 157.86C390.185 157.319 391.081 157.048 392.22 157.048C393.732 157.048 394.889 157.543 395.692 158.532C396.495 159.521 396.896 160.931 396.896 162.76V172H393.312V163.124C393.312 162.079 393.125 161.295 392.752 160.772C392.379 160.249 391.763 159.988 390.904 159.988C390.531 159.988 390.167 160.044 389.812 160.156C389.476 160.249 389.168 160.399 388.888 160.604C388.627 160.791 388.412 161.033 388.244 161.332C388.076 161.612 387.992 161.948 387.992 162.34V172H384.408ZM409.941 169.564H409.801C409.54 170.404 409.045 171.076 408.317 171.58C407.589 172.084 406.74 172.336 405.769 172.336C403.921 172.336 402.502 171.673 401.513 170.348C400.542 169.023 400.057 167.128 400.057 164.664C400.057 162.219 400.542 160.343 401.513 159.036C402.502 157.711 403.921 157.048 405.769 157.048C406.74 157.048 407.589 157.3 408.317 157.804C409.045 158.289 409.54 158.952 409.801 159.792H409.941V151.28H413.525V172H409.941V169.564ZM406.917 169.368C407.776 169.368 408.494 169.163 409.073 168.752C409.652 168.341 409.941 167.753 409.941 166.988V162.34C409.941 161.631 409.652 161.061 409.073 160.632C408.494 160.203 407.776 159.988 406.917 159.988C405.984 159.988 405.228 160.305 404.649 160.94C404.089 161.556 403.809 162.387 403.809 163.432V165.952C403.809 166.997 404.089 167.828 404.649 168.444C405.228 169.06 405.984 169.368 406.917 169.368ZM423.566 172.336C422.483 172.336 421.513 172.159 420.654 171.804C419.814 171.431 419.095 170.917 418.498 170.264C417.919 169.592 417.471 168.789 417.154 167.856C416.837 166.904 416.678 165.84 416.678 164.664C416.678 163.507 416.827 162.461 417.126 161.528C417.443 160.595 417.891 159.801 418.47 159.148C419.049 158.476 419.758 157.963 420.598 157.608C421.438 157.235 422.39 157.048 423.454 157.048C424.593 157.048 425.582 157.244 426.422 157.636C427.262 158.028 427.953 158.56 428.494 159.232C429.035 159.904 429.437 160.688 429.698 161.584C429.978 162.461 430.118 163.404 430.118 164.412V165.588H420.402V165.952C420.402 167.016 420.701 167.875 421.298 168.528C421.895 169.163 422.782 169.48 423.958 169.48C424.854 169.48 425.582 169.293 426.142 168.92C426.721 168.547 427.234 168.071 427.682 167.492L429.614 169.648C429.017 170.488 428.195 171.151 427.15 171.636C426.123 172.103 424.929 172.336 423.566 172.336ZM423.51 159.736C422.558 159.736 421.802 160.053 421.242 160.688C420.682 161.323 420.402 162.144 420.402 163.152V163.376H426.394V163.124C426.394 162.116 426.142 161.304 425.638 160.688C425.153 160.053 424.443 159.736 423.51 159.736Z" fill="white"/>
<path d="M559.288 140H545.736V136.584L551.868 131.208C552.913 130.293 553.679 129.472 554.164 128.744C554.649 127.997 554.892 127.195 554.892 126.336V125.972C554.892 125.113 554.612 124.46 554.052 124.012C553.492 123.545 552.811 123.312 552.008 123.312C551 123.312 550.235 123.601 549.712 124.18C549.189 124.74 548.816 125.421 548.592 126.224L545.4 124.992C545.605 124.339 545.895 123.723 546.268 123.144C546.641 122.547 547.108 122.024 547.668 121.576C548.247 121.128 548.919 120.773 549.684 120.512C550.449 120.251 551.327 120.12 552.316 120.12C553.343 120.12 554.257 120.269 555.06 120.568C555.863 120.848 556.535 121.249 557.076 121.772C557.636 122.295 558.056 122.911 558.336 123.62C558.635 124.329 558.784 125.104 558.784 125.944C558.784 126.765 558.653 127.512 558.392 128.184C558.131 128.856 557.776 129.5 557.328 130.116C556.88 130.713 556.357 131.292 555.76 131.852C555.163 132.393 554.528 132.944 553.856 133.504L549.74 136.892H559.288V140ZM575.209 123.648H566.417L565.969 130.2H566.165C566.37 129.789 566.594 129.407 566.837 129.052C567.08 128.697 567.36 128.399 567.677 128.156C567.994 127.913 568.358 127.727 568.769 127.596C569.198 127.447 569.712 127.372 570.309 127.372C571.149 127.372 571.933 127.512 572.661 127.792C573.389 128.072 574.014 128.483 574.537 129.024C575.078 129.547 575.498 130.191 575.797 130.956C576.114 131.721 576.273 132.589 576.273 133.56C576.273 134.549 576.114 135.455 575.797 136.276C575.48 137.097 575.013 137.816 574.397 138.432C573.781 139.029 573.025 139.496 572.129 139.832C571.233 140.168 570.206 140.336 569.049 140.336C568.153 140.336 567.35 140.233 566.641 140.028C565.932 139.841 565.306 139.58 564.765 139.244C564.224 138.908 563.757 138.525 563.365 138.096C562.973 137.648 562.628 137.181 562.329 136.696L565.017 134.624C565.241 134.997 565.474 135.352 565.717 135.688C565.96 136.005 566.24 136.285 566.557 136.528C566.893 136.771 567.257 136.967 567.649 137.116C568.06 137.247 568.536 137.312 569.077 137.312C570.178 137.312 571.009 137.004 571.569 136.388C572.148 135.772 572.437 134.932 572.437 133.868V133.644C572.437 132.636 572.148 131.843 571.569 131.264C570.99 130.685 570.188 130.396 569.161 130.396C568.358 130.396 567.705 130.555 567.201 130.872C566.697 131.171 566.296 131.497 565.997 131.852L562.973 131.432L563.701 120.456H575.209V123.648ZM582.618 140L596.17 120.456H599.418L585.866 140H582.618ZM583.962 131.208C582.375 131.208 581.162 130.741 580.322 129.808C579.501 128.856 579.09 127.475 579.09 125.664C579.09 123.853 579.501 122.481 580.322 121.548C581.162 120.596 582.375 120.12 583.962 120.12C585.549 120.12 586.753 120.596 587.574 121.548C588.395 122.481 588.806 123.853 588.806 125.664C588.806 127.475 588.395 128.856 587.574 129.808C586.753 130.741 585.549 131.208 583.962 131.208ZM583.962 129.08C585.119 129.08 585.698 128.193 585.698 126.42V124.908C585.698 123.135 585.119 122.248 583.962 122.248C582.805 122.248 582.226 123.135 582.226 124.908V126.42C582.226 128.193 582.805 129.08 583.962 129.08ZM598.074 140.336C596.506 140.336 595.302 139.869 594.462 138.936C593.641 137.984 593.23 136.603 593.23 134.792C593.23 132.981 593.641 131.609 594.462 130.676C595.302 129.724 596.506 129.248 598.074 129.248C599.661 129.248 600.865 129.724 601.686 130.676C602.526 131.609 602.946 132.981 602.946 134.792C602.946 136.603 602.526 137.984 601.686 138.936C600.865 139.869 599.661 140.336 598.074 140.336ZM598.074 138.208C599.231 138.208 599.81 137.321 599.81 135.548V134.036C599.81 132.263 599.231 131.376 598.074 131.376C596.917 131.376 596.338 132.263 596.338 134.036V135.548C596.338 137.321 596.917 138.208 598.074 138.208ZM558.392 172L556.824 167.016H549.88L548.34 172H544.588L551.14 152.456H555.732L562.228 172H558.392ZM553.408 155.816H553.268L550.776 163.852H555.928L553.408 155.816ZM564.885 172V157.384H568.469V160.408H568.609C568.702 160.016 568.842 159.643 569.029 159.288C569.234 158.915 569.495 158.588 569.812 158.308C570.13 158.028 570.503 157.804 570.933 157.636C571.381 157.468 571.894 157.384 572.473 157.384H573.257V160.772H572.137C570.923 160.772 570.009 160.949 569.393 161.304C568.777 161.659 568.469 162.237 568.469 163.04V172H564.885ZM575.877 151.28H579.461V159.792H579.573C579.834 158.952 580.329 158.289 581.057 157.804C581.785 157.3 582.634 157.048 583.605 157.048C585.471 157.048 586.89 157.711 587.861 159.036C588.85 160.343 589.345 162.219 589.345 164.664C589.345 167.128 588.85 169.023 587.861 170.348C586.89 171.673 585.471 172.336 583.605 172.336C582.634 172.336 581.785 172.084 581.057 171.58C580.347 171.076 579.853 170.404 579.573 169.564H579.461V172H575.877V151.28ZM582.457 169.368C583.39 169.368 584.146 169.06 584.725 168.444C585.303 167.828 585.593 166.997 585.593 165.952V163.432C585.593 162.387 585.303 161.556 584.725 160.94C584.146 160.305 583.39 159.988 582.457 159.988C581.598 159.988 580.879 160.203 580.301 160.632C579.741 161.061 579.461 161.631 579.461 162.34V166.988C579.461 167.753 579.741 168.341 580.301 168.752C580.879 169.163 581.598 169.368 582.457 169.368ZM598.574 172.336C597.491 172.336 596.52 172.159 595.662 171.804C594.822 171.431 594.103 170.917 593.506 170.264C592.927 169.592 592.479 168.789 592.162 167.856C591.844 166.904 591.686 165.84 591.686 164.664C591.686 163.507 591.835 162.461 592.134 161.528C592.451 160.595 592.899 159.801 593.478 159.148C594.056 158.476 594.766 157.963 595.606 157.608C596.446 157.235 597.398 157.048 598.462 157.048C599.6 157.048 600.59 157.244 601.43 157.636C602.27 158.028 602.96 158.56 603.502 159.232C604.043 159.904 604.444 160.688 604.706 161.584C604.986 162.461 605.126 163.404 605.126 164.412V165.588H595.41V165.952C595.41 167.016 595.708 167.875 596.306 168.528C596.903 169.163 597.79 169.48 598.966 169.48C599.862 169.48 600.59 169.293 601.15 168.92C601.728 168.547 602.242 168.071 602.69 167.492L604.622 169.648C604.024 170.488 603.203 171.151 602.158 171.636C601.131 172.103 599.936 172.336 598.574 172.336ZM598.518 159.736C597.566 159.736 596.81 160.053 596.25 160.688C595.69 161.323 595.41 162.144 595.41 163.152V163.376H601.402V163.124C601.402 162.116 601.15 161.304 600.646 160.688C600.16 160.053 599.451 159.736 598.518 159.736ZM608.279 157.384H611.863V173.764C611.863 174.996 611.555 175.939 610.939 176.592C610.323 177.264 609.343 177.6 607.999 177.6H606.039V174.744H608.279V157.384ZM610.071 155.256C609.324 155.256 608.783 155.088 608.447 154.752C608.13 154.416 607.971 153.987 607.971 153.464V152.904C607.971 152.381 608.13 151.952 608.447 151.616C608.783 151.28 609.324 151.112 610.071 151.112C610.799 151.112 611.331 151.28 611.667 151.616C612.003 151.952 612.171 152.381 612.171 152.904V153.464C612.171 153.987 612.003 154.416 611.667 154.752C611.331 155.088 610.799 155.256 610.071 155.256ZM625.089 169.564H624.949C624.688 170.404 624.193 171.076 623.465 171.58C622.737 172.084 621.888 172.336 620.917 172.336C619.069 172.336 617.651 171.673 616.661 170.348C615.691 169.023 615.205 167.128 615.205 164.664C615.205 162.219 615.691 160.343 616.661 159.036C617.651 157.711 619.069 157.048 620.917 157.048C621.888 157.048 622.737 157.3 623.465 157.804C624.193 158.289 624.688 158.952 624.949 159.792H625.089V151.28H628.673V172H625.089V169.564ZM622.065 169.368C622.924 169.368 623.643 169.163 624.221 168.752C624.8 168.341 625.089 167.753 625.089 166.988V162.34C625.089 161.631 624.8 161.061 624.221 160.632C623.643 160.203 622.924 159.988 622.065 159.988C621.132 159.988 620.376 160.305 619.797 160.94C619.237 161.556 618.957 162.387 618.957 163.432V165.952C618.957 166.997 619.237 167.828 619.797 168.444C620.376 169.06 621.132 169.368 622.065 169.368ZM638.714 172.336C637.632 172.336 636.661 172.159 635.802 171.804C634.962 171.431 634.244 170.917 633.646 170.264C633.068 169.592 632.62 168.789 632.302 167.856C631.985 166.904 631.826 165.84 631.826 164.664C631.826 163.507 631.976 162.461 632.274 161.528C632.592 160.595 633.04 159.801 633.618 159.148C634.197 158.476 634.906 157.963 635.746 157.608C636.586 157.235 637.538 157.048 638.602 157.048C639.741 157.048 640.73 157.244 641.57 157.636C642.41 158.028 643.101 158.56 643.642 159.232C644.184 159.904 644.585 160.688 644.846 161.584C645.126 162.461 645.266 163.404 645.266 164.412V165.588H635.55V165.952C635.55 167.016 635.849 167.875 636.446 168.528C637.044 169.163 637.93 169.48 639.106 169.48C640.002 169.48 640.73 169.293 641.29 168.92C641.869 168.547 642.382 168.071 642.83 167.492L644.762 169.648C644.165 170.488 643.344 171.151 642.298 171.636C641.272 172.103 640.077 172.336 638.714 172.336ZM638.658 159.736C637.706 159.736 636.95 160.053 636.39 160.688C635.83 161.323 635.55 162.144 635.55 163.152V163.376H641.542V163.124C641.542 162.116 641.29 161.304 640.786 160.688C640.301 160.053 639.592 159.736 638.658 159.736Z" fill="white"/>
<g clip-path="url(#clip4)">
<path d="M514.712 148.218C513.012 148.218 511.383 148.571 509.932 149.171C509.542 147.9 509.188 146.594 508.869 145.252C508.905 145.005 508.869 144.758 508.692 144.546C506.78 136.179 506.284 127.954 506.284 127.812C506.284 127.53 506.107 127.283 505.859 127.106C505.611 126.93 505.328 126.93 505.045 127.036L497.289 130.284C496.829 130.46 496.617 130.99 496.829 131.449C497.006 131.907 497.537 132.119 497.998 131.907L504.62 129.154C504.761 130.813 505.045 133.955 505.611 137.662C505.611 137.662 505.576 137.662 505.576 137.697L489.711 153.231L482.275 136.426H485.532C486.028 136.426 486.418 136.038 486.418 135.544C486.418 135.049 486.028 134.661 485.532 134.661H476.361C475.865 134.661 475.475 135.049 475.475 135.544C475.475 136.038 475.865 136.426 476.361 136.426H480.256L481.46 139.109L478.91 145.711C477.281 145.146 475.546 144.828 473.74 144.828C468.11 144.828 462.869 147.865 460.106 152.772C459.859 153.195 460.036 153.725 460.461 153.972C460.602 154.043 460.744 154.078 460.886 154.078C461.204 154.078 461.488 153.901 461.665 153.619C464.108 149.277 468.747 146.558 473.74 146.558C475.298 146.558 476.821 146.805 478.238 147.3L477.742 148.535C476.502 148.112 475.157 147.865 473.74 147.865C466.835 147.865 461.204 153.478 461.204 160.362C461.204 167.246 466.835 172.859 473.74 172.859C480.079 172.859 485.32 168.164 486.17 162.092H488.755C489.357 163.151 490.526 163.892 491.836 163.892C493.784 163.892 495.377 162.304 495.377 160.362C495.377 160.044 495.342 159.762 495.271 159.479L507.382 146.805C507.63 147.829 507.948 148.853 508.232 149.841C504.69 151.995 502.318 155.878 502.318 160.327C502.318 167.105 507.842 172.612 514.641 172.612C521.441 172.612 526.965 167.105 526.965 160.327C526.965 153.548 521.476 148.218 514.712 148.218ZM473.776 171.235C467.826 171.235 463.01 166.399 463.01 160.503C463.01 154.607 467.862 149.771 473.776 149.771C474.944 149.771 476.077 149.947 477.14 150.3L472.961 160.997C472.855 161.28 472.89 161.562 473.067 161.809C473.244 162.056 473.492 162.198 473.811 162.198H484.435C483.585 167.317 479.123 171.235 473.776 171.235ZM478.769 150.971C482.204 152.772 484.541 156.337 484.576 160.468H475.086L478.769 150.971ZM488.365 160.432H486.347C486.347 155.561 483.514 151.36 479.442 149.277L479.937 148.041C480.504 148.323 481.035 148.606 481.531 148.959C481.92 149.241 482.487 149.135 482.77 148.712C483.054 148.323 482.947 147.759 482.522 147.476C481.85 147.123 481.212 146.735 480.539 146.417L482.487 141.439L489.711 157.714C488.897 158.35 488.365 159.338 488.365 160.432ZM491.907 162.233C490.915 162.233 490.136 161.456 490.136 160.468C490.136 159.479 490.915 158.703 491.907 158.703C492.898 158.703 493.677 159.479 493.677 160.468C493.677 161.456 492.863 162.233 491.907 162.233ZM494.421 157.997C493.784 157.361 492.898 156.937 491.907 156.937C491.73 156.937 491.517 156.973 491.34 156.973L490.419 154.925L505.895 139.78C506.178 141.404 506.497 143.134 506.921 144.864L494.421 157.997ZM514.712 170.988C508.905 170.988 504.159 166.257 504.159 160.468C504.159 156.832 506.036 153.584 508.869 151.713C510.179 155.455 511.879 158.844 514.075 161.103C514.252 161.28 514.464 161.386 514.712 161.386C514.925 161.386 515.173 161.315 515.314 161.139C515.668 160.785 515.668 160.256 515.35 159.903C513.296 157.785 511.702 154.537 510.463 150.901C511.773 150.336 513.189 150.018 514.712 150.018C520.52 150.018 525.265 154.749 525.265 160.538C525.265 166.328 520.52 170.988 514.712 170.988Z" fill="#CCEBC5"/>
</g>
<g clip-path="url(#clip5)">
<path d="M78.0965 230.067C76.7265 230.067 75.4136 230.351 74.2435 230.834C73.9295 229.812 73.6441 228.761 73.3872 227.682C73.4158 227.483 73.3872 227.285 73.2445 227.114C71.7033 220.384 71.3037 213.768 71.3037 213.655C71.3037 213.427 71.161 213.229 70.9612 213.087C70.7614 212.945 70.5331 212.945 70.3048 213.03L64.0542 215.642C63.6832 215.784 63.5119 216.21 63.6832 216.579C63.8259 216.948 64.254 217.119 64.6251 216.948L69.9623 214.734C70.0764 216.068 70.3048 218.595 70.7614 221.577C70.7614 221.577 70.7329 221.577 70.7329 221.605L57.9464 234.1L51.9528 220.583H54.5785C54.9781 220.583 55.2921 220.271 55.2921 219.873C55.2921 219.476 54.9781 219.163 54.5785 219.163H47.1864C46.7868 219.163 46.4728 219.476 46.4728 219.873C46.4728 220.271 46.7868 220.583 47.1864 220.583H50.3259L51.2963 222.741L49.2413 228.051C47.9284 227.597 46.5299 227.341 45.0743 227.341C40.5363 227.341 36.3122 229.783 34.0859 233.731C33.8862 234.071 34.0289 234.497 34.3714 234.696C34.4855 234.753 34.5997 234.781 34.7139 234.781C34.9707 234.781 35.1991 234.639 35.3418 234.412C37.3111 230.919 41.05 228.733 45.0743 228.733C46.3301 228.733 47.5574 228.932 48.6991 229.329L48.2995 230.323C47.3005 229.982 46.216 229.783 45.0743 229.783C39.5088 229.783 34.9707 234.298 34.9707 239.836C34.9707 245.373 39.5088 249.888 45.0743 249.888C50.1832 249.888 54.4073 246.111 55.0923 241.227H57.1758C57.661 242.079 58.6029 242.675 59.6589 242.675C61.2287 242.675 62.513 241.397 62.513 239.836C62.513 239.58 62.4845 239.353 62.4274 239.126L72.1885 228.932C72.3883 229.755 72.6451 230.579 72.8735 231.374C70.0193 233.106 68.1071 236.229 68.1071 239.807C68.1071 245.259 72.5595 249.689 78.0394 249.689C83.5193 249.689 87.9718 245.259 87.9718 239.807C87.9718 234.355 83.5479 230.067 78.0965 230.067ZM45.1029 248.582C40.3079 248.582 36.4263 244.691 36.4263 239.949C36.4263 235.207 40.3365 231.317 45.1029 231.317C46.0447 231.317 46.958 231.459 47.8143 231.743L44.4464 240.347C44.3608 240.574 44.3893 240.801 44.532 241C44.6747 241.199 44.8745 241.312 45.1314 241.312H53.6938C53.0088 245.43 49.4126 248.582 45.1029 248.582ZM49.1272 232.282C51.8957 233.731 53.7794 236.599 53.8079 239.921H46.1589L49.1272 232.282ZM56.8618 239.892H55.235C55.235 235.974 52.9517 232.595 49.6695 230.919L50.069 229.925C50.5257 230.153 50.9538 230.38 51.3534 230.664C51.6673 230.891 52.124 230.806 52.3523 230.465C52.5807 230.153 52.495 229.698 52.1525 229.471C51.6103 229.187 51.0965 228.875 50.5542 228.619L52.124 224.615L57.9464 237.706C57.29 238.217 56.8618 239.012 56.8618 239.892ZM59.716 241.341C58.9168 241.341 58.2889 240.716 58.2889 239.921C58.2889 239.126 58.9168 238.501 59.716 238.501C60.5151 238.501 61.143 239.126 61.143 239.921C61.143 240.716 60.4866 241.341 59.716 241.341ZM61.7424 237.933C61.2287 237.422 60.5151 237.081 59.716 237.081C59.5733 237.081 59.402 237.11 59.2593 237.11L58.5172 235.463L70.9897 223.281C71.2181 224.587 71.4749 225.978 71.8174 227.37L61.7424 237.933ZM78.0965 248.383C73.4158 248.383 69.5912 244.578 69.5912 239.921C69.5912 236.996 71.1039 234.384 73.3872 232.879C74.4432 235.889 75.8132 238.615 77.5828 240.432C77.7255 240.574 77.8967 240.659 78.0965 240.659C78.2678 240.659 78.4675 240.602 78.5817 240.46C78.8671 240.176 78.8671 239.75 78.6103 239.467C76.9549 237.763 75.6705 235.15 74.6716 232.226C75.7276 231.771 76.8692 231.516 78.0965 231.516C82.7773 231.516 86.6018 235.321 86.6018 239.978C86.6018 244.635 82.7773 248.383 78.0965 248.383Z" fill="#CCEBC5"/>
</g>
<path d="M103.184 249V246.432H107.792V234.528H107.576L103.928 238.848L101.96 237.192L106.112 232.248H110.888V246.432H114.728V249H103.184ZM123.743 249V245.76H116.159V243.072L122.831 232.248H126.743V243.312H128.927V245.76H126.743V249H123.743ZM118.751 243.312H123.743V235.32H123.551L118.751 243.312ZM134.101 249L145.717 232.248H148.501L136.885 249H134.101ZM135.253 241.464C133.893 241.464 132.853 241.064 132.133 240.264C131.429 239.448 131.077 238.264 131.077 236.712C131.077 235.16 131.429 233.984 132.133 233.184C132.853 232.368 133.893 231.96 135.253 231.96C136.613 231.96 137.645 232.368 138.349 233.184C139.053 233.984 139.405 235.16 139.405 236.712C139.405 238.264 139.053 239.448 138.349 240.264C137.645 241.064 136.613 241.464 135.253 241.464ZM135.253 239.64C136.245 239.64 136.741 238.88 136.741 237.36V236.064C136.741 234.544 136.245 233.784 135.253 233.784C134.261 233.784 133.765 234.544 133.765 236.064V237.36C133.765 238.88 134.261 239.64 135.253 239.64ZM147.349 249.288C146.005 249.288 144.973 248.888 144.253 248.088C143.549 247.272 143.197 246.088 143.197 244.536C143.197 242.984 143.549 241.808 144.253 241.008C144.973 240.192 146.005 239.784 147.349 239.784C148.709 239.784 149.741 240.192 150.445 241.008C151.165 241.808 151.525 242.984 151.525 244.536C151.525 246.088 151.165 247.272 150.445 248.088C149.741 248.888 148.709 249.288 147.349 249.288ZM147.349 247.464C148.341 247.464 148.837 246.704 148.837 245.184V243.888C148.837 242.368 148.341 241.608 147.349 241.608C146.357 241.608 145.861 242.368 145.861 243.888V245.184C145.861 246.704 146.357 247.464 147.349 247.464ZM163.46 232.248V242.544C163.46 243.856 163.708 244.84 164.204 245.496C164.716 246.152 165.572 246.48 166.772 246.48C167.972 246.48 168.82 246.152 169.316 245.496C169.828 244.84 170.084 243.856 170.084 242.544V232.248H173.204V242.136C173.204 243.368 173.084 244.432 172.844 245.328C172.62 246.224 172.252 246.968 171.74 247.56C171.228 248.152 170.556 248.592 169.724 248.88C168.908 249.152 167.916 249.288 166.748 249.288C165.564 249.288 164.564 249.152 163.748 248.88C162.948 248.592 162.292 248.152 161.78 247.56C161.268 246.968 160.9 246.224 160.676 245.328C160.452 244.432 160.34 243.368 160.34 242.136V232.248H163.46ZM184.615 246.912H184.495C184.271 247.632 183.847 248.208 183.223 248.64C182.599 249.072 181.871 249.288 181.039 249.288C179.455 249.288 178.239 248.72 177.391 247.584C176.559 246.448 176.143 244.824 176.143 242.712C176.143 240.616 176.559 239.008 177.391 237.888C178.239 236.752 179.455 236.184 181.039 236.184C181.871 236.184 182.599 236.4 183.223 236.832C183.847 237.248 184.271 237.816 184.495 238.536H184.615V231.24H187.687V249H184.615V246.912ZM182.023 246.744C182.759 246.744 183.375 246.568 183.871 246.216C184.367 245.864 184.615 245.36 184.615 244.704V240.72C184.615 240.112 184.367 239.624 183.871 239.256C183.375 238.888 182.759 238.704 182.023 238.704C181.223 238.704 180.575 238.976 180.079 239.52C179.599 240.048 179.359 240.76 179.359 241.656V243.816C179.359 244.712 179.599 245.424 180.079 245.952C180.575 246.48 181.223 246.744 182.023 246.744ZM199.005 246.912H198.885C198.661 247.632 198.237 248.208 197.613 248.64C196.989 249.072 196.261 249.288 195.429 249.288C193.845 249.288 192.629 248.72 191.781 247.584C190.949 246.448 190.533 244.824 190.533 242.712C190.533 240.616 190.949 239.008 191.781 237.888C192.629 236.752 193.845 236.184 195.429 236.184C196.261 236.184 196.989 236.4 197.613 236.832C198.237 237.248 198.661 237.816 198.885 238.536H199.005V231.24H202.077V249H199.005V246.912ZM196.413 246.744C197.149 246.744 197.765 246.568 198.261 246.216C198.757 245.864 199.005 245.36 199.005 244.704V240.72C199.005 240.112 198.757 239.624 198.261 239.256C197.765 238.888 197.149 238.704 196.413 238.704C195.613 238.704 194.965 238.976 194.469 239.52C193.989 240.048 193.749 240.76 193.749 241.656V243.816C193.749 244.712 193.989 245.424 194.469 245.952C194.965 246.48 195.613 246.744 196.413 246.744ZM214.836 249C214.164 249 213.628 248.808 213.228 248.424C212.844 248.024 212.604 247.496 212.508 246.84H212.364C212.156 247.656 211.732 248.272 211.092 248.688C210.452 249.088 209.66 249.288 208.716 249.288C207.436 249.288 206.452 248.952 205.764 248.28C205.076 247.608 204.732 246.712 204.732 245.592C204.732 244.296 205.196 243.336 206.124 242.712C207.052 242.072 208.372 241.752 210.084 241.752H212.22V240.84C212.22 240.136 212.036 239.592 211.668 239.208C211.3 238.824 210.708 238.632 209.892 238.632C209.172 238.632 208.588 238.792 208.14 239.112C207.708 239.416 207.34 239.784 207.036 240.216L205.212 238.584C205.676 237.864 206.292 237.288 207.06 236.856C207.828 236.408 208.844 236.184 210.108 236.184C211.804 236.184 213.092 236.568 213.972 237.336C214.852 238.104 215.292 239.208 215.292 240.648V246.552H216.54V249H214.836ZM209.748 247.056C210.436 247.056 211.02 246.904 211.5 246.6C211.98 246.296 212.22 245.848 212.22 245.256V243.6H210.252C208.652 243.6 207.852 244.112 207.852 245.136V245.544C207.852 246.056 208.012 246.44 208.332 246.696C208.668 246.936 209.14 247.056 209.748 247.056ZM219.026 249V236.472H222.098V238.56H222.218C222.474 237.888 222.874 237.328 223.418 236.88C223.978 236.416 224.746 236.184 225.722 236.184C227.018 236.184 228.01 236.608 228.698 237.456C229.386 238.304 229.73 239.512 229.73 241.08V249H226.658V241.392C226.658 240.496 226.498 239.824 226.178 239.376C225.858 238.928 225.33 238.704 224.594 238.704C224.274 238.704 223.962 238.752 223.658 238.848C223.37 238.928 223.106 239.056 222.866 239.232C222.642 239.392 222.458 239.6 222.314 239.856C222.17 240.096 222.098 240.384 222.098 240.72V249H219.026ZM233.135 249V236.472H236.207V238.56H236.327C236.583 237.888 236.983 237.328 237.527 236.88C238.087 236.416 238.855 236.184 239.831 236.184C241.127 236.184 242.119 236.608 242.807 237.456C243.495 238.304 243.839 239.512 243.839 241.08V249H240.767V241.392C240.767 240.496 240.607 239.824 240.287 239.376C239.967 238.928 239.439 238.704 238.703 238.704C238.383 238.704 238.071 238.752 237.767 238.848C237.479 238.928 237.215 239.056 236.975 239.232C236.751 239.392 236.567 239.6 236.423 239.856C236.279 240.096 236.207 240.384 236.207 240.72V249H233.135ZM252.309 249.288C251.381 249.288 250.549 249.136 249.813 248.832C249.093 248.512 248.477 248.072 247.965 247.512C247.469 246.936 247.085 246.248 246.813 245.448C246.541 244.632 246.405 243.72 246.405 242.712C246.405 241.72 246.533 240.824 246.789 240.024C247.061 239.224 247.445 238.544 247.941 237.984C248.437 237.408 249.045 236.968 249.765 236.664C250.485 236.344 251.301 236.184 252.213 236.184C253.189 236.184 254.037 236.352 254.757 236.688C255.477 237.024 256.069 237.48 256.533 238.056C256.997 238.632 257.341 239.304 257.565 240.072C257.805 240.824 257.925 241.632 257.925 242.496V243.504H249.597V243.816C249.597 244.728 249.853 245.464 250.365 246.024C250.877 246.568 251.637 246.84 252.645 246.84C253.413 246.84 254.037 246.68 254.517 246.36C255.013 246.04 255.453 245.632 255.837 245.136L257.493 246.984C256.981 247.704 256.277 248.272 255.381 248.688C254.501 249.088 253.477 249.288 252.309 249.288ZM252.261 238.488C251.445 238.488 250.797 238.76 250.317 239.304C249.837 239.848 249.597 240.552 249.597 241.416V241.608H254.733V241.392C254.733 240.528 254.517 239.832 254.085 239.304C253.669 238.76 253.061 238.488 252.261 238.488ZM263.7 249C262.644 249 261.868 248.736 261.372 248.208C260.876 247.68 260.628 246.936 260.628 245.976V231.24H263.7V246.552H265.356V249H263.7ZM271.786 249.288C270.586 249.288 269.578 249.088 268.762 248.688C267.946 248.272 267.226 247.704 266.602 246.984L268.474 245.16C268.938 245.688 269.442 246.104 269.986 246.408C270.546 246.712 271.186 246.864 271.906 246.864C272.642 246.864 273.17 246.736 273.49 246.48C273.826 246.224 273.994 245.872 273.994 245.424C273.994 245.056 273.874 244.768 273.634 244.56C273.41 244.336 273.018 244.184 272.458 244.104L271.21 243.936C269.85 243.76 268.81 243.376 268.09 242.784C267.386 242.176 267.034 241.296 267.034 240.144C267.034 239.536 267.146 238.992 267.37 238.512C267.594 238.016 267.914 237.6 268.33 237.264C268.746 236.912 269.242 236.648 269.818 236.472C270.41 236.28 271.066 236.184 271.786 236.184C272.394 236.184 272.93 236.232 273.394 236.328C273.874 236.408 274.306 236.536 274.69 236.712C275.074 236.872 275.426 237.08 275.746 237.336C276.066 237.576 276.378 237.848 276.682 238.152L274.882 239.952C274.514 239.568 274.074 239.248 273.562 238.992C273.05 238.736 272.49 238.608 271.882 238.608C271.21 238.608 270.722 238.728 270.418 238.968C270.13 239.208 269.986 239.52 269.986 239.904C269.986 240.32 270.106 240.64 270.346 240.864C270.602 241.072 271.026 241.224 271.618 241.32L272.89 241.488C275.594 241.872 276.946 243.104 276.946 245.184C276.946 245.792 276.818 246.352 276.562 246.864C276.322 247.36 275.978 247.792 275.53 248.16C275.082 248.512 274.538 248.792 273.898 249C273.274 249.192 272.57 249.288 271.786 249.288ZM284.723 249.288C283.795 249.288 282.963 249.136 282.227 248.832C281.507 248.512 280.891 248.072 280.379 247.512C279.883 246.936 279.499 246.248 279.227 245.448C278.955 244.632 278.819 243.72 278.819 242.712C278.819 241.72 278.947 240.824 279.203 240.024C279.475 239.224 279.859 238.544 280.355 237.984C280.851 237.408 281.459 236.968 282.179 236.664C282.899 236.344 283.715 236.184 284.627 236.184C285.603 236.184 286.451 236.352 287.171 236.688C287.891 237.024 288.483 237.48 288.947 238.056C289.411 238.632 289.755 239.304 289.979 240.072C290.219 240.824 290.339 241.632 290.339 242.496V243.504H282.011V243.816C282.011 244.728 282.267 245.464 282.779 246.024C283.291 246.568 284.051 246.84 285.059 246.84C285.827 246.84 286.451 246.68 286.931 246.36C287.427 246.04 287.867 245.632 288.251 245.136L289.907 246.984C289.395 247.704 288.691 248.272 287.795 248.688C286.915 249.088 285.891 249.288 284.723 249.288ZM284.675 238.488C283.859 238.488 283.211 238.76 282.731 239.304C282.251 239.848 282.011 240.552 282.011 241.416V241.608H287.147V241.392C287.147 240.528 286.931 239.832 286.499 239.304C286.083 238.76 285.475 238.488 284.675 238.488Z" fill="white"/>
<path d="M132.17 116.44C133.57 116.44 134.597 116.16 135.25 115.6C135.927 115.017 136.265 114.282 136.265 113.395V113.15C136.265 112.147 135.938 111.365 135.285 110.805C134.655 110.222 133.78 109.93 132.66 109.93C131.587 109.93 130.63 110.187 129.79 110.7C128.973 111.213 128.262 111.937 127.655 112.87L124.715 110.21C125.135 109.65 125.59 109.125 126.08 108.635C126.593 108.122 127.177 107.69 127.83 107.34C128.483 106.967 129.218 106.675 130.035 106.465C130.852 106.255 131.773 106.15 132.8 106.15C134.037 106.15 135.157 106.302 136.16 106.605C137.187 106.885 138.062 107.305 138.785 107.865C139.532 108.425 140.103 109.102 140.5 109.895C140.897 110.665 141.095 111.54 141.095 112.52C141.095 113.313 140.967 114.025 140.71 114.655C140.477 115.285 140.138 115.833 139.695 116.3C139.275 116.767 138.773 117.152 138.19 117.455C137.63 117.735 137.035 117.945 136.405 118.085V118.295C137.105 118.435 137.77 118.657 138.4 118.96C139.03 119.263 139.567 119.672 140.01 120.185C140.477 120.675 140.838 121.258 141.095 121.935C141.375 122.612 141.515 123.382 141.515 124.245C141.515 125.318 141.293 126.298 140.85 127.185C140.43 128.072 139.823 128.83 139.03 129.46C138.237 130.09 137.292 130.58 136.195 130.93C135.098 131.257 133.873 131.42 132.52 131.42C131.33 131.42 130.28 131.292 129.37 131.035C128.46 130.802 127.655 130.475 126.955 130.055C126.278 129.635 125.683 129.157 125.17 128.62C124.657 128.06 124.213 127.477 123.84 126.87L127.235 124.28C127.515 124.77 127.818 125.225 128.145 125.645C128.472 126.042 128.845 126.392 129.265 126.695C129.685 126.998 130.163 127.232 130.7 127.395C131.237 127.558 131.843 127.64 132.52 127.64C133.873 127.64 134.912 127.313 135.635 126.66C136.358 126.007 136.72 125.108 136.72 123.965V123.72C136.72 122.6 136.323 121.748 135.53 121.165C134.76 120.582 133.64 120.29 132.17 120.29H129.755V116.44H132.17ZM163.096 131H146.156V126.73L153.821 120.01C155.128 118.867 156.085 117.84 156.691 116.93C157.298 115.997 157.601 114.993 157.601 113.92V113.465C157.601 112.392 157.251 111.575 156.551 111.015C155.851 110.432 155 110.14 153.996 110.14C152.736 110.14 151.78 110.502 151.126 111.225C150.473 111.925 150.006 112.777 149.726 113.78L145.736 112.24C145.993 111.423 146.355 110.653 146.821 109.93C147.288 109.183 147.871 108.53 148.571 107.97C149.295 107.41 150.135 106.967 151.091 106.64C152.048 106.313 153.145 106.15 154.381 106.15C155.665 106.15 156.808 106.337 157.811 106.71C158.815 107.06 159.655 107.562 160.331 108.215C161.031 108.868 161.556 109.638 161.906 110.525C162.28 111.412 162.466 112.38 162.466 113.43C162.466 114.457 162.303 115.39 161.976 116.23C161.65 117.07 161.206 117.875 160.646 118.645C160.086 119.392 159.433 120.115 158.686 120.815C157.94 121.492 157.146 122.18 156.306 122.88L151.161 127.115H163.096V131ZM171.273 131L188.213 106.57H192.273L175.333 131H171.273ZM172.953 120.01C170.969 120.01 169.453 119.427 168.403 118.26C167.376 117.07 166.863 115.343 166.863 113.08C166.863 110.817 167.376 109.102 168.403 107.935C169.453 106.745 170.969 106.15 172.953 106.15C174.936 106.15 176.441 106.745 177.468 107.935C178.494 109.102 179.008 110.817 179.008 113.08C179.008 115.343 178.494 117.07 177.468 118.26C176.441 119.427 174.936 120.01 172.953 120.01ZM172.953 117.35C174.399 117.35 175.123 116.242 175.123 114.025V112.135C175.123 109.918 174.399 108.81 172.953 108.81C171.506 108.81 170.783 109.918 170.783 112.135V114.025C170.783 116.242 171.506 117.35 172.953 117.35ZM190.593 131.42C188.633 131.42 187.128 130.837 186.078 129.67C185.051 128.48 184.538 126.753 184.538 124.49C184.538 122.227 185.051 120.512 186.078 119.345C187.128 118.155 188.633 117.56 190.593 117.56C192.576 117.56 194.081 118.155 195.108 119.345C196.158 120.512 196.683 122.227 196.683 124.49C196.683 126.753 196.158 128.48 195.108 129.67C194.081 130.837 192.576 131.42 190.593 131.42ZM190.593 128.76C192.039 128.76 192.763 127.652 192.763 125.435V123.545C192.763 121.328 192.039 120.22 190.593 120.22C189.146 120.22 188.423 121.328 188.423 123.545V125.435C188.423 127.652 189.146 128.76 190.593 128.76ZM125.87 171V146.57H141.585V150.665H130.49V156.58H140.15V160.675H130.49V171H125.87ZM144.833 171V152.73H149.313V156.51H149.488C149.605 156.02 149.78 155.553 150.013 155.11C150.27 154.643 150.596 154.235 150.993 153.885C151.39 153.535 151.856 153.255 152.393 153.045C152.953 152.835 153.595 152.73 154.318 152.73H155.298V156.965H153.898C152.381 156.965 151.238 157.187 150.468 157.63C149.698 158.073 149.313 158.797 149.313 159.8V171H144.833ZM160.813 150.07C159.88 150.07 159.203 149.86 158.783 149.44C158.387 149.02 158.188 148.483 158.188 147.83V147.13C158.188 146.477 158.387 145.94 158.783 145.52C159.203 145.1 159.88 144.89 160.813 144.89C161.723 144.89 162.388 145.1 162.808 145.52C163.228 145.94 163.438 146.477 163.438 147.13V147.83C163.438 148.483 163.228 149.02 162.808 149.44C162.388 149.86 161.723 150.07 160.813 150.07ZM158.573 152.73H163.053V171H158.573V152.73ZM173.951 171C172.411 171 171.233 170.603 170.416 169.81C169.623 168.993 169.226 167.838 169.226 166.345V156.3H166.531V152.73H167.931C168.608 152.73 169.063 152.578 169.296 152.275C169.553 151.948 169.681 151.47 169.681 150.84V147.725H173.706V152.73H177.451V156.3H173.706V167.43H177.171V171H173.951ZM183.577 150.07C182.644 150.07 181.967 149.86 181.547 149.44C181.15 149.02 180.952 148.483 180.952 147.83V147.13C180.952 146.477 181.15 145.94 181.547 145.52C181.967 145.1 182.644 144.89 183.577 144.89C184.487 144.89 185.152 145.1 185.572 145.52C185.992 145.94 186.202 146.477 186.202 147.13V147.83C186.202 148.483 185.992 149.02 185.572 149.44C185.152 149.86 184.487 150.07 183.577 150.07ZM181.337 152.73H185.817V171H181.337V152.73ZM202.35 167.955H202.175C201.848 169.005 201.23 169.845 200.32 170.475C199.41 171.105 198.348 171.42 197.135 171.42C194.825 171.42 193.052 170.592 191.815 168.935C190.602 167.278 189.995 164.91 189.995 161.83C189.995 158.773 190.602 156.428 191.815 154.795C193.052 153.138 194.825 152.31 197.135 152.31C198.348 152.31 199.41 152.625 200.32 153.255C201.23 153.862 201.848 154.69 202.175 155.74H202.35V145.1H206.83V171H202.35V167.955ZM198.57 167.71C199.643 167.71 200.542 167.453 201.265 166.94C201.988 166.427 202.35 165.692 202.35 164.735V158.925C202.35 158.038 201.988 157.327 201.265 156.79C200.542 156.253 199.643 155.985 198.57 155.985C197.403 155.985 196.458 156.382 195.735 157.175C195.035 157.945 194.685 158.983 194.685 160.29V163.44C194.685 164.747 195.035 165.785 195.735 166.555C196.458 167.325 197.403 167.71 198.57 167.71Z" fill="white"/>
<g clip-path="url(#clip6)">
<path d="M96.0614 144.985C94.1333 144.985 92.2855 145.384 90.6386 146.062C90.1967 144.626 89.795 143.149 89.4335 141.632C89.4737 141.353 89.4335 141.074 89.2326 140.834C89.072 140.196 88.9515 139.597 88.831 138.959L96.9451 138.28C97.4271 138.24 97.8288 137.841 97.869 137.362L98.7929 122.477C98.7929 122.157 98.6724 121.878 98.4715 121.678C98.2305 121.479 97.9092 121.399 97.628 121.439L86.6217 123.434C86.5413 122.517 86.5011 121.958 86.5011 121.918C86.5011 121.599 86.3003 121.319 86.0191 121.12C85.7379 120.92 85.4166 120.92 85.0952 121.04L76.2982 124.711C75.776 124.911 75.535 125.51 75.776 126.028C75.9768 126.547 76.5794 126.787 77.1016 126.547L84.6132 123.434C84.7739 125.31 85.0952 128.862 85.7379 133.052C85.7379 133.052 85.6978 133.052 85.6978 133.092L67.702 150.652L59.2665 131.655H62.962C63.5244 131.655 63.9663 131.216 63.9663 130.658C63.9663 130.099 63.5244 129.66 62.962 129.66H52.5582C51.9959 129.66 51.554 130.099 51.554 130.658C51.554 131.216 51.9959 131.655 52.5582 131.655H56.9768L58.3426 134.688L56.9768 138.2C56.8563 138.121 56.6956 138.081 56.535 138.081H39.4631C38.9007 138.081 38.4589 138.52 38.4589 139.078C38.4589 139.637 38.9007 140.076 39.4631 140.076H56.2136L55.4102 142.111C53.5625 141.473 51.5942 141.114 49.5455 141.114C43.1586 141.114 37.2136 144.546 34.0804 150.093C33.7992 150.572 34.0001 151.17 34.4821 151.45C34.6428 151.53 34.8035 151.57 34.9641 151.57C35.3257 151.57 35.647 151.37 35.8479 151.051C38.6195 146.142 43.8817 143.069 49.5455 143.069C51.313 143.069 53.0403 143.348 54.647 143.907L54.0847 145.304C52.6787 144.825 51.1523 144.546 49.5455 144.546C41.7126 144.546 35.3257 150.891 35.3257 158.673C35.3257 166.455 41.7126 172.801 49.5455 172.801C56.7358 172.801 62.6808 167.493 63.6449 160.629H66.5773C67.2601 161.826 68.5857 162.664 70.072 162.664C72.2813 162.664 74.0889 160.868 74.0889 158.673C74.0889 158.314 74.0487 157.995 73.9684 157.675L87.7062 143.348C87.9874 144.506 88.3489 145.663 88.6703 146.781C84.6534 149.215 81.962 153.605 81.962 158.633C81.962 166.296 88.2284 172.521 95.9409 172.521C103.653 172.521 109.92 166.296 109.92 158.633C109.92 150.971 103.734 144.985 96.0614 144.985ZM96.7041 123.634L95.9007 136.405L88.3891 137.003C87.5455 132.454 87.0233 128.263 86.7422 125.47L96.7041 123.634ZM49.6259 171.005C42.8775 171.005 37.4145 165.537 37.4145 158.873C37.4145 152.208 42.9176 146.741 49.6259 146.741C50.9515 146.741 52.2369 146.94 53.4419 147.339L48.702 159.431C48.5815 159.751 48.6216 160.07 48.8225 160.349C49.0233 160.629 49.3045 160.788 49.666 160.788H61.7168C60.7527 166.575 55.6914 171.005 49.6259 171.005ZM51.1121 158.793L55.2897 148.098C59.1861 150.133 61.8373 154.164 61.8775 158.833H51.1121V158.793ZM66.1756 158.793H63.8859C63.8859 153.286 60.6724 148.537 56.0529 146.182L56.6153 144.785C57.258 145.104 57.8605 145.424 58.4229 145.823C58.8648 146.142 59.5075 146.022 59.8288 145.543C60.1502 145.104 60.0297 144.466 59.5477 144.147C58.7844 143.748 58.0614 143.309 57.2982 142.949L59.5075 137.322L67.702 155.72C66.7781 156.438 66.1756 157.556 66.1756 158.793ZM70.1925 160.828C69.0677 160.828 68.184 159.95 68.184 158.833C68.184 157.715 69.0677 156.837 70.1925 156.837C71.3172 156.837 72.2009 157.715 72.2009 158.833C72.2009 159.95 71.277 160.828 70.1925 160.828ZM73.0445 156.039C72.3214 155.321 71.3172 154.842 70.1925 154.842C69.9916 154.842 69.7506 154.882 69.5498 154.882L68.5054 152.567L86.0593 135.447C86.3806 137.282 86.7422 139.238 87.2242 141.193L73.0445 156.039ZM96.0614 170.725C89.4737 170.725 84.091 165.378 84.091 158.833C84.091 154.722 86.22 151.051 89.4335 148.936C90.9197 153.166 92.8479 156.997 95.3383 159.551C95.5392 159.751 95.7802 159.87 96.0614 159.87C96.3024 159.87 96.5836 159.791 96.7443 159.591C97.146 159.192 97.146 158.593 96.7844 158.194C94.4546 155.8 92.647 152.128 91.2411 148.018C92.7274 147.379 94.3341 147.02 96.0614 147.02C102.649 147.02 108.032 152.368 108.032 158.913C108.032 165.457 102.649 170.725 96.0614 170.725Z" fill="#CCEBC5"/>
</g>
<path d="M386.104 249H374.488V246.072L379.744 241.464C380.64 240.68 381.296 239.976 381.712 239.352C382.128 238.712 382.336 238.024 382.336 237.288V236.976C382.336 236.24 382.096 235.68 381.616 235.296C381.136 234.896 380.552 234.696 379.864 234.696C379 234.696 378.344 234.944 377.896 235.44C377.448 235.92 377.128 236.504 376.936 237.192L374.2 236.136C374.376 235.576 374.624 235.048 374.944 234.552C375.264 234.04 375.664 233.592 376.144 233.208C376.64 232.824 377.216 232.52 377.872 232.296C378.528 232.072 379.28 231.96 380.128 231.96C381.008 231.96 381.792 232.088 382.48 232.344C383.168 232.584 383.744 232.928 384.208 233.376C384.688 233.824 385.048 234.352 385.288 234.96C385.544 235.568 385.672 236.232 385.672 236.952C385.672 237.656 385.56 238.296 385.336 238.872C385.112 239.448 384.808 240 384.424 240.528C384.04 241.04 383.592 241.536 383.08 242.016C382.568 242.48 382.024 242.952 381.448 243.432L377.92 246.336H386.104V249ZM391.711 249L403.327 232.248H406.111L394.495 249H391.711ZM392.863 241.464C391.503 241.464 390.463 241.064 389.743 240.264C389.039 239.448 388.687 238.264 388.687 236.712C388.687 235.16 389.039 233.984 389.743 233.184C390.463 232.368 391.503 231.96 392.863 231.96C394.223 231.96 395.255 232.368 395.959 233.184C396.663 233.984 397.015 235.16 397.015 236.712C397.015 238.264 396.663 239.448 395.959 240.264C395.255 241.064 394.223 241.464 392.863 241.464ZM392.863 239.64C393.855 239.64 394.351 238.88 394.351 237.36V236.064C394.351 234.544 393.855 233.784 392.863 233.784C391.871 233.784 391.375 234.544 391.375 236.064V237.36C391.375 238.88 391.871 239.64 392.863 239.64ZM404.959 249.288C403.615 249.288 402.583 248.888 401.863 248.088C401.159 247.272 400.807 246.088 400.807 244.536C400.807 242.984 401.159 241.808 401.863 241.008C402.583 240.192 403.615 239.784 404.959 239.784C406.319 239.784 407.351 240.192 408.055 241.008C408.775 241.808 409.135 242.984 409.135 244.536C409.135 246.088 408.775 247.272 408.055 248.088C407.351 248.888 406.319 249.288 404.959 249.288ZM404.959 247.464C405.951 247.464 406.447 246.704 406.447 245.184V243.888C406.447 242.368 405.951 241.608 404.959 241.608C403.967 241.608 403.471 242.368 403.471 243.888V245.184C403.471 246.704 403.967 247.464 404.959 247.464ZM418.07 249V232.248H429.11V235.056H421.238V239.112H428.198V241.92H421.238V246.192H429.11V249H418.07ZM432.268 249V236.472H435.34V239.064H435.46C435.54 238.728 435.66 238.408 435.82 238.104C435.996 237.784 436.22 237.504 436.492 237.264C436.764 237.024 437.084 236.832 437.452 236.688C437.836 236.544 438.276 236.472 438.772 236.472H439.444V239.376H438.484C437.444 239.376 436.66 239.528 436.132 239.832C435.604 240.136 435.34 240.632 435.34 241.32V249H432.268ZM441.69 231.24H444.762V238.56H444.882C445.138 237.888 445.538 237.328 446.082 236.88C446.642 236.416 447.41 236.184 448.386 236.184C449.682 236.184 450.674 236.608 451.362 237.456C452.05 238.304 452.394 239.512 452.394 241.08V249H449.322V241.392C449.322 240.496 449.162 239.824 448.842 239.376C448.522 238.928 447.994 238.704 447.258 238.704C446.938 238.704 446.626 238.752 446.322 238.848C446.034 238.928 445.77 239.056 445.53 239.232C445.306 239.392 445.122 239.6 444.978 239.856C444.834 240.096 444.762 240.384 444.762 240.72V249H441.69V231.24ZM458.3 249L454.124 236.472H457.148L458.9 241.872L460.124 246.336H460.292L461.516 241.872L463.22 236.472H466.148L461.948 249H458.3ZM473.074 249.288C472.146 249.288 471.314 249.136 470.578 248.832C469.858 248.512 469.242 248.072 468.73 247.512C468.234 246.936 467.85 246.248 467.578 245.448C467.306 244.632 467.17 243.72 467.17 242.712C467.17 241.72 467.298 240.824 467.554 240.024C467.826 239.224 468.21 238.544 468.706 237.984C469.202 237.408 469.81 236.968 470.53 236.664C471.25 236.344 472.066 236.184 472.978 236.184C473.954 236.184 474.802 236.352 475.522 236.688C476.242 237.024 476.834 237.48 477.298 238.056C477.762 238.632 478.106 239.304 478.33 240.072C478.57 240.824 478.69 241.632 478.69 242.496V243.504H470.362V243.816C470.362 244.728 470.618 245.464 471.13 246.024C471.642 246.568 472.402 246.84 473.41 246.84C474.178 246.84 474.802 246.68 475.282 246.36C475.778 246.04 476.218 245.632 476.602 245.136L478.258 246.984C477.746 247.704 477.042 248.272 476.146 248.688C475.266 249.088 474.242 249.288 473.074 249.288ZM473.026 238.488C472.21 238.488 471.562 238.76 471.082 239.304C470.602 239.848 470.362 240.552 470.362 241.416V241.608H475.498V241.392C475.498 240.528 475.282 239.832 474.85 239.304C474.434 238.76 473.826 238.488 473.026 238.488ZM481.393 249V236.472H484.465V239.064H484.585C484.665 238.728 484.785 238.408 484.945 238.104C485.121 237.784 485.345 237.504 485.617 237.264C485.889 237.024 486.209 236.832 486.577 236.688C486.961 236.544 487.401 236.472 487.897 236.472H488.569V239.376H487.609C486.569 239.376 485.785 239.528 485.257 239.832C484.729 240.136 484.465 240.632 484.465 241.32V249H481.393ZM493.691 249L489.515 236.472H492.539L494.291 241.872L495.515 246.336H495.683L496.907 241.872L498.611 236.472H501.539L497.339 249H493.691Z" fill="white"/>
<g clip-path="url(#clip7)">
<path d="M348.327 231.401C348.23 231.853 348.52 232.272 348.941 232.369L357.117 234.113C357.181 234.113 357.246 234.145 357.278 234.145C357.666 234.145 357.989 233.887 358.054 233.5C358.151 233.047 357.86 232.628 357.44 232.531L349.264 230.787C348.844 230.69 348.424 230.949 348.327 231.401Z" fill="#CCEBC5"/>
<path d="M358.7 239.473C357.925 239.473 357.149 239.667 356.503 239.957C356.276 239.15 355.921 237.761 355.727 236.986C354.952 234.113 354.273 233.66 350.201 233.112C346.84 232.659 342.413 231.755 340.894 231.465C340.926 231.174 340.926 230.883 340.959 230.593C342.025 229.85 342.639 227.493 343.77 222.553L343.996 221.616C344.158 220.906 344.417 220.486 344.804 220.357C345.741 220.098 347.551 221.39 348.553 222.359C348.876 222.682 349.393 222.682 349.684 222.359C350.007 222.036 350.007 221.519 349.684 221.229C349.361 220.906 346.549 218.161 344.32 218.807C343.641 219.001 342.768 219.582 342.381 221.261L342.154 222.197C341.702 224.232 340.959 227.428 340.345 228.72C340.312 228.72 340.248 228.688 340.215 228.688C339.989 227.461 340.054 224.91 340.054 223.424C340.086 221.939 340.086 220.647 339.989 219.84C339.828 218.581 339.246 218.161 338.761 218.032C337.404 217.677 335.853 219.517 335.045 220.647C334.786 221.003 334.883 221.519 335.239 221.778C335.594 222.036 336.111 221.939 336.37 221.584C337.016 220.68 337.889 219.808 338.309 219.614C338.341 219.679 338.373 219.808 338.373 220.002C338.47 220.68 338.438 221.971 338.406 223.36C338.341 227.558 338.406 229.656 339.246 230.431C339.181 231.562 339.052 232.595 338.89 233.531C338.18 233.338 337.307 233.176 336.402 233.176C331.749 233.176 328 236.954 328 241.572C328 246.189 331.781 249.967 336.402 249.967C341.023 249.967 344.804 246.189 344.804 241.572C344.804 238.407 343.059 235.663 340.474 234.209C340.539 233.822 340.603 233.434 340.668 233.015C342.316 233.37 346.646 234.242 349.943 234.661C353.53 235.146 353.562 235.307 354.144 237.374C354.305 237.923 354.531 238.762 354.725 239.505C354.434 239.441 354.111 239.408 353.82 239.408C350.912 239.408 348.553 241.765 348.553 244.672C348.553 247.578 350.912 249.935 353.82 249.935C354.693 249.935 355.533 249.709 356.276 249.321C357.02 249.709 357.86 249.935 358.732 249.935C361.641 249.935 364 247.578 364 244.672C364 241.765 361.609 239.473 358.7 239.473ZM343.221 241.604C343.221 245.35 340.183 248.385 336.434 248.385C332.686 248.385 329.648 245.35 329.648 241.604C329.648 237.858 332.686 234.823 336.434 234.823C337.21 234.823 337.953 234.952 338.664 235.21C337.662 239.214 335.95 241.055 335.917 241.087C335.594 241.41 335.627 241.927 335.95 242.218C336.111 242.379 336.305 242.444 336.499 242.444C336.725 242.444 336.919 242.347 337.081 242.185C337.178 242.088 339.02 240.119 340.151 235.921C341.993 237.116 343.221 239.214 343.221 241.604ZM350.169 244.736C350.169 242.734 351.817 241.087 353.82 241.087C354.176 241.087 354.499 241.152 354.79 241.216C353.95 242.153 353.433 243.38 353.433 244.736C353.433 246.092 353.95 247.319 354.79 248.256C354.467 248.353 354.144 248.385 353.82 248.385C351.785 248.385 350.169 246.738 350.169 244.736ZM358.7 248.385C356.697 248.385 355.048 246.738 355.048 244.736C355.048 242.734 356.697 241.087 358.7 241.087C360.704 241.087 362.352 242.734 362.352 244.736C362.384 246.738 360.736 248.385 358.7 248.385Z" fill="#CCEBC5"/>
</g>
</g>
<defs>
<clipPath id="clip0">
<rect width="832" height="296" fill="white"/>
</clipPath>
<clipPath id="clip1">
<rect width="571.139" height="393.427" fill="white" transform="translate(660 -116)"/>
</clipPath>
<clipPath id="clip2">
<rect width="571.139" height="393.427" fill="white" transform="translate(588 -15)"/>
</clipPath>
<clipPath id="clip3">
<rect width="71" height="49" fill="white" transform="translate(246 124)"/>
</clipPath>
<clipPath id="clip4">
<rect width="67" height="46" fill="white" transform="translate(460 127)"/>
</clipPath>
<clipPath id="clip5">
<rect width="54" height="37" fill="white" transform="translate(34 213)"/>
</clipPath>
<clipPath id="clip6">
<rect width="76" height="52" fill="white" transform="translate(34 121)"/>
</clipPath>
<clipPath id="clip7">
<rect width="36" height="32" fill="white" transform="translate(328 218)"/>
</clipPath>
</defs>
</svg>
