<svg width="418" height="296" viewBox="0 0 418 296" fill="none" xmlns="http://www.w3.org/2000/svg">
<rect width="418" height="296" fill="white"/>
<path d="M20.912 28.944L19.424 30.704V34H17.312V22.832H19.424V28.336H19.504L21.088 26.24L23.856 22.832H26.288L22.4 27.488L26.608 34H24.096L20.912 28.944ZM26.7575 33.92L27.8295 32.576C27.3602 31.8507 27.1255 30.928 27.1255 29.808C27.1255 29.136 27.2162 28.5333 27.3975 28C27.5788 27.4667 27.8348 27.0133 28.1655 26.64C28.5068 26.256 28.9122 25.9627 29.3815 25.76C29.8615 25.5573 30.4002 25.456 30.9975 25.456C31.8402 25.456 32.5602 25.6587 33.1575 26.064L34.1335 24.896L35.2535 25.728L34.1655 27.072C34.4002 27.4347 34.5762 27.8507 34.6935 28.32C34.8215 28.7787 34.8855 29.28 34.8855 29.824C34.8855 30.496 34.7948 31.104 34.6135 31.648C34.4322 32.1813 34.1708 32.64 33.8295 33.024C33.4988 33.3973 33.0935 33.6853 32.6135 33.888C32.1335 34.0907 31.5948 34.192 30.9975 34.192C30.1655 34.192 29.4455 33.9947 28.8375 33.6L27.8775 34.752L26.7575 33.92ZM30.9975 32.64C31.5522 32.64 31.9895 32.4587 32.3095 32.096C32.6295 31.7227 32.7895 31.2053 32.7895 30.544V28.624L29.8135 32.224C30.1228 32.5013 30.5175 32.64 30.9975 32.64ZM29.2375 30.976L32.1815 27.424C31.8722 27.1467 31.4775 27.008 30.9975 27.008C30.4535 27.008 30.0215 27.1947 29.7015 27.568C29.3922 27.9307 29.2375 28.4427 29.2375 29.104V30.976ZM36.7621 34V25.648H38.8101V27.04H38.8901C39.0608 26.592 39.3275 26.2187 39.6901 25.92C40.0635 25.6107 40.5755 25.456 41.2261 25.456C42.0901 25.456 42.7515 25.7387 43.2101 26.304C43.6688 26.8693 43.8981 27.6747 43.8981 28.72V34H41.8501V28.928C41.8501 28.3307 41.7435 27.8827 41.5301 27.584C41.3168 27.2853 40.9648 27.136 40.4741 27.136C40.2608 27.136 40.0528 27.168 39.8501 27.232C39.6581 27.2853 39.4821 27.3707 39.3221 27.488C39.1728 27.5947 39.0501 27.7333 38.9541 27.904C38.8581 28.064 38.8101 28.256 38.8101 28.48V34H36.7621Z" fill="#1A1A1A"/>
<path d="M16.5 56C16.5 51.8579 19.8579 48.5 24 48.5H168C172.142 48.5 175.5 51.8579 175.5 56V80C175.5 84.1421 172.142 87.5 168 87.5H24C19.8579 87.5 16.5 84.1421 16.5 80V56Z" fill="white"/>
<path d="M16.5 56C16.5 51.8579 19.8579 48.5 24 48.5H168C172.142 48.5 175.5 51.8579 175.5 56V80C175.5 84.1421 172.142 87.5 168 87.5H24C19.8579 87.5 16.5 84.1421 16.5 80V56Z" stroke="#8E8E8E"/>
<path d="M19.424 130H17.312V118.832H22.352C22.864 118.832 23.3227 118.912 23.728 119.072C24.1333 119.232 24.4747 119.467 24.752 119.776C25.04 120.075 25.2587 120.437 25.408 120.864C25.568 121.291 25.648 121.765 25.648 122.288C25.648 123.056 25.472 123.717 25.12 124.272C24.7787 124.827 24.2613 125.221 23.568 125.456L25.856 130H23.504L21.424 125.696H19.424V130ZM22.144 123.92C22.5493 123.92 22.8693 123.813 23.104 123.6C23.3387 123.376 23.456 123.061 23.456 122.656V121.92C23.456 121.515 23.3387 121.205 23.104 120.992C22.8693 120.779 22.5493 120.672 22.144 120.672H19.424V123.92H22.144ZM30.9506 130.192C30.332 130.192 29.7773 130.091 29.2866 129.888C28.8066 129.675 28.396 129.381 28.0546 129.008C27.724 128.624 27.468 128.165 27.2866 127.632C27.1053 127.088 27.0146 126.48 27.0146 125.808C27.0146 125.147 27.1 124.549 27.2706 124.016C27.452 123.483 27.708 123.029 28.0386 122.656C28.3693 122.272 28.7746 121.979 29.2546 121.776C29.7346 121.563 30.2786 121.456 30.8866 121.456C31.5373 121.456 32.1026 121.568 32.5826 121.792C33.0626 122.016 33.4573 122.32 33.7666 122.704C34.076 123.088 34.3053 123.536 34.4546 124.048C34.6146 124.549 34.6946 125.088 34.6946 125.664V126.336H29.1426V126.544C29.1426 127.152 29.3133 127.643 29.6546 128.016C29.996 128.379 30.5026 128.56 31.1746 128.56C31.6866 128.56 32.1026 128.453 32.4226 128.24C32.7533 128.027 33.0466 127.755 33.3026 127.424L34.4066 128.656C34.0653 129.136 33.596 129.515 32.9986 129.792C32.412 130.059 31.7293 130.192 30.9506 130.192ZM30.9186 122.992C30.3746 122.992 29.9426 123.173 29.6226 123.536C29.3026 123.899 29.1426 124.368 29.1426 124.944V125.072H32.5666V124.928C32.5666 124.352 32.4226 123.888 32.1346 123.536C31.8573 123.173 31.452 122.992 30.9186 122.992ZM38.5445 130C37.8405 130 37.3232 129.824 36.9925 129.472C36.6618 129.12 36.4965 128.624 36.4965 127.984V118.16H38.5445V128.368H39.6485V130H38.5445ZM42.2236 120.432C41.797 120.432 41.4876 120.336 41.2956 120.144C41.1143 119.952 41.0236 119.707 41.0236 119.408V119.088C41.0236 118.789 41.1143 118.544 41.2956 118.352C41.4876 118.16 41.797 118.064 42.2236 118.064C42.6396 118.064 42.9436 118.16 43.1356 118.352C43.3276 118.544 43.4236 118.789 43.4236 119.088V119.408C43.4236 119.707 43.3276 119.952 43.1356 120.144C42.9436 120.336 42.6396 120.432 42.2236 120.432ZM41.1996 121.648H43.2476V130H41.1996V121.648ZM53.1575 130.704C53.1575 131.141 53.0775 131.525 52.9175 131.856C52.7682 132.197 52.5175 132.48 52.1655 132.704C51.8135 132.928 51.3602 133.099 50.8055 133.216C50.2508 133.333 49.5735 133.392 48.7735 133.392C48.0695 133.392 47.4722 133.344 46.9815 133.248C46.4908 133.163 46.0855 133.035 45.7655 132.864C45.4562 132.704 45.2322 132.501 45.0935 132.256C44.9548 132.011 44.8855 131.733 44.8855 131.424C44.8855 130.955 45.0135 130.587 45.2695 130.32C45.5362 130.064 45.9042 129.899 46.3735 129.824V129.648C46.0322 129.563 45.7655 129.397 45.5735 129.152C45.3922 128.896 45.3015 128.597 45.3015 128.256C45.3015 128.043 45.3442 127.856 45.4295 127.696C45.5148 127.525 45.6268 127.381 45.7655 127.264C45.9148 127.147 46.0802 127.051 46.2615 126.976C46.4428 126.891 46.6348 126.827 46.8375 126.784V126.72C46.3255 126.485 45.9415 126.16 45.6855 125.744C45.4402 125.328 45.3175 124.843 45.3175 124.288C45.3175 123.435 45.6108 122.752 46.1975 122.24C46.7842 121.717 47.6428 121.456 48.7735 121.456C49.0295 121.456 49.2802 121.472 49.5255 121.504C49.7815 121.536 50.0162 121.589 50.2295 121.664V121.392C50.2295 120.581 50.6242 120.176 51.4135 120.176H52.7095V121.744H50.9335V121.968C51.3708 122.213 51.6962 122.533 51.9095 122.928C52.1228 123.323 52.2295 123.776 52.2295 124.288C52.2295 125.131 51.9362 125.808 51.3495 126.32C50.7735 126.832 49.9148 127.088 48.7735 127.088C48.2828 127.088 47.8562 127.04 47.4935 126.944C47.3335 127.019 47.1948 127.12 47.0775 127.248C46.9602 127.365 46.9015 127.515 46.9015 127.696C46.9015 128.112 47.2642 128.32 47.9895 128.32H50.2295C51.2535 128.32 51.9948 128.533 52.4535 128.96C52.9228 129.376 53.1575 129.957 53.1575 130.704ZM51.2375 130.944C51.2375 130.677 51.1308 130.469 50.9175 130.32C50.7042 130.171 50.3362 130.096 49.8135 130.096H46.9655C46.6775 130.309 46.5335 130.597 46.5335 130.96C46.5335 131.28 46.6668 131.531 46.9335 131.712C47.2002 131.893 47.6535 131.984 48.2935 131.984H49.3175C49.9895 131.984 50.4748 131.899 50.7735 131.728C51.0828 131.557 51.2375 131.296 51.2375 130.944ZM48.7735 125.696C49.7762 125.696 50.2775 125.269 50.2775 124.416V124.144C50.2775 123.291 49.7762 122.864 48.7735 122.864C47.7708 122.864 47.2695 123.291 47.2695 124.144V124.416C47.2695 125.269 47.7708 125.696 48.7735 125.696ZM55.3643 120.432C54.9376 120.432 54.6283 120.336 54.4363 120.144C54.2549 119.952 54.1643 119.707 54.1643 119.408V119.088C54.1643 118.789 54.2549 118.544 54.4363 118.352C54.6283 118.16 54.9376 118.064 55.3643 118.064C55.7803 118.064 56.0843 118.16 56.2763 118.352C56.4683 118.544 56.5643 118.789 56.5643 119.088V119.408C56.5643 119.707 56.4683 119.952 56.2763 120.144C56.0843 120.336 55.7803 120.432 55.3643 120.432ZM54.3403 121.648H56.3883V130H54.3403V121.648ZM62.0741 130.192C61.4768 130.192 60.9381 130.091 60.4581 129.888C59.9888 129.685 59.5835 129.392 59.2421 129.008C58.9115 128.624 58.6555 128.165 58.4741 127.632C58.2928 127.088 58.2021 126.48 58.2021 125.808C58.2021 125.136 58.2928 124.533 58.4741 124C58.6555 123.467 58.9115 123.013 59.2421 122.64C59.5835 122.256 59.9888 121.963 60.4581 121.76C60.9381 121.557 61.4768 121.456 62.0741 121.456C62.6715 121.456 63.2101 121.557 63.6901 121.76C64.1701 121.963 64.5755 122.256 64.9061 122.64C65.2475 123.013 65.5088 123.467 65.6901 124C65.8715 124.533 65.9621 125.136 65.9621 125.808C65.9621 126.48 65.8715 127.088 65.6901 127.632C65.5088 128.165 65.2475 128.624 64.9061 129.008C64.5755 129.392 64.1701 129.685 63.6901 129.888C63.2101 130.091 62.6715 130.192 62.0741 130.192ZM62.0741 128.544C62.6181 128.544 63.0448 128.379 63.3541 128.048C63.6635 127.717 63.8181 127.232 63.8181 126.592V125.04C63.8181 124.411 63.6635 123.931 63.3541 123.6C63.0448 123.269 62.6181 123.104 62.0741 123.104C61.5408 123.104 61.1195 123.269 60.8101 123.6C60.5008 123.931 60.3461 124.411 60.3461 125.04V126.592C60.3461 127.232 60.5008 127.717 60.8101 128.048C61.1195 128.379 61.5408 128.544 62.0741 128.544ZM67.7778 130V121.648H69.8258V123.04H69.9058C70.0764 122.592 70.3431 122.219 70.7057 121.92C71.0791 121.611 71.5911 121.456 72.2418 121.456C73.1058 121.456 73.7671 121.739 74.2258 122.304C74.6844 122.869 74.9138 123.675 74.9138 124.72V130H72.8658V124.928C72.8658 124.331 72.7591 123.883 72.5458 123.584C72.3324 123.285 71.9804 123.136 71.4898 123.136C71.2764 123.136 71.0684 123.168 70.8658 123.232C70.6738 123.285 70.4978 123.371 70.3378 123.488C70.1884 123.595 70.0658 123.733 69.9698 123.904C69.8738 124.064 69.8258 124.256 69.8258 124.48V130H67.7778Z" fill="#1A1A1A"/>
<path d="M16.5 152C16.5 147.858 19.8579 144.5 24 144.5H328C332.142 144.5 335.5 147.858 335.5 152V176C335.5 180.142 332.142 183.5 328 183.5H24C19.8579 183.5 16.5 180.142 16.5 176V152Z" fill="white"/>
<path d="M16.5 152C16.5 147.858 19.8579 144.5 24 144.5H328C332.142 144.5 335.5 147.858 335.5 152V176C335.5 180.142 332.142 183.5 328 183.5H24C19.8579 183.5 16.5 180.142 16.5 176V152Z" stroke="#8E8E8E"/>
<path d="M19.312 214.832V221.696C19.312 222.571 19.4773 223.227 19.808 223.664C20.1493 224.101 20.72 224.32 21.52 224.32C22.32 224.32 22.8853 224.101 23.216 223.664C23.5573 223.227 23.728 222.571 23.728 221.696V214.832H25.808V221.424C25.808 222.245 25.728 222.955 25.568 223.552C25.4187 224.149 25.1733 224.645 24.832 225.04C24.4907 225.435 24.0427 225.728 23.488 225.92C22.944 226.101 22.2827 226.192 21.504 226.192C20.7147 226.192 20.048 226.101 19.504 225.92C18.9707 225.728 18.5333 225.435 18.192 225.04C17.8507 224.645 17.6053 224.149 17.456 223.552C17.3067 222.955 17.232 222.245 17.232 221.424V214.832H19.312ZM33.4149 224.608H33.3349C33.1855 225.088 32.9029 225.472 32.4869 225.76C32.0709 226.048 31.5855 226.192 31.0309 226.192C29.9749 226.192 29.1642 225.813 28.5989 225.056C28.0442 224.299 27.7669 223.216 27.7669 221.808C27.7669 220.411 28.0442 219.339 28.5989 218.592C29.1642 217.835 29.9749 217.456 31.0309 217.456C31.5855 217.456 32.0709 217.6 32.4869 217.888C32.9029 218.165 33.1855 218.544 33.3349 219.024H33.4149V214.16H35.4629V226H33.4149V224.608ZM31.6869 224.496C32.1775 224.496 32.5882 224.379 32.9189 224.144C33.2495 223.909 33.4149 223.573 33.4149 223.136V220.48C33.4149 220.075 33.2495 219.749 32.9189 219.504C32.5882 219.259 32.1775 219.136 31.6869 219.136C31.1535 219.136 30.7215 219.317 30.3909 219.68C30.0709 220.032 29.9109 220.507 29.9109 221.104V222.544C29.9109 223.141 30.0709 223.616 30.3909 223.968C30.7215 224.32 31.1535 224.496 31.6869 224.496ZM43.0086 224.608H42.9286C42.7793 225.088 42.4966 225.472 42.0806 225.76C41.6646 226.048 41.1793 226.192 40.6246 226.192C39.5686 226.192 38.758 225.813 38.1926 225.056C37.638 224.299 37.3606 223.216 37.3606 221.808C37.3606 220.411 37.638 219.339 38.1926 218.592C38.758 217.835 39.5686 217.456 40.6246 217.456C41.1793 217.456 41.6646 217.6 42.0806 217.888C42.4966 218.165 42.7793 218.544 42.9286 219.024H43.0086V214.16H45.0566V226H43.0086V224.608ZM41.2806 224.496C41.7713 224.496 42.182 224.379 42.5126 224.144C42.8433 223.909 43.0086 223.573 43.0086 223.136V220.48C43.0086 220.075 42.8433 219.749 42.5126 219.504C42.182 219.259 41.7713 219.136 41.2806 219.136C40.7473 219.136 40.3153 219.317 39.9846 219.68C39.6646 220.032 39.5046 220.507 39.5046 221.104V222.544C39.5046 223.141 39.6646 223.616 39.9846 223.968C40.3153 224.32 40.7473 224.496 41.2806 224.496ZM53.5624 226C53.1144 226 52.757 225.872 52.4904 225.616C52.2344 225.349 52.0744 224.997 52.0104 224.56H51.9144C51.7757 225.104 51.493 225.515 51.0664 225.792C50.6397 226.059 50.1117 226.192 49.4824 226.192C48.629 226.192 47.973 225.968 47.5144 225.52C47.0557 225.072 46.8264 224.475 46.8264 223.728C46.8264 222.864 47.1357 222.224 47.7544 221.808C48.373 221.381 49.253 221.168 50.3944 221.168H51.8184V220.56C51.8184 220.091 51.6957 219.728 51.4504 219.472C51.205 219.216 50.8104 219.088 50.2664 219.088C49.7864 219.088 49.397 219.195 49.0984 219.408C48.8104 219.611 48.565 219.856 48.3624 220.144L47.1464 219.056C47.4557 218.576 47.8664 218.192 48.3784 217.904C48.8904 217.605 49.5677 217.456 50.4104 217.456C51.541 217.456 52.3997 217.712 52.9864 218.224C53.573 218.736 53.8664 219.472 53.8664 220.432V224.368H54.6984V226H53.5624ZM50.1704 224.704C50.629 224.704 51.0184 224.603 51.3384 224.4C51.6584 224.197 51.8184 223.899 51.8184 223.504V222.4H50.5064C49.4397 222.4 48.9064 222.741 48.9064 223.424V223.696C48.9064 224.037 49.013 224.293 49.2264 224.464C49.4504 224.624 49.765 224.704 50.1704 224.704ZM56.3559 226V217.648H58.4039V219.04H58.4839C58.6545 218.592 58.9212 218.219 59.2839 217.92C59.6572 217.611 60.1692 217.456 60.8199 217.456C61.6839 217.456 62.3452 217.739 62.8039 218.304C63.2625 218.869 63.4919 219.675 63.4919 220.72V226H61.4439V220.928C61.4439 220.331 61.3372 219.883 61.1239 219.584C60.9105 219.285 60.5585 219.136 60.0679 219.136C59.8545 219.136 59.6465 219.168 59.4439 219.232C59.2519 219.285 59.0759 219.371 58.9159 219.488C58.7665 219.595 58.6439 219.733 58.5479 219.904C58.4519 220.064 58.4039 220.256 58.4039 220.48V226H56.3559ZM65.7621 226V217.648H67.8101V219.04H67.8901C68.0608 218.592 68.3275 218.219 68.6901 217.92C69.0635 217.611 69.5755 217.456 70.2261 217.456C71.0901 217.456 71.7515 217.739 72.2101 218.304C72.6688 218.869 72.8981 219.675 72.8981 220.72V226H70.8501V220.928C70.8501 220.331 70.7435 219.883 70.5301 219.584C70.3168 219.285 69.9648 219.136 69.4741 219.136C69.2608 219.136 69.0528 219.168 68.8501 219.232C68.6581 219.285 68.4821 219.371 68.3221 219.488C68.1728 219.595 68.0501 219.733 67.9541 219.904C67.8581 220.064 67.8101 220.256 67.8101 220.48V226H65.7621ZM78.5444 226.192C77.9257 226.192 77.371 226.091 76.8804 225.888C76.4004 225.675 75.9897 225.381 75.6484 225.008C75.3177 224.624 75.0617 224.165 74.8804 223.632C74.699 223.088 74.6084 222.48 74.6084 221.808C74.6084 221.147 74.6937 220.549 74.8644 220.016C75.0457 219.483 75.3017 219.029 75.6324 218.656C75.963 218.272 76.3684 217.979 76.8484 217.776C77.3284 217.563 77.8724 217.456 78.4804 217.456C79.131 217.456 79.6964 217.568 80.1764 217.792C80.6564 218.016 81.051 218.32 81.3604 218.704C81.6697 219.088 81.899 219.536 82.0484 220.048C82.2084 220.549 82.2884 221.088 82.2884 221.664V222.336H76.7364V222.544C76.7364 223.152 76.907 223.643 77.2484 224.016C77.5897 224.379 78.0964 224.56 78.7684 224.56C79.2804 224.56 79.6964 224.453 80.0164 224.24C80.347 224.027 80.6404 223.755 80.8964 223.424L82.0004 224.656C81.659 225.136 81.1897 225.515 80.5924 225.792C80.0057 226.059 79.323 226.192 78.5444 226.192ZM78.5124 218.992C77.9684 218.992 77.5364 219.173 77.2164 219.536C76.8964 219.899 76.7364 220.368 76.7364 220.944V221.072H80.1604V220.928C80.1604 220.352 80.0164 219.888 79.7284 219.536C79.451 219.173 79.0457 218.992 78.5124 218.992ZM86.1383 226C85.4343 226 84.9169 225.824 84.5863 225.472C84.2556 225.12 84.0903 224.624 84.0903 223.984V214.16H86.1383V224.368H87.2423V226H86.1383ZM91.5294 226.192C90.7294 226.192 90.0574 226.059 89.5134 225.792C88.9694 225.515 88.4894 225.136 88.0734 224.656L89.3214 223.44C89.6307 223.792 89.9667 224.069 90.3294 224.272C90.7027 224.475 91.1294 224.576 91.6094 224.576C92.1 224.576 92.452 224.491 92.6654 224.32C92.8894 224.149 93.0014 223.915 93.0014 223.616C93.0014 223.371 92.9214 223.179 92.7614 223.04C92.612 222.891 92.3507 222.789 91.9774 222.736L91.1454 222.624C90.2387 222.507 89.5454 222.251 89.0654 221.856C88.596 221.451 88.3614 220.864 88.3614 220.096C88.3614 219.691 88.436 219.328 88.5854 219.008C88.7347 218.677 88.948 218.4 89.2254 218.176C89.5027 217.941 89.8334 217.765 90.2174 217.648C90.612 217.52 91.0494 217.456 91.5294 217.456C91.9347 217.456 92.292 217.488 92.6014 217.552C92.9214 217.605 93.2094 217.691 93.4654 217.808C93.7214 217.915 93.956 218.053 94.1694 218.224C94.3827 218.384 94.5907 218.565 94.7934 218.768L93.5934 219.968C93.348 219.712 93.0547 219.499 92.7134 219.328C92.372 219.157 91.9987 219.072 91.5934 219.072C91.1454 219.072 90.82 219.152 90.6174 219.312C90.4254 219.472 90.3294 219.68 90.3294 219.936C90.3294 220.213 90.4094 220.427 90.5694 220.576C90.74 220.715 91.0227 220.816 91.4174 220.88L92.2654 220.992C94.068 221.248 94.9694 222.069 94.9694 223.456C94.9694 223.861 94.884 224.235 94.7134 224.576C94.5534 224.907 94.324 225.195 94.0254 225.44C93.7267 225.675 93.364 225.861 92.9374 226C92.5214 226.128 92.052 226.192 91.5294 226.192ZM100.154 226.192C99.5351 226.192 98.9804 226.091 98.4898 225.888C98.0098 225.675 97.5991 225.381 97.2578 225.008C96.9271 224.624 96.6711 224.165 96.4898 223.632C96.3084 223.088 96.2178 222.48 96.2178 221.808C96.2178 221.147 96.3031 220.549 96.4738 220.016C96.6551 219.483 96.9111 219.029 97.2418 218.656C97.5724 218.272 97.9778 217.979 98.4578 217.776C98.9378 217.563 99.4818 217.456 100.09 217.456C100.74 217.456 101.306 217.568 101.786 217.792C102.266 218.016 102.66 218.32 102.97 218.704C103.279 219.088 103.508 219.536 103.658 220.048C103.818 220.549 103.898 221.088 103.898 221.664V222.336H98.3458V222.544C98.3458 223.152 98.5164 223.643 98.8578 224.016C99.1991 224.379 99.7058 224.56 100.378 224.56C100.89 224.56 101.306 224.453 101.626 224.24C101.956 224.027 102.25 223.755 102.506 223.424L103.61 224.656C103.268 225.136 102.799 225.515 102.202 225.792C101.615 226.059 100.932 226.192 100.154 226.192ZM100.122 218.992C99.5778 218.992 99.1458 219.173 98.8258 219.536C98.5058 219.899 98.3458 220.368 98.3458 220.944V221.072H101.77V220.928C101.77 220.352 101.626 219.888 101.338 219.536C101.06 219.173 100.655 218.992 100.122 218.992ZM108.436 226.192C107.636 226.192 106.964 226.059 106.42 225.792C105.876 225.515 105.396 225.136 104.98 224.656L106.228 223.44C106.537 223.792 106.873 224.069 107.236 224.272C107.609 224.475 108.036 224.576 108.516 224.576C109.006 224.576 109.358 224.491 109.572 224.32C109.796 224.149 109.908 223.915 109.908 223.616C109.908 223.371 109.828 223.179 109.668 223.04C109.518 222.891 109.257 222.789 108.884 222.736L108.052 222.624C107.145 222.507 106.452 222.251 105.972 221.856C105.502 221.451 105.268 220.864 105.268 220.096C105.268 219.691 105.342 219.328 105.492 219.008C105.641 218.677 105.854 218.4 106.132 218.176C106.409 217.941 106.74 217.765 107.124 217.648C107.518 217.52 107.956 217.456 108.436 217.456C108.841 217.456 109.198 217.488 109.508 217.552C109.828 217.605 110.116 217.691 110.372 217.808C110.628 217.915 110.862 218.053 111.076 218.224C111.289 218.384 111.497 218.565 111.7 218.768L110.5 219.968C110.254 219.712 109.961 219.499 109.62 219.328C109.278 219.157 108.905 219.072 108.5 219.072C108.052 219.072 107.726 219.152 107.524 219.312C107.332 219.472 107.236 219.68 107.236 219.936C107.236 220.213 107.316 220.427 107.476 220.576C107.646 220.715 107.929 220.816 108.324 220.88L109.172 220.992C110.974 221.248 111.876 222.069 111.876 223.456C111.876 223.861 111.79 224.235 111.62 224.576C111.46 224.907 111.23 225.195 110.932 225.44C110.633 225.675 110.27 225.861 109.844 226C109.428 226.128 108.958 226.192 108.436 226.192ZM113.684 226V217.648H115.732V219.04H115.812C115.983 218.592 116.249 218.219 116.612 217.92C116.985 217.611 117.497 217.456 118.148 217.456C119.012 217.456 119.673 217.739 120.132 218.304C120.591 218.869 120.82 219.675 120.82 220.72V226H118.772V220.928C118.772 220.331 118.665 219.883 118.452 219.584C118.239 219.285 117.887 219.136 117.396 219.136C117.183 219.136 116.975 219.168 116.772 219.232C116.58 219.285 116.404 219.371 116.244 219.488C116.095 219.595 115.972 219.733 115.876 219.904C115.78 220.064 115.732 220.256 115.732 220.48V226H113.684ZM124.114 216.432C123.688 216.432 123.378 216.336 123.186 216.144C123.005 215.952 122.914 215.707 122.914 215.408V215.088C122.914 214.789 123.005 214.544 123.186 214.352C123.378 214.16 123.688 214.064 124.114 214.064C124.53 214.064 124.834 214.16 125.026 214.352C125.218 214.544 125.314 214.789 125.314 215.088V215.408C125.314 215.707 125.218 215.952 125.026 216.144C124.834 216.336 124.53 216.432 124.114 216.432ZM123.09 217.648H125.138V226H123.09V217.648ZM129.304 226L126.52 217.648H128.536L129.704 221.248L130.52 224.224H130.632L131.448 221.248L132.584 217.648H134.536L131.736 226H129.304ZM139.154 226.192C138.535 226.192 137.98 226.091 137.49 225.888C137.01 225.675 136.599 225.381 136.258 225.008C135.927 224.624 135.671 224.165 135.49 223.632C135.308 223.088 135.218 222.48 135.218 221.808C135.218 221.147 135.303 220.549 135.474 220.016C135.655 219.483 135.911 219.029 136.242 218.656C136.572 218.272 136.978 217.979 137.458 217.776C137.938 217.563 138.482 217.456 139.09 217.456C139.74 217.456 140.306 217.568 140.786 217.792C141.266 218.016 141.66 218.32 141.97 218.704C142.279 219.088 142.508 219.536 142.658 220.048C142.818 220.549 142.898 221.088 142.898 221.664V222.336H137.346V222.544C137.346 223.152 137.516 223.643 137.858 224.016C138.199 224.379 138.706 224.56 139.378 224.56C139.89 224.56 140.306 224.453 140.626 224.24C140.956 224.027 141.25 223.755 141.506 223.424L142.61 224.656C142.268 225.136 141.799 225.515 141.202 225.792C140.615 226.059 139.932 226.192 139.154 226.192ZM139.122 218.992C138.578 218.992 138.146 219.173 137.826 219.536C137.506 219.899 137.346 220.368 137.346 220.944V221.072H140.77V220.928C140.77 220.352 140.626 219.888 140.338 219.536C140.06 219.173 139.655 218.992 139.122 218.992ZM150.844 226C150.396 226 150.038 225.872 149.772 225.616C149.516 225.349 149.356 224.997 149.292 224.56H149.196C149.057 225.104 148.774 225.515 148.348 225.792C147.921 226.059 147.393 226.192 146.764 226.192C145.91 226.192 145.254 225.968 144.796 225.52C144.337 225.072 144.108 224.475 144.108 223.728C144.108 222.864 144.417 222.224 145.036 221.808C145.654 221.381 146.534 221.168 147.676 221.168H149.1V220.56C149.1 220.091 148.977 219.728 148.732 219.472C148.486 219.216 148.092 219.088 147.548 219.088C147.068 219.088 146.678 219.195 146.38 219.408C146.092 219.611 145.846 219.856 145.644 220.144L144.428 219.056C144.737 218.576 145.148 218.192 145.66 217.904C146.172 217.605 146.849 217.456 147.692 217.456C148.822 217.456 149.681 217.712 150.268 218.224C150.854 218.736 151.148 219.472 151.148 220.432V224.368H151.98V226H150.844ZM147.452 224.704C147.91 224.704 148.3 224.603 148.62 224.4C148.94 224.197 149.1 223.899 149.1 223.504V222.4H147.788C146.721 222.4 146.188 222.741 146.188 223.424V223.696C146.188 224.037 146.294 224.293 146.508 224.464C146.732 224.624 147.046 224.704 147.452 224.704ZM158.629 224.608H158.549C158.474 224.821 158.373 225.024 158.245 225.216C158.128 225.397 157.973 225.563 157.781 225.712C157.6 225.861 157.376 225.979 157.109 226.064C156.853 226.149 156.554 226.192 156.213 226.192C155.349 226.192 154.688 225.909 154.229 225.344C153.77 224.779 153.541 223.973 153.541 222.928V217.648H155.589V222.72C155.589 223.296 155.701 223.739 155.925 224.048C156.149 224.347 156.506 224.496 156.997 224.496C157.2 224.496 157.397 224.469 157.589 224.416C157.792 224.363 157.968 224.283 158.117 224.176C158.266 224.059 158.389 223.92 158.485 223.76C158.581 223.589 158.629 223.392 158.629 223.168V217.648H160.677V226H158.629V224.608Z" fill="#1A1A1A"/>
<path d="M16.5 248C16.5 243.858 19.8579 240.5 24 240.5H328C332.142 240.5 335.5 243.858 335.5 248V272C335.5 276.142 332.142 279.5 328 279.5H24C19.8579 279.5 16.5 276.142 16.5 272V248Z" fill="white"/>
<path d="M16.5 248C16.5 243.858 19.8579 240.5 24 240.5H328C332.142 240.5 335.5 243.858 335.5 248V272C335.5 276.142 332.142 279.5 328 279.5H24C19.8579 279.5 16.5 276.142 16.5 272V248Z" stroke="#8E8E8E"/>
</svg>
