<svg width="418" height="228" viewBox="0 0 418 228" fill="none" xmlns="http://www.w3.org/2000/svg">
<rect width="418" height="228" fill="white"/>
<path d="M17.312 34V22.832H24.496V24.704H19.424V27.408H23.84V29.28H19.424V34H17.312ZM29.246 34.192C28.6487 34.192 28.11 34.0907 27.63 33.888C27.1607 33.6853 26.7553 33.392 26.414 33.008C26.0833 32.624 25.8273 32.1653 25.646 31.632C25.4647 31.088 25.374 30.48 25.374 29.808C25.374 29.136 25.4647 28.5333 25.646 28C25.8273 27.4667 26.0833 27.0133 26.414 26.64C26.7553 26.256 27.1607 25.9627 27.63 25.76C28.11 25.5573 28.6487 25.456 29.246 25.456C29.8433 25.456 30.382 25.5573 30.862 25.76C31.342 25.9627 31.7473 26.256 32.078 26.64C32.4193 27.0133 32.6807 27.4667 32.862 28C33.0433 28.5333 33.134 29.136 33.134 29.808C33.134 30.48 33.0433 31.088 32.862 31.632C32.6807 32.1653 32.4193 32.624 32.078 33.008C31.7473 33.392 31.342 33.6853 30.862 33.888C30.382 34.0907 29.8433 34.192 29.246 34.192ZM29.246 32.544C29.79 32.544 30.2167 32.3787 30.526 32.048C30.8353 31.7173 30.99 31.232 30.99 30.592V29.04C30.99 28.4107 30.8353 27.9307 30.526 27.6C30.2167 27.2693 29.79 27.104 29.246 27.104C28.7127 27.104 28.2913 27.2693 27.982 27.6C27.6727 27.9307 27.518 28.4107 27.518 29.04V30.592C27.518 31.232 27.6727 31.7173 27.982 32.048C28.2913 32.3787 28.7127 32.544 29.246 32.544ZM34.9496 34V25.648H36.9976V27.376H37.0776C37.131 27.152 37.211 26.9387 37.3176 26.736C37.435 26.5227 37.5843 26.336 37.7656 26.176C37.947 26.016 38.1603 25.888 38.4056 25.792C38.6616 25.696 38.955 25.648 39.2856 25.648H39.7336V27.584H39.0936C38.4003 27.584 37.8776 27.6853 37.5256 27.888C37.1736 28.0907 36.9976 28.4213 36.9976 28.88V34H34.9496ZM41.2309 34V25.648H43.2789V27.04H43.3589C43.5295 26.592 43.7962 26.2187 44.1589 25.92C44.5322 25.6107 45.0442 25.456 45.6949 25.456C46.5589 25.456 47.2202 25.7387 47.6789 26.304C48.1375 26.8693 48.3669 27.6747 48.3669 28.72V34H46.3189V28.928C46.3189 28.3307 46.2122 27.8827 45.9989 27.584C45.7855 27.2853 45.4335 27.136 44.9429 27.136C44.7295 27.136 44.5215 27.168 44.3189 27.232C44.1269 27.2853 43.9509 27.3707 43.7909 27.488C43.6415 27.5947 43.5189 27.7333 43.4229 27.904C43.3269 28.064 43.2789 28.256 43.2789 28.48V34H41.2309ZM56.7811 34C56.3331 34 55.9758 33.872 55.7091 33.616C55.4531 33.3493 55.2931 32.9973 55.2291 32.56H55.1331C54.9945 33.104 54.7118 33.5147 54.2851 33.792C53.8585 34.0587 53.3305 34.192 52.7011 34.192C51.8478 34.192 51.1918 33.968 50.7331 33.52C50.2745 33.072 50.0451 32.4747 50.0451 31.728C50.0451 30.864 50.3545 30.224 50.9731 29.808C51.5918 29.3813 52.4718 29.168 53.6131 29.168H55.0371V28.56C55.0371 28.0907 54.9145 27.728 54.6691 27.472C54.4238 27.216 54.0291 27.088 53.4851 27.088C53.0051 27.088 52.6158 27.1947 52.3171 27.408C52.0291 27.6107 51.7838 27.856 51.5811 28.144L50.3651 27.056C50.6745 26.576 51.0851 26.192 51.5971 25.904C52.1091 25.6053 52.7865 25.456 53.6291 25.456C54.7598 25.456 55.6185 25.712 56.2051 26.224C56.7918 26.736 57.0851 27.472 57.0851 28.432V32.368H57.9171V34H56.7811ZM53.3891 32.704C53.8478 32.704 54.2371 32.6027 54.5571 32.4C54.8771 32.1973 55.0371 31.8987 55.0371 31.504V30.4H53.7251C52.6585 30.4 52.1251 30.7413 52.1251 31.424V31.696C52.1251 32.0373 52.2318 32.2933 52.4451 32.464C52.6691 32.624 52.9838 32.704 53.3891 32.704ZM61.226 34L58.442 25.648H60.458L61.626 29.248L62.442 32.224H62.554L63.37 29.248L64.506 25.648H66.458L63.658 34H61.226ZM67.8246 34V25.648H69.8726V27.04H69.9526C70.1233 26.592 70.39 26.2187 70.7526 25.92C71.126 25.6107 71.638 25.456 72.2886 25.456C73.1526 25.456 73.814 25.7387 74.2726 26.304C74.7313 26.8693 74.9606 27.6747 74.9606 28.72V34H72.9126V28.928C72.9126 28.3307 72.806 27.8827 72.5926 27.584C72.3793 27.2853 72.0273 27.136 71.5366 27.136C71.3233 27.136 71.1153 27.168 70.9126 27.232C70.7206 27.2853 70.5446 27.3707 70.3846 27.488C70.2353 27.5947 70.1126 27.7333 70.0166 27.904C69.9206 28.064 69.8726 28.256 69.8726 28.48V34H67.8246Z" fill="#1A1A1A"/>
<path d="M20.624 58.192C19.7173 58.192 18.944 58.0213 18.304 57.68C17.664 57.328 17.12 56.848 16.672 56.24L17.664 55.408C18.0587 55.9307 18.496 56.3307 18.976 56.608C19.456 56.8747 20.0213 57.008 20.672 57.008C21.472 57.008 22.08 56.816 22.496 56.432C22.9227 56.048 23.136 55.536 23.136 54.896C23.136 54.3627 22.976 53.952 22.656 53.664C22.336 53.376 21.808 53.1467 21.072 52.976L20.16 52.768C19.136 52.5333 18.352 52.1813 17.808 51.712C17.2747 51.232 17.008 50.56 17.008 49.696C17.008 49.2053 17.0987 48.768 17.28 48.384C17.4613 48 17.712 47.68 18.032 47.424C18.3627 47.168 18.752 46.976 19.2 46.848C19.6587 46.7093 20.16 46.64 20.704 46.64C21.5467 46.64 22.2667 46.7947 22.864 47.104C23.472 47.4133 23.984 47.8667 24.4 48.464L23.392 49.2C23.0827 48.7733 22.7093 48.4373 22.272 48.192C21.8347 47.9467 21.2907 47.824 20.64 47.824C19.9253 47.824 19.36 47.9787 18.944 48.288C18.5387 48.5867 18.336 49.04 18.336 49.648C18.336 50.1813 18.5067 50.5867 18.848 50.864C19.2 51.1307 19.728 51.344 20.432 51.504L21.344 51.712C22.4427 51.9573 23.2373 52.3307 23.728 52.832C24.2187 53.3333 24.464 54 24.464 54.832C24.464 55.344 24.3733 55.808 24.192 56.224C24.0213 56.64 23.7707 56.992 23.44 57.28C23.1093 57.568 22.704 57.792 22.224 57.952C21.7547 58.112 21.2213 58.192 20.624 58.192ZM26.6569 46.16H27.9369V53.664H28.0009L29.2649 52.256L31.6009 49.744H33.1529L30.0969 53.008L33.4569 58H31.9049L29.1689 53.792L27.9369 55.056V58H26.6569V46.16ZM35.0944 58V49.744H36.3744V51.264H36.4544C36.6037 50.8693 36.8704 50.5173 37.2544 50.208C37.6384 49.8987 38.1664 49.744 38.8384 49.744H39.3344V51.024H38.5824C37.889 51.024 37.345 51.1573 36.9504 51.424C36.5664 51.68 36.3744 52.0053 36.3744 52.4V58H35.0944ZM41.6094 47.808C41.332 47.808 41.1294 47.744 41.0014 47.616C40.884 47.4773 40.8254 47.3013 40.8254 47.088V46.88C40.8254 46.6667 40.884 46.496 41.0014 46.368C41.1294 46.2293 41.332 46.16 41.6094 46.16C41.8867 46.16 42.084 46.2293 42.2014 46.368C42.3294 46.496 42.3934 46.6667 42.3934 46.88V47.088C42.3934 47.3013 42.3294 47.4773 42.2014 47.616C42.084 47.744 41.8867 47.808 41.6094 47.808ZM40.9694 49.744H42.2494V58H40.9694V49.744ZM46.7934 58L43.8974 49.744H45.1774L46.6174 53.84L47.5134 56.656H47.5934L48.4894 53.84L49.9614 49.744H51.1934L48.2814 58H46.7934ZM57.0736 50.864H55.7296V49.744H57.0736V48.08C57.0736 47.504 57.223 47.04 57.5216 46.688C57.8203 46.336 58.2736 46.16 58.8816 46.16H60.1296V47.28H58.3536V49.744H60.1296V50.864H58.3536V58H57.0736V50.864ZM64.8706 58.192C64.316 58.192 63.8093 58.0907 63.3506 57.888C62.892 57.6853 62.4973 57.3973 62.1666 57.024C61.8466 56.64 61.596 56.1867 61.4146 55.664C61.2333 55.1307 61.1426 54.5333 61.1426 53.872C61.1426 53.2213 61.2333 52.6293 61.4146 52.096C61.596 51.5627 61.8466 51.1093 62.1666 50.736C62.4973 50.352 62.892 50.0587 63.3506 49.856C63.8093 49.6533 64.316 49.552 64.8706 49.552C65.4253 49.552 65.9266 49.6533 66.3746 49.856C66.8333 50.0587 67.228 50.352 67.5586 50.736C67.8893 51.1093 68.1453 51.5627 68.3266 52.096C68.508 52.6293 68.5986 53.2213 68.5986 53.872C68.5986 54.5333 68.508 55.1307 68.3266 55.664C68.1453 56.1867 67.8893 56.64 67.5586 57.024C67.228 57.3973 66.8333 57.6853 66.3746 57.888C65.9266 58.0907 65.4253 58.192 64.8706 58.192ZM64.8706 57.056C65.564 57.056 66.1293 56.8427 66.5666 56.416C67.004 55.9893 67.2226 55.3387 67.2226 54.464V53.28C67.2226 52.4053 67.004 51.7547 66.5666 51.328C66.1293 50.9013 65.564 50.688 64.8706 50.688C64.1773 50.688 63.612 50.9013 63.1746 51.328C62.7373 51.7547 62.5186 52.4053 62.5186 53.28V54.464C62.5186 55.3387 62.7373 55.9893 63.1746 56.416C63.612 56.8427 64.1773 57.056 64.8706 57.056ZM70.7038 58V49.744H71.9838V51.264H72.0638C72.2131 50.8693 72.4798 50.5173 72.8638 50.208C73.2478 49.8987 73.7758 49.744 74.4478 49.744H74.9438V51.024H74.1918C73.4984 51.024 72.9544 51.1573 72.5598 51.424C72.1758 51.68 71.9838 52.0053 71.9838 52.4V58H70.7038ZM76.5788 58V49.744H77.8588V51.088H77.9228C78.1254 50.6187 78.4081 50.2453 78.7708 49.968C79.1441 49.6907 79.6401 49.552 80.2588 49.552C81.1121 49.552 81.7841 49.8293 82.2748 50.384C82.7761 50.928 83.0268 51.7013 83.0268 52.704V58H81.7468V52.928C81.7468 51.4453 81.1228 50.704 79.8748 50.704C79.6188 50.704 79.3681 50.736 79.1228 50.8C78.8881 50.864 78.6748 50.96 78.4828 51.088C78.2908 51.216 78.1361 51.3813 78.0188 51.584C77.9121 51.776 77.8588 52.0053 77.8588 52.272V58H76.5788ZM91.6725 58C91.1925 58 90.8458 57.872 90.6325 57.616C90.4298 57.36 90.3018 57.04 90.2485 56.656H90.1685C89.9872 57.168 89.6885 57.552 89.2725 57.808C88.8565 58.064 88.3605 58.192 87.7845 58.192C86.9098 58.192 86.2272 57.968 85.7365 57.52C85.2565 57.072 85.0165 56.464 85.0165 55.696C85.0165 54.9173 85.2992 54.32 85.8645 53.904C86.4405 53.488 87.3312 53.28 88.5365 53.28H90.1685V52.464C90.1685 51.8773 90.0085 51.4293 89.6885 51.12C89.3685 50.8107 88.8778 50.656 88.2165 50.656C87.7152 50.656 87.2938 50.768 86.9525 50.992C86.6218 51.216 86.3445 51.5147 86.1205 51.888L85.3525 51.168C85.5765 50.72 85.9338 50.3413 86.4245 50.032C86.9152 49.712 87.5338 49.552 88.2805 49.552C89.2832 49.552 90.0618 49.7973 90.6165 50.288C91.1712 50.7787 91.4485 51.4613 91.4485 52.336V56.88H92.3925V58H91.6725ZM87.9925 57.104C88.3125 57.104 88.6058 57.0667 88.8725 56.992C89.1392 56.9173 89.3685 56.8107 89.5605 56.672C89.7525 56.5333 89.9018 56.3733 90.0085 56.192C90.1152 56.0107 90.1685 55.8133 90.1685 55.6V54.24H88.4725C87.7365 54.24 87.1978 54.3467 86.8565 54.56C86.5258 54.7733 86.3605 55.0827 86.3605 55.488V55.824C86.3605 56.2293 86.5045 56.544 86.7925 56.768C87.0912 56.992 87.4912 57.104 87.9925 57.104ZM95.9184 58L93.0224 49.744H94.3024L95.7424 53.84L96.6384 56.656H96.7184L97.6144 53.84L99.0864 49.744H100.318L97.4064 58H95.9184ZM101.969 58V49.744H103.249V51.088H103.313C103.516 50.6187 103.799 50.2453 104.161 49.968C104.535 49.6907 105.031 49.552 105.649 49.552C106.503 49.552 107.175 49.8293 107.665 50.384C108.167 50.928 108.417 51.7013 108.417 52.704V58H107.137V52.928C107.137 51.4453 106.513 50.704 105.265 50.704C105.009 50.704 104.759 50.736 104.513 50.8C104.279 50.864 104.065 50.96 103.873 51.088C103.681 51.216 103.527 51.3813 103.409 51.584C103.303 51.776 103.249 52.0053 103.249 52.272V58H101.969ZM117.964 58.192C117.41 58.192 116.903 58.0907 116.444 57.888C115.986 57.6853 115.591 57.3973 115.26 57.024C114.94 56.64 114.69 56.1867 114.508 55.664C114.327 55.1307 114.236 54.5333 114.236 53.872C114.236 53.2213 114.327 52.6293 114.508 52.096C114.69 51.5627 114.94 51.1093 115.26 50.736C115.591 50.352 115.986 50.0587 116.444 49.856C116.903 49.6533 117.41 49.552 117.964 49.552C118.519 49.552 119.02 49.6533 119.468 49.856C119.927 50.0587 120.322 50.352 120.652 50.736C120.983 51.1093 121.239 51.5627 121.42 52.096C121.602 52.6293 121.692 53.2213 121.692 53.872C121.692 54.5333 121.602 55.1307 121.42 55.664C121.239 56.1867 120.983 56.64 120.652 57.024C120.322 57.3973 119.927 57.6853 119.468 57.888C119.02 58.0907 118.519 58.192 117.964 58.192ZM117.964 57.056C118.658 57.056 119.223 56.8427 119.66 56.416C120.098 55.9893 120.316 55.3387 120.316 54.464V53.28C120.316 52.4053 120.098 51.7547 119.66 51.328C119.223 50.9013 118.658 50.688 117.964 50.688C117.271 50.688 116.706 50.9013 116.268 51.328C115.831 51.7547 115.612 52.4053 115.612 53.28V54.464C115.612 55.3387 115.831 55.9893 116.268 56.416C116.706 56.8427 117.271 57.056 117.964 57.056ZM130.758 58.912C130.758 59.7653 130.422 60.3893 129.75 60.784C129.088 61.1893 128.091 61.392 126.758 61.392C125.467 61.392 124.539 61.216 123.974 60.864C123.408 60.512 123.126 60.0107 123.126 59.36C123.126 58.912 123.243 58.56 123.478 58.304C123.712 58.0587 124.032 57.8773 124.438 57.76V57.584C123.947 57.3493 123.702 56.9653 123.702 56.432C123.702 56.016 123.835 55.7013 124.102 55.488C124.368 55.264 124.71 55.0987 125.126 54.992V54.928C124.635 54.6933 124.251 54.3573 123.974 53.92C123.707 53.4827 123.574 52.976 123.574 52.4C123.574 51.984 123.648 51.6 123.798 51.248C123.947 50.896 124.155 50.5973 124.422 50.352C124.699 50.096 125.024 49.8987 125.398 49.76C125.782 49.6213 126.208 49.552 126.678 49.552C127.264 49.552 127.787 49.6587 128.246 49.872V49.728C128.246 49.408 128.32 49.1467 128.47 48.944C128.619 48.7307 128.864 48.624 129.206 48.624H130.438V49.744H128.87V50.272C129.168 50.528 129.398 50.8373 129.558 51.2C129.728 51.552 129.814 51.952 129.814 52.4C129.814 52.816 129.739 53.2 129.59 53.552C129.44 53.904 129.227 54.208 128.95 54.464C128.683 54.7093 128.358 54.9013 127.974 55.04C127.59 55.1787 127.163 55.248 126.694 55.248C126.427 55.248 126.16 55.2213 125.894 55.168C125.616 55.2427 125.366 55.3547 125.142 55.504C124.918 55.6427 124.806 55.84 124.806 56.096C124.806 56.3413 124.923 56.5067 125.158 56.592C125.392 56.6773 125.696 56.72 126.07 56.72H127.83C128.854 56.72 129.595 56.9173 130.054 57.312C130.523 57.696 130.758 58.2293 130.758 58.912ZM129.558 59.008C129.558 58.6773 129.43 58.4107 129.174 58.208C128.928 58.016 128.486 57.92 127.846 57.92H125.094C124.582 58.1547 124.326 58.528 124.326 59.04C124.326 59.4027 124.459 59.712 124.726 59.968C125.003 60.224 125.467 60.352 126.118 60.352H127.302C128.016 60.352 128.571 60.24 128.966 60.016C129.36 59.792 129.558 59.456 129.558 59.008ZM126.694 54.224C127.238 54.224 127.67 54.096 127.99 53.84C128.31 53.5733 128.47 53.168 128.47 52.624V52.176C128.47 51.632 128.31 51.232 127.99 50.976C127.67 50.7093 127.238 50.576 126.694 50.576C126.15 50.576 125.718 50.7093 125.398 50.976C125.078 51.232 124.918 51.632 124.918 52.176V52.624C124.918 53.168 125.078 53.5733 125.398 53.84C125.718 54.096 126.15 54.224 126.694 54.224ZM139.136 58.192C138.571 58.192 138.059 58.0907 137.6 57.888C137.152 57.6853 136.763 57.3973 136.432 57.024C136.112 56.64 135.861 56.1867 135.68 55.664C135.509 55.1307 135.424 54.5333 135.424 53.872C135.424 53.2213 135.509 52.6293 135.68 52.096C135.861 51.5627 136.112 51.1093 136.432 50.736C136.763 50.352 137.152 50.0587 137.6 49.856C138.059 49.6533 138.571 49.552 139.136 49.552C139.691 49.552 140.187 49.6533 140.624 49.856C141.061 50.0587 141.435 50.3413 141.744 50.704C142.053 51.056 142.288 51.4773 142.448 51.968C142.619 52.4587 142.704 52.9973 142.704 53.584V54.192H136.768V54.576C136.768 54.928 136.821 55.2587 136.928 55.568C137.045 55.8667 137.205 56.128 137.408 56.352C137.621 56.576 137.877 56.752 138.176 56.88C138.485 57.008 138.832 57.072 139.216 57.072C139.739 57.072 140.192 56.9493 140.576 56.704C140.971 56.4587 141.275 56.1067 141.488 55.648L142.4 56.304C142.133 56.8693 141.717 57.328 141.152 57.68C140.587 58.0213 139.915 58.192 139.136 58.192ZM139.136 50.624C138.784 50.624 138.464 50.688 138.176 50.816C137.888 50.9333 137.637 51.104 137.424 51.328C137.221 51.552 137.061 51.8187 136.944 52.128C136.827 52.4267 136.768 52.7573 136.768 53.12V53.232H141.328V53.056C141.328 52.32 141.125 51.7333 140.72 51.296C140.325 50.848 139.797 50.624 139.136 50.624ZM146.512 58L143.616 49.744H144.896L146.336 53.84L147.232 56.656H147.312L148.208 53.84L149.68 49.744H150.912L148 58H146.512ZM154.434 58C153.986 58 153.645 57.8773 153.41 57.632C153.186 57.376 153.074 57.0453 153.074 56.64V50.864H151.714V49.744H152.482C152.759 49.744 152.946 49.6907 153.042 49.584C153.149 49.4667 153.202 49.2693 153.202 48.992V47.456H154.354V49.744H156.162V50.864H154.354V56.88H156.034V58H154.434ZM159.035 58.192C158.694 58.192 158.443 58.1067 158.283 57.936C158.134 57.7653 158.059 57.5413 158.059 57.264V57.056C158.059 56.7787 158.134 56.5547 158.283 56.384C158.443 56.2133 158.694 56.128 159.035 56.128C159.377 56.128 159.622 56.2133 159.771 56.384C159.931 56.5547 160.011 56.7787 160.011 57.056V57.264C160.011 57.5413 159.931 57.7653 159.771 57.936C159.622 58.1067 159.377 58.192 159.035 58.192ZM166.36 58V49.744H167.64V51.088H167.704C167.8 50.8747 167.907 50.6773 168.024 50.496C168.152 50.304 168.301 50.1387 168.472 50C168.653 49.8613 168.861 49.7547 169.096 49.68C169.331 49.5947 169.608 49.552 169.928 49.552C170.472 49.552 170.973 49.6853 171.432 49.952C171.891 50.208 172.232 50.6347 172.456 51.232H172.488C172.637 50.784 172.915 50.3947 173.32 50.064C173.736 49.7227 174.296 49.552 175 49.552C175.843 49.552 176.499 49.8293 176.968 50.384C177.448 50.928 177.688 51.7013 177.688 52.704V58H176.408V52.928C176.408 52.192 176.264 51.6373 175.976 51.264C175.688 50.8907 175.229 50.704 174.6 50.704C174.344 50.704 174.099 50.736 173.864 50.8C173.64 50.864 173.437 50.96 173.256 51.088C173.075 51.216 172.931 51.3813 172.824 51.584C172.717 51.776 172.664 52.0053 172.664 52.272V58H171.384V52.928C171.384 52.192 171.24 51.6373 170.952 51.264C170.664 50.8907 170.216 50.704 169.608 50.704C169.352 50.704 169.107 50.736 168.872 50.8C168.637 50.864 168.429 50.96 168.248 51.088C168.067 51.216 167.917 51.3813 167.8 51.584C167.693 51.776 167.64 52.0053 167.64 52.272V58H166.36ZM183.433 58.192C182.867 58.192 182.355 58.0907 181.897 57.888C181.449 57.6853 181.059 57.3973 180.729 57.024C180.409 56.64 180.158 56.1867 179.977 55.664C179.806 55.1307 179.721 54.5333 179.721 53.872C179.721 53.2213 179.806 52.6293 179.977 52.096C180.158 51.5627 180.409 51.1093 180.729 50.736C181.059 50.352 181.449 50.0587 181.897 49.856C182.355 49.6533 182.867 49.552 183.433 49.552C183.987 49.552 184.483 49.6533 184.921 49.856C185.358 50.0587 185.731 50.3413 186.041 50.704C186.35 51.056 186.585 51.4773 186.745 51.968C186.915 52.4587 187.001 52.9973 187.001 53.584V54.192H181.065V54.576C181.065 54.928 181.118 55.2587 181.225 55.568C181.342 55.8667 181.502 56.128 181.705 56.352C181.918 56.576 182.174 56.752 182.473 56.88C182.782 57.008 183.129 57.072 183.513 57.072C184.035 57.072 184.489 56.9493 184.873 56.704C185.267 56.4587 185.571 56.1067 185.785 55.648L186.697 56.304C186.43 56.8693 186.014 57.328 185.449 57.68C184.883 58.0213 184.211 58.192 183.433 58.192ZM183.433 50.624C183.081 50.624 182.761 50.688 182.473 50.816C182.185 50.9333 181.934 51.104 181.721 51.328C181.518 51.552 181.358 51.8187 181.241 52.128C181.123 52.4267 181.065 52.7573 181.065 53.12V53.232H185.625V53.056C185.625 52.32 185.422 51.7333 185.017 51.296C184.622 50.848 184.094 50.624 183.433 50.624ZM190.47 58C190.022 58 189.681 57.8773 189.446 57.632C189.222 57.376 189.11 57.056 189.11 56.672V46.16H190.39V56.88H191.606V58H190.47ZM194.751 58C194.303 58 193.962 57.8773 193.727 57.632C193.503 57.376 193.391 57.056 193.391 56.672V46.16H194.671V56.88H195.887V58H194.751ZM200.855 58.192C200.289 58.192 199.777 58.0907 199.319 57.888C198.871 57.6853 198.481 57.3973 198.151 57.024C197.831 56.64 197.58 56.1867 197.399 55.664C197.228 55.1307 197.143 54.5333 197.143 53.872C197.143 53.2213 197.228 52.6293 197.399 52.096C197.58 51.5627 197.831 51.1093 198.151 50.736C198.481 50.352 198.871 50.0587 199.319 49.856C199.777 49.6533 200.289 49.552 200.855 49.552C201.409 49.552 201.905 49.6533 202.343 49.856C202.78 50.0587 203.153 50.3413 203.463 50.704C203.772 51.056 204.007 51.4773 204.167 51.968C204.337 52.4587 204.423 52.9973 204.423 53.584V54.192H198.487V54.576C198.487 54.928 198.54 55.2587 198.647 55.568C198.764 55.8667 198.924 56.128 199.127 56.352C199.34 56.576 199.596 56.752 199.895 56.88C200.204 57.008 200.551 57.072 200.935 57.072C201.457 57.072 201.911 56.9493 202.295 56.704C202.689 56.4587 202.993 56.1067 203.207 55.648L204.119 56.304C203.852 56.8693 203.436 57.328 202.871 57.68C202.305 58.0213 201.633 58.192 200.855 58.192ZM200.855 50.624C200.503 50.624 200.183 50.688 199.895 50.816C199.607 50.9333 199.356 51.104 199.143 51.328C198.94 51.552 198.78 51.8187 198.663 52.128C198.545 52.4267 198.487 52.7573 198.487 53.12V53.232H203.047V53.056C203.047 52.32 202.844 51.7333 202.439 51.296C202.044 50.848 201.516 50.624 200.855 50.624ZM206.532 58V49.744H207.812V51.088H207.876C207.972 50.8747 208.079 50.6773 208.196 50.496C208.324 50.304 208.473 50.1387 208.644 50C208.825 49.8613 209.033 49.7547 209.268 49.68C209.503 49.5947 209.78 49.552 210.1 49.552C210.644 49.552 211.145 49.6853 211.604 49.952C212.063 50.208 212.404 50.6347 212.628 51.232H212.66C212.809 50.784 213.087 50.3947 213.492 50.064C213.908 49.7227 214.468 49.552 215.172 49.552C216.015 49.552 216.671 49.8293 217.14 50.384C217.62 50.928 217.86 51.7013 217.86 52.704V58H216.58V52.928C216.58 52.192 216.436 51.6373 216.148 51.264C215.86 50.8907 215.401 50.704 214.772 50.704C214.516 50.704 214.271 50.736 214.036 50.8C213.812 50.864 213.609 50.96 213.428 51.088C213.247 51.216 213.103 51.3813 212.996 51.584C212.889 51.776 212.836 52.0053 212.836 52.272V58H211.556V52.928C211.556 52.192 211.412 51.6373 211.124 51.264C210.836 50.8907 210.388 50.704 209.78 50.704C209.524 50.704 209.279 50.736 209.044 50.8C208.809 50.864 208.601 50.96 208.42 51.088C208.239 51.216 208.089 51.3813 207.972 51.584C207.865 51.776 207.812 52.0053 207.812 52.272V58H206.532ZM220.501 58V49.744H221.781V51.088H221.845C222.047 50.6187 222.33 50.2453 222.693 49.968C223.066 49.6907 223.562 49.552 224.181 49.552C225.034 49.552 225.706 49.8293 226.197 50.384C226.698 50.928 226.949 51.7013 226.949 52.704V58H225.669V52.928C225.669 51.4453 225.045 50.704 223.797 50.704C223.541 50.704 223.29 50.736 223.045 50.8C222.81 50.864 222.597 50.96 222.405 51.088C222.213 51.216 222.058 51.3813 221.941 51.584C221.834 51.776 221.781 52.0053 221.781 52.272V58H220.501ZM235.594 58C235.114 58 234.768 57.872 234.554 57.616C234.352 57.36 234.224 57.04 234.17 56.656H234.09C233.909 57.168 233.61 57.552 233.194 57.808C232.778 58.064 232.282 58.192 231.706 58.192C230.832 58.192 230.149 57.968 229.658 57.52C229.178 57.072 228.938 56.464 228.938 55.696C228.938 54.9173 229.221 54.32 229.786 53.904C230.362 53.488 231.253 53.28 232.458 53.28H234.09V52.464C234.09 51.8773 233.93 51.4293 233.61 51.12C233.29 50.8107 232.8 50.656 232.138 50.656C231.637 50.656 231.216 50.768 230.874 50.992C230.544 51.216 230.266 51.5147 230.042 51.888L229.274 51.168C229.498 50.72 229.856 50.3413 230.346 50.032C230.837 49.712 231.456 49.552 232.202 49.552C233.205 49.552 233.984 49.7973 234.538 50.288C235.093 50.7787 235.37 51.4613 235.37 52.336V56.88H236.314V58H235.594ZM231.914 57.104C232.234 57.104 232.528 57.0667 232.794 56.992C233.061 56.9173 233.29 56.8107 233.482 56.672C233.674 56.5333 233.824 56.3733 233.93 56.192C234.037 56.0107 234.09 55.8133 234.09 55.6V54.24H232.394C231.658 54.24 231.12 54.3467 230.778 54.56C230.448 54.7733 230.282 55.0827 230.282 55.488V55.824C230.282 56.2293 230.426 56.544 230.714 56.768C231.013 56.992 231.413 57.104 231.914 57.104ZM239.84 58L236.944 49.744H238.224L239.664 53.84L240.56 56.656H240.64L241.536 53.84L243.008 49.744H244.24L241.328 58H239.84ZM245.891 58V49.744H247.171V51.088H247.235C247.438 50.6187 247.721 50.2453 248.083 49.968C248.457 49.6907 248.953 49.552 249.571 49.552C250.425 49.552 251.097 49.8293 251.587 50.384C252.089 50.928 252.339 51.7013 252.339 52.704V58H251.059V52.928C251.059 51.4453 250.435 50.704 249.187 50.704C248.931 50.704 248.681 50.736 248.435 50.8C248.201 50.864 247.987 50.96 247.795 51.088C247.603 51.216 247.449 51.3813 247.331 51.584C247.225 51.776 247.171 52.0053 247.171 52.272V58H245.891ZM254.953 53.008C254.953 52.24 255.028 51.4987 255.177 50.784C255.326 50.0693 255.529 49.408 255.785 48.8C256.052 48.1813 256.361 47.6213 256.713 47.12C257.065 46.6187 257.444 46.192 257.849 45.84H259.065C258.617 46.2453 258.212 46.704 257.849 47.216C257.497 47.728 257.193 48.272 256.937 48.848C256.692 49.424 256.5 50.0107 256.361 50.608C256.222 51.2053 256.153 51.7813 256.153 52.336V53.712C256.153 54.2773 256.222 54.8587 256.361 55.456C256.5 56.0533 256.697 56.64 256.953 57.216C257.209 57.792 257.513 58.336 257.865 58.848C258.228 59.36 258.628 59.808 259.065 60.192H257.849C257.454 59.8613 257.081 59.4453 256.729 58.944C256.377 58.4427 256.068 57.8827 255.801 57.264C255.545 56.6453 255.337 55.9787 255.177 55.264C255.028 54.5387 254.953 53.7867 254.953 53.008ZM263.448 58.192C262.883 58.192 262.371 58.0907 261.912 57.888C261.464 57.6853 261.075 57.3973 260.744 57.024C260.424 56.64 260.174 56.1867 259.992 55.664C259.822 55.1307 259.736 54.5333 259.736 53.872C259.736 53.2213 259.822 52.6293 259.992 52.096C260.174 51.5627 260.424 51.1093 260.744 50.736C261.075 50.352 261.464 50.0587 261.912 49.856C262.371 49.6533 262.883 49.552 263.448 49.552C264.003 49.552 264.499 49.6533 264.936 49.856C265.374 50.0587 265.747 50.3413 266.056 50.704C266.366 51.056 266.6 51.4773 266.76 51.968C266.931 52.4587 267.016 52.9973 267.016 53.584V54.192H261.08V54.576C261.08 54.928 261.134 55.2587 261.24 55.568C261.358 55.8667 261.518 56.128 261.72 56.352C261.934 56.576 262.19 56.752 262.488 56.88C262.798 57.008 263.144 57.072 263.528 57.072C264.051 57.072 264.504 56.9493 264.888 56.704C265.283 56.4587 265.587 56.1067 265.8 55.648L266.712 56.304C266.446 56.8693 266.03 57.328 265.464 57.68C264.899 58.0213 264.227 58.192 263.448 58.192ZM263.448 50.624C263.096 50.624 262.776 50.688 262.488 50.816C262.2 50.9333 261.95 51.104 261.736 51.328C261.534 51.552 261.374 51.8187 261.256 52.128C261.139 52.4267 261.08 52.7573 261.08 53.12V53.232H265.64V53.056C265.64 52.32 265.438 51.7333 265.032 51.296C264.638 50.848 264.11 50.624 263.448 50.624ZM271.798 53.008C271.798 53.7867 271.718 54.5387 271.558 55.264C271.408 55.9787 271.2 56.6453 270.934 57.264C270.678 57.8827 270.374 58.4427 270.022 58.944C269.67 59.4453 269.296 59.8613 268.902 60.192H267.686C268.123 59.808 268.518 59.36 268.87 58.848C269.232 58.336 269.542 57.792 269.798 57.216C270.054 56.64 270.251 56.0533 270.39 55.456C270.528 54.8587 270.598 54.2773 270.598 53.712V52.336C270.598 51.7813 270.528 51.2053 270.39 50.608C270.251 50.0107 270.054 49.424 269.798 48.848C269.552 48.272 269.248 47.728 268.886 47.216C268.534 46.704 268.134 46.2453 267.686 45.84H268.902C269.307 46.192 269.686 46.6187 270.038 47.12C270.39 47.6213 270.694 48.1813 270.95 48.8C271.216 49.408 271.424 50.0693 271.574 50.784C271.723 51.4987 271.798 52.24 271.798 53.008ZM280.746 58.192C279.978 58.192 279.333 58.048 278.81 57.76C278.298 57.4613 277.856 57.0667 277.482 56.576L278.394 55.84C278.714 56.2453 279.072 56.56 279.466 56.784C279.861 56.9973 280.32 57.104 280.842 57.104C281.386 57.104 281.808 56.9867 282.106 56.752C282.416 56.5173 282.57 56.1867 282.57 55.76C282.57 55.44 282.464 55.168 282.25 54.944C282.048 54.7093 281.674 54.5493 281.13 54.464L280.474 54.368C280.09 54.3147 279.738 54.2347 279.418 54.128C279.098 54.0107 278.816 53.8613 278.57 53.68C278.336 53.488 278.149 53.2533 278.01 52.976C277.882 52.6987 277.818 52.368 277.818 51.984C277.818 51.5787 277.893 51.2267 278.042 50.928C278.192 50.6187 278.394 50.3627 278.65 50.16C278.917 49.9573 279.232 49.808 279.594 49.712C279.957 49.6053 280.346 49.552 280.762 49.552C281.434 49.552 281.994 49.6693 282.442 49.904C282.901 50.1387 283.301 50.464 283.642 50.88L282.794 51.648C282.613 51.392 282.346 51.1627 281.994 50.96C281.642 50.7467 281.2 50.64 280.666 50.64C280.133 50.64 279.728 50.7573 279.45 50.992C279.184 51.216 279.05 51.5253 279.05 51.92C279.05 52.3253 279.184 52.6187 279.45 52.8C279.728 52.9813 280.122 53.1147 280.634 53.2L281.274 53.296C282.192 53.4347 282.842 53.7013 283.226 54.096C283.61 54.48 283.802 54.9867 283.802 55.616C283.802 56.416 283.53 57.0453 282.986 57.504C282.442 57.9627 281.696 58.192 280.746 58.192ZM289.183 58.192C288.628 58.192 288.122 58.0907 287.663 57.888C287.204 57.6853 286.81 57.3973 286.479 57.024C286.159 56.64 285.908 56.1867 285.727 55.664C285.546 55.1307 285.455 54.5333 285.455 53.872C285.455 53.2213 285.546 52.6293 285.727 52.096C285.908 51.5627 286.159 51.1093 286.479 50.736C286.81 50.352 287.204 50.0587 287.663 49.856C288.122 49.6533 288.628 49.552 289.183 49.552C289.738 49.552 290.239 49.6533 290.687 49.856C291.146 50.0587 291.54 50.352 291.871 50.736C292.202 51.1093 292.458 51.5627 292.639 52.096C292.82 52.6293 292.911 53.2213 292.911 53.872C292.911 54.5333 292.82 55.1307 292.639 55.664C292.458 56.1867 292.202 56.64 291.871 57.024C291.54 57.3973 291.146 57.6853 290.687 57.888C290.239 58.0907 289.738 58.192 289.183 58.192ZM289.183 57.056C289.876 57.056 290.442 56.8427 290.879 56.416C291.316 55.9893 291.535 55.3387 291.535 54.464V53.28C291.535 52.4053 291.316 51.7547 290.879 51.328C290.442 50.9013 289.876 50.688 289.183 50.688C288.49 50.688 287.924 50.9013 287.487 51.328C287.05 51.7547 286.831 52.4053 286.831 53.28V54.464C286.831 55.3387 287.05 55.9893 287.487 56.416C287.924 56.8427 288.49 57.056 289.183 57.056ZM295.016 58V49.744H296.296V51.088H296.36C296.456 50.8747 296.563 50.6773 296.68 50.496C296.808 50.304 296.958 50.1387 297.128 50C297.31 49.8613 297.518 49.7547 297.752 49.68C297.987 49.5947 298.264 49.552 298.584 49.552C299.128 49.552 299.63 49.6853 300.088 49.952C300.547 50.208 300.888 50.6347 301.112 51.232H301.144C301.294 50.784 301.571 50.3947 301.976 50.064C302.392 49.7227 302.952 49.552 303.656 49.552C304.499 49.552 305.155 49.8293 305.624 50.384C306.104 50.928 306.344 51.7013 306.344 52.704V58H305.064V52.928C305.064 52.192 304.92 51.6373 304.632 51.264C304.344 50.8907 303.886 50.704 303.256 50.704C303 50.704 302.755 50.736 302.52 50.8C302.296 50.864 302.094 50.96 301.912 51.088C301.731 51.216 301.587 51.3813 301.48 51.584C301.374 51.776 301.32 52.0053 301.32 52.272V58H300.04V52.928C300.04 52.192 299.896 51.6373 299.608 51.264C299.32 50.8907 298.872 50.704 298.264 50.704C298.008 50.704 297.763 50.736 297.528 50.8C297.294 50.864 297.086 50.96 296.904 51.088C296.723 51.216 296.574 51.3813 296.456 51.584C296.35 51.776 296.296 52.0053 296.296 52.272V58H295.016ZM313.406 47.808C313.129 47.808 312.926 47.744 312.798 47.616C312.681 47.4773 312.622 47.3013 312.622 47.088V46.88C312.622 46.6667 312.681 46.496 312.798 46.368C312.926 46.2293 313.129 46.16 313.406 46.16C313.684 46.16 313.881 46.2293 313.998 46.368C314.126 46.496 314.19 46.6667 314.19 46.88V47.088C314.19 47.3013 314.126 47.4773 313.998 47.616C313.881 47.744 313.684 47.808 313.406 47.808ZM312.766 49.744H314.046V58H312.766V49.744ZM325.828 56.656H325.764C325.262 57.68 324.457 58.192 323.348 58.192C322.836 58.192 322.372 58.0907 321.956 57.888C321.54 57.6853 321.182 57.3973 320.884 57.024C320.596 56.6507 320.372 56.1973 320.212 55.664C320.062 55.1307 319.988 54.5333 319.988 53.872C319.988 53.2107 320.062 52.6133 320.212 52.08C320.372 51.5467 320.596 51.0933 320.884 50.72C321.182 50.3467 321.54 50.0587 321.956 49.856C322.372 49.6533 322.836 49.552 323.348 49.552C323.924 49.552 324.414 49.68 324.82 49.936C325.236 50.1813 325.55 50.5653 325.764 51.088H325.828V46.16H327.108V58H325.828V56.656ZM323.7 57.04C323.988 57.04 324.26 57.0027 324.516 56.928C324.782 56.8533 325.012 56.7467 325.204 56.608C325.396 56.4587 325.545 56.2827 325.652 56.08C325.769 55.8667 325.828 55.6267 325.828 55.36V52.288C325.828 52.064 325.769 51.856 325.652 51.664C325.545 51.4613 325.396 51.2907 325.204 51.152C325.012 51.0133 324.782 50.9067 324.516 50.832C324.26 50.7467 323.988 50.704 323.7 50.704C322.974 50.704 322.404 50.9333 321.988 51.392C321.572 51.84 321.364 52.432 321.364 53.168V54.576C321.364 55.312 321.572 55.9093 321.988 56.368C322.404 56.816 322.974 57.04 323.7 57.04ZM330.469 47.808C330.191 47.808 329.989 47.744 329.861 47.616C329.743 47.4773 329.685 47.3013 329.685 47.088V46.88C329.685 46.6667 329.743 46.496 329.861 46.368C329.989 46.2293 330.191 46.16 330.469 46.16C330.746 46.16 330.943 46.2293 331.061 46.368C331.189 46.496 331.253 46.6667 331.253 46.88V47.088C331.253 47.3013 331.189 47.4773 331.061 47.616C330.943 47.744 330.746 47.808 330.469 47.808ZM329.829 49.744H331.109V58H329.829V49.744ZM335.653 58C335.205 58 334.863 57.8773 334.629 57.632C334.405 57.376 334.293 57.0453 334.293 56.64V50.864H332.933V49.744H333.701C333.978 49.744 334.165 49.6907 334.261 49.584C334.367 49.4667 334.421 49.2693 334.421 48.992V47.456H335.573V49.744H337.381V50.864H335.573V56.88H337.253V58H335.653ZM343.219 49.744H344.499V51.088H344.563C344.777 50.5653 345.086 50.1813 345.491 49.936C345.907 49.68 346.403 49.552 346.979 49.552C347.491 49.552 347.955 49.6533 348.371 49.856C348.787 50.0587 349.139 50.3467 349.427 50.72C349.726 51.0933 349.95 51.5467 350.099 52.08C350.259 52.6133 350.339 53.2107 350.339 53.872C350.339 54.5333 350.259 55.1307 350.099 55.664C349.95 56.1973 349.726 56.6507 349.427 57.024C349.139 57.3973 348.787 57.6853 348.371 57.888C347.955 58.0907 347.491 58.192 346.979 58.192C345.859 58.192 345.054 57.68 344.563 56.656H344.499V61.2H343.219V49.744ZM346.627 57.04C347.353 57.04 347.923 56.816 348.339 56.368C348.755 55.9093 348.963 55.312 348.963 54.576V53.168C348.963 52.432 348.755 51.84 348.339 51.392C347.923 50.9333 347.353 50.704 346.627 50.704C346.339 50.704 346.062 50.7467 345.795 50.832C345.539 50.9067 345.315 51.0133 345.123 51.152C344.931 51.2907 344.777 51.4613 344.659 51.664C344.553 51.856 344.499 52.064 344.499 52.288V55.36C344.499 55.6267 344.553 55.8667 344.659 56.08C344.777 56.2827 344.931 56.4587 345.123 56.608C345.315 56.7467 345.539 56.8533 345.795 56.928C346.062 57.0027 346.339 57.04 346.627 57.04ZM358.501 58C358.021 58 357.674 57.872 357.461 57.616C357.258 57.36 357.13 57.04 357.077 56.656H356.997C356.815 57.168 356.517 57.552 356.101 57.808C355.685 58.064 355.189 58.192 354.613 58.192C353.738 58.192 353.055 57.968 352.565 57.52C352.085 57.072 351.845 56.464 351.845 55.696C351.845 54.9173 352.127 54.32 352.693 53.904C353.269 53.488 354.159 53.28 355.365 53.28H356.997V52.464C356.997 51.8773 356.837 51.4293 356.517 51.12C356.197 50.8107 355.706 50.656 355.045 50.656C354.543 50.656 354.122 50.768 353.781 50.992C353.45 51.216 353.173 51.5147 352.949 51.888L352.181 51.168C352.405 50.72 352.762 50.3413 353.253 50.032C353.743 49.712 354.362 49.552 355.109 49.552C356.111 49.552 356.89 49.7973 357.445 50.288C357.999 50.7787 358.277 51.4613 358.277 52.336V56.88H359.221V58H358.501ZM354.821 57.104C355.141 57.104 355.434 57.0667 355.701 56.992C355.967 56.9173 356.197 56.8107 356.389 56.672C356.581 56.5333 356.73 56.3733 356.837 56.192C356.943 56.0107 356.997 55.8133 356.997 55.6V54.24H355.301C354.565 54.24 354.026 54.3467 353.685 54.56C353.354 54.7733 353.189 55.0827 353.189 55.488V55.824C353.189 56.2293 353.333 56.544 353.621 56.768C353.919 56.992 354.319 57.104 354.821 57.104ZM363.528 58.192C362.76 58.192 362.114 58.048 361.592 57.76C361.08 57.4613 360.637 57.0667 360.264 56.576L361.176 55.84C361.496 56.2453 361.853 56.56 362.248 56.784C362.642 56.9973 363.101 57.104 363.624 57.104C364.168 57.104 364.589 56.9867 364.888 56.752C365.197 56.5173 365.352 56.1867 365.352 55.76C365.352 55.44 365.245 55.168 365.032 54.944C364.829 54.7093 364.456 54.5493 363.911 54.464L363.256 54.368C362.872 54.3147 362.52 54.2347 362.2 54.128C361.88 54.0107 361.597 53.8613 361.352 53.68C361.117 53.488 360.93 53.2533 360.792 52.976C360.664 52.6987 360.6 52.368 360.6 51.984C360.6 51.5787 360.674 51.2267 360.824 50.928C360.973 50.6187 361.176 50.3627 361.432 50.16C361.698 49.9573 362.013 49.808 362.376 49.712C362.738 49.6053 363.128 49.552 363.544 49.552C364.216 49.552 364.776 49.6693 365.224 49.904C365.682 50.1387 366.082 50.464 366.424 50.88L365.576 51.648C365.394 51.392 365.128 51.1627 364.776 50.96C364.424 50.7467 363.981 50.64 363.448 50.64C362.914 50.64 362.509 50.7573 362.232 50.992C361.965 51.216 361.832 51.5253 361.832 51.92C361.832 52.3253 361.965 52.6187 362.232 52.8C362.509 52.9813 362.904 53.1147 363.416 53.2L364.056 53.296C364.973 53.4347 365.624 53.7013 366.008 54.096C366.392 54.48 366.584 54.9867 366.584 55.616C366.584 56.416 366.312 57.0453 365.768 57.504C365.224 57.9627 364.477 58.192 363.528 58.192Z" fill="#707070"/>
<path d="M16.5 80C16.5 75.8579 19.8579 72.5 24 72.5H328C332.142 72.5 335.5 75.8579 335.5 80V104C335.5 108.142 332.142 111.5 328 111.5H24C19.8579 111.5 16.5 108.142 16.5 104V80Z" fill="white"/>
<path d="M16.5 80C16.5 75.8579 19.8579 72.5 24 72.5H328C332.142 72.5 335.5 75.8579 335.5 80V104C335.5 108.142 332.142 111.5 328 111.5H24C19.8579 111.5 16.5 108.142 16.5 104V80Z" stroke="#8E8E8E"/>
<path d="M17.312 154V142.832H24.672V144.704H19.424V147.408H24.064V149.28H19.424V152.128H24.672V154H17.312ZM27.1938 147.264H25.9618V145.648H27.1938V144.448C27.1938 143.712 27.3858 143.147 27.7698 142.752C28.1644 142.357 28.7404 142.16 29.4978 142.16H30.9538V143.792H29.2418V145.648H30.9538V147.264H29.2418V154H27.1938V147.264ZM34.9795 154C34.2755 154 33.7368 153.819 33.3635 153.456C33.0008 153.083 32.8195 152.555 32.8195 151.872V147.28H31.5875V145.648H32.2275C32.5368 145.648 32.7448 145.579 32.8515 145.44C32.9688 145.291 33.0275 145.072 33.0275 144.784V143.36H34.8675V145.648H36.5795V147.28H34.8675V152.368H36.4515V154H34.9795ZM41.6694 154.192C41.0507 154.192 40.496 154.091 40.0054 153.888C39.5254 153.675 39.1147 153.381 38.7734 153.008C38.4427 152.624 38.1867 152.165 38.0054 151.632C37.824 151.088 37.7334 150.48 37.7334 149.808C37.7334 149.147 37.8187 148.549 37.9894 148.016C38.1707 147.483 38.4267 147.029 38.7574 146.656C39.088 146.272 39.4934 145.979 39.9734 145.776C40.4534 145.563 40.9974 145.456 41.6054 145.456C42.256 145.456 42.8214 145.568 43.3014 145.792C43.7814 146.016 44.176 146.32 44.4854 146.704C44.7947 147.088 45.024 147.536 45.1734 148.048C45.3334 148.549 45.4134 149.088 45.4134 149.664V150.336H39.8614V150.544C39.8614 151.152 40.032 151.643 40.3734 152.016C40.7147 152.379 41.2214 152.56 41.8934 152.56C42.4054 152.56 42.8214 152.453 43.1414 152.24C43.472 152.027 43.7654 151.755 44.0214 151.424L45.1254 152.656C44.784 153.136 44.3147 153.515 43.7174 153.792C43.1307 154.059 42.448 154.192 41.6694 154.192ZM41.6374 146.992C41.0934 146.992 40.6614 147.173 40.3414 147.536C40.0214 147.899 39.8614 148.368 39.8614 148.944V149.072H43.2854V148.928C43.2854 148.352 43.1414 147.888 42.8534 147.536C42.576 147.173 42.1707 146.992 41.6374 146.992ZM47.2153 154V145.648H49.2633V147.376H49.3433C49.3966 147.152 49.4766 146.939 49.5833 146.736C49.7006 146.523 49.8499 146.336 50.0312 146.176C50.2126 146.016 50.4259 145.888 50.6713 145.792C50.9273 145.696 51.2206 145.648 51.5513 145.648H51.9993V147.584H51.3593C50.6659 147.584 50.1433 147.685 49.7913 147.888C49.4393 148.091 49.2633 148.421 49.2633 148.88V154H47.2153ZM53.4965 154V145.648H55.5445V147.04H55.6245C55.7952 146.592 56.0618 146.219 56.4245 145.92C56.7978 145.611 57.3098 145.456 57.9605 145.456C58.8245 145.456 59.4858 145.739 59.9445 146.304C60.4032 146.869 60.6325 147.675 60.6325 148.72V154H58.5845V148.928C58.5845 148.331 58.4778 147.883 58.2645 147.584C58.0512 147.285 57.6992 147.136 57.2085 147.136C56.9952 147.136 56.7872 147.168 56.5845 147.232C56.3925 147.285 56.2165 147.371 56.0565 147.488C55.9072 147.595 55.7845 147.733 55.6885 147.904C55.5925 148.064 55.5445 148.256 55.5445 148.48V154H53.4965ZM69.0468 154C68.5988 154 68.2414 153.872 67.9748 153.616C67.7188 153.349 67.5588 152.997 67.4948 152.56H67.3988C67.2601 153.104 66.9774 153.515 66.5508 153.792C66.1241 154.059 65.5961 154.192 64.9668 154.192C64.1134 154.192 63.4574 153.968 62.9988 153.52C62.5401 153.072 62.3108 152.475 62.3108 151.728C62.3108 150.864 62.6201 150.224 63.2388 149.808C63.8574 149.381 64.7374 149.168 65.8788 149.168H67.3028V148.56C67.3028 148.091 67.1801 147.728 66.9348 147.472C66.6894 147.216 66.2948 147.088 65.7508 147.088C65.2708 147.088 64.8814 147.195 64.5828 147.408C64.2948 147.611 64.0494 147.856 63.8468 148.144L62.6308 147.056C62.9401 146.576 63.3508 146.192 63.8628 145.904C64.3748 145.605 65.0521 145.456 65.8948 145.456C67.0254 145.456 67.8841 145.712 68.4708 146.224C69.0574 146.736 69.3508 147.472 69.3508 148.432V152.368H70.1828V154H69.0468ZM65.6548 152.704C66.1134 152.704 66.5028 152.603 66.8228 152.4C67.1428 152.197 67.3028 151.899 67.3028 151.504V150.4H65.9908C64.9241 150.4 64.3908 150.741 64.3908 151.424V151.696C64.3908 152.037 64.4974 152.293 64.7108 152.464C64.9348 152.624 65.2494 152.704 65.6548 152.704ZM73.4916 154L70.7076 145.648H72.7236L73.8916 149.248L74.7076 152.224H74.8196L75.6356 149.248L76.7716 145.648H78.7236L75.9236 154H73.4916ZM80.0903 154V145.648H82.1383V147.04H82.2183C82.3889 146.592 82.6556 146.219 83.0182 145.92C83.3916 145.611 83.9036 145.456 84.5543 145.456C85.4183 145.456 86.0796 145.739 86.5383 146.304C86.9969 146.869 87.2263 147.675 87.2263 148.72V154H85.1783V148.928C85.1783 148.331 85.0716 147.883 84.8583 147.584C84.6449 147.285 84.2929 147.136 83.8023 147.136C83.5889 147.136 83.3809 147.168 83.1783 147.232C82.9863 147.285 82.8103 147.371 82.6503 147.488C82.5009 147.595 82.3783 147.733 82.2823 147.904C82.1863 148.064 82.1383 148.256 82.1383 148.48V154H80.0903Z" fill="#1A1A1A"/>
<path d="M16.5 176C16.5 171.858 19.8579 168.5 24 168.5H328C332.142 168.5 335.5 171.858 335.5 176V200C335.5 204.142 332.142 207.5 328 207.5H24C19.8579 207.5 16.5 204.142 16.5 200V176Z" fill="white"/>
<path d="M16.5 176C16.5 171.858 19.8579 168.5 24 168.5H328C332.142 168.5 335.5 171.858 335.5 176V200C335.5 204.142 332.142 207.5 328 207.5H24C19.8579 207.5 16.5 204.142 16.5 200V176Z" stroke="#8E8E8E"/>
</svg>
