<svg width="418" height="296" viewBox="0 0 418 296" fill="none" xmlns="http://www.w3.org/2000/svg">
<rect width="418" height="296" fill="white"/>
<path d="M17.312 34V22.832H24.496V24.704H19.424V27.408H23.84V29.28H19.424V34H17.312ZM29.246 34.192C28.6487 34.192 28.11 34.0907 27.63 33.888C27.1607 33.6853 26.7553 33.392 26.414 33.008C26.0833 32.624 25.8273 32.1653 25.646 31.632C25.4647 31.088 25.374 30.48 25.374 29.808C25.374 29.136 25.4647 28.5333 25.646 28C25.8273 27.4667 26.0833 27.0133 26.414 26.64C26.7553 26.256 27.1607 25.9627 27.63 25.76C28.11 25.5573 28.6487 25.456 29.246 25.456C29.8433 25.456 30.382 25.5573 30.862 25.76C31.342 25.9627 31.7473 26.256 32.078 26.64C32.4193 27.0133 32.6807 27.4667 32.862 28C33.0433 28.5333 33.134 29.136 33.134 29.808C33.134 30.48 33.0433 31.088 32.862 31.632C32.6807 32.1653 32.4193 32.624 32.078 33.008C31.7473 33.392 31.342 33.6853 30.862 33.888C30.382 34.0907 29.8433 34.192 29.246 34.192ZM29.246 32.544C29.79 32.544 30.2167 32.3787 30.526 32.048C30.8353 31.7173 30.99 31.232 30.99 30.592V29.04C30.99 28.4107 30.8353 27.9307 30.526 27.6C30.2167 27.2693 29.79 27.104 29.246 27.104C28.7127 27.104 28.2913 27.2693 27.982 27.6C27.6727 27.9307 27.518 28.4107 27.518 29.04V30.592C27.518 31.232 27.6727 31.7173 27.982 32.048C28.2913 32.3787 28.7127 32.544 29.246 32.544ZM34.9496 34V25.648H36.9976V27.376H37.0776C37.131 27.152 37.211 26.9387 37.3176 26.736C37.435 26.5227 37.5843 26.336 37.7656 26.176C37.947 26.016 38.1603 25.888 38.4056 25.792C38.6616 25.696 38.955 25.648 39.2856 25.648H39.7336V27.584H39.0936C38.4003 27.584 37.8776 27.6853 37.5256 27.888C37.1736 28.0907 36.9976 28.4213 36.9976 28.88V34H34.9496ZM41.2309 34V25.648H43.2789V27.04H43.3589C43.5295 26.592 43.7962 26.2187 44.1589 25.92C44.5322 25.6107 45.0442 25.456 45.6949 25.456C46.5589 25.456 47.2202 25.7387 47.6789 26.304C48.1375 26.8693 48.3669 27.6747 48.3669 28.72V34H46.3189V28.928C46.3189 28.3307 46.2122 27.8827 45.9989 27.584C45.7855 27.2853 45.4335 27.136 44.9429 27.136C44.7295 27.136 44.5215 27.168 44.3189 27.232C44.1269 27.2853 43.9509 27.3707 43.7909 27.488C43.6415 27.5947 43.5189 27.7333 43.4229 27.904C43.3269 28.064 43.2789 28.256 43.2789 28.48V34H41.2309ZM56.7811 34C56.3331 34 55.9758 33.872 55.7091 33.616C55.4531 33.3493 55.2931 32.9973 55.2291 32.56H55.1331C54.9945 33.104 54.7118 33.5147 54.2851 33.792C53.8585 34.0587 53.3305 34.192 52.7011 34.192C51.8478 34.192 51.1918 33.968 50.7331 33.52C50.2745 33.072 50.0451 32.4747 50.0451 31.728C50.0451 30.864 50.3545 30.224 50.9731 29.808C51.5918 29.3813 52.4718 29.168 53.6131 29.168H55.0371V28.56C55.0371 28.0907 54.9145 27.728 54.6691 27.472C54.4238 27.216 54.0291 27.088 53.4851 27.088C53.0051 27.088 52.6158 27.1947 52.3171 27.408C52.0291 27.6107 51.7838 27.856 51.5811 28.144L50.3651 27.056C50.6745 26.576 51.0851 26.192 51.5971 25.904C52.1091 25.6053 52.7865 25.456 53.6291 25.456C54.7598 25.456 55.6185 25.712 56.2051 26.224C56.7918 26.736 57.0851 27.472 57.0851 28.432V32.368H57.9171V34H56.7811ZM53.3891 32.704C53.8478 32.704 54.2371 32.6027 54.5571 32.4C54.8771 32.1973 55.0371 31.8987 55.0371 31.504V30.4H53.7251C52.6585 30.4 52.1251 30.7413 52.1251 31.424V31.696C52.1251 32.0373 52.2318 32.2933 52.4451 32.464C52.6691 32.624 52.9838 32.704 53.3891 32.704ZM61.226 34L58.442 25.648H60.458L61.626 29.248L62.442 32.224H62.554L63.37 29.248L64.506 25.648H66.458L63.658 34H61.226ZM67.8246 34V25.648H69.8726V27.04H69.9526C70.1233 26.592 70.39 26.2187 70.7526 25.92C71.126 25.6107 71.638 25.456 72.2886 25.456C73.1526 25.456 73.814 25.7387 74.2726 26.304C74.7313 26.8693 74.9606 27.6747 74.9606 28.72V34H72.9126V28.928C72.9126 28.3307 72.806 27.8827 72.5926 27.584C72.3793 27.2853 72.0273 27.136 71.5366 27.136C71.3233 27.136 71.1153 27.168 70.9126 27.232C70.7206 27.2853 70.5446 27.3707 70.3846 27.488C70.2353 27.5947 70.1126 27.7333 70.0166 27.904C69.9206 28.064 69.8726 28.256 69.8726 28.48V34H67.8246Z" fill="#1A1A1A"/>
<path d="M16.5 56C16.5 51.8579 19.8579 48.5 24 48.5H328C332.142 48.5 335.5 51.8579 335.5 56V80C335.5 84.1421 332.142 87.5 328 87.5H24C19.8579 87.5 16.5 84.1421 16.5 80V56Z" fill="white"/>
<path d="M16.5 56C16.5 51.8579 19.8579 48.5 24 48.5H328C332.142 48.5 335.5 51.8579 335.5 56V80C335.5 84.1421 332.142 87.5 328 87.5H24C19.8579 87.5 16.5 84.1421 16.5 80V56Z" stroke="#8E8E8E"/>
<path d="M17.312 130V118.832H24.672V120.704H19.424V123.408H24.064V125.28H19.424V128.128H24.672V130H17.312ZM27.1938 123.264H25.9618V121.648H27.1938V120.448C27.1938 119.712 27.3858 119.147 27.7698 118.752C28.1644 118.357 28.7404 118.16 29.4978 118.16H30.9538V119.792H29.2418V121.648H30.9538V123.264H29.2418V130H27.1938V123.264ZM34.9795 130C34.2755 130 33.7368 129.819 33.3635 129.456C33.0008 129.083 32.8195 128.555 32.8195 127.872V123.28H31.5875V121.648H32.2275C32.5368 121.648 32.7448 121.579 32.8515 121.44C32.9688 121.291 33.0275 121.072 33.0275 120.784V119.36H34.8675V121.648H36.5795V123.28H34.8675V128.368H36.4515V130H34.9795ZM41.6694 130.192C41.0507 130.192 40.496 130.091 40.0054 129.888C39.5254 129.675 39.1147 129.381 38.7734 129.008C38.4427 128.624 38.1867 128.165 38.0054 127.632C37.824 127.088 37.7334 126.48 37.7334 125.808C37.7334 125.147 37.8187 124.549 37.9894 124.016C38.1707 123.483 38.4267 123.029 38.7574 122.656C39.088 122.272 39.4934 121.979 39.9734 121.776C40.4534 121.563 40.9974 121.456 41.6054 121.456C42.256 121.456 42.8214 121.568 43.3014 121.792C43.7814 122.016 44.176 122.32 44.4854 122.704C44.7947 123.088 45.024 123.536 45.1734 124.048C45.3334 124.549 45.4134 125.088 45.4134 125.664V126.336H39.8614V126.544C39.8614 127.152 40.032 127.643 40.3734 128.016C40.7147 128.379 41.2214 128.56 41.8934 128.56C42.4054 128.56 42.8214 128.453 43.1414 128.24C43.472 128.027 43.7654 127.755 44.0214 127.424L45.1254 128.656C44.784 129.136 44.3147 129.515 43.7174 129.792C43.1307 130.059 42.448 130.192 41.6694 130.192ZM41.6374 122.992C41.0934 122.992 40.6614 123.173 40.3414 123.536C40.0214 123.899 39.8614 124.368 39.8614 124.944V125.072H43.2854V124.928C43.2854 124.352 43.1414 123.888 42.8534 123.536C42.576 123.173 42.1707 122.992 41.6374 122.992ZM47.2153 130V121.648H49.2633V123.376H49.3433C49.3966 123.152 49.4766 122.939 49.5833 122.736C49.7006 122.523 49.8499 122.336 50.0312 122.176C50.2126 122.016 50.4259 121.888 50.6713 121.792C50.9273 121.696 51.2206 121.648 51.5513 121.648H51.9993V123.584H51.3593C50.6659 123.584 50.1433 123.685 49.7913 123.888C49.4393 124.091 49.2633 124.421 49.2633 124.88V130H47.2153ZM53.4965 130V121.648H55.5445V123.04H55.6245C55.7952 122.592 56.0618 122.219 56.4245 121.92C56.7978 121.611 57.3098 121.456 57.9605 121.456C58.8245 121.456 59.4858 121.739 59.9445 122.304C60.4032 122.869 60.6325 123.675 60.6325 124.72V130H58.5845V124.928C58.5845 124.331 58.4778 123.883 58.2645 123.584C58.0512 123.285 57.6992 123.136 57.2085 123.136C56.9952 123.136 56.7872 123.168 56.5845 123.232C56.3925 123.285 56.2165 123.371 56.0565 123.488C55.9072 123.595 55.7845 123.733 55.6885 123.904C55.5925 124.064 55.5445 124.256 55.5445 124.48V130H53.4965ZM69.0468 130C68.5988 130 68.2414 129.872 67.9748 129.616C67.7188 129.349 67.5588 128.997 67.4948 128.56H67.3988C67.2601 129.104 66.9774 129.515 66.5508 129.792C66.1241 130.059 65.5961 130.192 64.9668 130.192C64.1134 130.192 63.4574 129.968 62.9988 129.52C62.5401 129.072 62.3108 128.475 62.3108 127.728C62.3108 126.864 62.6201 126.224 63.2388 125.808C63.8574 125.381 64.7374 125.168 65.8788 125.168H67.3028V124.56C67.3028 124.091 67.1801 123.728 66.9348 123.472C66.6894 123.216 66.2948 123.088 65.7508 123.088C65.2708 123.088 64.8814 123.195 64.5828 123.408C64.2948 123.611 64.0494 123.856 63.8468 124.144L62.6308 123.056C62.9401 122.576 63.3508 122.192 63.8628 121.904C64.3748 121.605 65.0521 121.456 65.8948 121.456C67.0254 121.456 67.8841 121.712 68.4708 122.224C69.0574 122.736 69.3508 123.472 69.3508 124.432V128.368H70.1828V130H69.0468ZM65.6548 128.704C66.1134 128.704 66.5028 128.603 66.8228 128.4C67.1428 128.197 67.3028 127.899 67.3028 127.504V126.4H65.9908C64.9241 126.4 64.3908 126.741 64.3908 127.424V127.696C64.3908 128.037 64.4974 128.293 64.7108 128.464C64.9348 128.624 65.2494 128.704 65.6548 128.704ZM73.4916 130L70.7076 121.648H72.7236L73.8916 125.248L74.7076 128.224H74.8196L75.6356 125.248L76.7716 121.648H78.7236L75.9236 130H73.4916ZM80.0903 130V121.648H82.1383V123.04H82.2183C82.3889 122.592 82.6556 122.219 83.0182 121.92C83.3916 121.611 83.9036 121.456 84.5543 121.456C85.4183 121.456 86.0796 121.739 86.5383 122.304C86.9969 122.869 87.2263 123.675 87.2263 124.72V130H85.1783V124.928C85.1783 124.331 85.0716 123.883 84.8583 123.584C84.6449 123.285 84.2929 123.136 83.8023 123.136C83.5889 123.136 83.3809 123.168 83.1783 123.232C82.9863 123.285 82.8103 123.371 82.6503 123.488C82.5009 123.595 82.3783 123.733 82.2823 123.904C82.1863 124.064 82.1383 124.256 82.1383 124.48V130H80.0903Z" fill="#1A1A1A"/>
<path d="M16.5 152C16.5 147.858 19.8579 144.5 24 144.5H328C332.142 144.5 335.5 147.858 335.5 152V176C335.5 180.142 332.142 183.5 328 183.5H24C19.8579 183.5 16.5 180.142 16.5 176V152Z" fill="white"/>
<path d="M16.5 152C16.5 147.858 19.8579 144.5 24 144.5H328C332.142 144.5 335.5 147.858 335.5 152V176C335.5 180.142 332.142 183.5 328 183.5H24C19.8579 183.5 16.5 180.142 16.5 176V152Z" stroke="#8E8E8E"/>
<path d="M17.312 226V214.832H24.672V216.704H19.424V219.408H24.064V221.28H19.424V224.128H24.672V226H17.312ZM26.5218 222.144V220.112H31.0978V222.144H26.5218ZM33.2153 226V217.648H35.2633V219.04H35.3433C35.5033 218.603 35.7593 218.229 36.1113 217.92C36.4633 217.611 36.9539 217.456 37.5833 217.456C38.1593 217.456 38.6553 217.595 39.0713 217.872C39.4873 218.149 39.7966 218.571 39.9993 219.136H40.0312C40.1806 218.667 40.4739 218.272 40.9113 217.952C41.3593 217.621 41.9193 217.456 42.5913 217.456C43.4126 217.456 44.0419 217.739 44.4793 218.304C44.9273 218.869 45.1513 219.675 45.1513 220.72V226H43.1033V220.928C43.1033 219.733 42.6553 219.136 41.7593 219.136C41.5566 219.136 41.3593 219.168 41.1673 219.232C40.9859 219.285 40.8206 219.371 40.6713 219.488C40.5326 219.595 40.4206 219.733 40.3353 219.904C40.2499 220.064 40.2073 220.256 40.2073 220.48V226H38.1593V220.928C38.1593 219.733 37.7113 219.136 36.8153 219.136C36.6233 219.136 36.4313 219.168 36.2393 219.232C36.0579 219.285 35.8926 219.371 35.7433 219.488C35.6046 219.595 35.4873 219.733 35.3913 219.904C35.3059 220.064 35.2633 220.256 35.2633 220.48V226H33.2153ZM53.5624 226C53.1144 226 52.757 225.872 52.4904 225.616C52.2344 225.349 52.0744 224.997 52.0104 224.56H51.9144C51.7757 225.104 51.493 225.515 51.0664 225.792C50.6397 226.059 50.1117 226.192 49.4824 226.192C48.629 226.192 47.973 225.968 47.5144 225.52C47.0557 225.072 46.8264 224.475 46.8264 223.728C46.8264 222.864 47.1357 222.224 47.7544 221.808C48.373 221.381 49.253 221.168 50.3944 221.168H51.8184V220.56C51.8184 220.091 51.6957 219.728 51.4504 219.472C51.205 219.216 50.8104 219.088 50.2664 219.088C49.7864 219.088 49.397 219.195 49.0984 219.408C48.8104 219.611 48.565 219.856 48.3624 220.144L47.1464 219.056C47.4557 218.576 47.8664 218.192 48.3784 217.904C48.8904 217.605 49.5677 217.456 50.4104 217.456C51.541 217.456 52.3997 217.712 52.9864 218.224C53.573 218.736 53.8664 219.472 53.8664 220.432V224.368H54.6984V226H53.5624ZM50.1704 224.704C50.629 224.704 51.0184 224.603 51.3384 224.4C51.6584 224.197 51.8184 223.899 51.8184 223.504V222.4H50.5064C49.4397 222.4 48.9064 222.741 48.9064 223.424V223.696C48.9064 224.037 49.013 224.293 49.2264 224.464C49.4504 224.624 49.765 224.704 50.1704 224.704ZM57.3799 216.432C56.9532 216.432 56.6439 216.336 56.4519 216.144C56.2705 215.952 56.1799 215.707 56.1799 215.408V215.088C56.1799 214.789 56.2705 214.544 56.4519 214.352C56.6439 214.16 56.9532 214.064 57.3799 214.064C57.7959 214.064 58.0999 214.16 58.2919 214.352C58.4839 214.544 58.5799 214.789 58.5799 215.088V215.408C58.5799 215.707 58.4839 215.952 58.2919 216.144C58.0999 216.336 57.7959 216.432 57.3799 216.432ZM56.3559 217.648H58.4039V226H56.3559V217.648ZM62.8258 226C62.1218 226 61.6044 225.824 61.2738 225.472C60.9431 225.12 60.7778 224.624 60.7778 223.984V214.16H62.8258V224.368H63.9298V226H62.8258Z" fill="#1A1A1A"/>
<path d="M16.5 248C16.5 243.858 19.8579 240.5 24 240.5H328C332.142 240.5 335.5 243.858 335.5 248V272C335.5 276.142 332.142 279.5 328 279.5H24C19.8579 279.5 16.5 276.142 16.5 272V248Z" fill="white"/>
<path d="M16.5 248C16.5 243.858 19.8579 240.5 24 240.5H328C332.142 240.5 335.5 243.858 335.5 248V272C335.5 276.142 332.142 279.5 328 279.5H24C19.8579 279.5 16.5 276.142 16.5 272V248Z" stroke="#8E8E8E"/>
</svg>
