<svg width="418" height="228" viewBox="0 0 418 228" fill="none" xmlns="http://www.w3.org/2000/svg">
<rect width="418" height="228" fill="white"/>
<path d="M17.312 34V22.832H24.496V24.704H19.424V27.408H23.84V29.28H19.424V34H17.312ZM29.246 34.192C28.6487 34.192 28.11 34.0907 27.63 33.888C27.1607 33.6853 26.7553 33.392 26.414 33.008C26.0833 32.624 25.8273 32.1653 25.646 31.632C25.4647 31.088 25.374 30.48 25.374 29.808C25.374 29.136 25.4647 28.5333 25.646 28C25.8273 27.4667 26.0833 27.0133 26.414 26.64C26.7553 26.256 27.1607 25.9627 27.63 25.76C28.11 25.5573 28.6487 25.456 29.246 25.456C29.8433 25.456 30.382 25.5573 30.862 25.76C31.342 25.9627 31.7473 26.256 32.078 26.64C32.4193 27.0133 32.6807 27.4667 32.862 28C33.0433 28.5333 33.134 29.136 33.134 29.808C33.134 30.48 33.0433 31.088 32.862 31.632C32.6807 32.1653 32.4193 32.624 32.078 33.008C31.7473 33.392 31.342 33.6853 30.862 33.888C30.382 34.0907 29.8433 34.192 29.246 34.192ZM29.246 32.544C29.79 32.544 30.2167 32.3787 30.526 32.048C30.8353 31.7173 30.99 31.232 30.99 30.592V29.04C30.99 28.4107 30.8353 27.9307 30.526 27.6C30.2167 27.2693 29.79 27.104 29.246 27.104C28.7127 27.104 28.2913 27.2693 27.982 27.6C27.6727 27.9307 27.518 28.4107 27.518 29.04V30.592C27.518 31.232 27.6727 31.7173 27.982 32.048C28.2913 32.3787 28.7127 32.544 29.246 32.544ZM34.9496 34V25.648H36.9976V27.376H37.0776C37.131 27.152 37.211 26.9387 37.3176 26.736C37.435 26.5227 37.5843 26.336 37.7656 26.176C37.947 26.016 38.1603 25.888 38.4056 25.792C38.6616 25.696 38.955 25.648 39.2856 25.648H39.7336V27.584H39.0936C38.4003 27.584 37.8776 27.6853 37.5256 27.888C37.1736 28.0907 36.9976 28.4213 36.9976 28.88V34H34.9496ZM41.2309 34V25.648H43.2789V27.04H43.3589C43.5295 26.592 43.7962 26.2187 44.1589 25.92C44.5322 25.6107 45.0442 25.456 45.6949 25.456C46.5589 25.456 47.2202 25.7387 47.6789 26.304C48.1375 26.8693 48.3669 27.6747 48.3669 28.72V34H46.3189V28.928C46.3189 28.3307 46.2122 27.8827 45.9989 27.584C45.7855 27.2853 45.4335 27.136 44.9429 27.136C44.7295 27.136 44.5215 27.168 44.3189 27.232C44.1269 27.2853 43.9509 27.3707 43.7909 27.488C43.6415 27.5947 43.5189 27.7333 43.4229 27.904C43.3269 28.064 43.2789 28.256 43.2789 28.48V34H41.2309ZM56.7811 34C56.3331 34 55.9758 33.872 55.7091 33.616C55.4531 33.3493 55.2931 32.9973 55.2291 32.56H55.1331C54.9945 33.104 54.7118 33.5147 54.2851 33.792C53.8585 34.0587 53.3305 34.192 52.7011 34.192C51.8478 34.192 51.1918 33.968 50.7331 33.52C50.2745 33.072 50.0451 32.4747 50.0451 31.728C50.0451 30.864 50.3545 30.224 50.9731 29.808C51.5918 29.3813 52.4718 29.168 53.6131 29.168H55.0371V28.56C55.0371 28.0907 54.9145 27.728 54.6691 27.472C54.4238 27.216 54.0291 27.088 53.4851 27.088C53.0051 27.088 52.6158 27.1947 52.3171 27.408C52.0291 27.6107 51.7838 27.856 51.5811 28.144L50.3651 27.056C50.6745 26.576 51.0851 26.192 51.5971 25.904C52.1091 25.6053 52.7865 25.456 53.6291 25.456C54.7598 25.456 55.6185 25.712 56.2051 26.224C56.7918 26.736 57.0851 27.472 57.0851 28.432V32.368H57.9171V34H56.7811ZM53.3891 32.704C53.8478 32.704 54.2371 32.6027 54.5571 32.4C54.8771 32.1973 55.0371 31.8987 55.0371 31.504V30.4H53.7251C52.6585 30.4 52.1251 30.7413 52.1251 31.424V31.696C52.1251 32.0373 52.2318 32.2933 52.4451 32.464C52.6691 32.624 52.9838 32.704 53.3891 32.704ZM61.226 34L58.442 25.648H60.458L61.626 29.248L62.442 32.224H62.554L63.37 29.248L64.506 25.648H66.458L63.658 34H61.226ZM67.8246 34V25.648H69.8726V27.04H69.9526C70.1233 26.592 70.39 26.2187 70.7526 25.92C71.126 25.6107 71.638 25.456 72.2886 25.456C73.1526 25.456 73.814 25.7387 74.2726 26.304C74.7313 26.8693 74.9606 27.6747 74.9606 28.72V34H72.9126V28.928C72.9126 28.3307 72.806 27.8827 72.5926 27.584C72.3793 27.2853 72.0273 27.136 71.5366 27.136C71.3233 27.136 71.1153 27.168 70.9126 27.232C70.7206 27.2853 70.5446 27.3707 70.3846 27.488C70.2353 27.5947 70.1126 27.7333 70.0166 27.904C69.9206 28.064 69.8726 28.256 69.8726 28.48V34H67.8246Z" fill="#1A1A1A"/>
<path d="M16.5 56C16.5 51.8579 19.8579 48.5 24 48.5H328C332.142 48.5 335.5 51.8579 335.5 56V80C335.5 84.1421 332.142 87.5 328 87.5H24C19.8579 87.5 16.5 84.1421 16.5 80V56Z" fill="white"/>
<path d="M16.5 56C16.5 51.8579 19.8579 48.5 24 48.5H328C332.142 48.5 335.5 51.8579 335.5 56V80C335.5 84.1421 332.142 87.5 328 87.5H24C19.8579 87.5 16.5 84.1421 16.5 80V56Z" stroke="#8E8E8E"/>
<path d="M20.624 110.192C19.7173 110.192 18.944 110.021 18.304 109.68C17.664 109.328 17.12 108.848 16.672 108.24L17.664 107.408C18.0587 107.931 18.496 108.331 18.976 108.608C19.456 108.875 20.0213 109.008 20.672 109.008C21.472 109.008 22.08 108.816 22.496 108.432C22.9227 108.048 23.136 107.536 23.136 106.896C23.136 106.363 22.976 105.952 22.656 105.664C22.336 105.376 21.808 105.147 21.072 104.976L20.16 104.768C19.136 104.533 18.352 104.181 17.808 103.712C17.2747 103.232 17.008 102.56 17.008 101.696C17.008 101.205 17.0987 100.768 17.28 100.384C17.4613 100 17.712 99.68 18.032 99.424C18.3627 99.168 18.752 98.976 19.2 98.848C19.6587 98.7093 20.16 98.64 20.704 98.64C21.5467 98.64 22.2667 98.7947 22.864 99.104C23.472 99.4133 23.984 99.8667 24.4 100.464L23.392 101.2C23.0827 100.773 22.7093 100.437 22.272 100.192C21.8347 99.9467 21.2907 99.824 20.64 99.824C19.9253 99.824 19.36 99.9787 18.944 100.288C18.5387 100.587 18.336 101.04 18.336 101.648C18.336 102.181 18.5067 102.587 18.848 102.864C19.2 103.131 19.728 103.344 20.432 103.504L21.344 103.712C22.4427 103.957 23.2373 104.331 23.728 104.832C24.2187 105.333 24.464 106 24.464 106.832C24.464 107.344 24.3733 107.808 24.192 108.224C24.0213 108.64 23.7707 108.992 23.44 109.28C23.1093 109.568 22.704 109.792 22.224 109.952C21.7547 110.112 21.2213 110.192 20.624 110.192ZM26.6569 98.16H27.9369V105.664H28.0009L29.2649 104.256L31.6009 101.744H33.1529L30.0969 105.008L33.4569 110H31.9049L29.1689 105.792L27.9369 107.056V110H26.6569V98.16ZM35.0944 110V101.744H36.3744V103.264H36.4544C36.6037 102.869 36.8704 102.517 37.2544 102.208C37.6384 101.899 38.1664 101.744 38.8384 101.744H39.3344V103.024H38.5824C37.889 103.024 37.345 103.157 36.9504 103.424C36.5664 103.68 36.3744 104.005 36.3744 104.4V110H35.0944ZM41.6094 99.808C41.332 99.808 41.1294 99.744 41.0014 99.616C40.884 99.4773 40.8254 99.3013 40.8254 99.088V98.88C40.8254 98.6667 40.884 98.496 41.0014 98.368C41.1294 98.2293 41.332 98.16 41.6094 98.16C41.8867 98.16 42.084 98.2293 42.2014 98.368C42.3294 98.496 42.3934 98.6667 42.3934 98.88V99.088C42.3934 99.3013 42.3294 99.4773 42.2014 99.616C42.084 99.744 41.8867 99.808 41.6094 99.808ZM40.9694 101.744H42.2494V110H40.9694V101.744ZM46.7934 110L43.8974 101.744H45.1774L46.6174 105.84L47.5134 108.656H47.5934L48.4894 105.84L49.9614 101.744H51.1934L48.2814 110H46.7934ZM57.0736 102.864H55.7296V101.744H57.0736V100.08C57.0736 99.504 57.223 99.04 57.5216 98.688C57.8203 98.336 58.2736 98.16 58.8816 98.16H60.1296V99.28H58.3536V101.744H60.1296V102.864H58.3536V110H57.0736V102.864ZM64.8706 110.192C64.316 110.192 63.8093 110.091 63.3506 109.888C62.892 109.685 62.4973 109.397 62.1666 109.024C61.8466 108.64 61.596 108.187 61.4146 107.664C61.2333 107.131 61.1426 106.533 61.1426 105.872C61.1426 105.221 61.2333 104.629 61.4146 104.096C61.596 103.563 61.8466 103.109 62.1666 102.736C62.4973 102.352 62.892 102.059 63.3506 101.856C63.8093 101.653 64.316 101.552 64.8706 101.552C65.4253 101.552 65.9266 101.653 66.3746 101.856C66.8333 102.059 67.228 102.352 67.5586 102.736C67.8893 103.109 68.1453 103.563 68.3266 104.096C68.508 104.629 68.5986 105.221 68.5986 105.872C68.5986 106.533 68.508 107.131 68.3266 107.664C68.1453 108.187 67.8893 108.64 67.5586 109.024C67.228 109.397 66.8333 109.685 66.3746 109.888C65.9266 110.091 65.4253 110.192 64.8706 110.192ZM64.8706 109.056C65.564 109.056 66.1293 108.843 66.5666 108.416C67.004 107.989 67.2226 107.339 67.2226 106.464V105.28C67.2226 104.405 67.004 103.755 66.5666 103.328C66.1293 102.901 65.564 102.688 64.8706 102.688C64.1773 102.688 63.612 102.901 63.1746 103.328C62.7373 103.755 62.5186 104.405 62.5186 105.28V106.464C62.5186 107.339 62.7373 107.989 63.1746 108.416C63.612 108.843 64.1773 109.056 64.8706 109.056ZM70.7038 110V101.744H71.9838V103.264H72.0638C72.2131 102.869 72.4798 102.517 72.8638 102.208C73.2478 101.899 73.7758 101.744 74.4478 101.744H74.9438V103.024H74.1918C73.4984 103.024 72.9544 103.157 72.5598 103.424C72.1758 103.68 71.9838 104.005 71.9838 104.4V110H70.7038ZM76.5788 110V101.744H77.8588V103.088H77.9228C78.1254 102.619 78.4081 102.245 78.7708 101.968C79.1441 101.691 79.6401 101.552 80.2588 101.552C81.1121 101.552 81.7841 101.829 82.2748 102.384C82.7761 102.928 83.0268 103.701 83.0268 104.704V110H81.7468V104.928C81.7468 103.445 81.1228 102.704 79.8748 102.704C79.6188 102.704 79.3681 102.736 79.1228 102.8C78.8881 102.864 78.6748 102.96 78.4828 103.088C78.2908 103.216 78.1361 103.381 78.0188 103.584C77.9121 103.776 77.8588 104.005 77.8588 104.272V110H76.5788ZM91.6725 110C91.1925 110 90.8458 109.872 90.6325 109.616C90.4298 109.36 90.3018 109.04 90.2485 108.656H90.1685C89.9872 109.168 89.6885 109.552 89.2725 109.808C88.8565 110.064 88.3605 110.192 87.7845 110.192C86.9098 110.192 86.2272 109.968 85.7365 109.52C85.2565 109.072 85.0165 108.464 85.0165 107.696C85.0165 106.917 85.2992 106.32 85.8645 105.904C86.4405 105.488 87.3312 105.28 88.5365 105.28H90.1685V104.464C90.1685 103.877 90.0085 103.429 89.6885 103.12C89.3685 102.811 88.8778 102.656 88.2165 102.656C87.7152 102.656 87.2938 102.768 86.9525 102.992C86.6218 103.216 86.3445 103.515 86.1205 103.888L85.3525 103.168C85.5765 102.72 85.9338 102.341 86.4245 102.032C86.9152 101.712 87.5338 101.552 88.2805 101.552C89.2832 101.552 90.0618 101.797 90.6165 102.288C91.1712 102.779 91.4485 103.461 91.4485 104.336V108.88H92.3925V110H91.6725ZM87.9925 109.104C88.3125 109.104 88.6058 109.067 88.8725 108.992C89.1392 108.917 89.3685 108.811 89.5605 108.672C89.7525 108.533 89.9018 108.373 90.0085 108.192C90.1152 108.011 90.1685 107.813 90.1685 107.6V106.24H88.4725C87.7365 106.24 87.1978 106.347 86.8565 106.56C86.5258 106.773 86.3605 107.083 86.3605 107.488V107.824C86.3605 108.229 86.5045 108.544 86.7925 108.768C87.0912 108.992 87.4912 109.104 87.9925 109.104ZM95.9184 110L93.0224 101.744H94.3024L95.7424 105.84L96.6384 108.656H96.7184L97.6144 105.84L99.0864 101.744H100.318L97.4064 110H95.9184ZM101.969 110V101.744H103.249V103.088H103.313C103.516 102.619 103.799 102.245 104.161 101.968C104.535 101.691 105.031 101.552 105.649 101.552C106.503 101.552 107.175 101.829 107.665 102.384C108.167 102.928 108.417 103.701 108.417 104.704V110H107.137V104.928C107.137 103.445 106.513 102.704 105.265 102.704C105.009 102.704 104.759 102.736 104.513 102.8C104.279 102.864 104.065 102.96 103.873 103.088C103.681 103.216 103.527 103.381 103.409 103.584C103.303 103.776 103.249 104.005 103.249 104.272V110H101.969ZM117.964 110.192C117.41 110.192 116.903 110.091 116.444 109.888C115.986 109.685 115.591 109.397 115.26 109.024C114.94 108.64 114.69 108.187 114.508 107.664C114.327 107.131 114.236 106.533 114.236 105.872C114.236 105.221 114.327 104.629 114.508 104.096C114.69 103.563 114.94 103.109 115.26 102.736C115.591 102.352 115.986 102.059 116.444 101.856C116.903 101.653 117.41 101.552 117.964 101.552C118.519 101.552 119.02 101.653 119.468 101.856C119.927 102.059 120.322 102.352 120.652 102.736C120.983 103.109 121.239 103.563 121.42 104.096C121.602 104.629 121.692 105.221 121.692 105.872C121.692 106.533 121.602 107.131 121.42 107.664C121.239 108.187 120.983 108.64 120.652 109.024C120.322 109.397 119.927 109.685 119.468 109.888C119.02 110.091 118.519 110.192 117.964 110.192ZM117.964 109.056C118.658 109.056 119.223 108.843 119.66 108.416C120.098 107.989 120.316 107.339 120.316 106.464V105.28C120.316 104.405 120.098 103.755 119.66 103.328C119.223 102.901 118.658 102.688 117.964 102.688C117.271 102.688 116.706 102.901 116.268 103.328C115.831 103.755 115.612 104.405 115.612 105.28V106.464C115.612 107.339 115.831 107.989 116.268 108.416C116.706 108.843 117.271 109.056 117.964 109.056ZM130.758 110.912C130.758 111.765 130.422 112.389 129.75 112.784C129.088 113.189 128.091 113.392 126.758 113.392C125.467 113.392 124.539 113.216 123.974 112.864C123.408 112.512 123.126 112.011 123.126 111.36C123.126 110.912 123.243 110.56 123.478 110.304C123.712 110.059 124.032 109.877 124.438 109.76V109.584C123.947 109.349 123.702 108.965 123.702 108.432C123.702 108.016 123.835 107.701 124.102 107.488C124.368 107.264 124.71 107.099 125.126 106.992V106.928C124.635 106.693 124.251 106.357 123.974 105.92C123.707 105.483 123.574 104.976 123.574 104.4C123.574 103.984 123.648 103.6 123.798 103.248C123.947 102.896 124.155 102.597 124.422 102.352C124.699 102.096 125.024 101.899 125.398 101.76C125.782 101.621 126.208 101.552 126.678 101.552C127.264 101.552 127.787 101.659 128.246 101.872V101.728C128.246 101.408 128.32 101.147 128.47 100.944C128.619 100.731 128.864 100.624 129.206 100.624H130.438V101.744H128.87V102.272C129.168 102.528 129.398 102.837 129.558 103.2C129.728 103.552 129.814 103.952 129.814 104.4C129.814 104.816 129.739 105.2 129.59 105.552C129.44 105.904 129.227 106.208 128.95 106.464C128.683 106.709 128.358 106.901 127.974 107.04C127.59 107.179 127.163 107.248 126.694 107.248C126.427 107.248 126.16 107.221 125.894 107.168C125.616 107.243 125.366 107.355 125.142 107.504C124.918 107.643 124.806 107.84 124.806 108.096C124.806 108.341 124.923 108.507 125.158 108.592C125.392 108.677 125.696 108.72 126.07 108.72H127.83C128.854 108.72 129.595 108.917 130.054 109.312C130.523 109.696 130.758 110.229 130.758 110.912ZM129.558 111.008C129.558 110.677 129.43 110.411 129.174 110.208C128.928 110.016 128.486 109.92 127.846 109.92H125.094C124.582 110.155 124.326 110.528 124.326 111.04C124.326 111.403 124.459 111.712 124.726 111.968C125.003 112.224 125.467 112.352 126.118 112.352H127.302C128.016 112.352 128.571 112.24 128.966 112.016C129.36 111.792 129.558 111.456 129.558 111.008ZM126.694 106.224C127.238 106.224 127.67 106.096 127.99 105.84C128.31 105.573 128.47 105.168 128.47 104.624V104.176C128.47 103.632 128.31 103.232 127.99 102.976C127.67 102.709 127.238 102.576 126.694 102.576C126.15 102.576 125.718 102.709 125.398 102.976C125.078 103.232 124.918 103.632 124.918 104.176V104.624C124.918 105.168 125.078 105.573 125.398 105.84C125.718 106.096 126.15 106.224 126.694 106.224ZM139.136 110.192C138.571 110.192 138.059 110.091 137.6 109.888C137.152 109.685 136.763 109.397 136.432 109.024C136.112 108.64 135.861 108.187 135.68 107.664C135.509 107.131 135.424 106.533 135.424 105.872C135.424 105.221 135.509 104.629 135.68 104.096C135.861 103.563 136.112 103.109 136.432 102.736C136.763 102.352 137.152 102.059 137.6 101.856C138.059 101.653 138.571 101.552 139.136 101.552C139.691 101.552 140.187 101.653 140.624 101.856C141.061 102.059 141.435 102.341 141.744 102.704C142.053 103.056 142.288 103.477 142.448 103.968C142.619 104.459 142.704 104.997 142.704 105.584V106.192H136.768V106.576C136.768 106.928 136.821 107.259 136.928 107.568C137.045 107.867 137.205 108.128 137.408 108.352C137.621 108.576 137.877 108.752 138.176 108.88C138.485 109.008 138.832 109.072 139.216 109.072C139.739 109.072 140.192 108.949 140.576 108.704C140.971 108.459 141.275 108.107 141.488 107.648L142.4 108.304C142.133 108.869 141.717 109.328 141.152 109.68C140.587 110.021 139.915 110.192 139.136 110.192ZM139.136 102.624C138.784 102.624 138.464 102.688 138.176 102.816C137.888 102.933 137.637 103.104 137.424 103.328C137.221 103.552 137.061 103.819 136.944 104.128C136.827 104.427 136.768 104.757 136.768 105.12V105.232H141.328V105.056C141.328 104.32 141.125 103.733 140.72 103.296C140.325 102.848 139.797 102.624 139.136 102.624ZM146.512 110L143.616 101.744H144.896L146.336 105.84L147.232 108.656H147.312L148.208 105.84L149.68 101.744H150.912L148 110H146.512ZM154.434 110C153.986 110 153.645 109.877 153.41 109.632C153.186 109.376 153.074 109.045 153.074 108.64V102.864H151.714V101.744H152.482C152.759 101.744 152.946 101.691 153.042 101.584C153.149 101.467 153.202 101.269 153.202 100.992V99.456H154.354V101.744H156.162V102.864H154.354V108.88H156.034V110H154.434ZM159.035 110.192C158.694 110.192 158.443 110.107 158.283 109.936C158.134 109.765 158.059 109.541 158.059 109.264V109.056C158.059 108.779 158.134 108.555 158.283 108.384C158.443 108.213 158.694 108.128 159.035 108.128C159.377 108.128 159.622 108.213 159.771 108.384C159.931 108.555 160.011 108.779 160.011 109.056V109.264C160.011 109.541 159.931 109.765 159.771 109.936C159.622 110.107 159.377 110.192 159.035 110.192ZM166.36 110V101.744H167.64V103.088H167.704C167.8 102.875 167.907 102.677 168.024 102.496C168.152 102.304 168.301 102.139 168.472 102C168.653 101.861 168.861 101.755 169.096 101.68C169.331 101.595 169.608 101.552 169.928 101.552C170.472 101.552 170.973 101.685 171.432 101.952C171.891 102.208 172.232 102.635 172.456 103.232H172.488C172.637 102.784 172.915 102.395 173.32 102.064C173.736 101.723 174.296 101.552 175 101.552C175.843 101.552 176.499 101.829 176.968 102.384C177.448 102.928 177.688 103.701 177.688 104.704V110H176.408V104.928C176.408 104.192 176.264 103.637 175.976 103.264C175.688 102.891 175.229 102.704 174.6 102.704C174.344 102.704 174.099 102.736 173.864 102.8C173.64 102.864 173.437 102.96 173.256 103.088C173.075 103.216 172.931 103.381 172.824 103.584C172.717 103.776 172.664 104.005 172.664 104.272V110H171.384V104.928C171.384 104.192 171.24 103.637 170.952 103.264C170.664 102.891 170.216 102.704 169.608 102.704C169.352 102.704 169.107 102.736 168.872 102.8C168.637 102.864 168.429 102.96 168.248 103.088C168.067 103.216 167.917 103.381 167.8 103.584C167.693 103.776 167.64 104.005 167.64 104.272V110H166.36ZM183.433 110.192C182.867 110.192 182.355 110.091 181.897 109.888C181.449 109.685 181.059 109.397 180.729 109.024C180.409 108.64 180.158 108.187 179.977 107.664C179.806 107.131 179.721 106.533 179.721 105.872C179.721 105.221 179.806 104.629 179.977 104.096C180.158 103.563 180.409 103.109 180.729 102.736C181.059 102.352 181.449 102.059 181.897 101.856C182.355 101.653 182.867 101.552 183.433 101.552C183.987 101.552 184.483 101.653 184.921 101.856C185.358 102.059 185.731 102.341 186.041 102.704C186.35 103.056 186.585 103.477 186.745 103.968C186.915 104.459 187.001 104.997 187.001 105.584V106.192H181.065V106.576C181.065 106.928 181.118 107.259 181.225 107.568C181.342 107.867 181.502 108.128 181.705 108.352C181.918 108.576 182.174 108.752 182.473 108.88C182.782 109.008 183.129 109.072 183.513 109.072C184.035 109.072 184.489 108.949 184.873 108.704C185.267 108.459 185.571 108.107 185.785 107.648L186.697 108.304C186.43 108.869 186.014 109.328 185.449 109.68C184.883 110.021 184.211 110.192 183.433 110.192ZM183.433 102.624C183.081 102.624 182.761 102.688 182.473 102.816C182.185 102.933 181.934 103.104 181.721 103.328C181.518 103.552 181.358 103.819 181.241 104.128C181.123 104.427 181.065 104.757 181.065 105.12V105.232H185.625V105.056C185.625 104.32 185.422 103.733 185.017 103.296C184.622 102.848 184.094 102.624 183.433 102.624ZM190.47 110C190.022 110 189.681 109.877 189.446 109.632C189.222 109.376 189.11 109.056 189.11 108.672V98.16H190.39V108.88H191.606V110H190.47ZM194.751 110C194.303 110 193.962 109.877 193.727 109.632C193.503 109.376 193.391 109.056 193.391 108.672V98.16H194.671V108.88H195.887V110H194.751ZM200.855 110.192C200.289 110.192 199.777 110.091 199.319 109.888C198.871 109.685 198.481 109.397 198.151 109.024C197.831 108.64 197.58 108.187 197.399 107.664C197.228 107.131 197.143 106.533 197.143 105.872C197.143 105.221 197.228 104.629 197.399 104.096C197.58 103.563 197.831 103.109 198.151 102.736C198.481 102.352 198.871 102.059 199.319 101.856C199.777 101.653 200.289 101.552 200.855 101.552C201.409 101.552 201.905 101.653 202.343 101.856C202.78 102.059 203.153 102.341 203.463 102.704C203.772 103.056 204.007 103.477 204.167 103.968C204.337 104.459 204.423 104.997 204.423 105.584V106.192H198.487V106.576C198.487 106.928 198.54 107.259 198.647 107.568C198.764 107.867 198.924 108.128 199.127 108.352C199.34 108.576 199.596 108.752 199.895 108.88C200.204 109.008 200.551 109.072 200.935 109.072C201.457 109.072 201.911 108.949 202.295 108.704C202.689 108.459 202.993 108.107 203.207 107.648L204.119 108.304C203.852 108.869 203.436 109.328 202.871 109.68C202.305 110.021 201.633 110.192 200.855 110.192ZM200.855 102.624C200.503 102.624 200.183 102.688 199.895 102.816C199.607 102.933 199.356 103.104 199.143 103.328C198.94 103.552 198.78 103.819 198.663 104.128C198.545 104.427 198.487 104.757 198.487 105.12V105.232H203.047V105.056C203.047 104.32 202.844 103.733 202.439 103.296C202.044 102.848 201.516 102.624 200.855 102.624ZM206.532 110V101.744H207.812V103.088H207.876C207.972 102.875 208.079 102.677 208.196 102.496C208.324 102.304 208.473 102.139 208.644 102C208.825 101.861 209.033 101.755 209.268 101.68C209.503 101.595 209.78 101.552 210.1 101.552C210.644 101.552 211.145 101.685 211.604 101.952C212.063 102.208 212.404 102.635 212.628 103.232H212.66C212.809 102.784 213.087 102.395 213.492 102.064C213.908 101.723 214.468 101.552 215.172 101.552C216.015 101.552 216.671 101.829 217.14 102.384C217.62 102.928 217.86 103.701 217.86 104.704V110H216.58V104.928C216.58 104.192 216.436 103.637 216.148 103.264C215.86 102.891 215.401 102.704 214.772 102.704C214.516 102.704 214.271 102.736 214.036 102.8C213.812 102.864 213.609 102.96 213.428 103.088C213.247 103.216 213.103 103.381 212.996 103.584C212.889 103.776 212.836 104.005 212.836 104.272V110H211.556V104.928C211.556 104.192 211.412 103.637 211.124 103.264C210.836 102.891 210.388 102.704 209.78 102.704C209.524 102.704 209.279 102.736 209.044 102.8C208.809 102.864 208.601 102.96 208.42 103.088C208.239 103.216 208.089 103.381 207.972 103.584C207.865 103.776 207.812 104.005 207.812 104.272V110H206.532ZM220.501 110V101.744H221.781V103.088H221.845C222.047 102.619 222.33 102.245 222.693 101.968C223.066 101.691 223.562 101.552 224.181 101.552C225.034 101.552 225.706 101.829 226.197 102.384C226.698 102.928 226.949 103.701 226.949 104.704V110H225.669V104.928C225.669 103.445 225.045 102.704 223.797 102.704C223.541 102.704 223.29 102.736 223.045 102.8C222.81 102.864 222.597 102.96 222.405 103.088C222.213 103.216 222.058 103.381 221.941 103.584C221.834 103.776 221.781 104.005 221.781 104.272V110H220.501ZM235.594 110C235.114 110 234.768 109.872 234.554 109.616C234.352 109.36 234.224 109.04 234.17 108.656H234.09C233.909 109.168 233.61 109.552 233.194 109.808C232.778 110.064 232.282 110.192 231.706 110.192C230.832 110.192 230.149 109.968 229.658 109.52C229.178 109.072 228.938 108.464 228.938 107.696C228.938 106.917 229.221 106.32 229.786 105.904C230.362 105.488 231.253 105.28 232.458 105.28H234.09V104.464C234.09 103.877 233.93 103.429 233.61 103.12C233.29 102.811 232.8 102.656 232.138 102.656C231.637 102.656 231.216 102.768 230.874 102.992C230.544 103.216 230.266 103.515 230.042 103.888L229.274 103.168C229.498 102.72 229.856 102.341 230.346 102.032C230.837 101.712 231.456 101.552 232.202 101.552C233.205 101.552 233.984 101.797 234.538 102.288C235.093 102.779 235.37 103.461 235.37 104.336V108.88H236.314V110H235.594ZM231.914 109.104C232.234 109.104 232.528 109.067 232.794 108.992C233.061 108.917 233.29 108.811 233.482 108.672C233.674 108.533 233.824 108.373 233.93 108.192C234.037 108.011 234.09 107.813 234.09 107.6V106.24H232.394C231.658 106.24 231.12 106.347 230.778 106.56C230.448 106.773 230.282 107.083 230.282 107.488V107.824C230.282 108.229 230.426 108.544 230.714 108.768C231.013 108.992 231.413 109.104 231.914 109.104ZM239.84 110L236.944 101.744H238.224L239.664 105.84L240.56 108.656H240.64L241.536 105.84L243.008 101.744H244.24L241.328 110H239.84ZM245.891 110V101.744H247.171V103.088H247.235C247.438 102.619 247.721 102.245 248.083 101.968C248.457 101.691 248.953 101.552 249.571 101.552C250.425 101.552 251.097 101.829 251.587 102.384C252.089 102.928 252.339 103.701 252.339 104.704V110H251.059V104.928C251.059 103.445 250.435 102.704 249.187 102.704C248.931 102.704 248.681 102.736 248.435 102.8C248.201 102.864 247.987 102.96 247.795 103.088C247.603 103.216 247.449 103.381 247.331 103.584C247.225 103.776 247.171 104.005 247.171 104.272V110H245.891ZM254.953 105.008C254.953 104.24 255.028 103.499 255.177 102.784C255.326 102.069 255.529 101.408 255.785 100.8C256.052 100.181 256.361 99.6213 256.713 99.12C257.065 98.6187 257.444 98.192 257.849 97.84H259.065C258.617 98.2453 258.212 98.704 257.849 99.216C257.497 99.728 257.193 100.272 256.937 100.848C256.692 101.424 256.5 102.011 256.361 102.608C256.222 103.205 256.153 103.781 256.153 104.336V105.712C256.153 106.277 256.222 106.859 256.361 107.456C256.5 108.053 256.697 108.64 256.953 109.216C257.209 109.792 257.513 110.336 257.865 110.848C258.228 111.36 258.628 111.808 259.065 112.192H257.849C257.454 111.861 257.081 111.445 256.729 110.944C256.377 110.443 256.068 109.883 255.801 109.264C255.545 108.645 255.337 107.979 255.177 107.264C255.028 106.539 254.953 105.787 254.953 105.008ZM263.448 110.192C262.883 110.192 262.371 110.091 261.912 109.888C261.464 109.685 261.075 109.397 260.744 109.024C260.424 108.64 260.174 108.187 259.992 107.664C259.822 107.131 259.736 106.533 259.736 105.872C259.736 105.221 259.822 104.629 259.992 104.096C260.174 103.563 260.424 103.109 260.744 102.736C261.075 102.352 261.464 102.059 261.912 101.856C262.371 101.653 262.883 101.552 263.448 101.552C264.003 101.552 264.499 101.653 264.936 101.856C265.374 102.059 265.747 102.341 266.056 102.704C266.366 103.056 266.6 103.477 266.76 103.968C266.931 104.459 267.016 104.997 267.016 105.584V106.192H261.08V106.576C261.08 106.928 261.134 107.259 261.24 107.568C261.358 107.867 261.518 108.128 261.72 108.352C261.934 108.576 262.19 108.752 262.488 108.88C262.798 109.008 263.144 109.072 263.528 109.072C264.051 109.072 264.504 108.949 264.888 108.704C265.283 108.459 265.587 108.107 265.8 107.648L266.712 108.304C266.446 108.869 266.03 109.328 265.464 109.68C264.899 110.021 264.227 110.192 263.448 110.192ZM263.448 102.624C263.096 102.624 262.776 102.688 262.488 102.816C262.2 102.933 261.95 103.104 261.736 103.328C261.534 103.552 261.374 103.819 261.256 104.128C261.139 104.427 261.08 104.757 261.08 105.12V105.232H265.64V105.056C265.64 104.32 265.438 103.733 265.032 103.296C264.638 102.848 264.11 102.624 263.448 102.624ZM271.798 105.008C271.798 105.787 271.718 106.539 271.558 107.264C271.408 107.979 271.2 108.645 270.934 109.264C270.678 109.883 270.374 110.443 270.022 110.944C269.67 111.445 269.296 111.861 268.902 112.192H267.686C268.123 111.808 268.518 111.36 268.87 110.848C269.232 110.336 269.542 109.792 269.798 109.216C270.054 108.64 270.251 108.053 270.39 107.456C270.528 106.859 270.598 106.277 270.598 105.712V104.336C270.598 103.781 270.528 103.205 270.39 102.608C270.251 102.011 270.054 101.424 269.798 100.848C269.552 100.272 269.248 99.728 268.886 99.216C268.534 98.704 268.134 98.2453 267.686 97.84H268.902C269.307 98.192 269.686 98.6187 270.038 99.12C270.39 99.6213 270.694 100.181 270.95 100.8C271.216 101.408 271.424 102.069 271.574 102.784C271.723 103.499 271.798 104.24 271.798 105.008ZM280.746 110.192C279.978 110.192 279.333 110.048 278.81 109.76C278.298 109.461 277.856 109.067 277.482 108.576L278.394 107.84C278.714 108.245 279.072 108.56 279.466 108.784C279.861 108.997 280.32 109.104 280.842 109.104C281.386 109.104 281.808 108.987 282.106 108.752C282.416 108.517 282.57 108.187 282.57 107.76C282.57 107.44 282.464 107.168 282.25 106.944C282.048 106.709 281.674 106.549 281.13 106.464L280.474 106.368C280.09 106.315 279.738 106.235 279.418 106.128C279.098 106.011 278.816 105.861 278.57 105.68C278.336 105.488 278.149 105.253 278.01 104.976C277.882 104.699 277.818 104.368 277.818 103.984C277.818 103.579 277.893 103.227 278.042 102.928C278.192 102.619 278.394 102.363 278.65 102.16C278.917 101.957 279.232 101.808 279.594 101.712C279.957 101.605 280.346 101.552 280.762 101.552C281.434 101.552 281.994 101.669 282.442 101.904C282.901 102.139 283.301 102.464 283.642 102.88L282.794 103.648C282.613 103.392 282.346 103.163 281.994 102.96C281.642 102.747 281.2 102.64 280.666 102.64C280.133 102.64 279.728 102.757 279.45 102.992C279.184 103.216 279.05 103.525 279.05 103.92C279.05 104.325 279.184 104.619 279.45 104.8C279.728 104.981 280.122 105.115 280.634 105.2L281.274 105.296C282.192 105.435 282.842 105.701 283.226 106.096C283.61 106.48 283.802 106.987 283.802 107.616C283.802 108.416 283.53 109.045 282.986 109.504C282.442 109.963 281.696 110.192 280.746 110.192ZM289.183 110.192C288.628 110.192 288.122 110.091 287.663 109.888C287.204 109.685 286.81 109.397 286.479 109.024C286.159 108.64 285.908 108.187 285.727 107.664C285.546 107.131 285.455 106.533 285.455 105.872C285.455 105.221 285.546 104.629 285.727 104.096C285.908 103.563 286.159 103.109 286.479 102.736C286.81 102.352 287.204 102.059 287.663 101.856C288.122 101.653 288.628 101.552 289.183 101.552C289.738 101.552 290.239 101.653 290.687 101.856C291.146 102.059 291.54 102.352 291.871 102.736C292.202 103.109 292.458 103.563 292.639 104.096C292.82 104.629 292.911 105.221 292.911 105.872C292.911 106.533 292.82 107.131 292.639 107.664C292.458 108.187 292.202 108.64 291.871 109.024C291.54 109.397 291.146 109.685 290.687 109.888C290.239 110.091 289.738 110.192 289.183 110.192ZM289.183 109.056C289.876 109.056 290.442 108.843 290.879 108.416C291.316 107.989 291.535 107.339 291.535 106.464V105.28C291.535 104.405 291.316 103.755 290.879 103.328C290.442 102.901 289.876 102.688 289.183 102.688C288.49 102.688 287.924 102.901 287.487 103.328C287.05 103.755 286.831 104.405 286.831 105.28V106.464C286.831 107.339 287.05 107.989 287.487 108.416C287.924 108.843 288.49 109.056 289.183 109.056ZM295.016 110V101.744H296.296V103.088H296.36C296.456 102.875 296.563 102.677 296.68 102.496C296.808 102.304 296.958 102.139 297.128 102C297.31 101.861 297.518 101.755 297.752 101.68C297.987 101.595 298.264 101.552 298.584 101.552C299.128 101.552 299.63 101.685 300.088 101.952C300.547 102.208 300.888 102.635 301.112 103.232H301.144C301.294 102.784 301.571 102.395 301.976 102.064C302.392 101.723 302.952 101.552 303.656 101.552C304.499 101.552 305.155 101.829 305.624 102.384C306.104 102.928 306.344 103.701 306.344 104.704V110H305.064V104.928C305.064 104.192 304.92 103.637 304.632 103.264C304.344 102.891 303.886 102.704 303.256 102.704C303 102.704 302.755 102.736 302.52 102.8C302.296 102.864 302.094 102.96 301.912 103.088C301.731 103.216 301.587 103.381 301.48 103.584C301.374 103.776 301.32 104.005 301.32 104.272V110H300.04V104.928C300.04 104.192 299.896 103.637 299.608 103.264C299.32 102.891 298.872 102.704 298.264 102.704C298.008 102.704 297.763 102.736 297.528 102.8C297.294 102.864 297.086 102.96 296.904 103.088C296.723 103.216 296.574 103.381 296.456 103.584C296.35 103.776 296.296 104.005 296.296 104.272V110H295.016ZM313.406 99.808C313.129 99.808 312.926 99.744 312.798 99.616C312.681 99.4773 312.622 99.3013 312.622 99.088V98.88C312.622 98.6667 312.681 98.496 312.798 98.368C312.926 98.2293 313.129 98.16 313.406 98.16C313.684 98.16 313.881 98.2293 313.998 98.368C314.126 98.496 314.19 98.6667 314.19 98.88V99.088C314.19 99.3013 314.126 99.4773 313.998 99.616C313.881 99.744 313.684 99.808 313.406 99.808ZM312.766 101.744H314.046V110H312.766V101.744ZM325.828 108.656H325.764C325.262 109.68 324.457 110.192 323.348 110.192C322.836 110.192 322.372 110.091 321.956 109.888C321.54 109.685 321.182 109.397 320.884 109.024C320.596 108.651 320.372 108.197 320.212 107.664C320.062 107.131 319.988 106.533 319.988 105.872C319.988 105.211 320.062 104.613 320.212 104.08C320.372 103.547 320.596 103.093 320.884 102.72C321.182 102.347 321.54 102.059 321.956 101.856C322.372 101.653 322.836 101.552 323.348 101.552C323.924 101.552 324.414 101.68 324.82 101.936C325.236 102.181 325.55 102.565 325.764 103.088H325.828V98.16H327.108V110H325.828V108.656ZM323.7 109.04C323.988 109.04 324.26 109.003 324.516 108.928C324.782 108.853 325.012 108.747 325.204 108.608C325.396 108.459 325.545 108.283 325.652 108.08C325.769 107.867 325.828 107.627 325.828 107.36V104.288C325.828 104.064 325.769 103.856 325.652 103.664C325.545 103.461 325.396 103.291 325.204 103.152C325.012 103.013 324.782 102.907 324.516 102.832C324.26 102.747 323.988 102.704 323.7 102.704C322.974 102.704 322.404 102.933 321.988 103.392C321.572 103.84 321.364 104.432 321.364 105.168V106.576C321.364 107.312 321.572 107.909 321.988 108.368C322.404 108.816 322.974 109.04 323.7 109.04ZM330.469 99.808C330.191 99.808 329.989 99.744 329.861 99.616C329.743 99.4773 329.685 99.3013 329.685 99.088V98.88C329.685 98.6667 329.743 98.496 329.861 98.368C329.989 98.2293 330.191 98.16 330.469 98.16C330.746 98.16 330.943 98.2293 331.061 98.368C331.189 98.496 331.253 98.6667 331.253 98.88V99.088C331.253 99.3013 331.189 99.4773 331.061 99.616C330.943 99.744 330.746 99.808 330.469 99.808ZM329.829 101.744H331.109V110H329.829V101.744ZM335.653 110C335.205 110 334.863 109.877 334.629 109.632C334.405 109.376 334.293 109.045 334.293 108.64V102.864H332.933V101.744H333.701C333.978 101.744 334.165 101.691 334.261 101.584C334.367 101.467 334.421 101.269 334.421 100.992V99.456H335.573V101.744H337.381V102.864H335.573V108.88H337.253V110H335.653ZM343.219 101.744H344.499V103.088H344.563C344.777 102.565 345.086 102.181 345.491 101.936C345.907 101.68 346.403 101.552 346.979 101.552C347.491 101.552 347.955 101.653 348.371 101.856C348.787 102.059 349.139 102.347 349.427 102.72C349.726 103.093 349.95 103.547 350.099 104.08C350.259 104.613 350.339 105.211 350.339 105.872C350.339 106.533 350.259 107.131 350.099 107.664C349.95 108.197 349.726 108.651 349.427 109.024C349.139 109.397 348.787 109.685 348.371 109.888C347.955 110.091 347.491 110.192 346.979 110.192C345.859 110.192 345.054 109.68 344.563 108.656H344.499V113.2H343.219V101.744ZM346.627 109.04C347.353 109.04 347.923 108.816 348.339 108.368C348.755 107.909 348.963 107.312 348.963 106.576V105.168C348.963 104.432 348.755 103.84 348.339 103.392C347.923 102.933 347.353 102.704 346.627 102.704C346.339 102.704 346.062 102.747 345.795 102.832C345.539 102.907 345.315 103.013 345.123 103.152C344.931 103.291 344.777 103.461 344.659 103.664C344.553 103.856 344.499 104.064 344.499 104.288V107.36C344.499 107.627 344.553 107.867 344.659 108.08C344.777 108.283 344.931 108.459 345.123 108.608C345.315 108.747 345.539 108.853 345.795 108.928C346.062 109.003 346.339 109.04 346.627 109.04ZM358.501 110C358.021 110 357.674 109.872 357.461 109.616C357.258 109.36 357.13 109.04 357.077 108.656H356.997C356.815 109.168 356.517 109.552 356.101 109.808C355.685 110.064 355.189 110.192 354.613 110.192C353.738 110.192 353.055 109.968 352.565 109.52C352.085 109.072 351.845 108.464 351.845 107.696C351.845 106.917 352.127 106.32 352.693 105.904C353.269 105.488 354.159 105.28 355.365 105.28H356.997V104.464C356.997 103.877 356.837 103.429 356.517 103.12C356.197 102.811 355.706 102.656 355.045 102.656C354.543 102.656 354.122 102.768 353.781 102.992C353.45 103.216 353.173 103.515 352.949 103.888L352.181 103.168C352.405 102.72 352.762 102.341 353.253 102.032C353.743 101.712 354.362 101.552 355.109 101.552C356.111 101.552 356.89 101.797 357.445 102.288C357.999 102.779 358.277 103.461 358.277 104.336V108.88H359.221V110H358.501ZM354.821 109.104C355.141 109.104 355.434 109.067 355.701 108.992C355.967 108.917 356.197 108.811 356.389 108.672C356.581 108.533 356.73 108.373 356.837 108.192C356.943 108.011 356.997 107.813 356.997 107.6V106.24H355.301C354.565 106.24 354.026 106.347 353.685 106.56C353.354 106.773 353.189 107.083 353.189 107.488V107.824C353.189 108.229 353.333 108.544 353.621 108.768C353.919 108.992 354.319 109.104 354.821 109.104ZM363.528 110.192C362.76 110.192 362.114 110.048 361.592 109.76C361.08 109.461 360.637 109.067 360.264 108.576L361.176 107.84C361.496 108.245 361.853 108.56 362.248 108.784C362.642 108.997 363.101 109.104 363.624 109.104C364.168 109.104 364.589 108.987 364.888 108.752C365.197 108.517 365.352 108.187 365.352 107.76C365.352 107.44 365.245 107.168 365.032 106.944C364.829 106.709 364.456 106.549 363.911 106.464L363.256 106.368C362.872 106.315 362.52 106.235 362.2 106.128C361.88 106.011 361.597 105.861 361.352 105.68C361.117 105.488 360.93 105.253 360.792 104.976C360.664 104.699 360.6 104.368 360.6 103.984C360.6 103.579 360.674 103.227 360.824 102.928C360.973 102.619 361.176 102.363 361.432 102.16C361.698 101.957 362.013 101.808 362.376 101.712C362.738 101.605 363.128 101.552 363.544 101.552C364.216 101.552 364.776 101.669 365.224 101.904C365.682 102.139 366.082 102.464 366.424 102.88L365.576 103.648C365.394 103.392 365.128 103.163 364.776 102.96C364.424 102.747 363.981 102.64 363.448 102.64C362.914 102.64 362.509 102.757 362.232 102.992C361.965 103.216 361.832 103.525 361.832 103.92C361.832 104.325 361.965 104.619 362.232 104.8C362.509 104.981 362.904 105.115 363.416 105.2L364.056 105.296C364.973 105.435 365.624 105.701 366.008 106.096C366.392 106.48 366.584 106.987 366.584 107.616C366.584 108.416 366.312 109.045 365.768 109.504C365.224 109.963 364.477 110.192 363.528 110.192Z" fill="#707070"/>
<path d="M17.312 158V146.832H24.672V148.704H19.424V151.408H24.064V153.28H19.424V156.128H24.672V158H17.312ZM27.1938 151.264H25.9618V149.648H27.1938V148.448C27.1938 147.712 27.3858 147.147 27.7698 146.752C28.1644 146.357 28.7404 146.16 29.4978 146.16H30.9538V147.792H29.2418V149.648H30.9538V151.264H29.2418V158H27.1938V151.264ZM34.9795 158C34.2755 158 33.7368 157.819 33.3635 157.456C33.0008 157.083 32.8195 156.555 32.8195 155.872V151.28H31.5875V149.648H32.2275C32.5368 149.648 32.7448 149.579 32.8515 149.44C32.9688 149.291 33.0275 149.072 33.0275 148.784V147.36H34.8675V149.648H36.5795V151.28H34.8675V156.368H36.4515V158H34.9795ZM41.6694 158.192C41.0507 158.192 40.496 158.091 40.0054 157.888C39.5254 157.675 39.1147 157.381 38.7734 157.008C38.4427 156.624 38.1867 156.165 38.0054 155.632C37.824 155.088 37.7334 154.48 37.7334 153.808C37.7334 153.147 37.8187 152.549 37.9894 152.016C38.1707 151.483 38.4267 151.029 38.7574 150.656C39.088 150.272 39.4934 149.979 39.9734 149.776C40.4534 149.563 40.9974 149.456 41.6054 149.456C42.256 149.456 42.8214 149.568 43.3014 149.792C43.7814 150.016 44.176 150.32 44.4854 150.704C44.7947 151.088 45.024 151.536 45.1734 152.048C45.3334 152.549 45.4134 153.088 45.4134 153.664V154.336H39.8614V154.544C39.8614 155.152 40.032 155.643 40.3734 156.016C40.7147 156.379 41.2214 156.56 41.8934 156.56C42.4054 156.56 42.8214 156.453 43.1414 156.24C43.472 156.027 43.7654 155.755 44.0214 155.424L45.1254 156.656C44.784 157.136 44.3147 157.515 43.7174 157.792C43.1307 158.059 42.448 158.192 41.6694 158.192ZM41.6374 150.992C41.0934 150.992 40.6614 151.173 40.3414 151.536C40.0214 151.899 39.8614 152.368 39.8614 152.944V153.072H43.2854V152.928C43.2854 152.352 43.1414 151.888 42.8534 151.536C42.576 151.173 42.1707 150.992 41.6374 150.992ZM47.2153 158V149.648H49.2633V151.376H49.3433C49.3966 151.152 49.4766 150.939 49.5833 150.736C49.7006 150.523 49.8499 150.336 50.0312 150.176C50.2126 150.016 50.4259 149.888 50.6713 149.792C50.9273 149.696 51.2206 149.648 51.5513 149.648H51.9993V151.584H51.3593C50.6659 151.584 50.1433 151.685 49.7913 151.888C49.4393 152.091 49.2633 152.421 49.2633 152.88V158H47.2153ZM53.4965 158V149.648H55.5445V151.04H55.6245C55.7952 150.592 56.0618 150.219 56.4245 149.92C56.7978 149.611 57.3098 149.456 57.9605 149.456C58.8245 149.456 59.4858 149.739 59.9445 150.304C60.4032 150.869 60.6325 151.675 60.6325 152.72V158H58.5845V152.928C58.5845 152.331 58.4778 151.883 58.2645 151.584C58.0512 151.285 57.6992 151.136 57.2085 151.136C56.9952 151.136 56.7872 151.168 56.5845 151.232C56.3925 151.285 56.2165 151.371 56.0565 151.488C55.9072 151.595 55.7845 151.733 55.6885 151.904C55.5925 152.064 55.5445 152.256 55.5445 152.48V158H53.4965ZM69.0468 158C68.5988 158 68.2414 157.872 67.9748 157.616C67.7188 157.349 67.5588 156.997 67.4948 156.56H67.3988C67.2601 157.104 66.9774 157.515 66.5508 157.792C66.1241 158.059 65.5961 158.192 64.9668 158.192C64.1134 158.192 63.4574 157.968 62.9988 157.52C62.5401 157.072 62.3108 156.475 62.3108 155.728C62.3108 154.864 62.6201 154.224 63.2388 153.808C63.8574 153.381 64.7374 153.168 65.8788 153.168H67.3028V152.56C67.3028 152.091 67.1801 151.728 66.9348 151.472C66.6894 151.216 66.2948 151.088 65.7508 151.088C65.2708 151.088 64.8814 151.195 64.5828 151.408C64.2948 151.611 64.0494 151.856 63.8468 152.144L62.6308 151.056C62.9401 150.576 63.3508 150.192 63.8628 149.904C64.3748 149.605 65.0521 149.456 65.8948 149.456C67.0254 149.456 67.8841 149.712 68.4708 150.224C69.0574 150.736 69.3508 151.472 69.3508 152.432V156.368H70.1828V158H69.0468ZM65.6548 156.704C66.1134 156.704 66.5028 156.603 66.8228 156.4C67.1428 156.197 67.3028 155.899 67.3028 155.504V154.4H65.9908C64.9241 154.4 64.3908 154.741 64.3908 155.424V155.696C64.3908 156.037 64.4974 156.293 64.7108 156.464C64.9348 156.624 65.2494 156.704 65.6548 156.704ZM73.4916 158L70.7076 149.648H72.7236L73.8916 153.248L74.7076 156.224H74.8196L75.6356 153.248L76.7716 149.648H78.7236L75.9236 158H73.4916ZM80.0903 158V149.648H82.1383V151.04H82.2183C82.3889 150.592 82.6556 150.219 83.0182 149.92C83.3916 149.611 83.9036 149.456 84.5543 149.456C85.4183 149.456 86.0796 149.739 86.5383 150.304C86.9969 150.869 87.2263 151.675 87.2263 152.72V158H85.1783V152.928C85.1783 152.331 85.0716 151.883 84.8583 151.584C84.6449 151.285 84.2929 151.136 83.8023 151.136C83.5889 151.136 83.3809 151.168 83.1783 151.232C82.9863 151.285 82.8103 151.371 82.6503 151.488C82.5009 151.595 82.3783 151.733 82.2823 151.904C82.1863 152.064 82.1383 152.256 82.1383 152.48V158H80.0903Z" fill="#1A1A1A"/>
<path d="M16.5 180C16.5 175.858 19.8579 172.5 24 172.5H328C332.142 172.5 335.5 175.858 335.5 180V204C335.5 208.142 332.142 211.5 328 211.5H24C19.8579 211.5 16.5 208.142 16.5 204V180Z" fill="white"/>
<path d="M16.5 180C16.5 175.858 19.8579 172.5 24 172.5H328C332.142 172.5 335.5 175.858 335.5 180V204C335.5 208.142 332.142 211.5 328 211.5H24C19.8579 211.5 16.5 208.142 16.5 204V180Z" stroke="#8E8E8E"/>
</svg>
