<svg width="418" height="168" viewBox="0 0 418 168" fill="none" xmlns="http://www.w3.org/2000/svg">
<rect width="418" height="168" fill="white"/>
<path d="M16 88C16 83.5817 19.5817 80 24 80H78C82.4183 80 86 83.5817 86 88V112C86 116.418 82.4183 120 78 120H24C19.5817 120 16 116.418 16 112V88Z" fill="#44831E"/>
<path d="M36.784 106.192C35.824 106.192 35.008 106.021 34.336 105.68C33.6747 105.339 33.104 104.891 32.624 104.336L34.048 102.96C34.432 103.408 34.8587 103.749 35.328 103.984C35.808 104.219 36.336 104.336 36.912 104.336C37.5627 104.336 38.0533 104.197 38.384 103.92C38.7147 103.632 38.88 103.248 38.88 102.768C38.88 102.395 38.7733 102.091 38.56 101.856C38.3467 101.621 37.9467 101.451 37.36 101.344L36.304 101.184C34.0747 100.832 32.96 99.7493 32.96 97.936C32.96 97.4347 33.0507 96.9813 33.232 96.576C33.424 96.1707 33.696 95.824 34.048 95.536C34.4 95.248 34.8213 95.0293 35.312 94.88C35.8133 94.72 36.3787 94.64 37.008 94.64C37.8507 94.64 38.5867 94.7787 39.216 95.056C39.8453 95.3333 40.384 95.744 40.832 96.288L39.392 97.648C39.1147 97.3067 38.7787 97.0293 38.384 96.816C37.9893 96.6027 37.4933 96.496 36.896 96.496C36.288 96.496 35.8293 96.6133 35.52 96.848C35.2213 97.072 35.072 97.392 35.072 97.808C35.072 98.2347 35.1947 98.5493 35.44 98.752C35.6853 98.9547 36.08 99.104 36.624 99.2L37.664 99.392C38.7947 99.5947 39.6267 99.9573 40.16 100.48C40.704 100.992 40.976 101.712 40.976 102.64C40.976 103.173 40.88 103.659 40.688 104.096C40.5067 104.523 40.2347 104.896 39.872 105.216C39.52 105.525 39.0827 105.765 38.56 105.936C38.048 106.107 37.456 106.192 36.784 106.192ZM46.3413 106.192C45.7226 106.192 45.1679 106.091 44.6773 105.888C44.1973 105.675 43.7866 105.381 43.4453 105.008C43.1146 104.624 42.8586 104.165 42.6773 103.632C42.4959 103.088 42.4053 102.48 42.4053 101.808C42.4053 101.147 42.4906 100.549 42.6613 100.016C42.8426 99.4827 43.0986 99.0293 43.4293 98.656C43.7599 98.272 44.1653 97.9787 44.6453 97.776C45.1253 97.5627 45.6693 97.456 46.2773 97.456C46.9279 97.456 47.4933 97.568 47.9733 97.792C48.4533 98.016 48.8479 98.32 49.1573 98.704C49.4666 99.088 49.6959 99.536 49.8453 100.048C50.0053 100.549 50.0853 101.088 50.0853 101.664V102.336H44.5333V102.544C44.5333 103.152 44.7039 103.643 45.0453 104.016C45.3866 104.379 45.8933 104.56 46.5653 104.56C47.0773 104.56 47.4933 104.453 47.8133 104.24C48.1439 104.027 48.4373 103.755 48.6933 103.424L49.7973 104.656C49.4559 105.136 48.9866 105.515 48.3893 105.792C47.8026 106.059 47.1199 106.192 46.3413 106.192ZM46.3093 98.992C45.7653 98.992 45.3333 99.1733 45.0133 99.536C44.6933 99.8987 44.5333 100.368 44.5333 100.944V101.072H47.9573V100.928C47.9573 100.352 47.8133 99.888 47.5253 99.536C47.2479 99.1733 46.8426 98.992 46.3093 98.992ZM51.8871 106V97.648H53.9351V99.04H54.0151C54.1858 98.592 54.4525 98.2187 54.8151 97.92C55.1885 97.6107 55.7005 97.456 56.3511 97.456C57.2151 97.456 57.8765 97.7387 58.3351 98.304C58.7938 98.8693 59.0231 99.6747 59.0231 100.72V106H56.9751V100.928C56.9751 100.331 56.8685 99.8827 56.6551 99.584C56.4418 99.2853 56.0898 99.136 55.5991 99.136C55.3858 99.136 55.1778 99.168 54.9751 99.232C54.7831 99.2853 54.6071 99.3707 54.4471 99.488C54.2978 99.5947 54.1751 99.7333 54.0791 99.904C53.9831 100.064 53.9351 100.256 53.9351 100.48V106H51.8871ZM66.4774 104.608H66.3974C66.248 105.088 65.9654 105.472 65.5494 105.76C65.1334 106.048 64.648 106.192 64.0934 106.192C63.0374 106.192 62.2267 105.813 61.6614 105.056C61.1067 104.299 60.8294 103.216 60.8294 101.808C60.8294 100.411 61.1067 99.3387 61.6614 98.592C62.2267 97.8347 63.0374 97.456 64.0934 97.456C64.648 97.456 65.1334 97.6 65.5494 97.888C65.9654 98.1653 66.248 98.544 66.3974 99.024H66.4774V94.16H68.5254V106H66.4774V104.608ZM64.7494 104.496C65.24 104.496 65.6507 104.379 65.9814 104.144C66.312 103.909 66.4774 103.573 66.4774 103.136V100.48C66.4774 100.075 66.312 99.7493 65.9814 99.504C65.6507 99.2587 65.24 99.136 64.7494 99.136C64.216 99.136 63.784 99.3173 63.4534 99.68C63.1334 100.032 62.9734 100.507 62.9734 101.104V102.544C62.9734 103.141 63.1334 103.616 63.4534 103.968C63.784 104.32 64.216 104.496 64.7494 104.496Z" fill="white"/>
<path d="M16.5 24C16.5 19.8579 19.8579 16.5 24 16.5H248C252.142 16.5 255.5 19.8579 255.5 24V48C255.5 52.1421 252.142 55.5 248 55.5H24C19.8579 55.5 16.5 52.1421 16.5 48V24Z" fill="white"/>
<path d="M16.5 24C16.5 19.8579 19.8579 16.5 24 16.5H248C252.142 16.5 255.5 19.8579 255.5 24V48C255.5 52.1421 252.142 55.5 248 55.5H24C19.8579 55.5 16.5 52.1421 16.5 48V24Z" stroke="#8E8E8E"/>
<mask id="path-4-inside-1_14279_21257" fill="white">
<path d="M33.488 42V30.832H40.304V32.016H34.832V35.76H39.984V36.944H34.832V40.816H40.304V42H33.488ZM43.1361 34.864H41.7921V33.744H43.1361V32.08C43.1361 31.504 43.2855 31.04 43.5841 30.688C43.8828 30.336 44.3361 30.16 44.9441 30.16H46.1921V31.28H44.4161V33.744H46.1921V34.864H44.4161V42H43.1361V34.864ZM49.6996 42C49.2516 42 48.9103 41.8773 48.6756 41.632C48.4516 41.376 48.3396 41.0453 48.3396 40.64V34.864H46.9796V33.744H47.7476C48.025 33.744 48.2116 33.6907 48.3076 33.584C48.4143 33.4667 48.4676 33.2693 48.4676 32.992V31.456H49.6196V33.744H51.4276V34.864H49.6196V40.88H51.2996V42H49.6996ZM56.5265 42.192C55.9612 42.192 55.4492 42.0907 54.9905 41.888C54.5425 41.6853 54.1532 41.3973 53.8225 41.024C53.5025 40.64 53.2518 40.1867 53.0705 39.664C52.8998 39.1307 52.8145 38.5333 52.8145 37.872C52.8145 37.2213 52.8998 36.6293 53.0705 36.096C53.2518 35.5627 53.5025 35.1093 53.8225 34.736C54.1532 34.352 54.5425 34.0587 54.9905 33.856C55.4492 33.6533 55.9612 33.552 56.5265 33.552C57.0812 33.552 57.5772 33.6533 58.0145 33.856C58.4518 34.0587 58.8252 34.3413 59.1345 34.704C59.4438 35.056 59.6785 35.4773 59.8385 35.968C60.0092 36.4587 60.0945 36.9973 60.0945 37.584V38.192H54.1585V38.576C54.1585 38.928 54.2118 39.2587 54.3185 39.568C54.4358 39.8667 54.5958 40.128 54.7985 40.352C55.0118 40.576 55.2678 40.752 55.5665 40.88C55.8758 41.008 56.2225 41.072 56.6065 41.072C57.1292 41.072 57.5825 40.9493 57.9665 40.704C58.3612 40.4587 58.6652 40.1067 58.8785 39.648L59.7905 40.304C59.5238 40.8693 59.1078 41.328 58.5425 41.68C57.9772 42.0213 57.3052 42.192 56.5265 42.192ZM56.5265 34.624C56.1745 34.624 55.8545 34.688 55.5665 34.816C55.2785 34.9333 55.0278 35.104 54.8145 35.328C54.6118 35.552 54.4518 35.8187 54.3345 36.128C54.2172 36.4267 54.1585 36.7573 54.1585 37.12V37.232H58.7185V37.056C58.7185 36.32 58.5158 35.7333 58.1105 35.296C57.7158 34.848 57.1878 34.624 56.5265 34.624ZM62.2038 42V33.744H63.4838V35.264H63.5638C63.7131 34.8693 63.9798 34.5173 64.3638 34.208C64.7478 33.8987 65.2758 33.744 65.9478 33.744H66.4438V35.024H65.6918C64.9984 35.024 64.4544 35.1573 64.0598 35.424C63.6758 35.68 63.4838 36.0053 63.4838 36.4V42H62.2038ZM68.0788 42V33.744H69.3588V35.088H69.4228C69.6254 34.6187 69.9081 34.2453 70.2708 33.968C70.6441 33.6907 71.1401 33.552 71.7588 33.552C72.6121 33.552 73.2841 33.8293 73.7748 34.384C74.2761 34.928 74.5268 35.7013 74.5268 36.704V42H73.2468V36.928C73.2468 35.4453 72.6228 34.704 71.3748 34.704C71.1188 34.704 70.8681 34.736 70.6228 34.8C70.3881 34.864 70.1748 34.96 69.9828 35.088C69.7908 35.216 69.6361 35.3813 69.5188 35.584C69.4121 35.776 69.3588 36.0053 69.3588 36.272V42H68.0788ZM83.1725 42C82.6925 42 82.3458 41.872 82.1325 41.616C81.9298 41.36 81.8018 41.04 81.7485 40.656H81.6685C81.4872 41.168 81.1885 41.552 80.7725 41.808C80.3565 42.064 79.8605 42.192 79.2845 42.192C78.4098 42.192 77.7272 41.968 77.2365 41.52C76.7565 41.072 76.5165 40.464 76.5165 39.696C76.5165 38.9173 76.7992 38.32 77.3645 37.904C77.9405 37.488 78.8312 37.28 80.0365 37.28H81.6685V36.464C81.6685 35.8773 81.5085 35.4293 81.1885 35.12C80.8685 34.8107 80.3778 34.656 79.7165 34.656C79.2152 34.656 78.7938 34.768 78.4525 34.992C78.1218 35.216 77.8445 35.5147 77.6205 35.888L76.8525 35.168C77.0765 34.72 77.4338 34.3413 77.9245 34.032C78.4152 33.712 79.0338 33.552 79.7805 33.552C80.7832 33.552 81.5618 33.7973 82.1165 34.288C82.6712 34.7787 82.9485 35.4613 82.9485 36.336V40.88H83.8925V42H83.1725ZM79.4925 41.104C79.8125 41.104 80.1058 41.0667 80.3725 40.992C80.6392 40.9173 80.8685 40.8107 81.0605 40.672C81.2525 40.5333 81.4018 40.3733 81.5085 40.192C81.6152 40.0107 81.6685 39.8133 81.6685 39.6V38.24H79.9725C79.2365 38.24 78.6978 38.3467 78.3565 38.56C78.0258 38.7733 77.8605 39.0827 77.8605 39.488V39.824C77.8605 40.2293 78.0045 40.544 78.2925 40.768C78.5912 40.992 78.9912 41.104 79.4925 41.104ZM87.4184 42L84.5224 33.744H85.8024L87.2424 37.84L88.1384 40.656H88.2184L89.1144 37.84L90.5864 33.744H91.8184L88.9064 42H87.4184ZM93.4694 42V33.744H94.7494V35.088H94.8134C95.016 34.6187 95.2987 34.2453 95.6614 33.968C96.0347 33.6907 96.5307 33.552 97.1494 33.552C98.0027 33.552 98.6747 33.8293 99.1654 34.384C99.6667 34.928 99.9174 35.7013 99.9174 36.704V42H98.6374V36.928C98.6374 35.4453 98.0134 34.704 96.7654 34.704C96.5094 34.704 96.2587 34.736 96.0134 34.8C95.7787 34.864 95.5654 34.96 95.3734 35.088C95.1814 35.216 95.0267 35.3813 94.9094 35.584C94.8027 35.776 94.7494 36.0053 94.7494 36.272V42H93.4694Z"/>
</mask>
<path d="M33.488 42V30.832H40.304V32.016H34.832V35.76H39.984V36.944H34.832V40.816H40.304V42H33.488ZM43.1361 34.864H41.7921V33.744H43.1361V32.08C43.1361 31.504 43.2855 31.04 43.5841 30.688C43.8828 30.336 44.3361 30.16 44.9441 30.16H46.1921V31.28H44.4161V33.744H46.1921V34.864H44.4161V42H43.1361V34.864ZM49.6996 42C49.2516 42 48.9103 41.8773 48.6756 41.632C48.4516 41.376 48.3396 41.0453 48.3396 40.64V34.864H46.9796V33.744H47.7476C48.025 33.744 48.2116 33.6907 48.3076 33.584C48.4143 33.4667 48.4676 33.2693 48.4676 32.992V31.456H49.6196V33.744H51.4276V34.864H49.6196V40.88H51.2996V42H49.6996ZM56.5265 42.192C55.9612 42.192 55.4492 42.0907 54.9905 41.888C54.5425 41.6853 54.1532 41.3973 53.8225 41.024C53.5025 40.64 53.2518 40.1867 53.0705 39.664C52.8998 39.1307 52.8145 38.5333 52.8145 37.872C52.8145 37.2213 52.8998 36.6293 53.0705 36.096C53.2518 35.5627 53.5025 35.1093 53.8225 34.736C54.1532 34.352 54.5425 34.0587 54.9905 33.856C55.4492 33.6533 55.9612 33.552 56.5265 33.552C57.0812 33.552 57.5772 33.6533 58.0145 33.856C58.4518 34.0587 58.8252 34.3413 59.1345 34.704C59.4438 35.056 59.6785 35.4773 59.8385 35.968C60.0092 36.4587 60.0945 36.9973 60.0945 37.584V38.192H54.1585V38.576C54.1585 38.928 54.2118 39.2587 54.3185 39.568C54.4358 39.8667 54.5958 40.128 54.7985 40.352C55.0118 40.576 55.2678 40.752 55.5665 40.88C55.8758 41.008 56.2225 41.072 56.6065 41.072C57.1292 41.072 57.5825 40.9493 57.9665 40.704C58.3612 40.4587 58.6652 40.1067 58.8785 39.648L59.7905 40.304C59.5238 40.8693 59.1078 41.328 58.5425 41.68C57.9772 42.0213 57.3052 42.192 56.5265 42.192ZM56.5265 34.624C56.1745 34.624 55.8545 34.688 55.5665 34.816C55.2785 34.9333 55.0278 35.104 54.8145 35.328C54.6118 35.552 54.4518 35.8187 54.3345 36.128C54.2172 36.4267 54.1585 36.7573 54.1585 37.12V37.232H58.7185V37.056C58.7185 36.32 58.5158 35.7333 58.1105 35.296C57.7158 34.848 57.1878 34.624 56.5265 34.624ZM62.2038 42V33.744H63.4838V35.264H63.5638C63.7131 34.8693 63.9798 34.5173 64.3638 34.208C64.7478 33.8987 65.2758 33.744 65.9478 33.744H66.4438V35.024H65.6918C64.9984 35.024 64.4544 35.1573 64.0598 35.424C63.6758 35.68 63.4838 36.0053 63.4838 36.4V42H62.2038ZM68.0788 42V33.744H69.3588V35.088H69.4228C69.6254 34.6187 69.9081 34.2453 70.2708 33.968C70.6441 33.6907 71.1401 33.552 71.7588 33.552C72.6121 33.552 73.2841 33.8293 73.7748 34.384C74.2761 34.928 74.5268 35.7013 74.5268 36.704V42H73.2468V36.928C73.2468 35.4453 72.6228 34.704 71.3748 34.704C71.1188 34.704 70.8681 34.736 70.6228 34.8C70.3881 34.864 70.1748 34.96 69.9828 35.088C69.7908 35.216 69.6361 35.3813 69.5188 35.584C69.4121 35.776 69.3588 36.0053 69.3588 36.272V42H68.0788ZM83.1725 42C82.6925 42 82.3458 41.872 82.1325 41.616C81.9298 41.36 81.8018 41.04 81.7485 40.656H81.6685C81.4872 41.168 81.1885 41.552 80.7725 41.808C80.3565 42.064 79.8605 42.192 79.2845 42.192C78.4098 42.192 77.7272 41.968 77.2365 41.52C76.7565 41.072 76.5165 40.464 76.5165 39.696C76.5165 38.9173 76.7992 38.32 77.3645 37.904C77.9405 37.488 78.8312 37.28 80.0365 37.28H81.6685V36.464C81.6685 35.8773 81.5085 35.4293 81.1885 35.12C80.8685 34.8107 80.3778 34.656 79.7165 34.656C79.2152 34.656 78.7938 34.768 78.4525 34.992C78.1218 35.216 77.8445 35.5147 77.6205 35.888L76.8525 35.168C77.0765 34.72 77.4338 34.3413 77.9245 34.032C78.4152 33.712 79.0338 33.552 79.7805 33.552C80.7832 33.552 81.5618 33.7973 82.1165 34.288C82.6712 34.7787 82.9485 35.4613 82.9485 36.336V40.88H83.8925V42H83.1725ZM79.4925 41.104C79.8125 41.104 80.1058 41.0667 80.3725 40.992C80.6392 40.9173 80.8685 40.8107 81.0605 40.672C81.2525 40.5333 81.4018 40.3733 81.5085 40.192C81.6152 40.0107 81.6685 39.8133 81.6685 39.6V38.24H79.9725C79.2365 38.24 78.6978 38.3467 78.3565 38.56C78.0258 38.7733 77.8605 39.0827 77.8605 39.488V39.824C77.8605 40.2293 78.0045 40.544 78.2925 40.768C78.5912 40.992 78.9912 41.104 79.4925 41.104ZM87.4184 42L84.5224 33.744H85.8024L87.2424 37.84L88.1384 40.656H88.2184L89.1144 37.84L90.5864 33.744H91.8184L88.9064 42H87.4184ZM93.4694 42V33.744H94.7494V35.088H94.8134C95.016 34.6187 95.2987 34.2453 95.6614 33.968C96.0347 33.6907 96.5307 33.552 97.1494 33.552C98.0027 33.552 98.6747 33.8293 99.1654 34.384C99.6667 34.928 99.9174 35.7013 99.9174 36.704V42H98.6374V36.928C98.6374 35.4453 98.0134 34.704 96.7654 34.704C96.5094 34.704 96.2587 34.736 96.0134 34.8C95.7787 34.864 95.5654 34.96 95.3734 35.088C95.1814 35.216 95.0267 35.3813 94.9094 35.584C94.8027 35.776 94.7494 36.0053 94.7494 36.272V42H93.4694Z" fill="#707070"/>
<path d="M33.488 42H32.488V43H33.488V42ZM33.488 30.832V29.832H32.488V30.832H33.488ZM40.304 30.832H41.304V29.832H40.304V30.832ZM40.304 32.016V33.016H41.304V32.016H40.304ZM34.832 32.016V31.016H33.832V32.016H34.832ZM34.832 35.76H33.832V36.76H34.832V35.76ZM39.984 35.76H40.984V34.76H39.984V35.76ZM39.984 36.944V37.944H40.984V36.944H39.984ZM34.832 36.944V35.944H33.832V36.944H34.832ZM34.832 40.816H33.832V41.816H34.832V40.816ZM40.304 40.816H41.304V39.816H40.304V40.816ZM40.304 42V43H41.304V42H40.304ZM34.488 42V30.832H32.488V42H34.488ZM33.488 31.832H40.304V29.832H33.488V31.832ZM39.304 30.832V32.016H41.304V30.832H39.304ZM40.304 31.016H34.832V33.016H40.304V31.016ZM33.832 32.016V35.76H35.832V32.016H33.832ZM34.832 36.76H39.984V34.76H34.832V36.76ZM38.984 35.76V36.944H40.984V35.76H38.984ZM39.984 35.944H34.832V37.944H39.984V35.944ZM33.832 36.944V40.816H35.832V36.944H33.832ZM34.832 41.816H40.304V39.816H34.832V41.816ZM39.304 40.816V42H41.304V40.816H39.304ZM40.304 41H33.488V43H40.304V41ZM43.1361 34.864H44.1361V33.864H43.1361V34.864ZM41.7921 34.864H40.7921V35.864H41.7921V34.864ZM41.7921 33.744V32.744H40.7921V33.744H41.7921ZM43.1361 33.744V34.744H44.1361V33.744H43.1361ZM43.5841 30.688L42.8216 30.041V30.041L43.5841 30.688ZM46.1921 30.16H47.1921V29.16H46.1921V30.16ZM46.1921 31.28V32.28H47.1921V31.28H46.1921ZM44.4161 31.28V30.28H43.4161V31.28H44.4161ZM44.4161 33.744H43.4161V34.744H44.4161V33.744ZM46.1921 33.744H47.1921V32.744H46.1921V33.744ZM46.1921 34.864V35.864H47.1921V34.864H46.1921ZM44.4161 34.864V33.864H43.4161V34.864H44.4161ZM44.4161 42V43H45.4161V42H44.4161ZM43.1361 42H42.1361V43H43.1361V42ZM43.1361 33.864H41.7921V35.864H43.1361V33.864ZM42.7921 34.864V33.744H40.7921V34.864H42.7921ZM41.7921 34.744H43.1361V32.744H41.7921V34.744ZM44.1361 33.744V32.08H42.1361V33.744H44.1361ZM44.1361 32.08C44.1361 31.6804 44.2364 31.4649 44.3466 31.335L42.8216 30.041C42.3345 30.6151 42.1361 31.3276 42.1361 32.08H44.1361ZM44.3466 31.335C44.3993 31.2729 44.5306 31.16 44.9441 31.16V29.16C44.1417 29.16 43.3663 29.3991 42.8216 30.041L44.3466 31.335ZM44.9441 31.16H46.1921V29.16H44.9441V31.16ZM45.1921 30.16V31.28H47.1921V30.16H45.1921ZM46.1921 30.28H44.4161V32.28H46.1921V30.28ZM43.4161 31.28V33.744H45.4161V31.28H43.4161ZM44.4161 34.744H46.1921V32.744H44.4161V34.744ZM45.1921 33.744V34.864H47.1921V33.744H45.1921ZM46.1921 33.864H44.4161V35.864H46.1921V33.864ZM43.4161 34.864V42H45.4161V34.864H43.4161ZM44.4161 41H43.1361V43H44.4161V41ZM44.1361 42V34.864H42.1361V42H44.1361ZM48.6756 41.632L47.923 42.2905L47.9377 42.3072L47.953 42.3232L48.6756 41.632ZM48.3396 34.864H49.3396V33.864H48.3396V34.864ZM46.9796 34.864H45.9796V35.864H46.9796V34.864ZM46.9796 33.744V32.744H45.9796V33.744H46.9796ZM48.3076 33.584L47.5677 32.9113L47.5643 32.915L48.3076 33.584ZM48.4676 31.456V30.456H47.4676V31.456H48.4676ZM49.6196 31.456H50.6196V30.456H49.6196V31.456ZM49.6196 33.744H48.6196V34.744H49.6196V33.744ZM51.4276 33.744H52.4276V32.744H51.4276V33.744ZM51.4276 34.864V35.864H52.4276V34.864H51.4276ZM49.6196 34.864V33.864H48.6196V34.864H49.6196ZM49.6196 40.88H48.6196V41.88H49.6196V40.88ZM51.2996 40.88H52.2996V39.88H51.2996V40.88ZM51.2996 42V43H52.2996V42H51.2996ZM49.6996 41C49.5648 41 49.4859 40.9813 49.4458 40.9669C49.4107 40.9543 49.4013 40.9439 49.3983 40.9408L47.953 42.3232C48.4312 42.8231 49.0698 43 49.6996 43V41ZM49.4282 40.9735C49.3932 40.9334 49.3396 40.8519 49.3396 40.64H47.3396C47.3396 41.2388 47.5101 41.8186 47.923 42.2905L49.4282 40.9735ZM49.3396 40.64V34.864H47.3396V40.64H49.3396ZM48.3396 33.864H46.9796V35.864H48.3396V33.864ZM47.9796 34.864V33.744H45.9796V34.864H47.9796ZM46.9796 34.744H47.7476V32.744H46.9796V34.744ZM47.7476 34.744C48.0714 34.744 48.65 34.6984 49.0509 34.253L47.5643 32.915C47.6789 32.7877 47.7954 32.7498 47.8209 32.7425C47.8461 32.7353 47.8296 32.744 47.7476 32.744V34.744ZM49.0476 34.2567C49.4086 33.8595 49.4676 33.348 49.4676 32.992H47.4676C47.4676 33.0716 47.4594 33.0976 47.4623 33.0871C47.4654 33.0755 47.4879 32.9991 47.5677 32.9113L49.0476 34.2567ZM49.4676 32.992V31.456H47.4676V32.992H49.4676ZM48.4676 32.456H49.6196V30.456H48.4676V32.456ZM48.6196 31.456V33.744H50.6196V31.456H48.6196ZM49.6196 34.744H51.4276V32.744H49.6196V34.744ZM50.4276 33.744V34.864H52.4276V33.744H50.4276ZM51.4276 33.864H49.6196V35.864H51.4276V33.864ZM48.6196 34.864V40.88H50.6196V34.864H48.6196ZM49.6196 41.88H51.2996V39.88H49.6196V41.88ZM50.2996 40.88V42H52.2996V40.88H50.2996ZM51.2996 41H49.6996V43H51.2996V41ZM54.9905 41.888L54.5783 42.7991L54.5863 42.8027L54.9905 41.888ZM53.8225 41.024L53.0543 41.6642L53.0639 41.6758L53.0739 41.687L53.8225 41.024ZM53.0705 39.664L52.1181 39.9688L52.1218 39.9803L52.1257 39.9918L53.0705 39.664ZM53.0705 36.096L52.1237 35.7741L52.1208 35.7826L52.1181 35.7912L53.0705 36.096ZM53.8225 34.736L53.0647 34.0835L53.0632 34.0852L53.8225 34.736ZM54.9905 33.856L54.5863 32.9413L54.5783 32.9449L54.9905 33.856ZM58.0145 33.856L57.594 34.7633L58.0145 33.856ZM59.1345 34.704L58.3737 35.3529L58.3785 35.3586L58.3833 35.3641L59.1345 34.704ZM59.8385 35.968L58.8878 36.278L58.8908 36.2873L58.894 36.2965L59.8385 35.968ZM60.0945 38.192V39.192H61.0945V38.192H60.0945ZM54.1585 38.192V37.192H53.1585V38.192H54.1585ZM54.3185 39.568L53.3731 39.894L53.38 39.914L53.3877 39.9337L54.3185 39.568ZM54.7985 40.352L54.057 41.0229L54.0655 41.0324L54.0744 41.0417L54.7985 40.352ZM55.5665 40.88L55.1726 41.7992L55.1841 41.804L55.5665 40.88ZM57.9665 40.704L57.4385 39.8546L57.4281 39.8613L57.9665 40.704ZM58.8785 39.648L59.4624 38.8362L58.4814 38.1306L57.9718 39.2263L58.8785 39.648ZM59.7905 40.304L60.6949 40.7306L61.0499 39.9781L60.3744 39.4922L59.7905 40.304ZM58.5425 41.68L59.0594 42.5361L59.0711 42.5289L58.5425 41.68ZM55.5665 34.816L55.9438 35.7421L55.9583 35.7362L55.9726 35.7298L55.5665 34.816ZM54.8145 35.328L54.0904 34.6383L54.0815 34.6476L54.073 34.6571L54.8145 35.328ZM54.3345 36.128L55.2653 36.4937L55.2695 36.4827L54.3345 36.128ZM54.1585 37.232H53.1585V38.232H54.1585V37.232ZM58.7185 37.232V38.232H59.7185V37.232H58.7185ZM58.1105 35.296L57.3601 35.957L57.3685 35.9665L57.3771 35.9758L58.1105 35.296ZM56.5265 41.192C56.0826 41.192 55.7107 41.113 55.3947 40.9733L54.5863 42.8027C55.1876 43.0684 55.8397 43.192 56.5265 43.192V41.192ZM55.4027 40.9769C55.0849 40.8331 54.8097 40.6304 54.5711 40.361L53.0739 41.687C53.4966 42.1643 54.0001 42.5375 54.5783 42.7991L55.4027 40.9769ZM54.5907 40.3838C54.3557 40.1018 54.1613 39.7571 54.0153 39.3362L52.1257 39.9918C52.3424 40.6162 52.6493 41.1782 53.0543 41.6642L54.5907 40.3838ZM54.0229 39.3592C53.8889 38.9404 53.8145 38.4481 53.8145 37.872H51.8145C51.8145 38.6186 51.9108 39.321 52.1181 39.9688L54.0229 39.3592ZM53.8145 37.872C53.8145 37.3084 53.8884 36.8211 54.0229 36.4008L52.1181 35.7912C51.9113 36.4375 51.8145 37.1343 51.8145 37.872H53.8145ZM54.0173 36.4179C54.1635 35.9877 54.3558 35.6504 54.5818 35.3868L53.0632 34.0852C52.6492 34.5683 52.3401 35.1376 52.1237 35.7741L54.0173 36.4179ZM54.5803 35.3885C54.8189 35.1114 55.0914 34.9079 55.4027 34.7671L54.5783 32.9449C53.9936 33.2094 53.4874 33.5926 53.0647 34.0835L54.5803 35.3885ZM55.3947 34.7707C55.7107 34.631 56.0826 34.552 56.5265 34.552V32.552C55.8397 32.552 55.1876 32.6756 54.5863 32.9413L55.3947 34.7707ZM56.5265 34.552C56.9578 34.552 57.3069 34.6303 57.594 34.7633L58.435 32.9487C57.8474 32.6764 57.2046 32.552 56.5265 32.552V34.552ZM57.594 34.7633C57.9021 34.9061 58.1589 35.1012 58.3737 35.3529L59.8953 34.0551C59.4914 33.5815 59.0015 33.2112 58.435 32.9487L57.594 34.7633ZM58.3833 35.3641C58.5944 35.6043 58.7656 35.9032 58.8878 36.278L60.7892 35.658C60.5914 35.0514 60.2933 34.5077 59.8857 34.0439L58.3833 35.3641ZM58.894 36.2965C59.0235 36.6689 59.0945 37.0949 59.0945 37.584H61.0945C61.0945 36.8998 60.9948 36.2485 60.783 35.6395L58.894 36.2965ZM59.0945 37.584V38.192H61.0945V37.584H59.0945ZM60.0945 37.192H54.1585V39.192H60.0945V37.192ZM53.1585 38.192V38.576H55.1585V38.192H53.1585ZM53.1585 38.576C53.1585 39.0305 53.2276 39.4721 53.3731 39.894L55.2639 39.242C55.196 39.0452 55.1585 38.8255 55.1585 38.576H53.1585ZM53.3877 39.9337C53.5464 40.3376 53.7684 40.704 54.057 41.0229L55.54 39.6811C55.4233 39.552 55.3252 39.3957 55.2493 39.2023L53.3877 39.9337ZM54.0744 41.0417C54.3858 41.3686 54.7558 41.6205 55.1726 41.7991L55.9604 39.9609C55.7798 39.8835 55.6379 39.7834 55.5226 39.6623L54.0744 41.0417ZM55.1841 41.804C55.6312 41.989 56.1104 42.072 56.6065 42.072V40.072C56.3346 40.072 56.1204 40.027 55.9489 39.956L55.1841 41.804ZM56.6065 42.072C57.2912 42.072 57.9375 41.9092 58.5049 41.5467L57.4281 39.8613C57.2275 39.9895 56.9671 40.072 56.6065 40.072V42.072ZM58.4944 41.5533C59.0689 41.1962 59.4975 40.6884 59.7852 40.0697L57.9718 39.2263C57.8329 39.5249 57.6535 39.7211 57.4386 39.8547L58.4944 41.5533ZM58.2946 40.4598L59.2066 41.1158L60.3744 39.4922L59.4624 38.8362L58.2946 40.4598ZM58.8861 39.8774C58.7069 40.2572 58.4272 40.5738 58.0139 40.8311L59.0711 42.5289C59.7885 42.0822 60.3408 41.4815 60.6949 40.7306L58.8861 39.8774ZM58.0256 40.8239C57.6423 41.0554 57.156 41.192 56.5265 41.192V43.192C57.4544 43.192 58.3121 42.9873 59.0594 42.5361L58.0256 40.8239ZM56.5265 33.624C56.051 33.624 55.5904 33.7111 55.1604 33.9022L55.9726 35.7298C56.1186 35.6649 56.298 35.624 56.5265 35.624V33.624ZM55.1892 33.8899C54.7709 34.0603 54.4018 34.3113 54.0904 34.6383L55.5386 36.0177C55.6539 35.8967 55.7861 35.8063 55.9438 35.7421L55.1892 33.8899ZM54.073 34.6571C53.779 34.982 53.5568 35.3586 53.3995 35.7733L55.2695 36.4827C55.3468 36.2788 55.4446 36.122 55.556 35.9989L54.073 34.6571ZM53.4037 35.7623C53.2351 36.1917 53.1585 36.6484 53.1585 37.12H55.1585C55.1585 36.8663 55.1992 36.6617 55.2653 36.4937L53.4037 35.7623ZM53.1585 37.12V37.232H55.1585V37.12H53.1585ZM54.1585 38.232H58.7185V36.232H54.1585V38.232ZM59.7185 37.232V37.056H57.7185V37.232H59.7185ZM59.7185 37.056C59.7185 36.1298 59.4585 35.2794 58.8439 34.6162L57.3771 35.9758C57.5731 36.1873 57.7185 36.5102 57.7185 37.056H59.7185ZM58.8609 34.635C58.2546 33.9468 57.4404 33.624 56.5265 33.624V35.624C56.9353 35.624 57.1771 35.7492 57.3601 35.957L58.8609 34.635ZM62.2038 42H61.2038V43H62.2038V42ZM62.2038 33.744V32.744H61.2038V33.744H62.2038ZM63.4837 33.744H64.4837V32.744H63.4837V33.744ZM63.4837 35.264H62.4837V36.264H63.4837V35.264ZM63.5637 35.264V36.264H64.2546L64.499 35.6179L63.5637 35.264ZM64.3638 34.208L64.9911 34.9868L64.3638 34.208ZM66.4437 33.744H67.4437V32.744H66.4437V33.744ZM66.4437 35.024V36.024H67.4437V35.024H66.4437ZM64.0597 35.424L64.6145 36.2561L64.6196 36.2526L64.0597 35.424ZM63.4837 42V43H64.4837V42H63.4837ZM63.2038 42V33.744H61.2038V42H63.2038ZM62.2038 34.744H63.4837V32.744H62.2038V34.744ZM62.4837 33.744V35.264H64.4837V33.744H62.4837ZM63.4837 36.264H63.5637V34.264H63.4837V36.264ZM64.499 35.6179C64.5754 35.416 64.7221 35.2034 64.9911 34.9868L63.7364 33.4292C63.2374 33.8312 62.8507 34.3227 62.6285 34.9101L64.499 35.6179ZM64.9911 34.9868C65.1424 34.8649 65.4217 34.744 65.9478 34.744V32.744C65.1298 32.744 64.3531 32.9325 63.7364 33.4292L64.9911 34.9868ZM65.9478 34.744H66.4437V32.744H65.9478V34.744ZM65.4437 33.744V35.024H67.4437V33.744H65.4437ZM66.4437 34.024H65.6917V36.024H66.4437V34.024ZM65.6917 34.024C64.8853 34.024 64.1194 34.1769 63.4999 34.5954L64.6196 36.2526C64.7895 36.1378 65.1115 36.024 65.6917 36.024V34.024ZM63.5051 34.5919C62.8974 34.997 62.4837 35.6103 62.4837 36.4H64.4837C64.4837 36.3832 64.4857 36.3758 64.486 36.3747C64.4862 36.3738 64.4866 36.3723 64.489 36.3683C64.4934 36.3607 64.5204 36.3187 64.6144 36.2561L63.5051 34.5919ZM62.4837 36.4V42H64.4837V36.4H62.4837ZM63.4837 41H62.2038V43H63.4837V41ZM68.0788 42H67.0788V43H68.0788V42ZM68.0788 33.744V32.744H67.0788V33.744H68.0788ZM69.3587 33.744H70.3587V32.744H69.3587V33.744ZM69.3587 35.088H68.3587V36.088H69.3587V35.088ZM69.4227 35.088V36.088H70.0802L70.3408 35.4844L69.4227 35.088ZM70.2708 33.968L69.6744 33.1652L69.6633 33.1736L70.2708 33.968ZM73.7747 34.384L73.0258 35.0466L73.0325 35.0542L73.0394 35.0617L73.7747 34.384ZM74.5267 42V43H75.5267V42H74.5267ZM73.2467 42H72.2467V43H73.2467V42ZM70.6227 34.8L70.3703 33.8323L70.3596 33.8352L70.6227 34.8ZM69.9827 35.088L70.5374 35.9201L70.5375 35.92L69.9827 35.088ZM69.5187 35.584L68.6533 35.083L68.6489 35.0906L68.6446 35.0984L69.5187 35.584ZM69.3587 42V43H70.3587V42H69.3587ZM69.0788 42V33.744H67.0788V42H69.0788ZM68.0788 34.744H69.3587V32.744H68.0788V34.744ZM68.3587 33.744V35.088H70.3587V33.744H68.3587ZM69.3587 36.088H69.4227V34.088H69.3587V36.088ZM70.3408 35.4844C70.484 35.153 70.6671 34.9238 70.8782 34.7624L69.6633 33.1736C69.1491 33.5669 68.7669 34.0844 68.5047 34.6916L70.3408 35.4844ZM70.8671 34.7707C71.0189 34.6579 71.2845 34.552 71.7588 34.552V32.552C70.9957 32.552 70.2692 32.7234 69.6744 33.1653L70.8671 34.7707ZM71.7588 34.552C72.3739 34.552 72.7547 34.7401 73.0258 35.0466L74.5237 33.7214C73.8135 32.9185 72.8503 32.552 71.7588 32.552V34.552ZM73.0394 35.0617C73.3178 35.3638 73.5267 35.8619 73.5267 36.704H75.5267C75.5267 35.5408 75.2344 34.4922 74.5101 33.7063L73.0394 35.0617ZM73.5267 36.704V42H75.5267V36.704H73.5267ZM74.5267 41H73.2467V43H74.5267V41ZM74.2467 42V36.928H72.2467V42H74.2467ZM74.2467 36.928C74.2467 36.0705 74.0699 35.2411 73.5438 34.616C72.9899 33.958 72.2024 33.704 71.3747 33.704V35.704C71.7951 35.704 71.9436 35.8207 72.0137 35.904C72.1116 36.0203 72.2467 36.3028 72.2467 36.928H74.2467ZM71.3747 33.704C71.0344 33.704 70.6989 33.7467 70.3703 33.8324L70.8752 35.7676C71.0373 35.7253 71.2031 35.704 71.3747 35.704V33.704ZM70.3596 33.8352C70.0269 33.926 69.7142 34.0652 69.4281 34.2559L70.5375 35.92C70.6353 35.8548 70.7493 35.802 70.8859 35.7648L70.3596 33.8352ZM69.4281 34.2559C69.1065 34.4703 68.8463 34.7496 68.6533 35.083L70.3842 36.085C70.4259 36.013 70.475 35.9617 70.5374 35.9201L69.4281 34.2559ZM68.6446 35.0984C68.4394 35.4676 68.3587 35.8716 68.3587 36.272H70.3587C70.3587 36.1391 70.3847 36.0844 70.3929 36.0696L68.6446 35.0984ZM68.3587 36.272V42H70.3587V36.272H68.3587ZM69.3587 41H68.0788V43H69.3587V41ZM82.1325 41.616L81.3485 42.2367L81.3562 42.2465L81.3643 42.2562L82.1325 41.616ZM81.7485 40.656L82.739 40.5184L82.6192 39.656H81.7485V40.656ZM81.6685 40.656V39.656H80.9618L80.7259 40.3222L81.6685 40.656ZM80.7725 41.808L80.2484 40.9563V40.9563L80.7725 41.808ZM77.2365 41.52L76.5541 42.2511L76.5622 42.2585L77.2365 41.52ZM77.3645 37.904L76.779 37.0933L76.7718 37.0986L77.3645 37.904ZM81.6685 37.28V38.28H82.6685V37.28H81.6685ZM81.1885 35.12L80.4935 35.839L81.1885 35.12ZM78.4525 34.992L77.9038 34.156L77.8977 34.16L77.8917 34.1641L78.4525 34.992ZM77.6205 35.888L76.9366 36.6175L77.8405 37.465L78.478 36.4025L77.6205 35.888ZM76.8525 35.168L75.9581 34.7208L75.6247 35.3876L76.1686 35.8975L76.8525 35.168ZM77.9245 34.032L78.4578 34.8779L78.4643 34.8738L78.4708 34.8696L77.9245 34.032ZM82.1165 34.288L82.7791 33.539V33.539L82.1165 34.288ZM82.9485 40.88H81.9485V41.88H82.9485V40.88ZM83.8925 40.88H84.8925V39.88H83.8925V40.88ZM83.8925 42V43H84.8925V42H83.8925ZM80.3725 40.992L80.6421 41.955L80.3725 40.992ZM81.0605 40.672L80.475 39.8613L81.0605 40.672ZM81.5085 40.192L80.6466 39.685V39.685L81.5085 40.192ZM81.6685 38.24H82.6685V37.24H81.6685V38.24ZM78.3565 38.56L77.8265 37.712L77.8204 37.7158L77.8144 37.7197L78.3565 38.56ZM78.2925 40.768L77.6786 41.5574L77.6855 41.5627L77.6925 41.568L78.2925 40.768ZM83.1725 41C83.0172 41 82.9337 40.9788 82.8989 40.9659C82.8715 40.9558 82.8834 40.955 82.9007 40.9758L81.3643 42.2562C81.8398 42.8269 82.5309 43 83.1725 43V41ZM82.9165 40.9953C82.8437 40.9032 82.7724 40.7591 82.739 40.5184L80.758 40.7936C80.8312 41.3209 81.016 41.8168 81.3485 42.2367L82.9165 40.9953ZM81.7485 39.656H81.6685V41.656H81.7485V39.656ZM80.7259 40.3222C80.6117 40.6444 80.4479 40.8336 80.2484 40.9563L81.2966 42.6597C81.9291 42.2704 82.3626 41.6916 82.6111 40.9898L80.7259 40.3222ZM80.2484 40.9563C80.0163 41.0991 79.709 41.192 79.2845 41.192V43.192C80.012 43.192 80.6967 43.0289 81.2966 42.6597L80.2484 40.9563ZM79.2845 41.192C78.5785 41.192 78.1651 41.0137 77.9108 40.7815L76.5622 42.2585C77.2892 42.9223 78.2411 43.192 79.2845 43.192V41.192ZM77.9188 40.7889C77.6761 40.5624 77.5165 40.2381 77.5165 39.696H75.5165C75.5165 40.6899 75.8369 41.5816 76.5542 42.2511L77.9188 40.7889ZM77.5165 39.696C77.5165 39.1951 77.6787 38.9144 77.9572 38.7094L76.7718 37.0986C75.9197 37.7256 75.5165 38.6395 75.5165 39.696H77.5165ZM77.95 38.7147C78.2732 38.4812 78.9097 38.28 80.0365 38.28V36.28C78.7526 36.28 77.6078 36.4948 76.779 37.0933L77.95 38.7147ZM80.0365 38.28H81.6685V36.28H80.0365V38.28ZM82.6685 37.28V36.464H80.6685V37.28H82.6685ZM82.6685 36.464C82.6685 35.6962 82.4548 34.9533 81.8835 34.401L80.4935 35.839C80.5622 35.9054 80.6685 36.0585 80.6685 36.464H82.6685ZM81.8835 34.401C81.3035 33.8404 80.5128 33.656 79.7165 33.656V35.656C80.2429 35.656 80.4335 35.781 80.4935 35.839L81.8835 34.401ZM79.7165 33.656C79.0649 33.656 78.4419 33.8028 77.9038 34.156L79.0012 35.828C79.1458 35.7332 79.3654 35.656 79.7165 35.656V33.656ZM77.8917 34.1641C77.4299 34.4769 77.0551 34.8867 76.763 35.3735L78.478 36.4025C78.6339 36.1426 78.8137 35.9551 79.0133 35.8199L77.8917 34.1641ZM78.3044 35.1585L77.5364 34.4385L76.1686 35.8975L76.9366 36.6175L78.3044 35.1585ZM77.7469 35.6152C77.877 35.355 78.0968 35.1055 78.4578 34.8779L77.3912 33.1861C76.7708 33.5772 76.276 34.085 75.9581 34.7208L77.7469 35.6152ZM78.4708 34.8696C78.7597 34.6812 79.1749 34.552 79.7805 34.552V32.552C78.8927 32.552 78.0707 32.7428 77.3782 33.1944L78.4708 34.8696ZM79.7805 34.552C80.6263 34.552 81.1383 34.7577 81.4539 35.037L82.7791 33.539C81.9854 32.8369 80.9401 32.552 79.7805 32.552V34.552ZM81.4539 35.037C81.7548 35.3031 81.9485 35.6909 81.9485 36.336H83.9485C83.9485 35.2318 83.5876 34.2542 82.7791 33.539L81.4539 35.037ZM81.9485 36.336V40.88H83.9485V36.336H81.9485ZM82.9485 41.88H83.8925V39.88H82.9485V41.88ZM82.8925 40.88V42H84.8925V40.88H82.8925ZM83.8925 41H83.1725V43H83.8925V41ZM79.4925 42.104C79.8898 42.104 80.2753 42.0577 80.6421 41.955L80.1029 40.029C79.9364 40.0757 79.7352 40.104 79.4925 40.104V42.104ZM80.6421 41.955C81.0034 41.8538 81.3438 41.7009 81.646 41.4827L80.475 39.8613C80.3932 39.9204 80.2749 39.9809 80.1029 40.029L80.6421 41.955ZM81.646 41.4827C81.936 41.2732 82.1853 41.0138 82.3704 40.699L80.6466 39.685C80.6184 39.7329 80.569 39.7935 80.475 39.8613L81.646 41.4827ZM82.3704 40.699C82.5688 40.3618 82.6685 39.989 82.6685 39.6H80.6685C80.6685 39.6377 80.6615 39.6596 80.6466 39.685L82.3704 40.699ZM82.6685 39.6V38.24H80.6685V39.6H82.6685ZM81.6685 37.24H79.9725V39.24H81.6685V37.24ZM79.9725 37.24C79.1822 37.24 78.4108 37.3468 77.8265 37.712L78.8865 39.408C78.9848 39.3465 79.2908 39.24 79.9725 39.24V37.24ZM77.8144 37.7197C77.1881 38.1238 76.8605 38.7553 76.8605 39.488H78.8605C78.8605 39.4547 78.8639 39.4355 78.8658 39.4274C78.8675 39.4198 78.8684 39.4197 78.8664 39.4234C78.8644 39.4272 78.8629 39.4285 78.8649 39.4264C78.8673 39.4238 78.8768 39.4144 78.8986 39.4003L77.8144 37.7197ZM76.8605 39.488V39.824H78.8605V39.488H76.8605ZM76.8605 39.824C76.8605 40.4988 77.1177 41.1211 77.6786 41.5574L78.9064 39.9786C78.8925 39.9678 78.8861 39.9605 78.8836 39.9574C78.8813 39.9544 78.8796 39.9518 78.8778 39.9479C78.8749 39.9416 78.8605 39.9074 78.8605 39.824H76.8605ZM77.6925 41.568C78.215 41.9599 78.8483 42.104 79.4925 42.104V40.104C79.1341 40.104 78.9673 40.0241 78.8925 39.968L77.6925 41.568ZM87.4184 42L86.4747 42.331L86.7094 43H87.4184V42ZM84.5224 33.744V32.744H83.1119L83.5787 34.075L84.5224 33.744ZM85.8024 33.744L86.7458 33.4123L86.5108 32.744H85.8024V33.744ZM87.2424 37.84L88.1953 37.5368L88.1908 37.5225L88.1858 37.5083L87.2424 37.84ZM88.1384 40.656L87.1854 40.9592L87.4072 41.656H88.1384V40.656ZM88.2184 40.656V41.656H88.9496L89.1713 40.9592L88.2184 40.656ZM89.1144 37.84L88.1733 37.5018L88.1671 37.5192L88.1614 37.5368L89.1144 37.84ZM90.5864 33.744V32.744H89.8831L89.6453 33.4058L90.5864 33.744ZM91.8184 33.744L92.7614 34.0766L93.2315 32.744H91.8184V33.744ZM88.9064 42V43H89.614L89.8494 42.3326L88.9064 42ZM88.362 41.669L85.466 33.413L83.5787 34.075L86.4747 42.331L88.362 41.669ZM84.5224 34.744H85.8024V32.744H84.5224V34.744ZM84.859 34.0757L86.299 38.1717L88.1858 37.5083L86.7458 33.4123L84.859 34.0757ZM86.2894 38.1432L87.1854 40.9592L89.0913 40.3528L88.1953 37.5368L86.2894 38.1432ZM88.1384 41.656H88.2184V39.656H88.1384V41.656ZM89.1713 40.9592L90.0673 38.1432L88.1614 37.5368L87.2654 40.3528L89.1713 40.9592ZM90.0555 38.1782L91.5275 34.0822L89.6453 33.4058L88.1733 37.5018L90.0555 38.1782ZM90.5864 34.744H91.8184V32.744H90.5864V34.744ZM90.8753 33.4114L87.9633 41.6674L89.8494 42.3326L92.7614 34.0766L90.8753 33.4114ZM88.9064 41H87.4184V43H88.9064V41ZM93.4694 42H92.4694V43H93.4694V42ZM93.4694 33.744V32.744H92.4694V33.744H93.4694ZM94.7494 33.744H95.7494V32.744H94.7494V33.744ZM94.7494 35.088H93.7494V36.088H94.7494V35.088ZM94.8134 35.088V36.088H95.4708L95.7314 35.4844L94.8134 35.088ZM95.6614 33.968L95.065 33.1652L95.0539 33.1736L95.6614 33.968ZM99.1654 34.384L98.4164 35.0466L98.4231 35.0542L98.43 35.0617L99.1654 34.384ZM99.9174 42V43H100.917V42H99.9174ZM98.6374 42H97.6374V43H98.6374V42ZM96.0134 34.8L95.7609 33.8323L95.7503 33.8352L96.0134 34.8ZM95.3734 35.088L95.9281 35.9201L95.9281 35.92L95.3734 35.088ZM94.9094 35.584L94.0439 35.083L94.0395 35.0906L94.0352 35.0984L94.9094 35.584ZM94.7494 42V43H95.7494V42H94.7494ZM94.4694 42V33.744H92.4694V42H94.4694ZM93.4694 34.744H94.7494V32.744H93.4694V34.744ZM93.7494 33.744V35.088H95.7494V33.744H93.7494ZM94.7494 36.088H94.8134V34.088H94.7494V36.088ZM95.7314 35.4844C95.8746 35.153 96.0577 34.9238 96.2688 34.7624L95.0539 33.1736C94.5397 33.5669 94.1575 34.0844 93.8953 34.6916L95.7314 35.4844ZM96.2577 34.7707C96.4095 34.6579 96.6751 34.552 97.1494 34.552V32.552C96.3863 32.552 95.6599 32.7234 95.0651 33.1653L96.2577 34.7707ZM97.1494 34.552C97.7645 34.552 98.1453 34.7401 98.4164 35.0466L99.9144 33.7214C99.2041 32.9185 98.2409 32.552 97.1494 32.552V34.552ZM98.43 35.0617C98.7084 35.3638 98.9174 35.8619 98.9174 36.704H100.917C100.917 35.5408 100.625 34.4922 99.9007 33.7063L98.43 35.0617ZM98.9174 36.704V42H100.917V36.704H98.9174ZM99.9174 41H98.6374V43H99.9174V41ZM99.6374 42V36.928H97.6374V42H99.6374ZM99.6374 36.928C99.6374 36.0705 99.4605 35.2411 98.9344 34.616C98.3805 33.958 97.593 33.704 96.7654 33.704V35.704C97.1857 35.704 97.3342 35.8207 97.4043 35.904C97.5022 36.0203 97.6374 36.3028 97.6374 36.928H99.6374ZM96.7654 33.704C96.425 33.704 96.0895 33.7467 95.761 33.8324L96.2658 35.7676C96.4279 35.7253 96.5937 35.704 96.7654 35.704V33.704ZM95.7503 33.8352C95.4175 33.926 95.1048 34.0652 94.8187 34.2559L95.9281 35.92C96.0259 35.8548 96.1399 35.802 96.2765 35.7648L95.7503 33.8352ZM94.8187 34.2559C94.4971 34.4703 94.2369 34.7496 94.0439 35.083L95.7748 36.085C95.8165 36.013 95.8656 35.9617 95.9281 35.9201L94.8187 34.2559ZM94.0352 35.0984C93.8301 35.4676 93.7494 35.8716 93.7494 36.272H95.7494C95.7494 36.1391 95.7753 36.0844 95.7835 36.0696L94.0352 35.0984ZM93.7494 36.272V42H95.7494V36.272H93.7494ZM94.7494 41H93.4694V43H94.7494V41Z" fill="#707070" mask="url(#path-4-inside-1_14279_21257)"/>
</svg>
