<svg width="418" height="237" viewBox="0 0 418 237" fill="none" xmlns="http://www.w3.org/2000/svg">
<g clip-path="url(#clip0_5010_49085)">
<rect width="418" height="237" fill="white"/>
<rect width="402" height="20" transform="translate(0 105)" fill="#DCDCDC"/>
<rect width="402" height="20" transform="translate(0 213)" fill="#DCDCDC"/>
<rect width="402" height="20" transform="translate(0 129)" fill="#DCDCDC"/>
<rect width="300" height="20" transform="translate(0 153)" fill="#DCDCDC"/>
<rect width="123" height="12" transform="translate(0 89)" fill="#DCDCDC"/>
<rect width="123" height="12" transform="translate(0 197)" fill="#DCDCDC"/>
<rect width="1366" height="85" transform="translate(-902)" fill="white"/>
<path d="M-902 54.5H464" stroke="#707070"/>
<path d="M311.848 26.592H311.768L310.824 28.464L308.152 33.328L305.48 28.464L304.536 26.592H304.456V36H303.144V24.832H304.936L308.136 30.848H308.216L311.432 24.832H313.16V36H311.848V26.592ZM319.105 36.192C318.539 36.192 318.027 36.0907 317.569 35.888C317.121 35.6853 316.731 35.3973 316.401 35.024C316.081 34.64 315.83 34.1867 315.649 33.664C315.478 33.1307 315.393 32.5333 315.393 31.872C315.393 31.2213 315.478 30.6293 315.649 30.096C315.83 29.5627 316.081 29.1093 316.401 28.736C316.731 28.352 317.121 28.0587 317.569 27.856C318.027 27.6533 318.539 27.552 319.105 27.552C319.659 27.552 320.155 27.6533 320.593 27.856C321.03 28.0587 321.403 28.3413 321.713 28.704C322.022 29.056 322.257 29.4773 322.417 29.968C322.587 30.4587 322.673 30.9973 322.673 31.584V32.192H316.737V32.576C316.737 32.928 316.79 33.2587 316.897 33.568C317.014 33.8667 317.174 34.128 317.377 34.352C317.59 34.576 317.846 34.752 318.145 34.88C318.454 35.008 318.801 35.072 319.185 35.072C319.707 35.072 320.161 34.9493 320.545 34.704C320.939 34.4587 321.243 34.1067 321.457 33.648L322.369 34.304C322.102 34.8693 321.686 35.328 321.121 35.68C320.555 36.0213 319.883 36.192 319.105 36.192ZM319.105 28.624C318.753 28.624 318.433 28.688 318.145 28.816C317.857 28.9333 317.606 29.104 317.393 29.328C317.19 29.552 317.03 29.8187 316.913 30.128C316.795 30.4267 316.737 30.7573 316.737 31.12V31.232H321.297V31.056C321.297 30.32 321.094 29.7333 320.689 29.296C320.294 28.848 319.766 28.624 319.105 28.624ZM324.782 36V27.744H326.062V29.264H326.142C326.291 28.8693 326.558 28.5173 326.942 28.208C327.326 27.8987 327.854 27.744 328.526 27.744H329.022V29.024H328.27C327.577 29.024 327.033 29.1573 326.638 29.424C326.254 29.68 326.062 30.0053 326.062 30.4V36H324.782ZM333.683 36.192C333.117 36.192 332.605 36.0907 332.147 35.888C331.699 35.6853 331.309 35.3973 330.979 35.024C330.659 34.64 330.408 34.1867 330.227 33.664C330.056 33.1307 329.971 32.5333 329.971 31.872C329.971 31.2213 330.056 30.6293 330.227 30.096C330.408 29.5627 330.659 29.1093 330.979 28.736C331.309 28.352 331.699 28.0587 332.147 27.856C332.605 27.6533 333.117 27.552 333.683 27.552C334.237 27.552 334.733 27.6533 335.171 27.856C335.608 28.0587 335.981 28.3413 336.291 28.704C336.6 29.056 336.835 29.4773 336.995 29.968C337.165 30.4587 337.251 30.9973 337.251 31.584V32.192H331.315V32.576C331.315 32.928 331.368 33.2587 331.475 33.568C331.592 33.8667 331.752 34.128 331.955 34.352C332.168 34.576 332.424 34.752 332.723 34.88C333.032 35.008 333.379 35.072 333.763 35.072C334.285 35.072 334.739 34.9493 335.123 34.704C335.517 34.4587 335.821 34.1067 336.035 33.648L336.947 34.304C336.68 34.8693 336.264 35.328 335.699 35.68C335.133 36.0213 334.461 36.192 333.683 36.192ZM333.683 28.624C333.331 28.624 333.011 28.688 332.723 28.816C332.435 28.9333 332.184 29.104 331.971 29.328C331.768 29.552 331.608 29.8187 331.491 30.128C331.373 30.4267 331.315 30.7573 331.315 31.12V31.232H335.875V31.056C335.875 30.32 335.672 29.7333 335.267 29.296C334.872 28.848 334.344 28.624 333.683 28.624Z" fill="#1A1A1A"/>
<path d="M349 28L354 33L359 28H349Z" fill="#1A1A1A"/>
<path d="M-16.808 24.592H-16.888L-17.832 26.464L-20.504 31.328L-23.176 26.464L-24.12 24.592H-24.2V34H-25.512V22.832H-23.72L-20.52 28.848H-20.44L-17.224 22.832H-15.496V34H-16.808V24.592ZM-9.55162 34.192C-10.117 34.192 -10.629 34.0907 -11.0876 33.888C-11.5356 33.6853 -11.925 33.3973 -12.2556 33.024C-12.5756 32.64 -12.8263 32.1867 -13.0076 31.664C-13.1783 31.1307 -13.2636 30.5333 -13.2636 29.872C-13.2636 29.2213 -13.1783 28.6293 -13.0076 28.096C-12.8263 27.5627 -12.5756 27.1093 -12.2556 26.736C-11.925 26.352 -11.5356 26.0587 -11.0876 25.856C-10.629 25.6533 -10.117 25.552 -9.55162 25.552C-8.99696 25.552 -8.50096 25.6533 -8.06362 25.856C-7.62629 26.0587 -7.25296 26.3413 -6.94362 26.704C-6.63429 27.056 -6.39962 27.4773 -6.23962 27.968C-6.06896 28.4587 -5.98362 28.9973 -5.98362 29.584V30.192H-11.9196V30.576C-11.9196 30.928 -11.8663 31.2587 -11.7596 31.568C-11.6423 31.8667 -11.4823 32.128 -11.2796 32.352C-11.0663 32.576 -10.8103 32.752 -10.5116 32.88C-10.2023 33.008 -9.85562 33.072 -9.47162 33.072C-8.94896 33.072 -8.49562 32.9493 -8.11162 32.704C-7.71696 32.4587 -7.41296 32.1067 -7.19962 31.648L-6.28762 32.304C-6.55429 32.8693 -6.97029 33.328 -7.53562 33.68C-8.10096 34.0213 -8.77296 34.192 -9.55162 34.192ZM-9.55162 26.624C-9.90362 26.624 -10.2236 26.688 -10.5116 26.816C-10.7996 26.9333 -11.0503 27.104 -11.2636 27.328C-11.4663 27.552 -11.6263 27.8187 -11.7436 28.128C-11.861 28.4267 -11.9196 28.7573 -11.9196 29.12V29.232H-7.35962V29.056C-7.35962 28.32 -7.56229 27.7333 -7.96762 27.296C-8.36229 26.848 -8.89029 26.624 -9.55162 26.624ZM-3.87437 34V25.744H-2.59437V27.088H-2.53037C-2.32771 26.6187 -2.04504 26.2453 -1.68237 25.968C-1.30904 25.6907 -0.813042 25.552 -0.194375 25.552C0.658959 25.552 1.33096 25.8293 1.82163 26.384C2.32296 26.928 2.57363 27.7013 2.57363 28.704V34H1.29363V28.928C1.29363 27.4453 0.669625 26.704 -0.578375 26.704C-0.834375 26.704 -1.08504 26.736 -1.33037 26.8C-1.56504 26.864 -1.77837 26.96 -1.97037 27.088C-2.16237 27.216 -2.31704 27.3813 -2.43437 27.584C-2.54104 27.776 -2.59437 28.0053 -2.59437 28.272V34H-3.87437ZM10.3074 32.656H10.2434C10.158 32.848 10.0514 33.04 9.92338 33.232C9.80604 33.4133 9.65671 33.5787 9.47538 33.728C9.29404 33.8667 9.07538 33.9787 8.81938 34.064C8.56338 34.1493 8.26471 34.192 7.92338 34.192C7.07004 34.192 6.39271 33.92 5.89138 33.376C5.39004 32.8213 5.13938 32.0427 5.13938 31.04V25.744H6.41938V30.816C6.41938 32.2987 7.04871 33.04 8.30738 33.04C8.56338 33.04 8.80871 33.008 9.04338 32.944C9.28871 32.88 9.50204 32.784 9.68338 32.656C9.87538 32.528 10.0247 32.368 10.1314 32.176C10.2487 31.9733 10.3074 31.7333 10.3074 31.456V25.744H11.5874V34H10.3074V32.656ZM14.3131 25.744H15.5931V27.088H15.6571C15.8705 26.5653 16.1798 26.1813 16.5851 25.936C17.0011 25.68 17.4971 25.552 18.0731 25.552C18.5851 25.552 19.0491 25.6533 19.4651 25.856C19.8811 26.0587 20.2331 26.3467 20.5211 26.72C20.8198 27.0933 21.0438 27.5467 21.1931 28.08C21.3531 28.6133 21.4331 29.2107 21.4331 29.872C21.4331 30.5333 21.3531 31.1307 21.1931 31.664C21.0438 32.1973 20.8198 32.6507 20.5211 33.024C20.2331 33.3973 19.8811 33.6853 19.4651 33.888C19.0491 34.0907 18.5851 34.192 18.0731 34.192C16.9531 34.192 16.1478 33.68 15.6571 32.656H15.5931V37.2H14.3131V25.744ZM17.7211 33.04C18.4465 33.04 19.0171 32.816 19.4331 32.368C19.8491 31.9093 20.0571 31.312 20.0571 30.576V29.168C20.0571 28.432 19.8491 27.84 19.4331 27.392C19.0171 26.9333 18.4465 26.704 17.7211 26.704C17.4331 26.704 17.1558 26.7467 16.8891 26.832C16.6331 26.9067 16.4091 27.0133 16.2171 27.152C16.0251 27.2907 15.8705 27.4613 15.7531 27.664C15.6465 27.856 15.5931 28.064 15.5931 28.288V31.36C15.5931 31.6267 15.6465 31.8667 15.7531 32.08C15.8705 32.2827 16.0251 32.4587 16.2171 32.608C16.4091 32.7467 16.6331 32.8533 16.8891 32.928C17.1558 33.0027 17.4331 33.04 17.7211 33.04ZM28.6824 32.656H28.6184C28.533 32.848 28.4264 33.04 28.2984 33.232C28.181 33.4133 28.0317 33.5787 27.8504 33.728C27.669 33.8667 27.4504 33.9787 27.1944 34.064C26.9384 34.1493 26.6397 34.192 26.2984 34.192C25.445 34.192 24.7677 33.92 24.2664 33.376C23.765 32.8213 23.5144 32.0427 23.5144 31.04V25.744H24.7944V30.816C24.7944 32.2987 25.4237 33.04 26.6824 33.04C26.9384 33.04 27.1837 33.008 27.4184 32.944C27.6637 32.88 27.877 32.784 28.0584 32.656C28.2504 32.528 28.3997 32.368 28.5064 32.176C28.6237 31.9733 28.6824 31.7333 28.6824 31.456V25.744H29.9624V34H28.6824V32.656ZM32.6881 34V25.744H33.9681V27.088H34.0321C34.2348 26.6187 34.5175 26.2453 34.8801 25.968C35.2535 25.6907 35.7495 25.552 36.3681 25.552C37.2215 25.552 37.8935 25.8293 38.3841 26.384C38.8855 26.928 39.1361 27.7013 39.1361 28.704V34H37.8561V28.928C37.8561 27.4453 37.2321 26.704 35.9841 26.704C35.7281 26.704 35.4775 26.736 35.2321 26.8C34.9975 26.864 34.7841 26.96 34.5921 27.088C34.4001 27.216 34.2455 27.3813 34.1281 27.584C34.0215 27.776 33.9681 28.0053 33.9681 28.272V34H32.6881ZM41.7819 22.16H43.0619V29.664H43.1259L44.3899 28.256L46.7259 25.744H48.2779L45.2219 29.008L48.5819 34H47.0299L44.2939 29.792L43.0619 31.056V34H41.7819V22.16ZM51.8871 34C51.4391 34 51.0978 33.8773 50.8631 33.632C50.6391 33.376 50.5271 33.0453 50.5271 32.64V26.864H49.1671V25.744H49.9351C50.2125 25.744 50.3991 25.6907 50.4951 25.584C50.6018 25.4667 50.6551 25.2693 50.6551 24.992V23.456H51.8071V25.744H53.6151V26.864H51.8071V32.88H53.4871V34H51.8871Z" fill="#1A1A1A"/>
<path d="M89.192 24.592H89.112L88.168 26.464L85.496 31.328L82.824 26.464L81.88 24.592H81.8V34H80.488V22.832H82.28L85.48 28.848H85.56L88.776 22.832H90.504V34H89.192V24.592ZM96.4484 34.192C95.883 34.192 95.371 34.0907 94.9124 33.888C94.4644 33.6853 94.075 33.3973 93.7444 33.024C93.4244 32.64 93.1737 32.1867 92.9924 31.664C92.8217 31.1307 92.7364 30.5333 92.7364 29.872C92.7364 29.2213 92.8217 28.6293 92.9924 28.096C93.1737 27.5627 93.4244 27.1093 93.7444 26.736C94.075 26.352 94.4644 26.0587 94.9124 25.856C95.371 25.6533 95.883 25.552 96.4484 25.552C97.003 25.552 97.499 25.6533 97.9364 25.856C98.3737 26.0587 98.747 26.3413 99.0564 26.704C99.3657 27.056 99.6004 27.4773 99.7604 27.968C99.931 28.4587 100.016 28.9973 100.016 29.584V30.192H94.0804V30.576C94.0804 30.928 94.1337 31.2587 94.2404 31.568C94.3577 31.8667 94.5177 32.128 94.7204 32.352C94.9337 32.576 95.1897 32.752 95.4884 32.88C95.7977 33.008 96.1444 33.072 96.5284 33.072C97.051 33.072 97.5044 32.9493 97.8884 32.704C98.283 32.4587 98.587 32.1067 98.8004 31.648L99.7124 32.304C99.4457 32.8693 99.0297 33.328 98.4644 33.68C97.899 34.0213 97.227 34.192 96.4484 34.192ZM96.4484 26.624C96.0964 26.624 95.7764 26.688 95.4884 26.816C95.2004 26.9333 94.9497 27.104 94.7364 27.328C94.5337 27.552 94.3737 27.8187 94.2564 28.128C94.139 28.4267 94.0804 28.7573 94.0804 29.12V29.232H98.6404V29.056C98.6404 28.32 98.4377 27.7333 98.0324 27.296C97.6377 26.848 97.1097 26.624 96.4484 26.624ZM102.126 34V25.744H103.406V27.088H103.47C103.672 26.6187 103.955 26.2453 104.318 25.968C104.691 25.6907 105.187 25.552 105.806 25.552C106.659 25.552 107.331 25.8293 107.822 26.384C108.323 26.928 108.574 27.7013 108.574 28.704V34H107.294V28.928C107.294 27.4453 106.67 26.704 105.422 26.704C105.166 26.704 104.915 26.736 104.67 26.8C104.435 26.864 104.222 26.96 104.03 27.088C103.838 27.216 103.683 27.3813 103.566 27.584C103.459 27.776 103.406 28.0053 103.406 28.272V34H102.126ZM116.307 32.656H116.243C116.158 32.848 116.051 33.04 115.923 33.232C115.806 33.4133 115.657 33.5787 115.475 33.728C115.294 33.8667 115.075 33.9787 114.819 34.064C114.563 34.1493 114.265 34.192 113.923 34.192C113.07 34.192 112.393 33.92 111.891 33.376C111.39 32.8213 111.139 32.0427 111.139 31.04V25.744H112.419V30.816C112.419 32.2987 113.049 33.04 114.307 33.04C114.563 33.04 114.809 33.008 115.043 32.944C115.289 32.88 115.502 32.784 115.683 32.656C115.875 32.528 116.025 32.368 116.131 32.176C116.249 31.9733 116.307 31.7333 116.307 31.456V25.744H117.587V34H116.307V32.656ZM120.313 25.744H121.593V27.088H121.657C121.87 26.5653 122.18 26.1813 122.585 25.936C123.001 25.68 123.497 25.552 124.073 25.552C124.585 25.552 125.049 25.6533 125.465 25.856C125.881 26.0587 126.233 26.3467 126.521 26.72C126.82 27.0933 127.044 27.5467 127.193 28.08C127.353 28.6133 127.433 29.2107 127.433 29.872C127.433 30.5333 127.353 31.1307 127.193 31.664C127.044 32.1973 126.82 32.6507 126.521 33.024C126.233 33.3973 125.881 33.6853 125.465 33.888C125.049 34.0907 124.585 34.192 124.073 34.192C122.953 34.192 122.148 33.68 121.657 32.656H121.593V37.2H120.313V25.744ZM123.721 33.04C124.446 33.04 125.017 32.816 125.433 32.368C125.849 31.9093 126.057 31.312 126.057 30.576V29.168C126.057 28.432 125.849 27.84 125.433 27.392C125.017 26.9333 124.446 26.704 123.721 26.704C123.433 26.704 123.156 26.7467 122.889 26.832C122.633 26.9067 122.409 27.0133 122.217 27.152C122.025 27.2907 121.87 27.4613 121.753 27.664C121.646 27.856 121.593 28.064 121.593 28.288V31.36C121.593 31.6267 121.646 31.8667 121.753 32.08C121.87 32.2827 122.025 32.4587 122.217 32.608C122.409 32.7467 122.633 32.8533 122.889 32.928C123.156 33.0027 123.433 33.04 123.721 33.04ZM134.682 32.656H134.618C134.533 32.848 134.426 33.04 134.298 33.232C134.181 33.4133 134.032 33.5787 133.85 33.728C133.669 33.8667 133.45 33.9787 133.194 34.064C132.938 34.1493 132.64 34.192 132.298 34.192C131.445 34.192 130.768 33.92 130.266 33.376C129.765 32.8213 129.514 32.0427 129.514 31.04V25.744H130.794V30.816C130.794 32.2987 131.424 33.04 132.682 33.04C132.938 33.04 133.184 33.008 133.418 32.944C133.664 32.88 133.877 32.784 134.058 32.656C134.25 32.528 134.4 32.368 134.506 32.176C134.624 31.9733 134.682 31.7333 134.682 31.456V25.744H135.962V34H134.682V32.656ZM138.688 34V25.744H139.968V27.088H140.032C140.235 26.6187 140.517 26.2453 140.88 25.968C141.253 25.6907 141.749 25.552 142.368 25.552C143.221 25.552 143.893 25.8293 144.384 26.384C144.885 26.928 145.136 27.7013 145.136 28.704V34H143.856V28.928C143.856 27.4453 143.232 26.704 141.984 26.704C141.728 26.704 141.477 26.736 141.232 26.8C140.997 26.864 140.784 26.96 140.592 27.088C140.4 27.216 140.245 27.3813 140.128 27.584C140.021 27.776 139.968 28.0053 139.968 28.272V34H138.688ZM147.782 22.16H149.062V29.664H149.126L150.39 28.256L152.726 25.744H154.278L151.222 29.008L154.582 34H153.03L150.294 29.792L149.062 31.056V34H147.782V22.16ZM157.887 34C157.439 34 157.098 33.8773 156.863 33.632C156.639 33.376 156.527 33.0453 156.527 32.64V26.864H155.167V25.744H155.935C156.212 25.744 156.399 25.6907 156.495 25.584C156.602 25.4667 156.655 25.2693 156.655 24.992V23.456H157.807V25.744H159.615V26.864H157.807V32.88H159.487V34H157.887Z" fill="#1A1A1A"/>
<rect width="24" height="24" transform="translate(339 18)" fill="white"/>
<path d="M349 36C349 35.6044 349.117 35.2178 349.337 34.8889C349.557 34.56 349.869 34.3036 350.235 34.1522C350.6 34.0009 351.002 33.9613 351.39 34.0384C351.778 34.1156 352.135 34.3061 352.414 34.5858C352.694 34.8655 352.884 35.2219 352.962 35.6098C353.039 35.9978 352.999 36.3999 352.848 36.7654C352.696 37.1308 352.44 37.4432 352.111 37.6629C351.782 37.8827 351.396 38 351 38C350.47 38 349.961 37.7893 349.586 37.4142C349.211 37.0391 349 36.5304 349 36ZM349 30C349 29.6044 349.117 29.2178 349.337 28.8889C349.557 28.56 349.869 28.3036 350.235 28.1522C350.6 28.0009 351.002 27.9613 351.39 28.0384C351.778 28.1156 352.135 28.3061 352.414 28.5858C352.694 28.8655 352.884 29.2219 352.962 29.6098C353.039 29.9978 352.999 30.3999 352.848 30.7654C352.696 31.1308 352.44 31.4432 352.111 31.6629C351.782 31.8827 351.396 32 351 32C350.47 32 349.961 31.7893 349.586 31.4142C349.211 31.0391 349 30.5304 349 30ZM349 24C349 23.6044 349.117 23.2178 349.337 22.8889C349.557 22.56 349.869 22.3036 350.235 22.1522C350.6 22.0009 351.002 21.9613 351.39 22.0384C351.778 22.1156 352.135 22.3061 352.414 22.5858C352.694 22.8655 352.884 23.2219 352.962 23.6098C353.039 23.9978 352.999 24.3999 352.848 24.7654C352.696 25.1308 352.44 25.4432 352.111 25.6629C351.782 25.8827 351.396 26 351 26C350.47 26 349.961 25.7893 349.586 25.4142C349.211 25.0391 349 24.5304 349 24Z" fill="#1A1A1A"/>
<g filter="url(#filter0_d_5010_49085)">
<mask id="path-7-inside-1_5010_49085" fill="white">
<path fill-rule="evenodd" clip-rule="evenodd" d="M354.701 48.6054L351 45L347.299 48.6054L225 48.6054L225 179L410 179L410 48.6054L354.701 48.6054Z"/>
</mask>
<path fill-rule="evenodd" clip-rule="evenodd" d="M354.701 48.6054L351 45L347.299 48.6054L225 48.6054L225 179L410 179L410 48.6054L354.701 48.6054Z" fill="white"/>
<path d="M351 45L351.698 44.2837L351 43.6039L350.302 44.2837L351 45ZM354.701 48.6054L354.003 49.3217L354.294 49.6054H354.701V48.6054ZM347.299 48.6054V49.6054L347.706 49.6054L347.997 49.3217L347.299 48.6054ZM225 48.6054L225 47.6054H224L224 48.6054H225ZM225 179H224L224 180H225L225 179ZM410 179V180H411V179H410ZM410 48.6054H411V47.6054H410V48.6054ZM350.302 45.7163L354.003 49.3217L355.398 47.8891L351.698 44.2837L350.302 45.7163ZM347.997 49.3217L351.698 45.7163L350.302 44.2837L346.602 47.8891L347.997 49.3217ZM225 49.6054L347.299 49.6054V47.6054L225 47.6054L225 49.6054ZM226 179L226 48.6054H224L224 179H226ZM410 178L225 178L225 180L410 180V178ZM409 48.6054L409 179H411L411 48.6054H409ZM354.701 49.6054L410 49.6054V47.6054L354.701 47.6054V49.6054Z" fill="#707070" mask="url(#path-7-inside-1_5010_49085)"/>
</g>
<path d="M244.488 165V153.832H245.832V163.816H250.584V165H244.488ZM255.339 165.192C254.785 165.192 254.278 165.091 253.819 164.888C253.361 164.685 252.966 164.397 252.635 164.024C252.315 163.64 252.065 163.187 251.883 162.664C251.702 162.131 251.611 161.533 251.611 160.872C251.611 160.221 251.702 159.629 251.883 159.096C252.065 158.563 252.315 158.109 252.635 157.736C252.966 157.352 253.361 157.059 253.819 156.856C254.278 156.653 254.785 156.552 255.339 156.552C255.894 156.552 256.395 156.653 256.843 156.856C257.302 157.059 257.697 157.352 258.027 157.736C258.358 158.109 258.614 158.563 258.795 159.096C258.977 159.629 259.067 160.221 259.067 160.872C259.067 161.533 258.977 162.131 258.795 162.664C258.614 163.187 258.358 163.64 258.027 164.024C257.697 164.397 257.302 164.685 256.843 164.888C256.395 165.091 255.894 165.192 255.339 165.192ZM255.339 164.056C256.033 164.056 256.598 163.843 257.035 163.416C257.473 162.989 257.691 162.339 257.691 161.464V160.28C257.691 159.405 257.473 158.755 257.035 158.328C256.598 157.901 256.033 157.688 255.339 157.688C254.646 157.688 254.081 157.901 253.643 158.328C253.206 158.755 252.987 159.405 252.987 160.28V161.464C252.987 162.339 253.206 162.989 253.643 163.416C254.081 163.843 254.646 164.056 255.339 164.056ZM268.133 165.912C268.133 166.765 267.797 167.389 267.125 167.784C266.463 168.189 265.466 168.392 264.133 168.392C262.842 168.392 261.914 168.216 261.349 167.864C260.783 167.512 260.501 167.011 260.501 166.36C260.501 165.912 260.618 165.56 260.853 165.304C261.087 165.059 261.407 164.877 261.812 164.76V164.584C261.322 164.349 261.077 163.965 261.077 163.432C261.077 163.016 261.21 162.701 261.477 162.488C261.743 162.264 262.085 162.099 262.501 161.992V161.928C262.01 161.693 261.626 161.357 261.349 160.92C261.082 160.483 260.949 159.976 260.949 159.4C260.949 158.984 261.023 158.6 261.173 158.248C261.322 157.896 261.53 157.597 261.797 157.352C262.074 157.096 262.399 156.899 262.773 156.76C263.157 156.621 263.583 156.552 264.053 156.552C264.639 156.552 265.162 156.659 265.621 156.872V156.728C265.621 156.408 265.695 156.147 265.845 155.944C265.994 155.731 266.239 155.624 266.581 155.624H267.812V156.744H266.245V157.272C266.543 157.528 266.773 157.837 266.933 158.2C267.103 158.552 267.189 158.952 267.189 159.4C267.189 159.816 267.114 160.2 266.965 160.552C266.815 160.904 266.602 161.208 266.325 161.464C266.058 161.709 265.733 161.901 265.349 162.04C264.965 162.179 264.538 162.248 264.069 162.248C263.802 162.248 263.535 162.221 263.269 162.168C262.991 162.243 262.741 162.355 262.517 162.504C262.293 162.643 262.181 162.84 262.181 163.096C262.181 163.341 262.298 163.507 262.533 163.592C262.767 163.677 263.071 163.72 263.445 163.72H265.205C266.229 163.72 266.97 163.917 267.429 164.312C267.898 164.696 268.133 165.229 268.133 165.912ZM266.933 166.008C266.933 165.677 266.805 165.411 266.549 165.208C266.303 165.016 265.861 164.92 265.221 164.92H262.469C261.957 165.155 261.701 165.528 261.701 166.04C261.701 166.403 261.834 166.712 262.101 166.968C262.378 167.224 262.842 167.352 263.493 167.352H264.677C265.391 167.352 265.946 167.24 266.341 167.016C266.735 166.792 266.933 166.456 266.933 166.008ZM264.069 161.224C264.613 161.224 265.045 161.096 265.365 160.84C265.685 160.573 265.845 160.168 265.845 159.624V159.176C265.845 158.632 265.685 158.232 265.365 157.976C265.045 157.709 264.613 157.576 264.069 157.576C263.525 157.576 263.093 157.709 262.773 157.976C262.453 158.232 262.293 158.632 262.293 159.176V159.624C262.293 160.168 262.453 160.573 262.773 160.84C263.093 161.096 263.525 161.224 264.069 161.224ZM278.495 163.656H278.431C278.346 163.848 278.239 164.04 278.111 164.232C277.994 164.413 277.844 164.579 277.663 164.728C277.482 164.867 277.263 164.979 277.007 165.064C276.751 165.149 276.452 165.192 276.111 165.192C275.258 165.192 274.58 164.92 274.079 164.376C273.578 163.821 273.327 163.043 273.327 162.04V156.744H274.607V161.816C274.607 163.299 275.236 164.04 276.495 164.04C276.751 164.04 276.996 164.008 277.231 163.944C277.476 163.88 277.69 163.784 277.871 163.656C278.063 163.528 278.212 163.368 278.319 163.176C278.436 162.973 278.495 162.733 278.495 162.456V156.744H279.775V165H278.495V163.656ZM287.781 163.656H287.717C287.215 164.68 286.41 165.192 285.301 165.192C284.789 165.192 284.325 165.091 283.909 164.888C283.493 164.685 283.135 164.397 282.837 164.024C282.549 163.651 282.325 163.197 282.165 162.664C282.015 162.131 281.941 161.533 281.941 160.872C281.941 160.211 282.015 159.613 282.165 159.08C282.325 158.547 282.549 158.093 282.837 157.72C283.135 157.347 283.493 157.059 283.909 156.856C284.325 156.653 284.789 156.552 285.301 156.552C285.877 156.552 286.367 156.68 286.773 156.936C287.189 157.181 287.503 157.565 287.717 158.088H287.781V153.16H289.061V165H287.781V163.656ZM285.653 164.04C285.941 164.04 286.213 164.003 286.469 163.928C286.735 163.853 286.965 163.747 287.157 163.608C287.349 163.459 287.498 163.283 287.605 163.08C287.722 162.867 287.781 162.627 287.781 162.36V159.288C287.781 159.064 287.722 158.856 287.605 158.664C287.498 158.461 287.349 158.291 287.157 158.152C286.965 158.013 286.735 157.907 286.469 157.832C286.213 157.747 285.941 157.704 285.653 157.704C284.927 157.704 284.357 157.933 283.941 158.392C283.525 158.84 283.317 159.432 283.317 160.168V161.576C283.317 162.312 283.525 162.909 283.941 163.368C284.357 163.816 284.927 164.04 285.653 164.04Z" fill="#1A1A1A"/>
<rect width="183" height="1" transform="matrix(1 0 0 -1 226 140)" fill="#BFBFBF"/>
<path d="M248.248 115.016V125H246.904V115.016H243.352V113.832H251.8V115.016H248.248ZM254.156 114.808C253.879 114.808 253.676 114.744 253.548 114.616C253.431 114.477 253.372 114.301 253.372 114.088V113.88C253.372 113.667 253.431 113.496 253.548 113.368C253.676 113.229 253.879 113.16 254.156 113.16C254.434 113.16 254.631 113.229 254.748 113.368C254.876 113.496 254.94 113.667 254.94 113.88V114.088C254.94 114.301 254.876 114.477 254.748 114.616C254.631 114.744 254.434 114.808 254.156 114.808ZM253.516 116.744H254.796V125H253.516V116.744ZM258.876 125C258.428 125 258.087 124.877 257.852 124.632C257.628 124.376 257.516 124.056 257.516 123.672V113.16H258.796V123.88H260.012V125H258.876ZM261.876 113.16H263.156V118.088H263.22C263.433 117.565 263.742 117.181 264.148 116.936C264.564 116.68 265.06 116.552 265.636 116.552C266.148 116.552 266.612 116.653 267.028 116.856C267.444 117.059 267.796 117.347 268.084 117.72C268.382 118.093 268.606 118.547 268.756 119.08C268.916 119.613 268.996 120.211 268.996 120.872C268.996 121.533 268.916 122.131 268.756 122.664C268.606 123.197 268.382 123.651 268.084 124.024C267.796 124.397 267.444 124.685 267.028 124.888C266.612 125.091 266.148 125.192 265.636 125.192C264.516 125.192 263.71 124.68 263.22 123.656H263.156V125H261.876V113.16ZM265.284 124.04C266.009 124.04 266.58 123.816 266.996 123.368C267.412 122.909 267.62 122.312 267.62 121.576V120.168C267.62 119.432 267.412 118.84 266.996 118.392C266.58 117.933 266.009 117.704 265.284 117.704C264.996 117.704 264.718 117.747 264.452 117.832C264.196 117.907 263.972 118.013 263.78 118.152C263.588 118.291 263.433 118.461 263.316 118.664C263.209 118.856 263.156 119.064 263.156 119.288V122.36C263.156 122.627 263.209 122.867 263.316 123.08C263.433 123.283 263.588 123.459 263.78 123.608C263.972 123.747 264.196 123.853 264.452 123.928C264.718 124.003 264.996 124.04 265.284 124.04ZM277.157 125C276.677 125 276.33 124.872 276.117 124.616C275.914 124.36 275.786 124.04 275.733 123.656H275.653C275.472 124.168 275.173 124.552 274.757 124.808C274.341 125.064 273.845 125.192 273.269 125.192C272.394 125.192 271.712 124.968 271.221 124.52C270.741 124.072 270.501 123.464 270.501 122.696C270.501 121.917 270.784 121.32 271.349 120.904C271.925 120.488 272.816 120.28 274.021 120.28H275.653V119.464C275.653 118.877 275.493 118.429 275.173 118.12C274.853 117.811 274.362 117.656 273.701 117.656C273.2 117.656 272.778 117.768 272.437 117.992C272.106 118.216 271.829 118.515 271.605 118.888L270.837 118.168C271.061 117.72 271.418 117.341 271.909 117.032C272.4 116.712 273.018 116.552 273.765 116.552C274.768 116.552 275.546 116.797 276.101 117.288C276.656 117.779 276.933 118.461 276.933 119.336V123.88H277.877V125H277.157ZM273.477 124.104C273.797 124.104 274.09 124.067 274.357 123.992C274.624 123.917 274.853 123.811 275.045 123.672C275.237 123.533 275.386 123.373 275.493 123.192C275.6 123.011 275.653 122.813 275.653 122.6V121.24H273.957C273.221 121.24 272.682 121.347 272.341 121.56C272.01 121.773 271.845 122.083 271.845 122.488V122.824C271.845 123.229 271.989 123.544 272.277 123.768C272.576 123.992 272.976 124.104 273.477 124.104ZM286.664 125.912C286.664 126.765 286.328 127.389 285.656 127.784C284.994 128.189 283.997 128.392 282.664 128.392C281.373 128.392 280.445 128.216 279.88 127.864C279.314 127.512 279.032 127.011 279.032 126.36C279.032 125.912 279.149 125.56 279.384 125.304C279.618 125.059 279.938 124.877 280.344 124.76V124.584C279.853 124.349 279.608 123.965 279.608 123.432C279.608 123.016 279.741 122.701 280.008 122.488C280.274 122.264 280.616 122.099 281.032 121.992V121.928C280.541 121.693 280.157 121.357 279.88 120.92C279.613 120.483 279.48 119.976 279.48 119.4C279.48 118.984 279.554 118.6 279.704 118.248C279.853 117.896 280.061 117.597 280.328 117.352C280.605 117.096 280.93 116.899 281.304 116.76C281.688 116.621 282.114 116.552 282.584 116.552C283.17 116.552 283.693 116.659 284.152 116.872V116.728C284.152 116.408 284.226 116.147 284.376 115.944C284.525 115.731 284.77 115.624 285.112 115.624H286.344V116.744H284.776V117.272C285.074 117.528 285.304 117.837 285.464 118.2C285.634 118.552 285.72 118.952 285.72 119.4C285.72 119.816 285.645 120.2 285.496 120.552C285.346 120.904 285.133 121.208 284.856 121.464C284.589 121.709 284.264 121.901 283.88 122.04C283.496 122.179 283.069 122.248 282.6 122.248C282.333 122.248 282.066 122.221 281.8 122.168C281.522 122.243 281.272 122.355 281.048 122.504C280.824 122.643 280.712 122.84 280.712 123.096C280.712 123.341 280.829 123.507 281.064 123.592C281.298 123.677 281.602 123.72 281.976 123.72H283.736C284.76 123.72 285.501 123.917 285.96 124.312C286.429 124.696 286.664 125.229 286.664 125.912ZM285.464 126.008C285.464 125.677 285.336 125.411 285.08 125.208C284.834 125.016 284.392 124.92 283.752 124.92H281C280.488 125.155 280.232 125.528 280.232 126.04C280.232 126.403 280.365 126.712 280.632 126.968C280.909 127.224 281.373 127.352 282.024 127.352H283.208C283.922 127.352 284.477 127.24 284.872 127.016C285.266 126.792 285.464 126.456 285.464 126.008ZM282.6 121.224C283.144 121.224 283.576 121.096 283.896 120.84C284.216 120.573 284.376 120.168 284.376 119.624V119.176C284.376 118.632 284.216 118.232 283.896 117.976C283.576 117.709 283.144 117.576 282.6 117.576C282.056 117.576 281.624 117.709 281.304 117.976C280.984 118.232 280.824 118.632 280.824 119.176V119.624C280.824 120.168 280.984 120.573 281.304 120.84C281.624 121.096 282.056 121.224 282.6 121.224ZM291.167 125.192C290.602 125.192 290.09 125.091 289.631 124.888C289.183 124.685 288.794 124.397 288.463 124.024C288.143 123.64 287.892 123.187 287.711 122.664C287.54 122.131 287.455 121.533 287.455 120.872C287.455 120.221 287.54 119.629 287.711 119.096C287.892 118.563 288.143 118.109 288.463 117.736C288.794 117.352 289.183 117.059 289.631 116.856C290.09 116.653 290.602 116.552 291.167 116.552C291.722 116.552 292.218 116.653 292.655 116.856C293.092 117.059 293.466 117.341 293.775 117.704C294.084 118.056 294.319 118.477 294.479 118.968C294.65 119.459 294.735 119.997 294.735 120.584V121.192H288.799V121.576C288.799 121.928 288.852 122.259 288.959 122.568C289.076 122.867 289.236 123.128 289.439 123.352C289.652 123.576 289.908 123.752 290.207 123.88C290.516 124.008 290.863 124.072 291.247 124.072C291.77 124.072 292.223 123.949 292.607 123.704C293.002 123.459 293.306 123.107 293.519 122.648L294.431 123.304C294.164 123.869 293.748 124.328 293.183 124.68C292.618 125.021 291.946 125.192 291.167 125.192ZM291.167 117.624C290.815 117.624 290.495 117.688 290.207 117.816C289.919 117.933 289.668 118.104 289.455 118.328C289.252 118.552 289.092 118.819 288.975 119.128C288.858 119.427 288.799 119.757 288.799 120.12V120.232H293.359V120.056C293.359 119.32 293.156 118.733 292.751 118.296C292.356 117.848 291.828 117.624 291.167 117.624ZM302.45 125C302.002 125 301.66 124.877 301.426 124.632C301.202 124.376 301.09 124.045 301.09 123.64V117.864H299.73V116.744H300.498C300.775 116.744 300.962 116.691 301.058 116.584C301.164 116.467 301.218 116.269 301.218 115.992V114.456H302.37V116.744H304.178V117.864H302.37V123.88H304.05V125H302.45ZM306.875 114.808C306.598 114.808 306.395 114.744 306.267 114.616C306.15 114.477 306.091 114.301 306.091 114.088V113.88C306.091 113.667 306.15 113.496 306.267 113.368C306.395 113.229 306.598 113.16 306.875 113.16C307.152 113.16 307.35 113.229 307.467 113.368C307.595 113.496 307.659 113.667 307.659 113.88V114.088C307.659 114.301 307.595 114.477 307.467 114.616C307.35 114.744 307.152 114.808 306.875 114.808ZM306.235 116.744H307.515V125H306.235V116.744ZM311.595 125C311.147 125 310.806 124.877 310.571 124.632C310.347 124.376 310.235 124.056 310.235 123.672V113.16H311.515V123.88H312.731V125H311.595ZM318.824 117.864H317.48V116.744H318.824V115.08C318.824 114.504 318.973 114.04 319.272 113.688C319.57 113.336 320.024 113.16 320.632 113.16H321.88V114.28H320.104V116.744H321.88V117.864H320.104V125H318.824V117.864ZM326.621 125.192C326.066 125.192 325.559 125.091 325.101 124.888C324.642 124.685 324.247 124.397 323.917 124.024C323.597 123.64 323.346 123.187 323.165 122.664C322.983 122.131 322.893 121.533 322.893 120.872C322.893 120.221 322.983 119.629 323.165 119.096C323.346 118.563 323.597 118.109 323.917 117.736C324.247 117.352 324.642 117.059 325.101 116.856C325.559 116.653 326.066 116.552 326.621 116.552C327.175 116.552 327.677 116.653 328.125 116.856C328.583 117.059 328.978 117.352 329.309 117.736C329.639 118.109 329.895 118.563 330.077 119.096C330.258 119.629 330.349 120.221 330.349 120.872C330.349 121.533 330.258 122.131 330.077 122.664C329.895 123.187 329.639 123.64 329.309 124.024C328.978 124.397 328.583 124.685 328.125 124.888C327.677 125.091 327.175 125.192 326.621 125.192ZM326.621 124.056C327.314 124.056 327.879 123.843 328.317 123.416C328.754 122.989 328.973 122.339 328.973 121.464V120.28C328.973 119.405 328.754 118.755 328.317 118.328C327.879 117.901 327.314 117.688 326.621 117.688C325.927 117.688 325.362 117.901 324.925 118.328C324.487 118.755 324.269 119.405 324.269 120.28V121.464C324.269 122.339 324.487 122.989 324.925 123.416C325.362 123.843 325.927 124.056 326.621 124.056ZM332.454 125V116.744H333.734V118.264H333.814C333.963 117.869 334.23 117.517 334.614 117.208C334.998 116.899 335.526 116.744 336.198 116.744H336.694V118.024H335.942C335.248 118.024 334.704 118.157 334.31 118.424C333.926 118.68 333.734 119.005 333.734 119.4V125H332.454ZM340.809 125.192C340.041 125.192 339.395 125.048 338.873 124.76C338.361 124.461 337.918 124.067 337.545 123.576L338.457 122.84C338.777 123.245 339.134 123.56 339.529 123.784C339.923 123.997 340.382 124.104 340.905 124.104C341.449 124.104 341.87 123.987 342.169 123.752C342.478 123.517 342.633 123.187 342.633 122.76C342.633 122.44 342.526 122.168 342.313 121.944C342.11 121.709 341.737 121.549 341.193 121.464L340.537 121.368C340.153 121.315 339.801 121.235 339.481 121.128C339.161 121.011 338.878 120.861 338.633 120.68C338.398 120.488 338.211 120.253 338.073 119.976C337.945 119.699 337.881 119.368 337.881 118.984C337.881 118.579 337.955 118.227 338.105 117.928C338.254 117.619 338.457 117.363 338.713 117.16C338.979 116.957 339.294 116.808 339.657 116.712C340.019 116.605 340.409 116.552 340.825 116.552C341.497 116.552 342.057 116.669 342.505 116.904C342.963 117.139 343.363 117.464 343.705 117.88L342.857 118.648C342.675 118.392 342.409 118.163 342.057 117.96C341.705 117.747 341.262 117.64 340.729 117.64C340.195 117.64 339.79 117.757 339.513 117.992C339.246 118.216 339.113 118.525 339.113 118.92C339.113 119.325 339.246 119.619 339.513 119.8C339.79 119.981 340.185 120.115 340.697 120.2L341.337 120.296C342.254 120.435 342.905 120.701 343.289 121.096C343.673 121.48 343.865 121.987 343.865 122.616C343.865 123.416 343.593 124.045 343.049 124.504C342.505 124.963 341.758 125.192 340.809 125.192ZM346.766 114.808C346.488 114.808 346.286 114.744 346.158 114.616C346.04 114.477 345.982 114.301 345.982 114.088V113.88C345.982 113.667 346.04 113.496 346.158 113.368C346.286 113.229 346.488 113.16 346.766 113.16C347.043 113.16 347.24 113.229 347.358 113.368C347.486 113.496 347.55 113.667 347.55 113.88V114.088C347.55 114.301 347.486 114.477 347.358 114.616C347.24 114.744 347.043 114.808 346.766 114.808ZM346.126 116.744H347.406V125H346.126V116.744ZM355.406 123.656H355.342C354.84 124.68 354.035 125.192 352.926 125.192C352.414 125.192 351.95 125.091 351.534 124.888C351.118 124.685 350.76 124.397 350.462 124.024C350.174 123.651 349.95 123.197 349.79 122.664C349.64 122.131 349.566 121.533 349.566 120.872C349.566 120.211 349.64 119.613 349.79 119.08C349.95 118.547 350.174 118.093 350.462 117.72C350.76 117.347 351.118 117.059 351.534 116.856C351.95 116.653 352.414 116.552 352.926 116.552C353.502 116.552 353.992 116.68 354.398 116.936C354.814 117.181 355.128 117.565 355.342 118.088H355.406V113.16H356.686V125H355.406V123.656ZM353.278 124.04C353.566 124.04 353.838 124.003 354.094 123.928C354.36 123.853 354.59 123.747 354.782 123.608C354.974 123.459 355.123 123.283 355.23 123.08C355.347 122.867 355.406 122.627 355.406 122.36V119.288C355.406 119.064 355.347 118.856 355.23 118.664C355.123 118.461 354.974 118.291 354.782 118.152C354.59 118.013 354.36 117.907 354.094 117.832C353.838 117.747 353.566 117.704 353.278 117.704C352.552 117.704 351.982 117.933 351.566 118.392C351.15 118.84 350.942 119.432 350.942 120.168V121.576C350.942 122.312 351.15 122.909 351.566 123.368C351.982 123.816 352.552 124.04 353.278 124.04ZM362.511 125.192C361.946 125.192 361.434 125.091 360.975 124.888C360.527 124.685 360.138 124.397 359.807 124.024C359.487 123.64 359.236 123.187 359.055 122.664C358.884 122.131 358.799 121.533 358.799 120.872C358.799 120.221 358.884 119.629 359.055 119.096C359.236 118.563 359.487 118.109 359.807 117.736C360.138 117.352 360.527 117.059 360.975 116.856C361.434 116.653 361.946 116.552 362.511 116.552C363.066 116.552 363.562 116.653 363.999 116.856C364.436 117.059 364.81 117.341 365.119 117.704C365.428 118.056 365.663 118.477 365.823 118.968C365.994 119.459 366.079 119.997 366.079 120.584V121.192H360.143V121.576C360.143 121.928 360.196 122.259 360.303 122.568C360.42 122.867 360.58 123.128 360.783 123.352C360.996 123.576 361.252 123.752 361.551 123.88C361.86 124.008 362.207 124.072 362.591 124.072C363.114 124.072 363.567 123.949 363.951 123.704C364.346 123.459 364.65 123.107 364.863 122.648L365.775 123.304C365.508 123.869 365.092 124.328 364.527 124.68C363.962 125.021 363.29 125.192 362.511 125.192ZM362.511 117.624C362.159 117.624 361.839 117.688 361.551 117.816C361.263 117.933 361.012 118.104 360.799 118.328C360.596 118.552 360.436 118.819 360.319 119.128C360.202 119.427 360.143 119.757 360.143 120.12V120.232H364.703V120.056C364.703 119.32 364.5 118.733 364.095 118.296C363.7 117.848 363.172 117.624 362.511 117.624ZM368.188 125V116.744H369.468V118.088H369.532C369.735 117.619 370.017 117.245 370.38 116.968C370.753 116.691 371.249 116.552 371.868 116.552C372.721 116.552 373.393 116.829 373.884 117.384C374.385 117.928 374.636 118.701 374.636 119.704V125H373.356V119.928C373.356 118.445 372.732 117.704 371.484 117.704C371.228 117.704 370.977 117.736 370.732 117.8C370.497 117.864 370.284 117.96 370.092 118.088C369.9 118.216 369.745 118.381 369.628 118.584C369.521 118.776 369.468 119.005 369.468 119.272V125H368.188Z" fill="#1A1A1A"/>
<rect width="183" height="1" transform="matrix(1 0 0 -1 226 100)" fill="#BFBFBF"/>
<path d="M247.192 78.184L245.848 75.704H245.8V85H244.488V73.832H246.04L250.12 80.648L251.464 83.128H251.512V73.832H252.824V85H251.272L247.192 78.184ZM258.473 81.192C257.737 81.2133 257.198 81.336 256.857 81.56C256.526 81.7733 256.361 82.0827 256.361 82.488V82.824C256.361 83.2293 256.505 83.544 256.793 83.768C257.091 83.992 257.497 84.104 258.009 84.104C258.318 84.104 258.601 84.0667 258.857 83.992C259.123 83.9173 259.353 83.8107 259.545 83.672C259.737 83.5333 259.886 83.3733 259.993 83.192C260.11 83.0107 260.169 82.8133 260.169 82.6V81.192H258.473ZM266.009 80.232V80.056C266.009 79.32 265.806 78.7333 265.401 78.296C265.006 77.848 264.478 77.624 263.817 77.624C263.465 77.624 263.145 77.688 262.857 77.816C262.569 77.9333 262.318 78.104 262.105 78.328C261.902 78.552 261.742 78.8187 261.625 79.128C261.507 79.4267 261.449 79.7573 261.449 80.12V80.232H266.009ZM263.897 84.072C264.953 84.072 265.71 83.6027 266.169 82.664L267.081 83.304C266.814 83.88 266.403 84.3387 265.849 84.68C265.305 85.0213 264.675 85.192 263.961 85.192C263.523 85.192 263.123 85.128 262.76 85C262.409 84.8827 262.099 84.7333 261.833 84.552C261.577 84.36 261.369 84.1573 261.209 83.944C261.049 83.72 260.947 83.5173 260.905 83.336H260.809C260.777 83.5173 260.681 83.7147 260.521 83.928C260.371 84.1413 260.169 84.344 259.913 84.536C259.657 84.7173 259.347 84.872 258.985 85C258.622 85.128 258.211 85.192 257.753 85.192C256.921 85.192 256.254 84.9733 255.753 84.536C255.262 84.088 255.017 83.4853 255.017 82.728C255.017 81.928 255.31 81.3147 255.897 80.888C256.483 80.4507 257.363 80.232 258.536 80.232H260.169V79.464C260.169 78.8773 260.009 78.4293 259.689 78.12C259.369 77.8107 258.894 77.656 258.265 77.656C257.731 77.656 257.299 77.7627 256.969 77.976C256.638 78.1893 256.355 78.488 256.121 78.872L255.353 78.168C255.566 77.7307 255.918 77.352 256.409 77.032C256.91 76.712 257.539 76.552 258.297 76.552C258.766 76.552 259.155 76.6213 259.465 76.76C259.785 76.888 260.041 77.048 260.233 77.24C260.435 77.4213 260.585 77.6187 260.681 77.832C260.777 78.0453 260.846 78.232 260.889 78.392H260.985C261.027 78.2107 261.129 78.0133 261.289 77.8C261.449 77.5867 261.657 77.3893 261.913 77.208C262.169 77.016 262.467 76.8613 262.809 76.744C263.161 76.616 263.545 76.552 263.961 76.552C264.483 76.552 264.953 76.6533 265.369 76.856C265.795 77.0587 266.158 77.3413 266.457 77.704C266.755 78.056 266.985 78.4773 267.145 78.968C267.305 79.4587 267.385 79.9973 267.385 80.584V81.192H261.449V81.576C261.449 81.928 261.502 82.2587 261.609 82.568C261.726 82.8667 261.886 83.128 262.089 83.352C262.302 83.576 262.558 83.752 262.857 83.88C263.166 84.008 263.513 84.072 263.897 84.072ZM271.981 85.192C271.213 85.192 270.567 85.048 270.045 84.76C269.533 84.4613 269.09 84.0667 268.717 83.576L269.629 82.84C269.949 83.2453 270.306 83.56 270.701 83.784C271.095 83.9973 271.554 84.104 272.077 84.104C272.621 84.104 273.042 83.9867 273.341 83.752C273.65 83.5173 273.805 83.1867 273.805 82.76C273.805 82.44 273.698 82.168 273.485 81.944C273.282 81.7093 272.909 81.5493 272.365 81.464L271.709 81.368C271.325 81.3147 270.973 81.2347 270.653 81.128C270.333 81.0107 270.05 80.8613 269.805 80.68C269.57 80.488 269.383 80.2533 269.245 79.976C269.117 79.6987 269.053 79.368 269.053 78.984C269.053 78.5787 269.127 78.2267 269.277 77.928C269.426 77.6187 269.629 77.3627 269.885 77.16C270.151 76.9573 270.466 76.808 270.829 76.712C271.191 76.6053 271.581 76.552 271.997 76.552C272.669 76.552 273.229 76.6693 273.677 76.904C274.135 77.1387 274.535 77.464 274.877 77.88L274.029 78.648C273.847 78.392 273.581 78.1627 273.229 77.96C272.877 77.7467 272.434 77.64 271.901 77.64C271.367 77.64 270.962 77.7573 270.685 77.992C270.418 78.216 270.285 78.5253 270.285 78.92C270.285 79.3253 270.418 79.6187 270.685 79.8C270.962 79.9813 271.357 80.1147 271.869 80.2L272.509 80.296C273.426 80.4347 274.077 80.7013 274.461 81.096C274.845 81.48 275.037 81.9867 275.037 82.616C275.037 83.416 274.765 84.0453 274.221 84.504C273.677 84.9627 272.93 85.192 271.981 85.192ZM279.012 85C278.564 85 278.223 84.8773 277.988 84.632C277.764 84.376 277.652 84.0453 277.652 83.64V77.864H276.292V76.744H277.06C277.337 76.744 277.524 76.6907 277.62 76.584C277.727 76.4667 277.78 76.2693 277.78 75.992V74.456H278.932V76.744H280.74V77.864H278.932V83.88H280.612V85H279.012ZM285.839 85.192C285.274 85.192 284.762 85.0907 284.303 84.888C283.855 84.6853 283.466 84.3973 283.135 84.024C282.815 83.64 282.564 83.1867 282.383 82.664C282.212 82.1307 282.127 81.5333 282.127 80.872C282.127 80.2213 282.212 79.6293 282.383 79.096C282.564 78.5627 282.815 78.1093 283.135 77.736C283.466 77.352 283.855 77.0587 284.303 76.856C284.762 76.6533 285.274 76.552 285.839 76.552C286.394 76.552 286.89 76.6533 287.327 76.856C287.764 77.0587 288.138 77.3413 288.447 77.704C288.756 78.056 288.991 78.4773 289.151 78.968C289.322 79.4587 289.407 79.9973 289.407 80.584V81.192H283.471V81.576C283.471 81.928 283.524 82.2587 283.631 82.568C283.748 82.8667 283.908 83.128 284.111 83.352C284.324 83.576 284.58 83.752 284.879 83.88C285.188 84.008 285.535 84.072 285.919 84.072C286.442 84.072 286.895 83.9493 287.279 83.704C287.674 83.4587 287.978 83.1067 288.191 82.648L289.103 83.304C288.836 83.8693 288.42 84.328 287.855 84.68C287.29 85.0213 286.618 85.192 285.839 85.192ZM285.839 77.624C285.487 77.624 285.167 77.688 284.879 77.816C284.591 77.9333 284.34 78.104 284.127 78.328C283.924 78.552 283.764 78.8187 283.647 79.128C283.53 79.4267 283.471 79.7573 283.471 80.12V80.232H288.031V80.056C288.031 79.32 287.828 78.7333 287.423 78.296C287.028 77.848 286.5 77.624 285.839 77.624Z" fill="#1A1A1A"/>
</g>
<defs>
<filter id="filter0_d_5010_49085" x="217" y="41" width="201" height="150" filterUnits="userSpaceOnUse" color-interpolation-filters="sRGB">
<feFlood flood-opacity="0" result="BackgroundImageFix"/>
<feColorMatrix in="SourceAlpha" type="matrix" values="0 0 0 0 0 0 0 0 0 0 0 0 0 0 0 0 0 0 127 0" result="hardAlpha"/>
<feOffset dy="4"/>
<feGaussianBlur stdDeviation="4"/>
<feColorMatrix type="matrix" values="0 0 0 0 0 0 0 0 0 0 0 0 0 0 0 0 0 0 0.302 0"/>
<feBlend mode="normal" in2="BackgroundImageFix" result="effect1_dropShadow_5010_49085"/>
<feBlend mode="normal" in="SourceGraphic" in2="effect1_dropShadow_5010_49085" result="shape"/>
</filter>
<clipPath id="clip0_5010_49085">
<rect width="418" height="237" fill="white"/>
</clipPath>
</defs>
</svg>
