<svg width="361" height="209" viewBox="0 0 361 209" fill="none" xmlns="http://www.w3.org/2000/svg">
<path d="M360 35H1V74H360V35Z" fill="#C8CADF" stroke="#474E95"/>
<path d="M15.876 59.988V55.236H20.292V53.1H15.876V48.348H13.524V53.1H9.108V55.236H13.524V59.988H15.876Z" fill="#474E95"/>
<path d="M360 80H1V119H360V80Z" fill="#C8CADF" stroke="#474E95"/>
<path d="M15.876 104.988V100.236H20.292V98.1H15.876V93.348H13.524V98.1H9.108V100.236H13.524V104.988H15.876Z" fill="#474E95"/>
<path d="M360 125H1V164H360V125Z" fill="#C8CADF" stroke="#474E95"/>
<path d="M15.876 149.988V145.236H20.292V143.1H15.876V138.348H13.524V143.1H9.108V145.236H13.524V149.988H15.876Z" fill="#474E95"/>
<path d="M360 169.5H1V208.5H360V169.5Z" fill="#C8CADF" stroke="#474E95"/>
<path d="M15.876 194.488V189.736H20.292V187.6H15.876V182.848H13.524V187.6H9.108V189.736H13.524V194.488H15.876Z" fill="#474E95"/>
</svg>
