<svg width="360" height="360" viewBox="0 0 360 360" fill="none" xmlns="http://www.w3.org/2000/svg">
<path d="M171.526 6.86963H1V359H171.526V6.86963Z" fill="#C8CADF" stroke="#474E95"/>
<path d="M68.5001 315.227H7.8479V343.436H68.5001V315.227Z" fill="#9195BF" stroke="#474E95"/>
<path d="M144.01 23.7686H8.13354V47.7526H144.01V23.7686Z" fill="#9195BF" stroke="#474E95"/>
<path d="M164.392 64.1035H8.13354V229.812H164.392V64.1035Z" fill="#9195BF" stroke="#474E95"/>
<path d="M164.392 240.715H8.13354V260.338H164.392V240.715Z" fill="#9195BF" stroke="#474E95"/>
<path d="M164.392 265.788H8.13354V285.411H164.392V265.788Z" fill="#9195BF" stroke="#474E95"/>
<path d="M123.629 290.863H8.13354V310.487H123.629V290.863Z" fill="#9195BF" stroke="#474E95"/>
<path d="M351.174 6.86963H180.648V359H351.174V6.86963Z" fill="#C8CADF" stroke="#474E95"/>
<path d="M248.457 315.227H187.804V343.436H248.457V315.227Z" fill="#9195BF" stroke="#474E95"/>
<path d="M323.659 23.7686H187.782V47.7526H323.659V23.7686Z" fill="#9195BF" stroke="#474E95"/>
<path d="M344.041 64.1035H187.782V229.812H344.041V64.1035Z" fill="#9195BF" stroke="#474E95"/>
<path d="M344.041 240.715H187.782V260.338H344.041V240.715Z" fill="#9195BF" stroke="#474E95"/>
<path d="M344.041 265.788H187.782V285.411H344.041V265.788Z" fill="#9195BF" stroke="#474E95"/>
<path d="M303.278 290.863H187.782V310.487H303.278V290.863Z" fill="#9195BF" stroke="#474E95"/>
</svg>
