<svg width="360" height="247" viewBox="0 0 360 247" fill="none" xmlns="http://www.w3.org/2000/svg">
<path d="M360 0H0V247H360V0Z" fill="#DCDCDC"/>
<path d="M355 15H327V29H355V15Z" fill="#8E8E8E"/>
<path d="M327.5 15.5H233.5V28.5H327.5V15.5Z" fill="#BFBFBF" stroke="#BFBFBF"/>
<path d="M31 20C31 13.9249 26.0751 9 20 9C13.9249 9 9 13.9249 9 20C9 26.0751 13.9249 31 20 31C26.0751 31 31 26.0751 31 20Z" fill="#BFBFBF"/>
<path d="M118 168H5V238H118V168Z" fill="#BFBFBF"/>
<path d="M355 58H5V163H355V58Z" fill="#BFBFBF"/>
<path d="M360 38H0V53H360V38Z" fill="#BFBFBF"/>
<path d="M238 168H123V238H238V168Z" fill="#BFBFBF"/>
<path d="M355 168H243V238H355V168Z" fill="#BFBFBF"/>
<path d="M234.33 151.324H131V157.258H234.33V151.324Z" fill="#BFBFBF"/>
<path d="M282.5 135H91.5V211.165H282.5V135Z" fill="#C8CADF" stroke="#474E95"/>
<path d="M179 182.973H109V197.808H179V182.973Z" fill="#474E95"/>
<path d="M265 182.973H195V197.808H265V182.973Z" fill="#474E95"/>
<path d="M265 145.39H109V150.335H265V145.39Z" fill="#9195BF"/>
<path fill-rule="evenodd" clip-rule="evenodd" d="M109 153.302H265V158.247H126.811H109V153.302Z" fill="#9195BF"/>
<path d="M166 161.214H109V166.159H166V161.214Z" fill="#9195BF"/>
</svg>
