<?xml version="1.0" encoding="utf-8"?>
<!-- Generator: Adobe Illustrator 25.0.1, SVG Export Plug-In . SVG Version: 6.00 Build 0)  -->
<svg version="1.1" id="Layer_1" xmlns="http://www.w3.org/2000/svg" xmlns:xlink="http://www.w3.org/1999/xlink" x="0px" y="0px"
	 viewBox="0 0 360 360" style="enable-background:new 0 0 360 360;" xml:space="preserve">
<style type="text/css">
	.st0{fill:#474E95;}
	.st1{fill:#747474;}
	.st2{fill:#F5F5F5;}
	.st3{font-family:'IBMPlexSans';}
	.st4{font-size:18px;}
	.st5{fill-rule:evenodd;clip-rule:evenodd;fill:#C8CADF;stroke:#474E95;}
</style>
<path class="st0" d="M15.2,27.2c-1.1,0-2-0.2-2.8-0.6c-0.7-0.4-1.4-0.9-1.9-1.5l1.6-1.5c0.4,0.5,0.9,0.9,1.4,1.2
	c0.5,0.3,1.1,0.4,1.8,0.4c0.7,0,1.3-0.2,1.7-0.5c0.4-0.3,0.6-0.8,0.6-1.3c0-0.4-0.1-0.8-0.4-1c-0.2-0.3-0.7-0.5-1.3-0.6l-1.2-0.2
	c-2.5-0.4-3.8-1.6-3.8-3.7c0-0.6,0.1-1.1,0.3-1.5c0.2-0.5,0.5-0.8,0.9-1.2c0.4-0.3,0.9-0.6,1.4-0.7c0.6-0.2,1.2-0.3,1.9-0.3
	c0.9,0,1.8,0.2,2.5,0.5c0.7,0.3,1.3,0.8,1.8,1.4l-1.6,1.5c-0.3-0.4-0.7-0.7-1.1-0.9c-0.4-0.2-1-0.4-1.7-0.4c-0.7,0-1.2,0.1-1.5,0.4
	c-0.3,0.3-0.5,0.6-0.5,1.1c0,0.5,0.1,0.8,0.4,1.1c0.3,0.2,0.7,0.4,1.3,0.5l1.2,0.2c1.3,0.2,2.2,0.6,2.8,1.2c0.6,0.6,0.9,1.4,0.9,2.4
	c0,0.6-0.1,1.1-0.3,1.6c-0.2,0.5-0.5,0.9-0.9,1.3c-0.4,0.3-0.9,0.6-1.5,0.8C16.6,27.1,15.9,27.2,15.2,27.2z M22.1,13.7h2.3v8h0.1
	l1.2-1.7l2.1-2.4h2.6l-3.2,3.6l3.6,5.8h-2.7l-2.4-4.2l-1.2,1.4V27h-2.3V13.7z M32.2,27v-9.4h2.3v1.9h0.1c0.1-0.3,0.2-0.5,0.3-0.7
	c0.1-0.2,0.3-0.4,0.5-0.6c0.2-0.2,0.4-0.3,0.7-0.4c0.3-0.1,0.6-0.2,1-0.2h0.5v2.2h-0.7c-0.8,0-1.4,0.1-1.8,0.3
	c-0.4,0.2-0.6,0.6-0.6,1.1V27H32.2z M40.5,16.2c-0.5,0-0.8-0.1-1-0.3c-0.2-0.2-0.3-0.5-0.3-0.8v-0.4c0-0.3,0.1-0.6,0.3-0.8
	c0.2-0.2,0.6-0.3,1-0.3c0.5,0,0.8,0.1,1,0.3c0.2,0.2,0.3,0.5,0.3,0.8v0.4c0,0.3-0.1,0.6-0.3,0.8C41.3,16.1,40.9,16.2,40.5,16.2z
	 M39.3,17.6h2.3V27h-2.3V17.6z M46.3,27l-3.1-9.4h2.3l1.3,4l0.9,3.3h0.1l0.9-3.3l1.3-4h2.2L49,27H46.3z M63.8,25.4L63.8,25.4
	c-0.3,0.5-0.6,1-1,1.3c-0.5,0.3-1,0.5-1.6,0.5c-1.2,0-2.1-0.4-2.7-1.3c-0.6-0.9-0.9-2.1-0.9-3.7c0-1.6,0.3-2.8,0.9-3.6
	c0.6-0.9,1.5-1.3,2.7-1.3c0.6,0,1.2,0.2,1.6,0.5c0.5,0.3,0.8,0.7,1,1.3h0.1v-5.5h2.3V27h-2.3V25.4z M61.9,25.3c0.6,0,1-0.1,1.4-0.4
	c0.4-0.3,0.6-0.6,0.6-1.1v-3c0-0.5-0.2-0.8-0.6-1.1c-0.4-0.3-0.8-0.4-1.4-0.4c-0.6,0-1.1,0.2-1.5,0.6c-0.4,0.4-0.5,0.9-0.5,1.6v1.6
	c0,0.7,0.2,1.2,0.5,1.6C60.8,25.1,61.3,25.3,61.9,25.3z M69.9,16.2c-0.5,0-0.8-0.1-1-0.3c-0.2-0.2-0.3-0.5-0.3-0.8v-0.4
	c0-0.3,0.1-0.6,0.3-0.8c0.2-0.2,0.6-0.3,1-0.3c0.5,0,0.8,0.1,1,0.3c0.2,0.2,0.3,0.5,0.3,0.8v0.4c0,0.3-0.1,0.6-0.3,0.8
	S70.4,16.2,69.9,16.2z M68.8,17.6h2.3V27h-2.3V17.6z M76.7,27c-0.8,0-1.4-0.2-1.8-0.6c-0.4-0.4-0.6-1-0.6-1.8v-5.2h-1.4v-1.8h0.7
	c0.3,0,0.6-0.1,0.7-0.2c0.1-0.2,0.2-0.4,0.2-0.7V15h2.1v2.6h1.9v1.8h-1.9v5.7h1.8V27H76.7z M84.7,13.7H87v5.5h0.1
	c0.2-0.5,0.5-1,1-1.3c0.5-0.3,1-0.5,1.6-0.5c1.2,0,2.1,0.4,2.7,1.3c0.6,0.8,1,2,1,3.6c0,1.6-0.3,2.8-1,3.7c-0.6,0.9-1.5,1.3-2.7,1.3
	c-0.6,0-1.2-0.2-1.6-0.5c-0.5-0.3-0.8-0.8-1-1.3H87V27h-2.3V13.7z M89,25.3c0.6,0,1.1-0.2,1.5-0.6c0.4-0.4,0.6-0.9,0.6-1.6v-1.6
	c0-0.7-0.2-1.2-0.6-1.6c-0.4-0.4-0.9-0.6-1.5-0.6c-0.6,0-1,0.1-1.4,0.4C87.2,20,87,20.3,87,20.8v3c0,0.5,0.2,0.9,0.5,1.1
	C87.9,25.2,88.4,25.3,89,25.3z M102.4,27c-0.5,0-0.9-0.1-1.2-0.4c-0.3-0.3-0.5-0.7-0.5-1.2h-0.1c-0.2,0.6-0.5,1.1-1,1.4
	c-0.5,0.3-1.1,0.4-1.8,0.4c-1,0-1.7-0.3-2.2-0.8c-0.5-0.5-0.8-1.2-0.8-2c0-1,0.3-1.7,1-2.2c0.7-0.5,1.7-0.7,3-0.7h1.6v-0.7
	c0-0.5-0.1-0.9-0.4-1.2c-0.3-0.3-0.7-0.4-1.3-0.4c-0.5,0-1,0.1-1.3,0.4c-0.3,0.2-0.6,0.5-0.8,0.8l-1.4-1.2c0.3-0.5,0.8-1,1.4-1.3
	c0.6-0.3,1.3-0.5,2.3-0.5c1.3,0,2.2,0.3,2.9,0.9c0.7,0.6,1,1.4,1,2.5v4.4h0.9V27H102.4z M98.6,25.5c0.5,0,1-0.1,1.3-0.3
	c0.4-0.2,0.5-0.6,0.5-1v-1.2H99c-1.2,0-1.8,0.4-1.8,1.2v0.3c0,0.4,0.1,0.7,0.4,0.9C97.8,25.5,98.2,25.5,98.6,25.5z M105.6,27v-9.4
	h2.3v1.9h0.1c0.1-0.3,0.2-0.5,0.3-0.7c0.1-0.2,0.3-0.4,0.5-0.6c0.2-0.2,0.4-0.3,0.7-0.4c0.3-0.1,0.6-0.2,1-0.2h0.5v2.2h-0.7
	c-0.8,0-1.4,0.1-1.8,0.3c-0.4,0.2-0.6,0.6-0.6,1.1V27H105.6z M112.6,27v-9.4h2.3v1.6h0.1c0.2-0.5,0.5-0.9,0.9-1.3
	c0.4-0.3,1-0.5,1.7-0.5c1,0,1.7,0.3,2.2,1c0.5,0.6,0.8,1.5,0.8,2.7V27h-2.3v-5.7c0-0.7-0.1-1.2-0.4-1.5c-0.2-0.3-0.6-0.5-1.2-0.5
	c-0.2,0-0.5,0-0.7,0.1c-0.2,0.1-0.4,0.2-0.6,0.3c-0.2,0.1-0.3,0.3-0.4,0.5c-0.1,0.2-0.2,0.4-0.2,0.6V27H112.6z M131.2,27.2
	c-0.7,0-1.3-0.1-1.8-0.3c-0.5-0.2-1-0.6-1.4-1c-0.4-0.4-0.7-0.9-0.9-1.5c-0.2-0.6-0.3-1.3-0.3-2.1s0.1-1.4,0.3-2
	c0.2-0.6,0.5-1.1,0.9-1.5c0.4-0.4,0.8-0.8,1.4-1c0.5-0.2,1.1-0.3,1.8-0.3c0.7,0,1.3,0.1,1.8,0.3c0.5,0.2,1,0.6,1.4,1
	c0.4,0.4,0.7,0.9,0.9,1.5s0.3,1.3,0.3,2s-0.1,1.4-0.3,2.1c-0.2,0.6-0.5,1.1-0.9,1.5c-0.4,0.4-0.8,0.8-1.4,1
	C132.5,27.1,131.9,27.2,131.2,27.2z M131.2,25.4c0.6,0,1.1-0.2,1.4-0.6c0.3-0.4,0.5-0.9,0.5-1.6v-1.7c0-0.7-0.2-1.2-0.5-1.6
	c-0.3-0.4-0.8-0.6-1.4-0.6c-0.6,0-1.1,0.2-1.4,0.6c-0.3,0.4-0.5,0.9-0.5,1.6v1.7c0,0.7,0.2,1.3,0.5,1.6
	C130.1,25.2,130.6,25.4,131.2,25.4z M137.6,17.6h2.3v1.5h0.1c0.2-0.5,0.5-1,1-1.3c0.5-0.3,1-0.5,1.6-0.5c1.2,0,2.1,0.4,2.7,1.3
	c0.6,0.8,1,2,1,3.6c0,1.6-0.3,2.8-1,3.7c-0.6,0.9-1.5,1.3-2.7,1.3c-0.6,0-1.2-0.2-1.6-0.5c-0.5-0.3-0.8-0.8-1-1.3h-0.1v5.2h-2.3
	V17.6z M141.9,25.3c0.6,0,1.1-0.2,1.5-0.6c0.4-0.4,0.6-0.9,0.6-1.6v-1.6c0-0.7-0.2-1.2-0.6-1.6c-0.4-0.4-0.9-0.6-1.5-0.6
	c-0.6,0-1,0.1-1.4,0.4c-0.4,0.3-0.5,0.6-0.5,1.1v3c0,0.5,0.2,0.9,0.5,1.1C140.8,25.2,141.3,25.3,141.9,25.3z M155.6,27
	c-0.8,0-1.4-0.2-1.8-0.6c-0.4-0.4-0.6-1-0.6-1.8v-5.2h-1.4v-1.8h0.7c0.3,0,0.6-0.1,0.7-0.2c0.1-0.2,0.2-0.4,0.2-0.7V15h2.1v2.6h1.9
	v1.8h-1.9v5.7h1.8V27H155.6z M160.6,16.2c-0.5,0-0.8-0.1-1-0.3c-0.2-0.2-0.3-0.5-0.3-0.8v-0.4c0-0.3,0.1-0.6,0.3-0.8
	c0.2-0.2,0.6-0.3,1-0.3c0.5,0,0.8,0.1,1,0.3c0.2,0.2,0.3,0.5,0.3,0.8v0.4c0,0.3-0.1,0.6-0.3,0.8C161.4,16.1,161,16.2,160.6,16.2z
	 M159.4,17.6h2.3V27h-2.3V17.6z M166.7,27c-0.8,0-1.4-0.2-1.7-0.6s-0.6-1-0.6-1.7V13.7h2.3v11.5h1.2V27H166.7z M173.9,17.6h2.3v1.5
	h0.1c0.2-0.5,0.5-1,1-1.3c0.5-0.3,1-0.5,1.6-0.5c1.2,0,2.1,0.4,2.7,1.3c0.6,0.8,1,2,1,3.6c0,1.6-0.3,2.8-1,3.7
	c-0.6,0.9-1.5,1.3-2.7,1.3c-0.6,0-1.2-0.2-1.6-0.5c-0.5-0.3-0.8-0.8-1-1.3h-0.1v5.2h-2.3V17.6z M178.2,25.3c0.6,0,1.1-0.2,1.5-0.6
	c0.4-0.4,0.6-0.9,0.6-1.6v-1.6c0-0.7-0.2-1.2-0.6-1.6c-0.4-0.4-0.9-0.6-1.5-0.6c-0.6,0-1,0.1-1.4,0.4c-0.4,0.3-0.5,0.6-0.5,1.1v3
	c0,0.5,0.2,0.9,0.5,1.1C177.1,25.2,177.6,25.3,178.2,25.3z M191.6,27c-0.5,0-0.9-0.1-1.2-0.4c-0.3-0.3-0.5-0.7-0.5-1.2h-0.1
	c-0.2,0.6-0.5,1.1-1,1.4c-0.5,0.3-1.1,0.4-1.8,0.4c-1,0-1.7-0.3-2.2-0.8c-0.5-0.5-0.8-1.2-0.8-2c0-1,0.3-1.7,1-2.2
	c0.7-0.5,1.7-0.7,3-0.7h1.6v-0.7c0-0.5-0.1-0.9-0.4-1.2s-0.7-0.4-1.3-0.4c-0.5,0-1,0.1-1.3,0.4c-0.3,0.2-0.6,0.5-0.8,0.8l-1.4-1.2
	c0.3-0.5,0.8-1,1.4-1.3c0.6-0.3,1.3-0.5,2.3-0.5c1.3,0,2.2,0.3,2.9,0.9c0.7,0.6,1,1.4,1,2.5v4.4h0.9V27H191.6z M187.8,25.5
	c0.5,0,1-0.1,1.3-0.3c0.4-0.2,0.5-0.6,0.5-1v-1.2h-1.5c-1.2,0-1.8,0.4-1.8,1.2v0.3c0,0.4,0.1,0.7,0.4,0.9
	C187,25.5,187.4,25.5,187.8,25.5z M197.8,27.2c-0.9,0-1.7-0.1-2.3-0.4c-0.6-0.3-1.2-0.7-1.6-1.3l1.4-1.4c0.3,0.4,0.7,0.7,1.1,0.9
	c0.4,0.2,0.9,0.3,1.4,0.3c0.6,0,0.9-0.1,1.2-0.3c0.3-0.2,0.4-0.5,0.4-0.8c0-0.3-0.1-0.5-0.3-0.6c-0.2-0.2-0.5-0.3-0.9-0.3l-0.9-0.1
	c-1-0.1-1.8-0.4-2.3-0.9c-0.5-0.5-0.8-1.1-0.8-2c0-0.5,0.1-0.9,0.3-1.2c0.2-0.4,0.4-0.7,0.7-0.9c0.3-0.3,0.7-0.5,1.1-0.6
	c0.4-0.1,0.9-0.2,1.5-0.2c0.5,0,0.9,0,1.2,0.1c0.4,0.1,0.7,0.2,1,0.3c0.3,0.1,0.6,0.3,0.8,0.5c0.2,0.2,0.5,0.4,0.7,0.6l-1.3,1.4
	c-0.3-0.3-0.6-0.5-1-0.7c-0.4-0.2-0.8-0.3-1.3-0.3c-0.5,0-0.9,0.1-1.1,0.3c-0.2,0.2-0.3,0.4-0.3,0.7c0,0.3,0.1,0.6,0.3,0.7
	c0.2,0.2,0.5,0.3,1,0.3l1,0.1c2,0.3,3,1.2,3,2.8c0,0.5-0.1,0.9-0.3,1.3c-0.2,0.4-0.4,0.7-0.8,1c-0.3,0.3-0.7,0.5-1.2,0.6
	C199,27.1,198.4,27.2,197.8,27.2z M203.8,27v-9.4h2.3v1.6h0.1c0.2-0.5,0.5-0.9,0.9-1.3c0.4-0.3,1-0.5,1.7-0.5c1,0,1.7,0.3,2.2,1
	c0.5,0.6,0.8,1.5,0.8,2.7V27h-2.3v-5.7c0-0.7-0.1-1.2-0.4-1.5s-0.6-0.5-1.2-0.5c-0.2,0-0.5,0-0.7,0.1c-0.2,0.1-0.4,0.2-0.6,0.3
	c-0.2,0.1-0.3,0.3-0.4,0.5c-0.1,0.2-0.2,0.4-0.2,0.6V27H203.8z M215.5,16.2c-0.5,0-0.8-0.1-1-0.3c-0.2-0.2-0.3-0.5-0.3-0.8v-0.4
	c0-0.3,0.1-0.6,0.3-0.8c0.2-0.2,0.6-0.3,1-0.3c0.5,0,0.8,0.1,1,0.3c0.2,0.2,0.3,0.5,0.3,0.8v0.4c0,0.3-0.1,0.6-0.3,0.8
	S216,16.2,215.5,16.2z M214.3,17.6h2.3V27h-2.3V17.6z M219.3,27v-9.4h2.3v1.6h0.1c0.2-0.5,0.5-0.9,0.9-1.3c0.4-0.3,1-0.5,1.7-0.5
	c1,0,1.7,0.3,2.2,1c0.5,0.6,0.8,1.5,0.8,2.7V27H225v-5.7c0-0.7-0.1-1.2-0.4-1.5c-0.2-0.3-0.6-0.5-1.2-0.5c-0.2,0-0.5,0-0.7,0.1
	c-0.2,0.1-0.4,0.2-0.6,0.3c-0.2,0.1-0.3,0.3-0.4,0.5c-0.1,0.2-0.2,0.4-0.2,0.6V27H219.3z M238.4,27.8c0,0.5-0.1,0.9-0.3,1.3
	c-0.2,0.4-0.4,0.7-0.8,1c-0.4,0.3-0.9,0.4-1.5,0.6c-0.6,0.1-1.4,0.2-2.3,0.2c-0.8,0-1.5-0.1-2-0.2c-0.6-0.1-1-0.2-1.4-0.4
	c-0.3-0.2-0.6-0.4-0.8-0.7c-0.2-0.3-0.2-0.6-0.2-0.9c0-0.5,0.1-0.9,0.4-1.2c0.3-0.3,0.7-0.5,1.2-0.6v-0.2c-0.4-0.1-0.7-0.3-0.9-0.6
	c-0.2-0.3-0.3-0.6-0.3-1c0-0.2,0-0.5,0.1-0.6c0.1-0.2,0.2-0.4,0.4-0.5c0.2-0.1,0.4-0.2,0.6-0.3c0.2-0.1,0.4-0.2,0.6-0.2v-0.1
	c-0.6-0.3-1-0.6-1.3-1.1c-0.3-0.5-0.4-1-0.4-1.6c0-1,0.3-1.7,1-2.3c0.7-0.6,1.6-0.9,2.9-0.9c0.3,0,0.6,0,0.8,0.1
	c0.3,0,0.6,0.1,0.8,0.2v-0.3c0-0.9,0.4-1.4,1.3-1.4h1.5v1.8h-2V18c0.5,0.3,0.9,0.6,1.1,1.1s0.4,1,0.4,1.5c0,0.9-0.3,1.7-1,2.3
	c-0.6,0.6-1.6,0.9-2.9,0.9c-0.6,0-1-0.1-1.4-0.2c-0.2,0.1-0.3,0.2-0.5,0.3c-0.1,0.1-0.2,0.3-0.2,0.5c0,0.5,0.4,0.7,1.2,0.7h2.5
	c1.2,0,2,0.2,2.5,0.7C238.1,26.3,238.4,27,238.4,27.8z M236.2,28.1c0-0.3-0.1-0.5-0.4-0.7c-0.2-0.2-0.7-0.3-1.2-0.3h-3.2
	c-0.3,0.2-0.5,0.6-0.5,1c0,0.4,0.2,0.6,0.4,0.8c0.3,0.2,0.8,0.3,1.5,0.3h1.2c0.8,0,1.3-0.1,1.6-0.3C236,28.8,236.2,28.5,236.2,28.1z
	 M233.4,22.2c1.1,0,1.7-0.5,1.7-1.4v-0.3c0-1-0.6-1.4-1.7-1.4s-1.7,0.5-1.7,1.4v0.3C231.7,21.7,232.3,22.2,233.4,22.2z"/>
<path class="st1" d="M95,127H10v35h85V127z"/>
<path class="st2" d="M31.5,146.3l-1.2-2.3h0v8h-2v-11.2h2.3l3.4,5.7l1.2,2.3h0v-8h2V152h-2.3L31.5,146.3z M42.8,148.3
	c-0.5,0-0.9,0.1-1.2,0.3c-0.3,0.2-0.4,0.4-0.4,0.8v0.3c0,0.3,0.1,0.6,0.3,0.8s0.5,0.3,1,0.3c0.4,0,0.8-0.1,1.2-0.3
	c0.3-0.2,0.5-0.5,0.5-0.9v-1.2H42.8z M49.6,147.1v-0.1c0-0.6-0.1-1-0.4-1.4c-0.3-0.4-0.7-0.5-1.2-0.5c-0.5,0-1,0.2-1.3,0.5
	c-0.3,0.4-0.5,0.8-0.5,1.4v0.1H49.6z M48.2,150.5c0.5,0,0.9-0.1,1.3-0.3c0.3-0.2,0.6-0.5,0.9-0.8l1.1,1.2c-0.3,0.5-0.8,0.9-1.4,1.1
	c-0.6,0.3-1.3,0.4-2,0.4c-0.4,0-0.8,0-1.1-0.1c-0.4-0.1-0.7-0.2-0.9-0.4c-0.3-0.2-0.5-0.3-0.7-0.5c-0.2-0.2-0.3-0.4-0.4-0.6h-0.1
	c-0.1,0.2-0.2,0.4-0.4,0.6c-0.1,0.2-0.3,0.4-0.6,0.5c-0.2,0.2-0.5,0.3-0.9,0.4c-0.3,0.1-0.7,0.2-1.2,0.2c-0.8,0-1.5-0.2-2-0.7
	c-0.5-0.5-0.7-1.1-0.7-1.8c0-0.4,0.1-0.8,0.3-1.2c0.2-0.3,0.4-0.6,0.7-0.8c0.3-0.2,0.7-0.4,1.1-0.5c0.4-0.1,0.9-0.2,1.5-0.2h1.4
	v-0.5c0-0.5-0.1-0.8-0.4-1.1s-0.6-0.4-1.2-0.4c-0.5,0-0.9,0.1-1.2,0.3c-0.3,0.2-0.5,0.5-0.7,0.8l-1.2-1.1c0.3-0.5,0.7-0.9,1.2-1.2
	c0.5-0.3,1.2-0.4,2-0.4c0.6,0,1.2,0.1,1.5,0.4c0.4,0.3,0.7,0.6,0.9,1h0.1c0.2-0.4,0.6-0.7,1-1c0.5-0.3,1.1-0.4,1.7-0.4
	c0.7,0,1.2,0.1,1.7,0.3c0.5,0.2,0.9,0.5,1.2,0.9c0.3,0.4,0.5,0.8,0.7,1.3c0.1,0.5,0.2,1,0.2,1.6v0.7h-5.6v0.2c0,0.6,0.2,1.1,0.5,1.4
	C47,150.3,47.6,150.5,48.2,150.5z M56.2,152.2c-0.8,0-1.5-0.1-2-0.4c-0.5-0.3-1-0.7-1.4-1.1l1.2-1.2c0.3,0.4,0.6,0.6,1,0.8
	c0.4,0.2,0.8,0.3,1.3,0.3c0.5,0,0.8-0.1,1.1-0.3c0.2-0.2,0.3-0.4,0.3-0.7c0-0.2-0.1-0.4-0.2-0.6c-0.1-0.1-0.4-0.3-0.8-0.3l-0.8-0.1
	c-0.9-0.1-1.6-0.4-2.1-0.8c-0.5-0.4-0.7-1-0.7-1.8c0-0.4,0.1-0.8,0.2-1.1c0.1-0.3,0.4-0.6,0.6-0.8c0.3-0.2,0.6-0.4,1-0.5
	c0.4-0.1,0.8-0.2,1.3-0.2c0.4,0,0.8,0,1.1,0.1c0.3,0.1,0.6,0.1,0.9,0.3c0.3,0.1,0.5,0.2,0.7,0.4c0.2,0.2,0.4,0.3,0.6,0.5l-1.2,1.2
	c-0.2-0.3-0.5-0.5-0.9-0.6c-0.3-0.2-0.7-0.3-1.1-0.3c-0.4,0-0.8,0.1-1,0.2c-0.2,0.2-0.3,0.4-0.3,0.6c0,0.3,0.1,0.5,0.2,0.6
	c0.2,0.1,0.5,0.2,0.8,0.3L57,147c1.8,0.3,2.7,1.1,2.7,2.5c0,0.4-0.1,0.8-0.3,1.1c-0.2,0.3-0.4,0.6-0.7,0.9c-0.3,0.2-0.7,0.4-1.1,0.6
	C57.2,152.1,56.8,152.2,56.2,152.2z M64,152c-0.7,0-1.2-0.2-1.6-0.5c-0.4-0.4-0.5-0.9-0.5-1.6v-4.6h-1.2v-1.6h0.6
	c0.3,0,0.5-0.1,0.6-0.2c0.1-0.1,0.2-0.4,0.2-0.7v-1.4h1.8v2.3h1.7v1.6h-1.7v5.1h1.6v1.6H64z M70.7,152.2c-0.6,0-1.2-0.1-1.7-0.3
	c-0.5-0.2-0.9-0.5-1.2-0.9c-0.3-0.4-0.6-0.8-0.8-1.4c-0.2-0.5-0.3-1.2-0.3-1.8c0-0.7,0.1-1.3,0.3-1.8c0.2-0.5,0.4-1,0.8-1.4
	c0.3-0.4,0.7-0.7,1.2-0.9c0.5-0.2,1-0.3,1.6-0.3c0.7,0,1.2,0.1,1.7,0.3c0.5,0.2,0.9,0.5,1.2,0.9c0.3,0.4,0.5,0.8,0.7,1.3
	c0.2,0.5,0.2,1,0.2,1.6v0.7h-5.6v0.2c0,0.6,0.2,1.1,0.5,1.5c0.3,0.4,0.8,0.5,1.5,0.5c0.5,0,0.9-0.1,1.2-0.3c0.3-0.2,0.6-0.5,0.9-0.8
	l1.1,1.2c-0.3,0.5-0.8,0.9-1.4,1.1C72.1,152.1,71.4,152.2,70.7,152.2z M70.6,145c-0.5,0-1,0.2-1.3,0.5c-0.3,0.4-0.5,0.8-0.5,1.4v0.1
	h3.4v-0.1c0-0.6-0.1-1-0.4-1.4C71.6,145.2,71.2,145,70.6,145z"/>
<text transform="matrix(1 0 0 1 10.4999 62.5781)" class="st0 st3 st4" font-family="IBMPlexSans, IBM Plex Sans, ArialMT, Arial">By</text>
<rect id="Rectangle-Copy" x="10.5" y="75.4" class="st5" width="239" height="35"/>
</svg>
