<svg width="343" height="283" viewBox="0 0 343 283" fill="none" xmlns="http://www.w3.org/2000/svg">
<path d="M322 1H1V22H322V1Z" fill="#BFBFBF" stroke="#747474"/>
<path d="M252 31H1V52H252V31Z" fill="#BFBFBF" stroke="#747474"/>
<path d="M342.5 61.5H1.5V82.5H342.5V61.5Z" fill="#BFBFBF" stroke="#747474"/>
<path d="M342.5 119.5H1.5V140.5H342.5V119.5Z" fill="#BFBFBF" stroke="#747474"/>
<path d="M342.5 177.5H1.5V198.5H342.5V177.5Z" fill="#BFBFBF" stroke="#747474"/>
<path d="M342.5 235.5H1.5V256.5H342.5V235.5Z" fill="#BFBFBF" stroke="#747474"/>
<path d="M342.5 90.5H1.5V111.5H342.5V90.5Z" fill="#BFBFBF" stroke="#747474"/>
<path d="M342.5 148.5H1.5V169.5H342.5V148.5Z" fill="#BFBFBF" stroke="#747474"/>
<path d="M342.5 206.5H1.5V227.5H342.5V206.5Z" fill="#BFBFBF" stroke="#747474"/>
<path d="M315.484 279.5V271.124H319.252C319.636 271.124 319.98 271.188 320.284 271.316C320.596 271.436 320.86 271.612 321.076 271.844C321.292 272.068 321.456 272.34 321.568 272.66C321.68 272.98 321.736 273.332 321.736 273.716C321.736 274.108 321.68 274.464 321.568 274.784C321.456 275.096 321.292 275.368 321.076 275.6C320.86 275.824 320.596 276 320.284 276.128C319.98 276.248 319.636 276.308 319.252 276.308H317.068V279.5H315.484ZM317.068 274.94H319.108C319.412 274.94 319.652 274.86 319.828 274.7C320.004 274.532 320.092 274.296 320.092 273.992V273.44C320.092 273.136 320.004 272.904 319.828 272.744C319.652 272.584 319.412 272.504 319.108 272.504H317.068V274.94ZM322.958 279.5V273.236H324.494V274.532H324.554C324.594 274.364 324.654 274.204 324.734 274.052C324.822 273.892 324.934 273.752 325.07 273.632C325.206 273.512 325.366 273.416 325.55 273.344C325.742 273.272 325.962 273.236 326.21 273.236H326.546V274.688H326.066C325.546 274.688 325.154 274.764 324.89 274.916C324.626 275.068 324.494 275.316 324.494 275.66V279.5H322.958ZM328.437 272.324C328.117 272.324 327.885 272.252 327.741 272.108C327.605 271.964 327.537 271.78 327.537 271.556V271.316C327.537 271.092 327.605 270.908 327.741 270.764C327.885 270.62 328.117 270.548 328.437 270.548C328.749 270.548 328.977 270.62 329.121 270.764C329.265 270.908 329.337 271.092 329.337 271.316V271.556C329.337 271.78 329.265 271.964 329.121 272.108C328.977 272.252 328.749 272.324 328.437 272.324ZM327.669 273.236H329.205V279.5H327.669V273.236ZM330.986 279.5V273.236H332.522V274.28H332.582C332.71 273.944 332.91 273.664 333.182 273.44C333.462 273.208 333.846 273.092 334.334 273.092C334.982 273.092 335.478 273.304 335.822 273.728C336.166 274.152 336.338 274.756 336.338 275.54V279.5H334.802V275.696C334.802 275.248 334.722 274.912 334.562 274.688C334.402 274.464 334.138 274.352 333.77 274.352C333.61 274.352 333.454 274.376 333.302 274.424C333.158 274.464 333.026 274.528 332.906 274.616C332.794 274.696 332.702 274.8 332.63 274.928C332.558 275.048 332.522 275.192 332.522 275.36V279.5H330.986ZM339.996 279.5C339.468 279.5 339.064 279.364 338.784 279.092C338.512 278.812 338.376 278.416 338.376 277.904V274.46H337.452V273.236H337.932C338.164 273.236 338.32 273.184 338.4 273.08C338.488 272.968 338.532 272.804 338.532 272.588V271.52H339.912V273.236H341.196V274.46H339.912V278.276H341.1V279.5H339.996Z" fill="#474E95"/>
<path d="M305.167 271.833H304.5V268.5H296.5V271.833H295.833C294.727 271.833 293.833 272.727 293.833 273.833V277.833H296.5V280.5H304.5V277.833H307.167V273.833C307.167 272.727 306.273 271.833 305.167 271.833ZM297.833 269.833H303.167V271.833H297.833V269.833ZM303.167 279.167H297.833V276.5H303.167V279.167ZM304.5 276.5V275.167H296.5V276.5H295.167V273.833C295.167 273.467 295.467 273.167 295.833 273.167H305.167C305.533 273.167 305.833 273.467 305.833 273.833V276.5H304.5Z" fill="#474E95"/>
<path d="M304.5 274.833C304.868 274.833 305.167 274.535 305.167 274.167C305.167 273.798 304.868 273.5 304.5 273.5C304.132 273.5 303.833 273.798 303.833 274.167C303.833 274.535 304.132 274.833 304.5 274.833Z" fill="#474E95"/>
</svg>
