<svg width="360" height="360" viewBox="0 0 360 360" fill="none" xmlns="http://www.w3.org/2000/svg">
<path d="M14.716 16.332L13.204 13.542H13.15V24H11.674V11.436H13.42L18.01 19.104L19.522 21.894H19.576V11.436H21.052V24H19.306L14.716 16.332ZM31.0066 24C30.4666 24 30.0766 23.856 29.8366 23.568C29.6086 23.28 29.4646 22.92 29.4046 22.488H29.3146C29.1106 23.064 28.7746 23.496 28.3066 23.784C27.8386 24.072 27.2806 24.216 26.6326 24.216C25.6486 24.216 24.8806 23.964 24.3286 23.46C23.7886 22.956 23.5186 22.272 23.5186 21.408C23.5186 20.532 23.8366 19.86 24.4726 19.392C25.1206 18.924 26.1226 18.69 27.4786 18.69H29.3146V17.772C29.3146 17.112 29.1346 16.608 28.7746 16.26C28.4146 15.912 27.8626 15.738 27.1186 15.738C26.5546 15.738 26.0806 15.864 25.6966 16.116C25.3246 16.368 25.0126 16.704 24.7606 17.124L23.8966 16.314C24.1486 15.81 24.5506 15.384 25.1026 15.036C25.6546 14.676 26.3506 14.496 27.1906 14.496C28.3186 14.496 29.1946 14.772 29.8186 15.324C30.4426 15.876 30.7546 16.644 30.7546 17.628V22.74H31.8166V24H31.0066ZM26.8666 22.992C27.2266 22.992 27.5566 22.95 27.8566 22.866C28.1566 22.782 28.4146 22.662 28.6306 22.506C28.8466 22.35 29.0146 22.17 29.1346 21.966C29.2546 21.762 29.3146 21.54 29.3146 21.3V19.77H27.4066C26.5786 19.77 25.9726 19.89 25.5886 20.13C25.2166 20.37 25.0306 20.718 25.0306 21.174V21.552C25.0306 22.008 25.1926 22.362 25.5166 22.614C25.8526 22.866 26.3026 22.992 26.8666 22.992ZM35.7832 24L32.5252 14.712H33.9652L35.5852 19.32L36.5932 22.488H36.6832L37.6912 19.32L39.3472 14.712H40.7332L37.4572 24H35.7832ZM42.5905 24V14.712H44.0305V16.224H44.1025C44.3305 15.696 44.6485 15.276 45.0565 14.964C45.4765 14.652 46.0345 14.496 46.7305 14.496C47.6905 14.496 48.4465 14.808 48.9985 15.432C49.5625 16.044 49.8445 16.914 49.8445 18.042V24H48.4045V18.294C48.4045 16.626 47.7025 15.792 46.2985 15.792C46.0105 15.792 45.7285 15.828 45.4525 15.9C45.1885 15.972 44.9485 16.08 44.7325 16.224C44.5165 16.368 44.3425 16.554 44.2105 16.782C44.0905 16.998 44.0305 17.256 44.0305 17.556V24H42.5905Z" fill="#202020"/>
<path fill-rule="evenodd" clip-rule="evenodd" d="M9.5 32.498L350.5 33.501V74.4995H9.5V32.498Z" fill="#D8D8D8" stroke="#747474"/>
<path d="M170.5 121.5H9.5V162.5H170.5V121.5Z" fill="#D8D8D8" stroke="#747474"/>
<path d="M21.466 101.416H21.376L20.314 103.522L17.308 108.994L14.302 103.522L13.24 101.416H13.15V112H11.674V99.436H13.69L17.29 106.204H17.38L20.998 99.436H22.942V112H21.466V101.416ZM29.6474 112.216C29.0234 112.216 28.4534 112.102 27.9374 111.874C27.4214 111.646 26.9774 111.322 26.6054 110.902C26.2454 110.47 25.9634 109.96 25.7594 109.372C25.5554 108.772 25.4534 108.1 25.4534 107.356C25.4534 106.624 25.5554 105.958 25.7594 105.358C25.9634 104.758 26.2454 104.248 26.6054 103.828C26.9774 103.396 27.4214 103.066 27.9374 102.838C28.4534 102.61 29.0234 102.496 29.6474 102.496C30.2714 102.496 30.8354 102.61 31.3394 102.838C31.8554 103.066 32.2994 103.396 32.6714 103.828C33.0434 104.248 33.3314 104.758 33.5354 105.358C33.7394 105.958 33.8414 106.624 33.8414 107.356C33.8414 108.1 33.7394 108.772 33.5354 109.372C33.3314 109.96 33.0434 110.47 32.6714 110.902C32.2994 111.322 31.8554 111.646 31.3394 111.874C30.8354 112.102 30.2714 112.216 29.6474 112.216ZM29.6474 110.938C30.4274 110.938 31.0634 110.698 31.5554 110.218C32.0474 109.738 32.2934 109.006 32.2934 108.022V106.69C32.2934 105.706 32.0474 104.974 31.5554 104.494C31.0634 104.014 30.4274 103.774 29.6474 103.774C28.8674 103.774 28.2314 104.014 27.7394 104.494C27.2474 104.974 27.0014 105.706 27.0014 106.69V108.022C27.0014 109.006 27.2474 109.738 27.7394 110.218C28.2314 110.698 28.8674 110.938 29.6474 110.938ZM36.2097 98.68H37.6497V104.224H37.7217C37.9617 103.636 38.3097 103.204 38.7657 102.928C39.2337 102.64 39.7917 102.496 40.4397 102.496C41.0157 102.496 41.5377 102.61 42.0057 102.838C42.4737 103.066 42.8697 103.39 43.1937 103.81C43.5297 104.23 43.7817 104.74 43.9497 105.34C44.1297 105.94 44.2197 106.612 44.2197 107.356C44.2197 108.1 44.1297 108.772 43.9497 109.372C43.7817 109.972 43.5297 110.482 43.1937 110.902C42.8697 111.322 42.4737 111.646 42.0057 111.874C41.5377 112.102 41.0157 112.216 40.4397 112.216C39.1797 112.216 38.2737 111.64 37.7217 110.488H37.6497V112H36.2097V98.68ZM40.0437 110.92C40.8597 110.92 41.5017 110.668 41.9697 110.164C42.4377 109.648 42.6717 108.976 42.6717 108.148V106.564C42.6717 105.736 42.4377 105.07 41.9697 104.566C41.5017 104.05 40.8597 103.792 40.0437 103.792C39.7197 103.792 39.4077 103.84 39.1077 103.936C38.8197 104.02 38.5677 104.14 38.3517 104.296C38.1357 104.452 37.9617 104.644 37.8297 104.872C37.7097 105.088 37.6497 105.322 37.6497 105.574V109.03C37.6497 109.33 37.7097 109.6 37.8297 109.84C37.9617 110.068 38.1357 110.266 38.3517 110.434C38.5677 110.59 38.8197 110.71 39.1077 110.794C39.4077 110.878 39.7197 110.92 40.0437 110.92ZM47.3711 100.534C47.0591 100.534 46.8311 100.462 46.6871 100.318C46.5551 100.162 46.4891 99.964 46.4891 99.724V99.49C46.4891 99.25 46.5551 99.058 46.6871 98.914C46.8311 98.758 47.0591 98.68 47.3711 98.68C47.6831 98.68 47.9051 98.758 48.0371 98.914C48.1811 99.058 48.2531 99.25 48.2531 99.49V99.724C48.2531 99.964 48.1811 100.162 48.0371 100.318C47.9051 100.462 47.6831 100.534 47.3711 100.534ZM46.6511 102.712H48.0911V112H46.6511V102.712ZM52.6811 112C52.1771 112 51.7931 111.862 51.5291 111.586C51.2771 111.298 51.1511 110.938 51.1511 110.506V98.68H52.5911V110.74H53.9591V112H52.6811Z" fill="#1A1A1A"/>
<path d="M11.674 203V190.436H19.162V191.768H13.186V195.98H18.64V197.312H13.186V203H11.674ZM27.614 203C27.074 203 26.684 202.856 26.444 202.568C26.216 202.28 26.072 201.92 26.012 201.488H25.922C25.718 202.064 25.382 202.496 24.914 202.784C24.446 203.072 23.888 203.216 23.24 203.216C22.256 203.216 21.488 202.964 20.936 202.46C20.396 201.956 20.126 201.272 20.126 200.408C20.126 199.532 20.444 198.86 21.08 198.392C21.728 197.924 22.73 197.69 24.086 197.69H25.922V196.772C25.922 196.112 25.742 195.608 25.382 195.26C25.022 194.912 24.47 194.738 23.726 194.738C23.162 194.738 22.688 194.864 22.304 195.116C21.932 195.368 21.62 195.704 21.368 196.124L20.504 195.314C20.756 194.81 21.158 194.384 21.71 194.036C22.262 193.676 22.958 193.496 23.798 193.496C24.926 193.496 25.802 193.772 26.426 194.324C27.05 194.876 27.362 195.644 27.362 196.628V201.74H28.424V203H27.614ZM23.474 201.992C23.834 201.992 24.164 201.95 24.464 201.866C24.764 201.782 25.022 201.662 25.238 201.506C25.454 201.35 25.622 201.17 25.742 200.966C25.862 200.762 25.922 200.54 25.922 200.3V198.77H24.014C23.186 198.77 22.58 198.89 22.196 199.13C21.824 199.37 21.638 199.718 21.638 200.174V200.552C21.638 201.008 21.8 201.362 22.124 201.614C22.46 201.866 22.91 201.992 23.474 201.992ZM33.2692 203.216C32.4052 203.216 31.6792 203.054 31.0912 202.73C30.5152 202.394 30.0172 201.95 29.5972 201.398L30.6232 200.57C30.9832 201.026 31.3852 201.38 31.8292 201.632C32.2732 201.872 32.7892 201.992 33.3772 201.992C33.9892 201.992 34.4632 201.86 34.7992 201.596C35.1472 201.332 35.3212 200.96 35.3212 200.48C35.3212 200.12 35.2012 199.814 34.9612 199.562C34.7332 199.298 34.3132 199.118 33.7012 199.022L32.9632 198.914C32.5312 198.854 32.1352 198.764 31.7752 198.644C31.4152 198.512 31.0972 198.344 30.8212 198.14C30.5572 197.924 30.3472 197.66 30.1912 197.348C30.0472 197.036 29.9752 196.664 29.9752 196.232C29.9752 195.776 30.0592 195.38 30.2272 195.044C30.3952 194.696 30.6232 194.408 30.9112 194.18C31.2112 193.952 31.5652 193.784 31.9732 193.676C32.3812 193.556 32.8192 193.496 33.2872 193.496C34.0432 193.496 34.6732 193.628 35.1772 193.892C35.6932 194.156 36.1432 194.522 36.5272 194.99L35.5732 195.854C35.3692 195.566 35.0692 195.308 34.6732 195.08C34.2772 194.84 33.7792 194.72 33.1792 194.72C32.5792 194.72 32.1232 194.852 31.8112 195.116C31.5112 195.368 31.3612 195.716 31.3612 196.16C31.3612 196.616 31.5112 196.946 31.8112 197.15C32.1232 197.354 32.5672 197.504 33.1432 197.6L33.8632 197.708C34.8952 197.864 35.6272 198.164 36.0592 198.608C36.4912 199.04 36.7072 199.61 36.7072 200.318C36.7072 201.218 36.4012 201.926 35.7892 202.442C35.1772 202.958 34.3372 203.216 33.2692 203.216ZM41.1797 203C40.6757 203 40.2917 202.862 40.0277 202.586C39.7757 202.298 39.6497 201.926 39.6497 201.47V194.972H38.1197V193.712H38.9837C39.2957 193.712 39.5057 193.652 39.6137 193.532C39.7337 193.4 39.7937 193.178 39.7937 192.866V191.138H41.0897V193.712H43.1237V194.972H41.0897V201.74H42.9797V203H41.1797ZM45.4382 203V193.712H46.8782V195.224H46.9502C47.1782 194.696 47.4962 194.276 47.9042 193.964C48.3242 193.652 48.8822 193.496 49.5782 193.496C50.5382 193.496 51.2942 193.808 51.8462 194.432C52.4102 195.044 52.6922 195.914 52.6922 197.042V203H51.2522V197.294C51.2522 195.626 50.5502 194.792 49.1462 194.792C48.8582 194.792 48.5762 194.828 48.3002 194.9C48.0362 194.972 47.7962 195.08 47.5802 195.224C47.3642 195.368 47.1902 195.554 47.0582 195.782C46.9382 195.998 46.8782 196.256 46.8782 196.556V203H45.4382ZM59.1607 203.216C58.5247 203.216 57.9487 203.102 57.4327 202.874C56.9287 202.646 56.4907 202.322 56.1187 201.902C55.7587 201.47 55.4767 200.96 55.2727 200.372C55.0807 199.772 54.9847 199.1 54.9847 198.356C54.9847 197.624 55.0807 196.958 55.2727 196.358C55.4767 195.758 55.7587 195.248 56.1187 194.828C56.4907 194.396 56.9287 194.066 57.4327 193.838C57.9487 193.61 58.5247 193.496 59.1607 193.496C59.7847 193.496 60.3427 193.61 60.8347 193.838C61.3267 194.066 61.7467 194.384 62.0947 194.792C62.4427 195.188 62.7067 195.662 62.8867 196.214C63.0787 196.766 63.1747 197.372 63.1747 198.032V198.716H56.4967V199.148C56.4967 199.544 56.5567 199.916 56.6767 200.264C56.8087 200.6 56.9887 200.894 57.2167 201.146C57.4567 201.398 57.7447 201.596 58.0807 201.74C58.4287 201.884 58.8187 201.956 59.2507 201.956C59.8387 201.956 60.3487 201.818 60.7807 201.542C61.2247 201.266 61.5667 200.87 61.8067 200.354L62.8327 201.092C62.5327 201.728 62.0647 202.244 61.4287 202.64C60.7927 203.024 60.0367 203.216 59.1607 203.216ZM59.1607 194.702C58.7647 194.702 58.4047 194.774 58.0807 194.918C57.7567 195.05 57.4747 195.242 57.2347 195.494C57.0067 195.746 56.8267 196.046 56.6947 196.394C56.5627 196.73 56.4967 197.102 56.4967 197.51V197.636H61.6267V197.438C61.6267 196.61 61.3987 195.95 60.9427 195.458C60.4987 194.954 59.9047 194.702 59.1607 194.702ZM67.5996 203C67.0956 203 66.7116 202.862 66.4476 202.586C66.1956 202.298 66.0696 201.926 66.0696 201.47V194.972H64.5396V193.712H65.4036C65.7156 193.712 65.9256 193.652 66.0336 193.532C66.1536 193.4 66.2136 193.178 66.2136 192.866V191.138H67.5096V193.712H69.5436V194.972H67.5096V201.74H69.3996V203H67.5996Z" fill="#1A1A1A"/>
<path d="M76.242 196.76C76.242 195.8 76.3354 194.873 76.522 193.98C76.7087 193.087 76.962 192.26 77.282 191.5C77.6154 190.727 78.002 190.027 78.442 189.4C78.882 188.773 79.3554 188.24 79.862 187.8H81.382C80.822 188.307 80.3154 188.88 79.862 189.52C79.422 190.16 79.042 190.84 78.722 191.56C78.4154 192.28 78.1754 193.013 78.002 193.76C77.8287 194.507 77.742 195.227 77.742 195.92V197.64C77.742 198.347 77.8287 199.073 78.002 199.82C78.1754 200.567 78.422 201.3 78.742 202.02C79.062 202.74 79.442 203.42 79.882 204.06C80.3354 204.7 80.8354 205.26 81.382 205.74H79.862C79.3687 205.327 78.902 204.807 78.462 204.18C78.022 203.553 77.6354 202.853 77.302 202.08C76.982 201.307 76.722 200.473 76.522 199.58C76.3354 198.673 76.242 197.733 76.242 196.76ZM83.5413 194.08H81.8613V192.68H83.5413V190.6C83.5413 189.88 83.7279 189.3 84.1013 188.86C84.4746 188.42 85.0413 188.2 85.8013 188.2H87.3613V189.6H85.1413V192.68H87.3613V194.08H85.1413V203H83.5413V194.08ZM89.4656 203V192.68H91.0656V194.58H91.1656C91.3523 194.087 91.6856 193.647 92.1656 193.26C92.6456 192.873 93.3056 192.68 94.1456 192.68H94.7656V194.28H93.8256C92.959 194.28 92.279 194.447 91.7856 194.78C91.3056 195.1 91.0656 195.507 91.0656 196V203H89.4656ZM97.6094 190.26C97.2627 190.26 97.0094 190.18 96.8494 190.02C96.7027 189.847 96.6294 189.627 96.6294 189.36V189.1C96.6294 188.833 96.7027 188.62 96.8494 188.46C97.0094 188.287 97.2627 188.2 97.6094 188.2C97.956 188.2 98.2027 188.287 98.3494 188.46C98.5094 188.62 98.5894 188.833 98.5894 189.1V189.36C98.5894 189.627 98.5094 189.847 98.3494 190.02C98.2027 190.18 97.956 190.26 97.6094 190.26ZM96.8094 192.68H98.4094V203H96.8094V192.68ZM104.089 203L100.469 192.68H102.069L103.869 197.8L104.989 201.32H105.089L106.209 197.8L108.049 192.68H109.589L105.949 203H104.089ZM112.453 190.26C112.106 190.26 111.853 190.18 111.693 190.02C111.546 189.847 111.473 189.627 111.473 189.36V189.1C111.473 188.833 111.546 188.62 111.693 188.46C111.853 188.287 112.106 188.2 112.453 188.2C112.8 188.2 113.046 188.287 113.193 188.46C113.353 188.62 113.433 188.833 113.433 189.1V189.36C113.433 189.627 113.353 189.847 113.193 190.02C113.046 190.18 112.8 190.26 112.453 190.26ZM111.653 192.68H113.253V203H111.653V192.68ZM118.353 203C117.793 203 117.366 202.847 117.073 202.54C116.793 202.22 116.653 201.82 116.653 201.34V188.2H118.253V201.6H119.773V203H118.353ZM123.705 203C123.145 203 122.718 202.847 122.425 202.54C122.145 202.22 122.005 201.82 122.005 201.34V188.2H123.605V201.6H125.125V203H123.705ZM128.254 190.26C127.907 190.26 127.654 190.18 127.494 190.02C127.347 189.847 127.274 189.627 127.274 189.36V189.1C127.274 188.833 127.347 188.62 127.494 188.46C127.654 188.287 127.907 188.2 128.254 188.2C128.601 188.2 128.847 188.287 128.994 188.46C129.154 188.62 129.234 188.833 129.234 189.1V189.36C129.234 189.627 129.154 189.847 128.994 190.02C128.847 190.18 128.601 190.26 128.254 190.26ZM127.454 192.68H129.054V203H127.454V192.68ZM141.154 204.14C141.154 205.207 140.734 205.987 139.894 206.48C139.067 206.987 137.821 207.24 136.154 207.24C134.541 207.24 133.381 207.02 132.674 206.58C131.967 206.14 131.614 205.513 131.614 204.7C131.614 204.14 131.761 203.7 132.054 203.38C132.347 203.073 132.747 202.847 133.254 202.7V202.48C132.641 202.187 132.334 201.707 132.334 201.04C132.334 200.52 132.501 200.127 132.834 199.86C133.167 199.58 133.594 199.373 134.114 199.24V199.16C133.501 198.867 133.021 198.447 132.674 197.9C132.341 197.353 132.174 196.72 132.174 196C132.174 195.48 132.267 195 132.454 194.56C132.641 194.12 132.901 193.747 133.234 193.44C133.581 193.12 133.987 192.873 134.454 192.7C134.934 192.527 135.467 192.44 136.054 192.44C136.787 192.44 137.441 192.573 138.014 192.84V192.66C138.014 192.26 138.107 191.933 138.294 191.68C138.481 191.413 138.787 191.28 139.214 191.28H140.754V192.68H138.794V193.34C139.167 193.66 139.454 194.047 139.654 194.5C139.867 194.94 139.974 195.44 139.974 196C139.974 196.52 139.881 197 139.694 197.44C139.507 197.88 139.241 198.26 138.894 198.58C138.561 198.887 138.154 199.127 137.674 199.3C137.194 199.473 136.661 199.56 136.074 199.56C135.741 199.56 135.407 199.527 135.074 199.46C134.727 199.553 134.414 199.693 134.134 199.88C133.854 200.053 133.714 200.3 133.714 200.62C133.714 200.927 133.861 201.133 134.154 201.24C134.447 201.347 134.827 201.4 135.294 201.4H137.494C138.774 201.4 139.701 201.647 140.274 202.14C140.861 202.62 141.154 203.287 141.154 204.14ZM139.654 204.26C139.654 203.847 139.494 203.513 139.174 203.26C138.867 203.02 138.314 202.9 137.514 202.9H134.074C133.434 203.193 133.114 203.66 133.114 204.3C133.114 204.753 133.281 205.14 133.614 205.46C133.961 205.78 134.541 205.94 135.354 205.94H136.834C137.727 205.94 138.421 205.8 138.914 205.52C139.407 205.24 139.654 204.82 139.654 204.26ZM136.074 198.28C136.754 198.28 137.294 198.12 137.694 197.8C138.094 197.467 138.294 196.96 138.294 196.28V195.72C138.294 195.04 138.094 194.54 137.694 194.22C137.294 193.887 136.754 193.72 136.074 193.72C135.394 193.72 134.854 193.887 134.454 194.22C134.054 194.54 133.854 195.04 133.854 195.72V196.28C133.854 196.96 134.054 197.467 134.454 197.8C134.854 198.12 135.394 198.28 136.074 198.28ZM145.3 203C144.74 203 144.314 202.847 144.02 202.54C143.74 202.22 143.6 201.807 143.6 201.3V194.08H141.9V192.68H142.86C143.207 192.68 143.44 192.613 143.56 192.48C143.694 192.333 143.76 192.087 143.76 191.74V189.82H145.2V192.68H147.46V194.08H145.2V201.6H147.3V203H145.3ZM153.372 196.76C153.372 197.733 153.272 198.673 153.072 199.58C152.885 200.473 152.625 201.307 152.292 202.08C151.972 202.853 151.592 203.553 151.152 204.18C150.712 204.807 150.245 205.327 149.752 205.74H148.232C148.779 205.26 149.272 204.7 149.712 204.06C150.165 203.42 150.552 202.74 150.872 202.02C151.192 201.3 151.439 200.567 151.612 199.82C151.785 199.073 151.872 198.347 151.872 197.64V195.92C151.872 195.227 151.785 194.507 151.612 193.76C151.439 193.013 151.192 192.28 150.872 191.56C150.565 190.84 150.185 190.16 149.732 189.52C149.292 188.88 148.792 188.307 148.232 187.8H149.752C150.259 188.24 150.732 188.773 151.172 189.4C151.612 190.027 151.992 190.727 152.312 191.5C152.645 192.26 152.905 193.087 153.092 193.98C153.279 194.873 153.372 195.8 153.372 196.76Z" fill="#474E95"/>
<path d="M11.674 288V275.436H19.342V276.768H13.186V280.98H18.982V282.312H13.186V286.668H19.342V288H11.674ZM21.7361 283.302V281.754H26.4341V283.302H21.7361ZM29.2136 288V278.712H30.6536V280.224H30.7256C30.8336 279.984 30.9536 279.762 31.0856 279.558C31.2296 279.342 31.3976 279.156 31.5896 279C31.7936 278.844 32.0276 278.724 32.2916 278.64C32.5556 278.544 32.8676 278.496 33.2276 278.496C33.8396 278.496 34.4036 278.646 34.9196 278.946C35.4356 279.234 35.8196 279.714 36.0716 280.386H36.1076C36.2756 279.882 36.5876 279.444 37.0436 279.072C37.5116 278.688 38.1416 278.496 38.9336 278.496C39.8816 278.496 40.6196 278.808 41.1476 279.432C41.6876 280.044 41.9576 280.914 41.9576 282.042V288H40.5176V282.294C40.5176 281.466 40.3556 280.842 40.0316 280.422C39.7076 280.002 39.1916 279.792 38.4836 279.792C38.1956 279.792 37.9196 279.828 37.6556 279.9C37.4036 279.972 37.1756 280.08 36.9716 280.224C36.7676 280.368 36.6056 280.554 36.4856 280.782C36.3656 280.998 36.3056 281.256 36.3056 281.556V288H34.8656V282.294C34.8656 281.466 34.7036 280.842 34.3796 280.422C34.0556 280.002 33.5516 279.792 32.8676 279.792C32.5796 279.792 32.3036 279.828 32.0396 279.9C31.7756 279.972 31.5416 280.08 31.3376 280.224C31.1336 280.368 30.9656 280.554 30.8336 280.782C30.7136 280.998 30.6536 281.256 30.6536 281.556V288H29.2136ZM51.6784 288C51.1384 288 50.7484 287.856 50.5084 287.568C50.2804 287.28 50.1364 286.92 50.0764 286.488H49.9864C49.7824 287.064 49.4464 287.496 48.9784 287.784C48.5104 288.072 47.9524 288.216 47.3044 288.216C46.3204 288.216 45.5524 287.964 45.0004 287.46C44.4604 286.956 44.1904 286.272 44.1904 285.408C44.1904 284.532 44.5084 283.86 45.1444 283.392C45.7924 282.924 46.7944 282.69 48.1504 282.69H49.9864V281.772C49.9864 281.112 49.8064 280.608 49.4464 280.26C49.0864 279.912 48.5344 279.738 47.7904 279.738C47.2264 279.738 46.7524 279.864 46.3684 280.116C45.9964 280.368 45.6844 280.704 45.4324 281.124L44.5684 280.314C44.8204 279.81 45.2224 279.384 45.7744 279.036C46.3264 278.676 47.0224 278.496 47.8624 278.496C48.9904 278.496 49.8664 278.772 50.4904 279.324C51.1144 279.876 51.4264 280.644 51.4264 281.628V286.74H52.4884V288H51.6784ZM47.5384 286.992C47.8984 286.992 48.2284 286.95 48.5284 286.866C48.8284 286.782 49.0864 286.662 49.3024 286.506C49.5184 286.35 49.6864 286.17 49.8064 285.966C49.9264 285.762 49.9864 285.54 49.9864 285.3V283.77H48.0784C47.2504 283.77 46.6444 283.89 46.2604 284.13C45.8884 284.37 45.7024 284.718 45.7024 285.174V285.552C45.7024 286.008 45.8644 286.362 46.1884 286.614C46.5244 286.866 46.9744 286.992 47.5384 286.992ZM55.2637 276.534C54.9517 276.534 54.7237 276.462 54.5797 276.318C54.4477 276.162 54.3817 275.964 54.3817 275.724V275.49C54.3817 275.25 54.4477 275.058 54.5797 274.914C54.7237 274.758 54.9517 274.68 55.2637 274.68C55.5757 274.68 55.7977 274.758 55.9297 274.914C56.0737 275.058 56.1457 275.25 56.1457 275.49V275.724C56.1457 275.964 56.0737 276.162 55.9297 276.318C55.7977 276.462 55.5757 276.534 55.2637 276.534ZM54.5437 278.712H55.9837V288H54.5437V278.712ZM60.5737 288C60.0697 288 59.6857 287.862 59.4217 287.586C59.1697 287.298 59.0437 286.938 59.0437 286.506V274.68H60.4837V286.74H61.8517V288H60.5737ZM70.698 288C70.158 288 69.768 287.856 69.528 287.568C69.3 287.28 69.156 286.92 69.096 286.488H69.006C68.802 287.064 68.466 287.496 67.998 287.784C67.53 288.072 66.972 288.216 66.324 288.216C65.34 288.216 64.572 287.964 64.02 287.46C63.48 286.956 63.21 286.272 63.21 285.408C63.21 284.532 63.528 283.86 64.164 283.392C64.812 282.924 65.814 282.69 67.17 282.69H69.006V281.772C69.006 281.112 68.826 280.608 68.466 280.26C68.106 279.912 67.554 279.738 66.81 279.738C66.246 279.738 65.772 279.864 65.388 280.116C65.016 280.368 64.704 280.704 64.452 281.124L63.588 280.314C63.84 279.81 64.242 279.384 64.794 279.036C65.346 278.676 66.042 278.496 66.882 278.496C68.01 278.496 68.886 278.772 69.51 279.324C70.134 279.876 70.446 280.644 70.446 281.628V286.74H71.508V288H70.698ZM66.558 286.992C66.918 286.992 67.248 286.95 67.548 286.866C67.848 286.782 68.106 286.662 68.322 286.506C68.538 286.35 68.706 286.17 68.826 285.966C68.946 285.762 69.006 285.54 69.006 285.3V283.77H67.098C66.27 283.77 65.664 283.89 65.28 284.13C64.908 284.37 64.722 284.718 64.722 285.174V285.552C64.722 286.008 64.884 286.362 65.208 286.614C65.544 286.866 65.994 286.992 66.558 286.992ZM79.5032 286.488H79.4312C78.8672 287.64 77.9612 288.216 76.7132 288.216C76.1372 288.216 75.6152 288.102 75.1472 287.874C74.6792 287.646 74.2772 287.322 73.9412 286.902C73.6172 286.482 73.3652 285.972 73.1852 285.372C73.0172 284.772 72.9332 284.1 72.9332 283.356C72.9332 282.612 73.0172 281.94 73.1852 281.34C73.3652 280.74 73.6172 280.23 73.9412 279.81C74.2772 279.39 74.6792 279.066 75.1472 278.838C75.6152 278.61 76.1372 278.496 76.7132 278.496C77.3612 278.496 77.9132 278.64 78.3692 278.928C78.8372 279.204 79.1912 279.636 79.4312 280.224H79.5032V274.68H80.9432V288H79.5032V286.488ZM77.1092 286.92C77.4332 286.92 77.7392 286.878 78.0272 286.794C78.3272 286.71 78.5852 286.59 78.8012 286.434C79.0172 286.266 79.1852 286.068 79.3052 285.84C79.4372 285.6 79.5032 285.33 79.5032 285.03V281.574C79.5032 281.322 79.4372 281.088 79.3052 280.872C79.1852 280.644 79.0172 280.452 78.8012 280.296C78.5852 280.14 78.3272 280.02 78.0272 279.936C77.7392 279.84 77.4332 279.792 77.1092 279.792C76.2932 279.792 75.6512 280.05 75.1832 280.566C74.7152 281.07 74.4812 281.736 74.4812 282.564V284.148C74.4812 284.976 74.7152 285.648 75.1832 286.164C75.6512 286.668 76.2932 286.92 77.1092 286.92ZM84.0046 288V278.712H85.4446V280.422H85.5346C85.7026 279.978 86.0026 279.582 86.4346 279.234C86.8666 278.886 87.4606 278.712 88.2166 278.712H88.7746V280.152H87.9286C87.1486 280.152 86.5366 280.302 86.0926 280.602C85.6606 280.89 85.4446 281.256 85.4446 281.7V288H84.0046ZM94.0181 288.216C93.3821 288.216 92.8061 288.102 92.2901 287.874C91.7861 287.646 91.3481 287.322 90.9761 286.902C90.6161 286.47 90.3341 285.96 90.1301 285.372C89.9381 284.772 89.8421 284.1 89.8421 283.356C89.8421 282.624 89.9381 281.958 90.1301 281.358C90.3341 280.758 90.6161 280.248 90.9761 279.828C91.3481 279.396 91.7861 279.066 92.2901 278.838C92.8061 278.61 93.3821 278.496 94.0181 278.496C94.6421 278.496 95.2001 278.61 95.6921 278.838C96.1841 279.066 96.6041 279.384 96.9521 279.792C97.3001 280.188 97.5641 280.662 97.7441 281.214C97.9361 281.766 98.0321 282.372 98.0321 283.032V283.716H91.3541V284.148C91.3541 284.544 91.4141 284.916 91.5341 285.264C91.6661 285.6 91.8461 285.894 92.0741 286.146C92.3141 286.398 92.6021 286.596 92.9381 286.74C93.2861 286.884 93.6761 286.956 94.1081 286.956C94.6961 286.956 95.2061 286.818 95.6381 286.542C96.0821 286.266 96.4241 285.87 96.6641 285.354L97.6901 286.092C97.3901 286.728 96.9221 287.244 96.2861 287.64C95.6501 288.024 94.8941 288.216 94.0181 288.216ZM94.0181 279.702C93.6221 279.702 93.2621 279.774 92.9381 279.918C92.6141 280.05 92.3321 280.242 92.0921 280.494C91.8641 280.746 91.6841 281.046 91.5521 281.394C91.4201 281.73 91.3541 282.102 91.3541 282.51V282.636H96.4841V282.438C96.4841 281.61 96.2561 280.95 95.8001 280.458C95.3561 279.954 94.7621 279.702 94.0181 279.702ZM103.195 288.216C102.331 288.216 101.605 288.054 101.017 287.73C100.441 287.394 99.943 286.95 99.523 286.398L100.549 285.57C100.909 286.026 101.311 286.38 101.755 286.632C102.199 286.872 102.715 286.992 103.303 286.992C103.915 286.992 104.389 286.86 104.725 286.596C105.073 286.332 105.247 285.96 105.247 285.48C105.247 285.12 105.127 284.814 104.887 284.562C104.659 284.298 104.239 284.118 103.627 284.022L102.889 283.914C102.457 283.854 102.061 283.764 101.701 283.644C101.341 283.512 101.023 283.344 100.747 283.14C100.483 282.924 100.273 282.66 100.117 282.348C99.973 282.036 99.901 281.664 99.901 281.232C99.901 280.776 99.985 280.38 100.153 280.044C100.321 279.696 100.549 279.408 100.837 279.18C101.137 278.952 101.491 278.784 101.899 278.676C102.307 278.556 102.745 278.496 103.213 278.496C103.969 278.496 104.599 278.628 105.103 278.892C105.619 279.156 106.069 279.522 106.453 279.99L105.499 280.854C105.295 280.566 104.995 280.308 104.599 280.08C104.203 279.84 103.705 279.72 103.105 279.72C102.505 279.72 102.049 279.852 101.737 280.116C101.437 280.368 101.287 280.716 101.287 281.16C101.287 281.616 101.437 281.946 101.737 282.15C102.049 282.354 102.493 282.504 103.069 282.6L103.789 282.708C104.821 282.864 105.553 283.164 105.985 283.608C106.417 284.04 106.633 284.61 106.633 285.318C106.633 286.218 106.327 286.926 105.715 287.442C105.103 287.958 104.263 288.216 103.195 288.216ZM111.861 288.216C110.997 288.216 110.271 288.054 109.683 287.73C109.107 287.394 108.609 286.95 108.189 286.398L109.215 285.57C109.575 286.026 109.977 286.38 110.421 286.632C110.865 286.872 111.381 286.992 111.969 286.992C112.581 286.992 113.055 286.86 113.391 286.596C113.739 286.332 113.913 285.96 113.913 285.48C113.913 285.12 113.793 284.814 113.553 284.562C113.325 284.298 112.905 284.118 112.293 284.022L111.555 283.914C111.123 283.854 110.727 283.764 110.367 283.644C110.007 283.512 109.689 283.344 109.413 283.14C109.149 282.924 108.939 282.66 108.783 282.348C108.639 282.036 108.567 281.664 108.567 281.232C108.567 280.776 108.651 280.38 108.819 280.044C108.987 279.696 109.215 279.408 109.503 279.18C109.803 278.952 110.157 278.784 110.565 278.676C110.973 278.556 111.411 278.496 111.879 278.496C112.635 278.496 113.265 278.628 113.769 278.892C114.285 279.156 114.735 279.522 115.119 279.99L114.165 280.854C113.961 280.566 113.661 280.308 113.265 280.08C112.869 279.84 112.371 279.72 111.771 279.72C111.171 279.72 110.715 279.852 110.403 280.116C110.103 280.368 109.953 280.716 109.953 281.16C109.953 281.616 110.103 281.946 110.403 282.15C110.715 282.354 111.159 282.504 111.735 282.6L112.455 282.708C113.487 282.864 114.219 283.164 114.651 283.608C115.083 284.04 115.299 284.61 115.299 285.318C115.299 286.218 114.993 286.926 114.381 287.442C113.769 287.958 112.929 288.216 111.861 288.216ZM121.335 288.216C120.699 288.216 120.123 288.102 119.607 287.874C119.103 287.646 118.665 287.322 118.293 286.902C117.933 286.47 117.651 285.96 117.447 285.372C117.255 284.772 117.159 284.1 117.159 283.356C117.159 282.624 117.255 281.958 117.447 281.358C117.651 280.758 117.933 280.248 118.293 279.828C118.665 279.396 119.103 279.066 119.607 278.838C120.123 278.61 120.699 278.496 121.335 278.496C121.959 278.496 122.517 278.61 123.009 278.838C123.501 279.066 123.921 279.384 124.269 279.792C124.617 280.188 124.881 280.662 125.061 281.214C125.253 281.766 125.349 282.372 125.349 283.032V283.716H118.671V284.148C118.671 284.544 118.731 284.916 118.851 285.264C118.983 285.6 119.163 285.894 119.391 286.146C119.631 286.398 119.919 286.596 120.255 286.74C120.603 286.884 120.993 286.956 121.425 286.956C122.013 286.956 122.523 286.818 122.955 286.542C123.399 286.266 123.741 285.87 123.981 285.354L125.007 286.092C124.707 286.728 124.239 287.244 123.603 287.64C122.967 288.024 122.211 288.216 121.335 288.216ZM121.335 279.702C120.939 279.702 120.579 279.774 120.255 279.918C119.931 280.05 119.649 280.242 119.409 280.494C119.181 280.746 119.001 281.046 118.869 281.394C118.737 281.73 118.671 282.102 118.671 282.51V282.636H123.801V282.438C123.801 281.61 123.573 280.95 123.117 280.458C122.673 279.954 122.079 279.702 121.335 279.702Z" fill="#1A1A1A"/>
<path d="M170.5 209.5H9.5V250.5H170.5V209.5Z" fill="#D8D8D8" stroke="#747474"/>
<path d="M350.5 297.5H9.5V338.5H350.5V297.5Z" fill="#D8D8D8" stroke="#747474"/>
</svg>
