<svg width="360" height="287.43" viewBox="0 0 360 287.43" fill="none" xmlns="http://www.w3.org/2000/svg">
    <path d="M21.48,33.44h4.57a6,6,0,0,1,2.21.39A4.48,4.48,0,0,1,30,35a5.12,5.12,0,0,1,1.1,2,8.65,8.65,0,0,1,.4,2.74,8.8,8.8,0,0,1-.4,2.75,5.19,5.19,0,0,1-1.1,2,4.43,4.43,0,0,1-1.71,1.17,5.8,5.8,0,0,1-2.21.4H21.48Zm4.57,10.45a2.8,2.8,0,0,0,2.1-.77,3.27,3.27,0,0,0,.8-2.41v-2a3.23,3.23,0,0,0-.8-2.4,2.81,2.81,0,0,0-2.1-.79h-2.2v8.35Zm8.84-8.65a1.41,1.41,0,0,1-1-.33,1.17,1.17,0,0,1-.31-.83v-.36a1.16,1.16,0,0,1,.31-.82,1.79,1.79,0,0,1,2.07,0,1.08,1.08,0,0,1,.32.82v.36a1.09,1.09,0,0,1-.32.83A1.4,1.4,0,0,1,34.89,35.24ZM33.74,36.6h2.31V46H33.74ZM47.19,46.79a3,3,0,0,1-.27,1.3,2.12,2.12,0,0,1-.84.95,4.7,4.7,0,0,1-1.53.58,11.46,11.46,0,0,1-2.29.2,10.39,10.39,0,0,1-2-.17,4.42,4.42,0,0,1-1.37-.43,1.82,1.82,0,0,1-.76-.68,2,2,0,0,1-.23-.94,1.7,1.7,0,0,1,.43-1.24,2.27,2.27,0,0,1,1.24-.56v-.2a1.61,1.61,0,0,1-.9-.55,1.74,1.74,0,0,1-.3-1,1.27,1.27,0,0,1,.14-.63,1.54,1.54,0,0,1,.38-.49,2.2,2.2,0,0,1,.56-.32,2.85,2.85,0,0,1,.64-.22v-.07a2.87,2.87,0,0,1-1.29-1.1,3.13,3.13,0,0,1-.42-1.64,2.9,2.9,0,0,1,1-2.3,4.23,4.23,0,0,1,2.9-.88,7.92,7.92,0,0,1,.85,0,4.37,4.37,0,0,1,.79.18v-.3c0-.92.44-1.37,1.33-1.37h1.46v1.76h-2V37A2.79,2.79,0,0,1,45.79,38a3.2,3.2,0,0,1,.36,1.53,2.9,2.9,0,0,1-1,2.29,4.22,4.22,0,0,1-2.9.86,5.61,5.61,0,0,1-1.44-.16,1.77,1.77,0,0,0-.47.34.7.7,0,0,0-.19.51c0,.47.4.7,1.22.7H43.9a3.59,3.59,0,0,1,2.5.72A2.48,2.48,0,0,1,47.19,46.79ZM45,47.06a.81.81,0,0,0-.36-.7,2.23,2.23,0,0,0-1.24-.25h-3.2a1.13,1.13,0,0,0-.49,1,1,1,0,0,0,.45.85,2.89,2.89,0,0,0,1.53.3h1.15a3.35,3.35,0,0,0,1.64-.29A.93.93,0,0,0,45,47.06Zm-2.77-5.9c1.13,0,1.69-.48,1.69-1.44v-.31c0-1-.56-1.44-1.69-1.44s-1.69.48-1.69,1.44v.31C40.57,40.68,41.13,41.16,42.26,41.16Zm7.42-5.92a1.44,1.44,0,0,1-1-.33,1.16,1.16,0,0,1-.3-.83v-.36a1.15,1.15,0,0,1,.3-.82,1.44,1.44,0,0,1,1-.33,1.36,1.36,0,0,1,1,.33,1.09,1.09,0,0,1,.33.82v.36a1.1,1.1,0,0,1-.33.83A1.36,1.36,0,0,1,49.68,35.24ZM48.53,36.6h2.3V46h-2.3Zm7.9,9.4A2.16,2.16,0,0,1,54,43.61V38.44H52.62V36.6h.72a.83.83,0,0,0,.7-.23,1.19,1.19,0,0,0,.2-.74V34h2.07V36.6h1.92v1.84H56.31v5.72h1.78V46Zm10.71,0a1.65,1.65,0,0,1-1.2-.43,2.09,2.09,0,0,1-.54-1.19h-.11a2.29,2.29,0,0,1-1,1.39,3.33,3.33,0,0,1-1.79.45,3.05,3.05,0,0,1-2.21-.76,2.68,2.68,0,0,1-.77-2,2.41,2.41,0,0,1,1-2.16,5.21,5.21,0,0,1,3-.72h1.6v-.68a1.7,1.7,0,0,0-.41-1.22,1.77,1.77,0,0,0-1.33-.44,2.24,2.24,0,0,0-1.32.36,3.63,3.63,0,0,0-.83.83l-1.36-1.22a3.92,3.92,0,0,1,1.38-1.3,4.6,4.6,0,0,1,2.29-.5,4.33,4.33,0,0,1,2.9.86,3.14,3.14,0,0,1,1,2.49v4.42h.93V46Zm-3.81-1.46a2.39,2.39,0,0,0,1.31-.34,1.12,1.12,0,0,0,.54-1V42H63.71c-1.2,0-1.8.38-1.8,1.15v.31a1,1,0,0,0,.36.86A1.79,1.79,0,0,0,63.33,44.54ZM72.59,46a2.3,2.3,0,0,1-1.74-.59,2.34,2.34,0,0,1-.56-1.68v-11h2.3V44.16h1.24V46Zm7.24-9.4h2.31v1.55h.07a2.35,2.35,0,0,1,1-1.28,2.85,2.85,0,0,1,1.64-.48,3.18,3.18,0,0,1,2.74,1.28,5.92,5.92,0,0,1,.95,3.61,6.07,6.07,0,0,1-.95,3.66,3.2,3.2,0,0,1-2.74,1.28,2.86,2.86,0,0,1-1.64-.49,2.55,2.55,0,0,1-1-1.3h-.07V49.6H79.83Zm4.23,7.71a1.9,1.9,0,0,0,1.46-.6,2.24,2.24,0,0,0,.56-1.6V40.49a2.26,2.26,0,0,0-.56-1.6,1.87,1.87,0,0,0-1.46-.61,2.28,2.28,0,0,0-1.38.41,1.32,1.32,0,0,0-.54,1.1v3a1.31,1.31,0,0,0,.54,1.13A2.28,2.28,0,0,0,84.06,44.31ZM92.93,46a2.34,2.34,0,0,1-1.75-.59,2.38,2.38,0,0,1-.55-1.68v-11h2.3V44.16h1.24V46Zm9.9,0a1.66,1.66,0,0,1-1.21-.43,2.09,2.09,0,0,1-.54-1.19H101a2.25,2.25,0,0,1-1,1.39,3.29,3.29,0,0,1-1.78.45A3.08,3.08,0,0,1,96,45.46a2.71,2.71,0,0,1-.77-2,2.44,2.44,0,0,1,1-2.16,5.21,5.21,0,0,1,3-.72h1.61v-.68a1.66,1.66,0,0,0-.42-1.22,1.76,1.76,0,0,0-1.33-.44,2.19,2.19,0,0,0-1.31.36,3.44,3.44,0,0,0-.83.83l-1.37-1.22A4,4,0,0,1,97,36.89a4.53,4.53,0,0,1,2.28-.5,4.33,4.33,0,0,1,2.9.86,3.14,3.14,0,0,1,1,2.49v4.42h.94V46ZM99,44.54a2.4,2.4,0,0,0,1.32-.34,1.12,1.12,0,0,0,.54-1V42H99.39c-1.2,0-1.8.38-1.8,1.15v.31a1,1,0,0,0,.36.86A1.81,1.81,0,0,0,99,44.54Zm12.79-.11h-.09a2.39,2.39,0,0,1-.95,1.3,2.84,2.84,0,0,1-1.64.49,3.19,3.19,0,0,1-2.73-1.28,6.07,6.07,0,0,1-.94-3.66,5.93,5.93,0,0,1,.94-3.61,3.17,3.17,0,0,1,2.73-1.28,2.83,2.83,0,0,1,1.64.48,2.35,2.35,0,0,1,.95,1.28h.09V32.68h2.31V46H111.8Zm-1.94-.12a2.33,2.33,0,0,0,1.39-.4,1.3,1.3,0,0,0,.55-1.13v-3a1.3,1.3,0,0,0-.55-1.1,2.33,2.33,0,0,0-1.39-.41,1.87,1.87,0,0,0-1.46.61,2.3,2.3,0,0,0-.54,1.6v1.62a2.28,2.28,0,0,0,.54,1.6A1.9,1.9,0,0,0,109.86,44.31Zm10,1.91a5.16,5.16,0,0,1-2.27-.45A5.53,5.53,0,0,1,116,44.49l1.41-1.37a4.29,4.29,0,0,0,1.13.94,3.06,3.06,0,0,0,1.44.34,1.94,1.94,0,0,0,1.19-.29,1,1,0,0,0,.38-.79.82.82,0,0,0-.27-.65,1.54,1.54,0,0,0-.88-.34l-.94-.13a4.58,4.58,0,0,1-2.34-.86,2.48,2.48,0,0,1-.79-2,2.85,2.85,0,0,1,.25-1.23,2.54,2.54,0,0,1,.72-.93,3.09,3.09,0,0,1,1.12-.6,4.83,4.83,0,0,1,1.47-.21,5.48,5.48,0,0,1,1.21.11,3.93,3.93,0,0,1,1,.28,3.3,3.3,0,0,1,.79.47,6.64,6.64,0,0,1,.7.61l-1.35,1.35a3.71,3.71,0,0,0-1-.72,2.77,2.77,0,0,0-1.26-.28,1.74,1.74,0,0,0-1.09.27.86.86,0,0,0-.33.7.94.94,0,0,0,.27.72,2.11,2.11,0,0,0,1,.34l1,.13c2,.28,3,1.21,3,2.77a2.71,2.71,0,0,1-.29,1.26,2.85,2.85,0,0,1-.77,1,4.13,4.13,0,0,1-1.22.63A5.55,5.55,0,0,1,119.84,46.22ZM132.66,46a1.66,1.66,0,0,1-1.21-.43,2.09,2.09,0,0,1-.54-1.19h-.11a2.25,2.25,0,0,1-1,1.39,3.29,3.29,0,0,1-1.78.45,3.08,3.08,0,0,1-2.22-.76,2.71,2.71,0,0,1-.77-2,2.44,2.44,0,0,1,1-2.16,5.21,5.21,0,0,1,3-.72h1.61v-.68a1.66,1.66,0,0,0-.42-1.22,1.76,1.76,0,0,0-1.33-.44,2.19,2.19,0,0,0-1.31.36,3.44,3.44,0,0,0-.83.83l-1.37-1.22a4,4,0,0,1,1.39-1.3,4.53,4.53,0,0,1,2.28-.5,4.33,4.33,0,0,1,2.9.86,3.14,3.14,0,0,1,1,2.49v4.42h.94V46Zm-3.82-1.46a2.4,2.4,0,0,0,1.32-.34,1.12,1.12,0,0,0,.54-1V42h-1.48c-1.2,0-1.8.38-1.8,1.15v.31a1,1,0,0,0,.36.86A1.81,1.81,0,0,0,128.84,44.54Zm7,1.46V36.6h2.3v1.57h.1a3,3,0,0,1,.9-1.26,2.58,2.58,0,0,1,1.72-.52,2.71,2.71,0,0,1,2.23,1,4.2,4.2,0,0,1,.78,2.72V46h-2.31V40.29a2.61,2.61,0,0,0-.36-1.51,1.35,1.35,0,0,0-1.18-.5,2.15,2.15,0,0,0-.71.11,1.88,1.88,0,0,0-.59.28,1.44,1.44,0,0,0-.41.47,1.23,1.23,0,0,0-.17.65V46Zm12.46,0-3.13-9.4h2.26l1.32,4,.92,3.35h.12l.92-3.35,1.28-4h2.19L151,46Zm8.57-10.76a1.41,1.41,0,0,1-1-.33,1.17,1.17,0,0,1-.31-.83v-.36a1.16,1.16,0,0,1,.31-.82,1.79,1.79,0,0,1,2.07,0,1.08,1.08,0,0,1,.32.82v.36a1.09,1.09,0,0,1-.32.83A1.4,1.4,0,0,1,156.83,35.24Zm-1.15,1.36H158V46h-2.31Zm8,9.62a5.08,5.08,0,0,1-2.26-.45,5.28,5.28,0,0,1-1.62-1.28l1.4-1.37a4.45,4.45,0,0,0,1.13.94,3.06,3.06,0,0,0,1.44.34,1.92,1.92,0,0,0,1.19-.29,1,1,0,0,0,.38-.79.82.82,0,0,0-.27-.65,1.54,1.54,0,0,0-.88-.34l-.94-.13a4.58,4.58,0,0,1-2.34-.86,2.48,2.48,0,0,1-.79-2,2.85,2.85,0,0,1,.25-1.23,2.54,2.54,0,0,1,.72-.93,3.17,3.17,0,0,1,1.12-.6,4.83,4.83,0,0,1,1.47-.21,5.48,5.48,0,0,1,1.21.11,3.93,3.93,0,0,1,1,.28,3.3,3.3,0,0,1,.79.47,7.93,7.93,0,0,1,.71.61l-1.35,1.35a4.07,4.07,0,0,0-1-.72,2.83,2.83,0,0,0-1.26-.28,1.78,1.78,0,0,0-1.1.27.86.86,0,0,0-.33.7.94.94,0,0,0,.27.72,2.16,2.16,0,0,0,1,.34l.95.13c2,.28,3,1.21,3,2.77a2.83,2.83,0,0,1-.28,1.26,2.88,2.88,0,0,1-.78,1,4,4,0,0,1-1.22.63A5.55,5.55,0,0,1,163.73,46.22Zm5.91-.22V36.6h2.3v1.57H172a3.08,3.08,0,0,1,.9-1.26,2.63,2.63,0,0,1,1.73-.52,2.71,2.71,0,0,1,2.23,1,4.2,4.2,0,0,1,.78,2.72V46h-2.31V40.29a2.61,2.61,0,0,0-.36-1.51,1.36,1.36,0,0,0-1.18-.5,2.11,2.11,0,0,0-.71.11,1.88,1.88,0,0,0-.59.28,1.47,1.47,0,0,0-.42.47,1.33,1.33,0,0,0-.16.65V46Zm11.73-10.76a1.4,1.4,0,0,1-1-.33,1.17,1.17,0,0,1-.31-.83v-.36a1.16,1.16,0,0,1,.31-.82,1.79,1.79,0,0,1,2.07,0,1.08,1.08,0,0,1,.32.82v.36a1.09,1.09,0,0,1-.32.83A1.4,1.4,0,0,1,181.37,35.24Zm-1.15,1.36h2.3V46h-2.3Zm5,9.4V36.6h2.3v1.57h.09a3,3,0,0,1,.9-1.26,2.63,2.63,0,0,1,1.73-.52,2.73,2.73,0,0,1,2.23,1,4.26,4.26,0,0,1,.77,2.72V46h-2.3V40.29a2.61,2.61,0,0,0-.36-1.51,1.38,1.38,0,0,0-1.19-.5,2.09,2.09,0,0,0-.7.11,1.93,1.93,0,0,0-.6.28,1.56,1.56,0,0,0-.41.47,1.23,1.23,0,0,0-.16.65V46Zm19.06.79a3.11,3.11,0,0,1-.27,1.3,2.14,2.14,0,0,1-.85.95,4.7,4.7,0,0,1-1.53.58,11.39,11.39,0,0,1-2.29.2,10.39,10.39,0,0,1-2-.17,4.51,4.51,0,0,1-1.37-.43,1.82,1.82,0,0,1-.76-.68,2,2,0,0,1-.23-.94,1.7,1.7,0,0,1,.43-1.24,2.3,2.3,0,0,1,1.24-.56v-.2a1.61,1.61,0,0,1-.9-.55,1.74,1.74,0,0,1-.3-1,1.27,1.27,0,0,1,.14-.63,1.54,1.54,0,0,1,.38-.49,2.2,2.2,0,0,1,.56-.32,2.77,2.77,0,0,1,.65-.22v-.07a2.84,2.84,0,0,1-1.3-1.1,3.13,3.13,0,0,1-.42-1.64,2.88,2.88,0,0,1,1-2.3,4.2,4.2,0,0,1,2.89-.88,7.92,7.92,0,0,1,.85,0,4.37,4.37,0,0,1,.79.18v-.3c0-.92.44-1.37,1.33-1.37h1.46v1.76h-2V37a2.79,2.79,0,0,1,1.1,1.08,3.2,3.2,0,0,1,.36,1.53,2.9,2.9,0,0,1-1,2.29,4.22,4.22,0,0,1-2.9.86,5.61,5.61,0,0,1-1.44-.16,1.77,1.77,0,0,0-.47.34.7.7,0,0,0-.19.51c0,.47.41.7,1.22.7H201a3.59,3.59,0,0,1,2.5.72A2.48,2.48,0,0,1,204.26,46.79Zm-2.16.27a.81.81,0,0,0-.36-.7,2.3,2.3,0,0,0-1.25-.25h-3.2a1.13,1.13,0,0,0-.49,1,1,1,0,0,0,.45.85,2.89,2.89,0,0,0,1.53.3h1.15a3.35,3.35,0,0,0,1.64-.29A.94.94,0,0,0,202.1,47.06Zm-2.78-5.9c1.13,0,1.69-.48,1.69-1.44v-.31c0-1-.56-1.44-1.69-1.44s-1.69.48-1.69,1.44v.31C197.63,40.68,198.2,41.16,199.32,41.16Z" transform="translate(-19 -32.57)" fill="#474e95"/>
    <path d="M340.5,234.5H19.5v41h321Z" transform="translate(-19 -32.57)" fill="#dcdcdc" stroke="#707070"/>
    <path d="M140.5,211.5H19.5v19h121Z" transform="translate(-19 -32.57)" fill="#bfbfbf" stroke="#707070"/>
    <path d="M311.5,161.5H19.5v41h292Z" transform="translate(-19 -32.57)" fill="#dcdcdc" stroke="#707070"/>
    <path d="M140.5,138.5H19.5v19h121Z" transform="translate(-19 -32.57)" fill="#bfbfbf" stroke="#707070"/>
    <path d="M259.5,88.5H20.5v41h239Z" transform="translate(-19 -32.57)" fill="#dcdcdc" stroke="#707070"/>
    <path d="M141.5,65.5H20.5v19h121Z" transform="translate(-19 -32.57)" fill="#bfbfbf" stroke="#707070"/>
    <path d="M105,285H20v35h85Z" transform="translate(-19 -32.57)" fill="#707070"/>
    <path d="M41.51,304.27,40.36,302h0V310h-2V298.83h2.32L44,304.56l1.15,2.32h0v-8.05h2V310H44.87Zm11.26,2.07a2.26,2.26,0,0,0-1.18.28.86.86,0,0,0-.42.77v.26a1,1,0,0,0,.32.78,1.48,1.48,0,0,0,1,.27,2.12,2.12,0,0,0,1.15-.3,1,1,0,0,0,.48-.9v-1.16Zm6.8-1.27v-.14a2.1,2.1,0,0,0-.43-1.39,1.42,1.42,0,0,0-1.22-.55,1.62,1.62,0,0,0-1.29.55,2,2,0,0,0-.48,1.4v.13Zm-1.36,3.46a2.42,2.42,0,0,0,1.27-.32,3.1,3.1,0,0,0,.86-.79l1.1,1.24a3.39,3.39,0,0,1-1.39,1.13,4.75,4.75,0,0,1-2,.4,4.56,4.56,0,0,1-1.14-.14,4,4,0,0,1-.94-.39,3.18,3.18,0,0,1-.69-.54,2.12,2.12,0,0,1-.43-.64h-.1a2,2,0,0,1-.35.62,2.23,2.23,0,0,1-.59.55,3.08,3.08,0,0,1-.88.38,3.72,3.72,0,0,1-1.17.16,2.7,2.7,0,0,1-2-.69,2.4,2.4,0,0,1-.69-1.79,2.5,2.5,0,0,1,.26-1.15,2.27,2.27,0,0,1,.72-.82,3.28,3.28,0,0,1,1.12-.49,5.58,5.58,0,0,1,1.47-.18h1.42v-.51a1.54,1.54,0,0,0-.36-1.09,1.6,1.6,0,0,0-1.17-.38,2.12,2.12,0,0,0-1.19.3,3.25,3.25,0,0,0-.73.75l-1.22-1.08a3.51,3.51,0,0,1,1.23-1.16,4.14,4.14,0,0,1,2-.44,2.59,2.59,0,0,1,1.53.4,2.7,2.7,0,0,1,.9,1h.09a2.46,2.46,0,0,1,1-1,3.48,3.48,0,0,1,1.73-.4,3.93,3.93,0,0,1,1.68.33,3.17,3.17,0,0,1,1.15.91,3.74,3.74,0,0,1,.68,1.35,5.59,5.59,0,0,1,.22,1.61v.68H56.13v.2a1.91,1.91,0,0,0,.55,1.44A2,2,0,0,0,58.21,308.53Zm8,1.66a4.55,4.55,0,0,1-2-.4,4.71,4.71,0,0,1-1.44-1.13L64,307.44a3.88,3.88,0,0,0,1,.83,2.55,2.55,0,0,0,1.28.31,1.68,1.68,0,0,0,1-.26.81.81,0,0,0,.34-.7.73.73,0,0,0-.24-.58,1.35,1.35,0,0,0-.78-.3l-.84-.12a4.05,4.05,0,0,1-2.08-.76,2.21,2.21,0,0,1-.7-1.76A2.53,2.53,0,0,1,63.3,303a2.29,2.29,0,0,1,.64-.83,2.74,2.74,0,0,1,1-.53,4.15,4.15,0,0,1,1.31-.19,5.7,5.7,0,0,1,1.07.09,3.47,3.47,0,0,1,.86.26,3.13,3.13,0,0,1,.71.41,6.27,6.27,0,0,1,.62.55l-1.2,1.2a3,3,0,0,0-.88-.64,2.46,2.46,0,0,0-1.12-.26,1.55,1.55,0,0,0-1,.24.76.76,0,0,0-.29.63.84.84,0,0,0,.24.64,1.77,1.77,0,0,0,.85.3L67,305c1.81.26,2.71,1.08,2.71,2.47a2.53,2.53,0,0,1-1,2,3.34,3.34,0,0,1-1.08.56A4.76,4.76,0,0,1,66.25,310.19ZM74,310a2.26,2.26,0,0,1-1.62-.54,2.2,2.2,0,0,1-.54-1.59v-4.59H70.59v-1.63h.64a.74.74,0,0,0,.62-.21,1,1,0,0,0,.18-.66v-1.42h1.84v2.29h1.71v1.63H73.87v5.09h1.58V310Zm6.69.19a4.35,4.35,0,0,1-1.66-.3,3.68,3.68,0,0,1-1.24-.88,4.1,4.1,0,0,1-.76-1.38,5.48,5.48,0,0,1-.28-1.82A5.86,5.86,0,0,1,77,304a3.83,3.83,0,0,1,.77-1.36,3.13,3.13,0,0,1,1.21-.88,3.9,3.9,0,0,1,1.64-.32,4,4,0,0,1,1.69.33,3.4,3.4,0,0,1,1.19.91,4.09,4.09,0,0,1,.68,1.35,5.27,5.27,0,0,1,.24,1.61v.68H78.86v.2a2.13,2.13,0,0,0,.51,1.48,2,2,0,0,0,1.52.54,2.23,2.23,0,0,0,1.25-.32,3.25,3.25,0,0,0,.88-.82l1.11,1.24a3.52,3.52,0,0,1-1.41,1.13A4.87,4.87,0,0,1,80.67,310.19Zm0-7.2a1.62,1.62,0,0,0-1.3.55,2,2,0,0,0-.48,1.4v.13h3.43v-.14a2.1,2.1,0,0,0-.44-1.39A1.41,1.41,0,0,0,80.64,303Z" transform="translate(-19 -32.57)" fill="#f5f5f5"/>
</svg>
