<?xml version="1.0" encoding="UTF-8"?>
<svg width="362px" height="208px" viewBox="0 0 362 208" version="1.1" xmlns="http://www.w3.org/2000/svg" xmlns:xlink="http://www.w3.org/1999/xlink">
    <title>Overflow-menu-do-01</title>
    <g id="Overflow-menu-do-01">
        <g>
            <rect id="Rectangle-Copy-4" x="172.5" y="0.5" width="123" height="51" fill="#dcdcdc" stroke="#747474"/>
            <rect id="Rectangle" x="294.5" y="0.5" width="26" height="51" fill="#c8cadf" stroke="#474e95"/>
            <path id="Combined-Shape" d="M298.68,84.5,307,65.77l8.32,18.73H360.5v145h-251V84.5Z" transform="translate(1 -22)" fill="#c8cadf" stroke="#474e95" fill-rule="evenodd"/>
            <g id="Valgmulighed-1-Valgm" style="isolation: isolate">
                <text transform="translate(215 82)" font-size="18" fill="#474e95" font-family="ArialMT, Arial" style="isolation: isolate"><tspan letter-spacing="-0.07em">V</tspan><tspan x="10.67" y="0">algmulighed 1</tspan></text>
                <text transform="translate(337.75 82)" font-size="18" fill="#474e95" font-family="ArialMT, Arial"> </text>
                <text transform="translate(215 117)" font-size="18" fill="#474e95" font-family="ArialMT, Arial" style="isolation: isolate"><tspan letter-spacing="-0.07em">V</tspan><tspan x="10.67" y="0">algmulighed 2</tspan></text>
                <text transform="translate(337.75 117)" font-size="18" fill="#474e95" font-family="ArialMT, Arial"> </text>
                <text transform="translate(215 152)" font-size="18" fill="#474e95" font-family="ArialMT, Arial" style="isolation: isolate"><tspan letter-spacing="-0.07em">V</tspan><tspan x="10.67" y="0">algmulighed 3</tspan></text>
                <text transform="translate(337.75 152)" font-size="18" fill="#474e95" font-family="ArialMT, Arial"> </text>
                <text transform="translate(215 187)" font-size="18" fill="#474e95" font-family="ArialMT, Arial" style="isolation: isolate"><tspan letter-spacing="-0.07em">V</tspan><tspan x="10.67" y="0">algmulighed 4</tspan></text>
            </g>
            <g id="Group">
                <path id="Rectangle-2" data-name="Rectangle" d="M306.5,39h0a2.5,2.5,0,0,1,2.5,2.5h0a2.5,2.5,0,0,1-2.5,2.5h0a2.5,2.5,0,0,1-2.5-2.5h0A2.5,2.5,0,0,1,306.5,39Z" transform="translate(1 -22)" fill="#474e95" fill-rule="evenodd"/>
                <path id="Rectangle-Copy" d="M306.5,46h0a2.5,2.5,0,0,1,2.5,2.5h0a2.5,2.5,0,0,1-2.5,2.5h0a2.5,2.5,0,0,1-2.5-2.5h0A2.5,2.5,0,0,1,306.5,46Z" transform="translate(1 -22)" fill="#474e95" fill-rule="evenodd"/>
                <path id="Rectangle-Copy-2" d="M306.5,53h0a2.5,2.5,0,0,1,2.5,2.5h0a2.5,2.5,0,0,1-2.5,2.5h0a2.5,2.5,0,0,1-2.5-2.5h0A2.5,2.5,0,0,1,306.5,53Z" transform="translate(1 -22)" fill="#474e95" fill-rule="evenodd"/>
            </g>
            <rect id="Rectangle-Copy-5" x="49.5" y="0.5" width="123" height="51" fill="#dcdcdc" stroke="#747474"/>
            <rect id="Rectangle-Copy-6" x="0.5" y="0.5" width="49" height="51" fill="#dcdcdc" stroke="#747474"/>
            <g id="Menupunkt" style="isolation: isolate">
                <text transform="translate(187 33)" font-size="18" fill="#1a1a1a" font-family="ArialMT, Arial" style="isolation: isolate">Menupunkt</text>
            </g>
            <g id="Menupunkt-Copy" style="isolation: isolate">
                <text transform="translate(64 33)" font-size="18" fill="#1a1a1a" font-family="ArialMT, Arial" style="isolation: isolate">Menupunkt</text>
            </g>
            <g id="unkt" style="isolation: isolate">
                <text transform="translate(1 33)" font-size="18" fill="#1a1a1a" font-family="ArialMT, Arial" style="isolation: isolate">unkt</text>
            </g>
        </g>
    </g>
</svg>
