<svg width="418" height="367" viewBox="0 0 418 367" fill="none" xmlns="http://www.w3.org/2000/svg">
<rect width="418" height="367" fill="white"/>
<line y1="246.5" x2="418" y2="246.5" stroke="#8E8E8E"/>
<path d="M20.13 281.436L18.786 282.976V286H17.204V276.228H18.786V281.184H18.842L20.242 279.406L22.874 276.228H24.722L21.236 280.344L25.002 286H23.098L20.13 281.436ZM28.8347 286.168C28.3307 286.168 27.8687 286.079 27.4487 285.902C27.0381 285.725 26.6881 285.473 26.3987 285.146C26.1094 284.81 25.8854 284.409 25.7267 283.942C25.5681 283.466 25.4887 282.939 25.4887 282.36C25.4887 281.781 25.5681 281.259 25.7267 280.792C25.8854 280.316 26.1094 279.915 26.3987 279.588C26.6881 279.252 27.0381 278.995 27.4487 278.818C27.8687 278.641 28.3307 278.552 28.8347 278.552C29.3387 278.552 29.7961 278.641 30.2067 278.818C30.6267 278.995 30.9814 279.252 31.2707 279.588C31.5601 279.915 31.7841 280.316 31.9427 280.792C32.1014 281.259 32.1807 281.781 32.1807 282.36C32.1807 282.939 32.1014 283.466 31.9427 283.942C31.7841 284.409 31.5601 284.81 31.2707 285.146C30.9814 285.473 30.6267 285.725 30.2067 285.902C29.7961 286.079 29.3387 286.168 28.8347 286.168ZM28.8347 284.908C29.3574 284.908 29.7774 284.749 30.0947 284.432C30.4121 284.105 30.5707 283.62 30.5707 282.976V281.744C30.5707 281.1 30.4121 280.619 30.0947 280.302C29.7774 279.975 29.3574 279.812 28.8347 279.812C28.3121 279.812 27.8921 279.975 27.5747 280.302C27.2574 280.619 27.0987 281.1 27.0987 281.744V282.976C27.0987 283.62 27.2574 284.105 27.5747 284.432C27.8921 284.749 28.3121 284.908 28.8347 284.908ZM33.8811 286V278.72H35.4071V279.924H35.4771C35.6357 279.532 35.8737 279.205 36.1911 278.944C36.5177 278.683 36.9611 278.552 37.5211 278.552C38.2677 278.552 38.8464 278.799 39.2571 279.294C39.6771 279.779 39.8871 280.475 39.8871 281.38V286H38.3611V281.576C38.3611 280.437 37.9037 279.868 36.9891 279.868C36.7931 279.868 36.5971 279.896 36.4011 279.952C36.2144 279.999 36.0464 280.073 35.8971 280.176C35.7477 280.279 35.6264 280.409 35.5331 280.568C35.4491 280.727 35.4071 280.913 35.4071 281.128V286H33.8811ZM44.0182 286C43.4862 286 43.0848 285.865 42.8142 285.594C42.5435 285.314 42.4082 284.922 42.4082 284.418V279.966H41.2742V278.72H41.8902C42.1422 278.72 42.3148 278.664 42.4082 278.552C42.5108 278.44 42.5622 278.258 42.5622 278.006V276.732H43.9342V278.72H45.4602V279.966H43.9342V284.754H45.3482V286H44.0182ZM52.4494 286C52.0481 286 51.7401 285.888 51.5254 285.664C51.3108 285.431 51.1801 285.137 51.1334 284.782H51.0634C50.9234 285.239 50.6668 285.585 50.2934 285.818C49.9201 286.051 49.4674 286.168 48.9354 286.168C48.1794 286.168 47.5961 285.972 47.1854 285.58C46.7841 285.188 46.5834 284.661 46.5834 283.998C46.5834 283.27 46.8448 282.724 47.3674 282.36C47.8994 281.996 48.6741 281.814 49.6914 281.814H51.0074V281.198C51.0074 280.75 50.8861 280.405 50.6434 280.162C50.4008 279.919 50.0228 279.798 49.5094 279.798C49.0801 279.798 48.7301 279.891 48.4594 280.078C48.1888 280.265 47.9601 280.503 47.7734 280.792L46.8634 279.966C47.1061 279.555 47.4468 279.219 47.8854 278.958C48.3241 278.687 48.8981 278.552 49.6074 278.552C50.5501 278.552 51.2734 278.771 51.7774 279.21C52.2814 279.649 52.5334 280.279 52.5334 281.1V284.754H53.3034V286H52.4494ZM49.3694 285.006C49.8454 285.006 50.2374 284.903 50.5454 284.698C50.8534 284.483 51.0074 284.199 51.0074 283.844V282.794H49.7194C48.6648 282.794 48.1374 283.121 48.1374 283.774V284.026C48.1374 284.353 48.2448 284.6 48.4594 284.768C48.6834 284.927 48.9868 285.006 49.3694 285.006ZM54.799 275.64H56.325V281.996H56.395L57.403 280.694L59.153 278.72H60.931L58.383 281.534L61.239 286H59.419L57.333 282.528L56.325 283.62V286H54.799V275.64ZM64.3346 286C63.8026 286 63.4012 285.865 63.1306 285.594C62.8599 285.314 62.7246 284.922 62.7246 284.418V279.966H61.5906V278.72H62.2066C62.4586 278.72 62.6312 278.664 62.7246 278.552C62.8272 278.44 62.8786 278.258 62.8786 278.006V276.732H64.2506V278.72H65.7766V279.966H64.2506V284.754H65.6646V286H64.3346Z" fill="black"/>
<path d="M151.204 286V276.228H155.404C156.309 276.228 157.009 276.494 157.504 277.026C157.999 277.558 158.246 278.272 158.246 279.168C158.246 280.064 157.999 280.778 157.504 281.31C157.009 281.842 156.309 282.108 155.404 282.108H152.786V286H151.204ZM152.786 280.722H155.306C155.707 280.722 156.02 280.619 156.244 280.414C156.468 280.199 156.58 279.896 156.58 279.504V278.832C156.58 278.44 156.468 278.141 156.244 277.936C156.02 277.721 155.707 277.614 155.306 277.614H152.786V280.722ZM159.733 286V278.72H161.259V280.12H161.329C161.431 279.747 161.646 279.42 161.973 279.14C162.299 278.86 162.752 278.72 163.331 278.72H163.737V280.19H163.135C162.528 280.19 162.061 280.288 161.735 280.484C161.417 280.68 161.259 280.969 161.259 281.352V286H159.733ZM165.862 277.418C165.545 277.418 165.311 277.343 165.162 277.194C165.022 277.045 164.952 276.853 164.952 276.62V276.382C164.952 276.149 165.022 275.957 165.162 275.808C165.311 275.659 165.545 275.584 165.862 275.584C166.179 275.584 166.408 275.659 166.548 275.808C166.688 275.957 166.758 276.149 166.758 276.382V276.62C166.758 276.853 166.688 277.045 166.548 277.194C166.408 277.343 166.179 277.418 165.862 277.418ZM165.092 278.72H166.618V286H165.092V278.72ZM170.379 286L167.901 278.72H169.413L170.519 282.038L171.261 284.586H171.345L172.087 282.038L173.221 278.72H174.677L172.171 286H170.379ZM181.172 286C180.771 286 180.463 285.888 180.248 285.664C180.033 285.431 179.903 285.137 179.856 284.782H179.786C179.646 285.239 179.389 285.585 179.016 285.818C178.643 286.051 178.19 286.168 177.658 286.168C176.902 286.168 176.319 285.972 175.908 285.58C175.507 285.188 175.306 284.661 175.306 283.998C175.306 283.27 175.567 282.724 176.09 282.36C176.622 281.996 177.397 281.814 178.414 281.814H179.73V281.198C179.73 280.75 179.609 280.405 179.366 280.162C179.123 279.919 178.745 279.798 178.232 279.798C177.803 279.798 177.453 279.891 177.182 280.078C176.911 280.265 176.683 280.503 176.496 280.792L175.586 279.966C175.829 279.555 176.169 279.219 176.608 278.958C177.047 278.687 177.621 278.552 178.33 278.552C179.273 278.552 179.996 278.771 180.5 279.21C181.004 279.649 181.256 280.279 181.256 281.1V284.754H182.026V286H181.172ZM178.092 285.006C178.568 285.006 178.96 284.903 179.268 284.698C179.576 284.483 179.73 284.199 179.73 283.844V282.794H178.442C177.387 282.794 176.86 283.121 176.86 283.774V284.026C176.86 284.353 176.967 284.6 177.182 284.768C177.406 284.927 177.709 285.006 178.092 285.006ZM185.497 286C184.965 286 184.563 285.865 184.293 285.594C184.022 285.314 183.887 284.922 183.887 284.418V279.966H182.753V278.72H183.369C183.621 278.72 183.793 278.664 183.887 278.552C183.989 278.44 184.041 278.258 184.041 278.006V276.732H185.413V278.72H186.939V279.966H185.413V284.754H186.827V286H185.497ZM190.148 286C189.625 286 189.233 285.869 188.972 285.608C188.72 285.337 188.594 284.964 188.594 284.488V275.64H190.12V284.754H191.128V286H190.148ZM193.356 277.418C193.039 277.418 192.805 277.343 192.656 277.194C192.516 277.045 192.446 276.853 192.446 276.62V276.382C192.446 276.149 192.516 275.957 192.656 275.808C192.805 275.659 193.039 275.584 193.356 275.584C193.673 275.584 193.902 275.659 194.042 275.808C194.182 275.957 194.252 276.149 194.252 276.382V276.62C194.252 276.853 194.182 277.045 194.042 277.194C193.902 277.343 193.673 277.418 193.356 277.418ZM192.586 278.72H194.112V286H192.586V278.72ZM197.873 286L195.395 278.72H196.907L198.013 282.038L198.755 284.586H198.839L199.581 282.038L200.715 278.72H202.171L199.665 286H197.873ZM205.752 286.168C205.061 286.168 204.482 286.047 204.016 285.804C203.549 285.561 203.143 285.225 202.798 284.796L203.778 283.9C204.048 284.227 204.347 284.483 204.674 284.67C205.01 284.847 205.397 284.936 205.836 284.936C206.284 284.936 206.615 284.852 206.83 284.684C207.054 284.507 207.166 284.264 207.166 283.956C207.166 283.723 207.086 283.527 206.928 283.368C206.778 283.2 206.512 283.093 206.13 283.046L205.458 282.962C204.711 282.869 204.123 282.654 203.694 282.318C203.274 281.973 203.064 281.464 203.064 280.792C203.064 280.437 203.129 280.125 203.26 279.854C203.39 279.574 203.572 279.341 203.806 279.154C204.048 278.958 204.333 278.809 204.66 278.706C204.996 278.603 205.364 278.552 205.766 278.552C206.419 278.552 206.951 278.655 207.362 278.86C207.782 279.065 208.155 279.35 208.482 279.714L207.544 280.61C207.357 280.386 207.11 280.195 206.802 280.036C206.503 279.868 206.158 279.784 205.766 279.784C205.346 279.784 205.033 279.868 204.828 280.036C204.632 280.204 204.534 280.423 204.534 280.694C204.534 280.974 204.622 281.184 204.8 281.324C204.977 281.464 205.262 281.567 205.654 281.632L206.326 281.716C207.128 281.837 207.712 282.075 208.076 282.43C208.449 282.775 208.636 283.242 208.636 283.83C208.636 284.185 208.566 284.507 208.426 284.796C208.295 285.076 208.104 285.319 207.852 285.524C207.6 285.729 207.296 285.888 206.942 286C206.587 286.112 206.19 286.168 205.752 286.168ZM210.36 278.72H211.886V279.924H211.956C212.114 279.485 212.371 279.149 212.726 278.916C213.09 278.673 213.514 278.552 214 278.552C214.924 278.552 215.638 278.888 216.142 279.56C216.646 280.223 216.898 281.156 216.898 282.36C216.898 283.564 216.646 284.502 216.142 285.174C215.638 285.837 214.924 286.168 214 286.168C213.514 286.168 213.09 286.047 212.726 285.804C212.371 285.561 212.114 285.225 211.956 284.796H211.886V288.8H210.36V278.72ZM213.538 284.852C214.07 284.852 214.494 284.684 214.812 284.348C215.129 284.003 215.288 283.55 215.288 282.99V281.73C215.288 281.17 215.129 280.722 214.812 280.386C214.494 280.041 214.07 279.868 213.538 279.868C213.071 279.868 212.679 279.985 212.362 280.218C212.044 280.442 211.886 280.741 211.886 281.114V283.606C211.886 283.979 212.044 284.283 212.362 284.516C212.679 284.74 213.071 284.852 213.538 284.852ZM221.501 286.168C220.997 286.168 220.535 286.079 220.115 285.902C219.704 285.725 219.354 285.473 219.065 285.146C218.775 284.81 218.551 284.409 218.393 283.942C218.234 283.466 218.155 282.939 218.155 282.36C218.155 281.781 218.234 281.259 218.393 280.792C218.551 280.316 218.775 279.915 219.065 279.588C219.354 279.252 219.704 278.995 220.115 278.818C220.535 278.641 220.997 278.552 221.501 278.552C222.005 278.552 222.462 278.641 222.873 278.818C223.293 278.995 223.647 279.252 223.937 279.588C224.226 279.915 224.45 280.316 224.609 280.792C224.767 281.259 224.847 281.781 224.847 282.36C224.847 282.939 224.767 283.466 224.609 283.942C224.45 284.409 224.226 284.81 223.937 285.146C223.647 285.473 223.293 285.725 222.873 285.902C222.462 286.079 222.005 286.168 221.501 286.168ZM221.501 284.908C222.023 284.908 222.443 284.749 222.761 284.432C223.078 284.105 223.237 283.62 223.237 282.976V281.744C223.237 281.1 223.078 280.619 222.761 280.302C222.443 279.975 222.023 279.812 221.501 279.812C220.978 279.812 220.558 279.975 220.241 280.302C219.923 280.619 219.765 281.1 219.765 281.744V282.976C219.765 283.62 219.923 284.105 220.241 284.432C220.558 284.749 220.978 284.908 221.501 284.908ZM228.101 286C227.578 286 227.186 285.869 226.925 285.608C226.673 285.337 226.547 284.964 226.547 284.488V275.64H228.073V284.754H229.081V286H228.101ZM231.309 277.418C230.992 277.418 230.759 277.343 230.609 277.194C230.469 277.045 230.399 276.853 230.399 276.62V276.382C230.399 276.149 230.469 275.957 230.609 275.808C230.759 275.659 230.992 275.584 231.309 275.584C231.627 275.584 231.855 275.659 231.995 275.808C232.135 275.957 232.205 276.149 232.205 276.382V276.62C232.205 276.853 232.135 277.045 231.995 277.194C231.855 277.343 231.627 277.418 231.309 277.418ZM230.539 278.72H232.065V286H230.539V278.72ZM236.26 286C235.728 286 235.327 285.865 235.056 285.594C234.786 285.314 234.65 284.922 234.65 284.418V279.966H233.516V278.72H234.132C234.384 278.72 234.557 278.664 234.65 278.552C234.753 278.44 234.804 278.258 234.804 278.006V276.732H236.176V278.72H237.702V279.966H236.176V284.754H237.59V286H236.26ZM240.128 277.418C239.81 277.418 239.577 277.343 239.428 277.194C239.288 277.045 239.218 276.853 239.218 276.62V276.382C239.218 276.149 239.288 275.957 239.428 275.808C239.577 275.659 239.81 275.584 240.128 275.584C240.445 275.584 240.674 275.659 240.814 275.808C240.954 275.957 241.024 276.149 241.024 276.382V276.62C241.024 276.853 240.954 277.045 240.814 277.194C240.674 277.343 240.445 277.418 240.128 277.418ZM239.358 278.72H240.884V286H239.358V278.72ZM243.063 275.64H244.589V281.996H244.659L245.667 280.694L247.417 278.72H249.195L246.647 281.534L249.503 286H247.683L245.597 282.528L244.589 283.62V286H243.063V275.64Z" fill="black"/>
<path d="M285.204 286V276.228H291.308V277.628H286.786V280.344H290.804V281.744H286.786V286H285.204ZM291.952 285.986L292.89 284.824C292.675 284.497 292.512 284.133 292.4 283.732C292.288 283.321 292.232 282.864 292.232 282.36C292.232 281.781 292.311 281.259 292.47 280.792C292.629 280.316 292.853 279.915 293.142 279.588C293.431 279.252 293.781 278.995 294.192 278.818C294.612 278.641 295.074 278.552 295.578 278.552C296.315 278.552 296.959 278.748 297.51 279.14L298.364 278.104L299.204 278.734L298.252 279.91C298.467 280.227 298.63 280.591 298.742 281.002C298.863 281.413 298.924 281.865 298.924 282.36C298.924 282.939 298.845 283.466 298.686 283.942C298.527 284.409 298.303 284.81 298.014 285.146C297.725 285.473 297.37 285.725 296.95 285.902C296.539 286.079 296.082 286.168 295.578 286.168C295.195 286.168 294.841 286.117 294.514 286.014C294.197 285.921 293.907 285.781 293.646 285.594L292.792 286.616L291.952 285.986ZM295.578 284.95C296.11 284.95 296.535 284.782 296.852 284.446C297.179 284.101 297.342 283.601 297.342 282.948V281.772C297.342 281.52 297.314 281.287 297.258 281.072L294.416 284.558C294.705 284.819 295.093 284.95 295.578 284.95ZM293.814 282.948C293.814 283.209 293.842 283.443 293.898 283.648L296.74 280.176C296.423 279.905 296.035 279.77 295.578 279.77C295.046 279.77 294.617 279.943 294.29 280.288C293.973 280.624 293.814 281.119 293.814 281.772V282.948ZM302.218 286C301.696 286 301.304 285.869 301.042 285.608C300.79 285.337 300.664 284.964 300.664 284.488V275.64H302.19V284.754H303.198V286H302.218ZM311.04 286.686C311.04 287.442 310.751 288.011 310.172 288.394C309.594 288.777 308.651 288.968 307.344 288.968C306.747 288.968 306.238 288.926 305.818 288.842C305.408 288.767 305.067 288.655 304.796 288.506C304.535 288.357 304.344 288.175 304.222 287.96C304.101 287.745 304.04 287.498 304.04 287.218C304.04 286.817 304.148 286.504 304.362 286.28C304.586 286.056 304.894 285.902 305.286 285.818V285.664C304.736 285.487 304.46 285.113 304.46 284.544C304.46 284.171 304.586 283.886 304.838 283.69C305.09 283.485 305.394 283.34 305.748 283.256V283.2C305.319 282.995 304.988 282.71 304.754 282.346C304.53 281.973 304.418 281.539 304.418 281.044C304.418 280.297 304.666 279.695 305.16 279.238C305.664 278.781 306.383 278.552 307.316 278.552C307.83 278.552 308.268 278.627 308.632 278.776V278.58C308.632 278.253 308.707 278.001 308.856 277.824C309.015 277.637 309.258 277.544 309.584 277.544H310.704V278.776H309.22V279.07C309.547 279.285 309.799 279.565 309.976 279.91C310.154 280.246 310.242 280.624 310.242 281.044C310.242 281.781 309.99 282.379 309.486 282.836C308.982 283.284 308.264 283.508 307.33 283.508C306.976 283.508 306.658 283.471 306.378 283.396C306.192 283.461 306.028 283.555 305.888 283.676C305.748 283.788 305.678 283.937 305.678 284.124C305.678 284.32 305.767 284.46 305.944 284.544C306.122 284.628 306.374 284.67 306.7 284.67H308.492C309.388 284.67 310.037 284.852 310.438 285.216C310.84 285.571 311.04 286.061 311.04 286.686ZM309.612 286.854C309.612 286.602 309.514 286.401 309.318 286.252C309.132 286.103 308.786 286.028 308.282 286.028H305.818C305.482 286.224 305.314 286.504 305.314 286.868C305.314 287.167 305.431 287.405 305.664 287.582C305.907 287.769 306.313 287.862 306.882 287.862H307.834C309.02 287.862 309.612 287.526 309.612 286.854ZM307.33 282.402C307.778 282.402 308.124 282.304 308.366 282.108C308.618 281.903 308.744 281.59 308.744 281.17V280.89C308.744 280.47 308.618 280.162 308.366 279.966C308.124 279.761 307.778 279.658 307.33 279.658C306.882 279.658 306.532 279.761 306.28 279.966C306.038 280.162 305.916 280.47 305.916 280.89V281.17C305.916 281.59 306.038 281.903 306.28 282.108C306.532 282.304 306.882 282.402 307.33 282.402ZM318.341 286.168C317.837 286.168 317.375 286.079 316.955 285.902C316.544 285.725 316.194 285.473 315.905 285.146C315.615 284.81 315.391 284.409 315.233 283.942C315.074 283.466 314.995 282.939 314.995 282.36C314.995 281.781 315.074 281.259 315.233 280.792C315.391 280.316 315.615 279.915 315.905 279.588C316.194 279.252 316.544 278.995 316.955 278.818C317.375 278.641 317.837 278.552 318.341 278.552C318.845 278.552 319.302 278.641 319.713 278.818C320.133 278.995 320.487 279.252 320.777 279.588C321.066 279.915 321.29 280.316 321.449 280.792C321.607 281.259 321.687 281.781 321.687 282.36C321.687 282.939 321.607 283.466 321.449 283.942C321.29 284.409 321.066 284.81 320.777 285.146C320.487 285.473 320.133 285.725 319.713 285.902C319.302 286.079 318.845 286.168 318.341 286.168ZM318.341 284.908C318.863 284.908 319.283 284.749 319.601 284.432C319.918 284.105 320.077 283.62 320.077 282.976V281.744C320.077 281.1 319.918 280.619 319.601 280.302C319.283 279.975 318.863 279.812 318.341 279.812C317.818 279.812 317.398 279.975 317.081 280.302C316.763 280.619 316.605 281.1 316.605 281.744V282.976C316.605 283.62 316.763 284.105 317.081 284.432C317.398 284.749 317.818 284.908 318.341 284.908ZM325.697 286.168C325.006 286.168 324.428 286.047 323.961 285.804C323.494 285.561 323.088 285.225 322.743 284.796L323.723 283.9C323.994 284.227 324.292 284.483 324.619 284.67C324.955 284.847 325.342 284.936 325.781 284.936C326.229 284.936 326.56 284.852 326.775 284.684C326.999 284.507 327.111 284.264 327.111 283.956C327.111 283.723 327.032 283.527 326.873 283.368C326.724 283.2 326.458 283.093 326.075 283.046L325.403 282.962C324.656 282.869 324.068 282.654 323.639 282.318C323.219 281.973 323.009 281.464 323.009 280.792C323.009 280.437 323.074 280.125 323.205 279.854C323.336 279.574 323.518 279.341 323.751 279.154C323.994 278.958 324.278 278.809 324.605 278.706C324.941 278.603 325.31 278.552 325.711 278.552C326.364 278.552 326.896 278.655 327.307 278.86C327.727 279.065 328.1 279.35 328.427 279.714L327.489 280.61C327.302 280.386 327.055 280.195 326.747 280.036C326.448 279.868 326.103 279.784 325.711 279.784C325.291 279.784 324.978 279.868 324.773 280.036C324.577 280.204 324.479 280.423 324.479 280.694C324.479 280.974 324.568 281.184 324.745 281.324C324.922 281.464 325.207 281.567 325.599 281.632L326.271 281.716C327.074 281.837 327.657 282.075 328.021 282.43C328.394 282.775 328.581 283.242 328.581 283.83C328.581 284.185 328.511 284.507 328.371 284.796C328.24 285.076 328.049 285.319 327.797 285.524C327.545 285.729 327.242 285.888 326.887 286C326.532 286.112 326.136 286.168 325.697 286.168Z" fill="black"/>
<path d="M16 20C16 17.7909 17.7909 16 20 16H398C400.209 16 402 17.7909 402 20V131C402 133.209 400.209 135 398 135H20C17.7909 135 16 133.209 16 131V20Z" fill="#DCDCDC"/>
<path d="M16 20C16 17.7909 17.7909 16 20 16H398C400.209 16 402 17.7909 402 20V131C402 133.209 400.209 135 398 135H20C17.7909 135 16 133.209 16 131V20Z" fill="#DCDCDC"/>
<path d="M16 155C16 152.791 17.7909 151 20 151H197C199.209 151 201 152.791 201 155V227C201 229.209 199.209 231 197 231H20C17.7909 231 16 229.209 16 227V155Z" fill="#DCDCDC"/>
<path d="M16 155C16 152.791 17.7909 151 20 151H197C199.209 151 201 152.791 201 155V227C201 229.209 199.209 231 197 231H20C17.7909 231 16 229.209 16 227V155Z" fill="#DCDCDC"/>
<path d="M16 303C16 300.791 17.7909 299 20 299H130C132.209 299 134 300.791 134 303V307C134 309.209 132.209 311 130 311H20C17.7909 311 16 309.209 16 307V303Z" fill="#DCDCDC"/>
<path d="M150 303C150 300.791 151.791 299 154 299H264C266.209 299 268 300.791 268 303V307C268 309.209 266.209 311 264 311H154C151.791 311 150 309.209 150 307V303Z" fill="#DCDCDC"/>
<path d="M284 303C284 300.791 285.791 299 288 299H398C400.209 299 402 300.791 402 303V307C402 309.209 400.209 311 398 311H288C285.791 311 284 309.209 284 307V303Z" fill="#DCDCDC"/>
<path d="M16 323C16 320.791 17.7909 319 20 319H130C132.209 319 134 320.791 134 323V327C134 329.209 132.209 331 130 331H20C17.7909 331 16 329.209 16 327V323Z" fill="#DCDCDC"/>
<path d="M150 323C150 320.791 151.791 319 154 319H264C266.209 319 268 320.791 268 323V327C268 329.209 266.209 331 264 331H154C151.791 331 150 329.209 150 327V323Z" fill="#DCDCDC"/>
<path d="M284 323C284 320.791 285.791 319 288 319H398C400.209 319 402 320.791 402 323V327C402 329.209 400.209 331 398 331H288C285.791 331 284 329.209 284 327V323Z" fill="#DCDCDC"/>
<path d="M16 343C16 340.791 17.7909 339 20 339H130C132.209 339 134 340.791 134 343V347C134 349.209 132.209 351 130 351H20C17.7909 351 16 349.209 16 347V343Z" fill="#DCDCDC"/>
<path d="M150 343C150 340.791 151.791 339 154 339H264C266.209 339 268 340.791 268 343V347C268 349.209 266.209 351 264 351H154C151.791 351 150 349.209 150 347V343Z" fill="#DCDCDC"/>
<path d="M284 343C284 340.791 285.791 339 288 339H398C400.209 339 402 340.791 402 343V347C402 349.209 400.209 351 398 351H288C285.791 351 284 349.209 284 347V343Z" fill="#DCDCDC"/>
<path d="M217 155C217 152.791 218.791 151 221 151H398C400.209 151 402 152.791 402 155V227C402 229.209 400.209 231 398 231H221C218.791 231 217 229.209 217 227V155Z" fill="#DCDCDC"/>
</svg>
