<svg width="361" height="209" viewBox="0 0 361 209" fill="none" xmlns="http://www.w3.org/2000/svg">
<path d="M360 35H1V74H360V35Z" fill="#C8CADF" stroke="#474E95"/>
<path d="M15.876 59.988V55.236H20.292V53.1H15.876V48.348H13.524V53.1H9.108V55.236H13.524V59.988H15.876Z" fill="#474E95"/>
<path d="M360 80H1V119H360V80Z" fill="#C8CADF" stroke="#474E95"/>
<path d="M15.876 104.988V100.236H20.292V98.1H15.876V93.348H13.524V98.1H9.108V100.236H13.524V104.988H15.876Z" fill="#474E95"/>
<path d="M360 125H1V164H360V125Z" fill="#C8CADF" stroke="#474E95"/>
<path d="M15.876 149.988V145.236H20.292V143.1H15.876V138.348H13.524V143.1H9.108V145.236H13.524V149.988H15.876Z" fill="#474E95"/>
<path d="M360 169.5H1V208.5H360V169.5Z" fill="#C8CADF" stroke="#474E95"/>
<path d="M15.876 194.488V189.736H20.292V187.6H15.876V182.848H13.524V187.6H9.108V189.736H13.524V194.488H15.876Z" fill="#474E95"/>
<path d="M9.376 23.488V18.736H13.792V16.6H9.376V11.848H7.024V16.6H2.608V18.736H7.024V23.488H9.376Z" fill="#474E95"/>
<path d="M24.796 10.572C25.966 10.572 26.884 9.69 26.884 8.502C26.884 7.314 25.966 6.432 24.796 6.432C23.626 6.432 22.708 7.314 22.708 8.502C22.708 9.69 23.626 10.572 24.796 10.572ZM24.796 9.69C24.148 9.69 23.752 9.33 23.752 8.7V8.304C23.752 7.674 24.148 7.314 24.796 7.314C25.444 7.314 25.84 7.674 25.84 8.304V8.7C25.84 9.33 25.444 9.69 24.796 9.69ZM30.124 24L25.732 11.436H23.806L19.414 24H20.944L22.204 20.292H27.28L28.54 24H30.124ZM26.902 18.96H22.564L24.688 12.84H24.778L26.902 18.96ZM32.0613 24H33.5013V22.488H33.5733C34.1313 23.64 35.0133 24.216 36.2913 24.216C38.6133 24.216 40.0713 22.326 40.0713 19.356C40.0713 16.386 38.6133 14.496 36.2913 14.496C35.0133 14.496 34.0593 15.054 33.5733 16.224H33.5013V10.68H32.0613V24ZM35.8953 22.92C34.5813 22.92 33.5013 22.236 33.5013 21.03V17.574C33.5013 16.548 34.5813 15.792 35.8953 15.792C37.5153 15.792 38.5233 16.908 38.5233 18.564V20.148C38.5233 21.804 37.5153 22.92 35.8953 22.92ZM43.9427 24V17.556C43.9427 16.368 45.0587 15.792 46.2107 15.792C47.5967 15.792 48.3167 16.638 48.3167 18.294V24H49.7567V18.042C49.7567 15.792 48.5507 14.496 46.6427 14.496C45.2567 14.496 44.4647 15.18 44.0147 16.224H43.9427V14.712H42.5027V24H43.9427ZM64.547 24V22.74H63.485V17.628C63.485 15.666 62.153 14.496 59.921 14.496C58.247 14.496 57.131 15.324 56.627 16.314L57.491 17.124C57.995 16.278 58.733 15.738 59.849 15.738C61.325 15.738 62.045 16.458 62.045 17.772V18.69H60.209C57.509 18.69 56.249 19.662 56.249 21.408C56.249 23.136 57.401 24.216 59.363 24.216C60.659 24.216 61.649 23.622 62.045 22.488H62.135C62.243 23.352 62.675 24 63.737 24H64.547ZM59.597 22.992C58.481 22.992 57.761 22.47 57.761 21.552V21.174C57.761 20.274 58.499 19.77 60.137 19.77H62.045V21.3C62.045 22.254 61.019 22.992 59.597 22.992ZM69.4103 24V22.74H68.0423V10.68H66.6023V22.506C66.6023 23.37 67.1423 24 68.1323 24H69.4103ZM74.2267 24V22.74H72.8587V10.68H71.4187V22.506C71.4187 23.37 71.9587 24 72.9487 24H74.2267ZM79.815 24.216C81.561 24.216 82.893 23.352 83.487 22.092L82.461 21.354C81.975 22.38 81.075 22.956 79.905 22.956C78.177 22.956 77.151 21.75 77.151 20.148V19.716H83.829V19.032C83.829 16.404 82.299 14.496 79.815 14.496C77.295 14.496 75.639 16.404 75.639 19.356C75.639 22.308 77.295 24.216 79.815 24.216ZM79.815 15.702C81.291 15.702 82.281 16.8 82.281 18.438V18.636H77.151V18.51C77.151 16.89 78.249 15.702 79.815 15.702Z" fill="#474E95"/>
</svg>
