<svg width="361" height="247" viewBox="0 0 361 247" fill="none" xmlns="http://www.w3.org/2000/svg">
<path d="M360 1H1V40H360V1Z" fill="#C8CADF" stroke="#474E95"/>
<path d="M15.876 25.988V21.236H20.292V19.1H15.876V14.348H13.524V19.1H9.108V21.236H13.524V25.988H15.876Z" fill="#474E95"/>
<path d="M360 163H1V202H360V163Z" fill="#C8CADF" stroke="#474E95"/>
<path d="M15.876 187.988V183.236H20.292V181.1H15.876V176.348H13.524V181.1H9.108V183.236H13.524V187.988H15.876Z" fill="#474E95"/>
<path d="M360 45H1V158H360V45Z" fill="#C8CADF" stroke="#474E95"/>
<path d="M21.2 60V58H10V60H21.2Z" fill="#474E95"/>
<path d="M360 207.5H1V246.5H360V207.5Z" fill="#C8CADF" stroke="#474E95"/>
<path d="M15.876 232.488V227.736H20.292V225.6H15.876V220.848H13.524V225.6H9.108V227.736H13.524V232.488H15.876Z" fill="#474E95"/>
</svg>
