<svg width="361" height="247" viewBox="0 0 361 247" fill="none" xmlns="http://www.w3.org/2000/svg">
<path d="M360 1H1V40H360V1Z" fill="#C8CADF" stroke="#474E95"/>
<path d="M360 163H1V202H360V163Z" fill="#C8CADF" stroke="#474E95"/>
<path d="M360 45H1V158H360V45Z" fill="#C8CADF" stroke="#474E95"/>
<path d="M360 207.5H1V246.5H360V207.5Z" fill="#C8CADF" stroke="#474E95"/>
<path d="M336 19.5135L337.633 18L343 22.973L348.367 18L350 19.5135L343 26L336 19.5135Z" fill="#474E95"/>
<path d="M350 66.4865L348.367 68L343 63.027L337.633 68L336 66.4865L343 60L350 66.4865Z" fill="#474E95"/>
<path d="M336 181.514L337.633 180L343 184.973L348.367 180L350 181.514L343 188L336 181.514Z" fill="#474E95"/>
<path d="M336 224.514L337.633 223L343 227.973L348.367 223L350 224.514L343 231L336 224.514Z" fill="#474E95"/>
</svg>
