<svg width="360" height="360" viewBox="0 0 360 360" fill="none" xmlns="http://www.w3.org/2000/svg">
<path d="M350 243H10V279H350V243Z" fill="#DCDCDC" stroke="#707070"/>
<path d="M130 220H10V238H130V220Z" fill="#BFBFBF" stroke="#707070"/>
<path d="M240 157H10V193H240V157Z" fill="#DCDCDC" stroke="#707070"/>
<path d="M130 134H10V152H130V134Z" fill="#BFBFBF" stroke="#707070"/>
<path d="M330 84H10V104H330V84Z" fill="#BFBFBF" stroke="#707070"/>
<path d="M330 19H10V54H330V19Z" fill="#C8CADF" stroke="#474E95"/>
<path d="M15 19H10V54H15V19Z" fill="#474E95"/>
<path d="M95 303H10V338H95V303Z" fill="#707070"/>
<path d="M38.784 328.192C37.824 328.192 37.008 328.021 36.336 327.68C35.6747 327.339 35.104 326.891 34.624 326.336L36.048 324.96C36.432 325.408 36.8587 325.749 37.328 325.984C37.808 326.219 38.336 326.336 38.912 326.336C39.5627 326.336 40.0533 326.197 40.384 325.92C40.7147 325.632 40.88 325.248 40.88 324.768C40.88 324.395 40.7733 324.091 40.56 323.856C40.3467 323.621 39.9467 323.451 39.36 323.344L38.304 323.184C36.0747 322.832 34.96 321.749 34.96 319.936C34.96 319.435 35.0507 318.981 35.232 318.576C35.424 318.171 35.696 317.824 36.048 317.536C36.4 317.248 36.8213 317.029 37.312 316.88C37.8133 316.72 38.3787 316.64 39.008 316.64C39.8507 316.64 40.5867 316.779 41.216 317.056C41.8453 317.333 42.384 317.744 42.832 318.288L41.392 319.648C41.1147 319.307 40.7787 319.029 40.384 318.816C39.9893 318.603 39.4933 318.496 38.896 318.496C38.288 318.496 37.8293 318.613 37.52 318.848C37.2213 319.072 37.072 319.392 37.072 319.808C37.072 320.235 37.1947 320.549 37.44 320.752C37.6853 320.955 38.08 321.104 38.624 321.2L39.664 321.392C40.7947 321.595 41.6267 321.957 42.16 322.48C42.704 322.992 42.976 323.712 42.976 324.64C42.976 325.173 42.88 325.659 42.688 326.096C42.5067 326.523 42.2347 326.896 41.872 327.216C41.52 327.525 41.0827 327.765 40.56 327.936C40.048 328.107 39.456 328.192 38.784 328.192ZM48.3413 328.192C47.7226 328.192 47.1679 328.091 46.6773 327.888C46.1973 327.675 45.7866 327.381 45.4453 327.008C45.1146 326.624 44.8586 326.165 44.6773 325.632C44.4959 325.088 44.4053 324.48 44.4053 323.808C44.4053 323.147 44.4906 322.549 44.6613 322.016C44.8426 321.483 45.0986 321.029 45.4293 320.656C45.7599 320.272 46.1653 319.979 46.6453 319.776C47.1253 319.563 47.6693 319.456 48.2773 319.456C48.9279 319.456 49.4933 319.568 49.9733 319.792C50.4533 320.016 50.8479 320.32 51.1573 320.704C51.4666 321.088 51.6959 321.536 51.8453 322.048C52.0053 322.549 52.0853 323.088 52.0853 323.664V324.336H46.5333V324.544C46.5333 325.152 46.7039 325.643 47.0453 326.016C47.3866 326.379 47.8933 326.56 48.5653 326.56C49.0773 326.56 49.4933 326.453 49.8133 326.24C50.1439 326.027 50.4373 325.755 50.6933 325.424L51.7973 326.656C51.4559 327.136 50.9866 327.515 50.3893 327.792C49.8026 328.059 49.1199 328.192 48.3413 328.192ZM48.3093 320.992C47.7653 320.992 47.3333 321.173 47.0133 321.536C46.6933 321.899 46.5333 322.368 46.5333 322.944V323.072H49.9573V322.928C49.9573 322.352 49.8133 321.888 49.5253 321.536C49.2479 321.173 48.8426 320.992 48.3093 320.992ZM53.8871 328V319.648H55.9351V321.04H56.0151C56.1858 320.592 56.4525 320.219 56.8151 319.92C57.1885 319.611 57.7005 319.456 58.3511 319.456C59.2151 319.456 59.8765 319.739 60.3351 320.304C60.7938 320.869 61.0231 321.675 61.0231 322.72V328H58.9751V322.928C58.9751 322.331 58.8685 321.883 58.6551 321.584C58.4418 321.285 58.0898 321.136 57.5991 321.136C57.3858 321.136 57.1778 321.168 56.9751 321.232C56.7831 321.285 56.6071 321.371 56.4471 321.488C56.2978 321.595 56.1751 321.733 56.0791 321.904C55.9831 322.064 55.9351 322.256 55.9351 322.48V328H53.8871ZM68.4774 326.608H68.3974C68.248 327.088 67.9654 327.472 67.5494 327.76C67.1334 328.048 66.648 328.192 66.0934 328.192C65.0374 328.192 64.2267 327.813 63.6614 327.056C63.1067 326.299 62.8294 325.216 62.8294 323.808C62.8294 322.411 63.1067 321.339 63.6614 320.592C64.2267 319.835 65.0374 319.456 66.0934 319.456C66.648 319.456 67.1334 319.6 67.5494 319.888C67.9654 320.165 68.248 320.544 68.3974 321.024H68.4774V316.16H70.5254V328H68.4774V326.608ZM66.7494 326.496C67.24 326.496 67.6507 326.379 67.9814 326.144C68.312 325.909 68.4774 325.573 68.4774 325.136V322.48C68.4774 322.075 68.312 321.749 67.9814 321.504C67.6507 321.259 67.24 321.136 66.7494 321.136C66.216 321.136 65.784 321.317 65.4534 321.68C65.1334 322.032 64.9734 322.507 64.9734 323.104V324.544C64.9734 325.141 65.1334 325.616 65.4534 325.968C65.784 326.32 66.216 326.496 66.7494 326.496Z" fill="#F5F5F5"/>
</svg>
