<svg width="360" height="360" viewBox="0 0 360 360" fill="none" xmlns="http://www.w3.org/2000/svg">
<path d="M97.5586 331.248H1.56494V359H97.5586V331.248Z" fill="#747474"/>
<path d="M33.4529 351.77C32.4929 351.77 31.6769 351.599 31.0049 351.258C30.3436 350.917 29.7729 350.469 29.2929 349.914L30.7169 348.538C31.1009 348.986 31.5276 349.327 31.9969 349.562C32.4769 349.797 33.0049 349.914 33.5809 349.914C34.2316 349.914 34.7223 349.775 35.0529 349.498C35.3836 349.21 35.5489 348.826 35.5489 348.346C35.5489 347.973 35.4423 347.669 35.2289 347.434C35.0156 347.199 34.6156 347.029 34.0289 346.922L32.9729 346.762C30.7436 346.41 29.6289 345.327 29.6289 343.514C29.6289 343.013 29.7196 342.559 29.9009 342.154C30.0929 341.749 30.3649 341.402 30.7169 341.114C31.0689 340.826 31.4903 340.607 31.9809 340.458C32.4823 340.298 33.0476 340.218 33.6769 340.218C34.5196 340.218 35.2556 340.357 35.8849 340.634C36.5143 340.911 37.0529 341.322 37.5009 341.866L36.0609 343.226C35.7836 342.885 35.4476 342.607 35.0529 342.394C34.6583 342.181 34.1623 342.074 33.5649 342.074C32.9569 342.074 32.4983 342.191 32.1889 342.426C31.8903 342.65 31.7409 342.97 31.7409 343.386C31.7409 343.813 31.8636 344.127 32.1089 344.33C32.3543 344.533 32.7489 344.682 33.2929 344.778L34.3329 344.97C35.4636 345.173 36.2956 345.535 36.8289 346.058C37.3729 346.57 37.6449 347.29 37.6449 348.218C37.6449 348.751 37.5489 349.237 37.3569 349.674C37.1756 350.101 36.9036 350.474 36.5409 350.794C36.1889 351.103 35.7516 351.343 35.2289 351.514C34.7169 351.685 34.1249 351.77 33.4529 351.77ZM43.0102 351.77C42.3915 351.77 41.8369 351.669 41.3462 351.466C40.8662 351.253 40.4555 350.959 40.1142 350.586C39.7835 350.202 39.5275 349.743 39.3462 349.21C39.1649 348.666 39.0742 348.058 39.0742 347.386C39.0742 346.725 39.1595 346.127 39.3302 345.594C39.5115 345.061 39.7675 344.607 40.0982 344.234C40.4289 343.85 40.8342 343.557 41.3142 343.354C41.7942 343.141 42.3382 343.034 42.9462 343.034C43.5969 343.034 44.1622 343.146 44.6422 343.37C45.1222 343.594 45.5169 343.898 45.8262 344.282C46.1355 344.666 46.3649 345.114 46.5142 345.626C46.6742 346.127 46.7542 346.666 46.7542 347.242V347.914H41.2022V348.122C41.2022 348.73 41.3729 349.221 41.7142 349.594C42.0555 349.957 42.5622 350.138 43.2342 350.138C43.7462 350.138 44.1622 350.031 44.4822 349.818C44.8129 349.605 45.1062 349.333 45.3622 349.002L46.4662 350.234C46.1249 350.714 45.6555 351.093 45.0582 351.37C44.4715 351.637 43.7889 351.77 43.0102 351.77ZM42.9782 344.57C42.4342 344.57 42.0022 344.751 41.6822 345.114C41.3622 345.477 41.2022 345.946 41.2022 346.522V346.65H44.6262V346.506C44.6262 345.93 44.4822 345.466 44.1942 345.114C43.9169 344.751 43.5115 344.57 42.9782 344.57ZM48.5561 351.578V343.226H50.6041V344.618H50.6841C50.8547 344.17 51.1214 343.797 51.4841 343.498C51.8574 343.189 52.3694 343.034 53.0201 343.034C53.8841 343.034 54.5454 343.317 55.0041 343.882C55.4627 344.447 55.6921 345.253 55.6921 346.298V351.578H53.6441V346.506C53.6441 345.909 53.5374 345.461 53.3241 345.162C53.1107 344.863 52.7587 344.714 52.2681 344.714C52.0547 344.714 51.8467 344.746 51.6441 344.81C51.4521 344.863 51.2761 344.949 51.1161 345.066C50.9667 345.173 50.8441 345.311 50.7481 345.482C50.6521 345.642 50.6041 345.834 50.6041 346.058V351.578H48.5561ZM63.1463 350.186H63.0663C62.917 350.666 62.6343 351.05 62.2183 351.338C61.8023 351.626 61.317 351.77 60.7623 351.77C59.7063 351.77 58.8957 351.391 58.3303 350.634C57.7757 349.877 57.4983 348.794 57.4983 347.386C57.4983 345.989 57.7757 344.917 58.3303 344.17C58.8957 343.413 59.7063 343.034 60.7623 343.034C61.317 343.034 61.8023 343.178 62.2183 343.466C62.6343 343.743 62.917 344.122 63.0663 344.602H63.1463V339.738H65.1943V351.578H63.1463V350.186ZM61.4183 350.074C61.909 350.074 62.3197 349.957 62.6503 349.722C62.981 349.487 63.1463 349.151 63.1463 348.714V346.058C63.1463 345.653 62.981 345.327 62.6503 345.082C62.3197 344.837 61.909 344.714 61.4183 344.714C60.885 344.714 60.453 344.895 60.1223 345.258C59.8023 345.61 59.6423 346.085 59.6423 346.682V348.122C59.6423 348.719 59.8023 349.194 60.1223 349.546C60.453 349.898 60.885 350.074 61.4183 350.074Z" fill="white"/>
<path d="M359 39.853H1V136.43H359V39.853Z" fill="#C8CADF" stroke="#6066A3"/>
<path d="M359 146.42H1V320.702H359V146.42Z" fill="#C8CADF" stroke="#474E95"/>
<path d="M343.189 80.9258H13.4224V121.999H343.189V80.9258Z" fill="#9195BF" stroke="#474E95"/>
<path d="M343.189 187.493H13.4224V228.566H343.189V187.493Z" fill="#9195BF" stroke="#474E95"/>
<path d="M343.189 264.088H13.4224V305.161H343.189V264.088Z" fill="#9195BF" stroke="#474E95"/>
<path d="M149.083 55.394H13.4224V76.4855H149.083V55.394Z" fill="#9195BF" stroke="#474E95"/>
<path d="M149.083 161.961H13.4224V183.053H149.083V161.961Z" fill="#9195BF" stroke="#474E95"/>
<path d="M149.083 238.557H13.4224V259.648H149.083V238.557Z" fill="#9195BF" stroke="#474E95"/>
<path d="M359 1H1V29.862H359V1Z" fill="#BFBFBF" stroke="#747474"/>
</svg>
