<?xml version="1.0" encoding="utf-8"?>
<!-- Generator: Adobe Illustrator 25.0.1, SVG Export Plug-In . SVG Version: 6.00 Build 0)  -->
<svg version="1.1" id="Layer_1" xmlns="http://www.w3.org/2000/svg" xmlns:xlink="http://www.w3.org/1999/xlink" x="0px" y="0px"
	 viewBox="0 0 342 342" style="enable-background:new 0 0 342 342;" xml:space="preserve">
<style type="text/css">
	.st0{fill:#C8CADF;stroke:#474E95;}
	.st1{fill:#474E95;}
</style>
<path class="st0" d="M341.5,164H0.5v41h341V164z"/>
<path class="st0" d="M341.5,80H0.5v41h341V80z"/>
<path class="st1" d="M12.5,143.9L12.5,143.9l-1.2,2.1l-3,5.5l-3-5.5l-1.1-2.1H4.2v10.6H2.7v-12.6h2l3.6,6.8h0.1l3.6-6.8h1.9v12.6
	h-1.5V143.9z M20.6,154.7c-0.6,0-1.2-0.1-1.7-0.3c-0.5-0.2-1-0.6-1.3-1c-0.4-0.4-0.6-0.9-0.8-1.5c-0.2-0.6-0.3-1.3-0.3-2
	c0-0.7,0.1-1.4,0.3-2c0.2-0.6,0.5-1.1,0.8-1.5c0.4-0.4,0.8-0.8,1.3-1c0.5-0.2,1.1-0.3,1.7-0.3s1.2,0.1,1.7,0.3c0.5,0.2,1,0.6,1.3,1
	c0.4,0.4,0.7,0.9,0.9,1.5c0.2,0.6,0.3,1.3,0.3,2c0,0.7-0.1,1.4-0.3,2c-0.2,0.6-0.5,1.1-0.9,1.5c-0.4,0.4-0.8,0.7-1.3,1
	C21.8,154.6,21.3,154.7,20.6,154.7z M20.6,153.4c0.8,0,1.4-0.2,1.9-0.7c0.5-0.5,0.7-1.2,0.7-2.2v-1.3c0-1-0.2-1.7-0.7-2.2
	c-0.5-0.5-1.1-0.7-1.9-0.7s-1.4,0.2-1.9,0.7c-0.5,0.5-0.7,1.2-0.7,2.2v1.3c0,1,0.2,1.7,0.7,2.2C19.2,153.2,19.9,153.4,20.6,153.4z
	 M27.2,141.2h1.4v5.5h0.1c0.2-0.6,0.6-1,1-1.3c0.5-0.3,1-0.4,1.7-0.4c0.6,0,1.1,0.1,1.6,0.3c0.5,0.2,0.9,0.6,1.2,1
	c0.3,0.4,0.6,0.9,0.8,1.5c0.2,0.6,0.3,1.3,0.3,2c0,0.7-0.1,1.4-0.3,2c-0.2,0.6-0.4,1.1-0.8,1.5c-0.3,0.4-0.7,0.7-1.2,1
	c-0.5,0.2-1,0.3-1.6,0.3c-1.3,0-2.2-0.6-2.7-1.7h-0.1v1.5h-1.4V141.2z M31,153.4c0.8,0,1.5-0.3,1.9-0.8c0.5-0.5,0.7-1.2,0.7-2v-1.6
	c0-0.8-0.2-1.5-0.7-2c-0.5-0.5-1.1-0.8-1.9-0.8c-0.3,0-0.6,0-0.9,0.1c-0.3,0.1-0.5,0.2-0.8,0.4c-0.2,0.2-0.4,0.3-0.5,0.6
	c-0.1,0.2-0.2,0.4-0.2,0.7v3.5c0,0.3,0.1,0.6,0.2,0.8c0.1,0.2,0.3,0.4,0.5,0.6c0.2,0.2,0.5,0.3,0.8,0.4
	C30.4,153.4,30.7,153.4,31,153.4z M38.4,143c-0.3,0-0.5-0.1-0.7-0.2c-0.1-0.2-0.2-0.4-0.2-0.6V142c0-0.2,0.1-0.4,0.2-0.6
	c0.1-0.2,0.4-0.2,0.7-0.2s0.5,0.1,0.7,0.2c0.1,0.1,0.2,0.3,0.2,0.6v0.2c0,0.2-0.1,0.4-0.2,0.6C38.9,143,38.7,143,38.4,143z
	 M37.7,145.2h1.4v9.3h-1.4V145.2z M43.7,154.5c-0.5,0-0.9-0.1-1.2-0.4c-0.3-0.3-0.4-0.6-0.4-1.1v-11.8h1.4v12.1H45v1.3H43.7z"/>
<path class="st1" d="M2.7,238.5v-12.6h7.7v1.3H4.2v4.2H10v1.3H4.2v4.4h6.2v1.3H2.7z M12.7,233.8v-1.5h4.7v1.5H12.7z M20.2,238.5
	v-9.3h1.4v1.5h0.1c0.1-0.2,0.2-0.5,0.4-0.7c0.1-0.2,0.3-0.4,0.5-0.6c0.2-0.2,0.4-0.3,0.7-0.4c0.3-0.1,0.6-0.1,0.9-0.1
	c0.6,0,1.2,0.1,1.7,0.4c0.5,0.3,0.9,0.8,1.2,1.4h0c0.2-0.5,0.5-0.9,0.9-1.3c0.5-0.4,1.1-0.6,1.9-0.6c0.9,0,1.7,0.3,2.2,0.9
	c0.5,0.6,0.8,1.5,0.8,2.6v6h-1.4v-5.7c0-0.8-0.2-1.5-0.5-1.9c-0.3-0.4-0.8-0.6-1.5-0.6c-0.3,0-0.6,0-0.8,0.1
	c-0.3,0.1-0.5,0.2-0.7,0.3s-0.4,0.3-0.5,0.6c-0.1,0.2-0.2,0.5-0.2,0.8v6.4h-1.4v-5.7c0-0.8-0.2-1.5-0.5-1.9
	c-0.3-0.4-0.8-0.6-1.5-0.6c-0.3,0-0.6,0-0.8,0.1c-0.3,0.1-0.5,0.2-0.7,0.3c-0.2,0.1-0.4,0.3-0.5,0.6c-0.1,0.2-0.2,0.5-0.2,0.8v6.4
	H20.2z M42.7,238.5c-0.5,0-0.9-0.1-1.2-0.4c-0.2-0.3-0.4-0.6-0.4-1.1H41c-0.2,0.6-0.5,1-1,1.3c-0.5,0.3-1,0.4-1.7,0.4
	c-1,0-1.8-0.3-2.3-0.8c-0.5-0.5-0.8-1.2-0.8-2.1c0-0.9,0.3-1.5,1-2c0.6-0.5,1.6-0.7,3-0.7H41v-0.9c0-0.7-0.2-1.2-0.5-1.5
	c-0.4-0.3-0.9-0.5-1.7-0.5c-0.6,0-1,0.1-1.4,0.4c-0.4,0.3-0.7,0.6-0.9,1l-0.9-0.8c0.3-0.5,0.7-0.9,1.2-1.3c0.6-0.4,1.2-0.5,2.1-0.5
	c1.1,0,2,0.3,2.6,0.8c0.6,0.6,0.9,1.3,0.9,2.3v5.1h1.1v1.3H42.7z M38.5,237.5c0.4,0,0.7,0,1-0.1s0.6-0.2,0.8-0.4
	c0.2-0.2,0.4-0.3,0.5-0.5c0.1-0.2,0.2-0.4,0.2-0.7v-1.5h-1.9c-0.8,0-1.4,0.1-1.8,0.4c-0.4,0.2-0.6,0.6-0.6,1v0.4
	c0,0.5,0.2,0.8,0.5,1.1C37.5,237.4,38,237.5,38.5,237.5z M46.3,227c-0.3,0-0.5-0.1-0.7-0.2c-0.1-0.2-0.2-0.4-0.2-0.6V226
	c0-0.2,0.1-0.4,0.2-0.6c0.1-0.2,0.4-0.2,0.7-0.2s0.5,0.1,0.7,0.2c0.1,0.1,0.2,0.3,0.2,0.6v0.2c0,0.2-0.1,0.4-0.2,0.6
	C46.8,227,46.6,227,46.3,227z M45.5,229.2H47v9.3h-1.4V229.2z M51.6,238.5c-0.5,0-0.9-0.1-1.2-0.4c-0.3-0.3-0.4-0.6-0.4-1.1v-11.8
	h1.4v12.1h1.4v1.3H51.6z M61.7,238.5c-0.5,0-0.9-0.1-1.2-0.4c-0.2-0.3-0.4-0.6-0.4-1.1H60c-0.2,0.6-0.5,1-1,1.3
	c-0.5,0.3-1,0.4-1.7,0.4c-1,0-1.8-0.3-2.3-0.8c-0.5-0.5-0.8-1.2-0.8-2.1c0-0.9,0.3-1.5,1-2c0.6-0.5,1.6-0.7,3-0.7H60v-0.9
	c0-0.7-0.2-1.2-0.5-1.5c-0.4-0.3-0.9-0.5-1.7-0.5c-0.6,0-1,0.1-1.4,0.4c-0.4,0.3-0.7,0.6-0.9,1l-0.9-0.8c0.3-0.5,0.7-0.9,1.2-1.3
	c0.6-0.4,1.2-0.5,2.1-0.5c1.1,0,2,0.3,2.6,0.8c0.6,0.6,0.9,1.3,0.9,2.3v5.1h1.1v1.3H61.7z M57.6,237.5c0.4,0,0.7,0,1-0.1
	s0.6-0.2,0.8-0.4c0.2-0.2,0.4-0.3,0.5-0.5c0.1-0.2,0.2-0.4,0.2-0.7v-1.5h-1.9c-0.8,0-1.4,0.1-1.8,0.4c-0.4,0.2-0.6,0.6-0.6,1v0.4
	c0,0.5,0.2,0.8,0.5,1.1C56.5,237.4,57,237.5,57.6,237.5z M70.5,237L70.5,237c-0.6,1.2-1.5,1.7-2.8,1.7c-0.6,0-1.1-0.1-1.6-0.3
	c-0.5-0.2-0.9-0.6-1.2-1c-0.3-0.4-0.6-0.9-0.8-1.5c-0.2-0.6-0.3-1.3-0.3-2s0.1-1.4,0.3-2c0.2-0.6,0.4-1.1,0.8-1.5
	c0.3-0.4,0.7-0.7,1.2-1c0.5-0.2,1-0.3,1.6-0.3c0.6,0,1.2,0.1,1.7,0.4c0.5,0.3,0.8,0.7,1.1,1.3h0.1v-5.5h1.4v13.3h-1.4V237z
	 M68.1,237.4c0.3,0,0.6,0,0.9-0.1c0.3-0.1,0.6-0.2,0.8-0.4c0.2-0.2,0.4-0.4,0.5-0.6c0.1-0.2,0.2-0.5,0.2-0.8v-3.5
	c0-0.3-0.1-0.5-0.2-0.7c-0.1-0.2-0.3-0.4-0.5-0.6c-0.2-0.2-0.5-0.3-0.8-0.4c-0.3-0.1-0.6-0.1-0.9-0.1c-0.8,0-1.5,0.3-1.9,0.8
	c-0.5,0.5-0.7,1.2-0.7,2v1.6c0,0.8,0.2,1.5,0.7,2C66.7,237.2,67.3,237.4,68.1,237.4z M75,238.5v-9.3h1.4v1.7h0.1
	c0.2-0.4,0.5-0.8,0.9-1.2c0.4-0.3,1-0.5,1.8-0.5h0.6v1.4h-0.8c-0.8,0-1.4,0.2-1.8,0.5c-0.4,0.3-0.6,0.7-0.6,1.1v6.3H75z M85,238.7
	c-0.6,0-1.2-0.1-1.7-0.3c-0.5-0.2-0.9-0.6-1.3-1c-0.4-0.4-0.6-0.9-0.8-1.5c-0.2-0.6-0.3-1.3-0.3-2c0-0.7,0.1-1.4,0.3-2
	c0.2-0.6,0.5-1.1,0.8-1.5c0.4-0.4,0.8-0.8,1.3-1c0.5-0.2,1.1-0.3,1.7-0.3c0.6,0,1.2,0.1,1.7,0.3s0.9,0.5,1.3,1
	c0.3,0.4,0.6,0.9,0.8,1.4c0.2,0.6,0.3,1.2,0.3,1.8v0.7h-6.7v0.4c0,0.4,0.1,0.8,0.2,1.1c0.1,0.3,0.3,0.6,0.5,0.9
	c0.2,0.3,0.5,0.4,0.9,0.6c0.3,0.1,0.7,0.2,1.2,0.2c0.6,0,1.1-0.1,1.5-0.4c0.4-0.3,0.8-0.7,1-1.2l1,0.7c-0.3,0.6-0.8,1.2-1.4,1.5
	C86.7,238.5,85.9,238.7,85,238.7z M85,230.2c-0.4,0-0.8,0.1-1.1,0.2c-0.3,0.1-0.6,0.3-0.8,0.6c-0.2,0.3-0.4,0.6-0.5,0.9
	c-0.1,0.3-0.2,0.7-0.2,1.1v0.1h5.1v-0.2c0-0.8-0.2-1.5-0.7-2C86.4,230.5,85.8,230.2,85,230.2z M94.2,238.7c-0.9,0-1.6-0.2-2.2-0.5
	c-0.6-0.3-1.1-0.8-1.5-1.3l1-0.8c0.4,0.5,0.8,0.8,1.2,1.1c0.4,0.2,1,0.4,1.5,0.4c0.6,0,1.1-0.1,1.4-0.4c0.3-0.3,0.5-0.6,0.5-1.1
	c0-0.4-0.1-0.7-0.4-0.9c-0.2-0.3-0.6-0.4-1.3-0.5l-0.7-0.1c-0.4-0.1-0.8-0.1-1.2-0.3c-0.4-0.1-0.7-0.3-1-0.5
	c-0.3-0.2-0.5-0.5-0.6-0.8c-0.1-0.3-0.2-0.7-0.2-1.1c0-0.5,0.1-0.9,0.3-1.2c0.2-0.3,0.4-0.6,0.7-0.9c0.3-0.2,0.7-0.4,1.1-0.5
	c0.4-0.1,0.8-0.2,1.3-0.2c0.8,0,1.4,0.1,1.9,0.4c0.5,0.3,1,0.6,1.4,1.1l-1,0.9c-0.2-0.3-0.5-0.5-0.9-0.8c-0.4-0.2-0.9-0.4-1.5-0.4
	c-0.6,0-1.1,0.1-1.4,0.4c-0.3,0.3-0.4,0.6-0.4,1c0,0.5,0.1,0.8,0.4,1c0.3,0.2,0.8,0.4,1.3,0.5l0.7,0.1c1,0.2,1.8,0.5,2.2,0.9
	c0.4,0.4,0.6,1,0.6,1.7c0,0.9-0.3,1.6-0.9,2.1C96.1,238.5,95.3,238.7,94.2,238.7z M102.9,238.7c-0.9,0-1.6-0.2-2.2-0.5
	c-0.6-0.3-1.1-0.8-1.5-1.3l1-0.8c0.4,0.5,0.8,0.8,1.2,1.1c0.4,0.2,1,0.4,1.5,0.4c0.6,0,1.1-0.1,1.4-0.4c0.3-0.3,0.5-0.6,0.5-1.1
	c0-0.4-0.1-0.7-0.4-0.9c-0.2-0.3-0.6-0.4-1.3-0.5l-0.7-0.1c-0.4-0.1-0.8-0.1-1.2-0.3c-0.4-0.1-0.7-0.3-1-0.5
	c-0.3-0.2-0.5-0.5-0.6-0.8c-0.1-0.3-0.2-0.7-0.2-1.1c0-0.5,0.1-0.9,0.3-1.2c0.2-0.3,0.4-0.6,0.7-0.9c0.3-0.2,0.7-0.4,1.1-0.5
	c0.4-0.1,0.8-0.2,1.3-0.2c0.8,0,1.4,0.1,1.9,0.4c0.5,0.3,1,0.6,1.4,1.1l-1,0.9c-0.2-0.3-0.5-0.5-0.9-0.8c-0.4-0.2-0.9-0.4-1.5-0.4
	c-0.6,0-1.1,0.1-1.4,0.4c-0.3,0.3-0.4,0.6-0.4,1c0,0.5,0.1,0.8,0.4,1c0.3,0.2,0.8,0.4,1.3,0.5l0.7,0.1c1,0.2,1.8,0.5,2.2,0.9
	c0.4,0.4,0.6,1,0.6,1.7c0,0.9-0.3,1.6-0.9,2.1C104.8,238.5,103.9,238.7,102.9,238.7z M112.3,238.7c-0.6,0-1.2-0.1-1.7-0.3
	c-0.5-0.2-0.9-0.6-1.3-1c-0.4-0.4-0.6-0.9-0.8-1.5c-0.2-0.6-0.3-1.3-0.3-2c0-0.7,0.1-1.4,0.3-2c0.2-0.6,0.5-1.1,0.8-1.5
	c0.4-0.4,0.8-0.8,1.3-1c0.5-0.2,1.1-0.3,1.7-0.3c0.6,0,1.2,0.1,1.7,0.3c0.5,0.2,0.9,0.5,1.3,1c0.3,0.4,0.6,0.9,0.8,1.4
	c0.2,0.6,0.3,1.2,0.3,1.8v0.7h-6.7v0.4c0,0.4,0.1,0.8,0.2,1.1c0.1,0.3,0.3,0.6,0.5,0.9c0.2,0.3,0.5,0.4,0.9,0.6
	c0.3,0.1,0.7,0.2,1.2,0.2c0.6,0,1.1-0.1,1.5-0.4c0.4-0.3,0.8-0.7,1-1.2l1,0.7c-0.3,0.6-0.8,1.2-1.4,1.5
	C114,238.5,113.2,238.7,112.3,238.7z M112.3,230.2c-0.4,0-0.8,0.1-1.1,0.2c-0.3,0.1-0.6,0.3-0.8,0.6c-0.2,0.3-0.4,0.6-0.5,0.9
	c-0.1,0.3-0.2,0.7-0.2,1.1v0.1h5.1v-0.2c0-0.8-0.2-1.5-0.7-2C113.7,230.5,113.1,230.2,112.3,230.2z"/>
<path class="st0" d="M161.5,248H0.5v41h161V248z"/>
<path class="st1" d="M2.7,70.5V57.9h7.5v1.3h-6v4.2h5.5v1.3H4.2v5.7H2.7z M18.6,70.5c-0.5,0-0.9-0.1-1.2-0.4
	c-0.2-0.3-0.4-0.6-0.4-1.1h-0.1c-0.2,0.6-0.5,1-1,1.3c-0.5,0.3-1,0.4-1.7,0.4c-1,0-1.8-0.3-2.3-0.8c-0.5-0.5-0.8-1.2-0.8-2.1
	c0-0.9,0.3-1.5,1-2c0.6-0.5,1.6-0.7,3-0.7h1.8v-0.9c0-0.7-0.2-1.2-0.5-1.5c-0.4-0.3-0.9-0.5-1.7-0.5c-0.6,0-1,0.1-1.4,0.4
	c-0.4,0.3-0.7,0.6-0.9,1l-0.9-0.8c0.3-0.5,0.7-0.9,1.2-1.3c0.6-0.4,1.2-0.5,2.1-0.5c1.1,0,2,0.3,2.6,0.8c0.6,0.6,0.9,1.3,0.9,2.3
	v5.1h1.1v1.3H18.6z M14.5,69.5c0.4,0,0.7,0,1-0.1c0.3-0.1,0.6-0.2,0.8-0.4c0.2-0.2,0.4-0.3,0.5-0.5c0.1-0.2,0.2-0.4,0.2-0.7v-1.5H15
	c-0.8,0-1.4,0.1-1.8,0.4c-0.4,0.2-0.6,0.6-0.6,1v0.4c0,0.5,0.2,0.8,0.5,1.1C13.5,69.4,13.9,69.5,14.5,69.5z M24.3,70.7
	c-0.9,0-1.6-0.2-2.2-0.5c-0.6-0.3-1.1-0.8-1.5-1.3l1-0.8c0.4,0.5,0.8,0.8,1.2,1.1c0.4,0.2,1,0.4,1.5,0.4c0.6,0,1.1-0.1,1.4-0.4
	c0.3-0.3,0.5-0.6,0.5-1.1c0-0.4-0.1-0.7-0.4-0.9c-0.2-0.3-0.6-0.4-1.3-0.5L24,66.4c-0.4-0.1-0.8-0.2-1.2-0.3c-0.4-0.1-0.7-0.3-1-0.5
	c-0.3-0.2-0.5-0.5-0.6-0.8C21,64.5,21,64.2,21,63.7c0-0.5,0.1-0.9,0.3-1.2c0.2-0.3,0.4-0.6,0.7-0.9c0.3-0.2,0.7-0.4,1.1-0.5
	c0.4-0.1,0.8-0.2,1.3-0.2c0.8,0,1.4,0.1,1.9,0.4c0.5,0.3,1,0.6,1.4,1.1l-1,0.9c-0.2-0.3-0.5-0.5-0.9-0.8c-0.4-0.2-0.9-0.4-1.5-0.4
	c-0.6,0-1.1,0.1-1.4,0.4c-0.3,0.3-0.4,0.6-0.4,1c0,0.5,0.1,0.8,0.4,1c0.3,0.2,0.8,0.4,1.3,0.4l0.7,0.1c1,0.2,1.8,0.5,2.2,0.9
	c0.4,0.4,0.6,1,0.6,1.7c0,0.9-0.3,1.6-0.9,2.1S25.3,70.7,24.3,70.7z M32.2,70.5c-0.5,0-0.9-0.1-1.2-0.4c-0.3-0.3-0.4-0.7-0.4-1.1
	v-6.5h-1.5v-1.3H30c0.3,0,0.5-0.1,0.6-0.2c0.1-0.1,0.2-0.4,0.2-0.7v-1.7h1.3v2.6h2v1.3h-2v6.8H34v1.3H32.2z M36.4,70.5v-9.3h1.4v1.5
	H38c0.2-0.5,0.5-0.9,1-1.3c0.4-0.3,1-0.5,1.7-0.5c1,0,1.7,0.3,2.3,0.9c0.6,0.6,0.8,1.5,0.8,2.6v6h-1.4v-5.7c0-1.7-0.7-2.5-2.1-2.5
	c-0.3,0-0.6,0-0.8,0.1c-0.3,0.1-0.5,0.2-0.7,0.3c-0.2,0.1-0.4,0.3-0.5,0.6c-0.1,0.2-0.2,0.5-0.2,0.8v6.4H36.4z M50.2,70.7
	c-0.6,0-1.2-0.1-1.7-0.3c-0.5-0.2-0.9-0.6-1.3-1c-0.4-0.4-0.6-0.9-0.8-1.5c-0.2-0.6-0.3-1.3-0.3-2c0-0.7,0.1-1.4,0.3-2
	c0.2-0.6,0.5-1.1,0.8-1.5c0.4-0.4,0.8-0.8,1.3-1c0.5-0.2,1.1-0.3,1.7-0.3c0.6,0,1.2,0.1,1.7,0.3c0.5,0.2,0.9,0.5,1.3,1
	c0.3,0.4,0.6,0.9,0.8,1.4c0.2,0.6,0.3,1.2,0.3,1.8v0.7h-6.7v0.4c0,0.4,0.1,0.8,0.2,1.1c0.1,0.3,0.3,0.6,0.5,0.9
	c0.2,0.3,0.5,0.4,0.9,0.6c0.3,0.1,0.7,0.2,1.2,0.2c0.6,0,1.1-0.1,1.5-0.4c0.4-0.3,0.8-0.7,1-1.2l1,0.7c-0.3,0.6-0.8,1.2-1.4,1.5
	C51.8,70.5,51,70.7,50.2,70.7z M50.2,62.2c-0.4,0-0.8,0.1-1.1,0.2c-0.3,0.1-0.6,0.3-0.8,0.6c-0.2,0.3-0.4,0.6-0.5,0.9
	c-0.1,0.3-0.2,0.7-0.2,1.1v0.1h5.1v-0.2c0-0.8-0.2-1.5-0.7-2C51.5,62.5,50.9,62.2,50.2,62.2z M58.6,70.5c-0.5,0-0.9-0.1-1.2-0.4
	c-0.3-0.3-0.4-0.7-0.4-1.1v-6.5h-1.5v-1.3h0.9c0.3,0,0.5-0.1,0.6-0.2c0.1-0.1,0.2-0.4,0.2-0.7v-1.7h1.3v2.6h2v1.3h-2v6.8h1.9v1.3
	H58.6z M62.2,65.8v-1.5h4.7v1.5H62.2z M71.7,70.5c-0.5,0-0.9-0.1-1.2-0.4c-0.3-0.3-0.4-0.7-0.4-1.1v-6.5h-1.5v-1.3h0.9
	c0.3,0,0.5-0.1,0.6-0.2c0.1-0.1,0.2-0.4,0.2-0.7v-1.7h1.3v2.6h2v1.3h-2v6.8h1.9v1.3H71.7z M79.4,70.7c-0.6,0-1.2-0.1-1.7-0.3
	c-0.5-0.2-0.9-0.6-1.3-1c-0.4-0.4-0.6-0.9-0.8-1.5c-0.2-0.6-0.3-1.3-0.3-2c0-0.7,0.1-1.4,0.3-2c0.2-0.6,0.5-1.1,0.8-1.5
	c0.4-0.4,0.8-0.8,1.3-1c0.5-0.2,1.1-0.3,1.7-0.3c0.6,0,1.2,0.1,1.7,0.3c0.5,0.2,0.9,0.5,1.3,1c0.3,0.4,0.6,0.9,0.8,1.4
	c0.2,0.6,0.3,1.2,0.3,1.8v0.7h-6.7v0.4c0,0.4,0.1,0.8,0.2,1.1c0.1,0.3,0.3,0.6,0.5,0.9c0.2,0.3,0.5,0.4,0.9,0.6
	c0.3,0.1,0.7,0.2,1.2,0.2c0.6,0,1.1-0.1,1.5-0.4c0.4-0.3,0.8-0.7,1-1.2l1,0.7c-0.3,0.6-0.8,1.2-1.4,1.5
	C81.1,70.5,80.3,70.7,79.4,70.7z M79.4,62.2c-0.4,0-0.8,0.1-1.1,0.2c-0.3,0.1-0.6,0.3-0.8,0.6c-0.2,0.3-0.4,0.6-0.5,0.9
	c-0.1,0.3-0.2,0.7-0.2,1.1v0.1h5.1v-0.2c0-0.8-0.2-1.5-0.7-2C80.8,62.5,80.2,62.2,79.4,62.2z M87.3,70.5c-0.5,0-0.9-0.1-1.2-0.4
	c-0.3-0.3-0.4-0.6-0.4-1.1V57.2h1.4v12.1h1.4v1.3H87.3z M94.2,70.7c-0.6,0-1.2-0.1-1.7-0.3c-0.5-0.2-0.9-0.6-1.3-1
	c-0.4-0.4-0.6-0.9-0.8-1.5c-0.2-0.6-0.3-1.3-0.3-2c0-0.7,0.1-1.4,0.3-2c0.2-0.6,0.5-1.1,0.8-1.5c0.4-0.4,0.8-0.8,1.3-1
	c0.5-0.2,1.1-0.3,1.7-0.3c0.6,0,1.2,0.1,1.7,0.3c0.5,0.2,0.9,0.5,1.3,1c0.3,0.4,0.6,0.9,0.8,1.4c0.2,0.6,0.3,1.2,0.3,1.8v0.7h-6.7
	v0.4c0,0.4,0.1,0.8,0.2,1.1c0.1,0.3,0.3,0.6,0.5,0.9c0.2,0.3,0.5,0.4,0.9,0.6c0.3,0.1,0.7,0.2,1.2,0.2c0.6,0,1.1-0.1,1.5-0.4
	c0.4-0.3,0.8-0.7,1-1.2l1,0.7c-0.3,0.6-0.8,1.2-1.4,1.5C95.8,70.5,95.1,70.7,94.2,70.7z M94.2,62.2c-0.4,0-0.8,0.1-1.1,0.2
	c-0.3,0.1-0.6,0.3-0.8,0.6c-0.2,0.3-0.4,0.6-0.5,0.9c-0.1,0.3-0.2,0.7-0.2,1.1v0.1h5.1v-0.2c0-0.8-0.2-1.5-0.7-2
	C95.5,62.5,95,62.2,94.2,62.2z M101.1,62.5h-1.5v-1.3h1.5v-1.9c0-0.6,0.2-1.2,0.5-1.6c0.3-0.4,0.8-0.6,1.5-0.6h1.4v1.3h-2v2.8h2v1.3
	h-2v8h-1.4V62.5z M109.9,70.7c-0.6,0-1.2-0.1-1.7-0.3s-1-0.6-1.3-1c-0.4-0.4-0.6-0.9-0.8-1.5c-0.2-0.6-0.3-1.3-0.3-2
	c0-0.7,0.1-1.4,0.3-2c0.2-0.6,0.5-1.1,0.8-1.5c0.4-0.4,0.8-0.8,1.3-1s1.1-0.3,1.7-0.3s1.2,0.1,1.7,0.3c0.5,0.2,1,0.6,1.3,1
	c0.4,0.4,0.7,0.9,0.9,1.5c0.2,0.6,0.3,1.3,0.3,2c0,0.7-0.1,1.4-0.3,2c-0.2,0.6-0.5,1.1-0.9,1.5c-0.4,0.4-0.8,0.7-1.3,1
	C111.1,70.6,110.5,70.7,109.9,70.7z M109.9,69.4c0.8,0,1.4-0.2,1.9-0.7c0.5-0.5,0.7-1.2,0.7-2.2v-1.3c0-1-0.2-1.7-0.7-2.2
	c-0.5-0.5-1.1-0.7-1.9-0.7s-1.4,0.2-1.9,0.7c-0.5,0.5-0.7,1.2-0.7,2.2v1.3c0,1,0.2,1.7,0.7,2.2C108.5,69.2,109.1,69.4,109.9,69.4z
	 M116.4,70.5v-9.3h1.4v1.5h0.1c0.2-0.5,0.5-0.9,1-1.3c0.4-0.3,1-0.5,1.7-0.5c1,0,1.7,0.3,2.3,0.9c0.6,0.6,0.8,1.5,0.8,2.6v6h-1.4
	v-5.7c0-1.7-0.7-2.5-2.1-2.5c-0.3,0-0.6,0-0.8,0.1c-0.3,0.1-0.5,0.2-0.7,0.3c-0.2,0.1-0.4,0.3-0.5,0.6c-0.1,0.2-0.2,0.5-0.2,0.8v6.4
	H116.4z"/>
</svg>
