<?xml version="1.0" encoding="UTF-8"?>
<svg width="360px" height="360px" viewBox="0 0 360 360" version="1.1" xmlns="http://www.w3.org/2000/svg" xmlns:xlink="http://www.w3.org/1999/xlink">
    <!-- Generator: Sketch 54.1 (76490) - https://sketchapp.com -->
    <title>Footers-dont</title>
    <desc>Created with Sketch.</desc>
    <g id="Footers-dont" stroke="none" stroke-width="1" fill="none" fill-rule="evenodd">
        <rect id="Rectangle-Copy-4" fill="#C8CADF" x="0" y="249" width="360" height="111"></rect>
        <text id="Nyheder" font-family="IBMPlexSans-SemiBold, IBM Plex Sans" font-size="10" font-weight="500" fill="#474E95">
            <tspan x="10" y="269">Nyheder</tspan>
        </text>
        <text id="Links" font-family="IBMPlexSans-SemiBold, IBM Plex Sans" font-size="10" font-weight="500" fill="#474E95">
            <tspan x="145" y="269">Links</tspan>
        </text>
        <text id="Selvbetjening" font-family="IBMPlexSans-SemiBold, IBM Plex Sans" font-size="10" font-weight="500" fill="#474E95">
            <tspan x="273" y="269">Selvbetjening</tspan>
        </text>
        <rect id="Rectangle-Copy-18" fill="#9195BF" x="10" y="276" width="87" height="5"></rect>
        <rect id="Rectangle-Copy-19" fill="#9195BF" x="145" y="276" width="70" height="5"></rect>
        <rect id="Rectangle-Copy-20" fill="#9195BF" x="273" y="276" width="67" height="5"></rect>
        <rect id="Rectangle-Copy-21" fill="#9195BF" x="10" y="284" width="78" height="5"></rect>
        <rect id="Rectangle-Copy-22" fill="#9195BF" x="145" y="284" width="66" height="5"></rect>
        <rect id="Rectangle-Copy-23" fill="#9195BF" x="273" y="284" width="67" height="5"></rect>
        <rect id="Rectangle-Copy-24" fill="#9195BF" x="10" y="292" width="40" height="5"></rect>
        <rect id="Rectangle-Copy-25" fill="#9195BF" x="145" y="292" width="55" height="5"></rect>
        <rect id="Rectangle-Copy-26" fill="#9195BF" x="10" y="300" width="54" height="5"></rect>
        <rect id="Rectangle-Copy-27" fill="#9195BF" x="145" y="300" width="71" height="5"></rect>
        <rect id="Rectangle-Copy-28" fill="#9195BF" x="145" y="308" width="60" height="5"></rect>
        <rect id="Rectangle-Copy-5" fill="#DCDCDC" x="0" y="0" width="360" height="249"></rect>
        <rect id="Rectangle-Copy-6" fill="#BFBFBF" x="7" y="129" width="118" height="110"></rect>
        <rect id="Rectangle-Copy-29" fill="#BFBFBF" x="7" y="0" width="353" height="115"></rect>
        <rect id="Rectangle-Copy-30" fill="#BFBFBF" x="135" y="129" width="118" height="110"></rect>
        <rect id="Rectangle-Copy-31" fill="#BFBFBF" x="263" y="129" width="97" height="110"></rect>
    </g>
</svg>