<svg width="360" height="360" viewBox="0 0 360 360" fill="none" xmlns="http://www.w3.org/2000/svg">
<path d="M15.382 24.216C14.302 24.216 13.384 24.024 12.628 23.64C11.884 23.256 11.242 22.752 10.702 22.128L12.304 20.58C12.736 21.084 13.216 21.468 13.744 21.732C14.284 21.996 14.878 22.128 15.526 22.128C16.258 22.128 16.81 21.972 17.182 21.66C17.554 21.336 17.74 20.904 17.74 20.364C17.74 19.944 17.62 19.602 17.38 19.338C17.14 19.074 16.69 18.882 16.03 18.762L14.842 18.582C12.334 18.186 11.08 16.968 11.08 14.928C11.08 14.364 11.182 13.854 11.386 13.398C11.602 12.942 11.908 12.552 12.304 12.228C12.7 11.904 13.174 11.658 13.726 11.49C14.29 11.31 14.926 11.22 15.634 11.22C16.582 11.22 17.41 11.376 18.118 11.688C18.826 12 19.432 12.462 19.936 13.074L18.316 14.604C18.004 14.22 17.626 13.908 17.182 13.668C16.738 13.428 16.18 13.308 15.508 13.308C14.824 13.308 14.308 13.44 13.96 13.704C13.624 13.956 13.456 14.316 13.456 14.784C13.456 15.264 13.594 15.618 13.87 15.846C14.146 16.074 14.59 16.242 15.202 16.35L16.372 16.566C17.644 16.794 18.58 17.202 19.18 17.79C19.792 18.366 20.098 19.176 20.098 20.22C20.098 20.82 19.99 21.366 19.774 21.858C19.57 22.338 19.264 22.758 18.856 23.118C18.46 23.466 17.968 23.736 17.38 23.928C16.804 24.12 16.138 24.216 15.382 24.216ZM22.3359 10.68H24.6399V18.708H24.7299L25.9719 17.016L28.0779 14.604H30.6879L27.4479 18.24L31.0299 24H28.2939L25.8819 19.788L24.6399 21.138V24H22.3359V10.68ZM32.4433 24V14.604H34.7473V16.548H34.8373C34.8973 16.296 34.9873 16.056 35.1073 15.828C35.2393 15.588 35.4073 15.378 35.6113 15.198C35.8153 15.018 36.0553 14.874 36.3313 14.766C36.6193 14.658 36.9493 14.604 37.3213 14.604H37.8253V16.782H37.1053C36.3253 16.782 35.7373 16.896 35.3413 17.124C34.9453 17.352 34.7473 17.724 34.7473 18.24V24H32.4433ZM40.6617 13.236C40.1817 13.236 39.8337 13.128 39.6177 12.912C39.4137 12.696 39.3117 12.42 39.3117 12.084V11.724C39.3117 11.388 39.4137 11.112 39.6177 10.896C39.8337 10.68 40.1817 10.572 40.6617 10.572C41.1297 10.572 41.4717 10.68 41.6877 10.896C41.9037 11.112 42.0117 11.388 42.0117 11.724V12.084C42.0117 12.42 41.9037 12.696 41.6877 12.912C41.4717 13.128 41.1297 13.236 40.6617 13.236ZM39.5097 14.604H41.8137V24H39.5097V14.604ZM46.5003 24L43.3683 14.604H45.6363L46.9503 18.654L47.8683 22.002H47.9943L48.9123 18.654L50.1903 14.604H52.3863L49.2363 24H46.5003ZM64.0097 22.434H63.9197C63.7517 22.974 63.4337 23.406 62.9657 23.73C62.4977 24.054 61.9517 24.216 61.3277 24.216C60.1397 24.216 59.2277 23.79 58.5917 22.938C57.9677 22.086 57.6557 20.868 57.6557 19.284C57.6557 17.712 57.9677 16.506 58.5917 15.666C59.2277 14.814 60.1397 14.388 61.3277 14.388C61.9517 14.388 62.4977 14.55 62.9657 14.874C63.4337 15.186 63.7517 15.612 63.9197 16.152H64.0097V10.68H66.3137V24H64.0097V22.434ZM62.0657 22.308C62.6177 22.308 63.0797 22.176 63.4517 21.912C63.8237 21.648 64.0097 21.27 64.0097 20.778V17.79C64.0097 17.334 63.8237 16.968 63.4517 16.692C63.0797 16.416 62.6177 16.278 62.0657 16.278C61.4657 16.278 60.9797 16.482 60.6077 16.89C60.2477 17.286 60.0677 17.82 60.0677 18.492V20.112C60.0677 20.784 60.2477 21.318 60.6077 21.714C60.9797 22.11 61.4657 22.308 62.0657 22.308ZM70.1227 13.236C69.6427 13.236 69.2947 13.128 69.0787 12.912C68.8747 12.696 68.7727 12.42 68.7727 12.084V11.724C68.7727 11.388 68.8747 11.112 69.0787 10.896C69.2947 10.68 69.6427 10.572 70.1227 10.572C70.5907 10.572 70.9327 10.68 71.1487 10.896C71.3647 11.112 71.4727 11.388 71.4727 11.724V12.084C71.4727 12.42 71.3647 12.696 71.1487 12.912C70.9327 13.128 70.5907 13.236 70.1227 13.236ZM68.9707 14.604H71.2747V24H68.9707V14.604ZM76.8793 24C76.0873 24 75.4813 23.796 75.0613 23.388C74.6533 22.968 74.4493 22.374 74.4493 21.606V16.44H73.0633V14.604H73.7833C74.1313 14.604 74.3653 14.526 74.4853 14.37C74.6173 14.202 74.6833 13.956 74.6833 13.632V12.03H76.7533V14.604H78.6793V16.44H76.7533V22.164H78.5353V24H76.8793ZM84.9316 10.68H87.2356V16.152H87.3076C87.4756 15.612 87.7936 15.186 88.2616 14.874C88.7296 14.55 89.2756 14.388 89.8996 14.388C91.0996 14.388 92.0116 14.814 92.6356 15.666C93.2716 16.506 93.5896 17.712 93.5896 19.284C93.5896 20.868 93.2716 22.086 92.6356 22.938C92.0116 23.79 91.0996 24.216 89.8996 24.216C89.2756 24.216 88.7296 24.054 88.2616 23.73C87.8056 23.406 87.4876 22.974 87.3076 22.434H87.2356V24H84.9316V10.68ZM89.1616 22.308C89.7616 22.308 90.2476 22.11 90.6196 21.714C90.9916 21.318 91.1776 20.784 91.1776 20.112V18.492C91.1776 17.82 90.9916 17.286 90.6196 16.89C90.2476 16.482 89.7616 16.278 89.1616 16.278C88.6096 16.278 88.1476 16.416 87.7756 16.692C87.4156 16.968 87.2356 17.334 87.2356 17.79V20.778C87.2356 21.27 87.4156 21.648 87.7756 21.912C88.1476 22.176 88.6096 22.308 89.1616 22.308ZM102.637 24C102.133 24 101.731 23.856 101.431 23.568C101.143 23.268 100.963 22.872 100.891 22.38H100.783C100.627 22.992 100.309 23.454 99.8286 23.766C99.3486 24.066 98.7546 24.216 98.0466 24.216C97.0866 24.216 96.3486 23.964 95.8326 23.46C95.3166 22.956 95.0586 22.284 95.0586 21.444C95.0586 20.472 95.4066 19.752 96.1026 19.284C96.7986 18.804 97.7886 18.564 99.0726 18.564H100.675V17.88C100.675 17.352 100.537 16.944 100.261 16.656C99.9846 16.368 99.5406 16.224 98.9286 16.224C98.3886 16.224 97.9506 16.344 97.6146 16.584C97.2906 16.812 97.0146 17.088 96.7866 17.412L95.4186 16.188C95.7666 15.648 96.2286 15.216 96.8046 14.892C97.3806 14.556 98.1426 14.388 99.0906 14.388C100.363 14.388 101.329 14.676 101.989 15.252C102.649 15.828 102.979 16.656 102.979 17.736V22.164H103.915V24H102.637ZM98.8206 22.542C99.3366 22.542 99.7746 22.428 100.135 22.2C100.495 21.972 100.675 21.636 100.675 21.192V19.95H99.1986C97.9986 19.95 97.3986 20.334 97.3986 21.102V21.408C97.3986 21.792 97.5186 22.08 97.7586 22.272C98.0106 22.452 98.3646 22.542 98.8206 22.542ZM105.779 24V14.604H108.083V16.548H108.173C108.233 16.296 108.323 16.056 108.443 15.828C108.575 15.588 108.743 15.378 108.947 15.198C109.151 15.018 109.391 14.874 109.667 14.766C109.955 14.658 110.285 14.604 110.657 14.604H111.161V16.782H110.441C109.661 16.782 109.073 16.896 108.677 17.124C108.281 17.352 108.083 17.724 108.083 18.24V24H105.779ZM112.846 24V14.604H115.15V16.17H115.24C115.432 15.666 115.732 15.246 116.14 14.91C116.56 14.562 117.136 14.388 117.868 14.388C118.84 14.388 119.584 14.706 120.1 15.342C120.616 15.978 120.874 16.884 120.874 18.06V24H118.57V18.294C118.57 17.622 118.45 17.118 118.21 16.782C117.97 16.446 117.574 16.278 117.022 16.278C116.782 16.278 116.548 16.314 116.32 16.386C116.104 16.446 115.906 16.542 115.726 16.674C115.558 16.794 115.42 16.95 115.312 17.142C115.204 17.322 115.15 17.538 115.15 17.79V24H112.846ZM131.408 24.216C130.736 24.216 130.13 24.102 129.59 23.874C129.062 23.646 128.606 23.316 128.222 22.884C127.85 22.452 127.562 21.936 127.358 21.336C127.154 20.724 127.052 20.04 127.052 19.284C127.052 18.528 127.154 17.85 127.358 17.25C127.562 16.65 127.85 16.14 128.222 15.72C128.606 15.288 129.062 14.958 129.59 14.73C130.13 14.502 130.736 14.388 131.408 14.388C132.08 14.388 132.686 14.502 133.226 14.73C133.766 14.958 134.222 15.288 134.594 15.72C134.978 16.14 135.272 16.65 135.476 17.25C135.68 17.85 135.782 18.528 135.782 19.284C135.782 20.04 135.68 20.724 135.476 21.336C135.272 21.936 134.978 22.452 134.594 22.884C134.222 23.316 133.766 23.646 133.226 23.874C132.686 24.102 132.08 24.216 131.408 24.216ZM131.408 22.362C132.02 22.362 132.5 22.176 132.848 21.804C133.196 21.432 133.37 20.886 133.37 20.166V18.42C133.37 17.712 133.196 17.172 132.848 16.8C132.5 16.428 132.02 16.242 131.408 16.242C130.808 16.242 130.334 16.428 129.986 16.8C129.638 17.172 129.464 17.712 129.464 18.42V20.166C129.464 20.886 129.638 21.432 129.986 21.804C130.334 22.176 130.808 22.362 131.408 22.362ZM137.824 14.604H140.128V16.152H140.2C140.368 15.612 140.686 15.186 141.154 14.874C141.622 14.55 142.168 14.388 142.792 14.388C143.992 14.388 144.904 14.814 145.528 15.666C146.164 16.506 146.482 17.712 146.482 19.284C146.482 20.868 146.164 22.086 145.528 22.938C144.904 23.79 143.992 24.216 142.792 24.216C142.168 24.216 141.622 24.054 141.154 23.73C140.698 23.406 140.38 22.974 140.2 22.434H140.128V27.6H137.824V14.604ZM142.054 22.308C142.654 22.308 143.14 22.11 143.512 21.714C143.884 21.318 144.07 20.784 144.07 20.112V18.492C144.07 17.82 143.884 17.286 143.512 16.89C143.14 16.482 142.654 16.278 142.054 16.278C141.502 16.278 141.04 16.416 140.668 16.692C140.308 16.968 140.128 17.334 140.128 17.79V20.778C140.128 21.27 140.308 21.648 140.668 21.912C141.04 22.176 141.502 22.308 142.054 22.308ZM155.805 24C155.013 24 154.407 23.796 153.987 23.388C153.579 22.968 153.375 22.374 153.375 21.606V16.44H151.989V14.604H152.709C153.057 14.604 153.291 14.526 153.411 14.37C153.543 14.202 153.609 13.956 153.609 13.632V12.03H155.679V14.604H157.605V16.44H155.679V22.164H157.461V24H155.805ZM160.755 13.236C160.275 13.236 159.927 13.128 159.711 12.912C159.507 12.696 159.405 12.42 159.405 12.084V11.724C159.405 11.388 159.507 11.112 159.711 10.896C159.927 10.68 160.275 10.572 160.755 10.572C161.223 10.572 161.565 10.68 161.781 10.896C161.997 11.112 162.105 11.388 162.105 11.724V12.084C162.105 12.42 161.997 12.696 161.781 12.912C161.565 13.128 161.223 13.236 160.755 13.236ZM159.603 14.604H161.907V24H159.603V14.604ZM166.882 24C166.09 24 165.508 23.802 165.136 23.406C164.764 23.01 164.578 22.452 164.578 21.732V10.68H166.882V22.164H168.124V24H166.882ZM174.123 14.604H176.427V16.152H176.499C176.667 15.612 176.985 15.186 177.453 14.874C177.921 14.55 178.467 14.388 179.091 14.388C180.291 14.388 181.203 14.814 181.827 15.666C182.463 16.506 182.781 17.712 182.781 19.284C182.781 20.868 182.463 22.086 181.827 22.938C181.203 23.79 180.291 24.216 179.091 24.216C178.467 24.216 177.921 24.054 177.453 23.73C176.997 23.406 176.679 22.974 176.499 22.434H176.427V27.6H174.123V14.604ZM178.353 22.308C178.953 22.308 179.439 22.11 179.811 21.714C180.183 21.318 180.369 20.784 180.369 20.112V18.492C180.369 17.82 180.183 17.286 179.811 16.89C179.439 16.482 178.953 16.278 178.353 16.278C177.801 16.278 177.339 16.416 176.967 16.692C176.607 16.968 176.427 17.334 176.427 17.79V20.778C176.427 21.27 176.607 21.648 176.967 21.912C177.339 22.176 177.801 22.308 178.353 22.308ZM191.828 24C191.324 24 190.922 23.856 190.622 23.568C190.334 23.268 190.154 22.872 190.082 22.38H189.974C189.818 22.992 189.5 23.454 189.02 23.766C188.54 24.066 187.946 24.216 187.238 24.216C186.278 24.216 185.54 23.964 185.024 23.46C184.508 22.956 184.25 22.284 184.25 21.444C184.25 20.472 184.598 19.752 185.294 19.284C185.99 18.804 186.98 18.564 188.264 18.564H189.866V17.88C189.866 17.352 189.728 16.944 189.452 16.656C189.176 16.368 188.732 16.224 188.12 16.224C187.58 16.224 187.142 16.344 186.806 16.584C186.482 16.812 186.206 17.088 185.978 17.412L184.61 16.188C184.958 15.648 185.42 15.216 185.996 14.892C186.572 14.556 187.334 14.388 188.282 14.388C189.554 14.388 190.52 14.676 191.18 15.252C191.84 15.828 192.17 16.656 192.17 17.736V22.164H193.106V24H191.828ZM188.012 22.542C188.528 22.542 188.966 22.428 189.326 22.2C189.686 21.972 189.866 21.636 189.866 21.192V19.95H188.39C187.19 19.95 186.59 20.334 186.59 21.102V21.408C186.59 21.792 186.71 22.08 186.95 22.272C187.202 22.452 187.556 22.542 188.012 22.542ZM198.049 24.216C197.149 24.216 196.393 24.066 195.781 23.766C195.169 23.454 194.629 23.028 194.161 22.488L195.565 21.12C195.913 21.516 196.291 21.828 196.699 22.056C197.119 22.284 197.599 22.398 198.139 22.398C198.691 22.398 199.087 22.302 199.327 22.11C199.579 21.918 199.705 21.654 199.705 21.318C199.705 21.042 199.615 20.826 199.435 20.67C199.267 20.502 198.973 20.388 198.553 20.328L197.617 20.202C196.597 20.07 195.817 19.782 195.277 19.338C194.749 18.882 194.485 18.222 194.485 17.358C194.485 16.902 194.569 16.494 194.737 16.134C194.905 15.762 195.145 15.45 195.457 15.198C195.769 14.934 196.141 14.736 196.573 14.604C197.017 14.46 197.509 14.388 198.049 14.388C198.505 14.388 198.907 14.424 199.255 14.496C199.615 14.556 199.939 14.652 200.227 14.784C200.515 14.904 200.779 15.06 201.019 15.252C201.259 15.432 201.493 15.636 201.721 15.864L200.371 17.214C200.095 16.926 199.765 16.686 199.381 16.494C198.997 16.302 198.577 16.206 198.121 16.206C197.617 16.206 197.251 16.296 197.023 16.476C196.807 16.656 196.699 16.89 196.699 17.178C196.699 17.49 196.789 17.73 196.969 17.898C197.161 18.054 197.479 18.168 197.923 18.24L198.877 18.366C200.905 18.654 201.919 19.578 201.919 21.138C201.919 21.594 201.823 22.014 201.631 22.398C201.451 22.77 201.193 23.094 200.857 23.37C200.521 23.634 200.113 23.844 199.633 24C199.165 24.144 198.637 24.216 198.049 24.216ZM203.953 24V14.604H206.257V16.17H206.347C206.539 15.666 206.839 15.246 207.247 14.91C207.667 14.562 208.243 14.388 208.975 14.388C209.947 14.388 210.691 14.706 211.207 15.342C211.723 15.978 211.981 16.884 211.981 18.06V24H209.677V18.294C209.677 17.622 209.557 17.118 209.317 16.782C209.077 16.446 208.681 16.278 208.129 16.278C207.889 16.278 207.655 16.314 207.427 16.386C207.211 16.446 207.013 16.542 206.833 16.674C206.665 16.794 206.527 16.95 206.419 17.142C206.311 17.322 206.257 17.538 206.257 17.79V24H203.953ZM215.687 13.236C215.207 13.236 214.859 13.128 214.643 12.912C214.439 12.696 214.337 12.42 214.337 12.084V11.724C214.337 11.388 214.439 11.112 214.643 10.896C214.859 10.68 215.207 10.572 215.687 10.572C216.155 10.572 216.497 10.68 216.713 10.896C216.929 11.112 217.037 11.388 217.037 11.724V12.084C217.037 12.42 216.929 12.696 216.713 12.912C216.497 13.128 216.155 13.236 215.687 13.236ZM214.535 14.604H216.839V24H214.535V14.604ZM219.51 24V14.604H221.814V16.17H221.904C222.096 15.666 222.396 15.246 222.804 14.91C223.224 14.562 223.8 14.388 224.532 14.388C225.504 14.388 226.248 14.706 226.764 15.342C227.28 15.978 227.538 16.884 227.538 18.06V24H225.234V18.294C225.234 17.622 225.114 17.118 224.874 16.782C224.634 16.446 224.238 16.278 223.686 16.278C223.446 16.278 223.212 16.314 222.984 16.386C222.768 16.446 222.57 16.542 222.39 16.674C222.222 16.794 222.084 16.95 221.976 17.142C221.868 17.322 221.814 17.538 221.814 17.79V24H219.51ZM238.57 24.792C238.57 25.284 238.48 25.716 238.3 26.088C238.132 26.472 237.85 26.79 237.454 27.042C237.058 27.294 236.548 27.486 235.924 27.618C235.3 27.75 234.538 27.816 233.638 27.816C232.846 27.816 232.174 27.762 231.622 27.654C231.07 27.558 230.614 27.414 230.254 27.222C229.906 27.042 229.654 26.814 229.498 26.538C229.342 26.262 229.264 25.95 229.264 25.602C229.264 25.074 229.408 24.66 229.696 24.36C229.996 24.072 230.41 23.886 230.938 23.802V23.604C230.554 23.508 230.254 23.322 230.038 23.046C229.834 22.758 229.732 22.422 229.732 22.038C229.732 21.798 229.78 21.588 229.876 21.408C229.972 21.216 230.098 21.054 230.254 20.922C230.422 20.79 230.608 20.682 230.812 20.598C231.016 20.502 231.232 20.43 231.46 20.382V20.31C230.884 20.046 230.452 19.68 230.164 19.212C229.888 18.744 229.75 18.198 229.75 17.574C229.75 16.614 230.08 15.846 230.74 15.27C231.4 14.682 232.366 14.388 233.638 14.388C233.926 14.388 234.208 14.406 234.484 14.442C234.772 14.478 235.036 14.538 235.276 14.622V14.316C235.276 13.404 235.72 12.948 236.608 12.948H238.066V14.712H236.068V14.964C236.56 15.24 236.926 15.6 237.166 16.044C237.406 16.488 237.526 16.998 237.526 17.574C237.526 18.522 237.196 19.284 236.536 19.86C235.888 20.436 234.922 20.724 233.638 20.724C233.086 20.724 232.606 20.67 232.198 20.562C232.018 20.646 231.862 20.76 231.73 20.904C231.598 21.036 231.532 21.204 231.532 21.408C231.532 21.876 231.94 22.11 232.756 22.11H235.276C236.428 22.11 237.262 22.35 237.778 22.83C238.306 23.298 238.57 23.952 238.57 24.792ZM236.41 25.062C236.41 24.762 236.29 24.528 236.05 24.36C235.81 24.192 235.396 24.108 234.808 24.108H231.604C231.28 24.348 231.118 24.672 231.118 25.08C231.118 25.44 231.268 25.722 231.568 25.926C231.868 26.13 232.378 26.232 233.098 26.232H234.25C235.006 26.232 235.552 26.136 235.888 25.944C236.236 25.752 236.41 25.458 236.41 25.062ZM233.638 19.158C234.766 19.158 235.33 18.678 235.33 17.718V17.412C235.33 16.452 234.766 15.972 233.638 15.972C232.51 15.972 231.946 16.452 231.946 17.412V17.718C231.946 18.678 232.51 19.158 233.638 19.158Z" fill="#474E95"/>
<path d="M252 114H10V132H252V114Z" fill="#DCDCDC" stroke="#747474"/>
<path d="M252 217H10V235H252V217Z" fill="#DCDCDC" stroke="#747474"/>
<path d="M252 320H10V338H252V320Z" fill="#DCDCDC" stroke="#747474"/>
<path d="M101 102H10V110H101V102Z" fill="#BFBFBF" stroke="#747474"/>
<path d="M101 205H10V213H101V205Z" fill="#BFBFBF" stroke="#747474"/>
<path d="M62 308H10V316H62V308Z" fill="#BFBFBF" stroke="#747474"/>
<path d="M230 80H10V98H230V80Z" fill="#DCDCDC" stroke="#747474"/>
<path d="M230 183H10V201H230V183Z" fill="#DCDCDC" stroke="#747474"/>
<path d="M230 286H10V304H230V286Z" fill="#DCDCDC" stroke="#747474"/>
<path d="M62 68H10V76H62V68Z" fill="#BFBFBF" stroke="#747474"/>
<path d="M62 171H10V179H62V171Z" fill="#BFBFBF" stroke="#747474"/>
<path d="M101 274H10V282H101V274Z" fill="#BFBFBF" stroke="#747474"/>
<path d="M191 46H10V64H191V46Z" fill="#DCDCDC" stroke="#747474"/>
<path d="M191 149H10V167H191V149Z" fill="#DCDCDC" stroke="#747474"/>
<path d="M191 252H10V270H191V252Z" fill="#DCDCDC" stroke="#747474"/>
<path d="M103 33H10V42H103V33Z" fill="#BFBFBF" stroke="#747474"/>
<path d="M103 136H10V145H103V136Z" fill="#BFBFBF" stroke="#747474"/>
<path d="M63 239H10V248H63V239Z" fill="#BFBFBF" stroke="#747474"/>
<path d="M49 341H10V357.059H49V341Z" fill="#747474"/>
<path d="M19.8706 349.843L19.342 348.778H19.32V352.471H18.4023V347.347H19.4668L21.0085 349.975L21.537 351.039H21.559V347.347H22.4767V352.471H21.4122L19.8706 349.843Z" fill="#F5F5F5"/>
<path d="M25.0369 350.79C24.802 350.795 24.6209 350.839 24.4937 350.922C24.3664 351 24.3028 351.118 24.3028 351.274V351.392C24.3028 351.548 24.3518 351.668 24.4496 351.751C24.5475 351.835 24.6943 351.876 24.8901 351.876C25.0957 351.876 25.2718 351.83 25.4187 351.737C25.5655 351.644 25.6389 351.507 25.6389 351.326V350.79H25.0369ZM28.1569 350.21V350.144C28.1569 349.879 28.0909 349.666 27.9587 349.505C27.8315 349.339 27.6455 349.255 27.4008 349.255C27.1512 349.255 26.953 349.339 26.8062 349.505C26.6593 349.671 26.5859 349.887 26.5859 350.151V350.21H28.1569ZM27.5329 351.795C27.763 351.795 27.9563 351.746 28.1129 351.649C28.2695 351.551 28.4016 351.431 28.5093 351.289L29.0158 351.854C28.8592 352.074 28.6463 352.248 28.3772 352.375C28.108 352.498 27.7997 352.559 27.4522 352.559C27.2662 352.559 27.0925 352.537 26.931 352.493C26.7694 352.449 26.6251 352.39 26.4978 352.317C26.3755 352.243 26.2702 352.16 26.1822 352.067C26.0941 351.974 26.028 351.876 25.9839 351.773H25.9399C25.9056 351.871 25.8518 351.967 25.7784 352.06C25.7099 352.153 25.6193 352.236 25.5068 352.309C25.3942 352.383 25.2596 352.441 25.103 352.486C24.9513 352.534 24.7726 352.559 24.5671 352.559C24.1805 352.559 23.8795 352.454 23.6641 352.243C23.4537 352.033 23.3485 351.759 23.3485 351.421C23.3485 351.22 23.3876 351.044 23.4659 350.892C23.5442 350.741 23.6543 350.616 23.7963 350.518C23.9382 350.415 24.1095 350.339 24.3102 350.29C24.5108 350.237 24.7359 350.21 24.9855 350.21H25.6389V349.975C25.6389 349.759 25.5826 349.593 25.4701 349.476C25.3575 349.358 25.1789 349.299 24.9342 349.299C24.709 349.299 24.5279 349.346 24.3909 349.439C24.2588 349.532 24.1462 349.647 24.0532 349.784L23.4953 349.285C23.6372 349.065 23.8256 348.888 24.0606 348.756C24.2955 348.619 24.6062 348.551 24.9929 348.551C25.2865 348.551 25.5214 348.612 25.6976 348.734C25.8738 348.852 26.0109 349.001 26.1087 349.182H26.1528C26.2507 349.001 26.4097 348.852 26.63 348.734C26.8502 348.612 27.1145 348.551 27.4228 348.551C27.7214 348.551 27.9783 348.602 28.1936 348.705C28.409 348.808 28.5852 348.947 28.7222 349.123C28.8641 349.299 28.9669 349.505 29.0305 349.74C29.099 349.97 29.1333 350.217 29.1333 350.481V350.79H26.5786V350.885C26.5786 351.159 26.6618 351.379 26.8282 351.546C26.9946 351.712 27.2295 351.795 27.5329 351.795Z" fill="#F5F5F5"/>
<path d="M31.2201 352.559C30.853 352.559 30.5447 352.498 30.2951 352.375C30.0455 352.248 29.8253 352.074 29.6344 351.854L30.207 351.296C30.3489 351.458 30.5031 351.585 30.6695 351.678C30.8408 351.771 31.0366 351.817 31.2568 351.817C31.4819 351.817 31.6434 351.778 31.7413 351.7C31.8441 351.622 31.8955 351.514 31.8955 351.377C31.8955 351.264 31.8588 351.176 31.7854 351.113C31.7168 351.044 31.5969 350.998 31.4256 350.973L31.0439 350.922C30.6279 350.868 30.3098 350.751 30.0896 350.569C29.8742 350.383 29.7665 350.114 29.7665 349.762C29.7665 349.576 29.8008 349.41 29.8693 349.263C29.9378 349.111 30.0357 348.984 30.163 348.881C30.2902 348.773 30.4419 348.693 30.6181 348.639C30.7992 348.58 30.9999 348.551 31.2201 348.551C31.4061 348.551 31.57 348.565 31.712 348.595C31.8588 348.619 31.9909 348.658 32.1084 348.712C32.2258 348.761 32.3335 348.825 32.4314 348.903C32.5293 348.976 32.6247 349.06 32.7177 349.153L32.1671 349.703C32.0545 349.586 31.92 349.488 31.7633 349.41C31.6067 349.331 31.4354 349.292 31.2495 349.292C31.0439 349.292 30.8946 349.329 30.8016 349.402C30.7136 349.476 30.6695 349.571 30.6695 349.689C30.6695 349.816 30.7062 349.914 30.7796 349.982C30.8579 350.046 30.9876 350.092 31.1687 350.122L31.5578 350.173C32.3849 350.29 32.7984 350.667 32.7984 351.304C32.7984 351.49 32.7593 351.661 32.681 351.817C32.6076 351.969 32.5024 352.101 32.3653 352.214C32.2283 352.322 32.0619 352.407 31.8661 352.471C31.6752 352.53 31.4599 352.559 31.2201 352.559Z" fill="#F5F5F5"/>
<path d="M34.7674 352.471C34.4444 352.471 34.1973 352.388 34.026 352.221C33.8596 352.05 33.7764 351.808 33.7764 351.494V349.388H33.2111V348.639H33.5047C33.6467 348.639 33.7421 348.607 33.7911 348.543C33.8449 348.475 33.8718 348.374 33.8718 348.242V347.589H34.716V348.639H35.5015V349.388H34.716V351.722H35.4428V352.471H34.7674Z" fill="#F5F5F5"/>
<path d="M37.8369 352.559C37.553 352.559 37.2985 352.512 37.0734 352.419C36.8532 352.322 36.6648 352.187 36.5082 352.016C36.3564 351.839 36.239 351.629 36.1558 351.384C36.0726 351.135 36.031 350.856 36.031 350.547C36.031 350.244 36.0701 349.97 36.1484 349.725C36.2316 349.481 36.3491 349.273 36.5008 349.101C36.6525 348.925 36.8385 348.79 37.0587 348.697C37.279 348.6 37.5286 348.551 37.8075 348.551C38.1061 348.551 38.3655 348.602 38.5857 348.705C38.8059 348.808 38.987 348.947 39.1289 349.123C39.2709 349.299 39.3761 349.505 39.4446 349.74C39.518 349.97 39.5547 350.217 39.5547 350.481V350.79H37.0073V350.885C37.0073 351.164 37.0857 351.389 37.2423 351.561C37.3989 351.727 37.6313 351.81 37.9397 351.81C38.1746 351.81 38.3655 351.761 38.5123 351.663C38.664 351.565 38.7986 351.441 38.9161 351.289L39.4226 351.854C39.266 352.074 39.0506 352.248 38.7766 352.375C38.5074 352.498 38.1942 352.559 37.8369 352.559ZM37.8222 349.255C37.5726 349.255 37.3744 349.339 37.2276 349.505C37.0808 349.671 37.0073 349.887 37.0073 350.151V350.21H38.5784V350.144C38.5784 349.879 38.5123 349.666 38.3801 349.505C38.2529 349.339 38.0669 349.255 37.8222 349.255Z" fill="#F5F5F5"/>
</svg>
