<svg width="360" height="360" viewBox="0 0 360 360" fill="none" xmlns="http://www.w3.org/2000/svg">
<path d="M15.382 32.216C14.302 32.216 13.384 32.024 12.628 31.64C11.884 31.256 11.242 30.752 10.702 30.128L12.304 28.58C12.736 29.084 13.216 29.468 13.744 29.732C14.284 29.996 14.878 30.128 15.526 30.128C16.258 30.128 16.81 29.972 17.182 29.66C17.554 29.336 17.74 28.904 17.74 28.364C17.74 27.944 17.62 27.602 17.38 27.338C17.14 27.074 16.69 26.882 16.03 26.762L14.842 26.582C12.334 26.186 11.08 24.968 11.08 22.928C11.08 22.364 11.182 21.854 11.386 21.398C11.602 20.942 11.908 20.552 12.304 20.228C12.7 19.904 13.174 19.658 13.726 19.49C14.29 19.31 14.926 19.22 15.634 19.22C16.582 19.22 17.41 19.376 18.118 19.688C18.826 20 19.432 20.462 19.936 21.074L18.316 22.604C18.004 22.22 17.626 21.908 17.182 21.668C16.738 21.428 16.18 21.308 15.508 21.308C14.824 21.308 14.308 21.44 13.96 21.704C13.624 21.956 13.456 22.316 13.456 22.784C13.456 23.264 13.594 23.618 13.87 23.846C14.146 24.074 14.59 24.242 15.202 24.35L16.372 24.566C17.644 24.794 18.58 25.202 19.18 25.79C19.792 26.366 20.098 27.176 20.098 28.22C20.098 28.82 19.99 29.366 19.774 29.858C19.57 30.338 19.264 30.758 18.856 31.118C18.46 31.466 17.968 31.736 17.38 31.928C16.804 32.12 16.138 32.216 15.382 32.216ZM21.3639 31.91L22.5699 30.398C22.0419 29.582 21.7779 28.544 21.7779 27.284C21.7779 26.528 21.8799 25.85 22.0839 25.25C22.2879 24.65 22.5759 24.14 22.9479 23.72C23.3319 23.288 23.7879 22.958 24.3159 22.73C24.8559 22.502 25.4619 22.388 26.1339 22.388C27.0819 22.388 27.8919 22.616 28.5639 23.072L29.6619 21.758L30.9219 22.694L29.6979 24.206C29.9619 24.614 30.1599 25.082 30.2919 25.61C30.4359 26.126 30.5079 26.69 30.5079 27.302C30.5079 28.058 30.4059 28.742 30.2019 29.354C29.9979 29.954 29.7039 30.47 29.3199 30.902C28.9479 31.322 28.4919 31.646 27.9519 31.874C27.4119 32.102 26.8059 32.216 26.1339 32.216C25.1979 32.216 24.3879 31.994 23.7039 31.55L22.6239 32.846L21.3639 31.91ZM26.1339 30.47C26.7579 30.47 27.2499 30.266 27.6099 29.858C27.9699 29.438 28.1499 28.856 28.1499 28.112V25.952L24.8019 30.002C25.1499 30.314 25.5939 30.47 26.1339 30.47ZM24.1539 28.598L27.4659 24.602C27.1179 24.29 26.6739 24.134 26.1339 24.134C25.5219 24.134 25.0359 24.344 24.6759 24.764C24.3279 25.172 24.1539 25.748 24.1539 26.492V28.598ZM41.0971 32.792C41.0971 33.284 41.0071 33.716 40.8271 34.088C40.6591 34.472 40.3771 34.79 39.9811 35.042C39.5851 35.294 39.0751 35.486 38.4511 35.618C37.8271 35.75 37.0651 35.816 36.1651 35.816C35.3731 35.816 34.7011 35.762 34.1491 35.654C33.5971 35.558 33.1411 35.414 32.7811 35.222C32.4331 35.042 32.1811 34.814 32.0251 34.538C31.8691 34.262 31.7911 33.95 31.7911 33.602C31.7911 33.074 31.9351 32.66 32.2231 32.36C32.5231 32.072 32.9371 31.886 33.4651 31.802V31.604C33.0811 31.508 32.7811 31.322 32.5651 31.046C32.3611 30.758 32.2591 30.422 32.2591 30.038C32.2591 29.798 32.3071 29.588 32.4031 29.408C32.4991 29.216 32.6251 29.054 32.7811 28.922C32.9491 28.79 33.1351 28.682 33.3391 28.598C33.5431 28.502 33.7591 28.43 33.9871 28.382V28.31C33.4111 28.046 32.9791 27.68 32.6911 27.212C32.4151 26.744 32.2771 26.198 32.2771 25.574C32.2771 24.614 32.6071 23.846 33.2671 23.27C33.9271 22.682 34.8931 22.388 36.1651 22.388C36.4531 22.388 36.7351 22.406 37.0111 22.442C37.2991 22.478 37.5631 22.538 37.8031 22.622V22.316C37.8031 21.404 38.2471 20.948 39.1351 20.948H40.5931V22.712H38.5951V22.964C39.0871 23.24 39.4531 23.6 39.6931 24.044C39.9331 24.488 40.0531 24.998 40.0531 25.574C40.0531 26.522 39.7231 27.284 39.0631 27.86C38.4151 28.436 37.4491 28.724 36.1651 28.724C35.6131 28.724 35.1331 28.67 34.7251 28.562C34.5451 28.646 34.3891 28.76 34.2571 28.904C34.1251 29.036 34.0591 29.204 34.0591 29.408C34.0591 29.876 34.4671 30.11 35.2831 30.11H37.8031C38.9551 30.11 39.7891 30.35 40.3051 30.83C40.8331 31.298 41.0971 31.952 41.0971 32.792ZM38.9371 33.062C38.9371 32.762 38.8171 32.528 38.5771 32.36C38.3371 32.192 37.9231 32.108 37.3351 32.108H34.1311C33.8071 32.348 33.6451 32.672 33.6451 33.08C33.6451 33.44 33.7951 33.722 34.0951 33.926C34.3951 34.13 34.9051 34.232 35.6251 34.232H36.7771C37.5331 34.232 38.0791 34.136 38.4151 33.944C38.7631 33.752 38.9371 33.458 38.9371 33.062ZM36.1651 27.158C37.2931 27.158 37.8571 26.678 37.8571 25.718V25.412C37.8571 24.452 37.2931 23.972 36.1651 23.972C35.0371 23.972 34.4731 24.452 34.4731 25.412V25.718C34.4731 26.678 35.0371 27.158 36.1651 27.158ZM50.4076 32.216C49.7356 32.216 49.1296 32.102 48.5896 31.874C48.0616 31.646 47.6056 31.316 47.2216 30.884C46.8496 30.452 46.5616 29.936 46.3576 29.336C46.1536 28.724 46.0516 28.04 46.0516 27.284C46.0516 26.528 46.1536 25.85 46.3576 25.25C46.5616 24.65 46.8496 24.14 47.2216 23.72C47.6056 23.288 48.0616 22.958 48.5896 22.73C49.1296 22.502 49.7356 22.388 50.4076 22.388C51.0796 22.388 51.6856 22.502 52.2256 22.73C52.7656 22.958 53.2216 23.288 53.5936 23.72C53.9776 24.14 54.2716 24.65 54.4756 25.25C54.6796 25.85 54.7816 26.528 54.7816 27.284C54.7816 28.04 54.6796 28.724 54.4756 29.336C54.2716 29.936 53.9776 30.452 53.5936 30.884C53.2216 31.316 52.7656 31.646 52.2256 31.874C51.6856 32.102 51.0796 32.216 50.4076 32.216ZM50.4076 30.362C51.0196 30.362 51.4996 30.176 51.8476 29.804C52.1956 29.432 52.3696 28.886 52.3696 28.166V26.42C52.3696 25.712 52.1956 25.172 51.8476 24.8C51.4996 24.428 51.0196 24.242 50.4076 24.242C49.8076 24.242 49.3336 24.428 48.9856 24.8C48.6376 25.172 48.4636 25.712 48.4636 26.42V28.166C48.4636 28.886 48.6376 29.432 48.9856 29.804C49.3336 30.176 49.8076 30.362 50.4076 30.362ZM56.8242 32V22.604H59.1282V24.17H59.2182C59.3982 23.678 59.6862 23.258 60.0822 22.91C60.4782 22.562 61.0302 22.388 61.7382 22.388C62.3862 22.388 62.9442 22.544 63.4122 22.856C63.8802 23.168 64.2282 23.642 64.4562 24.278H64.4922C64.6602 23.75 64.9902 23.306 65.4822 22.946C65.9862 22.574 66.6162 22.388 67.3722 22.388C68.2962 22.388 69.0042 22.706 69.4962 23.342C70.0002 23.978 70.2522 24.884 70.2522 26.06V32H67.9482V26.294C67.9482 24.95 67.4442 24.278 66.4362 24.278C66.2082 24.278 65.9862 24.314 65.7702 24.386C65.5662 24.446 65.3802 24.542 65.2122 24.674C65.0562 24.794 64.9302 24.95 64.8342 25.142C64.7382 25.322 64.6902 25.538 64.6902 25.79V32H62.3862V26.294C62.3862 24.95 61.8822 24.278 60.8742 24.278C60.6582 24.278 60.4422 24.314 60.2262 24.386C60.0222 24.446 59.8362 24.542 59.6682 24.674C59.5122 24.794 59.3802 24.95 59.2722 25.142C59.1762 25.322 59.1282 25.538 59.1282 25.79V32H56.8242ZM77.0566 18.68H79.3606V24.152H79.4326C79.6006 23.612 79.9186 23.186 80.3866 22.874C80.8546 22.55 81.4006 22.388 82.0246 22.388C83.2246 22.388 84.1366 22.814 84.7606 23.666C85.3966 24.506 85.7146 25.712 85.7146 27.284C85.7146 28.868 85.3966 30.086 84.7606 30.938C84.1366 31.79 83.2246 32.216 82.0246 32.216C81.4006 32.216 80.8546 32.054 80.3866 31.73C79.9306 31.406 79.6126 30.974 79.4326 30.434H79.3606V32H77.0566V18.68ZM81.2866 30.308C81.8866 30.308 82.3726 30.11 82.7446 29.714C83.1166 29.318 83.3026 28.784 83.3026 28.112V26.492C83.3026 25.82 83.1166 25.286 82.7446 24.89C82.3726 24.482 81.8866 24.278 81.2866 24.278C80.7346 24.278 80.2726 24.416 79.9006 24.692C79.5406 24.968 79.3606 25.334 79.3606 25.79V28.778C79.3606 29.27 79.5406 29.648 79.9006 29.912C80.2726 30.176 80.7346 30.308 81.2866 30.308ZM91.5756 32.216C90.9036 32.216 90.2976 32.102 89.7576 31.874C89.2296 31.646 88.7736 31.316 88.3896 30.884C88.0176 30.452 87.7296 29.936 87.5256 29.336C87.3216 28.724 87.2196 28.04 87.2196 27.284C87.2196 26.528 87.3216 25.85 87.5256 25.25C87.7296 24.65 88.0176 24.14 88.3896 23.72C88.7736 23.288 89.2296 22.958 89.7576 22.73C90.2976 22.502 90.9036 22.388 91.5756 22.388C92.2476 22.388 92.8536 22.502 93.3936 22.73C93.9336 22.958 94.3896 23.288 94.7616 23.72C95.1456 24.14 95.4396 24.65 95.6436 25.25C95.8476 25.85 95.9496 26.528 95.9496 27.284C95.9496 28.04 95.8476 28.724 95.6436 29.336C95.4396 29.936 95.1456 30.452 94.7616 30.884C94.3896 31.316 93.9336 31.646 93.3936 31.874C92.8536 32.102 92.2476 32.216 91.5756 32.216ZM91.5756 30.362C92.1876 30.362 92.6676 30.176 93.0156 29.804C93.3636 29.432 93.5376 28.886 93.5376 28.166V26.42C93.5376 25.712 93.3636 25.172 93.0156 24.8C92.6676 24.428 92.1876 24.242 91.5756 24.242C90.9756 24.242 90.5016 24.428 90.1536 24.8C89.8056 25.172 89.6316 25.712 89.6316 26.42V28.166C89.6316 28.886 89.8056 29.432 90.1536 29.804C90.5016 30.176 90.9756 30.362 91.5756 30.362ZM100.296 32C99.5042 32 98.9222 31.802 98.5502 31.406C98.1782 31.01 97.9922 30.452 97.9922 29.732V18.68H100.296V30.164H101.538V32H100.296ZM104.435 21.236C103.955 21.236 103.607 21.128 103.391 20.912C103.187 20.696 103.085 20.42 103.085 20.084V19.724C103.085 19.388 103.187 19.112 103.391 18.896C103.607 18.68 103.955 18.572 104.435 18.572C104.903 18.572 105.245 18.68 105.461 18.896C105.677 19.112 105.785 19.388 105.785 19.724V20.084C105.785 20.42 105.677 20.696 105.461 20.912C105.245 21.128 104.903 21.236 104.435 21.236ZM103.283 22.604H105.587V32H103.283V22.604ZM116.736 32.792C116.736 33.284 116.646 33.716 116.466 34.088C116.298 34.472 116.016 34.79 115.62 35.042C115.224 35.294 114.714 35.486 114.09 35.618C113.466 35.75 112.704 35.816 111.804 35.816C111.012 35.816 110.34 35.762 109.788 35.654C109.236 35.558 108.78 35.414 108.42 35.222C108.072 35.042 107.82 34.814 107.664 34.538C107.508 34.262 107.43 33.95 107.43 33.602C107.43 33.074 107.574 32.66 107.862 32.36C108.162 32.072 108.576 31.886 109.104 31.802V31.604C108.72 31.508 108.42 31.322 108.204 31.046C108 30.758 107.898 30.422 107.898 30.038C107.898 29.798 107.946 29.588 108.042 29.408C108.138 29.216 108.264 29.054 108.42 28.922C108.588 28.79 108.774 28.682 108.978 28.598C109.182 28.502 109.398 28.43 109.626 28.382V28.31C109.05 28.046 108.618 27.68 108.33 27.212C108.054 26.744 107.916 26.198 107.916 25.574C107.916 24.614 108.246 23.846 108.906 23.27C109.566 22.682 110.532 22.388 111.804 22.388C112.092 22.388 112.374 22.406 112.65 22.442C112.938 22.478 113.202 22.538 113.442 22.622V22.316C113.442 21.404 113.886 20.948 114.774 20.948H116.232V22.712H114.234V22.964C114.726 23.24 115.092 23.6 115.332 24.044C115.572 24.488 115.692 24.998 115.692 25.574C115.692 26.522 115.362 27.284 114.702 27.86C114.054 28.436 113.088 28.724 111.804 28.724C111.252 28.724 110.772 28.67 110.364 28.562C110.184 28.646 110.028 28.76 109.896 28.904C109.764 29.036 109.698 29.204 109.698 29.408C109.698 29.876 110.106 30.11 110.922 30.11H113.442C114.594 30.11 115.428 30.35 115.944 30.83C116.472 31.298 116.736 31.952 116.736 32.792ZM114.576 33.062C114.576 32.762 114.456 32.528 114.216 32.36C113.976 32.192 113.562 32.108 112.974 32.108H109.77C109.446 32.348 109.284 32.672 109.284 33.08C109.284 33.44 109.434 33.722 109.734 33.926C110.034 34.13 110.544 34.232 111.264 34.232H112.416C113.172 34.232 113.718 34.136 114.054 33.944C114.402 33.752 114.576 33.458 114.576 33.062ZM111.804 27.158C112.932 27.158 113.496 26.678 113.496 25.718V25.412C113.496 24.452 112.932 23.972 111.804 23.972C110.676 23.972 110.112 24.452 110.112 25.412V25.718C110.112 26.678 110.676 27.158 111.804 27.158ZM121.144 32.216C120.244 32.216 119.488 32.066 118.876 31.766C118.264 31.454 117.724 31.028 117.256 30.488L118.66 29.12C119.008 29.516 119.386 29.828 119.794 30.056C120.214 30.284 120.694 30.398 121.234 30.398C121.786 30.398 122.182 30.302 122.422 30.11C122.674 29.918 122.8 29.654 122.8 29.318C122.8 29.042 122.71 28.826 122.53 28.67C122.362 28.502 122.068 28.388 121.648 28.328L120.712 28.202C119.692 28.07 118.912 27.782 118.372 27.338C117.844 26.882 117.58 26.222 117.58 25.358C117.58 24.902 117.664 24.494 117.832 24.134C118 23.762 118.24 23.45 118.552 23.198C118.864 22.934 119.236 22.736 119.668 22.604C120.112 22.46 120.604 22.388 121.144 22.388C121.6 22.388 122.002 22.424 122.35 22.496C122.71 22.556 123.034 22.652 123.322 22.784C123.61 22.904 123.874 23.06 124.114 23.252C124.354 23.432 124.588 23.636 124.816 23.864L123.466 25.214C123.19 24.926 122.86 24.686 122.476 24.494C122.092 24.302 121.672 24.206 121.216 24.206C120.712 24.206 120.346 24.296 120.118 24.476C119.902 24.656 119.794 24.89 119.794 25.178C119.794 25.49 119.884 25.73 120.064 25.898C120.256 26.054 120.574 26.168 121.018 26.24L121.972 26.366C124 26.654 125.014 27.578 125.014 29.138C125.014 29.594 124.918 30.014 124.726 30.398C124.546 30.77 124.288 31.094 123.952 31.37C123.616 31.634 123.208 31.844 122.728 32C122.26 32.144 121.732 32.216 121.144 32.216ZM129.842 32C129.05 32 128.444 31.796 128.024 31.388C127.616 30.968 127.412 30.374 127.412 29.606V24.44H126.026V22.604H126.746C127.094 22.604 127.328 22.526 127.448 22.37C127.58 22.202 127.646 21.956 127.646 21.632V20.03H129.716V22.604H131.642V24.44H129.716V30.164H131.498V32H129.842ZM132.598 31.91L133.804 30.398C133.276 29.582 133.012 28.544 133.012 27.284C133.012 26.528 133.114 25.85 133.318 25.25C133.522 24.65 133.81 24.14 134.182 23.72C134.566 23.288 135.022 22.958 135.55 22.73C136.09 22.502 136.696 22.388 137.368 22.388C138.316 22.388 139.126 22.616 139.798 23.072L140.896 21.758L142.156 22.694L140.932 24.206C141.196 24.614 141.394 25.082 141.526 25.61C141.67 26.126 141.742 26.69 141.742 27.302C141.742 28.058 141.64 28.742 141.436 29.354C141.232 29.954 140.938 30.47 140.554 30.902C140.182 31.322 139.726 31.646 139.186 31.874C138.646 32.102 138.04 32.216 137.368 32.216C136.432 32.216 135.622 31.994 134.938 31.55L133.858 32.846L132.598 31.91ZM137.368 30.47C137.992 30.47 138.484 30.266 138.844 29.858C139.204 29.438 139.384 28.856 139.384 28.112V25.952L136.036 30.002C136.384 30.314 136.828 30.47 137.368 30.47ZM135.388 28.598L138.7 24.602C138.352 24.29 137.908 24.134 137.368 24.134C136.756 24.134 136.27 24.344 135.91 24.764C135.562 25.172 135.388 25.748 135.388 26.492V28.598ZM146.717 32C145.925 32 145.319 31.796 144.899 31.388C144.491 30.968 144.287 30.374 144.287 29.606V24.44H142.901V22.604H143.621C143.969 22.604 144.203 22.526 144.323 22.37C144.455 22.202 144.521 21.956 144.521 21.632V20.03H146.591V22.604H148.517V24.44H146.591V30.164H148.373V32H146.717ZM153.344 32C152.552 32 151.946 31.796 151.526 31.388C151.118 30.968 150.914 30.374 150.914 29.606V24.44H149.528V22.604H150.248C150.596 22.604 150.83 22.526 150.95 22.37C151.082 22.202 151.148 21.956 151.148 21.632V20.03H153.218V22.604H155.144V24.44H153.218V30.164H155V32H153.344ZM160.87 32.216C160.174 32.216 159.55 32.102 158.998 31.874C158.458 31.634 157.996 31.304 157.612 30.884C157.24 30.452 156.952 29.936 156.748 29.336C156.544 28.724 156.442 28.04 156.442 27.284C156.442 26.54 156.538 25.868 156.73 25.268C156.934 24.668 157.222 24.158 157.594 23.738C157.966 23.306 158.422 22.976 158.962 22.748C159.502 22.508 160.114 22.388 160.798 22.388C161.53 22.388 162.166 22.514 162.706 22.766C163.246 23.018 163.69 23.36 164.038 23.792C164.386 24.224 164.644 24.728 164.812 25.304C164.992 25.868 165.082 26.474 165.082 27.122V27.878H158.836V28.112C158.836 28.796 159.028 29.348 159.412 29.768C159.796 30.176 160.366 30.38 161.122 30.38C161.698 30.38 162.166 30.26 162.526 30.02C162.898 29.78 163.228 29.474 163.516 29.102L164.758 30.488C164.374 31.028 163.846 31.454 163.174 31.766C162.514 32.066 161.746 32.216 160.87 32.216ZM160.834 24.116C160.222 24.116 159.736 24.32 159.376 24.728C159.016 25.136 158.836 25.664 158.836 26.312V26.456H162.688V26.294C162.688 25.646 162.526 25.124 162.202 24.728C161.89 24.32 161.434 24.116 160.834 24.116Z" fill="#474E95"/>
<path d="M14.984 61.168C14.34 61.168 13.7567 61.0607 13.234 60.846C12.7113 60.6313 12.2633 60.3093 11.89 59.88C11.526 59.4507 11.2413 58.9233 11.036 58.298C10.8307 57.6727 10.728 56.9447 10.728 56.114C10.728 55.2927 10.8307 54.5693 11.036 53.944C11.2413 53.3093 11.526 52.7773 11.89 52.348C12.2633 51.9187 12.7113 51.5967 13.234 51.382C13.7567 51.1673 14.34 51.06 14.984 51.06C15.628 51.06 16.2113 51.1673 16.734 51.382C17.2567 51.5967 17.7047 51.9187 18.078 52.348C18.4513 52.7773 18.736 53.3093 18.932 53.944C19.1373 54.5693 19.24 55.2927 19.24 56.114C19.24 56.9447 19.1373 57.6727 18.932 58.298C18.736 58.9233 18.4513 59.4507 18.078 59.88C17.7047 60.3093 17.2567 60.6313 16.734 60.846C16.2113 61.0607 15.628 61.168 14.984 61.168ZM14.984 59.53C15.684 59.53 16.2393 59.2967 16.65 58.83C17.07 58.3633 17.28 57.71 17.28 56.87V55.358C17.28 54.518 17.07 53.8647 16.65 53.398C16.2393 52.9313 15.684 52.698 14.984 52.698C14.284 52.698 13.724 52.9313 13.304 53.398C12.8933 53.8647 12.688 54.518 12.688 55.358V56.87C12.688 57.71 12.8933 58.3633 13.304 58.83C13.724 59.2967 14.284 59.53 14.984 59.53ZM21.0028 53.692H22.7948V54.896H22.8508C22.9815 54.476 23.2288 54.1447 23.5928 53.902C23.9568 53.65 24.3815 53.524 24.8668 53.524C25.8001 53.524 26.5095 53.8553 26.9948 54.518C27.4895 55.1713 27.7368 56.1093 27.7368 57.332C27.7368 58.564 27.4895 59.5113 26.9948 60.174C26.5095 60.8367 25.8001 61.168 24.8668 61.168C24.3815 61.168 23.9568 61.042 23.5928 60.79C23.2381 60.538 22.9908 60.202 22.8508 59.782H22.7948V63.8H21.0028V53.692ZM24.2928 59.684C24.7595 59.684 25.1375 59.53 25.4268 59.222C25.7161 58.914 25.8608 58.4987 25.8608 57.976V56.716C25.8608 56.1933 25.7161 55.778 25.4268 55.47C25.1375 55.1527 24.7595 54.994 24.2928 54.994C23.8635 54.994 23.5041 55.1013 23.2148 55.316C22.9348 55.5307 22.7948 55.8153 22.7948 56.17V58.494C22.7948 58.8767 22.9348 59.1707 23.2148 59.376C23.5041 59.5813 23.8635 59.684 24.2928 59.684ZM31.1893 61C30.5733 61 30.1207 60.846 29.8313 60.538C29.542 60.23 29.3973 59.796 29.3973 59.236V50.64H31.1893V59.572H32.1553V61H31.1893ZM37.8969 53.692H39.5769L36.6369 62.302C36.5435 62.5633 36.4362 62.7873 36.3149 62.974C36.2029 63.17 36.0675 63.3287 35.9089 63.45C35.7502 63.5713 35.5589 63.66 35.3349 63.716C35.1109 63.772 34.8495 63.8 34.5509 63.8H33.4729V62.372H34.7889L35.1249 61.35L32.5069 53.692H34.2849L35.5589 57.556L36.0349 59.404H36.1189L36.6229 57.556L37.8969 53.692ZM43.0433 61.168C42.3433 61.168 41.7553 61.0513 41.2793 60.818C40.8033 60.5753 40.3833 60.244 40.0193 59.824L41.1113 58.76C41.3819 59.068 41.6759 59.3107 41.9933 59.488C42.3199 59.6653 42.6933 59.754 43.1133 59.754C43.5426 59.754 43.8506 59.6793 44.0373 59.53C44.2333 59.3807 44.3313 59.1753 44.3313 58.914C44.3313 58.6993 44.2613 58.5313 44.1213 58.41C43.9906 58.2793 43.7619 58.1907 43.4353 58.144L42.7073 58.046C41.9139 57.9433 41.3073 57.7193 40.8873 57.374C40.4766 57.0193 40.2713 56.506 40.2713 55.834C40.2713 55.4793 40.3366 55.162 40.4673 54.882C40.5979 54.5927 40.7846 54.35 41.0273 54.154C41.2699 53.9487 41.5593 53.7947 41.8953 53.692C42.2406 53.58 42.6233 53.524 43.0433 53.524C43.3979 53.524 43.7106 53.552 43.9813 53.608C44.2613 53.6547 44.5133 53.7293 44.7373 53.832C44.9613 53.9253 45.1666 54.0467 45.3533 54.196C45.5399 54.336 45.7219 54.4947 45.8993 54.672L44.8493 55.722C44.6346 55.498 44.3779 55.3113 44.0793 55.162C43.7806 55.0127 43.4539 54.938 43.0993 54.938C42.7073 54.938 42.4226 55.008 42.2453 55.148C42.0773 55.288 41.9933 55.47 41.9933 55.694C41.9933 55.9367 42.0633 56.1233 42.2033 56.254C42.3526 56.3753 42.5999 56.464 42.9453 56.52L43.6873 56.618C45.2646 56.842 46.0533 57.5607 46.0533 58.774C46.0533 59.1287 45.9786 59.4553 45.8293 59.754C45.6893 60.0433 45.4886 60.2953 45.2273 60.51C44.9659 60.7153 44.6486 60.8787 44.2753 61C43.9113 61.112 43.5006 61.168 43.0433 61.168ZM47.6356 61V53.692H49.4276V54.91H49.4976C49.6469 54.518 49.8803 54.1913 50.1976 53.93C50.5243 53.6593 50.9723 53.524 51.5416 53.524C52.2976 53.524 52.8763 53.7713 53.2776 54.266C53.6789 54.7607 53.8796 55.4653 53.8796 56.38V61H52.0876V56.562C52.0876 56.0393 51.9943 55.6473 51.8076 55.386C51.6209 55.1247 51.3129 54.994 50.8836 54.994C50.6969 54.994 50.5149 55.022 50.3376 55.078C50.1696 55.1247 50.0156 55.1993 49.8756 55.302C49.7449 55.3953 49.6376 55.5167 49.5536 55.666C49.4696 55.806 49.4276 55.974 49.4276 56.17V61H47.6356ZM56.7621 52.628C56.3887 52.628 56.1181 52.544 55.9501 52.376C55.7914 52.208 55.7121 51.9933 55.7121 51.732V51.452C55.7121 51.1907 55.7914 50.976 55.9501 50.808C56.1181 50.64 56.3887 50.556 56.7621 50.556C57.1261 50.556 57.3921 50.64 57.5601 50.808C57.7281 50.976 57.8121 51.1907 57.8121 51.452V51.732C57.8121 51.9933 57.7281 52.208 57.5601 52.376C57.3921 52.544 57.1261 52.628 56.7621 52.628ZM55.8661 53.692H57.6581V61H55.8661V53.692ZM59.7352 61V53.692H61.5272V54.91H61.5972C61.7466 54.518 61.9799 54.1913 62.2972 53.93C62.6239 53.6593 63.0719 53.524 63.6412 53.524C64.3972 53.524 64.9759 53.7713 65.3772 54.266C65.7786 54.7607 65.9792 55.4653 65.9792 56.38V61H64.1872V56.562C64.1872 56.0393 64.0939 55.6473 63.9072 55.386C63.7206 55.1247 63.4126 54.994 62.9832 54.994C62.7966 54.994 62.6146 55.022 62.4372 55.078C62.2692 55.1247 62.1152 55.1993 61.9752 55.302C61.8446 55.3953 61.7372 55.5167 61.6532 55.666C61.5692 55.806 61.5272 55.974 61.5272 56.17V61H59.7352ZM74.5597 61.616C74.5597 61.9987 74.4897 62.3347 74.3497 62.624C74.219 62.9227 73.9997 63.17 73.6917 63.366C73.3837 63.562 72.987 63.7113 72.5017 63.814C72.0164 63.9167 71.4237 63.968 70.7237 63.968C70.1077 63.968 69.585 63.926 69.1557 63.842C68.7264 63.7673 68.3717 63.6553 68.0917 63.506C67.821 63.366 67.625 63.1887 67.5037 62.974C67.3824 62.7593 67.3217 62.5167 67.3217 62.246C67.3217 61.8353 67.4337 61.5133 67.6577 61.28C67.891 61.056 68.213 60.9113 68.6237 60.846V60.692C68.325 60.6173 68.0917 60.4727 67.9237 60.258C67.765 60.034 67.6857 59.7727 67.6857 59.474C67.6857 59.2873 67.723 59.124 67.7977 58.984C67.8724 58.8347 67.9704 58.7087 68.0917 58.606C68.2224 58.5033 68.367 58.4193 68.5257 58.354C68.6844 58.2793 68.8524 58.2233 69.0297 58.186V58.13C68.5817 57.9247 68.2457 57.64 68.0217 57.276C67.807 56.912 67.6997 56.4873 67.6997 56.002C67.6997 55.2553 67.9564 54.658 68.4697 54.21C68.983 53.7527 69.7344 53.524 70.7237 53.524C70.9477 53.524 71.167 53.538 71.3817 53.566C71.6057 53.594 71.811 53.6407 71.9977 53.706V53.468C71.9977 52.7587 72.343 52.404 73.0337 52.404H74.1677V53.776H72.6137V53.972C72.9964 54.1867 73.281 54.4667 73.4677 54.812C73.6544 55.1573 73.7477 55.554 73.7477 56.002C73.7477 56.7393 73.491 57.332 72.9777 57.78C72.4737 58.228 71.7224 58.452 70.7237 58.452C70.2944 58.452 69.921 58.41 69.6037 58.326C69.4637 58.3913 69.3424 58.48 69.2397 58.592C69.137 58.6947 69.0857 58.8253 69.0857 58.984C69.0857 59.348 69.403 59.53 70.0377 59.53H71.9977C72.8937 59.53 73.5424 59.7167 73.9437 60.09C74.3544 60.454 74.5597 60.9627 74.5597 61.616ZM72.8797 61.826C72.8797 61.5927 72.7864 61.4107 72.5997 61.28C72.413 61.1493 72.091 61.084 71.6337 61.084H69.1417C68.8897 61.2707 68.7637 61.5227 68.7637 61.84C68.7637 62.12 68.8804 62.3393 69.1137 62.498C69.347 62.6567 69.7437 62.736 70.3037 62.736H71.1997C71.7877 62.736 72.2124 62.6613 72.4737 62.512C72.7444 62.3627 72.8797 62.134 72.8797 61.826ZM70.7237 57.234C71.601 57.234 72.0397 56.8607 72.0397 56.114V55.876C72.0397 55.1293 71.601 54.756 70.7237 54.756C69.8464 54.756 69.4077 55.1293 69.4077 55.876V56.114C69.4077 56.8607 69.8464 57.234 70.7237 57.234ZM78.4666 61.168C77.9252 61.168 77.4399 61.0793 77.0106 60.902C76.5906 60.7153 76.2312 60.4587 75.9326 60.132C75.6432 59.796 75.4192 59.3947 75.2606 58.928C75.1019 58.452 75.0226 57.92 75.0226 57.332C75.0226 56.7533 75.0972 56.2307 75.2466 55.764C75.4052 55.2973 75.6292 54.9007 75.9186 54.574C76.2079 54.238 76.5626 53.9813 76.9826 53.804C77.4026 53.6173 77.8786 53.524 78.4106 53.524C78.9799 53.524 79.4746 53.622 79.8946 53.818C80.3146 54.014 80.6599 54.28 80.9306 54.616C81.2012 54.952 81.4019 55.344 81.5326 55.792C81.6726 56.2307 81.7426 56.702 81.7426 57.206V57.794H76.8846V57.976C76.8846 58.508 77.0339 58.9373 77.3326 59.264C77.6312 59.5813 78.0746 59.74 78.6626 59.74C79.1106 59.74 79.4746 59.6467 79.7546 59.46C80.0439 59.2733 80.3006 59.0353 80.5246 58.746L81.4906 59.824C81.1919 60.244 80.7812 60.5753 80.2586 60.818C79.7452 61.0513 79.1479 61.168 78.4666 61.168ZM78.4386 54.868C77.9626 54.868 77.5846 55.0267 77.3046 55.344C77.0246 55.6613 76.8846 56.072 76.8846 56.576V56.688H79.8806V56.562C79.8806 56.058 79.7546 55.652 79.5026 55.344C79.2599 55.0267 78.9052 54.868 78.4386 54.868ZM83.3192 61V53.692H85.1112V55.204H85.1812C85.2279 55.008 85.2979 54.8213 85.3912 54.644C85.4939 54.4573 85.6245 54.294 85.7832 54.154C85.9419 54.014 86.1285 53.902 86.3432 53.818C86.5672 53.734 86.8239 53.692 87.1132 53.692H87.5052V55.386H86.9452C86.3385 55.386 85.8812 55.4747 85.5732 55.652C85.2652 55.8293 85.1112 56.1187 85.1112 56.52V61H83.3192ZM95.0219 61.168C94.4992 61.168 94.0279 61.0793 93.6079 60.902C93.1972 60.7247 92.8426 60.468 92.5439 60.132C92.2546 59.796 92.0306 59.3947 91.8719 58.928C91.7132 58.452 91.6339 57.92 91.6339 57.332C91.6339 56.744 91.7132 56.2167 91.8719 55.75C92.0306 55.2833 92.2546 54.8867 92.5439 54.56C92.8426 54.224 93.1972 53.9673 93.6079 53.79C94.0279 53.6127 94.4992 53.524 95.0219 53.524C95.5446 53.524 96.0159 53.6127 96.4359 53.79C96.8559 53.9673 97.2106 54.224 97.4999 54.56C97.7986 54.8867 98.0272 55.2833 98.1859 55.75C98.3446 56.2167 98.4239 56.744 98.4239 57.332C98.4239 57.92 98.3446 58.452 98.1859 58.928C98.0272 59.3947 97.7986 59.796 97.4999 60.132C97.2106 60.468 96.8559 60.7247 96.4359 60.902C96.0159 61.0793 95.5446 61.168 95.0219 61.168ZM95.0219 59.726C95.4979 59.726 95.8712 59.5813 96.1419 59.292C96.4126 59.0027 96.5479 58.578 96.5479 58.018V56.66C96.5479 56.1093 96.4126 55.6893 96.1419 55.4C95.8712 55.1107 95.4979 54.966 95.0219 54.966C94.5552 54.966 94.1866 55.1107 93.9159 55.4C93.6452 55.6893 93.5099 56.1093 93.5099 56.66V58.018C93.5099 58.578 93.6452 59.0027 93.9159 59.292C94.1866 59.5813 94.5552 59.726 95.0219 59.726ZM100.013 61V53.692H101.805V54.91H101.875C102.015 54.5273 102.239 54.2007 102.547 53.93C102.855 53.6593 103.284 53.524 103.835 53.524C104.339 53.524 104.773 53.6453 105.137 53.888C105.501 54.1307 105.771 54.4993 105.949 54.994H105.977C106.107 54.5833 106.364 54.238 106.747 53.958C107.139 53.6687 107.629 53.524 108.217 53.524C108.935 53.524 109.486 53.7713 109.869 54.266C110.261 54.7607 110.457 55.4653 110.457 56.38V61H108.665V56.562C108.665 55.5167 108.273 54.994 107.489 54.994C107.311 54.994 107.139 55.022 106.971 55.078C106.812 55.1247 106.667 55.1993 106.537 55.302C106.415 55.3953 106.317 55.5167 106.243 55.666C106.168 55.806 106.131 55.974 106.131 56.17V61H104.339V56.562C104.339 55.5167 103.947 54.994 103.163 54.994C102.995 54.994 102.827 55.022 102.659 55.078C102.5 55.1247 102.355 55.1993 102.225 55.302C102.103 55.3953 102.001 55.5167 101.917 55.666C101.842 55.806 101.805 55.974 101.805 56.17V61H100.013ZM120.285 59.782H120.215C120.084 60.202 119.837 60.538 119.473 60.79C119.109 61.042 118.684 61.168 118.199 61.168C117.275 61.168 116.566 60.8367 116.071 60.174C115.586 59.5113 115.343 58.564 115.343 57.332C115.343 56.1093 115.586 55.1713 116.071 54.518C116.566 53.8553 117.275 53.524 118.199 53.524C118.684 53.524 119.109 53.65 119.473 53.902C119.837 54.1447 120.084 54.476 120.215 54.896H120.285V50.64H122.077V61H120.285V59.782ZM118.773 59.684C119.202 59.684 119.562 59.5813 119.851 59.376C120.14 59.1707 120.285 58.8767 120.285 58.494V56.17C120.285 55.8153 120.14 55.5307 119.851 55.316C119.562 55.1013 119.202 54.994 118.773 54.994C118.306 54.994 117.928 55.1527 117.639 55.47C117.359 55.778 117.219 56.1933 117.219 56.716V57.976C117.219 58.4987 117.359 58.914 117.639 59.222C117.928 59.53 118.306 59.684 118.773 59.684ZM127.097 61.168C126.556 61.168 126.071 61.0793 125.641 60.902C125.221 60.7153 124.862 60.4587 124.563 60.132C124.274 59.796 124.05 59.3947 123.891 58.928C123.733 58.452 123.653 57.92 123.653 57.332C123.653 56.7533 123.728 56.2307 123.877 55.764C124.036 55.2973 124.26 54.9007 124.549 54.574C124.839 54.238 125.193 53.9813 125.613 53.804C126.033 53.6173 126.509 53.524 127.041 53.524C127.611 53.524 128.105 53.622 128.525 53.818C128.945 54.014 129.291 54.28 129.561 54.616C129.832 54.952 130.033 55.344 130.163 55.792C130.303 56.2307 130.373 56.702 130.373 57.206V57.794H125.515V57.976C125.515 58.508 125.665 58.9373 125.963 59.264C126.262 59.5813 126.705 59.74 127.293 59.74C127.741 59.74 128.105 59.6467 128.385 59.46C128.675 59.2733 128.931 59.0353 129.155 58.746L130.121 59.824C129.823 60.244 129.412 60.5753 128.889 60.818C128.376 61.0513 127.779 61.168 127.097 61.168ZM127.069 54.868C126.593 54.868 126.215 55.0267 125.935 55.344C125.655 55.6613 125.515 56.072 125.515 56.576V56.688H128.511V56.562C128.511 56.058 128.385 55.652 128.133 55.344C127.891 55.0267 127.536 54.868 127.069 54.868ZM131.95 61V53.692H133.742V54.91H133.812C133.961 54.518 134.195 54.1913 134.512 53.93C134.839 53.6593 135.287 53.524 135.856 53.524C136.612 53.524 137.191 53.7713 137.592 54.266C137.993 54.7607 138.194 55.4653 138.194 56.38V61H136.402V56.562C136.402 56.0393 136.309 55.6473 136.122 55.386C135.935 55.1247 135.627 54.994 135.198 54.994C135.011 54.994 134.829 55.022 134.652 55.078C134.484 55.1247 134.33 55.1993 134.19 55.302C134.059 55.3953 133.952 55.5167 133.868 55.666C133.784 55.806 133.742 55.974 133.742 56.17V61H131.95ZM143.489 50.64H145.281V54.896H145.337C145.468 54.476 145.715 54.1447 146.079 53.902C146.443 53.65 146.868 53.524 147.353 53.524C148.286 53.524 148.996 53.8553 149.481 54.518C149.976 55.1713 150.223 56.1093 150.223 57.332C150.223 58.564 149.976 59.5113 149.481 60.174C148.996 60.8367 148.286 61.168 147.353 61.168C146.868 61.168 146.443 61.042 146.079 60.79C145.724 60.538 145.477 60.202 145.337 59.782H145.281V61H143.489V50.64ZM146.779 59.684C147.246 59.684 147.624 59.53 147.913 59.222C148.202 58.914 148.347 58.4987 148.347 57.976V56.716C148.347 56.1933 148.202 55.778 147.913 55.47C147.624 55.1527 147.246 54.994 146.779 54.994C146.35 54.994 145.99 55.1013 145.701 55.316C145.421 55.5307 145.281 55.8153 145.281 56.17V58.494C145.281 58.8767 145.421 59.1707 145.701 59.376C145.99 59.5813 146.35 59.684 146.779 59.684ZM154.782 61.168C154.259 61.168 153.788 61.0793 153.368 60.902C152.957 60.7247 152.602 60.468 152.304 60.132C152.014 59.796 151.79 59.3947 151.632 58.928C151.473 58.452 151.394 57.92 151.394 57.332C151.394 56.744 151.473 56.2167 151.632 55.75C151.79 55.2833 152.014 54.8867 152.304 54.56C152.602 54.224 152.957 53.9673 153.368 53.79C153.788 53.6127 154.259 53.524 154.782 53.524C155.304 53.524 155.776 53.6127 156.196 53.79C156.616 53.9673 156.97 54.224 157.26 54.56C157.558 54.8867 157.787 55.2833 157.946 55.75C158.104 56.2167 158.184 56.744 158.184 57.332C158.184 57.92 158.104 58.452 157.946 58.928C157.787 59.3947 157.558 59.796 157.26 60.132C156.97 60.468 156.616 60.7247 156.196 60.902C155.776 61.0793 155.304 61.168 154.782 61.168ZM154.782 59.726C155.258 59.726 155.631 59.5813 155.902 59.292C156.172 59.0027 156.308 58.578 156.308 58.018V56.66C156.308 56.1093 156.172 55.6893 155.902 55.4C155.631 55.1107 155.258 54.966 154.782 54.966C154.315 54.966 153.946 55.1107 153.676 55.4C153.405 55.6893 153.27 56.1093 153.27 56.66V58.018C153.27 58.578 153.405 59.0027 153.676 59.292C153.946 59.5813 154.315 59.726 154.782 59.726ZM161.564 61C160.948 61 160.496 60.846 160.206 60.538C159.917 60.23 159.772 59.796 159.772 59.236V50.64H161.564V59.572H162.53V61H161.564ZM164.784 52.628C164.41 52.628 164.14 52.544 163.972 52.376C163.813 52.208 163.734 51.9933 163.734 51.732V51.452C163.734 51.1907 163.813 50.976 163.972 50.808C164.14 50.64 164.41 50.556 164.784 50.556C165.148 50.556 165.414 50.64 165.582 50.808C165.75 50.976 165.834 51.1907 165.834 51.452V51.732C165.834 51.9933 165.75 52.208 165.582 52.376C165.414 52.544 165.148 52.628 164.784 52.628ZM163.888 53.692H165.68V61H163.888V53.692ZM174.351 61.616C174.351 61.9987 174.281 62.3347 174.141 62.624C174.01 62.9227 173.791 63.17 173.483 63.366C173.175 63.562 172.778 63.7113 172.293 63.814C171.807 63.9167 171.215 63.968 170.515 63.968C169.899 63.968 169.376 63.926 168.947 63.842C168.517 63.7673 168.163 63.6553 167.883 63.506C167.612 63.366 167.416 63.1887 167.295 62.974C167.173 62.7593 167.113 62.5167 167.113 62.246C167.113 61.8353 167.225 61.5133 167.449 61.28C167.682 61.056 168.004 60.9113 168.415 60.846V60.692C168.116 60.6173 167.883 60.4727 167.715 60.258C167.556 60.034 167.477 59.7727 167.477 59.474C167.477 59.2873 167.514 59.124 167.589 58.984C167.663 58.8347 167.761 58.7087 167.883 58.606C168.013 58.5033 168.158 58.4193 168.317 58.354C168.475 58.2793 168.643 58.2233 168.821 58.186V58.13C168.373 57.9247 168.037 57.64 167.813 57.276C167.598 56.912 167.491 56.4873 167.491 56.002C167.491 55.2553 167.747 54.658 168.261 54.21C168.774 53.7527 169.525 53.524 170.515 53.524C170.739 53.524 170.958 53.538 171.173 53.566C171.397 53.594 171.602 53.6407 171.789 53.706V53.468C171.789 52.7587 172.134 52.404 172.825 52.404H173.959V53.776H172.405V53.972C172.787 54.1867 173.072 54.4667 173.259 54.812C173.445 55.1573 173.539 55.554 173.539 56.002C173.539 56.7393 173.282 57.332 172.769 57.78C172.265 58.228 171.513 58.452 170.515 58.452C170.085 58.452 169.712 58.41 169.395 58.326C169.255 58.3913 169.133 58.48 169.031 58.592C168.928 58.6947 168.877 58.8253 168.877 58.984C168.877 59.348 169.194 59.53 169.829 59.53H171.789C172.685 59.53 173.333 59.7167 173.735 60.09C174.145 60.454 174.351 60.9627 174.351 61.616ZM172.671 61.826C172.671 61.5927 172.577 61.4107 172.391 61.28C172.204 61.1493 171.882 61.084 171.425 61.084H168.933C168.681 61.2707 168.555 61.5227 168.555 61.84C168.555 62.12 168.671 62.3393 168.905 62.498C169.138 62.6567 169.535 62.736 170.095 62.736H170.991C171.579 62.736 172.003 62.6613 172.265 62.512C172.535 62.3627 172.671 62.134 172.671 61.826ZM170.515 57.234C171.392 57.234 171.831 56.8607 171.831 56.114V55.876C171.831 55.1293 171.392 54.756 170.515 54.756C169.637 54.756 169.199 55.1293 169.199 55.876V56.114C169.199 56.8607 169.637 57.234 170.515 57.234ZM176.573 58.844C176.956 58.844 177.236 58.942 177.413 59.138C177.6 59.334 177.693 59.5813 177.693 59.88V60.132C177.693 60.384 177.656 60.6453 177.581 60.916C177.516 61.1867 177.418 61.448 177.287 61.7C177.166 61.952 177.016 62.19 176.839 62.414C176.671 62.638 176.48 62.834 176.265 63.002H174.991C175.308 62.694 175.574 62.3907 175.789 62.092C176.004 61.8027 176.167 61.4807 176.279 61.126C175.99 61.0793 175.78 60.9673 175.649 60.79C175.518 60.6033 175.453 60.384 175.453 60.132V59.88C175.453 59.5813 175.542 59.334 175.719 59.138C175.896 58.942 176.181 58.844 176.573 58.844ZM187.523 59.782H187.453C187.323 60.202 187.075 60.538 186.711 60.79C186.347 61.042 185.923 61.168 185.437 61.168C184.513 61.168 183.804 60.8367 183.309 60.174C182.824 59.5113 182.581 58.564 182.581 57.332C182.581 56.1093 182.824 55.1713 183.309 54.518C183.804 53.8553 184.513 53.524 185.437 53.524C185.923 53.524 186.347 53.65 186.711 53.902C187.075 54.1447 187.323 54.476 187.453 54.896H187.523V50.64H189.315V61H187.523V59.782ZM186.011 59.684C186.441 59.684 186.8 59.5813 187.089 59.376C187.379 59.1707 187.523 58.8767 187.523 58.494V56.17C187.523 55.8153 187.379 55.5307 187.089 55.316C186.8 55.1013 186.441 54.994 186.011 54.994C185.545 54.994 185.167 55.1527 184.877 55.47C184.597 55.778 184.457 56.1933 184.457 56.716V57.976C184.457 58.4987 184.597 58.914 184.877 59.222C185.167 59.53 185.545 59.684 186.011 59.684ZM195.75 59.782H195.68C195.614 59.9687 195.526 60.146 195.414 60.314C195.311 60.4727 195.176 60.6173 195.008 60.748C194.849 60.8787 194.653 60.9813 194.42 61.056C194.196 61.1307 193.934 61.168 193.636 61.168C192.88 61.168 192.301 60.9207 191.9 60.426C191.498 59.9313 191.298 59.2267 191.298 58.312V53.692H193.09V58.13C193.09 58.634 193.188 59.0213 193.384 59.292C193.58 59.5533 193.892 59.684 194.322 59.684C194.499 59.684 194.672 59.6607 194.84 59.614C195.017 59.5673 195.171 59.4973 195.302 59.404C195.432 59.3013 195.54 59.18 195.624 59.04C195.708 58.8907 195.75 58.718 195.75 58.522V53.692H197.542V61H195.75V59.782ZM205.315 61.168C204.615 61.168 204.027 61.0513 203.551 60.818C203.075 60.5753 202.655 60.244 202.291 59.824L203.383 58.76C203.653 59.068 203.947 59.3107 204.265 59.488C204.591 59.6653 204.965 59.754 205.385 59.754C205.814 59.754 206.122 59.6793 206.309 59.53C206.505 59.3807 206.603 59.1753 206.603 58.914C206.603 58.6993 206.533 58.5313 206.393 58.41C206.262 58.2793 206.033 58.1907 205.707 58.144L204.979 58.046C204.185 57.9433 203.579 57.7193 203.159 57.374C202.748 57.0193 202.543 56.506 202.543 55.834C202.543 55.4793 202.608 55.162 202.739 54.882C202.869 54.5927 203.056 54.35 203.299 54.154C203.541 53.9487 203.831 53.7947 204.167 53.692C204.512 53.58 204.895 53.524 205.315 53.524C205.669 53.524 205.982 53.552 206.253 53.608C206.533 53.6547 206.785 53.7293 207.009 53.832C207.233 53.9253 207.438 54.0467 207.625 54.196C207.811 54.336 207.993 54.4947 208.171 54.672L207.121 55.722C206.906 55.498 206.649 55.3113 206.351 55.162C206.052 55.0127 205.725 54.938 205.371 54.938C204.979 54.938 204.694 55.008 204.517 55.148C204.349 55.288 204.265 55.47 204.265 55.694C204.265 55.9367 204.335 56.1233 204.475 56.254C204.624 56.3753 204.871 56.464 205.217 56.52L205.959 56.618C207.536 56.842 208.325 57.5607 208.325 58.774C208.325 59.1287 208.25 59.4553 208.101 59.754C207.961 60.0433 207.76 60.2953 207.499 60.51C207.237 60.7153 206.92 60.8787 206.547 61C206.183 61.112 205.772 61.168 205.315 61.168ZM209.151 60.93L210.089 59.754C209.678 59.1193 209.473 58.312 209.473 57.332C209.473 56.744 209.552 56.2167 209.711 55.75C209.87 55.2833 210.094 54.8867 210.383 54.56C210.682 54.224 211.036 53.9673 211.447 53.79C211.867 53.6127 212.338 53.524 212.861 53.524C213.598 53.524 214.228 53.7013 214.751 54.056L215.605 53.034L216.585 53.762L215.633 54.938C215.838 55.2553 215.992 55.6193 216.095 56.03C216.207 56.4313 216.263 56.87 216.263 57.346C216.263 57.934 216.184 58.466 216.025 58.942C215.866 59.4087 215.638 59.81 215.339 60.146C215.05 60.4727 214.695 60.7247 214.275 60.902C213.855 61.0793 213.384 61.168 212.861 61.168C212.133 61.168 211.503 60.9953 210.971 60.65L210.131 61.658L209.151 60.93ZM212.861 59.81C213.346 59.81 213.729 59.6513 214.009 59.334C214.289 59.0073 214.429 58.5547 214.429 57.976V56.296L211.825 59.446C212.096 59.6887 212.441 59.81 212.861 59.81ZM211.321 58.354L213.897 55.246C213.626 55.0033 213.281 54.882 212.861 54.882C212.385 54.882 212.007 55.0453 211.727 55.372C211.456 55.6893 211.321 56.1373 211.321 56.716V58.354ZM224.499 61.616C224.499 61.9987 224.429 62.3347 224.289 62.624C224.158 62.9227 223.939 63.17 223.631 63.366C223.323 63.562 222.926 63.7113 222.441 63.814C221.956 63.9167 221.363 63.968 220.663 63.968C220.047 63.968 219.524 63.926 219.095 63.842C218.666 63.7673 218.311 63.6553 218.031 63.506C217.76 63.366 217.564 63.1887 217.443 62.974C217.322 62.7593 217.261 62.5167 217.261 62.246C217.261 61.8353 217.373 61.5133 217.597 61.28C217.83 61.056 218.152 60.9113 218.563 60.846V60.692C218.264 60.6173 218.031 60.4727 217.863 60.258C217.704 60.034 217.625 59.7727 217.625 59.474C217.625 59.2873 217.662 59.124 217.737 58.984C217.812 58.8347 217.91 58.7087 218.031 58.606C218.162 58.5033 218.306 58.4193 218.465 58.354C218.624 58.2793 218.792 58.2233 218.969 58.186V58.13C218.521 57.9247 218.185 57.64 217.961 57.276C217.746 56.912 217.639 56.4873 217.639 56.002C217.639 55.2553 217.896 54.658 218.409 54.21C218.922 53.7527 219.674 53.524 220.663 53.524C220.887 53.524 221.106 53.538 221.321 53.566C221.545 53.594 221.75 53.6407 221.937 53.706V53.468C221.937 52.7587 222.282 52.404 222.973 52.404H224.107V53.776H222.553V53.972C222.936 54.1867 223.22 54.4667 223.407 54.812C223.594 55.1573 223.687 55.554 223.687 56.002C223.687 56.7393 223.43 57.332 222.917 57.78C222.413 58.228 221.662 58.452 220.663 58.452C220.234 58.452 219.86 58.41 219.543 58.326C219.403 58.3913 219.282 58.48 219.179 58.592C219.076 58.6947 219.025 58.8253 219.025 58.984C219.025 59.348 219.342 59.53 219.977 59.53H221.937C222.833 59.53 223.482 59.7167 223.883 60.09C224.294 60.454 224.499 60.9627 224.499 61.616ZM222.819 61.826C222.819 61.5927 222.726 61.4107 222.539 61.28C222.352 61.1493 222.03 61.084 221.573 61.084H219.081C218.829 61.2707 218.703 61.5227 218.703 61.84C218.703 62.12 218.82 62.3393 219.053 62.498C219.286 62.6567 219.683 62.736 220.243 62.736H221.139C221.727 62.736 222.152 62.6613 222.413 62.512C222.684 62.3627 222.819 62.134 222.819 61.826ZM220.663 57.234C221.54 57.234 221.979 56.8607 221.979 56.114V55.876C221.979 55.1293 221.54 54.756 220.663 54.756C219.786 54.756 219.347 55.1293 219.347 55.876V56.114C219.347 56.8607 219.786 57.234 220.663 57.234ZM228.406 61.168C227.865 61.168 227.379 61.0793 226.95 60.902C226.53 60.7153 226.171 60.4587 225.872 60.132C225.583 59.796 225.359 59.3947 225.2 58.928C225.041 58.452 224.962 57.92 224.962 57.332C224.962 56.7533 225.037 56.2307 225.186 55.764C225.345 55.2973 225.569 54.9007 225.858 54.574C226.147 54.238 226.502 53.9813 226.922 53.804C227.342 53.6173 227.818 53.524 228.35 53.524C228.919 53.524 229.414 53.622 229.834 53.818C230.254 54.014 230.599 54.28 230.87 54.616C231.141 54.952 231.341 55.344 231.472 55.792C231.612 56.2307 231.682 56.702 231.682 57.206V57.794H226.824V57.976C226.824 58.508 226.973 58.9373 227.272 59.264C227.571 59.5813 228.014 59.74 228.602 59.74C229.05 59.74 229.414 59.6467 229.694 59.46C229.983 59.2733 230.24 59.0353 230.464 58.746L231.43 59.824C231.131 60.244 230.721 60.5753 230.198 60.818C229.685 61.0513 229.087 61.168 228.406 61.168ZM228.378 54.868C227.902 54.868 227.524 55.0267 227.244 55.344C226.964 55.6613 226.824 56.072 226.824 56.576V56.688H229.82V56.562C229.82 56.058 229.694 55.652 229.442 55.344C229.199 55.0267 228.845 54.868 228.378 54.868ZM233.259 61V53.692H235.051V55.204H235.121C235.167 55.008 235.237 54.8213 235.331 54.644C235.433 54.4573 235.564 54.294 235.723 54.154C235.881 54.014 236.068 53.902 236.283 53.818C236.507 53.734 236.763 53.692 237.053 53.692H237.445V55.386H236.885C236.278 55.386 235.821 55.4747 235.513 55.652C235.205 55.8293 235.051 56.1187 235.051 56.52V61H233.259ZM242.063 50.64H243.855V54.896H243.911C244.042 54.476 244.289 54.1447 244.653 53.902C245.017 53.65 245.442 53.524 245.927 53.524C246.861 53.524 247.57 53.8553 248.055 54.518C248.55 55.1713 248.797 56.1093 248.797 57.332C248.797 58.564 248.55 59.5113 248.055 60.174C247.57 60.8367 246.861 61.168 245.927 61.168C245.442 61.168 245.017 61.042 244.653 60.79C244.299 60.538 244.051 60.202 243.911 59.782H243.855V61H242.063V50.64ZM245.353 59.684C245.82 59.684 246.198 59.53 246.487 59.222C246.777 58.914 246.921 58.4987 246.921 57.976V56.716C246.921 56.1933 246.777 55.778 246.487 55.47C246.198 55.1527 245.82 54.994 245.353 54.994C244.924 54.994 244.565 55.1013 244.275 55.316C243.995 55.5307 243.855 55.8153 243.855 56.17V58.494C243.855 58.8767 243.995 59.1707 244.275 59.376C244.565 59.5813 244.924 59.684 245.353 59.684ZM253.356 61.168C252.833 61.168 252.362 61.0793 251.942 60.902C251.531 60.7247 251.177 60.468 250.878 60.132C250.589 59.796 250.365 59.3947 250.206 58.928C250.047 58.452 249.968 57.92 249.968 57.332C249.968 56.744 250.047 56.2167 250.206 55.75C250.365 55.2833 250.589 54.8867 250.878 54.56C251.177 54.224 251.531 53.9673 251.942 53.79C252.362 53.6127 252.833 53.524 253.356 53.524C253.879 53.524 254.35 53.6127 254.77 53.79C255.19 53.9673 255.545 54.224 255.834 54.56C256.133 54.8867 256.361 55.2833 256.52 55.75C256.679 56.2167 256.758 56.744 256.758 57.332C256.758 57.92 256.679 58.452 256.52 58.928C256.361 59.3947 256.133 59.796 255.834 60.132C255.545 60.468 255.19 60.7247 254.77 60.902C254.35 61.0793 253.879 61.168 253.356 61.168ZM253.356 59.726C253.832 59.726 254.205 59.5813 254.476 59.292C254.747 59.0027 254.882 58.578 254.882 58.018V56.66C254.882 56.1093 254.747 55.6893 254.476 55.4C254.205 55.1107 253.832 54.966 253.356 54.966C252.889 54.966 252.521 55.1107 252.25 55.4C251.979 55.6893 251.844 56.1093 251.844 56.66V58.018C251.844 58.578 251.979 59.0027 252.25 59.292C252.521 59.5813 252.889 59.726 253.356 59.726ZM260.139 61C259.523 61 259.07 60.846 258.781 60.538C258.491 60.23 258.347 59.796 258.347 59.236V50.64H260.139V59.572H261.105V61H260.139ZM263.358 52.628C262.984 52.628 262.714 52.544 262.546 52.376C262.387 52.208 262.308 51.9933 262.308 51.732V51.452C262.308 51.1907 262.387 50.976 262.546 50.808C262.714 50.64 262.984 50.556 263.358 50.556C263.722 50.556 263.988 50.64 264.156 50.808C264.324 50.976 264.408 51.1907 264.408 51.452V51.732C264.408 51.9933 264.324 52.208 264.156 52.376C263.988 52.544 263.722 52.628 263.358 52.628ZM262.462 53.692H264.254V61H262.462V53.692ZM272.925 61.616C272.925 61.9987 272.855 62.3347 272.715 62.624C272.584 62.9227 272.365 63.17 272.057 63.366C271.749 63.562 271.352 63.7113 270.867 63.814C270.382 63.9167 269.789 63.968 269.089 63.968C268.473 63.968 267.95 63.926 267.521 63.842C267.092 63.7673 266.737 63.6553 266.457 63.506C266.186 63.366 265.99 63.1887 265.869 62.974C265.748 62.7593 265.687 62.5167 265.687 62.246C265.687 61.8353 265.799 61.5133 266.023 61.28C266.256 61.056 266.578 60.9113 266.989 60.846V60.692C266.69 60.6173 266.457 60.4727 266.289 60.258C266.13 60.034 266.051 59.7727 266.051 59.474C266.051 59.2873 266.088 59.124 266.163 58.984C266.238 58.8347 266.336 58.7087 266.457 58.606C266.588 58.5033 266.732 58.4193 266.891 58.354C267.05 58.2793 267.218 58.2233 267.395 58.186V58.13C266.947 57.9247 266.611 57.64 266.387 57.276C266.172 56.912 266.065 56.4873 266.065 56.002C266.065 55.2553 266.322 54.658 266.835 54.21C267.348 53.7527 268.1 53.524 269.089 53.524C269.313 53.524 269.532 53.538 269.747 53.566C269.971 53.594 270.176 53.6407 270.363 53.706V53.468C270.363 52.7587 270.708 52.404 271.399 52.404H272.533V53.776H270.979V53.972C271.362 54.1867 271.646 54.4667 271.833 54.812C272.02 55.1573 272.113 55.554 272.113 56.002C272.113 56.7393 271.856 57.332 271.343 57.78C270.839 58.228 270.088 58.452 269.089 58.452C268.66 58.452 268.286 58.41 267.969 58.326C267.829 58.3913 267.708 58.48 267.605 58.592C267.502 58.6947 267.451 58.8253 267.451 58.984C267.451 59.348 267.768 59.53 268.403 59.53H270.363C271.259 59.53 271.908 59.7167 272.309 60.09C272.72 60.454 272.925 60.9627 272.925 61.616ZM271.245 61.826C271.245 61.5927 271.152 61.4107 270.965 61.28C270.778 61.1493 270.456 61.084 269.999 61.084H267.507C267.255 61.2707 267.129 61.5227 267.129 61.84C267.129 62.12 267.246 62.3393 267.479 62.498C267.712 62.6567 268.109 62.736 268.669 62.736H269.565C270.153 62.736 270.578 62.6613 270.839 62.512C271.11 62.3627 271.245 62.134 271.245 61.826ZM269.089 57.234C269.966 57.234 270.405 56.8607 270.405 56.114V55.876C270.405 55.1293 269.966 54.756 269.089 54.756C268.212 54.756 267.773 55.1293 267.773 55.876V56.114C267.773 56.8607 268.212 57.234 269.089 57.234ZM276.354 61.168C275.654 61.168 275.066 61.0513 274.59 60.818C274.114 60.5753 273.694 60.244 273.33 59.824L274.422 58.76C274.692 59.068 274.986 59.3107 275.304 59.488C275.63 59.6653 276.004 59.754 276.424 59.754C276.853 59.754 277.161 59.6793 277.348 59.53C277.544 59.3807 277.642 59.1753 277.642 58.914C277.642 58.6993 277.572 58.5313 277.432 58.41C277.301 58.2793 277.072 58.1907 276.746 58.144L276.018 58.046C275.224 57.9433 274.618 57.7193 274.198 57.374C273.787 57.0193 273.582 56.506 273.582 55.834C273.582 55.4793 273.647 55.162 273.778 54.882C273.908 54.5927 274.095 54.35 274.338 54.154C274.58 53.9487 274.87 53.7947 275.206 53.692C275.551 53.58 275.934 53.524 276.354 53.524C276.708 53.524 277.021 53.552 277.292 53.608C277.572 53.6547 277.824 53.7293 278.048 53.832C278.272 53.9253 278.477 54.0467 278.664 54.196C278.85 54.336 279.032 54.4947 279.21 54.672L278.16 55.722C277.945 55.498 277.688 55.3113 277.39 55.162C277.091 55.0127 276.764 54.938 276.41 54.938C276.018 54.938 275.733 55.008 275.556 55.148C275.388 55.288 275.304 55.47 275.304 55.694C275.304 55.9367 275.374 56.1233 275.514 56.254C275.663 56.3753 275.91 56.464 276.256 56.52L276.998 56.618C278.575 56.842 279.364 57.5607 279.364 58.774C279.364 59.1287 279.289 59.4553 279.14 59.754C279 60.0433 278.799 60.2953 278.538 60.51C278.276 60.7153 277.959 60.8787 277.586 61C277.222 61.112 276.811 61.168 276.354 61.168ZM283.119 61C282.503 61 282.031 60.8413 281.705 60.524C281.387 60.1973 281.229 59.7353 281.229 59.138V55.12H280.151V53.692H280.711C280.981 53.692 281.163 53.6313 281.257 53.51C281.359 53.3793 281.411 53.188 281.411 52.936V51.69H283.021V53.692H284.519V55.12H283.021V59.572H284.407V61H283.119ZM285.262 60.93L286.2 59.754C285.79 59.1193 285.584 58.312 285.584 57.332C285.584 56.744 285.664 56.2167 285.822 55.75C285.981 55.2833 286.205 54.8867 286.494 54.56C286.793 54.224 287.148 53.9673 287.558 53.79C287.978 53.6127 288.45 53.524 288.972 53.524C289.71 53.524 290.34 53.7013 290.862 54.056L291.716 53.034L292.696 53.762L291.744 54.938C291.95 55.2553 292.104 55.6193 292.206 56.03C292.318 56.4313 292.374 56.87 292.374 57.346C292.374 57.934 292.295 58.466 292.136 58.942C291.978 59.4087 291.749 59.81 291.45 60.146C291.161 60.4727 290.806 60.7247 290.386 60.902C289.966 61.0793 289.495 61.168 288.972 61.168C288.244 61.168 287.614 60.9953 287.082 60.65L286.242 61.658L285.262 60.93ZM288.972 59.81C289.458 59.81 289.84 59.6513 290.12 59.334C290.4 59.0073 290.54 58.5547 290.54 57.976V56.296L287.936 59.446C288.207 59.6887 288.552 59.81 288.972 59.81ZM287.432 58.354L290.008 55.246C289.738 55.0033 289.392 54.882 288.972 54.882C288.496 54.882 288.118 55.0453 287.838 55.372C287.568 55.6893 287.432 56.1373 287.432 56.716V58.354ZM296.244 61C295.628 61 295.156 60.8413 294.83 60.524C294.512 60.1973 294.354 59.7353 294.354 59.138V55.12H293.276V53.692H293.836C294.106 53.692 294.288 53.6313 294.382 53.51C294.484 53.3793 294.536 53.188 294.536 52.936V51.69H296.146V53.692H297.644V55.12H296.146V59.572H297.532V61H296.244ZM301.398 61C300.782 61 300.311 60.8413 299.984 60.524C299.667 60.1973 299.508 59.7353 299.508 59.138V55.12H298.43V53.692H298.99C299.261 53.692 299.443 53.6313 299.536 53.51C299.639 53.3793 299.69 53.188 299.69 52.936V51.69H301.3V53.692H302.798V55.12H301.3V59.572H302.686V61H301.398ZM307.252 61.168C306.71 61.168 306.225 61.0793 305.796 60.902C305.376 60.7153 305.016 60.4587 304.718 60.132C304.428 59.796 304.204 59.3947 304.046 58.928C303.887 58.452 303.808 57.92 303.808 57.332C303.808 56.7533 303.882 56.2307 304.032 55.764C304.19 55.2973 304.414 54.9007 304.704 54.574C304.993 54.238 305.348 53.9813 305.768 53.804C306.188 53.6173 306.664 53.524 307.196 53.524C307.765 53.524 308.26 53.622 308.68 53.818C309.1 54.014 309.445 54.28 309.716 54.616C309.986 54.952 310.187 55.344 310.318 55.792C310.458 56.2307 310.528 56.702 310.528 57.206V57.794H305.67V57.976C305.67 58.508 305.819 58.9373 306.118 59.264C306.416 59.5813 306.86 59.74 307.448 59.74C307.896 59.74 308.26 59.6467 308.54 59.46C308.829 59.2733 309.086 59.0353 309.31 58.746L310.276 59.824C309.977 60.244 309.566 60.5753 309.044 60.818C308.53 61.0513 307.933 61.168 307.252 61.168ZM307.224 54.868C306.748 54.868 306.37 55.0267 306.09 55.344C305.81 55.6613 305.67 56.072 305.67 56.576V56.688H308.666V56.562C308.666 56.058 308.54 55.652 308.288 55.344C308.045 55.0267 307.69 54.868 307.224 54.868ZM317.695 61C317.079 61 316.608 60.8413 316.281 60.524C315.964 60.1973 315.805 59.7353 315.805 59.138V55.12H314.727V53.692H315.287C315.558 53.692 315.74 53.6313 315.833 53.51C315.936 53.3793 315.987 53.188 315.987 52.936V51.69H317.597V53.692H319.095V55.12H317.597V59.572H318.983V61H317.695ZM321.545 52.628C321.172 52.628 320.901 52.544 320.733 52.376C320.575 52.208 320.495 51.9933 320.495 51.732V51.452C320.495 51.1907 320.575 50.976 320.733 50.808C320.901 50.64 321.172 50.556 321.545 50.556C321.909 50.556 322.175 50.64 322.343 50.808C322.511 50.976 322.595 51.1907 322.595 51.452V51.732C322.595 51.9933 322.511 52.208 322.343 52.376C322.175 52.544 321.909 52.628 321.545 52.628ZM320.649 53.692H322.441V61H320.649V53.692ZM326.31 61C325.694 61 325.242 60.846 324.952 60.538C324.663 60.23 324.518 59.796 324.518 59.236V50.64H326.31V59.572H327.276V61H326.31Z" fill="#474E95"/>
<path d="M350.5 257.5H9.5V294.5H350.5V257.5Z" fill="#DCDCDC" stroke="#747474"/>
<path d="M130.5 234.5H9.5V253.5H130.5V234.5Z" fill="#BFBFBF" stroke="#747474"/>
<path d="M350.5 188.5H9.5V225.5H350.5V188.5Z" fill="#DCDCDC" stroke="#747474"/>
<path d="M130.5 165.5H9.5V184.5H130.5V165.5Z" fill="#BFBFBF" stroke="#747474"/>
<path d="M290.5 119.5H9.5V156.5H290.5V119.5Z" fill="#DCDCDC" stroke="#747474"/>
<path d="M130.5 96.5H9.5V115.5H130.5V96.5Z" fill="#BFBFBF" stroke="#747474"/>
<path d="M95 304H10V339H95V304Z" fill="#747474"/>
<path d="M31.512 323.272L30.36 320.952H30.312V329H28.312V317.832H30.632L33.992 323.56L35.144 325.88H35.192V317.832H37.192V329H34.872L31.512 323.272ZM42.772 325.336C42.26 325.347 41.8653 325.443 41.588 325.624C41.3107 325.795 41.172 326.051 41.172 326.392V326.648C41.172 326.989 41.2787 327.251 41.492 327.432C41.7053 327.613 42.0253 327.704 42.452 327.704C42.9 327.704 43.284 327.603 43.604 327.4C43.924 327.197 44.084 326.899 44.084 326.504V325.336H42.772ZM49.572 324.072V323.928C49.572 323.352 49.428 322.888 49.14 322.536C48.8627 322.173 48.4573 321.992 47.924 321.992C47.38 321.992 46.948 322.173 46.628 322.536C46.308 322.899 46.148 323.368 46.148 323.944V324.072H49.572ZM48.212 327.528C48.7133 327.528 49.1347 327.421 49.476 327.208C49.8173 326.995 50.1053 326.733 50.34 326.424L51.444 327.656C51.1027 328.136 50.6387 328.515 50.052 328.792C49.4653 329.059 48.7933 329.192 48.036 329.192C47.6307 329.192 47.252 329.144 46.9 329.048C46.548 328.952 46.2333 328.824 45.956 328.664C45.6893 328.504 45.46 328.323 45.268 328.12C45.076 327.917 44.932 327.704 44.836 327.48H44.74C44.6653 327.693 44.548 327.901 44.388 328.104C44.2387 328.307 44.0413 328.488 43.796 328.648C43.5507 328.808 43.2573 328.936 42.916 329.032C42.5853 329.139 42.196 329.192 41.748 329.192C40.9053 329.192 40.2493 328.963 39.78 328.504C39.3213 328.045 39.092 327.448 39.092 326.712C39.092 326.275 39.1773 325.891 39.348 325.56C39.5187 325.229 39.7587 324.957 40.068 324.744C40.3773 324.52 40.7507 324.355 41.188 324.248C41.6253 324.131 42.116 324.072 42.66 324.072H44.084V323.56C44.084 323.091 43.9613 322.728 43.716 322.472C43.4707 322.216 43.0813 322.088 42.548 322.088C42.0573 322.088 41.6627 322.189 41.364 322.392C41.076 322.595 40.8307 322.845 40.628 323.144L39.412 322.056C39.7213 321.576 40.132 321.192 40.644 320.904C41.156 320.605 41.8333 320.456 42.676 320.456C43.316 320.456 43.828 320.589 44.212 320.856C44.596 321.112 44.8947 321.437 45.108 321.832H45.204C45.4173 321.437 45.764 321.112 46.244 320.856C46.724 320.589 47.3 320.456 47.972 320.456C48.6227 320.456 49.1827 320.568 49.652 320.792C50.1213 321.016 50.5053 321.32 50.804 321.704C51.1133 322.088 51.3373 322.536 51.476 323.048C51.6253 323.549 51.7 324.088 51.7 324.664V325.336H46.132V325.544C46.132 326.141 46.3133 326.621 46.676 326.984C47.0387 327.347 47.5507 327.528 48.212 327.528ZM56.2481 329.192C55.4481 329.192 54.7761 329.059 54.2321 328.792C53.6881 328.515 53.2081 328.136 52.7921 327.656L54.0401 326.44C54.3495 326.792 54.6855 327.069 55.0481 327.272C55.4215 327.475 55.8481 327.576 56.3281 327.576C56.8188 327.576 57.1708 327.491 57.3841 327.32C57.6081 327.149 57.7201 326.915 57.7201 326.616C57.7201 326.371 57.6401 326.179 57.4801 326.04C57.3308 325.891 57.0695 325.789 56.6961 325.736L55.8641 325.624C54.9575 325.507 54.2641 325.251 53.7841 324.856C53.3148 324.451 53.0801 323.864 53.0801 323.096C53.0801 322.691 53.1548 322.328 53.3041 322.008C53.4535 321.677 53.6668 321.4 53.9441 321.176C54.2215 320.941 54.5521 320.765 54.9361 320.648C55.3308 320.52 55.7681 320.456 56.2481 320.456C56.6535 320.456 57.0108 320.488 57.3201 320.552C57.6401 320.605 57.9281 320.691 58.1841 320.808C58.4401 320.915 58.6748 321.053 58.8881 321.224C59.1015 321.384 59.3095 321.565 59.5121 321.768L58.3121 322.968C58.0668 322.712 57.7735 322.499 57.4321 322.328C57.0908 322.157 56.7175 322.072 56.3121 322.072C55.8641 322.072 55.5388 322.152 55.3361 322.312C55.1441 322.472 55.0481 322.68 55.0481 322.936C55.0481 323.213 55.1281 323.427 55.2881 323.576C55.4588 323.715 55.7415 323.816 56.1361 323.88L56.9841 323.992C58.7868 324.248 59.6881 325.069 59.6881 326.456C59.6881 326.861 59.6028 327.235 59.4321 327.576C59.2721 327.907 59.0428 328.195 58.7441 328.44C58.4455 328.675 58.0828 328.861 57.6561 329C57.2401 329.128 56.7708 329.192 56.2481 329.192ZM63.9795 329C63.2755 329 62.7368 328.819 62.3635 328.456C62.0008 328.083 61.8195 327.555 61.8195 326.872V322.28H60.5875V320.648H61.2275C61.5368 320.648 61.7448 320.579 61.8515 320.44C61.9688 320.291 62.0275 320.072 62.0275 319.784V318.36H63.8675V320.648H65.5795V322.28H63.8675V327.368H65.4515V329H63.9795ZM70.6694 329.192C70.0507 329.192 69.496 329.091 69.0054 328.888C68.5254 328.675 68.1147 328.381 67.7734 328.008C67.4427 327.624 67.1867 327.165 67.0054 326.632C66.824 326.088 66.7334 325.48 66.7334 324.808C66.7334 324.147 66.8187 323.549 66.9894 323.016C67.1707 322.483 67.4267 322.029 67.7574 321.656C68.088 321.272 68.4934 320.979 68.9734 320.776C69.4534 320.563 69.9974 320.456 70.6054 320.456C71.256 320.456 71.8214 320.568 72.3014 320.792C72.7814 321.016 73.176 321.32 73.4854 321.704C73.7947 322.088 74.024 322.536 74.1734 323.048C74.3334 323.549 74.4134 324.088 74.4134 324.664V325.336H68.8614V325.544C68.8614 326.152 69.032 326.643 69.3734 327.016C69.7147 327.379 70.2214 327.56 70.8934 327.56C71.4054 327.56 71.8214 327.453 72.1414 327.24C72.472 327.027 72.7654 326.755 73.0214 326.424L74.1254 327.656C73.784 328.136 73.3147 328.515 72.7174 328.792C72.1307 329.059 71.448 329.192 70.6694 329.192ZM70.6374 321.992C70.0934 321.992 69.6614 322.173 69.3414 322.536C69.0214 322.899 68.8614 323.368 68.8614 323.944V324.072H72.2854V323.928C72.2854 323.352 72.1414 322.888 71.8534 322.536C71.576 322.173 71.1707 321.992 70.6374 321.992Z" fill="#F5F5F5"/>
</svg>
