<svg width="361" height="360" viewBox="0 0 361 360" fill="none" xmlns="http://www.w3.org/2000/svg">
<path d="M15.984 19.866V28H14.136V19.866H11.364V18.228H18.756V19.866H15.984ZM19.5282 28V20.692H21.3202V22.204H21.3902C21.4369 22.008 21.5069 21.8213 21.6002 21.644C21.7029 21.4573 21.8335 21.294 21.9922 21.154C22.1509 21.014 22.3375 20.902 22.5522 20.818C22.7762 20.734 23.0329 20.692 23.3222 20.692H23.7142V22.386H23.1542C22.5475 22.386 22.0902 22.4747 21.7822 22.652C21.4742 22.8293 21.3202 23.1187 21.3202 23.52V28H19.5282ZM25.9203 19.628C25.5469 19.628 25.2763 19.544 25.1083 19.376C24.9496 19.208 24.8703 18.9933 24.8703 18.732V18.452C24.8703 18.1907 24.9496 17.976 25.1083 17.808C25.2763 17.64 25.5469 17.556 25.9203 17.556C26.2843 17.556 26.5503 17.64 26.7183 17.808C26.8863 17.976 26.9703 18.1907 26.9703 18.452V18.732C26.9703 18.9933 26.8863 19.208 26.7183 19.376C26.5503 19.544 26.2843 19.628 25.9203 19.628ZM25.0243 20.692H26.8163V28H25.0243V20.692ZM28.8934 28V20.692H30.6854V21.91H30.7554C30.9048 21.518 31.1381 21.1913 31.4554 20.93C31.7821 20.6593 32.2301 20.524 32.7994 20.524C33.5554 20.524 34.1341 20.7713 34.5354 21.266C34.9368 21.7607 35.1374 22.4653 35.1374 23.38V28H33.3454V23.562C33.3454 23.0393 33.2521 22.6473 33.0654 22.386C32.8788 22.1247 32.5708 21.994 32.1414 21.994C31.9548 21.994 31.7728 22.022 31.5954 22.078C31.4274 22.1247 31.2734 22.1993 31.1334 22.302C31.0028 22.3953 30.8954 22.5167 30.8114 22.666C30.7274 22.806 30.6854 22.974 30.6854 23.17V28H28.8934ZM43.0645 22.176C43.6245 22.176 44.0352 22.064 44.2965 21.84C44.5672 21.6067 44.7025 21.3127 44.7025 20.958V20.86C44.7025 20.4587 44.5718 20.146 44.3105 19.922C44.0585 19.6887 43.7085 19.572 43.2605 19.572C42.8312 19.572 42.4485 19.6747 42.1125 19.88C41.7858 20.0853 41.5012 20.3747 41.2585 20.748L40.0825 19.684C40.2505 19.46 40.4325 19.25 40.6285 19.054C40.8338 18.8487 41.0672 18.676 41.3285 18.536C41.5898 18.3867 41.8838 18.27 42.2105 18.186C42.5372 18.102 42.9058 18.06 43.3165 18.06C43.8112 18.06 44.2592 18.1207 44.6605 18.242C45.0712 18.354 45.4212 18.522 45.7105 18.746C46.0092 18.97 46.2378 19.2407 46.3965 19.558C46.5552 19.866 46.6345 20.216 46.6345 20.608C46.6345 20.9253 46.5832 21.21 46.4805 21.462C46.3872 21.714 46.2518 21.9333 46.0745 22.12C45.9065 22.3067 45.7058 22.4607 45.4725 22.582C45.2485 22.694 45.0105 22.778 44.7585 22.834V22.918C45.0385 22.974 45.3045 23.0627 45.5565 23.184C45.8085 23.3053 46.0232 23.4687 46.2005 23.674C46.3872 23.87 46.5318 24.1033 46.6345 24.374C46.7465 24.6447 46.8025 24.9527 46.8025 25.298C46.8025 25.7273 46.7138 26.1193 46.5365 26.474C46.3685 26.8287 46.1258 27.132 45.8085 27.384C45.4912 27.636 45.1132 27.832 44.6745 27.972C44.2358 28.1027 43.7458 28.168 43.2045 28.168C42.7285 28.168 42.3085 28.1167 41.9445 28.014C41.5805 27.9207 41.2585 27.79 40.9785 27.622C40.7078 27.454 40.4698 27.2627 40.2645 27.048C40.0592 26.824 39.8818 26.5907 39.7325 26.348L41.0905 25.312C41.2025 25.508 41.3238 25.69 41.4545 25.858C41.5852 26.0167 41.7345 26.1567 41.9025 26.278C42.0705 26.3993 42.2618 26.4927 42.4765 26.558C42.6912 26.6233 42.9338 26.656 43.2045 26.656C43.7458 26.656 44.1612 26.5253 44.4505 26.264C44.7398 26.0027 44.8845 25.6433 44.8845 25.186V25.088C44.8845 24.64 44.7258 24.2993 44.4085 24.066C44.1005 23.8327 43.6525 23.716 43.0645 23.716H42.0985V22.176H43.0645ZM57.5116 28C57.1196 28 56.8069 27.888 56.5736 27.664C56.3496 27.4307 56.2096 27.1227 56.1536 26.74H56.0696C55.9483 27.216 55.7009 27.5753 55.3276 27.818C54.9543 28.0513 54.4923 28.168 53.9416 28.168C53.1949 28.168 52.6209 27.972 52.2196 27.58C51.8183 27.188 51.6176 26.6653 51.6176 26.012C51.6176 25.256 51.8883 24.696 52.4296 24.332C52.9709 23.9587 53.7409 23.772 54.7396 23.772H55.9856V23.24C55.9856 22.8293 55.8783 22.512 55.6636 22.288C55.4489 22.064 55.1036 21.952 54.6276 21.952C54.2076 21.952 53.8669 22.0453 53.6056 22.232C53.3536 22.4093 53.1389 22.624 52.9616 22.876L51.8976 21.924C52.1683 21.504 52.5276 21.168 52.9756 20.916C53.4236 20.6547 54.0163 20.524 54.7536 20.524C55.7429 20.524 56.4943 20.748 57.0076 21.196C57.5209 21.644 57.7776 22.288 57.7776 23.128V26.572H58.5056V28H57.5116ZM54.5436 26.866C54.9449 26.866 55.2856 26.7773 55.5656 26.6C55.8456 26.4227 55.9856 26.1613 55.9856 25.816V24.85H54.8376C53.9043 24.85 53.4376 25.1487 53.4376 25.746V25.984C53.4376 26.2827 53.5309 26.5067 53.7176 26.656C53.9136 26.796 54.1889 26.866 54.5436 26.866ZM60.3199 22.106H59.2419V20.692H60.3199V19.642C60.3199 18.998 60.4879 18.5033 60.8239 18.158C61.1693 17.8127 61.6733 17.64 62.3359 17.64H63.6099V19.068H62.1119V20.692H63.6099V22.106H62.1119V28H60.3199V22.106ZM71.365 28.168C70.805 28.168 70.3057 28.0793 69.867 27.902C69.4284 27.7153 69.055 27.4587 68.747 27.132C68.439 26.796 68.2057 26.3947 68.047 25.928C67.8884 25.452 67.809 24.92 67.809 24.332C67.809 23.632 67.9117 22.974 68.117 22.358C68.3317 21.7327 68.607 21.1633 68.943 20.65C69.279 20.1273 69.6524 19.6653 70.063 19.264C70.483 18.8533 70.8984 18.508 71.309 18.228H73.801C73.2224 18.6387 72.7044 19.0353 72.247 19.418C71.799 19.8007 71.4024 20.188 71.057 20.58C70.721 20.972 70.441 21.3827 70.217 21.812C70.0024 22.232 69.839 22.6893 69.727 23.184L69.839 23.212C69.9324 23.0253 70.0397 22.848 70.161 22.68C70.2917 22.5027 70.4457 22.3487 70.623 22.218C70.8004 22.078 71.0057 21.9707 71.239 21.896C71.4724 21.812 71.743 21.77 72.051 21.77C72.4524 21.77 72.8257 21.84 73.171 21.98C73.5257 22.12 73.829 22.3253 74.081 22.596C74.3424 22.8573 74.543 23.1747 74.683 23.548C74.8324 23.9213 74.907 24.3367 74.907 24.794C74.907 25.2887 74.823 25.7413 74.655 26.152C74.487 26.5627 74.249 26.9173 73.941 27.216C73.633 27.5147 73.2597 27.748 72.821 27.916C72.3917 28.084 71.9064 28.168 71.365 28.168ZM71.365 26.712C71.8784 26.712 72.2797 26.572 72.569 26.292C72.8677 26.0027 73.017 25.592 73.017 25.06V24.85C73.017 24.318 72.8677 23.912 72.569 23.632C72.2797 23.3427 71.8784 23.198 71.365 23.198C70.8424 23.198 70.4364 23.3427 70.147 23.632C69.8577 23.912 69.713 24.318 69.713 24.85V25.06C69.713 25.592 69.8577 26.0027 70.147 26.292C70.4364 26.572 70.8424 26.712 71.365 26.712Z" fill="#474E95"/>
<path d="M351.5 235.5H10.5V272.5H351.5V235.5Z" fill="#DCDCDC" stroke="#747474"/>
<path d="M131.5 212.5H10.5V231.5H131.5V212.5Z" fill="#BFBFBF" stroke="#747474"/>
<path d="M351.5 166.5H10.5V203.5H351.5V166.5Z" fill="#DCDCDC" stroke="#747474"/>
<path d="M131.5 143.5H10.5V162.5H131.5V143.5Z" fill="#BFBFBF" stroke="#747474"/>
<path d="M291.5 97.5H10.5V134.5H291.5V97.5Z" fill="#DCDCDC" stroke="#747474"/>
<path d="M131.5 74.5H10.5V93.5H131.5V74.5Z" fill="#BFBFBF" stroke="#747474"/>
<path d="M96 282H11V317H96V282Z" fill="#747474"/>
<path d="M32.512 301.272L31.36 298.952H31.312V307H29.312V295.832H31.632L34.992 301.56L36.144 303.88H36.192V295.832H38.192V307H35.872L32.512 301.272ZM43.772 303.336C43.26 303.347 42.8653 303.443 42.588 303.624C42.3107 303.795 42.172 304.051 42.172 304.392V304.648C42.172 304.989 42.2787 305.251 42.492 305.432C42.7053 305.613 43.0253 305.704 43.452 305.704C43.9 305.704 44.284 305.603 44.604 305.4C44.924 305.197 45.084 304.899 45.084 304.504V303.336H43.772ZM50.572 302.072V301.928C50.572 301.352 50.428 300.888 50.14 300.536C49.8627 300.173 49.4573 299.992 48.924 299.992C48.38 299.992 47.948 300.173 47.628 300.536C47.308 300.899 47.148 301.368 47.148 301.944V302.072H50.572ZM49.212 305.528C49.7133 305.528 50.1347 305.421 50.476 305.208C50.8173 304.995 51.1053 304.733 51.34 304.424L52.444 305.656C52.1027 306.136 51.6387 306.515 51.052 306.792C50.4653 307.059 49.7933 307.192 49.036 307.192C48.6307 307.192 48.252 307.144 47.9 307.048C47.548 306.952 47.2333 306.824 46.956 306.664C46.6893 306.504 46.46 306.323 46.268 306.12C46.076 305.917 45.932 305.704 45.836 305.48H45.74C45.6653 305.693 45.548 305.901 45.388 306.104C45.2387 306.307 45.0413 306.488 44.796 306.648C44.5507 306.808 44.2573 306.936 43.916 307.032C43.5853 307.139 43.196 307.192 42.748 307.192C41.9053 307.192 41.2493 306.963 40.78 306.504C40.3213 306.045 40.092 305.448 40.092 304.712C40.092 304.275 40.1773 303.891 40.348 303.56C40.5187 303.229 40.7587 302.957 41.068 302.744C41.3773 302.52 41.7507 302.355 42.188 302.248C42.6253 302.131 43.116 302.072 43.66 302.072H45.084V301.56C45.084 301.091 44.9613 300.728 44.716 300.472C44.4707 300.216 44.0813 300.088 43.548 300.088C43.0573 300.088 42.6627 300.189 42.364 300.392C42.076 300.595 41.8307 300.845 41.628 301.144L40.412 300.056C40.7213 299.576 41.132 299.192 41.644 298.904C42.156 298.605 42.8333 298.456 43.676 298.456C44.316 298.456 44.828 298.589 45.212 298.856C45.596 299.112 45.8947 299.437 46.108 299.832H46.204C46.4173 299.437 46.764 299.112 47.244 298.856C47.724 298.589 48.3 298.456 48.972 298.456C49.6227 298.456 50.1827 298.568 50.652 298.792C51.1213 299.016 51.5053 299.32 51.804 299.704C52.1133 300.088 52.3373 300.536 52.476 301.048C52.6253 301.549 52.7 302.088 52.7 302.664V303.336H47.132V303.544C47.132 304.141 47.3133 304.621 47.676 304.984C48.0387 305.347 48.5507 305.528 49.212 305.528ZM57.2481 307.192C56.4481 307.192 55.7761 307.059 55.2321 306.792C54.6881 306.515 54.2081 306.136 53.7921 305.656L55.0401 304.44C55.3495 304.792 55.6855 305.069 56.0481 305.272C56.4215 305.475 56.8481 305.576 57.3281 305.576C57.8188 305.576 58.1708 305.491 58.3841 305.32C58.6081 305.149 58.7201 304.915 58.7201 304.616C58.7201 304.371 58.6401 304.179 58.4801 304.04C58.3308 303.891 58.0695 303.789 57.6961 303.736L56.8641 303.624C55.9575 303.507 55.2641 303.251 54.7841 302.856C54.3148 302.451 54.0801 301.864 54.0801 301.096C54.0801 300.691 54.1548 300.328 54.3041 300.008C54.4535 299.677 54.6668 299.4 54.9441 299.176C55.2215 298.941 55.5521 298.765 55.9361 298.648C56.3308 298.52 56.7681 298.456 57.2481 298.456C57.6535 298.456 58.0108 298.488 58.3201 298.552C58.6401 298.605 58.9281 298.691 59.1841 298.808C59.4401 298.915 59.6748 299.053 59.8881 299.224C60.1015 299.384 60.3095 299.565 60.5121 299.768L59.3121 300.968C59.0668 300.712 58.7735 300.499 58.4321 300.328C58.0908 300.157 57.7175 300.072 57.3121 300.072C56.8641 300.072 56.5388 300.152 56.3361 300.312C56.1441 300.472 56.0481 300.68 56.0481 300.936C56.0481 301.213 56.1281 301.427 56.2881 301.576C56.4588 301.715 56.7415 301.816 57.1361 301.88L57.9841 301.992C59.7868 302.248 60.6881 303.069 60.6881 304.456C60.6881 304.861 60.6028 305.235 60.4321 305.576C60.2721 305.907 60.0428 306.195 59.7441 306.44C59.4455 306.675 59.0828 306.861 58.6561 307C58.2401 307.128 57.7708 307.192 57.2481 307.192ZM64.9795 307C64.2755 307 63.7368 306.819 63.3635 306.456C63.0008 306.083 62.8195 305.555 62.8195 304.872V300.28H61.5875V298.648H62.2275C62.5368 298.648 62.7448 298.579 62.8515 298.44C62.9688 298.291 63.0275 298.072 63.0275 297.784V296.36H64.8675V298.648H66.5795V300.28H64.8675V305.368H66.4515V307H64.9795ZM71.6694 307.192C71.0507 307.192 70.496 307.091 70.0054 306.888C69.5254 306.675 69.1147 306.381 68.7734 306.008C68.4427 305.624 68.1867 305.165 68.0054 304.632C67.824 304.088 67.7334 303.48 67.7334 302.808C67.7334 302.147 67.8187 301.549 67.9894 301.016C68.1707 300.483 68.4267 300.029 68.7574 299.656C69.088 299.272 69.4934 298.979 69.9734 298.776C70.4534 298.563 70.9974 298.456 71.6054 298.456C72.256 298.456 72.8214 298.568 73.3014 298.792C73.7814 299.016 74.176 299.32 74.4854 299.704C74.7947 300.088 75.024 300.536 75.1734 301.048C75.3334 301.549 75.4134 302.088 75.4134 302.664V303.336H69.8614V303.544C69.8614 304.152 70.032 304.643 70.3734 305.016C70.7147 305.379 71.2214 305.56 71.8934 305.56C72.4054 305.56 72.8214 305.453 73.1414 305.24C73.472 305.027 73.7654 304.755 74.0214 304.424L75.1254 305.656C74.784 306.136 74.3147 306.515 73.7174 306.792C73.1307 307.059 72.448 307.192 71.6694 307.192ZM71.6374 299.992C71.0934 299.992 70.6614 300.173 70.3414 300.536C70.0214 300.899 69.8614 301.368 69.8614 301.944V302.072H73.2854V301.928C73.2854 301.352 73.1414 300.888 72.8534 300.536C72.576 300.173 72.1707 299.992 71.6374 299.992Z" fill="#F5F5F5"/>
</svg>
