<svg width="360" height="146" viewBox="0 0 360 146" fill="none" xmlns="http://www.w3.org/2000/svg">
<path d="M313 1H1V52H313V1Z" fill="#C8CADF" stroke="#474E95"/>
<path d="M150.5 64H0.5V114H150.5V64Z" fill="#707070"/>
<path d="M53.676 99.288C52.236 99.288 51.012 99.032 50.004 98.52C49.012 98.008 48.156 97.336 47.436 96.504L49.572 94.44C50.148 95.112 50.788 95.624 51.492 95.976C52.212 96.328 53.004 96.504 53.868 96.504C54.844 96.504 55.58 96.296 56.076 95.88C56.572 95.448 56.82 94.872 56.82 94.152C56.82 93.592 56.66 93.136 56.34 92.784C56.02 92.432 55.42 92.176 54.54 92.016L52.956 91.776C49.612 91.248 47.94 89.624 47.94 86.904C47.94 86.152 48.076 85.472 48.348 84.864C48.636 84.256 49.044 83.736 49.572 83.304C50.1 82.872 50.732 82.544 51.468 82.32C52.22 82.08 53.068 81.96 54.012 81.96C55.276 81.96 56.38 82.168 57.324 82.584C58.268 83 59.076 83.616 59.748 84.432L57.588 86.472C57.172 85.96 56.668 85.544 56.076 85.224C55.484 84.904 54.74 84.744 53.844 84.744C52.932 84.744 52.244 84.92 51.78 85.272C51.332 85.608 51.108 86.088 51.108 86.712C51.108 87.352 51.292 87.824 51.66 88.128C52.028 88.432 52.62 88.656 53.436 88.8L54.996 89.088C56.692 89.392 57.94 89.936 58.74 90.72C59.556 91.488 59.964 92.568 59.964 93.96C59.964 94.76 59.82 95.488 59.532 96.144C59.26 96.784 58.852 97.344 58.308 97.824C57.78 98.288 57.124 98.648 56.34 98.904C55.572 99.16 54.684 99.288 53.676 99.288ZM68.0119 99.288C67.0839 99.288 66.2519 99.136 65.5159 98.832C64.7959 98.512 64.1799 98.072 63.6679 97.512C63.1719 96.936 62.7879 96.248 62.5159 95.448C62.2439 94.632 62.1079 93.72 62.1079 92.712C62.1079 91.72 62.2359 90.824 62.4919 90.024C62.7639 89.224 63.1479 88.544 63.6439 87.984C64.1399 87.408 64.7479 86.968 65.4679 86.664C66.1879 86.344 67.0039 86.184 67.9159 86.184C68.8919 86.184 69.7399 86.352 70.4599 86.688C71.1799 87.024 71.7719 87.48 72.2359 88.056C72.6999 88.632 73.0439 89.304 73.2679 90.072C73.5079 90.824 73.6279 91.632 73.6279 92.496V93.504H65.2999V93.816C65.2999 94.728 65.5559 95.464 66.0679 96.024C66.5799 96.568 67.3399 96.84 68.3479 96.84C69.1159 96.84 69.7399 96.68 70.2199 96.36C70.7159 96.04 71.1559 95.632 71.5399 95.136L73.1959 96.984C72.6839 97.704 71.9799 98.272 71.0839 98.688C70.2039 99.088 69.1799 99.288 68.0119 99.288ZM67.9639 88.488C67.1479 88.488 66.4999 88.76 66.0199 89.304C65.5399 89.848 65.2999 90.552 65.2999 91.416V91.608H70.4359V91.392C70.4359 90.528 70.2199 89.832 69.7879 89.304C69.3719 88.76 68.7639 88.488 67.9639 88.488ZM76.3307 99V86.472H79.4027V88.56H79.5227C79.7787 87.888 80.1787 87.328 80.7227 86.88C81.2827 86.416 82.0507 86.184 83.0267 86.184C84.3227 86.184 85.3147 86.608 86.0027 87.456C86.6907 88.304 87.0347 89.512 87.0347 91.08V99H83.9627V91.392C83.9627 90.496 83.8027 89.824 83.4827 89.376C83.1627 88.928 82.6347 88.704 81.8987 88.704C81.5787 88.704 81.2667 88.752 80.9627 88.848C80.6747 88.928 80.4107 89.056 80.1707 89.232C79.9467 89.392 79.7627 89.6 79.6187 89.856C79.4747 90.096 79.4027 90.384 79.4027 90.72V99H76.3307ZM98.2161 96.912H98.0961C97.8721 97.632 97.4481 98.208 96.8241 98.64C96.2001 99.072 95.4721 99.288 94.6401 99.288C93.0561 99.288 91.8401 98.72 90.9921 97.584C90.1601 96.448 89.7441 94.824 89.7441 92.712C89.7441 90.616 90.1601 89.008 90.9921 87.888C91.8401 86.752 93.0561 86.184 94.6401 86.184C95.4721 86.184 96.2001 86.4 96.8241 86.832C97.4481 87.248 97.8721 87.816 98.0961 88.536H98.2161V81.24H101.288V99H98.2161V96.912ZM95.6241 96.744C96.3601 96.744 96.9761 96.568 97.4721 96.216C97.9681 95.864 98.2161 95.36 98.2161 94.704V90.72C98.2161 90.112 97.9681 89.624 97.4721 89.256C96.9761 88.888 96.3601 88.704 95.6241 88.704C94.8241 88.704 94.1761 88.976 93.6801 89.52C93.2001 90.048 92.9601 90.76 92.9601 91.656V93.816C92.9601 94.712 93.2001 95.424 93.6801 95.952C94.1761 96.48 94.8241 96.744 95.6241 96.744Z" fill="white"/>
<path d="M23.453 33.5V18.842H32.399V20.396H25.217V25.31H31.979V26.864H25.217V31.946H32.399V33.5H23.453ZM36.1162 24.134H34.3522V22.664H36.1162V20.48C36.1162 19.724 36.3122 19.115 36.7042 18.653C37.0962 18.191 37.6912 17.96 38.4892 17.96H40.1272V19.43H37.7962V22.664H40.1272V24.134H37.7962V33.5H36.1162V24.134ZM44.7308 33.5C44.1428 33.5 43.6948 33.339 43.3868 33.017C43.0928 32.681 42.9458 32.247 42.9458 31.715V24.134H41.1608V22.664H42.1688C42.5328 22.664 42.7778 22.594 42.9038 22.454C43.0438 22.3 43.1138 22.041 43.1138 21.677V19.661H44.6258V22.664H46.9988V24.134H44.6258V32.03H46.8308V33.5H44.7308ZM53.691 33.752C52.949 33.752 52.277 33.619 51.675 33.353C51.087 33.087 50.576 32.709 50.142 32.219C49.722 31.715 49.393 31.12 49.155 30.434C48.931 29.734 48.819 28.95 48.819 28.082C48.819 27.228 48.931 26.451 49.155 25.751C49.393 25.051 49.722 24.456 50.142 23.966C50.576 23.462 51.087 23.077 51.675 22.811C52.277 22.545 52.949 22.412 53.691 22.412C54.419 22.412 55.07 22.545 55.644 22.811C56.218 23.077 56.708 23.448 57.114 23.924C57.52 24.386 57.828 24.939 58.038 25.583C58.262 26.227 58.374 26.934 58.374 27.704V28.502H50.583V29.006C50.583 29.468 50.653 29.902 50.793 30.308C50.947 30.7 51.157 31.043 51.423 31.337C51.703 31.631 52.039 31.862 52.431 32.03C52.837 32.198 53.292 32.282 53.796 32.282C54.482 32.282 55.077 32.121 55.581 31.799C56.099 31.477 56.498 31.015 56.778 30.413L57.975 31.274C57.625 32.016 57.079 32.618 56.337 33.08C55.595 33.528 54.713 33.752 53.691 33.752ZM53.691 23.819C53.229 23.819 52.809 23.903 52.431 24.071C52.053 24.225 51.724 24.449 51.444 24.743C51.178 25.037 50.968 25.387 50.814 25.793C50.66 26.185 50.583 26.619 50.583 27.095V27.242H56.568V27.011C56.568 26.045 56.302 25.275 55.77 24.701C55.252 24.113 54.559 23.819 53.691 23.819ZM61.1424 33.5V22.664H62.8224V24.659H62.9274C63.1234 24.141 63.4734 23.679 63.9774 23.273C64.4814 22.867 65.1744 22.664 66.0564 22.664H66.7074V24.344H65.7204C64.8104 24.344 64.0964 24.519 63.5784 24.869C63.0744 25.205 62.8224 25.632 62.8224 26.15V33.5H61.1424ZM68.8534 33.5V22.664H70.5334V24.428H70.6174C70.8834 23.812 71.2544 23.322 71.7304 22.958C72.2204 22.594 72.8714 22.412 73.6834 22.412C74.8034 22.412 75.6854 22.776 76.3294 23.504C76.9874 24.218 77.3164 25.233 77.3164 26.549V33.5H75.6364V26.843C75.6364 24.897 74.8174 23.924 73.1794 23.924C72.8434 23.924 72.5144 23.966 72.1924 24.05C71.8844 24.134 71.6044 24.26 71.3524 24.428C71.1004 24.596 70.8974 24.813 70.7434 25.079C70.6034 25.331 70.5334 25.632 70.5334 25.982V33.5H68.8534ZM88.6639 33.5C88.0339 33.5 87.5789 33.332 87.2989 32.996C87.0329 32.66 86.8649 32.24 86.7949 31.736H86.6899C86.4519 32.408 86.0599 32.912 85.5139 33.248C84.9679 33.584 84.3169 33.752 83.5609 33.752C82.4129 33.752 81.5169 33.458 80.8729 32.87C80.2429 32.282 79.9279 31.484 79.9279 30.476C79.9279 29.454 80.2989 28.67 81.0409 28.124C81.7969 27.578 82.9659 27.305 84.5479 27.305H86.6899V26.234C86.6899 25.464 86.4799 24.876 86.0599 24.47C85.6399 24.064 84.9959 23.861 84.1279 23.861C83.4699 23.861 82.9169 24.008 82.4689 24.302C82.0349 24.596 81.6709 24.988 81.3769 25.478L80.3689 24.533C80.6629 23.945 81.1319 23.448 81.7759 23.042C82.4199 22.622 83.2319 22.412 84.2119 22.412C85.5279 22.412 86.5499 22.734 87.2779 23.378C88.0059 24.022 88.3699 24.918 88.3699 26.066V32.03H89.6089V33.5H88.6639ZM83.8339 32.324C84.2539 32.324 84.6389 32.275 84.9889 32.177C85.3389 32.079 85.6399 31.939 85.8919 31.757C86.1439 31.575 86.3399 31.365 86.4799 31.127C86.6199 30.889 86.6899 30.63 86.6899 30.35V28.565H84.4639C83.4979 28.565 82.7909 28.705 82.3429 28.985C81.9089 29.265 81.6919 29.671 81.6919 30.203V30.644C81.6919 31.176 81.8809 31.589 82.2589 31.883C82.6509 32.177 83.1759 32.324 83.8339 32.324ZM94.2366 33.5L90.4356 22.664H92.1156L94.0056 28.04L95.1816 31.736H95.2866L96.4626 28.04L98.3946 22.664H100.012L96.1896 33.5H94.2366ZM102.179 33.5V22.664H103.859V24.428H103.943C104.209 23.812 104.58 23.322 105.056 22.958C105.546 22.594 106.197 22.412 107.009 22.412C108.129 22.412 109.011 22.776 109.655 23.504C110.313 24.218 110.642 25.233 110.642 26.549V33.5H108.962V26.843C108.962 24.897 108.143 23.924 106.505 23.924C106.169 23.924 105.84 23.966 105.518 24.05C105.21 24.134 104.93 24.26 104.678 24.428C104.426 24.596 104.223 24.813 104.069 25.079C103.929 25.331 103.859 25.632 103.859 25.982V33.5H102.179Z" fill="#474E95"/>
</svg>
