<svg width="361" height="360" viewBox="0 0 361 360" fill="none" xmlns="http://www.w3.org/2000/svg">
<path d="M14.716 15.332L13.204 12.542H13.15V23H11.674V10.436H13.42L18.01 18.104L19.522 20.894H19.576V10.436H21.052V23H19.306L14.716 15.332ZM31.0066 23C30.4666 23 30.0766 22.856 29.8366 22.568C29.6086 22.28 29.4646 21.92 29.4046 21.488H29.3146C29.1106 22.064 28.7746 22.496 28.3066 22.784C27.8386 23.072 27.2806 23.216 26.6326 23.216C25.6486 23.216 24.8806 22.964 24.3286 22.46C23.7886 21.956 23.5186 21.272 23.5186 20.408C23.5186 19.532 23.8366 18.86 24.4726 18.392C25.1206 17.924 26.1226 17.69 27.4786 17.69H29.3146V16.772C29.3146 16.112 29.1346 15.608 28.7746 15.26C28.4146 14.912 27.8626 14.738 27.1186 14.738C26.5546 14.738 26.0806 14.864 25.6966 15.116C25.3246 15.368 25.0126 15.704 24.7606 16.124L23.8966 15.314C24.1486 14.81 24.5506 14.384 25.1026 14.036C25.6546 13.676 26.3506 13.496 27.1906 13.496C28.3186 13.496 29.1946 13.772 29.8186 14.324C30.4426 14.876 30.7546 15.644 30.7546 16.628V21.74H31.8166V23H31.0066ZM26.8666 21.992C27.2266 21.992 27.5566 21.95 27.8566 21.866C28.1566 21.782 28.4146 21.662 28.6306 21.506C28.8466 21.35 29.0146 21.17 29.1346 20.966C29.2546 20.762 29.3146 20.54 29.3146 20.3V18.77H27.4066C26.5786 18.77 25.9726 18.89 25.5886 19.13C25.2166 19.37 25.0306 19.718 25.0306 20.174V20.552C25.0306 21.008 25.1926 21.362 25.5166 21.614C25.8526 21.866 26.3026 21.992 26.8666 21.992ZM35.7832 23L32.5252 13.712H33.9652L35.5852 18.32L36.5932 21.488H36.6832L37.6912 18.32L39.3472 13.712H40.7332L37.4572 23H35.7832ZM42.5905 23V13.712H44.0305V15.224H44.1025C44.3305 14.696 44.6485 14.276 45.0565 13.964C45.4765 13.652 46.0345 13.496 46.7305 13.496C47.6905 13.496 48.4465 13.808 48.9985 14.432C49.5625 15.044 49.8445 15.914 49.8445 17.042V23H48.4045V17.294C48.4045 15.626 47.7025 14.792 46.2985 14.792C46.0105 14.792 45.7285 14.828 45.4525 14.9C45.1885 14.972 44.9485 15.08 44.7325 15.224C44.5165 15.368 44.3425 15.554 44.2105 15.782C44.0905 15.998 44.0305 16.256 44.0305 16.556V23H42.5905Z" fill="#1A1A1A"/>
<path d="M54.747 18.716L52.875 17.456L55.161 14.702L51.867 13.712L52.569 11.66L55.701 12.974L55.539 9.554H57.861L57.699 12.974L60.831 11.66L61.533 13.712L58.239 14.702L60.507 17.456L58.635 18.698L56.691 15.782L54.747 18.716Z" fill="#474E95"/>
<path d="M271.5 32.5H10.5V73.5H271.5V32.5Z" fill="#D8D8D8" stroke="#707070"/>
<path d="M171.5 120.5H10.5V161.5H171.5V120.5Z" fill="#D8D8D8" stroke="#707070"/>
<path d="M22.466 100.416H22.376L21.314 102.522L18.308 107.994L15.302 102.522L14.24 100.416H14.15V111H12.674V98.436H14.69L18.29 105.204H18.38L21.998 98.436H23.942V111H22.466V100.416ZM30.6474 111.216C30.0234 111.216 29.4534 111.102 28.9374 110.874C28.4214 110.646 27.9774 110.322 27.6054 109.902C27.2454 109.47 26.9634 108.96 26.7594 108.372C26.5554 107.772 26.4534 107.1 26.4534 106.356C26.4534 105.624 26.5554 104.958 26.7594 104.358C26.9634 103.758 27.2454 103.248 27.6054 102.828C27.9774 102.396 28.4214 102.066 28.9374 101.838C29.4534 101.61 30.0234 101.496 30.6474 101.496C31.2714 101.496 31.8354 101.61 32.3394 101.838C32.8554 102.066 33.2994 102.396 33.6714 102.828C34.0434 103.248 34.3314 103.758 34.5354 104.358C34.7394 104.958 34.8414 105.624 34.8414 106.356C34.8414 107.1 34.7394 107.772 34.5354 108.372C34.3314 108.96 34.0434 109.47 33.6714 109.902C33.2994 110.322 32.8554 110.646 32.3394 110.874C31.8354 111.102 31.2714 111.216 30.6474 111.216ZM30.6474 109.938C31.4274 109.938 32.0634 109.698 32.5554 109.218C33.0474 108.738 33.2934 108.006 33.2934 107.022V105.69C33.2934 104.706 33.0474 103.974 32.5554 103.494C32.0634 103.014 31.4274 102.774 30.6474 102.774C29.8674 102.774 29.2314 103.014 28.7394 103.494C28.2474 103.974 28.0014 104.706 28.0014 105.69V107.022C28.0014 108.006 28.2474 108.738 28.7394 109.218C29.2314 109.698 29.8674 109.938 30.6474 109.938ZM37.2097 97.68H38.6497V103.224H38.7217C38.9617 102.636 39.3097 102.204 39.7657 101.928C40.2337 101.64 40.7917 101.496 41.4397 101.496C42.0157 101.496 42.5377 101.61 43.0057 101.838C43.4737 102.066 43.8697 102.39 44.1937 102.81C44.5297 103.23 44.7817 103.74 44.9497 104.34C45.1297 104.94 45.2197 105.612 45.2197 106.356C45.2197 107.1 45.1297 107.772 44.9497 108.372C44.7817 108.972 44.5297 109.482 44.1937 109.902C43.8697 110.322 43.4737 110.646 43.0057 110.874C42.5377 111.102 42.0157 111.216 41.4397 111.216C40.1797 111.216 39.2737 110.64 38.7217 109.488H38.6497V111H37.2097V97.68ZM41.0437 109.92C41.8597 109.92 42.5017 109.668 42.9697 109.164C43.4377 108.648 43.6717 107.976 43.6717 107.148V105.564C43.6717 104.736 43.4377 104.07 42.9697 103.566C42.5017 103.05 41.8597 102.792 41.0437 102.792C40.7197 102.792 40.4077 102.84 40.1077 102.936C39.8197 103.02 39.5677 103.14 39.3517 103.296C39.1357 103.452 38.9617 103.644 38.8297 103.872C38.7097 104.088 38.6497 104.322 38.6497 104.574V108.03C38.6497 108.33 38.7097 108.6 38.8297 108.84C38.9617 109.068 39.1357 109.266 39.3517 109.434C39.5677 109.59 39.8197 109.71 40.1077 109.794C40.4077 109.878 40.7197 109.92 41.0437 109.92ZM48.3711 99.534C48.0591 99.534 47.8311 99.462 47.6871 99.318C47.5551 99.162 47.4891 98.964 47.4891 98.724V98.49C47.4891 98.25 47.5551 98.058 47.6871 97.914C47.8311 97.758 48.0591 97.68 48.3711 97.68C48.6831 97.68 48.9051 97.758 49.0371 97.914C49.1811 98.058 49.2531 98.25 49.2531 98.49V98.724C49.2531 98.964 49.1811 99.162 49.0371 99.318C48.9051 99.462 48.6831 99.534 48.3711 99.534ZM47.6511 101.712H49.0911V111H47.6511V101.712ZM53.6811 111C53.1771 111 52.7931 110.862 52.5291 110.586C52.2771 110.298 52.1511 109.938 52.1511 109.506V97.68H53.5911V109.74H54.9591V111H53.6811Z" fill="#1A1A1A"/>
<path d="M58.9814 106.716L57.1094 105.456L59.3954 102.702L56.1014 101.712L56.8034 99.66L59.9354 100.974L59.7734 97.554H62.0954L61.9334 100.974L65.0654 99.66L65.7674 101.712L62.4734 102.702L64.7414 105.456L62.8694 106.698L60.9254 103.782L58.9814 106.716Z" fill="#464C97"/>
<path d="M12.674 199V186.436H20.162V187.768H14.186V191.98H19.64V193.312H14.186V199H12.674ZM28.614 199C28.074 199 27.684 198.856 27.444 198.568C27.216 198.28 27.072 197.92 27.012 197.488H26.922C26.718 198.064 26.382 198.496 25.914 198.784C25.446 199.072 24.888 199.216 24.24 199.216C23.256 199.216 22.488 198.964 21.936 198.46C21.396 197.956 21.126 197.272 21.126 196.408C21.126 195.532 21.444 194.86 22.08 194.392C22.728 193.924 23.73 193.69 25.086 193.69H26.922V192.772C26.922 192.112 26.742 191.608 26.382 191.26C26.022 190.912 25.47 190.738 24.726 190.738C24.162 190.738 23.688 190.864 23.304 191.116C22.932 191.368 22.62 191.704 22.368 192.124L21.504 191.314C21.756 190.81 22.158 190.384 22.71 190.036C23.262 189.676 23.958 189.496 24.798 189.496C25.926 189.496 26.802 189.772 27.426 190.324C28.05 190.876 28.362 191.644 28.362 192.628V197.74H29.424V199H28.614ZM24.474 197.992C24.834 197.992 25.164 197.95 25.464 197.866C25.764 197.782 26.022 197.662 26.238 197.506C26.454 197.35 26.622 197.17 26.742 196.966C26.862 196.762 26.922 196.54 26.922 196.3V194.77H25.014C24.186 194.77 23.58 194.89 23.196 195.13C22.824 195.37 22.638 195.718 22.638 196.174V196.552C22.638 197.008 22.8 197.362 23.124 197.614C23.46 197.866 23.91 197.992 24.474 197.992ZM34.2692 199.216C33.4052 199.216 32.6792 199.054 32.0912 198.73C31.5152 198.394 31.0172 197.95 30.5972 197.398L31.6232 196.57C31.9832 197.026 32.3852 197.38 32.8292 197.632C33.2732 197.872 33.7892 197.992 34.3772 197.992C34.9892 197.992 35.4632 197.86 35.7992 197.596C36.1472 197.332 36.3212 196.96 36.3212 196.48C36.3212 196.12 36.2012 195.814 35.9612 195.562C35.7332 195.298 35.3132 195.118 34.7012 195.022L33.9632 194.914C33.5312 194.854 33.1352 194.764 32.7752 194.644C32.4152 194.512 32.0972 194.344 31.8212 194.14C31.5572 193.924 31.3472 193.66 31.1912 193.348C31.0472 193.036 30.9752 192.664 30.9752 192.232C30.9752 191.776 31.0592 191.38 31.2272 191.044C31.3952 190.696 31.6232 190.408 31.9112 190.18C32.2112 189.952 32.5652 189.784 32.9732 189.676C33.3812 189.556 33.8192 189.496 34.2872 189.496C35.0432 189.496 35.6732 189.628 36.1772 189.892C36.6932 190.156 37.1432 190.522 37.5272 190.99L36.5732 191.854C36.3692 191.566 36.0692 191.308 35.6732 191.08C35.2772 190.84 34.7792 190.72 34.1792 190.72C33.5792 190.72 33.1232 190.852 32.8112 191.116C32.5112 191.368 32.3612 191.716 32.3612 192.16C32.3612 192.616 32.5112 192.946 32.8112 193.15C33.1232 193.354 33.5672 193.504 34.1432 193.6L34.8632 193.708C35.8952 193.864 36.6272 194.164 37.0592 194.608C37.4912 195.04 37.7072 195.61 37.7072 196.318C37.7072 197.218 37.4012 197.926 36.7892 198.442C36.1772 198.958 35.3372 199.216 34.2692 199.216ZM42.1797 199C41.6757 199 41.2917 198.862 41.0277 198.586C40.7757 198.298 40.6497 197.926 40.6497 197.47V190.972H39.1197V189.712H39.9837C40.2957 189.712 40.5057 189.652 40.6137 189.532C40.7337 189.4 40.7937 189.178 40.7937 188.866V187.138H42.0897V189.712H44.1237V190.972H42.0897V197.74H43.9797V199H42.1797ZM46.4382 199V189.712H47.8782V191.224H47.9502C48.1782 190.696 48.4962 190.276 48.9042 189.964C49.3242 189.652 49.8822 189.496 50.5782 189.496C51.5382 189.496 52.2942 189.808 52.8462 190.432C53.4102 191.044 53.6922 191.914 53.6922 193.042V199H52.2522V193.294C52.2522 191.626 51.5502 190.792 50.1462 190.792C49.8582 190.792 49.5762 190.828 49.3002 190.9C49.0362 190.972 48.7962 191.08 48.5802 191.224C48.3642 191.368 48.1902 191.554 48.0582 191.782C47.9382 191.998 47.8782 192.256 47.8782 192.556V199H46.4382ZM60.1607 199.216C59.5247 199.216 58.9487 199.102 58.4327 198.874C57.9287 198.646 57.4907 198.322 57.1187 197.902C56.7587 197.47 56.4767 196.96 56.2727 196.372C56.0807 195.772 55.9847 195.1 55.9847 194.356C55.9847 193.624 56.0807 192.958 56.2727 192.358C56.4767 191.758 56.7587 191.248 57.1187 190.828C57.4907 190.396 57.9287 190.066 58.4327 189.838C58.9487 189.61 59.5247 189.496 60.1607 189.496C60.7847 189.496 61.3427 189.61 61.8347 189.838C62.3267 190.066 62.7467 190.384 63.0947 190.792C63.4427 191.188 63.7067 191.662 63.8867 192.214C64.0787 192.766 64.1747 193.372 64.1747 194.032V194.716H57.4967V195.148C57.4967 195.544 57.5567 195.916 57.6767 196.264C57.8087 196.6 57.9887 196.894 58.2167 197.146C58.4567 197.398 58.7447 197.596 59.0807 197.74C59.4287 197.884 59.8187 197.956 60.2507 197.956C60.8387 197.956 61.3487 197.818 61.7807 197.542C62.2247 197.266 62.5667 196.87 62.8067 196.354L63.8327 197.092C63.5327 197.728 63.0647 198.244 62.4287 198.64C61.7927 199.024 61.0367 199.216 60.1607 199.216ZM60.1607 190.702C59.7647 190.702 59.4047 190.774 59.0807 190.918C58.7567 191.05 58.4747 191.242 58.2347 191.494C58.0067 191.746 57.8267 192.046 57.6947 192.394C57.5627 192.73 57.4967 193.102 57.4967 193.51V193.636H62.6267V193.438C62.6267 192.61 62.3987 191.95 61.9427 191.458C61.4987 190.954 60.9047 190.702 60.1607 190.702ZM68.5996 199C68.0956 199 67.7116 198.862 67.4476 198.586C67.1956 198.298 67.0696 197.926 67.0696 197.47V190.972H65.5396V189.712H66.4036C66.7156 189.712 66.9256 189.652 67.0336 189.532C67.1536 189.4 67.2136 189.178 67.2136 188.866V187.138H68.5096V189.712H70.5436V190.972H68.5096V197.74H70.3996V199H68.5996Z" fill="#1A1A1A"/>
<path d="M12.674 287V274.436H20.342V275.768H14.186V279.98H19.982V281.312H14.186V285.668H20.342V287H12.674ZM22.7361 282.302V280.754H27.4341V282.302H22.7361ZM30.2136 287V277.712H31.6536V279.224H31.7256C31.8336 278.984 31.9536 278.762 32.0856 278.558C32.2296 278.342 32.3976 278.156 32.5896 278C32.7936 277.844 33.0276 277.724 33.2916 277.64C33.5556 277.544 33.8676 277.496 34.2276 277.496C34.8396 277.496 35.4036 277.646 35.9196 277.946C36.4356 278.234 36.8196 278.714 37.0716 279.386H37.1076C37.2756 278.882 37.5876 278.444 38.0436 278.072C38.5116 277.688 39.1416 277.496 39.9336 277.496C40.8816 277.496 41.6196 277.808 42.1476 278.432C42.6876 279.044 42.9576 279.914 42.9576 281.042V287H41.5176V281.294C41.5176 280.466 41.3556 279.842 41.0316 279.422C40.7076 279.002 40.1916 278.792 39.4836 278.792C39.1956 278.792 38.9196 278.828 38.6556 278.9C38.4036 278.972 38.1756 279.08 37.9716 279.224C37.7676 279.368 37.6056 279.554 37.4856 279.782C37.3656 279.998 37.3056 280.256 37.3056 280.556V287H35.8656V281.294C35.8656 280.466 35.7036 279.842 35.3796 279.422C35.0556 279.002 34.5516 278.792 33.8676 278.792C33.5796 278.792 33.3036 278.828 33.0396 278.9C32.7756 278.972 32.5416 279.08 32.3376 279.224C32.1336 279.368 31.9656 279.554 31.8336 279.782C31.7136 279.998 31.6536 280.256 31.6536 280.556V287H30.2136ZM52.6784 287C52.1384 287 51.7484 286.856 51.5084 286.568C51.2804 286.28 51.1364 285.92 51.0764 285.488H50.9864C50.7824 286.064 50.4464 286.496 49.9784 286.784C49.5104 287.072 48.9524 287.216 48.3044 287.216C47.3204 287.216 46.5524 286.964 46.0004 286.46C45.4604 285.956 45.1904 285.272 45.1904 284.408C45.1904 283.532 45.5084 282.86 46.1444 282.392C46.7924 281.924 47.7944 281.69 49.1504 281.69H50.9864V280.772C50.9864 280.112 50.8064 279.608 50.4464 279.26C50.0864 278.912 49.5344 278.738 48.7904 278.738C48.2264 278.738 47.7524 278.864 47.3684 279.116C46.9964 279.368 46.6844 279.704 46.4324 280.124L45.5684 279.314C45.8204 278.81 46.2224 278.384 46.7744 278.036C47.3264 277.676 48.0224 277.496 48.8624 277.496C49.9904 277.496 50.8664 277.772 51.4904 278.324C52.1144 278.876 52.4264 279.644 52.4264 280.628V285.74H53.4884V287H52.6784ZM48.5384 285.992C48.8984 285.992 49.2284 285.95 49.5284 285.866C49.8284 285.782 50.0864 285.662 50.3024 285.506C50.5184 285.35 50.6864 285.17 50.8064 284.966C50.9264 284.762 50.9864 284.54 50.9864 284.3V282.77H49.0784C48.2504 282.77 47.6444 282.89 47.2604 283.13C46.8884 283.37 46.7024 283.718 46.7024 284.174V284.552C46.7024 285.008 46.8644 285.362 47.1884 285.614C47.5244 285.866 47.9744 285.992 48.5384 285.992ZM56.2637 275.534C55.9517 275.534 55.7237 275.462 55.5797 275.318C55.4477 275.162 55.3817 274.964 55.3817 274.724V274.49C55.3817 274.25 55.4477 274.058 55.5797 273.914C55.7237 273.758 55.9517 273.68 56.2637 273.68C56.5757 273.68 56.7977 273.758 56.9297 273.914C57.0737 274.058 57.1457 274.25 57.1457 274.49V274.724C57.1457 274.964 57.0737 275.162 56.9297 275.318C56.7977 275.462 56.5757 275.534 56.2637 275.534ZM55.5437 277.712H56.9837V287H55.5437V277.712ZM61.5737 287C61.0697 287 60.6857 286.862 60.4217 286.586C60.1697 286.298 60.0437 285.938 60.0437 285.506V273.68H61.4837V285.74H62.8517V287H61.5737ZM71.698 287C71.158 287 70.768 286.856 70.528 286.568C70.3 286.28 70.156 285.92 70.096 285.488H70.006C69.802 286.064 69.466 286.496 68.998 286.784C68.53 287.072 67.972 287.216 67.324 287.216C66.34 287.216 65.572 286.964 65.02 286.46C64.48 285.956 64.21 285.272 64.21 284.408C64.21 283.532 64.528 282.86 65.164 282.392C65.812 281.924 66.814 281.69 68.17 281.69H70.006V280.772C70.006 280.112 69.826 279.608 69.466 279.26C69.106 278.912 68.554 278.738 67.81 278.738C67.246 278.738 66.772 278.864 66.388 279.116C66.016 279.368 65.704 279.704 65.452 280.124L64.588 279.314C64.84 278.81 65.242 278.384 65.794 278.036C66.346 277.676 67.042 277.496 67.882 277.496C69.01 277.496 69.886 277.772 70.51 278.324C71.134 278.876 71.446 279.644 71.446 280.628V285.74H72.508V287H71.698ZM67.558 285.992C67.918 285.992 68.248 285.95 68.548 285.866C68.848 285.782 69.106 285.662 69.322 285.506C69.538 285.35 69.706 285.17 69.826 284.966C69.946 284.762 70.006 284.54 70.006 284.3V282.77H68.098C67.27 282.77 66.664 282.89 66.28 283.13C65.908 283.37 65.722 283.718 65.722 284.174V284.552C65.722 285.008 65.884 285.362 66.208 285.614C66.544 285.866 66.994 285.992 67.558 285.992ZM80.5032 285.488H80.4312C79.8672 286.64 78.9612 287.216 77.7132 287.216C77.1372 287.216 76.6152 287.102 76.1472 286.874C75.6792 286.646 75.2772 286.322 74.9412 285.902C74.6172 285.482 74.3652 284.972 74.1852 284.372C74.0172 283.772 73.9332 283.1 73.9332 282.356C73.9332 281.612 74.0172 280.94 74.1852 280.34C74.3652 279.74 74.6172 279.23 74.9412 278.81C75.2772 278.39 75.6792 278.066 76.1472 277.838C76.6152 277.61 77.1372 277.496 77.7132 277.496C78.3612 277.496 78.9132 277.64 79.3692 277.928C79.8372 278.204 80.1912 278.636 80.4312 279.224H80.5032V273.68H81.9432V287H80.5032V285.488ZM78.1092 285.92C78.4332 285.92 78.7392 285.878 79.0272 285.794C79.3272 285.71 79.5852 285.59 79.8012 285.434C80.0172 285.266 80.1852 285.068 80.3052 284.84C80.4372 284.6 80.5032 284.33 80.5032 284.03V280.574C80.5032 280.322 80.4372 280.088 80.3052 279.872C80.1852 279.644 80.0172 279.452 79.8012 279.296C79.5852 279.14 79.3272 279.02 79.0272 278.936C78.7392 278.84 78.4332 278.792 78.1092 278.792C77.2932 278.792 76.6512 279.05 76.1832 279.566C75.7152 280.07 75.4812 280.736 75.4812 281.564V283.148C75.4812 283.976 75.7152 284.648 76.1832 285.164C76.6512 285.668 77.2932 285.92 78.1092 285.92ZM85.0046 287V277.712H86.4446V279.422H86.5346C86.7026 278.978 87.0026 278.582 87.4346 278.234C87.8666 277.886 88.4606 277.712 89.2166 277.712H89.7746V279.152H88.9286C88.1486 279.152 87.5366 279.302 87.0926 279.602C86.6606 279.89 86.4446 280.256 86.4446 280.7V287H85.0046ZM95.0181 287.216C94.3821 287.216 93.8061 287.102 93.2901 286.874C92.7861 286.646 92.3481 286.322 91.9761 285.902C91.6161 285.47 91.3341 284.96 91.1301 284.372C90.9381 283.772 90.8421 283.1 90.8421 282.356C90.8421 281.624 90.9381 280.958 91.1301 280.358C91.3341 279.758 91.6161 279.248 91.9761 278.828C92.3481 278.396 92.7861 278.066 93.2901 277.838C93.8061 277.61 94.3821 277.496 95.0181 277.496C95.6421 277.496 96.2001 277.61 96.6921 277.838C97.1841 278.066 97.6041 278.384 97.9521 278.792C98.3001 279.188 98.5641 279.662 98.7441 280.214C98.9361 280.766 99.0321 281.372 99.0321 282.032V282.716H92.3541V283.148C92.3541 283.544 92.4141 283.916 92.5341 284.264C92.6661 284.6 92.8461 284.894 93.0741 285.146C93.3141 285.398 93.6021 285.596 93.9381 285.74C94.2861 285.884 94.6761 285.956 95.1081 285.956C95.6961 285.956 96.2061 285.818 96.6381 285.542C97.0821 285.266 97.4241 284.87 97.6641 284.354L98.6901 285.092C98.3901 285.728 97.9221 286.244 97.2861 286.64C96.6501 287.024 95.8941 287.216 95.0181 287.216ZM95.0181 278.702C94.6221 278.702 94.2621 278.774 93.9381 278.918C93.6141 279.05 93.3321 279.242 93.0921 279.494C92.8641 279.746 92.6841 280.046 92.5521 280.394C92.4201 280.73 92.3541 281.102 92.3541 281.51V281.636H97.4841V281.438C97.4841 280.61 97.2561 279.95 96.8001 279.458C96.3561 278.954 95.7621 278.702 95.0181 278.702ZM104.195 287.216C103.331 287.216 102.605 287.054 102.017 286.73C101.441 286.394 100.943 285.95 100.523 285.398L101.549 284.57C101.909 285.026 102.311 285.38 102.755 285.632C103.199 285.872 103.715 285.992 104.303 285.992C104.915 285.992 105.389 285.86 105.725 285.596C106.073 285.332 106.247 284.96 106.247 284.48C106.247 284.12 106.127 283.814 105.887 283.562C105.659 283.298 105.239 283.118 104.627 283.022L103.889 282.914C103.457 282.854 103.061 282.764 102.701 282.644C102.341 282.512 102.023 282.344 101.747 282.14C101.483 281.924 101.273 281.66 101.117 281.348C100.973 281.036 100.901 280.664 100.901 280.232C100.901 279.776 100.985 279.38 101.153 279.044C101.321 278.696 101.549 278.408 101.837 278.18C102.137 277.952 102.491 277.784 102.899 277.676C103.307 277.556 103.745 277.496 104.213 277.496C104.969 277.496 105.599 277.628 106.103 277.892C106.619 278.156 107.069 278.522 107.453 278.99L106.499 279.854C106.295 279.566 105.995 279.308 105.599 279.08C105.203 278.84 104.705 278.72 104.105 278.72C103.505 278.72 103.049 278.852 102.737 279.116C102.437 279.368 102.287 279.716 102.287 280.16C102.287 280.616 102.437 280.946 102.737 281.15C103.049 281.354 103.493 281.504 104.069 281.6L104.789 281.708C105.821 281.864 106.553 282.164 106.985 282.608C107.417 283.04 107.633 283.61 107.633 284.318C107.633 285.218 107.327 285.926 106.715 286.442C106.103 286.958 105.263 287.216 104.195 287.216ZM112.861 287.216C111.997 287.216 111.271 287.054 110.683 286.73C110.107 286.394 109.609 285.95 109.189 285.398L110.215 284.57C110.575 285.026 110.977 285.38 111.421 285.632C111.865 285.872 112.381 285.992 112.969 285.992C113.581 285.992 114.055 285.86 114.391 285.596C114.739 285.332 114.913 284.96 114.913 284.48C114.913 284.12 114.793 283.814 114.553 283.562C114.325 283.298 113.905 283.118 113.293 283.022L112.555 282.914C112.123 282.854 111.727 282.764 111.367 282.644C111.007 282.512 110.689 282.344 110.413 282.14C110.149 281.924 109.939 281.66 109.783 281.348C109.639 281.036 109.567 280.664 109.567 280.232C109.567 279.776 109.651 279.38 109.819 279.044C109.987 278.696 110.215 278.408 110.503 278.18C110.803 277.952 111.157 277.784 111.565 277.676C111.973 277.556 112.411 277.496 112.879 277.496C113.635 277.496 114.265 277.628 114.769 277.892C115.285 278.156 115.735 278.522 116.119 278.99L115.165 279.854C114.961 279.566 114.661 279.308 114.265 279.08C113.869 278.84 113.371 278.72 112.771 278.72C112.171 278.72 111.715 278.852 111.403 279.116C111.103 279.368 110.953 279.716 110.953 280.16C110.953 280.616 111.103 280.946 111.403 281.15C111.715 281.354 112.159 281.504 112.735 281.6L113.455 281.708C114.487 281.864 115.219 282.164 115.651 282.608C116.083 283.04 116.299 283.61 116.299 284.318C116.299 285.218 115.993 285.926 115.381 286.442C114.769 286.958 113.929 287.216 112.861 287.216ZM122.335 287.216C121.699 287.216 121.123 287.102 120.607 286.874C120.103 286.646 119.665 286.322 119.293 285.902C118.933 285.47 118.651 284.96 118.447 284.372C118.255 283.772 118.159 283.1 118.159 282.356C118.159 281.624 118.255 280.958 118.447 280.358C118.651 279.758 118.933 279.248 119.293 278.828C119.665 278.396 120.103 278.066 120.607 277.838C121.123 277.61 121.699 277.496 122.335 277.496C122.959 277.496 123.517 277.61 124.009 277.838C124.501 278.066 124.921 278.384 125.269 278.792C125.617 279.188 125.881 279.662 126.061 280.214C126.253 280.766 126.349 281.372 126.349 282.032V282.716H119.671V283.148C119.671 283.544 119.731 283.916 119.851 284.264C119.983 284.6 120.163 284.894 120.391 285.146C120.631 285.398 120.919 285.596 121.255 285.74C121.603 285.884 121.993 285.956 122.425 285.956C123.013 285.956 123.523 285.818 123.955 285.542C124.399 285.266 124.741 284.87 124.981 284.354L126.007 285.092C125.707 285.728 125.239 286.244 124.603 286.64C123.967 287.024 123.211 287.216 122.335 287.216ZM122.335 278.702C121.939 278.702 121.579 278.774 121.255 278.918C120.931 279.05 120.649 279.242 120.409 279.494C120.181 279.746 120.001 280.046 119.869 280.394C119.737 280.73 119.671 281.102 119.671 281.51V281.636H124.801V281.438C124.801 280.61 124.573 279.95 124.117 279.458C123.673 278.954 123.079 278.702 122.335 278.702Z" fill="#1A1A1A"/>
<path d="M130.647 282.716L128.775 281.456L131.061 278.702L127.767 277.712L128.469 275.66L131.601 276.974L131.439 273.554H133.761L133.599 276.974L136.731 275.66L137.433 277.712L134.139 278.702L136.407 281.456L134.535 282.698L132.591 279.782L130.647 282.716Z" fill="#464C97"/>
<path d="M171.5 208.5H10.5V249.5H171.5V208.5Z" fill="#D8D8D8" stroke="#707070"/>
<path d="M351.5 296.5H10.5V337.5H351.5V296.5Z" fill="#D8D8D8" stroke="#707070"/>
</svg>
