<?xml version="1.0" encoding="UTF-8"?>
<svg width="360px" height="360px" viewBox="0 0 360 360" version="1.1" xmlns="http://www.w3.org/2000/svg" xmlns:xlink="http://www.w3.org/1999/xlink">
    <!-- Generator: Sketch 54.1 (76490) - https://sketchapp.com -->
    <title>Overflow-menu-do-02</title>
    <desc>Created with Sketch.</desc>
    <g id="Overflow-menu-do-02" stroke="none" stroke-width="1" fill="none" fill-rule="evenodd">
        <g transform="translate(106.000000, 23.000000)">
            <rect id="Rectangle" stroke="#474E95" fill="#C8CADF" x="183.5" y="-0.5" width="26" height="51"></rect>
            <path d="M188.675063,59.5 L197,40.7688928 L205.324937,59.5 L250.5,59.5 L250.5,204.5 L-0.5,204.5 L-0.5,59.5 L188.675063,59.5 Z" id="Combined-Shape" stroke="#474E95" fill="#C8CADF"></path>
            <text id="Valgmulighed-1-Valgm" font-family="IBMPlexSans, IBM Plex Sans" font-size="18" font-weight="normal" line-spacing="35" fill="#474E95">
                <tspan x="104" y="79">Valgmulighed 1</tspan>
                <tspan x="104" y="114">Valgmulighed 2</tspan>
                <tspan x="104" y="149">Valgmulighed 3</tspan>
                <tspan x="104" y="184">Valgmulighed 4</tspan>
            </text>
            <g id="Group" transform="translate(194.000000, 16.000000)" fill="#474E95">
                <rect id="Rectangle" x="0" y="0" width="5" height="5" rx="2.5"></rect>
                <rect id="Rectangle-Copy" x="0" y="7" width="5" height="5" rx="2.5"></rect>
                <rect id="Rectangle-Copy-2" x="0" y="14" width="5" height="5" rx="2.5"></rect>
            </g>
        </g>
        <rect id="Rectangle-Copy-4" stroke="#474E95" fill="#C8CADF" x="167.5" y="22.5" width="123" height="51"></rect>
        <rect id="Rectangle-Copy-5" stroke="#474E95" fill="#C8CADF" x="44.5" y="22.5" width="123" height="51"></rect>
        <rect id="Rectangle-Copy-6" stroke="#474E95" fill="#C8CADF" x="-78.5" y="22.5" width="123" height="51"></rect>
        <text id="Menupunkt" font-family="IBMPlexSans-SemiBold, IBM Plex Sans" font-size="18" font-weight="500" fill="#474E95">
            <tspan x="182" y="55">Menupunkt</tspan>
        </text>
        <text id="Menupunkt-Copy" font-family="IBMPlexSans-SemiBold, IBM Plex Sans" font-size="18" font-weight="500" fill="#474E95">
            <tspan x="59" y="55">Menupunkt</tspan>
        </text>
        <text id="Menupunkt-Copy-2" font-family="IBMPlexSans-SemiBold, IBM Plex Sans" font-size="18" font-weight="500" fill="#474E95">
            <tspan x="-64" y="55">Menupunkt</tspan>
        </text>
    </g>
</svg>