<?xml version="1.0" encoding="UTF-8"?>
<svg width="362px" height="208px" viewBox="0 0 362 208" version="1.1" xmlns="http://www.w3.org/2000/svg" xmlns:xlink="http://www.w3.org/1999/xlink">
    <title>Overflow-menu-don't-01</title>
    <g id="Overflow-menu-don_t-01" data-name="Overflow-menu-don&apos;t-01">
        <rect id="Rectangle-Copy-4" x="172.5" y="0.5" width="123" height="51" fill="#dcdcdc" stroke="#707070"/>
        <rect id="Rectangle-Copy-5" x="49.5" y="0.5" width="123" height="51" fill="#dcdcdc" stroke="#707070"/>
        <rect id="Rectangle-Copy-6" x="0.5" y="0.5" width="49" height="51" fill="#dcdcdc" stroke="#707070"/>
        <g id="Menupunkt" style="isolation: isolate">
            <text transform="translate(187 33)" font-size="18" fill="#1a1a1a" font-family="ArialMT, Arial" style="isolation: isolate">Menupunkt</text>
        </g>
        <g id="Menupunkt-Copy" style="isolation: isolate">
            <text transform="translate(64 33)" font-size="18" fill="#1a1a1a" font-family="ArialMT, Arial" style="isolation: isolate">Menupunkt</text>
        </g>
        <g id="unkt" style="isolation: isolate">
            <text transform="translate(1 33)" font-size="18" fill="#1a1a1a" font-family="ArialMT, Arial" style="isolation: isolate">unkt</text>
        </g>
        <g>
            <rect id="Rectangle-Copy-3" x="294.5" y="0.5" width="26" height="51" fill="#c8cadf" stroke="#474e95"/>
            <g id="Group-Copy">
                <path id="Rectangle" d="M306.5,35h0a2.5,2.5,0,0,1,2.5,2.5h0a2.5,2.5,0,0,1-2.5,2.5h0a2.5,2.5,0,0,1-2.5-2.5h0A2.5,2.5,0,0,1,306.5,35Z" transform="translate(1 -18)" fill="#474e95" fill-rule="evenodd"/>
                <path id="Rectangle-Copy" d="M306.5,42h0a2.5,2.5,0,0,1,2.5,2.5h0a2.5,2.5,0,0,1-2.5,2.5h0a2.5,2.5,0,0,1-2.5-2.5h0A2.5,2.5,0,0,1,306.5,42Z" transform="translate(1 -18)" fill="#474e95" fill-rule="evenodd"/>
                <path id="Rectangle-Copy-2" d="M306.5,49h0a2.5,2.5,0,0,1,2.5,2.5h0a2.5,2.5,0,0,1-2.5,2.5h0a2.5,2.5,0,0,1-2.5-2.5h0A2.5,2.5,0,0,1,306.5,49Z" transform="translate(1 -18)" fill="#474e95" fill-rule="evenodd"/>
            </g>
            <path id="Combined-Shape-Copy" d="M298.68,80.5,307,61.77l8.32,18.73H360.5v145h-251V80.5Z" transform="translate(1 -18)" fill="#c8cadf" stroke="#474e95" fill-rule="evenodd"/>
            <g id="Næste-Tilbage-til-fo" style="isolation: isolate">
                <text transform="translate(287.95 91)" font-size="18" fill="#474e95" font-family="ArialMT, Arial" style="isolation: isolate">Næste</text>
                <text transform="translate(340.97 91)" font-size="18" fill="#474e95" font-family="ArialMT, Arial"> </text>
                <text transform="translate(191.51 126)" font-size="18" fill="#474e95" font-family="ArialMT, Arial" style="isolation: isolate"><tspan letter-spacing="-0.04em">T</tspan><tspan x="10.33" y="0">ilbage til forsiden</tspan></text>
                <text transform="translate(336.92 126)" font-size="18" fill="#474e95" font-family="ArialMT, Arial"> </text>
                <text transform="translate(287.67 161)" font-size="18" fill="#474e95" font-family="ArialMT, Arial" style="isolation: isolate">Log ud</text>
            </g>
        </g>
    </g>
</svg>
