<?xml version="1.0" encoding="UTF-8"?>
<svg width="360px" height="197.84px" viewBox="0 0 360 197.84" version="1.1" xmlns="http://www.w3.org/2000/svg" xmlns:xlink="http://www.w3.org/1999/xlink">
    <title>Radioknap-don't</title>
    <g>
        <path id="Rectangle" d="M34,101h0a5,5,0,0,1,5,5h0a5,5,0,0,1-5,5h0a5,5,0,0,1-5-5h0A5,5,0,0,1,34,101Z" transform="translate(-24 -19)" fill="#474e95" fill-rule="evenodd"/>
        <path id="Rectangle-2" data-name="Rectangle" d="M34,167h0a5,5,0,0,1,5,5h0a5,5,0,0,1-5,5h0a5,5,0,0,1-5-5h0A5,5,0,0,1,34,167Z" transform="translate(-24 -19)" fill="#474e95" fill-rule="evenodd"/>
        <rect id="Rectangle-3" data-name="Rectangle" x="0.5" y="44.5" width="19" height="19" rx="9" fill="none" stroke="#474e95"/>
        <g id="Valgmulighed-1" style="isolation: isolate">
            <text transform="translate(29 60)" font-size="18" fill="#474e95" font-family="ArialMT, Arial" style="isolation: isolate"><tspan letter-spacing="-0.07em">V</tspan><tspan x="10.67" y="0">algmulighed 1</tspan></text>
        </g>
        <rect id="Rectangle-4" data-name="Rectangle" x="0.5" y="77.5" width="19" height="19" rx="9" fill="none" stroke="#474e95"/>
        <g id="Valgmulighed-2" style="isolation: isolate">
            <text transform="translate(29 93)" font-size="18" fill="#474e95" font-family="ArialMT, Arial" style="isolation: isolate"><tspan letter-spacing="-0.07em">V</tspan><tspan x="10.67" y="0">algmulighed 2</tspan></text>
        </g>
        <rect id="Rectangle-5" data-name="Rectangle" x="0.5" y="110.5" width="19" height="19" rx="9" fill="none" stroke="#707070"/>
        <g id="Valgmulighed-3" style="isolation: isolate">
            <text transform="translate(29 126)" font-size="18" fill="#1a1a1a" font-family="ArialMT, Arial" style="isolation: isolate"><tspan letter-spacing="-0.07em">V</tspan><tspan x="10.67" y="0">algmulighed 3</tspan></text>
        </g>
        <rect id="Rectangle-6" data-name="Rectangle" x="0.5" y="143.5" width="19" height="19" rx="9" fill="none" stroke="#474e95"/>
        <g id="Valgmulighed-4" style="isolation: isolate">
            <text transform="translate(29 159)" font-size="18" fill="#474e95" font-family="ArialMT, Arial" style="isolation: isolate"><tspan letter-spacing="-0.07em">V</tspan><tspan x="10.67" y="0">algmulighed 4</tspan></text>
        </g>
        <rect id="Rectangle-7" data-name="Rectangle" x="0.5" y="176.5" width="19" height="19" rx="9" fill="none" stroke="#707070"/>
        <g id="Valgmulighed-5" style="isolation: isolate">
            <text transform="translate(29 192)" font-size="18" fill="#1a1a1a" font-family="ArialMT, Arial" style="isolation: isolate"><tspan letter-spacing="-0.07em">V</tspan><tspan x="10.67" y="0">algmulighed 5</tspan></text>
        </g>
        <path id="Rectangle-8" data-name="Rectangle" d="M34,68h0a5,5,0,0,1,5,5h0a5,5,0,0,1-5,5h0a5,5,0,0,1-5-5h0A5,5,0,0,1,34,68Z" transform="translate(-24 -19)" fill="#474e95" fill-rule="evenodd"/>
        <rect id="Rectangle-9" data-name="Rectangle" x="0.5" y="0.5" width="281" height="26" fill="#bfbfbf" stroke="#707070"/>
    </g>
</svg>
