<svg width="360" height="306px" viewBox="0 0 360 306" fill="none" xmlns="http://www.w3.org/2000/svg">
<path fill-rule="evenodd" clip-rule="evenodd" d="M20 73L30 68V78L20 73Z" fill="#474E95" stroke="#464C97"/><path d="M20,73l10-5V78Z" transform="translate(-18.88 -65.68)" fill="#474e95" stroke="#464c97" fill-rule="evenodd"/>
    <path d="M40.9,67.77V79H39.39V67.77h-4V66.44h9.5v1.33Zm6.65-.24a.94.94,0,0,1-.68-.21.87.87,0,0,1-.2-.6v-.23a.8.8,0,0,1,.2-.58.9.9,0,0,1,.68-.23.87.87,0,0,1,.67.23.81.81,0,0,1,.21.58v.23a.88.88,0,0,1-.21.6A.91.91,0,0,1,47.55,67.53Zm-.72,2.18h1.44V79H46.83Zm6,9.29a1.54,1.54,0,0,1-1.15-.41,1.6,1.6,0,0,1-.38-1.08V65.68h1.44V77.74h1.37V79Zm3.38-13.32h1.44v5.54h.07a2.62,2.62,0,0,1,1-1.29,3.13,3.13,0,0,1,1.68-.43,3.5,3.5,0,0,1,1.56.34,3.29,3.29,0,0,1,1.19,1A4.23,4.23,0,0,1,64,72.34a7.65,7.65,0,0,1,0,4,4.23,4.23,0,0,1-.76,1.53,3.19,3.19,0,0,1-1.19,1,3.5,3.5,0,0,1-1.56.35,2.82,2.82,0,0,1-2.72-1.73h-.07V79H56.24Zm3.83,12.24A2.49,2.49,0,0,0,62,77.16a2.89,2.89,0,0,0,.7-2V73.56a2.84,2.84,0,0,0-.7-2,2.47,2.47,0,0,0-1.93-.78,3,3,0,0,0-.94.15,2.27,2.27,0,0,0-.75.36,1.67,1.67,0,0,0-.52.57,1.43,1.43,0,0,0-.18.7V76a1.79,1.79,0,0,0,.18.81,1.83,1.83,0,0,0,.52.59,2.27,2.27,0,0,0,.75.36A3.28,3.28,0,0,0,60.07,77.92ZM73.43,79a1.43,1.43,0,0,1-1.17-.43,2.19,2.19,0,0,1-.44-1.08h-.09a2.39,2.39,0,0,1-1,1.29,3.14,3.14,0,0,1-1.68.44,3.3,3.3,0,0,1-2.3-.76,2.67,2.67,0,0,1-.81-2,2.37,2.37,0,0,1,1-2,5.16,5.16,0,0,1,3-.7h1.83v-.92a2,2,0,0,0-.54-1.51,2.29,2.29,0,0,0-1.65-.52,2.45,2.45,0,0,0-1.42.38,3,3,0,0,0-.94,1l-.86-.81A3.16,3.16,0,0,1,67.52,70a3.75,3.75,0,0,1,2.09-.54,3.85,3.85,0,0,1,2.63.82,2.94,2.94,0,0,1,.93,2.31v5.11h1.07V79Zm-4.14-1a3.84,3.84,0,0,0,1-.12,2.74,2.74,0,0,0,.77-.36,1.81,1.81,0,0,0,.5-.54,1.32,1.32,0,0,0,.18-.67V74.77h-1.9a3.53,3.53,0,0,0-1.82.36,1.17,1.17,0,0,0-.56,1v.38a1.24,1.24,0,0,0,.49,1.06A2.12,2.12,0,0,0,69.29,78Zm14.83,2A2.26,2.26,0,0,1,83,82.13a6.55,6.55,0,0,1-3.37.69,6.14,6.14,0,0,1-3.13-.6,1.87,1.87,0,0,1-.95-1.69,1.72,1.72,0,0,1,.39-1.19A2.47,2.47,0,0,1,77,78.73v-.2a1.33,1.33,0,0,1-.83-1.29,1.29,1.29,0,0,1,.45-1.07,2.91,2.91,0,0,1,1.16-.55v-.08a3,3,0,0,1-1.3-1.13A3.21,3.21,0,0,1,76,72.7a3.27,3.27,0,0,1,.25-1.3,2.87,2.87,0,0,1,.7-1,3.42,3.42,0,0,1,1.1-.67,4.11,4.11,0,0,1,1.44-.23,4.18,4.18,0,0,1,1.77.36v-.17a1.43,1.43,0,0,1,.25-.88.94.94,0,0,1,.83-.36h1.38v1.26H82v.6a2.86,2.86,0,0,1,.77,1,3.11,3.11,0,0,1,.29,1.35,3.27,3.27,0,0,1-.25,1.3,3.05,3.05,0,0,1-.72,1,3.24,3.24,0,0,1-1.1.65,4.11,4.11,0,0,1-1.44.23,4.58,4.58,0,0,1-.9-.09,3.11,3.11,0,0,0-.85.38.75.75,0,0,0-.37.67.56.56,0,0,0,.39.56,3.28,3.28,0,0,0,1,.14h2a3.78,3.78,0,0,1,2.5.67A2.18,2.18,0,0,1,84.12,80Zm-1.35.1a1.09,1.09,0,0,0-.43-.9,2.57,2.57,0,0,0-1.49-.32h-3.1a1.3,1.3,0,0,0-.86,1.26,1.37,1.37,0,0,0,.45,1,2.25,2.25,0,0,0,1.56.44h1.33a3.88,3.88,0,0,0,1.88-.38A1.23,1.23,0,0,0,82.77,80.13Zm-3.22-5.38A2.27,2.27,0,0,0,81,74.32,1.69,1.69,0,0,0,81.55,73v-.5A1.63,1.63,0,0,0,81,71.1a2.59,2.59,0,0,0-2.92,0,1.63,1.63,0,0,0-.54,1.35V73a1.69,1.69,0,0,0,.54,1.37A2.27,2.27,0,0,0,79.55,74.75Zm9.64,4.47a4.21,4.21,0,0,1-1.73-.35,3.76,3.76,0,0,1-1.31-1,4.73,4.73,0,0,1-.85-1.53,6.64,6.64,0,0,1-.29-2,6.57,6.57,0,0,1,.29-2,4.53,4.53,0,0,1,.85-1.53,3.82,3.82,0,0,1,1.31-1,4.21,4.21,0,0,1,1.73-.34,3.89,3.89,0,0,1,1.67.34,3.68,3.68,0,0,1,1.26,1,4,4,0,0,1,.79,1.42A5.35,5.35,0,0,1,93.2,74v.69H86.52v.43a3.36,3.36,0,0,0,.18,1.11,3.31,3.31,0,0,0,.54.89,2.53,2.53,0,0,0,.87.59,3.13,3.13,0,0,0,1.17.22,2.74,2.74,0,0,0,1.53-.42,2.66,2.66,0,0,0,1-1.19l1,.74a3.66,3.66,0,0,1-1.4,1.55A4.38,4.38,0,0,1,89.19,79.22Zm0-8.52a2.51,2.51,0,0,0-1.08.22,2.36,2.36,0,0,0-.85.57,2.92,2.92,0,0,0-.54.9,3.1,3.1,0,0,0-.2,1.12v.13h5.13v-.2a2.77,2.77,0,0,0-.68-2A2.24,2.24,0,0,0,89.19,70.7Z" transform="translate(-18.88 -65.68)" fill="#474e95"/>
    <path d="M35,81.25H94.05v1.08H35Z" transform="translate(-18.88 -65.68)" fill="#474e95"/>
    <path d="M340.5,189.5H19.5v41h321Z" transform="translate(-18.88 -65.68)" fill="#dcdcdc" stroke="#747474"/>
    <path d="M140.5,166.5H19.5v19h121Z" transform="translate(-18.88 -65.68)" fill="#bfbfbf" stroke="#747474"/>
    <path d="M340.5,116.5H19.5v41h321Z" transform="translate(-18.88 -65.68)" fill="#dcdcdc" stroke="#747474"/>
    <path d="M140.5,93.5H19.5v19h121Z" transform="translate(-18.88 -65.68)" fill="#bfbfbf" stroke="#747474"/>
    <path d="M105,240H20v35h85Z" transform="translate(-18.88 -65.68)" fill="#474e95"/>
    <path d="M41.51,259.27,40.36,257h0V265h-2V253.83h2.32L44,259.56l1.15,2.32h0v-8h2V265H44.87Zm11.26,2.07a2.26,2.26,0,0,0-1.18.28.86.86,0,0,0-.42.77v.26a1,1,0,0,0,.32.78,1.48,1.48,0,0,0,1,.27,2.12,2.12,0,0,0,1.15-.3,1,1,0,0,0,.48-.9v-1.16Zm6.8-1.27v-.14a2.1,2.1,0,0,0-.43-1.39,1.42,1.42,0,0,0-1.22-.55,1.62,1.62,0,0,0-1.29.55,2,2,0,0,0-.48,1.4v.13Zm-1.36,3.46a2.42,2.42,0,0,0,1.27-.32,3.1,3.1,0,0,0,.86-.79l1.1,1.24a3.39,3.39,0,0,1-1.39,1.13,4.75,4.75,0,0,1-2,.4,4.56,4.56,0,0,1-1.14-.14,4,4,0,0,1-.94-.39,3.18,3.18,0,0,1-.69-.54,2.12,2.12,0,0,1-.43-.64h-.1a2,2,0,0,1-.35.62,2.23,2.23,0,0,1-.59.55,3.08,3.08,0,0,1-.88.38,3.72,3.72,0,0,1-1.17.16,2.7,2.7,0,0,1-2-.69,2.4,2.4,0,0,1-.69-1.79,2.5,2.5,0,0,1,.26-1.15,2.27,2.27,0,0,1,.72-.82,3.28,3.28,0,0,1,1.12-.49,5.58,5.58,0,0,1,1.47-.18h1.42v-.51a1.54,1.54,0,0,0-.36-1.09,1.6,1.6,0,0,0-1.17-.38,2.12,2.12,0,0,0-1.19.3,3.25,3.25,0,0,0-.73.75l-1.22-1.08a3.51,3.51,0,0,1,1.23-1.16,4.14,4.14,0,0,1,2-.44,2.59,2.59,0,0,1,1.53.4,2.7,2.7,0,0,1,.9,1h.09a2.46,2.46,0,0,1,1-1,3.48,3.48,0,0,1,1.73-.4,3.93,3.93,0,0,1,1.68.33,3.17,3.17,0,0,1,1.15.91,3.74,3.74,0,0,1,.68,1.35,5.59,5.59,0,0,1,.22,1.61v.68H56.13v.2a1.91,1.91,0,0,0,.55,1.44A2,2,0,0,0,58.21,263.53Zm8,1.66a4.55,4.55,0,0,1-2-.4,4.71,4.71,0,0,1-1.44-1.13L64,262.44a3.88,3.88,0,0,0,1,.83,2.55,2.55,0,0,0,1.28.31,1.68,1.68,0,0,0,1-.26.81.81,0,0,0,.34-.7.73.73,0,0,0-.24-.58,1.35,1.35,0,0,0-.78-.3l-.84-.12a4.05,4.05,0,0,1-2.08-.76,2.21,2.21,0,0,1-.7-1.76A2.53,2.53,0,0,1,63.3,258a2.29,2.29,0,0,1,.64-.83,2.74,2.74,0,0,1,1-.53,4.15,4.15,0,0,1,1.31-.19,5.7,5.7,0,0,1,1.07.09,3.47,3.47,0,0,1,.86.26,3.13,3.13,0,0,1,.71.41,6.27,6.27,0,0,1,.62.55l-1.2,1.2a3,3,0,0,0-.88-.64,2.46,2.46,0,0,0-1.12-.26,1.55,1.55,0,0,0-1,.24.76.76,0,0,0-.29.63.84.84,0,0,0,.24.64,1.77,1.77,0,0,0,.85.3L67,260c1.81.26,2.71,1.08,2.71,2.47a2.53,2.53,0,0,1-1,2,3.34,3.34,0,0,1-1.08.56A4.76,4.76,0,0,1,66.25,265.19ZM74,265a2.26,2.26,0,0,1-1.62-.54,2.2,2.2,0,0,1-.54-1.59v-4.59H70.59v-1.63h.64a.74.74,0,0,0,.62-.21,1,1,0,0,0,.18-.66v-1.42h1.84v2.29h1.71v1.63H73.87v5.09h1.58V265Zm6.69.19a4.35,4.35,0,0,1-1.66-.3,3.68,3.68,0,0,1-1.24-.88,4.1,4.1,0,0,1-.76-1.38,5.48,5.48,0,0,1-.28-1.82A5.86,5.86,0,0,1,77,259a3.83,3.83,0,0,1,.77-1.36,3.13,3.13,0,0,1,1.21-.88,3.9,3.9,0,0,1,1.64-.32,4,4,0,0,1,1.69.33,3.4,3.4,0,0,1,1.19.91,4.09,4.09,0,0,1,.68,1.35,5.27,5.27,0,0,1,.24,1.61v.68H78.86v.2a2.13,2.13,0,0,0,.51,1.48,2,2,0,0,0,1.52.54,2.23,2.23,0,0,0,1.25-.32,3.25,3.25,0,0,0,.88-.82l1.11,1.24a3.52,3.52,0,0,1-1.41,1.13A4.87,4.87,0,0,1,80.67,265.19Zm0-7.2a1.62,1.62,0,0,0-1.3.55,2,2,0,0,0-.48,1.4v.13h3.43v-.14a2.1,2.1,0,0,0-.44-1.39A1.41,1.41,0,0,0,80.64,258Z" transform="translate(-18.88 -65.68)" fill="#f5f5f5"/>
</svg>
