<svg width="360" height="360" viewBox="0 0 360 360" fill="none" xmlns="http://www.w3.org/2000/svg">
<path fill-rule="evenodd" clip-rule="evenodd" d="M20 73L30 68V78L20 73Z" fill="#474E95" stroke="#464C97"/>
<path d="M40.904 67.768V79H39.392V67.768H35.396V66.436H44.9V67.768H40.904ZM47.5508 67.534C47.2388 67.534 47.0108 67.462 46.8668 67.318C46.7348 67.162 46.6688 66.964 46.6688 66.724V66.49C46.6688 66.25 46.7348 66.058 46.8668 65.914C47.0108 65.758 47.2388 65.68 47.5508 65.68C47.8628 65.68 48.0848 65.758 48.2168 65.914C48.3608 66.058 48.4328 66.25 48.4328 66.49V66.724C48.4328 66.964 48.3608 67.162 48.2168 67.318C48.0848 67.462 47.8628 67.534 47.5508 67.534ZM46.8308 69.712H48.2708V79H46.8308V69.712ZM52.8608 79C52.3568 79 51.9728 78.862 51.7088 78.586C51.4568 78.298 51.3308 77.938 51.3308 77.506V65.68H52.7708V77.74H54.1388V79H52.8608ZM56.2351 65.68H57.6751V71.224H57.7471C57.9871 70.636 58.3351 70.204 58.7911 69.928C59.2591 69.64 59.8171 69.496 60.4651 69.496C61.0411 69.496 61.5631 69.61 62.0311 69.838C62.4991 70.066 62.8951 70.39 63.2191 70.81C63.5551 71.23 63.8071 71.74 63.9751 72.34C64.1551 72.94 64.2451 73.612 64.2451 74.356C64.2451 75.1 64.1551 75.772 63.9751 76.372C63.8071 76.972 63.5551 77.482 63.2191 77.902C62.8951 78.322 62.4991 78.646 62.0311 78.874C61.5631 79.102 61.0411 79.216 60.4651 79.216C59.2051 79.216 58.2991 78.64 57.7471 77.488H57.6751V79H56.2351V65.68ZM60.0691 77.92C60.8851 77.92 61.5271 77.668 61.9951 77.164C62.4631 76.648 62.6971 75.976 62.6971 75.148V73.564C62.6971 72.736 62.4631 72.07 61.9951 71.566C61.5271 71.05 60.8851 70.792 60.0691 70.792C59.7451 70.792 59.4331 70.84 59.1331 70.936C58.8451 71.02 58.5931 71.14 58.3771 71.296C58.1611 71.452 57.9871 71.644 57.8551 71.872C57.7351 72.088 57.6751 72.322 57.6751 72.574V76.03C57.6751 76.33 57.7351 76.6 57.8551 76.84C57.9871 77.068 58.1611 77.266 58.3771 77.434C58.5931 77.59 58.8451 77.71 59.1331 77.794C59.4331 77.878 59.7451 77.92 60.0691 77.92ZM73.4265 79C72.8865 79 72.4965 78.856 72.2565 78.568C72.0285 78.28 71.8845 77.92 71.8245 77.488H71.7345C71.5305 78.064 71.1945 78.496 70.7265 78.784C70.2585 79.072 69.7005 79.216 69.0525 79.216C68.0685 79.216 67.3005 78.964 66.7485 78.46C66.2085 77.956 65.9385 77.272 65.9385 76.408C65.9385 75.532 66.2565 74.86 66.8925 74.392C67.5405 73.924 68.5425 73.69 69.8985 73.69H71.7345V72.772C71.7345 72.112 71.5545 71.608 71.1945 71.26C70.8345 70.912 70.2825 70.738 69.5385 70.738C68.9745 70.738 68.5005 70.864 68.1165 71.116C67.7445 71.368 67.4325 71.704 67.1805 72.124L66.3165 71.314C66.5685 70.81 66.9705 70.384 67.5225 70.036C68.0745 69.676 68.7705 69.496 69.6105 69.496C70.7385 69.496 71.6145 69.772 72.2385 70.324C72.8625 70.876 73.1745 71.644 73.1745 72.628V77.74H74.2365V79H73.4265ZM69.2865 77.992C69.6465 77.992 69.9765 77.95 70.2765 77.866C70.5765 77.782 70.8345 77.662 71.0505 77.506C71.2665 77.35 71.4345 77.17 71.5545 76.966C71.6745 76.762 71.7345 76.54 71.7345 76.3V74.77H69.8265C68.9985 74.77 68.3925 74.89 68.0085 75.13C67.6365 75.37 67.4505 75.718 67.4505 76.174V76.552C67.4505 77.008 67.6125 77.362 67.9365 77.614C68.2725 77.866 68.7225 77.992 69.2865 77.992ZM84.1217 80.026C84.1217 80.986 83.7437 81.688 82.9877 82.132C82.2437 82.588 81.1217 82.816 79.6217 82.816C78.1697 82.816 77.1257 82.618 76.4897 82.222C75.8537 81.826 75.5357 81.262 75.5357 80.53C75.5357 80.026 75.6677 79.63 75.9317 79.342C76.1957 79.066 76.5557 78.862 77.0117 78.73V78.532C76.4597 78.268 76.1837 77.836 76.1837 77.236C76.1837 76.768 76.3337 76.414 76.6337 76.174C76.9337 75.922 77.3177 75.736 77.7857 75.616V75.544C77.2337 75.28 76.8017 74.902 76.4897 74.41C76.1897 73.918 76.0397 73.348 76.0397 72.7C76.0397 72.232 76.1237 71.8 76.2917 71.404C76.4597 71.008 76.6937 70.672 76.9937 70.396C77.3057 70.108 77.6717 69.886 78.0917 69.73C78.5237 69.574 79.0037 69.496 79.5317 69.496C80.1917 69.496 80.7797 69.616 81.2957 69.856V69.694C81.2957 69.334 81.3797 69.04 81.5477 68.812C81.7157 68.572 81.9917 68.452 82.3757 68.452H83.7617V69.712H81.9977V70.306C82.3337 70.594 82.5917 70.942 82.7717 71.35C82.9637 71.746 83.0597 72.196 83.0597 72.7C83.0597 73.168 82.9757 73.6 82.8077 73.996C82.6397 74.392 82.3997 74.734 82.0877 75.022C81.7877 75.298 81.4217 75.514 80.9897 75.67C80.5577 75.826 80.0777 75.904 79.5497 75.904C79.2497 75.904 78.9497 75.874 78.6497 75.814C78.3377 75.898 78.0557 76.024 77.8037 76.192C77.5517 76.348 77.4257 76.57 77.4257 76.858C77.4257 77.134 77.5577 77.32 77.8217 77.416C78.0857 77.512 78.4277 77.56 78.8477 77.56H80.8277C81.9797 77.56 82.8137 77.782 83.3297 78.226C83.8577 78.658 84.1217 79.258 84.1217 80.026ZM82.7717 80.134C82.7717 79.762 82.6277 79.462 82.3397 79.234C82.0637 79.018 81.5657 78.91 80.8457 78.91H77.7497C77.1737 79.174 76.8857 79.594 76.8857 80.17C76.8857 80.578 77.0357 80.926 77.3357 81.214C77.6477 81.502 78.1697 81.646 78.9017 81.646H80.2337C81.0377 81.646 81.6617 81.52 82.1057 81.268C82.5497 81.016 82.7717 80.638 82.7717 80.134ZM79.5497 74.752C80.1617 74.752 80.6477 74.608 81.0077 74.32C81.3677 74.02 81.5477 73.564 81.5477 72.952V72.448C81.5477 71.836 81.3677 71.386 81.0077 71.098C80.6477 70.798 80.1617 70.648 79.5497 70.648C78.9377 70.648 78.4517 70.798 78.0917 71.098C77.7317 71.386 77.5517 71.836 77.5517 72.448V72.952C77.5517 73.564 77.7317 74.02 78.0917 74.32C78.4517 74.608 78.9377 74.752 79.5497 74.752ZM89.188 79.216C88.552 79.216 87.976 79.102 87.46 78.874C86.956 78.646 86.518 78.322 86.146 77.902C85.786 77.47 85.504 76.96 85.3 76.372C85.108 75.772 85.012 75.1 85.012 74.356C85.012 73.624 85.108 72.958 85.3 72.358C85.504 71.758 85.786 71.248 86.146 70.828C86.518 70.396 86.956 70.066 87.46 69.838C87.976 69.61 88.552 69.496 89.188 69.496C89.812 69.496 90.37 69.61 90.862 69.838C91.354 70.066 91.774 70.384 92.122 70.792C92.47 71.188 92.734 71.662 92.914 72.214C93.106 72.766 93.202 73.372 93.202 74.032V74.716H86.524V75.148C86.524 75.544 86.584 75.916 86.704 76.264C86.836 76.6 87.016 76.894 87.244 77.146C87.484 77.398 87.772 77.596 88.108 77.74C88.456 77.884 88.846 77.956 89.278 77.956C89.866 77.956 90.376 77.818 90.808 77.542C91.252 77.266 91.594 76.87 91.834 76.354L92.86 77.092C92.56 77.728 92.092 78.244 91.456 78.64C90.82 79.024 90.064 79.216 89.188 79.216ZM89.188 70.702C88.792 70.702 88.432 70.774 88.108 70.918C87.784 71.05 87.502 71.242 87.262 71.494C87.034 71.746 86.854 72.046 86.722 72.394C86.59 72.73 86.524 73.102 86.524 73.51V73.636H91.654V73.438C91.654 72.61 91.426 71.95 90.97 71.458C90.526 70.954 89.932 70.702 89.188 70.702Z" fill="#474E95"/>
<path d="M35 81.25H94.048V82.33H35V81.25Z" fill="#474E95"/>
<path d="M340.5 189.5H19.5V230.5H340.5V189.5Z" fill="#DCDCDC" stroke="#747474"/>
<path d="M140.5 166.5H19.5V185.5H140.5V166.5Z" fill="#BFBFBF" stroke="#747474"/>
<path d="M340.5 116.5H19.5V157.5H340.5V116.5Z" fill="#DCDCDC" stroke="#747474"/>
<path d="M140.5 93.5H19.5V112.5H140.5V93.5Z" fill="#BFBFBF" stroke="#747474"/>
<path d="M105 240H20V275H105V240Z" fill="#474E95"/>
<path d="M41.512 259.272L40.36 256.952H40.312V265H38.312V253.832H40.632L43.992 259.56L45.144 261.88H45.192V253.832H47.192V265H44.872L41.512 259.272ZM52.772 261.336C52.26 261.347 51.8653 261.443 51.588 261.624C51.3107 261.795 51.172 262.051 51.172 262.392V262.648C51.172 262.989 51.2787 263.251 51.492 263.432C51.7053 263.613 52.0253 263.704 52.452 263.704C52.9 263.704 53.284 263.603 53.604 263.4C53.924 263.197 54.084 262.899 54.084 262.504V261.336H52.772ZM59.572 260.072V259.928C59.572 259.352 59.428 258.888 59.14 258.536C58.8627 258.173 58.4573 257.992 57.924 257.992C57.38 257.992 56.948 258.173 56.628 258.536C56.308 258.899 56.148 259.368 56.148 259.944V260.072H59.572ZM58.212 263.528C58.7133 263.528 59.1347 263.421 59.476 263.208C59.8173 262.995 60.1053 262.733 60.34 262.424L61.444 263.656C61.1027 264.136 60.6387 264.515 60.052 264.792C59.4653 265.059 58.7933 265.192 58.036 265.192C57.6307 265.192 57.252 265.144 56.9 265.048C56.548 264.952 56.2333 264.824 55.956 264.664C55.6893 264.504 55.46 264.323 55.268 264.12C55.076 263.917 54.932 263.704 54.836 263.48H54.74C54.6653 263.693 54.548 263.901 54.388 264.104C54.2387 264.307 54.0413 264.488 53.796 264.648C53.5507 264.808 53.2573 264.936 52.916 265.032C52.5853 265.139 52.196 265.192 51.748 265.192C50.9053 265.192 50.2493 264.963 49.78 264.504C49.3213 264.045 49.092 263.448 49.092 262.712C49.092 262.275 49.1773 261.891 49.348 261.56C49.5187 261.229 49.7587 260.957 50.068 260.744C50.3773 260.52 50.7507 260.355 51.188 260.248C51.6253 260.131 52.116 260.072 52.66 260.072H54.084V259.56C54.084 259.091 53.9613 258.728 53.716 258.472C53.4707 258.216 53.0813 258.088 52.548 258.088C52.0573 258.088 51.6627 258.189 51.364 258.392C51.076 258.595 50.8307 258.845 50.628 259.144L49.412 258.056C49.7213 257.576 50.132 257.192 50.644 256.904C51.156 256.605 51.8333 256.456 52.676 256.456C53.316 256.456 53.828 256.589 54.212 256.856C54.596 257.112 54.8947 257.437 55.108 257.832H55.204C55.4173 257.437 55.764 257.112 56.244 256.856C56.724 256.589 57.3 256.456 57.972 256.456C58.6227 256.456 59.1827 256.568 59.652 256.792C60.1213 257.016 60.5053 257.32 60.804 257.704C61.1133 258.088 61.3373 258.536 61.476 259.048C61.6253 259.549 61.7 260.088 61.7 260.664V261.336H56.132V261.544C56.132 262.141 56.3133 262.621 56.676 262.984C57.0387 263.347 57.5507 263.528 58.212 263.528ZM66.2481 265.192C65.4481 265.192 64.7761 265.059 64.2321 264.792C63.6881 264.515 63.2081 264.136 62.7921 263.656L64.0401 262.44C64.3495 262.792 64.6855 263.069 65.0481 263.272C65.4215 263.475 65.8481 263.576 66.3281 263.576C66.8188 263.576 67.1708 263.491 67.3841 263.32C67.6081 263.149 67.7201 262.915 67.7201 262.616C67.7201 262.371 67.6401 262.179 67.4801 262.04C67.3308 261.891 67.0695 261.789 66.6961 261.736L65.8641 261.624C64.9575 261.507 64.2641 261.251 63.7841 260.856C63.3148 260.451 63.0801 259.864 63.0801 259.096C63.0801 258.691 63.1548 258.328 63.3041 258.008C63.4535 257.677 63.6668 257.4 63.9441 257.176C64.2215 256.941 64.5521 256.765 64.9361 256.648C65.3308 256.52 65.7681 256.456 66.2481 256.456C66.6535 256.456 67.0108 256.488 67.3201 256.552C67.6401 256.605 67.9281 256.691 68.1841 256.808C68.4401 256.915 68.6748 257.053 68.8881 257.224C69.1015 257.384 69.3095 257.565 69.5121 257.768L68.3121 258.968C68.0668 258.712 67.7735 258.499 67.4321 258.328C67.0908 258.157 66.7175 258.072 66.3121 258.072C65.8641 258.072 65.5388 258.152 65.3361 258.312C65.1441 258.472 65.0481 258.68 65.0481 258.936C65.0481 259.213 65.1281 259.427 65.2881 259.576C65.4588 259.715 65.7415 259.816 66.1361 259.88L66.9841 259.992C68.7868 260.248 69.6881 261.069 69.6881 262.456C69.6881 262.861 69.6028 263.235 69.4321 263.576C69.2721 263.907 69.0428 264.195 68.7441 264.44C68.4455 264.675 68.0828 264.861 67.6561 265C67.2401 265.128 66.7708 265.192 66.2481 265.192ZM73.9795 265C73.2755 265 72.7368 264.819 72.3635 264.456C72.0008 264.083 71.8195 263.555 71.8195 262.872V258.28H70.5875V256.648H71.2275C71.5368 256.648 71.7448 256.579 71.8515 256.44C71.9688 256.291 72.0275 256.072 72.0275 255.784V254.36H73.8675V256.648H75.5795V258.28H73.8675V263.368H75.4515V265H73.9795ZM80.6694 265.192C80.0507 265.192 79.496 265.091 79.0054 264.888C78.5254 264.675 78.1147 264.381 77.7734 264.008C77.4427 263.624 77.1867 263.165 77.0054 262.632C76.824 262.088 76.7334 261.48 76.7334 260.808C76.7334 260.147 76.8187 259.549 76.9894 259.016C77.1707 258.483 77.4267 258.029 77.7574 257.656C78.088 257.272 78.4934 256.979 78.9734 256.776C79.4534 256.563 79.9974 256.456 80.6054 256.456C81.256 256.456 81.8214 256.568 82.3014 256.792C82.7814 257.016 83.176 257.32 83.4854 257.704C83.7947 258.088 84.024 258.536 84.1734 259.048C84.3334 259.549 84.4134 260.088 84.4134 260.664V261.336H78.8614V261.544C78.8614 262.152 79.032 262.643 79.3734 263.016C79.7147 263.379 80.2214 263.56 80.8934 263.56C81.4054 263.56 81.8214 263.453 82.1414 263.24C82.472 263.027 82.7654 262.755 83.0214 262.424L84.1254 263.656C83.784 264.136 83.3147 264.515 82.7174 264.792C82.1307 265.059 81.448 265.192 80.6694 265.192ZM80.6374 257.992C80.0934 257.992 79.6614 258.173 79.3414 258.536C79.0214 258.899 78.8614 259.368 78.8614 259.944V260.072H82.2854V259.928C82.2854 259.352 82.1414 258.888 81.8534 258.536C81.576 258.173 81.1707 257.992 80.6374 257.992Z" fill="#F5F5F5"/>
</svg>
