<svg width="281" height="306" viewBox="0 0 281 306" fill="none" xmlns="http://www.w3.org/2000/svg">
<path fill-rule="evenodd" clip-rule="evenodd" d="M2 48L12 43V53L2 48Z" fill="#474E95" stroke="#464C97"/>
<path d="M22.904 42.768V54H21.392V42.768H17.396V41.436H26.9V42.768H22.904ZM29.5508 42.534C29.2388 42.534 29.0108 42.462 28.8668 42.318C28.7348 42.162 28.6688 41.964 28.6688 41.724V41.49C28.6688 41.25 28.7348 41.058 28.8668 40.914C29.0108 40.758 29.2388 40.68 29.5508 40.68C29.8628 40.68 30.0848 40.758 30.2168 40.914C30.3608 41.058 30.4328 41.25 30.4328 41.49V41.724C30.4328 41.964 30.3608 42.162 30.2168 42.318C30.0848 42.462 29.8628 42.534 29.5508 42.534ZM28.8308 44.712H30.2708V54H28.8308V44.712ZM34.8608 54C34.3568 54 33.9728 53.862 33.7088 53.586C33.4568 53.298 33.3308 52.938 33.3308 52.506V40.68H34.7708V52.74H36.1388V54H34.8608ZM38.2351 40.68H39.6751V46.224H39.7471C39.9871 45.636 40.3351 45.204 40.7911 44.928C41.2591 44.64 41.8171 44.496 42.4651 44.496C43.0411 44.496 43.5631 44.61 44.0311 44.838C44.4991 45.066 44.8951 45.39 45.2191 45.81C45.5551 46.23 45.8071 46.74 45.9751 47.34C46.1551 47.94 46.2451 48.612 46.2451 49.356C46.2451 50.1 46.1551 50.772 45.9751 51.372C45.8071 51.972 45.5551 52.482 45.2191 52.902C44.8951 53.322 44.4991 53.646 44.0311 53.874C43.5631 54.102 43.0411 54.216 42.4651 54.216C41.2051 54.216 40.2991 53.64 39.7471 52.488H39.6751V54H38.2351V40.68ZM42.0691 52.92C42.8851 52.92 43.5271 52.668 43.9951 52.164C44.4631 51.648 44.6971 50.976 44.6971 50.148V48.564C44.6971 47.736 44.4631 47.07 43.9951 46.566C43.5271 46.05 42.8851 45.792 42.0691 45.792C41.7451 45.792 41.4331 45.84 41.1331 45.936C40.8451 46.02 40.5931 46.14 40.3771 46.296C40.1611 46.452 39.9871 46.644 39.8551 46.872C39.7351 47.088 39.6751 47.322 39.6751 47.574V51.03C39.6751 51.33 39.7351 51.6 39.8551 51.84C39.9871 52.068 40.1611 52.266 40.3771 52.434C40.5931 52.59 40.8451 52.71 41.1331 52.794C41.4331 52.878 41.7451 52.92 42.0691 52.92ZM55.4265 54C54.8865 54 54.4965 53.856 54.2565 53.568C54.0285 53.28 53.8845 52.92 53.8245 52.488H53.7345C53.5305 53.064 53.1945 53.496 52.7265 53.784C52.2585 54.072 51.7005 54.216 51.0525 54.216C50.0685 54.216 49.3005 53.964 48.7485 53.46C48.2085 52.956 47.9385 52.272 47.9385 51.408C47.9385 50.532 48.2565 49.86 48.8925 49.392C49.5405 48.924 50.5425 48.69 51.8985 48.69H53.7345V47.772C53.7345 47.112 53.5545 46.608 53.1945 46.26C52.8345 45.912 52.2825 45.738 51.5385 45.738C50.9745 45.738 50.5005 45.864 50.1165 46.116C49.7445 46.368 49.4325 46.704 49.1805 47.124L48.3165 46.314C48.5685 45.81 48.9705 45.384 49.5225 45.036C50.0745 44.676 50.7705 44.496 51.6105 44.496C52.7385 44.496 53.6145 44.772 54.2385 45.324C54.8625 45.876 55.1745 46.644 55.1745 47.628V52.74H56.2365V54H55.4265ZM51.2865 52.992C51.6465 52.992 51.9765 52.95 52.2765 52.866C52.5765 52.782 52.8345 52.662 53.0505 52.506C53.2665 52.35 53.4345 52.17 53.5545 51.966C53.6745 51.762 53.7345 51.54 53.7345 51.3V49.77H51.8265C50.9985 49.77 50.3925 49.89 50.0085 50.13C49.6365 50.37 49.4505 50.718 49.4505 51.174V51.552C49.4505 52.008 49.6125 52.362 49.9365 52.614C50.2725 52.866 50.7225 52.992 51.2865 52.992ZM66.1217 55.026C66.1217 55.986 65.7437 56.688 64.9877 57.132C64.2437 57.588 63.1217 57.816 61.6217 57.816C60.1697 57.816 59.1257 57.618 58.4897 57.222C57.8537 56.826 57.5357 56.262 57.5357 55.53C57.5357 55.026 57.6677 54.63 57.9317 54.342C58.1957 54.066 58.5557 53.862 59.0117 53.73V53.532C58.4597 53.268 58.1837 52.836 58.1837 52.236C58.1837 51.768 58.3337 51.414 58.6337 51.174C58.9337 50.922 59.3177 50.736 59.7857 50.616V50.544C59.2337 50.28 58.8017 49.902 58.4897 49.41C58.1897 48.918 58.0397 48.348 58.0397 47.7C58.0397 47.232 58.1237 46.8 58.2917 46.404C58.4597 46.008 58.6937 45.672 58.9937 45.396C59.3057 45.108 59.6717 44.886 60.0917 44.73C60.5237 44.574 61.0037 44.496 61.5317 44.496C62.1917 44.496 62.7797 44.616 63.2957 44.856V44.694C63.2957 44.334 63.3797 44.04 63.5477 43.812C63.7157 43.572 63.9917 43.452 64.3757 43.452H65.7617V44.712H63.9977V45.306C64.3337 45.594 64.5917 45.942 64.7717 46.35C64.9637 46.746 65.0597 47.196 65.0597 47.7C65.0597 48.168 64.9757 48.6 64.8077 48.996C64.6397 49.392 64.3997 49.734 64.0877 50.022C63.7877 50.298 63.4217 50.514 62.9897 50.67C62.5577 50.826 62.0777 50.904 61.5497 50.904C61.2497 50.904 60.9497 50.874 60.6497 50.814C60.3377 50.898 60.0557 51.024 59.8037 51.192C59.5517 51.348 59.4257 51.57 59.4257 51.858C59.4257 52.134 59.5577 52.32 59.8217 52.416C60.0857 52.512 60.4277 52.56 60.8477 52.56H62.8277C63.9797 52.56 64.8137 52.782 65.3297 53.226C65.8577 53.658 66.1217 54.258 66.1217 55.026ZM64.7717 55.134C64.7717 54.762 64.6277 54.462 64.3397 54.234C64.0637 54.018 63.5657 53.91 62.8457 53.91H59.7497C59.1737 54.174 58.8857 54.594 58.8857 55.17C58.8857 55.578 59.0357 55.926 59.3357 56.214C59.6477 56.502 60.1697 56.646 60.9017 56.646H62.2337C63.0377 56.646 63.6617 56.52 64.1057 56.268C64.5497 56.016 64.7717 55.638 64.7717 55.134ZM61.5497 49.752C62.1617 49.752 62.6477 49.608 63.0077 49.32C63.3677 49.02 63.5477 48.564 63.5477 47.952V47.448C63.5477 46.836 63.3677 46.386 63.0077 46.098C62.6477 45.798 62.1617 45.648 61.5497 45.648C60.9377 45.648 60.4517 45.798 60.0917 46.098C59.7317 46.386 59.5517 46.836 59.5517 47.448V47.952C59.5517 48.564 59.7317 49.02 60.0917 49.32C60.4517 49.608 60.9377 49.752 61.5497 49.752ZM71.188 54.216C70.552 54.216 69.976 54.102 69.46 53.874C68.956 53.646 68.518 53.322 68.146 52.902C67.786 52.47 67.504 51.96 67.3 51.372C67.108 50.772 67.012 50.1 67.012 49.356C67.012 48.624 67.108 47.958 67.3 47.358C67.504 46.758 67.786 46.248 68.146 45.828C68.518 45.396 68.956 45.066 69.46 44.838C69.976 44.61 70.552 44.496 71.188 44.496C71.812 44.496 72.37 44.61 72.862 44.838C73.354 45.066 73.774 45.384 74.122 45.792C74.47 46.188 74.734 46.662 74.914 47.214C75.106 47.766 75.202 48.372 75.202 49.032V49.716H68.524V50.148C68.524 50.544 68.584 50.916 68.704 51.264C68.836 51.6 69.016 51.894 69.244 52.146C69.484 52.398 69.772 52.596 70.108 52.74C70.456 52.884 70.846 52.956 71.278 52.956C71.866 52.956 72.376 52.818 72.808 52.542C73.252 52.266 73.594 51.87 73.834 51.354L74.86 52.092C74.56 52.728 74.092 53.244 73.456 53.64C72.82 54.024 72.064 54.216 71.188 54.216ZM71.188 45.702C70.792 45.702 70.432 45.774 70.108 45.918C69.784 46.05 69.502 46.242 69.262 46.494C69.034 46.746 68.854 47.046 68.722 47.394C68.59 47.73 68.524 48.102 68.524 48.51V48.636H73.654V48.438C73.654 47.61 73.426 46.95 72.97 46.458C72.526 45.954 71.932 45.702 71.188 45.702Z" fill="#474E95"/>
<path d="M17 56.25H76.048V57.33H17V56.25Z" fill="#474E95"/>
<path d="M4.116 13V4.624H9.108V5.512H5.124V8.32H8.76V9.208H5.124V13H4.116ZM12.7584 13.144C12.3424 13.144 11.9624 13.068 11.6184 12.916C11.2744 12.764 10.9784 12.548 10.7304 12.268C10.4904 11.98 10.3024 11.64 10.1664 11.248C10.0304 10.848 9.96244 10.4 9.96244 9.904C9.96244 9.416 10.0304 8.972 10.1664 8.572C10.3024 8.172 10.4904 7.832 10.7304 7.552C10.9784 7.264 11.2744 7.044 11.6184 6.892C11.9624 6.74 12.3424 6.664 12.7584 6.664C13.1744 6.664 13.5504 6.74 13.8864 6.892C14.2304 7.044 14.5264 7.264 14.7744 7.552C15.0224 7.832 15.2144 8.172 15.3504 8.572C15.4864 8.972 15.5544 9.416 15.5544 9.904C15.5544 10.4 15.4864 10.848 15.3504 11.248C15.2144 11.64 15.0224 11.98 14.7744 12.268C14.5264 12.548 14.2304 12.764 13.8864 12.916C13.5504 13.068 13.1744 13.144 12.7584 13.144ZM12.7584 12.292C13.2784 12.292 13.7024 12.132 14.0304 11.812C14.3584 11.492 14.5224 11.004 14.5224 10.348V9.46C14.5224 8.804 14.3584 8.316 14.0304 7.996C13.7024 7.676 13.2784 7.516 12.7584 7.516C12.2384 7.516 11.8144 7.676 11.4864 7.996C11.1584 8.316 10.9944 8.804 10.9944 9.46V10.348C10.9944 11.004 11.1584 11.492 11.4864 11.812C11.8144 12.132 12.2384 12.292 12.7584 12.292ZM17.1333 13V6.808H18.0933V7.948H18.1533C18.2653 7.652 18.4653 7.388 18.7533 7.156C19.0413 6.924 19.4373 6.808 19.9413 6.808H20.3133V7.768H19.7493C19.2293 7.768 18.8213 7.868 18.5253 8.068C18.2373 8.26 18.0933 8.504 18.0933 8.8V13H17.1333ZM23.3995 13.144C22.8235 13.144 22.3395 13.036 21.9475 12.82C21.5635 12.596 21.2315 12.3 20.9515 11.932L21.6355 11.38C21.8755 11.684 22.1435 11.92 22.4395 12.088C22.7355 12.248 23.0795 12.328 23.4715 12.328C23.8795 12.328 24.1955 12.24 24.4195 12.064C24.6515 11.888 24.7675 11.64 24.7675 11.32C24.7675 11.08 24.6875 10.876 24.5275 10.708C24.3755 10.532 24.0955 10.412 23.6875 10.348L23.1955 10.276C22.9075 10.236 22.6435 10.176 22.4035 10.096C22.1635 10.008 21.9515 9.896 21.7675 9.76C21.5915 9.616 21.4515 9.44 21.3475 9.232C21.2515 9.024 21.2035 8.776 21.2035 8.488C21.2035 8.184 21.2595 7.92 21.3715 7.696C21.4835 7.464 21.6355 7.272 21.8275 7.12C22.0275 6.968 22.2635 6.856 22.5355 6.784C22.8075 6.704 23.0995 6.664 23.4115 6.664C23.9155 6.664 24.3355 6.752 24.6715 6.928C25.0155 7.104 25.3155 7.348 25.5715 7.66L24.9355 8.236C24.7995 8.044 24.5995 7.872 24.3355 7.72C24.0715 7.56 23.7395 7.48 23.3395 7.48C22.9395 7.48 22.6355 7.568 22.4275 7.744C22.2275 7.912 22.1275 8.144 22.1275 8.44C22.1275 8.744 22.2275 8.964 22.4275 9.1C22.6355 9.236 22.9315 9.336 23.3155 9.4L23.7955 9.472C24.4835 9.576 24.9715 9.776 25.2595 10.072C25.5475 10.36 25.6915 10.74 25.6915 11.212C25.6915 11.812 25.4875 12.284 25.0795 12.628C24.6715 12.972 24.1115 13.144 23.3995 13.144ZM27.8672 5.356C27.6592 5.356 27.5072 5.308 27.4112 5.212C27.3232 5.108 27.2792 4.976 27.2792 4.816V4.66C27.2792 4.5 27.3232 4.372 27.4112 4.276C27.5072 4.172 27.6592 4.12 27.8672 4.12C28.0752 4.12 28.2232 4.172 28.3112 4.276C28.4072 4.372 28.4552 4.5 28.4552 4.66V4.816C28.4552 4.976 28.4072 5.108 28.3112 5.212C28.2232 5.308 28.0752 5.356 27.8672 5.356ZM27.3872 6.808H28.3472V13H27.3872V6.808ZM34.3472 11.992H34.2992C33.9232 12.76 33.3192 13.144 32.4872 13.144C32.1032 13.144 31.7552 13.068 31.4432 12.916C31.1312 12.764 30.8632 12.548 30.6392 12.268C30.4232 11.988 30.2552 11.648 30.1352 11.248C30.0232 10.848 29.9672 10.4 29.9672 9.904C29.9672 9.408 30.0232 8.96 30.1352 8.56C30.2552 8.16 30.4232 7.82 30.6392 7.54C30.8632 7.26 31.1312 7.044 31.4432 6.892C31.7552 6.74 32.1032 6.664 32.4872 6.664C32.9192 6.664 33.2872 6.76 33.5912 6.952C33.9032 7.136 34.1392 7.424 34.2992 7.816H34.3472V4.12H35.3072V13H34.3472V11.992ZM32.7512 12.28C32.9672 12.28 33.1712 12.252 33.3632 12.196C33.5632 12.14 33.7352 12.06 33.8792 11.956C34.0232 11.844 34.1352 11.712 34.2152 11.56C34.3032 11.4 34.3472 11.22 34.3472 11.02V8.716C34.3472 8.548 34.3032 8.392 34.2152 8.248C34.1352 8.096 34.0232 7.968 33.8792 7.864C33.7352 7.76 33.5632 7.68 33.3632 7.624C33.1712 7.56 32.9672 7.528 32.7512 7.528C32.2072 7.528 31.7792 7.7 31.4672 8.044C31.1552 8.38 30.9992 8.824 30.9992 9.376V10.432C30.9992 10.984 31.1552 11.432 31.4672 11.776C31.7792 12.112 32.2072 12.28 32.7512 12.28ZM39.6761 13.144C39.2521 13.144 38.8681 13.068 38.5241 12.916C38.1881 12.764 37.8961 12.548 37.6481 12.268C37.4081 11.98 37.2201 11.64 37.0841 11.248C36.9561 10.848 36.8921 10.4 36.8921 9.904C36.8921 9.416 36.9561 8.972 37.0841 8.572C37.2201 8.172 37.4081 7.832 37.6481 7.552C37.8961 7.264 38.1881 7.044 38.5241 6.892C38.8681 6.74 39.2521 6.664 39.6761 6.664C40.0921 6.664 40.4641 6.74 40.7921 6.892C41.1201 7.044 41.4001 7.256 41.6321 7.528C41.8641 7.792 42.0401 8.108 42.1601 8.476C42.2881 8.844 42.3521 9.248 42.3521 9.688V10.144H37.9001V10.432C37.9001 10.696 37.9401 10.944 38.0201 11.176C38.1081 11.4 38.2281 11.596 38.3801 11.764C38.5401 11.932 38.7321 12.064 38.9561 12.16C39.1881 12.256 39.4481 12.304 39.7361 12.304C40.1281 12.304 40.4681 12.212 40.7561 12.028C41.0521 11.844 41.2801 11.58 41.4401 11.236L42.1241 11.728C41.9241 12.152 41.6121 12.496 41.1881 12.76C40.7641 13.016 40.2601 13.144 39.6761 13.144ZM39.6761 7.468C39.4121 7.468 39.1721 7.516 38.9561 7.612C38.7401 7.7 38.5521 7.828 38.3921 7.996C38.2401 8.164 38.1201 8.364 38.0321 8.596C37.9441 8.82 37.9001 9.068 37.9001 9.34V9.424H41.3201V9.292C41.3201 8.74 41.1681 8.3 40.8641 7.972C40.5681 7.636 40.1721 7.468 39.6761 7.468Z" fill="#474E95"/>
<path d="M3 14.5H42.9161V15.22H3V14.5Z" fill="#474E95"/>
<path d="M80.468 13.144C79.788 13.144 79.208 13.016 78.728 12.76C78.248 12.496 77.84 12.136 77.504 11.68L78.248 11.056C78.544 11.448 78.872 11.748 79.232 11.956C79.592 12.156 80.016 12.256 80.504 12.256C81.104 12.256 81.56 12.112 81.872 11.824C82.192 11.536 82.352 11.152 82.352 10.672C82.352 10.272 82.232 9.964 81.992 9.748C81.752 9.532 81.356 9.36 80.804 9.232L80.12 9.076C79.352 8.9 78.764 8.636 78.356 8.284C77.956 7.924 77.756 7.42 77.756 6.772C77.756 6.404 77.824 6.076 77.96 5.788C78.096 5.5 78.284 5.26 78.524 5.068C78.772 4.876 79.064 4.732 79.4 4.636C79.744 4.532 80.12 4.48 80.528 4.48C81.16 4.48 81.7 4.596 82.148 4.828C82.604 5.06 82.988 5.4 83.3 5.848L82.544 6.4C82.312 6.08 82.032 5.828 81.704 5.644C81.376 5.46 80.968 5.368 80.48 5.368C79.944 5.368 79.52 5.484 79.208 5.716C78.904 5.94 78.752 6.28 78.752 6.736C78.752 7.136 78.88 7.44 79.136 7.648C79.4 7.848 79.796 8.008 80.324 8.128L81.008 8.284C81.832 8.468 82.428 8.748 82.796 9.124C83.164 9.5 83.348 10 83.348 10.624C83.348 11.008 83.28 11.356 83.144 11.668C83.016 11.98 82.828 12.244 82.58 12.46C82.332 12.676 82.028 12.844 81.668 12.964C81.316 13.084 80.916 13.144 80.468 13.144ZM85.4727 5.356C85.2647 5.356 85.1127 5.308 85.0167 5.212C84.9287 5.108 84.8847 4.976 84.8847 4.816V4.66C84.8847 4.5 84.9287 4.372 85.0167 4.276C85.1127 4.172 85.2647 4.12 85.4727 4.12C85.6807 4.12 85.8287 4.172 85.9167 4.276C86.0127 4.372 86.0607 4.5 86.0607 4.66V4.816C86.0607 4.976 86.0127 5.108 85.9167 5.212C85.8287 5.308 85.6807 5.356 85.4727 5.356ZM84.9927 6.808H85.9527V13H84.9927V6.808ZM91.9527 11.992H91.9047C91.5287 12.76 90.9247 13.144 90.0927 13.144C89.7087 13.144 89.3607 13.068 89.0487 12.916C88.7367 12.764 88.4687 12.548 88.2447 12.268C88.0287 11.988 87.8607 11.648 87.7407 11.248C87.6287 10.848 87.5727 10.4 87.5727 9.904C87.5727 9.408 87.6287 8.96 87.7407 8.56C87.8607 8.16 88.0287 7.82 88.2447 7.54C88.4687 7.26 88.7367 7.044 89.0487 6.892C89.3607 6.74 89.7087 6.664 90.0927 6.664C90.5247 6.664 90.8927 6.76 91.1967 6.952C91.5087 7.136 91.7447 7.424 91.9047 7.816H91.9527V4.12H92.9127V13H91.9527V11.992ZM90.3567 12.28C90.5727 12.28 90.7767 12.252 90.9687 12.196C91.1687 12.14 91.3407 12.06 91.4847 11.956C91.6287 11.844 91.7407 11.712 91.8207 11.56C91.9087 11.4 91.9527 11.22 91.9527 11.02V8.716C91.9527 8.548 91.9087 8.392 91.8207 8.248C91.7407 8.096 91.6287 7.968 91.4847 7.864C91.3407 7.76 91.1687 7.68 90.9687 7.624C90.7767 7.56 90.5727 7.528 90.3567 7.528C89.8127 7.528 89.3847 7.7 89.0727 8.044C88.7607 8.38 88.6047 8.824 88.6047 9.376V10.432C88.6047 10.984 88.7607 11.432 89.0727 11.776C89.3847 12.112 89.8127 12.28 90.3567 12.28ZM97.2816 13.144C96.8576 13.144 96.4736 13.068 96.1296 12.916C95.7936 12.764 95.5016 12.548 95.2536 12.268C95.0136 11.98 94.8256 11.64 94.6896 11.248C94.5616 10.848 94.4976 10.4 94.4976 9.904C94.4976 9.416 94.5616 8.972 94.6896 8.572C94.8256 8.172 95.0136 7.832 95.2536 7.552C95.5016 7.264 95.7936 7.044 96.1296 6.892C96.4736 6.74 96.8576 6.664 97.2816 6.664C97.6976 6.664 98.0696 6.74 98.3976 6.892C98.7256 7.044 99.0056 7.256 99.2376 7.528C99.4696 7.792 99.6456 8.108 99.7656 8.476C99.8936 8.844 99.9576 9.248 99.9576 9.688V10.144H95.5056V10.432C95.5056 10.696 95.5456 10.944 95.6256 11.176C95.7136 11.4 95.8336 11.596 95.9856 11.764C96.1456 11.932 96.3376 12.064 96.5616 12.16C96.7936 12.256 97.0536 12.304 97.3416 12.304C97.7336 12.304 98.0736 12.212 98.3616 12.028C98.6576 11.844 98.8856 11.58 99.0456 11.236L99.7296 11.728C99.5296 12.152 99.2176 12.496 98.7936 12.76C98.3696 13.016 97.8656 13.144 97.2816 13.144ZM97.2816 7.468C97.0176 7.468 96.7776 7.516 96.5616 7.612C96.3456 7.7 96.1576 7.828 95.9976 7.996C95.8456 8.164 95.7256 8.364 95.6376 8.596C95.5496 8.82 95.5056 9.068 95.5056 9.34V9.424H98.9256V9.292C98.9256 8.74 98.7736 8.3 98.4696 7.972C98.1736 7.636 97.7776 7.468 97.2816 7.468ZM109.715 13L108.875 10.528H105.491L104.651 13H103.631L106.559 4.624H107.843L110.771 13H109.715ZM107.207 5.56H107.147L105.731 9.64H108.623L107.207 5.56Z" fill="#474E95"/>
<path d="M77 14.5H111.047V15.22H77V14.5Z" fill="#474E95"/>
<path d="M147.54 13.144C146.836 13.144 146.236 13.016 145.74 12.76C145.252 12.504 144.832 12.16 144.48 11.728L145.416 10.852C145.712 11.212 146.036 11.484 146.388 11.668C146.748 11.852 147.156 11.944 147.612 11.944C148.148 11.944 148.552 11.824 148.824 11.584C149.096 11.344 149.232 11.02 149.232 10.612C149.232 10.284 149.136 10.024 148.944 9.832C148.752 9.64 148.412 9.496 147.924 9.4L147.18 9.268C146.364 9.116 145.752 8.848 145.344 8.464C144.936 8.08 144.732 7.552 144.732 6.88C144.732 6.512 144.8 6.18 144.936 5.884C145.08 5.58 145.276 5.328 145.524 5.128C145.78 4.92 146.088 4.76 146.448 4.648C146.808 4.536 147.212 4.48 147.66 4.48C148.292 4.48 148.84 4.592 149.304 4.816C149.768 5.032 150.164 5.348 150.492 5.764L149.544 6.604C149.328 6.324 149.064 6.1 148.752 5.932C148.44 5.764 148.052 5.68 147.588 5.68C147.108 5.68 146.736 5.776 146.472 5.968C146.208 6.16 146.076 6.44 146.076 6.808C146.076 7.16 146.184 7.424 146.4 7.6C146.616 7.768 146.952 7.896 147.408 7.984L148.152 8.14C148.992 8.3 149.604 8.572 149.988 8.956C150.38 9.34 150.576 9.868 150.576 10.54C150.576 10.932 150.508 11.288 150.372 11.608C150.236 11.928 150.036 12.204 149.772 12.436C149.516 12.66 149.2 12.836 148.824 12.964C148.448 13.084 148.02 13.144 147.54 13.144ZM152.768 5.644C152.496 5.644 152.296 5.58 152.168 5.452C152.048 5.324 151.988 5.16 151.988 4.96V4.756C151.988 4.556 152.048 4.392 152.168 4.264C152.296 4.136 152.496 4.072 152.768 4.072C153.04 4.072 153.236 4.136 153.356 4.264C153.476 4.392 153.536 4.556 153.536 4.756V4.96C153.536 5.16 153.476 5.324 153.356 5.452C153.236 5.58 153.04 5.644 152.768 5.644ZM152.108 6.76H153.416V13H152.108V6.76ZM159.208 11.968H159.148C159.012 12.336 158.788 12.624 158.476 12.832C158.172 13.04 157.812 13.144 157.396 13.144C156.604 13.144 155.992 12.86 155.56 12.292C155.128 11.716 154.912 10.912 154.912 9.88C154.912 8.848 155.128 8.048 155.56 7.48C155.992 6.904 156.604 6.616 157.396 6.616C157.812 6.616 158.172 6.72 158.476 6.928C158.788 7.128 159.012 7.416 159.148 7.792H159.208V4.12H160.516V13H159.208V11.968ZM157.792 12.016C158.192 12.016 158.528 11.92 158.8 11.728C159.072 11.528 159.208 11.268 159.208 10.948V8.812C159.208 8.492 159.072 8.236 158.8 8.044C158.528 7.844 158.192 7.744 157.792 7.744C157.336 7.744 156.972 7.892 156.7 8.188C156.428 8.476 156.292 8.86 156.292 9.34V10.42C156.292 10.9 156.428 11.288 156.7 11.584C156.972 11.872 157.336 12.016 157.792 12.016ZM164.833 13.144C164.385 13.144 163.985 13.068 163.633 12.916C163.281 12.764 162.981 12.548 162.733 12.268C162.485 11.98 162.293 11.636 162.157 11.236C162.029 10.828 161.965 10.376 161.965 9.88C161.965 9.384 162.029 8.936 162.157 8.536C162.293 8.128 162.485 7.784 162.733 7.504C162.981 7.216 163.281 6.996 163.633 6.844C163.985 6.692 164.385 6.616 164.833 6.616C165.289 6.616 165.689 6.696 166.033 6.856C166.385 7.016 166.677 7.24 166.909 7.528C167.141 7.808 167.313 8.136 167.425 8.512C167.545 8.888 167.605 9.292 167.605 9.724V10.216H163.321V10.42C163.321 10.9 163.461 11.296 163.741 11.608C164.029 11.912 164.437 12.064 164.965 12.064C165.349 12.064 165.673 11.98 165.937 11.812C166.201 11.644 166.425 11.416 166.609 11.128L167.377 11.884C167.145 12.268 166.809 12.576 166.369 12.808C165.929 13.032 165.417 13.144 164.833 13.144ZM164.833 7.636C164.609 7.636 164.401 7.676 164.209 7.756C164.025 7.836 163.865 7.948 163.729 8.092C163.601 8.236 163.501 8.408 163.429 8.608C163.357 8.808 163.321 9.028 163.321 9.268V9.352H166.225V9.232C166.225 8.752 166.101 8.368 165.853 8.08C165.605 7.784 165.265 7.636 164.833 7.636ZM171.985 4.624H175.693C176.389 4.624 176.933 4.82 177.325 5.212C177.725 5.604 177.925 6.128 177.925 6.784C177.925 7.096 177.881 7.364 177.793 7.588C177.705 7.804 177.593 7.984 177.457 8.128C177.321 8.264 177.165 8.368 176.989 8.44C176.813 8.504 176.641 8.544 176.473 8.56V8.632C176.641 8.64 176.825 8.68 177.025 8.752C177.233 8.824 177.425 8.94 177.601 9.1C177.777 9.252 177.925 9.452 178.045 9.7C178.165 9.94 178.225 10.236 178.225 10.588C178.225 10.924 178.169 11.24 178.057 11.536C177.953 11.832 177.805 12.088 177.613 12.304C177.421 12.52 177.193 12.692 176.929 12.82C176.665 12.94 176.377 13 176.065 13H171.985V4.624ZM173.341 11.836H175.669C176.021 11.836 176.297 11.744 176.497 11.56C176.697 11.376 176.797 11.112 176.797 10.768V10.36C176.797 10.016 176.697 9.752 176.497 9.568C176.297 9.384 176.021 9.292 175.669 9.292H173.341V11.836ZM173.341 8.164H175.441C175.777 8.164 176.037 8.08 176.221 7.912C176.405 7.736 176.497 7.488 176.497 7.168V6.784C176.497 6.464 176.405 6.22 176.221 6.052C176.037 5.876 175.777 5.788 175.441 5.788H173.341V8.164Z" fill="#474E95"/>
<path d="M60.08 12.136L64.22 9.724V9.628L60.08 7.216V6.208L65.12 9.196V10.156L60.08 13.144V12.136Z" fill="#474E95"/>
<path d="M128.08 12.136L132.22 9.724V9.628L128.08 7.216V6.208L133.12 9.196V10.156L128.08 13.144V12.136Z" fill="#474E95"/>
<path d="M217.5 213H2.5V232H217.5V213Z" fill="#BFBFBF" stroke="#747474"/>
<path d="M233 149H2V168H233V149Z" fill="#BFBFBF" stroke="#747474"/>
<path d="M122.5 87H1.5V106H122.5V87Z" fill="#BFBFBF" stroke="#747474"/>
<path d="M122.5 252H1.5V271H122.5V252Z" fill="#BFBFBF" stroke="#747474"/>
<path d="M279.5 115H1.5V140H279.5V115Z" fill="#BFBFBF" stroke="#747474"/>
<path d="M280 179H2V204H280V179Z" fill="#BFBFBF" stroke="#747474"/>
<path d="M280 280H2V305H280V280Z" fill="#BFBFBF" stroke="#747474"/>
</svg>
