<svg width="239" height="108" viewBox="0 0 239 108" fill="none" xmlns="http://www.w3.org/2000/svg">
<path d="M71 49C71 44.5817 67.4183 41 63 41C58.5817 41 55 44.5817 55 49C55 53.4183 58.5817 57 63 57C67.4183 57 71 53.4183 71 49Z" fill="#C8CADF" stroke="#474E95"/>
<path fill-rule="evenodd" clip-rule="evenodd" d="M68.809 27L63.5 37.618L58.191 27H38V1H238V27H68.809Z" fill="#C8CADF" stroke="#474E95"/>
<path d="M3.174 56.5V43.936H4.686V55.168H10.032V56.5H3.174ZM18.78 56.5C18.24 56.5 17.85 56.356 17.61 56.068C17.382 55.78 17.238 55.42 17.178 54.988H17.088C16.884 55.564 16.548 55.996 16.08 56.284C15.612 56.572 15.054 56.716 14.406 56.716C13.422 56.716 12.654 56.464 12.102 55.96C11.562 55.456 11.292 54.772 11.292 53.908C11.292 53.032 11.61 52.36 12.246 51.892C12.894 51.424 13.896 51.19 15.252 51.19H17.088V50.272C17.088 49.612 16.908 49.108 16.548 48.76C16.188 48.412 15.636 48.238 14.892 48.238C14.328 48.238 13.854 48.364 13.47 48.616C13.098 48.868 12.786 49.204 12.534 49.624L11.67 48.814C11.922 48.31 12.324 47.884 12.876 47.536C13.428 47.176 14.124 46.996 14.964 46.996C16.092 46.996 16.968 47.272 17.592 47.824C18.216 48.376 18.528 49.144 18.528 50.128V55.24H19.59V56.5H18.78ZM14.64 55.492C15 55.492 15.33 55.45 15.63 55.366C15.93 55.282 16.188 55.162 16.404 55.006C16.62 54.85 16.788 54.67 16.908 54.466C17.028 54.262 17.088 54.04 17.088 53.8V52.27H15.18C14.352 52.27 13.746 52.39 13.362 52.63C12.99 52.87 12.804 53.218 12.804 53.674V54.052C12.804 54.508 12.966 54.862 13.29 55.114C13.626 55.366 14.076 55.492 14.64 55.492ZM21.6452 43.18H23.0852V48.724H23.1572C23.3972 48.136 23.7452 47.704 24.2012 47.428C24.6692 47.14 25.2272 46.996 25.8752 46.996C26.4512 46.996 26.9732 47.11 27.4412 47.338C27.9092 47.566 28.3052 47.89 28.6292 48.31C28.9652 48.73 29.2172 49.24 29.3852 49.84C29.5652 50.44 29.6552 51.112 29.6552 51.856C29.6552 52.6 29.5652 53.272 29.3852 53.872C29.2172 54.472 28.9652 54.982 28.6292 55.402C28.3052 55.822 27.9092 56.146 27.4412 56.374C26.9732 56.602 26.4512 56.716 25.8752 56.716C24.6152 56.716 23.7092 56.14 23.1572 54.988H23.0852V56.5H21.6452V43.18ZM25.4792 55.42C26.2952 55.42 26.9372 55.168 27.4052 54.664C27.8732 54.148 28.1072 53.476 28.1072 52.648V51.064C28.1072 50.236 27.8732 49.57 27.4052 49.066C26.9372 48.55 26.2952 48.292 25.4792 48.292C25.1552 48.292 24.8432 48.34 24.5432 48.436C24.2552 48.52 24.0032 48.64 23.7872 48.796C23.5712 48.952 23.3972 49.144 23.2652 49.372C23.1452 49.588 23.0852 49.822 23.0852 50.074V53.53C23.0852 53.83 23.1452 54.1 23.2652 54.34C23.3972 54.568 23.5712 54.766 23.7872 54.934C24.0032 55.09 24.2552 55.21 24.5432 55.294C24.8432 55.378 25.1552 55.42 25.4792 55.42ZM35.5786 56.716C34.9426 56.716 34.3666 56.602 33.8506 56.374C33.3466 56.146 32.9086 55.822 32.5366 55.402C32.1766 54.97 31.8946 54.46 31.6906 53.872C31.4986 53.272 31.4026 52.6 31.4026 51.856C31.4026 51.124 31.4986 50.458 31.6906 49.858C31.8946 49.258 32.1766 48.748 32.5366 48.328C32.9086 47.896 33.3466 47.566 33.8506 47.338C34.3666 47.11 34.9426 46.996 35.5786 46.996C36.2026 46.996 36.7606 47.11 37.2526 47.338C37.7446 47.566 38.1646 47.884 38.5126 48.292C38.8606 48.688 39.1246 49.162 39.3046 49.714C39.4966 50.266 39.5926 50.872 39.5926 51.532V52.216H32.9146V52.648C32.9146 53.044 32.9746 53.416 33.0946 53.764C33.2266 54.1 33.4066 54.394 33.6346 54.646C33.8746 54.898 34.1626 55.096 34.4986 55.24C34.8466 55.384 35.2366 55.456 35.6686 55.456C36.2566 55.456 36.7666 55.318 37.1986 55.042C37.6426 54.766 37.9846 54.37 38.2246 53.854L39.2506 54.592C38.9506 55.228 38.4826 55.744 37.8466 56.14C37.2106 56.524 36.4546 56.716 35.5786 56.716ZM35.5786 48.202C35.1826 48.202 34.8226 48.274 34.4986 48.418C34.1746 48.55 33.8926 48.742 33.6526 48.994C33.4246 49.246 33.2446 49.546 33.1126 49.894C32.9806 50.23 32.9146 50.602 32.9146 51.01V51.136H38.0446V50.938C38.0446 50.11 37.8166 49.45 37.3606 48.958C36.9166 48.454 36.3226 48.202 35.5786 48.202ZM43.4955 56.5C42.9915 56.5 42.6075 56.362 42.3435 56.086C42.0915 55.798 41.9655 55.438 41.9655 55.006V43.18H43.4055V55.24H44.7735V56.5H43.4955Z" fill="#1A1A1A"/>
<path d="M182 66H1V107H182V66Z" fill="#DCDCDC" stroke="#747474"/>
<path d="M62.006 50.588V48.292C62.7713 48.2547 63.3687 48.068 63.798 47.732C64.2367 47.396 64.456 46.934 64.456 46.346V46.15C64.456 45.674 64.3067 45.296 64.008 45.016C63.7093 44.7267 63.308 44.582 62.804 44.582C62.2627 44.582 61.8287 44.736 61.502 45.044C61.1847 45.352 60.97 45.744 60.858 46.22L59.822 45.828C59.906 45.5293 60.0273 45.2447 60.186 44.974C60.354 44.694 60.5593 44.4513 60.802 44.246C61.054 44.0313 61.348 43.8633 61.684 43.742C62.02 43.6207 62.4073 43.56 62.846 43.56C63.714 43.56 64.4 43.798 64.904 44.274C65.408 44.75 65.66 45.394 65.66 46.206C65.66 46.654 65.5807 47.046 65.422 47.382C65.2727 47.7087 65.0767 47.9887 64.834 48.222C64.5913 48.4553 64.316 48.642 64.008 48.782C63.7 48.922 63.392 49.02 63.084 49.076V50.588H62.006ZM62.552 53.668C62.2533 53.668 62.034 53.5933 61.894 53.444C61.7633 53.2947 61.698 53.0987 61.698 52.856V52.674C61.698 52.4313 61.7633 52.2353 61.894 52.086C62.034 51.9367 62.2533 51.862 62.552 51.862C62.8507 51.862 63.0653 51.9367 63.196 52.086C63.336 52.2353 63.406 52.4313 63.406 52.674V52.856C63.406 53.0987 63.336 53.2947 63.196 53.444C63.0653 53.5933 62.8507 53.668 62.552 53.668Z" fill="#474E95"/>
</svg>
