<svg width="1075" height="913" viewBox="0 0 1075 913" fill="none" xmlns="http://www.w3.org/2000/svg">
<g clip-path="url(#clip0_14640_13546)">
<rect width="1075" height="913" fill="#F5F5F5"/>
<g clip-path="url(#clip1_14640_13546)">
<path d="M528.712 878.886C341.092 862.616 158.41 697.196 116.966 502.63C75.8555 308.925 175.983 86.0751 324.604 10.93C473.822 -63.9518 672.658 7.93907 810.776 135.168C948.295 262.134 1025.96 444.103 967.949 601.993C909.94 759.884 717.192 894.821 528.712 878.886Z" fill="white"/>
<path d="M269.754 563.062C269.754 558.603 273.319 555.004 277.777 555.06C308.602 555.444 419.356 556.794 452.556 556.794C487.392 556.794 720.144 555.307 766.3 555.01C770.738 554.982 774.246 558.572 774.246 563.011V665.637C774.246 670.109 770.626 673.715 766.154 673.646C741.982 673.273 666.946 672.226 585.993 672.226C498.674 672.226 317.681 673.444 277.688 673.721C273.248 673.751 269.754 670.159 269.754 665.719V563.062Z" fill="#F5F5F5" stroke="#707070" stroke-width="1.8" stroke-linecap="round" stroke-linejoin="round" stroke-dasharray="4 6"/>
<path d="M270.108 536.641C270.179 537.415 270.501 538.09 271.248 538.308C273.291 538.904 279.338 539.583 297.099 537.785C318.947 535.573 395.102 537.109 417.864 537.63C421.648 537.717 424.798 535.124 425.058 531.347C425.575 523.814 425.932 508.533 424.337 479.789C422.127 439.967 423.664 340.736 424.183 311.428C424.263 306.891 420.585 303.217 416.049 303.286C392.899 303.639 327.651 304.477 303.196 303.152C298.3 302.886 294.124 302.707 290.563 302.594C283.291 302.363 272.537 313.995 272.542 321.27C272.549 333.818 271.972 354.416 270.218 387.994C265.448 479.329 269.382 528.693 270.108 536.641Z" fill="#F5F5F5" stroke="#707070" stroke-width="1.8" stroke-linecap="round" stroke-linejoin="round" stroke-dasharray="4 6"/>
<path d="M444.913 529.301C445.01 533.673 448.594 537.112 452.966 537.045C475.309 536.701 538.355 535.864 549.492 537.172C559.15 538.306 580.05 537.827 591.321 537.456C595.572 537.316 598.919 533.96 598.953 529.707C599.257 491.719 600.524 320.674 598.891 295.181C597.652 275.828 598.083 256.323 598.496 245.666C598.671 241.15 595.172 237.318 590.654 237.215C576.18 236.885 545.493 236.392 522.003 237.429C498.977 238.445 469.035 237.991 454.228 237.662C449.395 237.555 445.523 241.656 445.92 246.474C447.789 269.131 451.958 330.577 447.804 387.396C443.578 445.212 444.436 507.694 444.913 529.301Z" fill="#F5F5F5" stroke="#707070" stroke-width="1.8" stroke-linecap="round" stroke-linejoin="round" stroke-dasharray="4 6"/>
<path d="M620.093 529.671C620.288 533.903 623.782 537.174 628.02 537.174H766.146C770.604 537.174 774.202 533.565 774.146 529.107C773.706 494.068 771.986 355.686 771.986 329.981C771.986 307.047 773.355 263.791 773.963 245.706C774.115 241.178 770.487 237.431 765.956 237.431H628.6C624.132 237.431 620.528 241.009 620.592 245.476C621.053 277.647 622.584 396.62 620.474 423.936C617.485 462.623 619.242 511.277 620.093 529.671Z" fill="#F5F5F5" stroke="#707070" stroke-width="1.8" stroke-linecap="round" stroke-linejoin="round" stroke-dasharray="4 6"/>
<g filter="url(#filter0_d_14640_13546)">
<path d="M734.738 286.625C769.982 285.896 794.024 286.05 807.507 286.285L812.641 286.388C816.472 286.476 819.472 289.582 819.516 293.383L819.511 293.753C818.846 310.925 817.356 351.417 817.356 369.676C817.356 384.173 818.296 426.972 819.016 457.643L819.619 482.772C819.72 486.864 816.402 490.184 812.301 490.121L798.625 489.924C761.288 489.418 686.726 488.659 657.557 490.172L656.011 490.257C627.829 491.893 550.137 491.087 512.486 490.572L499.062 490.377C495.35 490.32 492.368 487.459 492.091 483.788L492.072 483.43C491.533 463.41 490.32 409.6 492.194 389.456L492.286 388.522C494.158 370.445 493.218 321.532 492.637 298.353L492.526 294.076C492.421 290.12 495.487 286.862 499.393 286.684L499.773 286.676C535.214 286.885 674.764 287.629 729.692 286.719L734.738 286.625Z" fill="white" stroke="black" stroke-width="1.6"/>
<path d="M574.815 334.069V331.427C574.815 329.832 573.567 328.518 571.973 328.465C568.668 328.353 563.158 328.248 559.156 328.582C554.558 328.965 542.055 328.769 536.224 328.651C534.537 328.616 533.152 329.973 533.152 331.659V334.419C533.152 335.96 534.319 337.242 535.859 337.304C537.938 337.388 541.016 337.419 544.381 337.133C549.131 336.73 565.015 336.957 571.752 337.075C573.433 337.105 574.815 335.751 574.815 334.069Z" fill="#8E8E8E"/>
<path d="M533.154 400.808L533.154 403.45C533.154 405.045 534.402 406.359 535.996 406.412C539.3 406.523 544.811 406.629 548.812 406.295C553.411 405.911 565.914 406.108 571.745 406.226C573.431 406.261 574.816 404.904 574.816 403.218L574.816 400.458C574.816 398.917 573.65 397.635 572.11 397.573C570.031 397.489 566.953 397.458 563.587 397.744C558.838 398.147 542.954 397.92 536.217 397.802C534.535 397.772 533.154 399.126 533.154 400.808Z" fill="#8E8E8E"/>
<path d="M776.881 352.098C776.881 349.737 775.016 347.823 772.715 347.823C772.715 347.823 715.604 345.317 656.06 347.823C596.516 350.328 539.405 347.823 539.405 347.823C537.104 347.823 535.238 349.737 535.238 352.098C535.238 352.098 535.695 355.756 535.695 362.716C535.695 369.676 535.238 373.476 535.238 373.476C535.238 375.838 537.104 377.752 539.405 377.752H656.06H772.715C775.016 377.752 776.881 375.838 776.881 373.476V352.098Z" fill="white" stroke="#DCDCDC" stroke-width="1.8"/>
<path d="M689.39 420.509C689.39 418.148 687.524 416.233 685.223 416.233C685.223 416.233 655.634 416.233 634.775 416.654C613.916 417.074 539.405 416.233 539.405 416.233C537.104 416.233 535.238 418.148 535.238 420.509V441.887C535.238 444.248 537.104 446.163 539.405 446.163C539.405 446.163 554.816 445.362 588.711 445.362C622.607 445.362 685.223 446.163 685.223 446.163C687.524 446.163 689.39 444.248 689.39 441.887C689.39 441.887 690.399 434.053 690.399 430.573C690.399 427.093 689.39 420.509 689.39 420.509Z" fill="white" stroke="#DCDCDC" stroke-width="1.8"/>
</g>
<g filter="url(#filter1_d_14640_13546)">
<path d="M346.143 235.084C377.446 234.041 401.784 234.391 414.507 234.738L416.896 234.807C420.537 234.918 423.435 237.76 423.689 241.366L423.705 241.717C424.141 261.193 425.275 313.473 425.275 331.026C425.275 341.134 424.899 347.229 424.501 350.847L424.421 351.538C424.145 353.807 422.4 355.29 420.022 355.487L419.79 355.502C406.617 356.125 366.83 357.802 330.513 357.255L327.011 357.195C303 356.733 287.825 356.221 278.879 355.843L275.418 355.689C271.755 355.519 268.921 352.597 268.789 348.962L268.785 348.607C269.008 329.992 269.563 281.962 269.563 266.649C269.563 258.249 269.397 250.986 269.209 245.477L269.127 243.225C268.967 239.038 272.304 235.511 276.436 235.406L276.838 235.407C288.555 235.74 311.048 236.103 340.22 235.268L346.143 235.084Z" fill="white" stroke="black" stroke-width="1.6"/>
<path d="M397.295 302.465V301.47C397.295 299.841 396.009 298.511 394.38 298.478C384.692 298.278 352.955 297.724 331.301 298.542C318.391 299.029 311.423 299.029 307.683 298.907C305.7 298.843 303.43 300.833 303.43 302.817C303.43 304.302 304.602 305.508 306.087 305.515C316.477 305.567 354.249 305.734 363.767 305.501C372.343 305.292 387.759 305.407 394.266 305.469C395.937 305.486 397.295 304.136 397.295 302.465Z" fill="#DCDCDC"/>
<path d="M371.695 312.461H306.426C304.77 312.461 303.426 313.804 303.426 315.461V315.721C303.426 317.627 304.651 319.059 306.557 319.033C309.638 318.992 315.422 319.065 326.135 319.421C347.249 320.122 365.088 319.724 371.822 319.519C373.429 319.47 374.695 318.151 374.695 316.542V315.461C374.695 313.804 373.351 312.461 371.695 312.461Z" fill="#DCDCDC"/>
<path d="M387.834 282.743V270.48C387.834 269.641 387.303 268.921 386.474 268.792C384.216 268.442 378.774 268.024 367.457 269.083C353.222 270.416 314.124 269.411 304.716 269.144C303.588 269.112 302.66 270.018 302.66 271.147V282.743C302.66 283.847 303.556 284.743 304.66 284.743H385.834C386.939 284.743 387.834 283.847 387.834 282.743Z" fill="#8E8E8E"/>
</g>
<path d="M353.937 558.397C349.765 559.789 344.087 581.016 341.769 591.455L340.031 600.219L348.722 608.918L353.937 606.245C362.049 601.315 379.316 587.628 383.487 572.317C388.702 553.178 373.927 551.438 369.581 553.178C366.105 554.569 360.021 566.517 357.414 572.317C357.993 567.097 358.109 557.005 353.937 558.397Z" fill="white" stroke="black" stroke-width="1.8" stroke-linecap="round"/>
<path d="M243.559 482.511C245.282 474.923 244.429 463.082 247.905 452.932C258.335 421.614 236.24 410.478 225.81 406.999C215.381 403.519 197.998 402.649 184.961 423.528C171.925 444.407 182.721 459.956 174.03 476.485C158.385 488.664 143.765 511.219 138.897 520.962C132.814 533.142 102.394 605.348 120.646 697.563C138.897 789.778 91.0957 892.432 83.2736 908.961C75.4515 925.49 103.264 924.62 111.955 908.961C120.646 893.302 189.307 771.509 191.914 742.8C194.522 714.092 213.643 784.558 208.428 819.356C203.213 854.154 199.737 873.293 199.737 908.961C199.737 944.629 218.857 912.441 221.465 902.871C224.072 893.302 272.743 808.917 263.183 742.8C255.534 689.907 245.51 667.404 241.455 662.765C241.455 662.765 233.999 650.475 233.13 635.686C232.261 620.897 235.737 607.848 235.737 607.848C243.559 615.097 263.723 637.078 288.754 635.686C320.042 633.946 353.938 614.807 353.938 608.718C353.938 602.628 342.64 592.188 340.032 592.188C337.425 592.188 317.435 606.108 294.838 603.498C272.241 600.888 255.727 561.74 252.251 546.081C249.469 533.554 227.336 514.699 220.962 507.739C221.252 504.549 239.214 501.65 243.559 482.511Z" fill="white"/>
<path d="M115.845 674.514C113.977 666.988 116.185 676.841 172.661 682.639C201.438 685.593 220.461 673.923 238.331 662.697C242.992 674.917 253.846 708.167 258.757 742.131C268.317 808.247 219.646 892.633 217.039 902.202C214.432 911.772 195.311 943.96 195.311 908.292C195.311 872.624 198.787 853.485 204.002 818.687C209.217 783.889 190.096 713.422 187.489 742.131C184.881 770.839 116.22 892.633 107.529 908.292C98.8378 923.951 71.0257 924.821 78.8478 908.292C86.67 891.763 145.36 793.424 115.845 674.514Z" fill="#8E8E8E"/>
<path d="M220.961 507.07C213.719 509.97 203.802 514.26 190.175 509.854C176.348 505.383 170.185 500.284 160.625 489.845" stroke="black" stroke-width="1.8" stroke-linecap="round"/>
<path d="M163.067 486.918L163.672 487.585L163.737 487.526L163.79 487.454L163.067 486.918ZM138.897 520.343L139.703 520.745L139.703 520.745L138.897 520.343ZM120.646 696.944L119.763 697.118L119.763 697.118L120.646 696.944ZM263.183 742.181L262.292 742.31L262.292 742.31L263.183 742.181ZM235.739 608.709L236.351 608.049C236.081 607.799 235.686 607.739 235.353 607.896C235.02 608.054 234.818 608.399 234.841 608.766L235.739 608.709ZM247.538 453.356L248.389 453.648L248.392 453.64L247.538 453.356ZM243.561 483.373L244.439 483.572L244.439 483.572L243.561 483.373ZM220.964 508.601L220.067 508.52L220.031 508.916L220.3 509.209L220.964 508.601ZM252.252 546.943L251.467 547.383L251.467 547.383L252.252 546.943ZM288.755 636.548L288.705 635.649L288.705 635.649L288.755 636.548ZM163.067 486.918L162.463 486.251C146.832 500.407 142.962 510.193 138.092 519.941L138.897 520.343L139.703 520.745C144.567 511.007 148.312 501.495 163.672 487.585L163.067 486.918ZM138.897 520.343L138.092 519.941C131.956 532.226 101.459 604.64 119.763 697.118L120.646 696.944L121.529 696.769C103.329 604.817 133.671 532.819 139.703 520.745L138.897 520.343ZM120.646 696.944L119.763 697.118C128.85 743.032 121.499 791.595 110.869 830.789C100.242 869.971 86.362 899.712 82.4601 907.957L83.2736 908.342L84.0871 908.727C88.0074 900.443 101.939 870.592 112.606 831.261C123.27 791.942 130.693 743.07 121.529 696.769L120.646 696.944ZM83.2736 908.342L82.4601 907.957C80.424 912.26 80.5871 915.717 82.5377 918.089C84.4326 920.393 87.7821 921.369 91.4355 921.312C98.7622 921.2 108.214 916.936 112.742 908.779L111.955 908.342L111.168 907.905C107.004 915.407 98.2045 919.408 91.4078 919.513C87.9996 919.565 85.3196 918.638 83.928 916.946C82.5923 915.321 82.2122 912.689 84.0871 908.727L83.2736 908.342ZM111.955 908.342L112.742 908.779C117.085 900.954 136.43 866.577 155.016 830.568C164.308 812.564 173.416 794.141 180.366 778.417C183.841 770.555 186.781 763.358 188.936 757.219C191.084 751.097 192.474 745.967 192.811 742.262L191.914 742.181L191.018 742.1C190.703 745.572 189.377 750.528 187.237 756.623C185.104 762.701 182.184 769.851 178.72 777.689C171.791 793.365 162.702 811.752 153.416 829.742C134.846 865.722 115.516 900.071 111.168 907.905L111.955 908.342ZM191.914 742.181L192.811 742.262C192.971 740.495 193.193 739.144 193.456 738.16C193.728 737.145 194.015 736.643 194.219 736.441C194.304 736.358 194.338 736.361 194.323 736.364C194.309 736.366 194.342 736.353 194.446 736.406C194.693 736.531 195.081 736.892 195.579 737.638C196.552 739.095 197.659 741.584 198.81 744.907C199.954 748.212 201.121 752.281 202.23 756.856C206.675 775.195 210.119 801.376 207.538 818.603L208.428 818.737L209.318 818.87C211.951 801.299 208.443 774.849 203.979 756.432C202.861 751.818 201.678 747.691 200.511 744.318C199.349 740.964 198.182 738.294 197.077 736.638C196.536 735.828 195.935 735.143 195.261 734.801C194.905 734.62 194.494 734.518 194.058 734.583C193.619 734.648 193.25 734.868 192.954 735.16C192.396 735.712 192.009 736.605 191.718 737.695C191.417 738.816 191.184 740.279 191.018 742.1L191.914 742.181ZM208.428 818.737L207.538 818.603C202.325 853.391 198.837 872.596 198.837 908.342H199.737H200.637C200.637 872.752 204.101 853.679 209.318 818.87L208.428 818.737ZM199.737 908.342H198.837C198.837 912.833 199.137 916.3 199.682 918.898C200.223 921.474 201.027 923.31 202.126 924.417C203.291 925.592 204.708 925.87 206.157 925.482C207.534 925.113 208.92 924.153 210.238 922.918C212.889 920.434 215.576 916.536 217.752 912.701C219.929 908.864 221.653 904.984 222.333 902.489L221.465 902.252L220.596 902.016C219.973 904.305 218.329 908.037 216.187 911.813C214.044 915.589 211.463 919.304 209.007 921.604C207.772 922.762 206.646 923.487 205.691 923.743C204.807 923.98 204.073 923.824 203.404 923.15C202.669 922.409 201.959 920.982 201.444 918.528C200.934 916.098 200.637 912.768 200.637 908.342H199.737ZM221.465 902.252L222.333 902.489C222.634 901.385 223.637 899.103 225.214 895.719C226.758 892.404 228.865 888 231.244 882.881C236.029 872.581 242.069 859.045 247.731 843.734C259.041 813.144 268.887 775.342 264.073 742.052L263.183 742.181L262.292 742.31C267.039 775.137 257.329 812.585 246.042 843.11C240.405 858.356 234.387 871.843 229.611 882.122C227.209 887.293 225.161 891.569 223.582 894.958C222.035 898.279 220.947 900.727 220.596 902.016L221.465 902.252ZM263.183 742.181L264.073 742.052C260.242 715.558 255.311 695.465 250.878 679.046C246.438 662.599 242.529 649.939 240.694 638.186L239.805 638.324L238.916 638.463C240.771 650.344 244.727 663.166 249.14 679.515C253.562 695.893 258.475 715.911 262.292 742.31L263.183 742.181ZM239.805 638.324L240.694 638.186C238.851 626.375 237.836 618.981 237.282 614.543C237.005 612.324 236.843 610.845 236.751 609.924C236.705 609.463 236.676 609.142 236.659 608.938C236.651 608.836 236.645 608.763 236.642 608.716C236.64 608.693 236.639 608.676 236.638 608.666C236.638 608.661 236.637 608.657 236.637 608.655C236.637 608.654 236.637 608.653 236.637 608.653C236.637 608.653 236.637 608.652 236.637 608.653C236.637 608.653 236.637 608.653 236.637 608.653C236.637 608.653 236.637 608.653 235.739 608.709C234.841 608.766 234.841 608.766 234.841 608.767C234.841 608.767 234.841 608.767 234.841 608.767C234.841 608.767 234.841 608.768 234.841 608.768C234.841 608.77 234.841 608.771 234.841 608.773C234.841 608.777 234.842 608.782 234.842 608.789C234.843 608.803 234.845 608.822 234.846 608.849C234.85 608.901 234.856 608.98 234.865 609.088C234.883 609.303 234.913 609.633 234.96 610.103C235.054 611.041 235.217 612.535 235.496 614.766C236.052 619.227 237.07 626.64 238.916 638.463L239.805 638.324ZM247.538 453.356L246.686 453.064C244.906 458.261 244.338 463.971 243.994 469.266C243.645 474.622 243.524 479.471 242.683 483.173L243.561 483.373L244.439 483.572C245.321 479.686 245.45 474.602 245.79 469.383C246.133 464.104 246.692 458.601 248.389 453.648L247.538 453.356ZM243.561 483.373L242.683 483.173C240.576 492.456 235.18 497.795 230.229 501.228C227.737 502.956 225.384 504.186 223.561 505.223C222.667 505.731 221.867 506.212 221.277 506.684C220.728 507.123 220.14 507.723 220.067 508.52L220.964 508.601L221.86 508.683C221.859 508.694 221.858 508.65 221.942 508.537C222.027 508.422 222.172 508.273 222.402 508.089C222.867 507.717 223.552 507.298 224.451 506.787C226.212 505.785 228.676 504.496 231.254 502.707C236.443 499.109 242.201 493.428 244.439 483.572L243.561 483.373ZM220.964 508.601L220.3 509.209C226.763 516.267 239.826 526.623 251.467 547.383L252.252 546.943L253.037 546.503C241.26 525.501 227.912 514.855 221.627 507.993L220.964 508.601ZM252.252 546.943L251.467 547.383C253.402 550.833 255.608 555.952 258.216 561.814C260.811 567.651 263.785 574.178 267.227 580.356C270.667 586.53 274.597 592.396 279.12 596.893C283.646 601.391 288.819 604.57 294.736 605.254L294.839 604.36L294.943 603.466C289.561 602.844 284.742 599.942 280.389 595.616C276.035 591.288 272.201 585.586 268.8 579.48C265.4 573.379 262.454 566.916 259.86 561.083C257.278 555.276 255.025 550.047 253.037 546.503L252.252 546.943ZM294.839 604.36L294.736 605.254C306.24 606.582 317.044 603.702 325.258 600.523C329.369 598.932 332.846 597.26 335.444 595.993C336.75 595.357 337.815 594.833 338.637 594.465C339.048 594.281 339.379 594.146 339.637 594.057C339.765 594.013 339.865 593.985 339.939 593.968C340.018 593.95 340.044 593.95 340.034 593.95V593.05V592.15C339.712 592.15 339.362 592.249 339.053 592.355C338.72 592.469 338.332 592.63 337.903 592.822C337.045 593.205 335.943 593.748 334.656 594.375C332.066 595.638 328.645 597.282 324.608 598.844C316.526 601.973 306.036 604.747 294.943 603.466L294.839 604.36ZM340.034 593.05V593.95C340.123 593.95 340.416 594.017 340.957 594.305C341.46 594.573 342.075 594.976 342.765 595.496C344.144 596.534 345.762 597.993 347.307 599.646C348.853 601.3 350.303 603.125 351.362 604.89C352.434 606.679 353.04 608.303 353.04 609.579H353.94H354.84C354.84 607.812 354.033 605.846 352.906 603.965C351.764 602.06 350.227 600.134 348.622 598.417C347.017 596.699 345.321 595.167 343.848 594.058C343.113 593.504 342.416 593.043 341.803 592.716C341.226 592.409 340.596 592.15 340.034 592.15V593.05ZM353.94 609.579H353.04C353.04 609.758 352.975 610.04 352.759 610.44C352.547 610.834 352.215 611.295 351.75 611.817C350.821 612.86 349.43 614.072 347.624 615.391C344.017 618.025 338.857 621.014 332.701 623.879C320.385 629.61 304.203 634.788 288.705 635.649L288.755 636.548L288.805 637.447C304.597 636.568 321.006 631.306 333.46 625.511C339.69 622.612 344.959 619.566 348.685 616.844C350.546 615.486 352.048 614.189 353.094 613.014C353.618 612.426 354.044 611.85 354.344 611.294C354.64 610.743 354.84 610.162 354.84 609.579H353.94ZM288.755 636.548L288.705 635.649C276.469 636.33 265.368 631.298 256.3 625.125C247.226 618.948 240.307 611.716 236.351 608.049L235.739 608.709L235.127 609.37C238.993 612.952 246.067 620.336 255.287 626.613C264.515 632.895 276.011 638.158 288.805 637.447L288.755 636.548ZM163.067 486.918L163.79 487.454C174.853 472.526 177.109 461.581 178.229 451.766C179.346 441.986 179.338 433.612 185.724 423.384L184.961 422.908L184.197 422.431C177.547 433.082 177.539 441.942 176.441 451.562C175.347 461.146 173.175 471.768 162.344 486.382L163.067 486.918ZM184.961 422.908L185.724 423.384C192.136 413.116 199.562 408.269 206.597 406.378C213.655 404.48 220.421 405.529 225.525 407.232L225.809 406.379L226.094 405.525C220.769 403.748 213.628 402.623 206.129 404.639C198.606 406.662 190.822 411.821 184.197 422.431L184.961 422.908ZM225.809 406.379L225.525 407.232C230.647 408.941 238.491 412.774 243.77 419.961C249.009 427.092 251.817 437.656 246.684 453.072L247.538 453.356L248.392 453.64C253.687 437.738 250.846 426.552 245.221 418.895C239.636 411.292 231.401 407.295 226.094 405.525L225.809 406.379Z" fill="black"/>
<path d="M240.076 442.773C256.022 449.364 265.312 437.652 265.93 430.735C266.669 402.502 246.621 399.111 231.124 404.162C214.753 378.795 186.041 396.137 178.751 402.09C172.946 406.831 173.283 418.626 173.397 422.61L173.398 422.663C171.341 422.708 161.592 422.662 154.214 437.434C145.595 454.689 153.336 480.177 168.971 488.395C181.967 495.226 200.813 493.053 208.078 483.964C213.981 476.578 213.982 466.478 210.292 461.068C211.3 462.382 214.059 465.365 224.311 464.761C236.855 464.022 241.705 447.783 240.076 442.773Z" fill="#DCDCDC"/>
<path d="M686.176 388.471C690.348 389.862 696.026 411.089 698.344 421.529L696.375 435.798C696.375 435.798 690.291 438.407 686.176 436.318C682.061 434.228 660.798 417.701 656.626 402.39C651.411 383.251 666.186 381.511 670.532 383.251C674.008 384.643 680.092 396.59 682.7 402.39C682.12 397.17 682.004 387.079 686.176 388.471Z" fill="white" stroke="black" stroke-width="1.8" stroke-linecap="round"/>
<path d="M866.232 544.541C852.705 517.463 869.335 528.882 853.69 516.703L789.374 534.972C768.515 510.323 725.927 459.808 722.451 454.936C718.105 448.847 705.068 425.358 702.461 422.748C699.854 420.138 692.032 419.268 687.686 428.838C683.34 438.407 712.022 513.223 732.011 544.541C748.003 569.596 763.012 627.477 768.517 653.285C771.124 672.424 770.97 702.003 773.731 728.101C781.553 802.047 781.554 916.881 784.161 926.451C786.768 936.02 797.573 967.223 805.889 932.54C816.318 889.043 812.842 892.522 820.664 841.195C827.118 798.845 850.953 738.231 857.165 766.379C873.679 841.195 863.25 922.101 871.942 937.76C880.633 953.419 886.646 952.981 891.933 921.231C903.231 853.375 917.188 835.982 920.118 742.021C923.865 621.857 872.315 556.721 866.232 544.541Z" fill="#DCDCDC"/>
<path d="M891.932 921.23C903.23 853.374 928.433 824.666 925.826 708.962C912.788 721.141 882.369 742.89 773.73 728.101C779.812 784.648 781.553 916.88 784.16 926.45C786.767 936.019 797.572 967.223 805.888 932.54C816.318 889.042 812.841 892.522 820.663 841.195C827.117 798.844 850.952 738.231 857.164 766.379C873.678 841.195 863.249 922.1 871.941 937.759C880.632 953.418 886.645 952.98 891.932 921.23Z" fill="white"/>
<path d="M803.508 533.169C797.134 540.129 788.689 534.553 780.68 524.533C759.821 498.434 744.176 482.775 723.318 456.676C709.107 438.897 707.504 411.435 689.422 425.358C678.123 434.058 714.437 509.733 736.354 554.981C750.26 583.689 755.475 595.869 768.512 654.155" stroke="black" stroke-width="1.8" stroke-linecap="round"/>
<path d="M853.688 516.702C869.333 528.881 858.412 517.462 871.939 544.541C878.022 556.72 929.572 621.856 925.825 742.02C922.895 835.981 903.229 853.374 891.931 921.23C886.644 952.98 880.631 953.418 871.94 937.759C863.249 922.1 873.677 841.194 857.164 766.378C850.951 738.23 827.116 798.844 820.662 841.194C812.84 892.522 816.317 889.042 805.887 932.539C797.571 967.222 786.766 936.019 784.159 926.45C781.552 916.88 781.551 802.046 773.729 728.101C770.968 702.002 771.122 672.424 768.515 653.285" stroke="black" stroke-width="1.8" stroke-linecap="round"/>
<path d="M803.505 533.168C810.748 536.067 820.888 540.997 834.291 535.951C848.449 530.621 850.207 524.532 853.684 516.702" stroke="black" stroke-width="1.8" stroke-linecap="round"/>
<path d="M853.684 517.573C853.684 487.994 852.543 469.835 839.506 448.956C826.469 428.078 809.087 428.948 798.657 432.427C775.462 440.166 755.473 473.205 803.274 533.232" stroke="black" stroke-width="1.8" stroke-linecap="round"/>
<path d="M774.594 440.146C781.825 427.279 789.658 430.867 793.714 431.447C807.619 412.308 860.478 436.284 867.591 481.034C873.674 519.312 882.411 560.425 884.973 573.249C893.664 616.747 857.495 649.161 838.04 632.406C800.668 600.218 787.631 574.989 783.285 548.89C780.678 533.231 776.332 517.572 771.986 496.693C767.64 475.814 766.771 454.066 774.594 440.146Z" fill="black" stroke="black" stroke-width="1.8" stroke-linecap="round"/>
</g>
</g>
<defs>
<filter id="filter0_d_14640_13546" x="478.387" y="277.29" width="354.035" height="230.741" filterUnits="userSpaceOnUse" color-interpolation-filters="sRGB">
<feFlood flood-opacity="0" result="BackgroundImageFix"/>
<feColorMatrix in="SourceAlpha" type="matrix" values="0 0 0 0 0 0 0 0 0 0 0 0 0 0 0 0 0 0 127 0" result="hardAlpha"/>
<feOffset dy="4"/>
<feGaussianBlur stdDeviation="6"/>
<feComposite in2="hardAlpha" operator="out"/>
<feColorMatrix type="matrix" values="0 0 0 0 0 0 0 0 0 0 0 0 0 0 0 0 0 0 0.2 0"/>
<feBlend mode="normal" in2="BackgroundImageFix" result="effect1_dropShadow_14640_13546"/>
<feBlend mode="normal" in="SourceGraphic" in2="effect1_dropShadow_14640_13546" result="shape"/>
</filter>
<filter id="filter1_d_14640_13546" x="255.984" y="225.59" width="182.09" height="148.573" filterUnits="userSpaceOnUse" color-interpolation-filters="sRGB">
<feFlood flood-opacity="0" result="BackgroundImageFix"/>
<feColorMatrix in="SourceAlpha" type="matrix" values="0 0 0 0 0 0 0 0 0 0 0 0 0 0 0 0 0 0 127 0" result="hardAlpha"/>
<feOffset dy="4"/>
<feGaussianBlur stdDeviation="6"/>
<feColorMatrix type="matrix" values="0 0 0 0 0 0 0 0 0 0 0 0 0 0 0 0 0 0 0.2 0"/>
<feBlend mode="normal" in2="BackgroundImageFix" result="effect1_dropShadow_14640_13546"/>
<feBlend mode="normal" in="SourceGraphic" in2="effect1_dropShadow_14640_13546" result="shape"/>
</filter>
<clipPath id="clip0_14640_13546">
<rect width="1075" height="913" fill="white"/>
</clipPath>
<clipPath id="clip1_14640_13546">
<rect width="912" height="969" fill="white" transform="translate(76 -19)"/>
</clipPath>
</defs>
</svg>
